<?xml version="1.0" encoding="UTF-8" standalone="no"?>
<!DOCTYPE svg PUBLIC "-//W3C//DTD SVG 1.1//EN"
 "http://www.w3.org/Graphics/SVG/1.1/DTD/svg11.dtd">
<!-- Generated by graphviz version 2.43.0 (0)
 -->
<!-- Title: G Pages: 1 -->
<svg width="3750pt" height="1108pt"
 viewBox="0.00 0.00 3750.00 1108.15" xmlns="http://www.w3.org/2000/svg" xmlns:xlink="http://www.w3.org/1999/xlink">
<g id="graph0" class="graph" transform="scale(1 1) rotate(0) translate(4 1104.15)">
<title>G</title>
<polygon fill="#eeeeee" stroke="transparent" points="-4,4 -4,-1104.15 3746,-1104.15 3746,4 -4,4"/>
<g id="clust1" class="cluster">
<title>cluster_inputs</title>
<polygon fill="#eeeeee" stroke="black" stroke-dasharray="5,2" points="8,-715.1 8,-1063.48 3734,-1063.48 3734,-715.1 8,-715.1"/>
<text text-anchor="middle" x="3667.5" y="-722.9" font-family="Times,serif" font-size="14.00">Workflow Inputs</text>
</g>
<g id="clust2" class="cluster">
<title>cluster_outputs</title>
<polygon fill="#eeeeee" stroke="black" stroke-dasharray="5,2" points="1592,-36.67 1592,-385.05 1934,-385.05 1934,-36.67 1592,-36.67"/>
<text text-anchor="middle" x="1861.5" y="-44.47" font-family="Times,serif" font-size="14.00">Workflow Outputs</text>
</g>
<!-- arriba_directory -->
<g id="node1" class="node">
<title>arriba_directory</title>
<polygon fill="#94ddf4" stroke="black" points="3594,-923.67 3594,-959.67 3726,-959.67 3726,-923.67 3594,-923.67"/>
<text text-anchor="middle" x="3660" y="-937.97" font-family="Times,serif" font-size="14.00">arriba_directory</text>
</g>
<!-- run_rnasum_step -->
<g id="node31" class="node">
<title>run_rnasum_step</title>
<ellipse fill="none" stroke="black" cx="1785" cy="-595.67" rx="90.98" ry="18"/>
<text text-anchor="middle" x="1785" y="-591.97" font-family="Times,serif" font-size="14.00">run_rnasum_step</text>
</g>
<!-- arriba_directory&#45;&gt;run_rnasum_step -->
<g id="edge1" class="edge">
<title>arriba_directory&#45;&gt;run_rnasum_step</title>
<path fill="none" stroke="black" d="M3638.66,-923.46C3624.32,-912.78 3604.53,-899.71 3585,-892.17 2969.6,-654.63 2163.95,-608.01 1885.09,-598.89"/>
<polygon fill="black" stroke="black" points="1885.1,-595.38 1874.99,-598.56 1884.88,-602.38 1885.1,-595.38"/>
</g>
<!-- batch_rm -->
<g id="node2" class="node">
<title>batch_rm</title>
<polygon fill="#94ddf4" stroke="black" points="3492.5,-923.67 3492.5,-959.67 3575.5,-959.67 3575.5,-923.67 3492.5,-923.67"/>
<text text-anchor="middle" x="3534" y="-937.97" font-family="Times,serif" font-size="14.00">batch_rm</text>
</g>
<!-- batch_rm&#45;&gt;run_rnasum_step -->
<g id="edge2" class="edge">
<title>batch_rm&#45;&gt;run_rnasum_step</title>
<path fill="none" stroke="black" d="M3521,-923.61C3511.85,-912.86 3498.65,-899.64 3484,-892.17 3195.83,-745.36 2183.99,-635.89 1875.18,-605.29"/>
<polygon fill="black" stroke="black" points="1875.22,-601.78 1864.93,-604.28 1874.54,-608.74 1875.22,-601.78"/>
</g>
<!-- bcbio_transcriptome_directory -->
<g id="node3" class="node">
<title>bcbio_transcriptome_directory</title>
<polygon fill="#94ddf4" stroke="black" points="3239.5,-923.67 3239.5,-959.67 3474.5,-959.67 3474.5,-923.67 3239.5,-923.67"/>
<text text-anchor="middle" x="3357" y="-937.97" font-family="Times,serif" font-size="14.00">bcbio_transcriptome_directory</text>
</g>
<!-- bcbio_transcriptome_directory&#45;&gt;run_rnasum_step -->
<g id="edge3" class="edge">
<title>bcbio_transcriptome_directory&#45;&gt;run_rnasum_step</title>
<path fill="none" stroke="black" d="M3317.85,-923.67C3293.27,-913.48 3260.7,-900.86 3231,-892.17 2720.85,-742.98 2088.03,-641.55 1866.29,-608.43"/>
<polygon fill="black" stroke="black" points="1866.77,-604.96 1856.36,-606.95 1865.74,-611.89 1866.77,-604.96"/>
</g>
<!-- clinical_id -->
<g id="node4" class="node">
<title>clinical_id</title>
<polygon fill="#94ddf4" stroke="black" points="3134.5,-923.67 3134.5,-959.67 3221.5,-959.67 3221.5,-923.67 3134.5,-923.67"/>
<text text-anchor="middle" x="3178" y="-937.97" font-family="Times,serif" font-size="14.00">clinical_id</text>
</g>
<!-- clinical_id&#45;&gt;run_rnasum_step -->
<g id="edge4" class="edge">
<title>clinical_id&#45;&gt;run_rnasum_step</title>
<path fill="none" stroke="black" d="M3163.8,-923.37C3154.21,-912.79 3140.64,-899.87 3126,-892.17 2700.48,-668.61 2113.39,-613.9 1883.2,-600.75"/>
<polygon fill="black" stroke="black" points="1883.35,-597.25 1873.17,-600.19 1882.96,-604.24 1883.35,-597.25"/>
</g>
<!-- clinical_info -->
<g id="node5" class="node">
<title>clinical_info</title>
<polygon fill="#94ddf4" stroke="black" points="3015.5,-923.67 3015.5,-959.67 3116.5,-959.67 3116.5,-923.67 3015.5,-923.67"/>
<text text-anchor="middle" x="3066" y="-937.97" font-family="Times,serif" font-size="14.00">clinical_info</text>
</g>
<!-- clinical_info&#45;&gt;run_rnasum_step -->
<g id="edge5" class="edge">
<title>clinical_info&#45;&gt;run_rnasum_step</title>
<path fill="none" stroke="black" d="M3049.41,-923.53C3038.32,-913.02 3022.9,-900.1 3007,-892.17 2614.96,-696.64 2086.49,-626.07 1876.51,-604.71"/>
<polygon fill="black" stroke="black" points="1876.75,-601.21 1866.45,-603.7 1876.05,-608.18 1876.75,-601.21"/>
</g>
<!-- cn_gain -->
<g id="node6" class="node">
<title>cn_gain</title>
<polygon fill="#94ddf4" stroke="black" points="2926.5,-923.67 2926.5,-959.67 2997.5,-959.67 2997.5,-923.67 2926.5,-923.67"/>
<text text-anchor="middle" x="2962" y="-937.97" font-family="Times,serif" font-size="14.00">cn_gain</text>
</g>
<!-- cn_gain&#45;&gt;run_rnasum_step -->
<g id="edge6" class="edge">
<title>cn_gain&#45;&gt;run_rnasum_step</title>
<path fill="none" stroke="black" d="M2950.08,-923.51C2941.92,-912.99 2930.21,-900.07 2917,-892.17 2571.6,-685.56 2082.68,-621.75 1879.37,-603.47"/>
<polygon fill="black" stroke="black" points="1879.58,-599.97 1869.31,-602.58 1878.97,-606.95 1879.58,-599.97"/>
</g>
<!-- cn_loss -->
<g id="node7" class="node">
<title>cn_loss</title>
<polygon fill="#94ddf4" stroke="black" points="2840,-923.67 2840,-959.67 2908,-959.67 2908,-923.67 2840,-923.67"/>
<text text-anchor="middle" x="2874" y="-937.97" font-family="Times,serif" font-size="14.00">cn_loss</text>
</g>
<!-- cn_loss&#45;&gt;run_rnasum_step -->
<g id="edge7" class="edge">
<title>cn_loss&#45;&gt;run_rnasum_step</title>
<path fill="none" stroke="black" d="M2862.71,-923.59C2854.96,-913.1 2843.77,-900.19 2831,-892.17 2516.15,-694.61 2066.55,-626.12 1875.96,-605.05"/>
<polygon fill="black" stroke="black" points="1876.3,-601.56 1865.98,-603.96 1875.55,-608.52 1876.3,-601.56"/>
</g>
<!-- dataset -->
<g id="node8" class="node">
<title>dataset</title>
<polygon fill="#94ddf4" stroke="black" points="2752,-923.67 2752,-959.67 2822,-959.67 2822,-923.67 2752,-923.67"/>
<text text-anchor="middle" x="2787" y="-937.97" font-family="Times,serif" font-size="14.00">dataset</text>
</g>
<!-- dataset&#45;&gt;run_rnasum_step -->
<g id="edge8" class="edge">
<title>dataset&#45;&gt;run_rnasum_step</title>
<path fill="none" stroke="black" d="M2774.94,-923.23C2766.96,-912.87 2755.66,-900.23 2743,-892.17 2454.53,-708.65 2044.7,-632.78 1869.6,-607.41"/>
<polygon fill="black" stroke="black" points="1870.07,-603.94 1859.67,-605.99 1869.08,-610.87 1870.07,-603.94"/>
</g>
<!-- dataset_name_incl -->
<g id="node9" class="node">
<title>dataset_name_incl</title>
<polygon fill="#94ddf4" stroke="black" points="2586,-923.67 2586,-959.67 2734,-959.67 2734,-923.67 2586,-923.67"/>
<text text-anchor="middle" x="2660" y="-937.97" font-family="Times,serif" font-size="14.00">dataset_name_incl</text>
</g>
<!-- dataset_name_incl&#45;&gt;run_rnasum_step -->
<g id="edge9" class="edge">
<title>dataset_name_incl&#45;&gt;run_rnasum_step</title>
<path fill="none" stroke="black" d="M2633.35,-923.52C2617.38,-913.64 2596.45,-901.4 2577,-892.17 2310.47,-765.73 1974.19,-655.66 1842.03,-614.21"/>
<polygon fill="black" stroke="black" points="1842.71,-610.76 1832.12,-611.11 1840.62,-617.44 1842.71,-610.76"/>
</g>
<!-- dragen_transcriptome_directory -->
<g id="node10" class="node">
<title>dragen_transcriptome_directory</title>
<polygon fill="#94ddf4" stroke="black" points="2320.5,-923.67 2320.5,-959.67 2567.5,-959.67 2567.5,-923.67 2320.5,-923.67"/>
<text text-anchor="middle" x="2444" y="-937.97" font-family="Times,serif" font-size="14.00">dragen_transcriptome_directory</text>
</g>
<!-- dragen_transcriptome_directory&#45;&gt;run_rnasum_step -->
<g id="edge10" class="edge">
<title>dragen_transcriptome_directory&#45;&gt;run_rnasum_step</title>
<path fill="none" stroke="black" d="M2411.32,-923.61C2301.32,-866.19 1944.73,-680.05 1824.79,-617.44"/>
<polygon fill="black" stroke="black" points="1826.06,-614.15 1815.57,-612.63 1822.82,-620.36 1826.06,-614.15"/>
</g>
<!-- drugs -->
<g id="node11" class="node">
<title>drugs</title>
<polygon fill="#94ddf4" stroke="black" points="2244,-923.67 2244,-959.67 2302,-959.67 2302,-923.67 2244,-923.67"/>
<text text-anchor="middle" x="2273" y="-937.97" font-family="Times,serif" font-size="14.00">drugs</text>
</g>
<!-- drugs&#45;&gt;run_rnasum_step -->
<g id="edge11" class="edge">
<title>drugs&#45;&gt;run_rnasum_step</title>
<path fill="none" stroke="black" d="M2261.56,-923.37C2254.58,-913.57 2245.08,-901.44 2235,-892.17 2100.2,-768.19 1908.12,-660.88 1825.42,-617.36"/>
<polygon fill="black" stroke="black" points="1826.83,-614.15 1816.35,-612.61 1823.59,-620.35 1826.83,-614.15"/>
</g>
<!-- filter -->
<g id="node12" class="node">
<title>filter</title>
<polygon fill="#94ddf4" stroke="black" points="2172,-923.67 2172,-959.67 2226,-959.67 2226,-923.67 2172,-923.67"/>
<text text-anchor="middle" x="2199" y="-937.97" font-family="Times,serif" font-size="14.00">filter</text>
</g>
<!-- filter&#45;&gt;run_rnasum_step -->
<g id="edge12" class="edge">
<title>filter&#45;&gt;run_rnasum_step</title>
<path fill="none" stroke="black" d="M2188.03,-923.63C2181.37,-913.91 2172.37,-901.78 2163,-892.17 2049.22,-775.51 1888.59,-664.58 1819.16,-618.76"/>
<polygon fill="black" stroke="black" points="1821.05,-615.8 1810.77,-613.24 1817.2,-621.65 1821.05,-615.8"/>
</g>
<!-- grch_version -->
<g id="node13" class="node">
<title>grch_version</title>
<polygon fill="#94ddf4" stroke="black" points="2046,-923.67 2046,-959.67 2154,-959.67 2154,-923.67 2046,-923.67"/>
<text text-anchor="middle" x="2100" y="-937.97" font-family="Times,serif" font-size="14.00">grch_version</text>
</g>
<!-- grch_version&#45;&gt;run_rnasum_step -->
<g id="edge13" class="edge">
<title>grch_version&#45;&gt;run_rnasum_step</title>
<path fill="none" stroke="black" d="M2084.38,-923.61C2032.73,-867.2 1867.31,-686.56 1807.14,-620.85"/>
<polygon fill="black" stroke="black" points="1809.68,-618.44 1800.34,-613.43 1804.52,-623.17 1809.68,-618.44"/>
</g>
<!-- hide_code_btn -->
<g id="node14" class="node">
<title>hide_code_btn</title>
<polygon fill="#94ddf4" stroke="black" points="1910,-923.67 1910,-959.67 2028,-959.67 2028,-923.67 1910,-923.67"/>
<text text-anchor="middle" x="1969" y="-937.97" font-family="Times,serif" font-size="14.00">hide_code_btn</text>
</g>
<!-- hide_code_btn&#45;&gt;run_rnasum_step -->
<g id="edge14" class="edge">
<title>hide_code_btn&#45;&gt;run_rnasum_step</title>
<path fill="none" stroke="black" d="M1959.88,-923.61C1930.02,-867.79 1835.08,-690.31 1799.05,-622.95"/>
<polygon fill="black" stroke="black" points="1801.98,-621 1794.18,-613.83 1795.81,-624.3 1801.98,-621"/>
</g>
<!-- immunogram -->
<g id="node15" class="node">
<title>immunogram</title>
<polygon fill="#94ddf4" stroke="black" points="1780,-923.67 1780,-959.67 1892,-959.67 1892,-923.67 1780,-923.67"/>
<text text-anchor="middle" x="1836" y="-937.97" font-family="Times,serif" font-size="14.00">immunogram</text>
</g>
<!-- immunogram&#45;&gt;run_rnasum_step -->
<g id="edge15" class="edge">
<title>immunogram&#45;&gt;run_rnasum_step</title>
<path fill="none" stroke="black" d="M1833.47,-923.61C1825.23,-868.02 1799.1,-691.76 1789.02,-623.78"/>
<polygon fill="black" stroke="black" points="1792.47,-623.21 1787.54,-613.83 1785.55,-624.24 1792.47,-623.21"/>
</g>
<!-- log -->
<g id="node16" class="node">
<title>log</title>
<polygon fill="#94ddf4" stroke="black" points="1708,-923.67 1708,-959.67 1762,-959.67 1762,-923.67 1708,-923.67"/>
<text text-anchor="middle" x="1735" y="-937.97" font-family="Times,serif" font-size="14.00">log</text>
</g>
<!-- log&#45;&gt;run_rnasum_step -->
<g id="edge16" class="edge">
<title>log&#45;&gt;run_rnasum_step</title>
<path fill="none" stroke="black" d="M1737.48,-923.61C1745.56,-868.02 1771.18,-691.76 1781.06,-623.78"/>
<polygon fill="black" stroke="black" points="1784.53,-624.23 1782.51,-613.83 1777.6,-623.23 1784.53,-624.23"/>
</g>
<!-- norm -->
<g id="node17" class="node">
<title>norm</title>
<polygon fill="#94ddf4" stroke="black" points="1636,-923.67 1636,-959.67 1690,-959.67 1690,-923.67 1636,-923.67"/>
<text text-anchor="middle" x="1663" y="-937.97" font-family="Times,serif" font-size="14.00">norm</text>
</g>
<!-- norm&#45;&gt;run_rnasum_step -->
<g id="edge17" class="edge">
<title>norm&#45;&gt;run_rnasum_step</title>
<path fill="none" stroke="black" d="M1669.05,-923.61C1688.81,-867.91 1751.53,-691.04 1775.53,-623.36"/>
<polygon fill="black" stroke="black" points="1778.87,-624.43 1778.91,-613.83 1772.27,-622.09 1778.87,-624.43"/>
</g>
<!-- pcgr_splice_vars -->
<g id="node18" class="node">
<title>pcgr_splice_vars</title>
<polygon fill="#94ddf4" stroke="black" points="1484,-923.67 1484,-959.67 1618,-959.67 1618,-923.67 1484,-923.67"/>
<text text-anchor="middle" x="1551" y="-937.97" font-family="Times,serif" font-size="14.00">pcgr_splice_vars</text>
</g>
<!-- pcgr_splice_vars&#45;&gt;run_rnasum_step -->
<g id="edge18" class="edge">
<title>pcgr_splice_vars&#45;&gt;run_rnasum_step</title>
<path fill="none" stroke="black" d="M1562.6,-923.61C1600.73,-867.56 1722.3,-688.85 1767.69,-622.12"/>
<polygon fill="black" stroke="black" points="1770.6,-624.07 1773.33,-613.83 1764.81,-620.13 1770.6,-624.07"/>
</g>
<!-- pcgr_tier -->
<g id="node19" class="node">
<title>pcgr_tier</title>
<polygon fill="#94ddf4" stroke="black" points="1384.5,-923.67 1384.5,-959.67 1465.5,-959.67 1465.5,-923.67 1384.5,-923.67"/>
<text text-anchor="middle" x="1425" y="-937.97" font-family="Times,serif" font-size="14.00">pcgr_tier</text>
</g>
<!-- pcgr_tier&#45;&gt;run_rnasum_step -->
<g id="edge19" class="edge">
<title>pcgr_tier&#45;&gt;run_rnasum_step</title>
<path fill="none" stroke="black" d="M1442.55,-923.58C1452.12,-914.27 1464.19,-902.57 1475,-892.17 1580.27,-790.95 1706.49,-671.1 1759.55,-620.79"/>
<polygon fill="black" stroke="black" points="1762.28,-623.03 1767.13,-613.61 1757.46,-617.95 1762.28,-623.03"/>
</g>
<!-- project -->
<g id="node20" class="node">
<title>project</title>
<polygon fill="#94ddf4" stroke="black" points="1299.5,-923.67 1299.5,-959.67 1366.5,-959.67 1366.5,-923.67 1299.5,-923.67"/>
<text text-anchor="middle" x="1333" y="-937.97" font-family="Times,serif" font-size="14.00">project</text>
</g>
<!-- project&#45;&gt;run_rnasum_step -->
<g id="edge20" class="edge">
<title>project&#45;&gt;run_rnasum_step</title>
<path fill="none" stroke="black" d="M1346.49,-923.67C1354.57,-913.96 1365.32,-901.84 1376,-892.17 1503.38,-776.9 1675.62,-664.82 1749.24,-618.69"/>
<polygon fill="black" stroke="black" points="1751.5,-621.41 1758.13,-613.14 1747.79,-615.47 1751.5,-621.41"/>
</g>
<!-- ref_data_directory -->
<g id="node21" class="node">
<title>ref_data_directory</title>
<polygon fill="#94ddf4" stroke="black" points="1134.5,-923.67 1134.5,-959.67 1281.5,-959.67 1281.5,-923.67 1134.5,-923.67"/>
<text text-anchor="middle" x="1208" y="-937.97" font-family="Times,serif" font-size="14.00">ref_data_directory</text>
</g>
<!-- ref_data_directory&#45;&gt;run_rnasum_step -->
<g id="edge21" class="edge">
<title>ref_data_directory&#45;&gt;run_rnasum_step</title>
<path fill="none" stroke="black" d="M1236.61,-923.61C1332.51,-866.44 1642.46,-681.65 1748.8,-618.25"/>
<polygon fill="black" stroke="black" points="1750.77,-621.15 1757.57,-613.03 1747.19,-615.14 1750.77,-621.15"/>
</g>
<!-- report_directory -->
<g id="node22" class="node">
<title>report_directory</title>
<polygon fill="#94ddf4" stroke="black" points="982,-923.67 982,-959.67 1116,-959.67 1116,-923.67 982,-923.67"/>
<text text-anchor="middle" x="1049" y="-937.97" font-family="Times,serif" font-size="14.00">report_directory</text>
</g>
<!-- report_directory&#45;&gt;run_rnasum_step -->
<g id="edge22" class="edge">
<title>report_directory&#45;&gt;run_rnasum_step</title>
<path fill="none" stroke="black" d="M1074.13,-923.58C1088.92,-913.85 1108.17,-901.72 1126,-892.17 1347.28,-773.63 1625.51,-659.77 1736.27,-615.77"/>
<polygon fill="black" stroke="black" points="1737.83,-618.92 1745.84,-611.98 1735.25,-612.41 1737.83,-618.92"/>
</g>
<!-- sample_name -->
<g id="node23" class="node">
<title>sample_name</title>
<polygon fill="#94ddf4" stroke="black" points="850.5,-923.67 850.5,-959.67 963.5,-959.67 963.5,-923.67 850.5,-923.67"/>
<text text-anchor="middle" x="907" y="-937.97" font-family="Times,serif" font-size="14.00">sample_name</text>
</g>
<!-- sample_name&#45;&gt;run_rnasum_step -->
<g id="edge23" class="edge">
<title>sample_name&#45;&gt;run_rnasum_step</title>
<path fill="none" stroke="black" d="M927.09,-923.56C939.68,-913.45 956.58,-900.96 973,-892.17 1236.5,-751.16 1581.63,-650.66 1721.77,-613.02"/>
<polygon fill="black" stroke="black" points="1722.74,-616.39 1731.5,-610.42 1720.94,-609.62 1722.74,-616.39"/>
</g>
<!-- sample_source -->
<g id="node24" class="node">
<title>sample_source</title>
<polygon fill="#94ddf4" stroke="black" points="710,-923.67 710,-959.67 832,-959.67 832,-923.67 710,-923.67"/>
<text text-anchor="middle" x="771" y="-937.97" font-family="Times,serif" font-size="14.00">sample_source</text>
</g>
<!-- sample_source&#45;&gt;run_rnasum_step -->
<g id="edge24" class="edge">
<title>sample_source&#45;&gt;run_rnasum_step</title>
<path fill="none" stroke="black" d="M792.36,-923.61C805.95,-913.39 824.27,-900.77 842,-892.17 1150.91,-742.38 1553.07,-646.21 1713.95,-611.36"/>
<polygon fill="black" stroke="black" points="1715.16,-614.68 1724.19,-609.15 1713.68,-607.84 1715.16,-614.68"/>
</g>
<!-- save_tables -->
<g id="node25" class="node">
<title>save_tables</title>
<polygon fill="#94ddf4" stroke="black" points="592.5,-923.67 592.5,-959.67 691.5,-959.67 691.5,-923.67 592.5,-923.67"/>
<text text-anchor="middle" x="642" y="-937.97" font-family="Times,serif" font-size="14.00">save_tables</text>
</g>
<!-- save_tables&#45;&gt;run_rnasum_step -->
<g id="edge25" class="edge">
<title>save_tables&#45;&gt;run_rnasum_step</title>
<path fill="none" stroke="black" d="M658.92,-923.45C670.02,-913.04 685.33,-900.27 701,-892.17 1046.62,-713.52 1511.7,-633.87 1700.29,-607.4"/>
<polygon fill="black" stroke="black" points="1701,-610.84 1710.42,-606 1700.03,-603.91 1701,-610.84"/>
</g>
<!-- scaling -->
<g id="node26" class="node">
<title>scaling</title>
<polygon fill="#94ddf4" stroke="black" points="507.5,-923.67 507.5,-959.67 574.5,-959.67 574.5,-923.67 507.5,-923.67"/>
<text text-anchor="middle" x="541" y="-937.97" font-family="Times,serif" font-size="14.00">scaling</text>
</g>
<!-- scaling&#45;&gt;run_rnasum_step -->
<g id="edge26" class="edge">
<title>scaling&#45;&gt;run_rnasum_step</title>
<path fill="none" stroke="black" d="M552.2,-923.44C559.92,-912.89 571.09,-899.97 584,-892.17 949.7,-671.29 1472.43,-615.25 1687.18,-601.25"/>
<polygon fill="black" stroke="black" points="1687.42,-604.74 1697.18,-600.61 1686.97,-597.75 1687.42,-604.74"/>
</g>
<!-- subject_id -->
<g id="node27" class="node">
<title>subject_id</title>
<polygon fill="#94ddf4" stroke="black" points="400.5,-923.67 400.5,-959.67 489.5,-959.67 489.5,-923.67 400.5,-923.67"/>
<text text-anchor="middle" x="445" y="-937.97" font-family="Times,serif" font-size="14.00">subject_id</text>
</g>
<!-- subject_id&#45;&gt;run_rnasum_step -->
<g id="edge27" class="edge">
<title>subject_id&#45;&gt;run_rnasum_step</title>
<path fill="none" stroke="black" d="M459.89,-923.43C469.92,-912.88 484.01,-899.95 499,-892.17 907.74,-679.99 1467.58,-618.83 1689.14,-602.34"/>
<polygon fill="black" stroke="black" points="1689.39,-605.83 1699.11,-601.62 1688.88,-598.85 1689.39,-605.83"/>
</g>
<!-- top_genes -->
<g id="node28" class="node">
<title>top_genes</title>
<polygon fill="#94ddf4" stroke="black" points="293.5,-923.67 293.5,-959.67 382.5,-959.67 382.5,-923.67 293.5,-923.67"/>
<text text-anchor="middle" x="338" y="-937.97" font-family="Times,serif" font-size="14.00">top_genes</text>
</g>
<!-- top_genes&#45;&gt;run_rnasum_step -->
<g id="edge28" class="edge">
<title>top_genes&#45;&gt;run_rnasum_step</title>
<path fill="none" stroke="black" d="M352.85,-923.34C362.86,-912.75 376.95,-899.83 392,-892.17 837.95,-665.41 1449.32,-612.5 1685.91,-600.29"/>
<polygon fill="black" stroke="black" points="1686.4,-603.77 1696.22,-599.77 1686.05,-596.78 1686.4,-603.77"/>
</g>
<!-- transform -->
<g id="node29" class="node">
<title>transform</title>
<polygon fill="#94ddf4" stroke="black" points="188,-923.67 188,-959.67 276,-959.67 276,-923.67 188,-923.67"/>
<text text-anchor="middle" x="232" y="-937.97" font-family="Times,serif" font-size="14.00">transform</text>
</g>
<!-- transform&#45;&gt;run_rnasum_step -->
<g id="edge29" class="edge">
<title>transform&#45;&gt;run_rnasum_step</title>
<path fill="none" stroke="black" d="M246.47,-923.26C256.26,-912.64 270.08,-899.71 285,-892.17 768.4,-647.96 1434.15,-605.32 1684.47,-598.07"/>
<polygon fill="black" stroke="black" points="1684.74,-601.56 1694.63,-597.79 1684.54,-594.57 1684.74,-601.56"/>
</g>
<!-- umccrise_directory -->
<g id="node30" class="node">
<title>umccrise_directory</title>
<polygon fill="#94ddf4" stroke="black" points="16.5,-923.67 16.5,-959.67 169.5,-959.67 169.5,-923.67 16.5,-923.67"/>
<text text-anchor="middle" x="93" y="-937.97" font-family="Times,serif" font-size="14.00">umccrise_directory</text>
</g>
<!-- umccrise_directory&#45;&gt;run_rnasum_step -->
<g id="edge30" class="edge">
<title>umccrise_directory&#45;&gt;run_rnasum_step</title>
<path fill="none" stroke="black" d="M118.27,-923.46C134.85,-912.92 157.41,-900 179,-892.17 729.42,-692.67 1436.91,-622.74 1689.87,-603.16"/>
<polygon fill="black" stroke="black" points="1690.42,-606.63 1700.12,-602.38 1689.88,-599.65 1690.42,-606.63"/>
</g>
<!-- rnasum_html -->
<g id="node32" class="node">
<title>rnasum_html</title>
<polygon fill="#94ddf4" stroke="black" points="1816,-245.67 1816,-281.67 1926,-281.67 1926,-245.67 1816,-245.67"/>
<text text-anchor="middle" x="1871" y="-259.97" font-family="Times,serif" font-size="14.00">rnasum_html</text>
</g>
<!-- run_rnasum_step&#45;&gt;rnasum_html -->
<g id="edge31" class="edge">
<title>run_rnasum_step&#45;&gt;rnasum_html</title>
<path fill="none" stroke="black" d="M1789.5,-577.39C1803.58,-523.38 1846.84,-357.38 1863.94,-291.77"/>
<polygon fill="black" stroke="black" points="1867.41,-292.34 1866.54,-281.78 1860.63,-290.57 1867.41,-292.34"/>
</g>
<!-- rnasum_output_directory -->
<g id="node33" class="node">
<title>rnasum_output_directory</title>
<polygon fill="#94ddf4" stroke="black" points="1600.5,-245.67 1600.5,-281.67 1797.5,-281.67 1797.5,-245.67 1600.5,-245.67"/>
<text text-anchor="middle" x="1699" y="-259.97" font-family="Times,serif" font-size="14.00">rnasum_output_directory</text>
</g>
<!-- run_rnasum_step&#45;&gt;rnasum_output_directory -->
<g id="edge32" class="edge">
<title>run_rnasum_step&#45;&gt;rnasum_output_directory</title>
<path fill="none" stroke="black" d="M1780.5,-577.39C1766.42,-523.38 1723.16,-357.38 1706.06,-291.77"/>
<polygon fill="black" stroke="black" points="1709.37,-290.57 1703.46,-281.78 1702.59,-292.34 1709.37,-290.57"/>
</g>
</g>
</svg>
