<?xml version="1.0" encoding="UTF-8" standalone="no"?>
<!DOCTYPE svg PUBLIC "-//W3C//DTD SVG 1.1//EN"
 "http://www.w3.org/Graphics/SVG/1.1/DTD/svg11.dtd">
<!-- Generated by graphviz version 2.43.0 (0)
 -->
<!-- Title: G Pages: 1 -->
<svg width="1525pt" height="787pt"
 viewBox="0.00 0.00 1524.50 787.22" xmlns="http://www.w3.org/2000/svg" xmlns:xlink="http://www.w3.org/1999/xlink">
<g id="graph0" class="graph" transform="scale(1 1) rotate(0) translate(4 783.22)">
<title>G</title>
<polygon fill="#eeeeee" stroke="transparent" points="-4,4 -4,-783.22 1520.5,-783.22 1520.5,4 -4,4"/>
<g id="clust1" class="cluster">
<title>cluster_inputs</title>
<polygon fill="#eeeeee" stroke="black" stroke-dasharray="5,2" points="270.5,-570.94 270.5,-759.62 1451.5,-759.62 1451.5,-570.94 270.5,-570.94"/>
<text text-anchor="middle" x="1385" y="-578.74" font-family="Times,serif" font-size="14.00">Workflow Inputs</text>
</g>
<g id="clust2" class="cluster">
<title>cluster_outputs</title>
<polygon fill="#eeeeee" stroke="black" stroke-dasharray="5,2" points="267.5,-19.6 267.5,-208.28 785.5,-208.28 785.5,-19.6 267.5,-19.6"/>
<text text-anchor="middle" x="713" y="-27.4" font-family="Times,serif" font-size="14.00">Workflow Outputs</text>
</g>
<!-- input_run_dir -->
<g id="node1" class="node">
<title>input_run_dir</title>
<polygon fill="#94ddf4" stroke="black" points="279,-675.1 279,-712.1 392,-712.1 392,-675.1 279,-675.1"/>
<text text-anchor="middle" x="335.5" y="-689.9" font-family="Times,serif" font-size="14.00">input_run_dir</text>
</g>
<!-- illumina_interop_step -->
<g id="node12" class="node">
<title>illumina_interop_step</title>
<polygon fill="lightgoldenrodyellow" stroke="black" points="251.5,-486.1 251.5,-523.1 441.5,-523.1 441.5,-486.1 251.5,-486.1"/>
<text text-anchor="middle" x="346.5" y="-500.9" font-family="Times,serif" font-size="14.00">illumina&#45;interop v(1.2.0)</text>
</g>
<!-- input_run_dir&#45;&gt;illumina_interop_step -->
<g id="edge6" class="edge">
<title>input_run_dir&#45;&gt;illumina_interop_step</title>
<path fill="none" stroke="black" d="M336.53,-675.01C338.45,-642.43 342.57,-572.48 344.86,-533.43"/>
<polygon fill="black" stroke="black" points="348.37,-533.47 345.46,-523.29 341.38,-533.06 348.37,-533.47"/>
</g>
<!-- multiqc_cl_config -->
<g id="node2" class="node">
<title>multiqc_cl_config</title>
<polygon fill="#94ddf4" stroke="black" points="410,-675.1 410,-712.1 549,-712.1 549,-675.1 410,-675.1"/>
<text text-anchor="middle" x="479.5" y="-689.9" font-family="Times,serif" font-size="14.00">multiqc_cl_config</text>
</g>
<!-- multiqc_step -->
<g id="node13" class="node">
<title>multiqc_step</title>
<polygon fill="lightgoldenrodyellow" stroke="black" points="631,-305.1 631,-342.1 770,-342.1 770,-305.1 631,-305.1"/>
<text text-anchor="middle" x="700.5" y="-319.9" font-family="Times,serif" font-size="14.00">multiqc v(1.14.0)</text>
</g>
<!-- multiqc_cl_config&#45;&gt;multiqc_step -->
<g id="edge7" class="edge">
<title>multiqc_cl_config&#45;&gt;multiqc_step</title>
<path fill="none" stroke="black" d="M490.16,-674.85C525.97,-615.22 642.1,-421.84 684.67,-350.96"/>
<polygon fill="black" stroke="black" points="687.8,-352.55 689.95,-342.17 681.8,-348.95 687.8,-352.55"/>
</g>
<!-- multiqc_comment -->
<g id="node3" class="node">
<title>multiqc_comment</title>
<polygon fill="#94ddf4" stroke="black" points="567,-675.1 567,-712.1 710,-712.1 710,-675.1 567,-675.1"/>
<text text-anchor="middle" x="638.5" y="-689.9" font-family="Times,serif" font-size="14.00">multiqc_comment</text>
</g>
<!-- multiqc_comment&#45;&gt;multiqc_step -->
<g id="edge8" class="edge">
<title>multiqc_comment&#45;&gt;multiqc_step</title>
<path fill="none" stroke="black" d="M641.49,-674.85C651.48,-615.59 683.72,-424.2 695.84,-352.27"/>
<polygon fill="black" stroke="black" points="699.33,-352.62 697.54,-342.17 692.43,-351.45 699.33,-352.62"/>
</g>
<!-- multiqc_config -->
<g id="node4" class="node">
<title>multiqc_config</title>
<polygon fill="#94ddf4" stroke="black" points="728.5,-675.1 728.5,-712.1 848.5,-712.1 848.5,-675.1 728.5,-675.1"/>
<text text-anchor="middle" x="788.5" y="-689.9" font-family="Times,serif" font-size="14.00">multiqc_config</text>
</g>
<!-- multiqc_config&#45;&gt;multiqc_step -->
<g id="edge9" class="edge">
<title>multiqc_config&#45;&gt;multiqc_step</title>
<path fill="none" stroke="black" d="M784.26,-674.85C770.08,-615.59 724.32,-424.2 707.12,-352.27"/>
<polygon fill="black" stroke="black" points="710.43,-351.09 704.7,-342.17 703.62,-352.71 710.43,-351.09"/>
</g>
<!-- multiqc_output_directory_name -->
<g id="node5" class="node">
<title>multiqc_output_directory_name</title>
<polygon fill="#94ddf4" stroke="black" points="866.5,-675.1 866.5,-712.1 1108.5,-712.1 1108.5,-675.1 866.5,-675.1"/>
<text text-anchor="middle" x="987.5" y="-689.9" font-family="Times,serif" font-size="14.00">multiqc_output_directory_name</text>
</g>
<!-- multiqc_output_directory_name&#45;&gt;multiqc_step -->
<g id="edge10" class="edge">
<title>multiqc_output_directory_name&#45;&gt;multiqc_step</title>
<path fill="none" stroke="black" d="M973.66,-674.85C926.96,-614.98 775.1,-420.26 720.38,-350.1"/>
<polygon fill="black" stroke="black" points="723.11,-347.91 714.2,-342.17 717.59,-352.21 723.11,-347.91"/>
</g>
<!-- multiqc_output_filename -->
<g id="node6" class="node">
<title>multiqc_output_filename</title>
<polygon fill="#94ddf4" stroke="black" points="1126.5,-675.1 1126.5,-712.1 1318.5,-712.1 1318.5,-675.1 1126.5,-675.1"/>
<text text-anchor="middle" x="1222.5" y="-689.9" font-family="Times,serif" font-size="14.00">multiqc_output_filename</text>
</g>
<!-- multiqc_output_filename&#45;&gt;multiqc_step -->
<g id="edge11" class="edge">
<title>multiqc_output_filename&#45;&gt;multiqc_step</title>
<path fill="none" stroke="black" d="M1197.67,-675.1C1112.32,-614.93 830.82,-416.48 733.75,-348.05"/>
<polygon fill="black" stroke="black" points="735.67,-345.11 725.48,-342.21 731.63,-350.83 735.67,-345.11"/>
</g>
<!-- multiqc_title -->
<g id="node7" class="node">
<title>multiqc_title</title>
<polygon fill="#94ddf4" stroke="black" points="1337,-675.1 1337,-712.1 1444,-712.1 1444,-675.1 1337,-675.1"/>
<text text-anchor="middle" x="1390.5" y="-689.9" font-family="Times,serif" font-size="14.00">multiqc_title</text>
</g>
<!-- multiqc_title&#45;&gt;multiqc_step -->
<g id="edge12" class="edge">
<title>multiqc_title&#45;&gt;multiqc_step</title>
<path fill="none" stroke="black" d="M1369.95,-675C1357.98,-665.17 1342.35,-653.04 1327.5,-643.6 1123.34,-513.94 859.87,-394 751,-346.33"/>
<polygon fill="black" stroke="black" points="752.13,-343 741.57,-342.21 749.33,-349.42 752.13,-343"/>
</g>
<!-- illumina_interop_dir -->
<g id="node8" class="node">
<title>illumina_interop_dir</title>
<polygon fill="#94ddf4" stroke="black" points="275.5,-124.1 275.5,-161.1 435.5,-161.1 435.5,-124.1 275.5,-124.1"/>
<text text-anchor="middle" x="355.5" y="-138.9" font-family="Times,serif" font-size="14.00">illumina_interop_dir</text>
</g>
<!-- multiqc_output_dir -->
<g id="node9" class="node">
<title>multiqc_output_dir</title>
<polygon fill="#94ddf4" stroke="black" points="453.5,-124.1 453.5,-161.1 605.5,-161.1 605.5,-124.1 453.5,-124.1"/>
<text text-anchor="middle" x="529.5" y="-138.9" font-family="Times,serif" font-size="14.00">multiqc_output_dir</text>
</g>
<!-- multiqc_output_file -->
<g id="node10" class="node">
<title>multiqc_output_file</title>
<polygon fill="#94ddf4" stroke="black" points="624,-124.1 624,-161.1 777,-161.1 777,-124.1 624,-124.1"/>
<text text-anchor="middle" x="700.5" y="-138.9" font-family="Times,serif" font-size="14.00">multiqc_output_file</text>
</g>
<!-- create_dummy_file_step -->
<g id="node11" class="node">
<title>create_dummy_file_step</title>
<polygon fill="lightgoldenrodyellow" stroke="black" points="0,-675.1 0,-712.1 261,-712.1 261,-675.1 0,-675.1"/>
<text text-anchor="middle" x="130.5" y="-689.9" font-family="Times,serif" font-size="14.00">custom&#45;create&#45;dummy&#45;file v(1.0.0)</text>
</g>
<!-- create_dummy_file_step&#45;&gt;illumina_interop_step -->
<g id="edge1" class="edge">
<title>create_dummy_file_step&#45;&gt;illumina_interop_step</title>
<path fill="none" stroke="black" d="M150.82,-675.01C189.58,-641.46 274.12,-568.27 318.31,-530.01"/>
<polygon fill="black" stroke="black" points="320.81,-532.48 326.08,-523.29 316.22,-527.18 320.81,-532.48"/>
</g>
<!-- illumina_interop_step&#45;&gt;illumina_interop_dir -->
<g id="edge3" class="edge">
<title>illumina_interop_step&#45;&gt;illumina_interop_dir</title>
<path fill="none" stroke="black" d="M346.95,-485.75C348.4,-427.44 353.03,-242.26 354.8,-171.48"/>
<polygon fill="black" stroke="black" points="358.31,-171.22 355.06,-161.14 351.31,-171.05 358.31,-171.22"/>
</g>
<!-- illumina_interop_step&#45;&gt;multiqc_step -->
<g id="edge2" class="edge">
<title>illumina_interop_step&#45;&gt;multiqc_step</title>
<path fill="none" stroke="black" d="M381.41,-485.95C446.35,-453.11 585.56,-382.72 656.69,-346.75"/>
<polygon fill="black" stroke="black" points="658.51,-349.76 665.85,-342.12 655.35,-343.51 658.51,-349.76"/>
</g>
<!-- multiqc_step&#45;&gt;multiqc_output_dir -->
<g id="edge4" class="edge">
<title>multiqc_step&#45;&gt;multiqc_output_dir</title>
<path fill="none" stroke="black" d="M683.48,-304.79C652.88,-272.75 588.5,-205.37 553.46,-168.69"/>
<polygon fill="black" stroke="black" points="555.89,-166.16 546.45,-161.35 550.83,-171 555.89,-166.16"/>
</g>
<!-- multiqc_step&#45;&gt;multiqc_output_file -->
<g id="edge5" class="edge">
<title>multiqc_step&#45;&gt;multiqc_output_file</title>
<path fill="none" stroke="black" d="M700.5,-304.79C700.5,-273.56 700.5,-208.73 700.5,-171.51"/>
<polygon fill="black" stroke="black" points="704,-171.35 700.5,-161.35 697,-171.35 704,-171.35"/>
</g>
<!-- \n -->
<g id="node14" class="node">
<title>\n</title>
<ellipse fill="none" stroke="black" cx="1489.5" cy="-693.6" rx="27" ry="18"/>
</g>
</g>
</svg>
