<?xml version="1.0" encoding="UTF-8" standalone="no"?>
<!DOCTYPE svg PUBLIC "-//W3C//DTD SVG 1.1//EN"
 "http://www.w3.org/Graphics/SVG/1.1/DTD/svg11.dtd">
<!-- Generated by graphviz version 2.43.0 (0)
 -->
<!-- Title: G Pages: 1 -->
<svg width="4926pt" height="1439pt"
 viewBox="0.00 0.00 4926.00 1439.14" xmlns="http://www.w3.org/2000/svg" xmlns:xlink="http://www.w3.org/1999/xlink">
<g id="graph0" class="graph" transform="scale(1 1) rotate(0) translate(4 1435.14)">
<title>G</title>
<polygon fill="#eeeeee" stroke="transparent" points="-4,4 -4,-1435.14 4922,-1435.14 4922,4 -4,4"/>
<g id="clust1" class="cluster">
<title>cluster_inputs</title>
<polygon fill="#eeeeee" stroke="black" stroke-dasharray="5,2" points="8,-930.24 8,-1383.43 4910,-1383.43 4910,-930.24 8,-930.24"/>
<text text-anchor="middle" x="4843.5" y="-938.04" font-family="Times,serif" font-size="14.00">Workflow Inputs</text>
</g>
<g id="clust2" class="cluster">
<title>cluster_outputs</title>
<polygon fill="#eeeeee" stroke="black" stroke-dasharray="5,2" points="2263,-47.7 2263,-500.9 2449,-500.9 2449,-47.7 2263,-47.7"/>
<text text-anchor="middle" x="2376.5" y="-55.5" font-family="Times,serif" font-size="14.00">Workflow Outputs</text>
</g>
<!-- enable_cnv -->
<g id="node1" class="node">
<title>enable_cnv</title>
<polygon fill="#94ddf4" stroke="black" points="4806.5,-1207.7 4806.5,-1243.7 4901.5,-1243.7 4901.5,-1207.7 4806.5,-1207.7"/>
<text text-anchor="middle" x="4854" y="-1222" font-family="Times,serif" font-size="14.00">enable_cnv</text>
</g>
<!-- dragen_build_reference_tarball_step -->
<g id="node32" class="node">
<title>dragen_build_reference_tarball_step</title>
<ellipse fill="none" stroke="black" cx="2356" cy="-774.7" rx="179.27" ry="18"/>
<text text-anchor="middle" x="2356" y="-771" font-family="Times,serif" font-size="14.00">dragen_build_reference_tarball_step</text>
</g>
<!-- enable_cnv&#45;&gt;dragen_build_reference_tarball_step -->
<g id="edge1" class="edge">
<title>enable_cnv&#45;&gt;dragen_build_reference_tarball_step</title>
<path fill="none" stroke="black" d="M4839.06,-1207.62C4828.65,-1196.85 4813.84,-1183.63 4798,-1176.2 4380.42,-980.55 2945.95,-831.4 2493.71,-788.35"/>
<polygon fill="black" stroke="black" points="2493.82,-784.84 2483.54,-787.38 2493.16,-791.81 2493.82,-784.84"/>
</g>
<!-- ht_alt_aware_validate -->
<g id="node2" class="node">
<title>ht_alt_aware_validate</title>
<polygon fill="#94ddf4" stroke="black" points="4617.5,-1207.7 4617.5,-1243.7 4788.5,-1243.7 4788.5,-1207.7 4617.5,-1207.7"/>
<text text-anchor="middle" x="4703" y="-1222" font-family="Times,serif" font-size="14.00">ht_alt_aware_validate</text>
</g>
<!-- ht_alt_aware_validate&#45;&gt;dragen_build_reference_tarball_step -->
<g id="edge2" class="edge">
<title>ht_alt_aware_validate&#45;&gt;dragen_build_reference_tarball_step</title>
<path fill="none" stroke="black" d="M4674.86,-1207.54C4656.45,-1197.02 4631.52,-1184.1 4608,-1176.2 3842.52,-919.11 2872.23,-817.75 2505.47,-786.94"/>
<polygon fill="black" stroke="black" points="2505.58,-783.43 2495.33,-786.09 2505,-790.41 2505.58,-783.43"/>
</g>
<!-- ht_alt_liftover -->
<g id="node3" class="node">
<title>ht_alt_liftover</title>
<polygon fill="#94ddf4" stroke="black" points="4483,-1207.7 4483,-1243.7 4599,-1243.7 4599,-1207.7 4483,-1207.7"/>
<text text-anchor="middle" x="4541" y="-1222" font-family="Times,serif" font-size="14.00">ht_alt_liftover</text>
</g>
<!-- ht_alt_liftover&#45;&gt;dragen_build_reference_tarball_step -->
<g id="edge3" class="edge">
<title>ht_alt_liftover&#45;&gt;dragen_build_reference_tarball_step</title>
<path fill="none" stroke="black" d="M4522.18,-1207.58C4509.46,-1196.94 4491.8,-1183.87 4474,-1176.2 3793.67,-883.15 2899.13,-803.84 2528.4,-782.94"/>
<polygon fill="black" stroke="black" points="2528.58,-779.44 2518.4,-782.38 2528.19,-786.43 2528.58,-779.44"/>
</g>
<!-- ht_build_hla_hashtable -->
<g id="node4" class="node">
<title>ht_build_hla_hashtable</title>
<polygon fill="#94ddf4" stroke="black" points="4285.5,-1207.7 4285.5,-1243.7 4464.5,-1243.7 4464.5,-1207.7 4285.5,-1207.7"/>
<text text-anchor="middle" x="4375" y="-1222" font-family="Times,serif" font-size="14.00">ht_build_hla_hashtable</text>
</g>
<!-- ht_build_hla_hashtable&#45;&gt;dragen_build_reference_tarball_step -->
<g id="edge4" class="edge">
<title>ht_build_hla_hashtable&#45;&gt;dragen_build_reference_tarball_step</title>
<path fill="none" stroke="black" d="M4345.07,-1207.6C4325.86,-1197.24 4300.08,-1184.47 4276,-1176.2 3616.6,-949.91 2783.87,-829.41 2476.81,-790.23"/>
<polygon fill="black" stroke="black" points="2476.91,-786.71 2466.55,-788.93 2476.03,-793.66 2476.91,-786.71"/>
</g>
<!-- ht_build_rna_hashtable -->
<g id="node5" class="node">
<title>ht_build_rna_hashtable</title>
<polygon fill="#94ddf4" stroke="black" points="4085,-1207.7 4085,-1243.7 4267,-1243.7 4267,-1207.7 4085,-1207.7"/>
<text text-anchor="middle" x="4176" y="-1222" font-family="Times,serif" font-size="14.00">ht_build_rna_hashtable</text>
</g>
<!-- ht_build_rna_hashtable&#45;&gt;dragen_build_reference_tarball_step -->
<g id="edge5" class="edge">
<title>ht_build_rna_hashtable&#45;&gt;dragen_build_reference_tarball_step</title>
<path fill="none" stroke="black" d="M4145.24,-1207.57C4125.85,-1197.33 4100.01,-1184.7 4076,-1176.2 3481.74,-965.88 2732.55,-835.06 2460.63,-791.7"/>
<polygon fill="black" stroke="black" points="2460.8,-788.19 2450.38,-790.07 2459.7,-795.1 2460.8,-788.19"/>
</g>
<!-- ht_cost_coeff_seed_freq -->
<g id="node6" class="node">
<title>ht_cost_coeff_seed_freq</title>
<polygon fill="#94ddf4" stroke="black" points="3883,-1207.7 3883,-1243.7 4067,-1243.7 4067,-1207.7 3883,-1207.7"/>
<text text-anchor="middle" x="3975" y="-1222" font-family="Times,serif" font-size="14.00">ht_cost_coeff_seed_freq</text>
</g>
<!-- ht_cost_coeff_seed_freq&#45;&gt;dragen_build_reference_tarball_step -->
<g id="edge6" class="edge">
<title>ht_cost_coeff_seed_freq&#45;&gt;dragen_build_reference_tarball_step</title>
<path fill="none" stroke="black" d="M3943.38,-1207.6C3923.8,-1197.5 3897.91,-1185.01 3874,-1176.2 3345.43,-981.57 2681.03,-840.19 2444.54,-792.91"/>
<polygon fill="black" stroke="black" points="2445.1,-789.46 2434.61,-790.94 2443.74,-796.32 2445.1,-789.46"/>
</g>
<!-- ht_cost_coeff_seed_len -->
<g id="node7" class="node">
<title>ht_cost_coeff_seed_len</title>
<polygon fill="#94ddf4" stroke="black" points="3689,-1207.7 3689,-1243.7 3865,-1243.7 3865,-1207.7 3689,-1207.7"/>
<text text-anchor="middle" x="3777" y="-1222" font-family="Times,serif" font-size="14.00">ht_cost_coeff_seed_len</text>
</g>
<!-- ht_cost_coeff_seed_len&#45;&gt;dragen_build_reference_tarball_step -->
<g id="edge7" class="edge">
<title>ht_cost_coeff_seed_len&#45;&gt;dragen_build_reference_tarball_step</title>
<path fill="none" stroke="black" d="M3746.16,-1207.6C3727.4,-1197.62 3702.74,-1185.25 3680,-1176.2 3217.87,-992.32 2636.92,-843.84 2431.86,-793.83"/>
<polygon fill="black" stroke="black" points="2432.64,-790.41 2422.09,-791.45 2430.98,-797.22 2432.64,-790.41"/>
</g>
<!-- ht_cost_penalty -->
<g id="node8" class="node">
<title>ht_cost_penalty</title>
<polygon fill="#94ddf4" stroke="black" points="3543,-1207.7 3543,-1243.7 3671,-1243.7 3671,-1207.7 3543,-1207.7"/>
<text text-anchor="middle" x="3607" y="-1222" font-family="Times,serif" font-size="14.00">ht_cost_penalty</text>
</g>
<!-- ht_cost_penalty&#45;&gt;dragen_build_reference_tarball_step -->
<g id="edge8" class="edge">
<title>ht_cost_penalty&#45;&gt;dragen_build_reference_tarball_step</title>
<path fill="none" stroke="black" d="M3584.58,-1207.6C3570.58,-1197.5 3551.89,-1185 3534,-1176.2 3137.19,-981.05 2621.73,-841.91 2431.12,-793.99"/>
<polygon fill="black" stroke="black" points="2431.75,-790.54 2421.2,-791.51 2430.05,-797.33 2431.75,-790.54"/>
</g>
<!-- ht_cost_penalty_incr -->
<g id="node9" class="node">
<title>ht_cost_penalty_incr</title>
<polygon fill="#94ddf4" stroke="black" points="3363,-1207.7 3363,-1243.7 3525,-1243.7 3525,-1207.7 3363,-1207.7"/>
<text text-anchor="middle" x="3444" y="-1222" font-family="Times,serif" font-size="14.00">ht_cost_penalty_incr</text>
</g>
<!-- ht_cost_penalty_incr&#45;&gt;dragen_build_reference_tarball_step -->
<g id="edge9" class="edge">
<title>ht_cost_penalty_incr&#45;&gt;dragen_build_reference_tarball_step</title>
<path fill="none" stroke="black" d="M3414.43,-1207.68C3397.07,-1197.96 3374.57,-1185.84 3354,-1176.2 3003.05,-1011.86 2565.11,-850.73 2411.96,-795.64"/>
<polygon fill="black" stroke="black" points="2412.89,-792.25 2402.29,-792.16 2410.52,-798.84 2412.89,-792.25"/>
</g>
<!-- ht_decoys -->
<g id="node10" class="node">
<title>ht_decoys</title>
<polygon fill="#94ddf4" stroke="black" points="3257.5,-1207.7 3257.5,-1243.7 3344.5,-1243.7 3344.5,-1207.7 3257.5,-1207.7"/>
<text text-anchor="middle" x="3301" y="-1222" font-family="Times,serif" font-size="14.00">ht_decoys</text>
</g>
<!-- ht_decoys&#45;&gt;dragen_build_reference_tarball_step -->
<g id="edge10" class="edge">
<title>ht_decoys&#45;&gt;dragen_build_reference_tarball_step</title>
<path fill="none" stroke="black" d="M3285.33,-1207.47C3275.57,-1197.45 3262.37,-1185.08 3249,-1176.2 2961,-985 2566.75,-844.75 2417.03,-795.23"/>
<polygon fill="black" stroke="black" points="2417.69,-791.77 2407.1,-791.96 2415.51,-798.42 2417.69,-791.77"/>
</g>
<!-- ht_mask_bed -->
<g id="node11" class="node">
<title>ht_mask_bed</title>
<polygon fill="#94ddf4" stroke="black" points="3130.5,-1207.7 3130.5,-1243.7 3239.5,-1243.7 3239.5,-1207.7 3130.5,-1207.7"/>
<text text-anchor="middle" x="3185" y="-1222" font-family="Times,serif" font-size="14.00">ht_mask_bed</text>
</g>
<!-- ht_mask_bed&#45;&gt;dragen_build_reference_tarball_step -->
<g id="edge11" class="edge">
<title>ht_mask_bed&#45;&gt;dragen_build_reference_tarball_step</title>
<path fill="none" stroke="black" d="M3164.66,-1207.59C3152.64,-1197.85 3136.89,-1185.72 3122,-1176.2 2861.96,-1009.93 2525.31,-852.31 2403.01,-796.77"/>
<polygon fill="black" stroke="black" points="2404.11,-793.42 2393.55,-792.48 2401.22,-799.8 2404.11,-793.42"/>
</g>
<!-- ht_max_dec_factor -->
<g id="node12" class="node">
<title>ht_max_dec_factor</title>
<polygon fill="#94ddf4" stroke="black" points="2963.5,-1207.7 2963.5,-1243.7 3112.5,-1243.7 3112.5,-1207.7 2963.5,-1207.7"/>
<text text-anchor="middle" x="3038" y="-1222" font-family="Times,serif" font-size="14.00">ht_max_dec_factor</text>
</g>
<!-- ht_max_dec_factor&#45;&gt;dragen_build_reference_tarball_step -->
<g id="edge12" class="edge">
<title>ht_max_dec_factor&#45;&gt;dragen_build_reference_tarball_step</title>
<path fill="none" stroke="black" d="M3012.1,-1207.65C2906.59,-1138.19 2509.15,-876.53 2389.98,-798.08"/>
<polygon fill="black" stroke="black" points="2391.84,-795.11 2381.56,-792.54 2387.99,-800.96 2391.84,-795.11"/>
</g>
<!-- ht_max_ext_seed_len -->
<g id="node13" class="node">
<title>ht_max_ext_seed_len</title>
<polygon fill="#94ddf4" stroke="black" points="2779,-1207.7 2779,-1243.7 2945,-1243.7 2945,-1207.7 2779,-1207.7"/>
<text text-anchor="middle" x="2862" y="-1222" font-family="Times,serif" font-size="14.00">ht_max_ext_seed_len</text>
</g>
<!-- ht_max_ext_seed_len&#45;&gt;dragen_build_reference_tarball_step -->
<g id="edge13" class="edge">
<title>ht_max_ext_seed_len&#45;&gt;dragen_build_reference_tarball_step</title>
<path fill="none" stroke="black" d="M2842.78,-1207.65C2764.98,-1138.61 2473.23,-879.73 2382.86,-799.54"/>
<polygon fill="black" stroke="black" points="2385.04,-796.79 2375.24,-792.77 2380.39,-802.03 2385.04,-796.79"/>
</g>
<!-- ht_max_seed_freq -->
<g id="node14" class="node">
<title>ht_max_seed_freq</title>
<polygon fill="#94ddf4" stroke="black" points="2617,-1207.7 2617,-1243.7 2761,-1243.7 2761,-1207.7 2617,-1207.7"/>
<text text-anchor="middle" x="2689" y="-1222" font-family="Times,serif" font-size="14.00">ht_max_seed_freq</text>
</g>
<!-- ht_max_seed_freq&#45;&gt;dragen_build_reference_tarball_step -->
<g id="edge14" class="edge">
<title>ht_max_seed_freq&#45;&gt;dragen_build_reference_tarball_step</title>
<path fill="none" stroke="black" d="M2676.35,-1207.65C2625.46,-1139.03 2435.46,-882.85 2374.77,-801.01"/>
<polygon fill="black" stroke="black" points="2377.43,-798.72 2368.66,-792.77 2371.81,-802.89 2377.43,-798.72"/>
</g>
<!-- ht_max_table_chunks -->
<g id="node15" class="node">
<title>ht_max_table_chunks</title>
<polygon fill="#94ddf4" stroke="black" points="2431,-1207.7 2431,-1243.7 2599,-1243.7 2599,-1207.7 2431,-1207.7"/>
<text text-anchor="middle" x="2515" y="-1222" font-family="Times,serif" font-size="14.00">ht_max_table_chunks</text>
</g>
<!-- ht_max_table_chunks&#45;&gt;dragen_build_reference_tarball_step -->
<g id="edge15" class="edge">
<title>ht_max_table_chunks&#45;&gt;dragen_build_reference_tarball_step</title>
<path fill="none" stroke="black" d="M2508.96,-1207.65C2484.78,-1139.38 2394.86,-885.44 2365.41,-802.26"/>
<polygon fill="black" stroke="black" points="2368.68,-801.03 2362.04,-792.77 2362.08,-803.37 2368.68,-801.03"/>
</g>
<!-- ht_mem_limit -->
<g id="node16" class="node">
<title>ht_mem_limit</title>
<polygon fill="#94ddf4" stroke="black" points="2299.5,-1207.7 2299.5,-1243.7 2412.5,-1243.7 2412.5,-1207.7 2299.5,-1207.7"/>
<text text-anchor="middle" x="2356" y="-1222" font-family="Times,serif" font-size="14.00">ht_mem_limit</text>
</g>
<!-- ht_mem_limit&#45;&gt;dragen_build_reference_tarball_step -->
<g id="edge16" class="edge">
<title>ht_mem_limit&#45;&gt;dragen_build_reference_tarball_step</title>
<path fill="none" stroke="black" d="M2356,-1207.65C2356,-1139.58 2356,-886.98 2356,-803.03"/>
<polygon fill="black" stroke="black" points="2359.5,-802.77 2356,-792.77 2352.5,-802.77 2359.5,-802.77"/>
</g>
<!-- ht_methylated -->
<g id="node17" class="node">
<title>ht_methylated</title>
<polygon fill="#94ddf4" stroke="black" points="2162.5,-1207.7 2162.5,-1243.7 2281.5,-1243.7 2281.5,-1207.7 2162.5,-1207.7"/>
<text text-anchor="middle" x="2222" y="-1222" font-family="Times,serif" font-size="14.00">ht_methylated</text>
</g>
<!-- ht_methylated&#45;&gt;dragen_build_reference_tarball_step -->
<g id="edge17" class="edge">
<title>ht_methylated&#45;&gt;dragen_build_reference_tarball_step</title>
<path fill="none" stroke="black" d="M2227.09,-1207.65C2247.44,-1139.45 2323.1,-885.95 2348,-802.52"/>
<polygon fill="black" stroke="black" points="2351.4,-803.36 2350.91,-792.77 2344.69,-801.36 2351.4,-803.36"/>
</g>
<!-- ht_num_threads -->
<g id="node18" class="node">
<title>ht_num_threads</title>
<polygon fill="#94ddf4" stroke="black" points="2013.5,-1207.7 2013.5,-1243.7 2144.5,-1243.7 2144.5,-1207.7 2013.5,-1207.7"/>
<text text-anchor="middle" x="2079" y="-1222" font-family="Times,serif" font-size="14.00">ht_num_threads</text>
</g>
<!-- ht_num_threads&#45;&gt;dragen_build_reference_tarball_step -->
<g id="edge18" class="edge">
<title>ht_num_threads&#45;&gt;dragen_build_reference_tarball_step</title>
<path fill="none" stroke="black" d="M2089.52,-1207.65C2131.77,-1139.17 2289.26,-883.88 2340.08,-801.51"/>
<polygon fill="black" stroke="black" points="2343.2,-803.12 2345.47,-792.77 2337.24,-799.45 2343.2,-803.12"/>
</g>
<!-- ht_pop_alt_contigs -->
<g id="node19" class="node">
<title>ht_pop_alt_contigs</title>
<polygon fill="#94ddf4" stroke="black" points="1846.5,-1207.7 1846.5,-1243.7 1995.5,-1243.7 1995.5,-1207.7 1846.5,-1207.7"/>
<text text-anchor="middle" x="1921" y="-1222" font-family="Times,serif" font-size="14.00">ht_pop_alt_contigs</text>
</g>
<!-- ht_pop_alt_contigs&#45;&gt;dragen_build_reference_tarball_step -->
<g id="edge19" class="edge">
<title>ht_pop_alt_contigs&#45;&gt;dragen_build_reference_tarball_step</title>
<path fill="none" stroke="black" d="M1937.52,-1207.65C2004.27,-1138.75 2254.21,-880.77 2332.44,-800.02"/>
<polygon fill="black" stroke="black" points="2335.02,-802.39 2339.46,-792.77 2329.99,-797.52 2335.02,-802.39"/>
</g>
<!-- ht_pop_alt_liftover -->
<g id="node20" class="node">
<title>ht_pop_alt_liftover</title>
<polygon fill="#94ddf4" stroke="black" points="1679.5,-1207.7 1679.5,-1243.7 1828.5,-1243.7 1828.5,-1207.7 1679.5,-1207.7"/>
<text text-anchor="middle" x="1754" y="-1222" font-family="Times,serif" font-size="14.00">ht_pop_alt_liftover</text>
</g>
<!-- ht_pop_alt_liftover&#45;&gt;dragen_build_reference_tarball_step -->
<g id="edge20" class="edge">
<title>ht_pop_alt_liftover&#45;&gt;dragen_build_reference_tarball_step</title>
<path fill="none" stroke="black" d="M1776.86,-1207.65C1869.71,-1138.4 2218.63,-878.16 2325.01,-798.82"/>
<polygon fill="black" stroke="black" points="2327.19,-801.56 2333.11,-792.77 2323,-795.95 2327.19,-801.56"/>
</g>
<!-- ht_pop_snps -->
<g id="node21" class="node">
<title>ht_pop_snps</title>
<polygon fill="#94ddf4" stroke="black" points="1557,-1207.7 1557,-1243.7 1661,-1243.7 1661,-1207.7 1557,-1207.7"/>
<text text-anchor="middle" x="1609" y="-1222" font-family="Times,serif" font-size="14.00">ht_pop_snps</text>
</g>
<!-- ht_pop_snps&#45;&gt;dragen_build_reference_tarball_step -->
<g id="edge21" class="edge">
<title>ht_pop_snps&#45;&gt;dragen_build_reference_tarball_step</title>
<path fill="none" stroke="black" d="M1629.43,-1207.6C1641.27,-1197.97 1656.64,-1185.95 1671,-1176.2 1905.78,-1016.8 2206.25,-854.61 2314.68,-797.33"/>
<polygon fill="black" stroke="black" points="2316.45,-800.35 2323.66,-792.59 2313.18,-794.16 2316.45,-800.35"/>
</g>
<!-- ht_rand_hit_extend -->
<g id="node22" class="node">
<title>ht_rand_hit_extend</title>
<polygon fill="#94ddf4" stroke="black" points="1385.5,-1207.7 1385.5,-1243.7 1538.5,-1243.7 1538.5,-1207.7 1385.5,-1207.7"/>
<text text-anchor="middle" x="1462" y="-1222" font-family="Times,serif" font-size="14.00">ht_rand_hit_extend</text>
</g>
<!-- ht_rand_hit_extend&#45;&gt;dragen_build_reference_tarball_step -->
<g id="edge22" class="edge">
<title>ht_rand_hit_extend&#45;&gt;dragen_build_reference_tarball_step</title>
<path fill="none" stroke="black" d="M1491.24,-1207.7C1507.78,-1198.22 1528.91,-1186.31 1548,-1176.2 1835.59,-1023.97 2188.78,-854.95 2311.5,-796.73"/>
<polygon fill="black" stroke="black" points="2313.08,-799.86 2320.62,-792.41 2310.08,-793.53 2313.08,-799.86"/>
</g>
<!-- ht_rand_hit_hifreq -->
<g id="node23" class="node">
<title>ht_rand_hit_hifreq</title>
<polygon fill="#94ddf4" stroke="black" points="1220.5,-1207.7 1220.5,-1243.7 1367.5,-1243.7 1367.5,-1207.7 1220.5,-1207.7"/>
<text text-anchor="middle" x="1294" y="-1222" font-family="Times,serif" font-size="14.00">ht_rand_hit_hifreq</text>
</g>
<!-- ht_rand_hit_hifreq&#45;&gt;dragen_build_reference_tarball_step -->
<g id="edge23" class="edge">
<title>ht_rand_hit_hifreq&#45;&gt;dragen_build_reference_tarball_step</title>
<path fill="none" stroke="black" d="M1321.13,-1207.55C1337.09,-1197.79 1357.84,-1185.66 1377,-1176.2 1717.99,-1007.87 2147.9,-849.81 2299.77,-795.55"/>
<polygon fill="black" stroke="black" points="2301.12,-798.78 2309.36,-792.13 2298.77,-792.19 2301.12,-798.78"/>
</g>
<!-- ht_ref_seed_interval -->
<g id="node24" class="node">
<title>ht_ref_seed_interval</title>
<polygon fill="#94ddf4" stroke="black" points="1041.5,-1207.7 1041.5,-1243.7 1202.5,-1243.7 1202.5,-1207.7 1041.5,-1207.7"/>
<text text-anchor="middle" x="1122" y="-1222" font-family="Times,serif" font-size="14.00">ht_ref_seed_interval</text>
</g>
<!-- ht_ref_seed_interval&#45;&gt;dragen_build_reference_tarball_step -->
<g id="edge24" class="edge">
<title>ht_ref_seed_interval&#45;&gt;dragen_build_reference_tarball_step</title>
<path fill="none" stroke="black" d="M1151.01,-1207.56C1168.36,-1197.69 1191.05,-1185.45 1212,-1176.2 1610.69,-1000.3 2112.95,-846.91 2290.33,-794.72"/>
<polygon fill="black" stroke="black" points="2291.43,-798.04 2300.04,-791.87 2289.46,-791.32 2291.43,-798.04"/>
</g>
<!-- ht_reference -->
<g id="node25" class="node">
<title>ht_reference</title>
<polygon fill="#94ddf4" stroke="black" points="916.5,-1207.7 916.5,-1243.7 1023.5,-1243.7 1023.5,-1207.7 916.5,-1207.7"/>
<text text-anchor="middle" x="970" y="-1222" font-family="Times,serif" font-size="14.00">ht_reference</text>
</g>
<!-- ht_reference&#45;&gt;dragen_build_reference_tarball_step -->
<g id="edge25" class="edge">
<title>ht_reference&#45;&gt;dragen_build_reference_tarball_step</title>
<path fill="none" stroke="black" d="M988.35,-1207.69C1000.31,-1197.36 1016.67,-1184.6 1033,-1176.2 1462.82,-955.15 2035.21,-834.03 2259.8,-792.42"/>
<polygon fill="black" stroke="black" points="2260.7,-795.81 2269.9,-790.56 2259.43,-788.93 2260.7,-795.81"/>
</g>
<!-- ht_seed_len -->
<g id="node26" class="node">
<title>ht_seed_len</title>
<polygon fill="#94ddf4" stroke="black" points="798,-1207.7 798,-1243.7 898,-1243.7 898,-1207.7 798,-1207.7"/>
<text text-anchor="middle" x="848" y="-1222" font-family="Times,serif" font-size="14.00">ht_seed_len</text>
</g>
<!-- ht_seed_len&#45;&gt;dragen_build_reference_tarball_step -->
<g id="edge26" class="edge">
<title>ht_seed_len&#45;&gt;dragen_build_reference_tarball_step</title>
<path fill="none" stroke="black" d="M865.27,-1207.52C876.58,-1197.12 892.16,-1184.35 908,-1176.2 1370.41,-938.51 1990.64,-828.15 2242.55,-790.95"/>
<polygon fill="black" stroke="black" points="2243.06,-794.41 2252.44,-789.49 2242.04,-787.48 2243.06,-794.41"/>
</g>
<!-- ht_size -->
<g id="node27" class="node">
<title>ht_size</title>
<polygon fill="#94ddf4" stroke="black" points="714,-1207.7 714,-1243.7 780,-1243.7 780,-1207.7 714,-1207.7"/>
<text text-anchor="middle" x="747" y="-1222" font-family="Times,serif" font-size="14.00">ht_size</text>
</g>
<!-- ht_size&#45;&gt;dragen_build_reference_tarball_step -->
<g id="edge27" class="edge">
<title>ht_size&#45;&gt;dragen_build_reference_tarball_step</title>
<path fill="none" stroke="black" d="M757.87,-1207.51C765.39,-1196.97 776.3,-1184.05 789,-1176.2 1246.56,-893.36 1896.84,-809.56 2195.16,-785.29"/>
<polygon fill="black" stroke="black" points="2195.5,-788.78 2205.18,-784.49 2194.94,-781.8 2195.5,-788.78"/>
</g>
<!-- ht_soft_seed_freq_cap -->
<g id="node28" class="node">
<title>ht_soft_seed_freq_cap</title>
<polygon fill="#94ddf4" stroke="black" points="522.5,-1207.7 522.5,-1243.7 695.5,-1243.7 695.5,-1207.7 522.5,-1207.7"/>
<text text-anchor="middle" x="609" y="-1222" font-family="Times,serif" font-size="14.00">ht_soft_seed_freq_cap</text>
</g>
<!-- ht_soft_seed_freq_cap&#45;&gt;dragen_build_reference_tarball_step -->
<g id="edge28" class="edge">
<title>ht_soft_seed_freq_cap&#45;&gt;dragen_build_reference_tarball_step</title>
<path fill="none" stroke="black" d="M638.47,-1207.59C657.07,-1197.35 681.87,-1184.72 705,-1176.2 1273.71,-966.74 1993.15,-835.5 2254.94,-791.87"/>
<polygon fill="black" stroke="black" points="2255.52,-795.32 2264.81,-790.23 2254.37,-788.41 2255.52,-795.32"/>
</g>
<!-- ht_suppress_decoys -->
<g id="node29" class="node">
<title>ht_suppress_decoys</title>
<polygon fill="#94ddf4" stroke="black" points="346,-1207.7 346,-1243.7 504,-1243.7 504,-1207.7 346,-1207.7"/>
<text text-anchor="middle" x="425" y="-1222" font-family="Times,serif" font-size="14.00">ht_suppress_decoys</text>
</g>
<!-- ht_suppress_decoys&#45;&gt;dragen_build_reference_tarball_step -->
<g id="edge29" class="edge">
<title>ht_suppress_decoys&#45;&gt;dragen_build_reference_tarball_step</title>
<path fill="none" stroke="black" d="M451.7,-1207.53C468.9,-1197.14 492.07,-1184.37 514,-1176.2 1137.92,-943.83 1933.47,-827.86 2233.84,-790.03"/>
<polygon fill="black" stroke="black" points="2234.4,-793.49 2243.88,-788.78 2233.53,-786.55 2234.4,-793.49"/>
</g>
<!-- ht_target_seed_freq -->
<g id="node30" class="node">
<title>ht_target_seed_freq</title>
<polygon fill="#94ddf4" stroke="black" points="170,-1207.7 170,-1243.7 328,-1243.7 328,-1207.7 170,-1207.7"/>
<text text-anchor="middle" x="249" y="-1222" font-family="Times,serif" font-size="14.00">ht_target_seed_freq</text>
</g>
<!-- ht_target_seed_freq&#45;&gt;dragen_build_reference_tarball_step -->
<g id="edge30" class="edge">
<title>ht_target_seed_freq&#45;&gt;dragen_build_reference_tarball_step</title>
<path fill="none" stroke="black" d="M274.95,-1207.62C291.96,-1197.13 315.04,-1184.21 337,-1176.2 1016.91,-928.2 1884.67,-821.94 2217.52,-788.36"/>
<polygon fill="black" stroke="black" points="2218.1,-791.82 2227.7,-787.34 2217.4,-784.86 2218.1,-791.82"/>
</g>
<!-- output_directory -->
<g id="node31" class="node">
<title>output_directory</title>
<polygon fill="#94ddf4" stroke="black" points="16,-1207.7 16,-1243.7 152,-1243.7 152,-1207.7 16,-1207.7"/>
<text text-anchor="middle" x="84" y="-1222" font-family="Times,serif" font-size="14.00">output_directory</text>
</g>
<!-- output_directory&#45;&gt;dragen_build_reference_tarball_step -->
<g id="edge31" class="edge">
<title>output_directory&#45;&gt;dragen_build_reference_tarball_step</title>
<path fill="none" stroke="black" d="M106.02,-1207.63C120.8,-1197.01 141.12,-1183.94 161,-1176.2 883.13,-895.05 1817.05,-808.74 2190.78,-784.44"/>
<polygon fill="black" stroke="black" points="2191.1,-787.93 2200.86,-783.8 2190.65,-780.94 2191.1,-787.93"/>
</g>
<!-- dragen_reference_tar -->
<g id="node33" class="node">
<title>dragen_reference_tar</title>
<polygon fill="#94ddf4" stroke="black" points="2271,-324.7 2271,-360.7 2441,-360.7 2441,-324.7 2271,-324.7"/>
<text text-anchor="middle" x="2356" y="-339" font-family="Times,serif" font-size="14.00">dragen_reference_tar</text>
</g>
<!-- dragen_build_reference_tarball_step&#45;&gt;dragen_reference_tar -->
<g id="edge32" class="edge">
<title>dragen_build_reference_tarball_step&#45;&gt;dragen_reference_tar</title>
<path fill="none" stroke="black" d="M2356,-756.58C2356,-690.64 2356,-452.76 2356,-371.3"/>
<polygon fill="black" stroke="black" points="2359.5,-370.88 2356,-360.88 2352.5,-370.88 2359.5,-370.88"/>
</g>
</g>
</svg>
