<?xml version="1.0" encoding="UTF-8" standalone="no"?>
<!DOCTYPE svg PUBLIC "-//W3C//DTD SVG 1.1//EN"
 "http://www.w3.org/Graphics/SVG/1.1/DTD/svg11.dtd">
<!-- Generated by graphviz version 2.43.0 (0)
 -->
<!-- Title: G Pages: 1 -->
<svg width="8814pt" height="2236pt"
 viewBox="0.00 0.00 8813.50 2235.66" xmlns="http://www.w3.org/2000/svg" xmlns:xlink="http://www.w3.org/1999/xlink">
<g id="graph0" class="graph" transform="scale(1 1) rotate(0) translate(4 2231.66)">
<title>G</title>
<polygon fill="#eeeeee" stroke="transparent" points="-4,4 -4,-2231.66 8809.5,-2231.66 8809.5,4 -4,4"/>
<g id="clust1" class="cluster">
<title>cluster_inputs</title>
<polygon fill="#eeeeee" stroke="black" stroke-dasharray="5,2" points="229.5,-1631.73 229.5,-2170.91 8797.5,-2170.91 8797.5,-1631.73 229.5,-1631.73"/>
<text text-anchor="middle" x="8731" y="-1639.53" font-family="Times,serif" font-size="14.00">Workflow Inputs</text>
</g>
<g id="clust2" class="cluster">
<title>cluster_outputs</title>
<polygon fill="#eeeeee" stroke="black" stroke-dasharray="5,2" points="3906.5,-56.76 3906.5,-595.94 4697.5,-595.94 4697.5,-56.76 3906.5,-56.76"/>
<text text-anchor="middle" x="4625" y="-64.56" font-family="Times,serif" font-size="14.00">Workflow Outputs</text>
</g>
<!-- create_dummy_file_step -->
<g id="node1" class="node">
<title>create_dummy_file_step</title>
<polygon fill="lightgoldenrodyellow" stroke="black" points="0,-1425.76 0,-1461.76 261,-1461.76 261,-1425.76 0,-1425.76"/>
<text text-anchor="middle" x="130.5" y="-1440.06" font-family="Times,serif" font-size="14.00">custom&#45;create&#45;dummy&#45;file v(1.0.0)</text>
</g>
<!-- dragen_qc_step -->
<g id="node2" class="node">
<title>dragen_qc_step</title>
<polygon fill="lightgoldenrodyellow" stroke="black" points="238,-907.76 238,-943.76 377,-943.76 377,-907.76 238,-907.76"/>
<text text-anchor="middle" x="307.5" y="-922.06" font-family="Times,serif" font-size="14.00">multiqc v(1.14.0)</text>
</g>
<!-- create_dummy_file_step&#45;&gt;dragen_qc_step -->
<g id="edge1" class="edge">
<title>create_dummy_file_step&#45;&gt;dragen_qc_step</title>
<path fill="none" stroke="black" d="M136.39,-1425.59C162.35,-1349.91 266.68,-1045.76 298.34,-953.45"/>
<polygon fill="black" stroke="black" points="301.65,-954.58 301.59,-943.99 295.03,-952.31 301.65,-954.58"/>
</g>
<!-- multiqc_output_directory -->
<g id="node57" class="node">
<title>multiqc_output_directory</title>
<polygon fill="#94ddf4" stroke="black" points="3915,-389.76 3915,-425.76 4112,-425.76 4112,-389.76 3915,-389.76"/>
<text text-anchor="middle" x="4013.5" y="-404.06" font-family="Times,serif" font-size="14.00">multiqc_output_directory</text>
</g>
<!-- dragen_qc_step&#45;&gt;multiqc_output_directory -->
<g id="edge59" class="edge">
<title>dragen_qc_step&#45;&gt;multiqc_output_directory</title>
<path fill="none" stroke="black" d="M377,-915.08C828.93,-852.16 3349.03,-501.27 3904.97,-423.87"/>
<polygon fill="black" stroke="black" points="3905.56,-427.32 3914.99,-422.47 3904.6,-420.38 3905.56,-427.32"/>
</g>
<!-- run_dragen_germline_step -->
<g id="node3" class="node">
<title>run_dragen_germline_step</title>
<polygon fill="lightgoldenrodyellow" stroke="black" points="4380.5,-1425.76 4380.5,-1461.76 4574.5,-1461.76 4574.5,-1425.76 4380.5,-1425.76"/>
<text text-anchor="middle" x="4477.5" y="-1440.06" font-family="Times,serif" font-size="14.00">dragen&#45;germline v(4.0.3)</text>
</g>
<!-- run_dragen_germline_step&#45;&gt;dragen_qc_step -->
<g id="edge2" class="edge">
<title>run_dragen_germline_step&#45;&gt;dragen_qc_step</title>
<path fill="none" stroke="black" d="M4380.31,-1430.73C3810.1,-1360.17 906.64,-1000.89 387.12,-936.61"/>
<polygon fill="black" stroke="black" points="387.45,-933.12 377.1,-935.37 386.59,-940.07 387.45,-933.12"/>
</g>
<!-- dragen_bam_out -->
<g id="node54" class="node">
<title>dragen_bam_out</title>
<polygon fill="#94ddf4" stroke="black" points="4130.5,-389.76 4130.5,-425.76 4264.5,-425.76 4264.5,-389.76 4130.5,-389.76"/>
<text text-anchor="middle" x="4197.5" y="-404.06" font-family="Times,serif" font-size="14.00">dragen_bam_out</text>
</g>
<!-- run_dragen_germline_step&#45;&gt;dragen_bam_out -->
<g id="edge56" class="edge">
<title>run_dragen_germline_step&#45;&gt;dragen_bam_out</title>
<path fill="none" stroke="black" d="M4472.87,-1425.67C4440.27,-1305.28 4245.23,-585.02 4204.82,-435.81"/>
<polygon fill="black" stroke="black" points="4208.18,-434.8 4202.19,-426.06 4201.42,-436.63 4208.18,-434.8"/>
</g>
<!-- dragen_germline_output_directory -->
<g id="node55" class="node">
<title>dragen_germline_output_directory</title>
<polygon fill="#94ddf4" stroke="black" points="4283,-389.76 4283,-425.76 4546,-425.76 4546,-389.76 4283,-389.76"/>
<text text-anchor="middle" x="4414.5" y="-404.06" font-family="Times,serif" font-size="14.00">dragen_germline_output_directory</text>
</g>
<!-- run_dragen_germline_step&#45;&gt;dragen_germline_output_directory -->
<g id="edge57" class="edge">
<title>run_dragen_germline_step&#45;&gt;dragen_germline_output_directory</title>
<path fill="none" stroke="black" d="M4476.46,-1425.67C4469.13,-1305.4 4425.33,-586.46 4416.18,-436.25"/>
<polygon fill="black" stroke="black" points="4419.66,-435.83 4415.55,-426.06 4412.67,-436.26 4419.66,-435.83"/>
</g>
<!-- dragen_vcf_out -->
<g id="node56" class="node">
<title>dragen_vcf_out</title>
<polygon fill="#94ddf4" stroke="black" points="4564,-389.76 4564,-425.76 4689,-425.76 4689,-389.76 4564,-389.76"/>
<text text-anchor="middle" x="4626.5" y="-404.06" font-family="Times,serif" font-size="14.00">dragen_vcf_out</text>
</g>
<!-- run_dragen_germline_step&#45;&gt;dragen_vcf_out -->
<g id="edge58" class="edge">
<title>run_dragen_germline_step&#45;&gt;dragen_vcf_out</title>
<path fill="none" stroke="black" d="M4479.96,-1425.67C4497.29,-1305.4 4600.89,-586.46 4622.54,-436.25"/>
<polygon fill="black" stroke="black" points="4626.04,-436.46 4624.01,-426.06 4619.12,-435.46 4626.04,-436.46"/>
</g>
<!-- output_file_prefix -->
<g id="node4" class="node">
<title>output_file_prefix</title>
<polygon fill="#94ddf4" stroke="black" points="237.5,-1964.76 237.5,-2000.76 377.5,-2000.76 377.5,-1964.76 237.5,-1964.76"/>
<text text-anchor="middle" x="307.5" y="-1979.06" font-family="Times,serif" font-size="14.00">output_file_prefix</text>
</g>
<!-- output_file_prefix&#45;&gt;dragen_qc_step -->
<g id="edge3" class="edge">
<title>output_file_prefix&#45;&gt;dragen_qc_step</title>
<path fill="none" stroke="black" d="M303.7,-1964.32C291.08,-1841.48 290.77,-1106.51 302.79,-954.33"/>
<polygon fill="black" stroke="black" points="306.31,-954.29 303.72,-944.01 299.34,-953.66 306.31,-954.29"/>
</g>
<!-- output_file_prefix&#45;&gt;dragen_qc_step -->
<g id="edge4" class="edge">
<title>output_file_prefix&#45;&gt;dragen_qc_step</title>
<path fill="none" stroke="black" d="M307.5,-1964.32C307.5,-1841.48 307.5,-1106.51 307.5,-954.33"/>
<polygon fill="black" stroke="black" points="311,-954.01 307.5,-944.01 304,-954.01 311,-954.01"/>
</g>
<!-- output_file_prefix&#45;&gt;dragen_qc_step -->
<g id="edge5" class="edge">
<title>output_file_prefix&#45;&gt;dragen_qc_step</title>
<path fill="none" stroke="black" d="M311.3,-1964.32C323.92,-1841.48 324.23,-1106.51 312.21,-954.33"/>
<polygon fill="black" stroke="black" points="315.66,-953.66 311.28,-944.01 308.69,-954.29 315.66,-953.66"/>
</g>
<!-- output_file_prefix&#45;&gt;run_dragen_germline_step -->
<g id="edge6" class="edge">
<title>output_file_prefix&#45;&gt;run_dragen_germline_step</title>
<path fill="none" stroke="black" d="M329.99,-1964.52C345.34,-1953.69 366.62,-1940.45 387.5,-1933.26 1158.78,-1667.4 3804.08,-1487.4 4370.28,-1451.4"/>
<polygon fill="black" stroke="black" points="4370.72,-1454.88 4380.48,-1450.75 4370.28,-1447.89 4370.72,-1454.88"/>
</g>
<!-- bam_input -->
<g id="node5" class="node">
<title>bam_input</title>
<polygon fill="#94ddf4" stroke="black" points="8523.5,-1964.76 8523.5,-2000.76 8615.5,-2000.76 8615.5,-1964.76 8523.5,-1964.76"/>
<text text-anchor="middle" x="8569.5" y="-1979.06" font-family="Times,serif" font-size="14.00">bam_input</text>
</g>
<!-- bam_input&#45;&gt;run_dragen_germline_step -->
<g id="edge7" class="edge">
<title>bam_input&#45;&gt;run_dragen_germline_step</title>
<path fill="none" stroke="black" d="M8554.99,-1964.45C8544.83,-1953.59 8530.3,-1940.34 8514.5,-1933.26 7779.82,-1603.8 5149.37,-1473.62 4584.72,-1449.16"/>
<polygon fill="black" stroke="black" points="4584.7,-1445.65 4574.56,-1448.72 4584.4,-1452.65 4584.7,-1445.65"/>
</g>
<!-- cnv_enable_self_normalization -->
<g id="node6" class="node">
<title>cnv_enable_self_normalization</title>
<polygon fill="#94ddf4" stroke="black" points="8272,-1964.76 8272,-2000.76 8505,-2000.76 8505,-1964.76 8272,-1964.76"/>
<text text-anchor="middle" x="8388.5" y="-1979.06" font-family="Times,serif" font-size="14.00">cnv_enable_self_normalization</text>
</g>
<!-- cnv_enable_self_normalization&#45;&gt;run_dragen_germline_step -->
<g id="edge8" class="edge">
<title>cnv_enable_self_normalization&#45;&gt;run_dragen_germline_step</title>
<path fill="none" stroke="black" d="M8351.53,-1964.69C8327.05,-1954.07 8293.95,-1941.01 8263.5,-1933.26 6837.71,-1570.38 5037.73,-1469.51 4584.69,-1449.12"/>
<polygon fill="black" stroke="black" points="4584.71,-1445.61 4574.56,-1448.66 4584.39,-1452.61 4584.71,-1445.61"/>
</g>
<!-- dbsnp_annotation -->
<g id="node7" class="node">
<title>dbsnp_annotation</title>
<polygon fill="#94ddf4" stroke="black" points="8111,-1964.76 8111,-2000.76 8254,-2000.76 8254,-1964.76 8111,-1964.76"/>
<text text-anchor="middle" x="8182.5" y="-1979.06" font-family="Times,serif" font-size="14.00">dbsnp_annotation</text>
</g>
<!-- dbsnp_annotation&#45;&gt;run_dragen_germline_step -->
<g id="edge9" class="edge">
<title>dbsnp_annotation&#45;&gt;run_dragen_germline_step</title>
<path fill="none" stroke="black" d="M8159.66,-1964.63C8144.08,-1953.85 8122.54,-1940.62 8101.5,-1933.26 7423.47,-1695.89 5112.07,-1496.44 4585.06,-1453.36"/>
<polygon fill="black" stroke="black" points="4585.06,-1449.85 4574.81,-1452.53 4584.49,-1456.83 4585.06,-1449.85"/>
</g>
<!-- dedup_min_qual -->
<g id="node8" class="node">
<title>dedup_min_qual</title>
<polygon fill="#94ddf4" stroke="black" points="7960.5,-1964.76 7960.5,-2000.76 8092.5,-2000.76 8092.5,-1964.76 7960.5,-1964.76"/>
<text text-anchor="middle" x="8026.5" y="-1979.06" font-family="Times,serif" font-size="14.00">dedup_min_qual</text>
</g>
<!-- dedup_min_qual&#45;&gt;run_dragen_germline_step -->
<g id="edge10" class="edge">
<title>dedup_min_qual&#45;&gt;run_dragen_germline_step</title>
<path fill="none" stroke="black" d="M8005.54,-1964.63C7991.19,-1953.85 7971.26,-1940.62 7951.5,-1933.26 7307.33,-1693.09 5097.72,-1496.62 4584.56,-1453.55"/>
<polygon fill="black" stroke="black" points="4584.83,-1450.06 4574.57,-1452.71 4584.24,-1457.03 4584.83,-1450.06"/>
</g>
<!-- enable_cnv -->
<g id="node9" class="node">
<title>enable_cnv</title>
<polygon fill="#94ddf4" stroke="black" points="7847,-1964.76 7847,-2000.76 7942,-2000.76 7942,-1964.76 7847,-1964.76"/>
<text text-anchor="middle" x="7894.5" y="-1979.06" font-family="Times,serif" font-size="14.00">enable_cnv</text>
</g>
<!-- enable_cnv&#45;&gt;run_dragen_germline_step -->
<g id="edge11" class="edge">
<title>enable_cnv&#45;&gt;run_dragen_germline_step</title>
<path fill="none" stroke="black" d="M7879.61,-1964.57C7869.22,-1953.77 7854.41,-1940.53 7838.5,-1933.26 7234.58,-1656.98 5091.13,-1488.68 4585.11,-1452.24"/>
<polygon fill="black" stroke="black" points="4585.12,-1448.74 4574.89,-1451.51 4584.62,-1455.72 4585.12,-1448.74"/>
</g>
<!-- enable_duplicate_marking -->
<g id="node10" class="node">
<title>enable_duplicate_marking</title>
<polygon fill="#94ddf4" stroke="black" points="7626,-1964.76 7626,-2000.76 7829,-2000.76 7829,-1964.76 7626,-1964.76"/>
<text text-anchor="middle" x="7727.5" y="-1979.06" font-family="Times,serif" font-size="14.00">enable_duplicate_marking</text>
</g>
<!-- enable_duplicate_marking&#45;&gt;run_dragen_germline_step -->
<g id="edge12" class="edge">
<title>enable_duplicate_marking&#45;&gt;run_dragen_germline_step</title>
<path fill="none" stroke="black" d="M7694.34,-1964.57C7672.7,-1954.05 7643.56,-1941.13 7616.5,-1933.26 6459.12,-1596.48 4990.06,-1478.69 4585.05,-1451.44"/>
<polygon fill="black" stroke="black" points="4585.03,-1447.93 4574.81,-1450.75 4584.56,-1454.91 4585.03,-1447.93"/>
</g>
<!-- enable_hla -->
<g id="node11" class="node">
<title>enable_hla</title>
<polygon fill="#94ddf4" stroke="black" points="7515.5,-1964.76 7515.5,-2000.76 7607.5,-2000.76 7607.5,-1964.76 7515.5,-1964.76"/>
<text text-anchor="middle" x="7561.5" y="-1979.06" font-family="Times,serif" font-size="14.00">enable_hla</text>
</g>
<!-- enable_hla&#45;&gt;run_dragen_germline_step -->
<g id="edge13" class="edge">
<title>enable_hla&#45;&gt;run_dragen_germline_step</title>
<path fill="none" stroke="black" d="M7546.89,-1964.65C7536.7,-1953.88 7522.16,-1940.65 7506.5,-1933.26 6968.03,-1678.91 5059.39,-1496.2 4584.9,-1454.03"/>
<polygon fill="black" stroke="black" points="4584.9,-1450.51 4574.63,-1453.12 4584.28,-1457.49 4584.9,-1450.51"/>
</g>
<!-- enable_map_align_output -->
<g id="node12" class="node">
<title>enable_map_align_output</title>
<polygon fill="#94ddf4" stroke="black" points="7300,-1964.76 7300,-2000.76 7497,-2000.76 7497,-1964.76 7300,-1964.76"/>
<text text-anchor="middle" x="7398.5" y="-1979.06" font-family="Times,serif" font-size="14.00">enable_map_align_output</text>
</g>
<!-- enable_map_align_output&#45;&gt;run_dragen_germline_step -->
<g id="edge14" class="edge">
<title>enable_map_align_output&#45;&gt;run_dragen_germline_step</title>
<path fill="none" stroke="black" d="M7366.24,-1964.7C7345.19,-1954.23 7316.84,-1941.32 7290.5,-1933.26 6264.52,-1619.24 4962.37,-1487 4584.64,-1453.64"/>
<polygon fill="black" stroke="black" points="4584.81,-1450.14 4574.54,-1452.75 4584.2,-1457.12 4584.81,-1450.14"/>
</g>
<!-- enable_sv -->
<g id="node13" class="node">
<title>enable_sv</title>
<polygon fill="#94ddf4" stroke="black" points="7195.5,-1964.76 7195.5,-2000.76 7281.5,-2000.76 7281.5,-1964.76 7195.5,-1964.76"/>
<text text-anchor="middle" x="7238.5" y="-1979.06" font-family="Times,serif" font-size="14.00">enable_sv</text>
</g>
<!-- enable_sv&#45;&gt;run_dragen_germline_step -->
<g id="edge15" class="edge">
<title>enable_sv&#45;&gt;run_dragen_germline_step</title>
<path fill="none" stroke="black" d="M7224.83,-1964.73C7215.25,-1953.99 7201.51,-1940.78 7186.5,-1933.26 6712.9,-1695.95 5028,-1503.31 4584.9,-1455.94"/>
<polygon fill="black" stroke="black" points="4584.98,-1452.43 4574.67,-1454.85 4584.24,-1459.39 4584.98,-1452.43"/>
</g>
<!-- fastq_list -->
<g id="node14" class="node">
<title>fastq_list</title>
<polygon fill="#94ddf4" stroke="black" points="7095.5,-1964.76 7095.5,-2000.76 7177.5,-2000.76 7177.5,-1964.76 7095.5,-1964.76"/>
<text text-anchor="middle" x="7136.5" y="-1979.06" font-family="Times,serif" font-size="14.00">fastq_list</text>
</g>
<!-- fastq_list&#45;&gt;run_dragen_germline_step -->
<g id="edge16" class="edge">
<title>fastq_list&#45;&gt;run_dragen_germline_step</title>
<path fill="none" stroke="black" d="M7123.06,-1964.29C7113.92,-1953.64 7100.89,-1940.7 7086.5,-1933.26 6634.13,-1699.11 5017.43,-1505.07 4584.69,-1456.48"/>
<polygon fill="black" stroke="black" points="4585.01,-1452.99 4574.69,-1455.36 4584.23,-1459.95 4585.01,-1452.99"/>
</g>
<!-- fastq_list_rows -->
<g id="node15" class="node">
<title>fastq_list_rows</title>
<polygon fill="#94ddf4" stroke="black" points="6954,-1964.76 6954,-2000.76 7077,-2000.76 7077,-1964.76 6954,-1964.76"/>
<text text-anchor="middle" x="7015.5" y="-1979.06" font-family="Times,serif" font-size="14.00">fastq_list_rows</text>
</g>
<!-- fastq_list_rows&#45;&gt;run_dragen_germline_step -->
<g id="edge17" class="edge">
<title>fastq_list_rows&#45;&gt;run_dragen_germline_step</title>
<path fill="none" stroke="black" d="M6995.36,-1964.72C6981.81,-1954.12 6963.08,-1941.06 6944.5,-1933.26 6082.65,-1571.52 4937.07,-1473.17 4584.97,-1450.66"/>
<polygon fill="black" stroke="black" points="4584.99,-1447.16 4574.79,-1450.02 4584.55,-1454.14 4584.99,-1447.16"/>
</g>
<!-- hla_allele_frequency_file -->
<g id="node16" class="node">
<title>hla_allele_frequency_file</title>
<polygon fill="#94ddf4" stroke="black" points="6745.5,-1964.76 6745.5,-2000.76 6935.5,-2000.76 6935.5,-1964.76 6745.5,-1964.76"/>
<text text-anchor="middle" x="6840.5" y="-1979.06" font-family="Times,serif" font-size="14.00">hla_allele_frequency_file</text>
</g>
<!-- hla_allele_frequency_file&#45;&gt;run_dragen_germline_step -->
<g id="edge18" class="edge">
<title>hla_allele_frequency_file&#45;&gt;run_dragen_germline_step</title>
<path fill="none" stroke="black" d="M6808.48,-1964.55C6788.3,-1954.28 6761.42,-1941.64 6736.5,-1933.26 5931.26,-1662.23 4912.63,-1505.35 4584.5,-1459.21"/>
<polygon fill="black" stroke="black" points="4584.91,-1455.73 4574.52,-1457.81 4583.94,-1462.66 4584.91,-1455.73"/>
</g>
<!-- hla_bed_file -->
<g id="node17" class="node">
<title>hla_bed_file</title>
<polygon fill="#94ddf4" stroke="black" points="6627.5,-1964.76 6627.5,-2000.76 6727.5,-2000.76 6727.5,-1964.76 6627.5,-1964.76"/>
<text text-anchor="middle" x="6677.5" y="-1979.06" font-family="Times,serif" font-size="14.00">hla_bed_file</text>
</g>
<!-- hla_bed_file&#45;&gt;run_dragen_germline_step -->
<g id="edge19" class="edge">
<title>hla_bed_file&#45;&gt;run_dragen_germline_step</title>
<path fill="none" stroke="black" d="M6660.94,-1964.54C6649.87,-1954 6634.45,-1941.08 6618.5,-1933.26 5895.61,-1578.53 4908.22,-1476.62 4584.81,-1451.81"/>
<polygon fill="black" stroke="black" points="4584.75,-1448.29 4574.51,-1451.03 4584.22,-1455.27 4584.75,-1448.29"/>
</g>
<!-- hla_min_reads -->
<g id="node18" class="node">
<title>hla_min_reads</title>
<polygon fill="#94ddf4" stroke="black" points="6490,-1964.76 6490,-2000.76 6609,-2000.76 6609,-1964.76 6490,-1964.76"/>
<text text-anchor="middle" x="6549.5" y="-1979.06" font-family="Times,serif" font-size="14.00">hla_min_reads</text>
</g>
<!-- hla_min_reads&#45;&gt;run_dragen_germline_step -->
<g id="edge20" class="edge">
<title>hla_min_reads&#45;&gt;run_dragen_germline_step</title>
<path fill="none" stroke="black" d="M6529.6,-1964.73C6516.44,-1954.27 6498.37,-1941.36 6480.5,-1933.26 5798.25,-1623.7 4892.63,-1493.78 4584.99,-1456.69"/>
<polygon fill="black" stroke="black" points="4585.09,-1453.17 4574.74,-1455.46 4584.26,-1460.12 4585.09,-1453.17"/>
</g>
<!-- hla_reference_file -->
<g id="node19" class="node">
<title>hla_reference_file</title>
<polygon fill="#94ddf4" stroke="black" points="6329.5,-1964.76 6329.5,-2000.76 6471.5,-2000.76 6471.5,-1964.76 6329.5,-1964.76"/>
<text text-anchor="middle" x="6400.5" y="-1979.06" font-family="Times,serif" font-size="14.00">hla_reference_file</text>
</g>
<!-- hla_reference_file&#45;&gt;run_dragen_germline_step -->
<g id="edge21" class="edge">
<title>hla_reference_file&#45;&gt;run_dragen_germline_step</title>
<path fill="none" stroke="black" d="M6376.26,-1964.55C6360.88,-1954.28 6340.23,-1941.65 6320.5,-1933.26 5689.8,-1665.07 4873.76,-1511.16 4584.72,-1462.09"/>
<polygon fill="black" stroke="black" points="4585.11,-1458.61 4574.66,-1460.39 4583.94,-1465.51 4585.11,-1458.61"/>
</g>
<!-- hla_tiebreaker_threshold -->
<g id="node20" class="node">
<title>hla_tiebreaker_threshold</title>
<polygon fill="#94ddf4" stroke="black" points="6117.5,-1964.76 6117.5,-2000.76 6311.5,-2000.76 6311.5,-1964.76 6117.5,-1964.76"/>
<text text-anchor="middle" x="6214.5" y="-1979.06" font-family="Times,serif" font-size="14.00">hla_tiebreaker_threshold</text>
</g>
<!-- hla_tiebreaker_threshold&#45;&gt;run_dragen_germline_step -->
<g id="edge22" class="edge">
<title>hla_tiebreaker_threshold&#45;&gt;run_dragen_germline_step</title>
<path fill="none" stroke="black" d="M6180.16,-1964.58C6159.66,-1954.7 6132.93,-1942.45 6108.5,-1933.26 5524.55,-1713.41 4794.65,-1523.98 4556.55,-1464.28"/>
<polygon fill="black" stroke="black" points="4557.15,-1460.82 4546.6,-1461.79 4555.45,-1467.62 4557.15,-1460.82"/>
</g>
<!-- hla_zygosity_threshold -->
<g id="node21" class="node">
<title>hla_zygosity_threshold</title>
<polygon fill="#94ddf4" stroke="black" points="5920,-1964.76 5920,-2000.76 6099,-2000.76 6099,-1964.76 5920,-1964.76"/>
<text text-anchor="middle" x="6009.5" y="-1979.06" font-family="Times,serif" font-size="14.00">hla_zygosity_threshold</text>
</g>
<!-- hla_zygosity_threshold&#45;&gt;run_dragen_germline_step -->
<g id="edge23" class="edge">
<title>hla_zygosity_threshold&#45;&gt;run_dragen_germline_step</title>
<path fill="none" stroke="black" d="M5977.77,-1964.73C5958.82,-1954.9 5934.11,-1942.66 5911.5,-1933.26 5398.1,-1719.85 4754.78,-1525.79 4546.18,-1464.64"/>
<polygon fill="black" stroke="black" points="4547.15,-1461.28 4536.57,-1461.83 4545.19,-1468 4547.15,-1461.28"/>
</g>
<!-- lic_instance_id_location -->
<g id="node22" class="node">
<title>lic_instance_id_location</title>
<polygon fill="#94ddf4" stroke="black" points="5719,-1964.76 5719,-2000.76 5902,-2000.76 5902,-1964.76 5719,-1964.76"/>
<text text-anchor="middle" x="5810.5" y="-1979.06" font-family="Times,serif" font-size="14.00">lic_instance_id_location</text>
</g>
<!-- lic_instance_id_location&#45;&gt;run_dragen_germline_step -->
<g id="edge24" class="edge">
<title>lic_instance_id_location&#45;&gt;run_dragen_germline_step</title>
<path fill="none" stroke="black" d="M5776.19,-1964.54C5756.77,-1954.99 5731.95,-1943.08 5709.5,-1933.26 5261.63,-1737.22 4708.48,-1530.07 4533.37,-1465.31"/>
<polygon fill="black" stroke="black" points="4534.44,-1461.97 4523.85,-1461.79 4532.01,-1468.54 4534.44,-1461.97"/>
</g>
<!-- output_directory -->
<g id="node23" class="node">
<title>output_directory</title>
<polygon fill="#94ddf4" stroke="black" points="5564.5,-1964.76 5564.5,-2000.76 5700.5,-2000.76 5700.5,-1964.76 5564.5,-1964.76"/>
<text text-anchor="middle" x="5632.5" y="-1979.06" font-family="Times,serif" font-size="14.00">output_directory</text>
</g>
<!-- output_directory&#45;&gt;run_dragen_germline_step -->
<g id="edge25" class="edge">
<title>output_directory&#45;&gt;run_dragen_germline_step</title>
<path fill="none" stroke="black" d="M5607.36,-1964.69C5592.56,-1954.97 5573.31,-1942.84 5555.5,-1933.26 5173.6,-1727.69 4688.59,-1529.01 4530.15,-1465.61"/>
<polygon fill="black" stroke="black" points="4531.21,-1462.27 4520.63,-1461.81 4528.62,-1468.77 4531.21,-1462.27"/>
</g>
<!-- qc_coverage_ignore_overlaps -->
<g id="node24" class="node">
<title>qc_coverage_ignore_overlaps</title>
<polygon fill="#94ddf4" stroke="black" points="5322.5,-1964.76 5322.5,-2000.76 5546.5,-2000.76 5546.5,-1964.76 5322.5,-1964.76"/>
<text text-anchor="middle" x="5434.5" y="-1979.06" font-family="Times,serif" font-size="14.00">qc_coverage_ignore_overlaps</text>
</g>
<!-- qc_coverage_ignore_overlaps&#45;&gt;run_dragen_germline_step -->
<g id="edge26" class="edge">
<title>qc_coverage_ignore_overlaps&#45;&gt;run_dragen_germline_step</title>
<path fill="none" stroke="black" d="M5404.01,-1964.65C5263.19,-1885.63 4675.79,-1556.02 4517.14,-1467"/>
<polygon fill="black" stroke="black" points="4518.61,-1463.81 4508.18,-1461.97 4515.18,-1469.91 4518.61,-1463.81"/>
</g>
<!-- qc_coverage_region_1 -->
<g id="node25" class="node">
<title>qc_coverage_region_1</title>
<polygon fill="#94ddf4" stroke="black" points="5131,-1964.76 5131,-2000.76 5304,-2000.76 5304,-1964.76 5131,-1964.76"/>
<text text-anchor="middle" x="5217.5" y="-1979.06" font-family="Times,serif" font-size="14.00">qc_coverage_region_1</text>
</g>
<!-- qc_coverage_region_1&#45;&gt;run_dragen_germline_step -->
<g id="edge27" class="edge">
<title>qc_coverage_region_1&#45;&gt;run_dragen_germline_step</title>
<path fill="none" stroke="black" d="M5193.72,-1964.5C5084.88,-1885.52 4634.28,-1558.53 4509.6,-1468.05"/>
<polygon fill="black" stroke="black" points="4511.34,-1464.99 4501.19,-1461.95 4507.23,-1470.66 4511.34,-1464.99"/>
</g>
<!-- qc_coverage_region_2 -->
<g id="node26" class="node">
<title>qc_coverage_region_2</title>
<polygon fill="#94ddf4" stroke="black" points="4940,-1964.76 4940,-2000.76 5113,-2000.76 5113,-1964.76 4940,-1964.76"/>
<text text-anchor="middle" x="5026.5" y="-1979.06" font-family="Times,serif" font-size="14.00">qc_coverage_region_2</text>
</g>
<!-- qc_coverage_region_2&#45;&gt;run_dragen_germline_step -->
<g id="edge28" class="edge">
<title>qc_coverage_region_2&#45;&gt;run_dragen_germline_step</title>
<path fill="none" stroke="black" d="M5008.86,-1964.5C4928.43,-1885.83 4596.48,-1561.14 4502.44,-1469.15"/>
<polygon fill="black" stroke="black" points="4504.67,-1466.44 4495.08,-1461.95 4499.78,-1471.44 4504.67,-1466.44"/>
</g>
<!-- qc_coverage_region_3 -->
<g id="node27" class="node">
<title>qc_coverage_region_3</title>
<polygon fill="#94ddf4" stroke="black" points="4749,-1964.76 4749,-2000.76 4922,-2000.76 4922,-1964.76 4749,-1964.76"/>
<text text-anchor="middle" x="4835.5" y="-1979.06" font-family="Times,serif" font-size="14.00">qc_coverage_region_3</text>
</g>
<!-- qc_coverage_region_3&#45;&gt;run_dragen_germline_step -->
<g id="edge29" class="edge">
<title>qc_coverage_region_3&#45;&gt;run_dragen_germline_step</title>
<path fill="none" stroke="black" d="M4823.99,-1964.5C4771.82,-1886.23 4557.26,-1564.39 4494.7,-1470.55"/>
<polygon fill="black" stroke="black" points="4497.42,-1468.33 4488.96,-1461.95 4491.6,-1472.21 4497.42,-1468.33"/>
</g>
<!-- reference_tar -->
<g id="node28" class="node">
<title>reference_tar</title>
<polygon fill="#94ddf4" stroke="black" points="4618,-1964.76 4618,-2000.76 4731,-2000.76 4731,-1964.76 4618,-1964.76"/>
<text text-anchor="middle" x="4674.5" y="-1979.06" font-family="Times,serif" font-size="14.00">reference_tar</text>
</g>
<!-- reference_tar&#45;&gt;run_dragen_germline_step -->
<g id="edge30" class="edge">
<title>reference_tar&#45;&gt;run_dragen_germline_step</title>
<path fill="none" stroke="black" d="M4668.17,-1964.5C4639.54,-1886.47 4522.1,-1566.34 4487.28,-1471.41"/>
<polygon fill="black" stroke="black" points="4490.54,-1470.13 4483.81,-1461.95 4483.97,-1472.54 4490.54,-1470.13"/>
</g>
<!-- sample_sex -->
<g id="node29" class="node">
<title>sample_sex</title>
<polygon fill="#94ddf4" stroke="black" points="4501.5,-1964.76 4501.5,-2000.76 4599.5,-2000.76 4599.5,-1964.76 4501.5,-1964.76"/>
<text text-anchor="middle" x="4550.5" y="-1979.06" font-family="Times,serif" font-size="14.00">sample_sex</text>
</g>
<!-- sample_sex&#45;&gt;run_dragen_germline_step -->
<g id="edge31" class="edge">
<title>sample_sex&#45;&gt;run_dragen_germline_step</title>
<path fill="none" stroke="black" d="M4548.15,-1964.5C4537.57,-1886.62 4494.2,-1567.63 4481.2,-1471.99"/>
<polygon fill="black" stroke="black" points="4484.65,-1471.39 4479.84,-1461.95 4477.72,-1472.33 4484.65,-1471.39"/>
</g>
<!-- sv_call_regions_bed -->
<g id="node30" class="node">
<title>sv_call_regions_bed</title>
<polygon fill="#94ddf4" stroke="black" points="4326,-1964.76 4326,-2000.76 4483,-2000.76 4483,-1964.76 4326,-1964.76"/>
<text text-anchor="middle" x="4404.5" y="-1979.06" font-family="Times,serif" font-size="14.00">sv_call_regions_bed</text>
</g>
<!-- sv_call_regions_bed&#45;&gt;run_dragen_germline_step -->
<g id="edge32" class="edge">
<title>sv_call_regions_bed&#45;&gt;run_dragen_germline_step</title>
<path fill="none" stroke="black" d="M4406.85,-1964.5C4417.43,-1886.62 4460.8,-1567.63 4473.8,-1471.99"/>
<polygon fill="black" stroke="black" points="4477.28,-1472.33 4475.16,-1461.95 4470.35,-1471.39 4477.28,-1472.33"/>
</g>
<!-- sv_discovery -->
<g id="node31" class="node">
<title>sv_discovery</title>
<polygon fill="#94ddf4" stroke="black" points="4201,-1964.76 4201,-2000.76 4308,-2000.76 4308,-1964.76 4201,-1964.76"/>
<text text-anchor="middle" x="4254.5" y="-1979.06" font-family="Times,serif" font-size="14.00">sv_discovery</text>
</g>
<!-- sv_discovery&#45;&gt;run_dragen_germline_step -->
<g id="edge33" class="edge">
<title>sv_discovery&#45;&gt;run_dragen_germline_step</title>
<path fill="none" stroke="black" d="M4261.67,-1964.5C4294.07,-1886.47 4427.01,-1566.34 4466.43,-1471.41"/>
<polygon fill="black" stroke="black" points="4469.76,-1472.53 4470.36,-1461.95 4463.29,-1469.84 4469.76,-1472.53"/>
</g>
<!-- sv_enable_liquid_tumor_mode -->
<g id="node32" class="node">
<title>sv_enable_liquid_tumor_mode</title>
<polygon fill="#94ddf4" stroke="black" points="3952.5,-1964.76 3952.5,-2000.76 4182.5,-2000.76 4182.5,-1964.76 3952.5,-1964.76"/>
<text text-anchor="middle" x="4067.5" y="-1979.06" font-family="Times,serif" font-size="14.00">sv_enable_liquid_tumor_mode</text>
</g>
<!-- sv_enable_liquid_tumor_mode&#45;&gt;run_dragen_germline_step -->
<g id="edge34" class="edge">
<title>sv_enable_liquid_tumor_mode&#45;&gt;run_dragen_germline_step</title>
<path fill="none" stroke="black" d="M4080.68,-1964.5C4140.56,-1886.07 4387.15,-1563.09 4458.24,-1469.98"/>
<polygon fill="black" stroke="black" points="4461.09,-1472.02 4464.37,-1461.95 4455.52,-1467.77 4461.09,-1472.02"/>
</g>
<!-- sv_exome -->
<g id="node33" class="node">
<title>sv_exome</title>
<polygon fill="#94ddf4" stroke="black" points="3848.5,-1964.76 3848.5,-2000.76 3934.5,-2000.76 3934.5,-1964.76 3848.5,-1964.76"/>
<text text-anchor="middle" x="3891.5" y="-1979.06" font-family="Times,serif" font-size="14.00">sv_exome</text>
</g>
<!-- sv_exome&#45;&gt;run_dragen_germline_step -->
<g id="edge35" class="edge">
<title>sv_exome&#45;&gt;run_dragen_germline_step</title>
<path fill="none" stroke="black" d="M3909.75,-1964.65C3919.7,-1955.35 3932.26,-1943.64 3943.5,-1933.26 4137.58,-1753.98 4373.11,-1539.63 4451.06,-1468.78"/>
<polygon fill="black" stroke="black" points="4453.47,-1471.31 4458.52,-1462 4448.77,-1466.13 4453.47,-1471.31"/>
</g>
<!-- sv_forcegt_vcf -->
<g id="node34" class="node">
<title>sv_forcegt_vcf</title>
<polygon fill="#94ddf4" stroke="black" points="3712.5,-1964.76 3712.5,-2000.76 3830.5,-2000.76 3830.5,-1964.76 3712.5,-1964.76"/>
<text text-anchor="middle" x="3771.5" y="-1979.06" font-family="Times,serif" font-size="14.00">sv_forcegt_vcf</text>
</g>
<!-- sv_forcegt_vcf&#45;&gt;run_dragen_germline_step -->
<g id="edge36" class="edge">
<title>sv_forcegt_vcf&#45;&gt;run_dragen_germline_step</title>
<path fill="none" stroke="black" d="M3794.19,-1964.5C3898.03,-1885.52 4327.92,-1558.53 4446.88,-1468.05"/>
<polygon fill="black" stroke="black" points="4449.05,-1470.79 4454.89,-1461.95 4444.82,-1465.22 4449.05,-1470.79"/>
</g>
<!-- sv_output_contigs -->
<g id="node35" class="node">
<title>sv_output_contigs</title>
<polygon fill="#94ddf4" stroke="black" points="3549,-1964.76 3549,-2000.76 3694,-2000.76 3694,-1964.76 3549,-1964.76"/>
<text text-anchor="middle" x="3621.5" y="-1979.06" font-family="Times,serif" font-size="14.00">sv_output_contigs</text>
</g>
<!-- sv_output_contigs&#45;&gt;run_dragen_germline_step -->
<g id="edge37" class="edge">
<title>sv_output_contigs&#45;&gt;run_dragen_germline_step</title>
<path fill="none" stroke="black" d="M3649.01,-1964.5C3775.16,-1885.36 4298.23,-1557.22 4441.23,-1467.51"/>
<polygon fill="black" stroke="black" points="4443.48,-1470.23 4450.09,-1461.95 4439.76,-1464.3 4443.48,-1470.23"/>
</g>
<!-- sv_region -->
<g id="node36" class="node">
<title>sv_region</title>
<polygon fill="#94ddf4" stroke="black" points="3446,-1964.76 3446,-2000.76 3531,-2000.76 3531,-1964.76 3446,-1964.76"/>
<text text-anchor="middle" x="3488.5" y="-1979.06" font-family="Times,serif" font-size="14.00">sv_region</text>
</g>
<!-- sv_region&#45;&gt;run_dragen_germline_step -->
<g id="edge38" class="edge">
<title>sv_region&#45;&gt;run_dragen_germline_step</title>
<path fill="none" stroke="black" d="M3504.82,-1964.35C3514.6,-1954.51 3527.6,-1942.38 3540.5,-1933.26 3853.46,-1711.91 4279.76,-1526.46 4425.89,-1465.76"/>
<polygon fill="black" stroke="black" points="4427.62,-1468.84 4435.52,-1461.78 4424.94,-1462.37 4427.62,-1468.84"/>
</g>
<!-- sv_se_overlap_pair_evidence -->
<g id="node37" class="node">
<title>sv_se_overlap_pair_evidence</title>
<polygon fill="#94ddf4" stroke="black" points="3207.5,-1964.76 3207.5,-2000.76 3427.5,-2000.76 3427.5,-1964.76 3207.5,-1964.76"/>
<text text-anchor="middle" x="3317.5" y="-1979.06" font-family="Times,serif" font-size="14.00">sv_se_overlap_pair_evidence</text>
</g>
<!-- sv_se_overlap_pair_evidence&#45;&gt;run_dragen_germline_step -->
<g id="edge39" class="edge">
<title>sv_se_overlap_pair_evidence&#45;&gt;run_dragen_germline_step</title>
<path fill="none" stroke="black" d="M3354.46,-1964.65C3525.76,-1885.35 4242.21,-1553.68 4431.48,-1466.06"/>
<polygon fill="black" stroke="black" points="4433,-1469.21 4440.61,-1461.83 4430.06,-1462.86 4433,-1469.21"/>
</g>
<!-- sv_tin_contam_tolerance -->
<g id="node38" class="node">
<title>sv_tin_contam_tolerance</title>
<polygon fill="#94ddf4" stroke="black" points="2998,-1964.76 2998,-2000.76 3189,-2000.76 3189,-1964.76 2998,-1964.76"/>
<text text-anchor="middle" x="3093.5" y="-1979.06" font-family="Times,serif" font-size="14.00">sv_tin_contam_tolerance</text>
</g>
<!-- sv_tin_contam_tolerance&#45;&gt;run_dragen_germline_step -->
<g id="edge40" class="edge">
<title>sv_tin_contam_tolerance&#45;&gt;run_dragen_germline_step</title>
<path fill="none" stroke="black" d="M3129.19,-1964.54C3149.38,-1954.98 3175.18,-1943.08 3198.5,-1933.26 3664.16,-1737.05 4238.43,-1529.84 4419.81,-1465.21"/>
<polygon fill="black" stroke="black" points="4421.17,-1468.44 4429.42,-1461.79 4418.82,-1461.84 4421.17,-1468.44"/>
</g>
<!-- vc_decoy_contigs -->
<g id="node39" class="node">
<title>vc_decoy_contigs</title>
<polygon fill="#94ddf4" stroke="black" points="2841,-1964.76 2841,-2000.76 2980,-2000.76 2980,-1964.76 2841,-1964.76"/>
<text text-anchor="middle" x="2910.5" y="-1979.06" font-family="Times,serif" font-size="14.00">vc_decoy_contigs</text>
</g>
<!-- vc_decoy_contigs&#45;&gt;run_dragen_germline_step -->
<g id="edge41" class="edge">
<title>vc_decoy_contigs&#45;&gt;run_dragen_germline_step</title>
<path fill="none" stroke="black" d="M2934.93,-1964.7C2950.13,-1954.61 2970.37,-1942.12 2989.5,-1933.26 3504.24,-1694.75 4168.37,-1520.52 4396.44,-1464.23"/>
<polygon fill="black" stroke="black" points="4397.45,-1467.59 4406.32,-1461.8 4395.77,-1460.79 4397.45,-1467.59"/>
</g>
<!-- vc_enable_baf -->
<g id="node40" class="node">
<title>vc_enable_baf</title>
<polygon fill="#94ddf4" stroke="black" points="2706.5,-1964.76 2706.5,-2000.76 2822.5,-2000.76 2822.5,-1964.76 2706.5,-1964.76"/>
<text text-anchor="middle" x="2764.5" y="-1979.06" font-family="Times,serif" font-size="14.00">vc_enable_baf</text>
</g>
<!-- vc_enable_baf&#45;&gt;run_dragen_germline_step -->
<g id="edge42" class="edge">
<title>vc_enable_baf&#45;&gt;run_dragen_germline_step</title>
<path fill="none" stroke="black" d="M2784.8,-1964.55C2797.76,-1954.28 2815.3,-1941.65 2832.5,-1933.26 3379.98,-1666.01 4102.47,-1514.01 4371.02,-1463.67"/>
<polygon fill="black" stroke="black" points="4371.96,-1467.05 4381.15,-1461.78 4370.68,-1460.17 4371.96,-1467.05"/>
</g>
<!-- vc_enable_decoy_contigs -->
<g id="node41" class="node">
<title>vc_enable_decoy_contigs</title>
<polygon fill="#94ddf4" stroke="black" points="2495,-1964.76 2495,-2000.76 2688,-2000.76 2688,-1964.76 2495,-1964.76"/>
<text text-anchor="middle" x="2591.5" y="-1979.06" font-family="Times,serif" font-size="14.00">vc_enable_decoy_contigs</text>
</g>
<!-- vc_enable_decoy_contigs&#45;&gt;run_dragen_germline_step -->
<g id="edge43" class="edge">
<title>vc_enable_decoy_contigs&#45;&gt;run_dragen_germline_step</title>
<path fill="none" stroke="black" d="M2625.29,-1964.6C2645.82,-1954.61 2672.77,-1942.24 2697.5,-1933.26 3330.52,-1703.28 4123.89,-1521.66 4387.65,-1464"/>
<polygon fill="black" stroke="black" points="4388.54,-1467.39 4397.57,-1461.84 4387.05,-1460.55 4388.54,-1467.39"/>
</g>
<!-- vc_enable_gatk_acceleration -->
<g id="node42" class="node">
<title>vc_enable_gatk_acceleration</title>
<polygon fill="#94ddf4" stroke="black" points="2258.5,-1964.76 2258.5,-2000.76 2476.5,-2000.76 2476.5,-1964.76 2258.5,-1964.76"/>
<text text-anchor="middle" x="2367.5" y="-1979.06" font-family="Times,serif" font-size="14.00">vc_enable_gatk_acceleration</text>
</g>
<!-- vc_enable_gatk_acceleration&#45;&gt;run_dragen_germline_step -->
<g id="edge44" class="edge">
<title>vc_enable_gatk_acceleration&#45;&gt;run_dragen_germline_step</title>
<path fill="none" stroke="black" d="M2405.29,-1964.7C2428.43,-1954.67 2458.81,-1942.24 2486.5,-1933.26 3198.7,-1702.13 4084.96,-1520.97 4378.21,-1463.75"/>
<polygon fill="black" stroke="black" points="4379.24,-1467.11 4388.39,-1461.76 4377.9,-1460.24 4379.24,-1467.11"/>
</g>
<!-- vc_enable_phasing -->
<g id="node43" class="node">
<title>vc_enable_phasing</title>
<polygon fill="#94ddf4" stroke="black" points="2091,-1964.76 2091,-2000.76 2240,-2000.76 2240,-1964.76 2091,-1964.76"/>
<text text-anchor="middle" x="2165.5" y="-1979.06" font-family="Times,serif" font-size="14.00">vc_enable_phasing</text>
</g>
<!-- vc_enable_phasing&#45;&gt;run_dragen_germline_step -->
<g id="edge45" class="edge">
<title>vc_enable_phasing&#45;&gt;run_dragen_germline_step</title>
<path fill="none" stroke="black" d="M2190.58,-1964.53C2206.76,-1954.12 2228.62,-1941.35 2249.5,-1933.26 3030.87,-1630.43 4042.89,-1494.45 4370.29,-1456.41"/>
<polygon fill="black" stroke="black" points="4370.71,-1459.88 4380.24,-1455.26 4369.91,-1452.93 4370.71,-1459.88"/>
</g>
<!-- vc_enable_roh -->
<g id="node44" class="node">
<title>vc_enable_roh</title>
<polygon fill="#94ddf4" stroke="black" points="1956,-1964.76 1956,-2000.76 2073,-2000.76 2073,-1964.76 1956,-1964.76"/>
<text text-anchor="middle" x="2014.5" y="-1979.06" font-family="Times,serif" font-size="14.00">vc_enable_roh</text>
</g>
<!-- vc_enable_roh&#45;&gt;run_dragen_germline_step -->
<g id="edge46" class="edge">
<title>vc_enable_roh&#45;&gt;run_dragen_germline_step</title>
<path fill="none" stroke="black" d="M2033.68,-1964.73C2046.62,-1954.13 2064.55,-1941.07 2082.5,-1933.26 2913.6,-1571.66 4024.98,-1473.4 4370.48,-1450.76"/>
<polygon fill="black" stroke="black" points="4370.72,-1454.26 4380.47,-1450.12 4370.27,-1447.27 4370.72,-1454.26"/>
</g>
<!-- vc_enable_vcf_output -->
<g id="node45" class="node">
<title>vc_enable_vcf_output</title>
<polygon fill="#94ddf4" stroke="black" points="1769.5,-1964.76 1769.5,-2000.76 1937.5,-2000.76 1937.5,-1964.76 1769.5,-1964.76"/>
<text text-anchor="middle" x="1853.5" y="-1979.06" font-family="Times,serif" font-size="14.00">vc_enable_vcf_output</text>
</g>
<!-- vc_enable_vcf_output&#45;&gt;run_dragen_germline_step -->
<g id="edge47" class="edge">
<title>vc_enable_vcf_output&#45;&gt;run_dragen_germline_step</title>
<path fill="none" stroke="black" d="M1881.36,-1964.7C1899.58,-1954.22 1924.25,-1941.31 1947.5,-1933.26 2853.66,-1619.29 4016.34,-1488.6 4370.47,-1454.4"/>
<polygon fill="black" stroke="black" points="4370.83,-1457.88 4380.45,-1453.44 4370.17,-1450.91 4370.83,-1457.88"/>
</g>
<!-- vc_hard_filter -->
<g id="node46" class="node">
<title>vc_hard_filter</title>
<polygon fill="#94ddf4" stroke="black" points="1638,-1964.76 1638,-2000.76 1751,-2000.76 1751,-1964.76 1638,-1964.76"/>
<text text-anchor="middle" x="1694.5" y="-1979.06" font-family="Times,serif" font-size="14.00">vc_hard_filter</text>
</g>
<!-- vc_hard_filter&#45;&gt;run_dragen_germline_step -->
<g id="edge48" class="edge">
<title>vc_hard_filter&#45;&gt;run_dragen_germline_step</title>
<path fill="none" stroke="black" d="M1712.98,-1964.57C1725.47,-1953.91 1742.86,-1940.83 1760.5,-1933.26 2712.86,-1524.06 3995.3,-1457.61 4370.35,-1446.83"/>
<polygon fill="black" stroke="black" points="4370.48,-1450.33 4380.38,-1446.55 4370.28,-1443.33 4370.48,-1450.33"/>
</g>
<!-- vc_max_reads_per_active_region -->
<g id="node47" class="node">
<title>vc_max_reads_per_active_region</title>
<polygon fill="#94ddf4" stroke="black" points="1371.5,-1964.76 1371.5,-2000.76 1619.5,-2000.76 1619.5,-1964.76 1371.5,-1964.76"/>
<text text-anchor="middle" x="1495.5" y="-1979.06" font-family="Times,serif" font-size="14.00">vc_max_reads_per_active_region</text>
</g>
<!-- vc_max_reads_per_active_region&#45;&gt;run_dragen_germline_step -->
<g id="edge49" class="edge">
<title>vc_max_reads_per_active_region&#45;&gt;run_dragen_germline_step</title>
<path fill="none" stroke="black" d="M1536.55,-1964.75C1562.76,-1954.43 1597.69,-1941.67 1629.5,-1933.26 2679.63,-1655.51 3990.77,-1498.13 4370.14,-1456.21"/>
<polygon fill="black" stroke="black" points="4370.73,-1459.66 4380.29,-1455.09 4369.96,-1452.71 4370.73,-1459.66"/>
</g>
<!-- vc_max_reads_per_raw_region -->
<g id="node48" class="node">
<title>vc_max_reads_per_raw_region</title>
<polygon fill="#94ddf4" stroke="black" points="1120,-1964.76 1120,-2000.76 1353,-2000.76 1353,-1964.76 1120,-1964.76"/>
<text text-anchor="middle" x="1236.5" y="-1979.06" font-family="Times,serif" font-size="14.00">vc_max_reads_per_raw_region</text>
</g>
<!-- vc_max_reads_per_raw_region&#45;&gt;run_dragen_germline_step -->
<g id="edge50" class="edge">
<title>vc_max_reads_per_raw_region&#45;&gt;run_dragen_germline_step</title>
<path fill="none" stroke="black" d="M1274.4,-1964.74C1299.06,-1954.28 1332.16,-1941.38 1362.5,-1933.26 2517.23,-1624.22 3968.49,-1486.96 4370.21,-1453.29"/>
<polygon fill="black" stroke="black" points="4370.69,-1456.76 4380.36,-1452.44 4370.11,-1449.78 4370.69,-1456.76"/>
</g>
<!-- vc_remove_all_soft_clips -->
<g id="node49" class="node">
<title>vc_remove_all_soft_clips</title>
<polygon fill="#94ddf4" stroke="black" points="911.5,-1964.76 911.5,-2000.76 1101.5,-2000.76 1101.5,-1964.76 911.5,-1964.76"/>
<text text-anchor="middle" x="1006.5" y="-1979.06" font-family="Times,serif" font-size="14.00">vc_remove_all_soft_clips</text>
</g>
<!-- vc_remove_all_soft_clips&#45;&gt;run_dragen_germline_step -->
<g id="edge51" class="edge">
<title>vc_remove_all_soft_clips&#45;&gt;run_dragen_germline_step</title>
<path fill="none" stroke="black" d="M1037.28,-1964.66C1057.73,-1954.03 1085.51,-1940.97 1111.5,-1933.26 2356.73,-1563.81 3947.13,-1468.59 4370.21,-1449.11"/>
<polygon fill="black" stroke="black" points="4370.45,-1452.6 4380.28,-1448.65 4370.13,-1445.61 4370.45,-1452.6"/>
</g>
<!-- vc_roh_blacklist_bed -->
<g id="node50" class="node">
<title>vc_roh_blacklist_bed</title>
<polygon fill="#94ddf4" stroke="black" points="730,-1964.76 730,-2000.76 893,-2000.76 893,-1964.76 730,-1964.76"/>
<text text-anchor="middle" x="811.5" y="-1979.06" font-family="Times,serif" font-size="14.00">vc_roh_blacklist_bed</text>
</g>
<!-- vc_roh_blacklist_bed&#45;&gt;run_dragen_germline_step -->
<g id="edge52" class="edge">
<title>vc_roh_blacklist_bed&#45;&gt;run_dragen_germline_step</title>
<path fill="none" stroke="black" d="M837.47,-1964.71C855.1,-1953.97 879.33,-1940.75 902.5,-1933.26 2220.55,-1507.07 3929.04,-1452.67 4369.97,-1445.76"/>
<polygon fill="black" stroke="black" points="4370.2,-1449.25 4380.15,-1445.6 4370.1,-1442.25 4370.2,-1449.25"/>
</g>
<!-- vc_target_bed -->
<g id="node51" class="node">
<title>vc_target_bed</title>
<polygon fill="#94ddf4" stroke="black" points="595.5,-1964.76 595.5,-2000.76 711.5,-2000.76 711.5,-1964.76 595.5,-1964.76"/>
<text text-anchor="middle" x="653.5" y="-1979.06" font-family="Times,serif" font-size="14.00">vc_target_bed</text>
</g>
<!-- vc_target_bed&#45;&gt;run_dragen_germline_step -->
<g id="edge53" class="edge">
<title>vc_target_bed&#45;&gt;run_dragen_germline_step</title>
<path fill="none" stroke="black" d="M672.22,-1964.53C685.1,-1953.71 703.15,-1940.47 721.5,-1933.26 1415.91,-1660.37 3830.52,-1487.43 4370.03,-1451.67"/>
<polygon fill="black" stroke="black" points="4370.39,-1455.15 4380.14,-1451 4369.93,-1448.17 4370.39,-1455.15"/>
</g>
<!-- vc_target_bed_padding -->
<g id="node52" class="node">
<title>vc_target_bed_padding</title>
<polygon fill="#94ddf4" stroke="black" points="396,-1964.76 396,-2000.76 577,-2000.76 577,-1964.76 396,-1964.76"/>
<text text-anchor="middle" x="486.5" y="-1979.06" font-family="Times,serif" font-size="14.00">vc_target_bed_padding</text>
</g>
<!-- vc_target_bed_padding&#45;&gt;run_dragen_germline_step -->
<g id="edge54" class="edge">
<title>vc_target_bed_padding&#45;&gt;run_dragen_germline_step</title>
<path fill="none" stroke="black" d="M515.23,-1964.69C534.69,-1953.94 561.34,-1940.72 586.5,-1933.26 2039.54,-1502.44 3907.69,-1451.49 4370.33,-1445.53"/>
<polygon fill="black" stroke="black" points="4370.38,-1449.03 4380.34,-1445.41 4370.3,-1442.03 4370.38,-1449.03"/>
</g>
<!-- vc_target_coverage -->
<g id="node53" class="node">
<title>vc_target_coverage</title>
<polygon fill="#94ddf4" stroke="black" points="8634,-1964.76 8634,-2000.76 8789,-2000.76 8789,-1964.76 8634,-1964.76"/>
<text text-anchor="middle" x="8711.5" y="-1979.06" font-family="Times,serif" font-size="14.00">vc_target_coverage</text>
</g>
<!-- vc_target_coverage&#45;&gt;run_dragen_germline_step -->
<g id="edge55" class="edge">
<title>vc_target_coverage&#45;&gt;run_dragen_germline_step</title>
<path fill="none" stroke="black" d="M8686.82,-1964.55C8670.03,-1953.73 8646.88,-1940.5 8624.5,-1933.26 7837.21,-1678.54 5156.34,-1489.65 4585.1,-1451.74"/>
<polygon fill="black" stroke="black" points="4585.03,-1448.22 4574.82,-1451.05 4584.57,-1455.21 4585.03,-1448.22"/>
</g>
</g>
</svg>
