<?xml version="1.0" encoding="UTF-8" standalone="no"?>
<!DOCTYPE svg PUBLIC "-//W3C//DTD SVG 1.1//EN"
 "http://www.w3.org/Graphics/SVG/1.1/DTD/svg11.dtd">
<!-- Generated by graphviz version 2.43.0 (0)
 -->
<!-- Title: G Pages: 1 -->
<svg width="3617pt" height="1051pt"
 viewBox="0.00 0.00 3617.00 1051.00" xmlns="http://www.w3.org/2000/svg" xmlns:xlink="http://www.w3.org/1999/xlink">
<g id="graph0" class="graph" transform="scale(1 1) rotate(0) translate(4 1047)">
<title>G</title>
<polygon fill="#eeeeee" stroke="transparent" points="-4,4 -4,-1047 3613,-1047 3613,4 -4,4"/>
<g id="clust1" class="cluster">
<title>cluster_inputs</title>
<polygon fill="#eeeeee" stroke="black" stroke-dasharray="5,2" points="8,-677.95 8,-1008.23 3601,-1008.23 3601,-677.95 8,-677.95"/>
<text text-anchor="middle" x="3534.5" y="-685.75" font-family="Times,serif" font-size="14.00">Workflow Inputs</text>
</g>
<g id="clust2" class="cluster">
<title>cluster_outputs</title>
<polygon fill="#eeeeee" stroke="black" stroke-dasharray="5,2" points="1605,-34.77 1605,-365.05 1947,-365.05 1947,-34.77 1605,-34.77"/>
<text text-anchor="middle" x="1874.5" y="-42.57" font-family="Times,serif" font-size="14.00">Workflow Outputs</text>
</g>
<!-- arriba_dir -->
<g id="node1" class="node">
<title>arriba_dir</title>
<polygon fill="#94ddf4" stroke="black" points="3505.5,-874.77 3505.5,-910.77 3592.5,-910.77 3592.5,-874.77 3505.5,-874.77"/>
<text text-anchor="middle" x="3549" y="-889.07" font-family="Times,serif" font-size="14.00">arriba_dir</text>
</g>
<!-- run_rnasum_step -->
<g id="node33" class="node">
<title>run_rnasum_step</title>
<ellipse fill="none" stroke="black" cx="1798" cy="-564.77" rx="90.98" ry="18"/>
<text text-anchor="middle" x="1798" y="-561.07" font-family="Times,serif" font-size="14.00">run_rnasum_step</text>
</g>
<!-- arriba_dir&#45;&gt;run_rnasum_step -->
<g id="edge1" class="edge">
<title>arriba_dir&#45;&gt;run_rnasum_step</title>
<path fill="none" stroke="black" d="M3535.04,-874.67C3525.27,-863.89 3511.26,-850.67 3496,-843.27 3206.25,-702.75 2200.07,-602.08 1889.81,-573.82"/>
<polygon fill="black" stroke="black" points="1889.79,-570.3 1879.51,-572.88 1889.15,-577.27 1889.79,-570.3"/>
</g>
<!-- arriba_pdf -->
<g id="node2" class="node">
<title>arriba_pdf</title>
<polygon fill="#94ddf4" stroke="black" points="3397,-874.77 3397,-910.77 3487,-910.77 3487,-874.77 3397,-874.77"/>
<text text-anchor="middle" x="3442" y="-889.07" font-family="Times,serif" font-size="14.00">arriba_pdf</text>
</g>
<!-- arriba_pdf&#45;&gt;run_rnasum_step -->
<g id="edge2" class="edge">
<title>arriba_pdf&#45;&gt;run_rnasum_step</title>
<path fill="none" stroke="black" d="M3427.69,-874.72C3417.69,-863.98 3403.41,-850.76 3388,-843.27 3117.28,-711.73 2181.23,-605.54 1887.14,-574.78"/>
<polygon fill="black" stroke="black" points="1887.27,-571.28 1876.96,-573.72 1886.54,-578.24 1887.27,-571.28"/>
</g>
<!-- arriba_tsv -->
<g id="node3" class="node">
<title>arriba_tsv</title>
<polygon fill="#94ddf4" stroke="black" points="3289.5,-874.77 3289.5,-910.77 3378.5,-910.77 3378.5,-874.77 3289.5,-874.77"/>
<text text-anchor="middle" x="3334" y="-889.07" font-family="Times,serif" font-size="14.00">arriba_tsv</text>
</g>
<!-- arriba_tsv&#45;&gt;run_rnasum_step -->
<g id="edge3" class="edge">
<title>arriba_tsv&#45;&gt;run_rnasum_step</title>
<path fill="none" stroke="black" d="M3319.55,-874.31C3309.77,-863.67 3295.95,-850.73 3281,-843.27 2803.97,-605.11 2147.94,-570.24 1899.16,-565.95"/>
<polygon fill="black" stroke="black" points="1899.11,-562.45 1889.05,-565.79 1899,-569.45 1899.11,-562.45"/>
</g>
<!-- batch_rm -->
<g id="node4" class="node">
<title>batch_rm</title>
<polygon fill="#94ddf4" stroke="black" points="3188.5,-874.77 3188.5,-910.77 3271.5,-910.77 3271.5,-874.77 3188.5,-874.77"/>
<text text-anchor="middle" x="3230" y="-889.07" font-family="Times,serif" font-size="14.00">batch_rm</text>
</g>
<!-- batch_rm&#45;&gt;run_rnasum_step -->
<g id="edge4" class="edge">
<title>batch_rm&#45;&gt;run_rnasum_step</title>
<path fill="none" stroke="black" d="M3216.53,-874.36C3207.37,-863.74 3194.34,-850.81 3180,-843.27 2743.02,-613.45 2136.46,-573.52 1899.01,-566.91"/>
<polygon fill="black" stroke="black" points="1898.76,-563.4 1888.67,-566.64 1898.57,-570.4 1898.76,-563.4"/>
</g>
<!-- cn_gain -->
<g id="node5" class="node">
<title>cn_gain</title>
<polygon fill="#94ddf4" stroke="black" points="3099.5,-874.77 3099.5,-910.77 3170.5,-910.77 3170.5,-874.77 3099.5,-874.77"/>
<text text-anchor="middle" x="3135" y="-889.07" font-family="Times,serif" font-size="14.00">cn_gain</text>
</g>
<!-- cn_gain&#45;&gt;run_rnasum_step -->
<g id="edge5" class="edge">
<title>cn_gain&#45;&gt;run_rnasum_step</title>
<path fill="none" stroke="black" d="M3123.2,-874.41C3115.08,-863.81 3103.38,-850.88 3090,-843.27 2691.07,-616.34 2126.65,-574.62 1899,-567.22"/>
<polygon fill="black" stroke="black" points="1898.85,-563.71 1888.74,-566.9 1898.63,-570.71 1898.85,-563.71"/>
</g>
<!-- cn_loss -->
<g id="node6" class="node">
<title>cn_loss</title>
<polygon fill="#94ddf4" stroke="black" points="3013,-874.77 3013,-910.77 3081,-910.77 3081,-874.77 3013,-874.77"/>
<text text-anchor="middle" x="3047" y="-889.07" font-family="Times,serif" font-size="14.00">cn_loss</text>
</g>
<!-- cn_loss&#45;&gt;run_rnasum_step -->
<g id="edge6" class="edge">
<title>cn_loss&#45;&gt;run_rnasum_step</title>
<path fill="none" stroke="black" d="M3035.84,-874.47C3028.14,-863.89 3016.97,-850.96 3004,-843.27 2637.34,-625.57 2114.32,-578.63 1897.78,-568.53"/>
<polygon fill="black" stroke="black" points="1897.85,-565.03 1887.7,-568.07 1897.53,-572.02 1897.85,-565.03"/>
</g>
<!-- dataset -->
<g id="node7" class="node">
<title>dataset</title>
<polygon fill="#94ddf4" stroke="black" points="2925,-874.77 2925,-910.77 2995,-910.77 2995,-874.77 2925,-874.77"/>
<text text-anchor="middle" x="2960" y="-889.07" font-family="Times,serif" font-size="14.00">dataset</text>
</g>
<!-- dataset&#45;&gt;run_rnasum_step -->
<g id="edge7" class="edge">
<title>dataset&#45;&gt;run_rnasum_step</title>
<path fill="none" stroke="black" d="M2948.46,-874.55C2940.52,-864 2929.08,-851.08 2916,-843.27 2577.73,-641.12 2097.83,-585.75 1894.74,-570.98"/>
<polygon fill="black" stroke="black" points="1894.92,-567.48 1884.69,-570.26 1894.42,-574.46 1894.92,-567.48"/>
</g>
<!-- dataset_name_incl -->
<g id="node8" class="node">
<title>dataset_name_incl</title>
<polygon fill="#94ddf4" stroke="black" points="2759,-874.77 2759,-910.77 2907,-910.77 2907,-874.77 2759,-874.77"/>
<text text-anchor="middle" x="2833" y="-889.07" font-family="Times,serif" font-size="14.00">dataset_name_incl</text>
</g>
<!-- dataset_name_incl&#45;&gt;run_rnasum_step -->
<g id="edge8" class="edge">
<title>dataset_name_incl&#45;&gt;run_rnasum_step</title>
<path fill="none" stroke="black" d="M2807.32,-874.55C2791.35,-864.4 2770.08,-851.91 2750,-843.27 2433.42,-707.09 2029.83,-614.2 1868.89,-580.17"/>
<polygon fill="black" stroke="black" points="1869.6,-576.74 1859.1,-578.11 1868.16,-583.59 1869.6,-576.74"/>
</g>
<!-- dragen_fusions -->
<g id="node9" class="node">
<title>dragen_fusions</title>
<polygon fill="#94ddf4" stroke="black" points="2615.5,-874.77 2615.5,-910.77 2740.5,-910.77 2740.5,-874.77 2615.5,-874.77"/>
<text text-anchor="middle" x="2678" y="-889.07" font-family="Times,serif" font-size="14.00">dragen_fusions</text>
</g>
<!-- dragen_fusions&#45;&gt;run_rnasum_step -->
<g id="edge9" class="edge">
<title>dragen_fusions&#45;&gt;run_rnasum_step</title>
<path fill="none" stroke="black" d="M2656.25,-874.64C2642.66,-864.53 2624.48,-852.03 2607,-843.27 2343.88,-711.3 2003.14,-617.31 1862.78,-581.62"/>
<polygon fill="black" stroke="black" points="1863.58,-578.21 1853.02,-579.15 1861.86,-585 1863.58,-578.21"/>
</g>
<!-- dragen_mapping_metrics -->
<g id="node10" class="node">
<title>dragen_mapping_metrics</title>
<polygon fill="#94ddf4" stroke="black" points="2400.5,-874.77 2400.5,-910.77 2597.5,-910.77 2597.5,-874.77 2400.5,-874.77"/>
<text text-anchor="middle" x="2499" y="-889.07" font-family="Times,serif" font-size="14.00">dragen_mapping_metrics</text>
</g>
<!-- dragen_mapping_metrics&#45;&gt;run_rnasum_step -->
<g id="edge10" class="edge">
<title>dragen_mapping_metrics&#45;&gt;run_rnasum_step</title>
<path fill="none" stroke="black" d="M2462.3,-874.7C2343.3,-819.36 1968.46,-645.04 1840.95,-585.74"/>
<polygon fill="black" stroke="black" points="1842.4,-582.55 1831.85,-581.51 1839.44,-588.9 1842.4,-582.55"/>
</g>
<!-- dragen_wts_dir -->
<g id="node11" class="node">
<title>dragen_wts_dir</title>
<polygon fill="#94ddf4" stroke="black" points="2256,-874.77 2256,-910.77 2382,-910.77 2382,-874.77 2256,-874.77"/>
<text text-anchor="middle" x="2319" y="-889.07" font-family="Times,serif" font-size="14.00">dragen_wts_dir</text>
</g>
<!-- dragen_wts_dir&#45;&gt;run_rnasum_step -->
<g id="edge11" class="edge">
<title>dragen_wts_dir&#45;&gt;run_rnasum_step</title>
<path fill="none" stroke="black" d="M2294.17,-874.69C2280.37,-865.29 2262.83,-853.48 2247,-843.27 2094.96,-745.13 1910.32,-633.28 1833.83,-587.26"/>
<polygon fill="black" stroke="black" points="1835.43,-584.13 1825.05,-581.98 1831.82,-590.13 1835.43,-584.13"/>
</g>
<!-- drugs -->
<g id="node12" class="node">
<title>drugs</title>
<polygon fill="#94ddf4" stroke="black" points="2180,-874.77 2180,-910.77 2238,-910.77 2238,-874.77 2180,-874.77"/>
<text text-anchor="middle" x="2209" y="-889.07" font-family="Times,serif" font-size="14.00">drugs</text>
</g>
<!-- drugs&#45;&gt;run_rnasum_step -->
<g id="edge12" class="edge">
<title>drugs&#45;&gt;run_rnasum_step</title>
<path fill="none" stroke="black" d="M2197.35,-874.69C2190.3,-864.95 2180.8,-852.83 2171,-843.27 2059.02,-734.05 1902.82,-631.16 1833.53,-587.61"/>
<polygon fill="black" stroke="black" points="1835.07,-584.44 1824.73,-582.11 1831.35,-590.38 1835.07,-584.44"/>
</g>
<!-- filter -->
<g id="node13" class="node">
<title>filter</title>
<polygon fill="#94ddf4" stroke="black" points="2108,-874.77 2108,-910.77 2162,-910.77 2162,-874.77 2108,-874.77"/>
<text text-anchor="middle" x="2135" y="-889.07" font-family="Times,serif" font-size="14.00">filter</text>
</g>
<!-- filter&#45;&gt;run_rnasum_step -->
<g id="edge13" class="edge">
<title>filter&#45;&gt;run_rnasum_step</title>
<path fill="none" stroke="black" d="M2123.41,-874.55C2116.69,-865 2107.83,-853.09 2099,-843.27 2007.02,-740.96 1882.05,-634.71 1826.57,-588.98"/>
<polygon fill="black" stroke="black" points="1828.53,-586.06 1818.58,-582.42 1824.09,-591.47 1828.53,-586.06"/>
</g>
<!-- immunogram -->
<g id="node14" class="node">
<title>immunogram</title>
<polygon fill="#94ddf4" stroke="black" points="1978,-874.77 1978,-910.77 2090,-910.77 2090,-874.77 1978,-874.77"/>
<text text-anchor="middle" x="2034" y="-889.07" font-family="Times,serif" font-size="14.00">immunogram</text>
</g>
<!-- immunogram&#45;&gt;run_rnasum_step -->
<g id="edge14" class="edge">
<title>immunogram&#45;&gt;run_rnasum_step</title>
<path fill="none" stroke="black" d="M2021.64,-874.7C1982.69,-820.9 1862.34,-654.64 1816.23,-590.95"/>
<polygon fill="black" stroke="black" points="1818.93,-588.71 1810.23,-582.67 1813.26,-592.82 1818.93,-588.71"/>
</g>
<!-- log -->
<g id="node15" class="node">
<title>log</title>
<polygon fill="#94ddf4" stroke="black" points="1906,-874.77 1906,-910.77 1960,-910.77 1960,-874.77 1906,-874.77"/>
<text text-anchor="middle" x="1933" y="-889.07" font-family="Times,serif" font-size="14.00">log</text>
</g>
<!-- log&#45;&gt;run_rnasum_step -->
<g id="edge15" class="edge">
<title>log&#45;&gt;run_rnasum_step</title>
<path fill="none" stroke="black" d="M1925.93,-874.7C1903.84,-821.35 1835.96,-657.44 1809.11,-592.59"/>
<polygon fill="black" stroke="black" points="1812.22,-590.96 1805.16,-583.06 1805.75,-593.64 1812.22,-590.96"/>
</g>
<!-- manta_tsv -->
<g id="node16" class="node">
<title>manta_tsv</title>
<polygon fill="#94ddf4" stroke="black" points="1798,-874.77 1798,-910.77 1888,-910.77 1888,-874.77 1798,-874.77"/>
<text text-anchor="middle" x="1843" y="-889.07" font-family="Times,serif" font-size="14.00">manta_tsv</text>
</g>
<!-- manta_tsv&#45;&gt;run_rnasum_step -->
<g id="edge16" class="edge">
<title>manta_tsv&#45;&gt;run_rnasum_step</title>
<path fill="none" stroke="black" d="M1840.64,-874.7C1833.29,-821.46 1810.75,-658.12 1801.76,-592.99"/>
<polygon fill="black" stroke="black" points="1805.22,-592.49 1800.39,-583.06 1798.29,-593.44 1805.22,-592.49"/>
</g>
<!-- norm -->
<g id="node17" class="node">
<title>norm</title>
<polygon fill="#94ddf4" stroke="black" points="1726,-874.77 1726,-910.77 1780,-910.77 1780,-874.77 1726,-874.77"/>
<text text-anchor="middle" x="1753" y="-889.07" font-family="Times,serif" font-size="14.00">norm</text>
</g>
<!-- norm&#45;&gt;run_rnasum_step -->
<g id="edge17" class="edge">
<title>norm&#45;&gt;run_rnasum_step</title>
<path fill="none" stroke="black" d="M1755.36,-874.7C1762.71,-821.46 1785.25,-658.12 1794.24,-592.99"/>
<polygon fill="black" stroke="black" points="1797.71,-593.44 1795.61,-583.06 1790.78,-592.49 1797.71,-593.44"/>
</g>
<!-- pcgr_splice_vars -->
<g id="node18" class="node">
<title>pcgr_splice_vars</title>
<polygon fill="#94ddf4" stroke="black" points="1574,-874.77 1574,-910.77 1708,-910.77 1708,-874.77 1574,-874.77"/>
<text text-anchor="middle" x="1641" y="-889.07" font-family="Times,serif" font-size="14.00">pcgr_splice_vars</text>
</g>
<!-- pcgr_splice_vars&#45;&gt;run_rnasum_step -->
<g id="edge18" class="edge">
<title>pcgr_splice_vars&#45;&gt;run_rnasum_step</title>
<path fill="none" stroke="black" d="M1649.22,-874.7C1674.97,-821.24 1754.17,-656.77 1785.28,-592.19"/>
<polygon fill="black" stroke="black" points="1788.49,-593.59 1789.67,-583.06 1782.18,-590.55 1788.49,-593.59"/>
</g>
<!-- pcgr_tier -->
<g id="node19" class="node">
<title>pcgr_tier</title>
<polygon fill="#94ddf4" stroke="black" points="1474.5,-874.77 1474.5,-910.77 1555.5,-910.77 1555.5,-874.77 1474.5,-874.77"/>
<text text-anchor="middle" x="1515" y="-889.07" font-family="Times,serif" font-size="14.00">pcgr_tier</text>
</g>
<!-- pcgr_tier&#45;&gt;run_rnasum_step -->
<g id="edge19" class="edge">
<title>pcgr_tier&#45;&gt;run_rnasum_step</title>
<path fill="none" stroke="black" d="M1529.82,-874.7C1576.62,-820.78 1721.44,-653.96 1776.48,-590.56"/>
<polygon fill="black" stroke="black" points="1779.42,-592.51 1783.33,-582.67 1774.13,-587.92 1779.42,-592.51"/>
</g>
<!-- pcgr_tiers_tsv -->
<g id="node20" class="node">
<title>pcgr_tiers_tsv</title>
<polygon fill="#94ddf4" stroke="black" points="1339.5,-874.77 1339.5,-910.77 1456.5,-910.77 1456.5,-874.77 1339.5,-874.77"/>
<text text-anchor="middle" x="1398" y="-889.07" font-family="Times,serif" font-size="14.00">pcgr_tiers_tsv</text>
</g>
<!-- pcgr_tiers_tsv&#45;&gt;run_rnasum_step -->
<g id="edge20" class="edge">
<title>pcgr_tiers_tsv&#45;&gt;run_rnasum_step</title>
<path fill="none" stroke="black" d="M1418.94,-874.7C1485.63,-820.34 1693.14,-651.23 1769.46,-589.03"/>
<polygon fill="black" stroke="black" points="1771.72,-591.7 1777.26,-582.67 1767.3,-586.27 1771.72,-591.7"/>
</g>
<!-- project -->
<g id="node21" class="node">
<title>project</title>
<polygon fill="#94ddf4" stroke="black" points="1254.5,-874.77 1254.5,-910.77 1321.5,-910.77 1321.5,-874.77 1254.5,-874.77"/>
<text text-anchor="middle" x="1288" y="-889.07" font-family="Times,serif" font-size="14.00">project</text>
</g>
<!-- project&#45;&gt;run_rnasum_step -->
<g id="edge21" class="edge">
<title>project&#45;&gt;run_rnasum_step</title>
<path fill="none" stroke="black" d="M1301.17,-874.4C1309.15,-864.57 1319.9,-852.44 1331,-843.27 1472.35,-726.42 1668.42,-626.97 1754.52,-585.91"/>
<polygon fill="black" stroke="black" points="1756.2,-588.99 1763.73,-581.54 1753.19,-582.66 1756.2,-588.99"/>
</g>
<!-- purple_gene_tsv -->
<g id="node22" class="node">
<title>purple_gene_tsv</title>
<polygon fill="#94ddf4" stroke="black" points="1103.5,-874.77 1103.5,-910.77 1236.5,-910.77 1236.5,-874.77 1103.5,-874.77"/>
<text text-anchor="middle" x="1170" y="-889.07" font-family="Times,serif" font-size="14.00">purple_gene_tsv</text>
</g>
<!-- purple_gene_tsv&#45;&gt;run_rnasum_step -->
<g id="edge22" class="edge">
<title>purple_gene_tsv&#45;&gt;run_rnasum_step</title>
<path fill="none" stroke="black" d="M1195.28,-874.72C1209.88,-865.1 1228.72,-853.09 1246,-843.27 1430.81,-738.21 1660.32,-629.49 1754.54,-585.75"/>
<polygon fill="black" stroke="black" points="1756.16,-588.86 1763.77,-581.48 1753.22,-582.51 1756.16,-588.86"/>
</g>
<!-- report_dir -->
<g id="node23" class="node">
<title>report_dir</title>
<polygon fill="#94ddf4" stroke="black" points="996.5,-874.77 996.5,-910.77 1085.5,-910.77 1085.5,-874.77 996.5,-874.77"/>
<text text-anchor="middle" x="1041" y="-889.07" font-family="Times,serif" font-size="14.00">report_dir</text>
</g>
<!-- report_dir&#45;&gt;run_rnasum_step -->
<g id="edge23" class="edge">
<title>report_dir&#45;&gt;run_rnasum_step</title>
<path fill="none" stroke="black" d="M1057.24,-874.35C1067.36,-864.26 1081.07,-851.88 1095,-843.27 1313.12,-708.37 1607.97,-617.7 1735.24,-582.35"/>
<polygon fill="black" stroke="black" points="1736.5,-585.64 1745.2,-579.6 1734.63,-578.89 1736.5,-585.64"/>
</g>
<!-- salmon -->
<g id="node24" class="node">
<title>salmon</title>
<polygon fill="#94ddf4" stroke="black" points="910,-874.77 910,-910.77 978,-910.77 978,-874.77 910,-874.77"/>
<text text-anchor="middle" x="944" y="-889.07" font-family="Times,serif" font-size="14.00">salmon</text>
</g>
<!-- salmon&#45;&gt;run_rnasum_step -->
<g id="edge24" class="edge">
<title>salmon&#45;&gt;run_rnasum_step</title>
<path fill="none" stroke="black" d="M956.15,-874.46C964.16,-864.15 975.46,-851.52 988,-843.27 1228.8,-684.8 1569.57,-607.18 1720.68,-578.85"/>
<polygon fill="black" stroke="black" points="1721.6,-582.24 1730.79,-576.98 1720.32,-575.36 1721.6,-582.24"/>
</g>
<!-- sample_name -->
<g id="node25" class="node">
<title>sample_name</title>
<polygon fill="#94ddf4" stroke="black" points="778.5,-874.77 778.5,-910.77 891.5,-910.77 891.5,-874.77 778.5,-874.77"/>
<text text-anchor="middle" x="835" y="-889.07" font-family="Times,serif" font-size="14.00">sample_name</text>
</g>
<!-- sample_name&#45;&gt;run_rnasum_step -->
<g id="edge25" class="edge">
<title>sample_name&#45;&gt;run_rnasum_step</title>
<path fill="none" stroke="black" d="M854.66,-874.6C867.22,-864.35 884.24,-851.71 901,-843.27 1188.9,-698.15 1567.36,-611.63 1724.6,-579.78"/>
<polygon fill="black" stroke="black" points="1725.52,-583.16 1734.63,-577.76 1724.14,-576.3 1725.52,-583.16"/>
</g>
<!-- sample_source -->
<g id="node26" class="node">
<title>sample_source</title>
<polygon fill="#94ddf4" stroke="black" points="638,-874.77 638,-910.77 760,-910.77 760,-874.77 638,-874.77"/>
<text text-anchor="middle" x="699" y="-889.07" font-family="Times,serif" font-size="14.00">sample_source</text>
</g>
<!-- sample_source&#45;&gt;run_rnasum_step -->
<g id="edge26" class="edge">
<title>sample_source&#45;&gt;run_rnasum_step</title>
<path fill="none" stroke="black" d="M719.93,-874.69C733.51,-864.34 751.97,-851.57 770,-843.27 1104.38,-689.31 1540.58,-606.96 1717.86,-577.97"/>
<polygon fill="black" stroke="black" points="1718.58,-581.4 1727.89,-576.34 1717.46,-574.49 1718.58,-581.4"/>
</g>
<!-- save_tables -->
<g id="node27" class="node">
<title>save_tables</title>
<polygon fill="#94ddf4" stroke="black" points="520.5,-874.77 520.5,-910.77 619.5,-910.77 619.5,-874.77 520.5,-874.77"/>
<text text-anchor="middle" x="570" y="-889.07" font-family="Times,serif" font-size="14.00">save_tables</text>
</g>
<!-- save_tables&#45;&gt;run_rnasum_step -->
<g id="edge27" class="edge">
<title>save_tables&#45;&gt;run_rnasum_step</title>
<path fill="none" stroke="black" d="M586.58,-874.6C597.66,-864.08 613.08,-851.16 629,-843.27 1000.88,-658.77 1501.05,-593.42 1705.3,-573.47"/>
<polygon fill="black" stroke="black" points="1705.77,-576.94 1715.39,-572.5 1705.1,-569.97 1705.77,-576.94"/>
</g>
<!-- scaling -->
<g id="node28" class="node">
<title>scaling</title>
<polygon fill="#94ddf4" stroke="black" points="435.5,-874.77 435.5,-910.77 502.5,-910.77 502.5,-874.77 435.5,-874.77"/>
<text text-anchor="middle" x="469" y="-889.07" font-family="Times,serif" font-size="14.00">scaling</text>
</g>
<!-- scaling&#45;&gt;run_rnasum_step -->
<g id="edge28" class="edge">
<title>scaling&#45;&gt;run_rnasum_step</title>
<path fill="none" stroke="black" d="M480.12,-874.41C487.81,-863.81 498.98,-850.88 512,-843.27 906.47,-612.68 1469.73,-573.02 1697.1,-566.7"/>
<polygon fill="black" stroke="black" points="1697.44,-570.19 1707.34,-566.43 1697.25,-563.19 1697.44,-570.19"/>
</g>
<!-- subject_id -->
<g id="node29" class="node">
<title>subject_id</title>
<polygon fill="#94ddf4" stroke="black" points="328.5,-874.77 328.5,-910.77 417.5,-910.77 417.5,-874.77 328.5,-874.77"/>
<text text-anchor="middle" x="373" y="-889.07" font-family="Times,serif" font-size="14.00">subject_id</text>
</g>
<!-- subject_id&#45;&gt;run_rnasum_step -->
<g id="edge29" class="edge">
<title>subject_id&#45;&gt;run_rnasum_step</title>
<path fill="none" stroke="black" d="M387.82,-874.39C397.82,-863.78 411.91,-850.85 427,-843.27 864.49,-623.37 1463.31,-577.72 1697.94,-568.24"/>
<polygon fill="black" stroke="black" points="1698.3,-571.73 1708.16,-567.85 1698.03,-564.74 1698.3,-571.73"/>
</g>
<!-- top_genes -->
<g id="node30" class="node">
<title>top_genes</title>
<polygon fill="#94ddf4" stroke="black" points="221.5,-874.77 221.5,-910.77 310.5,-910.77 310.5,-874.77 221.5,-874.77"/>
<text text-anchor="middle" x="266" y="-889.07" font-family="Times,serif" font-size="14.00">top_genes</text>
</g>
<!-- top_genes&#45;&gt;run_rnasum_step -->
<g id="edge30" class="edge">
<title>top_genes&#45;&gt;run_rnasum_step</title>
<path fill="none" stroke="black" d="M280.79,-874.31C290.77,-863.68 304.86,-850.74 320,-843.27 796.22,-608.1 1448.89,-571.45 1696.86,-566.32"/>
<polygon fill="black" stroke="black" points="1697.01,-569.81 1706.94,-566.12 1696.88,-562.82 1697.01,-569.81"/>
</g>
<!-- transform -->
<g id="node31" class="node">
<title>transform</title>
<polygon fill="#94ddf4" stroke="black" points="116,-874.77 116,-910.77 204,-910.77 204,-874.77 116,-874.77"/>
<text text-anchor="middle" x="160" y="-889.07" font-family="Times,serif" font-size="14.00">transform</text>
</g>
<!-- transform&#45;&gt;run_rnasum_step -->
<g id="edge31" class="edge">
<title>transform&#45;&gt;run_rnasum_step</title>
<path fill="none" stroke="black" d="M173.99,-874.72C183.77,-863.97 197.78,-850.75 213,-843.27 482.09,-710.88 1414.7,-605.36 1708.58,-574.77"/>
<polygon fill="black" stroke="black" points="1709.18,-578.22 1718.76,-573.71 1708.46,-571.26 1709.18,-578.22"/>
</g>
<!-- umccrise -->
<g id="node32" class="node">
<title>umccrise</title>
<polygon fill="#94ddf4" stroke="black" points="16.5,-874.77 16.5,-910.77 97.5,-910.77 97.5,-874.77 16.5,-874.77"/>
<text text-anchor="middle" x="57" y="-889.07" font-family="Times,serif" font-size="14.00">umccrise</text>
</g>
<!-- umccrise&#45;&gt;run_rnasum_step -->
<g id="edge32" class="edge">
<title>umccrise&#45;&gt;run_rnasum_step</title>
<path fill="none" stroke="black" d="M69.98,-874.66C79.12,-863.89 92.31,-850.66 107,-843.27 393.31,-699.12 1395.78,-601.02 1705.88,-573.59"/>
<polygon fill="black" stroke="black" points="1706.52,-577.04 1716.17,-572.68 1705.91,-570.07 1706.52,-577.04"/>
</g>
<!-- rnasum_html -->
<g id="node34" class="node">
<title>rnasum_html</title>
<polygon fill="#94ddf4" stroke="black" points="1829,-231.77 1829,-267.77 1939,-267.77 1939,-231.77 1829,-231.77"/>
<text text-anchor="middle" x="1884" y="-246.07" font-family="Times,serif" font-size="14.00">rnasum_html</text>
</g>
<!-- run_rnasum_step&#45;&gt;rnasum_html -->
<g id="edge33" class="edge">
<title>run_rnasum_step&#45;&gt;rnasum_html</title>
<path fill="none" stroke="black" d="M1802.75,-546.49C1816.96,-494.76 1859.26,-340.79 1876.53,-277.94"/>
<polygon fill="black" stroke="black" points="1879.99,-278.56 1879.27,-267.99 1873.24,-276.7 1879.99,-278.56"/>
</g>
<!-- rnasum_output_directory -->
<g id="node35" class="node">
<title>rnasum_output_directory</title>
<polygon fill="#94ddf4" stroke="black" points="1613.5,-231.77 1613.5,-267.77 1810.5,-267.77 1810.5,-231.77 1613.5,-231.77"/>
<text text-anchor="middle" x="1712" y="-246.07" font-family="Times,serif" font-size="14.00">rnasum_output_directory</text>
</g>
<!-- run_rnasum_step&#45;&gt;rnasum_output_directory -->
<g id="edge34" class="edge">
<title>run_rnasum_step&#45;&gt;rnasum_output_directory</title>
<path fill="none" stroke="black" d="M1793.25,-546.49C1779.04,-494.76 1736.74,-340.79 1719.47,-277.94"/>
<polygon fill="black" stroke="black" points="1722.76,-276.7 1716.73,-267.99 1716.01,-278.56 1722.76,-276.7"/>
</g>
</g>
</svg>
