<?xml version="1.0" encoding="UTF-8" standalone="no"?>
<!DOCTYPE svg PUBLIC "-//W3C//DTD SVG 1.1//EN"
 "http://www.w3.org/Graphics/SVG/1.1/DTD/svg11.dtd">
<!-- Generated by graphviz version 2.43.0 (0)
 -->
<!-- Title: G Pages: 1 -->
<svg width="2562pt" height="835pt"
 viewBox="0.00 0.00 2562.00 835.50" xmlns="http://www.w3.org/2000/svg" xmlns:xlink="http://www.w3.org/1999/xlink">
<g id="graph0" class="graph" transform="scale(1 1) rotate(0) translate(4 831.5)">
<title>G</title>
<polygon fill="#eeeeee" stroke="transparent" points="-4,4 -4,-831.5 2558,-831.5 2558,4 -4,4"/>
<g id="clust1" class="cluster">
<title>cluster_inputs</title>
<polygon fill="#eeeeee" stroke="black" stroke-dasharray="5,2" points="8,-606.31 8,-806.68 2490,-806.68 2490,-606.31 8,-606.31"/>
<text text-anchor="middle" x="2423.5" y="-614.11" font-family="Times,serif" font-size="14.00">Workflow Inputs</text>
</g>
<g id="clust2" class="cluster">
<title>cluster_outputs</title>
<polygon fill="#eeeeee" stroke="black" stroke-dasharray="5,2" points="813,-20.82 813,-221.19 1274,-221.19 1274,-20.82 813,-20.82"/>
<text text-anchor="middle" x="1201.5" y="-28.62" font-family="Times,serif" font-size="14.00">Workflow Outputs</text>
</g>
<!-- output_json_filename -->
<g id="node1" class="node">
<title>output_json_filename</title>
<polygon fill="#94ddf4" stroke="black" points="15.5,-718.32 15.5,-755.32 182.5,-755.32 182.5,-718.32 15.5,-718.32"/>
<text text-anchor="middle" x="99" y="-733.12" font-family="Times,serif" font-size="14.00">output_json_filename</text>
</g>
<!-- custom_stats_qc_step -->
<g id="node25" class="node">
<title>custom_stats_qc_step</title>
<polygon fill="lightgoldenrodyellow" stroke="black" points="642,-325.32 642,-362.32 830,-362.32 830,-325.32 642,-325.32"/>
<text text-anchor="middle" x="736" y="-340.12" font-family="Times,serif" font-size="14.00">custom&#45;stats&#45;qc v(1.0.0)</text>
</g>
<!-- output_json_filename&#45;&gt;custom_stats_qc_step -->
<g id="edge4" class="edge">
<title>output_json_filename&#45;&gt;custom_stats_qc_step</title>
<path fill="none" stroke="black" d="M127.61,-718.26C230.71,-654.97 583.27,-438.57 698.92,-367.58"/>
<polygon fill="black" stroke="black" points="700.78,-370.54 707.47,-362.33 697.12,-364.58 700.78,-370.54"/>
</g>
<!-- sample_id -->
<g id="node2" class="node">
<title>sample_id</title>
<polygon fill="#94ddf4" stroke="black" points="200,-718.32 200,-755.32 288,-755.32 288,-718.32 200,-718.32"/>
<text text-anchor="middle" x="244" y="-733.12" font-family="Times,serif" font-size="14.00">sample_id</text>
</g>
<!-- sample_id&#45;&gt;custom_stats_qc_step -->
<g id="edge5" class="edge">
<title>sample_id&#45;&gt;custom_stats_qc_step</title>
<path fill="none" stroke="black" d="M262.29,-718.19C272.35,-708.69 285.16,-696.88 297,-686.82 444.19,-561.82 629.15,-423.53 703.17,-368.9"/>
<polygon fill="black" stroke="black" points="705.67,-371.41 711.64,-362.66 701.52,-365.78 705.67,-371.41"/>
</g>
<!-- cov_threshold -->
<g id="node3" class="node">
<title>cov_threshold</title>
<polygon fill="#94ddf4" stroke="black" points="2154,-718.32 2154,-755.32 2270,-755.32 2270,-718.32 2154,-718.32"/>
<text text-anchor="middle" x="2212" y="-733.12" font-family="Times,serif" font-size="14.00">cov_threshold</text>
</g>
<!-- samtools_stats_step -->
<g id="node24" class="node">
<title>samtools_stats_step</title>
<polygon fill="lightgoldenrodyellow" stroke="black" points="1170,-517.32 1170,-554.32 1358,-554.32 1358,-517.32 1170,-517.32"/>
<text text-anchor="middle" x="1264" y="-532.12" font-family="Times,serif" font-size="14.00">samtools&#45;stats v(1.13.0)</text>
</g>
<!-- cov_threshold&#45;&gt;samtools_stats_step -->
<g id="edge6" class="edge">
<title>cov_threshold&#45;&gt;samtools_stats_step</title>
<path fill="none" stroke="black" d="M2192.97,-718.16C2180.31,-707.41 2162.79,-694.34 2145,-686.82 1880.5,-574.97 1537.92,-546.45 1368.45,-539.22"/>
<polygon fill="black" stroke="black" points="1368.41,-535.72 1358.28,-538.81 1368.13,-542.71 1368.41,-535.72"/>
</g>
<!-- coverage -->
<g id="node4" class="node">
<title>coverage</title>
<polygon fill="#94ddf4" stroke="black" points="2054.5,-718.32 2054.5,-755.32 2135.5,-755.32 2135.5,-718.32 2054.5,-718.32"/>
<text text-anchor="middle" x="2095" y="-733.12" font-family="Times,serif" font-size="14.00">coverage</text>
</g>
<!-- coverage&#45;&gt;samtools_stats_step -->
<g id="edge7" class="edge">
<title>coverage&#45;&gt;samtools_stats_step</title>
<path fill="none" stroke="black" d="M2081.93,-718.18C2073,-707.44 2060.24,-694.37 2046,-686.82 1824.45,-569.37 1524.25,-543.05 1368.09,-537.69"/>
<polygon fill="black" stroke="black" points="1368.12,-534.19 1358.02,-537.36 1367.9,-541.18 1368.12,-534.19"/>
</g>
<!-- filtering_flag -->
<g id="node5" class="node">
<title>filtering_flag</title>
<polygon fill="#94ddf4" stroke="black" points="1929.5,-718.32 1929.5,-755.32 2036.5,-755.32 2036.5,-718.32 1929.5,-718.32"/>
<text text-anchor="middle" x="1983" y="-733.12" font-family="Times,serif" font-size="14.00">filtering_flag</text>
</g>
<!-- filtering_flag&#45;&gt;samtools_stats_step -->
<g id="edge8" class="edge">
<title>filtering_flag&#45;&gt;samtools_stats_step</title>
<path fill="none" stroke="black" d="M1965.21,-718.21C1953.55,-707.62 1937.46,-694.7 1921,-686.82 1738.2,-599.27 1501.94,-561.52 1368.29,-546.26"/>
<polygon fill="black" stroke="black" points="1368.38,-542.75 1358.05,-545.12 1367.6,-549.71 1368.38,-542.75"/>
</g>
<!-- gc_depth -->
<g id="node6" class="node">
<title>gc_depth</title>
<polygon fill="#94ddf4" stroke="black" points="1830.5,-718.32 1830.5,-755.32 1911.5,-755.32 1911.5,-718.32 1830.5,-718.32"/>
<text text-anchor="middle" x="1871" y="-733.12" font-family="Times,serif" font-size="14.00">gc_depth</text>
</g>
<!-- gc_depth&#45;&gt;samtools_stats_step -->
<g id="edge9" class="edge">
<title>gc_depth&#45;&gt;samtools_stats_step</title>
<path fill="none" stroke="black" d="M1856.98,-718.07C1847.79,-707.56 1834.93,-694.78 1821,-686.82 1676.42,-604.19 1484.67,-565.62 1368.02,-548.73"/>
<polygon fill="black" stroke="black" points="1368.41,-545.25 1358.01,-547.31 1367.42,-552.18 1368.41,-545.25"/>
</g>
<!-- input_bam -->
<g id="node7" class="node">
<title>input_bam</title>
<polygon fill="#94ddf4" stroke="black" points="1720,-718.32 1720,-755.32 1812,-755.32 1812,-718.32 1720,-718.32"/>
<text text-anchor="middle" x="1766" y="-733.12" font-family="Times,serif" font-size="14.00">input_bam</text>
</g>
<!-- input_bam&#45;&gt;samtools_stats_step -->
<g id="edge10" class="edge">
<title>input_bam&#45;&gt;samtools_stats_step</title>
<path fill="none" stroke="black" d="M1749.59,-717.96C1739.34,-707.67 1725.38,-695.16 1711,-686.82 1598,-621.25 1452.16,-579.14 1358.34,-556.72"/>
<polygon fill="black" stroke="black" points="1359.12,-553.3 1348.58,-554.41 1357.51,-560.11 1359.12,-553.3"/>
</g>
<!-- insert_size -->
<g id="node8" class="node">
<title>insert_size</title>
<polygon fill="#94ddf4" stroke="black" points="1608.5,-718.32 1608.5,-755.32 1701.5,-755.32 1701.5,-718.32 1608.5,-718.32"/>
<text text-anchor="middle" x="1655" y="-733.12" font-family="Times,serif" font-size="14.00">insert_size</text>
</g>
<!-- insert_size&#45;&gt;samtools_stats_step -->
<g id="edge11" class="edge">
<title>insert_size&#45;&gt;samtools_stats_step</title>
<path fill="none" stroke="black" d="M1637.44,-718.01C1626.92,-707.99 1612.92,-695.74 1599,-686.82 1509.45,-629.43 1394.28,-583.12 1324.95,-557.83"/>
<polygon fill="black" stroke="black" points="1326.08,-554.51 1315.48,-554.4 1323.69,-561.09 1326.08,-554.51"/>
</g>
<!-- most_inserts -->
<g id="node9" class="node">
<title>most_inserts</title>
<polygon fill="#94ddf4" stroke="black" points="1482,-718.32 1482,-755.32 1590,-755.32 1590,-718.32 1482,-718.32"/>
<text text-anchor="middle" x="1536" y="-733.12" font-family="Times,serif" font-size="14.00">most_inserts</text>
</g>
<!-- most_inserts&#45;&gt;samtools_stats_step -->
<g id="edge12" class="edge">
<title>most_inserts&#45;&gt;samtools_stats_step</title>
<path fill="none" stroke="black" d="M1513.71,-718.14C1501.73,-708.73 1486.65,-697.02 1473,-686.82 1411.88,-641.14 1339.25,-589.62 1297.7,-560.4"/>
<polygon fill="black" stroke="black" points="1299.52,-557.4 1289.32,-554.52 1295.49,-563.13 1299.52,-557.4"/>
</g>
<!-- output_filename -->
<g id="node10" class="node">
<title>output_filename</title>
<polygon fill="#94ddf4" stroke="black" points="1332.5,-718.32 1332.5,-755.32 1463.5,-755.32 1463.5,-718.32 1332.5,-718.32"/>
<text text-anchor="middle" x="1398" y="-733.12" font-family="Times,serif" font-size="14.00">output_filename</text>
</g>
<!-- output_filename&#45;&gt;samtools_stats_step -->
<g id="edge13" class="edge">
<title>output_filename&#45;&gt;samtools_stats_step</title>
<path fill="none" stroke="black" d="M1386.11,-718.16C1362.42,-682.98 1309.23,-603.99 1281.53,-562.85"/>
<polygon fill="black" stroke="black" points="1284.35,-560.78 1275.86,-554.44 1278.55,-564.69 1284.35,-560.78"/>
</g>
<!-- read_length -->
<g id="node11" class="node">
<title>read_length</title>
<polygon fill="#94ddf4" stroke="black" points="1213.5,-718.32 1213.5,-755.32 1314.5,-755.32 1314.5,-718.32 1213.5,-718.32"/>
<text text-anchor="middle" x="1264" y="-733.12" font-family="Times,serif" font-size="14.00">read_length</text>
</g>
<!-- read_length&#45;&gt;samtools_stats_step -->
<g id="edge14" class="edge">
<title>read_length&#45;&gt;samtools_stats_step</title>
<path fill="none" stroke="black" d="M1264,-718.16C1264,-683.49 1264,-606.3 1264,-564.69"/>
<polygon fill="black" stroke="black" points="1267.5,-564.44 1264,-554.44 1260.5,-564.44 1267.5,-564.44"/>
</g>
<!-- ref_seq -->
<g id="node12" class="node">
<title>ref_seq</title>
<polygon fill="#94ddf4" stroke="black" points="1127,-718.32 1127,-755.32 1195,-755.32 1195,-718.32 1127,-718.32"/>
<text text-anchor="middle" x="1161" y="-733.12" font-family="Times,serif" font-size="14.00">ref_seq</text>
</g>
<!-- ref_seq&#45;&gt;samtools_stats_step -->
<g id="edge15" class="edge">
<title>ref_seq&#45;&gt;samtools_stats_step</title>
<path fill="none" stroke="black" d="M1170.14,-718.16C1188.27,-683.12 1228.89,-604.65 1250.26,-563.37"/>
<polygon fill="black" stroke="black" points="1253.39,-564.93 1254.88,-554.44 1247.17,-561.71 1253.39,-564.93"/>
</g>
<!-- remove_dups -->
<g id="node13" class="node">
<title>remove_dups</title>
<polygon fill="#94ddf4" stroke="black" points="997.5,-718.32 997.5,-755.32 1108.5,-755.32 1108.5,-718.32 997.5,-718.32"/>
<text text-anchor="middle" x="1053" y="-733.12" font-family="Times,serif" font-size="14.00">remove_dups</text>
</g>
<!-- remove_dups&#45;&gt;samtools_stats_step -->
<g id="edge16" class="edge">
<title>remove_dups&#45;&gt;samtools_stats_step</title>
<path fill="none" stroke="black" d="M1071.72,-718.16C1109.5,-682.53 1194.89,-602 1238.02,-561.32"/>
<polygon fill="black" stroke="black" points="1240.44,-563.85 1245.32,-554.44 1235.64,-558.75 1240.44,-563.85"/>
</g>
<!-- remove_overlaps -->
<g id="node14" class="node">
<title>remove_overlaps</title>
<polygon fill="#94ddf4" stroke="black" points="842.5,-718.32 842.5,-755.32 979.5,-755.32 979.5,-718.32 842.5,-718.32"/>
<text text-anchor="middle" x="911" y="-733.12" font-family="Times,serif" font-size="14.00">remove_overlaps</text>
</g>
<!-- remove_overlaps&#45;&gt;samtools_stats_step -->
<g id="edge17" class="edge">
<title>remove_overlaps&#45;&gt;samtools_stats_step</title>
<path fill="none" stroke="black" d="M938.18,-718.17C953.06,-708.65 971.89,-696.84 989,-686.82 1069.94,-639.38 1166.68,-587.76 1221.17,-559.13"/>
<polygon fill="black" stroke="black" points="1222.96,-562.15 1230.19,-554.4 1219.7,-555.95 1222.96,-562.15"/>
</g>
<!-- required_flag -->
<g id="node15" class="node">
<title>required_flag</title>
<polygon fill="#94ddf4" stroke="black" points="713.5,-718.32 713.5,-755.32 824.5,-755.32 824.5,-718.32 713.5,-718.32"/>
<text text-anchor="middle" x="769" y="-733.12" font-family="Times,serif" font-size="14.00">required_flag</text>
</g>
<!-- required_flag&#45;&gt;samtools_stats_step -->
<g id="edge18" class="edge">
<title>required_flag&#45;&gt;samtools_stats_step</title>
<path fill="none" stroke="black" d="M788.96,-718.18C801.29,-707.98 817.8,-695.48 834,-686.82 948.93,-625.4 1094.11,-580.89 1182.95,-556.97"/>
<polygon fill="black" stroke="black" points="1183.94,-560.33 1192.7,-554.37 1182.14,-553.57 1183.94,-560.33"/>
</g>
<!-- sparse -->
<g id="node16" class="node">
<title>sparse</title>
<polygon fill="#94ddf4" stroke="black" points="631,-718.32 631,-755.32 695,-755.32 695,-718.32 631,-718.32"/>
<text text-anchor="middle" x="663" y="-733.12" font-family="Times,serif" font-size="14.00">sparse</text>
</g>
<!-- sparse&#45;&gt;samtools_stats_step -->
<g id="edge19" class="edge">
<title>sparse&#45;&gt;samtools_stats_step</title>
<path fill="none" stroke="black" d="M674.21,-718.01C681.71,-707.48 692.49,-694.7 705,-686.82 846.99,-597.37 1041.62,-560.79 1159.78,-546.17"/>
<polygon fill="black" stroke="black" points="1160.41,-549.62 1169.92,-544.94 1159.57,-542.67 1160.41,-549.62"/>
</g>
<!-- split -->
<g id="node17" class="node">
<title>split</title>
<polygon fill="#94ddf4" stroke="black" points="559,-718.32 559,-755.32 613,-755.32 613,-718.32 559,-718.32"/>
<text text-anchor="middle" x="586" y="-733.12" font-family="Times,serif" font-size="14.00">split</text>
</g>
<!-- split&#45;&gt;samtools_stats_step -->
<g id="edge20" class="edge">
<title>split&#45;&gt;samtools_stats_step</title>
<path fill="none" stroke="black" d="M594.97,-717.87C601.16,-707.28 610.37,-694.49 622,-686.82 788.19,-577.14 1024.99,-547.25 1159.68,-539.37"/>
<polygon fill="black" stroke="black" points="1160.2,-542.84 1169.99,-538.79 1159.82,-535.85 1160.2,-542.84"/>
</g>
<!-- split_prefix -->
<g id="node18" class="node">
<title>split_prefix</title>
<polygon fill="#94ddf4" stroke="black" points="445,-718.32 445,-755.32 541,-755.32 541,-718.32 445,-718.32"/>
<text text-anchor="middle" x="493" y="-733.12" font-family="Times,serif" font-size="14.00">split_prefix</text>
</g>
<!-- split_prefix&#45;&gt;samtools_stats_step -->
<g id="edge21" class="edge">
<title>split_prefix&#45;&gt;samtools_stats_step</title>
<path fill="none" stroke="black" d="M508.81,-718.31C519.44,-707.62 534.32,-694.56 550,-686.82 751.17,-587.5 1015.77,-553.81 1159.72,-542.48"/>
<polygon fill="black" stroke="black" points="1160.17,-545.95 1169.87,-541.7 1159.63,-538.97 1160.17,-545.95"/>
</g>
<!-- target_regions -->
<g id="node19" class="node">
<title>target_regions</title>
<polygon fill="#94ddf4" stroke="black" points="305.5,-718.32 305.5,-755.32 426.5,-755.32 426.5,-718.32 305.5,-718.32"/>
<text text-anchor="middle" x="366" y="-733.12" font-family="Times,serif" font-size="14.00">target_regions</text>
</g>
<!-- target_regions&#45;&gt;samtools_stats_step -->
<g id="edge22" class="edge">
<title>target_regions&#45;&gt;samtools_stats_step</title>
<path fill="none" stroke="black" d="M386.04,-718.25C399.33,-707.53 417.65,-694.47 436,-686.82 682.24,-584.16 998.51,-551.64 1159.59,-541.42"/>
<polygon fill="black" stroke="black" points="1160.21,-544.89 1169.98,-540.78 1159.78,-537.9 1160.21,-544.89"/>
</g>
<!-- threads -->
<g id="node20" class="node">
<title>threads</title>
<polygon fill="#94ddf4" stroke="black" points="2410.5,-718.32 2410.5,-755.32 2481.5,-755.32 2481.5,-718.32 2410.5,-718.32"/>
<text text-anchor="middle" x="2446" y="-733.12" font-family="Times,serif" font-size="14.00">threads</text>
</g>
<!-- threads&#45;&gt;samtools_stats_step -->
<g id="edge23" class="edge">
<title>threads&#45;&gt;samtools_stats_step</title>
<path fill="none" stroke="black" d="M2434.44,-717.9C2426.42,-707.05 2414.73,-693.96 2401,-686.82 2221.98,-593.72 1613.67,-554.01 1368.09,-541.51"/>
<polygon fill="black" stroke="black" points="1368.25,-538.01 1358.09,-541.01 1367.9,-545.01 1368.25,-538.01"/>
</g>
<!-- trim_quality -->
<g id="node21" class="node">
<title>trim_quality</title>
<polygon fill="#94ddf4" stroke="black" points="2288,-718.32 2288,-755.32 2392,-755.32 2392,-718.32 2288,-718.32"/>
<text text-anchor="middle" x="2340" y="-733.12" font-family="Times,serif" font-size="14.00">trim_quality</text>
</g>
<!-- trim_quality&#45;&gt;samtools_stats_step -->
<g id="edge24" class="edge">
<title>trim_quality&#45;&gt;samtools_stats_step</title>
<path fill="none" stroke="black" d="M2323.26,-718.24C2311.85,-707.38 2295.81,-694.16 2279,-686.82 2116.52,-615.86 1593,-564.56 1368.17,-545.25"/>
<polygon fill="black" stroke="black" points="1368.28,-541.74 1358.02,-544.38 1367.68,-548.72 1368.28,-541.74"/>
</g>
<!-- custom_stats_qc_output_json -->
<g id="node22" class="node">
<title>custom_stats_qc_output_json</title>
<polygon fill="#94ddf4" stroke="black" points="821,-132.32 821,-169.32 1045,-169.32 1045,-132.32 821,-132.32"/>
<text text-anchor="middle" x="933" y="-147.12" font-family="Times,serif" font-size="14.00">custom_stats_qc_output_json</text>
</g>
<!-- samtools_stats_output_txt -->
<g id="node23" class="node">
<title>samtools_stats_output_txt</title>
<polygon fill="#94ddf4" stroke="black" points="1063.5,-132.32 1063.5,-169.32 1266.5,-169.32 1266.5,-132.32 1063.5,-132.32"/>
<text text-anchor="middle" x="1165" y="-147.12" font-family="Times,serif" font-size="14.00">samtools_stats_output_txt</text>
</g>
<!-- samtools_stats_step&#45;&gt;samtools_stats_output_txt -->
<g id="edge2" class="edge">
<title>samtools_stats_step&#45;&gt;samtools_stats_output_txt</title>
<path fill="none" stroke="black" d="M1259.42,-517.11C1243.62,-455.98 1191.27,-253.44 1172.11,-179.31"/>
<polygon fill="black" stroke="black" points="1175.42,-178.14 1169.53,-169.33 1168.64,-179.89 1175.42,-178.14"/>
</g>
<!-- samtools_stats_step&#45;&gt;custom_stats_qc_step -->
<g id="edge1" class="edge">
<title>samtools_stats_step&#45;&gt;custom_stats_qc_step</title>
<path fill="none" stroke="black" d="M1215.27,-517.28C1117.86,-482.23 899.43,-403.63 794.48,-365.86"/>
<polygon fill="black" stroke="black" points="795.59,-362.54 784.99,-362.45 793.22,-369.13 795.59,-362.54"/>
</g>
<!-- custom_stats_qc_step&#45;&gt;custom_stats_qc_output_json -->
<g id="edge3" class="edge">
<title>custom_stats_qc_step&#45;&gt;custom_stats_qc_output_json</title>
<path fill="none" stroke="black" d="M754.18,-325.19C789.36,-291.08 866.85,-215.95 907.29,-176.74"/>
<polygon fill="black" stroke="black" points="910.12,-178.88 914.86,-169.4 905.25,-173.85 910.12,-178.88"/>
</g>
<!-- \n -->
<g id="node26" class="node">
<title>\n</title>
<ellipse fill="none" stroke="black" cx="2527" cy="-736.82" rx="27" ry="18"/>
</g>
</g>
</svg>
