<?xml version="1.0" encoding="UTF-8" standalone="no"?>
<!DOCTYPE svg PUBLIC "-//W3C//DTD SVG 1.1//EN"
 "http://www.w3.org/Graphics/SVG/1.1/DTD/svg11.dtd">
<!-- Generated by graphviz version 2.43.0 (0)
 -->
<!-- Title: G Pages: 1 -->
<svg width="712pt" height="648pt"
 viewBox="0.00 0.00 711.50 647.73" xmlns="http://www.w3.org/2000/svg" xmlns:xlink="http://www.w3.org/1999/xlink">
<g id="graph0" class="graph" transform="scale(1 1) rotate(0) translate(4 643.73)">
<title>G</title>
<polygon fill="#eeeeee" stroke="transparent" points="-4,4 -4,-643.73 707.5,-643.73 707.5,4 -4,4"/>
<g id="clust1" class="cluster">
<title>cluster_inputs</title>
<polygon fill="#eeeeee" stroke="black" stroke-dasharray="5,2" points="8,-501.01 8,-626.67 404,-626.67 404,-501.01 8,-501.01"/>
<text text-anchor="middle" x="337.5" y="-508.81" font-family="Times,serif" font-size="14.00">Workflow Inputs</text>
</g>
<g id="clust2" class="cluster">
<title>cluster_outputs</title>
<polygon fill="#eeeeee" stroke="black" stroke-dasharray="5,2" points="177,-13.06 177,-138.72 322,-138.72 322,-13.06 177,-13.06"/>
<text text-anchor="middle" x="249.5" y="-20.86" font-family="Times,serif" font-size="14.00">Workflow Outputs</text>
</g>
<!-- regions_bed_file -->
<g id="node1" class="node">
<title>regions_bed_file</title>
<polygon fill="#94ddf4" stroke="black" points="16.5,-564.56 16.5,-601.56 147.5,-601.56 147.5,-564.56 16.5,-564.56"/>
<text text-anchor="middle" x="82" y="-579.36" font-family="Times,serif" font-size="14.00">regions_bed_file</text>
</g>
<!-- bedops_merge_step -->
<g id="node6" class="node">
<title>bedops_merge_step</title>
<polygon fill="lightgoldenrodyellow" stroke="black" points="181,-196.56 181,-233.56 317,-233.56 317,-196.56 181,-196.56"/>
<text text-anchor="middle" x="249" y="-211.36" font-family="Times,serif" font-size="14.00">bedops v(2.4.39)</text>
</g>
<!-- regions_bed_file&#45;&gt;bedops_merge_step -->
<g id="edge5" class="edge">
<title>regions_bed_file&#45;&gt;bedops_merge_step</title>
<path fill="none" stroke="black" d="M72.32,-564.33C49.12,-519.23 -4.12,-397.97 46,-317.06 73.23,-273.1 125.96,-247.66 170.86,-233.31"/>
<polygon fill="black" stroke="black" points="172.07,-236.6 180.6,-230.32 170.02,-229.9 172.07,-236.6"/>
</g>
<!-- create_regions_bed_for_chr_6_hla_region_step -->
<g id="node7" class="node">
<title>create_regions_bed_for_chr_6_hla_region_step</title>
<polygon fill="lightgoldenrodyellow" stroke="black" points="55.5,-317.56 55.5,-354.56 442.5,-354.56 442.5,-317.56 55.5,-317.56"/>
<text text-anchor="middle" x="249" y="-332.36" font-family="Times,serif" font-size="14.00">custom&#45;create&#45;regions&#45;bed&#45;from&#45;contigs&#45;list v(1.0.0)</text>
</g>
<!-- regions_bed_file&#45;&gt;create_regions_bed_for_chr_6_hla_region_step -->
<g id="edge6" class="edge">
<title>regions_bed_file&#45;&gt;create_regions_bed_for_chr_6_hla_region_step</title>
<path fill="none" stroke="black" d="M76.16,-564.25C67.88,-535.56 56.12,-478.26 79,-438.06 100.99,-399.41 144.25,-374.02 181.62,-358.36"/>
<polygon fill="black" stroke="black" points="183.01,-361.57 190.98,-354.58 180.4,-355.08 183.01,-361.57"/>
</g>
<!-- genome_version -->
<g id="node2" class="node">
<title>genome_version</title>
<polygon fill="#94ddf4" stroke="black" points="166,-564.56 166,-601.56 298,-601.56 298,-564.56 166,-564.56"/>
<text text-anchor="middle" x="232" y="-579.36" font-family="Times,serif" font-size="14.00">genome_version</text>
</g>
<!-- create_contig_obj_for_chr6_step -->
<g id="node8" class="node">
<title>create_contig_obj_for_chr6_step</title>
<polygon fill="lightgoldenrodyellow" stroke="black" points="88,-438.56 88,-475.56 422,-475.56 422,-438.56 88,-438.56"/>
<text text-anchor="middle" x="255" y="-453.36" font-family="Times,serif" font-size="14.00">create&#45;contig&#45;obj&#45;for&#45;hla&#45;chr6&#45;region v(1.0.0)</text>
</g>
<!-- genome_version&#45;&gt;create_contig_obj_for_chr6_step -->
<g id="edge7" class="edge">
<title>genome_version&#45;&gt;create_contig_obj_for_chr6_step</title>
<path fill="none" stroke="black" d="M235.25,-564.55C239.04,-544.08 245.38,-509.94 249.85,-485.83"/>
<polygon fill="black" stroke="black" points="253.31,-486.34 251.7,-475.87 246.43,-485.07 253.31,-486.34"/>
</g>
<!-- faidx_file -->
<g id="node3" class="node">
<title>faidx_file</title>
<polygon fill="#94ddf4" stroke="black" points="316,-564.56 316,-601.56 396,-601.56 396,-564.56 316,-564.56"/>
<text text-anchor="middle" x="356" y="-579.36" font-family="Times,serif" font-size="14.00">faidx_file</text>
</g>
<!-- create_regions_bed_for_hla_contigs_step -->
<g id="node5" class="node">
<title>create_regions_bed_for_hla_contigs_step</title>
<polygon fill="lightgoldenrodyellow" stroke="black" points="440.5,-438.56 440.5,-475.56 703.5,-475.56 703.5,-438.56 440.5,-438.56"/>
<text text-anchor="middle" x="572" y="-453.36" font-family="Times,serif" font-size="14.00">custom&#45;hla&#45;bed&#45;from&#45;faidx v(1.0.0)</text>
</g>
<!-- faidx_file&#45;&gt;create_regions_bed_for_hla_contigs_step -->
<g id="edge8" class="edge">
<title>faidx_file&#45;&gt;create_regions_bed_for_hla_contigs_step</title>
<path fill="none" stroke="black" d="M370.99,-564.11C380.07,-554.05 392.32,-541.8 405,-533.06 437.62,-510.56 478.09,-492.18 511.01,-479.25"/>
<polygon fill="black" stroke="black" points="512.46,-482.45 520.53,-475.58 509.94,-475.91 512.46,-482.45"/>
</g>
<!-- regions_bed -->
<g id="node4" class="node">
<title>regions_bed</title>
<polygon fill="#94ddf4" stroke="black" points="197.5,-76.56 197.5,-113.56 300.5,-113.56 300.5,-76.56 197.5,-76.56"/>
<text text-anchor="middle" x="249" y="-91.36" font-family="Times,serif" font-size="14.00">regions_bed</text>
</g>
<!-- create_regions_bed_for_hla_contigs_step&#45;&gt;bedops_merge_step -->
<g id="edge1" class="edge">
<title>create_regions_bed_for_hla_contigs_step&#45;&gt;bedops_merge_step</title>
<path fill="none" stroke="black" d="M560.18,-438.26C540.51,-409.71 498.59,-353.22 452,-317.06 407.48,-282.49 349.27,-255 306.6,-237.48"/>
<polygon fill="black" stroke="black" points="307.78,-234.18 297.19,-233.68 305.15,-240.67 307.78,-234.18"/>
</g>
<!-- bedops_merge_step&#45;&gt;regions_bed -->
<g id="edge2" class="edge">
<title>bedops_merge_step&#45;&gt;regions_bed</title>
<path fill="none" stroke="black" d="M249,-196.39C249,-177.27 249,-146.52 249,-124.09"/>
<polygon fill="black" stroke="black" points="252.5,-123.84 249,-113.84 245.5,-123.84 252.5,-123.84"/>
</g>
<!-- create_regions_bed_for_chr_6_hla_region_step&#45;&gt;bedops_merge_step -->
<g id="edge3" class="edge">
<title>create_regions_bed_for_chr_6_hla_region_step&#45;&gt;bedops_merge_step</title>
<path fill="none" stroke="black" d="M249,-317.5C249,-298.07 249,-266.52 249,-243.76"/>
<polygon fill="black" stroke="black" points="252.5,-243.69 249,-233.69 245.5,-243.69 252.5,-243.69"/>
</g>
<!-- create_contig_obj_for_chr6_step&#45;&gt;create_regions_bed_for_chr_6_hla_region_step -->
<g id="edge4" class="edge">
<title>create_contig_obj_for_chr6_step&#45;&gt;create_regions_bed_for_chr_6_hla_region_step</title>
<path fill="none" stroke="black" d="M254.11,-438.5C253.14,-419.07 251.54,-387.52 250.4,-364.76"/>
<polygon fill="black" stroke="black" points="253.89,-364.5 249.89,-354.69 246.9,-364.85 253.89,-364.5"/>
</g>
<!-- \n -->
<g id="node9" class="node">
<title>\n</title>
<ellipse fill="none" stroke="black" cx="441" cy="-583.06" rx="27" ry="18"/>
</g>
</g>
</svg>
