<?xml version="1.0" encoding="UTF-8" standalone="no"?>
<!DOCTYPE svg PUBLIC "-//W3C//DTD SVG 1.1//EN"
 "http://www.w3.org/Graphics/SVG/1.1/DTD/svg11.dtd">
<!-- Generated by graphviz version 2.43.0 (0)
 -->
<!-- Title: G Pages: 1 -->
<svg width="715pt" height="651pt"
 viewBox="0.00 0.00 715.00 651.37" xmlns="http://www.w3.org/2000/svg" xmlns:xlink="http://www.w3.org/1999/xlink">
<g id="graph0" class="graph" transform="scale(1 1) rotate(0) translate(4 647.37)">
<title>G</title>
<polygon fill="#eeeeee" stroke="transparent" points="-4,4 -4,-647.37 711,-647.37 711,4 -4,4"/>
<g id="clust1" class="cluster">
<title>cluster_inputs</title>
<polygon fill="#eeeeee" stroke="black" stroke-dasharray="5,2" points="172.5,-503.86 172.5,-630.24 568.5,-630.24 568.5,-503.86 172.5,-503.86"/>
<text text-anchor="middle" x="502" y="-511.66" font-family="Times,serif" font-size="14.00">Workflow Inputs</text>
</g>
<g id="clust2" class="cluster">
<title>cluster_outputs</title>
<polygon fill="#eeeeee" stroke="black" stroke-dasharray="5,2" points="343.5,-13.13 343.5,-139.51 488.5,-139.51 488.5,-13.13 343.5,-13.13"/>
<text text-anchor="middle" x="416" y="-20.93" font-family="Times,serif" font-size="14.00">Workflow Outputs</text>
</g>
<!-- regions_bed_file -->
<g id="node1" class="node">
<title>regions_bed_file</title>
<polygon fill="#94ddf4" stroke="black" points="331,-567.63 331,-604.63 462,-604.63 462,-567.63 331,-567.63"/>
<text text-anchor="middle" x="396.5" y="-582.43" font-family="Times,serif" font-size="14.00">regions_bed_file</text>
</g>
<!-- create_regions_bed_for_chr_6_hla_region_step -->
<g id="node5" class="node">
<title>create_regions_bed_for_chr_6_hla_region_step</title>
<polygon fill="lightgoldenrodyellow" stroke="black" points="0,-319.63 0,-356.63 387,-356.63 387,-319.63 0,-319.63"/>
<text text-anchor="middle" x="193.5" y="-334.43" font-family="Times,serif" font-size="14.00">custom&#45;create&#45;regions&#45;bed&#45;from&#45;contigs&#45;list v(1.0.0)</text>
</g>
<!-- regions_bed_file&#45;&gt;create_regions_bed_for_chr_6_hla_region_step -->
<g id="edge5" class="edge">
<title>regions_bed_file&#45;&gt;create_regions_bed_for_chr_6_hla_region_step</title>
<path fill="none" stroke="black" d="M396,-567.25C394.35,-537.92 387.36,-478.99 358.5,-440.13 331.38,-403.62 286.79,-377.48 250.8,-360.95"/>
<polygon fill="black" stroke="black" points="251.93,-357.62 241.37,-356.75 249.08,-364.02 251.93,-357.62"/>
</g>
<!-- bedops_merge_step -->
<g id="node6" class="node">
<title>bedops_merge_step</title>
<polygon fill="lightgoldenrodyellow" stroke="black" points="347.5,-198.63 347.5,-235.63 483.5,-235.63 483.5,-198.63 347.5,-198.63"/>
<text text-anchor="middle" x="415.5" y="-213.43" font-family="Times,serif" font-size="14.00">bedops v(2.4.39)</text>
</g>
<!-- regions_bed_file&#45;&gt;bedops_merge_step -->
<g id="edge6" class="edge">
<title>regions_bed_file&#45;&gt;bedops_merge_step</title>
<path fill="none" stroke="black" d="M397.42,-567.43C400.48,-508.32 410.36,-317.46 414.07,-245.73"/>
<polygon fill="black" stroke="black" points="417.57,-245.82 414.59,-235.65 410.58,-245.46 417.57,-245.82"/>
</g>
<!-- genome_version -->
<g id="node2" class="node">
<title>genome_version</title>
<polygon fill="#94ddf4" stroke="black" points="180.5,-567.63 180.5,-604.63 312.5,-604.63 312.5,-567.63 180.5,-567.63"/>
<text text-anchor="middle" x="246.5" y="-582.43" font-family="Times,serif" font-size="14.00">genome_version</text>
</g>
<!-- create_contig_obj_for_chr6_step -->
<g id="node8" class="node">
<title>create_contig_obj_for_chr6_step</title>
<polygon fill="lightgoldenrodyellow" stroke="black" points="15.5,-440.63 15.5,-477.63 349.5,-477.63 349.5,-440.63 15.5,-440.63"/>
<text text-anchor="middle" x="182.5" y="-455.43" font-family="Times,serif" font-size="14.00">create&#45;contig&#45;obj&#45;for&#45;hla&#45;chr6&#45;region v(1.0.0)</text>
</g>
<!-- genome_version&#45;&gt;create_contig_obj_for_chr6_step -->
<g id="edge7" class="edge">
<title>genome_version&#45;&gt;create_contig_obj_for_chr6_step</title>
<path fill="none" stroke="black" d="M237.47,-567.49C226.7,-546.45 208.6,-511.1 196.13,-486.74"/>
<polygon fill="black" stroke="black" points="199.16,-484.99 191.49,-477.68 192.93,-488.18 199.16,-484.99"/>
</g>
<!-- faidx_file -->
<g id="node3" class="node">
<title>faidx_file</title>
<polygon fill="#94ddf4" stroke="black" points="480.5,-567.63 480.5,-604.63 560.5,-604.63 560.5,-567.63 480.5,-567.63"/>
<text text-anchor="middle" x="520.5" y="-582.43" font-family="Times,serif" font-size="14.00">faidx_file</text>
</g>
<!-- create_regions_bed_for_hla_contigs_step -->
<g id="node7" class="node">
<title>create_regions_bed_for_hla_contigs_step</title>
<polygon fill="lightgoldenrodyellow" stroke="black" points="444,-440.63 444,-477.63 707,-477.63 707,-440.63 444,-440.63"/>
<text text-anchor="middle" x="575.5" y="-455.43" font-family="Times,serif" font-size="14.00">custom&#45;hla&#45;bed&#45;from&#45;faidx v(1.0.0)</text>
</g>
<!-- faidx_file&#45;&gt;create_regions_bed_for_hla_contigs_step -->
<g id="edge8" class="edge">
<title>faidx_file&#45;&gt;create_regions_bed_for_hla_contigs_step</title>
<path fill="none" stroke="black" d="M528.26,-567.49C537.48,-546.55 552.94,-511.41 563.65,-487.07"/>
<polygon fill="black" stroke="black" points="566.95,-488.25 567.78,-477.68 560.54,-485.43 566.95,-488.25"/>
</g>
<!-- regions_bed -->
<g id="node4" class="node">
<title>regions_bed</title>
<polygon fill="#94ddf4" stroke="black" points="364,-76.63 364,-113.63 467,-113.63 467,-76.63 364,-76.63"/>
<text text-anchor="middle" x="415.5" y="-91.43" font-family="Times,serif" font-size="14.00">regions_bed</text>
</g>
<!-- create_regions_bed_for_chr_6_hla_region_step&#45;&gt;bedops_merge_step -->
<g id="edge1" class="edge">
<title>create_regions_bed_for_chr_6_hla_region_step&#45;&gt;bedops_merge_step</title>
<path fill="none" stroke="black" d="M226.26,-319.57C265.36,-298.61 330.82,-263.52 373.58,-240.6"/>
<polygon fill="black" stroke="black" points="375.45,-243.57 382.61,-235.76 372.14,-237.4 375.45,-243.57"/>
</g>
<!-- bedops_merge_step&#45;&gt;regions_bed -->
<g id="edge2" class="edge">
<title>bedops_merge_step&#45;&gt;regions_bed</title>
<path fill="none" stroke="black" d="M415.5,-198.42C415.5,-178.84 415.5,-147.02 415.5,-124.06"/>
<polygon fill="black" stroke="black" points="419,-123.91 415.5,-113.91 412,-123.91 419,-123.91"/>
</g>
<!-- create_regions_bed_for_hla_contigs_step&#45;&gt;bedops_merge_step -->
<g id="edge3" class="edge">
<title>create_regions_bed_for_hla_contigs_step&#45;&gt;bedops_merge_step</title>
<path fill="none" stroke="black" d="M563.73,-440.48C535.88,-398.7 465.78,-293.55 432.96,-244.32"/>
<polygon fill="black" stroke="black" points="435.74,-242.18 427.28,-235.8 429.92,-246.07 435.74,-242.18"/>
</g>
<!-- create_contig_obj_for_chr6_step&#45;&gt;create_regions_bed_for_chr_6_hla_region_step -->
<g id="edge4" class="edge">
<title>create_contig_obj_for_chr6_step&#45;&gt;create_regions_bed_for_chr_6_hla_region_step</title>
<path fill="none" stroke="black" d="M184.12,-440.57C185.92,-421.15 188.84,-389.59 190.94,-366.83"/>
<polygon fill="black" stroke="black" points="194.43,-367.04 191.87,-356.76 187.46,-366.4 194.43,-367.04"/>
</g>
<!-- \n -->
<g id="node9" class="node">
<title>\n</title>
<ellipse fill="none" stroke="black" cx="605.5" cy="-586.13" rx="27" ry="18"/>
</g>
</g>
</svg>
