<?xml version="1.0" encoding="UTF-8" standalone="no"?>
<!DOCTYPE svg PUBLIC "-//W3C//DTD SVG 1.1//EN"
 "http://www.w3.org/Graphics/SVG/1.1/DTD/svg11.dtd">
<!-- Generated by graphviz version 2.40.1 (20161225.0304)
 -->
<!-- Title: G Pages: 1 -->
<svg width="715pt" height="650pt"
 viewBox="0.00 0.00 714.50 650.46" xmlns="http://www.w3.org/2000/svg" xmlns:xlink="http://www.w3.org/1999/xlink">
<g id="graph0" class="graph" transform="scale(1 1) rotate(0) translate(4 646.46)">
<title>G</title>
<polygon fill="#eeeeee" stroke="transparent" points="-4,4 -4,-646.46 710.5,-646.46 710.5,4 -4,4"/>
<g id="clust1" class="cluster">
<title>cluster_inputs</title>
<polygon fill="#eeeeee" stroke="#000000" stroke-dasharray="5,2" points="296.5,-503.1511 296.5,-629.3486 698.5,-629.3486 698.5,-503.1511 296.5,-503.1511"/>
<text text-anchor="middle" x="630.5" y="-510.9511" font-family="Times,serif" font-size="14.00" fill="#000000">Workflow Inputs</text>
</g>
<g id="clust2" class="cluster">
<title>cluster_outputs</title>
<polygon fill="#eeeeee" stroke="#000000" stroke-dasharray="5,2" points="381.5,-13.1114 381.5,-139.3089 529.5,-139.3089 529.5,-13.1114 381.5,-13.1114"/>
<text text-anchor="middle" x="455.5" y="-20.9114" font-family="Times,serif" font-size="14.00" fill="#000000">Workflow Outputs</text>
</g>
<!-- file:///tmp/tmpyu2zn_9d#genome_version -->
<g id="node1" class="node">
<title>file:///tmp/tmpyu2zn_9d#genome_version</title>
<g id="a_node1"><a xlink:title="The name of the genome determines the chr6 contig we create&#10;">
<polygon fill="#94ddf4" stroke="#000000" points="405,-566.6114 405,-603.6114 538,-603.6114 538,-566.6114 405,-566.6114"/>
<text text-anchor="middle" x="471.5" y="-581.4114" font-family="Times,serif" font-size="14.00" fill="#000000">genome_version</text>
</a>
</g>
</g>
<!-- file:///tmp/tmpyu2zn_9d#create_contig_obj_for_chr6_step -->
<g id="node5" class="node">
<title>file:///tmp/tmpyu2zn_9d#create_contig_obj_for_chr6_step</title>
<g id="a_node5"><a xlink:href="https://github.com/umccr/cwl-ica/blob/beta-release/.github/catalogue/docs/expressions/create-contig-obj-for-hla-chr6-region/1.0.0/create-contig-obj-for-hla-chr6-region__1.0.0.md" xlink:title="Creates a contig object for the hla region&#10;in chr6 based on the reference type.&#10;">
<polygon fill="#ee9a00" stroke="#000000" points="281.5,-440.6114 281.5,-477.6114 617.5,-477.6114 617.5,-440.6114 281.5,-440.6114"/>
<text text-anchor="middle" x="449.5" y="-455.4114" font-family="Times,serif" font-size="14.00" fill="#000000">create&#45;contig&#45;obj&#45;for&#45;hla&#45;chr6&#45;region v(1.0.0)</text>
</a>
</g>
</g>
<!-- file:///tmp/tmpyu2zn_9d#genome_version&#45;&gt;file:///tmp/tmpyu2zn_9d#create_contig_obj_for_chr6_step -->
<g id="edge5" class="edge">
<title>file:///tmp/tmpyu2zn_9d#genome_version&#45;&gt;file:///tmp/tmpyu2zn_9d#create_contig_obj_for_chr6_step</title>
<path fill="none" stroke="#000000" d="M468.2538,-566.5197C464.6305,-545.7682 458.7236,-511.9376 454.5073,-487.7899"/>
<polygon fill="#000000" stroke="#000000" points="457.9274,-487.0284 452.7595,-477.7794 451.0317,-488.2324 457.9274,-487.0284"/>
</g>
<!-- file:///tmp/tmpyu2zn_9d#faidx_file -->
<g id="node2" class="node">
<title>file:///tmp/tmpyu2zn_9d#faidx_file</title>
<g id="a_node2"><a xlink:title="May be extracted from a secondary files reference file if this is a subworkflow&#10;">
<polygon fill="#94ddf4" stroke="#000000" points="304.5,-566.6114 304.5,-603.6114 386.5,-603.6114 386.5,-566.6114 304.5,-566.6114"/>
<text text-anchor="middle" x="345.5" y="-581.4114" font-family="Times,serif" font-size="14.00" fill="#000000">faidx_file</text>
</a>
</g>
</g>
<!-- file:///tmp/tmpyu2zn_9d#create_regions_bed_for_hla_contigs_step -->
<g id="node8" class="node">
<title>file:///tmp/tmpyu2zn_9d#create_regions_bed_for_hla_contigs_step</title>
<g id="a_node8"><a xlink:href="https://github.com/umccr/cwl-ica/blob/beta-release/.github/catalogue/docs/tools/custom-hla-bed-from-faidx/1.0.0/custom-hla-bed-from-faidx__1.0.0.md" xlink:title="Creates a contig object for the hla regions.&#10;Uses the faidx file in the input to search for HLA contigs&#10;">
<polygon fill="#fafad2" stroke="#000000" points="0,-440.6114 0,-477.6114 263,-477.6114 263,-440.6114 0,-440.6114"/>
<text text-anchor="middle" x="131.5" y="-455.4114" font-family="Times,serif" font-size="14.00" fill="#000000">custom&#45;hla&#45;bed&#45;from&#45;faidx v(1.0.0)</text>
</a>
</g>
</g>
<!-- file:///tmp/tmpyu2zn_9d#faidx_file&#45;&gt;file:///tmp/tmpyu2zn_9d#create_regions_bed_for_hla_contigs_step -->
<g id="edge6" class="edge">
<title>file:///tmp/tmpyu2zn_9d#faidx_file&#45;&gt;file:///tmp/tmpyu2zn_9d#create_regions_bed_for_hla_contigs_step</title>
<path fill="none" stroke="#000000" d="M313.9236,-566.5197C276.2292,-544.3258 213.1258,-507.1715 171.9071,-482.9025"/>
<polygon fill="#000000" stroke="#000000" points="173.5991,-479.8372 163.206,-477.7794 170.0475,-485.8693 173.5991,-479.8372"/>
</g>
<!-- file:///tmp/tmpyu2zn_9d#regions_bed_file -->
<g id="node3" class="node">
<title>file:///tmp/tmpyu2zn_9d#regions_bed_file</title>
<g id="a_node3"><a xlink:title="Name of the output regions bed file we create&#10;">
<polygon fill="#94ddf4" stroke="#000000" points="556.5,-566.6114 556.5,-603.6114 690.5,-603.6114 690.5,-566.6114 556.5,-566.6114"/>
<text text-anchor="middle" x="623.5" y="-581.4114" font-family="Times,serif" font-size="14.00" fill="#000000">regions_bed_file</text>
</a>
</g>
</g>
<!-- file:///tmp/tmpyu2zn_9d#create_regions_bed_for_chr_6_hla_region_step -->
<g id="node6" class="node">
<title>file:///tmp/tmpyu2zn_9d#create_regions_bed_for_chr_6_hla_region_step</title>
<g id="a_node6"><a xlink:href="https://github.com/umccr/cwl-ica/blob/beta-release/.github/catalogue/docs/tools/custom-create-regions-bed-from-contigs-list/1.0.0/custom-create-regions-bed-from-contigs-list__1.0.0.md" xlink:title="Merge the list of contigs from each the chr6 region and the hla_contigs&#10;">
<polygon fill="#fafad2" stroke="#000000" points="261,-319.6114 261,-356.6114 650,-356.6114 650,-319.6114 261,-319.6114"/>
<text text-anchor="middle" x="455.5" y="-334.4114" font-family="Times,serif" font-size="14.00" fill="#000000">custom&#45;create&#45;regions&#45;bed&#45;from&#45;contigs&#45;list v(1.0.0)</text>
</a>
</g>
</g>
<!-- file:///tmp/tmpyu2zn_9d#regions_bed_file&#45;&gt;file:///tmp/tmpyu2zn_9d#create_regions_bed_for_chr_6_hla_region_step -->
<g id="edge7" class="edge">
<title>file:///tmp/tmpyu2zn_9d#regions_bed_file&#45;&gt;file:///tmp/tmpyu2zn_9d#create_regions_bed_for_chr_6_hla_region_step</title>
<path fill="none" stroke="#000000" d="M629.6434,-566.2382C637.944,-537.0576 649.2541,-480.1788 626.5,-440.1114 604.7833,-401.8709 562.421,-376.4478 525.2958,-360.5468"/>
<polygon fill="#000000" stroke="#000000" points="526.5649,-357.2843 515.9858,-356.7073 523.8961,-363.7556 526.5649,-357.2843"/>
</g>
<!-- file:///tmp/tmpyu2zn_9d#bedops_merge_step -->
<g id="node7" class="node">
<title>file:///tmp/tmpyu2zn_9d#bedops_merge_step</title>
<g id="a_node7"><a xlink:href="https://github.com/umccr/cwl-ica/blob/beta-release/.github/catalogue/docs/tools/bedops/2.4.39/bedops__2.4.39.md" xlink:title="Merge the chromosome 6 and hla bed files&#10;">
<polygon fill="#fafad2" stroke="#000000" points="387.5,-197.6114 387.5,-234.6114 523.5,-234.6114 523.5,-197.6114 387.5,-197.6114"/>
<text text-anchor="middle" x="455.5" y="-212.4114" font-family="Times,serif" font-size="14.00" fill="#000000">bedops v(2.4.39)</text>
</a>
</g>
</g>
<!-- file:///tmp/tmpyu2zn_9d#regions_bed_file&#45;&gt;file:///tmp/tmpyu2zn_9d#bedops_merge_step -->
<g id="edge8" class="edge">
<title>file:///tmp/tmpyu2zn_9d#regions_bed_file&#45;&gt;file:///tmp/tmpyu2zn_9d#bedops_merge_step</title>
<path fill="none" stroke="#000000" d="M633.6918,-566.329C657.1361,-520.3246 709.1993,-399.8796 659.5,-319.1114 632.0901,-274.5666 578.8143,-248.5856 533.5803,-233.8617"/>
<polygon fill="#000000" stroke="#000000" points="534.355,-230.4371 523.7664,-230.7995 532.2699,-237.1194 534.355,-230.4371"/>
</g>
<!-- file:///tmp/tmpyu2zn_9d#regions_bed -->
<g id="node4" class="node">
<title>file:///tmp/tmpyu2zn_9d#regions_bed</title>
<g id="a_node4"><a xlink:title="The output regions bed file&#10;">
<polygon fill="#94ddf4" stroke="#000000" points="403.5,-76.6114 403.5,-113.6114 507.5,-113.6114 507.5,-76.6114 403.5,-76.6114"/>
<text text-anchor="middle" x="455.5" y="-91.4114" font-family="Times,serif" font-size="14.00" fill="#000000">regions_bed</text>
</a>
</g>
</g>
<!-- file:///tmp/tmpyu2zn_9d#create_contig_obj_for_chr6_step&#45;&gt;file:///tmp/tmpyu2zn_9d#create_regions_bed_for_chr_6_hla_region_step -->
<g id="edge1" class="edge">
<title>file:///tmp/tmpyu2zn_9d#create_contig_obj_for_chr6_step&#45;&gt;file:///tmp/tmpyu2zn_9d#create_regions_bed_for_chr_6_hla_region_step</title>
<path fill="none" stroke="#000000" d="M450.4244,-440.4704C451.3949,-420.8982 452.9339,-389.8621 454.063,-367.0914"/>
<polygon fill="#000000" stroke="#000000" points="457.5651,-367.1341 454.5647,-356.973 450.5737,-366.7874 457.5651,-367.1341"/>
</g>
<!-- file:///tmp/tmpyu2zn_9d#create_regions_bed_for_chr_6_hla_region_step&#45;&gt;file:///tmp/tmpyu2zn_9d#bedops_merge_step -->
<g id="edge2" class="edge">
<title>file:///tmp/tmpyu2zn_9d#create_regions_bed_for_chr_6_hla_region_step&#45;&gt;file:///tmp/tmpyu2zn_9d#bedops_merge_step</title>
<path fill="none" stroke="#000000" d="M455.5,-319.5823C455.5,-299.7868 455.5,-268.1451 455.5,-245.0588"/>
<polygon fill="#000000" stroke="#000000" points="459.0001,-244.8149 455.5,-234.815 452.0001,-244.815 459.0001,-244.8149"/>
</g>
<!-- file:///tmp/tmpyu2zn_9d#bedops_merge_step&#45;&gt;file:///tmp/tmpyu2zn_9d#regions_bed -->
<g id="edge4" class="edge">
<title>file:///tmp/tmpyu2zn_9d#bedops_merge_step&#45;&gt;file:///tmp/tmpyu2zn_9d#regions_bed</title>
<path fill="none" stroke="#000000" d="M455.5,-197.4704C455.5,-177.8982 455.5,-146.8621 455.5,-124.0914"/>
<polygon fill="#000000" stroke="#000000" points="459.0001,-123.973 455.5,-113.973 452.0001,-123.9731 459.0001,-123.973"/>
</g>
<!-- file:///tmp/tmpyu2zn_9d#create_regions_bed_for_hla_contigs_step&#45;&gt;file:///tmp/tmpyu2zn_9d#bedops_merge_step -->
<g id="edge3" class="edge">
<title>file:///tmp/tmpyu2zn_9d#create_regions_bed_for_hla_contigs_step&#45;&gt;file:///tmp/tmpyu2zn_9d#bedops_merge_step</title>
<path fill="none" stroke="#000000" d="M143.9613,-440.2687C163.8859,-411.2643 205.3956,-355.2541 251.5,-319.1114 295.7688,-284.4077 353.5736,-256.5515 396.3436,-238.6024"/>
<polygon fill="#000000" stroke="#000000" points="397.8738,-241.7571 405.7773,-234.7012 395.1988,-235.2884 397.8738,-241.7571"/>
</g>
</g>
</svg>
