<?xml version="1.0" encoding="UTF-8" standalone="no"?>
<!DOCTYPE svg PUBLIC "-//W3C//DTD SVG 1.1//EN"
 "http://www.w3.org/Graphics/SVG/1.1/DTD/svg11.dtd">
<!-- Generated by graphviz version 2.40.1 (20161225.0304)
 -->
<!-- Title: G Pages: 1 -->
<svg width="717pt" height="653pt"
 viewBox="0.00 0.00 717.00 653.19" xmlns="http://www.w3.org/2000/svg" xmlns:xlink="http://www.w3.org/1999/xlink">
<g id="graph0" class="graph" transform="scale(1 1) rotate(0) translate(4 649.19)">
<title>G</title>
<polygon fill="#eeeeee" stroke="transparent" points="-4,4 -4,-649.19 713,-649.19 713,4 -4,4"/>
<g id="clust1" class="cluster">
<title>cluster_inputs</title>
<polygon fill="#eeeeee" stroke="#000000" stroke-dasharray="5,2" points="171.5,-505.2891 171.5,-632.0229 573.5,-632.0229 573.5,-505.2891 171.5,-505.2891"/>
<text text-anchor="middle" x="505.5" y="-513.0891" font-family="Times,serif" font-size="14.00" fill="#000000">Workflow Inputs</text>
</g>
<g id="clust2" class="cluster">
<title>cluster_outputs</title>
<polygon fill="#eeeeee" stroke="#000000" stroke-dasharray="5,2" points="343.5,-13.1671 343.5,-139.9009 491.5,-139.9009 491.5,-13.1671 343.5,-13.1671"/>
<text text-anchor="middle" x="417.5" y="-20.9671" font-family="Times,serif" font-size="14.00" fill="#000000">Workflow Outputs</text>
</g>
<!-- file:///tmp/tmp3hs2kz35#regions_bed_file -->
<g id="node1" class="node">
<title>file:///tmp/tmp3hs2kz35#regions_bed_file</title>
<g id="a_node1"><a xlink:title="Name of the output regions bed file we create&#10;">
<polygon fill="#94ddf4" stroke="#000000" points="331.5,-568.6671 331.5,-605.6671 465.5,-605.6671 465.5,-568.6671 331.5,-568.6671"/>
<text text-anchor="middle" x="398.5" y="-583.4671" font-family="Times,serif" font-size="14.00" fill="#000000">regions_bed_file</text>
</a>
</g>
</g>
<!-- file:///tmp/tmp3hs2kz35#create_regions_bed_for_chr_6_hla_region_step -->
<g id="node5" class="node">
<title>file:///tmp/tmp3hs2kz35#create_regions_bed_for_chr_6_hla_region_step</title>
<g id="a_node5"><a xlink:href="https://github.com/umccr/cwl-ica/blob/beta-release/.github/catalogue/docs/tools/custom-create-regions-bed-from-contigs-list/1.0.0/custom-create-regions-bed-from-contigs-list__1.0.0.md" xlink:title="Merge the list of contigs from each the chr6 region and the hla_contigs&#10;">
<polygon fill="#fafad2" stroke="#000000" points="0,-320.6671 0,-357.6671 389,-357.6671 389,-320.6671 0,-320.6671"/>
<text text-anchor="middle" x="194.5" y="-335.4671" font-family="Times,serif" font-size="14.00" fill="#000000">custom&#45;create&#45;regions&#45;bed&#45;from&#45;contigs&#45;list v(1.0.0)</text>
</a>
</g>
</g>
<!-- file:///tmp/tmp3hs2kz35#regions_bed_file&#45;&gt;file:///tmp/tmp3hs2kz35#create_regions_bed_for_chr_6_hla_region_step -->
<g id="edge5" class="edge">
<title>file:///tmp/tmp3hs2kz35#regions_bed_file&#45;&gt;file:///tmp/tmp3hs2kz35#create_regions_bed_for_chr_6_hla_region_step</title>
<path fill="none" stroke="#000000" d="M397.9215,-568.3518C396.1269,-538.7446 388.9374,-480.6919 360.5,-442.1671 333.5044,-405.5955 289.277,-379.086 253.2596,-362.1266"/>
<polygon fill="#000000" stroke="#000000" points="254.3684,-358.7851 243.8187,-357.8085 251.4568,-365.1508 254.3684,-358.7851"/>
</g>
<!-- file:///tmp/tmp3hs2kz35#bedops_merge_step -->
<g id="node6" class="node">
<title>file:///tmp/tmp3hs2kz35#bedops_merge_step</title>
<g id="a_node6"><a xlink:href="https://github.com/umccr/cwl-ica/blob/beta-release/.github/catalogue/docs/tools/bedops/2.4.39/bedops__2.4.39.md" xlink:title="Merge the chromosome 6 and hla bed files&#10;">
<polygon fill="#fafad2" stroke="#000000" points="349.5,-198.6671 349.5,-235.6671 485.5,-235.6671 485.5,-198.6671 349.5,-198.6671"/>
<text text-anchor="middle" x="417.5" y="-213.4671" font-family="Times,serif" font-size="14.00" fill="#000000">bedops v(2.4.39)</text>
</a>
</g>
</g>
<!-- file:///tmp/tmp3hs2kz35#regions_bed_file&#45;&gt;file:///tmp/tmp3hs2kz35#bedops_merge_step -->
<g id="edge6" class="edge">
<title>file:///tmp/tmp3hs2kz35#regions_bed_file&#45;&gt;file:///tmp/tmp3hs2kz35#bedops_merge_step</title>
<path fill="none" stroke="#000000" d="M399.4552,-568.5652C402.5402,-508.4894 412.2536,-319.3334 416.003,-246.3197"/>
<polygon fill="#000000" stroke="#000000" points="419.514,-246.193 416.5315,-236.0267 412.5232,-245.834 419.514,-246.193"/>
</g>
<!-- file:///tmp/tmp3hs2kz35#faidx_file -->
<g id="node2" class="node">
<title>file:///tmp/tmp3hs2kz35#faidx_file</title>
<g id="a_node2"><a xlink:title="May be extracted from a secondary files reference file if this is a subworkflow&#10;">
<polygon fill="#94ddf4" stroke="#000000" points="483.5,-568.6671 483.5,-605.6671 565.5,-605.6671 565.5,-568.6671 483.5,-568.6671"/>
<text text-anchor="middle" x="524.5" y="-583.4671" font-family="Times,serif" font-size="14.00" fill="#000000">faidx_file</text>
</a>
</g>
</g>
<!-- file:///tmp/tmp3hs2kz35#create_regions_bed_for_hla_contigs_step -->
<g id="node7" class="node">
<title>file:///tmp/tmp3hs2kz35#create_regions_bed_for_hla_contigs_step</title>
<g id="a_node7"><a xlink:href="https://github.com/umccr/cwl-ica/blob/beta-release/.github/catalogue/docs/tools/custom-hla-bed-from-faidx/1.0.0/custom-hla-bed-from-faidx__1.0.0.md" xlink:title="Creates a contig object for the hla regions.&#10;Uses the faidx file in the input to search for HLA contigs&#10;">
<polygon fill="#fafad2" stroke="#000000" points="446,-442.6671 446,-479.6671 709,-479.6671 709,-442.6671 446,-442.6671"/>
<text text-anchor="middle" x="577.5" y="-457.4671" font-family="Times,serif" font-size="14.00" fill="#000000">custom&#45;hla&#45;bed&#45;from&#45;faidx v(1.0.0)</text>
</a>
</g>
</g>
<!-- file:///tmp/tmp3hs2kz35#faidx_file&#45;&gt;file:///tmp/tmp3hs2kz35#create_regions_bed_for_hla_contigs_step -->
<g id="edge7" class="edge">
<title>file:///tmp/tmp3hs2kz35#faidx_file&#45;&gt;file:///tmp/tmp3hs2kz35#create_regions_bed_for_hla_contigs_step</title>
<path fill="none" stroke="#000000" d="M532.3203,-568.5754C541.1274,-547.6378 555.5352,-513.3854 565.7092,-489.1982"/>
<polygon fill="#000000" stroke="#000000" points="568.9964,-490.41 569.6476,-479.8352 562.544,-487.6958 568.9964,-490.41"/>
</g>
<!-- file:///tmp/tmp3hs2kz35#genome_version -->
<g id="node3" class="node">
<title>file:///tmp/tmp3hs2kz35#genome_version</title>
<g id="a_node3"><a xlink:title="The name of the genome determines the chr6 contig we create&#10;">
<polygon fill="#94ddf4" stroke="#000000" points="180,-568.6671 180,-605.6671 313,-605.6671 313,-568.6671 180,-568.6671"/>
<text text-anchor="middle" x="246.5" y="-583.4671" font-family="Times,serif" font-size="14.00" fill="#000000">genome_version</text>
</a>
</g>
</g>
<!-- file:///tmp/tmp3hs2kz35#create_contig_obj_for_chr6_step -->
<g id="node8" class="node">
<title>file:///tmp/tmp3hs2kz35#create_contig_obj_for_chr6_step</title>
<g id="a_node8"><a xlink:href="https://github.com/umccr/cwl-ica/blob/beta-release/.github/catalogue/docs/expressions/create-contig-obj-for-hla-chr6-region/1.0.0/create-contig-obj-for-hla-chr6-region__1.0.0.md" xlink:title="Creates a contig object for the hla region&#10;in chr6 based on the reference type.&#10;">
<polygon fill="#ee9a00" stroke="#000000" points="15.5,-442.6671 15.5,-479.6671 351.5,-479.6671 351.5,-442.6671 15.5,-442.6671"/>
<text text-anchor="middle" x="183.5" y="-457.4671" font-family="Times,serif" font-size="14.00" fill="#000000">create&#45;contig&#45;obj&#45;for&#45;hla&#45;chr6&#45;region v(1.0.0)</text>
</a>
</g>
</g>
<!-- file:///tmp/tmp3hs2kz35#genome_version&#45;&gt;file:///tmp/tmp3hs2kz35#create_contig_obj_for_chr6_step -->
<g id="edge8" class="edge">
<title>file:///tmp/tmp3hs2kz35#genome_version&#45;&gt;file:///tmp/tmp3hs2kz35#create_contig_obj_for_chr6_step</title>
<path fill="none" stroke="#000000" d="M237.2041,-568.5754C226.6888,-547.5447 209.4568,-513.0807 197.3546,-488.8763"/>
<polygon fill="#000000" stroke="#000000" points="200.4367,-487.2142 192.834,-479.8352 194.1757,-490.3447 200.4367,-487.2142"/>
</g>
<!-- file:///tmp/tmp3hs2kz35#regions_bed -->
<g id="node4" class="node">
<title>file:///tmp/tmp3hs2kz35#regions_bed</title>
<g id="a_node4"><a xlink:title="The output regions bed file&#10;">
<polygon fill="#94ddf4" stroke="#000000" points="365.5,-76.6671 365.5,-113.6671 469.5,-113.6671 469.5,-76.6671 365.5,-76.6671"/>
<text text-anchor="middle" x="417.5" y="-91.4671" font-family="Times,serif" font-size="14.00" fill="#000000">regions_bed</text>
</a>
</g>
</g>
<!-- file:///tmp/tmp3hs2kz35#create_regions_bed_for_chr_6_hla_region_step&#45;&gt;file:///tmp/tmp3hs2kz35#bedops_merge_step -->
<g id="edge1" class="edge">
<title>file:///tmp/tmp3hs2kz35#create_regions_bed_for_chr_6_hla_region_step&#45;&gt;file:///tmp/tmp3hs2kz35#bedops_merge_step</title>
<path fill="none" stroke="#000000" d="M228.3689,-320.638C267.5312,-299.2129 332.0586,-263.9109 374.671,-240.5983"/>
<polygon fill="#000000" stroke="#000000" points="376.5853,-243.5405 383.6784,-235.6704 373.2256,-237.3995 376.5853,-243.5405"/>
</g>
<!-- file:///tmp/tmp3hs2kz35#bedops_merge_step&#45;&gt;file:///tmp/tmp3hs2kz35#regions_bed -->
<g id="edge2" class="edge">
<title>file:///tmp/tmp3hs2kz35#bedops_merge_step&#45;&gt;file:///tmp/tmp3hs2kz35#regions_bed</title>
<path fill="none" stroke="#000000" d="M417.5,-198.638C417.5,-178.8425 417.5,-147.2008 417.5,-124.1145"/>
<polygon fill="#000000" stroke="#000000" points="421.0001,-123.8707 417.5,-113.8707 414.0001,-123.8707 421.0001,-123.8707"/>
</g>
<!-- file:///tmp/tmp3hs2kz35#create_regions_bed_for_hla_contigs_step&#45;&gt;file:///tmp/tmp3hs2kz35#bedops_merge_step -->
<g id="edge3" class="edge">
<title>file:///tmp/tmp3hs2kz35#create_regions_bed_for_hla_contigs_step&#45;&gt;file:///tmp/tmp3hs2kz35#bedops_merge_step</title>
<path fill="none" stroke="#000000" d="M565.2107,-442.426C537.1151,-399.5802 468.0927,-294.321 435.3246,-244.3497"/>
<polygon fill="#000000" stroke="#000000" points="438.2416,-242.4153 429.8311,-235.9721 432.3879,-246.2538 438.2416,-242.4153"/>
</g>
<!-- file:///tmp/tmp3hs2kz35#create_contig_obj_for_chr6_step&#45;&gt;file:///tmp/tmp3hs2kz35#create_regions_bed_for_chr_6_hla_region_step -->
<g id="edge4" class="edge">
<title>file:///tmp/tmp3hs2kz35#create_contig_obj_for_chr6_step&#45;&gt;file:///tmp/tmp3hs2kz35#create_regions_bed_for_chr_6_hla_region_step</title>
<path fill="none" stroke="#000000" d="M185.1707,-442.638C186.9555,-422.8425 189.8084,-391.2008 191.89,-368.1145"/>
<polygon fill="#000000" stroke="#000000" points="195.4014,-368.1446 192.8136,-357.8707 188.4297,-367.516 195.4014,-368.1446"/>
</g>
</g>
</svg>
