<?xml version="1.0" encoding="UTF-8" standalone="no"?>
<!DOCTYPE svg PUBLIC "-//W3C//DTD SVG 1.1//EN"
 "http://www.w3.org/Graphics/SVG/1.1/DTD/svg11.dtd">
<!-- Generated by graphviz version 2.43.0 (0)
 -->
<!-- Title: G Pages: 1 -->
<svg width="6553pt" height="3156pt"
 viewBox="0.00 0.00 6553.00 3156.14" xmlns="http://www.w3.org/2000/svg" xmlns:xlink="http://www.w3.org/1999/xlink">
<g id="graph0" class="graph" transform="scale(1 1) rotate(0) translate(4 3152.14)">
<title>G</title>
<polygon fill="#eeeeee" stroke="transparent" points="-4,4 -4,-3152.14 6549,-3152.14 6549,4 -4,4"/>
<g id="clust1" class="cluster">
<title>cluster_inputs</title>
<polygon fill="#eeeeee" stroke="black" stroke-dasharray="5,2" points="4074,-2617.21 4074,-3098.17 5301,-3098.17 5301,-2617.21 4074,-2617.21"/>
<text text-anchor="middle" x="5234.5" y="-2625.01" font-family="Times,serif" font-size="14.00">Workflow Inputs</text>
</g>
<g id="clust2" class="cluster">
<title>cluster_outputs</title>
<polygon fill="#eeeeee" stroke="black" stroke-dasharray="5,2" points="8,-287.33 8,-768.3 6011,-768.3 6011,-287.33 8,-287.33"/>
<text text-anchor="middle" x="5938.5" y="-295.13" font-family="Times,serif" font-size="14.00">Workflow Outputs</text>
</g>
<!-- coerce_valid_index -->
<g id="node1" class="node">
<title>coerce_valid_index</title>
<polygon fill="#94ddf4" stroke="black" points="4661,-2911.5 4661,-2948.5 4811,-2948.5 4811,-2911.5 4661,-2911.5"/>
<text text-anchor="middle" x="4736" y="-2926.3" font-family="Times,serif" font-size="14.00">coerce_valid_index</text>
</g>
<!-- add_sample_type_and_pair_id_to_samplesheet_step -->
<g id="node42" class="node">
<title>add_sample_type_and_pair_id_to_samplesheet_step</title>
<polygon fill="lightgoldenrodyellow" stroke="black" points="4554.5,-2430.5 4554.5,-2467.5 4879.5,-2467.5 4879.5,-2430.5 4554.5,-2430.5"/>
<text text-anchor="middle" x="4717" y="-2445.3" font-family="Times,serif" font-size="14.00">custom&#45;create&#45;tso500&#45;samplesheet v(1.2.0)</text>
</g>
<!-- coerce_valid_index&#45;&gt;add_sample_type_and_pair_id_to_samplesheet_step -->
<g id="edge38" class="edge">
<title>coerce_valid_index&#45;&gt;add_sample_type_and_pair_id_to_samplesheet_step</title>
<path fill="none" stroke="black" d="M4735.3,-2911.38C4732.44,-2839.2 4721.59,-2565.7 4718.09,-2477.56"/>
<polygon fill="black" stroke="black" points="4721.59,-2477.38 4717.7,-2467.52 4714.59,-2477.65 4721.59,-2477.38"/>
</g>
<!-- samplesheet -->
<g id="node2" class="node">
<title>samplesheet</title>
<polygon fill="#94ddf4" stroke="black" points="4535.5,-2911.5 4535.5,-2948.5 4642.5,-2948.5 4642.5,-2911.5 4535.5,-2911.5"/>
<text text-anchor="middle" x="4589" y="-2926.3" font-family="Times,serif" font-size="14.00">samplesheet</text>
</g>
<!-- samplesheet&#45;&gt;add_sample_type_and_pair_id_to_samplesheet_step -->
<g id="edge39" class="edge">
<title>samplesheet&#45;&gt;add_sample_type_and_pair_id_to_samplesheet_step</title>
<path fill="none" stroke="black" d="M4593.71,-2911.38C4613.02,-2839.13 4686.23,-2565.14 4709.71,-2477.29"/>
<polygon fill="black" stroke="black" points="4713.12,-2478.09 4712.32,-2467.52 4706.35,-2476.28 4713.12,-2478.09"/>
</g>
<!-- samplesheet_prefix -->
<g id="node3" class="node">
<title>samplesheet_prefix</title>
<polygon fill="#94ddf4" stroke="black" points="4829.5,-2911.5 4829.5,-2948.5 4984.5,-2948.5 4984.5,-2911.5 4829.5,-2911.5"/>
<text text-anchor="middle" x="4907" y="-2926.3" font-family="Times,serif" font-size="14.00">samplesheet_prefix</text>
</g>
<!-- run_tso500_ctdna_reporting_workflow_step -->
<g id="node40" class="node">
<title>run_tso500_ctdna_reporting_workflow_step</title>
<polygon fill="lightgoldenrodyellow" stroke="black" points="4897.5,-1043.5 4897.5,-1080.5 5220.5,-1080.5 5220.5,-1043.5 4897.5,-1043.5"/>
<text text-anchor="middle" x="5059" y="-1058.3" font-family="Times,serif" font-size="14.00">tso500&#45;ctdna&#45;reporting&#45;workflow v(1.2.0.1)</text>
</g>
<!-- samplesheet_prefix&#45;&gt;run_tso500_ctdna_reporting_workflow_step -->
<g id="edge40" class="edge">
<title>samplesheet_prefix&#45;&gt;run_tso500_ctdna_reporting_workflow_step</title>
<path fill="none" stroke="black" d="M4908.43,-2911.43C4922.69,-2736.4 5039,-1308.53 5056.74,-1090.8"/>
<polygon fill="black" stroke="black" points="5060.25,-1090.8 5057.57,-1080.55 5053.27,-1090.23 5060.25,-1090.8"/>
</g>
<!-- run_tso500_ctdna_demultiplex_workflow_step -->
<g id="node41" class="node">
<title>run_tso500_ctdna_demultiplex_workflow_step</title>
<polygon fill="lightgoldenrodyellow" stroke="black" points="4493,-1967.5 4493,-2004.5 4833,-2004.5 4833,-1967.5 4493,-1967.5"/>
<text text-anchor="middle" x="4663" y="-1982.3" font-family="Times,serif" font-size="14.00">tso500&#45;ctdna&#45;demultiplex&#45;workflow v(1.2.0.1)</text>
</g>
<!-- samplesheet_prefix&#45;&gt;run_tso500_ctdna_demultiplex_workflow_step -->
<g id="edge41" class="edge">
<title>samplesheet_prefix&#45;&gt;run_tso500_ctdna_demultiplex_workflow_step</title>
<path fill="none" stroke="black" d="M4909.07,-2911.37C4916.14,-2846.16 4936.47,-2612.92 4889,-2430 4844.78,-2259.59 4727.62,-2079.59 4681.77,-2013.39"/>
<polygon fill="black" stroke="black" points="4684.38,-2011.02 4675.79,-2004.82 4678.64,-2015.03 4684.38,-2011.02"/>
</g>
<!-- samplesheet_prefix&#45;&gt;add_sample_type_and_pair_id_to_samplesheet_step -->
<g id="edge42" class="edge">
<title>samplesheet_prefix&#45;&gt;add_sample_type_and_pair_id_to_samplesheet_step</title>
<path fill="none" stroke="black" d="M4900.01,-2911.38C4871.32,-2839.05 4762.45,-2564.59 4727.72,-2477.02"/>
<polygon fill="black" stroke="black" points="4730.89,-2475.53 4723.95,-2467.52 4724.38,-2478.11 4730.89,-2475.53"/>
</g>
<!-- tso500_samples -->
<g id="node4" class="node">
<title>tso500_samples</title>
<polygon fill="#94ddf4" stroke="black" points="4386.5,-2911.5 4386.5,-2948.5 4517.5,-2948.5 4517.5,-2911.5 4386.5,-2911.5"/>
<text text-anchor="middle" x="4452" y="-2926.3" font-family="Times,serif" font-size="14.00">tso500_samples</text>
</g>
<!-- run_tso500_ctdna_analysis_workflow_step -->
<g id="node38" class="node">
<title>run_tso500_ctdna_analysis_workflow_step</title>
<polygon fill="lightgoldenrodyellow" stroke="black" points="2465,-1505.5 2465,-1542.5 2797,-1542.5 2797,-1505.5 2465,-1505.5"/>
<text text-anchor="middle" x="2631" y="-1520.3" font-family="Times,serif" font-size="14.00">tso500&#45;ctdna&#45;analysis&#45;workflow v(1.1.0.120)</text>
</g>
<!-- tso500_samples&#45;&gt;run_tso500_ctdna_analysis_workflow_step -->
<g id="edge43" class="edge">
<title>tso500_samples&#45;&gt;run_tso500_ctdna_analysis_workflow_step</title>
<path fill="none" stroke="black" d="M4428.98,-2911.25C4235.59,-2762.15 2883.8,-1719.91 2661.81,-1548.76"/>
<polygon fill="black" stroke="black" points="2663.87,-1545.93 2653.82,-1542.59 2659.6,-1551.47 2663.87,-1545.93"/>
</g>
<!-- get_cttso_outputs_by_sample -->
<g id="node39" class="node">
<title>get_cttso_outputs_by_sample</title>
<polygon fill="lightgoldenrodyellow" stroke="black" points="6249,-581.5 6249,-618.5 6545,-618.5 6545,-581.5 6249,-581.5"/>
<text text-anchor="middle" x="6397" y="-596.3" font-family="Times,serif" font-size="14.00">get&#45;tso500&#45;outputs&#45;per&#45;sample v(1.2.0)</text>
</g>
<!-- tso500_samples&#45;&gt;get_cttso_outputs_by_sample -->
<g id="edge44" class="edge">
<title>tso500_samples&#45;&gt;get_cttso_outputs_by_sample</title>
<path fill="none" stroke="black" d="M4451.64,-2911.42C4451,-2844.45 4455.35,-2600.45 4546,-2430 4795.89,-1960.14 6153.53,-806.04 6368.36,-625.05"/>
<polygon fill="black" stroke="black" points="6370.68,-627.67 6376.08,-618.56 6366.17,-622.32 6370.68,-627.67"/>
</g>
<!-- tso500_samples&#45;&gt;run_tso500_ctdna_demultiplex_workflow_step -->
<g id="edge45" class="edge">
<title>tso500_samples&#45;&gt;run_tso500_ctdna_demultiplex_workflow_step</title>
<path fill="none" stroke="black" d="M4452.86,-2911.09C4456.28,-2845.87 4470.82,-2615.08 4513,-2430 4549.81,-2268.47 4623.22,-2083.03 4651.51,-2014.39"/>
<polygon fill="black" stroke="black" points="4654.91,-2015.34 4655.5,-2004.76 4648.44,-2012.66 4654.91,-2015.34"/>
</g>
<!-- tso500_samples&#45;&gt;add_sample_type_and_pair_id_to_samplesheet_step -->
<g id="edge46" class="edge">
<title>tso500_samples&#45;&gt;add_sample_type_and_pair_id_to_samplesheet_step</title>
<path fill="none" stroke="black" d="M4461.75,-2911.38C4501.84,-2838.91 4654.22,-2563.47 4702.34,-2476.49"/>
<polygon fill="black" stroke="black" points="4705.53,-2477.97 4707.31,-2467.52 4699.4,-2474.58 4705.53,-2477.97"/>
</g>
<!-- dragen_license_key -->
<g id="node5" class="node">
<title>dragen_license_key</title>
<polygon fill="#94ddf4" stroke="black" points="4082.5,-2911.5 4082.5,-2948.5 4237.5,-2948.5 4237.5,-2911.5 4082.5,-2911.5"/>
<text text-anchor="middle" x="4160" y="-2926.3" font-family="Times,serif" font-size="14.00">dragen_license_key</text>
</g>
<!-- dragen_license_key&#45;&gt;run_tso500_ctdna_analysis_workflow_step -->
<g id="edge47" class="edge">
<title>dragen_license_key&#45;&gt;run_tso500_ctdna_analysis_workflow_step</title>
<path fill="none" stroke="black" d="M4129.12,-2911.3C4030.47,-2854.06 3716.14,-2666.12 3489,-2468 3115.94,-2142.6 2739.85,-1666.02 2650.77,-1550.78"/>
<polygon fill="black" stroke="black" points="2653.5,-1548.59 2644.62,-1542.81 2647.96,-1552.87 2653.5,-1548.59"/>
</g>
<!-- resources_dir -->
<g id="node6" class="node">
<title>resources_dir</title>
<polygon fill="#94ddf4" stroke="black" points="4255.5,-2911.5 4255.5,-2948.5 4368.5,-2948.5 4368.5,-2911.5 4255.5,-2911.5"/>
<text text-anchor="middle" x="4312" y="-2926.3" font-family="Times,serif" font-size="14.00">resources_dir</text>
</g>
<!-- resources_dir&#45;&gt;run_tso500_ctdna_analysis_workflow_step -->
<g id="edge48" class="edge">
<title>resources_dir&#45;&gt;run_tso500_ctdna_analysis_workflow_step</title>
<path fill="none" stroke="black" d="M4290.75,-2911.25C4112.32,-2762.22 2865.6,-1720.94 2659.75,-1549.01"/>
<polygon fill="black" stroke="black" points="2661.98,-1546.32 2652.06,-1542.59 2657.49,-1551.69 2661.98,-1546.32"/>
</g>
<!-- resources_dir&#45;&gt;run_tso500_ctdna_reporting_workflow_step -->
<g id="edge49" class="edge">
<title>resources_dir&#45;&gt;run_tso500_ctdna_reporting_workflow_step</title>
<path fill="none" stroke="black" d="M4312.63,-2911.23C4316.6,-2813.14 4342.88,-2328.99 4484,-1967 4632.84,-1585.21 4951.34,-1191.05 5037.26,-1088.55"/>
<polygon fill="black" stroke="black" points="5040.19,-1090.51 5043.95,-1080.61 5034.83,-1086.01 5040.19,-1090.51"/>
</g>
<!-- resources_dir&#45;&gt;run_tso500_ctdna_demultiplex_workflow_step -->
<g id="edge50" class="edge">
<title>resources_dir&#45;&gt;run_tso500_ctdna_demultiplex_workflow_step</title>
<path fill="none" stroke="black" d="M4318.54,-2911.44C4361.26,-2796.81 4600.2,-2155.55 4652.77,-2014.46"/>
<polygon fill="black" stroke="black" points="4656.15,-2015.41 4656.36,-2004.82 4649.59,-2012.97 4656.15,-2015.41"/>
</g>
<!-- run_info_xml -->
<g id="node7" class="node">
<title>run_info_xml</title>
<polygon fill="#94ddf4" stroke="black" points="5003,-2911.5 5003,-2948.5 5111,-2948.5 5111,-2911.5 5003,-2911.5"/>
<text text-anchor="middle" x="5057" y="-2926.3" font-family="Times,serif" font-size="14.00">run_info_xml</text>
</g>
<!-- run_info_xml&#45;&gt;run_tso500_ctdna_reporting_workflow_step -->
<g id="edge51" class="edge">
<title>run_info_xml&#45;&gt;run_tso500_ctdna_reporting_workflow_step</title>
<path fill="none" stroke="black" d="M5057.02,-2911.43C5057.21,-2736.4 5058.74,-1308.53 5058.97,-1090.8"/>
<polygon fill="black" stroke="black" points="5062.47,-1090.55 5058.98,-1080.55 5055.47,-1090.55 5062.47,-1090.55"/>
</g>
<!-- run_info_xml&#45;&gt;run_tso500_ctdna_demultiplex_workflow_step -->
<g id="edge52" class="edge">
<title>run_info_xml&#45;&gt;run_tso500_ctdna_demultiplex_workflow_step</title>
<path fill="none" stroke="black" d="M5053.06,-2911.3C5038.19,-2845.86 4982.43,-2611.91 4906,-2430 4836.55,-2264.71 4723.1,-2080.97 4680.18,-2013.6"/>
<polygon fill="black" stroke="black" points="4682.94,-2011.42 4674.6,-2004.88 4677.04,-2015.19 4682.94,-2011.42"/>
</g>
<!-- run_parameters_xml -->
<g id="node8" class="node">
<title>run_parameters_xml</title>
<polygon fill="#94ddf4" stroke="black" points="5129,-2911.5 5129,-2948.5 5293,-2948.5 5293,-2911.5 5129,-2911.5"/>
<text text-anchor="middle" x="5211" y="-2926.3" font-family="Times,serif" font-size="14.00">run_parameters_xml</text>
</g>
<!-- run_parameters_xml&#45;&gt;run_tso500_ctdna_reporting_workflow_step -->
<g id="edge53" class="edge">
<title>run_parameters_xml&#45;&gt;run_tso500_ctdna_reporting_workflow_step</title>
<path fill="none" stroke="black" d="M5209.57,-2911.43C5195.31,-2736.4 5079,-1308.53 5061.26,-1090.8"/>
<polygon fill="black" stroke="black" points="5064.73,-1090.23 5060.43,-1080.55 5057.75,-1090.8 5064.73,-1090.23"/>
</g>
<!-- run_parameters_xml&#45;&gt;run_tso500_ctdna_demultiplex_workflow_step -->
<g id="edge54" class="edge">
<title>run_parameters_xml&#45;&gt;run_tso500_ctdna_demultiplex_workflow_step</title>
<path fill="none" stroke="black" d="M5200.95,-2911.27C5164.31,-2846.65 5034.28,-2617.68 4925,-2430 4832.68,-2271.44 4719.89,-2082.22 4678.87,-2013.55"/>
<polygon fill="black" stroke="black" points="4681.7,-2011.46 4673.57,-2004.67 4675.69,-2015.05 4681.7,-2011.46"/>
</g>
<!-- align_collapse_fusion_caller_analysis_dir -->
<g id="node9" class="node">
<title>align_collapse_fusion_caller_analysis_dir</title>
<polygon fill="#94ddf4" stroke="black" points="3003.5,-581.5 3003.5,-618.5 3308.5,-618.5 3308.5,-581.5 3003.5,-581.5"/>
<text text-anchor="middle" x="3156" y="-596.3" font-family="Times,serif" font-size="14.00">align_collapse_fusion_caller_analysis_dir</text>
</g>
<!-- analysis_workflow_output -->
<g id="node10" class="node">
<title>analysis_workflow_output</title>
<polygon fill="#94ddf4" stroke="black" points="3327,-581.5 3327,-618.5 3527,-618.5 3527,-581.5 3327,-581.5"/>
<text text-anchor="middle" x="3427" y="-596.3" font-family="Times,serif" font-size="14.00">analysis_workflow_output</text>
</g>
<!-- annotation_analysis_dir -->
<g id="node11" class="node">
<title>annotation_analysis_dir</title>
<polygon fill="#94ddf4" stroke="black" points="3545.5,-581.5 3545.5,-618.5 3730.5,-618.5 3730.5,-581.5 3545.5,-581.5"/>
<text text-anchor="middle" x="3638" y="-596.3" font-family="Times,serif" font-size="14.00">annotation_analysis_dir</text>
</g>
<!-- cleanup_dir -->
<g id="node12" class="node">
<title>cleanup_dir</title>
<polygon fill="#94ddf4" stroke="black" points="4946.5,-581.5 4946.5,-618.5 5045.5,-618.5 5045.5,-581.5 4946.5,-581.5"/>
<text text-anchor="middle" x="4996" y="-596.3" font-family="Times,serif" font-size="14.00">cleanup_dir</text>
</g>
<!-- cnv_caller_analysis_dir -->
<g id="node13" class="node">
<title>cnv_caller_analysis_dir</title>
<polygon fill="#94ddf4" stroke="black" points="16.5,-581.5 16.5,-618.5 195.5,-618.5 195.5,-581.5 16.5,-581.5"/>
<text text-anchor="middle" x="106" y="-596.3" font-family="Times,serif" font-size="14.00">cnv_caller_analysis_dir</text>
</g>
<!-- combined_variant_output_dir -->
<g id="node14" class="node">
<title>combined_variant_output_dir</title>
<polygon fill="#94ddf4" stroke="black" points="5779,-581.5 5779,-618.5 6003,-618.5 6003,-581.5 5779,-581.5"/>
<text text-anchor="middle" x="5891" y="-596.3" font-family="Times,serif" font-size="14.00">combined_variant_output_dir</text>
</g>
<!-- contamination_analysis_dir -->
<g id="node15" class="node">
<title>contamination_analysis_dir</title>
<polygon fill="#94ddf4" stroke="black" points="214,-581.5 214,-618.5 424,-618.5 424,-581.5 214,-581.5"/>
<text text-anchor="middle" x="319" y="-596.3" font-family="Times,serif" font-size="14.00">contamination_analysis_dir</text>
</g>
<!-- demultiplex_workflow_output -->
<g id="node16" class="node">
<title>demultiplex_workflow_output</title>
<polygon fill="#94ddf4" stroke="black" points="4204.5,-581.5 4204.5,-618.5 4431.5,-618.5 4431.5,-581.5 4204.5,-581.5"/>
<text text-anchor="middle" x="4318" y="-596.3" font-family="Times,serif" font-size="14.00">demultiplex_workflow_output</text>
</g>
<!-- dna_fusion_filtering_analysis_dir -->
<g id="node17" class="node">
<title>dna_fusion_filtering_analysis_dir</title>
<polygon fill="#94ddf4" stroke="black" points="442,-581.5 442,-618.5 690,-618.5 690,-581.5 442,-581.5"/>
<text text-anchor="middle" x="566" y="-596.3" font-family="Times,serif" font-size="14.00">dna_fusion_filtering_analysis_dir</text>
</g>
<!-- dna_qc_metrics_analysis_dir -->
<g id="node18" class="node">
<title>dna_qc_metrics_analysis_dir</title>
<polygon fill="#94ddf4" stroke="black" points="708,-581.5 708,-618.5 926,-618.5 926,-581.5 708,-581.5"/>
<text text-anchor="middle" x="817" y="-596.3" font-family="Times,serif" font-size="14.00">dna_qc_metrics_analysis_dir</text>
</g>
<!-- fastq_validation_demux_dir -->
<g id="node19" class="node">
<title>fastq_validation_demux_dir</title>
<polygon fill="#94ddf4" stroke="black" points="4450,-581.5 4450,-618.5 4662,-618.5 4662,-581.5 4450,-581.5"/>
<text text-anchor="middle" x="4556" y="-596.3" font-family="Times,serif" font-size="14.00">fastq_validation_demux_dir</text>
</g>
<!-- max_somatic_vaf_analysis_dir -->
<g id="node20" class="node">
<title>max_somatic_vaf_analysis_dir</title>
<polygon fill="#94ddf4" stroke="black" points="944.5,-581.5 944.5,-618.5 1173.5,-618.5 1173.5,-581.5 944.5,-581.5"/>
<text text-anchor="middle" x="1059" y="-596.3" font-family="Times,serif" font-size="14.00">max_somatic_vaf_analysis_dir</text>
</g>
<!-- merged_annotation_analysis_dir -->
<g id="node21" class="node">
<title>merged_annotation_analysis_dir</title>
<polygon fill="#94ddf4" stroke="black" points="1192,-581.5 1192,-618.5 1438,-618.5 1438,-581.5 1192,-581.5"/>
<text text-anchor="middle" x="1315" y="-596.3" font-family="Times,serif" font-size="14.00">merged_annotation_analysis_dir</text>
</g>
<!-- metrics_output_dir -->
<g id="node22" class="node">
<title>metrics_output_dir</title>
<polygon fill="#94ddf4" stroke="black" points="5609,-581.5 5609,-618.5 5761,-618.5 5761,-581.5 5609,-581.5"/>
<text text-anchor="middle" x="5685" y="-596.3" font-family="Times,serif" font-size="14.00">metrics_output_dir</text>
</g>
<!-- msi_analysis_dir -->
<g id="node23" class="node">
<title>msi_analysis_dir</title>
<polygon fill="#94ddf4" stroke="black" points="1456,-581.5 1456,-618.5 1590,-618.5 1590,-581.5 1456,-581.5"/>
<text text-anchor="middle" x="1523" y="-596.3" font-family="Times,serif" font-size="14.00">msi_analysis_dir</text>
</g>
<!-- outputs_by_sample -->
<g id="node24" class="node">
<title>outputs_by_sample</title>
<polygon fill="#94ddf4" stroke="black" points="3748.5,-581.5 3748.5,-618.5 3901.5,-618.5 3901.5,-581.5 3748.5,-581.5"/>
<text text-anchor="middle" x="3825" y="-596.3" font-family="Times,serif" font-size="14.00">outputs_by_sample</text>
</g>
<!-- phased_variants_analysis_dir -->
<g id="node25" class="node">
<title>phased_variants_analysis_dir</title>
<polygon fill="#94ddf4" stroke="black" points="1608,-581.5 1608,-618.5 1832,-618.5 1832,-581.5 1608,-581.5"/>
<text text-anchor="middle" x="1720" y="-596.3" font-family="Times,serif" font-size="14.00">phased_variants_analysis_dir</text>
</g>
<!-- reporting_workflow_output -->
<g id="node26" class="node">
<title>reporting_workflow_output</title>
<polygon fill="#94ddf4" stroke="black" points="5381.5,-581.5 5381.5,-618.5 5590.5,-618.5 5590.5,-581.5 5381.5,-581.5"/>
<text text-anchor="middle" x="5486" y="-596.3" font-family="Times,serif" font-size="14.00">reporting_workflow_output</text>
</g>
<!-- resource_verification_demux_dir -->
<g id="node27" class="node">
<title>resource_verification_demux_dir</title>
<polygon fill="#94ddf4" stroke="black" points="4680,-581.5 4680,-618.5 4928,-618.5 4928,-581.5 4680,-581.5"/>
<text text-anchor="middle" x="4804" y="-596.3" font-family="Times,serif" font-size="14.00">resource_verification_demux_dir</text>
</g>
<!-- results -->
<g id="node28" class="node">
<title>results</title>
<polygon fill="#94ddf4" stroke="black" points="5297,-581.5 5297,-618.5 5363,-618.5 5363,-581.5 5297,-581.5"/>
<text text-anchor="middle" x="5330" y="-596.3" font-family="Times,serif" font-size="14.00">results</text>
</g>
<!-- sample_analysis_results_dir -->
<g id="node29" class="node">
<title>sample_analysis_results_dir</title>
<polygon fill="#94ddf4" stroke="black" points="5063.5,-581.5 5063.5,-618.5 5278.5,-618.5 5278.5,-581.5 5063.5,-581.5"/>
<text text-anchor="middle" x="5171" y="-596.3" font-family="Times,serif" font-size="14.00">sample_analysis_results_dir</text>
</g>
<!-- samplesheet_validation_demux_dir -->
<g id="node30" class="node">
<title>samplesheet_validation_demux_dir</title>
<polygon fill="#94ddf4" stroke="black" points="3920,-581.5 3920,-618.5 4186,-618.5 4186,-581.5 3920,-581.5"/>
<text text-anchor="middle" x="4053" y="-596.3" font-family="Times,serif" font-size="14.00">samplesheet_validation_demux_dir</text>
</g>
<!-- small_variant_filter_analysis_dir -->
<g id="node31" class="node">
<title>small_variant_filter_analysis_dir</title>
<polygon fill="#94ddf4" stroke="black" points="1850.5,-581.5 1850.5,-618.5 2095.5,-618.5 2095.5,-581.5 1850.5,-581.5"/>
<text text-anchor="middle" x="1973" y="-596.3" font-family="Times,serif" font-size="14.00">small_variant_filter_analysis_dir</text>
</g>
<!-- stitched_realigned_analysis_dir -->
<g id="node32" class="node">
<title>stitched_realigned_analysis_dir</title>
<polygon fill="#94ddf4" stroke="black" points="2114,-581.5 2114,-618.5 2354,-618.5 2354,-581.5 2114,-581.5"/>
<text text-anchor="middle" x="2234" y="-596.3" font-family="Times,serif" font-size="14.00">stitched_realigned_analysis_dir</text>
</g>
<!-- tmb_analysis_dir -->
<g id="node33" class="node">
<title>tmb_analysis_dir</title>
<polygon fill="#94ddf4" stroke="black" points="2372.5,-581.5 2372.5,-618.5 2509.5,-618.5 2509.5,-581.5 2372.5,-581.5"/>
<text text-anchor="middle" x="2441" y="-596.3" font-family="Times,serif" font-size="14.00">tmb_analysis_dir</text>
</g>
<!-- variant_caller_analysis_dir -->
<g id="node34" class="node">
<title>variant_caller_analysis_dir</title>
<polygon fill="#94ddf4" stroke="black" points="2528,-581.5 2528,-618.5 2734,-618.5 2734,-581.5 2528,-581.5"/>
<text text-anchor="middle" x="2631" y="-596.3" font-family="Times,serif" font-size="14.00">variant_caller_analysis_dir</text>
</g>
<!-- variant_matching_analysis_dir -->
<g id="node35" class="node">
<title>variant_matching_analysis_dir</title>
<polygon fill="#94ddf4" stroke="black" points="2752.5,-581.5 2752.5,-618.5 2985.5,-618.5 2985.5,-581.5 2752.5,-581.5"/>
<text text-anchor="middle" x="2869" y="-596.3" font-family="Times,serif" font-size="14.00">variant_matching_analysis_dir</text>
</g>
<!-- validate_dsdm_json -->
<g id="node36" class="node">
<title>validate_dsdm_json</title>
<polygon fill="lightgoldenrodyellow" stroke="black" points="6021,-581.5 6021,-618.5 6231,-618.5 6231,-581.5 6021,-581.5"/>
<text text-anchor="middle" x="6126" y="-596.3" font-family="Times,serif" font-size="14.00">validate&#45;dsdm&#45;json v(1.0.0)</text>
</g>
<!-- assert_all_samples_passing -->
<g id="node37" class="node">
<title>assert_all_samples_passing</title>
<polygon fill="lightgoldenrodyellow" stroke="black" points="6048.5,-100.5 6048.5,-137.5 6203.5,-137.5 6203.5,-100.5 6048.5,-100.5"/>
<text text-anchor="middle" x="6126" y="-115.3" font-family="Times,serif" font-size="14.00">assert&#45;true v(1.0.0)</text>
</g>
<!-- validate_dsdm_json&#45;&gt;assert_all_samples_passing -->
<g id="edge1" class="edge">
<title>validate_dsdm_json&#45;&gt;assert_all_samples_passing</title>
<path fill="none" stroke="black" d="M6126,-581.38C6126,-509.2 6126,-235.7 6126,-147.56"/>
<polygon fill="black" stroke="black" points="6129.5,-147.52 6126,-137.52 6122.5,-147.52 6129.5,-147.52"/>
</g>
<!-- run_tso500_ctdna_analysis_workflow_step&#45;&gt;align_collapse_fusion_caller_analysis_dir -->
<g id="edge5" class="edge">
<title>run_tso500_ctdna_analysis_workflow_step&#45;&gt;align_collapse_fusion_caller_analysis_dir</title>
<path fill="none" stroke="black" d="M2641.02,-1505.41C2705.53,-1392.11 3062.2,-765.73 3140.71,-627.85"/>
<polygon fill="black" stroke="black" points="3143.97,-629.2 3145.88,-618.78 3137.89,-625.74 3143.97,-629.2"/>
</g>
<!-- run_tso500_ctdna_analysis_workflow_step&#45;&gt;analysis_workflow_output -->
<g id="edge6" class="edge">
<title>run_tso500_ctdna_analysis_workflow_step&#45;&gt;analysis_workflow_output</title>
<path fill="none" stroke="black" d="M2646.19,-1505.41C2744.3,-1391.77 3288.03,-761.96 3404.88,-626.62"/>
<polygon fill="black" stroke="black" points="3407.76,-628.64 3411.65,-618.78 3402.47,-624.06 3407.76,-628.64"/>
</g>
<!-- run_tso500_ctdna_analysis_workflow_step&#45;&gt;annotation_analysis_dir -->
<g id="edge7" class="edge">
<title>run_tso500_ctdna_analysis_workflow_step&#45;&gt;annotation_analysis_dir</title>
<path fill="none" stroke="black" d="M2650.22,-1505.41C2774.58,-1391.54 3464.94,-759.45 3610.89,-625.82"/>
<polygon fill="black" stroke="black" points="3613.57,-628.11 3618.58,-618.78 3608.84,-622.95 3613.57,-628.11"/>
</g>
<!-- run_tso500_ctdna_analysis_workflow_step&#45;&gt;cnv_caller_analysis_dir -->
<g id="edge8" class="edge">
<title>run_tso500_ctdna_analysis_workflow_step&#45;&gt;cnv_caller_analysis_dir</title>
<path fill="none" stroke="black" d="M2582.81,-1505.41C2267.95,-1390.43 506.06,-747.08 163.66,-622.05"/>
<polygon fill="black" stroke="black" points="164.77,-618.73 154.18,-618.59 162.37,-625.31 164.77,-618.73"/>
</g>
<!-- run_tso500_ctdna_analysis_workflow_step&#45;&gt;contamination_analysis_dir -->
<g id="edge9" class="edge">
<title>run_tso500_ctdna_analysis_workflow_step&#45;&gt;contamination_analysis_dir</title>
<path fill="none" stroke="black" d="M2586.88,-1505.41C2298.79,-1390.52 687.69,-748.03 372.49,-622.33"/>
<polygon fill="black" stroke="black" points="373.7,-619.05 363.11,-618.59 371.11,-625.55 373.7,-619.05"/>
</g>
<!-- run_tso500_ctdna_analysis_workflow_step&#45;&gt;dna_fusion_filtering_analysis_dir -->
<g id="edge10" class="edge">
<title>run_tso500_ctdna_analysis_workflow_step&#45;&gt;dna_fusion_filtering_analysis_dir</title>
<path fill="none" stroke="black" d="M2591.59,-1505.41C2334.54,-1390.63 898.14,-749.3 614.61,-622.71"/>
<polygon fill="black" stroke="black" points="615.96,-619.47 605.4,-618.59 613.11,-625.87 615.96,-619.47"/>
</g>
<!-- run_tso500_ctdna_analysis_workflow_step&#45;&gt;dna_qc_metrics_analysis_dir -->
<g id="edge11" class="edge">
<title>run_tso500_ctdna_analysis_workflow_step&#45;&gt;dna_qc_metrics_analysis_dir</title>
<path fill="none" stroke="black" d="M2596.38,-1505.41C2370.91,-1390.8 1112.51,-751.2 860.82,-623.27"/>
<polygon fill="black" stroke="black" points="862.11,-620 851.61,-618.59 858.94,-626.24 862.11,-620"/>
</g>
<!-- run_tso500_ctdna_analysis_workflow_step&#45;&gt;max_somatic_vaf_analysis_dir -->
<g id="edge12" class="edge">
<title>run_tso500_ctdna_analysis_workflow_step&#45;&gt;max_somatic_vaf_analysis_dir</title>
<path fill="none" stroke="black" d="M2601,-1505.41C2405.8,-1390.92 1317.24,-752.46 1097.62,-623.65"/>
<polygon fill="black" stroke="black" points="1099.39,-620.63 1089,-618.59 1095.85,-626.67 1099.39,-620.63"/>
</g>
<!-- run_tso500_ctdna_analysis_workflow_step&#45;&gt;merged_annotation_analysis_dir -->
<g id="edge13" class="edge">
<title>run_tso500_ctdna_analysis_workflow_step&#45;&gt;merged_annotation_analysis_dir</title>
<path fill="none" stroke="black" d="M2605.89,-1505.41C2442.8,-1391.14 1534.79,-754.99 1348.43,-624.42"/>
<polygon fill="black" stroke="black" points="1350.31,-621.46 1340.11,-618.59 1346.29,-627.2 1350.31,-621.46"/>
</g>
<!-- run_tso500_ctdna_analysis_workflow_step&#45;&gt;msi_analysis_dir -->
<g id="edge14" class="edge">
<title>run_tso500_ctdna_analysis_workflow_step&#45;&gt;msi_analysis_dir</title>
<path fill="none" stroke="black" d="M2609.86,-1505.41C2472.89,-1391.43 1711.9,-758.19 1552.35,-625.42"/>
<polygon fill="black" stroke="black" points="1554.29,-622.49 1544.37,-618.78 1549.81,-627.87 1554.29,-622.49"/>
</g>
<!-- run_tso500_ctdna_analysis_workflow_step&#45;&gt;phased_variants_analysis_dir -->
<g id="edge15" class="edge">
<title>run_tso500_ctdna_analysis_workflow_step&#45;&gt;phased_variants_analysis_dir</title>
<path fill="none" stroke="black" d="M2613.62,-1505.41C2501.22,-1391.66 1877.8,-760.71 1744.92,-626.22"/>
<polygon fill="black" stroke="black" points="1747.09,-623.43 1737.57,-618.78 1742.11,-628.35 1747.09,-623.43"/>
</g>
<!-- run_tso500_ctdna_analysis_workflow_step&#45;&gt;small_variant_filter_analysis_dir -->
<g id="edge16" class="edge">
<title>run_tso500_ctdna_analysis_workflow_step&#45;&gt;small_variant_filter_analysis_dir</title>
<path fill="none" stroke="black" d="M2618.44,-1505.41C2537.43,-1391.88 2088.77,-763.22 1991.57,-627.03"/>
<polygon fill="black" stroke="black" points="1994.35,-624.89 1985.69,-618.78 1988.65,-628.95 1994.35,-624.89"/>
</g>
<!-- run_tso500_ctdna_analysis_workflow_step&#45;&gt;stitched_realigned_analysis_dir -->
<g id="edge17" class="edge">
<title>run_tso500_ctdna_analysis_workflow_step&#45;&gt;stitched_realigned_analysis_dir</title>
<path fill="none" stroke="black" d="M2623.42,-1505.41C2574.69,-1392.22 2305.47,-766.98 2245.74,-628.26"/>
<polygon fill="black" stroke="black" points="2248.83,-626.58 2241.66,-618.78 2242.4,-629.35 2248.83,-626.58"/>
</g>
<!-- run_tso500_ctdna_analysis_workflow_step&#45;&gt;tmb_analysis_dir -->
<g id="edge18" class="edge">
<title>run_tso500_ctdna_analysis_workflow_step&#45;&gt;tmb_analysis_dir</title>
<path fill="none" stroke="black" d="M2627.37,-1505.41C2604.07,-1392.34 2475.46,-768.23 2446.7,-628.68"/>
<polygon fill="black" stroke="black" points="2450.11,-627.87 2444.66,-618.78 2443.25,-629.28 2450.11,-627.87"/>
</g>
<!-- run_tso500_ctdna_analysis_workflow_step&#45;&gt;variant_caller_analysis_dir -->
<g id="edge19" class="edge">
<title>run_tso500_ctdna_analysis_workflow_step&#45;&gt;variant_caller_analysis_dir</title>
<path fill="none" stroke="black" d="M2631,-1505.41C2631,-1392.45 2631,-769.48 2631,-629.1"/>
<polygon fill="black" stroke="black" points="2634.5,-628.78 2631,-618.78 2627.5,-628.78 2634.5,-628.78"/>
</g>
<!-- run_tso500_ctdna_analysis_workflow_step&#45;&gt;variant_matching_analysis_dir -->
<g id="edge20" class="edge">
<title>run_tso500_ctdna_analysis_workflow_step&#45;&gt;variant_matching_analysis_dir</title>
<path fill="none" stroke="black" d="M2635.54,-1505.41C2664.73,-1392.34 2825.83,-768.23 2861.85,-628.68"/>
<polygon fill="black" stroke="black" points="2865.3,-629.34 2864.41,-618.78 2858.52,-627.59 2865.3,-629.34"/>
</g>
<!-- run_tso500_ctdna_analysis_workflow_step&#45;&gt;get_cttso_outputs_by_sample -->
<g id="edge2" class="edge">
<title>run_tso500_ctdna_analysis_workflow_step&#45;&gt;get_cttso_outputs_by_sample</title>
<path fill="none" stroke="black" d="M2797.04,-1506.78C3298.94,-1455.88 4792.58,-1290.2 5230,-1081 5253.01,-1070 5251.25,-1056.31 5273,-1043 5636.49,-820.54 6131.26,-672.72 6319.77,-621.24"/>
<polygon fill="black" stroke="black" points="6320.86,-624.57 6329.59,-618.57 6319.02,-617.81 6320.86,-624.57"/>
</g>
<!-- run_tso500_ctdna_analysis_workflow_step&#45;&gt;run_tso500_ctdna_reporting_workflow_step -->
<g id="edge3" class="edge">
<title>run_tso500_ctdna_analysis_workflow_step&#45;&gt;run_tso500_ctdna_reporting_workflow_step</title>
<path fill="none" stroke="black" d="M2720.79,-1505.46C3097.44,-1433.11 4548.9,-1158.11 4953.67,-1082.4"/>
<polygon fill="black" stroke="black" points="4954.43,-1085.82 4963.62,-1080.54 4953.14,-1078.94 4954.43,-1085.82"/>
</g>
<!-- run_tso500_ctdna_analysis_workflow_step&#45;&gt;run_tso500_ctdna_reporting_workflow_step -->
<g id="edge4" class="edge">
<title>run_tso500_ctdna_analysis_workflow_step&#45;&gt;run_tso500_ctdna_reporting_workflow_step</title>
<path fill="none" stroke="black" d="M2726.38,-1505.46C3113.4,-1433.13 4564.31,-1158.25 4959.24,-1082.46"/>
<polygon fill="black" stroke="black" points="4960.05,-1085.86 4969.21,-1080.54 4958.73,-1078.99 4960.05,-1085.86"/>
</g>
<!-- get_cttso_outputs_by_sample&#45;&gt;outputs_by_sample -->
<g id="edge21" class="edge">
<title>get_cttso_outputs_by_sample&#45;&gt;outputs_by_sample</title>
<path fill="none" stroke="black" d="M6390.69,-618.66C6373.68,-665.54 6321.93,-787.91 6231,-835 5774.98,-1071.19 4345.79,-1122.13 3920,-835 3850.34,-788.03 3831.75,-680.41 3826.79,-628.73"/>
<polygon fill="black" stroke="black" points="3830.26,-628.26 3825.93,-618.6 3823.29,-628.86 3830.26,-628.26"/>
</g>
<!-- run_tso500_ctdna_reporting_workflow_step&#45;&gt;cleanup_dir -->
<g id="edge25" class="edge">
<title>run_tso500_ctdna_reporting_workflow_step&#45;&gt;cleanup_dir</title>
<path fill="none" stroke="black" d="M5056.57,-1043.25C5046.95,-973.03 5011.52,-714.3 4999.79,-628.7"/>
<polygon fill="black" stroke="black" points="5003.25,-628.13 4998.42,-618.7 4996.31,-629.08 5003.25,-628.13"/>
</g>
<!-- run_tso500_ctdna_reporting_workflow_step&#45;&gt;combined_variant_output_dir -->
<g id="edge26" class="edge">
<title>run_tso500_ctdna_reporting_workflow_step&#45;&gt;combined_variant_output_dir</title>
<path fill="none" stroke="black" d="M5090.85,-1043.39C5220.06,-971.95 5705.08,-703.79 5849.92,-623.71"/>
<polygon fill="black" stroke="black" points="5851.9,-626.62 5858.96,-618.72 5848.51,-620.49 5851.9,-626.62"/>
</g>
<!-- run_tso500_ctdna_reporting_workflow_step&#45;&gt;metrics_output_dir -->
<g id="edge27" class="edge">
<title>run_tso500_ctdna_reporting_workflow_step&#45;&gt;metrics_output_dir</title>
<path fill="none" stroke="black" d="M5083.16,-1043.25C5180.28,-971.88 5542.35,-705.82 5652.8,-624.66"/>
<polygon fill="black" stroke="black" points="5654.93,-627.44 5660.92,-618.7 5650.78,-621.8 5654.93,-627.44"/>
</g>
<!-- run_tso500_ctdna_reporting_workflow_step&#45;&gt;reporting_workflow_output -->
<g id="edge28" class="edge">
<title>run_tso500_ctdna_reporting_workflow_step&#45;&gt;reporting_workflow_output</title>
<path fill="none" stroke="black" d="M5075.48,-1043.25C5141.33,-972.31 5385.74,-709.01 5462.66,-626.14"/>
<polygon fill="black" stroke="black" points="5465.33,-628.41 5469.57,-618.7 5460.2,-623.65 5465.33,-628.41"/>
</g>
<!-- run_tso500_ctdna_reporting_workflow_step&#45;&gt;results -->
<g id="edge29" class="edge">
<title>run_tso500_ctdna_reporting_workflow_step&#45;&gt;results</title>
<path fill="none" stroke="black" d="M5069.46,-1043.25C5111.04,-972.67 5264.81,-711.66 5314.44,-627.41"/>
<polygon fill="black" stroke="black" points="5317.51,-629.09 5319.57,-618.7 5311.48,-625.54 5317.51,-629.09"/>
</g>
<!-- run_tso500_ctdna_reporting_workflow_step&#45;&gt;sample_analysis_results_dir -->
<g id="edge30" class="edge">
<title>run_tso500_ctdna_reporting_workflow_step&#45;&gt;sample_analysis_results_dir</title>
<path fill="none" stroke="black" d="M5063.32,-1043.25C5080.44,-972.95 5143.54,-713.78 5164.32,-628.44"/>
<polygon fill="black" stroke="black" points="5167.73,-629.24 5166.69,-618.7 5160.92,-627.59 5167.73,-629.24"/>
</g>
<!-- run_tso500_ctdna_reporting_workflow_step&#45;&gt;validate_dsdm_json -->
<g id="edge22" class="edge">
<title>run_tso500_ctdna_reporting_workflow_step&#45;&gt;validate_dsdm_json</title>
<path fill="none" stroke="black" d="M5099.85,-1043.39C5266.31,-971.63 5893.25,-701.34 6075.82,-622.63"/>
<polygon fill="black" stroke="black" points="6077.39,-625.77 6085.19,-618.59 6074.62,-619.34 6077.39,-625.77"/>
</g>
<!-- run_tso500_ctdna_reporting_workflow_step&#45;&gt;get_cttso_outputs_by_sample -->
<g id="edge23" class="edge">
<title>run_tso500_ctdna_reporting_workflow_step&#45;&gt;get_cttso_outputs_by_sample</title>
<path fill="none" stroke="black" d="M5107.42,-1043.39C5311.69,-971.38 6102.55,-699.46 6333.43,-621.82"/>
<polygon fill="black" stroke="black" points="6334.66,-625.1 6343.03,-618.59 6332.43,-618.46 6334.66,-625.1"/>
</g>
<!-- run_tso500_ctdna_reporting_workflow_step&#45;&gt;get_cttso_outputs_by_sample -->
<g id="edge24" class="edge">
<title>run_tso500_ctdna_reporting_workflow_step&#45;&gt;get_cttso_outputs_by_sample</title>
<path fill="none" stroke="black" d="M5113.03,-1043.39C5327.57,-971.41 6117.89,-699.73 6339.14,-621.93"/>
<polygon fill="black" stroke="black" points="6340.36,-625.22 6348.63,-618.59 6338.03,-618.61 6340.36,-625.22"/>
</g>
<!-- run_tso500_ctdna_demultiplex_workflow_step&#45;&gt;demultiplex_workflow_output -->
<g id="edge33" class="edge">
<title>run_tso500_ctdna_demultiplex_workflow_step&#45;&gt;demultiplex_workflow_output</title>
<path fill="none" stroke="black" d="M4658.58,-1967.25C4621.98,-1820.45 4369.65,-808.18 4324.81,-628.3"/>
<polygon fill="black" stroke="black" points="4328.19,-627.41 4322.38,-618.56 4321.4,-629.11 4328.19,-627.41"/>
</g>
<!-- run_tso500_ctdna_demultiplex_workflow_step&#45;&gt;fastq_validation_demux_dir -->
<g id="edge34" class="edge">
<title>run_tso500_ctdna_demultiplex_workflow_step&#45;&gt;fastq_validation_demux_dir</title>
<path fill="none" stroke="black" d="M4661.63,-1967.25C4650.28,-1820.52 4572.1,-809.19 4558.13,-628.57"/>
<polygon fill="black" stroke="black" points="4561.62,-628.26 4557.36,-618.56 4554.64,-628.8 4561.62,-628.26"/>
</g>
<!-- run_tso500_ctdna_demultiplex_workflow_step&#45;&gt;resource_verification_demux_dir -->
<g id="edge35" class="edge">
<title>run_tso500_ctdna_demultiplex_workflow_step&#45;&gt;resource_verification_demux_dir</title>
<path fill="none" stroke="black" d="M4664.81,-1967.25C4679.76,-1820.52 4782.79,-809.19 4801.19,-628.57"/>
<polygon fill="black" stroke="black" points="4804.68,-628.86 4802.21,-618.56 4797.72,-628.15 4804.68,-628.86"/>
</g>
<!-- run_tso500_ctdna_demultiplex_workflow_step&#45;&gt;samplesheet_validation_demux_dir -->
<g id="edge36" class="edge">
<title>run_tso500_ctdna_demultiplex_workflow_step&#45;&gt;samplesheet_validation_demux_dir</title>
<path fill="none" stroke="black" d="M4655.18,-1967.25C4590.41,-1820.3 4143.43,-806.16 4064.8,-627.77"/>
<polygon fill="black" stroke="black" points="4067.97,-626.3 4060.74,-618.56 4061.57,-629.12 4067.97,-626.3"/>
</g>
<!-- run_tso500_ctdna_demultiplex_workflow_step&#45;&gt;run_tso500_ctdna_analysis_workflow_step -->
<g id="edge31" class="edge">
<title>run_tso500_ctdna_demultiplex_workflow_step&#45;&gt;run_tso500_ctdna_analysis_workflow_step</title>
<path fill="none" stroke="black" d="M4585.52,-1967.46C4266.55,-1895.25 3055.94,-1621.2 2718.68,-1544.85"/>
<polygon fill="black" stroke="black" points="2719.01,-1541.33 2708.48,-1542.54 2717.46,-1548.16 2719.01,-1541.33"/>
</g>
<!-- run_tso500_ctdna_demultiplex_workflow_step&#45;&gt;run_tso500_ctdna_reporting_workflow_step -->
<g id="edge32" class="edge">
<title>run_tso500_ctdna_demultiplex_workflow_step&#45;&gt;run_tso500_ctdna_reporting_workflow_step</title>
<path fill="none" stroke="black" d="M4670.56,-1967.41C4719.17,-1854.22 4987.71,-1228.98 5047.29,-1090.26"/>
<polygon fill="black" stroke="black" points="5050.63,-1091.35 5051.36,-1080.78 5044.2,-1088.59 5050.63,-1091.35"/>
</g>
<!-- add_sample_type_and_pair_id_to_samplesheet_step&#45;&gt;run_tso500_ctdna_demultiplex_workflow_step -->
<g id="edge37" class="edge">
<title>add_sample_type_and_pair_id_to_samplesheet_step&#45;&gt;run_tso500_ctdna_demultiplex_workflow_step</title>
<path fill="none" stroke="black" d="M4714.95,-2430.49C4706.75,-2360.46 4676.26,-2100.19 4666.22,-2014.53"/>
<polygon fill="black" stroke="black" points="4669.69,-2014.05 4665.05,-2004.53 4662.74,-2014.87 4669.69,-2014.05"/>
</g>
<!-- \n -->
<g id="node43" class="node">
<title>\n</title>
<ellipse fill="none" stroke="black" cx="5338" cy="-2930" rx="27" ry="18"/>
</g>
</g>
</svg>
