<?xml version="1.0" encoding="UTF-8" standalone="no"?>
<!DOCTYPE svg PUBLIC "-//W3C//DTD SVG 1.1//EN"
 "http://www.w3.org/Graphics/SVG/1.1/DTD/svg11.dtd">
<!-- Generated by graphviz version 2.43.0 (0)
 -->
<!-- Title: G Pages: 1 -->
<svg width="3644pt" height="1059pt"
 viewBox="0.00 0.00 3644.00 1058.80" xmlns="http://www.w3.org/2000/svg" xmlns:xlink="http://www.w3.org/1999/xlink">
<g id="graph0" class="graph" transform="scale(1 1) rotate(0) translate(4 1054.8)">
<title>G</title>
<polygon fill="#eeeeee" stroke="transparent" points="-4,4 -4,-1054.8 3640,-1054.8 3640,4 -4,4"/>
<g id="clust1" class="cluster">
<title>cluster_inputs</title>
<polygon fill="#eeeeee" stroke="black" stroke-dasharray="5,2" points="8,-681.72 8,-1016.07 3572,-1016.07 3572,-681.72 8,-681.72"/>
<text text-anchor="middle" x="3505.5" y="-689.52" font-family="Times,serif" font-size="14.00">Workflow Inputs</text>
</g>
<g id="clust2" class="cluster">
<title>cluster_outputs</title>
<polygon fill="#eeeeee" stroke="black" stroke-dasharray="5,2" points="1583,-34.74 1583,-369.08 1925,-369.08 1925,-34.74 1583,-34.74"/>
<text text-anchor="middle" x="1852.5" y="-42.54" font-family="Times,serif" font-size="14.00">Workflow Outputs</text>
</g>
<!-- arriba_dir -->
<g id="node1" class="node">
<title>arriba_dir</title>
<polygon fill="#94ddf4" stroke="black" points="3476.5,-880.24 3476.5,-917.24 3563.5,-917.24 3563.5,-880.24 3476.5,-880.24"/>
<text text-anchor="middle" x="3520" y="-895.04" font-family="Times,serif" font-size="14.00">arriba_dir</text>
</g>
<!-- run_rnasum_step -->
<g id="node35" class="node">
<title>run_rnasum_step</title>
<ellipse fill="none" stroke="black" cx="1776" cy="-568.74" rx="91" ry="18"/>
<text text-anchor="middle" x="1776" y="-565.04" font-family="Times,serif" font-size="14.00">run_rnasum_step</text>
</g>
<!-- arriba_dir&#45;&gt;run_rnasum_step -->
<g id="edge1" class="edge">
<title>arriba_dir&#45;&gt;run_rnasum_step</title>
<path fill="none" stroke="black" d="M3505.64,-879.99C3495.9,-869.19 3482.08,-856.11 3467,-848.74 3178.84,-707.81 2176.54,-606.36 1867.46,-577.86"/>
<polygon fill="black" stroke="black" points="1867.48,-574.34 1857.2,-576.91 1866.84,-581.31 1867.48,-574.34"/>
</g>
<!-- arriba_pdf -->
<g id="node2" class="node">
<title>arriba_pdf</title>
<polygon fill="#94ddf4" stroke="black" points="3368,-880.24 3368,-917.24 3458,-917.24 3458,-880.24 3368,-880.24"/>
<text text-anchor="middle" x="3413" y="-895.04" font-family="Times,serif" font-size="14.00">arriba_pdf</text>
</g>
<!-- arriba_pdf&#45;&gt;run_rnasum_step -->
<g id="edge2" class="edge">
<title>arriba_pdf&#45;&gt;run_rnasum_step</title>
<path fill="none" stroke="black" d="M3398.28,-880.04C3388.31,-869.28 3374.23,-856.2 3359,-848.74 3089.99,-716.9 2158.73,-609.96 1865.29,-578.88"/>
<polygon fill="black" stroke="black" points="1865.43,-575.38 1855.12,-577.81 1864.7,-582.34 1865.43,-575.38"/>
</g>
<!-- arriba_tsv -->
<g id="node3" class="node">
<title>arriba_tsv</title>
<polygon fill="#94ddf4" stroke="black" points="3260.5,-880.24 3260.5,-917.24 3349.5,-917.24 3349.5,-880.24 3260.5,-880.24"/>
<text text-anchor="middle" x="3305" y="-895.04" font-family="Times,serif" font-size="14.00">arriba_tsv</text>
</g>
<!-- arriba_tsv&#45;&gt;run_rnasum_step -->
<g id="edge3" class="edge">
<title>arriba_tsv&#45;&gt;run_rnasum_step</title>
<path fill="none" stroke="black" d="M3290.58,-880.1C3280.82,-869.36 3267,-856.29 3252,-848.74 2778.17,-610.12 2125.35,-574.56 1877.22,-570.01"/>
<polygon fill="black" stroke="black" points="1877.19,-566.51 1867.14,-569.84 1877.07,-573.51 1877.19,-566.51"/>
</g>
<!-- batch_rm -->
<g id="node4" class="node">
<title>batch_rm</title>
<polygon fill="#94ddf4" stroke="black" points="3159.5,-880.24 3159.5,-917.24 3242.5,-917.24 3242.5,-880.24 3159.5,-880.24"/>
<text text-anchor="middle" x="3201" y="-895.04" font-family="Times,serif" font-size="14.00">batch_rm</text>
</g>
<!-- batch_rm&#45;&gt;run_rnasum_step -->
<g id="edge4" class="edge">
<title>batch_rm&#45;&gt;run_rnasum_step</title>
<path fill="none" stroke="black" d="M3187.56,-880.16C3178.41,-869.44 3165.39,-856.37 3151,-848.74 2717.14,-618.58 2113.76,-577.9 1877.02,-571"/>
<polygon fill="black" stroke="black" points="1876.8,-567.49 1866.71,-570.72 1876.6,-574.49 1876.8,-567.49"/>
</g>
<!-- cn_gain -->
<g id="node5" class="node">
<title>cn_gain</title>
<polygon fill="#94ddf4" stroke="black" points="3070.5,-880.24 3070.5,-917.24 3141.5,-917.24 3141.5,-880.24 3070.5,-880.24"/>
<text text-anchor="middle" x="3106" y="-895.04" font-family="Times,serif" font-size="14.00">cn_gain</text>
</g>
<!-- cn_gain&#45;&gt;run_rnasum_step -->
<g id="edge5" class="edge">
<title>cn_gain&#45;&gt;run_rnasum_step</title>
<path fill="none" stroke="black" d="M3094.23,-880.21C3086.12,-869.5 3074.42,-856.44 3061,-848.74 2664.87,-621.47 2103.15,-579.03 1876.54,-571.33"/>
<polygon fill="black" stroke="black" points="1876.44,-567.82 1866.33,-570.99 1876.22,-574.82 1876.44,-567.82"/>
</g>
<!-- cn_loss -->
<g id="node6" class="node">
<title>cn_loss</title>
<polygon fill="#94ddf4" stroke="black" points="2984,-880.24 2984,-917.24 3052,-917.24 3052,-880.24 2984,-880.24"/>
<text text-anchor="middle" x="3018" y="-895.04" font-family="Times,serif" font-size="14.00">cn_loss</text>
</g>
<!-- cn_loss&#45;&gt;run_rnasum_step -->
<g id="edge6" class="edge">
<title>cn_loss&#45;&gt;run_rnasum_step</title>
<path fill="none" stroke="black" d="M3006.53,-879.79C2998.85,-869.2 2987.82,-856.41 2975,-848.74 2611.31,-630.94 2091.4,-583.15 1875.69,-572.68"/>
<polygon fill="black" stroke="black" points="1875.81,-569.18 1865.65,-572.2 1875.48,-576.17 1875.81,-569.18"/>
</g>
<!-- dataset -->
<g id="node7" class="node">
<title>dataset</title>
<polygon fill="#94ddf4" stroke="black" points="2896,-880.24 2896,-917.24 2966,-917.24 2966,-880.24 2896,-880.24"/>
<text text-anchor="middle" x="2931" y="-895.04" font-family="Times,serif" font-size="14.00">dataset</text>
</g>
<!-- dataset&#45;&gt;run_rnasum_step -->
<g id="edge7" class="edge">
<title>dataset&#45;&gt;run_rnasum_step</title>
<path fill="none" stroke="black" d="M2919.13,-879.87C2911.22,-869.31 2899.92,-856.53 2887,-848.74 2551.62,-646.52 2074.8,-590.32 1872.6,-575.15"/>
<polygon fill="black" stroke="black" points="1872.83,-571.65 1862.6,-574.41 1872.31,-578.64 1872.83,-571.65"/>
</g>
<!-- dataset_name_incl -->
<g id="node8" class="node">
<title>dataset_name_incl</title>
<polygon fill="#94ddf4" stroke="black" points="2730,-880.24 2730,-917.24 2878,-917.24 2878,-880.24 2730,-880.24"/>
<text text-anchor="middle" x="2804" y="-895.04" font-family="Times,serif" font-size="14.00">dataset_name_incl</text>
</g>
<!-- dataset_name_incl&#45;&gt;run_rnasum_step -->
<g id="edge8" class="edge">
<title>dataset_name_incl&#45;&gt;run_rnasum_step</title>
<path fill="none" stroke="black" d="M2777.97,-880.12C2762.04,-869.91 2740.95,-857.41 2721,-848.74 2407.28,-712.31 2007.02,-618.77 1846.87,-584.37"/>
<polygon fill="black" stroke="black" points="1847.19,-580.86 1836.68,-582.19 1845.72,-587.7 1847.19,-580.86"/>
</g>
<!-- dragen_fusions -->
<g id="node9" class="node">
<title>dragen_fusions</title>
<polygon fill="#94ddf4" stroke="black" points="2586.5,-880.24 2586.5,-917.24 2711.5,-917.24 2711.5,-880.24 2586.5,-880.24"/>
<text text-anchor="middle" x="2649" y="-895.04" font-family="Times,serif" font-size="14.00">dragen_fusions</text>
</g>
<!-- dragen_fusions&#45;&gt;run_rnasum_step -->
<g id="edge9" class="edge">
<title>dragen_fusions&#45;&gt;run_rnasum_step</title>
<path fill="none" stroke="black" d="M2626.95,-880.21C2613.4,-870.04 2595.36,-857.55 2578,-848.74 2317.62,-716.66 1980.13,-621.96 1840.67,-585.85"/>
<polygon fill="black" stroke="black" points="1841.13,-582.36 1830.57,-583.25 1839.38,-589.14 1841.13,-582.36"/>
</g>
<!-- dragen_mapping_metrics -->
<g id="node10" class="node">
<title>dragen_mapping_metrics</title>
<polygon fill="#94ddf4" stroke="black" points="2371.5,-880.24 2371.5,-917.24 2568.5,-917.24 2568.5,-880.24 2371.5,-880.24"/>
<text text-anchor="middle" x="2470" y="-895.04" font-family="Times,serif" font-size="14.00">dragen_mapping_metrics</text>
</g>
<!-- dragen_mapping_metrics&#45;&gt;run_rnasum_step -->
<g id="edge10" class="edge">
<title>dragen_mapping_metrics&#45;&gt;run_rnasum_step</title>
<path fill="none" stroke="black" d="M2432.69,-880.1C2313.87,-823.95 1944.8,-649.51 1818.72,-589.93"/>
<polygon fill="black" stroke="black" points="1819.91,-586.62 1809.37,-585.51 1816.92,-592.95 1819.91,-586.62"/>
</g>
<!-- dragen_wts_dir -->
<g id="node11" class="node">
<title>dragen_wts_dir</title>
<polygon fill="#94ddf4" stroke="black" points="2227,-880.24 2227,-917.24 2353,-917.24 2353,-880.24 2227,-880.24"/>
<text text-anchor="middle" x="2290" y="-895.04" font-family="Times,serif" font-size="14.00">dragen_wts_dir</text>
</g>
<!-- dragen_wts_dir&#45;&gt;run_rnasum_step -->
<g id="edge11" class="edge">
<title>dragen_wts_dir&#45;&gt;run_rnasum_step</title>
<path fill="none" stroke="black" d="M2264.49,-880.06C2250.78,-870.64 2233.55,-858.93 2218,-848.74 2068.14,-750.49 1886.48,-637.8 1811.25,-591.41"/>
<polygon fill="black" stroke="black" points="1812.96,-588.36 1802.61,-586.09 1809.28,-594.31 1812.96,-588.36"/>
</g>
<!-- drugs -->
<g id="node12" class="node">
<title>drugs</title>
<polygon fill="#94ddf4" stroke="black" points="2151,-880.24 2151,-917.24 2209,-917.24 2209,-880.24 2151,-880.24"/>
<text text-anchor="middle" x="2180" y="-895.04" font-family="Times,serif" font-size="14.00">drugs</text>
</g>
<!-- drugs&#45;&gt;run_rnasum_step -->
<g id="edge12" class="edge">
<title>drugs&#45;&gt;run_rnasum_step</title>
<path fill="none" stroke="black" d="M2168.01,-880.05C2160.99,-870.31 2151.63,-858.29 2142,-848.74 2032.06,-739.7 1878.82,-635.86 1810.85,-591.84"/>
<polygon fill="black" stroke="black" points="1812.52,-588.75 1802.22,-586.27 1808.73,-594.63 1812.52,-588.75"/>
</g>
<!-- filter -->
<g id="node13" class="node">
<title>filter</title>
<polygon fill="#94ddf4" stroke="black" points="2079,-880.24 2079,-917.24 2133,-917.24 2133,-880.24 2079,-880.24"/>
<text text-anchor="middle" x="2106" y="-895.04" font-family="Times,serif" font-size="14.00">filter</text>
</g>
<!-- filter&#45;&gt;run_rnasum_step -->
<g id="edge13" class="edge">
<title>filter&#45;&gt;run_rnasum_step</title>
<path fill="none" stroke="black" d="M2094.06,-879.92C2087.37,-870.36 2078.66,-858.56 2070,-848.74 1979.92,-746.57 1857.98,-639.4 1803.86,-593.2"/>
<polygon fill="black" stroke="black" points="1805.96,-590.39 1796.07,-586.57 1801.42,-595.72 1805.96,-590.39"/>
</g>
<!-- immunogram -->
<g id="node14" class="node">
<title>immunogram</title>
<polygon fill="#94ddf4" stroke="black" points="1949,-880.24 1949,-917.24 2061,-917.24 2061,-880.24 1949,-880.24"/>
<text text-anchor="middle" x="2005" y="-895.04" font-family="Times,serif" font-size="14.00">immunogram</text>
</g>
<!-- immunogram&#45;&gt;run_rnasum_step -->
<g id="edge14" class="edge">
<title>immunogram&#45;&gt;run_rnasum_step</title>
<path fill="none" stroke="black" d="M1992.69,-880.1C1954.53,-825.46 1838.17,-658.79 1793.62,-594.97"/>
<polygon fill="black" stroke="black" points="1796.41,-592.86 1787.82,-586.67 1790.67,-596.87 1796.41,-592.86"/>
</g>
<!-- log -->
<g id="node15" class="node">
<title>log</title>
<polygon fill="#94ddf4" stroke="black" points="1877,-880.24 1877,-917.24 1931,-917.24 1931,-880.24 1877,-880.24"/>
<text text-anchor="middle" x="1904" y="-895.04" font-family="Times,serif" font-size="14.00">log</text>
</g>
<!-- log&#45;&gt;run_rnasum_step -->
<g id="edge15" class="edge">
<title>log&#45;&gt;run_rnasum_step</title>
<path fill="none" stroke="black" d="M1897.12,-880.1C1875.97,-825.92 1811.85,-661.6 1786.49,-596.61"/>
<polygon fill="black" stroke="black" points="1789.66,-595.1 1782.76,-587.06 1783.14,-597.65 1789.66,-595.1"/>
</g>
<!-- norm -->
<g id="node16" class="node">
<title>norm</title>
<polygon fill="#94ddf4" stroke="black" points="1805,-880.24 1805,-917.24 1859,-917.24 1859,-880.24 1805,-880.24"/>
<text text-anchor="middle" x="1832" y="-895.04" font-family="Times,serif" font-size="14.00">norm</text>
</g>
<!-- norm&#45;&gt;run_rnasum_step -->
<g id="edge16" class="edge">
<title>norm&#45;&gt;run_rnasum_step</title>
<path fill="none" stroke="black" d="M1828.99,-880.1C1819.76,-826.03 1791.8,-662.27 1780.66,-597.01"/>
<polygon fill="black" stroke="black" points="1784.09,-596.33 1778.96,-587.06 1777.19,-597.51 1784.09,-596.33"/>
</g>
<!-- pcgr_splice_vars -->
<g id="node17" class="node">
<title>pcgr_splice_vars</title>
<polygon fill="#94ddf4" stroke="black" points="1653,-880.24 1653,-917.24 1787,-917.24 1787,-880.24 1653,-880.24"/>
<text text-anchor="middle" x="1720" y="-895.04" font-family="Times,serif" font-size="14.00">pcgr_splice_vars</text>
</g>
<!-- pcgr_splice_vars&#45;&gt;run_rnasum_step -->
<g id="edge17" class="edge">
<title>pcgr_splice_vars&#45;&gt;run_rnasum_step</title>
<path fill="none" stroke="black" d="M1723.01,-880.1C1732.24,-826.03 1760.2,-662.27 1771.34,-597.01"/>
<polygon fill="black" stroke="black" points="1774.81,-597.51 1773.04,-587.06 1767.91,-596.33 1774.81,-597.51"/>
</g>
<!-- pcgr_tier -->
<g id="node18" class="node">
<title>pcgr_tier</title>
<polygon fill="#94ddf4" stroke="black" points="1553.5,-880.24 1553.5,-917.24 1634.5,-917.24 1634.5,-880.24 1553.5,-880.24"/>
<text text-anchor="middle" x="1594" y="-895.04" font-family="Times,serif" font-size="14.00">pcgr_tier</text>
</g>
<!-- pcgr_tier&#45;&gt;run_rnasum_step -->
<g id="edge18" class="edge">
<title>pcgr_tier&#45;&gt;run_rnasum_step</title>
<path fill="none" stroke="black" d="M1603.79,-880.1C1633.98,-825.68 1725.83,-660.15 1761.56,-595.76"/>
<polygon fill="black" stroke="black" points="1764.81,-597.11 1766.61,-586.67 1758.69,-593.71 1764.81,-597.11"/>
</g>
<!-- pcgr_tiers_tsv -->
<g id="node19" class="node">
<title>pcgr_tiers_tsv</title>
<polygon fill="#94ddf4" stroke="black" points="1418.5,-880.24 1418.5,-917.24 1535.5,-917.24 1535.5,-880.24 1418.5,-880.24"/>
<text text-anchor="middle" x="1477" y="-895.04" font-family="Times,serif" font-size="14.00">pcgr_tiers_tsv</text>
</g>
<!-- pcgr_tiers_tsv&#45;&gt;run_rnasum_step -->
<g id="edge19" class="edge">
<title>pcgr_tiers_tsv&#45;&gt;run_rnasum_step</title>
<path fill="none" stroke="black" d="M1493.08,-880.1C1543.1,-825.23 1696.07,-657.42 1753.71,-594.19"/>
<polygon fill="black" stroke="black" points="1756.42,-596.42 1760.57,-586.67 1751.24,-591.7 1756.42,-596.42"/>
</g>
<!-- project -->
<g id="node20" class="node">
<title>project</title>
<polygon fill="#94ddf4" stroke="black" points="1333.5,-880.24 1333.5,-917.24 1400.5,-917.24 1400.5,-880.24 1333.5,-880.24"/>
<text text-anchor="middle" x="1367" y="-895.04" font-family="Times,serif" font-size="14.00">project</text>
</g>
<!-- project&#45;&gt;run_rnasum_step -->
<g id="edge20" class="edge">
<title>project&#45;&gt;run_rnasum_step</title>
<path fill="none" stroke="black" d="M1380.94,-880.19C1388.99,-870.49 1399.57,-858.47 1410,-848.74 1523.76,-742.56 1676.26,-636.46 1742.71,-591.77"/>
<polygon fill="black" stroke="black" points="1744.77,-594.6 1751.13,-586.13 1740.88,-588.79 1744.77,-594.6"/>
</g>
<!-- purple_gene_tsv -->
<g id="node21" class="node">
<title>purple_gene_tsv</title>
<polygon fill="#94ddf4" stroke="black" points="1182.5,-880.24 1182.5,-917.24 1315.5,-917.24 1315.5,-880.24 1182.5,-880.24"/>
<text text-anchor="middle" x="1249" y="-895.04" font-family="Times,serif" font-size="14.00">purple_gene_tsv</text>
</g>
<!-- purple_gene_tsv&#45;&gt;run_rnasum_step -->
<g id="edge21" class="edge">
<title>purple_gene_tsv&#45;&gt;run_rnasum_step</title>
<path fill="none" stroke="black" d="M1276.01,-880.15C1290.49,-870.76 1308.67,-859.05 1325,-848.74 1478.91,-751.53 1664.09,-638.06 1740.44,-591.42"/>
<polygon fill="black" stroke="black" points="1742.49,-594.27 1749.2,-586.07 1738.85,-588.3 1742.49,-594.27"/>
</g>
<!-- report_dir -->
<g id="node22" class="node">
<title>report_dir</title>
<polygon fill="#94ddf4" stroke="black" points="1075.5,-880.24 1075.5,-917.24 1164.5,-917.24 1164.5,-880.24 1075.5,-880.24"/>
<text text-anchor="middle" x="1120" y="-895.04" font-family="Times,serif" font-size="14.00">report_dir</text>
</g>
<!-- report_dir&#45;&gt;run_rnasum_step -->
<g id="edge22" class="edge">
<title>report_dir&#45;&gt;run_rnasum_step</title>
<path fill="none" stroke="black" d="M1136.87,-879.95C1146.99,-869.94 1160.49,-857.69 1174,-848.74 1361.84,-724.21 1614.17,-627.07 1722.71,-588.18"/>
<polygon fill="black" stroke="black" points="1724.21,-591.37 1732.45,-584.71 1721.86,-584.77 1724.21,-591.37"/>
</g>
<!-- salmon -->
<g id="node23" class="node">
<title>salmon</title>
<polygon fill="#94ddf4" stroke="black" points="989,-880.24 989,-917.24 1057,-917.24 1057,-880.24 989,-880.24"/>
<text text-anchor="middle" x="1023" y="-895.04" font-family="Times,serif" font-size="14.00">salmon</text>
</g>
<!-- salmon&#45;&gt;run_rnasum_step -->
<g id="edge23" class="edge">
<title>salmon&#45;&gt;run_rnasum_step</title>
<path fill="none" stroke="black" d="M1035.61,-879.97C1043.64,-869.72 1054.79,-857.22 1067,-848.74 1277.72,-702.4 1576.1,-617.66 1708.37,-585.17"/>
<polygon fill="black" stroke="black" points="1709.47,-588.51 1718.36,-582.74 1707.82,-581.71 1709.47,-588.51"/>
</g>
<!-- sample_name -->
<g id="node24" class="node">
<title>sample_name</title>
<polygon fill="#94ddf4" stroke="black" points="857.5,-880.24 857.5,-917.24 970.5,-917.24 970.5,-880.24 857.5,-880.24"/>
<text text-anchor="middle" x="914" y="-895.04" font-family="Times,serif" font-size="14.00">sample_name</text>
</g>
<!-- sample_name&#45;&gt;run_rnasum_step -->
<g id="edge24" class="edge">
<title>sample_name&#45;&gt;run_rnasum_step</title>
<path fill="none" stroke="black" d="M934.32,-880.13C946.85,-869.93 963.61,-857.43 980,-848.74 1235.48,-713.16 1570.56,-620.71 1710.34,-585.54"/>
<polygon fill="black" stroke="black" points="1711.21,-588.93 1720.06,-583.11 1709.51,-582.14 1711.21,-588.93"/>
</g>
<!-- sample_source -->
<g id="node25" class="node">
<title>sample_source</title>
<polygon fill="#94ddf4" stroke="black" points="717,-880.24 717,-917.24 839,-917.24 839,-880.24 717,-880.24"/>
<text text-anchor="middle" x="778" y="-895.04" font-family="Times,serif" font-size="14.00">sample_source</text>
</g>
<!-- sample_source&#45;&gt;run_rnasum_step -->
<g id="edge25" class="edge">
<title>sample_source&#45;&gt;run_rnasum_step</title>
<path fill="none" stroke="black" d="M799.61,-880.18C813.14,-869.87 831.32,-857.24 849,-848.74 1149.69,-704.15 1541.47,-616.03 1702.25,-583.75"/>
<polygon fill="black" stroke="black" points="1703.38,-587.09 1712.51,-581.71 1702.01,-580.23 1703.38,-587.09"/>
</g>
<!-- save_tables -->
<g id="node26" class="node">
<title>save_tables</title>
<polygon fill="#94ddf4" stroke="black" points="599.5,-880.24 599.5,-917.24 698.5,-917.24 698.5,-880.24 599.5,-880.24"/>
<text text-anchor="middle" x="649" y="-895.04" font-family="Times,serif" font-size="14.00">save_tables</text>
</g>
<!-- save_tables&#45;&gt;run_rnasum_step -->
<g id="edge26" class="edge">
<title>save_tables&#45;&gt;run_rnasum_step</title>
<path fill="none" stroke="black" d="M666.11,-880.04C677.17,-869.54 692.36,-856.76 708,-848.74 1045.53,-675.46 1499.76,-603.33 1688.31,-579.53"/>
<polygon fill="black" stroke="black" points="1688.95,-582.98 1698.44,-578.27 1688.09,-576.03 1688.95,-582.98"/>
</g>
<!-- scaling -->
<g id="node27" class="node">
<title>scaling</title>
<polygon fill="#94ddf4" stroke="black" points="514.5,-880.24 514.5,-917.24 581.5,-917.24 581.5,-880.24 514.5,-880.24"/>
<text text-anchor="middle" x="548" y="-895.04" font-family="Times,serif" font-size="14.00">scaling</text>
</g>
<!-- scaling&#45;&gt;run_rnasum_step -->
<g id="edge27" class="edge">
<title>scaling&#45;&gt;run_rnasum_step</title>
<path fill="none" stroke="black" d="M559.48,-879.8C567.16,-869.22 578.19,-856.43 591,-848.74 949.98,-633.12 1463.1,-584.14 1676.75,-573.01"/>
<polygon fill="black" stroke="black" points="1677.19,-576.49 1687,-572.49 1676.84,-569.5 1677.19,-576.49"/>
</g>
<!-- subject_id -->
<g id="node28" class="node">
<title>subject_id</title>
<polygon fill="#94ddf4" stroke="black" points="407.5,-880.24 407.5,-917.24 496.5,-917.24 496.5,-880.24 407.5,-880.24"/>
<text text-anchor="middle" x="452" y="-895.04" font-family="Times,serif" font-size="14.00">subject_id</text>
</g>
<!-- subject_id&#45;&gt;run_rnasum_step -->
<g id="edge28" class="edge">
<title>subject_id&#45;&gt;run_rnasum_step</title>
<path fill="none" stroke="black" d="M467.28,-879.78C477.26,-869.19 491.15,-856.4 506,-848.74 907.08,-641.67 1456.39,-587.86 1677.7,-574.23"/>
<polygon fill="black" stroke="black" points="1678.22,-577.7 1687.99,-573.61 1677.8,-570.71 1678.22,-577.7"/>
</g>
<!-- sv_tsv -->
<g id="node29" class="node">
<title>sv_tsv</title>
<polygon fill="#94ddf4" stroke="black" points="328.5,-880.24 328.5,-917.24 389.5,-917.24 389.5,-880.24 328.5,-880.24"/>
<text text-anchor="middle" x="359" y="-895.04" font-family="Times,serif" font-size="14.00">sv_tsv</text>
</g>
<!-- sv_tsv&#45;&gt;run_rnasum_step -->
<g id="edge29" class="edge">
<title>sv_tsv&#45;&gt;run_rnasum_step</title>
<path fill="none" stroke="black" d="M369.01,-880.14C376.03,-869.41 386.4,-856.34 399,-848.74 620.77,-714.88 1422.4,-611.09 1689.06,-579.61"/>
<polygon fill="black" stroke="black" points="1689.55,-583.08 1699.07,-578.44 1688.73,-576.13 1689.55,-583.08"/>
</g>
<!-- top_genes -->
<g id="node30" class="node">
<title>top_genes</title>
<polygon fill="#94ddf4" stroke="black" points="221.5,-880.24 221.5,-917.24 310.5,-917.24 310.5,-880.24 221.5,-880.24"/>
<text text-anchor="middle" x="266" y="-895.04" font-family="Times,serif" font-size="14.00">top_genes</text>
</g>
<!-- top_genes&#45;&gt;run_rnasum_step -->
<g id="edge30" class="edge">
<title>top_genes&#45;&gt;run_rnasum_step</title>
<path fill="none" stroke="black" d="M280.76,-880.12C290.74,-869.39 304.82,-856.32 320,-848.74 787.63,-615.24 1429.61,-576.63 1675.03,-570.64"/>
<polygon fill="black" stroke="black" points="1675.44,-574.13 1685.36,-570.4 1675.28,-567.13 1675.44,-574.13"/>
</g>
<!-- transform -->
<g id="node31" class="node">
<title>transform</title>
<polygon fill="#94ddf4" stroke="black" points="116,-880.24 116,-917.24 204,-917.24 204,-880.24 116,-880.24"/>
<text text-anchor="middle" x="160" y="-895.04" font-family="Times,serif" font-size="14.00">transform</text>
</g>
<!-- transform&#45;&gt;run_rnasum_step -->
<g id="edge31" class="edge">
<title>transform&#45;&gt;run_rnasum_step</title>
<path fill="none" stroke="black" d="M174.39,-880.05C184.15,-869.29 197.96,-856.21 213,-848.74 477.81,-717.07 1396.84,-610.11 1687.29,-578.94"/>
<polygon fill="black" stroke="black" points="1687.78,-582.41 1697.35,-577.87 1687.04,-575.45 1687.78,-582.41"/>
</g>
<!-- umccrise -->
<g id="node32" class="node">
<title>umccrise</title>
<polygon fill="#94ddf4" stroke="black" points="16.5,-880.24 16.5,-917.24 97.5,-917.24 97.5,-880.24 16.5,-880.24"/>
<text text-anchor="middle" x="57" y="-895.04" font-family="Times,serif" font-size="14.00">umccrise</text>
</g>
<!-- umccrise&#45;&gt;run_rnasum_step -->
<g id="edge32" class="edge">
<title>umccrise&#45;&gt;run_rnasum_step</title>
<path fill="none" stroke="black" d="M70.35,-879.99C79.46,-869.2 92.48,-856.12 107,-848.74 388.98,-705.34 1377.74,-605.75 1684.52,-577.75"/>
<polygon fill="black" stroke="black" points="1685.06,-581.22 1694.7,-576.83 1684.43,-574.25 1685.06,-581.22"/>
</g>
<!-- rnasum_html -->
<g id="node33" class="node">
<title>rnasum_html</title>
<polygon fill="#94ddf4" stroke="black" points="1807,-233.24 1807,-270.24 1917,-270.24 1917,-233.24 1807,-233.24"/>
<text text-anchor="middle" x="1862" y="-248.04" font-family="Times,serif" font-size="14.00">rnasum_html</text>
</g>
<!-- rnasum_output_directory -->
<g id="node34" class="node">
<title>rnasum_output_directory</title>
<polygon fill="#94ddf4" stroke="black" points="1591.5,-233.24 1591.5,-270.24 1788.5,-270.24 1788.5,-233.24 1591.5,-233.24"/>
<text text-anchor="middle" x="1690" y="-248.04" font-family="Times,serif" font-size="14.00">rnasum_output_directory</text>
</g>
<!-- run_rnasum_step&#45;&gt;rnasum_html -->
<g id="edge33" class="edge">
<title>run_rnasum_step&#45;&gt;rnasum_html</title>
<path fill="none" stroke="black" d="M1780.75,-550.35C1794.96,-498.31 1837.24,-343.43 1854.52,-280.14"/>
<polygon fill="black" stroke="black" points="1857.91,-281.03 1857.16,-270.46 1851.15,-279.18 1857.91,-281.03"/>
</g>
<!-- run_rnasum_step&#45;&gt;rnasum_output_directory -->
<g id="edge34" class="edge">
<title>run_rnasum_step&#45;&gt;rnasum_output_directory</title>
<path fill="none" stroke="black" d="M1771.25,-550.35C1757.04,-498.31 1714.76,-343.43 1697.48,-280.14"/>
<polygon fill="black" stroke="black" points="1700.85,-279.18 1694.84,-270.46 1694.09,-281.03 1700.85,-279.18"/>
</g>
<!-- \n -->
<g id="node36" class="node">
<title>\n</title>
<ellipse fill="none" stroke="black" cx="3609" cy="-898.74" rx="27" ry="18"/>
</g>
</g>
</svg>
