<?xml version="1.0" encoding="UTF-8" standalone="no"?>
<!DOCTYPE svg PUBLIC "-//W3C//DTD SVG 1.1//EN"
 "http://www.w3.org/Graphics/SVG/1.1/DTD/svg11.dtd">
<!-- Generated by graphviz version 2.40.1 (20161225.0304)
 -->
<!-- Title: G Pages: 1 -->
<svg width="1944pt" height="741pt"
 viewBox="0.00 0.00 1943.50 741.36" xmlns="http://www.w3.org/2000/svg" xmlns:xlink="http://www.w3.org/1999/xlink">
<g id="graph0" class="graph" transform="scale(1 1) rotate(0) translate(4 737.365)">
<title>G</title>
<polygon fill="#eeeeee" stroke="transparent" points="-4,4 -4,-737.365 1939.5,-737.365 1939.5,4 -4,4"/>
<g id="clust1" class="cluster">
<title>cluster_inputs</title>
<polygon fill="#eeeeee" stroke="#000000" stroke-dasharray="5,2" points="8,-386.1094 8,-573.0932 1470,-573.0932 1470,-386.1094 8,-386.1094"/>
<text text-anchor="middle" x="1402" y="-393.9094" font-family="Times,serif" font-size="14.00" fill="#000000">Workflow Inputs</text>
</g>
<g id="clust2" class="cluster">
<title>cluster_outputs</title>
<polygon fill="#eeeeee" stroke="#000000" stroke-dasharray="5,2" points="845,-19.4269 845,-206.4107 999,-206.4107 999,-19.4269 845,-19.4269"/>
<text text-anchor="middle" x="925" y="-27.2269" font-family="Times,serif" font-size="14.00" fill="#000000">Workflow Outputs</text>
</g>
<!-- file:///tmp/tmpe745snc6#restarts -->
<g id="node1" class="node">
<title>file:///tmp/tmpe745snc6#restarts</title>
<g id="a_node1"><a xlink:title="Number of attempts to complete a job&#10;">
<polygon fill="#94ddf4" stroke="#000000" points="1388,-488.9269 1388,-525.9269 1462,-525.9269 1462,-488.9269 1388,-488.9269"/>
<text text-anchor="middle" x="1425" y="-503.7269" font-family="Times,serif" font-size="14.00" fill="#000000">restarts</text>
</a>
</g>
</g>
<!-- file:///tmp/tmpe745snc6#run_umccrise_step -->
<g id="node17" class="node">
<title>file:///tmp/tmpe745snc6#run_umccrise_step</title>
<g id="a_node17"><a xlink:href="https://github.com/umccr/cwl-ica/blob/main/.github/catalogue/docs/tools/umccrise/1.2.2--0/umccrise__1.2.2--0.md" xlink:title="Run the umccrise step&#10;">
<polygon fill="#fafad2" stroke="#000000" points="842,-301.9269 842,-338.9269 1002,-338.9269 1002,-301.9269 842,-301.9269"/>
<text text-anchor="middle" x="922" y="-316.7269" font-family="Times,serif" font-size="14.00" fill="#000000">umccrise v(1.2.2&#45;&#45;0)</text>
</a>
</g>
</g>
<!-- file:///tmp/tmpe745snc6#restarts&#45;&gt;file:///tmp/tmpe745snc6#run_umccrise_step -->
<g id="edge5" class="edge">
<title>file:///tmp/tmpe745snc6#restarts&#45;&gt;file:///tmp/tmpe745snc6#run_umccrise_step</title>
<path fill="none" stroke="#000000" d="M1411.9858,-488.9242C1403.6578,-478.3276 1391.9987,-465.561 1379,-457.4269 1263.8848,-385.3919 1108.7801,-349.4333 1012.1196,-332.8873"/>
<polygon fill="#000000" stroke="#000000" points="1012.5227,-329.4061 1002.0813,-331.2028 1011.3642,-336.3095 1012.5227,-329.4061"/>
</g>
<!-- file:///tmp/tmpe745snc6#stage -->
<g id="node2" class="node">
<title>file:///tmp/tmpe745snc6#stage</title>
<g id="a_node2"><a xlink:title="Optionally, specific stage to run, e.g.: &#45;T pcgr &#45;T coverage &#45;T structural &#45;T small_variants&#10;">
<polygon fill="#94ddf4" stroke="#000000" points="1314,-488.9269 1314,-525.9269 1370,-525.9269 1370,-488.9269 1314,-488.9269"/>
<text text-anchor="middle" x="1342" y="-503.7269" font-family="Times,serif" font-size="14.00" fill="#000000">stage</text>
</a>
</g>
</g>
<!-- file:///tmp/tmpe745snc6#stage&#45;&gt;file:///tmp/tmpe745snc6#run_umccrise_step -->
<g id="edge6" class="edge">
<title>file:///tmp/tmpe745snc6#stage&#45;&gt;file:///tmp/tmpe745snc6#run_umccrise_step</title>
<path fill="none" stroke="#000000" d="M1331.8237,-488.6065C1325.3483,-478.1664 1316.0983,-465.6664 1305,-457.4269 1216.8684,-391.9975 1094.5679,-355.5164 1012.0787,-336.9511"/>
<polygon fill="#000000" stroke="#000000" points="1012.7407,-333.513 1002.2213,-334.7751 1011.2318,-340.3484 1012.7407,-333.513"/>
</g>
<!-- file:///tmp/tmpe745snc6#skip_stage -->
<g id="node3" class="node">
<title>file:///tmp/tmpe745snc6#skip_stage</title>
<g id="a_node3"><a xlink:title="Optionally, stages to skip, e.g.: &#45;E oncoviruses &#45;E cpsr&#10;">
<polygon fill="#94ddf4" stroke="#000000" points="1202.5,-488.9269 1202.5,-525.9269 1295.5,-525.9269 1295.5,-488.9269 1202.5,-488.9269"/>
<text text-anchor="middle" x="1249" y="-503.7269" font-family="Times,serif" font-size="14.00" fill="#000000">skip_stage</text>
</a>
</g>
</g>
<!-- file:///tmp/tmpe745snc6#skip_stage&#45;&gt;file:///tmp/tmpe745snc6#run_umccrise_step -->
<g id="edge7" class="edge">
<title>file:///tmp/tmpe745snc6#skip_stage&#45;&gt;file:///tmp/tmpe745snc6#run_umccrise_step</title>
<path fill="none" stroke="#000000" d="M1230.7293,-488.4851C1220.503,-478.5054 1207.1868,-466.4911 1194,-457.4269 1123.771,-409.1535 1034.156,-367.3602 977.4035,-343.0223"/>
<polygon fill="#000000" stroke="#000000" points="978.466,-339.6708 967.894,-338.9758 975.7251,-346.1119 978.466,-339.6708"/>
</g>
<!-- file:///tmp/tmpe745snc6#genomes_tar -->
<g id="node4" class="node">
<title>file:///tmp/tmpe745snc6#genomes_tar</title>
<g id="a_node4"><a xlink:title="The reference data bundle for the umccrise tool&#10;">
<polygon fill="#94ddf4" stroke="#000000" points="1075.5,-488.9269 1075.5,-525.9269 1184.5,-525.9269 1184.5,-488.9269 1075.5,-488.9269"/>
<text text-anchor="middle" x="1130" y="-503.7269" font-family="Times,serif" font-size="14.00" fill="#000000">genomes_tar</text>
</a>
</g>
</g>
<!-- file:///tmp/tmpe745snc6#genomes_tar&#45;&gt;file:///tmp/tmpe745snc6#run_umccrise_step -->
<g id="edge8" class="edge">
<title>file:///tmp/tmpe745snc6#genomes_tar&#45;&gt;file:///tmp/tmpe745snc6#run_umccrise_step</title>
<path fill="none" stroke="#000000" d="M1109.2957,-488.813C1071.7624,-455.0691 992.4576,-383.771 950.0844,-345.6758"/>
<polygon fill="#000000" stroke="#000000" points="952.3971,-343.0485 942.6205,-338.9655 947.7171,-348.2541 952.3971,-343.0485"/>
</g>
<!-- file:///tmp/tmpe745snc6#resources -->
<g id="node5" class="node">
<title>file:///tmp/tmpe745snc6#resources</title>
<g id="a_node5"><a xlink:title="Can be used to limit the amount of memory allowed to be used&#10;">
<polygon fill="#94ddf4" stroke="#000000" points="970.5,-488.9269 970.5,-525.9269 1057.5,-525.9269 1057.5,-488.9269 970.5,-488.9269"/>
<text text-anchor="middle" x="1014" y="-503.7269" font-family="Times,serif" font-size="14.00" fill="#000000">resources</text>
</a>
</g>
</g>
<!-- file:///tmp/tmpe745snc6#resources&#45;&gt;file:///tmp/tmpe745snc6#run_umccrise_step -->
<g id="edge9" class="edge">
<title>file:///tmp/tmpe745snc6#resources&#45;&gt;file:///tmp/tmpe745snc6#run_umccrise_step</title>
<path fill="none" stroke="#000000" d="M1004.8423,-488.813C988.5855,-455.7692 954.6115,-386.7133 935.6092,-348.0891"/>
<polygon fill="#000000" stroke="#000000" points="938.6757,-346.3933 931.1206,-338.9655 932.3946,-349.4835 938.6757,-346.3933"/>
</g>
<!-- file:///tmp/tmpe745snc6#debug -->
<g id="node6" class="node">
<title>file:///tmp/tmpe745snc6#debug</title>
<g id="a_node6"><a xlink:title="More verbose messages&#10;">
<polygon fill="#94ddf4" stroke="#000000" points="891.5,-488.9269 891.5,-525.9269 952.5,-525.9269 952.5,-488.9269 891.5,-488.9269"/>
<text text-anchor="middle" x="922" y="-503.7269" font-family="Times,serif" font-size="14.00" fill="#000000">debug</text>
</a>
</g>
</g>
<!-- file:///tmp/tmpe745snc6#debug&#45;&gt;file:///tmp/tmpe745snc6#run_umccrise_step -->
<g id="edge10" class="edge">
<title>file:///tmp/tmpe745snc6#debug&#45;&gt;file:///tmp/tmpe745snc6#run_umccrise_step</title>
<path fill="none" stroke="#000000" d="M922,-488.813C922,-456.0492 922,-387.8811 922,-349.0776"/>
<polygon fill="#000000" stroke="#000000" points="925.5001,-348.9655 922,-338.9655 918.5001,-348.9656 925.5001,-348.9655"/>
</g>
<!-- file:///tmp/tmpe745snc6#umccrise_tsv_rows -->
<g id="node7" class="node">
<title>file:///tmp/tmpe745snc6#umccrise_tsv_rows</title>
<g id="a_node7"><a xlink:title="The list of tsv rows schema&#10;">
<polygon fill="#94ddf4" stroke="#000000" points="719,-488.9269 719,-525.9269 873,-525.9269 873,-488.9269 719,-488.9269"/>
<text text-anchor="middle" x="796" y="-503.7269" font-family="Times,serif" font-size="14.00" fill="#000000">umccrise_tsv_rows</text>
</a>
</g>
</g>
<!-- file:///tmp/tmpe745snc6#create_mount_paths_and_umccrise_tsv_input_jsons_step -->
<g id="node18" class="node">
<title>file:///tmp/tmpe745snc6#create_mount_paths_and_umccrise_tsv_input_jsons_step</title>
<g id="a_node18"><a xlink:href="https://github.com/umccr/cwl-ica/blob/main/.github/catalogue/docs/expressions/create-predefined-mount-paths-and-umccrise-row-from-umccrise-schema/1.2.2--0/create-predefined-mount-paths-and-umccrise-row-from-umccrise-schema__1.2.2--0.md" xlink:title="Expression does two main things,&#10;creates a list of predefined mount paths for listing in the umccrise step&#10;and creates a list of jsons that represent umccrise list rows for the tsv creation&#10;">
<polygon fill="#ee9a00" stroke="#000000" points="1318.5,-668.9269 1318.5,-705.9269 1935.5,-705.9269 1935.5,-668.9269 1318.5,-668.9269"/>
<text text-anchor="middle" x="1627" y="-683.7269" font-family="Times,serif" font-size="14.00" fill="#000000">create&#45;predefined&#45;mount&#45;paths&#45;and&#45;umccrise&#45;row&#45;from&#45;umccrise&#45;schema v(1.2.2&#45;&#45;0)</text>
</a>
</g>
</g>
<!-- file:///tmp/tmpe745snc6#umccrise_tsv_rows&#45;&gt;file:///tmp/tmpe745snc6#create_mount_paths_and_umccrise_tsv_input_jsons_step -->
<g id="edge11" class="edge">
<title>file:///tmp/tmpe745snc6#umccrise_tsv_rows&#45;&gt;file:///tmp/tmpe745snc6#create_mount_paths_and_umccrise_tsv_input_jsons_step</title>
<path fill="none" stroke="#000000" d="M852.8651,-525.9516C862.8593,-528.9558 873.1979,-531.9045 883,-534.4269 1102.7192,-590.968 1363.1468,-640.6156 1510.3272,-667.0979"/>
<polygon fill="#000000" stroke="#000000" points="1509.8302,-670.5645 1520.2913,-668.8864 1511.067,-663.6746 1509.8302,-670.5645"/>
</g>
<!-- file:///tmp/tmpe745snc6#min_af -->
<g id="node8" class="node">
<title>file:///tmp/tmpe745snc6#min_af</title>
<g id="a_node8"><a xlink:title="AF threshold to filter small variants (unless a known hotspot)&#10;">
<polygon fill="#94ddf4" stroke="#000000" points="635.5,-488.9269 635.5,-525.9269 700.5,-525.9269 700.5,-488.9269 635.5,-488.9269"/>
<text text-anchor="middle" x="668" y="-503.7269" font-family="Times,serif" font-size="14.00" fill="#000000">min_af</text>
</a>
</g>
</g>
<!-- file:///tmp/tmpe745snc6#min_af&#45;&gt;file:///tmp/tmpe745snc6#run_umccrise_step -->
<g id="edge12" class="edge">
<title>file:///tmp/tmpe745snc6#min_af&#45;&gt;file:///tmp/tmpe745snc6#run_umccrise_step</title>
<path fill="none" stroke="#000000" d="M681.5762,-488.6733C689.2753,-478.7487 699.4587,-466.7271 710,-457.4269 762.724,-410.9106 832.6343,-368.8873 877.4777,-343.997"/>
<polygon fill="#000000" stroke="#000000" points="879.3016,-346.9883 886.3753,-339.1007 875.9268,-340.8555 879.3016,-346.9883"/>
</g>
<!-- file:///tmp/tmpe745snc6#output_directory_name -->
<g id="node9" class="node">
<title>file:///tmp/tmpe745snc6#output_directory_name</title>
<g id="a_node9"><a xlink:title="The name of the output directory&#10;">
<polygon fill="#94ddf4" stroke="#000000" points="433,-488.9269 433,-525.9269 617,-525.9269 617,-488.9269 433,-488.9269"/>
<text text-anchor="middle" x="525" y="-503.7269" font-family="Times,serif" font-size="14.00" fill="#000000">output_directory_name</text>
</a>
</g>
</g>
<!-- file:///tmp/tmpe745snc6#output_directory_name&#45;&gt;file:///tmp/tmpe745snc6#run_umccrise_step -->
<g id="edge13" class="edge">
<title>file:///tmp/tmpe745snc6#output_directory_name&#45;&gt;file:///tmp/tmpe745snc6#run_umccrise_step</title>
<path fill="none" stroke="#000000" d="M562.6915,-488.7163C581.8948,-479.2432 605.6418,-467.6198 627,-457.4269 712.6885,-416.5332 813.0745,-370.258 871.8872,-343.3111"/>
<polygon fill="#000000" stroke="#000000" points="873.6785,-346.3404 881.3133,-338.9947 870.764,-339.976 873.6785,-346.3404"/>
</g>
<!-- file:///tmp/tmpe745snc6#dag -->
<g id="node10" class="node">
<title>file:///tmp/tmpe745snc6#dag</title>
<g id="a_node10"><a xlink:title="Propagated to snakemake. Print the DAG of jobs in the dot language.&#10;">
<polygon fill="#94ddf4" stroke="#000000" points="361,-488.9269 361,-525.9269 415,-525.9269 415,-488.9269 361,-488.9269"/>
<text text-anchor="middle" x="388" y="-503.7269" font-family="Times,serif" font-size="14.00" fill="#000000">dag</text>
</a>
</g>
</g>
<!-- file:///tmp/tmpe745snc6#dag&#45;&gt;file:///tmp/tmpe745snc6#run_umccrise_step -->
<g id="edge14" class="edge">
<title>file:///tmp/tmpe745snc6#dag&#45;&gt;file:///tmp/tmpe745snc6#run_umccrise_step</title>
<path fill="none" stroke="#000000" d="M397.2813,-488.7822C403.4784,-478.1353 412.5835,-465.3657 424,-457.4269 548.4528,-370.8853 725.6954,-338.8988 831.742,-327.1539"/>
<polygon fill="#000000" stroke="#000000" points="832.2076,-330.6241 841.7781,-326.0793 831.4623,-323.6639 832.2076,-330.6241"/>
</g>
<!-- file:///tmp/tmpe745snc6#genome -->
<g id="node11" class="node">
<title>file:///tmp/tmpe745snc6#genome</title>
<g id="a_node11"><a xlink:title="genome">
<polygon fill="#94ddf4" stroke="#000000" points="269.5,-488.9269 269.5,-525.9269 342.5,-525.9269 342.5,-488.9269 269.5,-488.9269"/>
<text text-anchor="middle" x="306" y="-503.7269" font-family="Times,serif" font-size="14.00" fill="#000000">genome</text>
</a>
</g>
</g>
<!-- file:///tmp/tmpe745snc6#genome&#45;&gt;file:///tmp/tmpe745snc6#run_umccrise_step -->
<g id="edge15" class="edge">
<title>file:///tmp/tmpe745snc6#genome&#45;&gt;file:///tmp/tmpe745snc6#run_umccrise_step</title>
<path fill="none" stroke="#000000" d="M318.8542,-488.6604C327.1255,-477.9702 338.7811,-465.198 352,-457.4269 505.0302,-367.4638 714.125,-336.493 831.8541,-325.8899"/>
<polygon fill="#000000" stroke="#000000" points="832.2531,-329.3685 841.9115,-325.0137 831.6455,-322.3949 832.2531,-329.3685"/>
</g>
<!-- file:///tmp/tmpe745snc6#report -->
<g id="node12" class="node">
<title>file:///tmp/tmpe745snc6#report</title>
<g id="a_node12"><a xlink:title="Propagated to snakemake.&#10;Create an HTML report with results and statistics.&#10;The argument has to be a file path ending with &quot;.html&quot;&#10;">
<polygon fill="#94ddf4" stroke="#000000" points="189,-488.9269 189,-525.9269 251,-525.9269 251,-488.9269 189,-488.9269"/>
<text text-anchor="middle" x="220" y="-503.7269" font-family="Times,serif" font-size="14.00" fill="#000000">report</text>
</a>
</g>
</g>
<!-- file:///tmp/tmpe745snc6#report&#45;&gt;file:///tmp/tmpe745snc6#run_umccrise_step -->
<g id="edge16" class="edge">
<title>file:///tmp/tmpe745snc6#report&#45;&gt;file:///tmp/tmpe745snc6#run_umccrise_step</title>
<path fill="none" stroke="#000000" d="M230.9457,-488.5035C238.1367,-477.7578 248.5144,-464.9821 261,-457.4269 356.2313,-399.8008 674.0694,-352.2638 831.7295,-331.5711"/>
<polygon fill="#000000" stroke="#000000" points="832.4154,-335.0113 841.8786,-330.2471 831.5098,-328.0701 832.4154,-335.0113"/>
</g>
<!-- file:///tmp/tmpe745snc6#dryrun -->
<g id="node13" class="node">
<title>file:///tmp/tmpe745snc6#dryrun</title>
<g id="a_node13"><a xlink:title="Propagated to snakemake. Prints rules and commands to be run without actually executing them.&#10;">
<polygon fill="#94ddf4" stroke="#000000" points="105.5,-488.9269 105.5,-525.9269 170.5,-525.9269 170.5,-488.9269 105.5,-488.9269"/>
<text text-anchor="middle" x="138" y="-503.7269" font-family="Times,serif" font-size="14.00" fill="#000000">dryrun</text>
</a>
</g>
</g>
<!-- file:///tmp/tmpe745snc6#dryrun&#45;&gt;file:///tmp/tmpe745snc6#run_umccrise_step -->
<g id="edge17" class="edge">
<title>file:///tmp/tmpe745snc6#dryrun&#45;&gt;file:///tmp/tmpe745snc6#run_umccrise_step</title>
<path fill="none" stroke="#000000" d="M148.9141,-488.899C156.3062,-478.0159 167.0686,-464.9578 180,-457.4269 289.8093,-393.4768 659.3407,-347.7715 831.8642,-329.3865"/>
<polygon fill="#000000" stroke="#000000" points="832.3602,-332.8536 841.9362,-328.3203 831.6233,-325.8925 832.3602,-332.8536"/>
</g>
<!-- file:///tmp/tmpe745snc6#threads -->
<g id="node14" class="node">
<title>file:///tmp/tmpe745snc6#threads</title>
<g id="a_node14"><a xlink:title="Maximum number of cores to use at single time.&#10;Defaults to runtime.cores&#10;">
<polygon fill="#94ddf4" stroke="#000000" points="16.5,-488.9269 16.5,-525.9269 87.5,-525.9269 87.5,-488.9269 16.5,-488.9269"/>
<text text-anchor="middle" x="52" y="-503.7269" font-family="Times,serif" font-size="14.00" fill="#000000">threads</text>
</a>
</g>
</g>
<!-- file:///tmp/tmpe745snc6#threads&#45;&gt;file:///tmp/tmpe745snc6#run_umccrise_step -->
<g id="edge18" class="edge">
<title>file:///tmp/tmpe745snc6#threads&#45;&gt;file:///tmp/tmpe745snc6#run_umccrise_step</title>
<path fill="none" stroke="#000000" d="M63.9302,-488.8124C71.9393,-477.8967 83.4809,-464.8347 97,-457.4269 222.653,-388.575 644.9336,-344.4564 831.7713,-327.8591"/>
<polygon fill="#000000" stroke="#000000" points="832.1879,-331.3361 841.8417,-326.971 831.5728,-324.3631 832.1879,-331.3361"/>
</g>
<!-- file:///tmp/tmpe745snc6#output_directory -->
<g id="node15" class="node">
<title>file:///tmp/tmpe745snc6#output_directory</title>
<g id="a_node15"><a xlink:title="The umccrise output directory&#10;">
<polygon fill="#94ddf4" stroke="#000000" points="853.5,-121.9269 853.5,-158.9269 990.5,-158.9269 990.5,-121.9269 853.5,-121.9269"/>
<text text-anchor="middle" x="922" y="-136.7269" font-family="Times,serif" font-size="14.00" fill="#000000">output_directory</text>
</a>
</g>
</g>
<!-- file:///tmp/tmpe745snc6#create_umccrise_tsv_step -->
<g id="node16" class="node">
<title>file:///tmp/tmpe745snc6#create_umccrise_tsv_step</title>
<g id="a_node16"><a xlink:href="https://github.com/umccr/cwl-ica/blob/main/.github/catalogue/docs/tools/custom-create-umccrise-tsv/1.2.2--0/custom-create-umccrise-tsv__1.2.2--0.md" xlink:title="Create the umccrise tsv from the jsonised input rows&#10;">
<polygon fill="#fafad2" stroke="#000000" points="1480.5,-488.9269 1480.5,-525.9269 1773.5,-525.9269 1773.5,-488.9269 1480.5,-488.9269"/>
<text text-anchor="middle" x="1627" y="-503.7269" font-family="Times,serif" font-size="14.00" fill="#000000">custom&#45;create&#45;umccrise&#45;tsv v(1.2.2&#45;&#45;0)</text>
</a>
</g>
</g>
<!-- file:///tmp/tmpe745snc6#create_umccrise_tsv_step&#45;&gt;file:///tmp/tmpe745snc6#run_umccrise_step -->
<g id="edge1" class="edge">
<title>file:///tmp/tmpe745snc6#create_umccrise_tsv_step&#45;&gt;file:///tmp/tmpe745snc6#run_umccrise_step</title>
<path fill="none" stroke="#000000" d="M1573.4806,-488.8819C1544.2439,-479.0183 1507.3064,-466.9886 1474,-457.4269 1312.4802,-411.0573 1121.7586,-365.7929 1012.0452,-340.6574"/>
<polygon fill="#000000" stroke="#000000" points="1012.5387,-337.1799 1002.0101,-338.3627 1010.9783,-344.0038 1012.5387,-337.1799"/>
</g>
<!-- file:///tmp/tmpe745snc6#run_umccrise_step&#45;&gt;file:///tmp/tmpe745snc6#output_directory -->
<g id="edge2" class="edge">
<title>file:///tmp/tmpe745snc6#run_umccrise_step&#45;&gt;file:///tmp/tmpe745snc6#output_directory</title>
<path fill="none" stroke="#000000" d="M922,-301.8417C922,-270.4483 922,-206.7004 922,-169.3977"/>
<polygon fill="#000000" stroke="#000000" points="925.5001,-169.1806 922,-159.1806 918.5001,-169.1807 925.5001,-169.1806"/>
</g>
<!-- file:///tmp/tmpe745snc6#create_mount_paths_and_umccrise_tsv_input_jsons_step&#45;&gt;file:///tmp/tmpe745snc6#create_umccrise_tsv_step -->
<g id="edge3" class="edge">
<title>file:///tmp/tmpe745snc6#create_mount_paths_and_umccrise_tsv_input_jsons_step&#45;&gt;file:///tmp/tmpe745snc6#create_umccrise_tsv_step</title>
<path fill="none" stroke="#000000" d="M1627,-668.8417C1627,-637.4483 1627,-573.7004 1627,-536.3977"/>
<polygon fill="#000000" stroke="#000000" points="1630.5001,-536.1806 1627,-526.1806 1623.5001,-536.1807 1630.5001,-536.1806"/>
</g>
<!-- file:///tmp/tmpe745snc6#create_mount_paths_and_umccrise_tsv_input_jsons_step&#45;&gt;file:///tmp/tmpe745snc6#run_umccrise_step -->
<g id="edge4" class="edge">
<title>file:///tmp/tmpe745snc6#create_mount_paths_and_umccrise_tsv_input_jsons_step&#45;&gt;file:///tmp/tmpe745snc6#run_umccrise_step</title>
<path fill="none" stroke="#000000" d="M1656.4849,-668.8549C1717.1379,-628.4352 1845.1742,-530.2763 1783,-457.4269 1733.2422,-399.1258 1223.1856,-347.3146 1012.3963,-328.2233"/>
<polygon fill="#000000" stroke="#000000" points="1012.5579,-324.7237 1002.284,-327.3117 1011.9294,-331.6955 1012.5579,-324.7237"/>
</g>
</g>
</svg>
