<?xml version="1.0" encoding="UTF-8" standalone="no"?>
<!DOCTYPE svg PUBLIC "-//W3C//DTD SVG 1.1//EN"
 "http://www.w3.org/Graphics/SVG/1.1/DTD/svg11.dtd">
<!-- Generated by graphviz version 2.43.0 (0)
 -->
<!-- Title: G Pages: 1 -->
<svg width="2001pt" height="763pt"
 viewBox="0.00 0.00 2001.00 763.35" xmlns="http://www.w3.org/2000/svg" xmlns:xlink="http://www.w3.org/1999/xlink">
<g id="graph0" class="graph" transform="scale(1 1) rotate(0) translate(4 759.35)">
<title>G</title>
<polygon fill="#eeeeee" stroke="transparent" points="-4,4 -4,-759.35 1997,-759.35 1997,4 -4,4"/>
<g id="clust1" class="cluster">
<title>cluster_inputs</title>
<polygon fill="#eeeeee" stroke="black" stroke-dasharray="5,2" points="8,-397.68 8,-590.27 1460,-590.27 1460,-397.68 8,-397.68"/>
<text text-anchor="middle" x="1393.5" y="-405.48" font-family="Times,serif" font-size="14.00">Workflow Inputs</text>
</g>
<g id="clust2" class="cluster">
<title>cluster_outputs</title>
<polygon fill="#eeeeee" stroke="black" stroke-dasharray="5,2" points="722,-20.01 722,-212.6 874,-212.6 874,-20.01 722,-20.01"/>
<text text-anchor="middle" x="801.5" y="-27.81" font-family="Times,serif" font-size="14.00">Workflow Outputs</text>
</g>
<!-- umccrise_tsv_rows -->
<g id="node1" class="node">
<title>umccrise_tsv_rows</title>
<polygon fill="#94ddf4" stroke="black" points="1300.5,-504.51 1300.5,-541.51 1451.5,-541.51 1451.5,-504.51 1300.5,-504.51"/>
<text text-anchor="middle" x="1376" y="-519.31" font-family="Times,serif" font-size="14.00">umccrise_tsv_rows</text>
</g>
<!-- create_mount_paths_and_umccrise_tsv_input_jsons_step -->
<g id="node16" class="node">
<title>create_mount_paths_and_umccrise_tsv_input_jsons_step</title>
<polygon fill="lightgoldenrodyellow" stroke="black" points="1309.5,-689.51 1309.5,-726.51 1920.5,-726.51 1920.5,-689.51 1309.5,-689.51"/>
<text text-anchor="middle" x="1615" y="-704.31" font-family="Times,serif" font-size="14.00">create&#45;predefined&#45;mount&#45;paths&#45;and&#45;umccrise&#45;row&#45;from&#45;umccrise&#45;schema v(1.2.2&#45;&#45;0)</text>
</g>
<!-- umccrise_tsv_rows&#45;&gt;create_mount_paths_and_umccrise_tsv_input_jsons_step -->
<g id="edge5" class="edge">
<title>umccrise_tsv_rows&#45;&gt;create_mount_paths_and_umccrise_tsv_input_jsons_step</title>
<path fill="none" stroke="black" d="M1399.2,-541.77C1442.49,-574.92 1535.58,-646.2 1584.12,-683.37"/>
<polygon fill="black" stroke="black" points="1582.02,-686.16 1592.08,-689.46 1586.27,-680.6 1582.02,-686.16"/>
</g>
<!-- dag -->
<g id="node2" class="node">
<title>dag</title>
<polygon fill="#94ddf4" stroke="black" points="1228,-504.51 1228,-541.51 1282,-541.51 1282,-504.51 1228,-504.51"/>
<text text-anchor="middle" x="1255" y="-519.31" font-family="Times,serif" font-size="14.00">dag</text>
</g>
<!-- run_umccrise_step -->
<g id="node18" class="node">
<title>run_umccrise_step</title>
<polygon fill="lightgoldenrodyellow" stroke="black" points="719,-311.51 719,-348.51 877,-348.51 877,-311.51 719,-311.51"/>
<text text-anchor="middle" x="798" y="-326.31" font-family="Times,serif" font-size="14.00">umccrise v(1.2.2&#45;&#45;0)</text>
</g>
<!-- dag&#45;&gt;run_umccrise_step -->
<g id="edge6" class="edge">
<title>dag&#45;&gt;run_umccrise_step</title>
<path fill="none" stroke="black" d="M1245.76,-504.45C1239.47,-494 1230.25,-481.23 1219,-473.01 1118.61,-399.63 977.71,-362.35 887.13,-344.81"/>
<polygon fill="black" stroke="black" points="887.64,-341.35 877.16,-342.92 886.33,-348.23 887.64,-341.35"/>
</g>
<!-- debug -->
<g id="node3" class="node">
<title>debug</title>
<polygon fill="#94ddf4" stroke="black" points="1148.5,-504.51 1148.5,-541.51 1209.5,-541.51 1209.5,-504.51 1148.5,-504.51"/>
<text text-anchor="middle" x="1179" y="-519.31" font-family="Times,serif" font-size="14.00">debug</text>
</g>
<!-- debug&#45;&gt;run_umccrise_step -->
<g id="edge7" class="edge">
<title>debug&#45;&gt;run_umccrise_step</title>
<path fill="none" stroke="black" d="M1168.16,-504.27C1161.17,-494.02 1151.29,-481.52 1140,-473.01 1059.8,-412.54 950.11,-372.99 876.8,-351.35"/>
<polygon fill="black" stroke="black" points="877.73,-347.97 867.15,-348.54 875.77,-354.69 877.73,-347.97"/>
</g>
<!-- dryrun -->
<g id="node4" class="node">
<title>dryrun</title>
<polygon fill="#94ddf4" stroke="black" points="1065.5,-504.51 1065.5,-541.51 1130.5,-541.51 1130.5,-504.51 1065.5,-504.51"/>
<text text-anchor="middle" x="1098" y="-519.31" font-family="Times,serif" font-size="14.00">dryrun</text>
</g>
<!-- dryrun&#45;&gt;run_umccrise_step -->
<g id="edge8" class="edge">
<title>dryrun&#45;&gt;run_umccrise_step</title>
<path fill="none" stroke="black" d="M1085.73,-504.27C1078.22,-494.27 1067.97,-482.02 1057,-473.01 992.39,-419.92 905,-376.85 850.07,-352.58"/>
<polygon fill="black" stroke="black" points="851.44,-349.35 840.87,-348.55 848.63,-355.77 851.44,-349.35"/>
</g>
<!-- genome -->
<g id="node5" class="node">
<title>genome</title>
<polygon fill="#94ddf4" stroke="black" points="974.5,-504.51 974.5,-541.51 1047.5,-541.51 1047.5,-504.51 974.5,-504.51"/>
<text text-anchor="middle" x="1011" y="-519.31" font-family="Times,serif" font-size="14.00">genome</text>
</g>
<!-- genome&#45;&gt;run_umccrise_step -->
<g id="edge9" class="edge">
<title>genome&#45;&gt;run_umccrise_step</title>
<path fill="none" stroke="black" d="M995.28,-504.32C986.6,-494.79 975.48,-482.99 965,-473.01 919.26,-429.47 862.65,-382.71 828.48,-355.2"/>
<polygon fill="black" stroke="black" points="830.29,-352.16 820.3,-348.63 825.91,-357.62 830.29,-352.16"/>
</g>
<!-- genomes_tar -->
<g id="node6" class="node">
<title>genomes_tar</title>
<polygon fill="#94ddf4" stroke="black" points="848,-504.51 848,-541.51 956,-541.51 956,-504.51 848,-504.51"/>
<text text-anchor="middle" x="902" y="-519.31" font-family="Times,serif" font-size="14.00">genomes_tar</text>
</g>
<!-- genomes_tar&#45;&gt;run_umccrise_step -->
<g id="edge10" class="edge">
<title>genomes_tar&#45;&gt;run_umccrise_step</title>
<path fill="none" stroke="black" d="M892.4,-504.38C874.06,-470.7 833.94,-397.01 812.38,-357.42"/>
<polygon fill="black" stroke="black" points="815.43,-355.7 807.57,-348.59 809.28,-359.05 815.43,-355.7"/>
</g>
<!-- min_af -->
<g id="node7" class="node">
<title>min_af</title>
<polygon fill="#94ddf4" stroke="black" points="766,-504.51 766,-541.51 830,-541.51 830,-504.51 766,-504.51"/>
<text text-anchor="middle" x="798" y="-519.31" font-family="Times,serif" font-size="14.00">min_af</text>
</g>
<!-- min_af&#45;&gt;run_umccrise_step -->
<g id="edge11" class="edge">
<title>min_af&#45;&gt;run_umccrise_step</title>
<path fill="none" stroke="black" d="M798,-504.38C798,-471.05 798,-398.56 798,-358.68"/>
<polygon fill="black" stroke="black" points="801.5,-358.59 798,-348.59 794.5,-358.59 801.5,-358.59"/>
</g>
<!-- output_directory_name -->
<g id="node8" class="node">
<title>output_directory_name</title>
<polygon fill="#94ddf4" stroke="black" points="566,-504.51 566,-541.51 748,-541.51 748,-504.51 566,-504.51"/>
<text text-anchor="middle" x="657" y="-519.31" font-family="Times,serif" font-size="14.00">output_directory_name</text>
</g>
<!-- output_directory_name&#45;&gt;run_umccrise_step -->
<g id="edge12" class="edge">
<title>output_directory_name&#45;&gt;run_umccrise_step</title>
<path fill="none" stroke="black" d="M670.01,-504.38C694.98,-470.55 749.73,-396.39 778.87,-356.92"/>
<polygon fill="black" stroke="black" points="781.9,-358.72 785.02,-348.59 776.26,-354.56 781.9,-358.72"/>
</g>
<!-- report -->
<g id="node9" class="node">
<title>report</title>
<polygon fill="#94ddf4" stroke="black" points="486,-504.51 486,-541.51 548,-541.51 548,-504.51 486,-504.51"/>
<text text-anchor="middle" x="517" y="-519.31" font-family="Times,serif" font-size="14.00">report</text>
</g>
<!-- report&#45;&gt;run_umccrise_step -->
<g id="edge13" class="edge">
<title>report&#45;&gt;run_umccrise_step</title>
<path fill="none" stroke="black" d="M529,-504.38C536.33,-494.41 546.33,-482.16 557,-473.01 617.19,-421.35 698.68,-377.8 749.79,-353.05"/>
<polygon fill="black" stroke="black" points="751.46,-356.13 758.96,-348.65 748.43,-349.82 751.46,-356.13"/>
</g>
<!-- resources -->
<g id="node10" class="node">
<title>resources</title>
<polygon fill="#94ddf4" stroke="black" points="382,-504.51 382,-541.51 468,-541.51 468,-504.51 382,-504.51"/>
<text text-anchor="middle" x="425" y="-519.31" font-family="Times,serif" font-size="14.00">resources</text>
</g>
<!-- resources&#45;&gt;run_umccrise_step -->
<g id="edge14" class="edge">
<title>resources&#45;&gt;run_umccrise_step</title>
<path fill="none" stroke="black" d="M441.08,-504.1C450.77,-494.04 463.77,-481.79 477,-473.01 559.74,-418.07 667.24,-375.53 734.43,-351.87"/>
<polygon fill="black" stroke="black" points="735.76,-355.11 744.05,-348.52 733.45,-348.5 735.76,-355.11"/>
</g>
<!-- restarts -->
<g id="node11" class="node">
<title>restarts</title>
<polygon fill="#94ddf4" stroke="black" points="290,-504.51 290,-541.51 364,-541.51 364,-504.51 290,-504.51"/>
<text text-anchor="middle" x="327" y="-519.31" font-family="Times,serif" font-size="14.00">restarts</text>
</g>
<!-- restarts&#45;&gt;run_umccrise_step -->
<g id="edge15" class="edge">
<title>restarts&#45;&gt;run_umccrise_step</title>
<path fill="none" stroke="black" d="M339.79,-504.5C348.21,-494.08 360.03,-481.32 373,-473.01 478.29,-405.57 618.89,-366.84 708.97,-347.35"/>
<polygon fill="black" stroke="black" points="709.83,-350.75 718.88,-345.24 708.37,-343.9 709.83,-350.75"/>
</g>
<!-- skip_stage -->
<g id="node12" class="node">
<title>skip_stage</title>
<polygon fill="#94ddf4" stroke="black" points="180,-504.51 180,-541.51 272,-541.51 272,-504.51 180,-504.51"/>
<text text-anchor="middle" x="226" y="-519.31" font-family="Times,serif" font-size="14.00">skip_stage</text>
</g>
<!-- skip_stage&#45;&gt;run_umccrise_step -->
<g id="edge16" class="edge">
<title>skip_stage&#45;&gt;run_umccrise_step</title>
<path fill="none" stroke="black" d="M241.77,-504.33C252.01,-493.85 266.17,-481.07 281,-473.01 419.84,-397.54 601.91,-359.72 708.81,-342.8"/>
<polygon fill="black" stroke="black" points="709.57,-346.22 718.91,-341.23 708.49,-339.31 709.57,-346.22"/>
</g>
<!-- stage -->
<g id="node13" class="node">
<title>stage</title>
<polygon fill="#94ddf4" stroke="black" points="106,-504.51 106,-541.51 162,-541.51 162,-504.51 106,-504.51"/>
<text text-anchor="middle" x="134" y="-519.31" font-family="Times,serif" font-size="14.00">stage</text>
</g>
<!-- stage&#45;&gt;run_umccrise_step -->
<g id="edge17" class="edge">
<title>stage&#45;&gt;run_umccrise_step</title>
<path fill="none" stroke="black" d="M143.31,-504.03C149.71,-493.43 159.18,-480.64 171,-473.01 339.31,-364.32 579.88,-338.24 708.61,-332.36"/>
<polygon fill="black" stroke="black" points="708.98,-335.84 718.82,-331.92 708.68,-328.85 708.98,-335.84"/>
</g>
<!-- threads -->
<g id="node14" class="node">
<title>threads</title>
<polygon fill="#94ddf4" stroke="black" points="16.5,-504.51 16.5,-541.51 87.5,-541.51 87.5,-504.51 16.5,-504.51"/>
<text text-anchor="middle" x="52" y="-519.31" font-family="Times,serif" font-size="14.00">threads</text>
</g>
<!-- threads&#45;&gt;run_umccrise_step -->
<g id="edge18" class="edge">
<title>threads&#45;&gt;run_umccrise_step</title>
<path fill="none" stroke="black" d="M63.74,-504.41C71.82,-493.69 83.52,-480.62 97,-473.01 295.33,-361.06 569.29,-336.63 708.72,-331.78"/>
<polygon fill="black" stroke="black" points="709.04,-335.27 718.93,-331.45 708.82,-328.28 709.04,-335.27"/>
</g>
<!-- output_directory -->
<g id="node15" class="node">
<title>output_directory</title>
<polygon fill="#94ddf4" stroke="black" points="730,-126.51 730,-163.51 866,-163.51 866,-126.51 730,-126.51"/>
<text text-anchor="middle" x="798" y="-141.31" font-family="Times,serif" font-size="14.00">output_directory</text>
</g>
<!-- create_umccrise_tsv_step -->
<g id="node17" class="node">
<title>create_umccrise_tsv_step</title>
<polygon fill="lightgoldenrodyellow" stroke="black" points="1470,-504.51 1470,-541.51 1760,-541.51 1760,-504.51 1470,-504.51"/>
<text text-anchor="middle" x="1615" y="-519.31" font-family="Times,serif" font-size="14.00">custom&#45;create&#45;umccrise&#45;tsv v(1.2.2&#45;&#45;0)</text>
</g>
<!-- create_mount_paths_and_umccrise_tsv_input_jsons_step&#45;&gt;create_umccrise_tsv_step -->
<g id="edge1" class="edge">
<title>create_mount_paths_and_umccrise_tsv_input_jsons_step&#45;&gt;create_umccrise_tsv_step</title>
<path fill="none" stroke="black" d="M1615,-689.46C1615,-657.71 1615,-590.46 1615,-552.19"/>
<polygon fill="black" stroke="black" points="1618.5,-551.77 1615,-541.77 1611.5,-551.77 1618.5,-551.77"/>
</g>
<!-- create_mount_paths_and_umccrise_tsv_input_jsons_step&#45;&gt;run_umccrise_step -->
<g id="edge2" class="edge">
<title>create_mount_paths_and_umccrise_tsv_input_jsons_step&#45;&gt;run_umccrise_step</title>
<path fill="none" stroke="black" d="M1642.12,-689.49C1701.53,-649.04 1832.93,-546.96 1769,-473.01 1711.57,-406.56 1116.66,-355.03 887.4,-337.49"/>
<polygon fill="black" stroke="black" points="887.33,-333.98 877.09,-336.71 886.8,-340.96 887.33,-333.98"/>
</g>
<!-- create_umccrise_tsv_step&#45;&gt;run_umccrise_step -->
<g id="edge3" class="edge">
<title>create_umccrise_tsv_step&#45;&gt;run_umccrise_step</title>
<path fill="none" stroke="black" d="M1565.4,-504.48C1536.12,-494.49 1498.21,-482.18 1464,-473.01 1259.71,-418.24 1015.69,-370.67 887.24,-346.99"/>
<polygon fill="black" stroke="black" points="887.53,-343.48 877.06,-345.12 886.26,-350.37 887.53,-343.48"/>
</g>
<!-- run_umccrise_step&#45;&gt;output_directory -->
<g id="edge4" class="edge">
<title>run_umccrise_step&#45;&gt;output_directory</title>
<path fill="none" stroke="black" d="M798,-311.46C798,-279.71 798,-212.46 798,-174.19"/>
<polygon fill="black" stroke="black" points="801.5,-173.77 798,-163.77 794.5,-173.77 801.5,-173.77"/>
</g>
<!-- \n -->
<g id="node19" class="node">
<title>\n</title>
<ellipse fill="none" stroke="black" cx="1966" cy="-708.01" rx="27" ry="18"/>
</g>
</g>
</svg>
