<?xml version="1.0" encoding="UTF-8" standalone="no"?>
<!DOCTYPE svg PUBLIC "-//W3C//DTD SVG 1.1//EN"
 "http://www.w3.org/Graphics/SVG/1.1/DTD/svg11.dtd">
<!-- Generated by graphviz version 2.43.0 (0)
 -->
<!-- Title: G Pages: 1 -->
<svg width="822pt" height="720pt"
 viewBox="0.00 0.00 821.97 719.62" xmlns="http://www.w3.org/2000/svg" xmlns:xlink="http://www.w3.org/1999/xlink">
<g id="graph0" class="graph" transform="scale(1 1) rotate(0) translate(4 715.62)">
<title>G</title>
<polygon fill="#eeeeee" stroke="transparent" points="-4,4 -4,-715.62 817.97,-715.62 817.97,4 -4,4"/>
<g id="clust1" class="cluster">
<title>cluster_inputs</title>
<polygon fill="#eeeeee" stroke="black" stroke-dasharray="5,2" points="10,-599.47 10,-700.94 566,-700.94 566,-599.47 10,-599.47"/>
<text text-anchor="middle" x="499.5" y="-607.27" font-family="Times,serif" font-size="14.00">Workflow Inputs</text>
</g>
<g id="clust2" class="cluster">
<title>cluster_outputs</title>
<polygon fill="#eeeeee" stroke="black" stroke-dasharray="5,2" points="8,-10.68 8,-112.15 739,-112.15 739,-10.68 8,-10.68"/>
<text text-anchor="middle" x="666.5" y="-18.48" font-family="Times,serif" font-size="14.00">Workflow Outputs</text>
</g>
<!-- get_run_info_xml_file_from_reports_dir -->
<g id="node1" class="node">
<title>get_run_info_xml_file_from_reports_dir</title>
<polygon fill="lightgoldenrodyellow" stroke="black" points="131.5,-545.68 131.5,-581.68 364.5,-581.68 364.5,-545.68 131.5,-545.68"/>
<text text-anchor="middle" x="248" y="-559.98" font-family="Times,serif" font-size="14.00">get&#45;file&#45;from&#45;directory v(1.0.1)</text>
</g>
<!-- generate_interop_qc_step -->
<g id="node2" class="node">
<title>generate_interop_qc_step</title>
<polygon fill="lightgoldenrodyellow" stroke="black" points="153,-448.68 153,-484.68 343,-484.68 343,-448.68 153,-448.68"/>
<text text-anchor="middle" x="248" y="-462.98" font-family="Times,serif" font-size="14.00">illumina&#45;interop v(1.3.1)</text>
</g>
<!-- get_run_info_xml_file_from_reports_dir&#45;&gt;generate_interop_qc_step -->
<g id="edge1" class="edge">
<title>get_run_info_xml_file_from_reports_dir&#45;&gt;generate_interop_qc_step</title>
<path fill="none" stroke="black" d="M248,-545.26C248,-531.33 248,-511.54 248,-495.44"/>
<polygon fill="black" stroke="black" points="251.5,-494.99 248,-484.99 244.5,-495 251.5,-494.99"/>
</g>
<!-- run_multiqc_step -->
<g id="node3" class="node">
<title>run_multiqc_step</title>
<polygon fill="lightgoldenrodyellow" stroke="black" points="362.5,-350.68 362.5,-386.68 501.5,-386.68 501.5,-350.68 362.5,-350.68"/>
<text text-anchor="middle" x="432" y="-364.98" font-family="Times,serif" font-size="14.00">multiqc v(1.25.0)</text>
</g>
<!-- generate_interop_qc_step&#45;&gt;run_multiqc_step -->
<g id="edge4" class="edge">
<title>generate_interop_qc_step&#45;&gt;run_multiqc_step</title>
<path fill="none" stroke="black" d="M280.9,-448.52C311.51,-432.55 357.26,-408.67 390.4,-391.39"/>
<polygon fill="black" stroke="black" points="392.14,-394.42 399.39,-386.7 388.9,-388.22 392.14,-394.42"/>
</g>
<!-- interop_output_dir -->
<g id="node9" class="node">
<title>interop_output_dir</title>
<polygon fill="#94ddf4" stroke="black" points="15.5,-58.68 15.5,-94.68 164.5,-94.68 164.5,-58.68 15.5,-58.68"/>
<text text-anchor="middle" x="90" y="-72.98" font-family="Times,serif" font-size="14.00">interop_output_dir</text>
</g>
<!-- generate_interop_qc_step&#45;&gt;interop_output_dir -->
<g id="edge13" class="edge">
<title>generate_interop_qc_step&#45;&gt;interop_output_dir</title>
<path fill="none" stroke="black" d="M241.01,-448.51C216.08,-387.3 131.45,-179.46 101.01,-104.73"/>
<polygon fill="black" stroke="black" points="104.1,-103.04 97.09,-95.1 97.62,-105.68 104.1,-103.04"/>
</g>
<!-- generate_qc_csv_step -->
<g id="node4" class="node">
<title>generate_qc_csv_step</title>
<polygon fill="lightgoldenrodyellow" stroke="black" points="325.5,-253.68 325.5,-289.68 782.5,-289.68 782.5,-253.68 325.5,-253.68"/>
<text text-anchor="middle" x="554" y="-267.98" font-family="Times,serif" font-size="14.00">custom&#45;convert&#45;multiqc&#45;json&#45;data&#45;to&#45;qlims&#45;import&#45;csv v(1.0.0)</text>
</g>
<!-- run_multiqc_step&#45;&gt;generate_qc_csv_step -->
<g id="edge2" class="edge">
<title>run_multiqc_step&#45;&gt;generate_qc_csv_step</title>
<path fill="none" stroke="black" d="M454.09,-350.48C473.7,-335.21 502.51,-312.78 524.16,-295.92"/>
<polygon fill="black" stroke="black" points="526.33,-298.66 532.07,-289.76 522.03,-293.14 526.33,-298.66"/>
</g>
<!-- multiqc_html_report -->
<g id="node10" class="node">
<title>multiqc_html_report</title>
<polygon fill="#94ddf4" stroke="black" points="353,-58.68 353,-94.68 515,-94.68 515,-58.68 353,-58.68"/>
<text text-anchor="middle" x="434" y="-72.98" font-family="Times,serif" font-size="14.00">multiqc_html_report</text>
</g>
<!-- run_multiqc_step&#45;&gt;multiqc_html_report -->
<g id="edge14" class="edge">
<title>run_multiqc_step&#45;&gt;multiqc_html_report</title>
<path fill="none" stroke="black" d="M387.99,-350.64C362.26,-338.12 331.98,-318.34 317,-290.18 309.28,-275.66 312.23,-268.92 317,-253.18 335.29,-192.76 382.01,-134.13 410.57,-102.28"/>
<polygon fill="black" stroke="black" points="413.26,-104.52 417.41,-94.77 408.08,-99.81 413.26,-104.52"/>
</g>
<!-- multiqc_output_dir -->
<g id="node11" class="node">
<title>multiqc_output_dir</title>
<polygon fill="#94ddf4" stroke="black" points="183,-58.68 183,-94.68 335,-94.68 335,-58.68 183,-58.68"/>
<text text-anchor="middle" x="259" y="-72.98" font-family="Times,serif" font-size="14.00">multiqc_output_dir</text>
</g>
<!-- run_multiqc_step&#45;&gt;multiqc_output_dir -->
<g id="edge15" class="edge">
<title>run_multiqc_step&#45;&gt;multiqc_output_dir</title>
<path fill="none" stroke="black" d="M388.11,-350.67C361.04,-337.96 327.82,-317.98 308,-290.18 267.47,-233.34 259.91,-148.15 258.84,-104.93"/>
<polygon fill="black" stroke="black" points="262.34,-104.84 258.7,-94.89 255.34,-104.94 262.34,-104.84"/>
</g>
<!-- rename_qc_csv_step -->
<g id="node5" class="node">
<title>rename_qc_csv_step</title>
<polygon fill="lightgoldenrodyellow" stroke="black" points="558.5,-156.68 558.5,-192.68 705.5,-192.68 705.5,-156.68 558.5,-156.68"/>
<text text-anchor="middle" x="632" y="-170.98" font-family="Times,serif" font-size="14.00">create&#45;file v(1.0.0)</text>
</g>
<!-- generate_qc_csv_step&#45;&gt;rename_qc_csv_step -->
<g id="edge3" class="edge">
<title>generate_qc_csv_step&#45;&gt;rename_qc_csv_step</title>
<path fill="none" stroke="black" d="M568.31,-253.26C580.29,-238.66 597.56,-217.63 611.1,-201.14"/>
<polygon fill="black" stroke="black" points="614.14,-202.94 617.78,-192.99 608.73,-198.5 614.14,-202.94"/>
</g>
<!-- multiqc_qlims_csv_report -->
<g id="node12" class="node">
<title>multiqc_qlims_csv_report</title>
<polygon fill="#94ddf4" stroke="black" points="533,-58.68 533,-94.68 731,-94.68 731,-58.68 533,-58.68"/>
<text text-anchor="middle" x="632" y="-72.98" font-family="Times,serif" font-size="14.00">multiqc_qlims_csv_report</text>
</g>
<!-- rename_qc_csv_step&#45;&gt;multiqc_qlims_csv_report -->
<g id="edge16" class="edge">
<title>rename_qc_csv_step&#45;&gt;multiqc_qlims_csv_report</title>
<path fill="none" stroke="black" d="M632,-156.52C632,-142.18 632,-121.49 632,-104.9"/>
<polygon fill="black" stroke="black" points="635.5,-104.7 632,-94.7 628.5,-104.7 635.5,-104.7"/>
</g>
<!-- instrument_run_id -->
<g id="node6" class="node">
<title>instrument_run_id</title>
<polygon fill="#94ddf4" stroke="black" points="410,-647.68 410,-683.68 558,-683.68 558,-647.68 410,-647.68"/>
<text text-anchor="middle" x="484" y="-661.98" font-family="Times,serif" font-size="14.00">instrument_run_id</text>
</g>
<!-- instrument_run_id&#45;&gt;generate_interop_qc_step -->
<g id="edge5" class="edge">
<title>instrument_run_id&#45;&gt;generate_interop_qc_step</title>
<path fill="none" stroke="black" d="M470.7,-647.46C451.21,-622.91 412.96,-577.27 374,-545.18 348.05,-523.8 315.69,-504.02 290.26,-489.79"/>
<polygon fill="black" stroke="black" points="291.68,-486.58 281.23,-484.81 288.29,-492.71 291.68,-486.58"/>
</g>
<!-- instrument_run_id&#45;&gt;run_multiqc_step -->
<g id="edge8" class="edge">
<title>instrument_run_id&#45;&gt;run_multiqc_step</title>
<path fill="none" stroke="black" d="M477.6,-647.55C464.72,-598.46 439.54,-457.03 432.7,-397.07"/>
<polygon fill="black" stroke="black" points="436.16,-396.45 431.65,-386.86 429.2,-397.17 436.16,-396.45"/>
</g>
<!-- instrument_run_id&#45;&gt;run_multiqc_step -->
<g id="edge9" class="edge">
<title>instrument_run_id&#45;&gt;run_multiqc_step</title>
<path fill="none" stroke="black" d="M484.36,-647.55C479.93,-598.36 455.15,-456.44 440.86,-396.7"/>
<polygon fill="black" stroke="black" points="444.23,-395.72 438.41,-386.86 437.43,-397.41 444.23,-395.72"/>
</g>
<!-- instrument_run_id&#45;&gt;generate_qc_csv_step -->
<g id="edge6" class="edge">
<title>instrument_run_id&#45;&gt;generate_qc_csv_step</title>
<path fill="none" stroke="black" d="M487.05,-647.59C498.04,-586.07 535.62,-375.62 549.12,-300.01"/>
<polygon fill="black" stroke="black" points="552.62,-300.33 550.93,-289.87 545.73,-299.1 552.62,-300.33"/>
</g>
<!-- instrument_run_id&#45;&gt;rename_qc_csv_step -->
<g id="edge7" class="edge">
<title>instrument_run_id&#45;&gt;rename_qc_csv_step</title>
<path fill="none" stroke="black" d="M558.2,-653.49C654.68,-634.26 811,-584.99 811,-467.68 811,-467.68 811,-467.68 811,-367.68 811,-316.1 822.89,-294.49 792,-253.18 771.9,-226.3 740.01,-208.28 709.97,-196.43"/>
<polygon fill="black" stroke="black" points="710.9,-193.04 700.3,-192.8 708.43,-199.59 710.9,-193.04"/>
</g>
<!-- interop_directory -->
<g id="node7" class="node">
<title>interop_directory</title>
<polygon fill="#94ddf4" stroke="black" points="18,-647.68 18,-683.68 158,-683.68 158,-647.68 18,-647.68"/>
<text text-anchor="middle" x="88" y="-661.98" font-family="Times,serif" font-size="14.00">interop_directory</text>
</g>
<!-- interop_directory&#45;&gt;generate_interop_qc_step -->
<g id="edge10" class="edge">
<title>interop_directory&#45;&gt;generate_interop_qc_step</title>
<path fill="none" stroke="black" d="M89.19,-647.53C91.71,-622.65 99.44,-576.15 123,-545.18 141.66,-520.66 170.5,-502.03 195.78,-489.19"/>
<polygon fill="black" stroke="black" points="197.47,-492.27 204.91,-484.73 194.39,-485.98 197.47,-492.27"/>
</g>
<!-- bclconvert_report_directory -->
<g id="node8" class="node">
<title>bclconvert_report_directory</title>
<polygon fill="#94ddf4" stroke="black" points="176.5,-647.68 176.5,-683.68 391.5,-683.68 391.5,-647.68 176.5,-647.68"/>
<text text-anchor="middle" x="284" y="-661.98" font-family="Times,serif" font-size="14.00">bclconvert_report_directory</text>
</g>
<!-- bclconvert_report_directory&#45;&gt;get_run_info_xml_file_from_reports_dir -->
<g id="edge11" class="edge">
<title>bclconvert_report_directory&#45;&gt;get_run_info_xml_file_from_reports_dir</title>
<path fill="none" stroke="black" d="M277.73,-647.26C272.21,-631.92 264.07,-609.33 257.71,-591.65"/>
<polygon fill="black" stroke="black" points="260.88,-590.12 254.2,-581.9 254.29,-592.49 260.88,-590.12"/>
</g>
<!-- bclconvert_report_directory&#45;&gt;run_multiqc_step -->
<g id="edge12" class="edge">
<title>bclconvert_report_directory&#45;&gt;run_multiqc_step</title>
<path fill="none" stroke="black" d="M309.41,-647.62C329.76,-632.67 357.56,-609.14 374,-582.18 410.45,-522.41 424.43,-439.46 429.44,-397.04"/>
<polygon fill="black" stroke="black" points="432.93,-397.25 430.55,-386.93 425.98,-396.49 432.93,-397.25"/>
</g>
</g>
</svg>
