<?xml version="1.0" encoding="UTF-8" standalone="no"?>
<!DOCTYPE svg PUBLIC "-//W3C//DTD SVG 1.1//EN"
 "http://www.w3.org/Graphics/SVG/1.1/DTD/svg11.dtd">
<!-- Generated by graphviz version 2.43.0 (0)
 -->
<!-- Title: G Pages: 1 -->
<svg width="827pt" height="724pt"
 viewBox="0.00 0.00 827.07 724.17" xmlns="http://www.w3.org/2000/svg" xmlns:xlink="http://www.w3.org/1999/xlink">
<g id="graph0" class="graph" transform="scale(1 1) rotate(0) translate(4 720.17)">
<title>G</title>
<polygon fill="#eeeeee" stroke="transparent" points="-4,4 -4,-720.17 823.07,-720.17 823.07,4 -4,4"/>
<g id="clust1" class="cluster">
<title>cluster_inputs</title>
<polygon fill="#eeeeee" stroke="black" stroke-dasharray="5,2" points="16,-603.3 16,-705.42 572,-705.42 572,-603.3 16,-603.3"/>
<text text-anchor="middle" x="505.5" y="-611.1" font-family="Times,serif" font-size="14.00">Workflow Inputs</text>
</g>
<g id="clust2" class="cluster">
<title>cluster_outputs</title>
<polygon fill="#eeeeee" stroke="black" stroke-dasharray="5,2" points="8,-10.75 8,-112.87 739,-112.87 739,-10.75 8,-10.75"/>
<text text-anchor="middle" x="666.5" y="-18.55" font-family="Times,serif" font-size="14.00">Workflow Outputs</text>
</g>
<!-- get_run_info_xml_file_from_reports_dir -->
<g id="node1" class="node">
<title>get_run_info_xml_file_from_reports_dir</title>
<polygon fill="lightgoldenrodyellow" stroke="black" points="96.5,-549.75 96.5,-585.75 329.5,-585.75 329.5,-549.75 96.5,-549.75"/>
<text text-anchor="middle" x="213" y="-564.05" font-family="Times,serif" font-size="14.00">get&#45;file&#45;from&#45;directory v(1.0.1)</text>
</g>
<!-- generate_interop_qc_step -->
<g id="node2" class="node">
<title>generate_interop_qc_step</title>
<polygon fill="lightgoldenrodyellow" stroke="black" points="263,-451.75 263,-487.75 453,-487.75 453,-451.75 263,-451.75"/>
<text text-anchor="middle" x="358" y="-466.05" font-family="Times,serif" font-size="14.00">illumina&#45;interop v(1.3.1)</text>
</g>
<!-- get_run_info_xml_file_from_reports_dir&#45;&gt;generate_interop_qc_step -->
<g id="edge1" class="edge">
<title>get_run_info_xml_file_from_reports_dir&#45;&gt;generate_interop_qc_step</title>
<path fill="none" stroke="black" d="M238.92,-549.59C262.64,-533.89 297.88,-510.56 323.87,-493.35"/>
<polygon fill="black" stroke="black" points="325.9,-496.2 332.3,-487.76 322.03,-490.37 325.9,-496.2"/>
</g>
<!-- run_multiqc_step -->
<g id="node3" class="node">
<title>run_multiqc_step</title>
<polygon fill="lightgoldenrodyellow" stroke="black" points="336.5,-353.75 336.5,-389.75 475.5,-389.75 475.5,-353.75 336.5,-353.75"/>
<text text-anchor="middle" x="406" y="-368.05" font-family="Times,serif" font-size="14.00">multiqc v(1.25.0)</text>
</g>
<!-- generate_interop_qc_step&#45;&gt;run_multiqc_step -->
<g id="edge4" class="edge">
<title>generate_interop_qc_step&#45;&gt;run_multiqc_step</title>
<path fill="none" stroke="black" d="M366.58,-451.59C373.88,-436.98 384.49,-415.77 392.86,-399.02"/>
<polygon fill="black" stroke="black" points="396.15,-400.27 397.49,-389.76 389.89,-397.14 396.15,-400.27"/>
</g>
<!-- interop_output_dir -->
<g id="node9" class="node">
<title>interop_output_dir</title>
<polygon fill="#94ddf4" stroke="black" points="15.5,-59.75 15.5,-95.75 164.5,-95.75 164.5,-59.75 15.5,-59.75"/>
<text text-anchor="middle" x="90" y="-74.05" font-family="Times,serif" font-size="14.00">interop_output_dir</text>
</g>
<!-- generate_interop_qc_step&#45;&gt;interop_output_dir -->
<g id="edge14" class="edge">
<title>generate_interop_qc_step&#45;&gt;interop_output_dir</title>
<path fill="none" stroke="black" d="M346.31,-451.74C303.91,-390.03 158.01,-177.72 107.43,-104.12"/>
<polygon fill="black" stroke="black" points="110.3,-102.11 101.75,-95.85 104.53,-106.07 110.3,-102.11"/>
</g>
<!-- generate_qc_csv_step -->
<g id="node4" class="node">
<title>generate_qc_csv_step</title>
<polygon fill="lightgoldenrodyellow" stroke="black" points="330.5,-255.75 330.5,-291.75 787.5,-291.75 787.5,-255.75 330.5,-255.75"/>
<text text-anchor="middle" x="559" y="-270.05" font-family="Times,serif" font-size="14.00">custom&#45;convert&#45;multiqc&#45;json&#45;data&#45;to&#45;qlims&#45;import&#45;csv v(1.0.0)</text>
</g>
<!-- run_multiqc_step&#45;&gt;generate_qc_csv_step -->
<g id="edge2" class="edge">
<title>run_multiqc_step&#45;&gt;generate_qc_csv_step</title>
<path fill="none" stroke="black" d="M433.35,-353.59C458.48,-337.82 495.88,-314.35 523.34,-297.12"/>
<polygon fill="black" stroke="black" points="525.27,-300.04 531.88,-291.76 521.55,-294.11 525.27,-300.04"/>
</g>
<!-- multiqc_html_report -->
<g id="node10" class="node">
<title>multiqc_html_report</title>
<polygon fill="#94ddf4" stroke="black" points="183,-59.75 183,-95.75 345,-95.75 345,-59.75 183,-59.75"/>
<text text-anchor="middle" x="264" y="-74.05" font-family="Times,serif" font-size="14.00">multiqc_html_report</text>
</g>
<!-- run_multiqc_step&#45;&gt;multiqc_html_report -->
<g id="edge15" class="edge">
<title>run_multiqc_step&#45;&gt;multiqc_html_report</title>
<path fill="none" stroke="black" d="M377.27,-353.74C356.29,-339.82 328.84,-318.22 313,-292.25 276.66,-232.66 267.24,-148.79 264.82,-106.07"/>
<polygon fill="black" stroke="black" points="268.31,-105.71 264.33,-95.89 261.32,-106.05 268.31,-105.71"/>
</g>
<!-- multiqc_output_dir -->
<g id="node11" class="node">
<title>multiqc_output_dir</title>
<polygon fill="#94ddf4" stroke="black" points="363,-59.75 363,-95.75 515,-95.75 515,-59.75 363,-59.75"/>
<text text-anchor="middle" x="439" y="-74.05" font-family="Times,serif" font-size="14.00">multiqc_output_dir</text>
</g>
<!-- run_multiqc_step&#45;&gt;multiqc_output_dir -->
<g id="edge16" class="edge">
<title>run_multiqc_step&#45;&gt;multiqc_output_dir</title>
<path fill="none" stroke="black" d="M377.99,-353.67C358.25,-339.86 333.37,-318.43 322,-292.25 315.45,-277.17 317.26,-270.99 322,-255.25 340.29,-194.57 387,-135.58 415.56,-103.51"/>
<polygon fill="black" stroke="black" points="418.29,-105.72 422.41,-95.96 413.1,-101.02 418.29,-105.72"/>
</g>
<!-- rename_qc_csv_step -->
<g id="node5" class="node">
<title>rename_qc_csv_step</title>
<polygon fill="lightgoldenrodyellow" stroke="black" points="558.5,-157.75 558.5,-193.75 705.5,-193.75 705.5,-157.75 558.5,-157.75"/>
<text text-anchor="middle" x="632" y="-172.05" font-family="Times,serif" font-size="14.00">create&#45;file v(1.0.0)</text>
</g>
<!-- generate_qc_csv_step&#45;&gt;rename_qc_csv_step -->
<g id="edge3" class="edge">
<title>generate_qc_csv_step&#45;&gt;rename_qc_csv_step</title>
<path fill="none" stroke="black" d="M572.05,-255.59C583.37,-240.71 599.89,-218.97 612.73,-202.09"/>
<polygon fill="black" stroke="black" points="615.8,-203.84 619.06,-193.76 610.22,-199.61 615.8,-203.84"/>
</g>
<!-- multiqc_qlims_csv_report -->
<g id="node12" class="node">
<title>multiqc_qlims_csv_report</title>
<polygon fill="#94ddf4" stroke="black" points="533,-59.75 533,-95.75 731,-95.75 731,-59.75 533,-59.75"/>
<text text-anchor="middle" x="632" y="-74.05" font-family="Times,serif" font-size="14.00">multiqc_qlims_csv_report</text>
</g>
<!-- rename_qc_csv_step&#45;&gt;multiqc_qlims_csv_report -->
<g id="edge17" class="edge">
<title>rename_qc_csv_step&#45;&gt;multiqc_qlims_csv_report</title>
<path fill="none" stroke="black" d="M632,-157.59C632,-143.25 632,-122.56 632,-105.97"/>
<polygon fill="black" stroke="black" points="635.5,-105.76 632,-95.76 628.5,-105.76 635.5,-105.76"/>
</g>
<!-- instrument_run_id -->
<g id="node6" class="node">
<title>instrument_run_id</title>
<polygon fill="#94ddf4" stroke="black" points="416,-651.75 416,-687.75 564,-687.75 564,-651.75 416,-651.75"/>
<text text-anchor="middle" x="490" y="-666.05" font-family="Times,serif" font-size="14.00">instrument_run_id</text>
</g>
<!-- instrument_run_id&#45;&gt;generate_interop_qc_step -->
<g id="edge5" class="edge">
<title>instrument_run_id&#45;&gt;generate_interop_qc_step</title>
<path fill="none" stroke="black" d="M474.5,-651.52C447.89,-616.7 395.01,-537.74 370.54,-496.66"/>
<polygon fill="black" stroke="black" points="373.43,-494.67 365.37,-487.79 367.38,-498.19 373.43,-494.67"/>
</g>
<!-- instrument_run_id&#45;&gt;generate_interop_qc_step -->
<g id="edge6" class="edge">
<title>instrument_run_id&#45;&gt;generate_interop_qc_step</title>
<path fill="none" stroke="black" d="M482.53,-651.52C462.58,-616.48 409.64,-536.74 379.44,-495.89"/>
<polygon fill="black" stroke="black" points="382.16,-493.69 373.36,-487.79 376.56,-497.89 382.16,-493.69"/>
</g>
<!-- instrument_run_id&#45;&gt;run_multiqc_step -->
<g id="edge9" class="edge">
<title>instrument_run_id&#45;&gt;run_multiqc_step</title>
<path fill="none" stroke="black" d="M485.8,-651.69C482.24,-614.08 480.67,-521.78 453,-451.25 445.41,-431.89 432,-412.84 421.23,-398.35"/>
<polygon fill="black" stroke="black" points="423.74,-395.86 414.95,-389.96 418.14,-400.06 423.74,-395.86"/>
</g>
<!-- instrument_run_id&#45;&gt;run_multiqc_step -->
<g id="edge10" class="edge">
<title>instrument_run_id&#45;&gt;run_multiqc_step</title>
<path fill="none" stroke="black" d="M495.34,-651.69C500.24,-614.08 498.67,-521.78 471,-451.25 463.26,-431.52 449.49,-412.12 436.45,-397.53"/>
<polygon fill="black" stroke="black" points="438.73,-394.84 429.33,-389.96 433.63,-399.64 438.73,-394.84"/>
</g>
<!-- instrument_run_id&#45;&gt;generate_qc_csv_step -->
<g id="edge7" class="edge">
<title>instrument_run_id&#45;&gt;generate_qc_csv_step</title>
<path fill="none" stroke="black" d="M494.63,-651.46C498.98,-634.83 505.47,-608.94 510,-586.25 530.79,-482.03 548.23,-356.75 555.44,-302.28"/>
<polygon fill="black" stroke="black" points="558.95,-302.43 556.78,-292.06 552.01,-301.52 558.95,-302.43"/>
</g>
<!-- instrument_run_id&#45;&gt;rename_qc_csv_step -->
<g id="edge8" class="edge">
<title>instrument_run_id&#45;&gt;rename_qc_csv_step</title>
<path fill="none" stroke="black" d="M564.38,-657.22C660.6,-637.6 816,-587.79 816,-470.75 816,-470.75 816,-470.75 816,-370.75 816,-318.73 828.27,-296.82 797,-255.25 776.18,-227.56 743.09,-209.21 712,-197.27"/>
<polygon fill="black" stroke="black" points="713.02,-193.92 702.43,-193.77 710.62,-200.49 713.02,-193.92"/>
</g>
<!-- interop_directory -->
<g id="node7" class="node">
<title>interop_directory</title>
<polygon fill="#94ddf4" stroke="black" points="258,-651.75 258,-687.75 398,-687.75 398,-651.75 258,-651.75"/>
<text text-anchor="middle" x="328" y="-666.05" font-family="Times,serif" font-size="14.00">interop_directory</text>
</g>
<!-- interop_directory&#45;&gt;generate_interop_qc_step -->
<g id="edge11" class="edge">
<title>interop_directory&#45;&gt;generate_interop_qc_step</title>
<path fill="none" stroke="black" d="M330.61,-651.52C335.84,-616.99 347.65,-539.06 353.92,-497.71"/>
<polygon fill="black" stroke="black" points="357.38,-498.2 355.42,-487.79 350.46,-497.16 357.38,-498.2"/>
</g>
<!-- bclconvert_report_directory -->
<g id="node8" class="node">
<title>bclconvert_report_directory</title>
<polygon fill="#94ddf4" stroke="black" points="24.5,-651.75 24.5,-687.75 239.5,-687.75 239.5,-651.75 24.5,-651.75"/>
<text text-anchor="middle" x="132" y="-666.05" font-family="Times,serif" font-size="14.00">bclconvert_report_directory</text>
</g>
<!-- bclconvert_report_directory&#45;&gt;get_run_info_xml_file_from_reports_dir -->
<g id="edge12" class="edge">
<title>bclconvert_report_directory&#45;&gt;get_run_info_xml_file_from_reports_dir</title>
<path fill="none" stroke="black" d="M146.11,-651.33C159,-635.41 178.21,-611.7 192.74,-593.76"/>
<polygon fill="black" stroke="black" points="195.48,-595.94 199.05,-585.97 190.04,-591.54 195.48,-595.94"/>
</g>
<!-- bclconvert_report_directory&#45;&gt;run_multiqc_step -->
<g id="edge13" class="edge">
<title>bclconvert_report_directory&#45;&gt;run_multiqc_step</title>
<path fill="none" stroke="black" d="M116.8,-651.75C97.38,-627.85 68.49,-583.42 88,-549.25 138.14,-461.43 250,-414.41 326.73,-391.52"/>
<polygon fill="black" stroke="black" points="327.75,-394.86 336.38,-388.71 325.8,-388.14 327.75,-394.86"/>
</g>
</g>
</svg>
