<?xml version="1.0" encoding="UTF-8" standalone="no"?>
<!DOCTYPE svg PUBLIC "-//W3C//DTD SVG 1.1//EN"
 "http://www.w3.org/Graphics/SVG/1.1/DTD/svg11.dtd">
<!-- Generated by graphviz version 2.43.0 (0)
 -->
<!-- Title: G Pages: 1 -->
<svg width="7534pt" height="1905pt"
 viewBox="0.00 0.00 7534.00 1904.55" xmlns="http://www.w3.org/2000/svg" xmlns:xlink="http://www.w3.org/1999/xlink">
<g id="graph0" class="graph" transform="scale(1 1) rotate(0) translate(4 1900.55)">
<title>G</title>
<polygon fill="#eeeeee" stroke="transparent" points="-4,4 -4,-1900.55 7530,-1900.55 7530,4 -4,4"/>
<g id="clust1" class="cluster">
<title>cluster_inputs</title>
<polygon fill="#eeeeee" stroke="black" stroke-dasharray="5,2" points="8,-1389.61 8,-1848.84 7462,-1848.84 7462,-1389.61 8,-1389.61"/>
<text text-anchor="middle" x="7395.5" y="-1397.41" font-family="Times,serif" font-size="14.00">Workflow Inputs</text>
</g>
<g id="clust2" class="cluster">
<title>cluster_outputs</title>
<polygon fill="#eeeeee" stroke="black" stroke-dasharray="5,2" points="3099,-47.71 3099,-506.94 3755,-506.94 3755,-47.71 3099,-47.71"/>
<text text-anchor="middle" x="3682.5" y="-55.51" font-family="Times,serif" font-size="14.00">Workflow Outputs</text>
</g>
<!-- output_file_prefix -->
<g id="node1" class="node">
<title>output_file_prefix</title>
<polygon fill="#94ddf4" stroke="black" points="16,-1669.21 16,-1706.21 156,-1706.21 156,-1669.21 16,-1669.21"/>
<text text-anchor="middle" x="86" y="-1684.01" font-family="Times,serif" font-size="14.00">output_file_prefix</text>
</g>
<!-- dragen_qc_step -->
<g id="node58" class="node">
<title>dragen_qc_step</title>
<polygon fill="lightgoldenrodyellow" stroke="black" points="16.5,-769.21 16.5,-806.21 155.5,-806.21 155.5,-769.21 16.5,-769.21"/>
<text text-anchor="middle" x="86" y="-784.01" font-family="Times,serif" font-size="14.00">multiqc v(1.12.0)</text>
</g>
<!-- output_file_prefix&#45;&gt;dragen_qc_step -->
<g id="edge6" class="edge">
<title>output_file_prefix&#45;&gt;dragen_qc_step</title>
<path fill="none" stroke="black" d="M81.89,-1669.18C69.7,-1558.21 69.38,-953.77 80.91,-816.47"/>
<polygon fill="black" stroke="black" points="84.41,-816.65 81.88,-806.36 77.44,-815.98 84.41,-816.65"/>
</g>
<!-- output_file_prefix&#45;&gt;dragen_qc_step -->
<g id="edge7" class="edge">
<title>output_file_prefix&#45;&gt;dragen_qc_step</title>
<path fill="none" stroke="black" d="M86,-1669.18C86,-1558.21 86,-953.77 86,-816.47"/>
<polygon fill="black" stroke="black" points="89.5,-816.36 86,-806.36 82.5,-816.36 89.5,-816.36"/>
</g>
<!-- output_file_prefix&#45;&gt;dragen_qc_step -->
<g id="edge8" class="edge">
<title>output_file_prefix&#45;&gt;dragen_qc_step</title>
<path fill="none" stroke="black" d="M90.11,-1669.18C102.3,-1558.21 102.62,-953.77 91.09,-816.47"/>
<polygon fill="black" stroke="black" points="94.56,-815.98 90.12,-806.36 87.59,-816.65 94.56,-815.98"/>
</g>
<!-- run_dragen_alignment_step -->
<g id="node59" class="node">
<title>run_dragen_alignment_step</title>
<polygon fill="lightgoldenrodyellow" stroke="black" points="3578.5,-1210.21 3578.5,-1247.21 3781.5,-1247.21 3781.5,-1210.21 3578.5,-1210.21"/>
<text text-anchor="middle" x="3680" y="-1225.01" font-family="Times,serif" font-size="14.00">dragen&#45;alignment v(3.9.3)</text>
</g>
<!-- output_file_prefix&#45;&gt;run_dragen_alignment_step -->
<g id="edge9" class="edge">
<title>output_file_prefix&#45;&gt;run_dragen_alignment_step</title>
<path fill="none" stroke="black" d="M108.79,-1669.03C124.11,-1658.12 145.22,-1644.89 166,-1637.71 819.64,-1411.94 3042.46,-1267.66 3567.98,-1236.21"/>
<polygon fill="black" stroke="black" points="3568.44,-1239.69 3578.22,-1235.6 3568.03,-1232.7 3568.44,-1239.69"/>
</g>
<!-- aln_min_score -->
<g id="node2" class="node">
<title>aln_min_score</title>
<polygon fill="#94ddf4" stroke="black" points="7245.5,-1669.21 7245.5,-1706.21 7362.5,-1706.21 7362.5,-1669.21 7245.5,-1669.21"/>
<text text-anchor="middle" x="7304" y="-1684.01" font-family="Times,serif" font-size="14.00">aln_min_score</text>
</g>
<!-- aln_min_score&#45;&gt;run_dragen_alignment_step -->
<g id="edge10" class="edge">
<title>aln_min_score&#45;&gt;run_dragen_alignment_step</title>
<path fill="none" stroke="black" d="M7285.06,-1668.97C7272.23,-1658.04 7254.32,-1644.8 7236,-1637.71 6582.77,-1384.86 4322.33,-1260.94 3791.99,-1234.96"/>
<polygon fill="black" stroke="black" points="3791.82,-1231.44 3781.66,-1234.45 3791.48,-1238.44 3791.82,-1231.44"/>
</g>
<!-- alt_aware -->
<g id="node3" class="node">
<title>alt_aware</title>
<polygon fill="#94ddf4" stroke="black" points="7141,-1669.21 7141,-1706.21 7227,-1706.21 7227,-1669.21 7141,-1669.21"/>
<text text-anchor="middle" x="7184" y="-1684.01" font-family="Times,serif" font-size="14.00">alt_aware</text>
</g>
<!-- alt_aware&#45;&gt;run_dragen_alignment_step -->
<g id="edge11" class="edge">
<title>alt_aware&#45;&gt;run_dragen_alignment_step</title>
<path fill="none" stroke="black" d="M7170.51,-1669.21C7161.01,-1658.23 7147.29,-1644.85 7132,-1637.71 6516.61,-1350.49 4315.07,-1252.94 3792.05,-1233.56"/>
<polygon fill="black" stroke="black" points="3791.99,-1230.06 3781.86,-1233.19 3791.73,-1237.05 3791.99,-1230.06"/>
</g>
<!-- ann_sj_max_indel -->
<g id="node4" class="node">
<title>ann_sj_max_indel</title>
<polygon fill="#94ddf4" stroke="black" points="6983,-1669.21 6983,-1706.21 7123,-1706.21 7123,-1669.21 6983,-1669.21"/>
<text text-anchor="middle" x="7053" y="-1684.01" font-family="Times,serif" font-size="14.00">ann_sj_max_indel</text>
</g>
<!-- ann_sj_max_indel&#45;&gt;run_dragen_alignment_step -->
<g id="edge12" class="edge">
<title>ann_sj_max_indel&#45;&gt;run_dragen_alignment_step</title>
<path fill="none" stroke="black" d="M7030.51,-1669.08C7015.39,-1658.19 6994.55,-1644.96 6974,-1637.71 6364.99,-1422.83 4297.21,-1271.45 3792.03,-1237.11"/>
<polygon fill="black" stroke="black" points="3792.04,-1233.6 3781.82,-1236.42 3791.56,-1240.59 3792.04,-1233.6"/>
</g>
<!-- dedup_min_qual -->
<g id="node5" class="node">
<title>dedup_min_qual</title>
<polygon fill="#94ddf4" stroke="black" points="6833,-1669.21 6833,-1706.21 6965,-1706.21 6965,-1669.21 6833,-1669.21"/>
<text text-anchor="middle" x="6899" y="-1684.01" font-family="Times,serif" font-size="14.00">dedup_min_qual</text>
</g>
<!-- dedup_min_qual&#45;&gt;run_dragen_alignment_step -->
<g id="edge13" class="edge">
<title>dedup_min_qual&#45;&gt;run_dragen_alignment_step</title>
<path fill="none" stroke="black" d="M6877.77,-1669.1C6863.48,-1658.22 6843.7,-1644.99 6824,-1637.71 6247.27,-1424.65 4282.75,-1272.74 3791.87,-1237.51"/>
<polygon fill="black" stroke="black" points="3791.82,-1233.99 3781.59,-1236.77 3791.32,-1240.98 3791.82,-1233.99"/>
</g>
<!-- edit_chain_limit -->
<g id="node6" class="node">
<title>edit_chain_limit</title>
<polygon fill="#94ddf4" stroke="black" points="6685.5,-1669.21 6685.5,-1706.21 6814.5,-1706.21 6814.5,-1669.21 6685.5,-1669.21"/>
<text text-anchor="middle" x="6750" y="-1684.01" font-family="Times,serif" font-size="14.00">edit_chain_limit</text>
</g>
<!-- edit_chain_limit&#45;&gt;run_dragen_alignment_step -->
<g id="edge14" class="edge">
<title>edit_chain_limit&#45;&gt;run_dragen_alignment_step</title>
<path fill="none" stroke="black" d="M6729.08,-1669.13C6714.98,-1658.27 6695.47,-1645.04 6676,-1637.71 6129.22,-1431.83 4268.09,-1275.51 3791.76,-1238.22"/>
<polygon fill="black" stroke="black" points="3792.03,-1234.73 3781.79,-1237.44 3791.48,-1241.71 3792.03,-1234.73"/>
</g>
<!-- edit_mode -->
<g id="node7" class="node">
<title>edit_mode</title>
<polygon fill="#94ddf4" stroke="black" points="6577,-1669.21 6577,-1706.21 6667,-1706.21 6667,-1669.21 6577,-1669.21"/>
<text text-anchor="middle" x="6622" y="-1684.01" font-family="Times,serif" font-size="14.00">edit_mode</text>
</g>
<!-- edit_mode&#45;&gt;run_dragen_alignment_step -->
<g id="edge15" class="edge">
<title>edit_mode&#45;&gt;run_dragen_alignment_step</title>
<path fill="none" stroke="black" d="M6607.36,-1668.84C6597.43,-1658 6583.36,-1644.92 6568,-1637.71 6058.88,-1398.89 4259.21,-1267.35 3791.66,-1236.71"/>
<polygon fill="black" stroke="black" points="3791.74,-1233.21 3781.53,-1236.05 3791.28,-1240.2 3791.74,-1233.21"/>
</g>
<!-- edit_read_len -->
<g id="node8" class="node">
<title>edit_read_len</title>
<polygon fill="#94ddf4" stroke="black" points="6447,-1669.21 6447,-1706.21 6559,-1706.21 6559,-1669.21 6447,-1669.21"/>
<text text-anchor="middle" x="6503" y="-1684.01" font-family="Times,serif" font-size="14.00">edit_read_len</text>
</g>
<!-- edit_read_len&#45;&gt;run_dragen_alignment_step -->
<g id="edge16" class="edge">
<title>edit_read_len&#45;&gt;run_dragen_alignment_step</title>
<path fill="none" stroke="black" d="M6484.96,-1669.16C6472.71,-1658.3 6455.6,-1645.08 6438,-1637.71 5944.2,-1431.02 4244.79,-1276.92 3791.74,-1238.83"/>
<polygon fill="black" stroke="black" points="3791.85,-1235.32 3781.59,-1237.98 3791.26,-1242.3 3791.85,-1235.32"/>
</g>
<!-- edit_seed_num -->
<g id="node9" class="node">
<title>edit_seed_num</title>
<polygon fill="#94ddf4" stroke="black" points="6307,-1669.21 6307,-1706.21 6429,-1706.21 6429,-1669.21 6307,-1669.21"/>
<text text-anchor="middle" x="6368" y="-1684.01" font-family="Times,serif" font-size="14.00">edit_seed_num</text>
</g>
<!-- edit_seed_num&#45;&gt;run_dragen_alignment_step -->
<g id="edge17" class="edge">
<title>edit_seed_num&#45;&gt;run_dragen_alignment_step</title>
<path fill="none" stroke="black" d="M6348.02,-1668.99C6334.76,-1658.21 6316.44,-1645.13 6298,-1637.71 5382.7,-1269.3 4163.33,-1231.82 3791.97,-1229.36"/>
<polygon fill="black" stroke="black" points="3791.79,-1225.85 3781.77,-1229.3 3791.74,-1232.85 3791.79,-1225.85"/>
</g>
<!-- en_alt_hap_aln -->
<g id="node10" class="node">
<title>en_alt_hap_aln</title>
<polygon fill="#94ddf4" stroke="black" points="6167.5,-1669.21 6167.5,-1706.21 6288.5,-1706.21 6288.5,-1669.21 6167.5,-1669.21"/>
<text text-anchor="middle" x="6228" y="-1684.01" font-family="Times,serif" font-size="14.00">en_alt_hap_aln</text>
</g>
<!-- en_alt_hap_aln&#45;&gt;run_dragen_alignment_step -->
<g id="edge18" class="edge">
<title>en_alt_hap_aln&#45;&gt;run_dragen_alignment_step</title>
<path fill="none" stroke="black" d="M6208.33,-1669.04C6195.26,-1658.28 6177.21,-1645.2 6159,-1637.71 5298.27,-1283.59 4150.06,-1236.34 3791.65,-1230.43"/>
<polygon fill="black" stroke="black" points="3791.59,-1226.93 3781.54,-1230.27 3791.48,-1233.92 3791.59,-1226.93"/>
</g>
<!-- en_chimeric_aln -->
<g id="node11" class="node">
<title>en_chimeric_aln</title>
<polygon fill="#94ddf4" stroke="black" points="6018.5,-1669.21 6018.5,-1706.21 6149.5,-1706.21 6149.5,-1669.21 6018.5,-1669.21"/>
<text text-anchor="middle" x="6084" y="-1684.01" font-family="Times,serif" font-size="14.00">en_chimeric_aln</text>
</g>
<!-- en_chimeric_aln&#45;&gt;run_dragen_alignment_step -->
<g id="edge19" class="edge">
<title>en_chimeric_aln&#45;&gt;run_dragen_alignment_step</title>
<path fill="none" stroke="black" d="M6062.67,-1669.14C6048.56,-1658.42 6029.18,-1645.35 6010,-1637.71 5201.74,-1315.71 4135.51,-1247.24 3791.84,-1233.2"/>
<polygon fill="black" stroke="black" points="3791.77,-1229.69 3781.64,-1232.79 3791.49,-1236.69 3791.77,-1229.69"/>
</g>
<!-- enable_duplicate_marking -->
<g id="node12" class="node">
<title>enable_duplicate_marking</title>
<polygon fill="#94ddf4" stroke="black" points="5797.5,-1669.21 5797.5,-1706.21 6000.5,-1706.21 6000.5,-1669.21 5797.5,-1669.21"/>
<text text-anchor="middle" x="5899" y="-1684.01" font-family="Times,serif" font-size="14.00">enable_duplicate_marking</text>
</g>
<!-- enable_duplicate_marking&#45;&gt;run_dragen_alignment_step -->
<g id="edge20" class="edge">
<title>enable_duplicate_marking&#45;&gt;run_dragen_alignment_step</title>
<path fill="none" stroke="black" d="M5865.1,-1669.19C5843.74,-1658.77 5815.32,-1646 5789,-1637.71 5045.41,-1403.55 4109.95,-1279.76 3791.79,-1242.22"/>
<polygon fill="black" stroke="black" points="3791.98,-1238.72 3781.64,-1241.03 3791.17,-1245.67 3791.98,-1238.72"/>
</g>
<!-- enable_map_align_output -->
<g id="node13" class="node">
<title>enable_map_align_output</title>
<polygon fill="#94ddf4" stroke="black" points="5582.5,-1669.21 5582.5,-1706.21 5779.5,-1706.21 5779.5,-1669.21 5582.5,-1669.21"/>
<text text-anchor="middle" x="5681" y="-1684.01" font-family="Times,serif" font-size="14.00">enable_map_align_output</text>
</g>
<!-- enable_map_align_output&#45;&gt;run_dragen_alignment_step -->
<g id="edge21" class="edge">
<title>enable_map_align_output&#45;&gt;run_dragen_alignment_step</title>
<path fill="none" stroke="black" d="M5647.55,-1669.11C5626.82,-1658.79 5599.4,-1646.15 5574,-1637.71 4915.48,-1418.89 4088.3,-1287.79 3791.96,-1245.13"/>
<polygon fill="black" stroke="black" points="3792.04,-1241.61 3781.65,-1243.65 3791.05,-1248.53 3792.04,-1241.61"/>
</g>
<!-- enable_sort -->
<g id="node14" class="node">
<title>enable_sort</title>
<polygon fill="#94ddf4" stroke="black" points="5465.5,-1669.21 5465.5,-1706.21 5564.5,-1706.21 5564.5,-1669.21 5465.5,-1669.21"/>
<text text-anchor="middle" x="5515" y="-1684.01" font-family="Times,serif" font-size="14.00">enable_sort</text>
</g>
<!-- enable_sort&#45;&gt;run_dragen_alignment_step -->
<g id="edge22" class="edge">
<title>enable_sort&#45;&gt;run_dragen_alignment_step</title>
<path fill="none" stroke="black" d="M5497.97,-1668.85C5486.95,-1658.29 5471.75,-1645.51 5456,-1637.71 4873.11,-1349.33 4081.2,-1261.01 3791.78,-1237.4"/>
<polygon fill="black" stroke="black" points="3791.94,-1233.9 3781.69,-1236.59 3791.38,-1240.88 3791.94,-1233.9"/>
</g>
<!-- fastq_list -->
<g id="node15" class="node">
<title>fastq_list</title>
<polygon fill="#94ddf4" stroke="black" points="5365,-1669.21 5365,-1706.21 5447,-1706.21 5447,-1669.21 5365,-1669.21"/>
<text text-anchor="middle" x="5406" y="-1684.01" font-family="Times,serif" font-size="14.00">fastq_list</text>
</g>
<!-- fastq_list&#45;&gt;run_dragen_alignment_step -->
<g id="edge23" class="edge">
<title>fastq_list&#45;&gt;run_dragen_alignment_step</title>
<path fill="none" stroke="black" d="M5392.04,-1668.84C5382.88,-1658.29 5370.02,-1645.5 5356,-1637.71 4821.03,-1340.54 4072.2,-1257.83 3791.81,-1236.55"/>
<polygon fill="black" stroke="black" points="3791.87,-1233.04 3781.63,-1235.78 3791.34,-1240.02 3791.87,-1233.04"/>
</g>
<!-- fastq_list_rows -->
<g id="node16" class="node">
<title>fastq_list_rows</title>
<polygon fill="#94ddf4" stroke="black" points="5223.5,-1669.21 5223.5,-1706.21 5346.5,-1706.21 5346.5,-1669.21 5223.5,-1669.21"/>
<text text-anchor="middle" x="5285" y="-1684.01" font-family="Times,serif" font-size="14.00">fastq_list_rows</text>
</g>
<!-- fastq_list_rows&#45;&gt;run_dragen_alignment_step -->
<g id="edge24" class="edge">
<title>fastq_list_rows&#45;&gt;run_dragen_alignment_step</title>
<path fill="none" stroke="black" d="M5264.14,-1669.17C5250.81,-1658.74 5232.76,-1645.97 5215,-1637.71 4711.96,-1403.8 4051.54,-1285.56 3791.79,-1245.64"/>
<polygon fill="black" stroke="black" points="3792.01,-1242.14 3781.6,-1244.09 3790.96,-1249.06 3792.01,-1242.14"/>
</g>
<!-- gap_ext_pen -->
<g id="node17" class="node">
<title>gap_ext_pen</title>
<polygon fill="#94ddf4" stroke="black" points="5100.5,-1669.21 5100.5,-1706.21 5205.5,-1706.21 5205.5,-1669.21 5100.5,-1669.21"/>
<text text-anchor="middle" x="5153" y="-1684.01" font-family="Times,serif" font-size="14.00">gap_ext_pen</text>
</g>
<!-- gap_ext_pen&#45;&gt;run_dragen_alignment_step -->
<g id="edge25" class="edge">
<title>gap_ext_pen&#45;&gt;run_dragen_alignment_step</title>
<path fill="none" stroke="black" d="M5135.13,-1669.18C5123.63,-1658.75 5107.91,-1645.98 5092,-1637.71 4641.39,-1403.68 4038.16,-1286.96 3791.84,-1246.58"/>
<polygon fill="black" stroke="black" points="3792.24,-1243.1 3781.8,-1244.95 3791.11,-1250.01 3792.24,-1243.1"/>
</g>
<!-- gap_open_pen -->
<g id="node18" class="node">
<title>gap_open_pen</title>
<polygon fill="#94ddf4" stroke="black" points="4965.5,-1669.21 4965.5,-1706.21 5082.5,-1706.21 5082.5,-1669.21 4965.5,-1669.21"/>
<text text-anchor="middle" x="5024" y="-1684.01" font-family="Times,serif" font-size="14.00">gap_open_pen</text>
</g>
<!-- gap_open_pen&#45;&gt;run_dragen_alignment_step -->
<g id="edge26" class="edge">
<title>gap_open_pen&#45;&gt;run_dragen_alignment_step</title>
<path fill="none" stroke="black" d="M5003.71,-1669.19C4990.98,-1658.9 4973.83,-1646.27 4957,-1637.71 4541.7,-1426.57 3995.1,-1296.17 3776.45,-1249.34"/>
<polygon fill="black" stroke="black" points="3777.11,-1245.9 3766.6,-1247.23 3775.65,-1252.74 3777.11,-1245.9"/>
</g>
<!-- generate_md_tags -->
<g id="node19" class="node">
<title>generate_md_tags</title>
<polygon fill="#94ddf4" stroke="black" points="4800.5,-1669.21 4800.5,-1706.21 4947.5,-1706.21 4947.5,-1669.21 4800.5,-1669.21"/>
<text text-anchor="middle" x="4874" y="-1684.01" font-family="Times,serif" font-size="14.00">generate_md_tags</text>
</g>
<!-- generate_md_tags&#45;&gt;run_dragen_alignment_step -->
<g id="edge27" class="edge">
<title>generate_md_tags&#45;&gt;run_dragen_alignment_step</title>
<path fill="none" stroke="black" d="M4847.02,-1669.09C4831.1,-1659.14 4810.35,-1646.89 4791,-1637.71 4409.91,-1457.08 3925.76,-1303.83 3748.76,-1250.16"/>
<polygon fill="black" stroke="black" points="3749.64,-1246.77 3739.05,-1247.23 3747.61,-1253.47 3749.64,-1246.77"/>
</g>
<!-- generate_sa_tags -->
<g id="node20" class="node">
<title>generate_sa_tags</title>
<polygon fill="#94ddf4" stroke="black" points="4642,-1669.21 4642,-1706.21 4782,-1706.21 4782,-1669.21 4642,-1669.21"/>
<text text-anchor="middle" x="4712" y="-1684.01" font-family="Times,serif" font-size="14.00">generate_sa_tags</text>
</g>
<!-- generate_sa_tags&#45;&gt;run_dragen_alignment_step -->
<g id="edge28" class="edge">
<title>generate_sa_tags&#45;&gt;run_dragen_alignment_step</title>
<path fill="none" stroke="black" d="M4685.89,-1669.13C4670.77,-1659.31 4651.18,-1647.17 4633,-1637.71 4304.15,-1466.58 3887.53,-1306.7 3737.27,-1250.76"/>
<polygon fill="black" stroke="black" points="3738.36,-1247.42 3727.76,-1247.22 3735.92,-1253.99 3738.36,-1247.42"/>
</g>
<!-- generate_zs_tags -->
<g id="node21" class="node">
<title>generate_zs_tags</title>
<polygon fill="#94ddf4" stroke="black" points="4484,-1669.21 4484,-1706.21 4624,-1706.21 4624,-1669.21 4484,-1669.21"/>
<text text-anchor="middle" x="4554" y="-1684.01" font-family="Times,serif" font-size="14.00">generate_zs_tags</text>
</g>
<!-- generate_zs_tags&#45;&gt;run_dragen_alignment_step -->
<g id="edge29" class="edge">
<title>generate_zs_tags&#45;&gt;run_dragen_alignment_step</title>
<path fill="none" stroke="black" d="M4526.91,-1669.15C4511.81,-1659.56 4492.56,-1647.64 4475,-1637.71 4195.99,-1479.93 3849.49,-1311.06 3726.19,-1251.79"/>
<polygon fill="black" stroke="black" points="3727.54,-1248.55 3717.01,-1247.38 3724.51,-1254.86 3727.54,-1248.55"/>
</g>
<!-- global -->
<g id="node22" class="node">
<title>global</title>
<polygon fill="#94ddf4" stroke="black" points="4406,-1669.21 4406,-1706.21 4466,-1706.21 4466,-1669.21 4406,-1669.21"/>
<text text-anchor="middle" x="4436" y="-1684.01" font-family="Times,serif" font-size="14.00">global</text>
</g>
<!-- global&#45;&gt;run_dragen_alignment_step -->
<g id="edge30" class="edge">
<title>global&#45;&gt;run_dragen_alignment_step</title>
<path fill="none" stroke="black" d="M4424.81,-1668.98C4417.91,-1658.99 4408.41,-1646.74 4398,-1637.71 4179.13,-1448.08 3858.66,-1303.69 3733.17,-1251.21"/>
<polygon fill="black" stroke="black" points="3734.34,-1247.91 3723.76,-1247.3 3731.65,-1254.37 3734.34,-1247.91"/>
</g>
<!-- hard_clips -->
<g id="node23" class="node">
<title>hard_clips</title>
<polygon fill="#94ddf4" stroke="black" points="4299.5,-1669.21 4299.5,-1706.21 4388.5,-1706.21 4388.5,-1669.21 4299.5,-1669.21"/>
<text text-anchor="middle" x="4344" y="-1684.01" font-family="Times,serif" font-size="14.00">hard_clips</text>
</g>
<!-- hard_clips&#45;&gt;run_dragen_alignment_step -->
<g id="edge31" class="edge">
<title>hard_clips&#45;&gt;run_dragen_alignment_step</title>
<path fill="none" stroke="black" d="M4325.6,-1668.77C4315.43,-1659.17 4302.37,-1647.38 4290,-1637.71 4084.08,-1476.84 3816.58,-1311.86 3718.34,-1252.61"/>
<polygon fill="black" stroke="black" points="3720.01,-1249.53 3709.64,-1247.37 3716.4,-1255.53 3720.01,-1249.53"/>
</g>
<!-- map_orientations -->
<g id="node24" class="node">
<title>map_orientations</title>
<polygon fill="#94ddf4" stroke="black" points="4141,-1669.21 4141,-1706.21 4281,-1706.21 4281,-1669.21 4141,-1669.21"/>
<text text-anchor="middle" x="4211" y="-1684.01" font-family="Times,serif" font-size="14.00">map_orientations</text>
</g>
<!-- map_orientations&#45;&gt;run_dragen_alignment_step -->
<g id="edge32" class="edge">
<title>map_orientations&#45;&gt;run_dragen_alignment_step</title>
<path fill="none" stroke="black" d="M4190.51,-1669.08C4108.37,-1598.39 3802.84,-1335.44 3708.16,-1253.95"/>
<polygon fill="black" stroke="black" points="3710.29,-1251.16 3700.43,-1247.29 3705.73,-1256.47 3710.29,-1251.16"/>
</g>
<!-- mapq_max -->
<g id="node25" class="node">
<title>mapq_max</title>
<polygon fill="#94ddf4" stroke="black" points="4029.5,-1669.21 4029.5,-1706.21 4122.5,-1706.21 4122.5,-1669.21 4029.5,-1669.21"/>
<text text-anchor="middle" x="4076" y="-1684.01" font-family="Times,serif" font-size="14.00">mapq_max</text>
</g>
<!-- mapq_max&#45;&gt;run_dragen_alignment_step -->
<g id="edge33" class="edge">
<title>mapq_max&#45;&gt;run_dragen_alignment_step</title>
<path fill="none" stroke="black" d="M4060.72,-1669.08C3999.78,-1598.75 3773.95,-1338.14 3702.1,-1255.22"/>
<polygon fill="black" stroke="black" points="3704.64,-1252.81 3695.45,-1247.54 3699.35,-1257.39 3704.64,-1252.81"/>
</g>
<!-- mapq_strict_js -->
<g id="node26" class="node">
<title>mapq_strict_js</title>
<polygon fill="#94ddf4" stroke="black" points="3891,-1669.21 3891,-1706.21 4011,-1706.21 4011,-1669.21 3891,-1669.21"/>
<text text-anchor="middle" x="3951" y="-1684.01" font-family="Times,serif" font-size="14.00">mapq_strict_js</text>
</g>
<!-- mapq_strict_js&#45;&gt;run_dragen_alignment_step -->
<g id="edge34" class="edge">
<title>mapq_strict_js&#45;&gt;run_dragen_alignment_step</title>
<path fill="none" stroke="black" d="M3940.54,-1669.08C3899.01,-1599.04 3745.54,-1340.24 3695.73,-1256.23"/>
<polygon fill="black" stroke="black" points="3698.68,-1254.36 3690.57,-1247.54 3692.66,-1257.93 3698.68,-1254.36"/>
</g>
<!-- match_n_score -->
<g id="node27" class="node">
<title>match_n_score</title>
<polygon fill="#94ddf4" stroke="black" points="3751,-1669.21 3751,-1706.21 3873,-1706.21 3873,-1669.21 3751,-1669.21"/>
<text text-anchor="middle" x="3812" y="-1684.01" font-family="Times,serif" font-size="14.00">match_n_score</text>
</g>
<!-- match_n_score&#45;&gt;run_dragen_alignment_step -->
<g id="edge35" class="edge">
<title>match_n_score&#45;&gt;run_dragen_alignment_step</title>
<path fill="none" stroke="black" d="M3806.91,-1669.08C3786.76,-1599.32 3712.53,-1342.33 3687.96,-1257.26"/>
<polygon fill="black" stroke="black" points="3691.29,-1256.18 3685.15,-1247.54 3684.56,-1258.12 3691.29,-1256.18"/>
</g>
<!-- match_score -->
<g id="node28" class="node">
<title>match_score</title>
<polygon fill="#94ddf4" stroke="black" points="3627,-1669.21 3627,-1706.21 3733,-1706.21 3733,-1669.21 3627,-1669.21"/>
<text text-anchor="middle" x="3680" y="-1684.01" font-family="Times,serif" font-size="14.00">match_score</text>
</g>
<!-- match_score&#45;&gt;run_dragen_alignment_step -->
<g id="edge36" class="edge">
<title>match_score&#45;&gt;run_dragen_alignment_step</title>
<path fill="none" stroke="black" d="M3680,-1669.08C3680,-1599.46 3680,-1343.38 3680,-1257.78"/>
<polygon fill="black" stroke="black" points="3683.5,-1257.54 3680,-1247.54 3676.5,-1257.54 3683.5,-1257.54"/>
</g>
<!-- max_intron_bases -->
<g id="node29" class="node">
<title>max_intron_bases</title>
<polygon fill="#94ddf4" stroke="black" points="3465,-1669.21 3465,-1706.21 3609,-1706.21 3609,-1669.21 3465,-1669.21"/>
<text text-anchor="middle" x="3537" y="-1684.01" font-family="Times,serif" font-size="14.00">max_intron_bases</text>
</g>
<!-- max_intron_bases&#45;&gt;run_dragen_alignment_step -->
<g id="edge37" class="edge">
<title>max_intron_bases&#45;&gt;run_dragen_alignment_step</title>
<path fill="none" stroke="black" d="M3542.52,-1669.08C3564.35,-1599.32 3644.76,-1342.33 3671.38,-1257.26"/>
<polygon fill="black" stroke="black" points="3674.78,-1258.13 3674.42,-1247.54 3668.09,-1256.04 3674.78,-1258.13"/>
</g>
<!-- max_rescues -->
<g id="node30" class="node">
<title>max_rescues</title>
<polygon fill="#94ddf4" stroke="black" points="3339,-1669.21 3339,-1706.21 3447,-1706.21 3447,-1669.21 3339,-1669.21"/>
<text text-anchor="middle" x="3393" y="-1684.01" font-family="Times,serif" font-size="14.00">max_rescues</text>
</g>
<!-- max_rescues&#45;&gt;run_dragen_alignment_step -->
<g id="edge38" class="edge">
<title>max_rescues&#45;&gt;run_dragen_alignment_step</title>
<path fill="none" stroke="black" d="M3404.07,-1669.08C3448.06,-1599.04 3610.59,-1340.24 3663.35,-1256.23"/>
<polygon fill="black" stroke="black" points="3666.45,-1257.87 3668.8,-1247.54 3660.52,-1254.15 3666.45,-1257.87"/>
</g>
<!-- min_intron_bases -->
<g id="node31" class="node">
<title>min_intron_bases</title>
<polygon fill="#94ddf4" stroke="black" points="3179.5,-1669.21 3179.5,-1706.21 3320.5,-1706.21 3320.5,-1669.21 3179.5,-1669.21"/>
<text text-anchor="middle" x="3250" y="-1684.01" font-family="Times,serif" font-size="14.00">min_intron_bases</text>
</g>
<!-- min_intron_bases&#45;&gt;run_dragen_alignment_step -->
<g id="edge39" class="edge">
<title>min_intron_bases&#45;&gt;run_dragen_alignment_step</title>
<path fill="none" stroke="black" d="M3266.59,-1669.08C3332.83,-1598.68 3578.48,-1337.61 3656.24,-1254.97"/>
<polygon fill="black" stroke="black" points="3658.92,-1257.22 3663.22,-1247.54 3653.82,-1252.43 3658.92,-1257.22"/>
</g>
<!-- min_score_coeff -->
<g id="node32" class="node">
<title>min_score_coeff</title>
<polygon fill="#94ddf4" stroke="black" points="3032.5,-1669.21 3032.5,-1706.21 3161.5,-1706.21 3161.5,-1669.21 3032.5,-1669.21"/>
<text text-anchor="middle" x="3097" y="-1684.01" font-family="Times,serif" font-size="14.00">min_score_coeff</text>
</g>
<!-- min_score_coeff&#45;&gt;run_dragen_alignment_step -->
<g id="edge40" class="edge">
<title>min_score_coeff&#45;&gt;run_dragen_alignment_step</title>
<path fill="none" stroke="black" d="M3119.5,-1669.08C3209.77,-1598.32 3545.8,-1334.91 3649.39,-1253.7"/>
<polygon fill="black" stroke="black" points="3651.86,-1256.22 3657.57,-1247.29 3647.54,-1250.71 3651.86,-1256.22"/>
</g>
<!-- mismatch_pen -->
<g id="node33" class="node">
<title>mismatch_pen</title>
<polygon fill="#94ddf4" stroke="black" points="2895.5,-1669.21 2895.5,-1706.21 3014.5,-1706.21 3014.5,-1669.21 2895.5,-1669.21"/>
<text text-anchor="middle" x="2955" y="-1684.01" font-family="Times,serif" font-size="14.00">mismatch_pen</text>
</g>
<!-- mismatch_pen&#45;&gt;run_dragen_alignment_step -->
<g id="edge41" class="edge">
<title>mismatch_pen&#45;&gt;run_dragen_alignment_step</title>
<path fill="none" stroke="black" d="M2979.02,-1669.11C2992.17,-1659.61 3008.83,-1647.8 3024,-1637.71 3254.35,-1484.49 3539.39,-1313.3 3641.44,-1252.57"/>
<polygon fill="black" stroke="black" points="3643.36,-1255.5 3650.17,-1247.38 3639.79,-1249.48 3643.36,-1255.5"/>
</g>
<!-- no_unclip_score -->
<g id="node34" class="node">
<title>no_unclip_score</title>
<polygon fill="#94ddf4" stroke="black" points="2748.5,-1669.21 2748.5,-1706.21 2877.5,-1706.21 2877.5,-1669.21 2748.5,-1669.21"/>
<text text-anchor="middle" x="2813" y="-1684.01" font-family="Times,serif" font-size="14.00">no_unclip_score</text>
</g>
<!-- no_unclip_score&#45;&gt;run_dragen_alignment_step -->
<g id="edge42" class="edge">
<title>no_unclip_score&#45;&gt;run_dragen_alignment_step</title>
<path fill="none" stroke="black" d="M2838.25,-1669C2852.35,-1659.36 2870.38,-1647.45 2887,-1637.71 3162.36,-1476.37 3508.41,-1310.33 3632.79,-1251.76"/>
<polygon fill="black" stroke="black" points="3634.5,-1254.83 3642.06,-1247.4 3631.52,-1248.49 3634.5,-1254.83"/>
</g>
<!-- no_unpaired -->
<g id="node35" class="node">
<title>no_unpaired</title>
<polygon fill="#94ddf4" stroke="black" points="2626,-1669.21 2626,-1706.21 2730,-1706.21 2730,-1669.21 2626,-1669.21"/>
<text text-anchor="middle" x="2678" y="-1684.01" font-family="Times,serif" font-size="14.00">no_unpaired</text>
</g>
<!-- no_unpaired&#45;&gt;run_dragen_alignment_step -->
<g id="edge43" class="edge">
<title>no_unpaired&#45;&gt;run_dragen_alignment_step</title>
<path fill="none" stroke="black" d="M2697.42,-1669.21C2709.19,-1659.17 2724.81,-1646.8 2740,-1637.71 3050.91,-1451.7 3462.03,-1303.44 3617.16,-1250.58"/>
<polygon fill="black" stroke="black" points="3618.66,-1253.77 3627.01,-1247.24 3616.41,-1247.14 3618.66,-1253.77"/>
</g>
<!-- output_directory -->
<g id="node36" class="node">
<title>output_directory</title>
<polygon fill="#94ddf4" stroke="black" points="2472,-1669.21 2472,-1706.21 2608,-1706.21 2608,-1669.21 2472,-1669.21"/>
<text text-anchor="middle" x="2540" y="-1684.01" font-family="Times,serif" font-size="14.00">output_directory</text>
</g>
<!-- output_directory&#45;&gt;run_dragen_alignment_step -->
<g id="edge44" class="edge">
<title>output_directory&#45;&gt;run_dragen_alignment_step</title>
<path fill="none" stroke="black" d="M2564.91,-1669.05C2579.64,-1659.09 2598.89,-1646.84 2617,-1637.71 2978.73,-1455.51 3442.39,-1303.6 3613.08,-1250.21"/>
<polygon fill="black" stroke="black" points="3614.18,-1253.54 3622.69,-1247.22 3612.1,-1246.85 3614.18,-1253.54"/>
</g>
<!-- pe_max_penalty -->
<g id="node37" class="node">
<title>pe_max_penalty</title>
<polygon fill="#94ddf4" stroke="black" points="2322.5,-1669.21 2322.5,-1706.21 2453.5,-1706.21 2453.5,-1669.21 2322.5,-1669.21"/>
<text text-anchor="middle" x="2388" y="-1684.01" font-family="Times,serif" font-size="14.00">pe_max_penalty</text>
</g>
<!-- pe_max_penalty&#45;&gt;run_dragen_alignment_step -->
<g id="edge45" class="edge">
<title>pe_max_penalty&#45;&gt;run_dragen_alignment_step</title>
<path fill="none" stroke="black" d="M2411.4,-1669.19C2425.75,-1659.02 2444.8,-1646.53 2463,-1637.71 2869.77,-1440.67 3395.92,-1299.75 3596.94,-1249.7"/>
<polygon fill="black" stroke="black" points="3597.98,-1253.05 3606.84,-1247.25 3596.29,-1246.26 3597.98,-1253.05"/>
</g>
<!-- pe_orientation -->
<g id="node38" class="node">
<title>pe_orientation</title>
<polygon fill="#94ddf4" stroke="black" points="2185.5,-1669.21 2185.5,-1706.21 2304.5,-1706.21 2304.5,-1669.21 2185.5,-1669.21"/>
<text text-anchor="middle" x="2245" y="-1684.01" font-family="Times,serif" font-size="14.00">pe_orientation</text>
</g>
<!-- pe_orientation&#45;&gt;run_dragen_alignment_step -->
<g id="edge46" class="edge">
<title>pe_orientation&#45;&gt;run_dragen_alignment_step</title>
<path fill="none" stroke="black" d="M2265.91,-1669.11C2279.04,-1658.78 2296.7,-1646.15 2314,-1637.71 2756.98,-1421.61 3337.36,-1294.83 3573.33,-1249.17"/>
<polygon fill="black" stroke="black" points="3574.12,-1252.58 3583.28,-1247.25 3572.8,-1245.71 3574.12,-1252.58"/>
</g>
<!-- preserve_map_align_order -->
<g id="node39" class="node">
<title>preserve_map_align_order</title>
<polygon fill="#94ddf4" stroke="black" points="1962.5,-1669.21 1962.5,-1706.21 2167.5,-1706.21 2167.5,-1669.21 1962.5,-1669.21"/>
<text text-anchor="middle" x="2065" y="-1684.01" font-family="Times,serif" font-size="14.00">preserve_map_align_order</text>
</g>
<!-- preserve_map_align_order&#45;&gt;run_dragen_alignment_step -->
<g id="edge47" class="edge">
<title>preserve_map_align_order&#45;&gt;run_dragen_alignment_step</title>
<path fill="none" stroke="black" d="M2101.53,-1669.1C2123.16,-1659.09 2151.28,-1646.77 2177,-1637.71 2701.18,-1453.03 3352.57,-1301.89 3588.96,-1249.49"/>
<polygon fill="black" stroke="black" points="3589.88,-1252.87 3598.88,-1247.29 3588.36,-1246.03 3589.88,-1252.87"/>
</g>
<!-- reference_tar -->
<g id="node40" class="node">
<title>reference_tar</title>
<polygon fill="#94ddf4" stroke="black" points="1831.5,-1669.21 1831.5,-1706.21 1944.5,-1706.21 1944.5,-1669.21 1831.5,-1669.21"/>
<text text-anchor="middle" x="1888" y="-1684.01" font-family="Times,serif" font-size="14.00">reference_tar</text>
</g>
<!-- reference_tar&#45;&gt;run_dragen_alignment_step -->
<g id="edge48" class="edge">
<title>reference_tar&#45;&gt;run_dragen_alignment_step</title>
<path fill="none" stroke="black" d="M1907.15,-1669.19C1919.65,-1658.63 1936.79,-1645.72 1954,-1637.71 2524.86,-1372.18 3284.92,-1270.53 3567.76,-1240.37"/>
<polygon fill="black" stroke="black" points="3568.45,-1243.82 3578.02,-1239.29 3567.71,-1236.86 3568.45,-1243.82"/>
</g>
<!-- remove_duplicates -->
<g id="node41" class="node">
<title>remove_duplicates</title>
<polygon fill="#94ddf4" stroke="black" points="1663,-1669.21 1663,-1706.21 1813,-1706.21 1813,-1669.21 1663,-1669.21"/>
<text text-anchor="middle" x="1738" y="-1684.01" font-family="Times,serif" font-size="14.00">remove_duplicates</text>
</g>
<!-- remove_duplicates&#45;&gt;run_dragen_alignment_step -->
<g id="edge49" class="edge">
<title>remove_duplicates&#45;&gt;run_dragen_alignment_step</title>
<path fill="none" stroke="black" d="M1763.75,-1669.08C1780.09,-1658.61 1802.03,-1645.83 1823,-1637.71 2457.42,-1391.93 3274.07,-1277.44 3568.22,-1242.15"/>
<polygon fill="black" stroke="black" points="3568.95,-1245.59 3578.47,-1240.93 3568.12,-1238.64 3568.95,-1245.59"/>
</g>
<!-- rescue_sigmas -->
<g id="node42" class="node">
<title>rescue_sigmas</title>
<polygon fill="#94ddf4" stroke="black" points="1523.5,-1669.21 1523.5,-1706.21 1644.5,-1706.21 1644.5,-1669.21 1523.5,-1669.21"/>
<text text-anchor="middle" x="1584" y="-1684.01" font-family="Times,serif" font-size="14.00">rescue_sigmas</text>
</g>
<!-- rescue_sigmas&#45;&gt;run_dragen_alignment_step -->
<g id="edge50" class="edge">
<title>rescue_sigmas&#45;&gt;run_dragen_alignment_step</title>
<path fill="none" stroke="black" d="M1604.39,-1669.03C1617.68,-1658.4 1635.86,-1645.48 1654,-1637.71 2342.22,-1342.9 3254.6,-1257.62 3568.43,-1236.16"/>
<polygon fill="black" stroke="black" points="3568.7,-1239.65 3578.44,-1235.48 3568.23,-1232.67 3568.7,-1239.65"/>
</g>
<!-- sec_aligns -->
<g id="node43" class="node">
<title>sec_aligns</title>
<polygon fill="#94ddf4" stroke="black" points="1416.5,-1669.21 1416.5,-1706.21 1505.5,-1706.21 1505.5,-1669.21 1416.5,-1669.21"/>
<text text-anchor="middle" x="1461" y="-1684.01" font-family="Times,serif" font-size="14.00">sec_aligns</text>
</g>
<!-- sec_aligns&#45;&gt;run_dragen_alignment_step -->
<g id="edge51" class="edge">
<title>sec_aligns&#45;&gt;run_dragen_alignment_step</title>
<path fill="none" stroke="black" d="M1475.75,-1669.08C1485.73,-1658.34 1499.81,-1645.27 1515,-1637.71 2236.53,-1278.81 3236.87,-1234.31 3568.36,-1229.8"/>
<polygon fill="black" stroke="black" points="3568.49,-1233.3 3578.45,-1229.67 3568.4,-1226.3 3568.49,-1233.3"/>
</g>
<!-- sec_aligns_hard -->
<g id="node44" class="node">
<title>sec_aligns_hard</title>
<polygon fill="#94ddf4" stroke="black" points="1269.5,-1669.21 1269.5,-1706.21 1398.5,-1706.21 1398.5,-1669.21 1269.5,-1669.21"/>
<text text-anchor="middle" x="1334" y="-1684.01" font-family="Times,serif" font-size="14.00">sec_aligns_hard</text>
</g>
<!-- sec_aligns_hard&#45;&gt;run_dragen_alignment_step -->
<g id="edge52" class="edge">
<title>sec_aligns_hard&#45;&gt;run_dragen_alignment_step</title>
<path fill="none" stroke="black" d="M1355.34,-1669.17C1369.46,-1658.46 1388.84,-1645.4 1408,-1637.71 2193.99,-1322.61 3230.34,-1249.71 3568.28,-1233.86"/>
<polygon fill="black" stroke="black" points="3568.48,-1237.36 3578.31,-1233.4 3568.16,-1230.37 3568.48,-1237.36"/>
</g>
<!-- sec_phred_delta -->
<g id="node45" class="node">
<title>sec_phred_delta</title>
<polygon fill="#94ddf4" stroke="black" points="1120.5,-1669.21 1120.5,-1706.21 1251.5,-1706.21 1251.5,-1669.21 1120.5,-1669.21"/>
<text text-anchor="middle" x="1186" y="-1684.01" font-family="Times,serif" font-size="14.00">sec_phred_delta</text>
</g>
<!-- sec_phred_delta&#45;&gt;run_dragen_alignment_step -->
<g id="edge53" class="edge">
<title>sec_phred_delta&#45;&gt;run_dragen_alignment_step</title>
<path fill="none" stroke="black" d="M1207.64,-1669.11C1221.95,-1658.37 1241.59,-1645.31 1261,-1637.71 2104.68,-1307.66 3216.44,-1244.41 3568.28,-1232.45"/>
<polygon fill="black" stroke="black" points="3568.58,-1235.94 3578.46,-1232.11 3568.35,-1228.95 3568.58,-1235.94"/>
</g>
<!-- sec_score_delta -->
<g id="node46" class="node">
<title>sec_score_delta</title>
<polygon fill="#94ddf4" stroke="black" points="974,-1669.21 974,-1706.21 1102,-1706.21 1102,-1669.21 974,-1669.21"/>
<text text-anchor="middle" x="1038" y="-1684.01" font-family="Times,serif" font-size="14.00">sec_score_delta</text>
</g>
<!-- sec_score_delta&#45;&gt;run_dragen_alignment_step -->
<g id="edge54" class="edge">
<title>sec_score_delta&#45;&gt;run_dragen_alignment_step</title>
<path fill="none" stroke="black" d="M1059.29,-1669.04C1073.39,-1658.28 1092.76,-1645.2 1112,-1637.71 2012.49,-1287.18 3202.54,-1237.59 3568.31,-1230.75"/>
<polygon fill="black" stroke="black" points="3568.43,-1234.25 3578.37,-1230.57 3568.3,-1227.25 3568.43,-1234.25"/>
</g>
<!-- seed_density -->
<g id="node47" class="node">
<title>seed_density</title>
<polygon fill="#94ddf4" stroke="black" points="846.5,-1669.21 846.5,-1706.21 955.5,-1706.21 955.5,-1669.21 846.5,-1669.21"/>
<text text-anchor="middle" x="901" y="-1684.01" font-family="Times,serif" font-size="14.00">seed_density</text>
</g>
<!-- seed_density&#45;&gt;run_dragen_alignment_step -->
<g id="edge55" class="edge">
<title>seed_density&#45;&gt;run_dragen_alignment_step</title>
<path fill="none" stroke="black" d="M918.72,-1669.17C930.76,-1658.31 947.61,-1645.09 965,-1637.71 1449.72,-1432.04 3120.04,-1277.48 3568.45,-1239"/>
<polygon fill="black" stroke="black" points="3568.83,-1242.48 3578.5,-1238.14 3568.24,-1235.51 3568.83,-1242.48"/>
</g>
<!-- supp_aligns -->
<g id="node48" class="node">
<title>supp_aligns</title>
<polygon fill="#94ddf4" stroke="black" points="727.5,-1669.21 727.5,-1706.21 828.5,-1706.21 828.5,-1669.21 727.5,-1669.21"/>
<text text-anchor="middle" x="778" y="-1684.01" font-family="Times,serif" font-size="14.00">supp_aligns</text>
</g>
<!-- supp_aligns&#45;&gt;run_dragen_alignment_step -->
<g id="edge56" class="edge">
<title>supp_aligns&#45;&gt;run_dragen_alignment_step</title>
<path fill="none" stroke="black" d="M794.4,-1669.11C805.6,-1658.24 821.38,-1645.01 838,-1637.71 1344.02,-1415.55 3105.64,-1272.15 3568.11,-1237.74"/>
<polygon fill="black" stroke="black" points="3568.42,-1241.23 3578.13,-1237 3567.9,-1234.25 3568.42,-1241.23"/>
</g>
<!-- supp_as_sec -->
<g id="node49" class="node">
<title>supp_as_sec</title>
<polygon fill="#94ddf4" stroke="black" points="605,-1669.21 605,-1706.21 709,-1706.21 709,-1669.21 605,-1669.21"/>
<text text-anchor="middle" x="657" y="-1684.01" font-family="Times,serif" font-size="14.00">supp_as_sec</text>
</g>
<!-- supp_as_sec&#45;&gt;run_dragen_alignment_step -->
<g id="edge57" class="edge">
<title>supp_as_sec&#45;&gt;run_dragen_alignment_step</title>
<path fill="none" stroke="black" d="M674.04,-1669.09C685.65,-1658.2 701.96,-1644.97 719,-1637.71 1249.89,-1411.46 3093.45,-1270.37 3567.94,-1237.25"/>
<polygon fill="black" stroke="black" points="3568.48,-1240.72 3578.21,-1236.54 3568,-1233.74 3568.48,-1240.72"/>
</g>
<!-- supp_min_score_adj -->
<g id="node50" class="node">
<title>supp_min_score_adj</title>
<polygon fill="#94ddf4" stroke="black" points="429,-1669.21 429,-1706.21 587,-1706.21 587,-1669.21 429,-1669.21"/>
<text text-anchor="middle" x="508" y="-1684.01" font-family="Times,serif" font-size="14.00">supp_min_score_adj</text>
</g>
<!-- supp_min_score_adj&#45;&gt;run_dragen_alignment_step -->
<g id="edge58" class="edge">
<title>supp_min_score_adj&#45;&gt;run_dragen_alignment_step</title>
<path fill="none" stroke="black" d="M533.37,-1669.19C550.34,-1658.35 573.59,-1645.13 596,-1637.71 1712.03,-1268.12 3159.92,-1232.07 3568.39,-1229.56"/>
<polygon fill="black" stroke="black" points="3568.45,-1233.06 3578.43,-1229.5 3568.41,-1226.06 3568.45,-1233.06"/>
</g>
<!-- unclip_score -->
<g id="node51" class="node">
<title>unclip_score</title>
<polygon fill="#94ddf4" stroke="black" points="305.5,-1669.21 305.5,-1706.21 410.5,-1706.21 410.5,-1669.21 305.5,-1669.21"/>
<text text-anchor="middle" x="358" y="-1684.01" font-family="Times,serif" font-size="14.00">unclip_score</text>
</g>
<!-- unclip_score&#45;&gt;run_dragen_alignment_step -->
<g id="edge59" class="edge">
<title>unclip_score&#45;&gt;run_dragen_alignment_step</title>
<path fill="none" stroke="black" d="M375.01,-1669.02C386.61,-1658.1 402.92,-1644.87 420,-1637.71 1009.45,-1390.81 3064.76,-1263.54 3568.1,-1235.64"/>
<polygon fill="black" stroke="black" points="3568.48,-1239.13 3578.27,-1235.08 3568.09,-1232.14 3568.48,-1239.13"/>
</g>
<!-- unpaired_pen -->
<g id="node52" class="node">
<title>unpaired_pen</title>
<polygon fill="#94ddf4" stroke="black" points="174.5,-1669.21 174.5,-1706.21 287.5,-1706.21 287.5,-1669.21 174.5,-1669.21"/>
<text text-anchor="middle" x="231" y="-1684.01" font-family="Times,serif" font-size="14.00">unpaired_pen</text>
</g>
<!-- unpaired_pen&#45;&gt;run_dragen_alignment_step -->
<g id="edge60" class="edge">
<title>unpaired_pen&#45;&gt;run_dragen_alignment_step</title>
<path fill="none" stroke="black" d="M249.3,-1669C261.73,-1658.08 279.1,-1644.85 297,-1637.71 914.39,-1391.6 3054.23,-1263.2 3568.31,-1235.48"/>
<polygon fill="black" stroke="black" points="3568.53,-1238.98 3578.33,-1234.94 3568.16,-1231.99 3568.53,-1238.98"/>
</g>
<!-- verbose -->
<g id="node53" class="node">
<title>verbose</title>
<polygon fill="#94ddf4" stroke="black" points="7380.5,-1669.21 7380.5,-1706.21 7453.5,-1706.21 7453.5,-1669.21 7380.5,-1669.21"/>
<text text-anchor="middle" x="7417" y="-1684.01" font-family="Times,serif" font-size="14.00">verbose</text>
</g>
<!-- verbose&#45;&gt;run_dragen_alignment_step -->
<g id="edge61" class="edge">
<title>verbose&#45;&gt;run_dragen_alignment_step</title>
<path fill="none" stroke="black" d="M7405.84,-1669.19C7397.84,-1658.2 7386.01,-1644.81 7372,-1637.71 6721.46,-1308.08 4338.47,-1242.43 3792.13,-1231.61"/>
<polygon fill="black" stroke="black" points="3791.96,-1228.11 3781.89,-1231.41 3791.82,-1235.11 3791.96,-1228.11"/>
</g>
<!-- dragen_alignment_output_directory -->
<g id="node54" class="node">
<title>dragen_alignment_output_directory</title>
<polygon fill="#94ddf4" stroke="black" points="3323,-327.21 3323,-364.21 3595,-364.21 3595,-327.21 3323,-327.21"/>
<text text-anchor="middle" x="3459" y="-342.01" font-family="Times,serif" font-size="14.00">dragen_alignment_output_directory</text>
</g>
<!-- dragen_bam_out -->
<g id="node55" class="node">
<title>dragen_bam_out</title>
<polygon fill="#94ddf4" stroke="black" points="3613,-327.21 3613,-364.21 3747,-364.21 3747,-327.21 3613,-327.21"/>
<text text-anchor="middle" x="3680" y="-342.01" font-family="Times,serif" font-size="14.00">dragen_bam_out</text>
</g>
<!-- multiqc_output_directory -->
<g id="node56" class="node">
<title>multiqc_output_directory</title>
<polygon fill="#94ddf4" stroke="black" points="3107.5,-327.21 3107.5,-364.21 3304.5,-364.21 3304.5,-327.21 3107.5,-327.21"/>
<text text-anchor="middle" x="3206" y="-342.01" font-family="Times,serif" font-size="14.00">multiqc_output_directory</text>
</g>
<!-- create_dummy_file_step -->
<g id="node57" class="node">
<title>create_dummy_file_step</title>
<polygon fill="lightgoldenrodyellow" stroke="black" points="132.5,-1210.21 132.5,-1247.21 393.5,-1247.21 393.5,-1210.21 132.5,-1210.21"/>
<text text-anchor="middle" x="263" y="-1225.01" font-family="Times,serif" font-size="14.00">custom&#45;create&#45;dummy&#45;file v(1.0.0)</text>
</g>
<!-- create_dummy_file_step&#45;&gt;dragen_qc_step -->
<g id="edge1" class="edge">
<title>create_dummy_file_step&#45;&gt;dragen_qc_step</title>
<path fill="none" stroke="black" d="M255.84,-1209.96C228.46,-1142.05 130.24,-898.45 97.05,-816.12"/>
<polygon fill="black" stroke="black" points="100.23,-814.65 93.25,-806.69 93.74,-817.27 100.23,-814.65"/>
</g>
<!-- dragen_qc_step&#45;&gt;multiqc_output_directory -->
<g id="edge2" class="edge">
<title>dragen_qc_step&#45;&gt;multiqc_output_directory</title>
<path fill="none" stroke="black" d="M155.54,-776.91C559.28,-719.97 2601.15,-432.01 3097.26,-362.05"/>
<polygon fill="black" stroke="black" points="3097.87,-365.5 3107.28,-360.63 3096.89,-358.56 3097.87,-365.5"/>
</g>
<!-- run_dragen_alignment_step&#45;&gt;dragen_alignment_output_directory -->
<g id="edge4" class="edge">
<title>run_dragen_alignment_step&#45;&gt;dragen_alignment_output_directory</title>
<path fill="none" stroke="black" d="M3675.59,-1210.11C3648.04,-1100.32 3499.86,-509.6 3465.93,-374.32"/>
<polygon fill="black" stroke="black" points="3469.25,-373.2 3463.43,-364.35 3462.46,-374.9 3469.25,-373.2"/>
</g>
<!-- run_dragen_alignment_step&#45;&gt;dragen_bam_out -->
<g id="edge5" class="edge">
<title>run_dragen_alignment_step&#45;&gt;dragen_bam_out</title>
<path fill="none" stroke="black" d="M3680,-1210.11C3680,-1100.43 3680,-510.78 3680,-374.73"/>
<polygon fill="black" stroke="black" points="3683.5,-374.35 3680,-364.35 3676.5,-374.35 3683.5,-374.35"/>
</g>
<!-- run_dragen_alignment_step&#45;&gt;dragen_qc_step -->
<g id="edge3" class="edge">
<title>run_dragen_alignment_step&#45;&gt;dragen_qc_step</title>
<path fill="none" stroke="black" d="M3578.23,-1215.28C3051.07,-1150.89 637.24,-856.04 165.93,-798.47"/>
<polygon fill="black" stroke="black" points="166.16,-794.98 155.81,-797.24 165.31,-801.93 166.16,-794.98"/>
</g>
<!-- \n -->
<g id="node60" class="node">
<title>\n</title>
<ellipse fill="none" stroke="black" cx="7499" cy="-1687.71" rx="27" ry="18"/>
</g>
</g>
</svg>
