<?xml version="1.0" encoding="UTF-8" standalone="no"?>
<!DOCTYPE svg PUBLIC "-//W3C//DTD SVG 1.1//EN"
 "http://www.w3.org/Graphics/SVG/1.1/DTD/svg11.dtd">
<!-- Generated by graphviz version 2.43.0 (0)
 -->
<!-- Title: G Pages: 1 -->
<svg width="7700pt" height="1946pt"
 viewBox="0.00 0.00 7699.50 1946.13" xmlns="http://www.w3.org/2000/svg" xmlns:xlink="http://www.w3.org/1999/xlink">
<g id="graph0" class="graph" transform="scale(1 1) rotate(0) translate(4 1942.13)">
<title>G</title>
<polygon fill="#eeeeee" stroke="transparent" points="-4,4 -4,-1942.13 7695.5,-1942.13 7695.5,4 -4,4"/>
<g id="clust1" class="cluster">
<title>cluster_inputs</title>
<polygon fill="#eeeeee" stroke="black" stroke-dasharray="5,2" points="8,-1420.08 8,-1889.37 7462,-1889.37 7462,-1420.08 8,-1420.08"/>
<text text-anchor="middle" x="7395.5" y="-1427.88" font-family="Times,serif" font-size="14.00">Workflow Inputs</text>
</g>
<g id="clust2" class="cluster">
<title>cluster_outputs</title>
<polygon fill="#eeeeee" stroke="black" stroke-dasharray="5,2" points="3740,-48.76 3740,-518.05 4396,-518.05 4396,-48.76 3740,-48.76"/>
<text text-anchor="middle" x="4323.5" y="-56.56" font-family="Times,serif" font-size="14.00">Workflow Outputs</text>
</g>
<!-- output_file_prefix -->
<g id="node1" class="node">
<title>output_file_prefix</title>
<polygon fill="#94ddf4" stroke="black" points="7314,-1706.26 7314,-1743.26 7454,-1743.26 7454,-1706.26 7314,-1706.26"/>
<text text-anchor="middle" x="7384" y="-1721.06" font-family="Times,serif" font-size="14.00">output_file_prefix</text>
</g>
<!-- run_dragen_alignment_step -->
<g id="node57" class="node">
<title>run_dragen_alignment_step</title>
<polygon fill="lightgoldenrodyellow" stroke="black" points="3782.5,-1237.26 3782.5,-1274.26 3985.5,-1274.26 3985.5,-1237.26 3782.5,-1237.26"/>
<text text-anchor="middle" x="3884" y="-1252.06" font-family="Times,serif" font-size="14.00">dragen&#45;alignment v(3.9.3)</text>
</g>
<!-- output_file_prefix&#45;&gt;run_dragen_alignment_step -->
<g id="edge6" class="edge">
<title>output_file_prefix&#45;&gt;run_dragen_alignment_step</title>
<path fill="none" stroke="black" d="M7361.51,-1706.11C7346.4,-1695.22 7325.55,-1681.99 7305,-1674.76 6670.54,-1451.48 4512.02,-1297.99 3995.64,-1263.91"/>
<polygon fill="black" stroke="black" points="3995.79,-1260.42 3985.58,-1263.25 3995.33,-1267.4 3995.79,-1260.42"/>
</g>
<!-- dragen_qc_step -->
<g id="node58" class="node">
<title>dragen_qc_step</title>
<polygon fill="lightgoldenrodyellow" stroke="black" points="7314.5,-786.26 7314.5,-823.26 7453.5,-823.26 7453.5,-786.26 7314.5,-786.26"/>
<text text-anchor="middle" x="7384" y="-801.06" font-family="Times,serif" font-size="14.00">multiqc v(1.14.0)</text>
</g>
<!-- output_file_prefix&#45;&gt;dragen_qc_step -->
<g id="edge7" class="edge">
<title>output_file_prefix&#45;&gt;dragen_qc_step</title>
<path fill="none" stroke="black" d="M7379.93,-1706.24C7367.69,-1593.77 7367.36,-973.51 7378.95,-833.74"/>
<polygon fill="black" stroke="black" points="7382.46,-833.74 7379.91,-823.46 7375.49,-833.09 7382.46,-833.74"/>
</g>
<!-- output_file_prefix&#45;&gt;dragen_qc_step -->
<g id="edge8" class="edge">
<title>output_file_prefix&#45;&gt;dragen_qc_step</title>
<path fill="none" stroke="black" d="M7384,-1706.24C7384,-1593.77 7384,-973.51 7384,-833.74"/>
<polygon fill="black" stroke="black" points="7387.5,-833.46 7384,-823.46 7380.5,-833.46 7387.5,-833.46"/>
</g>
<!-- output_file_prefix&#45;&gt;dragen_qc_step -->
<g id="edge9" class="edge">
<title>output_file_prefix&#45;&gt;dragen_qc_step</title>
<path fill="none" stroke="black" d="M7388.07,-1706.24C7400.31,-1593.77 7400.64,-973.51 7389.05,-833.74"/>
<polygon fill="black" stroke="black" points="7392.51,-833.09 7388.09,-823.46 7385.54,-833.74 7392.51,-833.09"/>
</g>
<!-- aln_min_score -->
<g id="node2" class="node">
<title>aln_min_score</title>
<polygon fill="#94ddf4" stroke="black" points="7178.5,-1706.26 7178.5,-1743.26 7295.5,-1743.26 7295.5,-1706.26 7178.5,-1706.26"/>
<text text-anchor="middle" x="7237" y="-1721.06" font-family="Times,serif" font-size="14.00">aln_min_score</text>
</g>
<!-- aln_min_score&#45;&gt;run_dragen_alignment_step -->
<g id="edge10" class="edge">
<title>aln_min_score&#45;&gt;run_dragen_alignment_step</title>
<path fill="none" stroke="black" d="M7218.03,-1706.09C7205.19,-1695.19 7187.28,-1681.96 7169,-1674.76 6569.57,-1438.47 4501.49,-1295.51 3996.09,-1263.59"/>
<polygon fill="black" stroke="black" points="3996.08,-1260.08 3985.88,-1262.94 3995.64,-1267.07 3996.08,-1260.08"/>
</g>
<!-- alt_aware -->
<g id="node3" class="node">
<title>alt_aware</title>
<polygon fill="#94ddf4" stroke="black" points="7074,-1706.26 7074,-1743.26 7160,-1743.26 7160,-1706.26 7074,-1706.26"/>
<text text-anchor="middle" x="7117" y="-1721.06" font-family="Times,serif" font-size="14.00">alt_aware</text>
</g>
<!-- alt_aware&#45;&gt;run_dragen_alignment_step -->
<g id="edge11" class="edge">
<title>alt_aware&#45;&gt;run_dragen_alignment_step</title>
<path fill="none" stroke="black" d="M7103.06,-1705.84C7093.56,-1694.98 7080.02,-1681.89 7065,-1674.76 6502,-1407.52 4492.74,-1288.09 3995.78,-1262.26"/>
<polygon fill="black" stroke="black" points="3995.9,-1258.76 3985.73,-1261.74 3995.54,-1265.75 3995.9,-1258.76"/>
</g>
<!-- ann_sj_max_indel -->
<g id="node4" class="node">
<title>ann_sj_max_indel</title>
<polygon fill="#94ddf4" stroke="black" points="6916,-1706.26 6916,-1743.26 7056,-1743.26 7056,-1706.26 6916,-1706.26"/>
<text text-anchor="middle" x="6986" y="-1721.06" font-family="Times,serif" font-size="14.00">ann_sj_max_indel</text>
</g>
<!-- ann_sj_max_indel&#45;&gt;run_dragen_alignment_step -->
<g id="edge12" class="edge">
<title>ann_sj_max_indel&#45;&gt;run_dragen_alignment_step</title>
<path fill="none" stroke="black" d="M6963.47,-1706.22C6948.34,-1695.38 6927.49,-1682.15 6907,-1674.76 6352.01,-1474.5 4474.52,-1306.3 3995.82,-1265.96"/>
<polygon fill="black" stroke="black" points="3996.05,-1262.47 3985.79,-1265.12 3995.46,-1269.44 3996.05,-1262.47"/>
</g>
<!-- dedup_min_qual -->
<g id="node5" class="node">
<title>dedup_min_qual</title>
<polygon fill="#94ddf4" stroke="black" points="6766,-1706.26 6766,-1743.26 6898,-1743.26 6898,-1706.26 6766,-1706.26"/>
<text text-anchor="middle" x="6832" y="-1721.06" font-family="Times,serif" font-size="14.00">dedup_min_qual</text>
</g>
<!-- dedup_min_qual&#45;&gt;run_dragen_alignment_step -->
<g id="edge13" class="edge">
<title>dedup_min_qual&#45;&gt;run_dragen_alignment_step</title>
<path fill="none" stroke="black" d="M6810.74,-1706.24C6796.42,-1695.41 6776.64,-1682.19 6757,-1674.76 5736.83,-1288.9 4388.54,-1256.7 3995.77,-1255.97"/>
<polygon fill="black" stroke="black" points="3995.55,-1252.47 3985.55,-1255.96 3995.54,-1259.47 3995.55,-1252.47"/>
</g>
<!-- edit_chain_limit -->
<g id="node6" class="node">
<title>edit_chain_limit</title>
<polygon fill="#94ddf4" stroke="black" points="6618.5,-1706.26 6618.5,-1743.26 6747.5,-1743.26 6747.5,-1706.26 6618.5,-1706.26"/>
<text text-anchor="middle" x="6683" y="-1721.06" font-family="Times,serif" font-size="14.00">edit_chain_limit</text>
</g>
<!-- edit_chain_limit&#45;&gt;run_dragen_alignment_step -->
<g id="edge14" class="edge">
<title>edit_chain_limit&#45;&gt;run_dragen_alignment_step</title>
<path fill="none" stroke="black" d="M6661.72,-1706.05C6647.63,-1695.27 6628.26,-1682.2 6609,-1674.76 5647.77,-1303.54 4376.08,-1261.07 3995.9,-1256.95"/>
<polygon fill="black" stroke="black" points="3995.77,-1253.44 3985.73,-1256.84 3995.7,-1260.44 3995.77,-1253.44"/>
</g>
<!-- edit_mode -->
<g id="node7" class="node">
<title>edit_mode</title>
<polygon fill="#94ddf4" stroke="black" points="6510,-1706.26 6510,-1743.26 6600,-1743.26 6600,-1706.26 6510,-1706.26"/>
<text text-anchor="middle" x="6555" y="-1721.06" font-family="Times,serif" font-size="14.00">edit_mode</text>
</g>
<!-- edit_mode&#45;&gt;run_dragen_alignment_step -->
<g id="edge15" class="edge">
<title>edit_mode&#45;&gt;run_dragen_alignment_step</title>
<path fill="none" stroke="black" d="M6540.32,-1705.98C6530.37,-1695.18 6516.29,-1682.1 6501,-1674.76 6044.08,-1455.37 4435.18,-1303.99 3995.67,-1266.07"/>
<polygon fill="black" stroke="black" points="3995.77,-1262.56 3985.5,-1265.19 3995.17,-1269.54 3995.77,-1262.56"/>
</g>
<!-- edit_read_len -->
<g id="node8" class="node">
<title>edit_read_len</title>
<polygon fill="#94ddf4" stroke="black" points="6380,-1706.26 6380,-1743.26 6492,-1743.26 6492,-1706.26 6380,-1706.26"/>
<text text-anchor="middle" x="6436" y="-1721.06" font-family="Times,serif" font-size="14.00">edit_read_len</text>
</g>
<!-- edit_read_len&#45;&gt;run_dragen_alignment_step -->
<g id="edge16" class="edge">
<title>edit_read_len&#45;&gt;run_dragen_alignment_step</title>
<path fill="none" stroke="black" d="M6417.64,-1706.08C6405.39,-1695.32 6388.4,-1682.24 6371,-1674.76 5512.28,-1305.36 4356,-1261.38 3995.83,-1256.95"/>
<polygon fill="black" stroke="black" points="3995.7,-1253.45 3985.66,-1256.84 3995.62,-1260.45 3995.7,-1253.45"/>
</g>
<!-- edit_seed_num -->
<g id="node9" class="node">
<title>edit_seed_num</title>
<polygon fill="#94ddf4" stroke="black" points="6240,-1706.26 6240,-1743.26 6362,-1743.26 6362,-1706.26 6240,-1706.26"/>
<text text-anchor="middle" x="6301" y="-1721.06" font-family="Times,serif" font-size="14.00">edit_seed_num</text>
</g>
<!-- edit_seed_num&#45;&gt;run_dragen_alignment_step -->
<g id="edge17" class="edge">
<title>edit_seed_num&#45;&gt;run_dragen_alignment_step</title>
<path fill="none" stroke="black" d="M6280.97,-1706.17C6267.68,-1695.45 6249.36,-1682.38 6231,-1674.76 5420.03,-1338.09 4341.28,-1272.36 3995.58,-1259.72"/>
<polygon fill="black" stroke="black" points="3995.68,-1256.22 3985.56,-1259.36 3995.43,-1263.21 3995.68,-1256.22"/>
</g>
<!-- en_alt_hap_aln -->
<g id="node10" class="node">
<title>en_alt_hap_aln</title>
<polygon fill="#94ddf4" stroke="black" points="6100.5,-1706.26 6100.5,-1743.26 6221.5,-1743.26 6221.5,-1706.26 6100.5,-1706.26"/>
<text text-anchor="middle" x="6161" y="-1721.06" font-family="Times,serif" font-size="14.00">en_alt_hap_aln</text>
</g>
<!-- en_alt_hap_aln&#45;&gt;run_dragen_alignment_step -->
<g id="edge18" class="edge">
<title>en_alt_hap_aln&#45;&gt;run_dragen_alignment_step</title>
<path fill="none" stroke="black" d="M6141.27,-1706.23C6128.17,-1695.53 6110.12,-1682.47 6092,-1674.76 5335.41,-1352.82 4328.08,-1277.66 3995.63,-1261.14"/>
<polygon fill="black" stroke="black" points="3995.68,-1257.64 3985.52,-1260.65 3995.34,-1264.63 3995.68,-1257.64"/>
</g>
<!-- en_chimeric_aln -->
<g id="node11" class="node">
<title>en_chimeric_aln</title>
<polygon fill="#94ddf4" stroke="black" points="5951.5,-1706.26 5951.5,-1743.26 6082.5,-1743.26 6082.5,-1706.26 5951.5,-1706.26"/>
<text text-anchor="middle" x="6017" y="-1721.06" font-family="Times,serif" font-size="14.00">en_chimeric_aln</text>
</g>
<!-- en_chimeric_aln&#45;&gt;run_dragen_alignment_step -->
<g id="edge19" class="edge">
<title>en_chimeric_aln&#45;&gt;run_dragen_alignment_step</title>
<path fill="none" stroke="black" d="M5995.28,-1706.12C5981.17,-1695.52 5961.93,-1682.6 5943,-1674.76 5238.93,-1383.22 4312.73,-1289.13 3995.87,-1264.39"/>
<polygon fill="black" stroke="black" points="3996,-1260.89 3985.76,-1263.61 3995.46,-1267.87 3996,-1260.89"/>
</g>
<!-- enable_duplicate_marking -->
<g id="node12" class="node">
<title>enable_duplicate_marking</title>
<polygon fill="#94ddf4" stroke="black" points="5730.5,-1706.26 5730.5,-1743.26 5933.5,-1743.26 5933.5,-1706.26 5730.5,-1706.26"/>
<text text-anchor="middle" x="5832" y="-1721.06" font-family="Times,serif" font-size="14.00">enable_duplicate_marking</text>
</g>
<!-- enable_duplicate_marking&#45;&gt;run_dragen_alignment_step -->
<g id="edge20" class="edge">
<title>enable_duplicate_marking&#45;&gt;run_dragen_alignment_step</title>
<path fill="none" stroke="black" d="M5797.03,-1706.07C5775.75,-1695.84 5747.79,-1683.34 5722,-1674.76 5083.74,-1462.29 4285.4,-1321.52 3995.6,-1274.3"/>
<polygon fill="black" stroke="black" points="3995.94,-1270.81 3985.51,-1272.66 3994.81,-1277.72 3995.94,-1270.81"/>
</g>
<!-- enable_map_align_output -->
<g id="node13" class="node">
<title>enable_map_align_output</title>
<polygon fill="#94ddf4" stroke="black" points="5515.5,-1706.26 5515.5,-1743.26 5712.5,-1743.26 5712.5,-1706.26 5515.5,-1706.26"/>
<text text-anchor="middle" x="5614" y="-1721.06" font-family="Times,serif" font-size="14.00">enable_map_align_output</text>
</g>
<!-- enable_map_align_output&#45;&gt;run_dragen_alignment_step -->
<g id="edge21" class="edge">
<title>enable_map_align_output&#45;&gt;run_dragen_alignment_step</title>
<path fill="none" stroke="black" d="M5579.47,-1706.05C5558.82,-1695.94 5531.84,-1683.57 5507,-1674.76 4945.12,-1475.52 4243.02,-1327.45 3985.06,-1276.27"/>
<polygon fill="black" stroke="black" points="3985.45,-1272.78 3974.96,-1274.27 3984.09,-1279.64 3985.45,-1272.78"/>
</g>
<!-- enable_sort -->
<g id="node14" class="node">
<title>enable_sort</title>
<polygon fill="#94ddf4" stroke="black" points="5398.5,-1706.26 5398.5,-1743.26 5497.5,-1743.26 5497.5,-1706.26 5398.5,-1706.26"/>
<text text-anchor="middle" x="5448" y="-1721.06" font-family="Times,serif" font-size="14.00">enable_sort</text>
</g>
<!-- enable_sort&#45;&gt;run_dragen_alignment_step -->
<g id="edge22" class="edge">
<title>enable_sort&#45;&gt;run_dragen_alignment_step</title>
<path fill="none" stroke="black" d="M5430.84,-1706.14C5419.77,-1695.68 5404.57,-1682.91 5389,-1674.76 4906.18,-1422.17 4254.07,-1308.58 3995.9,-1271.4"/>
<polygon fill="black" stroke="black" points="3996.16,-1267.9 3985.77,-1269.95 3995.17,-1274.83 3996.16,-1267.9"/>
</g>
<!-- fastq_list -->
<g id="node15" class="node">
<title>fastq_list</title>
<polygon fill="#94ddf4" stroke="black" points="5298,-1706.26 5298,-1743.26 5380,-1743.26 5380,-1706.26 5298,-1706.26"/>
<text text-anchor="middle" x="5339" y="-1721.06" font-family="Times,serif" font-size="14.00">fastq_list</text>
</g>
<!-- fastq_list&#45;&gt;run_dragen_alignment_step -->
<g id="edge23" class="edge">
<title>fastq_list&#45;&gt;run_dragen_alignment_step</title>
<path fill="none" stroke="black" d="M5324.9,-1706.14C5315.69,-1695.67 5302.82,-1682.9 5289,-1674.76 4851.82,-1417.3 4243.48,-1307.33 3995.69,-1271.28"/>
<polygon fill="black" stroke="black" points="3995.99,-1267.79 3985.6,-1269.82 3994.99,-1274.71 3995.99,-1267.79"/>
</g>
<!-- fastq_list_rows -->
<g id="node16" class="node">
<title>fastq_list_rows</title>
<polygon fill="#94ddf4" stroke="black" points="5156.5,-1706.26 5156.5,-1743.26 5279.5,-1743.26 5279.5,-1706.26 5156.5,-1706.26"/>
<text text-anchor="middle" x="5218" y="-1721.06" font-family="Times,serif" font-size="14.00">fastq_list_rows</text>
</g>
<!-- fastq_list_rows&#45;&gt;run_dragen_alignment_step -->
<g id="edge24" class="edge">
<title>fastq_list_rows&#45;&gt;run_dragen_alignment_step</title>
<path fill="none" stroke="black" d="M5196.35,-1706.12C5183.02,-1695.91 5165.24,-1683.41 5148,-1674.76 4730.1,-1465.07 4183.4,-1325.77 3972.39,-1276.55"/>
<polygon fill="black" stroke="black" points="3973.13,-1273.13 3962.59,-1274.27 3971.54,-1279.94 3973.13,-1273.13"/>
</g>
<!-- gap_ext_pen -->
<g id="node17" class="node">
<title>gap_ext_pen</title>
<polygon fill="#94ddf4" stroke="black" points="5033.5,-1706.26 5033.5,-1743.26 5138.5,-1743.26 5138.5,-1706.26 5033.5,-1706.26"/>
<text text-anchor="middle" x="5086" y="-1721.06" font-family="Times,serif" font-size="14.00">gap_ext_pen</text>
</g>
<!-- gap_ext_pen&#45;&gt;run_dragen_alignment_step -->
<g id="edge25" class="edge">
<title>gap_ext_pen&#45;&gt;run_dragen_alignment_step</title>
<path fill="none" stroke="black" d="M5067.39,-1706.14C5055.87,-1695.94 5040.38,-1683.44 5025,-1674.76 4654.15,-1465.39 4158.7,-1326.3 3965.74,-1276.84"/>
<polygon fill="black" stroke="black" points="3966.5,-1273.43 3955.95,-1274.34 3964.77,-1280.21 3966.5,-1273.43"/>
</g>
<!-- gap_open_pen -->
<g id="node18" class="node">
<title>gap_open_pen</title>
<polygon fill="#94ddf4" stroke="black" points="4898.5,-1706.26 4898.5,-1743.26 5015.5,-1743.26 5015.5,-1706.26 4898.5,-1706.26"/>
<text text-anchor="middle" x="4957" y="-1721.06" font-family="Times,serif" font-size="14.00">gap_open_pen</text>
</g>
<!-- gap_open_pen&#45;&gt;run_dragen_alignment_step -->
<g id="edge26" class="edge">
<title>gap_open_pen&#45;&gt;run_dragen_alignment_step</title>
<path fill="none" stroke="black" d="M4935.56,-1706.04C4922.82,-1696.06 4906.07,-1683.81 4890,-1674.76 4552.8,-1484.97 4112.04,-1331.56 3948.62,-1277.6"/>
<polygon fill="black" stroke="black" points="3949.31,-1274.14 3938.72,-1274.34 3947.12,-1280.79 3949.31,-1274.14"/>
</g>
<!-- generate_md_tags -->
<g id="node19" class="node">
<title>generate_md_tags</title>
<polygon fill="#94ddf4" stroke="black" points="4733.5,-1706.26 4733.5,-1743.26 4880.5,-1743.26 4880.5,-1706.26 4733.5,-1706.26"/>
<text text-anchor="middle" x="4807" y="-1721.06" font-family="Times,serif" font-size="14.00">generate_md_tags</text>
</g>
<!-- generate_md_tags&#45;&gt;run_dragen_alignment_step -->
<g id="edge27" class="edge">
<title>generate_md_tags&#45;&gt;run_dragen_alignment_step</title>
<path fill="none" stroke="black" d="M4778.48,-1706.24C4762.6,-1696.66 4742.38,-1684.74 4724,-1674.76 4426.9,-1513.4 4059.39,-1338.92 3930.94,-1278.66"/>
<polygon fill="black" stroke="black" points="3932.29,-1275.43 3921.75,-1274.36 3929.32,-1281.77 3932.29,-1275.43"/>
</g>
<!-- generate_sa_tags -->
<g id="node20" class="node">
<title>generate_sa_tags</title>
<polygon fill="#94ddf4" stroke="black" points="4575,-1706.26 4575,-1743.26 4715,-1743.26 4715,-1706.26 4575,-1706.26"/>
<text text-anchor="middle" x="4645" y="-1721.06" font-family="Times,serif" font-size="14.00">generate_sa_tags</text>
</g>
<!-- generate_sa_tags&#45;&gt;run_dragen_alignment_step -->
<g id="edge28" class="edge">
<title>generate_sa_tags&#45;&gt;run_dragen_alignment_step</title>
<path fill="none" stroke="black" d="M4616.5,-1706.03C4601.49,-1696.7 4582.76,-1685.09 4566,-1674.76 4320.73,-1523.53 4025.03,-1342.86 3921.77,-1279.81"/>
<polygon fill="black" stroke="black" points="3923.31,-1276.65 3912.95,-1274.43 3919.66,-1282.62 3923.31,-1276.65"/>
</g>
<!-- generate_zs_tags -->
<g id="node21" class="node">
<title>generate_zs_tags</title>
<polygon fill="#94ddf4" stroke="black" points="4417,-1706.26 4417,-1743.26 4557,-1743.26 4557,-1706.26 4417,-1706.26"/>
<text text-anchor="middle" x="4487" y="-1721.06" font-family="Times,serif" font-size="14.00">generate_zs_tags</text>
</g>
<!-- generate_zs_tags&#45;&gt;run_dragen_alignment_step -->
<g id="edge29" class="edge">
<title>generate_zs_tags&#45;&gt;run_dragen_alignment_step</title>
<path fill="none" stroke="black" d="M4464.1,-1706.02C4371,-1633.92 4020.81,-1362.72 3914.68,-1280.52"/>
<polygon fill="black" stroke="black" points="3916.65,-1277.62 3906.6,-1274.26 3912.37,-1283.15 3916.65,-1277.62"/>
</g>
<!-- global -->
<g id="node22" class="node">
<title>global</title>
<polygon fill="#94ddf4" stroke="black" points="4339,-1706.26 4339,-1743.26 4399,-1743.26 4399,-1706.26 4339,-1706.26"/>
<text text-anchor="middle" x="4369" y="-1721.06" font-family="Times,serif" font-size="14.00">global</text>
</g>
<!-- global&#45;&gt;run_dragen_alignment_step -->
<g id="edge30" class="edge">
<title>global&#45;&gt;run_dragen_alignment_step</title>
<path fill="none" stroke="black" d="M4356.28,-1705.98C4349.19,-1696.43 4339.99,-1684.62 4331,-1674.76 4184.53,-1514.11 3986.64,-1343.23 3913.1,-1281.1"/>
<polygon fill="black" stroke="black" points="3915.06,-1278.18 3905.16,-1274.41 3910.55,-1283.53 3915.06,-1278.18"/>
</g>
<!-- hard_clips -->
<g id="node23" class="node">
<title>hard_clips</title>
<polygon fill="#94ddf4" stroke="black" points="4232.5,-1706.26 4232.5,-1743.26 4321.5,-1743.26 4321.5,-1706.26 4232.5,-1706.26"/>
<text text-anchor="middle" x="4277" y="-1721.06" font-family="Times,serif" font-size="14.00">hard_clips</text>
</g>
<!-- hard_clips&#45;&gt;run_dragen_alignment_step -->
<g id="edge31" class="edge">
<title>hard_clips&#45;&gt;run_dragen_alignment_step</title>
<path fill="none" stroke="black" d="M4262.07,-1706.02C4201.83,-1634.43 3976.42,-1366.58 3905.5,-1282.31"/>
<polygon fill="black" stroke="black" points="3908.06,-1279.91 3898.94,-1274.51 3902.7,-1284.42 3908.06,-1279.91"/>
</g>
<!-- map_orientations -->
<g id="node24" class="node">
<title>map_orientations</title>
<polygon fill="#94ddf4" stroke="black" points="4074,-1706.26 4074,-1743.26 4214,-1743.26 4214,-1706.26 4074,-1706.26"/>
<text text-anchor="middle" x="4144" y="-1721.06" font-family="Times,serif" font-size="14.00">map_orientations</text>
</g>
<!-- map_orientations&#45;&gt;run_dragen_alignment_step -->
<g id="edge32" class="edge">
<title>map_orientations&#45;&gt;run_dragen_alignment_step</title>
<path fill="none" stroke="black" d="M4134.13,-1706.02C4094.43,-1634.72 3946.34,-1368.74 3898.8,-1283.34"/>
<polygon fill="black" stroke="black" points="3901.81,-1281.55 3893.88,-1274.51 3895.69,-1284.95 3901.81,-1281.55"/>
</g>
<!-- mapq_max -->
<g id="node25" class="node">
<title>mapq_max</title>
<polygon fill="#94ddf4" stroke="black" points="3962.5,-1706.26 3962.5,-1743.26 4055.5,-1743.26 4055.5,-1706.26 3962.5,-1706.26"/>
<text text-anchor="middle" x="4009" y="-1721.06" font-family="Times,serif" font-size="14.00">mapq_max</text>
</g>
<!-- mapq_max&#45;&gt;run_dragen_alignment_step -->
<g id="edge33" class="edge">
<title>mapq_max&#45;&gt;run_dragen_alignment_step</title>
<path fill="none" stroke="black" d="M4004.25,-1706.02C3985.24,-1635.01 3914.55,-1370.89 3891.39,-1284.38"/>
<polygon fill="black" stroke="black" points="3894.72,-1283.27 3888.75,-1274.51 3887.96,-1285.08 3894.72,-1283.27"/>
</g>
<!-- mapq_strict_js -->
<g id="node26" class="node">
<title>mapq_strict_js</title>
<polygon fill="#94ddf4" stroke="black" points="3824,-1706.26 3824,-1743.26 3944,-1743.26 3944,-1706.26 3824,-1706.26"/>
<text text-anchor="middle" x="3884" y="-1721.06" font-family="Times,serif" font-size="14.00">mapq_strict_js</text>
</g>
<!-- mapq_strict_js&#45;&gt;run_dragen_alignment_step -->
<g id="edge34" class="edge">
<title>mapq_strict_js&#45;&gt;run_dragen_alignment_step</title>
<path fill="none" stroke="black" d="M3884,-1706.02C3884,-1635.08 3884,-1371.43 3884,-1284.65"/>
<polygon fill="black" stroke="black" points="3887.5,-1284.51 3884,-1274.51 3880.5,-1284.51 3887.5,-1284.51"/>
</g>
<!-- match_n_score -->
<g id="node27" class="node">
<title>match_n_score</title>
<polygon fill="#94ddf4" stroke="black" points="3684,-1706.26 3684,-1743.26 3806,-1743.26 3806,-1706.26 3684,-1706.26"/>
<text text-anchor="middle" x="3745" y="-1721.06" font-family="Times,serif" font-size="14.00">match_n_score</text>
</g>
<!-- match_n_score&#45;&gt;run_dragen_alignment_step -->
<g id="edge35" class="edge">
<title>match_n_score&#45;&gt;run_dragen_alignment_step</title>
<path fill="none" stroke="black" d="M3750.28,-1706.02C3771.44,-1634.94 3850.19,-1370.35 3875.86,-1284.12"/>
<polygon fill="black" stroke="black" points="3879.22,-1285.1 3878.72,-1274.51 3872.51,-1283.1 3879.22,-1285.1"/>
</g>
<!-- match_score -->
<g id="node28" class="node">
<title>match_score</title>
<polygon fill="#94ddf4" stroke="black" points="3560,-1706.26 3560,-1743.26 3666,-1743.26 3666,-1706.26 3560,-1706.26"/>
<text text-anchor="middle" x="3613" y="-1721.06" font-family="Times,serif" font-size="14.00">match_score</text>
</g>
<!-- match_score&#45;&gt;run_dragen_alignment_step -->
<g id="edge36" class="edge">
<title>match_score&#45;&gt;run_dragen_alignment_step</title>
<path fill="none" stroke="black" d="M3623.29,-1706.02C3664.67,-1634.72 3819.02,-1368.74 3868.58,-1283.34"/>
<polygon fill="black" stroke="black" points="3871.71,-1284.92 3873.7,-1274.51 3865.65,-1281.4 3871.71,-1284.92"/>
</g>
<!-- max_intron_bases -->
<g id="node29" class="node">
<title>max_intron_bases</title>
<polygon fill="#94ddf4" stroke="black" points="3398,-1706.26 3398,-1743.26 3542,-1743.26 3542,-1706.26 3398,-1706.26"/>
<text text-anchor="middle" x="3470" y="-1721.06" font-family="Times,serif" font-size="14.00">max_intron_bases</text>
</g>
<!-- max_intron_bases&#45;&gt;run_dragen_alignment_step -->
<g id="edge37" class="edge">
<title>max_intron_bases&#45;&gt;run_dragen_alignment_step</title>
<path fill="none" stroke="black" d="M3485.72,-1706.02C3549.25,-1634.36 3787.12,-1366.04 3861.58,-1282.05"/>
<polygon fill="black" stroke="black" points="3864.25,-1284.32 3868.26,-1274.51 3859.01,-1279.67 3864.25,-1284.32"/>
</g>
<!-- max_rescues -->
<g id="node30" class="node">
<title>max_rescues</title>
<polygon fill="#94ddf4" stroke="black" points="3272,-1706.26 3272,-1743.26 3380,-1743.26 3380,-1706.26 3272,-1706.26"/>
<text text-anchor="middle" x="3326" y="-1721.06" font-family="Times,serif" font-size="14.00">max_rescues</text>
</g>
<!-- max_rescues&#45;&gt;run_dragen_alignment_step -->
<g id="edge38" class="edge">
<title>max_rescues&#45;&gt;run_dragen_alignment_step</title>
<path fill="none" stroke="black" d="M3347.19,-1706.02C3433.26,-1633.99 3756.75,-1363.26 3855.31,-1280.77"/>
<polygon fill="black" stroke="black" points="3857.66,-1283.37 3863.08,-1274.26 3853.17,-1278 3857.66,-1283.37"/>
</g>
<!-- min_intron_bases -->
<g id="node31" class="node">
<title>min_intron_bases</title>
<polygon fill="#94ddf4" stroke="black" points="3112.5,-1706.26 3112.5,-1743.26 3253.5,-1743.26 3253.5,-1706.26 3112.5,-1706.26"/>
<text text-anchor="middle" x="3183" y="-1721.06" font-family="Times,serif" font-size="14.00">min_intron_bases</text>
</g>
<!-- min_intron_bases&#45;&gt;run_dragen_alignment_step -->
<g id="edge39" class="edge">
<title>min_intron_bases&#45;&gt;run_dragen_alignment_step</title>
<path fill="none" stroke="black" d="M3209.62,-1706.02C3318.08,-1633.77 3726.58,-1361.63 3849.07,-1280.03"/>
<polygon fill="black" stroke="black" points="3851.34,-1282.72 3857.72,-1274.26 3847.46,-1276.89 3851.34,-1282.72"/>
</g>
<!-- min_score_coeff -->
<g id="node32" class="node">
<title>min_score_coeff</title>
<polygon fill="#94ddf4" stroke="black" points="2965.5,-1706.26 2965.5,-1743.26 3094.5,-1743.26 3094.5,-1706.26 2965.5,-1706.26"/>
<text text-anchor="middle" x="3030" y="-1721.06" font-family="Times,serif" font-size="14.00">min_score_coeff</text>
</g>
<!-- min_score_coeff&#45;&gt;run_dragen_alignment_step -->
<g id="edge40" class="edge">
<title>min_score_coeff&#45;&gt;run_dragen_alignment_step</title>
<path fill="none" stroke="black" d="M3055.31,-1706.16C3069.43,-1696.55 3087.46,-1684.63 3104,-1674.76 3377.17,-1511.6 3718.85,-1338.86 3839.4,-1278.82"/>
<polygon fill="black" stroke="black" points="3840.97,-1281.95 3848.37,-1274.36 3837.86,-1275.68 3840.97,-1281.95"/>
</g>
<!-- mismatch_pen -->
<g id="node33" class="node">
<title>mismatch_pen</title>
<polygon fill="#94ddf4" stroke="black" points="2828.5,-1706.26 2828.5,-1743.26 2947.5,-1743.26 2947.5,-1706.26 2828.5,-1706.26"/>
<text text-anchor="middle" x="2888" y="-1721.06" font-family="Times,serif" font-size="14.00">mismatch_pen</text>
</g>
<!-- mismatch_pen&#45;&gt;run_dragen_alignment_step -->
<g id="edge41" class="edge">
<title>mismatch_pen&#45;&gt;run_dragen_alignment_step</title>
<path fill="none" stroke="black" d="M2910.57,-1706.04C2923.7,-1696.17 2940.81,-1684.04 2957,-1674.76 3272.1,-1494.11 3679.44,-1333.85 3827.26,-1277.88"/>
<polygon fill="black" stroke="black" points="3828.5,-1281.16 3836.62,-1274.35 3826.02,-1274.61 3828.5,-1281.16"/>
</g>
<!-- no_unclip_score -->
<g id="node34" class="node">
<title>no_unclip_score</title>
<polygon fill="#94ddf4" stroke="black" points="2681.5,-1706.26 2681.5,-1743.26 2810.5,-1743.26 2810.5,-1706.26 2681.5,-1706.26"/>
<text text-anchor="middle" x="2746" y="-1721.06" font-family="Times,serif" font-size="14.00">no_unclip_score</text>
</g>
<!-- no_unclip_score&#45;&gt;run_dragen_alignment_step -->
<g id="edge42" class="edge">
<title>no_unclip_score&#45;&gt;run_dragen_alignment_step</title>
<path fill="none" stroke="black" d="M2769.88,-1706.08C2784,-1696.11 2802.5,-1683.86 2820,-1674.76 3181.42,-1486.78 3647.31,-1331.51 3817.78,-1277.35"/>
<polygon fill="black" stroke="black" points="3818.9,-1280.67 3827.37,-1274.31 3816.78,-1274 3818.9,-1280.67"/>
</g>
<!-- no_unpaired -->
<g id="node35" class="node">
<title>no_unpaired</title>
<polygon fill="#94ddf4" stroke="black" points="2559,-1706.26 2559,-1743.26 2663,-1743.26 2663,-1706.26 2559,-1706.26"/>
<text text-anchor="middle" x="2611" y="-1721.06" font-family="Times,serif" font-size="14.00">no_unpaired</text>
</g>
<!-- no_unpaired&#45;&gt;run_dragen_alignment_step -->
<g id="edge43" class="edge">
<title>no_unpaired&#45;&gt;run_dragen_alignment_step</title>
<path fill="none" stroke="black" d="M2629.9,-1706.05C2641.61,-1695.82 2657.35,-1683.32 2673,-1674.76 3065.36,-1460.11 3588.5,-1324.77 3794.89,-1276.58"/>
<polygon fill="black" stroke="black" points="3795.82,-1279.96 3804.77,-1274.28 3794.24,-1273.14 3795.82,-1279.96"/>
</g>
<!-- output_directory -->
<g id="node36" class="node">
<title>output_directory</title>
<polygon fill="#94ddf4" stroke="black" points="2405,-1706.26 2405,-1743.26 2541,-1743.26 2541,-1706.26 2405,-1706.26"/>
<text text-anchor="middle" x="2473" y="-1721.06" font-family="Times,serif" font-size="14.00">output_directory</text>
</g>
<!-- output_directory&#45;&gt;run_dragen_alignment_step -->
<g id="edge44" class="edge">
<title>output_directory&#45;&gt;run_dragen_alignment_step</title>
<path fill="none" stroke="black" d="M2497.02,-1706.14C2511.76,-1695.94 2531.32,-1683.44 2550,-1674.76 2996.23,-1467.3 3572.43,-1326.25 3792.8,-1276.56"/>
<polygon fill="black" stroke="black" points="3793.72,-1279.94 3802.71,-1274.33 3792.19,-1273.11 3793.72,-1279.94"/>
</g>
<!-- pe_max_penalty -->
<g id="node37" class="node">
<title>pe_max_penalty</title>
<polygon fill="#94ddf4" stroke="black" points="2255.5,-1706.26 2255.5,-1743.26 2386.5,-1743.26 2386.5,-1706.26 2255.5,-1706.26"/>
<text text-anchor="middle" x="2321" y="-1721.06" font-family="Times,serif" font-size="14.00">pe_max_penalty</text>
</g>
<!-- pe_max_penalty&#45;&gt;run_dragen_alignment_step -->
<g id="edge45" class="edge">
<title>pe_max_penalty&#45;&gt;run_dragen_alignment_step</title>
<path fill="none" stroke="black" d="M2343.91,-1706.15C2358.24,-1695.82 2377.45,-1683.18 2396,-1674.76 2885.13,-1452.63 3519.25,-1322.29 3772.45,-1276.02"/>
<polygon fill="black" stroke="black" points="3773.18,-1279.44 3782.39,-1274.21 3771.93,-1272.56 3773.18,-1279.44"/>
</g>
<!-- pe_orientation -->
<g id="node38" class="node">
<title>pe_orientation</title>
<polygon fill="#94ddf4" stroke="black" points="2118.5,-1706.26 2118.5,-1743.26 2237.5,-1743.26 2237.5,-1706.26 2118.5,-1706.26"/>
<text text-anchor="middle" x="2178" y="-1721.06" font-family="Times,serif" font-size="14.00">pe_orientation</text>
</g>
<!-- pe_orientation&#45;&gt;run_dragen_alignment_step -->
<g id="edge46" class="edge">
<title>pe_orientation&#45;&gt;run_dragen_alignment_step</title>
<path fill="none" stroke="black" d="M2198.5,-1706.14C2211.61,-1695.68 2229.4,-1682.91 2247,-1674.76 2787.34,-1424.49 3500.16,-1308.28 3772.09,-1270.9"/>
<polygon fill="black" stroke="black" points="3772.93,-1274.32 3782.36,-1269.5 3771.98,-1267.38 3772.93,-1274.32"/>
</g>
<!-- preserve_map_align_order -->
<g id="node39" class="node">
<title>preserve_map_align_order</title>
<polygon fill="#94ddf4" stroke="black" points="1895.5,-1706.26 1895.5,-1743.26 2100.5,-1743.26 2100.5,-1706.26 1895.5,-1706.26"/>
<text text-anchor="middle" x="1998" y="-1721.06" font-family="Times,serif" font-size="14.00">preserve_map_align_order</text>
</g>
<!-- preserve_map_align_order&#45;&gt;run_dragen_alignment_step -->
<g id="edge47" class="edge">
<title>preserve_map_align_order&#45;&gt;run_dragen_alignment_step</title>
<path fill="none" stroke="black" d="M2033.67,-1706.18C2055.35,-1695.99 2083.83,-1683.49 2110,-1674.76 2724.06,-1469.96 3489.57,-1325.55 3772.34,-1275.79"/>
<polygon fill="black" stroke="black" points="3772.95,-1279.24 3782.19,-1274.06 3771.74,-1272.34 3772.95,-1279.24"/>
</g>
<!-- reference_tar -->
<g id="node40" class="node">
<title>reference_tar</title>
<polygon fill="#94ddf4" stroke="black" points="1764.5,-1706.26 1764.5,-1743.26 1877.5,-1743.26 1877.5,-1706.26 1764.5,-1706.26"/>
<text text-anchor="middle" x="1821" y="-1721.06" font-family="Times,serif" font-size="14.00">reference_tar</text>
</g>
<!-- reference_tar&#45;&gt;run_dragen_alignment_step -->
<g id="edge48" class="edge">
<title>reference_tar&#45;&gt;run_dragen_alignment_step</title>
<path fill="none" stroke="black" d="M1840.08,-1706.08C1852.55,-1695.46 1869.69,-1682.54 1887,-1674.76 2560.02,-1372.2 3460.1,-1285.26 3772.03,-1263.37"/>
<polygon fill="black" stroke="black" points="3772.69,-1266.83 3782.43,-1262.65 3772.21,-1259.85 3772.69,-1266.83"/>
</g>
<!-- remove_duplicates -->
<g id="node41" class="node">
<title>remove_duplicates</title>
<polygon fill="#94ddf4" stroke="black" points="1596,-1706.26 1596,-1743.26 1746,-1743.26 1746,-1706.26 1596,-1706.26"/>
<text text-anchor="middle" x="1671" y="-1721.06" font-family="Times,serif" font-size="14.00">remove_duplicates</text>
</g>
<!-- remove_duplicates&#45;&gt;run_dragen_alignment_step -->
<g id="edge49" class="edge">
<title>remove_duplicates&#45;&gt;run_dragen_alignment_step</title>
<path fill="none" stroke="black" d="M1696.32,-1706.2C1712.67,-1695.62 1734.79,-1682.71 1756,-1674.76 2494.77,-1397.99 3449.82,-1294.25 3772.16,-1265.72"/>
<polygon fill="black" stroke="black" points="3772.78,-1269.18 3782.43,-1264.81 3772.17,-1262.2 3772.78,-1269.18"/>
</g>
<!-- rescue_sigmas -->
<g id="node42" class="node">
<title>rescue_sigmas</title>
<polygon fill="#94ddf4" stroke="black" points="1456.5,-1706.26 1456.5,-1743.26 1577.5,-1743.26 1577.5,-1706.26 1456.5,-1706.26"/>
<text text-anchor="middle" x="1517" y="-1721.06" font-family="Times,serif" font-size="14.00">rescue_sigmas</text>
</g>
<!-- rescue_sigmas&#45;&gt;run_dragen_alignment_step -->
<g id="edge50" class="edge">
<title>rescue_sigmas&#45;&gt;run_dragen_alignment_step</title>
<path fill="none" stroke="black" d="M1537.04,-1706.2C1550.34,-1695.48 1568.66,-1682.41 1587,-1674.76 2378.56,-1344.41 3430.99,-1274.59 3772.16,-1260.31"/>
<polygon fill="black" stroke="black" points="3772.44,-1263.8 3782.29,-1259.89 3772.16,-1256.8 3772.44,-1263.8"/>
</g>
<!-- sec_aligns -->
<g id="node43" class="node">
<title>sec_aligns</title>
<polygon fill="#94ddf4" stroke="black" points="1349.5,-1706.26 1349.5,-1743.26 1438.5,-1743.26 1438.5,-1706.26 1349.5,-1706.26"/>
<text text-anchor="middle" x="1394" y="-1721.06" font-family="Times,serif" font-size="14.00">sec_aligns</text>
</g>
<!-- sec_aligns&#45;&gt;run_dragen_alignment_step -->
<g id="edge51" class="edge">
<title>sec_aligns&#45;&gt;run_dragen_alignment_step</title>
<path fill="none" stroke="black" d="M1408.71,-1706.04C1418.67,-1695.27 1432.75,-1682.19 1448,-1674.76 1870.33,-1468.97 3352.44,-1309.4 3772.36,-1267.55"/>
<polygon fill="black" stroke="black" points="3772.77,-1271.02 3782.38,-1266.55 3772.08,-1264.06 3772.77,-1271.02"/>
</g>
<!-- sec_aligns_hard -->
<g id="node44" class="node">
<title>sec_aligns_hard</title>
<polygon fill="#94ddf4" stroke="black" points="1202.5,-1706.26 1202.5,-1743.26 1331.5,-1743.26 1331.5,-1706.26 1202.5,-1706.26"/>
<text text-anchor="middle" x="1267" y="-1721.06" font-family="Times,serif" font-size="14.00">sec_aligns_hard</text>
</g>
<!-- sec_aligns_hard&#45;&gt;run_dragen_alignment_step -->
<g id="edge52" class="edge">
<title>sec_aligns_hard&#45;&gt;run_dragen_alignment_step</title>
<path fill="none" stroke="black" d="M1288.3,-1706.12C1302.41,-1695.37 1321.78,-1682.3 1341,-1674.76 2231.57,-1325.34 3408.51,-1268.01 3772.17,-1258.6"/>
<polygon fill="black" stroke="black" points="3772.52,-1262.1 3782.43,-1258.35 3772.34,-1255.1 3772.52,-1262.1"/>
</g>
<!-- sec_phred_delta -->
<g id="node45" class="node">
<title>sec_phred_delta</title>
<polygon fill="#94ddf4" stroke="black" points="1053.5,-1706.26 1053.5,-1743.26 1184.5,-1743.26 1184.5,-1706.26 1053.5,-1706.26"/>
<text text-anchor="middle" x="1119" y="-1721.06" font-family="Times,serif" font-size="14.00">sec_phred_delta</text>
</g>
<!-- sec_phred_delta&#45;&gt;run_dragen_alignment_step -->
<g id="edge53" class="edge">
<title>sec_phred_delta&#45;&gt;run_dragen_alignment_step</title>
<path fill="none" stroke="black" d="M1140.61,-1706.07C1154.91,-1695.3 1174.54,-1682.23 1194,-1674.76 2142.84,-1310.62 3395.69,-1263.29 3772.31,-1257.47"/>
<polygon fill="black" stroke="black" points="3772.45,-1260.97 3782.39,-1257.32 3772.34,-1253.97 3772.45,-1260.97"/>
</g>
<!-- sec_score_delta -->
<g id="node46" class="node">
<title>sec_score_delta</title>
<polygon fill="#94ddf4" stroke="black" points="907,-1706.26 907,-1743.26 1035,-1743.26 1035,-1706.26 907,-1706.26"/>
<text text-anchor="middle" x="971" y="-1721.06" font-family="Times,serif" font-size="14.00">sec_score_delta</text>
</g>
<!-- sec_score_delta&#45;&gt;run_dragen_alignment_step -->
<g id="edge54" class="edge">
<title>sec_score_delta&#45;&gt;run_dragen_alignment_step</title>
<path fill="none" stroke="black" d="M991.95,-1706.25C1006.06,-1695.41 1025.57,-1682.19 1045,-1674.76 2050.69,-1289.85 3381.99,-1256.93 3772.13,-1256.01"/>
<polygon fill="black" stroke="black" points="3772.29,-1259.51 3782.28,-1255.99 3772.28,-1252.51 3772.29,-1259.51"/>
</g>
<!-- seed_density -->
<g id="node47" class="node">
<title>seed_density</title>
<polygon fill="#94ddf4" stroke="black" points="779.5,-1706.26 779.5,-1743.26 888.5,-1743.26 888.5,-1706.26 779.5,-1706.26"/>
<text text-anchor="middle" x="834" y="-1721.06" font-family="Times,serif" font-size="14.00">seed_density</text>
</g>
<!-- seed_density&#45;&gt;run_dragen_alignment_step -->
<g id="edge55" class="edge">
<title>seed_density&#45;&gt;run_dragen_alignment_step</title>
<path fill="none" stroke="black" d="M851.7,-1706.15C863.73,-1695.28 880.57,-1682.05 898,-1674.76 1435.46,-1449.89 3295.92,-1300.04 3772.23,-1264.76"/>
<polygon fill="black" stroke="black" points="3772.49,-1268.25 3782.2,-1264.03 3771.97,-1261.27 3772.49,-1268.25"/>
</g>
<!-- supp_aligns -->
<g id="node48" class="node">
<title>supp_aligns</title>
<polygon fill="#94ddf4" stroke="black" points="660.5,-1706.26 660.5,-1743.26 761.5,-1743.26 761.5,-1706.26 660.5,-1706.26"/>
<text text-anchor="middle" x="711" y="-1721.06" font-family="Times,serif" font-size="14.00">supp_aligns</text>
</g>
<!-- supp_aligns&#45;&gt;run_dragen_alignment_step -->
<g id="edge56" class="edge">
<title>supp_aligns&#45;&gt;run_dragen_alignment_step</title>
<path fill="none" stroke="black" d="M727.38,-1706.11C738.57,-1695.21 754.34,-1681.98 771,-1674.76 1329.69,-1432.5 3283,-1294.79 3772.24,-1263.6"/>
<polygon fill="black" stroke="black" points="3772.72,-1267.08 3782.48,-1262.95 3772.28,-1260.09 3772.72,-1267.08"/>
</g>
<!-- supp_as_sec -->
<g id="node49" class="node">
<title>supp_as_sec</title>
<polygon fill="#94ddf4" stroke="black" points="538,-1706.26 538,-1743.26 642,-1743.26 642,-1706.26 538,-1706.26"/>
<text text-anchor="middle" x="590" y="-1721.06" font-family="Times,serif" font-size="14.00">supp_as_sec</text>
</g>
<!-- supp_as_sec&#45;&gt;run_dragen_alignment_step -->
<g id="edge57" class="edge">
<title>supp_as_sec&#45;&gt;run_dragen_alignment_step</title>
<path fill="none" stroke="black" d="M607.02,-1706.09C618.62,-1695.18 634.93,-1681.95 652,-1674.76 1235.87,-1428.79 3271.74,-1293.27 3772.22,-1263.2"/>
<polygon fill="black" stroke="black" points="3772.56,-1266.69 3782.34,-1262.6 3772.14,-1259.7 3772.56,-1266.69"/>
</g>
<!-- supp_min_score_adj -->
<g id="node50" class="node">
<title>supp_min_score_adj</title>
<polygon fill="#94ddf4" stroke="black" points="362,-1706.26 362,-1743.26 520,-1743.26 520,-1706.26 362,-1706.26"/>
<text text-anchor="middle" x="441" y="-1721.06" font-family="Times,serif" font-size="14.00">supp_min_score_adj</text>
</g>
<!-- supp_min_score_adj&#45;&gt;run_dragen_alignment_step -->
<g id="edge58" class="edge">
<title>supp_min_score_adj&#45;&gt;run_dragen_alignment_step</title>
<path fill="none" stroke="black" d="M466.36,-1706.18C483.32,-1695.32 506.56,-1682.09 529,-1674.76 1154.95,-1470.1 3261.26,-1303.07 3771.83,-1264.94"/>
<polygon fill="black" stroke="black" points="3772.43,-1268.41 3782.14,-1264.17 3771.91,-1261.42 3772.43,-1268.41"/>
</g>
<!-- unclip_score -->
<g id="node51" class="node">
<title>unclip_score</title>
<polygon fill="#94ddf4" stroke="black" points="238.5,-1706.26 238.5,-1743.26 343.5,-1743.26 343.5,-1706.26 238.5,-1706.26"/>
<text text-anchor="middle" x="291" y="-1721.06" font-family="Times,serif" font-size="14.00">unclip_score</text>
</g>
<!-- unclip_score&#45;&gt;run_dragen_alignment_step -->
<g id="edge59" class="edge">
<title>unclip_score&#45;&gt;run_dragen_alignment_step</title>
<path fill="none" stroke="black" d="M307.99,-1706.02C319.59,-1695.09 335.89,-1681.86 353,-1674.76 995.52,-1408.15 3243.53,-1286.99 3772.11,-1261.83"/>
<polygon fill="black" stroke="black" points="3772.58,-1265.31 3782.4,-1261.34 3772.25,-1258.31 3772.58,-1265.31"/>
</g>
<!-- unpaired_pen -->
<g id="node52" class="node">
<title>unpaired_pen</title>
<polygon fill="#94ddf4" stroke="black" points="107.5,-1706.26 107.5,-1743.26 220.5,-1743.26 220.5,-1706.26 107.5,-1706.26"/>
<text text-anchor="middle" x="164" y="-1721.06" font-family="Times,serif" font-size="14.00">unpaired_pen</text>
</g>
<!-- unpaired_pen&#45;&gt;run_dragen_alignment_step -->
<g id="edge60" class="edge">
<title>unpaired_pen&#45;&gt;run_dragen_alignment_step</title>
<path fill="none" stroke="black" d="M182.01,-1706.25C194.45,-1695.27 211.95,-1681.89 230,-1674.76 900.84,-1409.71 3233.64,-1286.92 3772.38,-1261.73"/>
<polygon fill="black" stroke="black" points="3772.66,-1265.22 3782.48,-1261.26 3772.33,-1258.23 3772.66,-1265.22"/>
</g>
<!-- verbose -->
<g id="node53" class="node">
<title>verbose</title>
<polygon fill="#94ddf4" stroke="black" points="16.5,-1706.26 16.5,-1743.26 89.5,-1743.26 89.5,-1706.26 16.5,-1706.26"/>
<text text-anchor="middle" x="53" y="-1721.06" font-family="Times,serif" font-size="14.00">verbose</text>
</g>
<!-- verbose&#45;&gt;run_dragen_alignment_step -->
<g id="edge61" class="edge">
<title>verbose&#45;&gt;run_dragen_alignment_step</title>
<path fill="none" stroke="black" d="M64.16,-1706.23C72.16,-1695.24 83.99,-1681.86 98,-1674.76 766.21,-1336.22 3216.83,-1269.51 3771.77,-1258.64"/>
<polygon fill="black" stroke="black" points="3772.24,-1262.13 3782.17,-1258.44 3772.1,-1255.13 3772.24,-1262.13"/>
</g>
<!-- dragen_alignment_output_directory -->
<g id="node54" class="node">
<title>dragen_alignment_output_directory</title>
<polygon fill="#94ddf4" stroke="black" points="3748,-335.26 3748,-372.26 4020,-372.26 4020,-335.26 3748,-335.26"/>
<text text-anchor="middle" x="3884" y="-350.06" font-family="Times,serif" font-size="14.00">dragen_alignment_output_directory</text>
</g>
<!-- dragen_bam_out -->
<g id="node55" class="node">
<title>dragen_bam_out</title>
<polygon fill="#94ddf4" stroke="black" points="4038,-335.26 4038,-372.26 4172,-372.26 4172,-335.26 4038,-335.26"/>
<text text-anchor="middle" x="4105" y="-350.06" font-family="Times,serif" font-size="14.00">dragen_bam_out</text>
</g>
<!-- multiqc_output_directory -->
<g id="node56" class="node">
<title>multiqc_output_directory</title>
<polygon fill="#94ddf4" stroke="black" points="4190.5,-335.26 4190.5,-372.26 4387.5,-372.26 4387.5,-335.26 4190.5,-335.26"/>
<text text-anchor="middle" x="4289" y="-350.06" font-family="Times,serif" font-size="14.00">multiqc_output_directory</text>
</g>
<!-- run_dragen_alignment_step&#45;&gt;dragen_alignment_output_directory -->
<g id="edge2" class="edge">
<title>run_dragen_alignment_step&#45;&gt;dragen_alignment_output_directory</title>
<path fill="none" stroke="black" d="M3884,-1237.18C3884,-1125.97 3884,-520.19 3884,-382.58"/>
<polygon fill="black" stroke="black" points="3887.5,-382.44 3884,-372.45 3880.5,-382.45 3887.5,-382.44"/>
</g>
<!-- run_dragen_alignment_step&#45;&gt;dragen_bam_out -->
<g id="edge3" class="edge">
<title>run_dragen_alignment_step&#45;&gt;dragen_bam_out</title>
<path fill="none" stroke="black" d="M3888.32,-1237.18C3915.65,-1125.86 4064.68,-518.97 4098.27,-382.16"/>
<polygon fill="black" stroke="black" points="4101.67,-382.99 4100.66,-372.45 4094.87,-381.32 4101.67,-382.99"/>
</g>
<!-- run_dragen_alignment_step&#45;&gt;dragen_qc_step -->
<g id="edge1" class="edge">
<title>run_dragen_alignment_step&#45;&gt;dragen_qc_step</title>
<path fill="none" stroke="black" d="M3985.91,-1241.68C4504.23,-1175.19 6841.4,-875.37 7304.21,-815.99"/>
<polygon fill="black" stroke="black" points="7305,-819.42 7314.47,-814.68 7304.11,-812.48 7305,-819.42"/>
</g>
<!-- dragen_qc_step&#45;&gt;multiqc_output_directory -->
<g id="edge4" class="edge">
<title>dragen_qc_step&#45;&gt;multiqc_output_directory</title>
<path fill="none" stroke="black" d="M7314.28,-793.64C6912.23,-735.32 4890.64,-442.04 4397.57,-370.51"/>
<polygon fill="black" stroke="black" points="4398.01,-367.04 4387.61,-369.06 4397.01,-373.96 4398.01,-367.04"/>
</g>
<!-- create_dummy_file_step -->
<g id="node59" class="node">
<title>create_dummy_file_step</title>
<polygon fill="lightgoldenrodyellow" stroke="black" points="7430.5,-1237.26 7430.5,-1274.26 7691.5,-1274.26 7691.5,-1237.26 7430.5,-1237.26"/>
<text text-anchor="middle" x="7561" y="-1252.06" font-family="Times,serif" font-size="14.00">custom&#45;create&#45;dummy&#45;file v(1.0.0)</text>
</g>
<!-- create_dummy_file_step&#45;&gt;dragen_qc_step -->
<g id="edge5" class="edge">
<title>create_dummy_file_step&#45;&gt;dragen_qc_step</title>
<path fill="none" stroke="black" d="M7554.06,-1237.16C7526.91,-1168.29 7427.78,-916.81 7394.77,-833.08"/>
<polygon fill="black" stroke="black" points="7398.01,-831.75 7391.08,-823.73 7391.49,-834.31 7398.01,-831.75"/>
</g>
<!-- \n -->
<g id="node60" class="node">
<title>\n</title>
<ellipse fill="none" stroke="black" cx="7499" cy="-1724.76" rx="27" ry="18"/>
</g>
</g>
</svg>
