<?xml version="1.0" encoding="UTF-8" standalone="no"?>
<!DOCTYPE svg PUBLIC "-//W3C//DTD SVG 1.1//EN"
 "http://www.w3.org/Graphics/SVG/1.1/DTD/svg11.dtd">
<!-- Generated by graphviz version 2.43.0 (0)
 -->
<!-- Title: G Pages: 1 -->
<svg width="7808pt" height="1958pt"
 viewBox="0.00 0.00 7808.00 1958.00" xmlns="http://www.w3.org/2000/svg" xmlns:xlink="http://www.w3.org/1999/xlink">
<g id="graph0" class="graph" transform="scale(1 1) rotate(0) translate(4 1954)">
<title>G</title>
<polygon fill="#eeeeee" stroke="transparent" points="-4,4 -4,-1954 7804,-1954 7804,4 -4,4"/>
<g id="clust1" class="cluster">
<title>cluster_inputs</title>
<polygon fill="#eeeeee" stroke="black" stroke-dasharray="5,2" points="8,-1428.77 8,-1900.94 7736,-1900.94 7736,-1428.77 8,-1428.77"/>
<text text-anchor="middle" x="7669.5" y="-1436.57" font-family="Times,serif" font-size="14.00">Workflow Inputs</text>
</g>
<g id="clust2" class="cluster">
<title>cluster_outputs</title>
<polygon fill="#eeeeee" stroke="black" stroke-dasharray="5,2" points="3231,-49.06 3231,-521.23 3887,-521.23 3887,-49.06 3231,-49.06"/>
<text text-anchor="middle" x="3814.5" y="-56.86" font-family="Times,serif" font-size="14.00">Workflow Outputs</text>
</g>
<!-- output_file_prefix -->
<g id="node1" class="node">
<title>output_file_prefix</title>
<polygon fill="#94ddf4" stroke="black" points="16,-1716.56 16,-1753.56 156,-1753.56 156,-1716.56 16,-1716.56"/>
<text text-anchor="middle" x="86" y="-1731.36" font-family="Times,serif" font-size="14.00">output_file_prefix</text>
</g>
<!-- dragen_qc_step -->
<g id="node60" class="node">
<title>dragen_qc_step</title>
<polygon fill="lightgoldenrodyellow" stroke="black" points="16.5,-790.56 16.5,-827.56 155.5,-827.56 155.5,-790.56 16.5,-790.56"/>
<text text-anchor="middle" x="86" y="-805.36" font-family="Times,serif" font-size="14.00">multiqc v(1.14.0)</text>
</g>
<!-- output_file_prefix&#45;&gt;dragen_qc_step -->
<g id="edge6" class="edge">
<title>output_file_prefix&#45;&gt;dragen_qc_step</title>
<path fill="none" stroke="black" d="M81.93,-1716.42C69.69,-1603.22 69.36,-978.9 80.95,-838.22"/>
<polygon fill="black" stroke="black" points="84.47,-838.16 81.91,-827.87 77.5,-837.51 84.47,-838.16"/>
</g>
<!-- output_file_prefix&#45;&gt;dragen_qc_step -->
<g id="edge7" class="edge">
<title>output_file_prefix&#45;&gt;dragen_qc_step</title>
<path fill="none" stroke="black" d="M86,-1716.42C86,-1603.22 86,-978.9 86,-838.22"/>
<polygon fill="black" stroke="black" points="89.5,-837.87 86,-827.87 82.5,-837.87 89.5,-837.87"/>
</g>
<!-- output_file_prefix&#45;&gt;dragen_qc_step -->
<g id="edge8" class="edge">
<title>output_file_prefix&#45;&gt;dragen_qc_step</title>
<path fill="none" stroke="black" d="M90.07,-1716.42C102.31,-1603.22 102.64,-978.9 91.05,-838.22"/>
<polygon fill="black" stroke="black" points="94.5,-837.51 90.09,-827.87 87.53,-838.16 94.5,-837.51"/>
</g>
<!-- run_dragen_alignment_step -->
<g id="node61" class="node">
<title>run_dragen_alignment_step</title>
<polygon fill="lightgoldenrodyellow" stroke="black" points="3710.5,-1244.56 3710.5,-1281.56 3913.5,-1281.56 3913.5,-1244.56 3710.5,-1244.56"/>
<text text-anchor="middle" x="3812" y="-1259.36" font-family="Times,serif" font-size="14.00">dragen&#45;alignment v(3.9.3)</text>
</g>
<!-- output_file_prefix&#45;&gt;run_dragen_alignment_step -->
<g id="edge9" class="edge">
<title>output_file_prefix&#45;&gt;run_dragen_alignment_step</title>
<path fill="none" stroke="black" d="M108.79,-1716.37C124.1,-1705.46 145.21,-1692.23 166,-1685.06 846.07,-1450.4 3163.11,-1302.15 3700.2,-1270.45"/>
<polygon fill="black" stroke="black" points="3700.49,-1273.94 3710.27,-1269.86 3700.08,-1266.95 3700.49,-1273.94"/>
</g>
<!-- aln_min_score -->
<g id="node2" class="node">
<title>aln_min_score</title>
<polygon fill="#94ddf4" stroke="black" points="7519.5,-1716.56 7519.5,-1753.56 7636.5,-1753.56 7636.5,-1716.56 7519.5,-1716.56"/>
<text text-anchor="middle" x="7578" y="-1731.36" font-family="Times,serif" font-size="14.00">aln_min_score</text>
</g>
<!-- aln_min_score&#45;&gt;run_dragen_alignment_step -->
<g id="edge10" class="edge">
<title>aln_min_score&#45;&gt;run_dragen_alignment_step</title>
<path fill="none" stroke="black" d="M7559.35,-1716.55C7546.5,-1705.58 7528.46,-1692.19 7510,-1685.06 6828.79,-1421.71 4467.15,-1295.18 3923.99,-1269.18"/>
<polygon fill="black" stroke="black" points="3923.96,-1265.67 3913.8,-1268.69 3923.62,-1272.67 3923.96,-1265.67"/>
</g>
<!-- alt_aware -->
<g id="node3" class="node">
<title>alt_aware</title>
<polygon fill="#94ddf4" stroke="black" points="7415,-1716.56 7415,-1753.56 7501,-1753.56 7501,-1716.56 7415,-1716.56"/>
<text text-anchor="middle" x="7458" y="-1731.36" font-family="Times,serif" font-size="14.00">alt_aware</text>
</g>
<!-- alt_aware&#45;&gt;run_dragen_alignment_step -->
<g id="edge11" class="edge">
<title>alt_aware&#45;&gt;run_dragen_alignment_step</title>
<path fill="none" stroke="black" d="M7444.51,-1716.55C7435.01,-1705.57 7421.29,-1692.18 7406,-1685.06 6763.29,-1385.49 4459.38,-1286.88 3923.8,-1267.76"/>
<polygon fill="black" stroke="black" points="3923.87,-1264.26 3913.75,-1267.4 3923.62,-1271.25 3923.87,-1264.26"/>
</g>
<!-- ann_sj_max_indel -->
<g id="node4" class="node">
<title>ann_sj_max_indel</title>
<polygon fill="#94ddf4" stroke="black" points="7257,-1716.56 7257,-1753.56 7397,-1753.56 7397,-1716.56 7257,-1716.56"/>
<text text-anchor="middle" x="7327" y="-1731.36" font-family="Times,serif" font-size="14.00">ann_sj_max_indel</text>
</g>
<!-- ann_sj_max_indel&#45;&gt;run_dragen_alignment_step -->
<g id="edge12" class="edge">
<title>ann_sj_max_indel&#45;&gt;run_dragen_alignment_step</title>
<path fill="none" stroke="black" d="M7304.51,-1716.41C7289.4,-1705.52 7268.55,-1692.29 7248,-1685.06 6610.6,-1460.62 4441.58,-1305.62 3923.7,-1271.26"/>
<polygon fill="black" stroke="black" points="3923.82,-1267.76 3913.61,-1270.59 3923.36,-1274.74 3923.82,-1267.76"/>
</g>
<!-- dedup_min_qual -->
<g id="node5" class="node">
<title>dedup_min_qual</title>
<polygon fill="#94ddf4" stroke="black" points="7107,-1716.56 7107,-1753.56 7239,-1753.56 7239,-1716.56 7107,-1716.56"/>
<text text-anchor="middle" x="7173" y="-1731.36" font-family="Times,serif" font-size="14.00">dedup_min_qual</text>
</g>
<!-- dedup_min_qual&#45;&gt;run_dragen_alignment_step -->
<g id="edge13" class="edge">
<title>dedup_min_qual&#45;&gt;run_dragen_alignment_step</title>
<path fill="none" stroke="black" d="M7151.78,-1716.43C7137.48,-1705.55 7117.7,-1692.32 7098,-1685.06 6493.18,-1462.17 4428.38,-1306.84 3923.88,-1271.64"/>
<polygon fill="black" stroke="black" points="3923.91,-1268.13 3913.69,-1270.93 3923.42,-1275.11 3923.91,-1268.13"/>
</g>
<!-- edit_chain_limit -->
<g id="node6" class="node">
<title>edit_chain_limit</title>
<polygon fill="#94ddf4" stroke="black" points="6959.5,-1716.56 6959.5,-1753.56 7088.5,-1753.56 7088.5,-1716.56 6959.5,-1716.56"/>
<text text-anchor="middle" x="7024" y="-1731.36" font-family="Times,serif" font-size="14.00">edit_chain_limit</text>
</g>
<!-- edit_chain_limit&#45;&gt;run_dragen_alignment_step -->
<g id="edge14" class="edge">
<title>edit_chain_limit&#45;&gt;run_dragen_alignment_step</title>
<path fill="none" stroke="black" d="M7003.08,-1716.46C6988.99,-1705.59 6969.47,-1692.37 6950,-1685.06 6375.33,-1469.32 4414.89,-1309.57 3924.1,-1272.33"/>
<polygon fill="black" stroke="black" points="3924.06,-1268.82 3913.83,-1271.55 3923.53,-1275.8 3924.06,-1268.82"/>
</g>
<!-- edit_mode -->
<g id="node7" class="node">
<title>edit_mode</title>
<polygon fill="#94ddf4" stroke="black" points="6851,-1716.56 6851,-1753.56 6941,-1753.56 6941,-1716.56 6851,-1716.56"/>
<text text-anchor="middle" x="6896" y="-1731.36" font-family="Times,serif" font-size="14.00">edit_mode</text>
</g>
<!-- edit_mode&#45;&gt;run_dragen_alignment_step -->
<g id="edge15" class="edge">
<title>edit_mode&#45;&gt;run_dragen_alignment_step</title>
<path fill="none" stroke="black" d="M6881.37,-1716.17C6871.44,-1705.33 6857.37,-1692.24 6842,-1685.06 6305.81,-1434.28 4406.06,-1301.03 3923.91,-1270.77"/>
<polygon fill="black" stroke="black" points="3924.01,-1267.27 3913.81,-1270.14 3923.57,-1274.26 3924.01,-1267.27"/>
</g>
<!-- edit_read_len -->
<g id="node8" class="node">
<title>edit_read_len</title>
<polygon fill="#94ddf4" stroke="black" points="6721,-1716.56 6721,-1753.56 6833,-1753.56 6833,-1716.56 6721,-1716.56"/>
<text text-anchor="middle" x="6777" y="-1731.36" font-family="Times,serif" font-size="14.00">edit_read_len</text>
</g>
<!-- edit_read_len&#45;&gt;run_dragen_alignment_step -->
<g id="edge16" class="edge">
<title>edit_read_len&#45;&gt;run_dragen_alignment_step</title>
<path fill="none" stroke="black" d="M6758.96,-1716.49C6746.72,-1705.62 6729.61,-1692.4 6712,-1685.06 6190.67,-1467.67 4391.91,-1310.66 3923.98,-1272.84"/>
<polygon fill="black" stroke="black" points="3924.09,-1269.33 3913.84,-1272.02 3923.53,-1276.31 3924.09,-1269.33"/>
</g>
<!-- edit_seed_num -->
<g id="node9" class="node">
<title>edit_seed_num</title>
<polygon fill="#94ddf4" stroke="black" points="6581,-1716.56 6581,-1753.56 6703,-1753.56 6703,-1716.56 6581,-1716.56"/>
<text text-anchor="middle" x="6642" y="-1731.36" font-family="Times,serif" font-size="14.00">edit_seed_num</text>
</g>
<!-- edit_seed_num&#45;&gt;run_dragen_alignment_step -->
<g id="edge17" class="edge">
<title>edit_seed_num&#45;&gt;run_dragen_alignment_step</title>
<path fill="none" stroke="black" d="M6622.33,-1716.56C6609.04,-1705.72 6590.59,-1692.5 6572,-1685.06 5601.93,-1296.42 4308.24,-1263.79 3924.05,-1263.17"/>
<polygon fill="black" stroke="black" points="3923.78,-1259.66 3913.77,-1263.16 3923.77,-1266.66 3923.78,-1259.66"/>
</g>
<!-- en_alt_hap_aln -->
<g id="node10" class="node">
<title>en_alt_hap_aln</title>
<polygon fill="#94ddf4" stroke="black" points="6441.5,-1716.56 6441.5,-1753.56 6562.5,-1753.56 6562.5,-1716.56 6441.5,-1716.56"/>
<text text-anchor="middle" x="6502" y="-1731.36" font-family="Times,serif" font-size="14.00">en_alt_hap_aln</text>
</g>
<!-- en_alt_hap_aln&#45;&gt;run_dragen_alignment_step -->
<g id="edge18" class="edge">
<title>en_alt_hap_aln&#45;&gt;run_dragen_alignment_step</title>
<path fill="none" stroke="black" d="M6482.34,-1716.36C6469.27,-1705.59 6451.22,-1692.51 6433,-1685.06 5517.84,-1310.6 4295.65,-1268.09 3923.89,-1264.14"/>
<polygon fill="black" stroke="black" points="3923.71,-1260.64 3913.68,-1264.04 3923.64,-1267.64 3923.71,-1260.64"/>
</g>
<!-- en_chimeric_aln -->
<g id="node11" class="node">
<title>en_chimeric_aln</title>
<polygon fill="#94ddf4" stroke="black" points="6292.5,-1716.56 6292.5,-1753.56 6423.5,-1753.56 6423.5,-1716.56 6292.5,-1716.56"/>
<text text-anchor="middle" x="6358" y="-1731.36" font-family="Times,serif" font-size="14.00">en_chimeric_aln</text>
</g>
<!-- en_chimeric_aln&#45;&gt;run_dragen_alignment_step -->
<g id="edge19" class="edge">
<title>en_chimeric_aln&#45;&gt;run_dragen_alignment_step</title>
<path fill="none" stroke="black" d="M6336.68,-1716.45C6322.57,-1705.72 6303.2,-1692.65 6284,-1685.06 5420.95,-1343.56 4280.89,-1278.87 3923.81,-1266.79"/>
<polygon fill="black" stroke="black" points="3923.84,-1263.29 3913.73,-1266.45 3923.61,-1270.28 3923.84,-1263.29"/>
</g>
<!-- enable_duplicate_marking -->
<g id="node12" class="node">
<title>enable_duplicate_marking</title>
<polygon fill="#94ddf4" stroke="black" points="6071.5,-1716.56 6071.5,-1753.56 6274.5,-1753.56 6274.5,-1716.56 6071.5,-1716.56"/>
<text text-anchor="middle" x="6173" y="-1731.36" font-family="Times,serif" font-size="14.00">enable_duplicate_marking</text>
</g>
<!-- enable_duplicate_marking&#45;&gt;run_dragen_alignment_step -->
<g id="edge20" class="edge">
<title>enable_duplicate_marking&#45;&gt;run_dragen_alignment_step</title>
<path fill="none" stroke="black" d="M6139.12,-1716.48C6117.77,-1706.04 6089.35,-1693.26 6063,-1685.06 5263.48,-1436 4255.78,-1311.78 3923.71,-1275.57"/>
<polygon fill="black" stroke="black" points="3923.92,-1272.07 3913.61,-1274.47 3923.17,-1279.03 3923.92,-1272.07"/>
</g>
<!-- enable_map_align_output -->
<g id="node13" class="node">
<title>enable_map_align_output</title>
<polygon fill="#94ddf4" stroke="black" points="5856.5,-1716.56 5856.5,-1753.56 6053.5,-1753.56 6053.5,-1716.56 5856.5,-1716.56"/>
<text text-anchor="middle" x="5955" y="-1731.36" font-family="Times,serif" font-size="14.00">enable_map_align_output</text>
</g>
<!-- enable_map_align_output&#45;&gt;run_dragen_alignment_step -->
<g id="edge21" class="edge">
<title>enable_map_align_output&#45;&gt;run_dragen_alignment_step</title>
<path fill="none" stroke="black" d="M5921.57,-1716.38C5900.86,-1706.03 5873.43,-1693.39 5848,-1685.06 5134.09,-1451.11 4235.21,-1319.28 3924.04,-1278.17"/>
<polygon fill="black" stroke="black" points="3924.03,-1274.64 3913.66,-1276.8 3923.12,-1281.58 3924.03,-1274.64"/>
</g>
<!-- enable_rna -->
<g id="node14" class="node">
<title>enable_rna</title>
<polygon fill="#94ddf4" stroke="black" points="5743.5,-1716.56 5743.5,-1753.56 5838.5,-1753.56 5838.5,-1716.56 5743.5,-1716.56"/>
<text text-anchor="middle" x="5791" y="-1731.36" font-family="Times,serif" font-size="14.00">enable_rna</text>
</g>
<!-- enable_rna&#45;&gt;run_dragen_alignment_step -->
<g id="edge22" class="edge">
<title>enable_rna&#45;&gt;run_dragen_alignment_step</title>
<path fill="none" stroke="black" d="M5775.03,-1716.11C5764.64,-1705.52 5750.23,-1692.74 5735,-1685.06 5101.22,-1365.36 4230,-1287.3 3923.83,-1269.22"/>
<polygon fill="black" stroke="black" points="3923.81,-1265.71 3913.62,-1268.63 3923.4,-1272.7 3923.81,-1265.71"/>
</g>
<!-- enable_rrna_filter -->
<g id="node15" class="node">
<title>enable_rrna_filter</title>
<polygon fill="#94ddf4" stroke="black" points="5582.5,-1716.56 5582.5,-1753.56 5725.5,-1753.56 5725.5,-1716.56 5582.5,-1716.56"/>
<text text-anchor="middle" x="5654" y="-1731.36" font-family="Times,serif" font-size="14.00">enable_rrna_filter</text>
</g>
<!-- enable_rrna_filter&#45;&gt;run_dragen_alignment_step -->
<g id="edge23" class="edge">
<title>enable_rrna_filter&#45;&gt;run_dragen_alignment_step</title>
<path fill="none" stroke="black" d="M5629.86,-1716.49C5614.52,-1706.04 5593.87,-1693.27 5574,-1685.06 4978.98,-1439.04 4208.82,-1317.27 3924.15,-1278.35"/>
<polygon fill="black" stroke="black" points="3924.2,-1274.83 3913.82,-1276.95 3923.26,-1281.76 3924.2,-1274.83"/>
</g>
<!-- enable_sort -->
<g id="node16" class="node">
<title>enable_sort</title>
<polygon fill="#94ddf4" stroke="black" points="5465.5,-1716.56 5465.5,-1753.56 5564.5,-1753.56 5564.5,-1716.56 5465.5,-1716.56"/>
<text text-anchor="middle" x="5515" y="-1731.36" font-family="Times,serif" font-size="14.00">enable_sort</text>
</g>
<!-- enable_sort&#45;&gt;run_dragen_alignment_step -->
<g id="edge24" class="edge">
<title>enable_sort&#45;&gt;run_dragen_alignment_step</title>
<path fill="none" stroke="black" d="M5497.9,-1716.33C5486.85,-1705.82 5471.65,-1693.05 5456,-1685.06 4922,-1412.54 4198.22,-1307.26 3923.75,-1275.53"/>
<polygon fill="black" stroke="black" points="3924.11,-1272.05 3913.78,-1274.39 3923.31,-1279.01 3924.11,-1272.05"/>
</g>
<!-- fastq_list -->
<g id="node17" class="node">
<title>fastq_list</title>
<polygon fill="#94ddf4" stroke="black" points="5365,-1716.56 5365,-1753.56 5447,-1753.56 5447,-1716.56 5365,-1716.56"/>
<text text-anchor="middle" x="5406" y="-1731.36" font-family="Times,serif" font-size="14.00">fastq_list</text>
</g>
<!-- fastq_list&#45;&gt;run_dragen_alignment_step -->
<g id="edge25" class="edge">
<title>fastq_list&#45;&gt;run_dragen_alignment_step</title>
<path fill="none" stroke="black" d="M5391.97,-1716.32C5382.78,-1705.82 5369.92,-1693.04 5356,-1685.06 4868.79,-1405.62 4188.27,-1304.98 3923.54,-1275.01"/>
<polygon fill="black" stroke="black" points="3923.86,-1271.52 3913.53,-1273.89 3923.08,-1278.48 3923.86,-1271.52"/>
</g>
<!-- fastq_list_rows -->
<g id="node18" class="node">
<title>fastq_list_rows</title>
<polygon fill="#94ddf4" stroke="black" points="5223.5,-1716.56 5223.5,-1753.56 5346.5,-1753.56 5346.5,-1716.56 5223.5,-1716.56"/>
<text text-anchor="middle" x="5285" y="-1731.36" font-family="Times,serif" font-size="14.00">fastq_list_rows</text>
</g>
<!-- fastq_list_rows&#45;&gt;run_dragen_alignment_step -->
<g id="edge26" class="edge">
<title>fastq_list_rows&#45;&gt;run_dragen_alignment_step</title>
<path fill="none" stroke="black" d="M5263.74,-1716.48C5250.41,-1706.16 5232.49,-1693.53 5215,-1685.06 4756.42,-1462.9 4156.19,-1330.59 3916.99,-1283.58"/>
<polygon fill="black" stroke="black" points="3917.39,-1280.1 3906.91,-1281.61 3916.05,-1286.97 3917.39,-1280.1"/>
</g>
<!-- gap_ext_pen -->
<g id="node19" class="node">
<title>gap_ext_pen</title>
<polygon fill="#94ddf4" stroke="black" points="5100.5,-1716.56 5100.5,-1753.56 5205.5,-1753.56 5205.5,-1716.56 5100.5,-1716.56"/>
<text text-anchor="middle" x="5153" y="-1731.36" font-family="Times,serif" font-size="14.00">gap_ext_pen</text>
</g>
<!-- gap_ext_pen&#45;&gt;run_dragen_alignment_step -->
<g id="edge27" class="edge">
<title>gap_ext_pen&#45;&gt;run_dragen_alignment_step</title>
<path fill="none" stroke="black" d="M5134.76,-1716.49C5123.25,-1706.18 5107.64,-1693.54 5092,-1685.06 4680.94,-1461.96 4131.25,-1330.55 3910.16,-1283.69"/>
<polygon fill="black" stroke="black" points="3910.71,-1280.23 3900.2,-1281.59 3909.27,-1287.08 3910.71,-1280.23"/>
</g>
<!-- gap_open_pen -->
<g id="node20" class="node">
<title>gap_open_pen</title>
<polygon fill="#94ddf4" stroke="black" points="4965.5,-1716.56 4965.5,-1753.56 5082.5,-1753.56 5082.5,-1716.56 4965.5,-1716.56"/>
<text text-anchor="middle" x="5024" y="-1731.36" font-family="Times,serif" font-size="14.00">gap_open_pen</text>
</g>
<!-- gap_open_pen&#45;&gt;run_dragen_alignment_step -->
<g id="edge28" class="edge">
<title>gap_open_pen&#45;&gt;run_dragen_alignment_step</title>
<path fill="none" stroke="black" d="M5002.99,-1716.33C4990.27,-1706.21 4973.39,-1693.84 4957,-1685.06 4577.13,-1481.51 4077.73,-1335.56 3888.83,-1284.24"/>
<polygon fill="black" stroke="black" points="3889.55,-1280.81 3878.99,-1281.58 3887.72,-1287.57 3889.55,-1280.81"/>
</g>
<!-- generate_md_tags -->
<g id="node21" class="node">
<title>generate_md_tags</title>
<polygon fill="#94ddf4" stroke="black" points="4800.5,-1716.56 4800.5,-1753.56 4947.5,-1753.56 4947.5,-1716.56 4800.5,-1716.56"/>
<text text-anchor="middle" x="4874" y="-1731.36" font-family="Times,serif" font-size="14.00">generate_md_tags</text>
</g>
<!-- generate_md_tags&#45;&gt;run_dragen_alignment_step -->
<g id="edge29" class="edge">
<title>generate_md_tags&#45;&gt;run_dragen_alignment_step</title>
<path fill="none" stroke="black" d="M4846.07,-1716.37C4830.2,-1706.62 4809.8,-1694.6 4791,-1685.06 4449.37,-1511.64 4019.85,-1343.31 3868.16,-1285.31"/>
<polygon fill="black" stroke="black" points="3869.17,-1281.94 3858.58,-1281.65 3866.67,-1288.48 3869.17,-1281.94"/>
</g>
<!-- generate_sa_tags -->
<g id="node22" class="node">
<title>generate_sa_tags</title>
<polygon fill="#94ddf4" stroke="black" points="4642,-1716.56 4642,-1753.56 4782,-1753.56 4782,-1716.56 4642,-1716.56"/>
<text text-anchor="middle" x="4712" y="-1731.36" font-family="Times,serif" font-size="14.00">generate_sa_tags</text>
</g>
<!-- generate_sa_tags&#45;&gt;run_dragen_alignment_step -->
<g id="edge30" class="edge">
<title>generate_sa_tags&#45;&gt;run_dragen_alignment_step</title>
<path fill="none" stroke="black" d="M4684.91,-1716.49C4669.81,-1706.9 4650.56,-1694.98 4633,-1685.06 4343.86,-1521.61 3984.51,-1346.75 3858.36,-1286.18"/>
<polygon fill="black" stroke="black" points="3859.51,-1282.85 3848.98,-1281.69 3856.48,-1289.17 3859.51,-1282.85"/>
</g>
<!-- generate_zs_tags -->
<g id="node23" class="node">
<title>generate_zs_tags</title>
<polygon fill="#94ddf4" stroke="black" points="4484,-1716.56 4484,-1753.56 4624,-1753.56 4624,-1716.56 4484,-1716.56"/>
<text text-anchor="middle" x="4554" y="-1731.36" font-family="Times,serif" font-size="14.00">generate_zs_tags</text>
</g>
<!-- generate_zs_tags&#45;&gt;run_dragen_alignment_step -->
<g id="edge31" class="edge">
<title>generate_zs_tags&#45;&gt;run_dragen_alignment_step</title>
<path fill="none" stroke="black" d="M4526.27,-1716.49C4412.06,-1644.15 3978.1,-1369.27 3848.66,-1287.28"/>
<polygon fill="black" stroke="black" points="3850.19,-1284.11 3839.87,-1281.71 3846.45,-1290.02 3850.19,-1284.11"/>
</g>
<!-- global -->
<g id="node24" class="node">
<title>global</title>
<polygon fill="#94ddf4" stroke="black" points="4406,-1716.56 4406,-1753.56 4466,-1753.56 4466,-1716.56 4406,-1716.56"/>
<text text-anchor="middle" x="4436" y="-1731.36" font-family="Times,serif" font-size="14.00">global</text>
</g>
<!-- global&#45;&gt;run_dragen_alignment_step -->
<g id="edge32" class="edge">
<title>global&#45;&gt;run_dragen_alignment_step</title>
<path fill="none" stroke="black" d="M4424.11,-1716.27C4417.12,-1706.49 4407.77,-1694.47 4398,-1685.06 4213.69,-1507.37 3950.19,-1345.08 3851.4,-1286.84"/>
<polygon fill="black" stroke="black" points="3853.03,-1283.74 3842.64,-1281.69 3849.49,-1289.78 3853.03,-1283.74"/>
</g>
<!-- hard_clips -->
<g id="node25" class="node">
<title>hard_clips</title>
<polygon fill="#94ddf4" stroke="black" points="4299.5,-1716.56 4299.5,-1753.56 4388.5,-1753.56 4388.5,-1716.56 4299.5,-1716.56"/>
<text text-anchor="middle" x="4344" y="-1731.36" font-family="Times,serif" font-size="14.00">hard_clips</text>
</g>
<!-- hard_clips&#45;&gt;run_dragen_alignment_step -->
<g id="edge33" class="edge">
<title>hard_clips&#45;&gt;run_dragen_alignment_step</title>
<path fill="none" stroke="black" d="M4324.82,-1716.53C4314.53,-1707.15 4301.61,-1695.43 4290,-1685.06 4120.12,-1533.19 3914.03,-1353.04 3840.08,-1288.53"/>
<polygon fill="black" stroke="black" points="3841.97,-1285.53 3832.13,-1281.6 3837.37,-1290.81 3841.97,-1285.53"/>
</g>
<!-- map_orientations -->
<g id="node26" class="node">
<title>map_orientations</title>
<polygon fill="#94ddf4" stroke="black" points="4141,-1716.56 4141,-1753.56 4281,-1753.56 4281,-1716.56 4141,-1716.56"/>
<text text-anchor="middle" x="4211" y="-1731.36" font-family="Times,serif" font-size="14.00">map_orientations</text>
</g>
<!-- map_orientations&#45;&gt;run_dragen_alignment_step -->
<g id="edge34" class="edge">
<title>map_orientations&#45;&gt;run_dragen_alignment_step</title>
<path fill="none" stroke="black" d="M4196.09,-1716.49C4135.3,-1644.88 3906.02,-1374.81 3833.87,-1289.82"/>
<polygon fill="black" stroke="black" points="3836.34,-1287.32 3827.2,-1281.96 3831,-1291.85 3836.34,-1287.32"/>
</g>
<!-- mapq_max -->
<g id="node27" class="node">
<title>mapq_max</title>
<polygon fill="#94ddf4" stroke="black" points="4029.5,-1716.56 4029.5,-1753.56 4122.5,-1753.56 4122.5,-1716.56 4029.5,-1716.56"/>
<text text-anchor="middle" x="4076" y="-1731.36" font-family="Times,serif" font-size="14.00">mapq_max</text>
</g>
<!-- mapq_max&#45;&gt;run_dragen_alignment_step -->
<g id="edge35" class="edge">
<title>mapq_max&#45;&gt;run_dragen_alignment_step</title>
<path fill="none" stroke="black" d="M4066.13,-1716.49C4026.07,-1645.17 3875.43,-1376.98 3827.06,-1290.86"/>
<polygon fill="black" stroke="black" points="3830.01,-1288.97 3822.06,-1281.96 3823.9,-1292.4 3830.01,-1288.97"/>
</g>
<!-- mapq_strict_js -->
<g id="node28" class="node">
<title>mapq_strict_js</title>
<polygon fill="#94ddf4" stroke="black" points="3891,-1716.56 3891,-1753.56 4011,-1753.56 4011,-1716.56 3891,-1716.56"/>
<text text-anchor="middle" x="3951" y="-1731.36" font-family="Times,serif" font-size="14.00">mapq_strict_js</text>
</g>
<!-- mapq_strict_js&#45;&gt;run_dragen_alignment_step -->
<g id="edge36" class="edge">
<title>mapq_strict_js&#45;&gt;run_dragen_alignment_step</title>
<path fill="none" stroke="black" d="M3945.8,-1716.49C3924.78,-1645.39 3845.88,-1378.61 3820.16,-1291.65"/>
<polygon fill="black" stroke="black" points="3823.49,-1290.56 3817.3,-1281.96 3816.78,-1292.54 3823.49,-1290.56"/>
</g>
<!-- match_n_score -->
<g id="node29" class="node">
<title>match_n_score</title>
<polygon fill="#94ddf4" stroke="black" points="3751,-1716.56 3751,-1753.56 3873,-1753.56 3873,-1716.56 3751,-1716.56"/>
<text text-anchor="middle" x="3812" y="-1731.36" font-family="Times,serif" font-size="14.00">match_n_score</text>
</g>
<!-- match_n_score&#45;&gt;run_dragen_alignment_step -->
<g id="edge37" class="edge">
<title>match_n_score&#45;&gt;run_dragen_alignment_step</title>
<path fill="none" stroke="black" d="M3812,-1716.49C3812,-1645.53 3812,-1379.7 3812,-1292.18"/>
<polygon fill="black" stroke="black" points="3815.5,-1291.96 3812,-1281.96 3808.5,-1291.96 3815.5,-1291.96"/>
</g>
<!-- match_score -->
<g id="node30" class="node">
<title>match_score</title>
<polygon fill="#94ddf4" stroke="black" points="3627,-1716.56 3627,-1753.56 3733,-1753.56 3733,-1716.56 3627,-1716.56"/>
<text text-anchor="middle" x="3680" y="-1731.36" font-family="Times,serif" font-size="14.00">match_score</text>
</g>
<!-- match_score&#45;&gt;run_dragen_alignment_step -->
<g id="edge38" class="edge">
<title>match_score&#45;&gt;run_dragen_alignment_step</title>
<path fill="none" stroke="black" d="M3684.93,-1716.49C3704.9,-1645.39 3779.83,-1378.61 3804.25,-1291.65"/>
<polygon fill="black" stroke="black" points="3807.64,-1292.54 3806.97,-1281.96 3800.9,-1290.64 3807.64,-1292.54"/>
</g>
<!-- max_intron_bases -->
<g id="node31" class="node">
<title>max_intron_bases</title>
<polygon fill="#94ddf4" stroke="black" points="3465,-1716.56 3465,-1753.56 3609,-1753.56 3609,-1716.56 3465,-1716.56"/>
<text text-anchor="middle" x="3537" y="-1731.36" font-family="Times,serif" font-size="14.00">max_intron_bases</text>
</g>
<!-- max_intron_bases&#45;&gt;run_dragen_alignment_step -->
<g id="edge39" class="edge">
<title>max_intron_bases&#45;&gt;run_dragen_alignment_step</title>
<path fill="none" stroke="black" d="M3547.28,-1716.49C3589.05,-1645.1 3746.24,-1376.44 3796.47,-1290.6"/>
<polygon fill="black" stroke="black" points="3799.49,-1292.36 3801.52,-1281.96 3793.45,-1288.83 3799.49,-1292.36"/>
</g>
<!-- max_rescues -->
<g id="node32" class="node">
<title>max_rescues</title>
<polygon fill="#94ddf4" stroke="black" points="3339,-1716.56 3339,-1753.56 3447,-1753.56 3447,-1716.56 3339,-1716.56"/>
<text text-anchor="middle" x="3393" y="-1731.36" font-family="Times,serif" font-size="14.00">max_rescues</text>
</g>
<!-- max_rescues&#45;&gt;run_dragen_alignment_step -->
<g id="edge40" class="edge">
<title>max_rescues&#45;&gt;run_dragen_alignment_step</title>
<path fill="none" stroke="black" d="M3408.66,-1716.49C3472.56,-1644.81 3713.75,-1374.26 3789.26,-1289.57"/>
<polygon fill="black" stroke="black" points="3791.99,-1291.76 3796.04,-1281.96 3786.77,-1287.1 3791.99,-1291.76"/>
</g>
<!-- min_intron_bases -->
<g id="node33" class="node">
<title>min_intron_bases</title>
<polygon fill="#94ddf4" stroke="black" points="3179.5,-1716.56 3179.5,-1753.56 3320.5,-1753.56 3320.5,-1716.56 3179.5,-1716.56"/>
<text text-anchor="middle" x="3250" y="-1731.36" font-family="Times,serif" font-size="14.00">min_intron_bases</text>
</g>
<!-- min_intron_bases&#45;&gt;run_dragen_alignment_step -->
<g id="edge41" class="edge">
<title>min_intron_bases&#45;&gt;run_dragen_alignment_step</title>
<path fill="none" stroke="black" d="M3271.01,-1716.49C3357.16,-1644.44 3683.57,-1371.46 3783.05,-1288.27"/>
<polygon fill="black" stroke="black" points="3785.46,-1290.81 3790.89,-1281.71 3780.97,-1285.44 3785.46,-1290.81"/>
</g>
<!-- min_score_coeff -->
<g id="node34" class="node">
<title>min_score_coeff</title>
<polygon fill="#94ddf4" stroke="black" points="3032.5,-1716.56 3032.5,-1753.56 3161.5,-1753.56 3161.5,-1716.56 3032.5,-1716.56"/>
<text text-anchor="middle" x="3097" y="-1731.36" font-family="Times,serif" font-size="14.00">min_score_coeff</text>
</g>
<!-- min_score_coeff&#45;&gt;run_dragen_alignment_step -->
<g id="edge42" class="edge">
<title>min_score_coeff&#45;&gt;run_dragen_alignment_step</title>
<path fill="none" stroke="black" d="M3123.7,-1716.34C3137.77,-1707.02 3155.31,-1695.41 3171,-1685.06 3401.66,-1532.95 3679.57,-1350.8 3776.56,-1287.27"/>
<polygon fill="black" stroke="black" points="3778.66,-1290.07 3785.11,-1281.67 3774.82,-1284.22 3778.66,-1290.07"/>
</g>
<!-- mismatch_pen -->
<g id="node35" class="node">
<title>mismatch_pen</title>
<polygon fill="#94ddf4" stroke="black" points="2895.5,-1716.56 2895.5,-1753.56 3014.5,-1753.56 3014.5,-1716.56 2895.5,-1716.56"/>
<text text-anchor="middle" x="2955" y="-1731.36" font-family="Times,serif" font-size="14.00">mismatch_pen</text>
</g>
<!-- mismatch_pen&#45;&gt;run_dragen_alignment_step -->
<g id="edge43" class="edge">
<title>mismatch_pen&#45;&gt;run_dragen_alignment_step</title>
<path fill="none" stroke="black" d="M2978.13,-1716.52C2991.3,-1706.82 3008.26,-1694.8 3024,-1685.06 3296.85,-1516.23 3643.27,-1345.36 3766.2,-1285.98"/>
<polygon fill="black" stroke="black" points="3767.87,-1289.06 3775.35,-1281.56 3764.82,-1282.76 3767.87,-1289.06"/>
</g>
<!-- no_unclip_score -->
<g id="node36" class="node">
<title>no_unclip_score</title>
<polygon fill="#94ddf4" stroke="black" points="2748.5,-1716.56 2748.5,-1753.56 2877.5,-1753.56 2877.5,-1716.56 2748.5,-1716.56"/>
<text text-anchor="middle" x="2813" y="-1731.36" font-family="Times,serif" font-size="14.00">no_unclip_score</text>
</g>
<!-- no_unclip_score&#45;&gt;run_dragen_alignment_step -->
<g id="edge44" class="edge">
<title>no_unclip_score&#45;&gt;run_dragen_alignment_step</title>
<path fill="none" stroke="black" d="M2837.39,-1716.49C2851.54,-1706.67 2869.88,-1694.54 2887,-1685.06 3205.7,-1508.46 3612.13,-1342.82 3757.38,-1285.38"/>
<polygon fill="black" stroke="black" points="3758.96,-1288.52 3766.97,-1281.59 3756.39,-1282.01 3758.96,-1288.52"/>
</g>
<!-- no_unpaired -->
<g id="node37" class="node">
<title>no_unpaired</title>
<polygon fill="#94ddf4" stroke="black" points="2626,-1716.56 2626,-1753.56 2730,-1753.56 2730,-1716.56 2626,-1716.56"/>
<text text-anchor="middle" x="2678" y="-1731.36" font-family="Times,serif" font-size="14.00">no_unpaired</text>
</g>
<!-- no_unpaired&#45;&gt;run_dragen_alignment_step -->
<g id="edge45" class="edge">
<title>no_unpaired&#45;&gt;run_dragen_alignment_step</title>
<path fill="none" stroke="black" d="M2697.31,-1716.35C2709.03,-1706.25 2724.65,-1693.87 2740,-1685.06 3092.64,-1482.44 3561.66,-1336.02 3739.5,-1284.41"/>
<polygon fill="black" stroke="black" points="3740.64,-1287.72 3749.27,-1281.58 3738.69,-1281 3740.64,-1287.72"/>
</g>
<!-- output_directory -->
<g id="node38" class="node">
<title>output_directory</title>
<polygon fill="#94ddf4" stroke="black" points="2472,-1716.56 2472,-1753.56 2608,-1753.56 2608,-1716.56 2472,-1716.56"/>
<text text-anchor="middle" x="2540" y="-1731.36" font-family="Times,serif" font-size="14.00">output_directory</text>
</g>
<!-- output_directory&#45;&gt;run_dragen_alignment_step -->
<g id="edge46" class="edge">
<title>output_directory&#45;&gt;run_dragen_alignment_step</title>
<path fill="none" stroke="black" d="M2564.48,-1716.45C2579.21,-1706.37 2598.62,-1694 2617,-1685.06 3021.89,-1488.11 3543.29,-1336.96 3736.02,-1284.28"/>
<polygon fill="black" stroke="black" points="3737.05,-1287.63 3745.78,-1281.62 3735.21,-1280.87 3737.05,-1287.63"/>
</g>
<!-- pe_max_penalty -->
<g id="node39" class="node">
<title>pe_max_penalty</title>
<polygon fill="#94ddf4" stroke="black" points="2322.5,-1716.56 2322.5,-1753.56 2453.5,-1753.56 2453.5,-1716.56 2322.5,-1716.56"/>
<text text-anchor="middle" x="2388" y="-1731.36" font-family="Times,serif" font-size="14.00">pe_max_penalty</text>
</g>
<!-- pe_max_penalty&#45;&gt;run_dragen_alignment_step -->
<g id="edge47" class="edge">
<title>pe_max_penalty&#45;&gt;run_dragen_alignment_step</title>
<path fill="none" stroke="black" d="M2411.33,-1716.4C2425.66,-1706.18 2444.71,-1693.68 2463,-1685.06 2912.12,-1473.28 3494.26,-1333.23 3718.39,-1283.85"/>
<polygon fill="black" stroke="black" points="3719.45,-1287.2 3728.46,-1281.64 3717.95,-1280.36 3719.45,-1287.2"/>
</g>
<!-- pe_orientation -->
<g id="node40" class="node">
<title>pe_orientation</title>
<polygon fill="#94ddf4" stroke="black" points="2185.5,-1716.56 2185.5,-1753.56 2304.5,-1753.56 2304.5,-1716.56 2185.5,-1716.56"/>
<text text-anchor="middle" x="2245" y="-1731.36" font-family="Times,serif" font-size="14.00">pe_orientation</text>
</g>
<!-- pe_orientation&#45;&gt;run_dragen_alignment_step -->
<g id="edge48" class="edge">
<title>pe_orientation&#45;&gt;run_dragen_alignment_step</title>
<path fill="none" stroke="black" d="M2265.87,-1716.35C2278.97,-1705.99 2296.63,-1693.35 2314,-1685.06 2802.59,-1451.6 3444.45,-1325.63 3700.01,-1281.95"/>
<polygon fill="black" stroke="black" points="3700.78,-1285.37 3710.05,-1280.24 3699.6,-1278.47 3700.78,-1285.37"/>
</g>
<!-- preserve_map_align_order -->
<g id="node41" class="node">
<title>preserve_map_align_order</title>
<polygon fill="#94ddf4" stroke="black" points="1962.5,-1716.56 1962.5,-1753.56 2167.5,-1753.56 2167.5,-1716.56 1962.5,-1716.56"/>
<text text-anchor="middle" x="2065" y="-1731.36" font-family="Times,serif" font-size="14.00">preserve_map_align_order</text>
</g>
<!-- preserve_map_align_order&#45;&gt;run_dragen_alignment_step -->
<g id="edge49" class="edge">
<title>preserve_map_align_order&#45;&gt;run_dragen_alignment_step</title>
<path fill="none" stroke="black" d="M2100.98,-1716.55C2122.66,-1706.45 2151.02,-1694.02 2177,-1685.06 2747.11,-1488.37 3456.95,-1335.89 3713.65,-1283.62"/>
<polygon fill="black" stroke="black" points="3714.59,-1287 3723.69,-1281.57 3713.19,-1280.14 3714.59,-1287"/>
</g>
<!-- reference_tar -->
<g id="node42" class="node">
<title>reference_tar</title>
<polygon fill="#94ddf4" stroke="black" points="1831.5,-1716.56 1831.5,-1753.56 1944.5,-1753.56 1944.5,-1716.56 1831.5,-1716.56"/>
<text text-anchor="middle" x="1888" y="-1731.36" font-family="Times,serif" font-size="14.00">reference_tar</text>
</g>
<!-- reference_tar&#45;&gt;run_dragen_alignment_step -->
<g id="edge50" class="edge">
<title>reference_tar&#45;&gt;run_dragen_alignment_step</title>
<path fill="none" stroke="black" d="M1907.12,-1716.48C1919.61,-1705.9 1936.75,-1692.98 1954,-1685.06 2574.57,-1399.9 3402.86,-1300.85 3700.03,-1273.21"/>
<polygon fill="black" stroke="black" points="3700.74,-1276.66 3710.37,-1272.26 3700.09,-1269.69 3700.74,-1276.66"/>
</g>
<!-- remove_duplicates -->
<g id="node43" class="node">
<title>remove_duplicates</title>
<polygon fill="#94ddf4" stroke="black" points="1663,-1716.56 1663,-1753.56 1813,-1753.56 1813,-1716.56 1663,-1716.56"/>
<text text-anchor="middle" x="1738" y="-1731.36" font-family="Times,serif" font-size="14.00">remove_duplicates</text>
</g>
<!-- remove_duplicates&#45;&gt;run_dragen_alignment_step -->
<g id="edge51" class="edge">
<title>remove_duplicates&#45;&gt;run_dragen_alignment_step</title>
<path fill="none" stroke="black" d="M1763.73,-1716.36C1780.06,-1705.87 1802,-1693.1 1823,-1685.06 2508.03,-1422.69 3391.68,-1308.85 3699.99,-1275.3"/>
<polygon fill="black" stroke="black" points="3700.7,-1278.74 3710.27,-1274.19 3699.95,-1271.78 3700.7,-1278.74"/>
</g>
<!-- rescue_sigmas -->
<g id="node44" class="node">
<title>rescue_sigmas</title>
<polygon fill="#94ddf4" stroke="black" points="1523.5,-1716.56 1523.5,-1753.56 1644.5,-1753.56 1644.5,-1716.56 1523.5,-1716.56"/>
<text text-anchor="middle" x="1584" y="-1731.36" font-family="Times,serif" font-size="14.00">rescue_sigmas</text>
</g>
<!-- rescue_sigmas&#45;&gt;run_dragen_alignment_step -->
<g id="edge52" class="edge">
<title>rescue_sigmas&#45;&gt;run_dragen_alignment_step</title>
<path fill="none" stroke="black" d="M1604.37,-1716.33C1617.66,-1705.69 1635.84,-1692.77 1654,-1685.06 2392.12,-1371.51 3372.16,-1289.05 3699.91,-1269.57"/>
<polygon fill="black" stroke="black" points="3700.58,-1273.03 3710.36,-1268.95 3700.17,-1266.05 3700.58,-1273.03"/>
</g>
<!-- sec_aligns -->
<g id="node45" class="node">
<title>sec_aligns</title>
<polygon fill="#94ddf4" stroke="black" points="1416.5,-1716.56 1416.5,-1753.56 1505.5,-1753.56 1505.5,-1716.56 1416.5,-1716.56"/>
<text text-anchor="middle" x="1461" y="-1731.36" font-family="Times,serif" font-size="14.00">sec_aligns</text>
</g>
<!-- sec_aligns&#45;&gt;run_dragen_alignment_step -->
<g id="edge53" class="edge">
<title>sec_aligns&#45;&gt;run_dragen_alignment_step</title>
<path fill="none" stroke="black" d="M1475.74,-1716.4C1485.71,-1705.65 1499.79,-1692.57 1515,-1685.06 2285.67,-1304.11 3355.57,-1265.4 3700.26,-1263.34"/>
<polygon fill="black" stroke="black" points="3700.51,-1266.84 3710.49,-1263.29 3700.47,-1259.84 3700.51,-1266.84"/>
</g>
<!-- sec_aligns_hard -->
<g id="node46" class="node">
<title>sec_aligns_hard</title>
<polygon fill="#94ddf4" stroke="black" points="1269.5,-1716.56 1269.5,-1753.56 1398.5,-1753.56 1398.5,-1716.56 1269.5,-1716.56"/>
<text text-anchor="middle" x="1334" y="-1731.36" font-family="Times,serif" font-size="14.00">sec_aligns_hard</text>
</g>
<!-- sec_aligns_hard&#45;&gt;run_dragen_alignment_step -->
<g id="edge54" class="edge">
<title>sec_aligns_hard&#45;&gt;run_dragen_alignment_step</title>
<path fill="none" stroke="black" d="M1355.33,-1716.48C1369.44,-1705.77 1388.82,-1692.7 1408,-1685.06 2244.81,-1351.68 3349.64,-1281.67 3700.26,-1267.51"/>
<polygon fill="black" stroke="black" points="3700.56,-1271 3710.41,-1267.11 3700.28,-1264.01 3700.56,-1271"/>
</g>
<!-- sec_phred_delta -->
<g id="node47" class="node">
<title>sec_phred_delta</title>
<polygon fill="#94ddf4" stroke="black" points="1120.5,-1716.56 1120.5,-1753.56 1251.5,-1753.56 1251.5,-1716.56 1120.5,-1716.56"/>
<text text-anchor="middle" x="1186" y="-1731.36" font-family="Times,serif" font-size="14.00">sec_phred_delta</text>
</g>
<!-- sec_phred_delta&#45;&gt;run_dragen_alignment_step -->
<g id="edge55" class="edge">
<title>sec_phred_delta&#45;&gt;run_dragen_alignment_step</title>
<path fill="none" stroke="black" d="M1207.63,-1716.43C1221.94,-1705.69 1241.58,-1692.62 1261,-1685.06 2155.91,-1336.78 3336.62,-1276.59 3700.49,-1266.21"/>
<polygon fill="black" stroke="black" points="3700.6,-1269.71 3710.49,-1265.93 3700.4,-1262.71 3700.6,-1269.71"/>
</g>
<!-- sec_score_delta -->
<g id="node48" class="node">
<title>sec_score_delta</title>
<polygon fill="#94ddf4" stroke="black" points="974,-1716.56 974,-1753.56 1102,-1753.56 1102,-1716.56 974,-1716.56"/>
<text text-anchor="middle" x="1038" y="-1731.36" font-family="Times,serif" font-size="14.00">sec_score_delta</text>
</g>
<!-- sec_score_delta&#45;&gt;run_dragen_alignment_step -->
<g id="edge56" class="edge">
<title>sec_score_delta&#45;&gt;run_dragen_alignment_step</title>
<path fill="none" stroke="black" d="M1059.28,-1716.36C1073.38,-1705.59 1092.75,-1692.52 1112,-1685.06 2063.5,-1316.25 3322.23,-1269.99 3700.14,-1264.62"/>
<polygon fill="black" stroke="black" points="3700.3,-1268.12 3710.25,-1264.48 3700.21,-1261.12 3700.3,-1268.12"/>
</g>
<!-- seed_density -->
<g id="node49" class="node">
<title>seed_density</title>
<polygon fill="#94ddf4" stroke="black" points="846.5,-1716.56 846.5,-1753.56 955.5,-1753.56 955.5,-1716.56 846.5,-1716.56"/>
<text text-anchor="middle" x="901" y="-1731.36" font-family="Times,serif" font-size="14.00">seed_density</text>
</g>
<!-- seed_density&#45;&gt;run_dragen_alignment_step -->
<g id="edge57" class="edge">
<title>seed_density&#45;&gt;run_dragen_alignment_step</title>
<path fill="none" stroke="black" d="M918.72,-1716.5C930.75,-1705.64 947.6,-1692.42 965,-1685.06 1475.34,-1469.22 3238.5,-1311.36 3700.47,-1273.03"/>
<polygon fill="black" stroke="black" points="3700.81,-1276.52 3710.49,-1272.2 3700.23,-1269.54 3700.81,-1276.52"/>
</g>
<!-- supp_aligns -->
<g id="node50" class="node">
<title>supp_aligns</title>
<polygon fill="#94ddf4" stroke="black" points="727.5,-1716.56 727.5,-1753.56 828.5,-1753.56 828.5,-1716.56 727.5,-1716.56"/>
<text text-anchor="middle" x="778" y="-1731.36" font-family="Times,serif" font-size="14.00">supp_aligns</text>
</g>
<!-- supp_aligns&#45;&gt;run_dragen_alignment_step -->
<g id="edge58" class="edge">
<title>supp_aligns&#45;&gt;run_dragen_alignment_step</title>
<path fill="none" stroke="black" d="M794.39,-1716.45C805.59,-1705.57 821.37,-1692.34 838,-1685.06 1369.53,-1452.31 3224.42,-1306.07 3700.14,-1271.82"/>
<polygon fill="black" stroke="black" points="3700.72,-1275.29 3710.44,-1271.08 3700.22,-1268.31 3700.72,-1275.29"/>
</g>
<!-- supp_as_sec -->
<g id="node51" class="node">
<title>supp_as_sec</title>
<polygon fill="#94ddf4" stroke="black" points="605,-1716.56 605,-1753.56 709,-1753.56 709,-1716.56 605,-1716.56"/>
<text text-anchor="middle" x="657" y="-1731.36" font-family="Times,serif" font-size="14.00">supp_as_sec</text>
</g>
<!-- supp_as_sec&#45;&gt;run_dragen_alignment_step -->
<g id="edge59" class="edge">
<title>supp_as_sec&#45;&gt;run_dragen_alignment_step</title>
<path fill="none" stroke="black" d="M674.04,-1716.42C685.65,-1705.53 701.96,-1692.3 719,-1685.06 1275.62,-1448.38 3213.18,-1304.36 3700.23,-1271.35"/>
<polygon fill="black" stroke="black" points="3700.69,-1274.83 3710.43,-1270.67 3700.22,-1267.85 3700.69,-1274.83"/>
</g>
<!-- supp_min_score_adj -->
<g id="node52" class="node">
<title>supp_min_score_adj</title>
<polygon fill="#94ddf4" stroke="black" points="429,-1716.56 429,-1753.56 587,-1753.56 587,-1716.56 429,-1716.56"/>
<text text-anchor="middle" x="508" y="-1731.36" font-family="Times,serif" font-size="14.00">supp_min_score_adj</text>
</g>
<!-- supp_min_score_adj&#45;&gt;run_dragen_alignment_step -->
<g id="edge60" class="edge">
<title>supp_min_score_adj&#45;&gt;run_dragen_alignment_step</title>
<path fill="none" stroke="black" d="M533.37,-1716.53C550.34,-1705.68 573.59,-1692.46 596,-1685.06 1764.12,-1299.1 3280.74,-1265.28 3700.26,-1263.66"/>
<polygon fill="black" stroke="black" points="3700.27,-1267.16 3710.26,-1263.63 3700.25,-1260.16 3700.27,-1267.16"/>
</g>
<!-- unclip_score -->
<g id="node53" class="node">
<title>unclip_score</title>
<polygon fill="#94ddf4" stroke="black" points="305.5,-1716.56 305.5,-1753.56 410.5,-1753.56 410.5,-1716.56 305.5,-1716.56"/>
<text text-anchor="middle" x="358" y="-1731.36" font-family="Times,serif" font-size="14.00">unclip_score</text>
</g>
<!-- unclip_score&#45;&gt;run_dragen_alignment_step -->
<g id="edge61" class="edge">
<title>unclip_score&#45;&gt;run_dragen_alignment_step</title>
<path fill="none" stroke="black" d="M375.01,-1716.35C386.61,-1705.44 402.91,-1692.2 420,-1685.06 1035.22,-1427.73 3184.78,-1297.74 3700.27,-1269.84"/>
<polygon fill="black" stroke="black" points="3700.51,-1273.33 3710.31,-1269.3 3700.14,-1266.34 3700.51,-1273.33"/>
</g>
<!-- unpaired_pen -->
<g id="node54" class="node">
<title>unpaired_pen</title>
<polygon fill="#94ddf4" stroke="black" points="174.5,-1716.56 174.5,-1753.56 287.5,-1753.56 287.5,-1716.56 174.5,-1716.56"/>
<text text-anchor="middle" x="231" y="-1731.36" font-family="Times,serif" font-size="14.00">unpaired_pen</text>
</g>
<!-- unpaired_pen&#45;&gt;run_dragen_alignment_step -->
<g id="edge62" class="edge">
<title>unpaired_pen&#45;&gt;run_dragen_alignment_step</title>
<path fill="none" stroke="black" d="M249.3,-1716.34C261.73,-1705.42 279.1,-1692.18 297,-1685.06 940.11,-1428.99 3172.89,-1297.6 3699.91,-1269.73"/>
<polygon fill="black" stroke="black" points="3700.38,-1273.22 3710.18,-1269.19 3700.01,-1266.23 3700.38,-1273.22"/>
</g>
<!-- verbose -->
<g id="node55" class="node">
<title>verbose</title>
<polygon fill="#94ddf4" stroke="black" points="7654.5,-1716.56 7654.5,-1753.56 7727.5,-1753.56 7727.5,-1716.56 7654.5,-1716.56"/>
<text text-anchor="middle" x="7691" y="-1731.36" font-family="Times,serif" font-size="14.00">verbose</text>
</g>
<!-- verbose&#45;&gt;run_dragen_alignment_step -->
<g id="edge63" class="edge">
<title>verbose&#45;&gt;run_dragen_alignment_step</title>
<path fill="none" stroke="black" d="M7679.84,-1716.53C7671.84,-1705.54 7660.01,-1692.15 7646,-1685.06 6968.53,-1342.08 4482.31,-1276.38 3923.86,-1265.85"/>
<polygon fill="black" stroke="black" points="3923.85,-1262.35 3913.79,-1265.67 3923.72,-1269.35 3923.85,-1262.35"/>
</g>
<!-- dragen_alignment_output_directory -->
<g id="node56" class="node">
<title>dragen_alignment_output_directory</title>
<polygon fill="#94ddf4" stroke="black" points="3455,-337.56 3455,-374.56 3727,-374.56 3727,-337.56 3455,-337.56"/>
<text text-anchor="middle" x="3591" y="-352.36" font-family="Times,serif" font-size="14.00">dragen_alignment_output_directory</text>
</g>
<!-- dragen_bam_out -->
<g id="node57" class="node">
<title>dragen_bam_out</title>
<polygon fill="#94ddf4" stroke="black" points="3745,-337.56 3745,-374.56 3879,-374.56 3879,-337.56 3745,-337.56"/>
<text text-anchor="middle" x="3812" y="-352.36" font-family="Times,serif" font-size="14.00">dragen_bam_out</text>
</g>
<!-- multiqc_output_directory -->
<g id="node58" class="node">
<title>multiqc_output_directory</title>
<polygon fill="#94ddf4" stroke="black" points="3239.5,-337.56 3239.5,-374.56 3436.5,-374.56 3436.5,-337.56 3239.5,-337.56"/>
<text text-anchor="middle" x="3338" y="-352.36" font-family="Times,serif" font-size="14.00">multiqc_output_directory</text>
</g>
<!-- create_dummy_file_step -->
<g id="node59" class="node">
<title>create_dummy_file_step</title>
<polygon fill="lightgoldenrodyellow" stroke="black" points="132.5,-1244.56 132.5,-1281.56 393.5,-1281.56 393.5,-1244.56 132.5,-1244.56"/>
<text text-anchor="middle" x="263" y="-1259.36" font-family="Times,serif" font-size="14.00">custom&#45;create&#45;dummy&#45;file v(1.0.0)</text>
</g>
<!-- create_dummy_file_step&#45;&gt;dragen_qc_step -->
<g id="edge1" class="edge">
<title>create_dummy_file_step&#45;&gt;dragen_qc_step</title>
<path fill="none" stroke="black" d="M256.06,-1244.34C228.85,-1174.86 129.33,-920.7 96.55,-836.99"/>
<polygon fill="black" stroke="black" points="99.8,-835.69 92.89,-827.65 93.28,-838.24 99.8,-835.69"/>
</g>
<!-- dragen_qc_step&#45;&gt;multiqc_output_directory -->
<g id="edge2" class="edge">
<title>dragen_qc_step&#45;&gt;multiqc_output_directory</title>
<path fill="none" stroke="black" d="M155.81,-798.38C571.44,-740.73 2719.39,-442.85 3229.32,-372.13"/>
<polygon fill="black" stroke="black" points="3229.83,-375.59 3239.25,-370.75 3228.86,-368.66 3229.83,-375.59"/>
</g>
<!-- run_dragen_alignment_step&#45;&gt;dragen_alignment_output_directory -->
<g id="edge4" class="edge">
<title>run_dragen_alignment_step&#45;&gt;dragen_alignment_output_directory</title>
<path fill="none" stroke="black" d="M3807.68,-1244.38C3780.35,-1132.44 3631.32,-522.18 3597.73,-384.61"/>
<polygon fill="black" stroke="black" points="3601.12,-383.73 3595.34,-374.84 3594.32,-385.39 3601.12,-383.73"/>
</g>
<!-- run_dragen_alignment_step&#45;&gt;dragen_bam_out -->
<g id="edge5" class="edge">
<title>run_dragen_alignment_step&#45;&gt;dragen_bam_out</title>
<path fill="none" stroke="black" d="M3812,-1244.38C3812,-1132.55 3812,-523.41 3812,-385.03"/>
<polygon fill="black" stroke="black" points="3815.5,-384.84 3812,-374.84 3808.5,-384.84 3815.5,-384.84"/>
</g>
<!-- run_dragen_alignment_step&#45;&gt;dragen_qc_step -->
<g id="edge3" class="edge">
<title>run_dragen_alignment_step&#45;&gt;dragen_qc_step</title>
<path fill="none" stroke="black" d="M3710.41,-1249.73C3170.88,-1184.28 647.8,-878.21 165.72,-819.73"/>
<polygon fill="black" stroke="black" points="166.06,-816.24 155.72,-818.51 165.22,-823.19 166.06,-816.24"/>
</g>
<!-- \n -->
<g id="node62" class="node">
<title>\n</title>
<ellipse fill="none" stroke="black" cx="7773" cy="-1735.06" rx="27" ry="18"/>
</g>
</g>
</svg>
