<?xml version="1.0" encoding="UTF-8" standalone="no"?>
<!DOCTYPE svg PUBLIC "-//W3C//DTD SVG 1.1//EN"
 "http://www.w3.org/Graphics/SVG/1.1/DTD/svg11.dtd">
<!-- Generated by graphviz version 2.43.0 (0)
 -->
<!-- Title: G Pages: 1 -->
<svg width="7974pt" height="1999pt"
 viewBox="0.00 0.00 7973.50 1999.25" xmlns="http://www.w3.org/2000/svg" xmlns:xlink="http://www.w3.org/1999/xlink">
<g id="graph0" class="graph" transform="scale(1 1) rotate(0) translate(4 1995.25)">
<title>G</title>
<polygon fill="#eeeeee" stroke="transparent" points="-4,4 -4,-1995.25 7969.5,-1995.25 7969.5,4 -4,4"/>
<g id="clust1" class="cluster">
<title>cluster_inputs</title>
<polygon fill="#eeeeee" stroke="black" stroke-dasharray="5,2" points="8,-1459 8,-1941.16 7736,-1941.16 7736,-1459 8,-1459"/>
<text text-anchor="middle" x="7669.5" y="-1466.8" font-family="Times,serif" font-size="14.00">Workflow Inputs</text>
</g>
<g id="clust2" class="cluster">
<title>cluster_outputs</title>
<polygon fill="#eeeeee" stroke="black" stroke-dasharray="5,2" points="3865,-50.09 3865,-532.25 4521,-532.25 4521,-50.09 3865,-50.09"/>
<text text-anchor="middle" x="4448.5" y="-57.89" font-family="Times,serif" font-size="14.00">Workflow Outputs</text>
</g>
<!-- output_file_prefix -->
<g id="node1" class="node">
<title>output_file_prefix</title>
<polygon fill="#94ddf4" stroke="black" points="7588,-1753.59 7588,-1790.59 7728,-1790.59 7728,-1753.59 7588,-1753.59"/>
<text text-anchor="middle" x="7658" y="-1768.39" font-family="Times,serif" font-size="14.00">output_file_prefix</text>
</g>
<!-- run_dragen_alignment_step -->
<g id="node59" class="node">
<title>run_dragen_alignment_step</title>
<polygon fill="lightgoldenrodyellow" stroke="black" points="3907.5,-1271.59 3907.5,-1308.59 4110.5,-1308.59 4110.5,-1271.59 3907.5,-1271.59"/>
<text text-anchor="middle" x="4009" y="-1286.39" font-family="Times,serif" font-size="14.00">dragen&#45;alignment v(3.9.3)</text>
</g>
<!-- output_file_prefix&#45;&gt;run_dragen_alignment_step -->
<g id="edge6" class="edge">
<title>output_file_prefix&#45;&gt;run_dragen_alignment_step</title>
<path fill="none" stroke="black" d="M7635.52,-1753.44C7620.4,-1742.54 7599.56,-1729.31 7579,-1722.09 6915.03,-1488.97 4651.91,-1332.19 4121.08,-1298.09"/>
<polygon fill="black" stroke="black" points="4120.95,-1294.57 4110.74,-1297.42 4120.5,-1301.56 4120.95,-1294.57"/>
</g>
<!-- dragen_qc_step -->
<g id="node60" class="node">
<title>dragen_qc_step</title>
<polygon fill="lightgoldenrodyellow" stroke="black" points="7588.5,-807.59 7588.5,-844.59 7727.5,-844.59 7727.5,-807.59 7588.5,-807.59"/>
<text text-anchor="middle" x="7658" y="-822.39" font-family="Times,serif" font-size="14.00">multiqc v(1.14.0)</text>
</g>
<!-- output_file_prefix&#45;&gt;dragen_qc_step -->
<g id="edge7" class="edge">
<title>output_file_prefix&#45;&gt;dragen_qc_step</title>
<path fill="none" stroke="black" d="M7653.98,-1753.49C7641.67,-1638.74 7641.35,-997.28 7653.01,-855.04"/>
<polygon fill="black" stroke="black" points="7656.51,-855.23 7653.95,-844.95 7649.54,-854.59 7656.51,-855.23"/>
</g>
<!-- output_file_prefix&#45;&gt;dragen_qc_step -->
<g id="edge8" class="edge">
<title>output_file_prefix&#45;&gt;dragen_qc_step</title>
<path fill="none" stroke="black" d="M7658,-1753.49C7658,-1638.74 7658,-997.28 7658,-855.04"/>
<polygon fill="black" stroke="black" points="7661.5,-854.95 7658,-844.95 7654.5,-854.95 7661.5,-854.95"/>
</g>
<!-- output_file_prefix&#45;&gt;dragen_qc_step -->
<g id="edge9" class="edge">
<title>output_file_prefix&#45;&gt;dragen_qc_step</title>
<path fill="none" stroke="black" d="M7662.02,-1753.49C7674.33,-1638.74 7674.65,-997.28 7662.99,-855.04"/>
<polygon fill="black" stroke="black" points="7666.46,-854.59 7662.05,-844.95 7659.49,-855.23 7666.46,-854.59"/>
</g>
<!-- aln_min_score -->
<g id="node2" class="node">
<title>aln_min_score</title>
<polygon fill="#94ddf4" stroke="black" points="7452.5,-1753.59 7452.5,-1790.59 7569.5,-1790.59 7569.5,-1753.59 7452.5,-1753.59"/>
<text text-anchor="middle" x="7511" y="-1768.39" font-family="Times,serif" font-size="14.00">aln_min_score</text>
</g>
<!-- aln_min_score&#45;&gt;run_dragen_alignment_step -->
<g id="edge10" class="edge">
<title>aln_min_score&#45;&gt;run_dragen_alignment_step</title>
<path fill="none" stroke="black" d="M7492.04,-1753.42C7479.19,-1742.52 7461.28,-1729.28 7443,-1722.09 6814.25,-1474.87 4640.23,-1329.4 4121.01,-1297.69"/>
<polygon fill="black" stroke="black" points="4121.08,-1294.19 4110.89,-1297.08 4120.66,-1301.18 4121.08,-1294.19"/>
</g>
<!-- alt_aware -->
<g id="node3" class="node">
<title>alt_aware</title>
<polygon fill="#94ddf4" stroke="black" points="7348,-1753.59 7348,-1790.59 7434,-1790.59 7434,-1753.59 7348,-1753.59"/>
<text text-anchor="middle" x="7391" y="-1768.39" font-family="Times,serif" font-size="14.00">alt_aware</text>
</g>
<!-- alt_aware&#45;&gt;run_dragen_alignment_step -->
<g id="edge11" class="edge">
<title>alt_aware&#45;&gt;run_dragen_alignment_step</title>
<path fill="none" stroke="black" d="M7377.06,-1753.16C7367.57,-1742.3 7354.02,-1729.21 7339,-1722.09 6747.54,-1442.05 4632.21,-1321.7 4120.87,-1296.34"/>
<polygon fill="black" stroke="black" points="4120.7,-1292.83 4110.54,-1295.83 4120.35,-1299.82 4120.7,-1292.83"/>
</g>
<!-- ann_sj_max_indel -->
<g id="node4" class="node">
<title>ann_sj_max_indel</title>
<polygon fill="#94ddf4" stroke="black" points="7190,-1753.59 7190,-1790.59 7330,-1790.59 7330,-1753.59 7190,-1753.59"/>
<text text-anchor="middle" x="7260" y="-1768.39" font-family="Times,serif" font-size="14.00">ann_sj_max_indel</text>
</g>
<!-- ann_sj_max_indel&#45;&gt;run_dragen_alignment_step -->
<g id="edge12" class="edge">
<title>ann_sj_max_indel&#45;&gt;run_dragen_alignment_step</title>
<path fill="none" stroke="black" d="M7237.48,-1753.54C7222.35,-1742.69 7201.5,-1729.47 7181,-1722.09 6596.48,-1511.96 4614.32,-1340.19 4120.93,-1299.99"/>
<polygon fill="black" stroke="black" points="4120.85,-1296.48 4110.6,-1299.15 4120.28,-1303.45 4120.85,-1296.48"/>
</g>
<!-- dedup_min_qual -->
<g id="node5" class="node">
<title>dedup_min_qual</title>
<polygon fill="#94ddf4" stroke="black" points="7040,-1753.59 7040,-1790.59 7172,-1790.59 7172,-1753.59 7040,-1753.59"/>
<text text-anchor="middle" x="7106" y="-1768.39" font-family="Times,serif" font-size="14.00">dedup_min_qual</text>
</g>
<!-- dedup_min_qual&#45;&gt;run_dragen_alignment_step -->
<g id="edge13" class="edge">
<title>dedup_min_qual&#45;&gt;run_dragen_alignment_step</title>
<path fill="none" stroke="black" d="M7084.74,-1753.56C7070.43,-1742.72 7050.65,-1729.49 7031,-1722.09 6478.69,-1514.09 4599.98,-1341.78 4120.91,-1300.5"/>
<polygon fill="black" stroke="black" points="4121.14,-1297.01 4110.87,-1299.64 4120.54,-1303.99 4121.14,-1297.01"/>
</g>
<!-- edit_chain_limit -->
<g id="node6" class="node">
<title>edit_chain_limit</title>
<polygon fill="#94ddf4" stroke="black" points="6892.5,-1753.59 6892.5,-1790.59 7021.5,-1790.59 7021.5,-1753.59 6892.5,-1753.59"/>
<text text-anchor="middle" x="6957" y="-1768.39" font-family="Times,serif" font-size="14.00">edit_chain_limit</text>
</g>
<!-- edit_chain_limit&#45;&gt;run_dragen_alignment_step -->
<g id="edge14" class="edge">
<title>edit_chain_limit&#45;&gt;run_dragen_alignment_step</title>
<path fill="none" stroke="black" d="M6935.73,-1753.36C6921.64,-1742.58 6902.27,-1729.5 6883,-1722.09 5863.86,-1330.48 4514.15,-1292.96 4120.91,-1290.73"/>
<polygon fill="black" stroke="black" points="4120.69,-1287.23 4110.67,-1290.68 4120.66,-1294.23 4120.69,-1287.23"/>
</g>
<!-- edit_mode -->
<g id="node7" class="node">
<title>edit_mode</title>
<polygon fill="#94ddf4" stroke="black" points="6784,-1753.59 6784,-1790.59 6874,-1790.59 6874,-1753.59 6784,-1753.59"/>
<text text-anchor="middle" x="6829" y="-1768.39" font-family="Times,serif" font-size="14.00">edit_mode</text>
</g>
<!-- edit_mode&#45;&gt;run_dragen_alignment_step -->
<g id="edge15" class="edge">
<title>edit_mode&#45;&gt;run_dragen_alignment_step</title>
<path fill="none" stroke="black" d="M6814.33,-1753.3C6804.38,-1742.49 6790.31,-1729.41 6775,-1722.09 6289.75,-1490.24 4576.3,-1337.15 4120.86,-1299.92"/>
<polygon fill="black" stroke="black" points="4120.91,-1296.41 4110.66,-1299.09 4120.35,-1303.39 4120.91,-1296.41"/>
</g>
<!-- edit_read_len -->
<g id="node8" class="node">
<title>edit_read_len</title>
<polygon fill="#94ddf4" stroke="black" points="6654,-1753.59 6654,-1790.59 6766,-1790.59 6766,-1753.59 6654,-1753.59"/>
<text text-anchor="middle" x="6710" y="-1768.39" font-family="Times,serif" font-size="14.00">edit_read_len</text>
</g>
<!-- edit_read_len&#45;&gt;run_dragen_alignment_step -->
<g id="edge16" class="edge">
<title>edit_read_len&#45;&gt;run_dragen_alignment_step</title>
<path fill="none" stroke="black" d="M6691.65,-1753.39C6679.41,-1742.62 6662.41,-1729.54 6645,-1722.09 5729.17,-1330.54 4494.48,-1292.63 4120.72,-1290.57"/>
<polygon fill="black" stroke="black" points="4120.74,-1287.07 4110.72,-1290.52 4120.7,-1294.07 4120.74,-1287.07"/>
</g>
<!-- edit_seed_num -->
<g id="node9" class="node">
<title>edit_seed_num</title>
<polygon fill="#94ddf4" stroke="black" points="6514,-1753.59 6514,-1790.59 6636,-1790.59 6636,-1753.59 6514,-1753.59"/>
<text text-anchor="middle" x="6575" y="-1768.39" font-family="Times,serif" font-size="14.00">edit_seed_num</text>
</g>
<!-- edit_seed_num&#45;&gt;run_dragen_alignment_step -->
<g id="edge17" class="edge">
<title>edit_seed_num&#45;&gt;run_dragen_alignment_step</title>
<path fill="none" stroke="black" d="M6554.98,-1753.48C6541.7,-1742.74 6523.38,-1729.67 6505,-1722.09 5636.91,-1364.39 4480.63,-1303.55 4120.71,-1293.21"/>
<polygon fill="black" stroke="black" points="4120.65,-1289.71 4110.55,-1292.93 4120.45,-1296.7 4120.65,-1289.71"/>
</g>
<!-- en_alt_hap_aln -->
<g id="node10" class="node">
<title>en_alt_hap_aln</title>
<polygon fill="#94ddf4" stroke="black" points="6374.5,-1753.59 6374.5,-1790.59 6495.5,-1790.59 6495.5,-1753.59 6374.5,-1753.59"/>
<text text-anchor="middle" x="6435" y="-1768.39" font-family="Times,serif" font-size="14.00">en_alt_hap_aln</text>
</g>
<!-- en_alt_hap_aln&#45;&gt;run_dragen_alignment_step -->
<g id="edge18" class="edge">
<title>en_alt_hap_aln&#45;&gt;run_dragen_alignment_step</title>
<path fill="none" stroke="black" d="M6415.28,-1753.53C6402.19,-1742.81 6384.14,-1729.75 6366,-1722.09 5552.36,-1378.88 4467.4,-1308.51 4120.55,-1294.48"/>
<polygon fill="black" stroke="black" points="4120.64,-1290.98 4110.51,-1294.08 4120.36,-1297.98 4120.64,-1290.98"/>
</g>
<!-- en_chimeric_aln -->
<g id="node11" class="node">
<title>en_chimeric_aln</title>
<polygon fill="#94ddf4" stroke="black" points="6225.5,-1753.59 6225.5,-1790.59 6356.5,-1790.59 6356.5,-1753.59 6225.5,-1753.59"/>
<text text-anchor="middle" x="6291" y="-1768.39" font-family="Times,serif" font-size="14.00">en_chimeric_aln</text>
</g>
<!-- en_chimeric_aln&#45;&gt;run_dragen_alignment_step -->
<g id="edge19" class="edge">
<title>en_chimeric_aln&#45;&gt;run_dragen_alignment_step</title>
<path fill="none" stroke="black" d="M6269.3,-1753.41C6255.2,-1742.79 6235.96,-1729.86 6217,-1722.09 5455.75,-1410.22 4452.45,-1319.78 4120.74,-1297.52"/>
<polygon fill="black" stroke="black" points="4120.86,-1294.02 4110.65,-1296.85 4120.39,-1301.01 4120.86,-1294.02"/>
</g>
<!-- enable_duplicate_marking -->
<g id="node12" class="node">
<title>enable_duplicate_marking</title>
<polygon fill="#94ddf4" stroke="black" points="6004.5,-1753.59 6004.5,-1790.59 6207.5,-1790.59 6207.5,-1753.59 6004.5,-1753.59"/>
<text text-anchor="middle" x="6106" y="-1768.39" font-family="Times,serif" font-size="14.00">enable_duplicate_marking</text>
</g>
<!-- enable_duplicate_marking&#45;&gt;run_dragen_alignment_step -->
<g id="edge20" class="edge">
<title>enable_duplicate_marking&#45;&gt;run_dragen_alignment_step</title>
<path fill="none" stroke="black" d="M6071.55,-1753.55C6050.22,-1743.25 6022.03,-1730.61 5996,-1722.09 5299.83,-1494.22 4426.66,-1352.57 4120.9,-1307.1"/>
<polygon fill="black" stroke="black" points="4121.11,-1303.59 4110.7,-1305.58 4120.08,-1310.51 4121.11,-1303.59"/>
</g>
<!-- enable_map_align_output -->
<g id="node13" class="node">
<title>enable_map_align_output</title>
<polygon fill="#94ddf4" stroke="black" points="5789.5,-1753.59 5789.5,-1790.59 5986.5,-1790.59 5986.5,-1753.59 5789.5,-1753.59"/>
<text text-anchor="middle" x="5888" y="-1768.39" font-family="Times,serif" font-size="14.00">enable_map_align_output</text>
</g>
<!-- enable_map_align_output&#45;&gt;run_dragen_alignment_step -->
<g id="edge21" class="edge">
<title>enable_map_align_output&#45;&gt;run_dragen_alignment_step</title>
<path fill="none" stroke="black" d="M5853.99,-1753.5C5833.29,-1743.3 5806.09,-1730.8 5781,-1722.09 5168.66,-1509.6 4402.49,-1361.34 4120.11,-1310.47"/>
<polygon fill="black" stroke="black" points="4120.32,-1306.95 4109.86,-1308.63 4119.09,-1313.84 4120.32,-1306.95"/>
</g>
<!-- enable_rna -->
<g id="node14" class="node">
<title>enable_rna</title>
<polygon fill="#94ddf4" stroke="black" points="5676.5,-1753.59 5676.5,-1790.59 5771.5,-1790.59 5771.5,-1753.59 5676.5,-1753.59"/>
<text text-anchor="middle" x="5724" y="-1768.39" font-family="Times,serif" font-size="14.00">enable_rna</text>
</g>
<!-- enable_rna&#45;&gt;run_dragen_alignment_step -->
<g id="edge22" class="edge">
<title>enable_rna&#45;&gt;run_dragen_alignment_step</title>
<path fill="none" stroke="black" d="M5707.92,-1753.35C5697.49,-1742.85 5683.07,-1730.07 5668,-1722.09 5131.75,-1438.47 4397.55,-1333.25 4120.71,-1302.15"/>
<polygon fill="black" stroke="black" points="4120.98,-1298.66 4110.65,-1301.03 4120.2,-1305.62 4120.98,-1298.66"/>
</g>
<!-- enable_rrna_filter -->
<g id="node15" class="node">
<title>enable_rrna_filter</title>
<polygon fill="#94ddf4" stroke="black" points="5515.5,-1753.59 5515.5,-1790.59 5658.5,-1790.59 5658.5,-1753.59 5515.5,-1753.59"/>
<text text-anchor="middle" x="5587" y="-1768.39" font-family="Times,serif" font-size="14.00">enable_rrna_filter</text>
</g>
<!-- enable_rrna_filter&#45;&gt;run_dragen_alignment_step -->
<g id="edge23" class="edge">
<title>enable_rrna_filter&#45;&gt;run_dragen_alignment_step</title>
<path fill="none" stroke="black" d="M5562.02,-1753.37C5546.7,-1743.13 5526.38,-1730.63 5507,-1722.09 5005.01,-1501.01 4358.86,-1359.83 4111.52,-1310.62"/>
<polygon fill="black" stroke="black" points="4111.95,-1307.14 4101.46,-1308.63 4110.59,-1314 4111.95,-1307.14"/>
</g>
<!-- enable_sort -->
<g id="node16" class="node">
<title>enable_sort</title>
<polygon fill="#94ddf4" stroke="black" points="5398.5,-1753.59 5398.5,-1790.59 5497.5,-1790.59 5497.5,-1753.59 5398.5,-1753.59"/>
<text text-anchor="middle" x="5448" y="-1768.39" font-family="Times,serif" font-size="14.00">enable_sort</text>
</g>
<!-- enable_sort&#45;&gt;run_dragen_alignment_step -->
<g id="edge24" class="edge">
<title>enable_sort&#45;&gt;run_dragen_alignment_step</title>
<path fill="none" stroke="black" d="M5430.5,-1753.41C5419.42,-1743.06 5404.32,-1730.42 5389,-1722.09 4950.99,-1484.01 4361.94,-1355.92 4119.89,-1310.46"/>
<polygon fill="black" stroke="black" points="4120.5,-1307.02 4110.03,-1308.62 4119.21,-1313.9 4120.5,-1307.02"/>
</g>
<!-- fastq_list -->
<g id="node17" class="node">
<title>fastq_list</title>
<polygon fill="#94ddf4" stroke="black" points="5298,-1753.59 5298,-1790.59 5380,-1790.59 5380,-1753.59 5298,-1753.59"/>
<text text-anchor="middle" x="5339" y="-1768.39" font-family="Times,serif" font-size="14.00">fastq_list</text>
</g>
<!-- fastq_list&#45;&gt;run_dragen_alignment_step -->
<g id="edge25" class="edge">
<title>fastq_list&#45;&gt;run_dragen_alignment_step</title>
<path fill="none" stroke="black" d="M5324.37,-1753.17C5315.15,-1742.86 5302.47,-1730.35 5289,-1722.09 4894.82,-1480.39 4348.42,-1355.32 4118.2,-1310.61"/>
<polygon fill="black" stroke="black" points="4118.62,-1307.13 4108.14,-1308.67 4117.3,-1314 4118.62,-1307.13"/>
</g>
<!-- fastq_list_rows -->
<g id="node18" class="node">
<title>fastq_list_rows</title>
<polygon fill="#94ddf4" stroke="black" points="5156.5,-1753.59 5156.5,-1790.59 5279.5,-1790.59 5279.5,-1753.59 5156.5,-1753.59"/>
<text text-anchor="middle" x="5218" y="-1768.39" font-family="Times,serif" font-size="14.00">fastq_list_rows</text>
</g>
<!-- fastq_list_rows&#45;&gt;run_dragen_alignment_step -->
<g id="edge26" class="edge">
<title>fastq_list_rows&#45;&gt;run_dragen_alignment_step</title>
<path fill="none" stroke="black" d="M5195.9,-1753.48C5182.56,-1743.41 5164.92,-1731.04 5148,-1722.09 4764.85,-1519.57 4265.04,-1365.05 4081.04,-1311.5"/>
<polygon fill="black" stroke="black" points="4081.78,-1308.07 4071.2,-1308.64 4079.83,-1314.79 4081.78,-1308.07"/>
</g>
<!-- gap_ext_pen -->
<g id="node19" class="node">
<title>gap_ext_pen</title>
<polygon fill="#94ddf4" stroke="black" points="5033.5,-1753.59 5033.5,-1790.59 5138.5,-1790.59 5138.5,-1753.59 5033.5,-1753.59"/>
<text text-anchor="middle" x="5086" y="-1768.39" font-family="Times,serif" font-size="14.00">gap_ext_pen</text>
</g>
<!-- gap_ext_pen&#45;&gt;run_dragen_alignment_step -->
<g id="edge27" class="edge">
<title>gap_ext_pen&#45;&gt;run_dragen_alignment_step</title>
<path fill="none" stroke="black" d="M5066.96,-1753.52C5055.41,-1743.46 5040.04,-1731.09 5025,-1722.09 4688.23,-1520.7 4240.07,-1365.7 4074.26,-1311.75"/>
<polygon fill="black" stroke="black" points="4075.28,-1308.41 4064.69,-1308.65 4073.13,-1315.06 4075.28,-1308.41"/>
</g>
<!-- gap_open_pen -->
<g id="node20" class="node">
<title>gap_open_pen</title>
<polygon fill="#94ddf4" stroke="black" points="4898.5,-1753.59 4898.5,-1790.59 5015.5,-1790.59 5015.5,-1753.59 4898.5,-1753.59"/>
<text text-anchor="middle" x="4957" y="-1768.39" font-family="Times,serif" font-size="14.00">gap_open_pen</text>
</g>
<!-- gap_open_pen&#45;&gt;run_dragen_alignment_step -->
<g id="edge28" class="edge">
<title>gap_open_pen&#45;&gt;run_dragen_alignment_step</title>
<path fill="none" stroke="black" d="M4935.04,-1753.51C4922.28,-1743.69 4905.67,-1731.55 4890,-1722.09 4588.94,-1540.31 4200.2,-1371.3 4061.23,-1312.78"/>
<polygon fill="black" stroke="black" points="4062.24,-1309.41 4051.66,-1308.76 4059.52,-1315.86 4062.24,-1309.41"/>
</g>
<!-- generate_md_tags -->
<g id="node21" class="node">
<title>generate_md_tags</title>
<polygon fill="#94ddf4" stroke="black" points="4733.5,-1753.59 4733.5,-1790.59 4880.5,-1790.59 4880.5,-1753.59 4733.5,-1753.59"/>
<text text-anchor="middle" x="4807" y="-1768.39" font-family="Times,serif" font-size="14.00">generate_md_tags</text>
</g>
<!-- generate_md_tags&#45;&gt;run_dragen_alignment_step -->
<g id="edge29" class="edge">
<title>generate_md_tags&#45;&gt;run_dragen_alignment_step</title>
<path fill="none" stroke="black" d="M4777.65,-1753.44C4655.2,-1679.78 4184.95,-1396.93 4047.16,-1314.05"/>
<polygon fill="black" stroke="black" points="4048.57,-1310.81 4038.19,-1308.65 4044.96,-1316.81 4048.57,-1310.81"/>
</g>
<!-- generate_sa_tags -->
<g id="node22" class="node">
<title>generate_sa_tags</title>
<polygon fill="#94ddf4" stroke="black" points="4575,-1753.59 4575,-1790.59 4715,-1790.59 4715,-1753.59 4575,-1753.59"/>
<text text-anchor="middle" x="4645" y="-1768.39" font-family="Times,serif" font-size="14.00">generate_sa_tags</text>
</g>
<!-- generate_sa_tags&#45;&gt;run_dragen_alignment_step -->
<g id="edge30" class="edge">
<title>generate_sa_tags&#45;&gt;run_dragen_alignment_step</title>
<path fill="none" stroke="black" d="M4621.61,-1753.44C4524.31,-1680 4151.48,-1398.63 4040.4,-1314.8"/>
<polygon fill="black" stroke="black" points="4042.36,-1311.88 4032.27,-1308.65 4038.14,-1317.47 4042.36,-1311.88"/>
</g>
<!-- generate_zs_tags -->
<g id="node23" class="node">
<title>generate_zs_tags</title>
<polygon fill="#94ddf4" stroke="black" points="4417,-1753.59 4417,-1790.59 4557,-1790.59 4557,-1753.59 4417,-1753.59"/>
<text text-anchor="middle" x="4487" y="-1768.39" font-family="Times,serif" font-size="14.00">generate_zs_tags</text>
</g>
<!-- generate_zs_tags&#45;&gt;run_dragen_alignment_step -->
<g id="edge31" class="edge">
<title>generate_zs_tags&#45;&gt;run_dragen_alignment_step</title>
<path fill="none" stroke="black" d="M4469.42,-1753.44C4396.58,-1680.3 4118.33,-1400.88 4033.62,-1315.81"/>
<polygon fill="black" stroke="black" points="4036.02,-1313.27 4026.49,-1308.65 4031.06,-1318.21 4036.02,-1313.27"/>
</g>
<!-- global -->
<g id="node24" class="node">
<title>global</title>
<polygon fill="#94ddf4" stroke="black" points="4339,-1753.59 4339,-1790.59 4399,-1790.59 4399,-1753.59 4339,-1753.59"/>
<text text-anchor="middle" x="4369" y="-1768.39" font-family="Times,serif" font-size="14.00">global</text>
</g>
<!-- global&#45;&gt;run_dragen_alignment_step -->
<g id="edge32" class="edge">
<title>global&#45;&gt;run_dragen_alignment_step</title>
<path fill="none" stroke="black" d="M4355.76,-1753.44C4301.12,-1680.59 4093.02,-1403.12 4028.32,-1316.85"/>
<polygon fill="black" stroke="black" points="4030.97,-1314.55 4022.17,-1308.65 4025.37,-1318.75 4030.97,-1314.55"/>
</g>
<!-- hard_clips -->
<g id="node25" class="node">
<title>hard_clips</title>
<polygon fill="#94ddf4" stroke="black" points="4232.5,-1753.59 4232.5,-1790.59 4321.5,-1790.59 4321.5,-1753.59 4232.5,-1753.59"/>
<text text-anchor="middle" x="4277" y="-1768.39" font-family="Times,serif" font-size="14.00">hard_clips</text>
</g>
<!-- hard_clips&#45;&gt;run_dragen_alignment_step -->
<g id="edge33" class="edge">
<title>hard_clips&#45;&gt;run_dragen_alignment_step</title>
<path fill="none" stroke="black" d="M4267.14,-1753.44C4226.59,-1680.81 4072.49,-1404.8 4023.82,-1317.64"/>
<polygon fill="black" stroke="black" points="4026.73,-1315.68 4018.8,-1308.65 4020.62,-1319.09 4026.73,-1315.68"/>
</g>
<!-- map_orientations -->
<g id="node26" class="node">
<title>map_orientations</title>
<polygon fill="#94ddf4" stroke="black" points="4074,-1753.59 4074,-1790.59 4214,-1790.59 4214,-1753.59 4074,-1753.59"/>
<text text-anchor="middle" x="4144" y="-1768.39" font-family="Times,serif" font-size="14.00">map_orientations</text>
</g>
<!-- map_orientations&#45;&gt;run_dragen_alignment_step -->
<g id="edge34" class="edge">
<title>map_orientations&#45;&gt;run_dragen_alignment_step</title>
<path fill="none" stroke="black" d="M4139.04,-1753.44C4118.67,-1681.03 4041.45,-1406.48 4016.69,-1318.44"/>
<polygon fill="black" stroke="black" points="4020.02,-1317.33 4013.94,-1308.65 4013.28,-1319.23 4020.02,-1317.33"/>
</g>
<!-- mapq_max -->
<g id="node27" class="node">
<title>mapq_max</title>
<polygon fill="#94ddf4" stroke="black" points="3962.5,-1753.59 3962.5,-1790.59 4055.5,-1790.59 4055.5,-1753.59 3962.5,-1753.59"/>
<text text-anchor="middle" x="4009" y="-1768.39" font-family="Times,serif" font-size="14.00">mapq_max</text>
</g>
<!-- mapq_max&#45;&gt;run_dragen_alignment_step -->
<g id="edge35" class="edge">
<title>mapq_max&#45;&gt;run_dragen_alignment_step</title>
<path fill="none" stroke="black" d="M4009,-1753.44C4009,-1681.11 4009,-1407.04 4009,-1318.71"/>
<polygon fill="black" stroke="black" points="4012.5,-1318.65 4009,-1308.65 4005.5,-1318.65 4012.5,-1318.65"/>
</g>
<!-- mapq_strict_js -->
<g id="node28" class="node">
<title>mapq_strict_js</title>
<polygon fill="#94ddf4" stroke="black" points="3824,-1753.59 3824,-1790.59 3944,-1790.59 3944,-1753.59 3824,-1753.59"/>
<text text-anchor="middle" x="3884" y="-1768.39" font-family="Times,serif" font-size="14.00">mapq_strict_js</text>
</g>
<!-- mapq_strict_js&#45;&gt;run_dragen_alignment_step -->
<g id="edge36" class="edge">
<title>mapq_strict_js&#45;&gt;run_dragen_alignment_step</title>
<path fill="none" stroke="black" d="M3888.6,-1753.44C3907.45,-1681.03 3978.95,-1406.48 4001.88,-1318.44"/>
<polygon fill="black" stroke="black" points="4005.29,-1319.21 4004.43,-1308.65 3998.52,-1317.45 4005.29,-1319.21"/>
</g>
<!-- match_n_score -->
<g id="node29" class="node">
<title>match_n_score</title>
<polygon fill="#94ddf4" stroke="black" points="3684,-1753.59 3684,-1790.59 3806,-1790.59 3806,-1753.59 3684,-1753.59"/>
<text text-anchor="middle" x="3745" y="-1768.39" font-family="Times,serif" font-size="14.00">match_n_score</text>
</g>
<!-- match_n_score&#45;&gt;run_dragen_alignment_step -->
<g id="edge37" class="edge">
<title>match_n_score&#45;&gt;run_dragen_alignment_step</title>
<path fill="none" stroke="black" d="M3754.71,-1753.44C3794.65,-1680.81 3946.46,-1404.8 3994.4,-1317.64"/>
<polygon fill="black" stroke="black" points="3997.59,-1319.1 3999.34,-1308.65 3991.46,-1315.73 3997.59,-1319.1"/>
</g>
<!-- match_score -->
<g id="node30" class="node">
<title>match_score</title>
<polygon fill="#94ddf4" stroke="black" points="3560,-1753.59 3560,-1790.59 3666,-1790.59 3666,-1753.59 3560,-1753.59"/>
<text text-anchor="middle" x="3613" y="-1768.39" font-family="Times,serif" font-size="14.00">match_score</text>
</g>
<!-- match_score&#45;&gt;run_dragen_alignment_step -->
<g id="edge38" class="edge">
<title>match_score&#45;&gt;run_dragen_alignment_step</title>
<path fill="none" stroke="black" d="M3627.56,-1753.44C3687.72,-1680.52 3917.04,-1402.56 3987.97,-1316.59"/>
<polygon fill="black" stroke="black" points="3990.85,-1318.59 3994.51,-1308.65 3985.45,-1314.14 3990.85,-1318.59"/>
</g>
<!-- max_intron_bases -->
<g id="node31" class="node">
<title>max_intron_bases</title>
<polygon fill="#94ddf4" stroke="black" points="3398,-1753.59 3398,-1790.59 3542,-1790.59 3542,-1753.59 3398,-1753.59"/>
<text text-anchor="middle" x="3470" y="-1768.39" font-family="Times,serif" font-size="14.00">max_intron_bases</text>
</g>
<!-- max_intron_bases&#45;&gt;run_dragen_alignment_step -->
<g id="edge39" class="edge">
<title>max_intron_bases&#45;&gt;run_dragen_alignment_step</title>
<path fill="none" stroke="black" d="M3489.82,-1753.44C3572.04,-1680.22 3886.35,-1400.32 3981.53,-1315.56"/>
<polygon fill="black" stroke="black" points="3984.14,-1317.92 3989.28,-1308.65 3979.49,-1312.69 3984.14,-1317.92"/>
</g>
<!-- max_rescues -->
<g id="node32" class="node">
<title>max_rescues</title>
<polygon fill="#94ddf4" stroke="black" points="3272,-1753.59 3272,-1790.59 3380,-1790.59 3380,-1753.59 3272,-1753.59"/>
<text text-anchor="middle" x="3326" y="-1768.39" font-family="Times,serif" font-size="14.00">max_rescues</text>
</g>
<!-- max_rescues&#45;&gt;run_dragen_alignment_step -->
<g id="edge40" class="edge">
<title>max_rescues&#45;&gt;run_dragen_alignment_step</title>
<path fill="none" stroke="black" d="M3347.94,-1753.57C3359.95,-1744.09 3375.16,-1732.28 3389,-1722.09 3608.13,-1560.89 3879.41,-1377.82 3974.29,-1314.27"/>
<polygon fill="black" stroke="black" points="3976.3,-1317.14 3982.66,-1308.67 3972.4,-1311.32 3976.3,-1317.14"/>
</g>
<!-- min_intron_bases -->
<g id="node33" class="node">
<title>min_intron_bases</title>
<polygon fill="#94ddf4" stroke="black" points="3112.5,-1753.59 3112.5,-1790.59 3253.5,-1790.59 3253.5,-1753.59 3112.5,-1753.59"/>
<text text-anchor="middle" x="3183" y="-1768.39" font-family="Times,serif" font-size="14.00">min_intron_bases</text>
</g>
<!-- min_intron_bases&#45;&gt;run_dragen_alignment_step -->
<g id="edge41" class="edge">
<title>min_intron_bases&#45;&gt;run_dragen_alignment_step</title>
<path fill="none" stroke="black" d="M3211.4,-1753.45C3226.64,-1744.05 3245.78,-1732.34 3263,-1722.09 3530.87,-1562.71 3856.97,-1377.21 3968.99,-1313.73"/>
<polygon fill="black" stroke="black" points="3970.95,-1316.64 3977.92,-1308.67 3967.5,-1310.55 3970.95,-1316.64"/>
</g>
<!-- min_score_coeff -->
<g id="node34" class="node">
<title>min_score_coeff</title>
<polygon fill="#94ddf4" stroke="black" points="2965.5,-1753.59 2965.5,-1790.59 3094.5,-1790.59 3094.5,-1753.59 2965.5,-1753.59"/>
<text text-anchor="middle" x="3030" y="-1768.39" font-family="Times,serif" font-size="14.00">min_score_coeff</text>
</g>
<!-- min_score_coeff&#45;&gt;run_dragen_alignment_step -->
<g id="edge42" class="edge">
<title>min_score_coeff&#45;&gt;run_dragen_alignment_step</title>
<path fill="none" stroke="black" d="M3054.79,-1753.41C3068.91,-1743.67 3087.1,-1731.65 3104,-1722.09 3418.3,-1544.36 3817.61,-1371.61 3957.67,-1312.52"/>
<polygon fill="black" stroke="black" points="3959.05,-1315.73 3966.91,-1308.62 3956.34,-1309.28 3959.05,-1315.73"/>
</g>
<!-- mismatch_pen -->
<g id="node35" class="node">
<title>mismatch_pen</title>
<polygon fill="#94ddf4" stroke="black" points="2828.5,-1753.59 2828.5,-1790.59 2947.5,-1790.59 2947.5,-1753.59 2828.5,-1753.59"/>
<text text-anchor="middle" x="2888" y="-1768.39" font-family="Times,serif" font-size="14.00">mismatch_pen</text>
</g>
<!-- mismatch_pen&#45;&gt;run_dragen_alignment_step -->
<g id="edge43" class="edge">
<title>mismatch_pen&#45;&gt;run_dragen_alignment_step</title>
<path fill="none" stroke="black" d="M2910.14,-1753.4C2923.27,-1743.41 2940.52,-1731.16 2957,-1722.09 3312.6,-1526.37 3775.77,-1366.96 3944.2,-1311.84"/>
<polygon fill="black" stroke="black" points="3945.49,-1315.1 3953.91,-1308.67 3943.32,-1308.44 3945.49,-1315.1"/>
</g>
<!-- no_unclip_score -->
<g id="node36" class="node">
<title>no_unclip_score</title>
<polygon fill="#94ddf4" stroke="black" points="2681.5,-1753.59 2681.5,-1790.59 2810.5,-1790.59 2810.5,-1753.59 2681.5,-1753.59"/>
<text text-anchor="middle" x="2746" y="-1768.39" font-family="Times,serif" font-size="14.00">no_unclip_score</text>
</g>
<!-- no_unclip_score&#45;&gt;run_dragen_alignment_step -->
<g id="edge44" class="edge">
<title>no_unclip_score&#45;&gt;run_dragen_alignment_step</title>
<path fill="none" stroke="black" d="M2769.46,-1753.48C2783.59,-1743.4 2802.25,-1731.03 2820,-1722.09 3222.41,-1519.54 3743.57,-1364.81 3934.62,-1311.36"/>
<polygon fill="black" stroke="black" points="3935.59,-1314.72 3944.28,-1308.66 3933.71,-1307.98 3935.59,-1314.72"/>
</g>
<!-- no_unpaired -->
<g id="node37" class="node">
<title>no_unpaired</title>
<polygon fill="#94ddf4" stroke="black" points="2559,-1753.59 2559,-1790.59 2663,-1790.59 2663,-1753.59 2559,-1753.59"/>
<text text-anchor="middle" x="2611" y="-1768.39" font-family="Times,serif" font-size="14.00">no_unpaired</text>
</g>
<!-- no_unpaired&#45;&gt;run_dragen_alignment_step -->
<g id="edge45" class="edge">
<title>no_unpaired&#45;&gt;run_dragen_alignment_step</title>
<path fill="none" stroke="black" d="M2629.57,-1753.51C2641.28,-1743.19 2657.15,-1730.56 2673,-1722.09 3103.83,-1492.05 3678.82,-1358.06 3908.27,-1310.7"/>
<polygon fill="black" stroke="black" points="3909.18,-1314.09 3918.27,-1308.65 3907.77,-1307.23 3909.18,-1314.09"/>
</g>
<!-- output_directory -->
<g id="node38" class="node">
<title>output_directory</title>
<polygon fill="#94ddf4" stroke="black" points="2405,-1753.59 2405,-1790.59 2541,-1790.59 2541,-1753.59 2405,-1753.59"/>
<text text-anchor="middle" x="2473" y="-1768.39" font-family="Times,serif" font-size="14.00">output_directory</text>
</g>
<!-- output_directory&#45;&gt;run_dragen_alignment_step -->
<g id="edge46" class="edge">
<title>output_directory&#45;&gt;run_dragen_alignment_step</title>
<path fill="none" stroke="black" d="M2496.97,-1753.37C2511.69,-1743.13 2531.25,-1730.62 2550,-1722.09 3036.98,-1500.53 3666.8,-1359.74 3908.5,-1310.63"/>
<polygon fill="black" stroke="black" points="3909.22,-1314.05 3918.32,-1308.64 3907.83,-1307.19 3909.22,-1314.05"/>
</g>
<!-- pe_max_penalty -->
<g id="node39" class="node">
<title>pe_max_penalty</title>
<polygon fill="#94ddf4" stroke="black" points="2255.5,-1753.59 2255.5,-1790.59 2386.5,-1790.59 2386.5,-1753.59 2255.5,-1753.59"/>
<text text-anchor="middle" x="2321" y="-1768.39" font-family="Times,serif" font-size="14.00">pe_max_penalty</text>
</g>
<!-- pe_max_penalty&#45;&gt;run_dragen_alignment_step -->
<g id="edge47" class="edge">
<title>pe_max_penalty&#45;&gt;run_dragen_alignment_step</title>
<path fill="none" stroke="black" d="M2343.87,-1753.4C2358.19,-1743.04 2377.4,-1730.4 2396,-1722.09 2931.7,-1482.92 3628.58,-1352.53 3896.92,-1308.41"/>
<polygon fill="black" stroke="black" points="3897.76,-1311.82 3907.06,-1306.75 3896.63,-1304.91 3897.76,-1311.82"/>
</g>
<!-- pe_orientation -->
<g id="node40" class="node">
<title>pe_orientation</title>
<polygon fill="#94ddf4" stroke="black" points="2118.5,-1753.59 2118.5,-1790.59 2237.5,-1790.59 2237.5,-1753.59 2118.5,-1753.59"/>
<text text-anchor="middle" x="2178" y="-1768.39" font-family="Times,serif" font-size="14.00">pe_orientation</text>
</g>
<!-- pe_orientation&#45;&gt;run_dragen_alignment_step -->
<g id="edge48" class="edge">
<title>pe_orientation&#45;&gt;run_dragen_alignment_step</title>
<path fill="none" stroke="black" d="M2198.47,-1753.42C2211.57,-1742.93 2229.36,-1730.16 2247,-1722.09 2834.36,-1453.64 3611.35,-1338.71 3897.27,-1303.61"/>
<polygon fill="black" stroke="black" points="3897.73,-1307.08 3907.23,-1302.39 3896.88,-1300.13 3897.73,-1307.08"/>
</g>
<!-- preserve_map_align_order -->
<g id="node41" class="node">
<title>preserve_map_align_order</title>
<polygon fill="#94ddf4" stroke="black" points="1895.5,-1753.59 1895.5,-1790.59 2100.5,-1790.59 2100.5,-1753.59 1895.5,-1753.59"/>
<text text-anchor="middle" x="1998" y="-1768.39" font-family="Times,serif" font-size="14.00">preserve_map_align_order</text>
</g>
<!-- preserve_map_align_order&#45;&gt;run_dragen_alignment_step -->
<g id="edge49" class="edge">
<title>preserve_map_align_order&#45;&gt;run_dragen_alignment_step</title>
<path fill="none" stroke="black" d="M2033.64,-1753.43C2055.32,-1743.22 2083.79,-1730.72 2110,-1722.09 2772.86,-1504.05 3601.32,-1357.43 3897.44,-1308.8"/>
<polygon fill="black" stroke="black" points="3898.02,-1312.26 3907.32,-1307.19 3896.88,-1305.35 3898.02,-1312.26"/>
</g>
<!-- reference_tar -->
<g id="node42" class="node">
<title>reference_tar</title>
<polygon fill="#94ddf4" stroke="black" points="1764.5,-1753.59 1764.5,-1790.59 1877.5,-1790.59 1877.5,-1753.59 1764.5,-1753.59"/>
<text text-anchor="middle" x="1821" y="-1768.39" font-family="Times,serif" font-size="14.00">reference_tar</text>
</g>
<!-- reference_tar&#45;&gt;run_dragen_alignment_step -->
<g id="edge50" class="edge">
<title>reference_tar&#45;&gt;run_dragen_alignment_step</title>
<path fill="none" stroke="black" d="M1840.06,-1753.38C1852.53,-1742.75 1869.67,-1729.83 1887,-1722.09 2607.25,-1400.87 3572.04,-1316.68 3896.92,-1296.76"/>
<polygon fill="black" stroke="black" points="3897.5,-1300.23 3907.27,-1296.13 3897.08,-1293.24 3897.5,-1300.23"/>
</g>
<!-- remove_duplicates -->
<g id="node43" class="node">
<title>remove_duplicates</title>
<polygon fill="#94ddf4" stroke="black" points="1596,-1753.59 1596,-1790.59 1746,-1790.59 1746,-1753.59 1596,-1753.59"/>
<text text-anchor="middle" x="1671" y="-1768.39" font-family="Times,serif" font-size="14.00">remove_duplicates</text>
</g>
<!-- remove_duplicates&#45;&gt;run_dragen_alignment_step -->
<g id="edge51" class="edge">
<title>remove_duplicates&#45;&gt;run_dragen_alignment_step</title>
<path fill="none" stroke="black" d="M1696.31,-1753.5C1712.65,-1742.91 1734.77,-1729.99 1756,-1722.09 2543.15,-1429.42 3562.26,-1326.47 3897.05,-1299.27"/>
<polygon fill="black" stroke="black" points="3897.55,-1302.74 3907.24,-1298.45 3896.99,-1295.76 3897.55,-1302.74"/>
</g>
<!-- rescue_sigmas -->
<g id="node44" class="node">
<title>rescue_sigmas</title>
<polygon fill="#94ddf4" stroke="black" points="1456.5,-1753.59 1456.5,-1790.59 1577.5,-1790.59 1577.5,-1753.59 1456.5,-1753.59"/>
<text text-anchor="middle" x="1517" y="-1768.39" font-family="Times,serif" font-size="14.00">rescue_sigmas</text>
</g>
<!-- rescue_sigmas&#45;&gt;run_dragen_alignment_step -->
<g id="edge52" class="edge">
<title>rescue_sigmas&#45;&gt;run_dragen_alignment_step</title>
<path fill="none" stroke="black" d="M1537.03,-1753.51C1550.32,-1742.78 1568.64,-1729.71 1587,-1722.09 2426.57,-1373.63 3544.25,-1306.67 3897.27,-1294"/>
<polygon fill="black" stroke="black" points="3897.62,-1297.49 3907.49,-1293.64 3897.37,-1290.5 3897.62,-1297.49"/>
</g>
<!-- sec_aligns -->
<g id="node45" class="node">
<title>sec_aligns</title>
<polygon fill="#94ddf4" stroke="black" points="1349.5,-1753.59 1349.5,-1790.59 1438.5,-1790.59 1438.5,-1753.59 1349.5,-1753.59"/>
<text text-anchor="middle" x="1394" y="-1768.39" font-family="Times,serif" font-size="14.00">sec_aligns</text>
</g>
<!-- sec_aligns&#45;&gt;run_dragen_alignment_step -->
<g id="edge53" class="edge">
<title>sec_aligns&#45;&gt;run_dragen_alignment_step</title>
<path fill="none" stroke="black" d="M1408.7,-1753.36C1418.66,-1742.58 1432.74,-1729.5 1448,-1722.09 1893.98,-1505.67 3463.34,-1343.05 3897.15,-1301.48"/>
<polygon fill="black" stroke="black" points="3897.56,-1304.96 3907.19,-1300.52 3896.9,-1297.99 3897.56,-1304.96"/>
</g>
<!-- sec_aligns_hard -->
<g id="node46" class="node">
<title>sec_aligns_hard</title>
<polygon fill="#94ddf4" stroke="black" points="1202.5,-1753.59 1202.5,-1790.59 1331.5,-1790.59 1331.5,-1753.59 1202.5,-1753.59"/>
<text text-anchor="middle" x="1267" y="-1768.39" font-family="Times,serif" font-size="14.00">sec_aligns_hard</text>
</g>
<!-- sec_aligns_hard&#45;&gt;run_dragen_alignment_step -->
<g id="edge54" class="edge">
<title>sec_aligns_hard&#45;&gt;run_dragen_alignment_step</title>
<path fill="none" stroke="black" d="M1288.3,-1753.44C1302.4,-1742.68 1321.77,-1729.61 1341,-1722.09 2279.95,-1355.19 3522.11,-1300.56 3897.16,-1292.48"/>
<polygon fill="black" stroke="black" points="3897.27,-1295.98 3907.19,-1292.27 3897.12,-1288.98 3897.27,-1295.98"/>
</g>
<!-- sec_phred_delta -->
<g id="node47" class="node">
<title>sec_phred_delta</title>
<polygon fill="#94ddf4" stroke="black" points="1053.5,-1753.59 1053.5,-1790.59 1184.5,-1790.59 1184.5,-1753.59 1053.5,-1753.59"/>
<text text-anchor="middle" x="1119" y="-1768.39" font-family="Times,serif" font-size="14.00">sec_phred_delta</text>
</g>
<!-- sec_phred_delta&#45;&gt;run_dragen_alignment_step -->
<g id="edge55" class="edge">
<title>sec_phred_delta&#45;&gt;run_dragen_alignment_step</title>
<path fill="none" stroke="black" d="M1140.6,-1753.39C1154.9,-1742.62 1174.53,-1729.54 1194,-1722.09 2191.27,-1340.65 3509.25,-1296.05 3897.14,-1291.43"/>
<polygon fill="black" stroke="black" points="3897.28,-1294.93 3907.24,-1291.32 3897.2,-1287.93 3897.28,-1294.93"/>
</g>
<!-- sec_score_delta -->
<g id="node48" class="node">
<title>sec_score_delta</title>
<polygon fill="#94ddf4" stroke="black" points="907,-1753.59 907,-1790.59 1035,-1790.59 1035,-1753.59 907,-1753.59"/>
<text text-anchor="middle" x="971" y="-1768.39" font-family="Times,serif" font-size="14.00">sec_score_delta</text>
</g>
<!-- sec_score_delta&#45;&gt;run_dragen_alignment_step -->
<g id="edge56" class="edge">
<title>sec_score_delta&#45;&gt;run_dragen_alignment_step</title>
<path fill="none" stroke="black" d="M991.94,-1753.57C1006.05,-1742.73 1025.57,-1729.51 1045,-1722.09 1585.12,-1515.93 3423.14,-1342.74 3896.88,-1300.79"/>
<polygon fill="black" stroke="black" points="3897.49,-1304.25 3907.15,-1299.88 3896.88,-1297.27 3897.49,-1304.25"/>
</g>
<!-- seed_density -->
<g id="node49" class="node">
<title>seed_density</title>
<polygon fill="#94ddf4" stroke="black" points="779.5,-1753.59 779.5,-1790.59 888.5,-1790.59 888.5,-1753.59 779.5,-1753.59"/>
<text text-anchor="middle" x="834" y="-1768.39" font-family="Times,serif" font-size="14.00">seed_density</text>
</g>
<!-- seed_density&#45;&gt;run_dragen_alignment_step -->
<g id="edge57" class="edge">
<title>seed_density&#45;&gt;run_dragen_alignment_step</title>
<path fill="none" stroke="black" d="M851.69,-1753.48C863.72,-1742.6 880.57,-1729.37 898,-1722.09 1459.74,-1487.54 3408.21,-1334.27 3897.08,-1298.92"/>
<polygon fill="black" stroke="black" points="3897.59,-1302.39 3907.31,-1298.18 3897.08,-1295.41 3897.59,-1302.39"/>
</g>
<!-- supp_aligns -->
<g id="node50" class="node">
<title>supp_aligns</title>
<polygon fill="#94ddf4" stroke="black" points="660.5,-1753.59 660.5,-1790.59 761.5,-1790.59 761.5,-1753.59 660.5,-1753.59"/>
<text text-anchor="middle" x="711" y="-1768.39" font-family="Times,serif" font-size="14.00">supp_aligns</text>
</g>
<!-- supp_aligns&#45;&gt;run_dragen_alignment_step -->
<g id="edge58" class="edge">
<title>supp_aligns&#45;&gt;run_dragen_alignment_step</title>
<path fill="none" stroke="black" d="M727.37,-1753.44C738.56,-1742.54 754.34,-1729.31 771,-1722.09 1353.94,-1469.72 3396.19,-1329 3897.33,-1297.78"/>
<polygon fill="black" stroke="black" points="3897.69,-1301.26 3907.46,-1297.15 3897.26,-1294.27 3897.69,-1301.26"/>
</g>
<!-- supp_as_sec -->
<g id="node51" class="node">
<title>supp_as_sec</title>
<polygon fill="#94ddf4" stroke="black" points="538,-1753.59 538,-1790.59 642,-1790.59 642,-1753.59 538,-1753.59"/>
<text text-anchor="middle" x="590" y="-1768.39" font-family="Times,serif" font-size="14.00">supp_as_sec</text>
</g>
<!-- supp_as_sec&#45;&gt;run_dragen_alignment_step -->
<g id="edge59" class="edge">
<title>supp_as_sec&#45;&gt;run_dragen_alignment_step</title>
<path fill="none" stroke="black" d="M607.02,-1753.42C618.62,-1742.51 634.93,-1729.28 652,-1722.09 1260.15,-1466.22 3384.67,-1327.6 3897.14,-1297.42"/>
<polygon fill="black" stroke="black" points="3897.35,-1300.91 3907.13,-1296.83 3896.94,-1293.92 3897.35,-1300.91"/>
</g>
<!-- supp_min_score_adj -->
<g id="node52" class="node">
<title>supp_min_score_adj</title>
<polygon fill="#94ddf4" stroke="black" points="362,-1753.59 362,-1790.59 520,-1790.59 520,-1753.59 362,-1753.59"/>
<text text-anchor="middle" x="441" y="-1768.39" font-family="Times,serif" font-size="14.00">supp_min_score_adj</text>
</g>
<!-- supp_min_score_adj&#45;&gt;run_dragen_alignment_step -->
<g id="edge60" class="edge">
<title>supp_min_score_adj&#45;&gt;run_dragen_alignment_step</title>
<path fill="none" stroke="black" d="M466.35,-1753.51C483.31,-1742.65 506.56,-1729.42 529,-1722.09 1180.07,-1509.48 3375.03,-1337.66 3896.96,-1299.17"/>
<polygon fill="black" stroke="black" points="3897.41,-1302.64 3907.13,-1298.42 3896.9,-1295.66 3897.41,-1302.64"/>
</g>
<!-- unclip_score -->
<g id="node53" class="node">
<title>unclip_score</title>
<polygon fill="#94ddf4" stroke="black" points="238.5,-1753.59 238.5,-1790.59 343.5,-1790.59 343.5,-1753.59 238.5,-1753.59"/>
<text text-anchor="middle" x="291" y="-1768.39" font-family="Times,serif" font-size="14.00">unclip_score</text>
</g>
<!-- unclip_score&#45;&gt;run_dragen_alignment_step -->
<g id="edge61" class="edge">
<title>unclip_score&#45;&gt;run_dragen_alignment_step</title>
<path fill="none" stroke="black" d="M307.99,-1753.36C319.58,-1742.43 335.89,-1729.19 353,-1722.09 1019.92,-1445.55 3357.28,-1321.43 3897.14,-1296.09"/>
<polygon fill="black" stroke="black" points="3897.44,-1299.58 3907.27,-1295.62 3897.11,-1292.59 3897.44,-1299.58"/>
</g>
<!-- unpaired_pen -->
<g id="node54" class="node">
<title>unpaired_pen</title>
<polygon fill="#94ddf4" stroke="black" points="107.5,-1753.59 107.5,-1790.59 220.5,-1790.59 220.5,-1753.59 107.5,-1753.59"/>
<text text-anchor="middle" x="164" y="-1768.39" font-family="Times,serif" font-size="14.00">unpaired_pen</text>
</g>
<!-- unpaired_pen&#45;&gt;run_dragen_alignment_step -->
<g id="edge62" class="edge">
<title>unpaired_pen&#45;&gt;run_dragen_alignment_step</title>
<path fill="none" stroke="black" d="M182.01,-1753.59C194.45,-1742.61 211.95,-1729.22 230,-1722.09 925.14,-1447.59 3345.69,-1321.55 3896.76,-1296.05"/>
<polygon fill="black" stroke="black" points="3897.26,-1299.53 3907.09,-1295.57 3896.94,-1292.54 3897.26,-1299.53"/>
</g>
<!-- verbose -->
<g id="node55" class="node">
<title>verbose</title>
<polygon fill="#94ddf4" stroke="black" points="16.5,-1753.59 16.5,-1790.59 89.5,-1790.59 89.5,-1753.59 16.5,-1753.59"/>
<text text-anchor="middle" x="53" y="-1768.39" font-family="Times,serif" font-size="14.00">verbose</text>
</g>
<!-- verbose&#45;&gt;run_dragen_alignment_step -->
<g id="edge63" class="edge">
<title>verbose&#45;&gt;run_dragen_alignment_step</title>
<path fill="none" stroke="black" d="M64.16,-1753.57C72.16,-1742.58 83.99,-1729.19 98,-1722.09 789.98,-1371.6 3332.16,-1303.78 3897.22,-1292.93"/>
<polygon fill="black" stroke="black" points="3897.47,-1296.43 3907.41,-1292.74 3897.34,-1289.43 3897.47,-1296.43"/>
</g>
<!-- dragen_alignment_output_directory -->
<g id="node56" class="node">
<title>dragen_alignment_output_directory</title>
<polygon fill="#94ddf4" stroke="black" points="3873,-344.59 3873,-381.59 4145,-381.59 4145,-344.59 3873,-344.59"/>
<text text-anchor="middle" x="4009" y="-359.39" font-family="Times,serif" font-size="14.00">dragen_alignment_output_directory</text>
</g>
<!-- dragen_bam_out -->
<g id="node57" class="node">
<title>dragen_bam_out</title>
<polygon fill="#94ddf4" stroke="black" points="4163,-344.59 4163,-381.59 4297,-381.59 4297,-344.59 4163,-344.59"/>
<text text-anchor="middle" x="4230" y="-359.39" font-family="Times,serif" font-size="14.00">dragen_bam_out</text>
</g>
<!-- multiqc_output_directory -->
<g id="node58" class="node">
<title>multiqc_output_directory</title>
<polygon fill="#94ddf4" stroke="black" points="4315.5,-344.59 4315.5,-381.59 4512.5,-381.59 4512.5,-344.59 4315.5,-344.59"/>
<text text-anchor="middle" x="4414" y="-359.39" font-family="Times,serif" font-size="14.00">multiqc_output_directory</text>
</g>
<!-- run_dragen_alignment_step&#45;&gt;dragen_alignment_output_directory -->
<g id="edge2" class="edge">
<title>run_dragen_alignment_step&#45;&gt;dragen_alignment_output_directory</title>
<path fill="none" stroke="black" d="M4009,-1271.44C4009,-1158.12 4009,-533.12 4009,-392.29"/>
<polygon fill="black" stroke="black" points="4012.5,-391.93 4009,-381.93 4005.5,-391.93 4012.5,-391.93"/>
</g>
<!-- run_dragen_alignment_step&#45;&gt;dragen_bam_out -->
<g id="edge3" class="edge">
<title>run_dragen_alignment_step&#45;&gt;dragen_bam_out</title>
<path fill="none" stroke="black" d="M4013.22,-1271.44C4040.32,-1158.01 4189.92,-531.87 4223.36,-391.87"/>
<polygon fill="black" stroke="black" points="4226.82,-392.47 4225.74,-381.93 4220.01,-390.84 4226.82,-392.47"/>
</g>
<!-- run_dragen_alignment_step&#45;&gt;dragen_qc_step -->
<g id="edge1" class="edge">
<title>run_dragen_alignment_step&#45;&gt;dragen_qc_step</title>
<path fill="none" stroke="black" d="M4110.88,-1276.19C4643.65,-1208.74 7102.74,-897.4 7578.26,-837.19"/>
<polygon fill="black" stroke="black" points="7578.98,-840.63 7588.46,-835.9 7578.1,-833.68 7578.98,-840.63"/>
</g>
<!-- dragen_qc_step&#45;&gt;multiqc_output_directory -->
<g id="edge4" class="edge">
<title>dragen_qc_step&#45;&gt;multiqc_output_directory</title>
<path fill="none" stroke="black" d="M7588.37,-815.2C7173.75,-756.28 5031.09,-451.79 4522.42,-379.5"/>
<polygon fill="black" stroke="black" points="4522.9,-376.03 4512.51,-378.09 4521.91,-382.97 4522.9,-376.03"/>
</g>
<!-- create_dummy_file_step -->
<g id="node61" class="node">
<title>create_dummy_file_step</title>
<polygon fill="lightgoldenrodyellow" stroke="black" points="7704.5,-1271.59 7704.5,-1308.59 7965.5,-1308.59 7965.5,-1271.59 7704.5,-1271.59"/>
<text text-anchor="middle" x="7835" y="-1286.39" font-family="Times,serif" font-size="14.00">custom&#45;create&#45;dummy&#45;file v(1.0.0)</text>
</g>
<!-- create_dummy_file_step&#45;&gt;dragen_qc_step -->
<g id="edge5" class="edge">
<title>create_dummy_file_step&#45;&gt;dragen_qc_step</title>
<path fill="none" stroke="black" d="M7828.28,-1271.55C7801.34,-1201.22 7701.05,-939.47 7668.37,-854.16"/>
<polygon fill="black" stroke="black" points="7671.58,-852.74 7664.73,-844.66 7665.04,-855.25 7671.58,-852.74"/>
</g>
<!-- \n -->
<g id="node62" class="node">
<title>\n</title>
<ellipse fill="none" stroke="black" cx="7773" cy="-1772.09" rx="27" ry="18"/>
</g>
</g>
</svg>
