<?xml version="1.0" encoding="UTF-8" standalone="no"?>
<!DOCTYPE svg PUBLIC "-//W3C//DTD SVG 1.1//EN"
 "http://www.w3.org/Graphics/SVG/1.1/DTD/svg11.dtd">
<!-- Generated by graphviz version 2.43.0 (0)
 -->
<!-- Title: G Pages: 1 -->
<svg width="8703pt" height="2234pt"
 viewBox="0.00 0.00 8702.50 2233.66" xmlns="http://www.w3.org/2000/svg" xmlns:xlink="http://www.w3.org/1999/xlink">
<g id="graph0" class="graph" transform="scale(1 1) rotate(0) translate(4 2229.66)">
<title>G</title>
<polygon fill="#eeeeee" stroke="transparent" points="-4,4 -4,-2229.66 8698.5,-2229.66 8698.5,4 -4,4"/>
<g id="clust1" class="cluster">
<title>cluster_inputs</title>
<polygon fill="#eeeeee" stroke="black" stroke-dasharray="5,2" points="229.5,-1630.26 229.5,-2168.96 8686.5,-2168.96 8686.5,-1630.26 229.5,-1630.26"/>
<text text-anchor="middle" x="8620" y="-1638.06" font-family="Times,serif" font-size="14.00">Workflow Inputs</text>
</g>
<g id="clust2" class="cluster">
<title>cluster_outputs</title>
<polygon fill="#eeeeee" stroke="black" stroke-dasharray="5,2" points="3833.5,-56.7 3833.5,-595.4 4624.5,-595.4 4624.5,-56.7 3833.5,-56.7"/>
<text text-anchor="middle" x="4552" y="-64.5" font-family="Times,serif" font-size="14.00">Workflow Outputs</text>
</g>
<!-- create_dummy_file_step -->
<g id="node1" class="node">
<title>create_dummy_file_step</title>
<polygon fill="lightgoldenrodyellow" stroke="black" points="0,-1424.7 0,-1460.7 261,-1460.7 261,-1424.7 0,-1424.7"/>
<text text-anchor="middle" x="130.5" y="-1439" font-family="Times,serif" font-size="14.00">custom&#45;create&#45;dummy&#45;file v(1.0.0)</text>
</g>
<!-- dragen_qc_step -->
<g id="node2" class="node">
<title>dragen_qc_step</title>
<polygon fill="lightgoldenrodyellow" stroke="black" points="238,-906.7 238,-942.7 377,-942.7 377,-906.7 238,-906.7"/>
<text text-anchor="middle" x="307.5" y="-921" font-family="Times,serif" font-size="14.00">multiqc v(1.14.0)</text>
</g>
<!-- create_dummy_file_step&#45;&gt;dragen_qc_step -->
<g id="edge1" class="edge">
<title>create_dummy_file_step&#45;&gt;dragen_qc_step</title>
<path fill="none" stroke="black" d="M136.39,-1424.54C162.35,-1348.86 266.68,-1044.71 298.34,-952.4"/>
<polygon fill="black" stroke="black" points="301.65,-953.53 301.59,-942.94 295.03,-951.26 301.65,-953.53"/>
</g>
<!-- multiqc_output_directory -->
<g id="node56" class="node">
<title>multiqc_output_directory</title>
<polygon fill="#94ddf4" stroke="black" points="3842,-389.7 3842,-425.7 4039,-425.7 4039,-389.7 3842,-389.7"/>
<text text-anchor="middle" x="3940.5" y="-404" font-family="Times,serif" font-size="14.00">multiqc_output_directory</text>
</g>
<!-- dragen_qc_step&#45;&gt;multiqc_output_directory -->
<g id="edge58" class="edge">
<title>dragen_qc_step&#45;&gt;multiqc_output_directory</title>
<path fill="none" stroke="black" d="M377.23,-913.82C823.9,-850.5 3282.49,-501.98 3831.68,-424.13"/>
<polygon fill="black" stroke="black" points="3832.56,-427.54 3841.97,-422.67 3831.58,-420.61 3832.56,-427.54"/>
</g>
<!-- run_dragen_germline_step -->
<g id="node3" class="node">
<title>run_dragen_germline_step</title>
<polygon fill="lightgoldenrodyellow" stroke="black" points="4307.5,-1424.7 4307.5,-1460.7 4501.5,-1460.7 4501.5,-1424.7 4307.5,-1424.7"/>
<text text-anchor="middle" x="4404.5" y="-1439" font-family="Times,serif" font-size="14.00">dragen&#45;germline v(4.0.3)</text>
</g>
<!-- run_dragen_germline_step&#45;&gt;dragen_qc_step -->
<g id="edge2" class="edge">
<title>run_dragen_germline_step&#45;&gt;dragen_qc_step</title>
<path fill="none" stroke="black" d="M4307.27,-1429.46C3743.45,-1358.45 901.16,-1000.47 387.23,-935.75"/>
<polygon fill="black" stroke="black" points="387.66,-932.27 377.3,-934.5 386.79,-939.22 387.66,-932.27"/>
</g>
<!-- dragen_bam_out -->
<g id="node53" class="node">
<title>dragen_bam_out</title>
<polygon fill="#94ddf4" stroke="black" points="4057.5,-389.7 4057.5,-425.7 4191.5,-425.7 4191.5,-389.7 4057.5,-389.7"/>
<text text-anchor="middle" x="4124.5" y="-404" font-family="Times,serif" font-size="14.00">dragen_bam_out</text>
</g>
<!-- run_dragen_germline_step&#45;&gt;dragen_bam_out -->
<g id="edge55" class="edge">
<title>run_dragen_germline_step&#45;&gt;dragen_bam_out</title>
<path fill="none" stroke="black" d="M4399.87,-1424.64C4367.27,-1304.36 4172.23,-584.8 4131.82,-435.73"/>
<polygon fill="black" stroke="black" points="4135.18,-434.73 4129.19,-426 4128.43,-436.56 4135.18,-434.73"/>
</g>
<!-- dragen_germline_output_directory -->
<g id="node54" class="node">
<title>dragen_germline_output_directory</title>
<polygon fill="#94ddf4" stroke="black" points="4210,-389.7 4210,-425.7 4473,-425.7 4473,-389.7 4210,-389.7"/>
<text text-anchor="middle" x="4341.5" y="-404" font-family="Times,serif" font-size="14.00">dragen_germline_output_directory</text>
</g>
<!-- run_dragen_germline_step&#45;&gt;dragen_germline_output_directory -->
<g id="edge56" class="edge">
<title>run_dragen_germline_step&#45;&gt;dragen_germline_output_directory</title>
<path fill="none" stroke="black" d="M4403.46,-1424.64C4396.13,-1304.48 4352.33,-586.24 4343.18,-436.18"/>
<polygon fill="black" stroke="black" points="4346.66,-435.77 4342.55,-426 4339.67,-436.19 4346.66,-435.77"/>
</g>
<!-- dragen_vcf_out -->
<g id="node55" class="node">
<title>dragen_vcf_out</title>
<polygon fill="#94ddf4" stroke="black" points="4491,-389.7 4491,-425.7 4616,-425.7 4616,-389.7 4491,-389.7"/>
<text text-anchor="middle" x="4553.5" y="-404" font-family="Times,serif" font-size="14.00">dragen_vcf_out</text>
</g>
<!-- run_dragen_germline_step&#45;&gt;dragen_vcf_out -->
<g id="edge57" class="edge">
<title>run_dragen_germline_step&#45;&gt;dragen_vcf_out</title>
<path fill="none" stroke="black" d="M4406.96,-1424.64C4424.29,-1304.48 4527.89,-586.24 4549.54,-436.18"/>
<polygon fill="black" stroke="black" points="4553.04,-436.39 4551.01,-426 4546.11,-435.39 4553.04,-436.39"/>
</g>
<!-- output_file_prefix -->
<g id="node4" class="node">
<title>output_file_prefix</title>
<polygon fill="#94ddf4" stroke="black" points="237.5,-1962.7 237.5,-1998.7 377.5,-1998.7 377.5,-1962.7 237.5,-1962.7"/>
<text text-anchor="middle" x="307.5" y="-1977" font-family="Times,serif" font-size="14.00">output_file_prefix</text>
</g>
<!-- output_file_prefix&#45;&gt;dragen_qc_step -->
<g id="edge3" class="edge">
<title>output_file_prefix&#45;&gt;dragen_qc_step</title>
<path fill="none" stroke="black" d="M303.7,-1962.29C291.08,-1839.56 290.77,-1105.29 302.79,-953.25"/>
<polygon fill="black" stroke="black" points="306.31,-953.22 303.72,-942.95 299.34,-952.59 306.31,-953.22"/>
</g>
<!-- output_file_prefix&#45;&gt;dragen_qc_step -->
<g id="edge4" class="edge">
<title>output_file_prefix&#45;&gt;dragen_qc_step</title>
<path fill="none" stroke="black" d="M307.5,-1962.29C307.5,-1839.56 307.5,-1105.29 307.5,-953.25"/>
<polygon fill="black" stroke="black" points="311,-952.95 307.5,-942.95 304,-952.95 311,-952.95"/>
</g>
<!-- output_file_prefix&#45;&gt;dragen_qc_step -->
<g id="edge5" class="edge">
<title>output_file_prefix&#45;&gt;dragen_qc_step</title>
<path fill="none" stroke="black" d="M311.3,-1962.29C323.92,-1839.56 324.23,-1105.29 312.21,-953.25"/>
<polygon fill="black" stroke="black" points="315.66,-952.59 311.28,-942.95 308.69,-953.22 315.66,-952.59"/>
</g>
<!-- output_file_prefix&#45;&gt;run_dragen_germline_step -->
<g id="edge6" class="edge">
<title>output_file_prefix&#45;&gt;run_dragen_germline_step</title>
<path fill="none" stroke="black" d="M329.99,-1962.48C345.35,-1951.66 366.62,-1938.42 387.5,-1931.2 1144.11,-1669.61 3737.43,-1487.41 4297.37,-1450.57"/>
<polygon fill="black" stroke="black" points="4297.71,-1454.06 4307.46,-1449.91 4297.25,-1447.08 4297.71,-1454.06"/>
</g>
<!-- cnv_enable_self_normalization -->
<g id="node5" class="node">
<title>cnv_enable_self_normalization</title>
<polygon fill="#94ddf4" stroke="black" points="8272,-1962.7 8272,-1998.7 8505,-1998.7 8505,-1962.7 8272,-1962.7"/>
<text text-anchor="middle" x="8388.5" y="-1977" font-family="Times,serif" font-size="14.00">cnv_enable_self_normalization</text>
</g>
<!-- cnv_enable_self_normalization&#45;&gt;run_dragen_germline_step -->
<g id="edge7" class="edge">
<title>cnv_enable_self_normalization&#45;&gt;run_dragen_germline_step</title>
<path fill="none" stroke="black" d="M8351.54,-1962.61C8327.06,-1951.98 8293.96,-1938.92 8263.5,-1931.2 6808.19,-1562.87 4970.4,-1466.63 4511.83,-1447.67"/>
<polygon fill="black" stroke="black" points="4511.71,-1444.17 4501.58,-1447.25 4511.43,-1451.16 4511.71,-1444.17"/>
</g>
<!-- dbsnp_annotation -->
<g id="node6" class="node">
<title>dbsnp_annotation</title>
<polygon fill="#94ddf4" stroke="black" points="8111,-1962.7 8111,-1998.7 8254,-1998.7 8254,-1962.7 8111,-1962.7"/>
<text text-anchor="middle" x="8182.5" y="-1977" font-family="Times,serif" font-size="14.00">dbsnp_annotation</text>
</g>
<!-- dbsnp_annotation&#45;&gt;run_dragen_germline_step -->
<g id="edge8" class="edge">
<title>dbsnp_annotation&#45;&gt;run_dragen_germline_step</title>
<path fill="none" stroke="black" d="M8159.67,-1962.56C8144.09,-1951.77 8122.55,-1938.54 8101.5,-1931.2 7408.61,-1689.76 5044.2,-1493.68 4511.63,-1451.92"/>
<polygon fill="black" stroke="black" points="4511.89,-1448.43 4501.65,-1451.14 4511.35,-1455.41 4511.89,-1448.43"/>
</g>
<!-- dedup_min_qual -->
<g id="node7" class="node">
<title>dedup_min_qual</title>
<polygon fill="#94ddf4" stroke="black" points="7960.5,-1962.7 7960.5,-1998.7 8092.5,-1998.7 8092.5,-1962.7 7960.5,-1962.7"/>
<text text-anchor="middle" x="8026.5" y="-1977" font-family="Times,serif" font-size="14.00">dedup_min_qual</text>
</g>
<!-- dedup_min_qual&#45;&gt;run_dragen_germline_step -->
<g id="edge9" class="edge">
<title>dedup_min_qual&#45;&gt;run_dragen_germline_step</title>
<path fill="none" stroke="black" d="M8005.54,-1962.56C7991.2,-1951.77 7971.27,-1938.54 7951.5,-1931.2 7292.8,-1686.79 5031.53,-1493.89 4511.65,-1452.12"/>
<polygon fill="black" stroke="black" points="4511.78,-1448.62 4501.54,-1451.31 4511.22,-1455.6 4511.78,-1448.62"/>
</g>
<!-- enable_cnv -->
<g id="node8" class="node">
<title>enable_cnv</title>
<polygon fill="#94ddf4" stroke="black" points="7847,-1962.7 7847,-1998.7 7942,-1998.7 7942,-1962.7 7847,-1962.7"/>
<text text-anchor="middle" x="7894.5" y="-1977" font-family="Times,serif" font-size="14.00">enable_cnv</text>
</g>
<!-- enable_cnv&#45;&gt;run_dragen_germline_step -->
<g id="edge10" class="edge">
<title>enable_cnv&#45;&gt;run_dragen_germline_step</title>
<path fill="none" stroke="black" d="M7879.61,-1962.5C7869.23,-1951.69 7854.42,-1938.46 7838.5,-1931.2 7220.27,-1649.62 5024.17,-1485.7 4511.89,-1450.77"/>
<polygon fill="black" stroke="black" points="4511.77,-1447.25 4501.55,-1450.07 4511.29,-1454.24 4511.77,-1447.25"/>
</g>
<!-- enable_duplicate_marking -->
<g id="node9" class="node">
<title>enable_duplicate_marking</title>
<polygon fill="#94ddf4" stroke="black" points="7626,-1962.7 7626,-1998.7 7829,-1998.7 7829,-1962.7 7626,-1962.7"/>
<text text-anchor="middle" x="7727.5" y="-1977" font-family="Times,serif" font-size="14.00">enable_duplicate_marking</text>
</g>
<!-- enable_duplicate_marking&#45;&gt;run_dragen_germline_step -->
<g id="edge11" class="edge">
<title>enable_duplicate_marking&#45;&gt;run_dragen_germline_step</title>
<path fill="none" stroke="black" d="M7694.35,-1962.49C7672.72,-1951.95 7643.57,-1939.03 7616.5,-1931.2 6429.6,-1588.26 4922.28,-1475.28 4511.79,-1449.81"/>
<polygon fill="black" stroke="black" points="4511.91,-1446.31 4501.72,-1449.19 4511.48,-1453.3 4511.91,-1446.31"/>
</g>
<!-- enable_hla -->
<g id="node10" class="node">
<title>enable_hla</title>
<polygon fill="#94ddf4" stroke="black" points="7515.5,-1962.7 7515.5,-1998.7 7607.5,-1998.7 7607.5,-1962.7 7515.5,-1962.7"/>
<text text-anchor="middle" x="7561.5" y="-1977" font-family="Times,serif" font-size="14.00">enable_hla</text>
</g>
<!-- enable_hla&#45;&gt;run_dragen_germline_step -->
<g id="edge12" class="edge">
<title>enable_hla&#45;&gt;run_dragen_germline_step</title>
<path fill="none" stroke="black" d="M7546.9,-1962.58C7536.71,-1951.8 7522.17,-1938.57 7506.5,-1931.2 6953.83,-1671.5 4992.9,-1493 4511.71,-1452.47"/>
<polygon fill="black" stroke="black" points="4511.9,-1448.97 4501.64,-1451.62 4511.31,-1455.94 4511.9,-1448.97"/>
</g>
<!-- enable_map_align_output -->
<g id="node11" class="node">
<title>enable_map_align_output</title>
<polygon fill="#94ddf4" stroke="black" points="7300,-1962.7 7300,-1998.7 7497,-1998.7 7497,-1962.7 7300,-1962.7"/>
<text text-anchor="middle" x="7398.5" y="-1977" font-family="Times,serif" font-size="14.00">enable_map_align_output</text>
</g>
<!-- enable_map_align_output&#45;&gt;run_dragen_germline_step -->
<g id="edge13" class="edge">
<title>enable_map_align_output&#45;&gt;run_dragen_germline_step</title>
<path fill="none" stroke="black" d="M7366.25,-1962.61C7345.21,-1952.12 7316.85,-1939.2 7290.5,-1931.2 6235.31,-1610.9 4895.2,-1483.32 4511.5,-1451.89"/>
<polygon fill="black" stroke="black" points="4511.77,-1448.4 4501.52,-1451.08 4511.2,-1455.38 4511.77,-1448.4"/>
</g>
<!-- enable_sv -->
<g id="node12" class="node">
<title>enable_sv</title>
<polygon fill="#94ddf4" stroke="black" points="7195.5,-1962.7 7195.5,-1998.7 7281.5,-1998.7 7281.5,-1962.7 7195.5,-1962.7"/>
<text text-anchor="middle" x="7238.5" y="-1977" font-family="Times,serif" font-size="14.00">enable_sv</text>
</g>
<!-- enable_sv&#45;&gt;run_dragen_germline_step -->
<g id="edge14" class="edge">
<title>enable_sv&#45;&gt;run_dragen_germline_step</title>
<path fill="none" stroke="black" d="M7224.84,-1962.66C7215.27,-1951.91 7201.53,-1938.69 7186.5,-1931.2 6698.89,-1688.38 4962.16,-1499.84 4511.8,-1454.27"/>
<polygon fill="black" stroke="black" points="4512.02,-1450.77 4501.72,-1453.25 4511.32,-1457.74 4512.02,-1450.77"/>
</g>
<!-- fastq_list -->
<g id="node13" class="node">
<title>fastq_list</title>
<polygon fill="#94ddf4" stroke="black" points="7095.5,-1962.7 7095.5,-1998.7 7177.5,-1998.7 7177.5,-1962.7 7095.5,-1962.7"/>
<text text-anchor="middle" x="7136.5" y="-1977" font-family="Times,serif" font-size="14.00">fastq_list</text>
</g>
<!-- fastq_list&#45;&gt;run_dragen_germline_step -->
<g id="edge15" class="edge">
<title>fastq_list&#45;&gt;run_dragen_germline_step</title>
<path fill="none" stroke="black" d="M7123.48,-1962.68C7114.32,-1951.94 7101.13,-1938.73 7086.5,-1931.2 6620.25,-1691.43 4952.02,-1501.52 4511.7,-1454.78"/>
<polygon fill="black" stroke="black" points="4511.84,-1451.27 4501.53,-1453.7 4511.1,-1458.23 4511.84,-1451.27"/>
</g>
<!-- fastq_list_rows -->
<g id="node14" class="node">
<title>fastq_list_rows</title>
<polygon fill="#94ddf4" stroke="black" points="6954,-1962.7 6954,-1998.7 7077,-1998.7 7077,-1962.7 6954,-1962.7"/>
<text text-anchor="middle" x="7015.5" y="-1977" font-family="Times,serif" font-size="14.00">fastq_list_rows</text>
</g>
<!-- fastq_list_rows&#45;&gt;run_dragen_germline_step -->
<g id="edge16" class="edge">
<title>fastq_list_rows&#45;&gt;run_dragen_germline_step</title>
<path fill="none" stroke="black" d="M6995.38,-1962.63C6981.83,-1952.01 6963.1,-1938.95 6944.5,-1931.2 6054.29,-1560.63 4870.24,-1468.73 4511.76,-1448.73"/>
<polygon fill="black" stroke="black" points="4511.83,-1445.23 4501.65,-1448.18 4511.44,-1452.22 4511.83,-1445.23"/>
</g>
<!-- hla_allele_frequency_file -->
<g id="node15" class="node">
<title>hla_allele_frequency_file</title>
<polygon fill="#94ddf4" stroke="black" points="6745.5,-1962.7 6745.5,-1998.7 6935.5,-1998.7 6935.5,-1962.7 6745.5,-1962.7"/>
<text text-anchor="middle" x="6840.5" y="-1977" font-family="Times,serif" font-size="14.00">hla_allele_frequency_file</text>
</g>
<!-- hla_allele_frequency_file&#45;&gt;run_dragen_germline_step -->
<g id="edge17" class="edge">
<title>hla_allele_frequency_file&#45;&gt;run_dragen_germline_step</title>
<path fill="none" stroke="black" d="M6808.96,-1962.67C6788.73,-1952.33 6761.64,-1939.57 6736.5,-1931.2 5902.83,-1653.8 4847.02,-1501.1 4511.74,-1457.16"/>
<polygon fill="black" stroke="black" points="4511.92,-1453.65 4501.55,-1455.83 4511.01,-1460.59 4511.92,-1453.65"/>
</g>
<!-- hla_bed_file -->
<g id="node16" class="node">
<title>hla_bed_file</title>
<polygon fill="#94ddf4" stroke="black" points="6627.5,-1962.7 6627.5,-1998.7 6727.5,-1998.7 6727.5,-1962.7 6627.5,-1962.7"/>
<text text-anchor="middle" x="6677.5" y="-1977" font-family="Times,serif" font-size="14.00">hla_bed_file</text>
</g>
<!-- hla_bed_file&#45;&gt;run_dragen_germline_step -->
<g id="edge18" class="edge">
<title>hla_bed_file&#45;&gt;run_dragen_germline_step</title>
<path fill="none" stroke="black" d="M6660.96,-1962.45C6649.9,-1951.9 6634.48,-1938.97 6618.5,-1931.2 5868.07,-1566.5 4842.27,-1471.52 4511.76,-1449.64"/>
<polygon fill="black" stroke="black" points="4511.92,-1446.14 4501.71,-1448.98 4511.46,-1453.13 4511.92,-1446.14"/>
</g>
<!-- hla_min_reads -->
<g id="node17" class="node">
<title>hla_min_reads</title>
<polygon fill="#94ddf4" stroke="black" points="6490,-1962.7 6490,-1998.7 6609,-1998.7 6609,-1962.7 6490,-1962.7"/>
<text text-anchor="middle" x="6549.5" y="-1977" font-family="Times,serif" font-size="14.00">hla_min_reads</text>
</g>
<!-- hla_min_reads&#45;&gt;run_dragen_germline_step -->
<g id="edge19" class="edge">
<title>hla_min_reads&#45;&gt;run_dragen_germline_step</title>
<path fill="none" stroke="black" d="M6529.62,-1962.63C6516.47,-1952.15 6498.4,-1939.24 6480.5,-1931.2 5770.19,-1612.59 4826.1,-1488.48 4511.53,-1454.31"/>
<polygon fill="black" stroke="black" points="4511.83,-1450.82 4501.51,-1453.23 4511.07,-1457.78 4511.83,-1450.82"/>
</g>
<!-- hla_reference_file -->
<g id="node18" class="node">
<title>hla_reference_file</title>
<polygon fill="#94ddf4" stroke="black" points="6329.5,-1962.7 6329.5,-1998.7 6471.5,-1998.7 6471.5,-1962.7 6329.5,-1962.7"/>
<text text-anchor="middle" x="6400.5" y="-1977" font-family="Times,serif" font-size="14.00">hla_reference_file</text>
</g>
<!-- hla_reference_file&#45;&gt;run_dragen_germline_step -->
<g id="edge20" class="edge">
<title>hla_reference_file&#45;&gt;run_dragen_germline_step</title>
<path fill="none" stroke="black" d="M6376.64,-1962.66C6361.24,-1952.32 6340.42,-1939.56 6320.5,-1931.2 5661.88,-1655.01 4808.14,-1505.74 4511.56,-1459.52"/>
<polygon fill="black" stroke="black" points="4512.09,-1456.07 4501.67,-1457.99 4511.02,-1462.98 4512.09,-1456.07"/>
</g>
<!-- hla_tiebreaker_threshold -->
<g id="node19" class="node">
<title>hla_tiebreaker_threshold</title>
<polygon fill="#94ddf4" stroke="black" points="6117.5,-1962.7 6117.5,-1998.7 6311.5,-1998.7 6311.5,-1962.7 6117.5,-1962.7"/>
<text text-anchor="middle" x="6214.5" y="-1977" font-family="Times,serif" font-size="14.00">hla_tiebreaker_threshold</text>
</g>
<!-- hla_tiebreaker_threshold&#45;&gt;run_dragen_germline_step -->
<g id="edge21" class="edge">
<title>hla_tiebreaker_threshold&#45;&gt;run_dragen_germline_step</title>
<path fill="none" stroke="black" d="M6180.68,-1962.65C6160.13,-1952.69 6133.18,-1940.32 6108.5,-1931.2 5500.39,-1706.55 4739.08,-1521.48 4488.61,-1463"/>
<polygon fill="black" stroke="black" points="4489.38,-1459.59 4478.85,-1460.73 4487.79,-1466.41 4489.38,-1459.59"/>
</g>
<!-- hla_zygosity_threshold -->
<g id="node20" class="node">
<title>hla_zygosity_threshold</title>
<polygon fill="#94ddf4" stroke="black" points="5920,-1962.7 5920,-1998.7 6099,-1998.7 6099,-1962.7 5920,-1962.7"/>
<text text-anchor="middle" x="6009.5" y="-1977" font-family="Times,serif" font-size="14.00">hla_zygosity_threshold</text>
</g>
<!-- hla_zygosity_threshold&#45;&gt;run_dragen_germline_step -->
<g id="edge22" class="edge">
<title>hla_zygosity_threshold&#45;&gt;run_dragen_germline_step</title>
<path fill="none" stroke="black" d="M5977.82,-1962.55C5958.89,-1952.67 5934.18,-1940.43 5911.5,-1931.2 5374.32,-1712.77 4699.53,-1523.4 4478.37,-1463.44"/>
<polygon fill="black" stroke="black" points="4479.06,-1460 4468.49,-1460.77 4477.23,-1466.76 4479.06,-1460"/>
</g>
<!-- lic_instance_id_location -->
<g id="node21" class="node">
<title>lic_instance_id_location</title>
<polygon fill="#94ddf4" stroke="black" points="5719,-1962.7 5719,-1998.7 5902,-1998.7 5902,-1962.7 5719,-1962.7"/>
<text text-anchor="middle" x="5810.5" y="-1977" font-family="Times,serif" font-size="14.00">lic_instance_id_location</text>
</g>
<!-- lic_instance_id_location&#45;&gt;run_dragen_germline_step -->
<g id="edge23" class="edge">
<title>lic_instance_id_location&#45;&gt;run_dragen_germline_step</title>
<path fill="none" stroke="black" d="M5776.72,-1962.54C5757.26,-1952.9 5732.23,-1940.88 5709.5,-1931.2 5237.58,-1730.24 4651.94,-1527.67 4464.88,-1464.08"/>
<polygon fill="black" stroke="black" points="4465.82,-1460.7 4455.23,-1460.8 4463.57,-1467.33 4465.82,-1460.7"/>
</g>
<!-- output_directory -->
<g id="node22" class="node">
<title>output_directory</title>
<polygon fill="#94ddf4" stroke="black" points="5564.5,-1962.7 5564.5,-1998.7 5700.5,-1998.7 5700.5,-1962.7 5564.5,-1962.7"/>
<text text-anchor="middle" x="5632.5" y="-1977" font-family="Times,serif" font-size="14.00">output_directory</text>
</g>
<!-- output_directory&#45;&gt;run_dragen_germline_step -->
<g id="edge24" class="edge">
<title>output_directory&#45;&gt;run_dragen_germline_step</title>
<path fill="none" stroke="black" d="M5607.44,-1962.48C5592.67,-1952.69 5573.42,-1940.57 5555.5,-1931.2 5150.29,-1719.55 4632.57,-1526.12 4461.89,-1464.25"/>
<polygon fill="black" stroke="black" points="4462.94,-1460.9 4452.35,-1460.79 4460.56,-1467.49 4462.94,-1460.9"/>
</g>
<!-- qc_coverage_ignore_overlaps -->
<g id="node23" class="node">
<title>qc_coverage_ignore_overlaps</title>
<polygon fill="#94ddf4" stroke="black" points="5322.5,-1962.7 5322.5,-1998.7 5546.5,-1998.7 5546.5,-1962.7 5322.5,-1962.7"/>
<text text-anchor="middle" x="5434.5" y="-1977" font-family="Times,serif" font-size="14.00">qc_coverage_ignore_overlaps</text>
</g>
<!-- qc_coverage_ignore_overlaps&#45;&gt;run_dragen_germline_step -->
<g id="edge25" class="edge">
<title>qc_coverage_ignore_overlaps&#45;&gt;run_dragen_germline_step</title>
<path fill="none" stroke="black" d="M5401.69,-1962.63C5249.88,-1883.63 4615.95,-1553.74 4446.37,-1465.49"/>
<polygon fill="black" stroke="black" points="4447.74,-1462.26 4437.26,-1460.75 4444.51,-1468.47 4447.74,-1462.26"/>
</g>
<!-- qc_coverage_region_1 -->
<g id="node24" class="node">
<title>qc_coverage_region_1</title>
<polygon fill="#94ddf4" stroke="black" points="5131,-1962.7 5131,-1998.7 5304,-1998.7 5304,-1962.7 5131,-1962.7"/>
<text text-anchor="middle" x="5217.5" y="-1977" font-family="Times,serif" font-size="14.00">qc_coverage_region_1</text>
</g>
<!-- qc_coverage_region_1&#45;&gt;run_dragen_germline_step -->
<g id="edge26" class="edge">
<title>qc_coverage_region_1&#45;&gt;run_dragen_germline_step</title>
<path fill="none" stroke="black" d="M5191.37,-1962.48C5071.56,-1883.49 4574.76,-1555.96 4438.95,-1466.42"/>
<polygon fill="black" stroke="black" points="4440.81,-1463.45 4430.53,-1460.87 4436.95,-1469.29 4440.81,-1463.45"/>
</g>
<!-- qc_coverage_region_2 -->
<g id="node25" class="node">
<title>qc_coverage_region_2</title>
<polygon fill="#94ddf4" stroke="black" points="4940,-1962.7 4940,-1998.7 5113,-1998.7 5113,-1962.7 4940,-1962.7"/>
<text text-anchor="middle" x="5026.5" y="-1977" font-family="Times,serif" font-size="14.00">qc_coverage_region_2</text>
</g>
<!-- qc_coverage_region_2&#45;&gt;run_dragen_germline_step -->
<g id="edge27" class="edge">
<title>qc_coverage_region_2&#45;&gt;run_dragen_germline_step</title>
<path fill="none" stroke="black" d="M5006.51,-1962.48C4915.21,-1883.8 4537.79,-1558.57 4432.11,-1467.5"/>
<polygon fill="black" stroke="black" points="4434.28,-1464.74 4424.42,-1460.87 4429.71,-1470.05 4434.28,-1464.74"/>
</g>
<!-- qc_coverage_region_3 -->
<g id="node26" class="node">
<title>qc_coverage_region_3</title>
<polygon fill="#94ddf4" stroke="black" points="4749,-1962.7 4749,-1998.7 4922,-1998.7 4922,-1962.7 4749,-1962.7"/>
<text text-anchor="middle" x="4835.5" y="-1977" font-family="Times,serif" font-size="14.00">qc_coverage_region_3</text>
</g>
<!-- qc_coverage_region_3&#45;&gt;run_dragen_germline_step -->
<g id="edge28" class="edge">
<title>qc_coverage_region_3&#45;&gt;run_dragen_germline_step</title>
<path fill="none" stroke="black" d="M4821.65,-1962.48C4758.7,-1884.2 4499.48,-1561.82 4424.75,-1468.89"/>
<polygon fill="black" stroke="black" points="4427.29,-1466.47 4418.3,-1460.87 4421.84,-1470.85 4427.29,-1466.47"/>
</g>
<!-- reference_tar -->
<g id="node27" class="node">
<title>reference_tar</title>
<polygon fill="#94ddf4" stroke="black" points="4618,-1962.7 4618,-1998.7 4731,-1998.7 4731,-1962.7 4618,-1962.7"/>
<text text-anchor="middle" x="4674.5" y="-1977" font-family="Times,serif" font-size="14.00">reference_tar</text>
</g>
<!-- reference_tar&#45;&gt;run_dragen_germline_step -->
<g id="edge29" class="edge">
<title>reference_tar&#45;&gt;run_dragen_germline_step</title>
<path fill="none" stroke="black" d="M4665.82,-1962.48C4626.55,-1884.51 4465.3,-1564.41 4417.76,-1470.02"/>
<polygon fill="black" stroke="black" points="4420.77,-1468.22 4413.15,-1460.87 4414.52,-1471.37 4420.77,-1468.22"/>
</g>
<!-- sample_sex -->
<g id="node28" class="node">
<title>sample_sex</title>
<polygon fill="#94ddf4" stroke="black" points="4501.5,-1962.7 4501.5,-1998.7 4599.5,-1998.7 4599.5,-1962.7 4501.5,-1962.7"/>
<text text-anchor="middle" x="4550.5" y="-1977" font-family="Times,serif" font-size="14.00">sample_sex</text>
</g>
<!-- sample_sex&#45;&gt;run_dragen_germline_step -->
<g id="edge30" class="edge">
<title>sample_sex&#45;&gt;run_dragen_germline_step</title>
<path fill="none" stroke="black" d="M4545.81,-1962.48C4524.61,-1884.67 4437.73,-1565.71 4411.82,-1470.6"/>
<polygon fill="black" stroke="black" points="4415.18,-1469.6 4409.17,-1460.87 4408.43,-1471.44 4415.18,-1469.6"/>
</g>
<!-- sv_call_regions_bed -->
<g id="node29" class="node">
<title>sv_call_regions_bed</title>
<polygon fill="#94ddf4" stroke="black" points="4326,-1962.7 4326,-1998.7 4483,-1998.7 4483,-1962.7 4326,-1962.7"/>
<text text-anchor="middle" x="4404.5" y="-1977" font-family="Times,serif" font-size="14.00">sv_call_regions_bed</text>
</g>
<!-- sv_call_regions_bed&#45;&gt;run_dragen_germline_step -->
<g id="edge31" class="edge">
<title>sv_call_regions_bed&#45;&gt;run_dragen_germline_step</title>
<path fill="none" stroke="black" d="M4404.5,-1962.48C4404.5,-1884.75 4404.5,-1566.35 4404.5,-1470.89"/>
<polygon fill="black" stroke="black" points="4408,-1470.87 4404.5,-1460.87 4401,-1470.87 4408,-1470.87"/>
</g>
<!-- sv_discovery -->
<g id="node30" class="node">
<title>sv_discovery</title>
<polygon fill="#94ddf4" stroke="black" points="4201,-1962.7 4201,-1998.7 4308,-1998.7 4308,-1962.7 4201,-1962.7"/>
<text text-anchor="middle" x="4254.5" y="-1977" font-family="Times,serif" font-size="14.00">sv_discovery</text>
</g>
<!-- sv_discovery&#45;&gt;run_dragen_germline_step -->
<g id="edge32" class="edge">
<title>sv_discovery&#45;&gt;run_dragen_germline_step</title>
<path fill="none" stroke="black" d="M4259.32,-1962.48C4281.1,-1884.67 4370.36,-1565.71 4396.97,-1470.6"/>
<polygon fill="black" stroke="black" points="4400.37,-1471.44 4399.7,-1460.87 4393.63,-1469.55 4400.37,-1471.44"/>
</g>
<!-- sv_enable_liquid_tumor_mode -->
<g id="node31" class="node">
<title>sv_enable_liquid_tumor_mode</title>
<polygon fill="#94ddf4" stroke="black" points="3952.5,-1962.7 3952.5,-1998.7 4182.5,-1998.7 4182.5,-1962.7 3952.5,-1962.7"/>
<text text-anchor="middle" x="4067.5" y="-1977" font-family="Times,serif" font-size="14.00">sv_enable_liquid_tumor_mode</text>
</g>
<!-- sv_enable_liquid_tumor_mode&#45;&gt;run_dragen_germline_step -->
<g id="edge33" class="edge">
<title>sv_enable_liquid_tumor_mode&#45;&gt;run_dragen_germline_step</title>
<path fill="none" stroke="black" d="M4078.33,-1962.48C4127.45,-1884.36 4329.42,-1563.12 4388.31,-1469.45"/>
<polygon fill="black" stroke="black" points="4391.35,-1471.2 4393.71,-1460.87 4385.42,-1467.47 4391.35,-1471.2"/>
</g>
<!-- sv_exome -->
<g id="node32" class="node">
<title>sv_exome</title>
<polygon fill="#94ddf4" stroke="black" points="3848.5,-1962.7 3848.5,-1998.7 3934.5,-1998.7 3934.5,-1962.7 3848.5,-1962.7"/>
<text text-anchor="middle" x="3891.5" y="-1977" font-family="Times,serif" font-size="14.00">sv_exome</text>
</g>
<!-- sv_exome&#45;&gt;run_dragen_germline_step -->
<g id="edge34" class="edge">
<title>sv_exome&#45;&gt;run_dragen_germline_step</title>
<path fill="none" stroke="black" d="M3907.99,-1962.48C3983.06,-1884.04 4292.7,-1560.52 4380.93,-1468.33"/>
<polygon fill="black" stroke="black" points="4383.69,-1470.51 4388.07,-1460.87 4378.63,-1465.67 4383.69,-1470.51"/>
</g>
<!-- sv_forcegt_vcf -->
<g id="node33" class="node">
<title>sv_forcegt_vcf</title>
<polygon fill="#94ddf4" stroke="black" points="3712.5,-1962.7 3712.5,-1998.7 3830.5,-1998.7 3830.5,-1962.7 3712.5,-1962.7"/>
<text text-anchor="middle" x="3771.5" y="-1977" font-family="Times,serif" font-size="14.00">sv_forcegt_vcf</text>
</g>
<!-- sv_forcegt_vcf&#45;&gt;run_dragen_germline_step -->
<g id="edge35" class="edge">
<title>sv_forcegt_vcf&#45;&gt;run_dragen_germline_step</title>
<path fill="none" stroke="black" d="M3791.84,-1962.48C3884.76,-1883.8 4268.85,-1558.57 4376.4,-1467.5"/>
<polygon fill="black" stroke="black" points="4378.86,-1470 4384.23,-1460.87 4374.34,-1464.66 4378.86,-1470"/>
</g>
<!-- sv_output_contigs -->
<g id="node34" class="node">
<title>sv_output_contigs</title>
<polygon fill="#94ddf4" stroke="black" points="3549,-1962.7 3549,-1998.7 3694,-1998.7 3694,-1962.7 3549,-1962.7"/>
<text text-anchor="middle" x="3621.5" y="-1977" font-family="Times,serif" font-size="14.00">sv_output_contigs</text>
</g>
<!-- sv_output_contigs&#45;&gt;run_dragen_germline_step -->
<g id="edge36" class="edge">
<title>sv_output_contigs&#45;&gt;run_dragen_germline_step</title>
<path fill="none" stroke="black" d="M3646.66,-1962.48C3761.94,-1883.57 4239.57,-1556.61 4370.93,-1466.68"/>
<polygon fill="black" stroke="black" points="4373.15,-1469.4 4379.43,-1460.87 4369.2,-1463.63 4373.15,-1469.4"/>
</g>
<!-- sv_region -->
<g id="node35" class="node">
<title>sv_region</title>
<polygon fill="#94ddf4" stroke="black" points="3446,-1962.7 3446,-1998.7 3531,-1998.7 3531,-1962.7 3446,-1962.7"/>
<text text-anchor="middle" x="3488.5" y="-1977" font-family="Times,serif" font-size="14.00">sv_region</text>
</g>
<!-- sv_region&#45;&gt;run_dragen_germline_step -->
<g id="edge37" class="edge">
<title>sv_region&#45;&gt;run_dragen_germline_step</title>
<path fill="none" stroke="black" d="M3504.94,-1962.46C3514.75,-1952.67 3527.75,-1940.54 3540.5,-1931.2 3831.56,-1718.03 4224.78,-1527.32 4358.1,-1465.04"/>
<polygon fill="black" stroke="black" points="4359.66,-1468.17 4367.24,-1460.78 4356.7,-1461.83 4359.66,-1468.17"/>
</g>
<!-- sv_se_overlap_pair_evidence -->
<g id="node36" class="node">
<title>sv_se_overlap_pair_evidence</title>
<polygon fill="#94ddf4" stroke="black" points="3207.5,-1962.7 3207.5,-1998.7 3427.5,-1998.7 3427.5,-1962.7 3207.5,-1962.7"/>
<text text-anchor="middle" x="3317.5" y="-1977" font-family="Times,serif" font-size="14.00">sv_se_overlap_pair_evidence</text>
</g>
<!-- sv_se_overlap_pair_evidence&#45;&gt;run_dragen_germline_step -->
<g id="edge38" class="edge">
<title>sv_se_overlap_pair_evidence&#45;&gt;run_dragen_germline_step</title>
<path fill="none" stroke="black" d="M3352.13,-1962.63C3512.49,-1883.55 4182.68,-1553.08 4360.84,-1465.23"/>
<polygon fill="black" stroke="black" points="4362.51,-1468.31 4369.93,-1460.75 4359.41,-1462.03 4362.51,-1468.31"/>
</g>
<!-- sv_tin_contam_tolerance -->
<g id="node37" class="node">
<title>sv_tin_contam_tolerance</title>
<polygon fill="#94ddf4" stroke="black" points="2998,-1962.7 2998,-1998.7 3189,-1998.7 3189,-1962.7 2998,-1962.7"/>
<text text-anchor="middle" x="3093.5" y="-1977" font-family="Times,serif" font-size="14.00">sv_tin_contam_tolerance</text>
</g>
<!-- sv_tin_contam_tolerance&#45;&gt;run_dragen_germline_step -->
<g id="edge39" class="edge">
<title>sv_tin_contam_tolerance&#45;&gt;run_dragen_germline_step</title>
<path fill="none" stroke="black" d="M3129.27,-1962.66C3149.48,-1953.16 3175.28,-1941.25 3198.5,-1931.2 3639.43,-1740.39 4180.39,-1530.04 4350.61,-1464.41"/>
<polygon fill="black" stroke="black" points="4352.03,-1467.62 4360.1,-1460.75 4349.51,-1461.08 4352.03,-1467.62"/>
</g>
<!-- vc_decoy_contigs -->
<g id="node38" class="node">
<title>vc_decoy_contigs</title>
<polygon fill="#94ddf4" stroke="black" points="2841,-1962.7 2841,-1998.7 2980,-1998.7 2980,-1962.7 2841,-1962.7"/>
<text text-anchor="middle" x="2910.5" y="-1977" font-family="Times,serif" font-size="14.00">vc_decoy_contigs</text>
</g>
<!-- vc_decoy_contigs&#45;&gt;run_dragen_germline_step -->
<g id="edge40" class="edge">
<title>vc_decoy_contigs&#45;&gt;run_dragen_germline_step</title>
<path fill="none" stroke="black" d="M2935.33,-1962.52C2950.51,-1952.51 2970.58,-1940.14 2989.5,-1931.2 3480.97,-1699.12 4114.02,-1520.82 4329.14,-1463.37"/>
<polygon fill="black" stroke="black" points="4330.3,-1466.68 4339.06,-1460.73 4328.5,-1459.92 4330.3,-1466.68"/>
</g>
<!-- vc_enable_baf -->
<g id="node39" class="node">
<title>vc_enable_baf</title>
<polygon fill="#94ddf4" stroke="black" points="2706.5,-1962.7 2706.5,-1998.7 2822.5,-1998.7 2822.5,-1962.7 2706.5,-1962.7"/>
<text text-anchor="middle" x="2764.5" y="-1977" font-family="Times,serif" font-size="14.00">vc_enable_baf</text>
</g>
<!-- vc_enable_baf&#45;&gt;run_dragen_germline_step -->
<g id="edge41" class="edge">
<title>vc_enable_baf&#45;&gt;run_dragen_germline_step</title>
<path fill="none" stroke="black" d="M2784.84,-1962.57C2797.81,-1952.33 2815.35,-1939.7 2832.5,-1931.2 3358.32,-1670.6 4052.24,-1514.37 4306.1,-1462.78"/>
<polygon fill="black" stroke="black" points="4306.93,-1466.18 4316.03,-1460.77 4305.54,-1459.32 4306.93,-1466.18"/>
</g>
<!-- vc_enable_decoy_contigs -->
<g id="node40" class="node">
<title>vc_enable_decoy_contigs</title>
<polygon fill="#94ddf4" stroke="black" points="2495,-1962.7 2495,-1998.7 2688,-1998.7 2688,-1962.7 2495,-1962.7"/>
<text text-anchor="middle" x="2591.5" y="-1977" font-family="Times,serif" font-size="14.00">vc_enable_decoy_contigs</text>
</g>
<!-- vc_enable_decoy_contigs&#45;&gt;run_dragen_germline_step -->
<g id="edge42" class="edge">
<title>vc_enable_decoy_contigs&#45;&gt;run_dragen_germline_step</title>
<path fill="none" stroke="black" d="M2625.32,-1962.64C2645.87,-1952.68 2672.82,-1940.32 2697.5,-1931.2 3306.65,-1706.32 4069.32,-1521.4 4320.24,-1462.98"/>
<polygon fill="black" stroke="black" points="4321.07,-1466.38 4330.02,-1460.71 4319.49,-1459.56 4321.07,-1466.38"/>
</g>
<!-- vc_enable_gatk_acceleration -->
<g id="node41" class="node">
<title>vc_enable_gatk_acceleration</title>
<polygon fill="#94ddf4" stroke="black" points="2258.5,-1962.7 2258.5,-1998.7 2476.5,-1998.7 2476.5,-1962.7 2258.5,-1962.7"/>
<text text-anchor="middle" x="2367.5" y="-1977" font-family="Times,serif" font-size="14.00">vc_enable_gatk_acceleration</text>
</g>
<!-- vc_enable_gatk_acceleration&#45;&gt;run_dragen_germline_step -->
<g id="edge43" class="edge">
<title>vc_enable_gatk_acceleration&#45;&gt;run_dragen_germline_step</title>
<path fill="none" stroke="black" d="M2405.58,-1962.61C2428.69,-1952.64 2458.95,-1940.27 2486.5,-1931.2 3173.95,-1704.95 4028.69,-1520.97 4309.96,-1462.88"/>
<polygon fill="black" stroke="black" points="4311.04,-1466.23 4320.13,-1460.79 4309.63,-1459.38 4311.04,-1466.23"/>
</g>
<!-- vc_enable_phasing -->
<g id="node42" class="node">
<title>vc_enable_phasing</title>
<polygon fill="#94ddf4" stroke="black" points="2091,-1962.7 2091,-1998.7 2240,-1998.7 2240,-1962.7 2091,-1962.7"/>
<text text-anchor="middle" x="2165.5" y="-1977" font-family="Times,serif" font-size="14.00">vc_enable_phasing</text>
</g>
<!-- vc_enable_phasing&#45;&gt;run_dragen_germline_step -->
<g id="edge44" class="edge">
<title>vc_enable_phasing&#45;&gt;run_dragen_germline_step</title>
<path fill="none" stroke="black" d="M2190.6,-1962.53C2206.79,-1952.14 2228.64,-1939.37 2249.5,-1931.2 3002.61,-1636.46 3976.92,-1496.54 4297.26,-1456.35"/>
<polygon fill="black" stroke="black" points="4297.98,-1459.79 4307.47,-1455.08 4297.11,-1452.84 4297.98,-1459.79"/>
</g>
<!-- vc_enable_roh -->
<g id="node43" class="node">
<title>vc_enable_roh</title>
<polygon fill="#94ddf4" stroke="black" points="1956,-1962.7 1956,-1998.7 2073,-1998.7 2073,-1962.7 1956,-1962.7"/>
<text text-anchor="middle" x="2014.5" y="-1977" font-family="Times,serif" font-size="14.00">vc_enable_roh</text>
</g>
<!-- vc_enable_roh&#45;&gt;run_dragen_germline_step -->
<g id="edge45" class="edge">
<title>vc_enable_roh&#45;&gt;run_dragen_germline_step</title>
<path fill="none" stroke="black" d="M2033.99,-1962.48C2046.91,-1951.93 2064.7,-1939.01 2082.5,-1931.2 2885.45,-1579.11 3958.36,-1475.5 4297.26,-1450.58"/>
<polygon fill="black" stroke="black" points="4297.59,-1454.06 4307.31,-1449.85 4297.08,-1447.08 4297.59,-1454.06"/>
</g>
<!-- vc_enable_vcf_output -->
<g id="node44" class="node">
<title>vc_enable_vcf_output</title>
<polygon fill="#94ddf4" stroke="black" points="1769.5,-1962.7 1769.5,-1998.7 1937.5,-1998.7 1937.5,-1962.7 1769.5,-1962.7"/>
<text text-anchor="middle" x="1853.5" y="-1977" font-family="Times,serif" font-size="14.00">vc_enable_vcf_output</text>
</g>
<!-- vc_enable_vcf_output&#45;&gt;run_dragen_germline_step -->
<g id="edge46" class="edge">
<title>vc_enable_vcf_output&#45;&gt;run_dragen_germline_step</title>
<path fill="none" stroke="black" d="M1881.37,-1962.69C1899.6,-1952.23 1924.27,-1939.32 1947.5,-1931.2 2824.86,-1624.7 3949.6,-1490.2 4297.31,-1454.13"/>
<polygon fill="black" stroke="black" points="4297.78,-1457.6 4307.37,-1453.09 4297.06,-1450.64 4297.78,-1457.6"/>
</g>
<!-- vc_hard_filter -->
<g id="node45" class="node">
<title>vc_hard_filter</title>
<polygon fill="#94ddf4" stroke="black" points="1638,-1962.7 1638,-1998.7 1751,-1998.7 1751,-1962.7 1638,-1962.7"/>
<text text-anchor="middle" x="1694.5" y="-1977" font-family="Times,serif" font-size="14.00">vc_hard_filter</text>
</g>
<!-- vc_hard_filter&#45;&gt;run_dragen_germline_step -->
<g id="edge47" class="edge">
<title>vc_hard_filter&#45;&gt;run_dragen_germline_step</title>
<path fill="none" stroke="black" d="M1712.99,-1962.55C1725.49,-1951.89 1742.88,-1938.82 1760.5,-1931.2 2684.52,-1531.76 3928.17,-1459.35 4297.1,-1446.45"/>
<polygon fill="black" stroke="black" points="4297.36,-1449.94 4307.24,-1446.1 4297.12,-1442.95 4297.36,-1449.94"/>
</g>
<!-- vc_max_reads_per_active_region -->
<g id="node46" class="node">
<title>vc_max_reads_per_active_region</title>
<polygon fill="#94ddf4" stroke="black" points="1371.5,-1962.7 1371.5,-1998.7 1619.5,-1998.7 1619.5,-1962.7 1371.5,-1962.7"/>
<text text-anchor="middle" x="1495.5" y="-1977" font-family="Times,serif" font-size="14.00">vc_max_reads_per_active_region</text>
</g>
<!-- vc_max_reads_per_active_region&#45;&gt;run_dragen_germline_step -->
<g id="edge48" class="edge">
<title>vc_max_reads_per_active_region&#45;&gt;run_dragen_germline_step</title>
<path fill="none" stroke="black" d="M1536.85,-1962.63C1563.04,-1952.35 1597.83,-1939.65 1629.5,-1931.2 2650.54,-1658.95 3924.45,-1499.03 4297.36,-1455.73"/>
<polygon fill="black" stroke="black" points="4297.8,-1459.21 4307.33,-1454.58 4296.99,-1452.25 4297.8,-1459.21"/>
</g>
<!-- vc_max_reads_per_raw_region -->
<g id="node47" class="node">
<title>vc_max_reads_per_raw_region</title>
<polygon fill="#94ddf4" stroke="black" points="1120,-1962.7 1120,-1998.7 1353,-1998.7 1353,-1962.7 1120,-1962.7"/>
<text text-anchor="middle" x="1236.5" y="-1977" font-family="Times,serif" font-size="14.00">vc_max_reads_per_raw_region</text>
</g>
<!-- vc_max_reads_per_raw_region&#45;&gt;run_dragen_germline_step -->
<g id="edge49" class="edge">
<title>vc_max_reads_per_raw_region&#45;&gt;run_dragen_germline_step</title>
<path fill="none" stroke="black" d="M1274.69,-1962.61C1299.32,-1952.18 1332.29,-1939.35 1362.5,-1931.2 2488.02,-1627.97 3901.82,-1487.72 4297.38,-1452.72"/>
<polygon fill="black" stroke="black" points="4297.73,-1456.2 4307.38,-1451.84 4297.11,-1449.23 4297.73,-1456.2"/>
</g>
<!-- vc_remove_all_soft_clips -->
<g id="node48" class="node">
<title>vc_remove_all_soft_clips</title>
<polygon fill="#94ddf4" stroke="black" points="911.5,-1962.7 911.5,-1998.7 1101.5,-1998.7 1101.5,-1962.7 911.5,-1962.7"/>
<text text-anchor="middle" x="1006.5" y="-1977" font-family="Times,serif" font-size="14.00">vc_remove_all_soft_clips</text>
</g>
<!-- vc_remove_all_soft_clips&#45;&gt;run_dragen_germline_step -->
<g id="edge50" class="edge">
<title>vc_remove_all_soft_clips&#45;&gt;run_dragen_germline_step</title>
<path fill="none" stroke="black" d="M1037.29,-1962.63C1057.74,-1952.02 1085.52,-1938.95 1111.5,-1931.2 2327.36,-1568.59 3879.6,-1469.39 4297.11,-1448.49"/>
<polygon fill="black" stroke="black" points="4297.54,-1451.97 4307.36,-1447.98 4297.2,-1444.98 4297.54,-1451.97"/>
</g>
<!-- vc_roh_blacklist_bed -->
<g id="node49" class="node">
<title>vc_roh_blacklist_bed</title>
<polygon fill="#94ddf4" stroke="black" points="730,-1962.7 730,-1998.7 893,-1998.7 893,-1962.7 730,-1962.7"/>
<text text-anchor="middle" x="811.5" y="-1977" font-family="Times,serif" font-size="14.00">vc_roh_blacklist_bed</text>
</g>
<!-- vc_roh_blacklist_bed&#45;&gt;run_dragen_germline_step -->
<g id="edge51" class="edge">
<title>vc_roh_blacklist_bed&#45;&gt;run_dragen_germline_step</title>
<path fill="none" stroke="black" d="M837.48,-1962.68C855.11,-1951.94 879.34,-1938.72 902.5,-1931.2 2191.75,-1512.54 3862.52,-1453.42 4297.34,-1445.07"/>
<polygon fill="black" stroke="black" points="4297.44,-1448.57 4307.38,-1444.89 4297.31,-1441.57 4297.44,-1448.57"/>
</g>
<!-- vc_target_bed -->
<g id="node50" class="node">
<title>vc_target_bed</title>
<polygon fill="#94ddf4" stroke="black" points="595.5,-1962.7 595.5,-1998.7 711.5,-1998.7 711.5,-1962.7 595.5,-1962.7"/>
<text text-anchor="middle" x="653.5" y="-1977" font-family="Times,serif" font-size="14.00">vc_target_bed</text>
</g>
<!-- vc_target_bed&#45;&gt;run_dragen_germline_step -->
<g id="edge52" class="edge">
<title>vc_target_bed&#45;&gt;run_dragen_germline_step</title>
<path fill="none" stroke="black" d="M672.22,-1962.49C685.11,-1951.67 703.15,-1938.44 721.5,-1931.2 1401.56,-1663.06 3764.89,-1487.56 4297.37,-1450.87"/>
<polygon fill="black" stroke="black" points="4297.62,-1454.37 4307.35,-1450.19 4297.14,-1447.38 4297.62,-1454.37"/>
</g>
<!-- vc_target_bed_padding -->
<g id="node51" class="node">
<title>vc_target_bed_padding</title>
<polygon fill="#94ddf4" stroke="black" points="396,-1962.7 396,-1998.7 577,-1998.7 577,-1962.7 396,-1962.7"/>
<text text-anchor="middle" x="486.5" y="-1977" font-family="Times,serif" font-size="14.00">vc_target_bed_padding</text>
</g>
<!-- vc_target_bed_padding&#45;&gt;run_dragen_germline_step -->
<g id="edge53" class="edge">
<title>vc_target_bed_padding&#45;&gt;run_dragen_germline_step</title>
<path fill="none" stroke="black" d="M515.24,-1962.66C534.7,-1951.91 561.35,-1938.69 586.5,-1931.2 2009.88,-1507.56 3839.36,-1452.07 4297.09,-1444.8"/>
<polygon fill="black" stroke="black" points="4297.38,-1448.3 4307.33,-1444.64 4297.27,-1441.3 4297.38,-1448.3"/>
</g>
<!-- vc_target_coverage -->
<g id="node52" class="node">
<title>vc_target_coverage</title>
<polygon fill="#94ddf4" stroke="black" points="8523,-1962.7 8523,-1998.7 8678,-1998.7 8678,-1962.7 8523,-1962.7"/>
<text text-anchor="middle" x="8600.5" y="-1977" font-family="Times,serif" font-size="14.00">vc_target_coverage</text>
</g>
<!-- vc_target_coverage&#45;&gt;run_dragen_germline_step -->
<g id="edge54" class="edge">
<title>vc_target_coverage&#45;&gt;run_dragen_germline_step</title>
<path fill="none" stroke="black" d="M8576.13,-1962.5C8559.55,-1951.68 8536.66,-1938.44 8514.5,-1931.2 7735.31,-1676.64 5080.31,-1488.6 4512.09,-1450.71"/>
<polygon fill="black" stroke="black" points="4512.07,-1447.21 4501.86,-1450.03 4511.61,-1454.19 4512.07,-1447.21"/>
</g>
</g>
</svg>
