<?xml version="1.0" encoding="UTF-8" standalone="no"?>
<!DOCTYPE svg PUBLIC "-//W3C//DTD SVG 1.1//EN"
 "http://www.w3.org/Graphics/SVG/1.1/DTD/svg11.dtd">
<!-- Generated by graphviz version 2.43.0 (0)
 -->
<!-- Title: G Pages: 1 -->
<svg width="1908pt" height="749pt"
 viewBox="0.00 0.00 1908.00 749.00" xmlns="http://www.w3.org/2000/svg" xmlns:xlink="http://www.w3.org/1999/xlink">
<g id="graph0" class="graph" transform="scale(1 1) rotate(0) translate(4 745)">
<title>G</title>
<polygon fill="#eeeeee" stroke="transparent" points="-4,4 -4,-745 1904,-745 1904,4 -4,4"/>
<g id="clust1" class="cluster">
<title>cluster_inputs</title>
<polygon fill="#eeeeee" stroke="black" stroke-dasharray="5,2" points="8,-390.13 8,-579.06 1367,-579.06 1367,-390.13 8,-390.13"/>
<text text-anchor="middle" x="1300.5" y="-397.93" font-family="Times,serif" font-size="14.00">Workflow Inputs</text>
</g>
<g id="clust2" class="cluster">
<title>cluster_outputs</title>
<polygon fill="#eeeeee" stroke="black" stroke-dasharray="5,2" points="682,-19.63 682,-208.56 834,-208.56 834,-19.63 682,-19.63"/>
<text text-anchor="middle" x="761.5" y="-27.43" font-family="Times,serif" font-size="14.00">Workflow Outputs</text>
</g>
<!-- umccrise_tsv_rows -->
<g id="node1" class="node">
<title>umccrise_tsv_rows</title>
<g id="a_node1"><a xlink:title="The list of tsv rows schema&#10;">
<polygon fill="#94ddf4" stroke="black" points="1207.5,-494.13 1207.5,-531.13 1358.5,-531.13 1358.5,-494.13 1207.5,-494.13"/>
<text text-anchor="middle" x="1283" y="-508.93" font-family="Times,serif" font-size="14.00">umccrise_tsv_rows</text>
</a>
</g>
</g>
<!-- create_mount_paths_and_umccrise_tsv_input_jsons_step -->
<g id="node15" class="node">
<title>create_mount_paths_and_umccrise_tsv_input_jsons_step</title>
<g id="a_node15"><a xlink:href="https://github.com/umccr/cwl-ica/blob/main/.github/catalogue/docs/expressions/create-predefined-mount-paths-and-umccrise-row-from-umccrise-schema/1.2.1--0/create-predefined-mount-paths-and-umccrise-row-from-umccrise-schema__1.2.1--0.md" xlink:title="Expression does two main things,&#10;creates a list of predefined mount paths for listing in the umccrise step&#10;and creates a list of jsons that represent umccrise list rows for the tsv creation&#10;">
<polygon fill="#ee9a00" stroke="black" points="1216.5,-676.13 1216.5,-713.13 1827.5,-713.13 1827.5,-676.13 1216.5,-676.13"/>
<text text-anchor="middle" x="1522" y="-690.93" font-family="Times,serif" font-size="14.00">create&#45;predefined&#45;mount&#45;paths&#45;and&#45;umccrise&#45;row&#45;from&#45;umccrise&#45;schema v(1.2.1&#45;&#45;0)</text>
</a>
</g>
</g>
<!-- umccrise_tsv_rows&#45;&gt;create_mount_paths_and_umccrise_tsv_input_jsons_step -->
<g id="edge5" class="edge">
<title>umccrise_tsv_rows&#45;&gt;create_mount_paths_and_umccrise_tsv_input_jsons_step</title>
<path fill="none" stroke="black" d="M1306.45,-531.29C1349.62,-563.8 1441.72,-633.17 1490.37,-669.81"/>
<polygon fill="black" stroke="black" points="1488.55,-672.82 1498.65,-676.04 1492.77,-667.23 1488.55,-672.82"/>
</g>
<!-- dag -->
<g id="node2" class="node">
<title>dag</title>
<g id="a_node2"><a xlink:title="Propagated to snakemake. Print the DAG of jobs in the dot language.&#10;">
<polygon fill="#94ddf4" stroke="black" points="1135,-494.13 1135,-531.13 1189,-531.13 1189,-494.13 1135,-494.13"/>
<text text-anchor="middle" x="1162" y="-508.93" font-family="Times,serif" font-size="14.00">dag</text>
</a>
</g>
</g>
<!-- run_umccrise_step -->
<g id="node17" class="node">
<title>run_umccrise_step</title>
<g id="a_node17"><a xlink:href="https://github.com/umccr/cwl-ica/blob/main/.github/catalogue/docs/tools/umccrise/1.2.1--0/umccrise__1.2.1--0.md" xlink:title="Run the umccrise step&#10;">
<polygon fill="lightgoldenrodyellow" stroke="black" points="679,-305.13 679,-342.13 837,-342.13 837,-305.13 679,-305.13"/>
<text text-anchor="middle" x="758" y="-319.93" font-family="Times,serif" font-size="14.00">umccrise v(1.2.1&#45;&#45;0)</text>
</a>
</g>
</g>
<!-- dag&#45;&gt;run_umccrise_step -->
<g id="edge6" class="edge">
<title>dag&#45;&gt;run_umccrise_step</title>
<path fill="none" stroke="black" d="M1152.37,-493.72C1146.05,-483.42 1136.94,-470.91 1126,-462.63 1042.39,-399.34 926.55,-362.31 847.31,-342.81"/>
<polygon fill="black" stroke="black" points="847.89,-339.35 837.34,-340.41 846.24,-346.16 847.89,-339.35"/>
</g>
<!-- debug -->
<g id="node3" class="node">
<title>debug</title>
<g id="a_node3"><a xlink:title="More verbose messages&#10;">
<polygon fill="#94ddf4" stroke="black" points="1055.5,-494.13 1055.5,-531.13 1116.5,-531.13 1116.5,-494.13 1055.5,-494.13"/>
<text text-anchor="middle" x="1086" y="-508.93" font-family="Times,serif" font-size="14.00">debug</text>
</a>
</g>
</g>
<!-- debug&#45;&gt;run_umccrise_step -->
<g id="edge7" class="edge">
<title>debug&#45;&gt;run_umccrise_step</title>
<path fill="none" stroke="black" d="M1075,-494.1C1067.95,-483.93 1058.06,-471.43 1047,-462.63 978.13,-407.84 883.94,-368.05 822.07,-345.65"/>
<polygon fill="black" stroke="black" points="823.03,-342.27 812.43,-342.21 820.67,-348.87 823.03,-342.27"/>
</g>
<!-- dryrun -->
<g id="node4" class="node">
<title>dryrun</title>
<g id="a_node4"><a xlink:title="Propagated to snakemake. Prints rules and commands to be run without actually executing them.&#10;">
<polygon fill="#94ddf4" stroke="black" points="972.5,-494.13 972.5,-531.13 1037.5,-531.13 1037.5,-494.13 972.5,-494.13"/>
<text text-anchor="middle" x="1005" y="-508.93" font-family="Times,serif" font-size="14.00">dryrun</text>
</a>
</g>
</g>
<!-- dryrun&#45;&gt;run_umccrise_step -->
<g id="edge8" class="edge">
<title>dryrun&#45;&gt;run_umccrise_step</title>
<path fill="none" stroke="black" d="M992.06,-493.78C984.49,-483.99 974.39,-471.97 964,-462.63 911.69,-415.62 842.25,-372.4 798.84,-347.29"/>
<polygon fill="black" stroke="black" points="800.41,-344.15 789.99,-342.21 796.92,-350.22 800.41,-344.15"/>
</g>
<!-- genome -->
<g id="node5" class="node">
<title>genome</title>
<g id="a_node5"><a xlink:title="genome">
<polygon fill="#94ddf4" stroke="black" points="881.5,-494.13 881.5,-531.13 954.5,-531.13 954.5,-494.13 881.5,-494.13"/>
<text text-anchor="middle" x="918" y="-508.93" font-family="Times,serif" font-size="14.00">genome</text>
</a>
</g>
</g>
<!-- genome&#45;&gt;run_umccrise_step -->
<g id="edge9" class="edge">
<title>genome&#45;&gt;run_umccrise_step</title>
<path fill="none" stroke="black" d="M902.95,-494.04C874.48,-460.76 812.65,-388.5 779.7,-349.99"/>
<polygon fill="black" stroke="black" points="782.29,-347.63 773.13,-342.31 776.97,-352.18 782.29,-347.63"/>
</g>
<!-- genomes_dir -->
<g id="node6" class="node">
<title>genomes_dir</title>
<g id="a_node6"><a xlink:title="The reference data bundle for the umccrise tool&#10;">
<polygon fill="#94ddf4" stroke="black" points="756.5,-494.13 756.5,-531.13 863.5,-531.13 863.5,-494.13 756.5,-494.13"/>
<text text-anchor="middle" x="810" y="-508.93" font-family="Times,serif" font-size="14.00">genomes_dir</text>
</a>
</g>
</g>
<!-- genomes_dir&#45;&gt;run_umccrise_step -->
<g id="edge10" class="edge">
<title>genomes_dir&#45;&gt;run_umccrise_step</title>
<path fill="none" stroke="black" d="M805.11,-494.04C796.01,-461.32 776.43,-390.91 765.6,-351.95"/>
<polygon fill="black" stroke="black" points="768.97,-351.01 762.92,-342.31 762.22,-352.88 768.97,-351.01"/>
</g>
<!-- min_af -->
<g id="node7" class="node">
<title>min_af</title>
<g id="a_node7"><a xlink:title="AF threshold to filter small variants (unless a known hotspot)&#10;">
<polygon fill="#94ddf4" stroke="black" points="674,-494.13 674,-531.13 738,-531.13 738,-494.13 674,-494.13"/>
<text text-anchor="middle" x="706" y="-508.93" font-family="Times,serif" font-size="14.00">min_af</text>
</a>
</g>
</g>
<!-- min_af&#45;&gt;run_umccrise_step -->
<g id="edge11" class="edge">
<title>min_af&#45;&gt;run_umccrise_step</title>
<path fill="none" stroke="black" d="M710.89,-494.04C719.99,-461.32 739.57,-390.91 750.4,-351.95"/>
<polygon fill="black" stroke="black" points="753.78,-352.88 753.08,-342.31 747.03,-351.01 753.78,-352.88"/>
</g>
<!-- output_directory_name -->
<g id="node8" class="node">
<title>output_directory_name</title>
<g id="a_node8"><a xlink:title="The name of the output directory&#10;">
<polygon fill="#94ddf4" stroke="black" points="474,-494.13 474,-531.13 656,-531.13 656,-494.13 474,-494.13"/>
<text text-anchor="middle" x="565" y="-508.93" font-family="Times,serif" font-size="14.00">output_directory_name</text>
</a>
</g>
</g>
<!-- output_directory_name&#45;&gt;run_umccrise_step -->
<g id="edge12" class="edge">
<title>output_directory_name&#45;&gt;run_umccrise_step</title>
<path fill="none" stroke="black" d="M583.16,-494.04C617.64,-460.62 692.7,-387.9 732.32,-349.51"/>
<polygon fill="black" stroke="black" points="735,-351.78 739.75,-342.31 730.13,-346.76 735,-351.78"/>
</g>
<!-- report -->
<g id="node9" class="node">
<title>report</title>
<g id="a_node9"><a xlink:title="Propagated to snakemake.&#10;Create an HTML report with results and statistics.&#10;The argument has to be a file path ending with &quot;.html&quot;&#10;">
<polygon fill="#94ddf4" stroke="black" points="394,-494.13 394,-531.13 456,-531.13 456,-494.13 394,-494.13"/>
<text text-anchor="middle" x="425" y="-508.93" font-family="Times,serif" font-size="14.00">report</text>
</a>
</g>
</g>
<!-- report&#45;&gt;run_umccrise_step -->
<g id="edge13" class="edge">
<title>report&#45;&gt;run_umccrise_step</title>
<path fill="none" stroke="black" d="M436.36,-494.09C443.61,-483.92 453.75,-471.42 465,-462.63 535.13,-407.84 630.55,-368.05 693.17,-345.65"/>
<polygon fill="black" stroke="black" points="694.67,-348.84 702.94,-342.21 692.34,-342.23 694.67,-348.84"/>
</g>
<!-- resources -->
<g id="node10" class="node">
<title>resources</title>
<g id="a_node10"><a xlink:title="Can be used to limit the amount of memory allowed to be used&#10;">
<polygon fill="#94ddf4" stroke="black" points="290,-494.13 290,-531.13 376,-531.13 376,-494.13 290,-494.13"/>
<text text-anchor="middle" x="333" y="-508.93" font-family="Times,serif" font-size="14.00">resources</text>
</a>
</g>
</g>
<!-- resources&#45;&gt;run_umccrise_step -->
<g id="edge14" class="edge">
<title>resources&#45;&gt;run_umccrise_step</title>
<path fill="none" stroke="black" d="M348.43,-493.88C358.1,-483.63 371.3,-471.13 385,-462.63 477.29,-405.4 596.96,-366.41 675.54,-344.84"/>
<polygon fill="black" stroke="black" points="676.66,-348.16 685.39,-342.17 674.83,-341.41 676.66,-348.16"/>
</g>
<!-- skip_stage -->
<g id="node11" class="node">
<title>skip_stage</title>
<g id="a_node11"><a xlink:title="Optionally, stages to skip, e.g.: &#45;E oncoviruses &#45;E cpsr&#10;">
<polygon fill="#94ddf4" stroke="black" points="180,-494.13 180,-531.13 272,-531.13 272,-494.13 180,-494.13"/>
<text text-anchor="middle" x="226" y="-508.93" font-family="Times,serif" font-size="14.00">skip_stage</text>
</a>
</g>
</g>
<!-- skip_stage&#45;&gt;run_umccrise_step -->
<g id="edge15" class="edge">
<title>skip_stage&#45;&gt;run_umccrise_step</title>
<path fill="none" stroke="black" d="M241.81,-494.02C252.06,-483.56 266.22,-470.79 281,-462.63 406.12,-393.51 569.26,-356.04 668.68,-338.21"/>
<polygon fill="black" stroke="black" points="669.46,-341.63 678.7,-336.44 668.24,-334.73 669.46,-341.63"/>
</g>
<!-- stage -->
<g id="node12" class="node">
<title>stage</title>
<g id="a_node12"><a xlink:title="Optionally, specific stage to run, e.g.: &#45;T pcgr &#45;T coverage &#45;T structural &#45;T small_variants&#10;">
<polygon fill="#94ddf4" stroke="black" points="106,-494.13 106,-531.13 162,-531.13 162,-494.13 106,-494.13"/>
<text text-anchor="middle" x="134" y="-508.93" font-family="Times,serif" font-size="14.00">stage</text>
</a>
</g>
</g>
<!-- stage&#45;&gt;run_umccrise_step -->
<g id="edge16" class="edge">
<title>stage&#45;&gt;run_umccrise_step</title>
<path fill="none" stroke="black" d="M143.34,-493.68C149.74,-483.1 159.21,-470.31 171,-462.63 326.06,-361.6 546.88,-334.3 668.7,-327.07"/>
<polygon fill="black" stroke="black" points="668.95,-330.56 678.74,-326.51 668.56,-323.57 668.95,-330.56"/>
</g>
<!-- threads -->
<g id="node13" class="node">
<title>threads</title>
<g id="a_node13"><a xlink:title="Maximum number of cores to use at single time.&#10;Defaults to runtime.cores&#10;">
<polygon fill="#94ddf4" stroke="black" points="16.5,-494.13 16.5,-531.13 87.5,-531.13 87.5,-494.13 16.5,-494.13"/>
<text text-anchor="middle" x="52" y="-508.93" font-family="Times,serif" font-size="14.00">threads</text>
</a>
</g>
</g>
<!-- threads&#45;&gt;run_umccrise_step -->
<g id="edge17" class="edge">
<title>threads&#45;&gt;run_umccrise_step</title>
<path fill="none" stroke="black" d="M63.75,-494.06C71.85,-483.34 83.54,-470.28 97,-462.63 281.5,-357.75 535.61,-332.2 668.61,-326.22"/>
<polygon fill="black" stroke="black" points="668.92,-329.71 678.76,-325.79 668.62,-322.72 668.92,-329.71"/>
</g>
<!-- output_directory -->
<g id="node14" class="node">
<title>output_directory</title>
<g id="a_node14"><a xlink:title="The umccrise output directory&#10;">
<polygon fill="#94ddf4" stroke="black" points="690,-124.13 690,-161.13 826,-161.13 826,-124.13 690,-124.13"/>
<text text-anchor="middle" x="758" y="-138.93" font-family="Times,serif" font-size="14.00">output_directory</text>
</a>
</g>
</g>
<!-- create_umccrise_tsv_step -->
<g id="node16" class="node">
<title>create_umccrise_tsv_step</title>
<g id="a_node16"><a xlink:href="https://github.com/umccr/cwl-ica/blob/main/.github/catalogue/docs/tools/custom-create-umccrise-tsv/1.2.1--0/custom-create-umccrise-tsv__1.2.1--0.md" xlink:title="Create the umccrise tsv from the jsonised input rows&#10;">
<polygon fill="lightgoldenrodyellow" stroke="black" points="1377,-494.13 1377,-531.13 1667,-531.13 1667,-494.13 1377,-494.13"/>
<text text-anchor="middle" x="1522" y="-508.93" font-family="Times,serif" font-size="14.00">custom&#45;create&#45;umccrise&#45;tsv v(1.2.1&#45;&#45;0)</text>
</a>
</g>
</g>
<!-- create_mount_paths_and_umccrise_tsv_input_jsons_step&#45;&gt;create_umccrise_tsv_step -->
<g id="edge1" class="edge">
<title>create_mount_paths_and_umccrise_tsv_input_jsons_step&#45;&gt;create_umccrise_tsv_step</title>
<path fill="none" stroke="black" d="M1522,-676.04C1522,-644.72 1522,-579.06 1522,-541.52"/>
<polygon fill="black" stroke="black" points="1525.5,-541.29 1522,-531.29 1518.5,-541.29 1525.5,-541.29"/>
</g>
<!-- create_mount_paths_and_umccrise_tsv_input_jsons_step&#45;&gt;run_umccrise_step -->
<g id="edge2" class="edge">
<title>create_mount_paths_and_umccrise_tsv_input_jsons_step&#45;&gt;run_umccrise_step</title>
<path fill="none" stroke="black" d="M1549.47,-676.09C1608.87,-636.08 1739.05,-535.87 1676,-462.63 1569.51,-338.93 1056.81,-324.59 847.39,-323.99"/>
<polygon fill="black" stroke="black" points="847.36,-320.49 837.35,-323.97 847.35,-327.49 847.36,-320.49"/>
</g>
<!-- create_umccrise_tsv_step&#45;&gt;run_umccrise_step -->
<g id="edge3" class="edge">
<title>create_umccrise_tsv_step&#45;&gt;run_umccrise_step</title>
<path fill="none" stroke="black" d="M1472.02,-494.13C1442.77,-484.21 1405.02,-471.96 1371,-462.63 1186.55,-412.06 967.24,-366.03 847.32,-342.04"/>
<polygon fill="black" stroke="black" points="847.93,-338.59 837.44,-340.07 846.56,-345.46 847.93,-338.59"/>
</g>
<!-- run_umccrise_step&#45;&gt;output_directory -->
<g id="edge4" class="edge">
<title>run_umccrise_step&#45;&gt;output_directory</title>
<path fill="none" stroke="black" d="M758,-304.81C758,-273.58 758,-208.75 758,-171.53"/>
<polygon fill="black" stroke="black" points="761.5,-171.37 758,-161.37 754.5,-171.37 761.5,-171.37"/>
</g>
<!-- \n -->
<g id="node18" class="node">
<title>\n</title>
<ellipse fill="none" stroke="black" cx="1873" cy="-694.63" rx="27" ry="18"/>
</g>
</g>
</svg>
