<?xml version="1.0" encoding="UTF-8" standalone="no"?>
<!DOCTYPE svg PUBLIC "-//W3C//DTD SVG 1.1//EN"
 "http://www.w3.org/Graphics/SVG/1.1/DTD/svg11.dtd">
<!-- Generated by graphviz version 2.40.1 (20161225.0304)
 -->
<!-- Title: G Pages: 1 -->
<svg width="1852pt" height="727pt"
 viewBox="0.00 0.00 1851.50 726.77" xmlns="http://www.w3.org/2000/svg" xmlns:xlink="http://www.w3.org/1999/xlink">
<g id="graph0" class="graph" transform="scale(1 1) rotate(0) translate(4 722.77)">
<title>G</title>
<polygon fill="#eeeeee" stroke="transparent" points="-4,4 -4,-722.77 1847.5,-722.77 1847.5,4 -4,4"/>
<g id="clust1" class="cluster">
<title>cluster_inputs</title>
<polygon fill="#eeeeee" stroke="#000000" stroke-dasharray="5,2" points="8,-378.4253 8,-561.6878 1378,-561.6878 1378,-378.4253 8,-378.4253"/>
<text text-anchor="middle" x="1310" y="-386.2253" font-family="Times,serif" font-size="14.00" fill="#000000">Workflow Inputs</text>
</g>
<g id="clust2" class="cluster">
<title>cluster_outputs</title>
<polygon fill="#eeeeee" stroke="#000000" stroke-dasharray="5,2" points="848,-19.0403 848,-202.3028 1002,-202.3028 1002,-19.0403 848,-19.0403"/>
<text text-anchor="middle" x="928" y="-26.8403" font-family="Times,serif" font-size="14.00" fill="#000000">Workflow Outputs</text>
</g>
<!-- file:///tmp/tmp8bve7q1f#dag -->
<g id="node1" class="node">
<title>file:///tmp/tmp8bve7q1f#dag</title>
<g id="a_node1"><a xlink:title="Propagated to snakemake. Print the DAG of jobs in the dot language.&#10;">
<polygon fill="#94ddf4" stroke="#000000" points="1316,-478.5403 1316,-515.5403 1370,-515.5403 1370,-478.5403 1316,-478.5403"/>
<text text-anchor="middle" x="1343" y="-493.3403" font-family="Times,serif" font-size="14.00" fill="#000000">dag</text>
</a>
</g>
</g>
<!-- file:///tmp/tmp8bve7q1f#run_umccrise_step -->
<g id="node17" class="node">
<title>file:///tmp/tmp8bve7q1f#run_umccrise_step</title>
<g id="a_node17"><a xlink:href="https://github.com/umccr/cwl-ica/blob/main/.github/catalogue/docs/tools/umccrise/1.2.1--0/umccrise__1.2.1--0.md" xlink:title="Run the umccrise step&#10;">
<polygon fill="#fafad2" stroke="#000000" points="845,-295.5403 845,-332.5403 1005,-332.5403 1005,-295.5403 845,-295.5403"/>
<text text-anchor="middle" x="925" y="-310.3403" font-family="Times,serif" font-size="14.00" fill="#000000">umccrise v(1.2.1&#45;&#45;0)</text>
</a>
</g>
</g>
<!-- file:///tmp/tmp8bve7q1f#dag&#45;&gt;file:///tmp/tmp8bve7q1f#run_umccrise_step -->
<g id="edge5" class="edge">
<title>file:///tmp/tmp8bve7q1f#dag&#45;&gt;file:///tmp/tmp8bve7q1f#run_umccrise_step</title>
<path fill="none" stroke="#000000" d="M1333.2308,-478.1801C1326.9745,-467.7267 1317.9745,-455.2267 1307,-447.0403 1219.51,-381.7767 1097.4406,-346.7346 1015.034,-329.2743"/>
<polygon fill="#000000" stroke="#000000" points="1015.6885,-325.8356 1005.186,-327.2313 1014.2666,-332.6897 1015.6885,-325.8356"/>
</g>
<!-- file:///tmp/tmp8bve7q1f#debug -->
<g id="node2" class="node">
<title>file:///tmp/tmp8bve7q1f#debug</title>
<g id="a_node2"><a xlink:title="More verbose messages&#10;">
<polygon fill="#94ddf4" stroke="#000000" points="1236.5,-478.5403 1236.5,-515.5403 1297.5,-515.5403 1297.5,-478.5403 1236.5,-478.5403"/>
<text text-anchor="middle" x="1267" y="-493.3403" font-family="Times,serif" font-size="14.00" fill="#000000">debug</text>
</a>
</g>
</g>
<!-- file:///tmp/tmp8bve7q1f#debug&#45;&gt;file:///tmp/tmp8bve7q1f#run_umccrise_step -->
<g id="edge6" class="edge">
<title>file:///tmp/tmp8bve7q1f#debug&#45;&gt;file:///tmp/tmp8bve7q1f#run_umccrise_step</title>
<path fill="none" stroke="#000000" d="M1255.1218,-478.0591C1247.9677,-467.8235 1238.1043,-455.5776 1227,-447.0403 1157.8796,-393.898 1064.2113,-356.9366 999.6095,-335.6985"/>
<polygon fill="#000000" stroke="#000000" points="1000.4895,-332.3046 989.8976,-332.552 998.332,-338.9638 1000.4895,-332.3046"/>
</g>
<!-- file:///tmp/tmp8bve7q1f#stage -->
<g id="node3" class="node">
<title>file:///tmp/tmp8bve7q1f#stage</title>
<g id="a_node3"><a xlink:title="Optionally, specific stage to run, e.g.: &#45;T pcgr &#45;T coverage &#45;T structural &#45;T small_variants&#10;">
<polygon fill="#94ddf4" stroke="#000000" points="1162,-478.5403 1162,-515.5403 1218,-515.5403 1218,-478.5403 1162,-478.5403"/>
<text text-anchor="middle" x="1190" y="-493.3403" font-family="Times,serif" font-size="14.00" fill="#000000">stage</text>
</a>
</g>
</g>
<!-- file:///tmp/tmp8bve7q1f#stage&#45;&gt;file:///tmp/tmp8bve7q1f#run_umccrise_step -->
<g id="edge7" class="edge">
<title>file:///tmp/tmp8bve7q1f#stage&#45;&gt;file:///tmp/tmp8bve7q1f#run_umccrise_step</title>
<path fill="none" stroke="#000000" d="M1178.904,-478.4811C1172.2526,-468.3775 1163.1311,-456.1232 1153,-447.0403 1099.4685,-399.0472 1025.9178,-359.9266 976.9907,-336.8289"/>
<polygon fill="#000000" stroke="#000000" points="978.3916,-333.6204 967.8495,-332.5646 975.4323,-339.9641 978.3916,-333.6204"/>
</g>
<!-- file:///tmp/tmp8bve7q1f#skip_stage -->
<g id="node4" class="node">
<title>file:///tmp/tmp8bve7q1f#skip_stage</title>
<g id="a_node4"><a xlink:title="Optionally, stages to skip, e.g.: &#45;E oncoviruses &#45;E cpsr&#10;">
<polygon fill="#94ddf4" stroke="#000000" points="1050.5,-478.5403 1050.5,-515.5403 1143.5,-515.5403 1143.5,-478.5403 1050.5,-478.5403"/>
<text text-anchor="middle" x="1097" y="-493.3403" font-family="Times,serif" font-size="14.00" fill="#000000">skip_stage</text>
</a>
</g>
</g>
<!-- file:///tmp/tmp8bve7q1f#skip_stage&#45;&gt;file:///tmp/tmp8bve7q1f#run_umccrise_step -->
<g id="edge8" class="edge">
<title>file:///tmp/tmp8bve7q1f#skip_stage&#45;&gt;file:///tmp/tmp8bve7q1f#run_umccrise_step</title>
<path fill="none" stroke="#000000" d="M1079.5612,-478.4862C1048.784,-445.7407 984.7627,-377.625 949.5414,-340.1511"/>
<polygon fill="#000000" stroke="#000000" points="951.884,-337.5331 942.485,-332.6435 946.7833,-342.3272 951.884,-337.5331"/>
</g>
<!-- file:///tmp/tmp8bve7q1f#genomes_dir -->
<g id="node5" class="node">
<title>file:///tmp/tmp8bve7q1f#genomes_dir</title>
<g id="a_node5"><a xlink:title="The reference data bundle for the umccrise tool&#10;">
<polygon fill="#94ddf4" stroke="#000000" points="924,-478.5403 924,-515.5403 1032,-515.5403 1032,-478.5403 924,-478.5403"/>
<text text-anchor="middle" x="978" y="-493.3403" font-family="Times,serif" font-size="14.00" fill="#000000">genomes_dir</text>
</a>
</g>
</g>
<!-- file:///tmp/tmp8bve7q1f#genomes_dir&#45;&gt;file:///tmp/tmp8bve7q1f#run_umccrise_step -->
<g id="edge9" class="edge">
<title>file:///tmp/tmp8bve7q1f#genomes_dir&#45;&gt;file:///tmp/tmp8bve7q1f#run_umccrise_step</title>
<path fill="none" stroke="#000000" d="M972.6264,-478.4862C963.3411,-446.4257 944.2362,-380.4596 933.2548,-342.5427"/>
<polygon fill="#000000" stroke="#000000" points="936.5316,-341.2751 930.3878,-332.6435 929.8079,-343.2224 936.5316,-341.2751"/>
</g>
<!-- file:///tmp/tmp8bve7q1f#dryrun -->
<g id="node6" class="node">
<title>file:///tmp/tmp8bve7q1f#dryrun</title>
<g id="a_node6"><a xlink:title="Propagated to snakemake. Prints rules and commands to be run without actually executing them.&#10;">
<polygon fill="#94ddf4" stroke="#000000" points="840.5,-478.5403 840.5,-515.5403 905.5,-515.5403 905.5,-478.5403 840.5,-478.5403"/>
<text text-anchor="middle" x="873" y="-493.3403" font-family="Times,serif" font-size="14.00" fill="#000000">dryrun</text>
</a>
</g>
</g>
<!-- file:///tmp/tmp8bve7q1f#dryrun&#45;&gt;file:///tmp/tmp8bve7q1f#run_umccrise_step -->
<g id="edge10" class="edge">
<title>file:///tmp/tmp8bve7q1f#dryrun&#45;&gt;file:///tmp/tmp8bve7q1f#run_umccrise_step</title>
<path fill="none" stroke="#000000" d="M878.2722,-478.4862C887.3823,-446.4257 906.1268,-380.4596 916.901,-342.5427"/>
<polygon fill="#000000" stroke="#000000" points="920.3472,-343.2194 919.7138,-332.6435 913.6137,-341.306 920.3472,-343.2194"/>
</g>
<!-- file:///tmp/tmp8bve7q1f#threads -->
<g id="node7" class="node">
<title>file:///tmp/tmp8bve7q1f#threads</title>
<g id="a_node7"><a xlink:title="Maximum number of cores to use at single time.&#10;Defaults to runtime.cores&#10;">
<polygon fill="#94ddf4" stroke="#000000" points="751.5,-478.5403 751.5,-515.5403 822.5,-515.5403 822.5,-478.5403 751.5,-478.5403"/>
<text text-anchor="middle" x="787" y="-493.3403" font-family="Times,serif" font-size="14.00" fill="#000000">threads</text>
</a>
</g>
</g>
<!-- file:///tmp/tmp8bve7q1f#threads&#45;&gt;file:///tmp/tmp8bve7q1f#run_umccrise_step -->
<g id="edge11" class="edge">
<title>file:///tmp/tmp8bve7q1f#threads&#45;&gt;file:///tmp/tmp8bve7q1f#run_umccrise_step</title>
<path fill="none" stroke="#000000" d="M800.9916,-478.4862C825.4783,-446.0147 876.193,-378.7626 904.5956,-341.0983"/>
<polygon fill="#000000" stroke="#000000" points="907.7449,-342.7351 910.9714,-332.6435 902.1559,-338.5204 907.7449,-342.7351"/>
</g>
<!-- file:///tmp/tmp8bve7q1f#output_directory_name -->
<g id="node8" class="node">
<title>file:///tmp/tmp8bve7q1f#output_directory_name</title>
<g id="a_node8"><a xlink:title="The name of the output directory&#10;">
<polygon fill="#94ddf4" stroke="#000000" points="549,-478.5403 549,-515.5403 733,-515.5403 733,-478.5403 549,-478.5403"/>
<text text-anchor="middle" x="641" y="-493.3403" font-family="Times,serif" font-size="14.00" fill="#000000">output_directory_name</text>
</a>
</g>
</g>
<!-- file:///tmp/tmp8bve7q1f#output_directory_name&#45;&gt;file:///tmp/tmp8bve7q1f#run_umccrise_step -->
<g id="edge12" class="edge">
<title>file:///tmp/tmp8bve7q1f#output_directory_name&#45;&gt;file:///tmp/tmp8bve7q1f#run_umccrise_step</title>
<path fill="none" stroke="#000000" d="M669.7943,-478.4862C721.5693,-445.1241 830.3222,-375.0475 887.7119,-338.0674"/>
<polygon fill="#000000" stroke="#000000" points="889.6192,-341.0022 896.1295,-332.6435 885.8276,-335.118 889.6192,-341.0022"/>
</g>
<!-- file:///tmp/tmp8bve7q1f#report -->
<g id="node9" class="node">
<title>file:///tmp/tmp8bve7q1f#report</title>
<g id="a_node9"><a xlink:title="Propagated to snakemake.&#10;Create an HTML report with results and statistics.&#10;The argument has to be a file path ending with &quot;.html&quot;&#10;">
<polygon fill="#94ddf4" stroke="#000000" points="469,-478.5403 469,-515.5403 531,-515.5403 531,-478.5403 469,-478.5403"/>
<text text-anchor="middle" x="500" y="-493.3403" font-family="Times,serif" font-size="14.00" fill="#000000">report</text>
</a>
</g>
</g>
<!-- file:///tmp/tmp8bve7q1f#report&#45;&gt;file:///tmp/tmp8bve7q1f#run_umccrise_step -->
<g id="edge13" class="edge">
<title>file:///tmp/tmp8bve7q1f#report&#45;&gt;file:///tmp/tmp8bve7q1f#run_umccrise_step</title>
<path fill="none" stroke="#000000" d="M511.2794,-478.1917C518.3726,-467.7422 528.3726,-455.2422 540,-447.0403 629.818,-383.6831 752.4943,-348.2325 835.0186,-330.1569"/>
<polygon fill="#000000" stroke="#000000" points="835.8372,-333.561 844.8786,-328.038 834.3664,-326.7173 835.8372,-333.561"/>
</g>
<!-- file:///tmp/tmp8bve7q1f#min_af -->
<g id="node10" class="node">
<title>file:///tmp/tmp8bve7q1f#min_af</title>
<g id="a_node10"><a xlink:title="AF threshold to filter small variants (unless a known hotspot)&#10;">
<polygon fill="#94ddf4" stroke="#000000" points="385.5,-478.5403 385.5,-515.5403 450.5,-515.5403 450.5,-478.5403 385.5,-478.5403"/>
<text text-anchor="middle" x="418" y="-493.3403" font-family="Times,serif" font-size="14.00" fill="#000000">min_af</text>
</a>
</g>
</g>
<!-- file:///tmp/tmp8bve7q1f#min_af&#45;&gt;file:///tmp/tmp8bve7q1f#run_umccrise_step -->
<g id="edge14" class="edge">
<title>file:///tmp/tmp8bve7q1f#min_af&#45;&gt;file:///tmp/tmp8bve7q1f#run_umccrise_step</title>
<path fill="none" stroke="#000000" d="M429.5217,-478.4542C436.9976,-467.828 447.6351,-455.0596 460,-447.0403 576.2952,-371.6162 735.9646,-338.1611 834.7103,-323.9112"/>
<polygon fill="#000000" stroke="#000000" points="835.2498,-327.3698 844.6643,-322.51 834.2741,-320.4381 835.2498,-327.3698"/>
</g>
<!-- file:///tmp/tmp8bve7q1f#resources -->
<g id="node11" class="node">
<title>file:///tmp/tmp8bve7q1f#resources</title>
<g id="a_node11"><a xlink:title="Can be used to limit the amount of memory allowed to be used&#10;">
<polygon fill="#94ddf4" stroke="#000000" points="280.5,-478.5403 280.5,-515.5403 367.5,-515.5403 367.5,-478.5403 280.5,-478.5403"/>
<text text-anchor="middle" x="324" y="-493.3403" font-family="Times,serif" font-size="14.00" fill="#000000">resources</text>
</a>
</g>
</g>
<!-- file:///tmp/tmp8bve7q1f#resources&#45;&gt;file:///tmp/tmp8bve7q1f#run_umccrise_step -->
<g id="edge15" class="edge">
<title>file:///tmp/tmp8bve7q1f#resources&#45;&gt;file:///tmp/tmp8bve7q1f#run_umccrise_step</title>
<path fill="none" stroke="#000000" d="M339.3748,-478.3263C349.1048,-467.6548 362.5463,-454.8837 377,-447.0403 525.0511,-366.6992 721.6328,-334.2741 834.6334,-321.6478"/>
<polygon fill="#000000" stroke="#000000" points="835.071,-325.1209 844.6328,-320.5579 834.3124,-318.1621 835.071,-325.1209"/>
</g>
<!-- file:///tmp/tmp8bve7q1f#umccrise_tsv_rows -->
<g id="node12" class="node">
<title>file:///tmp/tmp8bve7q1f#umccrise_tsv_rows</title>
<g id="a_node12"><a xlink:title="The list of tsv rows schema&#10;">
<polygon fill="#94ddf4" stroke="#000000" points="108,-478.5403 108,-515.5403 262,-515.5403 262,-478.5403 108,-478.5403"/>
<text text-anchor="middle" x="185" y="-493.3403" font-family="Times,serif" font-size="14.00" fill="#000000">umccrise_tsv_rows</text>
</a>
</g>
</g>
<!-- file:///tmp/tmp8bve7q1f#create_mount_paths_and_umccrise_tsv_input_jsons_step -->
<g id="node15" class="node">
<title>file:///tmp/tmp8bve7q1f#create_mount_paths_and_umccrise_tsv_input_jsons_step</title>
<g id="a_node15"><a xlink:href="https://github.com/umccr/cwl-ica/blob/main/.github/catalogue/docs/expressions/create-predefined-mount-paths-and-umccrise-row-from-umccrise-schema/1.2.1--0/create-predefined-mount-paths-and-umccrise-row-from-umccrise-schema__1.2.1--0.md" xlink:title="Expression does two main things,&#10;creates a list of predefined mount paths for listing in the umccrise step&#10;and creates a list of jsons that represent umccrise list rows for the tsv creation&#10;">
<polygon fill="#ee9a00" stroke="#000000" points="1226.5,-655.5403 1226.5,-692.5403 1843.5,-692.5403 1843.5,-655.5403 1226.5,-655.5403"/>
<text text-anchor="middle" x="1535" y="-670.3403" font-family="Times,serif" font-size="14.00" fill="#000000">create&#45;predefined&#45;mount&#45;paths&#45;and&#45;umccrise&#45;row&#45;from&#45;umccrise&#45;schema v(1.2.1&#45;&#45;0)</text>
</a>
</g>
</g>
<!-- file:///tmp/tmp8bve7q1f#umccrise_tsv_rows&#45;&gt;file:///tmp/tmp8bve7q1f#create_mount_paths_and_umccrise_tsv_input_jsons_step -->
<g id="edge16" class="edge">
<title>file:///tmp/tmp8bve7q1f#umccrise_tsv_rows&#45;&gt;file:///tmp/tmp8bve7q1f#create_mount_paths_and_umccrise_tsv_input_jsons_step</title>
<path fill="none" stroke="#000000" d="M239.3605,-515.5793C250.0864,-518.7623 261.3265,-521.7701 272,-524.0403 601.5575,-594.1333 986.9549,-633.9594 1244.5463,-654.6977"/>
<polygon fill="#000000" stroke="#000000" points="1244.5541,-658.2094 1254.8015,-655.5187 1245.1127,-651.2317 1244.5541,-658.2094"/>
</g>
<!-- file:///tmp/tmp8bve7q1f#genome -->
<g id="node13" class="node">
<title>file:///tmp/tmp8bve7q1f#genome</title>
<g id="a_node13"><a xlink:title="genome">
<polygon fill="#94ddf4" stroke="#000000" points="16.5,-478.5403 16.5,-515.5403 89.5,-515.5403 89.5,-478.5403 16.5,-478.5403"/>
<text text-anchor="middle" x="53" y="-493.3403" font-family="Times,serif" font-size="14.00" fill="#000000">genome</text>
</a>
</g>
</g>
<!-- file:///tmp/tmp8bve7q1f#genome&#45;&gt;file:///tmp/tmp8bve7q1f#run_umccrise_step -->
<g id="edge17" class="edge">
<title>file:///tmp/tmp8bve7q1f#genome&#45;&gt;file:///tmp/tmp8bve7q1f#run_umccrise_step</title>
<path fill="none" stroke="#000000" d="M65.2701,-478.4016C73.4853,-467.4768 85.2868,-454.4137 99,-447.0403 225.2463,-379.1588 647.7998,-336.8919 834.7314,-321.0919"/>
<polygon fill="#000000" stroke="#000000" points="835.1343,-324.5705 844.8067,-320.2467 834.5491,-317.595 835.1343,-324.5705"/>
</g>
<!-- file:///tmp/tmp8bve7q1f#output_directory -->
<g id="node14" class="node">
<title>file:///tmp/tmp8bve7q1f#output_directory</title>
<g id="a_node14"><a xlink:title="The umccrise output directory&#10;">
<polygon fill="#94ddf4" stroke="#000000" points="856.5,-119.5403 856.5,-156.5403 993.5,-156.5403 993.5,-119.5403 856.5,-119.5403"/>
<text text-anchor="middle" x="925" y="-134.3403" font-family="Times,serif" font-size="14.00" fill="#000000">output_directory</text>
</a>
</g>
</g>
<!-- file:///tmp/tmp8bve7q1f#create_umccrise_tsv_step -->
<g id="node16" class="node">
<title>file:///tmp/tmp8bve7q1f#create_umccrise_tsv_step</title>
<g id="a_node16"><a xlink:href="https://github.com/umccr/cwl-ica/blob/main/.github/catalogue/docs/tools/custom-create-umccrise-tsv/1.2.1--0/custom-create-umccrise-tsv__1.2.1--0.md" xlink:title="Create the umccrise tsv from the jsonised input rows&#10;">
<polygon fill="#fafad2" stroke="#000000" points="1388.5,-478.5403 1388.5,-515.5403 1681.5,-515.5403 1681.5,-478.5403 1388.5,-478.5403"/>
<text text-anchor="middle" x="1535" y="-493.3403" font-family="Times,serif" font-size="14.00" fill="#000000">custom&#45;create&#45;umccrise&#45;tsv v(1.2.1&#45;&#45;0)</text>
</a>
</g>
</g>
<!-- file:///tmp/tmp8bve7q1f#create_mount_paths_and_umccrise_tsv_input_jsons_step&#45;&gt;file:///tmp/tmp8bve7q1f#create_umccrise_tsv_step -->
<g id="edge1" class="edge">
<title>file:///tmp/tmp8bve7q1f#create_mount_paths_and_umccrise_tsv_input_jsons_step&#45;&gt;file:///tmp/tmp8bve7q1f#create_umccrise_tsv_step</title>
<path fill="none" stroke="#000000" d="M1535,-655.4327C1535,-624.4926 1535,-562.2614 1535,-525.6895"/>
<polygon fill="#000000" stroke="#000000" points="1538.5001,-525.6641 1535,-515.6641 1531.5001,-525.6641 1538.5001,-525.6641"/>
</g>
<!-- file:///tmp/tmp8bve7q1f#create_mount_paths_and_umccrise_tsv_input_jsons_step&#45;&gt;file:///tmp/tmp8bve7q1f#run_umccrise_step -->
<g id="edge2" class="edge">
<title>file:///tmp/tmp8bve7q1f#create_mount_paths_and_umccrise_tsv_input_jsons_step&#45;&gt;file:///tmp/tmp8bve7q1f#run_umccrise_step</title>
<path fill="none" stroke="#000000" d="M1564.7808,-655.5207C1625.3,-615.6619 1751.9547,-519.4905 1691,-447.0403 1605.5031,-345.4194 1198.8491,-321.4408 1015.2826,-315.785"/>
<polygon fill="#000000" stroke="#000000" points="1015.2137,-312.2815 1005.1143,-315.4835 1015.0061,-319.2784 1015.2137,-312.2815"/>
</g>
<!-- file:///tmp/tmp8bve7q1f#create_umccrise_tsv_step&#45;&gt;file:///tmp/tmp8bve7q1f#run_umccrise_step -->
<g id="edge3" class="edge">
<title>file:///tmp/tmp8bve7q1f#create_umccrise_tsv_step&#45;&gt;file:///tmp/tmp8bve7q1f#run_umccrise_step</title>
<path fill="none" stroke="#000000" d="M1479.5427,-478.4341C1450.5526,-468.8303 1414.4413,-457.0589 1382,-447.0403 1248.4997,-405.8123 1091.9812,-361.0236 1001.0932,-335.3641"/>
<polygon fill="#000000" stroke="#000000" points="1001.9984,-331.983 991.4238,-332.6366 1000.0979,-338.7201 1001.9984,-331.983"/>
</g>
<!-- file:///tmp/tmp8bve7q1f#run_umccrise_step&#45;&gt;file:///tmp/tmp8bve7q1f#output_directory -->
<g id="edge4" class="edge">
<title>file:///tmp/tmp8bve7q1f#run_umccrise_step&#45;&gt;file:///tmp/tmp8bve7q1f#output_directory</title>
<path fill="none" stroke="#000000" d="M925,-295.5378C925,-264.9046 925,-203.4235 925,-166.9973"/>
<polygon fill="#000000" stroke="#000000" points="928.5001,-166.5589 925,-156.5589 921.5001,-166.5589 928.5001,-166.5589"/>
</g>
</g>
</svg>
