<?xml version="1.0" encoding="UTF-8" standalone="no"?>
<!DOCTYPE svg PUBLIC "-//W3C//DTD SVG 1.1//EN"
 "http://www.w3.org/Graphics/SVG/1.1/DTD/svg11.dtd">
<!-- Generated by graphviz version 2.43.0 (0)
 -->
<!-- Title: G Pages: 1 -->
<svg width="779pt" height="779pt"
 viewBox="0.00 0.00 779.00 779.00" xmlns="http://www.w3.org/2000/svg" xmlns:xlink="http://www.w3.org/1999/xlink">
<g id="graph0" class="graph" transform="scale(1 1) rotate(0) translate(4 775)">
<title>G</title>
<polygon fill="#eeeeee" stroke="transparent" points="-4,4 -4,-775 775,-775 775,4 -4,4"/>
<g id="clust1" class="cluster">
<title>cluster_inputs</title>
<polygon fill="#eeeeee" stroke="black" stroke-dasharray="5,2" points="8,-500.19 8,-745.51 505,-745.51 505,-500.19 8,-500.19"/>
<text text-anchor="middle" x="438.5" y="-507.99" font-family="Times,serif" font-size="14.00">Workflow Inputs</text>
</g>
<g id="clust2" class="cluster">
<title>cluster_outputs</title>
<polygon fill="#eeeeee" stroke="black" stroke-dasharray="5,2" points="103,-25.49 103,-270.81 763,-270.81 763,-25.49 103,-25.49"/>
<text text-anchor="middle" x="690.5" y="-33.29" font-family="Times,serif" font-size="14.00">Workflow Outputs</text>
</g>
<!-- bclconvert_run_configuration -->
<g id="node1" class="node">
<title>bclconvert_run_configuration</title>
<polygon fill="#94ddf4" stroke="black" points="273,-640.99 273,-677.99 497,-677.99 497,-640.99 273,-640.99"/>
<text text-anchor="middle" x="385" y="-655.79" font-family="Times,serif" font-size="14.00">bclconvert_run_configuration</text>
</g>
<!-- bcl_convert_run_step -->
<g id="node7" class="node">
<title>bcl_convert_run_step</title>
<ellipse fill="none" stroke="black" cx="385" cy="-417.49" rx="108.58" ry="18"/>
<text text-anchor="middle" x="385" y="-413.79" font-family="Times,serif" font-size="14.00">bcl_convert_run_step</text>
</g>
<!-- bclconvert_run_configuration&#45;&gt;bcl_convert_run_step -->
<g id="edge1" class="edge">
<title>bclconvert_run_configuration&#45;&gt;bcl_convert_run_step</title>
<path fill="none" stroke="black" d="M302.76,-640.84C213.84,-596.16 214.42,-479.01 304.5,-435.28"/>
<polygon fill="black" stroke="black" points="306.07,-438.41 313.8,-431.16 303.23,-432.01 306.07,-438.41"/>
</g>
<!-- bclconvert_run_configuration&#45;&gt;bcl_convert_run_step -->
<g id="edge2" class="edge">
<title>bclconvert_run_configuration&#45;&gt;bcl_convert_run_step</title>
<path fill="none" stroke="black" d="M310.23,-640.84C230.11,-596.55 229.92,-481.08 309.66,-436.46"/>
<polygon fill="black" stroke="black" points="311.36,-439.52 318.69,-431.87 308.19,-433.28 311.36,-439.52"/>
</g>
<!-- bclconvert_run_configuration&#45;&gt;bcl_convert_run_step -->
<g id="edge3" class="edge">
<title>bclconvert_run_configuration&#45;&gt;bcl_convert_run_step</title>
<path fill="none" stroke="black" d="M317.71,-640.84C246.23,-596.94 245.44,-483.1 315.32,-437.64"/>
<polygon fill="black" stroke="black" points="317.34,-440.52 324.2,-432.45 313.8,-434.48 317.34,-440.52"/>
</g>
<!-- bclconvert_run_configuration&#45;&gt;bcl_convert_run_step -->
<g id="edge4" class="edge">
<title>bclconvert_run_configuration&#45;&gt;bcl_convert_run_step</title>
<path fill="none" stroke="black" d="M325.19,-640.84C262.21,-597.33 260.96,-485.09 321.44,-438.86"/>
<polygon fill="black" stroke="black" points="323.68,-441.57 329.96,-433.04 319.73,-435.79 323.68,-441.57"/>
</g>
<!-- bclconvert_run_configuration&#45;&gt;bcl_convert_run_step -->
<g id="edge5" class="edge">
<title>bclconvert_run_configuration&#45;&gt;bcl_convert_run_step</title>
<path fill="none" stroke="black" d="M332.66,-640.84C278.05,-597.71 276.49,-487.07 328,-440.1"/>
<polygon fill="black" stroke="black" points="330.41,-442.65 335.98,-433.64 326.01,-437.21 330.41,-442.65"/>
</g>
<!-- bclconvert_run_configuration&#45;&gt;bcl_convert_run_step -->
<g id="edge6" class="edge">
<title>bclconvert_run_configuration&#45;&gt;bcl_convert_run_step</title>
<path fill="none" stroke="black" d="M340.14,-640.84C293.74,-598.09 292.02,-489.03 334.98,-441.36"/>
<polygon fill="black" stroke="black" points="337.55,-443.75 342.26,-434.26 332.66,-438.74 337.55,-443.75"/>
</g>
<!-- bclconvert_run_configuration&#45;&gt;bcl_convert_run_step -->
<g id="edge7" class="edge">
<title>bclconvert_run_configuration&#45;&gt;bcl_convert_run_step</title>
<path fill="none" stroke="black" d="M347.62,-640.84C309.2,-598.37 307.54,-490.44 342.62,-442.3"/>
<polygon fill="black" stroke="black" points="345.36,-444.49 349.08,-434.57 339.98,-440 345.36,-444.49"/>
</g>
<!-- bclconvert_run_configuration&#45;&gt;bcl_convert_run_step -->
<g id="edge8" class="edge">
<title>bclconvert_run_configuration&#45;&gt;bcl_convert_run_step</title>
<path fill="none" stroke="black" d="M355.09,-640.84C324.63,-598.74 323.05,-492.29 350.38,-443.55"/>
<polygon fill="black" stroke="black" points="353.5,-445.17 356.02,-434.88 347.64,-441.35 353.5,-445.17"/>
</g>
<!-- bclconvert_run_configuration&#45;&gt;bcl_convert_run_step -->
<g id="edge9" class="edge">
<title>bclconvert_run_configuration&#45;&gt;bcl_convert_run_step</title>
<path fill="none" stroke="black" d="M362.57,-640.84C339.82,-598.93 338.55,-493.25 358.76,-444.21"/>
<polygon fill="black" stroke="black" points="361.92,-445.73 363.09,-435.2 355.61,-442.7 361.92,-445.73"/>
</g>
<!-- bclconvert_run_configuration&#45;&gt;bcl_convert_run_step -->
<g id="edge10" class="edge">
<title>bclconvert_run_configuration&#45;&gt;bcl_convert_run_step</title>
<path fill="none" stroke="black" d="M370.05,-640.84C354.98,-599.2 354.05,-494.63 367.24,-445.19"/>
<polygon fill="black" stroke="black" points="370.62,-446.11 370.27,-435.52 363.94,-444.01 370.62,-446.11"/>
</g>
<!-- bclconvert_run_configuration&#45;&gt;bcl_convert_run_step -->
<g id="edge11" class="edge">
<title>bclconvert_run_configuration&#45;&gt;bcl_convert_run_step</title>
<path fill="none" stroke="black" d="M377.52,-640.84C370.01,-599.29 369.53,-495.07 376.08,-445.5"/>
<polygon fill="black" stroke="black" points="379.55,-445.94 377.64,-435.52 372.64,-444.86 379.55,-445.94"/>
</g>
<!-- bclconvert_run_configuration&#45;&gt;bcl_convert_run_step -->
<g id="edge12" class="edge">
<title>bclconvert_run_configuration&#45;&gt;bcl_convert_run_step</title>
<path fill="none" stroke="black" d="M385,-640.84C385,-599.38 385,-495.51 385,-445.81"/>
<polygon fill="black" stroke="black" points="388.5,-445.52 385,-435.52 381.5,-445.52 388.5,-445.52"/>
</g>
<!-- bclconvert_run_configuration&#45;&gt;bcl_convert_run_step -->
<g id="edge13" class="edge">
<title>bclconvert_run_configuration&#45;&gt;bcl_convert_run_step</title>
<path fill="none" stroke="black" d="M392.48,-640.84C399.99,-599.29 400.47,-495.07 393.92,-445.5"/>
<polygon fill="black" stroke="black" points="397.36,-444.86 392.36,-435.52 390.45,-445.94 397.36,-444.86"/>
</g>
<!-- bclconvert_run_configuration&#45;&gt;bcl_convert_run_step -->
<g id="edge14" class="edge">
<title>bclconvert_run_configuration&#45;&gt;bcl_convert_run_step</title>
<path fill="none" stroke="black" d="M399.95,-640.84C415.02,-599.2 415.95,-494.63 402.76,-445.19"/>
<polygon fill="black" stroke="black" points="406.06,-444.01 399.73,-435.52 399.38,-446.11 406.06,-444.01"/>
</g>
<!-- bclconvert_run_configuration&#45;&gt;bcl_convert_run_step -->
<g id="edge15" class="edge">
<title>bclconvert_run_configuration&#45;&gt;bcl_convert_run_step</title>
<path fill="none" stroke="black" d="M407.43,-640.84C430.18,-598.93 431.45,-493.25 411.24,-444.21"/>
<polygon fill="black" stroke="black" points="414.39,-442.7 406.91,-435.2 408.08,-445.73 414.39,-442.7"/>
</g>
<!-- bclconvert_run_configuration&#45;&gt;bcl_convert_run_step -->
<g id="edge16" class="edge">
<title>bclconvert_run_configuration&#45;&gt;bcl_convert_run_step</title>
<path fill="none" stroke="black" d="M414.91,-640.84C445.37,-598.74 446.95,-492.29 419.62,-443.55"/>
<polygon fill="black" stroke="black" points="422.36,-441.35 413.98,-434.88 416.5,-445.17 422.36,-441.35"/>
</g>
<!-- bclconvert_run_configuration&#45;&gt;bcl_convert_run_step -->
<g id="edge17" class="edge">
<title>bclconvert_run_configuration&#45;&gt;bcl_convert_run_step</title>
<path fill="none" stroke="black" d="M422.38,-640.84C460.8,-598.37 462.46,-490.44 427.38,-442.3"/>
<polygon fill="black" stroke="black" points="430.02,-440 420.92,-434.57 424.64,-444.49 430.02,-440"/>
</g>
<!-- bclconvert_run_configuration&#45;&gt;bcl_convert_run_step -->
<g id="edge18" class="edge">
<title>bclconvert_run_configuration&#45;&gt;bcl_convert_run_step</title>
<path fill="none" stroke="black" d="M429.86,-640.84C476.26,-598.09 477.98,-489.03 435.02,-441.36"/>
<polygon fill="black" stroke="black" points="437.34,-438.74 427.74,-434.26 432.45,-443.75 437.34,-438.74"/>
</g>
<!-- bclconvert_run_configuration&#45;&gt;bcl_convert_run_step -->
<g id="edge19" class="edge">
<title>bclconvert_run_configuration&#45;&gt;bcl_convert_run_step</title>
<path fill="none" stroke="black" d="M437.34,-640.84C491.95,-597.71 493.51,-487.07 442,-440.1"/>
<polygon fill="black" stroke="black" points="443.99,-437.21 434.02,-433.64 439.59,-442.65 443.99,-437.21"/>
</g>
<!-- bclconvert_run_configuration&#45;&gt;bcl_convert_run_step -->
<g id="edge20" class="edge">
<title>bclconvert_run_configuration&#45;&gt;bcl_convert_run_step</title>
<path fill="none" stroke="black" d="M444.81,-640.84C507.79,-597.33 509.04,-485.09 448.56,-438.86"/>
<polygon fill="black" stroke="black" points="450.27,-435.79 440.04,-433.04 446.32,-441.57 450.27,-435.79"/>
</g>
<!-- bclconvert_run_configuration&#45;&gt;bcl_convert_run_step -->
<g id="edge21" class="edge">
<title>bclconvert_run_configuration&#45;&gt;bcl_convert_run_step</title>
<path fill="none" stroke="black" d="M452.29,-640.84C523.77,-596.94 524.56,-483.1 454.68,-437.64"/>
<polygon fill="black" stroke="black" points="456.2,-434.48 445.8,-432.45 452.66,-440.52 456.2,-434.48"/>
</g>
<!-- bclconvert_run_configuration&#45;&gt;bcl_convert_run_step -->
<g id="edge22" class="edge">
<title>bclconvert_run_configuration&#45;&gt;bcl_convert_run_step</title>
<path fill="none" stroke="black" d="M459.77,-640.84C539.89,-596.55 540.08,-481.08 460.34,-436.46"/>
<polygon fill="black" stroke="black" points="461.81,-433.28 451.31,-431.87 458.64,-439.52 461.81,-433.28"/>
</g>
<!-- bclconvert_run_configuration&#45;&gt;bcl_convert_run_step -->
<g id="edge23" class="edge">
<title>bclconvert_run_configuration&#45;&gt;bcl_convert_run_step</title>
<path fill="none" stroke="black" d="M467.24,-640.84C556.16,-596.16 555.58,-479.01 465.5,-435.28"/>
<polygon fill="black" stroke="black" points="466.77,-432.01 456.2,-431.16 463.93,-438.41 466.77,-432.01"/>
</g>
<!-- bclconvert_run_input_directory -->
<g id="node2" class="node">
<title>bclconvert_run_input_directory</title>
<polygon fill="#94ddf4" stroke="black" points="15.5,-640.99 15.5,-677.99 254.5,-677.99 254.5,-640.99 15.5,-640.99"/>
<text text-anchor="middle" x="135" y="-655.79" font-family="Times,serif" font-size="14.00">bclconvert_run_input_directory</text>
</g>
<!-- bclconvert_run_input_directory&#45;&gt;bcl_convert_run_step -->
<g id="edge24" class="edge">
<title>bclconvert_run_input_directory&#45;&gt;bcl_convert_run_step</title>
<path fill="none" stroke="black" d="M153.38,-640.84C197.57,-598.42 309.81,-490.67 360.03,-442.45"/>
<polygon fill="black" stroke="black" points="362.47,-444.97 367.26,-435.52 357.62,-439.92 362.47,-444.97"/>
</g>
<!-- bcl_convert_directory_output -->
<g id="node3" class="node">
<title>bcl_convert_directory_output</title>
<polygon fill="#94ddf4" stroke="black" points="531,-165.99 531,-202.99 755,-202.99 755,-165.99 531,-165.99"/>
<text text-anchor="middle" x="643" y="-180.79" font-family="Times,serif" font-size="14.00">bcl_convert_directory_output</text>
</g>
<!-- fastq_list_rows -->
<g id="node4" class="node">
<title>fastq_list_rows</title>
<polygon fill="#94ddf4" stroke="black" points="389.5,-165.99 389.5,-202.99 512.5,-202.99 512.5,-165.99 389.5,-165.99"/>
<text text-anchor="middle" x="451" y="-180.79" font-family="Times,serif" font-size="14.00">fastq_list_rows</text>
</g>
<!-- run_info_out -->
<g id="node5" class="node">
<title>run_info_out</title>
<polygon fill="#94ddf4" stroke="black" points="266.5,-165.99 266.5,-202.99 371.5,-202.99 371.5,-165.99 266.5,-165.99"/>
<text text-anchor="middle" x="319" y="-180.79" font-family="Times,serif" font-size="14.00">run_info_out</text>
</g>
<!-- samplesheet_out -->
<g id="node6" class="node">
<title>samplesheet_out</title>
<polygon fill="#94ddf4" stroke="black" points="111.5,-165.99 111.5,-202.99 248.5,-202.99 248.5,-165.99 111.5,-165.99"/>
<text text-anchor="middle" x="180" y="-180.79" font-family="Times,serif" font-size="14.00">samplesheet_out</text>
</g>
<!-- bcl_convert_run_step&#45;&gt;bcl_convert_directory_output -->
<g id="edge25" class="edge">
<title>bcl_convert_run_step&#45;&gt;bcl_convert_directory_output</title>
<path fill="none" stroke="black" d="M403.97,-399.5C449.13,-359.07 563.16,-256.97 615.71,-209.92"/>
<polygon fill="black" stroke="black" points="618.18,-212.41 623.3,-203.13 613.51,-207.19 618.18,-212.41"/>
</g>
<!-- bcl_convert_run_step&#45;&gt;fastq_list_rows -->
<g id="edge26" class="edge">
<title>bcl_convert_run_step&#45;&gt;fastq_list_rows</title>
<path fill="none" stroke="black" d="M389.85,-399.5C401.17,-359.9 429.38,-261.14 443.17,-212.89"/>
<polygon fill="black" stroke="black" points="446.58,-213.71 445.96,-203.13 439.85,-211.78 446.58,-213.71"/>
</g>
<!-- bcl_convert_run_step&#45;&gt;run_info_out -->
<g id="edge27" class="edge">
<title>bcl_convert_run_step&#45;&gt;run_info_out</title>
<path fill="none" stroke="black" d="M380.15,-399.5C368.83,-359.9 340.62,-261.14 326.83,-212.89"/>
<polygon fill="black" stroke="black" points="330.15,-211.78 324.04,-203.13 323.42,-213.71 330.15,-211.78"/>
</g>
<!-- bcl_convert_run_step&#45;&gt;samplesheet_out -->
<g id="edge28" class="edge">
<title>bcl_convert_run_step&#45;&gt;samplesheet_out</title>
<path fill="none" stroke="black" d="M369.93,-399.5C334.26,-359.32 244.56,-258.23 202.46,-210.8"/>
<polygon fill="black" stroke="black" points="204.91,-208.29 195.66,-203.13 199.68,-212.93 204.91,-208.29"/>
</g>
<!-- \n -->
<g id="node8" class="node">
<title>\n</title>
<ellipse fill="none" stroke="black" cx="542" cy="-659.49" rx="27" ry="18"/>
</g>
</g>
</svg>
