<?xml version="1.0" encoding="UTF-8" standalone="no"?>
<!DOCTYPE svg PUBLIC "-//W3C//DTD SVG 1.1//EN"
 "http://www.w3.org/Graphics/SVG/1.1/DTD/svg11.dtd">
<!-- Generated by graphviz version 2.43.0 (0)
 -->
<!-- Title: G Pages: 1 -->
<svg width="9184pt" height="2302pt"
 viewBox="0.00 0.00 9184.00 2302.00" xmlns="http://www.w3.org/2000/svg" xmlns:xlink="http://www.w3.org/1999/xlink">
<g id="graph0" class="graph" transform="scale(1 1) rotate(0) translate(4 2298)">
<title>G</title>
<polygon fill="#eeeeee" stroke="transparent" points="-4,4 -4,-2298 9180,-2298 9180,4 -4,4"/>
<g id="clust1" class="cluster">
<title>cluster_inputs</title>
<polygon fill="#eeeeee" stroke="black" stroke-dasharray="5,2" points="8,-1680.82 8,-2236.29 9112,-2236.29 9112,-1680.82 8,-1680.82"/>
<text text-anchor="middle" x="9045.5" y="-1688.62" font-family="Times,serif" font-size="14.00">Workflow Inputs</text>
</g>
<g id="clust2" class="cluster">
<title>cluster_outputs</title>
<polygon fill="#eeeeee" stroke="black" stroke-dasharray="5,2" points="3922,-57.71 3922,-613.18 4713,-613.18 4713,-57.71 3922,-57.71"/>
<text text-anchor="middle" x="4640.5" y="-65.51" font-family="Times,serif" font-size="14.00">Workflow Outputs</text>
</g>
<!-- output_prefix -->
<g id="node1" class="node">
<title>output_prefix</title>
<polygon fill="#94ddf4" stroke="black" points="16,-2023.21 16,-2060.21 128,-2060.21 128,-2023.21 16,-2023.21"/>
<text text-anchor="middle" x="72" y="-2038.01" font-family="Times,serif" font-size="14.00">output_prefix</text>
</g>
<!-- dragen_qc_step -->
<g id="node59" class="node">
<title>dragen_qc_step</title>
<polygon fill="lightgoldenrodyellow" stroke="black" points="2.5,-934.21 2.5,-971.21 141.5,-971.21 141.5,-934.21 2.5,-934.21"/>
<text text-anchor="middle" x="72" y="-949.01" font-family="Times,serif" font-size="14.00">multiqc v(1.14.0)</text>
</g>
<!-- output_prefix&#45;&gt;dragen_qc_step -->
<g id="edge7" class="edge">
<title>output_prefix&#45;&gt;dragen_qc_step</title>
<path fill="none" stroke="black" d="M68.24,-2023.2C55.57,-1897.86 55.26,-1137.77 67.32,-981.7"/>
<polygon fill="black" stroke="black" points="70.83,-981.8 68.21,-971.53 63.86,-981.19 70.83,-981.8"/>
</g>
<!-- output_prefix&#45;&gt;dragen_qc_step -->
<g id="edge8" class="edge">
<title>output_prefix&#45;&gt;dragen_qc_step</title>
<path fill="none" stroke="black" d="M72,-2023.2C72,-1897.86 72,-1137.77 72,-981.7"/>
<polygon fill="black" stroke="black" points="75.5,-981.53 72,-971.53 68.5,-981.53 75.5,-981.53"/>
</g>
<!-- output_prefix&#45;&gt;dragen_qc_step -->
<g id="edge9" class="edge">
<title>output_prefix&#45;&gt;dragen_qc_step</title>
<path fill="none" stroke="black" d="M75.76,-2023.2C88.43,-1897.86 88.74,-1137.77 76.68,-981.7"/>
<polygon fill="black" stroke="black" points="80.14,-981.19 75.79,-971.53 73.17,-981.8 80.14,-981.19"/>
</g>
<!-- run_dragen_germline_step -->
<g id="node60" class="node">
<title>run_dragen_germline_step</title>
<polygon fill="lightgoldenrodyellow" stroke="black" points="4439,-1467.21 4439,-1504.21 4633,-1504.21 4633,-1467.21 4439,-1467.21"/>
<text text-anchor="middle" x="4536" y="-1482.01" font-family="Times,serif" font-size="14.00">dragen&#45;germline v(4.2.4)</text>
</g>
<!-- output_prefix&#45;&gt;run_dragen_germline_step -->
<g id="edge10" class="edge">
<title>output_prefix&#45;&gt;run_dragen_germline_step</title>
<path fill="none" stroke="black" d="M82.36,-2023.21C93.45,-2012.23 110.95,-1998.85 129,-1991.71 949.23,-1667.44 3833.96,-1518.69 4428.4,-1491.39"/>
<polygon fill="black" stroke="black" points="4428.84,-1494.88 4438.67,-1490.92 4428.52,-1487.88 4428.84,-1494.88"/>
</g>
<!-- output_prefix&#45;&gt;run_dragen_germline_step -->
<g id="edge11" class="edge">
<title>output_prefix&#45;&gt;run_dragen_germline_step</title>
<path fill="none" stroke="black" d="M97.66,-2023.21C111.45,-2012.23 128.95,-1998.85 147,-1991.71 965.01,-1668.32 3836.36,-1519.5 4428.65,-1491.62"/>
<polygon fill="black" stroke="black" points="4429.06,-1495.1 4438.89,-1491.14 4428.73,-1488.11 4429.06,-1495.1"/>
</g>
<!-- bam_input -->
<g id="node2" class="node">
<title>bam_input</title>
<polygon fill="#94ddf4" stroke="black" points="8838,-2023.21 8838,-2060.21 8930,-2060.21 8930,-2023.21 8838,-2023.21"/>
<text text-anchor="middle" x="8884" y="-2038.01" font-family="Times,serif" font-size="14.00">bam_input</text>
</g>
<!-- bam_input&#45;&gt;run_dragen_germline_step -->
<g id="edge12" class="edge">
<title>bam_input&#45;&gt;run_dragen_germline_step</title>
<path fill="none" stroke="black" d="M8869.53,-2023.2C8859.39,-2012.22 8844.86,-1998.84 8829,-1991.71 8045.39,-1639.49 5229.39,-1513.35 4643.32,-1490.63"/>
<polygon fill="black" stroke="black" points="4643.32,-1487.13 4633.19,-1490.24 4643.05,-1494.13 4643.32,-1487.13"/>
</g>
<!-- cnv_enable_self_normalization -->
<g id="node3" class="node">
<title>cnv_enable_self_normalization</title>
<polygon fill="#94ddf4" stroke="black" points="8586.5,-2023.21 8586.5,-2060.21 8819.5,-2060.21 8819.5,-2023.21 8586.5,-2023.21"/>
<text text-anchor="middle" x="8703" y="-2038.01" font-family="Times,serif" font-size="14.00">cnv_enable_self_normalization</text>
</g>
<!-- cnv_enable_self_normalization&#45;&gt;run_dragen_germline_step -->
<g id="edge13" class="edge">
<title>cnv_enable_self_normalization&#45;&gt;run_dragen_germline_step</title>
<path fill="none" stroke="black" d="M8665.52,-2023.18C8641.1,-2012.47 8608.27,-1999.41 8578,-1991.71 7048.86,-1602.98 5115.07,-1508.25 4643.33,-1490.33"/>
<polygon fill="black" stroke="black" points="4643.25,-1486.82 4633.12,-1489.94 4642.99,-1493.82 4643.25,-1486.82"/>
</g>
<!-- cram_input -->
<g id="node4" class="node">
<title>cram_input</title>
<polygon fill="#94ddf4" stroke="black" points="8471.5,-2023.21 8471.5,-2060.21 8568.5,-2060.21 8568.5,-2023.21 8471.5,-2023.21"/>
<text text-anchor="middle" x="8520" y="-2038.01" font-family="Times,serif" font-size="14.00">cram_input</text>
</g>
<!-- cram_input&#45;&gt;run_dragen_germline_step -->
<g id="edge14" class="edge">
<title>cram_input&#45;&gt;run_dragen_germline_step</title>
<path fill="none" stroke="black" d="M8504.05,-2022.78C8493.3,-2011.92 8478.17,-1998.83 8462,-1991.71 7746.04,-1676.52 5198.51,-1522.54 4643.33,-1492.32"/>
<polygon fill="black" stroke="black" points="4643.51,-1488.82 4633.33,-1491.77 4643.13,-1495.81 4643.51,-1488.82"/>
</g>
<!-- cram_reference -->
<g id="node5" class="node">
<title>cram_reference</title>
<polygon fill="#94ddf4" stroke="black" points="8325,-2023.21 8325,-2060.21 8453,-2060.21 8453,-2023.21 8325,-2023.21"/>
<text text-anchor="middle" x="8389" y="-2038.01" font-family="Times,serif" font-size="14.00">cram_reference</text>
</g>
<!-- cram_reference&#45;&gt;run_dragen_germline_step -->
<g id="edge15" class="edge">
<title>cram_reference&#45;&gt;run_dragen_germline_step</title>
<path fill="none" stroke="black" d="M8368.41,-2023.11C8354.52,-2012.24 8335.27,-1999.01 8316,-1991.71 7613.28,-1725.61 5184.95,-1534.37 4643.57,-1494.45"/>
<polygon fill="black" stroke="black" points="4643.65,-1490.94 4633.42,-1493.7 4643.14,-1497.92 4643.65,-1490.94"/>
</g>
<!-- dbsnp_annotation -->
<g id="node6" class="node">
<title>dbsnp_annotation</title>
<polygon fill="#94ddf4" stroke="black" points="8163.5,-2023.21 8163.5,-2060.21 8306.5,-2060.21 8306.5,-2023.21 8163.5,-2023.21"/>
<text text-anchor="middle" x="8235" y="-2038.01" font-family="Times,serif" font-size="14.00">dbsnp_annotation</text>
</g>
<!-- dbsnp_annotation&#45;&gt;run_dragen_germline_step -->
<g id="edge16" class="edge">
<title>dbsnp_annotation&#45;&gt;run_dragen_germline_step</title>
<path fill="none" stroke="black" d="M8211.83,-2023.2C8196.29,-2012.36 8174.91,-1999.14 8154,-1991.71 6830.61,-1521.55 5089.55,-1486.91 4643.63,-1486.13"/>
<polygon fill="black" stroke="black" points="4643.34,-1482.63 4633.34,-1486.12 4643.34,-1489.63 4643.34,-1482.63"/>
</g>
<!-- dedup_min_qual -->
<g id="node7" class="node">
<title>dedup_min_qual</title>
<polygon fill="#94ddf4" stroke="black" points="8013,-2023.21 8013,-2060.21 8145,-2060.21 8145,-2023.21 8013,-2023.21"/>
<text text-anchor="middle" x="8079" y="-2038.01" font-family="Times,serif" font-size="14.00">dedup_min_qual</text>
</g>
<!-- dedup_min_qual&#45;&gt;run_dragen_germline_step -->
<g id="edge17" class="edge">
<title>dedup_min_qual&#45;&gt;run_dragen_germline_step</title>
<path fill="none" stroke="black" d="M8057.74,-2023.2C8043.42,-2012.36 8023.64,-1999.14 8004,-1991.71 6747.35,-1516.32 5078.23,-1485.31 4643.26,-1485.77"/>
<polygon fill="black" stroke="black" points="4643.21,-1482.27 4633.22,-1485.78 4643.22,-1489.27 4643.21,-1482.27"/>
</g>
<!-- enable_cnv -->
<g id="node8" class="node">
<title>enable_cnv</title>
<polygon fill="#94ddf4" stroke="black" points="7899.5,-2023.21 7899.5,-2060.21 7994.5,-2060.21 7994.5,-2023.21 7899.5,-2023.21"/>
<text text-anchor="middle" x="7947" y="-2038.01" font-family="Times,serif" font-size="14.00">enable_cnv</text>
</g>
<!-- enable_cnv&#45;&gt;run_dragen_germline_step -->
<g id="edge18" class="edge">
<title>enable_cnv&#45;&gt;run_dragen_germline_step</title>
<path fill="none" stroke="black" d="M7931.67,-2022.89C7921.31,-2012.08 7906.71,-1998.99 7891,-1991.71 7289.11,-1712.67 5148.76,-1533.69 4643.46,-1494.74"/>
<polygon fill="black" stroke="black" points="4643.5,-1491.23 4633.26,-1493.95 4642.96,-1498.21 4643.5,-1491.23"/>
</g>
<!-- enable_duplicate_marking -->
<g id="node9" class="node">
<title>enable_duplicate_marking</title>
<polygon fill="#94ddf4" stroke="black" points="7678.5,-2023.21 7678.5,-2060.21 7881.5,-2060.21 7881.5,-2023.21 7678.5,-2023.21"/>
<text text-anchor="middle" x="7780" y="-2038.01" font-family="Times,serif" font-size="14.00">enable_duplicate_marking</text>
</g>
<!-- enable_duplicate_marking&#45;&gt;run_dragen_germline_step -->
<g id="edge19" class="edge">
<title>enable_duplicate_marking&#45;&gt;run_dragen_germline_step</title>
<path fill="none" stroke="black" d="M7746.36,-2023.15C7724.78,-2012.58 7695.86,-1999.66 7669,-1991.71 6514.4,-1649.97 5047.74,-1523.67 4643.38,-1494.03"/>
<polygon fill="black" stroke="black" points="4643.39,-1490.52 4633.16,-1493.28 4642.88,-1497.5 4643.39,-1490.52"/>
</g>
<!-- enable_hla -->
<g id="node10" class="node">
<title>enable_hla</title>
<polygon fill="#94ddf4" stroke="black" points="7568,-2023.21 7568,-2060.21 7660,-2060.21 7660,-2023.21 7568,-2023.21"/>
<text text-anchor="middle" x="7614" y="-2038.01" font-family="Times,serif" font-size="14.00">enable_hla</text>
</g>
<!-- enable_hla&#45;&gt;run_dragen_germline_step -->
<g id="edge20" class="edge">
<title>enable_hla&#45;&gt;run_dragen_germline_step</title>
<path fill="none" stroke="black" d="M7598.96,-2022.98C7588.8,-2012.19 7574.46,-1999.11 7559,-1991.71 7022.62,-1734.82 5118.02,-1541.51 4643.62,-1496.62"/>
<polygon fill="black" stroke="black" points="4643.64,-1493.11 4633.36,-1495.65 4642.98,-1500.08 4643.64,-1493.11"/>
</g>
<!-- enable_map_align_output -->
<g id="node11" class="node">
<title>enable_map_align_output</title>
<polygon fill="#94ddf4" stroke="black" points="7352.5,-2023.21 7352.5,-2060.21 7549.5,-2060.21 7549.5,-2023.21 7352.5,-2023.21"/>
<text text-anchor="middle" x="7451" y="-2038.01" font-family="Times,serif" font-size="14.00">enable_map_align_output</text>
</g>
<!-- enable_map_align_output&#45;&gt;run_dragen_germline_step -->
<g id="edge21" class="edge">
<title>enable_map_align_output&#45;&gt;run_dragen_germline_step</title>
<path fill="none" stroke="black" d="M7417.79,-2023.05C7396.85,-2012.57 7368.95,-1999.79 7343,-1991.71 6319.97,-1673.04 5020.72,-1532.27 4643.27,-1496.35"/>
<polygon fill="black" stroke="black" points="4643.46,-1492.85 4633.18,-1495.39 4642.8,-1499.82 4643.46,-1492.85"/>
</g>
<!-- enable_sv -->
<g id="node12" class="node">
<title>enable_sv</title>
<polygon fill="#94ddf4" stroke="black" points="7248,-2023.21 7248,-2060.21 7334,-2060.21 7334,-2023.21 7248,-2023.21"/>
<text text-anchor="middle" x="7291" y="-2038.01" font-family="Times,serif" font-size="14.00">enable_sv</text>
</g>
<!-- enable_sv&#45;&gt;run_dragen_germline_step -->
<g id="edge22" class="edge">
<title>enable_sv&#45;&gt;run_dragen_germline_step</title>
<path fill="none" stroke="black" d="M7276.92,-2023.06C7267.37,-2012.31 7253.82,-1999.24 7239,-1991.71 6767.39,-1752.03 5086.44,-1548.85 4643.58,-1498.61"/>
<polygon fill="black" stroke="black" points="4643.68,-1495.1 4633.35,-1497.46 4642.89,-1502.06 4643.68,-1495.1"/>
</g>
<!-- fastq_list -->
<g id="node13" class="node">
<title>fastq_list</title>
<polygon fill="#94ddf4" stroke="black" points="7148,-2023.21 7148,-2060.21 7230,-2060.21 7230,-2023.21 7148,-2023.21"/>
<text text-anchor="middle" x="7189" y="-2038.01" font-family="Times,serif" font-size="14.00">fastq_list</text>
</g>
<!-- fastq_list&#45;&gt;run_dragen_germline_step -->
<g id="edge23" class="edge">
<title>fastq_list&#45;&gt;run_dragen_germline_step</title>
<path fill="none" stroke="black" d="M7175.58,-2023.09C7166.44,-2012.35 7153.42,-1999.28 7139,-1991.71 6259.48,-1529.95 5013.18,-1487.83 4643.38,-1486"/>
<polygon fill="black" stroke="black" points="4643.24,-1482.5 4633.22,-1485.96 4643.21,-1489.5 4643.24,-1482.5"/>
</g>
<!-- fastq_list_rows -->
<g id="node14" class="node">
<title>fastq_list_rows</title>
<polygon fill="#94ddf4" stroke="black" points="7006.5,-2023.21 7006.5,-2060.21 7129.5,-2060.21 7129.5,-2023.21 7006.5,-2023.21"/>
<text text-anchor="middle" x="7068" y="-2038.01" font-family="Times,serif" font-size="14.00">fastq_list_rows</text>
</g>
<!-- fastq_list_rows&#45;&gt;run_dragen_germline_step -->
<g id="edge24" class="edge">
<title>fastq_list_rows&#45;&gt;run_dragen_germline_step</title>
<path fill="none" stroke="black" d="M7047.27,-2023.06C7033.77,-2012.45 7015.32,-1999.53 6997,-1991.71 6138.17,-1625.33 4994.76,-1518.57 4643.29,-1493.43"/>
<polygon fill="black" stroke="black" points="4643.34,-1489.92 4633.12,-1492.71 4642.85,-1496.91 4643.34,-1489.92"/>
</g>
<!-- hla_allele_frequency_file -->
<g id="node15" class="node">
<title>hla_allele_frequency_file</title>
<polygon fill="#94ddf4" stroke="black" points="6798,-2023.21 6798,-2060.21 6988,-2060.21 6988,-2023.21 6798,-2023.21"/>
<text text-anchor="middle" x="6893" y="-2038.01" font-family="Times,serif" font-size="14.00">hla_allele_frequency_file</text>
</g>
<!-- hla_allele_frequency_file&#45;&gt;run_dragen_germline_step -->
<g id="edge25" class="edge">
<title>hla_allele_frequency_file&#45;&gt;run_dragen_germline_step</title>
<path fill="none" stroke="black" d="M6860.52,-2023.14C6840.39,-2012.83 6813.73,-2000.19 6789,-1991.71 5986.37,-1716.43 4970.65,-1551.11 4643.02,-1502.12"/>
<polygon fill="black" stroke="black" points="4643.47,-1498.65 4633.06,-1500.64 4642.44,-1505.58 4643.47,-1498.65"/>
</g>
<!-- hla_bed_file -->
<g id="node16" class="node">
<title>hla_bed_file</title>
<polygon fill="#94ddf4" stroke="black" points="6680,-2023.21 6680,-2060.21 6780,-2060.21 6780,-2023.21 6680,-2023.21"/>
<text text-anchor="middle" x="6730" y="-2038.01" font-family="Times,serif" font-size="14.00">hla_bed_file</text>
</g>
<!-- hla_bed_file&#45;&gt;run_dragen_germline_step -->
<g id="edge26" class="edge">
<title>hla_bed_file&#45;&gt;run_dragen_germline_step</title>
<path fill="none" stroke="black" d="M6712.95,-2022.88C6701.92,-2012.34 6686.73,-1999.56 6671,-1991.71 5951.33,-1632.76 4966.43,-1522.39 4643.39,-1494.73"/>
<polygon fill="black" stroke="black" points="4643.36,-1491.21 4633.1,-1493.86 4642.77,-1498.19 4643.36,-1491.21"/>
</g>
<!-- hla_min_reads -->
<g id="node17" class="node">
<title>hla_min_reads</title>
<polygon fill="#94ddf4" stroke="black" points="6542.5,-2023.21 6542.5,-2060.21 6661.5,-2060.21 6661.5,-2023.21 6542.5,-2023.21"/>
<text text-anchor="middle" x="6602" y="-2038.01" font-family="Times,serif" font-size="14.00">hla_min_reads</text>
</g>
<!-- hla_min_reads&#45;&gt;run_dragen_germline_step -->
<g id="edge27" class="edge">
<title>hla_min_reads&#45;&gt;run_dragen_germline_step</title>
<path fill="none" stroke="black" d="M6581.51,-2023.08C6568.4,-2012.61 6550.61,-1999.84 6533,-1991.71 5853.43,-1677.91 4950.12,-1539.65 4643.24,-1499.66"/>
<polygon fill="black" stroke="black" points="4643.38,-1496.15 4633.01,-1498.34 4642.48,-1503.09 4643.38,-1496.15"/>
</g>
<!-- hla_reference_file -->
<g id="node18" class="node">
<title>hla_reference_file</title>
<polygon fill="#94ddf4" stroke="black" points="6382,-2023.21 6382,-2060.21 6524,-2060.21 6524,-2023.21 6382,-2023.21"/>
<text text-anchor="middle" x="6453" y="-2038.01" font-family="Times,serif" font-size="14.00">hla_reference_file</text>
</g>
<!-- hla_reference_file&#45;&gt;run_dragen_germline_step -->
<g id="edge28" class="edge">
<title>hla_reference_file&#45;&gt;run_dragen_germline_step</title>
<path fill="none" stroke="black" d="M6428.41,-2023.14C6413.07,-2012.83 6392.58,-2000.19 6373,-1991.71 5744.84,-1719.5 4931.57,-1557.34 4643.16,-1505.22"/>
<polygon fill="black" stroke="black" points="4643.59,-1501.74 4633.13,-1503.42 4642.35,-1508.63 4643.59,-1501.74"/>
</g>
<!-- hla_tiebreaker_threshold -->
<g id="node19" class="node">
<title>hla_tiebreaker_threshold</title>
<polygon fill="#94ddf4" stroke="black" points="6170,-2023.21 6170,-2060.21 6364,-2060.21 6364,-2023.21 6170,-2023.21"/>
<text text-anchor="middle" x="6267" y="-2038.01" font-family="Times,serif" font-size="14.00">hla_tiebreaker_threshold</text>
</g>
<!-- hla_tiebreaker_threshold&#45;&gt;run_dragen_germline_step -->
<g id="edge29" class="edge">
<title>hla_tiebreaker_threshold&#45;&gt;run_dragen_germline_step</title>
<path fill="none" stroke="black" d="M6232.17,-2023.2C6211.72,-2013.28 6185.22,-2001.03 6161,-1991.71 5577.92,-1767.46 4849.35,-1569.11 4613.49,-1506.88"/>
<polygon fill="black" stroke="black" points="4614.2,-1503.45 4603.64,-1504.29 4612.42,-1510.22 4614.2,-1503.45"/>
</g>
<!-- hla_zygosity_threshold -->
<g id="node20" class="node">
<title>hla_zygosity_threshold</title>
<polygon fill="#94ddf4" stroke="black" points="5972.5,-2023.21 5972.5,-2060.21 6151.5,-2060.21 6151.5,-2023.21 5972.5,-2023.21"/>
<text text-anchor="middle" x="6062" y="-2038.01" font-family="Times,serif" font-size="14.00">hla_zygosity_threshold</text>
</g>
<!-- hla_zygosity_threshold&#45;&gt;run_dragen_germline_step -->
<g id="edge30" class="edge">
<title>hla_zygosity_threshold&#45;&gt;run_dragen_germline_step</title>
<path fill="none" stroke="black" d="M6029.36,-2023.12C6010.53,-2013.29 5986.23,-2001.16 5964,-1991.71 5451.74,-1774.05 4810.39,-1571.1 4603.58,-1507.32"/>
<polygon fill="black" stroke="black" points="4604.36,-1503.9 4593.77,-1504.3 4602.3,-1510.59 4604.36,-1503.9"/>
</g>
<!-- lic_instance_id_location -->
<g id="node21" class="node">
<title>lic_instance_id_location</title>
<polygon fill="#94ddf4" stroke="black" points="5771.5,-2023.21 5771.5,-2060.21 5954.5,-2060.21 5954.5,-2023.21 5771.5,-2023.21"/>
<text text-anchor="middle" x="5863" y="-2038.01" font-family="Times,serif" font-size="14.00">lic_instance_id_location</text>
</g>
<!-- lic_instance_id_location&#45;&gt;run_dragen_germline_step -->
<g id="edge31" class="edge">
<title>lic_instance_id_location&#45;&gt;run_dragen_germline_step</title>
<path fill="none" stroke="black" d="M5828.19,-2023.17C5808.83,-2013.59 5784.23,-2001.67 5762,-1991.71 5315.11,-1791.49 4764.36,-1575.32 4590.94,-1507.96"/>
<polygon fill="black" stroke="black" points="4592.1,-1504.65 4581.51,-1504.3 4589.57,-1511.18 4592.1,-1504.65"/>
</g>
<!-- qc_coverage_ignore_overlaps -->
<g id="node22" class="node">
<title>qc_coverage_ignore_overlaps</title>
<polygon fill="#94ddf4" stroke="black" points="5529,-2023.21 5529,-2060.21 5753,-2060.21 5753,-2023.21 5529,-2023.21"/>
<text text-anchor="middle" x="5641" y="-2038.01" font-family="Times,serif" font-size="14.00">qc_coverage_ignore_overlaps</text>
</g>
<!-- qc_coverage_ignore_overlaps&#45;&gt;run_dragen_germline_step -->
<g id="edge32" class="edge">
<title>qc_coverage_ignore_overlaps&#45;&gt;run_dragen_germline_step</title>
<path fill="none" stroke="black" d="M5605.8,-2023.06C5442.7,-1941.29 4760.81,-1599.42 4580.11,-1508.82"/>
<polygon fill="black" stroke="black" points="4581.65,-1505.68 4571.14,-1504.33 4578.51,-1511.94 4581.65,-1505.68"/>
</g>
<!-- qc_coverage_region_1 -->
<g id="node23" class="node">
<title>qc_coverage_region_1</title>
<polygon fill="#94ddf4" stroke="black" points="5337.5,-2023.21 5337.5,-2060.21 5510.5,-2060.21 5510.5,-2023.21 5337.5,-2023.21"/>
<text text-anchor="middle" x="5424" y="-2038.01" font-family="Times,serif" font-size="14.00">qc_coverage_region_1</text>
</g>
<!-- qc_coverage_region_1&#45;&gt;run_dragen_germline_step -->
<g id="edge33" class="edge">
<title>qc_coverage_region_1&#45;&gt;run_dragen_germline_step</title>
<path fill="none" stroke="black" d="M5395.46,-2022.91C5264.47,-1941.18 4720.89,-1602.06 4573.18,-1509.91"/>
<polygon fill="black" stroke="black" points="4574.77,-1506.77 4564.43,-1504.45 4571.07,-1512.71 4574.77,-1506.77"/>
</g>
<!-- qc_coverage_region_2 -->
<g id="node24" class="node">
<title>qc_coverage_region_2</title>
<polygon fill="#94ddf4" stroke="black" points="5146.5,-2023.21 5146.5,-2060.21 5319.5,-2060.21 5319.5,-2023.21 5146.5,-2023.21"/>
<text text-anchor="middle" x="5233" y="-2038.01" font-family="Times,serif" font-size="14.00">qc_coverage_region_2</text>
</g>
<!-- qc_coverage_region_2&#45;&gt;run_dragen_germline_step -->
<g id="edge34" class="edge">
<title>qc_coverage_region_2&#45;&gt;run_dragen_germline_step</title>
<path fill="none" stroke="black" d="M5210.6,-2022.91C5108.09,-1941.43 4683.67,-1604.08 4566.23,-1510.74"/>
<polygon fill="black" stroke="black" points="4568.32,-1507.93 4558.32,-1504.45 4563.97,-1513.41 4568.32,-1507.93"/>
</g>
<!-- qc_coverage_region_3 -->
<g id="node25" class="node">
<title>qc_coverage_region_3</title>
<polygon fill="#94ddf4" stroke="black" points="4955.5,-2023.21 4955.5,-2060.21 5128.5,-2060.21 5128.5,-2023.21 4955.5,-2023.21"/>
<text text-anchor="middle" x="5042" y="-2038.01" font-family="Times,serif" font-size="14.00">qc_coverage_region_3</text>
</g>
<!-- qc_coverage_region_3&#45;&gt;run_dragen_germline_step -->
<g id="edge35" class="edge">
<title>qc_coverage_region_3&#45;&gt;run_dragen_germline_step</title>
<path fill="none" stroke="black" d="M5025.74,-2022.91C4951.62,-1941.75 4645.66,-1606.78 4558.98,-1511.87"/>
<polygon fill="black" stroke="black" points="4561.53,-1509.47 4552.2,-1504.45 4556.36,-1514.19 4561.53,-1509.47"/>
</g>
<!-- reference_tar -->
<g id="node26" class="node">
<title>reference_tar</title>
<polygon fill="#94ddf4" stroke="black" points="4824.5,-2023.21 4824.5,-2060.21 4937.5,-2060.21 4937.5,-2023.21 4824.5,-2023.21"/>
<text text-anchor="middle" x="4881" y="-2038.01" font-family="Times,serif" font-size="14.00">reference_tar</text>
</g>
<!-- reference_tar&#45;&gt;run_dragen_germline_step -->
<g id="edge36" class="edge">
<title>reference_tar&#45;&gt;run_dragen_germline_step</title>
<path fill="none" stroke="black" d="M4869.91,-2022.91C4819.58,-1942.08 4612.44,-1609.46 4552.39,-1513.03"/>
<polygon fill="black" stroke="black" points="4555.3,-1511.09 4547.05,-1504.45 4549.36,-1514.79 4555.3,-1511.09"/>
</g>
<!-- sample_sex -->
<g id="node27" class="node">
<title>sample_sex</title>
<polygon fill="#94ddf4" stroke="black" points="4708,-2023.21 4708,-2060.21 4806,-2060.21 4806,-2023.21 4708,-2023.21"/>
<text text-anchor="middle" x="4757" y="-2038.01" font-family="Times,serif" font-size="14.00">sample_sex</text>
</g>
<!-- sample_sex&#45;&gt;run_dragen_germline_step -->
<g id="edge37" class="edge">
<title>sample_sex&#45;&gt;run_dragen_germline_step</title>
<path fill="none" stroke="black" d="M4749.9,-2022.91C4717.75,-1942.32 4585.77,-1611.47 4546.85,-1513.91"/>
<polygon fill="black" stroke="black" points="4550.03,-1512.44 4543.08,-1504.45 4543.53,-1515.03 4550.03,-1512.44"/>
</g>
<!-- sv_call_regions_bed -->
<g id="node28" class="node">
<title>sv_call_regions_bed</title>
<polygon fill="#94ddf4" stroke="black" points="4532.5,-2023.21 4532.5,-2060.21 4689.5,-2060.21 4689.5,-2023.21 4532.5,-2023.21"/>
<text text-anchor="middle" x="4611" y="-2038.01" font-family="Times,serif" font-size="14.00">sv_call_regions_bed</text>
</g>
<!-- sv_call_regions_bed&#45;&gt;run_dragen_germline_step -->
<g id="edge38" class="edge">
<title>sv_call_regions_bed&#45;&gt;run_dragen_germline_step</title>
<path fill="none" stroke="black" d="M4608.59,-2022.91C4597.7,-1942.49 4553.07,-1612.81 4539.76,-1514.5"/>
<polygon fill="black" stroke="black" points="4543.21,-1513.89 4538.4,-1504.45 4536.27,-1514.83 4543.21,-1513.89"/>
</g>
<!-- sv_discovery -->
<g id="node29" class="node">
<title>sv_discovery</title>
<polygon fill="#94ddf4" stroke="black" points="4407.5,-2023.21 4407.5,-2060.21 4514.5,-2060.21 4514.5,-2023.21 4407.5,-2023.21"/>
<text text-anchor="middle" x="4461" y="-2038.01" font-family="Times,serif" font-size="14.00">sv_discovery</text>
</g>
<!-- sv_discovery&#45;&gt;run_dragen_germline_step -->
<g id="edge39" class="edge">
<title>sv_discovery&#45;&gt;run_dragen_germline_step</title>
<path fill="none" stroke="black" d="M4463.41,-2022.91C4474.3,-1942.49 4518.93,-1612.81 4532.24,-1514.5"/>
<polygon fill="black" stroke="black" points="4535.73,-1514.83 4533.6,-1504.45 4528.79,-1513.89 4535.73,-1514.83"/>
</g>
<!-- sv_enable_liquid_tumor_mode -->
<g id="node30" class="node">
<title>sv_enable_liquid_tumor_mode</title>
<polygon fill="#94ddf4" stroke="black" points="4159,-2023.21 4159,-2060.21 4389,-2060.21 4389,-2023.21 4159,-2023.21"/>
<text text-anchor="middle" x="4274" y="-2038.01" font-family="Times,serif" font-size="14.00">sv_enable_liquid_tumor_mode</text>
</g>
<!-- sv_enable_liquid_tumor_mode&#45;&gt;run_dragen_germline_step -->
<g id="edge40" class="edge">
<title>sv_enable_liquid_tumor_mode&#45;&gt;run_dragen_germline_step</title>
<path fill="none" stroke="black" d="M4282.42,-2022.91C4320.57,-1942.24 4477.31,-1610.8 4523.28,-1513.61"/>
<polygon fill="black" stroke="black" points="4526.5,-1514.99 4527.61,-1504.45 4520.17,-1511.99 4526.5,-1514.99"/>
</g>
<!-- sv_exome -->
<g id="node31" class="node">
<title>sv_exome</title>
<polygon fill="#94ddf4" stroke="black" points="4055,-2023.21 4055,-2060.21 4141,-2060.21 4141,-2023.21 4055,-2023.21"/>
<text text-anchor="middle" x="4098" y="-2038.01" font-family="Times,serif" font-size="14.00">sv_exome</text>
</g>
<!-- sv_exome&#45;&gt;run_dragen_germline_step -->
<g id="edge41" class="edge">
<title>sv_exome&#45;&gt;run_dragen_germline_step</title>
<path fill="none" stroke="black" d="M4112.08,-2022.91C4176.11,-1941.91 4440.01,-1608.12 4515.65,-1512.45"/>
<polygon fill="black" stroke="black" points="4518.52,-1514.46 4521.98,-1504.45 4513.03,-1510.12 4518.52,-1514.46"/>
</g>
<!-- sv_forcegt_vcf -->
<g id="node32" class="node">
<title>sv_forcegt_vcf</title>
<polygon fill="#94ddf4" stroke="black" points="3919,-2023.21 3919,-2060.21 4037,-2060.21 4037,-2023.21 3919,-2023.21"/>
<text text-anchor="middle" x="3978" y="-2038.01" font-family="Times,serif" font-size="14.00">sv_forcegt_vcf</text>
</g>
<!-- sv_forcegt_vcf&#45;&gt;run_dragen_germline_step -->
<g id="edge42" class="edge">
<title>sv_forcegt_vcf&#45;&gt;run_dragen_germline_step</title>
<path fill="none" stroke="black" d="M3995.93,-2022.91C4077.76,-1941.67 4415.74,-1606.1 4510.94,-1511.59"/>
<polygon fill="black" stroke="black" points="4513.5,-1513.98 4518.13,-1504.45 4508.57,-1509.01 4513.5,-1513.98"/>
</g>
<!-- sv_output_contigs -->
<g id="node33" class="node">
<title>sv_output_contigs</title>
<polygon fill="#94ddf4" stroke="black" points="3755.5,-2023.21 3755.5,-2060.21 3900.5,-2060.21 3900.5,-2023.21 3755.5,-2023.21"/>
<text text-anchor="middle" x="3828" y="-2038.01" font-family="Times,serif" font-size="14.00">sv_output_contigs</text>
</g>
<!-- sv_output_contigs&#45;&gt;run_dragen_germline_step -->
<g id="edge43" class="edge">
<title>sv_output_contigs&#45;&gt;run_dragen_germline_step</title>
<path fill="none" stroke="black" d="M3850.75,-2022.91C3954.88,-1941.43 4386,-1604.08 4505.29,-1510.74"/>
<polygon fill="black" stroke="black" points="4507.61,-1513.37 4513.33,-1504.45 4503.3,-1507.86 4507.61,-1513.37"/>
</g>
<!-- sv_region -->
<g id="node34" class="node">
<title>sv_region</title>
<polygon fill="#94ddf4" stroke="black" points="3652.5,-2023.21 3652.5,-2060.21 3737.5,-2060.21 3737.5,-2023.21 3652.5,-2023.21"/>
<text text-anchor="middle" x="3695" y="-2038.01" font-family="Times,serif" font-size="14.00">sv_region</text>
</g>
<!-- sv_region&#45;&gt;run_dragen_germline_step -->
<g id="edge44" class="edge">
<title>sv_region&#45;&gt;run_dragen_germline_step</title>
<path fill="none" stroke="black" d="M3712.08,-2023.07C3721.89,-2013.34 3734.68,-2001.32 3747,-1991.71 4016.63,-1781.36 4375.63,-1575.86 4495.28,-1509.16"/>
<polygon fill="black" stroke="black" points="4497.1,-1512.15 4504.14,-1504.23 4493.7,-1506.03 4497.1,-1512.15"/>
</g>
<!-- sv_se_overlap_pair_evidence -->
<g id="node35" class="node">
<title>sv_se_overlap_pair_evidence</title>
<polygon fill="#94ddf4" stroke="black" points="3414,-2023.21 3414,-2060.21 3634,-2060.21 3634,-2023.21 3414,-2023.21"/>
<text text-anchor="middle" x="3524" y="-2038.01" font-family="Times,serif" font-size="14.00">sv_se_overlap_pair_evidence</text>
</g>
<!-- sv_se_overlap_pair_evidence&#45;&gt;run_dragen_germline_step -->
<g id="edge45" class="edge">
<title>sv_se_overlap_pair_evidence&#45;&gt;run_dragen_germline_step</title>
<path fill="none" stroke="black" d="M3556.24,-2023.06C3705.39,-1941.41 4328.25,-1600.44 4494.86,-1509.23"/>
<polygon fill="black" stroke="black" points="4496.72,-1512.2 4503.82,-1504.33 4493.36,-1506.06 4496.72,-1512.2"/>
</g>
<!-- sv_tin_contam_tolerance -->
<g id="node36" class="node">
<title>sv_tin_contam_tolerance</title>
<polygon fill="#94ddf4" stroke="black" points="3204.5,-2023.21 3204.5,-2060.21 3395.5,-2060.21 3395.5,-2023.21 3204.5,-2023.21"/>
<text text-anchor="middle" x="3300" y="-2038.01" font-family="Times,serif" font-size="14.00">sv_tin_contam_tolerance</text>
</g>
<!-- sv_tin_contam_tolerance&#45;&gt;run_dragen_germline_step -->
<g id="edge46" class="edge">
<title>sv_tin_contam_tolerance&#45;&gt;run_dragen_germline_step</title>
<path fill="none" stroke="black" d="M3337.35,-2023.1C3357.37,-2013.7 3382.49,-2001.99 3405,-1991.71 3821.98,-1801.34 4328.71,-1577.87 4486.62,-1508.41"/>
<polygon fill="black" stroke="black" points="4488.33,-1511.48 4496.07,-1504.25 4485.51,-1505.07 4488.33,-1511.48"/>
</g>
<!-- vc_decoy_contigs -->
<g id="node37" class="node">
<title>vc_decoy_contigs</title>
<polygon fill="#94ddf4" stroke="black" points="3047.5,-2023.21 3047.5,-2060.21 3186.5,-2060.21 3186.5,-2023.21 3047.5,-2023.21"/>
<text text-anchor="middle" x="3117" y="-2038.01" font-family="Times,serif" font-size="14.00">vc_decoy_contigs</text>
</g>
<!-- vc_decoy_contigs&#45;&gt;run_dragen_germline_step -->
<g id="edge47" class="edge">
<title>vc_decoy_contigs&#45;&gt;run_dragen_germline_step</title>
<path fill="none" stroke="black" d="M3142.6,-2023.06C3157.72,-2013.09 3177.47,-2000.84 3196,-1991.71 3664.77,-1760.74 4267.16,-1568.6 4467.69,-1507.24"/>
<polygon fill="black" stroke="black" points="4468.96,-1510.51 4477.5,-1504.24 4466.92,-1503.82 4468.96,-1510.51"/>
</g>
<!-- vc_enable_baf -->
<g id="node38" class="node">
<title>vc_enable_baf</title>
<polygon fill="#94ddf4" stroke="black" points="2913,-2023.21 2913,-2060.21 3029,-2060.21 3029,-2023.21 2913,-2023.21"/>
<text text-anchor="middle" x="2971" y="-2038.01" font-family="Times,serif" font-size="14.00">vc_enable_baf</text>
</g>
<!-- vc_enable_baf&#45;&gt;run_dragen_germline_step -->
<g id="edge48" class="edge">
<title>vc_enable_baf&#45;&gt;run_dragen_germline_step</title>
<path fill="none" stroke="black" d="M2991.98,-2023.07C3004.9,-2012.86 3022.18,-2000.36 3039,-1991.71 3544.01,-1732.07 4211.24,-1562.11 4448.05,-1506.58"/>
<polygon fill="black" stroke="black" points="4449.04,-1509.94 4457.99,-1504.26 4447.45,-1503.12 4449.04,-1509.94"/>
</g>
<!-- vc_enable_decoy_contigs -->
<g id="node39" class="node">
<title>vc_enable_decoy_contigs</title>
<polygon fill="#94ddf4" stroke="black" points="2701.5,-2023.21 2701.5,-2060.21 2894.5,-2060.21 2894.5,-2023.21 2701.5,-2023.21"/>
<text text-anchor="middle" x="2798" y="-2038.01" font-family="Times,serif" font-size="14.00">vc_enable_decoy_contigs</text>
</g>
<!-- vc_enable_decoy_contigs&#45;&gt;run_dragen_germline_step -->
<g id="edge49" class="edge">
<title>vc_enable_decoy_contigs&#45;&gt;run_dragen_germline_step</title>
<path fill="none" stroke="black" d="M2832.83,-2023.19C2853.27,-2013.26 2879.77,-2001.01 2904,-1991.71 3489.51,-1766.93 4221.27,-1568.93 4458.16,-1506.84"/>
<polygon fill="black" stroke="black" points="4459.28,-1510.16 4468.06,-1504.25 4457.5,-1503.39 4459.28,-1510.16"/>
</g>
<!-- vc_enable_gatk_acceleration -->
<g id="node40" class="node">
<title>vc_enable_gatk_acceleration</title>
<polygon fill="#94ddf4" stroke="black" points="2465,-2023.21 2465,-2060.21 2683,-2060.21 2683,-2023.21 2465,-2023.21"/>
<text text-anchor="middle" x="2574" y="-2038.01" font-family="Times,serif" font-size="14.00">vc_enable_gatk_acceleration</text>
</g>
<!-- vc_enable_gatk_acceleration&#45;&gt;run_dragen_germline_step -->
<g id="edge50" class="edge">
<title>vc_enable_gatk_acceleration&#45;&gt;run_dragen_germline_step</title>
<path fill="none" stroke="black" d="M2613.2,-2023.14C2636.19,-2013.2 2665.94,-2000.95 2693,-1991.71 3357.13,-1764.95 4182.05,-1568.14 4448.6,-1506.6"/>
<polygon fill="black" stroke="black" points="4449.65,-1509.96 4458.61,-1504.3 4448.08,-1503.13 4449.65,-1509.96"/>
</g>
<!-- vc_enable_phasing -->
<g id="node41" class="node">
<title>vc_enable_phasing</title>
<polygon fill="#94ddf4" stroke="black" points="2297.5,-2023.21 2297.5,-2060.21 2446.5,-2060.21 2446.5,-2023.21 2297.5,-2023.21"/>
<text text-anchor="middle" x="2372" y="-2038.01" font-family="Times,serif" font-size="14.00">vc_enable_phasing</text>
</g>
<!-- vc_enable_phasing&#45;&gt;run_dragen_germline_step -->
<g id="edge51" class="edge">
<title>vc_enable_phasing&#45;&gt;run_dragen_germline_step</title>
<path fill="none" stroke="black" d="M2397.85,-2022.99C2413.97,-2012.62 2435.49,-1999.98 2456,-1991.71 3179.9,-1699.95 4116.05,-1547.01 4428.91,-1501.49"/>
<polygon fill="black" stroke="black" points="4429.49,-1504.94 4438.88,-1500.04 4428.48,-1498.02 4429.49,-1504.94"/>
</g>
<!-- vc_enable_roh -->
<g id="node42" class="node">
<title>vc_enable_roh</title>
<polygon fill="#94ddf4" stroke="black" points="2162.5,-2023.21 2162.5,-2060.21 2279.5,-2060.21 2279.5,-2023.21 2162.5,-2023.21"/>
<text text-anchor="middle" x="2221" y="-2038.01" font-family="Times,serif" font-size="14.00">vc_enable_roh</text>
</g>
<!-- vc_enable_roh&#45;&gt;run_dragen_germline_step -->
<g id="edge52" class="edge">
<title>vc_enable_roh&#45;&gt;run_dragen_germline_step</title>
<path fill="none" stroke="black" d="M2240.79,-2023.14C2253.69,-2012.57 2271.35,-1999.65 2289,-1991.71 3062.45,-1643.76 4096.82,-1525.72 4428.73,-1495.47"/>
<polygon fill="black" stroke="black" points="4429.17,-1498.94 4438.82,-1494.56 4428.54,-1491.97 4429.17,-1498.94"/>
</g>
<!-- vc_enable_sex_chr_diploid -->
<g id="node43" class="node">
<title>vc_enable_sex_chr_diploid</title>
<polygon fill="#94ddf4" stroke="black" points="1941.5,-2023.21 1941.5,-2060.21 2144.5,-2060.21 2144.5,-2023.21 1941.5,-2023.21"/>
<text text-anchor="middle" x="2043" y="-2038.01" font-family="Times,serif" font-size="14.00">vc_enable_sex_chr_diploid</text>
</g>
<!-- vc_enable_sex_chr_diploid&#45;&gt;run_dragen_germline_step -->
<g id="edge53" class="edge">
<title>vc_enable_sex_chr_diploid&#45;&gt;run_dragen_germline_step</title>
<path fill="none" stroke="black" d="M2077.77,-2023.14C2099.29,-2012.82 2127.74,-2000.19 2154,-1991.71 3010.25,-1715.24 4089.31,-1549.41 4428.76,-1501.35"/>
<polygon fill="black" stroke="black" points="4429.42,-1504.8 4438.83,-1499.93 4428.44,-1497.86 4429.42,-1504.8"/>
</g>
<!-- vc_enable_vcf_output -->
<g id="node44" class="node">
<title>vc_enable_vcf_output</title>
<polygon fill="#94ddf4" stroke="black" points="1756,-2023.21 1756,-2060.21 1924,-2060.21 1924,-2023.21 1756,-2023.21"/>
<text text-anchor="middle" x="1840" y="-2038.01" font-family="Times,serif" font-size="14.00">vc_enable_vcf_output</text>
</g>
<!-- vc_enable_vcf_output&#45;&gt;run_dragen_germline_step -->
<g id="edge54" class="edge">
<title>vc_enable_vcf_output&#45;&gt;run_dragen_germline_step</title>
<path fill="none" stroke="black" d="M1868.33,-2022.99C1886.26,-2012.48 1910.28,-1999.71 1933,-1991.71 2866.35,-1663.36 4067.31,-1530.39 4428.6,-1496.18"/>
<polygon fill="black" stroke="black" points="4429.15,-1499.64 4438.78,-1495.22 4428.5,-1492.67 4429.15,-1499.64"/>
</g>
<!-- vc_haploid_call_af_threshold -->
<g id="node45" class="node">
<title>vc_haploid_call_af_threshold</title>
<polygon fill="#94ddf4" stroke="black" points="1520,-2023.21 1520,-2060.21 1738,-2060.21 1738,-2023.21 1520,-2023.21"/>
<text text-anchor="middle" x="1629" y="-2038.01" font-family="Times,serif" font-size="14.00">vc_haploid_call_af_threshold</text>
</g>
<!-- vc_haploid_call_af_threshold&#45;&gt;run_dragen_germline_step -->
<g id="edge55" class="edge">
<title>vc_haploid_call_af_threshold&#45;&gt;run_dragen_germline_step</title>
<path fill="none" stroke="black" d="M1665.47,-2023.18C1688.42,-2012.75 1718.91,-1999.98 1747,-1991.71 2767.62,-1691.19 4053.73,-1538.07 4428.81,-1497.73"/>
<polygon fill="black" stroke="black" points="4429.27,-1501.21 4438.84,-1496.66 4428.53,-1494.25 4429.27,-1501.21"/>
</g>
<!-- vc_hard_filter -->
<g id="node46" class="node">
<title>vc_hard_filter</title>
<polygon fill="#94ddf4" stroke="black" points="1388.5,-2023.21 1388.5,-2060.21 1501.5,-2060.21 1501.5,-2023.21 1388.5,-2023.21"/>
<text text-anchor="middle" x="1445" y="-2038.01" font-family="Times,serif" font-size="14.00">vc_hard_filter</text>
</g>
<!-- vc_hard_filter&#45;&gt;run_dragen_germline_step -->
<g id="edge56" class="edge">
<title>vc_hard_filter&#45;&gt;run_dragen_germline_step</title>
<path fill="none" stroke="black" d="M1463.69,-2023.03C1476.14,-2012.27 1493.4,-1999.19 1511,-1991.71 2581.29,-1536.64 4027.41,-1490.49 4428.82,-1486.74"/>
<polygon fill="black" stroke="black" points="4429,-1490.24 4438.97,-1486.66 4428.94,-1483.24 4429,-1490.24"/>
</g>
<!-- vc_max_reads_per_active_region -->
<g id="node47" class="node">
<title>vc_max_reads_per_active_region</title>
<polygon fill="#94ddf4" stroke="black" points="1122,-2023.21 1122,-2060.21 1370,-2060.21 1370,-2023.21 1122,-2023.21"/>
<text text-anchor="middle" x="1246" y="-2038.01" font-family="Times,serif" font-size="14.00">vc_max_reads_per_active_region</text>
</g>
<!-- vc_max_reads_per_active_region&#45;&gt;run_dragen_germline_step -->
<g id="edge57" class="edge">
<title>vc_max_reads_per_active_region&#45;&gt;run_dragen_germline_step</title>
<path fill="none" stroke="black" d="M1287.59,-2023.16C1313.72,-2012.72 1348.36,-1999.95 1380,-1991.71 2553.63,-1686.25 4023.59,-1534.28 4428.51,-1496.36"/>
<polygon fill="black" stroke="black" points="4429.11,-1499.82 4438.74,-1495.4 4428.46,-1492.85 4429.11,-1499.82"/>
</g>
<!-- vc_max_reads_per_raw_region -->
<g id="node48" class="node">
<title>vc_max_reads_per_raw_region</title>
<polygon fill="#94ddf4" stroke="black" points="870.5,-2023.21 870.5,-2060.21 1103.5,-2060.21 1103.5,-2023.21 870.5,-2023.21"/>
<text text-anchor="middle" x="987" y="-2038.01" font-family="Times,serif" font-size="14.00">vc_max_reads_per_raw_region</text>
</g>
<!-- vc_max_reads_per_raw_region&#45;&gt;run_dragen_germline_step -->
<g id="edge58" class="edge">
<title>vc_max_reads_per_raw_region&#45;&gt;run_dragen_germline_step</title>
<path fill="none" stroke="black" d="M1025.41,-2023.18C1049.99,-2012.61 1082.82,-1999.7 1113,-1991.71 2391.44,-1653.42 4002.48,-1523.5 4428.63,-1493.75"/>
<polygon fill="black" stroke="black" points="4429.04,-1497.22 4438.78,-1493.04 4428.56,-1490.24 4429.04,-1497.22"/>
</g>
<!-- vc_remove_all_soft_clips -->
<g id="node49" class="node">
<title>vc_remove_all_soft_clips</title>
<polygon fill="#94ddf4" stroke="black" points="662,-2023.21 662,-2060.21 852,-2060.21 852,-2023.21 662,-2023.21"/>
<text text-anchor="middle" x="757" y="-2038.01" font-family="Times,serif" font-size="14.00">vc_remove_all_soft_clips</text>
</g>
<!-- vc_remove_all_soft_clips&#45;&gt;run_dragen_germline_step -->
<g id="edge59" class="edge">
<title>vc_remove_all_soft_clips&#45;&gt;run_dragen_germline_step</title>
<path fill="none" stroke="black" d="M788.19,-2023.12C808.59,-2012.4 836.14,-1999.33 862,-1991.71 2229.98,-1588.53 3981.26,-1504.98 4428.37,-1489.79"/>
<polygon fill="black" stroke="black" points="4428.82,-1493.27 4438.69,-1489.44 4428.58,-1486.28 4428.82,-1493.27"/>
</g>
<!-- vc_roh_blacklist_bed -->
<g id="node50" class="node">
<title>vc_roh_blacklist_bed</title>
<polygon fill="#94ddf4" stroke="black" points="480.5,-2023.21 480.5,-2060.21 643.5,-2060.21 643.5,-2023.21 480.5,-2023.21"/>
<text text-anchor="middle" x="562" y="-2038.01" font-family="Times,serif" font-size="14.00">vc_roh_blacklist_bed</text>
</g>
<!-- vc_roh_blacklist_bed&#45;&gt;run_dragen_germline_step -->
<g id="edge60" class="edge">
<title>vc_roh_blacklist_bed&#45;&gt;run_dragen_germline_step</title>
<path fill="none" stroke="black" d="M588.32,-2023.2C605.9,-2012.36 629.94,-1999.14 653,-1991.71 2093.82,-1527.58 3965.89,-1488.79 4428.95,-1486.56"/>
<polygon fill="black" stroke="black" points="4428.98,-1490.06 4438.96,-1486.52 4428.95,-1483.06 4428.98,-1490.06"/>
</g>
<!-- vc_target_bed -->
<g id="node51" class="node">
<title>vc_target_bed</title>
<polygon fill="#94ddf4" stroke="black" points="346,-2023.21 346,-2060.21 462,-2060.21 462,-2023.21 346,-2023.21"/>
<text text-anchor="middle" x="404" y="-2038.01" font-family="Times,serif" font-size="14.00">vc_target_bed</text>
</g>
<!-- vc_target_bed&#45;&gt;run_dragen_germline_step -->
<g id="edge61" class="edge">
<title>vc_target_bed&#45;&gt;run_dragen_germline_step</title>
<path fill="none" stroke="black" d="M422.96,-2023.03C435.8,-2012.12 453.71,-1998.89 472,-1991.71 1226.81,-1695.45 3862.95,-1526.21 4428.6,-1492.84"/>
<polygon fill="black" stroke="black" points="4429.01,-1496.32 4438.79,-1492.24 4428.6,-1489.34 4429.01,-1496.32"/>
</g>
<!-- vc_target_bed_padding -->
<g id="node52" class="node">
<title>vc_target_bed_padding</title>
<polygon fill="#94ddf4" stroke="black" points="146.5,-2023.21 146.5,-2060.21 327.5,-2060.21 327.5,-2023.21 146.5,-2023.21"/>
<text text-anchor="middle" x="237" y="-2038.01" font-family="Times,serif" font-size="14.00">vc_target_bed_padding</text>
</g>
<!-- vc_target_bed_padding&#45;&gt;run_dragen_germline_step -->
<g id="edge62" class="edge">
<title>vc_target_bed_padding&#45;&gt;run_dragen_germline_step</title>
<path fill="none" stroke="black" d="M266.13,-2023.18C285.53,-2012.34 311.97,-1999.12 337,-1991.71 1913.02,-1525.43 3943.27,-1488.47 4428.47,-1486.54"/>
<polygon fill="black" stroke="black" points="4428.63,-1490.04 4438.62,-1486.51 4428.6,-1483.04 4428.63,-1490.04"/>
</g>
<!-- vc_target_coverage -->
<g id="node53" class="node">
<title>vc_target_coverage</title>
<polygon fill="#94ddf4" stroke="black" points="8948.5,-2023.21 8948.5,-2060.21 9103.5,-2060.21 9103.5,-2023.21 8948.5,-2023.21"/>
<text text-anchor="middle" x="9026" y="-2038.01" font-family="Times,serif" font-size="14.00">vc_target_coverage</text>
</g>
<!-- vc_target_coverage&#45;&gt;run_dragen_germline_step -->
<g id="edge63" class="edge">
<title>vc_target_coverage&#45;&gt;run_dragen_germline_step</title>
<path fill="none" stroke="black" d="M9000.98,-2023.06C8984.24,-2012.16 8961.26,-1998.93 8939,-1991.71 8100.42,-1719.79 5235.27,-1530.05 4643.47,-1493.24"/>
<polygon fill="black" stroke="black" points="4643.45,-1489.73 4633.25,-1492.6 4643.01,-1496.72 4643.45,-1489.73"/>
</g>
<!-- dragen_bam_out -->
<g id="node54" class="node">
<title>dragen_bam_out</title>
<polygon fill="#94ddf4" stroke="black" points="4146,-400.21 4146,-437.21 4280,-437.21 4280,-400.21 4146,-400.21"/>
<text text-anchor="middle" x="4213" y="-415.01" font-family="Times,serif" font-size="14.00">dragen_bam_out</text>
</g>
<!-- dragen_germline_output_directory -->
<g id="node55" class="node">
<title>dragen_germline_output_directory</title>
<polygon fill="#94ddf4" stroke="black" points="4298.5,-400.21 4298.5,-437.21 4561.5,-437.21 4561.5,-400.21 4298.5,-400.21"/>
<text text-anchor="middle" x="4430" y="-415.01" font-family="Times,serif" font-size="14.00">dragen_germline_output_directory</text>
</g>
<!-- dragen_vcf_out -->
<g id="node56" class="node">
<title>dragen_vcf_out</title>
<polygon fill="#94ddf4" stroke="black" points="4579.5,-400.21 4579.5,-437.21 4704.5,-437.21 4704.5,-400.21 4579.5,-400.21"/>
<text text-anchor="middle" x="4642" y="-415.01" font-family="Times,serif" font-size="14.00">dragen_vcf_out</text>
</g>
<!-- multiqc_output_directory -->
<g id="node57" class="node">
<title>multiqc_output_directory</title>
<polygon fill="#94ddf4" stroke="black" points="3930.5,-400.21 3930.5,-437.21 4127.5,-437.21 4127.5,-400.21 3930.5,-400.21"/>
<text text-anchor="middle" x="4029" y="-415.01" font-family="Times,serif" font-size="14.00">multiqc_output_directory</text>
</g>
<!-- create_dummy_file_step -->
<g id="node58" class="node">
<title>create_dummy_file_step</title>
<polygon fill="lightgoldenrodyellow" stroke="black" points="118.5,-1467.21 118.5,-1504.21 379.5,-1504.21 379.5,-1467.21 118.5,-1467.21"/>
<text text-anchor="middle" x="249" y="-1482.01" font-family="Times,serif" font-size="14.00">custom&#45;create&#45;dummy&#45;file v(1.0.0)</text>
</g>
<!-- create_dummy_file_step&#45;&gt;dragen_qc_step -->
<g id="edge1" class="edge">
<title>create_dummy_file_step&#45;&gt;dragen_qc_step</title>
<path fill="none" stroke="black" d="M243.11,-1467.04C217.15,-1389.16 112.82,-1076.18 81.16,-981.18"/>
<polygon fill="black" stroke="black" points="84.39,-979.82 77.91,-971.44 77.75,-982.04 84.39,-979.82"/>
</g>
<!-- dragen_qc_step&#45;&gt;multiqc_output_directory -->
<g id="edge2" class="edge">
<title>dragen_qc_step&#45;&gt;multiqc_output_directory</title>
<path fill="none" stroke="black" d="M141.52,-942.36C612.88,-878.99 3339.13,-512.46 3920.12,-434.35"/>
<polygon fill="black" stroke="black" points="3920.72,-437.8 3930.17,-433 3919.79,-430.86 3920.72,-437.8"/>
</g>
<!-- run_dragen_germline_step&#45;&gt;dragen_bam_out -->
<g id="edge4" class="edge">
<title>run_dragen_germline_step&#45;&gt;dragen_bam_out</title>
<path fill="none" stroke="black" d="M4530.66,-1467.11C4493.02,-1342.99 4267.61,-599.78 4221.31,-447.11"/>
<polygon fill="black" stroke="black" points="4224.66,-446.09 4218.41,-437.54 4217.96,-448.12 4224.66,-446.09"/>
</g>
<!-- run_dragen_germline_step&#45;&gt;dragen_germline_output_directory -->
<g id="edge5" class="edge">
<title>run_dragen_germline_step&#45;&gt;dragen_germline_output_directory</title>
<path fill="none" stroke="black" d="M4534.25,-1467.11C4521.91,-1343.11 4448.07,-601.26 4432.77,-447.57"/>
<polygon fill="black" stroke="black" points="4436.25,-447.14 4431.77,-437.54 4429.28,-447.84 4436.25,-447.14"/>
</g>
<!-- run_dragen_germline_step&#45;&gt;dragen_vcf_out -->
<g id="edge6" class="edge">
<title>run_dragen_germline_step&#45;&gt;dragen_vcf_out</title>
<path fill="none" stroke="black" d="M4537.75,-1467.11C4550.09,-1343.11 4623.93,-601.26 4639.23,-447.57"/>
<polygon fill="black" stroke="black" points="4642.72,-447.84 4640.23,-437.54 4635.75,-447.14 4642.72,-447.84"/>
</g>
<!-- run_dragen_germline_step&#45;&gt;dragen_qc_step -->
<g id="edge3" class="edge">
<title>run_dragen_germline_step&#45;&gt;dragen_qc_step</title>
<path fill="none" stroke="black" d="M4438.87,-1473.16C3843.45,-1402.33 694.42,-1027.75 151.69,-963.19"/>
<polygon fill="black" stroke="black" points="151.95,-959.7 141.61,-961.99 151.12,-966.65 151.95,-959.7"/>
</g>
<!-- \n -->
<g id="node61" class="node">
<title>\n</title>
<ellipse fill="none" stroke="black" cx="9149" cy="-2041.71" rx="27" ry="18"/>
</g>
</g>
</svg>
