<?xml version="1.0" encoding="UTF-8" standalone="no"?>
<!DOCTYPE svg PUBLIC "-//W3C//DTD SVG 1.1//EN"
 "http://www.w3.org/Graphics/SVG/1.1/DTD/svg11.dtd">
<!-- Generated by graphviz version 2.43.0 (0)
 -->
<!-- Title: G Pages: 1 -->
<svg width="9269pt" height="2332pt"
 viewBox="0.00 0.00 9268.50 2332.26" xmlns="http://www.w3.org/2000/svg" xmlns:xlink="http://www.w3.org/1999/xlink">
<g id="graph0" class="graph" transform="scale(1 1) rotate(0) translate(4 2328.26)">
<title>G</title>
<polygon fill="#eeeeee" stroke="transparent" points="-4,4 -4,-2328.26 9264.5,-2328.26 9264.5,4 -4,4"/>
<g id="clust1" class="cluster">
<title>cluster_inputs</title>
<polygon fill="#eeeeee" stroke="black" stroke-dasharray="5,2" points="8,-1703 8,-2265.79 9031,-2265.79 9031,-1703 8,-1703"/>
<text text-anchor="middle" x="8964.5" y="-1710.8" font-family="Times,serif" font-size="14.00">Workflow Inputs</text>
</g>
<g id="clust2" class="cluster">
<title>cluster_outputs</title>
<polygon fill="#eeeeee" stroke="black" stroke-dasharray="5,2" points="4657,-58.47 4657,-621.26 5447,-621.26 5447,-58.47 4657,-58.47"/>
<text text-anchor="middle" x="5374.5" y="-66.27" font-family="Times,serif" font-size="14.00">Workflow Outputs</text>
</g>
<!-- output_file_prefix -->
<g id="node1" class="node">
<title>output_file_prefix</title>
<polygon fill="#94ddf4" stroke="black" points="8883,-2049.97 8883,-2086.97 9023,-2086.97 9023,-2049.97 8883,-2049.97"/>
<text text-anchor="middle" x="8953" y="-2064.77" font-family="Times,serif" font-size="14.00">output_file_prefix</text>
</g>
<!-- run_dragen_germline_step -->
<g id="node57" class="node">
<title>run_dragen_germline_step</title>
<polygon fill="lightgoldenrodyellow" stroke="black" points="4765,-1486.97 4765,-1523.97 4959,-1523.97 4959,-1486.97 4765,-1486.97"/>
<text text-anchor="middle" x="4862" y="-1501.77" font-family="Times,serif" font-size="14.00">dragen&#45;germline v(4.2.4)</text>
</g>
<!-- output_file_prefix&#45;&gt;run_dragen_germline_step -->
<g id="edge7" class="edge">
<title>output_file_prefix&#45;&gt;run_dragen_germline_step</title>
<path fill="none" stroke="black" d="M8930.5,-2049.86C8915.38,-2038.99 8894.53,-2025.76 8874,-2018.47 8120.12,-1750.9 5530,-1554.04 4969.51,-1513.98"/>
<polygon fill="black" stroke="black" points="4969.64,-1510.48 4959.42,-1513.26 4969.14,-1517.46 4969.64,-1510.48"/>
</g>
<!-- dragen_qc_step -->
<g id="node58" class="node">
<title>dragen_qc_step</title>
<polygon fill="lightgoldenrodyellow" stroke="black" points="8883.5,-945.97 8883.5,-982.97 9022.5,-982.97 9022.5,-945.97 8883.5,-945.97"/>
<text text-anchor="middle" x="8953" y="-960.77" font-family="Times,serif" font-size="14.00">multiqc v(1.14.0)</text>
</g>
<!-- output_file_prefix&#45;&gt;dragen_qc_step -->
<g id="edge8" class="edge">
<title>output_file_prefix&#45;&gt;dragen_qc_step</title>
<path fill="none" stroke="black" d="M8949.24,-2049.72C8936.55,-1922.51 8936.26,-1150.43 8948.36,-993.35"/>
<polygon fill="black" stroke="black" points="8951.87,-993.39 8949.26,-983.12 8944.9,-992.78 8951.87,-993.39"/>
</g>
<!-- output_file_prefix&#45;&gt;dragen_qc_step -->
<g id="edge9" class="edge">
<title>output_file_prefix&#45;&gt;dragen_qc_step</title>
<path fill="none" stroke="black" d="M8953,-2049.72C8953,-1922.51 8953,-1150.43 8953,-993.35"/>
<polygon fill="black" stroke="black" points="8956.5,-993.12 8953,-983.12 8949.5,-993.12 8956.5,-993.12"/>
</g>
<!-- output_file_prefix&#45;&gt;dragen_qc_step -->
<g id="edge10" class="edge">
<title>output_file_prefix&#45;&gt;dragen_qc_step</title>
<path fill="none" stroke="black" d="M8956.76,-2049.72C8969.45,-1922.51 8969.74,-1150.43 8957.64,-993.35"/>
<polygon fill="black" stroke="black" points="8961.1,-992.78 8956.74,-983.12 8954.13,-993.39 8961.1,-992.78"/>
</g>
<!-- bam_input -->
<g id="node2" class="node">
<title>bam_input</title>
<polygon fill="#94ddf4" stroke="black" points="8773,-2049.97 8773,-2086.97 8865,-2086.97 8865,-2049.97 8773,-2049.97"/>
<text text-anchor="middle" x="8819" y="-2064.77" font-family="Times,serif" font-size="14.00">bam_input</text>
</g>
<!-- bam_input&#45;&gt;run_dragen_germline_step -->
<g id="edge11" class="edge">
<title>bam_input&#45;&gt;run_dragen_germline_step</title>
<path fill="none" stroke="black" d="M8804.05,-2049.55C8793.92,-2038.69 8779.58,-2025.6 8764,-2018.47 8057.14,-1695.04 5524.06,-1542.07 4969.7,-1512.05"/>
<polygon fill="black" stroke="black" points="4969.49,-1508.54 4959.32,-1511.49 4969.12,-1515.53 4969.49,-1508.54"/>
</g>
<!-- cnv_enable_self_normalization -->
<g id="node3" class="node">
<title>cnv_enable_self_normalization</title>
<polygon fill="#94ddf4" stroke="black" points="8521.5,-2049.97 8521.5,-2086.97 8754.5,-2086.97 8754.5,-2049.97 8521.5,-2049.97"/>
<text text-anchor="middle" x="8638" y="-2064.77" font-family="Times,serif" font-size="14.00">cnv_enable_self_normalization</text>
</g>
<!-- cnv_enable_self_normalization&#45;&gt;run_dragen_germline_step -->
<g id="edge12" class="edge">
<title>cnv_enable_self_normalization&#45;&gt;run_dragen_germline_step</title>
<path fill="none" stroke="black" d="M8599.93,-2049.85C8575.56,-2039.25 8542.99,-2026.34 8513,-2018.47 7142.76,-1659.15 5412.94,-1538.44 4969.42,-1512.33"/>
<polygon fill="black" stroke="black" points="4969.37,-1508.82 4959.18,-1511.73 4968.96,-1515.81 4969.37,-1508.82"/>
</g>
<!-- dbsnp_annotation -->
<g id="node4" class="node">
<title>dbsnp_annotation</title>
<polygon fill="#94ddf4" stroke="black" points="8360.5,-2049.97 8360.5,-2086.97 8503.5,-2086.97 8503.5,-2049.97 8360.5,-2049.97"/>
<text text-anchor="middle" x="8432" y="-2064.77" font-family="Times,serif" font-size="14.00">dbsnp_annotation</text>
</g>
<!-- dbsnp_annotation&#45;&gt;run_dragen_germline_step -->
<g id="edge13" class="edge">
<title>dbsnp_annotation&#45;&gt;run_dragen_germline_step</title>
<path fill="none" stroke="black" d="M8408.47,-2049.77C8392.95,-2038.99 8371.73,-2025.92 8351,-2018.47 7078.33,-1561.29 5404.36,-1511.88 4969.09,-1506.92"/>
<polygon fill="black" stroke="black" points="4969.07,-1503.42 4959.04,-1506.81 4969,-1510.42 4969.07,-1503.42"/>
</g>
<!-- dedup_min_qual -->
<g id="node5" class="node">
<title>dedup_min_qual</title>
<polygon fill="#94ddf4" stroke="black" points="8210,-2049.97 8210,-2086.97 8342,-2086.97 8342,-2049.97 8210,-2049.97"/>
<text text-anchor="middle" x="8276" y="-2064.77" font-family="Times,serif" font-size="14.00">dedup_min_qual</text>
</g>
<!-- dedup_min_qual&#45;&gt;run_dragen_germline_step -->
<g id="edge14" class="edge">
<title>dedup_min_qual&#45;&gt;run_dragen_germline_step</title>
<path fill="none" stroke="black" d="M8254.4,-2049.77C8240.1,-2039 8220.47,-2025.92 8201,-2018.47 6995.16,-1557.09 5393.98,-1510.61 4969.16,-1506.64"/>
<polygon fill="black" stroke="black" points="4969.08,-1503.14 4959.05,-1506.55 4969.01,-1510.14 4969.08,-1503.14"/>
</g>
<!-- enable_cnv -->
<g id="node6" class="node">
<title>enable_cnv</title>
<polygon fill="#94ddf4" stroke="black" points="8096.5,-2049.97 8096.5,-2086.97 8191.5,-2086.97 8191.5,-2049.97 8096.5,-2049.97"/>
<text text-anchor="middle" x="8144" y="-2064.77" font-family="Times,serif" font-size="14.00">enable_cnv</text>
</g>
<!-- enable_cnv&#45;&gt;run_dragen_germline_step -->
<g id="edge15" class="edge">
<title>enable_cnv&#45;&gt;run_dragen_germline_step</title>
<path fill="none" stroke="black" d="M8128.65,-2049.7C8118.28,-2038.9 8103.68,-2025.82 8088,-2018.47 7511.19,-1748.25 5462.5,-1558.01 4969.35,-1515.47"/>
<polygon fill="black" stroke="black" points="4969.3,-1511.95 4959.04,-1514.58 4968.7,-1518.93 4969.3,-1511.95"/>
</g>
<!-- enable_duplicate_marking -->
<g id="node7" class="node">
<title>enable_duplicate_marking</title>
<polygon fill="#94ddf4" stroke="black" points="7875.5,-2049.97 7875.5,-2086.97 8078.5,-2086.97 8078.5,-2049.97 7875.5,-2049.97"/>
<text text-anchor="middle" x="7977" y="-2064.77" font-family="Times,serif" font-size="14.00">enable_duplicate_marking</text>
</g>
<!-- enable_duplicate_marking&#45;&gt;run_dragen_germline_step -->
<g id="edge16" class="edge">
<title>enable_duplicate_marking&#45;&gt;run_dragen_germline_step</title>
<path fill="none" stroke="black" d="M7942.84,-2049.76C7921.31,-2039.26 7892.63,-2026.48 7866,-2018.47 6763.13,-1686.64 5363.68,-1548.93 4969.57,-1515.14"/>
<polygon fill="black" stroke="black" points="4969.58,-1511.63 4959.32,-1514.27 4968.99,-1518.61 4969.58,-1511.63"/>
</g>
<!-- enable_hla -->
<g id="node8" class="node">
<title>enable_hla</title>
<polygon fill="#94ddf4" stroke="black" points="7765,-2049.97 7765,-2086.97 7857,-2086.97 7857,-2049.97 7765,-2049.97"/>
<text text-anchor="middle" x="7811" y="-2064.77" font-family="Times,serif" font-size="14.00">enable_hla</text>
</g>
<!-- enable_hla&#45;&gt;run_dragen_germline_step -->
<g id="edge17" class="edge">
<title>enable_hla&#45;&gt;run_dragen_germline_step</title>
<path fill="none" stroke="black" d="M7795.94,-2049.79C7785.77,-2039.02 7771.42,-2025.95 7756,-2018.47 7244.41,-1770.44 5430.39,-1566.24 4969.24,-1517.52"/>
<polygon fill="black" stroke="black" points="4969.57,-1514.04 4959.26,-1516.47 4968.84,-1521 4969.57,-1514.04"/>
</g>
<!-- enable_map_align_output -->
<g id="node9" class="node">
<title>enable_map_align_output</title>
<polygon fill="#94ddf4" stroke="black" points="7549.5,-2049.97 7549.5,-2086.97 7746.5,-2086.97 7746.5,-2049.97 7549.5,-2049.97"/>
<text text-anchor="middle" x="7648" y="-2064.77" font-family="Times,serif" font-size="14.00">enable_map_align_output</text>
</g>
<!-- enable_map_align_output&#45;&gt;run_dragen_germline_step -->
<g id="edge18" class="edge">
<title>enable_map_align_output&#45;&gt;run_dragen_germline_step</title>
<path fill="none" stroke="black" d="M7614.76,-2049.91C7593.81,-2039.47 7565.9,-2026.7 7540,-2018.47 6568.11,-1709.91 5335.6,-1558.1 4969.27,-1517.73"/>
<polygon fill="black" stroke="black" points="4969.54,-1514.24 4959.21,-1516.62 4968.77,-1521.19 4969.54,-1514.24"/>
</g>
<!-- enable_sv -->
<g id="node10" class="node">
<title>enable_sv</title>
<polygon fill="#94ddf4" stroke="black" points="7445,-2049.97 7445,-2086.97 7531,-2086.97 7531,-2049.97 7445,-2049.97"/>
<text text-anchor="middle" x="7488" y="-2064.77" font-family="Times,serif" font-size="14.00">enable_sv</text>
</g>
<!-- enable_sv&#45;&gt;run_dragen_germline_step -->
<g id="edge19" class="edge">
<title>enable_sv&#45;&gt;run_dragen_germline_step</title>
<path fill="none" stroke="black" d="M7473.89,-2049.88C7464.33,-2039.16 7450.77,-2026.09 7436,-2018.47 6563.1,-1568.43 5335.37,-1513.27 4969.13,-1507.07"/>
<polygon fill="black" stroke="black" points="4969.13,-1503.57 4959.07,-1506.91 4969.01,-1510.57 4969.13,-1503.57"/>
</g>
<!-- fastq_list -->
<g id="node11" class="node">
<title>fastq_list</title>
<polygon fill="#94ddf4" stroke="black" points="7345,-2049.97 7345,-2086.97 7427,-2086.97 7427,-2049.97 7345,-2049.97"/>
<text text-anchor="middle" x="7386" y="-2064.77" font-family="Times,serif" font-size="14.00">fastq_list</text>
</g>
<!-- fastq_list&#45;&gt;run_dragen_germline_step -->
<g id="edge20" class="edge">
<title>fastq_list&#45;&gt;run_dragen_germline_step</title>
<path fill="none" stroke="black" d="M7372.55,-2049.91C7363.4,-2039.2 7350.37,-2026.13 7336,-2018.47 6504.77,-1575.44 5327.19,-1515.41 4969.27,-1507.56"/>
<polygon fill="black" stroke="black" points="4969.24,-1504.06 4959.17,-1507.35 4969.1,-1511.06 4969.24,-1504.06"/>
</g>
<!-- fastq_list_rows -->
<g id="node12" class="node">
<title>fastq_list_rows</title>
<polygon fill="#94ddf4" stroke="black" points="7203.5,-2049.97 7203.5,-2086.97 7326.5,-2086.97 7326.5,-2049.97 7203.5,-2049.97"/>
<text text-anchor="middle" x="7265" y="-2064.77" font-family="Times,serif" font-size="14.00">fastq_list_rows</text>
</g>
<!-- fastq_list_rows&#45;&gt;run_dragen_germline_step -->
<g id="edge21" class="edge">
<title>fastq_list_rows&#45;&gt;run_dragen_germline_step</title>
<path fill="none" stroke="black" d="M7244.23,-2049.91C7230.72,-2039.33 7212.27,-2026.41 7194,-2018.47 6384.66,-1666.61 5308.52,-1545.87 4969.18,-1515.2"/>
<polygon fill="black" stroke="black" points="4969.38,-1511.7 4959.11,-1514.3 4968.76,-1518.68 4969.38,-1511.7"/>
</g>
<!-- hla_allele_frequency_file -->
<g id="node13" class="node">
<title>hla_allele_frequency_file</title>
<polygon fill="#94ddf4" stroke="black" points="6995,-2049.97 6995,-2086.97 7185,-2086.97 7185,-2049.97 6995,-2049.97"/>
<text text-anchor="middle" x="7090" y="-2064.77" font-family="Times,serif" font-size="14.00">hla_allele_frequency_file</text>
</g>
<!-- hla_allele_frequency_file&#45;&gt;run_dragen_germline_step -->
<g id="edge22" class="edge">
<title>hla_allele_frequency_file&#45;&gt;run_dragen_germline_step</title>
<path fill="none" stroke="black" d="M7057.01,-2049.81C7036.91,-2039.59 7010.48,-2027.09 6986,-2018.47 6233.63,-1753.66 5284.19,-1578.44 4969.05,-1524.29"/>
<polygon fill="black" stroke="black" points="4969.46,-1520.81 4959.01,-1522.57 4968.28,-1527.71 4969.46,-1520.81"/>
</g>
<!-- hla_bed_file -->
<g id="node14" class="node">
<title>hla_bed_file</title>
<polygon fill="#94ddf4" stroke="black" points="6877,-2049.97 6877,-2086.97 6977,-2086.97 6977,-2049.97 6877,-2049.97"/>
<text text-anchor="middle" x="6927" y="-2064.77" font-family="Times,serif" font-size="14.00">hla_bed_file</text>
</g>
<!-- hla_bed_file&#45;&gt;run_dragen_germline_step -->
<g id="edge23" class="edge">
<title>hla_bed_file&#45;&gt;run_dragen_germline_step</title>
<path fill="none" stroke="black" d="M6909.9,-2049.74C6898.86,-2039.23 6883.66,-2026.46 6868,-2018.47 6196.77,-1676.26 5279.81,-1551.19 4969.58,-1517.1"/>
<polygon fill="black" stroke="black" points="4969.57,-1513.58 4959.25,-1515.98 4968.81,-1520.54 4969.57,-1513.58"/>
</g>
<!-- hla_min_reads -->
<g id="node15" class="node">
<title>hla_min_reads</title>
<polygon fill="#94ddf4" stroke="black" points="6739.5,-2049.97 6739.5,-2086.97 6858.5,-2086.97 6858.5,-2049.97 6739.5,-2049.97"/>
<text text-anchor="middle" x="6799" y="-2064.77" font-family="Times,serif" font-size="14.00">hla_min_reads</text>
</g>
<!-- hla_min_reads&#45;&gt;run_dragen_germline_step -->
<g id="edge24" class="edge">
<title>hla_min_reads&#45;&gt;run_dragen_germline_step</title>
<path fill="none" stroke="black" d="M6778.45,-2049.97C6765.32,-2039.54 6747.53,-2026.78 6730,-2018.47 6099.15,-1719.54 5263.02,-1568.74 4969.41,-1522.4"/>
<polygon fill="black" stroke="black" points="4969.62,-1518.89 4959.2,-1520.8 4968.53,-1525.8 4969.62,-1518.89"/>
</g>
<!-- hla_reference_file -->
<g id="node16" class="node">
<title>hla_reference_file</title>
<polygon fill="#94ddf4" stroke="black" points="6579,-2049.97 6579,-2086.97 6721,-2086.97 6721,-2049.97 6579,-2049.97"/>
<text text-anchor="middle" x="6650" y="-2064.77" font-family="Times,serif" font-size="14.00">hla_reference_file</text>
</g>
<!-- hla_reference_file&#45;&gt;run_dragen_germline_step -->
<g id="edge25" class="edge">
<title>hla_reference_file&#45;&gt;run_dragen_germline_step</title>
<path fill="none" stroke="black" d="M6624.99,-2049.83C6609.66,-2039.61 6589.33,-2027.11 6570,-2018.47 5982.66,-1755.9 5223.28,-1582.21 4958.28,-1526.15"/>
<polygon fill="black" stroke="black" points="4958.82,-1522.68 4948.31,-1524.04 4957.37,-1529.53 4958.82,-1522.68"/>
</g>
<!-- hla_tiebreaker_threshold -->
<g id="node17" class="node">
<title>hla_tiebreaker_threshold</title>
<polygon fill="#94ddf4" stroke="black" points="6367,-2049.97 6367,-2086.97 6561,-2086.97 6561,-2049.97 6367,-2049.97"/>
<text text-anchor="middle" x="6464" y="-2064.77" font-family="Times,serif" font-size="14.00">hla_tiebreaker_threshold</text>
</g>
<!-- hla_tiebreaker_threshold&#45;&gt;run_dragen_germline_step -->
<g id="edge26" class="edge">
<title>hla_tiebreaker_threshold&#45;&gt;run_dragen_germline_step</title>
<path fill="none" stroke="black" d="M6428.1,-2049.75C6407.76,-2040 6381.71,-2027.98 6358,-2018.47 5816.57,-1801.35 5143.2,-1591.9 4930,-1526.99"/>
<polygon fill="black" stroke="black" points="4930.78,-1523.57 4920.2,-1524.01 4928.75,-1530.27 4930.78,-1523.57"/>
</g>
<!-- hla_zygosity_threshold -->
<g id="node18" class="node">
<title>hla_zygosity_threshold</title>
<polygon fill="#94ddf4" stroke="black" points="6169.5,-2049.97 6169.5,-2086.97 6348.5,-2086.97 6348.5,-2049.97 6169.5,-2049.97"/>
<text text-anchor="middle" x="6259" y="-2064.77" font-family="Times,serif" font-size="14.00">hla_zygosity_threshold</text>
</g>
<!-- hla_zygosity_threshold&#45;&gt;run_dragen_germline_step -->
<g id="edge27" class="edge">
<title>hla_zygosity_threshold&#45;&gt;run_dragen_germline_step</title>
<path fill="none" stroke="black" d="M6225.79,-2049.95C6206.97,-2040.26 6182.89,-2028.24 6161,-2018.47 5690.13,-1808.45 5105.01,-1593.99 4920.52,-1527.44"/>
<polygon fill="black" stroke="black" points="4921.6,-1524.11 4911,-1524.01 4919.22,-1530.69 4921.6,-1524.11"/>
</g>
<!-- lic_instance_id_location -->
<g id="node19" class="node">
<title>lic_instance_id_location</title>
<polygon fill="#94ddf4" stroke="black" points="5968.5,-2049.97 5968.5,-2086.97 6151.5,-2086.97 6151.5,-2049.97 5968.5,-2049.97"/>
<text text-anchor="middle" x="6060" y="-2064.77" font-family="Times,serif" font-size="14.00">lic_instance_id_location</text>
</g>
<!-- lic_instance_id_location&#45;&gt;run_dragen_germline_step -->
<g id="edge28" class="edge">
<title>lic_instance_id_location&#45;&gt;run_dragen_germline_step</title>
<path fill="none" stroke="black" d="M6024.07,-2049.88C6004.81,-2040.49 5980.65,-2028.77 5959,-2018.47 5554.23,-1825.84 5062.47,-1598.8 4909.63,-1528.39"/>
<polygon fill="black" stroke="black" points="4911.02,-1525.18 4900.48,-1524.18 4908.09,-1531.54 4911.02,-1525.18"/>
</g>
<!-- output_directory -->
<g id="node20" class="node">
<title>output_directory</title>
<polygon fill="#94ddf4" stroke="black" points="5814,-2049.97 5814,-2086.97 5950,-2086.97 5950,-2049.97 5814,-2049.97"/>
<text text-anchor="middle" x="5882" y="-2064.77" font-family="Times,serif" font-size="14.00">output_directory</text>
</g>
<!-- output_directory&#45;&gt;run_dragen_germline_step -->
<g id="edge29" class="edge">
<title>output_directory&#45;&gt;run_dragen_germline_step</title>
<path fill="none" stroke="black" d="M5855.2,-2049.77C5840.53,-2040.25 5821.93,-2028.44 5805,-2018.47 5464.41,-1817.96 5040.68,-1598.15 4905.53,-1528.74"/>
<polygon fill="black" stroke="black" points="4906.8,-1525.45 4896.3,-1524 4903.6,-1531.68 4906.8,-1525.45"/>
</g>
<!-- qc_coverage_ignore_overlaps -->
<g id="node21" class="node">
<title>qc_coverage_ignore_overlaps</title>
<polygon fill="#94ddf4" stroke="black" points="5572,-2049.97 5572,-2086.97 5796,-2086.97 5796,-2049.97 5572,-2049.97"/>
<text text-anchor="middle" x="5684" y="-2064.77" font-family="Times,serif" font-size="14.00">qc_coverage_ignore_overlaps</text>
</g>
<!-- qc_coverage_ignore_overlaps&#45;&gt;run_dragen_germline_step -->
<g id="edge30" class="edge">
<title>qc_coverage_ignore_overlaps&#45;&gt;run_dragen_germline_step</title>
<path fill="none" stroke="black" d="M5658.04,-2049.76C5537.61,-1967.56 5033.38,-1623.44 4896.45,-1529.98"/>
<polygon fill="black" stroke="black" points="4898.2,-1526.94 4887.96,-1524.19 4894.25,-1532.72 4898.2,-1526.94"/>
</g>
<!-- qc_coverage_region_1 -->
<g id="node22" class="node">
<title>qc_coverage_region_1</title>
<polygon fill="#94ddf4" stroke="black" points="5380.5,-2049.97 5380.5,-2086.97 5553.5,-2086.97 5553.5,-2049.97 5380.5,-2049.97"/>
<text text-anchor="middle" x="5467" y="-2064.77" font-family="Times,serif" font-size="14.00">qc_coverage_region_1</text>
</g>
<!-- qc_coverage_region_1&#45;&gt;run_dragen_germline_step -->
<g id="edge31" class="edge">
<title>qc_coverage_region_1&#45;&gt;run_dragen_germline_step</title>
<path fill="none" stroke="black" d="M5447.89,-2049.76C5359.61,-1967.89 4991.1,-1626.18 4888.57,-1531.11"/>
<polygon fill="black" stroke="black" points="4890.82,-1528.43 4881.11,-1524.19 4886.06,-1533.56 4890.82,-1528.43"/>
</g>
<!-- qc_coverage_region_2 -->
<g id="node23" class="node">
<title>qc_coverage_region_2</title>
<polygon fill="#94ddf4" stroke="black" points="5189.5,-2049.97 5189.5,-2086.97 5362.5,-2086.97 5362.5,-2049.97 5189.5,-2049.97"/>
<text text-anchor="middle" x="5276" y="-2064.77" font-family="Times,serif" font-size="14.00">qc_coverage_region_2</text>
</g>
<!-- qc_coverage_region_2&#45;&gt;run_dragen_germline_step -->
<g id="edge32" class="edge">
<title>qc_coverage_region_2&#45;&gt;run_dragen_germline_step</title>
<path fill="none" stroke="black" d="M5262.93,-2049.76C5202.75,-1968.22 4952.36,-1628.92 4881.04,-1532.27"/>
<polygon fill="black" stroke="black" points="4883.83,-1530.16 4875.08,-1524.19 4878.2,-1534.32 4883.83,-1530.16"/>
</g>
<!-- qc_coverage_region_3 -->
<g id="node24" class="node">
<title>qc_coverage_region_3</title>
<polygon fill="#94ddf4" stroke="black" points="4998.5,-2049.97 4998.5,-2086.97 5171.5,-2086.97 5171.5,-2049.97 4998.5,-2049.97"/>
<text text-anchor="middle" x="5085" y="-2064.77" font-family="Times,serif" font-size="14.00">qc_coverage_region_3</text>
</g>
<!-- qc_coverage_region_3&#45;&gt;run_dragen_germline_step -->
<g id="edge33" class="edge">
<title>qc_coverage_region_3&#45;&gt;run_dragen_germline_step</title>
<path fill="none" stroke="black" d="M5077.96,-2049.76C5045.71,-1968.63 4912.03,-1632.32 4872.84,-1533.74"/>
<polygon fill="black" stroke="black" points="4875.99,-1532.19 4869.04,-1524.19 4869.49,-1534.78 4875.99,-1532.19"/>
</g>
<!-- reference_tar -->
<g id="node25" class="node">
<title>reference_tar</title>
<polygon fill="#94ddf4" stroke="black" points="4867.5,-2049.97 4867.5,-2086.97 4980.5,-2086.97 4980.5,-2049.97 4867.5,-2049.97"/>
<text text-anchor="middle" x="4924" y="-2064.77" font-family="Times,serif" font-size="14.00">reference_tar</text>
</g>
<!-- reference_tar&#45;&gt;run_dragen_germline_step -->
<g id="edge34" class="edge">
<title>reference_tar&#45;&gt;run_dragen_germline_step</title>
<path fill="none" stroke="black" d="M4922.04,-2049.76C4913.09,-1968.79 4876.06,-1633.68 4865.08,-1534.34"/>
<polygon fill="black" stroke="black" points="4868.54,-1533.75 4863.96,-1524.19 4861.58,-1534.52 4868.54,-1533.75"/>
</g>
<!-- sample_sex -->
<g id="node26" class="node">
<title>sample_sex</title>
<polygon fill="#94ddf4" stroke="black" points="4751,-2049.97 4751,-2086.97 4849,-2086.97 4849,-2049.97 4751,-2049.97"/>
<text text-anchor="middle" x="4800" y="-2064.77" font-family="Times,serif" font-size="14.00">sample_sex</text>
</g>
<!-- sample_sex&#45;&gt;run_dragen_germline_step -->
<g id="edge35" class="edge">
<title>sample_sex&#45;&gt;run_dragen_germline_step</title>
<path fill="none" stroke="black" d="M4801.96,-2049.76C4810.91,-1968.79 4847.94,-1633.68 4858.92,-1534.34"/>
<polygon fill="black" stroke="black" points="4862.42,-1534.52 4860.04,-1524.19 4855.46,-1533.75 4862.42,-1534.52"/>
</g>
<!-- sv_call_regions_bed -->
<g id="node27" class="node">
<title>sv_call_regions_bed</title>
<polygon fill="#94ddf4" stroke="black" points="4575.5,-2049.97 4575.5,-2086.97 4732.5,-2086.97 4732.5,-2049.97 4575.5,-2049.97"/>
<text text-anchor="middle" x="4654" y="-2064.77" font-family="Times,serif" font-size="14.00">sv_call_regions_bed</text>
</g>
<!-- sv_call_regions_bed&#45;&gt;run_dragen_germline_step -->
<g id="edge36" class="edge">
<title>sv_call_regions_bed&#45;&gt;run_dragen_germline_step</title>
<path fill="none" stroke="black" d="M4660.57,-2049.76C4690.65,-1968.63 4815.34,-1632.32 4851.89,-1533.74"/>
<polygon fill="black" stroke="black" points="4855.24,-1534.79 4855.43,-1524.19 4848.67,-1532.35 4855.24,-1534.79"/>
</g>
<!-- sv_discovery -->
<g id="node28" class="node">
<title>sv_discovery</title>
<polygon fill="#94ddf4" stroke="black" points="4450.5,-2049.97 4450.5,-2086.97 4557.5,-2086.97 4557.5,-2049.97 4450.5,-2049.97"/>
<text text-anchor="middle" x="4504" y="-2064.77" font-family="Times,serif" font-size="14.00">sv_discovery</text>
</g>
<!-- sv_discovery&#45;&gt;run_dragen_germline_step -->
<g id="edge37" class="edge">
<title>sv_discovery&#45;&gt;run_dragen_germline_step</title>
<path fill="none" stroke="black" d="M4515.31,-2049.76C4567.23,-1968.38 4782.99,-1630.28 4845.17,-1532.85"/>
<polygon fill="black" stroke="black" points="4848.26,-1534.51 4850.69,-1524.19 4842.36,-1530.74 4848.26,-1534.51"/>
</g>
<!-- sv_enable_liquid_tumor_mode -->
<g id="node29" class="node">
<title>sv_enable_liquid_tumor_mode</title>
<polygon fill="#94ddf4" stroke="black" points="4202,-2049.97 4202,-2086.97 4432,-2086.97 4432,-2049.97 4202,-2049.97"/>
<text text-anchor="middle" x="4317" y="-2064.77" font-family="Times,serif" font-size="14.00">sv_enable_liquid_tumor_mode</text>
</g>
<!-- sv_enable_liquid_tumor_mode&#45;&gt;run_dragen_germline_step -->
<g id="edge38" class="edge">
<title>sv_enable_liquid_tumor_mode&#45;&gt;run_dragen_germline_step</title>
<path fill="none" stroke="black" d="M4334.21,-2049.76C4413.66,-1967.97 4745.04,-1626.86 4837.78,-1531.4"/>
<polygon fill="black" stroke="black" points="4840.33,-1533.8 4844.78,-1524.19 4835.31,-1528.93 4840.33,-1533.8"/>
</g>
<!-- sv_exome -->
<g id="node30" class="node">
<title>sv_exome</title>
<polygon fill="#94ddf4" stroke="black" points="4098,-2049.97 4098,-2086.97 4184,-2086.97 4184,-2049.97 4098,-2049.97"/>
<text text-anchor="middle" x="4141" y="-2064.77" font-family="Times,serif" font-size="14.00">sv_exome</text>
</g>
<!-- sv_exome&#45;&gt;run_dragen_germline_step -->
<g id="edge39" class="edge">
<title>sv_exome&#45;&gt;run_dragen_germline_step</title>
<path fill="none" stroke="black" d="M4158.87,-2049.77C4168.71,-2040.24 4181.28,-2028.43 4193,-2018.47 4427.74,-1818.95 4729.12,-1601.13 4828.55,-1530.2"/>
<polygon fill="black" stroke="black" points="4830.88,-1532.84 4836.99,-1524.19 4826.81,-1527.14 4830.88,-1532.84"/>
</g>
<!-- sv_forcegt_vcf -->
<g id="node31" class="node">
<title>sv_forcegt_vcf</title>
<polygon fill="#94ddf4" stroke="black" points="3962,-2049.97 3962,-2086.97 4080,-2086.97 4080,-2049.97 3962,-2049.97"/>
<text text-anchor="middle" x="4021" y="-2064.77" font-family="Times,serif" font-size="14.00">sv_forcegt_vcf</text>
</g>
<!-- sv_forcegt_vcf&#45;&gt;run_dragen_germline_step -->
<g id="edge40" class="edge">
<title>sv_forcegt_vcf&#45;&gt;run_dragen_germline_step</title>
<path fill="none" stroke="black" d="M4045.07,-2049.78C4058,-2040.36 4074.28,-2028.65 4089,-2018.47 4369.75,-1824.45 4715.65,-1600.64 4826.24,-1529.45"/>
<polygon fill="black" stroke="black" points="4828.18,-1532.36 4834.7,-1524 4824.39,-1526.47 4828.18,-1532.36"/>
</g>
<!-- sv_output_contigs -->
<g id="node32" class="node">
<title>sv_output_contigs</title>
<polygon fill="#94ddf4" stroke="black" points="3798.5,-2049.97 3798.5,-2086.97 3943.5,-2086.97 3943.5,-2049.97 3798.5,-2049.97"/>
<text text-anchor="middle" x="3871" y="-2064.77" font-family="Times,serif" font-size="14.00">sv_output_contigs</text>
</g>
<!-- sv_output_contigs&#45;&gt;run_dragen_germline_step -->
<g id="edge41" class="edge">
<title>sv_output_contigs&#45;&gt;run_dragen_germline_step</title>
<path fill="none" stroke="black" d="M3900.11,-2049.83C3915.74,-2040.42 3935.36,-2028.71 3953,-2018.47 4285.8,-1825.36 4692.21,-1600.18 4820.9,-1529.13"/>
<polygon fill="black" stroke="black" points="4822.97,-1531.99 4830.03,-1524.09 4819.59,-1525.86 4822.97,-1531.99"/>
</g>
<!-- sv_region -->
<g id="node33" class="node">
<title>sv_region</title>
<polygon fill="#94ddf4" stroke="black" points="3695.5,-2049.97 3695.5,-2086.97 3780.5,-2086.97 3780.5,-2049.97 3695.5,-2049.97"/>
<text text-anchor="middle" x="3738" y="-2064.77" font-family="Times,serif" font-size="14.00">sv_region</text>
</g>
<!-- sv_region&#45;&gt;run_dragen_germline_step -->
<g id="edge42" class="edge">
<title>sv_region&#45;&gt;run_dragen_germline_step</title>
<path fill="none" stroke="black" d="M3754.18,-2049.7C3763.9,-2039.7 3776.9,-2027.45 3790,-2018.47 4145.31,-1775.06 4634.25,-1588.08 4802.4,-1527.43"/>
<polygon fill="black" stroke="black" points="4803.6,-1530.72 4811.82,-1524.04 4801.23,-1524.13 4803.6,-1530.72"/>
</g>
<!-- sv_se_overlap_pair_evidence -->
<g id="node34" class="node">
<title>sv_se_overlap_pair_evidence</title>
<polygon fill="#94ddf4" stroke="black" points="3457,-2049.97 3457,-2086.97 3677,-2086.97 3677,-2049.97 3457,-2049.97"/>
<text text-anchor="middle" x="3567" y="-2064.77" font-family="Times,serif" font-size="14.00">sv_se_overlap_pair_evidence</text>
</g>
<!-- sv_se_overlap_pair_evidence&#45;&gt;run_dragen_germline_step -->
<g id="edge43" class="edge">
<title>sv_se_overlap_pair_evidence&#45;&gt;run_dragen_germline_step</title>
<path fill="none" stroke="black" d="M3607.54,-2049.91C3797.94,-1967.43 4602.96,-1618.69 4812.15,-1528.07"/>
<polygon fill="black" stroke="black" points="4813.59,-1531.26 4821.37,-1524.07 4810.81,-1524.83 4813.59,-1531.26"/>
</g>
<!-- sv_tin_contam_tolerance -->
<g id="node35" class="node">
<title>sv_tin_contam_tolerance</title>
<polygon fill="#94ddf4" stroke="black" points="3247.5,-2049.97 3247.5,-2086.97 3438.5,-2086.97 3438.5,-2049.97 3247.5,-2049.97"/>
<text text-anchor="middle" x="3343" y="-2064.77" font-family="Times,serif" font-size="14.00">sv_tin_contam_tolerance</text>
</g>
<!-- sv_tin_contam_tolerance&#45;&gt;run_dragen_germline_step -->
<g id="edge44" class="edge">
<title>sv_tin_contam_tolerance&#45;&gt;run_dragen_germline_step</title>
<path fill="none" stroke="black" d="M3378.61,-2049.89C3398.77,-2040.18 3424.58,-2028.16 3448,-2018.47 3961.1,-1806.35 4597.49,-1593.33 4798.26,-1527.29"/>
<polygon fill="black" stroke="black" points="4799.64,-1530.52 4808.05,-1524.07 4797.46,-1523.87 4799.64,-1530.52"/>
</g>
<!-- vc_decoy_contigs -->
<g id="node36" class="node">
<title>vc_decoy_contigs</title>
<polygon fill="#94ddf4" stroke="black" points="3090.5,-2049.97 3090.5,-2086.97 3229.5,-2086.97 3229.5,-2049.97 3090.5,-2049.97"/>
<text text-anchor="middle" x="3160" y="-2064.77" font-family="Times,serif" font-size="14.00">vc_decoy_contigs</text>
</g>
<!-- vc_decoy_contigs&#45;&gt;run_dragen_germline_step -->
<g id="edge45" class="edge">
<title>vc_decoy_contigs&#45;&gt;run_dragen_germline_step</title>
<path fill="none" stroke="black" d="M3184.72,-2049.91C3199.86,-2039.72 3219.93,-2027.23 3239,-2018.47 3798.76,-1761.5 4523.11,-1583.53 4772.8,-1526.29"/>
<polygon fill="black" stroke="black" points="4773.59,-1529.71 4782.56,-1524.07 4772.03,-1522.88 4773.59,-1529.71"/>
</g>
<!-- vc_enable_baf -->
<g id="node37" class="node">
<title>vc_enable_baf</title>
<polygon fill="#94ddf4" stroke="black" points="2956,-2049.97 2956,-2086.97 3072,-2086.97 3072,-2049.97 2956,-2049.97"/>
<text text-anchor="middle" x="3014" y="-2064.77" font-family="Times,serif" font-size="14.00">vc_enable_baf</text>
</g>
<!-- vc_enable_baf&#45;&gt;run_dragen_germline_step -->
<g id="edge46" class="edge">
<title>vc_enable_baf&#45;&gt;run_dragen_germline_step</title>
<path fill="none" stroke="black" d="M3034.54,-2049.79C3047.45,-2039.44 3064.85,-2026.8 3082,-2018.47 3679.05,-1728.41 4470.61,-1573.23 4754.78,-1524"/>
<polygon fill="black" stroke="black" points="4755.41,-1527.45 4764.67,-1522.3 4754.22,-1520.55 4755.41,-1527.45"/>
</g>
<!-- vc_enable_decoy_contigs -->
<g id="node38" class="node">
<title>vc_enable_decoy_contigs</title>
<polygon fill="#94ddf4" stroke="black" points="2744.5,-2049.97 2744.5,-2086.97 2937.5,-2086.97 2937.5,-2049.97 2744.5,-2049.97"/>
<text text-anchor="middle" x="2841" y="-2064.77" font-family="Times,serif" font-size="14.00">vc_enable_decoy_contigs</text>
</g>
<!-- vc_enable_decoy_contigs&#45;&gt;run_dragen_germline_step -->
<g id="edge47" class="edge">
<title>vc_enable_decoy_contigs&#45;&gt;run_dragen_germline_step</title>
<path fill="none" stroke="black" d="M2875.22,-2049.83C2895.68,-2039.74 2922.41,-2027.37 2947,-2018.47 3627.42,-1772.31 4481.94,-1585.13 4765.6,-1526.09"/>
<polygon fill="black" stroke="black" points="4766.37,-1529.51 4775.45,-1524.05 4764.94,-1522.65 4766.37,-1529.51"/>
</g>
<!-- vc_enable_gatk_acceleration -->
<g id="node39" class="node">
<title>vc_enable_gatk_acceleration</title>
<polygon fill="#94ddf4" stroke="black" points="2508,-2049.97 2508,-2086.97 2726,-2086.97 2726,-2049.97 2508,-2049.97"/>
<text text-anchor="middle" x="2617" y="-2064.77" font-family="Times,serif" font-size="14.00">vc_enable_gatk_acceleration</text>
</g>
<!-- vc_enable_gatk_acceleration&#45;&gt;run_dragen_germline_step -->
<g id="edge48" class="edge">
<title>vc_enable_gatk_acceleration&#45;&gt;run_dragen_germline_step</title>
<path fill="none" stroke="black" d="M2655.29,-2049.94C2678.35,-2039.83 2708.48,-2027.39 2736,-2018.47 3496.32,-1772.01 4443.91,-1584.65 4756.56,-1525.87"/>
<polygon fill="black" stroke="black" points="4757.33,-1529.28 4766.52,-1524 4756.04,-1522.4 4757.33,-1529.28"/>
</g>
<!-- vc_enable_phasing -->
<g id="node40" class="node">
<title>vc_enable_phasing</title>
<polygon fill="#94ddf4" stroke="black" points="2340.5,-2049.97 2340.5,-2086.97 2489.5,-2086.97 2489.5,-2049.97 2340.5,-2049.97"/>
<text text-anchor="middle" x="2415" y="-2064.77" font-family="Times,serif" font-size="14.00">vc_enable_phasing</text>
</g>
<!-- vc_enable_phasing&#45;&gt;run_dragen_germline_step -->
<g id="edge49" class="edge">
<title>vc_enable_phasing&#45;&gt;run_dragen_germline_step</title>
<path fill="none" stroke="black" d="M2440.41,-2049.8C2456.54,-2039.32 2478.23,-2026.55 2499,-2018.47 3332.24,-1694.59 4414.51,-1555.25 4754.79,-1517.55"/>
<polygon fill="black" stroke="black" points="4755.33,-1521.02 4764.88,-1516.44 4754.56,-1514.06 4755.33,-1521.02"/>
</g>
<!-- vc_enable_roh -->
<g id="node41" class="node">
<title>vc_enable_roh</title>
<polygon fill="#94ddf4" stroke="black" points="2205.5,-2049.97 2205.5,-2086.97 2322.5,-2086.97 2322.5,-2049.97 2205.5,-2049.97"/>
<text text-anchor="middle" x="2264" y="-2064.77" font-family="Times,serif" font-size="14.00">vc_enable_roh</text>
</g>
<!-- vc_enable_roh&#45;&gt;run_dragen_germline_step -->
<g id="edge50" class="edge">
<title>vc_enable_roh&#45;&gt;run_dragen_germline_step</title>
<path fill="none" stroke="black" d="M2283.73,-2049.77C2296.61,-2039.15 2314.27,-2026.22 2332,-2018.47 3213.83,-1633.06 4396.52,-1533.97 4754.78,-1512.05"/>
<polygon fill="black" stroke="black" points="4755.11,-1515.53 4764.88,-1511.44 4754.69,-1508.55 4755.11,-1515.53"/>
</g>
<!-- vc_enable_sex_chr_diploid -->
<g id="node42" class="node">
<title>vc_enable_sex_chr_diploid</title>
<polygon fill="#94ddf4" stroke="black" points="1984.5,-2049.97 1984.5,-2086.97 2187.5,-2086.97 2187.5,-2049.97 1984.5,-2049.97"/>
<text text-anchor="middle" x="2086" y="-2064.77" font-family="Times,serif" font-size="14.00">vc_enable_sex_chr_diploid</text>
</g>
<!-- vc_enable_sex_chr_diploid&#45;&gt;run_dragen_germline_step -->
<g id="edge51" class="edge">
<title>vc_enable_sex_chr_diploid&#45;&gt;run_dragen_germline_step</title>
<path fill="none" stroke="black" d="M2120.22,-2049.96C2141.78,-2039.53 2170.46,-2026.76 2197,-2018.47 3165.2,-1716.04 4389.8,-1560.17 4754.74,-1518.25"/>
<polygon fill="black" stroke="black" points="4755.22,-1521.72 4764.76,-1517.1 4754.43,-1514.76 4755.22,-1521.72"/>
</g>
<!-- vc_enable_vcf_output -->
<g id="node43" class="node">
<title>vc_enable_vcf_output</title>
<polygon fill="#94ddf4" stroke="black" points="1799,-2049.97 1799,-2086.97 1967,-2086.97 1967,-2049.97 1799,-2049.97"/>
<text text-anchor="middle" x="1883" y="-2064.77" font-family="Times,serif" font-size="14.00">vc_enable_vcf_output</text>
</g>
<!-- vc_enable_vcf_output&#45;&gt;run_dragen_germline_step -->
<g id="edge52" class="edge">
<title>vc_enable_vcf_output&#45;&gt;run_dragen_germline_step</title>
<path fill="none" stroke="black" d="M1910.88,-2049.86C1928.83,-2039.26 1953.04,-2026.34 1976,-2018.47 3021.23,-1660.16 4369.62,-1541.34 4754.93,-1513.52"/>
<polygon fill="black" stroke="black" points="4755.23,-1517 4764.95,-1512.8 4754.72,-1510.02 4755.23,-1517"/>
</g>
<!-- vc_haploid_call_af_threshold -->
<g id="node44" class="node">
<title>vc_haploid_call_af_threshold</title>
<polygon fill="#94ddf4" stroke="black" points="1563,-2049.97 1563,-2086.97 1781,-2086.97 1781,-2049.97 1563,-2049.97"/>
<text text-anchor="middle" x="1672" y="-2064.77" font-family="Times,serif" font-size="14.00">vc_haploid_call_af_threshold</text>
</g>
<!-- vc_haploid_call_af_threshold&#45;&gt;run_dragen_germline_step -->
<g id="edge53" class="edge">
<title>vc_haploid_call_af_threshold&#45;&gt;run_dragen_germline_step</title>
<path fill="none" stroke="black" d="M1708.16,-2049.92C1731.13,-2039.42 1761.75,-2026.58 1790,-2018.47 2923.95,-1693.18 4356.44,-1550.46 4754.92,-1515.39"/>
<polygon fill="black" stroke="black" points="4755.34,-1518.87 4765,-1514.51 4754.73,-1511.9 4755.34,-1518.87"/>
</g>
<!-- vc_hard_filter -->
<g id="node45" class="node">
<title>vc_hard_filter</title>
<polygon fill="#94ddf4" stroke="black" points="1431.5,-2049.97 1431.5,-2086.97 1544.5,-2086.97 1544.5,-2049.97 1431.5,-2049.97"/>
<text text-anchor="middle" x="1488" y="-2064.77" font-family="Times,serif" font-size="14.00">vc_hard_filter</text>
</g>
<!-- vc_hard_filter&#45;&gt;run_dragen_germline_step -->
<g id="edge54" class="edge">
<title>vc_hard_filter&#45;&gt;run_dragen_germline_step</title>
<path fill="none" stroke="black" d="M1506.38,-2049.96C1518.84,-2039.13 1536.23,-2025.91 1554,-2018.47 2157.2,-1766.21 4255.69,-1561.85 4754.85,-1516.07"/>
<polygon fill="black" stroke="black" points="4755.29,-1519.55 4764.93,-1515.15 4754.65,-1512.58 4755.29,-1519.55"/>
</g>
<!-- vc_max_reads_per_active_region -->
<g id="node46" class="node">
<title>vc_max_reads_per_active_region</title>
<polygon fill="#94ddf4" stroke="black" points="1165,-2049.97 1165,-2086.97 1413,-2086.97 1413,-2049.97 1165,-2049.97"/>
<text text-anchor="middle" x="1289" y="-2064.77" font-family="Times,serif" font-size="14.00">vc_max_reads_per_active_region</text>
</g>
<!-- vc_max_reads_per_active_region&#45;&gt;run_dragen_germline_step -->
<g id="edge55" class="edge">
<title>vc_max_reads_per_active_region&#45;&gt;run_dragen_germline_step</title>
<path fill="none" stroke="black" d="M1330.26,-2049.91C1356.41,-2039.41 1391.19,-2026.57 1423,-2018.47 2711.21,-1690.66 4327.85,-1547.96 4754.69,-1514.47"/>
<polygon fill="black" stroke="black" points="4755.16,-1517.95 4764.85,-1513.68 4754.61,-1510.97 4755.16,-1517.95"/>
</g>
<!-- vc_max_reads_per_raw_region -->
<g id="node47" class="node">
<title>vc_max_reads_per_raw_region</title>
<polygon fill="#94ddf4" stroke="black" points="913.5,-2049.97 913.5,-2086.97 1146.5,-2086.97 1146.5,-2049.97 913.5,-2049.97"/>
<text text-anchor="middle" x="1030" y="-2064.77" font-family="Times,serif" font-size="14.00">vc_max_reads_per_raw_region</text>
</g>
<!-- vc_max_reads_per_raw_region&#45;&gt;run_dragen_germline_step -->
<g id="edge56" class="edge">
<title>vc_max_reads_per_raw_region&#45;&gt;run_dragen_germline_step</title>
<path fill="none" stroke="black" d="M1068.11,-2049.96C1092.71,-2039.34 1125.67,-2026.35 1156,-2018.47 2549.25,-1656.64 4307.68,-1537.57 4754.83,-1512.12"/>
<polygon fill="black" stroke="black" points="4755.04,-1515.61 4764.83,-1511.55 4754.65,-1508.62 4755.04,-1515.61"/>
</g>
<!-- vc_remove_all_soft_clips -->
<g id="node48" class="node">
<title>vc_remove_all_soft_clips</title>
<polygon fill="#94ddf4" stroke="black" points="705,-2049.97 705,-2086.97 895,-2086.97 895,-2049.97 705,-2049.97"/>
<text text-anchor="middle" x="800" y="-2064.77" font-family="Times,serif" font-size="14.00">vc_remove_all_soft_clips</text>
</g>
<!-- vc_remove_all_soft_clips&#45;&gt;run_dragen_germline_step -->
<g id="edge57" class="edge">
<title>vc_remove_all_soft_clips&#45;&gt;run_dragen_germline_step</title>
<path fill="none" stroke="black" d="M831.17,-2049.82C851.56,-2039.06 879.11,-2025.99 905,-2018.47 2387.48,-1587.92 4287.58,-1518.98 4754.74,-1508.35"/>
<polygon fill="black" stroke="black" points="4754.92,-1511.84 4764.84,-1508.12 4754.77,-1504.84 4754.92,-1511.84"/>
</g>
<!-- vc_roh_blacklist_bed -->
<g id="node49" class="node">
<title>vc_roh_blacklist_bed</title>
<polygon fill="#94ddf4" stroke="black" points="523.5,-2049.97 523.5,-2086.97 686.5,-2086.97 686.5,-2049.97 523.5,-2049.97"/>
<text text-anchor="middle" x="605" y="-2064.77" font-family="Times,serif" font-size="14.00">vc_roh_blacklist_bed</text>
</g>
<!-- vc_roh_blacklist_bed&#45;&gt;run_dragen_germline_step -->
<g id="edge58" class="edge">
<title>vc_roh_blacklist_bed&#45;&gt;run_dragen_germline_step</title>
<path fill="none" stroke="black" d="M631.3,-2049.9C648.87,-2039.04 672.92,-2025.82 696,-2018.47 1488.81,-1766.16 4181.89,-1556.6 4754.43,-1514.27"/>
<polygon fill="black" stroke="black" points="4755.02,-1517.74 4764.74,-1513.51 4754.51,-1510.76 4755.02,-1517.74"/>
</g>
<!-- vc_target_bed -->
<g id="node50" class="node">
<title>vc_target_bed</title>
<polygon fill="#94ddf4" stroke="black" points="389,-2049.97 389,-2086.97 505,-2086.97 505,-2049.97 389,-2049.97"/>
<text text-anchor="middle" x="447" y="-2064.77" font-family="Times,serif" font-size="14.00">vc_target_bed</text>
</g>
<!-- vc_target_bed&#45;&gt;run_dragen_germline_step -->
<g id="edge59" class="edge">
<title>vc_target_bed&#45;&gt;run_dragen_germline_step</title>
<path fill="none" stroke="black" d="M465.94,-2049.75C478.78,-2038.83 496.69,-2025.59 515,-2018.47 1326.04,-1703.13 4165.09,-1542.23 4754.39,-1511.82"/>
<polygon fill="black" stroke="black" points="4754.77,-1515.31 4764.58,-1511.3 4754.41,-1508.32 4754.77,-1515.31"/>
</g>
<!-- vc_target_bed_padding -->
<g id="node51" class="node">
<title>vc_target_bed_padding</title>
<polygon fill="#94ddf4" stroke="black" points="189.5,-2049.97 189.5,-2086.97 370.5,-2086.97 370.5,-2049.97 189.5,-2049.97"/>
<text text-anchor="middle" x="280" y="-2064.77" font-family="Times,serif" font-size="14.00">vc_target_bed_padding</text>
</g>
<!-- vc_target_bed_padding&#45;&gt;run_dragen_germline_step -->
<g id="edge60" class="edge">
<title>vc_target_bed_padding&#45;&gt;run_dragen_germline_step</title>
<path fill="none" stroke="black" d="M309.11,-2049.89C328.51,-2039.03 354.95,-2025.8 380,-2018.47 1241.92,-1766.25 4156.51,-1555.03 4754.31,-1513.77"/>
<polygon fill="black" stroke="black" points="4754.9,-1517.24 4764.64,-1513.06 4754.42,-1510.25 4754.9,-1517.24"/>
</g>
<!-- vc_target_coverage -->
<g id="node52" class="node">
<title>vc_target_coverage</title>
<polygon fill="#94ddf4" stroke="black" points="16.5,-2049.97 16.5,-2086.97 171.5,-2086.97 171.5,-2049.97 16.5,-2049.97"/>
<text text-anchor="middle" x="94" y="-2064.77" font-family="Times,serif" font-size="14.00">vc_target_coverage</text>
</g>
<!-- vc_target_coverage&#45;&gt;run_dragen_germline_step -->
<g id="edge61" class="edge">
<title>vc_target_coverage&#45;&gt;run_dragen_germline_step</title>
<path fill="none" stroke="black" d="M118.69,-2049.77C135.22,-2038.86 157.93,-2025.62 180,-2018.47 1074.59,-1728.54 4141.33,-1546.28 4754.72,-1512.27"/>
<polygon fill="black" stroke="black" points="4755.08,-1515.75 4764.87,-1511.7 4754.69,-1508.76 4755.08,-1515.75"/>
</g>
<!-- dragen_bam_out -->
<g id="node53" class="node">
<title>dragen_bam_out</title>
<polygon fill="#94ddf4" stroke="black" points="4665,-404.97 4665,-441.97 4799,-441.97 4799,-404.97 4665,-404.97"/>
<text text-anchor="middle" x="4732" y="-419.77" font-family="Times,serif" font-size="14.00">dragen_bam_out</text>
</g>
<!-- dragen_germline_output_directory -->
<g id="node54" class="node">
<title>dragen_germline_output_directory</title>
<polygon fill="#94ddf4" stroke="black" points="4817.5,-404.97 4817.5,-441.97 5080.5,-441.97 5080.5,-404.97 4817.5,-404.97"/>
<text text-anchor="middle" x="4949" y="-419.77" font-family="Times,serif" font-size="14.00">dragen_germline_output_directory</text>
</g>
<!-- dragen_vcf_out -->
<g id="node55" class="node">
<title>dragen_vcf_out</title>
<polygon fill="#94ddf4" stroke="black" points="5098.5,-404.97 5098.5,-441.97 5223.5,-441.97 5223.5,-404.97 5098.5,-404.97"/>
<text text-anchor="middle" x="5161" y="-419.77" font-family="Times,serif" font-size="14.00">dragen_vcf_out</text>
</g>
<!-- multiqc_output_directory -->
<g id="node56" class="node">
<title>multiqc_output_directory</title>
<polygon fill="#94ddf4" stroke="black" points="5241.5,-404.97 5241.5,-441.97 5438.5,-441.97 5438.5,-404.97 5241.5,-404.97"/>
<text text-anchor="middle" x="5340" y="-419.77" font-family="Times,serif" font-size="14.00">multiqc_output_directory</text>
</g>
<!-- run_dragen_germline_step&#45;&gt;dragen_bam_out -->
<g id="edge2" class="edge">
<title>run_dragen_germline_step&#45;&gt;dragen_bam_out</title>
<path fill="none" stroke="black" d="M4859.85,-1486.63C4844.7,-1360.75 4753.97,-606.98 4735.34,-452.23"/>
<polygon fill="black" stroke="black" points="4738.8,-451.65 4734.13,-442.14 4731.85,-452.49 4738.8,-451.65"/>
</g>
<!-- run_dragen_germline_step&#45;&gt;dragen_germline_output_directory -->
<g id="edge3" class="edge">
<title>run_dragen_germline_step&#45;&gt;dragen_germline_output_directory</title>
<path fill="none" stroke="black" d="M4863.44,-1486.63C4873.58,-1360.75 4934.3,-606.98 4946.76,-452.23"/>
<polygon fill="black" stroke="black" points="4950.26,-452.39 4947.58,-442.14 4943.29,-451.83 4950.26,-452.39"/>
</g>
<!-- run_dragen_germline_step&#45;&gt;dragen_vcf_out -->
<g id="edge4" class="edge">
<title>run_dragen_germline_step&#45;&gt;dragen_vcf_out</title>
<path fill="none" stroke="black" d="M4866.94,-1486.63C4901.79,-1360.75 5110.47,-606.98 5153.32,-452.23"/>
<polygon fill="black" stroke="black" points="5156.81,-452.71 5156.11,-442.14 5150.07,-450.84 5156.81,-452.71"/>
</g>
<!-- run_dragen_germline_step&#45;&gt;dragen_qc_step -->
<g id="edge1" class="edge">
<title>run_dragen_germline_step&#45;&gt;dragen_qc_step</title>
<path fill="none" stroke="black" d="M4959.09,-1491.68C5521.95,-1417.52 8358.81,-1043.76 8873.01,-976.01"/>
<polygon fill="black" stroke="black" points="8873.84,-979.43 8883.3,-974.66 8872.93,-972.49 8873.84,-979.43"/>
</g>
<!-- dragen_qc_step&#45;&gt;multiqc_output_directory -->
<g id="edge5" class="edge">
<title>dragen_qc_step&#45;&gt;multiqc_output_directory</title>
<path fill="none" stroke="black" d="M8883.25,-953.07C8438.2,-886.67 5996.73,-522.45 5449.06,-440.74"/>
<polygon fill="black" stroke="black" points="5449.21,-437.23 5438.8,-439.21 5448.17,-444.15 5449.21,-437.23"/>
</g>
<!-- create_dummy_file_step -->
<g id="node59" class="node">
<title>create_dummy_file_step</title>
<polygon fill="lightgoldenrodyellow" stroke="black" points="8999.5,-1486.97 8999.5,-1523.97 9260.5,-1523.97 9260.5,-1486.97 8999.5,-1486.97"/>
<text text-anchor="middle" x="9130" y="-1501.77" font-family="Times,serif" font-size="14.00">custom&#45;create&#45;dummy&#45;file v(1.0.0)</text>
</g>
<!-- create_dummy_file_step&#45;&gt;dragen_qc_step -->
<g id="edge6" class="edge">
<title>create_dummy_file_step&#45;&gt;dragen_qc_step</title>
<path fill="none" stroke="black" d="M9124.21,-1486.84C9098.37,-1408.16 8993.46,-1088.68 8961.98,-992.8"/>
<polygon fill="black" stroke="black" points="8965.28,-991.65 8958.83,-983.24 8958.63,-993.83 8965.28,-991.65"/>
</g>
<!-- \n -->
<g id="node60" class="node">
<title>\n</title>
<ellipse fill="none" stroke="black" cx="9068" cy="-2068.47" rx="27" ry="18"/>
</g>
</g>
</svg>
