<?xml version="1.0" encoding="UTF-8" standalone="no"?>
<!DOCTYPE svg PUBLIC "-//W3C//DTD SVG 1.1//EN"
 "http://www.w3.org/Graphics/SVG/1.1/DTD/svg11.dtd">
<!-- Generated by graphviz version 2.43.0 (0)
 -->
<!-- Title: G Pages: 1 -->
<svg width="9531pt" height="2369pt"
 viewBox="0.00 0.00 9530.50 2369.46" xmlns="http://www.w3.org/2000/svg" xmlns:xlink="http://www.w3.org/1999/xlink">
<g id="graph0" class="graph" transform="scale(1 1) rotate(0) translate(4 2365.46)">
<title>G</title>
<polygon fill="#eeeeee" stroke="transparent" points="-4,4 -4,-2365.46 9526.5,-2365.46 9526.5,4 -4,4"/>
<g id="clust1" class="cluster">
<title>cluster_inputs</title>
<polygon fill="#eeeeee" stroke="black" stroke-dasharray="5,2" points="8,-1730.25 8,-2302.05 9293,-2302.05 9293,-1730.25 8,-1730.25"/>
<text text-anchor="middle" x="9226.5" y="-1738.05" font-family="Times,serif" font-size="14.00">Workflow Inputs</text>
</g>
<g id="clust2" class="cluster">
<title>cluster_outputs</title>
<polygon fill="#eeeeee" stroke="black" stroke-dasharray="5,2" points="4800,-59.41 4800,-631.21 5590,-631.21 5590,-59.41 4800,-59.41"/>
<text text-anchor="middle" x="5517.5" y="-67.21" font-family="Times,serif" font-size="14.00">Workflow Outputs</text>
</g>
<!-- output_file_prefix -->
<g id="node1" class="node">
<title>output_file_prefix</title>
<polygon fill="#94ddf4" stroke="black" points="9145,-2082.91 9145,-2119.91 9285,-2119.91 9285,-2082.91 9145,-2082.91"/>
<text text-anchor="middle" x="9215" y="-2097.71" font-family="Times,serif" font-size="14.00">output_file_prefix</text>
</g>
<!-- run_dragen_germline_step -->
<g id="node59" class="node">
<title>run_dragen_germline_step</title>
<polygon fill="lightgoldenrodyellow" stroke="black" points="4908,-1510.91 4908,-1547.91 5102,-1547.91 5102,-1510.91 4908,-1510.91"/>
<text text-anchor="middle" x="5005" y="-1525.71" font-family="Times,serif" font-size="14.00">dragen&#45;germline v(4.2.4)</text>
</g>
<!-- output_file_prefix&#45;&gt;run_dragen_germline_step -->
<g id="edge7" class="edge">
<title>output_file_prefix&#45;&gt;run_dragen_germline_step</title>
<path fill="none" stroke="black" d="M9192.5,-2082.79C9177.38,-2071.91 9156.54,-2058.68 9136,-2051.41 8358.22,-1776 5682.62,-1577.48 5112.42,-1537.72"/>
<polygon fill="black" stroke="black" points="5112.37,-1534.21 5102.15,-1537.01 5111.88,-1541.19 5112.37,-1534.21"/>
</g>
<!-- dragen_qc_step -->
<g id="node60" class="node">
<title>dragen_qc_step</title>
<polygon fill="lightgoldenrodyellow" stroke="black" points="9145.5,-961.91 9145.5,-998.91 9284.5,-998.91 9284.5,-961.91 9145.5,-961.91"/>
<text text-anchor="middle" x="9215" y="-976.71" font-family="Times,serif" font-size="14.00">multiqc v(1.14.0)</text>
</g>
<!-- output_file_prefix&#45;&gt;dragen_qc_step -->
<g id="edge8" class="edge">
<title>output_file_prefix&#45;&gt;dragen_qc_step</title>
<path fill="none" stroke="black" d="M9211.29,-2082.83C9198.54,-1954.94 9198.24,-1167.93 9210.4,-1009.27"/>
<polygon fill="black" stroke="black" points="9213.91,-1009.21 9211.29,-998.95 9206.94,-1008.61 9213.91,-1009.21"/>
</g>
<!-- output_file_prefix&#45;&gt;dragen_qc_step -->
<g id="edge9" class="edge">
<title>output_file_prefix&#45;&gt;dragen_qc_step</title>
<path fill="none" stroke="black" d="M9215,-2082.83C9215,-1954.94 9215,-1167.93 9215,-1009.27"/>
<polygon fill="black" stroke="black" points="9218.5,-1008.95 9215,-998.95 9211.5,-1008.95 9218.5,-1008.95"/>
</g>
<!-- output_file_prefix&#45;&gt;dragen_qc_step -->
<g id="edge10" class="edge">
<title>output_file_prefix&#45;&gt;dragen_qc_step</title>
<path fill="none" stroke="black" d="M9218.71,-2082.83C9231.46,-1954.94 9231.76,-1167.93 9219.6,-1009.27"/>
<polygon fill="black" stroke="black" points="9223.06,-1008.61 9218.71,-998.95 9216.09,-1009.21 9223.06,-1008.61"/>
</g>
<!-- bam_input -->
<g id="node2" class="node">
<title>bam_input</title>
<polygon fill="#94ddf4" stroke="black" points="9035,-2082.91 9035,-2119.91 9127,-2119.91 9127,-2082.91 9035,-2082.91"/>
<text text-anchor="middle" x="9081" y="-2097.71" font-family="Times,serif" font-size="14.00">bam_input</text>
</g>
<!-- bam_input&#45;&gt;run_dragen_germline_step -->
<g id="edge11" class="edge">
<title>bam_input&#45;&gt;run_dragen_germline_step</title>
<path fill="none" stroke="black" d="M9066.05,-2082.48C9055.93,-2071.62 9041.59,-2058.53 9026,-2051.41 8295.89,-1718.06 5675.95,-1565.19 5112.31,-1535.77"/>
<polygon fill="black" stroke="black" points="5112.33,-1532.26 5102.16,-1535.24 5111.97,-1539.25 5112.33,-1532.26"/>
</g>
<!-- cnv_enable_self_normalization -->
<g id="node3" class="node">
<title>cnv_enable_self_normalization</title>
<polygon fill="#94ddf4" stroke="black" points="8783.5,-2082.91 8783.5,-2119.91 9016.5,-2119.91 9016.5,-2082.91 8783.5,-2082.91"/>
<text text-anchor="middle" x="8900" y="-2097.71" font-family="Times,serif" font-size="14.00">cnv_enable_self_normalization</text>
</g>
<!-- cnv_enable_self_normalization&#45;&gt;run_dragen_germline_step -->
<g id="edge12" class="edge">
<title>cnv_enable_self_normalization&#45;&gt;run_dragen_germline_step</title>
<path fill="none" stroke="black" d="M8862.21,-2082.89C8837.81,-2072.26 8805.11,-2059.27 8775,-2051.41 7356.2,-1680.87 5564.01,-1561.23 5112.14,-1535.95"/>
<polygon fill="black" stroke="black" points="5112.22,-1532.44 5102.04,-1535.38 5111.83,-1539.43 5112.22,-1532.44"/>
</g>
<!-- cram_input -->
<g id="node4" class="node">
<title>cram_input</title>
<polygon fill="#94ddf4" stroke="black" points="8668.5,-2082.91 8668.5,-2119.91 8765.5,-2119.91 8765.5,-2082.91 8668.5,-2082.91"/>
<text text-anchor="middle" x="8717" y="-2097.71" font-family="Times,serif" font-size="14.00">cram_input</text>
</g>
<!-- cram_input&#45;&gt;run_dragen_germline_step -->
<g id="edge13" class="edge">
<title>cram_input&#45;&gt;run_dragen_germline_step</title>
<path fill="none" stroke="black" d="M8701.02,-2082.55C8690.25,-2071.72 8675.12,-2058.64 8659,-2051.41 7996.66,-1754.39 5644.78,-1575.03 5112.59,-1537.71"/>
<polygon fill="black" stroke="black" points="5112.45,-1534.19 5102.23,-1536.99 5111.96,-1541.17 5112.45,-1534.19"/>
</g>
<!-- cram_reference -->
<g id="node5" class="node">
<title>cram_reference</title>
<polygon fill="#94ddf4" stroke="black" points="8522,-2082.91 8522,-2119.91 8650,-2119.91 8650,-2082.91 8522,-2082.91"/>
<text text-anchor="middle" x="8586" y="-2097.71" font-family="Times,serif" font-size="14.00">cram_reference</text>
</g>
<!-- cram_reference&#45;&gt;run_dragen_germline_step -->
<g id="edge14" class="edge">
<title>cram_reference&#45;&gt;run_dragen_germline_step</title>
<path fill="none" stroke="black" d="M8565.37,-2082.9C8551.47,-2072.07 8532.22,-2058.85 8513,-2051.41 7243.61,-1560.08 5550.56,-1528.81 5112.2,-1529.42"/>
<polygon fill="black" stroke="black" points="5112.07,-1525.92 5102.08,-1529.44 5112.08,-1532.92 5112.07,-1525.92"/>
</g>
<!-- dbsnp_annotation -->
<g id="node6" class="node">
<title>dbsnp_annotation</title>
<polygon fill="#94ddf4" stroke="black" points="8360.5,-2082.91 8360.5,-2119.91 8503.5,-2119.91 8503.5,-2082.91 8360.5,-2082.91"/>
<text text-anchor="middle" x="8432" y="-2097.71" font-family="Times,serif" font-size="14.00">dbsnp_annotation</text>
</g>
<!-- dbsnp_annotation&#45;&gt;run_dragen_germline_step -->
<g id="edge15" class="edge">
<title>dbsnp_annotation&#45;&gt;run_dragen_germline_step</title>
<path fill="none" stroke="black" d="M8408.45,-2082.76C8392.92,-2072.02 8371.69,-2058.94 8351,-2051.41 7135.22,-1608.64 5536.82,-1542.1 5112.29,-1532.15"/>
<polygon fill="black" stroke="black" points="5112.26,-1528.65 5102.18,-1531.92 5112.1,-1535.65 5112.26,-1528.65"/>
</g>
<!-- dedup_min_qual -->
<g id="node7" class="node">
<title>dedup_min_qual</title>
<polygon fill="#94ddf4" stroke="black" points="8210,-2082.91 8210,-2119.91 8342,-2119.91 8342,-2082.91 8210,-2082.91"/>
<text text-anchor="middle" x="8276" y="-2097.71" font-family="Times,serif" font-size="14.00">dedup_min_qual</text>
</g>
<!-- dedup_min_qual&#45;&gt;run_dragen_germline_step -->
<g id="edge16" class="edge">
<title>dedup_min_qual&#45;&gt;run_dragen_germline_step</title>
<path fill="none" stroke="black" d="M8254.37,-2082.77C8240.07,-2072.02 8220.43,-2058.95 8201,-2051.41 7051.68,-1605.43 5526.27,-1541.21 5112.41,-1531.96"/>
<polygon fill="black" stroke="black" points="5112.33,-1528.46 5102.26,-1531.74 5112.18,-1535.46 5112.33,-1528.46"/>
</g>
<!-- enable_cnv -->
<g id="node8" class="node">
<title>enable_cnv</title>
<polygon fill="#94ddf4" stroke="black" points="8096.5,-2082.91 8096.5,-2119.91 8191.5,-2119.91 8191.5,-2082.91 8096.5,-2082.91"/>
<text text-anchor="middle" x="8144" y="-2097.71" font-family="Times,serif" font-size="14.00">enable_cnv</text>
</g>
<!-- enable_cnv&#45;&gt;run_dragen_germline_step -->
<g id="edge17" class="edge">
<title>enable_cnv&#45;&gt;run_dragen_germline_step</title>
<path fill="none" stroke="black" d="M8128.62,-2082.69C8118.25,-2071.91 8103.64,-2058.83 8088,-2051.41 7538.98,-1790.85 5591.94,-1587.52 5112.35,-1540.64"/>
<polygon fill="black" stroke="black" points="5112.6,-1537.14 5102.31,-1539.66 5111.92,-1544.11 5112.6,-1537.14"/>
</g>
<!-- enable_duplicate_marking -->
<g id="node9" class="node">
<title>enable_duplicate_marking</title>
<polygon fill="#94ddf4" stroke="black" points="7875.5,-2082.91 7875.5,-2119.91 8078.5,-2119.91 8078.5,-2082.91 7875.5,-2082.91"/>
<text text-anchor="middle" x="7977" y="-2097.71" font-family="Times,serif" font-size="14.00">enable_duplicate_marking</text>
</g>
<!-- enable_duplicate_marking&#45;&gt;run_dragen_germline_step -->
<g id="edge18" class="edge">
<title>enable_duplicate_marking&#45;&gt;run_dragen_germline_step</title>
<path fill="none" stroke="black" d="M7942.81,-2082.8C7921.26,-2072.34 7892.58,-2059.57 7866,-2051.41 6819.78,-1730.16 5493.97,-1579.39 5112.24,-1540.73"/>
<polygon fill="black" stroke="black" points="5112.34,-1537.22 5102.04,-1539.7 5111.63,-1544.19 5112.34,-1537.22"/>
</g>
<!-- enable_hla -->
<g id="node10" class="node">
<title>enable_hla</title>
<polygon fill="#94ddf4" stroke="black" points="7765,-2082.91 7765,-2119.91 7857,-2119.91 7857,-2082.91 7765,-2082.91"/>
<text text-anchor="middle" x="7811" y="-2097.71" font-family="Times,serif" font-size="14.00">enable_hla</text>
</g>
<!-- enable_hla&#45;&gt;run_dragen_germline_step -->
<g id="edge19" class="edge">
<title>enable_hla&#45;&gt;run_dragen_germline_step</title>
<path fill="none" stroke="black" d="M7795.91,-2082.79C7785.72,-2072.05 7771.37,-2058.98 7756,-2051.41 6810.63,-1586 5493.75,-1535.21 5112.39,-1530.57"/>
<polygon fill="black" stroke="black" points="5112.23,-1527.07 5102.19,-1530.46 5112.15,-1534.07 5112.23,-1527.07"/>
</g>
<!-- enable_map_align_output -->
<g id="node11" class="node">
<title>enable_map_align_output</title>
<polygon fill="#94ddf4" stroke="black" points="7549.5,-2082.91 7549.5,-2119.91 7746.5,-2119.91 7746.5,-2082.91 7549.5,-2082.91"/>
<text text-anchor="middle" x="7648" y="-2097.71" font-family="Times,serif" font-size="14.00">enable_map_align_output</text>
</g>
<!-- enable_map_align_output&#45;&gt;run_dragen_germline_step -->
<g id="edge20" class="edge">
<title>enable_map_align_output&#45;&gt;run_dragen_germline_step</title>
<path fill="none" stroke="black" d="M7614.25,-2082.73C7593.33,-2072.38 7565.65,-2059.75 7540,-2051.41 6624.52,-1753.79 5465.79,-1589.41 5112.22,-1543.71"/>
<polygon fill="black" stroke="black" points="5112.61,-1540.23 5102.25,-1542.43 5111.72,-1547.17 5112.61,-1540.23"/>
</g>
<!-- enable_sv -->
<g id="node12" class="node">
<title>enable_sv</title>
<polygon fill="#94ddf4" stroke="black" points="7445,-2082.91 7445,-2119.91 7531,-2119.91 7531,-2082.91 7445,-2082.91"/>
<text text-anchor="middle" x="7488" y="-2097.71" font-family="Times,serif" font-size="14.00">enable_sv</text>
</g>
<!-- enable_sv&#45;&gt;run_dragen_germline_step -->
<g id="edge21" class="edge">
<title>enable_sv&#45;&gt;run_dragen_germline_step</title>
<path fill="none" stroke="black" d="M7473.85,-2082.89C7464.27,-2072.2 7450.72,-2059.13 7436,-2051.41 6617.15,-1621.55 5466.07,-1546.28 5112.49,-1533.16"/>
<polygon fill="black" stroke="black" points="5112.38,-1529.65 5102.26,-1532.79 5112.13,-1536.65 5112.38,-1529.65"/>
</g>
<!-- fastq_list -->
<g id="node13" class="node">
<title>fastq_list</title>
<polygon fill="#94ddf4" stroke="black" points="7345,-2082.91 7345,-2119.91 7427,-2119.91 7427,-2082.91 7345,-2082.91"/>
<text text-anchor="middle" x="7386" y="-2097.71" font-family="Times,serif" font-size="14.00">fastq_list</text>
</g>
<!-- fastq_list&#45;&gt;run_dragen_germline_step -->
<g id="edge22" class="edge">
<title>fastq_list&#45;&gt;run_dragen_germline_step</title>
<path fill="none" stroke="black" d="M7372.09,-2082.45C7362.95,-2071.85 7350.1,-2059.07 7336,-2051.41 6558.16,-1628.89 5456.76,-1548.75 5112.24,-1533.78"/>
<polygon fill="black" stroke="black" points="5112.16,-1530.28 5102.02,-1533.35 5111.87,-1537.27 5112.16,-1530.28"/>
</g>
<!-- fastq_list_rows -->
<g id="node14" class="node">
<title>fastq_list_rows</title>
<polygon fill="#94ddf4" stroke="black" points="7203.5,-2082.91 7203.5,-2119.91 7326.5,-2119.91 7326.5,-2082.91 7203.5,-2082.91"/>
<text text-anchor="middle" x="7265" y="-2097.71" font-family="Times,serif" font-size="14.00">fastq_list_rows</text>
</g>
<!-- fastq_list_rows&#45;&gt;run_dragen_germline_step -->
<g id="edge23" class="edge">
<title>fastq_list_rows&#45;&gt;run_dragen_germline_step</title>
<path fill="none" stroke="black" d="M7243.88,-2082.72C7230.37,-2072.22 7212.06,-2059.45 7194,-2051.41 6439.59,-1715.53 5438.49,-1579.1 5112.51,-1541.76"/>
<polygon fill="black" stroke="black" points="5112.46,-1538.23 5102.13,-1540.58 5111.67,-1545.18 5112.46,-1538.23"/>
</g>
<!-- hla_allele_frequency_file -->
<g id="node15" class="node">
<title>hla_allele_frequency_file</title>
<polygon fill="#94ddf4" stroke="black" points="6995,-2082.91 6995,-2119.91 7185,-2119.91 7185,-2082.91 6995,-2082.91"/>
<text text-anchor="middle" x="7090" y="-2097.71" font-family="Times,serif" font-size="14.00">hla_allele_frequency_file</text>
</g>
<!-- hla_allele_frequency_file&#45;&gt;run_dragen_germline_step -->
<g id="edge24" class="edge">
<title>hla_allele_frequency_file&#45;&gt;run_dragen_germline_step</title>
<path fill="none" stroke="black" d="M7056.48,-2082.69C7036.42,-2072.58 7010.2,-2060.21 6986,-2051.41 6283.71,-1796.05 5399.61,-1608.87 5105.36,-1550"/>
<polygon fill="black" stroke="black" points="5105.63,-1546.48 5095.14,-1547.96 5104.26,-1553.35 5105.63,-1546.48"/>
</g>
<!-- hla_bed_file -->
<g id="node16" class="node">
<title>hla_bed_file</title>
<polygon fill="#94ddf4" stroke="black" points="6877,-2082.91 6877,-2119.91 6977,-2119.91 6977,-2082.91 6877,-2082.91"/>
<text text-anchor="middle" x="6927" y="-2097.71" font-family="Times,serif" font-size="14.00">hla_bed_file</text>
</g>
<!-- hla_bed_file&#45;&gt;run_dragen_germline_step -->
<g id="edge25" class="edge">
<title>hla_bed_file&#45;&gt;run_dragen_germline_step</title>
<path fill="none" stroke="black" d="M6909.84,-2082.8C6898.77,-2072.34 6883.57,-2059.57 6868,-2051.41 6249.76,-1727.28 5407.35,-1586.04 5112.32,-1544.37"/>
<polygon fill="black" stroke="black" points="5112.45,-1540.85 5102.06,-1542.93 5111.48,-1547.78 5112.45,-1540.85"/>
</g>
<!-- hla_min_reads -->
<g id="node17" class="node">
<title>hla_min_reads</title>
<polygon fill="#94ddf4" stroke="black" points="6739.5,-2082.91 6739.5,-2119.91 6858.5,-2119.91 6858.5,-2082.91 6739.5,-2082.91"/>
<text text-anchor="middle" x="6799" y="-2097.71" font-family="Times,serif" font-size="14.00">hla_min_reads</text>
</g>
<!-- hla_min_reads&#45;&gt;run_dragen_germline_step -->
<g id="edge26" class="edge">
<title>hla_min_reads&#45;&gt;run_dragen_germline_step</title>
<path fill="none" stroke="black" d="M6778.08,-2082.82C6764.95,-2072.51 6747.29,-2059.87 6730,-2051.41 6151.36,-1768.02 5387.28,-1603.4 5110.65,-1549.86"/>
<polygon fill="black" stroke="black" points="5111.1,-1546.39 5100.62,-1547.93 5109.78,-1553.26 5111.1,-1546.39"/>
</g>
<!-- hla_reference_file -->
<g id="node18" class="node">
<title>hla_reference_file</title>
<polygon fill="#94ddf4" stroke="black" points="6579,-2082.91 6579,-2119.91 6721,-2119.91 6721,-2082.91 6579,-2082.91"/>
<text text-anchor="middle" x="6650" y="-2097.71" font-family="Times,serif" font-size="14.00">hla_reference_file</text>
</g>
<!-- hla_reference_file&#45;&gt;run_dragen_germline_step -->
<g id="edge27" class="edge">
<title>hla_reference_file&#45;&gt;run_dragen_germline_step</title>
<path fill="none" stroke="black" d="M6624.53,-2082.74C6609.21,-2072.64 6589.05,-2060.27 6570,-2051.41 6025.44,-1798.05 5322.71,-1610.13 5086.5,-1550.48"/>
<polygon fill="black" stroke="black" points="5087.17,-1547.04 5076.62,-1547.99 5085.46,-1553.83 5087.17,-1547.04"/>
</g>
<!-- hla_tiebreaker_threshold -->
<g id="node19" class="node">
<title>hla_tiebreaker_threshold</title>
<polygon fill="#94ddf4" stroke="black" points="6367,-2082.91 6367,-2119.91 6561,-2119.91 6561,-2082.91 6367,-2082.91"/>
<text text-anchor="middle" x="6464" y="-2097.71" font-family="Times,serif" font-size="14.00">hla_tiebreaker_threshold</text>
</g>
<!-- hla_tiebreaker_threshold&#45;&gt;run_dragen_germline_step -->
<g id="edge28" class="edge">
<title>hla_tiebreaker_threshold&#45;&gt;run_dragen_germline_step</title>
<path fill="none" stroke="black" d="M6427.47,-2082.8C6407.16,-2073.2 6381.34,-2061.28 6358,-2051.41 5863,-1841.96 5252.41,-1619.43 5063.47,-1551.37"/>
<polygon fill="black" stroke="black" points="5064.59,-1548.05 5054,-1547.96 5062.22,-1554.64 5064.59,-1548.05"/>
</g>
<!-- hla_zygosity_threshold -->
<g id="node20" class="node">
<title>hla_zygosity_threshold</title>
<polygon fill="#94ddf4" stroke="black" points="6169.5,-2082.91 6169.5,-2119.91 6348.5,-2119.91 6348.5,-2082.91 6169.5,-2082.91"/>
<text text-anchor="middle" x="6259" y="-2097.71" font-family="Times,serif" font-size="14.00">hla_zygosity_threshold</text>
</g>
<!-- hla_zygosity_threshold&#45;&gt;run_dragen_germline_step -->
<g id="edge29" class="edge">
<title>hla_zygosity_threshold&#45;&gt;run_dragen_germline_step</title>
<path fill="none" stroke="black" d="M6224.7,-2082.83C6205.96,-2073.34 6182.31,-2061.53 6161,-2051.41 5736.25,-1849.6 5215.43,-1621.81 5054.63,-1551.92"/>
<polygon fill="black" stroke="black" points="5056.02,-1548.71 5045.46,-1547.94 5053.23,-1555.13 5056.02,-1548.71"/>
</g>
<!-- lic_instance_id_location -->
<g id="node21" class="node">
<title>lic_instance_id_location</title>
<polygon fill="#94ddf4" stroke="black" points="5968.5,-2082.91 5968.5,-2119.91 6151.5,-2119.91 6151.5,-2082.91 5968.5,-2082.91"/>
<text text-anchor="middle" x="6060" y="-2097.71" font-family="Times,serif" font-size="14.00">lic_instance_id_location</text>
</g>
<!-- lic_instance_id_location&#45;&gt;run_dragen_germline_step -->
<g id="edge30" class="edge">
<title>lic_instance_id_location&#45;&gt;run_dragen_germline_step</title>
<path fill="none" stroke="black" d="M6027.56,-2082.88C5873.83,-1999.82 5218.92,-1645.99 5046.66,-1552.91"/>
<polygon fill="black" stroke="black" points="5048.11,-1549.72 5037.64,-1548.04 5044.78,-1555.88 5048.11,-1549.72"/>
</g>
<!-- output_directory -->
<g id="node22" class="node">
<title>output_directory</title>
<polygon fill="#94ddf4" stroke="black" points="5814,-2082.91 5814,-2119.91 5950,-2119.91 5950,-2082.91 5814,-2082.91"/>
<text text-anchor="middle" x="5882" y="-2097.71" font-family="Times,serif" font-size="14.00">output_directory</text>
</g>
<!-- output_directory&#45;&gt;run_dragen_germline_step -->
<g id="edge31" class="edge">
<title>output_directory&#45;&gt;run_dragen_germline_step</title>
<path fill="none" stroke="black" d="M5854.79,-2082.72C5726.93,-1999.62 5185.95,-1648.01 5040.91,-1553.74"/>
<polygon fill="black" stroke="black" points="5042.62,-1550.68 5032.32,-1548.17 5038.8,-1556.55 5042.62,-1550.68"/>
</g>
<!-- qc_coverage_ignore_overlaps -->
<g id="node23" class="node">
<title>qc_coverage_ignore_overlaps</title>
<polygon fill="#94ddf4" stroke="black" points="5572,-2082.91 5572,-2119.91 5796,-2119.91 5796,-2082.91 5572,-2082.91"/>
<text text-anchor="middle" x="5684" y="-2097.71" font-family="Times,serif" font-size="14.00">qc_coverage_ignore_overlaps</text>
</g>
<!-- qc_coverage_ignore_overlaps&#45;&gt;run_dragen_germline_step -->
<g id="edge32" class="edge">
<title>qc_coverage_ignore_overlaps&#45;&gt;run_dragen_germline_step</title>
<path fill="none" stroke="black" d="M5662.93,-2082.72C5564.24,-1999.87 5147.6,-1650.12 5033.82,-1554.6"/>
<polygon fill="black" stroke="black" points="5036.06,-1551.92 5026.16,-1548.17 5031.56,-1557.28 5036.06,-1551.92"/>
</g>
<!-- qc_coverage_region_1 -->
<g id="node24" class="node">
<title>qc_coverage_region_1</title>
<polygon fill="#94ddf4" stroke="black" points="5380.5,-2082.91 5380.5,-2119.91 5553.5,-2119.91 5553.5,-2082.91 5380.5,-2082.91"/>
<text text-anchor="middle" x="5467" y="-2097.71" font-family="Times,serif" font-size="14.00">qc_coverage_region_1</text>
</g>
<!-- qc_coverage_region_1&#45;&gt;run_dragen_germline_step -->
<g id="edge33" class="edge">
<title>qc_coverage_region_1&#45;&gt;run_dragen_germline_step</title>
<path fill="none" stroke="black" d="M5452.67,-2082.72C5385.85,-2000.29 5104.86,-1653.61 5025.78,-1556.05"/>
<polygon fill="black" stroke="black" points="5028.41,-1553.73 5019.39,-1548.17 5022.97,-1558.14 5028.41,-1553.73"/>
</g>
<!-- qc_coverage_region_2 -->
<g id="node25" class="node">
<title>qc_coverage_region_2</title>
<polygon fill="#94ddf4" stroke="black" points="5189.5,-2082.91 5189.5,-2119.91 5362.5,-2119.91 5362.5,-2082.91 5189.5,-2082.91"/>
<text text-anchor="middle" x="5276" y="-2097.71" font-family="Times,serif" font-size="14.00">qc_coverage_region_2</text>
</g>
<!-- qc_coverage_region_2&#45;&gt;run_dragen_germline_step -->
<g id="edge34" class="edge">
<title>qc_coverage_region_2&#45;&gt;run_dragen_germline_step</title>
<path fill="none" stroke="black" d="M5267.59,-2082.72C5228.56,-2000.62 5064.9,-1656.39 5017.76,-1557.24"/>
<polygon fill="black" stroke="black" points="5020.9,-1555.7 5013.44,-1548.17 5014.58,-1558.7 5020.9,-1555.7"/>
</g>
<!-- qc_coverage_region_3 -->
<g id="node26" class="node">
<title>qc_coverage_region_3</title>
<polygon fill="#94ddf4" stroke="black" points="4998.5,-2082.91 4998.5,-2119.91 5171.5,-2119.91 5171.5,-2082.91 4998.5,-2082.91"/>
<text text-anchor="middle" x="5085" y="-2097.71" font-family="Times,serif" font-size="14.00">qc_coverage_region_3</text>
</g>
<!-- qc_coverage_region_3&#45;&gt;run_dragen_germline_step -->
<g id="edge35" class="edge">
<title>qc_coverage_region_3&#45;&gt;run_dragen_germline_step</title>
<path fill="none" stroke="black" d="M5082.52,-2082.72C5071.03,-2000.87 5022.97,-1658.47 5008.89,-1558.15"/>
<polygon fill="black" stroke="black" points="5012.35,-1557.58 5007.49,-1548.17 5005.42,-1558.56 5012.35,-1557.58"/>
</g>
<!-- reference_tar -->
<g id="node27" class="node">
<title>reference_tar</title>
<polygon fill="#94ddf4" stroke="black" points="4867.5,-2082.91 4867.5,-2119.91 4980.5,-2119.91 4980.5,-2082.91 4867.5,-2082.91"/>
<text text-anchor="middle" x="4924" y="-2097.71" font-family="Times,serif" font-size="14.00">reference_tar</text>
</g>
<!-- reference_tar&#45;&gt;run_dragen_germline_step -->
<g id="edge36" class="edge">
<title>reference_tar&#45;&gt;run_dragen_germline_step</title>
<path fill="none" stroke="black" d="M4926.51,-2082.72C4938.15,-2000.87 4986.8,-1658.47 5001.06,-1558.15"/>
<polygon fill="black" stroke="black" points="5004.53,-1558.56 5002.48,-1548.17 4997.6,-1557.57 5004.53,-1558.56"/>
</g>
<!-- sample_sex -->
<g id="node28" class="node">
<title>sample_sex</title>
<polygon fill="#94ddf4" stroke="black" points="4751,-2082.91 4751,-2119.91 4849,-2119.91 4849,-2082.91 4751,-2082.91"/>
<text text-anchor="middle" x="4800" y="-2097.71" font-family="Times,serif" font-size="14.00">sample_sex</text>
</g>
<!-- sample_sex&#45;&gt;run_dragen_germline_step -->
<g id="edge37" class="edge">
<title>sample_sex&#45;&gt;run_dragen_germline_step</title>
<path fill="none" stroke="black" d="M4806.36,-2082.72C4835.83,-2000.78 4959.19,-1657.78 4995.13,-1557.84"/>
<polygon fill="black" stroke="black" points="4998.52,-1558.76 4998.61,-1548.17 4991.94,-1556.39 4998.52,-1558.76"/>
</g>
<!-- sv_call_regions_bed -->
<g id="node29" class="node">
<title>sv_call_regions_bed</title>
<polygon fill="#94ddf4" stroke="black" points="4575.5,-2082.91 4575.5,-2119.91 4732.5,-2119.91 4732.5,-2082.91 4575.5,-2082.91"/>
<text text-anchor="middle" x="4654" y="-2097.71" font-family="Times,serif" font-size="14.00">sv_call_regions_bed</text>
</g>
<!-- sv_call_regions_bed&#45;&gt;run_dragen_germline_step -->
<g id="edge38" class="edge">
<title>sv_call_regions_bed&#45;&gt;run_dragen_germline_step</title>
<path fill="none" stroke="black" d="M4664.89,-2082.72C4715.5,-2000.53 4927.85,-1655.69 4988.66,-1556.94"/>
<polygon fill="black" stroke="black" points="4991.8,-1558.52 4994.06,-1548.17 4985.84,-1554.85 4991.8,-1558.52"/>
</g>
<!-- sv_discovery -->
<g id="node30" class="node">
<title>sv_discovery</title>
<polygon fill="#94ddf4" stroke="black" points="4450.5,-2082.91 4450.5,-2119.91 4557.5,-2119.91 4557.5,-2082.91 4450.5,-2082.91"/>
<text text-anchor="middle" x="4504" y="-2097.71" font-family="Times,serif" font-size="14.00">sv_discovery</text>
</g>
<!-- sv_discovery&#45;&gt;run_dragen_germline_step -->
<g id="edge39" class="edge">
<title>sv_discovery&#45;&gt;run_dragen_germline_step</title>
<path fill="none" stroke="black" d="M4519.54,-2082.72C4592.08,-2000.2 4897.33,-1652.91 4982.72,-1555.76"/>
<polygon fill="black" stroke="black" points="4985.42,-1557.99 4989.39,-1548.17 4980.16,-1553.37 4985.42,-1557.99"/>
</g>
<!-- sv_enable_liquid_tumor_mode -->
<g id="node31" class="node">
<title>sv_enable_liquid_tumor_mode</title>
<polygon fill="#94ddf4" stroke="black" points="4202,-2082.91 4202,-2119.91 4432,-2119.91 4432,-2082.91 4202,-2082.91"/>
<text text-anchor="middle" x="4317" y="-2097.71" font-family="Times,serif" font-size="14.00">sv_enable_liquid_tumor_mode</text>
</g>
<!-- sv_enable_liquid_tumor_mode&#45;&gt;run_dragen_germline_step -->
<g id="edge40" class="edge">
<title>sv_enable_liquid_tumor_mode&#45;&gt;run_dragen_germline_step</title>
<path fill="none" stroke="black" d="M4338.34,-2082.72C4438.35,-1999.87 4860.51,-1650.12 4975.8,-1554.6"/>
<polygon fill="black" stroke="black" points="4978.1,-1557.24 4983.56,-1548.17 4973.63,-1551.85 4978.1,-1557.24"/>
</g>
<!-- sv_exome -->
<g id="node32" class="node">
<title>sv_exome</title>
<polygon fill="#94ddf4" stroke="black" points="4098,-2082.91 4098,-2119.91 4184,-2119.91 4184,-2082.91 4098,-2082.91"/>
<text text-anchor="middle" x="4141" y="-2097.71" font-family="Times,serif" font-size="14.00">sv_exome</text>
</g>
<!-- sv_exome&#45;&gt;run_dragen_germline_step -->
<g id="edge41" class="edge">
<title>sv_exome&#45;&gt;run_dragen_germline_step</title>
<path fill="none" stroke="black" d="M4158.08,-2082.78C4167.89,-2073.05 4180.68,-2061.03 4193,-2051.41 4471.21,-1834.11 4841.69,-1621.48 4963.95,-1553.11"/>
<polygon fill="black" stroke="black" points="4965.97,-1555.99 4972.99,-1548.06 4962.56,-1549.88 4965.97,-1555.99"/>
</g>
<!-- sv_forcegt_vcf -->
<g id="node33" class="node">
<title>sv_forcegt_vcf</title>
<polygon fill="#94ddf4" stroke="black" points="3962,-2082.91 3962,-2119.91 4080,-2119.91 4080,-2082.91 3962,-2082.91"/>
<text text-anchor="middle" x="4021" y="-2097.71" font-family="Times,serif" font-size="14.00">sv_forcegt_vcf</text>
</g>
<!-- sv_forcegt_vcf&#45;&gt;run_dragen_germline_step -->
<g id="edge42" class="edge">
<title>sv_forcegt_vcf&#45;&gt;run_dragen_germline_step</title>
<path fill="none" stroke="black" d="M4044.17,-2082.77C4057.12,-2073.15 4073.69,-2061.24 4089,-2051.41 4415.24,-1841.94 4829.04,-1622.25 4961.89,-1552.8"/>
<polygon fill="black" stroke="black" points="4963.72,-1555.8 4970.96,-1548.06 4960.48,-1549.59 4963.72,-1555.8"/>
</g>
<!-- sv_output_contigs -->
<g id="node34" class="node">
<title>sv_output_contigs</title>
<polygon fill="#94ddf4" stroke="black" points="3798.5,-2082.91 3798.5,-2119.91 3943.5,-2119.91 3943.5,-2082.91 3798.5,-2082.91"/>
<text text-anchor="middle" x="3871" y="-2097.71" font-family="Times,serif" font-size="14.00">sv_output_contigs</text>
</g>
<!-- sv_output_contigs&#45;&gt;run_dragen_germline_step -->
<g id="edge43" class="edge">
<title>sv_output_contigs&#45;&gt;run_dragen_germline_step</title>
<path fill="none" stroke="black" d="M3899.14,-2082.84C3914.82,-2073.25 3934.8,-2061.33 3953,-2051.41 4333.38,-1843.98 4807.45,-1621.79 4957.31,-1552.38"/>
<polygon fill="black" stroke="black" points="4959.1,-1555.41 4966.71,-1548.03 4956.16,-1549.06 4959.1,-1555.41"/>
</g>
<!-- sv_region -->
<g id="node35" class="node">
<title>sv_region</title>
<polygon fill="#94ddf4" stroke="black" points="3695.5,-2082.91 3695.5,-2119.91 3780.5,-2119.91 3780.5,-2082.91 3695.5,-2082.91"/>
<text text-anchor="middle" x="3738" y="-2097.71" font-family="Times,serif" font-size="14.00">sv_region</text>
</g>
<!-- sv_region&#45;&gt;run_dragen_germline_step -->
<g id="edge44" class="edge">
<title>sv_region&#45;&gt;run_dragen_germline_step</title>
<path fill="none" stroke="black" d="M3754.04,-2082.44C3763.72,-2072.36 3776.72,-2060.11 3790,-2051.41 4189.23,-1789.62 4741.84,-1609.29 4935,-1550.87"/>
<polygon fill="black" stroke="black" points="4936.18,-1554.17 4944.75,-1547.94 4934.16,-1547.47 4936.18,-1554.17"/>
</g>
<!-- sv_se_overlap_pair_evidence -->
<g id="node36" class="node">
<title>sv_se_overlap_pair_evidence</title>
<polygon fill="#94ddf4" stroke="black" points="3457,-2082.91 3457,-2119.91 3677,-2119.91 3677,-2082.91 3457,-2082.91"/>
<text text-anchor="middle" x="3567" y="-2097.71" font-family="Times,serif" font-size="14.00">sv_se_overlap_pair_evidence</text>
</g>
<!-- sv_se_overlap_pair_evidence&#45;&gt;run_dragen_germline_step -->
<g id="edge45" class="edge">
<title>sv_se_overlap_pair_evidence&#45;&gt;run_dragen_germline_step</title>
<path fill="none" stroke="black" d="M3609.72,-2082.83C3632.61,-2073.44 3661.32,-2061.73 3687,-2051.41 4176.28,-1854.81 4770.02,-1622.26 4950.44,-1551.72"/>
<polygon fill="black" stroke="black" points="4951.94,-1554.89 4959.98,-1547.99 4949.39,-1548.37 4951.94,-1554.89"/>
</g>
<!-- sv_tin_contam_tolerance -->
<g id="node37" class="node">
<title>sv_tin_contam_tolerance</title>
<polygon fill="#94ddf4" stroke="black" points="3247.5,-2082.91 3247.5,-2119.91 3438.5,-2119.91 3438.5,-2082.91 3247.5,-2082.91"/>
<text text-anchor="middle" x="3343" y="-2097.71" font-family="Times,serif" font-size="14.00">sv_tin_contam_tolerance</text>
</g>
<!-- sv_tin_contam_tolerance&#45;&gt;run_dragen_germline_step -->
<g id="edge46" class="edge">
<title>sv_tin_contam_tolerance&#45;&gt;run_dragen_germline_step</title>
<path fill="none" stroke="black" d="M3378.04,-2082.84C3398.25,-2073.01 3424.27,-2060.88 3448,-2051.41 4010.85,-1826.75 4712.71,-1615.9 4934.48,-1550.88"/>
<polygon fill="black" stroke="black" points="4935.75,-1554.15 4944.36,-1547.98 4933.78,-1547.43 4935.75,-1554.15"/>
</g>
<!-- vc_decoy_contigs -->
<g id="node38" class="node">
<title>vc_decoy_contigs</title>
<polygon fill="#94ddf4" stroke="black" points="3090.5,-2082.91 3090.5,-2119.91 3229.5,-2119.91 3229.5,-2082.91 3090.5,-2082.91"/>
<text text-anchor="middle" x="3160" y="-2097.71" font-family="Times,serif" font-size="14.00">vc_decoy_contigs</text>
</g>
<!-- vc_decoy_contigs&#45;&gt;run_dragen_germline_step -->
<g id="edge47" class="edge">
<title>vc_decoy_contigs&#45;&gt;run_dragen_germline_step</title>
<path fill="none" stroke="black" d="M3184.66,-2082.71C3199.78,-2072.48 3219.85,-2059.98 3239,-2051.41 3845.27,-1779.92 4630.94,-1605.89 4905.26,-1549.98"/>
<polygon fill="black" stroke="black" points="4906.09,-1553.39 4915.2,-1547.97 4904.7,-1546.53 4906.09,-1553.39"/>
</g>
<!-- vc_enable_baf -->
<g id="node39" class="node">
<title>vc_enable_baf</title>
<polygon fill="#94ddf4" stroke="black" points="2956,-2082.91 2956,-2119.91 3072,-2119.91 3072,-2082.91 2956,-2082.91"/>
<text text-anchor="middle" x="3014" y="-2097.71" font-family="Times,serif" font-size="14.00">vc_enable_baf</text>
</g>
<!-- vc_enable_baf&#45;&gt;run_dragen_germline_step -->
<g id="edge48" class="edge">
<title>vc_enable_baf&#45;&gt;run_dragen_germline_step</title>
<path fill="none" stroke="black" d="M3034.2,-2082.87C3047.12,-2072.44 3064.66,-2059.67 3082,-2051.41 3732.93,-1741.38 4598.75,-1590.81 4897.97,-1545.57"/>
<polygon fill="black" stroke="black" points="4898.57,-1549.02 4907.94,-1544.07 4897.53,-1542.09 4898.57,-1549.02"/>
</g>
<!-- vc_enable_decoy_contigs -->
<g id="node40" class="node">
<title>vc_enable_decoy_contigs</title>
<polygon fill="#94ddf4" stroke="black" points="2744.5,-2082.91 2744.5,-2119.91 2937.5,-2119.91 2937.5,-2082.91 2744.5,-2082.91"/>
<text text-anchor="middle" x="2841" y="-2097.71" font-family="Times,serif" font-size="14.00">vc_enable_decoy_contigs</text>
</g>
<!-- vc_enable_decoy_contigs&#45;&gt;run_dragen_germline_step -->
<g id="edge49" class="edge">
<title>vc_enable_decoy_contigs&#45;&gt;run_dragen_germline_step</title>
<path fill="none" stroke="black" d="M2874.7,-2082.88C2895.21,-2072.71 2922.16,-2060.21 2947,-2051.41 3676.3,-1793.03 4593.41,-1608.06 4899.89,-1549.85"/>
<polygon fill="black" stroke="black" points="4900.92,-1553.22 4910.09,-1547.92 4899.62,-1546.34 4900.92,-1553.22"/>
</g>
<!-- vc_enable_gatk_acceleration -->
<g id="node41" class="node">
<title>vc_enable_gatk_acceleration</title>
<polygon fill="#94ddf4" stroke="black" points="2508,-2082.91 2508,-2119.91 2726,-2119.91 2726,-2082.91 2508,-2082.91"/>
<text text-anchor="middle" x="2617" y="-2097.71" font-family="Times,serif" font-size="14.00">vc_enable_gatk_acceleration</text>
</g>
<!-- vc_enable_gatk_acceleration&#45;&gt;run_dragen_germline_step -->
<g id="edge50" class="edge">
<title>vc_enable_gatk_acceleration&#45;&gt;run_dragen_germline_step</title>
<path fill="none" stroke="black" d="M2654.99,-2082.88C2678.07,-2072.72 2708.32,-2060.22 2736,-2051.41 3551.26,-1791.91 4569.67,-1605.34 4897.84,-1548.51"/>
<polygon fill="black" stroke="black" points="4898.56,-1551.94 4907.82,-1546.79 4897.37,-1545.04 4898.56,-1551.94"/>
</g>
<!-- vc_enable_phasing -->
<g id="node42" class="node">
<title>vc_enable_phasing</title>
<polygon fill="#94ddf4" stroke="black" points="2340.5,-2082.91 2340.5,-2119.91 2489.5,-2119.91 2489.5,-2082.91 2340.5,-2082.91"/>
<text text-anchor="middle" x="2415" y="-2097.71" font-family="Times,serif" font-size="14.00">vc_enable_phasing</text>
</g>
<!-- vc_enable_phasing&#45;&gt;run_dragen_germline_step -->
<g id="edge51" class="edge">
<title>vc_enable_phasing&#45;&gt;run_dragen_germline_step</title>
<path fill="none" stroke="black" d="M2440.39,-2082.68C2456.51,-2072.17 2478.19,-2059.39 2499,-2051.41 3388.1,-1710.11 4544.88,-1575.12 4898.02,-1540.2"/>
<polygon fill="black" stroke="black" points="4898.38,-1543.69 4907.99,-1539.22 4897.69,-1536.72 4898.38,-1543.69"/>
</g>
<!-- vc_enable_roh -->
<g id="node43" class="node">
<title>vc_enable_roh</title>
<polygon fill="#94ddf4" stroke="black" points="2205.5,-2082.91 2205.5,-2119.91 2322.5,-2119.91 2322.5,-2082.91 2205.5,-2082.91"/>
<text text-anchor="middle" x="2264" y="-2097.71" font-family="Times,serif" font-size="14.00">vc_enable_roh</text>
</g>
<!-- vc_enable_roh&#45;&gt;run_dragen_germline_step -->
<g id="edge52" class="edge">
<title>vc_enable_roh&#45;&gt;run_dragen_germline_step</title>
<path fill="none" stroke="black" d="M2283.42,-2082.91C2296.31,-2072.21 2314.11,-2059.15 2332,-2051.41 3268.59,-1646.06 4526.12,-1553.87 4897.51,-1534.92"/>
<polygon fill="black" stroke="black" points="4897.9,-1538.41 4907.71,-1534.41 4897.54,-1531.42 4897.9,-1538.41"/>
</g>
<!-- vc_enable_sex_chr_diploid -->
<g id="node44" class="node">
<title>vc_enable_sex_chr_diploid</title>
<polygon fill="#94ddf4" stroke="black" points="1984.5,-2082.91 1984.5,-2119.91 2187.5,-2119.91 2187.5,-2082.91 1984.5,-2082.91"/>
<text text-anchor="middle" x="2086" y="-2097.71" font-family="Times,serif" font-size="14.00">vc_enable_sex_chr_diploid</text>
</g>
<!-- vc_enable_sex_chr_diploid&#45;&gt;run_dragen_germline_step -->
<g id="edge53" class="edge">
<title>vc_enable_sex_chr_diploid&#45;&gt;run_dragen_germline_step</title>
<path fill="none" stroke="black" d="M2120.2,-2082.83C2141.75,-2072.38 2170.43,-2059.61 2197,-2051.41 3222.18,-1734.75 4520.65,-1581.16 4897.82,-1541.22"/>
<polygon fill="black" stroke="black" points="4898.33,-1544.68 4907.9,-1540.15 4897.59,-1537.72 4898.33,-1544.68"/>
</g>
<!-- vc_enable_vcf_output -->
<g id="node45" class="node">
<title>vc_enable_vcf_output</title>
<polygon fill="#94ddf4" stroke="black" points="1799,-2082.91 1799,-2119.91 1967,-2119.91 1967,-2082.91 1799,-2082.91"/>
<text text-anchor="middle" x="1883" y="-2097.71" font-family="Times,serif" font-size="14.00">vc_enable_vcf_output</text>
</g>
<!-- vc_enable_vcf_output&#45;&gt;run_dragen_germline_step -->
<g id="edge54" class="edge">
<title>vc_enable_vcf_output&#45;&gt;run_dragen_germline_step</title>
<path fill="none" stroke="black" d="M1910.86,-2082.75C1928.81,-2072.14 1953.02,-2059.22 1976,-2051.41 3077.65,-1676.98 4500.23,-1562.41 4897.71,-1536.67"/>
<polygon fill="black" stroke="black" points="4898.01,-1540.16 4907.76,-1536.03 4897.56,-1533.18 4898.01,-1540.16"/>
</g>
<!-- vc_haploid_call_af_threshold -->
<g id="node46" class="node">
<title>vc_haploid_call_af_threshold</title>
<polygon fill="#94ddf4" stroke="black" points="1563,-2082.91 1563,-2119.91 1781,-2119.91 1781,-2082.91 1563,-2082.91"/>
<text text-anchor="middle" x="1672" y="-2097.71" font-family="Times,serif" font-size="14.00">vc_haploid_call_af_threshold</text>
</g>
<!-- vc_haploid_call_af_threshold&#45;&gt;run_dragen_germline_step -->
<g id="edge55" class="edge">
<title>vc_haploid_call_af_threshold&#45;&gt;run_dragen_germline_step</title>
<path fill="none" stroke="black" d="M1708.15,-2082.81C1731.11,-2072.29 1761.73,-2059.45 1790,-2051.41 2981.3,-1712.55 4487.69,-1572.14 4897.81,-1538.66"/>
<polygon fill="black" stroke="black" points="4898.2,-1542.14 4907.88,-1537.84 4897.63,-1535.16 4898.2,-1542.14"/>
</g>
<!-- vc_hard_filter -->
<g id="node47" class="node">
<title>vc_hard_filter</title>
<polygon fill="#94ddf4" stroke="black" points="1431.5,-2082.91 1431.5,-2119.91 1544.5,-2119.91 1544.5,-2082.91 1431.5,-2082.91"/>
<text text-anchor="middle" x="1488" y="-2097.71" font-family="Times,serif" font-size="14.00">vc_hard_filter</text>
</g>
<!-- vc_hard_filter&#45;&gt;run_dragen_germline_step -->
<g id="edge56" class="edge">
<title>vc_hard_filter&#45;&gt;run_dragen_germline_step</title>
<path fill="none" stroke="black" d="M1506.37,-2082.88C1518.83,-2072.03 1536.21,-2058.81 1554,-2051.41 2185.3,-1788.78 4385.68,-1584.29 4897.87,-1539.54"/>
<polygon fill="black" stroke="black" points="4898.19,-1543.03 4907.85,-1538.67 4897.58,-1536.06 4898.19,-1543.03"/>
</g>
<!-- vc_max_reads_per_active_region -->
<g id="node48" class="node">
<title>vc_max_reads_per_active_region</title>
<polygon fill="#94ddf4" stroke="black" points="1165,-2082.91 1165,-2119.91 1413,-2119.91 1413,-2082.91 1165,-2082.91"/>
<text text-anchor="middle" x="1289" y="-2097.71" font-family="Times,serif" font-size="14.00">vc_max_reads_per_active_region</text>
</g>
<!-- vc_max_reads_per_active_region&#45;&gt;run_dragen_germline_step -->
<g id="edge57" class="edge">
<title>vc_max_reads_per_active_region&#45;&gt;run_dragen_germline_step</title>
<path fill="none" stroke="black" d="M1330.25,-2082.81C1356.4,-2072.29 1391.18,-2059.45 1423,-2051.41 2769.17,-1711.25 4459.88,-1570.16 4897.64,-1537.9"/>
<polygon fill="black" stroke="black" points="4898.03,-1541.39 4907.75,-1537.16 4897.52,-1534.4 4898.03,-1541.39"/>
</g>
<!-- vc_max_reads_per_raw_region -->
<g id="node49" class="node">
<title>vc_max_reads_per_raw_region</title>
<polygon fill="#94ddf4" stroke="black" points="913.5,-2082.91 913.5,-2119.91 1146.5,-2119.91 1146.5,-2082.91 913.5,-2082.91"/>
<text text-anchor="middle" x="1030" y="-2097.71" font-family="Times,serif" font-size="14.00">vc_max_reads_per_raw_region</text>
</g>
<!-- vc_max_reads_per_raw_region&#45;&gt;run_dragen_germline_step -->
<g id="edge58" class="edge">
<title>vc_max_reads_per_raw_region&#45;&gt;run_dragen_germline_step</title>
<path fill="none" stroke="black" d="M1068.1,-2082.87C1092.7,-2072.23 1125.66,-2059.24 1156,-2051.41 2607.03,-1676.7 4439.51,-1559.93 4897.56,-1535.65"/>
<polygon fill="black" stroke="black" points="4898,-1539.13 4907.8,-1535.11 4897.63,-1532.14 4898,-1539.13"/>
</g>
<!-- vc_remove_all_soft_clips -->
<g id="node50" class="node">
<title>vc_remove_all_soft_clips</title>
<polygon fill="#94ddf4" stroke="black" points="705,-2082.91 705,-2119.91 895,-2119.91 895,-2082.91 705,-2082.91"/>
<text text-anchor="middle" x="800" y="-2097.71" font-family="Times,serif" font-size="14.00">vc_remove_all_soft_clips</text>
</g>
<!-- vc_remove_all_soft_clips&#45;&gt;run_dragen_germline_step -->
<g id="edge59" class="edge">
<title>vc_remove_all_soft_clips&#45;&gt;run_dragen_germline_step</title>
<path fill="none" stroke="black" d="M831.17,-2082.73C851.55,-2071.97 879.11,-2058.9 905,-2051.41 2444.96,-1606.06 4419.7,-1541.23 4897.48,-1531.94"/>
<polygon fill="black" stroke="black" points="4897.87,-1535.43 4907.81,-1531.74 4897.74,-1528.43 4897.87,-1535.43"/>
</g>
<!-- vc_roh_blacklist_bed -->
<g id="node51" class="node">
<title>vc_roh_blacklist_bed</title>
<polygon fill="#94ddf4" stroke="black" points="523.5,-2082.91 523.5,-2119.91 686.5,-2119.91 686.5,-2082.91 523.5,-2082.91"/>
<text text-anchor="middle" x="605" y="-2097.71" font-family="Times,serif" font-size="14.00">vc_roh_blacklist_bed</text>
</g>
<!-- vc_roh_blacklist_bed&#45;&gt;run_dragen_germline_step -->
<g id="edge60" class="edge">
<title>vc_roh_blacklist_bed&#45;&gt;run_dragen_germline_step</title>
<path fill="none" stroke="black" d="M631.3,-2082.82C648.87,-2071.96 672.91,-2058.73 696,-2051.41 1517.85,-1790.74 4313.54,-1579.79 4897.53,-1537.95"/>
<polygon fill="black" stroke="black" points="4897.9,-1541.44 4907.62,-1537.23 4897.4,-1534.46 4897.9,-1541.44"/>
</g>
<!-- vc_target_bed -->
<g id="node52" class="node">
<title>vc_target_bed</title>
<polygon fill="#94ddf4" stroke="black" points="389,-2082.91 389,-2119.91 505,-2119.91 505,-2082.91 389,-2082.91"/>
<text text-anchor="middle" x="447" y="-2097.71" font-family="Times,serif" font-size="14.00">vc_target_bed</text>
</g>
<!-- vc_target_bed&#45;&gt;run_dragen_germline_step -->
<g id="edge61" class="edge">
<title>vc_target_bed&#45;&gt;run_dragen_germline_step</title>
<path fill="none" stroke="black" d="M465.94,-2082.68C478.78,-2071.75 496.68,-2058.51 515,-2051.41 1354.42,-1725.86 4296.34,-1565.33 4897.3,-1535.55"/>
<polygon fill="black" stroke="black" points="4897.87,-1539.03 4907.68,-1535.04 4897.52,-1532.03 4897.87,-1539.03"/>
</g>
<!-- vc_target_bed_padding -->
<g id="node53" class="node">
<title>vc_target_bed_padding</title>
<polygon fill="#94ddf4" stroke="black" points="189.5,-2082.91 189.5,-2119.91 370.5,-2119.91 370.5,-2082.91 189.5,-2082.91"/>
<text text-anchor="middle" x="280" y="-2097.71" font-family="Times,serif" font-size="14.00">vc_target_bed_padding</text>
</g>
<!-- vc_target_bed_padding&#45;&gt;run_dragen_germline_step -->
<g id="edge62" class="edge">
<title>vc_target_bed_padding&#45;&gt;run_dragen_germline_step</title>
<path fill="none" stroke="black" d="M309.11,-2082.82C328.51,-2071.94 354.94,-2058.72 380,-2051.41 1271.37,-1791.33 4289.91,-1578.31 4897.81,-1537.48"/>
<polygon fill="black" stroke="black" points="4898.13,-1540.96 4907.87,-1536.8 4897.66,-1533.98 4898.13,-1540.96"/>
</g>
<!-- vc_target_coverage -->
<g id="node54" class="node">
<title>vc_target_coverage</title>
<polygon fill="#94ddf4" stroke="black" points="16.5,-2082.91 16.5,-2119.91 171.5,-2119.91 171.5,-2082.91 16.5,-2082.91"/>
<text text-anchor="middle" x="94" y="-2097.71" font-family="Times,serif" font-size="14.00">vc_target_coverage</text>
</g>
<!-- vc_target_coverage&#45;&gt;run_dragen_germline_step -->
<g id="edge63" class="edge">
<title>vc_target_coverage&#45;&gt;run_dragen_germline_step</title>
<path fill="none" stroke="black" d="M118.68,-2082.7C135.22,-2071.78 157.93,-2058.54 180,-2051.41 1103.48,-1752.81 4272.59,-1569.7 4897.5,-1536.04"/>
<polygon fill="black" stroke="black" points="4898.04,-1539.52 4907.84,-1535.49 4897.67,-1532.53 4898.04,-1539.52"/>
</g>
<!-- dragen_bam_out -->
<g id="node55" class="node">
<title>dragen_bam_out</title>
<polygon fill="#94ddf4" stroke="black" points="4808,-411.91 4808,-448.91 4942,-448.91 4942,-411.91 4808,-411.91"/>
<text text-anchor="middle" x="4875" y="-426.71" font-family="Times,serif" font-size="14.00">dragen_bam_out</text>
</g>
<!-- dragen_germline_output_directory -->
<g id="node56" class="node">
<title>dragen_germline_output_directory</title>
<polygon fill="#94ddf4" stroke="black" points="4960.5,-411.91 4960.5,-448.91 5223.5,-448.91 5223.5,-411.91 4960.5,-411.91"/>
<text text-anchor="middle" x="5092" y="-426.71" font-family="Times,serif" font-size="14.00">dragen_germline_output_directory</text>
</g>
<!-- dragen_vcf_out -->
<g id="node57" class="node">
<title>dragen_vcf_out</title>
<polygon fill="#94ddf4" stroke="black" points="5241.5,-411.91 5241.5,-448.91 5366.5,-448.91 5366.5,-411.91 5241.5,-411.91"/>
<text text-anchor="middle" x="5304" y="-426.71" font-family="Times,serif" font-size="14.00">dragen_vcf_out</text>
</g>
<!-- multiqc_output_directory -->
<g id="node58" class="node">
<title>multiqc_output_directory</title>
<polygon fill="#94ddf4" stroke="black" points="5384.5,-411.91 5384.5,-448.91 5581.5,-448.91 5581.5,-411.91 5384.5,-411.91"/>
<text text-anchor="middle" x="5483" y="-426.71" font-family="Times,serif" font-size="14.00">multiqc_output_directory</text>
</g>
<!-- run_dragen_germline_step&#45;&gt;dragen_bam_out -->
<g id="edge2" class="edge">
<title>run_dragen_germline_step&#45;&gt;dragen_bam_out</title>
<path fill="none" stroke="black" d="M5002.91,-1510.73C4987.9,-1384.11 4896.82,-615.53 4878.29,-459.16"/>
<polygon fill="black" stroke="black" points="4881.73,-458.49 4877.08,-448.98 4874.78,-459.32 4881.73,-458.49"/>
</g>
<!-- run_dragen_germline_step&#45;&gt;dragen_germline_output_directory -->
<g id="edge3" class="edge">
<title>run_dragen_germline_step&#45;&gt;dragen_germline_output_directory</title>
<path fill="none" stroke="black" d="M5006.4,-1510.73C5016.44,-1384.11 5077.4,-615.53 5089.8,-459.16"/>
<polygon fill="black" stroke="black" points="5093.31,-459.22 5090.61,-448.98 5086.33,-458.67 5093.31,-459.22"/>
</g>
<!-- run_dragen_germline_step&#45;&gt;dragen_vcf_out -->
<g id="edge4" class="edge">
<title>run_dragen_germline_step&#45;&gt;dragen_vcf_out</title>
<path fill="none" stroke="black" d="M5009.82,-1510.73C5044.37,-1383.98 5254.24,-613.99 5296.56,-458.69"/>
<polygon fill="black" stroke="black" points="5299.96,-459.54 5299.21,-448.98 5293.21,-457.7 5299.96,-459.54"/>
</g>
<!-- run_dragen_germline_step&#45;&gt;dragen_qc_step -->
<g id="edge1" class="edge">
<title>run_dragen_germline_step&#45;&gt;dragen_qc_step</title>
<path fill="none" stroke="black" d="M5102.11,-1515.79C5675.61,-1441.28 8612.62,-1059.67 9135.37,-991.75"/>
<polygon fill="black" stroke="black" points="9135.99,-995.2 9145.45,-990.44 9135.08,-988.26 9135.99,-995.2"/>
</g>
<!-- dragen_qc_step&#45;&gt;multiqc_output_directory -->
<g id="edge5" class="edge">
<title>dragen_qc_step&#45;&gt;multiqc_output_directory</title>
<path fill="none" stroke="black" d="M9145.42,-969.19C8691.32,-902.51 6151.08,-529.51 5591.89,-447.4"/>
<polygon fill="black" stroke="black" points="5592.22,-443.91 5581.81,-445.92 5591.2,-450.83 5592.22,-443.91"/>
</g>
<!-- create_dummy_file_step -->
<g id="node61" class="node">
<title>create_dummy_file_step</title>
<polygon fill="lightgoldenrodyellow" stroke="black" points="9261.5,-1510.91 9261.5,-1547.91 9522.5,-1547.91 9522.5,-1510.91 9261.5,-1510.91"/>
<text text-anchor="middle" x="9392" y="-1525.71" font-family="Times,serif" font-size="14.00">custom&#45;create&#45;dummy&#45;file v(1.0.0)</text>
</g>
<!-- create_dummy_file_step&#45;&gt;dragen_qc_step -->
<g id="edge6" class="edge">
<title>create_dummy_file_step&#45;&gt;dragen_qc_step</title>
<path fill="none" stroke="black" d="M9386.31,-1510.83C9360.59,-1431.34 9255.07,-1105.25 9223.78,-1008.56"/>
<polygon fill="black" stroke="black" points="9227.08,-1007.36 9220.67,-998.92 9220.42,-1009.51 9227.08,-1007.36"/>
</g>
<!-- \n -->
<g id="node62" class="node">
<title>\n</title>
<ellipse fill="none" stroke="black" cx="9330" cy="-2101.41" rx="27" ry="18"/>
</g>
</g>
</svg>
