<?xml version="1.0" encoding="UTF-8" standalone="no"?>
<!DOCTYPE svg PUBLIC "-//W3C//DTD SVG 1.1//EN"
 "http://www.w3.org/Graphics/SVG/1.1/DTD/svg11.dtd">
<!-- Generated by graphviz version 2.43.0 (0)
 -->
<!-- Title: G Pages: 1 -->
<svg width="9104pt" height="2291pt"
 viewBox="0.00 0.00 9104.00 2291.10" xmlns="http://www.w3.org/2000/svg" xmlns:xlink="http://www.w3.org/1999/xlink">
<g id="graph0" class="graph" transform="scale(1 1) rotate(0) translate(4 2287.1)">
<title>G</title>
<polygon fill="#eeeeee" stroke="transparent" points="-4,4 -4,-2287.1 9100,-2287.1 9100,4 -4,4"/>
<g id="clust1" class="cluster">
<title>cluster_inputs</title>
<polygon fill="#eeeeee" stroke="black" stroke-dasharray="5,2" points="8,-1672.83 8,-2225.66 9032,-2225.66 9032,-1672.83 8,-1672.83"/>
<text text-anchor="middle" x="8965.5" y="-1680.63" font-family="Times,serif" font-size="14.00">Workflow Inputs</text>
</g>
<g id="clust2" class="cluster">
<title>cluster_outputs</title>
<polygon fill="#eeeeee" stroke="black" stroke-dasharray="5,2" points="3950,-57.44 3950,-610.26 4741,-610.26 4741,-57.44 3950,-57.44"/>
<text text-anchor="middle" x="4668.5" y="-65.24" font-family="Times,serif" font-size="14.00">Workflow Outputs</text>
</g>
<!-- output_file_prefix -->
<g id="node1" class="node">
<title>output_file_prefix</title>
<polygon fill="#94ddf4" stroke="black" points="16,-2012.94 16,-2049.94 156,-2049.94 156,-2012.94 16,-2012.94"/>
<text text-anchor="middle" x="86" y="-2027.74" font-family="Times,serif" font-size="14.00">output_file_prefix</text>
</g>
<!-- dragen_qc_step -->
<g id="node58" class="node">
<title>dragen_qc_step</title>
<polygon fill="lightgoldenrodyellow" stroke="black" points="16.5,-928.94 16.5,-965.94 155.5,-965.94 155.5,-928.94 16.5,-928.94"/>
<text text-anchor="middle" x="86" y="-943.74" font-family="Times,serif" font-size="14.00">multiqc v(1.14.0)</text>
</g>
<!-- output_file_prefix&#45;&gt;dragen_qc_step -->
<g id="edge7" class="edge">
<title>output_file_prefix&#45;&gt;dragen_qc_step</title>
<path fill="none" stroke="black" d="M82.2,-2012.56C69.56,-1886.45 69.27,-1131.28 81.33,-976.25"/>
<polygon fill="black" stroke="black" points="84.83,-976.4 82.22,-966.14 77.85,-975.79 84.83,-976.4"/>
</g>
<!-- output_file_prefix&#45;&gt;dragen_qc_step -->
<g id="edge8" class="edge">
<title>output_file_prefix&#45;&gt;dragen_qc_step</title>
<path fill="none" stroke="black" d="M86,-2012.56C86,-1886.45 86,-1131.28 86,-976.25"/>
<polygon fill="black" stroke="black" points="89.5,-976.14 86,-966.14 82.5,-976.14 89.5,-976.14"/>
</g>
<!-- output_file_prefix&#45;&gt;dragen_qc_step -->
<g id="edge9" class="edge">
<title>output_file_prefix&#45;&gt;dragen_qc_step</title>
<path fill="none" stroke="black" d="M89.8,-2012.56C102.44,-1886.45 102.73,-1131.28 90.67,-976.25"/>
<polygon fill="black" stroke="black" points="94.15,-975.79 89.78,-966.14 87.17,-976.4 94.15,-975.79"/>
</g>
<!-- run_dragen_germline_step -->
<g id="node59" class="node">
<title>run_dragen_germline_step</title>
<polygon fill="lightgoldenrodyellow" stroke="black" points="4467,-1460.94 4467,-1497.94 4661,-1497.94 4661,-1460.94 4467,-1460.94"/>
<text text-anchor="middle" x="4564" y="-1475.74" font-family="Times,serif" font-size="14.00">dragen&#45;germline v(4.2.4)</text>
</g>
<!-- output_file_prefix&#45;&gt;run_dragen_germline_step -->
<g id="edge10" class="edge">
<title>output_file_prefix&#45;&gt;run_dragen_germline_step</title>
<path fill="none" stroke="black" d="M108.79,-2012.74C124.1,-2001.83 145.21,-1988.59 166,-1981.44 998.55,-1694.88 3864.46,-1519.91 4456.48,-1486.36"/>
<polygon fill="black" stroke="black" points="4456.92,-1489.84 4466.71,-1485.78 4456.53,-1482.85 4456.92,-1489.84"/>
</g>
<!-- bam_input -->
<g id="node2" class="node">
<title>bam_input</title>
<polygon fill="#94ddf4" stroke="black" points="8758,-2012.94 8758,-2049.94 8850,-2049.94 8850,-2012.94 8758,-2012.94"/>
<text text-anchor="middle" x="8804" y="-2027.74" font-family="Times,serif" font-size="14.00">bam_input</text>
</g>
<!-- bam_input&#45;&gt;run_dragen_germline_step -->
<g id="edge11" class="edge">
<title>bam_input&#45;&gt;run_dragen_germline_step</title>
<path fill="none" stroke="black" d="M8789.08,-2012.46C8778.96,-2001.57 8764.62,-1988.48 8749,-1981.44 7986.7,-1637.85 5250.26,-1508.45 4671.86,-1484.63"/>
<polygon fill="black" stroke="black" points="4671.58,-1481.12 4661.45,-1484.21 4671.3,-1488.11 4671.58,-1481.12"/>
</g>
<!-- cnv_enable_self_normalization -->
<g id="node3" class="node">
<title>cnv_enable_self_normalization</title>
<polygon fill="#94ddf4" stroke="black" points="8506.5,-2012.94 8506.5,-2049.94 8739.5,-2049.94 8739.5,-2012.94 8506.5,-2012.94"/>
<text text-anchor="middle" x="8623" y="-2027.74" font-family="Times,serif" font-size="14.00">cnv_enable_self_normalization</text>
</g>
<!-- cnv_enable_self_normalization&#45;&gt;run_dragen_germline_step -->
<g id="edge12" class="edge">
<title>cnv_enable_self_normalization&#45;&gt;run_dragen_germline_step</title>
<path fill="none" stroke="black" d="M8585.51,-2012.93C8561.09,-2002.23 8528.26,-1989.17 8498,-1981.44 7012.62,-1601.95 5134.92,-1503.59 4671.16,-1484.4"/>
<polygon fill="black" stroke="black" points="4671.26,-1480.91 4661.12,-1483.99 4670.97,-1487.9 4671.26,-1480.91"/>
</g>
<!-- dbsnp_annotation -->
<g id="node4" class="node">
<title>dbsnp_annotation</title>
<polygon fill="#94ddf4" stroke="black" points="8345.5,-2012.94 8345.5,-2049.94 8488.5,-2049.94 8488.5,-2012.94 8345.5,-2012.94"/>
<text text-anchor="middle" x="8417" y="-2027.74" font-family="Times,serif" font-size="14.00">dbsnp_annotation</text>
</g>
<!-- dbsnp_annotation&#45;&gt;run_dragen_germline_step -->
<g id="edge13" class="edge">
<title>dbsnp_annotation&#45;&gt;run_dragen_germline_step</title>
<path fill="none" stroke="black" d="M8393.85,-2012.88C8378.31,-2002.02 8356.93,-1988.79 8336,-1981.44 7628.68,-1732.79 5210.2,-1531.2 4671.1,-1488.7"/>
<polygon fill="black" stroke="black" points="4671.25,-1485.2 4661,-1487.91 4670.7,-1492.18 4671.25,-1485.2"/>
</g>
<!-- dedup_min_qual -->
<g id="node5" class="node">
<title>dedup_min_qual</title>
<polygon fill="#94ddf4" stroke="black" points="8195,-2012.94 8195,-2049.94 8327,-2049.94 8327,-2012.94 8195,-2012.94"/>
<text text-anchor="middle" x="8261" y="-2027.74" font-family="Times,serif" font-size="14.00">dedup_min_qual</text>
</g>
<!-- dedup_min_qual&#45;&gt;run_dragen_germline_step -->
<g id="edge14" class="edge">
<title>dedup_min_qual&#45;&gt;run_dragen_germline_step</title>
<path fill="none" stroke="black" d="M8239.75,-2012.88C8225.45,-2002.02 8205.67,-1988.8 8186,-1981.44 7513.06,-1729.61 5198.08,-1531.4 4671.27,-1488.9"/>
<polygon fill="black" stroke="black" points="4671.27,-1485.38 4661.02,-1488.07 4670.7,-1492.36 4671.27,-1485.38"/>
</g>
<!-- enable_cnv -->
<g id="node6" class="node">
<title>enable_cnv</title>
<polygon fill="#94ddf4" stroke="black" points="8081.5,-2012.94 8081.5,-2049.94 8176.5,-2049.94 8176.5,-2012.94 8081.5,-2012.94"/>
<text text-anchor="middle" x="8129" y="-2027.74" font-family="Times,serif" font-size="14.00">enable_cnv</text>
</g>
<!-- enable_cnv&#45;&gt;run_dragen_germline_step -->
<g id="edge15" class="edge">
<title>enable_cnv&#45;&gt;run_dragen_germline_step</title>
<path fill="none" stroke="black" d="M8113.69,-2012.58C8103.34,-2001.74 8088.73,-1988.66 8073,-1981.44 7441.02,-1691.35 5190.11,-1522.99 4671.23,-1487.51"/>
<polygon fill="black" stroke="black" points="4671.35,-1484.01 4661.13,-1486.82 4670.87,-1491 4671.35,-1484.01"/>
</g>
<!-- enable_duplicate_marking -->
<g id="node7" class="node">
<title>enable_duplicate_marking</title>
<polygon fill="#94ddf4" stroke="black" points="7860.5,-2012.94 7860.5,-2049.94 8063.5,-2049.94 8063.5,-2012.94 7860.5,-2012.94"/>
<text text-anchor="middle" x="7962" y="-2027.74" font-family="Times,serif" font-size="14.00">enable_duplicate_marking</text>
</g>
<!-- enable_duplicate_marking&#45;&gt;run_dragen_germline_step -->
<g id="edge16" class="edge">
<title>enable_duplicate_marking&#45;&gt;run_dragen_germline_step</title>
<path fill="none" stroke="black" d="M7928.38,-2012.8C7906.81,-2002.19 7877.9,-1989.27 7851,-1981.44 6634.64,-1627.08 5087.94,-1512.08 4671.36,-1486.48"/>
<polygon fill="black" stroke="black" points="4671.33,-1482.97 4661.13,-1485.86 4670.9,-1489.96 4671.33,-1482.97"/>
</g>
<!-- enable_hla -->
<g id="node8" class="node">
<title>enable_hla</title>
<polygon fill="#94ddf4" stroke="black" points="7750,-2012.94 7750,-2049.94 7842,-2049.94 7842,-2012.94 7750,-2012.94"/>
<text text-anchor="middle" x="7796" y="-2027.74" font-family="Times,serif" font-size="14.00">enable_hla</text>
</g>
<!-- enable_hla&#45;&gt;run_dragen_germline_step -->
<g id="edge17" class="edge">
<title>enable_hla&#45;&gt;run_dragen_germline_step</title>
<path fill="none" stroke="black" d="M7780.99,-2012.65C7770.83,-2001.85 7756.49,-1988.77 7741,-1981.44 7174.73,-1713.4 5160.12,-1530.32 4671.39,-1489.2"/>
<polygon fill="black" stroke="black" points="4671.42,-1485.69 4661.17,-1488.34 4670.84,-1492.67 4671.42,-1485.69"/>
</g>
<!-- enable_map_align_output -->
<g id="node9" class="node">
<title>enable_map_align_output</title>
<polygon fill="#94ddf4" stroke="black" points="7534.5,-2012.94 7534.5,-2049.94 7731.5,-2049.94 7731.5,-2012.94 7534.5,-2012.94"/>
<text text-anchor="middle" x="7633" y="-2027.74" font-family="Times,serif" font-size="14.00">enable_map_align_output</text>
</g>
<!-- enable_map_align_output&#45;&gt;run_dragen_germline_step -->
<g id="edge18" class="edge">
<title>enable_map_align_output&#45;&gt;run_dragen_germline_step</title>
<path fill="none" stroke="black" d="M7600.3,-2012.92C7579.31,-2002.36 7551.19,-1989.44 7525,-1981.44 6440.86,-1649.9 5062.15,-1520.12 4671.47,-1488.54"/>
<polygon fill="black" stroke="black" points="4671.56,-1485.04 4661.32,-1487.73 4671,-1492.02 4671.56,-1485.04"/>
</g>
<!-- enable_sv -->
<g id="node10" class="node">
<title>enable_sv</title>
<polygon fill="#94ddf4" stroke="black" points="7430,-2012.94 7430,-2049.94 7516,-2049.94 7516,-2012.94 7430,-2012.94"/>
<text text-anchor="middle" x="7473" y="-2027.74" font-family="Times,serif" font-size="14.00">enable_sv</text>
</g>
<!-- enable_sv&#45;&gt;run_dragen_germline_step -->
<g id="edge19" class="edge">
<title>enable_sv&#45;&gt;run_dragen_germline_step</title>
<path fill="none" stroke="black" d="M7458.95,-2012.73C7449.41,-2001.96 7435.86,-1988.88 7421,-1981.44 6919.91,-1730.26 5129.88,-1537.08 4671.53,-1490.96"/>
<polygon fill="black" stroke="black" points="4671.57,-1487.45 4661.27,-1489.93 4670.88,-1494.41 4671.57,-1487.45"/>
</g>
<!-- fastq_list -->
<g id="node11" class="node">
<title>fastq_list</title>
<polygon fill="#94ddf4" stroke="black" points="7330,-2012.94 7330,-2049.94 7412,-2049.94 7412,-2012.94 7330,-2012.94"/>
<text text-anchor="middle" x="7371" y="-2027.74" font-family="Times,serif" font-size="14.00">fastq_list</text>
</g>
<!-- fastq_list&#45;&gt;run_dragen_germline_step -->
<g id="edge20" class="edge">
<title>fastq_list&#45;&gt;run_dragen_germline_step</title>
<path fill="none" stroke="black" d="M7357.61,-2012.76C7348.49,-2002 7335.46,-1988.92 7321,-1981.44 6841.29,-1733.2 5119.43,-1538.66 4671.25,-1491.43"/>
<polygon fill="black" stroke="black" points="4671.54,-1487.94 4661.22,-1490.38 4670.8,-1494.9 4671.54,-1487.94"/>
</g>
<!-- fastq_list_rows -->
<g id="node12" class="node">
<title>fastq_list_rows</title>
<polygon fill="#94ddf4" stroke="black" points="7188.5,-2012.94 7188.5,-2049.94 7311.5,-2049.94 7311.5,-2012.94 7188.5,-2012.94"/>
<text text-anchor="middle" x="7250" y="-2027.74" font-family="Times,serif" font-size="14.00">fastq_list_rows</text>
</g>
<!-- fastq_list_rows&#45;&gt;run_dragen_germline_step -->
<g id="edge21" class="edge">
<title>fastq_list_rows&#45;&gt;run_dragen_germline_step</title>
<path fill="none" stroke="black" d="M7229.3,-2012.7C7215.82,-2002.06 7197.37,-1989.13 7179,-1981.44 6260.55,-1596.7 5036.15,-1504.71 4671.06,-1485.21"/>
<polygon fill="black" stroke="black" points="4671.2,-1481.71 4661.03,-1484.68 4670.83,-1488.7 4671.2,-1481.71"/>
</g>
<!-- hla_allele_frequency_file -->
<g id="node13" class="node">
<title>hla_allele_frequency_file</title>
<polygon fill="#94ddf4" stroke="black" points="6980,-2012.94 6980,-2049.94 7170,-2049.94 7170,-2012.94 6980,-2012.94"/>
<text text-anchor="middle" x="7075" y="-2027.74" font-family="Times,serif" font-size="14.00">hla_allele_frequency_file</text>
</g>
<!-- hla_allele_frequency_file&#45;&gt;run_dragen_germline_step -->
<g id="edge22" class="edge">
<title>hla_allele_frequency_file&#45;&gt;run_dragen_germline_step</title>
<path fill="none" stroke="black" d="M7042.56,-2012.73C7022.45,-2002.37 6995.8,-1989.73 6971,-1981.44 6108.14,-1692.85 5013.42,-1537.5 4671.18,-1493.59"/>
<polygon fill="black" stroke="black" points="4671.39,-1490.09 4661.03,-1492.29 4670.5,-1497.03 4671.39,-1490.09"/>
</g>
<!-- hla_bed_file -->
<g id="node14" class="node">
<title>hla_bed_file</title>
<polygon fill="#94ddf4" stroke="black" points="6862,-2012.94 6862,-2049.94 6962,-2049.94 6962,-2012.94 6862,-2012.94"/>
<text text-anchor="middle" x="6912" y="-2027.74" font-family="Times,serif" font-size="14.00">hla_bed_file</text>
</g>
<!-- hla_bed_file&#45;&gt;run_dragen_germline_step -->
<g id="edge23" class="edge">
<title>hla_bed_file&#45;&gt;run_dragen_germline_step</title>
<path fill="none" stroke="black" d="M6895,-2012.51C6883.99,-2001.94 6868.79,-1989.15 6853,-1981.44 6075.17,-1601.6 5008.96,-1507.06 4671.16,-1485.97"/>
<polygon fill="black" stroke="black" points="4671.34,-1482.48 4661.14,-1485.36 4670.91,-1489.46 4671.34,-1482.48"/>
</g>
<!-- hla_min_reads -->
<g id="node15" class="node">
<title>hla_min_reads</title>
<polygon fill="#94ddf4" stroke="black" points="6724.5,-2012.94 6724.5,-2049.94 6843.5,-2049.94 6843.5,-2012.94 6724.5,-2012.94"/>
<text text-anchor="middle" x="6784" y="-2027.74" font-family="Times,serif" font-size="14.00">hla_min_reads</text>
</g>
<!-- hla_min_reads&#45;&gt;run_dragen_germline_step -->
<g id="edge24" class="edge">
<title>hla_min_reads&#45;&gt;run_dragen_germline_step</title>
<path fill="none" stroke="black" d="M6763.86,-2012.93C6750.75,-2002.37 6732.82,-1989.46 6715,-1981.44 5977.25,-1649.17 4994.21,-1524.26 4671.55,-1490.63"/>
<polygon fill="black" stroke="black" points="4671.58,-1487.11 4661.27,-1489.56 4670.86,-1494.08 4671.58,-1487.11"/>
</g>
<!-- hla_reference_file -->
<g id="node16" class="node">
<title>hla_reference_file</title>
<polygon fill="#94ddf4" stroke="black" points="6564,-2012.94 6564,-2049.94 6706,-2049.94 6706,-2012.94 6564,-2012.94"/>
<text text-anchor="middle" x="6635" y="-2027.74" font-family="Times,serif" font-size="14.00">hla_reference_file</text>
</g>
<!-- hla_reference_file&#45;&gt;run_dragen_germline_step -->
<g id="edge25" class="edge">
<title>hla_reference_file&#45;&gt;run_dragen_germline_step</title>
<path fill="none" stroke="black" d="M6610.47,-2012.71C6595.16,-2002.34 6574.67,-1989.71 6555,-1981.44 5868.28,-1692.69 4975.8,-1541.48 4671.24,-1495.7"/>
<polygon fill="black" stroke="black" points="4671.5,-1492.2 4661.09,-1494.18 4670.47,-1499.12 4671.5,-1492.2"/>
</g>
<!-- hla_tiebreaker_threshold -->
<g id="node17" class="node">
<title>hla_tiebreaker_threshold</title>
<polygon fill="#94ddf4" stroke="black" points="6352,-2012.94 6352,-2049.94 6546,-2049.94 6546,-2012.94 6352,-2012.94"/>
<text text-anchor="middle" x="6449" y="-2027.74" font-family="Times,serif" font-size="14.00">hla_tiebreaker_threshold</text>
</g>
<!-- hla_tiebreaker_threshold&#45;&gt;run_dragen_germline_step -->
<g id="edge26" class="edge">
<title>hla_tiebreaker_threshold&#45;&gt;run_dragen_germline_step</title>
<path fill="none" stroke="black" d="M6414.74,-2012.91C6394.26,-2002.87 6367.53,-1990.5 6343,-1981.44 5709.64,-1747.54 4915.56,-1559.67 4652.87,-1500.18"/>
<polygon fill="black" stroke="black" points="4653.53,-1496.74 4643,-1497.95 4651.99,-1503.57 4653.53,-1496.74"/>
</g>
<!-- hla_zygosity_threshold -->
<g id="node18" class="node">
<title>hla_zygosity_threshold</title>
<polygon fill="#94ddf4" stroke="black" points="6154.5,-2012.94 6154.5,-2049.94 6333.5,-2049.94 6333.5,-2012.94 6154.5,-2012.94"/>
<text text-anchor="middle" x="6244" y="-2027.74" font-family="Times,serif" font-size="14.00">hla_zygosity_threshold</text>
</g>
<!-- hla_zygosity_threshold&#45;&gt;run_dragen_germline_step -->
<g id="edge27" class="edge">
<title>hla_zygosity_threshold&#45;&gt;run_dragen_germline_step</title>
<path fill="none" stroke="black" d="M6211.92,-2012.8C6193.06,-2002.83 6168.56,-1990.58 6146,-1981.44 5583.39,-1753.34 4875.1,-1561.3 4642.16,-1500.5"/>
<polygon fill="black" stroke="black" points="4642.97,-1497.1 4632.41,-1497.96 4641.21,-1503.87 4642.97,-1497.1"/>
</g>
<!-- lic_instance_id_location -->
<g id="node19" class="node">
<title>lic_instance_id_location</title>
<polygon fill="#94ddf4" stroke="black" points="5953.5,-2012.94 5953.5,-2049.94 6136.5,-2049.94 6136.5,-2012.94 5953.5,-2012.94"/>
<text text-anchor="middle" x="6045" y="-2027.74" font-family="Times,serif" font-size="14.00">lic_instance_id_location</text>
</g>
<!-- lic_instance_id_location&#45;&gt;run_dragen_germline_step -->
<g id="edge28" class="edge">
<title>lic_instance_id_location&#45;&gt;run_dragen_germline_step</title>
<path fill="none" stroke="black" d="M6010.81,-2012.76C5991.44,-2003.02 5966.62,-1991 5944,-1981.44 5446.48,-1771.1 4826.98,-1565.68 4628.4,-1501.17"/>
<polygon fill="black" stroke="black" points="4629.29,-1497.78 4618.7,-1498.03 4627.13,-1504.44 4629.29,-1497.78"/>
</g>
<!-- output_directory -->
<g id="node20" class="node">
<title>output_directory</title>
<polygon fill="#94ddf4" stroke="black" points="5799,-2012.94 5799,-2049.94 5935,-2049.94 5935,-2012.94 5799,-2012.94"/>
<text text-anchor="middle" x="5867" y="-2027.74" font-family="Times,serif" font-size="14.00">output_directory</text>
</g>
<!-- output_directory&#45;&gt;run_dragen_germline_step -->
<g id="edge29" class="edge">
<title>output_directory&#45;&gt;run_dragen_germline_step</title>
<path fill="none" stroke="black" d="M5842.01,-2012.92C5827.26,-2003 5808.01,-1990.75 5790,-1981.44 5360.34,-1759.2 4808.89,-1563.88 4625.99,-1501.32"/>
<polygon fill="black" stroke="black" points="4626.87,-1497.93 4616.27,-1498.01 4624.61,-1504.55 4626.87,-1497.93"/>
</g>
<!-- qc_coverage_ignore_overlaps -->
<g id="node21" class="node">
<title>qc_coverage_ignore_overlaps</title>
<polygon fill="#94ddf4" stroke="black" points="5557,-2012.94 5557,-2049.94 5781,-2049.94 5781,-2012.94 5557,-2012.94"/>
<text text-anchor="middle" x="5669" y="-2027.74" font-family="Times,serif" font-size="14.00">qc_coverage_ignore_overlaps</text>
</g>
<!-- qc_coverage_ignore_overlaps&#45;&gt;run_dragen_germline_step -->
<g id="edge30" class="edge">
<title>qc_coverage_ignore_overlaps&#45;&gt;run_dragen_germline_step</title>
<path fill="none" stroke="black" d="M5633.8,-2012.91C5470.79,-1931.78 4789.57,-1592.71 4608.41,-1502.54"/>
<polygon fill="black" stroke="black" points="4609.93,-1499.39 4599.42,-1498.07 4606.81,-1505.66 4609.93,-1499.39"/>
</g>
<!-- qc_coverage_region_1 -->
<g id="node22" class="node">
<title>qc_coverage_region_1</title>
<polygon fill="#94ddf4" stroke="black" points="5365.5,-2012.94 5365.5,-2049.94 5538.5,-2049.94 5538.5,-2012.94 5365.5,-2012.94"/>
<text text-anchor="middle" x="5452" y="-2027.74" font-family="Times,serif" font-size="14.00">qc_coverage_region_1</text>
</g>
<!-- qc_coverage_region_1&#45;&gt;run_dragen_germline_step -->
<g id="edge31" class="edge">
<title>qc_coverage_region_1&#45;&gt;run_dragen_germline_step</title>
<path fill="none" stroke="black" d="M5423.46,-2012.76C5292.47,-1931.63 4748.89,-1594.95 4601.18,-1503.47"/>
<polygon fill="black" stroke="black" points="4602.78,-1500.34 4592.43,-1498.05 4599.09,-1506.29 4602.78,-1500.34"/>
</g>
<!-- qc_coverage_region_2 -->
<g id="node23" class="node">
<title>qc_coverage_region_2</title>
<polygon fill="#94ddf4" stroke="black" points="5174.5,-2012.94 5174.5,-2049.94 5347.5,-2049.94 5347.5,-2012.94 5174.5,-2012.94"/>
<text text-anchor="middle" x="5261" y="-2027.74" font-family="Times,serif" font-size="14.00">qc_coverage_region_2</text>
</g>
<!-- qc_coverage_region_2&#45;&gt;run_dragen_germline_step -->
<g id="edge32" class="edge">
<title>qc_coverage_region_2&#45;&gt;run_dragen_germline_step</title>
<path fill="none" stroke="black" d="M5238.6,-2012.76C5136.09,-1931.87 4711.67,-1596.96 4594.23,-1504.29"/>
<polygon fill="black" stroke="black" points="4596.34,-1501.49 4586.32,-1498.05 4592,-1506.99 4596.34,-1501.49"/>
</g>
<!-- qc_coverage_region_3 -->
<g id="node24" class="node">
<title>qc_coverage_region_3</title>
<polygon fill="#94ddf4" stroke="black" points="4983.5,-2012.94 4983.5,-2049.94 5156.5,-2049.94 5156.5,-2012.94 4983.5,-2012.94"/>
<text text-anchor="middle" x="5070" y="-2027.74" font-family="Times,serif" font-size="14.00">qc_coverage_region_3</text>
</g>
<!-- qc_coverage_region_3&#45;&gt;run_dragen_germline_step -->
<g id="edge33" class="edge">
<title>qc_coverage_region_3&#45;&gt;run_dragen_germline_step</title>
<path fill="none" stroke="black" d="M5053.74,-2012.76C4979.62,-1932.19 4673.66,-1599.64 4586.98,-1505.42"/>
<polygon fill="black" stroke="black" points="4589.55,-1503.04 4580.2,-1498.05 4584.4,-1507.78 4589.55,-1503.04"/>
</g>
<!-- reference_tar -->
<g id="node25" class="node">
<title>reference_tar</title>
<polygon fill="#94ddf4" stroke="black" points="4852.5,-2012.94 4852.5,-2049.94 4965.5,-2049.94 4965.5,-2012.94 4852.5,-2012.94"/>
<text text-anchor="middle" x="4909" y="-2027.74" font-family="Times,serif" font-size="14.00">reference_tar</text>
</g>
<!-- reference_tar&#45;&gt;run_dragen_germline_step -->
<g id="edge34" class="edge">
<title>reference_tar&#45;&gt;run_dragen_germline_step</title>
<path fill="none" stroke="black" d="M4897.91,-2012.76C4847.58,-1932.52 4640.44,-1602.3 4580.39,-1506.56"/>
<polygon fill="black" stroke="black" points="4583.33,-1504.66 4575.05,-1498.05 4577.4,-1508.38 4583.33,-1504.66"/>
</g>
<!-- sample_sex -->
<g id="node26" class="node">
<title>sample_sex</title>
<polygon fill="#94ddf4" stroke="black" points="4736,-2012.94 4736,-2049.94 4834,-2049.94 4834,-2012.94 4736,-2012.94"/>
<text text-anchor="middle" x="4785" y="-2027.74" font-family="Times,serif" font-size="14.00">sample_sex</text>
</g>
<!-- sample_sex&#45;&gt;run_dragen_germline_step -->
<g id="edge35" class="edge">
<title>sample_sex&#45;&gt;run_dragen_germline_step</title>
<path fill="none" stroke="black" d="M4777.9,-2012.76C4745.75,-1932.76 4613.77,-1604.3 4574.85,-1507.44"/>
<polygon fill="black" stroke="black" points="4578.05,-1506.02 4571.08,-1498.05 4571.56,-1508.63 4578.05,-1506.02"/>
</g>
<!-- sv_call_regions_bed -->
<g id="node27" class="node">
<title>sv_call_regions_bed</title>
<polygon fill="#94ddf4" stroke="black" points="4560.5,-2012.94 4560.5,-2049.94 4717.5,-2049.94 4717.5,-2012.94 4560.5,-2012.94"/>
<text text-anchor="middle" x="4639" y="-2027.74" font-family="Times,serif" font-size="14.00">sv_call_regions_bed</text>
</g>
<!-- sv_call_regions_bed&#45;&gt;run_dragen_germline_step -->
<g id="edge36" class="edge">
<title>sv_call_regions_bed&#45;&gt;run_dragen_germline_step</title>
<path fill="none" stroke="black" d="M4636.59,-2012.76C4625.7,-1932.92 4581.07,-1605.63 4567.76,-1508.03"/>
<polygon fill="black" stroke="black" points="4571.22,-1507.48 4566.4,-1498.05 4564.28,-1508.43 4571.22,-1507.48"/>
</g>
<!-- sv_discovery -->
<g id="node28" class="node">
<title>sv_discovery</title>
<polygon fill="#94ddf4" stroke="black" points="4435.5,-2012.94 4435.5,-2049.94 4542.5,-2049.94 4542.5,-2012.94 4435.5,-2012.94"/>
<text text-anchor="middle" x="4489" y="-2027.74" font-family="Times,serif" font-size="14.00">sv_discovery</text>
</g>
<!-- sv_discovery&#45;&gt;run_dragen_germline_step -->
<g id="edge37" class="edge">
<title>sv_discovery&#45;&gt;run_dragen_germline_step</title>
<path fill="none" stroke="black" d="M4491.41,-2012.76C4502.3,-1932.92 4546.93,-1605.63 4560.24,-1508.03"/>
<polygon fill="black" stroke="black" points="4563.72,-1508.43 4561.6,-1498.05 4556.78,-1507.48 4563.72,-1508.43"/>
</g>
<!-- sv_enable_liquid_tumor_mode -->
<g id="node29" class="node">
<title>sv_enable_liquid_tumor_mode</title>
<polygon fill="#94ddf4" stroke="black" points="4187,-2012.94 4187,-2049.94 4417,-2049.94 4417,-2012.94 4187,-2012.94"/>
<text text-anchor="middle" x="4302" y="-2027.74" font-family="Times,serif" font-size="14.00">sv_enable_liquid_tumor_mode</text>
</g>
<!-- sv_enable_liquid_tumor_mode&#45;&gt;run_dragen_germline_step -->
<g id="edge38" class="edge">
<title>sv_enable_liquid_tumor_mode&#45;&gt;run_dragen_germline_step</title>
<path fill="none" stroke="black" d="M4310.42,-2012.76C4348.57,-1932.68 4505.31,-1603.63 4551.28,-1507.15"/>
<polygon fill="black" stroke="black" points="4554.47,-1508.58 4555.61,-1498.05 4548.15,-1505.57 4554.47,-1508.58"/>
</g>
<!-- sv_exome -->
<g id="node30" class="node">
<title>sv_exome</title>
<polygon fill="#94ddf4" stroke="black" points="4083,-2012.94 4083,-2049.94 4169,-2049.94 4169,-2012.94 4083,-2012.94"/>
<text text-anchor="middle" x="4126" y="-2027.74" font-family="Times,serif" font-size="14.00">sv_exome</text>
</g>
<!-- sv_exome&#45;&gt;run_dragen_germline_step -->
<g id="edge39" class="edge">
<title>sv_exome&#45;&gt;run_dragen_germline_step</title>
<path fill="none" stroke="black" d="M4140.08,-2012.76C4204.11,-1932.35 4468.01,-1600.97 4543.65,-1505.99"/>
<polygon fill="black" stroke="black" points="4546.48,-1508.05 4549.98,-1498.05 4541.01,-1503.69 4546.48,-1508.05"/>
</g>
<!-- sv_forcegt_vcf -->
<g id="node31" class="node">
<title>sv_forcegt_vcf</title>
<polygon fill="#94ddf4" stroke="black" points="3947,-2012.94 3947,-2049.94 4065,-2049.94 4065,-2012.94 3947,-2012.94"/>
<text text-anchor="middle" x="4006" y="-2027.74" font-family="Times,serif" font-size="14.00">sv_forcegt_vcf</text>
</g>
<!-- sv_forcegt_vcf&#45;&gt;run_dragen_germline_step -->
<g id="edge40" class="edge">
<title>sv_forcegt_vcf&#45;&gt;run_dragen_germline_step</title>
<path fill="none" stroke="black" d="M4023.93,-2012.76C4105.76,-1932.11 4443.74,-1598.97 4538.94,-1505.13"/>
<polygon fill="black" stroke="black" points="4541.47,-1507.56 4546.13,-1498.05 4536.55,-1502.57 4541.47,-1507.56"/>
</g>
<!-- sv_output_contigs -->
<g id="node32" class="node">
<title>sv_output_contigs</title>
<polygon fill="#94ddf4" stroke="black" points="3783.5,-2012.94 3783.5,-2049.94 3928.5,-2049.94 3928.5,-2012.94 3783.5,-2012.94"/>
<text text-anchor="middle" x="3856" y="-2027.74" font-family="Times,serif" font-size="14.00">sv_output_contigs</text>
</g>
<!-- sv_output_contigs&#45;&gt;run_dragen_germline_step -->
<g id="edge41" class="edge">
<title>sv_output_contigs&#45;&gt;run_dragen_germline_step</title>
<path fill="none" stroke="black" d="M3878.75,-2012.76C3982.88,-1931.87 4414,-1596.96 4533.29,-1504.29"/>
<polygon fill="black" stroke="black" points="4535.58,-1506.95 4541.33,-1498.05 4531.29,-1501.42 4535.58,-1506.95"/>
</g>
<!-- sv_region -->
<g id="node33" class="node">
<title>sv_region</title>
<polygon fill="#94ddf4" stroke="black" points="3680.5,-2012.94 3680.5,-2049.94 3765.5,-2049.94 3765.5,-2012.94 3680.5,-2012.94"/>
<text text-anchor="middle" x="3723" y="-2027.74" font-family="Times,serif" font-size="14.00">sv_region</text>
</g>
<!-- sv_region&#45;&gt;run_dragen_germline_step -->
<g id="edge42" class="edge">
<title>sv_region&#45;&gt;run_dragen_germline_step</title>
<path fill="none" stroke="black" d="M3740.06,-2012.78C3749.87,-2003.05 3762.66,-1991.03 3775,-1981.44 4044.07,-1772.29 4402.71,-1569.1 4522.84,-1502.87"/>
<polygon fill="black" stroke="black" points="4524.66,-1505.86 4531.74,-1497.97 4521.29,-1499.73 4524.66,-1505.86"/>
</g>
<!-- sv_se_overlap_pair_evidence -->
<g id="node34" class="node">
<title>sv_se_overlap_pair_evidence</title>
<polygon fill="#94ddf4" stroke="black" points="3442,-2012.94 3442,-2049.94 3662,-2049.94 3662,-2012.94 3442,-2012.94"/>
<text text-anchor="middle" x="3552" y="-2027.74" font-family="Times,serif" font-size="14.00">sv_se_overlap_pair_evidence</text>
</g>
<!-- sv_se_overlap_pair_evidence&#45;&gt;run_dragen_germline_step -->
<g id="edge43" class="edge">
<title>sv_se_overlap_pair_evidence&#45;&gt;run_dragen_germline_step</title>
<path fill="none" stroke="black" d="M3584.24,-2012.91C3733.31,-1931.9 4355.56,-1593.72 4522.58,-1502.95"/>
<polygon fill="black" stroke="black" points="4524.45,-1505.92 4531.56,-1498.07 4521.1,-1499.77 4524.45,-1505.92"/>
</g>
<!-- sv_tin_contam_tolerance -->
<g id="node35" class="node">
<title>sv_tin_contam_tolerance</title>
<polygon fill="#94ddf4" stroke="black" points="3232.5,-2012.94 3232.5,-2049.94 3423.5,-2049.94 3423.5,-2012.94 3232.5,-2012.94"/>
<text text-anchor="middle" x="3328" y="-2027.74" font-family="Times,serif" font-size="14.00">sv_tin_contam_tolerance</text>
</g>
<!-- sv_tin_contam_tolerance&#45;&gt;run_dragen_germline_step -->
<g id="edge44" class="edge">
<title>sv_tin_contam_tolerance&#45;&gt;run_dragen_germline_step</title>
<path fill="none" stroke="black" d="M3365.34,-2012.8C3385.36,-2003.39 3410.48,-1991.68 3433,-1981.44 3849.23,-1792.15 4355.45,-1571.16 4514.05,-1502.15"/>
<polygon fill="black" stroke="black" points="4515.78,-1505.21 4523.55,-1498.01 4512.98,-1498.79 4515.78,-1505.21"/>
</g>
<!-- vc_decoy_contigs -->
<g id="node36" class="node">
<title>vc_decoy_contigs</title>
<polygon fill="#94ddf4" stroke="black" points="3075.5,-2012.94 3075.5,-2049.94 3214.5,-2049.94 3214.5,-2012.94 3075.5,-2012.94"/>
<text text-anchor="middle" x="3145" y="-2027.74" font-family="Times,serif" font-size="14.00">vc_decoy_contigs</text>
</g>
<!-- vc_decoy_contigs&#45;&gt;run_dragen_germline_step -->
<g id="edge45" class="edge">
<title>vc_decoy_contigs&#45;&gt;run_dragen_germline_step</title>
<path fill="none" stroke="black" d="M3170.59,-2012.77C3185.71,-2002.79 3205.46,-1990.54 3224,-1981.44 3692.07,-1751.58 4293.7,-1561.77 4494.97,-1500.92"/>
<polygon fill="black" stroke="black" points="4496.26,-1504.19 4504.82,-1497.95 4494.24,-1497.49 4496.26,-1504.19"/>
</g>
<!-- vc_enable_baf -->
<g id="node37" class="node">
<title>vc_enable_baf</title>
<polygon fill="#94ddf4" stroke="black" points="2941,-2012.94 2941,-2049.94 3057,-2049.94 3057,-2012.94 2941,-2012.94"/>
<text text-anchor="middle" x="2999" y="-2027.74" font-family="Times,serif" font-size="14.00">vc_enable_baf</text>
</g>
<!-- vc_enable_baf&#45;&gt;run_dragen_germline_step -->
<g id="edge46" class="edge">
<title>vc_enable_baf&#45;&gt;run_dragen_germline_step</title>
<path fill="none" stroke="black" d="M3019.97,-2012.78C3032.89,-2002.57 3050.17,-1990.07 3067,-1981.44 3571.01,-1723.08 4236.82,-1555.36 4474.77,-1500.3"/>
<polygon fill="black" stroke="black" points="4475.8,-1503.66 4484.75,-1498 4474.22,-1496.84 4475.8,-1503.66"/>
</g>
<!-- vc_enable_decoy_contigs -->
<g id="node38" class="node">
<title>vc_enable_decoy_contigs</title>
<polygon fill="#94ddf4" stroke="black" points="2729.5,-2012.94 2729.5,-2049.94 2922.5,-2049.94 2922.5,-2012.94 2729.5,-2012.94"/>
<text text-anchor="middle" x="2826" y="-2027.74" font-family="Times,serif" font-size="14.00">vc_enable_decoy_contigs</text>
</g>
<!-- vc_enable_decoy_contigs&#45;&gt;run_dragen_germline_step -->
<g id="edge47" class="edge">
<title>vc_enable_decoy_contigs&#45;&gt;run_dragen_germline_step</title>
<path fill="none" stroke="black" d="M2860.82,-2012.89C2881.26,-2002.96 2907.76,-1990.71 2932,-1981.44 3516.67,-1757.73 4247.51,-1562.12 4485.32,-1500.53"/>
<polygon fill="black" stroke="black" points="4486.46,-1503.85 4495.26,-1497.96 4484.7,-1497.07 4486.46,-1503.85"/>
</g>
<!-- vc_enable_gatk_acceleration -->
<g id="node39" class="node">
<title>vc_enable_gatk_acceleration</title>
<polygon fill="#94ddf4" stroke="black" points="2493,-2012.94 2493,-2049.94 2711,-2049.94 2711,-2012.94 2493,-2012.94"/>
<text text-anchor="middle" x="2602" y="-2027.74" font-family="Times,serif" font-size="14.00">vc_enable_gatk_acceleration</text>
</g>
<!-- vc_enable_gatk_acceleration&#45;&gt;run_dragen_germline_step -->
<g id="edge48" class="edge">
<title>vc_enable_gatk_acceleration&#45;&gt;run_dragen_germline_step</title>
<path fill="none" stroke="black" d="M2641.19,-2012.85C2664.18,-2002.9 2693.93,-1990.65 2721,-1981.44 3384.21,-1755.74 4208.07,-1561.33 4475.65,-1500.3"/>
<polygon fill="black" stroke="black" points="4476.73,-1503.64 4485.7,-1498.01 4475.17,-1496.82 4476.73,-1503.64"/>
</g>
<!-- vc_enable_phasing -->
<g id="node40" class="node">
<title>vc_enable_phasing</title>
<polygon fill="#94ddf4" stroke="black" points="2325.5,-2012.94 2325.5,-2049.94 2474.5,-2049.94 2474.5,-2012.94 2325.5,-2012.94"/>
<text text-anchor="middle" x="2400" y="-2027.74" font-family="Times,serif" font-size="14.00">vc_enable_phasing</text>
</g>
<!-- vc_enable_phasing&#45;&gt;run_dragen_germline_step -->
<g id="edge49" class="edge">
<title>vc_enable_phasing&#45;&gt;run_dragen_germline_step</title>
<path fill="none" stroke="black" d="M2425.48,-2012.94C2441.64,-2002.52 2463.32,-1989.75 2484,-1981.44 3207.84,-1690.46 4144.03,-1539.71 4456.91,-1494.95"/>
<polygon fill="black" stroke="black" points="4457.47,-1498.41 4466.88,-1493.53 4456.48,-1491.48 4457.47,-1498.41"/>
</g>
<!-- vc_enable_roh -->
<g id="node41" class="node">
<title>vc_enable_roh</title>
<polygon fill="#94ddf4" stroke="black" points="2190.5,-2012.94 2190.5,-2049.94 2307.5,-2049.94 2307.5,-2012.94 2190.5,-2012.94"/>
<text text-anchor="middle" x="2249" y="-2027.74" font-family="Times,serif" font-size="14.00">vc_enable_roh</text>
</g>
<!-- vc_enable_roh&#45;&gt;run_dragen_germline_step -->
<g id="edge50" class="edge">
<title>vc_enable_roh&#45;&gt;run_dragen_germline_step</title>
<path fill="none" stroke="black" d="M2268.78,-2012.86C2281.68,-2002.28 2299.34,-1989.36 2317,-1981.44 3090.45,-1634.28 4124.82,-1518.46 4456.73,-1488.95"/>
<polygon fill="black" stroke="black" points="4457.16,-1492.43 4466.82,-1488.06 4456.55,-1485.45 4457.16,-1492.43"/>
</g>
<!-- vc_enable_sex_chr_diploid -->
<g id="node42" class="node">
<title>vc_enable_sex_chr_diploid</title>
<polygon fill="#94ddf4" stroke="black" points="1969.5,-2012.94 1969.5,-2049.94 2172.5,-2049.94 2172.5,-2012.94 1969.5,-2012.94"/>
<text text-anchor="middle" x="2071" y="-2027.74" font-family="Times,serif" font-size="14.00">vc_enable_sex_chr_diploid</text>
</g>
<!-- vc_enable_sex_chr_diploid&#45;&gt;run_dragen_germline_step -->
<g id="edge51" class="edge">
<title>vc_enable_sex_chr_diploid&#45;&gt;run_dragen_germline_step</title>
<path fill="none" stroke="black" d="M2105.76,-2012.85C2127.28,-2002.53 2155.73,-1989.89 2182,-1981.44 3038.18,-1705.75 4117.29,-1542.16 4456.76,-1494.84"/>
<polygon fill="black" stroke="black" points="4457.4,-1498.29 4466.83,-1493.44 4456.44,-1491.35 4457.4,-1498.29"/>
</g>
<!-- vc_enable_vcf_output -->
<g id="node43" class="node">
<title>vc_enable_vcf_output</title>
<polygon fill="#94ddf4" stroke="black" points="1784,-2012.94 1784,-2049.94 1952,-2049.94 1952,-2012.94 1784,-2012.94"/>
<text text-anchor="middle" x="1868" y="-2027.74" font-family="Times,serif" font-size="14.00">vc_enable_vcf_output</text>
</g>
<!-- vc_enable_vcf_output&#45;&gt;run_dragen_germline_step -->
<g id="edge52" class="edge">
<title>vc_enable_vcf_output&#45;&gt;run_dragen_germline_step</title>
<path fill="none" stroke="black" d="M1896.32,-2012.7C1914.25,-2002.19 1938.27,-1989.41 1961,-1981.44 2894.32,-1653.87 4095.3,-1523.19 4456.59,-1489.69"/>
<polygon fill="black" stroke="black" points="4457.14,-1493.15 4466.78,-1488.75 4456.5,-1486.18 4457.14,-1493.15"/>
</g>
<!-- vc_haploid_call_af_threshold -->
<g id="node44" class="node">
<title>vc_haploid_call_af_threshold</title>
<polygon fill="#94ddf4" stroke="black" points="1548,-2012.94 1548,-2049.94 1766,-2049.94 1766,-2012.94 1548,-2012.94"/>
<text text-anchor="middle" x="1657" y="-2027.74" font-family="Times,serif" font-size="14.00">vc_haploid_call_af_threshold</text>
</g>
<!-- vc_haploid_call_af_threshold&#45;&gt;run_dragen_germline_step -->
<g id="edge53" class="edge">
<title>vc_haploid_call_af_threshold&#45;&gt;run_dragen_germline_step</title>
<path fill="none" stroke="black" d="M1693.46,-2012.89C1716.41,-2002.46 1746.91,-1989.69 1775,-1981.44 2795.58,-1681.7 4081.71,-1530.89 4456.81,-1491.26"/>
<polygon fill="black" stroke="black" points="4457.26,-1494.73 4466.84,-1490.2 4456.53,-1487.77 4457.26,-1494.73"/>
</g>
<!-- vc_hard_filter -->
<g id="node45" class="node">
<title>vc_hard_filter</title>
<polygon fill="#94ddf4" stroke="black" points="1416.5,-2012.94 1416.5,-2049.94 1529.5,-2049.94 1529.5,-2012.94 1416.5,-2012.94"/>
<text text-anchor="middle" x="1473" y="-2027.74" font-family="Times,serif" font-size="14.00">vc_hard_filter</text>
</g>
<!-- vc_hard_filter&#45;&gt;run_dragen_germline_step -->
<g id="edge54" class="edge">
<title>vc_hard_filter&#45;&gt;run_dragen_germline_step</title>
<path fill="none" stroke="black" d="M1491.69,-2012.75C1504.14,-2001.98 1521.4,-1988.91 1539,-1981.44 2609.35,-1527.16 4055.43,-1483.36 4456.83,-1480.29"/>
<polygon fill="black" stroke="black" points="4457,-1483.79 4466.97,-1480.22 4456.95,-1476.79 4457,-1483.79"/>
</g>
<!-- vc_max_reads_per_active_region -->
<g id="node46" class="node">
<title>vc_max_reads_per_active_region</title>
<polygon fill="#94ddf4" stroke="black" points="1150,-2012.94 1150,-2049.94 1398,-2049.94 1398,-2012.94 1150,-2012.94"/>
<text text-anchor="middle" x="1274" y="-2027.74" font-family="Times,serif" font-size="14.00">vc_max_reads_per_active_region</text>
</g>
<!-- vc_max_reads_per_active_region&#45;&gt;run_dragen_germline_step -->
<g id="edge55" class="edge">
<title>vc_max_reads_per_active_region&#45;&gt;run_dragen_germline_step</title>
<path fill="none" stroke="black" d="M1315.58,-2012.87C1341.71,-2002.42 1376.35,-1989.65 1408,-1981.44 2581.59,-1676.77 4051.57,-1527.15 4456.51,-1489.9"/>
<polygon fill="black" stroke="black" points="4457.1,-1493.36 4466.74,-1488.96 4456.46,-1486.39 4457.1,-1493.36"/>
</g>
<!-- vc_max_reads_per_raw_region -->
<g id="node47" class="node">
<title>vc_max_reads_per_raw_region</title>
<polygon fill="#94ddf4" stroke="black" points="898.5,-2012.94 898.5,-2049.94 1131.5,-2049.94 1131.5,-2012.94 898.5,-2012.94"/>
<text text-anchor="middle" x="1015" y="-2027.74" font-family="Times,serif" font-size="14.00">vc_max_reads_per_raw_region</text>
</g>
<!-- vc_max_reads_per_raw_region&#45;&gt;run_dragen_germline_step -->
<g id="edge56" class="edge">
<title>vc_max_reads_per_raw_region&#45;&gt;run_dragen_germline_step</title>
<path fill="none" stroke="black" d="M1053.41,-2012.89C1077.99,-2002.32 1110.82,-1989.4 1141,-1981.44 2419.42,-1643.93 4030.47,-1516.4 4456.63,-1487.3"/>
<polygon fill="black" stroke="black" points="4457.04,-1490.78 4466.77,-1486.61 4456.56,-1483.8 4457.04,-1490.78"/>
</g>
<!-- vc_remove_all_soft_clips -->
<g id="node48" class="node">
<title>vc_remove_all_soft_clips</title>
<polygon fill="#94ddf4" stroke="black" points="690,-2012.94 690,-2049.94 880,-2049.94 880,-2012.94 690,-2012.94"/>
<text text-anchor="middle" x="785" y="-2027.74" font-family="Times,serif" font-size="14.00">vc_remove_all_soft_clips</text>
</g>
<!-- vc_remove_all_soft_clips&#45;&gt;run_dragen_germline_step -->
<g id="edge57" class="edge">
<title>vc_remove_all_soft_clips&#45;&gt;run_dragen_germline_step</title>
<path fill="none" stroke="black" d="M816.19,-2012.84C836.58,-2002.11 864.14,-1989.04 890,-1981.44 2257.99,-1579.05 4009.27,-1497.91 4456.37,-1483.36"/>
<polygon fill="black" stroke="black" points="4456.81,-1486.84 4466.69,-1483.02 4456.59,-1479.85 4456.81,-1486.84"/>
</g>
<!-- vc_roh_blacklist_bed -->
<g id="node49" class="node">
<title>vc_roh_blacklist_bed</title>
<polygon fill="#94ddf4" stroke="black" points="508.5,-2012.94 508.5,-2049.94 671.5,-2049.94 671.5,-2012.94 508.5,-2012.94"/>
<text text-anchor="middle" x="590" y="-2027.74" font-family="Times,serif" font-size="14.00">vc_roh_blacklist_bed</text>
</g>
<!-- vc_roh_blacklist_bed&#45;&gt;run_dragen_germline_step -->
<g id="edge58" class="edge">
<title>vc_roh_blacklist_bed&#45;&gt;run_dragen_germline_step</title>
<path fill="none" stroke="black" d="M616.32,-2012.91C633.89,-2002.07 657.94,-1988.85 681,-1981.44 2121.86,-1518.1 3993.9,-1481.75 4456.95,-1480.14"/>
<polygon fill="black" stroke="black" points="4456.98,-1483.64 4466.97,-1480.11 4456.96,-1476.64 4456.98,-1483.64"/>
</g>
<!-- vc_target_bed -->
<g id="node50" class="node">
<title>vc_target_bed</title>
<polygon fill="#94ddf4" stroke="black" points="374,-2012.94 374,-2049.94 490,-2049.94 490,-2012.94 374,-2012.94"/>
<text text-anchor="middle" x="432" y="-2027.74" font-family="Times,serif" font-size="14.00">vc_target_bed</text>
</g>
<!-- vc_target_bed&#45;&gt;run_dragen_germline_step -->
<g id="edge59" class="edge">
<title>vc_target_bed&#45;&gt;run_dragen_germline_step</title>
<path fill="none" stroke="black" d="M450.96,-2012.75C463.8,-2001.84 481.71,-1988.6 500,-1981.44 1254.87,-1685.58 3890.97,-1519.2 4456.6,-1486.45"/>
<polygon fill="black" stroke="black" points="4457.01,-1489.93 4466.79,-1485.86 4456.6,-1482.94 4457.01,-1489.93"/>
</g>
<!-- vc_target_bed_padding -->
<g id="node51" class="node">
<title>vc_target_bed_padding</title>
<polygon fill="#94ddf4" stroke="black" points="174.5,-2012.94 174.5,-2049.94 355.5,-2049.94 355.5,-2012.94 174.5,-2012.94"/>
<text text-anchor="middle" x="265" y="-2027.74" font-family="Times,serif" font-size="14.00">vc_target_bed_padding</text>
</g>
<!-- vc_target_bed_padding&#45;&gt;run_dragen_germline_step -->
<g id="edge60" class="edge">
<title>vc_target_bed_padding&#45;&gt;run_dragen_germline_step</title>
<path fill="none" stroke="black" d="M294.13,-2012.9C313.53,-2002.05 339.97,-1988.83 365,-1981.44 1941.06,-1515.95 3971.28,-1481.45 4456.48,-1480.13"/>
<polygon fill="black" stroke="black" points="4456.63,-1483.63 4466.62,-1480.11 4456.61,-1476.63 4456.63,-1483.63"/>
</g>
<!-- vc_target_coverage -->
<g id="node52" class="node">
<title>vc_target_coverage</title>
<polygon fill="#94ddf4" stroke="black" points="8868.5,-2012.94 8868.5,-2049.94 9023.5,-2049.94 9023.5,-2012.94 8868.5,-2012.94"/>
<text text-anchor="middle" x="8946" y="-2027.74" font-family="Times,serif" font-size="14.00">vc_target_coverage</text>
</g>
<!-- vc_target_coverage&#45;&gt;run_dragen_germline_step -->
<g id="edge61" class="edge">
<title>vc_target_coverage&#45;&gt;run_dragen_germline_step</title>
<path fill="none" stroke="black" d="M8920.98,-2012.8C8904.23,-2001.91 8881.25,-1988.68 8859,-1981.44 8042.17,-1715.7 5253.71,-1524.72 4671.2,-1487.18"/>
<polygon fill="black" stroke="black" points="4671.34,-1483.69 4661.13,-1486.54 4670.89,-1490.67 4671.34,-1483.69"/>
</g>
<!-- dragen_bam_out -->
<g id="node53" class="node">
<title>dragen_bam_out</title>
<polygon fill="#94ddf4" stroke="black" points="4174,-397.94 4174,-434.94 4308,-434.94 4308,-397.94 4174,-397.94"/>
<text text-anchor="middle" x="4241" y="-412.74" font-family="Times,serif" font-size="14.00">dragen_bam_out</text>
</g>
<!-- dragen_germline_output_directory -->
<g id="node54" class="node">
<title>dragen_germline_output_directory</title>
<polygon fill="#94ddf4" stroke="black" points="4326.5,-397.94 4326.5,-434.94 4589.5,-434.94 4589.5,-397.94 4326.5,-397.94"/>
<text text-anchor="middle" x="4458" y="-412.74" font-family="Times,serif" font-size="14.00">dragen_germline_output_directory</text>
</g>
<!-- dragen_vcf_out -->
<g id="node55" class="node">
<title>dragen_vcf_out</title>
<polygon fill="#94ddf4" stroke="black" points="4607.5,-397.94 4607.5,-434.94 4732.5,-434.94 4732.5,-397.94 4607.5,-397.94"/>
<text text-anchor="middle" x="4670" y="-412.74" font-family="Times,serif" font-size="14.00">dragen_vcf_out</text>
</g>
<!-- multiqc_output_directory -->
<g id="node56" class="node">
<title>multiqc_output_directory</title>
<polygon fill="#94ddf4" stroke="black" points="3958.5,-397.94 3958.5,-434.94 4155.5,-434.94 4155.5,-397.94 3958.5,-397.94"/>
<text text-anchor="middle" x="4057" y="-412.74" font-family="Times,serif" font-size="14.00">multiqc_output_directory</text>
</g>
<!-- create_dummy_file_step -->
<g id="node57" class="node">
<title>create_dummy_file_step</title>
<polygon fill="lightgoldenrodyellow" stroke="black" points="132.5,-1460.94 132.5,-1497.94 393.5,-1497.94 393.5,-1460.94 132.5,-1460.94"/>
<text text-anchor="middle" x="263" y="-1475.74" font-family="Times,serif" font-size="14.00">custom&#45;create&#45;dummy&#45;file v(1.0.0)</text>
</g>
<!-- create_dummy_file_step&#45;&gt;dragen_qc_step -->
<g id="edge1" class="edge">
<title>create_dummy_file_step&#45;&gt;dragen_qc_step</title>
<path fill="none" stroke="black" d="M257.11,-1460.8C231.15,-1383.07 126.82,-1070.67 95.16,-975.86"/>
<polygon fill="black" stroke="black" points="98.4,-974.51 91.91,-966.14 91.76,-976.73 98.4,-974.51"/>
</g>
<!-- dragen_qc_step&#45;&gt;multiqc_output_directory -->
<g id="edge2" class="edge">
<title>dragen_qc_step&#45;&gt;multiqc_output_directory</title>
<path fill="none" stroke="black" d="M155.76,-937.14C628.93,-874.11 3366.18,-509.46 3948.21,-431.93"/>
<polygon fill="black" stroke="black" points="3948.83,-435.38 3958.28,-430.59 3947.9,-428.44 3948.83,-435.38"/>
</g>
<!-- run_dragen_germline_step&#45;&gt;dragen_bam_out -->
<g id="edge4" class="edge">
<title>run_dragen_germline_step&#45;&gt;dragen_bam_out</title>
<path fill="none" stroke="black" d="M4558.66,-1460.91C4521.06,-1337.37 4296.06,-598.31 4249.45,-445.19"/>
<polygon fill="black" stroke="black" points="4252.67,-443.74 4246.41,-435.2 4245.97,-445.78 4252.67,-443.74"/>
</g>
<!-- run_dragen_germline_step&#45;&gt;dragen_germline_output_directory -->
<g id="edge5" class="edge">
<title>run_dragen_germline_step&#45;&gt;dragen_germline_output_directory</title>
<path fill="none" stroke="black" d="M4562.25,-1460.91C4549.91,-1337.37 4476.07,-598.31 4460.77,-445.19"/>
<polygon fill="black" stroke="black" points="4464.25,-444.8 4459.77,-435.2 4457.29,-445.5 4464.25,-444.8"/>
</g>
<!-- run_dragen_germline_step&#45;&gt;dragen_vcf_out -->
<g id="edge6" class="edge">
<title>run_dragen_germline_step&#45;&gt;dragen_vcf_out</title>
<path fill="none" stroke="black" d="M4565.75,-1460.91C4578.09,-1337.37 4651.93,-598.31 4667.23,-445.19"/>
<polygon fill="black" stroke="black" points="4670.71,-445.5 4668.23,-435.2 4663.75,-444.8 4670.71,-445.5"/>
</g>
<!-- run_dragen_germline_step&#45;&gt;dragen_qc_step -->
<g id="edge3" class="edge">
<title>run_dragen_germline_step&#45;&gt;dragen_qc_step</title>
<path fill="none" stroke="black" d="M4466.83,-1466.94C3870.21,-1396.32 710.53,-1022.35 165.96,-957.9"/>
<polygon fill="black" stroke="black" points="166.19,-954.4 155.84,-956.7 165.36,-961.35 166.19,-954.4"/>
</g>
<!-- \n -->
<g id="node60" class="node">
<title>\n</title>
<ellipse fill="none" stroke="black" cx="9069" cy="-2031.44" rx="27" ry="18"/>
</g>
</g>
</svg>
