<?xml version="1.0" encoding="UTF-8" standalone="no"?>
<!DOCTYPE svg PUBLIC "-//W3C//DTD SVG 1.1//EN"
 "http://www.w3.org/Graphics/SVG/1.1/DTD/svg11.dtd">
<!-- Generated by graphviz version 2.43.0 (0)
 -->
<!-- Title: G Pages: 1 -->
<svg width="9366pt" height="2329pt"
 viewBox="0.00 0.00 9366.00 2328.78" xmlns="http://www.w3.org/2000/svg" xmlns:xlink="http://www.w3.org/1999/xlink">
<g id="graph0" class="graph" transform="scale(1 1) rotate(0) translate(4 2324.78)">
<title>G</title>
<polygon fill="#eeeeee" stroke="transparent" points="-4,4 -4,-2324.78 9362,-2324.78 9362,4 -4,4"/>
<g id="clust1" class="cluster">
<title>cluster_inputs</title>
<polygon fill="#eeeeee" stroke="black" stroke-dasharray="5,2" points="8,-1700.45 8,-2262.4 9294,-2262.4 9294,-1700.45 8,-1700.45"/>
<text text-anchor="middle" x="9227.5" y="-1708.25" font-family="Times,serif" font-size="14.00">Workflow Inputs</text>
</g>
<g id="clust2" class="cluster">
<title>cluster_outputs</title>
<polygon fill="#eeeeee" stroke="black" stroke-dasharray="5,2" points="4098,-58.38 4098,-620.34 4889,-620.34 4889,-58.38 4098,-58.38"/>
<text text-anchor="middle" x="4816.5" y="-66.18" font-family="Times,serif" font-size="14.00">Workflow Outputs</text>
</g>
<!-- output_file_prefix -->
<g id="node1" class="node">
<title>output_file_prefix</title>
<polygon fill="#94ddf4" stroke="black" points="16,-2046.88 16,-2083.88 156,-2083.88 156,-2046.88 16,-2046.88"/>
<text text-anchor="middle" x="86" y="-2061.68" font-family="Times,serif" font-size="14.00">output_file_prefix</text>
</g>
<!-- dragen_qc_step -->
<g id="node60" class="node">
<title>dragen_qc_step</title>
<polygon fill="lightgoldenrodyellow" stroke="black" points="16.5,-944.88 16.5,-981.88 155.5,-981.88 155.5,-944.88 16.5,-944.88"/>
<text text-anchor="middle" x="86" y="-959.68" font-family="Times,serif" font-size="14.00">multiqc v(1.14.0)</text>
</g>
<!-- output_file_prefix&#45;&gt;dragen_qc_step -->
<g id="edge7" class="edge">
<title>output_file_prefix&#45;&gt;dragen_qc_step</title>
<path fill="none" stroke="black" d="M82.24,-2046.66C69.55,-1919.69 69.26,-1149.01 81.36,-992.21"/>
<polygon fill="black" stroke="black" points="84.87,-992.27 82.26,-982 77.9,-991.66 84.87,-992.27"/>
</g>
<!-- output_file_prefix&#45;&gt;dragen_qc_step -->
<g id="edge8" class="edge">
<title>output_file_prefix&#45;&gt;dragen_qc_step</title>
<path fill="none" stroke="black" d="M86,-2046.66C86,-1919.69 86,-1149.01 86,-992.21"/>
<polygon fill="black" stroke="black" points="89.5,-992 86,-982 82.5,-992 89.5,-992"/>
</g>
<!-- output_file_prefix&#45;&gt;dragen_qc_step -->
<g id="edge9" class="edge">
<title>output_file_prefix&#45;&gt;dragen_qc_step</title>
<path fill="none" stroke="black" d="M89.76,-2046.66C102.45,-1919.69 102.74,-1149.01 90.64,-992.21"/>
<polygon fill="black" stroke="black" points="94.1,-991.66 89.74,-982 87.13,-992.27 94.1,-991.66"/>
</g>
<!-- run_dragen_germline_step -->
<g id="node61" class="node">
<title>run_dragen_germline_step</title>
<polygon fill="lightgoldenrodyellow" stroke="black" points="4615,-1484.88 4615,-1521.88 4809,-1521.88 4809,-1484.88 4615,-1484.88"/>
<text text-anchor="middle" x="4712" y="-1499.68" font-family="Times,serif" font-size="14.00">dragen&#45;germline v(4.2.4)</text>
</g>
<!-- output_file_prefix&#45;&gt;run_dragen_germline_step -->
<g id="edge10" class="edge">
<title>output_file_prefix&#45;&gt;run_dragen_germline_step</title>
<path fill="none" stroke="black" d="M108.78,-2046.68C124.09,-2035.76 145.2,-2022.52 166,-2015.38 1028.48,-1719.24 4001.64,-1543.21 4604.77,-1510.1"/>
<polygon fill="black" stroke="black" points="4604.96,-1513.6 4614.76,-1509.56 4604.58,-1506.61 4604.96,-1513.6"/>
</g>
<!-- bam_input -->
<g id="node2" class="node">
<title>bam_input</title>
<polygon fill="#94ddf4" stroke="black" points="9020,-2046.88 9020,-2083.88 9112,-2083.88 9112,-2046.88 9020,-2046.88"/>
<text text-anchor="middle" x="9066" y="-2061.68" font-family="Times,serif" font-size="14.00">bam_input</text>
</g>
<!-- bam_input&#45;&gt;run_dragen_germline_step -->
<g id="edge11" class="edge">
<title>bam_input&#45;&gt;run_dragen_germline_step</title>
<path fill="none" stroke="black" d="M9051.08,-2046.4C9040.96,-2035.52 9026.63,-2022.42 9011,-2015.38 8226.4,-1662.14 5406.38,-1532.01 4819.47,-1508.46"/>
<polygon fill="black" stroke="black" points="4819.46,-1504.96 4809.33,-1508.05 4819.18,-1511.95 4819.46,-1504.96"/>
</g>
<!-- cnv_enable_self_normalization -->
<g id="node3" class="node">
<title>cnv_enable_self_normalization</title>
<polygon fill="#94ddf4" stroke="black" points="8768.5,-2046.88 8768.5,-2083.88 9001.5,-2083.88 9001.5,-2046.88 8768.5,-2046.88"/>
<text text-anchor="middle" x="8885" y="-2061.68" font-family="Times,serif" font-size="14.00">cnv_enable_self_normalization</text>
</g>
<!-- cnv_enable_self_normalization&#45;&gt;run_dragen_germline_step -->
<g id="edge12" class="edge">
<title>cnv_enable_self_normalization&#45;&gt;run_dragen_germline_step</title>
<path fill="none" stroke="black" d="M8847.51,-2046.86C8823.1,-2036.16 8790.27,-2023.1 8760,-2015.38 7228.6,-1625.04 5291.93,-1526.95 4819.49,-1508.19"/>
<polygon fill="black" stroke="black" points="4819.4,-1504.69 4809.27,-1507.79 4819.12,-1511.68 4819.4,-1504.69"/>
</g>
<!-- cram_input -->
<g id="node4" class="node">
<title>cram_input</title>
<polygon fill="#94ddf4" stroke="black" points="8653.5,-2046.88 8653.5,-2083.88 8750.5,-2083.88 8750.5,-2046.88 8653.5,-2046.88"/>
<text text-anchor="middle" x="8702" y="-2061.68" font-family="Times,serif" font-size="14.00">cram_input</text>
</g>
<!-- cram_input&#45;&gt;run_dragen_germline_step -->
<g id="edge13" class="edge">
<title>cram_input&#45;&gt;run_dragen_germline_step</title>
<path fill="none" stroke="black" d="M8686.05,-2046.46C8675.3,-2035.6 8660.16,-2022.51 8644,-2015.38 7926.84,-1699.1 5374.15,-1541.16 4819.05,-1510.13"/>
<polygon fill="black" stroke="black" points="4819.23,-1506.64 4809.05,-1509.58 4818.84,-1513.63 4819.23,-1506.64"/>
</g>
<!-- cram_reference -->
<g id="node5" class="node">
<title>cram_reference</title>
<polygon fill="#94ddf4" stroke="black" points="8507,-2046.88 8507,-2083.88 8635,-2083.88 8635,-2046.88 8507,-2046.88"/>
<text text-anchor="middle" x="8571" y="-2061.68" font-family="Times,serif" font-size="14.00">cram_reference</text>
</g>
<!-- cram_reference&#45;&gt;run_dragen_germline_step -->
<g id="edge14" class="edge">
<title>cram_reference&#45;&gt;run_dragen_germline_step</title>
<path fill="none" stroke="black" d="M8550.4,-2046.79C8536.51,-2035.92 8517.27,-2022.69 8498,-2015.38 7794.02,-1748.27 5360.66,-1553.01 4819.3,-1512.26"/>
<polygon fill="black" stroke="black" points="4819.39,-1508.76 4809.15,-1511.5 4818.86,-1515.74 4819.39,-1508.76"/>
</g>
<!-- dbsnp_annotation -->
<g id="node6" class="node">
<title>dbsnp_annotation</title>
<polygon fill="#94ddf4" stroke="black" points="8345.5,-2046.88 8345.5,-2083.88 8488.5,-2083.88 8488.5,-2046.88 8345.5,-2046.88"/>
<text text-anchor="middle" x="8417" y="-2061.68" font-family="Times,serif" font-size="14.00">dbsnp_annotation</text>
</g>
<!-- dbsnp_annotation&#45;&gt;run_dragen_germline_step -->
<g id="edge15" class="edge">
<title>dbsnp_annotation&#45;&gt;run_dragen_germline_step</title>
<path fill="none" stroke="black" d="M8393.83,-2046.88C8378.28,-2036.05 8356.9,-2022.83 8336,-2015.38 7010.11,-1543.29 5265.51,-1505.59 4819.44,-1504"/>
<polygon fill="black" stroke="black" points="4819.16,-1500.5 4809.15,-1503.97 4819.13,-1507.5 4819.16,-1500.5"/>
</g>
<!-- dedup_min_qual -->
<g id="node7" class="node">
<title>dedup_min_qual</title>
<polygon fill="#94ddf4" stroke="black" points="8195,-2046.88 8195,-2083.88 8327,-2083.88 8327,-2046.88 8195,-2046.88"/>
<text text-anchor="middle" x="8261" y="-2061.68" font-family="Times,serif" font-size="14.00">dedup_min_qual</text>
</g>
<!-- dedup_min_qual&#45;&gt;run_dragen_germline_step -->
<g id="edge16" class="edge">
<title>dedup_min_qual&#45;&gt;run_dragen_germline_step</title>
<path fill="none" stroke="black" d="M8239.73,-2046.88C8225.42,-2036.05 8205.63,-2022.83 8186,-2015.38 6926.9,-1538.03 5254.25,-1504 4819.08,-1503.65"/>
<polygon fill="black" stroke="black" points="4819.04,-1500.15 4809.04,-1503.64 4819.04,-1507.15 4819.04,-1500.15"/>
</g>
<!-- enable_cnv -->
<g id="node8" class="node">
<title>enable_cnv</title>
<polygon fill="#94ddf4" stroke="black" points="8081.5,-2046.88 8081.5,-2083.88 8176.5,-2083.88 8176.5,-2046.88 8081.5,-2046.88"/>
<text text-anchor="middle" x="8129" y="-2061.68" font-family="Times,serif" font-size="14.00">enable_cnv</text>
</g>
<!-- enable_cnv&#45;&gt;run_dragen_germline_step -->
<g id="edge17" class="edge">
<title>enable_cnv&#45;&gt;run_dragen_germline_step</title>
<path fill="none" stroke="black" d="M8113.66,-2046.57C8103.31,-2035.76 8088.7,-2022.68 8073,-2015.38 7469.94,-1735.26 5324.7,-1552.38 4819.24,-1512.57"/>
<polygon fill="black" stroke="black" points="4819.28,-1509.06 4809.03,-1511.77 4818.73,-1516.04 4819.28,-1509.06"/>
</g>
<!-- enable_duplicate_marking -->
<g id="node9" class="node">
<title>enable_duplicate_marking</title>
<polygon fill="#94ddf4" stroke="black" points="7860.5,-2046.88 7860.5,-2083.88 8063.5,-2083.88 8063.5,-2046.88 7860.5,-2046.88"/>
<text text-anchor="middle" x="7962" y="-2061.68" font-family="Times,serif" font-size="14.00">enable_duplicate_marking</text>
</g>
<!-- enable_duplicate_marking&#45;&gt;run_dragen_germline_step -->
<g id="edge18" class="edge">
<title>enable_duplicate_marking&#45;&gt;run_dragen_germline_step</title>
<path fill="none" stroke="black" d="M7928.35,-2046.84C7906.77,-2036.27 7877.86,-2023.36 7851,-2015.38 6693.84,-1671.91 5223.88,-1542.41 4819.24,-1511.92"/>
<polygon fill="black" stroke="black" points="4819.25,-1508.41 4809.02,-1511.15 4818.73,-1515.39 4819.25,-1508.41"/>
</g>
<!-- enable_hla -->
<g id="node10" class="node">
<title>enable_hla</title>
<polygon fill="#94ddf4" stroke="black" points="7750,-2046.88 7750,-2083.88 7842,-2083.88 7842,-2046.88 7750,-2046.88"/>
<text text-anchor="middle" x="7796" y="-2061.68" font-family="Times,serif" font-size="14.00">enable_hla</text>
</g>
<!-- enable_hla&#45;&gt;run_dragen_germline_step -->
<g id="edge19" class="edge">
<title>enable_hla&#45;&gt;run_dragen_germline_step</title>
<path fill="none" stroke="black" d="M7780.96,-2046.66C7770.79,-2035.88 7756.45,-2022.8 7741,-2015.38 7203.47,-1757.42 5294.13,-1560.25 4819.44,-1514.47"/>
<polygon fill="black" stroke="black" points="4819.46,-1510.96 4809.17,-1513.48 4818.79,-1517.93 4819.46,-1510.96"/>
</g>
<!-- enable_map_align_output -->
<g id="node11" class="node">
<title>enable_map_align_output</title>
<polygon fill="#94ddf4" stroke="black" points="7534.5,-2046.88 7534.5,-2083.88 7731.5,-2083.88 7731.5,-2046.88 7534.5,-2046.88"/>
<text text-anchor="middle" x="7633" y="-2061.68" font-family="Times,serif" font-size="14.00">enable_map_align_output</text>
</g>
<!-- enable_map_align_output&#45;&gt;run_dragen_germline_step -->
<g id="edge20" class="edge">
<title>enable_map_align_output&#45;&gt;run_dragen_germline_step</title>
<path fill="none" stroke="black" d="M7599.79,-2046.74C7578.84,-2036.26 7550.94,-2023.49 7525,-2015.38 6499.44,-1694.98 5197,-1551.07 4819.17,-1514.26"/>
<polygon fill="black" stroke="black" points="4819.36,-1510.76 4809.07,-1513.28 4818.69,-1517.73 4819.36,-1510.76"/>
</g>
<!-- enable_sv -->
<g id="node12" class="node">
<title>enable_sv</title>
<polygon fill="#94ddf4" stroke="black" points="7430,-2046.88 7430,-2083.88 7516,-2083.88 7516,-2046.88 7430,-2046.88"/>
<text text-anchor="middle" x="7473" y="-2061.68" font-family="Times,serif" font-size="14.00">enable_sv</text>
</g>
<!-- enable_sv&#45;&gt;run_dragen_germline_step -->
<g id="edge21" class="edge">
<title>enable_sv&#45;&gt;run_dragen_germline_step</title>
<path fill="none" stroke="black" d="M7458.92,-2046.75C7449.36,-2036 7435.81,-2022.93 7421,-2015.38 6497.3,-1544.93 5197.5,-1504.76 4819.17,-1503.54"/>
<polygon fill="black" stroke="black" points="4819.07,-1500.04 4809.06,-1503.51 4819.05,-1507.04 4819.07,-1500.04"/>
</g>
<!-- fastq_list -->
<g id="node13" class="node">
<title>fastq_list</title>
<polygon fill="#94ddf4" stroke="black" points="7330,-2046.88 7330,-2083.88 7412,-2083.88 7412,-2046.88 7330,-2046.88"/>
<text text-anchor="middle" x="7371" y="-2061.68" font-family="Times,serif" font-size="14.00">fastq_list</text>
</g>
<!-- fastq_list&#45;&gt;run_dragen_germline_step -->
<g id="edge22" class="edge">
<title>fastq_list&#45;&gt;run_dragen_germline_step</title>
<path fill="none" stroke="black" d="M7357.58,-2046.77C7348.44,-2036.04 7335.41,-2022.97 7321,-2015.38 6439.31,-1551.48 5189.6,-1506.59 4819.31,-1503.92"/>
<polygon fill="black" stroke="black" points="4819.17,-1500.42 4809.14,-1503.85 4819.12,-1507.42 4819.17,-1500.42"/>
</g>
<!-- fastq_list_rows -->
<g id="node14" class="node">
<title>fastq_list_rows</title>
<polygon fill="#94ddf4" stroke="black" points="7188.5,-2046.88 7188.5,-2083.88 7311.5,-2083.88 7311.5,-2046.88 7188.5,-2046.88"/>
<text text-anchor="middle" x="7250" y="-2061.68" font-family="Times,serif" font-size="14.00">fastq_list_rows</text>
</g>
<!-- fastq_list_rows&#45;&gt;run_dragen_germline_step -->
<g id="edge23" class="edge">
<title>fastq_list_rows&#45;&gt;run_dragen_germline_step</title>
<path fill="none" stroke="black" d="M7229.26,-2046.74C7215.76,-2036.14 7197.31,-2023.22 7179,-2015.38 6317.84,-1647.06 5171.22,-1537.38 4819.24,-1511.36"/>
<polygon fill="black" stroke="black" points="4819.29,-1507.86 4809.06,-1510.62 4818.78,-1514.84 4819.29,-1507.86"/>
</g>
<!-- hla_allele_frequency_file -->
<g id="node15" class="node">
<title>hla_allele_frequency_file</title>
<polygon fill="#94ddf4" stroke="black" points="6980,-2046.88 6980,-2083.88 7170,-2083.88 7170,-2046.88 6980,-2046.88"/>
<text text-anchor="middle" x="7075" y="-2061.68" font-family="Times,serif" font-size="14.00">hla_allele_frequency_file</text>
</g>
<!-- hla_allele_frequency_file&#45;&gt;run_dragen_germline_step -->
<g id="edge24" class="edge">
<title>hla_allele_frequency_file&#45;&gt;run_dragen_germline_step</title>
<path fill="none" stroke="black" d="M7042.51,-2046.83C7022.38,-2036.52 6995.72,-2023.89 6971,-2015.38 6165.91,-1738.38 5147.18,-1570.02 4819.01,-1520.08"/>
<polygon fill="black" stroke="black" points="4819.45,-1516.61 4809.04,-1518.57 4818.4,-1523.53 4819.45,-1516.61"/>
</g>
<!-- hla_bed_file -->
<g id="node16" class="node">
<title>hla_bed_file</title>
<polygon fill="#94ddf4" stroke="black" points="6862,-2046.88 6862,-2083.88 6962,-2083.88 6962,-2046.88 6862,-2046.88"/>
<text text-anchor="middle" x="6912" y="-2061.68" font-family="Times,serif" font-size="14.00">hla_bed_file</text>
</g>
<!-- hla_bed_file&#45;&gt;run_dragen_germline_step -->
<g id="edge25" class="edge">
<title>hla_bed_file&#45;&gt;run_dragen_germline_step</title>
<path fill="none" stroke="black" d="M6894.95,-2046.57C6883.92,-2036.03 6868.72,-2023.25 6853,-2015.38 6131.11,-1654.41 5143.07,-1541.24 4819.4,-1512.69"/>
<polygon fill="black" stroke="black" points="4819.36,-1509.17 4809.1,-1511.79 4818.75,-1516.15 4819.36,-1509.17"/>
</g>
<!-- hla_min_reads -->
<g id="node17" class="node">
<title>hla_min_reads</title>
<polygon fill="#94ddf4" stroke="black" points="6724.5,-2046.88 6724.5,-2083.88 6843.5,-2083.88 6843.5,-2046.88 6724.5,-2046.88"/>
<text text-anchor="middle" x="6784" y="-2061.68" font-family="Times,serif" font-size="14.00">hla_min_reads</text>
</g>
<!-- hla_min_reads&#45;&gt;run_dragen_germline_step -->
<g id="edge26" class="edge">
<title>hla_min_reads&#45;&gt;run_dragen_germline_step</title>
<path fill="none" stroke="black" d="M6763.5,-2046.77C6750.39,-2036.31 6732.6,-2023.53 6715,-2015.38 6033.15,-1699.66 5126.82,-1558.57 4819.28,-1517.64"/>
<polygon fill="black" stroke="black" points="4819.41,-1514.13 4809.04,-1516.29 4818.49,-1521.07 4819.41,-1514.13"/>
</g>
<!-- hla_reference_file -->
<g id="node18" class="node">
<title>hla_reference_file</title>
<polygon fill="#94ddf4" stroke="black" points="6564,-2046.88 6564,-2083.88 6706,-2083.88 6706,-2046.88 6564,-2046.88"/>
<text text-anchor="middle" x="6635" y="-2061.68" font-family="Times,serif" font-size="14.00">hla_reference_file</text>
</g>
<!-- hla_reference_file&#45;&gt;run_dragen_germline_step -->
<g id="edge27" class="edge">
<title>hla_reference_file&#45;&gt;run_dragen_germline_step</title>
<path fill="none" stroke="black" d="M6610.4,-2046.83C6595.06,-2036.52 6574.57,-2023.89 6555,-2015.38 5924.52,-1741.34 5108.34,-1576.33 4819.25,-1523.23"/>
<polygon fill="black" stroke="black" points="4819.65,-1519.75 4809.18,-1521.39 4818.39,-1526.64 4819.65,-1519.75"/>
</g>
<!-- hla_tiebreaker_threshold -->
<g id="node19" class="node">
<title>hla_tiebreaker_threshold</title>
<polygon fill="#94ddf4" stroke="black" points="6352,-2046.88 6352,-2083.88 6546,-2083.88 6546,-2046.88 6352,-2046.88"/>
<text text-anchor="middle" x="6449" y="-2061.68" font-family="Times,serif" font-size="14.00">hla_tiebreaker_threshold</text>
</g>
<!-- hla_tiebreaker_threshold&#45;&gt;run_dragen_germline_step -->
<g id="edge28" class="edge">
<title>hla_tiebreaker_threshold&#45;&gt;run_dragen_germline_step</title>
<path fill="none" stroke="black" d="M6413.68,-2046.66C6393.3,-2036.79 6367.02,-2024.65 6343,-2015.38 5756.58,-1789.07 5023.89,-1587.41 4788.53,-1524.56"/>
<polygon fill="black" stroke="black" points="4789.26,-1521.13 4778.7,-1521.94 4787.46,-1527.89 4789.26,-1521.13"/>
</g>
<!-- hla_zygosity_threshold -->
<g id="node20" class="node">
<title>hla_zygosity_threshold</title>
<polygon fill="#94ddf4" stroke="black" points="6154.5,-2046.88 6154.5,-2083.88 6333.5,-2083.88 6333.5,-2046.88 6154.5,-2046.88"/>
<text text-anchor="middle" x="6244" y="-2061.68" font-family="Times,serif" font-size="14.00">hla_zygosity_threshold</text>
</g>
<!-- hla_zygosity_threshold&#45;&gt;run_dragen_germline_step -->
<g id="edge29" class="edge">
<title>hla_zygosity_threshold&#45;&gt;run_dragen_germline_step</title>
<path fill="none" stroke="black" d="M6211.35,-2046.81C6192.52,-2036.99 6168.22,-2024.86 6146,-2015.38 5630.51,-1795.63 4985.23,-1589.36 4778.77,-1524.98"/>
<polygon fill="black" stroke="black" points="4779.56,-1521.57 4768.98,-1521.94 4777.48,-1528.25 4779.56,-1521.57"/>
</g>
<!-- lic_instance_id_location -->
<g id="node21" class="node">
<title>lic_instance_id_location</title>
<polygon fill="#94ddf4" stroke="black" points="5953.5,-2046.88 5953.5,-2083.88 6136.5,-2083.88 6136.5,-2046.88 5953.5,-2046.88"/>
<text text-anchor="middle" x="6045" y="-2061.68" font-family="Times,serif" font-size="14.00">lic_instance_id_location</text>
</g>
<!-- lic_instance_id_location&#45;&gt;run_dragen_germline_step -->
<g id="edge30" class="edge">
<title>lic_instance_id_location&#45;&gt;run_dragen_germline_step</title>
<path fill="none" stroke="black" d="M6010.18,-2046.87C5990.82,-2037.29 5966.22,-2025.37 5944,-2015.38 5493.94,-1813.08 4939.49,-1593.5 4766.29,-1525.59"/>
<polygon fill="black" stroke="black" points="4767.47,-1522.29 4756.88,-1521.9 4764.91,-1528.8 4767.47,-1522.29"/>
</g>
<!-- output_directory -->
<g id="node22" class="node">
<title>output_directory</title>
<polygon fill="#94ddf4" stroke="black" points="5799,-2046.88 5799,-2083.88 5935,-2083.88 5935,-2046.88 5799,-2046.88"/>
<text text-anchor="middle" x="5867" y="-2061.68" font-family="Times,serif" font-size="14.00">output_directory</text>
</g>
<!-- output_directory&#45;&gt;run_dragen_germline_step -->
<g id="edge31" class="edge">
<title>output_directory&#45;&gt;run_dragen_germline_step</title>
<path fill="none" stroke="black" d="M5841.12,-2046.78C5826.4,-2037.06 5807.48,-2025.04 5790,-2015.38 5406.22,-1803.38 4920.01,-1592.57 4763.21,-1525.96"/>
<polygon fill="black" stroke="black" points="4764.37,-1522.65 4753.8,-1521.96 4761.63,-1529.09 4764.37,-1522.65"/>
</g>
<!-- qc_coverage_ignore_overlaps -->
<g id="node23" class="node">
<title>qc_coverage_ignore_overlaps</title>
<polygon fill="#94ddf4" stroke="black" points="5557,-2046.88 5557,-2083.88 5781,-2083.88 5781,-2046.88 5557,-2046.88"/>
<text text-anchor="middle" x="5669" y="-2061.68" font-family="Times,serif" font-size="14.00">qc_coverage_ignore_overlaps</text>
</g>
<!-- qc_coverage_ignore_overlaps&#45;&gt;run_dragen_germline_step -->
<g id="edge32" class="edge">
<title>qc_coverage_ignore_overlaps&#45;&gt;run_dragen_germline_step</title>
<path fill="none" stroke="black" d="M5639.04,-2046.86C5499.04,-1964.93 4909.39,-1619.89 4751.19,-1527.32"/>
<polygon fill="black" stroke="black" points="4752.66,-1524.12 4742.26,-1522.09 4749.12,-1530.16 4752.66,-1524.12"/>
</g>
<!-- qc_coverage_region_1 -->
<g id="node24" class="node">
<title>qc_coverage_region_1</title>
<polygon fill="#94ddf4" stroke="black" points="5365.5,-2046.88 5365.5,-2083.88 5538.5,-2083.88 5538.5,-2046.88 5365.5,-2046.88"/>
<text text-anchor="middle" x="5452" y="-2061.68" font-family="Times,serif" font-size="14.00">qc_coverage_region_1</text>
</g>
<!-- qc_coverage_region_1&#45;&gt;run_dragen_germline_step -->
<g id="edge33" class="edge">
<title>qc_coverage_region_1&#45;&gt;run_dragen_germline_step</title>
<path fill="none" stroke="black" d="M5428.63,-2046.7C5320.32,-1964.74 4867.19,-1621.83 4743.38,-1528.13"/>
<polygon fill="black" stroke="black" points="4745.46,-1525.32 4735.37,-1522.07 4741.24,-1530.9 4745.46,-1525.32"/>
</g>
<!-- qc_coverage_region_2 -->
<g id="node25" class="node">
<title>qc_coverage_region_2</title>
<polygon fill="#94ddf4" stroke="black" points="5174.5,-2046.88 5174.5,-2083.88 5347.5,-2083.88 5347.5,-2046.88 5174.5,-2046.88"/>
<text text-anchor="middle" x="5261" y="-2061.68" font-family="Times,serif" font-size="14.00">qc_coverage_region_2</text>
</g>
<!-- qc_coverage_region_2&#45;&gt;run_dragen_germline_step -->
<g id="edge34" class="edge">
<title>qc_coverage_region_2&#45;&gt;run_dragen_germline_step</title>
<path fill="none" stroke="black" d="M5243.66,-2046.7C5163.63,-1965.06 4829.82,-1624.56 4736.39,-1529.27"/>
<polygon fill="black" stroke="black" points="4738.84,-1526.76 4729.34,-1522.07 4733.84,-1531.66 4738.84,-1526.76"/>
</g>
<!-- qc_coverage_region_3 -->
<g id="node26" class="node">
<title>qc_coverage_region_3</title>
<polygon fill="#94ddf4" stroke="black" points="4983.5,-2046.88 4983.5,-2083.88 5156.5,-2083.88 5156.5,-2046.88 4983.5,-2046.88"/>
<text text-anchor="middle" x="5070" y="-2061.68" font-family="Times,serif" font-size="14.00">qc_coverage_region_3</text>
</g>
<!-- qc_coverage_region_3&#45;&gt;run_dragen_germline_step -->
<g id="edge35" class="edge">
<title>qc_coverage_region_3&#45;&gt;run_dragen_germline_step</title>
<path fill="none" stroke="black" d="M5058.69,-2046.7C5006.77,-1965.47 4791.01,-1627.97 4728.83,-1530.72"/>
<polygon fill="black" stroke="black" points="4731.64,-1528.61 4723.31,-1522.07 4725.75,-1532.38 4731.64,-1528.61"/>
</g>
<!-- reference_tar -->
<g id="node27" class="node">
<title>reference_tar</title>
<polygon fill="#94ddf4" stroke="black" points="4852.5,-2046.88 4852.5,-2083.88 4965.5,-2083.88 4965.5,-2046.88 4852.5,-2046.88"/>
<text text-anchor="middle" x="4909" y="-2061.68" font-family="Times,serif" font-size="14.00">reference_tar</text>
</g>
<!-- reference_tar&#45;&gt;run_dragen_germline_step -->
<g id="edge36" class="edge">
<title>reference_tar&#45;&gt;run_dragen_germline_step</title>
<path fill="none" stroke="black" d="M4902.78,-2046.7C4874.29,-1965.72 4756.19,-1630.01 4721.58,-1531.61"/>
<polygon fill="black" stroke="black" points="4724.84,-1530.35 4718.22,-1522.07 4718.24,-1532.67 4724.84,-1530.35"/>
</g>
<!-- sample_sex -->
<g id="node28" class="node">
<title>sample_sex</title>
<polygon fill="#94ddf4" stroke="black" points="4736,-2046.88 4736,-2083.88 4834,-2083.88 4834,-2046.88 4736,-2046.88"/>
<text text-anchor="middle" x="4785" y="-2061.68" font-family="Times,serif" font-size="14.00">sample_sex</text>
</g>
<!-- sample_sex&#45;&gt;run_dragen_germline_step -->
<g id="edge37" class="edge">
<title>sample_sex&#45;&gt;run_dragen_germline_step</title>
<path fill="none" stroke="black" d="M4782.69,-2046.7C4772.16,-1965.88 4728.55,-1631.37 4715.63,-1532.21"/>
<polygon fill="black" stroke="black" points="4719.07,-1531.54 4714.31,-1522.07 4712.13,-1532.44 4719.07,-1531.54"/>
</g>
<!-- sv_call_regions_bed -->
<g id="node29" class="node">
<title>sv_call_regions_bed</title>
<polygon fill="#94ddf4" stroke="black" points="4560.5,-2046.88 4560.5,-2083.88 4717.5,-2083.88 4717.5,-2046.88 4560.5,-2046.88"/>
<text text-anchor="middle" x="4639" y="-2061.68" font-family="Times,serif" font-size="14.00">sv_call_regions_bed</text>
</g>
<!-- sv_call_regions_bed&#45;&gt;run_dragen_germline_step -->
<g id="edge38" class="edge">
<title>sv_call_regions_bed&#45;&gt;run_dragen_germline_step</title>
<path fill="none" stroke="black" d="M4641.31,-2046.7C4651.84,-1965.88 4695.45,-1631.37 4708.37,-1532.21"/>
<polygon fill="black" stroke="black" points="4711.87,-1532.44 4709.69,-1522.07 4704.93,-1531.54 4711.87,-1532.44"/>
</g>
<!-- sv_discovery -->
<g id="node30" class="node">
<title>sv_discovery</title>
<polygon fill="#94ddf4" stroke="black" points="4435.5,-2046.88 4435.5,-2083.88 4542.5,-2083.88 4542.5,-2046.88 4435.5,-2046.88"/>
<text text-anchor="middle" x="4489" y="-2061.68" font-family="Times,serif" font-size="14.00">sv_discovery</text>
</g>
<!-- sv_discovery&#45;&gt;run_dragen_germline_step -->
<g id="edge39" class="edge">
<title>sv_discovery&#45;&gt;run_dragen_germline_step</title>
<path fill="none" stroke="black" d="M4496.04,-2046.7C4528.29,-1965.72 4661.97,-1630.01 4701.16,-1531.61"/>
<polygon fill="black" stroke="black" points="4704.51,-1532.66 4704.96,-1522.07 4698,-1530.07 4704.51,-1532.66"/>
</g>
<!-- sv_enable_liquid_tumor_mode -->
<g id="node31" class="node">
<title>sv_enable_liquid_tumor_mode</title>
<polygon fill="#94ddf4" stroke="black" points="4187,-2046.88 4187,-2083.88 4417,-2083.88 4417,-2046.88 4187,-2046.88"/>
<text text-anchor="middle" x="4302" y="-2061.68" font-family="Times,serif" font-size="14.00">sv_enable_liquid_tumor_mode</text>
</g>
<!-- sv_enable_liquid_tumor_mode&#45;&gt;run_dragen_germline_step -->
<g id="edge40" class="edge">
<title>sv_enable_liquid_tumor_mode&#45;&gt;run_dragen_germline_step</title>
<path fill="none" stroke="black" d="M4314.95,-2046.7C4374.48,-1965.39 4622.01,-1627.29 4692.93,-1530.42"/>
<polygon fill="black" stroke="black" points="4695.97,-1532.21 4699.05,-1522.07 4690.32,-1528.07 4695.97,-1532.21"/>
</g>
<!-- sv_exome -->
<g id="node32" class="node">
<title>sv_exome</title>
<polygon fill="#94ddf4" stroke="black" points="4083,-2046.88 4083,-2083.88 4169,-2083.88 4169,-2046.88 4083,-2046.88"/>
<text text-anchor="middle" x="4126" y="-2061.68" font-family="Times,serif" font-size="14.00">sv_exome</text>
</g>
<!-- sv_exome&#45;&gt;run_dragen_germline_step -->
<g id="edge41" class="edge">
<title>sv_exome&#45;&gt;run_dragen_germline_step</title>
<path fill="none" stroke="black" d="M4144.51,-2046.7C4229.93,-1965.06 4586.24,-1624.56 4685.96,-1529.27"/>
<polygon fill="black" stroke="black" points="4688.68,-1531.51 4693.49,-1522.07 4683.84,-1526.45 4688.68,-1531.51"/>
</g>
<!-- sv_forcegt_vcf -->
<g id="node33" class="node">
<title>sv_forcegt_vcf</title>
<polygon fill="#94ddf4" stroke="black" points="3947,-2046.88 3947,-2083.88 4065,-2083.88 4065,-2046.88 3947,-2046.88"/>
<text text-anchor="middle" x="4006" y="-2061.68" font-family="Times,serif" font-size="14.00">sv_forcegt_vcf</text>
</g>
<!-- sv_forcegt_vcf&#45;&gt;run_dragen_germline_step -->
<g id="edge42" class="edge">
<title>sv_forcegt_vcf&#45;&gt;run_dragen_germline_step</title>
<path fill="none" stroke="black" d="M4028.3,-2046.7C4131.53,-1964.82 4563.08,-1622.51 4681.71,-1528.41"/>
<polygon fill="black" stroke="black" points="4684.04,-1531.03 4689.7,-1522.07 4679.69,-1525.55 4684.04,-1531.03"/>
</g>
<!-- sv_output_contigs -->
<g id="node34" class="node">
<title>sv_output_contigs</title>
<polygon fill="#94ddf4" stroke="black" points="3783.5,-2046.88 3783.5,-2083.88 3928.5,-2083.88 3928.5,-2046.88 3783.5,-2046.88"/>
<text text-anchor="middle" x="3856" y="-2061.68" font-family="Times,serif" font-size="14.00">sv_output_contigs</text>
</g>
<!-- sv_output_contigs&#45;&gt;run_dragen_germline_step -->
<g id="edge43" class="edge">
<title>sv_output_contigs&#45;&gt;run_dragen_germline_step</title>
<path fill="none" stroke="black" d="M3883.03,-2046.7C4008.57,-1964.57 4534.58,-1620.46 4676.56,-1527.57"/>
<polygon fill="black" stroke="black" points="4678.51,-1530.48 4684.96,-1522.07 4674.68,-1524.62 4678.51,-1530.48"/>
</g>
<!-- sv_region -->
<g id="node35" class="node">
<title>sv_region</title>
<polygon fill="#94ddf4" stroke="black" points="3680.5,-2046.88 3680.5,-2083.88 3765.5,-2083.88 3765.5,-2046.88 3680.5,-2046.88"/>
<text text-anchor="middle" x="3723" y="-2061.68" font-family="Times,serif" font-size="14.00">sv_region</text>
</g>
<!-- sv_region&#45;&gt;run_dragen_germline_step -->
<g id="edge44" class="edge">
<title>sv_region&#45;&gt;run_dragen_germline_step</title>
<path fill="none" stroke="black" d="M3739.36,-2046.88C3749.15,-2036.96 3762.15,-2024.71 3775,-2015.38 4089.51,-1787.28 4517.42,-1590.02 4661.97,-1526.11"/>
<polygon fill="black" stroke="black" points="4663.74,-1529.16 4671.48,-1521.92 4660.92,-1522.75 4663.74,-1529.16"/>
</g>
<!-- sv_se_overlap_pair_evidence -->
<g id="node36" class="node">
<title>sv_se_overlap_pair_evidence</title>
<polygon fill="#94ddf4" stroke="black" points="3442,-2046.88 3442,-2083.88 3662,-2083.88 3662,-2046.88 3442,-2046.88"/>
<text text-anchor="middle" x="3552" y="-2061.68" font-family="Times,serif" font-size="14.00">sv_se_overlap_pair_evidence</text>
</g>
<!-- sv_se_overlap_pair_evidence&#45;&gt;run_dragen_germline_step -->
<g id="edge45" class="edge">
<title>sv_se_overlap_pair_evidence&#45;&gt;run_dragen_germline_step</title>
<path fill="none" stroke="black" d="M3588.31,-2046.86C3758.61,-1964.64 4477.82,-1617.44 4666.51,-1526.34"/>
<polygon fill="black" stroke="black" points="4668.13,-1529.45 4675.61,-1521.95 4665.08,-1523.15 4668.13,-1529.45"/>
</g>
<!-- sv_tin_contam_tolerance -->
<g id="node37" class="node">
<title>sv_tin_contam_tolerance</title>
<polygon fill="#94ddf4" stroke="black" points="3232.5,-2046.88 3232.5,-2083.88 3423.5,-2083.88 3423.5,-2046.88 3232.5,-2046.88"/>
<text text-anchor="middle" x="3328" y="-2061.68" font-family="Times,serif" font-size="14.00">sv_tin_contam_tolerance</text>
</g>
<!-- sv_tin_contam_tolerance&#45;&gt;run_dragen_germline_step -->
<g id="edge46" class="edge">
<title>sv_tin_contam_tolerance&#45;&gt;run_dragen_germline_step</title>
<path fill="none" stroke="black" d="M3364.22,-2046.87C3384.35,-2037.29 3409.92,-2025.37 3433,-2015.38 3900.88,-1812.94 4476.54,-1593.27 4655.94,-1525.48"/>
<polygon fill="black" stroke="black" points="4657.32,-1528.7 4665.44,-1521.89 4654.85,-1522.15 4657.32,-1528.7"/>
</g>
<!-- vc_decoy_contigs -->
<g id="node38" class="node">
<title>vc_decoy_contigs</title>
<polygon fill="#94ddf4" stroke="black" points="3075.5,-2046.88 3075.5,-2083.88 3214.5,-2083.88 3214.5,-2046.88 3075.5,-2046.88"/>
<text text-anchor="middle" x="3145" y="-2061.68" font-family="Times,serif" font-size="14.00">vc_decoy_contigs</text>
</g>
<!-- vc_decoy_contigs&#45;&gt;run_dragen_germline_step -->
<g id="edge47" class="edge">
<title>vc_decoy_contigs&#45;&gt;run_dragen_germline_step</title>
<path fill="none" stroke="black" d="M3170.15,-2046.76C3185.28,-2036.68 3205.19,-2024.31 3224,-2015.38 3741.02,-1770.09 4408.41,-1584.04 4633.76,-1524.55"/>
<polygon fill="black" stroke="black" points="4634.73,-1527.91 4643.51,-1521.98 4632.95,-1521.14 4634.73,-1527.91"/>
</g>
<!-- vc_enable_baf -->
<g id="node39" class="node">
<title>vc_enable_baf</title>
<polygon fill="#94ddf4" stroke="black" points="2941,-2046.88 2941,-2083.88 3057,-2083.88 3057,-2046.88 2941,-2046.88"/>
<text text-anchor="middle" x="2999" y="-2061.68" font-family="Times,serif" font-size="14.00">vc_enable_baf</text>
</g>
<!-- vc_enable_baf&#45;&gt;run_dragen_germline_step -->
<g id="edge48" class="edge">
<title>vc_enable_baf&#45;&gt;run_dragen_germline_step</title>
<path fill="none" stroke="black" d="M3019.6,-2046.83C3032.54,-2036.53 3049.94,-2023.89 3067,-2015.38 3617.52,-1740.71 4345.59,-1577.49 4610.3,-1523.98"/>
<polygon fill="black" stroke="black" points="4611.17,-1527.38 4620.28,-1521.97 4609.79,-1520.52 4611.17,-1527.38"/>
</g>
<!-- vc_enable_decoy_contigs -->
<g id="node40" class="node">
<title>vc_enable_decoy_contigs</title>
<polygon fill="#94ddf4" stroke="black" points="2729.5,-2046.88 2729.5,-2083.88 2922.5,-2083.88 2922.5,-2046.88 2729.5,-2046.88"/>
<text text-anchor="middle" x="2826" y="-2061.68" font-family="Times,serif" font-size="14.00">vc_enable_decoy_contigs</text>
</g>
<!-- vc_enable_decoy_contigs&#45;&gt;run_dragen_germline_step -->
<g id="edge49" class="edge">
<title>vc_enable_decoy_contigs&#45;&gt;run_dragen_germline_step</title>
<path fill="none" stroke="black" d="M2860.76,-2046.67C2881.18,-2036.69 2907.68,-2024.44 2932,-2015.38 3567.89,-1778.73 4365.01,-1584.99 4625.41,-1524.24"/>
<polygon fill="black" stroke="black" points="4626.24,-1527.64 4635.18,-1521.96 4624.65,-1520.82 4626.24,-1527.64"/>
</g>
<!-- vc_enable_gatk_acceleration -->
<g id="node41" class="node">
<title>vc_enable_gatk_acceleration</title>
<polygon fill="#94ddf4" stroke="black" points="2493,-2046.88 2493,-2083.88 2711,-2083.88 2711,-2046.88 2493,-2046.88"/>
<text text-anchor="middle" x="2602" y="-2061.68" font-family="Times,serif" font-size="14.00">vc_enable_gatk_acceleration</text>
</g>
<!-- vc_enable_gatk_acceleration&#45;&gt;run_dragen_germline_step -->
<g id="edge50" class="edge">
<title>vc_enable_gatk_acceleration&#45;&gt;run_dragen_germline_step</title>
<path fill="none" stroke="black" d="M2640.61,-2046.88C2663.65,-2036.85 2693.65,-2024.48 2721,-2015.38 3435.95,-1777.73 4325.79,-1584.52 4615.81,-1524.08"/>
<polygon fill="black" stroke="black" points="4616.79,-1527.45 4625.87,-1521.99 4615.36,-1520.6 4616.79,-1527.45"/>
</g>
<!-- vc_enable_phasing -->
<g id="node42" class="node">
<title>vc_enable_phasing</title>
<polygon fill="#94ddf4" stroke="black" points="2325.5,-2046.88 2325.5,-2083.88 2474.5,-2083.88 2474.5,-2046.88 2325.5,-2046.88"/>
<text text-anchor="middle" x="2400" y="-2061.68" font-family="Times,serif" font-size="14.00">vc_enable_phasing</text>
</g>
<!-- vc_enable_phasing&#45;&gt;run_dragen_germline_step -->
<g id="edge51" class="edge">
<title>vc_enable_phasing&#45;&gt;run_dragen_germline_step</title>
<path fill="none" stroke="black" d="M2425.45,-2046.8C2441.59,-2036.36 2463.28,-2023.58 2484,-2015.38 3265.14,-1706.32 4277.82,-1558.99 4605.03,-1517.24"/>
<polygon fill="black" stroke="black" points="4605.5,-1520.71 4614.98,-1515.97 4604.62,-1513.76 4605.5,-1520.71"/>
</g>
<!-- vc_enable_roh -->
<g id="node43" class="node">
<title>vc_enable_roh</title>
<polygon fill="#94ddf4" stroke="black" points="2190.5,-2046.88 2190.5,-2083.88 2307.5,-2083.88 2307.5,-2046.88 2190.5,-2046.88"/>
<text text-anchor="middle" x="2249" y="-2061.68" font-family="Times,serif" font-size="14.00">vc_enable_roh</text>
</g>
<!-- vc_enable_roh&#45;&gt;run_dragen_germline_step -->
<g id="edge52" class="edge">
<title>vc_enable_roh&#45;&gt;run_dragen_germline_step</title>
<path fill="none" stroke="black" d="M2268.76,-2046.75C2281.64,-2036.15 2299.31,-2023.23 2317,-2015.38 3147.13,-1647.35 4259.16,-1537.73 4604.9,-1511.51"/>
<polygon fill="black" stroke="black" points="4605.19,-1515 4614.9,-1510.76 4604.67,-1508.02 4605.19,-1515"/>
</g>
<!-- vc_enable_sex_chr_diploid -->
<g id="node44" class="node">
<title>vc_enable_sex_chr_diploid</title>
<polygon fill="#94ddf4" stroke="black" points="1969.5,-2046.88 1969.5,-2083.88 2172.5,-2083.88 2172.5,-2046.88 1969.5,-2046.88"/>
<text text-anchor="middle" x="2071" y="-2061.68" font-family="Times,serif" font-size="14.00">vc_enable_sex_chr_diploid</text>
</g>
<!-- vc_enable_sex_chr_diploid&#45;&gt;run_dragen_germline_step -->
<g id="edge53" class="edge">
<title>vc_enable_sex_chr_diploid&#45;&gt;run_dragen_germline_step</title>
<path fill="none" stroke="black" d="M2105.74,-2046.72C2127.25,-2036.37 2155.7,-2023.74 2182,-2015.38 3096.78,-1724.87 4251.9,-1562.77 4604.8,-1517.58"/>
<polygon fill="black" stroke="black" points="4605.27,-1521.04 4614.75,-1516.3 4604.39,-1514.1 4605.27,-1521.04"/>
</g>
<!-- vc_enable_vcf_output -->
<g id="node45" class="node">
<title>vc_enable_vcf_output</title>
<polygon fill="#94ddf4" stroke="black" points="1784,-2046.88 1784,-2083.88 1952,-2083.88 1952,-2046.88 1784,-2046.88"/>
<text text-anchor="middle" x="1868" y="-2061.68" font-family="Times,serif" font-size="14.00">vc_enable_vcf_output</text>
</g>
<!-- vc_enable_vcf_output&#45;&gt;run_dragen_germline_step -->
<g id="edge54" class="edge">
<title>vc_enable_vcf_output&#45;&gt;run_dragen_germline_step</title>
<path fill="none" stroke="black" d="M1895.9,-2046.83C1913.87,-2036.26 1938.07,-2023.35 1961,-2015.38 2952.9,-1670.87 4231.05,-1543.83 4604.9,-1512.63"/>
<polygon fill="black" stroke="black" points="4605.22,-1516.12 4614.9,-1511.8 4604.64,-1509.14 4605.22,-1516.12"/>
</g>
<!-- vc_haploid_call_af_threshold -->
<g id="node46" class="node">
<title>vc_haploid_call_af_threshold</title>
<polygon fill="#94ddf4" stroke="black" points="1548,-2046.88 1548,-2083.88 1766,-2083.88 1766,-2046.88 1548,-2046.88"/>
<text text-anchor="middle" x="1657" y="-2061.68" font-family="Times,serif" font-size="14.00">vc_haploid_call_af_threshold</text>
</g>
<!-- vc_haploid_call_af_threshold&#45;&gt;run_dragen_germline_step -->
<g id="edge55" class="edge">
<title>vc_haploid_call_af_threshold&#45;&gt;run_dragen_germline_step</title>
<path fill="none" stroke="black" d="M1693.45,-2046.79C1716.39,-2036.33 1746.88,-2023.56 1775,-2015.38 2854.74,-1701.48 4217.16,-1552.33 4604.77,-1514.38"/>
<polygon fill="black" stroke="black" points="4605.23,-1517.85 4614.85,-1513.4 4604.55,-1510.89 4605.23,-1517.85"/>
</g>
<!-- vc_hard_filter -->
<g id="node47" class="node">
<title>vc_hard_filter</title>
<polygon fill="#94ddf4" stroke="black" points="1416.5,-2046.88 1416.5,-2083.88 1529.5,-2083.88 1529.5,-2046.88 1416.5,-2046.88"/>
<text text-anchor="middle" x="1473" y="-2061.68" font-family="Times,serif" font-size="14.00">vc_hard_filter</text>
</g>
<!-- vc_hard_filter&#45;&gt;run_dragen_germline_step -->
<g id="edge56" class="edge">
<title>vc_hard_filter&#45;&gt;run_dragen_germline_step</title>
<path fill="none" stroke="black" d="M1491.68,-2046.67C1504.12,-2035.89 1521.38,-2022.82 1539,-2015.38 2666.38,-1539.86 4190.56,-1504.05 4604.52,-1503.56"/>
<polygon fill="black" stroke="black" points="4604.68,-1507.06 4614.68,-1503.55 4604.68,-1500.06 4604.68,-1507.06"/>
</g>
<!-- vc_max_reads_per_active_region -->
<g id="node48" class="node">
<title>vc_max_reads_per_active_region</title>
<polygon fill="#94ddf4" stroke="black" points="1150,-2046.88 1150,-2083.88 1398,-2083.88 1398,-2046.88 1150,-2046.88"/>
<text text-anchor="middle" x="1274" y="-2061.68" font-family="Times,serif" font-size="14.00">vc_max_reads_per_active_region</text>
</g>
<!-- vc_max_reads_per_active_region&#45;&gt;run_dragen_germline_step -->
<g id="edge57" class="edge">
<title>vc_max_reads_per_active_region&#45;&gt;run_dragen_germline_step</title>
<path fill="none" stroke="black" d="M1315.57,-2046.77C1341.7,-2036.31 1376.34,-2023.54 1408,-2015.38 2641.67,-1697.74 4188.49,-1549.16 4604.76,-1513.22"/>
<polygon fill="black" stroke="black" points="4605.31,-1516.69 4614.98,-1512.35 4604.71,-1509.72 4605.31,-1516.69"/>
</g>
<!-- vc_max_reads_per_raw_region -->
<g id="node49" class="node">
<title>vc_max_reads_per_raw_region</title>
<polygon fill="#94ddf4" stroke="black" points="898.5,-2046.88 898.5,-2083.88 1131.5,-2083.88 1131.5,-2046.88 898.5,-2046.88"/>
<text text-anchor="middle" x="1015" y="-2061.68" font-family="Times,serif" font-size="14.00">vc_max_reads_per_raw_region</text>
</g>
<!-- vc_max_reads_per_raw_region&#45;&gt;run_dragen_germline_step -->
<g id="edge58" class="edge">
<title>vc_max_reads_per_raw_region&#45;&gt;run_dragen_germline_step</title>
<path fill="none" stroke="black" d="M1053.4,-2046.8C1077.98,-2036.22 1110.81,-2023.3 1141,-2015.38 2479.48,-1664.32 4167.58,-1538.6 4604.77,-1510.76"/>
<polygon fill="black" stroke="black" points="4605.1,-1514.24 4614.86,-1510.12 4604.66,-1507.26 4605.1,-1514.24"/>
</g>
<!-- vc_remove_all_soft_clips -->
<g id="node50" class="node">
<title>vc_remove_all_soft_clips</title>
<polygon fill="#94ddf4" stroke="black" points="690,-2046.88 690,-2083.88 880,-2083.88 880,-2046.88 690,-2046.88"/>
<text text-anchor="middle" x="785" y="-2061.68" font-family="Times,serif" font-size="14.00">vc_remove_all_soft_clips</text>
</g>
<!-- vc_remove_all_soft_clips&#45;&gt;run_dragen_germline_step -->
<g id="edge59" class="edge">
<title>vc_remove_all_soft_clips&#45;&gt;run_dragen_germline_step</title>
<path fill="none" stroke="black" d="M816.18,-2046.77C836.57,-2036.03 864.13,-2022.96 890,-2015.38 2317.88,-1597.41 4147.06,-1520.03 4604.64,-1506.89"/>
<polygon fill="black" stroke="black" points="4604.97,-1510.39 4614.87,-1506.6 4604.77,-1503.39 4604.97,-1510.39"/>
</g>
<!-- vc_roh_blacklist_bed -->
<g id="node51" class="node">
<title>vc_roh_blacklist_bed</title>
<polygon fill="#94ddf4" stroke="black" points="508.5,-2046.88 508.5,-2083.88 671.5,-2083.88 671.5,-2046.88 508.5,-2046.88"/>
<text text-anchor="middle" x="590" y="-2061.68" font-family="Times,serif" font-size="14.00">vc_roh_blacklist_bed</text>
</g>
<!-- vc_roh_blacklist_bed&#45;&gt;run_dragen_germline_step -->
<g id="edge60" class="edge">
<title>vc_roh_blacklist_bed&#45;&gt;run_dragen_germline_step</title>
<path fill="none" stroke="black" d="M616.31,-2046.85C633.89,-2036 657.93,-2022.77 681,-2015.38 2180.64,-1534.98 4129.95,-1503.84 4604.46,-1503.74"/>
<polygon fill="black" stroke="black" points="4604.72,-1507.24 4614.72,-1503.75 4604.72,-1500.24 4604.72,-1507.24"/>
</g>
<!-- vc_target_bed -->
<g id="node52" class="node">
<title>vc_target_bed</title>
<polygon fill="#94ddf4" stroke="black" points="374,-2046.88 374,-2083.88 490,-2083.88 490,-2046.88 374,-2046.88"/>
<text text-anchor="middle" x="432" y="-2061.68" font-family="Times,serif" font-size="14.00">vc_target_bed</text>
</g>
<!-- vc_target_bed&#45;&gt;run_dragen_germline_step -->
<g id="edge61" class="edge">
<title>vc_target_bed&#45;&gt;run_dragen_germline_step</title>
<path fill="none" stroke="black" d="M450.95,-2046.68C463.79,-2035.77 481.7,-2022.54 500,-2015.38 1284.17,-1708.91 4026.39,-1542.32 4604.5,-1510.16"/>
<polygon fill="black" stroke="black" points="4605.11,-1513.63 4614.9,-1509.58 4604.72,-1506.64 4605.11,-1513.63"/>
</g>
<!-- vc_target_bed_padding -->
<g id="node53" class="node">
<title>vc_target_bed_padding</title>
<polygon fill="#94ddf4" stroke="black" points="174.5,-2046.88 174.5,-2083.88 355.5,-2083.88 355.5,-2046.88 174.5,-2046.88"/>
<text text-anchor="middle" x="265" y="-2061.68" font-family="Times,serif" font-size="14.00">vc_target_bed_padding</text>
</g>
<!-- vc_target_bed_padding&#45;&gt;run_dragen_germline_step -->
<g id="edge62" class="edge">
<title>vc_target_bed_padding&#45;&gt;run_dragen_germline_step</title>
<path fill="none" stroke="black" d="M294.12,-2046.83C313.52,-2035.98 339.96,-2022.76 365,-2015.38 2000.76,-1533.81 4108.9,-1503.86 4604.42,-1503.81"/>
<polygon fill="black" stroke="black" points="4604.77,-1507.31 4614.77,-1503.81 4604.77,-1500.31 4604.77,-1507.31"/>
</g>
<!-- vc_target_coverage -->
<g id="node54" class="node">
<title>vc_target_coverage</title>
<polygon fill="#94ddf4" stroke="black" points="9130.5,-2046.88 9130.5,-2083.88 9285.5,-2083.88 9285.5,-2046.88 9130.5,-2046.88"/>
<text text-anchor="middle" x="9208" y="-2061.68" font-family="Times,serif" font-size="14.00">vc_target_coverage</text>
</g>
<!-- vc_target_coverage&#45;&gt;run_dragen_germline_step -->
<g id="edge63" class="edge">
<title>vc_target_coverage&#45;&gt;run_dragen_germline_step</title>
<path fill="none" stroke="black" d="M9182.98,-2046.74C9166.23,-2035.85 9143.26,-2022.62 9121,-2015.38 8281.33,-1742.56 5412.24,-1548.72 4819.62,-1511.07"/>
<polygon fill="black" stroke="black" points="4819.58,-1507.56 4809.38,-1510.42 4819.14,-1514.54 4819.58,-1507.56"/>
</g>
<!-- dragen_bam_out -->
<g id="node55" class="node">
<title>dragen_bam_out</title>
<polygon fill="#94ddf4" stroke="black" points="4322,-404.88 4322,-441.88 4456,-441.88 4456,-404.88 4322,-404.88"/>
<text text-anchor="middle" x="4389" y="-419.68" font-family="Times,serif" font-size="14.00">dragen_bam_out</text>
</g>
<!-- dragen_germline_output_directory -->
<g id="node56" class="node">
<title>dragen_germline_output_directory</title>
<polygon fill="#94ddf4" stroke="black" points="4474.5,-404.88 4474.5,-441.88 4737.5,-441.88 4737.5,-404.88 4474.5,-404.88"/>
<text text-anchor="middle" x="4606" y="-419.68" font-family="Times,serif" font-size="14.00">dragen_germline_output_directory</text>
</g>
<!-- dragen_vcf_out -->
<g id="node57" class="node">
<title>dragen_vcf_out</title>
<polygon fill="#94ddf4" stroke="black" points="4755.5,-404.88 4755.5,-441.88 4880.5,-441.88 4880.5,-404.88 4755.5,-404.88"/>
<text text-anchor="middle" x="4818" y="-419.68" font-family="Times,serif" font-size="14.00">dragen_vcf_out</text>
</g>
<!-- multiqc_output_directory -->
<g id="node58" class="node">
<title>multiqc_output_directory</title>
<polygon fill="#94ddf4" stroke="black" points="4106.5,-404.88 4106.5,-441.88 4303.5,-441.88 4303.5,-404.88 4106.5,-404.88"/>
<text text-anchor="middle" x="4205" y="-419.68" font-family="Times,serif" font-size="14.00">multiqc_output_directory</text>
</g>
<!-- create_dummy_file_step -->
<g id="node59" class="node">
<title>create_dummy_file_step</title>
<polygon fill="lightgoldenrodyellow" stroke="black" points="132.5,-1484.88 132.5,-1521.88 393.5,-1521.88 393.5,-1484.88 132.5,-1484.88"/>
<text text-anchor="middle" x="263" y="-1499.68" font-family="Times,serif" font-size="14.00">custom&#45;create&#45;dummy&#45;file v(1.0.0)</text>
</g>
<!-- create_dummy_file_step&#45;&gt;dragen_qc_step -->
<g id="edge1" class="edge">
<title>create_dummy_file_step&#45;&gt;dragen_qc_step</title>
<path fill="none" stroke="black" d="M257.21,-1484.79C231.37,-1406.25 126.46,-1087.37 94.98,-991.67"/>
<polygon fill="black" stroke="black" points="98.28,-990.52 91.83,-982.12 91.63,-992.71 98.28,-990.52"/>
</g>
<!-- dragen_qc_step&#45;&gt;multiqc_output_directory -->
<g id="edge2" class="edge">
<title>dragen_qc_step&#45;&gt;multiqc_output_directory</title>
<path fill="none" stroke="black" d="M155.76,-953.27C640,-890.02 3498.67,-516.64 4095.73,-438.66"/>
<polygon fill="black" stroke="black" points="4096.59,-442.07 4106.05,-437.31 4095.68,-435.13 4096.59,-442.07"/>
</g>
<!-- run_dragen_germline_step&#45;&gt;dragen_bam_out -->
<g id="edge4" class="edge">
<title>run_dragen_germline_step&#45;&gt;dragen_bam_out</title>
<path fill="none" stroke="black" d="M4706.66,-1484.57C4668.98,-1358.8 4443.13,-605.05 4397.16,-451.63"/>
<polygon fill="black" stroke="black" points="4400.51,-450.59 4394.28,-442.02 4393.8,-452.6 4400.51,-450.59"/>
</g>
<!-- run_dragen_germline_step&#45;&gt;dragen_germline_output_directory -->
<g id="edge5" class="edge">
<title>run_dragen_germline_step&#45;&gt;dragen_germline_output_directory</title>
<path fill="none" stroke="black" d="M4710.25,-1484.57C4697.89,-1358.93 4623.91,-606.55 4608.72,-452.09"/>
<polygon fill="black" stroke="black" points="4612.2,-451.63 4607.73,-442.02 4605.23,-452.31 4612.2,-451.63"/>
</g>
<!-- run_dragen_germline_step&#45;&gt;dragen_vcf_out -->
<g id="edge6" class="edge">
<title>run_dragen_germline_step&#45;&gt;dragen_vcf_out</title>
<path fill="none" stroke="black" d="M4713.75,-1484.57C4726.11,-1358.93 4800.09,-606.55 4815.28,-452.09"/>
<polygon fill="black" stroke="black" points="4818.77,-452.31 4816.27,-442.02 4811.8,-451.63 4818.77,-452.31"/>
</g>
<!-- run_dragen_germline_step&#45;&gt;dragen_qc_step -->
<g id="edge3" class="edge">
<title>run_dragen_germline_step&#45;&gt;dragen_qc_step</title>
<path fill="none" stroke="black" d="M4614.85,-1491.09C4005.89,-1420.26 722.72,-1038.43 166.18,-973.71"/>
<polygon fill="black" stroke="black" points="166.19,-970.19 155.85,-972.51 165.38,-977.14 166.19,-970.19"/>
</g>
<!-- \n -->
<g id="node62" class="node">
<title>\n</title>
<ellipse fill="none" stroke="black" cx="9331" cy="-2065.38" rx="27" ry="18"/>
</g>
</g>
</svg>
