<?xml version="1.0" encoding="UTF-8" standalone="no"?>
<!DOCTYPE svg PUBLIC "-//W3C//DTD SVG 1.1//EN"
 "http://www.w3.org/Graphics/SVG/1.1/DTD/svg11.dtd">
<!-- Generated by graphviz version 2.43.0 (0)
 -->
<!-- Title: G Pages: 1 -->
<svg width="9363pt" height="2347pt"
 viewBox="0.00 0.00 9362.50 2346.50" xmlns="http://www.w3.org/2000/svg" xmlns:xlink="http://www.w3.org/1999/xlink">
<g id="graph0" class="graph" transform="scale(1 1) rotate(0) translate(4 2342.5)">
<title>G</title>
<polygon fill="#eeeeee" stroke="transparent" points="-4,4 -4,-2342.5 9358.5,-2342.5 9358.5,4 -4,4"/>
<g id="clust1" class="cluster">
<title>cluster_inputs</title>
<polygon fill="#eeeeee" stroke="black" stroke-dasharray="5,2" points="8,-1713.43 8,-2279.67 9111,-2279.67 9111,-1713.43 8,-1713.43"/>
<text text-anchor="middle" x="9044.5" y="-1721.23" font-family="Times,serif" font-size="14.00">Workflow Inputs</text>
</g>
<g id="clust2" class="cluster">
<title>cluster_outputs</title>
<polygon fill="#eeeeee" stroke="black" stroke-dasharray="5,2" points="4800,-58.83 4800,-625.07 5590,-625.07 5590,-58.83 4800,-58.83"/>
<text text-anchor="middle" x="5517.5" y="-66.63" font-family="Times,serif" font-size="14.00">Workflow Outputs</text>
</g>
<!-- output_prefix -->
<g id="node1" class="node">
<title>output_prefix</title>
<polygon fill="#94ddf4" stroke="black" points="8991,-2062.33 8991,-2099.33 9103,-2099.33 9103,-2062.33 8991,-2062.33"/>
<text text-anchor="middle" x="9047" y="-2077.13" font-family="Times,serif" font-size="14.00">output_prefix</text>
</g>
<!-- run_dragen_germline_step -->
<g id="node58" class="node">
<title>run_dragen_germline_step</title>
<polygon fill="lightgoldenrodyellow" stroke="black" points="4908,-1496.33 4908,-1533.33 5102,-1533.33 5102,-1496.33 4908,-1496.33"/>
<text text-anchor="middle" x="5005" y="-1511.13" font-family="Times,serif" font-size="14.00">dragen&#45;germline v(4.2.4)</text>
</g>
<!-- output_prefix&#45;&gt;run_dragen_germline_step -->
<g id="edge7" class="edge">
<title>output_prefix&#45;&gt;run_dragen_germline_step</title>
<path fill="none" stroke="black" d="M9021.32,-2062.17C9007.77,-2051.27 8990.66,-2038.04 8973,-2030.83 8239.8,-1731.7 5669.44,-1557.54 5112.11,-1522.44"/>
<polygon fill="black" stroke="black" points="5112.27,-1518.95 5102.07,-1521.81 5111.83,-1525.93 5112.27,-1518.95"/>
</g>
<!-- output_prefix&#45;&gt;run_dragen_germline_step -->
<g id="edge8" class="edge">
<title>output_prefix&#45;&gt;run_dragen_germline_step</title>
<path fill="none" stroke="black" d="M9036.44,-2061.93C9025.52,-2051.07 9008.53,-2037.98 8991,-2030.83 8255.6,-1730.8 5671.98,-1556.49 5112.4,-1522.13"/>
<polygon fill="black" stroke="black" points="5112.52,-1518.63 5102.32,-1521.51 5112.09,-1525.62 5112.52,-1518.63"/>
</g>
<!-- dragen_qc_step -->
<g id="node59" class="node">
<title>dragen_qc_step</title>
<polygon fill="lightgoldenrodyellow" stroke="black" points="8977.5,-952.33 8977.5,-989.33 9116.5,-989.33 9116.5,-952.33 8977.5,-952.33"/>
<text text-anchor="middle" x="9047" y="-967.13" font-family="Times,serif" font-size="14.00">multiqc v(1.14.0)</text>
</g>
<!-- output_prefix&#45;&gt;dragen_qc_step -->
<g id="edge9" class="edge">
<title>output_prefix&#45;&gt;dragen_qc_step</title>
<path fill="none" stroke="black" d="M9043.24,-2061.98C9030.55,-1934.08 9030.26,-1157.8 9042.36,-999.86"/>
<polygon fill="black" stroke="black" points="9045.88,-999.84 9043.26,-989.57 9038.9,-999.23 9045.88,-999.84"/>
</g>
<!-- output_prefix&#45;&gt;dragen_qc_step -->
<g id="edge10" class="edge">
<title>output_prefix&#45;&gt;dragen_qc_step</title>
<path fill="none" stroke="black" d="M9047,-2061.98C9047,-1934.08 9047,-1157.8 9047,-999.86"/>
<polygon fill="black" stroke="black" points="9050.5,-999.57 9047,-989.57 9043.5,-999.57 9050.5,-999.57"/>
</g>
<!-- output_prefix&#45;&gt;dragen_qc_step -->
<g id="edge11" class="edge">
<title>output_prefix&#45;&gt;dragen_qc_step</title>
<path fill="none" stroke="black" d="M9050.76,-2061.98C9063.45,-1934.08 9063.74,-1157.8 9051.64,-999.86"/>
<polygon fill="black" stroke="black" points="9055.1,-999.23 9050.74,-989.57 9048.12,-999.84 9055.1,-999.23"/>
</g>
<!-- bam_input -->
<g id="node2" class="node">
<title>bam_input</title>
<polygon fill="#94ddf4" stroke="black" points="8881,-2062.33 8881,-2099.33 8973,-2099.33 8973,-2062.33 8881,-2062.33"/>
<text text-anchor="middle" x="8927" y="-2077.13" font-family="Times,serif" font-size="14.00">bam_input</text>
</g>
<!-- bam_input&#45;&gt;run_dragen_germline_step -->
<g id="edge12" class="edge">
<title>bam_input&#45;&gt;run_dragen_germline_step</title>
<path fill="none" stroke="black" d="M8912.04,-2061.92C8901.92,-2051.07 8887.58,-2037.98 8872,-2030.83 8171.99,-1709.72 5663.89,-1552.7 5112.64,-1521.65"/>
<polygon fill="black" stroke="black" points="5112.5,-1518.13 5102.32,-1521.07 5112.1,-1525.12 5112.5,-1518.13"/>
</g>
<!-- cnv_enable_self_normalization -->
<g id="node3" class="node">
<title>cnv_enable_self_normalization</title>
<polygon fill="#94ddf4" stroke="black" points="8629.5,-2062.33 8629.5,-2099.33 8862.5,-2099.33 8862.5,-2062.33 8629.5,-2062.33"/>
<text text-anchor="middle" x="8746" y="-2077.13" font-family="Times,serif" font-size="14.00">cnv_enable_self_normalization</text>
</g>
<!-- cnv_enable_self_normalization&#45;&gt;run_dragen_germline_step -->
<g id="edge13" class="edge">
<title>cnv_enable_self_normalization&#45;&gt;run_dragen_germline_step</title>
<path fill="none" stroke="black" d="M8707.92,-2062.23C8683.55,-2051.64 8650.98,-2038.73 8621,-2030.83 7265.01,-1673.69 5553.53,-1549.28 5112.49,-1522.01"/>
<polygon fill="black" stroke="black" points="5112.51,-1518.51 5102.31,-1521.39 5112.08,-1525.49 5112.51,-1518.51"/>
</g>
<!-- cram_input -->
<g id="node4" class="node">
<title>cram_input</title>
<polygon fill="#94ddf4" stroke="black" points="8514.5,-2062.33 8514.5,-2099.33 8611.5,-2099.33 8611.5,-2062.33 8514.5,-2062.33"/>
<text text-anchor="middle" x="8563" y="-2077.13" font-family="Times,serif" font-size="14.00">cram_input</text>
</g>
<!-- cram_input&#45;&gt;run_dragen_germline_step -->
<g id="edge14" class="edge">
<title>cram_input&#45;&gt;run_dragen_germline_step</title>
<path fill="none" stroke="black" d="M8547.01,-2062C8536.24,-2051.18 8521.1,-2038.09 8505,-2030.83 7872.54,-1745.51 5630.2,-1562.67 5112.29,-1523.66"/>
<polygon fill="black" stroke="black" points="5112.44,-1520.17 5102.21,-1522.91 5111.92,-1527.15 5112.44,-1520.17"/>
</g>
<!-- cram_reference -->
<g id="node5" class="node">
<title>cram_reference</title>
<polygon fill="#94ddf4" stroke="black" points="8368,-2062.33 8368,-2099.33 8496,-2099.33 8496,-2062.33 8368,-2062.33"/>
<text text-anchor="middle" x="8432" y="-2077.13" font-family="Times,serif" font-size="14.00">cram_reference</text>
</g>
<!-- cram_reference&#45;&gt;run_dragen_germline_step -->
<g id="edge15" class="edge">
<title>cram_reference&#45;&gt;run_dragen_germline_step</title>
<path fill="none" stroke="black" d="M8411.05,-2062.11C8397.16,-2051.34 8378.06,-2038.26 8359,-2030.83 7150.32,-1559.58 5539.28,-1518 5112.46,-1515.58"/>
<polygon fill="black" stroke="black" points="5112.31,-1512.08 5102.29,-1515.53 5112.27,-1519.08 5112.31,-1512.08"/>
</g>
<!-- dbsnp_annotation -->
<g id="node6" class="node">
<title>dbsnp_annotation</title>
<polygon fill="#94ddf4" stroke="black" points="8206.5,-2062.33 8206.5,-2099.33 8349.5,-2099.33 8349.5,-2062.33 8206.5,-2062.33"/>
<text text-anchor="middle" x="8278" y="-2077.13" font-family="Times,serif" font-size="14.00">dbsnp_annotation</text>
</g>
<!-- dbsnp_annotation&#45;&gt;run_dragen_germline_step -->
<g id="edge16" class="edge">
<title>dbsnp_annotation&#45;&gt;run_dragen_germline_step</title>
<path fill="none" stroke="black" d="M8254.43,-2062.23C8238.9,-2051.49 8217.67,-2038.42 8197,-2030.83 7041.86,-1606.55 5524.3,-1531.27 5112.16,-1518.39"/>
<polygon fill="black" stroke="black" points="5112.15,-1514.89 5102.04,-1518.08 5111.93,-1521.89 5112.15,-1514.89"/>
</g>
<!-- dedup_min_qual -->
<g id="node7" class="node">
<title>dedup_min_qual</title>
<polygon fill="#94ddf4" stroke="black" points="8056,-2062.33 8056,-2099.33 8188,-2099.33 8188,-2062.33 8056,-2062.33"/>
<text text-anchor="middle" x="8122" y="-2077.13" font-family="Times,serif" font-size="14.00">dedup_min_qual</text>
</g>
<!-- dedup_min_qual&#45;&gt;run_dragen_germline_step -->
<g id="edge17" class="edge">
<title>dedup_min_qual&#45;&gt;run_dragen_germline_step</title>
<path fill="none" stroke="black" d="M8100.36,-2062.23C8086.05,-2051.5 8066.41,-2038.43 8047,-2030.83 6957.85,-1604.36 5513.4,-1530.73 5112.27,-1518.3"/>
<polygon fill="black" stroke="black" points="5112.24,-1514.79 5102.13,-1517.99 5112.02,-1521.79 5112.24,-1514.79"/>
</g>
<!-- enable_cnv -->
<g id="node8" class="node">
<title>enable_cnv</title>
<polygon fill="#94ddf4" stroke="black" points="7942.5,-2062.33 7942.5,-2099.33 8037.5,-2099.33 8037.5,-2062.33 7942.5,-2062.33"/>
<text text-anchor="middle" x="7990" y="-2077.13" font-family="Times,serif" font-size="14.00">enable_cnv</text>
</g>
<!-- enable_cnv&#45;&gt;run_dragen_germline_step -->
<g id="edge18" class="edge">
<title>enable_cnv&#45;&gt;run_dragen_germline_step</title>
<path fill="none" stroke="black" d="M7974.61,-2062.14C7964.23,-2051.38 7949.61,-2038.3 7934,-2030.83 7414.64,-1782.23 5576.9,-1575.89 5112.32,-1526.88"/>
<polygon fill="black" stroke="black" points="5112.57,-1523.39 5102.26,-1525.82 5111.84,-1530.35 5112.57,-1523.39"/>
</g>
<!-- enable_duplicate_marking -->
<g id="node9" class="node">
<title>enable_duplicate_marking</title>
<polygon fill="#94ddf4" stroke="black" points="7721.5,-2062.33 7721.5,-2099.33 7924.5,-2099.33 7924.5,-2062.33 7721.5,-2062.33"/>
<text text-anchor="middle" x="7823" y="-2077.13" font-family="Times,serif" font-size="14.00">enable_duplicate_marking</text>
</g>
<!-- enable_duplicate_marking&#45;&gt;run_dragen_germline_step -->
<g id="edge19" class="edge">
<title>enable_duplicate_marking&#45;&gt;run_dragen_germline_step</title>
<path fill="none" stroke="black" d="M7788.79,-2062.3C7767.23,-2051.87 7738.55,-2039.1 7712,-2030.83 6727.19,-1724.19 5481.09,-1568.76 5112.36,-1527.35"/>
<polygon fill="black" stroke="black" points="5112.57,-1523.85 5102.24,-1526.21 5111.79,-1530.8 5112.57,-1523.85"/>
</g>
<!-- enable_hla -->
<g id="node10" class="node">
<title>enable_hla</title>
<polygon fill="#94ddf4" stroke="black" points="7611,-2062.33 7611,-2099.33 7703,-2099.33 7703,-2062.33 7611,-2062.33"/>
<text text-anchor="middle" x="7657" y="-2077.13" font-family="Times,serif" font-size="14.00">enable_hla</text>
</g>
<!-- enable_hla&#45;&gt;run_dragen_germline_step -->
<g id="edge20" class="edge">
<title>enable_hla&#45;&gt;run_dragen_germline_step</title>
<path fill="none" stroke="black" d="M7641.89,-2062.25C7631.69,-2051.53 7617.34,-2038.47 7602,-2030.83 6714.77,-1589.3 5479.91,-1526.19 5112.3,-1517.27"/>
<polygon fill="black" stroke="black" points="5112.28,-1513.77 5102.2,-1517.03 5112.12,-1520.77 5112.28,-1513.77"/>
</g>
<!-- enable_map_align_output -->
<g id="node11" class="node">
<title>enable_map_align_output</title>
<polygon fill="#94ddf4" stroke="black" points="7395.5,-2062.33 7395.5,-2099.33 7592.5,-2099.33 7592.5,-2062.33 7395.5,-2062.33"/>
<text text-anchor="middle" x="7494" y="-2077.13" font-family="Times,serif" font-size="14.00">enable_map_align_output</text>
</g>
<!-- enable_map_align_output&#45;&gt;run_dragen_germline_step -->
<g id="edge21" class="edge">
<title>enable_map_align_output&#45;&gt;run_dragen_germline_step</title>
<path fill="none" stroke="black" d="M7460.21,-2062.25C7439.29,-2051.93 7411.61,-2039.3 7386,-2030.83 6531.36,-1748.11 5451.92,-1579.51 5112.3,-1530.7"/>
<polygon fill="black" stroke="black" points="5112.62,-1527.21 5102.23,-1529.25 5111.63,-1534.14 5112.62,-1527.21"/>
</g>
<!-- enable_sv -->
<g id="node12" class="node">
<title>enable_sv</title>
<polygon fill="#94ddf4" stroke="black" points="7291,-2062.33 7291,-2099.33 7377,-2099.33 7377,-2062.33 7291,-2062.33"/>
<text text-anchor="middle" x="7334" y="-2077.13" font-family="Times,serif" font-size="14.00">enable_sv</text>
</g>
<!-- enable_sv&#45;&gt;run_dragen_germline_step -->
<g id="edge22" class="edge">
<title>enable_sv&#45;&gt;run_dragen_germline_step</title>
<path fill="none" stroke="black" d="M7319.39,-2061.89C7309.83,-2051.31 7296.45,-2038.52 7282,-2030.83 6520.24,-1625.43 5450.58,-1538.13 5112.07,-1520.23"/>
<polygon fill="black" stroke="black" points="5112.2,-1516.74 5102.03,-1519.71 5111.83,-1523.73 5112.2,-1516.74"/>
</g>
<!-- fastq_list -->
<g id="node13" class="node">
<title>fastq_list</title>
<polygon fill="#94ddf4" stroke="black" points="7191,-2062.33 7191,-2099.33 7273,-2099.33 7273,-2062.33 7191,-2062.33"/>
<text text-anchor="middle" x="7232" y="-2077.13" font-family="Times,serif" font-size="14.00">fastq_list</text>
</g>
<!-- fastq_list&#45;&gt;run_dragen_germline_step -->
<g id="edge23" class="edge">
<title>fastq_list&#45;&gt;run_dragen_germline_step</title>
<path fill="none" stroke="black" d="M7218.06,-2061.93C7208.9,-2051.36 7196.05,-2038.58 7182,-2030.83 6461.17,-1633.48 5441.84,-1541.07 5112.25,-1521.04"/>
<polygon fill="black" stroke="black" points="5112.42,-1517.54 5102.23,-1520.44 5112,-1524.53 5112.42,-1517.54"/>
</g>
<!-- fastq_list_rows -->
<g id="node14" class="node">
<title>fastq_list_rows</title>
<polygon fill="#94ddf4" stroke="black" points="7049.5,-2062.33 7049.5,-2099.33 7172.5,-2099.33 7172.5,-2062.33 7049.5,-2062.33"/>
<text text-anchor="middle" x="7111" y="-2077.13" font-family="Times,serif" font-size="14.00">fastq_list_rows</text>
</g>
<!-- fastq_list_rows&#45;&gt;run_dragen_germline_step -->
<g id="edge24" class="edge">
<title>fastq_list_rows&#45;&gt;run_dragen_germline_step</title>
<path fill="none" stroke="black" d="M7089.83,-2062.23C7076.32,-2051.77 7058,-2039 7040,-2030.83 6344.13,-1715.08 5422.97,-1571.07 5112.41,-1529.3"/>
<polygon fill="black" stroke="black" points="5112.44,-1525.77 5102.07,-1527.91 5111.51,-1532.71 5112.44,-1525.77"/>
</g>
<!-- hla_allele_frequency_file -->
<g id="node15" class="node">
<title>hla_allele_frequency_file</title>
<polygon fill="#94ddf4" stroke="black" points="6841,-2062.33 6841,-2099.33 7031,-2099.33 7031,-2062.33 6841,-2062.33"/>
<text text-anchor="middle" x="6936" y="-2077.13" font-family="Times,serif" font-size="14.00">hla_allele_frequency_file</text>
</g>
<!-- hla_allele_frequency_file&#45;&gt;run_dragen_germline_step -->
<g id="edge25" class="edge">
<title>hla_allele_frequency_file&#45;&gt;run_dragen_germline_step</title>
<path fill="none" stroke="black" d="M6902.42,-2062.27C6882.34,-2052.21 6856.12,-2039.84 6832,-2030.83 6181.27,-1787.73 5363.49,-1595.8 5094.93,-1535.6"/>
<polygon fill="black" stroke="black" points="5095.37,-1532.11 5084.85,-1533.34 5093.84,-1538.94 5095.37,-1532.11"/>
</g>
<!-- hla_bed_file -->
<g id="node16" class="node">
<title>hla_bed_file</title>
<polygon fill="#94ddf4" stroke="black" points="6723,-2062.33 6723,-2099.33 6823,-2099.33 6823,-2062.33 6723,-2062.33"/>
<text text-anchor="middle" x="6773" y="-2077.13" font-family="Times,serif" font-size="14.00">hla_bed_file</text>
</g>
<!-- hla_bed_file&#45;&gt;run_dragen_germline_step -->
<g id="edge26" class="edge">
<title>hla_bed_file&#45;&gt;run_dragen_germline_step</title>
<path fill="none" stroke="black" d="M6755.53,-2062.09C6744.46,-2051.72 6729.37,-2039.08 6714,-2030.83 6152.76,-1729.39 5390.79,-1579.97 5112.44,-1532.81"/>
<polygon fill="black" stroke="black" points="5112.78,-1529.32 5102.34,-1531.11 5111.62,-1536.22 5112.78,-1529.32"/>
</g>
<!-- hla_min_reads -->
<g id="node17" class="node">
<title>hla_min_reads</title>
<polygon fill="#94ddf4" stroke="black" points="6585.5,-2062.33 6585.5,-2099.33 6704.5,-2099.33 6704.5,-2062.33 6585.5,-2062.33"/>
<text text-anchor="middle" x="6645" y="-2077.13" font-family="Times,serif" font-size="14.00">hla_min_reads</text>
</g>
<!-- hla_min_reads&#45;&gt;run_dragen_germline_step -->
<g id="edge27" class="edge">
<title>hla_min_reads&#45;&gt;run_dragen_germline_step</title>
<path fill="none" stroke="black" d="M6623.7,-2062.16C6610.58,-2051.93 6593.05,-2039.43 6576,-2030.83 6044.87,-1762.94 5344.06,-1591.27 5096.42,-1535.6"/>
<polygon fill="black" stroke="black" points="5096.91,-1532.12 5086.39,-1533.35 5095.38,-1538.95 5096.91,-1532.12"/>
</g>
<!-- hla_reference_file -->
<g id="node18" class="node">
<title>hla_reference_file</title>
<polygon fill="#94ddf4" stroke="black" points="6425,-2062.33 6425,-2099.33 6567,-2099.33 6567,-2062.33 6425,-2062.33"/>
<text text-anchor="middle" x="6496" y="-2077.13" font-family="Times,serif" font-size="14.00">hla_reference_file</text>
</g>
<!-- hla_reference_file&#45;&gt;run_dragen_germline_step -->
<g id="edge28" class="edge">
<title>hla_reference_file&#45;&gt;run_dragen_germline_step</title>
<path fill="none" stroke="black" d="M6470.08,-2062.13C6454.77,-2052.14 6434.77,-2039.89 6416,-2030.83 5921.59,-1792.15 5286.07,-1597.74 5075.93,-1536.21"/>
<polygon fill="black" stroke="black" points="5076.82,-1532.82 5066.24,-1533.38 5074.86,-1539.54 5076.82,-1532.82"/>
</g>
<!-- hla_tiebreaker_threshold -->
<g id="node19" class="node">
<title>hla_tiebreaker_threshold</title>
<polygon fill="#94ddf4" stroke="black" points="6213,-2062.33 6213,-2099.33 6407,-2099.33 6407,-2062.33 6213,-2062.33"/>
<text text-anchor="middle" x="6310" y="-2077.13" font-family="Times,serif" font-size="14.00">hla_tiebreaker_threshold</text>
</g>
<!-- hla_tiebreaker_threshold&#45;&gt;run_dragen_germline_step -->
<g id="edge29" class="edge">
<title>hla_tiebreaker_threshold&#45;&gt;run_dragen_germline_step</title>
<path fill="none" stroke="black" d="M6272.34,-2062.12C6252.14,-2052.69 6226.78,-2040.98 6204,-2030.83 5762.23,-1833.89 5223.39,-1607.25 5056.64,-1537.42"/>
<polygon fill="black" stroke="black" points="5057.7,-1534.07 5047.13,-1533.43 5055,-1540.52 5057.7,-1534.07"/>
</g>
<!-- hla_zygosity_threshold -->
<g id="node20" class="node">
<title>hla_zygosity_threshold</title>
<polygon fill="#94ddf4" stroke="black" points="6015.5,-2062.33 6015.5,-2099.33 6194.5,-2099.33 6194.5,-2062.33 6015.5,-2062.33"/>
<text text-anchor="middle" x="6105" y="-2077.13" font-family="Times,serif" font-size="14.00">hla_zygosity_threshold</text>
</g>
<!-- hla_zygosity_threshold&#45;&gt;run_dragen_germline_step -->
<g id="edge30" class="edge">
<title>hla_zygosity_threshold&#45;&gt;run_dragen_germline_step</title>
<path fill="none" stroke="black" d="M6070.57,-2062.18C5909.15,-1979.41 5227.67,-1630 5048.37,-1538.07"/>
<polygon fill="black" stroke="black" points="5049.73,-1534.83 5039.24,-1533.38 5046.54,-1541.06 5049.73,-1534.83"/>
</g>
<!-- lic_instance_id_location -->
<g id="node21" class="node">
<title>lic_instance_id_location</title>
<polygon fill="#94ddf4" stroke="black" points="5814.5,-2062.33 5814.5,-2099.33 5997.5,-2099.33 5997.5,-2062.33 5814.5,-2062.33"/>
<text text-anchor="middle" x="5906" y="-2077.13" font-family="Times,serif" font-size="14.00">lic_instance_id_location</text>
</g>
<!-- lic_instance_id_location&#45;&gt;run_dragen_germline_step -->
<g id="edge31" class="edge">
<title>lic_instance_id_location&#45;&gt;run_dragen_germline_step</title>
<path fill="none" stroke="black" d="M5877.8,-2062.18C5745.97,-1979.66 5190.71,-1632.08 5041.85,-1538.9"/>
<polygon fill="black" stroke="black" points="5043.38,-1535.72 5033.04,-1533.38 5039.66,-1541.66 5043.38,-1535.72"/>
</g>
<!-- qc_coverage_ignore_overlaps -->
<g id="node22" class="node">
<title>qc_coverage_ignore_overlaps</title>
<polygon fill="#94ddf4" stroke="black" points="5572,-2062.33 5572,-2099.33 5796,-2099.33 5796,-2062.33 5572,-2062.33"/>
<text text-anchor="middle" x="5684" y="-2077.13" font-family="Times,serif" font-size="14.00">qc_coverage_ignore_overlaps</text>
</g>
<!-- qc_coverage_ignore_overlaps&#45;&gt;run_dragen_germline_step -->
<g id="edge32" class="edge">
<title>qc_coverage_ignore_overlaps&#45;&gt;run_dragen_germline_step</title>
<path fill="none" stroke="black" d="M5662.56,-2062.02C5563.26,-1979.54 5148.14,-1634.73 5034.1,-1540"/>
<polygon fill="black" stroke="black" points="5036.04,-1537.06 5026.11,-1533.37 5031.57,-1542.45 5036.04,-1537.06"/>
</g>
<!-- qc_coverage_region_1 -->
<g id="node23" class="node">
<title>qc_coverage_region_1</title>
<polygon fill="#94ddf4" stroke="black" points="5380.5,-2062.33 5380.5,-2099.33 5553.5,-2099.33 5553.5,-2062.33 5380.5,-2062.33"/>
<text text-anchor="middle" x="5467" y="-2077.13" font-family="Times,serif" font-size="14.00">qc_coverage_region_1</text>
</g>
<!-- qc_coverage_region_1&#45;&gt;run_dragen_germline_step -->
<g id="edge33" class="edge">
<title>qc_coverage_region_1&#45;&gt;run_dragen_germline_step</title>
<path fill="none" stroke="black" d="M5452.41,-2062.02C5385.12,-1979.87 5104.65,-1637.48 5025.74,-1541.15"/>
<polygon fill="black" stroke="black" points="5028.41,-1538.88 5019.36,-1533.37 5022.99,-1543.32 5028.41,-1538.88"/>
</g>
<!-- qc_coverage_region_2 -->
<g id="node24" class="node">
<title>qc_coverage_region_2</title>
<polygon fill="#94ddf4" stroke="black" points="5189.5,-2062.33 5189.5,-2099.33 5362.5,-2099.33 5362.5,-2062.33 5189.5,-2062.33"/>
<text text-anchor="middle" x="5276" y="-2077.13" font-family="Times,serif" font-size="14.00">qc_coverage_region_2</text>
</g>
<!-- qc_coverage_region_2&#45;&gt;run_dragen_germline_step -->
<g id="edge34" class="edge">
<title>qc_coverage_region_2&#45;&gt;run_dragen_germline_step</title>
<path fill="none" stroke="black" d="M5267.44,-2062.02C5228.17,-1980.29 5065.1,-1640.92 5017.87,-1542.62"/>
<polygon fill="black" stroke="black" points="5020.91,-1540.86 5013.43,-1533.37 5014.6,-1543.89 5020.91,-1540.86"/>
</g>
<!-- qc_coverage_region_3 -->
<g id="node25" class="node">
<title>qc_coverage_region_3</title>
<polygon fill="#94ddf4" stroke="black" points="4998.5,-2062.33 4998.5,-2099.33 5171.5,-2099.33 5171.5,-2062.33 4998.5,-2062.33"/>
<text text-anchor="middle" x="5085" y="-2077.13" font-family="Times,serif" font-size="14.00">qc_coverage_region_3</text>
</g>
<!-- qc_coverage_region_3&#45;&gt;run_dragen_germline_step -->
<g id="edge35" class="edge">
<title>qc_coverage_region_3&#45;&gt;run_dragen_germline_step</title>
<path fill="none" stroke="black" d="M5082.47,-2062.02C5070.92,-1980.53 5023.03,-1642.97 5008.93,-1543.52"/>
<polygon fill="black" stroke="black" points="5012.36,-1542.77 5007.49,-1533.37 5005.43,-1543.76 5012.36,-1542.77"/>
</g>
<!-- reference_tar -->
<g id="node26" class="node">
<title>reference_tar</title>
<polygon fill="#94ddf4" stroke="black" points="4867.5,-2062.33 4867.5,-2099.33 4980.5,-2099.33 4980.5,-2062.33 4867.5,-2062.33"/>
<text text-anchor="middle" x="4924" y="-2077.13" font-family="Times,serif" font-size="14.00">reference_tar</text>
</g>
<!-- reference_tar&#45;&gt;run_dragen_germline_step -->
<g id="edge36" class="edge">
<title>reference_tar&#45;&gt;run_dragen_germline_step</title>
<path fill="none" stroke="black" d="M4926.56,-2062.02C4938.26,-1980.53 4986.74,-1642.97 5001.02,-1543.52"/>
<polygon fill="black" stroke="black" points="5004.52,-1543.76 5002.48,-1533.37 4997.6,-1542.77 5004.52,-1543.76"/>
</g>
<!-- sample_sex -->
<g id="node27" class="node">
<title>sample_sex</title>
<polygon fill="#94ddf4" stroke="black" points="4751,-2062.33 4751,-2099.33 4849,-2099.33 4849,-2062.33 4751,-2062.33"/>
<text text-anchor="middle" x="4800" y="-2077.13" font-family="Times,serif" font-size="14.00">sample_sex</text>
</g>
<!-- sample_sex&#45;&gt;run_dragen_germline_step -->
<g id="edge37" class="edge">
<title>sample_sex&#45;&gt;run_dragen_germline_step</title>
<path fill="none" stroke="black" d="M4806.47,-2062.02C4836.15,-1980.37 4959.28,-1641.6 4995.15,-1542.92"/>
<polygon fill="black" stroke="black" points="4998.5,-1543.96 4998.63,-1533.37 4991.92,-1541.57 4998.5,-1543.96"/>
</g>
<!-- sv_call_regions_bed -->
<g id="node28" class="node">
<title>sv_call_regions_bed</title>
<polygon fill="#94ddf4" stroke="black" points="4575.5,-2062.33 4575.5,-2099.33 4732.5,-2099.33 4732.5,-2062.33 4575.5,-2062.33"/>
<text text-anchor="middle" x="4654" y="-2077.13" font-family="Times,serif" font-size="14.00">sv_call_regions_bed</text>
</g>
<!-- sv_call_regions_bed&#45;&gt;run_dragen_germline_step -->
<g id="edge38" class="edge">
<title>sv_call_regions_bed&#45;&gt;run_dragen_germline_step</title>
<path fill="none" stroke="black" d="M4665.08,-2062.02C4716.05,-1980.12 4928.01,-1639.55 4988.7,-1542.03"/>
<polygon fill="black" stroke="black" points="4991.77,-1543.7 4994.09,-1533.37 4985.83,-1540.01 4991.77,-1543.7"/>
</g>
<!-- sv_discovery -->
<g id="node29" class="node">
<title>sv_discovery</title>
<polygon fill="#94ddf4" stroke="black" points="4450.5,-2062.33 4450.5,-2099.33 4557.5,-2099.33 4557.5,-2062.33 4450.5,-2062.33"/>
<text text-anchor="middle" x="4504" y="-2077.13" font-family="Times,serif" font-size="14.00">sv_discovery</text>
</g>
<!-- sv_discovery&#45;&gt;run_dragen_germline_step -->
<g id="edge39" class="edge">
<title>sv_discovery&#45;&gt;run_dragen_germline_step</title>
<path fill="none" stroke="black" d="M4519.82,-2062.02C4592.87,-1979.79 4897.55,-1636.8 4982.77,-1540.86"/>
<polygon fill="black" stroke="black" points="4985.4,-1543.17 4989.42,-1533.37 4980.17,-1538.52 4985.4,-1543.17"/>
</g>
<!-- sv_enable_liquid_tumor_mode -->
<g id="node30" class="node">
<title>sv_enable_liquid_tumor_mode</title>
<polygon fill="#94ddf4" stroke="black" points="4202,-2062.33 4202,-2099.33 4432,-2099.33 4432,-2062.33 4202,-2062.33"/>
<text text-anchor="middle" x="4317" y="-2077.13" font-family="Times,serif" font-size="14.00">sv_enable_liquid_tumor_mode</text>
</g>
<!-- sv_enable_liquid_tumor_mode&#45;&gt;run_dragen_germline_step -->
<g id="edge40" class="edge">
<title>sv_enable_liquid_tumor_mode&#45;&gt;run_dragen_germline_step</title>
<path fill="none" stroke="black" d="M4338.73,-2062.02C4439.44,-1979.46 4860.81,-1634.04 4975.86,-1539.72"/>
<polygon fill="black" stroke="black" points="4978.09,-1542.41 4983.61,-1533.37 4973.66,-1537 4978.09,-1542.41"/>
</g>
<!-- sv_exome -->
<g id="node31" class="node">
<title>sv_exome</title>
<polygon fill="#94ddf4" stroke="black" points="4098,-2062.33 4098,-2099.33 4184,-2099.33 4184,-2062.33 4098,-2062.33"/>
<text text-anchor="middle" x="4141" y="-2077.13" font-family="Times,serif" font-size="14.00">sv_exome</text>
</g>
<!-- sv_exome&#45;&gt;run_dragen_germline_step -->
<g id="edge41" class="edge">
<title>sv_exome&#45;&gt;run_dragen_germline_step</title>
<path fill="none" stroke="black" d="M4158.06,-2062.17C4167.87,-2052.44 4180.66,-2040.42 4193,-2030.83 4470.52,-1815.24 4840.71,-1605.97 4963.49,-1538.41"/>
<polygon fill="black" stroke="black" points="4965.5,-1541.3 4972.58,-1533.42 4962.13,-1535.16 4965.5,-1541.3"/>
</g>
<!-- sv_forcegt_vcf -->
<g id="node32" class="node">
<title>sv_forcegt_vcf</title>
<polygon fill="#94ddf4" stroke="black" points="3962,-2062.33 3962,-2099.33 4080,-2099.33 4080,-2062.33 3962,-2062.33"/>
<text text-anchor="middle" x="4021" y="-2077.13" font-family="Times,serif" font-size="14.00">sv_forcegt_vcf</text>
</g>
<!-- sv_forcegt_vcf&#45;&gt;run_dragen_germline_step -->
<g id="edge42" class="edge">
<title>sv_forcegt_vcf&#45;&gt;run_dragen_germline_step</title>
<path fill="none" stroke="black" d="M4044.15,-2062.16C4057.1,-2052.53 4073.67,-2040.62 4089,-2030.83 4414.47,-1823 4827.95,-1606.77 4961.39,-1538.11"/>
<polygon fill="black" stroke="black" points="4963.21,-1541.11 4970.51,-1533.43 4960.01,-1534.89 4963.21,-1541.11"/>
</g>
<!-- sv_output_contigs -->
<g id="node33" class="node">
<title>sv_output_contigs</title>
<polygon fill="#94ddf4" stroke="black" points="3798.5,-2062.33 3798.5,-2099.33 3943.5,-2099.33 3943.5,-2062.33 3798.5,-2062.33"/>
<text text-anchor="middle" x="3871" y="-2077.13" font-family="Times,serif" font-size="14.00">sv_output_contigs</text>
</g>
<!-- sv_output_contigs&#45;&gt;run_dragen_germline_step -->
<g id="edge43" class="edge">
<title>sv_output_contigs&#45;&gt;run_dragen_germline_step</title>
<path fill="none" stroke="black" d="M3899.13,-2062.23C3914.8,-2052.63 3934.78,-2040.71 3953,-2030.83 4332.56,-1824.98 4806.23,-1606.3 4956.76,-1537.7"/>
<polygon fill="black" stroke="black" points="4958.55,-1540.73 4966.2,-1533.4 4955.65,-1534.36 4958.55,-1540.73"/>
</g>
<!-- sv_region -->
<g id="node34" class="node">
<title>sv_region</title>
<polygon fill="#94ddf4" stroke="black" points="3695.5,-2062.33 3695.5,-2099.33 3780.5,-2099.33 3780.5,-2062.33 3695.5,-2062.33"/>
<text text-anchor="middle" x="3738" y="-2077.13" font-family="Times,serif" font-size="14.00">sv_region</text>
</g>
<!-- sv_region&#45;&gt;run_dragen_germline_step -->
<g id="edge44" class="edge">
<title>sv_region&#45;&gt;run_dragen_germline_step</title>
<path fill="none" stroke="black" d="M3753.58,-2062.31C3763.3,-2052.14 3776.5,-2039.64 3790,-2030.83 4188.12,-1770.96 4739.17,-1593.99 4933.61,-1536.29"/>
<polygon fill="black" stroke="black" points="4934.83,-1539.58 4943.42,-1533.38 4932.84,-1532.86 4934.83,-1539.58"/>
</g>
<!-- sv_se_overlap_pair_evidence -->
<g id="node35" class="node">
<title>sv_se_overlap_pair_evidence</title>
<polygon fill="#94ddf4" stroke="black" points="3457,-2062.33 3457,-2099.33 3677,-2099.33 3677,-2062.33 3457,-2062.33"/>
<text text-anchor="middle" x="3567" y="-2077.13" font-family="Times,serif" font-size="14.00">sv_se_overlap_pair_evidence</text>
</g>
<!-- sv_se_overlap_pair_evidence&#45;&gt;run_dragen_germline_step -->
<g id="edge45" class="edge">
<title>sv_se_overlap_pair_evidence&#45;&gt;run_dragen_germline_step</title>
<path fill="none" stroke="black" d="M3609.42,-2062.32C3632.36,-2052.91 3661.19,-2041.14 3687,-2030.83 4175.35,-1835.73 4768.54,-1606.82 4949.79,-1537.06"/>
<polygon fill="black" stroke="black" points="4951.3,-1540.23 4959.37,-1533.37 4948.78,-1533.7 4951.3,-1540.23"/>
</g>
<!-- sv_tin_contam_tolerance -->
<g id="node36" class="node">
<title>sv_tin_contam_tolerance</title>
<polygon fill="#94ddf4" stroke="black" points="3247.5,-2062.33 3247.5,-2099.33 3438.5,-2099.33 3438.5,-2062.33 3247.5,-2062.33"/>
<text text-anchor="middle" x="3343" y="-2077.13" font-family="Times,serif" font-size="14.00">sv_tin_contam_tolerance</text>
</g>
<!-- sv_tin_contam_tolerance&#45;&gt;run_dragen_germline_step -->
<g id="edge46" class="edge">
<title>sv_tin_contam_tolerance&#45;&gt;run_dragen_germline_step</title>
<path fill="none" stroke="black" d="M3378.03,-2062.23C3398.23,-2052.39 3424.26,-2040.26 3448,-2030.83 4009.89,-1807.69 4710.88,-1600.4 4933.62,-1536.19"/>
<polygon fill="black" stroke="black" points="4934.6,-1539.55 4943.24,-1533.42 4932.66,-1532.82 4934.6,-1539.55"/>
</g>
<!-- vc_decoy_contigs -->
<g id="node37" class="node">
<title>vc_decoy_contigs</title>
<polygon fill="#94ddf4" stroke="black" points="3090.5,-2062.33 3090.5,-2099.33 3229.5,-2099.33 3229.5,-2062.33 3090.5,-2062.33"/>
<text text-anchor="middle" x="3160" y="-2077.13" font-family="Times,serif" font-size="14.00">vc_decoy_contigs</text>
</g>
<!-- vc_decoy_contigs&#45;&gt;run_dragen_germline_step -->
<g id="edge47" class="edge">
<title>vc_decoy_contigs&#45;&gt;run_dragen_germline_step</title>
<path fill="none" stroke="black" d="M3184.65,-2062.11C3199.77,-2051.88 3219.84,-2039.38 3239,-2030.83 3843.69,-1761.18 4627.15,-1590.53 4903.28,-1535.37"/>
<polygon fill="black" stroke="black" points="4904.16,-1538.76 4913.29,-1533.38 4902.8,-1531.9 4904.16,-1538.76"/>
</g>
<!-- vc_enable_baf -->
<g id="node38" class="node">
<title>vc_enable_baf</title>
<polygon fill="#94ddf4" stroke="black" points="2956,-2062.33 2956,-2099.33 3072,-2099.33 3072,-2062.33 2956,-2062.33"/>
<text text-anchor="middle" x="3014" y="-2077.13" font-family="Times,serif" font-size="14.00">vc_enable_baf</text>
</g>
<!-- vc_enable_baf&#45;&gt;run_dragen_germline_step -->
<g id="edge48" class="edge">
<title>vc_enable_baf&#45;&gt;run_dragen_germline_step</title>
<path fill="none" stroke="black" d="M3034.19,-2062.27C3047.11,-2051.83 3064.65,-2039.06 3082,-2030.83 3732.87,-1721.99 4598.73,-1574.65 4897.96,-1530.57"/>
<polygon fill="black" stroke="black" points="4898.55,-1534.02 4907.94,-1529.11 4897.53,-1527.1 4898.55,-1534.02"/>
</g>
<!-- vc_enable_decoy_contigs -->
<g id="node39" class="node">
<title>vc_enable_decoy_contigs</title>
<polygon fill="#94ddf4" stroke="black" points="2744.5,-2062.33 2744.5,-2099.33 2937.5,-2099.33 2937.5,-2062.33 2744.5,-2062.33"/>
<text text-anchor="middle" x="2841" y="-2077.13" font-family="Times,serif" font-size="14.00">vc_enable_decoy_contigs</text>
</g>
<!-- vc_enable_decoy_contigs&#45;&gt;run_dragen_germline_step -->
<g id="edge49" class="edge">
<title>vc_enable_decoy_contigs&#45;&gt;run_dragen_germline_step</title>
<path fill="none" stroke="black" d="M2874.69,-2062.28C2895.2,-2052.1 2922.14,-2039.6 2947,-2030.83 3674.44,-1774.24 4589.04,-1592.8 4897.7,-1535.28"/>
<polygon fill="black" stroke="black" points="4898.79,-1538.64 4907.98,-1533.37 4897.51,-1531.76 4898.79,-1538.64"/>
</g>
<!-- vc_enable_gatk_acceleration -->
<g id="node40" class="node">
<title>vc_enable_gatk_acceleration</title>
<polygon fill="#94ddf4" stroke="black" points="2508,-2062.33 2508,-2099.33 2726,-2099.33 2726,-2062.33 2508,-2062.33"/>
<text text-anchor="middle" x="2617" y="-2077.13" font-family="Times,serif" font-size="14.00">vc_enable_gatk_acceleration</text>
</g>
<!-- vc_enable_gatk_acceleration&#45;&gt;run_dragen_germline_step -->
<g id="edge50" class="edge">
<title>vc_enable_gatk_acceleration&#45;&gt;run_dragen_germline_step</title>
<path fill="none" stroke="black" d="M2654.98,-2062.28C2678.06,-2052.1 2708.31,-2039.6 2736,-2030.83 3551.12,-1772.51 4569.62,-1589.27 4897.83,-1533.56"/>
<polygon fill="black" stroke="black" points="4898.53,-1536.99 4907.81,-1531.87 4897.36,-1530.09 4898.53,-1536.99"/>
</g>
<!-- vc_enable_phasing -->
<g id="node41" class="node">
<title>vc_enable_phasing</title>
<polygon fill="#94ddf4" stroke="black" points="2340.5,-2062.33 2340.5,-2099.33 2489.5,-2099.33 2489.5,-2062.33 2340.5,-2062.33"/>
<text text-anchor="middle" x="2415" y="-2077.13" font-family="Times,serif" font-size="14.00">vc_enable_phasing</text>
</g>
<!-- vc_enable_phasing&#45;&gt;run_dragen_germline_step -->
<g id="edge51" class="edge">
<title>vc_enable_phasing&#45;&gt;run_dragen_germline_step</title>
<path fill="none" stroke="black" d="M2440.02,-2062.32C2456.17,-2051.77 2478.03,-2038.85 2499,-2030.83 3388.07,-1690.71 4544.87,-1559.13 4898.02,-1525.29"/>
<polygon fill="black" stroke="black" points="4898.36,-1528.78 4907.98,-1524.35 4897.7,-1521.81 4898.36,-1528.78"/>
</g>
<!-- vc_enable_roh -->
<g id="node42" class="node">
<title>vc_enable_roh</title>
<polygon fill="#94ddf4" stroke="black" points="2205.5,-2062.33 2205.5,-2099.33 2322.5,-2099.33 2322.5,-2062.33 2205.5,-2062.33"/>
<text text-anchor="middle" x="2264" y="-2077.13" font-family="Times,serif" font-size="14.00">vc_enable_roh</text>
</g>
<!-- vc_enable_roh&#45;&gt;run_dragen_germline_step -->
<g id="edge52" class="edge">
<title>vc_enable_roh&#45;&gt;run_dragen_germline_step</title>
<path fill="none" stroke="black" d="M2283.41,-2062.32C2296.31,-2051.62 2314.1,-2038.56 2332,-2030.83 3268.64,-1626.66 4526.14,-1537.93 4897.51,-1520.03"/>
<polygon fill="black" stroke="black" points="4897.89,-1523.52 4907.71,-1519.55 4897.55,-1516.53 4897.89,-1523.52"/>
</g>
<!-- vc_enable_sex_chr_diploid -->
<g id="node43" class="node">
<title>vc_enable_sex_chr_diploid</title>
<polygon fill="#94ddf4" stroke="black" points="1984.5,-2062.33 1984.5,-2099.33 2187.5,-2099.33 2187.5,-2062.33 1984.5,-2062.33"/>
<text text-anchor="middle" x="2086" y="-2077.13" font-family="Times,serif" font-size="14.00">vc_enable_sex_chr_diploid</text>
</g>
<!-- vc_enable_sex_chr_diploid&#45;&gt;run_dragen_germline_step -->
<g id="edge53" class="edge">
<title>vc_enable_sex_chr_diploid&#45;&gt;run_dragen_germline_step</title>
<path fill="none" stroke="black" d="M2120.19,-2062.23C2141.74,-2051.78 2170.42,-2039.01 2197,-2030.83 3222.11,-1715.35 4520.63,-1565.23 4897.81,-1526.34"/>
<polygon fill="black" stroke="black" points="4898.31,-1529.81 4907.9,-1525.3 4897.59,-1522.84 4898.31,-1529.81"/>
</g>
<!-- vc_enable_vcf_output -->
<g id="node44" class="node">
<title>vc_enable_vcf_output</title>
<polygon fill="#94ddf4" stroke="black" points="1799,-2062.33 1799,-2099.33 1967,-2099.33 1967,-2062.33 1799,-2062.33"/>
<text text-anchor="middle" x="1883" y="-2077.13" font-family="Times,serif" font-size="14.00">vc_enable_vcf_output</text>
</g>
<!-- vc_enable_vcf_output&#45;&gt;run_dragen_germline_step -->
<g id="edge54" class="edge">
<title>vc_enable_vcf_output&#45;&gt;run_dragen_germline_step</title>
<path fill="none" stroke="black" d="M1910.86,-2062.16C1928.81,-2051.54 1953.01,-2038.62 1976,-2030.83 3077.64,-1657.59 4500.23,-1546.54 4897.71,-1521.82"/>
<polygon fill="black" stroke="black" points="4897.99,-1525.31 4907.76,-1521.2 4897.56,-1518.32 4897.99,-1525.31"/>
</g>
<!-- vc_haploid_call_af_threshold -->
<g id="node45" class="node">
<title>vc_haploid_call_af_threshold</title>
<polygon fill="#94ddf4" stroke="black" points="1563,-2062.33 1563,-2099.33 1781,-2099.33 1781,-2062.33 1563,-2062.33"/>
<text text-anchor="middle" x="1672" y="-2077.13" font-family="Times,serif" font-size="14.00">vc_haploid_call_af_threshold</text>
</g>
<!-- vc_haploid_call_af_threshold&#45;&gt;run_dragen_germline_step -->
<g id="edge55" class="edge">
<title>vc_haploid_call_af_threshold&#45;&gt;run_dragen_germline_step</title>
<path fill="none" stroke="black" d="M1708.15,-2062.22C1731.11,-2051.69 1761.72,-2038.85 1790,-2030.83 2981.26,-1693.16 4487.68,-1556.3 4897.81,-1523.82"/>
<polygon fill="black" stroke="black" points="4898.18,-1527.3 4907.88,-1523.03 4897.63,-1520.32 4898.18,-1527.3"/>
</g>
<!-- vc_hard_filter -->
<g id="node46" class="node">
<title>vc_hard_filter</title>
<polygon fill="#94ddf4" stroke="black" points="1431.5,-2062.33 1431.5,-2099.33 1544.5,-2099.33 1544.5,-2062.33 1431.5,-2062.33"/>
<text text-anchor="middle" x="1488" y="-2077.13" font-family="Times,serif" font-size="14.00">vc_hard_filter</text>
</g>
<!-- vc_hard_filter&#45;&gt;run_dragen_germline_step -->
<g id="edge56" class="edge">
<title>vc_hard_filter&#45;&gt;run_dragen_germline_step</title>
<path fill="none" stroke="black" d="M1506.37,-2062.29C1518.82,-2051.44 1536.21,-2038.22 1554,-2030.83 2185.36,-1768.8 4385.69,-1568.51 4897.88,-1524.76"/>
<polygon fill="black" stroke="black" points="4898.18,-1528.25 4907.85,-1523.91 4897.59,-1521.27 4898.18,-1528.25"/>
</g>
<!-- vc_max_reads_per_active_region -->
<g id="node47" class="node">
<title>vc_max_reads_per_active_region</title>
<polygon fill="#94ddf4" stroke="black" points="1165,-2062.33 1165,-2099.33 1413,-2099.33 1413,-2062.33 1165,-2062.33"/>
<text text-anchor="middle" x="1289" y="-2077.13" font-family="Times,serif" font-size="14.00">vc_max_reads_per_active_region</text>
</g>
<!-- vc_max_reads_per_active_region&#45;&gt;run_dragen_germline_step -->
<g id="edge57" class="edge">
<title>vc_max_reads_per_active_region&#45;&gt;run_dragen_germline_step</title>
<path fill="none" stroke="black" d="M1330.25,-2062.22C1356.39,-2051.69 1391.17,-2038.84 1423,-2030.83 2769.13,-1691.86 4459.87,-1554.38 4897.64,-1523.09"/>
<polygon fill="black" stroke="black" points="4898.02,-1526.57 4907.74,-1522.37 4897.52,-1519.59 4898.02,-1526.57"/>
</g>
<!-- vc_max_reads_per_raw_region -->
<g id="node48" class="node">
<title>vc_max_reads_per_raw_region</title>
<polygon fill="#94ddf4" stroke="black" points="913.5,-2062.33 913.5,-2099.33 1146.5,-2099.33 1146.5,-2062.33 913.5,-2062.33"/>
<text text-anchor="middle" x="1030" y="-2077.13" font-family="Times,serif" font-size="14.00">vc_max_reads_per_raw_region</text>
</g>
<!-- vc_max_reads_per_raw_region&#45;&gt;run_dragen_germline_step -->
<g id="edge58" class="edge">
<title>vc_max_reads_per_raw_region&#45;&gt;run_dragen_germline_step</title>
<path fill="none" stroke="black" d="M1068.1,-2062.27C1092.69,-2051.63 1125.66,-2038.64 1156,-2030.83 2607.02,-1657.31 4439.51,-1544.19 4897.56,-1520.85"/>
<polygon fill="black" stroke="black" points="4897.99,-1524.33 4907.8,-1520.33 4897.64,-1517.34 4897.99,-1524.33"/>
</g>
<!-- vc_remove_all_soft_clips -->
<g id="node49" class="node">
<title>vc_remove_all_soft_clips</title>
<polygon fill="#94ddf4" stroke="black" points="705,-2062.33 705,-2099.33 895,-2099.33 895,-2062.33 705,-2062.33"/>
<text text-anchor="middle" x="800" y="-2077.13" font-family="Times,serif" font-size="14.00">vc_remove_all_soft_clips</text>
</g>
<!-- vc_remove_all_soft_clips&#45;&gt;run_dragen_germline_step -->
<g id="edge59" class="edge">
<title>vc_remove_all_soft_clips&#45;&gt;run_dragen_germline_step</title>
<path fill="none" stroke="black" d="M831.16,-2062.14C851.55,-2051.38 879.1,-2038.3 905,-2030.83 2445,-1586.68 4419.71,-1525.52 4897.48,-1517.15"/>
<polygon fill="black" stroke="black" points="4897.87,-1520.64 4907.81,-1516.97 4897.75,-1513.64 4897.87,-1520.64"/>
</g>
<!-- vc_roh_blacklist_bed -->
<g id="node50" class="node">
<title>vc_roh_blacklist_bed</title>
<polygon fill="#94ddf4" stroke="black" points="523.5,-2062.33 523.5,-2099.33 686.5,-2099.33 686.5,-2062.33 523.5,-2062.33"/>
<text text-anchor="middle" x="605" y="-2077.13" font-family="Times,serif" font-size="14.00">vc_roh_blacklist_bed</text>
</g>
<!-- vc_roh_blacklist_bed&#45;&gt;run_dragen_germline_step -->
<g id="edge60" class="edge">
<title>vc_roh_blacklist_bed&#45;&gt;run_dragen_germline_step</title>
<path fill="none" stroke="black" d="M631.29,-2062.24C648.86,-2051.36 672.91,-2038.14 696,-2030.83 1517.89,-1770.77 4313.55,-1564.13 4897.53,-1523.21"/>
<polygon fill="black" stroke="black" points="4897.89,-1526.69 4907.62,-1522.5 4897.4,-1519.71 4897.89,-1526.69"/>
</g>
<!-- vc_target_bed -->
<g id="node51" class="node">
<title>vc_target_bed</title>
<polygon fill="#94ddf4" stroke="black" points="389,-2062.33 389,-2099.33 505,-2099.33 505,-2062.33 389,-2062.33"/>
<text text-anchor="middle" x="447" y="-2077.13" font-family="Times,serif" font-size="14.00">vc_target_bed</text>
</g>
<!-- vc_target_bed&#45;&gt;run_dragen_germline_step -->
<g id="edge61" class="edge">
<title>vc_target_bed&#45;&gt;run_dragen_germline_step</title>
<path fill="none" stroke="black" d="M465.94,-2062.09C478.77,-2051.16 496.68,-2037.92 515,-2030.83 1354.51,-1705.89 4296.35,-1549.7 4897.3,-1520.81"/>
<polygon fill="black" stroke="black" points="4897.86,-1524.29 4907.68,-1520.31 4897.53,-1517.3 4897.86,-1524.29"/>
</g>
<!-- vc_target_bed_padding -->
<g id="node52" class="node">
<title>vc_target_bed_padding</title>
<polygon fill="#94ddf4" stroke="black" points="189.5,-2062.33 189.5,-2099.33 370.5,-2099.33 370.5,-2062.33 189.5,-2062.33"/>
<text text-anchor="middle" x="280" y="-2077.13" font-family="Times,serif" font-size="14.00">vc_target_bed_padding</text>
</g>
<!-- vc_target_bed_padding&#45;&gt;run_dragen_germline_step -->
<g id="edge62" class="edge">
<title>vc_target_bed_padding&#45;&gt;run_dragen_germline_step</title>
<path fill="none" stroke="black" d="M309.11,-2062.23C328.5,-2051.35 354.94,-2038.12 380,-2030.83 1271.41,-1771.36 4289.92,-1562.7 4897.81,-1522.74"/>
<polygon fill="black" stroke="black" points="4898.13,-1526.23 4907.88,-1522.08 4897.67,-1519.24 4898.13,-1526.23"/>
</g>
<!-- vc_target_coverage -->
<g id="node53" class="node">
<title>vc_target_coverage</title>
<polygon fill="#94ddf4" stroke="black" points="16.5,-2062.33 16.5,-2099.33 171.5,-2099.33 171.5,-2062.33 16.5,-2062.33"/>
<text text-anchor="middle" x="94" y="-2077.13" font-family="Times,serif" font-size="14.00">vc_target_coverage</text>
</g>
<!-- vc_target_coverage&#45;&gt;run_dragen_germline_step -->
<g id="edge63" class="edge">
<title>vc_target_coverage&#45;&gt;run_dragen_germline_step</title>
<path fill="none" stroke="black" d="M118.68,-2062.11C135.21,-2051.19 157.92,-2037.95 180,-2030.83 1103.54,-1732.84 4272.6,-1554.1 4897.5,-1521.32"/>
<polygon fill="black" stroke="black" points="4898.04,-1524.79 4907.84,-1520.77 4897.67,-1517.8 4898.04,-1524.79"/>
</g>
<!-- dragen_bam_out -->
<g id="node54" class="node">
<title>dragen_bam_out</title>
<polygon fill="#94ddf4" stroke="black" points="4808,-408.33 4808,-445.33 4942,-445.33 4942,-408.33 4808,-408.33"/>
<text text-anchor="middle" x="4875" y="-423.13" font-family="Times,serif" font-size="14.00">dragen_bam_out</text>
</g>
<!-- dragen_germline_output_directory -->
<g id="node55" class="node">
<title>dragen_germline_output_directory</title>
<polygon fill="#94ddf4" stroke="black" points="4960.5,-408.33 4960.5,-445.33 5223.5,-445.33 5223.5,-408.33 4960.5,-408.33"/>
<text text-anchor="middle" x="5092" y="-423.13" font-family="Times,serif" font-size="14.00">dragen_germline_output_directory</text>
</g>
<!-- dragen_vcf_out -->
<g id="node56" class="node">
<title>dragen_vcf_out</title>
<polygon fill="#94ddf4" stroke="black" points="5241.5,-408.33 5241.5,-445.33 5366.5,-445.33 5366.5,-408.33 5241.5,-408.33"/>
<text text-anchor="middle" x="5304" y="-423.13" font-family="Times,serif" font-size="14.00">dragen_vcf_out</text>
</g>
<!-- multiqc_output_directory -->
<g id="node57" class="node">
<title>multiqc_output_directory</title>
<polygon fill="#94ddf4" stroke="black" points="5384.5,-408.33 5384.5,-445.33 5581.5,-445.33 5581.5,-408.33 5384.5,-408.33"/>
<text text-anchor="middle" x="5483" y="-423.13" font-family="Times,serif" font-size="14.00">multiqc_output_directory</text>
</g>
<!-- run_dragen_germline_step&#45;&gt;dragen_bam_out -->
<g id="edge2" class="edge">
<title>run_dragen_germline_step&#45;&gt;dragen_bam_out</title>
<path fill="none" stroke="black" d="M5002.85,-1495.89C4987.7,-1369.31 4896.97,-611.35 4878.34,-455.74"/>
<polygon fill="black" stroke="black" points="4881.79,-455.11 4877.13,-445.6 4874.84,-455.94 4881.79,-455.11"/>
</g>
<!-- run_dragen_germline_step&#45;&gt;dragen_germline_output_directory -->
<g id="edge3" class="edge">
<title>run_dragen_germline_step&#45;&gt;dragen_germline_output_directory</title>
<path fill="none" stroke="black" d="M5006.44,-1495.89C5016.58,-1369.31 5077.3,-611.35 5089.76,-455.74"/>
<polygon fill="black" stroke="black" points="5093.27,-455.84 5090.58,-445.6 5086.29,-455.28 5093.27,-455.84"/>
</g>
<!-- run_dragen_germline_step&#45;&gt;dragen_vcf_out -->
<g id="edge4" class="edge">
<title>run_dragen_germline_step&#45;&gt;dragen_vcf_out</title>
<path fill="none" stroke="black" d="M5009.94,-1495.89C5044.83,-1369.18 5253.89,-609.83 5296.44,-455.28"/>
<polygon fill="black" stroke="black" points="5299.83,-456.17 5299.11,-445.6 5293.08,-454.31 5299.83,-456.17"/>
</g>
<!-- run_dragen_germline_step&#45;&gt;dragen_qc_step -->
<g id="edge1" class="edge">
<title>run_dragen_germline_step&#45;&gt;dragen_qc_step</title>
<path fill="none" stroke="black" d="M5102.41,-1500.77C5661.76,-1425.76 8457.85,-1050.83 8967.28,-982.52"/>
<polygon fill="black" stroke="black" points="8968.03,-985.95 8977.47,-981.15 8967.1,-979.01 8968.03,-985.95"/>
</g>
<!-- dragen_qc_step&#45;&gt;multiqc_output_directory -->
<g id="edge5" class="edge">
<title>dragen_qc_step&#45;&gt;multiqc_output_directory</title>
<path fill="none" stroke="black" d="M8977.41,-959.25C8536.62,-892.21 6134.12,-526.85 5591.81,-444.38"/>
<polygon fill="black" stroke="black" points="5592.05,-440.87 5581.64,-442.83 5591,-447.79 5592.05,-440.87"/>
</g>
<!-- create_dummy_file_step -->
<g id="node60" class="node">
<title>create_dummy_file_step</title>
<polygon fill="lightgoldenrodyellow" stroke="black" points="9093.5,-1496.33 9093.5,-1533.33 9354.5,-1533.33 9354.5,-1496.33 9093.5,-1496.33"/>
<text text-anchor="middle" x="9224" y="-1511.13" font-family="Times,serif" font-size="14.00">custom&#45;create&#45;dummy&#45;file v(1.0.0)</text>
</g>
<!-- create_dummy_file_step&#45;&gt;dragen_qc_step -->
<g id="edge6" class="edge">
<title>create_dummy_file_step&#45;&gt;dragen_qc_step</title>
<path fill="none" stroke="black" d="M9218.21,-1496.11C9192.34,-1416.89 9087.23,-1095.01 9055.87,-998.99"/>
<polygon fill="black" stroke="black" points="9059.18,-997.84 9052.74,-989.42 9052.52,-1000.01 9059.18,-997.84"/>
</g>
<!-- \n -->
<g id="node61" class="node">
<title>\n</title>
<ellipse fill="none" stroke="black" cx="9148" cy="-2080.83" rx="27" ry="18"/>
</g>
</g>
</svg>
