<?xml version="1.0" encoding="UTF-8" standalone="no"?>
<!DOCTYPE svg PUBLIC "-//W3C//DTD SVG 1.1//EN"
 "http://www.w3.org/Graphics/SVG/1.1/DTD/svg11.dtd">
<!-- Generated by graphviz version 2.43.0 (0)
 -->
<!-- Title: G Pages: 1 -->
<svg width="8326pt" height="2062pt"
 viewBox="0.00 0.00 8325.50 2062.30" xmlns="http://www.w3.org/2000/svg" xmlns:xlink="http://www.w3.org/1999/xlink">
<g id="graph0" class="graph" transform="scale(1 1) rotate(0) translate(4 2058.3)">
<title>G</title>
<polygon fill="#eeeeee" stroke="transparent" points="-4,4 -4,-2058.3 8321.5,-2058.3 8321.5,4 -4,4"/>
<g id="clust1" class="cluster">
<title>cluster_inputs</title>
<polygon fill="#eeeeee" stroke="black" stroke-dasharray="5,2" points="243.5,-1504.74 243.5,-2001.96 8309.5,-2001.96 8309.5,-1504.74 243.5,-1504.74"/>
<text text-anchor="middle" x="8243" y="-1512.54" font-family="Times,serif" font-size="14.00">Workflow Inputs</text>
</g>
<g id="clust2" class="cluster">
<title>cluster_outputs</title>
<polygon fill="#eeeeee" stroke="black" stroke-dasharray="5,2" points="3485.5,-52.34 3485.5,-549.56 4141.5,-549.56 4141.5,-52.34 3485.5,-52.34"/>
<text text-anchor="middle" x="4069" y="-60.14" font-family="Times,serif" font-size="14.00">Workflow Outputs</text>
</g>
<!-- create_dummy_file_step -->
<g id="node1" class="node">
<title>create_dummy_file_step</title>
<polygon fill="lightgoldenrodyellow" stroke="black" points="0,-1313.34 0,-1349.34 261,-1349.34 261,-1313.34 0,-1313.34"/>
<text text-anchor="middle" x="130.5" y="-1327.64" font-family="Times,serif" font-size="14.00">custom&#45;create&#45;dummy&#45;file v(1.0.0)</text>
</g>
<!-- dragen_qc_step -->
<g id="node2" class="node">
<title>dragen_qc_step</title>
<polygon fill="lightgoldenrodyellow" stroke="black" points="238,-835.34 238,-871.34 377,-871.34 377,-835.34 238,-835.34"/>
<text text-anchor="middle" x="307.5" y="-849.64" font-family="Times,serif" font-size="14.00">multiqc v(1.15.0)</text>
</g>
<!-- create_dummy_file_step&#45;&gt;dragen_qc_step -->
<g id="edge1" class="edge">
<title>create_dummy_file_step&#45;&gt;dragen_qc_step</title>
<path fill="none" stroke="black" d="M136.9,-1313.12C163.49,-1241.61 265.3,-967.83 297.6,-880.95"/>
<polygon fill="black" stroke="black" points="300.9,-882.13 301.1,-871.54 294.34,-879.69 300.9,-882.13"/>
</g>
<!-- multiqc_output_directory -->
<g id="node63" class="node">
<title>multiqc_output_directory</title>
<polygon fill="#94ddf4" stroke="black" points="3494,-358.34 3494,-394.34 3691,-394.34 3691,-358.34 3494,-358.34"/>
<text text-anchor="middle" x="3592.5" y="-372.64" font-family="Times,serif" font-size="14.00">multiqc_output_directory</text>
</g>
<!-- dragen_qc_step&#45;&gt;multiqc_output_directory -->
<g id="edge66" class="edge">
<title>dragen_qc_step&#45;&gt;multiqc_output_directory</title>
<path fill="none" stroke="black" d="M377.25,-842.25C795.55,-781.77 2970.58,-467.27 3483.88,-393.05"/>
<polygon fill="black" stroke="black" points="3484.48,-396.49 3493.87,-391.6 3483.48,-389.57 3484.48,-396.49"/>
</g>
<!-- run_dragen_alignment_step -->
<g id="node3" class="node">
<title>run_dragen_alignment_step</title>
<polygon fill="lightgoldenrodyellow" stroke="black" points="3965,-1313.34 3965,-1349.34 4168,-1349.34 4168,-1313.34 3965,-1313.34"/>
<text text-anchor="middle" x="4066.5" y="-1327.64" font-family="Times,serif" font-size="14.00">dragen&#45;alignment v(4.2.4)</text>
</g>
<!-- run_dragen_alignment_step&#45;&gt;dragen_qc_step -->
<g id="edge2" class="edge">
<title>run_dragen_alignment_step&#45;&gt;dragen_qc_step</title>
<path fill="none" stroke="black" d="M3964.98,-1317.48C3422.5,-1248.79 872.12,-925.84 387.22,-864.43"/>
<polygon fill="black" stroke="black" points="387.53,-860.94 377.17,-863.16 386.65,-867.89 387.53,-860.94"/>
</g>
<!-- dragen_alignment_output_directory -->
<g id="node61" class="node">
<title>dragen_alignment_output_directory</title>
<polygon fill="#94ddf4" stroke="black" points="3709.5,-358.34 3709.5,-394.34 3981.5,-394.34 3981.5,-358.34 3709.5,-358.34"/>
<text text-anchor="middle" x="3845.5" y="-372.64" font-family="Times,serif" font-size="14.00">dragen_alignment_output_directory</text>
</g>
<!-- run_dragen_alignment_step&#45;&gt;dragen_alignment_output_directory -->
<g id="edge64" class="edge">
<title>run_dragen_alignment_step&#45;&gt;dragen_alignment_output_directory</title>
<path fill="none" stroke="black" d="M4062.48,-1312.98C4035.82,-1198.04 3884.78,-546.71 3851.84,-404.69"/>
<polygon fill="black" stroke="black" points="3855.18,-403.59 3849.51,-394.64 3848.36,-405.17 3855.18,-403.59"/>
</g>
<!-- dragen_bam_out -->
<g id="node62" class="node">
<title>dragen_bam_out</title>
<polygon fill="#94ddf4" stroke="black" points="3999.5,-358.34 3999.5,-394.34 4133.5,-394.34 4133.5,-358.34 3999.5,-358.34"/>
<text text-anchor="middle" x="4066.5" y="-372.64" font-family="Times,serif" font-size="14.00">dragen_bam_out</text>
</g>
<!-- run_dragen_alignment_step&#45;&gt;dragen_bam_out -->
<g id="edge65" class="edge">
<title>run_dragen_alignment_step&#45;&gt;dragen_bam_out</title>
<path fill="none" stroke="black" d="M4066.5,-1312.98C4066.5,-1198.04 4066.5,-546.71 4066.5,-404.69"/>
<polygon fill="black" stroke="black" points="4070,-404.64 4066.5,-394.64 4063,-404.64 4070,-404.64"/>
</g>
<!-- output_prefix -->
<g id="node4" class="node">
<title>output_prefix</title>
<polygon fill="#94ddf4" stroke="black" points="251.5,-1810.34 251.5,-1846.34 363.5,-1846.34 363.5,-1810.34 251.5,-1810.34"/>
<text text-anchor="middle" x="307.5" y="-1824.64" font-family="Times,serif" font-size="14.00">output_prefix</text>
</g>
<!-- output_prefix&#45;&gt;dragen_qc_step -->
<g id="edge3" class="edge">
<title>output_prefix&#45;&gt;dragen_qc_step</title>
<path fill="none" stroke="black" d="M303.57,-1810.04C291.14,-1693.74 290.82,-1026.19 302.62,-881.85"/>
<polygon fill="black" stroke="black" points="306.13,-881.94 303.56,-871.66 299.15,-881.29 306.13,-881.94"/>
</g>
<!-- output_prefix&#45;&gt;dragen_qc_step -->
<g id="edge4" class="edge">
<title>output_prefix&#45;&gt;dragen_qc_step</title>
<path fill="none" stroke="black" d="M307.5,-1810.04C307.5,-1693.74 307.5,-1026.19 307.5,-881.85"/>
<polygon fill="black" stroke="black" points="311,-881.66 307.5,-871.66 304,-881.66 311,-881.66"/>
</g>
<!-- output_prefix&#45;&gt;dragen_qc_step -->
<g id="edge5" class="edge">
<title>output_prefix&#45;&gt;dragen_qc_step</title>
<path fill="none" stroke="black" d="M311.43,-1810.04C323.86,-1693.74 324.18,-1026.19 312.38,-881.85"/>
<polygon fill="black" stroke="black" points="315.85,-881.29 311.44,-871.66 308.87,-881.94 315.85,-881.29"/>
</g>
<!-- output_prefix&#45;&gt;run_dragen_alignment_step -->
<g id="edge6" class="edge">
<title>output_prefix&#45;&gt;run_dragen_alignment_step</title>
<path fill="none" stroke="black" d="M317.91,-1810.05C329.02,-1799.2 346.52,-1785.96 364.5,-1778.84 1044.3,-1509.66 3410.65,-1367.35 3954.49,-1338.06"/>
<polygon fill="black" stroke="black" points="3954.89,-1341.54 3964.69,-1337.51 3954.52,-1334.55 3954.89,-1341.54"/>
</g>
<!-- output_prefix&#45;&gt;run_dragen_alignment_step -->
<g id="edge7" class="edge">
<title>output_prefix&#45;&gt;run_dragen_alignment_step</title>
<path fill="none" stroke="black" d="M332.9,-1810.29C346.76,-1799.4 364.39,-1786.01 382.5,-1778.84 1060.06,-1510.54 3413.09,-1368.28 3954.73,-1338.35"/>
<polygon fill="black" stroke="black" points="3955.1,-1341.84 3964.89,-1337.79 3954.71,-1334.85 3955.1,-1341.84"/>
</g>
<!-- aln_min_score -->
<g id="node5" class="node">
<title>aln_min_score</title>
<polygon fill="#94ddf4" stroke="black" points="8093,-1810.34 8093,-1846.34 8210,-1846.34 8210,-1810.34 8093,-1810.34"/>
<text text-anchor="middle" x="8151.5" y="-1824.64" font-family="Times,serif" font-size="14.00">aln_min_score</text>
</g>
<!-- aln_min_score&#45;&gt;run_dragen_alignment_step -->
<g id="edge8" class="edge">
<title>aln_min_score&#45;&gt;run_dragen_alignment_step</title>
<path fill="none" stroke="black" d="M8133.11,-1810.24C8120.23,-1799.32 8102.06,-1785.93 8083.5,-1778.84 7338.63,-1494.1 4749.87,-1363 4178.62,-1337.18"/>
<polygon fill="black" stroke="black" points="4178.47,-1333.67 4168.32,-1336.72 4178.16,-1340.67 4178.47,-1333.67"/>
</g>
<!-- alt_aware -->
<g id="node6" class="node">
<title>alt_aware</title>
<polygon fill="#94ddf4" stroke="black" points="7988.5,-1810.34 7988.5,-1846.34 8074.5,-1846.34 8074.5,-1810.34 7988.5,-1810.34"/>
<text text-anchor="middle" x="8031.5" y="-1824.64" font-family="Times,serif" font-size="14.00">alt_aware</text>
</g>
<!-- alt_aware&#45;&gt;run_dragen_alignment_step -->
<g id="edge9" class="edge">
<title>alt_aware&#45;&gt;run_dragen_alignment_step</title>
<path fill="none" stroke="black" d="M8017.98,-1809.99C8008.47,-1799.12 7994.75,-1785.87 7979.5,-1778.84 7274.64,-1453.78 4742.2,-1354.1 4178.31,-1335.71"/>
<polygon fill="black" stroke="black" points="4178.26,-1332.2 4168.15,-1335.38 4178.03,-1339.2 4178.26,-1332.2"/>
</g>
<!-- ann_sj_max_indel -->
<g id="node7" class="node">
<title>ann_sj_max_indel</title>
<polygon fill="#94ddf4" stroke="black" points="7830.5,-1810.34 7830.5,-1846.34 7970.5,-1846.34 7970.5,-1810.34 7830.5,-1810.34"/>
<text text-anchor="middle" x="7900.5" y="-1824.64" font-family="Times,serif" font-size="14.00">ann_sj_max_indel</text>
</g>
<!-- ann_sj_max_indel&#45;&gt;run_dragen_alignment_step -->
<g id="edge10" class="edge">
<title>ann_sj_max_indel&#45;&gt;run_dragen_alignment_step</title>
<path fill="none" stroke="black" d="M7878.66,-1810.33C7863.49,-1799.46 7842.33,-1786.08 7821.5,-1778.84 7120.01,-1535.05 4725.65,-1373.43 4178.48,-1339.15"/>
<polygon fill="black" stroke="black" points="4178.42,-1335.64 4168.22,-1338.51 4177.98,-1342.63 4178.42,-1335.64"/>
</g>
<!-- annotation_file -->
<g id="node8" class="node">
<title>annotation_file</title>
<polygon fill="#94ddf4" stroke="black" points="7690.5,-1810.34 7690.5,-1846.34 7812.5,-1846.34 7812.5,-1810.34 7690.5,-1810.34"/>
<text text-anchor="middle" x="7751.5" y="-1824.64" font-family="Times,serif" font-size="14.00">annotation_file</text>
</g>
<!-- annotation_file&#45;&gt;run_dragen_alignment_step -->
<g id="edge11" class="edge">
<title>annotation_file&#45;&gt;run_dragen_alignment_step</title>
<path fill="none" stroke="black" d="M7732.45,-1810.32C7719.14,-1799.44 7700.43,-1786.06 7681.5,-1778.84 7014.59,-1524.45 4712.83,-1371.51 4178.09,-1338.91"/>
<polygon fill="black" stroke="black" points="4178.26,-1335.42 4168.06,-1338.3 4177.83,-1342.41 4178.26,-1335.42"/>
</g>
<!-- dedup_min_qual -->
<g id="node9" class="node">
<title>dedup_min_qual</title>
<polygon fill="#94ddf4" stroke="black" points="7540.5,-1810.34 7540.5,-1846.34 7672.5,-1846.34 7672.5,-1810.34 7540.5,-1810.34"/>
<text text-anchor="middle" x="7606.5" y="-1824.64" font-family="Times,serif" font-size="14.00">dedup_min_qual</text>
</g>
<!-- dedup_min_qual&#45;&gt;run_dragen_alignment_step -->
<g id="edge12" class="edge">
<title>dedup_min_qual&#45;&gt;run_dragen_alignment_step</title>
<path fill="none" stroke="black" d="M7585.56,-1810.14C7571.23,-1799.33 7551.3,-1786.09 7531.5,-1778.84 6890.75,-1544.15 4699.56,-1377.08 4178.39,-1340.07"/>
<polygon fill="black" stroke="black" points="4178.46,-1336.56 4168.24,-1339.35 4177.96,-1343.55 4178.46,-1336.56"/>
</g>
<!-- edit_chain_limit -->
<g id="node10" class="node">
<title>edit_chain_limit</title>
<polygon fill="#94ddf4" stroke="black" points="7393,-1810.34 7393,-1846.34 7522,-1846.34 7522,-1810.34 7393,-1810.34"/>
<text text-anchor="middle" x="7457.5" y="-1824.64" font-family="Times,serif" font-size="14.00">edit_chain_limit</text>
</g>
<!-- edit_chain_limit&#45;&gt;run_dragen_alignment_step -->
<g id="edge13" class="edge">
<title>edit_chain_limit&#45;&gt;run_dragen_alignment_step</title>
<path fill="none" stroke="black" d="M7436.87,-1810.17C7422.73,-1799.37 7403.07,-1786.14 7383.5,-1778.84 6773.01,-1551.15 4686.48,-1379.72 4178.61,-1340.72"/>
<polygon fill="black" stroke="black" points="4178.59,-1337.21 4168.35,-1339.94 4178.05,-1344.19 4178.59,-1337.21"/>
</g>
<!-- edit_mode -->
<g id="node11" class="node">
<title>edit_mode</title>
<polygon fill="#94ddf4" stroke="black" points="7284.5,-1810.34 7284.5,-1846.34 7374.5,-1846.34 7374.5,-1810.34 7284.5,-1810.34"/>
<text text-anchor="middle" x="7329.5" y="-1824.64" font-family="Times,serif" font-size="14.00">edit_mode</text>
</g>
<!-- edit_mode&#45;&gt;run_dragen_alignment_step -->
<g id="edge14" class="edge">
<title>edit_mode&#45;&gt;run_dragen_alignment_step</title>
<path fill="none" stroke="black" d="M7315.27,-1810.12C7305.31,-1799.3 7291.04,-1786.06 7275.5,-1778.84 6704.46,-1513.47 4677.66,-1370.75 4178.3,-1339.12"/>
<polygon fill="black" stroke="black" points="4178.41,-1335.62 4168.21,-1338.49 4177.97,-1342.61 4178.41,-1335.62"/>
</g>
<!-- edit_read_len -->
<g id="node12" class="node">
<title>edit_read_len</title>
<polygon fill="#94ddf4" stroke="black" points="7154.5,-1810.34 7154.5,-1846.34 7266.5,-1846.34 7266.5,-1810.34 7154.5,-1810.34"/>
<text text-anchor="middle" x="7210.5" y="-1824.64" font-family="Times,serif" font-size="14.00">edit_read_len</text>
</g>
<!-- edit_read_len&#45;&gt;run_dragen_alignment_step -->
<g id="edge15" class="edge">
<title>edit_read_len&#45;&gt;run_dragen_alignment_step</title>
<path fill="none" stroke="black" d="M7192.71,-1810.19C7180.43,-1799.39 7163.19,-1786.16 7145.5,-1778.84 6588.81,-1548.36 4664.01,-1380.49 4178.43,-1341.15"/>
<polygon fill="black" stroke="black" points="4178.51,-1337.64 4168.26,-1340.33 4177.95,-1344.62 4178.51,-1337.64"/>
</g>
<!-- edit_seed_num -->
<g id="node13" class="node">
<title>edit_seed_num</title>
<polygon fill="#94ddf4" stroke="black" points="7014.5,-1810.34 7014.5,-1846.34 7136.5,-1846.34 7136.5,-1810.34 7014.5,-1810.34"/>
<text text-anchor="middle" x="7075.5" y="-1824.64" font-family="Times,serif" font-size="14.00">edit_seed_num</text>
</g>
<!-- edit_seed_num&#45;&gt;run_dragen_alignment_step -->
<g id="edge16" class="edge">
<title>edit_seed_num&#45;&gt;run_dragen_alignment_step</title>
<path fill="none" stroke="black" d="M7056.09,-1810.26C7042.77,-1799.49 7024.19,-1786.27 7005.5,-1778.84 5965.05,-1365.27 4577.4,-1331.99 4178.2,-1331.47"/>
<polygon fill="black" stroke="black" points="4178.1,-1327.97 4168.1,-1331.46 4178.1,-1334.97 4178.1,-1327.97"/>
</g>
<!-- en_alt_hap_aln -->
<g id="node14" class="node">
<title>en_alt_hap_aln</title>
<polygon fill="#94ddf4" stroke="black" points="6875,-1810.34 6875,-1846.34 6996,-1846.34 6996,-1810.34 6875,-1810.34"/>
<text text-anchor="middle" x="6935.5" y="-1824.64" font-family="Times,serif" font-size="14.00">en_alt_hap_aln</text>
</g>
<!-- en_alt_hap_aln&#45;&gt;run_dragen_alignment_step -->
<g id="edge17" class="edge">
<title>en_alt_hap_aln&#45;&gt;run_dragen_alignment_step</title>
<path fill="none" stroke="black" d="M6916.39,-1810.29C6903.27,-1799.55 6884.95,-1786.32 6866.5,-1778.84 5881.41,-1379.2 4565.73,-1336.07 4178.27,-1332.36"/>
<polygon fill="black" stroke="black" points="4178.21,-1328.86 4168.18,-1332.27 4178.15,-1335.86 4178.21,-1328.86"/>
</g>
<!-- en_chimeric_aln -->
<g id="node15" class="node">
<title>en_chimeric_aln</title>
<polygon fill="#94ddf4" stroke="black" points="6726,-1810.34 6726,-1846.34 6857,-1846.34 6857,-1810.34 6726,-1810.34"/>
<text text-anchor="middle" x="6791.5" y="-1824.64" font-family="Times,serif" font-size="14.00">en_chimeric_aln</text>
</g>
<!-- en_chimeric_aln&#45;&gt;run_dragen_alignment_step -->
<g id="edge18" class="edge">
<title>en_chimeric_aln&#45;&gt;run_dragen_alignment_step</title>
<path fill="none" stroke="black" d="M6770.47,-1810.15C6756.33,-1799.48 6736.81,-1786.41 6717.5,-1778.84 5784.63,-1413.24 4552.1,-1346.82 4178.5,-1334.91"/>
<polygon fill="black" stroke="black" points="4178.34,-1331.4 4168.23,-1334.59 4178.12,-1338.4 4178.34,-1331.4"/>
</g>
<!-- enable_duplicate_marking -->
<g id="node16" class="node">
<title>enable_duplicate_marking</title>
<polygon fill="#94ddf4" stroke="black" points="6505,-1810.34 6505,-1846.34 6708,-1846.34 6708,-1810.34 6505,-1810.34"/>
<text text-anchor="middle" x="6606.5" y="-1824.64" font-family="Times,serif" font-size="14.00">enable_duplicate_marking</text>
</g>
<!-- enable_duplicate_marking&#45;&gt;run_dragen_alignment_step -->
<g id="edge19" class="edge">
<title>enable_duplicate_marking&#45;&gt;run_dragen_alignment_step</title>
<path fill="none" stroke="black" d="M6573.1,-1810.16C6551.69,-1799.77 6523.03,-1787 6496.5,-1778.84 5625.7,-1510.91 4527.07,-1380.21 4178.15,-1343.46"/>
<polygon fill="black" stroke="black" points="4178.35,-1339.97 4168.04,-1342.4 4177.62,-1346.93 4178.35,-1339.97"/>
</g>
<!-- enable_map_align -->
<g id="node17" class="node">
<title>enable_map_align</title>
<polygon fill="#94ddf4" stroke="black" points="6344,-1810.34 6344,-1846.34 6487,-1846.34 6487,-1810.34 6344,-1810.34"/>
<text text-anchor="middle" x="6415.5" y="-1824.64" font-family="Times,serif" font-size="14.00">enable_map_align</text>
</g>
<!-- enable_map_align&#45;&gt;run_dragen_alignment_step -->
<g id="edge20" class="edge">
<title>enable_map_align&#45;&gt;run_dragen_alignment_step</title>
<path fill="none" stroke="black" d="M6392.14,-1810.15C6376.76,-1799.62 6355.79,-1786.7 6335.5,-1778.84 5545.13,-1472.6 4515.16,-1367.79 4178.36,-1340.46"/>
<polygon fill="black" stroke="black" points="4178.37,-1336.95 4168.12,-1339.63 4177.8,-1343.93 4178.37,-1336.95"/>
</g>
<!-- enable_map_align_output -->
<g id="node18" class="node">
<title>enable_map_align_output</title>
<polygon fill="#94ddf4" stroke="black" points="6129,-1810.34 6129,-1846.34 6326,-1846.34 6326,-1810.34 6129,-1810.34"/>
<text text-anchor="middle" x="6227.5" y="-1824.64" font-family="Times,serif" font-size="14.00">enable_map_align_output</text>
</g>
<!-- enable_map_align_output&#45;&gt;run_dragen_alignment_step -->
<g id="edge21" class="edge">
<title>enable_map_align_output&#45;&gt;run_dragen_alignment_step</title>
<path fill="none" stroke="black" d="M6194.5,-1810.18C6173.71,-1799.93 6146.06,-1787.3 6120.5,-1778.84 5398.47,-1539.72 4490.63,-1394 4178.14,-1348.09"/>
<polygon fill="black" stroke="black" points="4178.58,-1344.62 4168.17,-1346.63 4177.56,-1351.55 4178.58,-1344.62"/>
</g>
<!-- enable_rna -->
<g id="node19" class="node">
<title>enable_rna</title>
<polygon fill="#94ddf4" stroke="black" points="6016,-1810.34 6016,-1846.34 6111,-1846.34 6111,-1810.34 6016,-1810.34"/>
<text text-anchor="middle" x="6063.5" y="-1824.64" font-family="Times,serif" font-size="14.00">enable_rna</text>
</g>
<!-- enable_rna&#45;&gt;run_dragen_alignment_step -->
<g id="edge22" class="edge">
<title>enable_rna&#45;&gt;run_dragen_alignment_step</title>
<path fill="none" stroke="black" d="M6047.6,-1810.12C6036.95,-1799.58 6022.06,-1786.66 6006.5,-1778.84 5364.5,-1456.26 4485.86,-1363.15 4178.28,-1339.54"/>
<polygon fill="black" stroke="black" points="4178.26,-1336.03 4168.02,-1338.76 4177.73,-1343.01 4178.26,-1336.03"/>
</g>
<!-- enable_rna_quantification -->
<g id="node20" class="node">
<title>enable_rna_quantification</title>
<polygon fill="#94ddf4" stroke="black" points="5797.5,-1810.34 5797.5,-1846.34 5997.5,-1846.34 5997.5,-1810.34 5797.5,-1810.34"/>
<text text-anchor="middle" x="5897.5" y="-1824.64" font-family="Times,serif" font-size="14.00">enable_rna_quantification</text>
</g>
<!-- enable_rna_quantification&#45;&gt;run_dragen_alignment_step -->
<g id="edge23" class="edge">
<title>enable_rna_quantification&#45;&gt;run_dragen_alignment_step</title>
<path fill="none" stroke="black" d="M5862.75,-1810.11C5841.63,-1800.09 5813.92,-1787.72 5788.5,-1778.84 5182.93,-1567.23 4426.45,-1405.07 4162.58,-1351.42"/>
<polygon fill="black" stroke="black" points="4163.14,-1347.97 4152.65,-1349.41 4161.75,-1354.83 4163.14,-1347.97"/>
</g>
<!-- enable_rrna_filter -->
<g id="node21" class="node">
<title>enable_rrna_filter</title>
<polygon fill="#94ddf4" stroke="black" points="5636,-1810.34 5636,-1846.34 5779,-1846.34 5779,-1810.34 5636,-1810.34"/>
<text text-anchor="middle" x="5707.5" y="-1824.64" font-family="Times,serif" font-size="14.00">enable_rrna_filter</text>
</g>
<!-- enable_rrna_filter&#45;&gt;run_dragen_alignment_step -->
<g id="edge24" class="edge">
<title>enable_rrna_filter&#45;&gt;run_dragen_alignment_step</title>
<path fill="none" stroke="black" d="M5683.2,-1810.27C5667.8,-1800.05 5647.15,-1787.42 5627.5,-1778.84 5099.53,-1548.23 4419.55,-1401.24 4166.86,-1351.34"/>
<polygon fill="black" stroke="black" points="4167.45,-1347.89 4156.96,-1349.4 4166.1,-1354.76 4167.45,-1347.89"/>
</g>
<!-- enable_sort -->
<g id="node22" class="node">
<title>enable_sort</title>
<polygon fill="#94ddf4" stroke="black" points="5519,-1810.34 5519,-1846.34 5618,-1846.34 5618,-1810.34 5519,-1810.34"/>
<text text-anchor="middle" x="5568.5" y="-1824.64" font-family="Times,serif" font-size="14.00">enable_sort</text>
</g>
<!-- enable_sort&#45;&gt;run_dragen_alignment_step -->
<g id="edge25" class="edge">
<title>enable_sort&#45;&gt;run_dragen_alignment_step</title>
<path fill="none" stroke="black" d="M5551.48,-1810.3C5540.34,-1799.97 5525.03,-1787.2 5509.5,-1778.84 5047.22,-1529.85 4425.35,-1397.21 4176.31,-1351.23"/>
<polygon fill="black" stroke="black" points="4176.64,-1347.73 4166.17,-1349.37 4175.38,-1354.62 4176.64,-1347.73"/>
</g>
<!-- fastq_list -->
<g id="node23" class="node">
<title>fastq_list</title>
<polygon fill="#94ddf4" stroke="black" points="5418.5,-1810.34 5418.5,-1846.34 5500.5,-1846.34 5500.5,-1810.34 5418.5,-1810.34"/>
<text text-anchor="middle" x="5459.5" y="-1824.64" font-family="Times,serif" font-size="14.00">fastq_list</text>
</g>
<!-- fastq_list&#45;&gt;run_dragen_alignment_step -->
<g id="edge26" class="edge">
<title>fastq_list&#45;&gt;run_dragen_alignment_step</title>
<path fill="none" stroke="black" d="M5445.28,-1810.06C5436.01,-1799.76 5423.15,-1787.12 5409.5,-1778.84 4991.75,-1525.25 4412.47,-1396.19 4174.81,-1351.23"/>
<polygon fill="black" stroke="black" points="4175.26,-1347.75 4164.78,-1349.34 4173.96,-1354.63 4175.26,-1347.75"/>
</g>
<!-- fastq_list_rows -->
<g id="node24" class="node">
<title>fastq_list_rows</title>
<polygon fill="#94ddf4" stroke="black" points="5277,-1810.34 5277,-1846.34 5400,-1846.34 5400,-1810.34 5277,-1810.34"/>
<text text-anchor="middle" x="5338.5" y="-1824.64" font-family="Times,serif" font-size="14.00">fastq_list_rows</text>
</g>
<!-- fastq_list_rows&#45;&gt;run_dragen_alignment_step -->
<g id="edge27" class="edge">
<title>fastq_list_rows&#45;&gt;run_dragen_alignment_step</title>
<path fill="none" stroke="black" d="M5316.7,-1810.12C5303.33,-1800.1 5285.54,-1787.73 5268.5,-1778.84 4861.06,-1566.31 4329.13,-1406.2 4138.42,-1352.17"/>
<polygon fill="black" stroke="black" points="4139.08,-1348.72 4128.51,-1349.37 4137.18,-1355.46 4139.08,-1348.72"/>
</g>
<!-- gap_ext_pen -->
<g id="node25" class="node">
<title>gap_ext_pen</title>
<polygon fill="#94ddf4" stroke="black" points="5154,-1810.34 5154,-1846.34 5259,-1846.34 5259,-1810.34 5154,-1810.34"/>
<text text-anchor="middle" x="5206.5" y="-1824.64" font-family="Times,serif" font-size="14.00">gap_ext_pen</text>
</g>
<!-- gap_ext_pen&#45;&gt;run_dragen_alignment_step -->
<g id="edge28" class="edge">
<title>gap_ext_pen&#45;&gt;run_dragen_alignment_step</title>
<path fill="none" stroke="black" d="M5187.73,-1810.14C5176.15,-1800.13 5160.66,-1787.76 5145.5,-1778.84 4785.38,-1566.85 4305.66,-1406.77 4132.4,-1352.44"/>
<polygon fill="black" stroke="black" points="4133.25,-1349.04 4122.66,-1349.4 4131.16,-1355.72 4133.25,-1349.04"/>
</g>
<!-- gap_open_pen -->
<g id="node26" class="node">
<title>gap_open_pen</title>
<polygon fill="#94ddf4" stroke="black" points="5019,-1810.34 5019,-1846.34 5136,-1846.34 5136,-1810.34 5019,-1810.34"/>
<text text-anchor="middle" x="5077.5" y="-1824.64" font-family="Times,serif" font-size="14.00">gap_open_pen</text>
</g>
<!-- gap_open_pen&#45;&gt;run_dragen_alignment_step -->
<g id="edge29" class="edge">
<title>gap_open_pen&#45;&gt;run_dragen_alignment_step</title>
<path fill="none" stroke="black" d="M5056.16,-1810.34C5043.33,-1800.51 5026.44,-1788.27 5010.5,-1778.84 4685.98,-1586.87 4265.72,-1412.13 4119.45,-1353.32"/>
<polygon fill="black" stroke="black" points="4120.39,-1349.92 4109.8,-1349.45 4117.78,-1356.42 4120.39,-1349.92"/>
</g>
<!-- generate_md_tags -->
<g id="node27" class="node">
<title>generate_md_tags</title>
<polygon fill="#94ddf4" stroke="black" points="4854,-1810.34 4854,-1846.34 5001,-1846.34 5001,-1810.34 4854,-1810.34"/>
<text text-anchor="middle" x="4927.5" y="-1824.64" font-family="Times,serif" font-size="14.00">generate_md_tags</text>
</g>
<!-- generate_md_tags&#45;&gt;run_dragen_alignment_step -->
<g id="edge30" class="edge">
<title>generate_md_tags&#45;&gt;run_dragen_alignment_step</title>
<path fill="none" stroke="black" d="M4898.34,-1810.22C4882.44,-1800.91 4862.41,-1789.21 4844.5,-1778.84 4561.41,-1614.9 4219.07,-1419.37 4105.32,-1354.48"/>
<polygon fill="black" stroke="black" points="4107.01,-1351.41 4096.59,-1349.49 4103.54,-1357.49 4107.01,-1351.41"/>
</g>
<!-- generate_sa_tags -->
<g id="node28" class="node">
<title>generate_sa_tags</title>
<polygon fill="#94ddf4" stroke="black" points="4695.5,-1810.34 4695.5,-1846.34 4835.5,-1846.34 4835.5,-1810.34 4695.5,-1810.34"/>
<text text-anchor="middle" x="4765.5" y="-1824.64" font-family="Times,serif" font-size="14.00">generate_sa_tags</text>
</g>
<!-- generate_sa_tags&#45;&gt;run_dragen_alignment_step -->
<g id="edge31" class="edge">
<title>generate_sa_tags&#45;&gt;run_dragen_alignment_step</title>
<path fill="none" stroke="black" d="M4741.44,-1810.3C4636.63,-1736.08 4219.83,-1440.92 4099.3,-1355.57"/>
<polygon fill="black" stroke="black" points="4101,-1352.48 4090.82,-1349.56 4096.96,-1358.2 4101,-1352.48"/>
</g>
<!-- generate_zs_tags -->
<g id="node29" class="node">
<title>generate_zs_tags</title>
<polygon fill="#94ddf4" stroke="black" points="4537.5,-1810.34 4537.5,-1846.34 4677.5,-1846.34 4677.5,-1810.34 4537.5,-1810.34"/>
<text text-anchor="middle" x="4607.5" y="-1824.64" font-family="Times,serif" font-size="14.00">generate_zs_tags</text>
</g>
<!-- generate_zs_tags&#45;&gt;run_dragen_alignment_step -->
<g id="edge32" class="edge">
<title>generate_zs_tags&#45;&gt;run_dragen_alignment_step</title>
<path fill="none" stroke="black" d="M4588.88,-1810.3C4508.01,-1736.3 4187.11,-1442.69 4092.73,-1356.34"/>
<polygon fill="black" stroke="black" points="4095.06,-1353.73 4085.32,-1349.56 4090.34,-1358.89 4095.06,-1353.73"/>
</g>
<!-- global -->
<g id="node30" class="node">
<title>global</title>
<polygon fill="#94ddf4" stroke="black" points="4459.5,-1810.34 4459.5,-1846.34 4519.5,-1846.34 4519.5,-1810.34 4459.5,-1810.34"/>
<text text-anchor="middle" x="4489.5" y="-1824.64" font-family="Times,serif" font-size="14.00">global</text>
</g>
<!-- global&#45;&gt;run_dragen_alignment_step -->
<g id="edge33" class="edge">
<title>global&#45;&gt;run_dragen_alignment_step</title>
<path fill="none" stroke="black" d="M4476.33,-1810.12C4469.1,-1800.78 4459.92,-1789.08 4451.5,-1778.84 4316.89,-1615.11 4148.14,-1424.1 4088.56,-1357.08"/>
<polygon fill="black" stroke="black" points="4091.1,-1354.68 4081.84,-1349.53 4085.87,-1359.33 4091.1,-1354.68"/>
</g>
<!-- hard_clips -->
<g id="node31" class="node">
<title>hard_clips</title>
<polygon fill="#94ddf4" stroke="black" points="4353,-1810.34 4353,-1846.34 4442,-1846.34 4442,-1810.34 4353,-1810.34"/>
<text text-anchor="middle" x="4397.5" y="-1824.64" font-family="Times,serif" font-size="14.00">hard_clips</text>
</g>
<!-- hard_clips&#45;&gt;run_dragen_alignment_step -->
<g id="edge34" class="edge">
<title>hard_clips&#45;&gt;run_dragen_alignment_step</title>
<path fill="none" stroke="black" d="M4386.11,-1810.3C4336.92,-1736.75 4142.65,-1446.22 4083.61,-1357.93"/>
<polygon fill="black" stroke="black" points="4086.48,-1355.93 4078.02,-1349.56 4080.67,-1359.82 4086.48,-1355.93"/>
</g>
<!-- map_orientations -->
<g id="node32" class="node">
<title>map_orientations</title>
<polygon fill="#94ddf4" stroke="black" points="4194.5,-1810.34 4194.5,-1846.34 4334.5,-1846.34 4334.5,-1810.34 4194.5,-1810.34"/>
<text text-anchor="middle" x="4264.5" y="-1824.64" font-family="Times,serif" font-size="14.00">map_orientations</text>
</g>
<!-- map_orientations&#45;&gt;run_dragen_alignment_step -->
<g id="edge35" class="edge">
<title>map_orientations&#45;&gt;run_dragen_alignment_step</title>
<path fill="none" stroke="black" d="M4257.68,-1810.3C4228.38,-1737.05 4112.99,-1448.57 4077.17,-1359.01"/>
<polygon fill="black" stroke="black" points="4080.35,-1357.55 4073.39,-1349.56 4073.85,-1360.15 4080.35,-1357.55"/>
</g>
<!-- mapq_max -->
<g id="node33" class="node">
<title>mapq_max</title>
<polygon fill="#94ddf4" stroke="black" points="4083,-1810.34 4083,-1846.34 4176,-1846.34 4176,-1810.34 4083,-1810.34"/>
<text text-anchor="middle" x="4129.5" y="-1824.64" font-family="Times,serif" font-size="14.00">mapq_max</text>
</g>
<!-- mapq_max&#45;&gt;run_dragen_alignment_step -->
<g id="edge36" class="edge">
<title>mapq_max&#45;&gt;run_dragen_alignment_step</title>
<path fill="none" stroke="black" d="M4127.33,-1810.3C4118.03,-1737.2 4081.44,-1449.73 4069.96,-1359.55"/>
<polygon fill="black" stroke="black" points="4073.43,-1359.04 4068.69,-1349.56 4066.48,-1359.92 4073.43,-1359.04"/>
</g>
<!-- mapq_strict_js -->
<g id="node34" class="node">
<title>mapq_strict_js</title>
<polygon fill="#94ddf4" stroke="black" points="3944.5,-1810.34 3944.5,-1846.34 4064.5,-1846.34 4064.5,-1810.34 3944.5,-1810.34"/>
<text text-anchor="middle" x="4004.5" y="-1824.64" font-family="Times,serif" font-size="14.00">mapq_strict_js</text>
</g>
<!-- mapq_strict_js&#45;&gt;run_dragen_alignment_step -->
<g id="edge37" class="edge">
<title>mapq_strict_js&#45;&gt;run_dragen_alignment_step</title>
<path fill="none" stroke="black" d="M4006.63,-1810.3C4015.79,-1737.2 4051.8,-1449.73 4063.09,-1359.55"/>
<polygon fill="black" stroke="black" points="4066.57,-1359.92 4064.34,-1349.56 4059.63,-1359.05 4066.57,-1359.92"/>
</g>
<!-- match_n_score -->
<g id="node35" class="node">
<title>match_n_score</title>
<polygon fill="#94ddf4" stroke="black" points="3804.5,-1810.34 3804.5,-1846.34 3926.5,-1846.34 3926.5,-1810.34 3804.5,-1810.34"/>
<text text-anchor="middle" x="3865.5" y="-1824.64" font-family="Times,serif" font-size="14.00">match_n_score</text>
</g>
<!-- match_n_score&#45;&gt;run_dragen_alignment_step -->
<g id="edge38" class="edge">
<title>match_n_score&#45;&gt;run_dragen_alignment_step</title>
<path fill="none" stroke="black" d="M3872.42,-1810.3C3902.16,-1737.05 4019.3,-1448.57 4055.67,-1359.01"/>
<polygon fill="black" stroke="black" points="4058.99,-1360.14 4059.51,-1349.56 4052.5,-1357.51 4058.99,-1360.14"/>
</g>
<!-- match_score -->
<g id="node36" class="node">
<title>match_score</title>
<polygon fill="#94ddf4" stroke="black" points="3680.5,-1810.34 3680.5,-1846.34 3786.5,-1846.34 3786.5,-1810.34 3680.5,-1810.34"/>
<text text-anchor="middle" x="3733.5" y="-1824.64" font-family="Times,serif" font-size="14.00">match_score</text>
</g>
<!-- match_score&#45;&gt;run_dragen_alignment_step -->
<g id="edge39" class="edge">
<title>match_score&#45;&gt;run_dragen_alignment_step</title>
<path fill="none" stroke="black" d="M3744.96,-1810.3C3794.44,-1736.75 3989.89,-1446.22 4049.29,-1357.93"/>
<polygon fill="black" stroke="black" points="4052.24,-1359.81 4054.91,-1349.56 4046.43,-1355.91 4052.24,-1359.81"/>
</g>
<!-- max_intron_bases -->
<g id="node37" class="node">
<title>max_intron_bases</title>
<polygon fill="#94ddf4" stroke="black" points="3518.5,-1810.34 3518.5,-1846.34 3662.5,-1846.34 3662.5,-1810.34 3518.5,-1810.34"/>
<text text-anchor="middle" x="3590.5" y="-1824.64" font-family="Times,serif" font-size="14.00">max_intron_bases</text>
</g>
<!-- max_intron_bases&#45;&gt;run_dragen_alignment_step -->
<g id="edge40" class="edge">
<title>max_intron_bases&#45;&gt;run_dragen_alignment_step</title>
<path fill="none" stroke="black" d="M3606.88,-1810.3C3677.9,-1736.45 3959.25,-1443.87 4042.91,-1356.87"/>
<polygon fill="black" stroke="black" points="4045.53,-1359.2 4049.94,-1349.56 4040.48,-1354.34 4045.53,-1359.2"/>
</g>
<!-- max_rescues -->
<g id="node38" class="node">
<title>max_rescues</title>
<polygon fill="#94ddf4" stroke="black" points="3392.5,-1810.34 3392.5,-1846.34 3500.5,-1846.34 3500.5,-1810.34 3392.5,-1810.34"/>
<text text-anchor="middle" x="3446.5" y="-1824.64" font-family="Times,serif" font-size="14.00">max_rescues</text>
</g>
<!-- max_rescues&#45;&gt;run_dragen_alignment_step -->
<g id="edge41" class="edge">
<title>max_rescues&#45;&gt;run_dragen_alignment_step</title>
<path fill="none" stroke="black" d="M3467.84,-1810.3C3560.71,-1736.16 3929.76,-1441.51 4037.08,-1355.83"/>
<polygon fill="black" stroke="black" points="4039.3,-1358.54 4044.93,-1349.56 4034.93,-1353.07 4039.3,-1358.54"/>
</g>
<!-- min_intron_bases -->
<g id="node39" class="node">
<title>min_intron_bases</title>
<polygon fill="#94ddf4" stroke="black" points="3233,-1810.34 3233,-1846.34 3374,-1846.34 3374,-1810.34 3233,-1810.34"/>
<text text-anchor="middle" x="3303.5" y="-1824.64" font-family="Times,serif" font-size="14.00">min_intron_bases</text>
</g>
<!-- min_intron_bases&#45;&gt;run_dragen_alignment_step -->
<g id="edge42" class="edge">
<title>min_intron_bases&#45;&gt;run_dragen_alignment_step</title>
<path fill="none" stroke="black" d="M3329.76,-1810.3C3444.39,-1735.93 3900.95,-1439.74 4031.48,-1355.06"/>
<polygon fill="black" stroke="black" points="4033.47,-1357.94 4039.95,-1349.56 4029.66,-1352.07 4033.47,-1357.94"/>
</g>
<!-- min_score_coeff -->
<g id="node40" class="node">
<title>min_score_coeff</title>
<polygon fill="#94ddf4" stroke="black" points="3086,-1810.34 3086,-1846.34 3215,-1846.34 3215,-1810.34 3086,-1810.34"/>
<text text-anchor="middle" x="3150.5" y="-1824.64" font-family="Times,serif" font-size="14.00">min_score_coeff</text>
</g>
<!-- min_score_coeff&#45;&gt;run_dragen_alignment_step -->
<g id="edge43" class="edge">
<title>min_score_coeff&#45;&gt;run_dragen_alignment_step</title>
<path fill="none" stroke="black" d="M3175.48,-1810.14C3189.65,-1800.59 3207.84,-1788.69 3224.5,-1778.84 3522.57,-1602.64 3895.96,-1416.15 4022.36,-1353.93"/>
<polygon fill="black" stroke="black" points="4023.95,-1357.05 4031.38,-1349.5 4020.86,-1350.77 4023.95,-1357.05"/>
</g>
<!-- mismatch_pen -->
<g id="node41" class="node">
<title>mismatch_pen</title>
<polygon fill="#94ddf4" stroke="black" points="2949,-1810.34 2949,-1846.34 3068,-1846.34 3068,-1810.34 2949,-1810.34"/>
<text text-anchor="middle" x="3008.5" y="-1824.64" font-family="Times,serif" font-size="14.00">mismatch_pen</text>
</g>
<!-- mismatch_pen&#45;&gt;run_dragen_alignment_step -->
<g id="edge44" class="edge">
<title>mismatch_pen&#45;&gt;run_dragen_alignment_step</title>
<path fill="none" stroke="black" d="M3030.48,-1810.28C3043.7,-1800.44 3061.09,-1788.2 3077.5,-1778.84 3417.96,-1584.64 3858.27,-1411.18 4011.25,-1353.02"/>
<polygon fill="black" stroke="black" points="4012.8,-1356.18 4020.91,-1349.36 4010.32,-1349.63 4012.8,-1356.18"/>
</g>
<!-- no_unclip_score -->
<g id="node42" class="node">
<title>no_unclip_score</title>
<polygon fill="#94ddf4" stroke="black" points="2802,-1810.34 2802,-1846.34 2931,-1846.34 2931,-1810.34 2802,-1810.34"/>
<text text-anchor="middle" x="2866.5" y="-1824.64" font-family="Times,serif" font-size="14.00">no_unclip_score</text>
</g>
<!-- no_unclip_score&#45;&gt;run_dragen_alignment_step -->
<g id="edge45" class="edge">
<title>no_unclip_score&#45;&gt;run_dragen_alignment_step</title>
<path fill="none" stroke="black" d="M2890.08,-1810.11C2904.26,-1800.21 2922.91,-1787.97 2940.5,-1778.84 3328.38,-1577.47 3828.56,-1408.79 4003.08,-1352.43"/>
<polygon fill="black" stroke="black" points="4004.18,-1355.76 4012.63,-1349.36 4002.04,-1349.09 4004.18,-1355.76"/>
</g>
<!-- no_unpaired -->
<g id="node43" class="node">
<title>no_unpaired</title>
<polygon fill="#94ddf4" stroke="black" points="2679.5,-1810.34 2679.5,-1846.34 2783.5,-1846.34 2783.5,-1810.34 2679.5,-1810.34"/>
<text text-anchor="middle" x="2731.5" y="-1824.64" font-family="Times,serif" font-size="14.00">no_unpaired</text>
</g>
<!-- no_unpaired&#45;&gt;run_dragen_alignment_step -->
<g id="edge46" class="edge">
<title>no_unpaired&#45;&gt;run_dragen_alignment_step</title>
<path fill="none" stroke="black" d="M2749.91,-1810.32C2761.68,-1800.12 2777.67,-1787.5 2793.5,-1778.84 3212.68,-1549.52 3772.22,-1402.13 3982.19,-1351.73"/>
<polygon fill="black" stroke="black" points="3983.01,-1355.13 3991.92,-1349.4 3981.38,-1348.32 3983.01,-1355.13"/>
</g>
<!-- pe_max_penalty -->
<g id="node44" class="node">
<title>pe_max_penalty</title>
<polygon fill="#94ddf4" stroke="black" points="2530,-1810.34 2530,-1846.34 2661,-1846.34 2661,-1810.34 2530,-1810.34"/>
<text text-anchor="middle" x="2595.5" y="-1824.64" font-family="Times,serif" font-size="14.00">pe_max_penalty</text>
</g>
<!-- pe_max_penalty&#45;&gt;run_dragen_alignment_step -->
<g id="edge47" class="edge">
<title>pe_max_penalty&#45;&gt;run_dragen_alignment_step</title>
<path fill="none" stroke="black" d="M2618.55,-1810.15C2632.93,-1800.02 2652.14,-1787.52 2670.5,-1778.84 3142.56,-1555.57 3754.89,-1403.33 3979.23,-1351.72"/>
<polygon fill="black" stroke="black" points="3980.33,-1355.06 3989.3,-1349.41 3978.77,-1348.23 3980.33,-1355.06"/>
</g>
<!-- pe_orientation -->
<g id="node45" class="node">
<title>pe_orientation</title>
<polygon fill="#94ddf4" stroke="black" points="2393,-1810.34 2393,-1846.34 2512,-1846.34 2512,-1810.34 2393,-1810.34"/>
<text text-anchor="middle" x="2452.5" y="-1824.64" font-family="Times,serif" font-size="14.00">pe_orientation</text>
</g>
<!-- pe_orientation&#45;&gt;run_dragen_alignment_step -->
<g id="edge48" class="edge">
<title>pe_orientation&#45;&gt;run_dragen_alignment_step</title>
<path fill="none" stroke="black" d="M2473.12,-1810.11C2486.27,-1799.83 2504.07,-1787.19 2521.5,-1778.84 3029.28,-1535.43 3695.89,-1398.42 3955.92,-1351.24"/>
<polygon fill="black" stroke="black" points="3956.91,-1354.62 3966.13,-1349.4 3955.66,-1347.73 3956.91,-1354.62"/>
</g>
<!-- preserve_map_align_order -->
<g id="node46" class="node">
<title>preserve_map_align_order</title>
<polygon fill="#94ddf4" stroke="black" points="2170,-1810.34 2170,-1846.34 2375,-1846.34 2375,-1810.34 2170,-1810.34"/>
<text text-anchor="middle" x="2272.5" y="-1824.64" font-family="Times,serif" font-size="14.00">preserve_map_align_order</text>
</g>
<!-- preserve_map_align_order&#45;&gt;run_dragen_alignment_step -->
<g id="edge49" class="edge">
<title>preserve_map_align_order&#45;&gt;run_dragen_alignment_step</title>
<path fill="none" stroke="black" d="M2308.02,-1810.34C2329.78,-1800.33 2358.38,-1787.91 2384.5,-1778.84 2979.16,-1572.45 3719.94,-1406.26 3975.15,-1351.54"/>
<polygon fill="black" stroke="black" points="3976.07,-1354.92 3985.12,-1349.41 3974.61,-1348.08 3976.07,-1354.92"/>
</g>
<!-- reference_tar -->
<g id="node47" class="node">
<title>reference_tar</title>
<polygon fill="#94ddf4" stroke="black" points="2039,-1810.34 2039,-1846.34 2152,-1846.34 2152,-1810.34 2039,-1810.34"/>
<text text-anchor="middle" x="2095.5" y="-1824.64" font-family="Times,serif" font-size="14.00">reference_tar</text>
</g>
<!-- reference_tar&#45;&gt;run_dragen_alignment_step -->
<g id="edge50" class="edge">
<title>reference_tar&#45;&gt;run_dragen_alignment_step</title>
<path fill="none" stroke="black" d="M2114.39,-1810.23C2126.92,-1799.73 2144.2,-1786.82 2161.5,-1778.84 2800.52,-1484.24 3652.7,-1374.05 3954.67,-1342.73"/>
<polygon fill="black" stroke="black" points="3955.16,-1346.2 3964.75,-1341.69 3954.44,-1339.23 3955.16,-1346.2"/>
</g>
<!-- remove_duplicates -->
<g id="node48" class="node">
<title>remove_duplicates</title>
<polygon fill="#94ddf4" stroke="black" points="1870.5,-1810.34 1870.5,-1846.34 2020.5,-1846.34 2020.5,-1810.34 1870.5,-1810.34"/>
<text text-anchor="middle" x="1945.5" y="-1824.64" font-family="Times,serif" font-size="14.00">remove_duplicates</text>
</g>
<!-- remove_duplicates&#45;&gt;run_dragen_alignment_step -->
<g id="edge51" class="edge">
<title>remove_duplicates&#45;&gt;run_dragen_alignment_step</title>
<path fill="none" stroke="black" d="M1970.9,-1810.13C1987.29,-1799.73 2009.41,-1786.95 2030.5,-1778.84 2734.66,-1507.99 3642.25,-1382.16 3954.9,-1344.78"/>
<polygon fill="black" stroke="black" points="3955.35,-1348.25 3964.87,-1343.6 3954.53,-1341.3 3955.35,-1348.25"/>
</g>
<!-- rescue_sigmas -->
<g id="node49" class="node">
<title>rescue_sigmas</title>
<polygon fill="#94ddf4" stroke="black" points="1731,-1810.34 1731,-1846.34 1852,-1846.34 1852,-1810.34 1731,-1810.34"/>
<text text-anchor="middle" x="1791.5" y="-1824.64" font-family="Times,serif" font-size="14.00">rescue_sigmas</text>
</g>
<!-- rescue_sigmas&#45;&gt;run_dragen_alignment_step -->
<g id="edge52" class="edge">
<title>rescue_sigmas&#45;&gt;run_dragen_alignment_step</title>
<path fill="none" stroke="black" d="M1811.33,-1810.32C1824.68,-1799.72 1843.14,-1786.66 1861.5,-1778.84 2618.55,-1456.21 3623.04,-1362.2 3954.88,-1339.03"/>
<polygon fill="black" stroke="black" points="3955.25,-1342.51 3964.98,-1338.33 3954.76,-1335.53 3955.25,-1342.51"/>
</g>
<!-- sec_aligns -->
<g id="node50" class="node">
<title>sec_aligns</title>
<polygon fill="#94ddf4" stroke="black" points="1624,-1810.34 1624,-1846.34 1713,-1846.34 1713,-1810.34 1624,-1810.34"/>
<text text-anchor="middle" x="1668.5" y="-1824.64" font-family="Times,serif" font-size="14.00">sec_aligns</text>
</g>
<!-- sec_aligns&#45;&gt;run_dragen_alignment_step -->
<g id="edge53" class="edge">
<title>sec_aligns&#45;&gt;run_dragen_alignment_step</title>
<path fill="none" stroke="black" d="M1683.29,-1809.9C1693.28,-1799.27 1707.37,-1786.34 1722.5,-1778.84 2511.17,-1388.08 3605.31,-1338.39 3954.63,-1332.78"/>
<polygon fill="black" stroke="black" points="3954.8,-1336.28 3964.74,-1332.63 3954.69,-1329.28 3954.8,-1336.28"/>
</g>
<!-- sec_aligns_hard -->
<g id="node51" class="node">
<title>sec_aligns_hard</title>
<polygon fill="#94ddf4" stroke="black" points="1477,-1810.34 1477,-1846.34 1606,-1846.34 1606,-1810.34 1477,-1810.34"/>
<text text-anchor="middle" x="1541.5" y="-1824.64" font-family="Times,serif" font-size="14.00">sec_aligns_hard</text>
</g>
<!-- sec_aligns_hard&#45;&gt;run_dragen_alignment_step -->
<g id="edge54" class="edge">
<title>sec_aligns_hard&#45;&gt;run_dragen_alignment_step</title>
<path fill="none" stroke="black" d="M1562.56,-1810.23C1576.72,-1799.6 1596.24,-1786.53 1615.5,-1778.84 2471.05,-1436.94 3599.82,-1354.88 3954.76,-1336.96"/>
<polygon fill="black" stroke="black" points="3954.97,-1340.45 3964.78,-1336.46 3954.62,-1333.46 3954.97,-1340.45"/>
</g>
<!-- sec_phred_delta -->
<g id="node52" class="node">
<title>sec_phred_delta</title>
<polygon fill="#94ddf4" stroke="black" points="1328,-1810.34 1328,-1846.34 1459,-1846.34 1459,-1810.34 1328,-1810.34"/>
<text text-anchor="middle" x="1393.5" y="-1824.64" font-family="Times,serif" font-size="14.00">sec_phred_delta</text>
</g>
<!-- sec_phred_delta&#45;&gt;run_dragen_alignment_step -->
<g id="edge55" class="edge">
<title>sec_phred_delta&#45;&gt;run_dragen_alignment_step</title>
<path fill="none" stroke="black" d="M1414.86,-1810.18C1429.21,-1799.52 1449,-1786.45 1468.5,-1778.84 2381.89,-1422.34 3586.07,-1349.82 3954.59,-1335.65"/>
<polygon fill="black" stroke="black" points="3954.86,-1339.14 3964.72,-1335.26 3954.6,-1332.14 3954.86,-1339.14"/>
</g>
<!-- sec_score_delta -->
<g id="node53" class="node">
<title>sec_score_delta</title>
<polygon fill="#94ddf4" stroke="black" points="1181.5,-1810.34 1181.5,-1846.34 1309.5,-1846.34 1309.5,-1810.34 1181.5,-1810.34"/>
<text text-anchor="middle" x="1245.5" y="-1824.64" font-family="Times,serif" font-size="14.00">sec_score_delta</text>
</g>
<!-- sec_score_delta&#45;&gt;run_dragen_alignment_step -->
<g id="edge56" class="edge">
<title>sec_score_delta&#45;&gt;run_dragen_alignment_step</title>
<path fill="none" stroke="black" d="M1266.51,-1810.11C1280.65,-1799.43 1300.17,-1786.35 1319.5,-1778.84 2289.9,-1401.73 3572.85,-1343.12 3954.73,-1334.01"/>
<polygon fill="black" stroke="black" points="3955.03,-1337.51 3964.94,-1333.78 3954.86,-1330.51 3955.03,-1337.51"/>
</g>
<!-- seed_density -->
<g id="node54" class="node">
<title>seed_density</title>
<polygon fill="#94ddf4" stroke="black" points="1054,-1810.34 1054,-1846.34 1163,-1846.34 1163,-1810.34 1054,-1810.34"/>
<text text-anchor="middle" x="1108.5" y="-1824.64" font-family="Times,serif" font-size="14.00">seed_density</text>
</g>
<!-- seed_density&#45;&gt;run_dragen_alignment_step -->
<g id="edge57" class="edge">
<title>seed_density&#45;&gt;run_dragen_alignment_step</title>
<path fill="none" stroke="black" d="M1126,-1810.24C1138.07,-1799.46 1155.04,-1786.24 1172.5,-1778.84 1692.2,-1558.64 3487.64,-1384.51 3954.72,-1342.2"/>
<polygon fill="black" stroke="black" points="3955.2,-1345.67 3964.84,-1341.28 3954.57,-1338.7 3955.2,-1345.67"/>
</g>
<!-- supp_aligns -->
<g id="node55" class="node">
<title>supp_aligns</title>
<polygon fill="#94ddf4" stroke="black" points="935,-1810.34 935,-1846.34 1036,-1846.34 1036,-1810.34 935,-1810.34"/>
<text text-anchor="middle" x="985.5" y="-1824.64" font-family="Times,serif" font-size="14.00">supp_aligns</text>
</g>
<!-- supp_aligns&#45;&gt;run_dragen_alignment_step -->
<g id="edge58" class="edge">
<title>supp_aligns&#45;&gt;run_dragen_alignment_step</title>
<path fill="none" stroke="black" d="M1001.69,-1810.18C1012.93,-1799.39 1028.82,-1786.15 1045.5,-1778.84 1586.51,-1541.59 3474.85,-1379.05 3954.85,-1340.93"/>
<polygon fill="black" stroke="black" points="3955.21,-1344.41 3964.91,-1340.13 3954.66,-1337.43 3955.21,-1344.41"/>
</g>
<!-- supp_as_sec -->
<g id="node56" class="node">
<title>supp_as_sec</title>
<polygon fill="#94ddf4" stroke="black" points="812.5,-1810.34 812.5,-1846.34 916.5,-1846.34 916.5,-1810.34 812.5,-1810.34"/>
<text text-anchor="middle" x="864.5" y="-1824.64" font-family="Times,serif" font-size="14.00">supp_as_sec</text>
</g>
<!-- supp_as_sec&#45;&gt;run_dragen_alignment_step -->
<g id="edge59" class="edge">
<title>supp_as_sec&#45;&gt;run_dragen_alignment_step</title>
<path fill="none" stroke="black" d="M881.33,-1810.16C892.97,-1799.35 909.4,-1786.12 926.5,-1778.84 1492.56,-1537.82 3463.04,-1377.35 3954.7,-1340.46"/>
<polygon fill="black" stroke="black" points="3955.28,-1343.93 3964.99,-1339.69 3954.75,-1336.95 3955.28,-1343.93"/>
</g>
<!-- supp_min_score_adj -->
<g id="node57" class="node">
<title>supp_min_score_adj</title>
<polygon fill="#94ddf4" stroke="black" points="636.5,-1810.34 636.5,-1846.34 794.5,-1846.34 794.5,-1810.34 636.5,-1810.34"/>
<text text-anchor="middle" x="715.5" y="-1824.64" font-family="Times,serif" font-size="14.00">supp_min_score_adj</text>
</g>
<!-- supp_min_score_adj&#45;&gt;run_dragen_alignment_step -->
<g id="edge60" class="edge">
<title>supp_min_score_adj&#45;&gt;run_dragen_alignment_step</title>
<path fill="none" stroke="black" d="M740.53,-1810.28C757.55,-1799.52 780.98,-1786.3 803.5,-1778.84 1990.67,-1385.62 3531.16,-1338.39 3954.61,-1332.97"/>
<polygon fill="black" stroke="black" points="3954.75,-1336.47 3964.7,-1332.85 3954.66,-1329.47 3954.75,-1336.47"/>
</g>
<!-- unclip_score -->
<g id="node58" class="node">
<title>unclip_score</title>
<polygon fill="#94ddf4" stroke="black" points="513,-1810.34 513,-1846.34 618,-1846.34 618,-1810.34 513,-1810.34"/>
<text text-anchor="middle" x="565.5" y="-1824.64" font-family="Times,serif" font-size="14.00">unclip_score</text>
</g>
<!-- unclip_score&#45;&gt;run_dragen_alignment_step -->
<g id="edge61" class="edge">
<title>unclip_score&#45;&gt;run_dragen_alignment_step</title>
<path fill="none" stroke="black" d="M582.04,-1810.33C593.69,-1799.45 610.23,-1786.07 627.5,-1778.84 1252.12,-1517.35 3434.29,-1370.65 3954.53,-1338.91"/>
<polygon fill="black" stroke="black" points="3954.9,-1342.4 3964.67,-1338.3 3954.47,-1335.41 3954.9,-1342.4"/>
</g>
<!-- unpaired_pen -->
<g id="node59" class="node">
<title>unpaired_pen</title>
<polygon fill="#94ddf4" stroke="black" points="382,-1810.34 382,-1846.34 495,-1846.34 495,-1810.34 382,-1810.34"/>
<text text-anchor="middle" x="438.5" y="-1824.64" font-family="Times,serif" font-size="14.00">unpaired_pen</text>
</g>
<!-- unpaired_pen&#45;&gt;run_dragen_alignment_step -->
<g id="edge62" class="edge">
<title>unpaired_pen&#45;&gt;run_dragen_alignment_step</title>
<path fill="none" stroke="black" d="M456.29,-1810.32C468.77,-1799.43 486.4,-1786.05 504.5,-1778.84 1157.11,-1518.77 3422.67,-1370.48 3954.25,-1338.79"/>
<polygon fill="black" stroke="black" points="3954.83,-1342.26 3964.6,-1338.17 3954.41,-1335.27 3954.83,-1342.26"/>
</g>
<!-- verbose -->
<g id="node60" class="node">
<title>verbose</title>
<polygon fill="#94ddf4" stroke="black" points="8228,-1810.34 8228,-1846.34 8301,-1846.34 8301,-1810.34 8228,-1810.34"/>
<text text-anchor="middle" x="8264.5" y="-1824.64" font-family="Times,serif" font-size="14.00">verbose</text>
</g>
<!-- verbose&#45;&gt;run_dragen_alignment_step -->
<g id="edge63" class="edge">
<title>verbose&#45;&gt;run_dragen_alignment_step</title>
<path fill="none" stroke="black" d="M8253.31,-1809.98C8245.29,-1799.09 8233.46,-1785.84 8219.5,-1778.84 7480.68,-1408.22 4764.39,-1343.6 4178.4,-1333.9"/>
<polygon fill="black" stroke="black" points="4178.32,-1330.39 4168.26,-1333.73 4178.2,-1337.39 4178.32,-1330.39"/>
</g>
</g>
</svg>
