<?xml version="1.0" encoding="UTF-8" standalone="no"?>
<!DOCTYPE svg PUBLIC "-//W3C//DTD SVG 1.1//EN"
 "http://www.w3.org/Graphics/SVG/1.1/DTD/svg11.dtd">
<!-- Generated by graphviz version 2.43.0 (0)
 -->
<!-- Title: G Pages: 1 -->
<svg width="1217pt" height="629pt"
 viewBox="0.00 0.00 1217.00 629.43" xmlns="http://www.w3.org/2000/svg" xmlns:xlink="http://www.w3.org/1999/xlink">
<g id="graph0" class="graph" transform="scale(1 1) rotate(0) translate(4 625.43)">
<title>G</title>
<polygon fill="#eeeeee" stroke="transparent" points="-4,4 -4,-625.43 1213,-625.43 1213,4 -4,4"/>
<g id="clust1" class="cluster">
<title>cluster_inputs</title>
<polygon fill="#eeeeee" stroke="black" stroke-dasharray="5,2" points="8,-403.16 8,-600.88 1144,-600.88 1144,-403.16 8,-403.16"/>
<text text-anchor="middle" x="1077.5" y="-410.96" font-family="Times,serif" font-size="14.00">Workflow Inputs</text>
</g>
<g id="clust2" class="cluster">
<title>cluster_outputs</title>
<polygon fill="#eeeeee" stroke="black" stroke-dasharray="5,2" points="231,-20.54 231,-218.27 887,-218.27 887,-20.54 231,-20.54"/>
<text text-anchor="middle" x="814.5" y="-28.34" font-family="Times,serif" font-size="14.00">Workflow Outputs</text>
</g>
<!-- enable_duplicate_marking -->
<g id="node1" class="node">
<title>enable_duplicate_marking</title>
<g id="a_node1"><a xlink:title="Mark identical alignments as duplicates&#10;">
<polygon fill="#94ddf4" stroke="black" points="933.5,-513.04 933.5,-550.04 1136.5,-550.04 1136.5,-513.04 933.5,-513.04"/>
<text text-anchor="middle" x="1035" y="-527.84" font-family="Times,serif" font-size="14.00">enable_duplicate_marking</text>
</a>
</g>
</g>
<!-- run_dragen_step -->
<g id="node11" class="node">
<title>run_dragen_step</title>
<ellipse fill="none" stroke="black" cx="522" cy="-336.54" rx="88.5" ry="18"/>
<text text-anchor="middle" x="522" y="-332.84" font-family="Times,serif" font-size="14.00">run_dragen_step</text>
</g>
<!-- enable_duplicate_marking&#45;&gt;run_dragen_step -->
<g id="edge1" class="edge">
<title>enable_duplicate_marking&#45;&gt;run_dragen_step</title>
<path fill="none" stroke="black" d="M997.38,-512.93C976.27,-503.27 949.35,-491.3 925,-481.54 801.65,-432.12 653.95,-381.47 576.13,-355.43"/>
<polygon fill="black" stroke="black" points="577.13,-352.07 566.54,-352.22 574.92,-358.71 577.13,-352.07"/>
</g>
<!-- enable_map_align_output -->
<g id="node2" class="node">
<title>enable_map_align_output</title>
<g id="a_node2"><a xlink:title="Do you wish to have the output bam files present&#10;">
<polygon fill="#94ddf4" stroke="black" points="718.5,-513.04 718.5,-550.04 915.5,-550.04 915.5,-513.04 718.5,-513.04"/>
<text text-anchor="middle" x="817" y="-527.84" font-family="Times,serif" font-size="14.00">enable_map_align_output</text>
</a>
</g>
</g>
<!-- enable_map_align_output&#45;&gt;run_dragen_step -->
<g id="edge2" class="edge">
<title>enable_map_align_output&#45;&gt;run_dragen_step</title>
<path fill="none" stroke="black" d="M790.04,-512.9C736.06,-477.59 614.83,-398.28 555.71,-359.6"/>
<polygon fill="black" stroke="black" points="557.4,-356.52 547.11,-353.97 553.56,-362.38 557.4,-356.52"/>
</g>
<!-- enable_sort -->
<g id="node3" class="node">
<title>enable_sort</title>
<g id="a_node3"><a xlink:title="The map/align system produces a BAM file sorted by &#10;reference sequence and position by default.&#10;">
<polygon fill="#94ddf4" stroke="black" points="601.5,-513.04 601.5,-550.04 700.5,-550.04 700.5,-513.04 601.5,-513.04"/>
<text text-anchor="middle" x="651" y="-527.84" font-family="Times,serif" font-size="14.00">enable_sort</text>
</a>
</g>
</g>
<!-- enable_sort&#45;&gt;run_dragen_step -->
<g id="edge3" class="edge">
<title>enable_sort&#45;&gt;run_dragen_step</title>
<path fill="none" stroke="black" d="M639.1,-512.73C616.07,-478.29 565.39,-402.47 538.9,-362.82"/>
<polygon fill="black" stroke="black" points="541.79,-360.85 533.32,-354.48 535.97,-364.74 541.79,-360.85"/>
</g>
<!-- fastq_list_rows -->
<g id="node4" class="node">
<title>fastq_list_rows</title>
<g id="a_node4"><a xlink:title="The row of fastq lists.&#10;Each row has the following attributes:&#10; &#160;* RGID&#10; &#160;* RGLB&#10; &#160;* RGSM&#10; &#160;* Lane&#10; &#160;* Read1File&#10; &#160;* Read2File (optional)&#10;">
<polygon fill="#94ddf4" stroke="black" points="460.5,-513.04 460.5,-550.04 583.5,-550.04 583.5,-513.04 460.5,-513.04"/>
<text text-anchor="middle" x="522" y="-527.84" font-family="Times,serif" font-size="14.00">fastq_list_rows</text>
</a>
</g>
</g>
<!-- fastq_list_rows&#45;&gt;run_dragen_step -->
<g id="edge4" class="edge">
<title>fastq_list_rows&#45;&gt;run_dragen_step</title>
<path fill="none" stroke="black" d="M522,-512.73C522,-478.88 522,-405.06 522,-364.9"/>
<polygon fill="black" stroke="black" points="525.5,-364.76 522,-354.76 518.5,-364.76 525.5,-364.76"/>
</g>
<!-- output_directory -->
<g id="node5" class="node">
<title>output_directory</title>
<g id="a_node5"><a xlink:title="The directory where all output files are placed&#10;">
<polygon fill="#94ddf4" stroke="black" points="306,-513.04 306,-550.04 442,-550.04 442,-513.04 306,-513.04"/>
<text text-anchor="middle" x="374" y="-527.84" font-family="Times,serif" font-size="14.00">output_directory</text>
</a>
</g>
</g>
<!-- output_directory&#45;&gt;run_dragen_step -->
<g id="edge5" class="edge">
<title>output_directory&#45;&gt;run_dragen_step</title>
<path fill="none" stroke="black" d="M387.66,-512.73C414.07,-478.29 472.21,-402.47 502.62,-362.82"/>
<polygon fill="black" stroke="black" points="505.7,-364.55 509.01,-354.48 500.15,-360.29 505.7,-364.55"/>
</g>
<!-- output_file_prefix -->
<g id="node6" class="node">
<title>output_file_prefix</title>
<g id="a_node6"><a xlink:title="The prefix given to all output files&#10;">
<polygon fill="#94ddf4" stroke="black" points="148,-513.04 148,-550.04 288,-550.04 288,-513.04 148,-513.04"/>
<text text-anchor="middle" x="218" y="-527.84" font-family="Times,serif" font-size="14.00">output_file_prefix</text>
</a>
</g>
</g>
<!-- output_file_prefix&#45;&gt;run_dragen_step -->
<g id="edge6" class="edge">
<title>output_file_prefix&#45;&gt;run_dragen_step</title>
<path fill="none" stroke="black" d="M245.78,-512.9C301.53,-477.52 426.85,-397.95 487.64,-359.36"/>
<polygon fill="black" stroke="black" points="489.56,-362.29 496.12,-353.97 485.8,-356.38 489.56,-362.29"/>
</g>
<!-- reference_tar -->
<g id="node7" class="node">
<title>reference_tar</title>
<g id="a_node7"><a xlink:title="Path to ref data tarball&#10;">
<polygon fill="#94ddf4" stroke="black" points="16.5,-513.04 16.5,-550.04 129.5,-550.04 129.5,-513.04 16.5,-513.04"/>
<text text-anchor="middle" x="73" y="-527.84" font-family="Times,serif" font-size="14.00">reference_tar</text>
</a>
</g>
</g>
<!-- reference_tar&#45;&gt;run_dragen_step -->
<g id="edge7" class="edge">
<title>reference_tar&#45;&gt;run_dragen_step</title>
<path fill="none" stroke="black" d="M93.68,-512.84C106.2,-502.73 122.84,-490.36 139,-481.54 247.19,-422.56 384.61,-377.4 461.97,-354.4"/>
<polygon fill="black" stroke="black" points="463.42,-357.63 472.02,-351.44 461.44,-350.91 463.42,-357.63"/>
</g>
<!-- dragen_alignment_output_directory -->
<g id="node8" class="node">
<title>dragen_alignment_output_directory</title>
<g id="a_node8"><a xlink:title="The output directory containing all alignment output files and qc metrics&#10;">
<polygon fill="#94ddf4" stroke="black" points="607,-130.04 607,-167.04 879,-167.04 879,-130.04 607,-130.04"/>
<text text-anchor="middle" x="743" y="-144.84" font-family="Times,serif" font-size="14.00">dragen_alignment_output_directory</text>
</a>
</g>
</g>
<!-- dragen_bam_out -->
<g id="node9" class="node">
<title>dragen_bam_out</title>
<g id="a_node9"><a xlink:title="The output alignment file&#10;">
<polygon fill="#94ddf4" stroke="black" points="455,-130.04 455,-167.04 589,-167.04 589,-130.04 455,-130.04"/>
<text text-anchor="middle" x="522" y="-144.84" font-family="Times,serif" font-size="14.00">dragen_bam_out</text>
</a>
</g>
</g>
<!-- multiqc_output_directory -->
<g id="node10" class="node">
<title>multiqc_output_directory</title>
<g id="a_node10"><a xlink:title="The dragen multiQC output&#10;">
<polygon fill="#94ddf4" stroke="black" points="239.5,-130.04 239.5,-167.04 436.5,-167.04 436.5,-130.04 239.5,-130.04"/>
<text text-anchor="middle" x="338" y="-144.84" font-family="Times,serif" font-size="14.00">multiqc_output_directory</text>
</a>
</g>
</g>
<!-- run_dragen_step&#45;&gt;dragen_alignment_output_directory -->
<g id="edge8" class="edge">
<title>run_dragen_step&#45;&gt;dragen_alignment_output_directory</title>
<path fill="none" stroke="black" d="M542,-318.71C581.29,-285.64 668.68,-212.09 714.19,-173.79"/>
<polygon fill="black" stroke="black" points="716.52,-176.41 721.92,-167.29 712.01,-171.05 716.52,-176.41"/>
</g>
<!-- run_dragen_step&#45;&gt;dragen_bam_out -->
<g id="edge9" class="edge">
<title>run_dragen_step&#45;&gt;dragen_bam_out</title>
<path fill="none" stroke="black" d="M522,-318.38C522,-286.15 522,-216.34 522,-177.34"/>
<polygon fill="black" stroke="black" points="525.5,-177.21 522,-167.21 518.5,-177.21 525.5,-177.21"/>
</g>
<!-- run_dragen_step&#45;&gt;multiqc_output_directory -->
<g id="edge10" class="edge">
<title>run_dragen_step&#45;&gt;multiqc_output_directory</title>
<path fill="none" stroke="black" d="M505.35,-318.71C472.84,-285.85 400.78,-213 362.7,-174.51"/>
<polygon fill="black" stroke="black" points="365.08,-171.94 355.55,-167.29 360.1,-176.86 365.08,-171.94"/>
</g>
<!-- \n -->
<g id="node12" class="node">
<title>\n</title>
<ellipse fill="none" stroke="black" cx="1182" cy="-531.54" rx="27" ry="18"/>
</g>
</g>
</svg>
