<?xml version="1.0" encoding="UTF-8" standalone="no"?>
<!DOCTYPE svg PUBLIC "-//W3C//DTD SVG 1.1//EN"
 "http://www.w3.org/Graphics/SVG/1.1/DTD/svg11.dtd">
<!-- Generated by graphviz version 2.40.1 (20161225.0304)
 -->
<!-- Title: G Pages: 1 -->
<svg width="1078pt" height="605pt"
 viewBox="0.00 0.00 1078.00 605.06" xmlns="http://www.w3.org/2000/svg" xmlns:xlink="http://www.w3.org/1999/xlink">
<g id="graph0" class="graph" transform="scale(1 1) rotate(0) translate(4 601.06)">
<title>G</title>
<polygon fill="#eeeeee" stroke="transparent" points="-4,4 -4,-601.06 1074,-601.06 1074,4 -4,4"/>
<g id="clust1" class="cluster">
<title>cluster_inputs</title>
<polygon fill="#eeeeee" stroke="#000000" stroke-dasharray="5,2" points="189,-437.4685 189,-582.0396 1062,-582.0396 1062,-437.4685 189,-437.4685"/>
<text text-anchor="middle" x="994" y="-445.2685" font-family="Times,serif" font-size="14.00" fill="#000000">Workflow Inputs</text>
</g>
<g id="clust2" class="cluster">
<title>cluster_outputs</title>
<polygon fill="#eeeeee" stroke="#000000" stroke-dasharray="5,2" points="8,-15.0204 8,-159.5915 896,-159.5915 896,-15.0204 8,-15.0204"/>
<text text-anchor="middle" x="822" y="-22.8204" font-family="Times,serif" font-size="14.00" fill="#000000">Workflow Outputs</text>
</g>
<!-- file:///tmp/tmpi14o_xjh#fastq_list_rows -->
<g id="node1" class="node">
<title>file:///tmp/tmpi14o_xjh#fastq_list_rows</title>
<g id="a_node1"><a xlink:title="The row of fastq lists.&#10;Each row has the following attributes:&#10; &#160;* RGID&#10; &#160;* RGLB&#10; &#160;* RGSM&#10; &#160;* Lane&#10; &#160;* Read1File&#10; &#160;* Read2File (optional)&#10;">
<polygon fill="#94ddf4" stroke="#000000" points="329.5,-512.5204 329.5,-549.5204 454.5,-549.5204 454.5,-512.5204 329.5,-512.5204"/>
<text text-anchor="middle" x="392" y="-527.3204" font-family="Times,serif" font-size="14.00" fill="#000000">fastq_list_rows</text>
</a>
</g>
</g>
<!-- file:///tmp/tmpi14o_xjh#run_dragen_step -->
<g id="node11" class="node">
<title>file:///tmp/tmpi14o_xjh#run_dragen_step</title>
<g id="a_node11"><a xlink:href="https://github.com/umccr/cwl-ica/blob/main/.github/catalogue/docs/workflows/dragen-alignment-pipeline/3.9.3/dragen-alignment-pipeline__3.9.3.md" xlink:title="Runs the alignment step on a dragen fpga&#10;Takes in a fastq list and corresponding mount paths from the predefined mount paths&#10;All other options available at the top of the workflow&#10;">
<polygon fill="#ee7ae9" stroke="#000000" points="346,-368.5204 346,-405.5204 610,-405.5204 610,-368.5204 346,-368.5204"/>
<text text-anchor="middle" x="478" y="-383.3204" font-family="Times,serif" font-size="14.00" fill="#000000">dragen&#45;alignment&#45;pipeline v(3.9.3)</text>
</a>
</g>
</g>
<!-- file:///tmp/tmpi14o_xjh#fastq_list_rows&#45;&gt;file:///tmp/tmpi14o_xjh#run_dragen_step -->
<g id="edge6" class="edge">
<title>file:///tmp/tmpi14o_xjh#fastq_list_rows&#45;&gt;file:///tmp/tmpi14o_xjh#run_dragen_step</title>
<path fill="none" stroke="#000000" d="M403.0669,-512.4897C417.8856,-487.6771 444.2957,-443.4555 461.4754,-414.6895"/>
<polygon fill="#000000" stroke="#000000" points="464.5799,-416.3173 466.7025,-405.9372 458.5701,-412.728 464.5799,-416.3173"/>
</g>
<!-- file:///tmp/tmpi14o_xjh#sites_somalier -->
<g id="node2" class="node">
<title>file:///tmp/tmpi14o_xjh#sites_somalier</title>
<g id="a_node2"><a xlink:title="gzipped vcf file. Required for somalier sites&#10;">
<polygon fill="#94ddf4" stroke="#000000" points="788.5,-512.5204 788.5,-549.5204 907.5,-549.5204 907.5,-512.5204 788.5,-512.5204"/>
<text text-anchor="middle" x="848" y="-527.3204" font-family="Times,serif" font-size="14.00" fill="#000000">sites_somalier</text>
</a>
</g>
</g>
<!-- file:///tmp/tmpi14o_xjh#run_somalier_step -->
<g id="node12" class="node">
<title>file:///tmp/tmpi14o_xjh#run_somalier_step</title>
<g id="a_node12"><a xlink:href="https://github.com/umccr/cwl-ica/blob/main/.github/catalogue/docs/tools/somalier-extract/0.2.13/somalier-extract__0.2.13.md" xlink:title="Runs the somalier extract function to call the fingerprint on the germline bam file&#10;">
<polygon fill="#fafad2" stroke="#000000" points="644.5,-229.5204 644.5,-266.5204 847.5,-266.5204 847.5,-229.5204 644.5,-229.5204"/>
<text text-anchor="middle" x="746" y="-244.3204" font-family="Times,serif" font-size="14.00" fill="#000000">somalier&#45;extract v(0.2.13)</text>
</a>
</g>
</g>
<!-- file:///tmp/tmpi14o_xjh#sites_somalier&#45;&gt;file:///tmp/tmpi14o_xjh#run_somalier_step -->
<g id="edge7" class="edge">
<title>file:///tmp/tmpi14o_xjh#sites_somalier&#45;&gt;file:///tmp/tmpi14o_xjh#run_somalier_step</title>
<path fill="none" stroke="#000000" d="M841.3075,-512.452C823.8725,-464.0785 776.9671,-333.9389 756.169,-276.2344"/>
<polygon fill="#000000" stroke="#000000" points="759.4006,-274.878 752.7171,-266.6572 752.8153,-277.2516 759.4006,-274.878"/>
</g>
<!-- file:///tmp/tmpi14o_xjh#output_file_prefix -->
<g id="node3" class="node">
<title>file:///tmp/tmpi14o_xjh#output_file_prefix</title>
<g id="a_node3"><a xlink:title="The prefix given to all output files&#10;">
<polygon fill="#94ddf4" stroke="#000000" points="627.5,-512.5204 627.5,-549.5204 770.5,-549.5204 770.5,-512.5204 627.5,-512.5204"/>
<text text-anchor="middle" x="699" y="-527.3204" font-family="Times,serif" font-size="14.00" fill="#000000">output_file_prefix</text>
</a>
</g>
</g>
<!-- file:///tmp/tmpi14o_xjh#output_file_prefix&#45;&gt;file:///tmp/tmpi14o_xjh#run_dragen_step -->
<g id="edge8" class="edge">
<title>file:///tmp/tmpi14o_xjh#output_file_prefix&#45;&gt;file:///tmp/tmpi14o_xjh#run_dragen_step</title>
<path fill="none" stroke="#000000" d="M670.5605,-512.4897C630.9698,-486.693 559.182,-439.9172 515.3269,-411.342"/>
<polygon fill="#000000" stroke="#000000" points="516.9695,-408.2348 506.6803,-405.708 513.148,-414.0997 516.9695,-408.2348"/>
</g>
<!-- file:///tmp/tmpi14o_xjh#output_file_prefix&#45;&gt;file:///tmp/tmpi14o_xjh#run_somalier_step -->
<g id="edge9" class="edge">
<title>file:///tmp/tmpi14o_xjh#output_file_prefix&#45;&gt;file:///tmp/tmpi14o_xjh#run_somalier_step</title>
<path fill="none" stroke="#000000" d="M702.0838,-512.452C710.1009,-464.1786 731.6414,-334.4774 741.2546,-276.5937"/>
<polygon fill="#000000" stroke="#000000" points="744.7191,-277.0955 742.9048,-266.6572 737.8137,-275.9486 744.7191,-277.0955"/>
</g>
<!-- file:///tmp/tmpi14o_xjh#output_directory -->
<g id="node4" class="node">
<title>file:///tmp/tmpi14o_xjh#output_directory</title>
<g id="a_node4"><a xlink:title="The directory where all output files are placed&#10;">
<polygon fill="#94ddf4" stroke="#000000" points="472.5,-512.5204 472.5,-549.5204 609.5,-549.5204 609.5,-512.5204 472.5,-512.5204"/>
<text text-anchor="middle" x="541" y="-527.3204" font-family="Times,serif" font-size="14.00" fill="#000000">output_directory</text>
</a>
</g>
</g>
<!-- file:///tmp/tmpi14o_xjh#output_directory&#45;&gt;file:///tmp/tmpi14o_xjh#run_dragen_step -->
<g id="edge10" class="edge">
<title>file:///tmp/tmpi14o_xjh#output_directory&#45;&gt;file:///tmp/tmpi14o_xjh#run_dragen_step</title>
<path fill="none" stroke="#000000" d="M532.8928,-512.4897C522.1313,-487.8919 503.0247,-444.2198 490.4336,-415.4401"/>
<polygon fill="#000000" stroke="#000000" points="493.4909,-413.6959 486.2761,-405.9372 487.0778,-416.5017 493.4909,-413.6959"/>
</g>
<!-- file:///tmp/tmpi14o_xjh#output_directory&#45;&gt;file:///tmp/tmpi14o_xjh#run_somalier_step -->
<g id="edge11" class="edge">
<title>file:///tmp/tmpi14o_xjh#output_directory&#45;&gt;file:///tmp/tmpi14o_xjh#run_somalier_step</title>
<path fill="none" stroke="#000000" d="M554.4506,-512.452C589.7817,-463.6779 685.3277,-331.7778 726.5899,-274.8157"/>
<polygon fill="#000000" stroke="#000000" points="729.4679,-276.8089 732.4999,-266.6572 723.7989,-272.7024 729.4679,-276.8089"/>
</g>
<!-- file:///tmp/tmpi14o_xjh#reference_tar -->
<g id="node5" class="node">
<title>file:///tmp/tmpi14o_xjh#reference_tar</title>
<g id="a_node5"><a xlink:title="Path to ref data tarball&#10;">
<polygon fill="#94ddf4" stroke="#000000" points="197,-512.5204 197,-549.5204 311,-549.5204 311,-512.5204 197,-512.5204"/>
<text text-anchor="middle" x="254" y="-527.3204" font-family="Times,serif" font-size="14.00" fill="#000000">reference_tar</text>
</a>
</g>
</g>
<!-- file:///tmp/tmpi14o_xjh#reference_tar&#45;&gt;file:///tmp/tmpi14o_xjh#run_dragen_step -->
<g id="edge12" class="edge">
<title>file:///tmp/tmpi14o_xjh#reference_tar&#45;&gt;file:///tmp/tmpi14o_xjh#run_dragen_step</title>
<path fill="none" stroke="#000000" d="M277.3605,-512.314C289.7804,-502.6289 305.4517,-490.8142 320,-481.0204 358.118,-455.3594 403.3315,-428.8323 435.6051,-410.5286"/>
<polygon fill="#000000" stroke="#000000" points="437.3615,-413.5563 444.3482,-405.5916 433.9195,-407.461 437.3615,-413.5563"/>
</g>
<!-- file:///tmp/tmpi14o_xjh#reference_fasta -->
<g id="node6" class="node">
<title>file:///tmp/tmpi14o_xjh#reference_fasta</title>
<g id="a_node6"><a xlink:title="FastA file with genome sequence&#10;">
<polygon fill="#94ddf4" stroke="#000000" points="926,-512.5204 926,-549.5204 1054,-549.5204 1054,-512.5204 926,-512.5204"/>
<text text-anchor="middle" x="990" y="-527.3204" font-family="Times,serif" font-size="14.00" fill="#000000">reference_fasta</text>
</a>
</g>
</g>
<!-- file:///tmp/tmpi14o_xjh#reference_fasta&#45;&gt;file:///tmp/tmpi14o_xjh#run_somalier_step -->
<g id="edge13" class="edge">
<title>file:///tmp/tmpi14o_xjh#reference_fasta&#45;&gt;file:///tmp/tmpi14o_xjh#run_somalier_step</title>
<path fill="none" stroke="#000000" d="M973.9905,-512.452C931.8516,-463.5777 817.7475,-331.2358 768.801,-274.4658"/>
<polygon fill="#000000" stroke="#000000" points="771.2492,-271.9453 762.0685,-266.6572 765.9476,-276.5163 771.2492,-271.9453"/>
</g>
<!-- file:///tmp/tmpi14o_xjh#multiqc_output_directory -->
<g id="node7" class="node">
<title>file:///tmp/tmpi14o_xjh#multiqc_output_directory</title>
<g id="a_node7"><a xlink:title="The dragen multiQC output&#10;">
<polygon fill="#94ddf4" stroke="#000000" points="16,-90.5204 16,-127.5204 216,-127.5204 216,-90.5204 16,-90.5204"/>
<text text-anchor="middle" x="116" y="-105.3204" font-family="Times,serif" font-size="14.00" fill="#000000">multiqc_output_directory</text>
</a>
</g>
</g>
<!-- file:///tmp/tmpi14o_xjh#dragen_alignment_output_directory -->
<g id="node8" class="node">
<title>file:///tmp/tmpi14o_xjh#dragen_alignment_output_directory</title>
<g id="a_node8"><a xlink:title="The output directory containing all alignment output files and qc metrics&#10;">
<polygon fill="#94ddf4" stroke="#000000" points="234.5,-90.5204 234.5,-127.5204 509.5,-127.5204 509.5,-90.5204 234.5,-90.5204"/>
<text text-anchor="middle" x="372" y="-105.3204" font-family="Times,serif" font-size="14.00" fill="#000000">dragen_alignment_output_directory</text>
</a>
</g>
</g>
<!-- file:///tmp/tmpi14o_xjh#somalier_output_directory -->
<g id="node9" class="node">
<title>file:///tmp/tmpi14o_xjh#somalier_output_directory</title>
<g id="a_node9"><a xlink:title="Output directory from somalier step&#10;">
<polygon fill="#94ddf4" stroke="#000000" points="682,-90.5204 682,-127.5204 888,-127.5204 888,-90.5204 682,-90.5204"/>
<text text-anchor="middle" x="785" y="-105.3204" font-family="Times,serif" font-size="14.00" fill="#000000">somalier_output_directory</text>
</a>
</g>
</g>
<!-- file:///tmp/tmpi14o_xjh#dragen_bam_out -->
<g id="node10" class="node">
<title>file:///tmp/tmpi14o_xjh#dragen_bam_out</title>
<g id="a_node10"><a xlink:title="The output alignment file&#10;">
<polygon fill="#94ddf4" stroke="#000000" points="528,-90.5204 528,-127.5204 664,-127.5204 664,-90.5204 528,-90.5204"/>
<text text-anchor="middle" x="596" y="-105.3204" font-family="Times,serif" font-size="14.00" fill="#000000">dragen_bam_out</text>
</a>
</g>
</g>
<!-- file:///tmp/tmpi14o_xjh#run_dragen_step&#45;&gt;file:///tmp/tmpi14o_xjh#multiqc_output_directory -->
<g id="edge2" class="edge">
<title>file:///tmp/tmpi14o_xjh#run_dragen_step&#45;&gt;file:///tmp/tmpi14o_xjh#multiqc_output_directory</title>
<path fill="none" stroke="#000000" d="M453.6861,-368.3483C390.3156,-319.6826 220.0499,-188.9261 148.4384,-133.9316"/>
<polygon fill="#000000" stroke="#000000" points="150.271,-130.926 140.2081,-127.6111 146.0075,-136.4778 150.271,-130.926"/>
</g>
<!-- file:///tmp/tmpi14o_xjh#run_dragen_step&#45;&gt;file:///tmp/tmpi14o_xjh#dragen_alignment_output_directory -->
<g id="edge3" class="edge">
<title>file:///tmp/tmpi14o_xjh#run_dragen_step&#45;&gt;file:///tmp/tmpi14o_xjh#dragen_alignment_output_directory</title>
<path fill="none" stroke="#000000" d="M470.8804,-368.3483C452.6639,-320.5729 404.2812,-193.6824 382.6779,-137.0247"/>
<polygon fill="#000000" stroke="#000000" points="385.9217,-135.708 379.0886,-127.6111 379.381,-138.2019 385.9217,-135.708"/>
</g>
<!-- file:///tmp/tmpi14o_xjh#run_dragen_step&#45;&gt;file:///tmp/tmpi14o_xjh#dragen_bam_out -->
<g id="edge4" class="edge">
<title>file:///tmp/tmpi14o_xjh#run_dragen_step&#45;&gt;file:///tmp/tmpi14o_xjh#dragen_bam_out</title>
<path fill="none" stroke="#000000" d="M485.9255,-368.3483C506.2043,-320.5729 560.0643,-193.6824 584.1133,-137.0247"/>
<polygon fill="#000000" stroke="#000000" points="587.4235,-138.1838 588.109,-127.6111 580.9799,-135.4487 587.4235,-138.1838"/>
</g>
<!-- file:///tmp/tmpi14o_xjh#run_dragen_step&#45;&gt;file:///tmp/tmpi14o_xjh#run_somalier_step -->
<g id="edge1" class="edge">
<title>file:///tmp/tmpi14o_xjh#run_dragen_step&#45;&gt;file:///tmp/tmpi14o_xjh#run_somalier_step</title>
<path fill="none" stroke="#000000" d="M513.8656,-368.4184C562.1702,-343.3649 648.1367,-298.7779 700.8071,-271.46"/>
<polygon fill="#000000" stroke="#000000" points="702.6533,-274.4453 709.9189,-266.7341 699.4303,-268.2313 702.6533,-274.4453"/>
</g>
<!-- file:///tmp/tmpi14o_xjh#run_somalier_step&#45;&gt;file:///tmp/tmpi14o_xjh#somalier_output_directory -->
<g id="edge5" class="edge">
<title>file:///tmp/tmpi14o_xjh#run_somalier_step&#45;&gt;file:///tmp/tmpi14o_xjh#somalier_output_directory</title>
<path fill="none" stroke="#000000" d="M751.2597,-229.2742C757.8599,-205.7504 769.2459,-165.1695 776.9461,-137.7255"/>
<polygon fill="#000000" stroke="#000000" points="780.3674,-138.4872 779.6991,-127.9135 773.6277,-136.5961 780.3674,-138.4872"/>
</g>
</g>
</svg>
