<?xml version="1.0" encoding="UTF-8" standalone="no"?>
<!DOCTYPE svg PUBLIC "-//W3C//DTD SVG 1.1//EN"
 "http://www.w3.org/Graphics/SVG/1.1/DTD/svg11.dtd">
<!-- Generated by graphviz version 2.43.0 (0)
 -->
<!-- Title: G Pages: 1 -->
<svg width="1209pt" height="625pt"
 viewBox="0.00 0.00 1209.00 625.31" xmlns="http://www.w3.org/2000/svg" xmlns:xlink="http://www.w3.org/1999/xlink">
<g id="graph0" class="graph" transform="scale(1 1) rotate(0) translate(4 621.31)">
<title>G</title>
<polygon fill="#eeeeee" stroke="transparent" points="-4,4 -4,-621.31 1205,-621.31 1205,4 -4,4"/>
<g id="clust1" class="cluster">
<title>cluster_inputs</title>
<polygon fill="#eeeeee" stroke="black" stroke-dasharray="5,2" points="8,-401.25 8,-596.74 1193,-596.74 1193,-401.25 8,-401.25"/>
<text text-anchor="middle" x="1126.5" y="-409.05" font-family="Times,serif" font-size="14.00">Workflow Inputs</text>
</g>
<g id="clust2" class="cluster">
<title>cluster_outputs</title>
<polygon fill="#eeeeee" stroke="black" stroke-dasharray="5,2" points="539,-20.58 539,-216.06 691,-216.06 691,-20.58 539,-20.58"/>
<text text-anchor="middle" x="618.5" y="-28.38" font-family="Times,serif" font-size="14.00">Workflow Outputs</text>
</g>
<!-- instrument_run_directory -->
<g id="node1" class="node">
<title>instrument_run_directory</title>
<polygon fill="#94ddf4" stroke="black" points="985,-510.58 985,-546.58 1185,-546.58 1185,-510.58 985,-510.58"/>
<text text-anchor="middle" x="1085" y="-524.88" font-family="Times,serif" font-size="14.00">instrument_run_directory</text>
</g>
<!-- run_dragen_instrument_run_fastq_to_ora_step -->
<g id="node8" class="node">
<title>run_dragen_instrument_run_fastq_to_ora_step</title>
<ellipse fill="none" stroke="black" cx="615" cy="-334.58" rx="225.56" ry="18"/>
<text text-anchor="middle" x="615" y="-330.88" font-family="Times,serif" font-size="14.00">run_dragen_instrument_run_fastq_to_ora_step</text>
</g>
<!-- instrument_run_directory&#45;&gt;run_dragen_instrument_run_fastq_to_ora_step -->
<g id="edge1" class="edge">
<title>instrument_run_directory&#45;&gt;run_dragen_instrument_run_fastq_to_ora_step</title>
<path fill="none" stroke="black" d="M1039.64,-510.48C1017.62,-501.02 990.96,-489.16 967,-479.08 858.73,-433.49 730.67,-383.51 662.71,-356.21"/>
<polygon fill="black" stroke="black" points="663.71,-352.84 653.13,-352.35 661.1,-359.34 663.71,-352.84"/>
</g>
<!-- instrument_run_directory&#45;&gt;run_dragen_instrument_run_fastq_to_ora_step -->
<g id="edge2" class="edge">
<title>instrument_run_directory&#45;&gt;run_dragen_instrument_run_fastq_to_ora_step</title>
<path fill="none" stroke="black" d="M1055.28,-510.37C1035.41,-500.92 1008.86,-489.12 985,-479.08 876.14,-433.24 747.27,-382.96 673.83,-355.77"/>
<polygon fill="black" stroke="black" points="674.88,-352.42 664.29,-352.25 672.46,-358.99 674.88,-352.42"/>
</g>
<!-- ora_check_file_integrity -->
<g id="node2" class="node">
<title>ora_check_file_integrity</title>
<polygon fill="#94ddf4" stroke="black" points="781.5,-510.58 781.5,-546.58 966.5,-546.58 966.5,-510.58 781.5,-510.58"/>
<text text-anchor="middle" x="874" y="-524.88" font-family="Times,serif" font-size="14.00">ora_check_file_integrity</text>
</g>
<!-- ora_check_file_integrity&#45;&gt;run_dragen_instrument_run_fastq_to_ora_step -->
<g id="edge3" class="edge">
<title>ora_check_file_integrity&#45;&gt;run_dragen_instrument_run_fastq_to_ora_step</title>
<path fill="none" stroke="black" d="M851.02,-510.54C804.46,-476.02 698.97,-397.82 646.23,-358.73"/>
<polygon fill="black" stroke="black" points="648.05,-355.72 637.93,-352.58 643.88,-361.34 648.05,-355.72"/>
</g>
<!-- ora_parallel_files -->
<g id="node3" class="node">
<title>ora_parallel_files</title>
<polygon fill="#94ddf4" stroke="black" points="626.5,-510.58 626.5,-546.58 763.5,-546.58 763.5,-510.58 626.5,-510.58"/>
<text text-anchor="middle" x="695" y="-524.88" font-family="Times,serif" font-size="14.00">ora_parallel_files</text>
</g>
<!-- ora_parallel_files&#45;&gt;run_dragen_instrument_run_fastq_to_ora_step -->
<g id="edge4" class="edge">
<title>ora_parallel_files&#45;&gt;run_dragen_instrument_run_fastq_to_ora_step</title>
<path fill="none" stroke="black" d="M687.9,-510.54C673.91,-476.95 642.67,-401.98 625.99,-361.95"/>
<polygon fill="black" stroke="black" points="629.16,-360.46 622.08,-352.58 622.7,-363.15 629.16,-360.46"/>
</g>
<!-- ora_print_file_info -->
<g id="node4" class="node">
<title>ora_print_file_info</title>
<polygon fill="#94ddf4" stroke="black" points="464,-510.58 464,-546.58 608,-546.58 608,-510.58 464,-510.58"/>
<text text-anchor="middle" x="536" y="-524.88" font-family="Times,serif" font-size="14.00">ora_print_file_info</text>
</g>
<!-- ora_print_file_info&#45;&gt;run_dragen_instrument_run_fastq_to_ora_step -->
<g id="edge5" class="edge">
<title>ora_print_file_info&#45;&gt;run_dragen_instrument_run_fastq_to_ora_step</title>
<path fill="none" stroke="black" d="M543.01,-510.54C556.83,-476.95 587.68,-401.98 604.15,-361.95"/>
<polygon fill="black" stroke="black" points="607.44,-363.16 608,-352.58 600.96,-360.49 607.44,-363.16"/>
</g>
<!-- ora_reference -->
<g id="node5" class="node">
<title>ora_reference</title>
<polygon fill="#94ddf4" stroke="black" points="330.5,-510.58 330.5,-546.58 445.5,-546.58 445.5,-510.58 330.5,-510.58"/>
<text text-anchor="middle" x="388" y="-524.88" font-family="Times,serif" font-size="14.00">ora_reference</text>
</g>
<!-- ora_reference&#45;&gt;run_dragen_instrument_run_fastq_to_ora_step -->
<g id="edge6" class="edge">
<title>ora_reference&#45;&gt;run_dragen_instrument_run_fastq_to_ora_step</title>
<path fill="none" stroke="black" d="M408.14,-510.54C448.78,-476.17 540.65,-398.47 587.05,-359.21"/>
<polygon fill="black" stroke="black" points="589.53,-361.71 594.9,-352.58 585,-356.36 589.53,-361.71"/>
</g>
<!-- ora_threads_per_file -->
<g id="node6" class="node">
<title>ora_threads_per_file</title>
<polygon fill="#94ddf4" stroke="black" points="151.5,-510.58 151.5,-546.58 312.5,-546.58 312.5,-510.58 151.5,-510.58"/>
<text text-anchor="middle" x="232" y="-524.88" font-family="Times,serif" font-size="14.00">ora_threads_per_file</text>
</g>
<!-- ora_threads_per_file&#45;&gt;run_dragen_instrument_run_fastq_to_ora_step -->
<g id="edge7" class="edge">
<title>ora_threads_per_file&#45;&gt;run_dragen_instrument_run_fastq_to_ora_step</title>
<path fill="none" stroke="black" d="M263.08,-510.44C280.35,-501.02 302.27,-489.22 322,-479.08 409.32,-434.19 512.73,-384.29 570.4,-356.75"/>
<polygon fill="black" stroke="black" points="572.08,-359.83 579.6,-352.37 569.07,-353.51 572.08,-359.83"/>
</g>
<!-- sample_id_list -->
<g id="node7" class="node">
<title>sample_id_list</title>
<polygon fill="#94ddf4" stroke="black" points="16.5,-510.58 16.5,-546.58 133.5,-546.58 133.5,-510.58 16.5,-510.58"/>
<text text-anchor="middle" x="75" y="-524.88" font-family="Times,serif" font-size="14.00">sample_id_list</text>
</g>
<!-- sample_id_list&#45;&gt;run_dragen_instrument_run_fastq_to_ora_step -->
<g id="edge8" class="edge">
<title>sample_id_list&#45;&gt;run_dragen_instrument_run_fastq_to_ora_step</title>
<path fill="none" stroke="black" d="M95.32,-510.41C108.28,-500.16 125.83,-487.53 143,-479.08 269.3,-416.92 427.98,-375.43 525.4,-353.68"/>
<polygon fill="black" stroke="black" points="526.21,-357.09 535.22,-351.51 524.7,-350.25 526.21,-357.09"/>
</g>
<!-- output_directory -->
<g id="node9" class="node">
<title>output_directory</title>
<polygon fill="#94ddf4" stroke="black" points="547,-129.58 547,-165.58 683,-165.58 683,-129.58 547,-129.58"/>
<text text-anchor="middle" x="615" y="-143.88" font-family="Times,serif" font-size="14.00">output_directory</text>
</g>
<!-- run_dragen_instrument_run_fastq_to_ora_step&#45;&gt;output_directory -->
<g id="edge9" class="edge">
<title>run_dragen_instrument_run_fastq_to_ora_step&#45;&gt;output_directory</title>
<path fill="none" stroke="black" d="M615,-316.5C615,-284.29 615,-214.31 615,-175.63"/>
<polygon fill="black" stroke="black" points="618.5,-175.61 615,-165.61 611.5,-175.61 618.5,-175.61"/>
</g>
</g>
</svg>
