<?xml version="1.0" encoding="UTF-8" standalone="no"?>
<!DOCTYPE svg PUBLIC "-//W3C//DTD SVG 1.1//EN"
 "http://www.w3.org/Graphics/SVG/1.1/DTD/svg11.dtd">
<!-- Generated by graphviz version 2.43.0 (0)
 -->
<!-- Title: G Pages: 1 -->
<svg width="653pt" height="473pt"
 viewBox="0.00 0.00 653.00 473.05" xmlns="http://www.w3.org/2000/svg" xmlns:xlink="http://www.w3.org/1999/xlink">
<g id="graph0" class="graph" transform="scale(1 1) rotate(0) translate(4 469.05)">
<title>G</title>
<polygon fill="#eeeeee" stroke="transparent" points="-4,4 -4,-469.05 649,-469.05 649,4 -4,4"/>
<g id="clust1" class="cluster">
<title>cluster_inputs</title>
<polygon fill="#eeeeee" stroke="black" stroke-dasharray="5,2" points="11,-340.64 11,-453.2 637,-453.2 637,-340.64 11,-340.64"/>
<text text-anchor="middle" x="570.5" y="-348.44" font-family="Times,serif" font-size="14.00">Workflow Inputs</text>
</g>
<g id="clust2" class="cluster">
<title>cluster_outputs</title>
<polygon fill="#eeeeee" stroke="black" stroke-dasharray="5,2" points="8,-11.85 8,-124.41 523,-124.41 523,-11.85 8,-11.85"/>
<text text-anchor="middle" x="450.5" y="-19.65" font-family="Times,serif" font-size="14.00">Workflow Outputs</text>
</g>
<!-- generate_interop_qc_step -->
<g id="node1" class="node">
<title>generate_interop_qc_step</title>
<polygon fill="lightgoldenrodyellow" stroke="black" points="309,-283.85 309,-319.85 499,-319.85 499,-283.85 309,-283.85"/>
<text text-anchor="middle" x="404" y="-298.15" font-family="Times,serif" font-size="14.00">illumina&#45;interop v(1.3.1)</text>
</g>
<!-- run_multiqc_step -->
<g id="node2" class="node">
<title>run_multiqc_step</title>
<polygon fill="lightgoldenrodyellow" stroke="black" points="202.5,-174.85 202.5,-210.85 341.5,-210.85 341.5,-174.85 202.5,-174.85"/>
<text text-anchor="middle" x="272" y="-189.15" font-family="Times,serif" font-size="14.00">multiqc v(1.15.0)</text>
</g>
<!-- generate_interop_qc_step&#45;&gt;run_multiqc_step -->
<g id="edge1" class="edge">
<title>generate_interop_qc_step&#45;&gt;run_multiqc_step</title>
<path fill="none" stroke="black" d="M382.79,-283.66C360.66,-265.72 325.81,-237.47 301.11,-217.44"/>
<polygon fill="black" stroke="black" points="303.13,-214.58 293.16,-211 298.72,-220.01 303.13,-214.58"/>
</g>
<!-- interop_output_dir -->
<g id="node7" class="node">
<title>interop_output_dir</title>
<polygon fill="#94ddf4" stroke="black" points="366.5,-66.85 366.5,-102.85 515.5,-102.85 515.5,-66.85 366.5,-66.85"/>
<text text-anchor="middle" x="441" y="-81.15" font-family="Times,serif" font-size="14.00">interop_output_dir</text>
</g>
<!-- generate_interop_qc_step&#45;&gt;interop_output_dir -->
<g id="edge8" class="edge">
<title>generate_interop_qc_step&#45;&gt;interop_output_dir</title>
<path fill="none" stroke="black" d="M406.97,-283.62C413.39,-246.26 428.66,-157.56 436.37,-112.74"/>
<polygon fill="black" stroke="black" points="439.83,-113.31 438.07,-102.86 432.93,-112.12 439.83,-113.31"/>
</g>
<!-- multiqc_html_report -->
<g id="node8" class="node">
<title>multiqc_html_report</title>
<polygon fill="#94ddf4" stroke="black" points="16,-66.85 16,-102.85 178,-102.85 178,-66.85 16,-66.85"/>
<text text-anchor="middle" x="97" y="-81.15" font-family="Times,serif" font-size="14.00">multiqc_html_report</text>
</g>
<!-- run_multiqc_step&#45;&gt;multiqc_html_report -->
<g id="edge9" class="edge">
<title>run_multiqc_step&#45;&gt;multiqc_html_report</title>
<path fill="none" stroke="black" d="M243.88,-174.82C214.12,-156.79 167,-128.25 134.19,-108.37"/>
<polygon fill="black" stroke="black" points="135.7,-105.2 125.34,-103.01 132.08,-111.19 135.7,-105.2"/>
</g>
<!-- multiqc_output_dir -->
<g id="node9" class="node">
<title>multiqc_output_dir</title>
<polygon fill="#94ddf4" stroke="black" points="196,-66.85 196,-102.85 348,-102.85 348,-66.85 196,-66.85"/>
<text text-anchor="middle" x="272" y="-81.15" font-family="Times,serif" font-size="14.00">multiqc_output_dir</text>
</g>
<!-- run_multiqc_step&#45;&gt;multiqc_output_dir -->
<g id="edge10" class="edge">
<title>run_multiqc_step&#45;&gt;multiqc_output_dir</title>
<path fill="none" stroke="black" d="M272,-174.82C272,-158.23 272,-132.73 272,-113.28"/>
<polygon fill="black" stroke="black" points="275.5,-113.19 272,-103.19 268.5,-113.19 275.5,-113.19"/>
</g>
<!-- interop_directory -->
<g id="node3" class="node">
<title>interop_directory</title>
<polygon fill="#94ddf4" stroke="black" points="489,-395.85 489,-431.85 629,-431.85 629,-395.85 489,-395.85"/>
<text text-anchor="middle" x="559" y="-410.15" font-family="Times,serif" font-size="14.00">interop_directory</text>
</g>
<!-- interop_directory&#45;&gt;generate_interop_qc_step -->
<g id="edge2" class="edge">
<title>interop_directory&#45;&gt;generate_interop_qc_step</title>
<path fill="none" stroke="black" d="M534.78,-395.66C508.28,-376.85 465.66,-346.61 436.32,-325.79"/>
<polygon fill="black" stroke="black" points="438.23,-322.85 428.05,-319.92 434.18,-328.56 438.23,-322.85"/>
</g>
<!-- run_id -->
<g id="node4" class="node">
<title>run_id</title>
<polygon fill="#94ddf4" stroke="black" points="253,-395.85 253,-431.85 315,-431.85 315,-395.85 253,-395.85"/>
<text text-anchor="middle" x="284" y="-410.15" font-family="Times,serif" font-size="14.00">run_id</text>
</g>
<!-- run_id&#45;&gt;generate_interop_qc_step -->
<g id="edge3" class="edge">
<title>run_id&#45;&gt;generate_interop_qc_step</title>
<path fill="none" stroke="black" d="M297.23,-395.47C304.89,-385.87 314.98,-373.97 325,-364.35 339.25,-350.66 356.43,-337 371.12,-326.04"/>
<polygon fill="black" stroke="black" points="373.45,-328.67 379.44,-319.93 369.31,-323.03 373.45,-328.67"/>
</g>
<!-- run_id&#45;&gt;run_multiqc_step -->
<g id="edge4" class="edge">
<title>run_id&#45;&gt;run_multiqc_step</title>
<path fill="none" stroke="black" d="M279.22,-395.66C273.55,-357.76 268.3,-266.75 268.85,-221.03"/>
<polygon fill="black" stroke="black" points="272.35,-221.04 269.1,-210.95 265.36,-220.86 272.35,-221.04"/>
</g>
<!-- run_id&#45;&gt;run_multiqc_step -->
<g id="edge5" class="edge">
<title>run_id&#45;&gt;run_multiqc_step</title>
<path fill="none" stroke="black" d="M286.9,-395.66C288.42,-357.76 283.69,-266.75 278.13,-221.03"/>
<polygon fill="black" stroke="black" points="281.57,-220.4 276.77,-210.95 274.63,-221.33 281.57,-220.4"/>
</g>
<!-- run_info_xml_file -->
<g id="node5" class="node">
<title>run_info_xml_file</title>
<polygon fill="#94ddf4" stroke="black" points="333.5,-395.85 333.5,-431.85 470.5,-431.85 470.5,-395.85 333.5,-395.85"/>
<text text-anchor="middle" x="402" y="-410.15" font-family="Times,serif" font-size="14.00">run_info_xml_file</text>
</g>
<!-- run_info_xml_file&#45;&gt;generate_interop_qc_step -->
<g id="edge6" class="edge">
<title>run_info_xml_file&#45;&gt;generate_interop_qc_step</title>
<path fill="none" stroke="black" d="M402.31,-395.66C402.63,-378.06 403.13,-350.46 403.51,-329.92"/>
<polygon fill="black" stroke="black" points="407.01,-329.98 403.69,-319.92 400.01,-329.85 407.01,-329.98"/>
</g>
<!-- bclconvert_report_directory -->
<g id="node6" class="node">
<title>bclconvert_report_directory</title>
<polygon fill="#94ddf4" stroke="black" points="19.5,-395.85 19.5,-431.85 234.5,-431.85 234.5,-395.85 19.5,-395.85"/>
<text text-anchor="middle" x="127" y="-410.15" font-family="Times,serif" font-size="14.00">bclconvert_report_directory</text>
</g>
<!-- bclconvert_report_directory&#45;&gt;run_multiqc_step -->
<g id="edge7" class="edge">
<title>bclconvert_report_directory&#45;&gt;run_multiqc_step</title>
<path fill="none" stroke="black" d="M138.38,-395.66C163.79,-357.28 225.27,-264.43 255.14,-219.31"/>
<polygon fill="black" stroke="black" points="258.07,-221.22 260.67,-210.95 252.24,-217.36 258.07,-221.22"/>
</g>
</g>
</svg>
