<?xml version="1.0" encoding="UTF-8" standalone="no"?>
<!DOCTYPE svg PUBLIC "-//W3C//DTD SVG 1.1//EN"
 "http://www.w3.org/Graphics/SVG/1.1/DTD/svg11.dtd">
<!-- Generated by graphviz version 2.43.0 (0)
 -->
<!-- Title: G Pages: 1 -->
<svg width="719pt" height="655pt"
 viewBox="0.00 0.00 719.00 655.01" xmlns="http://www.w3.org/2000/svg" xmlns:xlink="http://www.w3.org/1999/xlink">
<g id="graph0" class="graph" transform="scale(1 1) rotate(0) translate(4 651.01)">
<title>G</title>
<polygon fill="#eeeeee" stroke="transparent" points="-4,4 -4,-651.01 715,-651.01 715,4 -4,4"/>
<g id="clust1" class="cluster">
<title>cluster_inputs</title>
<polygon fill="#eeeeee" stroke="black" stroke-dasharray="5,2" points="8,-506.71 8,-633.81 478,-633.81 478,-506.71 8,-506.71"/>
<text text-anchor="middle" x="411.5" y="-514.51" font-family="Times,serif" font-size="14.00">Workflow Inputs</text>
</g>
<g id="clust2" class="cluster">
<title>cluster_outputs</title>
<polygon fill="#eeeeee" stroke="black" stroke-dasharray="5,2" points="188,-13.2 188,-140.3 703,-140.3 703,-13.2 188,-13.2"/>
<text text-anchor="middle" x="630.5" y="-21" font-family="Times,serif" font-size="14.00">Workflow Outputs</text>
</g>
<!-- interop_directory -->
<g id="node1" class="node">
<title>interop_directory</title>
<polygon fill="#94ddf4" stroke="black" points="250,-570.7 250,-607.7 390,-607.7 390,-570.7 250,-570.7"/>
<text text-anchor="middle" x="320" y="-585.5" font-family="Times,serif" font-size="14.00">interop_directory</text>
</g>
<!-- generate_interop_qc_step -->
<g id="node8" class="node">
<title>generate_interop_qc_step</title>
<polygon fill="lightgoldenrodyellow" stroke="black" points="212,-321.7 212,-358.7 402,-358.7 402,-321.7 212,-321.7"/>
<text text-anchor="middle" x="307" y="-336.5" font-family="Times,serif" font-size="14.00">illumina&#45;interop v(1.3.1)</text>
</g>
<!-- interop_directory&#45;&gt;generate_interop_qc_step -->
<g id="edge6" class="edge">
<title>interop_directory&#45;&gt;generate_interop_qc_step</title>
<path fill="none" stroke="black" d="M319.07,-570.44C316.83,-527.89 311.14,-419.9 308.45,-368.8"/>
<polygon fill="black" stroke="black" points="311.95,-368.61 307.93,-358.81 304.96,-368.98 311.95,-368.61"/>
</g>
<!-- run_id -->
<g id="node2" class="node">
<title>run_id</title>
<polygon fill="#94ddf4" stroke="black" points="408,-570.7 408,-607.7 470,-607.7 470,-570.7 408,-570.7"/>
<text text-anchor="middle" x="439" y="-585.5" font-family="Times,serif" font-size="14.00">run_id</text>
</g>
<!-- run_id&#45;&gt;generate_interop_qc_step -->
<g id="edge7" class="edge">
<title>run_id&#45;&gt;generate_interop_qc_step</title>
<path fill="none" stroke="black" d="M429.51,-570.44C406.63,-527.63 348.33,-418.54 321.24,-367.85"/>
<polygon fill="black" stroke="black" points="324.21,-365.98 316.41,-358.81 318.03,-369.28 324.21,-365.98"/>
</g>
<!-- run_multiqc_step -->
<g id="node9" class="node">
<title>run_multiqc_step</title>
<polygon fill="lightgoldenrodyellow" stroke="black" points="369.5,-199.7 369.5,-236.7 508.5,-236.7 508.5,-199.7 369.5,-199.7"/>
<text text-anchor="middle" x="439" y="-214.5" font-family="Times,serif" font-size="14.00">multiqc v(1.21.0)</text>
</g>
<!-- run_id&#45;&gt;run_multiqc_step -->
<g id="edge8" class="edge">
<title>run_id&#45;&gt;run_multiqc_step</title>
<path fill="none" stroke="black" d="M435.89,-570.41C431.27,-510.98 431.05,-319.08 435.23,-246.95"/>
<polygon fill="black" stroke="black" points="438.73,-247.03 435.9,-236.82 431.74,-246.57 438.73,-247.03"/>
</g>
<!-- run_id&#45;&gt;run_multiqc_step -->
<g id="edge9" class="edge">
<title>run_id&#45;&gt;run_multiqc_step</title>
<path fill="none" stroke="black" d="M442.11,-570.41C446.73,-510.98 446.95,-319.08 442.77,-246.95"/>
<polygon fill="black" stroke="black" points="446.26,-246.57 442.1,-236.82 439.27,-247.03 446.26,-246.57"/>
</g>
<!-- bclconvert_report_directory -->
<g id="node3" class="node">
<title>bclconvert_report_directory</title>
<polygon fill="#94ddf4" stroke="black" points="16.5,-570.7 16.5,-607.7 231.5,-607.7 231.5,-570.7 16.5,-570.7"/>
<text text-anchor="middle" x="124" y="-585.5" font-family="Times,serif" font-size="14.00">bclconvert_report_directory</text>
</g>
<!-- get_run_info_xml_file_from_reports_dir -->
<g id="node7" class="node">
<title>get_run_info_xml_file_from_reports_dir</title>
<polygon fill="lightgoldenrodyellow" stroke="black" points="67.5,-443.7 67.5,-480.7 300.5,-480.7 300.5,-443.7 67.5,-443.7"/>
<text text-anchor="middle" x="184" y="-458.5" font-family="Times,serif" font-size="14.00">get&#45;file&#45;from&#45;directory v(1.0.1)</text>
</g>
<!-- bclconvert_report_directory&#45;&gt;get_run_info_xml_file_from_reports_dir -->
<g id="edge10" class="edge">
<title>bclconvert_report_directory&#45;&gt;get_run_info_xml_file_from_reports_dir</title>
<path fill="none" stroke="black" d="M132.47,-570.56C142.56,-549.53 159.53,-514.17 171.23,-489.82"/>
<polygon fill="black" stroke="black" points="174.4,-491.29 175.57,-480.76 168.09,-488.26 174.4,-491.29"/>
</g>
<!-- bclconvert_report_directory&#45;&gt;run_multiqc_step -->
<g id="edge11" class="edge">
<title>bclconvert_report_directory&#45;&gt;run_multiqc_step</title>
<path fill="none" stroke="black" d="M105.32,-570.3C79.08,-542.88 36.76,-488.84 58,-443.2 113.43,-324.12 265.11,-264.13 359.51,-237.46"/>
<polygon fill="black" stroke="black" points="360.61,-240.79 369.31,-234.75 358.74,-234.04 360.61,-240.79"/>
</g>
<!-- interop_output_dir -->
<g id="node4" class="node">
<title>interop_output_dir</title>
<polygon fill="#94ddf4" stroke="black" points="195.5,-77.7 195.5,-114.7 344.5,-114.7 344.5,-77.7 195.5,-77.7"/>
<text text-anchor="middle" x="270" y="-92.5" font-family="Times,serif" font-size="14.00">interop_output_dir</text>
</g>
<!-- multiqc_html_report -->
<g id="node5" class="node">
<title>multiqc_html_report</title>
<polygon fill="#94ddf4" stroke="black" points="533,-77.7 533,-114.7 695,-114.7 695,-77.7 533,-77.7"/>
<text text-anchor="middle" x="614" y="-92.5" font-family="Times,serif" font-size="14.00">multiqc_html_report</text>
</g>
<!-- multiqc_output_dir -->
<g id="node6" class="node">
<title>multiqc_output_dir</title>
<polygon fill="#94ddf4" stroke="black" points="363,-77.7 363,-114.7 515,-114.7 515,-77.7 363,-77.7"/>
<text text-anchor="middle" x="439" y="-92.5" font-family="Times,serif" font-size="14.00">multiqc_output_dir</text>
</g>
<!-- get_run_info_xml_file_from_reports_dir&#45;&gt;generate_interop_qc_step -->
<g id="edge1" class="edge">
<title>get_run_info_xml_file_from_reports_dir&#45;&gt;generate_interop_qc_step</title>
<path fill="none" stroke="black" d="M202.15,-443.5C223.13,-423.03 257.82,-389.19 281.5,-366.08"/>
<polygon fill="black" stroke="black" points="284.06,-368.47 288.78,-358.98 279.17,-363.46 284.06,-368.47"/>
</g>
<!-- generate_interop_qc_step&#45;&gt;interop_output_dir -->
<g id="edge3" class="edge">
<title>generate_interop_qc_step&#45;&gt;interop_output_dir</title>
<path fill="none" stroke="black" d="M304.28,-321.41C297.9,-279.72 281.96,-175.45 274.28,-125.17"/>
<polygon fill="black" stroke="black" points="277.7,-124.38 272.72,-115.03 270.78,-125.44 277.7,-124.38"/>
</g>
<!-- generate_interop_qc_step&#45;&gt;run_multiqc_step -->
<g id="edge2" class="edge">
<title>generate_interop_qc_step&#45;&gt;run_multiqc_step</title>
<path fill="none" stroke="black" d="M326.48,-321.5C349.09,-300.94 386.54,-266.89 411.97,-243.78"/>
<polygon fill="black" stroke="black" points="414.4,-246.3 419.44,-236.98 409.69,-241.12 414.4,-246.3"/>
</g>
<!-- run_multiqc_step&#45;&gt;multiqc_html_report -->
<g id="edge4" class="edge">
<title>run_multiqc_step&#45;&gt;multiqc_html_report</title>
<path fill="none" stroke="black" d="M464.82,-199.5C495.28,-178.61 546.03,-143.81 579.75,-120.69"/>
<polygon fill="black" stroke="black" points="582.09,-123.33 588.36,-114.79 578.13,-117.56 582.09,-123.33"/>
</g>
<!-- run_multiqc_step&#45;&gt;multiqc_output_dir -->
<g id="edge5" class="edge">
<title>run_multiqc_step&#45;&gt;multiqc_output_dir</title>
<path fill="none" stroke="black" d="M439,-199.5C439,-179.91 439,-148.09 439,-125.14"/>
<polygon fill="black" stroke="black" points="442.5,-124.98 439,-114.98 435.5,-124.98 442.5,-124.98"/>
</g>
<!-- \n -->
<g id="node10" class="node">
<title>\n</title>
<ellipse fill="none" stroke="black" cx="515" cy="-589.2" rx="27" ry="18"/>
</g>
</g>
</svg>
