<?xml version="1.0" encoding="UTF-8" standalone="no"?>
<!DOCTYPE svg PUBLIC "-//W3C//DTD SVG 1.1//EN"
 "http://www.w3.org/Graphics/SVG/1.1/DTD/svg11.dtd">
<!-- Generated by graphviz version 2.43.0 (0)
 -->
<!-- Title: G Pages: 1 -->
<svg width="1046pt" height="952pt"
 viewBox="0.00 0.00 1045.50 951.67" xmlns="http://www.w3.org/2000/svg" xmlns:xlink="http://www.w3.org/1999/xlink">
<g id="graph0" class="graph" transform="scale(1 1) rotate(0) translate(4 947.67)">
<title>G</title>
<polygon fill="#eeeeee" stroke="transparent" points="-4,4 -4,-947.67 1041.5,-947.67 1041.5,4 -4,4"/>
<g id="clust1" class="cluster">
<title>cluster_inputs</title>
<polygon fill="#eeeeee" stroke="black" stroke-dasharray="5,2" points="271.5,-691.22 271.5,-919.63 923.5,-919.63 923.5,-691.22 271.5,-691.22"/>
<text text-anchor="middle" x="857" y="-699.02" font-family="Times,serif" font-size="14.00">Workflow Inputs</text>
</g>
<g id="clust2" class="cluster">
<title>cluster_outputs</title>
<polygon fill="#eeeeee" stroke="black" stroke-dasharray="5,2" points="402.5,-24.04 402.5,-252.45 1029.5,-252.45 1029.5,-24.04 402.5,-24.04"/>
<text text-anchor="middle" x="957" y="-31.84" font-family="Times,serif" font-size="14.00">Workflow Outputs</text>
</g>
<!-- create_dummy_file_step -->
<g id="node1" class="node">
<title>create_dummy_file_step</title>
<polygon fill="lightgoldenrodyellow" stroke="black" points="0,-822.04 0,-858.04 261,-858.04 261,-822.04 0,-822.04"/>
<text text-anchor="middle" x="130.5" y="-836.34" font-family="Times,serif" font-size="14.00">custom&#45;create&#45;dummy&#45;file v(1.0.0)</text>
</g>
<!-- bclconvert_qc_step -->
<g id="node2" class="node">
<title>bclconvert_qc_step</title>
<polygon fill="lightgoldenrodyellow" stroke="black" points="531,-374.04 531,-410.04 670,-410.04 670,-374.04 531,-374.04"/>
<text text-anchor="middle" x="600.5" y="-388.34" font-family="Times,serif" font-size="14.00">multiqc v(1.14.0)</text>
</g>
<!-- create_dummy_file_step&#45;&gt;bclconvert_qc_step -->
<g id="edge1" class="edge">
<title>create_dummy_file_step&#45;&gt;bclconvert_qc_step</title>
<path fill="none" stroke="black" d="M138.86,-821.88C160.19,-779.34 220.23,-667.15 294.5,-593.54 375.33,-513.43 492.93,-447.23 556.22,-414.72"/>
<polygon fill="black" stroke="black" points="557.83,-417.83 565.15,-410.17 554.65,-411.59 557.83,-417.83"/>
</g>
<!-- interop_qc_step -->
<g id="node3" class="node">
<title>interop_qc_step</title>
<polygon fill="lightgoldenrodyellow" stroke="black" points="303.5,-594.04 303.5,-630.04 493.5,-630.04 493.5,-594.04 303.5,-594.04"/>
<text text-anchor="middle" x="398.5" y="-608.34" font-family="Times,serif" font-size="14.00">illumina&#45;interop v(1.2.0)</text>
</g>
<!-- create_dummy_file_step&#45;&gt;interop_qc_step -->
<g id="edge4" class="edge">
<title>create_dummy_file_step&#45;&gt;interop_qc_step</title>
<path fill="none" stroke="black" d="M151.08,-821.68C198.65,-781.57 316.25,-682.4 370.39,-636.74"/>
<polygon fill="black" stroke="black" points="372.82,-639.27 378.21,-630.15 368.31,-633.92 372.82,-639.27"/>
</g>
<!-- bclconvert_multiqc_out -->
<g id="node8" class="node">
<title>bclconvert_multiqc_out</title>
<polygon fill="#94ddf4" stroke="black" points="410.5,-155.04 410.5,-191.04 592.5,-191.04 592.5,-155.04 410.5,-155.04"/>
<text text-anchor="middle" x="501.5" y="-169.34" font-family="Times,serif" font-size="14.00">bclconvert_multiqc_out</text>
</g>
<!-- bclconvert_qc_step&#45;&gt;bclconvert_multiqc_out -->
<g id="edge11" class="edge">
<title>bclconvert_qc_step&#45;&gt;bclconvert_multiqc_out</title>
<path fill="none" stroke="black" d="M592.73,-374.01C575.53,-336.32 534.14,-245.58 513.55,-200.45"/>
<polygon fill="black" stroke="black" points="516.7,-198.94 509.37,-191.29 510.34,-201.84 516.7,-198.94"/>
</g>
<!-- interop_qc_step&#45;&gt;bclconvert_qc_step -->
<g id="edge2" class="edge">
<title>interop_qc_step&#45;&gt;bclconvert_qc_step</title>
<path fill="none" stroke="black" d="M414.35,-593.94C449.97,-555.49 536.47,-462.15 577.79,-417.55"/>
<polygon fill="black" stroke="black" points="580.49,-419.78 584.72,-410.07 575.36,-415.03 580.49,-419.78"/>
</g>
<!-- run_bclconvert_step -->
<g id="node4" class="node">
<title>run_bclconvert_step</title>
<polygon fill="#f3cea1" stroke="black" points="671.5,-594.04 671.5,-630.04 877.5,-630.04 877.5,-594.04 671.5,-594.04"/>
<text text-anchor="middle" x="774.5" y="-608.34" font-family="Times,serif" font-size="14.00">bclconvert&#45;scatter v(4.0.3)</text>
</g>
<!-- run_bclconvert_step&#45;&gt;bclconvert_qc_step -->
<g id="edge3" class="edge">
<title>run_bclconvert_step&#45;&gt;bclconvert_qc_step</title>
<path fill="none" stroke="black" d="M760.85,-593.94C730.29,-555.65 656.27,-462.92 620.51,-418.11"/>
<polygon fill="black" stroke="black" points="623.06,-415.7 614.09,-410.07 617.59,-420.07 623.06,-415.7"/>
</g>
<!-- fastq_directories -->
<g id="node9" class="node">
<title>fastq_directories</title>
<polygon fill="#94ddf4" stroke="black" points="743,-155.04 743,-191.04 880,-191.04 880,-155.04 743,-155.04"/>
<text text-anchor="middle" x="811.5" y="-169.34" font-family="Times,serif" font-size="14.00">fastq_directories</text>
</g>
<!-- run_bclconvert_step&#45;&gt;fastq_directories -->
<g id="edge12" class="edge">
<title>run_bclconvert_step&#45;&gt;fastq_directories</title>
<path fill="none" stroke="black" d="M775.95,-593.91C781.61,-527.01 802.27,-283.01 809.21,-201.08"/>
<polygon fill="black" stroke="black" points="812.7,-201.31 810.06,-191.06 805.73,-200.72 812.7,-201.31"/>
</g>
<!-- fastq_list_rows -->
<g id="node10" class="node">
<title>fastq_list_rows</title>
<polygon fill="#94ddf4" stroke="black" points="898,-155.04 898,-191.04 1021,-191.04 1021,-155.04 898,-155.04"/>
<text text-anchor="middle" x="959.5" y="-169.34" font-family="Times,serif" font-size="14.00">fastq_list_rows</text>
</g>
<!-- run_bclconvert_step&#45;&gt;fastq_list_rows -->
<g id="edge13" class="edge">
<title>run_bclconvert_step&#45;&gt;fastq_list_rows</title>
<path fill="none" stroke="black" d="M781.75,-593.91C810.13,-526.87 913.79,-282.01 948.27,-200.58"/>
<polygon fill="black" stroke="black" points="951.62,-201.63 952.3,-191.06 945.18,-198.9 951.62,-201.63"/>
</g>
<!-- samplesheets -->
<g id="node11" class="node">
<title>samplesheets</title>
<polygon fill="#94ddf4" stroke="black" points="610.5,-155.04 610.5,-191.04 724.5,-191.04 724.5,-155.04 610.5,-155.04"/>
<text text-anchor="middle" x="667.5" y="-169.34" font-family="Times,serif" font-size="14.00">samplesheets</text>
</g>
<!-- run_bclconvert_step&#45;&gt;samplesheets -->
<g id="edge14" class="edge">
<title>run_bclconvert_step&#45;&gt;samplesheets</title>
<path fill="none" stroke="black" d="M770.31,-593.91C753.92,-527.01 694.18,-283.01 674.12,-201.08"/>
<polygon fill="black" stroke="black" points="677.44,-199.94 671.67,-191.06 670.64,-201.6 677.44,-199.94"/>
</g>
<!-- runfolder_name -->
<g id="node5" class="node">
<title>runfolder_name</title>
<polygon fill="#94ddf4" stroke="black" points="536,-822.04 536,-858.04 665,-858.04 665,-822.04 536,-822.04"/>
<text text-anchor="middle" x="600.5" y="-836.34" font-family="Times,serif" font-size="14.00">runfolder_name</text>
</g>
<!-- runfolder_name&#45;&gt;bclconvert_qc_step -->
<g id="edge5" class="edge">
<title>runfolder_name&#45;&gt;bclconvert_qc_step</title>
<path fill="none" stroke="black" d="M594.87,-821.83C584.83,-753.89 584.39,-503.97 593.58,-420.44"/>
<polygon fill="black" stroke="black" points="597.06,-420.8 594.85,-410.44 590.12,-419.92 597.06,-420.8"/>
</g>
<!-- runfolder_name&#45;&gt;bclconvert_qc_step -->
<g id="edge6" class="edge">
<title>runfolder_name&#45;&gt;bclconvert_qc_step</title>
<path fill="none" stroke="black" d="M600.5,-821.83C600.5,-753.96 600.5,-504.48 600.5,-420.69"/>
<polygon fill="black" stroke="black" points="604,-420.44 600.5,-410.44 597,-420.44 604,-420.44"/>
</g>
<!-- runfolder_name&#45;&gt;bclconvert_qc_step -->
<g id="edge7" class="edge">
<title>runfolder_name&#45;&gt;bclconvert_qc_step</title>
<path fill="none" stroke="black" d="M606.13,-821.83C616.17,-753.89 616.61,-503.97 607.42,-420.44"/>
<polygon fill="black" stroke="black" points="610.88,-419.92 606.15,-410.44 603.94,-420.8 610.88,-419.92"/>
</g>
<!-- bclconvert_run_input_directory -->
<g id="node6" class="node">
<title>bclconvert_run_input_directory</title>
<polygon fill="#94ddf4" stroke="black" points="279,-822.04 279,-858.04 518,-858.04 518,-822.04 279,-822.04"/>
<text text-anchor="middle" x="398.5" y="-836.34" font-family="Times,serif" font-size="14.00">bclconvert_run_input_directory</text>
</g>
<!-- bclconvert_run_input_directory&#45;&gt;interop_qc_step -->
<g id="edge8" class="edge">
<title>bclconvert_run_input_directory&#45;&gt;interop_qc_step</title>
<path fill="none" stroke="black" d="M398.5,-821.68C398.5,-782.56 398.5,-687.25 398.5,-640.21"/>
<polygon fill="black" stroke="black" points="402,-640.15 398.5,-630.15 395,-640.15 402,-640.15"/>
</g>
<!-- bclconvert_run_input_directory&#45;&gt;run_bclconvert_step -->
<g id="edge9" class="edge">
<title>bclconvert_run_input_directory&#45;&gt;run_bclconvert_step</title>
<path fill="none" stroke="black" d="M427.07,-821.87C494.26,-781.48 662.27,-680.5 737.3,-635.4"/>
<polygon fill="black" stroke="black" points="739.21,-638.34 745.97,-630.19 735.6,-632.34 739.21,-638.34"/>
</g>
<!-- bclconvert_run_configurations -->
<g id="node7" class="node">
<title>bclconvert_run_configurations</title>
<polygon fill="#94ddf4" stroke="black" points="683.5,-822.04 683.5,-858.04 915.5,-858.04 915.5,-822.04 683.5,-822.04"/>
<text text-anchor="middle" x="799.5" y="-836.34" font-family="Times,serif" font-size="14.00">bclconvert_run_configurations</text>
</g>
<!-- bclconvert_run_configurations&#45;&gt;run_bclconvert_step -->
<g id="edge10" class="edge">
<title>bclconvert_run_configurations&#45;&gt;run_bclconvert_step</title>
<path fill="none" stroke="black" d="M797.58,-821.68C793.25,-782.56 782.71,-687.25 777.51,-640.21"/>
<polygon fill="black" stroke="black" points="780.97,-639.71 776.39,-630.15 774.01,-640.48 780.97,-639.71"/>
</g>
</g>
</svg>
