<?xml version="1.0" encoding="UTF-8" standalone="no"?>
<!DOCTYPE svg PUBLIC "-//W3C//DTD SVG 1.1//EN"
 "http://www.w3.org/Graphics/SVG/1.1/DTD/svg11.dtd">
<!-- Generated by graphviz version 2.43.0 (0)
 -->
<!-- Title: G Pages: 1 -->
<svg width="6553pt" height="2986pt"
 viewBox="0.00 0.00 6553.00 2985.97" xmlns="http://www.w3.org/2000/svg" xmlns:xlink="http://www.w3.org/1999/xlink">
<g id="graph0" class="graph" transform="scale(1 1) rotate(0) translate(4 2981.97)">
<title>G</title>
<polygon fill="#eeeeee" stroke="transparent" points="-4,4 -4,-2981.97 6549,-2981.97 6549,4 -4,4"/>
<g id="clust1" class="cluster">
<title>cluster_inputs</title>
<polygon fill="#eeeeee" stroke="black" stroke-dasharray="5,2" points="2798,-2474.66 2798,-2930.04 4165,-2930.04 4165,-2474.66 2798,-2474.66"/>
<text text-anchor="middle" x="4098.5" y="-2482.46" font-family="Times,serif" font-size="14.00">Workflow Inputs</text>
</g>
<g id="clust2" class="cluster">
<title>cluster_outputs</title>
<polygon fill="#eeeeee" stroke="black" stroke-dasharray="5,2" points="8,-269.64 8,-725.02 6011,-725.02 6011,-269.64 8,-269.64"/>
<text text-anchor="middle" x="5938.5" y="-277.44" font-family="Times,serif" font-size="14.00">Workflow Outputs</text>
</g>
<!-- validate_dsdm_json -->
<g id="node1" class="node">
<title>validate_dsdm_json</title>
<polygon fill="lightgoldenrodyellow" stroke="black" points="6021,-548 6021,-584 6231,-584 6231,-548 6021,-548"/>
<text text-anchor="middle" x="6126" y="-562.3" font-family="Times,serif" font-size="14.00">validate&#45;dsdm&#45;json v(1.0.0)</text>
</g>
<!-- assert_all_samples_passing -->
<g id="node2" class="node">
<title>assert_all_samples_passing</title>
<polygon fill="lightgoldenrodyellow" stroke="black" points="6048.5,-93 6048.5,-129 6203.5,-129 6203.5,-93 6048.5,-93"/>
<text text-anchor="middle" x="6126" y="-107.3" font-family="Times,serif" font-size="14.00">assert&#45;true v(1.0.0)</text>
</g>
<!-- validate_dsdm_json&#45;&gt;assert_all_samples_passing -->
<g id="edge1" class="edge">
<title>validate_dsdm_json&#45;&gt;assert_all_samples_passing</title>
<path fill="none" stroke="black" d="M6126,-547.8C6126,-479.05 6126,-223.75 6126,-139.31"/>
<polygon fill="black" stroke="black" points="6129.5,-139.22 6126,-129.22 6122.5,-139.22 6129.5,-139.22"/>
</g>
<!-- run_tso500_ctdna_analysis_workflow_step -->
<g id="node3" class="node">
<title>run_tso500_ctdna_analysis_workflow_step</title>
<polygon fill="lightgoldenrodyellow" stroke="black" points="3258,-1423 3258,-1459 3590,-1459 3590,-1423 3258,-1423"/>
<text text-anchor="middle" x="3424" y="-1437.3" font-family="Times,serif" font-size="14.00">tso500&#45;ctdna&#45;analysis&#45;workflow v(1.1.0.120)</text>
</g>
<!-- get_cttso_outputs_by_sample -->
<g id="node4" class="node">
<title>get_cttso_outputs_by_sample</title>
<polygon fill="lightgoldenrodyellow" stroke="black" points="6249,-548 6249,-584 6545,-584 6545,-548 6249,-548"/>
<text text-anchor="middle" x="6397" y="-562.3" font-family="Times,serif" font-size="14.00">get&#45;tso500&#45;outputs&#45;per&#45;sample v(1.0.0)</text>
</g>
<!-- run_tso500_ctdna_analysis_workflow_step&#45;&gt;get_cttso_outputs_by_sample -->
<g id="edge2" class="edge">
<title>run_tso500_ctdna_analysis_workflow_step&#45;&gt;get_cttso_outputs_by_sample</title>
<path fill="none" stroke="black" d="M3510.92,-1422.93C3766.74,-1371.86 4538.32,-1212.06 5163,-1022.5 5631.42,-880.36 6180.57,-656.9 6346.85,-587.96"/>
<polygon fill="black" stroke="black" points="6348.43,-591.09 6356.32,-584.02 6345.74,-584.62 6348.43,-591.09"/>
</g>
<!-- run_tso500_ctdna_reporting_workflow_step -->
<g id="node5" class="node">
<title>run_tso500_ctdna_reporting_workflow_step</title>
<polygon fill="lightgoldenrodyellow" stroke="black" points="4812.5,-986 4812.5,-1022 5153.5,-1022 5153.5,-986 4812.5,-986"/>
<text text-anchor="middle" x="4983" y="-1000.3" font-family="Times,serif" font-size="14.00">tso500&#45;ctdna&#45;reporting&#45;workflow v(1.1.0.120)</text>
</g>
<!-- run_tso500_ctdna_analysis_workflow_step&#45;&gt;run_tso500_ctdna_reporting_workflow_step -->
<g id="edge7" class="edge">
<title>run_tso500_ctdna_analysis_workflow_step&#45;&gt;run_tso500_ctdna_reporting_workflow_step</title>
<path fill="none" stroke="black" d="M3482.28,-1422.95C3723.21,-1354.28 4640.87,-1098.22 4909.03,-1024.79"/>
<polygon fill="black" stroke="black" points="4910.33,-1028.07 4919.05,-1022.05 4908.48,-1021.31 4910.33,-1028.07"/>
</g>
<!-- run_tso500_ctdna_analysis_workflow_step&#45;&gt;run_tso500_ctdna_reporting_workflow_step -->
<g id="edge8" class="edge">
<title>run_tso500_ctdna_analysis_workflow_step&#45;&gt;run_tso500_ctdna_reporting_workflow_step</title>
<path fill="none" stroke="black" d="M3487.95,-1422.95C3739.19,-1354.28 4656.98,-1098.22 4915.09,-1024.79"/>
<polygon fill="black" stroke="black" points="4916.06,-1028.16 4924.72,-1022.05 4914.14,-1021.42 4916.06,-1028.16"/>
</g>
<!-- align_collapse_fusion_caller_analysis_dir -->
<g id="node17" class="node">
<title>align_collapse_fusion_caller_analysis_dir</title>
<polygon fill="#94ddf4" stroke="black" points="2589.5,-548 2589.5,-584 2894.5,-584 2894.5,-548 2589.5,-548"/>
<text text-anchor="middle" x="2742" y="-562.3" font-family="Times,serif" font-size="14.00">align_collapse_fusion_caller_analysis_dir</text>
</g>
<!-- run_tso500_ctdna_analysis_workflow_step&#45;&gt;align_collapse_fusion_caller_analysis_dir -->
<g id="edge30" class="edge">
<title>run_tso500_ctdna_analysis_workflow_step&#45;&gt;align_collapse_fusion_caller_analysis_dir</title>
<path fill="none" stroke="black" d="M3410.68,-1422.95C3326.07,-1314.64 2863.67,-722.74 2761.84,-592.4"/>
<polygon fill="black" stroke="black" points="2764.32,-589.88 2755.4,-584.16 2758.8,-594.19 2764.32,-589.88"/>
</g>
<!-- analysis_workflow_output -->
<g id="node18" class="node">
<title>analysis_workflow_output</title>
<polygon fill="#94ddf4" stroke="black" points="2913,-548 2913,-584 3113,-584 3113,-548 2913,-548"/>
<text text-anchor="middle" x="3013" y="-562.3" font-family="Times,serif" font-size="14.00">analysis_workflow_output</text>
</g>
<!-- run_tso500_ctdna_analysis_workflow_step&#45;&gt;analysis_workflow_output -->
<g id="edge31" class="edge">
<title>run_tso500_ctdna_analysis_workflow_step&#45;&gt;analysis_workflow_output</title>
<path fill="none" stroke="black" d="M3415.97,-1422.95C3365.13,-1314.97 3087.99,-726.29 3025.52,-593.58"/>
<polygon fill="black" stroke="black" points="3028.5,-591.71 3021.08,-584.16 3022.17,-594.69 3028.5,-591.71"/>
</g>
<!-- annotation_analysis_dir -->
<g id="node19" class="node">
<title>annotation_analysis_dir</title>
<polygon fill="#94ddf4" stroke="black" points="3131.5,-548 3131.5,-584 3316.5,-584 3316.5,-548 3131.5,-548"/>
<text text-anchor="middle" x="3224" y="-562.3" font-family="Times,serif" font-size="14.00">annotation_analysis_dir</text>
</g>
<!-- run_tso500_ctdna_analysis_workflow_step&#45;&gt;annotation_analysis_dir -->
<g id="edge32" class="edge">
<title>run_tso500_ctdna_analysis_workflow_step&#45;&gt;annotation_analysis_dir</title>
<path fill="none" stroke="black" d="M3420.09,-1422.95C3395.38,-1315.07 3260.76,-727.47 3230.18,-593.98"/>
<polygon fill="black" stroke="black" points="3233.58,-593.12 3227.93,-584.16 3226.75,-594.69 3233.58,-593.12"/>
</g>
<!-- cnv_caller_analysis_dir -->
<g id="node21" class="node">
<title>cnv_caller_analysis_dir</title>
<polygon fill="#94ddf4" stroke="black" points="3334.5,-548 3334.5,-584 3513.5,-584 3513.5,-548 3334.5,-548"/>
<text text-anchor="middle" x="3424" y="-562.3" font-family="Times,serif" font-size="14.00">cnv_caller_analysis_dir</text>
</g>
<!-- run_tso500_ctdna_analysis_workflow_step&#45;&gt;cnv_caller_analysis_dir -->
<g id="edge34" class="edge">
<title>run_tso500_ctdna_analysis_workflow_step&#45;&gt;cnv_caller_analysis_dir</title>
<path fill="none" stroke="black" d="M3424,-1422.95C3424,-1315.18 3424,-728.65 3424,-594.39"/>
<polygon fill="black" stroke="black" points="3427.5,-594.16 3424,-584.16 3420.5,-594.16 3427.5,-594.16"/>
</g>
<!-- contamination_analysis_dir -->
<g id="node23" class="node">
<title>contamination_analysis_dir</title>
<polygon fill="#94ddf4" stroke="black" points="3532,-548 3532,-584 3742,-584 3742,-548 3532,-548"/>
<text text-anchor="middle" x="3637" y="-562.3" font-family="Times,serif" font-size="14.00">contamination_analysis_dir</text>
</g>
<!-- run_tso500_ctdna_analysis_workflow_step&#45;&gt;contamination_analysis_dir -->
<g id="edge36" class="edge">
<title>run_tso500_ctdna_analysis_workflow_step&#45;&gt;contamination_analysis_dir</title>
<path fill="none" stroke="black" d="M3428.16,-1422.95C3454.48,-1315.07 3597.85,-727.47 3630.42,-593.98"/>
<polygon fill="black" stroke="black" points="3633.84,-594.7 3632.81,-584.16 3627.04,-593.04 3633.84,-594.7"/>
</g>
<!-- dna_fusion_filtering_analysis_dir -->
<g id="node25" class="node">
<title>dna_fusion_filtering_analysis_dir</title>
<polygon fill="#94ddf4" stroke="black" points="3760,-548 3760,-584 4008,-584 4008,-548 3760,-548"/>
<text text-anchor="middle" x="3884" y="-562.3" font-family="Times,serif" font-size="14.00">dna_fusion_filtering_analysis_dir</text>
</g>
<!-- run_tso500_ctdna_analysis_workflow_step&#45;&gt;dna_fusion_filtering_analysis_dir -->
<g id="edge38" class="edge">
<title>run_tso500_ctdna_analysis_workflow_step&#45;&gt;dna_fusion_filtering_analysis_dir</title>
<path fill="none" stroke="black" d="M3432.98,-1422.95C3489.94,-1314.86 3800.69,-725.11 3870.2,-593.19"/>
<polygon fill="black" stroke="black" points="3873.39,-594.63 3874.96,-584.16 3867.2,-591.37 3873.39,-594.63"/>
</g>
<!-- dna_qc_metrics_analysis_dir -->
<g id="node26" class="node">
<title>dna_qc_metrics_analysis_dir</title>
<polygon fill="#94ddf4" stroke="black" points="4026,-548 4026,-584 4244,-584 4244,-548 4026,-548"/>
<text text-anchor="middle" x="4135" y="-562.3" font-family="Times,serif" font-size="14.00">dna_qc_metrics_analysis_dir</text>
</g>
<!-- run_tso500_ctdna_analysis_workflow_step&#45;&gt;dna_qc_metrics_analysis_dir -->
<g id="edge39" class="edge">
<title>run_tso500_ctdna_analysis_workflow_step&#45;&gt;dna_qc_metrics_analysis_dir</title>
<path fill="none" stroke="black" d="M3437.88,-1422.95C3526.19,-1314.53 4009.12,-721.56 4114.63,-592.01"/>
<polygon fill="black" stroke="black" points="4117.43,-594.12 4121.03,-584.16 4112,-589.7 4117.43,-594.12"/>
</g>
<!-- max_somatic_vaf_analysis_dir -->
<g id="node28" class="node">
<title>max_somatic_vaf_analysis_dir</title>
<polygon fill="#94ddf4" stroke="black" points="4262.5,-548 4262.5,-584 4491.5,-584 4491.5,-548 4262.5,-548"/>
<text text-anchor="middle" x="4377" y="-562.3" font-family="Times,serif" font-size="14.00">max_somatic_vaf_analysis_dir</text>
</g>
<!-- run_tso500_ctdna_analysis_workflow_step&#45;&gt;max_somatic_vaf_analysis_dir -->
<g id="edge41" class="edge">
<title>run_tso500_ctdna_analysis_workflow_step&#45;&gt;max_somatic_vaf_analysis_dir</title>
<path fill="none" stroke="black" d="M3442.61,-1422.95C3561.2,-1314.32 4210.86,-719.19 4350.54,-591.24"/>
<polygon fill="black" stroke="black" points="4353.26,-593.49 4358.27,-584.16 4348.53,-588.33 4353.26,-593.49"/>
</g>
<!-- merged_annotation_analysis_dir -->
<g id="node29" class="node">
<title>merged_annotation_analysis_dir</title>
<polygon fill="#94ddf4" stroke="black" points="4510,-548 4510,-584 4756,-584 4756,-548 4510,-548"/>
<text text-anchor="middle" x="4633" y="-562.3" font-family="Times,serif" font-size="14.00">merged_annotation_analysis_dir</text>
</g>
<!-- run_tso500_ctdna_analysis_workflow_step&#45;&gt;merged_annotation_analysis_dir -->
<g id="edge42" class="edge">
<title>run_tso500_ctdna_analysis_workflow_step&#45;&gt;merged_annotation_analysis_dir</title>
<path fill="none" stroke="black" d="M3447.61,-1422.95C3598.51,-1313.99 4427.16,-715.63 4601,-590.1"/>
<polygon fill="black" stroke="black" points="4603.18,-592.85 4609.24,-584.16 4599.08,-587.17 4603.18,-592.85"/>
</g>
<!-- msi_analysis_dir -->
<g id="node31" class="node">
<title>msi_analysis_dir</title>
<polygon fill="#94ddf4" stroke="black" points="1042,-548 1042,-584 1176,-584 1176,-548 1042,-548"/>
<text text-anchor="middle" x="1109" y="-562.3" font-family="Times,serif" font-size="14.00">msi_analysis_dir</text>
</g>
<!-- run_tso500_ctdna_analysis_workflow_step&#45;&gt;msi_analysis_dir -->
<g id="edge44" class="edge">
<title>run_tso500_ctdna_analysis_workflow_step&#45;&gt;msi_analysis_dir</title>
<path fill="none" stroke="black" d="M3378.8,-1422.95C3087.99,-1313.29 1482.6,-707.89 1163.98,-587.73"/>
<polygon fill="black" stroke="black" points="1165.09,-584.41 1154.49,-584.16 1162.62,-590.96 1165.09,-584.41"/>
</g>
<!-- phased_variants_analysis_dir -->
<g id="node33" class="node">
<title>phased_variants_analysis_dir</title>
<polygon fill="#94ddf4" stroke="black" points="1194,-548 1194,-584 1418,-584 1418,-548 1194,-548"/>
<text text-anchor="middle" x="1306" y="-562.3" font-family="Times,serif" font-size="14.00">phased_variants_analysis_dir</text>
</g>
<!-- run_tso500_ctdna_analysis_workflow_step&#45;&gt;phased_variants_analysis_dir -->
<g id="edge46" class="edge">
<title>run_tso500_ctdna_analysis_workflow_step&#45;&gt;phased_variants_analysis_dir</title>
<path fill="none" stroke="black" d="M3382.64,-1422.95C3116.84,-1313.4 1650.71,-709.08 1357.17,-588.09"/>
<polygon fill="black" stroke="black" points="1358.2,-584.73 1347.62,-584.16 1355.53,-591.2 1358.2,-584.73"/>
</g>
<!-- small_variant_filter_analysis_dir -->
<g id="node39" class="node">
<title>small_variant_filter_analysis_dir</title>
<polygon fill="#94ddf4" stroke="black" points="1436.5,-548 1436.5,-584 1681.5,-584 1681.5,-548 1436.5,-548"/>
<text text-anchor="middle" x="1559" y="-562.3" font-family="Times,serif" font-size="14.00">small_variant_filter_analysis_dir</text>
</g>
<!-- run_tso500_ctdna_analysis_workflow_step&#45;&gt;small_variant_filter_analysis_dir -->
<g id="edge52" class="edge">
<title>run_tso500_ctdna_analysis_workflow_step&#45;&gt;small_variant_filter_analysis_dir</title>
<path fill="none" stroke="black" d="M3387.58,-1422.95C3153.77,-1313.5 1865.08,-710.27 1604.82,-588.45"/>
<polygon fill="black" stroke="black" points="1606.19,-585.23 1595.65,-584.16 1603.22,-591.57 1606.19,-585.23"/>
</g>
<!-- stitched_realigned_analysis_dir -->
<g id="node40" class="node">
<title>stitched_realigned_analysis_dir</title>
<polygon fill="#94ddf4" stroke="black" points="1700,-548 1700,-584 1940,-584 1940,-548 1700,-548"/>
<text text-anchor="middle" x="1820" y="-562.3" font-family="Times,serif" font-size="14.00">stitched_realigned_analysis_dir</text>
</g>
<!-- run_tso500_ctdna_analysis_workflow_step&#45;&gt;stitched_realigned_analysis_dir -->
<g id="edge53" class="edge">
<title>run_tso500_ctdna_analysis_workflow_step&#45;&gt;stitched_realigned_analysis_dir</title>
<path fill="none" stroke="black" d="M3392.68,-1422.95C3191.88,-1313.67 2086.53,-712.06 1860.41,-589"/>
<polygon fill="black" stroke="black" points="1861.98,-585.86 1851.52,-584.16 1858.63,-592.01 1861.98,-585.86"/>
</g>
<!-- tmb_analysis_dir -->
<g id="node41" class="node">
<title>tmb_analysis_dir</title>
<polygon fill="#94ddf4" stroke="black" points="1958.5,-548 1958.5,-584 2095.5,-584 2095.5,-548 1958.5,-548"/>
<text text-anchor="middle" x="2027" y="-562.3" font-family="Times,serif" font-size="14.00">tmb_analysis_dir</text>
</g>
<!-- run_tso500_ctdna_analysis_workflow_step&#45;&gt;tmb_analysis_dir -->
<g id="edge54" class="edge">
<title>run_tso500_ctdna_analysis_workflow_step&#45;&gt;tmb_analysis_dir</title>
<path fill="none" stroke="black" d="M3396.72,-1422.95C3222.1,-1313.83 2261.99,-713.85 2063.08,-589.55"/>
<polygon fill="black" stroke="black" points="2064.79,-586.49 2054.45,-584.16 2061.08,-592.42 2064.79,-586.49"/>
</g>
<!-- variant_caller_analysis_dir -->
<g id="node42" class="node">
<title>variant_caller_analysis_dir</title>
<polygon fill="#94ddf4" stroke="black" points="2114,-548 2114,-584 2320,-584 2320,-548 2114,-548"/>
<text text-anchor="middle" x="2217" y="-562.3" font-family="Times,serif" font-size="14.00">variant_caller_analysis_dir</text>
</g>
<!-- run_tso500_ctdna_analysis_workflow_step&#45;&gt;variant_caller_analysis_dir -->
<g id="edge55" class="edge">
<title>run_tso500_ctdna_analysis_workflow_step&#45;&gt;variant_caller_analysis_dir</title>
<path fill="none" stroke="black" d="M3400.43,-1422.95C3249.78,-1313.99 2422.5,-715.63 2248.94,-590.1"/>
<polygon fill="black" stroke="black" points="2250.87,-587.18 2240.72,-584.16 2246.77,-592.85 2250.87,-587.18"/>
</g>
<!-- variant_matching_analysis_dir -->
<g id="node43" class="node">
<title>variant_matching_analysis_dir</title>
<polygon fill="#94ddf4" stroke="black" points="2338.5,-548 2338.5,-584 2571.5,-584 2571.5,-548 2338.5,-548"/>
<text text-anchor="middle" x="2455" y="-562.3" font-family="Times,serif" font-size="14.00">variant_matching_analysis_dir</text>
</g>
<!-- run_tso500_ctdna_analysis_workflow_step&#45;&gt;variant_matching_analysis_dir -->
<g id="edge56" class="edge">
<title>run_tso500_ctdna_analysis_workflow_step&#45;&gt;variant_matching_analysis_dir</title>
<path fill="none" stroke="black" d="M3405.08,-1422.95C3284.37,-1314.21 2622.61,-718.01 2481.48,-590.86"/>
<polygon fill="black" stroke="black" points="2483.82,-588.25 2474.04,-584.16 2479.13,-593.45 2483.82,-588.25"/>
</g>
<!-- outputs_by_sample -->
<g id="node32" class="node">
<title>outputs_by_sample</title>
<polygon fill="#94ddf4" stroke="black" points="5849.5,-548 5849.5,-584 6002.5,-584 6002.5,-548 5849.5,-548"/>
<text text-anchor="middle" x="5926" y="-562.3" font-family="Times,serif" font-size="14.00">outputs_by_sample</text>
</g>
<!-- get_cttso_outputs_by_sample&#45;&gt;outputs_by_sample -->
<g id="edge45" class="edge">
<title>get_cttso_outputs_by_sample&#45;&gt;outputs_by_sample</title>
<path fill="none" stroke="black" d="M6390.26,-584.07C6372.42,-628.87 6319.2,-744.7 6231,-789 6147.6,-830.89 6098.86,-840.46 6021,-789 5954.28,-744.9 5934.26,-643.37 5928.38,-593.99"/>
<polygon fill="black" stroke="black" points="5931.86,-593.57 5927.3,-584.01 5924.9,-594.32 5931.86,-593.57"/>
</g>
<!-- run_tso500_ctdna_reporting_workflow_step&#45;&gt;validate_dsdm_json -->
<g id="edge10" class="edge">
<title>run_tso500_ctdna_reporting_workflow_step&#45;&gt;validate_dsdm_json</title>
<path fill="none" stroke="black" d="M5027.81,-985.91C5207.51,-917.36 5875.75,-662.46 6071.68,-587.72"/>
<polygon fill="black" stroke="black" points="6073.1,-590.93 6081.19,-584.09 6070.6,-584.39 6073.1,-590.93"/>
</g>
<!-- run_tso500_ctdna_reporting_workflow_step&#45;&gt;get_cttso_outputs_by_sample -->
<g id="edge3" class="edge">
<title>run_tso500_ctdna_reporting_workflow_step&#45;&gt;get_cttso_outputs_by_sample</title>
<path fill="none" stroke="black" d="M5035.6,-985.91C5253.42,-917.15 6084.3,-660.94 6328.91,-587.06"/>
<polygon fill="black" stroke="black" points="6330.17,-590.33 6338.74,-584.09 6328.15,-583.63 6330.17,-590.33"/>
</g>
<!-- run_tso500_ctdna_reporting_workflow_step&#45;&gt;get_cttso_outputs_by_sample -->
<g id="edge4" class="edge">
<title>run_tso500_ctdna_reporting_workflow_step&#45;&gt;get_cttso_outputs_by_sample</title>
<path fill="none" stroke="black" d="M5041.26,-985.91C5269.28,-917.19 6099.58,-661.19 6334.65,-587.17"/>
<polygon fill="black" stroke="black" points="6335.92,-590.44 6344.4,-584.09 6333.81,-583.76 6335.92,-590.44"/>
</g>
<!-- cleanup_dir -->
<g id="node20" class="node">
<title>cleanup_dir</title>
<polygon fill="#94ddf4" stroke="black" points="5420.5,-548 5420.5,-584 5519.5,-584 5519.5,-548 5420.5,-548"/>
<text text-anchor="middle" x="5470" y="-562.3" font-family="Times,serif" font-size="14.00">cleanup_dir</text>
</g>
<!-- run_tso500_ctdna_reporting_workflow_step&#45;&gt;cleanup_dir -->
<g id="edge33" class="edge">
<title>run_tso500_ctdna_reporting_workflow_step&#45;&gt;cleanup_dir</title>
<path fill="none" stroke="black" d="M5002.09,-985.91C5077.55,-918.35 5355.19,-669.79 5443.11,-591.07"/>
<polygon fill="black" stroke="black" points="5445.66,-593.49 5450.78,-584.21 5440.99,-588.27 5445.66,-593.49"/>
</g>
<!-- combined_variant_output_dir -->
<g id="node22" class="node">
<title>combined_variant_output_dir</title>
<polygon fill="#94ddf4" stroke="black" points="5178,-548 5178,-584 5402,-584 5402,-548 5178,-548"/>
<text text-anchor="middle" x="5290" y="-562.3" font-family="Times,serif" font-size="14.00">combined_variant_output_dir</text>
</g>
<!-- run_tso500_ctdna_reporting_workflow_step&#45;&gt;combined_variant_output_dir -->
<g id="edge35" class="edge">
<title>run_tso500_ctdna_reporting_workflow_step&#45;&gt;combined_variant_output_dir</title>
<path fill="none" stroke="black" d="M4995.03,-985.91C5042.22,-918.9 5214.77,-673.84 5271.67,-593.04"/>
<polygon fill="black" stroke="black" points="5274.82,-594.64 5277.71,-584.45 5269.1,-590.61 5274.82,-594.64"/>
</g>
<!-- metrics_output_dir -->
<g id="node30" class="node">
<title>metrics_output_dir</title>
<polygon fill="#94ddf4" stroke="black" points="5008,-548 5008,-584 5160,-584 5160,-548 5008,-548"/>
<text text-anchor="middle" x="5084" y="-562.3" font-family="Times,serif" font-size="14.00">metrics_output_dir</text>
</g>
<!-- run_tso500_ctdna_reporting_workflow_step&#45;&gt;metrics_output_dir -->
<g id="edge43" class="edge">
<title>run_tso500_ctdna_reporting_workflow_step&#45;&gt;metrics_output_dir</title>
<path fill="none" stroke="black" d="M4986.96,-985.91C5002.4,-919.24 5058.68,-676.32 5077.68,-594.28"/>
<polygon fill="black" stroke="black" points="5081.11,-594.98 5079.96,-584.45 5074.29,-593.4 5081.11,-594.98"/>
</g>
<!-- reporting_workflow_output -->
<g id="node34" class="node">
<title>reporting_workflow_output</title>
<polygon fill="#94ddf4" stroke="black" points="5622.5,-548 5622.5,-584 5831.5,-584 5831.5,-548 5622.5,-548"/>
<text text-anchor="middle" x="5727" y="-562.3" font-family="Times,serif" font-size="14.00">reporting_workflow_output</text>
</g>
<!-- run_tso500_ctdna_reporting_workflow_step&#45;&gt;reporting_workflow_output -->
<g id="edge47" class="edge">
<title>run_tso500_ctdna_reporting_workflow_step&#45;&gt;reporting_workflow_output</title>
<path fill="none" stroke="black" d="M5012.17,-985.91C5128.26,-917.87 5557.59,-666.28 5688.72,-589.44"/>
<polygon fill="black" stroke="black" points="5690.77,-592.29 5697.63,-584.21 5687.24,-586.25 5690.77,-592.29"/>
</g>
<!-- results -->
<g id="node36" class="node">
<title>results</title>
<polygon fill="#94ddf4" stroke="black" points="5538,-548 5538,-584 5604,-584 5604,-548 5538,-548"/>
<text text-anchor="middle" x="5571" y="-562.3" font-family="Times,serif" font-size="14.00">results</text>
</g>
<!-- run_tso500_ctdna_reporting_workflow_step&#45;&gt;results -->
<g id="edge49" class="edge">
<title>run_tso500_ctdna_reporting_workflow_step&#45;&gt;results</title>
<path fill="none" stroke="black" d="M5006.05,-985.91C5097.44,-918.15 5434.4,-668.29 5539.49,-590.37"/>
<polygon fill="black" stroke="black" points="5541.84,-592.98 5547.79,-584.21 5537.67,-587.35 5541.84,-592.98"/>
</g>
<!-- sample_analysis_results_dir -->
<g id="node37" class="node">
<title>sample_analysis_results_dir</title>
<polygon fill="#94ddf4" stroke="black" points="4774.5,-548 4774.5,-584 4989.5,-584 4989.5,-548 4774.5,-548"/>
<text text-anchor="middle" x="4882" y="-562.3" font-family="Times,serif" font-size="14.00">sample_analysis_results_dir</text>
</g>
<!-- run_tso500_ctdna_reporting_workflow_step&#45;&gt;sample_analysis_results_dir -->
<g id="edge50" class="edge">
<title>run_tso500_ctdna_reporting_workflow_step&#45;&gt;sample_analysis_results_dir</title>
<path fill="none" stroke="black" d="M4979.04,-985.91C4963.6,-919.24 4907.32,-676.32 4888.32,-594.28"/>
<polygon fill="black" stroke="black" points="4891.71,-593.4 4886.04,-584.45 4884.89,-594.98 4891.71,-593.4"/>
</g>
<!-- run_tso500_ctdna_demultiplex_workflow_step -->
<g id="node6" class="node">
<title>run_tso500_ctdna_demultiplex_workflow_step</title>
<polygon fill="lightgoldenrodyellow" stroke="black" points="3038,-1860 3038,-1896 3396,-1896 3396,-1860 3038,-1860"/>
<text text-anchor="middle" x="3217" y="-1874.3" font-family="Times,serif" font-size="14.00">tso500&#45;ctdna&#45;demultiplex&#45;workflow v(1.1.0.120)</text>
</g>
<!-- run_tso500_ctdna_demultiplex_workflow_step&#45;&gt;run_tso500_ctdna_analysis_workflow_step -->
<g id="edge5" class="edge">
<title>run_tso500_ctdna_demultiplex_workflow_step&#45;&gt;run_tso500_ctdna_analysis_workflow_step</title>
<path fill="none" stroke="black" d="M3225.11,-1859.95C3256.86,-1793.23 3372.8,-1549.59 3411.4,-1468.47"/>
<polygon fill="black" stroke="black" points="3414.58,-1469.94 3415.72,-1459.41 3408.26,-1466.93 3414.58,-1469.94"/>
</g>
<!-- run_tso500_ctdna_demultiplex_workflow_step&#45;&gt;run_tso500_ctdna_reporting_workflow_step -->
<g id="edge9" class="edge">
<title>run_tso500_ctdna_demultiplex_workflow_step&#45;&gt;run_tso500_ctdna_reporting_workflow_step</title>
<path fill="none" stroke="black" d="M3237.76,-1859.9C3316.8,-1795.44 3608.03,-1563.67 3878,-1422.5 4250.55,-1227.69 4735.02,-1077.16 4913.26,-1024.91"/>
<polygon fill="black" stroke="black" points="4914.42,-1028.22 4923.04,-1022.06 4912.46,-1021.5 4914.42,-1028.22"/>
</g>
<!-- demultiplex_workflow_output -->
<g id="node24" class="node">
<title>demultiplex_workflow_output</title>
<polygon fill="#94ddf4" stroke="black" points="796.5,-548 796.5,-584 1023.5,-584 1023.5,-548 796.5,-548"/>
<text text-anchor="middle" x="910" y="-562.3" font-family="Times,serif" font-size="14.00">demultiplex_workflow_output</text>
</g>
<!-- run_tso500_ctdna_demultiplex_workflow_step&#45;&gt;demultiplex_workflow_output -->
<g id="edge37" class="edge">
<title>run_tso500_ctdna_demultiplex_workflow_step&#45;&gt;demultiplex_workflow_output</title>
<path fill="none" stroke="black" d="M3186.99,-1859.96C2938.93,-1719.1 1229.96,-748.68 949.04,-589.17"/>
<polygon fill="black" stroke="black" points="950.45,-585.94 940.02,-584.05 946.99,-592.03 950.45,-585.94"/>
</g>
<!-- fastq_validation_demux_dir -->
<g id="node27" class="node">
<title>fastq_validation_demux_dir</title>
<polygon fill="#94ddf4" stroke="black" points="16,-548 16,-584 228,-584 228,-548 16,-548"/>
<text text-anchor="middle" x="122" y="-562.3" font-family="Times,serif" font-size="14.00">fastq_validation_demux_dir</text>
</g>
<!-- run_tso500_ctdna_demultiplex_workflow_step&#45;&gt;fastq_validation_demux_dir -->
<g id="edge40" class="edge">
<title>run_tso500_ctdna_demultiplex_workflow_step&#45;&gt;fastq_validation_demux_dir</title>
<path fill="none" stroke="black" d="M3176.74,-1859.96C2843.13,-1718.75 539.91,-743.89 171.62,-588"/>
<polygon fill="black" stroke="black" points="172.85,-584.72 162.28,-584.05 170.12,-591.17 172.85,-584.72"/>
</g>
<!-- resource_verification_demux_dir -->
<g id="node35" class="node">
<title>resource_verification_demux_dir</title>
<polygon fill="#94ddf4" stroke="black" points="246,-548 246,-584 494,-584 494,-548 246,-548"/>
<text text-anchor="middle" x="370" y="-562.3" font-family="Times,serif" font-size="14.00">resource_verification_demux_dir</text>
</g>
<!-- run_tso500_ctdna_demultiplex_workflow_step&#45;&gt;resource_verification_demux_dir -->
<g id="edge48" class="edge">
<title>run_tso500_ctdna_demultiplex_workflow_step&#45;&gt;resource_verification_demux_dir</title>
<path fill="none" stroke="black" d="M3179.96,-1859.96C2873.24,-1718.82 756.51,-744.85 416.14,-588.23"/>
<polygon fill="black" stroke="black" points="417.6,-585.05 407.05,-584.05 414.67,-591.41 417.6,-585.05"/>
</g>
<!-- samplesheet_validation_demux_dir -->
<g id="node38" class="node">
<title>samplesheet_validation_demux_dir</title>
<polygon fill="#94ddf4" stroke="black" points="512,-548 512,-584 778,-584 778,-548 512,-548"/>
<text text-anchor="middle" x="645" y="-562.3" font-family="Times,serif" font-size="14.00">samplesheet_validation_demux_dir</text>
</g>
<!-- run_tso500_ctdna_demultiplex_workflow_step&#45;&gt;samplesheet_validation_demux_dir -->
<g id="edge51" class="edge">
<title>run_tso500_ctdna_demultiplex_workflow_step&#45;&gt;samplesheet_validation_demux_dir</title>
<path fill="none" stroke="black" d="M3183.54,-1859.96C2906.72,-1718.96 997.94,-746.76 687.6,-588.7"/>
<polygon fill="black" stroke="black" points="688.97,-585.47 678.47,-584.05 685.8,-591.71 688.97,-585.47"/>
</g>
<!-- add_sample_type_and_pair_id_to_samplesheet_step -->
<g id="node7" class="node">
<title>add_sample_type_and_pair_id_to_samplesheet_step</title>
<polygon fill="lightgoldenrodyellow" stroke="black" points="2843.5,-2298 2843.5,-2334 3168.5,-2334 3168.5,-2298 2843.5,-2298"/>
<text text-anchor="middle" x="3006" y="-2312.3" font-family="Times,serif" font-size="14.00">custom&#45;create&#45;tso500&#45;samplesheet v(1.0.0)</text>
</g>
<!-- add_sample_type_and_pair_id_to_samplesheet_step&#45;&gt;run_tso500_ctdna_demultiplex_workflow_step -->
<g id="edge6" class="edge">
<title>add_sample_type_and_pair_id_to_samplesheet_step&#45;&gt;run_tso500_ctdna_demultiplex_workflow_step</title>
<path fill="none" stroke="black" d="M3014.27,-2297.91C3046.63,-2231.04 3164.81,-1986.83 3204.16,-1905.53"/>
<polygon fill="black" stroke="black" points="3207.35,-1906.97 3208.56,-1896.45 3201.05,-1903.92 3207.35,-1906.97"/>
</g>
<!-- coerce_valid_index -->
<g id="node8" class="node">
<title>coerce_valid_index</title>
<polygon fill="#94ddf4" stroke="black" points="2931,-2753 2931,-2789 3081,-2789 3081,-2753 2931,-2753"/>
<text text-anchor="middle" x="3006" y="-2767.3" font-family="Times,serif" font-size="14.00">coerce_valid_index</text>
</g>
<!-- coerce_valid_index&#45;&gt;add_sample_type_and_pair_id_to_samplesheet_step -->
<g id="edge11" class="edge">
<title>coerce_valid_index&#45;&gt;add_sample_type_and_pair_id_to_samplesheet_step</title>
<path fill="none" stroke="black" d="M3006,-2752.8C3006,-2684.05 3006,-2428.75 3006,-2344.31"/>
<polygon fill="black" stroke="black" points="3009.5,-2344.22 3006,-2334.22 3002.5,-2344.22 3009.5,-2344.22"/>
</g>
<!-- samplesheet -->
<g id="node9" class="node">
<title>samplesheet</title>
<polygon fill="#94ddf4" stroke="black" points="2805.5,-2753 2805.5,-2789 2912.5,-2789 2912.5,-2753 2805.5,-2753"/>
<text text-anchor="middle" x="2859" y="-2767.3" font-family="Times,serif" font-size="14.00">samplesheet</text>
</g>
<!-- samplesheet&#45;&gt;add_sample_type_and_pair_id_to_samplesheet_step -->
<g id="edge12" class="edge">
<title>samplesheet&#45;&gt;add_sample_type_and_pair_id_to_samplesheet_step</title>
<path fill="none" stroke="black" d="M2864.58,-2752.8C2886.94,-2683.91 2970.07,-2427.71 2997.3,-2343.8"/>
<polygon fill="black" stroke="black" points="3000.65,-2344.81 3000.41,-2334.22 2994,-2342.65 3000.65,-2344.81"/>
</g>
<!-- samplesheet_prefix -->
<g id="node10" class="node">
<title>samplesheet_prefix</title>
<polygon fill="#94ddf4" stroke="black" points="3099.5,-2753 3099.5,-2789 3254.5,-2789 3254.5,-2753 3099.5,-2753"/>
<text text-anchor="middle" x="3177" y="-2767.3" font-family="Times,serif" font-size="14.00">samplesheet_prefix</text>
</g>
<!-- samplesheet_prefix&#45;&gt;run_tso500_ctdna_reporting_workflow_step -->
<g id="edge15" class="edge">
<title>samplesheet_prefix&#45;&gt;run_tso500_ctdna_reporting_workflow_step</title>
<path fill="none" stroke="black" d="M3194.58,-2752.82C3367.11,-2584.21 4755.31,-1227.52 4958.27,-1029.17"/>
<polygon fill="black" stroke="black" points="4960.8,-1031.59 4965.51,-1022.09 4955.91,-1026.58 4960.8,-1031.59"/>
</g>
<!-- samplesheet_prefix&#45;&gt;run_tso500_ctdna_demultiplex_workflow_step -->
<g id="edge14" class="edge">
<title>samplesheet_prefix&#45;&gt;run_tso500_ctdna_demultiplex_workflow_step</title>
<path fill="none" stroke="black" d="M3177.76,-2753C3182.66,-2643.95 3209.64,-2043.02 3215.76,-1906.57"/>
<polygon fill="black" stroke="black" points="3219.28,-1906.33 3216.23,-1896.18 3212.28,-1906.01 3219.28,-1906.33"/>
</g>
<!-- samplesheet_prefix&#45;&gt;add_sample_type_and_pair_id_to_samplesheet_step -->
<g id="edge13" class="edge">
<title>samplesheet_prefix&#45;&gt;add_sample_type_and_pair_id_to_samplesheet_step</title>
<path fill="none" stroke="black" d="M3170.51,-2752.8C3144.5,-2683.91 3047.79,-2427.71 3016.12,-2343.8"/>
<polygon fill="black" stroke="black" points="3019.31,-2342.34 3012.5,-2334.22 3012.76,-2344.81 3019.31,-2342.34"/>
</g>
<!-- tso500_samples -->
<g id="node11" class="node">
<title>tso500_samples</title>
<polygon fill="#94ddf4" stroke="black" points="3272.5,-2753 3272.5,-2789 3403.5,-2789 3403.5,-2753 3272.5,-2753"/>
<text text-anchor="middle" x="3338" y="-2767.3" font-family="Times,serif" font-size="14.00">tso500_samples</text>
</g>
<!-- tso500_samples&#45;&gt;run_tso500_ctdna_analysis_workflow_step -->
<g id="edge18" class="edge">
<title>tso500_samples&#45;&gt;run_tso500_ctdna_analysis_workflow_step</title>
<path fill="none" stroke="black" d="M3339.55,-2752.78C3347.53,-2663.24 3384.54,-2241.91 3405,-1896.5 3414.57,-1734.86 3421,-1540.6 3423.18,-1469.65"/>
<polygon fill="black" stroke="black" points="3426.69,-1469.45 3423.49,-1459.35 3419.69,-1469.24 3426.69,-1469.45"/>
</g>
<!-- tso500_samples&#45;&gt;get_cttso_outputs_by_sample -->
<g id="edge17" class="edge">
<title>tso500_samples&#45;&gt;get_cttso_outputs_by_sample</title>
<path fill="none" stroke="black" d="M3360.68,-2752.96C3375.08,-2742.75 3394.44,-2730.12 3413,-2721.5 4578.08,-2180.25 6178,-3163.67 6178,-1879 6178,-1879 6178,-1879 6178,-1440 6178,-1096 6339.96,-698.05 6385.32,-593.33"/>
<polygon fill="black" stroke="black" points="6388.54,-594.69 6389.33,-584.12 6382.13,-591.89 6388.54,-594.69"/>
</g>
<!-- tso500_samples&#45;&gt;run_tso500_ctdna_demultiplex_workflow_step -->
<g id="edge19" class="edge">
<title>tso500_samples&#45;&gt;run_tso500_ctdna_demultiplex_workflow_step</title>
<path fill="none" stroke="black" d="M3334.22,-2752.67C3321.59,-2694.13 3280.36,-2498.26 3258,-2334.5 3235.92,-2172.83 3222.87,-1977.19 3218.58,-1906.3"/>
<polygon fill="black" stroke="black" points="3222.06,-1905.8 3217.97,-1896.02 3215.07,-1906.21 3222.06,-1905.8"/>
</g>
<!-- tso500_samples&#45;&gt;add_sample_type_and_pair_id_to_samplesheet_step -->
<g id="edge16" class="edge">
<title>tso500_samples&#45;&gt;add_sample_type_and_pair_id_to_samplesheet_step</title>
<path fill="none" stroke="black" d="M3325.39,-2752.8C3274.65,-2683.56 3085.22,-2425.1 3024.71,-2342.53"/>
<polygon fill="black" stroke="black" points="3027.36,-2340.22 3018.62,-2334.22 3021.71,-2344.36 3027.36,-2340.22"/>
</g>
<!-- dragen_license_key -->
<g id="node12" class="node">
<title>dragen_license_key</title>
<polygon fill="#94ddf4" stroke="black" points="3562.5,-2753 3562.5,-2789 3717.5,-2789 3717.5,-2753 3562.5,-2753"/>
<text text-anchor="middle" x="3640" y="-2767.3" font-family="Times,serif" font-size="14.00">dragen_license_key</text>
</g>
<!-- dragen_license_key&#45;&gt;run_tso500_ctdna_analysis_workflow_step -->
<g id="edge20" class="edge">
<title>dragen_license_key&#45;&gt;run_tso500_ctdna_analysis_workflow_step</title>
<path fill="none" stroke="black" d="M3637.19,-2752.72C3614.18,-2611.27 3456.95,-1644.57 3428.43,-1469.24"/>
<polygon fill="black" stroke="black" points="3431.87,-1468.59 3426.81,-1459.28 3424.96,-1469.72 3431.87,-1468.59"/>
</g>
<!-- fastq_list_rows -->
<g id="node13" class="node">
<title>fastq_list_rows</title>
<polygon fill="#94ddf4" stroke="black" points="3421.5,-2753 3421.5,-2789 3544.5,-2789 3544.5,-2753 3421.5,-2753"/>
<text text-anchor="middle" x="3483" y="-2767.3" font-family="Times,serif" font-size="14.00">fastq_list_rows</text>
</g>
<!-- fastq_list_rows&#45;&gt;run_tso500_ctdna_analysis_workflow_step -->
<g id="edge21" class="edge">
<title>fastq_list_rows&#45;&gt;run_tso500_ctdna_analysis_workflow_step</title>
<path fill="none" stroke="black" d="M3482.23,-2752.72C3475.95,-2611.34 3433.04,-1645.53 3425.22,-1469.5"/>
<polygon fill="black" stroke="black" points="3428.71,-1469.12 3424.77,-1459.28 3421.72,-1469.43 3428.71,-1469.12"/>
</g>
<!-- fastq_list_rows&#45;&gt;run_tso500_ctdna_demultiplex_workflow_step -->
<g id="edge22" class="edge">
<title>fastq_list_rows&#45;&gt;run_tso500_ctdna_demultiplex_workflow_step</title>
<path fill="none" stroke="black" d="M3473.81,-2752.72C3443.57,-2695.1 3346.24,-2503.7 3296,-2334.5 3248.95,-2176.06 3226.48,-1977.78 3219.48,-1906.28"/>
<polygon fill="black" stroke="black" points="3222.97,-1905.91 3218.53,-1896.29 3216,-1906.58 3222.97,-1905.91"/>
</g>
<!-- resources_dir -->
<g id="node14" class="node">
<title>resources_dir</title>
<polygon fill="#94ddf4" stroke="black" points="3735.5,-2753 3735.5,-2789 3848.5,-2789 3848.5,-2753 3735.5,-2753"/>
<text text-anchor="middle" x="3792" y="-2767.3" font-family="Times,serif" font-size="14.00">resources_dir</text>
</g>
<!-- resources_dir&#45;&gt;run_tso500_ctdna_analysis_workflow_step -->
<g id="edge23" class="edge">
<title>resources_dir&#45;&gt;run_tso500_ctdna_analysis_workflow_step</title>
<path fill="none" stroke="black" d="M3787.21,-2752.72C3748,-2611.2 3479.87,-1643.6 3431.48,-1468.98"/>
<polygon fill="black" stroke="black" points="3434.83,-1467.99 3428.79,-1459.28 3428.09,-1469.85 3434.83,-1467.99"/>
</g>
<!-- resources_dir&#45;&gt;run_tso500_ctdna_reporting_workflow_step -->
<g id="edge25" class="edge">
<title>resources_dir&#45;&gt;run_tso500_ctdna_reporting_workflow_step</title>
<path fill="none" stroke="black" d="M3803.6,-2752.82C3917.09,-2584.63 4828.32,-1234.22 4965.69,-1030.66"/>
<polygon fill="black" stroke="black" points="4968.77,-1032.34 4971.47,-1022.09 4962.97,-1028.43 4968.77,-1032.34"/>
</g>
<!-- resources_dir&#45;&gt;run_tso500_ctdna_demultiplex_workflow_step -->
<g id="edge24" class="edge">
<title>resources_dir&#45;&gt;run_tso500_ctdna_demultiplex_workflow_step</title>
<path fill="none" stroke="black" d="M3771.28,-2752.99C3690.1,-2685.96 3395.19,-2438.69 3334,-2334.5 3248.46,-2188.85 3224.77,-1981.13 3218.82,-1906.79"/>
<polygon fill="black" stroke="black" points="3222.28,-1906.13 3218.04,-1896.42 3215.3,-1906.65 3222.28,-1906.13"/>
</g>
<!-- run_info_xml -->
<g id="node15" class="node">
<title>run_info_xml</title>
<polygon fill="#94ddf4" stroke="black" points="3867,-2753 3867,-2789 3975,-2789 3975,-2753 3867,-2753"/>
<text text-anchor="middle" x="3921" y="-2767.3" font-family="Times,serif" font-size="14.00">run_info_xml</text>
</g>
<!-- run_info_xml&#45;&gt;run_tso500_ctdna_reporting_workflow_step -->
<g id="edge27" class="edge">
<title>run_info_xml&#45;&gt;run_tso500_ctdna_reporting_workflow_step</title>
<path fill="none" stroke="black" d="M3931.34,-2752.82C4032.49,-2584.71 4844.27,-1235.56 4967.38,-1030.96"/>
<polygon fill="black" stroke="black" points="4970.56,-1032.47 4972.71,-1022.09 4964.56,-1028.86 4970.56,-1032.47"/>
</g>
<!-- run_info_xml&#45;&gt;run_tso500_ctdna_demultiplex_workflow_step -->
<g id="edge26" class="edge">
<title>run_info_xml&#45;&gt;run_tso500_ctdna_demultiplex_workflow_step</title>
<path fill="none" stroke="black" d="M3898.9,-2752.74C3797.55,-2673.58 3381.85,-2348.47 3372,-2334.5 3271.99,-2192.64 3232.22,-1980.99 3220.78,-1906.29"/>
<polygon fill="black" stroke="black" points="3224.23,-1905.67 3219.3,-1896.29 3217.3,-1906.7 3224.23,-1905.67"/>
</g>
<!-- run_parameters_xml -->
<g id="node16" class="node">
<title>run_parameters_xml</title>
<polygon fill="#94ddf4" stroke="black" points="3993,-2753 3993,-2789 4157,-2789 4157,-2753 3993,-2753"/>
<text text-anchor="middle" x="4075" y="-2767.3" font-family="Times,serif" font-size="14.00">run_parameters_xml</text>
</g>
<!-- run_parameters_xml&#45;&gt;run_tso500_ctdna_reporting_workflow_step -->
<g id="edge29" class="edge">
<title>run_parameters_xml&#45;&gt;run_tso500_ctdna_reporting_workflow_step</title>
<path fill="none" stroke="black" d="M4083.84,-2752.82C4170.28,-2584.79 4863.7,-1236.9 4969.49,-1031.27"/>
<polygon fill="black" stroke="black" points="4972.74,-1032.59 4974.21,-1022.09 4966.52,-1029.39 4972.74,-1032.59"/>
</g>
<!-- run_parameters_xml&#45;&gt;run_tso500_ctdna_demultiplex_workflow_step -->
<g id="edge28" class="edge">
<title>run_parameters_xml&#45;&gt;run_tso500_ctdna_demultiplex_workflow_step</title>
<path fill="none" stroke="black" d="M4058.63,-2753C3952.88,-2643.18 3366.79,-2034.55 3240.84,-1903.76"/>
<polygon fill="black" stroke="black" points="3243,-1900.96 3233.55,-1896.18 3237.96,-1905.81 3243,-1900.96"/>
</g>
</g>
</svg>
