<?xml version="1.0" encoding="UTF-8" standalone="no"?>
<!DOCTYPE svg PUBLIC "-//W3C//DTD SVG 1.1//EN"
 "http://www.w3.org/Graphics/SVG/1.1/DTD/svg11.dtd">
<!-- Generated by graphviz version 2.43.0 (0)
 -->
<!-- Title: G Pages: 1 -->
<svg width="2924pt" height="2866pt"
 viewBox="0.00 0.00 2924.34 2866.00" xmlns="http://www.w3.org/2000/svg" xmlns:xlink="http://www.w3.org/1999/xlink">
<g id="graph0" class="graph" transform="scale(1 1) rotate(0) translate(4 2862)">
<title>G</title>
<polygon fill="#eeeeee" stroke="transparent" points="-4,4 -4,-2862 2920.34,-2862 2920.34,4 -4,4"/>
<g id="clust1" class="cluster">
<title>cluster_inputs</title>
<polygon fill="#eeeeee" stroke="black" stroke-dasharray="5,2" points="1498.84,-2504.43 1498.84,-2824.33 1882.84,-2824.33 1882.84,-2504.43 1498.84,-2504.43"/>
<text text-anchor="middle" x="1816.34" y="-2512.23" font-family="Times,serif" font-size="14.00">Workflow Inputs</text>
</g>
<g id="clust2" class="cluster">
<title>cluster_outputs</title>
<polygon fill="#eeeeee" stroke="black" stroke-dasharray="5,2" points="2598.84,-33.67 2598.84,-353.57 2872.84,-353.57 2872.84,-33.67 2598.84,-33.67"/>
<text text-anchor="middle" x="2800.34" y="-41.47" font-family="Times,serif" font-size="14.00">Workflow Outputs</text>
</g>
<!-- get_tmb_json_intermediate_step -->
<g id="node1" class="node">
<title>get_tmb_json_intermediate_step</title>
<polygon fill="lightgoldenrodyellow" stroke="black" points="1550.34,-2374.67 1550.34,-2410.67 1783.34,-2410.67 1783.34,-2374.67 1550.34,-2374.67"/>
<text text-anchor="middle" x="1666.84" y="-2388.97" font-family="Times,serif" font-size="14.00">get&#45;file&#45;from&#45;directory v(1.0.0)</text>
</g>
<!-- compress_reporting_jsons_with_gzip_step -->
<g id="node2" class="node">
<title>compress_reporting_jsons_with_gzip_step</title>
<polygon fill="lightgoldenrodyellow" stroke="black" points="1896.84,-2067.67 1896.84,-2103.67 2084.84,-2103.67 2084.84,-2067.67 1896.84,-2067.67"/>
<text text-anchor="middle" x="1990.84" y="-2081.97" font-family="Times,serif" font-size="14.00">custom&#45;gzip&#45;file v(1.0.0)</text>
</g>
<!-- get_tmb_json_intermediate_step&#45;&gt;compress_reporting_jsons_with_gzip_step -->
<g id="edge1" class="edge">
<title>get_tmb_json_intermediate_step&#45;&gt;compress_reporting_jsons_with_gzip_step</title>
<path fill="none" stroke="black" d="M1685.19,-2374.4C1739.88,-2322.92 1901.89,-2170.41 1965.13,-2110.87"/>
<polygon fill="black" stroke="black" points="1967.81,-2113.16 1972.69,-2103.76 1963.01,-2108.06 1967.81,-2113.16"/>
</g>
<!-- gather_compressed_reporting_json_files_into_tar_step -->
<g id="node20" class="node">
<title>gather_compressed_reporting_json_files_into_tar_step</title>
<polygon fill="lightgoldenrodyellow" stroke="black" points="2120.84,-1760.67 2120.84,-1796.67 2326.84,-1796.67 2326.84,-1760.67 2120.84,-1760.67"/>
<text text-anchor="middle" x="2223.84" y="-1774.97" font-family="Times,serif" font-size="14.00">custom&#45;tar&#45;file&#45;list v(1.0.0)</text>
</g>
<!-- compress_reporting_jsons_with_gzip_step&#45;&gt;gather_compressed_reporting_json_files_into_tar_step -->
<g id="edge22" class="edge">
<title>compress_reporting_jsons_with_gzip_step&#45;&gt;gather_compressed_reporting_json_files_into_tar_step</title>
<path fill="none" stroke="black" d="M2004.03,-2067.4C2043.12,-2016.23 2158.45,-1865.27 2204.51,-1804.97"/>
<polygon fill="black" stroke="black" points="2207.5,-1806.83 2210.79,-1796.76 2201.94,-1802.58 2207.5,-1806.83"/>
</g>
<!-- get_sample_analysis_results_intermediate_step -->
<g id="node3" class="node">
<title>get_sample_analysis_results_intermediate_step</title>
<polygon fill="lightgoldenrodyellow" stroke="black" points="1801.84,-2374.67 1801.84,-2410.67 1943.84,-2410.67 1943.84,-2374.67 1801.84,-2374.67"/>
<text text-anchor="middle" x="1872.84" y="-2388.97" font-family="Times,serif" font-size="14.00">parse&#45;file v(1.0.0)</text>
</g>
<!-- get_sample_analysis_results_intermediate_step&#45;&gt;compress_reporting_jsons_with_gzip_step -->
<g id="edge2" class="edge">
<title>get_sample_analysis_results_intermediate_step&#45;&gt;compress_reporting_jsons_with_gzip_step</title>
<path fill="none" stroke="black" d="M1879.52,-2374.4C1899.2,-2323.55 1957.01,-2174.12 1980.62,-2113.09"/>
<polygon fill="black" stroke="black" points="1983.89,-2114.34 1984.23,-2103.76 1977.36,-2111.82 1983.89,-2114.34"/>
</g>
<!-- get_msi_json_intermediate_step -->
<g id="node4" class="node">
<title>get_msi_json_intermediate_step</title>
<polygon fill="lightgoldenrodyellow" stroke="black" points="1962.34,-2374.67 1962.34,-2410.67 2195.34,-2410.67 2195.34,-2374.67 1962.34,-2374.67"/>
<text text-anchor="middle" x="2078.84" y="-2388.97" font-family="Times,serif" font-size="14.00">get&#45;file&#45;from&#45;directory v(1.0.0)</text>
</g>
<!-- get_msi_json_intermediate_step&#45;&gt;compress_reporting_jsons_with_gzip_step -->
<g id="edge3" class="edge">
<title>get_msi_json_intermediate_step&#45;&gt;compress_reporting_jsons_with_gzip_step</title>
<path fill="none" stroke="black" d="M2073.86,-2374.4C2059.21,-2323.65 2016.25,-2174.74 1998.57,-2113.47"/>
<polygon fill="black" stroke="black" points="2001.9,-2112.39 1995.77,-2103.76 1995.18,-2114.33 2001.9,-2112.39"/>
</g>
<!-- get_vcf_files_intermediate_step -->
<g id="node5" class="node">
<title>get_vcf_files_intermediate_step</title>
<polygon fill="lightgoldenrodyellow" stroke="black" points="2252.34,-2374.67 2252.34,-2410.67 2493.34,-2410.67 2493.34,-2374.67 2252.34,-2374.67"/>
<text text-anchor="middle" x="2372.84" y="-2388.97" font-family="Times,serif" font-size="14.00">get&#45;files&#45;from&#45;directory v(1.0.0)</text>
</g>
<!-- compress_vcf_files_step -->
<g id="node6" class="node">
<title>compress_vcf_files_step</title>
<polygon fill="lightgoldenrodyellow" stroke="black" points="2328.84,-2067.67 2328.84,-2103.67 2452.84,-2103.67 2452.84,-2067.67 2328.84,-2067.67"/>
<text text-anchor="middle" x="2390.84" y="-2081.97" font-family="Times,serif" font-size="14.00">bgzip v(1.12.0)</text>
</g>
<!-- get_vcf_files_intermediate_step&#45;&gt;compress_vcf_files_step -->
<g id="edge4" class="edge">
<title>get_vcf_files_intermediate_step&#45;&gt;compress_vcf_files_step</title>
<path fill="none" stroke="black" d="M2373.86,-2374.4C2376.85,-2323.76 2385.61,-2175.35 2389.23,-2113.85"/>
<polygon fill="black" stroke="black" points="2392.74,-2113.94 2389.83,-2103.76 2385.75,-2113.53 2392.74,-2113.94"/>
</g>
<!-- index_vcf_files_step -->
<g id="node23" class="node">
<title>index_vcf_files_step</title>
<polygon fill="lightgoldenrodyellow" stroke="black" points="2351.84,-1760.67 2351.84,-1796.67 2463.84,-1796.67 2463.84,-1760.67 2351.84,-1760.67"/>
<text text-anchor="middle" x="2407.84" y="-1774.97" font-family="Times,serif" font-size="14.00">tabix v(0.2.6)</text>
</g>
<!-- compress_vcf_files_step&#45;&gt;index_vcf_files_step -->
<g id="edge24" class="edge">
<title>compress_vcf_files_step&#45;&gt;index_vcf_files_step</title>
<path fill="none" stroke="black" d="M2391.8,-2067.4C2394.62,-2016.76 2402.9,-1868.35 2406.32,-1806.85"/>
<polygon fill="black" stroke="black" points="2409.82,-1806.93 2406.89,-1796.76 2402.84,-1806.55 2409.82,-1806.93"/>
</g>
<!-- get_zero_val_for_skip_rows_parameter -->
<g id="node7" class="node">
<title>get_zero_val_for_skip_rows_parameter</title>
<polygon fill="lightgoldenrodyellow" stroke="black" points="673.84,-1760.67 673.84,-1796.67 813.84,-1796.67 813.84,-1760.67 673.84,-1760.67"/>
<text text-anchor="middle" x="743.84" y="-1774.97" font-family="Times,serif" font-size="14.00">parse&#45;int v(1.0.0)</text>
</g>
<!-- convert_metric_csvs_into_json_gzip_step -->
<g id="node8" class="node">
<title>convert_metric_csvs_into_json_gzip_step</title>
<polygon fill="lightgoldenrodyellow" stroke="black" points="370.84,-1452.67 370.84,-1488.67 576.84,-1488.67 576.84,-1452.67 370.84,-1452.67"/>
<text text-anchor="middle" x="473.84" y="-1466.97" font-family="Times,serif" font-size="14.00">custom&#45;tsv&#45;to&#45;json v(1.0.0)</text>
</g>
<!-- get_zero_val_for_skip_rows_parameter&#45;&gt;convert_metric_csvs_into_json_gzip_step -->
<g id="edge5" class="edge">
<title>get_zero_val_for_skip_rows_parameter&#45;&gt;convert_metric_csvs_into_json_gzip_step</title>
<path fill="none" stroke="black" d="M728.55,-1760.34C683.07,-1708.8 548.52,-1556.31 495.58,-1496.32"/>
<polygon fill="black" stroke="black" points="498.2,-1493.99 488.96,-1488.81 492.95,-1498.63 498.2,-1493.99"/>
</g>
<!-- gather_compressed_metric_json_files_into_tar_step -->
<g id="node17" class="node">
<title>gather_compressed_metric_json_files_into_tar_step</title>
<polygon fill="lightgoldenrodyellow" stroke="black" points="370.84,-1145.67 370.84,-1181.67 576.84,-1181.67 576.84,-1145.67 370.84,-1145.67"/>
<text text-anchor="middle" x="473.84" y="-1159.97" font-family="Times,serif" font-size="14.00">custom&#45;tar&#45;file&#45;list v(1.0.0)</text>
</g>
<!-- convert_metric_csvs_into_json_gzip_step&#45;&gt;gather_compressed_metric_json_files_into_tar_step -->
<g id="edge21" class="edge">
<title>convert_metric_csvs_into_json_gzip_step&#45;&gt;gather_compressed_metric_json_files_into_tar_step</title>
<path fill="none" stroke="black" d="M473.84,-1452.4C473.84,-1401.76 473.84,-1253.35 473.84,-1191.85"/>
<polygon fill="black" stroke="black" points="477.34,-1191.76 473.84,-1181.76 470.34,-1191.76 477.34,-1191.76"/>
</g>
<!-- get_fusion_csv_intermediate_step -->
<g id="node9" class="node">
<title>get_fusion_csv_intermediate_step</title>
<polygon fill="lightgoldenrodyellow" stroke="black" points="1001.34,-2374.67 1001.34,-2410.67 1234.34,-2410.67 1234.34,-2374.67 1001.34,-2374.67"/>
<text text-anchor="middle" x="1117.84" y="-2388.97" font-family="Times,serif" font-size="14.00">get&#45;file&#45;from&#45;directory v(1.0.0)</text>
</g>
<!-- get_fusion_csv_intermediate_step&#45;&gt;convert_metric_csvs_into_json_gzip_step -->
<g id="edge6" class="edge">
<title>get_fusion_csv_intermediate_step&#45;&gt;convert_metric_csvs_into_json_gzip_step</title>
<path fill="none" stroke="black" d="M1122.86,-2374.4C1148.77,-2283.89 1263.34,-1864.43 1192.84,-1760.17 1056.31,-1558.28 752.82,-1497.65 587.14,-1479.46"/>
<polygon fill="black" stroke="black" points="587.23,-1475.95 576.91,-1478.37 586.49,-1482.91 587.23,-1475.95"/>
</g>
<!-- create_custom_output_entry_list_array_step -->
<g id="node16" class="node">
<title>create_custom_output_entry_list_array_step</title>
<polygon fill="lightgoldenrodyellow" stroke="black" points="2369.84,-838.67 2369.84,-874.67 2839.84,-874.67 2839.84,-838.67 2369.84,-838.67"/>
<text text-anchor="middle" x="2604.84" y="-852.97" font-family="Times,serif" font-size="14.00">get&#45;custom&#45;output&#45;dir&#45;entry&#45;for&#45;tso500&#45;post&#45;processing v(2.0.1)</text>
</g>
<!-- get_fusion_csv_intermediate_step&#45;&gt;create_custom_output_entry_list_array_step -->
<g id="edge13" class="edge">
<title>get_fusion_csv_intermediate_step&#45;&gt;create_custom_output_entry_list_array_step</title>
<path fill="none" stroke="black" d="M1124.29,-2374.45C1140.62,-2330.22 1183.88,-2208.8 1206.84,-2104.17 1238.02,-1962.07 1249.84,-1925.16 1249.84,-1779.67 1249.84,-1779.67 1249.84,-1779.67 1249.84,-1469.67 1249.84,-988.23 1969.12,-883.46 2359.57,-862.05"/>
<polygon fill="black" stroke="black" points="2359.79,-865.55 2369.59,-861.52 2359.42,-858.56 2359.79,-865.55"/>
</g>
<!-- get_one_val_for_skip_rows_parameter -->
<g id="node10" class="node">
<title>get_one_val_for_skip_rows_parameter</title>
<polygon fill="lightgoldenrodyellow" stroke="black" points="57.84,-1760.67 57.84,-1796.67 197.84,-1796.67 197.84,-1760.67 57.84,-1760.67"/>
<text text-anchor="middle" x="127.84" y="-1774.97" font-family="Times,serif" font-size="14.00">parse&#45;int v(1.0.0)</text>
</g>
<!-- get_one_val_for_skip_rows_parameter&#45;&gt;convert_metric_csvs_into_json_gzip_step -->
<g id="edge7" class="edge">
<title>get_one_val_for_skip_rows_parameter&#45;&gt;convert_metric_csvs_into_json_gzip_step</title>
<path fill="none" stroke="black" d="M147.43,-1760.34C205.95,-1708.59 379.55,-1555.06 446.8,-1495.59"/>
<polygon fill="black" stroke="black" points="449.29,-1498.06 454.46,-1488.81 444.65,-1492.81 449.29,-1498.06"/>
</g>
<!-- make_exon_coverage_qc_step -->
<g id="node11" class="node">
<title>make_exon_coverage_qc_step</title>
<polygon fill="lightgoldenrodyellow" stroke="black" points="831.84,-1760.67 831.84,-1796.67 1183.84,-1796.67 1183.84,-1760.67 831.84,-1760.67"/>
<text text-anchor="middle" x="1007.84" y="-1774.97" font-family="Times,serif" font-size="14.00">custom&#45;tso500&#45;make&#45;exon&#45;coverage&#45;qc v(1.0.0)</text>
</g>
<!-- make_exon_coverage_qc_step&#45;&gt;convert_metric_csvs_into_json_gzip_step -->
<g id="edge8" class="edge">
<title>make_exon_coverage_qc_step&#45;&gt;convert_metric_csvs_into_json_gzip_step</title>
<path fill="none" stroke="black" d="M977.98,-1760.57C887.16,-1708.52 614.19,-1552.1 512.54,-1493.85"/>
<polygon fill="black" stroke="black" points="514.23,-1490.78 503.81,-1488.85 510.75,-1496.86 514.23,-1490.78"/>
</g>
<!-- make_exon_coverage_qc_step&#45;&gt;create_custom_output_entry_list_array_step -->
<g id="edge14" class="edge">
<title>make_exon_coverage_qc_step&#45;&gt;create_custom_output_entry_list_array_step</title>
<path fill="none" stroke="black" d="M1008.31,-1760.51C1011.55,-1677.9 1037.02,-1318.11 1235.84,-1145.17 1408.58,-994.91 2069.48,-910.03 2405.77,-875.74"/>
<polygon fill="black" stroke="black" points="2406.52,-879.18 2416.11,-874.69 2405.81,-872.22 2406.52,-879.18"/>
</g>
<!-- get_fragment_length_hist_csv_intermediate_step -->
<g id="node12" class="node">
<title>get_fragment_length_hist_csv_intermediate_step</title>
<polygon fill="lightgoldenrodyellow" stroke="black" points="58.34,-2374.67 58.34,-2410.67 291.34,-2410.67 291.34,-2374.67 58.34,-2374.67"/>
<text text-anchor="middle" x="174.84" y="-2388.97" font-family="Times,serif" font-size="14.00">get&#45;file&#45;from&#45;directory v(1.0.0)</text>
</g>
<!-- get_fragment_length_hist_csv_intermediate_step&#45;&gt;convert_metric_csvs_into_json_gzip_step -->
<g id="edge9" class="edge">
<title>get_fragment_length_hist_csv_intermediate_step&#45;&gt;convert_metric_csvs_into_json_gzip_step</title>
<path fill="none" stroke="black" d="M174.57,-2374.59C173.96,-2299.19 177.48,-1989.81 269.84,-1760.17 313.76,-1650.96 406.47,-1543.37 450.13,-1496.34"/>
<polygon fill="black" stroke="black" points="452.92,-1498.48 457.2,-1488.79 447.81,-1493.7 452.92,-1498.48"/>
</g>
<!-- get_tmb_trace_tsv_intermediate_step -->
<g id="node13" class="node">
<title>get_tmb_trace_tsv_intermediate_step</title>
<polygon fill="lightgoldenrodyellow" stroke="black" points="309.34,-2374.67 309.34,-2410.67 542.34,-2410.67 542.34,-2374.67 309.34,-2374.67"/>
<text text-anchor="middle" x="425.84" y="-2388.97" font-family="Times,serif" font-size="14.00">get&#45;file&#45;from&#45;directory v(1.0.0)</text>
</g>
<!-- get_tmb_trace_tsv_intermediate_step&#45;&gt;convert_metric_csvs_into_json_gzip_step -->
<g id="edge10" class="edge">
<title>get_tmb_trace_tsv_intermediate_step&#45;&gt;convert_metric_csvs_into_json_gzip_step</title>
<path fill="none" stroke="black" d="M415.43,-2374.37C371.99,-2299.89 210.74,-1999.67 282.84,-1760.17 315.98,-1650.07 406.36,-1543.31 449.84,-1496.46"/>
<polygon fill="black" stroke="black" points="452.6,-1498.63 456.89,-1488.95 447.5,-1493.84 452.6,-1498.63"/>
</g>
<!-- make_per_coverage_threshold_qc_step -->
<g id="node14" class="node">
<title>make_per_coverage_threshold_qc_step</title>
<polygon fill="lightgoldenrodyellow" stroke="black" points="291.84,-1760.67 291.84,-1796.67 655.84,-1796.67 655.84,-1760.67 291.84,-1760.67"/>
<text text-anchor="middle" x="473.84" y="-1774.97" font-family="Times,serif" font-size="14.00">custom&#45;tso500&#45;make&#45;region&#45;coverage&#45;qc v(1.0.0)</text>
</g>
<!-- make_per_coverage_threshold_qc_step&#45;&gt;convert_metric_csvs_into_json_gzip_step -->
<g id="edge11" class="edge">
<title>make_per_coverage_threshold_qc_step&#45;&gt;convert_metric_csvs_into_json_gzip_step</title>
<path fill="none" stroke="black" d="M473.84,-1760.34C473.84,-1709.54 473.84,-1560.64 473.84,-1498.94"/>
<polygon fill="black" stroke="black" points="477.34,-1498.81 473.84,-1488.81 470.34,-1498.81 477.34,-1498.81"/>
</g>
<!-- dragen_metrics_to_json_step -->
<g id="node15" class="node">
<title>dragen_metrics_to_json_step</title>
<polygon fill="lightgoldenrodyellow" stroke="black" points="1277.84,-2067.67 1277.84,-2103.67 1791.84,-2103.67 1791.84,-2067.67 1277.84,-2067.67"/>
<text text-anchor="middle" x="1534.84" y="-2081.97" font-family="Times,serif" font-size="14.00">custom&#45;tso500&#45;align&#45;collapse&#45;fusion&#45;caller&#45;csv&#45;metrics&#45;to&#45;json v(1.0.0)</text>
</g>
<!-- dragen_metrics_to_json_step&#45;&gt;create_custom_output_entry_list_array_step -->
<g id="edge12" class="edge">
<title>dragen_metrics_to_json_step&#45;&gt;create_custom_output_entry_list_array_step</title>
<path fill="none" stroke="black" d="M1549.96,-2067.33C1668.12,-1931.83 2442.33,-1044.02 2582.95,-882.77"/>
<polygon fill="black" stroke="black" points="2585.95,-884.66 2589.88,-874.82 2580.67,-880.06 2585.95,-884.66"/>
</g>
<!-- create_output_directory -->
<g id="node21" class="node">
<title>create_output_directory</title>
<polygon fill="lightgoldenrodyellow" stroke="black" points="2612.34,-531.67 2612.34,-567.67 2859.34,-567.67 2859.34,-531.67 2612.34,-531.67"/>
<text text-anchor="middle" x="2735.84" y="-545.97" font-family="Times,serif" font-size="14.00">custom&#45;create&#45;directory v(2.0.1)</text>
</g>
<!-- create_custom_output_entry_list_array_step&#45;&gt;create_output_directory -->
<g id="edge19" class="edge">
<title>create_custom_output_entry_list_array_step&#45;&gt;create_output_directory</title>
<path fill="none" stroke="black" d="M2612.26,-838.4C2634.1,-787.55 2698.28,-638.12 2724.49,-577.09"/>
<polygon fill="black" stroke="black" points="2727.77,-578.33 2728.5,-567.76 2721.34,-575.56 2727.77,-578.33"/>
</g>
<!-- gather_compressed_metric_json_files_into_tar_step&#45;&gt;create_custom_output_entry_list_array_step -->
<g id="edge15" class="edge">
<title>gather_compressed_metric_json_files_into_tar_step&#45;&gt;create_custom_output_entry_list_array_step</title>
<path fill="none" stroke="black" d="M576.98,-1147.91C929.52,-1097.45 2086.24,-931.9 2475.61,-876.17"/>
<polygon fill="black" stroke="black" points="2476.38,-879.59 2485.78,-874.71 2475.39,-872.67 2476.38,-879.59"/>
</g>
<!-- run_dragen_multiqc_on_align_collapse_fusion_caller_dir_step -->
<g id="node18" class="node">
<title>run_dragen_multiqc_on_align_collapse_fusion_caller_dir_step</title>
<polygon fill="lightgoldenrodyellow" stroke="black" points="2716.34,-2374.67 2716.34,-2410.67 2855.34,-2410.67 2855.34,-2374.67 2716.34,-2374.67"/>
<text text-anchor="middle" x="2785.84" y="-2388.97" font-family="Times,serif" font-size="14.00">multiqc v(1.14.0)</text>
</g>
<!-- run_dragen_multiqc_on_align_collapse_fusion_caller_dir_step&#45;&gt;create_custom_output_entry_list_array_step -->
<g id="edge16" class="edge">
<title>run_dragen_multiqc_on_align_collapse_fusion_caller_dir_step&#45;&gt;create_custom_output_entry_list_array_step</title>
<path fill="none" stroke="black" d="M2784.83,-2374.64C2780.63,-2302.6 2764.84,-2015.69 2764.84,-1779.67 2764.84,-1779.67 2764.84,-1779.67 2764.84,-1469.67 2764.84,-1235.92 2654.23,-967.8 2616.94,-884.05"/>
<polygon fill="black" stroke="black" points="2620.06,-882.46 2612.77,-874.77 2613.68,-885.32 2620.06,-882.46"/>
</g>
<!-- gather_compressed_vcf_files_into_tar_step -->
<g id="node19" class="node">
<title>gather_compressed_vcf_files_into_tar_step</title>
<polygon fill="lightgoldenrodyellow" stroke="black" points="2300.34,-1452.67 2300.34,-1488.67 2531.34,-1488.67 2531.34,-1452.67 2300.34,-1452.67"/>
<text text-anchor="middle" x="2415.84" y="-1466.97" font-family="Times,serif" font-size="14.00">custom&#45;tar&#45;vcf&#45;file&#45;list v(1.0.0)</text>
</g>
<!-- gather_compressed_vcf_files_into_tar_step&#45;&gt;create_custom_output_entry_list_array_step -->
<g id="edge17" class="edge">
<title>gather_compressed_vcf_files_into_tar_step&#45;&gt;create_custom_output_entry_list_array_step</title>
<path fill="none" stroke="black" d="M2421.09,-1452.67C2447.32,-1367.74 2564.11,-989.54 2596.49,-884.7"/>
<polygon fill="black" stroke="black" points="2599.92,-885.48 2599.52,-874.89 2593.23,-883.41 2599.92,-885.48"/>
</g>
<!-- gather_compressed_reporting_json_files_into_tar_step&#45;&gt;create_custom_output_entry_list_array_step -->
<g id="edge18" class="edge">
<title>gather_compressed_reporting_json_files_into_tar_step&#45;&gt;create_custom_output_entry_list_array_step</title>
<path fill="none" stroke="black" d="M2225.63,-1760.62C2231.14,-1711.5 2250.02,-1565.94 2290.84,-1452.17 2374.53,-1218.91 2535.38,-963.64 2587.84,-883.32"/>
<polygon fill="black" stroke="black" points="2590.86,-885.1 2593.41,-874.82 2585,-881.27 2590.86,-885.1"/>
</g>
<!-- post_processing_output_directory -->
<g id="node29" class="node">
<title>post_processing_output_directory</title>
<polygon fill="#94ddf4" stroke="black" points="2607.34,-223.67 2607.34,-259.67 2864.34,-259.67 2864.34,-223.67 2607.34,-223.67"/>
<text text-anchor="middle" x="2735.84" y="-237.97" font-family="Times,serif" font-size="14.00">post_processing_output_directory</text>
</g>
<!-- create_output_directory&#45;&gt;post_processing_output_directory -->
<g id="edge65" class="edge">
<title>create_output_directory&#45;&gt;post_processing_output_directory</title>
<path fill="none" stroke="black" d="M2735.84,-531.34C2735.84,-480.54 2735.84,-331.64 2735.84,-269.94"/>
<polygon fill="black" stroke="black" points="2739.34,-269.81 2735.84,-259.81 2732.34,-269.81 2739.34,-269.81"/>
</g>
<!-- get_align_collapse_fusion_caller_metrics_csv_files_intermediate_step -->
<g id="node22" class="node">
<title>get_align_collapse_fusion_caller_metrics_csv_files_intermediate_step</title>
<polygon fill="lightgoldenrodyellow" stroke="black" points="1291.34,-2374.67 1291.34,-2410.67 1532.34,-2410.67 1532.34,-2374.67 1291.34,-2374.67"/>
<text text-anchor="middle" x="1411.84" y="-2388.97" font-family="Times,serif" font-size="14.00">get&#45;files&#45;from&#45;directory v(1.0.0)</text>
</g>
<!-- get_align_collapse_fusion_caller_metrics_csv_files_intermediate_step&#45;&gt;dragen_metrics_to_json_step -->
<g id="edge20" class="edge">
<title>get_align_collapse_fusion_caller_metrics_csv_files_intermediate_step&#45;&gt;dragen_metrics_to_json_step</title>
<path fill="none" stroke="black" d="M1418.8,-2374.4C1439.31,-2323.55 1499.57,-2174.12 1524.18,-2113.09"/>
<polygon fill="black" stroke="black" points="1527.46,-2114.34 1527.95,-2103.76 1520.96,-2111.72 1527.46,-2114.34"/>
</g>
<!-- index_vcf_files_step&#45;&gt;gather_compressed_vcf_files_into_tar_step -->
<g id="edge23" class="edge">
<title>index_vcf_files_step&#45;&gt;gather_compressed_vcf_files_into_tar_step</title>
<path fill="none" stroke="black" d="M2408.29,-1760.34C2409.62,-1709.54 2413.51,-1560.64 2415.13,-1498.94"/>
<polygon fill="black" stroke="black" points="2418.63,-1498.9 2415.39,-1488.81 2411.63,-1498.72 2418.63,-1498.9"/>
</g>
<!-- mosdepth_step -->
<g id="node24" class="node">
<title>mosdepth_step</title>
<polygon fill="lightgoldenrodyellow" stroke="black" points="598.84,-2067.67 598.84,-2103.67 744.84,-2103.67 744.84,-2067.67 598.84,-2067.67"/>
<text text-anchor="middle" x="671.84" y="-2081.97" font-family="Times,serif" font-size="14.00">mosdepth v(0.3.1)</text>
</g>
<!-- mosdepth_step&#45;&gt;make_exon_coverage_qc_step -->
<g id="edge25" class="edge">
<title>mosdepth_step&#45;&gt;make_exon_coverage_qc_step</title>
<path fill="none" stroke="black" d="M690.87,-2067.4C747.7,-2015.81 916.28,-1862.79 981.58,-1803.51"/>
<polygon fill="black" stroke="black" points="983.97,-1806.07 989.02,-1796.76 979.26,-1800.89 983.97,-1806.07"/>
</g>
<!-- mosdepth_step&#45;&gt;make_per_coverage_threshold_qc_step -->
<g id="edge26" class="edge">
<title>mosdepth_step&#45;&gt;make_per_coverage_threshold_qc_step</title>
<path fill="none" stroke="black" d="M660.63,-2067.4C627.48,-2016.34 529.81,-1865.89 490.5,-1805.34"/>
<polygon fill="black" stroke="black" points="493.31,-1803.24 484.93,-1796.76 487.44,-1807.05 493.31,-1803.24"/>
</g>
<!-- get_raw_bam_file_intermediate_step -->
<g id="node25" class="node">
<title>get_raw_bam_file_intermediate_step</title>
<polygon fill="lightgoldenrodyellow" stroke="black" points="675.34,-2374.67 675.34,-2410.67 944.34,-2410.67 944.34,-2374.67 675.34,-2374.67"/>
<text text-anchor="middle" x="809.84" y="-2388.97" font-family="Times,serif" font-size="14.00">get&#45;bam&#45;file&#45;from&#45;directory v(1.0.0)</text>
</g>
<!-- get_raw_bam_file_intermediate_step&#45;&gt;mosdepth_step -->
<g id="edge27" class="edge">
<title>get_raw_bam_file_intermediate_step&#45;&gt;mosdepth_step</title>
<path fill="none" stroke="black" d="M802.02,-2374.4C779.02,-2323.55 711.41,-2174.12 683.79,-2113.09"/>
<polygon fill="black" stroke="black" points="686.88,-2111.42 679.57,-2103.76 680.5,-2114.31 686.88,-2111.42"/>
</g>
<!-- create_dummy_file_step -->
<g id="node26" class="node">
<title>create_dummy_file_step</title>
<polygon fill="lightgoldenrodyellow" stroke="black" points="2655.34,-2694.67 2655.34,-2730.67 2916.34,-2730.67 2916.34,-2694.67 2655.34,-2694.67"/>
<text text-anchor="middle" x="2785.84" y="-2708.97" font-family="Times,serif" font-size="14.00">custom&#45;create&#45;dummy&#45;file v(1.0.0)</text>
</g>
<!-- create_dummy_file_step&#45;&gt;run_dragen_multiqc_on_align_collapse_fusion_caller_dir_step -->
<g id="edge28" class="edge">
<title>create_dummy_file_step&#45;&gt;run_dragen_multiqc_on_align_collapse_fusion_caller_dir_step</title>
<path fill="none" stroke="black" d="M2785.84,-2694.58C2785.84,-2642.38 2785.84,-2484.78 2785.84,-2420.95"/>
<polygon fill="black" stroke="black" points="2789.34,-2420.85 2785.84,-2410.85 2782.34,-2420.85 2789.34,-2420.85"/>
</g>
<!-- tso500_outputs_by_sample -->
<g id="node27" class="node">
<title>tso500_outputs_by_sample</title>
<polygon fill="#94ddf4" stroke="black" points="1665.34,-2694.67 1665.34,-2730.67 1874.34,-2730.67 1874.34,-2694.67 1665.34,-2694.67"/>
<text text-anchor="middle" x="1769.84" y="-2708.97" font-family="Times,serif" font-size="14.00">tso500_outputs_by_sample</text>
</g>
<!-- tso500_outputs_by_sample&#45;&gt;get_tmb_json_intermediate_step -->
<g id="edge51" class="edge">
<title>tso500_outputs_by_sample&#45;&gt;get_tmb_json_intermediate_step</title>
<path fill="none" stroke="black" d="M1761.04,-2694.58C1739.69,-2642.27 1688.24,-2484.13 1671.58,-2420.56"/>
<polygon fill="black" stroke="black" points="1674.97,-2419.7 1669.13,-2410.85 1668.19,-2421.41 1674.97,-2419.7"/>
</g>
<!-- tso500_outputs_by_sample&#45;&gt;get_tmb_json_intermediate_step -->
<g id="edge52" class="edge">
<title>tso500_outputs_by_sample&#45;&gt;get_tmb_json_intermediate_step</title>
<path fill="none" stroke="black" d="M1767.56,-2694.58C1755,-2642.16 1703.83,-2483.47 1679.36,-2420.17"/>
<polygon fill="black" stroke="black" points="1682.61,-2418.86 1675.67,-2410.85 1676.1,-2421.44 1682.61,-2418.86"/>
</g>
<!-- tso500_outputs_by_sample&#45;&gt;get_sample_analysis_results_intermediate_step -->
<g id="edge50" class="edge">
<title>tso500_outputs_by_sample&#45;&gt;get_sample_analysis_results_intermediate_step</title>
<path fill="none" stroke="black" d="M1775.38,-2694.58C1792.32,-2642.27 1843.54,-2484.13 1864.13,-2420.56"/>
<polygon fill="black" stroke="black" points="1867.52,-2421.45 1867.27,-2410.85 1860.86,-2419.29 1867.52,-2421.45"/>
</g>
<!-- tso500_outputs_by_sample&#45;&gt;get_msi_json_intermediate_step -->
<g id="edge46" class="edge">
<title>tso500_outputs_by_sample&#45;&gt;get_msi_json_intermediate_step</title>
<path fill="none" stroke="black" d="M1783.19,-2694.58C1830.28,-2641.52 1987.5,-2479.54 2051.54,-2417.86"/>
<polygon fill="black" stroke="black" points="2054.06,-2420.29 2058.87,-2410.85 2049.23,-2415.23 2054.06,-2420.29"/>
</g>
<!-- tso500_outputs_by_sample&#45;&gt;get_msi_json_intermediate_step -->
<g id="edge47" class="edge">
<title>tso500_outputs_by_sample&#45;&gt;get_msi_json_intermediate_step</title>
<path fill="none" stroke="black" d="M1789.71,-2694.58C1845.51,-2641.73 2002.03,-2480.85 2058.44,-2418.62"/>
<polygon fill="black" stroke="black" points="2061.34,-2420.63 2065.41,-2410.85 2056.13,-2415.96 2061.34,-2420.63"/>
</g>
<!-- tso500_outputs_by_sample&#45;&gt;get_vcf_files_intermediate_step -->
<g id="edge55" class="edge">
<title>tso500_outputs_by_sample&#45;&gt;get_vcf_files_intermediate_step</title>
<path fill="none" stroke="black" d="M1799,-2694.58C1896.41,-2640.82 2210.26,-2475.24 2327.87,-2415.47"/>
<polygon fill="black" stroke="black" points="2329.65,-2418.5 2336.99,-2410.85 2326.49,-2412.25 2329.65,-2418.5"/>
</g>
<!-- tso500_outputs_by_sample&#45;&gt;get_vcf_files_intermediate_step -->
<g id="edge56" class="edge">
<title>tso500_outputs_by_sample&#45;&gt;get_vcf_files_intermediate_step</title>
<path fill="none" stroke="black" d="M1805.52,-2694.58C1911.77,-2640.92 2224.82,-2475.9 2334.47,-2415.83"/>
<polygon fill="black" stroke="black" points="2336.45,-2418.74 2343.53,-2410.85 2333.08,-2412.6 2336.45,-2418.74"/>
</g>
<!-- tso500_outputs_by_sample&#45;&gt;get_fusion_csv_intermediate_step -->
<g id="edge44" class="edge">
<title>tso500_outputs_by_sample&#45;&gt;get_fusion_csv_intermediate_step</title>
<path fill="none" stroke="black" d="M1731.52,-2694.58C1616.77,-2640.82 1277.17,-2475.24 1158.91,-2415.47"/>
<polygon fill="black" stroke="black" points="1160.3,-2412.25 1149.8,-2410.85 1157.13,-2418.5 1160.3,-2412.25"/>
</g>
<!-- tso500_outputs_by_sample&#45;&gt;get_fusion_csv_intermediate_step -->
<g id="edge45" class="edge">
<title>tso500_outputs_by_sample&#45;&gt;get_fusion_csv_intermediate_step</title>
<path fill="none" stroke="black" d="M1738.05,-2694.58C1632.14,-2640.71 1291.62,-2474.58 1165.4,-2415.11"/>
<polygon fill="black" stroke="black" points="1166.88,-2411.94 1156.34,-2410.85 1163.9,-2418.28 1166.88,-2411.94"/>
</g>
<!-- tso500_outputs_by_sample&#45;&gt;make_exon_coverage_qc_step -->
<g id="edge57" class="edge">
<title>tso500_outputs_by_sample&#45;&gt;make_exon_coverage_qc_step</title>
<path fill="none" stroke="black" d="M1730.69,-2694.57C1708.77,-2685.1 1680.88,-2673.25 1655.84,-2663.17 1363,-2545.36 1171.12,-2670.97 991.84,-2411.17 857.05,-2215.85 961.56,-1899.54 997.13,-1806.32"/>
<polygon fill="black" stroke="black" points="1000.47,-1807.39 1000.82,-1796.8 993.94,-1804.86 1000.47,-1807.39"/>
</g>
<!-- tso500_outputs_by_sample&#45;&gt;get_fragment_length_hist_csv_intermediate_step -->
<g id="edge42" class="edge">
<title>tso500_outputs_by_sample&#45;&gt;get_fragment_length_hist_csv_intermediate_step</title>
<path fill="none" stroke="black" d="M1727.68,-2694.65C1704.16,-2684.25 1674.34,-2671.41 1646.84,-2663.17 1390.1,-2586.25 594.07,-2459.59 292.35,-2412.27"/>
<polygon fill="black" stroke="black" points="292.68,-2408.78 282.26,-2410.69 291.6,-2415.7 292.68,-2408.78"/>
</g>
<!-- tso500_outputs_by_sample&#45;&gt;get_fragment_length_hist_csv_intermediate_step -->
<g id="edge43" class="edge">
<title>tso500_outputs_by_sample&#45;&gt;get_fragment_length_hist_csv_intermediate_step</title>
<path fill="none" stroke="black" d="M1742.89,-2694.53C1721.94,-2684.15 1692.24,-2671.38 1664.84,-2663.17 1407.97,-2586.21 611.28,-2459.46 300.63,-2412.2"/>
<polygon fill="black" stroke="black" points="301.09,-2408.73 290.68,-2410.69 300.04,-2415.65 301.09,-2408.73"/>
</g>
<!-- tso500_outputs_by_sample&#45;&gt;get_tmb_trace_tsv_intermediate_step -->
<g id="edge53" class="edge">
<title>tso500_outputs_by_sample&#45;&gt;get_tmb_trace_tsv_intermediate_step</title>
<path fill="none" stroke="black" d="M1726.78,-2694.64C1703.35,-2684.43 1673.89,-2671.81 1646.84,-2663.17 1248.68,-2536.08 759.2,-2448.51 540.63,-2412.31"/>
<polygon fill="black" stroke="black" points="541.18,-2408.85 530.74,-2410.68 540.04,-2415.76 541.18,-2408.85"/>
</g>
<!-- tso500_outputs_by_sample&#45;&gt;get_tmb_trace_tsv_intermediate_step -->
<g id="edge54" class="edge">
<title>tso500_outputs_by_sample&#45;&gt;get_tmb_trace_tsv_intermediate_step</title>
<path fill="none" stroke="black" d="M1742.31,-2694.64C1721.35,-2684.43 1691.89,-2671.81 1664.84,-2663.17 1266.48,-2536.02 776.72,-2448.42 550.79,-2412.26"/>
<polygon fill="black" stroke="black" points="551.32,-2408.8 540.89,-2410.68 550.22,-2415.71 551.32,-2408.8"/>
</g>
<!-- tso500_outputs_by_sample&#45;&gt;make_per_coverage_threshold_qc_step -->
<g id="edge58" class="edge">
<title>tso500_outputs_by_sample&#45;&gt;make_per_coverage_threshold_qc_step</title>
<path fill="none" stroke="black" d="M1733.95,-2694.67C1711.78,-2684.6 1682.56,-2672.11 1655.84,-2663.17 1215.04,-2515.73 971.99,-2737.34 640.84,-2411.17 465.41,-2238.38 467.43,-1904.41 472.09,-1806.98"/>
<polygon fill="black" stroke="black" points="475.59,-1806.96 472.63,-1796.79 468.6,-1806.59 475.59,-1806.96"/>
</g>
<!-- tso500_outputs_by_sample&#45;&gt;dragen_metrics_to_json_step -->
<g id="edge36" class="edge">
<title>tso500_outputs_by_sample&#45;&gt;dragen_metrics_to_json_step</title>
<path fill="none" stroke="black" d="M1732.42,-2694.54C1627.12,-2645.48 1332.67,-2502.16 1281.84,-2411.17 1212.27,-2286.64 1405.16,-2158.95 1493.39,-2108.8"/>
<polygon fill="black" stroke="black" points="1495.35,-2111.71 1502.35,-2103.77 1491.92,-2105.61 1495.35,-2111.71"/>
</g>
<!-- tso500_outputs_by_sample&#45;&gt;create_custom_output_entry_list_array_step -->
<g id="edge29" class="edge">
<title>tso500_outputs_by_sample&#45;&gt;create_custom_output_entry_list_array_step</title>
<path fill="none" stroke="black" d="M1874.45,-2695.47C2030.65,-2667.82 2319.37,-2595.3 2479.84,-2411.17 2577.43,-2299.19 2559.84,-2235.21 2559.84,-2086.67 2559.84,-2086.67 2559.84,-2086.67 2559.84,-1469.67 2559.84,-1243.24 2559.84,-969.69 2585.8,-884.38"/>
<polygon fill="black" stroke="black" points="2589.19,-885.3 2589.18,-874.71 2582.58,-882.99 2589.19,-885.3"/>
</g>
<!-- tso500_outputs_by_sample&#45;&gt;create_custom_output_entry_list_array_step -->
<g id="edge30" class="edge">
<title>tso500_outputs_by_sample&#45;&gt;create_custom_output_entry_list_array_step</title>
<path fill="none" stroke="black" d="M1874.53,-2697.54C2033.55,-2671.51 2333.2,-2600.08 2497.84,-2411.17 2595.43,-2299.19 2577.84,-2235.21 2577.84,-2086.67 2577.84,-2086.67 2577.84,-2086.67 2577.84,-1469.67 2577.84,-1243.47 2577.84,-970.24 2593.37,-884.64"/>
<polygon fill="black" stroke="black" points="2596.82,-885.21 2595.45,-874.71 2589.97,-883.78 2596.82,-885.21"/>
</g>
<!-- tso500_outputs_by_sample&#45;&gt;create_custom_output_entry_list_array_step -->
<g id="edge31" class="edge">
<title>tso500_outputs_by_sample&#45;&gt;create_custom_output_entry_list_array_step</title>
<path fill="none" stroke="black" d="M1874.57,-2699.38C2036.71,-2674.96 2347.14,-2604.74 2515.84,-2411.17 2613.43,-2299.19 2595.84,-2235.21 2595.84,-2086.67 2595.84,-2086.67 2595.84,-2086.67 2595.84,-1469.67 2595.84,-1243.7 2595.84,-970.8 2601,-884.91"/>
<polygon fill="black" stroke="black" points="2604.51,-884.93 2601.71,-874.71 2597.52,-884.44 2604.51,-884.93"/>
</g>
<!-- tso500_outputs_by_sample&#45;&gt;create_custom_output_entry_list_array_step -->
<g id="edge32" class="edge">
<title>tso500_outputs_by_sample&#45;&gt;create_custom_output_entry_list_array_step</title>
<path fill="none" stroke="black" d="M1874.53,-2701.02C2040.13,-2678.17 2361.2,-2609.26 2533.84,-2411.17 2631.43,-2299.19 2613.84,-2235.21 2613.84,-2086.67 2613.84,-2086.67 2613.84,-2086.67 2613.84,-1469.67 2613.84,-1243.7 2613.84,-970.8 2608.68,-884.91"/>
<polygon fill="black" stroke="black" points="2612.15,-884.44 2607.97,-874.71 2605.17,-884.93 2612.15,-884.44"/>
</g>
<!-- tso500_outputs_by_sample&#45;&gt;create_custom_output_entry_list_array_step -->
<g id="edge33" class="edge">
<title>tso500_outputs_by_sample&#45;&gt;create_custom_output_entry_list_array_step</title>
<path fill="none" stroke="black" d="M1874.35,-2702.47C2043.84,-2681.16 2375.38,-2613.64 2551.84,-2411.17 2649.43,-2299.19 2631.84,-2235.21 2631.84,-2086.67 2631.84,-2086.67 2631.84,-2086.67 2631.84,-1469.67 2631.84,-1243.47 2631.84,-970.24 2616.31,-884.64"/>
<polygon fill="black" stroke="black" points="2619.7,-883.78 2614.23,-874.71 2612.85,-885.21 2619.7,-883.78"/>
</g>
<!-- tso500_outputs_by_sample&#45;&gt;create_custom_output_entry_list_array_step -->
<g id="edge34" class="edge">
<title>tso500_outputs_by_sample&#45;&gt;create_custom_output_entry_list_array_step</title>
<path fill="none" stroke="black" d="M1874.34,-2703.72C2048.28,-2683.85 2389.79,-2617.77 2569.84,-2411.17 2667.43,-2299.19 2649.84,-2235.21 2649.84,-2086.67 2649.84,-2086.67 2649.84,-2086.67 2649.84,-1469.67 2649.84,-1243.24 2649.84,-969.69 2623.88,-884.38"/>
<polygon fill="black" stroke="black" points="2627.1,-882.99 2620.49,-874.71 2620.49,-885.3 2627.1,-882.99"/>
</g>
<!-- tso500_outputs_by_sample&#45;&gt;gather_compressed_metric_json_files_into_tar_step -->
<g id="edge37" class="edge">
<title>tso500_outputs_by_sample&#45;&gt;gather_compressed_metric_json_files_into_tar_step</title>
<path fill="none" stroke="black" d="M1735.72,-2694.53C1713.48,-2684.02 1683.55,-2671.11 1655.84,-2663.17 1308.33,-2563.66 291.74,-2678.87 48.84,-2411.17 -48.24,-2304.18 29.84,-2231.14 29.84,-2086.67 29.84,-2086.67 29.84,-2086.67 29.84,-1777.67 29.84,-1498.4 335.84,-1260.34 439.77,-1187.54"/>
<polygon fill="black" stroke="black" points="441.83,-1190.38 448.05,-1181.8 437.84,-1184.63 441.83,-1190.38"/>
</g>
<!-- tso500_outputs_by_sample&#45;&gt;run_dragen_multiqc_on_align_collapse_fusion_caller_dir_step -->
<g id="edge60" class="edge">
<title>tso500_outputs_by_sample&#45;&gt;run_dragen_multiqc_on_align_collapse_fusion_caller_dir_step</title>
<path fill="none" stroke="black" d="M1814.67,-2694.58C1974.54,-2640.25 2512.78,-2471.71 2711.69,-2413.61"/>
<polygon fill="black" stroke="black" points="2712.84,-2416.91 2721.47,-2410.76 2710.89,-2410.19 2712.84,-2416.91"/>
</g>
<!-- tso500_outputs_by_sample&#45;&gt;run_dragen_multiqc_on_align_collapse_fusion_caller_dir_step -->
<g id="edge61" class="edge">
<title>tso500_outputs_by_sample&#45;&gt;run_dragen_multiqc_on_align_collapse_fusion_caller_dir_step</title>
<path fill="none" stroke="black" d="M1821.2,-2694.58C1990.13,-2640.27 2528.07,-2471.88 2718.38,-2413.69"/>
<polygon fill="black" stroke="black" points="2719.45,-2417.03 2727.99,-2410.76 2717.41,-2410.33 2719.45,-2417.03"/>
</g>
<!-- tso500_outputs_by_sample&#45;&gt;run_dragen_multiqc_on_align_collapse_fusion_caller_dir_step -->
<g id="edge62" class="edge">
<title>tso500_outputs_by_sample&#45;&gt;run_dragen_multiqc_on_align_collapse_fusion_caller_dir_step</title>
<path fill="none" stroke="black" d="M1827.73,-2694.58C2005.62,-2640.33 2542.82,-2472.21 2724.83,-2413.87"/>
<polygon fill="black" stroke="black" points="2726.06,-2417.15 2734.52,-2410.76 2723.92,-2410.48 2726.06,-2417.15"/>
</g>
<!-- tso500_outputs_by_sample&#45;&gt;run_dragen_multiqc_on_align_collapse_fusion_caller_dir_step -->
<g id="edge63" class="edge">
<title>tso500_outputs_by_sample&#45;&gt;run_dragen_multiqc_on_align_collapse_fusion_caller_dir_step</title>
<path fill="none" stroke="black" d="M1834.25,-2694.58C2021.09,-2640.38 2557.57,-2472.55 2731.33,-2414.04"/>
<polygon fill="black" stroke="black" points="2732.69,-2417.28 2741.04,-2410.76 2730.44,-2410.65 2732.69,-2417.28"/>
</g>
<!-- tso500_outputs_by_sample&#45;&gt;gather_compressed_vcf_files_into_tar_step -->
<g id="edge39" class="edge">
<title>tso500_outputs_by_sample&#45;&gt;gather_compressed_vcf_files_into_tar_step</title>
<path fill="none" stroke="black" d="M1874.53,-2703.9C2040.63,-2685.28 2360.21,-2622.41 2501.84,-2411.17 2605.51,-2256.54 2457.25,-1635.7 2422.74,-1498.57"/>
<polygon fill="black" stroke="black" points="2426.12,-1497.69 2420.28,-1488.85 2419.34,-1499.41 2426.12,-1497.69"/>
</g>
<!-- tso500_outputs_by_sample&#45;&gt;gather_compressed_reporting_json_files_into_tar_step -->
<g id="edge38" class="edge">
<title>tso500_outputs_by_sample&#45;&gt;gather_compressed_reporting_json_files_into_tar_step</title>
<path fill="none" stroke="black" d="M1819.65,-2694.54C1914.49,-2658.91 2119.07,-2566.93 2203.84,-2411.17 2316.82,-2203.58 2253.78,-1898.07 2230.99,-1806.54"/>
<polygon fill="black" stroke="black" points="2234.34,-1805.52 2228.49,-1796.69 2227.56,-1807.25 2234.34,-1805.52"/>
</g>
<!-- tso500_outputs_by_sample&#45;&gt;create_output_directory -->
<g id="edge35" class="edge">
<title>tso500_outputs_by_sample&#45;&gt;create_output_directory</title>
<path fill="none" stroke="black" d="M1874.51,-2704.96C2051.17,-2687.76 2407.69,-2626.77 2596.84,-2411.17 2712.29,-2279.58 2740.76,-2327.07 2848.84,-875.17 2857.53,-758.48 2786.56,-630.1 2752.9,-576.45"/>
<polygon fill="black" stroke="black" points="2755.78,-574.46 2747.46,-567.91 2749.88,-578.22 2755.78,-574.46"/>
</g>
<!-- tso500_outputs_by_sample&#45;&gt;get_align_collapse_fusion_caller_metrics_csv_files_intermediate_step -->
<g id="edge40" class="edge">
<title>tso500_outputs_by_sample&#45;&gt;get_align_collapse_fusion_caller_metrics_csv_files_intermediate_step</title>
<path fill="none" stroke="black" d="M1747.33,-2694.58C1683.13,-2641.52 1500.6,-2479.54 1435.28,-2417.86"/>
<polygon fill="black" stroke="black" points="1437.57,-2415.21 1427.91,-2410.85 1432.74,-2420.28 1437.57,-2415.21"/>
</g>
<!-- tso500_outputs_by_sample&#45;&gt;get_align_collapse_fusion_caller_metrics_csv_files_intermediate_step -->
<g id="edge41" class="edge">
<title>tso500_outputs_by_sample&#45;&gt;get_align_collapse_fusion_caller_metrics_csv_files_intermediate_step</title>
<path fill="none" stroke="black" d="M1753.85,-2694.58C1698.47,-2641.41 1515.67,-2478.88 1442.42,-2417.49"/>
<polygon fill="black" stroke="black" points="1444.38,-2414.56 1434.45,-2410.85 1439.9,-2419.94 1444.38,-2414.56"/>
</g>
<!-- tso500_outputs_by_sample&#45;&gt;mosdepth_step -->
<g id="edge59" class="edge">
<title>tso500_outputs_by_sample&#45;&gt;mosdepth_step</title>
<path fill="none" stroke="black" d="M1733.68,-2694.61C1711.54,-2684.58 1682.43,-2672.16 1655.84,-2663.17 1225.68,-2517.88 944.49,-2769.64 665.84,-2411.17 596.54,-2322.02 639.42,-2173.59 661.31,-2113.32"/>
<polygon fill="black" stroke="black" points="664.65,-2114.37 664.87,-2103.78 658.09,-2111.92 664.65,-2114.37"/>
</g>
<!-- tso500_outputs_by_sample&#45;&gt;get_raw_bam_file_intermediate_step -->
<g id="edge48" class="edge">
<title>tso500_outputs_by_sample&#45;&gt;get_raw_bam_file_intermediate_step</title>
<path fill="none" stroke="black" d="M1724.32,-2694.61C1701.15,-2684.88 1672.65,-2672.75 1646.84,-2663.17 1363.16,-2557.91 1017.13,-2455.63 875.2,-2413.64"/>
<polygon fill="black" stroke="black" points="875.92,-2410.2 865.34,-2410.72 873.94,-2416.91 875.92,-2410.2"/>
</g>
<!-- tso500_outputs_by_sample&#45;&gt;get_raw_bam_file_intermediate_step -->
<g id="edge49" class="edge">
<title>tso500_outputs_by_sample&#45;&gt;get_raw_bam_file_intermediate_step</title>
<path fill="none" stroke="black" d="M1740.07,-2694.61C1719.15,-2684.88 1690.65,-2672.75 1664.84,-2663.17 1380.88,-2557.81 1034.44,-2455.42 884.64,-2413.51"/>
<polygon fill="black" stroke="black" points="885.2,-2410.04 874.63,-2410.72 883.32,-2416.78 885.2,-2410.04"/>
</g>
<!-- tso_manifest_bed -->
<g id="node28" class="node">
<title>tso_manifest_bed</title>
<polygon fill="#94ddf4" stroke="black" points="1506.84,-2694.67 1506.84,-2730.67 1646.84,-2730.67 1646.84,-2694.67 1506.84,-2694.67"/>
<text text-anchor="middle" x="1576.84" y="-2708.97" font-family="Times,serif" font-size="14.00">tso_manifest_bed</text>
</g>
<!-- tso_manifest_bed&#45;&gt;mosdepth_step -->
<g id="edge64" class="edge">
<title>tso_manifest_bed&#45;&gt;mosdepth_step</title>
<path fill="none" stroke="black" d="M1506.68,-2700.17C1306.37,-2665.77 739.42,-2556.96 632.84,-2411.17 565.74,-2319.4 627.55,-2172.53 657.6,-2113"/>
<polygon fill="black" stroke="black" points="660.82,-2114.39 662.29,-2103.9 654.6,-2111.18 660.82,-2114.39"/>
</g>
</g>
</svg>
