<?xml version="1.0" encoding="UTF-8" standalone="no"?>
<!DOCTYPE svg PUBLIC "-//W3C//DTD SVG 1.1//EN"
 "http://www.w3.org/Graphics/SVG/1.1/DTD/svg11.dtd">
<!-- Generated by graphviz version 2.43.0 (0)
 -->
<!-- Title: G Pages: 1 -->
<svg width="1393pt" height="638pt"
 viewBox="0.00 0.00 1393.00 638.18" xmlns="http://www.w3.org/2000/svg" xmlns:xlink="http://www.w3.org/1999/xlink">
<g id="graph0" class="graph" transform="scale(1 1) rotate(0) translate(4 634.18)">
<title>G</title>
<polygon fill="#eeeeee" stroke="transparent" points="-4,4 -4,-634.18 1389,-634.18 1389,4 -4,4"/>
<g id="clust1" class="cluster">
<title>cluster_inputs</title>
<polygon fill="#eeeeee" stroke="black" stroke-dasharray="5,2" points="8,-530.86 8,-620.72 1377,-620.72 1377,-530.86 8,-530.86"/>
<text text-anchor="middle" x="1310.5" y="-538.66" font-family="Times,serif" font-size="14.00">Workflow Inputs</text>
</g>
<g id="clust2" class="cluster">
<title>cluster_outputs</title>
<polygon fill="#eeeeee" stroke="black" stroke-dasharray="5,2" points="734,-9.46 734,-99.31 1145,-99.31 1145,-9.46 734,-9.46"/>
<text text-anchor="middle" x="1072.5" y="-17.26" font-family="Times,serif" font-size="14.00">Workflow Outputs</text>
</g>
<!-- get_final_directory_output_for_tso500_pipeline -->
<g id="node1" class="node">
<title>get_final_directory_output_for_tso500_pipeline</title>
<polygon fill="lightgoldenrodyellow" stroke="black" points="501,-308.46 501,-344.46 1007,-344.46 1007,-308.46 501,-308.46"/>
<text text-anchor="middle" x="754" y="-322.76" font-family="Times,serif" font-size="14.00">get&#45;custom&#45;output&#45;dir&#45;entry&#45;for&#45;tso500&#45;with&#45;post&#45;processing v(2.0.1)</text>
</g>
<!-- create_final_output_directory -->
<g id="node2" class="node">
<title>create_final_output_directory</title>
<polygon fill="lightgoldenrodyellow" stroke="black" points="692.5,-222.46 692.5,-258.46 939.5,-258.46 939.5,-222.46 692.5,-222.46"/>
<text text-anchor="middle" x="816" y="-236.76" font-family="Times,serif" font-size="14.00">custom&#45;create&#45;directory v(2.0.1)</text>
</g>
<!-- get_final_directory_output_for_tso500_pipeline&#45;&gt;create_final_output_directory -->
<g id="edge1" class="edge">
<title>get_final_directory_output_for_tso500_pipeline&#45;&gt;create_final_output_directory</title>
<path fill="none" stroke="black" d="M766.85,-308.05C775.63,-296.15 787.42,-280.17 797.26,-266.85"/>
<polygon fill="black" stroke="black" points="800.26,-268.68 803.38,-258.55 794.63,-264.52 800.26,-268.68"/>
</g>
<!-- get_sample_output_directory -->
<g id="node6" class="node">
<title>get_sample_output_directory</title>
<polygon fill="lightgoldenrodyellow" stroke="black" points="871,-136.46 871,-172.46 1173,-172.46 1173,-136.46 871,-136.46"/>
<text text-anchor="middle" x="1022" y="-150.76" font-family="Times,serif" font-size="14.00">get&#45;subdirectory&#45;from&#45;directory v(1.0.0)</text>
</g>
<!-- create_final_output_directory&#45;&gt;get_sample_output_directory -->
<g id="edge6" class="edge">
<title>create_final_output_directory&#45;&gt;get_sample_output_directory</title>
<path fill="none" stroke="black" d="M858.18,-222.26C890.79,-208.96 936.05,-190.51 970.74,-176.36"/>
<polygon fill="black" stroke="black" points="972.29,-179.51 980.22,-172.49 969.64,-173.03 972.29,-179.51"/>
</g>
<!-- output_results_dir -->
<g id="node18" class="node">
<title>output_results_dir</title>
<polygon fill="#94ddf4" stroke="black" points="742.5,-50.46 742.5,-86.46 889.5,-86.46 889.5,-50.46 742.5,-50.46"/>
<text text-anchor="middle" x="816" y="-64.76" font-family="Times,serif" font-size="14.00">output_results_dir</text>
</g>
<!-- create_final_output_directory&#45;&gt;output_results_dir -->
<g id="edge21" class="edge">
<title>create_final_output_directory&#45;&gt;output_results_dir</title>
<path fill="none" stroke="black" d="M816,-222.22C816,-192.62 816,-131.89 816,-96.57"/>
<polygon fill="black" stroke="black" points="819.5,-96.49 816,-86.49 812.5,-96.49 819.5,-96.49"/>
</g>
<!-- get_intermediate_samplesheet_from_validation_step -->
<g id="node3" class="node">
<title>get_intermediate_samplesheet_from_validation_step</title>
<polygon fill="lightgoldenrodyellow" stroke="black" points="565.5,-395.46 565.5,-431.46 798.5,-431.46 798.5,-395.46 565.5,-395.46"/>
<text text-anchor="middle" x="682" y="-409.76" font-family="Times,serif" font-size="14.00">get&#45;file&#45;from&#45;directory v(1.0.0)</text>
</g>
<!-- get_intermediate_samplesheet_from_validation_step&#45;&gt;get_final_directory_output_for_tso500_pipeline -->
<g id="edge2" class="edge">
<title>get_intermediate_samplesheet_from_validation_step&#45;&gt;get_final_directory_output_for_tso500_pipeline</title>
<path fill="none" stroke="black" d="M696.57,-395.26C707.01,-382.93 721.24,-366.14 732.92,-352.35"/>
<polygon fill="black" stroke="black" points="735.66,-354.53 739.45,-344.63 730.32,-350 735.66,-354.53"/>
</g>
<!-- run_tso_ctdna_post_processing_workflow_step -->
<g id="node4" class="node">
<title>run_tso_ctdna_post_processing_workflow_step</title>
<polygon fill="#f3cea1" stroke="black" points="200.5,-395.46 200.5,-431.46 547.5,-431.46 547.5,-395.46 200.5,-395.46"/>
<text text-anchor="middle" x="374" y="-409.76" font-family="Times,serif" font-size="14.00">tso500&#45;ctdna&#45;post&#45;processing&#45;pipeline v(1.0.0)</text>
</g>
<!-- run_tso_ctdna_post_processing_workflow_step&#45;&gt;get_final_directory_output_for_tso500_pipeline -->
<g id="edge3" class="edge">
<title>run_tso_ctdna_post_processing_workflow_step&#45;&gt;get_final_directory_output_for_tso500_pipeline</title>
<path fill="none" stroke="black" d="M450.44,-395.36C513.32,-381.3 602.4,-361.37 667.8,-346.74"/>
<polygon fill="black" stroke="black" points="668.69,-350.13 677.68,-344.53 667.16,-343.3 668.69,-350.13"/>
</g>
<!-- run_tso_ctdna_workflow_step -->
<g id="node5" class="node">
<title>run_tso_ctdna_workflow_step</title>
<polygon fill="#f3cea1" stroke="black" points="579.5,-481.46 579.5,-517.46 784.5,-517.46 784.5,-481.46 579.5,-481.46"/>
<text text-anchor="middle" x="682" y="-495.76" font-family="Times,serif" font-size="14.00">tso500&#45;ctdna v(1.1.0&#45;&#45;120)</text>
</g>
<!-- run_tso_ctdna_workflow_step&#45;&gt;get_final_directory_output_for_tso500_pipeline -->
<g id="edge4" class="edge">
<title>run_tso_ctdna_workflow_step&#45;&gt;get_final_directory_output_for_tso500_pipeline</title>
<path fill="none" stroke="black" d="M743.5,-481.39C768.02,-471.24 793.76,-455.58 808,-431.96 824.13,-405.21 801.7,-373.12 781.04,-351.62"/>
<polygon fill="black" stroke="black" points="783.43,-349.05 773.87,-344.48 778.49,-354.01 783.43,-349.05"/>
</g>
<!-- run_tso_ctdna_workflow_step&#45;&gt;get_intermediate_samplesheet_from_validation_step -->
<g id="edge5" class="edge">
<title>run_tso_ctdna_workflow_step&#45;&gt;get_intermediate_samplesheet_from_validation_step</title>
<path fill="none" stroke="black" d="M682,-481.05C682,-469.72 682,-454.69 682,-441.77"/>
<polygon fill="black" stroke="black" points="685.5,-441.55 682,-431.55 678.5,-441.55 685.5,-441.55"/>
</g>
<!-- run_tso_ctdna_workflow_step&#45;&gt;run_tso_ctdna_post_processing_workflow_step -->
<g id="edge8" class="edge">
<title>run_tso_ctdna_workflow_step&#45;&gt;run_tso_ctdna_post_processing_workflow_step</title>
<path fill="none" stroke="black" d="M619.3,-481.36C569.15,-467.68 498.78,-448.49 446.27,-434.17"/>
<polygon fill="black" stroke="black" points="446.92,-430.72 436.35,-431.46 445.08,-437.47 446.92,-430.72"/>
</g>
<!-- output_results_dir_by_sample -->
<g id="node19" class="node">
<title>output_results_dir_by_sample</title>
<polygon fill="#94ddf4" stroke="black" points="907.5,-50.46 907.5,-86.46 1136.5,-86.46 1136.5,-50.46 907.5,-50.46"/>
<text text-anchor="middle" x="1022" y="-64.76" font-family="Times,serif" font-size="14.00">output_results_dir_by_sample</text>
</g>
<!-- get_sample_output_directory&#45;&gt;output_results_dir_by_sample -->
<g id="edge22" class="edge">
<title>get_sample_output_directory&#45;&gt;output_results_dir_by_sample</title>
<path fill="none" stroke="black" d="M1022,-136.05C1022,-124.72 1022,-109.69 1022,-96.77"/>
<polygon fill="black" stroke="black" points="1025.5,-96.55 1022,-86.55 1018.5,-96.55 1025.5,-96.55"/>
</g>
<!-- get_sample_ids_from_tso500_sample_object -->
<g id="node7" class="node">
<title>get_sample_ids_from_tso500_sample_object</title>
<polygon fill="lightgoldenrodyellow" stroke="black" points="971,-481.46 971,-517.46 1297,-517.46 1297,-481.46 971,-481.46"/>
<text text-anchor="middle" x="1134" y="-495.76" font-family="Times,serif" font-size="14.00">get&#45;attr&#45;from&#45;tso500&#45;sample&#45;object v(1.0.0)</text>
</g>
<!-- get_sample_ids_from_tso500_sample_object&#45;&gt;get_sample_output_directory -->
<g id="edge7" class="edge">
<title>get_sample_ids_from_tso500_sample_object&#45;&gt;get_sample_output_directory</title>
<path fill="none" stroke="black" d="M1128.45,-481.45C1110.35,-426.02 1052.96,-250.27 1030.83,-182.49"/>
<polygon fill="black" stroke="black" points="1034.02,-180.99 1027.59,-172.57 1027.36,-183.16 1034.02,-180.99"/>
</g>
<!-- get_tso_manifest_bed_from_resources_dir -->
<g id="node8" class="node">
<title>get_tso_manifest_bed_from_resources_dir</title>
<polygon fill="lightgoldenrodyellow" stroke="black" points="106.5,-481.46 106.5,-517.46 339.5,-517.46 339.5,-481.46 106.5,-481.46"/>
<text text-anchor="middle" x="223" y="-495.76" font-family="Times,serif" font-size="14.00">get&#45;file&#45;from&#45;directory v(1.0.0)</text>
</g>
<!-- get_tso_manifest_bed_from_resources_dir&#45;&gt;run_tso_ctdna_post_processing_workflow_step -->
<g id="edge9" class="edge">
<title>get_tso_manifest_bed_from_resources_dir&#45;&gt;run_tso_ctdna_post_processing_workflow_step</title>
<path fill="none" stroke="black" d="M253.92,-481.26C277.21,-468.3 309.3,-450.45 334.46,-436.46"/>
<polygon fill="black" stroke="black" points="336.34,-439.41 343.38,-431.49 332.94,-433.3 336.34,-439.41"/>
</g>
<!-- resources_dir -->
<g id="node9" class="node">
<title>resources_dir</title>
<polygon fill="#94ddf4" stroke="black" points="16.5,-571.46 16.5,-607.46 129.5,-607.46 129.5,-571.46 16.5,-571.46"/>
<text text-anchor="middle" x="73" y="-585.76" font-family="Times,serif" font-size="14.00">resources_dir</text>
</g>
<!-- resources_dir&#45;&gt;run_tso_ctdna_workflow_step -->
<g id="edge11" class="edge">
<title>resources_dir&#45;&gt;run_tso_ctdna_workflow_step</title>
<path fill="none" stroke="black" d="M90.41,-571.37C102.85,-560.31 120.59,-546.75 139,-539.96 158.82,-532.65 415.74,-516.29 568.97,-507.08"/>
<polygon fill="black" stroke="black" points="569.59,-510.55 579.36,-506.46 569.17,-503.56 569.59,-510.55"/>
</g>
<!-- resources_dir&#45;&gt;get_tso_manifest_bed_from_resources_dir -->
<g id="edge10" class="edge">
<title>resources_dir&#45;&gt;get_tso_manifest_bed_from_resources_dir</title>
<path fill="none" stroke="black" d="M93.97,-571.42C106.6,-561.58 123.24,-549.34 139,-539.96 149.82,-533.52 161.86,-527.34 173.36,-521.85"/>
<polygon fill="black" stroke="black" points="174.87,-525.01 182.44,-517.6 171.9,-518.67 174.87,-525.01"/>
</g>
<!-- coerce_valid_index -->
<g id="node10" class="node">
<title>coerce_valid_index</title>
<polygon fill="#94ddf4" stroke="black" points="1069,-571.46 1069,-607.46 1219,-607.46 1219,-571.46 1069,-571.46"/>
<text text-anchor="middle" x="1144" y="-585.76" font-family="Times,serif" font-size="14.00">coerce_valid_index</text>
</g>
<!-- coerce_valid_index&#45;&gt;run_tso_ctdna_workflow_step -->
<g id="edge12" class="edge">
<title>coerce_valid_index&#45;&gt;run_tso_ctdna_workflow_step</title>
<path fill="none" stroke="black" d="M1120.65,-571.38C1104.46,-560.47 1081.94,-547.08 1060,-539.96 1012.31,-524.48 888.05,-513.46 794.92,-507.06"/>
<polygon fill="black" stroke="black" points="795.08,-503.56 784.87,-506.38 794.61,-510.55 795.08,-503.56"/>
</g>
<!-- dragen_license_key -->
<g id="node11" class="node">
<title>dragen_license_key</title>
<polygon fill="#94ddf4" stroke="black" points="895.5,-571.46 895.5,-607.46 1050.5,-607.46 1050.5,-571.46 895.5,-571.46"/>
<text text-anchor="middle" x="973" y="-585.76" font-family="Times,serif" font-size="14.00">dragen_license_key</text>
</g>
<!-- dragen_license_key&#45;&gt;run_tso_ctdna_workflow_step -->
<g id="edge13" class="edge">
<title>dragen_license_key&#45;&gt;run_tso_ctdna_workflow_step</title>
<path fill="none" stroke="black" d="M947.71,-571.31C931.11,-560.79 908.56,-547.88 887,-539.96 857.76,-529.22 825.04,-521.24 794.48,-515.38"/>
<polygon fill="black" stroke="black" points="795.12,-511.93 784.65,-513.55 793.84,-518.82 795.12,-511.93"/>
</g>
<!-- fastq_list_rows -->
<g id="node12" class="node">
<title>fastq_list_rows</title>
<polygon fill="#94ddf4" stroke="black" points="754.5,-571.46 754.5,-607.46 877.5,-607.46 877.5,-571.46 754.5,-571.46"/>
<text text-anchor="middle" x="816" y="-585.76" font-family="Times,serif" font-size="14.00">fastq_list_rows</text>
</g>
<!-- fastq_list_rows&#45;&gt;run_tso_ctdna_workflow_step -->
<g id="edge14" class="edge">
<title>fastq_list_rows&#45;&gt;run_tso_ctdna_workflow_step</title>
<path fill="none" stroke="black" d="M791.52,-571.39C777.91,-561.98 760.61,-550.18 745,-539.96 736.41,-534.34 727.08,-528.4 718.3,-522.88"/>
<polygon fill="black" stroke="black" points="720.08,-519.87 709.75,-517.53 716.37,-525.8 720.08,-519.87"/>
</g>
<!-- run_info_xml -->
<g id="node13" class="node">
<title>run_info_xml</title>
<polygon fill="#94ddf4" stroke="black" points="628,-571.46 628,-607.46 736,-607.46 736,-571.46 628,-571.46"/>
<text text-anchor="middle" x="682" y="-585.76" font-family="Times,serif" font-size="14.00">run_info_xml</text>
</g>
<!-- run_info_xml&#45;&gt;run_tso_ctdna_workflow_step -->
<g id="edge15" class="edge">
<title>run_info_xml&#45;&gt;run_tso_ctdna_workflow_step</title>
<path fill="none" stroke="black" d="M682,-571.07C682,-558.7 682,-541.83 682,-527.68"/>
<polygon fill="black" stroke="black" points="685.5,-527.51 682,-517.51 678.5,-527.51 685.5,-527.51"/>
</g>
<!-- run_parameters_xml -->
<g id="node14" class="node">
<title>run_parameters_xml</title>
<polygon fill="#94ddf4" stroke="black" points="446,-571.46 446,-607.46 610,-607.46 610,-571.46 446,-571.46"/>
<text text-anchor="middle" x="528" y="-585.76" font-family="Times,serif" font-size="14.00">run_parameters_xml</text>
</g>
<!-- run_parameters_xml&#45;&gt;run_tso_ctdna_workflow_step -->
<g id="edge16" class="edge">
<title>run_parameters_xml&#45;&gt;run_tso_ctdna_workflow_step</title>
<path fill="none" stroke="black" d="M558.06,-571.28C582.33,-557.41 616.67,-537.79 643.05,-522.72"/>
<polygon fill="black" stroke="black" points="645.07,-525.59 652.02,-517.59 641.6,-519.51 645.07,-525.59"/>
</g>
<!-- samplesheet -->
<g id="node15" class="node">
<title>samplesheet</title>
<polygon fill="#94ddf4" stroke="black" points="320.5,-571.46 320.5,-607.46 427.5,-607.46 427.5,-571.46 320.5,-571.46"/>
<text text-anchor="middle" x="374" y="-585.76" font-family="Times,serif" font-size="14.00">samplesheet</text>
</g>
<!-- samplesheet&#45;&gt;run_tso_ctdna_workflow_step -->
<g id="edge17" class="edge">
<title>samplesheet&#45;&gt;run_tso_ctdna_workflow_step</title>
<path fill="none" stroke="black" d="M391.19,-571.39C403.07,-560.63 419.77,-547.41 437,-539.96 478.19,-522.16 526.42,-512.3 569.14,-506.87"/>
<polygon fill="black" stroke="black" points="569.79,-510.32 579.3,-505.65 568.95,-503.37 569.79,-510.32"/>
</g>
<!-- samplesheet_prefix -->
<g id="node16" class="node">
<title>samplesheet_prefix</title>
<polygon fill="#94ddf4" stroke="black" points="147.5,-571.46 147.5,-607.46 302.5,-607.46 302.5,-571.46 147.5,-571.46"/>
<text text-anchor="middle" x="225" y="-585.76" font-family="Times,serif" font-size="14.00">samplesheet_prefix</text>
</g>
<!-- samplesheet_prefix&#45;&gt;run_tso_ctdna_workflow_step -->
<g id="edge18" class="edge">
<title>samplesheet_prefix&#45;&gt;run_tso_ctdna_workflow_step</title>
<path fill="none" stroke="black" d="M249.28,-571.41C266.09,-560.51 289.42,-547.13 312,-539.96 395.5,-513.44 494.38,-503.94 568.9,-500.86"/>
<polygon fill="black" stroke="black" points="569.38,-504.34 579.24,-500.47 569.12,-497.35 569.38,-504.34"/>
</g>
<!-- tso500_samples -->
<g id="node17" class="node">
<title>tso500_samples</title>
<polygon fill="#94ddf4" stroke="black" points="1237.5,-571.46 1237.5,-607.46 1368.5,-607.46 1368.5,-571.46 1237.5,-571.46"/>
<text text-anchor="middle" x="1303" y="-585.76" font-family="Times,serif" font-size="14.00">tso500_samples</text>
</g>
<!-- tso500_samples&#45;&gt;run_tso_ctdna_workflow_step -->
<g id="edge19" class="edge">
<title>tso500_samples&#45;&gt;run_tso_ctdna_workflow_step</title>
<path fill="none" stroke="black" d="M1282.82,-571.38C1268.5,-560.32 1248.29,-546.75 1228,-539.96 1217.86,-536.56 951.91,-518.41 794.99,-507.93"/>
<polygon fill="black" stroke="black" points="795.03,-504.42 784.81,-507.25 794.56,-511.41 795.03,-504.42"/>
</g>
<!-- tso500_samples&#45;&gt;get_sample_ids_from_tso500_sample_object -->
<g id="edge20" class="edge">
<title>tso500_samples&#45;&gt;get_sample_ids_from_tso500_sample_object</title>
<path fill="none" stroke="black" d="M1279,-571.39C1264.59,-561.54 1245.69,-549.3 1228,-539.96 1215.53,-533.37 1201.72,-527.06 1188.61,-521.49"/>
<polygon fill="black" stroke="black" points="1189.79,-518.19 1179.21,-517.57 1187.1,-524.65 1189.79,-518.19"/>
</g>
</g>
</svg>
