<?xml version="1.0" encoding="UTF-8" standalone="no"?>
<!DOCTYPE svg PUBLIC "-//W3C//DTD SVG 1.1//EN"
 "http://www.w3.org/Graphics/SVG/1.1/DTD/svg11.dtd">
<!-- Generated by graphviz version 2.43.0 (0)
 -->
<!-- Title: G Pages: 1 -->
<svg width="706pt" height="511pt"
 viewBox="0.00 0.00 706.00 511.26" xmlns="http://www.w3.org/2000/svg" xmlns:xlink="http://www.w3.org/1999/xlink">
<g id="graph0" class="graph" transform="scale(1 1) rotate(0) translate(4 507.26)">
<title>G</title>
<polygon fill="#eeeeee" stroke="transparent" points="-4,4 -4,-507.26 702,-507.26 702,4 -4,4"/>
<g id="clust1" class="cluster">
<title>cluster_inputs</title>
<polygon fill="#eeeeee" stroke="black" stroke-dasharray="5,2" points="8,-368.74 8,-490.6 634,-490.6 634,-368.74 8,-368.74"/>
<text text-anchor="middle" x="567.5" y="-376.54" font-family="Times,serif" font-size="14.00">Workflow Inputs</text>
</g>
<g id="clust2" class="cluster">
<title>cluster_outputs</title>
<polygon fill="#eeeeee" stroke="black" stroke-dasharray="5,2" points="111,-12.66 111,-134.52 626,-134.52 626,-12.66 111,-12.66"/>
<text text-anchor="middle" x="553.5" y="-20.46" font-family="Times,serif" font-size="14.00">Workflow Outputs</text>
</g>
<!-- interop_directory -->
<g id="node1" class="node">
<title>interop_directory</title>
<polygon fill="#94ddf4" stroke="black" points="172,-429.16 172,-466.16 312,-466.16 312,-429.16 172,-429.16"/>
<text text-anchor="middle" x="242" y="-443.96" font-family="Times,serif" font-size="14.00">interop_directory</text>
</g>
<!-- generate_interop_qc_step -->
<g id="node8" class="node">
<title>generate_interop_qc_step</title>
<polygon fill="lightgoldenrodyellow" stroke="black" points="140,-307.16 140,-344.16 330,-344.16 330,-307.16 140,-307.16"/>
<text text-anchor="middle" x="235" y="-321.96" font-family="Times,serif" font-size="14.00">illumina&#45;interop v(1.3.1)</text>
</g>
<!-- interop_directory&#45;&gt;generate_interop_qc_step -->
<g id="edge5" class="edge">
<title>interop_directory&#45;&gt;generate_interop_qc_step</title>
<path fill="none" stroke="black" d="M240.97,-428.95C239.82,-409.37 237.97,-377.55 236.63,-354.59"/>
<polygon fill="black" stroke="black" points="240.11,-354.22 236.04,-344.44 233.13,-354.63 240.11,-354.22"/>
</g>
<!-- run_id -->
<g id="node2" class="node">
<title>run_id</title>
<polygon fill="#94ddf4" stroke="black" points="330,-429.16 330,-466.16 392,-466.16 392,-429.16 330,-429.16"/>
<text text-anchor="middle" x="361" y="-443.96" font-family="Times,serif" font-size="14.00">run_id</text>
</g>
<!-- run_id&#45;&gt;generate_interop_qc_step -->
<g id="edge6" class="edge">
<title>run_id&#45;&gt;generate_interop_qc_step</title>
<path fill="none" stroke="black" d="M347.72,-428.71C340.29,-419.11 330.6,-407.32 321,-397.66 304.1,-380.67 283.45,-363.52 266.61,-350.33"/>
<polygon fill="black" stroke="black" points="268.74,-347.55 258.69,-344.19 264.45,-353.08 268.74,-347.55"/>
</g>
<!-- run_multiqc_step -->
<g id="node9" class="node">
<title>run_multiqc_step</title>
<polygon fill="lightgoldenrodyellow" stroke="black" points="297.5,-190.16 297.5,-227.16 436.5,-227.16 436.5,-190.16 297.5,-190.16"/>
<text text-anchor="middle" x="367" y="-204.96" font-family="Times,serif" font-size="14.00">multiqc v(1.15.0)</text>
</g>
<!-- run_id&#45;&gt;run_multiqc_step -->
<g id="edge7" class="edge">
<title>run_id&#45;&gt;run_multiqc_step</title>
<path fill="none" stroke="black" d="M357.68,-428.85C355.02,-387.91 357.32,-286.89 361.75,-237.6"/>
<polygon fill="black" stroke="black" points="365.26,-237.66 362.79,-227.36 358.3,-236.95 365.26,-237.66"/>
</g>
<!-- run_id&#45;&gt;run_multiqc_step -->
<g id="edge8" class="edge">
<title>run_id&#45;&gt;run_multiqc_step</title>
<path fill="none" stroke="black" d="M365.22,-428.85C369.95,-387.91 372.77,-286.89 370.84,-237.6"/>
<polygon fill="black" stroke="black" points="374.32,-237.17 370.31,-227.36 367.33,-237.52 374.32,-237.17"/>
</g>
<!-- run_info_xml_file -->
<g id="node3" class="node">
<title>run_info_xml_file</title>
<polygon fill="#94ddf4" stroke="black" points="16.5,-429.16 16.5,-466.16 153.5,-466.16 153.5,-429.16 16.5,-429.16"/>
<text text-anchor="middle" x="85" y="-443.96" font-family="Times,serif" font-size="14.00">run_info_xml_file</text>
</g>
<!-- run_info_xml_file&#45;&gt;generate_interop_qc_step -->
<g id="edge9" class="edge">
<title>run_info_xml_file&#45;&gt;generate_interop_qc_step</title>
<path fill="none" stroke="black" d="M107.13,-428.95C132.95,-408.3 175.76,-374.06 204.65,-350.94"/>
<polygon fill="black" stroke="black" points="207.15,-353.42 212.78,-344.44 202.78,-347.95 207.15,-353.42"/>
</g>
<!-- bclconvert_report_directory -->
<g id="node4" class="node">
<title>bclconvert_report_directory</title>
<polygon fill="#94ddf4" stroke="black" points="410.5,-429.16 410.5,-466.16 625.5,-466.16 625.5,-429.16 410.5,-429.16"/>
<text text-anchor="middle" x="518" y="-443.96" font-family="Times,serif" font-size="14.00">bclconvert_report_directory</text>
</g>
<!-- bclconvert_report_directory&#45;&gt;run_multiqc_step -->
<g id="edge10" class="edge">
<title>bclconvert_report_directory&#45;&gt;run_multiqc_step</title>
<path fill="none" stroke="black" d="M506.65,-428.85C480.3,-387.48 414.85,-284.76 383.82,-236.07"/>
<polygon fill="black" stroke="black" points="386.6,-233.91 378.28,-227.36 380.7,-237.67 386.6,-233.91"/>
</g>
<!-- interop_output_dir -->
<g id="node5" class="node">
<title>interop_output_dir</title>
<polygon fill="#94ddf4" stroke="black" points="118.5,-73.16 118.5,-110.16 267.5,-110.16 267.5,-73.16 118.5,-73.16"/>
<text text-anchor="middle" x="193" y="-87.96" font-family="Times,serif" font-size="14.00">interop_output_dir</text>
</g>
<!-- multiqc_html_report -->
<g id="node6" class="node">
<title>multiqc_html_report</title>
<polygon fill="#94ddf4" stroke="black" points="286,-73.16 286,-110.16 448,-110.16 448,-73.16 286,-73.16"/>
<text text-anchor="middle" x="367" y="-87.96" font-family="Times,serif" font-size="14.00">multiqc_html_report</text>
</g>
<!-- multiqc_output_dir -->
<g id="node7" class="node">
<title>multiqc_output_dir</title>
<polygon fill="#94ddf4" stroke="black" points="466,-73.16 466,-110.16 618,-110.16 618,-73.16 466,-73.16"/>
<text text-anchor="middle" x="542" y="-87.96" font-family="Times,serif" font-size="14.00">multiqc_output_dir</text>
</g>
<!-- generate_interop_qc_step&#45;&gt;interop_output_dir -->
<g id="edge2" class="edge">
<title>generate_interop_qc_step&#45;&gt;interop_output_dir</title>
<path fill="none" stroke="black" d="M231.77,-306.84C224.49,-266.59 206.72,-168.43 197.99,-120.25"/>
<polygon fill="black" stroke="black" points="201.4,-119.44 196.18,-110.22 194.52,-120.69 201.4,-119.44"/>
</g>
<!-- generate_interop_qc_step&#45;&gt;run_multiqc_step -->
<g id="edge1" class="edge">
<title>generate_interop_qc_step&#45;&gt;run_multiqc_step</title>
<path fill="none" stroke="black" d="M255.34,-306.94C277.78,-287.39 314.06,-255.79 339.14,-233.93"/>
<polygon fill="black" stroke="black" points="341.62,-236.42 346.86,-227.21 337.02,-231.14 341.62,-236.42"/>
</g>
<!-- run_multiqc_step&#45;&gt;multiqc_html_report -->
<g id="edge3" class="edge">
<title>run_multiqc_step&#45;&gt;multiqc_html_report</title>
<path fill="none" stroke="black" d="M367,-189.69C367,-171.21 367,-142.17 367,-120.67"/>
<polygon fill="black" stroke="black" points="370.5,-120.5 367,-110.5 363.5,-120.5 370.5,-120.5"/>
</g>
<!-- run_multiqc_step&#45;&gt;multiqc_output_dir -->
<g id="edge4" class="edge">
<title>run_multiqc_step&#45;&gt;multiqc_output_dir</title>
<path fill="none" stroke="black" d="M393.96,-189.94C424.24,-170.05 473.48,-137.69 506.78,-115.81"/>
<polygon fill="black" stroke="black" points="508.86,-118.63 515.3,-110.21 505.02,-112.78 508.86,-118.63"/>
</g>
<!-- \n -->
<g id="node10" class="node">
<title>\n</title>
<ellipse fill="none" stroke="black" cx="671" cy="-447.66" rx="27" ry="18"/>
</g>
</g>
</svg>
