<?xml version="1.0" encoding="UTF-8" standalone="no"?>
<!DOCTYPE svg PUBLIC "-//W3C//DTD SVG 1.1//EN"
 "http://www.w3.org/Graphics/SVG/1.1/DTD/svg11.dtd">
<!-- Generated by graphviz version 2.43.0 (0)
 -->
<!-- Title: G Pages: 1 -->
<svg width="1828pt" height="740pt"
 viewBox="0.00 0.00 1828.00 739.64" xmlns="http://www.w3.org/2000/svg" xmlns:xlink="http://www.w3.org/1999/xlink">
<g id="graph0" class="graph" transform="scale(1 1) rotate(0) translate(4 735.64)">
<title>G</title>
<polygon fill="#eeeeee" stroke="transparent" points="-4,4 -4,-735.64 1824,-735.64 1824,4 -4,4"/>
<g id="clust1" class="cluster">
<title>cluster_inputs</title>
<polygon fill="#eeeeee" stroke="black" stroke-dasharray="5,2" points="8,-474.66 8,-707.45 1756,-707.45 1756,-474.66 8,-474.66"/>
<text text-anchor="middle" x="1689.5" y="-482.46" font-family="Times,serif" font-size="14.00">Workflow Inputs</text>
</g>
<g id="clust2" class="cluster">
<title>cluster_outputs</title>
<polygon fill="#eeeeee" stroke="black" stroke-dasharray="5,2" points="738,-24.19 738,-256.98 890,-256.98 890,-24.19 738,-24.19"/>
<text text-anchor="middle" x="817.5" y="-31.99" font-family="Times,serif" font-size="14.00">Workflow Outputs</text>
</g>
<!-- debug -->
<g id="node1" class="node">
<title>debug</title>
<polygon fill="#94ddf4" stroke="black" points="1686.5,-607.69 1686.5,-644.69 1747.5,-644.69 1747.5,-607.69 1686.5,-607.69"/>
<text text-anchor="middle" x="1717" y="-622.49" font-family="Times,serif" font-size="14.00">debug</text>
</g>
<!-- run_umccrise_step -->
<g id="node14" class="node">
<title>run_umccrise_step</title>
<ellipse fill="none" stroke="black" cx="814" cy="-396.19" rx="97.5" ry="18"/>
<text text-anchor="middle" x="814" y="-392.49" font-family="Times,serif" font-size="14.00">run_umccrise_step</text>
</g>
<!-- debug&#45;&gt;run_umccrise_step -->
<g id="edge1" class="edge">
<title>debug&#45;&gt;run_umccrise_step</title>
<path fill="none" stroke="black" d="M1707.33,-607.61C1700.51,-596.89 1690.41,-583.82 1678,-576.19 1548.05,-496.26 1097.26,-432.34 903.57,-407.91"/>
<polygon fill="black" stroke="black" points="903.79,-404.41 893.43,-406.64 902.91,-411.36 903.79,-404.41"/>
</g>
<!-- dragen_germline_directory -->
<g id="node2" class="node">
<title>dragen_germline_directory</title>
<polygon fill="#94ddf4" stroke="black" points="1459.5,-607.69 1459.5,-644.69 1668.5,-644.69 1668.5,-607.69 1459.5,-607.69"/>
<text text-anchor="middle" x="1564" y="-622.49" font-family="Times,serif" font-size="14.00">dragen_germline_directory</text>
</g>
<!-- dragen_germline_directory&#45;&gt;run_umccrise_step -->
<g id="edge2" class="edge">
<title>dragen_germline_directory&#45;&gt;run_umccrise_step</title>
<path fill="none" stroke="black" d="M1526.5,-607.59C1504.49,-597.64 1475.99,-585.39 1450,-576.19 1246.69,-504.23 998.95,-441.42 881.71,-413.13"/>
<polygon fill="black" stroke="black" points="882.34,-409.68 871.8,-410.74 880.7,-416.48 882.34,-409.68"/>
</g>
<!-- dragen_normal_id -->
<g id="node3" class="node">
<title>dragen_normal_id</title>
<polygon fill="#94ddf4" stroke="black" points="1297,-607.69 1297,-644.69 1441,-644.69 1441,-607.69 1297,-607.69"/>
<text text-anchor="middle" x="1369" y="-622.49" font-family="Times,serif" font-size="14.00">dragen_normal_id</text>
</g>
<!-- dragen_normal_id&#45;&gt;run_umccrise_step -->
<g id="edge3" class="edge">
<title>dragen_normal_id&#45;&gt;run_umccrise_step</title>
<path fill="none" stroke="black" d="M1342.69,-607.59C1327.17,-597.64 1306.92,-585.39 1288,-576.19 1142.6,-505.49 961.64,-444.04 871.14,-415"/>
<polygon fill="black" stroke="black" points="872.21,-411.66 861.61,-411.95 870.07,-418.33 872.21,-411.66"/>
</g>
<!-- dragen_somatic_directory -->
<g id="node4" class="node">
<title>dragen_somatic_directory</title>
<polygon fill="#94ddf4" stroke="black" points="1077.5,-607.69 1077.5,-644.69 1278.5,-644.69 1278.5,-607.69 1077.5,-607.69"/>
<text text-anchor="middle" x="1178" y="-622.49" font-family="Times,serif" font-size="14.00">dragen_somatic_directory</text>
</g>
<!-- dragen_somatic_directory&#45;&gt;run_umccrise_step -->
<g id="edge4" class="edge">
<title>dragen_somatic_directory&#45;&gt;run_umccrise_step</title>
<path fill="none" stroke="black" d="M1150.04,-607.67C1084.59,-566.67 921.49,-464.52 849.32,-419.31"/>
<polygon fill="black" stroke="black" points="850.9,-416.17 840.57,-413.83 847.19,-422.1 850.9,-416.17"/>
</g>
<!-- dragen_tumor_id -->
<g id="node5" class="node">
<title>dragen_tumor_id</title>
<polygon fill="#94ddf4" stroke="black" points="922.5,-607.69 922.5,-644.69 1059.5,-644.69 1059.5,-607.69 922.5,-607.69"/>
<text text-anchor="middle" x="991" y="-622.49" font-family="Times,serif" font-size="14.00">dragen_tumor_id</text>
</g>
<!-- dragen_tumor_id&#45;&gt;run_umccrise_step -->
<g id="edge5" class="edge">
<title>dragen_tumor_id&#45;&gt;run_umccrise_step</title>
<path fill="none" stroke="black" d="M977.41,-607.67C946.24,-567.52 869.54,-468.72 833.41,-422.19"/>
<polygon fill="black" stroke="black" points="836.06,-419.89 827.16,-414.14 830.53,-424.18 836.06,-419.89"/>
</g>
<!-- dry_run -->
<g id="node6" class="node">
<title>dry_run</title>
<polygon fill="#94ddf4" stroke="black" points="832,-607.69 832,-644.69 904,-644.69 904,-607.69 832,-607.69"/>
<text text-anchor="middle" x="868" y="-622.49" font-family="Times,serif" font-size="14.00">dry_run</text>
</g>
<!-- dry_run&#45;&gt;run_umccrise_step -->
<g id="edge6" class="edge">
<title>dry_run&#45;&gt;run_umccrise_step</title>
<path fill="none" stroke="black" d="M863.85,-607.67C854.48,-568.12 831.64,-471.65 820.42,-424.3"/>
<polygon fill="black" stroke="black" points="823.8,-423.37 818.09,-414.45 816.99,-424.98 823.8,-423.37"/>
</g>
<!-- genomes_tar -->
<g id="node7" class="node">
<title>genomes_tar</title>
<polygon fill="#94ddf4" stroke="black" points="706,-607.69 706,-644.69 814,-644.69 814,-607.69 706,-607.69"/>
<text text-anchor="middle" x="760" y="-622.49" font-family="Times,serif" font-size="14.00">genomes_tar</text>
</g>
<!-- genomes_tar&#45;&gt;run_umccrise_step -->
<g id="edge7" class="edge">
<title>genomes_tar&#45;&gt;run_umccrise_step</title>
<path fill="none" stroke="black" d="M764.15,-607.67C773.52,-568.12 796.36,-471.65 807.58,-424.3"/>
<polygon fill="black" stroke="black" points="811.01,-424.98 809.91,-414.45 804.2,-423.37 811.01,-424.98"/>
</g>
<!-- include_stage -->
<g id="node8" class="node">
<title>include_stage</title>
<polygon fill="#94ddf4" stroke="black" points="574,-607.69 574,-644.69 688,-644.69 688,-607.69 574,-607.69"/>
<text text-anchor="middle" x="631" y="-622.49" font-family="Times,serif" font-size="14.00">include_stage</text>
</g>
<!-- include_stage&#45;&gt;run_umccrise_step -->
<g id="edge8" class="edge">
<title>include_stage&#45;&gt;run_umccrise_step</title>
<path fill="none" stroke="black" d="M645.06,-607.67C677.28,-567.52 756.58,-468.72 793.93,-422.19"/>
<polygon fill="black" stroke="black" points="796.87,-424.13 800.4,-414.14 791.41,-419.74 796.87,-424.13"/>
</g>
<!-- output_directory_name -->
<g id="node9" class="node">
<title>output_directory_name</title>
<polygon fill="#94ddf4" stroke="black" points="374,-607.69 374,-644.69 556,-644.69 556,-607.69 374,-607.69"/>
<text text-anchor="middle" x="465" y="-622.49" font-family="Times,serif" font-size="14.00">output_directory_name</text>
</g>
<!-- output_directory_name&#45;&gt;run_umccrise_step -->
<g id="edge9" class="edge">
<title>output_directory_name&#45;&gt;run_umccrise_step</title>
<path fill="none" stroke="black" d="M491.81,-607.67C554.56,-566.67 710.94,-464.52 780.14,-419.31"/>
<polygon fill="black" stroke="black" points="782.07,-422.23 788.52,-413.83 778.24,-416.37 782.07,-422.23"/>
</g>
<!-- skip_stage -->
<g id="node10" class="node">
<title>skip_stage</title>
<polygon fill="#94ddf4" stroke="black" points="264,-607.69 264,-644.69 356,-644.69 356,-607.69 264,-607.69"/>
<text text-anchor="middle" x="310" y="-622.49" font-family="Times,serif" font-size="14.00">skip_stage</text>
</g>
<!-- skip_stage&#45;&gt;run_umccrise_step -->
<g id="edge10" class="edge">
<title>skip_stage&#45;&gt;run_umccrise_step</title>
<path fill="none" stroke="black" d="M326.58,-607.61C336.9,-597.43 350.86,-584.93 365,-576.19 493.15,-496.99 662.37,-440.84 752.04,-414.36"/>
<polygon fill="black" stroke="black" points="753.16,-417.68 761.78,-411.51 751.2,-410.96 753.16,-417.68"/>
</g>
<!-- subject_identifier -->
<g id="node11" class="node">
<title>subject_identifier</title>
<polygon fill="#94ddf4" stroke="black" points="106,-607.69 106,-644.69 246,-644.69 246,-607.69 106,-607.69"/>
<text text-anchor="middle" x="176" y="-622.49" font-family="Times,serif" font-size="14.00">subject_identifier</text>
</g>
<!-- subject_identifier&#45;&gt;run_umccrise_step -->
<g id="edge11" class="edge">
<title>subject_identifier&#45;&gt;run_umccrise_step</title>
<path fill="none" stroke="black" d="M200.73,-607.65C215.88,-597.48 235.95,-584.98 255,-576.19 425.01,-497.69 638.98,-439.65 746.2,-413.15"/>
<polygon fill="black" stroke="black" points="747.05,-416.55 755.93,-410.76 745.38,-409.75 747.05,-416.55"/>
</g>
<!-- threads -->
<g id="node12" class="node">
<title>threads</title>
<polygon fill="#94ddf4" stroke="black" points="16.5,-607.69 16.5,-644.69 87.5,-644.69 87.5,-607.69 16.5,-607.69"/>
<text text-anchor="middle" x="52" y="-622.49" font-family="Times,serif" font-size="14.00">threads</text>
</g>
<!-- threads&#45;&gt;run_umccrise_step -->
<g id="edge12" class="edge">
<title>threads&#45;&gt;run_umccrise_step</title>
<path fill="none" stroke="black" d="M64.22,-607.32C72.34,-596.76 83.89,-583.98 97,-576.19 295.17,-458.39 568.39,-417.77 713.67,-404.02"/>
<polygon fill="black" stroke="black" points="714.28,-407.48 723.91,-403.08 713.63,-400.51 714.28,-407.48"/>
</g>
<!-- output_directory -->
<g id="node13" class="node">
<title>output_directory</title>
<polygon fill="#94ddf4" stroke="black" points="746,-156.69 746,-193.69 882,-193.69 882,-156.69 746,-156.69"/>
<text text-anchor="middle" x="814" y="-171.49" font-family="Times,serif" font-size="14.00">output_directory</text>
</g>
<!-- run_umccrise_step&#45;&gt;output_directory -->
<g id="edge13" class="edge">
<title>run_umccrise_step&#45;&gt;output_directory</title>
<path fill="none" stroke="black" d="M814,-378C814,-340.29 814,-249.98 814,-204.04"/>
<polygon fill="black" stroke="black" points="817.5,-203.9 814,-193.9 810.5,-203.9 817.5,-203.9"/>
</g>
<!-- \n -->
<g id="node15" class="node">
<title>\n</title>
<ellipse fill="none" stroke="black" cx="1793" cy="-626.19" rx="27" ry="18"/>
</g>
</g>
</svg>
