<?xml version="1.0" encoding="UTF-8" standalone="no"?>
<!DOCTYPE svg PUBLIC "-//W3C//DTD SVG 1.1//EN"
 "http://www.w3.org/Graphics/SVG/1.1/DTD/svg11.dtd">
<!-- Generated by graphviz version 2.43.0 (0)
 -->
<!-- Title: G Pages: 1 -->
<svg width="3806pt" height="1125pt"
 viewBox="0.00 0.00 3806.00 1124.61" xmlns="http://www.w3.org/2000/svg" xmlns:xlink="http://www.w3.org/1999/xlink">
<g id="graph0" class="graph" transform="scale(1 1) rotate(0) translate(4 1120.61)">
<title>G</title>
<polygon fill="#eeeeee" stroke="transparent" points="-4,4 -4,-1120.61 3802,-1120.61 3802,4 -4,4"/>
<g id="clust1" class="cluster">
<title>cluster_inputs</title>
<polygon fill="#eeeeee" stroke="black" stroke-dasharray="5,2" points="8,-724.41 8,-1079.7 3734,-1079.7 3734,-724.41 8,-724.41"/>
<text text-anchor="middle" x="3667.5" y="-732.21" font-family="Times,serif" font-size="14.00">Workflow Inputs</text>
</g>
<g id="clust2" class="cluster">
<title>cluster_outputs</title>
<polygon fill="#eeeeee" stroke="black" stroke-dasharray="5,2" points="1592,-36.91 1592,-392.2 1934,-392.2 1934,-36.91 1592,-36.91"/>
<text text-anchor="middle" x="1861.5" y="-44.71" font-family="Times,serif" font-size="14.00">Workflow Outputs</text>
</g>
<!-- arriba_directory -->
<g id="node1" class="node">
<title>arriba_directory</title>
<polygon fill="#94ddf4" stroke="black" points="3594,-936.41 3594,-973.41 3726,-973.41 3726,-936.41 3594,-936.41"/>
<text text-anchor="middle" x="3660" y="-951.21" font-family="Times,serif" font-size="14.00">arriba_directory</text>
</g>
<!-- run_rnasum_step -->
<g id="node33" class="node">
<title>run_rnasum_step</title>
<ellipse fill="none" stroke="black" cx="1785" cy="-604.91" rx="91" ry="18"/>
<text text-anchor="middle" x="1785" y="-601.21" font-family="Times,serif" font-size="14.00">run_rnasum_step</text>
</g>
<!-- arriba_directory&#45;&gt;run_rnasum_step -->
<g id="edge1" class="edge">
<title>arriba_directory&#45;&gt;run_rnasum_step</title>
<path fill="none" stroke="black" d="M3638.37,-936.29C3624.06,-925.55 3604.42,-912.48 3585,-904.91 2970.19,-665.28 2164.17,-617.65 1885.15,-608.23"/>
<polygon fill="black" stroke="black" points="1885.16,-604.73 1875.05,-607.89 1884.93,-611.72 1885.16,-604.73"/>
</g>
<!-- batch_rm -->
<g id="node2" class="node">
<title>batch_rm</title>
<polygon fill="#94ddf4" stroke="black" points="3492.5,-936.41 3492.5,-973.41 3575.5,-973.41 3575.5,-936.41 3492.5,-936.41"/>
<text text-anchor="middle" x="3534" y="-951.21" font-family="Times,serif" font-size="14.00">batch_rm</text>
</g>
<!-- batch_rm&#45;&gt;run_rnasum_step -->
<g id="edge2" class="edge">
<title>batch_rm&#45;&gt;run_rnasum_step</title>
<path fill="none" stroke="black" d="M3520.63,-936.21C3511.51,-925.43 3498.49,-912.36 3484,-904.91 3196.17,-756.98 2183.54,-645.73 1874.94,-614.65"/>
<polygon fill="black" stroke="black" points="1875,-611.14 1864.7,-613.63 1874.3,-618.11 1875,-611.14"/>
</g>
<!-- bcbio_transcriptome_directory -->
<g id="node3" class="node">
<title>bcbio_transcriptome_directory</title>
<polygon fill="#94ddf4" stroke="black" points="3239.5,-936.41 3239.5,-973.41 3474.5,-973.41 3474.5,-936.41 3239.5,-936.41"/>
<text text-anchor="middle" x="3357" y="-951.21" font-family="Times,serif" font-size="14.00">bcbio_transcriptome_directory</text>
</g>
<!-- bcbio_transcriptome_directory&#45;&gt;run_rnasum_step -->
<g id="edge3" class="edge">
<title>bcbio_transcriptome_directory&#45;&gt;run_rnasum_step</title>
<path fill="none" stroke="black" d="M3317.02,-936.39C3292.54,-926.16 3260.37,-913.59 3231,-904.91 2720.74,-754.09 2087.35,-651.28 1865.92,-617.78"/>
<polygon fill="black" stroke="black" points="1866.41,-614.31 1856,-616.28 1865.37,-621.23 1866.41,-614.31"/>
</g>
<!-- clinical_id -->
<g id="node4" class="node">
<title>clinical_id</title>
<polygon fill="#94ddf4" stroke="black" points="3134.5,-936.41 3134.5,-973.41 3221.5,-973.41 3221.5,-936.41 3134.5,-936.41"/>
<text text-anchor="middle" x="3178" y="-951.21" font-family="Times,serif" font-size="14.00">clinical_id</text>
</g>
<!-- clinical_id&#45;&gt;run_rnasum_step -->
<g id="edge4" class="edge">
<title>clinical_id&#45;&gt;run_rnasum_step</title>
<path fill="none" stroke="black" d="M3163.4,-935.96C3153.84,-925.37 3140.47,-912.58 3126,-904.91 2701.09,-679.61 2113.65,-623.73 1883.28,-610.16"/>
<polygon fill="black" stroke="black" points="1883.43,-606.66 1873.24,-609.58 1883.03,-613.65 1883.43,-606.66"/>
</g>
<!-- clinical_info -->
<g id="node5" class="node">
<title>clinical_info</title>
<polygon fill="#94ddf4" stroke="black" points="3015.5,-936.41 3015.5,-973.41 3116.5,-973.41 3116.5,-936.41 3015.5,-936.41"/>
<text text-anchor="middle" x="3066" y="-951.21" font-family="Times,serif" font-size="14.00">clinical_info</text>
</g>
<!-- clinical_info&#45;&gt;run_rnasum_step -->
<g id="edge5" class="edge">
<title>clinical_info&#45;&gt;run_rnasum_step</title>
<path fill="none" stroke="black" d="M3048.93,-936.12C3037.89,-925.6 3022.7,-912.82 3007,-904.91 2615.23,-707.62 2086.06,-635.86 1876.2,-614.1"/>
<polygon fill="black" stroke="black" points="1876.45,-610.6 1866.15,-613.07 1875.74,-617.57 1876.45,-610.6"/>
</g>
<!-- cn_gain -->
<g id="node6" class="node">
<title>cn_gain</title>
<polygon fill="#94ddf4" stroke="black" points="2926.5,-936.41 2926.5,-973.41 2997.5,-973.41 2997.5,-936.41 2926.5,-936.41"/>
<text text-anchor="middle" x="2962" y="-951.21" font-family="Times,serif" font-size="14.00">cn_gain</text>
</g>
<!-- cn_gain&#45;&gt;run_rnasum_step -->
<g id="edge6" class="edge">
<title>cn_gain&#45;&gt;run_rnasum_step</title>
<path fill="none" stroke="black" d="M2949.74,-936.11C2941.61,-925.57 2930.05,-912.79 2917,-904.91 2571.95,-696.63 2082.33,-631.62 1879.07,-612.89"/>
<polygon fill="black" stroke="black" points="1879.3,-609.4 1869.03,-611.99 1878.67,-616.37 1879.3,-609.4"/>
</g>
<!-- cn_loss -->
<g id="node7" class="node">
<title>cn_loss</title>
<polygon fill="#94ddf4" stroke="black" points="2840,-936.41 2840,-973.41 2908,-973.41 2908,-936.41 2840,-936.41"/>
<text text-anchor="middle" x="2874" y="-951.21" font-family="Times,serif" font-size="14.00">cn_loss</text>
</g>
<!-- cn_loss&#45;&gt;run_rnasum_step -->
<g id="edge7" class="edge">
<title>cn_loss&#45;&gt;run_rnasum_step</title>
<path fill="none" stroke="black" d="M2862.39,-936.19C2854.66,-925.68 2843.62,-912.91 2831,-904.91 2516.49,-705.76 2066.23,-636.03 1875.69,-614.49"/>
<polygon fill="black" stroke="black" points="1876.04,-611 1865.71,-613.38 1875.27,-617.96 1876.04,-611"/>
</g>
<!-- dataset -->
<g id="node8" class="node">
<title>dataset</title>
<polygon fill="#94ddf4" stroke="black" points="2752,-936.41 2752,-973.41 2822,-973.41 2822,-936.41 2752,-936.41"/>
<text text-anchor="middle" x="2787" y="-951.21" font-family="Times,serif" font-size="14.00">dataset</text>
</g>
<!-- dataset&#45;&gt;run_rnasum_step -->
<g id="edge8" class="edge">
<title>dataset&#45;&gt;run_rnasum_step</title>
<path fill="none" stroke="black" d="M2774.97,-936.3C2767,-925.84 2755.7,-913.07 2743,-904.91 2454.65,-719.75 2043.89,-642.62 1869.02,-616.81"/>
<polygon fill="black" stroke="black" points="1869.51,-613.34 1859.11,-615.36 1868.5,-620.27 1869.51,-613.34"/>
</g>
<!-- dataset_name_incl -->
<g id="node9" class="node">
<title>dataset_name_incl</title>
<polygon fill="#94ddf4" stroke="black" points="2586,-936.41 2586,-973.41 2734,-973.41 2734,-936.41 2586,-936.41"/>
<text text-anchor="middle" x="2660" y="-951.21" font-family="Times,serif" font-size="14.00">dataset_name_incl</text>
</g>
<!-- dataset_name_incl&#45;&gt;run_rnasum_step -->
<g id="edge9" class="edge">
<title>dataset_name_incl&#45;&gt;run_rnasum_step</title>
<path fill="none" stroke="black" d="M2632.98,-936.36C2617.06,-926.42 2596.31,-914.17 2577,-904.91 2310.29,-777.02 1973.44,-665.42 1841.57,-623.54"/>
<polygon fill="black" stroke="black" points="1842.28,-620.09 1831.69,-620.41 1840.16,-626.76 1842.28,-620.09"/>
</g>
<!-- dragen_transcriptome_directory -->
<g id="node10" class="node">
<title>dragen_transcriptome_directory</title>
<polygon fill="#94ddf4" stroke="black" points="2320.5,-936.41 2320.5,-973.41 2567.5,-973.41 2567.5,-936.41 2320.5,-936.41"/>
<text text-anchor="middle" x="2444" y="-951.21" font-family="Times,serif" font-size="14.00">dragen_transcriptome_directory</text>
</g>
<!-- dragen_transcriptome_directory&#45;&gt;run_rnasum_step -->
<g id="edge10" class="edge">
<title>dragen_transcriptome_directory&#45;&gt;run_rnasum_step</title>
<path fill="none" stroke="black" d="M2410.41,-936.18C2299.33,-877.52 1944.07,-689.91 1824.62,-626.83"/>
<polygon fill="black" stroke="black" points="1825.92,-623.56 1815.44,-621.99 1822.65,-629.75 1825.92,-623.56"/>
</g>
<!-- drugs -->
<g id="node11" class="node">
<title>drugs</title>
<polygon fill="#94ddf4" stroke="black" points="2244,-936.41 2244,-973.41 2302,-973.41 2302,-936.41 2244,-936.41"/>
<text text-anchor="middle" x="2273" y="-951.21" font-family="Times,serif" font-size="14.00">drugs</text>
</g>
<!-- drugs&#45;&gt;run_rnasum_step -->
<g id="edge11" class="edge">
<title>drugs&#45;&gt;run_rnasum_step</title>
<path fill="none" stroke="black" d="M2261.24,-935.98C2254.3,-926.16 2244.94,-914.15 2235,-904.91 2100.2,-779.64 1907.72,-670.77 1825.14,-626.73"/>
<polygon fill="black" stroke="black" points="1826.56,-623.53 1816.09,-621.94 1823.28,-629.71 1826.56,-623.53"/>
</g>
<!-- filter -->
<g id="node12" class="node">
<title>filter</title>
<polygon fill="#94ddf4" stroke="black" points="2172,-936.41 2172,-973.41 2226,-973.41 2226,-936.41 2172,-936.41"/>
<text text-anchor="middle" x="2199" y="-951.21" font-family="Times,serif" font-size="14.00">filter</text>
</g>
<!-- filter&#45;&gt;run_rnasum_step -->
<g id="edge12" class="edge">
<title>filter&#45;&gt;run_rnasum_step</title>
<path fill="none" stroke="black" d="M2187.72,-936.24C2181.1,-926.5 2172.24,-914.48 2163,-904.91 2049.05,-786.83 1887.86,-674.2 1818.67,-627.96"/>
<polygon fill="black" stroke="black" points="1820.58,-625.02 1810.31,-622.4 1816.7,-630.85 1820.58,-625.02"/>
</g>
<!-- grch_version -->
<g id="node13" class="node">
<title>grch_version</title>
<polygon fill="#94ddf4" stroke="black" points="2046,-936.41 2046,-973.41 2154,-973.41 2154,-936.41 2046,-936.41"/>
<text text-anchor="middle" x="2100" y="-951.21" font-family="Times,serif" font-size="14.00">grch_version</text>
</g>
<!-- grch_version&#45;&gt;run_rnasum_step -->
<g id="edge13" class="edge">
<title>grch_version&#45;&gt;run_rnasum_step</title>
<path fill="none" stroke="black" d="M2083.95,-936.18C2031.78,-878.55 1866.97,-696.47 1807.05,-630.27"/>
<polygon fill="black" stroke="black" points="1809.58,-627.86 1800.28,-622.79 1804.39,-632.55 1809.58,-627.86"/>
</g>
<!-- hide_code_btn -->
<g id="node14" class="node">
<title>hide_code_btn</title>
<polygon fill="#94ddf4" stroke="black" points="1910,-936.41 1910,-973.41 2028,-973.41 2028,-936.41 1910,-936.41"/>
<text text-anchor="middle" x="1969" y="-951.21" font-family="Times,serif" font-size="14.00">hide_code_btn</text>
</g>
<!-- hide_code_btn&#45;&gt;run_rnasum_step -->
<g id="edge14" class="edge">
<title>hide_code_btn&#45;&gt;run_rnasum_step</title>
<path fill="none" stroke="black" d="M1959.62,-936.18C1929.47,-879.15 1834.88,-700.25 1798.99,-632.38"/>
<polygon fill="black" stroke="black" points="1801.91,-630.4 1794.14,-623.2 1795.72,-633.68 1801.91,-630.4"/>
</g>
<!-- immunogram -->
<g id="node15" class="node">
<title>immunogram</title>
<polygon fill="#94ddf4" stroke="black" points="1780,-936.41 1780,-973.41 1892,-973.41 1892,-936.41 1780,-936.41"/>
<text text-anchor="middle" x="1836" y="-951.21" font-family="Times,serif" font-size="14.00">immunogram</text>
</g>
<!-- immunogram&#45;&gt;run_rnasum_step -->
<g id="edge15" class="edge">
<title>immunogram&#45;&gt;run_rnasum_step</title>
<path fill="none" stroke="black" d="M1833.4,-936.18C1825.08,-879.38 1799.04,-701.71 1789,-633.22"/>
<polygon fill="black" stroke="black" points="1792.45,-632.59 1787.53,-623.2 1785.52,-633.6 1792.45,-632.59"/>
</g>
<!-- log -->
<g id="node16" class="node">
<title>log</title>
<polygon fill="#94ddf4" stroke="black" points="1708,-936.41 1708,-973.41 1762,-973.41 1762,-936.41 1708,-936.41"/>
<text text-anchor="middle" x="1735" y="-951.21" font-family="Times,serif" font-size="14.00">log</text>
</g>
<!-- log&#45;&gt;run_rnasum_step -->
<g id="edge16" class="edge">
<title>log&#45;&gt;run_rnasum_step</title>
<path fill="none" stroke="black" d="M1737.55,-936.18C1745.71,-879.38 1771.24,-701.71 1781.08,-633.22"/>
<polygon fill="black" stroke="black" points="1784.56,-633.6 1782.52,-623.2 1777.63,-632.6 1784.56,-633.6"/>
</g>
<!-- norm -->
<g id="node17" class="node">
<title>norm</title>
<polygon fill="#94ddf4" stroke="black" points="1636,-936.41 1636,-973.41 1690,-973.41 1690,-936.41 1636,-936.41"/>
<text text-anchor="middle" x="1663" y="-951.21" font-family="Times,serif" font-size="14.00">norm</text>
</g>
<!-- norm&#45;&gt;run_rnasum_step -->
<g id="edge17" class="edge">
<title>norm&#45;&gt;run_rnasum_step</title>
<path fill="none" stroke="black" d="M1669.22,-936.18C1689.17,-879.26 1751.67,-700.98 1775.57,-632.8"/>
<polygon fill="black" stroke="black" points="1778.93,-633.79 1778.94,-623.2 1772.33,-631.48 1778.93,-633.79"/>
</g>
<!-- pcgr_splice_vars -->
<g id="node18" class="node">
<title>pcgr_splice_vars</title>
<polygon fill="#94ddf4" stroke="black" points="1484,-936.41 1484,-973.41 1618,-973.41 1618,-936.41 1484,-936.41"/>
<text text-anchor="middle" x="1551" y="-951.21" font-family="Times,serif" font-size="14.00">pcgr_splice_vars</text>
</g>
<!-- pcgr_splice_vars&#45;&gt;run_rnasum_step -->
<g id="edge18" class="edge">
<title>pcgr_splice_vars&#45;&gt;run_rnasum_step</title>
<path fill="none" stroke="black" d="M1562.93,-936.18C1601.44,-878.9 1722.62,-698.68 1767.8,-631.5"/>
<polygon fill="black" stroke="black" points="1770.98,-633.04 1773.65,-622.79 1765.17,-629.14 1770.98,-633.04"/>
</g>
<!-- pcgr_tier -->
<g id="node19" class="node">
<title>pcgr_tier</title>
<polygon fill="#94ddf4" stroke="black" points="1384.5,-936.41 1384.5,-973.41 1465.5,-973.41 1465.5,-936.41 1384.5,-936.41"/>
<text text-anchor="middle" x="1425" y="-951.21" font-family="Times,serif" font-size="14.00">pcgr_tier</text>
</g>
<!-- pcgr_tier&#45;&gt;run_rnasum_step -->
<g id="edge19" class="edge">
<title>pcgr_tier&#45;&gt;run_rnasum_step</title>
<path fill="none" stroke="black" d="M1443.02,-936.19C1452.51,-926.86 1464.37,-915.25 1475,-904.91 1580.56,-802.29 1707.12,-680.65 1759.94,-629.96"/>
<polygon fill="black" stroke="black" points="1762.68,-632.17 1767.47,-622.72 1757.83,-627.12 1762.68,-632.17"/>
</g>
<!-- project -->
<g id="node20" class="node">
<title>project</title>
<polygon fill="#94ddf4" stroke="black" points="1299.5,-936.41 1299.5,-973.41 1366.5,-973.41 1366.5,-936.41 1299.5,-936.41"/>
<text text-anchor="middle" x="1333" y="-951.21" font-family="Times,serif" font-size="14.00">project</text>
</g>
<!-- project&#45;&gt;run_rnasum_step -->
<g id="edge20" class="edge">
<title>project&#45;&gt;run_rnasum_step</title>
<path fill="none" stroke="black" d="M1346.86,-936.28C1354.9,-926.56 1365.48,-914.54 1376,-904.91 1503.59,-788.2 1676.42,-674.42 1749.76,-627.89"/>
<polygon fill="black" stroke="black" points="1752.03,-630.6 1758.61,-622.29 1748.29,-624.68 1752.03,-630.6"/>
</g>
<!-- ref_data_directory -->
<g id="node21" class="node">
<title>ref_data_directory</title>
<polygon fill="#94ddf4" stroke="black" points="1134.5,-936.41 1134.5,-973.41 1281.5,-973.41 1281.5,-936.41 1134.5,-936.41"/>
<text text-anchor="middle" x="1208" y="-951.21" font-family="Times,serif" font-size="14.00">ref_data_directory</text>
</g>
<!-- ref_data_directory&#45;&gt;run_rnasum_step -->
<g id="edge21" class="edge">
<title>ref_data_directory&#45;&gt;run_rnasum_step</title>
<path fill="none" stroke="black" d="M1237.41,-936.18C1334.36,-877.7 1643.76,-691.1 1749.32,-627.43"/>
<polygon fill="black" stroke="black" points="1751.26,-630.35 1758.02,-622.19 1747.65,-624.35 1751.26,-630.35"/>
</g>
<!-- report_directory -->
<g id="node22" class="node">
<title>report_directory</title>
<polygon fill="#94ddf4" stroke="black" points="982,-936.41 982,-973.41 1116,-973.41 1116,-936.41 982,-936.41"/>
<text text-anchor="middle" x="1049" y="-951.21" font-family="Times,serif" font-size="14.00">report_directory</text>
</g>
<!-- report_directory&#45;&gt;run_rnasum_step -->
<g id="edge22" class="edge">
<title>report_directory&#45;&gt;run_rnasum_step</title>
<path fill="none" stroke="black" d="M1074.82,-936.19C1089.52,-926.44 1108.44,-914.42 1126,-904.91 1347.45,-784.99 1626.14,-669.55 1736.66,-625.1"/>
<polygon fill="black" stroke="black" points="1738.22,-628.24 1746.2,-621.27 1735.62,-621.75 1738.22,-628.24"/>
</g>
<!-- sample_name -->
<g id="node23" class="node">
<title>sample_name</title>
<polygon fill="#94ddf4" stroke="black" points="850.5,-936.41 850.5,-973.41 963.5,-973.41 963.5,-936.41 850.5,-936.41"/>
<text text-anchor="middle" x="907" y="-951.21" font-family="Times,serif" font-size="14.00">sample_name</text>
</g>
<!-- sample_name&#45;&gt;run_rnasum_step -->
<g id="edge23" class="edge">
<title>sample_name&#45;&gt;run_rnasum_step</title>
<path fill="none" stroke="black" d="M927.37,-936.4C939.92,-926.24 956.68,-913.74 973,-904.91 1236.57,-762.38 1582.37,-660.44 1722.25,-622.37"/>
<polygon fill="black" stroke="black" points="1723.22,-625.73 1731.96,-619.74 1721.39,-618.97 1723.22,-625.73"/>
</g>
<!-- sample_source -->
<g id="node24" class="node">
<title>sample_source</title>
<polygon fill="#94ddf4" stroke="black" points="710,-936.41 710,-973.41 832,-973.41 832,-936.41 710,-936.41"/>
<text text-anchor="middle" x="771" y="-951.21" font-family="Times,serif" font-size="14.00">sample_source</text>
</g>
<!-- sample_source&#45;&gt;run_rnasum_step -->
<g id="edge24" class="edge">
<title>sample_source&#45;&gt;run_rnasum_step</title>
<path fill="none" stroke="black" d="M792.96,-936.21C806.48,-925.98 824.52,-913.48 842,-904.91 1151.01,-753.52 1553.93,-655.96 1714.5,-620.7"/>
<polygon fill="black" stroke="black" points="1715.7,-624.02 1724.72,-618.46 1714.2,-617.18 1715.7,-624.02"/>
</g>
<!-- save_tables -->
<g id="node25" class="node">
<title>save_tables</title>
<polygon fill="#94ddf4" stroke="black" points="592.5,-936.41 592.5,-973.41 691.5,-973.41 691.5,-936.41 592.5,-936.41"/>
<text text-anchor="middle" x="642" y="-951.21" font-family="Times,serif" font-size="14.00">save_tables</text>
</g>
<!-- save_tables&#45;&gt;run_rnasum_step -->
<g id="edge25" class="edge">
<title>save_tables&#45;&gt;run_rnasum_step</title>
<path fill="none" stroke="black" d="M659.15,-936.29C670.22,-925.82 685.42,-913.05 701,-904.91 1046.39,-724.61 1512.08,-643.71 1700.58,-616.81"/>
<polygon fill="black" stroke="black" points="1701.28,-620.24 1710.7,-615.38 1700.3,-613.31 1701.28,-620.24"/>
</g>
<!-- scaling -->
<g id="node26" class="node">
<title>scaling</title>
<polygon fill="#94ddf4" stroke="black" points="507.5,-936.41 507.5,-973.41 574.5,-973.41 574.5,-936.41 507.5,-936.41"/>
<text text-anchor="middle" x="541" y="-951.21" font-family="Times,serif" font-size="14.00">scaling</text>
</g>
<!-- scaling&#45;&gt;run_rnasum_step -->
<g id="edge26" class="edge">
<title>scaling&#45;&gt;run_rnasum_step</title>
<path fill="none" stroke="black" d="M552.51,-936.03C560.21,-925.47 571.24,-912.69 584,-904.91 949.31,-682.31 1472.8,-625.1 1687.49,-610.67"/>
<polygon fill="black" stroke="black" points="1687.73,-614.16 1697.48,-610.01 1687.27,-607.18 1687.73,-614.16"/>
</g>
<!-- subject_id -->
<g id="node27" class="node">
<title>subject_id</title>
<polygon fill="#94ddf4" stroke="black" points="400.5,-936.41 400.5,-973.41 489.5,-973.41 489.5,-936.41 400.5,-936.41"/>
<text text-anchor="middle" x="445" y="-951.21" font-family="Times,serif" font-size="14.00">subject_id</text>
</g>
<!-- subject_id&#45;&gt;run_rnasum_step -->
<g id="edge27" class="edge">
<title>subject_id&#45;&gt;run_rnasum_step</title>
<path fill="none" stroke="black" d="M460.32,-936.02C470.3,-925.45 484.2,-912.67 499,-904.91 907.17,-691.03 1467.33,-628.68 1689.06,-611.77"/>
<polygon fill="black" stroke="black" points="1689.33,-615.25 1699.04,-611.02 1688.8,-608.27 1689.33,-615.25"/>
</g>
<!-- top_genes -->
<g id="node28" class="node">
<title>top_genes</title>
<polygon fill="#94ddf4" stroke="black" points="293.5,-936.41 293.5,-973.41 382.5,-973.41 382.5,-936.41 293.5,-936.41"/>
<text text-anchor="middle" x="338" y="-951.21" font-family="Times,serif" font-size="14.00">top_genes</text>
</g>
<!-- top_genes&#45;&gt;run_rnasum_step -->
<g id="edge28" class="edge">
<title>top_genes&#45;&gt;run_rnasum_step</title>
<path fill="none" stroke="black" d="M352.82,-936.41C362.82,-925.72 376.91,-912.66 392,-904.91 837.33,-676.36 1449.06,-622.31 1685.83,-609.69"/>
<polygon fill="black" stroke="black" points="1686.34,-613.17 1696.14,-609.15 1685.97,-606.18 1686.34,-613.17"/>
</g>
<!-- transform -->
<g id="node29" class="node">
<title>transform</title>
<polygon fill="#94ddf4" stroke="black" points="188,-936.41 188,-973.41 276,-973.41 276,-936.41 188,-936.41"/>
<text text-anchor="middle" x="232" y="-951.21" font-family="Times,serif" font-size="14.00">transform</text>
</g>
<!-- transform&#45;&gt;run_rnasum_step -->
<g id="edge29" class="edge">
<title>transform&#45;&gt;run_rnasum_step</title>
<path fill="none" stroke="black" d="M246.45,-936.33C256.22,-925.61 270.04,-912.54 285,-904.91 767.71,-658.81 1433.88,-615.07 1684.38,-607.45"/>
<polygon fill="black" stroke="black" points="1684.66,-610.94 1694.56,-607.15 1684.46,-603.95 1684.66,-610.94"/>
</g>
<!-- umccrise_directory -->
<g id="node30" class="node">
<title>umccrise_directory</title>
<polygon fill="#94ddf4" stroke="black" points="16.5,-936.41 16.5,-973.41 169.5,-973.41 169.5,-936.41 16.5,-936.41"/>
<text text-anchor="middle" x="93" y="-951.21" font-family="Times,serif" font-size="14.00">umccrise_directory</text>
</g>
<!-- umccrise_directory&#45;&gt;run_rnasum_step -->
<g id="edge30" class="edge">
<title>umccrise_directory&#45;&gt;run_rnasum_step</title>
<path fill="none" stroke="black" d="M118.62,-936.29C135.16,-925.69 157.54,-912.77 179,-904.91 729.31,-703.42 1437.58,-632.4 1690.27,-612.5"/>
<polygon fill="black" stroke="black" points="1690.81,-615.97 1700.51,-611.7 1690.27,-608.99 1690.81,-615.97"/>
</g>
<!-- rnasum_html -->
<g id="node31" class="node">
<title>rnasum_html</title>
<polygon fill="#94ddf4" stroke="black" points="1816,-249.41 1816,-286.41 1926,-286.41 1926,-249.41 1816,-249.41"/>
<text text-anchor="middle" x="1871" y="-264.21" font-family="Times,serif" font-size="14.00">rnasum_html</text>
</g>
<!-- rnasum_output_directory -->
<g id="node32" class="node">
<title>rnasum_output_directory</title>
<polygon fill="#94ddf4" stroke="black" points="1600.5,-249.41 1600.5,-286.41 1797.5,-286.41 1797.5,-249.41 1600.5,-249.41"/>
<text text-anchor="middle" x="1699" y="-264.21" font-family="Times,serif" font-size="14.00">rnasum_output_directory</text>
</g>
<!-- run_rnasum_step&#45;&gt;rnasum_html -->
<g id="edge31" class="edge">
<title>run_rnasum_step&#45;&gt;rnasum_html</title>
<path fill="none" stroke="black" d="M1789.38,-586.84C1803.32,-532.54 1846.72,-363.51 1863.9,-296.59"/>
<polygon fill="black" stroke="black" points="1867.32,-297.32 1866.42,-286.76 1860.54,-295.57 1867.32,-297.32"/>
</g>
<!-- run_rnasum_step&#45;&gt;rnasum_output_directory -->
<g id="edge32" class="edge">
<title>run_rnasum_step&#45;&gt;rnasum_output_directory</title>
<path fill="none" stroke="black" d="M1780.62,-586.84C1766.68,-532.54 1723.28,-363.51 1706.1,-296.59"/>
<polygon fill="black" stroke="black" points="1709.46,-295.57 1703.58,-286.76 1702.68,-297.32 1709.46,-295.57"/>
</g>
<!-- \n -->
<g id="node34" class="node">
<title>\n</title>
<ellipse fill="none" stroke="black" cx="3771" cy="-954.91" rx="27" ry="18"/>
</g>
</g>
</svg>
