<?xml version="1.0" encoding="UTF-8" standalone="no"?>
<!DOCTYPE svg PUBLIC "-//W3C//DTD SVG 1.1//EN"
 "http://www.w3.org/Graphics/SVG/1.1/DTD/svg11.dtd">
<!-- Generated by graphviz version 2.43.0 (0)
 -->
<!-- Title: G Pages: 1 -->
<svg width="1361pt" height="659pt"
 viewBox="0.00 0.00 1361.00 658.79" xmlns="http://www.w3.org/2000/svg" xmlns:xlink="http://www.w3.org/1999/xlink">
<g id="graph0" class="graph" transform="scale(1 1) rotate(0) translate(4 654.79)">
<title>G</title>
<polygon fill="#eeeeee" stroke="transparent" points="-4,4 -4,-654.79 1357,-654.79 1357,4 -4,4"/>
<g id="clust1" class="cluster">
<title>cluster_inputs</title>
<polygon fill="#eeeeee" stroke="black" stroke-dasharray="5,2" points="8,-423.02 8,-629.1 1345,-629.1 1345,-423.02 8,-423.02"/>
<text text-anchor="middle" x="1278.5" y="-430.82" font-family="Times,serif" font-size="14.00">Workflow Inputs</text>
</g>
<g id="clust2" class="cluster">
<title>cluster_outputs</title>
<polygon fill="#eeeeee" stroke="black" stroke-dasharray="5,2" points="476,-21.69 476,-227.78 700,-227.78 700,-21.69 476,-21.69"/>
<text text-anchor="middle" x="627.5" y="-29.49" font-family="Times,serif" font-size="14.00">Workflow Outputs</text>
</g>
<!-- dragen_germline_directory -->
<g id="node1" class="node">
<title>dragen_germline_directory</title>
<polygon fill="#94ddf4" stroke="black" points="1127.5,-539.69 1127.5,-575.69 1336.5,-575.69 1336.5,-539.69 1127.5,-539.69"/>
<text text-anchor="middle" x="1232" y="-553.99" font-family="Times,serif" font-size="14.00">dragen_germline_directory</text>
</g>
<!-- run_umccrise_step -->
<g id="node9" class="node">
<title>run_umccrise_step</title>
<ellipse fill="none" stroke="black" cx="588" cy="-352.69" rx="97.48" ry="18"/>
<text text-anchor="middle" x="588" y="-348.99" font-family="Times,serif" font-size="14.00">run_umccrise_step</text>
</g>
<!-- dragen_germline_directory&#45;&gt;run_umccrise_step -->
<g id="edge1" class="edge">
<title>dragen_germline_directory&#45;&gt;run_umccrise_step</title>
<path fill="none" stroke="black" d="M1194.96,-539.62C1172.87,-529.77 1144.13,-517.52 1118,-508.19 953.34,-449.4 754.22,-395.94 653.37,-370.07"/>
<polygon fill="black" stroke="black" points="654.18,-366.67 643.62,-367.58 652.44,-373.45 654.18,-366.67"/>
</g>
<!-- dragen_normal_id -->
<g id="node2" class="node">
<title>dragen_normal_id</title>
<polygon fill="#94ddf4" stroke="black" points="965,-539.69 965,-575.69 1109,-575.69 1109,-539.69 965,-539.69"/>
<text text-anchor="middle" x="1037" y="-553.99" font-family="Times,serif" font-size="14.00">dragen_normal_id</text>
</g>
<!-- dragen_normal_id&#45;&gt;run_umccrise_step -->
<g id="edge2" class="edge">
<title>dragen_normal_id&#45;&gt;run_umccrise_step</title>
<path fill="none" stroke="black" d="M1010.54,-539.55C994.97,-529.79 974.72,-517.67 956,-508.19 846.17,-452.61 711.57,-399.77 639.45,-372.63"/>
<polygon fill="black" stroke="black" points="640.3,-369.21 629.7,-368.98 637.84,-375.77 640.3,-369.21"/>
</g>
<!-- dragen_somatic_directory -->
<g id="node3" class="node">
<title>dragen_somatic_directory</title>
<polygon fill="#94ddf4" stroke="black" points="745.5,-539.69 745.5,-575.69 946.5,-575.69 946.5,-539.69 745.5,-539.69"/>
<text text-anchor="middle" x="846" y="-553.99" font-family="Times,serif" font-size="14.00">dragen_somatic_directory</text>
</g>
<!-- dragen_somatic_directory&#45;&gt;run_umccrise_step -->
<g id="edge3" class="edge">
<title>dragen_somatic_directory&#45;&gt;run_umccrise_step</title>
<path fill="none" stroke="black" d="M824,-539.39C777.5,-502.8 669.23,-417.6 617.08,-376.58"/>
<polygon fill="black" stroke="black" points="619.24,-373.82 609.22,-370.39 614.91,-379.32 619.24,-373.82"/>
</g>
<!-- dragen_tumor_id -->
<g id="node4" class="node">
<title>dragen_tumor_id</title>
<polygon fill="#94ddf4" stroke="black" points="590.5,-539.69 590.5,-575.69 727.5,-575.69 727.5,-539.69 590.5,-539.69"/>
<text text-anchor="middle" x="659" y="-553.99" font-family="Times,serif" font-size="14.00">dragen_tumor_id</text>
</g>
<!-- dragen_tumor_id&#45;&gt;run_umccrise_step -->
<g id="edge4" class="edge">
<title>dragen_tumor_id&#45;&gt;run_umccrise_step</title>
<path fill="none" stroke="black" d="M652.95,-539.39C640.52,-503.87 612.08,-422.53 597.3,-380.28"/>
<polygon fill="black" stroke="black" points="600.54,-378.95 593.94,-370.67 593.94,-381.27 600.54,-378.95"/>
</g>
<!-- genomes_tar -->
<g id="node5" class="node">
<title>genomes_tar</title>
<polygon fill="#94ddf4" stroke="black" points="464,-539.69 464,-575.69 572,-575.69 572,-539.69 464,-539.69"/>
<text text-anchor="middle" x="518" y="-553.99" font-family="Times,serif" font-size="14.00">genomes_tar</text>
</g>
<!-- genomes_tar&#45;&gt;run_umccrise_step -->
<g id="edge5" class="edge">
<title>genomes_tar&#45;&gt;run_umccrise_step</title>
<path fill="none" stroke="black" d="M523.97,-539.39C536.22,-503.87 564.26,-422.53 578.83,-380.28"/>
<polygon fill="black" stroke="black" points="582.19,-381.27 582.15,-370.67 575.58,-378.98 582.19,-381.27"/>
</g>
<!-- output_directory_name -->
<g id="node6" class="node">
<title>output_directory_name</title>
<polygon fill="#94ddf4" stroke="black" points="264,-539.69 264,-575.69 446,-575.69 446,-539.69 264,-539.69"/>
<text text-anchor="middle" x="355" y="-553.99" font-family="Times,serif" font-size="14.00">output_directory_name</text>
</g>
<!-- output_directory_name&#45;&gt;run_umccrise_step -->
<g id="edge6" class="edge">
<title>output_directory_name&#45;&gt;run_umccrise_step</title>
<path fill="none" stroke="black" d="M374.87,-539.39C416.69,-502.95 513.84,-418.3 561.15,-377.09"/>
<polygon fill="black" stroke="black" points="563.6,-379.59 568.84,-370.39 559,-374.32 563.6,-379.59"/>
</g>
<!-- subject_identifier -->
<g id="node7" class="node">
<title>subject_identifier</title>
<polygon fill="#94ddf4" stroke="black" points="106,-539.69 106,-575.69 246,-575.69 246,-539.69 106,-539.69"/>
<text text-anchor="middle" x="176" y="-553.99" font-family="Times,serif" font-size="14.00">subject_identifier</text>
</g>
<!-- subject_identifier&#45;&gt;run_umccrise_step -->
<g id="edge7" class="edge">
<title>subject_identifier&#45;&gt;run_umccrise_step</title>
<path fill="none" stroke="black" d="M202.24,-539.52C217.41,-529.87 236.99,-517.86 255,-508.19 354.56,-454.77 475.92,-401.25 541.15,-373.38"/>
<polygon fill="black" stroke="black" points="542.52,-376.6 550.35,-369.46 539.78,-370.16 542.52,-376.6"/>
</g>
<!-- threads -->
<g id="node8" class="node">
<title>threads</title>
<polygon fill="#94ddf4" stroke="black" points="16.5,-539.69 16.5,-575.69 87.5,-575.69 87.5,-539.69 16.5,-539.69"/>
<text text-anchor="middle" x="52" y="-553.99" font-family="Times,serif" font-size="14.00">threads</text>
</g>
<!-- threads&#45;&gt;run_umccrise_step -->
<g id="edge8" class="edge">
<title>threads&#45;&gt;run_umccrise_step</title>
<path fill="none" stroke="black" d="M64.43,-539.28C72.62,-528.94 84.19,-516.3 97,-508.19 226.38,-426.38 402.45,-384.88 504.8,-366.37"/>
<polygon fill="black" stroke="black" points="505.55,-369.8 514.78,-364.6 504.32,-362.91 505.55,-369.8"/>
</g>
<!-- umccrise_output_directory -->
<g id="node10" class="node">
<title>umccrise_output_directory</title>
<polygon fill="#94ddf4" stroke="black" points="484.5,-137.69 484.5,-173.69 691.5,-173.69 691.5,-137.69 484.5,-137.69"/>
<text text-anchor="middle" x="588" y="-151.99" font-family="Times,serif" font-size="14.00">umccrise_output_directory</text>
</g>
<!-- run_umccrise_step&#45;&gt;umccrise_output_directory -->
<g id="edge9" class="edge">
<title>run_umccrise_step&#45;&gt;umccrise_output_directory</title>
<path fill="none" stroke="black" d="M588,-334.39C588,-300.42 588,-224.78 588,-184"/>
<polygon fill="black" stroke="black" points="591.5,-183.96 588,-173.96 584.5,-183.96 591.5,-183.96"/>
</g>
</g>
</svg>
