<?xml version="1.0" encoding="UTF-8" standalone="no"?>
<!DOCTYPE svg PUBLIC "-//W3C//DTD SVG 1.1//EN"
 "http://www.w3.org/Graphics/SVG/1.1/DTD/svg11.dtd">
<!-- Generated by graphviz version 2.43.0 (0)
 -->
<!-- Title: G Pages: 1 -->
<svg width="8328pt" height="2055pt"
 viewBox="0.00 0.00 8328.00 2054.72" xmlns="http://www.w3.org/2000/svg" xmlns:xlink="http://www.w3.org/1999/xlink">
<g id="graph0" class="graph" transform="scale(1 1) rotate(0) translate(4 2050.72)">
<title>G</title>
<polygon fill="#eeeeee" stroke="transparent" points="-4,4 -4,-2050.72 8324,-2050.72 8324,4 -4,4"/>
<g id="clust1" class="cluster">
<title>cluster_inputs</title>
<polygon fill="#eeeeee" stroke="black" stroke-dasharray="5,2" points="8,-1499.64 8,-1995.23 8256,-1995.23 8256,-1499.64 8,-1499.64"/>
<text text-anchor="middle" x="8189.5" y="-1507.44" font-family="Times,serif" font-size="14.00">Workflow Inputs</text>
</g>
<g id="clust2" class="cluster">
<title>cluster_outputs</title>
<polygon fill="#eeeeee" stroke="black" stroke-dasharray="5,2" points="3432,-51.49 3432,-547.08 4088,-547.08 4088,-51.49 3432,-51.49"/>
<text text-anchor="middle" x="4015.5" y="-59.29" font-family="Times,serif" font-size="14.00">Workflow Outputs</text>
</g>
<!-- output_file_prefix -->
<g id="node1" class="node">
<title>output_file_prefix</title>
<polygon fill="#94ddf4" stroke="black" points="16,-1802.99 16,-1839.99 156,-1839.99 156,-1802.99 16,-1802.99"/>
<text text-anchor="middle" x="86" y="-1817.79" font-family="Times,serif" font-size="14.00">output_file_prefix</text>
</g>
<!-- dragen_qc_step -->
<g id="node63" class="node">
<title>dragen_qc_step</title>
<polygon fill="lightgoldenrodyellow" stroke="black" points="16.5,-830.99 16.5,-867.99 155.5,-867.99 155.5,-830.99 16.5,-830.99"/>
<text text-anchor="middle" x="86" y="-845.79" font-family="Times,serif" font-size="14.00">multiqc v(1.15.0)</text>
</g>
<!-- output_file_prefix&#45;&gt;dragen_qc_step -->
<g id="edge6" class="edge">
<title>output_file_prefix&#45;&gt;dragen_qc_step</title>
<path fill="none" stroke="black" d="M82.02,-1802.83C69.65,-1685.83 69.33,-1022.88 81.08,-878.32"/>
<polygon fill="black" stroke="black" points="84.59,-878.38 82.03,-868.1 77.62,-877.74 84.59,-878.38"/>
</g>
<!-- output_file_prefix&#45;&gt;dragen_qc_step -->
<g id="edge7" class="edge">
<title>output_file_prefix&#45;&gt;dragen_qc_step</title>
<path fill="none" stroke="black" d="M86,-1802.83C86,-1685.83 86,-1022.88 86,-878.32"/>
<polygon fill="black" stroke="black" points="89.5,-878.1 86,-868.1 82.5,-878.1 89.5,-878.1"/>
</g>
<!-- output_file_prefix&#45;&gt;dragen_qc_step -->
<g id="edge8" class="edge">
<title>output_file_prefix&#45;&gt;dragen_qc_step</title>
<path fill="none" stroke="black" d="M89.98,-1802.83C102.35,-1685.83 102.67,-1022.88 90.92,-878.32"/>
<polygon fill="black" stroke="black" points="94.38,-877.74 89.97,-868.1 87.41,-878.38 94.38,-877.74"/>
</g>
<!-- run_dragen_alignment_step -->
<g id="node64" class="node">
<title>run_dragen_alignment_step</title>
<polygon fill="lightgoldenrodyellow" stroke="black" points="3911.5,-1306.99 3911.5,-1343.99 4114.5,-1343.99 4114.5,-1306.99 3911.5,-1306.99"/>
<text text-anchor="middle" x="4013" y="-1321.79" font-family="Times,serif" font-size="14.00">dragen&#45;alignment v(4.2.4)</text>
</g>
<!-- output_file_prefix&#45;&gt;run_dragen_alignment_step -->
<g id="edge9" class="edge">
<title>output_file_prefix&#45;&gt;run_dragen_alignment_step</title>
<path fill="none" stroke="black" d="M108.79,-1802.81C124.11,-1791.9 145.22,-1778.66 166,-1771.49 886.29,-1522.87 3347.05,-1365.65 3901.45,-1332.88"/>
<polygon fill="black" stroke="black" points="3901.67,-1336.38 3911.44,-1332.29 3901.26,-1329.39 3901.67,-1336.38"/>
</g>
<!-- aln_min_score -->
<g id="node2" class="node">
<title>aln_min_score</title>
<polygon fill="#94ddf4" stroke="black" points="8039.5,-1802.99 8039.5,-1839.99 8156.5,-1839.99 8156.5,-1802.99 8039.5,-1802.99"/>
<text text-anchor="middle" x="8098" y="-1817.79" font-family="Times,serif" font-size="14.00">aln_min_score</text>
</g>
<!-- aln_min_score&#45;&gt;run_dragen_alignment_step -->
<g id="edge10" class="edge">
<title>aln_min_score&#45;&gt;run_dragen_alignment_step</title>
<path fill="none" stroke="black" d="M8079.36,-1802.97C8066.51,-1791.98 8048.47,-1778.6 8030,-1771.49 7285.8,-1485.09 4696.52,-1356.47 4125.14,-1331.22"/>
<polygon fill="black" stroke="black" points="4124.99,-1327.71 4114.85,-1330.76 4124.68,-1334.7 4124.99,-1327.71"/>
</g>
<!-- alt_aware -->
<g id="node3" class="node">
<title>alt_aware</title>
<polygon fill="#94ddf4" stroke="black" points="7935,-1802.99 7935,-1839.99 8021,-1839.99 8021,-1802.99 7935,-1802.99"/>
<text text-anchor="middle" x="7978" y="-1817.79" font-family="Times,serif" font-size="14.00">alt_aware</text>
</g>
<!-- alt_aware&#45;&gt;run_dragen_alignment_step -->
<g id="edge11" class="edge">
<title>alt_aware&#45;&gt;run_dragen_alignment_step</title>
<path fill="none" stroke="black" d="M7964.52,-1802.96C7955.02,-1791.98 7941.3,-1778.59 7926,-1771.49 7221.94,-1444.78 4688.88,-1347.56 4124.84,-1329.74"/>
<polygon fill="black" stroke="black" points="4124.78,-1326.24 4114.68,-1329.42 4124.56,-1333.23 4124.78,-1326.24"/>
</g>
<!-- ann_sj_max_indel -->
<g id="node4" class="node">
<title>ann_sj_max_indel</title>
<polygon fill="#94ddf4" stroke="black" points="7777,-1802.99 7777,-1839.99 7917,-1839.99 7917,-1802.99 7777,-1802.99"/>
<text text-anchor="middle" x="7847" y="-1817.79" font-family="Times,serif" font-size="14.00">ann_sj_max_indel</text>
</g>
<!-- ann_sj_max_indel&#45;&gt;run_dragen_alignment_step -->
<g id="edge12" class="edge">
<title>ann_sj_max_indel&#45;&gt;run_dragen_alignment_step</title>
<path fill="none" stroke="black" d="M7824.52,-1802.82C7809.41,-1791.92 7788.57,-1778.69 7768,-1771.49 7067.06,-1526.24 4672.28,-1366.92 4125,-1333.19"/>
<polygon fill="black" stroke="black" points="4124.94,-1329.68 4114.74,-1332.56 4124.51,-1336.67 4124.94,-1329.68"/>
</g>
<!-- annotation_file -->
<g id="node5" class="node">
<title>annotation_file</title>
<polygon fill="#94ddf4" stroke="black" points="7637,-1802.99 7637,-1839.99 7759,-1839.99 7759,-1802.99 7637,-1802.99"/>
<text text-anchor="middle" x="7698" y="-1817.79" font-family="Times,serif" font-size="14.00">annotation_file</text>
</g>
<!-- annotation_file&#45;&gt;run_dragen_alignment_step -->
<g id="edge13" class="edge">
<title>annotation_file&#45;&gt;run_dragen_alignment_step</title>
<path fill="none" stroke="black" d="M7678.4,-1802.81C7665.14,-1791.9 7646.7,-1778.67 7628,-1771.49 6961.69,-1515.65 4659.47,-1364.99 4124.62,-1332.95"/>
<polygon fill="black" stroke="black" points="4124.78,-1329.45 4114.59,-1332.35 4124.36,-1336.44 4124.78,-1329.45"/>
</g>
<!-- dedup_min_qual -->
<g id="node6" class="node">
<title>dedup_min_qual</title>
<polygon fill="#94ddf4" stroke="black" points="7487,-1802.99 7487,-1839.99 7619,-1839.99 7619,-1802.99 7487,-1802.99"/>
<text text-anchor="middle" x="7553" y="-1817.79" font-family="Times,serif" font-size="14.00">dedup_min_qual</text>
</g>
<!-- dedup_min_qual&#45;&gt;run_dragen_alignment_step -->
<g id="edge14" class="edge">
<title>dedup_min_qual&#45;&gt;run_dragen_alignment_step</title>
<path fill="none" stroke="black" d="M7531.78,-1802.87C7517.48,-1791.98 7497.7,-1778.75 7478,-1771.49 6837.79,-1535.45 4646.19,-1370.56 4124.91,-1334.1"/>
<polygon fill="black" stroke="black" points="4124.98,-1330.6 4114.76,-1333.39 4124.49,-1337.58 4124.98,-1330.6"/>
</g>
<!-- edit_chain_limit -->
<g id="node7" class="node">
<title>edit_chain_limit</title>
<polygon fill="#94ddf4" stroke="black" points="7339.5,-1802.99 7339.5,-1839.99 7468.5,-1839.99 7468.5,-1802.99 7339.5,-1802.99"/>
<text text-anchor="middle" x="7404" y="-1817.79" font-family="Times,serif" font-size="14.00">edit_chain_limit</text>
</g>
<!-- edit_chain_limit&#45;&gt;run_dragen_alignment_step -->
<g id="edge15" class="edge">
<title>edit_chain_limit&#45;&gt;run_dragen_alignment_step</title>
<path fill="none" stroke="black" d="M7383.08,-1802.9C7368.99,-1792.03 7349.47,-1778.8 7330,-1771.49 6720.03,-1542.51 4633.11,-1373.2 4125.14,-1334.75"/>
<polygon fill="black" stroke="black" points="4125.11,-1331.24 4114.87,-1333.98 4124.58,-1338.22 4125.11,-1331.24"/>
</g>
<!-- edit_mode -->
<g id="node8" class="node">
<title>edit_mode</title>
<polygon fill="#94ddf4" stroke="black" points="7231,-1802.99 7231,-1839.99 7321,-1839.99 7321,-1802.99 7231,-1802.99"/>
<text text-anchor="middle" x="7276" y="-1817.79" font-family="Times,serif" font-size="14.00">edit_mode</text>
</g>
<!-- edit_mode&#45;&gt;run_dragen_alignment_step -->
<g id="edge16" class="edge">
<title>edit_mode&#45;&gt;run_dragen_alignment_step</title>
<path fill="none" stroke="black" d="M7261.37,-1802.61C7251.44,-1791.76 7237.37,-1778.67 7222,-1771.49 6651.61,-1504.81 4624.32,-1364.22 4124.83,-1333.15"/>
<polygon fill="black" stroke="black" points="4124.93,-1329.65 4114.73,-1332.52 4124.5,-1336.63 4124.93,-1329.65"/>
</g>
<!-- edit_read_len -->
<g id="node9" class="node">
<title>edit_read_len</title>
<polygon fill="#94ddf4" stroke="black" points="7101,-1802.99 7101,-1839.99 7213,-1839.99 7213,-1802.99 7101,-1802.99"/>
<text text-anchor="middle" x="7157" y="-1817.79" font-family="Times,serif" font-size="14.00">edit_read_len</text>
</g>
<!-- edit_read_len&#45;&gt;run_dragen_alignment_step -->
<g id="edge17" class="edge">
<title>edit_read_len&#45;&gt;run_dragen_alignment_step</title>
<path fill="none" stroke="black" d="M7138.97,-1802.91C7126.72,-1792.05 7109.61,-1778.83 7092,-1771.49 6535.86,-1539.79 4610.65,-1373.97 4124.95,-1335.17"/>
<polygon fill="black" stroke="black" points="4125.03,-1331.67 4114.79,-1334.36 4124.48,-1338.64 4125.03,-1331.67"/>
</g>
<!-- edit_seed_num -->
<g id="node10" class="node">
<title>edit_seed_num</title>
<polygon fill="#94ddf4" stroke="black" points="6961,-1802.99 6961,-1839.99 7083,-1839.99 7083,-1802.99 6961,-1802.99"/>
<text text-anchor="middle" x="7022" y="-1817.79" font-family="Times,serif" font-size="14.00">edit_seed_num</text>
</g>
<!-- edit_seed_num&#45;&gt;run_dragen_alignment_step -->
<g id="edge18" class="edge">
<title>edit_seed_num&#45;&gt;run_dragen_alignment_step</title>
<path fill="none" stroke="black" d="M7002.33,-1802.98C6989.04,-1792.15 6970.59,-1778.93 6952,-1771.49 6419.43,-1558.47 4595.68,-1379.86 4124.71,-1336.52"/>
<polygon fill="black" stroke="black" points="4124.79,-1333.01 4114.51,-1335.58 4124.15,-1339.98 4124.79,-1333.01"/>
</g>
<!-- en_alt_hap_aln -->
<g id="node11" class="node">
<title>en_alt_hap_aln</title>
<polygon fill="#94ddf4" stroke="black" points="6821.5,-1802.99 6821.5,-1839.99 6942.5,-1839.99 6942.5,-1802.99 6821.5,-1802.99"/>
<text text-anchor="middle" x="6882" y="-1817.79" font-family="Times,serif" font-size="14.00">en_alt_hap_aln</text>
</g>
<!-- en_alt_hap_aln&#45;&gt;run_dragen_alignment_step -->
<g id="edge19" class="edge">
<title>en_alt_hap_aln&#45;&gt;run_dragen_alignment_step</title>
<path fill="none" stroke="black" d="M6862.34,-1802.78C6849.28,-1792.01 6831.23,-1778.93 6813,-1771.49 5828.85,-1369.76 4512.52,-1329.14 4124.84,-1326.26"/>
<polygon fill="black" stroke="black" points="4124.77,-1322.76 4114.74,-1326.19 4124.72,-1329.76 4124.77,-1322.76"/>
</g>
<!-- en_chimeric_aln -->
<g id="node12" class="node">
<title>en_chimeric_aln</title>
<polygon fill="#94ddf4" stroke="black" points="6672.5,-1802.99 6672.5,-1839.99 6803.5,-1839.99 6803.5,-1802.99 6672.5,-1802.99"/>
<text text-anchor="middle" x="6738" y="-1817.79" font-family="Times,serif" font-size="14.00">en_chimeric_aln</text>
</g>
<!-- en_chimeric_aln&#45;&gt;run_dragen_alignment_step -->
<g id="edge20" class="edge">
<title>en_chimeric_aln&#45;&gt;run_dragen_alignment_step</title>
<path fill="none" stroke="black" d="M6716.69,-1802.87C6702.58,-1792.13 6683.21,-1779.06 6664,-1771.49 5731.75,-1403.89 4498.26,-1339.88 4124.79,-1328.8"/>
<polygon fill="black" stroke="black" points="4124.89,-1325.3 4114.79,-1328.51 4124.69,-1332.29 4124.89,-1325.3"/>
</g>
<!-- enable_duplicate_marking -->
<g id="node13" class="node">
<title>enable_duplicate_marking</title>
<polygon fill="#94ddf4" stroke="black" points="6451.5,-1802.99 6451.5,-1839.99 6654.5,-1839.99 6654.5,-1802.99 6451.5,-1802.99"/>
<text text-anchor="middle" x="6553" y="-1817.79" font-family="Times,serif" font-size="14.00">enable_duplicate_marking</text>
</g>
<!-- enable_duplicate_marking&#45;&gt;run_dragen_alignment_step -->
<g id="edge21" class="edge">
<title>enable_duplicate_marking&#45;&gt;run_dragen_alignment_step</title>
<path fill="none" stroke="black" d="M6519.13,-1802.88C6497.78,-1792.42 6469.36,-1779.65 6443,-1771.49 5572.73,-1502.19 4473.75,-1373.43 4124.69,-1337.38"/>
<polygon fill="black" stroke="black" points="4124.89,-1333.88 4114.59,-1336.34 4124.17,-1340.85 4124.89,-1333.88"/>
</g>
<!-- enable_map_align -->
<g id="node14" class="node">
<title>enable_map_align</title>
<polygon fill="#94ddf4" stroke="black" points="6290.5,-1802.99 6290.5,-1839.99 6433.5,-1839.99 6433.5,-1802.99 6290.5,-1802.99"/>
<text text-anchor="middle" x="6362" y="-1817.79" font-family="Times,serif" font-size="14.00">enable_map_align</text>
</g>
<!-- enable_map_align&#45;&gt;run_dragen_alignment_step -->
<g id="edge22" class="edge">
<title>enable_map_align&#45;&gt;run_dragen_alignment_step</title>
<path fill="none" stroke="black" d="M6338.32,-1802.87C6322.99,-1792.27 6302.18,-1779.36 6282,-1771.49 5492.33,-1463.74 4461.91,-1360.93 4124.93,-1334.35"/>
<polygon fill="black" stroke="black" points="4124.92,-1330.84 4114.68,-1333.55 4124.37,-1337.82 4124.92,-1330.84"/>
</g>
<!-- enable_map_align_output -->
<g id="node15" class="node">
<title>enable_map_align_output</title>
<polygon fill="#94ddf4" stroke="black" points="6075.5,-1802.99 6075.5,-1839.99 6272.5,-1839.99 6272.5,-1802.99 6075.5,-1802.99"/>
<text text-anchor="middle" x="6174" y="-1817.79" font-family="Times,serif" font-size="14.00">enable_map_align_output</text>
</g>
<!-- enable_map_align_output&#45;&gt;run_dragen_alignment_step -->
<g id="edge23" class="edge">
<title>enable_map_align_output&#45;&gt;run_dragen_alignment_step</title>
<path fill="none" stroke="black" d="M6140.54,-1802.9C6119.82,-1792.58 6092.39,-1779.94 6067,-1771.49 5345.46,-1531.26 4437.32,-1387.23 4124.69,-1341.99"/>
<polygon fill="black" stroke="black" points="4125.12,-1338.52 4114.72,-1340.56 4124.12,-1345.45 4125.12,-1338.52"/>
</g>
<!-- enable_rna -->
<g id="node16" class="node">
<title>enable_rna</title>
<polygon fill="#94ddf4" stroke="black" points="5962.5,-1802.99 5962.5,-1839.99 6057.5,-1839.99 6057.5,-1802.99 5962.5,-1802.99"/>
<text text-anchor="middle" x="6010" y="-1817.79" font-family="Times,serif" font-size="14.00">enable_rna</text>
</g>
<!-- enable_rna&#45;&gt;run_dragen_alignment_step -->
<g id="edge24" class="edge">
<title>enable_rna&#45;&gt;run_dragen_alignment_step</title>
<path fill="none" stroke="black" d="M5993.66,-1802.6C5983.05,-1792.04 5968.38,-1779.26 5953,-1771.49 5311.81,-1447.58 4432.66,-1356.29 4124.86,-1333.41"/>
<polygon fill="black" stroke="black" points="4124.83,-1329.9 4114.6,-1332.66 4124.32,-1336.88 4124.83,-1329.9"/>
</g>
<!-- enable_rna_quantification -->
<g id="node17" class="node">
<title>enable_rna_quantification</title>
<polygon fill="#94ddf4" stroke="black" points="5744,-1802.99 5744,-1839.99 5944,-1839.99 5944,-1802.99 5744,-1802.99"/>
<text text-anchor="middle" x="5844" y="-1817.79" font-family="Times,serif" font-size="14.00">enable_rna_quantification</text>
</g>
<!-- enable_rna_quantification&#45;&gt;run_dragen_alignment_step -->
<g id="edge25" class="edge">
<title>enable_rna_quantification&#45;&gt;run_dragen_alignment_step</title>
<path fill="none" stroke="black" d="M5808.78,-1802.82C5787.73,-1792.73 5760.25,-1780.36 5735,-1771.49 5132.75,-1560.02 4380.31,-1399.91 4112.92,-1346.1"/>
<polygon fill="black" stroke="black" points="4113.35,-1342.62 4102.85,-1344.08 4111.97,-1349.48 4113.35,-1342.62"/>
</g>
<!-- enable_rrna_filter -->
<g id="node18" class="node">
<title>enable_rrna_filter</title>
<polygon fill="#94ddf4" stroke="black" points="5582.5,-1802.99 5582.5,-1839.99 5725.5,-1839.99 5725.5,-1802.99 5582.5,-1802.99"/>
<text text-anchor="middle" x="5654" y="-1817.79" font-family="Times,serif" font-size="14.00">enable_rrna_filter</text>
</g>
<!-- enable_rrna_filter&#45;&gt;run_dragen_alignment_step -->
<g id="edge26" class="edge">
<title>enable_rrna_filter&#45;&gt;run_dragen_alignment_step</title>
<path fill="none" stroke="black" d="M5629.38,-1802.98C5614.03,-1792.7 5593.54,-1780.07 5574,-1771.49 5049.13,-1541.09 4372.84,-1395.88 4117.12,-1345.95"/>
<polygon fill="black" stroke="black" points="4117.58,-1342.47 4107.1,-1343.99 4116.25,-1349.34 4117.58,-1342.47"/>
</g>
<!-- enable_sort -->
<g id="node19" class="node">
<title>enable_sort</title>
<polygon fill="#94ddf4" stroke="black" points="5465.5,-1802.99 5465.5,-1839.99 5564.5,-1839.99 5564.5,-1802.99 5465.5,-1802.99"/>
<text text-anchor="middle" x="5515" y="-1817.79" font-family="Times,serif" font-size="14.00">enable_sort</text>
</g>
<!-- enable_sort&#45;&gt;run_dragen_alignment_step -->
<g id="edge27" class="edge">
<title>enable_sort&#45;&gt;run_dragen_alignment_step</title>
<path fill="none" stroke="black" d="M5497.51,-1802.79C5486.43,-1792.43 5471.34,-1779.79 5456,-1771.49 4995.5,-1522.25 4375.19,-1391.05 4124.75,-1345.41"/>
<polygon fill="black" stroke="black" points="4125.02,-1341.9 4114.55,-1343.56 4123.77,-1348.79 4125.02,-1341.9"/>
</g>
<!-- fastq_list -->
<g id="node20" class="node">
<title>fastq_list</title>
<polygon fill="#94ddf4" stroke="black" points="5365,-1802.99 5365,-1839.99 5447,-1839.99 5447,-1802.99 5365,-1802.99"/>
<text text-anchor="middle" x="5406" y="-1817.79" font-family="Times,serif" font-size="14.00">fastq_list</text>
</g>
<!-- fastq_list&#45;&gt;run_dragen_alignment_step -->
<g id="edge28" class="edge">
<title>fastq_list&#45;&gt;run_dragen_alignment_step</title>
<path fill="none" stroke="black" d="M5391.39,-1802.54C5382.17,-1792.22 5369.49,-1779.72 5356,-1771.49 4940.98,-1518.39 4365,-1390.67 4124.97,-1345.74"/>
<polygon fill="black" stroke="black" points="4125.31,-1342.24 4114.84,-1343.85 4124.03,-1349.12 4125.31,-1342.24"/>
</g>
<!-- fastq_list_rows -->
<g id="node21" class="node">
<title>fastq_list_rows</title>
<polygon fill="#94ddf4" stroke="black" points="5223.5,-1802.99 5223.5,-1839.99 5346.5,-1839.99 5346.5,-1802.99 5223.5,-1802.99"/>
<text text-anchor="middle" x="5285" y="-1817.79" font-family="Times,serif" font-size="14.00">fastq_list_rows</text>
</g>
<!-- fastq_list_rows&#45;&gt;run_dragen_alignment_step -->
<g id="edge29" class="edge">
<title>fastq_list_rows&#45;&gt;run_dragen_alignment_step</title>
<path fill="none" stroke="black" d="M5262.93,-1802.83C5249.59,-1792.74 5231.95,-1780.37 5215,-1771.49 4809.85,-1559.2 4280.39,-1400.93 4087.44,-1346.79"/>
<polygon fill="black" stroke="black" points="4088.26,-1343.38 4077.68,-1344.06 4086.37,-1350.13 4088.26,-1343.38"/>
</g>
<!-- gap_ext_pen -->
<g id="node22" class="node">
<title>gap_ext_pen</title>
<polygon fill="#94ddf4" stroke="black" points="5100.5,-1802.99 5100.5,-1839.99 5205.5,-1839.99 5205.5,-1802.99 5100.5,-1802.99"/>
<text text-anchor="middle" x="5153" y="-1817.79" font-family="Times,serif" font-size="14.00">gap_ext_pen</text>
</g>
<!-- gap_ext_pen&#45;&gt;run_dragen_alignment_step -->
<g id="edge30" class="edge">
<title>gap_ext_pen&#45;&gt;run_dragen_alignment_step</title>
<path fill="none" stroke="black" d="M5133.99,-1802.86C5122.46,-1792.78 5107.08,-1780.41 5092,-1771.49 4733.79,-1559.7 4255.91,-1401.33 4080.89,-1346.97"/>
<polygon fill="black" stroke="black" points="4081.88,-1343.61 4071.29,-1344 4079.81,-1350.3 4081.88,-1343.61"/>
</g>
<!-- gap_open_pen -->
<g id="node23" class="node">
<title>gap_open_pen</title>
<polygon fill="#94ddf4" stroke="black" points="4965.5,-1802.99 4965.5,-1839.99 5082.5,-1839.99 5082.5,-1802.99 4965.5,-1802.99"/>
<text text-anchor="middle" x="5024" y="-1817.79" font-family="Times,serif" font-size="14.00">gap_open_pen</text>
</g>
<!-- gap_open_pen&#45;&gt;run_dragen_alignment_step -->
<g id="edge31" class="edge">
<title>gap_open_pen&#45;&gt;run_dragen_alignment_step</title>
<path fill="none" stroke="black" d="M5002.09,-1802.82C4989.35,-1792.97 4972.74,-1780.84 4957,-1771.49 4633.85,-1579.54 4214.55,-1406.47 4067.12,-1347.73"/>
<polygon fill="black" stroke="black" points="4068.39,-1344.47 4057.81,-1344.02 4065.81,-1350.97 4068.39,-1344.47"/>
</g>
<!-- generate_md_tags -->
<g id="node24" class="node">
<title>generate_md_tags</title>
<polygon fill="#94ddf4" stroke="black" points="4800.5,-1802.99 4800.5,-1839.99 4947.5,-1839.99 4947.5,-1802.99 4800.5,-1802.99"/>
<text text-anchor="middle" x="4874" y="-1817.79" font-family="Times,serif" font-size="14.00">generate_md_tags</text>
</g>
<!-- generate_md_tags&#45;&gt;run_dragen_alignment_step -->
<g id="edge32" class="edge">
<title>generate_md_tags&#45;&gt;run_dragen_alignment_step</title>
<path fill="none" stroke="black" d="M4844.48,-1802.93C4828.65,-1793.55 4808.8,-1781.83 4791,-1771.49 4509.38,-1607.83 4168.12,-1414.28 4053.06,-1349.15"/>
<polygon fill="black" stroke="black" points="4054.64,-1346.02 4044.22,-1344.14 4051.2,-1352.11 4054.64,-1346.02"/>
</g>
<!-- generate_sa_tags -->
<g id="node25" class="node">
<title>generate_sa_tags</title>
<polygon fill="#94ddf4" stroke="black" points="4642,-1802.99 4642,-1839.99 4782,-1839.99 4782,-1802.99 4642,-1802.99"/>
<text text-anchor="middle" x="4712" y="-1817.79" font-family="Times,serif" font-size="14.00">generate_sa_tags</text>
</g>
<!-- generate_sa_tags&#45;&gt;run_dragen_alignment_step -->
<g id="edge33" class="edge">
<title>generate_sa_tags&#45;&gt;run_dragen_alignment_step</title>
<path fill="none" stroke="black" d="M4687.12,-1802.91C4581.08,-1727.96 4166.73,-1435.13 4046.11,-1349.89"/>
<polygon fill="black" stroke="black" points="4048.13,-1347.03 4037.94,-1344.12 4044.09,-1352.75 4048.13,-1347.03"/>
</g>
<!-- generate_zs_tags -->
<g id="node26" class="node">
<title>generate_zs_tags</title>
<polygon fill="#94ddf4" stroke="black" points="4484,-1802.99 4484,-1839.99 4624,-1839.99 4624,-1802.99 4484,-1802.99"/>
<text text-anchor="middle" x="4554" y="-1817.79" font-family="Times,serif" font-size="14.00">generate_zs_tags</text>
</g>
<!-- generate_zs_tags&#45;&gt;run_dragen_alignment_step -->
<g id="edge34" class="edge">
<title>generate_zs_tags&#45;&gt;run_dragen_alignment_step</title>
<path fill="none" stroke="black" d="M4534.75,-1802.91C4453,-1728.26 4134.54,-1437.47 4039.76,-1350.92"/>
<polygon fill="black" stroke="black" points="4042.05,-1348.28 4032.31,-1344.12 4037.33,-1353.45 4042.05,-1348.28"/>
</g>
<!-- global -->
<g id="node27" class="node">
<title>global</title>
<polygon fill="#94ddf4" stroke="black" points="4406,-1802.99 4406,-1839.99 4466,-1839.99 4466,-1802.99 4406,-1802.99"/>
<text text-anchor="middle" x="4436" y="-1817.79" font-family="Times,serif" font-size="14.00">global</text>
</g>
<!-- global&#45;&gt;run_dragen_alignment_step -->
<g id="edge35" class="edge">
<title>global&#45;&gt;run_dragen_alignment_step</title>
<path fill="none" stroke="black" d="M4422.51,-1802.62C4415.34,-1793.25 4406.32,-1781.65 4398,-1771.49 4264.23,-1608.23 4095.62,-1418.65 4035.53,-1351.57"/>
<polygon fill="black" stroke="black" points="4038.03,-1349.11 4028.75,-1344 4032.82,-1353.79 4038.03,-1349.11"/>
</g>
<!-- hard_clips -->
<g id="node28" class="node">
<title>hard_clips</title>
<polygon fill="#94ddf4" stroke="black" points="4299.5,-1802.99 4299.5,-1839.99 4388.5,-1839.99 4388.5,-1802.99 4299.5,-1802.99"/>
<text text-anchor="middle" x="4344" y="-1817.79" font-family="Times,serif" font-size="14.00">hard_clips</text>
</g>
<!-- hard_clips&#45;&gt;run_dragen_alignment_step -->
<g id="edge36" class="edge">
<title>hard_clips&#45;&gt;run_dragen_alignment_step</title>
<path fill="none" stroke="black" d="M4332.22,-1802.91C4282.51,-1728.71 4089.71,-1440.97 4030.43,-1352.51"/>
<polygon fill="black" stroke="black" points="4033.29,-1350.48 4024.81,-1344.12 4027.47,-1354.37 4033.29,-1350.48"/>
</g>
<!-- map_orientations -->
<g id="node29" class="node">
<title>map_orientations</title>
<polygon fill="#94ddf4" stroke="black" points="4141,-1802.99 4141,-1839.99 4281,-1839.99 4281,-1802.99 4141,-1802.99"/>
<text text-anchor="middle" x="4211" y="-1817.79" font-family="Times,serif" font-size="14.00">map_orientations</text>
</g>
<!-- map_orientations&#45;&gt;run_dragen_alignment_step -->
<g id="edge37" class="edge">
<title>map_orientations&#45;&gt;run_dragen_alignment_step</title>
<path fill="none" stroke="black" d="M4203.95,-1802.91C4174.34,-1729.01 4059.82,-1443.29 4023.86,-1353.59"/>
<polygon fill="black" stroke="black" points="4027.03,-1352.1 4020.07,-1344.12 4020.54,-1354.7 4027.03,-1352.1"/>
</g>
<!-- mapq_max -->
<g id="node30" class="node">
<title>mapq_max</title>
<polygon fill="#94ddf4" stroke="black" points="4029.5,-1802.99 4029.5,-1839.99 4122.5,-1839.99 4122.5,-1802.99 4029.5,-1802.99"/>
<text text-anchor="middle" x="4076" y="-1817.79" font-family="Times,serif" font-size="14.00">mapq_max</text>
</g>
<!-- mapq_max&#45;&gt;run_dragen_alignment_step -->
<g id="edge38" class="edge">
<title>mapq_max&#45;&gt;run_dragen_alignment_step</title>
<path fill="none" stroke="black" d="M4073.76,-1802.91C4064.35,-1729.16 4028.04,-1444.45 4016.53,-1354.14"/>
<polygon fill="black" stroke="black" points="4019.99,-1353.59 4015.25,-1344.12 4013.04,-1354.48 4019.99,-1353.59"/>
</g>
<!-- mapq_strict_js -->
<g id="node31" class="node">
<title>mapq_strict_js</title>
<polygon fill="#94ddf4" stroke="black" points="3891,-1802.99 3891,-1839.99 4011,-1839.99 4011,-1802.99 3891,-1802.99"/>
<text text-anchor="middle" x="3951" y="-1817.79" font-family="Times,serif" font-size="14.00">mapq_strict_js</text>
</g>
<!-- mapq_strict_js&#45;&gt;run_dragen_alignment_step -->
<g id="edge39" class="edge">
<title>mapq_strict_js&#45;&gt;run_dragen_alignment_step</title>
<path fill="none" stroke="black" d="M3953.21,-1802.91C3962.46,-1729.16 3998.2,-1444.45 4009.53,-1354.14"/>
<polygon fill="black" stroke="black" points="4013.01,-1354.48 4010.79,-1344.12 4006.07,-1353.6 4013.01,-1354.48"/>
</g>
<!-- match_n_score -->
<g id="node32" class="node">
<title>match_n_score</title>
<polygon fill="#94ddf4" stroke="black" points="3751,-1802.99 3751,-1839.99 3873,-1839.99 3873,-1802.99 3751,-1802.99"/>
<text text-anchor="middle" x="3812" y="-1817.79" font-family="Times,serif" font-size="14.00">match_n_score</text>
</g>
<!-- match_n_score&#45;&gt;run_dragen_alignment_step -->
<g id="edge40" class="edge">
<title>match_n_score&#45;&gt;run_dragen_alignment_step</title>
<path fill="none" stroke="black" d="M3819.15,-1802.91C3849.22,-1729.01 3965.48,-1443.29 4001.97,-1353.59"/>
<polygon fill="black" stroke="black" points="4005.3,-1354.7 4005.83,-1344.12 3998.82,-1352.06 4005.3,-1354.7"/>
</g>
<!-- match_score -->
<g id="node33" class="node">
<title>match_score</title>
<polygon fill="#94ddf4" stroke="black" points="3627,-1802.99 3627,-1839.99 3733,-1839.99 3733,-1802.99 3627,-1802.99"/>
<text text-anchor="middle" x="3680" y="-1817.79" font-family="Times,serif" font-size="14.00">match_score</text>
</g>
<!-- match_score&#45;&gt;run_dragen_alignment_step -->
<g id="edge41" class="edge">
<title>match_score&#45;&gt;run_dragen_alignment_step</title>
<path fill="none" stroke="black" d="M3691.85,-1802.91C3741.87,-1728.71 3935.83,-1440.97 3995.46,-1352.51"/>
<polygon fill="black" stroke="black" points="3998.43,-1354.37 4001.12,-1344.12 3992.63,-1350.45 3998.43,-1354.37"/>
</g>
<!-- max_intron_bases -->
<g id="node34" class="node">
<title>max_intron_bases</title>
<polygon fill="#94ddf4" stroke="black" points="3465,-1802.99 3465,-1839.99 3609,-1839.99 3609,-1802.99 3465,-1802.99"/>
<text text-anchor="middle" x="3537" y="-1817.79" font-family="Times,serif" font-size="14.00">max_intron_bases</text>
</g>
<!-- max_intron_bases&#45;&gt;run_dragen_alignment_step -->
<g id="edge42" class="edge">
<title>max_intron_bases&#45;&gt;run_dragen_alignment_step</title>
<path fill="none" stroke="black" d="M3553.94,-1802.91C3625.72,-1728.41 3904.94,-1438.64 3988.95,-1351.45"/>
<polygon fill="black" stroke="black" points="3991.6,-1353.75 3996.01,-1344.12 3986.55,-1348.89 3991.6,-1353.75"/>
</g>
<!-- max_rescues -->
<g id="node35" class="node">
<title>max_rescues</title>
<polygon fill="#94ddf4" stroke="black" points="3339,-1802.99 3339,-1839.99 3447,-1839.99 3447,-1802.99 3339,-1802.99"/>
<text text-anchor="middle" x="3393" y="-1817.79" font-family="Times,serif" font-size="14.00">max_rescues</text>
</g>
<!-- max_rescues&#45;&gt;run_dragen_alignment_step -->
<g id="edge43" class="edge">
<title>max_rescues&#45;&gt;run_dragen_alignment_step</title>
<path fill="none" stroke="black" d="M3415.07,-1802.91C3508.94,-1728.11 3875.18,-1436.31 3982.98,-1350.41"/>
<polygon fill="black" stroke="black" points="3985.24,-1353.09 3990.88,-1344.12 3980.87,-1347.61 3985.24,-1353.09"/>
</g>
<!-- min_intron_bases -->
<g id="node36" class="node">
<title>min_intron_bases</title>
<polygon fill="#94ddf4" stroke="black" points="3179.5,-1802.99 3179.5,-1839.99 3320.5,-1839.99 3320.5,-1802.99 3179.5,-1802.99"/>
<text text-anchor="middle" x="3250" y="-1817.79" font-family="Times,serif" font-size="14.00">min_intron_bases</text>
</g>
<!-- min_intron_bases&#45;&gt;run_dragen_alignment_step -->
<g id="edge44" class="edge">
<title>min_intron_bases&#45;&gt;run_dragen_alignment_step</title>
<path fill="none" stroke="black" d="M3277.16,-1802.91C3393.03,-1727.89 3846.1,-1434.55 3977.25,-1349.64"/>
<polygon fill="black" stroke="black" points="3979.28,-1352.49 3985.77,-1344.12 3975.48,-1346.61 3979.28,-1352.49"/>
</g>
<!-- min_score_coeff -->
<g id="node37" class="node">
<title>min_score_coeff</title>
<polygon fill="#94ddf4" stroke="black" points="3032.5,-1802.99 3032.5,-1839.99 3161.5,-1839.99 3161.5,-1802.99 3032.5,-1802.99"/>
<text text-anchor="middle" x="3097" y="-1817.79" font-family="Times,serif" font-size="14.00">min_score_coeff</text>
</g>
<!-- min_score_coeff&#45;&gt;run_dragen_alignment_step -->
<g id="edge45" class="edge">
<title>min_score_coeff&#45;&gt;run_dragen_alignment_step</title>
<path fill="none" stroke="black" d="M3122.29,-1802.85C3136.4,-1793.23 3154.44,-1781.32 3171,-1771.49 3467.52,-1595.55 3839.66,-1410.97 3967.47,-1348.57"/>
<polygon fill="black" stroke="black" points="3969.15,-1351.64 3976.6,-1344.11 3966.08,-1345.35 3969.15,-1351.64"/>
</g>
<!-- mismatch_pen -->
<g id="node38" class="node">
<title>mismatch_pen</title>
<polygon fill="#94ddf4" stroke="black" points="2895.5,-1802.99 2895.5,-1839.99 3014.5,-1839.99 3014.5,-1802.99 2895.5,-1802.99"/>
<text text-anchor="middle" x="2955" y="-1817.79" font-family="Times,serif" font-size="14.00">mismatch_pen</text>
</g>
<!-- mismatch_pen&#45;&gt;run_dragen_alignment_step -->
<g id="edge46" class="edge">
<title>mismatch_pen&#45;&gt;run_dragen_alignment_step</title>
<path fill="none" stroke="black" d="M2977.57,-1802.77C2990.7,-1792.9 3007.81,-1780.76 3024,-1771.49 3362.52,-1577.59 3800.95,-1406.05 3955.79,-1347.7"/>
<polygon fill="black" stroke="black" points="3957.45,-1350.81 3965.58,-1344.02 3954.99,-1344.26 3957.45,-1350.81"/>
</g>
<!-- no_unclip_score -->
<g id="node39" class="node">
<title>no_unclip_score</title>
<polygon fill="#94ddf4" stroke="black" points="2748.5,-1802.99 2748.5,-1839.99 2877.5,-1839.99 2877.5,-1802.99 2748.5,-1802.99"/>
<text text-anchor="middle" x="2813" y="-1817.79" font-family="Times,serif" font-size="14.00">no_unclip_score</text>
</g>
<!-- no_unclip_score&#45;&gt;run_dragen_alignment_step -->
<g id="edge47" class="edge">
<title>no_unclip_score&#45;&gt;run_dragen_alignment_step</title>
<path fill="none" stroke="black" d="M2836.88,-1802.83C2851.01,-1792.86 2869.51,-1780.61 2887,-1771.49 3272.75,-1570.36 3770.72,-1403.59 3947.34,-1347.08"/>
<polygon fill="black" stroke="black" points="3948.55,-1350.37 3957.01,-1343.99 3946.42,-1343.7 3948.55,-1350.37"/>
</g>
<!-- no_unpaired -->
<g id="node40" class="node">
<title>no_unpaired</title>
<polygon fill="#94ddf4" stroke="black" points="2626,-1802.99 2626,-1839.99 2730,-1839.99 2730,-1802.99 2626,-1802.99"/>
<text text-anchor="middle" x="2678" y="-1817.79" font-family="Times,serif" font-size="14.00">no_unpaired</text>
</g>
<!-- no_unpaired&#45;&gt;run_dragen_alignment_step -->
<g id="edge48" class="edge">
<title>no_unpaired&#45;&gt;run_dragen_alignment_step</title>
<path fill="none" stroke="black" d="M2696.91,-1802.81C2708.63,-1792.58 2724.37,-1780.08 2740,-1771.49 3156.56,-1542.54 3713.07,-1396.85 3925.55,-1346.36"/>
<polygon fill="black" stroke="black" points="3926.48,-1349.73 3935.4,-1344.02 3924.86,-1342.92 3926.48,-1349.73"/>
</g>
<!-- output_directory -->
<g id="node41" class="node">
<title>output_directory</title>
<polygon fill="#94ddf4" stroke="black" points="2472,-1802.99 2472,-1839.99 2608,-1839.99 2608,-1802.99 2472,-1802.99"/>
<text text-anchor="middle" x="2540" y="-1817.79" font-family="Times,serif" font-size="14.00">output_directory</text>
</g>
<!-- output_directory&#45;&gt;run_dragen_alignment_step -->
<g id="edge49" class="edge">
<title>output_directory&#45;&gt;run_dragen_alignment_step</title>
<path fill="none" stroke="black" d="M2564.04,-1802.91C2578.78,-1792.72 2598.34,-1780.22 2617,-1771.49 3088.93,-1550.66 3699.36,-1398.33 3924.54,-1346.25"/>
<polygon fill="black" stroke="black" points="3925.37,-1349.65 3934.32,-1344 3923.79,-1342.83 3925.37,-1349.65"/>
</g>
<!-- pe_max_penalty -->
<g id="node42" class="node">
<title>pe_max_penalty</title>
<polygon fill="#94ddf4" stroke="black" points="2322.5,-1802.99 2322.5,-1839.99 2453.5,-1839.99 2453.5,-1802.99 2322.5,-1802.99"/>
<text text-anchor="middle" x="2388" y="-1817.79" font-family="Times,serif" font-size="14.00">pe_max_penalty</text>
</g>
<!-- pe_max_penalty&#45;&gt;run_dragen_alignment_step -->
<g id="edge50" class="edge">
<title>pe_max_penalty&#45;&gt;run_dragen_alignment_step</title>
<path fill="none" stroke="black" d="M2410.93,-1802.91C2425.27,-1792.6 2444.47,-1779.97 2463,-1771.49 2978.01,-1535.83 3646.98,-1394.74 3904.98,-1345.91"/>
<polygon fill="black" stroke="black" points="3905.92,-1349.29 3915.1,-1344 3904.62,-1342.42 3905.92,-1349.29"/>
</g>
<!-- pe_orientation -->
<g id="node43" class="node">
<title>pe_orientation</title>
<polygon fill="#94ddf4" stroke="black" points="2185.5,-1802.99 2185.5,-1839.99 2304.5,-1839.99 2304.5,-1802.99 2185.5,-1802.99"/>
<text text-anchor="middle" x="2245" y="-1817.79" font-family="Times,serif" font-size="14.00">pe_orientation</text>
</g>
<!-- pe_orientation&#45;&gt;run_dragen_alignment_step -->
<g id="edge51" class="edge">
<title>pe_orientation&#45;&gt;run_dragen_alignment_step</title>
<path fill="none" stroke="black" d="M2265.51,-1802.91C2278.63,-1792.47 2296.43,-1779.69 2314,-1771.49 2877.9,-1508.2 3622.6,-1381.87 3901.36,-1341.48"/>
<polygon fill="black" stroke="black" points="3902.08,-1344.91 3911.48,-1340.02 3901.09,-1337.98 3902.08,-1344.91"/>
</g>
<!-- preserve_map_align_order -->
<g id="node44" class="node">
<title>preserve_map_align_order</title>
<polygon fill="#94ddf4" stroke="black" points="1962.5,-1802.99 1962.5,-1839.99 2167.5,-1839.99 2167.5,-1802.99 1962.5,-1802.99"/>
<text text-anchor="middle" x="2065" y="-1817.79" font-family="Times,serif" font-size="14.00">preserve_map_align_order</text>
</g>
<!-- preserve_map_align_order&#45;&gt;run_dragen_alignment_step -->
<g id="edge52" class="edge">
<title>preserve_map_align_order&#45;&gt;run_dragen_alignment_step</title>
<path fill="none" stroke="black" d="M2100.69,-1802.97C2122.38,-1792.8 2150.85,-1780.3 2177,-1771.49 2818.19,-1555.37 3618.3,-1398.58 3904.78,-1345.86"/>
<polygon fill="black" stroke="black" points="3905.55,-1349.27 3914.76,-1344.02 3904.29,-1342.39 3905.55,-1349.27"/>
</g>
<!-- reference_tar -->
<g id="node45" class="node">
<title>reference_tar</title>
<polygon fill="#94ddf4" stroke="black" points="1831.5,-1802.99 1831.5,-1839.99 1944.5,-1839.99 1944.5,-1802.99 1831.5,-1802.99"/>
<text text-anchor="middle" x="1888" y="-1817.79" font-family="Times,serif" font-size="14.00">reference_tar</text>
</g>
<!-- reference_tar&#45;&gt;run_dragen_alignment_step -->
<g id="edge53" class="edge">
<title>reference_tar&#45;&gt;run_dragen_alignment_step</title>
<path fill="none" stroke="black" d="M1907.1,-1802.85C1919.57,-1792.25 1936.71,-1779.33 1954,-1771.49 2650.47,-1455.66 3582.9,-1358.88 3901.15,-1334.02"/>
<polygon fill="black" stroke="black" points="3901.59,-1337.5 3911.3,-1333.24 3901.06,-1330.52 3901.59,-1337.5"/>
</g>
<!-- remove_duplicates -->
<g id="node46" class="node">
<title>remove_duplicates</title>
<polygon fill="#94ddf4" stroke="black" points="1663,-1802.99 1663,-1839.99 1813,-1839.99 1813,-1802.99 1663,-1802.99"/>
<text text-anchor="middle" x="1738" y="-1817.79" font-family="Times,serif" font-size="14.00">remove_duplicates</text>
</g>
<!-- remove_duplicates&#45;&gt;run_dragen_alignment_step -->
<g id="edge54" class="edge">
<title>remove_duplicates&#45;&gt;run_dragen_alignment_step</title>
<path fill="none" stroke="black" d="M1763.34,-1802.98C1779.7,-1792.42 1801.81,-1779.51 1823,-1771.49 2585.98,-1482.82 3572.97,-1368.15 3901.31,-1336.39"/>
<polygon fill="black" stroke="black" points="3901.68,-1339.87 3911.3,-1335.42 3901.01,-1332.9 3901.68,-1339.87"/>
</g>
<!-- rescue_sigmas -->
<g id="node47" class="node">
<title>rescue_sigmas</title>
<polygon fill="#94ddf4" stroke="black" points="1523.5,-1802.99 1523.5,-1839.99 1644.5,-1839.99 1644.5,-1802.99 1523.5,-1802.99"/>
<text text-anchor="middle" x="1584" y="-1817.79" font-family="Times,serif" font-size="14.00">rescue_sigmas</text>
</g>
<!-- rescue_sigmas&#45;&gt;run_dragen_alignment_step -->
<g id="edge55" class="edge">
<title>rescue_sigmas&#45;&gt;run_dragen_alignment_step</title>
<path fill="none" stroke="black" d="M1604.06,-1802.97C1617.36,-1792.27 1635.68,-1779.2 1654,-1771.49 2469.38,-1428.11 3554.57,-1348.22 3901.44,-1330.95"/>
<polygon fill="black" stroke="black" points="3901.67,-1334.44 3911.49,-1330.46 3901.33,-1327.45 3901.67,-1334.44"/>
</g>
<!-- sec_aligns -->
<g id="node48" class="node">
<title>sec_aligns</title>
<polygon fill="#94ddf4" stroke="black" points="1416.5,-1802.99 1416.5,-1839.99 1505.5,-1839.99 1505.5,-1802.99 1416.5,-1802.99"/>
<text text-anchor="middle" x="1461" y="-1817.79" font-family="Times,serif" font-size="14.00">sec_aligns</text>
</g>
<!-- sec_aligns&#45;&gt;run_dragen_alignment_step -->
<g id="edge56" class="edge">
<title>sec_aligns&#45;&gt;run_dragen_alignment_step</title>
<path fill="none" stroke="black" d="M1475.73,-1802.81C1485.69,-1792.04 1499.77,-1778.97 1515,-1771.49 1948.75,-1558.43 3473.88,-1383.71 3901.05,-1338.11"/>
<polygon fill="black" stroke="black" points="3901.67,-1341.56 3911.24,-1337.02 3900.93,-1334.6 3901.67,-1341.56"/>
</g>
<!-- sec_aligns_hard -->
<g id="node49" class="node">
<title>sec_aligns_hard</title>
<polygon fill="#94ddf4" stroke="black" points="1269.5,-1802.99 1269.5,-1839.99 1398.5,-1839.99 1398.5,-1802.99 1269.5,-1802.99"/>
<text text-anchor="middle" x="1334" y="-1817.79" font-family="Times,serif" font-size="14.00">sec_aligns_hard</text>
</g>
<!-- sec_aligns_hard&#45;&gt;run_dragen_alignment_step -->
<g id="edge57" class="edge">
<title>sec_aligns_hard&#45;&gt;run_dragen_alignment_step</title>
<path fill="none" stroke="black" d="M1355.32,-1802.89C1369.43,-1792.16 1388.8,-1779.09 1408,-1771.49 2322.45,-1409.39 3532.04,-1341.68 3901.28,-1329.24"/>
<polygon fill="black" stroke="black" points="3901.55,-1332.73 3911.43,-1328.9 3901.32,-1325.74 3901.55,-1332.73"/>
</g>
<!-- sec_phred_delta -->
<g id="node50" class="node">
<title>sec_phred_delta</title>
<polygon fill="#94ddf4" stroke="black" points="1120.5,-1802.99 1120.5,-1839.99 1251.5,-1839.99 1251.5,-1802.99 1120.5,-1802.99"/>
<text text-anchor="middle" x="1186" y="-1817.79" font-family="Times,serif" font-size="14.00">sec_phred_delta</text>
</g>
<!-- sec_phred_delta&#45;&gt;run_dragen_alignment_step -->
<g id="edge58" class="edge">
<title>sec_phred_delta&#45;&gt;run_dragen_alignment_step</title>
<path fill="none" stroke="black" d="M1207.62,-1802.84C1221.93,-1792.09 1241.57,-1779.02 1261,-1771.49 2233.47,-1394.85 3518.54,-1336.98 3901.04,-1328.1"/>
<polygon fill="black" stroke="black" points="3901.36,-1331.59 3911.28,-1327.87 3901.2,-1324.59 3901.36,-1331.59"/>
</g>
<!-- sec_score_delta -->
<g id="node51" class="node">
<title>sec_score_delta</title>
<polygon fill="#94ddf4" stroke="black" points="974,-1802.99 974,-1839.99 1102,-1839.99 1102,-1802.99 974,-1802.99"/>
<text text-anchor="middle" x="1038" y="-1817.79" font-family="Times,serif" font-size="14.00">sec_score_delta</text>
</g>
<!-- sec_score_delta&#45;&gt;run_dragen_alignment_step -->
<g id="edge59" class="edge">
<title>sec_score_delta&#45;&gt;run_dragen_alignment_step</title>
<path fill="none" stroke="black" d="M1059.28,-1802.78C1073.37,-1792 1092.74,-1778.93 1112,-1771.49 2141.71,-1373.83 3506.08,-1330.53 3901.34,-1326.61"/>
<polygon fill="black" stroke="black" points="3901.38,-1330.11 3911.35,-1326.52 3901.32,-1323.11 3901.38,-1330.11"/>
</g>
<!-- seed_density -->
<g id="node52" class="node">
<title>seed_density</title>
<polygon fill="#94ddf4" stroke="black" points="846.5,-1802.99 846.5,-1839.99 955.5,-1839.99 955.5,-1802.99 846.5,-1802.99"/>
<text text-anchor="middle" x="901" y="-1817.79" font-family="Times,serif" font-size="14.00">seed_density</text>
</g>
<!-- seed_density&#45;&gt;run_dragen_alignment_step -->
<g id="edge60" class="edge">
<title>seed_density&#45;&gt;run_dragen_alignment_step</title>
<path fill="none" stroke="black" d="M918.71,-1802.92C930.75,-1792.06 947.59,-1778.83 965,-1771.49 1514.32,-1539.76 3419.01,-1374.11 3901.32,-1335.23"/>
<polygon fill="black" stroke="black" points="3901.74,-1338.71 3911.42,-1334.42 3901.17,-1331.73 3901.74,-1338.71"/>
</g>
<!-- supp_aligns -->
<g id="node53" class="node">
<title>supp_aligns</title>
<polygon fill="#94ddf4" stroke="black" points="727.5,-1802.99 727.5,-1839.99 828.5,-1839.99 828.5,-1802.99 727.5,-1802.99"/>
<text text-anchor="middle" x="778" y="-1817.79" font-family="Times,serif" font-size="14.00">supp_aligns</text>
</g>
<!-- supp_aligns&#45;&gt;run_dragen_alignment_step -->
<g id="edge61" class="edge">
<title>supp_aligns&#45;&gt;run_dragen_alignment_step</title>
<path fill="none" stroke="black" d="M794.39,-1802.87C805.59,-1791.99 821.36,-1778.76 838,-1771.49 1408.48,-1522.16 3406.49,-1368.77 3901.43,-1334.04"/>
<polygon fill="black" stroke="black" points="3901.71,-1337.53 3911.44,-1333.34 3901.22,-1330.55 3901.71,-1337.53"/>
</g>
<!-- supp_as_sec -->
<g id="node54" class="node">
<title>supp_as_sec</title>
<polygon fill="#94ddf4" stroke="black" points="605,-1802.99 605,-1839.99 709,-1839.99 709,-1802.99 605,-1802.99"/>
<text text-anchor="middle" x="657" y="-1817.79" font-family="Times,serif" font-size="14.00">supp_as_sec</text>
</g>
<!-- supp_as_sec&#45;&gt;run_dragen_alignment_step -->
<g id="edge62" class="edge">
<title>supp_as_sec&#45;&gt;run_dragen_alignment_step</title>
<path fill="none" stroke="black" d="M674.03,-1802.85C685.64,-1791.96 701.95,-1778.73 719,-1771.49 1314.62,-1518.58 3394.68,-1367.27 3901.18,-1333.65"/>
<polygon fill="black" stroke="black" points="3901.66,-1337.12 3911.41,-1332.97 3901.2,-1330.14 3901.66,-1337.12"/>
</g>
<!-- supp_min_score_adj -->
<g id="node55" class="node">
<title>supp_min_score_adj</title>
<polygon fill="#94ddf4" stroke="black" points="429,-1802.99 429,-1839.99 587,-1839.99 587,-1802.99 429,-1802.99"/>
<text text-anchor="middle" x="508" y="-1817.79" font-family="Times,serif" font-size="14.00">supp_min_score_adj</text>
</g>
<!-- supp_min_score_adj&#45;&gt;run_dragen_alignment_step -->
<g id="edge63" class="edge">
<title>supp_min_score_adj&#45;&gt;run_dragen_alignment_step</title>
<path fill="none" stroke="black" d="M533.37,-1802.96C550.34,-1792.11 573.58,-1778.89 596,-1771.49 1843.8,-1359.67 3465.82,-1326.94 3901.33,-1325.95"/>
<polygon fill="black" stroke="black" points="3901.41,-1329.45 3911.4,-1325.93 3901.39,-1322.45 3901.41,-1329.45"/>
</g>
<!-- unclip_score -->
<g id="node56" class="node">
<title>unclip_score</title>
<polygon fill="#94ddf4" stroke="black" points="305.5,-1802.99 305.5,-1839.99 410.5,-1839.99 410.5,-1802.99 305.5,-1802.99"/>
<text text-anchor="middle" x="358" y="-1817.79" font-family="Times,serif" font-size="14.00">unclip_score</text>
</g>
<!-- unclip_score&#45;&gt;run_dragen_alignment_step -->
<g id="edge64" class="edge">
<title>unclip_score&#45;&gt;run_dragen_alignment_step</title>
<path fill="none" stroke="black" d="M375.01,-1802.79C386.6,-1791.87 402.91,-1778.63 420,-1771.49 1074.37,-1497.89 3367.38,-1360.85 3901.3,-1332.22"/>
<polygon fill="black" stroke="black" points="3901.51,-1335.72 3911.31,-1331.69 3901.14,-1328.73 3901.51,-1335.72"/>
</g>
<!-- unpaired_pen -->
<g id="node57" class="node">
<title>unpaired_pen</title>
<polygon fill="#94ddf4" stroke="black" points="174.5,-1802.99 174.5,-1839.99 287.5,-1839.99 287.5,-1802.99 174.5,-1802.99"/>
<text text-anchor="middle" x="231" y="-1817.79" font-family="Times,serif" font-size="14.00">unpaired_pen</text>
</g>
<!-- unpaired_pen&#45;&gt;run_dragen_alignment_step -->
<g id="edge65" class="edge">
<title>unpaired_pen&#45;&gt;run_dragen_alignment_step</title>
<path fill="none" stroke="black" d="M249.3,-1802.77C261.73,-1791.85 279.1,-1778.62 297,-1771.49 979.68,-1499.68 3356.75,-1360.8 3901.27,-1332.13"/>
<polygon fill="black" stroke="black" points="3901.68,-1335.62 3911.48,-1331.6 3901.31,-1328.63 3901.68,-1335.62"/>
</g>
<!-- verbose -->
<g id="node58" class="node">
<title>verbose</title>
<polygon fill="#94ddf4" stroke="black" points="8174.5,-1802.99 8174.5,-1839.99 8247.5,-1839.99 8247.5,-1802.99 8174.5,-1802.99"/>
<text text-anchor="middle" x="8211" y="-1817.79" font-family="Times,serif" font-size="14.00">verbose</text>
</g>
<!-- verbose&#45;&gt;run_dragen_alignment_step -->
<g id="edge66" class="edge">
<title>verbose&#45;&gt;run_dragen_alignment_step</title>
<path fill="none" stroke="black" d="M8199.85,-1802.95C8191.85,-1791.95 8180.02,-1778.57 8166,-1771.49 7428.09,-1399.13 4711.09,-1337.06 4124.93,-1327.93"/>
<polygon fill="black" stroke="black" points="4124.84,-1324.43 4114.79,-1327.78 4124.74,-1331.43 4124.84,-1324.43"/>
</g>
<!-- dragen_alignment_output_directory -->
<g id="node59" class="node">
<title>dragen_alignment_output_directory</title>
<polygon fill="#94ddf4" stroke="black" points="3656,-354.99 3656,-391.99 3928,-391.99 3928,-354.99 3656,-354.99"/>
<text text-anchor="middle" x="3792" y="-369.79" font-family="Times,serif" font-size="14.00">dragen_alignment_output_directory</text>
</g>
<!-- dragen_bam_out -->
<g id="node60" class="node">
<title>dragen_bam_out</title>
<polygon fill="#94ddf4" stroke="black" points="3946,-354.99 3946,-391.99 4080,-391.99 4080,-354.99 3946,-354.99"/>
<text text-anchor="middle" x="4013" y="-369.79" font-family="Times,serif" font-size="14.00">dragen_bam_out</text>
</g>
<!-- multiqc_output_directory -->
<g id="node61" class="node">
<title>multiqc_output_directory</title>
<polygon fill="#94ddf4" stroke="black" points="3440.5,-354.99 3440.5,-391.99 3637.5,-391.99 3637.5,-354.99 3440.5,-354.99"/>
<text text-anchor="middle" x="3539" y="-369.79" font-family="Times,serif" font-size="14.00">multiqc_output_directory</text>
</g>
<!-- create_dummy_file_step -->
<g id="node62" class="node">
<title>create_dummy_file_step</title>
<polygon fill="lightgoldenrodyellow" stroke="black" points="132.5,-1306.99 132.5,-1343.99 393.5,-1343.99 393.5,-1306.99 132.5,-1306.99"/>
<text text-anchor="middle" x="263" y="-1321.79" font-family="Times,serif" font-size="14.00">custom&#45;create&#45;dummy&#45;file v(1.0.0)</text>
</g>
<!-- create_dummy_file_step&#45;&gt;dragen_qc_step -->
<g id="edge1" class="edge">
<title>create_dummy_file_step&#45;&gt;dragen_qc_step</title>
<path fill="none" stroke="black" d="M256.38,-1306.77C229.52,-1234.83 128.48,-964.26 96.07,-877.46"/>
<polygon fill="black" stroke="black" points="99.33,-876.19 92.55,-868.04 92.77,-878.64 99.33,-876.19"/>
</g>
<!-- dragen_qc_step&#45;&gt;multiqc_output_directory -->
<g id="edge2" class="edge">
<title>dragen_qc_step&#45;&gt;multiqc_output_directory</title>
<path fill="none" stroke="black" d="M155.76,-838.91C588.01,-779.58 2899.9,-462.22 3430.44,-389.39"/>
<polygon fill="black" stroke="black" points="3430.96,-392.85 3440.39,-388.03 3430,-385.92 3430.96,-392.85"/>
</g>
<!-- run_dragen_alignment_step&#45;&gt;dragen_alignment_output_directory -->
<g id="edge4" class="edge">
<title>run_dragen_alignment_step&#45;&gt;dragen_alignment_output_directory</title>
<path fill="none" stroke="black" d="M4008.88,-1306.78C3981.99,-1191.17 3831.52,-544.38 3798.43,-402.15"/>
<polygon fill="black" stroke="black" points="3801.77,-401.03 3796.09,-392.08 3794.95,-402.61 3801.77,-401.03"/>
</g>
<!-- run_dragen_alignment_step&#45;&gt;dragen_bam_out -->
<g id="edge5" class="edge">
<title>run_dragen_alignment_step&#45;&gt;dragen_bam_out</title>
<path fill="none" stroke="black" d="M4013,-1306.78C4013,-1191.17 4013,-544.38 4013,-402.15"/>
<polygon fill="black" stroke="black" points="4016.5,-402.08 4013,-392.08 4009.5,-402.08 4016.5,-402.08"/>
</g>
<!-- run_dragen_alignment_step&#45;&gt;dragen_qc_step -->
<g id="edge3" class="edge">
<title>run_dragen_alignment_step&#45;&gt;dragen_qc_step</title>
<path fill="none" stroke="black" d="M3911.48,-1312.24C3353.26,-1244.86 664.35,-920.3 165.67,-860.11"/>
<polygon fill="black" stroke="black" points="166.03,-856.62 155.68,-858.9 165.19,-863.57 166.03,-856.62"/>
</g>
<!-- \n -->
<g id="node65" class="node">
<title>\n</title>
<ellipse fill="none" stroke="black" cx="8293" cy="-1821.49" rx="27" ry="18"/>
</g>
</g>
</svg>
