<?xml version="1.0" encoding="UTF-8" standalone="no"?>
<!DOCTYPE svg PUBLIC "-//W3C//DTD SVG 1.1//EN"
 "http://www.w3.org/Graphics/SVG/1.1/DTD/svg11.dtd">
<!-- Generated by graphviz version 2.43.0 (0)
 -->
<!-- Title: G Pages: 1 -->
<svg width="8494pt" height="2095pt"
 viewBox="0.00 0.00 8493.50 2095.31" xmlns="http://www.w3.org/2000/svg" xmlns:xlink="http://www.w3.org/1999/xlink">
<g id="graph0" class="graph" transform="scale(1 1) rotate(0) translate(4 2091.31)">
<title>G</title>
<polygon fill="#eeeeee" stroke="transparent" points="-4,4 -4,-2091.31 8489.5,-2091.31 8489.5,4 -4,4"/>
<g id="clust1" class="cluster">
<title>cluster_inputs</title>
<polygon fill="#eeeeee" stroke="black" stroke-dasharray="5,2" points="8,-1529.38 8,-2034.8 8256,-2034.8 8256,-1529.38 8,-1529.38"/>
<text text-anchor="middle" x="8189.5" y="-1537.18" font-family="Times,serif" font-size="14.00">Workflow Inputs</text>
</g>
<g id="clust2" class="cluster">
<title>cluster_outputs</title>
<polygon fill="#eeeeee" stroke="black" stroke-dasharray="5,2" points="4067,-52.51 4067,-557.93 4723,-557.93 4723,-52.51 4067,-52.51"/>
<text text-anchor="middle" x="4650.5" y="-60.31" font-family="Times,serif" font-size="14.00">Workflow Outputs</text>
</g>
<!-- output_file_prefix -->
<g id="node1" class="node">
<title>output_file_prefix</title>
<polygon fill="#94ddf4" stroke="black" points="8108,-1839.01 8108,-1876.01 8248,-1876.01 8248,-1839.01 8108,-1839.01"/>
<text text-anchor="middle" x="8178" y="-1853.81" font-family="Times,serif" font-size="14.00">output_file_prefix</text>
</g>
<!-- run_dragen_alignment_step -->
<g id="node62" class="node">
<title>run_dragen_alignment_step</title>
<polygon fill="lightgoldenrodyellow" stroke="black" points="4109.5,-1334.01 4109.5,-1371.01 4312.5,-1371.01 4312.5,-1334.01 4109.5,-1334.01"/>
<text text-anchor="middle" x="4211" y="-1348.81" font-family="Times,serif" font-size="14.00">dragen&#45;alignment v(4.2.4)</text>
</g>
<!-- output_file_prefix&#45;&gt;run_dragen_alignment_step -->
<g id="edge6" class="edge">
<title>output_file_prefix&#45;&gt;run_dragen_alignment_step</title>
<path fill="none" stroke="black" d="M8155.52,-1838.83C8140.42,-1827.92 8119.57,-1814.69 8099,-1807.51 7371.39,-1553.63 4881.49,-1393.26 4322.85,-1359.98"/>
<polygon fill="black" stroke="black" points="4322.97,-1356.48 4312.78,-1359.38 4322.55,-1363.47 4322.97,-1356.48"/>
</g>
<!-- dragen_qc_step -->
<g id="node63" class="node">
<title>dragen_qc_step</title>
<polygon fill="lightgoldenrodyellow" stroke="black" points="8108.5,-848.01 8108.5,-885.01 8247.5,-885.01 8247.5,-848.01 8108.5,-848.01"/>
<text text-anchor="middle" x="8178" y="-862.81" font-family="Times,serif" font-size="14.00">multiqc v(1.15.0)</text>
</g>
<!-- output_file_prefix&#45;&gt;dragen_qc_step -->
<g id="edge7" class="edge">
<title>output_file_prefix&#45;&gt;dragen_qc_step</title>
<path fill="none" stroke="black" d="M8174.07,-1838.93C8161.64,-1720.72 8161.32,-1042.19 8173.12,-895.48"/>
<polygon fill="black" stroke="black" points="8176.64,-895.39 8174.06,-885.11 8169.67,-894.75 8176.64,-895.39"/>
</g>
<!-- output_file_prefix&#45;&gt;dragen_qc_step -->
<g id="edge8" class="edge">
<title>output_file_prefix&#45;&gt;dragen_qc_step</title>
<path fill="none" stroke="black" d="M8178,-1838.93C8178,-1720.72 8178,-1042.19 8178,-895.48"/>
<polygon fill="black" stroke="black" points="8181.5,-895.11 8178,-885.11 8174.5,-895.11 8181.5,-895.11"/>
</g>
<!-- output_file_prefix&#45;&gt;dragen_qc_step -->
<g id="edge9" class="edge">
<title>output_file_prefix&#45;&gt;dragen_qc_step</title>
<path fill="none" stroke="black" d="M8181.93,-1838.93C8194.36,-1720.72 8194.68,-1042.19 8182.88,-895.48"/>
<polygon fill="black" stroke="black" points="8186.33,-894.75 8181.94,-885.11 8179.36,-895.39 8186.33,-894.75"/>
</g>
<!-- aln_min_score -->
<g id="node2" class="node">
<title>aln_min_score</title>
<polygon fill="#94ddf4" stroke="black" points="7972.5,-1839.01 7972.5,-1876.01 8089.5,-1876.01 8089.5,-1839.01 7972.5,-1839.01"/>
<text text-anchor="middle" x="8031" y="-1853.81" font-family="Times,serif" font-size="14.00">aln_min_score</text>
</g>
<!-- aln_min_score&#45;&gt;run_dragen_alignment_step -->
<g id="edge10" class="edge">
<title>aln_min_score&#45;&gt;run_dragen_alignment_step</title>
<path fill="none" stroke="black" d="M8012.05,-1838.81C7999.21,-1827.89 7981.3,-1814.66 7963,-1807.51 7271.46,-1537.36 4870.53,-1390.06 4322.83,-1359.52"/>
<polygon fill="black" stroke="black" points="4322.74,-1356.01 4312.56,-1358.94 4322.35,-1362.99 4322.74,-1356.01"/>
</g>
<!-- alt_aware -->
<g id="node3" class="node">
<title>alt_aware</title>
<polygon fill="#94ddf4" stroke="black" points="7868,-1839.01 7868,-1876.01 7954,-1876.01 7954,-1839.01 7868,-1839.01"/>
<text text-anchor="middle" x="7911" y="-1853.81" font-family="Times,serif" font-size="14.00">alt_aware</text>
</g>
<!-- alt_aware&#45;&gt;run_dragen_alignment_step -->
<g id="edge11" class="edge">
<title>alt_aware&#45;&gt;run_dragen_alignment_step</title>
<path fill="none" stroke="black" d="M7897.07,-1838.55C7887.58,-1827.68 7874.04,-1814.59 7859,-1807.51 7206.45,-1500.49 4863.08,-1381.73 4322.71,-1358.11"/>
<polygon fill="black" stroke="black" points="4322.72,-1354.6 4312.58,-1357.67 4322.41,-1361.6 4322.72,-1354.6"/>
</g>
<!-- ann_sj_max_indel -->
<g id="node4" class="node">
<title>ann_sj_max_indel</title>
<polygon fill="#94ddf4" stroke="black" points="7710,-1839.01 7710,-1876.01 7850,-1876.01 7850,-1839.01 7710,-1839.01"/>
<text text-anchor="middle" x="7780" y="-1853.81" font-family="Times,serif" font-size="14.00">ann_sj_max_indel</text>
</g>
<!-- ann_sj_max_indel&#45;&gt;run_dragen_alignment_step -->
<g id="edge12" class="edge">
<title>ann_sj_max_indel&#45;&gt;run_dragen_alignment_step</title>
<path fill="none" stroke="black" d="M7757.49,-1838.92C7742.37,-1828.05 7721.52,-1814.82 7701,-1807.51 7053.11,-1576.67 4845.67,-1400.73 4322.73,-1361.65"/>
<polygon fill="black" stroke="black" points="4322.78,-1358.15 4312.55,-1360.89 4322.26,-1365.13 4322.78,-1358.15"/>
</g>
<!-- annotation_file -->
<g id="node5" class="node">
<title>annotation_file</title>
<polygon fill="#94ddf4" stroke="black" points="7570,-1839.01 7570,-1876.01 7692,-1876.01 7692,-1839.01 7570,-1839.01"/>
<text text-anchor="middle" x="7631" y="-1853.81" font-family="Times,serif" font-size="14.00">annotation_file</text>
</g>
<!-- annotation_file&#45;&gt;run_dragen_alignment_step -->
<g id="edge13" class="edge">
<title>annotation_file&#45;&gt;run_dragen_alignment_step</title>
<path fill="none" stroke="black" d="M7611.37,-1838.91C7598.1,-1828.03 7579.65,-1814.8 7561,-1807.51 6947.54,-1567.66 4834.54,-1399.39 4323.12,-1361.57"/>
<polygon fill="black" stroke="black" points="4323.02,-1358.05 4312.79,-1360.8 4322.5,-1365.03 4323.02,-1358.05"/>
</g>
<!-- dedup_min_qual -->
<g id="node6" class="node">
<title>dedup_min_qual</title>
<polygon fill="#94ddf4" stroke="black" points="7420,-1839.01 7420,-1876.01 7552,-1876.01 7552,-1839.01 7420,-1839.01"/>
<text text-anchor="middle" x="7486" y="-1853.81" font-family="Times,serif" font-size="14.00">dedup_min_qual</text>
</g>
<!-- dedup_min_qual&#45;&gt;run_dragen_alignment_step -->
<g id="edge14" class="edge">
<title>dedup_min_qual&#45;&gt;run_dragen_alignment_step</title>
<path fill="none" stroke="black" d="M7464.74,-1838.97C7450.43,-1828.13 7430.65,-1814.9 7411,-1807.51 6823.55,-1586.51 4819.14,-1405.07 4322.85,-1362.81"/>
<polygon fill="black" stroke="black" points="4323.08,-1359.32 4312.82,-1361.96 4322.48,-1366.29 4323.08,-1359.32"/>
</g>
<!-- edit_chain_limit -->
<g id="node7" class="node">
<title>edit_chain_limit</title>
<polygon fill="#94ddf4" stroke="black" points="7272.5,-1839.01 7272.5,-1876.01 7401.5,-1876.01 7401.5,-1839.01 7272.5,-1839.01"/>
<text text-anchor="middle" x="7337" y="-1853.81" font-family="Times,serif" font-size="14.00">edit_chain_limit</text>
</g>
<!-- edit_chain_limit&#45;&gt;run_dragen_alignment_step -->
<g id="edge15" class="edge">
<title>edit_chain_limit&#45;&gt;run_dragen_alignment_step</title>
<path fill="none" stroke="black" d="M7315.73,-1838.77C7301.65,-1827.98 7282.28,-1814.91 7263,-1807.51 6174.58,-1390.01 4731.21,-1354.25 4322.86,-1352.91"/>
<polygon fill="black" stroke="black" points="4322.83,-1349.41 4312.82,-1352.89 4322.81,-1356.41 4322.83,-1349.41"/>
</g>
<!-- edit_mode -->
<g id="node8" class="node">
<title>edit_mode</title>
<polygon fill="#94ddf4" stroke="black" points="7164,-1839.01 7164,-1876.01 7254,-1876.01 7254,-1839.01 7164,-1839.01"/>
<text text-anchor="middle" x="7209" y="-1853.81" font-family="Times,serif" font-size="14.00">edit_mode</text>
</g>
<!-- edit_mode&#45;&gt;run_dragen_alignment_step -->
<g id="edge16" class="edge">
<title>edit_mode&#45;&gt;run_dragen_alignment_step</title>
<path fill="none" stroke="black" d="M7194.33,-1838.71C7184.39,-1827.9 7170.31,-1814.81 7155,-1807.51 6635.87,-1559.97 4796.47,-1399.86 4322.87,-1362.12"/>
<polygon fill="black" stroke="black" points="4322.86,-1358.61 4312.61,-1361.3 4322.3,-1365.58 4322.86,-1358.61"/>
</g>
<!-- edit_read_len -->
<g id="node9" class="node">
<title>edit_read_len</title>
<polygon fill="#94ddf4" stroke="black" points="7034,-1839.01 7034,-1876.01 7146,-1876.01 7146,-1839.01 7034,-1839.01"/>
<text text-anchor="middle" x="7090" y="-1853.81" font-family="Times,serif" font-size="14.00">edit_read_len</text>
</g>
<!-- edit_read_len&#45;&gt;run_dragen_alignment_step -->
<g id="edge17" class="edge">
<title>edit_read_len&#45;&gt;run_dragen_alignment_step</title>
<path fill="none" stroke="black" d="M7071.65,-1838.79C7059.41,-1828.01 7042.42,-1814.94 7025,-1807.51 6041.05,-1388.07 4712.6,-1353.27 4322.83,-1352.6"/>
<polygon fill="black" stroke="black" points="4322.68,-1349.1 4312.68,-1352.59 4322.68,-1356.1 4322.68,-1349.1"/>
</g>
<!-- edit_seed_num -->
<g id="node10" class="node">
<title>edit_seed_num</title>
<polygon fill="#94ddf4" stroke="black" points="6894,-1839.01 6894,-1876.01 7016,-1876.01 7016,-1839.01 6894,-1839.01"/>
<text text-anchor="middle" x="6955" y="-1853.81" font-family="Times,serif" font-size="14.00">edit_seed_num</text>
</g>
<!-- edit_seed_num&#45;&gt;run_dragen_alignment_step -->
<g id="edge18" class="edge">
<title>edit_seed_num&#45;&gt;run_dragen_alignment_step</title>
<path fill="none" stroke="black" d="M6934.99,-1838.87C6921.71,-1828.13 6903.39,-1815.06 6885,-1807.51 5948.52,-1423.16 4699.19,-1364.18 4322.84,-1355.14"/>
<polygon fill="black" stroke="black" points="4322.85,-1351.64 4312.77,-1354.91 4322.68,-1358.64 4322.85,-1351.64"/>
</g>
<!-- en_alt_hap_aln -->
<g id="node11" class="node">
<title>en_alt_hap_aln</title>
<polygon fill="#94ddf4" stroke="black" points="6754.5,-1839.01 6754.5,-1876.01 6875.5,-1876.01 6875.5,-1839.01 6754.5,-1839.01"/>
<text text-anchor="middle" x="6815" y="-1853.81" font-family="Times,serif" font-size="14.00">en_alt_hap_aln</text>
</g>
<!-- en_alt_hap_aln&#45;&gt;run_dragen_alignment_step -->
<g id="edge19" class="edge">
<title>en_alt_hap_aln&#45;&gt;run_dragen_alignment_step</title>
<path fill="none" stroke="black" d="M6795.29,-1838.92C6782.21,-1828.2 6764.15,-1815.13 6746,-1807.51 5864.27,-1437.46 4686.48,-1368.85 4322.72,-1356.28"/>
<polygon fill="black" stroke="black" points="4322.83,-1352.79 4312.72,-1355.95 4322.59,-1359.78 4322.83,-1352.79"/>
</g>
<!-- en_chimeric_aln -->
<g id="node12" class="node">
<title>en_chimeric_aln</title>
<polygon fill="#94ddf4" stroke="black" points="6605.5,-1839.01 6605.5,-1876.01 6736.5,-1876.01 6736.5,-1839.01 6605.5,-1839.01"/>
<text text-anchor="middle" x="6671" y="-1853.81" font-family="Times,serif" font-size="14.00">en_chimeric_aln</text>
</g>
<!-- en_chimeric_aln&#45;&gt;run_dragen_alignment_step -->
<g id="edge20" class="edge">
<title>en_chimeric_aln&#45;&gt;run_dragen_alignment_step</title>
<path fill="none" stroke="black" d="M6649.31,-1838.8C6635.21,-1828.16 6615.98,-1815.23 6597,-1807.51 5767.41,-1469.94 4671.89,-1380 4322.84,-1359.16"/>
<polygon fill="black" stroke="black" points="4322.92,-1355.65 4312.73,-1358.56 4322.51,-1362.64 4322.92,-1355.65"/>
</g>
<!-- enable_duplicate_marking -->
<g id="node13" class="node">
<title>enable_duplicate_marking</title>
<polygon fill="#94ddf4" stroke="black" points="6384.5,-1839.01 6384.5,-1876.01 6587.5,-1876.01 6587.5,-1839.01 6384.5,-1839.01"/>
<text text-anchor="middle" x="6486" y="-1853.81" font-family="Times,serif" font-size="14.00">enable_duplicate_marking</text>
</g>
<!-- enable_duplicate_marking&#45;&gt;run_dragen_alignment_step -->
<g id="edge21" class="edge">
<title>enable_duplicate_marking&#45;&gt;run_dragen_alignment_step</title>
<path fill="none" stroke="black" d="M6451.57,-1838.9C6430.25,-1828.57 6402.06,-1815.94 6376,-1807.51 5609.9,-1559.67 4646.5,-1413.27 4322.83,-1368.39"/>
<polygon fill="black" stroke="black" points="4322.89,-1364.87 4312.51,-1366.96 4321.94,-1371.8 4322.89,-1364.87"/>
</g>
<!-- enable_map_align -->
<g id="node14" class="node">
<title>enable_map_align</title>
<polygon fill="#94ddf4" stroke="black" points="6223.5,-1839.01 6223.5,-1876.01 6366.5,-1876.01 6366.5,-1839.01 6223.5,-1839.01"/>
<text text-anchor="middle" x="6295" y="-1853.81" font-family="Times,serif" font-size="14.00">enable_map_align</text>
</g>
<!-- enable_map_align&#45;&gt;run_dragen_alignment_step -->
<g id="edge22" class="edge">
<title>enable_map_align&#45;&gt;run_dragen_alignment_step</title>
<path fill="none" stroke="black" d="M6270.89,-1838.86C6255.56,-1828.38 6234.92,-1815.61 6215,-1807.51 5527.39,-1527.94 4633.65,-1402.91 4323.11,-1365.89"/>
<polygon fill="black" stroke="black" points="4323.1,-1362.37 4312.76,-1364.67 4322.28,-1369.32 4323.1,-1362.37"/>
</g>
<!-- enable_map_align_output -->
<g id="node15" class="node">
<title>enable_map_align_output</title>
<polygon fill="#94ddf4" stroke="black" points="6008.5,-1839.01 6008.5,-1876.01 6205.5,-1876.01 6205.5,-1839.01 6008.5,-1839.01"/>
<text text-anchor="middle" x="6107" y="-1853.81" font-family="Times,serif" font-size="14.00">enable_map_align_output</text>
</g>
<!-- enable_map_align_output&#45;&gt;run_dragen_alignment_step -->
<g id="edge23" class="edge">
<title>enable_map_align_output&#45;&gt;run_dragen_alignment_step</title>
<path fill="none" stroke="black" d="M6072.96,-1839C6052.25,-1828.84 6025.05,-1816.34 6000,-1807.51 5375.36,-1587.27 4593.14,-1426.71 4315.01,-1373.04"/>
<polygon fill="black" stroke="black" points="4315.41,-1369.55 4304.93,-1371.1 4314.09,-1376.42 4315.41,-1369.55"/>
</g>
<!-- enable_rna -->
<g id="node16" class="node">
<title>enable_rna</title>
<polygon fill="#94ddf4" stroke="black" points="5895.5,-1839.01 5895.5,-1876.01 5990.5,-1876.01 5990.5,-1839.01 5895.5,-1839.01"/>
<text text-anchor="middle" x="5943" y="-1853.81" font-family="Times,serif" font-size="14.00">enable_rna</text>
</g>
<!-- enable_rna&#45;&gt;run_dragen_alignment_step -->
<g id="edge24" class="edge">
<title>enable_rna&#45;&gt;run_dragen_alignment_step</title>
<path fill="none" stroke="black" d="M5926.55,-1838.84C5915.9,-1828.35 5901.22,-1815.58 5886,-1807.51 5342.66,-1519.53 4600.99,-1402.16 4322.61,-1366.41"/>
<polygon fill="black" stroke="black" points="4322.87,-1362.92 4312.51,-1365.13 4321.98,-1369.86 4322.87,-1362.92"/>
</g>
<!-- enable_rna_quantification -->
<g id="node17" class="node">
<title>enable_rna_quantification</title>
<polygon fill="#94ddf4" stroke="black" points="5677,-1839.01 5677,-1876.01 5877,-1876.01 5877,-1839.01 5677,-1839.01"/>
<text text-anchor="middle" x="5777" y="-1853.81" font-family="Times,serif" font-size="14.00">enable_rna_quantification</text>
</g>
<!-- enable_rna_quantification&#45;&gt;run_dragen_alignment_step -->
<g id="edge25" class="edge">
<title>enable_rna_quantification&#45;&gt;run_dragen_alignment_step</title>
<path fill="none" stroke="black" d="M5740.63,-1838.84C5719.66,-1828.98 5692.64,-1816.85 5668,-1807.51 5149.5,-1611 4505.01,-1432.37 4287.05,-1373.72"/>
<polygon fill="black" stroke="black" points="4287.87,-1370.31 4277.31,-1371.1 4286.06,-1377.07 4287.87,-1370.31"/>
</g>
<!-- enable_rrna_filter -->
<g id="node18" class="node">
<title>enable_rrna_filter</title>
<polygon fill="#94ddf4" stroke="black" points="5515.5,-1839.01 5515.5,-1876.01 5658.5,-1876.01 5658.5,-1839.01 5515.5,-1839.01"/>
<text text-anchor="middle" x="5587" y="-1853.81" font-family="Times,serif" font-size="14.00">enable_rrna_filter</text>
</g>
<!-- enable_rrna_filter&#45;&gt;run_dragen_alignment_step -->
<g id="edge26" class="edge">
<title>enable_rrna_filter&#45;&gt;run_dragen_alignment_step</title>
<path fill="none" stroke="black" d="M5561.48,-1838.95C5546.15,-1828.89 5525.98,-1816.52 5507,-1807.51 5060.96,-1595.75 4488.39,-1429.48 4285.95,-1373.69"/>
<polygon fill="black" stroke="black" points="4286.87,-1370.32 4276.3,-1371.04 4285.02,-1377.07 4286.87,-1370.32"/>
</g>
<!-- enable_sort -->
<g id="node19" class="node">
<title>enable_sort</title>
<polygon fill="#94ddf4" stroke="black" points="5398.5,-1839.01 5398.5,-1876.01 5497.5,-1876.01 5497.5,-1839.01 5398.5,-1839.01"/>
<text text-anchor="middle" x="5448" y="-1853.81" font-family="Times,serif" font-size="14.00">enable_sort</text>
</g>
<!-- enable_sort&#45;&gt;run_dragen_alignment_step -->
<g id="edge27" class="edge">
<title>enable_sort&#45;&gt;run_dragen_alignment_step</title>
<path fill="none" stroke="black" d="M5430.04,-1838.95C5418.91,-1828.77 5403.93,-1816.27 5389,-1807.51 5002.48,-1580.8 4482.01,-1426.65 4288.06,-1373.75"/>
<polygon fill="black" stroke="black" points="4288.81,-1370.33 4278.24,-1371.08 4286.97,-1377.08 4288.81,-1370.33"/>
</g>
<!-- fastq_list -->
<g id="node20" class="node">
<title>fastq_list</title>
<polygon fill="#94ddf4" stroke="black" points="5298,-1839.01 5298,-1876.01 5380,-1876.01 5380,-1839.01 5298,-1839.01"/>
<text text-anchor="middle" x="5339" y="-1853.81" font-family="Times,serif" font-size="14.00">fastq_list</text>
</g>
<!-- fastq_list&#45;&gt;run_dragen_alignment_step -->
<g id="edge28" class="edge">
<title>fastq_list&#45;&gt;run_dragen_alignment_step</title>
<path fill="none" stroke="black" d="M5324.15,-1838.94C5314.84,-1828.76 5302.16,-1816.26 5289,-1807.51 4944.49,-1578.36 4465.5,-1426.38 4284.33,-1373.89"/>
<polygon fill="black" stroke="black" points="4285.22,-1370.5 4274.64,-1371.09 4283.28,-1377.23 4285.22,-1370.5"/>
</g>
<!-- fastq_list_rows -->
<g id="node21" class="node">
<title>fastq_list_rows</title>
<polygon fill="#94ddf4" stroke="black" points="5156.5,-1839.01 5156.5,-1876.01 5279.5,-1876.01 5279.5,-1839.01 5156.5,-1839.01"/>
<text text-anchor="middle" x="5218" y="-1853.81" font-family="Times,serif" font-size="14.00">fastq_list_rows</text>
</g>
<!-- fastq_list_rows&#45;&gt;run_dragen_alignment_step -->
<g id="edge29" class="edge">
<title>fastq_list_rows&#45;&gt;run_dragen_alignment_step</title>
<path fill="none" stroke="black" d="M5194.97,-1838.99C5181.6,-1829.18 5164.25,-1817.05 5148,-1807.51 4823.44,-1616.93 4406.99,-1436.03 4262.83,-1375.14"/>
<polygon fill="black" stroke="black" points="4263.9,-1371.79 4253.33,-1371.13 4261.18,-1378.24 4263.9,-1371.79"/>
</g>
<!-- gap_ext_pen -->
<g id="node22" class="node">
<title>gap_ext_pen</title>
<polygon fill="#94ddf4" stroke="black" points="5033.5,-1839.01 5033.5,-1876.01 5138.5,-1876.01 5138.5,-1839.01 5033.5,-1839.01"/>
<text text-anchor="middle" x="5086" y="-1853.81" font-family="Times,serif" font-size="14.00">gap_ext_pen</text>
</g>
<!-- gap_ext_pen&#45;&gt;run_dragen_alignment_step -->
<g id="edge30" class="edge">
<title>gap_ext_pen&#45;&gt;run_dragen_alignment_step</title>
<path fill="none" stroke="black" d="M5065.77,-1838.83C5054.19,-1829.09 5039.2,-1817.07 5025,-1807.51 4745.79,-1619.45 4382.8,-1437.21 4256.6,-1375.54"/>
<polygon fill="black" stroke="black" points="4258.1,-1372.38 4247.57,-1371.14 4255.03,-1378.67 4258.1,-1372.38"/>
</g>
<!-- gap_open_pen -->
<g id="node23" class="node">
<title>gap_open_pen</title>
<polygon fill="#94ddf4" stroke="black" points="4898.5,-1839.01 4898.5,-1876.01 5015.5,-1876.01 5015.5,-1839.01 4898.5,-1839.01"/>
<text text-anchor="middle" x="4957" y="-1853.81" font-family="Times,serif" font-size="14.00">gap_open_pen</text>
</g>
<!-- gap_open_pen&#45;&gt;run_dragen_alignment_step -->
<g id="edge31" class="edge">
<title>gap_open_pen&#45;&gt;run_dragen_alignment_step</title>
<path fill="none" stroke="black" d="M4933.3,-1838.8C4920.56,-1829.38 4904.52,-1817.67 4890,-1807.51 4647.21,-1637.68 4348.42,-1442.64 4246.78,-1376.68"/>
<polygon fill="black" stroke="black" points="4248.42,-1373.57 4238.12,-1371.06 4244.61,-1379.44 4248.42,-1373.57"/>
</g>
<!-- generate_md_tags -->
<g id="node24" class="node">
<title>generate_md_tags</title>
<polygon fill="#94ddf4" stroke="black" points="4733.5,-1839.01 4733.5,-1876.01 4880.5,-1876.01 4880.5,-1839.01 4733.5,-1839.01"/>
<text text-anchor="middle" x="4807" y="-1853.81" font-family="Times,serif" font-size="14.00">generate_md_tags</text>
</g>
<!-- generate_md_tags&#45;&gt;run_dragen_alignment_step -->
<g id="edge32" class="edge">
<title>generate_md_tags&#45;&gt;run_dragen_alignment_step</title>
<path fill="none" stroke="black" d="M4786.14,-1838.9C4696.47,-1763.23 4343.68,-1465.49 4239.88,-1377.88"/>
<polygon fill="black" stroke="black" points="4241.9,-1375.01 4232,-1371.24 4237.39,-1380.36 4241.9,-1375.01"/>
</g>
<!-- generate_sa_tags -->
<g id="node25" class="node">
<title>generate_sa_tags</title>
<polygon fill="#94ddf4" stroke="black" points="4575,-1839.01 4575,-1876.01 4715,-1876.01 4715,-1839.01 4575,-1839.01"/>
<text text-anchor="middle" x="4645" y="-1853.81" font-family="Times,serif" font-size="14.00">generate_sa_tags</text>
</g>
<!-- generate_sa_tags&#45;&gt;run_dragen_alignment_step -->
<g id="edge33" class="edge">
<title>generate_sa_tags&#45;&gt;run_dragen_alignment_step</title>
<path fill="none" stroke="black" d="M4629.81,-1838.9C4564.78,-1763.53 4309.67,-1467.87 4232.95,-1378.95"/>
<polygon fill="black" stroke="black" points="4235.48,-1376.52 4226.29,-1371.24 4230.18,-1381.09 4235.48,-1376.52"/>
</g>
<!-- generate_zs_tags -->
<g id="node26" class="node">
<title>generate_zs_tags</title>
<polygon fill="#94ddf4" stroke="black" points="4417,-1839.01 4417,-1876.01 4557,-1876.01 4557,-1839.01 4417,-1839.01"/>
<text text-anchor="middle" x="4487" y="-1853.81" font-family="Times,serif" font-size="14.00">generate_zs_tags</text>
</g>
<!-- generate_zs_tags&#45;&gt;run_dragen_alignment_step -->
<g id="edge34" class="edge">
<title>generate_zs_tags&#45;&gt;run_dragen_alignment_step</title>
<path fill="none" stroke="black" d="M4477.34,-1838.9C4436.15,-1763.84 4275.06,-1470.25 4225.55,-1380.03"/>
<polygon fill="black" stroke="black" points="4228.6,-1378.32 4220.73,-1371.24 4222.47,-1381.69 4228.6,-1378.32"/>
</g>
<!-- global -->
<g id="node27" class="node">
<title>global</title>
<polygon fill="#94ddf4" stroke="black" points="4339,-1839.01 4339,-1876.01 4399,-1876.01 4399,-1839.01 4339,-1839.01"/>
<text text-anchor="middle" x="4369" y="-1853.81" font-family="Times,serif" font-size="14.00">global</text>
</g>
<!-- global&#45;&gt;run_dragen_alignment_step -->
<g id="edge35" class="edge">
<title>global&#45;&gt;run_dragen_alignment_step</title>
<path fill="none" stroke="black" d="M4363.47,-1838.9C4339.96,-1764.06 4248.23,-1472.03 4219.59,-1380.86"/>
<polygon fill="black" stroke="black" points="4222.9,-1379.73 4216.57,-1371.24 4216.23,-1381.83 4222.9,-1379.73"/>
</g>
<!-- hard_clips -->
<g id="node28" class="node">
<title>hard_clips</title>
<polygon fill="#94ddf4" stroke="black" points="4232.5,-1839.01 4232.5,-1876.01 4321.5,-1876.01 4321.5,-1839.01 4232.5,-1839.01"/>
<text text-anchor="middle" x="4277" y="-1853.81" font-family="Times,serif" font-size="14.00">hard_clips</text>
</g>
<!-- hard_clips&#45;&gt;run_dragen_alignment_step -->
<g id="edge36" class="edge">
<title>hard_clips&#45;&gt;run_dragen_alignment_step</title>
<path fill="none" stroke="black" d="M4274.69,-1838.9C4264.89,-1764.21 4226.71,-1473.21 4214.66,-1381.42"/>
<polygon fill="black" stroke="black" points="4218.1,-1380.7 4213.33,-1371.24 4211.16,-1381.61 4218.1,-1380.7"/>
</g>
<!-- map_orientations -->
<g id="node29" class="node">
<title>map_orientations</title>
<polygon fill="#94ddf4" stroke="black" points="4074,-1839.01 4074,-1876.01 4214,-1876.01 4214,-1839.01 4074,-1839.01"/>
<text text-anchor="middle" x="4144" y="-1853.81" font-family="Times,serif" font-size="14.00">map_orientations</text>
</g>
<!-- map_orientations&#45;&gt;run_dragen_alignment_step -->
<g id="edge37" class="edge">
<title>map_orientations&#45;&gt;run_dragen_alignment_step</title>
<path fill="none" stroke="black" d="M4146.35,-1838.9C4156.29,-1764.21 4195.06,-1473.21 4207.28,-1381.42"/>
<polygon fill="black" stroke="black" points="4210.79,-1381.61 4208.64,-1371.24 4203.85,-1380.69 4210.79,-1381.61"/>
</g>
<!-- mapq_max -->
<g id="node30" class="node">
<title>mapq_max</title>
<polygon fill="#94ddf4" stroke="black" points="3962.5,-1839.01 3962.5,-1876.01 4055.5,-1876.01 4055.5,-1839.01 3962.5,-1839.01"/>
<text text-anchor="middle" x="4009" y="-1853.81" font-family="Times,serif" font-size="14.00">mapq_max</text>
</g>
<!-- mapq_max&#45;&gt;run_dragen_alignment_step -->
<g id="edge38" class="edge">
<title>mapq_max&#45;&gt;run_dragen_alignment_step</title>
<path fill="none" stroke="black" d="M4016.07,-1838.9C4046.16,-1763.99 4163.64,-1471.44 4200.13,-1380.58"/>
<polygon fill="black" stroke="black" points="4203.4,-1381.82 4203.88,-1371.24 4196.91,-1379.21 4203.4,-1381.82"/>
</g>
<!-- mapq_strict_js -->
<g id="node31" class="node">
<title>mapq_strict_js</title>
<polygon fill="#94ddf4" stroke="black" points="3824,-1839.01 3824,-1876.01 3944,-1876.01 3944,-1839.01 3824,-1839.01"/>
<text text-anchor="middle" x="3884" y="-1853.81" font-family="Times,serif" font-size="14.00">mapq_strict_js</text>
</g>
<!-- mapq_strict_js&#45;&gt;run_dragen_alignment_step -->
<g id="edge39" class="edge">
<title>mapq_strict_js&#45;&gt;run_dragen_alignment_step</title>
<path fill="none" stroke="black" d="M3895.45,-1838.9C3944.3,-1763.76 4135.49,-1469.66 4193.94,-1379.76"/>
<polygon fill="black" stroke="black" points="4196.96,-1381.53 4199.48,-1371.24 4191.09,-1377.71 4196.96,-1381.53"/>
</g>
<!-- match_n_score -->
<g id="node32" class="node">
<title>match_n_score</title>
<polygon fill="#94ddf4" stroke="black" points="3684,-1839.01 3684,-1876.01 3806,-1876.01 3806,-1839.01 3684,-1839.01"/>
<text text-anchor="middle" x="3745" y="-1853.81" font-family="Times,serif" font-size="14.00">match_n_score</text>
</g>
<!-- match_n_score&#45;&gt;run_dragen_alignment_step -->
<g id="edge40" class="edge">
<title>match_n_score&#45;&gt;run_dragen_alignment_step</title>
<path fill="none" stroke="black" d="M3761.31,-1838.9C3831.21,-1763.46 4105.6,-1467.28 4187.68,-1378.68"/>
<polygon fill="black" stroke="black" points="4190.35,-1380.95 4194.58,-1371.24 4185.22,-1376.19 4190.35,-1380.95"/>
</g>
<!-- match_score -->
<g id="node33" class="node">
<title>match_score</title>
<polygon fill="#94ddf4" stroke="black" points="3560,-1839.01 3560,-1876.01 3666,-1876.01 3666,-1839.01 3560,-1839.01"/>
<text text-anchor="middle" x="3613" y="-1853.81" font-family="Times,serif" font-size="14.00">match_score</text>
</g>
<!-- match_score&#45;&gt;run_dragen_alignment_step -->
<g id="edge41" class="edge">
<title>match_score&#45;&gt;run_dragen_alignment_step</title>
<path fill="none" stroke="black" d="M3633.93,-1838.9C3723.9,-1763.23 4077.88,-1465.49 4182.03,-1377.88"/>
<polygon fill="black" stroke="black" points="4184.53,-1380.35 4189.93,-1371.24 4180.02,-1374.99 4184.53,-1380.35"/>
</g>
<!-- max_intron_bases -->
<g id="node34" class="node">
<title>max_intron_bases</title>
<polygon fill="#94ddf4" stroke="black" points="3398,-1839.01 3398,-1876.01 3542,-1876.01 3542,-1839.01 3398,-1839.01"/>
<text text-anchor="middle" x="3470" y="-1853.81" font-family="Times,serif" font-size="14.00">max_intron_bases</text>
</g>
<!-- max_intron_bases&#45;&gt;run_dragen_alignment_step -->
<g id="edge42" class="edge">
<title>max_intron_bases&#45;&gt;run_dragen_alignment_step</title>
<path fill="none" stroke="black" d="M3495.94,-1838.9C3607.76,-1763 4048.68,-1463.69 4176.25,-1377.1"/>
<polygon fill="black" stroke="black" points="4178.58,-1379.75 4184.89,-1371.24 4174.65,-1373.96 4178.58,-1379.75"/>
</g>
<!-- max_rescues -->
<g id="node35" class="node">
<title>max_rescues</title>
<polygon fill="#94ddf4" stroke="black" points="3272,-1839.01 3272,-1876.01 3380,-1876.01 3380,-1839.01 3272,-1839.01"/>
<text text-anchor="middle" x="3326" y="-1853.81" font-family="Times,serif" font-size="14.00">max_rescues</text>
</g>
<!-- max_rescues&#45;&gt;run_dragen_alignment_step -->
<g id="edge43" class="edge">
<title>max_rescues&#45;&gt;run_dragen_alignment_step</title>
<path fill="none" stroke="black" d="M3346.96,-1838.87C3358.93,-1829.14 3374.42,-1817.12 3389,-1807.51 3672.51,-1620.62 4038.83,-1437.31 4165.53,-1375.47"/>
<polygon fill="black" stroke="black" points="4167.13,-1378.58 4174.58,-1371.05 4164.06,-1372.29 4167.13,-1378.58"/>
</g>
<!-- min_intron_bases -->
<g id="node36" class="node">
<title>min_intron_bases</title>
<polygon fill="#94ddf4" stroke="black" points="3112.5,-1839.01 3112.5,-1876.01 3253.5,-1876.01 3253.5,-1839.01 3112.5,-1839.01"/>
<text text-anchor="middle" x="3183" y="-1853.81" font-family="Times,serif" font-size="14.00">min_intron_bases</text>
</g>
<!-- min_intron_bases&#45;&gt;run_dragen_alignment_step -->
<g id="edge44" class="edge">
<title>min_intron_bases&#45;&gt;run_dragen_alignment_step</title>
<path fill="none" stroke="black" d="M3210.36,-1838.79C3225.62,-1829.15 3245.11,-1817.24 3263,-1807.51 3598.36,-1625.13 4018.66,-1437.66 4161.15,-1375.2"/>
<polygon fill="black" stroke="black" points="4162.77,-1378.31 4170.52,-1371.1 4159.96,-1371.9 4162.77,-1378.31"/>
</g>
<!-- min_score_coeff -->
<g id="node37" class="node">
<title>min_score_coeff</title>
<polygon fill="#94ddf4" stroke="black" points="2965.5,-1839.01 2965.5,-1876.01 3094.5,-1876.01 3094.5,-1839.01 2965.5,-1839.01"/>
<text text-anchor="middle" x="3030" y="-1853.81" font-family="Times,serif" font-size="14.00">min_score_coeff</text>
</g>
<!-- min_score_coeff&#45;&gt;run_dragen_alignment_step -->
<g id="edge45" class="edge">
<title>min_score_coeff&#45;&gt;run_dragen_alignment_step</title>
<path fill="none" stroke="black" d="M3053.93,-1838.93C3068.07,-1828.99 3086.57,-1816.74 3104,-1807.51 3485.31,-1605.58 3976.64,-1432.44 4148.41,-1374.32"/>
<polygon fill="black" stroke="black" points="4149.7,-1377.58 4158.05,-1371.06 4147.46,-1370.95 4149.7,-1377.58"/>
</g>
<!-- mismatch_pen -->
<g id="node38" class="node">
<title>mismatch_pen</title>
<polygon fill="#94ddf4" stroke="black" points="2828.5,-1839.01 2828.5,-1876.01 2947.5,-1876.01 2947.5,-1839.01 2828.5,-1839.01"/>
<text text-anchor="middle" x="2888" y="-1853.81" font-family="Times,serif" font-size="14.00">mismatch_pen</text>
</g>
<!-- mismatch_pen&#45;&gt;run_dragen_alignment_step -->
<g id="edge46" class="edge">
<title>mismatch_pen&#45;&gt;run_dragen_alignment_step</title>
<path fill="none" stroke="black" d="M2909.7,-1838.79C2922.82,-1828.68 2940.21,-1816.3 2957,-1807.51 3378.57,-1586.73 3931.52,-1427.82 4133.15,-1373.75"/>
<polygon fill="black" stroke="black" points="4134.31,-1377.06 4143.06,-1371.1 4132.5,-1370.3 4134.31,-1377.06"/>
</g>
<!-- no_unclip_score -->
<g id="node39" class="node">
<title>no_unclip_score</title>
<polygon fill="#94ddf4" stroke="black" points="2681.5,-1839.01 2681.5,-1876.01 2810.5,-1876.01 2810.5,-1839.01 2681.5,-1839.01"/>
<text text-anchor="middle" x="2746" y="-1853.81" font-family="Times,serif" font-size="14.00">no_unclip_score</text>
</g>
<!-- no_unclip_score&#45;&gt;run_dragen_alignment_step -->
<g id="edge47" class="edge">
<title>no_unclip_score&#45;&gt;run_dragen_alignment_step</title>
<path fill="none" stroke="black" d="M2769.03,-1838.92C2783.16,-1828.73 2801.96,-1816.23 2820,-1807.51 3289.05,-1580.83 3899.25,-1425.98 4123.45,-1373.35"/>
<polygon fill="black" stroke="black" points="4124.26,-1376.76 4133.2,-1371.07 4122.66,-1369.94 4124.26,-1376.76"/>
</g>
<!-- no_unpaired -->
<g id="node40" class="node">
<title>no_unpaired</title>
<polygon fill="#94ddf4" stroke="black" points="2559,-1839.01 2559,-1876.01 2663,-1876.01 2663,-1839.01 2559,-1839.01"/>
<text text-anchor="middle" x="2611" y="-1853.81" font-family="Times,serif" font-size="14.00">no_unpaired</text>
</g>
<!-- no_unpaired&#45;&gt;run_dragen_alignment_step -->
<g id="edge48" class="edge">
<title>no_unpaired&#45;&gt;run_dragen_alignment_step</title>
<path fill="none" stroke="black" d="M2629.5,-1838.78C2641.18,-1828.41 2657.04,-1815.78 2673,-1807.51 3171.21,-1549.45 3838.17,-1416.34 4099.42,-1371.37"/>
<polygon fill="black" stroke="black" points="4100.03,-1374.82 4109.3,-1369.68 4098.85,-1367.92 4100.03,-1374.82"/>
</g>
<!-- output_directory -->
<g id="node41" class="node">
<title>output_directory</title>
<polygon fill="#94ddf4" stroke="black" points="2405,-1839.01 2405,-1876.01 2541,-1876.01 2541,-1839.01 2405,-1839.01"/>
<text text-anchor="middle" x="2473" y="-1853.81" font-family="Times,serif" font-size="14.00">output_directory</text>
</g>
<!-- output_directory&#45;&gt;run_dragen_alignment_step -->
<g id="edge49" class="edge">
<title>output_directory&#45;&gt;run_dragen_alignment_step</title>
<path fill="none" stroke="black" d="M2496.57,-1838.88C2511.3,-1828.55 2531.02,-1815.91 2550,-1807.51 3105.57,-1561.56 3825.89,-1419.98 4099.22,-1372.07"/>
<polygon fill="black" stroke="black" points="4099.89,-1375.51 4109.14,-1370.34 4098.69,-1368.61 4099.89,-1375.51"/>
</g>
<!-- pe_max_penalty -->
<g id="node42" class="node">
<title>pe_max_penalty</title>
<polygon fill="#94ddf4" stroke="black" points="2255.5,-1839.01 2255.5,-1876.01 2386.5,-1876.01 2386.5,-1839.01 2255.5,-1839.01"/>
<text text-anchor="middle" x="2321" y="-1853.81" font-family="Times,serif" font-size="14.00">pe_max_penalty</text>
</g>
<!-- pe_max_penalty&#45;&gt;run_dragen_alignment_step -->
<g id="edge50" class="edge">
<title>pe_max_penalty&#45;&gt;run_dragen_alignment_step</title>
<path fill="none" stroke="black" d="M2343.5,-1838.94C2357.83,-1828.5 2377.19,-1815.73 2396,-1807.51 3008.21,-1540.03 3808.32,-1409.29 4099.18,-1368.23"/>
<polygon fill="black" stroke="black" points="4099.89,-1371.67 4109.31,-1366.81 4098.92,-1364.73 4099.89,-1371.67"/>
</g>
<!-- pe_orientation -->
<g id="node43" class="node">
<title>pe_orientation</title>
<polygon fill="#94ddf4" stroke="black" points="2118.5,-1839.01 2118.5,-1876.01 2237.5,-1876.01 2237.5,-1839.01 2118.5,-1839.01"/>
<text text-anchor="middle" x="2178" y="-1853.81" font-family="Times,serif" font-size="14.00">pe_orientation</text>
</g>
<!-- pe_orientation&#45;&gt;run_dragen_alignment_step -->
<g id="edge51" class="edge">
<title>pe_orientation&#45;&gt;run_dragen_alignment_step</title>
<path fill="none" stroke="black" d="M2198.14,-1838.99C2211.25,-1828.43 2229.18,-1815.52 2247,-1807.51 2910.41,-1509.39 3791.07,-1396.1 4099.01,-1364.02"/>
<polygon fill="black" stroke="black" points="4099.69,-1367.47 4109.28,-1362.96 4098.97,-1360.5 4099.69,-1367.47"/>
</g>
<!-- preserve_map_align_order -->
<g id="node44" class="node">
<title>preserve_map_align_order</title>
<polygon fill="#94ddf4" stroke="black" points="1895.5,-1839.01 1895.5,-1876.01 2100.5,-1876.01 2100.5,-1839.01 1895.5,-1839.01"/>
<text text-anchor="middle" x="1998" y="-1853.81" font-family="Times,serif" font-size="14.00">preserve_map_align_order</text>
</g>
<!-- preserve_map_align_order&#45;&gt;run_dragen_alignment_step -->
<g id="edge52" class="edge">
<title>preserve_map_align_order&#45;&gt;run_dragen_alignment_step</title>
<path fill="none" stroke="black" d="M2033.11,-1838.99C2054.84,-1828.69 2083.54,-1816.06 2110,-1807.51 2851.85,-1567.74 3782.14,-1416.95 4099.23,-1369.6"/>
<polygon fill="black" stroke="black" points="4099.96,-1373.03 4109.34,-1368.09 4098.93,-1366.11 4099.96,-1373.03"/>
</g>
<!-- reference_tar -->
<g id="node45" class="node">
<title>reference_tar</title>
<polygon fill="#94ddf4" stroke="black" points="1764.5,-1839.01 1764.5,-1876.01 1877.5,-1876.01 1877.5,-1839.01 1764.5,-1839.01"/>
<text text-anchor="middle" x="1821" y="-1853.81" font-family="Times,serif" font-size="14.00">reference_tar</text>
</g>
<!-- reference_tar&#45;&gt;run_dragen_alignment_step -->
<g id="edge53" class="edge">
<title>reference_tar&#45;&gt;run_dragen_alignment_step</title>
<path fill="none" stroke="black" d="M1839.76,-1838.99C1852.24,-1828.3 1869.51,-1815.23 1887,-1807.51 2684.21,-1455.53 3754.66,-1375.17 4099.21,-1357.94"/>
<polygon fill="black" stroke="black" points="4099.62,-1361.43 4109.43,-1357.44 4099.27,-1354.44 4099.62,-1361.43"/>
</g>
<!-- remove_duplicates -->
<g id="node46" class="node">
<title>remove_duplicates</title>
<polygon fill="#94ddf4" stroke="black" points="1596,-1839.01 1596,-1876.01 1746,-1876.01 1746,-1839.01 1596,-1839.01"/>
<text text-anchor="middle" x="1671" y="-1853.81" font-family="Times,serif" font-size="14.00">remove_duplicates</text>
</g>
<!-- remove_duplicates&#45;&gt;run_dragen_alignment_step -->
<g id="edge54" class="edge">
<title>remove_duplicates&#45;&gt;run_dragen_alignment_step</title>
<path fill="none" stroke="black" d="M1696.29,-1838.87C1712.63,-1828.26 1734.74,-1815.34 1756,-1807.51 2621.89,-1488.59 3745.42,-1386.13 4099.26,-1360.67"/>
<polygon fill="black" stroke="black" points="4099.52,-1364.16 4109.25,-1359.95 4099.03,-1357.17 4099.52,-1364.16"/>
</g>
<!-- rescue_sigmas -->
<g id="node47" class="node">
<title>rescue_sigmas</title>
<polygon fill="#94ddf4" stroke="black" points="1456.5,-1839.01 1456.5,-1876.01 1577.5,-1876.01 1577.5,-1839.01 1456.5,-1839.01"/>
<text text-anchor="middle" x="1517" y="-1853.81" font-family="Times,serif" font-size="14.00">rescue_sigmas</text>
</g>
<!-- rescue_sigmas&#45;&gt;run_dragen_alignment_step -->
<g id="edge55" class="edge">
<title>rescue_sigmas&#45;&gt;run_dragen_alignment_step</title>
<path fill="none" stroke="black" d="M1537.02,-1838.89C1550.3,-1828.16 1568.62,-1815.09 1587,-1807.51 2504.06,-1429.45 3727.07,-1366.2 4099.04,-1355.63"/>
<polygon fill="black" stroke="black" points="4099.37,-1359.12 4109.27,-1355.35 4099.18,-1352.12 4099.37,-1359.12"/>
</g>
<!-- sec_aligns -->
<g id="node48" class="node">
<title>sec_aligns</title>
<polygon fill="#94ddf4" stroke="black" points="1349.5,-1839.01 1349.5,-1876.01 1438.5,-1876.01 1438.5,-1839.01 1349.5,-1839.01"/>
<text text-anchor="middle" x="1394" y="-1853.81" font-family="Times,serif" font-size="14.00">sec_aligns</text>
</g>
<!-- sec_aligns&#45;&gt;run_dragen_alignment_step -->
<g id="edge56" class="edge">
<title>sec_aligns&#45;&gt;run_dragen_alignment_step</title>
<path fill="none" stroke="black" d="M1408.7,-1838.76C1418.65,-1827.97 1432.72,-1814.89 1448,-1807.51 1932.4,-1573.59 3644.23,-1404.82 4099.24,-1363.37"/>
<polygon fill="black" stroke="black" points="4099.79,-1366.84 4109.43,-1362.45 4099.16,-1359.87 4099.79,-1366.84"/>
</g>
<!-- sec_aligns_hard -->
<g id="node49" class="node">
<title>sec_aligns_hard</title>
<polygon fill="#94ddf4" stroke="black" points="1202.5,-1839.01 1202.5,-1876.01 1331.5,-1876.01 1331.5,-1839.01 1202.5,-1839.01"/>
<text text-anchor="middle" x="1267" y="-1853.81" font-family="Times,serif" font-size="14.00">sec_aligns_hard</text>
</g>
<!-- sec_aligns_hard&#45;&gt;run_dragen_alignment_step -->
<g id="edge57" class="edge">
<title>sec_aligns_hard&#45;&gt;run_dragen_alignment_step</title>
<path fill="none" stroke="black" d="M1288.29,-1838.83C1302.38,-1828.07 1321.76,-1814.99 1341,-1807.51 2358.4,-1411.87 3706.46,-1360.7 4099.23,-1354.34"/>
<polygon fill="black" stroke="black" points="4099.5,-1357.84 4109.45,-1354.18 4099.39,-1350.84 4099.5,-1357.84"/>
</g>
<!-- sec_phred_delta -->
<g id="node50" class="node">
<title>sec_phred_delta</title>
<polygon fill="#94ddf4" stroke="black" points="1053.5,-1839.01 1053.5,-1876.01 1184.5,-1876.01 1184.5,-1839.01 1053.5,-1839.01"/>
<text text-anchor="middle" x="1119" y="-1853.81" font-family="Times,serif" font-size="14.00">sec_phred_delta</text>
</g>
<!-- sec_phred_delta&#45;&gt;run_dragen_alignment_step -->
<g id="edge58" class="edge">
<title>sec_phred_delta&#45;&gt;run_dragen_alignment_step</title>
<path fill="none" stroke="black" d="M1140.6,-1838.79C1154.89,-1828.01 1174.52,-1814.93 1194,-1807.51 2269.95,-1397.55 3693.97,-1356.47 4099.17,-1353.4"/>
<polygon fill="black" stroke="black" points="4099.45,-1356.9 4109.42,-1353.33 4099.4,-1349.9 4099.45,-1356.9"/>
</g>
<!-- sec_score_delta -->
<g id="node51" class="node">
<title>sec_score_delta</title>
<polygon fill="#94ddf4" stroke="black" points="907,-1839.01 907,-1876.01 1035,-1876.01 1035,-1839.01 907,-1839.01"/>
<text text-anchor="middle" x="971" y="-1853.81" font-family="Times,serif" font-size="14.00">sec_score_delta</text>
</g>
<!-- sec_score_delta&#45;&gt;run_dragen_alignment_step -->
<g id="edge59" class="edge">
<title>sec_score_delta&#45;&gt;run_dragen_alignment_step</title>
<path fill="none" stroke="black" d="M991.94,-1838.98C1006.04,-1828.13 1025.56,-1814.91 1045,-1807.51 1625.02,-1586.77 3605.96,-1405.38 4099.12,-1362.92"/>
<polygon fill="black" stroke="black" points="4099.78,-1366.37 4109.44,-1362.03 4099.18,-1359.4 4099.78,-1366.37"/>
</g>
<!-- seed_density -->
<g id="node52" class="node">
<title>seed_density</title>
<polygon fill="#94ddf4" stroke="black" points="779.5,-1839.01 779.5,-1876.01 888.5,-1876.01 888.5,-1839.01 779.5,-1839.01"/>
<text text-anchor="middle" x="834" y="-1853.81" font-family="Times,serif" font-size="14.00">seed_density</text>
</g>
<!-- seed_density&#45;&gt;run_dragen_alignment_step -->
<g id="edge60" class="edge">
<title>seed_density&#45;&gt;run_dragen_alignment_step</title>
<path fill="none" stroke="black" d="M851.69,-1838.89C863.72,-1828.01 880.56,-1814.78 898,-1807.51 1499.08,-1557.05 3590.73,-1396.92 4099.04,-1361.14"/>
<polygon fill="black" stroke="black" points="4099.58,-1364.61 4109.31,-1360.42 4099.09,-1357.62 4099.58,-1364.61"/>
</g>
<!-- supp_aligns -->
<g id="node53" class="node">
<title>supp_aligns</title>
<polygon fill="#94ddf4" stroke="black" points="660.5,-1839.01 660.5,-1876.01 761.5,-1876.01 761.5,-1839.01 660.5,-1839.01"/>
<text text-anchor="middle" x="711" y="-1853.81" font-family="Times,serif" font-size="14.00">supp_aligns</text>
</g>
<!-- supp_aligns&#45;&gt;run_dragen_alignment_step -->
<g id="edge61" class="edge">
<title>supp_aligns&#45;&gt;run_dragen_alignment_step</title>
<path fill="none" stroke="black" d="M727.37,-1838.85C738.56,-1827.95 754.33,-1814.72 771,-1807.51 1393.09,-1538.6 3579.11,-1391.67 4099.3,-1360.04"/>
<polygon fill="black" stroke="black" points="4099.67,-1363.52 4109.44,-1359.42 4099.24,-1356.54 4099.67,-1363.52"/>
</g>
<!-- supp_as_sec -->
<g id="node54" class="node">
<title>supp_as_sec</title>
<polygon fill="#94ddf4" stroke="black" points="538,-1839.01 538,-1876.01 642,-1876.01 642,-1839.01 538,-1839.01"/>
<text text-anchor="middle" x="590" y="-1853.81" font-family="Times,serif" font-size="14.00">supp_as_sec</text>
</g>
<!-- supp_as_sec&#45;&gt;run_dragen_alignment_step -->
<g id="edge62" class="edge">
<title>supp_as_sec&#45;&gt;run_dragen_alignment_step</title>
<path fill="none" stroke="black" d="M607.02,-1838.83C618.62,-1827.92 634.93,-1814.69 652,-1807.51 1299.47,-1535.41 3567.83,-1390.41 4099.08,-1359.72"/>
<polygon fill="black" stroke="black" points="4099.64,-1363.19 4109.42,-1359.12 4099.24,-1356.21 4099.64,-1363.19"/>
</g>
<!-- supp_min_score_adj -->
<g id="node55" class="node">
<title>supp_min_score_adj</title>
<polygon fill="#94ddf4" stroke="black" points="362,-1839.01 362,-1876.01 520,-1876.01 520,-1839.01 362,-1839.01"/>
<text text-anchor="middle" x="441" y="-1853.81" font-family="Times,serif" font-size="14.00">supp_min_score_adj</text>
</g>
<!-- supp_min_score_adj&#45;&gt;run_dragen_alignment_step -->
<g id="edge63" class="edge">
<title>supp_min_score_adj&#45;&gt;run_dragen_alignment_step</title>
<path fill="none" stroke="black" d="M466.35,-1838.93C483.31,-1828.06 506.56,-1814.83 529,-1807.51 1220.7,-1581.83 3559.35,-1400.88 4099.17,-1361.49"/>
<polygon fill="black" stroke="black" points="4099.58,-1364.97 4109.3,-1360.75 4099.07,-1357.99 4099.58,-1364.97"/>
</g>
<!-- unclip_score -->
<g id="node56" class="node">
<title>unclip_score</title>
<polygon fill="#94ddf4" stroke="black" points="238.5,-1839.01 238.5,-1876.01 343.5,-1876.01 343.5,-1839.01 238.5,-1839.01"/>
<text text-anchor="middle" x="291" y="-1853.81" font-family="Times,serif" font-size="14.00">unclip_score</text>
</g>
<!-- unclip_score&#45;&gt;run_dragen_alignment_step -->
<g id="edge64" class="edge">
<title>unclip_score&#45;&gt;run_dragen_alignment_step</title>
<path fill="none" stroke="black" d="M307.99,-1838.77C319.58,-1827.84 335.89,-1814.6 353,-1807.51 1059.47,-1514.65 3542.14,-1384.37 4099.41,-1358.45"/>
<polygon fill="black" stroke="black" points="4099.63,-1361.95 4109.45,-1357.99 4099.3,-1354.96 4099.63,-1361.95"/>
</g>
<!-- unpaired_pen -->
<g id="node57" class="node">
<title>unpaired_pen</title>
<polygon fill="#94ddf4" stroke="black" points="107.5,-1839.01 107.5,-1876.01 220.5,-1876.01 220.5,-1839.01 107.5,-1839.01"/>
<text text-anchor="middle" x="164" y="-1853.81" font-family="Times,serif" font-size="14.00">unpaired_pen</text>
</g>
<!-- unpaired_pen&#45;&gt;run_dragen_alignment_step -->
<g id="edge65" class="edge">
<title>unpaired_pen&#45;&gt;run_dragen_alignment_step</title>
<path fill="none" stroke="black" d="M182.01,-1839C194.45,-1828.02 211.95,-1814.64 230,-1807.51 964.89,-1517.31 3530.3,-1384.65 4098.85,-1358.45"/>
<polygon fill="black" stroke="black" points="4099.26,-1361.93 4109.09,-1357.98 4098.94,-1354.94 4099.26,-1361.93"/>
</g>
<!-- verbose -->
<g id="node58" class="node">
<title>verbose</title>
<polygon fill="#94ddf4" stroke="black" points="16.5,-1839.01 16.5,-1876.01 89.5,-1876.01 89.5,-1839.01 16.5,-1839.01"/>
<text text-anchor="middle" x="53" y="-1853.81" font-family="Times,serif" font-size="14.00">verbose</text>
</g>
<!-- verbose&#45;&gt;run_dragen_alignment_step -->
<g id="edge66" class="edge">
<title>verbose&#45;&gt;run_dragen_alignment_step</title>
<path fill="none" stroke="black" d="M64.16,-1838.98C72.16,-1828 83.99,-1814.61 98,-1807.51 828.07,-1437.64 3516.63,-1366.52 4099.18,-1355.36"/>
<polygon fill="black" stroke="black" points="4099.33,-1358.85 4109.26,-1355.16 4099.2,-1351.86 4099.33,-1358.85"/>
</g>
<!-- dragen_alignment_output_directory -->
<g id="node59" class="node">
<title>dragen_alignment_output_directory</title>
<polygon fill="#94ddf4" stroke="black" points="4075,-362.01 4075,-399.01 4347,-399.01 4347,-362.01 4075,-362.01"/>
<text text-anchor="middle" x="4211" y="-376.81" font-family="Times,serif" font-size="14.00">dragen_alignment_output_directory</text>
</g>
<!-- dragen_bam_out -->
<g id="node60" class="node">
<title>dragen_bam_out</title>
<polygon fill="#94ddf4" stroke="black" points="4365,-362.01 4365,-399.01 4499,-399.01 4499,-362.01 4365,-362.01"/>
<text text-anchor="middle" x="4432" y="-376.81" font-family="Times,serif" font-size="14.00">dragen_bam_out</text>
</g>
<!-- multiqc_output_directory -->
<g id="node61" class="node">
<title>multiqc_output_directory</title>
<polygon fill="#94ddf4" stroke="black" points="4517.5,-362.01 4517.5,-399.01 4714.5,-399.01 4714.5,-362.01 4517.5,-362.01"/>
<text text-anchor="middle" x="4616" y="-376.81" font-family="Times,serif" font-size="14.00">multiqc_output_directory</text>
</g>
<!-- run_dragen_alignment_step&#45;&gt;dragen_alignment_output_directory -->
<g id="edge2" class="edge">
<title>run_dragen_alignment_step&#45;&gt;dragen_alignment_output_directory</title>
<path fill="none" stroke="black" d="M4211,-1333.85C4211,-1216.85 4211,-553.91 4211,-409.35"/>
<polygon fill="black" stroke="black" points="4214.5,-409.12 4211,-399.12 4207.5,-409.12 4214.5,-409.12"/>
</g>
<!-- run_dragen_alignment_step&#45;&gt;dragen_bam_out -->
<g id="edge3" class="edge">
<title>run_dragen_alignment_step&#45;&gt;dragen_bam_out</title>
<path fill="none" stroke="black" d="M4215.02,-1333.85C4241.71,-1216.74 4393.03,-552.58 4425.76,-408.91"/>
<polygon fill="black" stroke="black" points="4429.18,-409.65 4427.99,-399.12 4422.35,-408.09 4429.18,-409.65"/>
</g>
<!-- run_dragen_alignment_step&#45;&gt;dragen_qc_step -->
<g id="edge1" class="edge">
<title>run_dragen_alignment_step&#45;&gt;dragen_qc_step</title>
<path fill="none" stroke="black" d="M4312.55,-1339.12C4874.5,-1270.56 7596.06,-938.51 8098.25,-877.24"/>
<polygon fill="black" stroke="black" points="8098.8,-880.7 8108.3,-876.01 8097.95,-873.75 8098.8,-880.7"/>
</g>
<!-- dragen_qc_step&#45;&gt;multiqc_output_directory -->
<g id="edge4" class="edge">
<title>dragen_qc_step&#45;&gt;multiqc_output_directory</title>
<path fill="none" stroke="black" d="M8108.44,-856.06C7667.91,-796.2 5266.76,-469.93 4724.74,-396.29"/>
<polygon fill="black" stroke="black" points="4724.97,-392.79 4714.59,-394.91 4724.02,-399.72 4724.97,-392.79"/>
</g>
<!-- create_dummy_file_step -->
<g id="node64" class="node">
<title>create_dummy_file_step</title>
<polygon fill="lightgoldenrodyellow" stroke="black" points="8224.5,-1334.01 8224.5,-1371.01 8485.5,-1371.01 8485.5,-1334.01 8224.5,-1334.01"/>
<text text-anchor="middle" x="8355" y="-1348.81" font-family="Times,serif" font-size="14.00">custom&#45;create&#45;dummy&#45;file v(1.0.0)</text>
</g>
<!-- create_dummy_file_step&#45;&gt;dragen_qc_step -->
<g id="edge5" class="edge">
<title>create_dummy_file_step&#45;&gt;dragen_qc_step</title>
<path fill="none" stroke="black" d="M8348.6,-1334C8322.04,-1261.37 8220.43,-983.53 8188.01,-894.87"/>
<polygon fill="black" stroke="black" points="8191.21,-893.44 8184.49,-885.25 8184.64,-895.85 8191.21,-893.44"/>
</g>
<!-- \n -->
<g id="node65" class="node">
<title>\n</title>
<ellipse fill="none" stroke="black" cx="8293" cy="-1857.51" rx="27" ry="18"/>
</g>
</g>
</svg>
