<?xml version="1.0" encoding="UTF-8" standalone="no"?>
<!DOCTYPE svg PUBLIC "-//W3C//DTD SVG 1.1//EN"
 "http://www.w3.org/Graphics/SVG/1.1/DTD/svg11.dtd">
<!-- Generated by graphviz version 2.43.0 (0)
 -->
<!-- Title: G Pages: 1 -->
<svg width="8146pt" height="2018pt"
 viewBox="0.00 0.00 8146.00 2018.09" xmlns="http://www.w3.org/2000/svg" xmlns:xlink="http://www.w3.org/1999/xlink">
<g id="graph0" class="graph" transform="scale(1 1) rotate(0) translate(4 2014.09)">
<title>G</title>
<polygon fill="#eeeeee" stroke="transparent" points="-4,4 -4,-2014.09 8142,-2014.09 8142,4 -4,4"/>
<g id="clust1" class="cluster">
<title>cluster_inputs</title>
<polygon fill="#eeeeee" stroke="black" stroke-dasharray="5,2" points="8,-1472.8 8,-1959.52 8074,-1959.52 8074,-1472.8 8,-1472.8"/>
<text text-anchor="middle" x="8007.5" y="-1480.6" font-family="Times,serif" font-size="14.00">Workflow Inputs</text>
</g>
<g id="clust2" class="cluster">
<title>cluster_outputs</title>
<polygon fill="#eeeeee" stroke="black" stroke-dasharray="5,2" points="3250,-50.57 3250,-537.29 3906,-537.29 3906,-50.57 3250,-50.57"/>
<text text-anchor="middle" x="3833.5" y="-58.37" font-family="Times,serif" font-size="14.00">Workflow Outputs</text>
</g>
<!-- output_prefix -->
<g id="node1" class="node">
<title>output_prefix</title>
<polygon fill="#94ddf4" stroke="black" points="16,-1770.07 16,-1807.07 128,-1807.07 128,-1770.07 16,-1770.07"/>
<text text-anchor="middle" x="72" y="-1784.87" font-family="Times,serif" font-size="14.00">output_prefix</text>
</g>
<!-- dragen_qc_step -->
<g id="node62" class="node">
<title>dragen_qc_step</title>
<polygon fill="lightgoldenrodyellow" stroke="black" points="2.5,-816.07 2.5,-853.07 141.5,-853.07 141.5,-816.07 2.5,-816.07"/>
<text text-anchor="middle" x="72" y="-830.87" font-family="Times,serif" font-size="14.00">multiqc v(1.15.0)</text>
</g>
<!-- output_prefix&#45;&gt;dragen_qc_step -->
<g id="edge6" class="edge">
<title>output_prefix&#45;&gt;dragen_qc_step</title>
<path fill="none" stroke="black" d="M67.98,-1769.82C55.66,-1653.97 55.35,-1005.81 67.05,-863.29"/>
<polygon fill="black" stroke="black" points="70.55,-863.48 67.99,-853.2 63.58,-862.83 70.55,-863.48"/>
</g>
<!-- output_prefix&#45;&gt;dragen_qc_step -->
<g id="edge7" class="edge">
<title>output_prefix&#45;&gt;dragen_qc_step</title>
<path fill="none" stroke="black" d="M72,-1769.82C72,-1653.97 72,-1005.81 72,-863.29"/>
<polygon fill="black" stroke="black" points="75.5,-863.2 72,-853.2 68.5,-863.2 75.5,-863.2"/>
</g>
<!-- output_prefix&#45;&gt;dragen_qc_step -->
<g id="edge8" class="edge">
<title>output_prefix&#45;&gt;dragen_qc_step</title>
<path fill="none" stroke="black" d="M76.02,-1769.82C88.34,-1653.97 88.65,-1005.81 76.95,-863.29"/>
<polygon fill="black" stroke="black" points="80.42,-862.83 76.01,-853.2 73.45,-863.48 80.42,-862.83"/>
</g>
<!-- run_dragen_alignment_step -->
<g id="node63" class="node">
<title>run_dragen_alignment_step</title>
<polygon fill="lightgoldenrodyellow" stroke="black" points="3729.5,-1284.07 3729.5,-1321.07 3932.5,-1321.07 3932.5,-1284.07 3729.5,-1284.07"/>
<text text-anchor="middle" x="3831" y="-1298.87" font-family="Times,serif" font-size="14.00">dragen&#45;alignment v(4.2.4)</text>
</g>
<!-- output_prefix&#45;&gt;run_dragen_alignment_step -->
<g id="edge9" class="edge">
<title>output_prefix&#45;&gt;run_dragen_alignment_step</title>
<path fill="none" stroke="black" d="M82.61,-1769.84C93.72,-1758.92 111.09,-1745.68 129,-1738.57 808.31,-1468.86 3175.03,-1335.95 3718.97,-1308.84"/>
<polygon fill="black" stroke="black" points="3719.36,-1312.33 3729.17,-1308.34 3719.01,-1305.34 3719.36,-1312.33"/>
</g>
<!-- output_prefix&#45;&gt;run_dragen_alignment_step -->
<g id="edge10" class="edge">
<title>output_prefix&#45;&gt;run_dragen_alignment_step</title>
<path fill="none" stroke="black" d="M97.97,-1769.84C111.72,-1758.92 129.09,-1745.68 147,-1738.57 824.07,-1469.75 3177.47,-1336.83 3719.21,-1309.12"/>
<polygon fill="black" stroke="black" points="3719.56,-1312.6 3729.37,-1308.6 3719.21,-1305.61 3719.56,-1312.6"/>
</g>
<!-- aln_min_score -->
<g id="node2" class="node">
<title>aln_min_score</title>
<polygon fill="#94ddf4" stroke="black" points="7857.5,-1770.07 7857.5,-1807.07 7974.5,-1807.07 7974.5,-1770.07 7857.5,-1770.07"/>
<text text-anchor="middle" x="7916" y="-1784.87" font-family="Times,serif" font-size="14.00">aln_min_score</text>
</g>
<!-- aln_min_score&#45;&gt;run_dragen_alignment_step -->
<g id="edge11" class="edge">
<title>aln_min_score&#45;&gt;run_dragen_alignment_step</title>
<path fill="none" stroke="black" d="M7897.36,-1770.03C7884.51,-1759.04 7866.48,-1745.65 7848,-1738.57 7103.65,-1453.16 4514.48,-1331.65 3943.14,-1307.99"/>
<polygon fill="black" stroke="black" points="3942.98,-1304.48 3932.84,-1307.56 3942.69,-1311.47 3942.98,-1304.48"/>
</g>
<!-- alt_aware -->
<g id="node3" class="node">
<title>alt_aware</title>
<polygon fill="#94ddf4" stroke="black" points="7753,-1770.07 7753,-1807.07 7839,-1807.07 7839,-1770.07 7753,-1770.07"/>
<text text-anchor="middle" x="7796" y="-1784.87" font-family="Times,serif" font-size="14.00">alt_aware</text>
</g>
<!-- alt_aware&#45;&gt;run_dragen_alignment_step -->
<g id="edge12" class="edge">
<title>alt_aware&#45;&gt;run_dragen_alignment_step</title>
<path fill="none" stroke="black" d="M7782.53,-1770.03C7773.03,-1759.04 7759.31,-1745.65 7744,-1738.57 7039.73,-1412.84 4506.83,-1322.72 3942.84,-1306.5"/>
<polygon fill="black" stroke="black" points="3942.76,-1303 3932.67,-1306.21 3942.56,-1310 3942.76,-1303"/>
</g>
<!-- ann_sj_max_indel -->
<g id="node4" class="node">
<title>ann_sj_max_indel</title>
<polygon fill="#94ddf4" stroke="black" points="7595,-1770.07 7595,-1807.07 7735,-1807.07 7735,-1770.07 7595,-1770.07"/>
<text text-anchor="middle" x="7665" y="-1784.87" font-family="Times,serif" font-size="14.00">ann_sj_max_indel</text>
</g>
<!-- ann_sj_max_indel&#45;&gt;run_dragen_alignment_step -->
<g id="edge13" class="edge">
<title>ann_sj_max_indel&#45;&gt;run_dragen_alignment_step</title>
<path fill="none" stroke="black" d="M7642.53,-1769.88C7627.42,-1758.97 7606.58,-1745.74 7586,-1738.57 6884.95,-1494.32 4490.25,-1342.04 3943,-1309.93"/>
<polygon fill="black" stroke="black" points="3942.93,-1306.42 3932.74,-1309.33 3942.52,-1313.41 3942.93,-1306.42"/>
</g>
<!-- annotation_file -->
<g id="node5" class="node">
<title>annotation_file</title>
<polygon fill="#94ddf4" stroke="black" points="7455,-1770.07 7455,-1807.07 7577,-1807.07 7577,-1770.07 7455,-1770.07"/>
<text text-anchor="middle" x="7516" y="-1784.87" font-family="Times,serif" font-size="14.00">annotation_file</text>
</g>
<!-- annotation_file&#45;&gt;run_dragen_alignment_step -->
<g id="edge14" class="edge">
<title>annotation_file&#45;&gt;run_dragen_alignment_step</title>
<path fill="none" stroke="black" d="M7496.4,-1769.87C7483.15,-1758.96 7464.71,-1745.72 7446,-1738.57 6779.56,-1483.72 4477.44,-1340.07 3942.61,-1309.68"/>
<polygon fill="black" stroke="black" points="3942.76,-1306.18 3932.58,-1309.11 3942.37,-1313.17 3942.76,-1306.18"/>
</g>
<!-- dedup_min_qual -->
<g id="node6" class="node">
<title>dedup_min_qual</title>
<polygon fill="#94ddf4" stroke="black" points="7305,-1770.07 7305,-1807.07 7437,-1807.07 7437,-1770.07 7305,-1770.07"/>
<text text-anchor="middle" x="7371" y="-1784.87" font-family="Times,serif" font-size="14.00">dedup_min_qual</text>
</g>
<!-- dedup_min_qual&#45;&gt;run_dragen_alignment_step -->
<g id="edge15" class="edge">
<title>dedup_min_qual&#45;&gt;run_dragen_alignment_step</title>
<path fill="none" stroke="black" d="M7349.78,-1769.93C7335.49,-1759.03 7315.71,-1745.8 7296,-1738.57 6655.68,-1503.53 4464.16,-1345.61 3942.91,-1310.82"/>
<polygon fill="black" stroke="black" points="3942.96,-1307.31 3932.75,-1310.14 3942.5,-1314.3 3942.96,-1307.31"/>
</g>
<!-- edit_chain_limit -->
<g id="node7" class="node">
<title>edit_chain_limit</title>
<polygon fill="#94ddf4" stroke="black" points="7157.5,-1770.07 7157.5,-1807.07 7286.5,-1807.07 7286.5,-1770.07 7157.5,-1770.07"/>
<text text-anchor="middle" x="7222" y="-1784.87" font-family="Times,serif" font-size="14.00">edit_chain_limit</text>
</g>
<!-- edit_chain_limit&#45;&gt;run_dragen_alignment_step -->
<g id="edge16" class="edge">
<title>edit_chain_limit&#45;&gt;run_dragen_alignment_step</title>
<path fill="none" stroke="black" d="M7201.09,-1769.96C7187,-1759.08 7167.49,-1745.85 7148,-1738.57 6537.93,-1510.58 4451.09,-1348.2 3943.13,-1311.45"/>
<polygon fill="black" stroke="black" points="3943.09,-1307.94 3932.87,-1310.71 3942.59,-1314.92 3943.09,-1307.94"/>
</g>
<!-- edit_mode -->
<g id="node8" class="node">
<title>edit_mode</title>
<polygon fill="#94ddf4" stroke="black" points="7049,-1770.07 7049,-1807.07 7139,-1807.07 7139,-1770.07 7049,-1770.07"/>
<text text-anchor="middle" x="7094" y="-1784.87" font-family="Times,serif" font-size="14.00">edit_mode</text>
</g>
<!-- edit_mode&#45;&gt;run_dragen_alignment_step -->
<g id="edge17" class="edge">
<title>edit_mode&#45;&gt;run_dragen_alignment_step</title>
<path fill="none" stroke="black" d="M7079.37,-1769.67C7069.45,-1758.82 7055.38,-1745.73 7040,-1738.57 6469.44,-1472.87 4442.28,-1339.19 3942.82,-1309.84"/>
<polygon fill="black" stroke="black" points="3942.91,-1306.34 3932.73,-1309.25 3942.5,-1313.33 3942.91,-1306.34"/>
</g>
<!-- edit_read_len -->
<g id="node9" class="node">
<title>edit_read_len</title>
<polygon fill="#94ddf4" stroke="black" points="6919,-1770.07 6919,-1807.07 7031,-1807.07 7031,-1770.07 6919,-1770.07"/>
<text text-anchor="middle" x="6975" y="-1784.87" font-family="Times,serif" font-size="14.00">edit_read_len</text>
</g>
<!-- edit_read_len&#45;&gt;run_dragen_alignment_step -->
<g id="edge18" class="edge">
<title>edit_read_len&#45;&gt;run_dragen_alignment_step</title>
<path fill="none" stroke="black" d="M6956.97,-1769.97C6944.73,-1759.1 6927.62,-1745.88 6910,-1738.57 6353.74,-1507.86 4428.63,-1348.9 3942.95,-1311.85"/>
<polygon fill="black" stroke="black" points="3943.02,-1308.34 3932.78,-1311.07 3942.49,-1315.32 3943.02,-1308.34"/>
</g>
<!-- edit_seed_num -->
<g id="node10" class="node">
<title>edit_seed_num</title>
<polygon fill="#94ddf4" stroke="black" points="6779,-1770.07 6779,-1807.07 6901,-1807.07 6901,-1770.07 6779,-1770.07"/>
<text text-anchor="middle" x="6840" y="-1784.87" font-family="Times,serif" font-size="14.00">edit_seed_num</text>
</g>
<!-- edit_seed_num&#45;&gt;run_dragen_alignment_step -->
<g id="edge19" class="edge">
<title>edit_seed_num&#45;&gt;run_dragen_alignment_step</title>
<path fill="none" stroke="black" d="M6820.34,-1770.04C6807.06,-1759.2 6788.61,-1745.97 6770,-1738.57 6237.34,-1526.54 4413.66,-1354.74 3942.71,-1313.18"/>
<polygon fill="black" stroke="black" points="3942.77,-1309.67 3932.51,-1312.28 3942.16,-1316.64 3942.77,-1309.67"/>
</g>
<!-- en_alt_hap_aln -->
<g id="node11" class="node">
<title>en_alt_hap_aln</title>
<polygon fill="#94ddf4" stroke="black" points="6639.5,-1770.07 6639.5,-1807.07 6760.5,-1807.07 6760.5,-1770.07 6639.5,-1770.07"/>
<text text-anchor="middle" x="6700" y="-1784.87" font-family="Times,serif" font-size="14.00">en_alt_hap_aln</text>
</g>
<!-- en_alt_hap_aln&#45;&gt;run_dragen_alignment_step -->
<g id="edge20" class="edge">
<title>en_alt_hap_aln&#45;&gt;run_dragen_alignment_step</title>
<path fill="none" stroke="black" d="M6680.35,-1769.84C6667.29,-1759.06 6649.24,-1745.98 6631,-1738.57 5646.69,-1338.77 4330.47,-1303.94 3942.82,-1302.82"/>
<polygon fill="black" stroke="black" points="3942.74,-1299.32 3932.73,-1302.8 3942.73,-1306.32 3942.74,-1299.32"/>
</g>
<!-- en_chimeric_aln -->
<g id="node12" class="node">
<title>en_chimeric_aln</title>
<polygon fill="#94ddf4" stroke="black" points="6490.5,-1770.07 6490.5,-1807.07 6621.5,-1807.07 6621.5,-1770.07 6490.5,-1770.07"/>
<text text-anchor="middle" x="6556" y="-1784.87" font-family="Times,serif" font-size="14.00">en_chimeric_aln</text>
</g>
<!-- en_chimeric_aln&#45;&gt;run_dragen_alignment_step -->
<g id="edge21" class="edge">
<title>en_chimeric_aln&#45;&gt;run_dragen_alignment_step</title>
<path fill="none" stroke="black" d="M6534.7,-1769.93C6520.6,-1759.18 6501.22,-1746.11 6482,-1738.57 5549.64,-1372.9 4316.23,-1314.62 3942.78,-1305.33"/>
<polygon fill="black" stroke="black" points="3942.87,-1301.83 3932.79,-1305.09 3942.7,-1308.83 3942.87,-1301.83"/>
</g>
<!-- enable_duplicate_marking -->
<g id="node13" class="node">
<title>enable_duplicate_marking</title>
<polygon fill="#94ddf4" stroke="black" points="6269.5,-1770.07 6269.5,-1807.07 6472.5,-1807.07 6472.5,-1770.07 6269.5,-1770.07"/>
<text text-anchor="middle" x="6371" y="-1784.87" font-family="Times,serif" font-size="14.00">enable_duplicate_marking</text>
</g>
<!-- enable_duplicate_marking&#45;&gt;run_dragen_alignment_step -->
<g id="edge22" class="edge">
<title>enable_duplicate_marking&#45;&gt;run_dragen_alignment_step</title>
<path fill="none" stroke="black" d="M6337.14,-1769.92C6315.8,-1759.45 6287.38,-1746.67 6261,-1738.57 5390.82,-1471.2 4291.78,-1348.05 3942.7,-1313.86"/>
<polygon fill="black" stroke="black" points="3942.89,-1310.36 3932.59,-1312.87 3942.21,-1317.32 3942.89,-1310.36"/>
</g>
<!-- enable_map_align -->
<g id="node14" class="node">
<title>enable_map_align</title>
<polygon fill="#94ddf4" stroke="black" points="6108.5,-1770.07 6108.5,-1807.07 6251.5,-1807.07 6251.5,-1770.07 6108.5,-1770.07"/>
<text text-anchor="middle" x="6180" y="-1784.87" font-family="Times,serif" font-size="14.00">enable_map_align</text>
</g>
<!-- enable_map_align&#45;&gt;run_dragen_alignment_step -->
<g id="edge23" class="edge">
<title>enable_map_align&#45;&gt;run_dragen_alignment_step</title>
<path fill="none" stroke="black" d="M6156.33,-1769.92C6141,-1759.31 6120.2,-1746.39 6100,-1738.57 5310.33,-1432.75 4279.91,-1335.49 3942.92,-1310.79"/>
<polygon fill="black" stroke="black" points="3942.9,-1307.28 3932.68,-1310.05 3942.4,-1314.26 3942.9,-1307.28"/>
</g>
<!-- enable_map_align_output -->
<g id="node15" class="node">
<title>enable_map_align_output</title>
<polygon fill="#94ddf4" stroke="black" points="5893.5,-1770.07 5893.5,-1807.07 6090.5,-1807.07 6090.5,-1770.07 5893.5,-1770.07"/>
<text text-anchor="middle" x="5992" y="-1784.87" font-family="Times,serif" font-size="14.00">enable_map_align_output</text>
</g>
<!-- enable_map_align_output&#45;&gt;run_dragen_alignment_step -->
<g id="edge24" class="edge">
<title>enable_map_align_output&#45;&gt;run_dragen_alignment_step</title>
<path fill="none" stroke="black" d="M5958.56,-1769.93C5937.84,-1759.6 5910.41,-1746.96 5885,-1738.57 5163.62,-1500.26 4255.38,-1361.65 3942.71,-1318.36"/>
<polygon fill="black" stroke="black" points="3943.12,-1314.89 3932.74,-1316.99 3942.16,-1321.82 3943.12,-1314.89"/>
</g>
<!-- enable_rna -->
<g id="node16" class="node">
<title>enable_rna</title>
<polygon fill="#94ddf4" stroke="black" points="5780.5,-1770.07 5780.5,-1807.07 5875.5,-1807.07 5875.5,-1770.07 5780.5,-1770.07"/>
<text text-anchor="middle" x="5828" y="-1784.87" font-family="Times,serif" font-size="14.00">enable_rna</text>
</g>
<!-- enable_rna&#45;&gt;run_dragen_alignment_step -->
<g id="edge25" class="edge">
<title>enable_rna&#45;&gt;run_dragen_alignment_step</title>
<path fill="none" stroke="black" d="M5811.67,-1769.66C5801.07,-1759.08 5786.39,-1746.3 5771,-1738.57 5129.73,-1416.59 4250.63,-1330.68 3942.86,-1309.77"/>
<polygon fill="black" stroke="black" points="3942.8,-1306.26 3932.59,-1309.08 3942.33,-1313.24 3942.8,-1306.26"/>
</g>
<!-- enable_rna_quantification -->
<g id="node17" class="node">
<title>enable_rna_quantification</title>
<polygon fill="#94ddf4" stroke="black" points="5562,-1770.07 5562,-1807.07 5762,-1807.07 5762,-1770.07 5562,-1770.07"/>
<text text-anchor="middle" x="5662" y="-1784.87" font-family="Times,serif" font-size="14.00">enable_rna_quantification</text>
</g>
<!-- enable_rna_quantification&#45;&gt;run_dragen_alignment_step -->
<g id="edge26" class="edge">
<title>enable_rna_quantification&#45;&gt;run_dragen_alignment_step</title>
<path fill="none" stroke="black" d="M5626.8,-1769.85C5605.76,-1759.74 5578.28,-1747.37 5553,-1738.57 4953.53,-1529.91 4204.7,-1375.55 3934.33,-1323.08"/>
<polygon fill="black" stroke="black" points="3934.62,-1319.58 3924.14,-1321.11 3933.29,-1326.45 3934.62,-1319.58"/>
</g>
<!-- enable_rrna_filter -->
<g id="node18" class="node">
<title>enable_rrna_filter</title>
<polygon fill="#94ddf4" stroke="black" points="5400.5,-1770.07 5400.5,-1807.07 5543.5,-1807.07 5543.5,-1770.07 5400.5,-1770.07"/>
<text text-anchor="middle" x="5472" y="-1784.87" font-family="Times,serif" font-size="14.00">enable_rrna_filter</text>
</g>
<!-- enable_rrna_filter&#45;&gt;run_dragen_alignment_step -->
<g id="edge27" class="edge">
<title>enable_rrna_filter&#45;&gt;run_dragen_alignment_step</title>
<path fill="none" stroke="black" d="M5447.4,-1770.02C5432.05,-1759.72 5411.56,-1747.09 5392,-1738.57 4870.19,-1511.36 4198.3,-1371.61 3939.37,-1322.97"/>
<polygon fill="black" stroke="black" points="3939.69,-1319.47 3929.22,-1321.07 3938.4,-1326.35 3939.69,-1319.47"/>
</g>
<!-- enable_sort -->
<g id="node19" class="node">
<title>enable_sort</title>
<polygon fill="#94ddf4" stroke="black" points="5283.5,-1770.07 5283.5,-1807.07 5382.5,-1807.07 5382.5,-1770.07 5283.5,-1770.07"/>
<text text-anchor="middle" x="5333" y="-1784.87" font-family="Times,serif" font-size="14.00">enable_sort</text>
</g>
<!-- enable_sort&#45;&gt;run_dragen_alignment_step -->
<g id="edge28" class="edge">
<title>enable_sort&#45;&gt;run_dragen_alignment_step</title>
<path fill="none" stroke="black" d="M5315.53,-1769.83C5304.46,-1759.46 5289.37,-1746.82 5274,-1738.57 4813.61,-1491.26 4193.24,-1365.06 3942.77,-1321.53"/>
<polygon fill="black" stroke="black" points="3943.02,-1318.02 3932.57,-1319.77 3941.82,-1324.92 3943.02,-1318.02"/>
</g>
<!-- fastq_list -->
<g id="node20" class="node">
<title>fastq_list</title>
<polygon fill="#94ddf4" stroke="black" points="5183,-1770.07 5183,-1807.07 5265,-1807.07 5265,-1770.07 5183,-1770.07"/>
<text text-anchor="middle" x="5224" y="-1784.87" font-family="Times,serif" font-size="14.00">fastq_list</text>
</g>
<!-- fastq_list&#45;&gt;run_dragen_alignment_step -->
<g id="edge29" class="edge">
<title>fastq_list&#45;&gt;run_dragen_alignment_step</title>
<path fill="none" stroke="black" d="M5209.83,-1770.06C5200.59,-1759.64 5187.73,-1746.88 5174,-1738.57 4759.04,-1487.42 4183.03,-1364.61 3942.98,-1321.8"/>
<polygon fill="black" stroke="black" points="3943.3,-1318.31 3932.85,-1320.01 3942.08,-1325.2 3943.3,-1318.31"/>
</g>
<!-- fastq_list_rows -->
<g id="node21" class="node">
<title>fastq_list_rows</title>
<polygon fill="#94ddf4" stroke="black" points="5041.5,-1770.07 5041.5,-1807.07 5164.5,-1807.07 5164.5,-1770.07 5041.5,-1770.07"/>
<text text-anchor="middle" x="5103" y="-1784.87" font-family="Times,serif" font-size="14.00">fastq_list_rows</text>
</g>
<!-- fastq_list_rows&#45;&gt;run_dragen_alignment_step -->
<g id="edge30" class="edge">
<title>fastq_list_rows&#45;&gt;run_dragen_alignment_step</title>
<path fill="none" stroke="black" d="M5080.95,-1769.87C5067.62,-1759.76 5049.98,-1747.39 5033,-1738.57 4629.86,-1529.21 4102.94,-1376.54 3907.92,-1323.76"/>
<polygon fill="black" stroke="black" points="3908.61,-1320.32 3898.05,-1321.09 3906.79,-1327.08 3908.61,-1320.32"/>
</g>
<!-- gap_ext_pen -->
<g id="node22" class="node">
<title>gap_ext_pen</title>
<polygon fill="#94ddf4" stroke="black" points="4918.5,-1770.07 4918.5,-1807.07 5023.5,-1807.07 5023.5,-1770.07 4918.5,-1770.07"/>
<text text-anchor="middle" x="4971" y="-1784.87" font-family="Times,serif" font-size="14.00">gap_ext_pen</text>
</g>
<!-- gap_ext_pen&#45;&gt;run_dragen_alignment_step -->
<g id="edge31" class="edge">
<title>gap_ext_pen&#45;&gt;run_dragen_alignment_step</title>
<path fill="none" stroke="black" d="M4952.02,-1769.9C4940.49,-1759.8 4925.12,-1747.43 4910,-1738.57 4553.82,-1529.89 4078.6,-1377.14 3901.46,-1324.04"/>
<polygon fill="black" stroke="black" points="3902.32,-1320.64 3891.74,-1321.13 3900.32,-1327.35 3902.32,-1320.64"/>
</g>
<!-- gap_open_pen -->
<g id="node23" class="node">
<title>gap_open_pen</title>
<polygon fill="#94ddf4" stroke="black" points="4783.5,-1770.07 4783.5,-1807.07 4900.5,-1807.07 4900.5,-1770.07 4783.5,-1770.07"/>
<text text-anchor="middle" x="4842" y="-1784.87" font-family="Times,serif" font-size="14.00">gap_open_pen</text>
</g>
<!-- gap_open_pen&#45;&gt;run_dragen_alignment_step -->
<g id="edge32" class="edge">
<title>gap_open_pen&#45;&gt;run_dragen_alignment_step</title>
<path fill="none" stroke="black" d="M4820.12,-1769.85C4807.39,-1759.98 4790.78,-1747.85 4775,-1738.57 4453.47,-1549.47 4035.7,-1382.13 3886.75,-1324.71"/>
<polygon fill="black" stroke="black" points="3887.92,-1321.41 3877.33,-1321.08 3885.41,-1327.94 3887.92,-1321.41"/>
</g>
<!-- generate_md_tags -->
<g id="node24" class="node">
<title>generate_md_tags</title>
<polygon fill="#94ddf4" stroke="black" points="4618.5,-1770.07 4618.5,-1807.07 4765.5,-1807.07 4765.5,-1770.07 4618.5,-1770.07"/>
<text text-anchor="middle" x="4692" y="-1784.87" font-family="Times,serif" font-size="14.00">generate_md_tags</text>
</g>
<!-- generate_md_tags&#45;&gt;run_dragen_alignment_step -->
<g id="edge33" class="edge">
<title>generate_md_tags&#45;&gt;run_dragen_alignment_step</title>
<path fill="none" stroke="black" d="M4662.52,-1769.94C4646.7,-1760.54 4626.85,-1748.82 4609,-1738.57 4328.79,-1577.55 3987.99,-1389.74 3871.95,-1326.02"/>
<polygon fill="black" stroke="black" points="3873.47,-1322.86 3863.02,-1321.12 3870.1,-1329 3873.47,-1322.86"/>
</g>
<!-- generate_sa_tags -->
<g id="node25" class="node">
<title>generate_sa_tags</title>
<polygon fill="#94ddf4" stroke="black" points="4460,-1770.07 4460,-1807.07 4600,-1807.07 4600,-1770.07 4460,-1770.07"/>
<text text-anchor="middle" x="4530" y="-1784.87" font-family="Times,serif" font-size="14.00">generate_sa_tags</text>
</g>
<!-- generate_sa_tags&#45;&gt;run_dragen_alignment_step -->
<g id="edge34" class="edge">
<title>generate_sa_tags&#45;&gt;run_dragen_alignment_step</title>
<path fill="none" stroke="black" d="M4504.71,-1770.06C4398.22,-1696.32 3986.27,-1411.08 3864.86,-1327.01"/>
<polygon fill="black" stroke="black" points="3866.84,-1324.13 3856.62,-1321.31 3862.85,-1329.88 3866.84,-1324.13"/>
</g>
<!-- generate_zs_tags -->
<g id="node26" class="node">
<title>generate_zs_tags</title>
<polygon fill="#94ddf4" stroke="black" points="4302,-1770.07 4302,-1807.07 4442,-1807.07 4442,-1770.07 4302,-1770.07"/>
<text text-anchor="middle" x="4372" y="-1784.87" font-family="Times,serif" font-size="14.00">generate_zs_tags</text>
</g>
<!-- generate_zs_tags&#45;&gt;run_dragen_alignment_step -->
<g id="edge35" class="edge">
<title>generate_zs_tags&#45;&gt;run_dragen_alignment_step</title>
<path fill="none" stroke="black" d="M4352.43,-1770.06C4270.34,-1696.62 3953.72,-1413.36 3858.34,-1328.03"/>
<polygon fill="black" stroke="black" points="3860.62,-1325.37 3850.83,-1321.31 3855.95,-1330.59 3860.62,-1325.37"/>
</g>
<!-- global -->
<g id="node27" class="node">
<title>global</title>
<polygon fill="#94ddf4" stroke="black" points="4224,-1770.07 4224,-1807.07 4284,-1807.07 4284,-1770.07 4224,-1770.07"/>
<text text-anchor="middle" x="4254" y="-1784.87" font-family="Times,serif" font-size="14.00">global</text>
</g>
<!-- global&#45;&gt;run_dragen_alignment_step -->
<g id="edge36" class="edge">
<title>global&#45;&gt;run_dragen_alignment_step</title>
<path fill="none" stroke="black" d="M4240.55,-1769.66C4233.4,-1760.28 4224.38,-1748.68 4216,-1738.57 4083.66,-1578.89 3915.51,-1395.06 3854.47,-1328.91"/>
<polygon fill="black" stroke="black" points="3856.92,-1326.41 3847.57,-1321.43 3851.78,-1331.16 3856.92,-1326.41"/>
</g>
<!-- hard_clips -->
<g id="node28" class="node">
<title>hard_clips</title>
<polygon fill="#94ddf4" stroke="black" points="4117.5,-1770.07 4117.5,-1807.07 4206.5,-1807.07 4206.5,-1770.07 4117.5,-1770.07"/>
<text text-anchor="middle" x="4162" y="-1784.87" font-family="Times,serif" font-size="14.00">hard_clips</text>
</g>
<!-- hard_clips&#45;&gt;run_dragen_alignment_step -->
<g id="edge37" class="edge">
<title>hard_clips&#45;&gt;run_dragen_alignment_step</title>
<path fill="none" stroke="black" d="M4150.02,-1770.06C4100.1,-1697.06 3908.41,-1416.76 3848.8,-1329.59"/>
<polygon fill="black" stroke="black" points="3851.67,-1327.59 3843.13,-1321.31 3845.89,-1331.54 3851.67,-1327.59"/>
</g>
<!-- map_orientations -->
<g id="node29" class="node">
<title>map_orientations</title>
<polygon fill="#94ddf4" stroke="black" points="3959,-1770.07 3959,-1807.07 4099,-1807.07 4099,-1770.07 3959,-1770.07"/>
<text text-anchor="middle" x="4029" y="-1784.87" font-family="Times,serif" font-size="14.00">map_orientations</text>
</g>
<!-- map_orientations&#45;&gt;run_dragen_alignment_step -->
<g id="edge38" class="edge">
<title>map_orientations&#45;&gt;run_dragen_alignment_step</title>
<path fill="none" stroke="black" d="M4021.84,-1770.06C3992.1,-1697.36 3878.23,-1419.02 3842.08,-1330.66"/>
<polygon fill="black" stroke="black" points="3845.28,-1329.24 3838.26,-1321.31 3838.81,-1331.89 3845.28,-1329.24"/>
</g>
<!-- mapq_max -->
<g id="node30" class="node">
<title>mapq_max</title>
<polygon fill="#94ddf4" stroke="black" points="3847.5,-1770.07 3847.5,-1807.07 3940.5,-1807.07 3940.5,-1770.07 3847.5,-1770.07"/>
<text text-anchor="middle" x="3894" y="-1784.87" font-family="Times,serif" font-size="14.00">mapq_max</text>
</g>
<!-- mapq_max&#45;&gt;run_dragen_alignment_step -->
<g id="edge39" class="edge">
<title>mapq_max&#45;&gt;run_dragen_alignment_step</title>
<path fill="none" stroke="black" d="M3891.72,-1770.06C3882.29,-1697.58 3846.25,-1420.71 3834.63,-1331.47"/>
<polygon fill="black" stroke="black" points="3838.07,-1330.78 3833.31,-1321.31 3831.13,-1331.68 3838.07,-1330.78"/>
</g>
<!-- mapq_strict_js -->
<g id="node31" class="node">
<title>mapq_strict_js</title>
<polygon fill="#94ddf4" stroke="black" points="3709,-1770.07 3709,-1807.07 3829,-1807.07 3829,-1770.07 3709,-1770.07"/>
<text text-anchor="middle" x="3769" y="-1784.87" font-family="Times,serif" font-size="14.00">mapq_strict_js</text>
</g>
<!-- mapq_strict_js&#45;&gt;run_dragen_alignment_step -->
<g id="edge40" class="edge">
<title>mapq_strict_js&#45;&gt;run_dragen_alignment_step</title>
<path fill="none" stroke="black" d="M3771.24,-1770.06C3780.53,-1697.58 3815.99,-1420.71 3827.43,-1331.47"/>
<polygon fill="black" stroke="black" points="3830.93,-1331.68 3828.73,-1321.31 3823.98,-1330.79 3830.93,-1331.68"/>
</g>
<!-- match_n_score -->
<g id="node32" class="node">
<title>match_n_score</title>
<polygon fill="#94ddf4" stroke="black" points="3569,-1770.07 3569,-1807.07 3691,-1807.07 3691,-1770.07 3569,-1770.07"/>
<text text-anchor="middle" x="3630" y="-1784.87" font-family="Times,serif" font-size="14.00">match_n_score</text>
</g>
<!-- match_n_score&#45;&gt;run_dragen_alignment_step -->
<g id="edge41" class="edge">
<title>match_n_score&#45;&gt;run_dragen_alignment_step</title>
<path fill="none" stroke="black" d="M3637.27,-1770.06C3667.46,-1697.36 3783.05,-1419.02 3819.75,-1330.66"/>
<polygon fill="black" stroke="black" points="3823.03,-1331.89 3823.63,-1321.31 3816.56,-1329.2 3823.03,-1331.89"/>
</g>
<!-- match_score -->
<g id="node33" class="node">
<title>match_score</title>
<polygon fill="#94ddf4" stroke="black" points="3445,-1770.07 3445,-1807.07 3551,-1807.07 3551,-1770.07 3445,-1770.07"/>
<text text-anchor="middle" x="3498" y="-1784.87" font-family="Times,serif" font-size="14.00">match_score</text>
</g>
<!-- match_score&#45;&gt;run_dragen_alignment_step -->
<g id="edge42" class="edge">
<title>match_score&#45;&gt;run_dragen_alignment_step</title>
<path fill="none" stroke="black" d="M3510.05,-1770.06C3560.27,-1697.06 3753.12,-1416.76 3813.09,-1329.59"/>
<polygon fill="black" stroke="black" points="3816.01,-1331.53 3818.79,-1321.31 3810.24,-1327.57 3816.01,-1331.53"/>
</g>
<!-- max_intron_bases -->
<g id="node34" class="node">
<title>max_intron_bases</title>
<polygon fill="#94ddf4" stroke="black" points="3283,-1770.07 3283,-1807.07 3427,-1807.07 3427,-1770.07 3283,-1770.07"/>
<text text-anchor="middle" x="3355" y="-1784.87" font-family="Times,serif" font-size="14.00">max_intron_bases</text>
</g>
<!-- max_intron_bases&#45;&gt;run_dragen_alignment_step -->
<g id="edge43" class="edge">
<title>max_intron_bases&#45;&gt;run_dragen_alignment_step</title>
<path fill="none" stroke="black" d="M3372.22,-1770.06C3444.3,-1696.77 3721.91,-1414.49 3806.44,-1328.55"/>
<polygon fill="black" stroke="black" points="3809.03,-1330.9 3813.55,-1321.31 3804.04,-1325.99 3809.03,-1330.9"/>
</g>
<!-- max_rescues -->
<g id="node35" class="node">
<title>max_rescues</title>
<polygon fill="#94ddf4" stroke="black" points="3157,-1770.07 3157,-1807.07 3265,-1807.07 3265,-1770.07 3157,-1770.07"/>
<text text-anchor="middle" x="3211" y="-1784.87" font-family="Times,serif" font-size="14.00">max_rescues</text>
</g>
<!-- max_rescues&#45;&gt;run_dragen_alignment_step -->
<g id="edge44" class="edge">
<title>max_rescues&#45;&gt;run_dragen_alignment_step</title>
<path fill="none" stroke="black" d="M3233.43,-1770.06C3327.69,-1696.47 3691.82,-1412.22 3800.32,-1327.52"/>
<polygon fill="black" stroke="black" points="3802.54,-1330.22 3808.27,-1321.31 3798.23,-1324.71 3802.54,-1330.22"/>
</g>
<!-- min_intron_bases -->
<g id="node36" class="node">
<title>min_intron_bases</title>
<polygon fill="#94ddf4" stroke="black" points="2997.5,-1770.07 2997.5,-1807.07 3138.5,-1807.07 3138.5,-1770.07 2997.5,-1770.07"/>
<text text-anchor="middle" x="3068" y="-1784.87" font-family="Times,serif" font-size="14.00">min_intron_bases</text>
</g>
<!-- min_intron_bases&#45;&gt;run_dragen_alignment_step -->
<g id="edge45" class="edge">
<title>min_intron_bases&#45;&gt;run_dragen_alignment_step</title>
<path fill="none" stroke="black" d="M3095.61,-1770.06C3211.96,-1696.25 3662.42,-1410.51 3794.44,-1326.76"/>
<polygon fill="black" stroke="black" points="3796.46,-1329.62 3803.03,-1321.31 3792.71,-1323.71 3796.46,-1329.62"/>
</g>
<!-- min_score_coeff -->
<g id="node37" class="node">
<title>min_score_coeff</title>
<polygon fill="#94ddf4" stroke="black" points="2850.5,-1770.07 2850.5,-1807.07 2979.5,-1807.07 2979.5,-1770.07 2850.5,-1770.07"/>
<text text-anchor="middle" x="2915" y="-1784.87" font-family="Times,serif" font-size="14.00">min_score_coeff</text>
</g>
<!-- min_score_coeff&#45;&gt;run_dragen_alignment_step -->
<g id="edge46" class="edge">
<title>min_score_coeff&#45;&gt;run_dragen_alignment_step</title>
<path fill="none" stroke="black" d="M2940.25,-1769.87C2954.36,-1760.23 2972.39,-1748.32 2989,-1738.57 3283.85,-1565.47 3654.81,-1386.77 3784.05,-1325.61"/>
<polygon fill="black" stroke="black" points="3785.75,-1328.68 3793.29,-1321.25 3782.76,-1322.35 3785.75,-1328.68"/>
</g>
<!-- mismatch_pen -->
<g id="node38" class="node">
<title>mismatch_pen</title>
<polygon fill="#94ddf4" stroke="black" points="2713.5,-1770.07 2713.5,-1807.07 2832.5,-1807.07 2832.5,-1770.07 2713.5,-1770.07"/>
<text text-anchor="middle" x="2773" y="-1784.87" font-family="Times,serif" font-size="14.00">mismatch_pen</text>
</g>
<!-- mismatch_pen&#45;&gt;run_dragen_alignment_step -->
<g id="edge47" class="edge">
<title>mismatch_pen&#45;&gt;run_dragen_alignment_step</title>
<path fill="none" stroke="black" d="M2795.23,-1770.03C2808.39,-1760.1 2825.64,-1747.85 2842,-1738.57 3179.01,-1547.43 3616.02,-1381.55 3772.27,-1324.59"/>
<polygon fill="black" stroke="black" points="3773.51,-1327.87 3781.72,-1321.16 3771.12,-1321.29 3773.51,-1327.87"/>
</g>
<!-- no_unclip_score -->
<g id="node39" class="node">
<title>no_unclip_score</title>
<polygon fill="#94ddf4" stroke="black" points="2566.5,-1770.07 2566.5,-1807.07 2695.5,-1807.07 2695.5,-1770.07 2566.5,-1770.07"/>
<text text-anchor="middle" x="2631" y="-1784.87" font-family="Times,serif" font-size="14.00">no_unclip_score</text>
</g>
<!-- no_unclip_score&#45;&gt;run_dragen_alignment_step -->
<g id="edge48" class="edge">
<title>no_unclip_score&#45;&gt;run_dragen_alignment_step</title>
<path fill="none" stroke="black" d="M2654.86,-1769.86C2668.98,-1759.87 2687.48,-1747.62 2705,-1738.57 3088.76,-1540.35 3584.44,-1379.35 3763.08,-1324.11"/>
<polygon fill="black" stroke="black" points="3764.35,-1327.38 3772.87,-1321.09 3762.29,-1320.7 3764.35,-1327.38"/>
</g>
<!-- no_unpaired -->
<g id="node40" class="node">
<title>no_unpaired</title>
<polygon fill="#94ddf4" stroke="black" points="2444,-1770.07 2444,-1807.07 2548,-1807.07 2548,-1770.07 2444,-1770.07"/>
<text text-anchor="middle" x="2496" y="-1784.87" font-family="Times,serif" font-size="14.00">no_unpaired</text>
</g>
<!-- no_unpaired&#45;&gt;run_dragen_alignment_step -->
<g id="edge49" class="edge">
<title>no_unpaired&#45;&gt;run_dragen_alignment_step</title>
<path fill="none" stroke="black" d="M2514.89,-1769.85C2526.6,-1759.61 2542.34,-1747.1 2558,-1738.57 2972.08,-1512.87 3524.91,-1372.59 3740.01,-1323.39"/>
<polygon fill="black" stroke="black" points="3741.02,-1326.75 3749.99,-1321.11 3739.47,-1319.92 3741.02,-1326.75"/>
</g>
<!-- pe_max_penalty -->
<g id="node41" class="node">
<title>pe_max_penalty</title>
<polygon fill="#94ddf4" stroke="black" points="2294.5,-1770.07 2294.5,-1807.07 2425.5,-1807.07 2425.5,-1770.07 2294.5,-1770.07"/>
<text text-anchor="middle" x="2360" y="-1784.87" font-family="Times,serif" font-size="14.00">pe_max_penalty</text>
</g>
<!-- pe_max_penalty&#45;&gt;run_dragen_alignment_step -->
<g id="edge50" class="edge">
<title>pe_max_penalty&#45;&gt;run_dragen_alignment_step</title>
<path fill="none" stroke="black" d="M2383.33,-1769.91C2397.66,-1759.69 2416.71,-1747.19 2435,-1738.57 2901.96,-1518.51 3507.92,-1373.58 3737.41,-1323.27"/>
<polygon fill="black" stroke="black" points="3738.37,-1326.65 3747.39,-1321.09 3736.87,-1319.81 3738.37,-1326.65"/>
</g>
<!-- pe_orientation -->
<g id="node42" class="node">
<title>pe_orientation</title>
<polygon fill="#94ddf4" stroke="black" points="2157.5,-1770.07 2157.5,-1807.07 2276.5,-1807.07 2276.5,-1770.07 2157.5,-1770.07"/>
<text text-anchor="middle" x="2217" y="-1784.87" font-family="Times,serif" font-size="14.00">pe_orientation</text>
</g>
<!-- pe_orientation&#45;&gt;run_dragen_alignment_step -->
<g id="edge51" class="edge">
<title>pe_orientation&#45;&gt;run_dragen_alignment_step</title>
<path fill="none" stroke="black" d="M2237.87,-1769.87C2250.97,-1759.51 2268.64,-1746.87 2286,-1738.57 2792.35,-1496.48 3458.29,-1366.06 3719.27,-1321.45"/>
<polygon fill="black" stroke="black" points="3719.87,-1324.9 3729.14,-1319.77 3718.69,-1318 3719.87,-1324.9"/>
</g>
<!-- preserve_map_align_order -->
<g id="node43" class="node">
<title>preserve_map_align_order</title>
<polygon fill="#94ddf4" stroke="black" points="1934.5,-1770.07 1934.5,-1807.07 2139.5,-1807.07 2139.5,-1770.07 1934.5,-1770.07"/>
<text text-anchor="middle" x="2037" y="-1784.87" font-family="Times,serif" font-size="14.00">preserve_map_align_order</text>
</g>
<!-- preserve_map_align_order&#45;&gt;run_dragen_alignment_step -->
<g id="edge52" class="edge">
<title>preserve_map_align_order&#45;&gt;run_dragen_alignment_step</title>
<path fill="none" stroke="black" d="M2073.24,-1769.96C2094.89,-1759.88 2123.12,-1747.51 2149,-1738.57 2738.3,-1534.91 3472.62,-1376.52 3733.51,-1323.08"/>
<polygon fill="black" stroke="black" points="3734.24,-1326.51 3743.34,-1321.07 3732.84,-1319.65 3734.24,-1326.51"/>
</g>
<!-- reference_tar -->
<g id="node44" class="node">
<title>reference_tar</title>
<polygon fill="#94ddf4" stroke="black" points="1803.5,-1770.07 1803.5,-1807.07 1916.5,-1807.07 1916.5,-1770.07 1803.5,-1770.07"/>
<text text-anchor="middle" x="1860" y="-1784.87" font-family="Times,serif" font-size="14.00">reference_tar</text>
</g>
<!-- reference_tar&#45;&gt;run_dragen_alignment_step -->
<g id="edge53" class="edge">
<title>reference_tar&#45;&gt;run_dragen_alignment_step</title>
<path fill="none" stroke="black" d="M1879.13,-1770C1891.62,-1759.42 1908.76,-1746.51 1926,-1738.57 2564.49,-1444.53 3417.43,-1341.5 3719.36,-1312.91"/>
<polygon fill="black" stroke="black" points="3719.81,-1316.38 3729.43,-1311.96 3719.15,-1309.41 3719.81,-1316.38"/>
</g>
<!-- remove_duplicates -->
<g id="node45" class="node">
<title>remove_duplicates</title>
<polygon fill="#94ddf4" stroke="black" points="1635,-1770.07 1635,-1807.07 1785,-1807.07 1785,-1770.07 1635,-1770.07"/>
<text text-anchor="middle" x="1710" y="-1784.87" font-family="Times,serif" font-size="14.00">remove_duplicates</text>
</g>
<!-- remove_duplicates&#45;&gt;run_dragen_alignment_step -->
<g id="edge54" class="edge">
<title>remove_duplicates&#45;&gt;run_dragen_alignment_step</title>
<path fill="none" stroke="black" d="M1735.74,-1769.89C1752.07,-1759.41 1774.01,-1746.63 1795,-1738.57 2498.47,-1468.37 3406.5,-1349.76 3719.33,-1315.04"/>
<polygon fill="black" stroke="black" points="3719.75,-1318.51 3729.31,-1313.94 3718.98,-1311.55 3719.75,-1318.51"/>
</g>
<!-- rescue_sigmas -->
<g id="node46" class="node">
<title>rescue_sigmas</title>
<polygon fill="#94ddf4" stroke="black" points="1495.5,-1770.07 1495.5,-1807.07 1616.5,-1807.07 1616.5,-1770.07 1495.5,-1770.07"/>
<text text-anchor="middle" x="1556" y="-1784.87" font-family="Times,serif" font-size="14.00">rescue_sigmas</text>
</g>
<!-- rescue_sigmas&#45;&gt;run_dragen_alignment_step -->
<g id="edge55" class="edge">
<title>rescue_sigmas&#45;&gt;run_dragen_alignment_step</title>
<path fill="none" stroke="black" d="M1576.38,-1769.86C1589.66,-1759.22 1607.85,-1746.3 1626,-1738.57 2382.32,-1416.34 3387.28,-1329.86 3719.32,-1309.34"/>
<polygon fill="black" stroke="black" points="3719.65,-1312.83 3729.42,-1308.73 3719.22,-1305.84 3719.65,-1312.83"/>
</g>
<!-- sec_aligns -->
<g id="node47" class="node">
<title>sec_aligns</title>
<polygon fill="#94ddf4" stroke="black" points="1388.5,-1770.07 1388.5,-1807.07 1477.5,-1807.07 1477.5,-1770.07 1388.5,-1770.07"/>
<text text-anchor="middle" x="1433" y="-1784.87" font-family="Times,serif" font-size="14.00">sec_aligns</text>
</g>
<!-- sec_aligns&#45;&gt;run_dragen_alignment_step -->
<g id="edge56" class="edge">
<title>sec_aligns&#45;&gt;run_dragen_alignment_step</title>
<path fill="none" stroke="black" d="M1447.75,-1769.92C1457.72,-1759.17 1471.8,-1746.1 1487,-1738.57 2275.13,-1347.9 3370.19,-1306.08 3719.36,-1303.14"/>
<polygon fill="black" stroke="black" points="3719.5,-1306.64 3729.48,-1303.07 3719.45,-1299.64 3719.5,-1306.64"/>
</g>
<!-- sec_aligns_hard -->
<g id="node48" class="node">
<title>sec_aligns_hard</title>
<polygon fill="#94ddf4" stroke="black" points="1241.5,-1770.07 1241.5,-1807.07 1370.5,-1807.07 1370.5,-1770.07 1241.5,-1770.07"/>
<text text-anchor="middle" x="1306" y="-1784.87" font-family="Times,serif" font-size="14.00">sec_aligns_hard</text>
</g>
<!-- sec_aligns_hard&#45;&gt;run_dragen_alignment_step -->
<g id="edge57" class="edge">
<title>sec_aligns_hard&#45;&gt;run_dragen_alignment_step</title>
<path fill="none" stroke="black" d="M1327.34,-1770.01C1341.45,-1759.3 1360.83,-1746.23 1380,-1738.57 2234.83,-1396.88 3364.07,-1322.64 3719.2,-1307.34"/>
<polygon fill="black" stroke="black" points="3719.38,-1310.84 3729.22,-1306.92 3719.09,-1303.84 3719.38,-1310.84"/>
</g>
<!-- sec_phred_delta -->
<g id="node49" class="node">
<title>sec_phred_delta</title>
<polygon fill="#94ddf4" stroke="black" points="1092.5,-1770.07 1092.5,-1807.07 1223.5,-1807.07 1223.5,-1770.07 1092.5,-1770.07"/>
<text text-anchor="middle" x="1158" y="-1784.87" font-family="Times,serif" font-size="14.00">sec_phred_delta</text>
</g>
<!-- sec_phred_delta&#45;&gt;run_dragen_alignment_step -->
<g id="edge58" class="edge">
<title>sec_phred_delta&#45;&gt;run_dragen_alignment_step</title>
<path fill="none" stroke="black" d="M1179.64,-1769.96C1193.95,-1759.22 1213.59,-1746.15 1233,-1738.57 2145.92,-1382.06 3351.02,-1317.6 3719.35,-1306.06"/>
<polygon fill="black" stroke="black" points="3719.59,-1309.55 3729.48,-1305.75 3719.38,-1302.55 3719.59,-1309.55"/>
</g>
<!-- sec_score_delta -->
<g id="node50" class="node">
<title>sec_score_delta</title>
<polygon fill="#94ddf4" stroke="black" points="946,-1770.07 946,-1807.07 1074,-1807.07 1074,-1770.07 946,-1770.07"/>
<text text-anchor="middle" x="1010" y="-1784.87" font-family="Times,serif" font-size="14.00">sec_score_delta</text>
</g>
<!-- sec_score_delta&#45;&gt;run_dragen_alignment_step -->
<g id="edge59" class="edge">
<title>sec_score_delta&#45;&gt;run_dragen_alignment_step</title>
<path fill="none" stroke="black" d="M1031.29,-1769.89C1045.38,-1759.13 1064.76,-1746.05 1084,-1738.57 2053.65,-1361.4 3337.11,-1310.98 3719.17,-1304.46"/>
<polygon fill="black" stroke="black" points="3719.45,-1307.96 3729.39,-1304.3 3719.34,-1300.96 3719.45,-1307.96"/>
</g>
<!-- seed_density -->
<g id="node51" class="node">
<title>seed_density</title>
<polygon fill="#94ddf4" stroke="black" points="818.5,-1770.07 818.5,-1807.07 927.5,-1807.07 927.5,-1770.07 818.5,-1770.07"/>
<text text-anchor="middle" x="873" y="-1784.87" font-family="Times,serif" font-size="14.00">seed_density</text>
</g>
<!-- seed_density&#45;&gt;run_dragen_alignment_step -->
<g id="edge60" class="edge">
<title>seed_density&#45;&gt;run_dragen_alignment_step</title>
<path fill="none" stroke="black" d="M890.72,-1770.02C902.76,-1759.17 919.61,-1745.95 937,-1738.57 1456.27,-1518.22 3252.02,-1352.85 3719.2,-1312.86"/>
<polygon fill="black" stroke="black" points="3719.66,-1316.34 3729.32,-1312 3719.06,-1309.36 3719.66,-1316.34"/>
</g>
<!-- supp_aligns -->
<g id="node52" class="node">
<title>supp_aligns</title>
<polygon fill="#94ddf4" stroke="black" points="699.5,-1770.07 699.5,-1807.07 800.5,-1807.07 800.5,-1770.07 699.5,-1770.07"/>
<text text-anchor="middle" x="750" y="-1784.87" font-family="Times,serif" font-size="14.00">supp_aligns</text>
</g>
<!-- supp_aligns&#45;&gt;run_dragen_alignment_step -->
<g id="edge61" class="edge">
<title>supp_aligns&#45;&gt;run_dragen_alignment_step</title>
<path fill="none" stroke="black" d="M766.4,-1769.97C777.6,-1759.1 793.38,-1745.87 810,-1738.57 1350.56,-1501.1 3239.24,-1347.43 3719.33,-1311.62"/>
<polygon fill="black" stroke="black" points="3719.67,-1315.1 3729.39,-1310.87 3719.15,-1308.12 3719.67,-1315.1"/>
</g>
<!-- supp_as_sec -->
<g id="node53" class="node">
<title>supp_as_sec</title>
<polygon fill="#94ddf4" stroke="black" points="577,-1770.07 577,-1807.07 681,-1807.07 681,-1770.07 577,-1770.07"/>
<text text-anchor="middle" x="629" y="-1784.87" font-family="Times,serif" font-size="14.00">supp_as_sec</text>
</g>
<!-- supp_as_sec&#45;&gt;run_dragen_alignment_step -->
<g id="edge62" class="edge">
<title>supp_as_sec&#45;&gt;run_dragen_alignment_step</title>
<path fill="none" stroke="black" d="M646.04,-1769.95C657.65,-1759.07 673.96,-1745.84 691,-1738.57 1256.61,-1497.27 3227.43,-1345.77 3719.17,-1311.17"/>
<polygon fill="black" stroke="black" points="3719.74,-1314.64 3729.47,-1310.44 3719.25,-1307.65 3719.74,-1314.64"/>
</g>
<!-- supp_min_score_adj -->
<g id="node54" class="node">
<title>supp_min_score_adj</title>
<polygon fill="#94ddf4" stroke="black" points="401,-1770.07 401,-1807.07 559,-1807.07 559,-1770.07 401,-1770.07"/>
<text text-anchor="middle" x="480" y="-1784.87" font-family="Times,serif" font-size="14.00">supp_min_score_adj</text>
</g>
<!-- supp_min_score_adj&#45;&gt;run_dragen_alignment_step -->
<g id="edge63" class="edge">
<title>supp_min_score_adj&#45;&gt;run_dragen_alignment_step</title>
<path fill="none" stroke="black" d="M505.38,-1770.06C522.35,-1759.22 545.59,-1746 568,-1738.57 1754.44,-1345 3295.44,-1306.41 3719.06,-1303.52"/>
<polygon fill="black" stroke="black" points="3719.18,-1307.02 3729.16,-1303.45 3719.14,-1300.02 3719.18,-1307.02"/>
</g>
<!-- unclip_score -->
<g id="node55" class="node">
<title>unclip_score</title>
<polygon fill="#94ddf4" stroke="black" points="277.5,-1770.07 277.5,-1807.07 382.5,-1807.07 382.5,-1770.07 277.5,-1770.07"/>
<text text-anchor="middle" x="330" y="-1784.87" font-family="Times,serif" font-size="14.00">unclip_score</text>
</g>
<!-- unclip_score&#45;&gt;run_dragen_alignment_step -->
<g id="edge64" class="edge">
<title>unclip_score&#45;&gt;run_dragen_alignment_step</title>
<path fill="none" stroke="black" d="M347.01,-1769.88C358.61,-1758.97 374.92,-1745.74 392,-1738.57 1016.14,-1476.66 3198.67,-1339.16 3719.01,-1309.66"/>
<polygon fill="black" stroke="black" points="3719.36,-1313.14 3729.15,-1309.08 3718.96,-1306.15 3719.36,-1313.14"/>
</g>
<!-- unpaired_pen -->
<g id="node56" class="node">
<title>unpaired_pen</title>
<polygon fill="#94ddf4" stroke="black" points="146.5,-1770.07 146.5,-1807.07 259.5,-1807.07 259.5,-1770.07 146.5,-1770.07"/>
<text text-anchor="middle" x="203" y="-1784.87" font-family="Times,serif" font-size="14.00">unpaired_pen</text>
</g>
<!-- unpaired_pen&#45;&gt;run_dragen_alignment_step -->
<g id="edge65" class="edge">
<title>unpaired_pen&#45;&gt;run_dragen_alignment_step</title>
<path fill="none" stroke="black" d="M221.3,-1769.87C233.73,-1758.95 251.11,-1745.72 269,-1738.57 921.13,-1478.04 3187.06,-1339.02 3718.73,-1309.55"/>
<polygon fill="black" stroke="black" points="3719.29,-1313.02 3729.08,-1308.97 3718.91,-1306.03 3719.29,-1313.02"/>
</g>
<!-- verbose -->
<g id="node57" class="node">
<title>verbose</title>
<polygon fill="#94ddf4" stroke="black" points="7992.5,-1770.07 7992.5,-1807.07 8065.5,-1807.07 8065.5,-1770.07 7992.5,-1770.07"/>
<text text-anchor="middle" x="8029" y="-1784.87" font-family="Times,serif" font-size="14.00">verbose</text>
</g>
<!-- verbose&#45;&gt;run_dragen_alignment_step -->
<g id="edge66" class="edge">
<title>verbose&#45;&gt;run_dragen_alignment_step</title>
<path fill="none" stroke="black" d="M8017.86,-1770.02C8009.86,-1759.02 7998.03,-1745.63 7984,-1738.57 7245.83,-1367.18 4529.03,-1312.28 3942.92,-1304.71"/>
<polygon fill="black" stroke="black" points="3942.83,-1301.21 3932.78,-1304.59 3942.74,-1308.21 3942.83,-1301.21"/>
</g>
<!-- dragen_alignment_output_directory -->
<g id="node58" class="node">
<title>dragen_alignment_output_directory</title>
<polygon fill="#94ddf4" stroke="black" points="3474,-348.07 3474,-385.07 3746,-385.07 3746,-348.07 3474,-348.07"/>
<text text-anchor="middle" x="3610" y="-362.87" font-family="Times,serif" font-size="14.00">dragen_alignment_output_directory</text>
</g>
<!-- dragen_bam_out -->
<g id="node59" class="node">
<title>dragen_bam_out</title>
<polygon fill="#94ddf4" stroke="black" points="3764,-348.07 3764,-385.07 3898,-385.07 3898,-348.07 3764,-348.07"/>
<text text-anchor="middle" x="3831" y="-362.87" font-family="Times,serif" font-size="14.00">dragen_bam_out</text>
</g>
<!-- multiqc_output_directory -->
<g id="node60" class="node">
<title>multiqc_output_directory</title>
<polygon fill="#94ddf4" stroke="black" points="3258.5,-348.07 3258.5,-385.07 3455.5,-385.07 3455.5,-348.07 3258.5,-348.07"/>
<text text-anchor="middle" x="3357" y="-362.87" font-family="Times,serif" font-size="14.00">multiqc_output_directory</text>
</g>
<!-- create_dummy_file_step -->
<g id="node61" class="node">
<title>create_dummy_file_step</title>
<polygon fill="lightgoldenrodyellow" stroke="black" points="118.5,-1284.07 118.5,-1321.07 379.5,-1321.07 379.5,-1284.07 118.5,-1284.07"/>
<text text-anchor="middle" x="249" y="-1298.87" font-family="Times,serif" font-size="14.00">custom&#45;create&#45;dummy&#45;file v(1.0.0)</text>
</g>
<!-- create_dummy_file_step&#45;&gt;dragen_qc_step -->
<g id="edge1" class="edge">
<title>create_dummy_file_step&#45;&gt;dragen_qc_step</title>
<path fill="none" stroke="black" d="M242.28,-1283.87C215.34,-1212.94 115.05,-948.92 82.37,-862.87"/>
<polygon fill="black" stroke="black" points="85.55,-861.39 78.73,-853.28 79.01,-863.88 85.55,-861.39"/>
</g>
<!-- dragen_qc_step&#45;&gt;multiqc_output_directory -->
<g id="edge2" class="edge">
<title>dragen_qc_step&#45;&gt;multiqc_output_directory</title>
<path fill="none" stroke="black" d="M141.75,-823.67C560.05,-764.34 2735.08,-455.79 3248.38,-382.98"/>
<polygon fill="black" stroke="black" points="3248.97,-386.43 3258.37,-381.56 3247.98,-379.5 3248.97,-386.43"/>
</g>
<!-- run_dragen_alignment_step&#45;&gt;dragen_alignment_output_directory -->
<g id="edge4" class="edge">
<title>run_dragen_alignment_step&#45;&gt;dragen_alignment_output_directory</title>
<path fill="none" stroke="black" d="M3826.78,-1283.74C3799.65,-1169.08 3649.76,-535.62 3616.53,-395.16"/>
<polygon fill="black" stroke="black" points="3619.88,-394.13 3614.17,-385.2 3613.07,-395.74 3619.88,-394.13"/>
</g>
<!-- run_dragen_alignment_step&#45;&gt;dragen_bam_out -->
<g id="edge5" class="edge">
<title>run_dragen_alignment_step&#45;&gt;dragen_bam_out</title>
<path fill="none" stroke="black" d="M3831,-1283.74C3831,-1169.2 3831,-536.89 3831,-395.58"/>
<polygon fill="black" stroke="black" points="3834.5,-395.2 3831,-385.2 3827.5,-395.2 3834.5,-395.2"/>
</g>
<!-- run_dragen_alignment_step&#45;&gt;dragen_qc_step -->
<g id="edge3" class="edge">
<title>run_dragen_alignment_step&#45;&gt;dragen_qc_step</title>
<path fill="none" stroke="black" d="M3729.48,-1288.98C3187,-1221.73 636.62,-905.56 151.72,-845.45"/>
<polygon fill="black" stroke="black" points="152.02,-841.96 141.67,-844.2 151.16,-848.91 152.02,-841.96"/>
</g>
<!-- \n -->
<g id="node64" class="node">
<title>\n</title>
<ellipse fill="none" stroke="black" cx="8111" cy="-1788.57" rx="27" ry="18"/>
</g>
</g>
</svg>
