<?xml version="1.0" encoding="UTF-8" standalone="no"?>
<!DOCTYPE svg PUBLIC "-//W3C//DTD SVG 1.1//EN"
 "http://www.w3.org/Graphics/SVG/1.1/DTD/svg11.dtd">
<!-- Generated by graphviz version 2.43.0 (0)
 -->
<!-- Title: G Pages: 1 -->
<svg width="8326pt" height="2062pt"
 viewBox="0.00 0.00 8325.50 2062.30" xmlns="http://www.w3.org/2000/svg" xmlns:xlink="http://www.w3.org/1999/xlink">
<g id="graph0" class="graph" transform="scale(1 1) rotate(0) translate(4 2058.3)">
<title>G</title>
<polygon fill="#eeeeee" stroke="transparent" points="-4,4 -4,-2058.3 8321.5,-2058.3 8321.5,4 -4,4"/>
<g id="clust1" class="cluster">
<title>cluster_inputs</title>
<polygon fill="#eeeeee" stroke="black" stroke-dasharray="5,2" points="8,-1505.19 8,-2002.62 8074,-2002.62 8074,-1505.19 8,-1505.19"/>
<text text-anchor="middle" x="8007.5" y="-1512.99" font-family="Times,serif" font-size="14.00">Workflow Inputs</text>
</g>
<g id="clust2" class="cluster">
<title>cluster_outputs</title>
<polygon fill="#eeeeee" stroke="black" stroke-dasharray="5,2" points="4025,-51.68 4025,-549.11 4681,-549.11 4681,-51.68 4025,-51.68"/>
<text text-anchor="middle" x="4608.5" y="-59.48" font-family="Times,serif" font-size="14.00">Workflow Outputs</text>
</g>
<!-- output_prefix -->
<g id="node1" class="node">
<title>output_prefix</title>
<polygon fill="#94ddf4" stroke="black" points="7954,-1810.18 7954,-1847.18 8066,-1847.18 8066,-1810.18 7954,-1810.18"/>
<text text-anchor="middle" x="8010" y="-1824.98" font-family="Times,serif" font-size="14.00">output_prefix</text>
</g>
<!-- run_dragen_alignment_step -->
<g id="node61" class="node">
<title>run_dragen_alignment_step</title>
<polygon fill="lightgoldenrodyellow" stroke="black" points="4067.5,-1312.18 4067.5,-1349.18 4270.5,-1349.18 4270.5,-1312.18 4067.5,-1312.18"/>
<text text-anchor="middle" x="4169" y="-1326.98" font-family="Times,serif" font-size="14.00">dragen&#45;alignment v(4.2.4)</text>
</g>
<!-- output_prefix&#45;&gt;run_dragen_alignment_step -->
<g id="edge6" class="edge">
<title>output_prefix&#45;&gt;run_dragen_alignment_step</title>
<path fill="none" stroke="black" d="M7984.35,-1809.95C7970.81,-1799.03 7953.7,-1785.79 7936,-1778.68 7243.81,-1500.69 4831.04,-1365.16 4281.13,-1337.21"/>
<polygon fill="black" stroke="black" points="4280.99,-1333.69 4270.82,-1336.68 4280.63,-1340.69 4280.99,-1333.69"/>
</g>
<!-- output_prefix&#45;&gt;run_dragen_alignment_step -->
<g id="edge7" class="edge">
<title>output_prefix&#45;&gt;run_dragen_alignment_step</title>
<path fill="none" stroke="black" d="M7999.47,-1809.71C7988.56,-1798.83 7971.57,-1785.74 7954,-1778.68 7259.52,-1499.77 4833.11,-1364.27 4281.25,-1336.93"/>
<polygon fill="black" stroke="black" points="4281.06,-1333.42 4270.9,-1336.42 4280.72,-1340.41 4281.06,-1333.42"/>
</g>
<!-- dragen_qc_step -->
<g id="node62" class="node">
<title>dragen_qc_step</title>
<polygon fill="lightgoldenrodyellow" stroke="black" points="7940.5,-834.18 7940.5,-871.18 8079.5,-871.18 8079.5,-834.18 7940.5,-834.18"/>
<text text-anchor="middle" x="8010" y="-848.98" font-family="Times,serif" font-size="14.00">multiqc v(1.15.0)</text>
</g>
<!-- output_prefix&#45;&gt;dragen_qc_step -->
<g id="edge8" class="edge">
<title>output_prefix&#45;&gt;dragen_qc_step</title>
<path fill="none" stroke="black" d="M8006.02,-1809.94C7993.65,-1692.47 7993.33,-1026.79 8005.08,-881.63"/>
<polygon fill="black" stroke="black" points="8008.6,-881.64 8006.03,-871.36 8001.63,-881 8008.6,-881.64"/>
</g>
<!-- output_prefix&#45;&gt;dragen_qc_step -->
<g id="edge9" class="edge">
<title>output_prefix&#45;&gt;dragen_qc_step</title>
<path fill="none" stroke="black" d="M8010,-1809.94C8010,-1692.47 8010,-1026.79 8010,-881.63"/>
<polygon fill="black" stroke="black" points="8013.5,-881.36 8010,-871.36 8006.5,-881.36 8013.5,-881.36"/>
</g>
<!-- output_prefix&#45;&gt;dragen_qc_step -->
<g id="edge10" class="edge">
<title>output_prefix&#45;&gt;dragen_qc_step</title>
<path fill="none" stroke="black" d="M8013.98,-1809.94C8026.35,-1692.47 8026.67,-1026.79 8014.92,-881.63"/>
<polygon fill="black" stroke="black" points="8018.37,-881 8013.97,-871.36 8011.4,-881.64 8018.37,-881"/>
</g>
<!-- aln_min_score -->
<g id="node2" class="node">
<title>aln_min_score</title>
<polygon fill="#94ddf4" stroke="black" points="7818.5,-1810.18 7818.5,-1847.18 7935.5,-1847.18 7935.5,-1810.18 7818.5,-1810.18"/>
<text text-anchor="middle" x="7877" y="-1824.98" font-family="Times,serif" font-size="14.00">aln_min_score</text>
</g>
<!-- aln_min_score&#45;&gt;run_dragen_alignment_step -->
<g id="edge11" class="edge">
<title>aln_min_score&#45;&gt;run_dragen_alignment_step</title>
<path fill="none" stroke="black" d="M7858.05,-1809.99C7845.2,-1799.08 7827.29,-1785.84 7809,-1778.68 7139.48,-1516.45 4817.81,-1368.98 4280.58,-1337.9"/>
<polygon fill="black" stroke="black" points="4280.69,-1334.4 4270.5,-1337.32 4280.28,-1341.39 4280.69,-1334.4"/>
</g>
<!-- alt_aware -->
<g id="node3" class="node">
<title>alt_aware</title>
<polygon fill="#94ddf4" stroke="black" points="7714,-1810.18 7714,-1847.18 7800,-1847.18 7800,-1810.18 7714,-1810.18"/>
<text text-anchor="middle" x="7757" y="-1824.98" font-family="Times,serif" font-size="14.00">alt_aware</text>
</g>
<!-- alt_aware&#45;&gt;run_dragen_alignment_step -->
<g id="edge12" class="edge">
<title>alt_aware&#45;&gt;run_dragen_alignment_step</title>
<path fill="none" stroke="black" d="M7743.07,-1809.73C7733.58,-1798.86 7720.03,-1785.77 7705,-1778.68 7074.16,-1481.14 4812.19,-1360.99 4281.16,-1336.55"/>
<polygon fill="black" stroke="black" points="4280.97,-1333.04 4270.82,-1336.07 4280.65,-1340.03 4280.97,-1333.04"/>
</g>
<!-- ann_sj_max_indel -->
<g id="node4" class="node">
<title>ann_sj_max_indel</title>
<polygon fill="#94ddf4" stroke="black" points="7556,-1810.18 7556,-1847.18 7696,-1847.18 7696,-1810.18 7556,-1810.18"/>
<text text-anchor="middle" x="7626" y="-1824.98" font-family="Times,serif" font-size="14.00">ann_sj_max_indel</text>
</g>
<!-- ann_sj_max_indel&#45;&gt;run_dragen_alignment_step -->
<g id="edge13" class="edge">
<title>ann_sj_max_indel&#45;&gt;run_dragen_alignment_step</title>
<path fill="none" stroke="black" d="M7603.49,-1810.1C7588.36,-1799.24 7567.52,-1786.02 7547,-1778.68 6921.35,-1554.99 4792.74,-1379.69 4280.53,-1340.09"/>
<polygon fill="black" stroke="black" points="4280.78,-1336.6 4270.54,-1339.32 4280.24,-1343.58 4280.78,-1336.6"/>
</g>
<!-- annotation_file -->
<g id="node5" class="node">
<title>annotation_file</title>
<polygon fill="#94ddf4" stroke="black" points="7416,-1810.18 7416,-1847.18 7538,-1847.18 7538,-1810.18 7416,-1810.18"/>
<text text-anchor="middle" x="7477" y="-1824.98" font-family="Times,serif" font-size="14.00">annotation_file</text>
</g>
<!-- annotation_file&#45;&gt;run_dragen_alignment_step -->
<g id="edge14" class="edge">
<title>annotation_file&#45;&gt;run_dragen_alignment_step</title>
<path fill="none" stroke="black" d="M7457.36,-1810.09C7444.09,-1799.22 7425.64,-1786 7407,-1778.68 6815.45,-1546.55 4780.75,-1378.46 4280.68,-1340.03"/>
<polygon fill="black" stroke="black" points="4280.81,-1336.53 4270.57,-1339.25 4280.27,-1343.5 4280.81,-1336.53"/>
</g>
<!-- dedup_min_qual -->
<g id="node6" class="node">
<title>dedup_min_qual</title>
<polygon fill="#94ddf4" stroke="black" points="7266,-1810.18 7266,-1847.18 7398,-1847.18 7398,-1810.18 7266,-1810.18"/>
<text text-anchor="middle" x="7332" y="-1824.98" font-family="Times,serif" font-size="14.00">dedup_min_qual</text>
</g>
<!-- dedup_min_qual&#45;&gt;run_dragen_alignment_step -->
<g id="edge15" class="edge">
<title>dedup_min_qual&#45;&gt;run_dragen_alignment_step</title>
<path fill="none" stroke="black" d="M7310.74,-1810.16C7296.42,-1799.32 7276.64,-1786.1 7257,-1778.68 6153,-1361.57 4691.58,-1330.67 4280.67,-1330.72"/>
<polygon fill="black" stroke="black" points="4280.57,-1327.22 4270.57,-1330.72 4280.57,-1334.22 4280.57,-1327.22"/>
</g>
<!-- edit_chain_limit -->
<g id="node7" class="node">
<title>edit_chain_limit</title>
<polygon fill="#94ddf4" stroke="black" points="7118.5,-1810.18 7118.5,-1847.18 7247.5,-1847.18 7247.5,-1810.18 7118.5,-1810.18"/>
<text text-anchor="middle" x="7183" y="-1824.98" font-family="Times,serif" font-size="14.00">edit_chain_limit</text>
</g>
<!-- edit_chain_limit&#45;&gt;run_dragen_alignment_step -->
<g id="edge16" class="edge">
<title>edit_chain_limit&#45;&gt;run_dragen_alignment_step</title>
<path fill="none" stroke="black" d="M7161.73,-1809.96C7147.64,-1799.18 7128.27,-1786.11 7109,-1778.68 6064.2,-1375.99 4679.56,-1334.78 4280.78,-1331.59"/>
<polygon fill="black" stroke="black" points="4280.72,-1328.09 4270.69,-1331.52 4280.67,-1335.09 4280.72,-1328.09"/>
</g>
<!-- edit_mode -->
<g id="node8" class="node">
<title>edit_mode</title>
<polygon fill="#94ddf4" stroke="black" points="7010,-1810.18 7010,-1847.18 7100,-1847.18 7100,-1810.18 7010,-1810.18"/>
<text text-anchor="middle" x="7055" y="-1824.98" font-family="Times,serif" font-size="14.00">edit_mode</text>
</g>
<!-- edit_mode&#45;&gt;run_dragen_alignment_step -->
<g id="edge17" class="edge">
<title>edit_mode&#45;&gt;run_dragen_alignment_step</title>
<path fill="none" stroke="black" d="M7040.32,-1809.89C7030.38,-1799.09 7016.3,-1786.01 7001,-1778.68 6503.3,-1540.27 4743.08,-1379.51 4280.85,-1340.75"/>
<polygon fill="black" stroke="black" points="4281.09,-1337.25 4270.83,-1339.91 4280.51,-1344.23 4281.09,-1337.25"/>
</g>
<!-- edit_read_len -->
<g id="node9" class="node">
<title>edit_read_len</title>
<polygon fill="#94ddf4" stroke="black" points="6880,-1810.18 6880,-1847.18 6992,-1847.18 6992,-1810.18 6880,-1810.18"/>
<text text-anchor="middle" x="6936" y="-1824.98" font-family="Times,serif" font-size="14.00">edit_read_len</text>
</g>
<!-- edit_read_len&#45;&gt;run_dragen_alignment_step -->
<g id="edge18" class="edge">
<title>edit_read_len&#45;&gt;run_dragen_alignment_step</title>
<path fill="none" stroke="black" d="M6917.64,-1809.99C6905.4,-1799.22 6888.41,-1786.14 6871,-1778.68 5930.16,-1375.39 4660.83,-1334.28 4280.89,-1331.4"/>
<polygon fill="black" stroke="black" points="4280.75,-1327.9 4270.72,-1331.33 4280.7,-1334.9 4280.75,-1327.9"/>
</g>
<!-- edit_seed_num -->
<g id="node10" class="node">
<title>edit_seed_num</title>
<polygon fill="#94ddf4" stroke="black" points="6740,-1810.18 6740,-1847.18 6862,-1847.18 6862,-1810.18 6740,-1810.18"/>
<text text-anchor="middle" x="6801" y="-1824.98" font-family="Times,serif" font-size="14.00">edit_seed_num</text>
</g>
<!-- edit_seed_num&#45;&gt;run_dragen_alignment_step -->
<g id="edge19" class="edge">
<title>edit_seed_num&#45;&gt;run_dragen_alignment_step</title>
<path fill="none" stroke="black" d="M6780.98,-1810.07C6767.69,-1799.34 6749.37,-1786.27 6731,-1778.68 5837.72,-1409.68 4647.02,-1345.24 4280.84,-1334.03"/>
<polygon fill="black" stroke="black" points="4280.87,-1330.53 4270.77,-1333.73 4280.66,-1337.53 4280.87,-1330.53"/>
</g>
<!-- en_alt_hap_aln -->
<g id="node11" class="node">
<title>en_alt_hap_aln</title>
<polygon fill="#94ddf4" stroke="black" points="6600.5,-1810.18 6600.5,-1847.18 6721.5,-1847.18 6721.5,-1810.18 6600.5,-1810.18"/>
<text text-anchor="middle" x="6661" y="-1824.98" font-family="Times,serif" font-size="14.00">en_alt_hap_aln</text>
</g>
<!-- en_alt_hap_aln&#45;&gt;run_dragen_alignment_step -->
<g id="edge20" class="edge">
<title>en_alt_hap_aln&#45;&gt;run_dragen_alignment_step</title>
<path fill="none" stroke="black" d="M6641.28,-1810.13C6628.19,-1799.41 6610.13,-1786.35 6592,-1778.68 5753.42,-1424.17 4634.39,-1350.16 4280.89,-1335.28"/>
<polygon fill="black" stroke="black" points="4280.79,-1331.78 4270.66,-1334.86 4280.5,-1338.77 4280.79,-1331.78"/>
</g>
<!-- en_chimeric_aln -->
<g id="node12" class="node">
<title>en_chimeric_aln</title>
<polygon fill="#94ddf4" stroke="black" points="6451.5,-1810.18 6451.5,-1847.18 6582.5,-1847.18 6582.5,-1810.18 6451.5,-1810.18"/>
<text text-anchor="middle" x="6517" y="-1824.98" font-family="Times,serif" font-size="14.00">en_chimeric_aln</text>
</g>
<!-- en_chimeric_aln&#45;&gt;run_dragen_alignment_step -->
<g id="edge21" class="edge">
<title>en_chimeric_aln&#45;&gt;run_dragen_alignment_step</title>
<path fill="none" stroke="black" d="M6495.3,-1810C6481.19,-1799.38 6461.96,-1786.46 6443,-1778.68 5656.28,-1455.77 4618.52,-1361.36 4280.54,-1338.26"/>
<polygon fill="black" stroke="black" points="4280.72,-1334.76 4270.51,-1337.58 4280.25,-1341.75 4280.72,-1334.76"/>
</g>
<!-- enable_duplicate_marking -->
<g id="node13" class="node">
<title>enable_duplicate_marking</title>
<polygon fill="#94ddf4" stroke="black" points="6230.5,-1810.18 6230.5,-1847.18 6433.5,-1847.18 6433.5,-1810.18 6230.5,-1810.18"/>
<text text-anchor="middle" x="6332" y="-1824.98" font-family="Times,serif" font-size="14.00">enable_duplicate_marking</text>
</g>
<!-- enable_duplicate_marking&#45;&gt;run_dragen_alignment_step -->
<g id="edge22" class="edge">
<title>enable_duplicate_marking&#45;&gt;run_dragen_alignment_step</title>
<path fill="none" stroke="black" d="M6297.55,-1810.14C6276.22,-1799.84 6248.02,-1787.21 6222,-1778.68 5499.54,-1541.89 4592.64,-1394.37 4280.51,-1347.72"/>
<polygon fill="black" stroke="black" points="4280.96,-1344.25 4270.55,-1346.24 4279.92,-1351.17 4280.96,-1344.25"/>
</g>
<!-- enable_map_align -->
<g id="node14" class="node">
<title>enable_map_align</title>
<polygon fill="#94ddf4" stroke="black" points="6069.5,-1810.18 6069.5,-1847.18 6212.5,-1847.18 6212.5,-1810.18 6069.5,-1810.18"/>
<text text-anchor="middle" x="6141" y="-1824.98" font-family="Times,serif" font-size="14.00">enable_map_align</text>
</g>
<!-- enable_map_align&#45;&gt;run_dragen_alignment_step -->
<g id="edge23" class="edge">
<title>enable_map_align&#45;&gt;run_dragen_alignment_step</title>
<path fill="none" stroke="black" d="M6116.87,-1810.09C6101.53,-1799.64 6080.88,-1786.87 6061,-1778.68 5415.91,-1512.92 4578.99,-1384.9 4280.65,-1345.45"/>
<polygon fill="black" stroke="black" points="4281.06,-1341.98 4270.69,-1344.14 4280.15,-1348.92 4281.06,-1341.98"/>
</g>
<!-- enable_map_align_output -->
<g id="node15" class="node">
<title>enable_map_align_output</title>
<polygon fill="#94ddf4" stroke="black" points="5854.5,-1810.18 5854.5,-1847.18 6051.5,-1847.18 6051.5,-1810.18 5854.5,-1810.18"/>
<text text-anchor="middle" x="5953" y="-1824.98" font-family="Times,serif" font-size="14.00">enable_map_align_output</text>
</g>
<!-- enable_map_align_output&#45;&gt;run_dragen_alignment_step -->
<g id="edge24" class="edge">
<title>enable_map_align_output&#45;&gt;run_dragen_alignment_step</title>
<path fill="none" stroke="black" d="M5918.44,-1810.05C5897.78,-1799.97 5870.8,-1787.59 5846,-1778.68 5259.07,-1567.78 4524.95,-1405.7 4265.34,-1351.37"/>
<polygon fill="black" stroke="black" points="4265.7,-1347.87 4255.19,-1349.25 4264.27,-1354.72 4265.7,-1347.87"/>
</g>
<!-- enable_rna -->
<g id="node16" class="node">
<title>enable_rna</title>
<polygon fill="#94ddf4" stroke="black" points="5741.5,-1810.18 5741.5,-1847.18 5836.5,-1847.18 5836.5,-1810.18 5741.5,-1810.18"/>
<text text-anchor="middle" x="5789" y="-1824.98" font-family="Times,serif" font-size="14.00">enable_rna</text>
</g>
<!-- enable_rna&#45;&gt;run_dragen_alignment_step -->
<g id="edge25" class="edge">
<title>enable_rna&#45;&gt;run_dragen_alignment_step</title>
<path fill="none" stroke="black" d="M5772.51,-1810.08C5761.84,-1799.62 5747.16,-1786.85 5732,-1778.68 5229.76,-1508 4546.1,-1386.08 4280.71,-1346.76"/>
<polygon fill="black" stroke="black" points="4281.09,-1343.28 4270.68,-1345.29 4280.07,-1350.21 4281.09,-1343.28"/>
</g>
<!-- enable_rna_quantification -->
<g id="node17" class="node">
<title>enable_rna_quantification</title>
<polygon fill="#94ddf4" stroke="black" points="5523,-1810.18 5523,-1847.18 5723,-1847.18 5723,-1810.18 5523,-1810.18"/>
<text text-anchor="middle" x="5623" y="-1824.98" font-family="Times,serif" font-size="14.00">enable_rna_quantification</text>
</g>
<!-- enable_rna_quantification&#45;&gt;run_dragen_alignment_step -->
<g id="edge26" class="edge">
<title>enable_rna_quantification&#45;&gt;run_dragen_alignment_step</title>
<path fill="none" stroke="black" d="M5586.07,-1809.95C5565.14,-1800.19 5538.36,-1788.17 5514,-1778.68 5034.06,-1591.61 4439.65,-1411.58 4238.92,-1352.17"/>
<polygon fill="black" stroke="black" points="4239.68,-1348.75 4229.1,-1349.27 4237.69,-1355.46 4239.68,-1348.75"/>
</g>
<!-- enable_rrna_filter -->
<g id="node18" class="node">
<title>enable_rrna_filter</title>
<polygon fill="#94ddf4" stroke="black" points="5361.5,-1810.18 5361.5,-1847.18 5504.5,-1847.18 5504.5,-1810.18 5361.5,-1810.18"/>
<text text-anchor="middle" x="5433" y="-1824.98" font-family="Times,serif" font-size="14.00">enable_rrna_filter</text>
</g>
<!-- enable_rrna_filter&#45;&gt;run_dragen_alignment_step -->
<g id="edge27" class="edge">
<title>enable_rrna_filter&#45;&gt;run_dragen_alignment_step</title>
<path fill="none" stroke="black" d="M5407.04,-1810.06C5391.72,-1800.1 5371.72,-1787.85 5353,-1778.68 4943.9,-1578.39 4420.93,-1409.36 4236.8,-1352.3"/>
<polygon fill="black" stroke="black" points="4237.57,-1348.88 4226.98,-1349.27 4235.5,-1355.57 4237.57,-1348.88"/>
</g>
<!-- enable_sort -->
<g id="node19" class="node">
<title>enable_sort</title>
<polygon fill="#94ddf4" stroke="black" points="5244.5,-1810.18 5244.5,-1847.18 5343.5,-1847.18 5343.5,-1810.18 5244.5,-1810.18"/>
<text text-anchor="middle" x="5294" y="-1824.98" font-family="Times,serif" font-size="14.00">enable_sort</text>
</g>
<!-- enable_sort&#45;&gt;run_dragen_alignment_step -->
<g id="edge28" class="edge">
<title>enable_sort&#45;&gt;run_dragen_alignment_step</title>
<path fill="none" stroke="black" d="M5275.69,-1810.04C5264.55,-1799.96 5249.69,-1787.59 5235,-1778.68 4882.97,-1565.23 4410.61,-1406.84 4236.82,-1352.32"/>
<polygon fill="black" stroke="black" points="4237.63,-1348.91 4227.04,-1349.27 4235.54,-1355.59 4237.63,-1348.91"/>
</g>
<!-- fastq_list -->
<g id="node20" class="node">
<title>fastq_list</title>
<polygon fill="#94ddf4" stroke="black" points="5144,-1810.18 5144,-1847.18 5226,-1847.18 5226,-1810.18 5144,-1810.18"/>
<text text-anchor="middle" x="5185" y="-1824.98" font-family="Times,serif" font-size="14.00">fastq_list</text>
</g>
<!-- fastq_list&#45;&gt;run_dragen_alignment_step -->
<g id="edge29" class="edge">
<title>fastq_list&#45;&gt;run_dragen_alignment_step</title>
<path fill="none" stroke="black" d="M5169.6,-1809.81C5160.3,-1799.77 5147.8,-1787.52 5135,-1778.68 4823.9,-1563.85 4393.07,-1406.9 4232.58,-1352.53"/>
<polygon fill="black" stroke="black" points="4233.46,-1349.13 4222.86,-1349.25 4231.22,-1355.76 4233.46,-1349.13"/>
</g>
<!-- fastq_list_rows -->
<g id="node21" class="node">
<title>fastq_list_rows</title>
<polygon fill="#94ddf4" stroke="black" points="5002.5,-1810.18 5002.5,-1847.18 5125.5,-1847.18 5125.5,-1810.18 5002.5,-1810.18"/>
<text text-anchor="middle" x="5064" y="-1824.98" font-family="Times,serif" font-size="14.00">fastq_list_rows</text>
</g>
<!-- fastq_list_rows&#45;&gt;run_dragen_alignment_step -->
<g id="edge30" class="edge">
<title>fastq_list_rows&#45;&gt;run_dragen_alignment_step</title>
<path fill="none" stroke="black" d="M5040.16,-1809.98C5026.83,-1800.34 5009.77,-1788.43 4994,-1778.68 4705.04,-1600.07 4339.43,-1415.84 4213.77,-1353.66"/>
<polygon fill="black" stroke="black" points="4215.31,-1350.52 4204.79,-1349.23 4212.21,-1356.8 4215.31,-1350.52"/>
</g>
<!-- gap_ext_pen -->
<g id="node22" class="node">
<title>gap_ext_pen</title>
<polygon fill="#94ddf4" stroke="black" points="4879.5,-1810.18 4879.5,-1847.18 4984.5,-1847.18 4984.5,-1810.18 4879.5,-1810.18"/>
<text text-anchor="middle" x="4932" y="-1824.98" font-family="Times,serif" font-size="14.00">gap_ext_pen</text>
</g>
<!-- gap_ext_pen&#45;&gt;run_dragen_alignment_step -->
<g id="edge31" class="edge">
<title>gap_ext_pen&#45;&gt;run_dragen_alignment_step</title>
<path fill="none" stroke="black" d="M4911.27,-1810.09C4899.67,-1800.49 4884.8,-1788.57 4871,-1778.68 4626.8,-1603.66 4316.15,-1418.05 4208.12,-1354.52"/>
<polygon fill="black" stroke="black" points="4209.59,-1351.33 4199.19,-1349.28 4206.04,-1357.36 4209.59,-1351.33"/>
</g>
<!-- gap_open_pen -->
<g id="node23" class="node">
<title>gap_open_pen</title>
<polygon fill="#94ddf4" stroke="black" points="4744.5,-1810.18 4744.5,-1847.18 4861.5,-1847.18 4861.5,-1810.18 4744.5,-1810.18"/>
<text text-anchor="middle" x="4803" y="-1824.98" font-family="Times,serif" font-size="14.00">gap_open_pen</text>
</g>
<!-- gap_open_pen&#45;&gt;run_dragen_alignment_step -->
<g id="edge32" class="edge">
<title>gap_open_pen&#45;&gt;run_dragen_alignment_step</title>
<path fill="none" stroke="black" d="M4780.44,-1810.03C4684.44,-1734.93 4309.94,-1441.94 4199.69,-1355.69"/>
<polygon fill="black" stroke="black" points="4201.66,-1352.79 4191.62,-1349.38 4197.34,-1358.3 4201.66,-1352.79"/>
</g>
<!-- generate_md_tags -->
<g id="node24" class="node">
<title>generate_md_tags</title>
<polygon fill="#94ddf4" stroke="black" points="4579.5,-1810.18 4579.5,-1847.18 4726.5,-1847.18 4726.5,-1810.18 4579.5,-1810.18"/>
<text text-anchor="middle" x="4653" y="-1824.98" font-family="Times,serif" font-size="14.00">generate_md_tags</text>
</g>
<!-- generate_md_tags&#45;&gt;run_dragen_alignment_step -->
<g id="edge33" class="edge">
<title>generate_md_tags&#45;&gt;run_dragen_alignment_step</title>
<path fill="none" stroke="black" d="M4635.77,-1810.03C4562.79,-1735.23 4278.88,-1444.29 4193.45,-1356.74"/>
<polygon fill="black" stroke="black" points="4195.76,-1354.09 4186.27,-1349.38 4190.75,-1358.98 4195.76,-1354.09"/>
</g>
<!-- generate_sa_tags -->
<g id="node25" class="node">
<title>generate_sa_tags</title>
<polygon fill="#94ddf4" stroke="black" points="4421,-1810.18 4421,-1847.18 4561,-1847.18 4561,-1810.18 4421,-1810.18"/>
<text text-anchor="middle" x="4491" y="-1824.98" font-family="Times,serif" font-size="14.00">generate_sa_tags</text>
</g>
<!-- generate_sa_tags&#45;&gt;run_dragen_alignment_step -->
<g id="edge34" class="edge">
<title>generate_sa_tags&#45;&gt;run_dragen_alignment_step</title>
<path fill="none" stroke="black" d="M4479.54,-1810.03C4431.18,-1735.53 4243.62,-1446.62 4185.96,-1357.81"/>
<polygon fill="black" stroke="black" points="4188.87,-1355.86 4180.49,-1349.38 4183,-1359.67 4188.87,-1355.86"/>
</g>
<!-- generate_zs_tags -->
<g id="node26" class="node">
<title>generate_zs_tags</title>
<polygon fill="#94ddf4" stroke="black" points="4263,-1810.18 4263,-1847.18 4403,-1847.18 4403,-1810.18 4263,-1810.18"/>
<text text-anchor="middle" x="4333" y="-1824.98" font-family="Times,serif" font-size="14.00">generate_zs_tags</text>
</g>
<!-- generate_zs_tags&#45;&gt;run_dragen_alignment_step -->
<g id="edge35" class="edge">
<title>generate_zs_tags&#45;&gt;run_dragen_alignment_step</title>
<path fill="none" stroke="black" d="M4327.16,-1810.03C4302.63,-1735.83 4207.78,-1448.95 4178,-1358.89"/>
<polygon fill="black" stroke="black" points="4181.31,-1357.78 4174.85,-1349.38 4174.67,-1359.97 4181.31,-1357.78"/>
</g>
<!-- global -->
<g id="node27" class="node">
<title>global</title>
<polygon fill="#94ddf4" stroke="black" points="4185,-1810.18 4185,-1847.18 4245,-1847.18 4245,-1810.18 4185,-1810.18"/>
<text text-anchor="middle" x="4215" y="-1824.98" font-family="Times,serif" font-size="14.00">global</text>
</g>
<!-- global&#45;&gt;run_dragen_alignment_step -->
<g id="edge36" class="edge">
<title>global&#45;&gt;run_dragen_alignment_step</title>
<path fill="none" stroke="black" d="M4213.36,-1810.03C4206.5,-1735.98 4179.98,-1450.12 4171.57,-1359.44"/>
<polygon fill="black" stroke="black" points="4175.05,-1359.01 4170.64,-1349.38 4168.08,-1359.66 4175.05,-1359.01"/>
</g>
<!-- hard_clips -->
<g id="node28" class="node">
<title>hard_clips</title>
<polygon fill="#94ddf4" stroke="black" points="4078.5,-1810.18 4078.5,-1847.18 4167.5,-1847.18 4167.5,-1810.18 4078.5,-1810.18"/>
<text text-anchor="middle" x="4123" y="-1824.98" font-family="Times,serif" font-size="14.00">hard_clips</text>
</g>
<!-- hard_clips&#45;&gt;run_dragen_alignment_step -->
<g id="edge37" class="edge">
<title>hard_clips&#45;&gt;run_dragen_alignment_step</title>
<path fill="none" stroke="black" d="M4124.64,-1810.03C4131.5,-1735.98 4158.02,-1450.12 4166.43,-1359.44"/>
<polygon fill="black" stroke="black" points="4169.92,-1359.66 4167.36,-1349.38 4162.95,-1359.01 4169.92,-1359.66"/>
</g>
<!-- map_orientations -->
<g id="node29" class="node">
<title>map_orientations</title>
<polygon fill="#94ddf4" stroke="black" points="3920,-1810.18 3920,-1847.18 4060,-1847.18 4060,-1810.18 3920,-1810.18"/>
<text text-anchor="middle" x="3990" y="-1824.98" font-family="Times,serif" font-size="14.00">map_orientations</text>
</g>
<!-- map_orientations&#45;&gt;run_dragen_alignment_step -->
<g id="edge38" class="edge">
<title>map_orientations&#45;&gt;run_dragen_alignment_step</title>
<path fill="none" stroke="black" d="M3996.37,-1810.03C4023.15,-1735.83 4126.68,-1448.95 4159.18,-1358.89"/>
<polygon fill="black" stroke="black" points="4162.51,-1359.97 4162.61,-1349.38 4155.93,-1357.6 4162.51,-1359.97"/>
</g>
<!-- mapq_max -->
<g id="node30" class="node">
<title>mapq_max</title>
<polygon fill="#94ddf4" stroke="black" points="3808.5,-1810.18 3808.5,-1847.18 3901.5,-1847.18 3901.5,-1810.18 3808.5,-1810.18"/>
<text text-anchor="middle" x="3855" y="-1824.98" font-family="Times,serif" font-size="14.00">mapq_max</text>
</g>
<!-- mapq_max&#45;&gt;run_dragen_alignment_step -->
<g id="edge39" class="edge">
<title>mapq_max&#45;&gt;run_dragen_alignment_step</title>
<path fill="none" stroke="black" d="M3866.18,-1810.03C3913.29,-1735.61 4095.86,-1447.21 4152.29,-1358.08"/>
<polygon fill="black" stroke="black" points="4155.4,-1359.7 4157.79,-1349.38 4149.49,-1355.96 4155.4,-1359.7"/>
</g>
<!-- mapq_strict_js -->
<g id="node31" class="node">
<title>mapq_strict_js</title>
<polygon fill="#94ddf4" stroke="black" points="3670,-1810.18 3670,-1847.18 3790,-1847.18 3790,-1810.18 3670,-1810.18"/>
<text text-anchor="middle" x="3730" y="-1824.98" font-family="Times,serif" font-size="14.00">mapq_strict_js</text>
</g>
<!-- mapq_strict_js&#45;&gt;run_dragen_alignment_step -->
<g id="edge40" class="edge">
<title>mapq_strict_js&#45;&gt;run_dragen_alignment_step</title>
<path fill="none" stroke="black" d="M3745.62,-1810.03C3811.76,-1735.31 4068.82,-1444.87 4146.59,-1357"/>
<polygon fill="black" stroke="black" points="4149.33,-1359.19 4153.33,-1349.38 4144.09,-1354.55 4149.33,-1359.19"/>
</g>
<!-- match_n_score -->
<g id="node32" class="node">
<title>match_n_score</title>
<polygon fill="#94ddf4" stroke="black" points="3530,-1810.18 3530,-1847.18 3652,-1847.18 3652,-1810.18 3530,-1810.18"/>
<text text-anchor="middle" x="3591" y="-1824.98" font-family="Times,serif" font-size="14.00">match_n_score</text>
</g>
<!-- match_n_score&#45;&gt;run_dragen_alignment_step -->
<g id="edge41" class="edge">
<title>match_n_score&#45;&gt;run_dragen_alignment_step</title>
<path fill="none" stroke="black" d="M3611.57,-1810.03C3699,-1735.01 4039.83,-1442.53 4140.72,-1355.95"/>
<polygon fill="black" stroke="black" points="4143.06,-1358.55 4148.37,-1349.38 4138.51,-1353.24 4143.06,-1358.55"/>
</g>
<!-- match_score -->
<g id="node33" class="node">
<title>match_score</title>
<polygon fill="#94ddf4" stroke="black" points="3406,-1810.18 3406,-1847.18 3512,-1847.18 3512,-1810.18 3406,-1810.18"/>
<text text-anchor="middle" x="3459" y="-1824.98" font-family="Times,serif" font-size="14.00">match_score</text>
</g>
<!-- match_score&#45;&gt;run_dragen_alignment_step -->
<g id="edge42" class="edge">
<title>match_score&#45;&gt;run_dragen_alignment_step</title>
<path fill="none" stroke="black" d="M3480.54,-1810.1C3492.34,-1800.6 3507.32,-1788.79 3521,-1778.68 3749.87,-1609.58 4035.11,-1419.85 4133.62,-1354.91"/>
<polygon fill="black" stroke="black" points="4135.6,-1357.8 4142.02,-1349.38 4131.75,-1351.96 4135.6,-1357.8"/>
</g>
<!-- max_intron_bases -->
<g id="node34" class="node">
<title>max_intron_bases</title>
<polygon fill="#94ddf4" stroke="black" points="3244,-1810.18 3244,-1847.18 3388,-1847.18 3388,-1810.18 3244,-1810.18"/>
<text text-anchor="middle" x="3316" y="-1824.98" font-family="Times,serif" font-size="14.00">max_intron_bases</text>
</g>
<!-- max_intron_bases&#45;&gt;run_dragen_alignment_step -->
<g id="edge43" class="edge">
<title>max_intron_bases&#45;&gt;run_dragen_alignment_step</title>
<path fill="none" stroke="black" d="M3344.79,-1810.08C3360.23,-1800.69 3379.6,-1788.98 3397,-1778.68 3675.99,-1613.55 4014.9,-1419.59 4129.2,-1354.37"/>
<polygon fill="black" stroke="black" points="4131.04,-1357.35 4137.99,-1349.35 4127.57,-1351.27 4131.04,-1357.35"/>
</g>
<!-- max_rescues -->
<g id="node35" class="node">
<title>max_rescues</title>
<polygon fill="#94ddf4" stroke="black" points="3118,-1810.18 3118,-1847.18 3226,-1847.18 3226,-1810.18 3118,-1810.18"/>
<text text-anchor="middle" x="3172" y="-1824.98" font-family="Times,serif" font-size="14.00">max_rescues</text>
</g>
<!-- max_rescues&#45;&gt;run_dragen_alignment_step -->
<g id="edge44" class="edge">
<title>max_rescues&#45;&gt;run_dragen_alignment_step</title>
<path fill="none" stroke="black" d="M3192.19,-1810.18C3204.16,-1800.26 3219.91,-1788.01 3235,-1778.68 3551.51,-1583.01 3966.81,-1411.52 4114.22,-1353.04"/>
<polygon fill="black" stroke="black" points="4115.94,-1356.12 4123.95,-1349.19 4113.36,-1349.61 4115.94,-1356.12"/>
</g>
<!-- min_intron_bases -->
<g id="node36" class="node">
<title>min_intron_bases</title>
<polygon fill="#94ddf4" stroke="black" points="2958.5,-1810.18 2958.5,-1847.18 3099.5,-1847.18 3099.5,-1810.18 2958.5,-1810.18"/>
<text text-anchor="middle" x="3029" y="-1824.98" font-family="Times,serif" font-size="14.00">min_intron_bases</text>
</g>
<!-- min_intron_bases&#45;&gt;run_dragen_alignment_step -->
<g id="edge45" class="edge">
<title>min_intron_bases&#45;&gt;run_dragen_alignment_step</title>
<path fill="none" stroke="black" d="M3055.45,-1810.09C3070.77,-1800.26 3090.6,-1788.13 3109,-1778.68 3478.81,-1588.82 3947.99,-1412.2 4110.49,-1352.8"/>
<polygon fill="black" stroke="black" points="4112.09,-1355.94 4120.29,-1349.22 4109.69,-1349.36 4112.09,-1355.94"/>
</g>
<!-- min_score_coeff -->
<g id="node37" class="node">
<title>min_score_coeff</title>
<polygon fill="#94ddf4" stroke="black" points="2811.5,-1810.18 2811.5,-1847.18 2940.5,-1847.18 2940.5,-1810.18 2811.5,-1810.18"/>
<text text-anchor="middle" x="2876" y="-1824.98" font-family="Times,serif" font-size="14.00">min_score_coeff</text>
</g>
<!-- min_score_coeff&#45;&gt;run_dragen_alignment_step -->
<g id="edge46" class="edge">
<title>min_score_coeff&#45;&gt;run_dragen_alignment_step</title>
<path fill="none" stroke="black" d="M2899.47,-1810.09C2913.61,-1800.02 2932.26,-1787.65 2950,-1778.68 3364.96,-1568.85 3902.7,-1406.93 4095.9,-1351.96"/>
<polygon fill="black" stroke="black" points="4096.99,-1355.29 4105.66,-1349.19 4095.08,-1348.56 4096.99,-1355.29"/>
</g>
<!-- mismatch_pen -->
<g id="node38" class="node">
<title>mismatch_pen</title>
<polygon fill="#94ddf4" stroke="black" points="2674.5,-1810.18 2674.5,-1847.18 2793.5,-1847.18 2793.5,-1810.18 2674.5,-1810.18"/>
<text text-anchor="middle" x="2734" y="-1824.98" font-family="Times,serif" font-size="14.00">mismatch_pen</text>
</g>
<!-- mismatch_pen&#45;&gt;run_dragen_alignment_step -->
<g id="edge47" class="edge">
<title>mismatch_pen&#45;&gt;run_dragen_alignment_step</title>
<path fill="none" stroke="black" d="M2755.3,-1810C2768.42,-1799.78 2785.94,-1787.28 2803,-1778.68 3256.66,-1550.02 3852.73,-1402.34 4077.75,-1351.46"/>
<polygon fill="black" stroke="black" points="4078.55,-1354.86 4087.54,-1349.25 4077.01,-1348.04 4078.55,-1354.86"/>
</g>
<!-- no_unclip_score -->
<g id="node39" class="node">
<title>no_unclip_score</title>
<polygon fill="#94ddf4" stroke="black" points="2527.5,-1810.18 2527.5,-1847.18 2656.5,-1847.18 2656.5,-1810.18 2527.5,-1810.18"/>
<text text-anchor="middle" x="2592" y="-1824.98" font-family="Times,serif" font-size="14.00">no_unclip_score</text>
</g>
<!-- no_unclip_score&#45;&gt;run_dragen_alignment_step -->
<g id="edge48" class="edge">
<title>no_unclip_score&#45;&gt;run_dragen_alignment_step</title>
<path fill="none" stroke="black" d="M2614.62,-1810.15C2628.76,-1799.85 2647.71,-1787.22 2666,-1778.68 3166.55,-1544.88 3818,-1400.86 4066.56,-1351.2"/>
<polygon fill="black" stroke="black" points="4067.54,-1354.57 4076.66,-1349.19 4066.17,-1347.71 4067.54,-1354.57"/>
</g>
<!-- no_unpaired -->
<g id="node40" class="node">
<title>no_unpaired</title>
<polygon fill="#94ddf4" stroke="black" points="2405,-1810.18 2405,-1847.18 2509,-1847.18 2509,-1810.18 2405,-1810.18"/>
<text text-anchor="middle" x="2457" y="-1824.98" font-family="Times,serif" font-size="14.00">no_unpaired</text>
</g>
<!-- no_unpaired&#45;&gt;run_dragen_alignment_step -->
<g id="edge49" class="edge">
<title>no_unpaired&#45;&gt;run_dragen_alignment_step</title>
<path fill="none" stroke="black" d="M2475.16,-1810.06C2486.85,-1799.6 2502.83,-1786.83 2519,-1778.68 3058.33,-1506.96 3782.76,-1384.78 4057.27,-1346.09"/>
<polygon fill="black" stroke="black" points="4057.83,-1349.55 4067.24,-1344.69 4056.86,-1342.62 4057.83,-1349.55"/>
</g>
<!-- pe_max_penalty -->
<g id="node41" class="node">
<title>pe_max_penalty</title>
<polygon fill="#94ddf4" stroke="black" points="2255.5,-1810.18 2255.5,-1847.18 2386.5,-1847.18 2386.5,-1810.18 2255.5,-1810.18"/>
<text text-anchor="middle" x="2321" y="-1824.98" font-family="Times,serif" font-size="14.00">pe_max_penalty</text>
</g>
<!-- pe_max_penalty&#45;&gt;run_dragen_alignment_step -->
<g id="edge50" class="edge">
<title>pe_max_penalty&#45;&gt;run_dragen_alignment_step</title>
<path fill="none" stroke="black" d="M2343.51,-1810.13C2357.84,-1799.69 2377.19,-1786.92 2396,-1778.68 2992.47,-1517.42 3771.43,-1387.85 4057.45,-1346.67"/>
<polygon fill="black" stroke="black" points="4058.02,-1350.12 4067.42,-1345.24 4057.02,-1343.19 4058.02,-1350.12"/>
</g>
<!-- pe_orientation -->
<g id="node42" class="node">
<title>pe_orientation</title>
<polygon fill="#94ddf4" stroke="black" points="2118.5,-1810.18 2118.5,-1847.18 2237.5,-1847.18 2237.5,-1810.18 2118.5,-1810.18"/>
<text text-anchor="middle" x="2178" y="-1824.98" font-family="Times,serif" font-size="14.00">pe_orientation</text>
</g>
<!-- pe_orientation&#45;&gt;run_dragen_alignment_step -->
<g id="edge51" class="edge">
<title>pe_orientation&#45;&gt;run_dragen_alignment_step</title>
<path fill="none" stroke="black" d="M2198.14,-1810.17C2211.25,-1799.61 2229.18,-1786.7 2247,-1778.68 2894.69,-1487.1 3753.95,-1374.62 4057.25,-1342.39"/>
<polygon fill="black" stroke="black" points="4057.79,-1345.85 4067.37,-1341.32 4057.05,-1338.89 4057.79,-1345.85"/>
</g>
<!-- preserve_map_align_order -->
<g id="node43" class="node">
<title>preserve_map_align_order</title>
<polygon fill="#94ddf4" stroke="black" points="1895.5,-1810.18 1895.5,-1847.18 2100.5,-1847.18 2100.5,-1810.18 1895.5,-1810.18"/>
<text text-anchor="middle" x="1998" y="-1824.98" font-family="Times,serif" font-size="14.00">preserve_map_align_order</text>
</g>
<!-- preserve_map_align_order&#45;&gt;run_dragen_alignment_step -->
<g id="edge52" class="edge">
<title>preserve_map_align_order&#45;&gt;run_dragen_alignment_step</title>
<path fill="none" stroke="black" d="M2033.11,-1810.17C2054.84,-1799.87 2083.55,-1787.24 2110,-1778.68 2835.55,-1543.79 3744.95,-1395.02 4057.53,-1347.88"/>
<polygon fill="black" stroke="black" points="4058.13,-1351.33 4067.5,-1346.39 4057.09,-1344.41 4058.13,-1351.33"/>
</g>
<!-- reference_tar -->
<g id="node44" class="node">
<title>reference_tar</title>
<polygon fill="#94ddf4" stroke="black" points="1764.5,-1810.18 1764.5,-1847.18 1877.5,-1847.18 1877.5,-1810.18 1764.5,-1810.18"/>
<text text-anchor="middle" x="1821" y="-1824.98" font-family="Times,serif" font-size="14.00">reference_tar</text>
</g>
<!-- reference_tar&#45;&gt;run_dragen_alignment_step -->
<g id="edge53" class="edge">
<title>reference_tar&#45;&gt;run_dragen_alignment_step</title>
<path fill="none" stroke="black" d="M1839.76,-1810.17C1852.24,-1799.47 1869.51,-1786.41 1887,-1778.68 2668.19,-1433.53 3716.61,-1353.57 4057.14,-1336.21"/>
<polygon fill="black" stroke="black" points="4057.44,-1339.7 4067.26,-1335.71 4057.09,-1332.71 4057.44,-1339.7"/>
</g>
<!-- remove_duplicates -->
<g id="node45" class="node">
<title>remove_duplicates</title>
<polygon fill="#94ddf4" stroke="black" points="1596,-1810.18 1596,-1847.18 1746,-1847.18 1746,-1810.18 1596,-1810.18"/>
<text text-anchor="middle" x="1671" y="-1824.98" font-family="Times,serif" font-size="14.00">remove_duplicates</text>
</g>
<!-- remove_duplicates&#45;&gt;run_dragen_alignment_step -->
<g id="edge54" class="edge">
<title>remove_duplicates&#45;&gt;run_dragen_alignment_step</title>
<path fill="none" stroke="black" d="M1696.29,-1810.04C1712.63,-1799.43 1734.74,-1786.51 1756,-1778.68 2605.39,-1465.69 3706.99,-1364.33 4057.09,-1338.91"/>
<polygon fill="black" stroke="black" points="4057.5,-1342.39 4067.22,-1338.18 4057,-1335.41 4057.5,-1342.39"/>
</g>
<!-- rescue_sigmas -->
<g id="node46" class="node">
<title>rescue_sigmas</title>
<polygon fill="#94ddf4" stroke="black" points="1456.5,-1810.18 1456.5,-1847.18 1577.5,-1847.18 1577.5,-1810.18 1456.5,-1810.18"/>
<text text-anchor="middle" x="1517" y="-1824.98" font-family="Times,serif" font-size="14.00">rescue_sigmas</text>
</g>
<!-- rescue_sigmas&#45;&gt;run_dragen_alignment_step -->
<g id="edge55" class="edge">
<title>rescue_sigmas&#45;&gt;run_dragen_alignment_step</title>
<path fill="none" stroke="black" d="M1537.02,-1810.06C1550.31,-1799.33 1568.62,-1786.26 1587,-1778.68 2488.08,-1407.16 3689.34,-1344.41 4057.25,-1333.83"/>
<polygon fill="black" stroke="black" points="4057.46,-1337.32 4067.36,-1333.54 4057.27,-1330.32 4057.46,-1337.32"/>
</g>
<!-- sec_aligns -->
<g id="node47" class="node">
<title>sec_aligns</title>
<polygon fill="#94ddf4" stroke="black" points="1349.5,-1810.18 1349.5,-1847.18 1438.5,-1847.18 1438.5,-1810.18 1349.5,-1810.18"/>
<text text-anchor="middle" x="1394" y="-1824.98" font-family="Times,serif" font-size="14.00">sec_aligns</text>
</g>
<!-- sec_aligns&#45;&gt;run_dragen_alignment_step -->
<g id="edge56" class="edge">
<title>sec_aligns&#45;&gt;run_dragen_alignment_step</title>
<path fill="none" stroke="black" d="M1408.7,-1809.93C1418.64,-1799.14 1432.72,-1786.06 1448,-1778.68 1924.37,-1548.65 3606.13,-1382.65 4057.05,-1341.56"/>
<polygon fill="black" stroke="black" points="4057.51,-1345.03 4067.15,-1340.64 4056.87,-1338.06 4057.51,-1345.03"/>
</g>
<!-- sec_aligns_hard -->
<g id="node48" class="node">
<title>sec_aligns_hard</title>
<polygon fill="#94ddf4" stroke="black" points="1202.5,-1810.18 1202.5,-1847.18 1331.5,-1847.18 1331.5,-1810.18 1202.5,-1810.18"/>
<text text-anchor="middle" x="1267" y="-1824.98" font-family="Times,serif" font-size="14.00">sec_aligns_hard</text>
</g>
<!-- sec_aligns_hard&#45;&gt;run_dragen_alignment_step -->
<g id="edge57" class="edge">
<title>sec_aligns_hard&#45;&gt;run_dragen_alignment_step</title>
<path fill="none" stroke="black" d="M1288.29,-1810C1302.38,-1799.24 1321.76,-1786.16 1341,-1778.68 2342.08,-1389.45 3668.04,-1338.83 4057.19,-1332.51"/>
<polygon fill="black" stroke="black" points="4057.38,-1336 4067.32,-1332.35 4057.27,-1329 4057.38,-1336"/>
</g>
<!-- sec_phred_delta -->
<g id="node49" class="node">
<title>sec_phred_delta</title>
<polygon fill="#94ddf4" stroke="black" points="1053.5,-1810.18 1053.5,-1847.18 1184.5,-1847.18 1184.5,-1810.18 1053.5,-1810.18"/>
<text text-anchor="middle" x="1119" y="-1824.98" font-family="Times,serif" font-size="14.00">sec_phred_delta</text>
</g>
<!-- sec_phred_delta&#45;&gt;run_dragen_alignment_step -->
<g id="edge58" class="edge">
<title>sec_phred_delta&#45;&gt;run_dragen_alignment_step</title>
<path fill="none" stroke="black" d="M1140.6,-1809.96C1154.89,-1799.18 1174.52,-1786.1 1194,-1778.68 2253.47,-1375.14 3655.17,-1334.56 4057.01,-1331.55"/>
<polygon fill="black" stroke="black" points="4057.21,-1335.05 4067.18,-1331.48 4057.16,-1328.05 4057.21,-1335.05"/>
</g>
<!-- sec_score_delta -->
<g id="node50" class="node">
<title>sec_score_delta</title>
<polygon fill="#94ddf4" stroke="black" points="907,-1810.18 907,-1847.18 1035,-1847.18 1035,-1810.18 907,-1810.18"/>
<text text-anchor="middle" x="971" y="-1824.98" font-family="Times,serif" font-size="14.00">sec_score_delta</text>
</g>
<!-- sec_score_delta&#45;&gt;run_dragen_alignment_step -->
<g id="edge59" class="edge">
<title>sec_score_delta&#45;&gt;run_dragen_alignment_step</title>
<path fill="none" stroke="black" d="M991.94,-1810.15C1006.04,-1799.3 1025.56,-1786.08 1045,-1778.68 1616.7,-1561.2 3567.65,-1383.05 4056.98,-1341.06"/>
<polygon fill="black" stroke="black" points="4057.56,-1344.52 4067.22,-1340.18 4056.96,-1337.55 4057.56,-1344.52"/>
</g>
<!-- seed_density -->
<g id="node51" class="node">
<title>seed_density</title>
<polygon fill="#94ddf4" stroke="black" points="779.5,-1810.18 779.5,-1847.18 888.5,-1847.18 888.5,-1810.18 779.5,-1810.18"/>
<text text-anchor="middle" x="834" y="-1824.98" font-family="Times,serif" font-size="14.00">seed_density</text>
</g>
<!-- seed_density&#45;&gt;run_dragen_alignment_step -->
<g id="edge60" class="edge">
<title>seed_density&#45;&gt;run_dragen_alignment_step</title>
<path fill="none" stroke="black" d="M851.69,-1810.06C863.72,-1799.17 880.56,-1785.94 898,-1778.68 1490.98,-1531.72 3553.17,-1374.54 4057.21,-1339.25"/>
<polygon fill="black" stroke="black" points="4057.66,-1342.73 4067.39,-1338.54 4057.17,-1335.74 4057.66,-1342.73"/>
</g>
<!-- supp_aligns -->
<g id="node52" class="node">
<title>supp_aligns</title>
<polygon fill="#94ddf4" stroke="black" points="660.5,-1810.18 660.5,-1847.18 761.5,-1847.18 761.5,-1810.18 660.5,-1810.18"/>
<text text-anchor="middle" x="711" y="-1824.98" font-family="Times,serif" font-size="14.00">supp_aligns</text>
</g>
<!-- supp_aligns&#45;&gt;run_dragen_alignment_step -->
<g id="edge61" class="edge">
<title>supp_aligns&#45;&gt;run_dragen_alignment_step</title>
<path fill="none" stroke="black" d="M727.37,-1810.01C738.56,-1799.11 754.33,-1785.88 771,-1778.68 1385,-1513.41 3541.26,-1369.32 4057.39,-1338.15"/>
<polygon fill="black" stroke="black" points="4057.67,-1341.64 4067.44,-1337.55 4057.25,-1334.65 4057.67,-1341.64"/>
</g>
<!-- supp_as_sec -->
<g id="node53" class="node">
<title>supp_as_sec</title>
<polygon fill="#94ddf4" stroke="black" points="538,-1810.18 538,-1847.18 642,-1847.18 642,-1810.18 538,-1810.18"/>
<text text-anchor="middle" x="590" y="-1824.98" font-family="Times,serif" font-size="14.00">supp_as_sec</text>
</g>
<!-- supp_as_sec&#45;&gt;run_dragen_alignment_step -->
<g id="edge62" class="edge">
<title>supp_as_sec&#45;&gt;run_dragen_alignment_step</title>
<path fill="none" stroke="black" d="M607.01,-1809.99C618.62,-1799.09 634.92,-1785.85 652,-1778.68 1291.32,-1510.17 3529.72,-1368.05 4057.1,-1337.83"/>
<polygon fill="black" stroke="black" points="4057.58,-1341.31 4067.37,-1337.25 4057.19,-1334.32 4057.58,-1341.31"/>
</g>
<!-- supp_min_score_adj -->
<g id="node54" class="node">
<title>supp_min_score_adj</title>
<polygon fill="#94ddf4" stroke="black" points="362,-1810.18 362,-1847.18 520,-1847.18 520,-1810.18 362,-1810.18"/>
<text text-anchor="middle" x="441" y="-1824.98" font-family="Times,serif" font-size="14.00">supp_min_score_adj</text>
</g>
<!-- supp_min_score_adj&#45;&gt;run_dragen_alignment_step -->
<g id="edge63" class="edge">
<title>supp_min_score_adj&#45;&gt;run_dragen_alignment_step</title>
<path fill="none" stroke="black" d="M466.35,-1810.09C483.31,-1799.22 506.56,-1786 529,-1778.68 1212.26,-1555.94 3520.97,-1378.45 4057.13,-1339.6"/>
<polygon fill="black" stroke="black" points="4057.46,-1343.09 4067.18,-1338.87 4056.96,-1336.1 4057.46,-1343.09"/>
</g>
<!-- unclip_score -->
<g id="node55" class="node">
<title>unclip_score</title>
<polygon fill="#94ddf4" stroke="black" points="238.5,-1810.18 238.5,-1847.18 343.5,-1847.18 343.5,-1810.18 238.5,-1810.18"/>
<text text-anchor="middle" x="291" y="-1824.98" font-family="Times,serif" font-size="14.00">unclip_score</text>
</g>
<!-- unclip_score&#45;&gt;run_dragen_alignment_step -->
<g id="edge64" class="edge">
<title>unclip_score&#45;&gt;run_dragen_alignment_step</title>
<path fill="none" stroke="black" d="M307.99,-1809.94C319.58,-1799.01 335.89,-1785.77 353,-1778.68 1051.07,-1489.52 3502.19,-1362.08 4056.85,-1336.59"/>
<polygon fill="black" stroke="black" points="4057.42,-1340.06 4067.25,-1336.11 4057.1,-1333.07 4057.42,-1340.06"/>
</g>
<!-- unpaired_pen -->
<g id="node56" class="node">
<title>unpaired_pen</title>
<polygon fill="#94ddf4" stroke="black" points="107.5,-1810.18 107.5,-1847.18 220.5,-1847.18 220.5,-1810.18 107.5,-1810.18"/>
<text text-anchor="middle" x="164" y="-1824.98" font-family="Times,serif" font-size="14.00">unpaired_pen</text>
</g>
<!-- unpaired_pen&#45;&gt;run_dragen_alignment_step -->
<g id="edge65" class="edge">
<title>unpaired_pen&#45;&gt;run_dragen_alignment_step</title>
<path fill="none" stroke="black" d="M182.01,-1810.17C194.45,-1799.19 211.95,-1785.8 230,-1778.68 956.78,-1491.92 3492.71,-1362.21 4057.11,-1336.54"/>
<polygon fill="black" stroke="black" points="4057.45,-1340.03 4067.28,-1336.08 4057.13,-1333.03 4057.45,-1340.03"/>
</g>
<!-- verbose -->
<g id="node57" class="node">
<title>verbose</title>
<polygon fill="#94ddf4" stroke="black" points="16.5,-1810.18 16.5,-1847.18 89.5,-1847.18 89.5,-1810.18 16.5,-1810.18"/>
<text text-anchor="middle" x="53" y="-1824.98" font-family="Times,serif" font-size="14.00">verbose</text>
</g>
<!-- verbose&#45;&gt;run_dragen_alignment_step -->
<g id="edge66" class="edge">
<title>verbose&#45;&gt;run_dragen_alignment_step</title>
<path fill="none" stroke="black" d="M64.16,-1810.15C72.16,-1799.16 83.99,-1785.78 98,-1778.68 820.28,-1413.02 3478.83,-1344.2 4057.38,-1333.45"/>
<polygon fill="black" stroke="black" points="4057.46,-1336.95 4067.39,-1333.27 4057.33,-1329.95 4057.46,-1336.95"/>
</g>
<!-- dragen_alignment_output_directory -->
<g id="node58" class="node">
<title>dragen_alignment_output_directory</title>
<polygon fill="#94ddf4" stroke="black" points="4033,-356.18 4033,-393.18 4305,-393.18 4305,-356.18 4033,-356.18"/>
<text text-anchor="middle" x="4169" y="-370.98" font-family="Times,serif" font-size="14.00">dragen_alignment_output_directory</text>
</g>
<!-- dragen_bam_out -->
<g id="node59" class="node">
<title>dragen_bam_out</title>
<polygon fill="#94ddf4" stroke="black" points="4323,-356.18 4323,-393.18 4457,-393.18 4457,-356.18 4323,-356.18"/>
<text text-anchor="middle" x="4390" y="-370.98" font-family="Times,serif" font-size="14.00">dragen_bam_out</text>
</g>
<!-- multiqc_output_directory -->
<g id="node60" class="node">
<title>multiqc_output_directory</title>
<polygon fill="#94ddf4" stroke="black" points="4475.5,-356.18 4475.5,-393.18 4672.5,-393.18 4672.5,-356.18 4475.5,-356.18"/>
<text text-anchor="middle" x="4574" y="-370.98" font-family="Times,serif" font-size="14.00">multiqc_output_directory</text>
</g>
<!-- run_dragen_alignment_step&#45;&gt;dragen_alignment_output_directory -->
<g id="edge2" class="edge">
<title>run_dragen_alignment_step&#45;&gt;dragen_alignment_output_directory</title>
<path fill="none" stroke="black" d="M4169,-1311.89C4169,-1195.8 4169,-546.28 4169,-403.46"/>
<polygon fill="black" stroke="black" points="4172.5,-403.34 4169,-393.34 4165.5,-403.34 4172.5,-403.34"/>
</g>
<!-- run_dragen_alignment_step&#45;&gt;dragen_bam_out -->
<g id="edge3" class="edge">
<title>run_dragen_alignment_step&#45;&gt;dragen_bam_out</title>
<path fill="none" stroke="black" d="M4173.12,-1311.89C4200.01,-1195.8 4350.48,-546.28 4383.57,-403.46"/>
<polygon fill="black" stroke="black" points="4387.06,-403.88 4385.91,-393.34 4380.24,-402.3 4387.06,-403.88"/>
</g>
<!-- run_dragen_alignment_step&#45;&gt;dragen_qc_step -->
<g id="edge1" class="edge">
<title>run_dragen_alignment_step&#45;&gt;dragen_qc_step</title>
<path fill="none" stroke="black" d="M4270.75,-1317.07C4821.33,-1248.84 7437.47,-924.63 7929.96,-863.6"/>
<polygon fill="black" stroke="black" points="7930.67,-867.04 7940.17,-862.33 7929.81,-860.09 7930.67,-867.04"/>
</g>
<!-- dragen_qc_step&#45;&gt;multiqc_output_directory -->
<g id="edge4" class="edge">
<title>dragen_qc_step&#45;&gt;multiqc_output_directory</title>
<path fill="none" stroke="black" d="M7940.2,-842.01C7509.3,-782.32 5212.16,-464.09 4682.84,-390.76"/>
<polygon fill="black" stroke="black" points="4683.3,-387.29 4672.92,-389.38 4682.34,-394.22 4683.3,-387.29"/>
</g>
<!-- create_dummy_file_step -->
<g id="node63" class="node">
<title>create_dummy_file_step</title>
<polygon fill="lightgoldenrodyellow" stroke="black" points="8056.5,-1312.18 8056.5,-1349.18 8317.5,-1349.18 8317.5,-1312.18 8056.5,-1312.18"/>
<text text-anchor="middle" x="8187" y="-1326.98" font-family="Times,serif" font-size="14.00">custom&#45;create&#45;dummy&#45;file v(1.0.0)</text>
</g>
<!-- create_dummy_file_step&#45;&gt;dragen_qc_step -->
<g id="edge5" class="edge">
<title>create_dummy_file_step&#45;&gt;dragen_qc_step</title>
<path fill="none" stroke="black" d="M8180.49,-1312.17C8153.79,-1240.38 8052.57,-968.16 8020.09,-880.83"/>
<polygon fill="black" stroke="black" points="8023.33,-879.5 8016.57,-871.35 8016.77,-881.94 8023.33,-879.5"/>
</g>
<!-- \n -->
<g id="node64" class="node">
<title>\n</title>
<ellipse fill="none" stroke="black" cx="8111" cy="-1828.68" rx="27" ry="18"/>
</g>
</g>
</svg>
