<?xml version="1.0" encoding="UTF-8" standalone="no"?>
<!DOCTYPE svg PUBLIC "-//W3C//DTD SVG 1.1//EN"
 "http://www.w3.org/Graphics/SVG/1.1/DTD/svg11.dtd">
<!-- Generated by graphviz version 2.43.0 (0)
 -->
<!-- Title: G Pages: 1 -->
<svg width="1012pt" height="922pt"
 viewBox="0.00 0.00 1012.00 921.64" xmlns="http://www.w3.org/2000/svg" xmlns:xlink="http://www.w3.org/1999/xlink">
<g id="graph0" class="graph" transform="scale(1 1) rotate(0) translate(4 917.64)">
<title>G</title>
<polygon fill="#eeeeee" stroke="transparent" points="-4,4 -4,-917.64 1008,-917.64 1008,4 -4,4"/>
<g id="clust1" class="cluster">
<title>cluster_inputs</title>
<polygon fill="#eeeeee" stroke="black" stroke-dasharray="5,2" points="8,-669.43 8,-890.66 661,-890.66 661,-669.43 8,-669.43"/>
<text text-anchor="middle" x="594.5" y="-677.23" font-family="Times,serif" font-size="14.00">Workflow Inputs</text>
</g>
<g id="clust2" class="cluster">
<title>cluster_outputs</title>
<polygon fill="#eeeeee" stroke="black" stroke-dasharray="5,2" points="13,-22.98 13,-244.21 817,-244.21 817,-22.98 13,-22.98"/>
<text text-anchor="middle" x="744.5" y="-30.78" font-family="Times,serif" font-size="14.00">Workflow Outputs</text>
</g>
<!-- runfolder_name -->
<g id="node1" class="node">
<title>runfolder_name</title>
<polygon fill="#94ddf4" stroke="black" points="523.5,-794.48 523.5,-831.48 652.5,-831.48 652.5,-794.48 523.5,-794.48"/>
<text text-anchor="middle" x="588" y="-809.28" font-family="Times,serif" font-size="14.00">runfolder_name</text>
</g>
<!-- bclconvert_qc_step -->
<g id="node10" class="node">
<title>bclconvert_qc_step</title>
<polygon fill="lightgoldenrodyellow" stroke="black" points="471.5,-360.48 471.5,-397.48 610.5,-397.48 610.5,-360.48 471.5,-360.48"/>
<text text-anchor="middle" x="541" y="-375.28" font-family="Times,serif" font-size="14.00">multiqc v(1.12.0)</text>
</g>
<!-- runfolder_name&#45;&gt;bclconvert_qc_step -->
<g id="edge9" class="edge">
<title>runfolder_name&#45;&gt;bclconvert_qc_step</title>
<path fill="none" stroke="black" d="M580.28,-794.24C563.15,-727.23 536.83,-489.21 536.97,-407.64"/>
<polygon fill="black" stroke="black" points="540.46,-407.7 537.15,-397.63 533.47,-407.57 540.46,-407.7"/>
</g>
<!-- runfolder_name&#45;&gt;bclconvert_qc_step -->
<g id="edge10" class="edge">
<title>runfolder_name&#45;&gt;bclconvert_qc_step</title>
<path fill="none" stroke="black" d="M586.07,-794.24C578.78,-727.23 552.88,-489.21 544.01,-407.64"/>
<polygon fill="black" stroke="black" points="547.48,-407.2 542.92,-397.63 540.52,-407.95 547.48,-407.2"/>
</g>
<!-- runfolder_name&#45;&gt;bclconvert_qc_step -->
<g id="edge11" class="edge">
<title>runfolder_name&#45;&gt;bclconvert_qc_step</title>
<path fill="none" stroke="black" d="M591.86,-794.24C594.41,-727.23 568.94,-489.21 551.05,-407.64"/>
<polygon fill="black" stroke="black" points="554.39,-406.56 548.69,-397.63 547.58,-408.17 554.39,-406.56"/>
</g>
<!-- interop_qc_step -->
<g id="node11" class="node">
<title>interop_qc_step</title>
<polygon fill="lightgoldenrodyellow" stroke="black" points="587,-573.48 587,-610.48 773,-610.48 773,-573.48 587,-573.48"/>
<text text-anchor="middle" x="680" y="-588.28" font-family="Times,serif" font-size="14.00">multiqc&#45;interop v(1.2.1)</text>
</g>
<!-- runfolder_name&#45;&gt;interop_qc_step -->
<g id="edge12" class="edge">
<title>runfolder_name&#45;&gt;interop_qc_step</title>
<path fill="none" stroke="black" d="M587.62,-794.43C596.57,-756.07 634.55,-664.57 659.8,-619.29"/>
<polygon fill="black" stroke="black" points="662.83,-621.03 664.82,-610.62 656.78,-617.52 662.83,-621.03"/>
</g>
<!-- runfolder_name&#45;&gt;interop_qc_step -->
<g id="edge13" class="edge">
<title>runfolder_name&#45;&gt;interop_qc_step</title>
<path fill="none" stroke="black" d="M595.37,-794.43C611.42,-756.23 649.61,-665.33 668.71,-619.86"/>
<polygon fill="black" stroke="black" points="671.95,-621.19 672.59,-610.62 665.49,-618.48 671.95,-621.19"/>
</g>
<!-- runfolder_name&#45;&gt;interop_qc_step -->
<g id="edge14" class="edge">
<title>runfolder_name&#45;&gt;interop_qc_step</title>
<path fill="none" stroke="black" d="M603.13,-794.43C626.21,-756.39 664.66,-666.09 677.78,-620.43"/>
<polygon fill="black" stroke="black" points="681.2,-621.18 680.36,-610.62 674.43,-619.4 681.2,-621.18"/>
</g>
<!-- bclconvert_run_input_directory -->
<g id="node2" class="node">
<title>bclconvert_run_input_directory</title>
<polygon fill="#94ddf4" stroke="black" points="266.5,-794.48 266.5,-831.48 505.5,-831.48 505.5,-794.48 266.5,-794.48"/>
<text text-anchor="middle" x="386" y="-809.28" font-family="Times,serif" font-size="14.00">bclconvert_run_input_directory</text>
</g>
<!-- bclconvert_run_input_directory&#45;&gt;interop_qc_step -->
<g id="edge16" class="edge">
<title>bclconvert_run_input_directory&#45;&gt;interop_qc_step</title>
<path fill="none" stroke="black" d="M409.56,-794.43C462.03,-755.35 588.54,-661.11 648.05,-616.78"/>
<polygon fill="black" stroke="black" points="650.4,-619.4 656.33,-610.62 646.22,-613.79 650.4,-619.4"/>
</g>
<!-- run_bclconvert_step -->
<g id="node12" class="node">
<title>run_bclconvert_step</title>
<polygon fill="#f3cea1" stroke="black" points="170,-573.48 170,-610.48 376,-610.48 376,-573.48 170,-573.48"/>
<text text-anchor="middle" x="273" y="-588.28" font-family="Times,serif" font-size="14.00">bclconvert&#45;scatter v(4.0.3)</text>
</g>
<!-- bclconvert_run_input_directory&#45;&gt;run_bclconvert_step -->
<g id="edge15" class="edge">
<title>bclconvert_run_input_directory&#45;&gt;run_bclconvert_step</title>
<path fill="none" stroke="black" d="M376.94,-794.43C357.19,-756.15 310.13,-664.95 286.72,-619.57"/>
<polygon fill="black" stroke="black" points="289.8,-617.9 282.1,-610.62 283.57,-621.11 289.8,-617.9"/>
</g>
<!-- bclconvert_run_configurations -->
<g id="node3" class="node">
<title>bclconvert_run_configurations</title>
<polygon fill="#94ddf4" stroke="black" points="16,-794.48 16,-831.48 248,-831.48 248,-794.48 16,-794.48"/>
<text text-anchor="middle" x="132" y="-809.28" font-family="Times,serif" font-size="14.00">bclconvert_run_configurations</text>
</g>
<!-- bclconvert_run_configurations&#45;&gt;run_bclconvert_step -->
<g id="edge17" class="edge">
<title>bclconvert_run_configurations&#45;&gt;run_bclconvert_step</title>
<path fill="none" stroke="black" d="M143.3,-794.43C168,-756.07 226.91,-664.57 256.07,-619.29"/>
<polygon fill="black" stroke="black" points="259.18,-620.92 261.65,-610.62 253.29,-617.13 259.18,-620.92"/>
</g>
<!-- bclconvert_multiqc_out -->
<g id="node4" class="node">
<title>bclconvert_multiqc_out</title>
<polygon fill="#94ddf4" stroke="black" points="450,-148.48 450,-185.48 632,-185.48 632,-148.48 450,-148.48"/>
<text text-anchor="middle" x="541" y="-163.28" font-family="Times,serif" font-size="14.00">bclconvert_multiqc_out</text>
</g>
<!-- fastq_directories -->
<g id="node5" class="node">
<title>fastq_directories</title>
<polygon fill="#94ddf4" stroke="black" points="21.5,-148.48 21.5,-185.48 158.5,-185.48 158.5,-148.48 21.5,-148.48"/>
<text text-anchor="middle" x="90" y="-163.28" font-family="Times,serif" font-size="14.00">fastq_directories</text>
</g>
<!-- fastq_list_rows -->
<g id="node6" class="node">
<title>fastq_list_rows</title>
<polygon fill="#94ddf4" stroke="black" points="176.5,-148.48 176.5,-185.48 299.5,-185.48 299.5,-148.48 176.5,-148.48"/>
<text text-anchor="middle" x="238" y="-163.28" font-family="Times,serif" font-size="14.00">fastq_list_rows</text>
</g>
<!-- interop_multiqc_out -->
<g id="node7" class="node">
<title>interop_multiqc_out</title>
<polygon fill="#94ddf4" stroke="black" points="650.5,-148.48 650.5,-185.48 809.5,-185.48 809.5,-148.48 650.5,-148.48"/>
<text text-anchor="middle" x="730" y="-163.28" font-family="Times,serif" font-size="14.00">interop_multiqc_out</text>
</g>
<!-- samplesheets -->
<g id="node8" class="node">
<title>samplesheets</title>
<polygon fill="#94ddf4" stroke="black" points="318,-148.48 318,-185.48 432,-185.48 432,-148.48 318,-148.48"/>
<text text-anchor="middle" x="375" y="-163.28" font-family="Times,serif" font-size="14.00">samplesheets</text>
</g>
<!-- create_dummy_file_step -->
<g id="node9" class="node">
<title>create_dummy_file_step</title>
<polygon fill="lightgoldenrodyellow" stroke="black" points="670.5,-794.48 670.5,-831.48 931.5,-831.48 931.5,-794.48 670.5,-794.48"/>
<text text-anchor="middle" x="801" y="-809.28" font-family="Times,serif" font-size="14.00">custom&#45;create&#45;dummy&#45;file v(1.0.0)</text>
</g>
<!-- create_dummy_file_step&#45;&gt;bclconvert_qc_step -->
<g id="edge1" class="edge">
<title>create_dummy_file_step&#45;&gt;bclconvert_qc_step</title>
<path fill="none" stroke="black" d="M804.08,-794.48C810.44,-753.13 821.38,-647.27 782,-572.98 738.84,-491.56 644.95,-432.45 587.94,-402.41"/>
<polygon fill="black" stroke="black" points="589.26,-399.16 578.77,-397.67 586.04,-405.37 589.26,-399.16"/>
</g>
<!-- create_dummy_file_step&#45;&gt;interop_qc_step -->
<g id="edge2" class="edge">
<title>create_dummy_file_step&#45;&gt;interop_qc_step</title>
<path fill="none" stroke="black" d="M791.3,-794.43C770.15,-756.15 719.76,-664.95 694.69,-619.57"/>
<polygon fill="black" stroke="black" points="697.64,-617.68 689.74,-610.62 691.52,-621.07 697.64,-617.68"/>
</g>
<!-- bclconvert_qc_step&#45;&gt;bclconvert_multiqc_out -->
<g id="edge3" class="edge">
<title>bclconvert_qc_step&#45;&gt;bclconvert_multiqc_out</title>
<path fill="none" stroke="black" d="M541,-360.44C541,-324 541,-239.85 541,-195.88"/>
<polygon fill="black" stroke="black" points="544.5,-195.63 541,-185.63 537.5,-195.63 544.5,-195.63"/>
</g>
<!-- interop_qc_step&#45;&gt;interop_multiqc_out -->
<g id="edge8" class="edge">
<title>interop_qc_step&#45;&gt;interop_multiqc_out</title>
<path fill="none" stroke="black" d="M682.08,-573.35C689.85,-507.64 717.15,-276.72 726.68,-196.05"/>
<polygon fill="black" stroke="black" points="730.21,-196.04 727.91,-185.7 723.26,-195.22 730.21,-196.04"/>
</g>
<!-- run_bclconvert_step&#45;&gt;fastq_directories -->
<g id="edge5" class="edge">
<title>run_bclconvert_step&#45;&gt;fastq_directories</title>
<path fill="none" stroke="black" d="M265.37,-573.35C236.83,-507.37 136.22,-274.82 101.72,-195.07"/>
<polygon fill="black" stroke="black" points="104.85,-193.49 97.66,-185.7 98.42,-196.26 104.85,-193.49"/>
</g>
<!-- run_bclconvert_step&#45;&gt;fastq_list_rows -->
<g id="edge6" class="edge">
<title>run_bclconvert_step&#45;&gt;fastq_list_rows</title>
<path fill="none" stroke="black" d="M271.54,-573.35C266.1,-507.64 247,-276.72 240.32,-196.05"/>
<polygon fill="black" stroke="black" points="243.78,-195.37 239.47,-185.7 236.8,-195.95 243.78,-195.37"/>
</g>
<!-- run_bclconvert_step&#45;&gt;samplesheets -->
<g id="edge7" class="edge">
<title>run_bclconvert_step&#45;&gt;samplesheets</title>
<path fill="none" stroke="black" d="M277.25,-573.35C293.13,-507.51 349.01,-275.77 368.35,-195.56"/>
<polygon fill="black" stroke="black" points="371.79,-196.24 370.73,-185.7 364.98,-194.6 371.79,-196.24"/>
</g>
<!-- run_bclconvert_step&#45;&gt;bclconvert_qc_step -->
<g id="edge4" class="edge">
<title>run_bclconvert_step&#45;&gt;bclconvert_qc_step</title>
<path fill="none" stroke="black" d="M295.39,-573.36C343.37,-535.58 456.17,-446.77 510.58,-403.93"/>
<polygon fill="black" stroke="black" points="512.79,-406.65 518.49,-397.71 508.46,-401.15 512.79,-406.65"/>
</g>
<!-- \n -->
<g id="node13" class="node">
<title>\n</title>
<ellipse fill="none" stroke="black" cx="977" cy="-812.98" rx="27" ry="18"/>
</g>
</g>
</svg>
