<?xml version="1.0" encoding="UTF-8" standalone="no"?>
<!DOCTYPE svg PUBLIC "-//W3C//DTD SVG 1.1//EN"
 "http://www.w3.org/Graphics/SVG/1.1/DTD/svg11.dtd">
<!-- Generated by graphviz version 2.43.0 (0)
 -->
<!-- Title: G Pages: 1 -->
<svg width="1150pt" height="1047pt"
 viewBox="0.00 0.00 1150.00 1047.22" xmlns="http://www.w3.org/2000/svg" xmlns:xlink="http://www.w3.org/1999/xlink">
<g id="graph0" class="graph" transform="scale(1 1) rotate(0) translate(4 1043.22)">
<title>G</title>
<polygon fill="#eeeeee" stroke="transparent" points="-4,4 -4,-1043.22 1146,-1043.22 1146,4 -4,4"/>
<g id="clust1" class="cluster">
<title>cluster_inputs</title>
<polygon fill="#eeeeee" stroke="black" stroke-dasharray="5,2" points="146,-761.44 146,-1013.08 798,-1013.08 798,-761.44 146,-761.44"/>
<text text-anchor="middle" x="731.5" y="-769.24" font-family="Times,serif" font-size="14.00">Workflow Inputs</text>
</g>
<g id="clust2" class="cluster">
<title>cluster_outputs</title>
<polygon fill="#eeeeee" stroke="black" stroke-dasharray="5,2" points="8,-26.14 8,-277.78 635,-277.78 635,-26.14 8,-26.14"/>
<text text-anchor="middle" x="562.5" y="-33.94" font-family="Times,serif" font-size="14.00">Workflow Outputs</text>
</g>
<!-- runfolder_name -->
<g id="node1" class="node">
<title>runfolder_name</title>
<polygon fill="#94ddf4" stroke="black" points="404.5,-906.64 404.5,-943.64 533.5,-943.64 533.5,-906.64 404.5,-906.64"/>
<text text-anchor="middle" x="469" y="-921.44" font-family="Times,serif" font-size="14.00">runfolder_name</text>
</g>
<!-- bclconvert_qc_step -->
<g id="node9" class="node">
<title>bclconvert_qc_step</title>
<polygon fill="lightgoldenrodyellow" stroke="black" points="399.5,-412.64 399.5,-449.64 538.5,-449.64 538.5,-412.64 399.5,-412.64"/>
<text text-anchor="middle" x="469" y="-427.44" font-family="Times,serif" font-size="14.00">multiqc v(1.14.0)</text>
</g>
<!-- runfolder_name&#45;&gt;bclconvert_qc_step -->
<g id="edge9" class="edge">
<title>runfolder_name&#45;&gt;bclconvert_qc_step</title>
<path fill="none" stroke="black" d="M463.58,-906.63C453.23,-833.19 452.82,-549.63 462.36,-459.68"/>
<polygon fill="black" stroke="black" points="465.84,-460.05 463.57,-449.7 458.89,-459.21 465.84,-460.05"/>
</g>
<!-- runfolder_name&#45;&gt;bclconvert_qc_step -->
<g id="edge10" class="edge">
<title>runfolder_name&#45;&gt;bclconvert_qc_step</title>
<path fill="none" stroke="black" d="M469,-906.63C469,-833.26 469,-550.2 469,-459.96"/>
<polygon fill="black" stroke="black" points="472.5,-459.7 469,-449.7 465.5,-459.7 472.5,-459.7"/>
</g>
<!-- runfolder_name&#45;&gt;bclconvert_qc_step -->
<g id="edge11" class="edge">
<title>runfolder_name&#45;&gt;bclconvert_qc_step</title>
<path fill="none" stroke="black" d="M474.42,-906.63C484.77,-833.19 485.18,-549.63 475.64,-459.68"/>
<polygon fill="black" stroke="black" points="479.11,-459.21 474.43,-449.7 472.16,-460.05 479.11,-459.21"/>
</g>
<!-- bclconvert_run_input_directory -->
<g id="node2" class="node">
<title>bclconvert_run_input_directory</title>
<polygon fill="#94ddf4" stroke="black" points="551.5,-906.64 551.5,-943.64 790.5,-943.64 790.5,-906.64 551.5,-906.64"/>
<text text-anchor="middle" x="671" y="-921.44" font-family="Times,serif" font-size="14.00">bclconvert_run_input_directory</text>
</g>
<!-- interop_qc_step -->
<g id="node10" class="node">
<title>interop_qc_step</title>
<polygon fill="lightgoldenrodyellow" stroke="black" points="576,-654.64 576,-691.64 766,-691.64 766,-654.64 576,-654.64"/>
<text text-anchor="middle" x="671" y="-669.44" font-family="Times,serif" font-size="14.00">illumina&#45;interop v(1.2.0)</text>
</g>
<!-- bclconvert_run_input_directory&#45;&gt;interop_qc_step -->
<g id="edge13" class="edge">
<title>bclconvert_run_input_directory&#45;&gt;interop_qc_step</title>
<path fill="none" stroke="black" d="M671,-906.56C671,-863.71 671,-753.59 671,-701.82"/>
<polygon fill="black" stroke="black" points="674.5,-701.7 671,-691.7 667.5,-701.7 674.5,-701.7"/>
</g>
<!-- run_bclconvert_step -->
<g id="node11" class="node">
<title>run_bclconvert_step</title>
<polygon fill="#f3cea1" stroke="black" points="193,-654.64 193,-691.64 399,-691.64 399,-654.64 193,-654.64"/>
<text text-anchor="middle" x="296" y="-669.44" font-family="Times,serif" font-size="14.00">bclconvert&#45;scatter v(4.0.3)</text>
</g>
<!-- bclconvert_run_input_directory&#45;&gt;run_bclconvert_step -->
<g id="edge12" class="edge">
<title>bclconvert_run_input_directory&#45;&gt;run_bclconvert_step</title>
<path fill="none" stroke="black" d="M644.63,-906.56C578.47,-862.46 405.41,-747.08 330.92,-697.42"/>
<polygon fill="black" stroke="black" points="332.6,-694.34 322.34,-691.7 328.72,-700.16 332.6,-694.34"/>
</g>
<!-- bclconvert_run_configurations -->
<g id="node3" class="node">
<title>bclconvert_run_configurations</title>
<polygon fill="#94ddf4" stroke="black" points="154,-906.64 154,-943.64 386,-943.64 386,-906.64 154,-906.64"/>
<text text-anchor="middle" x="270" y="-921.44" font-family="Times,serif" font-size="14.00">bclconvert_run_configurations</text>
</g>
<!-- bclconvert_run_configurations&#45;&gt;run_bclconvert_step -->
<g id="edge14" class="edge">
<title>bclconvert_run_configurations&#45;&gt;run_bclconvert_step</title>
<path fill="none" stroke="black" d="M271.83,-906.56C276.29,-863.71 287.74,-753.59 293.12,-701.82"/>
<polygon fill="black" stroke="black" points="296.62,-702.01 294.17,-691.7 289.66,-701.29 296.62,-702.01"/>
</g>
<!-- bclconvert_multiqc_out -->
<g id="node4" class="node">
<title>bclconvert_multiqc_out</title>
<polygon fill="#94ddf4" stroke="black" points="445,-170.64 445,-207.64 627,-207.64 627,-170.64 445,-170.64"/>
<text text-anchor="middle" x="536" y="-185.44" font-family="Times,serif" font-size="14.00">bclconvert_multiqc_out</text>
</g>
<!-- fastq_directories -->
<g id="node5" class="node">
<title>fastq_directories</title>
<polygon fill="#94ddf4" stroke="black" points="148.5,-170.64 148.5,-207.64 285.5,-207.64 285.5,-170.64 148.5,-170.64"/>
<text text-anchor="middle" x="217" y="-185.44" font-family="Times,serif" font-size="14.00">fastq_directories</text>
</g>
<!-- fastq_list_rows -->
<g id="node6" class="node">
<title>fastq_list_rows</title>
<polygon fill="#94ddf4" stroke="black" points="303.5,-170.64 303.5,-207.64 426.5,-207.64 426.5,-170.64 303.5,-170.64"/>
<text text-anchor="middle" x="365" y="-185.44" font-family="Times,serif" font-size="14.00">fastq_list_rows</text>
</g>
<!-- samplesheets -->
<g id="node7" class="node">
<title>samplesheets</title>
<polygon fill="#94ddf4" stroke="black" points="16,-170.64 16,-207.64 130,-207.64 130,-170.64 16,-170.64"/>
<text text-anchor="middle" x="73" y="-185.44" font-family="Times,serif" font-size="14.00">samplesheets</text>
</g>
<!-- create_dummy_file_step -->
<g id="node8" class="node">
<title>create_dummy_file_step</title>
<polygon fill="lightgoldenrodyellow" stroke="black" points="808.5,-906.64 808.5,-943.64 1069.5,-943.64 1069.5,-906.64 808.5,-906.64"/>
<text text-anchor="middle" x="939" y="-921.44" font-family="Times,serif" font-size="14.00">custom&#45;create&#45;dummy&#45;file v(1.0.0)</text>
</g>
<!-- create_dummy_file_step&#45;&gt;bclconvert_qc_step -->
<g id="edge1" class="edge">
<title>create_dummy_file_step&#45;&gt;bclconvert_qc_step</title>
<path fill="none" stroke="black" d="M931.29,-906.45C910.81,-860.83 851.37,-737.03 775,-654.14 693.82,-566.04 572.85,-490.72 510.09,-454.74"/>
<polygon fill="black" stroke="black" points="511.69,-451.62 501.27,-449.72 508.23,-457.7 511.69,-451.62"/>
</g>
<!-- create_dummy_file_step&#45;&gt;interop_qc_step -->
<g id="edge2" class="edge">
<title>create_dummy_file_step&#45;&gt;interop_qc_step</title>
<path fill="none" stroke="black" d="M920.15,-906.56C873.25,-862.81 751.2,-748.95 697.27,-698.65"/>
<polygon fill="black" stroke="black" points="699.52,-695.97 689.82,-691.7 694.75,-701.08 699.52,-695.97"/>
</g>
<!-- bclconvert_qc_step&#45;&gt;bclconvert_multiqc_out -->
<g id="edge3" class="edge">
<title>bclconvert_qc_step&#45;&gt;bclconvert_multiqc_out</title>
<path fill="none" stroke="black" d="M473.93,-412.5C485.49,-371.06 514.46,-267.3 528.34,-217.57"/>
<polygon fill="black" stroke="black" points="531.75,-218.39 531.07,-207.82 525.01,-216.51 531.75,-218.39"/>
</g>
<!-- interop_qc_step&#45;&gt;bclconvert_qc_step -->
<g id="edge8" class="edge">
<title>interop_qc_step&#45;&gt;bclconvert_qc_step</title>
<path fill="none" stroke="black" d="M656.15,-654.5C620.83,-612.54 531.74,-506.69 490.53,-457.72"/>
<polygon fill="black" stroke="black" points="492.99,-455.21 483.88,-449.82 487.64,-459.72 492.99,-455.21"/>
</g>
<!-- run_bclconvert_step&#45;&gt;fastq_directories -->
<g id="edge5" class="edge">
<title>run_bclconvert_step&#45;&gt;fastq_directories</title>
<path fill="none" stroke="black" d="M293.09,-654.42C281.19,-581.78 236.08,-306.57 221.54,-217.87"/>
<polygon fill="black" stroke="black" points="224.96,-217.08 219.89,-207.78 218.05,-218.21 224.96,-217.08"/>
</g>
<!-- run_bclconvert_step&#45;&gt;fastq_list_rows -->
<g id="edge6" class="edge">
<title>run_bclconvert_step&#45;&gt;fastq_list_rows</title>
<path fill="none" stroke="black" d="M298.54,-654.42C308.94,-581.78 348.33,-306.57 361.03,-217.87"/>
<polygon fill="black" stroke="black" points="364.52,-218.17 362.48,-207.78 357.59,-217.18 364.52,-218.17"/>
</g>
<!-- run_bclconvert_step&#45;&gt;samplesheets -->
<g id="edge7" class="edge">
<title>run_bclconvert_step&#45;&gt;samplesheets</title>
<path fill="none" stroke="black" d="M287.8,-654.42C254.09,-581.56 126.09,-304.89 85.46,-217.07"/>
<polygon fill="black" stroke="black" points="88.53,-215.38 81.16,-207.78 82.18,-218.32 88.53,-215.38"/>
</g>
<!-- run_bclconvert_step&#45;&gt;bclconvert_qc_step -->
<g id="edge4" class="edge">
<title>run_bclconvert_step&#45;&gt;bclconvert_qc_step</title>
<path fill="none" stroke="black" d="M308.72,-654.5C338.9,-612.63 414.95,-507.13 450.34,-458.03"/>
<polygon fill="black" stroke="black" points="453.25,-459.98 456.26,-449.82 447.57,-455.88 453.25,-459.98"/>
</g>
<!-- \n -->
<g id="node12" class="node">
<title>\n</title>
<ellipse fill="none" stroke="black" cx="1115" cy="-925.14" rx="27" ry="18"/>
</g>
</g>
</svg>
