<?xml version="1.0" encoding="UTF-8" standalone="no"?>
<!DOCTYPE svg PUBLIC "-//W3C//DTD SVG 1.1//EN"
 "http://www.w3.org/Graphics/SVG/1.1/DTD/svg11.dtd">
<!-- Generated by graphviz version 2.43.0 (0)
 -->
<!-- Title: G Pages: 1 -->
<svg width="3247pt" height="980pt"
 viewBox="0.00 0.00 3247.00 979.70" xmlns="http://www.w3.org/2000/svg" xmlns:xlink="http://www.w3.org/1999/xlink">
<g id="graph0" class="graph" transform="scale(1 1) rotate(0) translate(4 975.7)">
<title>G</title>
<polygon fill="#eeeeee" stroke="transparent" points="-4,4 -4,-975.7 3243,-975.7 3243,4 -4,4"/>
<g id="clust1" class="cluster">
<title>cluster_inputs</title>
<polygon fill="#eeeeee" stroke="black" stroke-dasharray="5,2" points="8,-711.97 8,-947.25 3175,-947.25 3175,-711.97 8,-711.97"/>
<text text-anchor="middle" x="3108.5" y="-719.77" font-family="Times,serif" font-size="14.00">Workflow Inputs</text>
</g>
<g id="clust2" class="cluster">
<title>cluster_outputs</title>
<polygon fill="#eeeeee" stroke="black" stroke-dasharray="5,2" points="543,-24.45 543,-259.73 1444,-259.73 1444,-24.45 543,-24.45"/>
<text text-anchor="middle" x="1371.5" y="-32.25" font-family="Times,serif" font-size="14.00">Workflow Outputs</text>
</g>
<!-- log_level -->
<g id="node1" class="node">
<title>log_level</title>
<polygon fill="#94ddf4" stroke="black" points="462.5,-845.95 462.5,-882.95 541.5,-882.95 541.5,-845.95 462.5,-845.95"/>
<text text-anchor="middle" x="502" y="-860.75" font-family="Times,serif" font-size="14.00">log_level</text>
</g>
<!-- calculate_coverage_step -->
<g id="node34" class="node">
<title>calculate_coverage_step</title>
<polygon fill="lightgoldenrodyellow" stroke="black" points="397.5,-610.95 397.5,-647.95 606.5,-647.95 606.5,-610.95 397.5,-610.95"/>
<text text-anchor="middle" x="502" y="-625.75" font-family="Times,serif" font-size="14.00">calculate&#45;coverage v(1.0.0)</text>
</g>
<!-- log_level&#45;&gt;calculate_coverage_step -->
<g id="edge7" class="edge">
<title>log_level&#45;&gt;calculate_coverage_step</title>
<path fill="none" stroke="black" d="M502,-845.93C502,-805.79 502,-706.86 502,-658.27"/>
<polygon fill="black" stroke="black" points="505.5,-658.16 502,-648.16 498.5,-658.16 505.5,-658.16"/>
</g>
<!-- map_quality -->
<g id="node2" class="node">
<title>map_quality</title>
<polygon fill="#94ddf4" stroke="black" points="340,-845.95 340,-882.95 444,-882.95 444,-845.95 340,-845.95"/>
<text text-anchor="middle" x="392" y="-860.75" font-family="Times,serif" font-size="14.00">map_quality</text>
</g>
<!-- map_quality&#45;&gt;calculate_coverage_step -->
<g id="edge8" class="edge">
<title>map_quality&#45;&gt;calculate_coverage_step</title>
<path fill="none" stroke="black" d="M400.27,-845.93C419.34,-805.54 466.52,-705.61 489.29,-657.36"/>
<polygon fill="black" stroke="black" points="492.53,-658.7 493.64,-648.16 486.2,-655.71 492.53,-658.7"/>
</g>
<!-- out_directory -->
<g id="node3" class="node">
<title>out_directory</title>
<polygon fill="#94ddf4" stroke="black" points="210,-845.95 210,-882.95 322,-882.95 322,-845.95 210,-845.95"/>
<text text-anchor="middle" x="266" y="-860.75" font-family="Times,serif" font-size="14.00">out_directory</text>
</g>
<!-- out_directory&#45;&gt;calculate_coverage_step -->
<g id="edge9" class="edge">
<title>out_directory&#45;&gt;calculate_coverage_step</title>
<path fill="none" stroke="black" d="M283.74,-845.93C325.25,-804.95 428.84,-702.67 476.85,-655.28"/>
<polygon fill="black" stroke="black" points="479.4,-657.68 484.06,-648.16 474.48,-652.7 479.4,-657.68"/>
</g>
<!-- output_json -->
<g id="node4" class="node">
<title>output_json</title>
<polygon fill="#94ddf4" stroke="black" points="92,-845.95 92,-882.95 192,-882.95 192,-845.95 92,-845.95"/>
<text text-anchor="middle" x="142" y="-860.75" font-family="Times,serif" font-size="14.00">output_json</text>
</g>
<!-- output_json&#45;&gt;calculate_coverage_step -->
<g id="edge10" class="edge">
<title>output_json&#45;&gt;calculate_coverage_step</title>
<path fill="none" stroke="black" d="M161.63,-845.92C172.85,-836.23 187.35,-824.21 201,-814.45 290.14,-750.69 401.71,-686.17 460.82,-653.1"/>
<polygon fill="black" stroke="black" points="462.81,-656 469.84,-648.07 459.4,-649.88 462.81,-656"/>
</g>
<!-- input_bam -->
<g id="node5" class="node">
<title>input_bam</title>
<polygon fill="#94ddf4" stroke="black" points="560,-845.95 560,-882.95 652,-882.95 652,-845.95 560,-845.95"/>
<text text-anchor="middle" x="606" y="-860.75" font-family="Times,serif" font-size="14.00">input_bam</text>
</g>
<!-- samtools_stats_step -->
<g id="node32" class="node">
<title>samtools_stats_step</title>
<polygon fill="lightgoldenrodyellow" stroke="black" points="1845,-610.95 1845,-647.95 2033,-647.95 2033,-610.95 1845,-610.95"/>
<text text-anchor="middle" x="1939" y="-625.75" font-family="Times,serif" font-size="14.00">samtools&#45;stats v(1.13.0)</text>
</g>
<!-- input_bam&#45;&gt;samtools_stats_step -->
<g id="edge11" class="edge">
<title>input_bam&#45;&gt;samtools_stats_step</title>
<path fill="none" stroke="black" d="M621.32,-845.59C631.67,-834.76 646.27,-821.68 662,-814.45 871.34,-718.19 1568.93,-657.81 1834.83,-637.81"/>
<polygon fill="black" stroke="black" points="1835.16,-641.29 1844.87,-637.06 1834.64,-634.31 1835.16,-641.29"/>
</g>
<!-- input_bam&#45;&gt;calculate_coverage_step -->
<g id="edge12" class="edge">
<title>input_bam&#45;&gt;calculate_coverage_step</title>
<path fill="none" stroke="black" d="M598.18,-845.93C580.15,-805.54 535.55,-705.61 514.01,-657.36"/>
<polygon fill="black" stroke="black" points="517.18,-655.87 509.91,-648.16 510.79,-658.72 517.18,-655.87"/>
</g>
<!-- script -->
<g id="node6" class="node">
<title>script</title>
<polygon fill="#94ddf4" stroke="black" points="16,-845.95 16,-882.95 74,-882.95 74,-845.95 16,-845.95"/>
<text text-anchor="middle" x="45" y="-860.75" font-family="Times,serif" font-size="14.00">script</text>
</g>
<!-- script&#45;&gt;calculate_coverage_step -->
<g id="edge13" class="edge">
<title>script&#45;&gt;calculate_coverage_step</title>
<path fill="none" stroke="black" d="M55.54,-845.78C62.34,-835.55 71.97,-823.05 83,-814.45 189.12,-731.67 338.26,-677.87 427.03,-650.95"/>
<polygon fill="black" stroke="black" points="428.17,-654.26 436.75,-648.03 426.16,-647.55 428.17,-654.26"/>
</g>
<!-- target_regions -->
<g id="node7" class="node">
<title>target_regions</title>
<polygon fill="#94ddf4" stroke="black" points="670.5,-845.95 670.5,-882.95 791.5,-882.95 791.5,-845.95 670.5,-845.95"/>
<text text-anchor="middle" x="731" y="-860.75" font-family="Times,serif" font-size="14.00">target_regions</text>
</g>
<!-- target_regions&#45;&gt;samtools_stats_step -->
<g id="edge14" class="edge">
<title>target_regions&#45;&gt;samtools_stats_step</title>
<path fill="none" stroke="black" d="M750.99,-845.76C764.27,-835 782.58,-821.92 801,-814.45 1160.95,-668.37 1629.27,-638.03 1834.7,-631.89"/>
<polygon fill="black" stroke="black" points="1834.98,-635.39 1844.88,-631.6 1834.78,-628.39 1834.98,-635.39"/>
</g>
<!-- target_regions&#45;&gt;calculate_coverage_step -->
<g id="edge15" class="edge">
<title>target_regions&#45;&gt;calculate_coverage_step</title>
<path fill="none" stroke="black" d="M713.79,-845.93C673.59,-805.03 573.4,-703.09 526.7,-655.57"/>
<polygon fill="black" stroke="black" points="528.92,-652.84 519.41,-648.16 523.93,-657.75 528.92,-652.84"/>
</g>
<!-- output_json_filename -->
<g id="node8" class="node">
<title>output_json_filename</title>
<polygon fill="#94ddf4" stroke="black" points="1056.5,-845.95 1056.5,-882.95 1223.5,-882.95 1223.5,-845.95 1056.5,-845.95"/>
<text text-anchor="middle" x="1140" y="-860.75" font-family="Times,serif" font-size="14.00">output_json_filename</text>
</g>
<!-- custom_stats_qc_step -->
<g id="node33" class="node">
<title>custom_stats_qc_step</title>
<polygon fill="lightgoldenrodyellow" stroke="black" points="883,-384.95 883,-421.95 1071,-421.95 1071,-384.95 883,-384.95"/>
<text text-anchor="middle" x="977" y="-399.75" font-family="Times,serif" font-size="14.00">custom&#45;stats&#45;qc v(1.0.1)</text>
</g>
<!-- output_json_filename&#45;&gt;custom_stats_qc_step -->
<g id="edge16" class="edge">
<title>output_json_filename&#45;&gt;custom_stats_qc_step</title>
<path fill="none" stroke="black" d="M1133.71,-845.73C1108.8,-775.6 1016.98,-517.03 986.73,-431.86"/>
<polygon fill="black" stroke="black" points="990,-430.6 983.36,-422.35 983.41,-432.95 990,-430.6"/>
</g>
<!-- sample_id -->
<g id="node9" class="node">
<title>sample_id</title>
<polygon fill="#94ddf4" stroke="black" points="810,-845.95 810,-882.95 898,-882.95 898,-845.95 810,-845.95"/>
<text text-anchor="middle" x="854" y="-860.75" font-family="Times,serif" font-size="14.00">sample_id</text>
</g>
<!-- sample_id&#45;&gt;custom_stats_qc_step -->
<g id="edge17" class="edge">
<title>sample_id&#45;&gt;custom_stats_qc_step</title>
<path fill="none" stroke="black" d="M858.75,-845.73C877.52,-775.67 946.69,-517.56 969.58,-432.12"/>
<polygon fill="black" stroke="black" points="972.99,-432.92 972.2,-422.35 966.23,-431.11 972.99,-432.92"/>
</g>
<!-- sample_source -->
<g id="node10" class="node">
<title>sample_source</title>
<polygon fill="#94ddf4" stroke="black" points="916,-845.95 916,-882.95 1038,-882.95 1038,-845.95 916,-845.95"/>
<text text-anchor="middle" x="977" y="-860.75" font-family="Times,serif" font-size="14.00">sample_source</text>
</g>
<!-- sample_source&#45;&gt;custom_stats_qc_step -->
<g id="edge18" class="edge">
<title>sample_source&#45;&gt;custom_stats_qc_step</title>
<path fill="none" stroke="black" d="M977,-845.73C977,-775.74 977,-518.08 977,-432.38"/>
<polygon fill="black" stroke="black" points="980.5,-432.35 977,-422.35 973.5,-432.35 980.5,-432.35"/>
</g>
<!-- cov_threshold -->
<g id="node11" class="node">
<title>cov_threshold</title>
<polygon fill="#94ddf4" stroke="black" points="2929,-845.95 2929,-882.95 3045,-882.95 3045,-845.95 2929,-845.95"/>
<text text-anchor="middle" x="2987" y="-860.75" font-family="Times,serif" font-size="14.00">cov_threshold</text>
</g>
<!-- cov_threshold&#45;&gt;samtools_stats_step -->
<g id="edge19" class="edge">
<title>cov_threshold&#45;&gt;samtools_stats_step</title>
<path fill="none" stroke="black" d="M2967.93,-845.89C2955.25,-835.18 2937.72,-822.11 2920,-814.45 2619.35,-684.34 2227.76,-646.05 2043.5,-634.92"/>
<polygon fill="black" stroke="black" points="2043.46,-631.41 2033.28,-634.32 2043.05,-638.4 2043.46,-631.41"/>
</g>
<!-- coverage -->
<g id="node12" class="node">
<title>coverage</title>
<polygon fill="#94ddf4" stroke="black" points="2829.5,-845.95 2829.5,-882.95 2910.5,-882.95 2910.5,-845.95 2829.5,-845.95"/>
<text text-anchor="middle" x="2870" y="-860.75" font-family="Times,serif" font-size="14.00">coverage</text>
</g>
<!-- coverage&#45;&gt;samtools_stats_step -->
<g id="edge20" class="edge">
<title>coverage&#45;&gt;samtools_stats_step</title>
<path fill="none" stroke="black" d="M2856.88,-845.89C2847.94,-835.18 2835.18,-822.11 2821,-814.45 2564.99,-676.07 2215.26,-641.64 2043.24,-633.16"/>
<polygon fill="black" stroke="black" points="2043.33,-629.66 2033.17,-632.68 2043,-636.65 2043.33,-629.66"/>
</g>
<!-- filtering_flag -->
<g id="node13" class="node">
<title>filtering_flag</title>
<polygon fill="#94ddf4" stroke="black" points="2704.5,-845.95 2704.5,-882.95 2811.5,-882.95 2811.5,-845.95 2704.5,-845.95"/>
<text text-anchor="middle" x="2758" y="-860.75" font-family="Times,serif" font-size="14.00">filtering_flag</text>
</g>
<!-- filtering_flag&#45;&gt;samtools_stats_step -->
<g id="edge21" class="edge">
<title>filtering_flag&#45;&gt;samtools_stats_step</title>
<path fill="none" stroke="black" d="M2740.17,-845.92C2728.5,-835.36 2712.4,-822.44 2696,-814.45 2477.93,-708.13 2193.79,-660.46 2043.24,-641.46"/>
<polygon fill="black" stroke="black" points="2043.43,-637.95 2033.08,-640.19 2042.57,-644.9 2043.43,-637.95"/>
</g>
<!-- gc_depth -->
<g id="node14" class="node">
<title>gc_depth</title>
<polygon fill="#94ddf4" stroke="black" points="2605.5,-845.95 2605.5,-882.95 2686.5,-882.95 2686.5,-845.95 2605.5,-845.95"/>
<text text-anchor="middle" x="2646" y="-860.75" font-family="Times,serif" font-size="14.00">gc_depth</text>
</g>
<!-- gc_depth&#45;&gt;samtools_stats_step -->
<g id="edge22" class="edge">
<title>gc_depth&#45;&gt;samtools_stats_step</title>
<path fill="none" stroke="black" d="M2632.3,-845.73C2623.31,-835.24 2610.71,-822.46 2597,-814.45 2418.67,-710.19 2178.48,-662.63 2043.11,-642.88"/>
<polygon fill="black" stroke="black" points="2043.54,-639.4 2033.14,-641.44 2042.54,-646.33 2043.54,-639.4"/>
</g>
<!-- insert_size -->
<g id="node15" class="node">
<title>insert_size</title>
<polygon fill="#94ddf4" stroke="black" points="2494.5,-845.95 2494.5,-882.95 2587.5,-882.95 2587.5,-845.95 2494.5,-845.95"/>
<text text-anchor="middle" x="2541" y="-860.75" font-family="Times,serif" font-size="14.00">insert_size</text>
</g>
<!-- insert_size&#45;&gt;samtools_stats_step -->
<g id="edge23" class="edge">
<title>insert_size&#45;&gt;samtools_stats_step</title>
<path fill="none" stroke="black" d="M2524.24,-845.6C2513.77,-835.32 2499.56,-822.82 2485,-814.45 2337.91,-729.85 2146.02,-676.58 2033.28,-650.26"/>
<polygon fill="black" stroke="black" points="2033.83,-646.79 2023.3,-647.95 2032.25,-653.61 2033.83,-646.79"/>
</g>
<!-- most_inserts -->
<g id="node16" class="node">
<title>most_inserts</title>
<polygon fill="#94ddf4" stroke="black" points="2368,-845.95 2368,-882.95 2476,-882.95 2476,-845.95 2368,-845.95"/>
<text text-anchor="middle" x="2422" y="-860.75" font-family="Times,serif" font-size="14.00">most_inserts</text>
</g>
<!-- most_inserts&#45;&gt;samtools_stats_step -->
<g id="edge24" class="edge">
<title>most_inserts&#45;&gt;samtools_stats_step</title>
<path fill="none" stroke="black" d="M2401.93,-845.75C2389.99,-835.77 2374.24,-823.52 2359,-814.45 2237.77,-742.27 2083.09,-681.84 1999.38,-651.49"/>
<polygon fill="black" stroke="black" points="2000.38,-648.12 1989.78,-648.02 1998,-654.71 2000.38,-648.12"/>
</g>
<!-- output_filename -->
<g id="node17" class="node">
<title>output_filename</title>
<polygon fill="#94ddf4" stroke="black" points="2218.5,-845.95 2218.5,-882.95 2349.5,-882.95 2349.5,-845.95 2218.5,-845.95"/>
<text text-anchor="middle" x="2284" y="-860.75" font-family="Times,serif" font-size="14.00">output_filename</text>
</g>
<!-- output_filename&#45;&gt;samtools_stats_step -->
<g id="edge25" class="edge">
<title>output_filename&#45;&gt;samtools_stats_step</title>
<path fill="none" stroke="black" d="M2258.07,-845.93C2196.76,-804.52 2042.82,-700.56 1973.63,-653.83"/>
<polygon fill="black" stroke="black" points="1975.48,-650.86 1965.23,-648.16 1971.56,-656.66 1975.48,-650.86"/>
</g>
<!-- read_length -->
<g id="node18" class="node">
<title>read_length</title>
<polygon fill="#94ddf4" stroke="black" points="2099.5,-845.95 2099.5,-882.95 2200.5,-882.95 2200.5,-845.95 2099.5,-845.95"/>
<text text-anchor="middle" x="2150" y="-860.75" font-family="Times,serif" font-size="14.00">read_length</text>
</g>
<!-- read_length&#45;&gt;samtools_stats_step -->
<g id="edge26" class="edge">
<title>read_length&#45;&gt;samtools_stats_step</title>
<path fill="none" stroke="black" d="M2134.14,-845.93C2097.18,-805.11 2005.17,-703.51 1962.02,-655.87"/>
<polygon fill="black" stroke="black" points="1964.35,-653.22 1955.04,-648.16 1959.16,-657.92 1964.35,-653.22"/>
</g>
<!-- ref_seq -->
<g id="node19" class="node">
<title>ref_seq</title>
<polygon fill="#94ddf4" stroke="black" points="2013,-845.95 2013,-882.95 2081,-882.95 2081,-845.95 2013,-845.95"/>
<text text-anchor="middle" x="2047" y="-860.75" font-family="Times,serif" font-size="14.00">ref_seq</text>
</g>
<!-- ref_seq&#45;&gt;samtools_stats_step -->
<g id="edge27" class="edge">
<title>ref_seq&#45;&gt;samtools_stats_step</title>
<path fill="none" stroke="black" d="M2038.88,-845.93C2020.16,-805.54 1973.84,-705.61 1951.48,-657.36"/>
<polygon fill="black" stroke="black" points="1954.59,-655.76 1947.21,-648.16 1948.24,-658.71 1954.59,-655.76"/>
</g>
<!-- remove_dups -->
<g id="node20" class="node">
<title>remove_dups</title>
<polygon fill="#94ddf4" stroke="black" points="1883.5,-845.95 1883.5,-882.95 1994.5,-882.95 1994.5,-845.95 1883.5,-845.95"/>
<text text-anchor="middle" x="1939" y="-860.75" font-family="Times,serif" font-size="14.00">remove_dups</text>
</g>
<!-- remove_dups&#45;&gt;samtools_stats_step -->
<g id="edge28" class="edge">
<title>remove_dups&#45;&gt;samtools_stats_step</title>
<path fill="none" stroke="black" d="M1939,-845.93C1939,-805.79 1939,-706.86 1939,-658.27"/>
<polygon fill="black" stroke="black" points="1942.5,-658.16 1939,-648.16 1935.5,-658.16 1942.5,-658.16"/>
</g>
<!-- remove_overlaps -->
<g id="node21" class="node">
<title>remove_overlaps</title>
<polygon fill="#94ddf4" stroke="black" points="1728.5,-845.95 1728.5,-882.95 1865.5,-882.95 1865.5,-845.95 1728.5,-845.95"/>
<text text-anchor="middle" x="1797" y="-860.75" font-family="Times,serif" font-size="14.00">remove_overlaps</text>
</g>
<!-- remove_overlaps&#45;&gt;samtools_stats_step -->
<g id="edge29" class="edge">
<title>remove_overlaps&#45;&gt;samtools_stats_step</title>
<path fill="none" stroke="black" d="M1807.67,-845.93C1832.4,-805.37 1893.7,-704.77 1922.96,-656.76"/>
<polygon fill="black" stroke="black" points="1925.99,-658.52 1928.2,-648.16 1920.01,-654.88 1925.99,-658.52"/>
</g>
<!-- required_flag -->
<g id="node22" class="node">
<title>required_flag</title>
<polygon fill="#94ddf4" stroke="black" points="1599.5,-845.95 1599.5,-882.95 1710.5,-882.95 1710.5,-845.95 1599.5,-845.95"/>
<text text-anchor="middle" x="1655" y="-860.75" font-family="Times,serif" font-size="14.00">required_flag</text>
</g>
<!-- required_flag&#45;&gt;samtools_stats_step -->
<g id="edge30" class="edge">
<title>required_flag&#45;&gt;samtools_stats_step</title>
<path fill="none" stroke="black" d="M1676.35,-845.93C1726.51,-804.78 1851.99,-701.83 1909.44,-654.7"/>
<polygon fill="black" stroke="black" points="1911.9,-657.21 1917.41,-648.16 1907.46,-651.8 1911.9,-657.21"/>
</g>
<!-- sparse -->
<g id="node23" class="node">
<title>sparse</title>
<polygon fill="#94ddf4" stroke="black" points="1517,-845.95 1517,-882.95 1581,-882.95 1581,-845.95 1517,-845.95"/>
<text text-anchor="middle" x="1549" y="-860.75" font-family="Times,serif" font-size="14.00">sparse</text>
</g>
<!-- sparse&#45;&gt;samtools_stats_step -->
<g id="edge31" class="edge">
<title>sparse&#45;&gt;samtools_stats_step</title>
<path fill="none" stroke="black" d="M1561.6,-845.66C1569.3,-835.65 1579.8,-823.4 1591,-814.45 1684.24,-739.92 1812.24,-681.44 1884.17,-651.8"/>
<polygon fill="black" stroke="black" points="1885.57,-655 1893.51,-647.98 1882.93,-648.52 1885.57,-655"/>
</g>
<!-- split -->
<g id="node24" class="node">
<title>split</title>
<polygon fill="#94ddf4" stroke="black" points="1445,-845.95 1445,-882.95 1499,-882.95 1499,-845.95 1445,-845.95"/>
<text text-anchor="middle" x="1472" y="-860.75" font-family="Times,serif" font-size="14.00">split</text>
</g>
<!-- split&#45;&gt;samtools_stats_step -->
<g id="edge32" class="edge">
<title>split&#45;&gt;samtools_stats_step</title>
<path fill="none" stroke="black" d="M1481.76,-845.72C1488.13,-835.47 1497.25,-822.97 1508,-814.45 1614.88,-729.71 1766.6,-677.05 1858.61,-650.79"/>
<polygon fill="black" stroke="black" points="1859.75,-654.11 1868.42,-648.03 1857.85,-647.37 1859.75,-654.11"/>
</g>
<!-- split_prefix -->
<g id="node25" class="node">
<title>split_prefix</title>
<polygon fill="#94ddf4" stroke="black" points="1331,-845.95 1331,-882.95 1427,-882.95 1427,-845.95 1331,-845.95"/>
<text text-anchor="middle" x="1379" y="-860.75" font-family="Times,serif" font-size="14.00">split_prefix</text>
</g>
<!-- split_prefix&#45;&gt;samtools_stats_step -->
<g id="edge33" class="edge">
<title>split_prefix&#45;&gt;samtools_stats_step</title>
<path fill="none" stroke="black" d="M1396.2,-845.76C1406.9,-835.53 1421.37,-823.03 1436,-814.45 1574.31,-733.33 1754.51,-678.01 1857.42,-650.53"/>
<polygon fill="black" stroke="black" points="1858.36,-653.91 1867.13,-647.96 1856.57,-647.14 1858.36,-653.91"/>
</g>
<!-- threads -->
<g id="node26" class="node">
<title>threads</title>
<polygon fill="#94ddf4" stroke="black" points="1241.5,-845.95 1241.5,-882.95 1312.5,-882.95 1312.5,-845.95 1241.5,-845.95"/>
<text text-anchor="middle" x="1277" y="-860.75" font-family="Times,serif" font-size="14.00">threads</text>
</g>
<!-- threads&#45;&gt;samtools_stats_step -->
<g id="edge34" class="edge">
<title>threads&#45;&gt;samtools_stats_step</title>
<path fill="none" stroke="black" d="M1289.35,-845.78C1297.51,-835.3 1309.07,-822.53 1322,-814.45 1484.4,-712.88 1705.84,-664.84 1834.52,-644.18"/>
<polygon fill="black" stroke="black" points="1835.43,-647.58 1844.76,-642.56 1834.34,-640.66 1835.43,-647.58"/>
</g>
<!-- trim_quality -->
<g id="node27" class="node">
<title>trim_quality</title>
<polygon fill="#94ddf4" stroke="black" points="3063,-845.95 3063,-882.95 3167,-882.95 3167,-845.95 3063,-845.95"/>
<text text-anchor="middle" x="3115" y="-860.75" font-family="Times,serif" font-size="14.00">trim_quality</text>
</g>
<!-- trim_quality&#45;&gt;samtools_stats_step -->
<g id="edge35" class="edge">
<title>trim_quality&#45;&gt;samtools_stats_step</title>
<path fill="none" stroke="black" d="M3097.97,-845.73C3086.55,-834.95 3070.62,-821.87 3054,-814.45 2706.97,-659.41 2246.64,-633.65 2043.22,-630.29"/>
<polygon fill="black" stroke="black" points="2043.19,-626.79 2033.14,-630.14 2043.09,-633.79 2043.19,-626.79"/>
</g>
<!-- custom_stats_qc_combined_json -->
<g id="node28" class="node">
<title>custom_stats_qc_combined_json</title>
<polygon fill="#94ddf4" stroke="black" points="727.5,-158.95 727.5,-195.95 972.5,-195.95 972.5,-158.95 727.5,-158.95"/>
<text text-anchor="middle" x="850" y="-173.75" font-family="Times,serif" font-size="14.00">custom_stats_qc_combined_json</text>
</g>
<!-- custom_stats_qc_output_json -->
<g id="node29" class="node">
<title>custom_stats_qc_output_json</title>
<polygon fill="#94ddf4" stroke="black" points="991,-158.95 991,-195.95 1215,-195.95 1215,-158.95 991,-158.95"/>
<text text-anchor="middle" x="1103" y="-173.75" font-family="Times,serif" font-size="14.00">custom_stats_qc_output_json</text>
</g>
<!-- precise_output_json -->
<g id="node30" class="node">
<title>precise_output_json</title>
<polygon fill="#94ddf4" stroke="black" points="551,-158.95 551,-195.95 709,-195.95 709,-158.95 551,-158.95"/>
<text text-anchor="middle" x="630" y="-173.75" font-family="Times,serif" font-size="14.00">precise_output_json</text>
</g>
<!-- samtools_stats_output_txt -->
<g id="node31" class="node">
<title>samtools_stats_output_txt</title>
<polygon fill="#94ddf4" stroke="black" points="1233.5,-158.95 1233.5,-195.95 1436.5,-195.95 1436.5,-158.95 1233.5,-158.95"/>
<text text-anchor="middle" x="1335" y="-173.75" font-family="Times,serif" font-size="14.00">samtools_stats_output_txt</text>
</g>
<!-- samtools_stats_step&#45;&gt;samtools_stats_output_txt -->
<g id="edge2" class="edge">
<title>samtools_stats_step&#45;&gt;samtools_stats_output_txt</title>
<path fill="none" stroke="black" d="M1915.32,-610.8C1821.25,-540.72 1473.84,-281.88 1366.68,-202.05"/>
<polygon fill="black" stroke="black" points="1368.62,-199.13 1358.51,-195.96 1364.44,-204.75 1368.62,-199.13"/>
</g>
<!-- samtools_stats_step&#45;&gt;custom_stats_qc_step -->
<g id="edge1" class="edge">
<title>samtools_stats_step&#45;&gt;custom_stats_qc_step</title>
<path fill="none" stroke="black" d="M1863.51,-610.87C1687.04,-569.78 1248.4,-467.64 1062.47,-424.35"/>
<polygon fill="black" stroke="black" points="1063,-420.88 1052.47,-422.02 1061.41,-427.69 1063,-420.88"/>
</g>
<!-- custom_stats_qc_step&#45;&gt;custom_stats_qc_combined_json -->
<g id="edge3" class="edge">
<title>custom_stats_qc_step&#45;&gt;custom_stats_qc_combined_json</title>
<path fill="none" stroke="black" d="M967.03,-384.87C944.88,-345.79 891.42,-251.5 865.12,-205.12"/>
<polygon fill="black" stroke="black" points="868.07,-203.22 860.09,-196.25 861.98,-206.68 868.07,-203.22"/>
</g>
<!-- custom_stats_qc_step&#45;&gt;custom_stats_qc_output_json -->
<g id="edge4" class="edge">
<title>custom_stats_qc_step&#45;&gt;custom_stats_qc_output_json</title>
<path fill="none" stroke="black" d="M986.89,-384.87C1008.87,-345.79 1061.9,-251.5 1087.99,-205.12"/>
<polygon fill="black" stroke="black" points="1091.13,-206.68 1092.98,-196.25 1085.03,-203.25 1091.13,-206.68"/>
</g>
<!-- calculate_coverage_step&#45;&gt;precise_output_json -->
<g id="edge6" class="edge">
<title>calculate_coverage_step&#45;&gt;precise_output_json</title>
<path fill="none" stroke="black" d="M507.02,-610.8C526.65,-541.77 598.37,-289.63 622.23,-205.77"/>
<polygon fill="black" stroke="black" points="625.65,-206.54 625.02,-195.96 618.91,-204.62 625.65,-206.54"/>
</g>
<!-- calculate_coverage_step&#45;&gt;custom_stats_qc_step -->
<g id="edge5" class="edge">
<title>calculate_coverage_step&#45;&gt;custom_stats_qc_step</title>
<path fill="none" stroke="black" d="M539.27,-610.87C625.01,-570.44 836.09,-470.9 930.29,-426.47"/>
<polygon fill="black" stroke="black" points="932.02,-429.53 939.57,-422.1 929.04,-423.19 932.02,-429.53"/>
</g>
<!-- \n -->
<g id="node35" class="node">
<title>\n</title>
<ellipse fill="none" stroke="black" cx="3212" cy="-864.45" rx="27" ry="18"/>
</g>
</g>
</svg>
