<?xml version="1.0" encoding="UTF-8" standalone="no"?>
<!DOCTYPE svg PUBLIC "-//W3C//DTD SVG 1.1//EN"
 "http://www.w3.org/Graphics/SVG/1.1/DTD/svg11.dtd">
<!-- Generated by graphviz version 2.43.0 (0)
 -->
<!-- Title: G Pages: 1 -->
<svg width="7480pt" height="1891pt"
 viewBox="0.00 0.00 7480.00 1890.94" xmlns="http://www.w3.org/2000/svg" xmlns:xlink="http://www.w3.org/1999/xlink">
<g id="graph0" class="graph" transform="scale(1 1) rotate(0) translate(4 1886.94)">
<title>G</title>
<polygon fill="#eeeeee" stroke="transparent" points="-4,4 -4,-1886.94 7476,-1886.94 7476,4 -4,4"/>
<g id="clust1" class="cluster">
<title>cluster_inputs</title>
<polygon fill="#eeeeee" stroke="black" stroke-dasharray="5,2" points="8,-1379.64 8,-1835.57 7408,-1835.57 7408,-1379.64 8,-1379.64"/>
<text text-anchor="middle" x="7341.5" y="-1387.44" font-family="Times,serif" font-size="14.00">Workflow Inputs</text>
</g>
<g id="clust2" class="cluster">
<title>cluster_outputs</title>
<polygon fill="#eeeeee" stroke="black" stroke-dasharray="5,2" points="3099,-47.37 3099,-503.3 3755,-503.3 3755,-47.37 3099,-47.37"/>
<text text-anchor="middle" x="3682.5" y="-55.17" font-family="Times,serif" font-size="14.00">Workflow Outputs</text>
</g>
<!-- output_file_prefix -->
<g id="node1" class="node">
<title>output_file_prefix</title>
<polygon fill="#94ddf4" stroke="black" points="16,-1656.87 16,-1693.87 156,-1693.87 156,-1656.87 16,-1656.87"/>
<text text-anchor="middle" x="86" y="-1671.67" font-family="Times,serif" font-size="14.00">output_file_prefix</text>
</g>
<!-- dragen_qc_step -->
<g id="node58" class="node">
<title>dragen_qc_step</title>
<polygon fill="lightgoldenrodyellow" stroke="black" points="16.5,-762.87 16.5,-799.87 155.5,-799.87 155.5,-762.87 16.5,-762.87"/>
<text text-anchor="middle" x="86" y="-777.67" font-family="Times,serif" font-size="14.00">multiqc v(1.14.0)</text>
</g>
<!-- output_file_prefix&#45;&gt;dragen_qc_step -->
<g id="edge6" class="edge">
<title>output_file_prefix&#45;&gt;dragen_qc_step</title>
<path fill="none" stroke="black" d="M81.85,-1656.55C69.71,-1545.38 69.39,-947.29 80.88,-810.32"/>
<polygon fill="black" stroke="black" points="84.38,-810.52 81.84,-800.23 77.41,-809.85 84.38,-810.52"/>
</g>
<!-- output_file_prefix&#45;&gt;dragen_qc_step -->
<g id="edge7" class="edge">
<title>output_file_prefix&#45;&gt;dragen_qc_step</title>
<path fill="none" stroke="black" d="M86,-1656.55C86,-1545.38 86,-947.29 86,-810.32"/>
<polygon fill="black" stroke="black" points="89.5,-810.23 86,-800.23 82.5,-810.23 89.5,-810.23"/>
</g>
<!-- output_file_prefix&#45;&gt;dragen_qc_step -->
<g id="edge8" class="edge">
<title>output_file_prefix&#45;&gt;dragen_qc_step</title>
<path fill="none" stroke="black" d="M90.15,-1656.55C102.29,-1545.38 102.61,-947.29 91.12,-810.32"/>
<polygon fill="black" stroke="black" points="94.59,-809.85 90.16,-800.23 87.62,-810.52 94.59,-809.85"/>
</g>
<!-- run_dragen_alignment_step -->
<g id="node59" class="node">
<title>run_dragen_alignment_step</title>
<polygon fill="lightgoldenrodyellow" stroke="black" points="3578.5,-1200.87 3578.5,-1237.87 3781.5,-1237.87 3781.5,-1200.87 3578.5,-1200.87"/>
<text text-anchor="middle" x="3680" y="-1215.67" font-family="Times,serif" font-size="14.00">dragen&#45;alignment v(4.0.3)</text>
</g>
<!-- output_file_prefix&#45;&gt;run_dragen_alignment_step -->
<g id="edge9" class="edge">
<title>output_file_prefix&#45;&gt;run_dragen_alignment_step</title>
<path fill="none" stroke="black" d="M108.79,-1656.68C124.1,-1645.77 145.21,-1632.54 166,-1625.37 819.67,-1399.9 3042.47,-1257.71 3567.98,-1226.76"/>
<polygon fill="black" stroke="black" points="3568.44,-1230.24 3578.22,-1226.16 3568.03,-1223.25 3568.44,-1230.24"/>
</g>
<!-- aln_min_score -->
<g id="node2" class="node">
<title>aln_min_score</title>
<polygon fill="#94ddf4" stroke="black" points="7191.5,-1656.87 7191.5,-1693.87 7308.5,-1693.87 7308.5,-1656.87 7191.5,-1656.87"/>
<text text-anchor="middle" x="7250" y="-1671.67" font-family="Times,serif" font-size="14.00">aln_min_score</text>
</g>
<!-- aln_min_score&#45;&gt;run_dragen_alignment_step -->
<g id="edge10" class="edge">
<title>aln_min_score&#45;&gt;run_dragen_alignment_step</title>
<path fill="none" stroke="black" d="M7231.06,-1656.64C7218.22,-1645.71 7200.32,-1632.47 7182,-1625.37 6539.44,-1376.31 4317.49,-1252.04 3792.02,-1225.73"/>
<polygon fill="black" stroke="black" points="3791.95,-1222.23 3781.79,-1225.22 3791.6,-1229.22 3791.95,-1222.23"/>
</g>
<!-- alt_aware -->
<g id="node3" class="node">
<title>alt_aware</title>
<polygon fill="#94ddf4" stroke="black" points="7087,-1656.87 7087,-1693.87 7173,-1693.87 7173,-1656.87 7087,-1656.87"/>
<text text-anchor="middle" x="7130" y="-1671.67" font-family="Times,serif" font-size="14.00">alt_aware</text>
</g>
<!-- alt_aware&#45;&gt;run_dragen_alignment_step -->
<g id="edge11" class="edge">
<title>alt_aware&#45;&gt;run_dragen_alignment_step</title>
<path fill="none" stroke="black" d="M7116.09,-1656.39C7106.6,-1645.5 7093.06,-1632.41 7078,-1625.37 6472.8,-1342.55 4308.73,-1244.09 3791.58,-1224.33"/>
<polygon fill="black" stroke="black" points="3791.63,-1220.83 3781.51,-1223.95 3791.37,-1227.82 3791.63,-1220.83"/>
</g>
<!-- ann_sj_max_indel -->
<g id="node4" class="node">
<title>ann_sj_max_indel</title>
<polygon fill="#94ddf4" stroke="black" points="6929,-1656.87 6929,-1693.87 7069,-1693.87 7069,-1656.87 6929,-1656.87"/>
<text text-anchor="middle" x="6999" y="-1671.67" font-family="Times,serif" font-size="14.00">ann_sj_max_indel</text>
</g>
<!-- ann_sj_max_indel&#45;&gt;run_dragen_alignment_step -->
<g id="edge12" class="edge">
<title>ann_sj_max_indel&#45;&gt;run_dragen_alignment_step</title>
<path fill="none" stroke="black" d="M6976.5,-1656.74C6961.39,-1645.86 6940.54,-1632.63 6920,-1625.37 6321.67,-1413.88 4291.6,-1262.53 3791.85,-1227.9"/>
<polygon fill="black" stroke="black" points="3791.97,-1224.4 3781.75,-1227.2 3791.49,-1231.38 3791.97,-1224.4"/>
</g>
<!-- dedup_min_qual -->
<g id="node5" class="node">
<title>dedup_min_qual</title>
<polygon fill="#94ddf4" stroke="black" points="6779,-1656.87 6779,-1693.87 6911,-1693.87 6911,-1656.87 6779,-1656.87"/>
<text text-anchor="middle" x="6845" y="-1671.67" font-family="Times,serif" font-size="14.00">dedup_min_qual</text>
</g>
<!-- dedup_min_qual&#45;&gt;run_dragen_alignment_step -->
<g id="edge13" class="edge">
<title>dedup_min_qual&#45;&gt;run_dragen_alignment_step</title>
<path fill="none" stroke="black" d="M6823.77,-1656.76C6809.47,-1645.89 6789.69,-1632.66 6770,-1625.37 6204,-1415.86 4277.77,-1263.93 3791.96,-1228.34"/>
<polygon fill="black" stroke="black" points="3792.02,-1224.83 3781.79,-1227.59 3791.51,-1231.81 3792.02,-1224.83"/>
</g>
<!-- edit_chain_limit -->
<g id="node6" class="node">
<title>edit_chain_limit</title>
<polygon fill="#94ddf4" stroke="black" points="6631.5,-1656.87 6631.5,-1693.87 6760.5,-1693.87 6760.5,-1656.87 6631.5,-1656.87"/>
<text text-anchor="middle" x="6696" y="-1671.67" font-family="Times,serif" font-size="14.00">edit_chain_limit</text>
</g>
<!-- edit_chain_limit&#45;&gt;run_dragen_alignment_step -->
<g id="edge14" class="edge">
<title>edit_chain_limit&#45;&gt;run_dragen_alignment_step</title>
<path fill="none" stroke="black" d="M6675.08,-1656.8C6660.98,-1645.94 6641.46,-1632.71 6622,-1625.37 6085.99,-1423.1 4263.49,-1266.8 3792.06,-1229.09"/>
<polygon fill="black" stroke="black" points="3792.1,-1225.58 3781.85,-1228.28 3791.54,-1232.56 3792.1,-1225.58"/>
</g>
<!-- edit_mode -->
<g id="node7" class="node">
<title>edit_mode</title>
<polygon fill="#94ddf4" stroke="black" points="6523,-1656.87 6523,-1693.87 6613,-1693.87 6613,-1656.87 6523,-1656.87"/>
<text text-anchor="middle" x="6568" y="-1671.67" font-family="Times,serif" font-size="14.00">edit_mode</text>
</g>
<!-- edit_mode&#45;&gt;run_dragen_alignment_step -->
<g id="edge15" class="edge">
<title>edit_mode&#45;&gt;run_dragen_alignment_step</title>
<path fill="none" stroke="black" d="M6553.36,-1656.51C6543.43,-1645.67 6529.35,-1632.59 6514,-1625.37 6015.17,-1390.89 4253.33,-1258.7 3791.51,-1227.57"/>
<polygon fill="black" stroke="black" points="3791.71,-1224.07 3781.5,-1226.9 3791.24,-1231.06 3791.71,-1224.07"/>
</g>
<!-- edit_read_len -->
<g id="node8" class="node">
<title>edit_read_len</title>
<polygon fill="#94ddf4" stroke="black" points="6393,-1656.87 6393,-1693.87 6505,-1693.87 6505,-1656.87 6393,-1656.87"/>
<text text-anchor="middle" x="6449" y="-1671.67" font-family="Times,serif" font-size="14.00">edit_read_len</text>
</g>
<!-- edit_read_len&#45;&gt;run_dragen_alignment_step -->
<g id="edge16" class="edge">
<title>edit_read_len&#45;&gt;run_dragen_alignment_step</title>
<path fill="none" stroke="black" d="M6430.95,-1656.83C6418.71,-1645.97 6401.59,-1632.75 6384,-1625.37 5900.74,-1422.58 4239.35,-1268.3 3791.8,-1229.73"/>
<polygon fill="black" stroke="black" points="3792.04,-1226.23 3781.78,-1228.86 3791.44,-1233.21 3792.04,-1226.23"/>
</g>
<!-- edit_seed_num -->
<g id="node9" class="node">
<title>edit_seed_num</title>
<polygon fill="#94ddf4" stroke="black" points="6253,-1656.87 6253,-1693.87 6375,-1693.87 6375,-1656.87 6253,-1656.87"/>
<text text-anchor="middle" x="6314" y="-1671.67" font-family="Times,serif" font-size="14.00">edit_seed_num</text>
</g>
<!-- edit_seed_num&#45;&gt;run_dragen_alignment_step -->
<g id="edge17" class="edge">
<title>edit_seed_num&#45;&gt;run_dragen_alignment_step</title>
<path fill="none" stroke="black" d="M6294.02,-1656.66C6280.75,-1645.89 6262.43,-1632.81 6244,-1625.37 5349.21,-1264.14 4157.53,-1223.85 3791.57,-1220.34"/>
<polygon fill="black" stroke="black" points="3791.54,-1216.84 3781.51,-1220.25 3791.47,-1223.84 3791.54,-1216.84"/>
</g>
<!-- en_alt_hap_aln -->
<g id="node10" class="node">
<title>en_alt_hap_aln</title>
<polygon fill="#94ddf4" stroke="black" points="6113.5,-1656.87 6113.5,-1693.87 6234.5,-1693.87 6234.5,-1656.87 6113.5,-1656.87"/>
<text text-anchor="middle" x="6174" y="-1671.67" font-family="Times,serif" font-size="14.00">en_alt_hap_aln</text>
</g>
<!-- en_alt_hap_aln&#45;&gt;run_dragen_alignment_step -->
<g id="edge18" class="edge">
<title>en_alt_hap_aln&#45;&gt;run_dragen_alignment_step</title>
<path fill="none" stroke="black" d="M6154.32,-1656.71C6141.25,-1645.96 6123.2,-1632.88 6105,-1625.37 5265.26,-1278.72 4145.62,-1228.53 3791.94,-1221.46"/>
<polygon fill="black" stroke="black" points="3791.77,-1217.96 3781.7,-1221.27 3791.63,-1224.96 3791.77,-1217.96"/>
</g>
<!-- en_chimeric_aln -->
<g id="node11" class="node">
<title>en_chimeric_aln</title>
<polygon fill="#94ddf4" stroke="black" points="5964.5,-1656.87 5964.5,-1693.87 6095.5,-1693.87 6095.5,-1656.87 5964.5,-1656.87"/>
<text text-anchor="middle" x="6030" y="-1671.67" font-family="Times,serif" font-size="14.00">en_chimeric_aln</text>
</g>
<!-- en_chimeric_aln&#45;&gt;run_dragen_alignment_step -->
<g id="edge19" class="edge">
<title>en_chimeric_aln&#45;&gt;run_dragen_alignment_step</title>
<path fill="none" stroke="black" d="M6008.66,-1656.82C5994.55,-1646.1 5975.17,-1633.04 5956,-1625.37 5168.37,-1310.33 4129.84,-1239.43 3791.62,-1224.28"/>
<polygon fill="black" stroke="black" points="3791.72,-1220.78 3781.58,-1223.84 3791.41,-1227.78 3791.72,-1220.78"/>
</g>
<!-- enable_duplicate_marking -->
<g id="node12" class="node">
<title>enable_duplicate_marking</title>
<polygon fill="#94ddf4" stroke="black" points="5743.5,-1656.87 5743.5,-1693.87 5946.5,-1693.87 5946.5,-1656.87 5743.5,-1656.87"/>
<text text-anchor="middle" x="5845" y="-1671.67" font-family="Times,serif" font-size="14.00">enable_duplicate_marking</text>
</g>
<!-- enable_duplicate_marking&#45;&gt;run_dragen_alignment_step -->
<g id="edge20" class="edge">
<title>enable_duplicate_marking&#45;&gt;run_dragen_alignment_step</title>
<path fill="none" stroke="black" d="M5810.61,-1656.65C5789.3,-1646.28 5761.11,-1633.64 5735,-1625.37 5012.5,-1396.46 4104.29,-1271.83 3791.68,-1233.42"/>
<polygon fill="black" stroke="black" points="3792.06,-1229.94 3781.71,-1232.19 3791.21,-1236.88 3792.06,-1229.94"/>
</g>
<!-- enable_map_align -->
<g id="node13" class="node">
<title>enable_map_align</title>
<polygon fill="#94ddf4" stroke="black" points="5582.5,-1656.87 5582.5,-1693.87 5725.5,-1693.87 5725.5,-1656.87 5582.5,-1656.87"/>
<text text-anchor="middle" x="5654" y="-1671.67" font-family="Times,serif" font-size="14.00">enable_map_align</text>
</g>
<!-- enable_map_align&#45;&gt;run_dragen_alignment_step -->
<g id="edge21" class="edge">
<title>enable_map_align&#45;&gt;run_dragen_alignment_step</title>
<path fill="none" stroke="black" d="M5629.93,-1656.63C5614.61,-1646.12 5593.96,-1633.35 5574,-1625.37 4928.34,-1367.4 4090.03,-1261.94 3791.53,-1230.92"/>
<polygon fill="black" stroke="black" points="3791.88,-1227.44 3781.57,-1229.89 3791.16,-1234.4 3791.88,-1227.44"/>
</g>
<!-- enable_sort -->
<g id="node14" class="node">
<title>enable_sort</title>
<polygon fill="#94ddf4" stroke="black" points="5465.5,-1656.87 5465.5,-1693.87 5564.5,-1693.87 5564.5,-1656.87 5465.5,-1656.87"/>
<text text-anchor="middle" x="5515" y="-1671.67" font-family="Times,serif" font-size="14.00">enable_sort</text>
</g>
<!-- enable_sort&#45;&gt;run_dragen_alignment_step -->
<g id="edge22" class="edge">
<title>enable_sort&#45;&gt;run_dragen_alignment_step</title>
<path fill="none" stroke="black" d="M5497.97,-1656.49C5486.95,-1645.94 5471.76,-1633.15 5456,-1625.37 4873.09,-1337.56 4081.19,-1250.83 3791.77,-1227.82"/>
<polygon fill="black" stroke="black" points="3791.93,-1224.32 3781.69,-1227.03 3791.39,-1231.3 3791.93,-1224.32"/>
</g>
<!-- fastq_list -->
<g id="node15" class="node">
<title>fastq_list</title>
<polygon fill="#94ddf4" stroke="black" points="5365,-1656.87 5365,-1693.87 5447,-1693.87 5447,-1656.87 5365,-1656.87"/>
<text text-anchor="middle" x="5406" y="-1671.67" font-family="Times,serif" font-size="14.00">fastq_list</text>
</g>
<!-- fastq_list&#45;&gt;run_dragen_alignment_step -->
<g id="edge23" class="edge">
<title>fastq_list&#45;&gt;run_dragen_alignment_step</title>
<path fill="none" stroke="black" d="M5392.05,-1656.49C5382.89,-1645.93 5370.03,-1633.15 5356,-1625.37 4821,-1328.78 4072.19,-1247.63 3791.81,-1226.96"/>
<polygon fill="black" stroke="black" points="3791.86,-1223.45 3781.63,-1226.22 3791.35,-1230.43 3791.86,-1223.45"/>
</g>
<!-- fastq_list_rows -->
<g id="node16" class="node">
<title>fastq_list_rows</title>
<polygon fill="#94ddf4" stroke="black" points="5223.5,-1656.87 5223.5,-1693.87 5346.5,-1693.87 5346.5,-1656.87 5223.5,-1656.87"/>
<text text-anchor="middle" x="5285" y="-1671.67" font-family="Times,serif" font-size="14.00">fastq_list_rows</text>
</g>
<!-- fastq_list_rows&#45;&gt;run_dragen_alignment_step -->
<g id="edge24" class="edge">
<title>fastq_list_rows&#45;&gt;run_dragen_alignment_step</title>
<path fill="none" stroke="black" d="M5264.14,-1656.82C5250.82,-1646.38 5232.76,-1633.61 5215,-1625.37 4711.99,-1392.03 4051.55,-1275.31 3791.8,-1236.03"/>
<polygon fill="black" stroke="black" points="3792.01,-1232.52 3781.6,-1234.49 3790.97,-1239.44 3792.01,-1232.52"/>
</g>
<!-- gap_ext_pen -->
<g id="node17" class="node">
<title>gap_ext_pen</title>
<polygon fill="#94ddf4" stroke="black" points="5100.5,-1656.87 5100.5,-1693.87 5205.5,-1693.87 5205.5,-1656.87 5100.5,-1656.87"/>
<text text-anchor="middle" x="5153" y="-1671.67" font-family="Times,serif" font-size="14.00">gap_ext_pen</text>
</g>
<!-- gap_ext_pen&#45;&gt;run_dragen_alignment_step -->
<g id="edge25" class="edge">
<title>gap_ext_pen&#45;&gt;run_dragen_alignment_step</title>
<path fill="none" stroke="black" d="M5135.14,-1656.82C5123.64,-1646.39 5107.92,-1633.62 5092,-1625.37 4641.41,-1391.91 4038.17,-1276.69 3791.84,-1236.95"/>
<polygon fill="black" stroke="black" points="3792.24,-1233.46 3781.81,-1235.34 3791.13,-1240.38 3792.24,-1233.46"/>
</g>
<!-- gap_open_pen -->
<g id="node18" class="node">
<title>gap_open_pen</title>
<polygon fill="#94ddf4" stroke="black" points="4965.5,-1656.87 4965.5,-1693.87 5082.5,-1693.87 5082.5,-1656.87 4965.5,-1656.87"/>
<text text-anchor="middle" x="5024" y="-1671.67" font-family="Times,serif" font-size="14.00">gap_open_pen</text>
</g>
<!-- gap_open_pen&#45;&gt;run_dragen_alignment_step -->
<g id="edge26" class="edge">
<title>gap_open_pen&#45;&gt;run_dragen_alignment_step</title>
<path fill="none" stroke="black" d="M5003.72,-1656.84C4990.99,-1646.54 4973.84,-1633.91 4957,-1625.37 4542.53,-1415.2 3997.14,-1286.39 3777.67,-1239.97"/>
<polygon fill="black" stroke="black" points="3778.29,-1236.52 3767.79,-1237.88 3776.85,-1243.37 3778.29,-1236.52"/>
</g>
<!-- generate_md_tags -->
<g id="node19" class="node">
<title>generate_md_tags</title>
<polygon fill="#94ddf4" stroke="black" points="4800.5,-1656.87 4800.5,-1693.87 4947.5,-1693.87 4947.5,-1656.87 4800.5,-1656.87"/>
<text text-anchor="middle" x="4874" y="-1671.67" font-family="Times,serif" font-size="14.00">generate_md_tags</text>
</g>
<!-- generate_md_tags&#45;&gt;run_dragen_alignment_step -->
<g id="edge27" class="edge">
<title>generate_md_tags&#45;&gt;run_dragen_alignment_step</title>
<path fill="none" stroke="black" d="M4847.02,-1656.73C4831.12,-1646.77 4810.37,-1634.52 4791,-1625.37 4410.71,-1445.67 3927.54,-1294.2 3749.73,-1240.87"/>
<polygon fill="black" stroke="black" points="3750.56,-1237.47 3739.97,-1237.95 3748.55,-1244.17 3750.56,-1237.47"/>
</g>
<!-- generate_sa_tags -->
<g id="node20" class="node">
<title>generate_sa_tags</title>
<polygon fill="#94ddf4" stroke="black" points="4642,-1656.87 4642,-1693.87 4782,-1693.87 4782,-1656.87 4642,-1656.87"/>
<text text-anchor="middle" x="4712" y="-1671.67" font-family="Times,serif" font-size="14.00">generate_sa_tags</text>
</g>
<!-- generate_sa_tags&#45;&gt;run_dragen_alignment_step -->
<g id="edge28" class="edge">
<title>generate_sa_tags&#45;&gt;run_dragen_alignment_step</title>
<path fill="none" stroke="black" d="M4685.9,-1656.77C4670.78,-1646.94 4651.19,-1634.81 4633,-1625.37 4304.69,-1455.07 3888.58,-1296.92 3737.83,-1241.38"/>
<polygon fill="black" stroke="black" points="3738.88,-1238.04 3728.28,-1237.88 3736.46,-1244.61 3738.88,-1238.04"/>
</g>
<!-- generate_zs_tags -->
<g id="node21" class="node">
<title>generate_zs_tags</title>
<polygon fill="#94ddf4" stroke="black" points="4484,-1656.87 4484,-1693.87 4624,-1693.87 4624,-1656.87 4484,-1656.87"/>
<text text-anchor="middle" x="4554" y="-1671.67" font-family="Times,serif" font-size="14.00">generate_zs_tags</text>
</g>
<!-- generate_zs_tags&#45;&gt;run_dragen_alignment_step -->
<g id="edge29" class="edge">
<title>generate_zs_tags&#45;&gt;run_dragen_alignment_step</title>
<path fill="none" stroke="black" d="M4526.92,-1656.79C4511.82,-1647.19 4492.58,-1635.27 4475,-1625.37 4196.51,-1468.43 3850.38,-1301.32 3726.65,-1242.43"/>
<polygon fill="black" stroke="black" points="3727.97,-1239.19 3717.43,-1238.05 3724.96,-1245.51 3727.97,-1239.19"/>
</g>
<!-- global -->
<g id="node22" class="node">
<title>global</title>
<polygon fill="#94ddf4" stroke="black" points="4406,-1656.87 4406,-1693.87 4466,-1693.87 4466,-1656.87 4406,-1656.87"/>
<text text-anchor="middle" x="4436" y="-1671.67" font-family="Times,serif" font-size="14.00">global</text>
</g>
<!-- global&#45;&gt;run_dragen_alignment_step -->
<g id="edge30" class="edge">
<title>global&#45;&gt;run_dragen_alignment_step</title>
<path fill="none" stroke="black" d="M4424.82,-1656.62C4417.93,-1646.63 4408.43,-1634.38 4398,-1625.37 4179.49,-1436.65 3859.47,-1293.85 3733.64,-1241.8"/>
<polygon fill="black" stroke="black" points="3734.78,-1238.49 3724.2,-1237.92 3732.12,-1244.96 3734.78,-1238.49"/>
</g>
<!-- hard_clips -->
<g id="node23" class="node">
<title>hard_clips</title>
<polygon fill="#94ddf4" stroke="black" points="4299.5,-1656.87 4299.5,-1693.87 4388.5,-1693.87 4388.5,-1656.87 4299.5,-1656.87"/>
<text text-anchor="middle" x="4344" y="-1671.67" font-family="Times,serif" font-size="14.00">hard_clips</text>
</g>
<!-- hard_clips&#45;&gt;run_dragen_alignment_step -->
<g id="edge31" class="edge">
<title>hard_clips&#45;&gt;run_dragen_alignment_step</title>
<path fill="none" stroke="black" d="M4325.61,-1656.41C4315.44,-1646.81 4302.39,-1635.01 4290,-1625.37 4084.52,-1465.4 3817.29,-1302.11 3718.71,-1243.25"/>
<polygon fill="black" stroke="black" points="3720.36,-1240.16 3709.98,-1238.05 3716.78,-1246.17 3720.36,-1240.16"/>
</g>
<!-- map_orientations -->
<g id="node24" class="node">
<title>map_orientations</title>
<polygon fill="#94ddf4" stroke="black" points="4141,-1656.87 4141,-1693.87 4281,-1693.87 4281,-1656.87 4141,-1656.87"/>
<text text-anchor="middle" x="4211" y="-1671.67" font-family="Times,serif" font-size="14.00">map_orientations</text>
</g>
<!-- map_orientations&#45;&gt;run_dragen_alignment_step -->
<g id="edge32" class="edge">
<title>map_orientations&#45;&gt;run_dragen_alignment_step</title>
<path fill="none" stroke="black" d="M4190.51,-1656.85C4108.47,-1586.7 3803.53,-1325.99 3708.48,-1244.72"/>
<polygon fill="black" stroke="black" points="3710.59,-1241.92 3700.72,-1238.08 3706.04,-1247.24 3710.59,-1241.92"/>
</g>
<!-- mapq_max -->
<g id="node25" class="node">
<title>mapq_max</title>
<polygon fill="#94ddf4" stroke="black" points="4029.5,-1656.87 4029.5,-1693.87 4122.5,-1693.87 4122.5,-1656.87 4029.5,-1656.87"/>
<text text-anchor="middle" x="4076" y="-1671.67" font-family="Times,serif" font-size="14.00">mapq_max</text>
</g>
<!-- mapq_max&#45;&gt;run_dragen_alignment_step -->
<g id="edge33" class="edge">
<title>mapq_max&#45;&gt;run_dragen_alignment_step</title>
<path fill="none" stroke="black" d="M4060.72,-1656.85C3999.78,-1586.99 3773.95,-1328.08 3702.1,-1245.71"/>
<polygon fill="black" stroke="black" points="3704.66,-1243.32 3695.45,-1238.08 3699.38,-1247.92 3704.66,-1243.32"/>
</g>
<!-- mapq_strict_js -->
<g id="node26" class="node">
<title>mapq_strict_js</title>
<polygon fill="#94ddf4" stroke="black" points="3891,-1656.87 3891,-1693.87 4011,-1693.87 4011,-1656.87 3891,-1656.87"/>
<text text-anchor="middle" x="3951" y="-1671.67" font-family="Times,serif" font-size="14.00">mapq_strict_js</text>
</g>
<!-- mapq_strict_js&#45;&gt;run_dragen_alignment_step -->
<g id="edge34" class="edge">
<title>mapq_strict_js&#45;&gt;run_dragen_alignment_step</title>
<path fill="none" stroke="black" d="M3940.54,-1656.85C3899.01,-1587.27 3745.54,-1330.17 3695.73,-1246.72"/>
<polygon fill="black" stroke="black" points="3698.7,-1244.87 3690.57,-1238.08 3692.69,-1248.46 3698.7,-1244.87"/>
</g>
<!-- match_n_score -->
<g id="node27" class="node">
<title>match_n_score</title>
<polygon fill="#94ddf4" stroke="black" points="3751,-1656.87 3751,-1693.87 3873,-1693.87 3873,-1656.87 3751,-1656.87"/>
<text text-anchor="middle" x="3812" y="-1671.67" font-family="Times,serif" font-size="14.00">match_n_score</text>
</g>
<!-- match_n_score&#45;&gt;run_dragen_alignment_step -->
<g id="edge35" class="edge">
<title>match_n_score&#45;&gt;run_dragen_alignment_step</title>
<path fill="none" stroke="black" d="M3806.91,-1656.85C3786.76,-1587.55 3712.53,-1332.25 3687.96,-1247.74"/>
<polygon fill="black" stroke="black" points="3691.3,-1246.71 3685.15,-1238.08 3684.58,-1248.66 3691.3,-1246.71"/>
</g>
<!-- match_score -->
<g id="node28" class="node">
<title>match_score</title>
<polygon fill="#94ddf4" stroke="black" points="3627,-1656.87 3627,-1693.87 3733,-1693.87 3733,-1656.87 3627,-1656.87"/>
<text text-anchor="middle" x="3680" y="-1671.67" font-family="Times,serif" font-size="14.00">match_score</text>
</g>
<!-- match_score&#45;&gt;run_dragen_alignment_step -->
<g id="edge36" class="edge">
<title>match_score&#45;&gt;run_dragen_alignment_step</title>
<path fill="none" stroke="black" d="M3680,-1656.85C3680,-1587.69 3680,-1333.29 3680,-1248.26"/>
<polygon fill="black" stroke="black" points="3683.5,-1248.08 3680,-1238.08 3676.5,-1248.08 3683.5,-1248.08"/>
</g>
<!-- max_intron_bases -->
<g id="node29" class="node">
<title>max_intron_bases</title>
<polygon fill="#94ddf4" stroke="black" points="3465,-1656.87 3465,-1693.87 3609,-1693.87 3609,-1656.87 3465,-1656.87"/>
<text text-anchor="middle" x="3537" y="-1671.67" font-family="Times,serif" font-size="14.00">max_intron_bases</text>
</g>
<!-- max_intron_bases&#45;&gt;run_dragen_alignment_step -->
<g id="edge37" class="edge">
<title>max_intron_bases&#45;&gt;run_dragen_alignment_step</title>
<path fill="none" stroke="black" d="M3542.52,-1656.85C3564.35,-1587.55 3644.76,-1332.25 3671.38,-1247.74"/>
<polygon fill="black" stroke="black" points="3674.76,-1248.67 3674.42,-1238.08 3668.08,-1246.57 3674.76,-1248.67"/>
</g>
<!-- max_rescues -->
<g id="node30" class="node">
<title>max_rescues</title>
<polygon fill="#94ddf4" stroke="black" points="3339,-1656.87 3339,-1693.87 3447,-1693.87 3447,-1656.87 3339,-1656.87"/>
<text text-anchor="middle" x="3393" y="-1671.67" font-family="Times,serif" font-size="14.00">max_rescues</text>
</g>
<!-- max_rescues&#45;&gt;run_dragen_alignment_step -->
<g id="edge38" class="edge">
<title>max_rescues&#45;&gt;run_dragen_alignment_step</title>
<path fill="none" stroke="black" d="M3404.07,-1656.85C3448.06,-1587.27 3610.59,-1330.17 3663.35,-1246.72"/>
<polygon fill="black" stroke="black" points="3666.42,-1248.4 3668.8,-1238.08 3660.5,-1244.66 3666.42,-1248.4"/>
</g>
<!-- min_intron_bases -->
<g id="node31" class="node">
<title>min_intron_bases</title>
<polygon fill="#94ddf4" stroke="black" points="3179.5,-1656.87 3179.5,-1693.87 3320.5,-1693.87 3320.5,-1656.87 3179.5,-1656.87"/>
<text text-anchor="middle" x="3250" y="-1671.67" font-family="Times,serif" font-size="14.00">min_intron_bases</text>
</g>
<!-- min_intron_bases&#45;&gt;run_dragen_alignment_step -->
<g id="edge39" class="edge">
<title>min_intron_bases&#45;&gt;run_dragen_alignment_step</title>
<path fill="none" stroke="black" d="M3266.59,-1656.85C3332.83,-1586.92 3578.48,-1327.56 3656.24,-1245.46"/>
<polygon fill="black" stroke="black" points="3658.89,-1247.75 3663.22,-1238.08 3653.81,-1242.94 3658.89,-1247.75"/>
</g>
<!-- min_score_coeff -->
<g id="node32" class="node">
<title>min_score_coeff</title>
<polygon fill="#94ddf4" stroke="black" points="3032.5,-1656.87 3032.5,-1693.87 3161.5,-1693.87 3161.5,-1656.87 3032.5,-1656.87"/>
<text text-anchor="middle" x="3097" y="-1671.67" font-family="Times,serif" font-size="14.00">min_score_coeff</text>
</g>
<!-- min_score_coeff&#45;&gt;run_dragen_alignment_step -->
<g id="edge40" class="edge">
<title>min_score_coeff&#45;&gt;run_dragen_alignment_step</title>
<path fill="none" stroke="black" d="M3119.5,-1656.85C3209.76,-1586.56 3545.72,-1324.94 3649.36,-1244.23"/>
<polygon fill="black" stroke="black" points="3651.52,-1246.99 3657.26,-1238.08 3647.22,-1241.46 3651.52,-1246.99"/>
</g>
<!-- mismatch_pen -->
<g id="node33" class="node">
<title>mismatch_pen</title>
<polygon fill="#94ddf4" stroke="black" points="2895.5,-1656.87 2895.5,-1693.87 3014.5,-1693.87 3014.5,-1656.87 2895.5,-1656.87"/>
<text text-anchor="middle" x="2955" y="-1671.67" font-family="Times,serif" font-size="14.00">mismatch_pen</text>
</g>
<!-- mismatch_pen&#45;&gt;run_dragen_alignment_step -->
<g id="edge41" class="edge">
<title>mismatch_pen&#45;&gt;run_dragen_alignment_step</title>
<path fill="none" stroke="black" d="M2979,-1656.75C2992.15,-1647.25 3008.81,-1635.43 3024,-1625.37 3253.86,-1473.02 3538.64,-1303.57 3641.05,-1243.22"/>
<polygon fill="black" stroke="black" points="3642.98,-1246.15 3649.82,-1238.06 3639.43,-1240.12 3642.98,-1246.15"/>
</g>
<!-- no_unclip_score -->
<g id="node34" class="node">
<title>no_unclip_score</title>
<polygon fill="#94ddf4" stroke="black" points="2748.5,-1656.87 2748.5,-1693.87 2877.5,-1693.87 2877.5,-1656.87 2748.5,-1656.87"/>
<text text-anchor="middle" x="2813" y="-1671.67" font-family="Times,serif" font-size="14.00">no_unclip_score</text>
</g>
<!-- no_unclip_score&#45;&gt;run_dragen_alignment_step -->
<g id="edge42" class="edge">
<title>no_unclip_score&#45;&gt;run_dragen_alignment_step</title>
<path fill="none" stroke="black" d="M2837.9,-1656.87C2852.05,-1647.18 2870.23,-1635.16 2887,-1625.37 3162.17,-1464.68 3508.34,-1300.19 3632.77,-1242.2"/>
<polygon fill="black" stroke="black" points="3634.45,-1245.28 3642.04,-1237.88 3631.5,-1238.93 3634.45,-1245.28"/>
</g>
<!-- no_unpaired -->
<g id="node35" class="node">
<title>no_unpaired</title>
<polygon fill="#94ddf4" stroke="black" points="2626,-1656.87 2626,-1693.87 2730,-1693.87 2730,-1656.87 2626,-1656.87"/>
<text text-anchor="middle" x="2678" y="-1671.67" font-family="Times,serif" font-size="14.00">no_unpaired</text>
</g>
<!-- no_unpaired&#45;&gt;run_dragen_alignment_step -->
<g id="edge43" class="edge">
<title>no_unpaired&#45;&gt;run_dragen_alignment_step</title>
<path fill="none" stroke="black" d="M2697.41,-1656.85C2709.18,-1646.81 2724.8,-1634.44 2740,-1625.37 3050.24,-1440.32 3460.51,-1293.78 3616.31,-1241.28"/>
<polygon fill="black" stroke="black" points="3617.83,-1244.46 3626.2,-1237.95 3615.61,-1237.82 3617.83,-1244.46"/>
</g>
<!-- output_directory -->
<g id="node36" class="node">
<title>output_directory</title>
<polygon fill="#94ddf4" stroke="black" points="2472,-1656.87 2472,-1693.87 2608,-1693.87 2608,-1656.87 2472,-1656.87"/>
<text text-anchor="middle" x="2540" y="-1671.67" font-family="Times,serif" font-size="14.00">output_directory</text>
</g>
<!-- output_directory&#45;&gt;run_dragen_alignment_step -->
<g id="edge44" class="edge">
<title>output_directory&#45;&gt;run_dragen_alignment_step</title>
<path fill="none" stroke="black" d="M2564.91,-1656.7C2579.62,-1646.72 2598.87,-1634.47 2617,-1625.37 2977.97,-1444.11 3440.67,-1293.97 3612.14,-1240.92"/>
<polygon fill="black" stroke="black" points="3613.27,-1244.23 3621.8,-1237.94 3611.21,-1237.54 3613.27,-1244.23"/>
</g>
<!-- pe_max_penalty -->
<g id="node37" class="node">
<title>pe_max_penalty</title>
<polygon fill="#94ddf4" stroke="black" points="2322.5,-1656.87 2322.5,-1693.87 2453.5,-1693.87 2453.5,-1656.87 2322.5,-1656.87"/>
<text text-anchor="middle" x="2388" y="-1671.67" font-family="Times,serif" font-size="14.00">pe_max_penalty</text>
</g>
<!-- pe_max_penalty&#45;&gt;run_dragen_alignment_step -->
<g id="edge45" class="edge">
<title>pe_max_penalty&#45;&gt;run_dragen_alignment_step</title>
<path fill="none" stroke="black" d="M2411.39,-1656.84C2425.74,-1646.66 2444.79,-1634.16 2463,-1625.37 2868.95,-1429.28 3393.97,-1290.04 3595.83,-1240.38"/>
<polygon fill="black" stroke="black" points="3596.9,-1243.72 3605.78,-1237.94 3595.23,-1236.92 3596.9,-1243.72"/>
</g>
<!-- pe_orientation -->
<g id="node38" class="node">
<title>pe_orientation</title>
<polygon fill="#94ddf4" stroke="black" points="2185.5,-1656.87 2185.5,-1693.87 2304.5,-1693.87 2304.5,-1656.87 2185.5,-1656.87"/>
<text text-anchor="middle" x="2245" y="-1671.67" font-family="Times,serif" font-size="14.00">pe_orientation</text>
</g>
<!-- pe_orientation&#45;&gt;run_dragen_alignment_step -->
<g id="edge46" class="edge">
<title>pe_orientation&#45;&gt;run_dragen_alignment_step</title>
<path fill="none" stroke="black" d="M2265.91,-1656.75C2279.03,-1646.42 2296.69,-1633.79 2314,-1625.37 2756.11,-1410.24 3335.19,-1285.02 3572,-1239.79"/>
<polygon fill="black" stroke="black" points="3572.83,-1243.19 3582,-1237.89 3571.52,-1236.32 3572.83,-1243.19"/>
</g>
<!-- preserve_map_align_order -->
<g id="node39" class="node">
<title>preserve_map_align_order</title>
<polygon fill="#94ddf4" stroke="black" points="1962.5,-1656.87 1962.5,-1693.87 2167.5,-1693.87 2167.5,-1656.87 1962.5,-1656.87"/>
<text text-anchor="middle" x="2065" y="-1671.67" font-family="Times,serif" font-size="14.00">preserve_map_align_order</text>
</g>
<!-- preserve_map_align_order&#45;&gt;run_dragen_alignment_step -->
<g id="edge47" class="edge">
<title>preserve_map_align_order&#45;&gt;run_dragen_alignment_step</title>
<path fill="none" stroke="black" d="M2101.27,-1656.86C2122.93,-1646.81 2151.17,-1634.44 2177,-1625.37 2700.46,-1441.49 3350.97,-1292.07 3588.09,-1240.1"/>
<polygon fill="black" stroke="black" points="3589.03,-1243.47 3598.05,-1237.92 3587.54,-1236.63 3589.03,-1243.47"/>
</g>
<!-- reference_tar -->
<g id="node40" class="node">
<title>reference_tar</title>
<polygon fill="#94ddf4" stroke="black" points="1831.5,-1656.87 1831.5,-1693.87 1944.5,-1693.87 1944.5,-1656.87 1831.5,-1656.87"/>
<text text-anchor="middle" x="1888" y="-1671.67" font-family="Times,serif" font-size="14.00">reference_tar</text>
</g>
<!-- reference_tar&#45;&gt;run_dragen_alignment_step -->
<g id="edge48" class="edge">
<title>reference_tar&#45;&gt;run_dragen_alignment_step</title>
<path fill="none" stroke="black" d="M1907.14,-1656.84C1919.64,-1646.27 1936.78,-1633.36 1954,-1625.37 2524.86,-1360.41 3284.92,-1260.34 3567.76,-1230.78"/>
<polygon fill="black" stroke="black" points="3568.44,-1234.23 3578.02,-1229.72 3567.71,-1227.27 3568.44,-1234.23"/>
</g>
<!-- remove_duplicates -->
<g id="node41" class="node">
<title>remove_duplicates</title>
<polygon fill="#94ddf4" stroke="black" points="1663,-1656.87 1663,-1693.87 1813,-1693.87 1813,-1656.87 1663,-1656.87"/>
<text text-anchor="middle" x="1738" y="-1671.67" font-family="Times,serif" font-size="14.00">remove_duplicates</text>
</g>
<!-- remove_duplicates&#45;&gt;run_dragen_alignment_step -->
<g id="edge49" class="edge">
<title>remove_duplicates&#45;&gt;run_dragen_alignment_step</title>
<path fill="none" stroke="black" d="M1763.75,-1656.72C1780.08,-1646.25 1802.03,-1633.48 1823,-1625.37 2457.4,-1380.16 3274.06,-1267.26 3568.22,-1232.58"/>
<polygon fill="black" stroke="black" points="3568.94,-1236.02 3578.46,-1231.38 3568.12,-1229.06 3568.94,-1236.02"/>
</g>
<!-- rescue_sigmas -->
<g id="node42" class="node">
<title>rescue_sigmas</title>
<polygon fill="#94ddf4" stroke="black" points="1523.5,-1656.87 1523.5,-1693.87 1644.5,-1693.87 1644.5,-1656.87 1523.5,-1656.87"/>
<text text-anchor="middle" x="1584" y="-1671.67" font-family="Times,serif" font-size="14.00">rescue_sigmas</text>
</g>
<!-- rescue_sigmas&#45;&gt;run_dragen_alignment_step -->
<g id="edge50" class="edge">
<title>rescue_sigmas&#45;&gt;run_dragen_alignment_step</title>
<path fill="none" stroke="black" d="M1604.39,-1656.68C1617.67,-1646.05 1635.86,-1633.13 1654,-1625.37 2342.23,-1331.13 3254.6,-1247.48 3568.43,-1226.61"/>
<polygon fill="black" stroke="black" points="3568.69,-1230.1 3578.44,-1225.95 3568.24,-1223.11 3568.69,-1230.1"/>
</g>
<!-- sec_aligns -->
<g id="node43" class="node">
<title>sec_aligns</title>
<polygon fill="#94ddf4" stroke="black" points="1416.5,-1656.87 1416.5,-1693.87 1505.5,-1693.87 1505.5,-1656.87 1416.5,-1656.87"/>
<text text-anchor="middle" x="1461" y="-1671.67" font-family="Times,serif" font-size="14.00">sec_aligns</text>
</g>
<!-- sec_aligns&#45;&gt;run_dragen_alignment_step -->
<g id="edge51" class="edge">
<title>sec_aligns&#45;&gt;run_dragen_alignment_step</title>
<path fill="none" stroke="black" d="M1475.75,-1656.73C1485.72,-1645.99 1499.81,-1632.91 1515,-1625.37 2236.59,-1267.04 3236.89,-1224.2 3568.37,-1220.26"/>
<polygon fill="black" stroke="black" points="3568.49,-1223.76 3578.45,-1220.15 3568.42,-1216.76 3568.49,-1223.76"/>
</g>
<!-- sec_aligns_hard -->
<g id="node44" class="node">
<title>sec_aligns_hard</title>
<polygon fill="#94ddf4" stroke="black" points="1269.5,-1656.87 1269.5,-1693.87 1398.5,-1693.87 1398.5,-1656.87 1269.5,-1656.87"/>
<text text-anchor="middle" x="1334" y="-1671.67" font-family="Times,serif" font-size="14.00">sec_aligns_hard</text>
</g>
<!-- sec_aligns_hard&#45;&gt;run_dragen_alignment_step -->
<g id="edge52" class="edge">
<title>sec_aligns_hard&#45;&gt;run_dragen_alignment_step</title>
<path fill="none" stroke="black" d="M1355.34,-1656.82C1369.45,-1646.11 1388.83,-1633.04 1408,-1625.37 2194.01,-1310.84 3230.34,-1239.62 3568.28,-1224.33"/>
<polygon fill="black" stroke="black" points="3568.48,-1227.83 3578.31,-1223.89 3568.17,-1220.83 3568.48,-1227.83"/>
</g>
<!-- sec_phred_delta -->
<g id="node45" class="node">
<title>sec_phred_delta</title>
<polygon fill="#94ddf4" stroke="black" points="1120.5,-1656.87 1120.5,-1693.87 1251.5,-1693.87 1251.5,-1656.87 1120.5,-1656.87"/>
<text text-anchor="middle" x="1186" y="-1671.67" font-family="Times,serif" font-size="14.00">sec_phred_delta</text>
</g>
<!-- sec_phred_delta&#45;&gt;run_dragen_alignment_step -->
<g id="edge53" class="edge">
<title>sec_phred_delta&#45;&gt;run_dragen_alignment_step</title>
<path fill="none" stroke="black" d="M1207.64,-1656.76C1221.95,-1646.02 1241.59,-1632.95 1261,-1625.37 2104.71,-1295.89 3216.45,-1234.33 3568.28,-1222.93"/>
<polygon fill="black" stroke="black" points="3568.58,-1226.42 3578.46,-1222.61 3568.36,-1219.43 3568.58,-1226.42"/>
</g>
<!-- sec_score_delta -->
<g id="node46" class="node">
<title>sec_score_delta</title>
<polygon fill="#94ddf4" stroke="black" points="974,-1656.87 974,-1693.87 1102,-1693.87 1102,-1656.87 974,-1656.87"/>
<text text-anchor="middle" x="1038" y="-1671.67" font-family="Times,serif" font-size="14.00">sec_score_delta</text>
</g>
<!-- sec_score_delta&#45;&gt;run_dragen_alignment_step -->
<g id="edge54" class="edge">
<title>sec_score_delta&#45;&gt;run_dragen_alignment_step</title>
<path fill="none" stroke="black" d="M1059.29,-1656.69C1073.38,-1645.92 1092.75,-1632.85 1112,-1625.37 2012.53,-1275.41 3202.55,-1227.54 3568.31,-1221.24"/>
<polygon fill="black" stroke="black" points="3568.43,-1224.74 3578.37,-1221.07 3568.31,-1217.74 3568.43,-1224.74"/>
</g>
<!-- seed_density -->
<g id="node47" class="node">
<title>seed_density</title>
<polygon fill="#94ddf4" stroke="black" points="846.5,-1656.87 846.5,-1693.87 955.5,-1693.87 955.5,-1656.87 846.5,-1656.87"/>
<text text-anchor="middle" x="901" y="-1671.67" font-family="Times,serif" font-size="14.00">seed_density</text>
</g>
<!-- seed_density&#45;&gt;run_dragen_alignment_step -->
<g id="edge55" class="edge">
<title>seed_density&#45;&gt;run_dragen_alignment_step</title>
<path fill="none" stroke="black" d="M918.72,-1656.82C930.76,-1645.96 947.61,-1632.74 965,-1625.37 1449.62,-1420.05 3119.11,-1267.54 3568.08,-1229.55"/>
<polygon fill="black" stroke="black" points="3568.47,-1233.03 3578.14,-1228.7 3567.88,-1226.06 3568.47,-1233.03"/>
</g>
<!-- supp_aligns -->
<g id="node48" class="node">
<title>supp_aligns</title>
<polygon fill="#94ddf4" stroke="black" points="727.5,-1656.87 727.5,-1693.87 828.5,-1693.87 828.5,-1656.87 727.5,-1656.87"/>
<text text-anchor="middle" x="778" y="-1671.67" font-family="Times,serif" font-size="14.00">supp_aligns</text>
</g>
<!-- supp_aligns&#45;&gt;run_dragen_alignment_step -->
<g id="edge56" class="edge">
<title>supp_aligns&#45;&gt;run_dragen_alignment_step</title>
<path fill="none" stroke="black" d="M794.4,-1656.76C805.6,-1645.89 821.37,-1632.66 838,-1625.37 1344.06,-1403.5 3105.66,-1262.13 3568.11,-1228.27"/>
<polygon fill="black" stroke="black" points="3568.41,-1231.76 3578.13,-1227.54 3567.9,-1224.77 3568.41,-1231.76"/>
</g>
<!-- supp_as_sec -->
<g id="node49" class="node">
<title>supp_as_sec</title>
<polygon fill="#94ddf4" stroke="black" points="605,-1656.87 605,-1693.87 709,-1693.87 709,-1656.87 605,-1656.87"/>
<text text-anchor="middle" x="657" y="-1671.67" font-family="Times,serif" font-size="14.00">supp_as_sec</text>
</g>
<!-- supp_as_sec&#45;&gt;run_dragen_alignment_step -->
<g id="edge57" class="edge">
<title>supp_as_sec&#45;&gt;run_dragen_alignment_step</title>
<path fill="none" stroke="black" d="M674.04,-1656.74C685.65,-1645.85 701.96,-1632.62 719,-1625.37 1249.93,-1399.41 3093.46,-1260.37 3567.94,-1227.78"/>
<polygon fill="black" stroke="black" points="3568.48,-1231.25 3578.22,-1227.08 3568,-1224.27 3568.48,-1231.25"/>
</g>
<!-- supp_min_score_adj -->
<g id="node50" class="node">
<title>supp_min_score_adj</title>
<polygon fill="#94ddf4" stroke="black" points="429,-1656.87 429,-1693.87 587,-1693.87 587,-1656.87 429,-1656.87"/>
<text text-anchor="middle" x="508" y="-1671.67" font-family="Times,serif" font-size="14.00">supp_min_score_adj</text>
</g>
<!-- supp_min_score_adj&#45;&gt;run_dragen_alignment_step -->
<g id="edge58" class="edge">
<title>supp_min_score_adj&#45;&gt;run_dragen_alignment_step</title>
<path fill="none" stroke="black" d="M533.37,-1656.84C550.34,-1646 573.59,-1632.78 596,-1625.37 1712.07,-1256.36 3159.93,-1222.07 3568.39,-1220.07"/>
<polygon fill="black" stroke="black" points="3568.45,-1223.57 3578.43,-1220.03 3568.42,-1216.57 3568.45,-1223.57"/>
</g>
<!-- unclip_score -->
<g id="node51" class="node">
<title>unclip_score</title>
<polygon fill="#94ddf4" stroke="black" points="305.5,-1656.87 305.5,-1693.87 410.5,-1693.87 410.5,-1656.87 305.5,-1656.87"/>
<text text-anchor="middle" x="358" y="-1671.67" font-family="Times,serif" font-size="14.00">unclip_score</text>
</g>
<!-- unclip_score&#45;&gt;run_dragen_alignment_step -->
<g id="edge59" class="edge">
<title>unclip_score&#45;&gt;run_dragen_alignment_step</title>
<path fill="none" stroke="black" d="M375.01,-1656.67C386.61,-1645.75 402.91,-1632.52 420,-1625.37 1009.5,-1378.77 3064.77,-1253.57 3568.1,-1226.19"/>
<polygon fill="black" stroke="black" points="3568.48,-1229.67 3578.27,-1225.63 3568.1,-1222.68 3568.48,-1229.67"/>
</g>
<!-- unpaired_pen -->
<g id="node52" class="node">
<title>unpaired_pen</title>
<polygon fill="#94ddf4" stroke="black" points="174.5,-1656.87 174.5,-1693.87 287.5,-1693.87 287.5,-1656.87 174.5,-1656.87"/>
<text text-anchor="middle" x="231" y="-1671.67" font-family="Times,serif" font-size="14.00">unpaired_pen</text>
</g>
<!-- unpaired_pen&#45;&gt;run_dragen_alignment_step -->
<g id="edge60" class="edge">
<title>unpaired_pen&#45;&gt;run_dragen_alignment_step</title>
<path fill="none" stroke="black" d="M249.3,-1656.65C261.73,-1645.73 279.1,-1632.5 297,-1625.37 914.43,-1379.55 3054.24,-1253.24 3568.32,-1226.03"/>
<polygon fill="black" stroke="black" points="3568.53,-1229.52 3578.33,-1225.5 3568.16,-1222.53 3568.53,-1229.52"/>
</g>
<!-- verbose -->
<g id="node53" class="node">
<title>verbose</title>
<polygon fill="#94ddf4" stroke="black" points="7326.5,-1656.87 7326.5,-1693.87 7399.5,-1693.87 7399.5,-1656.87 7326.5,-1656.87"/>
<text text-anchor="middle" x="7363" y="-1671.67" font-family="Times,serif" font-size="14.00">verbose</text>
</g>
<!-- verbose&#45;&gt;run_dragen_alignment_step -->
<g id="edge61" class="edge">
<title>verbose&#45;&gt;run_dragen_alignment_step</title>
<path fill="none" stroke="black" d="M7351.84,-1656.85C7343.83,-1645.86 7332.01,-1632.48 7318,-1625.37 6677.57,-1300.54 4332.72,-1233.6 3791.83,-1222.37"/>
<polygon fill="black" stroke="black" points="3791.76,-1218.87 3781.69,-1222.16 3791.61,-1225.87 3791.76,-1218.87"/>
</g>
<!-- dragen_alignment_output_directory -->
<g id="node54" class="node">
<title>dragen_alignment_output_directory</title>
<polygon fill="#94ddf4" stroke="black" points="3323,-324.87 3323,-361.87 3595,-361.87 3595,-324.87 3323,-324.87"/>
<text text-anchor="middle" x="3459" y="-339.67" font-family="Times,serif" font-size="14.00">dragen_alignment_output_directory</text>
</g>
<!-- dragen_bam_out -->
<g id="node55" class="node">
<title>dragen_bam_out</title>
<polygon fill="#94ddf4" stroke="black" points="3613,-324.87 3613,-361.87 3747,-361.87 3747,-324.87 3613,-324.87"/>
<text text-anchor="middle" x="3680" y="-339.67" font-family="Times,serif" font-size="14.00">dragen_bam_out</text>
</g>
<!-- multiqc_output_directory -->
<g id="node56" class="node">
<title>multiqc_output_directory</title>
<polygon fill="#94ddf4" stroke="black" points="3107.5,-324.87 3107.5,-361.87 3304.5,-361.87 3304.5,-324.87 3107.5,-324.87"/>
<text text-anchor="middle" x="3206" y="-339.67" font-family="Times,serif" font-size="14.00">multiqc_output_directory</text>
</g>
<!-- create_dummy_file_step -->
<g id="node57" class="node">
<title>create_dummy_file_step</title>
<polygon fill="lightgoldenrodyellow" stroke="black" points="132.5,-1200.87 132.5,-1237.87 393.5,-1237.87 393.5,-1200.87 132.5,-1200.87"/>
<text text-anchor="middle" x="263" y="-1215.67" font-family="Times,serif" font-size="14.00">custom&#45;create&#45;dummy&#45;file v(1.0.0)</text>
</g>
<!-- create_dummy_file_step&#45;&gt;dragen_qc_step -->
<g id="edge1" class="edge">
<title>create_dummy_file_step&#45;&gt;dragen_qc_step</title>
<path fill="none" stroke="black" d="M255.84,-1200.74C228.46,-1133.29 130.24,-891.36 97.05,-809.59"/>
<polygon fill="black" stroke="black" points="100.25,-808.17 93.25,-800.22 93.77,-810.8 100.25,-808.17"/>
</g>
<!-- dragen_qc_step&#45;&gt;multiqc_output_directory -->
<g id="edge2" class="edge">
<title>dragen_qc_step&#45;&gt;multiqc_output_directory</title>
<path fill="none" stroke="black" d="M155.54,-770.65C559.28,-714.23 2601.15,-428.89 3097.26,-359.57"/>
<polygon fill="black" stroke="black" points="3097.86,-363.02 3107.28,-358.16 3096.9,-356.08 3097.86,-363.02"/>
</g>
<!-- run_dragen_alignment_step&#45;&gt;dragen_alignment_output_directory -->
<g id="edge4" class="edge">
<title>run_dragen_alignment_step&#45;&gt;dragen_alignment_output_directory</title>
<path fill="none" stroke="black" d="M3675.49,-1200.52C3647.71,-1090.68 3500.1,-506.89 3466.02,-372.14"/>
<polygon fill="black" stroke="black" points="3469.35,-371.03 3463.51,-362.2 3462.57,-372.75 3469.35,-371.03"/>
</g>
<!-- run_dragen_alignment_step&#45;&gt;dragen_bam_out -->
<g id="edge5" class="edge">
<title>run_dragen_alignment_step&#45;&gt;dragen_bam_out</title>
<path fill="none" stroke="black" d="M3680,-1200.52C3680,-1090.79 3680,-508.06 3680,-372.54"/>
<polygon fill="black" stroke="black" points="3683.5,-372.2 3680,-362.2 3676.5,-372.2 3683.5,-372.2"/>
</g>
<!-- run_dragen_alignment_step&#45;&gt;dragen_qc_step -->
<g id="edge3" class="edge">
<title>run_dragen_alignment_step&#45;&gt;dragen_qc_step</title>
<path fill="none" stroke="black" d="M3578.23,-1206.02C3051.07,-1142.07 637.24,-849.24 165.93,-792.07"/>
<polygon fill="black" stroke="black" points="166.16,-788.57 155.81,-790.84 165.32,-795.52 166.16,-788.57"/>
</g>
<!-- \n -->
<g id="node60" class="node">
<title>\n</title>
<ellipse fill="none" stroke="black" cx="7445" cy="-1675.37" rx="27" ry="18"/>
</g>
</g>
</svg>
