<?xml version="1.0" encoding="UTF-8" standalone="no"?>
<!DOCTYPE svg PUBLIC "-//W3C//DTD SVG 1.1//EN"
 "http://www.w3.org/Graphics/SVG/1.1/DTD/svg11.dtd">
<!-- Generated by graphviz version 2.43.0 (0)
 -->
<!-- Title: G Pages: 1 -->
<svg width="7920pt" height="1986pt"
 viewBox="0.00 0.00 7919.50 1985.75" xmlns="http://www.w3.org/2000/svg" xmlns:xlink="http://www.w3.org/1999/xlink">
<g id="graph0" class="graph" transform="scale(1 1) rotate(0) translate(4 1981.75)">
<title>G</title>
<polygon fill="#eeeeee" stroke="transparent" points="-4,4 -4,-1981.75 7915.5,-1981.75 7915.5,4 -4,4"/>
<g id="clust1" class="cluster">
<title>cluster_inputs</title>
<polygon fill="#eeeeee" stroke="black" stroke-dasharray="5,2" points="8,-1449.11 8,-1928 7682,-1928 7682,-1449.11 8,-1449.11"/>
<text text-anchor="middle" x="7615.5" y="-1456.91" font-family="Times,serif" font-size="14.00">Workflow Inputs</text>
</g>
<g id="clust2" class="cluster">
<title>cluster_outputs</title>
<polygon fill="#eeeeee" stroke="black" stroke-dasharray="5,2" points="3865,-49.75 3865,-528.64 4521,-528.64 4521,-49.75 3865,-49.75"/>
<text text-anchor="middle" x="4448.5" y="-57.55" font-family="Times,serif" font-size="14.00">Workflow Outputs</text>
</g>
<!-- output_file_prefix -->
<g id="node1" class="node">
<title>output_file_prefix</title>
<polygon fill="#94ddf4" stroke="black" points="7534,-1741.25 7534,-1778.25 7674,-1778.25 7674,-1741.25 7534,-1741.25"/>
<text text-anchor="middle" x="7604" y="-1756.05" font-family="Times,serif" font-size="14.00">output_file_prefix</text>
</g>
<!-- run_dragen_alignment_step -->
<g id="node59" class="node">
<title>run_dragen_alignment_step</title>
<polygon fill="lightgoldenrodyellow" stroke="black" points="3907.5,-1262.25 3907.5,-1299.25 4110.5,-1299.25 4110.5,-1262.25 3907.5,-1262.25"/>
<text text-anchor="middle" x="4009" y="-1277.05" font-family="Times,serif" font-size="14.00">dragen&#45;alignment v(4.0.3)</text>
</g>
<!-- output_file_prefix&#45;&gt;run_dragen_alignment_step -->
<g id="edge6" class="edge">
<title>output_file_prefix&#45;&gt;run_dragen_alignment_step</title>
<path fill="none" stroke="black" d="M7581.51,-1741.11C7566.4,-1730.21 7545.55,-1716.98 7525,-1709.75 6871.83,-1480.06 4647.1,-1323.28 4121.12,-1288.88"/>
<polygon fill="black" stroke="black" points="4121.08,-1285.37 4110.87,-1288.21 4120.62,-1292.35 4121.08,-1285.37"/>
</g>
<!-- dragen_qc_step -->
<g id="node60" class="node">
<title>dragen_qc_step</title>
<polygon fill="lightgoldenrodyellow" stroke="black" points="7534.5,-802.25 7534.5,-839.25 7673.5,-839.25 7673.5,-802.25 7534.5,-802.25"/>
<text text-anchor="middle" x="7604" y="-817.05" font-family="Times,serif" font-size="14.00">multiqc v(1.14.0)</text>
</g>
<!-- output_file_prefix&#45;&gt;dragen_qc_step -->
<g id="edge7" class="edge">
<title>output_file_prefix&#45;&gt;dragen_qc_step</title>
<path fill="none" stroke="black" d="M7599.93,-1740.87C7587.67,-1625.84 7587.36,-990.34 7599.02,-849.43"/>
<polygon fill="black" stroke="black" points="7602.51,-849.73 7599.95,-839.44 7595.54,-849.07 7602.51,-849.73"/>
</g>
<!-- output_file_prefix&#45;&gt;dragen_qc_step -->
<g id="edge8" class="edge">
<title>output_file_prefix&#45;&gt;dragen_qc_step</title>
<path fill="none" stroke="black" d="M7604,-1740.87C7604,-1625.96 7604,-991.62 7604,-849.86"/>
<polygon fill="black" stroke="black" points="7607.5,-849.44 7604,-839.44 7600.5,-849.44 7607.5,-849.44"/>
</g>
<!-- output_file_prefix&#45;&gt;dragen_qc_step -->
<g id="edge9" class="edge">
<title>output_file_prefix&#45;&gt;dragen_qc_step</title>
<path fill="none" stroke="black" d="M7608.07,-1740.87C7620.33,-1625.84 7620.64,-990.34 7608.98,-849.43"/>
<polygon fill="black" stroke="black" points="7612.46,-849.07 7608.05,-839.44 7605.49,-849.73 7612.46,-849.07"/>
</g>
<!-- aln_min_score -->
<g id="node2" class="node">
<title>aln_min_score</title>
<polygon fill="#94ddf4" stroke="black" points="7398.5,-1741.25 7398.5,-1778.25 7515.5,-1778.25 7515.5,-1741.25 7398.5,-1741.25"/>
<text text-anchor="middle" x="7457" y="-1756.05" font-family="Times,serif" font-size="14.00">aln_min_score</text>
</g>
<!-- aln_min_score&#45;&gt;run_dragen_alignment_step -->
<g id="edge10" class="edge">
<title>aln_min_score&#45;&gt;run_dragen_alignment_step</title>
<path fill="none" stroke="black" d="M7438.04,-1741.09C7425.19,-1730.19 7407.28,-1716.95 7389,-1709.75 6770.69,-1466.24 4633.86,-1320.47 4120.52,-1288.47"/>
<polygon fill="black" stroke="black" points="4120.72,-1284.97 4110.52,-1287.84 4120.28,-1291.96 4120.72,-1284.97"/>
</g>
<!-- alt_aware -->
<g id="node3" class="node">
<title>alt_aware</title>
<polygon fill="#94ddf4" stroke="black" points="7294,-1741.25 7294,-1778.25 7380,-1778.25 7380,-1741.25 7294,-1741.25"/>
<text text-anchor="middle" x="7337" y="-1756.05" font-family="Times,serif" font-size="14.00">alt_aware</text>
</g>
<!-- alt_aware&#45;&gt;run_dragen_alignment_step -->
<g id="edge11" class="edge">
<title>alt_aware&#45;&gt;run_dragen_alignment_step</title>
<path fill="none" stroke="black" d="M7323.06,-1740.83C7313.56,-1729.97 7300.02,-1716.88 7285,-1709.75 6703.85,-1434.16 4626.72,-1312.96 4120.73,-1287.15"/>
<polygon fill="black" stroke="black" points="4120.67,-1283.64 4110.51,-1286.63 4120.32,-1290.63 4120.67,-1283.64"/>
</g>
<!-- ann_sj_max_indel -->
<g id="node4" class="node">
<title>ann_sj_max_indel</title>
<polygon fill="#94ddf4" stroke="black" points="7136,-1741.25 7136,-1778.25 7276,-1778.25 7276,-1741.25 7136,-1741.25"/>
<text text-anchor="middle" x="7206" y="-1756.05" font-family="Times,serif" font-size="14.00">ann_sj_max_indel</text>
</g>
<!-- ann_sj_max_indel&#45;&gt;run_dragen_alignment_step -->
<g id="edge12" class="edge">
<title>ann_sj_max_indel&#45;&gt;run_dragen_alignment_step</title>
<path fill="none" stroke="black" d="M7183.48,-1741.21C7168.35,-1730.36 7147.5,-1717.14 7127,-1709.75 6553.26,-1503.05 4609.43,-1331.41 4121.05,-1290.84"/>
<polygon fill="black" stroke="black" points="4121.08,-1287.33 4110.83,-1289.99 4120.5,-1294.31 4121.08,-1287.33"/>
</g>
<!-- dedup_min_qual -->
<g id="node5" class="node">
<title>dedup_min_qual</title>
<polygon fill="#94ddf4" stroke="black" points="6986,-1741.25 6986,-1778.25 7118,-1778.25 7118,-1741.25 6986,-1741.25"/>
<text text-anchor="middle" x="7052" y="-1756.05" font-family="Times,serif" font-size="14.00">dedup_min_qual</text>
</g>
<!-- dedup_min_qual&#45;&gt;run_dragen_alignment_step -->
<g id="edge13" class="edge">
<title>dedup_min_qual&#45;&gt;run_dragen_alignment_step</title>
<path fill="none" stroke="black" d="M7030.74,-1741.23C7016.43,-1730.39 6996.64,-1717.17 6977,-1709.75 6435.34,-1505.27 4594.44,-1333.03 4120.84,-1291.36"/>
<polygon fill="black" stroke="black" points="4120.85,-1287.85 4110.58,-1290.46 4120.23,-1294.82 4120.85,-1287.85"/>
</g>
<!-- edit_chain_limit -->
<g id="node6" class="node">
<title>edit_chain_limit</title>
<polygon fill="#94ddf4" stroke="black" points="6838.5,-1741.25 6838.5,-1778.25 6967.5,-1778.25 6967.5,-1741.25 6838.5,-1741.25"/>
<text text-anchor="middle" x="6903" y="-1756.05" font-family="Times,serif" font-size="14.00">edit_chain_limit</text>
</g>
<!-- edit_chain_limit&#45;&gt;run_dragen_alignment_step -->
<g id="edge14" class="edge">
<title>edit_chain_limit&#45;&gt;run_dragen_alignment_step</title>
<path fill="none" stroke="black" d="M6881.73,-1741.03C6867.64,-1730.26 6848.27,-1717.18 6829,-1709.75 5830.8,-1325.17 4509.23,-1284.88 4120.81,-1281.67"/>
<polygon fill="black" stroke="black" points="4120.72,-1278.17 4110.7,-1281.59 4120.67,-1285.17 4120.72,-1278.17"/>
</g>
<!-- edit_mode -->
<g id="node7" class="node">
<title>edit_mode</title>
<polygon fill="#94ddf4" stroke="black" points="6730,-1741.25 6730,-1778.25 6820,-1778.25 6820,-1741.25 6730,-1741.25"/>
<text text-anchor="middle" x="6775" y="-1756.05" font-family="Times,serif" font-size="14.00">edit_mode</text>
</g>
<!-- edit_mode&#45;&gt;run_dragen_alignment_step -->
<g id="edge15" class="edge">
<title>edit_mode&#45;&gt;run_dragen_alignment_step</title>
<path fill="none" stroke="black" d="M6760.32,-1740.97C6750.38,-1730.16 6736.3,-1717.08 6721,-1709.75 6245.97,-1482.21 4569.95,-1328.57 4120.57,-1290.81"/>
<polygon fill="black" stroke="black" points="4120.76,-1287.31 4110.5,-1289.96 4120.17,-1294.29 4120.76,-1287.31"/>
</g>
<!-- edit_read_len -->
<g id="node8" class="node">
<title>edit_read_len</title>
<polygon fill="#94ddf4" stroke="black" points="6600,-1741.25 6600,-1778.25 6712,-1778.25 6712,-1741.25 6600,-1741.25"/>
<text text-anchor="middle" x="6656" y="-1756.05" font-family="Times,serif" font-size="14.00">edit_read_len</text>
</g>
<!-- edit_read_len&#45;&gt;run_dragen_alignment_step -->
<g id="edge16" class="edge">
<title>edit_read_len&#45;&gt;run_dragen_alignment_step</title>
<path fill="none" stroke="black" d="M6637.64,-1741.06C6625.4,-1730.29 6608.4,-1717.22 6591,-1709.75 5696.06,-1325.97 4490.05,-1284.8 4120.94,-1281.58"/>
<polygon fill="black" stroke="black" points="4120.82,-1278.07 4110.8,-1281.49 4120.77,-1285.07 4120.82,-1278.07"/>
</g>
<!-- edit_seed_num -->
<g id="node9" class="node">
<title>edit_seed_num</title>
<polygon fill="#94ddf4" stroke="black" points="6460,-1741.25 6460,-1778.25 6582,-1778.25 6582,-1741.25 6460,-1741.25"/>
<text text-anchor="middle" x="6521" y="-1756.05" font-family="Times,serif" font-size="14.00">edit_seed_num</text>
</g>
<!-- edit_seed_num&#45;&gt;run_dragen_alignment_step -->
<g id="edge17" class="edge">
<title>edit_seed_num&#45;&gt;run_dragen_alignment_step</title>
<path fill="none" stroke="black" d="M6500.97,-1741.15C6487.69,-1730.42 6469.37,-1717.35 6451,-1709.75 5603.73,-1359.38 4475.69,-1295.76 4120.76,-1284.27"/>
<polygon fill="black" stroke="black" points="4120.85,-1280.77 4110.74,-1283.95 4120.63,-1287.77 4120.85,-1280.77"/>
</g>
<!-- en_alt_hap_aln -->
<g id="node10" class="node">
<title>en_alt_hap_aln</title>
<polygon fill="#94ddf4" stroke="black" points="6320.5,-1741.25 6320.5,-1778.25 6441.5,-1778.25 6441.5,-1741.25 6320.5,-1741.25"/>
<text text-anchor="middle" x="6381" y="-1756.05" font-family="Times,serif" font-size="14.00">en_alt_hap_aln</text>
</g>
<!-- en_alt_hap_aln&#45;&gt;run_dragen_alignment_step -->
<g id="edge18" class="edge">
<title>en_alt_hap_aln&#45;&gt;run_dragen_alignment_step</title>
<path fill="none" stroke="black" d="M6361.28,-1741.21C6348.18,-1730.5 6330.13,-1717.43 6312,-1709.75 5519.35,-1374.04 4463,-1300.88 4120.94,-1285.61"/>
<polygon fill="black" stroke="black" points="4120.93,-1282.11 4110.78,-1285.17 4120.62,-1289.1 4120.93,-1282.11"/>
</g>
<!-- en_chimeric_aln -->
<g id="node11" class="node">
<title>en_chimeric_aln</title>
<polygon fill="#94ddf4" stroke="black" points="6171.5,-1741.25 6171.5,-1778.25 6302.5,-1778.25 6302.5,-1741.25 6171.5,-1741.25"/>
<text text-anchor="middle" x="6237" y="-1756.05" font-family="Times,serif" font-size="14.00">en_chimeric_aln</text>
</g>
<!-- en_chimeric_aln&#45;&gt;run_dragen_alignment_step -->
<g id="edge19" class="edge">
<title>en_chimeric_aln&#45;&gt;run_dragen_alignment_step</title>
<path fill="none" stroke="black" d="M6215.29,-1741.09C6201.18,-1730.48 6181.95,-1717.56 6163,-1709.75 5422.72,-1405.02 4447.75,-1312.24 4121.07,-1288.73"/>
<polygon fill="black" stroke="black" points="4120.88,-1285.21 4110.66,-1287.99 4120.39,-1292.19 4120.88,-1285.21"/>
</g>
<!-- enable_duplicate_marking -->
<g id="node12" class="node">
<title>enable_duplicate_marking</title>
<polygon fill="#94ddf4" stroke="black" points="5950.5,-1741.25 5950.5,-1778.25 6153.5,-1778.25 6153.5,-1741.25 5950.5,-1741.25"/>
<text text-anchor="middle" x="6052" y="-1756.05" font-family="Times,serif" font-size="14.00">enable_duplicate_marking</text>
</g>
<!-- enable_duplicate_marking&#45;&gt;run_dragen_alignment_step -->
<g id="edge20" class="edge">
<title>enable_duplicate_marking&#45;&gt;run_dragen_alignment_step</title>
<path fill="none" stroke="black" d="M6017.54,-1741.25C5996.2,-1730.96 5968.01,-1718.33 5942,-1709.75 5266.61,-1487.07 4420.3,-1344.77 4120.51,-1298.37"/>
<polygon fill="black" stroke="black" points="4120.93,-1294.9 4110.51,-1296.83 4119.86,-1301.81 4120.93,-1294.9"/>
</g>
<!-- enable_map_align -->
<g id="node13" class="node">
<title>enable_map_align</title>
<polygon fill="#94ddf4" stroke="black" points="5789.5,-1741.25 5789.5,-1778.25 5932.5,-1778.25 5932.5,-1741.25 5789.5,-1741.25"/>
<text text-anchor="middle" x="5861" y="-1756.05" font-family="Times,serif" font-size="14.00">enable_map_align</text>
</g>
<!-- enable_map_align&#45;&gt;run_dragen_alignment_step -->
<g id="edge21" class="edge">
<title>enable_map_align&#45;&gt;run_dragen_alignment_step</title>
<path fill="none" stroke="black" d="M5836.85,-1741.2C5821.51,-1730.76 5800.86,-1717.99 5781,-1709.75 5181.72,-1461.12 4405.88,-1336.23 4120.58,-1296.34"/>
<polygon fill="black" stroke="black" points="4121.03,-1292.87 4110.64,-1294.96 4120.06,-1299.8 4121.03,-1292.87"/>
</g>
<!-- enable_rna -->
<g id="node14" class="node">
<title>enable_rna</title>
<polygon fill="#94ddf4" stroke="black" points="5676.5,-1741.25 5676.5,-1778.25 5771.5,-1778.25 5771.5,-1741.25 5676.5,-1741.25"/>
<text text-anchor="middle" x="5724" y="-1756.05" font-family="Times,serif" font-size="14.00">enable_rna</text>
</g>
<!-- enable_rna&#45;&gt;run_dragen_alignment_step -->
<g id="edge22" class="edge">
<title>enable_rna&#45;&gt;run_dragen_alignment_step</title>
<path fill="none" stroke="black" d="M5707.93,-1741.01C5697.5,-1730.49 5683.08,-1717.71 5668,-1709.75 5131.74,-1426.71 4397.55,-1323.05 4120.7,-1292.56"/>
<polygon fill="black" stroke="black" points="4120.97,-1289.07 4110.65,-1291.47 4120.21,-1296.03 4120.97,-1289.07"/>
</g>
<!-- enable_rrna_filter -->
<g id="node15" class="node">
<title>enable_rrna_filter</title>
<polygon fill="#94ddf4" stroke="black" points="5515.5,-1741.25 5515.5,-1778.25 5658.5,-1778.25 5658.5,-1741.25 5515.5,-1741.25"/>
<text text-anchor="middle" x="5587" y="-1756.05" font-family="Times,serif" font-size="14.00">enable_rrna_filter</text>
</g>
<!-- enable_rrna_filter&#45;&gt;run_dragen_alignment_step -->
<g id="edge23" class="edge">
<title>enable_rrna_filter&#45;&gt;run_dragen_alignment_step</title>
<path fill="none" stroke="black" d="M5562.38,-1741.25C5547.02,-1730.97 5526.53,-1718.34 5507,-1709.75 5005.99,-1489.65 4361.24,-1350.12 4112.88,-1301.29"/>
<polygon fill="black" stroke="black" points="4113.27,-1297.8 4102.79,-1299.31 4111.93,-1304.66 4113.27,-1297.8"/>
</g>
<!-- enable_sort -->
<g id="node16" class="node">
<title>enable_sort</title>
<polygon fill="#94ddf4" stroke="black" points="5398.5,-1741.25 5398.5,-1778.25 5497.5,-1778.25 5497.5,-1741.25 5398.5,-1741.25"/>
<text text-anchor="middle" x="5448" y="-1756.05" font-family="Times,serif" font-size="14.00">enable_sort</text>
</g>
<!-- enable_sort&#45;&gt;run_dragen_alignment_step -->
<g id="edge24" class="edge">
<title>enable_sort&#45;&gt;run_dragen_alignment_step</title>
<path fill="none" stroke="black" d="M5430.5,-1741.06C5419.42,-1730.71 5404.33,-1718.07 5389,-1709.75 4951.57,-1472.54 4363.42,-1345.96 4120.8,-1300.99"/>
<polygon fill="black" stroke="black" points="4121.38,-1297.54 4110.91,-1299.17 4120.11,-1304.42 4121.38,-1297.54"/>
</g>
<!-- fastq_list -->
<g id="node17" class="node">
<title>fastq_list</title>
<polygon fill="#94ddf4" stroke="black" points="5298,-1741.25 5298,-1778.25 5380,-1778.25 5380,-1741.25 5298,-1741.25"/>
<text text-anchor="middle" x="5339" y="-1756.05" font-family="Times,serif" font-size="14.00">fastq_list</text>
</g>
<!-- fastq_list&#45;&gt;run_dragen_alignment_step -->
<g id="edge25" class="edge">
<title>fastq_list&#45;&gt;run_dragen_alignment_step</title>
<path fill="none" stroke="black" d="M5324.38,-1740.82C5315.16,-1730.51 5302.48,-1718 5289,-1709.75 4895.58,-1469.09 4350.48,-1345.49 4119.5,-1301.21"/>
<polygon fill="black" stroke="black" points="4119.89,-1297.72 4109.41,-1299.29 4118.58,-1304.6 4119.89,-1297.72"/>
</g>
<!-- fastq_list_rows -->
<g id="node18" class="node">
<title>fastq_list_rows</title>
<polygon fill="#94ddf4" stroke="black" points="5156.5,-1741.25 5156.5,-1778.25 5279.5,-1778.25 5279.5,-1741.25 5156.5,-1741.25"/>
<text text-anchor="middle" x="5218" y="-1756.05" font-family="Times,serif" font-size="14.00">fastq_list_rows</text>
</g>
<!-- fastq_list_rows&#45;&gt;run_dragen_alignment_step -->
<g id="edge26" class="edge">
<title>fastq_list_rows&#45;&gt;run_dragen_alignment_step</title>
<path fill="none" stroke="black" d="M5195.91,-1741.13C5182.57,-1731.05 5164.93,-1718.68 5148,-1709.75 4765.41,-1508.09 4266.28,-1355.24 4081.71,-1302.11"/>
<polygon fill="black" stroke="black" points="4082.42,-1298.67 4071.85,-1299.28 4080.49,-1305.4 4082.42,-1298.67"/>
</g>
<!-- gap_ext_pen -->
<g id="node19" class="node">
<title>gap_ext_pen</title>
<polygon fill="#94ddf4" stroke="black" points="5033.5,-1741.25 5033.5,-1778.25 5138.5,-1778.25 5138.5,-1741.25 5033.5,-1741.25"/>
<text text-anchor="middle" x="5086" y="-1756.05" font-family="Times,serif" font-size="14.00">gap_ext_pen</text>
</g>
<!-- gap_ext_pen&#45;&gt;run_dragen_alignment_step -->
<g id="edge27" class="edge">
<title>gap_ext_pen&#45;&gt;run_dragen_alignment_step</title>
<path fill="none" stroke="black" d="M5066.97,-1741.17C5055.42,-1731.1 5040.05,-1718.73 5025,-1709.75 4688.74,-1509.23 4241.18,-1355.9 4074.87,-1302.37"/>
<polygon fill="black" stroke="black" points="4075.86,-1299.01 4065.27,-1299.29 4073.72,-1305.68 4075.86,-1299.01"/>
</g>
<!-- gap_open_pen -->
<g id="node20" class="node">
<title>gap_open_pen</title>
<polygon fill="#94ddf4" stroke="black" points="4898.5,-1741.25 4898.5,-1778.25 5015.5,-1778.25 5015.5,-1741.25 4898.5,-1741.25"/>
<text text-anchor="middle" x="4957" y="-1756.05" font-family="Times,serif" font-size="14.00">gap_open_pen</text>
</g>
<!-- gap_open_pen&#45;&gt;run_dragen_alignment_step -->
<g id="edge28" class="edge">
<title>gap_open_pen&#45;&gt;run_dragen_alignment_step</title>
<path fill="none" stroke="black" d="M4935.05,-1741.16C4922.29,-1731.33 4905.68,-1719.19 4890,-1709.75 4589.45,-1528.84 4201.18,-1361.56 4061.74,-1303.43"/>
<polygon fill="black" stroke="black" points="4062.71,-1300.04 4052.14,-1299.43 4060.03,-1306.51 4062.71,-1300.04"/>
</g>
<!-- generate_md_tags -->
<g id="node21" class="node">
<title>generate_md_tags</title>
<polygon fill="#94ddf4" stroke="black" points="4733.5,-1741.25 4733.5,-1778.25 4880.5,-1778.25 4880.5,-1741.25 4733.5,-1741.25"/>
<text text-anchor="middle" x="4807" y="-1756.05" font-family="Times,serif" font-size="14.00">generate_md_tags</text>
</g>
<!-- generate_md_tags&#45;&gt;run_dragen_alignment_step -->
<g id="edge29" class="edge">
<title>generate_md_tags&#45;&gt;run_dragen_alignment_step</title>
<path fill="none" stroke="black" d="M4777.65,-1741.21C4655.21,-1668.02 4185.07,-1387 4047.21,-1304.59"/>
<polygon fill="black" stroke="black" points="4048.99,-1301.58 4038.61,-1299.46 4045.4,-1307.59 4048.99,-1301.58"/>
</g>
<!-- generate_sa_tags -->
<g id="node22" class="node">
<title>generate_sa_tags</title>
<polygon fill="#94ddf4" stroke="black" points="4575,-1741.25 4575,-1778.25 4715,-1778.25 4715,-1741.25 4575,-1741.25"/>
<text text-anchor="middle" x="4645" y="-1756.05" font-family="Times,serif" font-size="14.00">generate_sa_tags</text>
</g>
<!-- generate_sa_tags&#45;&gt;run_dragen_alignment_step -->
<g id="edge30" class="edge">
<title>generate_sa_tags&#45;&gt;run_dragen_alignment_step</title>
<path fill="none" stroke="black" d="M4621.61,-1741.21C4524.41,-1668.32 4152.32,-1389.24 4040.78,-1305.59"/>
<polygon fill="black" stroke="black" points="4042.7,-1302.66 4032.6,-1299.46 4038.5,-1308.26 4042.7,-1302.66"/>
</g>
<!-- generate_zs_tags -->
<g id="node23" class="node">
<title>generate_zs_tags</title>
<polygon fill="#94ddf4" stroke="black" points="4417,-1741.25 4417,-1778.25 4557,-1778.25 4557,-1741.25 4417,-1741.25"/>
<text text-anchor="middle" x="4487" y="-1756.05" font-family="Times,serif" font-size="14.00">generate_zs_tags</text>
</g>
<!-- generate_zs_tags&#45;&gt;run_dragen_alignment_step -->
<g id="edge31" class="edge">
<title>generate_zs_tags&#45;&gt;run_dragen_alignment_step</title>
<path fill="none" stroke="black" d="M4469.42,-1741.21C4396.66,-1668.61 4118.95,-1391.47 4033.9,-1306.6"/>
<polygon fill="black" stroke="black" points="4036.29,-1304.04 4026.74,-1299.46 4031.35,-1309 4036.29,-1304.04"/>
</g>
<!-- global -->
<g id="node24" class="node">
<title>global</title>
<polygon fill="#94ddf4" stroke="black" points="4339,-1741.25 4339,-1778.25 4399,-1778.25 4399,-1741.25 4339,-1741.25"/>
<text text-anchor="middle" x="4369" y="-1756.05" font-family="Times,serif" font-size="14.00">global</text>
</g>
<!-- global&#45;&gt;run_dragen_alignment_step -->
<g id="edge32" class="edge">
<title>global&#45;&gt;run_dragen_alignment_step</title>
<path fill="none" stroke="black" d="M4355.76,-1741.21C4301.19,-1668.9 4093.49,-1393.7 4028.54,-1307.64"/>
<polygon fill="black" stroke="black" points="4031.18,-1305.33 4022.36,-1299.46 4025.59,-1309.55 4031.18,-1305.33"/>
</g>
<!-- hard_clips -->
<g id="node25" class="node">
<title>hard_clips</title>
<polygon fill="#94ddf4" stroke="black" points="4232.5,-1741.25 4232.5,-1778.25 4321.5,-1778.25 4321.5,-1741.25 4232.5,-1741.25"/>
<text text-anchor="middle" x="4277" y="-1756.05" font-family="Times,serif" font-size="14.00">hard_clips</text>
</g>
<!-- hard_clips&#45;&gt;run_dragen_alignment_step -->
<g id="edge33" class="edge">
<title>hard_clips&#45;&gt;run_dragen_alignment_step</title>
<path fill="none" stroke="black" d="M4267.14,-1741.21C4226.64,-1669.12 4072.83,-1395.37 4023.99,-1308.43"/>
<polygon fill="black" stroke="black" points="4026.9,-1306.46 4018.95,-1299.46 4020.79,-1309.89 4026.9,-1306.46"/>
</g>
<!-- map_orientations -->
<g id="node26" class="node">
<title>map_orientations</title>
<polygon fill="#94ddf4" stroke="black" points="4074,-1741.25 4074,-1778.25 4214,-1778.25 4214,-1741.25 4074,-1741.25"/>
<text text-anchor="middle" x="4144" y="-1756.05" font-family="Times,serif" font-size="14.00">map_orientations</text>
</g>
<!-- map_orientations&#45;&gt;run_dragen_alignment_step -->
<g id="edge34" class="edge">
<title>map_orientations&#45;&gt;run_dragen_alignment_step</title>
<path fill="none" stroke="black" d="M4139.04,-1741.21C4118.69,-1669.34 4041.63,-1397.03 4016.77,-1309.22"/>
<polygon fill="black" stroke="black" points="4020.1,-1308.13 4014.01,-1299.46 4013.37,-1310.03 4020.1,-1308.13"/>
</g>
<!-- mapq_max -->
<g id="node27" class="node">
<title>mapq_max</title>
<polygon fill="#94ddf4" stroke="black" points="3962.5,-1741.25 3962.5,-1778.25 4055.5,-1778.25 4055.5,-1741.25 3962.5,-1741.25"/>
<text text-anchor="middle" x="4009" y="-1756.05" font-family="Times,serif" font-size="14.00">mapq_max</text>
</g>
<!-- mapq_max&#45;&gt;run_dragen_alignment_step -->
<g id="edge35" class="edge">
<title>mapq_max&#45;&gt;run_dragen_alignment_step</title>
<path fill="none" stroke="black" d="M4009,-1741.21C4009,-1669.41 4009,-1397.58 4009,-1309.49"/>
<polygon fill="black" stroke="black" points="4012.5,-1309.46 4009,-1299.46 4005.5,-1309.46 4012.5,-1309.46"/>
</g>
<!-- mapq_strict_js -->
<g id="node28" class="node">
<title>mapq_strict_js</title>
<polygon fill="#94ddf4" stroke="black" points="3824,-1741.25 3824,-1778.25 3944,-1778.25 3944,-1741.25 3824,-1741.25"/>
<text text-anchor="middle" x="3884" y="-1756.05" font-family="Times,serif" font-size="14.00">mapq_strict_js</text>
</g>
<!-- mapq_strict_js&#45;&gt;run_dragen_alignment_step -->
<g id="edge36" class="edge">
<title>mapq_strict_js&#45;&gt;run_dragen_alignment_step</title>
<path fill="none" stroke="black" d="M3888.6,-1741.21C3907.43,-1669.34 3978.79,-1397.03 4001.8,-1309.22"/>
<polygon fill="black" stroke="black" points="4005.21,-1310.02 4004.36,-1299.46 3998.44,-1308.24 4005.21,-1310.02"/>
</g>
<!-- match_n_score -->
<g id="node29" class="node">
<title>match_n_score</title>
<polygon fill="#94ddf4" stroke="black" points="3684,-1741.25 3684,-1778.25 3806,-1778.25 3806,-1741.25 3684,-1741.25"/>
<text text-anchor="middle" x="3745" y="-1756.05" font-family="Times,serif" font-size="14.00">match_n_score</text>
</g>
<!-- match_n_score&#45;&gt;run_dragen_alignment_step -->
<g id="edge37" class="edge">
<title>match_n_score&#45;&gt;run_dragen_alignment_step</title>
<path fill="none" stroke="black" d="M3754.71,-1741.21C3794.61,-1669.12 3946.12,-1395.37 3994.24,-1308.43"/>
<polygon fill="black" stroke="black" points="3997.42,-1309.9 3999.2,-1299.46 3991.3,-1306.51 3997.42,-1309.9"/>
</g>
<!-- match_score -->
<g id="node30" class="node">
<title>match_score</title>
<polygon fill="#94ddf4" stroke="black" points="3560,-1741.25 3560,-1778.25 3666,-1778.25 3666,-1741.25 3560,-1741.25"/>
<text text-anchor="middle" x="3613" y="-1756.05" font-family="Times,serif" font-size="14.00">match_score</text>
</g>
<!-- match_score&#45;&gt;run_dragen_alignment_step -->
<g id="edge38" class="edge">
<title>match_score&#45;&gt;run_dragen_alignment_step</title>
<path fill="none" stroke="black" d="M3627.56,-1741.21C3687.66,-1668.83 3916.52,-1393.15 3987.73,-1307.38"/>
<polygon fill="black" stroke="black" points="3990.61,-1309.39 3994.3,-1299.46 3985.22,-1304.92 3990.61,-1309.39"/>
</g>
<!-- max_intron_bases -->
<g id="node31" class="node">
<title>max_intron_bases</title>
<polygon fill="#94ddf4" stroke="black" points="3398,-1741.25 3398,-1778.25 3542,-1778.25 3542,-1741.25 3398,-1741.25"/>
<text text-anchor="middle" x="3470" y="-1756.05" font-family="Times,serif" font-size="14.00">max_intron_bases</text>
</g>
<!-- max_intron_bases&#45;&gt;run_dragen_alignment_step -->
<g id="edge39" class="edge">
<title>max_intron_bases&#45;&gt;run_dragen_alignment_step</title>
<path fill="none" stroke="black" d="M3489.82,-1741.21C3572.03,-1668.46 3886.28,-1390.36 3981.5,-1306.09"/>
<polygon fill="black" stroke="black" points="3983.83,-1308.7 3989,-1299.46 3979.19,-1303.46 3983.83,-1308.7"/>
</g>
<!-- max_rescues -->
<g id="node32" class="node">
<title>max_rescues</title>
<polygon fill="#94ddf4" stroke="black" points="3272,-1741.25 3272,-1778.25 3380,-1778.25 3380,-1741.25 3272,-1741.25"/>
<text text-anchor="middle" x="3326" y="-1756.05" font-family="Times,serif" font-size="14.00">max_rescues</text>
</g>
<!-- max_rescues&#45;&gt;run_dragen_alignment_step -->
<g id="edge40" class="edge">
<title>max_rescues&#45;&gt;run_dragen_alignment_step</title>
<path fill="none" stroke="black" d="M3347.92,-1741.21C3359.93,-1731.73 3375.14,-1719.91 3389,-1709.75 3607.65,-1549.46 3878.69,-1368.15 3973.94,-1304.94"/>
<polygon fill="black" stroke="black" points="3975.94,-1307.82 3982.34,-1299.37 3972.07,-1301.98 3975.94,-1307.82"/>
</g>
<!-- min_intron_bases -->
<g id="node33" class="node">
<title>min_intron_bases</title>
<polygon fill="#94ddf4" stroke="black" points="3112.5,-1741.25 3112.5,-1778.25 3253.5,-1778.25 3253.5,-1741.25 3112.5,-1741.25"/>
<text text-anchor="middle" x="3183" y="-1756.05" font-family="Times,serif" font-size="14.00">min_intron_bases</text>
</g>
<!-- min_intron_bases&#45;&gt;run_dragen_alignment_step -->
<g id="edge41" class="edge">
<title>min_intron_bases&#45;&gt;run_dragen_alignment_step</title>
<path fill="none" stroke="black" d="M3211.39,-1741.09C3226.63,-1731.68 3245.77,-1719.97 3263,-1709.75 3530.34,-1551.24 3856.12,-1367.54 3968.57,-1304.41"/>
<polygon fill="black" stroke="black" points="3970.54,-1307.32 3977.54,-1299.38 3967.11,-1301.22 3970.54,-1307.32"/>
</g>
<!-- min_score_coeff -->
<g id="node34" class="node">
<title>min_score_coeff</title>
<polygon fill="#94ddf4" stroke="black" points="2965.5,-1741.25 2965.5,-1778.25 3094.5,-1778.25 3094.5,-1741.25 2965.5,-1741.25"/>
<text text-anchor="middle" x="3030" y="-1756.05" font-family="Times,serif" font-size="14.00">min_score_coeff</text>
</g>
<!-- min_score_coeff&#45;&gt;run_dragen_alignment_step -->
<g id="edge42" class="edge">
<title>min_score_coeff&#45;&gt;run_dragen_alignment_step</title>
<path fill="none" stroke="black" d="M3054.78,-1741.06C3068.9,-1731.31 3087.09,-1719.29 3104,-1709.75 3417.77,-1532.88 3816.6,-1361.89 3957.16,-1303.17"/>
<polygon fill="black" stroke="black" points="3958.55,-1306.38 3966.43,-1299.3 3955.86,-1299.92 3958.55,-1306.38"/>
</g>
<!-- mismatch_pen -->
<g id="node35" class="node">
<title>mismatch_pen</title>
<polygon fill="#94ddf4" stroke="black" points="2828.5,-1741.25 2828.5,-1778.25 2947.5,-1778.25 2947.5,-1741.25 2828.5,-1741.25"/>
<text text-anchor="middle" x="2888" y="-1756.05" font-family="Times,serif" font-size="14.00">mismatch_pen</text>
</g>
<!-- mismatch_pen&#45;&gt;run_dragen_alignment_step -->
<g id="edge43" class="edge">
<title>mismatch_pen&#45;&gt;run_dragen_alignment_step</title>
<path fill="none" stroke="black" d="M2910.14,-1741.04C2923.26,-1731.05 2940.51,-1718.8 2957,-1709.75 3312.06,-1514.89 3774.62,-1357.18 3943.58,-1302.46"/>
<polygon fill="black" stroke="black" points="3944.89,-1305.72 3953.33,-1299.32 3942.73,-1299.06 3944.89,-1305.72"/>
</g>
<!-- no_unclip_score -->
<g id="node36" class="node">
<title>no_unclip_score</title>
<polygon fill="#94ddf4" stroke="black" points="2681.5,-1741.25 2681.5,-1778.25 2810.5,-1778.25 2810.5,-1741.25 2681.5,-1741.25"/>
<text text-anchor="middle" x="2746" y="-1756.05" font-family="Times,serif" font-size="14.00">no_unclip_score</text>
</g>
<!-- no_unclip_score&#45;&gt;run_dragen_alignment_step -->
<g id="edge44" class="edge">
<title>no_unclip_score&#45;&gt;run_dragen_alignment_step</title>
<path fill="none" stroke="black" d="M2769.45,-1741.13C2783.58,-1731.04 2802.24,-1718.67 2820,-1709.75 3221.83,-1508.06 3742.28,-1355.01 3933.92,-1301.97"/>
<polygon fill="black" stroke="black" points="3934.9,-1305.33 3943.61,-1299.3 3933.04,-1298.58 3934.9,-1305.33"/>
</g>
<!-- no_unpaired -->
<g id="node37" class="node">
<title>no_unpaired</title>
<polygon fill="#94ddf4" stroke="black" points="2559,-1741.25 2559,-1778.25 2663,-1778.25 2663,-1741.25 2559,-1741.25"/>
<text text-anchor="middle" x="2611" y="-1756.05" font-family="Times,serif" font-size="14.00">no_unpaired</text>
</g>
<!-- no_unpaired&#45;&gt;run_dragen_alignment_step -->
<g id="edge45" class="edge">
<title>no_unpaired&#45;&gt;run_dragen_alignment_step</title>
<path fill="none" stroke="black" d="M2629.56,-1741.16C2641.27,-1730.84 2657.14,-1718.2 2673,-1709.75 3102.98,-1480.73 3676.67,-1348.3 3906.99,-1301.34"/>
<polygon fill="black" stroke="black" points="3907.93,-1304.72 3917.03,-1299.31 3906.54,-1297.86 3907.93,-1304.72"/>
</g>
<!-- output_directory -->
<g id="node38" class="node">
<title>output_directory</title>
<polygon fill="#94ddf4" stroke="black" points="2405,-1741.25 2405,-1778.25 2541,-1778.25 2541,-1741.25 2405,-1741.25"/>
<text text-anchor="middle" x="2473" y="-1756.05" font-family="Times,serif" font-size="14.00">output_directory</text>
</g>
<!-- output_directory&#45;&gt;run_dragen_alignment_step -->
<g id="edge46" class="edge">
<title>output_directory&#45;&gt;run_dragen_alignment_step</title>
<path fill="none" stroke="black" d="M2496.63,-1741.25C2511.38,-1730.96 2531.1,-1718.33 2550,-1709.75 3036.03,-1489.18 3664.47,-1350.04 3907.16,-1301.29"/>
<polygon fill="black" stroke="black" points="3907.91,-1304.71 3917.03,-1299.32 3906.54,-1297.85 3907.91,-1304.71"/>
</g>
<!-- pe_max_penalty -->
<g id="node39" class="node">
<title>pe_max_penalty</title>
<polygon fill="#94ddf4" stroke="black" points="2255.5,-1741.25 2255.5,-1778.25 2386.5,-1778.25 2386.5,-1741.25 2255.5,-1741.25"/>
<text text-anchor="middle" x="2321" y="-1756.05" font-family="Times,serif" font-size="14.00">pe_max_penalty</text>
</g>
<!-- pe_max_penalty&#45;&gt;run_dragen_alignment_step -->
<g id="edge47" class="edge">
<title>pe_max_penalty&#45;&gt;run_dragen_alignment_step</title>
<path fill="none" stroke="black" d="M2343.87,-1741.05C2358.18,-1730.68 2377.39,-1718.05 2396,-1709.75 2931.66,-1471.16 3628.56,-1342.31 3896.92,-1298.81"/>
<polygon fill="black" stroke="black" points="3897.74,-1302.22 3907.05,-1297.17 3896.62,-1295.31 3897.74,-1302.22"/>
</g>
<!-- pe_orientation -->
<g id="node40" class="node">
<title>pe_orientation</title>
<polygon fill="#94ddf4" stroke="black" points="2118.5,-1741.25 2118.5,-1778.25 2237.5,-1778.25 2237.5,-1741.25 2118.5,-1741.25"/>
<text text-anchor="middle" x="2178" y="-1756.05" font-family="Times,serif" font-size="14.00">pe_orientation</text>
</g>
<!-- pe_orientation&#45;&gt;run_dragen_alignment_step -->
<g id="edge48" class="edge">
<title>pe_orientation&#45;&gt;run_dragen_alignment_step</title>
<path fill="none" stroke="black" d="M2198.46,-1741.07C2211.56,-1730.58 2229.35,-1717.8 2247,-1709.75 2834.35,-1441.88 3611.35,-1328.53 3897.27,-1294.03"/>
<polygon fill="black" stroke="black" points="3897.72,-1297.5 3907.23,-1292.83 3896.88,-1290.55 3897.72,-1297.5"/>
</g>
<!-- preserve_map_align_order -->
<g id="node41" class="node">
<title>preserve_map_align_order</title>
<polygon fill="#94ddf4" stroke="black" points="1895.5,-1741.25 1895.5,-1778.25 2100.5,-1778.25 2100.5,-1741.25 1895.5,-1741.25"/>
<text text-anchor="middle" x="1998" y="-1756.05" font-family="Times,serif" font-size="14.00">preserve_map_align_order</text>
</g>
<!-- preserve_map_align_order&#45;&gt;run_dragen_alignment_step -->
<g id="edge49" class="edge">
<title>preserve_map_align_order&#45;&gt;run_dragen_alignment_step</title>
<path fill="none" stroke="black" d="M2033.64,-1741.08C2055.31,-1730.86 2083.78,-1718.36 2110,-1709.75 2772.8,-1492.28 3601.3,-1347.26 3897.43,-1299.23"/>
<polygon fill="black" stroke="black" points="3898,-1302.69 3907.31,-1297.64 3896.88,-1295.78 3898,-1302.69"/>
</g>
<!-- reference_tar -->
<g id="node42" class="node">
<title>reference_tar</title>
<polygon fill="#94ddf4" stroke="black" points="1764.5,-1741.25 1764.5,-1778.25 1877.5,-1778.25 1877.5,-1741.25 1764.5,-1741.25"/>
<text text-anchor="middle" x="1821" y="-1756.05" font-family="Times,serif" font-size="14.00">reference_tar</text>
</g>
<!-- reference_tar&#45;&gt;run_dragen_alignment_step -->
<g id="edge50" class="edge">
<title>reference_tar&#45;&gt;run_dragen_alignment_step</title>
<path fill="none" stroke="black" d="M1840.06,-1741.04C1852.52,-1730.4 1869.66,-1717.47 1887,-1709.75 2607.27,-1389.11 3572.05,-1306.57 3896.92,-1287.21"/>
<polygon fill="black" stroke="black" points="3897.5,-1290.69 3907.27,-1286.61 3897.09,-1283.7 3897.5,-1290.69"/>
</g>
<!-- remove_duplicates -->
<g id="node43" class="node">
<title>remove_duplicates</title>
<polygon fill="#94ddf4" stroke="black" points="1596,-1741.25 1596,-1778.25 1746,-1778.25 1746,-1741.25 1596,-1741.25"/>
<text text-anchor="middle" x="1671" y="-1756.05" font-family="Times,serif" font-size="14.00">remove_duplicates</text>
</g>
<!-- remove_duplicates&#45;&gt;run_dragen_alignment_step -->
<g id="edge51" class="edge">
<title>remove_duplicates&#45;&gt;run_dragen_alignment_step</title>
<path fill="none" stroke="black" d="M1696.3,-1741.15C1712.65,-1730.55 1734.76,-1717.64 1756,-1709.75 2543.14,-1417.66 3562.25,-1316.37 3897.05,-1289.73"/>
<polygon fill="black" stroke="black" points="3897.54,-1293.21 3907.24,-1288.93 3896.99,-1286.23 3897.54,-1293.21"/>
</g>
<!-- rescue_sigmas -->
<g id="node44" class="node">
<title>rescue_sigmas</title>
<polygon fill="#94ddf4" stroke="black" points="1456.5,-1741.25 1456.5,-1778.25 1577.5,-1778.25 1577.5,-1741.25 1456.5,-1741.25"/>
<text text-anchor="middle" x="1517" y="-1756.05" font-family="Times,serif" font-size="14.00">rescue_sigmas</text>
</g>
<!-- rescue_sigmas&#45;&gt;run_dragen_alignment_step -->
<g id="edge52" class="edge">
<title>rescue_sigmas&#45;&gt;run_dragen_alignment_step</title>
<path fill="none" stroke="black" d="M1537.03,-1741.16C1550.32,-1730.43 1568.64,-1717.36 1587,-1709.75 2426.6,-1361.86 3544.26,-1296.6 3897.27,-1284.48"/>
<polygon fill="black" stroke="black" points="3897.62,-1287.97 3907.49,-1284.14 3897.38,-1280.98 3897.62,-1287.97"/>
</g>
<!-- sec_aligns -->
<g id="node45" class="node">
<title>sec_aligns</title>
<polygon fill="#94ddf4" stroke="black" points="1349.5,-1741.25 1349.5,-1778.25 1438.5,-1778.25 1438.5,-1741.25 1349.5,-1741.25"/>
<text text-anchor="middle" x="1394" y="-1756.05" font-family="Times,serif" font-size="14.00">sec_aligns</text>
</g>
<!-- sec_aligns&#45;&gt;run_dragen_alignment_step -->
<g id="edge53" class="edge">
<title>sec_aligns&#45;&gt;run_dragen_alignment_step</title>
<path fill="none" stroke="black" d="M1408.7,-1741.02C1418.65,-1730.23 1432.73,-1717.15 1448,-1709.75 1894.01,-1493.62 3463.35,-1333 3897.15,-1292"/>
<polygon fill="black" stroke="black" points="3897.56,-1295.47 3907.19,-1291.05 3896.9,-1288.5 3897.56,-1295.47"/>
</g>
<!-- sec_aligns_hard -->
<g id="node46" class="node">
<title>sec_aligns_hard</title>
<polygon fill="#94ddf4" stroke="black" points="1202.5,-1741.25 1202.5,-1778.25 1331.5,-1778.25 1331.5,-1741.25 1202.5,-1741.25"/>
<text text-anchor="middle" x="1267" y="-1756.05" font-family="Times,serif" font-size="14.00">sec_aligns_hard</text>
</g>
<!-- sec_aligns_hard&#45;&gt;run_dragen_alignment_step -->
<g id="edge54" class="edge">
<title>sec_aligns_hard&#45;&gt;run_dragen_alignment_step</title>
<path fill="none" stroke="black" d="M1288.29,-1741.09C1302.39,-1730.33 1321.76,-1717.26 1341,-1709.75 2279.99,-1343.43 3522.13,-1290.52 3897.16,-1282.98"/>
<polygon fill="black" stroke="black" points="3897.27,-1286.48 3907.2,-1282.78 3897.13,-1279.48 3897.27,-1286.48"/>
</g>
<!-- sec_phred_delta -->
<g id="node47" class="node">
<title>sec_phred_delta</title>
<polygon fill="#94ddf4" stroke="black" points="1053.5,-1741.25 1053.5,-1778.25 1184.5,-1778.25 1184.5,-1741.25 1053.5,-1741.25"/>
<text text-anchor="middle" x="1119" y="-1756.05" font-family="Times,serif" font-size="14.00">sec_phred_delta</text>
</g>
<!-- sec_phred_delta&#45;&gt;run_dragen_alignment_step -->
<g id="edge55" class="edge">
<title>sec_phred_delta&#45;&gt;run_dragen_alignment_step</title>
<path fill="none" stroke="black" d="M1140.6,-1741.04C1154.89,-1730.27 1174.53,-1717.19 1194,-1709.75 2191.31,-1328.89 3509.27,-1286.03 3897.14,-1281.94"/>
<polygon fill="black" stroke="black" points="3897.28,-1285.44 3907.24,-1281.84 3897.21,-1278.44 3897.28,-1285.44"/>
</g>
<!-- sec_score_delta -->
<g id="node48" class="node">
<title>sec_score_delta</title>
<polygon fill="#94ddf4" stroke="black" points="907,-1741.25 907,-1778.25 1035,-1778.25 1035,-1741.25 907,-1741.25"/>
<text text-anchor="middle" x="971" y="-1756.05" font-family="Times,serif" font-size="14.00">sec_score_delta</text>
</g>
<!-- sec_score_delta&#45;&gt;run_dragen_alignment_step -->
<g id="edge56" class="edge">
<title>sec_score_delta&#45;&gt;run_dragen_alignment_step</title>
<path fill="none" stroke="black" d="M991.94,-1741.23C1006.05,-1730.38 1025.56,-1717.16 1045,-1709.75 1585.14,-1503.88 3423.15,-1332.74 3896.88,-1291.32"/>
<polygon fill="black" stroke="black" points="3897.49,-1294.78 3907.15,-1290.42 3896.88,-1287.81 3897.49,-1294.78"/>
</g>
<!-- seed_density -->
<g id="node49" class="node">
<title>seed_density</title>
<polygon fill="#94ddf4" stroke="black" points="779.5,-1741.25 779.5,-1778.25 888.5,-1778.25 888.5,-1741.25 779.5,-1741.25"/>
<text text-anchor="middle" x="834" y="-1756.05" font-family="Times,serif" font-size="14.00">seed_density</text>
</g>
<!-- seed_density&#45;&gt;run_dragen_alignment_step -->
<g id="edge57" class="edge">
<title>seed_density&#45;&gt;run_dragen_alignment_step</title>
<path fill="none" stroke="black" d="M851.69,-1741.14C863.72,-1730.25 880.56,-1717.03 898,-1709.75 1459.77,-1475.5 3408.22,-1324.29 3897.08,-1289.46"/>
<polygon fill="black" stroke="black" points="3897.58,-1292.93 3907.31,-1288.73 3897.09,-1285.95 3897.58,-1292.93"/>
</g>
<!-- supp_aligns -->
<g id="node50" class="node">
<title>supp_aligns</title>
<polygon fill="#94ddf4" stroke="black" points="660.5,-1741.25 660.5,-1778.25 761.5,-1778.25 761.5,-1741.25 660.5,-1741.25"/>
<text text-anchor="middle" x="711" y="-1756.05" font-family="Times,serif" font-size="14.00">supp_aligns</text>
</g>
<!-- supp_aligns&#45;&gt;run_dragen_alignment_step -->
<g id="edge58" class="edge">
<title>supp_aligns&#45;&gt;run_dragen_alignment_step</title>
<path fill="none" stroke="black" d="M727.37,-1741.09C738.56,-1730.19 754.34,-1716.96 771,-1709.75 1353.98,-1457.68 3396.2,-1319.03 3897.33,-1288.32"/>
<polygon fill="black" stroke="black" points="3897.69,-1291.81 3907.46,-1287.7 3897.26,-1284.82 3897.69,-1291.81"/>
</g>
<!-- supp_as_sec -->
<g id="node51" class="node">
<title>supp_as_sec</title>
<polygon fill="#94ddf4" stroke="black" points="538,-1741.25 538,-1778.25 642,-1778.25 642,-1741.25 538,-1741.25"/>
<text text-anchor="middle" x="590" y="-1756.05" font-family="Times,serif" font-size="14.00">supp_as_sec</text>
</g>
<!-- supp_as_sec&#45;&gt;run_dragen_alignment_step -->
<g id="edge59" class="edge">
<title>supp_as_sec&#45;&gt;run_dragen_alignment_step</title>
<path fill="none" stroke="black" d="M607.02,-1741.07C618.62,-1730.16 634.92,-1716.93 652,-1709.75 1260.2,-1454.18 3384.68,-1317.64 3897.14,-1287.97"/>
<polygon fill="black" stroke="black" points="3897.35,-1291.46 3907.13,-1287.39 3896.94,-1284.47 3897.35,-1291.46"/>
</g>
<!-- supp_min_score_adj -->
<g id="node52" class="node">
<title>supp_min_score_adj</title>
<polygon fill="#94ddf4" stroke="black" points="362,-1741.25 362,-1778.25 520,-1778.25 520,-1741.25 362,-1741.25"/>
<text text-anchor="middle" x="441" y="-1756.05" font-family="Times,serif" font-size="14.00">supp_min_score_adj</text>
</g>
<!-- supp_min_score_adj&#45;&gt;run_dragen_alignment_step -->
<g id="edge60" class="edge">
<title>supp_min_score_adj&#45;&gt;run_dragen_alignment_step</title>
<path fill="none" stroke="black" d="M466.35,-1741.17C483.31,-1730.3 506.56,-1717.07 529,-1709.75 1180.09,-1497.44 3375.03,-1327.71 3896.96,-1289.72"/>
<polygon fill="black" stroke="black" points="3897.41,-1293.2 3907.13,-1288.98 3896.9,-1286.21 3897.41,-1293.2"/>
</g>
<!-- unclip_score -->
<g id="node53" class="node">
<title>unclip_score</title>
<polygon fill="#94ddf4" stroke="black" points="238.5,-1741.25 238.5,-1778.25 343.5,-1778.25 343.5,-1741.25 238.5,-1741.25"/>
<text text-anchor="middle" x="291" y="-1756.05" font-family="Times,serif" font-size="14.00">unclip_score</text>
</g>
<!-- unclip_score&#45;&gt;run_dragen_alignment_step -->
<g id="edge61" class="edge">
<title>unclip_score&#45;&gt;run_dragen_alignment_step</title>
<path fill="none" stroke="black" d="M307.99,-1741.01C319.58,-1730.08 335.89,-1716.84 353,-1709.75 1019.97,-1433.51 3357.29,-1311.5 3897.14,-1286.65"/>
<polygon fill="black" stroke="black" points="3897.44,-1290.14 3907.27,-1286.18 3897.12,-1283.15 3897.44,-1290.14"/>
</g>
<!-- unpaired_pen -->
<g id="node54" class="node">
<title>unpaired_pen</title>
<polygon fill="#94ddf4" stroke="black" points="107.5,-1741.25 107.5,-1778.25 220.5,-1778.25 220.5,-1741.25 107.5,-1741.25"/>
<text text-anchor="middle" x="164" y="-1756.05" font-family="Times,serif" font-size="14.00">unpaired_pen</text>
</g>
<!-- unpaired_pen&#45;&gt;run_dragen_alignment_step -->
<g id="edge62" class="edge">
<title>unpaired_pen&#45;&gt;run_dragen_alignment_step</title>
<path fill="none" stroke="black" d="M182.01,-1741.24C194.45,-1730.26 211.95,-1716.88 230,-1709.75 925.19,-1435.54 3345.7,-1311.62 3896.76,-1286.61"/>
<polygon fill="black" stroke="black" points="3897.26,-1290.09 3907.09,-1286.14 3896.94,-1283.1 3897.26,-1290.09"/>
</g>
<!-- verbose -->
<g id="node55" class="node">
<title>verbose</title>
<polygon fill="#94ddf4" stroke="black" points="16.5,-1741.25 16.5,-1778.25 89.5,-1778.25 89.5,-1741.25 16.5,-1741.25"/>
<text text-anchor="middle" x="53" y="-1756.05" font-family="Times,serif" font-size="14.00">verbose</text>
</g>
<!-- verbose&#45;&gt;run_dragen_alignment_step -->
<g id="edge63" class="edge">
<title>verbose&#45;&gt;run_dragen_alignment_step</title>
<path fill="none" stroke="black" d="M64.15,-1741.22C72.16,-1730.23 83.98,-1716.85 98,-1709.75 790.06,-1359.55 3332.18,-1293.86 3897.22,-1283.5"/>
<polygon fill="black" stroke="black" points="3897.47,-1286.99 3907.41,-1283.31 3897.35,-1279.99 3897.47,-1286.99"/>
</g>
<!-- dragen_alignment_output_directory -->
<g id="node56" class="node">
<title>dragen_alignment_output_directory</title>
<polygon fill="#94ddf4" stroke="black" points="3873,-342.25 3873,-379.25 4145,-379.25 4145,-342.25 3873,-342.25"/>
<text text-anchor="middle" x="4009" y="-357.05" font-family="Times,serif" font-size="14.00">dragen_alignment_output_directory</text>
</g>
<!-- dragen_bam_out -->
<g id="node57" class="node">
<title>dragen_bam_out</title>
<polygon fill="#94ddf4" stroke="black" points="4163,-342.25 4163,-379.25 4297,-379.25 4297,-342.25 4163,-342.25"/>
<text text-anchor="middle" x="4230" y="-357.05" font-family="Times,serif" font-size="14.00">dragen_bam_out</text>
</g>
<!-- multiqc_output_directory -->
<g id="node58" class="node">
<title>multiqc_output_directory</title>
<polygon fill="#94ddf4" stroke="black" points="4315.5,-342.25 4315.5,-379.25 4512.5,-379.25 4512.5,-342.25 4315.5,-342.25"/>
<text text-anchor="middle" x="4414" y="-357.05" font-family="Times,serif" font-size="14.00">multiqc_output_directory</text>
</g>
<!-- run_dragen_alignment_step&#45;&gt;dragen_alignment_output_directory -->
<g id="edge2" class="edge">
<title>run_dragen_alignment_step&#45;&gt;dragen_alignment_output_directory</title>
<path fill="none" stroke="black" d="M4009,-1262.24C4009,-1149.77 4009,-529.5 4009,-389.74"/>
<polygon fill="black" stroke="black" points="4012.5,-389.46 4009,-379.46 4005.5,-389.46 4012.5,-389.46"/>
</g>
<!-- run_dragen_alignment_step&#45;&gt;dragen_bam_out -->
<g id="edge3" class="edge">
<title>run_dragen_alignment_step&#45;&gt;dragen_bam_out</title>
<path fill="none" stroke="black" d="M4013.22,-1262.24C4040.32,-1149.66 4189.92,-528.26 4223.36,-389.32"/>
<polygon fill="black" stroke="black" points="4226.8,-390 4225.74,-379.46 4219.99,-388.36 4226.8,-390"/>
</g>
<!-- run_dragen_alignment_step&#45;&gt;dragen_qc_step -->
<g id="edge1" class="edge">
<title>run_dragen_alignment_step&#45;&gt;dragen_qc_step</title>
<path fill="none" stroke="black" d="M4110.8,-1266.79C4638.1,-1199.61 7052.61,-892 7524.05,-831.94"/>
<polygon fill="black" stroke="black" points="7524.69,-835.39 7534.17,-830.65 7523.81,-828.44 7524.69,-835.39"/>
</g>
<!-- dragen_qc_step&#45;&gt;multiqc_output_directory -->
<g id="edge4" class="edge">
<title>dragen_qc_step&#45;&gt;multiqc_output_directory</title>
<path fill="none" stroke="black" d="M7534.41,-809.76C7124.59,-750.92 5026.73,-449.73 4522.89,-377.39"/>
<polygon fill="black" stroke="black" points="4523.11,-373.88 4512.72,-375.93 4522.12,-380.81 4523.11,-373.88"/>
</g>
<!-- create_dummy_file_step -->
<g id="node61" class="node">
<title>create_dummy_file_step</title>
<polygon fill="lightgoldenrodyellow" stroke="black" points="7650.5,-1262.25 7650.5,-1299.25 7911.5,-1299.25 7911.5,-1262.25 7650.5,-1262.25"/>
<text text-anchor="middle" x="7781" y="-1277.05" font-family="Times,serif" font-size="14.00">custom&#45;create&#45;dummy&#45;file v(1.0.0)</text>
</g>
<!-- create_dummy_file_step&#45;&gt;dragen_qc_step -->
<g id="edge5" class="edge">
<title>create_dummy_file_step&#45;&gt;dragen_qc_step</title>
<path fill="none" stroke="black" d="M7774.17,-1262.08C7747.12,-1192.1 7647.42,-934.1 7614.57,-849.11"/>
<polygon fill="black" stroke="black" points="7617.77,-847.69 7610.91,-839.62 7611.25,-850.21 7617.77,-847.69"/>
</g>
<!-- \n -->
<g id="node62" class="node">
<title>\n</title>
<ellipse fill="none" stroke="black" cx="7719" cy="-1759.75" rx="27" ry="18"/>
</g>
</g>
</svg>
