<?xml version="1.0" encoding="UTF-8" standalone="no"?>
<!DOCTYPE svg PUBLIC "-//W3C//DTD SVG 1.1//EN"
 "http://www.w3.org/Graphics/SVG/1.1/DTD/svg11.dtd">
<!-- Generated by graphviz version 2.43.0 (0)
 -->
<!-- Title: G Pages: 1 -->
<svg width="7754pt" height="1944pt"
 viewBox="0.00 0.00 7754.00 1944.50" xmlns="http://www.w3.org/2000/svg" xmlns:xlink="http://www.w3.org/1999/xlink">
<g id="graph0" class="graph" transform="scale(1 1) rotate(0) translate(4 1940.5)">
<title>G</title>
<polygon fill="#eeeeee" stroke="transparent" points="-4,4 -4,-1940.5 7750,-1940.5 7750,4 -4,4"/>
<g id="clust1" class="cluster">
<title>cluster_inputs</title>
<polygon fill="#eeeeee" stroke="black" stroke-dasharray="5,2" points="8,-1418.88 8,-1887.78 7682,-1887.78 7682,-1418.88 8,-1418.88"/>
<text text-anchor="middle" x="7615.5" y="-1426.68" font-family="Times,serif" font-size="14.00">Workflow Inputs</text>
</g>
<g id="clust2" class="cluster">
<title>cluster_outputs</title>
<polygon fill="#eeeeee" stroke="black" stroke-dasharray="5,2" points="3231,-48.72 3231,-517.62 3887,-517.62 3887,-48.72 3231,-48.72"/>
<text text-anchor="middle" x="3814.5" y="-56.52" font-family="Times,serif" font-size="14.00">Workflow Outputs</text>
</g>
<!-- output_file_prefix -->
<g id="node1" class="node">
<title>output_file_prefix</title>
<polygon fill="#94ddf4" stroke="black" points="16,-1705.22 16,-1742.22 156,-1742.22 156,-1705.22 16,-1705.22"/>
<text text-anchor="middle" x="86" y="-1720.02" font-family="Times,serif" font-size="14.00">output_file_prefix</text>
</g>
<!-- dragen_qc_step -->
<g id="node60" class="node">
<title>dragen_qc_step</title>
<polygon fill="lightgoldenrodyellow" stroke="black" points="16.5,-785.22 16.5,-822.22 155.5,-822.22 155.5,-785.22 16.5,-785.22"/>
<text text-anchor="middle" x="86" y="-800.02" font-family="Times,serif" font-size="14.00">multiqc v(1.14.0)</text>
</g>
<!-- output_file_prefix&#45;&gt;dragen_qc_step -->
<g id="edge6" class="edge">
<title>output_file_prefix&#45;&gt;dragen_qc_step</title>
<path fill="none" stroke="black" d="M81.93,-1705.2C69.69,-1592.73 69.36,-972.47 80.95,-832.7"/>
<polygon fill="black" stroke="black" points="84.46,-832.7 81.91,-822.42 77.49,-832.05 84.46,-832.7"/>
</g>
<!-- output_file_prefix&#45;&gt;dragen_qc_step -->
<g id="edge7" class="edge">
<title>output_file_prefix&#45;&gt;dragen_qc_step</title>
<path fill="none" stroke="black" d="M86,-1705.2C86,-1592.73 86,-972.47 86,-832.7"/>
<polygon fill="black" stroke="black" points="89.5,-832.42 86,-822.42 82.5,-832.42 89.5,-832.42"/>
</g>
<!-- output_file_prefix&#45;&gt;dragen_qc_step -->
<g id="edge8" class="edge">
<title>output_file_prefix&#45;&gt;dragen_qc_step</title>
<path fill="none" stroke="black" d="M90.07,-1705.2C102.31,-1592.73 102.64,-972.47 91.05,-832.7"/>
<polygon fill="black" stroke="black" points="94.51,-832.05 90.09,-822.42 87.54,-832.7 94.51,-832.05"/>
</g>
<!-- run_dragen_alignment_step -->
<g id="node61" class="node">
<title>run_dragen_alignment_step</title>
<polygon fill="lightgoldenrodyellow" stroke="black" points="3710.5,-1236.22 3710.5,-1273.22 3913.5,-1273.22 3913.5,-1236.22 3710.5,-1236.22"/>
<text text-anchor="middle" x="3812" y="-1251.02" font-family="Times,serif" font-size="14.00">dragen&#45;alignment v(4.0.3)</text>
</g>
<!-- output_file_prefix&#45;&gt;run_dragen_alignment_step -->
<g id="edge9" class="edge">
<title>output_file_prefix&#45;&gt;run_dragen_alignment_step</title>
<path fill="none" stroke="black" d="M108.79,-1705.03C124.1,-1694.12 145.21,-1680.88 166,-1673.72 846.1,-1439.36 3163.12,-1293.22 3700.2,-1262.01"/>
<polygon fill="black" stroke="black" points="3700.49,-1265.5 3710.27,-1261.42 3700.09,-1258.51 3700.49,-1265.5"/>
</g>
<!-- aln_min_score -->
<g id="node2" class="node">
<title>aln_min_score</title>
<polygon fill="#94ddf4" stroke="black" points="7465.5,-1705.22 7465.5,-1742.22 7582.5,-1742.22 7582.5,-1705.22 7465.5,-1705.22"/>
<text text-anchor="middle" x="7524" y="-1720.02" font-family="Times,serif" font-size="14.00">aln_min_score</text>
</g>
<!-- aln_min_score&#45;&gt;run_dragen_alignment_step -->
<g id="edge10" class="edge">
<title>aln_min_score&#45;&gt;run_dragen_alignment_step</title>
<path fill="none" stroke="black" d="M7505.06,-1704.98C7492.23,-1694.05 7474.32,-1680.81 7456,-1673.72 6785.33,-1414.12 4461.43,-1287.21 3923.68,-1260.94"/>
<polygon fill="black" stroke="black" points="3923.75,-1257.44 3913.6,-1260.45 3923.41,-1264.43 3923.75,-1257.44"/>
</g>
<!-- alt_aware -->
<g id="node3" class="node">
<title>alt_aware</title>
<polygon fill="#94ddf4" stroke="black" points="7361,-1705.22 7361,-1742.22 7447,-1742.22 7447,-1705.22 7361,-1705.22"/>
<text text-anchor="middle" x="7404" y="-1720.02" font-family="Times,serif" font-size="14.00">alt_aware</text>
</g>
<!-- alt_aware&#45;&gt;run_dragen_alignment_step -->
<g id="edge11" class="edge">
<title>alt_aware&#45;&gt;run_dragen_alignment_step</title>
<path fill="none" stroke="black" d="M7390.51,-1705.21C7381.01,-1694.23 7367.29,-1680.85 7352,-1673.72 6719.87,-1378.73 4455.78,-1279.13 3924.26,-1259.55"/>
<polygon fill="black" stroke="black" points="3924.03,-1256.04 3913.91,-1259.17 3923.77,-1263.04 3924.03,-1256.04"/>
</g>
<!-- ann_sj_max_indel -->
<g id="node4" class="node">
<title>ann_sj_max_indel</title>
<polygon fill="#94ddf4" stroke="black" points="7203,-1705.22 7203,-1742.22 7343,-1742.22 7343,-1705.22 7203,-1705.22"/>
<text text-anchor="middle" x="7273" y="-1720.02" font-family="Times,serif" font-size="14.00">ann_sj_max_indel</text>
</g>
<!-- ann_sj_max_indel&#45;&gt;run_dragen_alignment_step -->
<g id="edge12" class="edge">
<title>ann_sj_max_indel&#45;&gt;run_dragen_alignment_step</title>
<path fill="none" stroke="black" d="M7250.51,-1705.08C7235.39,-1694.19 7214.55,-1680.96 7194,-1673.72 6567.34,-1452.7 4436.41,-1297.71 3923.65,-1263.05"/>
<polygon fill="black" stroke="black" points="3923.87,-1259.56 3913.65,-1262.38 3923.39,-1266.54 3923.87,-1259.56"/>
</g>
<!-- dedup_min_qual -->
<g id="node5" class="node">
<title>dedup_min_qual</title>
<polygon fill="#94ddf4" stroke="black" points="7053,-1705.22 7053,-1742.22 7185,-1742.22 7185,-1705.22 7053,-1705.22"/>
<text text-anchor="middle" x="7119" y="-1720.02" font-family="Times,serif" font-size="14.00">dedup_min_qual</text>
</g>
<!-- dedup_min_qual&#45;&gt;run_dragen_alignment_step -->
<g id="edge13" class="edge">
<title>dedup_min_qual&#45;&gt;run_dragen_alignment_step</title>
<path fill="none" stroke="black" d="M7097.77,-1705.1C7083.48,-1694.22 7063.7,-1680.99 7044,-1673.72 6449.82,-1454.35 4422.76,-1298.96 3923.7,-1263.44"/>
<polygon fill="black" stroke="black" points="3923.84,-1259.94 3913.61,-1262.72 3923.34,-1266.92 3923.84,-1259.94"/>
</g>
<!-- edit_chain_limit -->
<g id="node6" class="node">
<title>edit_chain_limit</title>
<polygon fill="#94ddf4" stroke="black" points="6905.5,-1705.22 6905.5,-1742.22 7034.5,-1742.22 7034.5,-1705.22 6905.5,-1705.22"/>
<text text-anchor="middle" x="6970" y="-1720.02" font-family="Times,serif" font-size="14.00">edit_chain_limit</text>
</g>
<!-- edit_chain_limit&#45;&gt;run_dragen_alignment_step -->
<g id="edge14" class="edge">
<title>edit_chain_limit&#45;&gt;run_dragen_alignment_step</title>
<path fill="none" stroke="black" d="M6949.08,-1705.13C6934.98,-1694.27 6915.47,-1681.04 6896,-1673.72 6331.88,-1461.51 4408.81,-1301.71 3923.79,-1264.14"/>
<polygon fill="black" stroke="black" points="3923.87,-1260.64 3913.63,-1263.36 3923.33,-1267.62 3923.87,-1260.64"/>
</g>
<!-- edit_mode -->
<g id="node7" class="node">
<title>edit_mode</title>
<polygon fill="#94ddf4" stroke="black" points="6797,-1705.22 6797,-1742.22 6887,-1742.22 6887,-1705.22 6797,-1705.22"/>
<text text-anchor="middle" x="6842" y="-1720.02" font-family="Times,serif" font-size="14.00">edit_mode</text>
</g>
<!-- edit_mode&#45;&gt;run_dragen_alignment_step -->
<g id="edge15" class="edge">
<title>edit_mode&#45;&gt;run_dragen_alignment_step</title>
<path fill="none" stroke="black" d="M6827.36,-1704.84C6817.44,-1694 6803.36,-1680.92 6788,-1673.72 6262.16,-1427.3 4400.56,-1293.37 3923.85,-1262.62"/>
<polygon fill="black" stroke="black" points="3923.73,-1259.11 3913.53,-1261.96 3923.28,-1266.09 3923.73,-1259.11"/>
</g>
<!-- edit_read_len -->
<g id="node8" class="node">
<title>edit_read_len</title>
<polygon fill="#94ddf4" stroke="black" points="6667,-1705.22 6667,-1742.22 6779,-1742.22 6779,-1705.22 6667,-1705.22"/>
<text text-anchor="middle" x="6723" y="-1720.02" font-family="Times,serif" font-size="14.00">edit_read_len</text>
</g>
<!-- edit_read_len&#45;&gt;run_dragen_alignment_step -->
<g id="edge16" class="edge">
<title>edit_read_len&#45;&gt;run_dragen_alignment_step</title>
<path fill="none" stroke="black" d="M6704.96,-1705.16C6692.72,-1694.3 6675.6,-1681.07 6658,-1673.72 6147.15,-1460.2 4386.06,-1302.96 3923.83,-1264.7"/>
<polygon fill="black" stroke="black" points="3924.07,-1261.21 3913.81,-1263.87 3923.49,-1268.18 3924.07,-1261.21"/>
</g>
<!-- edit_seed_num -->
<g id="node9" class="node">
<title>edit_seed_num</title>
<polygon fill="#94ddf4" stroke="black" points="6527,-1705.22 6527,-1742.22 6649,-1742.22 6649,-1705.22 6527,-1705.22"/>
<text text-anchor="middle" x="6588" y="-1720.02" font-family="Times,serif" font-size="14.00">edit_seed_num</text>
</g>
<!-- edit_seed_num&#45;&gt;run_dragen_alignment_step -->
<g id="edge17" class="edge">
<title>edit_seed_num&#45;&gt;run_dragen_alignment_step</title>
<path fill="none" stroke="black" d="M6568.03,-1704.99C6554.76,-1694.2 6536.45,-1681.13 6518,-1673.72 5568.64,-1292.33 4302.93,-1256.78 3923.82,-1255.13"/>
<polygon fill="black" stroke="black" points="3923.69,-1251.63 3913.68,-1255.09 3923.66,-1258.63 3923.69,-1251.63"/>
</g>
<!-- en_alt_hap_aln -->
<g id="node10" class="node">
<title>en_alt_hap_aln</title>
<polygon fill="#94ddf4" stroke="black" points="6387.5,-1705.22 6387.5,-1742.22 6508.5,-1742.22 6508.5,-1705.22 6387.5,-1705.22"/>
<text text-anchor="middle" x="6448" y="-1720.02" font-family="Times,serif" font-size="14.00">en_alt_hap_aln</text>
</g>
<!-- en_alt_hap_aln&#45;&gt;run_dragen_alignment_step -->
<g id="edge18" class="edge">
<title>en_alt_hap_aln&#45;&gt;run_dragen_alignment_step</title>
<path fill="none" stroke="black" d="M6428.33,-1705.03C6415.26,-1694.27 6397.21,-1681.19 6379,-1673.72 5484.59,-1306.63 4290.55,-1261.19 3923.81,-1256.14"/>
<polygon fill="black" stroke="black" points="3923.77,-1252.64 3913.73,-1256.01 3923.68,-1259.64 3923.77,-1252.64"/>
</g>
<!-- en_chimeric_aln -->
<g id="node11" class="node">
<title>en_chimeric_aln</title>
<polygon fill="#94ddf4" stroke="black" points="6238.5,-1705.22 6238.5,-1742.22 6369.5,-1742.22 6369.5,-1705.22 6238.5,-1705.22"/>
<text text-anchor="middle" x="6304" y="-1720.02" font-family="Times,serif" font-size="14.00">en_chimeric_aln</text>
</g>
<!-- en_chimeric_aln&#45;&gt;run_dragen_alignment_step -->
<g id="edge19" class="edge">
<title>en_chimeric_aln&#45;&gt;run_dragen_alignment_step</title>
<path fill="none" stroke="black" d="M6282.67,-1705.13C6268.56,-1694.41 6249.19,-1681.34 6230,-1673.72 5387.78,-1339.25 4275.75,-1272.01 3923.77,-1258.84"/>
<polygon fill="black" stroke="black" points="3923.7,-1255.34 3913.58,-1258.47 3923.45,-1262.33 3923.7,-1255.34"/>
</g>
<!-- enable_duplicate_marking -->
<g id="node12" class="node">
<title>enable_duplicate_marking</title>
<polygon fill="#94ddf4" stroke="black" points="6017.5,-1705.22 6017.5,-1742.22 6220.5,-1742.22 6220.5,-1705.22 6017.5,-1705.22"/>
<text text-anchor="middle" x="6119" y="-1720.02" font-family="Times,serif" font-size="14.00">enable_duplicate_marking</text>
</g>
<!-- enable_duplicate_marking&#45;&gt;run_dragen_alignment_step -->
<g id="edge20" class="edge">
<title>enable_duplicate_marking&#45;&gt;run_dragen_alignment_step</title>
<path fill="none" stroke="black" d="M6085.11,-1705.17C6063.76,-1694.74 6035.33,-1681.97 6009,-1673.72 5230.64,-1429.92 4250.3,-1304.77 3923.6,-1267.71"/>
<polygon fill="black" stroke="black" points="3923.99,-1264.23 3913.66,-1266.59 3923.21,-1271.19 3923.99,-1264.23"/>
</g>
<!-- enable_map_align -->
<g id="node13" class="node">
<title>enable_map_align</title>
<polygon fill="#94ddf4" stroke="black" points="5856.5,-1705.22 5856.5,-1742.22 5999.5,-1742.22 5999.5,-1705.22 5856.5,-1705.22"/>
<text text-anchor="middle" x="5928" y="-1720.02" font-family="Times,serif" font-size="14.00">enable_map_align</text>
</g>
<!-- enable_map_align&#45;&gt;run_dragen_alignment_step -->
<g id="edge21" class="edge">
<title>enable_map_align&#45;&gt;run_dragen_alignment_step</title>
<path fill="none" stroke="black" d="M5904.3,-1705.16C5888.95,-1694.59 5868.15,-1681.67 5848,-1673.72 5147.84,-1397.28 4236.8,-1293.81 3923.5,-1264.97"/>
<polygon fill="black" stroke="black" points="3923.78,-1261.48 3913.51,-1264.05 3923.15,-1268.45 3923.78,-1261.48"/>
</g>
<!-- enable_rna -->
<g id="node14" class="node">
<title>enable_rna</title>
<polygon fill="#94ddf4" stroke="black" points="5743.5,-1705.22 5743.5,-1742.22 5838.5,-1742.22 5838.5,-1705.22 5743.5,-1705.22"/>
<text text-anchor="middle" x="5791" y="-1720.02" font-family="Times,serif" font-size="14.00">enable_rna</text>
</g>
<!-- enable_rna&#45;&gt;run_dragen_alignment_step -->
<g id="edge22" class="edge">
<title>enable_rna&#45;&gt;run_dragen_alignment_step</title>
<path fill="none" stroke="black" d="M5775.03,-1704.76C5764.64,-1694.17 5750.23,-1681.39 5735,-1673.72 5101.18,-1354.6 4229.99,-1278.15 3923.83,-1260.66"/>
<polygon fill="black" stroke="black" points="3923.8,-1257.15 3913.62,-1260.09 3923.41,-1264.14 3923.8,-1257.15"/>
</g>
<!-- enable_rrna_filter -->
<g id="node15" class="node">
<title>enable_rrna_filter</title>
<polygon fill="#94ddf4" stroke="black" points="5582.5,-1705.22 5582.5,-1742.22 5725.5,-1742.22 5725.5,-1705.22 5582.5,-1705.22"/>
<text text-anchor="middle" x="5654" y="-1720.02" font-family="Times,serif" font-size="14.00">enable_rrna_filter</text>
</g>
<!-- enable_rrna_filter&#45;&gt;run_dragen_alignment_step -->
<g id="edge23" class="edge">
<title>enable_rrna_filter&#45;&gt;run_dragen_alignment_step</title>
<path fill="none" stroke="black" d="M5629.86,-1705.14C5614.52,-1694.69 5593.87,-1681.92 5574,-1673.72 4979.01,-1428.28 4208.83,-1308.08 3924.15,-1269.77"/>
<polygon fill="black" stroke="black" points="3924.2,-1266.24 3913.82,-1268.39 3923.27,-1273.18 3924.2,-1266.24"/>
</g>
<!-- enable_sort -->
<g id="node16" class="node">
<title>enable_sort</title>
<polygon fill="#94ddf4" stroke="black" points="5465.5,-1705.22 5465.5,-1742.22 5564.5,-1742.22 5564.5,-1705.22 5465.5,-1705.22"/>
<text text-anchor="middle" x="5515" y="-1720.02" font-family="Times,serif" font-size="14.00">enable_sort</text>
</g>
<!-- enable_sort&#45;&gt;run_dragen_alignment_step -->
<g id="edge24" class="edge">
<title>enable_sort&#45;&gt;run_dragen_alignment_step</title>
<path fill="none" stroke="black" d="M5497.91,-1704.98C5486.86,-1694.47 5471.66,-1681.69 5456,-1673.72 4922,-1401.77 4198.22,-1298.05 3923.75,-1266.94"/>
<polygon fill="black" stroke="black" points="3924.1,-1263.46 3913.78,-1265.82 3923.32,-1270.41 3924.1,-1263.46"/>
</g>
<!-- fastq_list -->
<g id="node17" class="node">
<title>fastq_list</title>
<polygon fill="#94ddf4" stroke="black" points="5365,-1705.22 5365,-1742.22 5447,-1742.22 5447,-1705.22 5365,-1705.22"/>
<text text-anchor="middle" x="5406" y="-1720.02" font-family="Times,serif" font-size="14.00">fastq_list</text>
</g>
<!-- fastq_list&#45;&gt;run_dragen_alignment_step -->
<g id="edge25" class="edge">
<title>fastq_list&#45;&gt;run_dragen_alignment_step</title>
<path fill="none" stroke="black" d="M5391.97,-1704.97C5382.78,-1694.46 5369.92,-1681.69 5356,-1673.72 4868.78,-1394.85 4188.27,-1295.76 3923.54,-1266.41"/>
<polygon fill="black" stroke="black" points="3923.85,-1262.92 3913.53,-1265.31 3923.09,-1269.88 3923.85,-1262.92"/>
</g>
<!-- fastq_list_rows -->
<g id="node18" class="node">
<title>fastq_list_rows</title>
<polygon fill="#94ddf4" stroke="black" points="5223.5,-1705.22 5223.5,-1742.22 5346.5,-1742.22 5346.5,-1705.22 5223.5,-1705.22"/>
<text text-anchor="middle" x="5285" y="-1720.02" font-family="Times,serif" font-size="14.00">fastq_list_rows</text>
</g>
<!-- fastq_list_rows&#45;&gt;run_dragen_alignment_step -->
<g id="edge26" class="edge">
<title>fastq_list_rows&#45;&gt;run_dragen_alignment_step</title>
<path fill="none" stroke="black" d="M5263.75,-1705.13C5250.42,-1694.8 5232.5,-1682.17 5215,-1673.72 4757.32,-1452.55 4158.43,-1321.83 3918.33,-1275.22"/>
<polygon fill="black" stroke="black" points="3918.69,-1271.73 3908.2,-1273.26 3917.36,-1278.6 3918.69,-1271.73"/>
</g>
<!-- gap_ext_pen -->
<g id="node19" class="node">
<title>gap_ext_pen</title>
<polygon fill="#94ddf4" stroke="black" points="5100.5,-1705.22 5100.5,-1742.22 5205.5,-1742.22 5205.5,-1705.22 5100.5,-1705.22"/>
<text text-anchor="middle" x="5153" y="-1720.02" font-family="Times,serif" font-size="14.00">gap_ext_pen</text>
</g>
<!-- gap_ext_pen&#45;&gt;run_dragen_alignment_step -->
<g id="edge27" class="edge">
<title>gap_ext_pen&#45;&gt;run_dragen_alignment_step</title>
<path fill="none" stroke="black" d="M5134.77,-1705.14C5123.26,-1694.82 5107.65,-1682.19 5092,-1673.72 4681.75,-1451.62 4133.3,-1321.78 3911.4,-1275.33"/>
<polygon fill="black" stroke="black" points="3911.9,-1271.86 3901.4,-1273.24 3910.48,-1278.71 3911.9,-1271.86"/>
</g>
<!-- gap_open_pen -->
<g id="node20" class="node">
<title>gap_open_pen</title>
<polygon fill="#94ddf4" stroke="black" points="4965.5,-1705.22 4965.5,-1742.22 5082.5,-1742.22 5082.5,-1705.22 4965.5,-1705.22"/>
<text text-anchor="middle" x="5024" y="-1720.02" font-family="Times,serif" font-size="14.00">gap_open_pen</text>
</g>
<!-- gap_open_pen&#45;&gt;run_dragen_alignment_step -->
<g id="edge28" class="edge">
<title>gap_open_pen&#45;&gt;run_dragen_alignment_step</title>
<path fill="none" stroke="black" d="M5003.29,-1705.21C4990.54,-1695.04 4973.52,-1682.55 4957,-1673.72 4577.9,-1471.15 4079.58,-1326.89 3889.87,-1275.93"/>
<polygon fill="black" stroke="black" points="3890.55,-1272.49 3879.98,-1273.28 3888.74,-1279.25 3890.55,-1272.49"/>
</g>
<!-- generate_md_tags -->
<g id="node21" class="node">
<title>generate_md_tags</title>
<polygon fill="#94ddf4" stroke="black" points="4800.5,-1705.22 4800.5,-1742.22 4947.5,-1742.22 4947.5,-1705.22 4800.5,-1705.22"/>
<text text-anchor="middle" x="4874" y="-1720.02" font-family="Times,serif" font-size="14.00">generate_md_tags</text>
</g>
<!-- generate_md_tags&#45;&gt;run_dragen_alignment_step -->
<g id="edge29" class="edge">
<title>generate_md_tags&#45;&gt;run_dragen_alignment_step</title>
<path fill="none" stroke="black" d="M4846.08,-1705.01C4830.21,-1695.25 4809.81,-1683.24 4791,-1673.72 4449.72,-1501.04 4020.42,-1334.37 3868.45,-1276.85"/>
<polygon fill="black" stroke="black" points="3869.44,-1273.48 3858.85,-1273.22 3866.96,-1280.03 3869.44,-1273.48"/>
</g>
<!-- generate_sa_tags -->
<g id="node22" class="node">
<title>generate_sa_tags</title>
<polygon fill="#94ddf4" stroke="black" points="4642,-1705.22 4642,-1742.22 4782,-1742.22 4782,-1705.22 4642,-1705.22"/>
<text text-anchor="middle" x="4712" y="-1720.02" font-family="Times,serif" font-size="14.00">generate_sa_tags</text>
</g>
<!-- generate_sa_tags&#45;&gt;run_dragen_alignment_step -->
<g id="edge30" class="edge">
<title>generate_sa_tags&#45;&gt;run_dragen_alignment_step</title>
<path fill="none" stroke="black" d="M4684.92,-1705.13C4669.82,-1695.53 4650.58,-1683.62 4633,-1673.72 4344.11,-1510.96 3984.7,-1337.69 3858.45,-1277.66"/>
<polygon fill="black" stroke="black" points="3859.94,-1274.5 3849.41,-1273.37 3856.94,-1280.82 3859.94,-1274.5"/>
</g>
<!-- generate_zs_tags -->
<g id="node23" class="node">
<title>generate_zs_tags</title>
<polygon fill="#94ddf4" stroke="black" points="4484,-1705.22 4484,-1742.22 4624,-1742.22 4624,-1705.22 4484,-1705.22"/>
<text text-anchor="middle" x="4554" y="-1720.02" font-family="Times,serif" font-size="14.00">generate_zs_tags</text>
</g>
<!-- generate_zs_tags&#45;&gt;run_dragen_alignment_step -->
<g id="edge31" class="edge">
<title>generate_zs_tags&#45;&gt;run_dragen_alignment_step</title>
<path fill="none" stroke="black" d="M4525.82,-1704.98C4410.91,-1632.66 3977.76,-1360.04 3848.58,-1278.74"/>
<polygon fill="black" stroke="black" points="3850.14,-1275.59 3839.81,-1273.22 3846.41,-1281.51 3850.14,-1275.59"/>
</g>
<!-- global -->
<g id="node24" class="node">
<title>global</title>
<polygon fill="#94ddf4" stroke="black" points="4406,-1705.22 4406,-1742.22 4466,-1742.22 4466,-1705.22 4406,-1705.22"/>
<text text-anchor="middle" x="4436" y="-1720.02" font-family="Times,serif" font-size="14.00">global</text>
</g>
<!-- global&#45;&gt;run_dragen_alignment_step -->
<g id="edge32" class="edge">
<title>global&#45;&gt;run_dragen_alignment_step</title>
<path fill="none" stroke="black" d="M4424.12,-1704.91C4417.14,-1695.13 4407.78,-1683.11 4398,-1673.72 4214.05,-1496.99 3950.87,-1336.33 3851.77,-1278.48"/>
<polygon fill="black" stroke="black" points="3853.38,-1275.37 3842.98,-1273.37 3849.86,-1281.42 3853.38,-1275.37"/>
</g>
<!-- hard_clips -->
<g id="node25" class="node">
<title>hard_clips</title>
<polygon fill="#94ddf4" stroke="black" points="4299.5,-1705.22 4299.5,-1742.22 4388.5,-1742.22 4388.5,-1705.22 4299.5,-1705.22"/>
<text text-anchor="middle" x="4344" y="-1720.02" font-family="Times,serif" font-size="14.00">hard_clips</text>
</g>
<!-- hard_clips&#45;&gt;run_dragen_alignment_step -->
<g id="edge33" class="edge">
<title>hard_clips&#45;&gt;run_dragen_alignment_step</title>
<path fill="none" stroke="black" d="M4324.83,-1705.17C4314.55,-1695.79 4301.63,-1684.07 4290,-1673.72 4120.78,-1522.97 3915.09,-1344.78 3840.63,-1280.43"/>
<polygon fill="black" stroke="black" points="3842.47,-1277.4 3832.62,-1273.51 3837.9,-1282.7 3842.47,-1277.4"/>
</g>
<!-- map_orientations -->
<g id="node26" class="node">
<title>map_orientations</title>
<polygon fill="#94ddf4" stroke="black" points="4141,-1705.22 4141,-1742.22 4281,-1742.22 4281,-1705.22 4141,-1705.22"/>
<text text-anchor="middle" x="4211" y="-1720.02" font-family="Times,serif" font-size="14.00">map_orientations</text>
</g>
<!-- map_orientations&#45;&gt;run_dragen_alignment_step -->
<g id="edge34" class="edge">
<title>map_orientations&#45;&gt;run_dragen_alignment_step</title>
<path fill="none" stroke="black" d="M4195.85,-1704.98C4134.68,-1633.39 3905.83,-1365.54 3833.83,-1281.27"/>
<polygon fill="black" stroke="black" points="3836.33,-1278.8 3827.17,-1273.47 3831,-1283.35 3836.33,-1278.8"/>
</g>
<!-- mapq_max -->
<g id="node27" class="node">
<title>mapq_max</title>
<polygon fill="#94ddf4" stroke="black" points="4029.5,-1705.22 4029.5,-1742.22 4122.5,-1742.22 4122.5,-1705.22 4029.5,-1705.22"/>
<text text-anchor="middle" x="4076" y="-1720.02" font-family="Times,serif" font-size="14.00">mapq_max</text>
</g>
<!-- mapq_max&#45;&gt;run_dragen_alignment_step -->
<g id="edge35" class="edge">
<title>mapq_max&#45;&gt;run_dragen_alignment_step</title>
<path fill="none" stroke="black" d="M4065.97,-1704.98C4025.67,-1633.68 3875.3,-1367.69 3827.02,-1282.29"/>
<polygon fill="black" stroke="black" points="3830,-1280.45 3822.04,-1273.47 3823.91,-1283.9 3830,-1280.45"/>
</g>
<!-- mapq_strict_js -->
<g id="node28" class="node">
<title>mapq_strict_js</title>
<polygon fill="#94ddf4" stroke="black" points="3891,-1705.22 3891,-1742.22 4011,-1742.22 4011,-1705.22 3891,-1705.22"/>
<text text-anchor="middle" x="3951" y="-1720.02" font-family="Times,serif" font-size="14.00">mapq_strict_js</text>
</g>
<!-- mapq_strict_js&#45;&gt;run_dragen_alignment_step -->
<g id="edge36" class="edge">
<title>mapq_strict_js&#45;&gt;run_dragen_alignment_step</title>
<path fill="none" stroke="black" d="M3945.72,-1704.98C3924.56,-1633.9 3845.81,-1369.31 3820.14,-1283.08"/>
<polygon fill="black" stroke="black" points="3823.49,-1282.06 3817.28,-1273.47 3816.78,-1284.05 3823.49,-1282.06"/>
</g>
<!-- match_n_score -->
<g id="node29" class="node">
<title>match_n_score</title>
<polygon fill="#94ddf4" stroke="black" points="3751,-1705.22 3751,-1742.22 3873,-1742.22 3873,-1705.22 3751,-1705.22"/>
<text text-anchor="middle" x="3812" y="-1720.02" font-family="Times,serif" font-size="14.00">match_n_score</text>
</g>
<!-- match_n_score&#45;&gt;run_dragen_alignment_step -->
<g id="edge37" class="edge">
<title>match_n_score&#45;&gt;run_dragen_alignment_step</title>
<path fill="none" stroke="black" d="M3812,-1704.98C3812,-1634.04 3812,-1370.38 3812,-1283.61"/>
<polygon fill="black" stroke="black" points="3815.5,-1283.47 3812,-1273.47 3808.5,-1283.47 3815.5,-1283.47"/>
</g>
<!-- match_score -->
<g id="node30" class="node">
<title>match_score</title>
<polygon fill="#94ddf4" stroke="black" points="3627,-1705.22 3627,-1742.22 3733,-1742.22 3733,-1705.22 3627,-1705.22"/>
<text text-anchor="middle" x="3680" y="-1720.02" font-family="Times,serif" font-size="14.00">match_score</text>
</g>
<!-- match_score&#45;&gt;run_dragen_alignment_step -->
<g id="edge38" class="edge">
<title>match_score&#45;&gt;run_dragen_alignment_step</title>
<path fill="none" stroke="black" d="M3685.01,-1704.98C3705.09,-1633.97 3779.74,-1369.85 3804.19,-1283.34"/>
<polygon fill="black" stroke="black" points="3807.63,-1284.05 3806.98,-1273.47 3800.89,-1282.14 3807.63,-1284.05"/>
</g>
<!-- max_intron_bases -->
<g id="node31" class="node">
<title>max_intron_bases</title>
<polygon fill="#94ddf4" stroke="black" points="3465,-1705.22 3465,-1742.22 3609,-1742.22 3609,-1705.22 3465,-1705.22"/>
<text text-anchor="middle" x="3537" y="-1720.02" font-family="Times,serif" font-size="14.00">max_intron_bases</text>
</g>
<!-- max_intron_bases&#45;&gt;run_dragen_alignment_step -->
<g id="edge39" class="edge">
<title>max_intron_bases&#45;&gt;run_dragen_alignment_step</title>
<path fill="none" stroke="black" d="M3547.44,-1704.98C3589.43,-1633.68 3746.06,-1367.69 3796.35,-1282.29"/>
<polygon fill="black" stroke="black" points="3799.49,-1283.86 3801.55,-1273.47 3793.45,-1280.31 3799.49,-1283.86"/>
</g>
<!-- max_rescues -->
<g id="node32" class="node">
<title>max_rescues</title>
<polygon fill="#94ddf4" stroke="black" points="3339,-1705.22 3339,-1742.22 3447,-1742.22 3447,-1705.22 3339,-1705.22"/>
<text text-anchor="middle" x="3393" y="-1720.02" font-family="Times,serif" font-size="14.00">max_rescues</text>
</g>
<!-- max_rescues&#45;&gt;run_dragen_alignment_step -->
<g id="edge40" class="edge">
<title>max_rescues&#45;&gt;run_dragen_alignment_step</title>
<path fill="none" stroke="black" d="M3408.91,-1704.98C3473.21,-1633.32 3713.95,-1364.99 3789.31,-1281.01"/>
<polygon fill="black" stroke="black" points="3792,-1283.25 3796.07,-1273.47 3786.79,-1278.58 3792,-1283.25"/>
</g>
<!-- min_intron_bases -->
<g id="node33" class="node">
<title>min_intron_bases</title>
<polygon fill="#94ddf4" stroke="black" points="3179.5,-1705.22 3179.5,-1742.22 3320.5,-1742.22 3320.5,-1705.22 3179.5,-1705.22"/>
<text text-anchor="middle" x="3250" y="-1720.02" font-family="Times,serif" font-size="14.00">min_intron_bases</text>
</g>
<!-- min_intron_bases&#45;&gt;run_dragen_alignment_step -->
<g id="edge41" class="edge">
<title>min_intron_bases&#45;&gt;run_dragen_alignment_step</title>
<path fill="none" stroke="black" d="M3271.34,-1704.98C3358.03,-1632.95 3683.83,-1362.22 3783.11,-1279.72"/>
<polygon fill="black" stroke="black" points="3785.48,-1282.31 3790.93,-1273.22 3781.01,-1276.92 3785.48,-1282.31"/>
</g>
<!-- min_score_coeff -->
<g id="node34" class="node">
<title>min_score_coeff</title>
<polygon fill="#94ddf4" stroke="black" points="3032.5,-1705.22 3032.5,-1742.22 3161.5,-1742.22 3161.5,-1705.22 3032.5,-1705.22"/>
<text text-anchor="middle" x="3097" y="-1720.02" font-family="Times,serif" font-size="14.00">min_score_coeff</text>
</g>
<!-- min_score_coeff&#45;&gt;run_dragen_alignment_step -->
<g id="edge42" class="edge">
<title>min_score_coeff&#45;&gt;run_dragen_alignment_step</title>
<path fill="none" stroke="black" d="M3123.34,-1705.21C3137.46,-1695.84 3155.16,-1684.12 3171,-1673.72 3401.14,-1522.49 3678.83,-1342.12 3776.19,-1278.94"/>
<polygon fill="black" stroke="black" points="3778.29,-1281.75 3784.78,-1273.37 3774.48,-1275.88 3778.29,-1281.75"/>
</g>
<!-- mismatch_pen -->
<g id="node35" class="node">
<title>mismatch_pen</title>
<polygon fill="#94ddf4" stroke="black" points="2895.5,-1705.22 2895.5,-1742.22 3014.5,-1742.22 3014.5,-1705.22 2895.5,-1705.22"/>
<text text-anchor="middle" x="2955" y="-1720.02" font-family="Times,serif" font-size="14.00">mismatch_pen</text>
</g>
<!-- mismatch_pen&#45;&gt;run_dragen_alignment_step -->
<g id="edge43" class="edge">
<title>mismatch_pen&#45;&gt;run_dragen_alignment_step</title>
<path fill="none" stroke="black" d="M2978.12,-1705.16C2991.28,-1695.46 3008.24,-1683.43 3024,-1673.72 3296.35,-1505.76 3642.38,-1336.63 3765.75,-1277.63"/>
<polygon fill="black" stroke="black" points="3767.42,-1280.71 3774.93,-1273.24 3764.4,-1274.39 3767.42,-1280.71"/>
</g>
<!-- no_unclip_score -->
<g id="node36" class="node">
<title>no_unclip_score</title>
<polygon fill="#94ddf4" stroke="black" points="2748.5,-1705.22 2748.5,-1742.22 2877.5,-1742.22 2877.5,-1705.22 2748.5,-1705.22"/>
<text text-anchor="middle" x="2813" y="-1720.02" font-family="Times,serif" font-size="14.00">no_unclip_score</text>
</g>
<!-- no_unclip_score&#45;&gt;run_dragen_alignment_step -->
<g id="edge44" class="edge">
<title>no_unclip_score&#45;&gt;run_dragen_alignment_step</title>
<path fill="none" stroke="black" d="M2837.39,-1705.14C2851.52,-1695.31 2869.87,-1683.18 2887,-1673.72 3205.17,-1497.97 3611.11,-1334.07 3756.85,-1277.02"/>
<polygon fill="black" stroke="black" points="3758.43,-1280.16 3766.47,-1273.26 3755.89,-1273.64 3758.43,-1280.16"/>
</g>
<!-- no_unpaired -->
<g id="node37" class="node">
<title>no_unpaired</title>
<polygon fill="#94ddf4" stroke="black" points="2626,-1705.22 2626,-1742.22 2730,-1742.22 2730,-1705.22 2626,-1705.22"/>
<text text-anchor="middle" x="2678" y="-1720.02" font-family="Times,serif" font-size="14.00">no_unpaired</text>
</g>
<!-- no_unpaired&#45;&gt;run_dragen_alignment_step -->
<g id="edge45" class="edge">
<title>no_unpaired&#45;&gt;run_dragen_alignment_step</title>
<path fill="none" stroke="black" d="M2697.3,-1705C2709.02,-1694.89 2724.64,-1682.52 2740,-1673.72 3091.91,-1472.08 3559.93,-1327.35 3738.52,-1276.1"/>
<polygon fill="black" stroke="black" points="3739.68,-1279.4 3748.34,-1273.29 3737.76,-1272.67 3739.68,-1279.4"/>
</g>
<!-- output_directory -->
<g id="node38" class="node">
<title>output_directory</title>
<polygon fill="#94ddf4" stroke="black" points="2472,-1705.22 2472,-1742.22 2608,-1742.22 2608,-1705.22 2472,-1705.22"/>
<text text-anchor="middle" x="2540" y="-1720.02" font-family="Times,serif" font-size="14.00">output_directory</text>
</g>
<!-- output_directory&#45;&gt;run_dragen_alignment_step -->
<g id="edge46" class="edge">
<title>output_directory&#45;&gt;run_dragen_alignment_step</title>
<path fill="none" stroke="black" d="M2564.47,-1705.09C2579.2,-1695.01 2598.61,-1682.64 2617,-1673.72 3021.3,-1477.61 3541.99,-1328.14 3735.32,-1275.89"/>
<polygon fill="black" stroke="black" points="3736.36,-1279.23 3745.1,-1273.25 3734.54,-1272.47 3736.36,-1279.23"/>
</g>
<!-- pe_max_penalty -->
<g id="node39" class="node">
<title>pe_max_penalty</title>
<polygon fill="#94ddf4" stroke="black" points="2322.5,-1705.22 2322.5,-1742.22 2453.5,-1742.22 2453.5,-1705.22 2322.5,-1705.22"/>
<text text-anchor="middle" x="2388" y="-1720.02" font-family="Times,serif" font-size="14.00">pe_max_penalty</text>
</g>
<!-- pe_max_penalty&#45;&gt;run_dragen_alignment_step -->
<g id="edge47" class="edge">
<title>pe_max_penalty&#45;&gt;run_dragen_alignment_step</title>
<path fill="none" stroke="black" d="M2411.32,-1705.04C2425.65,-1694.82 2444.7,-1682.32 2463,-1673.72 2911.73,-1462.69 3493.39,-1324.21 3717.89,-1275.35"/>
<polygon fill="black" stroke="black" points="3718.63,-1278.78 3727.66,-1273.24 3717.15,-1271.93 3718.63,-1278.78"/>
</g>
<!-- pe_orientation -->
<g id="node40" class="node">
<title>pe_orientation</title>
<polygon fill="#94ddf4" stroke="black" points="2185.5,-1705.22 2185.5,-1742.22 2304.5,-1742.22 2304.5,-1705.22 2185.5,-1705.22"/>
<text text-anchor="middle" x="2245" y="-1720.02" font-family="Times,serif" font-size="14.00">pe_orientation</text>
</g>
<!-- pe_orientation&#45;&gt;run_dragen_alignment_step -->
<g id="edge48" class="edge">
<title>pe_orientation&#45;&gt;run_dragen_alignment_step</title>
<path fill="none" stroke="black" d="M2265.86,-1705C2278.96,-1694.64 2296.63,-1682 2314,-1673.72 2802.55,-1440.84 3444.43,-1316.38 3700.01,-1273.33"/>
<polygon fill="black" stroke="black" points="3700.76,-1276.75 3710.04,-1271.64 3699.6,-1269.85 3700.76,-1276.75"/>
</g>
<!-- preserve_map_align_order -->
<g id="node41" class="node">
<title>preserve_map_align_order</title>
<polygon fill="#94ddf4" stroke="black" points="1962.5,-1705.22 1962.5,-1742.22 2167.5,-1742.22 2167.5,-1705.22 1962.5,-1705.22"/>
<text text-anchor="middle" x="2065" y="-1720.02" font-family="Times,serif" font-size="14.00">preserve_map_align_order</text>
</g>
<!-- preserve_map_align_order&#45;&gt;run_dragen_alignment_step -->
<g id="edge49" class="edge">
<title>preserve_map_align_order&#45;&gt;run_dragen_alignment_step</title>
<path fill="none" stroke="black" d="M2100.98,-1705.2C2122.65,-1695.09 2151.01,-1682.66 2177,-1673.72 2746,-1477.96 3454.36,-1327.26 3712.25,-1275.32"/>
<polygon fill="black" stroke="black" points="3713.23,-1278.69 3722.34,-1273.29 3711.85,-1271.83 3713.23,-1278.69"/>
</g>
<!-- reference_tar -->
<g id="node42" class="node">
<title>reference_tar</title>
<polygon fill="#94ddf4" stroke="black" points="1831.5,-1705.22 1831.5,-1742.22 1944.5,-1742.22 1944.5,-1705.22 1831.5,-1705.22"/>
<text text-anchor="middle" x="1888" y="-1720.02" font-family="Times,serif" font-size="14.00">reference_tar</text>
</g>
<!-- reference_tar&#45;&gt;run_dragen_alignment_step -->
<g id="edge50" class="edge">
<title>reference_tar&#45;&gt;run_dragen_alignment_step</title>
<path fill="none" stroke="black" d="M1907.12,-1705.13C1919.61,-1694.55 1936.75,-1681.63 1954,-1673.72 2574.58,-1389.14 3402.86,-1291.69 3700.03,-1264.64"/>
<polygon fill="black" stroke="black" points="3700.73,-1268.09 3710.37,-1263.71 3700.1,-1261.12 3700.73,-1268.09"/>
</g>
<!-- remove_duplicates -->
<g id="node43" class="node">
<title>remove_duplicates</title>
<polygon fill="#94ddf4" stroke="black" points="1663,-1705.22 1663,-1742.22 1813,-1742.22 1813,-1705.22 1663,-1705.22"/>
<text text-anchor="middle" x="1738" y="-1720.02" font-family="Times,serif" font-size="14.00">remove_duplicates</text>
</g>
<!-- remove_duplicates&#45;&gt;run_dragen_alignment_step -->
<g id="edge51" class="edge">
<title>remove_duplicates&#45;&gt;run_dragen_alignment_step</title>
<path fill="none" stroke="black" d="M1763.73,-1705.01C1780.05,-1694.52 1802,-1681.74 1823,-1673.72 2508.01,-1411.93 3391.67,-1299.71 3699.98,-1266.74"/>
<polygon fill="black" stroke="black" points="3700.69,-1270.19 3710.26,-1265.65 3699.95,-1263.22 3700.69,-1270.19"/>
</g>
<!-- rescue_sigmas -->
<g id="node44" class="node">
<title>rescue_sigmas</title>
<polygon fill="#94ddf4" stroke="black" points="1523.5,-1705.22 1523.5,-1742.22 1644.5,-1742.22 1644.5,-1705.22 1523.5,-1705.22"/>
<text text-anchor="middle" x="1584" y="-1720.02" font-family="Times,serif" font-size="14.00">rescue_sigmas</text>
</g>
<!-- rescue_sigmas&#45;&gt;run_dragen_alignment_step -->
<g id="edge52" class="edge">
<title>rescue_sigmas&#45;&gt;run_dragen_alignment_step</title>
<path fill="none" stroke="black" d="M1604.37,-1704.99C1617.65,-1694.34 1635.84,-1681.42 1654,-1673.72 2392.14,-1360.74 3372.17,-1279.94 3699.92,-1261.03"/>
<polygon fill="black" stroke="black" points="3700.58,-1264.5 3710.36,-1260.43 3700.18,-1257.51 3700.58,-1264.5"/>
</g>
<!-- sec_aligns -->
<g id="node45" class="node">
<title>sec_aligns</title>
<polygon fill="#94ddf4" stroke="black" points="1416.5,-1705.22 1416.5,-1742.22 1505.5,-1742.22 1505.5,-1705.22 1416.5,-1705.22"/>
<text text-anchor="middle" x="1461" y="-1720.02" font-family="Times,serif" font-size="14.00">sec_aligns</text>
</g>
<!-- sec_aligns&#45;&gt;run_dragen_alignment_step -->
<g id="edge53" class="edge">
<title>sec_aligns&#45;&gt;run_dragen_alignment_step</title>
<path fill="none" stroke="black" d="M1475.74,-1705.05C1485.71,-1694.3 1499.79,-1681.22 1515,-1673.72 2285.73,-1293.34 3355.59,-1256.32 3700.26,-1254.81"/>
<polygon fill="black" stroke="black" points="3700.5,-1258.31 3710.49,-1254.78 3700.48,-1251.31 3700.5,-1258.31"/>
</g>
<!-- sec_aligns_hard -->
<g id="node46" class="node">
<title>sec_aligns_hard</title>
<polygon fill="#94ddf4" stroke="black" points="1269.5,-1705.22 1269.5,-1742.22 1398.5,-1742.22 1398.5,-1705.22 1269.5,-1705.22"/>
<text text-anchor="middle" x="1334" y="-1720.02" font-family="Times,serif" font-size="14.00">sec_aligns_hard</text>
</g>
<!-- sec_aligns_hard&#45;&gt;run_dragen_alignment_step -->
<g id="edge54" class="edge">
<title>sec_aligns_hard&#45;&gt;run_dragen_alignment_step</title>
<path fill="none" stroke="black" d="M1355.33,-1705.14C1369.44,-1694.41 1388.81,-1681.35 1408,-1673.72 2244.84,-1340.91 3349.64,-1272.59 3700.26,-1258.99"/>
<polygon fill="black" stroke="black" points="3700.55,-1262.48 3710.41,-1258.6 3700.29,-1255.49 3700.55,-1262.48"/>
</g>
<!-- sec_phred_delta -->
<g id="node47" class="node">
<title>sec_phred_delta</title>
<polygon fill="#94ddf4" stroke="black" points="1120.5,-1705.22 1120.5,-1742.22 1251.5,-1742.22 1251.5,-1705.22 1120.5,-1705.22"/>
<text text-anchor="middle" x="1186" y="-1720.02" font-family="Times,serif" font-size="14.00">sec_phred_delta</text>
</g>
<!-- sec_phred_delta&#45;&gt;run_dragen_alignment_step -->
<g id="edge55" class="edge">
<title>sec_phred_delta&#45;&gt;run_dragen_alignment_step</title>
<path fill="none" stroke="black" d="M1207.63,-1705.08C1221.93,-1694.34 1241.57,-1681.26 1261,-1673.72 2155.94,-1326.02 3336.63,-1267.54 3700.49,-1257.7"/>
<polygon fill="black" stroke="black" points="3700.59,-1261.2 3710.5,-1257.44 3700.41,-1254.2 3700.59,-1261.2"/>
</g>
<!-- sec_score_delta -->
<g id="node48" class="node">
<title>sec_score_delta</title>
<polygon fill="#94ddf4" stroke="black" points="974,-1705.22 974,-1742.22 1102,-1742.22 1102,-1705.22 974,-1705.22"/>
<text text-anchor="middle" x="1038" y="-1720.02" font-family="Times,serif" font-size="14.00">sec_score_delta</text>
</g>
<!-- sec_score_delta&#45;&gt;run_dragen_alignment_step -->
<g id="edge56" class="edge">
<title>sec_score_delta&#45;&gt;run_dragen_alignment_step</title>
<path fill="none" stroke="black" d="M1059.28,-1705.02C1073.37,-1694.24 1092.74,-1681.17 1112,-1673.72 2063.54,-1305.49 3322.25,-1260.95 3700.14,-1256.12"/>
<polygon fill="black" stroke="black" points="3700.3,-1259.62 3710.25,-1256 3700.21,-1252.62 3700.3,-1259.62"/>
</g>
<!-- seed_density -->
<g id="node49" class="node">
<title>seed_density</title>
<polygon fill="#94ddf4" stroke="black" points="846.5,-1705.22 846.5,-1742.22 955.5,-1742.22 955.5,-1705.22 846.5,-1705.22"/>
<text text-anchor="middle" x="901" y="-1720.02" font-family="Times,serif" font-size="14.00">seed_density</text>
</g>
<!-- seed_density&#45;&gt;run_dragen_alignment_step -->
<g id="edge57" class="edge">
<title>seed_density&#45;&gt;run_dragen_alignment_step</title>
<path fill="none" stroke="black" d="M918.71,-1705.15C930.75,-1694.29 947.6,-1681.07 965,-1673.72 1475.38,-1458.17 3238.51,-1302.35 3700.48,-1264.56"/>
<polygon fill="black" stroke="black" points="3700.8,-1268.05 3710.49,-1263.75 3700.24,-1261.07 3700.8,-1268.05"/>
</g>
<!-- supp_aligns -->
<g id="node50" class="node">
<title>supp_aligns</title>
<polygon fill="#94ddf4" stroke="black" points="727.5,-1705.22 727.5,-1742.22 828.5,-1742.22 828.5,-1705.22 727.5,-1705.22"/>
<text text-anchor="middle" x="778" y="-1720.02" font-family="Times,serif" font-size="14.00">supp_aligns</text>
</g>
<!-- supp_aligns&#45;&gt;run_dragen_alignment_step -->
<g id="edge58" class="edge">
<title>supp_aligns&#45;&gt;run_dragen_alignment_step</title>
<path fill="none" stroke="black" d="M794.39,-1705.1C805.59,-1694.22 821.36,-1680.99 838,-1673.72 1369.57,-1441.27 3224.43,-1297.08 3700.14,-1263.36"/>
<polygon fill="black" stroke="black" points="3700.72,-1266.83 3710.44,-1262.63 3700.22,-1259.84 3700.72,-1266.83"/>
</g>
<!-- supp_as_sec -->
<g id="node51" class="node">
<title>supp_as_sec</title>
<polygon fill="#94ddf4" stroke="black" points="605,-1705.22 605,-1742.22 709,-1742.22 709,-1705.22 605,-1705.22"/>
<text text-anchor="middle" x="657" y="-1720.02" font-family="Times,serif" font-size="14.00">supp_as_sec</text>
</g>
<!-- supp_as_sec&#45;&gt;run_dragen_alignment_step -->
<g id="edge59" class="edge">
<title>supp_as_sec&#45;&gt;run_dragen_alignment_step</title>
<path fill="none" stroke="black" d="M674.03,-1705.08C685.64,-1694.19 701.95,-1680.96 719,-1673.72 1275.66,-1437.33 3213.19,-1295.37 3700.24,-1262.89"/>
<polygon fill="black" stroke="black" points="3700.69,-1266.37 3710.43,-1262.22 3700.22,-1259.39 3700.69,-1266.37"/>
</g>
<!-- supp_min_score_adj -->
<g id="node52" class="node">
<title>supp_min_score_adj</title>
<polygon fill="#94ddf4" stroke="black" points="429,-1705.22 429,-1742.22 587,-1742.22 587,-1705.22 429,-1705.22"/>
<text text-anchor="middle" x="508" y="-1720.02" font-family="Times,serif" font-size="14.00">supp_min_score_adj</text>
</g>
<!-- supp_min_score_adj&#45;&gt;run_dragen_alignment_step -->
<g id="edge60" class="edge">
<title>supp_min_score_adj&#45;&gt;run_dragen_alignment_step</title>
<path fill="none" stroke="black" d="M533.37,-1705.18C550.34,-1694.33 573.58,-1681.11 596,-1673.72 1764.16,-1288.34 3280.75,-1256.3 3700.26,-1255.19"/>
<polygon fill="black" stroke="black" points="3700.27,-1258.69 3710.26,-1255.17 3700.26,-1251.69 3700.27,-1258.69"/>
</g>
<!-- unclip_score -->
<g id="node53" class="node">
<title>unclip_score</title>
<polygon fill="#94ddf4" stroke="black" points="305.5,-1705.22 305.5,-1742.22 410.5,-1742.22 410.5,-1705.22 305.5,-1705.22"/>
<text text-anchor="middle" x="358" y="-1720.02" font-family="Times,serif" font-size="14.00">unclip_score</text>
</g>
<!-- unclip_score&#45;&gt;run_dragen_alignment_step -->
<g id="edge61" class="edge">
<title>unclip_score&#45;&gt;run_dragen_alignment_step</title>
<path fill="none" stroke="black" d="M375.01,-1705.01C386.6,-1694.09 402.91,-1680.86 420,-1673.72 1035.27,-1416.69 3184.79,-1288.78 3700.27,-1261.39"/>
<polygon fill="black" stroke="black" points="3700.51,-1264.88 3710.31,-1260.86 3700.14,-1257.89 3700.51,-1264.88"/>
</g>
<!-- unpaired_pen -->
<g id="node54" class="node">
<title>unpaired_pen</title>
<polygon fill="#94ddf4" stroke="black" points="174.5,-1705.22 174.5,-1742.22 287.5,-1742.22 287.5,-1705.22 174.5,-1705.22"/>
<text text-anchor="middle" x="231" y="-1720.02" font-family="Times,serif" font-size="14.00">unpaired_pen</text>
</g>
<!-- unpaired_pen&#45;&gt;run_dragen_alignment_step -->
<g id="edge62" class="edge">
<title>unpaired_pen&#45;&gt;run_dragen_alignment_step</title>
<path fill="none" stroke="black" d="M249.3,-1705C261.72,-1694.07 279.1,-1680.84 297,-1673.72 940.16,-1417.95 3172.9,-1288.66 3699.91,-1261.29"/>
<polygon fill="black" stroke="black" points="3700.37,-1264.77 3710.18,-1260.76 3700.01,-1257.78 3700.37,-1264.77"/>
</g>
<!-- verbose -->
<g id="node55" class="node">
<title>verbose</title>
<polygon fill="#94ddf4" stroke="black" points="7600.5,-1705.22 7600.5,-1742.22 7673.5,-1742.22 7673.5,-1705.22 7600.5,-1705.22"/>
<text text-anchor="middle" x="7637" y="-1720.02" font-family="Times,serif" font-size="14.00">verbose</text>
</g>
<!-- verbose&#45;&gt;run_dragen_alignment_step -->
<g id="edge63" class="edge">
<title>verbose&#45;&gt;run_dragen_alignment_step</title>
<path fill="none" stroke="black" d="M7625.84,-1705.19C7617.84,-1694.2 7606.01,-1680.82 7592,-1673.72 6924.86,-1335.65 4478.12,-1268.57 3924.06,-1257.62"/>
<polygon fill="black" stroke="black" points="3923.74,-1254.11 3913.67,-1257.41 3923.6,-1261.11 3923.74,-1254.11"/>
</g>
<!-- dragen_alignment_output_directory -->
<g id="node56" class="node">
<title>dragen_alignment_output_directory</title>
<polygon fill="#94ddf4" stroke="black" points="3455,-334.22 3455,-371.22 3727,-371.22 3727,-334.22 3455,-334.22"/>
<text text-anchor="middle" x="3591" y="-349.02" font-family="Times,serif" font-size="14.00">dragen_alignment_output_directory</text>
</g>
<!-- dragen_bam_out -->
<g id="node57" class="node">
<title>dragen_bam_out</title>
<polygon fill="#94ddf4" stroke="black" points="3745,-334.22 3745,-371.22 3879,-371.22 3879,-334.22 3745,-334.22"/>
<text text-anchor="middle" x="3812" y="-349.02" font-family="Times,serif" font-size="14.00">dragen_bam_out</text>
</g>
<!-- multiqc_output_directory -->
<g id="node58" class="node">
<title>multiqc_output_directory</title>
<polygon fill="#94ddf4" stroke="black" points="3239.5,-334.22 3239.5,-371.22 3436.5,-371.22 3436.5,-334.22 3239.5,-334.22"/>
<text text-anchor="middle" x="3338" y="-349.02" font-family="Times,serif" font-size="14.00">multiqc_output_directory</text>
</g>
<!-- create_dummy_file_step -->
<g id="node59" class="node">
<title>create_dummy_file_step</title>
<polygon fill="lightgoldenrodyellow" stroke="black" points="132.5,-1236.22 132.5,-1273.22 393.5,-1273.22 393.5,-1236.22 132.5,-1236.22"/>
<text text-anchor="middle" x="263" y="-1251.02" font-family="Times,serif" font-size="14.00">custom&#45;create&#45;dummy&#45;file v(1.0.0)</text>
</g>
<!-- create_dummy_file_step&#45;&gt;dragen_qc_step -->
<g id="edge1" class="edge">
<title>create_dummy_file_step&#45;&gt;dragen_qc_step</title>
<path fill="none" stroke="black" d="M256.06,-1236.12C228.91,-1167.25 129.78,-915.77 96.77,-832.04"/>
<polygon fill="black" stroke="black" points="100.01,-830.7 93.08,-822.68 93.49,-833.27 100.01,-830.7"/>
</g>
<!-- dragen_qc_step&#45;&gt;multiqc_output_directory -->
<g id="edge2" class="edge">
<title>dragen_qc_step&#45;&gt;multiqc_output_directory</title>
<path fill="none" stroke="black" d="M155.81,-793.08C571.44,-735.69 2719.39,-439.13 3229.32,-368.72"/>
<polygon fill="black" stroke="black" points="3229.82,-372.19 3239.25,-367.35 3228.87,-365.25 3229.82,-372.19"/>
</g>
<!-- run_dragen_alignment_step&#45;&gt;dragen_alignment_output_directory -->
<g id="edge4" class="edge">
<title>run_dragen_alignment_step&#45;&gt;dragen_alignment_output_directory</title>
<path fill="none" stroke="black" d="M3807.68,-1236.14C3780.35,-1124.82 3631.32,-517.93 3597.73,-381.12"/>
<polygon fill="black" stroke="black" points="3601.13,-380.28 3595.34,-371.4 3594.33,-381.95 3601.13,-380.28"/>
</g>
<!-- run_dragen_alignment_step&#45;&gt;dragen_bam_out -->
<g id="edge5" class="edge">
<title>run_dragen_alignment_step&#45;&gt;dragen_bam_out</title>
<path fill="none" stroke="black" d="M3812,-1236.14C3812,-1124.93 3812,-519.15 3812,-381.53"/>
<polygon fill="black" stroke="black" points="3815.5,-381.4 3812,-371.4 3808.5,-381.4 3815.5,-381.4"/>
</g>
<!-- run_dragen_alignment_step&#45;&gt;dragen_qc_step -->
<g id="edge3" class="edge">
<title>run_dragen_alignment_step&#45;&gt;dragen_qc_step</title>
<path fill="none" stroke="black" d="M3710.41,-1241.47C3170.88,-1176.46 647.8,-872.42 165.72,-814.32"/>
<polygon fill="black" stroke="black" points="166.06,-810.84 155.72,-813.12 165.22,-817.79 166.06,-810.84"/>
</g>
<!-- \n -->
<g id="node62" class="node">
<title>\n</title>
<ellipse fill="none" stroke="black" cx="7719" cy="-1723.72" rx="27" ry="18"/>
</g>
</g>
</svg>
