<?xml version="1.0" encoding="UTF-8" standalone="no"?>
<!DOCTYPE svg PUBLIC "-//W3C//DTD SVG 1.1//EN"
 "http://www.w3.org/Graphics/SVG/1.1/DTD/svg11.dtd">
<!-- Generated by graphviz version 2.43.0 (0)
 -->
<!-- Title: G Pages: 1 -->
<svg width="7646pt" height="1933pt"
 viewBox="0.00 0.00 7645.50 1932.52" xmlns="http://www.w3.org/2000/svg" xmlns:xlink="http://www.w3.org/1999/xlink">
<g id="graph0" class="graph" transform="scale(1 1) rotate(0) translate(4 1928.52)">
<title>G</title>
<polygon fill="#eeeeee" stroke="transparent" points="-4,4 -4,-1928.52 7641.5,-1928.52 7641.5,4 -4,4"/>
<g id="clust1" class="cluster">
<title>cluster_inputs</title>
<polygon fill="#eeeeee" stroke="black" stroke-dasharray="5,2" points="8,-1410.11 8,-1876.11 7408,-1876.11 7408,-1410.11 8,-1410.11"/>
<text text-anchor="middle" x="7341.5" y="-1417.91" font-family="Times,serif" font-size="14.00">Workflow Inputs</text>
</g>
<g id="clust2" class="cluster">
<title>cluster_outputs</title>
<polygon fill="#eeeeee" stroke="black" stroke-dasharray="5,2" points="3740,-48.42 3740,-514.42 4396,-514.42 4396,-48.42 3740,-48.42"/>
<text text-anchor="middle" x="4323.5" y="-56.22" font-family="Times,serif" font-size="14.00">Workflow Outputs</text>
</g>
<!-- output_file_prefix -->
<g id="node1" class="node">
<title>output_file_prefix</title>
<polygon fill="#94ddf4" stroke="black" points="7260,-1693.92 7260,-1730.92 7400,-1730.92 7400,-1693.92 7260,-1693.92"/>
<text text-anchor="middle" x="7330" y="-1708.72" font-family="Times,serif" font-size="14.00">output_file_prefix</text>
</g>
<!-- run_dragen_alignment_step -->
<g id="node57" class="node">
<title>run_dragen_alignment_step</title>
<polygon fill="lightgoldenrodyellow" stroke="black" points="3782.5,-1227.92 3782.5,-1264.92 3985.5,-1264.92 3985.5,-1227.92 3782.5,-1227.92"/>
<text text-anchor="middle" x="3884" y="-1242.72" font-family="Times,serif" font-size="14.00">dragen&#45;alignment v(4.0.3)</text>
</g>
<!-- output_file_prefix&#45;&gt;run_dragen_alignment_step -->
<g id="edge6" class="edge">
<title>output_file_prefix&#45;&gt;run_dragen_alignment_step</title>
<path fill="none" stroke="black" d="M7307.51,-1693.78C7292.39,-1682.89 7271.55,-1669.66 7251,-1662.42 6627.44,-1442.6 4507.85,-1289.15 3995.95,-1254.73"/>
<polygon fill="black" stroke="black" points="3995.82,-1251.21 3985.61,-1254.03 3995.35,-1258.2 3995.82,-1251.21"/>
</g>
<!-- dragen_qc_step -->
<g id="node58" class="node">
<title>dragen_qc_step</title>
<polygon fill="lightgoldenrodyellow" stroke="black" points="7260.5,-779.92 7260.5,-816.92 7399.5,-816.92 7399.5,-779.92 7260.5,-779.92"/>
<text text-anchor="middle" x="7330" y="-794.72" font-family="Times,serif" font-size="14.00">multiqc v(1.12.0)</text>
</g>
<!-- output_file_prefix&#45;&gt;dragen_qc_step -->
<g id="edge7" class="edge">
<title>output_file_prefix&#45;&gt;dragen_qc_step</title>
<path fill="none" stroke="black" d="M7325.89,-1693.61C7313.69,-1580.79 7313.38,-965.73 7324.95,-827.16"/>
<polygon fill="black" stroke="black" points="7328.46,-827.25 7325.92,-816.97 7321.49,-826.59 7328.46,-827.25"/>
</g>
<!-- output_file_prefix&#45;&gt;dragen_qc_step -->
<g id="edge8" class="edge">
<title>output_file_prefix&#45;&gt;dragen_qc_step</title>
<path fill="none" stroke="black" d="M7330,-1693.61C7330,-1580.79 7330,-965.73 7330,-827.16"/>
<polygon fill="black" stroke="black" points="7333.5,-826.97 7330,-816.97 7326.5,-826.97 7333.5,-826.97"/>
</g>
<!-- output_file_prefix&#45;&gt;dragen_qc_step -->
<g id="edge9" class="edge">
<title>output_file_prefix&#45;&gt;dragen_qc_step</title>
<path fill="none" stroke="black" d="M7334.11,-1693.61C7346.31,-1580.79 7346.62,-965.73 7335.05,-827.16"/>
<polygon fill="black" stroke="black" points="7338.51,-826.59 7334.08,-816.97 7331.54,-827.25 7338.51,-826.59"/>
</g>
<!-- aln_min_score -->
<g id="node2" class="node">
<title>aln_min_score</title>
<polygon fill="#94ddf4" stroke="black" points="7124.5,-1693.92 7124.5,-1730.92 7241.5,-1730.92 7241.5,-1693.92 7124.5,-1693.92"/>
<text text-anchor="middle" x="7183" y="-1708.72" font-family="Times,serif" font-size="14.00">aln_min_score</text>
</g>
<!-- aln_min_score&#45;&gt;run_dragen_alignment_step -->
<g id="edge10" class="edge">
<title>aln_min_score&#45;&gt;run_dragen_alignment_step</title>
<path fill="none" stroke="black" d="M7164.03,-1693.76C7151.18,-1682.86 7133.27,-1669.63 7115,-1662.42 6526.13,-1429.89 4495.86,-1286.65 3995.91,-1254.39"/>
<polygon fill="black" stroke="black" points="3996.01,-1250.89 3985.8,-1253.74 3995.56,-1257.87 3996.01,-1250.89"/>
</g>
<!-- alt_aware -->
<g id="node3" class="node">
<title>alt_aware</title>
<polygon fill="#94ddf4" stroke="black" points="7020,-1693.92 7020,-1730.92 7106,-1730.92 7106,-1693.92 7020,-1693.92"/>
<text text-anchor="middle" x="7063" y="-1708.72" font-family="Times,serif" font-size="14.00">alt_aware</text>
</g>
<!-- alt_aware&#45;&gt;run_dragen_alignment_step -->
<g id="edge11" class="edge">
<title>alt_aware&#45;&gt;run_dragen_alignment_step</title>
<path fill="none" stroke="black" d="M7049.05,-1693.5C7039.56,-1682.64 7026.01,-1669.55 7011,-1662.42 6458.38,-1399.67 4487.78,-1279.41 3995.88,-1253.09"/>
<polygon fill="black" stroke="black" points="3995.75,-1249.58 3985.58,-1252.54 3995.38,-1256.57 3995.75,-1249.58"/>
</g>
<!-- ann_sj_max_indel -->
<g id="node4" class="node">
<title>ann_sj_max_indel</title>
<polygon fill="#94ddf4" stroke="black" points="6862,-1693.92 6862,-1730.92 7002,-1730.92 7002,-1693.92 6862,-1693.92"/>
<text text-anchor="middle" x="6932" y="-1708.72" font-family="Times,serif" font-size="14.00">ann_sj_max_indel</text>
</g>
<!-- ann_sj_max_indel&#45;&gt;run_dragen_alignment_step -->
<g id="edge12" class="edge">
<title>ann_sj_max_indel&#45;&gt;run_dragen_alignment_step</title>
<path fill="none" stroke="black" d="M6909.47,-1693.89C6894.34,-1683.05 6873.49,-1669.83 6853,-1662.42 5790.9,-1278.29 4396.05,-1247.19 3995.75,-1246.63"/>
<polygon fill="black" stroke="black" points="3995.63,-1243.13 3985.62,-1246.62 3995.62,-1250.13 3995.63,-1243.13"/>
</g>
<!-- dedup_min_qual -->
<g id="node5" class="node">
<title>dedup_min_qual</title>
<polygon fill="#94ddf4" stroke="black" points="6712,-1693.92 6712,-1730.92 6844,-1730.92 6844,-1693.92 6712,-1693.92"/>
<text text-anchor="middle" x="6778" y="-1708.72" font-family="Times,serif" font-size="14.00">dedup_min_qual</text>
</g>
<!-- dedup_min_qual&#45;&gt;run_dragen_alignment_step -->
<g id="edge13" class="edge">
<title>dedup_min_qual&#45;&gt;run_dragen_alignment_step</title>
<path fill="none" stroke="black" d="M6756.73,-1693.91C6742.42,-1683.08 6722.63,-1669.86 6703,-1662.42 5703.8,-1283.53 4383.63,-1248.57 3995.67,-1246.9"/>
<polygon fill="black" stroke="black" points="3995.58,-1243.4 3985.57,-1246.86 3995.56,-1250.4 3995.58,-1243.4"/>
</g>
<!-- edit_chain_limit -->
<g id="node6" class="node">
<title>edit_chain_limit</title>
<polygon fill="#94ddf4" stroke="black" points="6564.5,-1693.92 6564.5,-1730.92 6693.5,-1730.92 6693.5,-1693.92 6564.5,-1693.92"/>
<text text-anchor="middle" x="6629" y="-1708.72" font-family="Times,serif" font-size="14.00">edit_chain_limit</text>
</g>
<!-- edit_chain_limit&#45;&gt;run_dragen_alignment_step -->
<g id="edge14" class="edge">
<title>edit_chain_limit&#45;&gt;run_dragen_alignment_step</title>
<path fill="none" stroke="black" d="M6607.72,-1693.72C6593.63,-1682.95 6574.25,-1669.87 6555,-1662.42 5614.52,-1298.17 4370.65,-1253.02 3995.63,-1247.91"/>
<polygon fill="black" stroke="black" points="3995.64,-1244.41 3985.59,-1247.78 3995.55,-1251.41 3995.64,-1244.41"/>
</g>
<!-- edit_mode -->
<g id="node7" class="node">
<title>edit_mode</title>
<polygon fill="#94ddf4" stroke="black" points="6456,-1693.92 6456,-1730.92 6546,-1730.92 6546,-1693.92 6456,-1693.92"/>
<text text-anchor="middle" x="6501" y="-1708.72" font-family="Times,serif" font-size="14.00">edit_mode</text>
</g>
<!-- edit_mode&#45;&gt;run_dragen_alignment_step -->
<g id="edge15" class="edge">
<title>edit_mode&#45;&gt;run_dragen_alignment_step</title>
<path fill="none" stroke="black" d="M6486.31,-1693.65C6476.36,-1682.85 6462.28,-1669.77 6447,-1662.42 6000.34,-1447.36 4429.15,-1295.49 3995.56,-1256.99"/>
<polygon fill="black" stroke="black" points="3995.8,-1253.5 3985.53,-1256.1 3995.18,-1260.47 3995.8,-1253.5"/>
</g>
<!-- edit_read_len -->
<g id="node8" class="node">
<title>edit_read_len</title>
<polygon fill="#94ddf4" stroke="black" points="6326,-1693.92 6326,-1730.92 6438,-1730.92 6438,-1693.92 6326,-1693.92"/>
<text text-anchor="middle" x="6382" y="-1708.72" font-family="Times,serif" font-size="14.00">edit_read_len</text>
</g>
<!-- edit_read_len&#45;&gt;run_dragen_alignment_step -->
<g id="edge16" class="edge">
<title>edit_read_len&#45;&gt;run_dragen_alignment_step</title>
<path fill="none" stroke="black" d="M6363.63,-1693.75C6351.38,-1682.99 6334.39,-1669.92 6317,-1662.42 5478.72,-1300.61 4350.37,-1253.59 3995.56,-1247.99"/>
<polygon fill="black" stroke="black" points="3995.59,-1244.49 3985.54,-1247.84 3995.49,-1251.49 3995.59,-1244.49"/>
</g>
<!-- edit_seed_num -->
<g id="node9" class="node">
<title>edit_seed_num</title>
<polygon fill="#94ddf4" stroke="black" points="6186,-1693.92 6186,-1730.92 6308,-1730.92 6308,-1693.92 6186,-1693.92"/>
<text text-anchor="middle" x="6247" y="-1708.72" font-family="Times,serif" font-size="14.00">edit_seed_num</text>
</g>
<!-- edit_seed_num&#45;&gt;run_dragen_alignment_step -->
<g id="edge17" class="edge">
<title>edit_seed_num&#45;&gt;run_dragen_alignment_step</title>
<path fill="none" stroke="black" d="M6226.96,-1693.85C6213.67,-1683.13 6195.35,-1670.06 6177,-1662.42 5386.8,-1333.08 4336.22,-1264.64 3995.64,-1250.82"/>
<polygon fill="black" stroke="black" points="3995.66,-1247.31 3985.53,-1250.41 3995.38,-1254.31 3995.66,-1247.31"/>
</g>
<!-- en_alt_hap_aln -->
<g id="node10" class="node">
<title>en_alt_hap_aln</title>
<polygon fill="#94ddf4" stroke="black" points="6046.5,-1693.92 6046.5,-1730.92 6167.5,-1730.92 6167.5,-1693.92 6046.5,-1693.92"/>
<text text-anchor="middle" x="6107" y="-1708.72" font-family="Times,serif" font-size="14.00">en_alt_hap_aln</text>
</g>
<!-- en_alt_hap_aln&#45;&gt;run_dragen_alignment_step -->
<g id="edge18" class="edge">
<title>en_alt_hap_aln&#45;&gt;run_dragen_alignment_step</title>
<path fill="none" stroke="black" d="M6087.26,-1693.91C6074.16,-1683.22 6056.1,-1670.15 6038,-1662.42 5302.27,-1347.95 4323.39,-1270.13 3995.98,-1252.33"/>
<polygon fill="black" stroke="black" points="3995.72,-1248.81 3985.54,-1251.77 3995.34,-1255.8 3995.72,-1248.81"/>
</g>
<!-- en_chimeric_aln -->
<g id="node11" class="node">
<title>en_chimeric_aln</title>
<polygon fill="#94ddf4" stroke="black" points="5897.5,-1693.92 5897.5,-1730.92 6028.5,-1730.92 6028.5,-1693.92 5897.5,-1693.92"/>
<text text-anchor="middle" x="5963" y="-1708.72" font-family="Times,serif" font-size="14.00">en_chimeric_aln</text>
</g>
<!-- en_chimeric_aln&#45;&gt;run_dragen_alignment_step -->
<g id="edge19" class="edge">
<title>en_chimeric_aln&#45;&gt;run_dragen_alignment_step</title>
<path fill="none" stroke="black" d="M5941.27,-1693.81C5927.15,-1683.21 5907.92,-1670.29 5889,-1662.42 5205.77,-1377.98 4307.71,-1281.7 3996.15,-1255.67"/>
<polygon fill="black" stroke="black" points="3996.02,-1252.15 3985.76,-1254.81 3995.44,-1259.12 3996.02,-1252.15"/>
</g>
<!-- enable_duplicate_marking -->
<g id="node12" class="node">
<title>enable_duplicate_marking</title>
<polygon fill="#94ddf4" stroke="black" points="5676.5,-1693.92 5676.5,-1730.92 5879.5,-1730.92 5879.5,-1693.92 5676.5,-1693.92"/>
<text text-anchor="middle" x="5778" y="-1708.72" font-family="Times,serif" font-size="14.00">enable_duplicate_marking</text>
</g>
<!-- enable_duplicate_marking&#45;&gt;run_dragen_alignment_step -->
<g id="edge20" class="edge">
<title>enable_duplicate_marking&#45;&gt;run_dragen_alignment_step</title>
<path fill="none" stroke="black" d="M5743.01,-1693.77C5721.73,-1683.56 5693.77,-1671.06 5668,-1662.42 5050.91,-1455.3 4280.05,-1314.07 3995.87,-1265.78"/>
<polygon fill="black" stroke="black" points="3996.41,-1262.32 3985.97,-1264.1 3995.25,-1269.23 3996.41,-1262.32"/>
</g>
<!-- enable_map_align -->
<g id="node13" class="node">
<title>enable_map_align</title>
<polygon fill="#94ddf4" stroke="black" points="5515.5,-1693.92 5515.5,-1730.92 5658.5,-1730.92 5658.5,-1693.92 5515.5,-1693.92"/>
<text text-anchor="middle" x="5587" y="-1708.72" font-family="Times,serif" font-size="14.00">enable_map_align</text>
</g>
<!-- enable_map_align&#45;&gt;run_dragen_alignment_step -->
<g id="edge21" class="edge">
<title>enable_map_align&#45;&gt;run_dragen_alignment_step</title>
<path fill="none" stroke="black" d="M5562.46,-1693.72C5547.14,-1683.36 5526.65,-1670.72 5507,-1662.42 4964.48,-1433.07 4264.6,-1306.87 3995.87,-1264.16"/>
<polygon fill="black" stroke="black" points="3996.14,-1260.66 3985.71,-1262.55 3995.04,-1267.57 3996.14,-1260.66"/>
</g>
<!-- enable_sort -->
<g id="node14" class="node">
<title>enable_sort</title>
<polygon fill="#94ddf4" stroke="black" points="5398.5,-1693.92 5398.5,-1730.92 5497.5,-1730.92 5497.5,-1693.92 5398.5,-1693.92"/>
<text text-anchor="middle" x="5448" y="-1708.72" font-family="Times,serif" font-size="14.00">enable_sort</text>
</g>
<!-- enable_sort&#45;&gt;run_dragen_alignment_step -->
<g id="edge22" class="edge">
<title>enable_sort&#45;&gt;run_dragen_alignment_step</title>
<path fill="none" stroke="black" d="M5430.85,-1693.79C5419.78,-1683.32 5404.58,-1670.55 5389,-1662.42 4906.19,-1410.41 4254.08,-1298.33 3995.91,-1261.78"/>
<polygon fill="black" stroke="black" points="3996.16,-1258.28 3985.77,-1260.35 3995.19,-1265.21 3996.16,-1258.28"/>
</g>
<!-- fastq_list -->
<g id="node15" class="node">
<title>fastq_list</title>
<polygon fill="#94ddf4" stroke="black" points="5298,-1693.92 5298,-1730.92 5380,-1730.92 5380,-1693.92 5298,-1693.92"/>
<text text-anchor="middle" x="5339" y="-1708.72" font-family="Times,serif" font-size="14.00">fastq_list</text>
</g>
<!-- fastq_list&#45;&gt;run_dragen_alignment_step -->
<g id="edge23" class="edge">
<title>fastq_list&#45;&gt;run_dragen_alignment_step</title>
<path fill="none" stroke="black" d="M5324.91,-1693.78C5315.69,-1683.32 5302.83,-1670.54 5289,-1662.42 4851.83,-1405.53 4243.48,-1297.07 3995.69,-1261.65"/>
<polygon fill="black" stroke="black" points="3995.99,-1258.15 3985.6,-1260.21 3995.01,-1265.08 3995.99,-1258.15"/>
</g>
<!-- fastq_list_rows -->
<g id="node16" class="node">
<title>fastq_list_rows</title>
<polygon fill="#94ddf4" stroke="black" points="5156.5,-1693.92 5156.5,-1730.92 5279.5,-1730.92 5279.5,-1693.92 5156.5,-1693.92"/>
<text text-anchor="middle" x="5218" y="-1708.72" font-family="Times,serif" font-size="14.00">fastq_list_rows</text>
</g>
<!-- fastq_list_rows&#45;&gt;run_dragen_alignment_step -->
<g id="edge24" class="edge">
<title>fastq_list_rows&#45;&gt;run_dragen_alignment_step</title>
<path fill="none" stroke="black" d="M5196.35,-1693.76C5183.03,-1683.55 5165.25,-1671.05 5148,-1662.42 4730.93,-1453.71 4185.42,-1316.05 3973.55,-1267.21"/>
<polygon fill="black" stroke="black" points="3974.25,-1263.78 3963.72,-1264.95 3972.68,-1270.6 3974.25,-1263.78"/>
</g>
<!-- gap_ext_pen -->
<g id="node17" class="node">
<title>gap_ext_pen</title>
<polygon fill="#94ddf4" stroke="black" points="5033.5,-1693.92 5033.5,-1730.92 5138.5,-1730.92 5138.5,-1693.92 5033.5,-1693.92"/>
<text text-anchor="middle" x="5086" y="-1708.72" font-family="Times,serif" font-size="14.00">gap_ext_pen</text>
</g>
<!-- gap_ext_pen&#45;&gt;run_dragen_alignment_step -->
<g id="edge25" class="edge">
<title>gap_ext_pen&#45;&gt;run_dragen_alignment_step</title>
<path fill="none" stroke="black" d="M5067.4,-1693.79C5055.88,-1683.58 5040.39,-1671.08 5025,-1662.42 4654.68,-1453.91 4159.93,-1316.42 3966.45,-1267.41"/>
<polygon fill="black" stroke="black" points="3967.19,-1263.99 3956.64,-1264.94 3965.48,-1270.78 3967.19,-1263.99"/>
</g>
<!-- gap_open_pen -->
<g id="node18" class="node">
<title>gap_open_pen</title>
<polygon fill="#94ddf4" stroke="black" points="4898.5,-1693.92 4898.5,-1730.92 5015.5,-1730.92 5015.5,-1693.92 4898.5,-1693.92"/>
<text text-anchor="middle" x="4957" y="-1708.72" font-family="Times,serif" font-size="14.00">gap_open_pen</text>
</g>
<!-- gap_open_pen&#45;&gt;run_dragen_alignment_step -->
<g id="edge26" class="edge">
<title>gap_open_pen&#45;&gt;run_dragen_alignment_step</title>
<path fill="none" stroke="black" d="M4935.56,-1693.69C4922.84,-1683.69 4906.09,-1671.44 4890,-1662.42 4553.31,-1473.49 4113.14,-1321.75 3949.22,-1268.21"/>
<polygon fill="black" stroke="black" points="3949.88,-1264.74 3939.29,-1264.98 3947.71,-1271.4 3949.88,-1264.74"/>
</g>
<!-- generate_md_tags -->
<g id="node19" class="node">
<title>generate_md_tags</title>
<polygon fill="#94ddf4" stroke="black" points="4733.5,-1693.92 4733.5,-1730.92 4880.5,-1730.92 4880.5,-1693.92 4733.5,-1693.92"/>
<text text-anchor="middle" x="4807" y="-1708.72" font-family="Times,serif" font-size="14.00">generate_md_tags</text>
</g>
<!-- generate_md_tags&#45;&gt;run_dragen_alignment_step -->
<g id="edge27" class="edge">
<title>generate_md_tags&#45;&gt;run_dragen_alignment_step</title>
<path fill="none" stroke="black" d="M4778.49,-1693.88C4762.62,-1684.29 4742.4,-1672.37 4724,-1662.42 4427.44,-1501.91 4060.33,-1329.21 3931.41,-1269.32"/>
<polygon fill="black" stroke="black" points="3932.73,-1266.07 3922.19,-1265.04 3929.78,-1272.42 3932.73,-1266.07"/>
</g>
<!-- generate_sa_tags -->
<g id="node20" class="node">
<title>generate_sa_tags</title>
<polygon fill="#94ddf4" stroke="black" points="4575,-1693.92 4575,-1730.92 4715,-1730.92 4715,-1693.92 4575,-1693.92"/>
<text text-anchor="middle" x="4645" y="-1708.72" font-family="Times,serif" font-size="14.00">generate_sa_tags</text>
</g>
<!-- generate_sa_tags&#45;&gt;run_dragen_alignment_step -->
<g id="edge28" class="edge">
<title>generate_sa_tags&#45;&gt;run_dragen_alignment_step</title>
<path fill="none" stroke="black" d="M4616.88,-1693.9C4601.81,-1684.52 4582.91,-1672.81 4566,-1662.42 4320.97,-1511.88 4025.12,-1332.74 3921.79,-1270.26"/>
<polygon fill="black" stroke="black" points="3923.34,-1267.1 3912.97,-1264.92 3919.72,-1273.09 3923.34,-1267.1"/>
</g>
<!-- generate_zs_tags -->
<g id="node21" class="node">
<title>generate_zs_tags</title>
<polygon fill="#94ddf4" stroke="black" points="4417,-1693.92 4417,-1730.92 4557,-1730.92 4557,-1693.92 4417,-1693.92"/>
<text text-anchor="middle" x="4487" y="-1708.72" font-family="Times,serif" font-size="14.00">generate_zs_tags</text>
</g>
<!-- generate_zs_tags&#45;&gt;run_dragen_alignment_step -->
<g id="edge29" class="edge">
<title>generate_zs_tags&#45;&gt;run_dragen_alignment_step</title>
<path fill="none" stroke="black" d="M4464.1,-1693.79C4371.1,-1622.23 4021.6,-1353.3 3915.04,-1271.3"/>
<polygon fill="black" stroke="black" points="3916.98,-1268.38 3906.92,-1265.06 3912.72,-1273.93 3916.98,-1268.38"/>
</g>
<!-- global -->
<g id="node22" class="node">
<title>global</title>
<polygon fill="#94ddf4" stroke="black" points="4339,-1693.92 4339,-1730.92 4399,-1730.92 4399,-1693.92 4339,-1693.92"/>
<text text-anchor="middle" x="4369" y="-1708.72" font-family="Times,serif" font-size="14.00">global</text>
</g>
<!-- global&#45;&gt;run_dragen_alignment_step -->
<g id="edge30" class="edge">
<title>global&#45;&gt;run_dragen_alignment_step</title>
<path fill="none" stroke="black" d="M4356.3,-1693.62C4349.21,-1684.07 4340.01,-1672.26 4331,-1662.42 4185.07,-1502.94 3987.65,-1333.92 3913.64,-1271.98"/>
<polygon fill="black" stroke="black" points="3915.56,-1269.03 3905.64,-1265.3 3911.08,-1274.4 3915.56,-1269.03"/>
</g>
<!-- hard_clips -->
<g id="node23" class="node">
<title>hard_clips</title>
<polygon fill="#94ddf4" stroke="black" points="4232.5,-1693.92 4232.5,-1730.92 4321.5,-1730.92 4321.5,-1693.92 4232.5,-1693.92"/>
<text text-anchor="middle" x="4277" y="-1708.72" font-family="Times,serif" font-size="14.00">hard_clips</text>
</g>
<!-- hard_clips&#45;&gt;run_dragen_alignment_step -->
<g id="edge31" class="edge">
<title>hard_clips&#45;&gt;run_dragen_alignment_step</title>
<path fill="none" stroke="black" d="M4262.07,-1693.79C4201.83,-1622.66 3976.42,-1356.53 3905.5,-1272.8"/>
<polygon fill="black" stroke="black" points="3908.07,-1270.42 3898.94,-1265.06 3902.73,-1274.95 3908.07,-1270.42"/>
</g>
<!-- map_orientations -->
<g id="node24" class="node">
<title>map_orientations</title>
<polygon fill="#94ddf4" stroke="black" points="4074,-1693.92 4074,-1730.92 4214,-1730.92 4214,-1693.92 4074,-1693.92"/>
<text text-anchor="middle" x="4144" y="-1708.72" font-family="Times,serif" font-size="14.00">map_orientations</text>
</g>
<!-- map_orientations&#45;&gt;run_dragen_alignment_step -->
<g id="edge32" class="edge">
<title>map_orientations&#45;&gt;run_dragen_alignment_step</title>
<path fill="none" stroke="black" d="M4134.13,-1693.79C4094.43,-1622.95 3946.34,-1358.67 3898.8,-1273.82"/>
<polygon fill="black" stroke="black" points="3901.83,-1272.07 3893.88,-1265.06 3895.72,-1275.49 3901.83,-1272.07"/>
</g>
<!-- mapq_max -->
<g id="node25" class="node">
<title>mapq_max</title>
<polygon fill="#94ddf4" stroke="black" points="3962.5,-1693.92 3962.5,-1730.92 4055.5,-1730.92 4055.5,-1693.92 3962.5,-1693.92"/>
<text text-anchor="middle" x="4009" y="-1708.72" font-family="Times,serif" font-size="14.00">mapq_max</text>
</g>
<!-- mapq_max&#45;&gt;run_dragen_alignment_step -->
<g id="edge33" class="edge">
<title>mapq_max&#45;&gt;run_dragen_alignment_step</title>
<path fill="none" stroke="black" d="M4004.25,-1693.79C3985.24,-1623.24 3914.55,-1360.81 3891.39,-1274.86"/>
<polygon fill="black" stroke="black" points="3894.73,-1273.8 3888.75,-1265.06 3887.97,-1275.62 3894.73,-1273.8"/>
</g>
<!-- mapq_strict_js -->
<g id="node26" class="node">
<title>mapq_strict_js</title>
<polygon fill="#94ddf4" stroke="black" points="3824,-1693.92 3824,-1730.92 3944,-1730.92 3944,-1693.92 3824,-1693.92"/>
<text text-anchor="middle" x="3884" y="-1708.72" font-family="Times,serif" font-size="14.00">mapq_strict_js</text>
</g>
<!-- mapq_strict_js&#45;&gt;run_dragen_alignment_step -->
<g id="edge34" class="edge">
<title>mapq_strict_js&#45;&gt;run_dragen_alignment_step</title>
<path fill="none" stroke="black" d="M3884,-1693.79C3884,-1623.31 3884,-1361.35 3884,-1275.13"/>
<polygon fill="black" stroke="black" points="3887.5,-1275.06 3884,-1265.06 3880.5,-1275.06 3887.5,-1275.06"/>
</g>
<!-- match_n_score -->
<g id="node27" class="node">
<title>match_n_score</title>
<polygon fill="#94ddf4" stroke="black" points="3684,-1693.92 3684,-1730.92 3806,-1730.92 3806,-1693.92 3684,-1693.92"/>
<text text-anchor="middle" x="3745" y="-1708.72" font-family="Times,serif" font-size="14.00">match_n_score</text>
</g>
<!-- match_n_score&#45;&gt;run_dragen_alignment_step -->
<g id="edge35" class="edge">
<title>match_n_score&#45;&gt;run_dragen_alignment_step</title>
<path fill="none" stroke="black" d="M3750.28,-1693.79C3771.42,-1623.24 3850.03,-1360.81 3875.78,-1274.86"/>
<polygon fill="black" stroke="black" points="3879.2,-1275.64 3878.72,-1265.06 3872.49,-1273.63 3879.2,-1275.64"/>
</g>
<!-- match_score -->
<g id="node28" class="node">
<title>match_score</title>
<polygon fill="#94ddf4" stroke="black" points="3560,-1693.92 3560,-1730.92 3666,-1730.92 3666,-1693.92 3560,-1693.92"/>
<text text-anchor="middle" x="3613" y="-1708.72" font-family="Times,serif" font-size="14.00">match_score</text>
</g>
<!-- match_score&#45;&gt;run_dragen_alignment_step -->
<g id="edge36" class="edge">
<title>match_score&#45;&gt;run_dragen_alignment_step</title>
<path fill="none" stroke="black" d="M3623.29,-1693.79C3664.67,-1622.95 3819.02,-1358.67 3868.58,-1273.82"/>
<polygon fill="black" stroke="black" points="3871.68,-1275.46 3873.7,-1265.06 3865.63,-1271.93 3871.68,-1275.46"/>
</g>
<!-- max_intron_bases -->
<g id="node29" class="node">
<title>max_intron_bases</title>
<polygon fill="#94ddf4" stroke="black" points="3398,-1693.92 3398,-1730.92 3542,-1730.92 3542,-1693.92 3398,-1693.92"/>
<text text-anchor="middle" x="3470" y="-1708.72" font-family="Times,serif" font-size="14.00">max_intron_bases</text>
</g>
<!-- max_intron_bases&#45;&gt;run_dragen_alignment_step -->
<g id="edge37" class="edge">
<title>max_intron_bases&#45;&gt;run_dragen_alignment_step</title>
<path fill="none" stroke="black" d="M3485.72,-1693.79C3549.25,-1622.59 3787.12,-1355.99 3861.58,-1272.55"/>
<polygon fill="black" stroke="black" points="3864.21,-1274.85 3868.26,-1265.06 3858.99,-1270.19 3864.21,-1274.85"/>
</g>
<!-- max_rescues -->
<g id="node30" class="node">
<title>max_rescues</title>
<polygon fill="#94ddf4" stroke="black" points="3272,-1693.92 3272,-1730.92 3380,-1730.92 3380,-1693.92 3272,-1693.92"/>
<text text-anchor="middle" x="3326" y="-1708.72" font-family="Times,serif" font-size="14.00">max_rescues</text>
</g>
<!-- max_rescues&#45;&gt;run_dragen_alignment_step -->
<g id="edge38" class="edge">
<title>max_rescues&#45;&gt;run_dragen_alignment_step</title>
<path fill="none" stroke="black" d="M3347.19,-1693.79C3433.16,-1622.3 3756.02,-1353.84 3854.98,-1271.55"/>
<polygon fill="black" stroke="black" points="3857.33,-1274.14 3862.79,-1265.06 3852.86,-1268.76 3857.33,-1274.14"/>
</g>
<!-- min_intron_bases -->
<g id="node31" class="node">
<title>min_intron_bases</title>
<polygon fill="#94ddf4" stroke="black" points="3112.5,-1693.92 3112.5,-1730.92 3253.5,-1730.92 3253.5,-1693.92 3112.5,-1693.92"/>
<text text-anchor="middle" x="3183" y="-1708.72" font-family="Times,serif" font-size="14.00">min_intron_bases</text>
</g>
<!-- min_intron_bases&#45;&gt;run_dragen_alignment_step -->
<g id="edge39" class="edge">
<title>min_intron_bases&#45;&gt;run_dragen_alignment_step</title>
<path fill="none" stroke="black" d="M3209.62,-1693.79C3317.95,-1622.09 3725.67,-1352.22 3848.66,-1270.81"/>
<polygon fill="black" stroke="black" points="3850.94,-1273.49 3857.35,-1265.06 3847.08,-1267.66 3850.94,-1273.49"/>
</g>
<!-- min_score_coeff -->
<g id="node32" class="node">
<title>min_score_coeff</title>
<polygon fill="#94ddf4" stroke="black" points="2965.5,-1693.92 2965.5,-1730.92 3094.5,-1730.92 3094.5,-1693.92 2965.5,-1693.92"/>
<text text-anchor="middle" x="3030" y="-1708.72" font-family="Times,serif" font-size="14.00">min_score_coeff</text>
</g>
<!-- min_score_coeff&#45;&gt;run_dragen_alignment_step -->
<g id="edge40" class="edge">
<title>min_score_coeff&#45;&gt;run_dragen_alignment_step</title>
<path fill="none" stroke="black" d="M3055.3,-1693.79C3069.42,-1684.18 3087.45,-1672.27 3104,-1662.42 3376.66,-1500.12 3717.97,-1329.14 3838.95,-1269.48"/>
<polygon fill="black" stroke="black" points="3840.53,-1272.6 3847.96,-1265.04 3837.44,-1266.32 3840.53,-1272.6"/>
</g>
<!-- mismatch_pen -->
<g id="node33" class="node">
<title>mismatch_pen</title>
<polygon fill="#94ddf4" stroke="black" points="2828.5,-1693.92 2828.5,-1730.92 2947.5,-1730.92 2947.5,-1693.92 2828.5,-1693.92"/>
<text text-anchor="middle" x="2888" y="-1708.72" font-family="Times,serif" font-size="14.00">mismatch_pen</text>
</g>
<!-- mismatch_pen&#45;&gt;run_dragen_alignment_step -->
<g id="edge41" class="edge">
<title>mismatch_pen&#45;&gt;run_dragen_alignment_step</title>
<path fill="none" stroke="black" d="M2910.25,-1693.91C2923.42,-1684 2940.67,-1671.75 2957,-1662.42 3271.58,-1482.63 3678.42,-1324.08 3826.71,-1268.51"/>
<polygon fill="black" stroke="black" points="3827.96,-1271.78 3836.1,-1265 3825.51,-1265.22 3827.96,-1271.78"/>
</g>
<!-- no_unclip_score -->
<g id="node34" class="node">
<title>no_unclip_score</title>
<polygon fill="#94ddf4" stroke="black" points="2681.5,-1693.92 2681.5,-1730.92 2810.5,-1730.92 2810.5,-1693.92 2681.5,-1693.92"/>
<text text-anchor="middle" x="2746" y="-1708.72" font-family="Times,serif" font-size="14.00">no_unclip_score</text>
</g>
<!-- no_unclip_score&#45;&gt;run_dragen_alignment_step -->
<g id="edge42" class="edge">
<title>no_unclip_score&#45;&gt;run_dragen_alignment_step</title>
<path fill="none" stroke="black" d="M2769.87,-1693.73C2783.99,-1683.74 2802.49,-1671.49 2820,-1662.42 3180.87,-1475.28 3646.15,-1321.71 3817.15,-1267.97"/>
<polygon fill="black" stroke="black" points="3818.28,-1271.28 3826.78,-1264.95 3816.19,-1264.61 3818.28,-1271.28"/>
</g>
<!-- no_unpaired -->
<g id="node35" class="node">
<title>no_unpaired</title>
<polygon fill="#94ddf4" stroke="black" points="2559,-1693.92 2559,-1730.92 2663,-1730.92 2663,-1693.92 2559,-1693.92"/>
<text text-anchor="middle" x="2611" y="-1708.72" font-family="Times,serif" font-size="14.00">no_unpaired</text>
</g>
<!-- no_unpaired&#45;&gt;run_dragen_alignment_step -->
<g id="edge43" class="edge">
<title>no_unpaired&#45;&gt;run_dragen_alignment_step</title>
<path fill="none" stroke="black" d="M2629.9,-1693.7C2641.6,-1683.46 2657.34,-1670.96 2673,-1662.42 3064.58,-1448.76 3586.55,-1315.03 3793.74,-1267.23"/>
<polygon fill="black" stroke="black" points="3794.7,-1270.6 3803.66,-1264.95 3793.14,-1263.78 3794.7,-1270.6"/>
</g>
<!-- output_directory -->
<g id="node36" class="node">
<title>output_directory</title>
<polygon fill="#94ddf4" stroke="black" points="2405,-1693.92 2405,-1730.92 2541,-1730.92 2541,-1693.92 2405,-1693.92"/>
<text text-anchor="middle" x="2473" y="-1708.72" font-family="Times,serif" font-size="14.00">output_directory</text>
</g>
<!-- output_directory&#45;&gt;run_dragen_alignment_step -->
<g id="edge44" class="edge">
<title>output_directory&#45;&gt;run_dragen_alignment_step</title>
<path fill="none" stroke="black" d="M2497.02,-1693.79C2511.75,-1683.58 2531.31,-1671.08 2550,-1662.42 2995.61,-1455.8 3571,-1316.38 3791.99,-1267.14"/>
<polygon fill="black" stroke="black" points="3792.92,-1270.51 3801.93,-1264.93 3791.4,-1263.68 3792.92,-1270.51"/>
</g>
<!-- pe_max_penalty -->
<g id="node37" class="node">
<title>pe_max_penalty</title>
<polygon fill="#94ddf4" stroke="black" points="2255.5,-1693.92 2255.5,-1730.92 2386.5,-1730.92 2386.5,-1693.92 2255.5,-1693.92"/>
<text text-anchor="middle" x="2321" y="-1708.72" font-family="Times,serif" font-size="14.00">pe_max_penalty</text>
</g>
<!-- pe_max_penalty&#45;&gt;run_dragen_alignment_step -->
<g id="edge45" class="edge">
<title>pe_max_penalty&#45;&gt;run_dragen_alignment_step</title>
<path fill="none" stroke="black" d="M2343.91,-1693.79C2358.24,-1683.46 2377.44,-1670.82 2396,-1662.42 2885.08,-1440.86 3519.23,-1312.03 3772.44,-1266.39"/>
<polygon fill="black" stroke="black" points="3773.16,-1269.82 3782.39,-1264.61 3771.93,-1262.93 3773.16,-1269.82"/>
</g>
<!-- pe_orientation -->
<g id="node38" class="node">
<title>pe_orientation</title>
<polygon fill="#94ddf4" stroke="black" points="2118.5,-1693.92 2118.5,-1730.92 2237.5,-1730.92 2237.5,-1693.92 2118.5,-1693.92"/>
<text text-anchor="middle" x="2178" y="-1708.72" font-family="Times,serif" font-size="14.00">pe_orientation</text>
</g>
<!-- pe_orientation&#45;&gt;run_dragen_alignment_step -->
<g id="edge46" class="edge">
<title>pe_orientation&#45;&gt;run_dragen_alignment_step</title>
<path fill="none" stroke="black" d="M2198.49,-1693.79C2211.6,-1683.32 2229.39,-1670.55 2247,-1662.42 2787.32,-1412.72 3500.16,-1298.07 3772.09,-1261.3"/>
<polygon fill="black" stroke="black" points="3772.91,-1264.72 3782.36,-1259.92 3771.98,-1257.78 3772.91,-1264.72"/>
</g>
<!-- preserve_map_align_order -->
<g id="node39" class="node">
<title>preserve_map_align_order</title>
<polygon fill="#94ddf4" stroke="black" points="1895.5,-1693.92 1895.5,-1730.92 2100.5,-1730.92 2100.5,-1693.92 1895.5,-1693.92"/>
<text text-anchor="middle" x="1998" y="-1708.72" font-family="Times,serif" font-size="14.00">preserve_map_align_order</text>
</g>
<!-- preserve_map_align_order&#45;&gt;run_dragen_alignment_step -->
<g id="edge47" class="edge">
<title>preserve_map_align_order&#45;&gt;run_dragen_alignment_step</title>
<path fill="none" stroke="black" d="M2033.66,-1693.82C2055.35,-1683.62 2083.82,-1671.12 2110,-1662.42 2724,-1458.19 3489.54,-1315.35 3772.33,-1266.2"/>
<polygon fill="black" stroke="black" points="3772.93,-1269.65 3782.19,-1264.5 3771.73,-1262.76 3772.93,-1269.65"/>
</g>
<!-- reference_tar -->
<g id="node40" class="node">
<title>reference_tar</title>
<polygon fill="#94ddf4" stroke="black" points="1764.5,-1693.92 1764.5,-1730.92 1877.5,-1730.92 1877.5,-1693.92 1764.5,-1693.92"/>
<text text-anchor="middle" x="1821" y="-1708.72" font-family="Times,serif" font-size="14.00">reference_tar</text>
</g>
<!-- reference_tar&#45;&gt;run_dragen_alignment_step -->
<g id="edge48" class="edge">
<title>reference_tar&#45;&gt;run_dragen_alignment_step</title>
<path fill="none" stroke="black" d="M1840.07,-1693.73C1852.55,-1683.11 1869.68,-1670.19 1887,-1662.42 2560.04,-1360.43 3460.11,-1275.12 3772.03,-1253.81"/>
<polygon fill="black" stroke="black" points="3772.69,-1257.28 3782.43,-1253.11 3772.22,-1250.29 3772.69,-1257.28"/>
</g>
<!-- remove_duplicates -->
<g id="node41" class="node">
<title>remove_duplicates</title>
<polygon fill="#94ddf4" stroke="black" points="1596,-1693.92 1596,-1730.92 1746,-1730.92 1746,-1693.92 1596,-1693.92"/>
<text text-anchor="middle" x="1671" y="-1708.72" font-family="Times,serif" font-size="14.00">remove_duplicates</text>
</g>
<!-- remove_duplicates&#45;&gt;run_dragen_alignment_step -->
<g id="edge49" class="edge">
<title>remove_duplicates&#45;&gt;run_dragen_alignment_step</title>
<path fill="none" stroke="black" d="M1696.32,-1693.84C1712.67,-1683.26 1734.78,-1670.35 1756,-1662.42 2494.77,-1386.22 3449.82,-1284.13 3772.16,-1256.17"/>
<polygon fill="black" stroke="black" points="3772.77,-1259.63 3782.43,-1255.29 3772.17,-1252.66 3772.77,-1259.63"/>
</g>
<!-- rescue_sigmas -->
<g id="node42" class="node">
<title>rescue_sigmas</title>
<polygon fill="#94ddf4" stroke="black" points="1456.5,-1693.92 1456.5,-1730.92 1577.5,-1730.92 1577.5,-1693.92 1456.5,-1693.92"/>
<text text-anchor="middle" x="1517" y="-1708.72" font-family="Times,serif" font-size="14.00">rescue_sigmas</text>
</g>
<!-- rescue_sigmas&#45;&gt;run_dragen_alignment_step -->
<g id="edge50" class="edge">
<title>rescue_sigmas&#45;&gt;run_dragen_alignment_step</title>
<path fill="none" stroke="black" d="M1537.04,-1693.85C1550.33,-1683.13 1568.65,-1670.06 1587,-1662.42 2378.59,-1332.64 3430.99,-1264.49 3772.16,-1250.78"/>
<polygon fill="black" stroke="black" points="3772.44,-1254.27 3782.29,-1250.38 3772.16,-1247.27 3772.44,-1254.27"/>
</g>
<!-- sec_aligns -->
<g id="node43" class="node">
<title>sec_aligns</title>
<polygon fill="#94ddf4" stroke="black" points="1349.5,-1693.92 1349.5,-1730.92 1438.5,-1730.92 1438.5,-1693.92 1349.5,-1693.92"/>
<text text-anchor="middle" x="1394" y="-1708.72" font-family="Times,serif" font-size="14.00">sec_aligns</text>
</g>
<!-- sec_aligns&#45;&gt;run_dragen_alignment_step -->
<g id="edge51" class="edge">
<title>sec_aligns&#45;&gt;run_dragen_alignment_step</title>
<path fill="none" stroke="black" d="M1408.71,-1693.69C1418.67,-1682.91 1432.75,-1669.84 1448,-1662.42 1870.37,-1456.92 3352.45,-1299.34 3772.36,-1258.05"/>
<polygon fill="black" stroke="black" points="3772.77,-1261.53 3782.38,-1257.07 3772.09,-1254.56 3772.77,-1261.53"/>
</g>
<!-- sec_aligns_hard -->
<g id="node44" class="node">
<title>sec_aligns_hard</title>
<polygon fill="#94ddf4" stroke="black" points="1202.5,-1693.92 1202.5,-1730.92 1331.5,-1730.92 1331.5,-1693.92 1202.5,-1693.92"/>
<text text-anchor="middle" x="1267" y="-1708.72" font-family="Times,serif" font-size="14.00">sec_aligns_hard</text>
</g>
<!-- sec_aligns_hard&#45;&gt;run_dragen_alignment_step -->
<g id="edge52" class="edge">
<title>sec_aligns_hard&#45;&gt;run_dragen_alignment_step</title>
<path fill="none" stroke="black" d="M1288.3,-1693.77C1302.4,-1683.02 1321.77,-1669.95 1341,-1662.42 2231.6,-1313.57 3408.52,-1257.95 3772.17,-1249.09"/>
<polygon fill="black" stroke="black" points="3772.52,-1252.58 3782.43,-1248.85 3772.35,-1245.59 3772.52,-1252.58"/>
</g>
<!-- sec_phred_delta -->
<g id="node45" class="node">
<title>sec_phred_delta</title>
<polygon fill="#94ddf4" stroke="black" points="1053.5,-1693.92 1053.5,-1730.92 1184.5,-1730.92 1184.5,-1693.92 1053.5,-1693.92"/>
<text text-anchor="middle" x="1119" y="-1708.72" font-family="Times,serif" font-size="14.00">sec_phred_delta</text>
</g>
<!-- sec_phred_delta&#45;&gt;run_dragen_alignment_step -->
<g id="edge53" class="edge">
<title>sec_phred_delta&#45;&gt;run_dragen_alignment_step</title>
<path fill="none" stroke="black" d="M1140.61,-1693.72C1154.9,-1682.95 1174.54,-1669.87 1194,-1662.42 2142.88,-1298.86 3395.7,-1253.25 3772.32,-1247.97"/>
<polygon fill="black" stroke="black" points="3772.45,-1251.47 3782.4,-1247.83 3772.35,-1244.47 3772.45,-1251.47"/>
</g>
<!-- sec_score_delta -->
<g id="node46" class="node">
<title>sec_score_delta</title>
<polygon fill="#94ddf4" stroke="black" points="907,-1693.92 907,-1730.92 1035,-1730.92 1035,-1693.92 907,-1693.92"/>
<text text-anchor="middle" x="971" y="-1708.72" font-family="Times,serif" font-size="14.00">sec_score_delta</text>
</g>
<!-- sec_score_delta&#45;&gt;run_dragen_alignment_step -->
<g id="edge54" class="edge">
<title>sec_score_delta&#45;&gt;run_dragen_alignment_step</title>
<path fill="none" stroke="black" d="M991.95,-1693.9C1006.05,-1683.06 1025.57,-1669.84 1045,-1662.42 2050.73,-1278.09 3382,-1246.91 3772.13,-1246.51"/>
<polygon fill="black" stroke="black" points="3772.29,-1250.01 3782.28,-1246.51 3772.28,-1243.01 3772.29,-1250.01"/>
</g>
<!-- seed_density -->
<g id="node47" class="node">
<title>seed_density</title>
<polygon fill="#94ddf4" stroke="black" points="779.5,-1693.92 779.5,-1730.92 888.5,-1730.92 888.5,-1693.92 779.5,-1693.92"/>
<text text-anchor="middle" x="834" y="-1708.72" font-family="Times,serif" font-size="14.00">seed_density</text>
</g>
<!-- seed_density&#45;&gt;run_dragen_alignment_step -->
<g id="edge55" class="edge">
<title>seed_density&#45;&gt;run_dragen_alignment_step</title>
<path fill="none" stroke="black" d="M851.69,-1693.8C863.72,-1682.93 880.57,-1669.7 898,-1662.42 1435.5,-1437.84 3295.93,-1290.04 3772.23,-1255.3"/>
<polygon fill="black" stroke="black" points="3772.49,-1258.79 3782.21,-1254.57 3771.98,-1251.81 3772.49,-1258.79"/>
</g>
<!-- supp_aligns -->
<g id="node48" class="node">
<title>supp_aligns</title>
<polygon fill="#94ddf4" stroke="black" points="660.5,-1693.92 660.5,-1730.92 761.5,-1730.92 761.5,-1693.92 660.5,-1693.92"/>
<text text-anchor="middle" x="711" y="-1708.72" font-family="Times,serif" font-size="14.00">supp_aligns</text>
</g>
<!-- supp_aligns&#45;&gt;run_dragen_alignment_step -->
<g id="edge56" class="edge">
<title>supp_aligns&#45;&gt;run_dragen_alignment_step</title>
<path fill="none" stroke="black" d="M727.38,-1693.76C738.56,-1682.86 754.34,-1669.63 771,-1662.42 1329.73,-1420.45 3283.01,-1284.81 3772.24,-1254.14"/>
<polygon fill="black" stroke="black" points="3772.72,-1257.62 3782.48,-1253.5 3772.28,-1250.63 3772.72,-1257.62"/>
</g>
<!-- supp_as_sec -->
<g id="node49" class="node">
<title>supp_as_sec</title>
<polygon fill="#94ddf4" stroke="black" points="538,-1693.92 538,-1730.92 642,-1730.92 642,-1693.92 538,-1693.92"/>
<text text-anchor="middle" x="590" y="-1708.72" font-family="Times,serif" font-size="14.00">supp_as_sec</text>
</g>
<!-- supp_as_sec&#45;&gt;run_dragen_alignment_step -->
<g id="edge57" class="edge">
<title>supp_as_sec&#45;&gt;run_dragen_alignment_step</title>
<path fill="none" stroke="black" d="M607.02,-1693.74C618.62,-1682.83 634.93,-1669.6 652,-1662.42 1235.91,-1416.74 3271.75,-1283.3 3772.22,-1253.75"/>
<polygon fill="black" stroke="black" points="3772.56,-1257.23 3782.34,-1253.15 3772.15,-1250.24 3772.56,-1257.23"/>
</g>
<!-- supp_min_score_adj -->
<g id="node50" class="node">
<title>supp_min_score_adj</title>
<polygon fill="#94ddf4" stroke="black" points="362,-1693.92 362,-1730.92 520,-1730.92 520,-1693.92 362,-1693.92"/>
<text text-anchor="middle" x="441" y="-1708.72" font-family="Times,serif" font-size="14.00">supp_min_score_adj</text>
</g>
<!-- supp_min_score_adj&#45;&gt;run_dragen_alignment_step -->
<g id="edge58" class="edge">
<title>supp_min_score_adj&#45;&gt;run_dragen_alignment_step</title>
<path fill="none" stroke="black" d="M466.35,-1693.83C483.31,-1682.97 506.56,-1669.74 529,-1662.42 1154.97,-1458.05 3261.26,-1293.1 3771.83,-1255.49"/>
<polygon fill="black" stroke="black" points="3772.43,-1258.95 3782.14,-1254.73 3771.91,-1251.97 3772.43,-1258.95"/>
</g>
<!-- unclip_score -->
<g id="node51" class="node">
<title>unclip_score</title>
<polygon fill="#94ddf4" stroke="black" points="238.5,-1693.92 238.5,-1730.92 343.5,-1730.92 343.5,-1693.92 238.5,-1693.92"/>
<text text-anchor="middle" x="291" y="-1708.72" font-family="Times,serif" font-size="14.00">unclip_score</text>
</g>
<!-- unclip_score&#45;&gt;run_dragen_alignment_step -->
<g id="edge59" class="edge">
<title>unclip_score&#45;&gt;run_dragen_alignment_step</title>
<path fill="none" stroke="black" d="M307.99,-1693.68C319.58,-1682.75 335.89,-1669.51 353,-1662.42 995.57,-1396.1 3243.54,-1277.05 3772.11,-1252.38"/>
<polygon fill="black" stroke="black" points="3772.58,-1255.86 3782.41,-1251.9 3772.25,-1248.87 3772.58,-1255.86"/>
</g>
<!-- unpaired_pen -->
<g id="node52" class="node">
<title>unpaired_pen</title>
<polygon fill="#94ddf4" stroke="black" points="107.5,-1693.92 107.5,-1730.92 220.5,-1730.92 220.5,-1693.92 107.5,-1693.92"/>
<text text-anchor="middle" x="164" y="-1708.72" font-family="Times,serif" font-size="14.00">unpaired_pen</text>
</g>
<!-- unpaired_pen&#45;&gt;run_dragen_alignment_step -->
<g id="edge60" class="edge">
<title>unpaired_pen&#45;&gt;run_dragen_alignment_step</title>
<path fill="none" stroke="black" d="M182.01,-1693.91C194.45,-1682.92 211.95,-1669.54 230,-1662.42 900.89,-1397.67 3233.65,-1276.99 3772.38,-1252.29"/>
<polygon fill="black" stroke="black" points="3772.65,-1255.78 3782.48,-1251.83 3772.34,-1248.79 3772.65,-1255.78"/>
</g>
<!-- verbose -->
<g id="node53" class="node">
<title>verbose</title>
<polygon fill="#94ddf4" stroke="black" points="16.5,-1693.92 16.5,-1730.92 89.5,-1730.92 89.5,-1693.92 16.5,-1693.92"/>
<text text-anchor="middle" x="53" y="-1708.72" font-family="Times,serif" font-size="14.00">verbose</text>
</g>
<!-- verbose&#45;&gt;run_dragen_alignment_step -->
<g id="edge61" class="edge">
<title>verbose&#45;&gt;run_dragen_alignment_step</title>
<path fill="none" stroke="black" d="M64.15,-1693.89C72.16,-1682.9 83.98,-1669.51 98,-1662.42 766.29,-1324.16 3216.84,-1259.58 3771.77,-1249.2"/>
<polygon fill="black" stroke="black" points="3772.24,-1252.69 3782.17,-1249.01 3772.11,-1245.69 3772.24,-1252.69"/>
</g>
<!-- dragen_alignment_output_directory -->
<g id="node54" class="node">
<title>dragen_alignment_output_directory</title>
<polygon fill="#94ddf4" stroke="black" points="3748,-332.92 3748,-369.92 4020,-369.92 4020,-332.92 3748,-332.92"/>
<text text-anchor="middle" x="3884" y="-347.72" font-family="Times,serif" font-size="14.00">dragen_alignment_output_directory</text>
</g>
<!-- dragen_bam_out -->
<g id="node55" class="node">
<title>dragen_bam_out</title>
<polygon fill="#94ddf4" stroke="black" points="4038,-332.92 4038,-369.92 4172,-369.92 4172,-332.92 4038,-332.92"/>
<text text-anchor="middle" x="4105" y="-347.72" font-family="Times,serif" font-size="14.00">dragen_bam_out</text>
</g>
<!-- multiqc_output_directory -->
<g id="node56" class="node">
<title>multiqc_output_directory</title>
<polygon fill="#94ddf4" stroke="black" points="4190.5,-332.92 4190.5,-369.92 4387.5,-369.92 4387.5,-332.92 4190.5,-332.92"/>
<text text-anchor="middle" x="4289" y="-347.72" font-family="Times,serif" font-size="14.00">multiqc_output_directory</text>
</g>
<!-- run_dragen_alignment_step&#45;&gt;dragen_alignment_output_directory -->
<g id="edge2" class="edge">
<title>run_dragen_alignment_step&#45;&gt;dragen_alignment_output_directory</title>
<path fill="none" stroke="black" d="M3884,-1227.58C3884,-1116.17 3884,-516.23 3884,-379.96"/>
<polygon fill="black" stroke="black" points="3887.5,-379.93 3884,-369.93 3880.5,-379.93 3887.5,-379.93"/>
</g>
<!-- run_dragen_alignment_step&#45;&gt;dragen_bam_out -->
<g id="edge3" class="edge">
<title>run_dragen_alignment_step&#45;&gt;dragen_bam_out</title>
<path fill="none" stroke="black" d="M3888.41,-1227.58C3915.99,-1116.17 4064.46,-516.23 4098.18,-379.96"/>
<polygon fill="black" stroke="black" points="4101.66,-380.48 4100.67,-369.93 4094.87,-378.8 4101.66,-380.48"/>
</g>
<!-- run_dragen_alignment_step&#45;&gt;dragen_qc_step -->
<g id="edge1" class="edge">
<title>run_dragen_alignment_step&#45;&gt;dragen_qc_step</title>
<path fill="none" stroke="black" d="M3985.73,-1232.25C4498.33,-1165.91 6791.65,-869.09 7250.09,-809.76"/>
<polygon fill="black" stroke="black" points="7250.79,-813.2 7260.26,-808.44 7249.89,-806.25 7250.79,-813.2"/>
</g>
<!-- dragen_qc_step&#45;&gt;multiqc_output_directory -->
<g id="edge4" class="edge">
<title>dragen_qc_step&#45;&gt;multiqc_output_directory</title>
<path fill="none" stroke="black" d="M7260.41,-787.23C6863.42,-729.14 4885.7,-439.73 4397.89,-368.35"/>
<polygon fill="black" stroke="black" points="4398.09,-364.84 4387.68,-366.86 4397.07,-371.77 4398.09,-364.84"/>
</g>
<!-- create_dummy_file_step -->
<g id="node59" class="node">
<title>create_dummy_file_step</title>
<polygon fill="lightgoldenrodyellow" stroke="black" points="7376.5,-1227.92 7376.5,-1264.92 7637.5,-1264.92 7637.5,-1227.92 7376.5,-1227.92"/>
<text text-anchor="middle" x="7507" y="-1242.72" font-family="Times,serif" font-size="14.00">custom&#45;create&#45;dummy&#45;file v(1.0.0)</text>
</g>
<!-- create_dummy_file_step&#45;&gt;dragen_qc_step -->
<g id="edge5" class="edge">
<title>create_dummy_file_step&#45;&gt;dragen_qc_step</title>
<path fill="none" stroke="black" d="M7499.95,-1227.66C7472.67,-1158.91 7373.89,-910 7340.85,-826.75"/>
<polygon fill="black" stroke="black" points="7344.01,-825.23 7337.07,-817.23 7337.5,-827.81 7344.01,-825.23"/>
</g>
<!-- \n -->
<g id="node60" class="node">
<title>\n</title>
<ellipse fill="none" stroke="black" cx="7445" cy="-1712.42" rx="27" ry="18"/>
</g>
</g>
</svg>
