<?xml version="1.0" encoding="UTF-8" standalone="no"?>
<!DOCTYPE svg PUBLIC "-//W3C//DTD SVG 1.1//EN"
 "http://www.w3.org/Graphics/SVG/1.1/DTD/svg11.dtd">
<!-- Generated by graphviz version 2.43.0 (0)
 -->
<!-- Title: G Pages: 1 -->
<svg width="981pt" height="710pt"
 viewBox="0.00 0.00 981.00 709.53" xmlns="http://www.w3.org/2000/svg" xmlns:xlink="http://www.w3.org/1999/xlink">
<g id="graph0" class="graph" transform="scale(1 1) rotate(0) translate(4 705.53)">
<title>G</title>
<polygon fill="#eeeeee" stroke="transparent" points="-4,4 -4,-705.53 977,-705.53 977,4 -4,4"/>
<g id="clust1" class="cluster">
<title>cluster_inputs</title>
<polygon fill="#eeeeee" stroke="black" stroke-dasharray="5,2" points="271,-604.42 271,-692.39 641,-692.39 641,-604.42 271,-604.42"/>
<text text-anchor="middle" x="574.5" y="-612.22" font-family="Times,serif" font-size="14.00">Workflow Inputs</text>
</g>
<g id="clust2" class="cluster">
<title>cluster_outputs</title>
<polygon fill="#eeeeee" stroke="black" stroke-dasharray="5,2" points="547,-9.14 547,-97.12 965,-97.12 965,-9.14 547,-9.14"/>
<text text-anchor="middle" x="892.5" y="-16.94" font-family="Times,serif" font-size="14.00">Workflow Outputs</text>
</g>
<!-- bam_sorted -->
<g id="node1" class="node">
<title>bam_sorted</title>
<polygon fill="#94ddf4" stroke="black" points="401,-642.64 401,-679.64 501,-679.64 501,-642.64 401,-642.64"/>
<text text-anchor="middle" x="451" y="-657.44" font-family="Times,serif" font-size="14.00">bam_sorted</text>
</g>
<!-- get_bam_slice_from_bed_step -->
<g id="node10" class="node">
<title>get_bam_slice_from_bed_step</title>
<polygon fill="lightgoldenrodyellow" stroke="black" points="0,-554.64 0,-591.64 264,-591.64 264,-554.64 0,-554.64"/>
<text text-anchor="middle" x="132" y="-569.44" font-family="Times,serif" font-size="14.00">sambamba&#45;slice&#45;and&#45;index v(0.8.0)</text>
</g>
<!-- bam_sorted&#45;&gt;get_bam_slice_from_bed_step -->
<g id="edge11" class="edge">
<title>bam_sorted&#45;&gt;get_bam_slice_from_bed_step</title>
<path fill="none" stroke="black" d="M434.6,-642.54C423.4,-631.66 407.63,-618.43 391,-611.14 384.97,-608.49 331.19,-600.64 274.19,-592.85"/>
<polygon fill="black" stroke="black" points="274.66,-589.38 264.28,-591.5 273.71,-596.32 274.66,-589.38"/>
</g>
<!-- get_unmapped_file_from_sorted_bam_step -->
<g id="node13" class="node">
<title>get_unmapped_file_from_sorted_bam_step</title>
<polygon fill="lightgoldenrodyellow" stroke="black" points="282.5,-554.64 282.5,-591.64 547.5,-591.64 547.5,-554.64 282.5,-554.64"/>
<text text-anchor="middle" x="415" y="-569.44" font-family="Times,serif" font-size="14.00">sambamba&#45;view&#45;and&#45;index v(0.8.0)</text>
</g>
<!-- bam_sorted&#45;&gt;get_unmapped_file_from_sorted_bam_step -->
<g id="edge12" class="edge">
<title>bam_sorted&#45;&gt;get_unmapped_file_from_sorted_bam_step</title>
<path fill="none" stroke="black" d="M443.54,-642.32C438.54,-630.37 431.85,-614.4 426.21,-600.92"/>
<polygon fill="black" stroke="black" points="429.42,-599.52 422.33,-591.64 422.96,-602.22 429.42,-599.52"/>
</g>
<!-- sample_name -->
<g id="node2" class="node">
<title>sample_name</title>
<polygon fill="#94ddf4" stroke="black" points="519.5,-642.64 519.5,-679.64 632.5,-679.64 632.5,-642.64 519.5,-642.64"/>
<text text-anchor="middle" x="576" y="-657.44" font-family="Times,serif" font-size="14.00">sample_name</text>
</g>
<!-- merge_hla_and_unmapped_bam_files_step -->
<g id="node8" class="node">
<title>merge_hla_and_unmapped_bam_files_step</title>
<polygon fill="lightgoldenrodyellow" stroke="black" points="298,-385.64 298,-422.64 576,-422.64 576,-385.64 298,-385.64"/>
<text text-anchor="middle" x="437" y="-400.44" font-family="Times,serif" font-size="14.00">sambamba&#45;merge&#45;and&#45;index v(0.8.0)</text>
</g>
<!-- sample_name&#45;&gt;merge_hla_and_unmapped_bam_files_step -->
<g id="edge13" class="edge">
<title>sample_name&#45;&gt;merge_hla_and_unmapped_bam_files_step</title>
<path fill="none" stroke="black" d="M578.03,-642.38C581.18,-606.49 583.53,-524.19 547,-470.14 534.4,-451.5 514.52,-437.42 495.1,-427.22"/>
<polygon fill="black" stroke="black" points="496.45,-423.99 485.94,-422.67 493.33,-430.26 496.45,-423.99"/>
</g>
<!-- sort_merged_bam_by_name_step -->
<g id="node9" class="node">
<title>sort_merged_bam_by_name_step</title>
<polygon fill="lightgoldenrodyellow" stroke="black" points="364,-301.64 364,-338.64 624,-338.64 624,-301.64 364,-301.64"/>
<text text-anchor="middle" x="494" y="-316.44" font-family="Times,serif" font-size="14.00">sambamba&#45;sort&#45;and&#45;index v(0.8.0)</text>
</g>
<!-- sample_name&#45;&gt;sort_merged_bam_by_name_step -->
<g id="edge19" class="edge">
<title>sample_name&#45;&gt;sort_merged_bam_by_name_step</title>
<path fill="none" stroke="black" d="M582.32,-642.64C597.69,-596.89 632.4,-471.38 585,-385.14 575.5,-367.86 559.11,-354.18 542.83,-343.99"/>
<polygon fill="black" stroke="black" points="544.23,-340.75 533.84,-338.68 540.67,-346.78 544.23,-340.75"/>
</g>
<!-- sample_name&#45;&gt;get_bam_slice_from_bed_step -->
<g id="edge14" class="edge">
<title>sample_name&#45;&gt;get_bam_slice_from_bed_step</title>
<path fill="none" stroke="black" d="M558.07,-642.43C545.66,-631.37 528.17,-617.97 510,-611.14 463.15,-593.54 339.55,-597.13 274.39,-592.12"/>
<polygon fill="black" stroke="black" points="274.34,-588.6 264.07,-591.19 273.72,-595.57 274.34,-588.6"/>
</g>
<!-- unmapped_and_hla_bam_to_fastq_step -->
<g id="node11" class="node">
<title>unmapped_and_hla_bam_to_fastq_step</title>
<polygon fill="lightgoldenrodyellow" stroke="black" points="528.5,-216.64 528.5,-253.64 717.5,-253.64 717.5,-216.64 528.5,-216.64"/>
<text text-anchor="middle" x="623" y="-231.44" font-family="Times,serif" font-size="14.00">samtools&#45;fastq v(1.12.0)</text>
</g>
<!-- sample_name&#45;&gt;unmapped_and_hla_bam_to_fastq_step -->
<g id="edge15" class="edge">
<title>sample_name&#45;&gt;unmapped_and_hla_bam_to_fastq_step</title>
<path fill="none" stroke="black" d="M586.38,-642.25C607.61,-612.78 652,-551.19 652,-490.14 652,-490.14 652,-490.14 652,-403.14 652,-352.97 635.49,-296.38 626.81,-263.63"/>
<polygon fill="black" stroke="black" points="630.18,-262.69 624.3,-253.88 623.41,-264.44 630.18,-262.69"/>
</g>
<!-- sample_name&#45;&gt;unmapped_and_hla_bam_to_fastq_step -->
<g id="edge16" class="edge">
<title>sample_name&#45;&gt;unmapped_and_hla_bam_to_fastq_step</title>
<path fill="none" stroke="black" d="M597.59,-642.25C625.61,-612.78 670,-551.19 670,-490.14 670,-490.14 670,-490.14 670,-403.14 670,-352.75 653.35,-295.89 639.48,-263.21"/>
<polygon fill="black" stroke="black" points="642.58,-261.57 635.29,-253.88 636.19,-264.43 642.58,-261.57"/>
</g>
<!-- optitype_step -->
<g id="node12" class="node">
<title>optitype_step</title>
<polygon fill="lightgoldenrodyellow" stroke="black" points="687.5,-132.64 687.5,-169.64 822.5,-169.64 822.5,-132.64 687.5,-132.64"/>
<text text-anchor="middle" x="755" y="-147.44" font-family="Times,serif" font-size="14.00">optitype v(1.3.5)</text>
</g>
<!-- sample_name&#45;&gt;optitype_step -->
<g id="edge17" class="edge">
<title>sample_name&#45;&gt;optitype_step</title>
<path fill="none" stroke="black" d="M592.42,-642.58C608.37,-629.36 632.37,-610.44 652,-592.14 697.09,-550.1 746,-551.79 746,-490.14 746,-490.14 746,-490.14 746,-319.14 746,-270.17 746,-213.12 748.58,-179.97"/>
<polygon fill="black" stroke="black" points="752.1,-179.98 749.56,-169.69 745.13,-179.32 752.1,-179.98"/>
</g>
<!-- sample_name&#45;&gt;optitype_step -->
<g id="edge18" class="edge">
<title>sample_name&#45;&gt;optitype_step</title>
<path fill="none" stroke="black" d="M607.34,-642.58C626.37,-629.36 650.37,-610.44 670,-592.14 715.09,-550.1 764,-551.79 764,-490.14 764,-490.14 764,-490.14 764,-319.14 764,-270.17 764,-213.12 761.42,-179.97"/>
<polygon fill="black" stroke="black" points="764.87,-179.32 760.44,-169.69 757.9,-179.98 764.87,-179.32"/>
</g>
<!-- sample_name&#45;&gt;get_unmapped_file_from_sorted_bam_step -->
<g id="edge20" class="edge">
<title>sample_name&#45;&gt;get_unmapped_file_from_sorted_bam_step</title>
<path fill="none" stroke="black" d="M555.28,-642.5C542.74,-632.42 526.11,-620.05 510,-611.14 499.59,-605.39 488.1,-600.1 476.82,-595.44"/>
<polygon fill="black" stroke="black" points="478,-592.15 467.42,-591.68 475.4,-598.64 478,-592.15"/>
</g>
<!-- regions_bed -->
<g id="node3" class="node">
<title>regions_bed</title>
<polygon fill="#94ddf4" stroke="black" points="279.5,-642.64 279.5,-679.64 382.5,-679.64 382.5,-642.64 279.5,-642.64"/>
<text text-anchor="middle" x="331" y="-657.44" font-family="Times,serif" font-size="14.00">regions_bed</text>
</g>
<!-- regions_bed&#45;&gt;get_bam_slice_from_bed_step -->
<g id="edge21" class="edge">
<title>regions_bed&#45;&gt;get_bam_slice_from_bed_step</title>
<path fill="none" stroke="black" d="M290.25,-642.53C258.99,-629.02 215.69,-610.31 182.28,-595.87"/>
<polygon fill="black" stroke="black" points="183.26,-592.48 172.7,-591.73 180.49,-598.91 183.26,-592.48"/>
</g>
<!-- coverage_plot -->
<g id="node4" class="node">
<title>coverage_plot</title>
<polygon fill="#94ddf4" stroke="black" points="841,-47.64 841,-84.64 957,-84.64 957,-47.64 841,-47.64"/>
<text text-anchor="middle" x="899" y="-62.44" font-family="Times,serif" font-size="14.00">coverage_plot</text>
</g>
<!-- output_directory -->
<g id="node5" class="node">
<title>output_directory</title>
<polygon fill="#94ddf4" stroke="black" points="687,-47.64 687,-84.64 823,-84.64 823,-47.64 687,-47.64"/>
<text text-anchor="middle" x="755" y="-62.44" font-family="Times,serif" font-size="14.00">output_directory</text>
</g>
<!-- result_matrix -->
<g id="node6" class="node">
<title>result_matrix</title>
<polygon fill="#94ddf4" stroke="black" points="555.5,-47.64 555.5,-84.64 668.5,-84.64 668.5,-47.64 555.5,-47.64"/>
<text text-anchor="middle" x="612" y="-62.44" font-family="Times,serif" font-size="14.00">result_matrix</text>
</g>
<!-- subset_unmapped_bam -->
<g id="node7" class="node">
<title>subset_unmapped_bam</title>
<polygon fill="lightgoldenrodyellow" stroke="black" points="314,-470.64 314,-507.64 538,-507.64 538,-470.64 314,-470.64"/>
<text text-anchor="middle" x="426" y="-485.44" font-family="Times,serif" font-size="14.00">custom&#45;subset&#45;bam v(1.12.0)</text>
</g>
<!-- subset_unmapped_bam&#45;&gt;merge_hla_and_unmapped_bam_files_step -->
<g id="edge1" class="edge">
<title>subset_unmapped_bam&#45;&gt;merge_hla_and_unmapped_bam_files_step</title>
<path fill="none" stroke="black" d="M428.33,-470.54C429.79,-459.53 431.7,-445.13 433.36,-432.64"/>
<polygon fill="black" stroke="black" points="436.83,-433.09 434.67,-422.72 429.89,-432.17 436.83,-433.09"/>
</g>
<!-- merge_hla_and_unmapped_bam_files_step&#45;&gt;sort_merged_bam_by_name_step -->
<g id="edge2" class="edge">
<title>merge_hla_and_unmapped_bam_files_step&#45;&gt;sort_merged_bam_by_name_step</title>
<path fill="none" stroke="black" d="M449.37,-385.35C457.14,-374.17 467.29,-359.57 475.95,-347.11"/>
<polygon fill="black" stroke="black" points="478.82,-349.11 481.66,-338.9 473.07,-345.11 478.82,-349.11"/>
</g>
<!-- sort_merged_bam_by_name_step&#45;&gt;unmapped_and_hla_bam_to_fastq_step -->
<g id="edge9" class="edge">
<title>sort_merged_bam_by_name_step&#45;&gt;unmapped_and_hla_bam_to_fastq_step</title>
<path fill="none" stroke="black" d="M521.36,-301.54C540.51,-289.21 566.3,-272.62 587.1,-259.24"/>
<polygon fill="black" stroke="black" points="589.17,-262.07 595.68,-253.72 585.38,-256.18 589.17,-262.07"/>
</g>
<!-- get_bam_slice_from_bed_step&#45;&gt;merge_hla_and_unmapped_bam_files_step -->
<g id="edge3" class="edge">
<title>get_bam_slice_from_bed_step&#45;&gt;merge_hla_and_unmapped_bam_files_step</title>
<path fill="none" stroke="black" d="M160.4,-554.51C194.37,-533.62 253.15,-498.14 305,-470.14 332.93,-455.06 364.84,-439.31 390.29,-427.09"/>
<polygon fill="black" stroke="black" points="391.84,-430.22 399.35,-422.75 388.82,-423.91 391.84,-430.22"/>
</g>
<!-- unmapped_and_hla_bam_to_fastq_step&#45;&gt;optitype_step -->
<g id="edge4" class="edge">
<title>unmapped_and_hla_bam_to_fastq_step&#45;&gt;optitype_step</title>
<path fill="none" stroke="black" d="M645.66,-216.55C663.95,-204.39 690.02,-188.1 712.17,-174.94"/>
<polygon fill="black" stroke="black" points="714.23,-177.79 721.08,-169.7 710.68,-171.76 714.23,-177.79"/>
</g>
<!-- unmapped_and_hla_bam_to_fastq_step&#45;&gt;optitype_step -->
<g id="edge5" class="edge">
<title>unmapped_and_hla_bam_to_fastq_step&#45;&gt;optitype_step</title>
<path fill="none" stroke="black" d="M656.97,-216.55C677.65,-204.5 703.74,-188.39 723.87,-175.29"/>
<polygon fill="black" stroke="black" points="725.95,-178.12 732.38,-169.7 722.1,-172.27 725.95,-178.12"/>
</g>
<!-- optitype_step&#45;&gt;coverage_plot -->
<g id="edge6" class="edge">
<title>optitype_step&#45;&gt;coverage_plot</title>
<path fill="none" stroke="black" d="M785.54,-132.54C807.11,-120.1 836.22,-103.33 859.55,-89.88"/>
<polygon fill="black" stroke="black" points="861.59,-92.74 868.51,-84.72 858.09,-86.68 861.59,-92.74"/>
</g>
<!-- optitype_step&#45;&gt;output_directory -->
<g id="edge7" class="edge">
<title>optitype_step&#45;&gt;output_directory</title>
<path fill="none" stroke="black" d="M755,-132.54C755,-121.64 755,-107.42 755,-95.02"/>
<polygon fill="black" stroke="black" points="758.5,-94.72 755,-84.72 751.5,-94.72 758.5,-94.72"/>
</g>
<!-- optitype_step&#45;&gt;result_matrix -->
<g id="edge8" class="edge">
<title>optitype_step&#45;&gt;result_matrix</title>
<path fill="none" stroke="black" d="M724.67,-132.54C703.25,-120.1 674.34,-103.33 651.18,-89.88"/>
<polygon fill="black" stroke="black" points="652.69,-86.71 642.28,-84.72 649.17,-92.76 652.69,-86.71"/>
</g>
<!-- get_unmapped_file_from_sorted_bam_step&#45;&gt;subset_unmapped_bam -->
<g id="edge10" class="edge">
<title>get_unmapped_file_from_sorted_bam_step&#45;&gt;subset_unmapped_bam</title>
<path fill="none" stroke="black" d="M417.39,-554.35C418.81,-543.71 420.66,-529.96 422.27,-517.92"/>
<polygon fill="black" stroke="black" points="425.76,-518.28 423.62,-507.9 418.82,-517.34 425.76,-518.28"/>
</g>
<!-- \n -->
<g id="node14" class="node">
<title>\n</title>
<ellipse fill="none" stroke="black" cx="678" cy="-661.14" rx="27" ry="18"/>
</g>
</g>
</svg>
