<?xml version="1.0" encoding="UTF-8" standalone="no"?>
<!DOCTYPE svg PUBLIC "-//W3C//DTD SVG 1.1//EN"
 "http://www.w3.org/Graphics/SVG/1.1/DTD/svg11.dtd">
<!-- Generated by graphviz version 2.40.1 (20161225.0304)
 -->
<!-- Title: G Pages: 1 -->
<svg width="980pt" height="708pt"
 viewBox="0.00 0.00 979.50 708.09" xmlns="http://www.w3.org/2000/svg" xmlns:xlink="http://www.w3.org/1999/xlink">
<g id="graph0" class="graph" transform="scale(1 1) rotate(0) translate(4 704.091)">
<title>G</title>
<polygon fill="#eeeeee" stroke="transparent" points="-4,4 -4,-704.091 975.5,-704.091 975.5,4 -4,4"/>
<g id="clust1" class="cluster">
<title>cluster_inputs</title>
<polygon fill="#eeeeee" stroke="#000000" stroke-dasharray="5,2" points="330,-603.1729 330,-690.9693 702,-690.9693 702,-603.1729 330,-603.1729"/>
<text text-anchor="middle" x="634" y="-610.9729" font-family="Times,serif" font-size="14.00" fill="#000000">Workflow Inputs</text>
</g>
<g id="clust2" class="cluster">
<title>cluster_outputs</title>
<polygon fill="#eeeeee" stroke="#000000" stroke-dasharray="5,2" points="8,-9.1217 8,-96.9181 428,-96.9181 428,-9.1217 8,-9.1217"/>
<text text-anchor="middle" x="354" y="-16.9217" font-family="Times,serif" font-size="14.00" fill="#000000">Workflow Outputs</text>
</g>
<!-- file:///tmp/tmpajr4uenx#regions_bed -->
<g id="node1" class="node">
<title>file:///tmp/tmpajr4uenx#regions_bed</title>
<g id="a_node1"><a xlink:title="The bed file used to slice the bam file&#10;This should contain the HLA region on chrom 6 and any extra HLA contigs (for hg38)&#10;">
<polygon fill="#94ddf4" stroke="#000000" points="590,-641.6217 590,-678.6217 694,-678.6217 694,-641.6217 590,-641.6217"/>
<text text-anchor="middle" x="642" y="-656.4217" font-family="Times,serif" font-size="14.00" fill="#000000">regions_bed</text>
</a>
</g>
</g>
<!-- file:///tmp/tmpajr4uenx#get_bam_slice_from_bed_step -->
<g id="node12" class="node">
<title>file:///tmp/tmpajr4uenx#get_bam_slice_from_bed_step</title>
<g id="a_node12"><a xlink:href="https://github.com/umccr/cwl-ica/blob/beta-release/.github/catalogue/docs/tools/sambamba-slice-and-index/0.8.0/sambamba-slice-and-index__0.8.0.md" xlink:title="Takes in the sorted full bam and hla regions bed and returns&#10;a subsetted bam by hla region&#10;">
<polygon fill="#fafad2" stroke="#000000" points="706.5,-553.6217 706.5,-590.6217 971.5,-590.6217 971.5,-553.6217 706.5,-553.6217"/>
<text text-anchor="middle" x="839" y="-568.4217" font-family="Times,serif" font-size="14.00" fill="#000000">sambamba&#45;slice&#45;and&#45;index v(0.8.0)</text>
</a>
</g>
</g>
<!-- file:///tmp/tmpajr4uenx#regions_bed&#45;&gt;file:///tmp/tmpajr4uenx#get_bam_slice_from_bed_step -->
<g id="edge11" class="edge">
<title>file:///tmp/tmpajr4uenx#regions_bed&#45;&gt;file:///tmp/tmpajr4uenx#get_bam_slice_from_bed_step</title>
<path fill="none" stroke="#000000" d="M683.7786,-641.4592C714.2066,-627.867 755.5892,-609.3813 787.9736,-594.9152"/>
<polygon fill="#000000" stroke="#000000" points="789.5786,-598.0316 797.2816,-590.7573 786.7236,-591.6403 789.5786,-598.0316"/>
</g>
<!-- file:///tmp/tmpajr4uenx#sample_name -->
<g id="node2" class="node">
<title>file:///tmp/tmpajr4uenx#sample_name</title>
<g id="a_node2"><a xlink:title="Used for file naming throughout workflow&#10;">
<polygon fill="#94ddf4" stroke="#000000" points="338,-641.6217 338,-678.6217 452,-678.6217 452,-641.6217 338,-641.6217"/>
<text text-anchor="middle" x="395" y="-656.4217" font-family="Times,serif" font-size="14.00" fill="#000000">sample_name</text>
</a>
</g>
</g>
<!-- file:///tmp/tmpajr4uenx#unmapped_and_hla_bam_to_fastq_step -->
<g id="node7" class="node">
<title>file:///tmp/tmpajr4uenx#unmapped_and_hla_bam_to_fastq_step</title>
<g id="a_node7"><a xlink:href="https://github.com/umccr/cwl-ica/blob/beta-release/.github/catalogue/docs/tools/samtools-fastq/1.12.0/samtools-fastq__1.12.0.md" xlink:title="Convert our truncated bam file to paired fastq files&#10;">
<polygon fill="#fafad2" stroke="#000000" points="253.5,-216.6217 253.5,-253.6217 442.5,-253.6217 442.5,-216.6217 253.5,-216.6217"/>
<text text-anchor="middle" x="348" y="-231.4217" font-family="Times,serif" font-size="14.00" fill="#000000">samtools&#45;fastq v(1.12.0)</text>
</a>
</g>
</g>
<!-- file:///tmp/tmpajr4uenx#sample_name&#45;&gt;file:///tmp/tmpajr4uenx#unmapped_and_hla_bam_to_fastq_step -->
<g id="edge12" class="edge">
<title>file:///tmp/tmpajr4uenx#sample_name&#45;&gt;file:///tmp/tmpajr4uenx#unmapped_and_hla_bam_to_fastq_step</title>
<path fill="none" stroke="#000000" d="M372.9529,-641.5022C344.9111,-611.4514 301,-549.4093 301,-488.1217 301,-488.1217 301,-488.1217 301,-404.1217 301,-353.7027 317.2983,-296.8386 331.0752,-263.5961"/>
<polygon fill="#000000" stroke="#000000" points="334.4412,-264.6351 335.249,-254.0711 328.0297,-261.8256 334.4412,-264.6351"/>
</g>
<!-- file:///tmp/tmpajr4uenx#sample_name&#45;&gt;file:///tmp/tmpajr4uenx#unmapped_and_hla_bam_to_fastq_step -->
<g id="edge13" class="edge">
<title>file:///tmp/tmpajr4uenx#sample_name&#45;&gt;file:///tmp/tmpajr4uenx#unmapped_and_hla_bam_to_fastq_step</title>
<path fill="none" stroke="#000000" d="M384.2694,-641.5022C362.9111,-611.4514 319,-549.4093 319,-488.1217 319,-488.1217 319,-488.1217 319,-404.1217 319,-353.92 335.1581,-297.3287 343.906,-264.0273"/>
<polygon fill="#000000" stroke="#000000" points="347.3653,-264.6268 346.4559,-254.0711 340.5842,-262.89 347.3653,-264.6268"/>
</g>
<!-- file:///tmp/tmpajr4uenx#optitype_step -->
<g id="node8" class="node">
<title>file:///tmp/tmpajr4uenx#optitype_step</title>
<g id="a_node8"><a xlink:href="https://github.com/umccr/cwl-ica/blob/beta-release/.github/catalogue/docs/tools/optitype/1.3.5/optitype__1.3.5.md" xlink:title="Run the optitype pipeline on our smaller fastq files&#10;">
<polygon fill="#fafad2" stroke="#000000" points="148.5,-131.6217 148.5,-168.6217 283.5,-168.6217 283.5,-131.6217 148.5,-131.6217"/>
<text text-anchor="middle" x="216" y="-146.4217" font-family="Times,serif" font-size="14.00" fill="#000000">optitype v(1.3.5)</text>
</a>
</g>
</g>
<!-- file:///tmp/tmpajr4uenx#sample_name&#45;&gt;file:///tmp/tmpajr4uenx#optitype_step -->
<g id="edge14" class="edge">
<title>file:///tmp/tmpajr4uenx#sample_name&#45;&gt;file:///tmp/tmpajr4uenx#optitype_step</title>
<path fill="none" stroke="#000000" d="M345.4951,-641.5673C289.6935,-615.6221 207,-563.112 207,-488.1217 207,-488.1217 207,-488.1217 207,-319.1217 207,-269.7458 207,-212.2553 209.5567,-178.656"/>
<polygon fill="#000000" stroke="#000000" points="213.0484,-178.906 210.4798,-168.6272 206.0778,-178.2643 213.0484,-178.906"/>
</g>
<!-- file:///tmp/tmpajr4uenx#sample_name&#45;&gt;file:///tmp/tmpajr4uenx#optitype_step -->
<g id="edge15" class="edge">
<title>file:///tmp/tmpajr4uenx#sample_name&#45;&gt;file:///tmp/tmpajr4uenx#optitype_step</title>
<path fill="none" stroke="#000000" d="M357.8431,-641.5673C307.6935,-615.6221 225,-563.112 225,-488.1217 225,-488.1217 225,-488.1217 225,-319.1217 225,-269.7458 225,-212.2553 222.4433,-178.656"/>
<polygon fill="#000000" stroke="#000000" points="225.9222,-178.2643 221.5202,-168.6272 218.9516,-178.906 225.9222,-178.2643"/>
</g>
<!-- file:///tmp/tmpajr4uenx#merge_hla_and_unmapped_bam_files_step -->
<g id="node9" class="node">
<title>file:///tmp/tmpajr4uenx#merge_hla_and_unmapped_bam_files_step</title>
<g id="a_node9"><a xlink:href="https://github.com/umccr/cwl-ica/blob/beta-release/.github/catalogue/docs/tools/sambamba-merge-and-index/0.8.0/sambamba-merge-and-index__0.8.0.md" xlink:title="Merge the hla and unmapped files into one sorted bam&#10;">
<polygon fill="#fafad2" stroke="#000000" points="390,-385.6217 390,-422.6217 668,-422.6217 668,-385.6217 390,-385.6217"/>
<text text-anchor="middle" x="529" y="-400.4217" font-family="Times,serif" font-size="14.00" fill="#000000">sambamba&#45;merge&#45;and&#45;index v(0.8.0)</text>
</a>
</g>
</g>
<!-- file:///tmp/tmpajr4uenx#sample_name&#45;&gt;file:///tmp/tmpajr4uenx#merge_hla_and_unmapped_bam_files_step -->
<g id="edge16" class="edge">
<title>file:///tmp/tmpajr4uenx#sample_name&#45;&gt;file:///tmp/tmpajr4uenx#merge_hla_and_unmapped_bam_files_step</title>
<path fill="none" stroke="#000000" d="M392.9702,-641.4935C389.9795,-605.1098 388.1468,-523.4197 424,-469.1217 435.7258,-451.3635 454.1436,-437.6044 472.3014,-427.4129"/>
<polygon fill="#000000" stroke="#000000" points="473.9817,-430.4834 481.1638,-422.6945 470.692,-424.3046 473.9817,-430.4834"/>
</g>
<!-- file:///tmp/tmpajr4uenx#sort_merged_bam_by_name_step -->
<g id="node10" class="node">
<title>file:///tmp/tmpajr4uenx#sort_merged_bam_by_name_step</title>
<g id="a_node10"><a xlink:href="https://github.com/umccr/cwl-ica/blob/beta-release/.github/catalogue/docs/tools/sambamba-sort-and-index/0.8.0/sambamba-sort-and-index__0.8.0.md" xlink:title="Use sambamba sort to sort indexed bam by readname&#10;This is a prerequisite for samtools&#45;fastq when using paired data&#10;">
<polygon fill="#fafad2" stroke="#000000" points="347,-300.6217 347,-337.6217 607,-337.6217 607,-300.6217 347,-300.6217"/>
<text text-anchor="middle" x="477" y="-315.4217" font-family="Times,serif" font-size="14.00" fill="#000000">sambamba&#45;sort&#45;and&#45;index v(0.8.0)</text>
</a>
</g>
</g>
<!-- file:///tmp/tmpajr4uenx#sample_name&#45;&gt;file:///tmp/tmpajr4uenx#sort_merged_bam_by_name_step -->
<g id="edge17" class="edge">
<title>file:///tmp/tmpajr4uenx#sample_name&#45;&gt;file:///tmp/tmpajr4uenx#sort_merged_bam_by_name_step</title>
<path fill="none" stroke="#000000" d="M387.882,-641.3752C371.4459,-594.8125 335.5988,-471.4308 381,-385.1217 390.4215,-367.2112 407.1437,-353.2189 424.0204,-342.818"/>
<polygon fill="#000000" stroke="#000000" points="425.9335,-345.7544 432.822,-337.7046 422.4171,-339.7017 425.9335,-345.7544"/>
</g>
<!-- file:///tmp/tmpajr4uenx#sample_name&#45;&gt;file:///tmp/tmpajr4uenx#get_bam_slice_from_bed_step -->
<g id="edge18" class="edge">
<title>file:///tmp/tmpajr4uenx#sample_name&#45;&gt;file:///tmp/tmpajr4uenx#get_bam_slice_from_bed_step</title>
<path fill="none" stroke="#000000" d="M413.4177,-641.5527C425.7611,-630.3602 443.0005,-616.9825 461,-610.1217 507.7672,-592.2957 631.4564,-596.2545 695.9792,-591.1623"/>
<polygon fill="#000000" stroke="#000000" points="696.5449,-594.6251 706.1816,-590.2224 695.9027,-587.6546 696.5449,-594.6251"/>
</g>
<!-- file:///tmp/tmpajr4uenx#get_unmapped_file_from_sorted_bam_step -->
<g id="node13" class="node">
<title>file:///tmp/tmpajr4uenx#get_unmapped_file_from_sorted_bam_step</title>
<g id="a_node13"><a xlink:href="https://github.com/umccr/cwl-ica/blob/beta-release/.github/catalogue/docs/tools/sambamba-view-and-index/0.8.0/sambamba-view-and-index__0.8.0.md" xlink:title="Takes in a sorted unmapped file and returns a sorted bam&#10;">
<polygon fill="#fafad2" stroke="#000000" points="423.5,-553.6217 423.5,-590.6217 688.5,-590.6217 688.5,-553.6217 423.5,-553.6217"/>
<text text-anchor="middle" x="556" y="-568.4217" font-family="Times,serif" font-size="14.00" fill="#000000">sambamba&#45;view&#45;and&#45;index v(0.8.0)</text>
</a>
</g>
</g>
<!-- file:///tmp/tmpajr4uenx#sample_name&#45;&gt;file:///tmp/tmpajr4uenx#get_unmapped_file_from_sorted_bam_step -->
<g id="edge19" class="edge">
<title>file:///tmp/tmpajr4uenx#sample_name&#45;&gt;file:///tmp/tmpajr4uenx#get_unmapped_file_from_sorted_bam_step</title>
<path fill="none" stroke="#000000" d="M416.5745,-641.4303C428.9967,-631.2854 445.2315,-619.0337 461,-610.1217 470.9275,-604.5109 481.8499,-599.3246 492.644,-594.7026"/>
<polygon fill="#000000" stroke="#000000" points="494.1749,-597.8567 502.0685,-590.7897 491.4907,-591.3918 494.1749,-597.8567"/>
</g>
<!-- file:///tmp/tmpajr4uenx#bam_sorted -->
<g id="node3" class="node">
<title>file:///tmp/tmpajr4uenx#bam_sorted</title>
<g id="a_node3"><a xlink:title="The path to the aligned bam file">
<polygon fill="#94ddf4" stroke="#000000" points="470.5,-641.6217 470.5,-678.6217 571.5,-678.6217 571.5,-641.6217 470.5,-641.6217"/>
<text text-anchor="middle" x="521" y="-656.4217" font-family="Times,serif" font-size="14.00" fill="#000000">bam_sorted</text>
</a>
</g>
</g>
<!-- file:///tmp/tmpajr4uenx#bam_sorted&#45;&gt;file:///tmp/tmpajr4uenx#get_bam_slice_from_bed_step -->
<g id="edge20" class="edge">
<title>file:///tmp/tmpajr4uenx#bam_sorted&#45;&gt;file:///tmp/tmpajr4uenx#get_bam_slice_from_bed_step</title>
<path fill="none" stroke="#000000" d="M538.0936,-641.4358C549.2191,-630.4931 564.6606,-617.428 581,-610.1217 586.9582,-607.4575 639.9072,-599.4819 696.3,-591.521"/>
<polygon fill="#000000" stroke="#000000" points="697.0705,-594.9472 706.4855,-590.0884 696.0955,-588.0154 697.0705,-594.9472"/>
</g>
<!-- file:///tmp/tmpajr4uenx#bam_sorted&#45;&gt;file:///tmp/tmpajr4uenx#get_unmapped_file_from_sorted_bam_step -->
<g id="edge21" class="edge">
<title>file:///tmp/tmpajr4uenx#bam_sorted&#45;&gt;file:///tmp/tmpajr4uenx#get_unmapped_file_from_sorted_bam_step</title>
<path fill="none" stroke="#000000" d="M528.4226,-641.4592C533.2021,-629.4421 539.503,-613.5999 544.8753,-600.0923"/>
<polygon fill="#000000" stroke="#000000" points="548.1446,-601.3429 548.5881,-590.7573 541.6401,-598.7559 548.1446,-601.3429"/>
</g>
<!-- file:///tmp/tmpajr4uenx#coverage_plot -->
<g id="node4" class="node">
<title>file:///tmp/tmpajr4uenx#coverage_plot</title>
<g id="a_node4"><a xlink:title="The coverage plot output from the optitype directory. Can be used as a QC method for determining&#10;how certain the allele prediction was.&#10;">
<polygon fill="#94ddf4" stroke="#000000" points="302.5,-47.6217 302.5,-84.6217 419.5,-84.6217 419.5,-47.6217 302.5,-47.6217"/>
<text text-anchor="middle" x="361" y="-62.4217" font-family="Times,serif" font-size="14.00" fill="#000000">coverage_plot</text>
</a>
</g>
</g>
<!-- file:///tmp/tmpajr4uenx#output_directory -->
<g id="node5" class="node">
<title>file:///tmp/tmpajr4uenx#output_directory</title>
<g id="a_node5"><a xlink:title="The output directory of the optitype step&#10;">
<polygon fill="#94ddf4" stroke="#000000" points="147.5,-47.6217 147.5,-84.6217 284.5,-84.6217 284.5,-47.6217 147.5,-47.6217"/>
<text text-anchor="middle" x="216" y="-62.4217" font-family="Times,serif" font-size="14.00" fill="#000000">output_directory</text>
</a>
</g>
</g>
<!-- file:///tmp/tmpajr4uenx#result_matrix -->
<g id="node6" class="node">
<title>file:///tmp/tmpajr4uenx#result_matrix</title>
<g id="a_node6"><a xlink:title="Subattribute of the optitype directory, contains the likelihood information for each HLA allele&#10;">
<polygon fill="#94ddf4" stroke="#000000" points="16.5,-47.6217 16.5,-84.6217 129.5,-84.6217 129.5,-47.6217 16.5,-47.6217"/>
<text text-anchor="middle" x="73" y="-62.4217" font-family="Times,serif" font-size="14.00" fill="#000000">result_matrix</text>
</a>
</g>
</g>
<!-- file:///tmp/tmpajr4uenx#unmapped_and_hla_bam_to_fastq_step&#45;&gt;file:///tmp/tmpajr4uenx#optitype_step -->
<g id="edge1" class="edge">
<title>file:///tmp/tmpajr4uenx#unmapped_and_hla_bam_to_fastq_step&#45;&gt;file:///tmp/tmpajr4uenx#optitype_step</title>
<path fill="none" stroke="#000000" d="M313.3327,-216.4681C292.9397,-204.1228 267.4482,-187.8086 247.6075,-174.4471"/>
<polygon fill="#000000" stroke="#000000" points="249.4423,-171.4623 239.2054,-168.7318 245.5052,-177.2502 249.4423,-171.4623"/>
</g>
<!-- file:///tmp/tmpajr4uenx#unmapped_and_hla_bam_to_fastq_step&#45;&gt;file:///tmp/tmpajr4uenx#optitype_step -->
<g id="edge2" class="edge">
<title>file:///tmp/tmpajr4uenx#unmapped_and_hla_bam_to_fastq_step&#45;&gt;file:///tmp/tmpajr4uenx#optitype_step</title>
<path fill="none" stroke="#000000" d="M324.7314,-216.4681C306.6205,-204.0121 281.1505,-187.5156 259.3625,-174.0884"/>
<polygon fill="#000000" stroke="#000000" points="260.9535,-170.9589 250.5954,-168.7318 257.3039,-176.9322 260.9535,-170.9589"/>
</g>
<!-- file:///tmp/tmpajr4uenx#optitype_step&#45;&gt;file:///tmp/tmpajr4uenx#coverage_plot -->
<g id="edge3" class="edge">
<title>file:///tmp/tmpajr4uenx#optitype_step&#45;&gt;file:///tmp/tmpajr4uenx#coverage_plot</title>
<path fill="none" stroke="#000000" d="M248.1802,-131.4794C269.3933,-119.1904 297.3589,-102.9896 320.1398,-89.7925"/>
<polygon fill="#000000" stroke="#000000" points="322.0113,-92.7532 328.9098,-84.7119 318.5024,-86.6962 322.0113,-92.7532"/>
</g>
<!-- file:///tmp/tmpajr4uenx#optitype_step&#45;&gt;file:///tmp/tmpajr4uenx#output_directory -->
<g id="edge4" class="edge">
<title>file:///tmp/tmpajr4uenx#optitype_step&#45;&gt;file:///tmp/tmpajr4uenx#output_directory</title>
<path fill="none" stroke="#000000" d="M216,-131.4794C216,-120.713 216,-106.9439 216,-94.8228"/>
<polygon fill="#000000" stroke="#000000" points="219.5001,-94.7119 216,-84.7119 212.5001,-94.712 219.5001,-94.7119"/>
</g>
<!-- file:///tmp/tmpajr4uenx#optitype_step&#45;&gt;file:///tmp/tmpajr4uenx#result_matrix -->
<g id="edge5" class="edge">
<title>file:///tmp/tmpajr4uenx#optitype_step&#45;&gt;file:///tmp/tmpajr4uenx#result_matrix</title>
<path fill="none" stroke="#000000" d="M184.2637,-131.4794C163.3432,-119.1904 135.7632,-102.9896 113.2967,-89.7925"/>
<polygon fill="#000000" stroke="#000000" points="115.0428,-86.759 104.6476,-84.7119 111.4973,-92.7948 115.0428,-86.759"/>
</g>
<!-- file:///tmp/tmpajr4uenx#merge_hla_and_unmapped_bam_files_step&#45;&gt;file:///tmp/tmpajr4uenx#sort_merged_bam_by_name_step -->
<g id="edge6" class="edge">
<title>file:///tmp/tmpajr4uenx#merge_hla_and_unmapped_bam_files_step&#45;&gt;file:///tmp/tmpajr4uenx#sort_merged_bam_by_name_step</title>
<path fill="none" stroke="#000000" d="M517.4595,-385.2575C510.4771,-373.8439 501.4547,-359.0958 493.7024,-346.4237"/>
<polygon fill="#000000" stroke="#000000" points="496.5335,-344.3446 488.3293,-337.6408 490.5623,-347.9976 496.5335,-344.3446"/>
</g>
<!-- file:///tmp/tmpajr4uenx#sort_merged_bam_by_name_step&#45;&gt;file:///tmp/tmpajr4uenx#unmapped_and_hla_bam_to_fastq_step -->
<g id="edge7" class="edge">
<title>file:///tmp/tmpajr4uenx#sort_merged_bam_by_name_step&#45;&gt;file:///tmp/tmpajr4uenx#unmapped_and_hla_bam_to_fastq_step</title>
<path fill="none" stroke="#000000" d="M448.3707,-300.4794C429.7489,-288.3536 405.2781,-272.419 385.161,-259.3196"/>
<polygon fill="#000000" stroke="#000000" points="386.8391,-256.2357 376.5493,-253.7119 383.0194,-262.1017 386.8391,-256.2357"/>
</g>
<!-- file:///tmp/tmpajr4uenx#subset_unmapped_bam -->
<g id="node11" class="node">
<title>file:///tmp/tmpajr4uenx#subset_unmapped_bam</title>
<g id="a_node11"><a xlink:href="https://github.com/umccr/cwl-ica/blob/beta-release/.github/catalogue/docs/tools/custom-subset-bam/1.12.0/custom-subset-bam__1.12.0.md" xlink:title="Takes in a list of n reads and randomly reduces the bam to that number of reads&#10;">
<polygon fill="#fafad2" stroke="#000000" points="433,-469.6217 433,-506.6217 657,-506.6217 657,-469.6217 433,-469.6217"/>
<text text-anchor="middle" x="545" y="-484.4217" font-family="Times,serif" font-size="14.00" fill="#000000">custom&#45;subset&#45;bam v(1.12.0)</text>
</a>
</g>
</g>
<!-- file:///tmp/tmpajr4uenx#subset_unmapped_bam&#45;&gt;file:///tmp/tmpajr4uenx#merge_hla_and_unmapped_bam_files_step -->
<g id="edge8" class="edge">
<title>file:///tmp/tmpajr4uenx#subset_unmapped_bam&#45;&gt;file:///tmp/tmpajr4uenx#merge_hla_and_unmapped_bam_files_step</title>
<path fill="none" stroke="#000000" d="M541.4491,-469.4794C539.3983,-458.713 536.7757,-444.9439 534.4669,-432.8228"/>
<polygon fill="#000000" stroke="#000000" points="537.8504,-431.8804 532.541,-422.7119 530.974,-433.1902 537.8504,-431.8804"/>
</g>
<!-- file:///tmp/tmpajr4uenx#get_bam_slice_from_bed_step&#45;&gt;file:///tmp/tmpajr4uenx#merge_hla_and_unmapped_bam_files_step -->
<g id="edge9" class="edge">
<title>file:///tmp/tmpajr4uenx#get_bam_slice_from_bed_step&#45;&gt;file:///tmp/tmpajr4uenx#merge_hla_and_unmapped_bam_files_step</title>
<path fill="none" stroke="#000000" d="M809.7908,-553.5833C775.7801,-532.2684 717.66,-496.677 666,-469.1217 638.0717,-454.2248 606.1571,-438.983 580.1612,-427.0063"/>
<polygon fill="#000000" stroke="#000000" points="581.4189,-423.7326 570.8699,-422.7482 578.5025,-430.0962 581.4189,-423.7326"/>
</g>
<!-- file:///tmp/tmpajr4uenx#get_unmapped_file_from_sorted_bam_step&#45;&gt;file:///tmp/tmpajr4uenx#subset_unmapped_bam -->
<g id="edge10" class="edge">
<title>file:///tmp/tmpajr4uenx#get_unmapped_file_from_sorted_bam_step&#45;&gt;file:///tmp/tmpajr4uenx#subset_unmapped_bam</title>
<path fill="none" stroke="#000000" d="M553.5587,-553.4794C552.1489,-542.713 550.3458,-528.9439 548.7585,-516.8228"/>
<polygon fill="#000000" stroke="#000000" points="552.2033,-516.1728 547.4344,-506.7119 545.2626,-517.0817 552.2033,-516.1728"/>
</g>
</g>
</svg>
