<?xml version="1.0" encoding="UTF-8" standalone="no"?>
<!DOCTYPE svg PUBLIC "-//W3C//DTD SVG 1.1//EN"
 "http://www.w3.org/Graphics/SVG/1.1/DTD/svg11.dtd">
<!-- Generated by graphviz version 2.40.1 (20161225.0304)
 -->
<!-- Title: G Pages: 1 -->
<svg width="984pt" height="711pt"
 viewBox="0.00 0.00 983.50 710.97" xmlns="http://www.w3.org/2000/svg" xmlns:xlink="http://www.w3.org/1999/xlink">
<g id="graph0" class="graph" transform="scale(1 1) rotate(0) translate(4 706.975)">
<title>G</title>
<polygon fill="#eeeeee" stroke="transparent" points="-4,4 -4,-706.975 979.5,-706.975 979.5,4 -4,4"/>
<g id="clust1" class="cluster">
<title>cluster_inputs</title>
<polygon fill="#eeeeee" stroke="#000000" stroke-dasharray="5,2" points="334,-605.6576 334,-693.8157 706,-693.8157 706,-605.6576 334,-605.6576"/>
<text text-anchor="middle" x="638" y="-613.4576" font-family="Times,serif" font-size="14.00" fill="#000000">Workflow Inputs</text>
</g>
<g id="clust2" class="cluster">
<title>cluster_outputs</title>
<polygon fill="#eeeeee" stroke="#000000" stroke-dasharray="5,2" points="8,-9.1593 8,-97.3174 428,-97.3174 428,-9.1593 8,-9.1593"/>
<text text-anchor="middle" x="354" y="-16.9593" font-family="Times,serif" font-size="14.00" fill="#000000">Workflow Outputs</text>
</g>
<!-- file:///tmp/tmpo_m5mc6y#sample_name -->
<g id="node1" class="node">
<title>file:///tmp/tmpo_m5mc6y#sample_name</title>
<g id="a_node1"><a xlink:title="Used for file naming throughout workflow&#10;">
<polygon fill="#94ddf4" stroke="#000000" points="342,-644.6593 342,-681.6593 456,-681.6593 456,-644.6593 342,-644.6593"/>
<text text-anchor="middle" x="399" y="-659.4593" font-family="Times,serif" font-size="14.00" fill="#000000">sample_name</text>
</a>
</g>
</g>
<!-- file:///tmp/tmpo_m5mc6y#get_unmapped_file_from_sorted_bam_step -->
<g id="node7" class="node">
<title>file:///tmp/tmpo_m5mc6y#get_unmapped_file_from_sorted_bam_step</title>
<g id="a_node7"><a xlink:href="https://github.com/umccr/cwl-ica/blob/beta-release/.github/catalogue/docs/tools/sambamba-view-and-index/0.8.0/sambamba-view-and-index__0.8.0.md" xlink:title="Takes in a sorted unmapped file and returns a sorted bam&#10;">
<polygon fill="#fafad2" stroke="#000000" points="427.5,-556.6593 427.5,-593.6593 692.5,-593.6593 692.5,-556.6593 427.5,-556.6593"/>
<text text-anchor="middle" x="560" y="-571.4593" font-family="Times,serif" font-size="14.00" fill="#000000">sambamba&#45;view&#45;and&#45;index v(0.8.0)</text>
</a>
</g>
</g>
<!-- file:///tmp/tmpo_m5mc6y#sample_name&#45;&gt;file:///tmp/tmpo_m5mc6y#get_unmapped_file_from_sorted_bam_step -->
<g id="edge11" class="edge">
<title>file:///tmp/tmpo_m5mc6y#sample_name&#45;&gt;file:///tmp/tmpo_m5mc6y#get_unmapped_file_from_sorted_bam_step</title>
<path fill="none" stroke="#000000" d="M420.5745,-644.4679C432.9967,-634.3229 449.2315,-622.0713 465,-613.1593 474.9275,-607.5485 485.8499,-602.3621 496.644,-597.7402"/>
<polygon fill="#000000" stroke="#000000" points="498.1749,-600.8943 506.0685,-593.8273 495.4907,-594.4294 498.1749,-600.8943"/>
</g>
<!-- file:///tmp/tmpo_m5mc6y#merge_hla_and_unmapped_bam_files_step -->
<g id="node9" class="node">
<title>file:///tmp/tmpo_m5mc6y#merge_hla_and_unmapped_bam_files_step</title>
<g id="a_node9"><a xlink:href="https://github.com/umccr/cwl-ica/blob/beta-release/.github/catalogue/docs/tools/sambamba-merge-and-index/0.8.0/sambamba-merge-and-index__0.8.0.md" xlink:title="Merge the hla and unmapped files into one sorted bam&#10;">
<polygon fill="#fafad2" stroke="#000000" points="394,-386.6593 394,-423.6593 672,-423.6593 672,-386.6593 394,-386.6593"/>
<text text-anchor="middle" x="533" y="-401.4593" font-family="Times,serif" font-size="14.00" fill="#000000">sambamba&#45;merge&#45;and&#45;index v(0.8.0)</text>
</a>
</g>
</g>
<!-- file:///tmp/tmpo_m5mc6y#sample_name&#45;&gt;file:///tmp/tmpo_m5mc6y#merge_hla_and_unmapped_bam_files_step -->
<g id="edge12" class="edge">
<title>file:///tmp/tmpo_m5mc6y#sample_name&#45;&gt;file:///tmp/tmpo_m5mc6y#merge_hla_and_unmapped_bam_files_step</title>
<path fill="none" stroke="#000000" d="M396.9745,-644.4566C393.9916,-607.9226 392.1717,-525.8723 428,-471.1593 439.86,-453.048 458.6012,-438.9822 476.9886,-428.5781"/>
<polygon fill="#000000" stroke="#000000" points="478.8009,-431.5777 485.9551,-423.763 475.4891,-425.4106 478.8009,-431.5777"/>
</g>
<!-- file:///tmp/tmpo_m5mc6y#sort_merged_bam_by_name_step -->
<g id="node10" class="node">
<title>file:///tmp/tmpo_m5mc6y#sort_merged_bam_by_name_step</title>
<g id="a_node10"><a xlink:href="https://github.com/umccr/cwl-ica/blob/beta-release/.github/catalogue/docs/tools/sambamba-sort-and-index/0.8.0/sambamba-sort-and-index__0.8.0.md" xlink:title="Use sambamba sort to sort indexed bam by readname&#10;This is a prerequisite for samtools&#45;fastq when using paired data&#10;">
<polygon fill="#fafad2" stroke="#000000" points="351,-301.6593 351,-338.6593 611,-338.6593 611,-301.6593 351,-301.6593"/>
<text text-anchor="middle" x="481" y="-316.4593" font-family="Times,serif" font-size="14.00" fill="#000000">sambamba&#45;sort&#45;and&#45;index v(0.8.0)</text>
</a>
</g>
</g>
<!-- file:///tmp/tmpo_m5mc6y#sample_name&#45;&gt;file:///tmp/tmpo_m5mc6y#sort_merged_bam_by_name_step -->
<g id="edge13" class="edge">
<title>file:///tmp/tmpo_m5mc6y#sample_name&#45;&gt;file:///tmp/tmpo_m5mc6y#sort_merged_bam_by_name_step</title>
<path fill="none" stroke="#000000" d="M391.9624,-644.6197C375.4893,-597.9839 339.1574,-473.3076 385,-386.1593 394.4215,-368.2488 411.1437,-354.2564 428.0204,-343.8555"/>
<polygon fill="#000000" stroke="#000000" points="429.9335,-346.792 436.822,-338.7422 426.4171,-340.7392 429.9335,-346.792"/>
</g>
<!-- file:///tmp/tmpo_m5mc6y#unmapped_and_hla_bam_to_fastq_step -->
<g id="node11" class="node">
<title>file:///tmp/tmpo_m5mc6y#unmapped_and_hla_bam_to_fastq_step</title>
<g id="a_node11"><a xlink:href="https://github.com/umccr/cwl-ica/blob/beta-release/.github/catalogue/docs/tools/samtools-fastq/1.12.0/samtools-fastq__1.12.0.md" xlink:title="Convert our truncated bam file to paired fastq files&#10;">
<polygon fill="#fafad2" stroke="#000000" points="257.5,-217.6593 257.5,-254.6593 446.5,-254.6593 446.5,-217.6593 257.5,-217.6593"/>
<text text-anchor="middle" x="352" y="-232.4593" font-family="Times,serif" font-size="14.00" fill="#000000">samtools&#45;fastq v(1.12.0)</text>
</a>
</g>
</g>
<!-- file:///tmp/tmpo_m5mc6y#sample_name&#45;&gt;file:///tmp/tmpo_m5mc6y#unmapped_and_hla_bam_to_fastq_step -->
<g id="edge14" class="edge">
<title>file:///tmp/tmpo_m5mc6y#sample_name&#45;&gt;file:///tmp/tmpo_m5mc6y#unmapped_and_hla_bam_to_fastq_step</title>
<path fill="none" stroke="#000000" d="M376.9529,-644.415C348.9111,-614.1668 305,-551.7334 305,-490.1593 305,-490.1593 305,-490.1593 305,-405.1593 305,-354.7403 321.2983,-297.8761 335.0752,-264.6337"/>
<polygon fill="#000000" stroke="#000000" points="338.4412,-265.6727 339.249,-255.1087 332.0297,-262.8632 338.4412,-265.6727"/>
</g>
<!-- file:///tmp/tmpo_m5mc6y#sample_name&#45;&gt;file:///tmp/tmpo_m5mc6y#unmapped_and_hla_bam_to_fastq_step -->
<g id="edge15" class="edge">
<title>file:///tmp/tmpo_m5mc6y#sample_name&#45;&gt;file:///tmp/tmpo_m5mc6y#unmapped_and_hla_bam_to_fastq_step</title>
<path fill="none" stroke="#000000" d="M388.2694,-644.415C366.9111,-614.1668 323,-551.7334 323,-490.1593 323,-490.1593 323,-490.1593 323,-405.1593 323,-354.9576 339.1581,-298.3662 347.906,-265.0648"/>
<polygon fill="#000000" stroke="#000000" points="351.3653,-265.6644 350.4559,-255.1087 344.5842,-263.9276 351.3653,-265.6644"/>
</g>
<!-- file:///tmp/tmpo_m5mc6y#optitype_step -->
<g id="node12" class="node">
<title>file:///tmp/tmpo_m5mc6y#optitype_step</title>
<g id="a_node12"><a xlink:href="https://github.com/umccr/cwl-ica/blob/beta-release/.github/catalogue/docs/tools/optitype/1.3.5/optitype__1.3.5.md" xlink:title="Run the optitype pipeline on our smaller fastq files&#10;">
<polygon fill="#fafad2" stroke="#000000" points="152.5,-132.6593 152.5,-169.6593 287.5,-169.6593 287.5,-132.6593 152.5,-132.6593"/>
<text text-anchor="middle" x="220" y="-147.4593" font-family="Times,serif" font-size="14.00" fill="#000000">optitype v(1.3.5)</text>
</a>
</g>
</g>
<!-- file:///tmp/tmpo_m5mc6y#sample_name&#45;&gt;file:///tmp/tmpo_m5mc6y#optitype_step -->
<g id="edge16" class="edge">
<title>file:///tmp/tmpo_m5mc6y#sample_name&#45;&gt;file:///tmp/tmpo_m5mc6y#optitype_step</title>
<path fill="none" stroke="#000000" d="M349.9755,-644.6523C294.1695,-618.5598 211,-565.5753 211,-490.1593 211,-490.1593 211,-490.1593 211,-320.1593 211,-270.7834 211,-213.2929 213.5567,-179.6936"/>
<polygon fill="#000000" stroke="#000000" points="217.0484,-179.9435 214.4798,-169.6648 210.0778,-179.3018 217.0484,-179.9435"/>
</g>
<!-- file:///tmp/tmpo_m5mc6y#sample_name&#45;&gt;file:///tmp/tmpo_m5mc6y#optitype_step -->
<g id="edge17" class="edge">
<title>file:///tmp/tmpo_m5mc6y#sample_name&#45;&gt;file:///tmp/tmpo_m5mc6y#optitype_step</title>
<path fill="none" stroke="#000000" d="M362.2746,-644.6523C312.1695,-618.5598 229,-565.5753 229,-490.1593 229,-490.1593 229,-490.1593 229,-320.1593 229,-270.7834 229,-213.2929 226.4433,-179.6936"/>
<polygon fill="#000000" stroke="#000000" points="229.9222,-179.3018 225.5202,-169.6648 222.9516,-179.9435 229.9222,-179.3018"/>
</g>
<!-- file:///tmp/tmpo_m5mc6y#get_bam_slice_from_bed_step -->
<g id="node13" class="node">
<title>file:///tmp/tmpo_m5mc6y#get_bam_slice_from_bed_step</title>
<g id="a_node13"><a xlink:href="https://github.com/umccr/cwl-ica/blob/beta-release/.github/catalogue/docs/tools/sambamba-slice-and-index/0.8.0/sambamba-slice-and-index__0.8.0.md" xlink:title="Takes in the sorted full bam and hla regions bed and returns&#10;a subsetted bam by hla region&#10;">
<polygon fill="#fafad2" stroke="#000000" points="710.5,-556.6593 710.5,-593.6593 975.5,-593.6593 975.5,-556.6593 710.5,-556.6593"/>
<text text-anchor="middle" x="843" y="-571.4593" font-family="Times,serif" font-size="14.00" fill="#000000">sambamba&#45;slice&#45;and&#45;index v(0.8.0)</text>
</a>
</g>
</g>
<!-- file:///tmp/tmpo_m5mc6y#sample_name&#45;&gt;file:///tmp/tmpo_m5mc6y#get_bam_slice_from_bed_step -->
<g id="edge18" class="edge">
<title>file:///tmp/tmpo_m5mc6y#sample_name&#45;&gt;file:///tmp/tmpo_m5mc6y#get_bam_slice_from_bed_step</title>
<path fill="none" stroke="#000000" d="M417.4185,-644.5924C429.7622,-633.4007 447.0017,-620.0231 465,-613.1593 511.5682,-595.4001 634.7342,-599.264 700.0295,-594.0839"/>
<polygon fill="#000000" stroke="#000000" points="700.7371,-597.5335 710.3732,-593.1293 700.0939,-590.5631 700.7371,-597.5335"/>
</g>
<!-- file:///tmp/tmpo_m5mc6y#bam_sorted -->
<g id="node2" class="node">
<title>file:///tmp/tmpo_m5mc6y#bam_sorted</title>
<g id="a_node2"><a xlink:title="The path to the aligned bam file">
<polygon fill="#94ddf4" stroke="#000000" points="474.5,-644.6593 474.5,-681.6593 575.5,-681.6593 575.5,-644.6593 474.5,-644.6593"/>
<text text-anchor="middle" x="525" y="-659.4593" font-family="Times,serif" font-size="14.00" fill="#000000">bam_sorted</text>
</a>
</g>
</g>
<!-- file:///tmp/tmpo_m5mc6y#bam_sorted&#45;&gt;file:///tmp/tmpo_m5mc6y#get_unmapped_file_from_sorted_bam_step -->
<g id="edge19" class="edge">
<title>file:///tmp/tmpo_m5mc6y#bam_sorted&#45;&gt;file:///tmp/tmpo_m5mc6y#get_unmapped_file_from_sorted_bam_step</title>
<path fill="none" stroke="#000000" d="M532.4226,-644.4967C537.2021,-632.4796 543.503,-616.6374 548.8753,-603.1299"/>
<polygon fill="#000000" stroke="#000000" points="552.1446,-604.3805 552.5881,-593.7949 545.6401,-601.7934 552.1446,-604.3805"/>
</g>
<!-- file:///tmp/tmpo_m5mc6y#bam_sorted&#45;&gt;file:///tmp/tmpo_m5mc6y#get_bam_slice_from_bed_step -->
<g id="edge20" class="edge">
<title>file:///tmp/tmpo_m5mc6y#bam_sorted&#45;&gt;file:///tmp/tmpo_m5mc6y#get_bam_slice_from_bed_step</title>
<path fill="none" stroke="#000000" d="M542.0936,-644.4733C553.2191,-633.5307 568.6606,-620.4655 585,-613.1593 590.9582,-610.4951 643.9072,-602.5194 700.3,-594.5586"/>
<polygon fill="#000000" stroke="#000000" points="701.0705,-597.9848 710.4855,-593.126 700.0955,-591.053 701.0705,-597.9848"/>
</g>
<!-- file:///tmp/tmpo_m5mc6y#regions_bed -->
<g id="node3" class="node">
<title>file:///tmp/tmpo_m5mc6y#regions_bed</title>
<g id="a_node3"><a xlink:title="The bed file used to slice the bam file&#10;This should contain the HLA region on chrom 6 and any extra HLA contigs (for hg38)&#10;">
<polygon fill="#94ddf4" stroke="#000000" points="594,-644.6593 594,-681.6593 698,-681.6593 698,-644.6593 594,-644.6593"/>
<text text-anchor="middle" x="646" y="-659.4593" font-family="Times,serif" font-size="14.00" fill="#000000">regions_bed</text>
</a>
</g>
</g>
<!-- file:///tmp/tmpo_m5mc6y#regions_bed&#45;&gt;file:///tmp/tmpo_m5mc6y#get_bam_slice_from_bed_step -->
<g id="edge21" class="edge">
<title>file:///tmp/tmpo_m5mc6y#regions_bed&#45;&gt;file:///tmp/tmpo_m5mc6y#get_bam_slice_from_bed_step</title>
<path fill="none" stroke="#000000" d="M687.7786,-644.4967C718.2066,-630.9046 759.5892,-612.4189 791.9736,-597.9528"/>
<polygon fill="#000000" stroke="#000000" points="793.5786,-601.0692 801.2816,-593.7949 790.7236,-594.6779 793.5786,-601.0692"/>
</g>
<!-- file:///tmp/tmpo_m5mc6y#result_matrix -->
<g id="node4" class="node">
<title>file:///tmp/tmpo_m5mc6y#result_matrix</title>
<g id="a_node4"><a xlink:title="Subattribute of the optitype directory, contains the likelihood information for each HLA allele&#10;">
<polygon fill="#94ddf4" stroke="#000000" points="306.5,-47.6593 306.5,-84.6593 419.5,-84.6593 419.5,-47.6593 306.5,-47.6593"/>
<text text-anchor="middle" x="363" y="-62.4593" font-family="Times,serif" font-size="14.00" fill="#000000">result_matrix</text>
</a>
</g>
</g>
<!-- file:///tmp/tmpo_m5mc6y#output_directory -->
<g id="node5" class="node">
<title>file:///tmp/tmpo_m5mc6y#output_directory</title>
<g id="a_node5"><a xlink:title="The output directory of the optitype step&#10;">
<polygon fill="#94ddf4" stroke="#000000" points="151.5,-47.6593 151.5,-84.6593 288.5,-84.6593 288.5,-47.6593 151.5,-47.6593"/>
<text text-anchor="middle" x="220" y="-62.4593" font-family="Times,serif" font-size="14.00" fill="#000000">output_directory</text>
</a>
</g>
</g>
<!-- file:///tmp/tmpo_m5mc6y#coverage_plot -->
<g id="node6" class="node">
<title>file:///tmp/tmpo_m5mc6y#coverage_plot</title>
<g id="a_node6"><a xlink:title="The coverage plot output from the optitype directory. Can be used as a QC method for determining&#10;how certain the allele prediction was.&#10;">
<polygon fill="#94ddf4" stroke="#000000" points="16.5,-47.6593 16.5,-84.6593 133.5,-84.6593 133.5,-47.6593 16.5,-47.6593"/>
<text text-anchor="middle" x="75" y="-62.4593" font-family="Times,serif" font-size="14.00" fill="#000000">coverage_plot</text>
</a>
</g>
</g>
<!-- file:///tmp/tmpo_m5mc6y#subset_unmapped_bam -->
<g id="node8" class="node">
<title>file:///tmp/tmpo_m5mc6y#subset_unmapped_bam</title>
<g id="a_node8"><a xlink:href="https://github.com/umccr/cwl-ica/blob/beta-release/.github/catalogue/docs/tools/custom-subset-bam/1.12.0/custom-subset-bam__1.12.0.md" xlink:title="Takes in a list of n reads and randomly reduces the bam to that number of reads&#10;">
<polygon fill="#fafad2" stroke="#000000" points="437,-471.6593 437,-508.6593 661,-508.6593 661,-471.6593 437,-471.6593"/>
<text text-anchor="middle" x="549" y="-486.4593" font-family="Times,serif" font-size="14.00" fill="#000000">custom&#45;subset&#45;bam v(1.12.0)</text>
</a>
</g>
</g>
<!-- file:///tmp/tmpo_m5mc6y#get_unmapped_file_from_sorted_bam_step&#45;&gt;file:///tmp/tmpo_m5mc6y#subset_unmapped_bam -->
<g id="edge1" class="edge">
<title>file:///tmp/tmpo_m5mc6y#get_unmapped_file_from_sorted_bam_step&#45;&gt;file:///tmp/tmpo_m5mc6y#subset_unmapped_bam</title>
<path fill="none" stroke="#000000" d="M557.5587,-556.295C556.1391,-545.3248 554.3207,-531.2738 552.7254,-518.9467"/>
<polygon fill="#000000" stroke="#000000" points="556.1511,-518.1464 551.3966,-508.6784 549.209,-519.0449 556.1511,-518.1464"/>
</g>
<!-- file:///tmp/tmpo_m5mc6y#subset_unmapped_bam&#45;&gt;file:///tmp/tmpo_m5mc6y#merge_hla_and_unmapped_bam_files_step -->
<g id="edge2" class="edge">
<title>file:///tmp/tmpo_m5mc6y#subset_unmapped_bam&#45;&gt;file:///tmp/tmpo_m5mc6y#merge_hla_and_unmapped_bam_files_step</title>
<path fill="none" stroke="#000000" d="M545.4491,-471.295C543.3632,-460.214 540.6857,-445.9897 538.3486,-433.5737"/>
<polygon fill="#000000" stroke="#000000" points="541.7755,-432.8583 536.4859,-423.6784 534.8963,-434.1532 541.7755,-432.8583"/>
</g>
<!-- file:///tmp/tmpo_m5mc6y#merge_hla_and_unmapped_bam_files_step&#45;&gt;file:///tmp/tmpo_m5mc6y#sort_merged_bam_by_name_step -->
<g id="edge3" class="edge">
<title>file:///tmp/tmpo_m5mc6y#merge_hla_and_unmapped_bam_files_step&#45;&gt;file:///tmp/tmpo_m5mc6y#sort_merged_bam_by_name_step</title>
<path fill="none" stroke="#000000" d="M521.4595,-386.295C514.4771,-374.8815 505.4547,-360.1334 497.7024,-347.4613"/>
<polygon fill="#000000" stroke="#000000" points="500.5335,-345.3822 492.3293,-338.6784 494.5623,-349.0352 500.5335,-345.3822"/>
</g>
<!-- file:///tmp/tmpo_m5mc6y#sort_merged_bam_by_name_step&#45;&gt;file:///tmp/tmpo_m5mc6y#unmapped_and_hla_bam_to_fastq_step -->
<g id="edge4" class="edge">
<title>file:///tmp/tmpo_m5mc6y#sort_merged_bam_by_name_step&#45;&gt;file:///tmp/tmpo_m5mc6y#unmapped_and_hla_bam_to_fastq_step</title>
<path fill="none" stroke="#000000" d="M452.3707,-301.517C433.7489,-289.3911 409.2781,-273.4566 389.161,-260.3572"/>
<polygon fill="#000000" stroke="#000000" points="390.8391,-257.2733 380.5493,-254.7495 387.0194,-263.1393 390.8391,-257.2733"/>
</g>
<!-- file:///tmp/tmpo_m5mc6y#unmapped_and_hla_bam_to_fastq_step&#45;&gt;file:///tmp/tmpo_m5mc6y#optitype_step -->
<g id="edge5" class="edge">
<title>file:///tmp/tmpo_m5mc6y#unmapped_and_hla_bam_to_fastq_step&#45;&gt;file:///tmp/tmpo_m5mc6y#optitype_step</title>
<path fill="none" stroke="#000000" d="M317.3327,-217.5057C296.9397,-205.1604 271.4482,-188.8461 251.6075,-175.4847"/>
<polygon fill="#000000" stroke="#000000" points="253.4423,-172.4998 243.2054,-169.7694 249.5052,-178.2877 253.4423,-172.4998"/>
</g>
<!-- file:///tmp/tmpo_m5mc6y#unmapped_and_hla_bam_to_fastq_step&#45;&gt;file:///tmp/tmpo_m5mc6y#optitype_step -->
<g id="edge6" class="edge">
<title>file:///tmp/tmpo_m5mc6y#unmapped_and_hla_bam_to_fastq_step&#45;&gt;file:///tmp/tmpo_m5mc6y#optitype_step</title>
<path fill="none" stroke="#000000" d="M328.7314,-217.5057C310.6205,-205.0497 285.1505,-188.5532 263.3625,-175.1259"/>
<polygon fill="#000000" stroke="#000000" points="264.9535,-171.9964 254.5954,-169.7694 261.3039,-177.9698 264.9535,-171.9964"/>
</g>
<!-- file:///tmp/tmpo_m5mc6y#optitype_step&#45;&gt;file:///tmp/tmpo_m5mc6y#result_matrix -->
<g id="edge7" class="edge">
<title>file:///tmp/tmpo_m5mc6y#optitype_step&#45;&gt;file:///tmp/tmpo_m5mc6y#result_matrix</title>
<path fill="none" stroke="#000000" d="M251.382,-132.5057C272.4304,-119.9943 300.3371,-103.4065 322.9805,-89.9471"/>
<polygon fill="#000000" stroke="#000000" points="324.8835,-92.8876 331.6912,-84.7694 321.3068,-86.8704 324.8835,-92.8876"/>
</g>
<!-- file:///tmp/tmpo_m5mc6y#optitype_step&#45;&gt;file:///tmp/tmpo_m5mc6y#output_directory -->
<g id="edge8" class="edge">
<title>file:///tmp/tmpo_m5mc6y#optitype_step&#45;&gt;file:///tmp/tmpo_m5mc6y#output_directory</title>
<path fill="none" stroke="#000000" d="M220,-132.295C220,-121.3248 220,-107.2738 220,-94.9467"/>
<polygon fill="#000000" stroke="#000000" points="223.5001,-94.6783 220,-84.6784 216.5001,-94.6784 223.5001,-94.6783"/>
</g>
<!-- file:///tmp/tmpo_m5mc6y#optitype_step&#45;&gt;file:///tmp/tmpo_m5mc6y#coverage_plot -->
<g id="edge9" class="edge">
<title>file:///tmp/tmpo_m5mc6y#optitype_step&#45;&gt;file:///tmp/tmpo_m5mc6y#coverage_plot</title>
<path fill="none" stroke="#000000" d="M188.1791,-132.5057C166.8363,-119.9943 138.5393,-103.4065 115.5792,-89.9471"/>
<polygon fill="#000000" stroke="#000000" points="117.1437,-86.8072 106.7466,-84.7694 113.6036,-92.8461 117.1437,-86.8072"/>
</g>
<!-- file:///tmp/tmpo_m5mc6y#get_bam_slice_from_bed_step&#45;&gt;file:///tmp/tmpo_m5mc6y#merge_hla_and_unmapped_bam_files_step -->
<g id="edge10" class="edge">
<title>file:///tmp/tmpo_m5mc6y#get_bam_slice_from_bed_step&#45;&gt;file:///tmp/tmpo_m5mc6y#merge_hla_and_unmapped_bam_files_step</title>
<path fill="none" stroke="#000000" d="M814.0912,-556.6569C780.1204,-535.1795 721.8044,-499.1318 670,-471.1593 641.7585,-455.9099 609.4443,-440.2599 583.2945,-428.0287"/>
<polygon fill="#000000" stroke="#000000" points="584.5013,-424.73 573.9582,-423.6843 581.548,-431.0765 584.5013,-424.73"/>
</g>
</g>
</svg>
