<?xml version="1.0" encoding="UTF-8" standalone="no"?>
<!DOCTYPE svg PUBLIC "-//W3C//DTD SVG 1.1//EN"
 "http://www.w3.org/Graphics/SVG/1.1/DTD/svg11.dtd">
<!-- Generated by graphviz version 2.40.1 (20161225.0304)
 -->
<!-- Title: G Pages: 1 -->
<svg width="980pt" height="708pt"
 viewBox="0.00 0.00 979.50 708.09" xmlns="http://www.w3.org/2000/svg" xmlns:xlink="http://www.w3.org/1999/xlink">
<g id="graph0" class="graph" transform="scale(1 1) rotate(0) translate(4 704.091)">
<title>G</title>
<polygon fill="#eeeeee" stroke="transparent" points="-4,4 -4,-704.091 975.5,-704.091 975.5,4 -4,4"/>
<g id="clust1" class="cluster">
<title>cluster_inputs</title>
<polygon fill="#eeeeee" stroke="#000000" stroke-dasharray="5,2" points="269.5,-603.1729 269.5,-690.9693 641.5,-690.9693 641.5,-603.1729 269.5,-603.1729"/>
<text text-anchor="middle" x="573.5" y="-610.9729" font-family="Times,serif" font-size="14.00" fill="#000000">Workflow Inputs</text>
</g>
<g id="clust2" class="cluster">
<title>cluster_outputs</title>
<polygon fill="#eeeeee" stroke="#000000" stroke-dasharray="5,2" points="543.5,-9.1217 543.5,-96.9181 963.5,-96.9181 963.5,-9.1217 543.5,-9.1217"/>
<text text-anchor="middle" x="889.5" y="-16.9217" font-family="Times,serif" font-size="14.00" fill="#000000">Workflow Outputs</text>
</g>
<!-- file:///tmp/tmpp0ygul9h#sample_name -->
<g id="node1" class="node">
<title>file:///tmp/tmpp0ygul9h#sample_name</title>
<g id="a_node1"><a xlink:title="Used for file naming throughout workflow&#10;">
<polygon fill="#94ddf4" stroke="#000000" points="519.5,-641.6217 519.5,-678.6217 633.5,-678.6217 633.5,-641.6217 519.5,-641.6217"/>
<text text-anchor="middle" x="576.5" y="-656.4217" font-family="Times,serif" font-size="14.00" fill="#000000">sample_name</text>
</a>
</g>
</g>
<!-- file:///tmp/tmpp0ygul9h#merge_hla_and_unmapped_bam_files_step -->
<g id="node7" class="node">
<title>file:///tmp/tmpp0ygul9h#merge_hla_and_unmapped_bam_files_step</title>
<g id="a_node7"><a xlink:href="https://github.com/umccr/cwl-ica/blob/beta-release/.github/catalogue/docs/tools/sambamba-merge-and-index/0.8.0/sambamba-merge-and-index__0.8.0.md" xlink:title="Merge the hla and unmapped files into one sorted bam&#10;">
<polygon fill="#fafad2" stroke="#000000" points="303.5,-385.6217 303.5,-422.6217 581.5,-422.6217 581.5,-385.6217 303.5,-385.6217"/>
<text text-anchor="middle" x="442.5" y="-400.4217" font-family="Times,serif" font-size="14.00" fill="#000000">sambamba&#45;merge&#45;and&#45;index v(0.8.0)</text>
</a>
</g>
</g>
<!-- file:///tmp/tmpp0ygul9h#sample_name&#45;&gt;file:///tmp/tmpp0ygul9h#merge_hla_and_unmapped_bam_files_step -->
<g id="edge11" class="edge">
<title>file:///tmp/tmpp0ygul9h#sample_name&#45;&gt;file:///tmp/tmpp0ygul9h#merge_hla_and_unmapped_bam_files_step</title>
<path fill="none" stroke="#000000" d="M578.5298,-641.4935C581.5205,-605.1098 583.3532,-523.4197 547.5,-469.1217 535.7742,-451.3635 517.3564,-437.6044 499.1986,-427.4129"/>
<polygon fill="#000000" stroke="#000000" points="500.808,-424.3046 490.3362,-422.6945 497.5183,-430.4834 500.808,-424.3046"/>
</g>
<!-- file:///tmp/tmpp0ygul9h#sort_merged_bam_by_name_step -->
<g id="node8" class="node">
<title>file:///tmp/tmpp0ygul9h#sort_merged_bam_by_name_step</title>
<g id="a_node8"><a xlink:href="https://github.com/umccr/cwl-ica/blob/beta-release/.github/catalogue/docs/tools/sambamba-sort-and-index/0.8.0/sambamba-sort-and-index__0.8.0.md" xlink:title="Use sambamba sort to sort indexed bam by readname&#10;This is a prerequisite for samtools&#45;fastq when using paired data&#10;">
<polygon fill="#fafad2" stroke="#000000" points="364.5,-300.6217 364.5,-337.6217 624.5,-337.6217 624.5,-300.6217 364.5,-300.6217"/>
<text text-anchor="middle" x="494.5" y="-315.4217" font-family="Times,serif" font-size="14.00" fill="#000000">sambamba&#45;sort&#45;and&#45;index v(0.8.0)</text>
</a>
</g>
</g>
<!-- file:///tmp/tmpp0ygul9h#sample_name&#45;&gt;file:///tmp/tmpp0ygul9h#sort_merged_bam_by_name_step -->
<g id="edge12" class="edge">
<title>file:///tmp/tmpp0ygul9h#sample_name&#45;&gt;file:///tmp/tmpp0ygul9h#sort_merged_bam_by_name_step</title>
<path fill="none" stroke="#000000" d="M583.6497,-641.3584C600.1584,-594.7574 636.1579,-471.2953 590.5,-385.1217 581.0253,-367.2393 564.2914,-353.2531 547.4203,-342.8493"/>
<polygon fill="#000000" stroke="#000000" points="549.0272,-339.7349 538.6231,-337.7336 545.5083,-345.7862 549.0272,-339.7349"/>
</g>
<!-- file:///tmp/tmpp0ygul9h#unmapped_and_hla_bam_to_fastq_step -->
<g id="node9" class="node">
<title>file:///tmp/tmpp0ygul9h#unmapped_and_hla_bam_to_fastq_step</title>
<g id="a_node9"><a xlink:href="https://github.com/umccr/cwl-ica/blob/beta-release/.github/catalogue/docs/tools/samtools-fastq/1.12.0/samtools-fastq__1.12.0.md" xlink:title="Convert our truncated bam file to paired fastq files&#10;">
<polygon fill="#fafad2" stroke="#000000" points="529,-216.6217 529,-253.6217 718,-253.6217 718,-216.6217 529,-216.6217"/>
<text text-anchor="middle" x="623.5" y="-231.4217" font-family="Times,serif" font-size="14.00" fill="#000000">samtools&#45;fastq v(1.12.0)</text>
</a>
</g>
</g>
<!-- file:///tmp/tmpp0ygul9h#sample_name&#45;&gt;file:///tmp/tmpp0ygul9h#unmapped_and_hla_bam_to_fastq_step -->
<g id="edge13" class="edge">
<title>file:///tmp/tmpp0ygul9h#sample_name&#45;&gt;file:///tmp/tmpp0ygul9h#unmapped_and_hla_bam_to_fastq_step</title>
<path fill="none" stroke="#000000" d="M587.2306,-641.5022C608.5889,-611.4514 652.5,-549.4093 652.5,-488.1217 652.5,-488.1217 652.5,-488.1217 652.5,-404.1217 652.5,-353.92 636.3419,-297.3287 627.594,-264.0273"/>
<polygon fill="#000000" stroke="#000000" points="630.9158,-262.89 625.0441,-254.0711 624.1347,-264.6268 630.9158,-262.89"/>
</g>
<!-- file:///tmp/tmpp0ygul9h#sample_name&#45;&gt;file:///tmp/tmpp0ygul9h#unmapped_and_hla_bam_to_fastq_step -->
<g id="edge14" class="edge">
<title>file:///tmp/tmpp0ygul9h#sample_name&#45;&gt;file:///tmp/tmpp0ygul9h#unmapped_and_hla_bam_to_fastq_step</title>
<path fill="none" stroke="#000000" d="M598.5471,-641.5022C626.5889,-611.4514 670.5,-549.4093 670.5,-488.1217 670.5,-488.1217 670.5,-488.1217 670.5,-404.1217 670.5,-353.7027 654.2017,-296.8386 640.4248,-263.5961"/>
<polygon fill="#000000" stroke="#000000" points="643.4703,-261.8256 636.251,-254.0711 637.0588,-264.6351 643.4703,-261.8256"/>
</g>
<!-- file:///tmp/tmpp0ygul9h#optitype_step -->
<g id="node10" class="node">
<title>file:///tmp/tmpp0ygul9h#optitype_step</title>
<g id="a_node10"><a xlink:href="https://github.com/umccr/cwl-ica/blob/beta-release/.github/catalogue/docs/tools/optitype/1.3.5/optitype__1.3.5.md" xlink:title="Run the optitype pipeline on our smaller fastq files&#10;">
<polygon fill="#fafad2" stroke="#000000" points="688,-131.6217 688,-168.6217 823,-168.6217 823,-131.6217 688,-131.6217"/>
<text text-anchor="middle" x="755.5" y="-146.4217" font-family="Times,serif" font-size="14.00" fill="#000000">optitype v(1.3.5)</text>
</a>
</g>
</g>
<!-- file:///tmp/tmpp0ygul9h#sample_name&#45;&gt;file:///tmp/tmpp0ygul9h#optitype_step -->
<g id="edge15" class="edge">
<title>file:///tmp/tmpp0ygul9h#sample_name&#45;&gt;file:///tmp/tmpp0ygul9h#optitype_step</title>
<path fill="none" stroke="#000000" d="M613.6569,-641.5673C663.8065,-615.6221 746.5,-563.112 746.5,-488.1217 746.5,-488.1217 746.5,-488.1217 746.5,-319.1217 746.5,-269.7458 746.5,-212.2553 749.0567,-178.656"/>
<polygon fill="#000000" stroke="#000000" points="752.5484,-178.906 749.9798,-168.6272 745.5778,-178.2643 752.5484,-178.906"/>
</g>
<!-- file:///tmp/tmpp0ygul9h#sample_name&#45;&gt;file:///tmp/tmpp0ygul9h#optitype_step -->
<g id="edge16" class="edge">
<title>file:///tmp/tmpp0ygul9h#sample_name&#45;&gt;file:///tmp/tmpp0ygul9h#optitype_step</title>
<path fill="none" stroke="#000000" d="M626.0049,-641.5673C681.8065,-615.6221 764.5,-563.112 764.5,-488.1217 764.5,-488.1217 764.5,-488.1217 764.5,-319.1217 764.5,-269.7458 764.5,-212.2553 761.9433,-178.656"/>
<polygon fill="#000000" stroke="#000000" points="765.4222,-178.2643 761.0202,-168.6272 758.4516,-178.906 765.4222,-178.2643"/>
</g>
<!-- file:///tmp/tmpp0ygul9h#get_unmapped_file_from_sorted_bam_step -->
<g id="node11" class="node">
<title>file:///tmp/tmpp0ygul9h#get_unmapped_file_from_sorted_bam_step</title>
<g id="a_node11"><a xlink:href="https://github.com/umccr/cwl-ica/blob/beta-release/.github/catalogue/docs/tools/sambamba-view-and-index/0.8.0/sambamba-view-and-index__0.8.0.md" xlink:title="Takes in a sorted unmapped file and returns a sorted bam&#10;">
<polygon fill="#fafad2" stroke="#000000" points="283,-553.6217 283,-590.6217 548,-590.6217 548,-553.6217 283,-553.6217"/>
<text text-anchor="middle" x="415.5" y="-568.4217" font-family="Times,serif" font-size="14.00" fill="#000000">sambamba&#45;view&#45;and&#45;index v(0.8.0)</text>
</a>
</g>
</g>
<!-- file:///tmp/tmpp0ygul9h#sample_name&#45;&gt;file:///tmp/tmpp0ygul9h#get_unmapped_file_from_sorted_bam_step -->
<g id="edge17" class="edge">
<title>file:///tmp/tmpp0ygul9h#sample_name&#45;&gt;file:///tmp/tmpp0ygul9h#get_unmapped_file_from_sorted_bam_step</title>
<path fill="none" stroke="#000000" d="M554.5439,-641.4749C541.9164,-631.3439 525.4367,-619.0914 509.5,-610.1217 499.534,-604.5125 488.5722,-599.303 477.7619,-594.6514"/>
<polygon fill="#000000" stroke="#000000" points="478.9062,-591.3364 468.3298,-590.7113 476.208,-597.7955 478.9062,-591.3364"/>
</g>
<!-- file:///tmp/tmpp0ygul9h#get_bam_slice_from_bed_step -->
<g id="node13" class="node">
<title>file:///tmp/tmpp0ygul9h#get_bam_slice_from_bed_step</title>
<g id="a_node13"><a xlink:href="https://github.com/umccr/cwl-ica/blob/beta-release/.github/catalogue/docs/tools/sambamba-slice-and-index/0.8.0/sambamba-slice-and-index__0.8.0.md" xlink:title="Takes in the sorted full bam and hla regions bed and returns&#10;a subsetted bam by hla region&#10;">
<polygon fill="#fafad2" stroke="#000000" points="0,-553.6217 0,-590.6217 265,-590.6217 265,-553.6217 0,-553.6217"/>
<text text-anchor="middle" x="132.5" y="-568.4217" font-family="Times,serif" font-size="14.00" fill="#000000">sambamba&#45;slice&#45;and&#45;index v(0.8.0)</text>
</a>
</g>
</g>
<!-- file:///tmp/tmpp0ygul9h#sample_name&#45;&gt;file:///tmp/tmpp0ygul9h#get_bam_slice_from_bed_step -->
<g id="edge18" class="edge">
<title>file:///tmp/tmpp0ygul9h#sample_name&#45;&gt;file:///tmp/tmpp0ygul9h#get_bam_slice_from_bed_step</title>
<path fill="none" stroke="#000000" d="M557.752,-641.5552C545.2011,-630.3637 527.697,-616.9861 509.5,-610.1217 462.868,-592.5308 339.7567,-596.266 275.4826,-591.1611"/>
<polygon fill="#000000" stroke="#000000" points="275.5983,-587.657 265.3185,-590.2211 274.9537,-594.6272 275.5983,-587.657"/>
</g>
<!-- file:///tmp/tmpp0ygul9h#regions_bed -->
<g id="node2" class="node">
<title>file:///tmp/tmpp0ygul9h#regions_bed</title>
<g id="a_node2"><a xlink:title="The bed file used to slice the bam file&#10;This should contain the HLA region on chrom 6 and any extra HLA contigs (for hg38)&#10;">
<polygon fill="#94ddf4" stroke="#000000" points="277.5,-641.6217 277.5,-678.6217 381.5,-678.6217 381.5,-641.6217 277.5,-641.6217"/>
<text text-anchor="middle" x="329.5" y="-656.4217" font-family="Times,serif" font-size="14.00" fill="#000000">regions_bed</text>
</a>
</g>
</g>
<!-- file:///tmp/tmpp0ygul9h#regions_bed&#45;&gt;file:///tmp/tmpp0ygul9h#get_bam_slice_from_bed_step -->
<g id="edge19" class="edge">
<title>file:///tmp/tmpp0ygul9h#regions_bed&#45;&gt;file:///tmp/tmpp0ygul9h#get_bam_slice_from_bed_step</title>
<path fill="none" stroke="#000000" d="M287.7214,-641.4592C257.2934,-627.867 215.9108,-609.3813 183.5264,-594.9152"/>
<polygon fill="#000000" stroke="#000000" points="184.7764,-591.6403 174.2184,-590.7573 181.9214,-598.0316 184.7764,-591.6403"/>
</g>
<!-- file:///tmp/tmpp0ygul9h#bam_sorted -->
<g id="node3" class="node">
<title>file:///tmp/tmpp0ygul9h#bam_sorted</title>
<g id="a_node3"><a xlink:title="The path to the aligned bam file">
<polygon fill="#94ddf4" stroke="#000000" points="400,-641.6217 400,-678.6217 501,-678.6217 501,-641.6217 400,-641.6217"/>
<text text-anchor="middle" x="450.5" y="-656.4217" font-family="Times,serif" font-size="14.00" fill="#000000">bam_sorted</text>
</a>
</g>
</g>
<!-- file:///tmp/tmpp0ygul9h#bam_sorted&#45;&gt;file:///tmp/tmpp0ygul9h#get_unmapped_file_from_sorted_bam_step -->
<g id="edge20" class="edge">
<title>file:///tmp/tmpp0ygul9h#bam_sorted&#45;&gt;file:///tmp/tmpp0ygul9h#get_unmapped_file_from_sorted_bam_step</title>
<path fill="none" stroke="#000000" d="M443.0774,-641.4592C438.2979,-629.4421 431.997,-613.5999 426.6247,-600.0923"/>
<polygon fill="#000000" stroke="#000000" points="429.8599,-598.7559 422.9119,-590.7573 423.3554,-601.3429 429.8599,-598.7559"/>
</g>
<!-- file:///tmp/tmpp0ygul9h#bam_sorted&#45;&gt;file:///tmp/tmpp0ygul9h#get_bam_slice_from_bed_step -->
<g id="edge21" class="edge">
<title>file:///tmp/tmpp0ygul9h#bam_sorted&#45;&gt;file:///tmp/tmpp0ygul9h#get_bam_slice_from_bed_step</title>
<path fill="none" stroke="#000000" d="M433.4064,-641.4358C422.2809,-630.4931 406.8394,-617.428 390.5,-610.1217 384.5418,-607.4575 331.5928,-599.4819 275.2,-591.521"/>
<polygon fill="#000000" stroke="#000000" points="275.4045,-588.0154 265.0145,-590.0884 274.4295,-594.9472 275.4045,-588.0154"/>
</g>
<!-- file:///tmp/tmpp0ygul9h#result_matrix -->
<g id="node4" class="node">
<title>file:///tmp/tmpp0ygul9h#result_matrix</title>
<g id="a_node4"><a xlink:title="Subattribute of the optitype directory, contains the likelihood information for each HLA allele&#10;">
<polygon fill="#94ddf4" stroke="#000000" points="842,-47.6217 842,-84.6217 955,-84.6217 955,-47.6217 842,-47.6217"/>
<text text-anchor="middle" x="898.5" y="-62.4217" font-family="Times,serif" font-size="14.00" fill="#000000">result_matrix</text>
</a>
</g>
</g>
<!-- file:///tmp/tmpp0ygul9h#output_directory -->
<g id="node5" class="node">
<title>file:///tmp/tmpp0ygul9h#output_directory</title>
<g id="a_node5"><a xlink:title="The output directory of the optitype step&#10;">
<polygon fill="#94ddf4" stroke="#000000" points="687,-47.6217 687,-84.6217 824,-84.6217 824,-47.6217 687,-47.6217"/>
<text text-anchor="middle" x="755.5" y="-62.4217" font-family="Times,serif" font-size="14.00" fill="#000000">output_directory</text>
</a>
</g>
</g>
<!-- file:///tmp/tmpp0ygul9h#coverage_plot -->
<g id="node6" class="node">
<title>file:///tmp/tmpp0ygul9h#coverage_plot</title>
<g id="a_node6"><a xlink:title="The coverage plot output from the optitype directory. Can be used as a QC method for determining&#10;how certain the allele prediction was.&#10;">
<polygon fill="#94ddf4" stroke="#000000" points="552,-47.6217 552,-84.6217 669,-84.6217 669,-47.6217 552,-47.6217"/>
<text text-anchor="middle" x="610.5" y="-62.4217" font-family="Times,serif" font-size="14.00" fill="#000000">coverage_plot</text>
</a>
</g>
</g>
<!-- file:///tmp/tmpp0ygul9h#merge_hla_and_unmapped_bam_files_step&#45;&gt;file:///tmp/tmpp0ygul9h#sort_merged_bam_by_name_step -->
<g id="edge1" class="edge">
<title>file:///tmp/tmpp0ygul9h#merge_hla_and_unmapped_bam_files_step&#45;&gt;file:///tmp/tmpp0ygul9h#sort_merged_bam_by_name_step</title>
<path fill="none" stroke="#000000" d="M454.0405,-385.2575C461.0229,-373.8439 470.0453,-359.0958 477.7976,-346.4237"/>
<polygon fill="#000000" stroke="#000000" points="480.9377,-347.9976 483.1707,-337.6408 474.9665,-344.3446 480.9377,-347.9976"/>
</g>
<!-- file:///tmp/tmpp0ygul9h#sort_merged_bam_by_name_step&#45;&gt;file:///tmp/tmpp0ygul9h#unmapped_and_hla_bam_to_fastq_step -->
<g id="edge2" class="edge">
<title>file:///tmp/tmpp0ygul9h#sort_merged_bam_by_name_step&#45;&gt;file:///tmp/tmpp0ygul9h#unmapped_and_hla_bam_to_fastq_step</title>
<path fill="none" stroke="#000000" d="M523.1293,-300.4794C541.7511,-288.3536 566.2219,-272.419 586.339,-259.3196"/>
<polygon fill="#000000" stroke="#000000" points="588.4806,-262.1017 594.9507,-253.7119 584.6609,-256.2357 588.4806,-262.1017"/>
</g>
<!-- file:///tmp/tmpp0ygul9h#unmapped_and_hla_bam_to_fastq_step&#45;&gt;file:///tmp/tmpp0ygul9h#optitype_step -->
<g id="edge3" class="edge">
<title>file:///tmp/tmpp0ygul9h#unmapped_and_hla_bam_to_fastq_step&#45;&gt;file:///tmp/tmpp0ygul9h#optitype_step</title>
<path fill="none" stroke="#000000" d="M646.7686,-216.4681C664.8795,-204.0121 690.3495,-187.5156 712.1375,-174.0884"/>
<polygon fill="#000000" stroke="#000000" points="714.1961,-176.9322 720.9046,-168.7318 710.5465,-170.9589 714.1961,-176.9322"/>
</g>
<!-- file:///tmp/tmpp0ygul9h#unmapped_and_hla_bam_to_fastq_step&#45;&gt;file:///tmp/tmpp0ygul9h#optitype_step -->
<g id="edge4" class="edge">
<title>file:///tmp/tmpp0ygul9h#unmapped_and_hla_bam_to_fastq_step&#45;&gt;file:///tmp/tmpp0ygul9h#optitype_step</title>
<path fill="none" stroke="#000000" d="M658.1673,-216.4681C678.5603,-204.1228 704.0518,-187.8086 723.8925,-174.4471"/>
<polygon fill="#000000" stroke="#000000" points="725.9948,-177.2502 732.2946,-168.7318 722.0577,-171.4623 725.9948,-177.2502"/>
</g>
<!-- file:///tmp/tmpp0ygul9h#optitype_step&#45;&gt;file:///tmp/tmpp0ygul9h#result_matrix -->
<g id="edge5" class="edge">
<title>file:///tmp/tmpp0ygul9h#optitype_step&#45;&gt;file:///tmp/tmpp0ygul9h#result_matrix</title>
<path fill="none" stroke="#000000" d="M787.2363,-131.4794C808.1568,-119.1904 835.7368,-102.9896 858.2033,-89.7925"/>
<polygon fill="#000000" stroke="#000000" points="860.0027,-92.7948 866.8524,-84.7119 856.4572,-86.759 860.0027,-92.7948"/>
</g>
<!-- file:///tmp/tmpp0ygul9h#optitype_step&#45;&gt;file:///tmp/tmpp0ygul9h#output_directory -->
<g id="edge6" class="edge">
<title>file:///tmp/tmpp0ygul9h#optitype_step&#45;&gt;file:///tmp/tmpp0ygul9h#output_directory</title>
<path fill="none" stroke="#000000" d="M755.5,-131.4794C755.5,-120.713 755.5,-106.9439 755.5,-94.8228"/>
<polygon fill="#000000" stroke="#000000" points="759.0001,-94.7119 755.5,-84.7119 752.0001,-94.712 759.0001,-94.7119"/>
</g>
<!-- file:///tmp/tmpp0ygul9h#optitype_step&#45;&gt;file:///tmp/tmpp0ygul9h#coverage_plot -->
<g id="edge7" class="edge">
<title>file:///tmp/tmpp0ygul9h#optitype_step&#45;&gt;file:///tmp/tmpp0ygul9h#coverage_plot</title>
<path fill="none" stroke="#000000" d="M723.3198,-131.4794C702.1067,-119.1904 674.1411,-102.9896 651.3602,-89.7925"/>
<polygon fill="#000000" stroke="#000000" points="652.9976,-86.6962 642.5902,-84.7119 649.4887,-92.7532 652.9976,-86.6962"/>
</g>
<!-- file:///tmp/tmpp0ygul9h#subset_unmapped_bam -->
<g id="node12" class="node">
<title>file:///tmp/tmpp0ygul9h#subset_unmapped_bam</title>
<g id="a_node12"><a xlink:href="https://github.com/umccr/cwl-ica/blob/beta-release/.github/catalogue/docs/tools/custom-subset-bam/1.12.0/custom-subset-bam__1.12.0.md" xlink:title="Takes in a list of n reads and randomly reduces the bam to that number of reads&#10;">
<polygon fill="#fafad2" stroke="#000000" points="314.5,-469.6217 314.5,-506.6217 538.5,-506.6217 538.5,-469.6217 314.5,-469.6217"/>
<text text-anchor="middle" x="426.5" y="-484.4217" font-family="Times,serif" font-size="14.00" fill="#000000">custom&#45;subset&#45;bam v(1.12.0)</text>
</a>
</g>
</g>
<!-- file:///tmp/tmpp0ygul9h#get_unmapped_file_from_sorted_bam_step&#45;&gt;file:///tmp/tmpp0ygul9h#subset_unmapped_bam -->
<g id="edge8" class="edge">
<title>file:///tmp/tmpp0ygul9h#get_unmapped_file_from_sorted_bam_step&#45;&gt;file:///tmp/tmpp0ygul9h#subset_unmapped_bam</title>
<path fill="none" stroke="#000000" d="M417.9413,-553.4794C419.3511,-542.713 421.1542,-528.9439 422.7415,-516.8228"/>
<polygon fill="#000000" stroke="#000000" points="426.2374,-517.0817 424.0656,-506.7119 419.2967,-516.1728 426.2374,-517.0817"/>
</g>
<!-- file:///tmp/tmpp0ygul9h#subset_unmapped_bam&#45;&gt;file:///tmp/tmpp0ygul9h#merge_hla_and_unmapped_bam_files_step -->
<g id="edge9" class="edge">
<title>file:///tmp/tmpp0ygul9h#subset_unmapped_bam&#45;&gt;file:///tmp/tmpp0ygul9h#merge_hla_and_unmapped_bam_files_step</title>
<path fill="none" stroke="#000000" d="M430.0509,-469.4794C432.1017,-458.713 434.7243,-444.9439 437.0331,-432.8228"/>
<polygon fill="#000000" stroke="#000000" points="440.526,-433.1902 438.959,-422.7119 433.6496,-431.8804 440.526,-433.1902"/>
</g>
<!-- file:///tmp/tmpp0ygul9h#get_bam_slice_from_bed_step&#45;&gt;file:///tmp/tmpp0ygul9h#merge_hla_and_unmapped_bam_files_step -->
<g id="edge10" class="edge">
<title>file:///tmp/tmpp0ygul9h#get_bam_slice_from_bed_step&#45;&gt;file:///tmp/tmpp0ygul9h#merge_hla_and_unmapped_bam_files_step</title>
<path fill="none" stroke="#000000" d="M161.7092,-553.5833C195.7199,-532.2684 253.84,-496.677 305.5,-469.1217 333.4283,-454.2248 365.3429,-438.983 391.3388,-427.0063"/>
<polygon fill="#000000" stroke="#000000" points="392.9975,-430.0962 400.6301,-422.7482 390.0811,-423.7326 392.9975,-430.0962"/>
</g>
</g>
</svg>
