<?xml version="1.0" encoding="UTF-8" standalone="no"?>
<!DOCTYPE svg PUBLIC "-//W3C//DTD SVG 1.1//EN"
 "http://www.w3.org/Graphics/SVG/1.1/DTD/svg11.dtd">
<!-- Generated by graphviz version 2.40.1 (20161225.0304)
 -->
<!-- Title: G Pages: 1 -->
<svg width="1234pt" height="598pt"
 viewBox="0.00 0.00 1234.00 597.71" xmlns="http://www.w3.org/2000/svg" xmlns:xlink="http://www.w3.org/1999/xlink">
<g id="graph0" class="graph" transform="scale(1 1) rotate(0) translate(4 593.706)">
<title>G</title>
<polygon fill="#eeeeee" stroke="transparent" points="-4,4 -4,-593.706 1230,-593.706 1230,4 -4,4"/>
<g id="clust1" class="cluster">
<title>cluster_inputs</title>
<polygon fill="#eeeeee" stroke="#000000" stroke-dasharray="5,2" points="8,-482.1416 8,-579.5823 1218,-579.5823 1218,-482.1416 8,-482.1416"/>
<text text-anchor="middle" x="1150" y="-489.9416" font-family="Times,serif" font-size="14.00" fill="#000000">Workflow Inputs</text>
</g>
<g id="clust2" class="cluster">
<title>cluster_outputs</title>
<polygon fill="#eeeeee" stroke="#000000" stroke-dasharray="5,2" points="180,-10.1237 180,-107.5644 960,-107.5644 960,-10.1237 180,-10.1237"/>
<text text-anchor="middle" x="886" y="-17.9237" font-family="Times,serif" font-size="14.00" fill="#000000">Workflow Outputs</text>
</g>
<!-- file:///tmp/tmprd173q9m#tso500_samples -->
<g id="node1" class="node">
<title>file:///tmp/tmprd173q9m#tso500_samples</title>
<g id="a_node1"><a xlink:title="A list of tso500 samples each element has the following attributes:&#10;* sample_id&#10;* sample_type&#10;* pair_id&#10;">
<polygon fill="#94ddf4" stroke="#000000" points="467.5,-526.6237 467.5,-563.6237 598.5,-563.6237 598.5,-526.6237 467.5,-526.6237"/>
<text text-anchor="middle" x="533" y="-541.4237" font-family="Times,serif" font-size="14.00" fill="#000000">tso500_samples</text>
</a>
</g>
</g>
<!-- file:///tmp/tmprd173q9m#run_tso500_ctdna_demultiplex_workflow_step -->
<g id="node13" class="node">
<title>file:///tmp/tmprd173q9m#run_tso500_ctdna_demultiplex_workflow_step</title>
<g id="a_node13"><a xlink:href="https://github.com/umccr/cwl-ica/blob/beta-release/.github/catalogue/docs/tools/tso500-ctdna-demultiplex-workflow/1.1.0--120/tso500-ctdna-demultiplex-workflow__1.1.0--120.md" xlink:title="Runs the tso500 ctdna demultiplex workflow step. This involves making sure that the fastq list rows are mounted&#10;as per as the WDL task expects them to be (which is every sample in its own project). Then creating an&#10;input.json to match the inputs of the CWL with a WDL compatible input file and launching this through cromwell.&#10;">
<polygon fill="#fafad2" stroke="#000000" points="474.5,-335.6237 474.5,-372.6237 835.5,-372.6237 835.5,-335.6237 474.5,-335.6237"/>
<text text-anchor="middle" x="655" y="-350.4237" font-family="Times,serif" font-size="14.00" fill="#000000">tso500&#45;ctdna&#45;demultiplex&#45;workflow v(1.1.0.120)</text>
</a>
</g>
</g>
<!-- file:///tmp/tmprd173q9m#tso500_samples&#45;&gt;file:///tmp/tmprd173q9m#run_tso500_ctdna_demultiplex_workflow_step -->
<g id="edge10" class="edge">
<title>file:///tmp/tmprd173q9m#tso500_samples&#45;&gt;file:///tmp/tmprd173q9m#run_tso500_ctdna_demultiplex_workflow_step</title>
<path fill="none" stroke="#000000" d="M518.5186,-526.5732C501.6628,-502.5473 478.4779,-460.0848 498,-429.1237 513.5652,-404.4381 539.7417,-387.703 566.3038,-376.4333"/>
<polygon fill="#000000" stroke="#000000" points="567.7164,-379.6379 575.6984,-372.671 565.1139,-373.1397 567.7164,-379.6379"/>
</g>
<!-- file:///tmp/tmprd173q9m#run_tso500_ctdna_analysis_workflow_step -->
<g id="node14" class="node">
<title>file:///tmp/tmprd173q9m#run_tso500_ctdna_analysis_workflow_step</title>
<g id="a_node14"><a xlink:href="https://github.com/umccr/cwl-ica/blob/beta-release/.github/catalogue/docs/tools/tso500-ctdna-analysis-workflow/1.1.0--120/tso500-ctdna-analysis-workflow__1.1.0--120.md" xlink:title="Run the tso500 ctdna analysis workflow step. This involves making sure that the fastq list rows are mounted as&#10;per the WDL task expects them to be (which is every sample in its own project). Then creating an&#10;input.json to match the inputs of the CWL with a WDL compatible input file and launching this through cromwell.&#10;">
<polygon fill="#fafad2" stroke="#000000" points="122,-242.6237 122,-279.6237 456,-279.6237 456,-242.6237 122,-242.6237"/>
<text text-anchor="middle" x="289" y="-257.4237" font-family="Times,serif" font-size="14.00" fill="#000000">tso500&#45;ctdna&#45;analysis&#45;workflow v(1.1.0.120)</text>
</a>
</g>
</g>
<!-- file:///tmp/tmprd173q9m#tso500_samples&#45;&gt;file:///tmp/tmprd173q9m#run_tso500_ctdna_analysis_workflow_step -->
<g id="edge11" class="edge">
<title>file:///tmp/tmprd173q9m#tso500_samples&#45;&gt;file:///tmp/tmprd173q9m#run_tso500_ctdna_analysis_workflow_step</title>
<path fill="none" stroke="#000000" d="M516.9905,-526.4897C474.8516,-477.4427 360.7475,-344.6331 311.801,-287.6626"/>
<polygon fill="#000000" stroke="#000000" points="314.24,-285.1305 305.0685,-279.8264 308.9304,-289.6923 314.24,-285.1305"/>
</g>
<!-- file:///tmp/tmprd173q9m#add_sample_type_and_pair_id_to_samplesheet_step -->
<g id="node16" class="node">
<title>file:///tmp/tmprd173q9m#add_sample_type_and_pair_id_to_samplesheet_step</title>
<g id="a_node16"><a xlink:href="https://github.com/umccr/cwl-ica/blob/beta-release/.github/catalogue/docs/tools/custom-create-tso500-samplesheet/1.0.0/custom-create-tso500-samplesheet__1.0.0.md" xlink:title="Adds the sample_type and pair_id attribute from each of the tso500 samples to&#10;the samplesheet. Here the sample_id attribute of the tso500 sample must match&#10;that of the Sample_ID column in the sample sheet. &#160;This tool also overwrites the Sample_Project attribute&#10;so that it matches the Sample_ID. This tool expects a v1 samplesheet as input&#10;">
<polygon fill="#fafad2" stroke="#000000" points="507,-429.6237 507,-466.6237 833,-466.6237 833,-429.6237 507,-429.6237"/>
<text text-anchor="middle" x="670" y="-444.4237" font-family="Times,serif" font-size="14.00" fill="#000000">custom&#45;create&#45;tso500&#45;samplesheet v(1.0.0)</text>
</a>
</g>
</g>
<!-- file:///tmp/tmprd173q9m#tso500_samples&#45;&gt;file:///tmp/tmprd173q9m#add_sample_type_and_pair_id_to_samplesheet_step -->
<g id="edge12" class="edge">
<title>file:///tmp/tmprd173q9m#tso500_samples&#45;&gt;file:///tmp/tmprd173q9m#add_sample_type_and_pair_id_to_samplesheet_step</title>
<path fill="none" stroke="#000000" d="M559.415,-526.4211C581.0212,-511.1233 611.7478,-489.368 635.3309,-472.6704"/>
<polygon fill="#000000" stroke="#000000" points="637.5272,-475.4039 643.6661,-466.7689 633.4822,-469.6909 637.5272,-475.4039"/>
</g>
<!-- file:///tmp/tmprd173q9m#fastq_list_rows -->
<g id="node2" class="node">
<title>file:///tmp/tmprd173q9m#fastq_list_rows</title>
<g id="a_node2"><a xlink:title="A list of fastq list rows where each element has the following attributes&#10;* rgid &#160;# Not used&#10;* rgsm&#10;* rglb &#160;# Not used&#10;* read_1&#10;* read_2&#10;">
<polygon fill="#94ddf4" stroke="#000000" points="191.5,-526.6237 191.5,-563.6237 316.5,-563.6237 316.5,-526.6237 191.5,-526.6237"/>
<text text-anchor="middle" x="254" y="-541.4237" font-family="Times,serif" font-size="14.00" fill="#000000">fastq_list_rows</text>
</a>
</g>
</g>
<!-- file:///tmp/tmprd173q9m#fastq_list_rows&#45;&gt;file:///tmp/tmprd173q9m#run_tso500_ctdna_demultiplex_workflow_step -->
<g id="edge13" class="edge">
<title>file:///tmp/tmprd173q9m#fastq_list_rows&#45;&gt;file:///tmp/tmprd173q9m#run_tso500_ctdna_demultiplex_workflow_step</title>
<path fill="none" stroke="#000000" d="M279.185,-526.3974C292.5607,-516.7069 309.4162,-504.8933 325,-495.1237 376.2419,-462.9997 388.8754,-454.0027 444,-429.1237 489.7636,-408.4695 543.0529,-389.5671 584.628,-375.9055"/>
<polygon fill="#000000" stroke="#000000" points="585.9686,-379.1498 594.3913,-372.7227 583.7989,-372.4946 585.9686,-379.1498"/>
</g>
<!-- file:///tmp/tmprd173q9m#fastq_list_rows&#45;&gt;file:///tmp/tmprd173q9m#run_tso500_ctdna_analysis_workflow_step -->
<g id="edge14" class="edge">
<title>file:///tmp/tmprd173q9m#fastq_list_rows&#45;&gt;file:///tmp/tmprd173q9m#run_tso500_ctdna_analysis_workflow_step</title>
<path fill="none" stroke="#000000" d="M256.2964,-526.4897C262.2666,-478.0458 278.3074,-347.8863 285.4662,-289.798"/>
<polygon fill="#000000" stroke="#000000" points="288.9456,-290.1794 286.6951,-279.8264 281.9981,-289.3231 288.9456,-290.1794"/>
</g>
<!-- file:///tmp/tmprd173q9m#resources_dir -->
<g id="node3" class="node">
<title>file:///tmp/tmprd173q9m#resources_dir</title>
<g id="a_node3"><a xlink:title="The directory of resources&#10;">
<polygon fill="#94ddf4" stroke="#000000" points="334.5,-526.6237 334.5,-563.6237 449.5,-563.6237 449.5,-526.6237 334.5,-526.6237"/>
<text text-anchor="middle" x="392" y="-541.4237" font-family="Times,serif" font-size="14.00" fill="#000000">resources_dir</text>
</a>
</g>
</g>
<!-- file:///tmp/tmprd173q9m#resources_dir&#45;&gt;file:///tmp/tmprd173q9m#run_tso500_ctdna_demultiplex_workflow_step -->
<g id="edge15" class="edge">
<title>file:///tmp/tmprd173q9m#resources_dir&#45;&gt;file:///tmp/tmprd173q9m#run_tso500_ctdna_demultiplex_workflow_step</title>
<path fill="none" stroke="#000000" d="M403.1919,-526.3476C418.936,-501.2921 449.785,-456.8681 486,-429.1237 515.8019,-406.2924 553.6467,-388.6685 585.9653,-376.2593"/>
<polygon fill="#000000" stroke="#000000" points="587.2264,-379.5245 595.3614,-372.7369 584.7692,-372.9699 587.2264,-379.5245"/>
</g>
<!-- file:///tmp/tmprd173q9m#resources_dir&#45;&gt;file:///tmp/tmprd173q9m#run_tso500_ctdna_analysis_workflow_step -->
<g id="edge16" class="edge">
<title>file:///tmp/tmprd173q9m#resources_dir&#45;&gt;file:///tmp/tmprd173q9m#run_tso500_ctdna_analysis_workflow_step</title>
<path fill="none" stroke="#000000" d="M380.8411,-526.3799C371.9337,-510.8764 359.5693,-488.0812 351,-467.1237 325.8266,-405.5589 305.6734,-329.9601 295.7379,-289.6457"/>
<polygon fill="#000000" stroke="#000000" points="299.0876,-288.6077 293.3229,-279.7184 292.286,-290.2624 299.0876,-288.6077"/>
</g>
<!-- file:///tmp/tmprd173q9m#run_tso500_ctdna_reporting_workflow_step -->
<g id="node15" class="node">
<title>file:///tmp/tmprd173q9m#run_tso500_ctdna_reporting_workflow_step</title>
<g id="a_node15"><a xlink:href="https://github.com/umccr/cwl-ica/blob/beta-release/.github/catalogue/docs/tools/tso500-ctdna-reporting-workflow/1.1.0--120/tso500-ctdna-reporting-workflow__1.1.0--120.md" xlink:title="Run the tso500 ctdna repair workflow step&#10;">
<polygon fill="#fafad2" stroke="#000000" points="551,-148.6237 551,-185.6237 895,-185.6237 895,-148.6237 551,-148.6237"/>
<text text-anchor="middle" x="723" y="-163.4237" font-family="Times,serif" font-size="14.00" fill="#000000">tso500&#45;ctdna&#45;reporting&#45;workflow v(1.1.0.120)</text>
</a>
</g>
</g>
<!-- file:///tmp/tmprd173q9m#resources_dir&#45;&gt;file:///tmp/tmprd173q9m#run_tso500_ctdna_reporting_workflow_step -->
<g id="edge17" class="edge">
<title>file:///tmp/tmprd173q9m#resources_dir&#45;&gt;file:///tmp/tmprd173q9m#run_tso500_ctdna_reporting_workflow_step</title>
<path fill="none" stroke="#000000" d="M394.4892,-526.3488C400.5107,-487.0961 418.9913,-395.0341 466,-335.1237 519.9247,-266.3991 610.1249,-216.818 668.06,-190.0335"/>
<polygon fill="#000000" stroke="#000000" points="669.7714,-193.1001 677.4239,-185.7728 666.8723,-186.7287 669.7714,-193.1001"/>
</g>
<!-- file:///tmp/tmprd173q9m#dragen_license_key -->
<g id="node4" class="node">
<title>file:///tmp/tmprd173q9m#dragen_license_key</title>
<g id="a_node4"><a xlink:title="File containing the dragen license&#10;">
<polygon fill="#94ddf4" stroke="#000000" points="16,-526.6237 16,-563.6237 174,-563.6237 174,-526.6237 16,-526.6237"/>
<text text-anchor="middle" x="95" y="-541.4237" font-family="Times,serif" font-size="14.00" fill="#000000">dragen_license_key</text>
</a>
</g>
</g>
<!-- file:///tmp/tmprd173q9m#dragen_license_key&#45;&gt;file:///tmp/tmprd173q9m#run_tso500_ctdna_analysis_workflow_step -->
<g id="edge18" class="edge">
<title>file:///tmp/tmprd173q9m#dragen_license_key&#45;&gt;file:///tmp/tmprd173q9m#run_tso500_ctdna_analysis_workflow_step</title>
<path fill="none" stroke="#000000" d="M107.7289,-526.4897C141.0955,-477.6438 231.2122,-345.7203 270.3903,-288.3668"/>
<polygon fill="#000000" stroke="#000000" points="273.4737,-290.0579 276.2242,-279.8264 267.6935,-286.1095 273.4737,-290.0579"/>
</g>
<!-- file:///tmp/tmprd173q9m#run_info_xml -->
<g id="node5" class="node">
<title>file:///tmp/tmprd173q9m#run_info_xml</title>
<g id="a_node5"><a xlink:title="The run info xml file found inside the run folder&#10;">
<polygon fill="#94ddf4" stroke="#000000" points="916,-526.6237 916,-563.6237 1026,-563.6237 1026,-526.6237 916,-526.6237"/>
<text text-anchor="middle" x="971" y="-541.4237" font-family="Times,serif" font-size="14.00" fill="#000000">run_info_xml</text>
</a>
</g>
</g>
<!-- file:///tmp/tmprd173q9m#run_info_xml&#45;&gt;file:///tmp/tmprd173q9m#run_tso500_ctdna_demultiplex_workflow_step -->
<g id="edge19" class="edge">
<title>file:///tmp/tmprd173q9m#run_info_xml&#45;&gt;file:///tmp/tmprd173q9m#run_tso500_ctdna_demultiplex_workflow_step</title>
<path fill="none" stroke="#000000" d="M957.6094,-526.5149C938.5483,-501.2403 901.293,-456.123 860,-429.1237 823.5951,-405.3205 778.6276,-387.7856 740.0929,-375.683"/>
<polygon fill="#000000" stroke="#000000" points="741.0304,-372.3096 730.4436,-372.7226 738.9772,-379.0018 741.0304,-372.3096"/>
</g>
<!-- file:///tmp/tmprd173q9m#run_info_xml&#45;&gt;file:///tmp/tmprd173q9m#run_tso500_ctdna_reporting_workflow_step -->
<g id="edge20" class="edge">
<title>file:///tmp/tmprd173q9m#run_info_xml&#45;&gt;file:///tmp/tmprd173q9m#run_tso500_ctdna_reporting_workflow_step</title>
<path fill="none" stroke="#000000" d="M964.7231,-526.4154C947.2448,-476.2627 894.1116,-336.2438 816,-242.1237 800.0328,-222.8842 778.4836,-205.1348 760.1489,-191.7379"/>
<polygon fill="#000000" stroke="#000000" points="762.153,-188.8682 751.9827,-185.8991 758.0816,-194.5624 762.153,-188.8682"/>
</g>
<!-- file:///tmp/tmprd173q9m#run_parameters_xml -->
<g id="node6" class="node">
<title>file:///tmp/tmprd173q9m#run_parameters_xml</title>
<g id="a_node6"><a xlink:title="The run parameters xml file found inside the run folder&#10;">
<polygon fill="#94ddf4" stroke="#000000" points="1044.5,-526.6237 1044.5,-563.6237 1209.5,-563.6237 1209.5,-526.6237 1044.5,-526.6237"/>
<text text-anchor="middle" x="1127" y="-541.4237" font-family="Times,serif" font-size="14.00" fill="#000000">run_parameters_xml</text>
</a>
</g>
</g>
<!-- file:///tmp/tmprd173q9m#run_parameters_xml&#45;&gt;file:///tmp/tmprd173q9m#run_tso500_ctdna_demultiplex_workflow_step -->
<g id="edge21" class="edge">
<title>file:///tmp/tmprd173q9m#run_parameters_xml&#45;&gt;file:///tmp/tmprd173q9m#run_tso500_ctdna_demultiplex_workflow_step</title>
<path fill="none" stroke="#000000" d="M1093.5867,-526.395C1076.2308,-516.8121 1054.6055,-505.0965 1035,-495.1237 974.0447,-464.1174 959.6981,-454.0134 896,-429.1237 842.6382,-408.2729 780.922,-389.1575 733.303,-375.4435"/>
<polygon fill="#000000" stroke="#000000" points="734.2462,-372.0729 723.6692,-372.6871 732.3206,-378.8029 734.2462,-372.0729"/>
</g>
<!-- file:///tmp/tmprd173q9m#run_parameters_xml&#45;&gt;file:///tmp/tmprd173q9m#run_tso500_ctdna_reporting_workflow_step -->
<g id="edge22" class="edge">
<title>file:///tmp/tmprd173q9m#run_parameters_xml&#45;&gt;file:///tmp/tmprd173q9m#run_tso500_ctdna_reporting_workflow_step</title>
<path fill="none" stroke="#000000" d="M1112.4389,-526.489C1072.8155,-476.519 958.2772,-336.9134 843,-242.1237 819.3587,-222.684 790.3077,-204.4027 766.7113,-190.7562"/>
<polygon fill="#000000" stroke="#000000" points="768.3775,-187.6772 757.9575,-185.7602 764.9077,-193.7568 768.3775,-187.6772"/>
</g>
<!-- file:///tmp/tmprd173q9m#samplesheet_prefix -->
<g id="node7" class="node">
<title>file:///tmp/tmprd173q9m#samplesheet_prefix</title>
<g id="a_node7"><a xlink:title="Points to the TSO500 section of the samplesheet. &#160;If you are using a samplesheet from BCLConvert,&#10;please set this to &quot;BCLConvert&quot;&#10;">
<polygon fill="#94ddf4" stroke="#000000" points="742,-526.6237 742,-563.6237 898,-563.6237 898,-526.6237 742,-526.6237"/>
<text text-anchor="middle" x="820" y="-541.4237" font-family="Times,serif" font-size="14.00" fill="#000000">samplesheet_prefix</text>
</a>
</g>
</g>
<!-- file:///tmp/tmprd173q9m#samplesheet_prefix&#45;&gt;file:///tmp/tmprd173q9m#run_tso500_ctdna_demultiplex_workflow_step -->
<g id="edge23" class="edge">
<title>file:///tmp/tmprd173q9m#samplesheet_prefix&#45;&gt;file:///tmp/tmprd173q9m#run_tso500_ctdna_demultiplex_workflow_step</title>
<path fill="none" stroke="#000000" d="M831.2495,-526.5573C844.4369,-502.1334 862.0968,-458.8368 842,-429.1237 825.0096,-404.0034 798.0792,-387.2958 769.8902,-376.1839"/>
<polygon fill="#000000" stroke="#000000" points="770.8878,-372.821 760.2948,-372.6259 768.4541,-379.3843 770.8878,-372.821"/>
</g>
<!-- file:///tmp/tmprd173q9m#samplesheet_prefix&#45;&gt;file:///tmp/tmprd173q9m#run_tso500_ctdna_reporting_workflow_step -->
<g id="edge24" class="edge">
<title>file:///tmp/tmprd173q9m#samplesheet_prefix&#45;&gt;file:///tmp/tmprd173q9m#run_tso500_ctdna_reporting_workflow_step</title>
<path fill="none" stroke="#000000" d="M832.7238,-526.5706C842.3395,-511.3607 854.7491,-488.8699 860,-467.1237 873.8586,-409.7289 867.6206,-389.663 845,-335.1237 821.83,-279.2598 776.6267,-224.4585 748.2237,-193.323"/>
<polygon fill="#000000" stroke="#000000" points="750.7472,-190.8967 741.3882,-185.9308 745.6077,-195.6492 750.7472,-190.8967"/>
</g>
<!-- file:///tmp/tmprd173q9m#samplesheet_prefix&#45;&gt;file:///tmp/tmprd173q9m#add_sample_type_and_pair_id_to_samplesheet_step -->
<g id="edge25" class="edge">
<title>file:///tmp/tmprd173q9m#samplesheet_prefix&#45;&gt;file:///tmp/tmprd173q9m#add_sample_type_and_pair_id_to_samplesheet_step</title>
<path fill="none" stroke="#000000" d="M791.0785,-526.4211C767.2146,-510.9891 733.1888,-488.9858 707.2812,-472.2322"/>
<polygon fill="#000000" stroke="#000000" points="709.1305,-469.2601 698.8327,-466.7689 705.3294,-475.1381 709.1305,-469.2601"/>
</g>
<!-- file:///tmp/tmprd173q9m#samplesheet -->
<g id="node8" class="node">
<title>file:///tmp/tmprd173q9m#samplesheet</title>
<g id="a_node8"><a xlink:title="The sample sheet file, expects a V2 samplesheet.&#10;Even though we don&#39;t demultiplex, we still need the information on Sample_Type and Pair_ID to determine which&#10;workflow (DNA / RNA) to run through, we gather this through the tso500_samples input schema and then append to the&#10;samplesheet. Please make sure that the sample_id in the tso500 sample schema match the Sample_ID in the&#10;&quot;&lt;samplesheet_prefix&gt;_Data&quot; column.&#10;">
<polygon fill="#94ddf4" stroke="#000000" points="616.5,-526.6237 616.5,-563.6237 723.5,-563.6237 723.5,-526.6237 616.5,-526.6237"/>
<text text-anchor="middle" x="670" y="-541.4237" font-family="Times,serif" font-size="14.00" fill="#000000">samplesheet</text>
</a>
</g>
</g>
<!-- file:///tmp/tmprd173q9m#samplesheet&#45;&gt;file:///tmp/tmprd173q9m#add_sample_type_and_pair_id_to_samplesheet_step -->
<g id="edge26" class="edge">
<title>file:///tmp/tmprd173q9m#samplesheet&#45;&gt;file:///tmp/tmprd173q9m#add_sample_type_and_pair_id_to_samplesheet_step</title>
<path fill="none" stroke="#000000" d="M670,-526.4211C670,-512.4652 670,-493.135 670,-477.1735"/>
<polygon fill="#000000" stroke="#000000" points="673.5001,-476.7688 670,-466.7689 666.5001,-476.7689 673.5001,-476.7688"/>
</g>
<!-- file:///tmp/tmprd173q9m#results -->
<g id="node9" class="node">
<title>file:///tmp/tmprd173q9m#results</title>
<g id="a_node9"><a xlink:title="Results directory, output from the reporting workflow&#10;">
<polygon fill="#94ddf4" stroke="#000000" points="656,-54.6237 656,-91.6237 722,-91.6237 722,-54.6237 656,-54.6237"/>
<text text-anchor="middle" x="689" y="-69.4237" font-family="Times,serif" font-size="14.00" fill="#000000">results</text>
</a>
</g>
</g>
<!-- file:///tmp/tmprd173q9m#analysis_workflow_output -->
<g id="node10" class="node">
<title>file:///tmp/tmprd173q9m#analysis_workflow_output</title>
<g id="a_node10"><a xlink:title="Intermediate output files from the analysis workflow steps&#10;">
<polygon fill="#94ddf4" stroke="#000000" points="187.5,-54.6237 187.5,-91.6237 390.5,-91.6237 390.5,-54.6237 187.5,-54.6237"/>
<text text-anchor="middle" x="289" y="-69.4237" font-family="Times,serif" font-size="14.00" fill="#000000">analysis_workflow_output</text>
</a>
</g>
</g>
<!-- file:///tmp/tmprd173q9m#demultiplex_workflow_output -->
<g id="node11" class="node">
<title>file:///tmp/tmprd173q9m#demultiplex_workflow_output</title>
<g id="a_node11"><a xlink:title="Intermediate output files from the demultiplex workflow steps&#10;">
<polygon fill="#94ddf4" stroke="#000000" points="408,-54.6237 408,-91.6237 638,-91.6237 638,-54.6237 408,-54.6237"/>
<text text-anchor="middle" x="523" y="-69.4237" font-family="Times,serif" font-size="14.00" fill="#000000">demultiplex_workflow_output</text>
</a>
</g>
</g>
<!-- file:///tmp/tmprd173q9m#reporting_workflow_output -->
<g id="node12" class="node">
<title>file:///tmp/tmprd173q9m#reporting_workflow_output</title>
<g id="a_node12"><a xlink:title="Intermediate output files from the reporting workflow steps&#10;">
<polygon fill="#94ddf4" stroke="#000000" points="740,-54.6237 740,-91.6237 952,-91.6237 952,-54.6237 740,-54.6237"/>
<text text-anchor="middle" x="846" y="-69.4237" font-family="Times,serif" font-size="14.00" fill="#000000">reporting_workflow_output</text>
</a>
</g>
</g>
<!-- file:///tmp/tmprd173q9m#run_tso500_ctdna_demultiplex_workflow_step&#45;&gt;file:///tmp/tmprd173q9m#demultiplex_workflow_output -->
<g id="edge3" class="edge">
<title>file:///tmp/tmprd173q9m#run_tso500_ctdna_demultiplex_workflow_step&#45;&gt;file:///tmp/tmprd173q9m#demultiplex_workflow_output</title>
<path fill="none" stroke="#000000" d="M638.4857,-335.5085C613.3284,-306.0495 565.8207,-245.8761 542,-186.1237 531.0758,-158.7212 526.4322,-125.1492 524.4585,-101.7497"/>
<polygon fill="#000000" stroke="#000000" points="527.949,-101.4901 523.7266,-91.773 520.9678,-102.0023 527.949,-101.4901"/>
</g>
<!-- file:///tmp/tmprd173q9m#run_tso500_ctdna_demultiplex_workflow_step&#45;&gt;file:///tmp/tmprd173q9m#run_tso500_ctdna_analysis_workflow_step -->
<g id="edge1" class="edge">
<title>file:///tmp/tmprd173q9m#run_tso500_ctdna_demultiplex_workflow_step&#45;&gt;file:///tmp/tmprd173q9m#run_tso500_ctdna_analysis_workflow_step</title>
<path fill="none" stroke="#000000" d="M581.8141,-335.5273C521.2212,-320.1307 435.1394,-298.2575 371.9899,-282.2113"/>
<polygon fill="#000000" stroke="#000000" points="372.6131,-278.7585 362.0591,-279.6879 370.8891,-285.5429 372.6131,-278.7585"/>
</g>
<!-- file:///tmp/tmprd173q9m#run_tso500_ctdna_demultiplex_workflow_step&#45;&gt;file:///tmp/tmprd173q9m#run_tso500_ctdna_reporting_workflow_step -->
<g id="edge2" class="edge">
<title>file:///tmp/tmprd173q9m#run_tso500_ctdna_demultiplex_workflow_step&#45;&gt;file:///tmp/tmprd173q9m#run_tso500_ctdna_reporting_workflow_step</title>
<path fill="none" stroke="#000000" d="M661.7687,-335.5098C673.7337,-302.606 698.6833,-233.9947 712.7619,-195.2786"/>
<polygon fill="#000000" stroke="#000000" points="716.1305,-196.2564 716.2587,-185.6624 709.5519,-193.8642 716.1305,-196.2564"/>
</g>
<!-- file:///tmp/tmprd173q9m#run_tso500_ctdna_analysis_workflow_step&#45;&gt;file:///tmp/tmprd173q9m#analysis_workflow_output -->
<g id="edge6" class="edge">
<title>file:///tmp/tmprd173q9m#run_tso500_ctdna_analysis_workflow_step&#45;&gt;file:///tmp/tmprd173q9m#analysis_workflow_output</title>
<path fill="none" stroke="#000000" d="M289,-242.4102C289,-209.4713 289,-140.9387 289,-101.9276"/>
<polygon fill="#000000" stroke="#000000" points="292.5001,-101.7615 289,-91.7615 285.5001,-101.7615 292.5001,-101.7615"/>
</g>
<!-- file:///tmp/tmprd173q9m#run_tso500_ctdna_analysis_workflow_step&#45;&gt;file:///tmp/tmprd173q9m#run_tso500_ctdna_reporting_workflow_step -->
<g id="edge4" class="edge">
<title>file:///tmp/tmprd173q9m#run_tso500_ctdna_analysis_workflow_step&#45;&gt;file:///tmp/tmprd173q9m#run_tso500_ctdna_reporting_workflow_step</title>
<path fill="none" stroke="#000000" d="M368.9873,-242.6084C440.1826,-226.8425 544.6041,-204.2108 621.6253,-187.8443"/>
<polygon fill="#000000" stroke="#000000" points="622.7729,-191.1787 631.8284,-185.6789 621.3196,-184.3312 622.7729,-191.1787"/>
</g>
<!-- file:///tmp/tmprd173q9m#run_tso500_ctdna_analysis_workflow_step&#45;&gt;file:///tmp/tmprd173q9m#run_tso500_ctdna_reporting_workflow_step -->
<g id="edge5" class="edge">
<title>file:///tmp/tmprd173q9m#run_tso500_ctdna_analysis_workflow_step&#45;&gt;file:///tmp/tmprd173q9m#run_tso500_ctdna_reporting_workflow_step</title>
<path fill="none" stroke="#000000" d="M379.9835,-242.6084C454.3712,-226.8425 558.9323,-204.2108 633.0403,-187.8443"/>
<polygon fill="#000000" stroke="#000000" points="633.8242,-191.2556 642.8326,-185.6789 632.3127,-184.4207 633.8242,-191.2556"/>
</g>
<!-- file:///tmp/tmprd173q9m#run_tso500_ctdna_reporting_workflow_step&#45;&gt;file:///tmp/tmprd173q9m#results -->
<g id="edge7" class="edge">
<title>file:///tmp/tmprd173q9m#run_tso500_ctdna_reporting_workflow_step&#45;&gt;file:///tmp/tmprd173q9m#results</title>
<path fill="none" stroke="#000000" d="M716.2827,-148.5523C711.3931,-135.034 704.6856,-116.4897 699.145,-101.1716"/>
<polygon fill="#000000" stroke="#000000" points="702.3961,-99.8698 695.7034,-91.6565 695.8135,-102.2508 702.3961,-99.8698"/>
</g>
<!-- file:///tmp/tmprd173q9m#run_tso500_ctdna_reporting_workflow_step&#45;&gt;file:///tmp/tmprd173q9m#reporting_workflow_output -->
<g id="edge8" class="edge">
<title>file:///tmp/tmprd173q9m#run_tso500_ctdna_reporting_workflow_step&#45;&gt;file:///tmp/tmprd173q9m#reporting_workflow_output</title>
<path fill="none" stroke="#000000" d="M747.3008,-148.5523C766.3374,-134.004 792.991,-113.6347 813.8023,-97.7301"/>
<polygon fill="#000000" stroke="#000000" points="815.9295,-100.5095 821.7496,-91.6565 811.679,-94.9477 815.9295,-100.5095"/>
</g>
<!-- file:///tmp/tmprd173q9m#add_sample_type_and_pair_id_to_samplesheet_step&#45;&gt;file:///tmp/tmprd173q9m#run_tso500_ctdna_demultiplex_workflow_step -->
<g id="edge9" class="edge">
<title>file:///tmp/tmprd173q9m#add_sample_type_and_pair_id_to_samplesheet_step&#45;&gt;file:///tmp/tmprd173q9m#run_tso500_ctdna_demultiplex_workflow_step</title>
<path fill="none" stroke="#000000" d="M667.0365,-429.5523C664.8998,-416.1627 661.9764,-397.8424 659.5457,-382.6101"/>
<polygon fill="#000000" stroke="#000000" points="662.9895,-381.98 657.9574,-372.6565 656.077,-383.0831 662.9895,-381.98"/>
</g>
</g>
</svg>
