<?xml version="1.0" encoding="UTF-8" standalone="no"?>
<!DOCTYPE svg PUBLIC "-//W3C//DTD SVG 1.1//EN"
 "http://www.w3.org/Graphics/SVG/1.1/DTD/svg11.dtd">
<!-- Generated by graphviz version 2.43.0 (0)
 -->
<!-- Title: G Pages: 1 -->
<svg width="6552pt" height="2986pt"
 viewBox="0.00 0.00 6552.00 2985.52" xmlns="http://www.w3.org/2000/svg" xmlns:xlink="http://www.w3.org/1999/xlink">
<g id="graph0" class="graph" transform="scale(1 1) rotate(0) translate(4 2981.52)">
<title>G</title>
<polygon fill="#eeeeee" stroke="transparent" points="-4,4 -4,-2981.52 6548,-2981.52 6548,4 -4,4"/>
<g id="clust1" class="cluster">
<title>cluster_inputs</title>
<polygon fill="#eeeeee" stroke="black" stroke-dasharray="5,2" points="3859,-2475.36 3859,-2930.26 5227,-2930.26 5227,-2475.36 3859,-2475.36"/>
<text text-anchor="middle" x="5160.5" y="-2483.16" font-family="Times,serif" font-size="14.00">Workflow Inputs</text>
</g>
<g id="clust2" class="cluster">
<title>cluster_outputs</title>
<polygon fill="#eeeeee" stroke="black" stroke-dasharray="5,2" points="8,-271.76 8,-726.66 6010,-726.66 6010,-271.76 8,-271.76"/>
<text text-anchor="middle" x="5937.5" y="-279.56" font-family="Times,serif" font-size="14.00">Workflow Outputs</text>
</g>
<!-- coerce_valid_index -->
<g id="node1" class="node">
<title>coerce_valid_index</title>
<polygon fill="#94ddf4" stroke="black" points="4456,-2752.5 4456,-2789.5 4606,-2789.5 4606,-2752.5 4456,-2752.5"/>
<text text-anchor="middle" x="4531" y="-2767.3" font-family="Times,serif" font-size="14.00">coerce_valid_index</text>
</g>
<!-- add_sample_type_and_pair_id_to_samplesheet_step -->
<g id="node43" class="node">
<title>add_sample_type_and_pair_id_to_samplesheet_step</title>
<polygon fill="lightgoldenrodyellow" stroke="black" points="4368.5,-2297.5 4368.5,-2334.5 4693.5,-2334.5 4693.5,-2297.5 4368.5,-2297.5"/>
<text text-anchor="middle" x="4531" y="-2312.3" font-family="Times,serif" font-size="14.00">custom&#45;create&#45;tso500&#45;samplesheet v(1.0.0)</text>
</g>
<!-- coerce_valid_index&#45;&gt;add_sample_type_and_pair_id_to_samplesheet_step -->
<g id="edge38" class="edge">
<title>coerce_valid_index&#45;&gt;add_sample_type_and_pair_id_to_samplesheet_step</title>
<path fill="none" stroke="black" d="M4531,-2752.24C4531,-2682.82 4531,-2429.44 4531,-2344.77"/>
<polygon fill="black" stroke="black" points="4534.5,-2344.64 4531,-2334.64 4527.5,-2344.64 4534.5,-2344.64"/>
</g>
<!-- samplesheet -->
<g id="node2" class="node">
<title>samplesheet</title>
<polygon fill="#94ddf4" stroke="black" points="4330.5,-2752.5 4330.5,-2789.5 4437.5,-2789.5 4437.5,-2752.5 4330.5,-2752.5"/>
<text text-anchor="middle" x="4384" y="-2767.3" font-family="Times,serif" font-size="14.00">samplesheet</text>
</g>
<!-- samplesheet&#45;&gt;add_sample_type_and_pair_id_to_samplesheet_step -->
<g id="edge39" class="edge">
<title>samplesheet&#45;&gt;add_sample_type_and_pair_id_to_samplesheet_step</title>
<path fill="none" stroke="black" d="M4389.76,-2752.24C4412.34,-2682.68 4494.85,-2428.41 4522.16,-2344.25"/>
<polygon fill="black" stroke="black" points="4525.52,-2345.23 4525.28,-2334.64 4518.86,-2343.07 4525.52,-2345.23"/>
</g>
<!-- samplesheet_prefix -->
<g id="node3" class="node">
<title>samplesheet_prefix</title>
<polygon fill="#94ddf4" stroke="black" points="4624.5,-2752.5 4624.5,-2789.5 4779.5,-2789.5 4779.5,-2752.5 4624.5,-2752.5"/>
<text text-anchor="middle" x="4702" y="-2767.3" font-family="Times,serif" font-size="14.00">samplesheet_prefix</text>
</g>
<!-- run_tso500_ctdna_reporting_workflow_step -->
<g id="node39" class="node">
<title>run_tso500_ctdna_reporting_workflow_step</title>
<polygon fill="lightgoldenrodyellow" stroke="black" points="4854.5,-985.5 4854.5,-1022.5 5195.5,-1022.5 5195.5,-985.5 4854.5,-985.5"/>
<text text-anchor="middle" x="5025" y="-1000.3" font-family="Times,serif" font-size="14.00">tso500&#45;ctdna&#45;reporting&#45;workflow v(1.1.0.120)</text>
</g>
<!-- samplesheet_prefix&#45;&gt;run_tso500_ctdna_reporting_workflow_step -->
<g id="edge40" class="edge">
<title>samplesheet_prefix&#45;&gt;run_tso500_ctdna_reporting_workflow_step</title>
<path fill="none" stroke="black" d="M4705.25,-2752.24C4736.39,-2582.1 4981.65,-1241.9 5019.97,-1032.48"/>
<polygon fill="black" stroke="black" points="5023.42,-1033.06 5021.78,-1022.59 5016.54,-1031.8 5023.42,-1033.06"/>
</g>
<!-- run_tso500_ctdna_demultiplex_workflow_step -->
<g id="node42" class="node">
<title>run_tso500_ctdna_demultiplex_workflow_step</title>
<polygon fill="lightgoldenrodyellow" stroke="black" points="4404,-1860.5 4404,-1897.5 4762,-1897.5 4762,-1860.5 4404,-1860.5"/>
<text text-anchor="middle" x="4583" y="-1875.3" font-family="Times,serif" font-size="14.00">tso500&#45;ctdna&#45;demultiplex&#45;workflow v(1.1.0.120)</text>
</g>
<!-- samplesheet_prefix&#45;&gt;run_tso500_ctdna_demultiplex_workflow_step -->
<g id="edge41" class="edge">
<title>samplesheet_prefix&#45;&gt;run_tso500_ctdna_demultiplex_workflow_step</title>
<path fill="none" stroke="black" d="M4703.84,-2752.27C4709.95,-2689.62 4727.83,-2473.04 4703,-2297 4681.73,-2146.18 4619.21,-1973.48 4593.86,-1907.54"/>
<polygon fill="black" stroke="black" points="4597,-1905.95 4590.12,-1897.89 4590.47,-1908.48 4597,-1905.95"/>
</g>
<!-- samplesheet_prefix&#45;&gt;add_sample_type_and_pair_id_to_samplesheet_step -->
<g id="edge42" class="edge">
<title>samplesheet_prefix&#45;&gt;add_sample_type_and_pair_id_to_samplesheet_step</title>
<path fill="none" stroke="black" d="M4695.3,-2752.24C4669.01,-2682.61 4572.86,-2427.89 4541.19,-2344"/>
<polygon fill="black" stroke="black" points="4544.46,-2342.75 4537.66,-2334.64 4537.91,-2345.23 4544.46,-2342.75"/>
</g>
<!-- tso500_samples -->
<g id="node4" class="node">
<title>tso500_samples</title>
<polygon fill="#94ddf4" stroke="black" points="4181.5,-2752.5 4181.5,-2789.5 4312.5,-2789.5 4312.5,-2752.5 4181.5,-2752.5"/>
<text text-anchor="middle" x="4247" y="-2767.3" font-family="Times,serif" font-size="14.00">tso500_samples</text>
</g>
<!-- get_cttso_outputs_by_sample -->
<g id="node40" class="node">
<title>get_cttso_outputs_by_sample</title>
<polygon fill="lightgoldenrodyellow" stroke="black" points="6248,-548.5 6248,-585.5 6544,-585.5 6544,-548.5 6248,-548.5"/>
<text text-anchor="middle" x="6396" y="-563.3" font-family="Times,serif" font-size="14.00">get&#45;tso500&#45;outputs&#45;per&#45;sample v(1.0.0)</text>
</g>
<!-- tso500_samples&#45;&gt;get_cttso_outputs_by_sample -->
<g id="edge43" class="edge">
<title>tso500_samples&#45;&gt;get_cttso_outputs_by_sample</title>
<path fill="none" stroke="black" d="M4247.36,-2752.2C4249.47,-2686.57 4263.7,-2453.85 4360,-2297 4432.01,-2179.71 6121.76,-792.75 6366.55,-592.13"/>
<polygon fill="black" stroke="black" points="6368.81,-594.8 6374.32,-585.75 6364.37,-589.38 6368.81,-594.8"/>
</g>
<!-- run_tso500_ctdna_analysis_workflow_step -->
<g id="node41" class="node">
<title>run_tso500_ctdna_analysis_workflow_step</title>
<polygon fill="lightgoldenrodyellow" stroke="black" points="2551,-1422.5 2551,-1459.5 2883,-1459.5 2883,-1422.5 2551,-1422.5"/>
<text text-anchor="middle" x="2717" y="-1437.3" font-family="Times,serif" font-size="14.00">tso500&#45;ctdna&#45;analysis&#45;workflow v(1.1.0.120)</text>
</g>
<!-- tso500_samples&#45;&gt;run_tso500_ctdna_analysis_workflow_step -->
<g id="edge44" class="edge">
<title>tso500_samples&#45;&gt;run_tso500_ctdna_analysis_workflow_step</title>
<path fill="none" stroke="black" d="M4226.81,-2752.48C4061.95,-2609.38 2938.05,-1633.87 2745.15,-1466.43"/>
<polygon fill="black" stroke="black" points="2747.27,-1463.64 2737.42,-1459.72 2742.68,-1468.92 2747.27,-1463.64"/>
</g>
<!-- tso500_samples&#45;&gt;run_tso500_ctdna_demultiplex_workflow_step -->
<g id="edge45" class="edge">
<title>tso500_samples&#45;&gt;run_tso500_ctdna_demultiplex_workflow_step</title>
<path fill="none" stroke="black" d="M4247.58,-2752.19C4250.17,-2688.41 4263.49,-2466.2 4327,-2297 4387.44,-2135.97 4512.42,-1968.8 4562.03,-1905.94"/>
<polygon fill="black" stroke="black" points="4565.04,-1907.79 4568.52,-1897.78 4559.56,-1903.43 4565.04,-1907.79"/>
</g>
<!-- tso500_samples&#45;&gt;add_sample_type_and_pair_id_to_samplesheet_step -->
<g id="edge46" class="edge">
<title>tso500_samples&#45;&gt;add_sample_type_and_pair_id_to_samplesheet_step</title>
<path fill="none" stroke="black" d="M4258.13,-2752.24C4301.92,-2682.39 4462.45,-2426.33 4514.55,-2343.23"/>
<polygon fill="black" stroke="black" points="4517.6,-2344.97 4519.94,-2334.64 4511.67,-2341.25 4517.6,-2344.97"/>
</g>
<!-- dragen_license_key -->
<g id="node5" class="node">
<title>dragen_license_key</title>
<polygon fill="#94ddf4" stroke="black" points="3867.5,-2752.5 3867.5,-2789.5 4022.5,-2789.5 4022.5,-2752.5 3867.5,-2752.5"/>
<text text-anchor="middle" x="3945" y="-2767.3" font-family="Times,serif" font-size="14.00">dragen_license_key</text>
</g>
<!-- dragen_license_key&#45;&gt;run_tso500_ctdna_analysis_workflow_step -->
<g id="edge47" class="edge">
<title>dragen_license_key&#45;&gt;run_tso500_ctdna_analysis_workflow_step</title>
<path fill="none" stroke="black" d="M3928.57,-2752.23C3795.63,-2608.47 2896.92,-1636.57 2740.27,-1467.16"/>
<polygon fill="black" stroke="black" points="2742.73,-1464.67 2733.37,-1459.71 2737.59,-1469.42 2742.73,-1464.67"/>
</g>
<!-- fastq_list_rows -->
<g id="node6" class="node">
<title>fastq_list_rows</title>
<polygon fill="#94ddf4" stroke="black" points="4040.5,-2752.5 4040.5,-2789.5 4163.5,-2789.5 4163.5,-2752.5 4040.5,-2752.5"/>
<text text-anchor="middle" x="4102" y="-2767.3" font-family="Times,serif" font-size="14.00">fastq_list_rows</text>
</g>
<!-- fastq_list_rows&#45;&gt;run_tso500_ctdna_analysis_workflow_step -->
<g id="edge48" class="edge">
<title>fastq_list_rows&#45;&gt;run_tso500_ctdna_analysis_workflow_step</title>
<path fill="none" stroke="black" d="M4083.73,-2752.48C3934.56,-2609.45 2918.11,-1634.83 2742.74,-1466.68"/>
<polygon fill="black" stroke="black" points="2745.13,-1464.12 2735.48,-1459.72 2740.28,-1469.17 2745.13,-1464.12"/>
</g>
<!-- fastq_list_rows&#45;&gt;run_tso500_ctdna_demultiplex_workflow_step -->
<g id="edge49" class="edge">
<title>fastq_list_rows&#45;&gt;run_tso500_ctdna_demultiplex_workflow_step</title>
<path fill="none" stroke="black" d="M4108.55,-2752.33C4132.27,-2689 4217.19,-2468.12 4310,-2297 4393.93,-2142.26 4516.86,-1970.13 4563.81,-1905.96"/>
<polygon fill="black" stroke="black" points="4566.82,-1907.76 4569.92,-1897.63 4561.18,-1903.62 4566.82,-1907.76"/>
</g>
<!-- resources_dir -->
<g id="node7" class="node">
<title>resources_dir</title>
<polygon fill="#94ddf4" stroke="black" points="4797.5,-2752.5 4797.5,-2789.5 4910.5,-2789.5 4910.5,-2752.5 4797.5,-2752.5"/>
<text text-anchor="middle" x="4854" y="-2767.3" font-family="Times,serif" font-size="14.00">resources_dir</text>
</g>
<!-- resources_dir&#45;&gt;run_tso500_ctdna_reporting_workflow_step -->
<g id="edge50" class="edge">
<title>resources_dir&#45;&gt;run_tso500_ctdna_reporting_workflow_step</title>
<path fill="none" stroke="black" d="M4855.72,-2752.24C4872.2,-2582.18 5001.92,-1243.23 5022.31,-1032.79"/>
<polygon fill="black" stroke="black" points="5025.81,-1032.88 5023.3,-1022.59 5018.85,-1032.21 5025.81,-1032.88"/>
</g>
<!-- resources_dir&#45;&gt;run_tso500_ctdna_analysis_workflow_step -->
<g id="edge51" class="edge">
<title>resources_dir&#45;&gt;run_tso500_ctdna_analysis_workflow_step</title>
<path fill="none" stroke="black" d="M4853.42,-2752.44C4850.26,-2684.7 4830.11,-2437.15 4703,-2297 4182.2,-1722.76 3209.24,-1518.6 2852.55,-1461.12"/>
<polygon fill="black" stroke="black" points="2852.87,-1457.63 2842.44,-1459.5 2851.76,-1464.54 2852.87,-1457.63"/>
</g>
<!-- resources_dir&#45;&gt;run_tso500_ctdna_demultiplex_workflow_step -->
<g id="edge52" class="edge">
<title>resources_dir&#45;&gt;run_tso500_ctdna_demultiplex_workflow_step</title>
<path fill="none" stroke="black" d="M4854.94,-2752.33C4857.77,-2689.02 4863.11,-2468.18 4811,-2297 4762.35,-2137.18 4648.03,-1969.31 4602.35,-1906.1"/>
<polygon fill="black" stroke="black" points="4605.09,-1903.92 4596.38,-1897.89 4599.43,-1908.04 4605.09,-1903.92"/>
</g>
<!-- run_info_xml -->
<g id="node8" class="node">
<title>run_info_xml</title>
<polygon fill="#94ddf4" stroke="black" points="4929,-2752.5 4929,-2789.5 5037,-2789.5 5037,-2752.5 4929,-2752.5"/>
<text text-anchor="middle" x="4983" y="-2767.3" font-family="Times,serif" font-size="14.00">run_info_xml</text>
</g>
<!-- run_info_xml&#45;&gt;run_tso500_ctdna_reporting_workflow_step -->
<g id="edge53" class="edge">
<title>run_info_xml&#45;&gt;run_tso500_ctdna_reporting_workflow_step</title>
<path fill="none" stroke="black" d="M4983.42,-2752.24C4987.47,-2582.18 5019.33,-1243.23 5024.34,-1032.79"/>
<polygon fill="black" stroke="black" points="5027.84,-1032.67 5024.58,-1022.59 5020.84,-1032.51 5027.84,-1032.67"/>
</g>
<!-- run_info_xml&#45;&gt;run_tso500_ctdna_demultiplex_workflow_step -->
<g id="edge54" class="edge">
<title>run_info_xml&#45;&gt;run_tso500_ctdna_demultiplex_workflow_step</title>
<path fill="none" stroke="black" d="M4978.79,-2752.3C4963.4,-2688.88 4907.02,-2467.72 4830,-2297 4759.61,-2140.97 4645.12,-1969.59 4601.06,-1905.79"/>
<polygon fill="black" stroke="black" points="4603.9,-1903.74 4595.33,-1897.52 4598.15,-1907.73 4603.9,-1903.74"/>
</g>
<!-- run_parameters_xml -->
<g id="node9" class="node">
<title>run_parameters_xml</title>
<polygon fill="#94ddf4" stroke="black" points="5055,-2752.5 5055,-2789.5 5219,-2789.5 5219,-2752.5 5055,-2752.5"/>
<text text-anchor="middle" x="5137" y="-2767.3" font-family="Times,serif" font-size="14.00">run_parameters_xml</text>
</g>
<!-- run_parameters_xml&#45;&gt;run_tso500_ctdna_reporting_workflow_step -->
<g id="edge55" class="edge">
<title>run_parameters_xml&#45;&gt;run_tso500_ctdna_reporting_workflow_step</title>
<path fill="none" stroke="black" d="M5135.87,-2752.24C5125.08,-2582.18 5040.12,-1243.23 5026.76,-1032.79"/>
<polygon fill="black" stroke="black" points="5030.24,-1032.35 5026.12,-1022.59 5023.26,-1032.8 5030.24,-1032.35"/>
</g>
<!-- run_parameters_xml&#45;&gt;run_tso500_ctdna_demultiplex_workflow_step -->
<g id="edge56" class="edge">
<title>run_parameters_xml&#45;&gt;run_tso500_ctdna_demultiplex_workflow_step</title>
<path fill="none" stroke="black" d="M5126.58,-2752.27C5089.73,-2689.65 4961.83,-2473.12 4852,-2297 4759.04,-2147.94 4643.5,-1971.77 4600.33,-1906.25"/>
<polygon fill="black" stroke="black" points="4603.16,-1904.18 4594.73,-1897.76 4597.31,-1908.03 4603.16,-1904.18"/>
</g>
<!-- align_collapse_fusion_caller_analysis_dir -->
<g id="node10" class="node">
<title>align_collapse_fusion_caller_analysis_dir</title>
<polygon fill="#94ddf4" stroke="black" points="3424.5,-548.5 3424.5,-585.5 3729.5,-585.5 3729.5,-548.5 3424.5,-548.5"/>
<text text-anchor="middle" x="3577" y="-563.3" font-family="Times,serif" font-size="14.00">align_collapse_fusion_caller_analysis_dir</text>
</g>
<!-- analysis_workflow_output -->
<g id="node11" class="node">
<title>analysis_workflow_output</title>
<polygon fill="#94ddf4" stroke="black" points="16,-548.5 16,-585.5 216,-585.5 216,-548.5 16,-548.5"/>
<text text-anchor="middle" x="116" y="-563.3" font-family="Times,serif" font-size="14.00">analysis_workflow_output</text>
</g>
<!-- annotation_analysis_dir -->
<g id="node12" class="node">
<title>annotation_analysis_dir</title>
<polygon fill="#94ddf4" stroke="black" points="234.5,-548.5 234.5,-585.5 419.5,-585.5 419.5,-548.5 234.5,-548.5"/>
<text text-anchor="middle" x="327" y="-563.3" font-family="Times,serif" font-size="14.00">annotation_analysis_dir</text>
</g>
<!-- cleanup_dir -->
<g id="node13" class="node">
<title>cleanup_dir</title>
<polygon fill="#94ddf4" stroke="black" points="4945.5,-548.5 4945.5,-585.5 5044.5,-585.5 5044.5,-548.5 4945.5,-548.5"/>
<text text-anchor="middle" x="4995" y="-563.3" font-family="Times,serif" font-size="14.00">cleanup_dir</text>
</g>
<!-- cnv_caller_analysis_dir -->
<g id="node14" class="node">
<title>cnv_caller_analysis_dir</title>
<polygon fill="#94ddf4" stroke="black" points="437.5,-548.5 437.5,-585.5 616.5,-585.5 616.5,-548.5 437.5,-548.5"/>
<text text-anchor="middle" x="527" y="-563.3" font-family="Times,serif" font-size="14.00">cnv_caller_analysis_dir</text>
</g>
<!-- combined_variant_output_dir -->
<g id="node15" class="node">
<title>combined_variant_output_dir</title>
<polygon fill="#94ddf4" stroke="black" points="5778,-548.5 5778,-585.5 6002,-585.5 6002,-548.5 5778,-548.5"/>
<text text-anchor="middle" x="5890" y="-563.3" font-family="Times,serif" font-size="14.00">combined_variant_output_dir</text>
</g>
<!-- contamination_analysis_dir -->
<g id="node16" class="node">
<title>contamination_analysis_dir</title>
<polygon fill="#94ddf4" stroke="black" points="635,-548.5 635,-585.5 845,-585.5 845,-548.5 635,-548.5"/>
<text text-anchor="middle" x="740" y="-563.3" font-family="Times,serif" font-size="14.00">contamination_analysis_dir</text>
</g>
<!-- demultiplex_workflow_output -->
<g id="node17" class="node">
<title>demultiplex_workflow_output</title>
<polygon fill="#94ddf4" stroke="black" points="4469.5,-548.5 4469.5,-585.5 4696.5,-585.5 4696.5,-548.5 4469.5,-548.5"/>
<text text-anchor="middle" x="4583" y="-563.3" font-family="Times,serif" font-size="14.00">demultiplex_workflow_output</text>
</g>
<!-- dna_fusion_filtering_analysis_dir -->
<g id="node18" class="node">
<title>dna_fusion_filtering_analysis_dir</title>
<polygon fill="#94ddf4" stroke="black" points="863,-548.5 863,-585.5 1111,-585.5 1111,-548.5 863,-548.5"/>
<text text-anchor="middle" x="987" y="-563.3" font-family="Times,serif" font-size="14.00">dna_fusion_filtering_analysis_dir</text>
</g>
<!-- dna_qc_metrics_analysis_dir -->
<g id="node19" class="node">
<title>dna_qc_metrics_analysis_dir</title>
<polygon fill="#94ddf4" stroke="black" points="1129,-548.5 1129,-585.5 1347,-585.5 1347,-548.5 1129,-548.5"/>
<text text-anchor="middle" x="1238" y="-563.3" font-family="Times,serif" font-size="14.00">dna_qc_metrics_analysis_dir</text>
</g>
<!-- fastq_validation_demux_dir -->
<g id="node20" class="node">
<title>fastq_validation_demux_dir</title>
<polygon fill="#94ddf4" stroke="black" points="4715,-548.5 4715,-585.5 4927,-585.5 4927,-548.5 4715,-548.5"/>
<text text-anchor="middle" x="4821" y="-563.3" font-family="Times,serif" font-size="14.00">fastq_validation_demux_dir</text>
</g>
<!-- max_somatic_vaf_analysis_dir -->
<g id="node21" class="node">
<title>max_somatic_vaf_analysis_dir</title>
<polygon fill="#94ddf4" stroke="black" points="1365.5,-548.5 1365.5,-585.5 1594.5,-585.5 1594.5,-548.5 1365.5,-548.5"/>
<text text-anchor="middle" x="1480" y="-563.3" font-family="Times,serif" font-size="14.00">max_somatic_vaf_analysis_dir</text>
</g>
<!-- merged_annotation_analysis_dir -->
<g id="node22" class="node">
<title>merged_annotation_analysis_dir</title>
<polygon fill="#94ddf4" stroke="black" points="1613,-548.5 1613,-585.5 1859,-585.5 1859,-548.5 1613,-548.5"/>
<text text-anchor="middle" x="1736" y="-563.3" font-family="Times,serif" font-size="14.00">merged_annotation_analysis_dir</text>
</g>
<!-- metrics_output_dir -->
<g id="node23" class="node">
<title>metrics_output_dir</title>
<polygon fill="#94ddf4" stroke="black" points="5608,-548.5 5608,-585.5 5760,-585.5 5760,-548.5 5608,-548.5"/>
<text text-anchor="middle" x="5684" y="-563.3" font-family="Times,serif" font-size="14.00">metrics_output_dir</text>
</g>
<!-- msi_analysis_dir -->
<g id="node24" class="node">
<title>msi_analysis_dir</title>
<polygon fill="#94ddf4" stroke="black" points="1877,-548.5 1877,-585.5 2011,-585.5 2011,-548.5 1877,-548.5"/>
<text text-anchor="middle" x="1944" y="-563.3" font-family="Times,serif" font-size="14.00">msi_analysis_dir</text>
</g>
<!-- outputs_by_sample -->
<g id="node25" class="node">
<title>outputs_by_sample</title>
<polygon fill="#94ddf4" stroke="black" points="3747.5,-548.5 3747.5,-585.5 3900.5,-585.5 3900.5,-548.5 3747.5,-548.5"/>
<text text-anchor="middle" x="3824" y="-563.3" font-family="Times,serif" font-size="14.00">outputs_by_sample</text>
</g>
<!-- phased_variants_analysis_dir -->
<g id="node26" class="node">
<title>phased_variants_analysis_dir</title>
<polygon fill="#94ddf4" stroke="black" points="2029,-548.5 2029,-585.5 2253,-585.5 2253,-548.5 2029,-548.5"/>
<text text-anchor="middle" x="2141" y="-563.3" font-family="Times,serif" font-size="14.00">phased_variants_analysis_dir</text>
</g>
<!-- reporting_workflow_output -->
<g id="node27" class="node">
<title>reporting_workflow_output</title>
<polygon fill="#94ddf4" stroke="black" points="5380.5,-548.5 5380.5,-585.5 5589.5,-585.5 5589.5,-548.5 5380.5,-548.5"/>
<text text-anchor="middle" x="5485" y="-563.3" font-family="Times,serif" font-size="14.00">reporting_workflow_output</text>
</g>
<!-- resource_verification_demux_dir -->
<g id="node28" class="node">
<title>resource_verification_demux_dir</title>
<polygon fill="#94ddf4" stroke="black" points="3919,-548.5 3919,-585.5 4167,-585.5 4167,-548.5 3919,-548.5"/>
<text text-anchor="middle" x="4043" y="-563.3" font-family="Times,serif" font-size="14.00">resource_verification_demux_dir</text>
</g>
<!-- results -->
<g id="node29" class="node">
<title>results</title>
<polygon fill="#94ddf4" stroke="black" points="5296,-548.5 5296,-585.5 5362,-585.5 5362,-548.5 5296,-548.5"/>
<text text-anchor="middle" x="5329" y="-563.3" font-family="Times,serif" font-size="14.00">results</text>
</g>
<!-- sample_analysis_results_dir -->
<g id="node30" class="node">
<title>sample_analysis_results_dir</title>
<polygon fill="#94ddf4" stroke="black" points="5062.5,-548.5 5062.5,-585.5 5277.5,-585.5 5277.5,-548.5 5062.5,-548.5"/>
<text text-anchor="middle" x="5170" y="-563.3" font-family="Times,serif" font-size="14.00">sample_analysis_results_dir</text>
</g>
<!-- samplesheet_validation_demux_dir -->
<g id="node31" class="node">
<title>samplesheet_validation_demux_dir</title>
<polygon fill="#94ddf4" stroke="black" points="4185,-548.5 4185,-585.5 4451,-585.5 4451,-548.5 4185,-548.5"/>
<text text-anchor="middle" x="4318" y="-563.3" font-family="Times,serif" font-size="14.00">samplesheet_validation_demux_dir</text>
</g>
<!-- small_variant_filter_analysis_dir -->
<g id="node32" class="node">
<title>small_variant_filter_analysis_dir</title>
<polygon fill="#94ddf4" stroke="black" points="2271.5,-548.5 2271.5,-585.5 2516.5,-585.5 2516.5,-548.5 2271.5,-548.5"/>
<text text-anchor="middle" x="2394" y="-563.3" font-family="Times,serif" font-size="14.00">small_variant_filter_analysis_dir</text>
</g>
<!-- stitched_realigned_analysis_dir -->
<g id="node33" class="node">
<title>stitched_realigned_analysis_dir</title>
<polygon fill="#94ddf4" stroke="black" points="2535,-548.5 2535,-585.5 2775,-585.5 2775,-548.5 2535,-548.5"/>
<text text-anchor="middle" x="2655" y="-563.3" font-family="Times,serif" font-size="14.00">stitched_realigned_analysis_dir</text>
</g>
<!-- tmb_analysis_dir -->
<g id="node34" class="node">
<title>tmb_analysis_dir</title>
<polygon fill="#94ddf4" stroke="black" points="2793.5,-548.5 2793.5,-585.5 2930.5,-585.5 2930.5,-548.5 2793.5,-548.5"/>
<text text-anchor="middle" x="2862" y="-563.3" font-family="Times,serif" font-size="14.00">tmb_analysis_dir</text>
</g>
<!-- variant_caller_analysis_dir -->
<g id="node35" class="node">
<title>variant_caller_analysis_dir</title>
<polygon fill="#94ddf4" stroke="black" points="2949,-548.5 2949,-585.5 3155,-585.5 3155,-548.5 2949,-548.5"/>
<text text-anchor="middle" x="3052" y="-563.3" font-family="Times,serif" font-size="14.00">variant_caller_analysis_dir</text>
</g>
<!-- variant_matching_analysis_dir -->
<g id="node36" class="node">
<title>variant_matching_analysis_dir</title>
<polygon fill="#94ddf4" stroke="black" points="3173.5,-548.5 3173.5,-585.5 3406.5,-585.5 3406.5,-548.5 3173.5,-548.5"/>
<text text-anchor="middle" x="3290" y="-563.3" font-family="Times,serif" font-size="14.00">variant_matching_analysis_dir</text>
</g>
<!-- validate_dsdm_json -->
<g id="node37" class="node">
<title>validate_dsdm_json</title>
<polygon fill="lightgoldenrodyellow" stroke="black" points="6020,-548.5 6020,-585.5 6230,-585.5 6230,-548.5 6020,-548.5"/>
<text text-anchor="middle" x="6125" y="-563.3" font-family="Times,serif" font-size="14.00">validate&#45;dsdm&#45;json v(1.0.0)</text>
</g>
<!-- assert_all_samples_passing -->
<g id="node38" class="node">
<title>assert_all_samples_passing</title>
<polygon fill="lightgoldenrodyellow" stroke="black" points="6047.5,-93.5 6047.5,-130.5 6202.5,-130.5 6202.5,-93.5 6047.5,-93.5"/>
<text text-anchor="middle" x="6125" y="-108.3" font-family="Times,serif" font-size="14.00">assert&#45;true v(1.0.0)</text>
</g>
<!-- validate_dsdm_json&#45;&gt;assert_all_samples_passing -->
<g id="edge1" class="edge">
<title>validate_dsdm_json&#45;&gt;assert_all_samples_passing</title>
<path fill="none" stroke="black" d="M6125,-548.24C6125,-478.82 6125,-225.44 6125,-140.77"/>
<polygon fill="black" stroke="black" points="6128.5,-140.64 6125,-130.64 6121.5,-140.64 6128.5,-140.64"/>
</g>
<!-- run_tso500_ctdna_reporting_workflow_step&#45;&gt;cleanup_dir -->
<g id="edge5" class="edge">
<title>run_tso500_ctdna_reporting_workflow_step&#45;&gt;cleanup_dir</title>
<path fill="none" stroke="black" d="M5023.79,-985.41C5019.16,-918.32 5002.6,-678.21 4996.92,-595.91"/>
<polygon fill="black" stroke="black" points="5000.41,-595.55 4996.23,-585.81 4993.42,-596.03 5000.41,-595.55"/>
</g>
<!-- run_tso500_ctdna_reporting_workflow_step&#45;&gt;combined_variant_output_dir -->
<g id="edge6" class="edge">
<title>run_tso500_ctdna_reporting_workflow_step&#45;&gt;combined_variant_output_dir</title>
<path fill="none" stroke="black" d="M5059.98,-985.41C5196.66,-916.67 5694.58,-666.28 5846.01,-590.12"/>
<polygon fill="black" stroke="black" points="5847.7,-593.19 5855.06,-585.57 5844.55,-586.94 5847.7,-593.19"/>
</g>
<!-- run_tso500_ctdna_reporting_workflow_step&#45;&gt;metrics_output_dir -->
<g id="edge7" class="edge">
<title>run_tso500_ctdna_reporting_workflow_step&#45;&gt;metrics_output_dir</title>
<path fill="none" stroke="black" d="M5051.65,-985.41C5155.26,-917.01 5531.34,-668.77 5648.74,-591.27"/>
<polygon fill="black" stroke="black" points="5650.96,-594 5657.38,-585.57 5647.11,-588.16 5650.96,-594"/>
</g>
<!-- run_tso500_ctdna_reporting_workflow_step&#45;&gt;reporting_workflow_output -->
<g id="edge8" class="edge">
<title>run_tso500_ctdna_reporting_workflow_step&#45;&gt;reporting_workflow_output</title>
<path fill="none" stroke="black" d="M5043.6,-985.41C5115.49,-917.43 5375.29,-671.75 5458.89,-592.69"/>
<polygon fill="black" stroke="black" points="5461.56,-594.99 5466.42,-585.57 5456.75,-589.9 5461.56,-594.99"/>
</g>
<!-- run_tso500_ctdna_reporting_workflow_step&#45;&gt;results -->
<g id="edge9" class="edge">
<title>run_tso500_ctdna_reporting_workflow_step&#45;&gt;results</title>
<path fill="none" stroke="black" d="M5037.29,-985.41C5084.46,-917.91 5254.04,-675.26 5310.54,-594.42"/>
<polygon fill="black" stroke="black" points="5313.69,-596.01 5316.55,-585.81 5307.96,-592 5313.69,-596.01"/>
</g>
<!-- run_tso500_ctdna_reporting_workflow_step&#45;&gt;sample_analysis_results_dir -->
<g id="edge10" class="edge">
<title>run_tso500_ctdna_reporting_workflow_step&#45;&gt;sample_analysis_results_dir</title>
<path fill="none" stroke="black" d="M5030.86,-985.41C5053.27,-918.19 5133.59,-677.23 5160.86,-595.41"/>
<polygon fill="black" stroke="black" points="5164.22,-596.4 5164.06,-585.81 5157.58,-594.19 5164.22,-596.4"/>
</g>
<!-- run_tso500_ctdna_reporting_workflow_step&#45;&gt;validate_dsdm_json -->
<g id="edge2" class="edge">
<title>run_tso500_ctdna_reporting_workflow_step&#45;&gt;validate_dsdm_json</title>
<path fill="none" stroke="black" d="M5069.48,-985.41C5243.91,-916.43 5880.91,-664.53 6071.06,-589.33"/>
<polygon fill="black" stroke="black" points="6072.56,-592.5 6080.57,-585.57 6069.98,-585.99 6072.56,-592.5"/>
</g>
<!-- run_tso500_ctdna_reporting_workflow_step&#45;&gt;get_cttso_outputs_by_sample -->
<g id="edge3" class="edge">
<title>run_tso500_ctdna_reporting_workflow_step&#45;&gt;get_cttso_outputs_by_sample</title>
<path fill="none" stroke="black" d="M5077.57,-985.41C5290.62,-916.19 6089.26,-662.77 6328.14,-588.55"/>
<polygon fill="black" stroke="black" points="6329.24,-591.88 6337.75,-585.57 6327.16,-585.19 6329.24,-591.88"/>
</g>
<!-- run_tso500_ctdna_reporting_workflow_step&#45;&gt;get_cttso_outputs_by_sample -->
<g id="edge4" class="edge">
<title>run_tso500_ctdna_reporting_workflow_step&#45;&gt;get_cttso_outputs_by_sample</title>
<path fill="none" stroke="black" d="M5083.32,-985.41C5306.45,-916.23 6104.56,-663.02 6333.96,-588.66"/>
<polygon fill="black" stroke="black" points="6335.06,-591.99 6343.49,-585.57 6332.9,-585.33 6335.06,-591.99"/>
</g>
<!-- get_cttso_outputs_by_sample&#45;&gt;outputs_by_sample -->
<g id="edge11" class="edge">
<title>get_cttso_outputs_by_sample&#45;&gt;outputs_by_sample</title>
<path fill="none" stroke="black" d="M6388.98,-585.69C6370.85,-630.87 6317.67,-745.53 6230,-789.5 5770.95,-1019.75 4347.55,-1072.5 3919,-789.5 3852.71,-745.73 3832.52,-645.2 3826.49,-595.66"/>
<polygon fill="black" stroke="black" points="3829.96,-595.17 3825.38,-585.62 3823,-595.94 3829.96,-595.17"/>
</g>
<!-- run_tso500_ctdna_analysis_workflow_step&#45;&gt;align_collapse_fusion_caller_analysis_dir -->
<g id="edge15" class="edge">
<title>run_tso500_ctdna_analysis_workflow_step&#45;&gt;align_collapse_fusion_caller_analysis_dir</title>
<path fill="none" stroke="black" d="M2734.57,-1422.19C2843.41,-1311.83 3425.17,-721.95 3552.4,-592.94"/>
<polygon fill="black" stroke="black" points="3554.93,-595.36 3559.46,-585.79 3549.95,-590.45 3554.93,-595.36"/>
</g>
<!-- run_tso500_ctdna_analysis_workflow_step&#45;&gt;analysis_workflow_output -->
<g id="edge16" class="edge">
<title>run_tso500_ctdna_analysis_workflow_step&#45;&gt;analysis_workflow_output</title>
<path fill="none" stroke="black" d="M2664.75,-1422.48C2334.21,-1311.67 535.98,-708.8 178,-588.78"/>
<polygon fill="black" stroke="black" points="178.92,-585.4 168.32,-585.54 176.69,-592.04 178.92,-585.4"/>
</g>
<!-- run_tso500_ctdna_analysis_workflow_step&#45;&gt;annotation_analysis_dir -->
<g id="edge17" class="edge">
<title>run_tso500_ctdna_analysis_workflow_step&#45;&gt;annotation_analysis_dir</title>
<path fill="none" stroke="black" d="M2668.99,-1422.48C2365.5,-1311.75 715.42,-709.72 384.72,-589.06"/>
<polygon fill="black" stroke="black" points="385.92,-585.77 375.33,-585.63 383.52,-592.35 385.92,-585.77"/>
</g>
<!-- run_tso500_ctdna_analysis_workflow_step&#45;&gt;cnv_caller_analysis_dir -->
<g id="edge18" class="edge">
<title>run_tso500_ctdna_analysis_workflow_step&#45;&gt;cnv_caller_analysis_dir</title>
<path fill="none" stroke="black" d="M2672.76,-1422.38C2394.28,-1311.5 885.72,-710.83 580.76,-589.41"/>
<polygon fill="black" stroke="black" points="581.84,-586.07 571.26,-585.62 579.25,-592.57 581.84,-586.07"/>
</g>
<!-- run_tso500_ctdna_analysis_workflow_step&#45;&gt;contamination_analysis_dir -->
<g id="edge19" class="edge">
<title>run_tso500_ctdna_analysis_workflow_step&#45;&gt;contamination_analysis_dir</title>
<path fill="none" stroke="black" d="M2677.06,-1422.38C2425.92,-1311.61 1066.52,-712.02 789.35,-589.77"/>
<polygon fill="black" stroke="black" points="790.52,-586.46 779.95,-585.62 787.69,-592.86 790.52,-586.46"/>
</g>
<!-- run_tso500_ctdna_analysis_workflow_step&#45;&gt;dna_fusion_filtering_analysis_dir -->
<g id="edge20" class="edge">
<title>run_tso500_ctdna_analysis_workflow_step&#45;&gt;dna_fusion_filtering_analysis_dir</title>
<path fill="none" stroke="black" d="M2682.05,-1422.38C2462.5,-1311.72 1275.07,-713.2 1030.91,-590.13"/>
<polygon fill="black" stroke="black" points="1032.47,-587 1021.96,-585.62 1029.32,-593.25 1032.47,-587"/>
</g>
<!-- run_tso500_ctdna_analysis_workflow_step&#45;&gt;dna_qc_metrics_analysis_dir -->
<g id="edge21" class="edge">
<title>run_tso500_ctdna_analysis_workflow_step&#45;&gt;dna_qc_metrics_analysis_dir</title>
<path fill="none" stroke="black" d="M2687.12,-1422.38C2499.8,-1311.94 1488.29,-715.57 1276.79,-590.87"/>
<polygon fill="black" stroke="black" points="1278.28,-587.69 1267.89,-585.62 1274.73,-593.72 1278.28,-587.69"/>
</g>
<!-- run_tso500_ctdna_analysis_workflow_step&#45;&gt;max_somatic_vaf_analysis_dir -->
<g id="edge22" class="edge">
<title>run_tso500_ctdna_analysis_workflow_step&#45;&gt;max_somatic_vaf_analysis_dir</title>
<path fill="none" stroke="black" d="M2692.01,-1422.38C2535.57,-1312.1 1691.85,-717.34 1513.23,-591.43"/>
<polygon fill="black" stroke="black" points="1515.19,-588.52 1505,-585.62 1511.16,-594.24 1515.19,-588.52"/>
</g>
<!-- run_tso500_ctdna_analysis_workflow_step&#45;&gt;merged_annotation_analysis_dir -->
<g id="edge23" class="edge">
<title>run_tso500_ctdna_analysis_workflow_step&#45;&gt;merged_annotation_analysis_dir</title>
<path fill="none" stroke="black" d="M2696.96,-1422.19C2572.69,-1311.72 1907.87,-720.77 1763.62,-592.55"/>
<polygon fill="black" stroke="black" points="1765.81,-589.81 1756.01,-585.79 1761.16,-595.04 1765.81,-589.81"/>
</g>
<!-- run_tso500_ctdna_analysis_workflow_step&#45;&gt;msi_analysis_dir -->
<g id="edge24" class="edge">
<title>run_tso500_ctdna_analysis_workflow_step&#45;&gt;msi_analysis_dir</title>
<path fill="none" stroke="black" d="M2701.21,-1422.19C2603.48,-1311.94 2081.51,-723.12 1966.45,-593.33"/>
<polygon fill="black" stroke="black" points="1969.02,-590.95 1959.77,-585.79 1963.78,-595.59 1969.02,-590.95"/>
</g>
<!-- run_tso500_ctdna_analysis_workflow_step&#45;&gt;phased_variants_analysis_dir -->
<g id="edge25" class="edge">
<title>run_tso500_ctdna_analysis_workflow_step&#45;&gt;phased_variants_analysis_dir</title>
<path fill="none" stroke="black" d="M2705.23,-1422.19C2632.63,-1312.27 2245.79,-726.64 2158.51,-594.5"/>
<polygon fill="black" stroke="black" points="2161.18,-592.2 2152.75,-585.79 2155.34,-596.06 2161.18,-592.2"/>
</g>
<!-- run_tso500_ctdna_analysis_workflow_step&#45;&gt;small_variant_filter_analysis_dir -->
<g id="edge26" class="edge">
<title>run_tso500_ctdna_analysis_workflow_step&#45;&gt;small_variant_filter_analysis_dir</title>
<path fill="none" stroke="black" d="M2710.4,-1422.19C2669.77,-1312.49 2453.63,-728.98 2404.11,-595.3"/>
<polygon fill="black" stroke="black" points="2407.34,-593.95 2400.59,-585.79 2400.78,-596.38 2407.34,-593.95"/>
</g>
<!-- run_tso500_ctdna_analysis_workflow_step&#45;&gt;stitched_realigned_analysis_dir -->
<g id="edge27" class="edge">
<title>run_tso500_ctdna_analysis_workflow_step&#45;&gt;stitched_realigned_analysis_dir</title>
<path fill="none" stroke="black" d="M2715.73,-1422.19C2707.95,-1312.71 2666.61,-731.32 2657,-596.11"/>
<polygon fill="black" stroke="black" points="2660.47,-595.51 2656.26,-585.79 2653.48,-596.01 2660.47,-595.51"/>
</g>
<!-- run_tso500_ctdna_analysis_workflow_step&#45;&gt;tmb_analysis_dir -->
<g id="edge28" class="edge">
<title>run_tso500_ctdna_analysis_workflow_step&#45;&gt;tmb_analysis_dir</title>
<path fill="none" stroke="black" d="M2719.96,-1422.19C2738.18,-1312.6 2835.04,-730.15 2857.39,-595.7"/>
<polygon fill="black" stroke="black" points="2860.85,-596.22 2859.04,-585.79 2853.95,-595.08 2860.85,-596.22"/>
</g>
<!-- run_tso500_ctdna_analysis_workflow_step&#45;&gt;variant_caller_analysis_dir -->
<g id="edge29" class="edge">
<title>run_tso500_ctdna_analysis_workflow_step&#45;&gt;variant_caller_analysis_dir</title>
<path fill="none" stroke="black" d="M2723.84,-1422.19C2765.99,-1312.49 2990.16,-728.98 3041.51,-595.3"/>
<polygon fill="black" stroke="black" points="3044.85,-596.38 3045.17,-585.79 3038.31,-593.87 3044.85,-596.38"/>
</g>
<!-- run_tso500_ctdna_analysis_workflow_step&#45;&gt;variant_matching_analysis_dir -->
<g id="edge30" class="edge">
<title>run_tso500_ctdna_analysis_workflow_step&#45;&gt;variant_matching_analysis_dir</title>
<path fill="none" stroke="black" d="M2728.71,-1422.19C2800.93,-1312.27 3185.76,-726.64 3272.58,-594.5"/>
<polygon fill="black" stroke="black" points="3275.75,-596.06 3278.31,-585.79 3269.9,-592.22 3275.75,-596.06"/>
</g>
<!-- run_tso500_ctdna_analysis_workflow_step&#45;&gt;run_tso500_ctdna_reporting_workflow_step -->
<g id="edge12" class="edge">
<title>run_tso500_ctdna_analysis_workflow_step&#45;&gt;run_tso500_ctdna_reporting_workflow_step</title>
<path fill="none" stroke="black" d="M2807.11,-1422.48C3170.69,-1352.98 4528.64,-1097.03 4919.29,-1024.36"/>
<polygon fill="black" stroke="black" points="4919.98,-1027.79 4929.17,-1022.52 4918.7,-1020.91 4919.98,-1027.79"/>
</g>
<!-- run_tso500_ctdna_analysis_workflow_step&#45;&gt;run_tso500_ctdna_reporting_workflow_step -->
<g id="edge13" class="edge">
<title>run_tso500_ctdna_analysis_workflow_step&#45;&gt;run_tso500_ctdna_reporting_workflow_step</title>
<path fill="none" stroke="black" d="M2812.84,-1422.48C3186.6,-1353 4544.06,-1097.16 4925.01,-1024.41"/>
<polygon fill="black" stroke="black" points="4925.74,-1027.84 4934.91,-1022.52 4924.43,-1020.96 4925.74,-1027.84"/>
</g>
<!-- run_tso500_ctdna_analysis_workflow_step&#45;&gt;get_cttso_outputs_by_sample -->
<g id="edge14" class="edge">
<title>run_tso500_ctdna_analysis_workflow_step&#45;&gt;get_cttso_outputs_by_sample</title>
<path fill="none" stroke="black" d="M2883.24,-1424.18C3370.7,-1375.92 4788.29,-1221.68 5205,-1023 5228.02,-1012.02 5226.07,-998.03 5248,-985 5613.05,-768.12 6109.41,-635.39 6308.3,-587.86"/>
<polygon fill="black" stroke="black" points="6309.2,-591.25 6318.12,-585.53 6307.58,-584.44 6309.2,-591.25"/>
</g>
<!-- run_tso500_ctdna_demultiplex_workflow_step&#45;&gt;demultiplex_workflow_output -->
<g id="edge33" class="edge">
<title>run_tso500_ctdna_demultiplex_workflow_step&#45;&gt;demultiplex_workflow_output</title>
<path fill="none" stroke="black" d="M4583,-1860.47C4583,-1719.58 4583,-772.37 4583,-596.18"/>
<polygon fill="black" stroke="black" points="4586.5,-595.92 4583,-585.92 4579.5,-595.92 4586.5,-595.92"/>
</g>
<!-- run_tso500_ctdna_demultiplex_workflow_step&#45;&gt;fastq_validation_demux_dir -->
<g id="edge34" class="edge">
<title>run_tso500_ctdna_demultiplex_workflow_step&#45;&gt;fastq_validation_demux_dir</title>
<path fill="none" stroke="black" d="M4586.18,-1860.47C4611.79,-1719.51 4784.04,-771.42 4815.93,-595.92"/>
<polygon fill="black" stroke="black" points="4819.4,-596.39 4817.74,-585.92 4812.51,-595.14 4819.4,-596.39"/>
</g>
<!-- run_tso500_ctdna_demultiplex_workflow_step&#45;&gt;resource_verification_demux_dir -->
<g id="edge35" class="edge">
<title>run_tso500_ctdna_demultiplex_workflow_step&#45;&gt;resource_verification_demux_dir</title>
<path fill="none" stroke="black" d="M4575.77,-1860.47C4517.61,-1719.37 4126.07,-769.53 4054.29,-595.39"/>
<polygon fill="black" stroke="black" points="4057.44,-593.83 4050.39,-585.92 4050.96,-596.5 4057.44,-593.83"/>
</g>
<!-- run_tso500_ctdna_demultiplex_workflow_step&#45;&gt;samplesheet_validation_demux_dir -->
<g id="edge36" class="edge">
<title>run_tso500_ctdna_demultiplex_workflow_step&#45;&gt;samplesheet_validation_demux_dir</title>
<path fill="none" stroke="black" d="M4579.45,-1860.47C4550.94,-1719.51 4359.15,-771.42 4323.65,-595.92"/>
<polygon fill="black" stroke="black" points="4327.04,-595.03 4321.63,-585.92 4320.18,-596.42 4327.04,-595.03"/>
</g>
<!-- run_tso500_ctdna_demultiplex_workflow_step&#45;&gt;run_tso500_ctdna_reporting_workflow_step -->
<g id="edge31" class="edge">
<title>run_tso500_ctdna_demultiplex_workflow_step&#45;&gt;run_tso500_ctdna_reporting_workflow_step</title>
<path fill="none" stroke="black" d="M4589.51,-1860.21C4612.36,-1798.38 4692.01,-1587.61 4776,-1422 4853.58,-1269.01 4965.1,-1095.84 5007.63,-1031.18"/>
<polygon fill="black" stroke="black" points="5010.58,-1033.06 5013.16,-1022.78 5004.73,-1029.21 5010.58,-1033.06"/>
</g>
<!-- run_tso500_ctdna_demultiplex_workflow_step&#45;&gt;run_tso500_ctdna_analysis_workflow_step -->
<g id="edge32" class="edge">
<title>run_tso500_ctdna_demultiplex_workflow_step&#45;&gt;run_tso500_ctdna_analysis_workflow_step</title>
<path fill="none" stroke="black" d="M4507.83,-1860.44C4210.3,-1790.92 3116.04,-1535.24 2801.86,-1461.83"/>
<polygon fill="black" stroke="black" points="2802.44,-1458.37 2791.9,-1459.5 2800.84,-1465.19 2802.44,-1458.37"/>
</g>
<!-- add_sample_type_and_pair_id_to_samplesheet_step&#45;&gt;run_tso500_ctdna_demultiplex_workflow_step -->
<g id="edge37" class="edge">
<title>add_sample_type_and_pair_id_to_samplesheet_step&#45;&gt;run_tso500_ctdna_demultiplex_workflow_step</title>
<path fill="none" stroke="black" d="M4533.1,-2297.41C4541.12,-2230.32 4569.83,-1990.21 4579.66,-1907.91"/>
<polygon fill="black" stroke="black" points="4583.16,-1908.15 4580.87,-1897.81 4576.21,-1907.32 4583.16,-1908.15"/>
</g>
<!-- \n -->
<g id="node44" class="node">
<title>\n</title>
<ellipse fill="none" stroke="black" cx="5264" cy="-2771" rx="27" ry="18"/>
</g>
</g>
</svg>
