<?xml version="1.0" encoding="UTF-8" standalone="no"?>
<!DOCTYPE svg PUBLIC "-//W3C//DTD SVG 1.1//EN"
 "http://www.w3.org/Graphics/SVG/1.1/DTD/svg11.dtd">
<!-- Generated by graphviz version 2.43.0 (0)
 -->
<!-- Title: G Pages: 1 -->
<svg width="6324pt" height="3046pt"
 viewBox="0.00 0.00 6324.00 3046.00" xmlns="http://www.w3.org/2000/svg" xmlns:xlink="http://www.w3.org/1999/xlink">
<g id="graph0" class="graph" transform="scale(1 1) rotate(0) translate(4 3042)">
<title>G</title>
<polygon fill="#eeeeee" stroke="transparent" points="-4,4 -4,-3042 6320,-3042 6320,4 -4,4"/>
<g id="clust1" class="cluster">
<title>cluster_inputs</title>
<polygon fill="#eeeeee" stroke="black" stroke-dasharray="5,2" points="3052,-2483.23 3052,-2985.16 4251,-2985.16 4251,-2483.23 3052,-2483.23"/>
<text text-anchor="middle" x="4184.5" y="-2491.03" font-family="Times,serif" font-size="14.00">Workflow Inputs</text>
</g>
<g id="clust2" class="cluster">
<title>cluster_outputs</title>
<polygon fill="#eeeeee" stroke="black" stroke-dasharray="5,2" points="8,-52.83 8,-554.76 6010,-554.76 6010,-52.83 8,-52.83"/>
<text text-anchor="middle" x="5937.5" y="-60.63" font-family="Times,serif" font-size="14.00">Workflow Outputs</text>
</g>
<!-- file:///tmp/tmp_wks0p81#run_tso500_ctdna_demultiplex_workflow_step -->
<g id="node1" class="node">
<title>file:///tmp/tmp_wks0p81#run_tso500_ctdna_demultiplex_workflow_step</title>
<polygon fill="lightgoldenrodyellow" stroke="black" points="3185,-1807.83 3185,-1843.83 3543,-1843.83 3543,-1807.83 3185,-1807.83"/>
<text text-anchor="middle" x="3364" y="-1822.13" font-family="Times,serif" font-size="14.00">tso500&#45;ctdna&#45;demultiplex&#45;workflow v(1.1.0.120)</text>
</g>
<!-- file:///tmp/tmp_wks0p81#run_tso500_ctdna_analysis_workflow_step -->
<g id="node2" class="node">
<title>file:///tmp/tmp_wks0p81#run_tso500_ctdna_analysis_workflow_step</title>
<polygon fill="lightgoldenrodyellow" stroke="black" points="3405,-1325.83 3405,-1361.83 3737,-1361.83 3737,-1325.83 3405,-1325.83"/>
<text text-anchor="middle" x="3571" y="-1340.13" font-family="Times,serif" font-size="14.00">tso500&#45;ctdna&#45;analysis&#45;workflow v(1.1.0.120)</text>
</g>
<!-- file:///tmp/tmp_wks0p81#run_tso500_ctdna_demultiplex_workflow_step&#45;&gt;file:///tmp/tmp_wks0p81#run_tso500_ctdna_analysis_workflow_step -->
<g id="edge1" class="edge">
<title>file:///tmp/tmp_wks0p81#run_tso500_ctdna_demultiplex_workflow_step&#45;&gt;file:///tmp/tmp_wks0p81#run_tso500_ctdna_analysis_workflow_step</title>
<path fill="none" stroke="black" d="M3371.37,-1807.75C3402.33,-1735.95 3522.06,-1458.33 3559.64,-1371.17"/>
<polygon fill="black" stroke="black" points="3562.87,-1372.53 3563.61,-1361.96 3556.44,-1369.76 3562.87,-1372.53"/>
</g>
<!-- file:///tmp/tmp_wks0p81#run_tso500_ctdna_reporting_workflow_step -->
<g id="node4" class="node">
<title>file:///tmp/tmp_wks0p81#run_tso500_ctdna_reporting_workflow_step</title>
<polygon fill="lightgoldenrodyellow" stroke="black" points="4710.5,-843.83 4710.5,-879.83 5051.5,-879.83 5051.5,-843.83 4710.5,-843.83"/>
<text text-anchor="middle" x="4881" y="-858.13" font-family="Times,serif" font-size="14.00">tso500&#45;ctdna&#45;reporting&#45;workflow v(1.1.0.120)</text>
</g>
<!-- file:///tmp/tmp_wks0p81#run_tso500_ctdna_demultiplex_workflow_step&#45;&gt;file:///tmp/tmp_wks0p81#run_tso500_ctdna_reporting_workflow_step -->
<g id="edge6" class="edge">
<title>file:///tmp/tmp_wks0p81#run_tso500_ctdna_demultiplex_workflow_step&#45;&gt;file:///tmp/tmp_wks0p81#run_tso500_ctdna_reporting_workflow_step</title>
<path fill="none" stroke="black" d="M3390.97,-1807.73C3574.38,-1691.42 4637.17,-1017.46 4845.55,-885.31"/>
<polygon fill="black" stroke="black" points="4847.43,-888.27 4854,-879.96 4843.68,-882.36 4847.43,-888.27"/>
</g>
<!-- file:///tmp/tmp_wks0p81#fastq_validation_demux_dir -->
<g id="node17" class="node">
<title>file:///tmp/tmp_wks0p81#fastq_validation_demux_dir</title>
<polygon fill="#94ddf4" stroke="black" points="812,-361.83 812,-397.83 1024,-397.83 1024,-361.83 812,-361.83"/>
<text text-anchor="middle" x="918" y="-376.13" font-family="Times,serif" font-size="14.00">fastq_validation_demux_dir</text>
</g>
<!-- file:///tmp/tmp_wks0p81#run_tso500_ctdna_demultiplex_workflow_step&#45;&gt;file:///tmp/tmp_wks0p81#fastq_validation_demux_dir -->
<g id="edge30" class="edge">
<title>file:///tmp/tmp_wks0p81#run_tso500_ctdna_demultiplex_workflow_step&#45;&gt;file:///tmp/tmp_wks0p81#fastq_validation_demux_dir</title>
<path fill="none" stroke="black" d="M3334.83,-1807.61C3080.62,-1657.54 1244.02,-573.3 955.97,-403.25"/>
<polygon fill="black" stroke="black" points="957.53,-400.1 947.14,-398.04 953.97,-406.13 957.53,-400.1"/>
</g>
<!-- file:///tmp/tmp_wks0p81#samplesheet_validation_demux_dir -->
<g id="node18" class="node">
<title>file:///tmp/tmp_wks0p81#samplesheet_validation_demux_dir</title>
<polygon fill="#94ddf4" stroke="black" points="16,-361.83 16,-397.83 282,-397.83 282,-361.83 16,-361.83"/>
<text text-anchor="middle" x="149" y="-376.13" font-family="Times,serif" font-size="14.00">samplesheet_validation_demux_dir</text>
</g>
<!-- file:///tmp/tmp_wks0p81#run_tso500_ctdna_demultiplex_workflow_step&#45;&gt;file:///tmp/tmp_wks0p81#samplesheet_validation_demux_dir -->
<g id="edge31" class="edge">
<title>file:///tmp/tmp_wks0p81#run_tso500_ctdna_demultiplex_workflow_step&#45;&gt;file:///tmp/tmp_wks0p81#samplesheet_validation_demux_dir</title>
<path fill="none" stroke="black" d="M3325.94,-1807.74C2992.15,-1657.82 566.92,-568.54 196.42,-402.13"/>
<polygon fill="black" stroke="black" points="197.61,-398.83 187.05,-397.92 194.74,-405.21 197.61,-398.83"/>
</g>
<!-- file:///tmp/tmp_wks0p81#resource_verification_demux_dir -->
<g id="node20" class="node">
<title>file:///tmp/tmp_wks0p81#resource_verification_demux_dir</title>
<polygon fill="#94ddf4" stroke="black" points="300,-361.83 300,-397.83 548,-397.83 548,-361.83 300,-361.83"/>
<text text-anchor="middle" x="424" y="-376.13" font-family="Times,serif" font-size="14.00">resource_verification_demux_dir</text>
</g>
<!-- file:///tmp/tmp_wks0p81#run_tso500_ctdna_demultiplex_workflow_step&#45;&gt;file:///tmp/tmp_wks0p81#resource_verification_demux_dir -->
<g id="edge33" class="edge">
<title>file:///tmp/tmp_wks0p81#run_tso500_ctdna_demultiplex_workflow_step&#45;&gt;file:///tmp/tmp_wks0p81#resource_verification_demux_dir</title>
<path fill="none" stroke="black" d="M3329.19,-1807.74C3024.19,-1657.94 809.52,-570.18 468.13,-402.51"/>
<polygon fill="black" stroke="black" points="469.56,-399.31 459.04,-398.04 466.47,-405.59 469.56,-399.31"/>
</g>
<!-- file:///tmp/tmp_wks0p81#demultiplex_workflow_output -->
<g id="node28" class="node">
<title>file:///tmp/tmp_wks0p81#demultiplex_workflow_output</title>
<polygon fill="#94ddf4" stroke="black" points="566.5,-361.83 566.5,-397.83 793.5,-397.83 793.5,-361.83 566.5,-361.83"/>
<text text-anchor="middle" x="680" y="-376.13" font-family="Times,serif" font-size="14.00">demultiplex_workflow_output</text>
</g>
<!-- file:///tmp/tmp_wks0p81#run_tso500_ctdna_demultiplex_workflow_step&#45;&gt;file:///tmp/tmp_wks0p81#demultiplex_workflow_output -->
<g id="edge41" class="edge">
<title>file:///tmp/tmp_wks0p81#run_tso500_ctdna_demultiplex_workflow_step&#45;&gt;file:///tmp/tmp_wks0p81#demultiplex_workflow_output</title>
<path fill="none" stroke="black" d="M3331.99,-1807.61C3052.91,-1657.46 1035.75,-572.23 721.2,-403"/>
<polygon fill="black" stroke="black" points="722.44,-399.69 711.97,-398.04 719.12,-405.86 722.44,-399.69"/>
</g>
<!-- file:///tmp/tmp_wks0p81#get_cttso_outputs_by_sample -->
<g id="node3" class="node">
<title>file:///tmp/tmp_wks0p81#get_cttso_outputs_by_sample</title>
<polygon fill="lightgoldenrodyellow" stroke="black" points="6020,-361.83 6020,-397.83 6316,-397.83 6316,-361.83 6020,-361.83"/>
<text text-anchor="middle" x="6168" y="-376.13" font-family="Times,serif" font-size="14.00">get&#45;tso500&#45;outputs&#45;per&#45;sample v(1.0.0)</text>
</g>
<!-- file:///tmp/tmp_wks0p81#run_tso500_ctdna_analysis_workflow_step&#45;&gt;file:///tmp/tmp_wks0p81#get_cttso_outputs_by_sample -->
<g id="edge2" class="edge">
<title>file:///tmp/tmp_wks0p81#run_tso500_ctdna_analysis_workflow_step&#45;&gt;file:///tmp/tmp_wks0p81#get_cttso_outputs_by_sample</title>
<path fill="none" stroke="black" d="M3635.86,-1325.78C3845.13,-1270.09 4520.29,-1085.36 5061,-880.33 5485.41,-719.41 5978.83,-475.92 6125.09,-402.52"/>
<polygon fill="black" stroke="black" points="6126.85,-405.55 6134.21,-397.93 6123.71,-399.3 6126.85,-405.55"/>
</g>
<!-- file:///tmp/tmp_wks0p81#run_tso500_ctdna_analysis_workflow_step&#45;&gt;file:///tmp/tmp_wks0p81#run_tso500_ctdna_reporting_workflow_step -->
<g id="edge5" class="edge">
<title>file:///tmp/tmp_wks0p81#run_tso500_ctdna_analysis_workflow_step&#45;&gt;file:///tmp/tmp_wks0p81#run_tso500_ctdna_reporting_workflow_step</title>
<path fill="none" stroke="black" d="M3614.91,-1325.75C3810.24,-1252.23 4599.71,-962.94 4822.34,-883.25"/>
<polygon fill="black" stroke="black" points="4823.65,-886.5 4831.89,-879.84 4821.29,-879.91 4823.65,-886.5"/>
</g>
<!-- file:///tmp/tmp_wks0p81#run_tso500_ctdna_analysis_workflow_step&#45;&gt;file:///tmp/tmp_wks0p81#run_tso500_ctdna_reporting_workflow_step -->
<g id="edge7" class="edge">
<title>file:///tmp/tmp_wks0p81#run_tso500_ctdna_analysis_workflow_step&#45;&gt;file:///tmp/tmp_wks0p81#run_tso500_ctdna_reporting_workflow_step</title>
<path fill="none" stroke="black" d="M3620.34,-1325.75C3826.18,-1252.27 4615.11,-963.22 4827.9,-883.37"/>
<polygon fill="black" stroke="black" points="4829.17,-886.63 4837.3,-879.84 4826.71,-880.08 4829.17,-886.63"/>
</g>
<!-- file:///tmp/tmp_wks0p81#annotation_analysis_dir -->
<g id="node14" class="node">
<title>file:///tmp/tmp_wks0p81#annotation_analysis_dir</title>
<polygon fill="#94ddf4" stroke="black" points="2817.5,-361.83 2817.5,-397.83 3002.5,-397.83 3002.5,-361.83 2817.5,-361.83"/>
<text text-anchor="middle" x="2910" y="-376.13" font-family="Times,serif" font-size="14.00">annotation_analysis_dir</text>
</g>
<!-- file:///tmp/tmp_wks0p81#run_tso500_ctdna_analysis_workflow_step&#45;&gt;file:///tmp/tmp_wks0p81#annotation_analysis_dir -->
<g id="edge27" class="edge">
<title>file:///tmp/tmp_wks0p81#run_tso500_ctdna_analysis_workflow_step&#45;&gt;file:///tmp/tmp_wks0p81#annotation_analysis_dir</title>
<path fill="none" stroke="black" d="M3559.25,-1325.73C3479.93,-1210.29 3023.1,-545.44 2927.53,-406.35"/>
<polygon fill="black" stroke="black" points="2930.31,-404.22 2921.76,-397.96 2924.54,-408.18 2930.31,-404.22"/>
</g>
<!-- file:///tmp/tmp_wks0p81#analysis_workflow_output -->
<g id="node15" class="node">
<title>file:///tmp/tmp_wks0p81#analysis_workflow_output</title>
<polygon fill="#94ddf4" stroke="black" points="3021,-361.83 3021,-397.83 3221,-397.83 3221,-361.83 3021,-361.83"/>
<text text-anchor="middle" x="3121" y="-376.13" font-family="Times,serif" font-size="14.00">analysis_workflow_output</text>
</g>
<!-- file:///tmp/tmp_wks0p81#run_tso500_ctdna_analysis_workflow_step&#45;&gt;file:///tmp/tmp_wks0p81#analysis_workflow_output -->
<g id="edge28" class="edge">
<title>file:///tmp/tmp_wks0p81#run_tso500_ctdna_analysis_workflow_step&#45;&gt;file:///tmp/tmp_wks0p81#analysis_workflow_output</title>
<path fill="none" stroke="black" d="M3563,-1325.73C3509.11,-1210.52 3199.24,-548.09 3133.33,-407.19"/>
<polygon fill="black" stroke="black" points="3136.42,-405.53 3129.01,-397.96 3130.08,-408.5 3136.42,-405.53"/>
</g>
<!-- file:///tmp/tmp_wks0p81#small_variant_filter_analysis_dir -->
<g id="node16" class="node">
<title>file:///tmp/tmp_wks0p81#small_variant_filter_analysis_dir</title>
<polygon fill="#94ddf4" stroke="black" points="3239.5,-361.83 3239.5,-397.83 3484.5,-397.83 3484.5,-361.83 3239.5,-361.83"/>
<text text-anchor="middle" x="3362" y="-376.13" font-family="Times,serif" font-size="14.00">small_variant_filter_analysis_dir</text>
</g>
<!-- file:///tmp/tmp_wks0p81#run_tso500_ctdna_analysis_workflow_step&#45;&gt;file:///tmp/tmp_wks0p81#small_variant_filter_analysis_dir -->
<g id="edge29" class="edge">
<title>file:///tmp/tmp_wks0p81#run_tso500_ctdna_analysis_workflow_step&#45;&gt;file:///tmp/tmp_wks0p81#small_variant_filter_analysis_dir</title>
<path fill="none" stroke="black" d="M3567.28,-1325.73C3542.3,-1210.75 3398.91,-550.74 3367.91,-408.04"/>
<polygon fill="black" stroke="black" points="3371.26,-406.99 3365.72,-397.96 3364.42,-408.47 3371.26,-406.99"/>
</g>
<!-- file:///tmp/tmp_wks0p81#tmb_analysis_dir -->
<g id="node23" class="node">
<title>file:///tmp/tmp_wks0p81#tmb_analysis_dir</title>
<polygon fill="#94ddf4" stroke="black" points="3502.5,-361.83 3502.5,-397.83 3639.5,-397.83 3639.5,-361.83 3502.5,-361.83"/>
<text text-anchor="middle" x="3571" y="-376.13" font-family="Times,serif" font-size="14.00">tmb_analysis_dir</text>
</g>
<!-- file:///tmp/tmp_wks0p81#run_tso500_ctdna_analysis_workflow_step&#45;&gt;file:///tmp/tmp_wks0p81#tmb_analysis_dir -->
<g id="edge36" class="edge">
<title>file:///tmp/tmp_wks0p81#run_tso500_ctdna_analysis_workflow_step&#45;&gt;file:///tmp/tmp_wks0p81#tmb_analysis_dir</title>
<path fill="none" stroke="black" d="M3571,-1325.73C3571,-1210.75 3571,-550.74 3571,-408.04"/>
<polygon fill="black" stroke="black" points="3574.5,-407.96 3571,-397.96 3567.5,-407.96 3574.5,-407.96"/>
</g>
<!-- file:///tmp/tmp_wks0p81#cnv_caller_analysis_dir -->
<g id="node24" class="node">
<title>file:///tmp/tmp_wks0p81#cnv_caller_analysis_dir</title>
<polygon fill="#94ddf4" stroke="black" points="3657.5,-361.83 3657.5,-397.83 3836.5,-397.83 3836.5,-361.83 3657.5,-361.83"/>
<text text-anchor="middle" x="3747" y="-376.13" font-family="Times,serif" font-size="14.00">cnv_caller_analysis_dir</text>
</g>
<!-- file:///tmp/tmp_wks0p81#run_tso500_ctdna_analysis_workflow_step&#45;&gt;file:///tmp/tmp_wks0p81#cnv_caller_analysis_dir -->
<g id="edge37" class="edge">
<title>file:///tmp/tmp_wks0p81#run_tso500_ctdna_analysis_workflow_step&#45;&gt;file:///tmp/tmp_wks0p81#cnv_caller_analysis_dir</title>
<path fill="none" stroke="black" d="M3574.13,-1325.73C3595.17,-1210.75 3715.92,-550.74 3742.02,-408.04"/>
<polygon fill="black" stroke="black" points="3745.51,-408.42 3743.87,-397.96 3738.62,-407.16 3745.51,-408.42"/>
</g>
<!-- file:///tmp/tmp_wks0p81#msi_analysis_dir -->
<g id="node26" class="node">
<title>file:///tmp/tmp_wks0p81#msi_analysis_dir</title>
<polygon fill="#94ddf4" stroke="black" points="3855,-361.83 3855,-397.83 3989,-397.83 3989,-361.83 3855,-361.83"/>
<text text-anchor="middle" x="3922" y="-376.13" font-family="Times,serif" font-size="14.00">msi_analysis_dir</text>
</g>
<!-- file:///tmp/tmp_wks0p81#run_tso500_ctdna_analysis_workflow_step&#45;&gt;file:///tmp/tmp_wks0p81#msi_analysis_dir -->
<g id="edge39" class="edge">
<title>file:///tmp/tmp_wks0p81#run_tso500_ctdna_analysis_workflow_step&#45;&gt;file:///tmp/tmp_wks0p81#msi_analysis_dir</title>
<path fill="none" stroke="black" d="M3577.24,-1325.73C3619.24,-1210.63 3860.49,-549.42 3912.23,-407.61"/>
<polygon fill="black" stroke="black" points="3915.61,-408.55 3915.75,-397.96 3909.04,-406.15 3915.61,-408.55"/>
</g>
<!-- file:///tmp/tmp_wks0p81#phased_variants_analysis_dir -->
<g id="node27" class="node">
<title>file:///tmp/tmp_wks0p81#phased_variants_analysis_dir</title>
<polygon fill="#94ddf4" stroke="black" points="4007,-361.83 4007,-397.83 4231,-397.83 4231,-361.83 4007,-361.83"/>
<text text-anchor="middle" x="4119" y="-376.13" font-family="Times,serif" font-size="14.00">phased_variants_analysis_dir</text>
</g>
<!-- file:///tmp/tmp_wks0p81#run_tso500_ctdna_analysis_workflow_step&#45;&gt;file:///tmp/tmp_wks0p81#phased_variants_analysis_dir -->
<g id="edge40" class="edge">
<title>file:///tmp/tmp_wks0p81#run_tso500_ctdna_analysis_workflow_step&#45;&gt;file:///tmp/tmp_wks0p81#phased_variants_analysis_dir</title>
<path fill="none" stroke="black" d="M3580.74,-1325.73C3646.44,-1210.4 4024.48,-546.77 4104.23,-406.76"/>
<polygon fill="black" stroke="black" points="4107.34,-408.38 4109.25,-397.96 4101.26,-404.91 4107.34,-408.38"/>
</g>
<!-- file:///tmp/tmp_wks0p81#stitched_realigned_analysis_dir -->
<g id="node29" class="node">
<title>file:///tmp/tmp_wks0p81#stitched_realigned_analysis_dir</title>
<polygon fill="#94ddf4" stroke="black" points="4249,-361.83 4249,-397.83 4489,-397.83 4489,-361.83 4249,-361.83"/>
<text text-anchor="middle" x="4369" y="-376.13" font-family="Times,serif" font-size="14.00">stitched_realigned_analysis_dir</text>
</g>
<!-- file:///tmp/tmp_wks0p81#run_tso500_ctdna_analysis_workflow_step&#45;&gt;file:///tmp/tmp_wks0p81#stitched_realigned_analysis_dir -->
<g id="edge42" class="edge">
<title>file:///tmp/tmp_wks0p81#run_tso500_ctdna_analysis_workflow_step&#45;&gt;file:///tmp/tmp_wks0p81#stitched_realigned_analysis_dir</title>
<path fill="none" stroke="black" d="M3585.19,-1325.73C3681.05,-1210.17 4233.56,-544.12 4348.18,-405.93"/>
<polygon fill="black" stroke="black" points="4351.11,-407.89 4354.8,-397.96 4345.72,-403.42 4351.11,-407.89"/>
</g>
<!-- file:///tmp/tmp_wks0p81#dna_fusion_filtering_analysis_dir -->
<g id="node30" class="node">
<title>file:///tmp/tmp_wks0p81#dna_fusion_filtering_analysis_dir</title>
<polygon fill="#94ddf4" stroke="black" points="4507,-361.83 4507,-397.83 4755,-397.83 4755,-361.83 4507,-361.83"/>
<text text-anchor="middle" x="4631" y="-376.13" font-family="Times,serif" font-size="14.00">dna_fusion_filtering_analysis_dir</text>
</g>
<!-- file:///tmp/tmp_wks0p81#run_tso500_ctdna_analysis_workflow_step&#45;&gt;file:///tmp/tmp_wks0p81#dna_fusion_filtering_analysis_dir -->
<g id="edge43" class="edge">
<title>file:///tmp/tmp_wks0p81#run_tso500_ctdna_analysis_workflow_step&#45;&gt;file:///tmp/tmp_wks0p81#dna_fusion_filtering_analysis_dir</title>
<path fill="none" stroke="black" d="M3589.85,-1325.73C3717.56,-1209.83 4455.48,-540.13 4604.7,-404.71"/>
<polygon fill="black" stroke="black" points="4607.08,-407.27 4612.13,-397.96 4602.38,-402.09 4607.08,-407.27"/>
</g>
<!-- file:///tmp/tmp_wks0p81#contamination_analysis_dir -->
<g id="node31" class="node">
<title>file:///tmp/tmp_wks0p81#contamination_analysis_dir</title>
<polygon fill="#94ddf4" stroke="black" points="1042,-361.83 1042,-397.83 1252,-397.83 1252,-361.83 1042,-361.83"/>
<text text-anchor="middle" x="1147" y="-376.13" font-family="Times,serif" font-size="14.00">contamination_analysis_dir</text>
</g>
<!-- file:///tmp/tmp_wks0p81#run_tso500_ctdna_analysis_workflow_step&#45;&gt;file:///tmp/tmp_wks0p81#contamination_analysis_dir -->
<g id="edge44" class="edge">
<title>file:///tmp/tmp_wks0p81#run_tso500_ctdna_analysis_workflow_step&#45;&gt;file:///tmp/tmp_wks0p81#contamination_analysis_dir</title>
<path fill="none" stroke="black" d="M3528.16,-1325.83C3234.69,-1209.37 1523.33,-530.19 1199.77,-401.78"/>
<polygon fill="black" stroke="black" points="1200.75,-398.4 1190.16,-397.97 1198.17,-404.91 1200.75,-398.4"/>
</g>
<!-- file:///tmp/tmp_wks0p81#variant_matching_analysis_dir -->
<g id="node33" class="node">
<title>file:///tmp/tmp_wks0p81#variant_matching_analysis_dir</title>
<polygon fill="#94ddf4" stroke="black" points="1270.5,-361.83 1270.5,-397.83 1503.5,-397.83 1503.5,-361.83 1270.5,-361.83"/>
<text text-anchor="middle" x="1387" y="-376.13" font-family="Times,serif" font-size="14.00">variant_matching_analysis_dir</text>
</g>
<!-- file:///tmp/tmp_wks0p81#run_tso500_ctdna_analysis_workflow_step&#45;&gt;file:///tmp/tmp_wks0p81#variant_matching_analysis_dir -->
<g id="edge46" class="edge">
<title>file:///tmp/tmp_wks0p81#run_tso500_ctdna_analysis_workflow_step&#45;&gt;file:///tmp/tmp_wks0p81#variant_matching_analysis_dir</title>
<path fill="none" stroke="black" d="M3532.17,-1325.73C3267.34,-1209.08 1728.93,-531.45 1435.39,-402.15"/>
<polygon fill="black" stroke="black" points="1436.43,-398.78 1425.87,-397.96 1433.61,-405.19 1436.43,-398.78"/>
</g>
<!-- file:///tmp/tmp_wks0p81#variant_caller_analysis_dir -->
<g id="node34" class="node">
<title>file:///tmp/tmp_wks0p81#variant_caller_analysis_dir</title>
<polygon fill="#94ddf4" stroke="black" points="1522,-361.83 1522,-397.83 1728,-397.83 1728,-361.83 1522,-361.83"/>
<text text-anchor="middle" x="1625" y="-376.13" font-family="Times,serif" font-size="14.00">variant_caller_analysis_dir</text>
</g>
<!-- file:///tmp/tmp_wks0p81#run_tso500_ctdna_analysis_workflow_step&#45;&gt;file:///tmp/tmp_wks0p81#variant_caller_analysis_dir -->
<g id="edge47" class="edge">
<title>file:///tmp/tmp_wks0p81#run_tso500_ctdna_analysis_workflow_step&#45;&gt;file:///tmp/tmp_wks0p81#variant_caller_analysis_dir</title>
<path fill="none" stroke="black" d="M3536.4,-1325.73C3300.66,-1209.19 1932.38,-532.79 1668.89,-402.53"/>
<polygon fill="black" stroke="black" points="1670.15,-399.25 1659.63,-397.96 1667.05,-405.53 1670.15,-399.25"/>
</g>
<!-- file:///tmp/tmp_wks0p81#align_collapse_fusion_caller_analysis_dir -->
<g id="node35" class="node">
<title>file:///tmp/tmp_wks0p81#align_collapse_fusion_caller_analysis_dir</title>
<polygon fill="#94ddf4" stroke="black" points="1746.5,-361.83 1746.5,-397.83 2051.5,-397.83 2051.5,-361.83 1746.5,-361.83"/>
<text text-anchor="middle" x="1899" y="-376.13" font-family="Times,serif" font-size="14.00">align_collapse_fusion_caller_analysis_dir</text>
</g>
<!-- file:///tmp/tmp_wks0p81#run_tso500_ctdna_analysis_workflow_step&#45;&gt;file:///tmp/tmp_wks0p81#align_collapse_fusion_caller_analysis_dir -->
<g id="edge48" class="edge">
<title>file:///tmp/tmp_wks0p81#run_tso500_ctdna_analysis_workflow_step&#45;&gt;file:///tmp/tmp_wks0p81#align_collapse_fusion_caller_analysis_dir</title>
<path fill="none" stroke="black" d="M3541.27,-1325.73C3339.03,-1209.37 2166.58,-534.79 1937.73,-403.12"/>
<polygon fill="black" stroke="black" points="1939.17,-399.91 1928.76,-397.96 1935.68,-405.98 1939.17,-399.91"/>
</g>
<!-- file:///tmp/tmp_wks0p81#max_somatic_vaf_analysis_dir -->
<g id="node37" class="node">
<title>file:///tmp/tmp_wks0p81#max_somatic_vaf_analysis_dir</title>
<polygon fill="#94ddf4" stroke="black" points="2069.5,-361.83 2069.5,-397.83 2298.5,-397.83 2298.5,-361.83 2069.5,-361.83"/>
<text text-anchor="middle" x="2184" y="-376.13" font-family="Times,serif" font-size="14.00">max_somatic_vaf_analysis_dir</text>
</g>
<!-- file:///tmp/tmp_wks0p81#run_tso500_ctdna_analysis_workflow_step&#45;&gt;file:///tmp/tmp_wks0p81#max_somatic_vaf_analysis_dir -->
<g id="edge50" class="edge">
<title>file:///tmp/tmp_wks0p81#run_tso500_ctdna_analysis_workflow_step&#45;&gt;file:///tmp/tmp_wks0p81#max_somatic_vaf_analysis_dir</title>
<path fill="none" stroke="black" d="M3546.34,-1325.73C3378.82,-1209.54 2408.86,-536.79 2216.98,-403.71"/>
<polygon fill="black" stroke="black" points="2218.9,-400.78 2208.69,-397.96 2214.91,-406.53 2218.9,-400.78"/>
</g>
<!-- file:///tmp/tmp_wks0p81#dna_qc_metrics_analysis_dir -->
<g id="node38" class="node">
<title>file:///tmp/tmp_wks0p81#dna_qc_metrics_analysis_dir</title>
<polygon fill="#94ddf4" stroke="black" points="2317,-361.83 2317,-397.83 2535,-397.83 2535,-361.83 2317,-361.83"/>
<text text-anchor="middle" x="2426" y="-376.13" font-family="Times,serif" font-size="14.00">dna_qc_metrics_analysis_dir</text>
</g>
<!-- file:///tmp/tmp_wks0p81#run_tso500_ctdna_analysis_workflow_step&#45;&gt;file:///tmp/tmp_wks0p81#dna_qc_metrics_analysis_dir -->
<g id="edge51" class="edge">
<title>file:///tmp/tmp_wks0p81#run_tso500_ctdna_analysis_workflow_step&#45;&gt;file:///tmp/tmp_wks0p81#dna_qc_metrics_analysis_dir</title>
<path fill="none" stroke="black" d="M3550.64,-1325.73C3412.69,-1209.83 2615.59,-540.13 2454.41,-404.71"/>
<polygon fill="black" stroke="black" points="2456.29,-401.71 2446.38,-397.96 2451.78,-407.07 2456.29,-401.71"/>
</g>
<!-- file:///tmp/tmp_wks0p81#merged_annotation_analysis_dir -->
<g id="node39" class="node">
<title>file:///tmp/tmp_wks0p81#merged_annotation_analysis_dir</title>
<polygon fill="#94ddf4" stroke="black" points="2553,-361.83 2553,-397.83 2799,-397.83 2799,-361.83 2553,-361.83"/>
<text text-anchor="middle" x="2676" y="-376.13" font-family="Times,serif" font-size="14.00">merged_annotation_analysis_dir</text>
</g>
<!-- file:///tmp/tmp_wks0p81#run_tso500_ctdna_analysis_workflow_step&#45;&gt;file:///tmp/tmp_wks0p81#merged_annotation_analysis_dir -->
<g id="edge52" class="edge">
<title>file:///tmp/tmp_wks0p81#run_tso500_ctdna_analysis_workflow_step&#45;&gt;file:///tmp/tmp_wks0p81#merged_annotation_analysis_dir</title>
<path fill="none" stroke="black" d="M3555.09,-1325.73C3447.47,-1210.06 2826.67,-542.79 2698.97,-405.52"/>
<polygon fill="black" stroke="black" points="2701.3,-402.89 2691.93,-397.96 2696.18,-407.66 2701.3,-402.89"/>
</g>
<!-- file:///tmp/tmp_wks0p81#outputs_by_sample -->
<g id="node21" class="node">
<title>file:///tmp/tmp_wks0p81#outputs_by_sample</title>
<polygon fill="#94ddf4" stroke="black" points="5848.5,-361.83 5848.5,-397.83 6001.5,-397.83 6001.5,-361.83 5848.5,-361.83"/>
<text text-anchor="middle" x="5925" y="-376.13" font-family="Times,serif" font-size="14.00">outputs_by_sample</text>
</g>
<!-- file:///tmp/tmp_wks0p81#run_tso500_ctdna_reporting_workflow_step&#45;&gt;file:///tmp/tmp_wks0p81#get_cttso_outputs_by_sample -->
<g id="edge3" class="edge">
<title>file:///tmp/tmp_wks0p81#run_tso500_ctdna_reporting_workflow_step&#45;&gt;file:///tmp/tmp_wks0p81#get_cttso_outputs_by_sample</title>
<path fill="none" stroke="black" d="M4924.09,-843.75C5115.81,-770.27 5890.73,-481.22 6109.99,-401.37"/>
<polygon fill="black" stroke="black" points="6111.5,-404.55 6119.7,-397.84 6109.11,-397.97 6111.5,-404.55"/>
</g>
<!-- file:///tmp/tmp_wks0p81#run_tso500_ctdna_reporting_workflow_step&#45;&gt;file:///tmp/tmp_wks0p81#get_cttso_outputs_by_sample -->
<g id="edge4" class="edge">
<title>file:///tmp/tmp_wks0p81#run_tso500_ctdna_reporting_workflow_step&#45;&gt;file:///tmp/tmp_wks0p81#get_cttso_outputs_by_sample</title>
<path fill="none" stroke="black" d="M4929.52,-843.75C5131.74,-770.31 5906.16,-481.51 6115.57,-401.49"/>
<polygon fill="black" stroke="black" points="6117.03,-404.68 6125.12,-397.84 6114.53,-398.14 6117.03,-404.68"/>
</g>
<!-- file:///tmp/tmp_wks0p81#cleanup_dir -->
<g id="node19" class="node">
<title>file:///tmp/tmp_wks0p81#cleanup_dir</title>
<polygon fill="#94ddf4" stroke="black" points="5476.5,-361.83 5476.5,-397.83 5575.5,-397.83 5575.5,-361.83 5476.5,-361.83"/>
<text text-anchor="middle" x="5526" y="-376.13" font-family="Times,serif" font-size="14.00">cleanup_dir</text>
</g>
<!-- file:///tmp/tmp_wks0p81#run_tso500_ctdna_reporting_workflow_step&#45;&gt;file:///tmp/tmp_wks0p81#cleanup_dir -->
<g id="edge32" class="edge">
<title>file:///tmp/tmp_wks0p81#run_tso500_ctdna_reporting_workflow_step&#45;&gt;file:///tmp/tmp_wks0p81#cleanup_dir</title>
<path fill="none" stroke="black" d="M4903.96,-843.75C5001.61,-771.08 5382.62,-487.54 5494.77,-404.07"/>
<polygon fill="black" stroke="black" points="5497.05,-406.74 5502.98,-397.96 5492.87,-401.13 5497.05,-406.74"/>
</g>
<!-- file:///tmp/tmp_wks0p81#combined_variant_output_dir -->
<g id="node22" class="node">
<title>file:///tmp/tmp_wks0p81#combined_variant_output_dir</title>
<polygon fill="#94ddf4" stroke="black" points="5007,-361.83 5007,-397.83 5231,-397.83 5231,-361.83 5007,-361.83"/>
<text text-anchor="middle" x="5119" y="-376.13" font-family="Times,serif" font-size="14.00">combined_variant_output_dir</text>
</g>
<!-- file:///tmp/tmp_wks0p81#run_tso500_ctdna_reporting_workflow_step&#45;&gt;file:///tmp/tmp_wks0p81#combined_variant_output_dir -->
<g id="edge35" class="edge">
<title>file:///tmp/tmp_wks0p81#run_tso500_ctdna_reporting_workflow_step&#45;&gt;file:///tmp/tmp_wks0p81#combined_variant_output_dir</title>
<path fill="none" stroke="black" d="M4889.47,-843.75C4925.07,-771.95 5062.73,-494.33 5105.94,-407.17"/>
<polygon fill="black" stroke="black" points="5109.2,-408.48 5110.51,-397.96 5102.93,-405.37 5109.2,-408.48"/>
</g>
<!-- file:///tmp/tmp_wks0p81#sample_analysis_results_dir -->
<g id="node25" class="node">
<title>file:///tmp/tmp_wks0p81#sample_analysis_results_dir</title>
<polygon fill="#94ddf4" stroke="black" points="4773.5,-361.83 4773.5,-397.83 4988.5,-397.83 4988.5,-361.83 4773.5,-361.83"/>
<text text-anchor="middle" x="4881" y="-376.13" font-family="Times,serif" font-size="14.00">sample_analysis_results_dir</text>
</g>
<!-- file:///tmp/tmp_wks0p81#run_tso500_ctdna_reporting_workflow_step&#45;&gt;file:///tmp/tmp_wks0p81#sample_analysis_results_dir -->
<g id="edge38" class="edge">
<title>file:///tmp/tmp_wks0p81#run_tso500_ctdna_reporting_workflow_step&#45;&gt;file:///tmp/tmp_wks0p81#sample_analysis_results_dir</title>
<path fill="none" stroke="black" d="M4881,-843.75C4881,-772.17 4881,-496.01 4881,-407.97"/>
<polygon fill="black" stroke="black" points="4884.5,-407.96 4881,-397.96 4877.5,-407.96 4884.5,-407.96"/>
</g>
<!-- file:///tmp/tmp_wks0p81#results -->
<g id="node32" class="node">
<title>file:///tmp/tmp_wks0p81#results</title>
<polygon fill="#94ddf4" stroke="black" points="5764,-361.83 5764,-397.83 5830,-397.83 5830,-361.83 5764,-361.83"/>
<text text-anchor="middle" x="5797" y="-376.13" font-family="Times,serif" font-size="14.00">results</text>
</g>
<!-- file:///tmp/tmp_wks0p81#run_tso500_ctdna_reporting_workflow_step&#45;&gt;file:///tmp/tmp_wks0p81#results -->
<g id="edge45" class="edge">
<title>file:///tmp/tmp_wks0p81#run_tso500_ctdna_reporting_workflow_step&#45;&gt;file:///tmp/tmp_wks0p81#results</title>
<path fill="none" stroke="black" d="M4916,-843.68C5034.96,-785.14 5434.18,-586.88 5755,-406.33 5756.73,-405.36 5758.49,-404.36 5760.26,-403.33"/>
<polygon fill="black" stroke="black" points="5762.3,-406.19 5769.14,-398.1 5758.74,-400.16 5762.3,-406.19"/>
</g>
<!-- file:///tmp/tmp_wks0p81#metrics_output_dir -->
<g id="node36" class="node">
<title>file:///tmp/tmp_wks0p81#metrics_output_dir</title>
<polygon fill="#94ddf4" stroke="black" points="5594,-361.83 5594,-397.83 5746,-397.83 5746,-361.83 5594,-361.83"/>
<text text-anchor="middle" x="5670" y="-376.13" font-family="Times,serif" font-size="14.00">metrics_output_dir</text>
</g>
<!-- file:///tmp/tmp_wks0p81#run_tso500_ctdna_reporting_workflow_step&#45;&gt;file:///tmp/tmp_wks0p81#metrics_output_dir -->
<g id="edge49" class="edge">
<title>file:///tmp/tmp_wks0p81#run_tso500_ctdna_reporting_workflow_step&#45;&gt;file:///tmp/tmp_wks0p81#metrics_output_dir</title>
<path fill="none" stroke="black" d="M4909.08,-843.75C5028.9,-770.86 5497.41,-485.83 5633.03,-403.32"/>
<polygon fill="black" stroke="black" points="5635.12,-406.15 5641.84,-397.96 5631.48,-400.17 5635.12,-406.15"/>
</g>
<!-- file:///tmp/tmp_wks0p81#reporting_workflow_output -->
<g id="node40" class="node">
<title>file:///tmp/tmp_wks0p81#reporting_workflow_output</title>
<polygon fill="#94ddf4" stroke="black" points="5249.5,-361.83 5249.5,-397.83 5458.5,-397.83 5458.5,-361.83 5249.5,-361.83"/>
<text text-anchor="middle" x="5354" y="-376.13" font-family="Times,serif" font-size="14.00">reporting_workflow_output</text>
</g>
<!-- file:///tmp/tmp_wks0p81#run_tso500_ctdna_reporting_workflow_step&#45;&gt;file:///tmp/tmp_wks0p81#reporting_workflow_output -->
<g id="edge53" class="edge">
<title>file:///tmp/tmp_wks0p81#run_tso500_ctdna_reporting_workflow_step&#45;&gt;file:///tmp/tmp_wks0p81#reporting_workflow_output</title>
<path fill="none" stroke="black" d="M4897.83,-843.75C4969.09,-771.44 5246.06,-490.37 5329.85,-405.34"/>
<polygon fill="black" stroke="black" points="5332.6,-407.54 5337.12,-397.96 5327.61,-402.63 5332.6,-407.54"/>
</g>
<!-- file:///tmp/tmp_wks0p81#add_sample_type_and_pair_id_to_samplesheet_step -->
<g id="node5" class="node">
<title>file:///tmp/tmp_wks0p81#add_sample_type_and_pair_id_to_samplesheet_step</title>
<polygon fill="lightgoldenrodyellow" stroke="black" points="2990.5,-2289.83 2990.5,-2325.83 3315.5,-2325.83 3315.5,-2289.83 2990.5,-2289.83"/>
<text text-anchor="middle" x="3153" y="-2304.13" font-family="Times,serif" font-size="14.00">custom&#45;create&#45;tso500&#45;samplesheet v(1.0.0)</text>
</g>
<!-- file:///tmp/tmp_wks0p81#add_sample_type_and_pair_id_to_samplesheet_step&#45;&gt;file:///tmp/tmp_wks0p81#run_tso500_ctdna_demultiplex_workflow_step -->
<g id="edge8" class="edge">
<title>file:///tmp/tmp_wks0p81#add_sample_type_and_pair_id_to_samplesheet_step&#45;&gt;file:///tmp/tmp_wks0p81#run_tso500_ctdna_demultiplex_workflow_step</title>
<path fill="none" stroke="black" d="M3160.51,-2289.75C3192.07,-2217.95 3314.11,-1940.33 3352.42,-1853.17"/>
<polygon fill="black" stroke="black" points="3355.65,-1854.53 3356.47,-1843.96 3349.24,-1851.71 3355.65,-1854.53"/>
</g>
<!-- file:///tmp/tmp_wks0p81#samplesheet_prefix -->
<g id="node6" class="node">
<title>file:///tmp/tmp_wks0p81#samplesheet_prefix</title>
<polygon fill="#94ddf4" stroke="black" points="3184.5,-2791.83 3184.5,-2827.83 3339.5,-2827.83 3339.5,-2791.83 3184.5,-2791.83"/>
<text text-anchor="middle" x="3262" y="-2806.13" font-family="Times,serif" font-size="14.00">samplesheet_prefix</text>
</g>
<!-- file:///tmp/tmp_wks0p81#samplesheet_prefix&#45;&gt;file:///tmp/tmp_wks0p81#run_tso500_ctdna_demultiplex_workflow_step -->
<g id="edge9" class="edge">
<title>file:///tmp/tmp_wks0p81#samplesheet_prefix&#45;&gt;file:///tmp/tmp_wks0p81#run_tso500_ctdna_demultiplex_workflow_step</title>
<path fill="none" stroke="black" d="M3264.55,-2791.78C3273.79,-2729.59 3305.95,-2509.08 3325,-2326.33 3343.74,-2146.58 3357.75,-1929.56 3362.36,-1854.19"/>
<polygon fill="black" stroke="black" points="3365.86,-1854.31 3362.98,-1844.12 3358.88,-1853.89 3365.86,-1854.31"/>
</g>
<!-- file:///tmp/tmp_wks0p81#samplesheet_prefix&#45;&gt;file:///tmp/tmp_wks0p81#run_tso500_ctdna_reporting_workflow_step -->
<g id="edge17" class="edge">
<title>file:///tmp/tmp_wks0p81#samplesheet_prefix&#45;&gt;file:///tmp/tmp_wks0p81#run_tso500_ctdna_reporting_workflow_step</title>
<path fill="none" stroke="black" d="M3276.24,-2791.72C3424.41,-2613.63 4682.24,-1101.74 4860.12,-887.93"/>
<polygon fill="black" stroke="black" points="4862.96,-889.99 4866.66,-880.07 4857.58,-885.52 4862.96,-889.99"/>
</g>
<!-- file:///tmp/tmp_wks0p81#samplesheet_prefix&#45;&gt;file:///tmp/tmp_wks0p81#add_sample_type_and_pair_id_to_samplesheet_step -->
<g id="edge19" class="edge">
<title>file:///tmp/tmp_wks0p81#samplesheet_prefix&#45;&gt;file:///tmp/tmp_wks0p81#add_sample_type_and_pair_id_to_samplesheet_step</title>
<path fill="none" stroke="black" d="M3258.25,-2791.62C3242.13,-2717.7 3178.71,-2426.77 3158.93,-2336.02"/>
<polygon fill="black" stroke="black" points="3162.29,-2335 3156.74,-2325.97 3155.45,-2336.49 3162.29,-2335"/>
</g>
<!-- file:///tmp/tmp_wks0p81#resources_dir -->
<g id="node7" class="node">
<title>file:///tmp/tmp_wks0p81#resources_dir</title>
<polygon fill="#94ddf4" stroke="black" points="3498.5,-2791.83 3498.5,-2827.83 3611.5,-2827.83 3611.5,-2791.83 3498.5,-2791.83"/>
<text text-anchor="middle" x="3555" y="-2806.13" font-family="Times,serif" font-size="14.00">resources_dir</text>
</g>
<!-- file:///tmp/tmp_wks0p81#resources_dir&#45;&gt;file:///tmp/tmp_wks0p81#run_tso500_ctdna_demultiplex_workflow_step -->
<g id="edge26" class="edge">
<title>file:///tmp/tmp_wks0p81#resources_dir&#45;&gt;file:///tmp/tmp_wks0p81#run_tso500_ctdna_demultiplex_workflow_step</title>
<path fill="none" stroke="black" d="M3550.48,-2791.41C3534.35,-2728.83 3478.7,-2509.5 3443,-2326.33 3408.1,-2147.28 3377.81,-1929.83 3367.64,-1854.26"/>
<polygon fill="black" stroke="black" points="3371.08,-1853.61 3366.29,-1844.17 3364.14,-1854.54 3371.08,-1853.61"/>
</g>
<!-- file:///tmp/tmp_wks0p81#resources_dir&#45;&gt;file:///tmp/tmp_wks0p81#run_tso500_ctdna_analysis_workflow_step -->
<g id="edge10" class="edge">
<title>file:///tmp/tmp_wks0p81#resources_dir&#45;&gt;file:///tmp/tmp_wks0p81#run_tso500_ctdna_analysis_workflow_step</title>
<path fill="none" stroke="black" d="M3555.19,-2791.63C3556.83,-2641.74 3568.66,-1558.5 3570.7,-1372.11"/>
<polygon fill="black" stroke="black" points="3574.2,-1372.09 3570.81,-1362.05 3567.2,-1372.01 3574.2,-1372.09"/>
</g>
<!-- file:///tmp/tmp_wks0p81#resources_dir&#45;&gt;file:///tmp/tmp_wks0p81#run_tso500_ctdna_reporting_workflow_step -->
<g id="edge13" class="edge">
<title>file:///tmp/tmp_wks0p81#resources_dir&#45;&gt;file:///tmp/tmp_wks0p81#run_tso500_ctdna_reporting_workflow_step</title>
<path fill="none" stroke="black" d="M3578.15,-2791.7C3691.78,-2707.58 4185.55,-2341.67 4198,-2326.33 4404.06,-2072.48 4801.54,-1066.5 4870.64,-889.5"/>
<polygon fill="black" stroke="black" points="4873.91,-890.73 4874.28,-880.14 4867.39,-888.19 4873.91,-890.73"/>
</g>
<!-- file:///tmp/tmp_wks0p81#run_parameters_xml -->
<g id="node8" class="node">
<title>file:///tmp/tmp_wks0p81#run_parameters_xml</title>
<polygon fill="#94ddf4" stroke="black" points="3779,-2791.83 3779,-2827.83 3943,-2827.83 3943,-2791.83 3779,-2791.83"/>
<text text-anchor="middle" x="3861" y="-2806.13" font-family="Times,serif" font-size="14.00">run_parameters_xml</text>
</g>
<!-- file:///tmp/tmp_wks0p81#run_parameters_xml&#45;&gt;file:///tmp/tmp_wks0p81#run_tso500_ctdna_demultiplex_workflow_step -->
<g id="edge11" class="edge">
<title>file:///tmp/tmp_wks0p81#run_parameters_xml&#45;&gt;file:///tmp/tmp_wks0p81#run_tso500_ctdna_demultiplex_workflow_step</title>
<path fill="none" stroke="black" d="M3845.75,-2791.74C3793.17,-2731.97 3617.21,-2525.18 3519,-2326.33 3434.9,-2156.06 3384.76,-1930.58 3369.22,-1853.78"/>
<polygon fill="black" stroke="black" points="3372.65,-1853.07 3367.26,-1843.95 3365.78,-1854.44 3372.65,-1853.07"/>
</g>
<!-- file:///tmp/tmp_wks0p81#run_parameters_xml&#45;&gt;file:///tmp/tmp_wks0p81#run_tso500_ctdna_reporting_workflow_step -->
<g id="edge14" class="edge">
<title>file:///tmp/tmp_wks0p81#run_parameters_xml&#45;&gt;file:///tmp/tmp_wks0p81#run_tso500_ctdna_reporting_workflow_step</title>
<path fill="none" stroke="black" d="M3880.82,-2791.46C3947.18,-2732.37 4164.57,-2531.47 4292,-2326.33 4623.31,-1792.98 4833.57,-1041.25 4873.9,-889.97"/>
<polygon fill="black" stroke="black" points="4877.33,-890.69 4876.51,-880.12 4870.57,-888.89 4877.33,-890.69"/>
</g>
<!-- file:///tmp/tmp_wks0p81#run_info_xml -->
<g id="node9" class="node">
<title>file:///tmp/tmp_wks0p81#run_info_xml</title>
<polygon fill="#94ddf4" stroke="black" points="3961,-2791.83 3961,-2827.83 4069,-2827.83 4069,-2791.83 3961,-2791.83"/>
<text text-anchor="middle" x="4015" y="-2806.13" font-family="Times,serif" font-size="14.00">run_info_xml</text>
</g>
<!-- file:///tmp/tmp_wks0p81#run_info_xml&#45;&gt;file:///tmp/tmp_wks0p81#run_tso500_ctdna_demultiplex_workflow_step -->
<g id="edge12" class="edge">
<title>file:///tmp/tmp_wks0p81#run_info_xml&#45;&gt;file:///tmp/tmp_wks0p81#run_tso500_ctdna_demultiplex_workflow_step</title>
<path fill="none" stroke="black" d="M4003.7,-2791.79C3926.3,-2675.03 3474.65,-1993.75 3381,-1852.48"/>
<polygon fill="black" stroke="black" points="3383.8,-1850.36 3375.36,-1843.96 3377.96,-1854.23 3383.8,-1850.36"/>
</g>
<!-- file:///tmp/tmp_wks0p81#run_info_xml&#45;&gt;file:///tmp/tmp_wks0p81#run_tso500_ctdna_reporting_workflow_step -->
<g id="edge23" class="edge">
<title>file:///tmp/tmp_wks0p81#run_info_xml&#45;&gt;file:///tmp/tmp_wks0p81#run_tso500_ctdna_reporting_workflow_step</title>
<path fill="none" stroke="black" d="M4037.03,-2791.76C4049.29,-2782.35 4064.88,-2770.55 4079,-2760.33 4354.19,-2561.27 4532.72,-2617.26 4708,-2326.33 5011.33,-1822.87 4909.56,-1044.42 4885.49,-889.99"/>
<polygon fill="black" stroke="black" points="4888.92,-889.29 4883.9,-879.96 4882.01,-890.38 4888.92,-889.29"/>
</g>
<!-- file:///tmp/tmp_wks0p81#fastq_list_rows -->
<g id="node10" class="node">
<title>file:///tmp/tmp_wks0p81#fastq_list_rows</title>
<polygon fill="#94ddf4" stroke="black" points="3357.5,-2791.83 3357.5,-2827.83 3480.5,-2827.83 3480.5,-2791.83 3357.5,-2791.83"/>
<text text-anchor="middle" x="3419" y="-2806.13" font-family="Times,serif" font-size="14.00">fastq_list_rows</text>
</g>
<!-- file:///tmp/tmp_wks0p81#fastq_list_rows&#45;&gt;file:///tmp/tmp_wks0p81#run_tso500_ctdna_demultiplex_workflow_step -->
<g id="edge22" class="edge">
<title>file:///tmp/tmp_wks0p81#fastq_list_rows&#45;&gt;file:///tmp/tmp_wks0p81#run_tso500_ctdna_demultiplex_workflow_step</title>
<path fill="none" stroke="black" d="M3418.05,-2791.79C3411.53,-2675.5 3373.65,-1999.18 3365.53,-1854.19"/>
<polygon fill="black" stroke="black" points="3369.01,-1853.75 3364.96,-1843.96 3362.02,-1854.14 3369.01,-1853.75"/>
</g>
<!-- file:///tmp/tmp_wks0p81#fastq_list_rows&#45;&gt;file:///tmp/tmp_wks0p81#run_tso500_ctdna_analysis_workflow_step -->
<g id="edge15" class="edge">
<title>file:///tmp/tmp_wks0p81#fastq_list_rows&#45;&gt;file:///tmp/tmp_wks0p81#run_tso500_ctdna_analysis_workflow_step</title>
<path fill="none" stroke="black" d="M3422,-2791.78C3438.44,-2697.45 3518.16,-2229.94 3552,-1844.33 3567.76,-1664.71 3570.45,-1447.61 3570.91,-1372.2"/>
<polygon fill="black" stroke="black" points="3574.41,-1372.15 3570.96,-1362.13 3567.41,-1372.11 3574.41,-1372.15"/>
</g>
<!-- file:///tmp/tmp_wks0p81#tso500_samples -->
<g id="node11" class="node">
<title>file:///tmp/tmp_wks0p81#tso500_samples</title>
<polygon fill="#94ddf4" stroke="black" points="3629.5,-2791.83 3629.5,-2827.83 3760.5,-2827.83 3760.5,-2791.83 3629.5,-2791.83"/>
<text text-anchor="middle" x="3695" y="-2806.13" font-family="Times,serif" font-size="14.00">tso500_samples</text>
</g>
<!-- file:///tmp/tmp_wks0p81#tso500_samples&#45;&gt;file:///tmp/tmp_wks0p81#run_tso500_ctdna_demultiplex_workflow_step -->
<g id="edge21" class="edge">
<title>file:///tmp/tmp_wks0p81#tso500_samples&#45;&gt;file:///tmp/tmp_wks0p81#run_tso500_ctdna_demultiplex_workflow_step</title>
<path fill="none" stroke="black" d="M3686.02,-2791.78C3654.04,-2730.46 3544.26,-2514.85 3481,-2326.33 3421.99,-2150.49 3381.56,-1930.18 3368.53,-1854.12"/>
<polygon fill="black" stroke="black" points="3371.93,-1853.25 3366.81,-1843.97 3365.03,-1854.42 3371.93,-1853.25"/>
</g>
<!-- file:///tmp/tmp_wks0p81#tso500_samples&#45;&gt;file:///tmp/tmp_wks0p81#run_tso500_ctdna_analysis_workflow_step -->
<g id="edge16" class="edge">
<title>file:///tmp/tmp_wks0p81#tso500_samples&#45;&gt;file:///tmp/tmp_wks0p81#run_tso500_ctdna_analysis_workflow_step</title>
<path fill="none" stroke="black" d="M3694.02,-2791.67C3688.46,-2694.7 3659.7,-2205.71 3623,-1807.33 3607.74,-1641.64 3583.38,-1443.25 3574.44,-1371.98"/>
<polygon fill="black" stroke="black" points="3577.91,-1371.51 3573.19,-1362.03 3570.96,-1372.39 3577.91,-1371.51"/>
</g>
<!-- file:///tmp/tmp_wks0p81#tso500_samples&#45;&gt;file:///tmp/tmp_wks0p81#get_cttso_outputs_by_sample -->
<g id="edge25" class="edge">
<title>file:///tmp/tmp_wks0p81#tso500_samples&#45;&gt;file:///tmp/tmp_wks0p81#get_cttso_outputs_by_sample</title>
<path fill="none" stroke="black" d="M3719.39,-2791.63C3733.77,-2781.86 3752.52,-2769.73 3770,-2760.33 4682.25,-2270.1 5905,-2862.46 5905,-1826.83 5905,-1826.83 5905,-1826.83 5905,-1342.83 5905,-958.79 6102.43,-518.07 6155.18,-407.18"/>
<polygon fill="black" stroke="black" points="6158.39,-408.59 6159.55,-398.06 6152.07,-405.56 6158.39,-408.59"/>
</g>
<!-- file:///tmp/tmp_wks0p81#tso500_samples&#45;&gt;file:///tmp/tmp_wks0p81#add_sample_type_and_pair_id_to_samplesheet_step -->
<g id="edge18" class="edge">
<title>file:///tmp/tmp_wks0p81#tso500_samples&#45;&gt;file:///tmp/tmp_wks0p81#add_sample_type_and_pair_id_to_samplesheet_step</title>
<path fill="none" stroke="black" d="M3676.34,-2791.62C3595.23,-2716.8 3273.11,-2419.64 3178.97,-2332.79"/>
<polygon fill="black" stroke="black" points="3181.3,-2330.18 3171.58,-2325.97 3176.56,-2335.33 3181.3,-2330.18"/>
</g>
<!-- file:///tmp/tmp_wks0p81#samplesheet -->
<g id="node12" class="node">
<title>file:///tmp/tmp_wks0p81#samplesheet</title>
<polygon fill="#94ddf4" stroke="black" points="3059.5,-2791.83 3059.5,-2827.83 3166.5,-2827.83 3166.5,-2791.83 3059.5,-2791.83"/>
<text text-anchor="middle" x="3113" y="-2806.13" font-family="Times,serif" font-size="14.00">samplesheet</text>
</g>
<!-- file:///tmp/tmp_wks0p81#samplesheet&#45;&gt;file:///tmp/tmp_wks0p81#add_sample_type_and_pair_id_to_samplesheet_step -->
<g id="edge20" class="edge">
<title>file:///tmp/tmp_wks0p81#samplesheet&#45;&gt;file:///tmp/tmp_wks0p81#add_sample_type_and_pair_id_to_samplesheet_step</title>
<path fill="none" stroke="black" d="M3114.38,-2791.62C3120.29,-2717.7 3143.57,-2426.77 3150.83,-2336.02"/>
<polygon fill="black" stroke="black" points="3154.32,-2336.22 3151.63,-2325.97 3147.34,-2335.66 3154.32,-2336.22"/>
</g>
<!-- file:///tmp/tmp_wks0p81#dragen_license_key -->
<g id="node13" class="node">
<title>file:///tmp/tmp_wks0p81#dragen_license_key</title>
<polygon fill="#94ddf4" stroke="black" points="4087.5,-2791.83 4087.5,-2827.83 4242.5,-2827.83 4242.5,-2791.83 4087.5,-2791.83"/>
<text text-anchor="middle" x="4165" y="-2806.13" font-family="Times,serif" font-size="14.00">dragen_license_key</text>
</g>
<!-- file:///tmp/tmp_wks0p81#dragen_license_key&#45;&gt;file:///tmp/tmp_wks0p81#run_tso500_ctdna_analysis_workflow_step -->
<g id="edge24" class="edge">
<title>file:///tmp/tmp_wks0p81#dragen_license_key&#45;&gt;file:///tmp/tmp_wks0p81#run_tso500_ctdna_analysis_workflow_step</title>
<path fill="none" stroke="black" d="M4158.02,-2791.63C4097.14,-2641.59 3656.82,-1556.35 3581.84,-1371.55"/>
<polygon fill="black" stroke="black" points="3584.99,-1370 3577.98,-1362.05 3578.5,-1372.63 3584.99,-1370"/>
</g>
</g>
</svg>
