<?xml version="1.0" encoding="UTF-8" standalone="no"?>
<!DOCTYPE svg PUBLIC "-//W3C//DTD SVG 1.1//EN"
 "http://www.w3.org/Graphics/SVG/1.1/DTD/svg11.dtd">
<!-- Generated by graphviz version 2.40.1 (20161225.0304)
 -->
<!-- Title: G Pages: 1 -->
<svg width="6395pt" height="3080pt"
 viewBox="0.00 0.00 6395.00 3080.15" xmlns="http://www.w3.org/2000/svg" xmlns:xlink="http://www.w3.org/1999/xlink">
<g id="graph0" class="graph" transform="scale(1 1) rotate(0) translate(4 3076.147)">
<title>G</title>
<polygon fill="#eeeeee" stroke="transparent" points="-4,4 -4,-3076.147 6391,-3076.147 6391,4 -4,4"/>
<g id="clust1" class="cluster">
<title>cluster_inputs</title>
<polygon fill="#eeeeee" stroke="#000000" stroke-dasharray="5,2" points="3115,-2511.1462 3115,-3018.7184 4325,-3018.7184 4325,-2511.1462 3115,-2511.1462"/>
<text text-anchor="middle" x="4257" y="-2518.9462" font-family="Times,serif" font-size="14.00" fill="#000000">Workflow Inputs</text>
</g>
<g id="clust2" class="cluster">
<title>cluster_outputs</title>
<polygon fill="#eeeeee" stroke="#000000" stroke-dasharray="5,2" points="8,-53.4286 8,-561.0008 6081,-561.0008 6081,-53.4286 8,-53.4286"/>
<text text-anchor="middle" x="6007" y="-61.2286" font-family="Times,serif" font-size="14.00" fill="#000000">Workflow Outputs</text>
</g>
<!-- file:///tmp/tmpbdzp4ac5#run_tso500_ctdna_demultiplex_workflow_step -->
<g id="node1" class="node">
<title>file:///tmp/tmpbdzp4ac5#run_tso500_ctdna_demultiplex_workflow_step</title>
<polygon fill="#fafad2" stroke="#000000" points="3265.5,-1828.4286 3265.5,-1864.4286 3626.5,-1864.4286 3626.5,-1828.4286 3265.5,-1828.4286"/>
<text text-anchor="middle" x="3446" y="-1842.7286" font-family="Times,serif" font-size="14.00" fill="#000000">tso500&#45;ctdna&#45;demultiplex&#45;workflow v(1.1.0.120)</text>
</g>
<!-- file:///tmp/tmpbdzp4ac5#run_tso500_ctdna_analysis_workflow_step -->
<g id="node2" class="node">
<title>file:///tmp/tmpbdzp4ac5#run_tso500_ctdna_analysis_workflow_step</title>
<polygon fill="#fafad2" stroke="#000000" points="3487,-1341.4286 3487,-1377.4286 3821,-1377.4286 3821,-1341.4286 3487,-1341.4286"/>
<text text-anchor="middle" x="3654" y="-1355.7286" font-family="Times,serif" font-size="14.00" fill="#000000">tso500&#45;ctdna&#45;analysis&#45;workflow v(1.1.0.120)</text>
</g>
<!-- file:///tmp/tmpbdzp4ac5#run_tso500_ctdna_demultiplex_workflow_step&#45;&gt;file:///tmp/tmpbdzp4ac5#run_tso500_ctdna_analysis_workflow_step -->
<g id="edge1" class="edge">
<title>file:///tmp/tmpbdzp4ac5#run_tso500_ctdna_demultiplex_workflow_step&#45;&gt;file:///tmp/tmpbdzp4ac5#run_tso500_ctdna_analysis_workflow_step</title>
<path fill="none" stroke="#000000" d="M3453.7742,-1828.2265C3485.3755,-1754.237 3604.3176,-1475.7524 3642.2787,-1386.8722"/>
<polygon fill="#000000" stroke="#000000" points="3645.5881,-1388.0345 3646.2973,-1377.4634 3639.1507,-1385.285 3645.5881,-1388.0345"/>
</g>
<!-- file:///tmp/tmpbdzp4ac5#run_tso500_ctdna_reporting_workflow_step -->
<g id="node3" class="node">
<title>file:///tmp/tmpbdzp4ac5#run_tso500_ctdna_reporting_workflow_step</title>
<polygon fill="#fafad2" stroke="#000000" points="4764,-853.4286 4764,-889.4286 5108,-889.4286 5108,-853.4286 4764,-853.4286"/>
<text text-anchor="middle" x="4936" y="-867.7286" font-family="Times,serif" font-size="14.00" fill="#000000">tso500&#45;ctdna&#45;reporting&#45;workflow v(1.1.0.120)</text>
</g>
<!-- file:///tmp/tmpbdzp4ac5#run_tso500_ctdna_demultiplex_workflow_step&#45;&gt;file:///tmp/tmpbdzp4ac5#run_tso500_ctdna_reporting_workflow_step -->
<g id="edge4" class="edge">
<title>file:///tmp/tmpbdzp4ac5#run_tso500_ctdna_demultiplex_workflow_step&#45;&gt;file:///tmp/tmpbdzp4ac5#run_tso500_ctdna_reporting_workflow_step</title>
<path fill="none" stroke="#000000" d="M3464.8303,-1828.3133C3537.0972,-1759.3498 3805.1567,-1508.6527 4055,-1340.9286 4353.9661,-1140.2277 4747.941,-956.0558 4885.7948,-893.7768"/>
<polygon fill="#000000" stroke="#000000" points="4887.5943,-896.8049 4895.2728,-889.5048 4884.7179,-890.4232 4887.5943,-896.8049"/>
</g>
<!-- file:///tmp/tmpbdzp4ac5#demultiplex_workflow_output -->
<g id="node26" class="node">
<title>file:///tmp/tmpbdzp4ac5#demultiplex_workflow_output</title>
<polygon fill="#94ddf4" stroke="#000000" points="804,-366.4286 804,-402.4286 1034,-402.4286 1034,-366.4286 804,-366.4286"/>
<text text-anchor="middle" x="919" y="-380.7286" font-family="Times,serif" font-size="14.00" fill="#000000">demultiplex_workflow_output</text>
</g>
<!-- file:///tmp/tmpbdzp4ac5#run_tso500_ctdna_demultiplex_workflow_step&#45;&gt;file:///tmp/tmpbdzp4ac5#demultiplex_workflow_output -->
<g id="edge39" class="edge">
<title>file:///tmp/tmpbdzp4ac5#run_tso500_ctdna_demultiplex_workflow_step&#45;&gt;file:///tmp/tmpbdzp4ac5#demultiplex_workflow_output</title>
<path fill="none" stroke="#000000" d="M3414.5068,-1828.2082C3147.04,-1673.4648 1258.888,-581.0714 959.0726,-407.6127"/>
<polygon fill="#000000" stroke="#000000" points="960.6777,-404.4978 950.2692,-402.5195 957.1722,-410.5569 960.6777,-404.4978"/>
</g>
<!-- file:///tmp/tmpbdzp4ac5#samplesheet_validation_demux_dir -->
<g id="node29" class="node">
<title>file:///tmp/tmpbdzp4ac5#samplesheet_validation_demux_dir</title>
<polygon fill="#94ddf4" stroke="#000000" points="16,-366.4286 16,-402.4286 284,-402.4286 284,-366.4286 16,-366.4286"/>
<text text-anchor="middle" x="150" y="-380.7286" font-family="Times,serif" font-size="14.00" fill="#000000">samplesheet_validation_demux_dir</text>
</g>
<!-- file:///tmp/tmpbdzp4ac5#run_tso500_ctdna_demultiplex_workflow_step&#45;&gt;file:///tmp/tmpbdzp4ac5#samplesheet_validation_demux_dir -->
<g id="edge42" class="edge">
<title>file:///tmp/tmpbdzp4ac5#run_tso500_ctdna_demultiplex_workflow_step&#45;&gt;file:///tmp/tmpbdzp4ac5#samplesheet_validation_demux_dir</title>
<path fill="none" stroke="#000000" d="M3405.2198,-1828.3398C3056.7834,-1673.7846 583.8107,-576.8532 200.0019,-406.6079"/>
<polygon fill="#000000" stroke="#000000" points="201.366,-403.3841 190.8057,-402.5287 198.5276,-409.7829 201.366,-403.3841"/>
</g>
<!-- file:///tmp/tmpbdzp4ac5#fastq_validation_demux_dir -->
<g id="node39" class="node">
<title>file:///tmp/tmpbdzp4ac5#fastq_validation_demux_dir</title>
<polygon fill="#94ddf4" stroke="#000000" points="302,-366.4286 302,-402.4286 516,-402.4286 516,-366.4286 302,-366.4286"/>
<text text-anchor="middle" x="409" y="-380.7286" font-family="Times,serif" font-size="14.00" fill="#000000">fastq_validation_demux_dir</text>
</g>
<!-- file:///tmp/tmpbdzp4ac5#run_tso500_ctdna_demultiplex_workflow_step&#45;&gt;file:///tmp/tmpbdzp4ac5#fastq_validation_demux_dir -->
<g id="edge52" class="edge">
<title>file:///tmp/tmpbdzp4ac5#run_tso500_ctdna_demultiplex_workflow_step&#45;&gt;file:///tmp/tmpbdzp4ac5#fastq_validation_demux_dir</title>
<path fill="none" stroke="#000000" d="M3408.4243,-1828.3398C3087.6052,-1673.8988 812.0865,-578.4729 455.8594,-406.9866"/>
<polygon fill="#000000" stroke="#000000" points="457.1277,-403.7127 446.5992,-402.5287 454.0914,-410.0199 457.1277,-403.7127"/>
</g>
<!-- file:///tmp/tmpbdzp4ac5#resource_verification_demux_dir -->
<g id="node40" class="node">
<title>file:///tmp/tmpbdzp4ac5#resource_verification_demux_dir</title>
<polygon fill="#94ddf4" stroke="#000000" points="534,-366.4286 534,-402.4286 786,-402.4286 786,-366.4286 534,-366.4286"/>
<text text-anchor="middle" x="660" y="-380.7286" font-family="Times,serif" font-size="14.00" fill="#000000">resource_verification_demux_dir</text>
</g>
<!-- file:///tmp/tmpbdzp4ac5#run_tso500_ctdna_demultiplex_workflow_step&#45;&gt;file:///tmp/tmpbdzp4ac5#resource_verification_demux_dir -->
<g id="edge53" class="edge">
<title>file:///tmp/tmpbdzp4ac5#run_tso500_ctdna_demultiplex_workflow_step&#45;&gt;file:///tmp/tmpbdzp4ac5#resource_verification_demux_dir</title>
<path fill="none" stroke="#000000" d="M3411.5298,-1828.3398C3117.4431,-1674.0129 1032.8572,-580.0917 703.7141,-407.3683"/>
<polygon fill="#000000" stroke="#000000" points="704.9729,-404.0763 694.4917,-402.5287 701.7202,-410.2747 704.9729,-404.0763"/>
</g>
<!-- file:///tmp/tmpbdzp4ac5#run_tso500_ctdna_analysis_workflow_step&#45;&gt;file:///tmp/tmpbdzp4ac5#run_tso500_ctdna_reporting_workflow_step -->
<g id="edge2" class="edge">
<title>file:///tmp/tmpbdzp4ac5#run_tso500_ctdna_analysis_workflow_step&#45;&gt;file:///tmp/tmpbdzp4ac5#run_tso500_ctdna_reporting_workflow_step</title>
<path fill="none" stroke="#000000" d="M3698.7682,-1341.3357C3892.2284,-1265.7 4655.9204,-974.9675 4876.2489,-893.0339"/>
<polygon fill="#000000" stroke="#000000" points="4877.5556,-896.2823 4885.7114,-889.5196 4875.1184,-889.7202 4877.5556,-896.2823"/>
</g>
<!-- file:///tmp/tmpbdzp4ac5#run_tso500_ctdna_analysis_workflow_step&#45;&gt;file:///tmp/tmpbdzp4ac5#run_tso500_ctdna_reporting_workflow_step -->
<g id="edge3" class="edge">
<title>file:///tmp/tmpbdzp4ac5#run_tso500_ctdna_analysis_workflow_step&#45;&gt;file:///tmp/tmpbdzp4ac5#run_tso500_ctdna_reporting_workflow_step</title>
<path fill="none" stroke="#000000" d="M3704.294,-1341.3357C3908.0287,-1265.775 4670.5626,-975.5436 4881.6084,-893.2781"/>
<polygon fill="#000000" stroke="#000000" points="4883.1942,-896.4164 4891.2369,-889.5196 4880.6488,-889.8956 4883.1942,-896.4164"/>
</g>
<!-- file:///tmp/tmpbdzp4ac5#get_cttso_outputs_by_sample -->
<g id="node5" class="node">
<title>file:///tmp/tmpbdzp4ac5#get_cttso_outputs_by_sample</title>
<polygon fill="#fafad2" stroke="#000000" points="6091,-366.4286 6091,-402.4286 6387,-402.4286 6387,-366.4286 6091,-366.4286"/>
<text text-anchor="middle" x="6239" y="-380.7286" font-family="Times,serif" font-size="14.00" fill="#000000">get&#45;tso500&#45;outputs&#45;per&#45;sample v(1.0.0)</text>
</g>
<!-- file:///tmp/tmpbdzp4ac5#run_tso500_ctdna_analysis_workflow_step&#45;&gt;file:///tmp/tmpbdzp4ac5#get_cttso_outputs_by_sample -->
<g id="edge7" class="edge">
<title>file:///tmp/tmpbdzp4ac5#run_tso500_ctdna_analysis_workflow_step&#45;&gt;file:///tmp/tmpbdzp4ac5#get_cttso_outputs_by_sample</title>
<path fill="none" stroke="#000000" d="M3719.0727,-1341.392C3926.0318,-1283.4258 4586.6383,-1093.757 5117,-889.9286 5544.7899,-725.5207 6043.4448,-481.715 6193.8465,-407.0041"/>
<polygon fill="#000000" stroke="#000000" points="6195.436,-410.1226 6202.8316,-402.5361 6192.3192,-403.8548 6195.436,-410.1226"/>
</g>
<!-- file:///tmp/tmpbdzp4ac5#variant_caller_analysis_dir -->
<g id="node14" class="node">
<title>file:///tmp/tmpbdzp4ac5#variant_caller_analysis_dir</title>
<polygon fill="#94ddf4" stroke="#000000" points="2817.5,-366.4286 2817.5,-402.4286 3026.5,-402.4286 3026.5,-366.4286 2817.5,-366.4286"/>
<text text-anchor="middle" x="2922" y="-380.7286" font-family="Times,serif" font-size="14.00" fill="#000000">variant_caller_analysis_dir</text>
</g>
<!-- file:///tmp/tmpbdzp4ac5#run_tso500_ctdna_analysis_workflow_step&#45;&gt;file:///tmp/tmpbdzp4ac5#variant_caller_analysis_dir -->
<g id="edge27" class="edge">
<title>file:///tmp/tmpbdzp4ac5#run_tso500_ctdna_analysis_workflow_step&#45;&gt;file:///tmp/tmpbdzp4ac5#variant_caller_analysis_dir</title>
<path fill="none" stroke="#000000" d="M3640.3522,-1341.2502C3550.8268,-1222.0053 3047.8984,-552.1212 2941.6954,-410.6622"/>
<polygon fill="#000000" stroke="#000000" points="2944.3567,-408.3775 2935.5537,-402.4818 2938.7587,-412.5802 2944.3567,-408.3775"/>
</g>
<!-- file:///tmp/tmpbdzp4ac5#dna_qc_metrics_analysis_dir -->
<g id="node15" class="node">
<title>file:///tmp/tmpbdzp4ac5#dna_qc_metrics_analysis_dir</title>
<polygon fill="#94ddf4" stroke="#000000" points="3044.5,-366.4286 3044.5,-402.4286 3267.5,-402.4286 3267.5,-366.4286 3044.5,-366.4286"/>
<text text-anchor="middle" x="3156" y="-380.7286" font-family="Times,serif" font-size="14.00" fill="#000000">dna_qc_metrics_analysis_dir</text>
</g>
<!-- file:///tmp/tmpbdzp4ac5#run_tso500_ctdna_analysis_workflow_step&#45;&gt;file:///tmp/tmpbdzp4ac5#dna_qc_metrics_analysis_dir -->
<g id="edge28" class="edge">
<title>file:///tmp/tmpbdzp4ac5#run_tso500_ctdna_analysis_workflow_step&#45;&gt;file:///tmp/tmpbdzp4ac5#dna_qc_metrics_analysis_dir</title>
<path fill="none" stroke="#000000" d="M3644.715,-1341.2502C3583.9298,-1222.243 3243.0156,-554.7905 3169.8347,-411.5147"/>
<polygon fill="#000000" stroke="#000000" points="3172.8867,-409.7953 3165.221,-402.4818 3166.6528,-412.9794 3172.8867,-409.7953"/>
</g>
<!-- file:///tmp/tmpbdzp4ac5#small_variant_filter_analysis_dir -->
<g id="node17" class="node">
<title>file:///tmp/tmpbdzp4ac5#small_variant_filter_analysis_dir</title>
<polygon fill="#94ddf4" stroke="#000000" points="3285.5,-366.4286 3285.5,-402.4286 3534.5,-402.4286 3534.5,-366.4286 3285.5,-366.4286"/>
<text text-anchor="middle" x="3410" y="-380.7286" font-family="Times,serif" font-size="14.00" fill="#000000">small_variant_filter_analysis_dir</text>
</g>
<!-- file:///tmp/tmpbdzp4ac5#run_tso500_ctdna_analysis_workflow_step&#45;&gt;file:///tmp/tmpbdzp4ac5#small_variant_filter_analysis_dir -->
<g id="edge30" class="edge">
<title>file:///tmp/tmpbdzp4ac5#run_tso500_ctdna_analysis_workflow_step&#45;&gt;file:///tmp/tmpbdzp4ac5#small_variant_filter_analysis_dir</title>
<path fill="none" stroke="#000000" d="M3649.4507,-1341.2502C3619.7279,-1222.4808 3453.3011,-557.4555 3416.995,-412.3798"/>
<polygon fill="#000000" stroke="#000000" points="3420.341,-411.3329 3414.5179,-402.4818 3413.5504,-413.0324 3420.341,-411.3329"/>
</g>
<!-- file:///tmp/tmpbdzp4ac5#analysis_workflow_output -->
<g id="node18" class="node">
<title>file:///tmp/tmpbdzp4ac5#analysis_workflow_output</title>
<polygon fill="#94ddf4" stroke="#000000" points="3552.5,-366.4286 3552.5,-402.4286 3755.5,-402.4286 3755.5,-366.4286 3552.5,-366.4286"/>
<text text-anchor="middle" x="3654" y="-380.7286" font-family="Times,serif" font-size="14.00" fill="#000000">analysis_workflow_output</text>
</g>
<!-- file:///tmp/tmpbdzp4ac5#run_tso500_ctdna_analysis_workflow_step&#45;&gt;file:///tmp/tmpbdzp4ac5#analysis_workflow_output -->
<g id="edge31" class="edge">
<title>file:///tmp/tmpbdzp4ac5#run_tso500_ctdna_analysis_workflow_step&#45;&gt;file:///tmp/tmpbdzp4ac5#analysis_workflow_output</title>
<path fill="none" stroke="#000000" d="M3654,-1341.2502C3654,-1222.5997 3654,-558.7863 3654,-412.817"/>
<polygon fill="#000000" stroke="#000000" points="3657.5001,-412.4818 3654,-402.4818 3650.5001,-412.4818 3657.5001,-412.4818"/>
</g>
<!-- file:///tmp/tmpbdzp4ac5#msi_analysis_dir -->
<g id="node20" class="node">
<title>file:///tmp/tmpbdzp4ac5#msi_analysis_dir</title>
<polygon fill="#94ddf4" stroke="#000000" points="3773.5,-366.4286 3773.5,-402.4286 3908.5,-402.4286 3908.5,-366.4286 3773.5,-366.4286"/>
<text text-anchor="middle" x="3841" y="-380.7286" font-family="Times,serif" font-size="14.00" fill="#000000">msi_analysis_dir</text>
</g>
<!-- file:///tmp/tmpbdzp4ac5#run_tso500_ctdna_analysis_workflow_step&#45;&gt;file:///tmp/tmpbdzp4ac5#msi_analysis_dir -->
<g id="edge33" class="edge">
<title>file:///tmp/tmpbdzp4ac5#run_tso500_ctdna_analysis_workflow_step&#45;&gt;file:///tmp/tmpbdzp4ac5#msi_analysis_dir</title>
<path fill="none" stroke="#000000" d="M3657.4865,-1341.2502C3680.2659,-1222.4808 3807.8143,-557.4555 3835.6391,-412.3798"/>
<polygon fill="#000000" stroke="#000000" points="3839.0912,-412.9621 3837.5375,-402.4818 3832.2165,-411.6435 3839.0912,-412.9621"/>
</g>
<!-- file:///tmp/tmpbdzp4ac5#max_somatic_vaf_analysis_dir -->
<g id="node22" class="node">
<title>file:///tmp/tmpbdzp4ac5#max_somatic_vaf_analysis_dir</title>
<polygon fill="#94ddf4" stroke="#000000" points="3926.5,-366.4286 3926.5,-402.4286 4159.5,-402.4286 4159.5,-366.4286 3926.5,-366.4286"/>
<text text-anchor="middle" x="4043" y="-380.7286" font-family="Times,serif" font-size="14.00" fill="#000000">max_somatic_vaf_analysis_dir</text>
</g>
<!-- file:///tmp/tmpbdzp4ac5#run_tso500_ctdna_analysis_workflow_step&#45;&gt;file:///tmp/tmpbdzp4ac5#max_somatic_vaf_analysis_dir -->
<g id="edge35" class="edge">
<title>file:///tmp/tmpbdzp4ac5#run_tso500_ctdna_analysis_workflow_step&#45;&gt;file:///tmp/tmpbdzp4ac5#max_somatic_vaf_analysis_dir</title>
<path fill="none" stroke="#000000" d="M3661.2527,-1341.2502C3708.6861,-1222.3619 3974.4981,-556.1235 4032.0214,-411.9457"/>
<polygon fill="#000000" stroke="#000000" points="4035.3423,-413.0669 4035.7973,-402.4818 4028.8407,-410.4728 4035.3423,-413.0669"/>
</g>
<!-- file:///tmp/tmpbdzp4ac5#contamination_analysis_dir -->
<g id="node23" class="node">
<title>file:///tmp/tmpbdzp4ac5#contamination_analysis_dir</title>
<polygon fill="#94ddf4" stroke="#000000" points="4178,-366.4286 4178,-402.4286 4390,-402.4286 4390,-366.4286 4178,-366.4286"/>
<text text-anchor="middle" x="4284" y="-380.7286" font-family="Times,serif" font-size="14.00" fill="#000000">contamination_analysis_dir</text>
</g>
<!-- file:///tmp/tmpbdzp4ac5#run_tso500_ctdna_analysis_workflow_step&#45;&gt;file:///tmp/tmpbdzp4ac5#contamination_analysis_dir -->
<g id="edge36" class="edge">
<title>file:///tmp/tmpbdzp4ac5#run_tso500_ctdna_analysis_workflow_step&#45;&gt;file:///tmp/tmpbdzp4ac5#contamination_analysis_dir</title>
<path fill="none" stroke="#000000" d="M3665.7461,-1341.2502C3742.7198,-1222.1241 4174.7821,-553.4564 4266.7747,-411.0869"/>
<polygon fill="#000000" stroke="#000000" points="4269.8474,-412.7805 4272.3349,-402.4818 4263.968,-408.9815 4269.8474,-412.7805"/>
</g>
<!-- file:///tmp/tmpbdzp4ac5#merged_annotation_analysis_dir -->
<g id="node25" class="node">
<title>file:///tmp/tmpbdzp4ac5#merged_annotation_analysis_dir</title>
<polygon fill="#94ddf4" stroke="#000000" points="4408,-366.4286 4408,-402.4286 4656,-402.4286 4656,-366.4286 4408,-366.4286"/>
<text text-anchor="middle" x="4532" y="-380.7286" font-family="Times,serif" font-size="14.00" fill="#000000">merged_annotation_analysis_dir</text>
</g>
<!-- file:///tmp/tmpbdzp4ac5#run_tso500_ctdna_analysis_workflow_step&#45;&gt;file:///tmp/tmpbdzp4ac5#merged_annotation_analysis_dir -->
<g id="edge38" class="edge">
<title>file:///tmp/tmpbdzp4ac5#run_tso500_ctdna_analysis_workflow_step&#45;&gt;file:///tmp/tmpbdzp4ac5#merged_annotation_analysis_dir</title>
<path fill="none" stroke="#000000" d="M3670.3699,-1341.2502C3777.8586,-1221.8864 4382.1941,-550.7849 4508.7559,-410.2407"/>
<polygon fill="#000000" stroke="#000000" points="4511.652,-412.255 4515.7429,-402.4818 4506.4503,-407.5707 4511.652,-412.255"/>
</g>
<!-- file:///tmp/tmpbdzp4ac5#tmb_analysis_dir -->
<g id="node27" class="node">
<title>file:///tmp/tmpbdzp4ac5#tmb_analysis_dir</title>
<polygon fill="#94ddf4" stroke="#000000" points="4674,-366.4286 4674,-402.4286 4812,-402.4286 4812,-366.4286 4674,-366.4286"/>
<text text-anchor="middle" x="4743" y="-380.7286" font-family="Times,serif" font-size="14.00" fill="#000000">tmb_analysis_dir</text>
</g>
<!-- file:///tmp/tmpbdzp4ac5#run_tso500_ctdna_analysis_workflow_step&#45;&gt;file:///tmp/tmpbdzp4ac5#tmb_analysis_dir -->
<g id="edge40" class="edge">
<title>file:///tmp/tmpbdzp4ac5#run_tso500_ctdna_analysis_workflow_step&#45;&gt;file:///tmp/tmpbdzp4ac5#tmb_analysis_dir</title>
<path fill="none" stroke="#000000" d="M3674.3039,-1341.2502C3807.8897,-1221.6486 4560.1817,-548.109 4715.101,-409.4071"/>
<polygon fill="#000000" stroke="#000000" points="4717.7204,-411.7598 4722.836,-402.4818 4713.0511,-406.5446 4717.7204,-411.7598"/>
</g>
<!-- file:///tmp/tmpbdzp4ac5#stitched_realigned_analysis_dir -->
<g id="node28" class="node">
<title>file:///tmp/tmpbdzp4ac5#stitched_realigned_analysis_dir</title>
<polygon fill="#94ddf4" stroke="#000000" points="1052.5,-366.4286 1052.5,-402.4286 1295.5,-402.4286 1295.5,-366.4286 1052.5,-366.4286"/>
<text text-anchor="middle" x="1174" y="-380.7286" font-family="Times,serif" font-size="14.00" fill="#000000">stitched_realigned_analysis_dir</text>
</g>
<!-- file:///tmp/tmpbdzp4ac5#run_tso500_ctdna_analysis_workflow_step&#45;&gt;file:///tmp/tmpbdzp4ac5#stitched_realigned_analysis_dir -->
<g id="edge41" class="edge">
<title>file:///tmp/tmpbdzp4ac5#run_tso500_ctdna_analysis_workflow_step&#45;&gt;file:///tmp/tmpbdzp4ac5#stitched_realigned_analysis_dir</title>
<path fill="none" stroke="#000000" d="M3608.0317,-1341.3564C3302.1562,-1221.103 1563.1958,-537.4391 1229.4062,-406.2113"/>
<polygon fill="#000000" stroke="#000000" points="1230.5307,-402.8927 1219.9435,-402.4911 1227.9695,-409.4073 1230.5307,-402.8927"/>
</g>
<!-- file:///tmp/tmpbdzp4ac5#annotation_analysis_dir -->
<g id="node30" class="node">
<title>file:///tmp/tmpbdzp4ac5#annotation_analysis_dir</title>
<polygon fill="#94ddf4" stroke="#000000" points="1314,-366.4286 1314,-402.4286 1500,-402.4286 1500,-366.4286 1314,-366.4286"/>
<text text-anchor="middle" x="1407" y="-380.7286" font-family="Times,serif" font-size="14.00" fill="#000000">annotation_analysis_dir</text>
</g>
<!-- file:///tmp/tmpbdzp4ac5#run_tso500_ctdna_analysis_workflow_step&#45;&gt;file:///tmp/tmpbdzp4ac5#annotation_analysis_dir -->
<g id="edge43" class="edge">
<title>file:///tmp/tmpbdzp4ac5#run_tso500_ctdna_analysis_workflow_step&#45;&gt;file:///tmp/tmpbdzp4ac5#annotation_analysis_dir</title>
<path fill="none" stroke="#000000" d="M3612.1057,-1341.2502C3334.552,-1220.8164 1762.5565,-538.7088 1458.0729,-406.5898"/>
<polygon fill="#000000" stroke="#000000" points="1459.1724,-403.2516 1448.6056,-402.4818 1456.386,-409.6732 1459.1724,-403.2516"/>
</g>
<!-- file:///tmp/tmpbdzp4ac5#dna_fusion_filtering_analysis_dir -->
<g id="node31" class="node">
<title>file:///tmp/tmpbdzp4ac5#dna_fusion_filtering_analysis_dir</title>
<polygon fill="#94ddf4" stroke="#000000" points="1518,-366.4286 1518,-402.4286 1770,-402.4286 1770,-366.4286 1518,-366.4286"/>
<text text-anchor="middle" x="1644" y="-380.7286" font-family="Times,serif" font-size="14.00" fill="#000000">dna_fusion_filtering_analysis_dir</text>
</g>
<!-- file:///tmp/tmpbdzp4ac5#run_tso500_ctdna_analysis_workflow_step&#45;&gt;file:///tmp/tmpbdzp4ac5#dna_fusion_filtering_analysis_dir -->
<g id="edge44" class="edge">
<title>file:///tmp/tmpbdzp4ac5#run_tso500_ctdna_analysis_workflow_step&#45;&gt;file:///tmp/tmpbdzp4ac5#dna_fusion_filtering_analysis_dir</title>
<path fill="none" stroke="#000000" d="M3616.5245,-1341.2502C3368.4906,-1220.9353 1964.8297,-540.055 1690.496,-406.9827"/>
<polygon fill="#000000" stroke="#000000" points="1691.7422,-403.6972 1681.2173,-402.4818 1688.687,-409.9953 1691.7422,-403.6972"/>
</g>
<!-- file:///tmp/tmpbdzp4ac5#cnv_caller_analysis_dir -->
<g id="node33" class="node">
<title>file:///tmp/tmpbdzp4ac5#cnv_caller_analysis_dir</title>
<polygon fill="#94ddf4" stroke="#000000" points="1788.5,-366.4286 1788.5,-402.4286 1971.5,-402.4286 1971.5,-366.4286 1788.5,-366.4286"/>
<text text-anchor="middle" x="1880" y="-380.7286" font-family="Times,serif" font-size="14.00" fill="#000000">cnv_caller_analysis_dir</text>
</g>
<!-- file:///tmp/tmpbdzp4ac5#run_tso500_ctdna_analysis_workflow_step&#45;&gt;file:///tmp/tmpbdzp4ac5#cnv_caller_analysis_dir -->
<g id="edge46" class="edge">
<title>file:///tmp/tmpbdzp4ac5#run_tso500_ctdna_analysis_workflow_step&#45;&gt;file:///tmp/tmpbdzp4ac5#cnv_caller_analysis_dir</title>
<path fill="none" stroke="#000000" d="M3620.9246,-1341.2502C3402.2294,-1221.0542 2165.6075,-541.4001 1921.7574,-407.3788"/>
<polygon fill="#000000" stroke="#000000" points="1923.2969,-404.2311 1912.8475,-402.4818 1919.9253,-410.3656 1923.2969,-404.2311"/>
</g>
<!-- file:///tmp/tmpbdzp4ac5#phased_variants_analysis_dir -->
<g id="node34" class="node">
<title>file:///tmp/tmpbdzp4ac5#phased_variants_analysis_dir</title>
<polygon fill="#94ddf4" stroke="#000000" points="1989.5,-366.4286 1989.5,-402.4286 2216.5,-402.4286 2216.5,-366.4286 1989.5,-366.4286"/>
<text text-anchor="middle" x="2103" y="-380.7286" font-family="Times,serif" font-size="14.00" fill="#000000">phased_variants_analysis_dir</text>
</g>
<!-- file:///tmp/tmpbdzp4ac5#run_tso500_ctdna_analysis_workflow_step&#45;&gt;file:///tmp/tmpbdzp4ac5#phased_variants_analysis_dir -->
<g id="edge47" class="edge">
<title>file:///tmp/tmpbdzp4ac5#run_tso500_ctdna_analysis_workflow_step&#45;&gt;file:///tmp/tmpbdzp4ac5#phased_variants_analysis_dir</title>
<path fill="none" stroke="#000000" d="M3625.0823,-1341.2502C3434.1618,-1221.2325 2355.9116,-543.4156 2140.463,-407.9789"/>
<polygon fill="#000000" stroke="#000000" points="2142.0473,-404.8407 2131.7184,-402.4818 2138.3218,-410.767 2142.0473,-404.8407"/>
</g>
<!-- file:///tmp/tmpbdzp4ac5#align_collapse_fusion_caller_analysis_dir -->
<g id="node36" class="node">
<title>file:///tmp/tmpbdzp4ac5#align_collapse_fusion_caller_analysis_dir</title>
<polygon fill="#94ddf4" stroke="#000000" points="2235,-366.4286 2235,-402.4286 2545,-402.4286 2545,-366.4286 2235,-366.4286"/>
<text text-anchor="middle" x="2390" y="-380.7286" font-family="Times,serif" font-size="14.00" fill="#000000">align_collapse_fusion_caller_analysis_dir</text>
</g>
<!-- file:///tmp/tmpbdzp4ac5#run_tso500_ctdna_analysis_workflow_step&#45;&gt;file:///tmp/tmpbdzp4ac5#align_collapse_fusion_caller_analysis_dir -->
<g id="edge49" class="edge">
<title>file:///tmp/tmpbdzp4ac5#run_tso500_ctdna_analysis_workflow_step&#45;&gt;file:///tmp/tmpbdzp4ac5#align_collapse_fusion_caller_analysis_dir</title>
<path fill="none" stroke="#000000" d="M3630.4333,-1341.2502C3475.1493,-1221.4703 2599.5913,-546.0992 2421.5826,-408.7902"/>
<polygon fill="#000000" stroke="#000000" points="2423.4601,-405.8182 2413.4043,-402.4818 2419.1847,-411.3609 2423.4601,-405.8182"/>
</g>
<!-- file:///tmp/tmpbdzp4ac5#variant_matching_analysis_dir -->
<g id="node38" class="node">
<title>file:///tmp/tmpbdzp4ac5#variant_matching_analysis_dir</title>
<polygon fill="#94ddf4" stroke="#000000" points="2563,-366.4286 2563,-402.4286 2799,-402.4286 2799,-366.4286 2563,-366.4286"/>
<text text-anchor="middle" x="2681" y="-380.7286" font-family="Times,serif" font-size="14.00" fill="#000000">variant_matching_analysis_dir</text>
</g>
<!-- file:///tmp/tmpbdzp4ac5#run_tso500_ctdna_analysis_workflow_step&#45;&gt;file:///tmp/tmpbdzp4ac5#variant_matching_analysis_dir -->
<g id="edge51" class="edge">
<title>file:///tmp/tmpbdzp4ac5#run_tso500_ctdna_analysis_workflow_step&#45;&gt;file:///tmp/tmpbdzp4ac5#variant_matching_analysis_dir</title>
<path fill="none" stroke="#000000" d="M3635.8589,-1341.2502C3516.6212,-1221.7675 2845.6803,-549.4475 2706.3416,-409.8223"/>
<polygon fill="#000000" stroke="#000000" points="2708.5574,-407.0878 2699.0161,-402.4818 2703.6025,-412.0325 2708.5574,-407.0878"/>
</g>
<!-- file:///tmp/tmpbdzp4ac5#run_tso500_ctdna_reporting_workflow_step&#45;&gt;file:///tmp/tmpbdzp4ac5#get_cttso_outputs_by_sample -->
<g id="edge6" class="edge">
<title>file:///tmp/tmpbdzp4ac5#run_tso500_ctdna_reporting_workflow_step&#45;&gt;file:///tmp/tmpbdzp4ac5#get_cttso_outputs_by_sample</title>
<path fill="none" stroke="#000000" d="M4981.5468,-853.3728C5178.2619,-777.8921 5954.4648,-487.7554 6178.3192,-405.9896"/>
<polygon fill="#000000" stroke="#000000" points="6179.7379,-409.1978 6187.9328,-402.4825 6177.3389,-402.6217 6179.7379,-409.1978"/>
</g>
<!-- file:///tmp/tmpbdzp4ac5#run_tso500_ctdna_reporting_workflow_step&#45;&gt;file:///tmp/tmpbdzp4ac5#get_cttso_outputs_by_sample -->
<g id="edge8" class="edge">
<title>file:///tmp/tmpbdzp4ac5#run_tso500_ctdna_reporting_workflow_step&#45;&gt;file:///tmp/tmpbdzp4ac5#get_cttso_outputs_by_sample</title>
<path fill="none" stroke="#000000" d="M4987.0726,-853.3728C5194.1616,-777.9295 5969.8513,-488.0429 6183.9871,-406.1113"/>
<polygon fill="#000000" stroke="#000000" points="6185.3726,-409.3287 6193.4584,-402.4825 6182.8681,-402.792 6185.3726,-409.3287"/>
</g>
<!-- file:///tmp/tmpbdzp4ac5#results -->
<g id="node16" class="node">
<title>file:///tmp/tmpbdzp4ac5#results</title>
<polygon fill="#94ddf4" stroke="#000000" points="5478,-366.4286 5478,-402.4286 5544,-402.4286 5544,-366.4286 5478,-366.4286"/>
<text text-anchor="middle" x="5511" y="-380.7286" font-family="Times,serif" font-size="14.00" fill="#000000">results</text>
</g>
<!-- file:///tmp/tmpbdzp4ac5#run_tso500_ctdna_reporting_workflow_step&#45;&gt;file:///tmp/tmpbdzp4ac5#results -->
<g id="edge29" class="edge">
<title>file:///tmp/tmpbdzp4ac5#run_tso500_ctdna_reporting_workflow_step&#45;&gt;file:///tmp/tmpbdzp4ac5#results</title>
<path fill="none" stroke="#000000" d="M4957.4913,-853.2265C5045.8251,-778.4115 5381.0233,-494.5133 5482.0254,-408.9689"/>
<polygon fill="#000000" stroke="#000000" points="5484.3375,-411.5973 5489.7064,-402.4634 5479.8134,-406.2557 5484.3375,-411.5973"/>
</g>
<!-- file:///tmp/tmpbdzp4ac5#metrics_output_dir -->
<g id="node19" class="node">
<title>file:///tmp/tmpbdzp4ac5#metrics_output_dir</title>
<polygon fill="#94ddf4" stroke="#000000" points="5306,-366.4286 5306,-402.4286 5460,-402.4286 5460,-366.4286 5306,-366.4286"/>
<text text-anchor="middle" x="5383" y="-380.7286" font-family="Times,serif" font-size="14.00" fill="#000000">metrics_output_dir</text>
</g>
<!-- file:///tmp/tmpbdzp4ac5#run_tso500_ctdna_reporting_workflow_step&#45;&gt;file:///tmp/tmpbdzp4ac5#metrics_output_dir -->
<g id="edge32" class="edge">
<title>file:///tmp/tmpbdzp4ac5#run_tso500_ctdna_reporting_workflow_step&#45;&gt;file:///tmp/tmpbdzp4ac5#metrics_output_dir</title>
<path fill="none" stroke="#000000" d="M4952.7071,-853.2265C5021.1016,-778.7117 5279.8694,-496.7879 5359.5216,-410.008"/>
<polygon fill="#000000" stroke="#000000" points="5362.2629,-412.1973 5366.4465,-402.4634 5357.1059,-407.4639 5362.2629,-412.1973"/>
</g>
<!-- file:///tmp/tmpbdzp4ac5#combined_variant_output_dir -->
<g id="node21" class="node">
<title>file:///tmp/tmpbdzp4ac5#combined_variant_output_dir</title>
<polygon fill="#94ddf4" stroke="#000000" points="5060.5,-366.4286 5060.5,-402.4286 5287.5,-402.4286 5287.5,-366.4286 5060.5,-366.4286"/>
<text text-anchor="middle" x="5174" y="-380.7286" font-family="Times,serif" font-size="14.00" fill="#000000">combined_variant_output_dir</text>
</g>
<!-- file:///tmp/tmpbdzp4ac5#run_tso500_ctdna_reporting_workflow_step&#45;&gt;file:///tmp/tmpbdzp4ac5#combined_variant_output_dir -->
<g id="edge34" class="edge">
<title>file:///tmp/tmpbdzp4ac5#run_tso500_ctdna_reporting_workflow_step&#45;&gt;file:///tmp/tmpbdzp4ac5#combined_variant_output_dir</title>
<path fill="none" stroke="#000000" d="M4944.8955,-853.2265C4981.0913,-779.1619 5117.428,-500.1873 5160.72,-411.6024"/>
<polygon fill="#000000" stroke="#000000" points="5163.94,-412.9847 5165.1863,-402.4634 5157.6509,-409.9111 5163.94,-412.9847"/>
</g>
<!-- file:///tmp/tmpbdzp4ac5#reporting_workflow_output -->
<g id="node24" class="node">
<title>file:///tmp/tmpbdzp4ac5#reporting_workflow_output</title>
<polygon fill="#94ddf4" stroke="#000000" points="4830,-366.4286 4830,-402.4286 5042,-402.4286 5042,-366.4286 4830,-366.4286"/>
<text text-anchor="middle" x="4936" y="-380.7286" font-family="Times,serif" font-size="14.00" fill="#000000">reporting_workflow_output</text>
</g>
<!-- file:///tmp/tmpbdzp4ac5#run_tso500_ctdna_reporting_workflow_step&#45;&gt;file:///tmp/tmpbdzp4ac5#reporting_workflow_output -->
<g id="edge37" class="edge">
<title>file:///tmp/tmpbdzp4ac5#run_tso500_ctdna_reporting_workflow_step&#45;&gt;file:///tmp/tmpbdzp4ac5#reporting_workflow_output</title>
<path fill="none" stroke="#000000" d="M4936,-853.2265C4936,-779.4621 4936,-502.4451 4936,-412.6888"/>
<polygon fill="#000000" stroke="#000000" points="4939.5001,-412.4634 4936,-402.4634 4932.5001,-412.4635 4939.5001,-412.4634"/>
</g>
<!-- file:///tmp/tmpbdzp4ac5#cleanup_dir -->
<g id="node32" class="node">
<title>file:///tmp/tmpbdzp4ac5#cleanup_dir</title>
<polygon fill="#94ddf4" stroke="#000000" points="5798.5,-366.4286 5798.5,-402.4286 5899.5,-402.4286 5899.5,-366.4286 5798.5,-366.4286"/>
<text text-anchor="middle" x="5849" y="-380.7286" font-family="Times,serif" font-size="14.00" fill="#000000">cleanup_dir</text>
</g>
<!-- file:///tmp/tmpbdzp4ac5#run_tso500_ctdna_reporting_workflow_step&#45;&gt;file:///tmp/tmpbdzp4ac5#cleanup_dir -->
<g id="edge45" class="edge">
<title>file:///tmp/tmpbdzp4ac5#run_tso500_ctdna_reporting_workflow_step&#45;&gt;file:///tmp/tmpbdzp4ac5#cleanup_dir</title>
<path fill="none" stroke="#000000" d="M4969.8502,-853.3728C5110.6558,-778.2661 5649.908,-490.6256 5806.2712,-407.2205"/>
<polygon fill="#000000" stroke="#000000" points="5807.9776,-410.2771 5815.1536,-402.4825 5804.6831,-404.1008 5807.9776,-410.2771"/>
</g>
<!-- file:///tmp/tmpbdzp4ac5#sample_analysis_results_dir -->
<g id="node35" class="node">
<title>file:///tmp/tmpbdzp4ac5#sample_analysis_results_dir</title>
<polygon fill="#94ddf4" stroke="#000000" points="5562,-366.4286 5562,-402.4286 5780,-402.4286 5780,-366.4286 5562,-366.4286"/>
<text text-anchor="middle" x="5671" y="-380.7286" font-family="Times,serif" font-size="14.00" fill="#000000">sample_analysis_results_dir</text>
</g>
<!-- file:///tmp/tmpbdzp4ac5#run_tso500_ctdna_reporting_workflow_step&#45;&gt;file:///tmp/tmpbdzp4ac5#sample_analysis_results_dir -->
<g id="edge48" class="edge">
<title>file:///tmp/tmpbdzp4ac5#run_tso500_ctdna_reporting_workflow_step&#45;&gt;file:///tmp/tmpbdzp4ac5#sample_analysis_results_dir</title>
<path fill="none" stroke="#000000" d="M4963.4714,-853.2265C5076.7249,-778.1864 5507.4372,-492.8029 5635.1202,-408.2021"/>
<polygon fill="#000000" stroke="#000000" points="5637.3782,-410.9046 5643.7812,-402.4634 5633.5118,-405.0692 5637.3782,-410.9046"/>
</g>
<!-- file:///tmp/tmpbdzp4ac5#add_sample_type_and_pair_id_to_samplesheet_step -->
<g id="node4" class="node">
<title>file:///tmp/tmpbdzp4ac5#add_sample_type_and_pair_id_to_samplesheet_step</title>
<polygon fill="#fafad2" stroke="#000000" points="3072,-2316.4286 3072,-2352.4286 3398,-2352.4286 3398,-2316.4286 3072,-2316.4286"/>
<text text-anchor="middle" x="3235" y="-2330.7286" font-family="Times,serif" font-size="14.00" fill="#000000">custom&#45;create&#45;tso500&#45;samplesheet v(1.0.0)</text>
</g>
<!-- file:///tmp/tmpbdzp4ac5#add_sample_type_and_pair_id_to_samplesheet_step&#45;&gt;file:///tmp/tmpbdzp4ac5#run_tso500_ctdna_demultiplex_workflow_step -->
<g id="edge5" class="edge">
<title>file:///tmp/tmpbdzp4ac5#add_sample_type_and_pair_id_to_samplesheet_step&#45;&gt;file:///tmp/tmpbdzp4ac5#run_tso500_ctdna_demultiplex_workflow_step</title>
<path fill="none" stroke="#000000" d="M3242.8864,-2316.1891C3274.9434,-2242.0477 3395.601,-1962.9912 3434.1097,-1873.9286"/>
<polygon fill="#000000" stroke="#000000" points="3437.43,-1875.0683 3438.1862,-1864.5005 3431.0048,-1872.2902 3437.43,-1875.0683"/>
</g>
<!-- file:///tmp/tmpbdzp4ac5#outputs_by_sample -->
<g id="node37" class="node">
<title>file:///tmp/tmpbdzp4ac5#outputs_by_sample</title>
<polygon fill="#94ddf4" stroke="#000000" points="5917.5,-366.4286 5917.5,-402.4286 6072.5,-402.4286 6072.5,-366.4286 5917.5,-366.4286"/>
<text text-anchor="middle" x="5995" y="-380.7286" font-family="Times,serif" font-size="14.00" fill="#000000">outputs_by_sample</text>
</g>
<!-- file:///tmp/tmpbdzp4ac5#resources_dir -->
<g id="node6" class="node">
<title>file:///tmp/tmpbdzp4ac5#resources_dir</title>
<polygon fill="#94ddf4" stroke="#000000" points="3571.5,-2823.4286 3571.5,-2859.4286 3686.5,-2859.4286 3686.5,-2823.4286 3571.5,-2823.4286"/>
<text text-anchor="middle" x="3629" y="-2837.7286" font-family="Times,serif" font-size="14.00" fill="#000000">resources_dir</text>
</g>
<!-- file:///tmp/tmpbdzp4ac5#resources_dir&#45;&gt;file:///tmp/tmpbdzp4ac5#run_tso500_ctdna_demultiplex_workflow_step -->
<g id="edge9" class="edge">
<title>file:///tmp/tmpbdzp4ac5#resources_dir&#45;&gt;file:///tmp/tmpbdzp4ac5#run_tso500_ctdna_demultiplex_workflow_step</title>
<path fill="none" stroke="#000000" d="M3624.829,-2823.3081C3610.1611,-2759.2589 3560.0061,-2537.4702 3526,-2352.9286 3492.5552,-2171.4332 3460.8165,-1951.7446 3449.9522,-1874.7348"/>
<polygon fill="#000000" stroke="#000000" points="3453.3616,-1873.8447 3448.503,-1864.4296 3446.4298,-1874.8195 3453.3616,-1873.8447"/>
</g>
<!-- file:///tmp/tmpbdzp4ac5#resources_dir&#45;&gt;file:///tmp/tmpbdzp4ac5#run_tso500_ctdna_analysis_workflow_step -->
<g id="edge17" class="edge">
<title>file:///tmp/tmpbdzp4ac5#resources_dir&#45;&gt;file:///tmp/tmpbdzp4ac5#run_tso500_ctdna_analysis_workflow_step</title>
<path fill="none" stroke="#000000" d="M3629.3071,-2823.2254C3631.913,-2668.7483 3650.3032,-1578.5722 3653.5204,-1387.862"/>
<polygon fill="#000000" stroke="#000000" points="3657.0211,-1387.8434 3653.6903,-1377.7857 3650.0221,-1387.7252 3657.0211,-1387.8434"/>
</g>
<!-- file:///tmp/tmpbdzp4ac5#resources_dir&#45;&gt;file:///tmp/tmpbdzp4ac5#run_tso500_ctdna_reporting_workflow_step -->
<g id="edge19" class="edge">
<title>file:///tmp/tmpbdzp4ac5#resources_dir&#45;&gt;file:///tmp/tmpbdzp4ac5#run_tso500_ctdna_reporting_workflow_step</title>
<path fill="none" stroke="#000000" d="M3636.7927,-2823.2622C3692.8266,-2693.6956 4044.1384,-1898.8927 4466,-1340.9286 4609.4527,-1151.1947 4826.8036,-962.4561 4905.8857,-896.2469"/>
<polygon fill="#000000" stroke="#000000" points="4908.5325,-898.5968 4913.9693,-889.5033 4904.0484,-893.2216 4908.5325,-898.5968"/>
</g>
<!-- file:///tmp/tmpbdzp4ac5#run_parameters_xml -->
<g id="node7" class="node">
<title>file:///tmp/tmpbdzp4ac5#run_parameters_xml</title>
<polygon fill="#94ddf4" stroke="#000000" points="3704.5,-2823.4286 3704.5,-2859.4286 3869.5,-2859.4286 3869.5,-2823.4286 3704.5,-2823.4286"/>
<text text-anchor="middle" x="3787" y="-2837.7286" font-family="Times,serif" font-size="14.00" fill="#000000">run_parameters_xml</text>
</g>
<!-- file:///tmp/tmpbdzp4ac5#run_parameters_xml&#45;&gt;file:///tmp/tmpbdzp4ac5#run_tso500_ctdna_demultiplex_workflow_step -->
<g id="edge10" class="edge">
<title>file:///tmp/tmpbdzp4ac5#run_parameters_xml&#45;&gt;file:///tmp/tmpbdzp4ac5#run_tso500_ctdna_demultiplex_workflow_step</title>
<path fill="none" stroke="#000000" d="M3777.1276,-2823.3368C3743.0632,-2760.2612 3628.9803,-2543.5287 3564,-2352.9286 3503.4779,-2175.4053 3463.4804,-1952.4822 3450.5485,-1874.7266"/>
<polygon fill="#000000" stroke="#000000" points="3453.9822,-1874.0368 3448.9041,-1864.7382 3447.0751,-1875.1739 3453.9822,-1874.0368"/>
</g>
<!-- file:///tmp/tmpbdzp4ac5#run_parameters_xml&#45;&gt;file:///tmp/tmpbdzp4ac5#run_tso500_ctdna_reporting_workflow_step -->
<g id="edge26" class="edge">
<title>file:///tmp/tmpbdzp4ac5#run_parameters_xml&#45;&gt;file:///tmp/tmpbdzp4ac5#run_tso500_ctdna_reporting_workflow_step</title>
<path fill="none" stroke="#000000" d="M3799.8627,-2823.0473C3843.6727,-2759.8944 3989.5278,-2545.099 4083,-2352.9286 4294.9044,-1917.2722 4221.7188,-1745.6438 4488,-1340.9286 4615.2648,-1147.5016 4826.9146,-962.0612 4905.4476,-896.4397"/>
<polygon fill="#000000" stroke="#000000" points="4908.0414,-898.8347 4913.4914,-889.7491 4903.5651,-893.453 4908.0414,-898.8347"/>
</g>
<!-- file:///tmp/tmpbdzp4ac5#tso500_samples -->
<g id="node8" class="node">
<title>file:///tmp/tmpbdzp4ac5#tso500_samples</title>
<polygon fill="#94ddf4" stroke="#000000" points="3422.5,-2823.4286 3422.5,-2859.4286 3553.5,-2859.4286 3553.5,-2823.4286 3422.5,-2823.4286"/>
<text text-anchor="middle" x="3488" y="-2837.7286" font-family="Times,serif" font-size="14.00" fill="#000000">tso500_samples</text>
</g>
<!-- file:///tmp/tmpbdzp4ac5#tso500_samples&#45;&gt;file:///tmp/tmpbdzp4ac5#run_tso500_ctdna_demultiplex_workflow_step -->
<g id="edge22" class="edge">
<title>file:///tmp/tmpbdzp4ac5#tso500_samples&#45;&gt;file:///tmp/tmpbdzp4ac5#run_tso500_ctdna_demultiplex_workflow_step</title>
<path fill="none" stroke="#000000" d="M3487.2352,-2823.3092C3482.1644,-2703.1807 3453.407,-2021.9036 3447.1865,-1874.5369"/>
<polygon fill="#000000" stroke="#000000" points="3450.6813,-1874.3371 3446.7625,-1864.4936 3443.6875,-1874.6324 3450.6813,-1874.3371"/>
</g>
<!-- file:///tmp/tmpbdzp4ac5#tso500_samples&#45;&gt;file:///tmp/tmpbdzp4ac5#run_tso500_ctdna_analysis_workflow_step -->
<g id="edge11" class="edge">
<title>file:///tmp/tmpbdzp4ac5#tso500_samples&#45;&gt;file:///tmp/tmpbdzp4ac5#run_tso500_ctdna_analysis_workflow_step</title>
<path fill="none" stroke="#000000" d="M3491.5588,-2823.2305C3510.4669,-2725.6826 3599.6527,-2254.6114 3636,-1864.9286 3652.868,-1684.0854 3654.2292,-1465.4974 3654.1298,-1388.1977"/>
<polygon fill="#000000" stroke="#000000" points="3657.6291,-1387.8313 3654.1062,-1377.8393 3650.6291,-1387.8473 3657.6291,-1387.8313"/>
</g>
<!-- file:///tmp/tmpbdzp4ac5#tso500_samples&#45;&gt;file:///tmp/tmpbdzp4ac5#add_sample_type_and_pair_id_to_samplesheet_step -->
<g id="edge16" class="edge">
<title>file:///tmp/tmpbdzp4ac5#tso500_samples&#45;&gt;file:///tmp/tmpbdzp4ac5#add_sample_type_and_pair_id_to_samplesheet_step</title>
<path fill="none" stroke="#000000" d="M3478.9956,-2823.3842C3441.0738,-2747.3908 3294.2253,-2453.1133 3248.6021,-2361.6865"/>
<polygon fill="#000000" stroke="#000000" points="3251.6251,-2359.9059 3244.0283,-2352.5209 3245.3617,-2363.0315 3251.6251,-2359.9059"/>
</g>
<!-- file:///tmp/tmpbdzp4ac5#tso500_samples&#45;&gt;file:///tmp/tmpbdzp4ac5#get_cttso_outputs_by_sample -->
<g id="edge25" class="edge">
<title>file:///tmp/tmpbdzp4ac5#tso500_samples&#45;&gt;file:///tmp/tmpbdzp4ac5#get_cttso_outputs_by_sample</title>
<path fill="none" stroke="#000000" d="M3512.5428,-2823.3408C3526.8181,-2813.3088 3545.4137,-2801.0551 3563,-2791.9286 4583.8972,-2262.1336 5972,-2996.6086 5972,-1846.4286 5972,-1846.4286 5972,-1846.4286 5972,-1359.4286 5972,-970.614 6171.9619,-524.5635 6225.7908,-411.5327"/>
<polygon fill="#000000" stroke="#000000" points="6228.9503,-413.0384 6230.1164,-402.5079 6222.6379,-410.0127 6228.9503,-413.0384"/>
</g>
<!-- file:///tmp/tmpbdzp4ac5#samplesheet -->
<g id="node9" class="node">
<title>file:///tmp/tmpbdzp4ac5#samplesheet</title>
<polygon fill="#94ddf4" stroke="#000000" points="3122.5,-2823.4286 3122.5,-2859.4286 3229.5,-2859.4286 3229.5,-2823.4286 3122.5,-2823.4286"/>
<text text-anchor="middle" x="3176" y="-2837.7286" font-family="Times,serif" font-size="14.00" fill="#000000">samplesheet</text>
</g>
<!-- file:///tmp/tmpbdzp4ac5#samplesheet&#45;&gt;file:///tmp/tmpbdzp4ac5#add_sample_type_and_pair_id_to_samplesheet_step -->
<g id="edge12" class="edge">
<title>file:///tmp/tmpbdzp4ac5#samplesheet&#45;&gt;file:///tmp/tmpbdzp4ac5#add_sample_type_and_pair_id_to_samplesheet_step</title>
<path fill="none" stroke="#000000" d="M3178.0998,-2823.3842C3186.9164,-2747.6215 3220.9808,-2454.8984 3231.7304,-2362.525"/>
<polygon fill="#000000" stroke="#000000" points="3235.2151,-2362.8584 3232.8946,-2352.5209 3228.2621,-2362.0492 3235.2151,-2362.8584"/>
</g>
<!-- file:///tmp/tmpbdzp4ac5#run_info_xml -->
<g id="node10" class="node">
<title>file:///tmp/tmpbdzp4ac5#run_info_xml</title>
<polygon fill="#94ddf4" stroke="#000000" points="4031,-2823.4286 4031,-2859.4286 4141,-2859.4286 4141,-2823.4286 4031,-2823.4286"/>
<text text-anchor="middle" x="4086" y="-2837.7286" font-family="Times,serif" font-size="14.00" fill="#000000">run_info_xml</text>
</g>
<!-- file:///tmp/tmpbdzp4ac5#run_info_xml&#45;&gt;file:///tmp/tmpbdzp4ac5#run_tso500_ctdna_demultiplex_workflow_step -->
<g id="edge13" class="edge">
<title>file:///tmp/tmpbdzp4ac5#run_info_xml&#45;&gt;file:///tmp/tmpbdzp4ac5#run_tso500_ctdna_demultiplex_workflow_step</title>
<path fill="none" stroke="#000000" d="M4074.3453,-2823.3092C3996.8447,-2702.8199 3556.2332,-2017.8068 3463.2351,-1873.2238"/>
<polygon fill="#000000" stroke="#000000" points="3465.9731,-1871.0106 3457.6197,-1864.4936 3460.0858,-1874.7975 3465.9731,-1871.0106"/>
</g>
<!-- file:///tmp/tmpbdzp4ac5#run_info_xml&#45;&gt;file:///tmp/tmpbdzp4ac5#run_tso500_ctdna_reporting_workflow_step -->
<g id="edge14" class="edge">
<title>file:///tmp/tmpbdzp4ac5#run_info_xml&#45;&gt;file:///tmp/tmpbdzp4ac5#run_tso500_ctdna_reporting_workflow_step</title>
<path fill="none" stroke="#000000" d="M4087.8254,-2823.1812C4101.4728,-2693.0528 4195.6699,-1895.0652 4504,-1340.9286 4614.5504,-1142.2454 4825.5656,-960.3234 4904.8549,-896.0253"/>
<polygon fill="#000000" stroke="#000000" points="4907.3977,-898.4712 4912.9863,-889.4701 4903.0044,-893.0215 4907.3977,-898.4712"/>
</g>
<!-- file:///tmp/tmpbdzp4ac5#samplesheet_prefix -->
<g id="node11" class="node">
<title>file:///tmp/tmpbdzp4ac5#samplesheet_prefix</title>
<polygon fill="#94ddf4" stroke="#000000" points="3248,-2823.4286 3248,-2859.4286 3404,-2859.4286 3404,-2823.4286 3248,-2823.4286"/>
<text text-anchor="middle" x="3326" y="-2837.7286" font-family="Times,serif" font-size="14.00" fill="#000000">samplesheet_prefix</text>
</g>
<!-- file:///tmp/tmpbdzp4ac5#samplesheet_prefix&#45;&gt;file:///tmp/tmpbdzp4ac5#run_tso500_ctdna_demultiplex_workflow_step -->
<g id="edge15" class="edge">
<title>file:///tmp/tmpbdzp4ac5#samplesheet_prefix&#45;&gt;file:///tmp/tmpbdzp4ac5#run_tso500_ctdna_demultiplex_workflow_step</title>
<path fill="none" stroke="#000000" d="M3329.5911,-2823.3242C3342.1588,-2759.3285 3384.6116,-2537.6957 3407,-2352.9286 3428.9929,-2171.4253 3440.9411,-1951.7415 3444.6908,-1874.734"/>
<polygon fill="#000000" stroke="#000000" points="3448.2018,-1874.5851 3445.1847,-1864.429 3441.2099,-1874.2499 3448.2018,-1874.5851"/>
</g>
<!-- file:///tmp/tmpbdzp4ac5#samplesheet_prefix&#45;&gt;file:///tmp/tmpbdzp4ac5#run_tso500_ctdna_reporting_workflow_step -->
<g id="edge24" class="edge">
<title>file:///tmp/tmpbdzp4ac5#samplesheet_prefix&#45;&gt;file:///tmp/tmpbdzp4ac5#run_tso500_ctdna_reporting_workflow_step</title>
<path fill="none" stroke="#000000" d="M3340.9103,-2823.1844C3491.5329,-2638.8821 4736.2884,-1115.7962 4914.7313,-897.4531"/>
<polygon fill="#000000" stroke="#000000" points="4917.4633,-899.6411 4921.0813,-889.6832 4912.0431,-895.2114 4917.4633,-899.6411"/>
</g>
<!-- file:///tmp/tmpbdzp4ac5#samplesheet_prefix&#45;&gt;file:///tmp/tmpbdzp4ac5#add_sample_type_and_pair_id_to_samplesheet_step -->
<g id="edge18" class="edge">
<title>file:///tmp/tmpbdzp4ac5#samplesheet_prefix&#45;&gt;file:///tmp/tmpbdzp4ac5#add_sample_type_and_pair_id_to_samplesheet_step</title>
<path fill="none" stroke="#000000" d="M3322.7613,-2823.3842C3309.1628,-2747.6215 3256.6228,-2454.8984 3240.0429,-2362.525"/>
<polygon fill="#000000" stroke="#000000" points="3243.459,-2361.7452 3238.2473,-2352.5209 3236.5691,-2362.9819 3243.459,-2361.7452"/>
</g>
<!-- file:///tmp/tmpbdzp4ac5#fastq_list_rows -->
<g id="node12" class="node">
<title>file:///tmp/tmpbdzp4ac5#fastq_list_rows</title>
<polygon fill="#94ddf4" stroke="#000000" points="3887.5,-2823.4286 3887.5,-2859.4286 4012.5,-2859.4286 4012.5,-2823.4286 3887.5,-2823.4286"/>
<text text-anchor="middle" x="3950" y="-2837.7286" font-family="Times,serif" font-size="14.00" fill="#000000">fastq_list_rows</text>
</g>
<!-- file:///tmp/tmpbdzp4ac5#fastq_list_rows&#45;&gt;file:///tmp/tmpbdzp4ac5#run_tso500_ctdna_demultiplex_workflow_step -->
<g id="edge20" class="edge">
<title>file:///tmp/tmpbdzp4ac5#fastq_list_rows&#45;&gt;file:///tmp/tmpbdzp4ac5#run_tso500_ctdna_demultiplex_workflow_step</title>
<path fill="none" stroke="#000000" d="M3933.7113,-2823.2972C3879.2213,-2761.7778 3701.1653,-2553.6444 3602,-2352.9286 3517.1438,-2181.1752 3467.1267,-1953.7638 3451.4087,-1874.8386"/>
<polygon fill="#000000" stroke="#000000" points="3454.7807,-1873.8462 3449.4184,-1864.7086 3447.9121,-1875.1958 3454.7807,-1873.8462"/>
</g>
<!-- file:///tmp/tmpbdzp4ac5#fastq_list_rows&#45;&gt;file:///tmp/tmpbdzp4ac5#run_tso500_ctdna_analysis_workflow_step -->
<g id="edge23" class="edge">
<title>file:///tmp/tmpbdzp4ac5#fastq_list_rows&#45;&gt;file:///tmp/tmpbdzp4ac5#run_tso500_ctdna_analysis_workflow_step</title>
<path fill="none" stroke="#000000" d="M3946.3643,-2823.2254C3915.5105,-2668.7483 3697.7696,-1578.5722 3659.679,-1387.862"/>
<polygon fill="#000000" stroke="#000000" points="3663.0574,-1386.9065 3657.6665,-1377.7857 3656.1929,-1388.2776 3663.0574,-1386.9065"/>
</g>
<!-- file:///tmp/tmpbdzp4ac5#dragen_license_key -->
<g id="node13" class="node">
<title>file:///tmp/tmpbdzp4ac5#dragen_license_key</title>
<polygon fill="#94ddf4" stroke="#000000" points="4159,-2823.4286 4159,-2859.4286 4317,-2859.4286 4317,-2823.4286 4159,-2823.4286"/>
<text text-anchor="middle" x="4238" y="-2837.7286" font-family="Times,serif" font-size="14.00" fill="#000000">dragen_license_key</text>
</g>
<!-- file:///tmp/tmpbdzp4ac5#dragen_license_key&#45;&gt;file:///tmp/tmpbdzp4ac5#run_tso500_ctdna_analysis_workflow_step -->
<g id="edge21" class="edge">
<title>file:///tmp/tmpbdzp4ac5#dragen_license_key&#45;&gt;file:///tmp/tmpbdzp4ac5#run_tso500_ctdna_analysis_workflow_step</title>
<path fill="none" stroke="#000000" d="M4230.8268,-2823.2254C4169.8926,-2668.5945 3739.5005,-1576.4007 3664.9811,-1387.2951"/>
<polygon fill="#000000" stroke="#000000" points="3668.1564,-1385.8062 3661.2338,-1377.7857 3661.6438,-1388.3726 3668.1564,-1385.8062"/>
</g>
</g>
</svg>
