<?xml version="1.0" encoding="UTF-8" standalone="no"?>
<!DOCTYPE svg PUBLIC "-//W3C//DTD SVG 1.1//EN"
 "http://www.w3.org/Graphics/SVG/1.1/DTD/svg11.dtd">
<!-- Generated by graphviz version 2.43.0 (0)
 -->
<!-- Title: G Pages: 1 -->
<svg width="6553pt" height="2986pt"
 viewBox="0.00 0.00 6553.00 2985.97" xmlns="http://www.w3.org/2000/svg" xmlns:xlink="http://www.w3.org/1999/xlink">
<g id="graph0" class="graph" transform="scale(1 1) rotate(0) translate(4 2981.97)">
<title>G</title>
<polygon fill="#eeeeee" stroke="transparent" points="-4,4 -4,-2981.97 6549,-2981.97 6549,4 -4,4"/>
<g id="clust1" class="cluster">
<title>cluster_inputs</title>
<polygon fill="#eeeeee" stroke="black" stroke-dasharray="5,2" points="3816,-2475.74 3816,-2930.71 5183,-2930.71 5183,-2475.74 3816,-2475.74"/>
<text text-anchor="middle" x="5116.5" y="-2483.54" font-family="Times,serif" font-size="14.00">Workflow Inputs</text>
</g>
<g id="clust2" class="cluster">
<title>cluster_outputs</title>
<polygon fill="#eeeeee" stroke="black" stroke-dasharray="5,2" points="8,-271.8 8,-726.77 6011,-726.77 6011,-271.8 8,-271.8"/>
<text text-anchor="middle" x="5938.5" y="-279.6" font-family="Times,serif" font-size="14.00">Workflow Outputs</text>
</g>
<!-- coerce_valid_index -->
<g id="node1" class="node">
<title>coerce_valid_index</title>
<g id="a_node1"><a xlink:title="Coerce a valid index for ctTSO sample&#10;">
<polygon fill="#94ddf4" stroke="black" points="4288,-2752.5 4288,-2789.5 4438,-2789.5 4438,-2752.5 4288,-2752.5"/>
<text text-anchor="middle" x="4363" y="-2767.3" font-family="Times,serif" font-size="14.00">coerce_valid_index</text>
</a>
</g>
</g>
<!-- add_sample_type_and_pair_id_to_samplesheet_step -->
<g id="node43" class="node">
<title>add_sample_type_and_pair_id_to_samplesheet_step</title>
<g id="a_node43"><a xlink:href="https://github.com/umccr/cwl-ica/blob/main/.github/catalogue/docs/tools/custom-create-tso500-samplesheet/1.0.0/custom-create-tso500-samplesheet__1.0.0.md" xlink:title="Adds the sample_type and pair_id attribute from each of the tso500 samples to&#10;the samplesheet. Here the sample_id attribute of the tso500 sample must match&#10;that of the Sample_ID column in the sample sheet. &#160;This tool also overwrites the Sample_Project attribute&#10;so that it matches the Sample_ID. This tool expects a v1 samplesheet as input&#10;">
<polygon fill="lightgoldenrodyellow" stroke="black" points="4343.5,-2297.5 4343.5,-2334.5 4668.5,-2334.5 4668.5,-2297.5 4343.5,-2297.5"/>
<text text-anchor="middle" x="4506" y="-2312.3" font-family="Times,serif" font-size="14.00">custom&#45;create&#45;tso500&#45;samplesheet v(1.0.0)</text>
</a>
</g>
</g>
<!-- coerce_valid_index&#45;&gt;add_sample_type_and_pair_id_to_samplesheet_step -->
<g id="edge38" class="edge">
<title>coerce_valid_index&#45;&gt;add_sample_type_and_pair_id_to_samplesheet_step</title>
<path fill="none" stroke="black" d="M4368.61,-2752.24C4390.57,-2682.68 4470.83,-2428.41 4497.4,-2344.25"/>
<polygon fill="black" stroke="black" points="4500.76,-2345.23 4500.43,-2334.64 4494.08,-2343.12 4500.76,-2345.23"/>
</g>
<!-- samplesheet -->
<g id="node2" class="node">
<title>samplesheet</title>
<g id="a_node2"><a xlink:title="The sample sheet file, expects a V2 samplesheet.&#10;Even though we don&#39;t demultiplex, we still need the information on Sample_Type and Pair_ID to determine which&#10;workflow (DNA / RNA) to run through, we gather this through the tso500_samples input schema and then append to the&#10;samplesheet. Please make sure that the sample_id in the tso500 sample schema match the Sample_ID in the&#10;&quot;&lt;samplesheet_prefix&gt;_Data&quot; column.&#10;">
<polygon fill="#94ddf4" stroke="black" points="4455.5,-2752.5 4455.5,-2789.5 4562.5,-2789.5 4562.5,-2752.5 4455.5,-2752.5"/>
<text text-anchor="middle" x="4509" y="-2767.3" font-family="Times,serif" font-size="14.00">samplesheet</text>
</a>
</g>
</g>
<!-- samplesheet&#45;&gt;add_sample_type_and_pair_id_to_samplesheet_step -->
<g id="edge39" class="edge">
<title>samplesheet&#45;&gt;add_sample_type_and_pair_id_to_samplesheet_step</title>
<path fill="none" stroke="black" d="M4508.88,-2752.24C4508.42,-2682.82 4506.74,-2429.44 4506.18,-2344.77"/>
<polygon fill="black" stroke="black" points="4509.68,-2344.61 4506.12,-2334.64 4502.68,-2344.66 4509.68,-2344.61"/>
</g>
<!-- samplesheet_prefix -->
<g id="node3" class="node">
<title>samplesheet_prefix</title>
<g id="a_node3"><a xlink:title="Points to the TSO500 section of the samplesheet. &#160;If you are using a samplesheet from BCLConvert,&#10;please set this to &quot;BCLConvert&quot;&#10;">
<polygon fill="#94ddf4" stroke="black" points="4580.5,-2752.5 4580.5,-2789.5 4735.5,-2789.5 4735.5,-2752.5 4580.5,-2752.5"/>
<text text-anchor="middle" x="4658" y="-2767.3" font-family="Times,serif" font-size="14.00">samplesheet_prefix</text>
</a>
</g>
</g>
<!-- run_tso500_ctdna_reporting_workflow_step -->
<g id="node41" class="node">
<title>run_tso500_ctdna_reporting_workflow_step</title>
<g id="a_node41"><a xlink:href="https://github.com/umccr/cwl-ica/blob/main/.github/catalogue/docs/tools/tso500-ctdna-reporting-workflow/1.1.0--120/tso500-ctdna-reporting-workflow__1.1.0--120.md" xlink:title="Run the tso500 ctdna repair workflow step&#10;">
<polygon fill="lightgoldenrodyellow" stroke="black" points="4829.5,-985.5 4829.5,-1022.5 5170.5,-1022.5 5170.5,-985.5 4829.5,-985.5"/>
<text text-anchor="middle" x="5000" y="-1000.3" font-family="Times,serif" font-size="14.00">tso500&#45;ctdna&#45;reporting&#45;workflow v(1.1.0.120)</text>
</a>
</g>
</g>
<!-- samplesheet_prefix&#45;&gt;run_tso500_ctdna_reporting_workflow_step -->
<g id="edge40" class="edge">
<title>samplesheet_prefix&#45;&gt;run_tso500_ctdna_reporting_workflow_step</title>
<path fill="none" stroke="black" d="M4661.44,-2752.24C4694.41,-2582.1 4954.1,-1241.9 4994.68,-1032.48"/>
<polygon fill="black" stroke="black" points="4998.12,-1033.08 4996.59,-1022.59 4991.25,-1031.75 4998.12,-1033.08"/>
</g>
<!-- run_tso500_ctdna_demultiplex_workflow_step -->
<g id="node42" class="node">
<title>run_tso500_ctdna_demultiplex_workflow_step</title>
<g id="a_node42"><a xlink:href="https://github.com/umccr/cwl-ica/blob/main/.github/catalogue/docs/tools/tso500-ctdna-demultiplex-workflow/1.1.0--120/tso500-ctdna-demultiplex-workflow__1.1.0--120.md" xlink:title="Runs the tso500 ctdna demultiplex workflow step. This involves making sure that the fastq list rows are mounted&#10;as per as the WDL task expects them to be (which is every sample in its own project). Then creating an&#10;input.json to match the inputs of the CWL with a WDL compatible input file and launching this through cromwell.&#10;">
<polygon fill="lightgoldenrodyellow" stroke="black" points="4370,-1860.5 4370,-1897.5 4728,-1897.5 4728,-1860.5 4370,-1860.5"/>
<text text-anchor="middle" x="4549" y="-1875.3" font-family="Times,serif" font-size="14.00">tso500&#45;ctdna&#45;demultiplex&#45;workflow v(1.1.0.120)</text>
</a>
</g>
</g>
<!-- samplesheet_prefix&#45;&gt;run_tso500_ctdna_demultiplex_workflow_step -->
<g id="edge41" class="edge">
<title>samplesheet_prefix&#45;&gt;run_tso500_ctdna_demultiplex_workflow_step</title>
<path fill="none" stroke="black" d="M4661.18,-2752.26C4671.9,-2689.59 4704.59,-2472.95 4678,-2297 4655.1,-2145.5 4587.91,-1973.2 4560.67,-1907.45"/>
<polygon fill="black" stroke="black" points="4563.74,-1905.71 4556.65,-1897.83 4557.28,-1908.41 4563.74,-1905.71"/>
</g>
<!-- samplesheet_prefix&#45;&gt;add_sample_type_and_pair_id_to_samplesheet_step -->
<g id="edge42" class="edge">
<title>samplesheet_prefix&#45;&gt;add_sample_type_and_pair_id_to_samplesheet_step</title>
<path fill="none" stroke="black" d="M4652.04,-2752.24C4628.7,-2682.68 4543.38,-2428.41 4515.14,-2344.25"/>
<polygon fill="black" stroke="black" points="4518.42,-2343 4511.92,-2334.64 4511.78,-2345.23 4518.42,-2343"/>
</g>
<!-- tso500_samples -->
<g id="node4" class="node">
<title>tso500_samples</title>
<g id="a_node4"><a xlink:title="A list of tso500 samples each element has the following attributes:&#10;* sample_id&#10;* sample_type&#10;* pair_id&#10;">
<polygon fill="#94ddf4" stroke="black" points="4138.5,-2752.5 4138.5,-2789.5 4269.5,-2789.5 4269.5,-2752.5 4138.5,-2752.5"/>
<text text-anchor="middle" x="4204" y="-2767.3" font-family="Times,serif" font-size="14.00">tso500_samples</text>
</a>
</g>
</g>
<!-- run_tso500_ctdna_analysis_workflow_step -->
<g id="node39" class="node">
<title>run_tso500_ctdna_analysis_workflow_step</title>
<g id="a_node39"><a xlink:href="https://github.com/umccr/cwl-ica/blob/main/.github/catalogue/docs/tools/tso500-ctdna-analysis-workflow/1.1.0--120/tso500-ctdna-analysis-workflow__1.1.0--120.md" xlink:title="Run the tso500 ctdna analysis workflow step. This involves making sure that the fastq list rows are mounted as&#10;per the WDL task expects them to be (which is every sample in its own project). Then creating an&#10;input.json to match the inputs of the CWL with a WDL compatible input file and launching this through cromwell.&#10;">
<polygon fill="lightgoldenrodyellow" stroke="black" points="2594,-1423.5 2594,-1460.5 2926,-1460.5 2926,-1423.5 2594,-1423.5"/>
<text text-anchor="middle" x="2760" y="-1438.3" font-family="Times,serif" font-size="14.00">tso500&#45;ctdna&#45;analysis&#45;workflow v(1.1.0.120)</text>
</a>
</g>
</g>
<!-- tso500_samples&#45;&gt;run_tso500_ctdna_analysis_workflow_step -->
<g id="edge43" class="edge">
<title>tso500_samples&#45;&gt;run_tso500_ctdna_analysis_workflow_step</title>
<path fill="none" stroke="black" d="M4184.95,-2752.49C4029.43,-2609.57 2969.68,-1635.69 2786.84,-1467.66"/>
<polygon fill="black" stroke="black" points="2789,-1464.9 2779.27,-1460.71 2784.27,-1470.05 2789,-1464.9"/>
</g>
<!-- get_cttso_outputs_by_sample -->
<g id="node40" class="node">
<title>get_cttso_outputs_by_sample</title>
<g id="a_node40"><a xlink:href="https://github.com/umccr/cwl-ica/blob/main/.github/catalogue/docs/expressions/get-tso500-outputs-per-sample/1.0.0/get-tso500-outputs-per-sample__1.0.0.md" xlink:title="Get the CTTSO outputs per sample, contains all intermediate dirs and results dir&#10;along with the sampleanalysis results json file&#10;">
<polygon fill="#ee9a00" stroke="black" points="6249,-548.5 6249,-585.5 6545,-585.5 6545,-548.5 6249,-548.5"/>
<text text-anchor="middle" x="6397" y="-563.3" font-family="Times,serif" font-size="14.00">get&#45;tso500&#45;outputs&#45;per&#45;sample v(1.0.0)</text>
</a>
</g>
</g>
<!-- tso500_samples&#45;&gt;get_cttso_outputs_by_sample -->
<g id="edge44" class="edge">
<title>tso500_samples&#45;&gt;get_cttso_outputs_by_sample</title>
<path fill="none" stroke="black" d="M4205.16,-2752.16C4210.17,-2686.38 4234.51,-2453.23 4335,-2297 4484.55,-2064.5 6120.27,-783.89 6366.14,-592.05"/>
<polygon fill="black" stroke="black" points="6368.56,-594.6 6374.29,-585.69 6364.25,-589.08 6368.56,-594.6"/>
</g>
<!-- tso500_samples&#45;&gt;run_tso500_ctdna_demultiplex_workflow_step -->
<g id="edge45" class="edge">
<title>tso500_samples&#45;&gt;run_tso500_ctdna_demultiplex_workflow_step</title>
<path fill="none" stroke="black" d="M4205.55,-2752.23C4211.56,-2688.56 4236.27,-2466.7 4302,-2297 4363.68,-2137.76 4482.8,-1968.92 4529.52,-1905.78"/>
<polygon fill="black" stroke="black" points="4532.46,-1907.7 4535.62,-1897.59 4526.84,-1903.52 4532.46,-1907.7"/>
</g>
<!-- tso500_samples&#45;&gt;add_sample_type_and_pair_id_to_samplesheet_step -->
<g id="edge46" class="edge">
<title>tso500_samples&#45;&gt;add_sample_type_and_pair_id_to_samplesheet_step</title>
<path fill="none" stroke="black" d="M4215.84,-2752.24C4262.45,-2682.32 4433.46,-2425.82 4488.68,-2342.98"/>
<polygon fill="black" stroke="black" points="4491.61,-2344.9 4494.24,-2334.64 4485.78,-2341.01 4491.61,-2344.9"/>
</g>
<!-- dragen_license_key -->
<g id="node5" class="node">
<title>dragen_license_key</title>
<g id="a_node5"><a xlink:title="File containing the dragen license&#10;">
<polygon fill="#94ddf4" stroke="black" points="3824.5,-2752.5 3824.5,-2789.5 3979.5,-2789.5 3979.5,-2752.5 3824.5,-2752.5"/>
<text text-anchor="middle" x="3902" y="-2767.3" font-family="Times,serif" font-size="14.00">dragen_license_key</text>
</a>
</g>
</g>
<!-- dragen_license_key&#45;&gt;run_tso500_ctdna_analysis_workflow_step -->
<g id="edge47" class="edge">
<title>dragen_license_key&#45;&gt;run_tso500_ctdna_analysis_workflow_step</title>
<path fill="none" stroke="black" d="M3886.72,-2752.24C3763.15,-2608.66 2928.15,-1638.39 2781.85,-1468.39"/>
<polygon fill="black" stroke="black" points="2784.4,-1465.99 2775.23,-1460.69 2779.1,-1470.56 2784.4,-1465.99"/>
</g>
<!-- fastq_list_rows -->
<g id="node6" class="node">
<title>fastq_list_rows</title>
<g id="a_node6"><a xlink:title="A list of fastq list rows where each element has the following attributes&#10;* rgid &#160;# Not used&#10;* rgsm&#10;* rglb &#160;# Not used&#10;* read_1&#10;* read_2&#10;">
<polygon fill="#94ddf4" stroke="black" points="3997.5,-2752.5 3997.5,-2789.5 4120.5,-2789.5 4120.5,-2752.5 3997.5,-2752.5"/>
<text text-anchor="middle" x="4059" y="-2767.3" font-family="Times,serif" font-size="14.00">fastq_list_rows</text>
</a>
</g>
</g>
<!-- fastq_list_rows&#45;&gt;run_tso500_ctdna_analysis_workflow_step -->
<g id="edge48" class="edge">
<title>fastq_list_rows&#45;&gt;run_tso500_ctdna_analysis_workflow_step</title>
<path fill="none" stroke="black" d="M4041.62,-2752.24C3900.99,-2608.59 2950.32,-1637.42 2784.61,-1468.14"/>
<polygon fill="black" stroke="black" points="2786.82,-1465.39 2777.32,-1460.69 2781.81,-1470.29 2786.82,-1465.39"/>
</g>
<!-- fastq_list_rows&#45;&gt;run_tso500_ctdna_demultiplex_workflow_step -->
<g id="edge49" class="edge">
<title>fastq_list_rows&#45;&gt;run_tso500_ctdna_demultiplex_workflow_step</title>
<path fill="none" stroke="black" d="M4066.43,-2752.44C4093.24,-2689.48 4188.52,-2469.69 4284,-2297 4368.43,-2144.29 4486.02,-1970.96 4530.75,-1906.21"/>
<polygon fill="black" stroke="black" points="4533.75,-1908.02 4536.56,-1897.81 4527.99,-1904.04 4533.75,-1908.02"/>
</g>
<!-- resources_dir -->
<g id="node7" class="node">
<title>resources_dir</title>
<g id="a_node7"><a xlink:title="The directory of resources&#10;">
<polygon fill="#94ddf4" stroke="black" points="4753.5,-2752.5 4753.5,-2789.5 4866.5,-2789.5 4866.5,-2752.5 4753.5,-2752.5"/>
<text text-anchor="middle" x="4810" y="-2767.3" font-family="Times,serif" font-size="14.00">resources_dir</text>
</a>
</g>
</g>
<!-- resources_dir&#45;&gt;run_tso500_ctdna_analysis_workflow_step -->
<g id="edge50" class="edge">
<title>resources_dir&#45;&gt;run_tso500_ctdna_analysis_workflow_step</title>
<path fill="none" stroke="black" d="M4810.17,-2752.07C4809.86,-2684.01 4799.99,-2438.35 4678,-2297 4185.27,-1726.08 3236.19,-1520.18 2890.24,-1462.19"/>
<polygon fill="black" stroke="black" points="2890.62,-1458.71 2880.18,-1460.52 2889.47,-1465.61 2890.62,-1458.71"/>
</g>
<!-- resources_dir&#45;&gt;run_tso500_ctdna_reporting_workflow_step -->
<g id="edge51" class="edge">
<title>resources_dir&#45;&gt;run_tso500_ctdna_reporting_workflow_step</title>
<path fill="none" stroke="black" d="M4811.91,-2752.24C4830.22,-2582.18 4974.35,-1243.23 4997.01,-1032.79"/>
<polygon fill="black" stroke="black" points="5000.52,-1032.91 4998.11,-1022.59 4993.56,-1032.16 5000.52,-1032.91"/>
</g>
<!-- resources_dir&#45;&gt;run_tso500_ctdna_demultiplex_workflow_step -->
<g id="edge52" class="edge">
<title>resources_dir&#45;&gt;run_tso500_ctdna_demultiplex_workflow_step</title>
<path fill="none" stroke="black" d="M4811.98,-2752.34C4818.46,-2689.05 4835.95,-2468.29 4786,-2297 4738.8,-2135.14 4618,-1968.46 4569.56,-1905.84"/>
<polygon fill="black" stroke="black" points="4572.13,-1903.44 4563.22,-1897.7 4566.6,-1907.74 4572.13,-1903.44"/>
</g>
<!-- run_info_xml -->
<g id="node8" class="node">
<title>run_info_xml</title>
<g id="a_node8"><a xlink:title="The run info xml file found inside the run folder&#10;">
<polygon fill="#94ddf4" stroke="black" points="4885,-2752.5 4885,-2789.5 4993,-2789.5 4993,-2752.5 4885,-2752.5"/>
<text text-anchor="middle" x="4939" y="-2767.3" font-family="Times,serif" font-size="14.00">run_info_xml</text>
</a>
</g>
</g>
<!-- run_info_xml&#45;&gt;run_tso500_ctdna_reporting_workflow_step -->
<g id="edge53" class="edge">
<title>run_info_xml&#45;&gt;run_tso500_ctdna_reporting_workflow_step</title>
<path fill="none" stroke="black" d="M4939.61,-2752.24C4945.49,-2582.18 4991.77,-1243.23 4999.04,-1032.79"/>
<polygon fill="black" stroke="black" points="5002.54,-1032.71 4999.39,-1022.59 4995.55,-1032.47 5002.54,-1032.71"/>
</g>
<!-- run_info_xml&#45;&gt;run_tso500_ctdna_demultiplex_workflow_step -->
<g id="edge54" class="edge">
<title>run_info_xml&#45;&gt;run_tso500_ctdna_demultiplex_workflow_step</title>
<path fill="none" stroke="black" d="M4935.74,-2752.23C4923.68,-2688.57 4878.45,-2466.7 4804,-2297 4734.81,-2139.29 4615.05,-1969.55 4568.4,-1905.98"/>
<polygon fill="black" stroke="black" points="4571.06,-1903.7 4562.31,-1897.73 4565.43,-1907.85 4571.06,-1903.7"/>
</g>
<!-- run_parameters_xml -->
<g id="node9" class="node">
<title>run_parameters_xml</title>
<g id="a_node9"><a xlink:title="The run parameters xml file found inside the run folder&#10;">
<polygon fill="#94ddf4" stroke="black" points="5011,-2752.5 5011,-2789.5 5175,-2789.5 5175,-2752.5 5011,-2752.5"/>
<text text-anchor="middle" x="5093" y="-2767.3" font-family="Times,serif" font-size="14.00">run_parameters_xml</text>
</a>
</g>
</g>
<!-- run_parameters_xml&#45;&gt;run_tso500_ctdna_reporting_workflow_step -->
<g id="edge55" class="edge">
<title>run_parameters_xml&#45;&gt;run_tso500_ctdna_reporting_workflow_step</title>
<path fill="none" stroke="black" d="M5092.06,-2752.24C5083.1,-2582.18 5012.55,-1243.23 5001.46,-1032.79"/>
<polygon fill="black" stroke="black" points="5004.95,-1032.4 5000.93,-1022.59 4997.96,-1032.76 5004.95,-1032.4"/>
</g>
<!-- run_parameters_xml&#45;&gt;run_tso500_ctdna_demultiplex_workflow_step -->
<g id="edge56" class="edge">
<title>run_parameters_xml&#45;&gt;run_tso500_ctdna_demultiplex_workflow_step</title>
<path fill="none" stroke="black" d="M5083.46,-2752.13C5049.64,-2689.05 4931.82,-2471.2 4825,-2297 4732.46,-2146.09 4612.23,-1971.02 4567.14,-1906.02"/>
<polygon fill="black" stroke="black" points="4569.86,-1903.81 4561.28,-1897.6 4564.11,-1907.81 4569.86,-1903.81"/>
</g>
<!-- align_collapse_fusion_caller_analysis_dir -->
<g id="node10" class="node">
<title>align_collapse_fusion_caller_analysis_dir</title>
<g id="a_node10"><a xlink:title="Intermediate output for align_collapse_fusion_caller_analysis step of the analysis workflow&#10;">
<polygon fill="#94ddf4" stroke="black" points="2075.5,-548.5 2075.5,-585.5 2380.5,-585.5 2380.5,-548.5 2075.5,-548.5"/>
<text text-anchor="middle" x="2228" y="-563.3" font-family="Times,serif" font-size="14.00">align_collapse_fusion_caller_analysis_dir</text>
</a>
</g>
</g>
<!-- analysis_workflow_output -->
<g id="node11" class="node">
<title>analysis_workflow_output</title>
<g id="a_node11"><a xlink:title="Intermediate output files from the analysis workflow steps&#10;">
<polygon fill="#94ddf4" stroke="black" points="2399,-548.5 2399,-585.5 2599,-585.5 2599,-548.5 2399,-548.5"/>
<text text-anchor="middle" x="2499" y="-563.3" font-family="Times,serif" font-size="14.00">analysis_workflow_output</text>
</a>
</g>
</g>
<!-- annotation_analysis_dir -->
<g id="node12" class="node">
<title>annotation_analysis_dir</title>
<g id="a_node12"><a xlink:title="Intermediate output for annotation_analysis step of the analysis workflow&#10;">
<polygon fill="#94ddf4" stroke="black" points="2617.5,-548.5 2617.5,-585.5 2802.5,-585.5 2802.5,-548.5 2617.5,-548.5"/>
<text text-anchor="middle" x="2710" y="-563.3" font-family="Times,serif" font-size="14.00">annotation_analysis_dir</text>
</a>
</g>
</g>
<!-- cleanup_dir -->
<g id="node13" class="node">
<title>cleanup_dir</title>
<g id="a_node13"><a xlink:title="Intermediate output for cleanup_dir&#10;">
<polygon fill="#94ddf4" stroke="black" points="5670.5,-548.5 5670.5,-585.5 5769.5,-585.5 5769.5,-548.5 5670.5,-548.5"/>
<text text-anchor="middle" x="5720" y="-563.3" font-family="Times,serif" font-size="14.00">cleanup_dir</text>
</a>
</g>
</g>
<!-- cnv_caller_analysis_dir -->
<g id="node14" class="node">
<title>cnv_caller_analysis_dir</title>
<g id="a_node14"><a xlink:title="Intermediate output for cnv_caller_analysis step of the analysis workflow&#10;">
<polygon fill="#94ddf4" stroke="black" points="2820.5,-548.5 2820.5,-585.5 2999.5,-585.5 2999.5,-548.5 2820.5,-548.5"/>
<text text-anchor="middle" x="2910" y="-563.3" font-family="Times,serif" font-size="14.00">cnv_caller_analysis_dir</text>
</a>
</g>
</g>
<!-- combined_variant_output_dir -->
<g id="node15" class="node">
<title>combined_variant_output_dir</title>
<g id="a_node15"><a xlink:title="Intermediate output for combined_variant_output_dir&#10;">
<polygon fill="#94ddf4" stroke="black" points="5428,-548.5 5428,-585.5 5652,-585.5 5652,-548.5 5428,-548.5"/>
<text text-anchor="middle" x="5540" y="-563.3" font-family="Times,serif" font-size="14.00">combined_variant_output_dir</text>
</a>
</g>
</g>
<!-- contamination_analysis_dir -->
<g id="node16" class="node">
<title>contamination_analysis_dir</title>
<g id="a_node16"><a xlink:title="Intermediate output for contamination_analysis step of the analysis workflow&#10;">
<polygon fill="#94ddf4" stroke="black" points="3018,-548.5 3018,-585.5 3228,-585.5 3228,-548.5 3018,-548.5"/>
<text text-anchor="middle" x="3123" y="-563.3" font-family="Times,serif" font-size="14.00">contamination_analysis_dir</text>
</a>
</g>
</g>
<!-- demultiplex_workflow_output -->
<g id="node17" class="node">
<title>demultiplex_workflow_output</title>
<g id="a_node17"><a xlink:title="Intermediate output files from the demultiplex workflow steps&#10;">
<polygon fill="#94ddf4" stroke="black" points="4700.5,-548.5 4700.5,-585.5 4927.5,-585.5 4927.5,-548.5 4700.5,-548.5"/>
<text text-anchor="middle" x="4814" y="-563.3" font-family="Times,serif" font-size="14.00">demultiplex_workflow_output</text>
</a>
</g>
</g>
<!-- dna_fusion_filtering_analysis_dir -->
<g id="node18" class="node">
<title>dna_fusion_filtering_analysis_dir</title>
<g id="a_node18"><a xlink:title="Intermediate output for dna_fusion_filtering_analysis step of the analysis workflow&#10;">
<polygon fill="#94ddf4" stroke="black" points="3246,-548.5 3246,-585.5 3494,-585.5 3494,-548.5 3246,-548.5"/>
<text text-anchor="middle" x="3370" y="-563.3" font-family="Times,serif" font-size="14.00">dna_fusion_filtering_analysis_dir</text>
</a>
</g>
</g>
<!-- dna_qc_metrics_analysis_dir -->
<g id="node19" class="node">
<title>dna_qc_metrics_analysis_dir</title>
<g id="a_node19"><a xlink:title="Intermediate output for dna_qc_metrics_analysis step of the analysis workflow&#10;">
<polygon fill="#94ddf4" stroke="black" points="3512,-548.5 3512,-585.5 3730,-585.5 3730,-548.5 3512,-548.5"/>
<text text-anchor="middle" x="3621" y="-563.3" font-family="Times,serif" font-size="14.00">dna_qc_metrics_analysis_dir</text>
</a>
</g>
</g>
<!-- fastq_validation_demux_dir -->
<g id="node20" class="node">
<title>fastq_validation_demux_dir</title>
<g id="a_node20"><a xlink:title="fastq_validation_demux_dir intermediate output directory&#10;">
<polygon fill="#94ddf4" stroke="black" points="3920,-548.5 3920,-585.5 4132,-585.5 4132,-548.5 3920,-548.5"/>
<text text-anchor="middle" x="4026" y="-563.3" font-family="Times,serif" font-size="14.00">fastq_validation_demux_dir</text>
</a>
</g>
</g>
<!-- max_somatic_vaf_analysis_dir -->
<g id="node21" class="node">
<title>max_somatic_vaf_analysis_dir</title>
<g id="a_node21"><a xlink:title="Intermediate output for max_somatic_vaf_analysis step of the analysis workflow&#10;">
<polygon fill="#94ddf4" stroke="black" points="16.5,-548.5 16.5,-585.5 245.5,-585.5 245.5,-548.5 16.5,-548.5"/>
<text text-anchor="middle" x="131" y="-563.3" font-family="Times,serif" font-size="14.00">max_somatic_vaf_analysis_dir</text>
</a>
</g>
</g>
<!-- merged_annotation_analysis_dir -->
<g id="node22" class="node">
<title>merged_annotation_analysis_dir</title>
<g id="a_node22"><a xlink:title="Intermediate output for merged_annotation_analysis step of the analysis workflow&#10;">
<polygon fill="#94ddf4" stroke="black" points="264,-548.5 264,-585.5 510,-585.5 510,-548.5 264,-548.5"/>
<text text-anchor="middle" x="387" y="-563.3" font-family="Times,serif" font-size="14.00">merged_annotation_analysis_dir</text>
</a>
</g>
</g>
<!-- metrics_output_dir -->
<g id="node23" class="node">
<title>metrics_output_dir</title>
<g id="a_node23"><a xlink:title="Intermediate output for metrics_output_dir&#10;">
<polygon fill="#94ddf4" stroke="black" points="5258,-548.5 5258,-585.5 5410,-585.5 5410,-548.5 5258,-548.5"/>
<text text-anchor="middle" x="5334" y="-563.3" font-family="Times,serif" font-size="14.00">metrics_output_dir</text>
</a>
</g>
</g>
<!-- msi_analysis_dir -->
<g id="node24" class="node">
<title>msi_analysis_dir</title>
<g id="a_node24"><a xlink:title="Intermediate output for msi_analysis step of the analysis workflow&#10;">
<polygon fill="#94ddf4" stroke="black" points="528,-548.5 528,-585.5 662,-585.5 662,-548.5 528,-548.5"/>
<text text-anchor="middle" x="595" y="-563.3" font-family="Times,serif" font-size="14.00">msi_analysis_dir</text>
</a>
</g>
</g>
<!-- outputs_by_sample -->
<g id="node25" class="node">
<title>outputs_by_sample</title>
<g id="a_node25"><a xlink:title="The sample output directories from the analysis step&#10;">
<polygon fill="#94ddf4" stroke="black" points="3748.5,-548.5 3748.5,-585.5 3901.5,-585.5 3901.5,-548.5 3748.5,-548.5"/>
<text text-anchor="middle" x="3825" y="-563.3" font-family="Times,serif" font-size="14.00">outputs_by_sample</text>
</a>
</g>
</g>
<!-- phased_variants_analysis_dir -->
<g id="node26" class="node">
<title>phased_variants_analysis_dir</title>
<g id="a_node26"><a xlink:title="Intermediate output for phased_variants_analysis step of the analysis workflow&#10;">
<polygon fill="#94ddf4" stroke="black" points="680,-548.5 680,-585.5 904,-585.5 904,-548.5 680,-548.5"/>
<text text-anchor="middle" x="792" y="-563.3" font-family="Times,serif" font-size="14.00">phased_variants_analysis_dir</text>
</a>
</g>
</g>
<!-- reporting_workflow_output -->
<g id="node27" class="node">
<title>reporting_workflow_output</title>
<g id="a_node27"><a xlink:title="Intermediate output files from the reporting workflow steps&#10;">
<polygon fill="#94ddf4" stroke="black" points="5030.5,-548.5 5030.5,-585.5 5239.5,-585.5 5239.5,-548.5 5030.5,-548.5"/>
<text text-anchor="middle" x="5135" y="-563.3" font-family="Times,serif" font-size="14.00">reporting_workflow_output</text>
</a>
</g>
</g>
<!-- resource_verification_demux_dir -->
<g id="node28" class="node">
<title>resource_verification_demux_dir</title>
<g id="a_node28"><a xlink:title="resource_verification_demux_dir intermediate output directory&#10;">
<polygon fill="#94ddf4" stroke="black" points="4150,-548.5 4150,-585.5 4398,-585.5 4398,-548.5 4150,-548.5"/>
<text text-anchor="middle" x="4274" y="-563.3" font-family="Times,serif" font-size="14.00">resource_verification_demux_dir</text>
</a>
</g>
</g>
<!-- results -->
<g id="node29" class="node">
<title>results</title>
<g id="a_node29"><a xlink:title="Results directory, output from the reporting workflow&#10;">
<polygon fill="#94ddf4" stroke="black" points="4946,-548.5 4946,-585.5 5012,-585.5 5012,-548.5 4946,-548.5"/>
<text text-anchor="middle" x="4979" y="-563.3" font-family="Times,serif" font-size="14.00">results</text>
</a>
</g>
</g>
<!-- sample_analysis_results_dir -->
<g id="node30" class="node">
<title>sample_analysis_results_dir</title>
<g id="a_node30"><a xlink:title="Intermediate output for sample_analysis_results_dir&#10;">
<polygon fill="#94ddf4" stroke="black" points="5787.5,-548.5 5787.5,-585.5 6002.5,-585.5 6002.5,-548.5 5787.5,-548.5"/>
<text text-anchor="middle" x="5895" y="-563.3" font-family="Times,serif" font-size="14.00">sample_analysis_results_dir</text>
</a>
</g>
</g>
<!-- samplesheet_validation_demux_dir -->
<g id="node31" class="node">
<title>samplesheet_validation_demux_dir</title>
<g id="a_node31"><a xlink:title="samplesheet_validation_demux_dir intermediate output directory&#10;">
<polygon fill="#94ddf4" stroke="black" points="4416,-548.5 4416,-585.5 4682,-585.5 4682,-548.5 4416,-548.5"/>
<text text-anchor="middle" x="4549" y="-563.3" font-family="Times,serif" font-size="14.00">samplesheet_validation_demux_dir</text>
</a>
</g>
</g>
<!-- small_variant_filter_analysis_dir -->
<g id="node32" class="node">
<title>small_variant_filter_analysis_dir</title>
<g id="a_node32"><a xlink:title="Intermediate output for small_variant_filter_analysis step of the analysis workflow&#10;">
<polygon fill="#94ddf4" stroke="black" points="922.5,-548.5 922.5,-585.5 1167.5,-585.5 1167.5,-548.5 922.5,-548.5"/>
<text text-anchor="middle" x="1045" y="-563.3" font-family="Times,serif" font-size="14.00">small_variant_filter_analysis_dir</text>
</a>
</g>
</g>
<!-- stitched_realigned_analysis_dir -->
<g id="node33" class="node">
<title>stitched_realigned_analysis_dir</title>
<g id="a_node33"><a xlink:title="Intermediate output for stitched_realigned_analysis step of the analysis workflow&#10;">
<polygon fill="#94ddf4" stroke="black" points="1186,-548.5 1186,-585.5 1426,-585.5 1426,-548.5 1186,-548.5"/>
<text text-anchor="middle" x="1306" y="-563.3" font-family="Times,serif" font-size="14.00">stitched_realigned_analysis_dir</text>
</a>
</g>
</g>
<!-- tmb_analysis_dir -->
<g id="node34" class="node">
<title>tmb_analysis_dir</title>
<g id="a_node34"><a xlink:title="Intermediate output for tmb_analysis step of the analysis workflow&#10;">
<polygon fill="#94ddf4" stroke="black" points="1444.5,-548.5 1444.5,-585.5 1581.5,-585.5 1581.5,-548.5 1444.5,-548.5"/>
<text text-anchor="middle" x="1513" y="-563.3" font-family="Times,serif" font-size="14.00">tmb_analysis_dir</text>
</a>
</g>
</g>
<!-- variant_caller_analysis_dir -->
<g id="node35" class="node">
<title>variant_caller_analysis_dir</title>
<g id="a_node35"><a xlink:title="Intermediate output for variant_caller_analysis step of the analysis workflow&#10;">
<polygon fill="#94ddf4" stroke="black" points="1600,-548.5 1600,-585.5 1806,-585.5 1806,-548.5 1600,-548.5"/>
<text text-anchor="middle" x="1703" y="-563.3" font-family="Times,serif" font-size="14.00">variant_caller_analysis_dir</text>
</a>
</g>
</g>
<!-- variant_matching_analysis_dir -->
<g id="node36" class="node">
<title>variant_matching_analysis_dir</title>
<g id="a_node36"><a xlink:title="Intermediate output for variant_matching_analysis step of the analysis workflow&#10;">
<polygon fill="#94ddf4" stroke="black" points="1824.5,-548.5 1824.5,-585.5 2057.5,-585.5 2057.5,-548.5 1824.5,-548.5"/>
<text text-anchor="middle" x="1941" y="-563.3" font-family="Times,serif" font-size="14.00">variant_matching_analysis_dir</text>
</a>
</g>
</g>
<!-- validate_dsdm_json -->
<g id="node37" class="node">
<title>validate_dsdm_json</title>
<g id="a_node37"><a xlink:href="https://github.com/umccr/cwl-ica/blob/main/.github/catalogue/docs/expressions/validate-dsdm-json/1.0.0/validate-dsdm-json__1.0.0.md" xlink:title="Return false if any sample has failed&#10;">
<polygon fill="#ee9a00" stroke="black" points="6021,-548.5 6021,-585.5 6231,-585.5 6231,-548.5 6021,-548.5"/>
<text text-anchor="middle" x="6126" y="-563.3" font-family="Times,serif" font-size="14.00">validate&#45;dsdm&#45;json v(1.0.0)</text>
</a>
</g>
</g>
<!-- assert_all_samples_passing -->
<g id="node38" class="node">
<title>assert_all_samples_passing</title>
<g id="a_node38"><a xlink:href="https://github.com/umccr/cwl-ica/blob/main/.github/catalogue/docs/expressions/assert-true/1.0.0/assert-true__1.0.0.md" xlink:title="Ensure array of booleans are all passing.&#10;">
<polygon fill="#ee9a00" stroke="black" points="6048.5,-93.5 6048.5,-130.5 6203.5,-130.5 6203.5,-93.5 6048.5,-93.5"/>
<text text-anchor="middle" x="6126" y="-108.3" font-family="Times,serif" font-size="14.00">assert&#45;true v(1.0.0)</text>
</a>
</g>
</g>
<!-- validate_dsdm_json&#45;&gt;assert_all_samples_passing -->
<g id="edge1" class="edge">
<title>validate_dsdm_json&#45;&gt;assert_all_samples_passing</title>
<path fill="none" stroke="black" d="M6126,-548.24C6126,-478.82 6126,-225.44 6126,-140.77"/>
<polygon fill="black" stroke="black" points="6129.5,-140.64 6126,-130.64 6122.5,-140.64 6129.5,-140.64"/>
</g>
<!-- run_tso500_ctdna_analysis_workflow_step&#45;&gt;align_collapse_fusion_caller_analysis_dir -->
<g id="edge5" class="edge">
<title>run_tso500_ctdna_analysis_workflow_step&#45;&gt;align_collapse_fusion_caller_analysis_dir</title>
<path fill="none" stroke="black" d="M2749.13,-1423.17C2682.07,-1313.12 2324.78,-726.82 2244.17,-594.53"/>
<polygon fill="black" stroke="black" points="2247.04,-592.52 2238.85,-585.81 2241.07,-596.17 2247.04,-592.52"/>
</g>
<!-- run_tso500_ctdna_analysis_workflow_step&#45;&gt;analysis_workflow_output -->
<g id="edge6" class="edge">
<title>run_tso500_ctdna_analysis_workflow_step&#45;&gt;analysis_workflow_output</title>
<path fill="none" stroke="black" d="M2754.67,-1423.17C2721.87,-1313.45 2547.53,-730.34 2507.29,-595.74"/>
<polygon fill="black" stroke="black" points="2510.54,-594.38 2504.32,-585.81 2503.83,-596.39 2510.54,-594.38"/>
</g>
<!-- run_tso500_ctdna_analysis_workflow_step&#45;&gt;annotation_analysis_dir -->
<g id="edge7" class="edge">
<title>run_tso500_ctdna_analysis_workflow_step&#45;&gt;annotation_analysis_dir</title>
<path fill="none" stroke="black" d="M2758.98,-1423.17C2752.7,-1313.56 2719.36,-731.5 2711.61,-596.14"/>
<polygon fill="black" stroke="black" points="2715.09,-595.59 2711.02,-585.81 2708.1,-595.99 2715.09,-595.59"/>
</g>
<!-- run_tso500_ctdna_analysis_workflow_step&#45;&gt;cnv_caller_analysis_dir -->
<g id="edge8" class="edge">
<title>run_tso500_ctdna_analysis_workflow_step&#45;&gt;cnv_caller_analysis_dir</title>
<path fill="none" stroke="black" d="M2763.06,-1423.17C2781.92,-1313.45 2882.11,-730.34 2905.23,-595.74"/>
<polygon fill="black" stroke="black" points="2908.7,-596.25 2906.94,-585.81 2901.8,-595.07 2908.7,-596.25"/>
</g>
<!-- run_tso500_ctdna_analysis_workflow_step&#45;&gt;contamination_analysis_dir -->
<g id="edge9" class="edge">
<title>run_tso500_ctdna_analysis_workflow_step&#45;&gt;contamination_analysis_dir</title>
<path fill="none" stroke="black" d="M2767.42,-1423.17C2813.08,-1313.34 3055.99,-729.17 3111.64,-595.33"/>
<polygon fill="black" stroke="black" points="3114.99,-596.38 3115.6,-585.81 3108.53,-593.7 3114.99,-596.38"/>
</g>
<!-- run_tso500_ctdna_analysis_workflow_step&#45;&gt;dna_fusion_filtering_analysis_dir -->
<g id="edge10" class="edge">
<title>run_tso500_ctdna_analysis_workflow_step&#45;&gt;dna_fusion_filtering_analysis_dir</title>
<path fill="none" stroke="black" d="M2772.46,-1423.17C2849.43,-1313.01 3259.84,-725.65 3351.74,-594.14"/>
<polygon fill="black" stroke="black" points="3354.7,-596.01 3357.56,-585.81 3348.96,-592 3354.7,-596.01"/>
</g>
<!-- run_tso500_ctdna_analysis_workflow_step&#45;&gt;dna_qc_metrics_analysis_dir -->
<g id="edge11" class="edge">
<title>run_tso500_ctdna_analysis_workflow_step&#45;&gt;dna_qc_metrics_analysis_dir</title>
<path fill="none" stroke="black" d="M2777.59,-1423.17C2886.55,-1312.68 3468.99,-722.12 3596.38,-592.97"/>
<polygon fill="black" stroke="black" points="3598.91,-595.38 3603.44,-585.81 3593.93,-590.47 3598.91,-595.38"/>
</g>
<!-- run_tso500_ctdna_analysis_workflow_step&#45;&gt;max_somatic_vaf_analysis_dir -->
<g id="edge12" class="edge">
<title>run_tso500_ctdna_analysis_workflow_step&#45;&gt;max_somatic_vaf_analysis_dir</title>
<path fill="none" stroke="black" d="M2707.19,-1423.46C2373.01,-1312.49 554.6,-708.66 193.4,-588.72"/>
<polygon fill="black" stroke="black" points="194.48,-585.39 183.88,-585.56 192.27,-592.03 194.48,-585.39"/>
</g>
<!-- run_tso500_ctdna_analysis_workflow_step&#45;&gt;merged_annotation_analysis_dir -->
<g id="edge13" class="edge">
<title>run_tso500_ctdna_analysis_workflow_step&#45;&gt;merged_annotation_analysis_dir</title>
<path fill="none" stroke="black" d="M2712.33,-1423.46C2411.14,-1312.66 774.28,-710.47 444.8,-589.26"/>
<polygon fill="black" stroke="black" points="445.57,-585.82 434.98,-585.65 443.16,-592.39 445.57,-585.82"/>
</g>
<!-- run_tso500_ctdna_analysis_workflow_step&#45;&gt;msi_analysis_dir -->
<g id="edge14" class="edge">
<title>run_tso500_ctdna_analysis_workflow_step&#45;&gt;msi_analysis_dir</title>
<path fill="none" stroke="black" d="M2716.26,-1423.36C2440.96,-1312.35 949.62,-711 648.15,-589.43"/>
<polygon fill="black" stroke="black" points="649.34,-586.14 638.75,-585.64 646.72,-592.63 649.34,-586.14"/>
</g>
<!-- run_tso500_ctdna_analysis_workflow_step&#45;&gt;phased_variants_analysis_dir -->
<g id="edge15" class="edge">
<title>run_tso500_ctdna_analysis_workflow_step&#45;&gt;phased_variants_analysis_dir</title>
<path fill="none" stroke="black" d="M2720.24,-1423.36C2470.24,-1312.46 1117.03,-712.18 841.13,-589.79"/>
<polygon fill="black" stroke="black" points="842.33,-586.5 831.77,-585.64 839.49,-592.9 842.33,-586.5"/>
</g>
<!-- run_tso500_ctdna_analysis_workflow_step&#45;&gt;small_variant_filter_analysis_dir -->
<g id="edge16" class="edge">
<title>run_tso500_ctdna_analysis_workflow_step&#45;&gt;small_variant_filter_analysis_dir</title>
<path fill="none" stroke="black" d="M2725.35,-1423.36C2507.81,-1312.63 1331.74,-713.96 1088.89,-590.34"/>
<polygon fill="black" stroke="black" points="1090.16,-587.06 1079.66,-585.64 1086.98,-593.3 1090.16,-587.06"/>
</g>
<!-- run_tso500_ctdna_analysis_workflow_step&#45;&gt;stitched_realigned_analysis_dir -->
<g id="edge17" class="edge">
<title>run_tso500_ctdna_analysis_workflow_step&#45;&gt;stitched_realigned_analysis_dir</title>
<path fill="none" stroke="black" d="M2730.63,-1423.36C2546.47,-1312.79 1552.06,-715.74 1344.13,-590.89"/>
<polygon fill="black" stroke="black" points="1345.76,-587.79 1335.38,-585.64 1342.16,-593.79 1345.76,-587.79"/>
</g>
<!-- run_tso500_ctdna_analysis_workflow_step&#45;&gt;tmb_analysis_dir -->
<g id="edge18" class="edge">
<title>run_tso500_ctdna_analysis_workflow_step&#45;&gt;tmb_analysis_dir</title>
<path fill="none" stroke="black" d="M2734.81,-1423.36C2577.1,-1312.96 1726.56,-717.51 1546.5,-591.45"/>
<polygon fill="black" stroke="black" points="1548.4,-588.51 1538.2,-585.64 1544.39,-594.24 1548.4,-588.51"/>
</g>
<!-- run_tso500_ctdna_analysis_workflow_step&#45;&gt;variant_caller_analysis_dir -->
<g id="edge19" class="edge">
<title>run_tso500_ctdna_analysis_workflow_step&#45;&gt;variant_caller_analysis_dir</title>
<path fill="none" stroke="black" d="M2738.41,-1423.17C2604.37,-1312.46 1886.76,-719.77 1732.3,-592.2"/>
<polygon fill="black" stroke="black" points="1734.5,-589.48 1724.56,-585.81 1730.04,-594.87 1734.5,-589.48"/>
</g>
<!-- run_tso500_ctdna_analysis_workflow_step&#45;&gt;variant_matching_analysis_dir -->
<g id="edge20" class="edge">
<title>run_tso500_ctdna_analysis_workflow_step&#45;&gt;variant_matching_analysis_dir</title>
<path fill="none" stroke="black" d="M2743.27,-1423.17C2639.72,-1312.79 2086.69,-723.3 1964.79,-593.35"/>
<polygon fill="black" stroke="black" points="1967.1,-590.7 1957.7,-585.81 1961.99,-595.49 1967.1,-590.7"/>
</g>
<!-- run_tso500_ctdna_analysis_workflow_step&#45;&gt;get_cttso_outputs_by_sample -->
<g id="edge2" class="edge">
<title>run_tso500_ctdna_analysis_workflow_step&#45;&gt;get_cttso_outputs_by_sample</title>
<path fill="none" stroke="black" d="M2926.38,-1424.21C3404.87,-1374.07 4776.14,-1216.79 5180,-1023 5202.99,-1011.97 5201.03,-997.95 5223,-985 5595.18,-765.67 6101.23,-634.75 6305.72,-587.79"/>
<polygon fill="black" stroke="black" points="6306.55,-591.19 6315.52,-585.55 6304.99,-584.37 6306.55,-591.19"/>
</g>
<!-- run_tso500_ctdna_analysis_workflow_step&#45;&gt;run_tso500_ctdna_reporting_workflow_step -->
<g id="edge3" class="edge">
<title>run_tso500_ctdna_analysis_workflow_step&#45;&gt;run_tso500_ctdna_reporting_workflow_step</title>
<path fill="none" stroke="black" d="M2847.37,-1423.44C3200.1,-1353.78 4518.13,-1097.23 4897.35,-1024.4"/>
<polygon fill="black" stroke="black" points="4898.06,-1027.82 4907.22,-1022.5 4896.74,-1020.95 4898.06,-1027.82"/>
</g>
<!-- run_tso500_ctdna_analysis_workflow_step&#45;&gt;run_tso500_ctdna_reporting_workflow_step -->
<g id="edge4" class="edge">
<title>run_tso500_ctdna_analysis_workflow_step&#45;&gt;run_tso500_ctdna_reporting_workflow_step</title>
<path fill="none" stroke="black" d="M2853.1,-1423.44C3216.01,-1353.8 4533.56,-1097.35 4903.08,-1024.45"/>
<polygon fill="black" stroke="black" points="4903.81,-1027.87 4912.95,-1022.5 4902.46,-1021 4903.81,-1027.87"/>
</g>
<!-- get_cttso_outputs_by_sample&#45;&gt;outputs_by_sample -->
<g id="edge21" class="edge">
<title>get_cttso_outputs_by_sample&#45;&gt;outputs_by_sample</title>
<path fill="none" stroke="black" d="M6389.98,-585.69C6371.85,-630.87 6318.67,-745.53 6231,-789.5 5771.95,-1019.75 4348.55,-1072.5 3920,-789.5 3853.71,-745.73 3833.52,-645.2 3827.49,-595.66"/>
<polygon fill="black" stroke="black" points="3830.96,-595.17 3826.38,-585.62 3824,-595.94 3830.96,-595.17"/>
</g>
<!-- run_tso500_ctdna_reporting_workflow_step&#45;&gt;cleanup_dir -->
<g id="edge25" class="edge">
<title>run_tso500_ctdna_reporting_workflow_step&#45;&gt;cleanup_dir</title>
<path fill="none" stroke="black" d="M5029.12,-985.41C5142.55,-916.88 5554.86,-667.77 5682.25,-590.81"/>
<polygon fill="black" stroke="black" points="5684.17,-593.74 5690.92,-585.57 5680.55,-587.75 5684.17,-593.74"/>
</g>
<!-- run_tso500_ctdna_reporting_workflow_step&#45;&gt;combined_variant_output_dir -->
<g id="edge26" class="edge">
<title>run_tso500_ctdna_reporting_workflow_step&#45;&gt;combined_variant_output_dir</title>
<path fill="none" stroke="black" d="M5021.84,-985.41C5106.49,-917.22 5413.06,-670.26 5510.24,-591.98"/>
<polygon fill="black" stroke="black" points="5512.6,-594.57 5518.19,-585.57 5508.2,-589.12 5512.6,-594.57"/>
</g>
<!-- run_tso500_ctdna_reporting_workflow_step&#45;&gt;metrics_output_dir -->
<g id="edge27" class="edge">
<title>run_tso500_ctdna_reporting_workflow_step&#45;&gt;metrics_output_dir</title>
<path fill="none" stroke="black" d="M5013.51,-985.41C5065.44,-917.78 5252.4,-674.28 5314.09,-593.93"/>
<polygon fill="black" stroke="black" points="5317.01,-595.87 5320.33,-585.81 5311.46,-591.61 5317.01,-595.87"/>
</g>
<!-- run_tso500_ctdna_reporting_workflow_step&#45;&gt;reporting_workflow_output -->
<g id="edge28" class="edge">
<title>run_tso500_ctdna_reporting_workflow_step&#45;&gt;reporting_workflow_output</title>
<path fill="none" stroke="black" d="M5005.46,-985.41C5026.32,-918.19 5101.1,-677.23 5126.49,-595.41"/>
<polygon fill="black" stroke="black" points="5129.85,-596.4 5129.47,-585.81 5123.17,-594.32 5129.85,-596.4"/>
</g>
<!-- run_tso500_ctdna_reporting_workflow_step&#45;&gt;results -->
<g id="edge29" class="edge">
<title>run_tso500_ctdna_reporting_workflow_step&#45;&gt;results</title>
<path fill="none" stroke="black" d="M4999.15,-985.41C4995.91,-918.32 4984.32,-678.21 4980.35,-595.91"/>
<polygon fill="black" stroke="black" points="4983.84,-595.63 4979.86,-585.81 4976.85,-595.97 4983.84,-595.63"/>
</g>
<!-- run_tso500_ctdna_reporting_workflow_step&#45;&gt;sample_analysis_results_dir -->
<g id="edge30" class="edge">
<title>run_tso500_ctdna_reporting_workflow_step&#45;&gt;sample_analysis_results_dir</title>
<path fill="none" stroke="black" d="M5036.19,-985.41C5177.62,-916.67 5692.8,-666.28 5849.48,-590.12"/>
<polygon fill="black" stroke="black" points="5851.38,-593.09 5858.85,-585.57 5848.32,-586.79 5851.38,-593.09"/>
</g>
<!-- run_tso500_ctdna_reporting_workflow_step&#45;&gt;validate_dsdm_json -->
<g id="edge22" class="edge">
<title>run_tso500_ctdna_reporting_workflow_step&#45;&gt;validate_dsdm_json</title>
<path fill="none" stroke="black" d="M5045.54,-985.41C5224.17,-916.4 5876.79,-664.28 6071.07,-589.22"/>
<polygon fill="black" stroke="black" points="6072.45,-592.44 6080.52,-585.57 6069.93,-585.91 6072.45,-592.44"/>
</g>
<!-- run_tso500_ctdna_reporting_workflow_step&#45;&gt;get_cttso_outputs_by_sample -->
<g id="edge23" class="edge">
<title>run_tso500_ctdna_reporting_workflow_step&#45;&gt;get_cttso_outputs_by_sample</title>
<path fill="none" stroke="black" d="M5053.62,-985.41C5270.81,-916.19 6084.6,-662.77 6327.91,-588.55"/>
<polygon fill="black" stroke="black" points="6329.15,-591.83 6337.7,-585.57 6327.11,-585.14 6329.15,-591.83"/>
</g>
<!-- run_tso500_ctdna_reporting_workflow_step&#45;&gt;get_cttso_outputs_by_sample -->
<g id="edge24" class="edge">
<title>run_tso500_ctdna_reporting_workflow_step&#45;&gt;get_cttso_outputs_by_sample</title>
<path fill="none" stroke="black" d="M5059.37,-985.41C5286.64,-916.23 6099.88,-663.02 6333.73,-588.66"/>
<polygon fill="black" stroke="black" points="6334.98,-591.94 6343.44,-585.57 6332.85,-585.27 6334.98,-591.94"/>
</g>
<!-- run_tso500_ctdna_demultiplex_workflow_step&#45;&gt;demultiplex_workflow_output -->
<g id="edge33" class="edge">
<title>run_tso500_ctdna_demultiplex_workflow_step&#45;&gt;demultiplex_workflow_output</title>
<path fill="none" stroke="black" d="M4552.55,-1860.47C4581.06,-1719.51 4772.85,-771.42 4808.35,-595.92"/>
<polygon fill="black" stroke="black" points="4811.82,-596.42 4810.37,-585.92 4804.96,-595.03 4811.82,-596.42"/>
</g>
<!-- run_tso500_ctdna_demultiplex_workflow_step&#45;&gt;fastq_validation_demux_dir -->
<g id="edge34" class="edge">
<title>run_tso500_ctdna_demultiplex_workflow_step&#45;&gt;fastq_validation_demux_dir</title>
<path fill="none" stroke="black" d="M4542,-1860.47C4485.67,-1719.37 4106.46,-769.53 4036.94,-595.39"/>
<polygon fill="black" stroke="black" points="4040.11,-593.91 4033.16,-585.92 4033.61,-596.51 4040.11,-593.91"/>
</g>
<!-- run_tso500_ctdna_demultiplex_workflow_step&#45;&gt;resource_verification_demux_dir -->
<g id="edge35" class="edge">
<title>run_tso500_ctdna_demultiplex_workflow_step&#45;&gt;resource_verification_demux_dir</title>
<path fill="none" stroke="black" d="M4545.32,-1860.47C4515.73,-1719.51 4316.7,-771.42 4279.86,-595.92"/>
<polygon fill="black" stroke="black" points="4283.24,-594.99 4277.76,-585.92 4276.39,-596.43 4283.24,-594.99"/>
</g>
<!-- run_tso500_ctdna_demultiplex_workflow_step&#45;&gt;samplesheet_validation_demux_dir -->
<g id="edge36" class="edge">
<title>run_tso500_ctdna_demultiplex_workflow_step&#45;&gt;samplesheet_validation_demux_dir</title>
<path fill="none" stroke="black" d="M4549,-1860.47C4549,-1719.58 4549,-772.37 4549,-596.18"/>
<polygon fill="black" stroke="black" points="4552.5,-595.92 4549,-585.92 4545.5,-595.92 4552.5,-595.92"/>
</g>
<!-- run_tso500_ctdna_demultiplex_workflow_step&#45;&gt;run_tso500_ctdna_analysis_workflow_step -->
<g id="edge31" class="edge">
<title>run_tso500_ctdna_demultiplex_workflow_step&#45;&gt;run_tso500_ctdna_analysis_workflow_step</title>
<path fill="none" stroke="black" d="M4476.93,-1860.48C4191.98,-1791.19 3144.8,-1536.56 2842.32,-1463.02"/>
<polygon fill="black" stroke="black" points="2842.85,-1459.54 2832.3,-1460.58 2841.19,-1466.34 2842.85,-1459.54"/>
</g>
<!-- run_tso500_ctdna_demultiplex_workflow_step&#45;&gt;run_tso500_ctdna_reporting_workflow_step -->
<g id="edge32" class="edge">
<title>run_tso500_ctdna_demultiplex_workflow_step&#45;&gt;run_tso500_ctdna_reporting_workflow_step</title>
<path fill="none" stroke="black" d="M4555.43,-1860.21C4578,-1798.37 4656.89,-1587.65 4742,-1423 4821.66,-1268.89 4937.64,-1095.75 4981.91,-1031.14"/>
<polygon fill="black" stroke="black" points="4984.89,-1032.98 4987.67,-1022.76 4979.12,-1029.02 4984.89,-1032.98"/>
</g>
<!-- add_sample_type_and_pair_id_to_samplesheet_step&#45;&gt;run_tso500_ctdna_demultiplex_workflow_step -->
<g id="edge37" class="edge">
<title>add_sample_type_and_pair_id_to_samplesheet_step&#45;&gt;run_tso500_ctdna_demultiplex_workflow_step</title>
<path fill="none" stroke="black" d="M4507.74,-2297.41C4514.37,-2230.32 4538.11,-1990.21 4546.24,-1907.91"/>
<polygon fill="black" stroke="black" points="4549.74,-1908.11 4547.24,-1897.81 4542.77,-1907.42 4549.74,-1908.11"/>
</g>
<!-- \n -->
<g id="node44" class="node">
<title>\n</title>
<ellipse fill="none" stroke="black" cx="5220" cy="-2771" rx="27" ry="18"/>
</g>
</g>
</svg>
