<?xml version="1.0" encoding="UTF-8" standalone="no"?>
<!DOCTYPE svg PUBLIC "-//W3C//DTD SVG 1.1//EN"
 "http://www.w3.org/Graphics/SVG/1.1/DTD/svg11.dtd">
<!-- Generated by graphviz version 2.40.1 (20161225.0304)
 -->
<!-- Title: G Pages: 1 -->
<svg width="1234pt" height="598pt"
 viewBox="0.00 0.00 1234.00 597.71" xmlns="http://www.w3.org/2000/svg" xmlns:xlink="http://www.w3.org/1999/xlink">
<g id="graph0" class="graph" transform="scale(1 1) rotate(0) translate(4 593.706)">
<title>G</title>
<polygon fill="#eeeeee" stroke="transparent" points="-4,4 -4,-593.706 1230,-593.706 1230,4 -4,4"/>
<g id="clust1" class="cluster">
<title>cluster_inputs</title>
<polygon fill="#eeeeee" stroke="#000000" stroke-dasharray="5,2" points="8,-482.1416 8,-579.5823 1218,-579.5823 1218,-482.1416 8,-482.1416"/>
<text text-anchor="middle" x="1150" y="-489.9416" font-family="Times,serif" font-size="14.00" fill="#000000">Workflow Inputs</text>
</g>
<g id="clust2" class="cluster">
<title>cluster_outputs</title>
<polygon fill="#eeeeee" stroke="#000000" stroke-dasharray="5,2" points="183,-10.1237 183,-107.5644 963,-107.5644 963,-10.1237 183,-10.1237"/>
<text text-anchor="middle" x="889" y="-17.9237" font-family="Times,serif" font-size="14.00" fill="#000000">Workflow Outputs</text>
</g>
<!-- file:///tmp/tmpg_rj6am6#samplesheet_prefix -->
<g id="node1" class="node">
<title>file:///tmp/tmpg_rj6am6#samplesheet_prefix</title>
<g id="a_node1"><a xlink:title="Points to the TSO500 section of the samplesheet. &#160;If you are using a samplesheet from BCLConvert,&#10;please set this to &quot;BCLConvert&quot;&#10;">
<polygon fill="#94ddf4" stroke="#000000" points="742,-526.6237 742,-563.6237 898,-563.6237 898,-526.6237 742,-526.6237"/>
<text text-anchor="middle" x="820" y="-541.4237" font-family="Times,serif" font-size="14.00" fill="#000000">samplesheet_prefix</text>
</a>
</g>
</g>
<!-- file:///tmp/tmpg_rj6am6#run_tso500_ctdna_demultiplex_workflow_step -->
<g id="node13" class="node">
<title>file:///tmp/tmpg_rj6am6#run_tso500_ctdna_demultiplex_workflow_step</title>
<g id="a_node13"><a xlink:href="https://github.com/umccr/cwl-ica/blob/beta-release/.github/catalogue/docs/tools/tso500-ctdna-demultiplex-workflow/1.1.0--120/tso500-ctdna-demultiplex-workflow__1.1.0--120.md" xlink:title="Runs the tso500 ctdna demultiplex workflow step. This involves making sure that the fastq list rows are mounted&#10;as per as the WDL task expects them to be (which is every sample in its own project). Then creating an&#10;input.json to match the inputs of the CWL with a WDL compatible input file and launching this through cromwell.&#10;">
<polygon fill="#fafad2" stroke="#000000" points="477.5,-335.6237 477.5,-372.6237 838.5,-372.6237 838.5,-335.6237 477.5,-335.6237"/>
<text text-anchor="middle" x="658" y="-350.4237" font-family="Times,serif" font-size="14.00" fill="#000000">tso500&#45;ctdna&#45;demultiplex&#45;workflow v(1.1.0.120)</text>
</a>
</g>
</g>
<!-- file:///tmp/tmpg_rj6am6#samplesheet_prefix&#45;&gt;file:///tmp/tmpg_rj6am6#run_tso500_ctdna_demultiplex_workflow_step -->
<g id="edge10" class="edge">
<title>file:///tmp/tmpg_rj6am6#samplesheet_prefix&#45;&gt;file:///tmp/tmpg_rj6am6#run_tso500_ctdna_demultiplex_workflow_step</title>
<path fill="none" stroke="#000000" d="M831.9909,-526.6023C846.0991,-502.2282 865.1982,-458.9867 845,-429.1237 828.0096,-404.0034 801.0792,-387.2958 772.8902,-376.1839"/>
<polygon fill="#000000" stroke="#000000" points="773.8878,-372.821 763.2948,-372.6259 771.4541,-379.3843 773.8878,-372.821"/>
</g>
<!-- file:///tmp/tmpg_rj6am6#run_tso500_ctdna_reporting_workflow_step -->
<g id="node15" class="node">
<title>file:///tmp/tmpg_rj6am6#run_tso500_ctdna_reporting_workflow_step</title>
<g id="a_node15"><a xlink:href="https://github.com/umccr/cwl-ica/blob/beta-release/.github/catalogue/docs/tools/tso500-ctdna-reporting-workflow/1.1.0--120/tso500-ctdna-reporting-workflow__1.1.0--120.md" xlink:title="Run the tso500 ctdna repair workflow step&#10;">
<polygon fill="#fafad2" stroke="#000000" points="554,-148.6237 554,-185.6237 898,-185.6237 898,-148.6237 554,-148.6237"/>
<text text-anchor="middle" x="726" y="-163.4237" font-family="Times,serif" font-size="14.00" fill="#000000">tso500&#45;ctdna&#45;reporting&#45;workflow v(1.1.0.120)</text>
</a>
</g>
</g>
<!-- file:///tmp/tmpg_rj6am6#samplesheet_prefix&#45;&gt;file:///tmp/tmpg_rj6am6#run_tso500_ctdna_reporting_workflow_step -->
<g id="edge11" class="edge">
<title>file:///tmp/tmpg_rj6am6#samplesheet_prefix&#45;&gt;file:///tmp/tmpg_rj6am6#run_tso500_ctdna_reporting_workflow_step</title>
<path fill="none" stroke="#000000" d="M833.8778,-526.4061C844.178,-511.2827 857.3727,-488.9873 863,-467.1237 872.2265,-431.2761 848.4508,-336.2107 848,-335.1237 824.83,-279.2598 779.6267,-224.4585 751.2237,-193.323"/>
<polygon fill="#000000" stroke="#000000" points="753.7472,-190.8967 744.3882,-185.9308 748.6077,-195.6492 753.7472,-190.8967"/>
</g>
<!-- file:///tmp/tmpg_rj6am6#add_sample_type_and_pair_id_to_samplesheet_step -->
<g id="node16" class="node">
<title>file:///tmp/tmpg_rj6am6#add_sample_type_and_pair_id_to_samplesheet_step</title>
<g id="a_node16"><a xlink:href="https://github.com/umccr/cwl-ica/blob/beta-release/.github/catalogue/docs/tools/custom-create-tso500-samplesheet/1.0.0/custom-create-tso500-samplesheet__1.0.0.md" xlink:title="Adds the sample_type and pair_id attribute from each of the tso500 samples to&#10;the samplesheet. Here the sample_id attribute of the tso500 sample must match&#10;that of the Sample_ID column in the sample sheet. &#160;This tool also overwrites the Sample_Project attribute&#10;so that it matches the Sample_ID. This tool expects a v1 samplesheet as input&#10;">
<polygon fill="#fafad2" stroke="#000000" points="510,-429.6237 510,-466.6237 836,-466.6237 836,-429.6237 510,-429.6237"/>
<text text-anchor="middle" x="673" y="-444.4237" font-family="Times,serif" font-size="14.00" fill="#000000">custom&#45;create&#45;tso500&#45;samplesheet v(1.0.0)</text>
</a>
</g>
</g>
<!-- file:///tmp/tmpg_rj6am6#samplesheet_prefix&#45;&gt;file:///tmp/tmpg_rj6am6#add_sample_type_and_pair_id_to_samplesheet_step -->
<g id="edge12" class="edge">
<title>file:///tmp/tmpg_rj6am6#samplesheet_prefix&#45;&gt;file:///tmp/tmpg_rj6am6#add_sample_type_and_pair_id_to_samplesheet_step</title>
<path fill="none" stroke="#000000" d="M791.6569,-526.4211C768.3719,-511.0562 735.2148,-489.177 709.8672,-472.451"/>
<polygon fill="#000000" stroke="#000000" points="711.5304,-469.3552 701.2561,-466.7689 707.675,-475.1979 711.5304,-469.3552"/>
</g>
<!-- file:///tmp/tmpg_rj6am6#tso500_samples -->
<g id="node2" class="node">
<title>file:///tmp/tmpg_rj6am6#tso500_samples</title>
<g id="a_node2"><a xlink:title="A list of tso500 samples each element has the following attributes:&#10;* sample_id&#10;* sample_type&#10;* pair_id&#10;">
<polygon fill="#94ddf4" stroke="#000000" points="467.5,-526.6237 467.5,-563.6237 598.5,-563.6237 598.5,-526.6237 467.5,-526.6237"/>
<text text-anchor="middle" x="533" y="-541.4237" font-family="Times,serif" font-size="14.00" fill="#000000">tso500_samples</text>
</a>
</g>
</g>
<!-- file:///tmp/tmpg_rj6am6#tso500_samples&#45;&gt;file:///tmp/tmpg_rj6am6#run_tso500_ctdna_demultiplex_workflow_step -->
<g id="edge13" class="edge">
<title>file:///tmp/tmpg_rj6am6#tso500_samples&#45;&gt;file:///tmp/tmpg_rj6am6#run_tso500_ctdna_demultiplex_workflow_step</title>
<path fill="none" stroke="#000000" d="M519.2861,-526.5077C503.3627,-502.411 481.612,-459.8722 501,-429.1237 516.5652,-404.4381 542.7417,-387.703 569.3038,-376.4333"/>
<polygon fill="#000000" stroke="#000000" points="570.7164,-379.6379 578.6984,-372.671 568.1139,-373.1397 570.7164,-379.6379"/>
</g>
<!-- file:///tmp/tmpg_rj6am6#run_tso500_ctdna_analysis_workflow_step -->
<g id="node14" class="node">
<title>file:///tmp/tmpg_rj6am6#run_tso500_ctdna_analysis_workflow_step</title>
<g id="a_node14"><a xlink:href="https://github.com/umccr/cwl-ica/blob/beta-release/.github/catalogue/docs/tools/tso500-ctdna-analysis-workflow/1.1.0--120/tso500-ctdna-analysis-workflow__1.1.0--120.md" xlink:title="Run the tso500 ctdna analysis workflow step. This involves making sure that the fastq list rows are mounted as&#10;per the WDL task expects them to be (which is every sample in its own project). Then creating an&#10;input.json to match the inputs of the CWL with a WDL compatible input file and launching this through cromwell.&#10;">
<polygon fill="#fafad2" stroke="#000000" points="125,-242.6237 125,-279.6237 459,-279.6237 459,-242.6237 125,-242.6237"/>
<text text-anchor="middle" x="292" y="-257.4237" font-family="Times,serif" font-size="14.00" fill="#000000">tso500&#45;ctdna&#45;analysis&#45;workflow v(1.1.0.120)</text>
</a>
</g>
</g>
<!-- file:///tmp/tmpg_rj6am6#tso500_samples&#45;&gt;file:///tmp/tmpg_rj6am6#run_tso500_ctdna_analysis_workflow_step -->
<g id="edge14" class="edge">
<title>file:///tmp/tmpg_rj6am6#tso500_samples&#45;&gt;file:///tmp/tmpg_rj6am6#run_tso500_ctdna_analysis_workflow_step</title>
<path fill="none" stroke="#000000" d="M517.1873,-526.4897C475.5665,-477.4427 362.8654,-344.6331 314.5206,-287.6626"/>
<polygon fill="#000000" stroke="#000000" points="317.0098,-285.1865 307.8709,-279.8264 311.6725,-289.7157 317.0098,-285.1865"/>
</g>
<!-- file:///tmp/tmpg_rj6am6#tso500_samples&#45;&gt;file:///tmp/tmpg_rj6am6#add_sample_type_and_pair_id_to_samplesheet_step -->
<g id="edge15" class="edge">
<title>file:///tmp/tmpg_rj6am6#tso500_samples&#45;&gt;file:///tmp/tmpg_rj6am6#add_sample_type_and_pair_id_to_samplesheet_step</title>
<path fill="none" stroke="#000000" d="M559.9934,-526.4211C582.0727,-511.1233 613.4722,-489.368 637.5717,-472.6704"/>
<polygon fill="#000000" stroke="#000000" points="639.863,-475.341 646.0895,-466.7689 635.8763,-469.5871 639.863,-475.341"/>
</g>
<!-- file:///tmp/tmpg_rj6am6#resources_dir -->
<g id="node3" class="node">
<title>file:///tmp/tmpg_rj6am6#resources_dir</title>
<g id="a_node3"><a xlink:title="The directory of resources&#10;">
<polygon fill="#94ddf4" stroke="#000000" points="334.5,-526.6237 334.5,-563.6237 449.5,-563.6237 449.5,-526.6237 334.5,-526.6237"/>
<text text-anchor="middle" x="392" y="-541.4237" font-family="Times,serif" font-size="14.00" fill="#000000">resources_dir</text>
</a>
</g>
</g>
<!-- file:///tmp/tmpg_rj6am6#resources_dir&#45;&gt;file:///tmp/tmpg_rj6am6#run_tso500_ctdna_demultiplex_workflow_step -->
<g id="edge16" class="edge">
<title>file:///tmp/tmpg_rj6am6#resources_dir&#45;&gt;file:///tmp/tmpg_rj6am6#run_tso500_ctdna_demultiplex_workflow_step</title>
<path fill="none" stroke="#000000" d="M403.6891,-526.3684C420.0943,-501.3363 452.1071,-456.9389 489,-429.1237 519.2103,-406.3469 557.4266,-388.6451 589.8729,-376.1733"/>
<polygon fill="#000000" stroke="#000000" points="591.1686,-379.4255 599.2996,-372.633 588.7074,-372.8724 591.1686,-379.4255"/>
</g>
<!-- file:///tmp/tmpg_rj6am6#resources_dir&#45;&gt;file:///tmp/tmpg_rj6am6#run_tso500_ctdna_analysis_workflow_step -->
<g id="edge17" class="edge">
<title>file:///tmp/tmpg_rj6am6#resources_dir&#45;&gt;file:///tmp/tmpg_rj6am6#run_tso500_ctdna_analysis_workflow_step</title>
<path fill="none" stroke="#000000" d="M381.9186,-526.5899C373.7072,-511.0199 362.1756,-488.0259 354,-467.1237 329.7718,-405.1808 309.2488,-329.73 299.0006,-289.5406"/>
<polygon fill="#000000" stroke="#000000" points="302.3442,-288.4858 296.504,-279.646 295.5569,-290.1984 302.3442,-288.4858"/>
</g>
<!-- file:///tmp/tmpg_rj6am6#resources_dir&#45;&gt;file:///tmp/tmpg_rj6am6#run_tso500_ctdna_reporting_workflow_step -->
<g id="edge18" class="edge">
<title>file:///tmp/tmpg_rj6am6#resources_dir&#45;&gt;file:///tmp/tmpg_rj6am6#run_tso500_ctdna_reporting_workflow_step</title>
<path fill="none" stroke="#000000" d="M394.7992,-526.3445C401.4604,-487.0838 421.3973,-395.0073 469,-335.1237 523.5154,-266.544 613.958,-216.7775 671.7287,-189.9339"/>
<polygon fill="#000000" stroke="#000000" points="673.4238,-193.0074 681.0614,-185.6645 670.5117,-186.6418 673.4238,-193.0074"/>
</g>
<!-- file:///tmp/tmpg_rj6am6#run_parameters_xml -->
<g id="node4" class="node">
<title>file:///tmp/tmpg_rj6am6#run_parameters_xml</title>
<g id="a_node4"><a xlink:title="The run parameters xml file found inside the run folder&#10;">
<polygon fill="#94ddf4" stroke="#000000" points="916.5,-526.6237 916.5,-563.6237 1081.5,-563.6237 1081.5,-526.6237 916.5,-526.6237"/>
<text text-anchor="middle" x="999" y="-541.4237" font-family="Times,serif" font-size="14.00" fill="#000000">run_parameters_xml</text>
</a>
</g>
</g>
<!-- file:///tmp/tmpg_rj6am6#run_parameters_xml&#45;&gt;file:///tmp/tmpg_rj6am6#run_tso500_ctdna_demultiplex_workflow_step -->
<g id="edge19" class="edge">
<title>file:///tmp/tmpg_rj6am6#run_parameters_xml&#45;&gt;file:///tmp/tmpg_rj6am6#run_tso500_ctdna_demultiplex_workflow_step</title>
<path fill="none" stroke="#000000" d="M981.2756,-526.2875C956.761,-501.1637 910.1675,-456.6627 863,-429.1237 823.7781,-406.2238 776.3522,-388.328 736.9991,-375.7697"/>
<polygon fill="#000000" stroke="#000000" points="737.767,-372.3426 727.1779,-372.6921 735.6738,-379.0223 737.767,-372.3426"/>
</g>
<!-- file:///tmp/tmpg_rj6am6#run_parameters_xml&#45;&gt;file:///tmp/tmpg_rj6am6#run_tso500_ctdna_reporting_workflow_step -->
<g id="edge20" class="edge">
<title>file:///tmp/tmpg_rj6am6#run_parameters_xml&#45;&gt;file:///tmp/tmpg_rj6am6#run_tso500_ctdna_reporting_workflow_step</title>
<path fill="none" stroke="#000000" d="M990.8578,-526.5905C968.4427,-476.8723 901.9503,-337.8363 819,-242.1237 802.5076,-223.0938 780.7417,-205.2455 762.4134,-191.7381"/>
<polygon fill="#000000" stroke="#000000" points="764.4203,-188.8702 754.2655,-185.8487 760.3197,-194.5434 764.4203,-188.8702"/>
</g>
<!-- file:///tmp/tmpg_rj6am6#run_info_xml -->
<g id="node5" class="node">
<title>file:///tmp/tmpg_rj6am6#run_info_xml</title>
<g id="a_node5"><a xlink:title="The run info xml file found inside the run folder&#10;">
<polygon fill="#94ddf4" stroke="#000000" points="1100,-526.6237 1100,-563.6237 1210,-563.6237 1210,-526.6237 1100,-526.6237"/>
<text text-anchor="middle" x="1155" y="-541.4237" font-family="Times,serif" font-size="14.00" fill="#000000">run_info_xml</text>
</a>
</g>
</g>
<!-- file:///tmp/tmpg_rj6am6#run_info_xml&#45;&gt;file:///tmp/tmpg_rj6am6#run_tso500_ctdna_demultiplex_workflow_step -->
<g id="edge21" class="edge">
<title>file:///tmp/tmpg_rj6am6#run_info_xml&#45;&gt;file:///tmp/tmpg_rj6am6#run_tso500_ctdna_demultiplex_workflow_step</title>
<path fill="none" stroke="#000000" d="M1134.8762,-526.6181C1122.835,-516.2829 1106.835,-503.7829 1091,-495.1237 983.1904,-436.1693 846.685,-396.8276 756.066,-375.0146"/>
<polygon fill="#000000" stroke="#000000" points="756.611,-371.5465 746.0722,-372.6352 754.9897,-378.3562 756.611,-371.5465"/>
</g>
<!-- file:///tmp/tmpg_rj6am6#run_info_xml&#45;&gt;file:///tmp/tmpg_rj6am6#run_tso500_ctdna_reporting_workflow_step -->
<g id="edge22" class="edge">
<title>file:///tmp/tmpg_rj6am6#run_info_xml&#45;&gt;file:///tmp/tmpg_rj6am6#run_tso500_ctdna_reporting_workflow_step</title>
<path fill="none" stroke="#000000" d="M1138.8859,-526.6153C1095.1133,-476.9589 969.0846,-338.0624 847,-242.1237 822.6176,-222.9631 793.0695,-204.5682 769.2764,-190.7911"/>
<polygon fill="#000000" stroke="#000000" points="770.8794,-187.6759 760.462,-185.745 767.4016,-193.7508 770.8794,-187.6759"/>
</g>
<!-- file:///tmp/tmpg_rj6am6#fastq_list_rows -->
<g id="node6" class="node">
<title>file:///tmp/tmpg_rj6am6#fastq_list_rows</title>
<g id="a_node6"><a xlink:title="A list of fastq list rows where each element has the following attributes&#10;* rgid &#160;# Not used&#10;* rgsm&#10;* rglb &#160;# Not used&#10;* read_1&#10;* read_2&#10;">
<polygon fill="#94ddf4" stroke="#000000" points="191.5,-526.6237 191.5,-563.6237 316.5,-563.6237 316.5,-526.6237 191.5,-526.6237"/>
<text text-anchor="middle" x="254" y="-541.4237" font-family="Times,serif" font-size="14.00" fill="#000000">fastq_list_rows</text>
</a>
</g>
</g>
<!-- file:///tmp/tmpg_rj6am6#fastq_list_rows&#45;&gt;file:///tmp/tmpg_rj6am6#run_tso500_ctdna_demultiplex_workflow_step -->
<g id="edge23" class="edge">
<title>file:///tmp/tmpg_rj6am6#fastq_list_rows&#45;&gt;file:///tmp/tmpg_rj6am6#run_tso500_ctdna_demultiplex_workflow_step</title>
<path fill="none" stroke="#000000" d="M278.8288,-526.5905C292.2484,-516.8432 309.2539,-504.9181 325,-495.1237 377.016,-462.7689 390.0586,-454.0848 446,-429.1237 492.3068,-408.4616 546.1963,-389.4599 588.0545,-375.7523"/>
<polygon fill="#000000" stroke="#000000" points="589.1795,-379.067 597.6078,-372.6472 587.0157,-372.4098 589.1795,-379.067"/>
</g>
<!-- file:///tmp/tmpg_rj6am6#fastq_list_rows&#45;&gt;file:///tmp/tmpg_rj6am6#run_tso500_ctdna_analysis_workflow_step -->
<g id="edge24" class="edge">
<title>file:///tmp/tmpg_rj6am6#fastq_list_rows&#45;&gt;file:///tmp/tmpg_rj6am6#run_tso500_ctdna_analysis_workflow_step</title>
<path fill="none" stroke="#000000" d="M256.4933,-526.4897C262.9752,-478.0458 280.3909,-347.8863 288.1633,-289.798"/>
<polygon fill="#000000" stroke="#000000" points="291.6403,-290.2022 289.4975,-279.8264 284.7022,-289.2738 291.6403,-290.2022"/>
</g>
<!-- file:///tmp/tmpg_rj6am6#samplesheet -->
<g id="node7" class="node">
<title>file:///tmp/tmpg_rj6am6#samplesheet</title>
<g id="a_node7"><a xlink:title="The sample sheet file, expects a V2 samplesheet.&#10;Even though we don&#39;t demultiplex, we still need the information on Sample_Type and Pair_ID to determine which&#10;workflow (DNA / RNA) to run through, we gather this through the tso500_samples input schema and then append to the&#10;samplesheet. Please make sure that the sample_id in the tso500 sample schema match the Sample_ID in the&#10;&quot;&lt;samplesheet_prefix&gt;_Data&quot; column.&#10;">
<polygon fill="#94ddf4" stroke="#000000" points="616.5,-526.6237 616.5,-563.6237 723.5,-563.6237 723.5,-526.6237 616.5,-526.6237"/>
<text text-anchor="middle" x="670" y="-541.4237" font-family="Times,serif" font-size="14.00" fill="#000000">samplesheet</text>
</a>
</g>
</g>
<!-- file:///tmp/tmpg_rj6am6#samplesheet&#45;&gt;file:///tmp/tmpg_rj6am6#add_sample_type_and_pair_id_to_samplesheet_step -->
<g id="edge25" class="edge">
<title>file:///tmp/tmpg_rj6am6#samplesheet&#45;&gt;file:///tmp/tmpg_rj6am6#add_sample_type_and_pair_id_to_samplesheet_step</title>
<path fill="none" stroke="#000000" d="M670.5784,-526.4211C671.0101,-512.4652 671.6079,-493.135 672.1016,-477.1735"/>
<polygon fill="#000000" stroke="#000000" points="675.6124,-476.8723 672.4233,-466.7689 668.6158,-476.6559 675.6124,-476.8723"/>
</g>
<!-- file:///tmp/tmpg_rj6am6#dragen_license_key -->
<g id="node8" class="node">
<title>file:///tmp/tmpg_rj6am6#dragen_license_key</title>
<g id="a_node8"><a xlink:title="File containing the dragen license&#10;">
<polygon fill="#94ddf4" stroke="#000000" points="16,-526.6237 16,-563.6237 174,-563.6237 174,-526.6237 16,-526.6237"/>
<text text-anchor="middle" x="95" y="-541.4237" font-family="Times,serif" font-size="14.00" fill="#000000">dragen_license_key</text>
</a>
</g>
</g>
<!-- file:///tmp/tmpg_rj6am6#dragen_license_key&#45;&gt;file:///tmp/tmpg_rj6am6#run_tso500_ctdna_analysis_workflow_step -->
<g id="edge26" class="edge">
<title>file:///tmp/tmpg_rj6am6#dragen_license_key&#45;&gt;file:///tmp/tmpg_rj6am6#run_tso500_ctdna_analysis_workflow_step</title>
<path fill="none" stroke="#000000" d="M107.9257,-526.4897C141.8083,-477.6438 233.3185,-345.7203 273.1025,-288.3668"/>
<polygon fill="#000000" stroke="#000000" points="276.2029,-290.038 279.0267,-279.8264 270.4512,-286.0482 276.2029,-290.038"/>
</g>
<!-- file:///tmp/tmpg_rj6am6#analysis_workflow_output -->
<g id="node9" class="node">
<title>file:///tmp/tmpg_rj6am6#analysis_workflow_output</title>
<g id="a_node9"><a xlink:title="Intermediate output files from the analysis workflow steps&#10;">
<polygon fill="#94ddf4" stroke="#000000" points="190.5,-54.6237 190.5,-91.6237 393.5,-91.6237 393.5,-54.6237 190.5,-54.6237"/>
<text text-anchor="middle" x="292" y="-69.4237" font-family="Times,serif" font-size="14.00" fill="#000000">analysis_workflow_output</text>
</a>
</g>
</g>
<!-- file:///tmp/tmpg_rj6am6#results -->
<g id="node10" class="node">
<title>file:///tmp/tmpg_rj6am6#results</title>
<g id="a_node10"><a xlink:title="Results directory, output from the reporting workflow&#10;">
<polygon fill="#94ddf4" stroke="#000000" points="659,-54.6237 659,-91.6237 725,-91.6237 725,-54.6237 659,-54.6237"/>
<text text-anchor="middle" x="692" y="-69.4237" font-family="Times,serif" font-size="14.00" fill="#000000">results</text>
</a>
</g>
</g>
<!-- file:///tmp/tmpg_rj6am6#reporting_workflow_output -->
<g id="node11" class="node">
<title>file:///tmp/tmpg_rj6am6#reporting_workflow_output</title>
<g id="a_node11"><a xlink:title="Intermediate output files from the reporting workflow steps&#10;">
<polygon fill="#94ddf4" stroke="#000000" points="743,-54.6237 743,-91.6237 955,-91.6237 955,-54.6237 743,-54.6237"/>
<text text-anchor="middle" x="849" y="-69.4237" font-family="Times,serif" font-size="14.00" fill="#000000">reporting_workflow_output</text>
</a>
</g>
</g>
<!-- file:///tmp/tmpg_rj6am6#demultiplex_workflow_output -->
<g id="node12" class="node">
<title>file:///tmp/tmpg_rj6am6#demultiplex_workflow_output</title>
<g id="a_node12"><a xlink:title="Intermediate output files from the demultiplex workflow steps&#10;">
<polygon fill="#94ddf4" stroke="#000000" points="411,-54.6237 411,-91.6237 641,-91.6237 641,-54.6237 411,-54.6237"/>
<text text-anchor="middle" x="526" y="-69.4237" font-family="Times,serif" font-size="14.00" fill="#000000">demultiplex_workflow_output</text>
</a>
</g>
</g>
<!-- file:///tmp/tmpg_rj6am6#run_tso500_ctdna_demultiplex_workflow_step&#45;&gt;file:///tmp/tmpg_rj6am6#demultiplex_workflow_output -->
<g id="edge3" class="edge">
<title>file:///tmp/tmpg_rj6am6#run_tso500_ctdna_demultiplex_workflow_step&#45;&gt;file:///tmp/tmpg_rj6am6#demultiplex_workflow_output</title>
<path fill="none" stroke="#000000" d="M641.4857,-335.5085C616.3284,-306.0495 568.8207,-245.8761 545,-186.1237 534.0758,-158.7212 529.4322,-125.1492 527.4585,-101.7497"/>
<polygon fill="#000000" stroke="#000000" points="530.949,-101.4901 526.7266,-91.773 523.9678,-102.0023 530.949,-101.4901"/>
</g>
<!-- file:///tmp/tmpg_rj6am6#run_tso500_ctdna_demultiplex_workflow_step&#45;&gt;file:///tmp/tmpg_rj6am6#run_tso500_ctdna_analysis_workflow_step -->
<g id="edge1" class="edge">
<title>file:///tmp/tmpg_rj6am6#run_tso500_ctdna_demultiplex_workflow_step&#45;&gt;file:///tmp/tmpg_rj6am6#run_tso500_ctdna_analysis_workflow_step</title>
<path fill="none" stroke="#000000" d="M584.8141,-335.5273C524.2212,-320.1307 438.1394,-298.2575 374.9899,-282.2113"/>
<polygon fill="#000000" stroke="#000000" points="375.6131,-278.7585 365.0591,-279.6879 373.8891,-285.5429 375.6131,-278.7585"/>
</g>
<!-- file:///tmp/tmpg_rj6am6#run_tso500_ctdna_demultiplex_workflow_step&#45;&gt;file:///tmp/tmpg_rj6am6#run_tso500_ctdna_reporting_workflow_step -->
<g id="edge2" class="edge">
<title>file:///tmp/tmpg_rj6am6#run_tso500_ctdna_demultiplex_workflow_step&#45;&gt;file:///tmp/tmpg_rj6am6#run_tso500_ctdna_reporting_workflow_step</title>
<path fill="none" stroke="#000000" d="M664.7687,-335.5098C676.7337,-302.606 701.6833,-233.9947 715.7619,-195.2786"/>
<polygon fill="#000000" stroke="#000000" points="719.1305,-196.2564 719.2587,-185.6624 712.5519,-193.8642 719.1305,-196.2564"/>
</g>
<!-- file:///tmp/tmpg_rj6am6#run_tso500_ctdna_analysis_workflow_step&#45;&gt;file:///tmp/tmpg_rj6am6#analysis_workflow_output -->
<g id="edge6" class="edge">
<title>file:///tmp/tmpg_rj6am6#run_tso500_ctdna_analysis_workflow_step&#45;&gt;file:///tmp/tmpg_rj6am6#analysis_workflow_output</title>
<path fill="none" stroke="#000000" d="M292,-242.4102C292,-209.4713 292,-140.9387 292,-101.9276"/>
<polygon fill="#000000" stroke="#000000" points="295.5001,-101.7615 292,-91.7615 288.5001,-101.7615 295.5001,-101.7615"/>
</g>
<!-- file:///tmp/tmpg_rj6am6#run_tso500_ctdna_analysis_workflow_step&#45;&gt;file:///tmp/tmpg_rj6am6#run_tso500_ctdna_reporting_workflow_step -->
<g id="edge4" class="edge">
<title>file:///tmp/tmpg_rj6am6#run_tso500_ctdna_analysis_workflow_step&#45;&gt;file:///tmp/tmpg_rj6am6#run_tso500_ctdna_reporting_workflow_step</title>
<path fill="none" stroke="#000000" d="M371.9873,-242.6084C443.1826,-226.8425 547.6041,-204.2108 624.6253,-187.8443"/>
<polygon fill="#000000" stroke="#000000" points="625.7729,-191.1787 634.8284,-185.6789 624.3196,-184.3312 625.7729,-191.1787"/>
</g>
<!-- file:///tmp/tmpg_rj6am6#run_tso500_ctdna_analysis_workflow_step&#45;&gt;file:///tmp/tmpg_rj6am6#run_tso500_ctdna_reporting_workflow_step -->
<g id="edge5" class="edge">
<title>file:///tmp/tmpg_rj6am6#run_tso500_ctdna_analysis_workflow_step&#45;&gt;file:///tmp/tmpg_rj6am6#run_tso500_ctdna_reporting_workflow_step</title>
<path fill="none" stroke="#000000" d="M382.9835,-242.6084C457.3712,-226.8425 561.9323,-204.2108 636.0403,-187.8443"/>
<polygon fill="#000000" stroke="#000000" points="636.8242,-191.2556 645.8326,-185.6789 635.3127,-184.4207 636.8242,-191.2556"/>
</g>
<!-- file:///tmp/tmpg_rj6am6#run_tso500_ctdna_reporting_workflow_step&#45;&gt;file:///tmp/tmpg_rj6am6#results -->
<g id="edge7" class="edge">
<title>file:///tmp/tmpg_rj6am6#run_tso500_ctdna_reporting_workflow_step&#45;&gt;file:///tmp/tmpg_rj6am6#results</title>
<path fill="none" stroke="#000000" d="M719.2827,-148.5523C714.3931,-135.034 707.6856,-116.4897 702.145,-101.1716"/>
<polygon fill="#000000" stroke="#000000" points="705.3961,-99.8698 698.7034,-91.6565 698.8135,-102.2508 705.3961,-99.8698"/>
</g>
<!-- file:///tmp/tmpg_rj6am6#run_tso500_ctdna_reporting_workflow_step&#45;&gt;file:///tmp/tmpg_rj6am6#reporting_workflow_output -->
<g id="edge8" class="edge">
<title>file:///tmp/tmpg_rj6am6#run_tso500_ctdna_reporting_workflow_step&#45;&gt;file:///tmp/tmpg_rj6am6#reporting_workflow_output</title>
<path fill="none" stroke="#000000" d="M750.3008,-148.5523C769.3374,-134.004 795.991,-113.6347 816.8023,-97.7301"/>
<polygon fill="#000000" stroke="#000000" points="818.9295,-100.5095 824.7496,-91.6565 814.679,-94.9477 818.9295,-100.5095"/>
</g>
<!-- file:///tmp/tmpg_rj6am6#add_sample_type_and_pair_id_to_samplesheet_step&#45;&gt;file:///tmp/tmpg_rj6am6#run_tso500_ctdna_demultiplex_workflow_step -->
<g id="edge9" class="edge">
<title>file:///tmp/tmpg_rj6am6#add_sample_type_and_pair_id_to_samplesheet_step&#45;&gt;file:///tmp/tmpg_rj6am6#run_tso500_ctdna_demultiplex_workflow_step</title>
<path fill="none" stroke="#000000" d="M670.0365,-429.5523C667.8998,-416.1627 664.9764,-397.8424 662.5457,-382.6101"/>
<polygon fill="#000000" stroke="#000000" points="665.9895,-381.98 660.9574,-372.6565 659.077,-383.0831 665.9895,-381.98"/>
</g>
</g>
</svg>
