<?xml version="1.0" encoding="UTF-8" standalone="no"?>
<!DOCTYPE svg PUBLIC "-//W3C//DTD SVG 1.1//EN"
 "http://www.w3.org/Graphics/SVG/1.1/DTD/svg11.dtd">
<!-- Generated by graphviz version 2.40.1 (20161225.0304)
 -->
<!-- Title: G Pages: 1 -->
<svg width="1234pt" height="598pt"
 viewBox="0.00 0.00 1234.00 597.71" xmlns="http://www.w3.org/2000/svg" xmlns:xlink="http://www.w3.org/1999/xlink">
<g id="graph0" class="graph" transform="scale(1 1) rotate(0) translate(4 593.706)">
<title>G</title>
<polygon fill="#eeeeee" stroke="transparent" points="-4,4 -4,-593.706 1230,-593.706 1230,4 -4,4"/>
<g id="clust1" class="cluster">
<title>cluster_inputs</title>
<polygon fill="#eeeeee" stroke="#000000" stroke-dasharray="5,2" points="8,-482.1416 8,-579.5823 1218,-579.5823 1218,-482.1416 8,-482.1416"/>
<text text-anchor="middle" x="1150" y="-489.9416" font-family="Times,serif" font-size="14.00" fill="#000000">Workflow Inputs</text>
</g>
<g id="clust2" class="cluster">
<title>cluster_outputs</title>
<polygon fill="#eeeeee" stroke="#000000" stroke-dasharray="5,2" points="259,-10.1237 259,-107.5644 1039,-107.5644 1039,-10.1237 259,-10.1237"/>
<text text-anchor="middle" x="965" y="-17.9237" font-family="Times,serif" font-size="14.00" fill="#000000">Workflow Outputs</text>
</g>
<!-- file:///tmp/tmpdrlja491#samplesheet -->
<g id="node1" class="node">
<title>file:///tmp/tmpdrlja491#samplesheet</title>
<g id="a_node1"><a xlink:title="The sample sheet file, expects a V2 samplesheet.&#10;Even though we don&#39;t demultiplex, we still need the information on Sample_Type and Pair_ID to determine which&#10;workflow (DNA / RNA) to run through, we gather this through the tso500_samples input schema and then append to the&#10;samplesheet. Please make sure that the sample_id in the tso500 sample schema match the Sample_ID in the&#10;&quot;&lt;samplesheet_prefix&gt;_Data&quot; column.&#10;">
<polygon fill="#94ddf4" stroke="#000000" points="483.5,-526.6237 483.5,-563.6237 590.5,-563.6237 590.5,-526.6237 483.5,-526.6237"/>
<text text-anchor="middle" x="537" y="-541.4237" font-family="Times,serif" font-size="14.00" fill="#000000">samplesheet</text>
</a>
</g>
</g>
<!-- file:///tmp/tmpdrlja491#add_sample_type_and_pair_id_to_samplesheet_step -->
<g id="node16" class="node">
<title>file:///tmp/tmpdrlja491#add_sample_type_and_pair_id_to_samplesheet_step</title>
<g id="a_node16"><a xlink:href="https://github.com/umccr/cwl-ica/blob/beta-release/.github/catalogue/docs/tools/custom-create-tso500-samplesheet/1.0.0/custom-create-tso500-samplesheet__1.0.0.md" xlink:title="Adds the sample_type and pair_id attribute from each of the tso500 samples to&#10;the samplesheet. Here the sample_id attribute of the tso500 sample must match&#10;that of the Sample_ID column in the sample sheet. &#160;This tool also overwrites the Sample_Project attribute&#10;so that it matches the Sample_ID. This tool expects a v1 samplesheet as input&#10;">
<polygon fill="#fafad2" stroke="#000000" points="427,-429.6237 427,-466.6237 753,-466.6237 753,-429.6237 427,-429.6237"/>
<text text-anchor="middle" x="590" y="-444.4237" font-family="Times,serif" font-size="14.00" fill="#000000">custom&#45;create&#45;tso500&#45;samplesheet v(1.0.0)</text>
</a>
</g>
</g>
<!-- file:///tmp/tmpdrlja491#samplesheet&#45;&gt;file:///tmp/tmpdrlja491#add_sample_type_and_pair_id_to_samplesheet_step -->
<g id="edge10" class="edge">
<title>file:///tmp/tmpdrlja491#samplesheet&#45;&gt;file:///tmp/tmpdrlja491#add_sample_type_and_pair_id_to_samplesheet_step</title>
<path fill="none" stroke="#000000" d="M547.2189,-526.4211C555.0643,-512.0627 566.018,-492.0154 574.8774,-475.8008"/>
<polygon fill="#000000" stroke="#000000" points="578.089,-477.2226 579.8124,-466.7689 571.9461,-473.8662 578.089,-477.2226"/>
</g>
<!-- file:///tmp/tmpdrlja491#tso500_samples -->
<g id="node2" class="node">
<title>file:///tmp/tmpdrlja491#tso500_samples</title>
<g id="a_node2"><a xlink:title="A list of tso500 samples each element has the following attributes:&#10;* sample_id&#10;* sample_type&#10;* pair_id&#10;">
<polygon fill="#94ddf4" stroke="#000000" points="334.5,-526.6237 334.5,-563.6237 465.5,-563.6237 465.5,-526.6237 334.5,-526.6237"/>
<text text-anchor="middle" x="400" y="-541.4237" font-family="Times,serif" font-size="14.00" fill="#000000">tso500_samples</text>
</a>
</g>
</g>
<!-- file:///tmp/tmpdrlja491#run_tso500_ctdna_analysis_workflow_step -->
<g id="node13" class="node">
<title>file:///tmp/tmpdrlja491#run_tso500_ctdna_analysis_workflow_step</title>
<g id="a_node13"><a xlink:href="https://github.com/umccr/cwl-ica/blob/beta-release/.github/catalogue/docs/tools/tso500-ctdna-analysis-workflow/1.1.0--120/tso500-ctdna-analysis-workflow__1.1.0--120.md" xlink:title="Run the tso500 ctdna analysis workflow step. This involves making sure that the fastq list rows are mounted as&#10;per the WDL task expects them to be (which is every sample in its own project). Then creating an&#10;input.json to match the inputs of the CWL with a WDL compatible input file and launching this through cromwell.&#10;">
<polygon fill="#fafad2" stroke="#000000" points="195,-242.6237 195,-279.6237 529,-279.6237 529,-242.6237 195,-242.6237"/>
<text text-anchor="middle" x="362" y="-257.4237" font-family="Times,serif" font-size="14.00" fill="#000000">tso500&#45;ctdna&#45;analysis&#45;workflow v(1.1.0.120)</text>
</a>
</g>
</g>
<!-- file:///tmp/tmpdrlja491#tso500_samples&#45;&gt;file:///tmp/tmpdrlja491#run_tso500_ctdna_analysis_workflow_step -->
<g id="edge11" class="edge">
<title>file:///tmp/tmpdrlja491#tso500_samples&#45;&gt;file:///tmp/tmpdrlja491#run_tso500_ctdna_analysis_workflow_step</title>
<path fill="none" stroke="#000000" d="M382.423,-526.3374C369.8344,-511.5204 353.9313,-489.6574 347,-467.1237 328.1852,-405.9571 342.8929,-329.9589 353.5279,-289.5344"/>
<polygon fill="#000000" stroke="#000000" points="356.9227,-290.389 356.1878,-279.8196 350.1712,-288.5404 356.9227,-290.389"/>
</g>
<!-- file:///tmp/tmpdrlja491#run_tso500_ctdna_demultiplex_workflow_step -->
<g id="node15" class="node">
<title>file:///tmp/tmpdrlja491#run_tso500_ctdna_demultiplex_workflow_step</title>
<g id="a_node15"><a xlink:href="https://github.com/umccr/cwl-ica/blob/beta-release/.github/catalogue/docs/tools/tso500-ctdna-demultiplex-workflow/1.1.0--120/tso500-ctdna-demultiplex-workflow__1.1.0--120.md" xlink:title="Runs the tso500 ctdna demultiplex workflow step. This involves making sure that the fastq list rows are mounted&#10;as per as the WDL task expects them to be (which is every sample in its own project). Then creating an&#10;input.json to match the inputs of the CWL with a WDL compatible input file and launching this through cromwell.&#10;">
<polygon fill="#fafad2" stroke="#000000" points="429.5,-335.6237 429.5,-372.6237 790.5,-372.6237 790.5,-335.6237 429.5,-335.6237"/>
<text text-anchor="middle" x="610" y="-350.4237" font-family="Times,serif" font-size="14.00" fill="#000000">tso500&#45;ctdna&#45;demultiplex&#45;workflow v(1.1.0.120)</text>
</a>
</g>
</g>
<!-- file:///tmp/tmpdrlja491#tso500_samples&#45;&gt;file:///tmp/tmpdrlja491#run_tso500_ctdna_demultiplex_workflow_step -->
<g id="edge12" class="edge">
<title>file:///tmp/tmpdrlja491#tso500_samples&#45;&gt;file:///tmp/tmpdrlja491#run_tso500_ctdna_demultiplex_workflow_step</title>
<path fill="none" stroke="#000000" d="M397.5985,-526.4157C395.4628,-501.4372 395.553,-457.1003 418,-429.1237 438.2084,-403.9372 468.0249,-387.188 498.1657,-376.0574"/>
<polygon fill="#000000" stroke="#000000" points="499.6659,-379.2407 507.9512,-372.6374 497.3564,-372.6327 499.6659,-379.2407"/>
</g>
<!-- file:///tmp/tmpdrlja491#tso500_samples&#45;&gt;file:///tmp/tmpdrlja491#add_sample_type_and_pair_id_to_samplesheet_step -->
<g id="edge13" class="edge">
<title>file:///tmp/tmpdrlja491#tso500_samples&#45;&gt;file:///tmp/tmpdrlja491#add_sample_type_and_pair_id_to_samplesheet_step</title>
<path fill="none" stroke="#000000" d="M425.245,-526.4497C439.4356,-516.431 457.7219,-504.2951 475,-495.1237 491.9582,-486.1221 511.0274,-477.6979 528.6892,-470.5379"/>
<polygon fill="#000000" stroke="#000000" points="530.3402,-473.6477 538.3342,-466.6945 527.7489,-467.145 530.3402,-473.6477"/>
</g>
<!-- file:///tmp/tmpdrlja491#dragen_license_key -->
<g id="node3" class="node">
<title>file:///tmp/tmpdrlja491#dragen_license_key</title>
<g id="a_node3"><a xlink:title="File containing the dragen license&#10;">
<polygon fill="#94ddf4" stroke="#000000" points="16,-526.6237 16,-563.6237 174,-563.6237 174,-526.6237 16,-526.6237"/>
<text text-anchor="middle" x="95" y="-541.4237" font-family="Times,serif" font-size="14.00" fill="#000000">dragen_license_key</text>
</a>
</g>
</g>
<!-- file:///tmp/tmpdrlja491#dragen_license_key&#45;&gt;file:///tmp/tmpdrlja491#run_tso500_ctdna_analysis_workflow_step -->
<g id="edge14" class="edge">
<title>file:///tmp/tmpdrlja491#dragen_license_key&#45;&gt;file:///tmp/tmpdrlja491#run_tso500_ctdna_analysis_workflow_step</title>
<path fill="none" stroke="#000000" d="M112.5186,-526.4897C158.7241,-477.3422 284.0014,-344.0885 337.3781,-287.3133"/>
<polygon fill="#000000" stroke="#000000" points="340.1172,-289.5095 344.4169,-279.8264 335.0172,-284.7148 340.1172,-289.5095"/>
</g>
<!-- file:///tmp/tmpdrlja491#run_parameters_xml -->
<g id="node4" class="node">
<title>file:///tmp/tmpdrlja491#run_parameters_xml</title>
<g id="a_node4"><a xlink:title="The run parameters xml file found inside the run folder&#10;">
<polygon fill="#94ddf4" stroke="#000000" points="1044.5,-526.6237 1044.5,-563.6237 1209.5,-563.6237 1209.5,-526.6237 1044.5,-526.6237"/>
<text text-anchor="middle" x="1127" y="-541.4237" font-family="Times,serif" font-size="14.00" fill="#000000">run_parameters_xml</text>
</a>
</g>
</g>
<!-- file:///tmp/tmpdrlja491#run_tso500_ctdna_reporting_workflow_step -->
<g id="node14" class="node">
<title>file:///tmp/tmpdrlja491#run_tso500_ctdna_reporting_workflow_step</title>
<g id="a_node14"><a xlink:href="https://github.com/umccr/cwl-ica/blob/beta-release/.github/catalogue/docs/tools/tso500-ctdna-reporting-workflow/1.1.0--120/tso500-ctdna-reporting-workflow__1.1.0--120.md" xlink:title="Run the tso500 ctdna repair workflow step&#10;">
<polygon fill="#fafad2" stroke="#000000" points="647,-148.6237 647,-185.6237 991,-185.6237 991,-148.6237 647,-148.6237"/>
<text text-anchor="middle" x="819" y="-163.4237" font-family="Times,serif" font-size="14.00" fill="#000000">tso500&#45;ctdna&#45;reporting&#45;workflow v(1.1.0.120)</text>
</a>
</g>
</g>
<!-- file:///tmp/tmpdrlja491#run_parameters_xml&#45;&gt;file:///tmp/tmpdrlja491#run_tso500_ctdna_reporting_workflow_step -->
<g id="edge15" class="edge">
<title>file:///tmp/tmpdrlja491#run_parameters_xml&#45;&gt;file:///tmp/tmpdrlja491#run_tso500_ctdna_reporting_workflow_step</title>
<path fill="none" stroke="#000000" d="M1111.7262,-526.3786C1061.2348,-464.4118 899.5697,-266.0048 840.7019,-193.7578"/>
<polygon fill="#000000" stroke="#000000" points="843.3961,-191.5234 834.366,-185.9819 837.9694,-195.9452 843.3961,-191.5234"/>
</g>
<!-- file:///tmp/tmpdrlja491#run_parameters_xml&#45;&gt;file:///tmp/tmpdrlja491#run_tso500_ctdna_demultiplex_workflow_step -->
<g id="edge16" class="edge">
<title>file:///tmp/tmpdrlja491#run_parameters_xml&#45;&gt;file:///tmp/tmpdrlja491#run_tso500_ctdna_demultiplex_workflow_step</title>
<path fill="none" stroke="#000000" d="M1095.6868,-526.514C1078.1749,-516.5147 1055.754,-504.3769 1035,-495.1237 918.2631,-443.0761 776.1716,-399.724 689.4437,-375.3664"/>
<polygon fill="#000000" stroke="#000000" points="690.2407,-371.9551 679.6677,-372.6354 688.3573,-378.697 690.2407,-371.9551"/>
</g>
<!-- file:///tmp/tmpdrlja491#resources_dir -->
<g id="node5" class="node">
<title>file:///tmp/tmpdrlja491#resources_dir</title>
<g id="a_node5"><a xlink:title="The directory of resources&#10;">
<polygon fill="#94ddf4" stroke="#000000" points="608.5,-526.6237 608.5,-563.6237 723.5,-563.6237 723.5,-526.6237 608.5,-526.6237"/>
<text text-anchor="middle" x="666" y="-541.4237" font-family="Times,serif" font-size="14.00" fill="#000000">resources_dir</text>
</a>
</g>
</g>
<!-- file:///tmp/tmpdrlja491#resources_dir&#45;&gt;file:///tmp/tmpdrlja491#run_tso500_ctdna_analysis_workflow_step -->
<g id="edge17" class="edge">
<title>file:///tmp/tmpdrlja491#resources_dir&#45;&gt;file:///tmp/tmpdrlja491#run_tso500_ctdna_analysis_workflow_step</title>
<path fill="none" stroke="#000000" d="M646.8454,-526.5023C634.475,-515.5839 617.4737,-502.5216 600,-495.1237 524.6355,-463.2165 479.0396,-521.6401 418,-467.1237 367.1824,-421.7369 360.4723,-335.3005 360.7271,-290.1792"/>
<polygon fill="#000000" stroke="#000000" points="364.2313,-289.9681 360.9113,-279.9069 357.2324,-289.8425 364.2313,-289.9681"/>
</g>
<!-- file:///tmp/tmpdrlja491#resources_dir&#45;&gt;file:///tmp/tmpdrlja491#run_tso500_ctdna_reporting_workflow_step -->
<g id="edge18" class="edge">
<title>file:///tmp/tmpdrlja491#resources_dir&#45;&gt;file:///tmp/tmpdrlja491#run_tso500_ctdna_reporting_workflow_step</title>
<path fill="none" stroke="#000000" d="M689.7919,-526.5124C702.4212,-516.8533 718.3256,-505.0332 733,-495.1237 752.8351,-481.7293 765.0565,-486.5767 779,-467.1237 838.6726,-383.8731 830.6608,-253.457 823.4436,-195.9775"/>
<polygon fill="#000000" stroke="#000000" points="826.8773,-195.2497 822.0764,-185.805 819.9397,-196.1822 826.8773,-195.2497"/>
</g>
<!-- file:///tmp/tmpdrlja491#resources_dir&#45;&gt;file:///tmp/tmpdrlja491#run_tso500_ctdna_demultiplex_workflow_step -->
<g id="edge19" class="edge">
<title>file:///tmp/tmpdrlja491#resources_dir&#45;&gt;file:///tmp/tmpdrlja491#run_tso500_ctdna_demultiplex_workflow_step</title>
<path fill="none" stroke="#000000" d="M691.3442,-526.3317C718.4678,-505.9456 758.1468,-475.2191 762,-467.1237 769.2584,-451.8741 770.9169,-443.4668 762,-429.1237 746.7124,-404.5332 720.7206,-387.7659 694.5119,-376.4408"/>
<polygon fill="#000000" stroke="#000000" points="695.8307,-373.1988 685.2497,-372.658 693.184,-379.6792 695.8307,-373.1988"/>
</g>
<!-- file:///tmp/tmpdrlja491#samplesheet_prefix -->
<g id="node6" class="node">
<title>file:///tmp/tmpdrlja491#samplesheet_prefix</title>
<g id="a_node6"><a xlink:title="Points to the TSO500 section of the samplesheet. &#160;If you are using a samplesheet from BCLConvert,&#10;please set this to &quot;BCLConvert&quot;&#10;">
<polygon fill="#94ddf4" stroke="#000000" points="742,-526.6237 742,-563.6237 898,-563.6237 898,-526.6237 742,-526.6237"/>
<text text-anchor="middle" x="820" y="-541.4237" font-family="Times,serif" font-size="14.00" fill="#000000">samplesheet_prefix</text>
</a>
</g>
</g>
<!-- file:///tmp/tmpdrlja491#samplesheet_prefix&#45;&gt;file:///tmp/tmpdrlja491#run_tso500_ctdna_reporting_workflow_step -->
<g id="edge20" class="edge">
<title>file:///tmp/tmpdrlja491#samplesheet_prefix&#45;&gt;file:///tmp/tmpdrlja491#run_tso500_ctdna_reporting_workflow_step</title>
<path fill="none" stroke="#000000" d="M822.5712,-526.2873C828.6961,-478.6139 842.9212,-349.3401 833,-242.1237 831.5703,-226.6736 828.5177,-209.6593 825.6268,-195.7473"/>
<polygon fill="#000000" stroke="#000000" points="829.0088,-194.8268 823.4771,-185.7907 822.1664,-196.3041 829.0088,-194.8268"/>
</g>
<!-- file:///tmp/tmpdrlja491#samplesheet_prefix&#45;&gt;file:///tmp/tmpdrlja491#run_tso500_ctdna_demultiplex_workflow_step -->
<g id="edge21" class="edge">
<title>file:///tmp/tmpdrlja491#samplesheet_prefix&#45;&gt;file:///tmp/tmpdrlja491#run_tso500_ctdna_demultiplex_workflow_step</title>
<path fill="none" stroke="#000000" d="M817.9693,-526.3047C814.3331,-501.2005 804.5267,-456.7215 779,-429.1237 756.3819,-404.6705 724.3321,-387.7183 694.2133,-376.204"/>
<polygon fill="#000000" stroke="#000000" points="695.1105,-372.8054 684.5167,-372.6541 692.7039,-379.3787 695.1105,-372.8054"/>
</g>
<!-- file:///tmp/tmpdrlja491#samplesheet_prefix&#45;&gt;file:///tmp/tmpdrlja491#add_sample_type_and_pair_id_to_samplesheet_step -->
<g id="edge22" class="edge">
<title>file:///tmp/tmpdrlja491#samplesheet_prefix&#45;&gt;file:///tmp/tmpdrlja491#add_sample_type_and_pair_id_to_samplesheet_step</title>
<path fill="none" stroke="#000000" d="M790.9888,-526.4556C774.4352,-516.318 753.0463,-504.0658 733,-495.1237 711.5867,-485.5718 687.6177,-476.9421 665.5148,-469.7615"/>
<polygon fill="#000000" stroke="#000000" points="666.4301,-466.3797 655.8392,-466.6706 664.2999,-473.0477 666.4301,-466.3797"/>
</g>
<!-- file:///tmp/tmpdrlja491#fastq_list_rows -->
<g id="node7" class="node">
<title>file:///tmp/tmpdrlja491#fastq_list_rows</title>
<g id="a_node7"><a xlink:title="A list of fastq list rows where each element has the following attributes&#10;* rgid &#160;# Not used&#10;* rgsm&#10;* rglb &#160;# Not used&#10;* read_1&#10;* read_2&#10;">
<polygon fill="#94ddf4" stroke="#000000" points="191.5,-526.6237 191.5,-563.6237 316.5,-563.6237 316.5,-526.6237 191.5,-526.6237"/>
<text text-anchor="middle" x="254" y="-541.4237" font-family="Times,serif" font-size="14.00" fill="#000000">fastq_list_rows</text>
</a>
</g>
</g>
<!-- file:///tmp/tmpdrlja491#fastq_list_rows&#45;&gt;file:///tmp/tmpdrlja491#run_tso500_ctdna_analysis_workflow_step -->
<g id="edge23" class="edge">
<title>file:///tmp/tmpdrlja491#fastq_list_rows&#45;&gt;file:///tmp/tmpdrlja491#run_tso500_ctdna_analysis_workflow_step</title>
<path fill="none" stroke="#000000" d="M261.0862,-526.4897C279.5467,-477.9453 329.2113,-347.3458 351.2328,-289.4374"/>
<polygon fill="#000000" stroke="#000000" points="354.6046,-290.4174 354.8877,-279.8264 348.0617,-287.9292 354.6046,-290.4174"/>
</g>
<!-- file:///tmp/tmpdrlja491#fastq_list_rows&#45;&gt;file:///tmp/tmpdrlja491#run_tso500_ctdna_demultiplex_workflow_step -->
<g id="edge24" class="edge">
<title>file:///tmp/tmpdrlja491#fastq_list_rows&#45;&gt;file:///tmp/tmpdrlja491#run_tso500_ctdna_demultiplex_workflow_step</title>
<path fill="none" stroke="#000000" d="M272.9445,-526.2868C299.1025,-501.1623 348.664,-456.6604 398,-429.1237 439.0282,-406.224 488.3352,-388.2794 529.0689,-375.6922"/>
<polygon fill="#000000" stroke="#000000" points="530.1411,-379.0245 538.6917,-372.7684 528.106,-372.3268 530.1411,-379.0245"/>
</g>
<!-- file:///tmp/tmpdrlja491#run_info_xml -->
<g id="node8" class="node">
<title>file:///tmp/tmpdrlja491#run_info_xml</title>
<g id="a_node8"><a xlink:title="The run info xml file found inside the run folder&#10;">
<polygon fill="#94ddf4" stroke="#000000" points="916,-526.6237 916,-563.6237 1026,-563.6237 1026,-526.6237 916,-526.6237"/>
<text text-anchor="middle" x="971" y="-541.4237" font-family="Times,serif" font-size="14.00" fill="#000000">run_info_xml</text>
</a>
</g>
</g>
<!-- file:///tmp/tmpdrlja491#run_info_xml&#45;&gt;file:///tmp/tmpdrlja491#run_tso500_ctdna_reporting_workflow_step -->
<g id="edge25" class="edge">
<title>file:///tmp/tmpdrlja491#run_info_xml&#45;&gt;file:///tmp/tmpdrlja491#run_tso500_ctdna_reporting_workflow_step</title>
<path fill="none" stroke="#000000" d="M963.4623,-526.3786C938.7466,-464.9146 860.0527,-269.2154 830.4271,-195.5412"/>
<polygon fill="#000000" stroke="#000000" points="833.5614,-193.9541 826.5832,-185.9819 827.0668,-196.5657 833.5614,-193.9541"/>
</g>
<!-- file:///tmp/tmpdrlja491#run_info_xml&#45;&gt;file:///tmp/tmpdrlja491#run_tso500_ctdna_demultiplex_workflow_step -->
<g id="edge26" class="edge">
<title>file:///tmp/tmpdrlja491#run_info_xml&#45;&gt;file:///tmp/tmpdrlja491#run_tso500_ctdna_demultiplex_workflow_step</title>
<path fill="none" stroke="#000000" d="M948.2877,-526.5427C936.2279,-516.8919 921.0349,-505.0701 907,-495.1237 862.6405,-463.6867 852.4894,-453.717 804,-429.1237 762.8814,-408.2688 714.5209,-389.5604 676.3706,-376.0449"/>
<polygon fill="#000000" stroke="#000000" points="677.4968,-372.7309 666.902,-372.7225 675.1791,-379.3361 677.4968,-372.7309"/>
</g>
<!-- file:///tmp/tmpdrlja491#analysis_workflow_output -->
<g id="node9" class="node">
<title>file:///tmp/tmpdrlja491#analysis_workflow_output</title>
<g id="a_node9"><a xlink:title="Intermediate output files from the analysis workflow steps&#10;">
<polygon fill="#94ddf4" stroke="#000000" points="266.5,-54.6237 266.5,-91.6237 469.5,-91.6237 469.5,-54.6237 266.5,-54.6237"/>
<text text-anchor="middle" x="368" y="-69.4237" font-family="Times,serif" font-size="14.00" fill="#000000">analysis_workflow_output</text>
</a>
</g>
</g>
<!-- file:///tmp/tmpdrlja491#results -->
<g id="node10" class="node">
<title>file:///tmp/tmpdrlja491#results</title>
<g id="a_node10"><a xlink:title="Results directory, output from the reporting workflow&#10;">
<polygon fill="#94ddf4" stroke="#000000" points="735,-54.6237 735,-91.6237 801,-91.6237 801,-54.6237 735,-54.6237"/>
<text text-anchor="middle" x="768" y="-69.4237" font-family="Times,serif" font-size="14.00" fill="#000000">results</text>
</a>
</g>
</g>
<!-- file:///tmp/tmpdrlja491#reporting_workflow_output -->
<g id="node11" class="node">
<title>file:///tmp/tmpdrlja491#reporting_workflow_output</title>
<g id="a_node11"><a xlink:title="Intermediate output files from the reporting workflow steps&#10;">
<polygon fill="#94ddf4" stroke="#000000" points="819,-54.6237 819,-91.6237 1031,-91.6237 1031,-54.6237 819,-54.6237"/>
<text text-anchor="middle" x="925" y="-69.4237" font-family="Times,serif" font-size="14.00" fill="#000000">reporting_workflow_output</text>
</a>
</g>
</g>
<!-- file:///tmp/tmpdrlja491#demultiplex_workflow_output -->
<g id="node12" class="node">
<title>file:///tmp/tmpdrlja491#demultiplex_workflow_output</title>
<g id="a_node12"><a xlink:title="Intermediate output files from the demultiplex workflow steps&#10;">
<polygon fill="#94ddf4" stroke="#000000" points="487,-54.6237 487,-91.6237 717,-91.6237 717,-54.6237 487,-54.6237"/>
<text text-anchor="middle" x="602" y="-69.4237" font-family="Times,serif" font-size="14.00" fill="#000000">demultiplex_workflow_output</text>
</a>
</g>
</g>
<!-- file:///tmp/tmpdrlja491#run_tso500_ctdna_analysis_workflow_step&#45;&gt;file:///tmp/tmpdrlja491#analysis_workflow_output -->
<g id="edge3" class="edge">
<title>file:///tmp/tmpdrlja491#run_tso500_ctdna_analysis_workflow_step&#45;&gt;file:///tmp/tmpdrlja491#analysis_workflow_output</title>
<path fill="none" stroke="#000000" d="M362.5972,-242.4102C363.6485,-209.4713 365.8357,-140.9387 367.0807,-101.9276"/>
<polygon fill="#000000" stroke="#000000" points="370.5843,-101.8681 367.4052,-91.7615 363.5879,-101.6447 370.5843,-101.8681"/>
</g>
<!-- file:///tmp/tmpdrlja491#run_tso500_ctdna_analysis_workflow_step&#45;&gt;file:///tmp/tmpdrlja491#run_tso500_ctdna_reporting_workflow_step -->
<g id="edge1" class="edge">
<title>file:///tmp/tmpdrlja491#run_tso500_ctdna_analysis_workflow_step&#45;&gt;file:///tmp/tmpdrlja491#run_tso500_ctdna_reporting_workflow_step</title>
<path fill="none" stroke="#000000" d="M446.5176,-242.6084C521.7237,-226.8104 631.9786,-204.1184 713.0511,-187.7441"/>
<polygon fill="#000000" stroke="#000000" points="714.1779,-191.0874 723.2883,-185.6789 712.7936,-184.2256 714.1779,-191.0874"/>
</g>
<!-- file:///tmp/tmpdrlja491#run_tso500_ctdna_analysis_workflow_step&#45;&gt;file:///tmp/tmpdrlja491#run_tso500_ctdna_reporting_workflow_step -->
<g id="edge2" class="edge">
<title>file:///tmp/tmpdrlja491#run_tso500_ctdna_analysis_workflow_step&#45;&gt;file:///tmp/tmpdrlja491#run_tso500_ctdna_reporting_workflow_step</title>
<path fill="none" stroke="#000000" d="M457.5138,-242.6084C535.9188,-226.8104 646.3073,-204.1184 724.4483,-187.7441"/>
<polygon fill="#000000" stroke="#000000" points="725.2242,-191.1576 734.2925,-185.6789 723.7869,-184.3068 725.2242,-191.1576"/>
</g>
<!-- file:///tmp/tmpdrlja491#run_tso500_ctdna_reporting_workflow_step&#45;&gt;file:///tmp/tmpdrlja491#results -->
<g id="edge4" class="edge">
<title>file:///tmp/tmpdrlja491#run_tso500_ctdna_reporting_workflow_step&#45;&gt;file:///tmp/tmpdrlja491#results</title>
<path fill="none" stroke="#000000" d="M808.924,-148.5523C801.5198,-134.9053 791.3364,-116.136 782.9805,-100.7348"/>
<polygon fill="#000000" stroke="#000000" points="785.9003,-98.7771 778.055,-91.6565 779.7475,-102.1153 785.9003,-98.7771"/>
</g>
<!-- file:///tmp/tmpdrlja491#run_tso500_ctdna_reporting_workflow_step&#45;&gt;file:///tmp/tmpdrlja491#reporting_workflow_output -->
<g id="edge5" class="edge">
<title>file:///tmp/tmpdrlja491#run_tso500_ctdna_reporting_workflow_step&#45;&gt;file:///tmp/tmpdrlja491#reporting_workflow_output</title>
<path fill="none" stroke="#000000" d="M839.9422,-148.5523C856.0574,-134.2615 878.5064,-114.3539 896.2954,-98.5787"/>
<polygon fill="#000000" stroke="#000000" points="898.9416,-100.9101 904.1013,-91.6565 894.2972,-95.6727 898.9416,-100.9101"/>
</g>
<!-- file:///tmp/tmpdrlja491#run_tso500_ctdna_demultiplex_workflow_step&#45;&gt;file:///tmp/tmpdrlja491#demultiplex_workflow_output -->
<g id="edge8" class="edge">
<title>file:///tmp/tmpdrlja491#run_tso500_ctdna_demultiplex_workflow_step&#45;&gt;file:///tmp/tmpdrlja491#demultiplex_workflow_output</title>
<path fill="none" stroke="#000000" d="M609.4627,-335.2502C608.0935,-287.1591 604.4665,-159.7602 602.8262,-102.1453"/>
<polygon fill="#000000" stroke="#000000" points="606.3182,-101.8114 602.535,-91.9151 599.3211,-102.0107 606.3182,-101.8114"/>
</g>
<!-- file:///tmp/tmpdrlja491#run_tso500_ctdna_demultiplex_workflow_step&#45;&gt;file:///tmp/tmpdrlja491#run_tso500_ctdna_analysis_workflow_step -->
<g id="edge6" class="edge">
<title>file:///tmp/tmpdrlja491#run_tso500_ctdna_demultiplex_workflow_step&#45;&gt;file:///tmp/tmpdrlja491#run_tso500_ctdna_analysis_workflow_step</title>
<path fill="none" stroke="#000000" d="M560.4095,-335.5273C520.1968,-320.4475 463.4165,-299.1549 420.8944,-283.2091"/>
<polygon fill="#000000" stroke="#000000" points="422.0968,-279.922 411.5045,-279.6879 419.6388,-286.4764 422.0968,-279.922"/>
</g>
<!-- file:///tmp/tmpdrlja491#run_tso500_ctdna_demultiplex_workflow_step&#45;&gt;file:///tmp/tmpdrlja491#run_tso500_ctdna_reporting_workflow_step -->
<g id="edge7" class="edge">
<title>file:///tmp/tmpdrlja491#run_tso500_ctdna_demultiplex_workflow_step&#45;&gt;file:///tmp/tmpdrlja491#run_tso500_ctdna_reporting_workflow_step</title>
<path fill="none" stroke="#000000" d="M630.8038,-335.5098C668.5176,-301.7659 748.2036,-230.4678 790.7806,-192.3726"/>
<polygon fill="#000000" stroke="#000000" points="793.1617,-194.9387 798.2803,-185.6624 788.4941,-189.722 793.1617,-194.9387"/>
</g>
<!-- file:///tmp/tmpdrlja491#add_sample_type_and_pair_id_to_samplesheet_step&#45;&gt;file:///tmp/tmpdrlja491#run_tso500_ctdna_demultiplex_workflow_step -->
<g id="edge9" class="edge">
<title>file:///tmp/tmpdrlja491#add_sample_type_and_pair_id_to_samplesheet_step&#45;&gt;file:///tmp/tmpdrlja491#run_tso500_ctdna_demultiplex_workflow_step</title>
<path fill="none" stroke="#000000" d="M593.9514,-429.5523C596.8002,-416.1627 600.6981,-397.8424 603.9391,-382.6101"/>
<polygon fill="#000000" stroke="#000000" points="607.3991,-383.166 606.0569,-372.6565 600.5523,-381.7092 607.3991,-383.166"/>
</g>
</g>
</svg>
