<?xml version="1.0" encoding="UTF-8" standalone="no"?>
<!DOCTYPE svg PUBLIC "-//W3C//DTD SVG 1.1//EN"
 "http://www.w3.org/Graphics/SVG/1.1/DTD/svg11.dtd">
<!-- Generated by graphviz version 2.43.0 (0)
 -->
<!-- Title: G Pages: 1 -->
<svg width="3238pt" height="967pt"
 viewBox="0.00 0.00 3238.00 967.31" xmlns="http://www.w3.org/2000/svg" xmlns:xlink="http://www.w3.org/1999/xlink">
<g id="graph0" class="graph" transform="scale(1 1) rotate(0) translate(4 963.31)">
<title>G</title>
<polygon fill="#eeeeee" stroke="transparent" points="-4,4 -4,-963.31 3234,-963.31 3234,4 -4,4"/>
<g id="clust1" class="cluster">
<title>cluster_inputs</title>
<polygon fill="#eeeeee" stroke="black" stroke-dasharray="5,2" points="8,-623.55 8,-927.33 3222,-927.33 3222,-623.55 8,-623.55"/>
<text text-anchor="middle" x="3155.5" y="-631.35" font-family="Times,serif" font-size="14.00">Workflow Inputs</text>
</g>
<g id="clust2" class="cluster">
<title>cluster_outputs</title>
<polygon fill="#eeeeee" stroke="black" stroke-dasharray="5,2" points="1427,-31.98 1427,-335.76 1769,-335.76 1769,-31.98 1427,-31.98"/>
<text text-anchor="middle" x="1696.5" y="-39.78" font-family="Times,serif" font-size="14.00">Workflow Outputs</text>
</g>
<!-- arriba_pdf -->
<g id="node1" class="node">
<title>arriba_pdf</title>
<polygon fill="#94ddf4" stroke="black" points="3124,-802.98 3124,-838.98 3214,-838.98 3214,-802.98 3124,-802.98"/>
<text text-anchor="middle" x="3169" y="-817.28" font-family="Times,serif" font-size="14.00">arriba_pdf</text>
</g>
<!-- run_rnasum_step -->
<g id="node30" class="node">
<title>run_rnasum_step</title>
<ellipse fill="none" stroke="black" cx="1620" cy="-519.98" rx="90.98" ry="18"/>
<text text-anchor="middle" x="1620" y="-516.28" font-family="Times,serif" font-size="14.00">run_rnasum_step</text>
</g>
<!-- arriba_pdf&#45;&gt;run_rnasum_step -->
<g id="edge1" class="edge">
<title>arriba_pdf&#45;&gt;run_rnasum_step</title>
<path fill="none" stroke="black" d="M3154.71,-802.9C3144.71,-792.14 3130.44,-778.91 3115,-771.48 2862.36,-649.78 1994.27,-557.1 1710.53,-529.46"/>
<polygon fill="black" stroke="black" points="1710.57,-525.95 1700.28,-528.47 1709.9,-532.92 1710.57,-525.95"/>
</g>
<!-- arriba_tsv -->
<g id="node2" class="node">
<title>arriba_tsv</title>
<polygon fill="#94ddf4" stroke="black" points="3016.5,-802.98 3016.5,-838.98 3105.5,-838.98 3105.5,-802.98 3016.5,-802.98"/>
<text text-anchor="middle" x="3061" y="-817.28" font-family="Times,serif" font-size="14.00">arriba_tsv</text>
</g>
<!-- arriba_tsv&#45;&gt;run_rnasum_step -->
<g id="edge2" class="edge">
<title>arriba_tsv&#45;&gt;run_rnasum_step</title>
<path fill="none" stroke="black" d="M3047,-802.96C3037.21,-792.22 3023.2,-779 3008,-771.48 2565.35,-552.26 1958.45,-522.98 1721.01,-520.42"/>
<polygon fill="black" stroke="black" points="1721.05,-516.92 1711.01,-520.33 1720.98,-523.92 1721.05,-516.92"/>
</g>
<!-- batch_rm -->
<g id="node3" class="node">
<title>batch_rm</title>
<polygon fill="#94ddf4" stroke="black" points="2915.5,-802.98 2915.5,-838.98 2998.5,-838.98 2998.5,-802.98 2915.5,-802.98"/>
<text text-anchor="middle" x="2957" y="-817.28" font-family="Times,serif" font-size="14.00">batch_rm</text>
</g>
<!-- batch_rm&#45;&gt;run_rnasum_step -->
<g id="edge3" class="edge">
<title>batch_rm&#45;&gt;run_rnasum_step</title>
<path fill="none" stroke="black" d="M2943.54,-802.54C2934.39,-791.91 2921.36,-778.98 2907,-771.48 2504.08,-561.1 1946.7,-526.51 1720.96,-521.47"/>
<polygon fill="black" stroke="black" points="1720.86,-517.97 1710.79,-521.26 1720.71,-524.96 1720.86,-517.97"/>
</g>
<!-- cn_gain -->
<g id="node4" class="node">
<title>cn_gain</title>
<polygon fill="#94ddf4" stroke="black" points="2826.5,-802.98 2826.5,-838.98 2897.5,-838.98 2897.5,-802.98 2826.5,-802.98"/>
<text text-anchor="middle" x="2862" y="-817.28" font-family="Times,serif" font-size="14.00">cn_gain</text>
</g>
<!-- cn_gain&#45;&gt;run_rnasum_step -->
<g id="edge4" class="edge">
<title>cn_gain&#45;&gt;run_rnasum_step</title>
<path fill="none" stroke="black" d="M2850.21,-802.59C2842.1,-791.99 2830.4,-779.05 2817,-771.48 2451.54,-564.86 1936.5,-527.98 1720.99,-521.89"/>
<polygon fill="black" stroke="black" points="1721.05,-518.39 1710.96,-521.62 1720.86,-525.39 1721.05,-518.39"/>
</g>
<!-- cn_loss -->
<g id="node5" class="node">
<title>cn_loss</title>
<polygon fill="#94ddf4" stroke="black" points="2740,-802.98 2740,-838.98 2808,-838.98 2808,-802.98 2740,-802.98"/>
<text text-anchor="middle" x="2774" y="-817.28" font-family="Times,serif" font-size="14.00">cn_loss</text>
</g>
<!-- cn_loss&#45;&gt;run_rnasum_step -->
<g id="edge5" class="edge">
<title>cn_loss&#45;&gt;run_rnasum_step</title>
<path fill="none" stroke="black" d="M2762.86,-802.66C2755.16,-792.08 2743.98,-779.15 2731,-771.48 2397.64,-574.54 1924.22,-532.32 1720.06,-523.35"/>
<polygon fill="black" stroke="black" points="1720.09,-519.85 1709.95,-522.92 1719.79,-526.84 1720.09,-519.85"/>
</g>
<!-- dataset -->
<g id="node6" class="node">
<title>dataset</title>
<polygon fill="#94ddf4" stroke="black" points="2652,-802.98 2652,-838.98 2722,-838.98 2722,-802.98 2652,-802.98"/>
<text text-anchor="middle" x="2687" y="-817.28" font-family="Times,serif" font-size="14.00">dataset</text>
</g>
<!-- dataset&#45;&gt;run_rnasum_step -->
<g id="edge6" class="edge">
<title>dataset&#45;&gt;run_rnasum_step</title>
<path fill="none" stroke="black" d="M2675.46,-802.74C2667.53,-792.19 2656.09,-779.27 2643,-771.48 2338.17,-589.96 1907.75,-539.7 1717.23,-526"/>
<polygon fill="black" stroke="black" points="1717.46,-522.5 1707.24,-525.3 1716.97,-529.49 1717.46,-522.5"/>
</g>
<!-- dataset_name_incl -->
<g id="node7" class="node">
<title>dataset_name_incl</title>
<polygon fill="#94ddf4" stroke="black" points="2486,-802.98 2486,-838.98 2634,-838.98 2634,-802.98 2486,-802.98"/>
<text text-anchor="middle" x="2560" y="-817.28" font-family="Times,serif" font-size="14.00">dataset_name_incl</text>
</g>
<!-- dataset_name_incl&#45;&gt;run_rnasum_step -->
<g id="edge7" class="edge">
<title>dataset_name_incl&#45;&gt;run_rnasum_step</title>
<path fill="none" stroke="black" d="M2534.32,-802.76C2518.34,-792.62 2497.08,-780.12 2477,-771.48 2196.56,-650.72 1840.32,-567.49 1690.94,-535.53"/>
<polygon fill="black" stroke="black" points="1691.49,-532.07 1680.98,-533.41 1690.03,-538.91 1691.49,-532.07"/>
</g>
<!-- dragen_fusions -->
<g id="node8" class="node">
<title>dragen_fusions</title>
<polygon fill="#94ddf4" stroke="black" points="2342.5,-802.98 2342.5,-838.98 2467.5,-838.98 2467.5,-802.98 2342.5,-802.98"/>
<text text-anchor="middle" x="2405" y="-817.28" font-family="Times,serif" font-size="14.00">dragen_fusions</text>
</g>
<!-- dragen_fusions&#45;&gt;run_rnasum_step -->
<g id="edge8" class="edge">
<title>dragen_fusions&#45;&gt;run_rnasum_step</title>
<path fill="none" stroke="black" d="M2383.23,-802.89C2369.63,-792.8 2351.45,-780.3 2334,-771.48 2105.46,-655.86 1810.89,-571.05 1683.42,-537.19"/>
<polygon fill="black" stroke="black" points="1684,-533.72 1673.44,-534.55 1682.21,-540.49 1684,-533.72"/>
</g>
<!-- dragen_mapping_metrics -->
<g id="node9" class="node">
<title>dragen_mapping_metrics</title>
<polygon fill="#94ddf4" stroke="black" points="2127.5,-802.98 2127.5,-838.98 2324.5,-838.98 2324.5,-802.98 2127.5,-802.98"/>
<text text-anchor="middle" x="2226" y="-817.28" font-family="Times,serif" font-size="14.00">dragen_mapping_metrics</text>
</g>
<!-- dragen_mapping_metrics&#45;&gt;run_rnasum_step -->
<g id="edge9" class="edge">
<title>dragen_mapping_metrics&#45;&gt;run_rnasum_step</title>
<path fill="none" stroke="black" d="M2191.24,-802.83C2086.54,-751.17 1774.45,-597.18 1661.44,-541.42"/>
<polygon fill="black" stroke="black" points="1662.91,-538.24 1652.39,-536.96 1659.81,-544.52 1662.91,-538.24"/>
</g>
<!-- drugs -->
<g id="node10" class="node">
<title>drugs</title>
<polygon fill="#94ddf4" stroke="black" points="2051,-802.98 2051,-838.98 2109,-838.98 2109,-802.98 2051,-802.98"/>
<text text-anchor="middle" x="2080" y="-817.28" font-family="Times,serif" font-size="14.00">drugs</text>
</g>
<!-- drugs&#45;&gt;run_rnasum_step -->
<g id="edge10" class="edge">
<title>drugs&#45;&gt;run_rnasum_step</title>
<path fill="none" stroke="black" d="M2069.04,-802.97C2062.08,-793.02 2052.45,-780.66 2042,-771.48 1920.23,-664.47 1746.36,-578.15 1665.1,-540.88"/>
<polygon fill="black" stroke="black" points="1666.21,-537.54 1655.66,-536.58 1663.3,-543.91 1666.21,-537.54"/>
</g>
<!-- filter -->
<g id="node11" class="node">
<title>filter</title>
<polygon fill="#94ddf4" stroke="black" points="1979,-802.98 1979,-838.98 2033,-838.98 2033,-802.98 1979,-802.98"/>
<text text-anchor="middle" x="2006" y="-817.28" font-family="Times,serif" font-size="14.00">filter</text>
</g>
<!-- filter&#45;&gt;run_rnasum_step -->
<g id="edge11" class="edge">
<title>filter&#45;&gt;run_rnasum_step</title>
<path fill="none" stroke="black" d="M1995.18,-802.78C1988.57,-793.01 1979.57,-780.89 1970,-771.48 1868.71,-671.93 1724.9,-582.12 1657.54,-542.46"/>
<polygon fill="black" stroke="black" points="1658.95,-539.23 1648.55,-537.2 1655.42,-545.27 1658.95,-539.23"/>
</g>
<!-- immunogram -->
<g id="node12" class="node">
<title>immunogram</title>
<polygon fill="#94ddf4" stroke="black" points="1849,-802.98 1849,-838.98 1961,-838.98 1961,-802.98 1849,-802.98"/>
<text text-anchor="middle" x="1905" y="-817.28" font-family="Times,serif" font-size="14.00">immunogram</text>
</g>
<!-- immunogram&#45;&gt;run_rnasum_step -->
<g id="edge12" class="edge">
<title>immunogram&#45;&gt;run_rnasum_step</title>
<path fill="none" stroke="black" d="M1888.45,-802.61C1840.12,-751.91 1699.16,-604.03 1643.25,-545.37"/>
<polygon fill="black" stroke="black" points="1645.68,-542.84 1636.25,-538.02 1640.61,-547.67 1645.68,-542.84"/>
</g>
<!-- log -->
<g id="node13" class="node">
<title>log</title>
<polygon fill="#94ddf4" stroke="black" points="1777,-802.98 1777,-838.98 1831,-838.98 1831,-802.98 1777,-802.98"/>
<text text-anchor="middle" x="1804" y="-817.28" font-family="Times,serif" font-size="14.00">log</text>
</g>
<!-- log&#45;&gt;run_rnasum_step -->
<g id="edge13" class="edge">
<title>log&#45;&gt;run_rnasum_step</title>
<path fill="none" stroke="black" d="M1793.31,-802.61C1762.37,-752.33 1672.59,-606.44 1635.9,-546.82"/>
<polygon fill="black" stroke="black" points="1638.71,-544.7 1630.49,-538.02 1632.75,-548.37 1638.71,-544.7"/>
</g>
<!-- norm -->
<g id="node14" class="node">
<title>norm</title>
<polygon fill="#94ddf4" stroke="black" points="1705,-802.98 1705,-838.98 1759,-838.98 1759,-802.98 1705,-802.98"/>
<text text-anchor="middle" x="1732" y="-817.28" font-family="Times,serif" font-size="14.00">norm</text>
</g>
<!-- norm&#45;&gt;run_rnasum_step -->
<g id="edge14" class="edge">
<title>norm&#45;&gt;run_rnasum_step</title>
<path fill="none" stroke="black" d="M1725.49,-802.61C1706.74,-752.54 1652.46,-607.64 1629.96,-547.56"/>
<polygon fill="black" stroke="black" points="1633.17,-546.16 1626.38,-538.02 1626.61,-548.61 1633.17,-546.16"/>
</g>
<!-- pcgr_splice_vars -->
<g id="node15" class="node">
<title>pcgr_splice_vars</title>
<polygon fill="#94ddf4" stroke="black" points="1553,-802.98 1553,-838.98 1687,-838.98 1687,-802.98 1553,-802.98"/>
<text text-anchor="middle" x="1620" y="-817.28" font-family="Times,serif" font-size="14.00">pcgr_splice_vars</text>
</g>
<!-- pcgr_splice_vars&#45;&gt;run_rnasum_step -->
<g id="edge15" class="edge">
<title>pcgr_splice_vars&#45;&gt;run_rnasum_step</title>
<path fill="none" stroke="black" d="M1620,-802.61C1620,-752.74 1620,-608.83 1620,-548.31"/>
<polygon fill="black" stroke="black" points="1623.5,-548.02 1620,-538.02 1616.5,-548.02 1623.5,-548.02"/>
</g>
<!-- pcgr_tier -->
<g id="node16" class="node">
<title>pcgr_tier</title>
<polygon fill="#94ddf4" stroke="black" points="1453.5,-802.98 1453.5,-838.98 1534.5,-838.98 1534.5,-802.98 1453.5,-802.98"/>
<text text-anchor="middle" x="1494" y="-817.28" font-family="Times,serif" font-size="14.00">pcgr_tier</text>
</g>
<!-- pcgr_tier&#45;&gt;run_rnasum_step -->
<g id="edge16" class="edge">
<title>pcgr_tier&#45;&gt;run_rnasum_step</title>
<path fill="none" stroke="black" d="M1501.32,-802.61C1522.42,-752.54 1583.48,-607.64 1608.8,-547.56"/>
<polygon fill="black" stroke="black" points="1612.16,-548.59 1612.82,-538.02 1605.71,-545.88 1612.16,-548.59"/>
</g>
<!-- pcgr_tiers_tsv -->
<g id="node17" class="node">
<title>pcgr_tiers_tsv</title>
<polygon fill="#94ddf4" stroke="black" points="1318.5,-802.98 1318.5,-838.98 1435.5,-838.98 1435.5,-802.98 1318.5,-802.98"/>
<text text-anchor="middle" x="1377" y="-817.28" font-family="Times,serif" font-size="14.00">pcgr_tiers_tsv</text>
</g>
<!-- pcgr_tiers_tsv&#45;&gt;run_rnasum_step -->
<g id="edge17" class="edge">
<title>pcgr_tiers_tsv&#45;&gt;run_rnasum_step</title>
<path fill="none" stroke="black" d="M1391.12,-802.61C1432.15,-752.12 1551.52,-605.24 1599.59,-546.09"/>
<polygon fill="black" stroke="black" points="1602.56,-547.99 1606.15,-538.02 1597.13,-543.57 1602.56,-547.99"/>
</g>
<!-- project -->
<g id="node18" class="node">
<title>project</title>
<polygon fill="#94ddf4" stroke="black" points="1233.5,-802.98 1233.5,-838.98 1300.5,-838.98 1300.5,-802.98 1233.5,-802.98"/>
<text text-anchor="middle" x="1267" y="-817.28" font-family="Times,serif" font-size="14.00">project</text>
</g>
<!-- project&#45;&gt;run_rnasum_step -->
<g id="edge18" class="edge">
<title>project&#45;&gt;run_rnasum_step</title>
<path fill="none" stroke="black" d="M1281.07,-802.74C1289.17,-793.17 1299.75,-781.27 1310,-771.48 1405.42,-680.32 1530.71,-585.96 1588.41,-543.76"/>
<polygon fill="black" stroke="black" points="1590.73,-546.4 1596.75,-537.68 1586.61,-540.74 1590.73,-546.4"/>
</g>
<!-- purple_gene_tsv -->
<g id="node19" class="node">
<title>purple_gene_tsv</title>
<polygon fill="#94ddf4" stroke="black" points="1082.5,-802.98 1082.5,-838.98 1215.5,-838.98 1215.5,-802.98 1082.5,-802.98"/>
<text text-anchor="middle" x="1149" y="-817.28" font-family="Times,serif" font-size="14.00">purple_gene_tsv</text>
</g>
<!-- purple_gene_tsv&#45;&gt;run_rnasum_step -->
<g id="edge19" class="edge">
<title>purple_gene_tsv&#45;&gt;run_rnasum_step</title>
<path fill="none" stroke="black" d="M1175.72,-802.9C1190.28,-793.6 1208.62,-781.89 1225,-771.48 1358.11,-686.8 1516.68,-586.38 1585.4,-542.87"/>
<polygon fill="black" stroke="black" points="1587.53,-545.67 1594.1,-537.36 1583.78,-539.76 1587.53,-545.67"/>
</g>
<!-- report_dir -->
<g id="node20" class="node">
<title>report_dir</title>
<polygon fill="#94ddf4" stroke="black" points="975.5,-802.98 975.5,-838.98 1064.5,-838.98 1064.5,-802.98 975.5,-802.98"/>
<text text-anchor="middle" x="1020" y="-817.28" font-family="Times,serif" font-size="14.00">report_dir</text>
</g>
<!-- report_dir&#45;&gt;run_rnasum_step -->
<g id="edge20" class="edge">
<title>report_dir&#45;&gt;run_rnasum_step</title>
<path fill="none" stroke="black" d="M1036.42,-802.83C1046.59,-792.83 1060.31,-780.47 1074,-771.48 1241.69,-661.38 1465.62,-575.31 1566.62,-539.32"/>
<polygon fill="black" stroke="black" points="1568.03,-542.53 1576.29,-535.89 1565.7,-535.93 1568.03,-542.53"/>
</g>
<!-- salmon -->
<g id="node21" class="node">
<title>salmon</title>
<polygon fill="#94ddf4" stroke="black" points="889,-802.98 889,-838.98 957,-838.98 957,-802.98 889,-802.98"/>
<text text-anchor="middle" x="923" y="-817.28" font-family="Times,serif" font-size="14.00">salmon</text>
</g>
<!-- salmon&#45;&gt;run_rnasum_step -->
<g id="edge21" class="edge">
<title>salmon&#45;&gt;run_rnasum_step</title>
<path fill="none" stroke="black" d="M935.25,-802.83C943.3,-792.58 954.62,-779.95 967,-771.48 1157.98,-640.78 1426.53,-565.84 1551.29,-536.08"/>
<polygon fill="black" stroke="black" points="1552.18,-539.47 1561.11,-533.77 1550.57,-532.66 1552.18,-539.47"/>
</g>
<!-- sample_name -->
<g id="node22" class="node">
<title>sample_name</title>
<polygon fill="#94ddf4" stroke="black" points="757.5,-802.98 757.5,-838.98 870.5,-838.98 870.5,-802.98 757.5,-802.98"/>
<text text-anchor="middle" x="814" y="-817.28" font-family="Times,serif" font-size="14.00">sample_name</text>
</g>
<!-- sample_name&#45;&gt;run_rnasum_step -->
<g id="edge22" class="edge">
<title>sample_name&#45;&gt;run_rnasum_step</title>
<path fill="none" stroke="black" d="M833.74,-802.96C846.32,-792.77 863.35,-780.15 880,-771.48 1113.62,-649.83 1418.61,-568.6 1552.27,-536.46"/>
<polygon fill="black" stroke="black" points="1553.45,-539.78 1562.37,-534.05 1551.83,-532.97 1553.45,-539.78"/>
</g>
<!-- sample_source -->
<g id="node23" class="node">
<title>sample_source</title>
<polygon fill="#94ddf4" stroke="black" points="617,-802.98 617,-838.98 739,-838.98 739,-802.98 617,-802.98"/>
<text text-anchor="middle" x="678" y="-817.28" font-family="Times,serif" font-size="14.00">sample_source</text>
</g>
<!-- sample_source&#45;&gt;run_rnasum_step -->
<g id="edge23" class="edge">
<title>sample_source&#45;&gt;run_rnasum_step</title>
<path fill="none" stroke="black" d="M699.29,-802.77C712.85,-792.5 731.17,-779.86 749,-771.48 1027.64,-640.41 1389.28,-563.34 1544.18,-534.31"/>
<polygon fill="black" stroke="black" points="1544.89,-537.74 1554.08,-532.46 1543.61,-530.85 1544.89,-537.74"/>
</g>
<!-- save_tables -->
<g id="node24" class="node">
<title>save_tables</title>
<polygon fill="#94ddf4" stroke="black" points="499.5,-802.98 499.5,-838.98 598.5,-838.98 598.5,-802.98 499.5,-802.98"/>
<text text-anchor="middle" x="549" y="-817.28" font-family="Times,serif" font-size="14.00">save_tables</text>
</g>
<!-- save_tables&#45;&gt;run_rnasum_step -->
<g id="edge24" class="edge">
<title>save_tables&#45;&gt;run_rnasum_step</title>
<path fill="none" stroke="black" d="M565.61,-802.86C576.7,-792.36 592.12,-779.45 608,-771.48 924.11,-612.75 1347.36,-550.38 1529.94,-529.75"/>
<polygon fill="black" stroke="black" points="1530.48,-533.21 1540.04,-528.63 1529.71,-526.26 1530.48,-533.21"/>
</g>
<!-- scaling -->
<g id="node25" class="node">
<title>scaling</title>
<polygon fill="#94ddf4" stroke="black" points="414.5,-802.98 414.5,-838.98 481.5,-838.98 481.5,-802.98 414.5,-802.98"/>
<text text-anchor="middle" x="448" y="-817.28" font-family="Times,serif" font-size="14.00">scaling</text>
</g>
<!-- scaling&#45;&gt;run_rnasum_step -->
<g id="edge25" class="edge">
<title>scaling&#45;&gt;run_rnasum_step</title>
<path fill="none" stroke="black" d="M459.13,-802.64C466.83,-792.05 478,-779.12 491,-771.48 830.48,-571.71 1312.7,-531.01 1519.5,-522.9"/>
<polygon fill="black" stroke="black" points="1519.88,-526.38 1529.74,-522.51 1519.62,-519.39 1519.88,-526.38"/>
</g>
<!-- subject_id -->
<g id="node26" class="node">
<title>subject_id</title>
<polygon fill="#94ddf4" stroke="black" points="307.5,-802.98 307.5,-838.98 396.5,-838.98 396.5,-802.98 307.5,-802.98"/>
<text text-anchor="middle" x="352" y="-817.28" font-family="Times,serif" font-size="14.00">subject_id</text>
</g>
<!-- subject_id&#45;&gt;run_rnasum_step -->
<g id="edge26" class="edge">
<title>subject_id&#45;&gt;run_rnasum_step</title>
<path fill="none" stroke="black" d="M366.83,-802.62C376.84,-792.02 390.93,-779.09 406,-771.48 786.79,-579.18 1305.77,-534.49 1520.61,-524.11"/>
<polygon fill="black" stroke="black" points="1520.78,-527.61 1530.61,-523.64 1520.45,-520.61 1520.78,-527.61"/>
</g>
<!-- sv_tsv -->
<g id="node27" class="node">
<title>sv_tsv</title>
<polygon fill="#94ddf4" stroke="black" points="228.5,-802.98 228.5,-838.98 289.5,-838.98 289.5,-802.98 228.5,-802.98"/>
<text text-anchor="middle" x="259" y="-817.28" font-family="Times,serif" font-size="14.00">sv_tsv</text>
</g>
<!-- sv_tsv&#45;&gt;run_rnasum_step -->
<g id="edge27" class="edge">
<title>sv_tsv&#45;&gt;run_rnasum_step</title>
<path fill="none" stroke="black" d="M269.02,-802.51C276.04,-791.86 286.41,-778.92 299,-771.48 510.63,-646.26 1268.65,-557.48 1530.37,-529.97"/>
<polygon fill="black" stroke="black" points="1531.01,-533.43 1540.6,-528.91 1530.29,-526.47 1531.01,-533.43"/>
</g>
<!-- top_genes -->
<g id="node28" class="node">
<title>top_genes</title>
<polygon fill="#94ddf4" stroke="black" points="121.5,-802.98 121.5,-838.98 210.5,-838.98 210.5,-802.98 121.5,-802.98"/>
<text text-anchor="middle" x="166" y="-817.28" font-family="Times,serif" font-size="14.00">top_genes</text>
</g>
<!-- top_genes&#45;&gt;run_rnasum_step -->
<g id="edge28" class="edge">
<title>top_genes&#45;&gt;run_rnasum_step</title>
<path fill="none" stroke="black" d="M180.32,-802.96C190.32,-792.22 204.6,-779 220,-771.48 667.82,-552.71 1279.83,-523.19 1518.69,-520.49"/>
<polygon fill="black" stroke="black" points="1518.79,-523.99 1528.75,-520.39 1518.72,-516.99 1518.79,-523.99"/>
</g>
<!-- transform -->
<g id="node29" class="node">
<title>transform</title>
<polygon fill="#94ddf4" stroke="black" points="16,-802.98 16,-838.98 104,-838.98 104,-802.98 16,-802.98"/>
<text text-anchor="middle" x="60" y="-817.28" font-family="Times,serif" font-size="14.00">transform</text>
</g>
<!-- transform&#45;&gt;run_rnasum_step -->
<g id="edge29" class="edge">
<title>transform&#45;&gt;run_rnasum_step</title>
<path fill="none" stroke="black" d="M73.96,-802.89C83.74,-792.12 97.75,-778.9 113,-771.48 367.12,-647.81 1242.54,-556.44 1528.7,-529.3"/>
<polygon fill="black" stroke="black" points="1529.41,-532.75 1539.03,-528.32 1528.75,-525.78 1529.41,-532.75"/>
</g>
<!-- rnasum_html -->
<g id="node31" class="node">
<title>rnasum_html</title>
<polygon fill="#94ddf4" stroke="black" points="1651,-211.98 1651,-247.98 1761,-247.98 1761,-211.98 1651,-211.98"/>
<text text-anchor="middle" x="1706" y="-226.28" font-family="Times,serif" font-size="14.00">rnasum_html</text>
</g>
<!-- run_rnasum_step&#45;&gt;rnasum_html -->
<g id="edge30" class="edge">
<title>run_rnasum_step&#45;&gt;rnasum_html</title>
<path fill="none" stroke="black" d="M1625.12,-501.82C1639.55,-453.5 1680.62,-315.98 1698.03,-257.65"/>
<polygon fill="black" stroke="black" points="1701.4,-258.62 1700.9,-248.04 1694.69,-256.62 1701.4,-258.62"/>
</g>
<!-- rnasum_output_directory -->
<g id="node32" class="node">
<title>rnasum_output_directory</title>
<polygon fill="#94ddf4" stroke="black" points="1435.5,-211.98 1435.5,-247.98 1632.5,-247.98 1632.5,-211.98 1435.5,-211.98"/>
<text text-anchor="middle" x="1534" y="-226.28" font-family="Times,serif" font-size="14.00">rnasum_output_directory</text>
</g>
<!-- run_rnasum_step&#45;&gt;rnasum_output_directory -->
<g id="edge31" class="edge">
<title>run_rnasum_step&#45;&gt;rnasum_output_directory</title>
<path fill="none" stroke="black" d="M1614.88,-501.82C1600.45,-453.5 1559.38,-315.98 1541.97,-257.65"/>
<polygon fill="black" stroke="black" points="1545.31,-256.62 1539.1,-248.04 1538.6,-258.62 1545.31,-256.62"/>
</g>
</g>
</svg>
