<?xml version="1.0" encoding="UTF-8" standalone="no"?>
<!DOCTYPE svg PUBLIC "-//W3C//DTD SVG 1.1//EN"
 "http://www.w3.org/Graphics/SVG/1.1/DTD/svg11.dtd">
<!-- Generated by graphviz version 2.43.0 (0)
 -->
<!-- Title: G Pages: 1 -->
<svg width="1116pt" height="541pt"
 viewBox="0.00 0.00 1116.00 540.95" xmlns="http://www.w3.org/2000/svg" xmlns:xlink="http://www.w3.org/1999/xlink">
<g id="graph0" class="graph" transform="scale(1 1) rotate(0) translate(4 536.95)">
<title>G</title>
<polygon fill="#eeeeee" stroke="transparent" points="-4,4 -4,-536.95 1112,-536.95 1112,4 -4,4"/>
<g id="clust1" class="cluster">
<title>cluster_inputs</title>
<polygon fill="#eeeeee" stroke="black" stroke-dasharray="5,2" points="8,-417.27 8,-521.93 1100,-521.93 1100,-417.27 8,-417.27"/>
<text text-anchor="middle" x="1033.5" y="-425.07" font-family="Times,serif" font-size="14.00">Workflow Inputs</text>
</g>
<g id="clust2" class="cluster">
<title>cluster_outputs</title>
<polygon fill="#eeeeee" stroke="black" stroke-dasharray="5,2" points="632,-11.02 632,-115.68 784,-115.68 784,-11.02 632,-11.02"/>
<text text-anchor="middle" x="711.5" y="-18.82" font-family="Times,serif" font-size="14.00">Workflow Outputs</text>
</g>
<!-- arriba_fusion_calling_step -->
<g id="node1" class="node">
<title>arriba_fusion_calling_step</title>
<polygon fill="lightgoldenrodyellow" stroke="black" points="598.5,-363.02 598.5,-399.02 817.5,-399.02 817.5,-363.02 598.5,-363.02"/>
<text text-anchor="middle" x="708" y="-377.32" font-family="Times,serif" font-size="14.00">arriba&#45;fusion&#45;calling v(2.5.0)</text>
</g>
<!-- arriba_drawing_step -->
<g id="node2" class="node">
<title>arriba_drawing_step</title>
<polygon fill="lightgoldenrodyellow" stroke="black" points="451,-262.02 451,-298.02 633,-298.02 633,-262.02 451,-262.02"/>
<text text-anchor="middle" x="542" y="-276.32" font-family="Times,serif" font-size="14.00">arriba&#45;drawing v(2.5.0)</text>
</g>
<!-- arriba_fusion_calling_step&#45;&gt;arriba_drawing_step -->
<g id="edge1" class="edge">
<title>arriba_fusion_calling_step&#45;&gt;arriba_drawing_step</title>
<path fill="none" stroke="black" d="M679.46,-363C651.79,-346.49 609.65,-321.37 579.33,-303.28"/>
<polygon fill="black" stroke="black" points="581.1,-300.26 570.72,-298.14 577.52,-306.27 581.1,-300.26"/>
</g>
<!-- create_arriba_output_directory_step -->
<g id="node3" class="node">
<title>create_arriba_output_directory_step</title>
<polygon fill="lightgoldenrodyellow" stroke="black" points="612.5,-162.02 612.5,-198.02 803.5,-198.02 803.5,-162.02 612.5,-162.02"/>
<text text-anchor="middle" x="708" y="-176.32" font-family="Times,serif" font-size="14.00">create&#45;directory v(1.0.0)</text>
</g>
<!-- arriba_fusion_calling_step&#45;&gt;create_arriba_output_directory_step -->
<g id="edge2" class="edge">
<title>arriba_fusion_calling_step&#45;&gt;create_arriba_output_directory_step</title>
<path fill="none" stroke="black" d="M703.99,-362.71C700.63,-328.07 700.36,-250.01 703.18,-208.38"/>
<polygon fill="black" stroke="black" points="706.69,-208.4 704,-198.15 699.71,-207.83 706.69,-208.4"/>
</g>
<!-- arriba_fusion_calling_step&#45;&gt;create_arriba_output_directory_step -->
<g id="edge3" class="edge">
<title>arriba_fusion_calling_step&#45;&gt;create_arriba_output_directory_step</title>
<path fill="none" stroke="black" d="M712.01,-362.71C715.37,-328.07 715.64,-250.01 712.82,-208.38"/>
<polygon fill="black" stroke="black" points="716.29,-207.83 712,-198.15 709.31,-208.4 716.29,-207.83"/>
</g>
<!-- arriba_drawing_step&#45;&gt;create_arriba_output_directory_step -->
<g id="edge4" class="edge">
<title>arriba_drawing_step&#45;&gt;create_arriba_output_directory_step</title>
<path fill="none" stroke="black" d="M570.91,-261.95C598.44,-245.7 640.03,-221.14 670.18,-203.35"/>
<polygon fill="black" stroke="black" points="672.31,-206.15 679.14,-198.06 668.75,-200.13 672.31,-206.15"/>
</g>
<!-- output_directory -->
<g id="node12" class="node">
<title>output_directory</title>
<polygon fill="#94ddf4" stroke="black" points="640,-61.02 640,-97.02 776,-97.02 776,-61.02 640,-61.02"/>
<text text-anchor="middle" x="708" y="-75.32" font-family="Times,serif" font-size="14.00">output_directory</text>
</g>
<!-- create_arriba_output_directory_step&#45;&gt;output_directory -->
<g id="edge18" class="edge">
<title>create_arriba_output_directory_step&#45;&gt;output_directory</title>
<path fill="none" stroke="black" d="M708,-161.77C708,-146.72 708,-124.63 708,-107.21"/>
<polygon fill="black" stroke="black" points="711.5,-107.06 708,-97.06 704.5,-107.06 711.5,-107.06"/>
</g>
<!-- alignment_data -->
<g id="node4" class="node">
<title>alignment_data</title>
<polygon fill="#94ddf4" stroke="black" points="478.5,-467.02 478.5,-503.02 605.5,-503.02 605.5,-467.02 478.5,-467.02"/>
<text text-anchor="middle" x="542" y="-481.32" font-family="Times,serif" font-size="14.00">alignment_data</text>
</g>
<!-- alignment_data&#45;&gt;arriba_fusion_calling_step -->
<g id="edge6" class="edge">
<title>alignment_data&#45;&gt;arriba_fusion_calling_step</title>
<path fill="none" stroke="black" d="M566.74,-467C580.76,-457.51 598.7,-445.61 615,-435.52 632.24,-424.85 651.63,-413.58 668.23,-404.15"/>
<polygon fill="black" stroke="black" points="670.15,-407.09 677.13,-399.12 666.7,-400.99 670.15,-407.09"/>
</g>
<!-- alignment_data&#45;&gt;arriba_drawing_step -->
<g id="edge5" class="edge">
<title>alignment_data&#45;&gt;arriba_drawing_step</title>
<path fill="none" stroke="black" d="M542,-466.71C542,-431.43 542,-350.95 542,-308.46"/>
<polygon fill="black" stroke="black" points="545.5,-308.28 542,-298.28 538.5,-308.28 545.5,-308.28"/>
</g>
<!-- annotation_gtf -->
<g id="node5" class="node">
<title>annotation_gtf</title>
<polygon fill="#94ddf4" stroke="black" points="340,-467.02 340,-503.02 460,-503.02 460,-467.02 340,-467.02"/>
<text text-anchor="middle" x="400" y="-481.32" font-family="Times,serif" font-size="14.00">annotation_gtf</text>
</g>
<!-- annotation_gtf&#45;&gt;arriba_fusion_calling_step -->
<g id="edge8" class="edge">
<title>annotation_gtf&#45;&gt;arriba_fusion_calling_step</title>
<path fill="none" stroke="black" d="M420.18,-466.89C433.53,-456.39 451.86,-443.48 470,-435.52 506.93,-419.31 549.33,-407.76 588.01,-399.64"/>
<polygon fill="black" stroke="black" points="589.18,-402.97 598.28,-397.54 587.78,-396.11 589.18,-402.97"/>
</g>
<!-- annotation_gtf&#45;&gt;arriba_drawing_step -->
<g id="edge7" class="edge">
<title>annotation_gtf&#45;&gt;arriba_drawing_step</title>
<path fill="none" stroke="black" d="M412.11,-466.71C437.15,-430.9 494.76,-348.54 524.11,-306.59"/>
<polygon fill="black" stroke="black" points="527.06,-308.48 529.92,-298.28 521.32,-304.47 527.06,-308.48"/>
</g>
<!-- cytobands_tsv -->
<g id="node6" class="node">
<title>cytobands_tsv</title>
<polygon fill="#94ddf4" stroke="black" points="204,-467.02 204,-503.02 322,-503.02 322,-467.02 204,-467.02"/>
<text text-anchor="middle" x="263" y="-481.32" font-family="Times,serif" font-size="14.00">cytobands_tsv</text>
</g>
<!-- cytobands_tsv&#45;&gt;arriba_drawing_step -->
<g id="edge9" class="edge">
<title>cytobands_tsv&#45;&gt;arriba_drawing_step</title>
<path fill="none" stroke="black" d="M286.79,-466.71C336.92,-430.23 453.48,-345.43 510.05,-304.26"/>
<polygon fill="black" stroke="black" points="512.25,-306.99 518.27,-298.28 508.13,-301.33 512.25,-306.99"/>
</g>
<!-- sample_name -->
<g id="node7" class="node">
<title>sample_name</title>
<polygon fill="#94ddf4" stroke="black" points="978.5,-467.02 978.5,-503.02 1091.5,-503.02 1091.5,-467.02 978.5,-467.02"/>
<text text-anchor="middle" x="1035" y="-481.32" font-family="Times,serif" font-size="14.00">sample_name</text>
</g>
<!-- sample_name&#45;&gt;arriba_fusion_calling_step -->
<g id="edge11" class="edge">
<title>sample_name&#45;&gt;arriba_fusion_calling_step</title>
<path fill="none" stroke="black" d="M1009.11,-466.96C995.47,-456.35 978.35,-443.29 961,-435.52 919.24,-416.81 870.79,-404.57 827.52,-396.6"/>
<polygon fill="black" stroke="black" points="827.96,-393.13 817.5,-394.82 826.73,-400.02 827.96,-393.13"/>
</g>
<!-- sample_name&#45;&gt;arriba_fusion_calling_step -->
<g id="edge12" class="edge">
<title>sample_name&#45;&gt;arriba_fusion_calling_step</title>
<path fill="none" stroke="black" d="M1024.22,-466.73C1013.22,-456.16 996.22,-443.23 979,-435.52 931.83,-414.38 876.14,-401.51 827.52,-393.72"/>
<polygon fill="black" stroke="black" points="827.99,-390.25 817.57,-392.18 826.92,-397.17 827.99,-390.25"/>
</g>
<!-- sample_name&#45;&gt;arriba_drawing_step -->
<g id="edge10" class="edge">
<title>sample_name&#45;&gt;arriba_drawing_step</title>
<path fill="none" stroke="black" d="M1013.98,-466.91C1001.55,-457.16 985.3,-445.04 970,-435.52 909.41,-397.82 893.39,-388.67 827,-362.52 761.03,-336.53 683.52,-314.91 625.99,-300.48"/>
<polygon fill="black" stroke="black" points="626.77,-297.07 616.22,-298.05 625.08,-303.86 626.77,-297.07"/>
</g>
<!-- sample_name&#45;&gt;create_arriba_output_directory_step -->
<g id="edge13" class="edge">
<title>sample_name&#45;&gt;create_arriba_output_directory_step</title>
<path fill="none" stroke="black" d="M1016.48,-466.86C961.42,-415.83 798.54,-264.92 734.39,-205.47"/>
<polygon fill="black" stroke="black" points="736.43,-202.59 726.72,-198.36 731.68,-207.73 736.43,-202.59"/>
</g>
<!-- protein_domains_gff3 -->
<g id="node8" class="node">
<title>protein_domains_gff3</title>
<polygon fill="#94ddf4" stroke="black" points="16,-467.02 16,-503.02 186,-503.02 186,-467.02 16,-467.02"/>
<text text-anchor="middle" x="101" y="-481.32" font-family="Times,serif" font-size="14.00">protein_domains_gff3</text>
</g>
<!-- protein_domains_gff3&#45;&gt;arriba_drawing_step -->
<g id="edge14" class="edge">
<title>protein_domains_gff3&#45;&gt;arriba_drawing_step</title>
<path fill="none" stroke="black" d="M132.96,-466.95C151.04,-457.44 174.14,-445.53 195,-435.52 299.54,-385.33 424.19,-331.19 492,-302.21"/>
<polygon fill="black" stroke="black" points="493.76,-305.26 501.58,-298.12 491.01,-298.82 493.76,-305.26"/>
</g>
<!-- blacklist_tsv -->
<g id="node9" class="node">
<title>blacklist_tsv</title>
<polygon fill="#94ddf4" stroke="black" points="855.5,-467.02 855.5,-503.02 960.5,-503.02 960.5,-467.02 855.5,-467.02"/>
<text text-anchor="middle" x="908" y="-481.32" font-family="Times,serif" font-size="14.00">blacklist_tsv</text>
</g>
<!-- blacklist_tsv&#45;&gt;arriba_fusion_calling_step -->
<g id="edge15" class="edge">
<title>blacklist_tsv&#45;&gt;arriba_fusion_calling_step</title>
<path fill="none" stroke="black" d="M889.22,-466.95C877.43,-456.86 861.56,-444.36 846,-435.52 823.03,-422.46 796.24,-411.26 772.42,-402.53"/>
<polygon fill="black" stroke="black" points="773.35,-399.15 762.76,-399.07 770.99,-405.74 773.35,-399.15"/>
</g>
<!-- contigs -->
<g id="node10" class="node">
<title>contigs</title>
<polygon fill="#94ddf4" stroke="black" points="769,-467.02 769,-503.02 837,-503.02 837,-467.02 769,-467.02"/>
<text text-anchor="middle" x="803" y="-481.32" font-family="Times,serif" font-size="14.00">contigs</text>
</g>
<!-- contigs&#45;&gt;arriba_fusion_calling_step -->
<g id="edge16" class="edge">
<title>contigs&#45;&gt;arriba_fusion_calling_step</title>
<path fill="none" stroke="black" d="M788.06,-466.79C779.88,-457.44 769.49,-445.74 760,-435.52 751.05,-425.88 741.02,-415.46 732.17,-406.41"/>
<polygon fill="black" stroke="black" points="734.57,-403.86 725.06,-399.17 729.57,-408.76 734.57,-403.86"/>
</g>
<!-- reference_fasta -->
<g id="node11" class="node">
<title>reference_fasta</title>
<polygon fill="#94ddf4" stroke="black" points="623.5,-467.02 623.5,-503.02 750.5,-503.02 750.5,-467.02 623.5,-467.02"/>
<text text-anchor="middle" x="687" y="-481.32" font-family="Times,serif" font-size="14.00">reference_fasta</text>
</g>
<!-- reference_fasta&#45;&gt;arriba_fusion_calling_step -->
<g id="edge17" class="edge">
<title>reference_fasta&#45;&gt;arriba_fusion_calling_step</title>
<path fill="none" stroke="black" d="M690.56,-466.71C693.81,-450.94 698.66,-427.38 702.42,-409.11"/>
<polygon fill="black" stroke="black" points="705.9,-409.56 704.49,-399.06 699.05,-408.15 705.9,-409.56"/>
</g>
</g>
</svg>
