<?xml version="1.0" encoding="UTF-8" standalone="no"?>
<!DOCTYPE svg PUBLIC "-//W3C//DTD SVG 1.1//EN"
 "http://www.w3.org/Graphics/SVG/1.1/DTD/svg11.dtd">
<!-- Generated by graphviz version 2.43.0 (0)
 -->
<!-- Title: G Pages: 1 -->
<svg width="8146pt" height="2018pt"
 viewBox="0.00 0.00 8146.00 2018.09" xmlns="http://www.w3.org/2000/svg" xmlns:xlink="http://www.w3.org/1999/xlink">
<g id="graph0" class="graph" transform="scale(1 1) rotate(0) translate(4 2014.09)">
<title>G</title>
<polygon fill="#eeeeee" stroke="transparent" points="-4,4 -4,-2014.09 8142,-2014.09 8142,4 -4,4"/>
<g id="clust1" class="cluster">
<title>cluster_inputs</title>
<polygon fill="#eeeeee" stroke="black" stroke-dasharray="5,2" points="8,-1472.8 8,-1959.52 8074,-1959.52 8074,-1472.8 8,-1472.8"/>
<text text-anchor="middle" x="8007.5" y="-1480.6" font-family="Times,serif" font-size="14.00">Workflow Inputs</text>
</g>
<g id="clust2" class="cluster">
<title>cluster_outputs</title>
<polygon fill="#eeeeee" stroke="black" stroke-dasharray="5,2" points="4025,-50.57 4025,-537.29 4681,-537.29 4681,-50.57 4025,-50.57"/>
<text text-anchor="middle" x="4608.5" y="-58.37" font-family="Times,serif" font-size="14.00">Workflow Outputs</text>
</g>
<!-- output_prefix -->
<g id="node1" class="node">
<title>output_prefix</title>
<polygon fill="#94ddf4" stroke="black" points="7954,-1770.07 7954,-1807.07 8066,-1807.07 8066,-1770.07 7954,-1770.07"/>
<text text-anchor="middle" x="8010" y="-1784.87" font-family="Times,serif" font-size="14.00">output_prefix</text>
</g>
<!-- run_dragen_alignment_step -->
<g id="node61" class="node">
<title>run_dragen_alignment_step</title>
<polygon fill="lightgoldenrodyellow" stroke="black" points="4067.5,-1284.07 4067.5,-1321.07 4270.5,-1321.07 4270.5,-1284.07 4067.5,-1284.07"/>
<text text-anchor="middle" x="4169" y="-1298.87" font-family="Times,serif" font-size="14.00">dragen&#45;alignment v(4.3.6)</text>
</g>
<!-- output_prefix&#45;&gt;run_dragen_alignment_step -->
<g id="edge5" class="edge">
<title>output_prefix&#45;&gt;run_dragen_alignment_step</title>
<path fill="none" stroke="black" d="M7984.66,-1770.07C7971.08,-1759.09 7953.85,-1745.7 7936,-1738.57 7243.63,-1461.76 4831,-1334.68 4281.12,-1308.69"/>
<polygon fill="black" stroke="black" points="4280.97,-1305.18 4270.82,-1308.2 4280.64,-1312.17 4280.97,-1305.18"/>
</g>
<!-- output_prefix&#45;&gt;run_dragen_alignment_step -->
<g id="edge6" class="edge">
<title>output_prefix&#45;&gt;run_dragen_alignment_step</title>
<path fill="none" stroke="black" d="M7999.96,-1770.07C7989.08,-1759.09 7971.85,-1745.7 7954,-1738.57 7259.34,-1460.85 4833.07,-1333.84 4281.24,-1308.43"/>
<polygon fill="black" stroke="black" points="4281.04,-1304.92 4270.89,-1307.96 4280.72,-1311.91 4281.04,-1304.92"/>
</g>
<!-- dragen_qc_step -->
<g id="node62" class="node">
<title>dragen_qc_step</title>
<polygon fill="lightgoldenrodyellow" stroke="black" points="7940.5,-816.07 7940.5,-853.07 8079.5,-853.07 8079.5,-816.07 7940.5,-816.07"/>
<text text-anchor="middle" x="8010" y="-830.87" font-family="Times,serif" font-size="14.00">multiqc v(1.25.0)</text>
</g>
<!-- output_prefix&#45;&gt;dragen_qc_step -->
<g id="edge7" class="edge">
<title>output_prefix&#45;&gt;dragen_qc_step</title>
<path fill="none" stroke="black" d="M8005.98,-1769.82C7993.66,-1653.97 7993.35,-1005.81 8005.05,-863.29"/>
<polygon fill="black" stroke="black" points="8008.55,-863.48 8005.99,-853.2 8001.58,-862.83 8008.55,-863.48"/>
</g>
<!-- output_prefix&#45;&gt;dragen_qc_step -->
<g id="edge8" class="edge">
<title>output_prefix&#45;&gt;dragen_qc_step</title>
<path fill="none" stroke="black" d="M8010,-1769.82C8010,-1653.97 8010,-1005.81 8010,-863.29"/>
<polygon fill="black" stroke="black" points="8013.5,-863.2 8010,-853.2 8006.5,-863.2 8013.5,-863.2"/>
</g>
<!-- output_prefix&#45;&gt;dragen_qc_step -->
<g id="edge9" class="edge">
<title>output_prefix&#45;&gt;dragen_qc_step</title>
<path fill="none" stroke="black" d="M8014.02,-1769.82C8026.34,-1653.97 8026.65,-1005.81 8014.95,-863.29"/>
<polygon fill="black" stroke="black" points="8018.42,-862.83 8014.01,-853.2 8011.45,-863.48 8018.42,-862.83"/>
</g>
<!-- aln_min_score -->
<g id="node2" class="node">
<title>aln_min_score</title>
<polygon fill="#94ddf4" stroke="black" points="7818.5,-1770.07 7818.5,-1807.07 7935.5,-1807.07 7935.5,-1770.07 7818.5,-1770.07"/>
<text text-anchor="middle" x="7877" y="-1784.87" font-family="Times,serif" font-size="14.00">aln_min_score</text>
</g>
<!-- aln_min_score&#45;&gt;run_dragen_alignment_step -->
<g id="edge10" class="edge">
<title>aln_min_score&#45;&gt;run_dragen_alignment_step</title>
<path fill="none" stroke="black" d="M7858.05,-1769.86C7845.21,-1758.94 7827.3,-1745.7 7809,-1738.57 7139.5,-1477.6 4819.05,-1338.57 4281.01,-1309.4"/>
<polygon fill="black" stroke="black" points="4281.1,-1305.9 4270.92,-1308.86 4280.72,-1312.89 4281.1,-1305.9"/>
</g>
<!-- alt_aware -->
<g id="node3" class="node">
<title>alt_aware</title>
<polygon fill="#94ddf4" stroke="black" points="7714,-1770.07 7714,-1807.07 7800,-1807.07 7800,-1770.07 7714,-1770.07"/>
<text text-anchor="middle" x="7757" y="-1784.87" font-family="Times,serif" font-size="14.00">alt_aware</text>
</g>
<!-- alt_aware&#45;&gt;run_dragen_alignment_step -->
<g id="edge11" class="edge">
<title>alt_aware&#45;&gt;run_dragen_alignment_step</title>
<path fill="none" stroke="black" d="M7743.08,-1769.6C7733.59,-1758.73 7720.05,-1745.63 7705,-1738.57 7073.93,-1442.2 4812.13,-1330.47 4281.15,-1308.01"/>
<polygon fill="black" stroke="black" points="4280.95,-1304.5 4270.81,-1307.58 4280.65,-1311.5 4280.95,-1304.5"/>
</g>
<!-- ann_sj_max_indel -->
<g id="node4" class="node">
<title>ann_sj_max_indel</title>
<polygon fill="#94ddf4" stroke="black" points="7556,-1770.07 7556,-1807.07 7696,-1807.07 7696,-1770.07 7556,-1770.07"/>
<text text-anchor="middle" x="7626" y="-1784.87" font-family="Times,serif" font-size="14.00">ann_sj_max_indel</text>
</g>
<!-- ann_sj_max_indel&#45;&gt;run_dragen_alignment_step -->
<g id="edge12" class="edge">
<title>ann_sj_max_indel&#45;&gt;run_dragen_alignment_step</title>
<path fill="none" stroke="black" d="M7603.5,-1769.97C7588.38,-1759.09 7567.53,-1745.87 7547,-1738.57 6921.25,-1516.07 4792.71,-1349.11 4280.52,-1311.54"/>
<polygon fill="black" stroke="black" points="4280.77,-1308.05 4270.54,-1310.81 4280.26,-1315.03 4280.77,-1308.05"/>
</g>
<!-- annotation_file -->
<g id="node5" class="node">
<title>annotation_file</title>
<polygon fill="#94ddf4" stroke="black" points="7416,-1770.07 7416,-1807.07 7538,-1807.07 7538,-1770.07 7416,-1770.07"/>
<text text-anchor="middle" x="7477" y="-1784.87" font-family="Times,serif" font-size="14.00">annotation_file</text>
</g>
<!-- annotation_file&#45;&gt;run_dragen_alignment_step -->
<g id="edge13" class="edge">
<title>annotation_file&#45;&gt;run_dragen_alignment_step</title>
<path fill="none" stroke="black" d="M7457.37,-1769.96C7444.1,-1759.08 7425.66,-1745.85 7407,-1738.57 6815.32,-1507.62 4780.71,-1347.83 4280.67,-1311.45"/>
<polygon fill="black" stroke="black" points="4280.79,-1307.95 4270.56,-1310.72 4280.28,-1314.93 4280.79,-1307.95"/>
</g>
<!-- dedup_min_qual -->
<g id="node6" class="node">
<title>dedup_min_qual</title>
<polygon fill="#94ddf4" stroke="black" points="7266,-1770.07 7266,-1807.07 7398,-1807.07 7398,-1770.07 7266,-1770.07"/>
<text text-anchor="middle" x="7332" y="-1784.87" font-family="Times,serif" font-size="14.00">dedup_min_qual</text>
</g>
<!-- dedup_min_qual&#45;&gt;run_dragen_alignment_step -->
<g id="edge14" class="edge">
<title>dedup_min_qual&#45;&gt;run_dragen_alignment_step</title>
<path fill="none" stroke="black" d="M7310.75,-1770.02C7296.44,-1759.17 7276.66,-1745.95 7257,-1738.57 6691.64,-1526.2 4766.45,-1353.61 4280.91,-1312.75"/>
<polygon fill="black" stroke="black" points="4281,-1309.25 4270.74,-1311.9 4280.41,-1316.23 4281,-1309.25"/>
</g>
<!-- edit_chain_limit -->
<g id="node7" class="node">
<title>edit_chain_limit</title>
<polygon fill="#94ddf4" stroke="black" points="7118.5,-1770.07 7118.5,-1807.07 7247.5,-1807.07 7247.5,-1770.07 7118.5,-1770.07"/>
<text text-anchor="middle" x="7183" y="-1784.87" font-family="Times,serif" font-size="14.00">edit_chain_limit</text>
</g>
<!-- edit_chain_limit&#45;&gt;run_dragen_alignment_step -->
<g id="edge15" class="edge">
<title>edit_chain_limit&#45;&gt;run_dragen_alignment_step</title>
<path fill="none" stroke="black" d="M7162.05,-1770.06C7147.94,-1759.23 7128.42,-1746.01 7109,-1738.57 6064.03,-1338.2 4679.5,-1303.99 4280.77,-1302.89"/>
<polygon fill="black" stroke="black" points="4280.69,-1299.39 4270.68,-1302.87 4280.67,-1306.39 4280.69,-1299.39"/>
</g>
<!-- edit_mode -->
<g id="node8" class="node">
<title>edit_mode</title>
<polygon fill="#94ddf4" stroke="black" points="7010,-1770.07 7010,-1807.07 7100,-1807.07 7100,-1770.07 7010,-1770.07"/>
<text text-anchor="middle" x="7055" y="-1784.87" font-family="Times,serif" font-size="14.00">edit_mode</text>
</g>
<!-- edit_mode&#45;&gt;run_dragen_alignment_step -->
<g id="edge16" class="edge">
<title>edit_mode&#45;&gt;run_dragen_alignment_step</title>
<path fill="none" stroke="black" d="M7040.33,-1769.76C7030.39,-1758.95 7016.31,-1745.86 7001,-1738.57 6503.13,-1501.34 4743.04,-1348.71 4280.84,-1312.11"/>
<polygon fill="black" stroke="black" points="4281.07,-1308.62 4270.83,-1311.32 4280.52,-1315.6 4281.07,-1308.62"/>
</g>
<!-- edit_read_len -->
<g id="node9" class="node">
<title>edit_read_len</title>
<polygon fill="#94ddf4" stroke="black" points="6880,-1770.07 6880,-1807.07 6992,-1807.07 6992,-1770.07 6880,-1770.07"/>
<text text-anchor="middle" x="6936" y="-1784.87" font-family="Times,serif" font-size="14.00">edit_read_len</text>
</g>
<!-- edit_read_len&#45;&gt;run_dragen_alignment_step -->
<g id="edge17" class="edge">
<title>edit_read_len&#45;&gt;run_dragen_alignment_step</title>
<path fill="none" stroke="black" d="M6917.65,-1769.85C6905.41,-1759.07 6888.42,-1745.99 6871,-1738.57 5929.95,-1337.6 4660.76,-1303.39 4280.88,-1302.65"/>
<polygon fill="black" stroke="black" points="4280.71,-1299.15 4270.71,-1302.64 4280.71,-1306.15 4280.71,-1299.15"/>
</g>
<!-- edit_seed_num -->
<g id="node10" class="node">
<title>edit_seed_num</title>
<polygon fill="#94ddf4" stroke="black" points="6740,-1770.07 6740,-1807.07 6862,-1807.07 6862,-1770.07 6740,-1770.07"/>
<text text-anchor="middle" x="6801" y="-1784.87" font-family="Times,serif" font-size="14.00">edit_seed_num</text>
</g>
<!-- edit_seed_num&#45;&gt;run_dragen_alignment_step -->
<g id="edge18" class="edge">
<title>edit_seed_num&#45;&gt;run_dragen_alignment_step</title>
<path fill="none" stroke="black" d="M6780.99,-1769.93C6767.71,-1759.19 6749.39,-1746.12 6731,-1738.57 5837.58,-1371.89 4646.98,-1314.28 4280.83,-1305.24"/>
<polygon fill="black" stroke="black" points="4280.84,-1301.74 4270.76,-1305 4280.68,-1308.74 4280.84,-1301.74"/>
</g>
<!-- en_alt_hap_aln -->
<g id="node11" class="node">
<title>en_alt_hap_aln</title>
<polygon fill="#94ddf4" stroke="black" points="6600.5,-1770.07 6600.5,-1807.07 6721.5,-1807.07 6721.5,-1770.07 6600.5,-1770.07"/>
<text text-anchor="middle" x="6661" y="-1784.87" font-family="Times,serif" font-size="14.00">en_alt_hap_aln</text>
</g>
<!-- en_alt_hap_aln&#45;&gt;run_dragen_alignment_step -->
<g id="edge19" class="edge">
<title>en_alt_hap_aln&#45;&gt;run_dragen_alignment_step</title>
<path fill="none" stroke="black" d="M6641.29,-1769.98C6628.21,-1759.26 6610.15,-1746.19 6592,-1738.57 5753.31,-1386.37 4634.35,-1319.13 4280.88,-1306.46"/>
<polygon fill="black" stroke="black" points="4280.76,-1302.95 4270.65,-1306.1 4280.52,-1309.95 4280.76,-1302.95"/>
</g>
<!-- en_chimeric_aln -->
<g id="node12" class="node">
<title>en_chimeric_aln</title>
<polygon fill="#94ddf4" stroke="black" points="6451.5,-1770.07 6451.5,-1807.07 6582.5,-1807.07 6582.5,-1770.07 6451.5,-1770.07"/>
<text text-anchor="middle" x="6517" y="-1784.87" font-family="Times,serif" font-size="14.00">en_chimeric_aln</text>
</g>
<!-- en_chimeric_aln&#45;&gt;run_dragen_alignment_step -->
<g id="edge20" class="edge">
<title>en_chimeric_aln&#45;&gt;run_dragen_alignment_step</title>
<path fill="none" stroke="black" d="M6495.31,-1769.86C6481.21,-1759.23 6461.98,-1746.3 6443,-1738.57 5656.24,-1417.97 4618.5,-1330.24 4280.54,-1309.39"/>
<polygon fill="black" stroke="black" points="4280.7,-1305.89 4270.5,-1308.78 4280.27,-1312.88 4280.7,-1305.89"/>
</g>
<!-- enable_duplicate_marking -->
<g id="node13" class="node">
<title>enable_duplicate_marking</title>
<polygon fill="#94ddf4" stroke="black" points="6230.5,-1770.07 6230.5,-1807.07 6433.5,-1807.07 6433.5,-1770.07 6230.5,-1770.07"/>
<text text-anchor="middle" x="6332" y="-1784.87" font-family="Times,serif" font-size="14.00">enable_duplicate_marking</text>
</g>
<!-- enable_duplicate_marking&#45;&gt;run_dragen_alignment_step -->
<g id="edge21" class="edge">
<title>enable_duplicate_marking&#45;&gt;run_dragen_alignment_step</title>
<path fill="none" stroke="black" d="M6297.56,-1769.98C6276.24,-1759.66 6248.05,-1747.03 6222,-1738.57 5499.75,-1504.08 4592.71,-1363.07 4280.53,-1318.76"/>
<polygon fill="black" stroke="black" points="4280.96,-1315.29 4270.57,-1317.35 4279.98,-1322.22 4280.96,-1315.29"/>
</g>
<!-- enable_map_align -->
<g id="node14" class="node">
<title>enable_map_align</title>
<polygon fill="#94ddf4" stroke="black" points="6069.5,-1770.07 6069.5,-1807.07 6212.5,-1807.07 6212.5,-1770.07 6069.5,-1770.07"/>
<text text-anchor="middle" x="6141" y="-1784.87" font-family="Times,serif" font-size="14.00">enable_map_align</text>
</g>
<!-- enable_map_align&#45;&gt;run_dragen_alignment_step -->
<g id="edge22" class="edge">
<title>enable_map_align&#45;&gt;run_dragen_alignment_step</title>
<path fill="none" stroke="black" d="M6116.88,-1769.94C6101.55,-1759.47 6080.9,-1746.7 6061,-1738.57 5416.01,-1475.12 4579.03,-1353.5 4280.66,-1316.44"/>
<polygon fill="black" stroke="black" points="4281.05,-1312.96 4270.7,-1315.21 4280.2,-1319.91 4281.05,-1312.96"/>
</g>
<!-- enable_map_align_output -->
<g id="node15" class="node">
<title>enable_map_align_output</title>
<polygon fill="#94ddf4" stroke="black" points="5854.5,-1770.07 5854.5,-1807.07 6051.5,-1807.07 6051.5,-1770.07 5854.5,-1770.07"/>
<text text-anchor="middle" x="5953" y="-1784.87" font-family="Times,serif" font-size="14.00">enable_map_align_output</text>
</g>
<!-- enable_map_align_output&#45;&gt;run_dragen_alignment_step -->
<g id="edge23" class="edge">
<title>enable_map_align_output&#45;&gt;run_dragen_alignment_step</title>
<path fill="none" stroke="black" d="M5918.46,-1769.87C5897.81,-1759.77 5870.83,-1747.4 5846,-1738.57 5262.26,-1531.01 4532.22,-1375.85 4269.21,-1323.13"/>
<polygon fill="black" stroke="black" points="4269.79,-1319.68 4259.29,-1321.15 4268.41,-1326.54 4269.79,-1319.68"/>
</g>
<!-- enable_rna -->
<g id="node16" class="node">
<title>enable_rna</title>
<polygon fill="#94ddf4" stroke="black" points="5741.5,-1770.07 5741.5,-1807.07 5836.5,-1807.07 5836.5,-1770.07 5741.5,-1770.07"/>
<text text-anchor="middle" x="5789" y="-1784.87" font-family="Times,serif" font-size="14.00">enable_rna</text>
</g>
<!-- enable_rna&#45;&gt;run_dragen_alignment_step -->
<g id="edge24" class="edge">
<title>enable_rna&#45;&gt;run_dragen_alignment_step</title>
<path fill="none" stroke="black" d="M5772.53,-1769.93C5761.87,-1759.46 5747.19,-1746.69 5732,-1738.57 5229.81,-1470.22 4546.12,-1354.43 4280.72,-1317.59"/>
<polygon fill="black" stroke="black" points="4281.07,-1314.11 4270.69,-1316.21 4280.12,-1321.04 4281.07,-1314.11"/>
</g>
<!-- enable_rna_quantification -->
<g id="node17" class="node">
<title>enable_rna_quantification</title>
<polygon fill="#94ddf4" stroke="black" points="5523,-1770.07 5523,-1807.07 5723,-1807.07 5723,-1770.07 5523,-1770.07"/>
<text text-anchor="middle" x="5623" y="-1784.87" font-family="Times,serif" font-size="14.00">enable_rna_quantification</text>
</g>
<!-- enable_rna_quantification&#45;&gt;run_dragen_alignment_step -->
<g id="edge25" class="edge">
<title>enable_rna_quantification&#45;&gt;run_dragen_alignment_step</title>
<path fill="none" stroke="black" d="M5586.59,-1770C5565.61,-1760.17 5538.59,-1748.04 5514,-1738.57 5036.31,-1554.59 4444.14,-1381.63 4241.17,-1323.87"/>
<polygon fill="black" stroke="black" points="4242.09,-1320.5 4231.51,-1321.13 4240.17,-1327.23 4242.09,-1320.5"/>
</g>
<!-- enable_rrna_filter -->
<g id="node18" class="node">
<title>enable_rrna_filter</title>
<polygon fill="#94ddf4" stroke="black" points="5361.5,-1770.07 5361.5,-1807.07 5504.5,-1807.07 5504.5,-1770.07 5361.5,-1770.07"/>
<text text-anchor="middle" x="5433" y="-1784.87" font-family="Times,serif" font-size="14.00">enable_rrna_filter</text>
</g>
<!-- enable_rrna_filter&#45;&gt;run_dragen_alignment_step -->
<g id="edge26" class="edge">
<title>enable_rrna_filter&#45;&gt;run_dragen_alignment_step</title>
<path fill="none" stroke="black" d="M5407.07,-1769.88C5391.76,-1759.9 5371.76,-1747.65 5353,-1738.57 4946.1,-1541.6 4425.55,-1379.44 4239.21,-1324.03"/>
<polygon fill="black" stroke="black" points="4240.12,-1320.64 4229.54,-1321.15 4238.13,-1327.35 4240.12,-1320.64"/>
</g>
<!-- enable_sort -->
<g id="node19" class="node">
<title>enable_sort</title>
<polygon fill="#94ddf4" stroke="black" points="5244.5,-1770.07 5244.5,-1807.07 5343.5,-1807.07 5343.5,-1770.07 5244.5,-1770.07"/>
<text text-anchor="middle" x="5294" y="-1784.87" font-family="Times,serif" font-size="14.00">enable_sort</text>
</g>
<!-- enable_sort&#45;&gt;run_dragen_alignment_step -->
<g id="edge27" class="edge">
<title>enable_sort&#45;&gt;run_dragen_alignment_step</title>
<path fill="none" stroke="black" d="M5275.72,-1769.88C5264.6,-1759.78 5249.73,-1747.4 5235,-1738.57 4885.07,-1528.69 4415.37,-1376.92 4239.43,-1324.05"/>
<polygon fill="black" stroke="black" points="4240.36,-1320.67 4229.77,-1321.16 4238.35,-1327.38 4240.36,-1320.67"/>
</g>
<!-- fastq_list -->
<g id="node20" class="node">
<title>fastq_list</title>
<polygon fill="#94ddf4" stroke="black" points="5144,-1770.07 5144,-1807.07 5226,-1807.07 5226,-1770.07 5144,-1770.07"/>
<text text-anchor="middle" x="5185" y="-1784.87" font-family="Times,serif" font-size="14.00">fastq_list</text>
</g>
<!-- fastq_list&#45;&gt;run_dragen_alignment_step -->
<g id="edge28" class="edge">
<title>fastq_list&#45;&gt;run_dragen_alignment_step</title>
<path fill="none" stroke="black" d="M5169.64,-1769.65C5160.35,-1759.59 5147.85,-1747.34 5135,-1738.57 4825.93,-1527.48 4397.85,-1377.12 4235.25,-1324.32"/>
<polygon fill="black" stroke="black" points="4235.98,-1320.88 4225.38,-1321.13 4233.82,-1327.54 4235.98,-1320.88"/>
</g>
<!-- fastq_list_rows -->
<g id="node21" class="node">
<title>fastq_list_rows</title>
<polygon fill="#94ddf4" stroke="black" points="5002.5,-1770.07 5002.5,-1807.07 5125.5,-1807.07 5125.5,-1770.07 5002.5,-1770.07"/>
<text text-anchor="middle" x="5064" y="-1784.87" font-family="Times,serif" font-size="14.00">fastq_list_rows</text>
</g>
<!-- fastq_list_rows&#45;&gt;run_dragen_alignment_step -->
<g id="edge29" class="edge">
<title>fastq_list_rows&#45;&gt;run_dragen_alignment_step</title>
<path fill="none" stroke="black" d="M5040.52,-1770.03C5027.16,-1760.33 5009.95,-1748.31 4994,-1738.57 4707.13,-1563.49 4343.12,-1386.36 4215.63,-1325.6"/>
<polygon fill="black" stroke="black" points="4217.04,-1322.39 4206.51,-1321.25 4214.03,-1328.71 4217.04,-1322.39"/>
</g>
<!-- gap_ext_pen -->
<g id="node22" class="node">
<title>gap_ext_pen</title>
<polygon fill="#94ddf4" stroke="black" points="4879.5,-1770.07 4879.5,-1807.07 4984.5,-1807.07 4984.5,-1770.07 4879.5,-1770.07"/>
<text text-anchor="middle" x="4932" y="-1784.87" font-family="Times,serif" font-size="14.00">gap_ext_pen</text>
</g>
<!-- gap_ext_pen&#45;&gt;run_dragen_alignment_step -->
<g id="edge30" class="edge">
<title>gap_ext_pen&#45;&gt;run_dragen_alignment_step</title>
<path fill="none" stroke="black" d="M4911.32,-1769.91C4899.73,-1760.29 4884.86,-1748.38 4871,-1738.57 4628.23,-1566.81 4318.01,-1387.81 4209.02,-1326.06"/>
<polygon fill="black" stroke="black" points="4210.74,-1323.01 4200.31,-1321.14 4207.29,-1329.11 4210.74,-1323.01"/>
</g>
<!-- gap_open_pen -->
<g id="node23" class="node">
<title>gap_open_pen</title>
<polygon fill="#94ddf4" stroke="black" points="4744.5,-1770.07 4744.5,-1807.07 4861.5,-1807.07 4861.5,-1770.07 4744.5,-1770.07"/>
<text text-anchor="middle" x="4803" y="-1784.87" font-family="Times,serif" font-size="14.00">gap_open_pen</text>
</g>
<!-- gap_open_pen&#45;&gt;run_dragen_alignment_step -->
<g id="edge31" class="edge">
<title>gap_open_pen&#45;&gt;run_dragen_alignment_step</title>
<path fill="none" stroke="black" d="M4780.06,-1770.06C4683.67,-1696.47 4311.32,-1412.22 4200.37,-1327.52"/>
<polygon fill="black" stroke="black" points="4202.31,-1324.6 4192.24,-1321.31 4198.07,-1330.16 4202.31,-1324.6"/>
</g>
<!-- generate_md_tags -->
<g id="node24" class="node">
<title>generate_md_tags</title>
<polygon fill="#94ddf4" stroke="black" points="4579.5,-1770.07 4579.5,-1807.07 4726.5,-1807.07 4726.5,-1770.07 4579.5,-1770.07"/>
<text text-anchor="middle" x="4653" y="-1784.87" font-family="Times,serif" font-size="14.00">generate_md_tags</text>
</g>
<!-- generate_md_tags&#45;&gt;run_dragen_alignment_step -->
<g id="edge32" class="edge">
<title>generate_md_tags&#45;&gt;run_dragen_alignment_step</title>
<path fill="none" stroke="black" d="M4635.49,-1770.06C4562.2,-1696.77 4279.92,-1414.49 4193.98,-1328.55"/>
<polygon fill="black" stroke="black" points="4196.29,-1325.91 4186.74,-1321.31 4191.34,-1330.86 4196.29,-1325.91"/>
</g>
<!-- generate_sa_tags -->
<g id="node25" class="node">
<title>generate_sa_tags</title>
<polygon fill="#94ddf4" stroke="black" points="4421,-1770.07 4421,-1807.07 4561,-1807.07 4561,-1770.07 4421,-1770.07"/>
<text text-anchor="middle" x="4491" y="-1784.87" font-family="Times,serif" font-size="14.00">generate_sa_tags</text>
</g>
<!-- generate_sa_tags&#45;&gt;run_dragen_alignment_step -->
<g id="edge33" class="edge">
<title>generate_sa_tags&#45;&gt;run_dragen_alignment_step</title>
<path fill="none" stroke="black" d="M4479.35,-1770.06C4430.84,-1697.14 4244.68,-1417.33 4186.49,-1329.86"/>
<polygon fill="black" stroke="black" points="4189.26,-1327.7 4180.8,-1321.31 4183.43,-1331.58 4189.26,-1327.7"/>
</g>
<!-- generate_zs_tags -->
<g id="node26" class="node">
<title>generate_zs_tags</title>
<polygon fill="#94ddf4" stroke="black" points="4263,-1770.07 4263,-1807.07 4403,-1807.07 4403,-1770.07 4263,-1770.07"/>
<text text-anchor="middle" x="4333" y="-1784.87" font-family="Times,serif" font-size="14.00">generate_zs_tags</text>
</g>
<!-- generate_zs_tags&#45;&gt;run_dragen_alignment_step -->
<g id="edge34" class="edge">
<title>generate_zs_tags&#45;&gt;run_dragen_alignment_step</title>
<path fill="none" stroke="black" d="M4327.07,-1770.06C4302.46,-1697.43 4208.31,-1419.59 4178.27,-1330.93"/>
<polygon fill="black" stroke="black" points="4181.54,-1329.66 4175.01,-1321.31 4174.91,-1331.91 4181.54,-1329.66"/>
</g>
<!-- global -->
<g id="node27" class="node">
<title>global</title>
<polygon fill="#94ddf4" stroke="black" points="4185,-1770.07 4185,-1807.07 4245,-1807.07 4245,-1770.07 4185,-1770.07"/>
<text text-anchor="middle" x="4215" y="-1784.87" font-family="Times,serif" font-size="14.00">global</text>
</g>
<!-- global&#45;&gt;run_dragen_alignment_step -->
<g id="edge35" class="edge">
<title>global&#45;&gt;run_dragen_alignment_step</title>
<path fill="none" stroke="black" d="M4213.34,-1770.06C4206.45,-1697.58 4180.13,-1420.71 4171.65,-1331.47"/>
<polygon fill="black" stroke="black" points="4175.12,-1330.94 4170.69,-1321.31 4168.15,-1331.6 4175.12,-1330.94"/>
</g>
<!-- hard_clips -->
<g id="node28" class="node">
<title>hard_clips</title>
<polygon fill="#94ddf4" stroke="black" points="4078.5,-1770.07 4078.5,-1807.07 4167.5,-1807.07 4167.5,-1770.07 4078.5,-1770.07"/>
<text text-anchor="middle" x="4123" y="-1784.87" font-family="Times,serif" font-size="14.00">hard_clips</text>
</g>
<!-- hard_clips&#45;&gt;run_dragen_alignment_step -->
<g id="edge36" class="edge">
<title>hard_clips&#45;&gt;run_dragen_alignment_step</title>
<path fill="none" stroke="black" d="M4124.66,-1770.06C4131.55,-1697.58 4157.87,-1420.71 4166.35,-1331.47"/>
<polygon fill="black" stroke="black" points="4169.85,-1331.6 4167.31,-1321.31 4162.88,-1330.94 4169.85,-1331.6"/>
</g>
<!-- map_orientations -->
<g id="node29" class="node">
<title>map_orientations</title>
<polygon fill="#94ddf4" stroke="black" points="3920,-1770.07 3920,-1807.07 4060,-1807.07 4060,-1770.07 3920,-1770.07"/>
<text text-anchor="middle" x="3990" y="-1784.87" font-family="Times,serif" font-size="14.00">map_orientations</text>
</g>
<!-- map_orientations&#45;&gt;run_dragen_alignment_step -->
<g id="edge37" class="edge">
<title>map_orientations&#45;&gt;run_dragen_alignment_step</title>
<path fill="none" stroke="black" d="M3996.48,-1770.06C4023.34,-1697.43 4126.09,-1419.59 4158.88,-1330.93"/>
<polygon fill="black" stroke="black" points="4162.25,-1331.9 4162.44,-1321.31 4155.69,-1329.48 4162.25,-1331.9"/>
</g>
<!-- mapq_max -->
<g id="node30" class="node">
<title>mapq_max</title>
<polygon fill="#94ddf4" stroke="black" points="3808.5,-1770.07 3808.5,-1807.07 3901.5,-1807.07 3901.5,-1770.07 3808.5,-1770.07"/>
<text text-anchor="middle" x="3855" y="-1784.87" font-family="Times,serif" font-size="14.00">mapq_max</text>
</g>
<!-- mapq_max&#45;&gt;run_dragen_alignment_step -->
<g id="edge38" class="edge">
<title>mapq_max&#45;&gt;run_dragen_alignment_step</title>
<path fill="none" stroke="black" d="M3866.36,-1770.06C3913.67,-1697.14 4095.2,-1417.33 4151.94,-1329.86"/>
<polygon fill="black" stroke="black" points="4154.98,-1331.61 4157.49,-1321.31 4149.11,-1327.8 4154.98,-1331.61"/>
</g>
<!-- mapq_strict_js -->
<g id="node31" class="node">
<title>mapq_strict_js</title>
<polygon fill="#94ddf4" stroke="black" points="3670,-1770.07 3670,-1807.07 3790,-1807.07 3790,-1770.07 3670,-1770.07"/>
<text text-anchor="middle" x="3730" y="-1784.87" font-family="Times,serif" font-size="14.00">mapq_strict_js</text>
</g>
<!-- mapq_strict_js&#45;&gt;run_dragen_alignment_step -->
<g id="edge39" class="edge">
<title>mapq_strict_js&#45;&gt;run_dragen_alignment_step</title>
<path fill="none" stroke="black" d="M3745.88,-1770.06C3812.29,-1696.84 4067.87,-1415.06 4146.11,-1328.81"/>
<polygon fill="black" stroke="black" points="4148.78,-1331.07 4152.91,-1321.31 4143.6,-1326.37 4148.78,-1331.07"/>
</g>
<!-- match_n_score -->
<g id="node32" class="node">
<title>match_n_score</title>
<polygon fill="#94ddf4" stroke="black" points="3530,-1770.07 3530,-1807.07 3652,-1807.07 3652,-1770.07 3530,-1770.07"/>
<text text-anchor="middle" x="3591" y="-1784.87" font-family="Times,serif" font-size="14.00">match_n_score</text>
</g>
<!-- match_n_score&#45;&gt;run_dragen_alignment_step -->
<g id="edge40" class="edge">
<title>match_n_score&#45;&gt;run_dragen_alignment_step</title>
<path fill="none" stroke="black" d="M3611.91,-1770.06C3699.7,-1696.55 4038.57,-1412.79 4140.09,-1327.77"/>
<polygon fill="black" stroke="black" points="4142.39,-1330.41 4147.81,-1321.31 4137.9,-1325.05 4142.39,-1330.41"/>
</g>
<!-- match_score -->
<g id="node33" class="node">
<title>match_score</title>
<polygon fill="#94ddf4" stroke="black" points="3406,-1770.07 3406,-1807.07 3512,-1807.07 3512,-1770.07 3406,-1770.07"/>
<text text-anchor="middle" x="3459" y="-1784.87" font-family="Times,serif" font-size="14.00">match_score</text>
</g>
<!-- match_score&#45;&gt;run_dragen_alignment_step -->
<g id="edge41" class="edge">
<title>match_score&#45;&gt;run_dragen_alignment_step</title>
<path fill="none" stroke="black" d="M3480.49,-1769.91C3492.28,-1760.4 3507.25,-1748.59 3521,-1738.57 3748.17,-1572.93 4032.77,-1390.04 4132.48,-1326.67"/>
<polygon fill="black" stroke="black" points="4134.43,-1329.57 4141,-1321.26 4130.68,-1323.67 4134.43,-1329.57"/>
</g>
<!-- max_intron_bases -->
<g id="node34" class="node">
<title>max_intron_bases</title>
<polygon fill="#94ddf4" stroke="black" points="3244,-1770.07 3244,-1807.07 3388,-1807.07 3388,-1770.07 3244,-1770.07"/>
<text text-anchor="middle" x="3316" y="-1784.87" font-family="Times,serif" font-size="14.00">max_intron_bases</text>
</g>
<!-- max_intron_bases&#45;&gt;run_dragen_alignment_step -->
<g id="edge42" class="edge">
<title>max_intron_bases&#45;&gt;run_dragen_alignment_step</title>
<path fill="none" stroke="black" d="M3344.74,-1769.89C3360.16,-1760.47 3379.54,-1748.76 3397,-1738.57 3674.11,-1576.73 4012.21,-1389.81 4127.9,-1326.14"/>
<polygon fill="black" stroke="black" points="4129.73,-1329.13 4136.81,-1321.24 4126.36,-1322.99 4129.73,-1329.13"/>
</g>
<!-- max_rescues -->
<g id="node35" class="node">
<title>max_rescues</title>
<polygon fill="#94ddf4" stroke="black" points="3118,-1770.07 3118,-1807.07 3226,-1807.07 3226,-1770.07 3118,-1770.07"/>
<text text-anchor="middle" x="3172" y="-1784.87" font-family="Times,serif" font-size="14.00">max_rescues</text>
</g>
<!-- max_rescues&#45;&gt;run_dragen_alignment_step -->
<g id="edge43" class="edge">
<title>max_rescues&#45;&gt;run_dragen_alignment_step</title>
<path fill="none" stroke="black" d="M3192.15,-1770C3204.12,-1760.07 3219.87,-1747.82 3235,-1738.57 3549.78,-1546.24 3963.51,-1381.5 4112.5,-1324.7"/>
<polygon fill="black" stroke="black" points="4113.82,-1327.94 4121.92,-1321.11 4111.33,-1321.4 4113.82,-1327.94"/>
</g>
<!-- min_intron_bases -->
<g id="node36" class="node">
<title>min_intron_bases</title>
<polygon fill="#94ddf4" stroke="black" points="2958.5,-1770.07 2958.5,-1807.07 3099.5,-1807.07 3099.5,-1770.07 2958.5,-1770.07"/>
<text text-anchor="middle" x="3029" y="-1784.87" font-family="Times,serif" font-size="14.00">min_intron_bases</text>
</g>
<!-- min_intron_bases&#45;&gt;run_dragen_alignment_step -->
<g id="edge44" class="edge">
<title>min_intron_bases&#45;&gt;run_dragen_alignment_step</title>
<path fill="none" stroke="black" d="M3055.42,-1769.91C3070.72,-1760.06 3090.55,-1747.93 3109,-1738.57 3477.09,-1551.83 3944.84,-1382.03 4108.89,-1324.39"/>
<polygon fill="black" stroke="black" points="4110.06,-1327.69 4118.33,-1321.08 4107.74,-1321.09 4110.06,-1327.69"/>
</g>
<!-- min_score_coeff -->
<g id="node37" class="node">
<title>min_score_coeff</title>
<polygon fill="#94ddf4" stroke="black" points="2811.5,-1770.07 2811.5,-1807.07 2940.5,-1807.07 2940.5,-1770.07 2811.5,-1770.07"/>
<text text-anchor="middle" x="2876" y="-1784.87" font-family="Times,serif" font-size="14.00">min_score_coeff</text>
</g>
<!-- min_score_coeff&#45;&gt;run_dragen_alignment_step -->
<g id="edge45" class="edge">
<title>min_score_coeff&#45;&gt;run_dragen_alignment_step</title>
<path fill="none" stroke="black" d="M2899.44,-1769.92C2913.57,-1759.83 2932.22,-1747.46 2950,-1738.57 3362.34,-1532.31 3896.78,-1377.24 4092.71,-1323.8"/>
<polygon fill="black" stroke="black" points="4093.89,-1327.11 4102.62,-1321.11 4092.05,-1320.36 4093.89,-1327.11"/>
</g>
<!-- mismatch_pen -->
<g id="node38" class="node">
<title>mismatch_pen</title>
<polygon fill="#94ddf4" stroke="black" points="2674.5,-1770.07 2674.5,-1807.07 2793.5,-1807.07 2793.5,-1770.07 2674.5,-1770.07"/>
<text text-anchor="middle" x="2734" y="-1784.87" font-family="Times,serif" font-size="14.00">mismatch_pen</text>
</g>
<!-- mismatch_pen&#45;&gt;run_dragen_alignment_step -->
<g id="edge46" class="edge">
<title>mismatch_pen&#45;&gt;run_dragen_alignment_step</title>
<path fill="none" stroke="black" d="M2755.27,-1769.84C2768.38,-1759.6 2785.91,-1747.1 2803,-1738.57 3253.66,-1513.66 3845.42,-1372.51 4073.59,-1323.23"/>
<polygon fill="black" stroke="black" points="4074.49,-1326.62 4083.53,-1321.1 4073.01,-1319.78 4074.49,-1326.62"/>
</g>
<!-- no_unclip_score -->
<g id="node39" class="node">
<title>no_unclip_score</title>
<polygon fill="#94ddf4" stroke="black" points="2527.5,-1770.07 2527.5,-1807.07 2656.5,-1807.07 2656.5,-1770.07 2527.5,-1770.07"/>
<text text-anchor="middle" x="2592" y="-1784.87" font-family="Times,serif" font-size="14.00">no_unclip_score</text>
</g>
<!-- no_unclip_score&#45;&gt;run_dragen_alignment_step -->
<g id="edge47" class="edge">
<title>no_unclip_score&#45;&gt;run_dragen_alignment_step</title>
<path fill="none" stroke="black" d="M2614.6,-1769.99C2628.73,-1759.68 2647.68,-1747.04 2666,-1738.57 3162.92,-1508.68 3809.06,-1371.14 4061.41,-1323.03"/>
<polygon fill="black" stroke="black" points="4062.14,-1326.45 4071.31,-1321.15 4060.83,-1319.58 4062.14,-1326.45"/>
</g>
<!-- no_unpaired -->
<g id="node40" class="node">
<title>no_unpaired</title>
<polygon fill="#94ddf4" stroke="black" points="2405,-1770.07 2405,-1807.07 2509,-1807.07 2509,-1770.07 2405,-1770.07"/>
<text text-anchor="middle" x="2457" y="-1784.87" font-family="Times,serif" font-size="14.00">no_unpaired</text>
</g>
<!-- no_unpaired&#45;&gt;run_dragen_alignment_step -->
<g id="edge48" class="edge">
<title>no_unpaired&#45;&gt;run_dragen_alignment_step</title>
<path fill="none" stroke="black" d="M2475.14,-1769.91C2486.82,-1759.44 2502.8,-1746.66 2519,-1738.57 3058.27,-1469.17 3782.73,-1353.21 4057.27,-1316.96"/>
<polygon fill="black" stroke="black" points="4057.78,-1320.43 4067.24,-1315.66 4056.87,-1313.49 4057.78,-1320.43"/>
</g>
<!-- pe_max_penalty -->
<g id="node41" class="node">
<title>pe_max_penalty</title>
<polygon fill="#94ddf4" stroke="black" points="2255.5,-1770.07 2255.5,-1807.07 2386.5,-1807.07 2386.5,-1770.07 2255.5,-1770.07"/>
<text text-anchor="middle" x="2321" y="-1784.87" font-family="Times,serif" font-size="14.00">pe_max_penalty</text>
</g>
<!-- pe_max_penalty&#45;&gt;run_dragen_alignment_step -->
<g id="edge49" class="edge">
<title>pe_max_penalty&#45;&gt;run_dragen_alignment_step</title>
<path fill="none" stroke="black" d="M2343.49,-1769.97C2357.82,-1759.52 2377.17,-1746.75 2396,-1738.57 2992.35,-1479.62 3771.38,-1356.36 4057.44,-1317.6"/>
<polygon fill="black" stroke="black" points="4057.96,-1321.06 4067.41,-1316.25 4057.03,-1314.12 4057.96,-1321.06"/>
</g>
<!-- pe_orientation -->
<g id="node42" class="node">
<title>pe_orientation</title>
<polygon fill="#94ddf4" stroke="black" points="2118.5,-1770.07 2118.5,-1807.07 2237.5,-1807.07 2237.5,-1770.07 2118.5,-1770.07"/>
<text text-anchor="middle" x="2178" y="-1784.87" font-family="Times,serif" font-size="14.00">pe_orientation</text>
</g>
<!-- pe_orientation&#45;&gt;run_dragen_alignment_step -->
<g id="edge50" class="edge">
<title>pe_orientation&#45;&gt;run_dragen_alignment_step</title>
<path fill="none" stroke="black" d="M2198.12,-1770.02C2211.23,-1759.45 2229.16,-1746.54 2247,-1738.57 2894.67,-1449.31 3753.94,-1343.26 4057.24,-1313.39"/>
<polygon fill="black" stroke="black" points="4057.75,-1316.86 4067.36,-1312.4 4057.07,-1309.89 4057.75,-1316.86"/>
</g>
<!-- preserve_map_align_order -->
<g id="node43" class="node">
<title>preserve_map_align_order</title>
<polygon fill="#94ddf4" stroke="black" points="1895.5,-1770.07 1895.5,-1807.07 2100.5,-1807.07 2100.5,-1770.07 1895.5,-1770.07"/>
<text text-anchor="middle" x="1998" y="-1784.87" font-family="Times,serif" font-size="14.00">preserve_map_align_order</text>
</g>
<!-- preserve_map_align_order&#45;&gt;run_dragen_alignment_step -->
<g id="edge51" class="edge">
<title>preserve_map_align_order&#45;&gt;run_dragen_alignment_step</title>
<path fill="none" stroke="black" d="M2033.09,-1770C2054.82,-1759.69 2083.52,-1747.06 2110,-1738.57 2835.34,-1505.98 3744.87,-1363.72 4057.5,-1318.92"/>
<polygon fill="black" stroke="black" points="4058.07,-1322.38 4067.48,-1317.5 4057.08,-1315.45 4058.07,-1322.38"/>
</g>
<!-- reference_tar -->
<g id="node44" class="node">
<title>reference_tar</title>
<polygon fill="#94ddf4" stroke="black" points="1764.5,-1770.07 1764.5,-1807.07 1877.5,-1807.07 1877.5,-1770.07 1764.5,-1770.07"/>
<text text-anchor="middle" x="1821" y="-1784.87" font-family="Times,serif" font-size="14.00">reference_tar</text>
</g>
<!-- reference_tar&#45;&gt;run_dragen_alignment_step -->
<g id="edge52" class="edge">
<title>reference_tar&#45;&gt;run_dragen_alignment_step</title>
<path fill="none" stroke="black" d="M1839.75,-1770.02C1852.23,-1759.32 1869.49,-1746.25 1887,-1738.57 2668.3,-1395.74 3716.64,-1322.46 4057.15,-1307.35"/>
<polygon fill="black" stroke="black" points="4057.43,-1310.84 4067.26,-1306.91 4057.12,-1303.85 4057.43,-1310.84"/>
</g>
<!-- remove_duplicates -->
<g id="node45" class="node">
<title>remove_duplicates</title>
<polygon fill="#94ddf4" stroke="black" points="1596,-1770.07 1596,-1807.07 1746,-1807.07 1746,-1770.07 1596,-1770.07"/>
<text text-anchor="middle" x="1671" y="-1784.87" font-family="Times,serif" font-size="14.00">remove_duplicates</text>
</g>
<!-- remove_duplicates&#45;&gt;run_dragen_alignment_step -->
<g id="edge53" class="edge">
<title>remove_duplicates&#45;&gt;run_dragen_alignment_step</title>
<path fill="none" stroke="black" d="M1696.28,-1769.89C1712.61,-1759.27 1734.72,-1746.35 1756,-1738.57 2605.39,-1427.89 3706.99,-1333.27 4057.09,-1310.08"/>
<polygon fill="black" stroke="black" points="4057.47,-1313.56 4067.22,-1309.41 4057.02,-1306.57 4057.47,-1313.56"/>
</g>
<!-- rescue_sigmas -->
<g id="node46" class="node">
<title>rescue_sigmas</title>
<polygon fill="#94ddf4" stroke="black" points="1456.5,-1770.07 1456.5,-1807.07 1577.5,-1807.07 1577.5,-1770.07 1456.5,-1770.07"/>
<text text-anchor="middle" x="1517" y="-1784.87" font-family="Times,serif" font-size="14.00">rescue_sigmas</text>
</g>
<!-- rescue_sigmas&#45;&gt;run_dragen_alignment_step -->
<g id="edge54" class="edge">
<title>rescue_sigmas&#45;&gt;run_dragen_alignment_step</title>
<path fill="none" stroke="black" d="M1537.01,-1769.92C1550.29,-1759.18 1568.61,-1746.1 1587,-1738.57 2488.22,-1369.36 3689.39,-1313.46 4057.26,-1305.04"/>
<polygon fill="black" stroke="black" points="4057.45,-1308.54 4067.37,-1304.82 4057.3,-1301.54 4057.45,-1308.54"/>
</g>
<!-- sec_aligns -->
<g id="node47" class="node">
<title>sec_aligns</title>
<polygon fill="#94ddf4" stroke="black" points="1349.5,-1770.07 1349.5,-1807.07 1438.5,-1807.07 1438.5,-1770.07 1349.5,-1770.07"/>
<text text-anchor="middle" x="1394" y="-1784.87" font-family="Times,serif" font-size="14.00">sec_aligns</text>
</g>
<!-- sec_aligns&#45;&gt;run_dragen_alignment_step -->
<g id="edge55" class="edge">
<title>sec_aligns&#45;&gt;run_dragen_alignment_step</title>
<path fill="none" stroke="black" d="M1408.68,-1769.79C1418.63,-1758.99 1432.71,-1745.91 1448,-1738.57 1924.53,-1509.72 3606.17,-1351.81 4057.06,-1312.9"/>
<polygon fill="black" stroke="black" points="4057.5,-1316.38 4067.16,-1312.04 4056.9,-1309.41 4057.5,-1316.38"/>
</g>
<!-- sec_aligns_hard -->
<g id="node48" class="node">
<title>sec_aligns_hard</title>
<polygon fill="#94ddf4" stroke="black" points="1202.5,-1770.07 1202.5,-1807.07 1331.5,-1807.07 1331.5,-1770.07 1202.5,-1770.07"/>
<text text-anchor="middle" x="1267" y="-1784.87" font-family="Times,serif" font-size="14.00">sec_aligns_hard</text>
</g>
<!-- sec_aligns_hard&#45;&gt;run_dragen_alignment_step -->
<g id="edge56" class="edge">
<title>sec_aligns_hard&#45;&gt;run_dragen_alignment_step</title>
<path fill="none" stroke="black" d="M1288.28,-1769.86C1302.37,-1759.09 1321.74,-1746.01 1341,-1738.57 2342.23,-1351.66 3668.09,-1307.99 4057.21,-1303.78"/>
<polygon fill="black" stroke="black" points="4057.37,-1307.28 4067.33,-1303.68 4057.3,-1300.28 4057.37,-1307.28"/>
</g>
<!-- sec_phred_delta -->
<g id="node49" class="node">
<title>sec_phred_delta</title>
<polygon fill="#94ddf4" stroke="black" points="1053.5,-1770.07 1053.5,-1807.07 1184.5,-1807.07 1184.5,-1770.07 1053.5,-1770.07"/>
<text text-anchor="middle" x="1119" y="-1784.87" font-family="Times,serif" font-size="14.00">sec_phred_delta</text>
</g>
<!-- sec_phred_delta&#45;&gt;run_dragen_alignment_step -->
<g id="edge57" class="edge">
<title>sec_phred_delta&#45;&gt;run_dragen_alignment_step</title>
<path fill="none" stroke="black" d="M1140.27,-1770.06C1154.58,-1759.22 1174.36,-1746 1194,-1738.57 2253.64,-1337.35 3655.22,-1303.78 4057.03,-1302.85"/>
<polygon fill="black" stroke="black" points="4057.2,-1306.35 4067.19,-1302.84 4057.19,-1299.35 4057.2,-1306.35"/>
</g>
<!-- sec_score_delta -->
<g id="node50" class="node">
<title>sec_score_delta</title>
<polygon fill="#94ddf4" stroke="black" points="907,-1770.07 907,-1807.07 1035,-1807.07 1035,-1770.07 907,-1770.07"/>
<text text-anchor="middle" x="971" y="-1784.87" font-family="Times,serif" font-size="14.00">sec_score_delta</text>
</g>
<!-- sec_score_delta&#45;&gt;run_dragen_alignment_step -->
<g id="edge58" class="edge">
<title>sec_score_delta&#45;&gt;run_dragen_alignment_step</title>
<path fill="none" stroke="black" d="M991.93,-1770.01C1006.03,-1759.15 1025.54,-1745.93 1045,-1738.57 1616.8,-1522.28 3567.68,-1352.37 4056.99,-1312.47"/>
<polygon fill="black" stroke="black" points="4057.55,-1315.94 4067.23,-1311.64 4056.98,-1308.96 4057.55,-1315.94"/>
</g>
<!-- seed_density -->
<g id="node51" class="node">
<title>seed_density</title>
<polygon fill="#94ddf4" stroke="black" points="779.5,-1770.07 779.5,-1807.07 888.5,-1807.07 888.5,-1770.07 779.5,-1770.07"/>
<text text-anchor="middle" x="834" y="-1784.87" font-family="Times,serif" font-size="14.00">seed_density</text>
</g>
<!-- seed_density&#45;&gt;run_dragen_alignment_step -->
<g id="edge59" class="edge">
<title>seed_density&#45;&gt;run_dragen_alignment_step</title>
<path fill="none" stroke="black" d="M851.68,-1769.92C863.7,-1759.03 880.55,-1745.8 898,-1738.57 1491.14,-1492.8 3553.21,-1343.93 4057.21,-1310.68"/>
<polygon fill="black" stroke="black" points="4057.65,-1314.16 4067.4,-1310.01 4057.19,-1307.18 4057.65,-1314.16"/>
</g>
<!-- supp_aligns -->
<g id="node52" class="node">
<title>supp_aligns</title>
<polygon fill="#94ddf4" stroke="black" points="660.5,-1770.07 660.5,-1807.07 761.5,-1807.07 761.5,-1770.07 660.5,-1770.07"/>
<text text-anchor="middle" x="711" y="-1784.87" font-family="Times,serif" font-size="14.00">supp_aligns</text>
</g>
<!-- supp_aligns&#45;&gt;run_dragen_alignment_step -->
<g id="edge60" class="edge">
<title>supp_aligns&#45;&gt;run_dragen_alignment_step</title>
<path fill="none" stroke="black" d="M727.36,-1769.88C738.55,-1758.97 754.32,-1745.74 771,-1738.57 1385.19,-1474.49 3541.3,-1338.75 4057.39,-1309.6"/>
<polygon fill="black" stroke="black" points="4057.66,-1313.09 4067.45,-1309.04 4057.27,-1306.1 4057.66,-1313.09"/>
</g>
<!-- supp_as_sec -->
<g id="node53" class="node">
<title>supp_as_sec</title>
<polygon fill="#94ddf4" stroke="black" points="538,-1770.07 538,-1807.07 642,-1807.07 642,-1770.07 538,-1770.07"/>
<text text-anchor="middle" x="590" y="-1784.87" font-family="Times,serif" font-size="14.00">supp_as_sec</text>
</g>
<!-- supp_as_sec&#45;&gt;run_dragen_alignment_step -->
<g id="edge61" class="edge">
<title>supp_as_sec&#45;&gt;run_dragen_alignment_step</title>
<path fill="none" stroke="black" d="M607.01,-1769.86C618.6,-1758.95 634.91,-1745.71 652,-1738.57 1291.5,-1471.25 3529.76,-1337.51 4057.1,-1309.3"/>
<polygon fill="black" stroke="black" points="4057.58,-1312.78 4067.38,-1308.75 4057.2,-1305.79 4057.58,-1312.78"/>
</g>
<!-- supp_min_score_adj -->
<g id="node54" class="node">
<title>supp_min_score_adj</title>
<polygon fill="#94ddf4" stroke="black" points="362,-1770.07 362,-1807.07 520,-1807.07 520,-1770.07 362,-1770.07"/>
<text text-anchor="middle" x="441" y="-1784.87" font-family="Times,serif" font-size="14.00">supp_min_score_adj</text>
</g>
<!-- supp_min_score_adj&#45;&gt;run_dragen_alignment_step -->
<g id="edge62" class="edge">
<title>supp_min_score_adj&#45;&gt;run_dragen_alignment_step</title>
<path fill="none" stroke="black" d="M466.34,-1769.96C483.3,-1759.08 506.54,-1745.85 529,-1738.57 1212.35,-1517.03 3520.99,-1347.95 4057.13,-1311.08"/>
<polygon fill="black" stroke="black" points="4057.45,-1314.56 4067.19,-1310.39 4056.97,-1307.58 4057.45,-1314.56"/>
</g>
<!-- unclip_score -->
<g id="node55" class="node">
<title>unclip_score</title>
<polygon fill="#94ddf4" stroke="black" points="238.5,-1770.07 238.5,-1807.07 343.5,-1807.07 343.5,-1770.07 238.5,-1770.07"/>
<text text-anchor="middle" x="291" y="-1784.87" font-family="Times,serif" font-size="14.00">unclip_score</text>
</g>
<!-- unclip_score&#45;&gt;run_dragen_alignment_step -->
<g id="edge63" class="edge">
<title>unclip_score&#45;&gt;run_dragen_alignment_step</title>
<path fill="none" stroke="black" d="M307.73,-1770.05C319.33,-1759.07 335.75,-1745.68 353,-1738.57 1051.27,-1450.6 3502.24,-1331.64 4056.86,-1308.08"/>
<polygon fill="black" stroke="black" points="4057.41,-1311.56 4067.25,-1307.64 4057.12,-1304.57 4057.41,-1311.56"/>
</g>
<!-- unpaired_pen -->
<g id="node56" class="node">
<title>unpaired_pen</title>
<polygon fill="#94ddf4" stroke="black" points="107.5,-1770.07 107.5,-1807.07 220.5,-1807.07 220.5,-1770.07 107.5,-1770.07"/>
<text text-anchor="middle" x="164" y="-1784.87" font-family="Times,serif" font-size="14.00">unpaired_pen</text>
</g>
<!-- unpaired_pen&#45;&gt;run_dragen_alignment_step -->
<g id="edge64" class="edge">
<title>unpaired_pen&#45;&gt;run_dragen_alignment_step</title>
<path fill="none" stroke="black" d="M182,-1770.04C194.44,-1759.05 211.94,-1745.66 230,-1738.57 956.96,-1452.99 3492.75,-1331.81 4057.11,-1308.04"/>
<polygon fill="black" stroke="black" points="4057.44,-1311.53 4067.29,-1307.62 4057.15,-1304.54 4057.44,-1311.53"/>
</g>
<!-- verbose -->
<g id="node57" class="node">
<title>verbose</title>
<polygon fill="#94ddf4" stroke="black" points="16.5,-1770.07 16.5,-1807.07 89.5,-1807.07 89.5,-1770.07 16.5,-1770.07"/>
<text text-anchor="middle" x="53" y="-1784.87" font-family="Times,serif" font-size="14.00">verbose</text>
</g>
<!-- verbose&#45;&gt;run_dragen_alignment_step -->
<g id="edge65" class="edge">
<title>verbose&#45;&gt;run_dragen_alignment_step</title>
<path fill="none" stroke="black" d="M64.15,-1770.03C72.15,-1759.03 83.98,-1745.64 98,-1738.57 820.58,-1374.07 3478.9,-1313.84 4057.39,-1304.98"/>
<polygon fill="black" stroke="black" points="4057.46,-1308.48 4067.4,-1304.83 4057.35,-1301.48 4057.46,-1308.48"/>
</g>
<!-- dragen_alignment_output_directory -->
<g id="node58" class="node">
<title>dragen_alignment_output_directory</title>
<polygon fill="#94ddf4" stroke="black" points="4033,-348.07 4033,-385.07 4305,-385.07 4305,-348.07 4033,-348.07"/>
<text text-anchor="middle" x="4169" y="-362.87" font-family="Times,serif" font-size="14.00">dragen_alignment_output_directory</text>
</g>
<!-- dragen_bam_out -->
<g id="node59" class="node">
<title>dragen_bam_out</title>
<polygon fill="#94ddf4" stroke="black" points="4323,-348.07 4323,-385.07 4457,-385.07 4457,-348.07 4323,-348.07"/>
<text text-anchor="middle" x="4390" y="-362.87" font-family="Times,serif" font-size="14.00">dragen_bam_out</text>
</g>
<!-- multiqc_output_directory -->
<g id="node60" class="node">
<title>multiqc_output_directory</title>
<polygon fill="#94ddf4" stroke="black" points="4475.5,-348.07 4475.5,-385.07 4672.5,-385.07 4672.5,-348.07 4475.5,-348.07"/>
<text text-anchor="middle" x="4574" y="-362.87" font-family="Times,serif" font-size="14.00">multiqc_output_directory</text>
</g>
<!-- run_dragen_alignment_step&#45;&gt;dragen_alignment_output_directory -->
<g id="edge2" class="edge">
<title>run_dragen_alignment_step&#45;&gt;dragen_alignment_output_directory</title>
<path fill="none" stroke="black" d="M4169,-1283.74C4169,-1169.2 4169,-536.89 4169,-395.58"/>
<polygon fill="black" stroke="black" points="4172.5,-395.2 4169,-385.2 4165.5,-395.2 4172.5,-395.2"/>
</g>
<!-- run_dragen_alignment_step&#45;&gt;dragen_bam_out -->
<g id="edge3" class="edge">
<title>run_dragen_alignment_step&#45;&gt;dragen_bam_out</title>
<path fill="none" stroke="black" d="M4173.22,-1283.74C4200.35,-1169.08 4350.24,-535.62 4383.47,-395.16"/>
<polygon fill="black" stroke="black" points="4386.93,-395.74 4385.83,-385.2 4380.12,-394.13 4386.93,-395.74"/>
</g>
<!-- run_dragen_alignment_step&#45;&gt;dragen_qc_step -->
<g id="edge1" class="edge">
<title>run_dragen_alignment_step&#45;&gt;dragen_qc_step</title>
<path fill="none" stroke="black" d="M4270.75,-1289.22C4821.33,-1222.43 7437.47,-905.03 7929.96,-845.28"/>
<polygon fill="black" stroke="black" points="7930.66,-848.72 7940.17,-844.04 7929.82,-841.77 7930.66,-848.72"/>
</g>
<!-- dragen_qc_step&#45;&gt;multiqc_output_directory -->
<g id="edge4" class="edge">
<title>dragen_qc_step&#45;&gt;multiqc_output_directory</title>
<path fill="none" stroke="black" d="M7940.2,-824.1C7509.3,-765.66 5212.16,-454.12 4682.84,-382.33"/>
<polygon fill="black" stroke="black" points="4683.3,-378.86 4672.92,-380.98 4682.35,-385.8 4683.3,-378.86"/>
</g>
<!-- \n -->
<g id="node63" class="node">
<title>\n</title>
<ellipse fill="none" stroke="black" cx="8111" cy="-1788.57" rx="27" ry="18"/>
</g>
</g>
</svg>
