<?xml version="1.0" encoding="UTF-8" standalone="no"?>
<!DOCTYPE svg PUBLIC "-//W3C//DTD SVG 1.1//EN"
 "http://www.w3.org/Graphics/SVG/1.1/DTD/svg11.dtd">
<!-- Generated by graphviz version 2.43.0 (0)
 -->
<!-- Title: G Pages: 1 -->
<svg width="787pt" height="787pt"
 viewBox="0.00 0.00 787.00 787.00" xmlns="http://www.w3.org/2000/svg" xmlns:xlink="http://www.w3.org/1999/xlink">
<g id="graph0" class="graph" transform="scale(1 1) rotate(0) translate(4 783)">
<title>G</title>
<polygon fill="#eeeeee" stroke="transparent" points="-4,4 -4,-783 783,-783 783,4 -4,4"/>
<g id="clust1" class="cluster">
<title>cluster_inputs</title>
<polygon fill="#eeeeee" stroke="black" stroke-dasharray="5,2" points="136,-636.91 136,-765.63 641,-765.63 641,-636.91 136,-636.91"/>
<text text-anchor="middle" x="574.5" y="-644.71" font-family="Times,serif" font-size="14.00">Workflow Inputs</text>
</g>
<g id="clust2" class="cluster">
<title>cluster_outputs</title>
<polygon fill="#eeeeee" stroke="black" stroke-dasharray="5,2" points="8,-13.37 8,-142.09 490,-142.09 490,-13.37 8,-13.37"/>
<text text-anchor="middle" x="417.5" y="-21.17" font-family="Times,serif" font-size="14.00">Workflow Outputs</text>
</g>
<!-- bclconvert_run_input_directory -->
<g id="node1" class="node">
<title>bclconvert_run_input_directory</title>
<polygon fill="#94ddf4" stroke="black" points="143.5,-701.87 143.5,-738.87 382.5,-738.87 382.5,-701.87 143.5,-701.87"/>
<text text-anchor="middle" x="263" y="-716.67" font-family="Times,serif" font-size="14.00">bclconvert_run_input_directory</text>
</g>
<!-- bcl_convert_scatter_step -->
<g id="node7" class="node">
<title>bcl_convert_scatter_step</title>
<polygon fill="#f3cea1" stroke="black" points="171.5,-325.87 171.5,-362.87 322.5,-362.87 322.5,-325.87 171.5,-325.87"/>
<text text-anchor="middle" x="247" y="-340.67" font-family="Times,serif" font-size="14.00">bclconvert v(4.0.3)</text>
</g>
<!-- bclconvert_run_input_directory&#45;&gt;bcl_convert_scatter_step -->
<g id="edge8" class="edge">
<title>bclconvert_run_input_directory&#45;&gt;bcl_convert_scatter_step</title>
<path fill="none" stroke="black" d="M255,-701.73C236.5,-658.72 193.51,-544.93 210,-449.37 214.68,-422.27 225.74,-392.87 234.56,-372.27"/>
<polygon fill="black" stroke="black" points="237.85,-373.47 238.67,-362.91 231.44,-370.66 237.85,-373.47"/>
</g>
<!-- bcl_convert_samplesheet_check_scatter_step -->
<g id="node9" class="node">
<title>bcl_convert_samplesheet_check_scatter_step</title>
<polygon fill="#f3cea1" stroke="black" points="254.5,-572.87 254.5,-609.87 561.5,-609.87 561.5,-572.87 254.5,-572.87"/>
<text text-anchor="middle" x="408" y="-587.67" font-family="Times,serif" font-size="14.00">validate&#45;bclconvert&#45;samplesheet v(4.0.3)</text>
</g>
<!-- bclconvert_run_input_directory&#45;&gt;bcl_convert_samplesheet_check_scatter_step -->
<g id="edge9" class="edge">
<title>bclconvert_run_input_directory&#45;&gt;bcl_convert_samplesheet_check_scatter_step</title>
<path fill="none" stroke="black" d="M283.16,-701.71C308.48,-679.54 352.04,-641.38 380.43,-616.52"/>
<polygon fill="black" stroke="black" points="382.79,-619.1 388.01,-609.88 378.18,-613.84 382.79,-619.1"/>
</g>
<!-- bclconvert_run_configurations -->
<g id="node2" class="node">
<title>bclconvert_run_configurations</title>
<polygon fill="#94ddf4" stroke="black" points="401,-701.87 401,-738.87 633,-738.87 633,-701.87 401,-701.87"/>
<text text-anchor="middle" x="517" y="-716.67" font-family="Times,serif" font-size="14.00">bclconvert_run_configurations</text>
</g>
<!-- get_bcl_convert_run_configuration_object_step -->
<g id="node6" class="node">
<title>get_bcl_convert_run_configuration_object_step</title>
<polygon fill="lightgoldenrodyellow" stroke="black" points="219,-449.87 219,-486.87 779,-486.87 779,-449.87 219,-449.87"/>
<text text-anchor="middle" x="499" y="-464.67" font-family="Times,serif" font-size="14.00">add&#45;run&#45;info&#45;and&#45;samplesheet&#45;to&#45;bclconvert&#45;run&#45;configuration v(2.0.0&#45;&#45;4.0.3)</text>
</g>
<!-- bclconvert_run_configurations&#45;&gt;get_bcl_convert_run_configuration_object_step -->
<g id="edge10" class="edge">
<title>bclconvert_run_configurations&#45;&gt;get_bcl_convert_run_configuration_object_step</title>
<path fill="none" stroke="black" d="M531.4,-701.44C551.7,-673.93 584.67,-619.52 570,-572.37 560.75,-542.66 539.62,-513.95 522.8,-494.42"/>
<polygon fill="black" stroke="black" points="525.39,-492.06 516.14,-486.89 520.14,-496.7 525.39,-492.06"/>
</g>
<!-- bclconvert_run_configurations&#45;&gt;bcl_convert_samplesheet_check_scatter_step -->
<g id="edge11" class="edge">
<title>bclconvert_run_configurations&#45;&gt;bcl_convert_samplesheet_check_scatter_step</title>
<path fill="none" stroke="black" d="M501.84,-701.71C483.05,-679.82 450.9,-642.36 429.55,-617.48"/>
<polygon fill="black" stroke="black" points="432.2,-615.19 423.03,-609.88 426.88,-619.75 432.2,-615.19"/>
</g>
<!-- fastq_list_rows -->
<g id="node3" class="node">
<title>fastq_list_rows</title>
<polygon fill="#94ddf4" stroke="black" points="358.5,-78.87 358.5,-115.87 481.5,-115.87 481.5,-78.87 358.5,-78.87"/>
<text text-anchor="middle" x="420" y="-93.67" font-family="Times,serif" font-size="14.00">fastq_list_rows</text>
</g>
<!-- fastq_output_directories -->
<g id="node4" class="node">
<title>fastq_output_directories</title>
<polygon fill="#94ddf4" stroke="black" points="16.5,-78.87 16.5,-115.87 207.5,-115.87 207.5,-78.87 16.5,-78.87"/>
<text text-anchor="middle" x="112" y="-93.67" font-family="Times,serif" font-size="14.00">fastq_output_directories</text>
</g>
<!-- samplesheets -->
<g id="node5" class="node">
<title>samplesheets</title>
<polygon fill="#94ddf4" stroke="black" points="226,-78.87 226,-115.87 340,-115.87 340,-78.87 226,-78.87"/>
<text text-anchor="middle" x="283" y="-93.67" font-family="Times,serif" font-size="14.00">samplesheets</text>
</g>
<!-- get_bcl_convert_run_configuration_object_step&#45;&gt;bcl_convert_scatter_step -->
<g id="edge1" class="edge">
<title>get_bcl_convert_run_configuration_object_step&#45;&gt;bcl_convert_scatter_step</title>
<path fill="none" stroke="black" d="M462.63,-449.76C417.68,-428 341.19,-390.97 292.43,-367.37"/>
<polygon fill="black" stroke="black" points="293.89,-364.18 283.36,-362.98 290.84,-370.49 293.89,-364.18"/>
</g>
<!-- bcl_convert_scatter_step&#45;&gt;fastq_output_directories -->
<g id="edge3" class="edge">
<title>bcl_convert_scatter_step&#45;&gt;fastq_output_directories</title>
<path fill="none" stroke="black" d="M237.29,-325.75C213.95,-283.39 154.56,-175.61 126.76,-125.17"/>
<polygon fill="black" stroke="black" points="129.69,-123.23 121.8,-116.16 123.56,-126.61 129.69,-123.23"/>
</g>
<!-- bcl_convert_scatter_step&#45;&gt;samplesheets -->
<g id="edge4" class="edge">
<title>bcl_convert_scatter_step&#45;&gt;samplesheets</title>
<path fill="none" stroke="black" d="M249.17,-325.86C252.53,-299.03 259.31,-246.14 266,-201.37 269.81,-175.88 274.63,-146.93 278.17,-126.22"/>
<polygon fill="black" stroke="black" points="281.64,-126.66 279.89,-116.21 274.74,-125.47 281.64,-126.66"/>
</g>
<!-- flatten_fastq_list_rows_array_step -->
<g id="node8" class="node">
<title>flatten_fastq_list_rows_array_step</title>
<polygon fill="lightgoldenrodyellow" stroke="black" points="274.5,-201.87 274.5,-238.87 565.5,-238.87 565.5,-201.87 274.5,-201.87"/>
<text text-anchor="middle" x="420" y="-216.67" font-family="Times,serif" font-size="14.00">flatten&#45;array&#45;fastq&#45;list&#45;schema v(1.0.0)</text>
</g>
<!-- bcl_convert_scatter_step&#45;&gt;flatten_fastq_list_rows_array_step -->
<g id="edge2" class="edge">
<title>bcl_convert_scatter_step&#45;&gt;flatten_fastq_list_rows_array_step</title>
<path fill="none" stroke="black" d="M272.16,-325.63C302.35,-304.34 353.09,-268.56 386.56,-244.95"/>
<polygon fill="black" stroke="black" points="388.94,-247.56 395.09,-238.94 384.91,-241.84 388.94,-247.56"/>
</g>
<!-- flatten_fastq_list_rows_array_step&#45;&gt;fastq_list_rows -->
<g id="edge5" class="edge">
<title>flatten_fastq_list_rows_array_step&#45;&gt;fastq_list_rows</title>
<path fill="none" stroke="black" d="M420,-201.78C420,-181.97 420,-149.53 420,-126.27"/>
<polygon fill="black" stroke="black" points="423.5,-125.99 420,-115.99 416.5,-125.99 423.5,-125.99"/>
</g>
<!-- bcl_convert_samplesheet_check_scatter_step&#45;&gt;get_bcl_convert_run_configuration_object_step -->
<g id="edge6" class="edge">
<title>bcl_convert_samplesheet_check_scatter_step&#45;&gt;get_bcl_convert_run_configuration_object_step</title>
<path fill="none" stroke="black" d="M416.3,-572.78C429.57,-552.26 454.97,-518.17 474.28,-494.78"/>
<polygon fill="black" stroke="black" points="477.07,-496.9 480.82,-486.99 471.71,-492.39 477.07,-496.9"/>
</g>
<!-- bcl_convert_samplesheet_check_scatter_step&#45;&gt;get_bcl_convert_run_configuration_object_step -->
<g id="edge7" class="edge">
<title>bcl_convert_samplesheet_check_scatter_step&#45;&gt;get_bcl_convert_run_configuration_object_step</title>
<path fill="none" stroke="black" d="M426.16,-572.78C443.61,-552.44 469.18,-518.76 485.09,-495.39"/>
<polygon fill="black" stroke="black" points="488.06,-497.25 490.68,-486.99 482.23,-493.38 488.06,-497.25"/>
</g>
<!-- \n -->
<g id="node10" class="node">
<title>\n</title>
<ellipse fill="none" stroke="black" cx="678" cy="-720.37" rx="27" ry="18"/>
</g>
</g>
</svg>
