<?xml version="1.0" encoding="UTF-8" standalone="no"?>
<!DOCTYPE svg PUBLIC "-//W3C//DTD SVG 1.1//EN"
 "http://www.w3.org/Graphics/SVG/1.1/DTD/svg11.dtd">
<!-- Generated by graphviz version 2.43.0 (0)
 -->
<!-- Title: G Pages: 1 -->
<svg width="8090pt" height="2004pt"
 viewBox="0.00 0.00 8090.00 2004.25" xmlns="http://www.w3.org/2000/svg" xmlns:xlink="http://www.w3.org/1999/xlink">
<g id="graph0" class="graph" transform="scale(1 1) rotate(0) translate(4 2000.25)">
<title>G</title>
<polygon fill="#eeeeee" stroke="transparent" points="-4,4 -4,-2000.25 8086,-2000.25 8086,4 -4,4"/>
<g id="clust1" class="cluster">
<title>cluster_inputs</title>
<polygon fill="#eeeeee" stroke="black" stroke-dasharray="5,2" points="8,-1462.22 8,-1945.39 8074,-1945.39 8074,-1462.22 8,-1462.22"/>
<text text-anchor="middle" x="8007.5" y="-1470.02" font-family="Times,serif" font-size="14.00">Workflow Inputs</text>
</g>
<g id="clust2" class="cluster">
<title>cluster_outputs</title>
<polygon fill="#eeeeee" stroke="black" stroke-dasharray="5,2" points="3250,-50.86 3250,-534.03 3906,-534.03 3906,-50.86 3250,-50.86"/>
<text text-anchor="middle" x="3833.5" y="-58.66" font-family="Times,serif" font-size="14.00">Workflow Outputs</text>
</g>
<!-- run_dragen_alignment_step -->
<g id="node1" class="node">
<title>run_dragen_alignment_step</title>
<polygon fill="lightgoldenrodyellow" stroke="black" points="3729.5,-1275.86 3729.5,-1311.86 3932.5,-1311.86 3932.5,-1275.86 3729.5,-1275.86"/>
<text text-anchor="middle" x="3831" y="-1290.16" font-family="Times,serif" font-size="14.00">dragen&#45;alignment v(4.3.6)</text>
</g>
<!-- dragen_qc_step -->
<g id="node2" class="node">
<title>dragen_qc_step</title>
<polygon fill="lightgoldenrodyellow" stroke="black" points="2.5,-811.86 2.5,-847.86 141.5,-847.86 141.5,-811.86 2.5,-811.86"/>
<text text-anchor="middle" x="72" y="-826.16" font-family="Times,serif" font-size="14.00">multiqc v(1.25.0)</text>
</g>
<!-- run_dragen_alignment_step&#45;&gt;dragen_qc_step -->
<g id="edge1" class="edge">
<title>run_dragen_alignment_step&#45;&gt;dragen_qc_step</title>
<path fill="none" stroke="black" d="M3729.48,-1280.38C3187,-1213.71 636.62,-900.25 151.72,-840.66"/>
<polygon fill="black" stroke="black" points="152.02,-837.17 141.67,-839.42 151.17,-844.12 152.02,-837.17"/>
</g>
<!-- dragen_alignment_output_directory -->
<g id="node60" class="node">
<title>dragen_alignment_output_directory</title>
<polygon fill="#94ddf4" stroke="black" points="3474,-347.86 3474,-383.86 3746,-383.86 3746,-347.86 3474,-347.86"/>
<text text-anchor="middle" x="3610" y="-362.16" font-family="Times,serif" font-size="14.00">dragen_alignment_output_directory</text>
</g>
<!-- run_dragen_alignment_step&#45;&gt;dragen_alignment_output_directory -->
<g id="edge63" class="edge">
<title>run_dragen_alignment_step&#45;&gt;dragen_alignment_output_directory</title>
<path fill="none" stroke="black" d="M3826.88,-1275.6C3799.99,-1162.91 3649.52,-532.46 3616.43,-393.82"/>
<polygon fill="black" stroke="black" points="3619.82,-392.92 3614.09,-384.01 3613.01,-394.55 3619.82,-392.92"/>
</g>
<!-- dragen_bam_out -->
<g id="node61" class="node">
<title>dragen_bam_out</title>
<polygon fill="#94ddf4" stroke="black" points="3764,-347.86 3764,-383.86 3898,-383.86 3898,-347.86 3764,-347.86"/>
<text text-anchor="middle" x="3831" y="-362.16" font-family="Times,serif" font-size="14.00">dragen_bam_out</text>
</g>
<!-- run_dragen_alignment_step&#45;&gt;dragen_bam_out -->
<g id="edge64" class="edge">
<title>run_dragen_alignment_step&#45;&gt;dragen_bam_out</title>
<path fill="none" stroke="black" d="M3831,-1275.6C3831,-1163.02 3831,-533.72 3831,-394.24"/>
<polygon fill="black" stroke="black" points="3834.5,-394.01 3831,-384.01 3827.5,-394.01 3834.5,-394.01"/>
</g>
<!-- multiqc_output_directory -->
<g id="node62" class="node">
<title>multiqc_output_directory</title>
<polygon fill="#94ddf4" stroke="black" points="3258.5,-347.86 3258.5,-383.86 3455.5,-383.86 3455.5,-347.86 3258.5,-347.86"/>
<text text-anchor="middle" x="3357" y="-362.16" font-family="Times,serif" font-size="14.00">multiqc_output_directory</text>
</g>
<!-- dragen_qc_step&#45;&gt;multiqc_output_directory -->
<g id="edge65" class="edge">
<title>dragen_qc_step&#45;&gt;multiqc_output_directory</title>
<path fill="none" stroke="black" d="M141.75,-819.05C560.05,-760.22 2735.08,-454.33 3248.38,-382.14"/>
<polygon fill="black" stroke="black" points="3248.96,-385.59 3258.37,-380.73 3247.98,-378.66 3248.96,-385.59"/>
</g>
<!-- output_prefix -->
<g id="node3" class="node">
<title>output_prefix</title>
<polygon fill="#94ddf4" stroke="black" points="16,-1758.86 16,-1794.86 128,-1794.86 128,-1758.86 16,-1758.86"/>
<text text-anchor="middle" x="72" y="-1773.16" font-family="Times,serif" font-size="14.00">output_prefix</text>
</g>
<!-- output_prefix&#45;&gt;run_dragen_alignment_step -->
<g id="edge5" class="edge">
<title>output_prefix&#45;&gt;run_dragen_alignment_step</title>
<path fill="none" stroke="black" d="M82.4,-1758.55C93.5,-1747.69 111.01,-1734.45 129,-1727.36 809,-1459.57 3175.19,-1327.14 3719,-1300.12"/>
<polygon fill="black" stroke="black" points="3719.38,-1303.61 3729.2,-1299.62 3719.04,-1296.61 3719.38,-1303.61"/>
</g>
<!-- output_prefix&#45;&gt;run_dragen_alignment_step -->
<g id="edge6" class="edge">
<title>output_prefix&#45;&gt;run_dragen_alignment_step</title>
<path fill="none" stroke="black" d="M97.4,-1758.79C111.25,-1747.89 128.87,-1734.5 147,-1727.36 824.76,-1460.45 3177.64,-1328.01 3719.24,-1300.39"/>
<polygon fill="black" stroke="black" points="3719.59,-1303.88 3729.4,-1299.87 3719.23,-1296.89 3719.59,-1303.88"/>
</g>
<!-- output_prefix&#45;&gt;dragen_qc_step -->
<g id="edge2" class="edge">
<title>output_prefix&#45;&gt;dragen_qc_step</title>
<path fill="none" stroke="black" d="M68.02,-1758.65C55.65,-1644.67 55.33,-998.81 67.08,-857.98"/>
<polygon fill="black" stroke="black" points="70.57,-858.3 68.03,-848.02 63.6,-857.64 70.57,-858.3"/>
</g>
<!-- output_prefix&#45;&gt;dragen_qc_step -->
<g id="edge3" class="edge">
<title>output_prefix&#45;&gt;dragen_qc_step</title>
<path fill="none" stroke="black" d="M72,-1758.65C72,-1644.79 72,-1000.11 72,-858.4"/>
<polygon fill="black" stroke="black" points="75.5,-858.02 72,-848.02 68.5,-858.02 75.5,-858.02"/>
</g>
<!-- output_prefix&#45;&gt;dragen_qc_step -->
<g id="edge4" class="edge">
<title>output_prefix&#45;&gt;dragen_qc_step</title>
<path fill="none" stroke="black" d="M75.98,-1758.65C88.35,-1644.67 88.67,-998.81 76.92,-857.98"/>
<polygon fill="black" stroke="black" points="80.4,-857.64 75.97,-848.02 73.43,-858.3 80.4,-857.64"/>
</g>
<!-- aln_min_score -->
<g id="node4" class="node">
<title>aln_min_score</title>
<polygon fill="#94ddf4" stroke="black" points="7857.5,-1758.86 7857.5,-1794.86 7974.5,-1794.86 7974.5,-1758.86 7857.5,-1758.86"/>
<text text-anchor="middle" x="7916" y="-1773.16" font-family="Times,serif" font-size="14.00">aln_min_score</text>
</g>
<!-- aln_min_score&#45;&gt;run_dragen_alignment_step -->
<g id="edge7" class="edge">
<title>aln_min_score&#45;&gt;run_dragen_alignment_step</title>
<path fill="none" stroke="black" d="M7897.62,-1758.74C7884.74,-1747.81 7866.57,-1734.42 7848,-1727.36 7102.92,-1444.01 4514.32,-1322.87 3943.11,-1299.27"/>
<polygon fill="black" stroke="black" points="3942.95,-1295.76 3932.82,-1298.84 3942.66,-1302.75 3942.95,-1295.76"/>
</g>
<!-- alt_aware -->
<g id="node5" class="node">
<title>alt_aware</title>
<polygon fill="#94ddf4" stroke="black" points="7753,-1758.86 7753,-1794.86 7839,-1794.86 7839,-1758.86 7753,-1758.86"/>
<text text-anchor="middle" x="7796" y="-1773.16" font-family="Times,serif" font-size="14.00">alt_aware</text>
</g>
<!-- alt_aware&#45;&gt;run_dragen_alignment_step -->
<g id="edge8" class="edge">
<title>alt_aware&#45;&gt;run_dragen_alignment_step</title>
<path fill="none" stroke="black" d="M7782.49,-1758.5C7772.98,-1747.61 7759.26,-1734.36 7744,-1727.36 7038.85,-1403.68 4506.63,-1313.94 3942.8,-1297.78"/>
<polygon fill="black" stroke="black" points="3942.73,-1294.28 3932.64,-1297.5 3942.53,-1301.28 3942.73,-1294.28"/>
</g>
<!-- ann_sj_max_indel -->
<g id="node6" class="node">
<title>ann_sj_max_indel</title>
<polygon fill="#94ddf4" stroke="black" points="7595,-1758.86 7595,-1794.86 7735,-1794.86 7735,-1758.86 7595,-1758.86"/>
<text text-anchor="middle" x="7665" y="-1773.16" font-family="Times,serif" font-size="14.00">ann_sj_max_indel</text>
</g>
<!-- ann_sj_max_indel&#45;&gt;run_dragen_alignment_step -->
<g id="edge9" class="edge">
<title>ann_sj_max_indel&#45;&gt;run_dragen_alignment_step</title>
<path fill="none" stroke="black" d="M7643.17,-1758.83C7628,-1747.94 7606.84,-1734.56 7586,-1727.36 6884.37,-1484.97 4490.12,-1333.21 3942.98,-1301.21"/>
<polygon fill="black" stroke="black" points="3942.9,-1297.7 3932.72,-1300.61 3942.5,-1304.69 3942.9,-1297.7"/>
</g>
<!-- annotation_file -->
<g id="node7" class="node">
<title>annotation_file</title>
<polygon fill="#94ddf4" stroke="black" points="7455,-1758.86 7455,-1794.86 7577,-1794.86 7577,-1758.86 7455,-1758.86"/>
<text text-anchor="middle" x="7516" y="-1773.16" font-family="Times,serif" font-size="14.00">annotation_file</text>
</g>
<!-- annotation_file&#45;&gt;run_dragen_alignment_step -->
<g id="edge10" class="edge">
<title>annotation_file&#45;&gt;run_dragen_alignment_step</title>
<path fill="none" stroke="black" d="M7496.96,-1758.82C7483.65,-1747.93 7464.94,-1734.54 7446,-1727.36 6778.92,-1474.37 4477.29,-1331.25 3942.59,-1300.95"/>
<polygon fill="black" stroke="black" points="3942.74,-1297.46 3932.56,-1300.39 3942.34,-1304.45 3942.74,-1297.46"/>
</g>
<!-- dedup_min_qual -->
<g id="node8" class="node">
<title>dedup_min_qual</title>
<polygon fill="#94ddf4" stroke="black" points="7305,-1758.86 7305,-1794.86 7437,-1794.86 7437,-1758.86 7305,-1758.86"/>
<text text-anchor="middle" x="7371" y="-1773.16" font-family="Times,serif" font-size="14.00">dedup_min_qual</text>
</g>
<!-- dedup_min_qual&#45;&gt;run_dragen_alignment_step -->
<g id="edge11" class="edge">
<title>dedup_min_qual&#45;&gt;run_dragen_alignment_step</title>
<path fill="none" stroke="black" d="M7350.07,-1758.64C7335.74,-1747.81 7315.82,-1734.57 7296,-1727.36 6655.11,-1494.07 4464.02,-1336.76 3942.88,-1302.08"/>
<polygon fill="black" stroke="black" points="3942.94,-1298.58 3932.73,-1301.41 3942.48,-1305.57 3942.94,-1298.58"/>
</g>
<!-- edit_chain_limit -->
<g id="node9" class="node">
<title>edit_chain_limit</title>
<polygon fill="#94ddf4" stroke="black" points="7157.5,-1758.86 7157.5,-1794.86 7286.5,-1794.86 7286.5,-1758.86 7157.5,-1758.86"/>
<text text-anchor="middle" x="7222" y="-1773.16" font-family="Times,serif" font-size="14.00">edit_chain_limit</text>
</g>
<!-- edit_chain_limit&#45;&gt;run_dragen_alignment_step -->
<g id="edge12" class="edge">
<title>edit_chain_limit&#45;&gt;run_dragen_alignment_step</title>
<path fill="none" stroke="black" d="M7201.38,-1758.67C7187.25,-1747.85 7167.59,-1734.62 7148,-1727.36 6537.37,-1501.06 4450.95,-1339.33 3943.11,-1302.72"/>
<polygon fill="black" stroke="black" points="3943.07,-1299.21 3932.84,-1301.98 3942.57,-1306.19 3943.07,-1299.21"/>
</g>
<!-- edit_mode -->
<g id="node10" class="node">
<title>edit_mode</title>
<polygon fill="#94ddf4" stroke="black" points="7049,-1758.86 7049,-1794.86 7139,-1794.86 7139,-1758.86 7049,-1758.86"/>
<text text-anchor="middle" x="7094" y="-1773.16" font-family="Times,serif" font-size="14.00">edit_mode</text>
</g>
<!-- edit_mode&#45;&gt;run_dragen_alignment_step -->
<g id="edge13" class="edge">
<title>edit_mode&#45;&gt;run_dragen_alignment_step</title>
<path fill="none" stroke="black" d="M7079.78,-1758.62C7069.82,-1747.79 7055.56,-1734.55 7040,-1727.36 6468.73,-1463.37 4442.1,-1330.32 3942.79,-1301.1"/>
<polygon fill="black" stroke="black" points="3942.88,-1297.6 3932.7,-1300.52 3942.47,-1304.59 3942.88,-1297.6"/>
</g>
<!-- edit_read_len -->
<g id="node11" class="node">
<title>edit_read_len</title>
<polygon fill="#94ddf4" stroke="black" points="6919,-1758.86 6919,-1794.86 7031,-1794.86 7031,-1758.86 6919,-1758.86"/>
<text text-anchor="middle" x="6975" y="-1773.16" font-family="Times,serif" font-size="14.00">edit_read_len</text>
</g>
<!-- edit_read_len&#45;&gt;run_dragen_alignment_step -->
<g id="edge14" class="edge">
<title>edit_read_len&#45;&gt;run_dragen_alignment_step</title>
<path fill="none" stroke="black" d="M6957.22,-1758.68C6944.95,-1747.88 6927.71,-1734.65 6910,-1727.36 6353.15,-1498.27 4428.47,-1340 3942.92,-1303.1"/>
<polygon fill="black" stroke="black" points="3942.99,-1299.6 3932.75,-1302.33 3942.46,-1306.58 3942.99,-1299.6"/>
</g>
<!-- edit_seed_num -->
<g id="node12" class="node">
<title>edit_seed_num</title>
<polygon fill="#94ddf4" stroke="black" points="6779,-1758.86 6779,-1794.86 6901,-1794.86 6901,-1758.86 6779,-1758.86"/>
<text text-anchor="middle" x="6840" y="-1773.16" font-family="Times,serif" font-size="14.00">edit_seed_num</text>
</g>
<!-- edit_seed_num&#45;&gt;run_dragen_alignment_step -->
<g id="edge15" class="edge">
<title>edit_seed_num&#45;&gt;run_dragen_alignment_step</title>
<path fill="none" stroke="black" d="M6820.61,-1758.75C6807.29,-1747.97 6788.7,-1734.74 6770,-1727.36 6236.96,-1516.92 4414.53,-1345.91 3943.07,-1304.46"/>
<polygon fill="black" stroke="black" points="3943.13,-1300.96 3932.86,-1303.57 3942.52,-1307.93 3943.13,-1300.96"/>
</g>
<!-- en_alt_hap_aln -->
<g id="node13" class="node">
<title>en_alt_hap_aln</title>
<polygon fill="#94ddf4" stroke="black" points="6639.5,-1758.86 6639.5,-1794.86 6760.5,-1794.86 6760.5,-1758.86 6639.5,-1758.86"/>
<text text-anchor="middle" x="6700" y="-1773.16" font-family="Times,serif" font-size="14.00">en_alt_hap_aln</text>
</g>
<!-- en_alt_hap_aln&#45;&gt;run_dragen_alignment_step -->
<g id="edge16" class="edge">
<title>en_alt_hap_aln&#45;&gt;run_dragen_alignment_step</title>
<path fill="none" stroke="black" d="M6680.91,-1758.79C6667.79,-1748.02 6649.47,-1734.8 6631,-1727.36 5645.69,-1330.43 4330.16,-1295.41 3942.75,-1294.16"/>
<polygon fill="black" stroke="black" points="3942.67,-1290.66 3932.67,-1294.14 3942.66,-1297.66 3942.67,-1290.66"/>
</g>
<!-- en_chimeric_aln -->
<g id="node14" class="node">
<title>en_chimeric_aln</title>
<polygon fill="#94ddf4" stroke="black" points="6490.5,-1758.86 6490.5,-1794.86 6621.5,-1794.86 6621.5,-1758.86 6490.5,-1758.86"/>
<text text-anchor="middle" x="6556" y="-1773.16" font-family="Times,serif" font-size="14.00">en_chimeric_aln</text>
</g>
<!-- en_chimeric_aln&#45;&gt;run_dragen_alignment_step -->
<g id="edge17" class="edge">
<title>en_chimeric_aln&#45;&gt;run_dragen_alignment_step</title>
<path fill="none" stroke="black" d="M6534.98,-1758.64C6520.85,-1747.95 6501.33,-1734.88 6482,-1727.36 5548.99,-1364.47 4316.55,-1306.06 3942.99,-1296.66"/>
<polygon fill="black" stroke="black" points="3942.81,-1293.16 3932.72,-1296.41 3942.63,-1300.16 3942.81,-1293.16"/>
</g>
<!-- enable_duplicate_marking -->
<g id="node15" class="node">
<title>enable_duplicate_marking</title>
<polygon fill="#94ddf4" stroke="black" points="6269.5,-1758.86 6269.5,-1794.86 6472.5,-1794.86 6472.5,-1758.86 6269.5,-1758.86"/>
<text text-anchor="middle" x="6371" y="-1773.16" font-family="Times,serif" font-size="14.00">enable_duplicate_marking</text>
</g>
<!-- enable_duplicate_marking&#45;&gt;run_dragen_alignment_step -->
<g id="edge18" class="edge">
<title>enable_duplicate_marking&#45;&gt;run_dragen_alignment_step</title>
<path fill="none" stroke="black" d="M6337.61,-1758.63C6316.21,-1748.22 6287.55,-1735.45 6261,-1727.36 5390.34,-1462.13 4291.62,-1339.29 3942.66,-1305.14"/>
<polygon fill="black" stroke="black" points="3942.85,-1301.64 3932.55,-1304.16 3942.17,-1308.61 3942.85,-1301.64"/>
</g>
<!-- enable_map_align -->
<g id="node16" class="node">
<title>enable_map_align</title>
<polygon fill="#94ddf4" stroke="black" points="6108.5,-1758.86 6108.5,-1794.86 6251.5,-1794.86 6251.5,-1758.86 6108.5,-1758.86"/>
<text text-anchor="middle" x="6180" y="-1773.16" font-family="Times,serif" font-size="14.00">enable_map_align</text>
</g>
<!-- enable_map_align&#45;&gt;run_dragen_alignment_step -->
<g id="edge19" class="edge">
<title>enable_map_align&#45;&gt;run_dragen_alignment_step</title>
<path fill="none" stroke="black" d="M6156.65,-1758.63C6141.28,-1748.09 6120.32,-1735.16 6100,-1727.36 5309.64,-1423.82 4279.67,-1326.78 3942.86,-1302.09"/>
<polygon fill="black" stroke="black" points="3942.84,-1298.58 3932.62,-1301.34 3942.34,-1305.56 3942.84,-1298.58"/>
</g>
<!-- enable_map_align_output -->
<g id="node17" class="node">
<title>enable_map_align_output</title>
<polygon fill="#94ddf4" stroke="black" points="5893.5,-1758.86 5893.5,-1794.86 6090.5,-1794.86 6090.5,-1758.86 5893.5,-1758.86"/>
<text text-anchor="middle" x="5992" y="-1773.16" font-family="Times,serif" font-size="14.00">enable_map_align_output</text>
</g>
<!-- enable_map_align_output&#45;&gt;run_dragen_alignment_step -->
<g id="edge20" class="edge">
<title>enable_map_align_output&#45;&gt;run_dragen_alignment_step</title>
<path fill="none" stroke="black" d="M5959.01,-1758.65C5938.23,-1748.37 5910.58,-1735.74 5885,-1727.36 5163.2,-1490.92 4255.22,-1352.8 3942.67,-1309.62"/>
<polygon fill="black" stroke="black" points="3943.08,-1306.15 3932.7,-1308.25 3942.12,-1313.08 3943.08,-1306.15"/>
</g>
<!-- enable_rna -->
<g id="node18" class="node">
<title>enable_rna</title>
<polygon fill="#94ddf4" stroke="black" points="5780.5,-1758.86 5780.5,-1794.86 5875.5,-1794.86 5875.5,-1758.86 5780.5,-1758.86"/>
<text text-anchor="middle" x="5828" y="-1773.16" font-family="Times,serif" font-size="14.00">enable_rna</text>
</g>
<!-- enable_rna&#45;&gt;run_dragen_alignment_step -->
<g id="edge21" class="edge">
<title>enable_rna&#45;&gt;run_dragen_alignment_step</title>
<path fill="none" stroke="black" d="M5812.12,-1758.6C5801.47,-1748.05 5786.58,-1735.12 5771,-1727.36 5128.89,-1407.49 4250.32,-1321.92 3942.77,-1301.05"/>
<polygon fill="black" stroke="black" points="3942.72,-1297.54 3932.51,-1300.37 3942.25,-1304.53 3942.72,-1297.54"/>
</g>
<!-- enable_rna_quantification -->
<g id="node19" class="node">
<title>enable_rna_quantification</title>
<polygon fill="#94ddf4" stroke="black" points="5562,-1758.86 5562,-1794.86 5762,-1794.86 5762,-1758.86 5562,-1758.86"/>
<text text-anchor="middle" x="5662" y="-1773.16" font-family="Times,serif" font-size="14.00">enable_rna_quantification</text>
</g>
<!-- enable_rna_quantification&#45;&gt;run_dragen_alignment_step -->
<g id="edge22" class="edge">
<title>enable_rna_quantification&#45;&gt;run_dragen_alignment_step</title>
<path fill="none" stroke="black" d="M5627.76,-1758.79C5606.59,-1748.71 5578.65,-1736.21 5553,-1727.36 4951.4,-1519.71 4200.08,-1365.68 3931.88,-1313.85"/>
<polygon fill="black" stroke="black" points="3932.25,-1310.35 3921.77,-1311.9 3930.93,-1317.23 3932.25,-1310.35"/>
</g>
<!-- enable_rrna_filter -->
<g id="node20" class="node">
<title>enable_rrna_filter</title>
<polygon fill="#94ddf4" stroke="black" points="5400.5,-1758.86 5400.5,-1794.86 5543.5,-1794.86 5543.5,-1758.86 5400.5,-1758.86"/>
<text text-anchor="middle" x="5472" y="-1773.16" font-family="Times,serif" font-size="14.00">enable_rrna_filter</text>
</g>
<!-- enable_rrna_filter&#45;&gt;run_dragen_alignment_step -->
<g id="edge23" class="edge">
<title>enable_rrna_filter&#45;&gt;run_dragen_alignment_step</title>
<path fill="none" stroke="black" d="M5447.73,-1758.73C5432.34,-1748.49 5411.68,-1735.86 5392,-1727.36 4868.13,-1501.14 4194.01,-1361.81 3936.95,-1313.76"/>
<polygon fill="black" stroke="black" points="3937.35,-1310.27 3926.88,-1311.88 3936.07,-1317.15 3937.35,-1310.27"/>
</g>
<!-- enable_sort -->
<g id="node21" class="node">
<title>enable_sort</title>
<polygon fill="#94ddf4" stroke="black" points="5283.5,-1758.86 5283.5,-1794.86 5382.5,-1794.86 5382.5,-1758.86 5283.5,-1758.86"/>
<text text-anchor="middle" x="5333" y="-1773.16" font-family="Times,serif" font-size="14.00">enable_sort</text>
</g>
<!-- enable_sort&#45;&gt;run_dragen_alignment_step -->
<g id="edge24" class="edge">
<title>enable_sort&#45;&gt;run_dragen_alignment_step</title>
<path fill="none" stroke="black" d="M5316.01,-1758.77C5304.88,-1748.42 5289.56,-1735.65 5274,-1727.36 4813.29,-1481.85 4193.74,-1356.25 3943.15,-1312.83"/>
<polygon fill="black" stroke="black" points="3943.39,-1309.32 3932.94,-1311.08 3942.2,-1316.22 3943.39,-1309.32"/>
</g>
<!-- fastq_list -->
<g id="node22" class="node">
<title>fastq_list</title>
<polygon fill="#94ddf4" stroke="black" points="5183,-1758.86 5183,-1794.86 5265,-1794.86 5265,-1758.86 5183,-1758.86"/>
<text text-anchor="middle" x="5224" y="-1773.16" font-family="Times,serif" font-size="14.00">fastq_list</text>
</g>
<!-- fastq_list&#45;&gt;run_dragen_alignment_step -->
<g id="edge25" class="edge">
<title>fastq_list&#45;&gt;run_dragen_alignment_step</title>
<path fill="none" stroke="black" d="M5209.8,-1758.53C5200.55,-1748.22 5187.68,-1735.58 5174,-1727.36 4758.42,-1477.76 4182.75,-1355.6 3942.88,-1313.01"/>
<polygon fill="black" stroke="black" points="3943.21,-1309.51 3932.76,-1311.22 3942,-1316.4 3943.21,-1309.51"/>
</g>
<!-- fastq_list_rows -->
<g id="node23" class="node">
<title>fastq_list_rows</title>
<polygon fill="#94ddf4" stroke="black" points="5041.5,-1758.86 5041.5,-1794.86 5164.5,-1794.86 5164.5,-1758.86 5041.5,-1758.86"/>
<text text-anchor="middle" x="5103" y="-1773.16" font-family="Times,serif" font-size="14.00">fastq_list_rows</text>
</g>
<!-- fastq_list_rows&#45;&gt;run_dragen_alignment_step -->
<g id="edge26" class="edge">
<title>fastq_list_rows&#45;&gt;run_dragen_alignment_step</title>
<path fill="none" stroke="black" d="M5081.55,-1758.81C5068.14,-1748.72 5050.22,-1736.23 5033,-1727.36 4628.22,-1518.86 4099.61,-1366.61 3906.12,-1314.49"/>
<polygon fill="black" stroke="black" points="3906.9,-1311.08 3896.33,-1311.87 3905.08,-1317.84 3906.9,-1311.08"/>
</g>
<!-- gap_ext_pen -->
<g id="node24" class="node">
<title>gap_ext_pen</title>
<polygon fill="#94ddf4" stroke="black" points="4918.5,-1758.86 4918.5,-1794.86 5023.5,-1794.86 5023.5,-1758.86 4918.5,-1758.86"/>
<text text-anchor="middle" x="4971" y="-1773.16" font-family="Times,serif" font-size="14.00">gap_ext_pen</text>
</g>
<!-- gap_ext_pen&#45;&gt;run_dragen_alignment_step -->
<g id="edge27" class="edge">
<title>gap_ext_pen&#45;&gt;run_dragen_alignment_step</title>
<path fill="none" stroke="black" d="M4952.53,-1758.83C4940.94,-1748.76 4925.32,-1736.27 4910,-1727.36 4552.31,-1519.47 4075.57,-1367.19 3899.82,-1314.76"/>
<polygon fill="black" stroke="black" points="3900.76,-1311.39 3890.18,-1311.9 3898.77,-1318.1 3900.76,-1311.39"/>
</g>
<!-- gap_open_pen -->
<g id="node25" class="node">
<title>gap_open_pen</title>
<polygon fill="#94ddf4" stroke="black" points="4783.5,-1758.86 4783.5,-1794.86 4900.5,-1794.86 4900.5,-1758.86 4783.5,-1758.86"/>
<text text-anchor="middle" x="4842" y="-1773.16" font-family="Times,serif" font-size="14.00">gap_open_pen</text>
</g>
<!-- gap_open_pen&#45;&gt;run_dragen_alignment_step -->
<g id="edge28" class="edge">
<title>gap_open_pen&#45;&gt;run_dragen_alignment_step</title>
<path fill="none" stroke="black" d="M4820.71,-1758.79C4807.89,-1748.94 4791,-1736.69 4775,-1727.36 4452.36,-1539.15 4033.59,-1372.28 3885.66,-1315.5"/>
<polygon fill="black" stroke="black" points="3886.9,-1312.23 3876.31,-1311.92 3884.4,-1318.76 3886.9,-1312.23"/>
</g>
<!-- generate_md_tags -->
<g id="node26" class="node">
<title>generate_md_tags</title>
<polygon fill="#94ddf4" stroke="black" points="4618.5,-1758.86 4618.5,-1794.86 4765.5,-1794.86 4765.5,-1758.86 4618.5,-1758.86"/>
<text text-anchor="middle" x="4692" y="-1773.16" font-family="Times,serif" font-size="14.00">generate_md_tags</text>
</g>
<!-- generate_md_tags&#45;&gt;run_dragen_alignment_step -->
<g id="edge29" class="edge">
<title>generate_md_tags&#45;&gt;run_dragen_alignment_step</title>
<path fill="none" stroke="black" d="M4662.9,-1758.65C4647.01,-1749.31 4626.98,-1737.61 4609,-1727.36 4327.96,-1567.16 3986.34,-1379.77 3871.12,-1316.77"/>
<polygon fill="black" stroke="black" points="3872.72,-1313.65 3862.26,-1311.93 3869.36,-1319.79 3872.72,-1313.65"/>
</g>
<!-- generate_sa_tags -->
<g id="node27" class="node">
<title>generate_sa_tags</title>
<polygon fill="#94ddf4" stroke="black" points="4460,-1758.86 4460,-1794.86 4600,-1794.86 4600,-1758.86 4460,-1758.86"/>
<text text-anchor="middle" x="4530" y="-1773.16" font-family="Times,serif" font-size="14.00">generate_sa_tags</text>
</g>
<!-- generate_sa_tags&#45;&gt;run_dragen_alignment_step -->
<g id="edge30" class="edge">
<title>generate_sa_tags&#45;&gt;run_dragen_alignment_step</title>
<path fill="none" stroke="black" d="M4505.12,-1758.74C4399.18,-1685.84 3985.56,-1401.22 3864.48,-1317.9"/>
<polygon fill="black" stroke="black" points="3866.17,-1314.81 3855.94,-1312.02 3862.2,-1320.58 3866.17,-1314.81"/>
</g>
<!-- generate_zs_tags -->
<g id="node28" class="node">
<title>generate_zs_tags</title>
<polygon fill="#94ddf4" stroke="black" points="4302,-1758.86 4302,-1794.86 4442,-1794.86 4442,-1758.86 4302,-1758.86"/>
<text text-anchor="middle" x="4372" y="-1773.16" font-family="Times,serif" font-size="14.00">generate_zs_tags</text>
</g>
<!-- generate_zs_tags&#45;&gt;run_dragen_alignment_step -->
<g id="edge31" class="edge">
<title>generate_zs_tags&#45;&gt;run_dragen_alignment_step</title>
<path fill="none" stroke="black" d="M4352.75,-1758.74C4271.08,-1686.13 3953.18,-1403.49 3858.05,-1318.91"/>
<polygon fill="black" stroke="black" points="3860.1,-1316.05 3850.31,-1312.02 3855.45,-1321.28 3860.1,-1316.05"/>
</g>
<!-- global -->
<g id="node29" class="node">
<title>global</title>
<polygon fill="#94ddf4" stroke="black" points="4224,-1758.86 4224,-1794.86 4284,-1794.86 4284,-1758.86 4224,-1758.86"/>
<text text-anchor="middle" x="4254" y="-1773.16" font-family="Times,serif" font-size="14.00">global</text>
</g>
<!-- global&#45;&gt;run_dragen_alignment_step -->
<g id="edge32" class="edge">
<title>global&#45;&gt;run_dragen_alignment_step</title>
<path fill="none" stroke="black" d="M4240.89,-1758.59C4233.69,-1749.24 4224.5,-1737.54 4216,-1727.36 4083.15,-1568.34 3914.64,-1385.01 3854.02,-1319.61"/>
<polygon fill="black" stroke="black" points="3856.54,-1317.18 3847.17,-1312.23 3851.41,-1321.94 3856.54,-1317.18"/>
</g>
<!-- hard_clips -->
<g id="node30" class="node">
<title>hard_clips</title>
<polygon fill="#94ddf4" stroke="black" points="4117.5,-1758.86 4117.5,-1794.86 4206.5,-1794.86 4206.5,-1758.86 4117.5,-1758.86"/>
<text text-anchor="middle" x="4162" y="-1773.16" font-family="Times,serif" font-size="14.00">hard_clips</text>
</g>
<!-- hard_clips&#45;&gt;run_dragen_alignment_step -->
<g id="edge33" class="edge">
<title>hard_clips&#45;&gt;run_dragen_alignment_step</title>
<path fill="none" stroke="black" d="M4150.22,-1758.74C4100.56,-1686.57 3908.1,-1406.89 3848.61,-1320.46"/>
<polygon fill="black" stroke="black" points="3851.36,-1318.28 3842.81,-1312.02 3845.6,-1322.25 3851.36,-1318.28"/>
</g>
<!-- map_orientations -->
<g id="node31" class="node">
<title>map_orientations</title>
<polygon fill="#94ddf4" stroke="black" points="3959,-1758.86 3959,-1794.86 4099,-1794.86 4099,-1758.86 3959,-1758.86"/>
<text text-anchor="middle" x="4029" y="-1773.16" font-family="Times,serif" font-size="14.00">map_orientations</text>
</g>
<!-- map_orientations&#45;&gt;run_dragen_alignment_step -->
<g id="edge34" class="edge">
<title>map_orientations&#45;&gt;run_dragen_alignment_step</title>
<path fill="none" stroke="black" d="M4021.95,-1758.74C3992.37,-1686.86 3878.05,-1409.15 3841.97,-1321.52"/>
<polygon fill="black" stroke="black" points="3845.11,-1319.94 3838.07,-1312.02 3838.64,-1322.6 3845.11,-1319.94"/>
</g>
<!-- mapq_max -->
<g id="node32" class="node">
<title>mapq_max</title>
<polygon fill="#94ddf4" stroke="black" points="3847.5,-1758.86 3847.5,-1794.86 3940.5,-1794.86 3940.5,-1758.86 3847.5,-1758.86"/>
<text text-anchor="middle" x="3894" y="-1773.16" font-family="Times,serif" font-size="14.00">mapq_max</text>
</g>
<!-- mapq_max&#45;&gt;run_dragen_alignment_step -->
<g id="edge35" class="edge">
<title>mapq_max&#45;&gt;run_dragen_alignment_step</title>
<path fill="none" stroke="black" d="M3891.76,-1758.74C3882.36,-1687.01 3846.12,-1410.28 3834.56,-1322.05"/>
<polygon fill="black" stroke="black" points="3838.02,-1321.49 3833.25,-1312.02 3831.08,-1322.39 3838.02,-1321.49"/>
</g>
<!-- mapq_strict_js -->
<g id="node33" class="node">
<title>mapq_strict_js</title>
<polygon fill="#94ddf4" stroke="black" points="3709,-1758.86 3709,-1794.86 3829,-1794.86 3829,-1758.86 3709,-1758.86"/>
<text text-anchor="middle" x="3769" y="-1773.16" font-family="Times,serif" font-size="14.00">mapq_strict_js</text>
</g>
<!-- mapq_strict_js&#45;&gt;run_dragen_alignment_step -->
<g id="edge36" class="edge">
<title>mapq_strict_js&#45;&gt;run_dragen_alignment_step</title>
<path fill="none" stroke="black" d="M3771.21,-1758.74C3780.45,-1687.01 3816.12,-1410.28 3827.5,-1322.05"/>
<polygon fill="black" stroke="black" points="3830.98,-1322.39 3828.79,-1312.02 3824.04,-1321.49 3830.98,-1322.39"/>
</g>
<!-- match_n_score -->
<g id="node34" class="node">
<title>match_n_score</title>
<polygon fill="#94ddf4" stroke="black" points="3569,-1758.86 3569,-1794.86 3691,-1794.86 3691,-1758.86 3569,-1758.86"/>
<text text-anchor="middle" x="3630" y="-1773.16" font-family="Times,serif" font-size="14.00">match_n_score</text>
</g>
<!-- match_n_score&#45;&gt;run_dragen_alignment_step -->
<g id="edge37" class="edge">
<title>match_n_score&#45;&gt;run_dragen_alignment_step</title>
<path fill="none" stroke="black" d="M3637.15,-1758.74C3667.19,-1686.86 3783.24,-1409.15 3819.86,-1321.52"/>
<polygon fill="black" stroke="black" points="3823.2,-1322.6 3823.83,-1312.02 3816.74,-1319.9 3823.2,-1322.6"/>
</g>
<!-- match_score -->
<g id="node35" class="node">
<title>match_score</title>
<polygon fill="#94ddf4" stroke="black" points="3445,-1758.86 3445,-1794.86 3551,-1794.86 3551,-1758.86 3445,-1758.86"/>
<text text-anchor="middle" x="3498" y="-1773.16" font-family="Times,serif" font-size="14.00">match_score</text>
</g>
<!-- match_score&#45;&gt;run_dragen_alignment_step -->
<g id="edge38" class="edge">
<title>match_score&#45;&gt;run_dragen_alignment_step</title>
<path fill="none" stroke="black" d="M3509.85,-1758.74C3559.82,-1686.57 3753.44,-1406.89 3813.28,-1320.46"/>
<polygon fill="black" stroke="black" points="3816.3,-1322.24 3819.12,-1312.02 3810.55,-1318.25 3816.3,-1322.24"/>
</g>
<!-- max_intron_bases -->
<g id="node36" class="node">
<title>max_intron_bases</title>
<polygon fill="#94ddf4" stroke="black" points="3283,-1758.86 3283,-1794.86 3427,-1794.86 3427,-1758.86 3283,-1758.86"/>
<text text-anchor="middle" x="3355" y="-1773.16" font-family="Times,serif" font-size="14.00">max_intron_bases</text>
</g>
<!-- max_intron_bases&#45;&gt;run_dragen_alignment_step -->
<g id="edge39" class="edge">
<title>max_intron_bases&#45;&gt;run_dragen_alignment_step</title>
<path fill="none" stroke="black" d="M3371.94,-1758.74C3443.72,-1686.21 3722.94,-1404.06 3806.95,-1319.16"/>
<polygon fill="black" stroke="black" points="3809.47,-1321.59 3814.01,-1312.02 3804.49,-1316.67 3809.47,-1321.59"/>
</g>
<!-- max_rescues -->
<g id="node37" class="node">
<title>max_rescues</title>
<polygon fill="#94ddf4" stroke="black" points="3157,-1758.86 3157,-1794.86 3265,-1794.86 3265,-1758.86 3157,-1758.86"/>
<text text-anchor="middle" x="3211" y="-1773.16" font-family="Times,serif" font-size="14.00">max_rescues</text>
</g>
<!-- max_rescues&#45;&gt;run_dragen_alignment_step -->
<g id="edge40" class="edge">
<title>max_rescues&#45;&gt;run_dragen_alignment_step</title>
<path fill="none" stroke="black" d="M3233.07,-1758.74C3326.84,-1685.99 3692.44,-1402.35 3800.66,-1318.4"/>
<polygon fill="black" stroke="black" points="3803.12,-1320.92 3808.88,-1312.02 3798.83,-1315.39 3803.12,-1320.92"/>
</g>
<!-- min_intron_bases -->
<g id="node38" class="node">
<title>min_intron_bases</title>
<polygon fill="#94ddf4" stroke="black" points="2997.5,-1758.86 2997.5,-1794.86 3138.5,-1794.86 3138.5,-1758.86 2997.5,-1758.86"/>
<text text-anchor="middle" x="3068" y="-1773.16" font-family="Times,serif" font-size="14.00">min_intron_bases</text>
</g>
<!-- min_intron_bases&#45;&gt;run_dragen_alignment_step -->
<g id="edge41" class="edge">
<title>min_intron_bases&#45;&gt;run_dragen_alignment_step</title>
<path fill="none" stroke="black" d="M3095.16,-1758.74C3211.03,-1685.7 3664.1,-1400.08 3795.25,-1317.4"/>
<polygon fill="black" stroke="black" points="3797.18,-1320.32 3803.77,-1312.02 3793.45,-1314.4 3797.18,-1320.32"/>
</g>
<!-- min_score_coeff -->
<g id="node39" class="node">
<title>min_score_coeff</title>
<polygon fill="#94ddf4" stroke="black" points="2850.5,-1758.86 2850.5,-1794.86 2979.5,-1794.86 2979.5,-1758.86 2850.5,-1758.86"/>
<text text-anchor="middle" x="2915" y="-1773.16" font-family="Times,serif" font-size="14.00">min_score_coeff</text>
</g>
<!-- min_score_coeff&#45;&gt;run_dragen_alignment_step -->
<g id="edge42" class="edge">
<title>min_score_coeff&#45;&gt;run_dragen_alignment_step</title>
<path fill="none" stroke="black" d="M2939.59,-1758.8C2953.8,-1749.19 2972.14,-1737.18 2989,-1727.36 3285.14,-1554.9 3657.52,-1376.43 3785.43,-1316.17"/>
<polygon fill="black" stroke="black" points="3787.01,-1319.29 3794.57,-1311.87 3784.03,-1312.96 3787.01,-1319.29"/>
</g>
<!-- mismatch_pen -->
<g id="node40" class="node">
<title>mismatch_pen</title>
<polygon fill="#94ddf4" stroke="black" points="2713.5,-1758.86 2713.5,-1794.86 2832.5,-1794.86 2832.5,-1758.86 2713.5,-1758.86"/>
<text text-anchor="middle" x="2773" y="-1773.16" font-family="Times,serif" font-size="14.00">mismatch_pen</text>
</g>
<!-- mismatch_pen&#45;&gt;run_dragen_alignment_step -->
<g id="edge43" class="edge">
<title>mismatch_pen&#45;&gt;run_dragen_alignment_step</title>
<path fill="none" stroke="black" d="M2794.94,-1758.73C2808.15,-1748.86 2825.54,-1736.62 2842,-1727.36 3180.02,-1537.19 3617.87,-1371.84 3773.23,-1315.46"/>
<polygon fill="black" stroke="black" points="3774.84,-1318.6 3783.05,-1311.91 3772.46,-1312.02 3774.84,-1318.6"/>
</g>
<!-- no_unclip_score -->
<g id="node41" class="node">
<title>no_unclip_score</title>
<polygon fill="#94ddf4" stroke="black" points="2566.5,-1758.86 2566.5,-1794.86 2695.5,-1794.86 2695.5,-1758.86 2566.5,-1758.86"/>
<text text-anchor="middle" x="2631" y="-1773.16" font-family="Times,serif" font-size="14.00">no_unclip_score</text>
</g>
<!-- no_unclip_score&#45;&gt;run_dragen_alignment_step -->
<g id="edge44" class="edge">
<title>no_unclip_score&#45;&gt;run_dragen_alignment_step</title>
<path fill="none" stroke="black" d="M2654.22,-1758.8C2668.42,-1748.83 2687.23,-1736.46 2705,-1727.36 3090.04,-1530.1 3586.94,-1369.55 3764.4,-1314.93"/>
<polygon fill="black" stroke="black" points="3765.58,-1318.22 3774.11,-1311.94 3763.53,-1311.53 3765.58,-1318.22"/>
</g>
<!-- no_unpaired -->
<g id="node42" class="node">
<title>no_unpaired</title>
<polygon fill="#94ddf4" stroke="black" points="2444,-1758.86 2444,-1794.86 2548,-1794.86 2548,-1758.86 2444,-1758.86"/>
<text text-anchor="middle" x="2496" y="-1773.16" font-family="Times,serif" font-size="14.00">no_unpaired</text>
</g>
<!-- no_unpaired&#45;&gt;run_dragen_alignment_step -->
<g id="edge45" class="edge">
<title>no_unpaired&#45;&gt;run_dragen_alignment_step</title>
<path fill="none" stroke="black" d="M2514.38,-1758.79C2526.14,-1748.57 2542.13,-1735.94 2558,-1727.36 2973.85,-1502.51 3528.5,-1362.73 3742.03,-1314.15"/>
<polygon fill="black" stroke="black" points="3742.96,-1317.53 3751.94,-1311.91 3741.42,-1310.7 3742.96,-1317.53"/>
</g>
<!-- pe_max_penalty -->
<g id="node43" class="node">
<title>pe_max_penalty</title>
<polygon fill="#94ddf4" stroke="black" points="2294.5,-1758.86 2294.5,-1794.86 2425.5,-1794.86 2425.5,-1758.86 2294.5,-1758.86"/>
<text text-anchor="middle" x="2360" y="-1773.16" font-family="Times,serif" font-size="14.00">pe_max_penalty</text>
</g>
<!-- pe_max_penalty&#45;&gt;run_dragen_alignment_step -->
<g id="edge46" class="edge">
<title>pe_max_penalty&#45;&gt;run_dragen_alignment_step</title>
<path fill="none" stroke="black" d="M2382.69,-1758.85C2397.1,-1748.65 2416.46,-1736.03 2435,-1727.36 2903.83,-1508.22 3511.78,-1363.73 3739.54,-1314.04"/>
<polygon fill="black" stroke="black" points="3740.41,-1317.43 3749.44,-1311.89 3738.93,-1310.59 3740.41,-1317.43"/>
</g>
<!-- pe_orientation -->
<g id="node44" class="node">
<title>pe_orientation</title>
<polygon fill="#94ddf4" stroke="black" points="2157.5,-1758.86 2157.5,-1794.86 2276.5,-1794.86 2276.5,-1758.86 2157.5,-1758.86"/>
<text text-anchor="middle" x="2217" y="-1773.16" font-family="Times,serif" font-size="14.00">pe_orientation</text>
</g>
<!-- pe_orientation&#45;&gt;run_dragen_alignment_step -->
<g id="edge47" class="edge">
<title>pe_orientation&#45;&gt;run_dragen_alignment_step</title>
<path fill="none" stroke="black" d="M2237.29,-1758.81C2250.47,-1748.47 2268.4,-1735.7 2286,-1727.36 2792.9,-1486.98 3458.52,-1357.13 3719.35,-1312.68"/>
<polygon fill="black" stroke="black" points="3719.93,-1316.13 3729.21,-1311.01 3718.76,-1309.23 3719.93,-1316.13"/>
</g>
<!-- preserve_map_align_order -->
<g id="node45" class="node">
<title>preserve_map_align_order</title>
<polygon fill="#94ddf4" stroke="black" points="1934.5,-1758.86 1934.5,-1794.86 2139.5,-1794.86 2139.5,-1758.86 1934.5,-1758.86"/>
<text text-anchor="middle" x="2037" y="-1773.16" font-family="Times,serif" font-size="14.00">preserve_map_align_order</text>
</g>
<!-- preserve_map_align_order&#45;&gt;run_dragen_alignment_step -->
<g id="edge48" class="edge">
<title>preserve_map_align_order&#45;&gt;run_dragen_alignment_step</title>
<path fill="none" stroke="black" d="M2072.75,-1758.67C2094.47,-1748.66 2122.94,-1736.29 2149,-1727.36 2739.73,-1524.91 3475.52,-1366.96 3735.02,-1314.01"/>
<polygon fill="black" stroke="black" points="3736.07,-1317.37 3745.17,-1311.94 3734.67,-1310.51 3736.07,-1317.37"/>
</g>
<!-- reference_tar -->
<g id="node46" class="node">
<title>reference_tar</title>
<polygon fill="#94ddf4" stroke="black" points="1803.5,-1758.86 1803.5,-1794.86 1916.5,-1794.86 1916.5,-1758.86 1803.5,-1758.86"/>
<text text-anchor="middle" x="1860" y="-1773.16" font-family="Times,serif" font-size="14.00">reference_tar</text>
</g>
<!-- reference_tar&#45;&gt;run_dragen_alignment_step -->
<g id="edge49" class="edge">
<title>reference_tar&#45;&gt;run_dragen_alignment_step</title>
<path fill="none" stroke="black" d="M1878.87,-1758.71C1891.4,-1748.19 1908.67,-1735.28 1926,-1727.36 2565.02,-1435.46 3417.2,-1332.77 3719.17,-1304.21"/>
<polygon fill="black" stroke="black" points="3719.62,-1307.68 3729.24,-1303.26 3718.96,-1300.71 3719.62,-1307.68"/>
</g>
<!-- remove_duplicates -->
<g id="node47" class="node">
<title>remove_duplicates</title>
<polygon fill="#94ddf4" stroke="black" points="1635,-1758.86 1635,-1794.86 1785,-1794.86 1785,-1758.86 1635,-1758.86"/>
<text text-anchor="middle" x="1710" y="-1773.16" font-family="Times,serif" font-size="14.00">remove_duplicates</text>
</g>
<!-- remove_duplicates&#45;&gt;run_dragen_alignment_step -->
<g id="edge50" class="edge">
<title>remove_duplicates&#45;&gt;run_dragen_alignment_step</title>
<path fill="none" stroke="black" d="M1735.02,-1758.84C1751.43,-1748.37 1773.72,-1735.46 1795,-1727.36 2499.05,-1459.2 3406.71,-1340.97 3719.39,-1306.31"/>
<polygon fill="black" stroke="black" points="3719.8,-1309.79 3729.36,-1305.21 3719.04,-1302.83 3719.8,-1309.79"/>
</g>
<!-- rescue_sigmas -->
<g id="node48" class="node">
<title>rescue_sigmas</title>
<polygon fill="#94ddf4" stroke="black" points="1495.5,-1758.86 1495.5,-1794.86 1616.5,-1794.86 1616.5,-1758.86 1495.5,-1758.86"/>
<text text-anchor="middle" x="1556" y="-1773.16" font-family="Times,serif" font-size="14.00">rescue_sigmas</text>
</g>
<!-- rescue_sigmas&#45;&gt;run_dragen_alignment_step -->
<g id="edge51" class="edge">
<title>rescue_sigmas&#45;&gt;run_dragen_alignment_step</title>
<path fill="none" stroke="black" d="M1575.81,-1758.8C1589.15,-1748.19 1607.61,-1735.13 1626,-1727.36 2383.11,-1407.44 3387.56,-1321.16 3719.39,-1300.64"/>
<polygon fill="black" stroke="black" points="3719.72,-1304.13 3729.49,-1300.03 3719.29,-1297.14 3719.72,-1304.13"/>
</g>
<!-- sec_aligns -->
<g id="node49" class="node">
<title>sec_aligns</title>
<polygon fill="#94ddf4" stroke="black" points="1388.5,-1758.86 1388.5,-1794.86 1477.5,-1794.86 1477.5,-1758.86 1388.5,-1758.86"/>
<text text-anchor="middle" x="1433" y="-1773.16" font-family="Times,serif" font-size="14.00">sec_aligns</text>
</g>
<!-- sec_aligns&#45;&gt;run_dragen_alignment_step -->
<g id="edge52" class="edge">
<title>sec_aligns&#45;&gt;run_dragen_alignment_step</title>
<path fill="none" stroke="black" d="M1447.78,-1758.39C1457.76,-1747.75 1471.85,-1734.81 1487,-1727.36 2275.94,-1339.3 3369.91,-1297.47 3719.15,-1294.46"/>
<polygon fill="black" stroke="black" points="3719.29,-1297.96 3729.26,-1294.38 3719.24,-1290.96 3719.29,-1297.96"/>
</g>
<!-- sec_aligns_hard -->
<g id="node50" class="node">
<title>sec_aligns_hard</title>
<polygon fill="#94ddf4" stroke="black" points="1241.5,-1758.86 1241.5,-1794.86 1370.5,-1794.86 1370.5,-1758.86 1241.5,-1758.86"/>
<text text-anchor="middle" x="1306" y="-1773.16" font-family="Times,serif" font-size="14.00">sec_aligns_hard</text>
</g>
<!-- sec_aligns_hard&#45;&gt;run_dragen_alignment_step -->
<g id="edge53" class="edge">
<title>sec_aligns_hard&#45;&gt;run_dragen_alignment_step</title>
<path fill="none" stroke="black" d="M1327.05,-1758.72C1341.2,-1748.07 1360.72,-1735 1380,-1727.36 2235.65,-1388.17 3364.35,-1314 3719.27,-1298.66"/>
<polygon fill="black" stroke="black" points="3719.45,-1302.15 3729.29,-1298.23 3719.15,-1295.16 3719.45,-1302.15"/>
</g>
<!-- sec_phred_delta -->
<g id="node51" class="node">
<title>sec_phred_delta</title>
<polygon fill="#94ddf4" stroke="black" points="1092.5,-1758.86 1092.5,-1794.86 1223.5,-1794.86 1223.5,-1758.86 1092.5,-1758.86"/>
<text text-anchor="middle" x="1158" y="-1773.16" font-family="Times,serif" font-size="14.00">sec_phred_delta</text>
</g>
<!-- sec_phred_delta&#45;&gt;run_dragen_alignment_step -->
<g id="edge54" class="edge">
<title>sec_phred_delta&#45;&gt;run_dragen_alignment_step</title>
<path fill="none" stroke="black" d="M1179.34,-1758.66C1193.69,-1747.99 1213.48,-1734.92 1233,-1727.36 2146.51,-1373.57 3350.61,-1309.03 3719.1,-1297.39"/>
<polygon fill="black" stroke="black" points="3719.35,-1300.88 3729.23,-1297.08 3719.13,-1293.89 3719.35,-1300.88"/>
</g>
<!-- sec_score_delta -->
<g id="node52" class="node">
<title>sec_score_delta</title>
<polygon fill="#94ddf4" stroke="black" points="946,-1758.86 946,-1794.86 1074,-1794.86 1074,-1758.86 946,-1758.86"/>
<text text-anchor="middle" x="1010" y="-1773.16" font-family="Times,serif" font-size="14.00">sec_score_delta</text>
</g>
<!-- sec_score_delta&#45;&gt;run_dragen_alignment_step -->
<g id="edge55" class="edge">
<title>sec_score_delta&#45;&gt;run_dragen_alignment_step</title>
<path fill="none" stroke="black" d="M1030.69,-1758.84C1044.84,-1748.1 1064.51,-1734.88 1084,-1727.36 2054.56,-1352.96 3337.4,-1302.42 3719.24,-1295.8"/>
<polygon fill="black" stroke="black" points="3719.51,-1299.29 3729.45,-1295.63 3719.4,-1292.29 3719.51,-1299.29"/>
</g>
<!-- seed_density -->
<g id="node53" class="node">
<title>seed_density</title>
<polygon fill="#94ddf4" stroke="black" points="818.5,-1758.86 818.5,-1794.86 927.5,-1794.86 927.5,-1758.86 818.5,-1758.86"/>
<text text-anchor="middle" x="873" y="-1773.16" font-family="Times,serif" font-size="14.00">seed_density</text>
</g>
<!-- seed_density&#45;&gt;run_dragen_alignment_step -->
<g id="edge56" class="edge">
<title>seed_density&#45;&gt;run_dragen_alignment_step</title>
<path fill="none" stroke="black" d="M890.48,-1758.73C902.55,-1747.94 919.53,-1734.72 937,-1727.36 1456.84,-1508.54 3252.18,-1343.93 3719.23,-1304.12"/>
<polygon fill="black" stroke="black" points="3719.68,-1307.59 3729.35,-1303.26 3719.09,-1300.62 3719.68,-1307.59"/>
</g>
<!-- supp_aligns -->
<g id="node54" class="node">
<title>supp_aligns</title>
<polygon fill="#94ddf4" stroke="black" points="699.5,-1758.86 699.5,-1794.86 800.5,-1794.86 800.5,-1758.86 699.5,-1758.86"/>
<text text-anchor="middle" x="750" y="-1773.16" font-family="Times,serif" font-size="14.00">supp_aligns</text>
</g>
<!-- supp_aligns&#45;&gt;run_dragen_alignment_step -->
<g id="edge57" class="edge">
<title>supp_aligns&#45;&gt;run_dragen_alignment_step</title>
<path fill="none" stroke="black" d="M766.18,-1758.68C777.41,-1747.87 793.3,-1734.64 810,-1727.36 1351.19,-1491.5 3239.4,-1338.54 3719.36,-1302.87"/>
<polygon fill="black" stroke="black" points="3719.7,-1306.36 3729.42,-1302.13 3719.18,-1299.38 3719.7,-1306.36"/>
</g>
<!-- supp_as_sec -->
<g id="node55" class="node">
<title>supp_as_sec</title>
<polygon fill="#94ddf4" stroke="black" points="577,-1758.86 577,-1794.86 681,-1794.86 681,-1758.86 577,-1758.86"/>
<text text-anchor="middle" x="629" y="-1773.16" font-family="Times,serif" font-size="14.00">supp_as_sec</text>
</g>
<!-- supp_as_sec&#45;&gt;run_dragen_alignment_step -->
<g id="edge58" class="edge">
<title>supp_as_sec&#45;&gt;run_dragen_alignment_step</title>
<path fill="none" stroke="black" d="M645.81,-1758.66C657.46,-1747.84 673.88,-1734.6 691,-1727.36 1257.24,-1487.72 3227.59,-1336.89 3719.2,-1302.43"/>
<polygon fill="black" stroke="black" points="3719.76,-1305.9 3729.49,-1301.71 3719.27,-1298.91 3719.76,-1305.9"/>
</g>
<!-- supp_min_score_adj -->
<g id="node56" class="node">
<title>supp_min_score_adj</title>
<polygon fill="#94ddf4" stroke="black" points="401,-1758.86 401,-1794.86 559,-1794.86 559,-1758.86 401,-1758.86"/>
<text text-anchor="middle" x="480" y="-1773.16" font-family="Times,serif" font-size="14.00">supp_min_score_adj</text>
</g>
<!-- supp_min_score_adj&#45;&gt;run_dragen_alignment_step -->
<g id="edge59" class="edge">
<title>supp_min_score_adj&#45;&gt;run_dragen_alignment_step</title>
<path fill="none" stroke="black" d="M505.02,-1758.77C522.04,-1748 545.46,-1734.77 568,-1727.36 1755.32,-1336.86 3295.7,-1297.92 3719.12,-1294.86"/>
<polygon fill="black" stroke="black" points="3719.24,-1298.36 3729.21,-1294.79 3719.19,-1291.36 3719.24,-1298.36"/>
</g>
<!-- unclip_score -->
<g id="node57" class="node">
<title>unclip_score</title>
<polygon fill="#94ddf4" stroke="black" points="277.5,-1758.86 277.5,-1794.86 382.5,-1794.86 382.5,-1758.86 277.5,-1758.86"/>
<text text-anchor="middle" x="330" y="-1773.16" font-family="Times,serif" font-size="14.00">unclip_score</text>
</g>
<!-- unclip_score&#45;&gt;run_dragen_alignment_step -->
<g id="edge60" class="edge">
<title>unclip_score&#45;&gt;run_dragen_alignment_step</title>
<path fill="none" stroke="black" d="M346.53,-1758.83C358.17,-1747.94 374.72,-1734.56 392,-1727.36 1016.83,-1467.25 3198.84,-1330.32 3719.04,-1300.93"/>
<polygon fill="black" stroke="black" points="3719.39,-1304.41 3729.17,-1300.36 3718.99,-1297.42 3719.39,-1304.41"/>
</g>
<!-- unpaired_pen -->
<g id="node58" class="node">
<title>unpaired_pen</title>
<polygon fill="#94ddf4" stroke="black" points="146.5,-1758.86 146.5,-1794.86 259.5,-1794.86 259.5,-1758.86 146.5,-1758.86"/>
<text text-anchor="middle" x="203" y="-1773.16" font-family="Times,serif" font-size="14.00">unpaired_pen</text>
</g>
<!-- unpaired_pen&#45;&gt;run_dragen_alignment_step -->
<g id="edge61" class="edge">
<title>unpaired_pen&#45;&gt;run_dragen_alignment_step</title>
<path fill="none" stroke="black" d="M220.79,-1758.82C233.26,-1747.92 250.89,-1734.54 269,-1727.36 921.8,-1468.68 3187.22,-1330.19 3718.76,-1300.82"/>
<polygon fill="black" stroke="black" points="3719.32,-1304.29 3729.11,-1300.25 3718.93,-1297.3 3719.32,-1304.29"/>
</g>
<!-- verbose -->
<g id="node59" class="node">
<title>verbose</title>
<polygon fill="#94ddf4" stroke="black" points="7992.5,-1758.86 7992.5,-1794.86 8065.5,-1794.86 8065.5,-1758.86 7992.5,-1758.86"/>
<text text-anchor="middle" x="8029" y="-1773.16" font-family="Times,serif" font-size="14.00">verbose</text>
</g>
<!-- verbose&#45;&gt;run_dragen_alignment_step -->
<g id="edge62" class="edge">
<title>verbose&#45;&gt;run_dragen_alignment_step</title>
<path fill="none" stroke="black" d="M8017.82,-1758.48C8009.8,-1747.59 7997.97,-1734.34 7984,-1727.36 7244.82,-1358.1 4528.81,-1303.52 3942.89,-1296"/>
<polygon fill="black" stroke="black" points="3942.79,-1292.5 3932.75,-1295.87 3942.7,-1299.5 3942.79,-1292.5"/>
</g>
</g>
</svg>
