<?xml version="1.0" encoding="UTF-8" standalone="no"?>
<!DOCTYPE svg PUBLIC "-//W3C//DTD SVG 1.1//EN"
 "http://www.w3.org/Graphics/SVG/1.1/DTD/svg11.dtd">
<!-- Generated by graphviz version 2.43.0 (0)
 -->
<!-- Title: G Pages: 1 -->
<svg width="3588pt" height="1043pt"
 viewBox="0.00 0.00 3588.00 1042.62" xmlns="http://www.w3.org/2000/svg" xmlns:xlink="http://www.w3.org/1999/xlink">
<g id="graph0" class="graph" transform="scale(1 1) rotate(0) translate(4 1038.62)">
<title>G</title>
<polygon fill="#eeeeee" stroke="transparent" points="-4,4 -4,-1038.62 3584,-1038.62 3584,4 -4,4"/>
<g id="clust1" class="cluster">
<title>cluster_inputs</title>
<polygon fill="#eeeeee" stroke="black" stroke-dasharray="5,2" points="8,-672.5 8,-1000.13 3572,-1000.13 3572,-672.5 8,-672.5"/>
<text text-anchor="middle" x="3505.5" y="-680.3" font-family="Times,serif" font-size="14.00">Workflow Inputs</text>
</g>
<g id="clust2" class="cluster">
<title>cluster_outputs</title>
<polygon fill="#eeeeee" stroke="black" stroke-dasharray="5,2" points="1583,-34.49 1583,-362.12 1925,-362.12 1925,-34.49 1583,-34.49"/>
<text text-anchor="middle" x="1852.5" y="-42.29" font-family="Times,serif" font-size="14.00">Workflow Outputs</text>
</g>
<!-- arriba_dir -->
<g id="node1" class="node">
<title>arriba_dir</title>
<polygon fill="#94ddf4" stroke="black" points="3476.5,-867.49 3476.5,-903.49 3563.5,-903.49 3563.5,-867.49 3476.5,-867.49"/>
<text text-anchor="middle" x="3520" y="-881.79" font-family="Times,serif" font-size="14.00">arriba_dir</text>
</g>
<!-- run_rnasum_step -->
<g id="node33" class="node">
<title>run_rnasum_step</title>
<ellipse fill="none" stroke="black" cx="1776" cy="-560.49" rx="90.98" ry="18"/>
<text text-anchor="middle" x="1776" y="-556.79" font-family="Times,serif" font-size="14.00">run_rnasum_step</text>
</g>
<!-- arriba_dir&#45;&gt;run_rnasum_step -->
<g id="edge1" class="edge">
<title>arriba_dir&#45;&gt;run_rnasum_step</title>
<path fill="none" stroke="black" d="M3506.04,-867.38C3496.27,-856.61 3482.27,-843.38 3467,-835.99 3178.59,-696.31 2177.55,-597.28 1867.96,-569.44"/>
<polygon fill="black" stroke="black" points="1867.96,-565.93 1857.68,-568.52 1867.33,-572.9 1867.96,-565.93"/>
</g>
<!-- arriba_pdf -->
<g id="node2" class="node">
<title>arriba_pdf</title>
<polygon fill="#94ddf4" stroke="black" points="3368,-867.49 3368,-903.49 3458,-903.49 3458,-867.49 3368,-867.49"/>
<text text-anchor="middle" x="3413" y="-881.79" font-family="Times,serif" font-size="14.00">arriba_pdf</text>
</g>
<!-- arriba_pdf&#45;&gt;run_rnasum_step -->
<g id="edge2" class="edge">
<title>arriba_pdf&#45;&gt;run_rnasum_step</title>
<path fill="none" stroke="black" d="M3398.69,-867.44C3388.7,-856.69 3374.42,-843.47 3359,-835.99 3089.76,-705.35 2159.68,-600.85 1865.76,-570.46"/>
<polygon fill="black" stroke="black" points="1865.88,-566.95 1855.58,-569.41 1865.17,-573.92 1865.88,-566.95"/>
</g>
<!-- arriba_tsv -->
<g id="node3" class="node">
<title>arriba_tsv</title>
<polygon fill="#94ddf4" stroke="black" points="3260.5,-867.49 3260.5,-903.49 3349.5,-903.49 3349.5,-867.49 3260.5,-867.49"/>
<text text-anchor="middle" x="3305" y="-881.79" font-family="Times,serif" font-size="14.00">arriba_tsv</text>
</g>
<!-- arriba_tsv&#45;&gt;run_rnasum_step -->
<g id="edge3" class="edge">
<title>arriba_tsv&#45;&gt;run_rnasum_step</title>
<path fill="none" stroke="black" d="M3290.55,-867.02C3280.78,-856.38 3266.96,-843.44 3252,-835.99 2777.47,-599.41 2125.07,-565.49 1877.13,-561.53"/>
<polygon fill="black" stroke="black" points="1877.11,-558.03 1867.06,-561.38 1877,-565.03 1877.11,-558.03"/>
</g>
<!-- batch_rm -->
<g id="node4" class="node">
<title>batch_rm</title>
<polygon fill="#94ddf4" stroke="black" points="3159.5,-867.49 3159.5,-903.49 3242.5,-903.49 3242.5,-867.49 3159.5,-867.49"/>
<text text-anchor="middle" x="3201" y="-881.79" font-family="Times,serif" font-size="14.00">batch_rm</text>
</g>
<!-- batch_rm&#45;&gt;run_rnasum_step -->
<g id="edge4" class="edge">
<title>batch_rm&#45;&gt;run_rnasum_step</title>
<path fill="none" stroke="black" d="M3187.53,-867.08C3178.37,-856.46 3165.35,-843.52 3151,-835.99 2716.47,-607.77 2113.47,-568.76 1876.93,-562.49"/>
<polygon fill="black" stroke="black" points="1876.71,-558.98 1866.62,-562.23 1876.53,-565.98 1876.71,-558.98"/>
</g>
<!-- cn_gain -->
<g id="node5" class="node">
<title>cn_gain</title>
<polygon fill="#94ddf4" stroke="black" points="3070.5,-867.49 3070.5,-903.49 3141.5,-903.49 3141.5,-867.49 3070.5,-867.49"/>
<text text-anchor="middle" x="3106" y="-881.79" font-family="Times,serif" font-size="14.00">cn_gain</text>
</g>
<!-- cn_gain&#45;&gt;run_rnasum_step -->
<g id="edge5" class="edge">
<title>cn_gain&#45;&gt;run_rnasum_step</title>
<path fill="none" stroke="black" d="M3094.2,-867.12C3086.08,-856.52 3074.38,-843.59 3061,-835.99 2664.44,-610.7 2103.55,-569.88 1876.87,-562.8"/>
<polygon fill="black" stroke="black" points="1876.75,-559.3 1866.65,-562.5 1876.54,-566.29 1876.75,-559.3"/>
</g>
<!-- cn_loss -->
<g id="node6" class="node">
<title>cn_loss</title>
<polygon fill="#94ddf4" stroke="black" points="2984,-867.49 2984,-903.49 3052,-903.49 3052,-867.49 2984,-867.49"/>
<text text-anchor="middle" x="3018" y="-881.79" font-family="Times,serif" font-size="14.00">cn_loss</text>
</g>
<!-- cn_loss&#45;&gt;run_rnasum_step -->
<g id="edge6" class="edge">
<title>cn_loss&#45;&gt;run_rnasum_step</title>
<path fill="none" stroke="black" d="M3006.85,-867.18C2999.14,-856.61 2987.97,-843.68 2975,-835.99 2610.67,-619.94 2091.12,-573.89 1875.6,-564.11"/>
<polygon fill="black" stroke="black" points="1875.71,-560.61 1865.56,-563.67 1875.4,-567.61 1875.71,-560.61"/>
</g>
<!-- dataset -->
<g id="node7" class="node">
<title>dataset</title>
<polygon fill="#94ddf4" stroke="black" points="2896,-867.49 2896,-903.49 2966,-903.49 2966,-867.49 2896,-867.49"/>
<text text-anchor="middle" x="2931" y="-881.79" font-family="Times,serif" font-size="14.00">dataset</text>
</g>
<!-- dataset&#45;&gt;run_rnasum_step -->
<g id="edge7" class="edge">
<title>dataset&#45;&gt;run_rnasum_step</title>
<path fill="none" stroke="black" d="M2919.46,-867.26C2911.52,-856.72 2900.08,-843.8 2887,-835.99 2551.25,-635.59 2075.13,-581.08 1872.89,-566.59"/>
<polygon fill="black" stroke="black" points="1873.1,-563.09 1862.88,-565.89 1872.61,-570.08 1873.1,-563.09"/>
</g>
<!-- dataset_name_incl -->
<g id="node8" class="node">
<title>dataset_name_incl</title>
<polygon fill="#94ddf4" stroke="black" points="2730,-867.49 2730,-903.49 2878,-903.49 2878,-867.49 2730,-867.49"/>
<text text-anchor="middle" x="2804" y="-881.79" font-family="Times,serif" font-size="14.00">dataset_name_incl</text>
</g>
<!-- dataset_name_incl&#45;&gt;run_rnasum_step -->
<g id="edge8" class="edge">
<title>dataset_name_incl&#45;&gt;run_rnasum_step</title>
<path fill="none" stroke="black" d="M2778.33,-867.26C2762.35,-857.11 2741.09,-844.62 2721,-835.99 2407.66,-701.38 2008.4,-609.79 1847.73,-575.98"/>
<polygon fill="black" stroke="black" points="1848,-572.46 1837.49,-573.84 1846.56,-579.31 1848,-572.46"/>
</g>
<!-- dragen_fusions -->
<g id="node9" class="node">
<title>dragen_fusions</title>
<polygon fill="#94ddf4" stroke="black" points="2586.5,-867.49 2586.5,-903.49 2711.5,-903.49 2711.5,-867.49 2586.5,-867.49"/>
<text text-anchor="middle" x="2649" y="-881.79" font-family="Times,serif" font-size="14.00">dragen_fusions</text>
</g>
<!-- dragen_fusions&#45;&gt;run_rnasum_step -->
<g id="edge9" class="edge">
<title>dragen_fusions&#45;&gt;run_rnasum_step</title>
<path fill="none" stroke="black" d="M2627.25,-867.36C2613.67,-857.24 2595.48,-844.75 2578,-835.99 2317.75,-705.58 1980.88,-612.81 1841.15,-577.38"/>
<polygon fill="black" stroke="black" points="1841.59,-573.88 1831.04,-574.83 1839.88,-580.67 1841.59,-573.88"/>
</g>
<!-- dragen_mapping_metrics -->
<g id="node10" class="node">
<title>dragen_mapping_metrics</title>
<polygon fill="#94ddf4" stroke="black" points="2371.5,-867.49 2371.5,-903.49 2568.5,-903.49 2568.5,-867.49 2371.5,-867.49"/>
<text text-anchor="middle" x="2470" y="-881.79" font-family="Times,serif" font-size="14.00">dragen_mapping_metrics</text>
</g>
<!-- dragen_mapping_metrics&#45;&gt;run_rnasum_step -->
<g id="edge10" class="edge">
<title>dragen_mapping_metrics&#45;&gt;run_rnasum_step</title>
<path fill="none" stroke="black" d="M2433.18,-867.35C2315.06,-812.37 1946,-640.61 1819.25,-581.62"/>
<polygon fill="black" stroke="black" points="1820.39,-578.29 1809.85,-577.24 1817.44,-584.63 1820.39,-578.29"/>
</g>
<!-- dragen_wts_dir -->
<g id="node11" class="node">
<title>dragen_wts_dir</title>
<polygon fill="#94ddf4" stroke="black" points="2227,-867.49 2227,-903.49 2353,-903.49 2353,-867.49 2227,-867.49"/>
<text text-anchor="middle" x="2290" y="-881.79" font-family="Times,serif" font-size="14.00">dragen_wts_dir</text>
</g>
<!-- dragen_wts_dir&#45;&gt;run_rnasum_step -->
<g id="edge11" class="edge">
<title>dragen_wts_dir&#45;&gt;run_rnasum_step</title>
<path fill="none" stroke="black" d="M2265.16,-867.42C2251.35,-858.02 2233.82,-846.22 2218,-835.99 2068.42,-739.21 1886.96,-628.62 1811.54,-582.94"/>
<polygon fill="black" stroke="black" points="1813.24,-579.88 1802.87,-577.7 1809.62,-585.87 1813.24,-579.88"/>
</g>
<!-- drugs -->
<g id="node12" class="node">
<title>drugs</title>
<polygon fill="#94ddf4" stroke="black" points="2151,-867.49 2151,-903.49 2209,-903.49 2209,-867.49 2151,-867.49"/>
<text text-anchor="middle" x="2180" y="-881.79" font-family="Times,serif" font-size="14.00">drugs</text>
</g>
<!-- drugs&#45;&gt;run_rnasum_step -->
<g id="edge12" class="edge">
<title>drugs&#45;&gt;run_rnasum_step</title>
<path fill="none" stroke="black" d="M2168.34,-867.42C2161.28,-857.69 2151.78,-845.57 2142,-835.99 2032.29,-728.56 1879.56,-626.85 1811.35,-583.48"/>
<polygon fill="black" stroke="black" points="1813,-580.38 1802.68,-577.99 1809.26,-586.3 1813,-580.38"/>
</g>
<!-- filter -->
<g id="node13" class="node">
<title>filter</title>
<polygon fill="#94ddf4" stroke="black" points="2079,-867.49 2079,-903.49 2133,-903.49 2133,-867.49 2079,-867.49"/>
<text text-anchor="middle" x="2106" y="-881.79" font-family="Times,serif" font-size="14.00">filter</text>
</g>
<!-- filter&#45;&gt;run_rnasum_step -->
<g id="edge13" class="edge">
<title>filter&#45;&gt;run_rnasum_step</title>
<path fill="none" stroke="black" d="M2094.39,-867.29C2087.66,-857.74 2078.8,-845.84 2070,-835.99 1980.17,-735.43 1858.6,-630.4 1804.26,-584.85"/>
<polygon fill="black" stroke="black" points="1806.36,-582.04 1796.44,-578.32 1801.87,-587.42 1806.36,-582.04"/>
</g>
<!-- immunogram -->
<g id="node14" class="node">
<title>immunogram</title>
<polygon fill="#94ddf4" stroke="black" points="1949,-867.49 1949,-903.49 2061,-903.49 2061,-867.49 1949,-867.49"/>
<text text-anchor="middle" x="2005" y="-881.79" font-family="Times,serif" font-size="14.00">immunogram</text>
</g>
<!-- immunogram&#45;&gt;run_rnasum_step -->
<g id="edge14" class="edge">
<title>immunogram&#45;&gt;run_rnasum_step</title>
<path fill="none" stroke="black" d="M1992.69,-867.12C1954.62,-813.43 1838.71,-649.94 1793.93,-586.77"/>
<polygon fill="black" stroke="black" points="1796.73,-584.68 1788.09,-578.55 1791.02,-588.73 1796.73,-584.68"/>
</g>
<!-- log -->
<g id="node15" class="node">
<title>log</title>
<polygon fill="#94ddf4" stroke="black" points="1877,-867.49 1877,-903.49 1931,-903.49 1931,-867.49 1877,-867.49"/>
<text text-anchor="middle" x="1904" y="-881.79" font-family="Times,serif" font-size="14.00">log</text>
</g>
<!-- log&#45;&gt;run_rnasum_step -->
<g id="edge15" class="edge">
<title>log&#45;&gt;run_rnasum_step</title>
<path fill="none" stroke="black" d="M1897.12,-867.12C1875.97,-813.76 1811.85,-651.95 1786.49,-587.95"/>
<polygon fill="black" stroke="black" points="1789.7,-586.55 1782.76,-578.55 1783.19,-589.13 1789.7,-586.55"/>
</g>
<!-- norm -->
<g id="node16" class="node">
<title>norm</title>
<polygon fill="#94ddf4" stroke="black" points="1805,-867.49 1805,-903.49 1859,-903.49 1859,-867.49 1805,-867.49"/>
<text text-anchor="middle" x="1832" y="-881.79" font-family="Times,serif" font-size="14.00">norm</text>
</g>
<!-- norm&#45;&gt;run_rnasum_step -->
<g id="edge16" class="edge">
<title>norm&#45;&gt;run_rnasum_step</title>
<path fill="none" stroke="black" d="M1828.99,-867.12C1819.78,-813.98 1791.91,-653.28 1780.73,-588.74"/>
<polygon fill="black" stroke="black" points="1784.11,-587.8 1778.96,-578.55 1777.22,-589 1784.11,-587.8"/>
</g>
<!-- pcgr_splice_vars -->
<g id="node17" class="node">
<title>pcgr_splice_vars</title>
<polygon fill="#94ddf4" stroke="black" points="1653,-867.49 1653,-903.49 1787,-903.49 1787,-867.49 1653,-867.49"/>
<text text-anchor="middle" x="1720" y="-881.79" font-family="Times,serif" font-size="14.00">pcgr_splice_vars</text>
</g>
<!-- pcgr_splice_vars&#45;&gt;run_rnasum_step -->
<g id="edge17" class="edge">
<title>pcgr_splice_vars&#45;&gt;run_rnasum_step</title>
<path fill="none" stroke="black" d="M1723.01,-867.12C1732.22,-813.98 1760.09,-653.28 1771.27,-588.74"/>
<polygon fill="black" stroke="black" points="1774.78,-589 1773.04,-578.55 1767.89,-587.8 1774.78,-589"/>
</g>
<!-- pcgr_tier -->
<g id="node18" class="node">
<title>pcgr_tier</title>
<polygon fill="#94ddf4" stroke="black" points="1553.5,-867.49 1553.5,-903.49 1634.5,-903.49 1634.5,-867.49 1553.5,-867.49"/>
<text text-anchor="middle" x="1594" y="-881.79" font-family="Times,serif" font-size="14.00">pcgr_tier</text>
</g>
<!-- pcgr_tier&#45;&gt;run_rnasum_step -->
<g id="edge18" class="edge">
<title>pcgr_tier&#45;&gt;run_rnasum_step</title>
<path fill="none" stroke="black" d="M1603.79,-867.12C1633.91,-813.65 1725.4,-651.28 1761.31,-587.55"/>
<polygon fill="black" stroke="black" points="1764.53,-588.98 1766.39,-578.55 1758.43,-585.54 1764.53,-588.98"/>
</g>
<!-- pcgr_tiers_tsv -->
<g id="node19" class="node">
<title>pcgr_tiers_tsv</title>
<polygon fill="#94ddf4" stroke="black" points="1418.5,-867.49 1418.5,-903.49 1535.5,-903.49 1535.5,-867.49 1418.5,-867.49"/>
<text text-anchor="middle" x="1477" y="-881.79" font-family="Times,serif" font-size="14.00">pcgr_tiers_tsv</text>
</g>
<!-- pcgr_tiers_tsv&#45;&gt;run_rnasum_step -->
<g id="edge19" class="edge">
<title>pcgr_tiers_tsv&#45;&gt;run_rnasum_step</title>
<path fill="none" stroke="black" d="M1493.08,-867.12C1542.98,-813.21 1695.36,-648.6 1753.31,-586"/>
<polygon fill="black" stroke="black" points="1755.98,-588.26 1760.21,-578.55 1750.85,-583.51 1755.98,-588.26"/>
</g>
<!-- project -->
<g id="node20" class="node">
<title>project</title>
<polygon fill="#94ddf4" stroke="black" points="1333.5,-867.49 1333.5,-903.49 1400.5,-903.49 1400.5,-867.49 1333.5,-867.49"/>
<text text-anchor="middle" x="1367" y="-881.79" font-family="Times,serif" font-size="14.00">project</text>
</g>
<!-- project&#45;&gt;run_rnasum_step -->
<g id="edge20" class="edge">
<title>project&#45;&gt;run_rnasum_step</title>
<path fill="none" stroke="black" d="M1380.94,-867.1C1388.99,-857.49 1399.57,-845.59 1410,-835.99 1523.49,-731.43 1675.51,-627.48 1742.22,-583.43"/>
<polygon fill="black" stroke="black" points="1744.25,-586.28 1750.68,-577.86 1740.4,-580.44 1744.25,-586.28"/>
</g>
<!-- purple_gene_tsv -->
<g id="node21" class="node">
<title>purple_gene_tsv</title>
<polygon fill="#94ddf4" stroke="black" points="1182.5,-867.49 1182.5,-903.49 1315.5,-903.49 1315.5,-867.49 1182.5,-867.49"/>
<text text-anchor="middle" x="1249" y="-881.79" font-family="Times,serif" font-size="14.00">purple_gene_tsv</text>
</g>
<!-- purple_gene_tsv&#45;&gt;run_rnasum_step -->
<g id="edge21" class="edge">
<title>purple_gene_tsv&#45;&gt;run_rnasum_step</title>
<path fill="none" stroke="black" d="M1275.64,-867.29C1290.18,-857.95 1308.53,-846.25 1325,-835.99 1478.61,-740.24 1663.59,-628.87 1740.15,-582.96"/>
<polygon fill="black" stroke="black" points="1742.16,-585.83 1748.94,-577.69 1738.56,-579.83 1742.16,-585.83"/>
</g>
<!-- report_dir -->
<g id="node22" class="node">
<title>report_dir</title>
<polygon fill="#94ddf4" stroke="black" points="1075.5,-867.49 1075.5,-903.49 1164.5,-903.49 1164.5,-867.49 1075.5,-867.49"/>
<text text-anchor="middle" x="1120" y="-881.79" font-family="Times,serif" font-size="14.00">report_dir</text>
</g>
<!-- report_dir&#45;&gt;run_rnasum_step -->
<g id="edge22" class="edge">
<title>report_dir&#45;&gt;run_rnasum_step</title>
<path fill="none" stroke="black" d="M1136.41,-867.33C1146.58,-857.33 1160.3,-844.96 1174,-835.99 1361.77,-713.02 1613.62,-617.85 1722.33,-579.68"/>
<polygon fill="black" stroke="black" points="1723.8,-582.87 1732.09,-576.27 1721.5,-576.26 1723.8,-582.87"/>
</g>
<!-- salmon -->
<g id="node23" class="node">
<title>salmon</title>
<polygon fill="#94ddf4" stroke="black" points="989,-867.49 989,-903.49 1057,-903.49 1057,-867.49 989,-867.49"/>
<text text-anchor="middle" x="1023" y="-881.79" font-family="Times,serif" font-size="14.00">salmon</text>
</g>
<!-- salmon&#45;&gt;run_rnasum_step -->
<g id="edge23" class="edge">
<title>salmon&#45;&gt;run_rnasum_step</title>
<path fill="none" stroke="black" d="M1035.26,-867.35C1043.32,-857.11 1054.63,-844.48 1067,-835.99 1277.51,-691.44 1574.75,-608.6 1707.42,-576.75"/>
<polygon fill="black" stroke="black" points="1708.53,-580.08 1717.45,-574.37 1706.91,-573.27 1708.53,-580.08"/>
</g>
<!-- sample_name -->
<g id="node24" class="node">
<title>sample_name</title>
<polygon fill="#94ddf4" stroke="black" points="857.5,-867.49 857.5,-903.49 970.5,-903.49 970.5,-867.49 857.5,-867.49"/>
<text text-anchor="middle" x="914" y="-881.79" font-family="Times,serif" font-size="14.00">sample_name</text>
</g>
<!-- sample_name&#45;&gt;run_rnasum_step -->
<g id="edge24" class="edge">
<title>sample_name&#45;&gt;run_rnasum_step</title>
<path fill="none" stroke="black" d="M934.04,-867.28C946.61,-857.13 963.5,-844.64 980,-835.99 1235.39,-702.08 1569.83,-611.55 1709.86,-577.06"/>
<polygon fill="black" stroke="black" points="1710.72,-580.45 1719.6,-574.67 1709.05,-573.65 1710.72,-580.45"/>
</g>
<!-- sample_source -->
<g id="node25" class="node">
<title>sample_source</title>
<polygon fill="#94ddf4" stroke="black" points="717,-867.49 717,-903.49 839,-903.49 839,-867.49 717,-867.49"/>
<text text-anchor="middle" x="778" y="-881.79" font-family="Times,serif" font-size="14.00">sample_source</text>
</g>
<!-- sample_source&#45;&gt;run_rnasum_step -->
<g id="edge25" class="edge">
<title>sample_source&#45;&gt;run_rnasum_step</title>
<path fill="none" stroke="black" d="M799.31,-867.33C812.88,-857.07 831.2,-844.44 849,-835.99 1149.4,-693.25 1540.14,-607.02 1701.4,-575.34"/>
<polygon fill="black" stroke="black" points="1702.54,-578.68 1711.69,-573.33 1701.2,-571.81 1702.54,-578.68"/>
</g>
<!-- save_tables -->
<g id="node26" class="node">
<title>save_tables</title>
<polygon fill="#94ddf4" stroke="black" points="599.5,-867.49 599.5,-903.49 698.5,-903.49 698.5,-867.49 599.5,-867.49"/>
<text text-anchor="middle" x="649" y="-881.79" font-family="Times,serif" font-size="14.00">save_tables</text>
</g>
<!-- save_tables&#45;&gt;run_rnasum_step -->
<g id="edge26" class="edge">
<title>save_tables&#45;&gt;run_rnasum_step</title>
<path fill="none" stroke="black" d="M665.63,-867.42C676.73,-856.94 692.16,-844.03 708,-835.99 1045.54,-664.61 1498.83,-594.21 1687.67,-571.04"/>
<polygon fill="black" stroke="black" points="1688.32,-574.49 1697.83,-569.81 1687.48,-567.54 1688.32,-574.49"/>
</g>
<!-- scaling -->
<g id="node27" class="node">
<title>scaling</title>
<polygon fill="#94ddf4" stroke="black" points="514.5,-867.49 514.5,-903.49 581.5,-903.49 581.5,-867.49 514.5,-867.49"/>
<text text-anchor="middle" x="548" y="-881.79" font-family="Times,serif" font-size="14.00">scaling</text>
</g>
<!-- scaling&#45;&gt;run_rnasum_step -->
<g id="edge27" class="edge">
<title>scaling&#45;&gt;run_rnasum_step</title>
<path fill="none" stroke="black" d="M559.16,-867.19C566.87,-856.62 578.04,-843.7 591,-835.99 950.39,-622.25 1462.75,-574.93 1676.45,-564.46"/>
<polygon fill="black" stroke="black" points="1676.88,-567.94 1686.7,-563.97 1676.55,-560.95 1676.88,-567.94"/>
</g>
<!-- subject_id -->
<g id="node28" class="node">
<title>subject_id</title>
<polygon fill="#94ddf4" stroke="black" points="407.5,-867.49 407.5,-903.49 496.5,-903.49 496.5,-867.49 407.5,-867.49"/>
<text text-anchor="middle" x="452" y="-881.79" font-family="Times,serif" font-size="14.00">subject_id</text>
</g>
<!-- subject_id&#45;&gt;run_rnasum_step -->
<g id="edge28" class="edge">
<title>subject_id&#45;&gt;run_rnasum_step</title>
<path fill="none" stroke="black" d="M466.86,-867.18C476.87,-856.6 490.96,-843.67 506,-835.99 907.41,-630.91 1455.97,-578.73 1677.38,-565.71"/>
<polygon fill="black" stroke="black" points="1677.89,-569.19 1687.67,-565.12 1677.49,-562.2 1677.89,-569.19"/>
</g>
<!-- sv_tsv -->
<g id="node29" class="node">
<title>sv_tsv</title>
<polygon fill="#94ddf4" stroke="black" points="328.5,-867.49 328.5,-903.49 389.5,-903.49 389.5,-867.49 328.5,-867.49"/>
<text text-anchor="middle" x="359" y="-881.79" font-family="Times,serif" font-size="14.00">sv_tsv</text>
</g>
<!-- sv_tsv&#45;&gt;run_rnasum_step -->
<g id="edge29" class="edge">
<title>sv_tsv&#45;&gt;run_rnasum_step</title>
<path fill="none" stroke="black" d="M369.04,-867.06C376.08,-856.43 386.45,-843.49 399,-835.99 621.05,-703.2 1421.6,-601.89 1688.63,-571.16"/>
<polygon fill="black" stroke="black" points="1689.12,-574.62 1698.66,-570.01 1688.33,-567.67 1689.12,-574.62"/>
</g>
<!-- top_genes -->
<g id="node30" class="node">
<title>top_genes</title>
<polygon fill="#94ddf4" stroke="black" points="221.5,-867.49 221.5,-903.49 310.5,-903.49 310.5,-867.49 221.5,-867.49"/>
<text text-anchor="middle" x="266" y="-881.79" font-family="Times,serif" font-size="14.00">top_genes</text>
</g>
<!-- top_genes&#45;&gt;run_rnasum_step -->
<g id="edge30" class="edge">
<title>top_genes&#45;&gt;run_rnasum_step</title>
<path fill="none" stroke="black" d="M280.79,-867.04C290.78,-856.41 304.86,-843.47 320,-835.99 788.02,-604.65 1429.11,-567.59 1674.67,-562.16"/>
<polygon fill="black" stroke="black" points="1675.08,-565.66 1685,-561.95 1674.93,-558.66 1675.08,-565.66"/>
</g>
<!-- transform -->
<g id="node31" class="node">
<title>transform</title>
<polygon fill="#94ddf4" stroke="black" points="116,-867.49 116,-903.49 204,-903.49 204,-867.49 116,-867.49"/>
<text text-anchor="middle" x="160" y="-881.79" font-family="Times,serif" font-size="14.00">transform</text>
</g>
<!-- transform&#45;&gt;run_rnasum_step -->
<g id="edge31" class="edge">
<title>transform&#45;&gt;run_rnasum_step</title>
<path fill="none" stroke="black" d="M173.99,-867.45C183.77,-856.7 197.78,-843.48 213,-835.99 478.04,-705.5 1395.9,-601 1686.82,-570.52"/>
<polygon fill="black" stroke="black" points="1687.32,-573.99 1696.9,-569.47 1686.59,-567.02 1687.32,-573.99"/>
</g>
<!-- umccrise -->
<g id="node32" class="node">
<title>umccrise</title>
<polygon fill="#94ddf4" stroke="black" points="16.5,-867.49 16.5,-903.49 97.5,-903.49 97.5,-867.49 16.5,-867.49"/>
<text text-anchor="middle" x="57" y="-881.79" font-family="Times,serif" font-size="14.00">umccrise</text>
</g>
<!-- umccrise&#45;&gt;run_rnasum_step -->
<g id="edge32" class="edge">
<title>umccrise&#45;&gt;run_rnasum_step</title>
<path fill="none" stroke="black" d="M69.98,-867.38C79.12,-856.61 92.31,-843.39 107,-835.99 389.25,-693.82 1376.74,-596.67 1684.02,-569.33"/>
<polygon fill="black" stroke="black" points="1684.57,-572.8 1694.22,-568.43 1683.95,-565.83 1684.57,-572.8"/>
</g>
<!-- rnasum_html -->
<g id="node34" class="node">
<title>rnasum_html</title>
<polygon fill="#94ddf4" stroke="black" points="1807,-229.49 1807,-265.49 1917,-265.49 1917,-229.49 1807,-229.49"/>
<text text-anchor="middle" x="1862" y="-243.79" font-family="Times,serif" font-size="14.00">rnasum_html</text>
</g>
<!-- run_rnasum_step&#45;&gt;rnasum_html -->
<g id="edge33" class="edge">
<title>run_rnasum_step&#45;&gt;rnasum_html</title>
<path fill="none" stroke="black" d="M1780.75,-542.32C1794.96,-490.92 1837.26,-337.94 1854.53,-275.49"/>
<polygon fill="black" stroke="black" points="1857.98,-276.17 1857.27,-265.6 1851.23,-274.3 1857.98,-276.17"/>
</g>
<!-- rnasum_output_directory -->
<g id="node35" class="node">
<title>rnasum_output_directory</title>
<polygon fill="#94ddf4" stroke="black" points="1591.5,-229.49 1591.5,-265.49 1788.5,-265.49 1788.5,-229.49 1591.5,-229.49"/>
<text text-anchor="middle" x="1690" y="-243.79" font-family="Times,serif" font-size="14.00">rnasum_output_directory</text>
</g>
<!-- run_rnasum_step&#45;&gt;rnasum_output_directory -->
<g id="edge34" class="edge">
<title>run_rnasum_step&#45;&gt;rnasum_output_directory</title>
<path fill="none" stroke="black" d="M1771.25,-542.32C1757.04,-490.92 1714.74,-337.94 1697.47,-275.49"/>
<polygon fill="black" stroke="black" points="1700.77,-274.3 1694.73,-265.6 1694.02,-276.17 1700.77,-274.3"/>
</g>
</g>
</svg>
