<?xml version="1.0" encoding="UTF-8" standalone="no"?>
<!DOCTYPE svg PUBLIC "-//W3C//DTD SVG 1.1//EN"
 "http://www.w3.org/Graphics/SVG/1.1/DTD/svg11.dtd">
<!-- Generated by graphviz version 2.43.0 (0)
 -->
<!-- Title: G Pages: 1 -->
<svg width="248pt" height="248pt"
 viewBox="0.00 0.00 248.00 248.00" xmlns="http://www.w3.org/2000/svg" xmlns:xlink="http://www.w3.org/1999/xlink">
<g id="graph0" class="graph" transform="scale(1 1) rotate(0) translate(4 244)">
<title>G</title>
<polygon fill="#eeeeee" stroke="transparent" points="-4,4 -4,-244 244,-244 244,4 -4,4"/>
<g id="clust1" class="cluster">
<title>cluster_inputs</title>
<polygon fill="#eeeeee" stroke="black" stroke-dasharray="5,2" points="43.26,-156 43.26,-232 228.84,-232 228.84,-156 43.26,-156"/>
<text text-anchor="middle" x="162.34" y="-163.8" font-family="Times,serif" font-size="14.00">Workflow Inputs</text>
</g>
<g id="clust2" class="cluster">
<title>cluster_outputs</title>
<polygon fill="#eeeeee" stroke="black" stroke-dasharray="5,2" points="11.16,-8 11.16,-84 214.88,-84 214.88,-8 11.16,-8"/>
<text text-anchor="middle" x="142.38" y="-15.8" font-family="Times,serif" font-size="14.00">Workflow Outputs</text>
</g>
<!-- vcf_file -->
<g id="node1" class="node">
<title>vcf_file</title>
<polygon fill="#94ddf4" stroke="black" points="79.93,-188 79.93,-224 145.93,-224 145.93,-188 79.93,-188"/>
<text text-anchor="middle" x="112.93" y="-202.3" font-family="Times,serif" font-size="14.00">vcf_file</text>
</g>
<!-- run_tabix_step -->
<g id="node2" class="node">
<title>run_tabix_step</title>
<ellipse fill="none" stroke="black" cx="112.93" cy="-130" rx="79.09" ry="18"/>
<text text-anchor="middle" x="112.93" y="-126.3" font-family="Times,serif" font-size="14.00">run_tabix_step</text>
</g>
<!-- vcf_file&#45;&gt;run_tabix_step -->
<g id="edge1" class="edge">
<title>vcf_file&#45;&gt;run_tabix_step</title>
<path fill="none" stroke="black" d="M112.93,-187.84C112.93,-179.06 112.93,-168.16 112.93,-158.27"/>
<polygon fill="black" stroke="black" points="116.43,-158.07 112.93,-148.07 109.43,-158.07 116.43,-158.07"/>
</g>
<!-- vcf_file_indexed -->
<g id="node3" class="node">
<title>vcf_file_indexed</title>
<polygon fill="#94ddf4" stroke="black" points="48.43,-40 48.43,-76 177.43,-76 177.43,-40 48.43,-40"/>
<text text-anchor="middle" x="112.93" y="-54.3" font-family="Times,serif" font-size="14.00">vcf_file_indexed</text>
</g>
<!-- run_tabix_step&#45;&gt;vcf_file_indexed -->
<g id="edge2" class="edge">
<title>run_tabix_step&#45;&gt;vcf_file_indexed</title>
<path fill="none" stroke="black" d="M112.93,-111.7C112.93,-103.98 112.93,-94.71 112.93,-86.11"/>
<polygon fill="black" stroke="black" points="116.43,-86.1 112.93,-76.1 109.43,-86.1 116.43,-86.1"/>
</g>
</g>
</svg>
