<?xml version="1.0" encoding="UTF-8" standalone="no"?>
<!DOCTYPE svg PUBLIC "-//W3C//DTD SVG 1.1//EN"
 "http://www.w3.org/Graphics/SVG/1.1/DTD/svg11.dtd">
<!-- Generated by graphviz version 2.43.0 (0)
 -->
<!-- Title: G Pages: 1 -->
<svg width="1308pt" height="633pt"
 viewBox="0.00 0.00 1308.00 633.30" xmlns="http://www.w3.org/2000/svg" xmlns:xlink="http://www.w3.org/1999/xlink">
<g id="graph0" class="graph" transform="scale(1 1) rotate(0) translate(4 629.3)">
<title>G</title>
<polygon fill="#eeeeee" stroke="transparent" points="-4,4 -4,-629.3 1304,-629.3 1304,4 -4,4"/>
<g id="clust1" class="cluster">
<title>cluster_inputs</title>
<polygon fill="#eeeeee" stroke="black" stroke-dasharray="5,2" points="8,-526.87 8,-616.04 1236,-616.04 1236,-526.87 8,-526.87"/>
<text text-anchor="middle" x="1169.5" y="-534.67" font-family="Times,serif" font-size="14.00">Workflow Inputs</text>
</g>
<g id="clust2" class="cluster">
<title>cluster_outputs</title>
<polygon fill="#eeeeee" stroke="black" stroke-dasharray="5,2" points="630,-9.26 630,-98.43 1041,-98.43 1041,-9.26 630,-9.26"/>
<text text-anchor="middle" x="968.5" y="-17.06" font-family="Times,serif" font-size="14.00">Workflow Outputs</text>
</g>
<!-- resources_dir -->
<g id="node1" class="node">
<title>resources_dir</title>
<polygon fill="#94ddf4" stroke="black" points="16.5,-566.76 16.5,-603.76 129.5,-603.76 129.5,-566.76 16.5,-566.76"/>
<text text-anchor="middle" x="73" y="-581.56" font-family="Times,serif" font-size="14.00">resources_dir</text>
</g>
<!-- run_tso_ctdna_workflow_step -->
<g id="node15" class="node">
<title>run_tso_ctdna_workflow_step</title>
<polygon fill="#f3cea1" stroke="black" points="474.5,-476.76 474.5,-513.76 661.5,-513.76 661.5,-476.76 474.5,-476.76"/>
<text text-anchor="middle" x="568" y="-491.56" font-family="Times,serif" font-size="14.00">tso500&#45;ctdna v(1.2.0&#45;&#45;1)</text>
</g>
<!-- resources_dir&#45;&gt;run_tso_ctdna_workflow_step -->
<g id="edge12" class="edge">
<title>resources_dir&#45;&gt;run_tso_ctdna_workflow_step</title>
<path fill="none" stroke="black" d="M90.96,-566.62C103.37,-555.58 120.87,-542.19 139,-535.26 168.6,-523.97 346.94,-510.54 464.17,-502.75"/>
<polygon fill="black" stroke="black" points="464.51,-506.24 474.26,-502.08 464.05,-499.25 464.51,-506.24"/>
</g>
<!-- get_tso_manifest_bed_from_resources_dir -->
<g id="node18" class="node">
<title>get_tso_manifest_bed_from_resources_dir</title>
<polygon fill="lightgoldenrodyellow" stroke="black" points="32.5,-476.76 32.5,-513.76 265.5,-513.76 265.5,-476.76 32.5,-476.76"/>
<text text-anchor="middle" x="149" y="-491.56" font-family="Times,serif" font-size="14.00">get&#45;file&#45;from&#45;directory v(1.0.0)</text>
</g>
<!-- resources_dir&#45;&gt;get_tso_manifest_bed_from_resources_dir -->
<g id="edge13" class="edge">
<title>resources_dir&#45;&gt;get_tso_manifest_bed_from_resources_dir</title>
<path fill="none" stroke="black" d="M88.38,-566.46C99.51,-553.57 114.7,-535.98 127.09,-521.63"/>
<polygon fill="black" stroke="black" points="129.76,-523.9 133.64,-514.05 124.46,-519.33 129.76,-523.9"/>
</g>
<!-- coerce_valid_index -->
<g id="node2" class="node">
<title>coerce_valid_index</title>
<polygon fill="#94ddf4" stroke="black" points="630,-566.76 630,-603.76 780,-603.76 780,-566.76 630,-566.76"/>
<text text-anchor="middle" x="705" y="-581.56" font-family="Times,serif" font-size="14.00">coerce_valid_index</text>
</g>
<!-- coerce_valid_index&#45;&gt;run_tso_ctdna_workflow_step -->
<g id="edge14" class="edge">
<title>coerce_valid_index&#45;&gt;run_tso_ctdna_workflow_step</title>
<path fill="none" stroke="black" d="M677.61,-566.67C656.42,-553.06 626.9,-534.1 603.84,-519.29"/>
<polygon fill="black" stroke="black" points="605.65,-516.29 595.35,-513.83 601.87,-522.18 605.65,-516.29"/>
</g>
<!-- dragen_license_key -->
<g id="node3" class="node">
<title>dragen_license_key</title>
<polygon fill="#94ddf4" stroke="black" points="456.5,-566.76 456.5,-603.76 611.5,-603.76 611.5,-566.76 456.5,-566.76"/>
<text text-anchor="middle" x="534" y="-581.56" font-family="Times,serif" font-size="14.00">dragen_license_key</text>
</g>
<!-- dragen_license_key&#45;&gt;run_tso_ctdna_workflow_step -->
<g id="edge15" class="edge">
<title>dragen_license_key&#45;&gt;run_tso_ctdna_workflow_step</title>
<path fill="none" stroke="black" d="M540.88,-566.46C545.63,-554.17 552.03,-537.6 557.42,-523.65"/>
<polygon fill="black" stroke="black" points="560.79,-524.63 561.13,-514.05 554.26,-522.11 560.79,-524.63"/>
</g>
<!-- run_info_xml -->
<g id="node4" class="node">
<title>run_info_xml</title>
<polygon fill="#94ddf4" stroke="black" points="330,-566.76 330,-603.76 438,-603.76 438,-566.76 330,-566.76"/>
<text text-anchor="middle" x="384" y="-581.56" font-family="Times,serif" font-size="14.00">run_info_xml</text>
</g>
<!-- run_info_xml&#45;&gt;run_tso_ctdna_workflow_step -->
<g id="edge16" class="edge">
<title>run_info_xml&#45;&gt;run_tso_ctdna_workflow_step</title>
<path fill="none" stroke="black" d="M403.27,-566.72C415.39,-556.42 431.77,-543.79 448,-535.26 461.36,-528.24 476.22,-522.17 490.81,-517.06"/>
<polygon fill="black" stroke="black" points="491.99,-520.35 500.34,-513.83 489.75,-513.72 491.99,-520.35"/>
</g>
<!-- run_parameters_xml -->
<g id="node5" class="node">
<title>run_parameters_xml</title>
<polygon fill="#94ddf4" stroke="black" points="148,-566.76 148,-603.76 312,-603.76 312,-566.76 148,-566.76"/>
<text text-anchor="middle" x="230" y="-581.56" font-family="Times,serif" font-size="14.00">run_parameters_xml</text>
</g>
<!-- run_parameters_xml&#45;&gt;run_tso_ctdna_workflow_step -->
<g id="edge17" class="edge">
<title>run_parameters_xml&#45;&gt;run_tso_ctdna_workflow_step</title>
<path fill="none" stroke="black" d="M256.78,-566.72C274.35,-556.01 298.22,-542.95 321,-535.26 366.8,-519.82 419.48,-510.43 464.39,-504.75"/>
<polygon fill="black" stroke="black" points="464.94,-508.21 474.44,-503.53 464.09,-501.26 464.94,-508.21"/>
</g>
<!-- samplesheet -->
<g id="node6" class="node">
<title>samplesheet</title>
<polygon fill="#94ddf4" stroke="black" points="971.5,-566.76 971.5,-603.76 1078.5,-603.76 1078.5,-566.76 971.5,-566.76"/>
<text text-anchor="middle" x="1025" y="-581.56" font-family="Times,serif" font-size="14.00">samplesheet</text>
</g>
<!-- samplesheet&#45;&gt;run_tso_ctdna_workflow_step -->
<g id="edge18" class="edge">
<title>samplesheet&#45;&gt;run_tso_ctdna_workflow_step</title>
<path fill="none" stroke="black" d="M1008.31,-566.66C996.72,-555.64 980.3,-542.25 963,-535.26 911.95,-514.66 770.78,-504.58 671.85,-499.92"/>
<polygon fill="black" stroke="black" points="671.97,-496.42 661.82,-499.46 671.64,-503.41 671.97,-496.42"/>
</g>
<!-- samplesheet_prefix -->
<g id="node7" class="node">
<title>samplesheet_prefix</title>
<polygon fill="#94ddf4" stroke="black" points="798.5,-566.76 798.5,-603.76 953.5,-603.76 953.5,-566.76 798.5,-566.76"/>
<text text-anchor="middle" x="876" y="-581.56" font-family="Times,serif" font-size="14.00">samplesheet_prefix</text>
</g>
<!-- samplesheet_prefix&#45;&gt;run_tso_ctdna_workflow_step -->
<g id="edge19" class="edge">
<title>samplesheet_prefix&#45;&gt;run_tso_ctdna_workflow_step</title>
<path fill="none" stroke="black" d="M850.08,-566.58C833.34,-555.96 810.71,-543.04 789,-535.26 751.79,-521.94 709.37,-513.06 671.71,-507.18"/>
<polygon fill="black" stroke="black" points="672.15,-503.71 661.74,-505.67 671.11,-510.63 672.15,-503.71"/>
</g>
<!-- tso500_samples -->
<g id="node8" class="node">
<title>tso500_samples</title>
<polygon fill="#94ddf4" stroke="black" points="1096.5,-566.76 1096.5,-603.76 1227.5,-603.76 1227.5,-566.76 1096.5,-566.76"/>
<text text-anchor="middle" x="1162" y="-581.56" font-family="Times,serif" font-size="14.00">tso500_samples</text>
</g>
<!-- tso500_samples&#45;&gt;run_tso_ctdna_workflow_step -->
<g id="edge20" class="edge">
<title>tso500_samples&#45;&gt;run_tso_ctdna_workflow_step</title>
<path fill="none" stroke="black" d="M1141.53,-566.53C1127.47,-555.46 1107.83,-542.05 1088,-535.26 1049.82,-522.19 812.61,-508.41 672.11,-501.25"/>
<polygon fill="black" stroke="black" points="671.91,-497.74 661.75,-500.72 671.56,-504.73 671.91,-497.74"/>
</g>
<!-- get_sample_ids_from_tso500_sample_object -->
<g id="node17" class="node">
<title>get_sample_ids_from_tso500_sample_object</title>
<polygon fill="lightgoldenrodyellow" stroke="black" points="964,-476.76 964,-513.76 1290,-513.76 1290,-476.76 964,-476.76"/>
<text text-anchor="middle" x="1127" y="-491.56" font-family="Times,serif" font-size="14.00">get&#45;attr&#45;from&#45;tso500&#45;sample&#45;object v(1.2.0)</text>
</g>
<!-- tso500_samples&#45;&gt;get_sample_ids_from_tso500_sample_object -->
<g id="edge21" class="edge">
<title>tso500_samples&#45;&gt;get_sample_ids_from_tso500_sample_object</title>
<path fill="none" stroke="black" d="M1154.92,-566.46C1150.03,-554.17 1143.44,-537.6 1137.89,-523.65"/>
<polygon fill="black" stroke="black" points="1141.02,-522.04 1134.07,-514.05 1134.52,-524.63 1141.02,-522.04"/>
</g>
<!-- output_results_dir -->
<g id="node9" class="node">
<title>output_results_dir</title>
<polygon fill="#94ddf4" stroke="black" points="638.5,-48.76 638.5,-85.76 785.5,-85.76 785.5,-48.76 638.5,-48.76"/>
<text text-anchor="middle" x="712" y="-63.56" font-family="Times,serif" font-size="14.00">output_results_dir</text>
</g>
<!-- output_results_dir_by_sample -->
<g id="node10" class="node">
<title>output_results_dir_by_sample</title>
<polygon fill="#94ddf4" stroke="black" points="803.5,-48.76 803.5,-85.76 1032.5,-85.76 1032.5,-48.76 803.5,-48.76"/>
<text text-anchor="middle" x="918" y="-63.56" font-family="Times,serif" font-size="14.00">output_results_dir_by_sample</text>
</g>
<!-- get_final_directory_output_for_tso500_pipeline -->
<g id="node11" class="node">
<title>get_final_directory_output_for_tso500_pipeline</title>
<polygon fill="lightgoldenrodyellow" stroke="black" points="387,-305.76 387,-342.76 893,-342.76 893,-305.76 387,-305.76"/>
<text text-anchor="middle" x="640" y="-320.56" font-family="Times,serif" font-size="14.00">get&#45;custom&#45;output&#45;dir&#45;entry&#45;for&#45;tso500&#45;with&#45;post&#45;processing v(2.0.1)</text>
</g>
<!-- create_final_output_directory -->
<g id="node12" class="node">
<title>create_final_output_directory</title>
<polygon fill="lightgoldenrodyellow" stroke="black" points="588.5,-219.76 588.5,-256.76 835.5,-256.76 835.5,-219.76 588.5,-219.76"/>
<text text-anchor="middle" x="712" y="-234.56" font-family="Times,serif" font-size="14.00">custom&#45;create&#45;directory v(2.0.1)</text>
</g>
<!-- get_final_directory_output_for_tso500_pipeline&#45;&gt;create_final_output_directory -->
<g id="edge1" class="edge">
<title>get_final_directory_output_for_tso500_pipeline&#45;&gt;create_final_output_directory</title>
<path fill="none" stroke="black" d="M655.27,-305.45C665.46,-293.56 679,-277.76 690.3,-264.58"/>
<polygon fill="black" stroke="black" points="693.15,-266.63 697,-256.76 687.83,-262.08 693.15,-266.63"/>
</g>
<!-- create_final_output_directory&#45;&gt;output_results_dir -->
<g id="edge3" class="edge">
<title>create_final_output_directory&#45;&gt;output_results_dir</title>
<path fill="none" stroke="black" d="M712,-219.5C712,-190.01 712,-130.74 712,-95.8"/>
<polygon fill="black" stroke="black" points="715.5,-95.79 712,-85.79 708.5,-95.79 715.5,-95.79"/>
</g>
<!-- get_sample_output_directory -->
<g id="node13" class="node">
<title>get_sample_output_directory</title>
<polygon fill="lightgoldenrodyellow" stroke="black" points="767,-134.76 767,-171.76 1069,-171.76 1069,-134.76 767,-134.76"/>
<text text-anchor="middle" x="918" y="-149.56" font-family="Times,serif" font-size="14.00">get&#45;subdirectory&#45;from&#45;directory v(1.0.0)</text>
</g>
<!-- create_final_output_directory&#45;&gt;get_sample_output_directory -->
<g id="edge2" class="edge">
<title>create_final_output_directory&#45;&gt;get_sample_output_directory</title>
<path fill="none" stroke="black" d="M755.44,-219.76C787.37,-206.89 830.95,-189.34 864.95,-175.64"/>
<polygon fill="black" stroke="black" points="866.3,-178.87 874.27,-171.88 863.69,-172.37 866.3,-178.87"/>
</g>
<!-- get_sample_output_directory&#45;&gt;output_results_dir_by_sample -->
<g id="edge10" class="edge">
<title>get_sample_output_directory&#45;&gt;output_results_dir_by_sample</title>
<path fill="none" stroke="black" d="M918,-134.45C918,-123.24 918,-108.54 918,-95.84"/>
<polygon fill="black" stroke="black" points="921.5,-95.76 918,-85.76 914.5,-95.76 921.5,-95.76"/>
</g>
<!-- run_tso_ctdna_post_processing_workflow_step -->
<g id="node14" class="node">
<title>run_tso_ctdna_post_processing_workflow_step</title>
<polygon fill="#f3cea1" stroke="black" points="86.5,-391.76 86.5,-428.76 433.5,-428.76 433.5,-391.76 86.5,-391.76"/>
<text text-anchor="middle" x="260" y="-406.56" font-family="Times,serif" font-size="14.00">tso500&#45;ctdna&#45;post&#45;processing&#45;pipeline v(1.0.0)</text>
</g>
<!-- run_tso_ctdna_post_processing_workflow_step&#45;&gt;get_final_directory_output_for_tso500_pipeline -->
<g id="edge4" class="edge">
<title>run_tso_ctdna_post_processing_workflow_step&#45;&gt;get_final_directory_output_for_tso500_pipeline</title>
<path fill="none" stroke="black" d="M339.2,-391.76C400.83,-378.13 486.37,-359.22 550.48,-345.05"/>
<polygon fill="black" stroke="black" points="551.57,-348.4 560.58,-342.82 550.06,-341.56 551.57,-348.4"/>
</g>
<!-- run_tso_ctdna_workflow_step&#45;&gt;get_final_directory_output_for_tso500_pipeline -->
<g id="edge5" class="edge">
<title>run_tso_ctdna_workflow_step&#45;&gt;get_final_directory_output_for_tso500_pipeline</title>
<path fill="none" stroke="black" d="M632.44,-476.69C656.03,-466.8 680.3,-451.75 694,-429.26 710,-403 688.28,-371.49 667.8,-350.08"/>
<polygon fill="black" stroke="black" points="670.22,-347.55 660.67,-342.96 665.27,-352.51 670.22,-347.55"/>
</g>
<!-- run_tso_ctdna_workflow_step&#45;&gt;run_tso_ctdna_post_processing_workflow_step -->
<g id="edge6" class="edge">
<title>run_tso_ctdna_workflow_step&#45;&gt;run_tso_ctdna_post_processing_workflow_step</title>
<path fill="none" stroke="black" d="M503.06,-476.76C453.9,-463.51 386.29,-445.3 334.85,-431.43"/>
<polygon fill="black" stroke="black" points="335.68,-428.03 325.12,-428.81 333.86,-434.79 335.68,-428.03"/>
</g>
<!-- get_intermediate_samplesheet_from_validation_step -->
<g id="node16" class="node">
<title>get_intermediate_samplesheet_from_validation_step</title>
<polygon fill="lightgoldenrodyellow" stroke="black" points="451.5,-391.76 451.5,-428.76 684.5,-428.76 684.5,-391.76 451.5,-391.76"/>
<text text-anchor="middle" x="568" y="-406.56" font-family="Times,serif" font-size="14.00">get&#45;file&#45;from&#45;directory v(1.0.0)</text>
</g>
<!-- run_tso_ctdna_workflow_step&#45;&gt;get_intermediate_samplesheet_from_validation_step -->
<g id="edge7" class="edge">
<title>run_tso_ctdna_workflow_step&#45;&gt;get_intermediate_samplesheet_from_validation_step</title>
<path fill="none" stroke="black" d="M568,-476.66C568,-465.77 568,-451.54 568,-439.14"/>
<polygon fill="black" stroke="black" points="571.5,-438.84 568,-428.84 564.5,-438.84 571.5,-438.84"/>
</g>
<!-- get_intermediate_samplesheet_from_validation_step&#45;&gt;get_final_directory_output_for_tso500_pipeline -->
<g id="edge8" class="edge">
<title>get_intermediate_samplesheet_from_validation_step&#45;&gt;get_final_directory_output_for_tso500_pipeline</title>
<path fill="none" stroke="black" d="M583.27,-391.45C593.46,-379.56 607,-363.76 618.3,-350.58"/>
<polygon fill="black" stroke="black" points="621.15,-352.63 625,-342.76 615.83,-348.08 621.15,-352.63"/>
</g>
<!-- get_sample_ids_from_tso500_sample_object&#45;&gt;get_sample_output_directory -->
<g id="edge9" class="edge">
<title>get_sample_ids_from_tso500_sample_object&#45;&gt;get_sample_output_directory</title>
<path fill="none" stroke="black" d="M1116.06,-476.46C1081.56,-420.35 974.98,-246.95 934.15,-180.53"/>
<polygon fill="black" stroke="black" points="937.05,-178.57 928.83,-171.89 931.09,-182.24 937.05,-178.57"/>
</g>
<!-- get_tso_manifest_bed_from_resources_dir&#45;&gt;run_tso_ctdna_post_processing_workflow_step -->
<g id="edge11" class="edge">
<title>get_tso_manifest_bed_from_resources_dir&#45;&gt;run_tso_ctdna_post_processing_workflow_step</title>
<path fill="none" stroke="black" d="M172.54,-476.66C188.73,-464.56 210.42,-448.34 228.15,-435.08"/>
<polygon fill="black" stroke="black" points="230.58,-437.63 236.49,-428.84 226.39,-432.03 230.58,-437.63"/>
</g>
<!-- \n -->
<g id="node19" class="node">
<title>\n</title>
<ellipse fill="none" stroke="black" cx="1273" cy="-585.26" rx="27" ry="18"/>
</g>
</g>
</svg>
