<?xml version="1.0" encoding="UTF-8" standalone="no"?>
<!DOCTYPE svg PUBLIC "-//W3C//DTD SVG 1.1//EN"
 "http://www.w3.org/Graphics/SVG/1.1/DTD/svg11.dtd">
<!-- Generated by graphviz version 2.43.0 (0)
 -->
<!-- Title: G Pages: 1 -->
<svg width="1308pt" height="633pt"
 viewBox="0.00 0.00 1308.00 633.30" xmlns="http://www.w3.org/2000/svg" xmlns:xlink="http://www.w3.org/1999/xlink">
<g id="graph0" class="graph" transform="scale(1 1) rotate(0) translate(4 629.3)">
<title>G</title>
<polygon fill="#eeeeee" stroke="transparent" points="-4,4 -4,-629.3 1304,-629.3 1304,4 -4,4"/>
<g id="clust1" class="cluster">
<title>cluster_inputs</title>
<polygon fill="#eeeeee" stroke="black" stroke-dasharray="5,2" points="8,-526.87 8,-616.04 1236,-616.04 1236,-526.87 8,-526.87"/>
<text text-anchor="middle" x="1169.5" y="-534.67" font-family="Times,serif" font-size="14.00">Workflow Inputs</text>
</g>
<g id="clust2" class="cluster">
<title>cluster_outputs</title>
<polygon fill="#eeeeee" stroke="black" stroke-dasharray="5,2" points="658,-9.26 658,-98.43 1069,-98.43 1069,-9.26 658,-9.26"/>
<text text-anchor="middle" x="996.5" y="-17.06" font-family="Times,serif" font-size="14.00">Workflow Outputs</text>
</g>
<!-- resources_dir -->
<g id="node1" class="node">
<title>resources_dir</title>
<polygon fill="#94ddf4" stroke="black" points="16.5,-566.76 16.5,-603.76 129.5,-603.76 129.5,-566.76 16.5,-566.76"/>
<text text-anchor="middle" x="73" y="-581.56" font-family="Times,serif" font-size="14.00">resources_dir</text>
</g>
<!-- run_tso_ctdna_workflow_step -->
<g id="node15" class="node">
<title>run_tso_ctdna_workflow_step</title>
<polygon fill="#f3cea1" stroke="black" points="480.5,-476.76 480.5,-513.76 667.5,-513.76 667.5,-476.76 480.5,-476.76"/>
<text text-anchor="middle" x="574" y="-491.56" font-family="Times,serif" font-size="14.00">tso500&#45;ctdna v(1.2.0&#45;&#45;1)</text>
</g>
<!-- resources_dir&#45;&gt;run_tso_ctdna_workflow_step -->
<g id="edge12" class="edge">
<title>resources_dir&#45;&gt;run_tso_ctdna_workflow_step</title>
<path fill="none" stroke="black" d="M90.95,-566.61C103.37,-555.57 120.86,-542.17 139,-535.26 154.27,-529.45 346.26,-513.78 470.02,-504.16"/>
<polygon fill="black" stroke="black" points="470.59,-507.63 480.29,-503.37 470.05,-500.65 470.59,-507.63"/>
</g>
<!-- get_tso_manifest_bed_from_resources_dir -->
<g id="node18" class="node">
<title>get_tso_manifest_bed_from_resources_dir</title>
<polygon fill="lightgoldenrodyellow" stroke="black" points="73.5,-476.76 73.5,-513.76 306.5,-513.76 306.5,-476.76 73.5,-476.76"/>
<text text-anchor="middle" x="190" y="-491.56" font-family="Times,serif" font-size="14.00">get&#45;file&#45;from&#45;directory v(1.0.0)</text>
</g>
<!-- resources_dir&#45;&gt;get_tso_manifest_bed_from_resources_dir -->
<g id="edge13" class="edge">
<title>resources_dir&#45;&gt;get_tso_manifest_bed_from_resources_dir</title>
<path fill="none" stroke="black" d="M96.4,-566.67C114.25,-553.24 139.03,-534.6 158.61,-519.87"/>
<polygon fill="black" stroke="black" points="160.76,-522.64 166.65,-513.83 156.55,-517.04 160.76,-522.64"/>
</g>
<!-- coerce_valid_index -->
<g id="node2" class="node">
<title>coerce_valid_index</title>
<polygon fill="#94ddf4" stroke="black" points="630,-566.76 630,-603.76 780,-603.76 780,-566.76 630,-566.76"/>
<text text-anchor="middle" x="705" y="-581.56" font-family="Times,serif" font-size="14.00">coerce_valid_index</text>
</g>
<!-- coerce_valid_index&#45;&gt;run_tso_ctdna_workflow_step -->
<g id="edge14" class="edge">
<title>coerce_valid_index&#45;&gt;run_tso_ctdna_workflow_step</title>
<path fill="none" stroke="black" d="M678.81,-566.67C658.63,-553.12 630.57,-534.27 608.56,-519.48"/>
<polygon fill="black" stroke="black" points="610.4,-516.5 600.15,-513.83 606.5,-522.31 610.4,-516.5"/>
</g>
<!-- dragen_license_key -->
<g id="node3" class="node">
<title>dragen_license_key</title>
<polygon fill="#94ddf4" stroke="black" points="456.5,-566.76 456.5,-603.76 611.5,-603.76 611.5,-566.76 456.5,-566.76"/>
<text text-anchor="middle" x="534" y="-581.56" font-family="Times,serif" font-size="14.00">dragen_license_key</text>
</g>
<!-- dragen_license_key&#45;&gt;run_tso_ctdna_workflow_step -->
<g id="edge15" class="edge">
<title>dragen_license_key&#45;&gt;run_tso_ctdna_workflow_step</title>
<path fill="none" stroke="black" d="M542.09,-566.46C547.73,-554.05 555.36,-537.28 561.74,-523.24"/>
<polygon fill="black" stroke="black" points="564.97,-524.6 565.92,-514.05 558.59,-521.7 564.97,-524.6"/>
</g>
<!-- run_info_xml -->
<g id="node4" class="node">
<title>run_info_xml</title>
<polygon fill="#94ddf4" stroke="black" points="330,-566.76 330,-603.76 438,-603.76 438,-566.76 330,-566.76"/>
<text text-anchor="middle" x="384" y="-581.56" font-family="Times,serif" font-size="14.00">run_info_xml</text>
</g>
<!-- run_info_xml&#45;&gt;run_tso_ctdna_workflow_step -->
<g id="edge16" class="edge">
<title>run_info_xml&#45;&gt;run_tso_ctdna_workflow_step</title>
<path fill="none" stroke="black" d="M403.23,-566.64C415.34,-556.31 431.71,-543.68 448,-535.26 461.77,-528.15 477.06,-522.07 492.11,-516.98"/>
<polygon fill="black" stroke="black" points="493.53,-520.2 501.95,-513.78 491.36,-513.55 493.53,-520.2"/>
</g>
<!-- run_parameters_xml -->
<g id="node5" class="node">
<title>run_parameters_xml</title>
<polygon fill="#94ddf4" stroke="black" points="148,-566.76 148,-603.76 312,-603.76 312,-566.76 148,-566.76"/>
<text text-anchor="middle" x="230" y="-581.56" font-family="Times,serif" font-size="14.00">run_parameters_xml</text>
</g>
<!-- run_parameters_xml&#45;&gt;run_tso_ctdna_workflow_step -->
<g id="edge17" class="edge">
<title>run_parameters_xml&#45;&gt;run_tso_ctdna_workflow_step</title>
<path fill="none" stroke="black" d="M256.77,-566.69C274.34,-555.97 298.2,-542.91 321,-535.26 368.7,-519.27 423.68,-509.8 470.18,-504.21"/>
<polygon fill="black" stroke="black" points="470.74,-507.66 480.27,-503.04 469.93,-500.71 470.74,-507.66"/>
</g>
<!-- samplesheet -->
<g id="node6" class="node">
<title>samplesheet</title>
<polygon fill="#94ddf4" stroke="black" points="971.5,-566.76 971.5,-603.76 1078.5,-603.76 1078.5,-566.76 971.5,-566.76"/>
<text text-anchor="middle" x="1025" y="-581.56" font-family="Times,serif" font-size="14.00">samplesheet</text>
</g>
<!-- samplesheet&#45;&gt;run_tso_ctdna_workflow_step -->
<g id="edge18" class="edge">
<title>samplesheet&#45;&gt;run_tso_ctdna_workflow_step</title>
<path fill="none" stroke="black" d="M1008.3,-566.67C996.71,-555.65 980.3,-542.26 963,-535.26 913.02,-515.05 775.25,-504.9 677.9,-500.11"/>
<polygon fill="black" stroke="black" points="677.88,-496.61 667.73,-499.63 677.55,-503.6 677.88,-496.61"/>
</g>
<!-- samplesheet_prefix -->
<g id="node7" class="node">
<title>samplesheet_prefix</title>
<polygon fill="#94ddf4" stroke="black" points="798.5,-566.76 798.5,-603.76 953.5,-603.76 953.5,-566.76 798.5,-566.76"/>
<text text-anchor="middle" x="876" y="-581.56" font-family="Times,serif" font-size="14.00">samplesheet_prefix</text>
</g>
<!-- samplesheet_prefix&#45;&gt;run_tso_ctdna_workflow_step -->
<g id="edge19" class="edge">
<title>samplesheet_prefix&#45;&gt;run_tso_ctdna_workflow_step</title>
<path fill="none" stroke="black" d="M850.07,-566.62C833.32,-556.01 810.69,-543.09 789,-535.26 753.69,-522.53 713.56,-513.81 677.6,-507.91"/>
<polygon fill="black" stroke="black" points="678.01,-504.43 667.58,-506.32 676.91,-511.34 678.01,-504.43"/>
</g>
<!-- tso500_samples -->
<g id="node8" class="node">
<title>tso500_samples</title>
<polygon fill="#94ddf4" stroke="black" points="1096.5,-566.76 1096.5,-603.76 1227.5,-603.76 1227.5,-566.76 1096.5,-566.76"/>
<text text-anchor="middle" x="1162" y="-581.56" font-family="Times,serif" font-size="14.00">tso500_samples</text>
</g>
<!-- tso500_samples&#45;&gt;run_tso_ctdna_workflow_step -->
<g id="edge20" class="edge">
<title>tso500_samples&#45;&gt;run_tso_ctdna_workflow_step</title>
<path fill="none" stroke="black" d="M1141.53,-566.54C1127.47,-555.46 1107.82,-542.06 1088,-535.26 1050.34,-522.35 816.75,-508.55 677.76,-501.33"/>
<polygon fill="black" stroke="black" points="677.68,-497.82 667.51,-500.8 677.32,-504.81 677.68,-497.82"/>
</g>
<!-- get_sample_ids_from_tso500_sample_object -->
<g id="node17" class="node">
<title>get_sample_ids_from_tso500_sample_object</title>
<polygon fill="lightgoldenrodyellow" stroke="black" points="958,-476.76 958,-513.76 1284,-513.76 1284,-476.76 958,-476.76"/>
<text text-anchor="middle" x="1121" y="-491.56" font-family="Times,serif" font-size="14.00">get&#45;attr&#45;from&#45;tso500&#45;sample&#45;object v(1.2.0)</text>
</g>
<!-- tso500_samples&#45;&gt;get_sample_ids_from_tso500_sample_object -->
<g id="edge21" class="edge">
<title>tso500_samples&#45;&gt;get_sample_ids_from_tso500_sample_object</title>
<path fill="none" stroke="black" d="M1153.7,-566.46C1147.92,-554.05 1140.11,-537.28 1133.57,-523.24"/>
<polygon fill="black" stroke="black" points="1136.68,-521.63 1129.28,-514.05 1130.34,-524.59 1136.68,-521.63"/>
</g>
<!-- output_results_dir -->
<g id="node9" class="node">
<title>output_results_dir</title>
<polygon fill="#94ddf4" stroke="black" points="666.5,-48.76 666.5,-85.76 813.5,-85.76 813.5,-48.76 666.5,-48.76"/>
<text text-anchor="middle" x="740" y="-63.56" font-family="Times,serif" font-size="14.00">output_results_dir</text>
</g>
<!-- output_results_dir_by_sample -->
<g id="node10" class="node">
<title>output_results_dir_by_sample</title>
<polygon fill="#94ddf4" stroke="black" points="831.5,-48.76 831.5,-85.76 1060.5,-85.76 1060.5,-48.76 831.5,-48.76"/>
<text text-anchor="middle" x="946" y="-63.56" font-family="Times,serif" font-size="14.00">output_results_dir_by_sample</text>
</g>
<!-- get_final_directory_output_for_tso500_pipeline -->
<g id="node11" class="node">
<title>get_final_directory_output_for_tso500_pipeline</title>
<polygon fill="lightgoldenrodyellow" stroke="black" points="393,-305.76 393,-342.76 899,-342.76 899,-305.76 393,-305.76"/>
<text text-anchor="middle" x="646" y="-320.56" font-family="Times,serif" font-size="14.00">get&#45;custom&#45;output&#45;dir&#45;entry&#45;for&#45;tso500&#45;with&#45;post&#45;processing v(2.0.1)</text>
</g>
<!-- create_final_output_directory -->
<g id="node12" class="node">
<title>create_final_output_directory</title>
<polygon fill="lightgoldenrodyellow" stroke="black" points="616.5,-219.76 616.5,-256.76 863.5,-256.76 863.5,-219.76 616.5,-219.76"/>
<text text-anchor="middle" x="740" y="-234.56" font-family="Times,serif" font-size="14.00">custom&#45;create&#45;directory v(2.0.1)</text>
</g>
<!-- get_final_directory_output_for_tso500_pipeline&#45;&gt;create_final_output_directory -->
<g id="edge1" class="edge">
<title>get_final_directory_output_for_tso500_pipeline&#45;&gt;create_final_output_directory</title>
<path fill="none" stroke="black" d="M665.93,-305.45C679.61,-293.23 697.92,-276.86 712.92,-263.46"/>
<polygon fill="black" stroke="black" points="715.29,-266.04 720.42,-256.76 710.63,-260.82 715.29,-266.04"/>
</g>
<!-- create_final_output_directory&#45;&gt;output_results_dir -->
<g id="edge3" class="edge">
<title>create_final_output_directory&#45;&gt;output_results_dir</title>
<path fill="none" stroke="black" d="M740,-219.5C740,-190.01 740,-130.74 740,-95.8"/>
<polygon fill="black" stroke="black" points="743.5,-95.79 740,-85.79 736.5,-95.79 743.5,-95.79"/>
</g>
<!-- get_sample_output_directory -->
<g id="node13" class="node">
<title>get_sample_output_directory</title>
<polygon fill="lightgoldenrodyellow" stroke="black" points="795,-134.76 795,-171.76 1097,-171.76 1097,-134.76 795,-134.76"/>
<text text-anchor="middle" x="946" y="-149.56" font-family="Times,serif" font-size="14.00">get&#45;subdirectory&#45;from&#45;directory v(1.0.0)</text>
</g>
<!-- create_final_output_directory&#45;&gt;get_sample_output_directory -->
<g id="edge2" class="edge">
<title>create_final_output_directory&#45;&gt;get_sample_output_directory</title>
<path fill="none" stroke="black" d="M783.44,-219.76C815.37,-206.89 858.95,-189.34 892.95,-175.64"/>
<polygon fill="black" stroke="black" points="894.3,-178.87 902.27,-171.88 891.69,-172.37 894.3,-178.87"/>
</g>
<!-- get_sample_output_directory&#45;&gt;output_results_dir_by_sample -->
<g id="edge9" class="edge">
<title>get_sample_output_directory&#45;&gt;output_results_dir_by_sample</title>
<path fill="none" stroke="black" d="M946,-134.45C946,-123.24 946,-108.54 946,-95.84"/>
<polygon fill="black" stroke="black" points="949.5,-95.76 946,-85.76 942.5,-95.76 949.5,-95.76"/>
</g>
<!-- get_intermediate_samplesheet_from_validation_step -->
<g id="node14" class="node">
<title>get_intermediate_samplesheet_from_validation_step</title>
<polygon fill="lightgoldenrodyellow" stroke="black" points="457.5,-391.76 457.5,-428.76 690.5,-428.76 690.5,-391.76 457.5,-391.76"/>
<text text-anchor="middle" x="574" y="-406.56" font-family="Times,serif" font-size="14.00">get&#45;file&#45;from&#45;directory v(1.0.0)</text>
</g>
<!-- get_intermediate_samplesheet_from_validation_step&#45;&gt;get_final_directory_output_for_tso500_pipeline -->
<g id="edge4" class="edge">
<title>get_intermediate_samplesheet_from_validation_step&#45;&gt;get_final_directory_output_for_tso500_pipeline</title>
<path fill="none" stroke="black" d="M589.27,-391.45C599.46,-379.56 613,-363.76 624.3,-350.58"/>
<polygon fill="black" stroke="black" points="627.15,-352.63 631,-342.76 621.83,-348.08 627.15,-352.63"/>
</g>
<!-- run_tso_ctdna_workflow_step&#45;&gt;get_final_directory_output_for_tso500_pipeline -->
<g id="edge5" class="edge">
<title>run_tso_ctdna_workflow_step&#45;&gt;get_final_directory_output_for_tso500_pipeline</title>
<path fill="none" stroke="black" d="M638.44,-476.69C662.03,-466.8 686.3,-451.75 700,-429.26 716,-403 694.28,-371.49 673.8,-350.08"/>
<polygon fill="black" stroke="black" points="676.22,-347.55 666.67,-342.96 671.27,-352.51 676.22,-347.55"/>
</g>
<!-- run_tso_ctdna_workflow_step&#45;&gt;get_intermediate_samplesheet_from_validation_step -->
<g id="edge6" class="edge">
<title>run_tso_ctdna_workflow_step&#45;&gt;get_intermediate_samplesheet_from_validation_step</title>
<path fill="none" stroke="black" d="M574,-476.66C574,-465.77 574,-451.54 574,-439.14"/>
<polygon fill="black" stroke="black" points="577.5,-438.84 574,-428.84 570.5,-438.84 577.5,-438.84"/>
</g>
<!-- run_tso_ctdna_post_processing_workflow_step -->
<g id="node16" class="node">
<title>run_tso_ctdna_post_processing_workflow_step</title>
<polygon fill="#f3cea1" stroke="black" points="92.5,-391.76 92.5,-428.76 439.5,-428.76 439.5,-391.76 92.5,-391.76"/>
<text text-anchor="middle" x="266" y="-406.56" font-family="Times,serif" font-size="14.00">tso500&#45;ctdna&#45;post&#45;processing&#45;pipeline v(1.0.0)</text>
</g>
<!-- run_tso_ctdna_workflow_step&#45;&gt;run_tso_ctdna_post_processing_workflow_step -->
<g id="edge7" class="edge">
<title>run_tso_ctdna_workflow_step&#45;&gt;run_tso_ctdna_post_processing_workflow_step</title>
<path fill="none" stroke="black" d="M509.06,-476.76C459.9,-463.51 392.29,-445.3 340.85,-431.43"/>
<polygon fill="black" stroke="black" points="341.68,-428.03 331.12,-428.81 339.86,-434.79 341.68,-428.03"/>
</g>
<!-- run_tso_ctdna_post_processing_workflow_step&#45;&gt;get_final_directory_output_for_tso500_pipeline -->
<g id="edge8" class="edge">
<title>run_tso_ctdna_post_processing_workflow_step&#45;&gt;get_final_directory_output_for_tso500_pipeline</title>
<path fill="none" stroke="black" d="M345.2,-391.76C406.83,-378.13 492.37,-359.22 556.48,-345.05"/>
<polygon fill="black" stroke="black" points="557.57,-348.4 566.58,-342.82 556.06,-341.56 557.57,-348.4"/>
</g>
<!-- get_sample_ids_from_tso500_sample_object&#45;&gt;get_sample_output_directory -->
<g id="edge10" class="edge">
<title>get_sample_ids_from_tso500_sample_object&#45;&gt;get_sample_output_directory</title>
<path fill="none" stroke="black" d="M1111.84,-476.46C1083.01,-420.46 994.07,-247.66 959.73,-180.94"/>
<polygon fill="black" stroke="black" points="962.76,-179.18 955.07,-171.89 956.54,-182.38 962.76,-179.18"/>
</g>
<!-- get_tso_manifest_bed_from_resources_dir&#45;&gt;run_tso_ctdna_post_processing_workflow_step -->
<g id="edge11" class="edge">
<title>get_tso_manifest_bed_from_resources_dir&#45;&gt;run_tso_ctdna_post_processing_workflow_step</title>
<path fill="none" stroke="black" d="M206.12,-476.66C216.8,-465 230.98,-449.51 242.86,-436.54"/>
<polygon fill="black" stroke="black" points="245.73,-438.58 249.91,-428.84 240.57,-433.85 245.73,-438.58"/>
</g>
<!-- \n -->
<g id="node19" class="node">
<title>\n</title>
<ellipse fill="none" stroke="black" cx="1273" cy="-585.26" rx="27" ry="18"/>
</g>
</g>
</svg>
