<?xml version="1.0" encoding="UTF-8" standalone="no"?>
<!DOCTYPE svg PUBLIC "-//W3C//DTD SVG 1.1//EN"
 "http://www.w3.org/Graphics/SVG/1.1/DTD/svg11.dtd">
<!-- Generated by graphviz version 2.43.0 (0)
 -->
<!-- Title: G Pages: 1 -->
<svg width="7748pt" height="1966pt"
 viewBox="0.00 0.00 7747.50 1965.97" xmlns="http://www.w3.org/2000/svg" xmlns:xlink="http://www.w3.org/1999/xlink">
<g id="graph0" class="graph" transform="scale(1 1) rotate(0) translate(4 1961.97)">
<title>G</title>
<polygon fill="#eeeeee" stroke="transparent" points="-4,4 -4,-1961.97 7743.5,-1961.97 7743.5,4 -4,4"/>
<g id="clust1" class="cluster">
<title>cluster_inputs</title>
<polygon fill="#eeeeee" stroke="black" stroke-dasharray="5,2" points="352,-1434.61 352,-1908.71 7652,-1908.71 7652,-1434.61 352,-1434.61"/>
<text text-anchor="middle" x="7585.5" y="-1442.41" font-family="Times,serif" font-size="14.00">Workflow Inputs</text>
</g>
<g id="clust2" class="cluster">
<title>cluster_outputs</title>
<polygon fill="#eeeeee" stroke="black" stroke-dasharray="5,2" points="3813,-49.26 3813,-523.36 4469,-523.36 4469,-49.26 3813,-49.26"/>
<text text-anchor="middle" x="4396.5" y="-57.06" font-family="Times,serif" font-size="14.00">Workflow Outputs</text>
</g>
<!-- fastq_list_rows -->
<g id="node1" class="node">
<title>fastq_list_rows</title>
<polygon fill="#94ddf4" stroke="black" points="7520.5,-1723.76 7520.5,-1760.76 7643.5,-1760.76 7643.5,-1723.76 7520.5,-1723.76"/>
<text text-anchor="middle" x="7582" y="-1738.56" font-family="Times,serif" font-size="14.00">fastq_list_rows</text>
</g>
<!-- create_fastq_list_csv_step -->
<g id="node59" class="node">
<title>create_fastq_list_csv_step</title>
<polygon fill="lightgoldenrodyellow" stroke="black" points="0,-1723.76 0,-1760.76 342,-1760.76 342,-1723.76 0,-1723.76"/>
<text text-anchor="middle" x="171" y="-1738.56" font-family="Times,serif" font-size="14.00">custom&#45;create&#45;csv&#45;from&#45;fastq&#45;list&#45;row v(1.0.0)</text>
</g>
<!-- fastq_list_rows&#45;&gt;create_fastq_list_csv_step -->
<g id="edge8" class="edge">
<title>fastq_list_rows&#45;&gt;create_fastq_list_csv_step</title>
<path fill="none" stroke="black" d="M7556.8,-1760.88C7541.73,-1770.84 7521.73,-1782.09 7502,-1787.26 7406,-1812.4 455.54,-1799.01 357,-1787.26 318.42,-1782.66 276.27,-1772.87 241.86,-1763.59"/>
<polygon fill="black" stroke="black" points="242.48,-1760.13 231.91,-1760.86 240.63,-1766.88 242.48,-1760.13"/>
</g>
<!-- output_file_prefix -->
<g id="node2" class="node">
<title>output_file_prefix</title>
<polygon fill="#94ddf4" stroke="black" points="7362,-1723.76 7362,-1760.76 7502,-1760.76 7502,-1723.76 7362,-1723.76"/>
<text text-anchor="middle" x="7432" y="-1738.56" font-family="Times,serif" font-size="14.00">output_file_prefix</text>
</g>
<!-- run_dragen_alignment_step -->
<g id="node56" class="node">
<title>run_dragen_alignment_step</title>
<polygon fill="lightgoldenrodyellow" stroke="black" points="3855.5,-1249.76 3855.5,-1286.76 4058.5,-1286.76 4058.5,-1249.76 3855.5,-1249.76"/>
<text text-anchor="middle" x="3957" y="-1264.56" font-family="Times,serif" font-size="14.00">dragen&#45;alignment v(3.7.5)</text>
</g>
<!-- output_file_prefix&#45;&gt;run_dragen_alignment_step -->
<g id="edge9" class="edge">
<title>output_file_prefix&#45;&gt;run_dragen_alignment_step</title>
<path fill="none" stroke="black" d="M7409.51,-1723.63C7394.39,-1712.74 7373.54,-1699.51 7353,-1692.26 6723.61,-1469.94 4582.82,-1312.01 4068.68,-1276.71"/>
<polygon fill="black" stroke="black" points="4068.88,-1273.22 4058.66,-1276.03 4068.4,-1280.2 4068.88,-1273.22"/>
</g>
<!-- dragen_qc_step -->
<g id="node57" class="node">
<title>dragen_qc_step</title>
<polygon fill="lightgoldenrodyellow" stroke="black" points="7362.5,-793.76 7362.5,-830.76 7501.5,-830.76 7501.5,-793.76 7362.5,-793.76"/>
<text text-anchor="middle" x="7432" y="-808.56" font-family="Times,serif" font-size="14.00">multiqc v(1.10.1)</text>
</g>
<!-- output_file_prefix&#45;&gt;dragen_qc_step -->
<g id="edge10" class="edge">
<title>output_file_prefix&#45;&gt;dragen_qc_step</title>
<path fill="none" stroke="black" d="M7427.93,-1723.55C7415.68,-1609.74 7415.36,-981.49 7426.98,-841.09"/>
<polygon fill="black" stroke="black" points="7430.5,-841.06 7427.95,-830.78 7423.53,-840.4 7430.5,-841.06"/>
</g>
<!-- output_file_prefix&#45;&gt;dragen_qc_step -->
<g id="edge11" class="edge">
<title>output_file_prefix&#45;&gt;dragen_qc_step</title>
<path fill="none" stroke="black" d="M7432,-1723.55C7432,-1609.74 7432,-981.49 7432,-841.09"/>
<polygon fill="black" stroke="black" points="7435.5,-840.78 7432,-830.78 7428.5,-840.78 7435.5,-840.78"/>
</g>
<!-- output_file_prefix&#45;&gt;dragen_qc_step -->
<g id="edge12" class="edge">
<title>output_file_prefix&#45;&gt;dragen_qc_step</title>
<path fill="none" stroke="black" d="M7436.07,-1723.55C7448.32,-1609.74 7448.64,-981.49 7437.02,-841.09"/>
<polygon fill="black" stroke="black" points="7440.47,-840.4 7436.05,-830.78 7433.5,-841.06 7440.47,-840.4"/>
</g>
<!-- aln_min_score -->
<g id="node3" class="node">
<title>aln_min_score</title>
<polygon fill="#94ddf4" stroke="black" points="7226.5,-1723.76 7226.5,-1760.76 7343.5,-1760.76 7343.5,-1723.76 7226.5,-1723.76"/>
<text text-anchor="middle" x="7285" y="-1738.56" font-family="Times,serif" font-size="14.00">aln_min_score</text>
</g>
<!-- aln_min_score&#45;&gt;run_dragen_alignment_step -->
<g id="edge13" class="edge">
<title>aln_min_score&#45;&gt;run_dragen_alignment_step</title>
<path fill="none" stroke="black" d="M7266.03,-1723.61C7253.18,-1712.71 7235.27,-1699.48 7217,-1692.26 6622.4,-1457.02 4570.95,-1309.5 4068.66,-1276.37"/>
<polygon fill="black" stroke="black" points="4068.72,-1272.87 4058.51,-1275.71 4068.26,-1279.85 4068.72,-1272.87"/>
</g>
<!-- alt_aware -->
<g id="node4" class="node">
<title>alt_aware</title>
<polygon fill="#94ddf4" stroke="black" points="7122,-1723.76 7122,-1760.76 7208,-1760.76 7208,-1723.76 7122,-1723.76"/>
<text text-anchor="middle" x="7165" y="-1738.56" font-family="Times,serif" font-size="14.00">alt_aware</text>
</g>
<!-- alt_aware&#45;&gt;run_dragen_alignment_step -->
<g id="edge14" class="edge">
<title>alt_aware&#45;&gt;run_dragen_alignment_step</title>
<path fill="none" stroke="black" d="M7151.05,-1723.35C7141.55,-1712.49 7128.01,-1699.4 7113,-1692.26 6554.88,-1426.45 4563.21,-1302.23 4068.73,-1275.08"/>
<polygon fill="black" stroke="black" points="4068.91,-1271.59 4058.73,-1274.53 4068.53,-1278.58 4068.91,-1271.59"/>
</g>
<!-- ann_sj_max_indel -->
<g id="node5" class="node">
<title>ann_sj_max_indel</title>
<polygon fill="#94ddf4" stroke="black" points="6964,-1723.76 6964,-1760.76 7104,-1760.76 7104,-1723.76 6964,-1723.76"/>
<text text-anchor="middle" x="7034" y="-1738.56" font-family="Times,serif" font-size="14.00">ann_sj_max_indel</text>
</g>
<!-- ann_sj_max_indel&#45;&gt;run_dragen_alignment_step -->
<g id="edge15" class="edge">
<title>ann_sj_max_indel&#45;&gt;run_dragen_alignment_step</title>
<path fill="none" stroke="black" d="M7011.47,-1723.74C6996.33,-1712.9 6975.48,-1699.68 6955,-1692.26 5881.66,-1303.29 4471.65,-1269.85 4068.81,-1268.66"/>
<polygon fill="black" stroke="black" points="4068.63,-1265.16 4058.62,-1268.63 4068.61,-1272.16 4068.63,-1265.16"/>
</g>
<!-- dedup_min_qual -->
<g id="node6" class="node">
<title>dedup_min_qual</title>
<polygon fill="#94ddf4" stroke="black" points="6814,-1723.76 6814,-1760.76 6946,-1760.76 6946,-1723.76 6814,-1723.76"/>
<text text-anchor="middle" x="6880" y="-1738.56" font-family="Times,serif" font-size="14.00">dedup_min_qual</text>
</g>
<!-- dedup_min_qual&#45;&gt;run_dragen_alignment_step -->
<g id="edge16" class="edge">
<title>dedup_min_qual&#45;&gt;run_dragen_alignment_step</title>
<path fill="none" stroke="black" d="M6858.41,-1723.52C6844.12,-1712.74 6824.48,-1699.66 6805,-1692.26 5794.7,-1308.42 4459.49,-1271.21 4068.81,-1268.92"/>
<polygon fill="black" stroke="black" points="4068.66,-1265.42 4058.64,-1268.87 4068.62,-1272.42 4068.66,-1265.42"/>
</g>
<!-- edit_chain_limit -->
<g id="node7" class="node">
<title>edit_chain_limit</title>
<polygon fill="#94ddf4" stroke="black" points="6666.5,-1723.76 6666.5,-1760.76 6795.5,-1760.76 6795.5,-1723.76 6666.5,-1723.76"/>
<text text-anchor="middle" x="6731" y="-1738.56" font-family="Times,serif" font-size="14.00">edit_chain_limit</text>
</g>
<!-- edit_chain_limit&#45;&gt;run_dragen_alignment_step -->
<g id="edge17" class="edge">
<title>edit_chain_limit&#45;&gt;run_dragen_alignment_step</title>
<path fill="none" stroke="black" d="M6709.71,-1723.57C6695.62,-1712.8 6676.25,-1699.73 6657,-1692.26 5705.53,-1323.06 4446.77,-1275.65 4068.86,-1269.93"/>
<polygon fill="black" stroke="black" points="4068.8,-1266.43 4058.75,-1269.78 4068.7,-1273.43 4068.8,-1266.43"/>
</g>
<!-- edit_mode -->
<g id="node8" class="node">
<title>edit_mode</title>
<polygon fill="#94ddf4" stroke="black" points="6558,-1723.76 6558,-1760.76 6648,-1760.76 6648,-1723.76 6558,-1723.76"/>
<text text-anchor="middle" x="6603" y="-1738.56" font-family="Times,serif" font-size="14.00">edit_mode</text>
</g>
<!-- edit_mode&#45;&gt;run_dragen_alignment_step -->
<g id="edge18" class="edge">
<title>edit_mode&#45;&gt;run_dragen_alignment_step</title>
<path fill="none" stroke="black" d="M6588.31,-1723.5C6578.36,-1712.71 6564.28,-1699.63 6549,-1692.26 6096.95,-1474.26 4505.64,-1318.39 4068.71,-1279"/>
<polygon fill="black" stroke="black" points="4068.88,-1275.5 4058.61,-1278.09 4068.25,-1282.47 4068.88,-1275.5"/>
</g>
<!-- edit_read_len -->
<g id="node9" class="node">
<title>edit_read_len</title>
<polygon fill="#94ddf4" stroke="black" points="6428,-1723.76 6428,-1760.76 6540,-1760.76 6540,-1723.76 6428,-1723.76"/>
<text text-anchor="middle" x="6484" y="-1738.56" font-family="Times,serif" font-size="14.00">edit_read_len</text>
</g>
<!-- edit_read_len&#45;&gt;run_dragen_alignment_step -->
<g id="edge19" class="edge">
<title>edit_read_len&#45;&gt;run_dragen_alignment_step</title>
<path fill="none" stroke="black" d="M6465.63,-1723.6C6453.38,-1712.84 6436.38,-1699.77 6419,-1692.26 5569.79,-1325.13 4426.29,-1276.13 4068.65,-1270"/>
<polygon fill="black" stroke="black" points="4068.61,-1266.49 4058.55,-1269.83 4068.49,-1273.49 4068.61,-1266.49"/>
</g>
<!-- edit_seed_num -->
<g id="node10" class="node">
<title>edit_seed_num</title>
<polygon fill="#94ddf4" stroke="black" points="6288,-1723.76 6288,-1760.76 6410,-1760.76 6410,-1723.76 6288,-1723.76"/>
<text text-anchor="middle" x="6349" y="-1738.56" font-family="Times,serif" font-size="14.00">edit_seed_num</text>
</g>
<!-- edit_seed_num&#45;&gt;run_dragen_alignment_step -->
<g id="edge20" class="edge">
<title>edit_seed_num&#45;&gt;run_dragen_alignment_step</title>
<path fill="none" stroke="black" d="M6328.96,-1723.7C6315.66,-1712.98 6297.34,-1699.91 6279,-1692.26 5477.89,-1357.83 4412.46,-1287.23 4068.85,-1272.82"/>
<polygon fill="black" stroke="black" points="4068.79,-1269.31 4058.65,-1272.4 4068.5,-1276.31 4068.79,-1269.31"/>
</g>
<!-- en_alt_hap_aln -->
<g id="node11" class="node">
<title>en_alt_hap_aln</title>
<polygon fill="#94ddf4" stroke="black" points="6148.5,-1723.76 6148.5,-1760.76 6269.5,-1760.76 6269.5,-1723.76 6148.5,-1723.76"/>
<text text-anchor="middle" x="6209" y="-1738.56" font-family="Times,serif" font-size="14.00">en_alt_hap_aln</text>
</g>
<!-- en_alt_hap_aln&#45;&gt;run_dragen_alignment_step -->
<g id="edge21" class="edge">
<title>en_alt_hap_aln&#45;&gt;run_dragen_alignment_step</title>
<path fill="none" stroke="black" d="M6188.96,-1723.52C6175.89,-1712.87 6157.96,-1699.95 6140,-1692.26 5392.92,-1372.47 4398.41,-1292.58 4068.54,-1274.29"/>
<polygon fill="black" stroke="black" points="4068.68,-1270.79 4058.5,-1273.74 4068.29,-1277.78 4068.68,-1270.79"/>
</g>
<!-- en_chimeric_aln -->
<g id="node12" class="node">
<title>en_chimeric_aln</title>
<polygon fill="#94ddf4" stroke="black" points="5999.5,-1723.76 5999.5,-1760.76 6130.5,-1760.76 6130.5,-1723.76 5999.5,-1723.76"/>
<text text-anchor="middle" x="6065" y="-1738.56" font-family="Times,serif" font-size="14.00">en_chimeric_aln</text>
</g>
<!-- en_chimeric_aln&#45;&gt;run_dragen_alignment_step -->
<g id="edge22" class="edge">
<title>en_chimeric_aln&#45;&gt;run_dragen_alignment_step</title>
<path fill="none" stroke="black" d="M6043.27,-1723.65C6029.15,-1713.06 6009.92,-1700.14 5991,-1692.26 5296.31,-1402.66 4382.69,-1304.13 4068.62,-1277.59"/>
<polygon fill="black" stroke="black" points="4068.86,-1274.1 4058.61,-1276.75 4068.28,-1281.07 4068.86,-1274.1"/>
</g>
<!-- enable_duplicate_marking -->
<g id="node13" class="node">
<title>enable_duplicate_marking</title>
<polygon fill="#94ddf4" stroke="black" points="5778.5,-1723.76 5778.5,-1760.76 5981.5,-1760.76 5981.5,-1723.76 5778.5,-1723.76"/>
<text text-anchor="middle" x="5880" y="-1738.56" font-family="Times,serif" font-size="14.00">enable_duplicate_marking</text>
</g>
<!-- enable_duplicate_marking&#45;&gt;run_dragen_alignment_step -->
<g id="edge23" class="edge">
<title>enable_duplicate_marking&#45;&gt;run_dragen_alignment_step</title>
<path fill="none" stroke="black" d="M5845.01,-1723.62C5823.73,-1713.41 5795.76,-1700.91 5770,-1692.26 5141.33,-1481.03 4355.69,-1336.66 4068.61,-1287.67"/>
<polygon fill="black" stroke="black" points="4069.05,-1284.19 4058.6,-1285.97 4067.88,-1291.09 4069.05,-1284.19"/>
</g>
<!-- enable_map_align -->
<g id="node14" class="node">
<title>enable_map_align</title>
<polygon fill="#94ddf4" stroke="black" points="5617.5,-1723.76 5617.5,-1760.76 5760.5,-1760.76 5760.5,-1723.76 5617.5,-1723.76"/>
<text text-anchor="middle" x="5689" y="-1738.56" font-family="Times,serif" font-size="14.00">enable_map_align</text>
</g>
<!-- enable_map_align&#45;&gt;run_dragen_alignment_step -->
<g id="edge24" class="edge">
<title>enable_map_align&#45;&gt;run_dragen_alignment_step</title>
<path fill="none" stroke="black" d="M5664.46,-1723.56C5649.14,-1713.2 5628.65,-1700.57 5609,-1692.26 5055.43,-1458.14 4340.93,-1329.32 4068.87,-1286.03"/>
<polygon fill="black" stroke="black" points="4069.02,-1282.51 4058.6,-1284.4 4067.93,-1289.42 4069.02,-1282.51"/>
</g>
<!-- enable_sort -->
<g id="node15" class="node">
<title>enable_sort</title>
<polygon fill="#94ddf4" stroke="black" points="5500.5,-1723.76 5500.5,-1760.76 5599.5,-1760.76 5599.5,-1723.76 5500.5,-1723.76"/>
<text text-anchor="middle" x="5550" y="-1738.56" font-family="Times,serif" font-size="14.00">enable_sort</text>
</g>
<!-- enable_sort&#45;&gt;run_dragen_alignment_step -->
<g id="edge25" class="edge">
<title>enable_sort&#45;&gt;run_dragen_alignment_step</title>
<path fill="none" stroke="black" d="M5533.19,-1723.62C5522.33,-1713.15 5507.39,-1700.37 5492,-1692.26 4999.15,-1432.41 4330.84,-1319.52 4068.87,-1283.26"/>
<polygon fill="black" stroke="black" points="4068.97,-1279.74 4058.59,-1281.84 4068.02,-1286.67 4068.97,-1279.74"/>
</g>
<!-- gap_ext_pen -->
<g id="node16" class="node">
<title>gap_ext_pen</title>
<polygon fill="#94ddf4" stroke="black" points="5377.5,-1723.76 5377.5,-1760.76 5482.5,-1760.76 5482.5,-1723.76 5377.5,-1723.76"/>
<text text-anchor="middle" x="5430" y="-1738.56" font-family="Times,serif" font-size="14.00">gap_ext_pen</text>
</g>
<!-- gap_ext_pen&#45;&gt;run_dragen_alignment_step -->
<g id="edge26" class="edge">
<title>gap_ext_pen&#45;&gt;run_dragen_alignment_step</title>
<path fill="none" stroke="black" d="M5411.84,-1723.54C5400.36,-1713.17 5384.75,-1700.54 5369,-1692.26 4918.24,-1455.35 4315.09,-1331.16 4068.82,-1287.6"/>
<polygon fill="black" stroke="black" points="4069.24,-1284.12 4058.78,-1285.83 4068.03,-1291.01 4069.24,-1284.12"/>
</g>
<!-- gap_open_pen -->
<g id="node17" class="node">
<title>gap_open_pen</title>
<polygon fill="#94ddf4" stroke="black" points="5242.5,-1723.76 5242.5,-1760.76 5359.5,-1760.76 5359.5,-1723.76 5242.5,-1723.76"/>
<text text-anchor="middle" x="5301" y="-1738.56" font-family="Times,serif" font-size="14.00">gap_open_pen</text>
</g>
<!-- gap_open_pen&#45;&gt;run_dragen_alignment_step -->
<g id="edge27" class="edge">
<title>gap_open_pen&#45;&gt;run_dragen_alignment_step</title>
<path fill="none" stroke="black" d="M5280.39,-1723.57C5267.67,-1713.34 5250.65,-1700.84 5234,-1692.26 4815.03,-1476.44 4263.09,-1338.03 4048.15,-1289.09"/>
<polygon fill="black" stroke="black" points="4048.7,-1285.63 4038.17,-1286.83 4047.15,-1292.45 4048.7,-1285.63"/>
</g>
<!-- generate_md_tags -->
<g id="node18" class="node">
<title>generate_md_tags</title>
<polygon fill="#94ddf4" stroke="black" points="5077.5,-1723.76 5077.5,-1760.76 5224.5,-1760.76 5224.5,-1723.76 5077.5,-1723.76"/>
<text text-anchor="middle" x="5151" y="-1738.56" font-family="Times,serif" font-size="14.00">generate_md_tags</text>
</g>
<!-- generate_md_tags&#45;&gt;run_dragen_alignment_step -->
<g id="edge28" class="edge">
<title>generate_md_tags&#45;&gt;run_dragen_alignment_step</title>
<path fill="none" stroke="black" d="M5123.98,-1723.72C5108.05,-1713.8 5087.3,-1701.55 5068,-1692.26 4684.02,-1507.46 4196.73,-1345.59 4022.55,-1289.88"/>
<polygon fill="black" stroke="black" points="4023.6,-1286.54 4013.01,-1286.83 4021.47,-1293.21 4023.6,-1286.54"/>
</g>
<!-- generate_sa_tags -->
<g id="node19" class="node">
<title>generate_sa_tags</title>
<polygon fill="#94ddf4" stroke="black" points="4919,-1723.76 4919,-1760.76 5059,-1760.76 5059,-1723.76 4919,-1723.76"/>
<text text-anchor="middle" x="4989" y="-1738.56" font-family="Times,serif" font-size="14.00">generate_sa_tags</text>
</g>
<!-- generate_sa_tags&#45;&gt;run_dragen_alignment_step -->
<g id="edge29" class="edge">
<title>generate_sa_tags&#45;&gt;run_dragen_alignment_step</title>
<path fill="none" stroke="black" d="M4962.48,-1723.54C4947.39,-1713.78 4927.98,-1701.76 4910,-1692.26 4578.83,-1517.12 4160.28,-1348.7 4012.07,-1290.6"/>
<polygon fill="black" stroke="black" points="4013.29,-1287.32 4002.7,-1286.93 4010.73,-1293.84 4013.29,-1287.32"/>
</g>
<!-- generate_zs_tags -->
<g id="node20" class="node">
<title>generate_zs_tags</title>
<polygon fill="#94ddf4" stroke="black" points="4761,-1723.76 4761,-1760.76 4901,-1760.76 4901,-1723.76 4761,-1723.76"/>
<text text-anchor="middle" x="4831" y="-1738.56" font-family="Times,serif" font-size="14.00">generate_zs_tags</text>
</g>
<!-- generate_zs_tags&#45;&gt;run_dragen_alignment_step -->
<g id="edge30" class="edge">
<title>generate_zs_tags&#45;&gt;run_dragen_alignment_step</title>
<path fill="none" stroke="black" d="M4803.48,-1723.57C4788.42,-1714.05 4769.35,-1702.24 4752,-1692.26 4470.35,-1530.22 4122.03,-1352.48 4000.93,-1291.34"/>
<polygon fill="black" stroke="black" points="4002.43,-1288.18 3991.93,-1286.8 3999.28,-1294.43 4002.43,-1288.18"/>
</g>
<!-- global -->
<g id="node21" class="node">
<title>global</title>
<polygon fill="#94ddf4" stroke="black" points="4683,-1723.76 4683,-1760.76 4743,-1760.76 4743,-1723.76 4683,-1723.76"/>
<text text-anchor="middle" x="4713" y="-1738.56" font-family="Times,serif" font-size="14.00">global</text>
</g>
<!-- global&#45;&gt;run_dragen_alignment_step -->
<g id="edge31" class="edge">
<title>global&#45;&gt;run_dragen_alignment_step</title>
<path fill="none" stroke="black" d="M4701.76,-1723.59C4694.84,-1713.61 4685.34,-1701.36 4675,-1692.26 4454.06,-1497.78 4130.81,-1345.25 4007.41,-1290.83"/>
<polygon fill="black" stroke="black" points="4008.74,-1287.59 3998.18,-1286.77 4005.93,-1294 4008.74,-1287.59"/>
</g>
<!-- hard_clips -->
<g id="node22" class="node">
<title>hard_clips</title>
<polygon fill="#94ddf4" stroke="black" points="4576.5,-1723.76 4576.5,-1760.76 4665.5,-1760.76 4665.5,-1723.76 4576.5,-1723.76"/>
<text text-anchor="middle" x="4621" y="-1738.56" font-family="Times,serif" font-size="14.00">hard_clips</text>
</g>
<!-- hard_clips&#45;&gt;run_dragen_alignment_step -->
<g id="edge32" class="edge">
<title>hard_clips&#45;&gt;run_dragen_alignment_step</title>
<path fill="none" stroke="black" d="M4602.54,-1723.4C4592.34,-1713.83 4579.29,-1702.02 4567,-1692.26 4358.86,-1526.82 4090.02,-1353.31 3993.5,-1292.18"/>
<polygon fill="black" stroke="black" points="3995.29,-1289.18 3984.97,-1286.79 3991.55,-1295.09 3995.29,-1289.18"/>
</g>
<!-- map_orientations -->
<g id="node23" class="node">
<title>map_orientations</title>
<polygon fill="#94ddf4" stroke="black" points="4418,-1723.76 4418,-1760.76 4558,-1760.76 4558,-1723.76 4418,-1723.76"/>
<text text-anchor="middle" x="4488" y="-1738.56" font-family="Times,serif" font-size="14.00">map_orientations</text>
</g>
<!-- map_orientations&#45;&gt;run_dragen_alignment_step -->
<g id="edge33" class="edge">
<title>map_orientations&#45;&gt;run_dragen_alignment_step</title>
<path fill="none" stroke="black" d="M4468.15,-1723.62C4386.83,-1651.33 4078.96,-1377.67 3984.64,-1293.82"/>
<polygon fill="black" stroke="black" points="3986.75,-1291.01 3976.95,-1286.99 3982.1,-1296.25 3986.75,-1291.01"/>
</g>
<!-- mapq_max -->
<g id="node24" class="node">
<title>mapq_max</title>
<polygon fill="#94ddf4" stroke="black" points="4306.5,-1723.76 4306.5,-1760.76 4399.5,-1760.76 4399.5,-1723.76 4306.5,-1723.76"/>
<text text-anchor="middle" x="4353" y="-1738.56" font-family="Times,serif" font-size="14.00">mapq_max</text>
</g>
<!-- mapq_max&#45;&gt;run_dragen_alignment_step -->
<g id="edge34" class="edge">
<title>mapq_max&#45;&gt;run_dragen_alignment_step</title>
<path fill="none" stroke="black" d="M4338.2,-1723.62C4277.87,-1651.7 4050.31,-1380.48 3978.71,-1295.13"/>
<polygon fill="black" stroke="black" points="3981.2,-1292.65 3972.09,-1287.24 3975.83,-1297.15 3981.2,-1292.65"/>
</g>
<!-- mapq_strict_js -->
<g id="node25" class="node">
<title>mapq_strict_js</title>
<polygon fill="#94ddf4" stroke="black" points="4168,-1723.76 4168,-1760.76 4288,-1760.76 4288,-1723.76 4168,-1723.76"/>
<text text-anchor="middle" x="4228" y="-1738.56" font-family="Times,serif" font-size="14.00">mapq_strict_js</text>
</g>
<!-- mapq_strict_js&#45;&gt;run_dragen_alignment_step -->
<g id="edge35" class="edge">
<title>mapq_strict_js&#45;&gt;run_dragen_alignment_step</title>
<path fill="none" stroke="black" d="M4217.87,-1723.62C4176.71,-1651.92 4021.8,-1382.12 3972.3,-1295.91"/>
<polygon fill="black" stroke="black" points="3975.34,-1294.17 3967.32,-1287.24 3969.27,-1297.65 3975.34,-1294.17"/>
</g>
<!-- match_n_score -->
<g id="node26" class="node">
<title>match_n_score</title>
<polygon fill="#94ddf4" stroke="black" points="4028,-1723.76 4028,-1760.76 4150,-1760.76 4150,-1723.76 4028,-1723.76"/>
<text text-anchor="middle" x="4089" y="-1738.56" font-family="Times,serif" font-size="14.00">match_n_score</text>
</g>
<!-- match_n_score&#45;&gt;run_dragen_alignment_step -->
<g id="edge36" class="edge">
<title>match_n_score&#45;&gt;run_dragen_alignment_step</title>
<path fill="none" stroke="black" d="M4084.07,-1723.62C4064.1,-1652.21 3989.17,-1384.3 3964.75,-1296.97"/>
<polygon fill="black" stroke="black" points="3968.09,-1295.93 3962.03,-1287.24 3961.35,-1297.81 3968.09,-1295.93"/>
</g>
<!-- match_score -->
<g id="node27" class="node">
<title>match_score</title>
<polygon fill="#94ddf4" stroke="black" points="3904,-1723.76 3904,-1760.76 4010,-1760.76 4010,-1723.76 3904,-1723.76"/>
<text text-anchor="middle" x="3957" y="-1738.56" font-family="Times,serif" font-size="14.00">match_score</text>
</g>
<!-- match_score&#45;&gt;run_dragen_alignment_step -->
<g id="edge37" class="edge">
<title>match_score&#45;&gt;run_dragen_alignment_step</title>
<path fill="none" stroke="black" d="M3957,-1723.62C3957,-1652.36 3957,-1385.39 3957,-1297.5"/>
<polygon fill="black" stroke="black" points="3960.5,-1297.24 3957,-1287.24 3953.5,-1297.24 3960.5,-1297.24"/>
</g>
<!-- max_intron_bases -->
<g id="node28" class="node">
<title>max_intron_bases</title>
<polygon fill="#94ddf4" stroke="black" points="3742,-1723.76 3742,-1760.76 3886,-1760.76 3886,-1723.76 3742,-1723.76"/>
<text text-anchor="middle" x="3814" y="-1738.56" font-family="Times,serif" font-size="14.00">max_intron_bases</text>
</g>
<!-- max_intron_bases&#45;&gt;run_dragen_alignment_step -->
<g id="edge38" class="edge">
<title>max_intron_bases&#45;&gt;run_dragen_alignment_step</title>
<path fill="none" stroke="black" d="M3819.34,-1723.62C3840.98,-1652.21 3922.15,-1384.3 3948.6,-1296.97"/>
<polygon fill="black" stroke="black" points="3952,-1297.82 3951.55,-1287.24 3945.3,-1295.8 3952,-1297.82"/>
</g>
<!-- max_rescues -->
<g id="node29" class="node">
<title>max_rescues</title>
<polygon fill="#94ddf4" stroke="black" points="3616,-1723.76 3616,-1760.76 3724,-1760.76 3724,-1723.76 3616,-1723.76"/>
<text text-anchor="middle" x="3670" y="-1738.56" font-family="Times,serif" font-size="14.00">max_rescues</text>
</g>
<!-- max_rescues&#45;&gt;run_dragen_alignment_step -->
<g id="edge39" class="edge">
<title>max_rescues&#45;&gt;run_dragen_alignment_step</title>
<path fill="none" stroke="black" d="M3680.73,-1723.62C3724.32,-1651.92 3888.37,-1382.12 3940.79,-1295.91"/>
<polygon fill="black" stroke="black" points="3943.86,-1297.6 3946.07,-1287.24 3937.88,-1293.97 3943.86,-1297.6"/>
</g>
<!-- min_intron_bases -->
<g id="node30" class="node">
<title>min_intron_bases</title>
<polygon fill="#94ddf4" stroke="black" points="3456.5,-1723.76 3456.5,-1760.76 3597.5,-1760.76 3597.5,-1723.76 3456.5,-1723.76"/>
<text text-anchor="middle" x="3527" y="-1738.56" font-family="Times,serif" font-size="14.00">min_intron_bases</text>
</g>
<!-- min_intron_bases&#45;&gt;run_dragen_alignment_step -->
<g id="edge40" class="edge">
<title>min_intron_bases&#45;&gt;run_dragen_alignment_step</title>
<path fill="none" stroke="black" d="M3543.07,-1723.62C3608.65,-1651.63 3856.17,-1379.93 3933.66,-1294.88"/>
<polygon fill="black" stroke="black" points="3936.47,-1296.99 3940.62,-1287.24 3931.3,-1292.27 3936.47,-1296.99"/>
</g>
<!-- min_score_coeff -->
<g id="node31" class="node">
<title>min_score_coeff</title>
<polygon fill="#94ddf4" stroke="black" points="3309.5,-1723.76 3309.5,-1760.76 3438.5,-1760.76 3438.5,-1723.76 3309.5,-1723.76"/>
<text text-anchor="middle" x="3374" y="-1738.56" font-family="Times,serif" font-size="14.00">min_score_coeff</text>
</g>
<!-- min_score_coeff&#45;&gt;run_dragen_alignment_step -->
<g id="edge41" class="edge">
<title>min_score_coeff&#45;&gt;run_dragen_alignment_step</title>
<path fill="none" stroke="black" d="M3395.79,-1723.62C3485.25,-1651.19 3824.45,-1376.57 3927.28,-1293.32"/>
<polygon fill="black" stroke="black" points="3929.53,-1296 3935.1,-1286.99 3925.13,-1290.56 3929.53,-1296"/>
</g>
<!-- mismatch_pen -->
<g id="node32" class="node">
<title>mismatch_pen</title>
<polygon fill="#94ddf4" stroke="black" points="3172.5,-1723.76 3172.5,-1760.76 3291.5,-1760.76 3291.5,-1723.76 3172.5,-1723.76"/>
<text text-anchor="middle" x="3232" y="-1738.56" font-family="Times,serif" font-size="14.00">mismatch_pen</text>
</g>
<!-- mismatch_pen&#45;&gt;run_dragen_alignment_step -->
<g id="edge42" class="edge">
<title>mismatch_pen&#45;&gt;run_dragen_alignment_step</title>
<path fill="none" stroke="black" d="M3256.08,-1723.76C3269.25,-1714.29 3285.91,-1702.47 3301,-1692.26 3533.56,-1534.82 3819.51,-1355.07 3919.99,-1292.31"/>
<polygon fill="black" stroke="black" points="3921.94,-1295.21 3928.57,-1286.95 3918.24,-1289.28 3921.94,-1295.21"/>
</g>
<!-- no_unclip_score -->
<g id="node33" class="node">
<title>no_unclip_score</title>
<polygon fill="#94ddf4" stroke="black" points="3025.5,-1723.76 3025.5,-1760.76 3154.5,-1760.76 3154.5,-1723.76 3025.5,-1723.76"/>
<text text-anchor="middle" x="3090" y="-1738.56" font-family="Times,serif" font-size="14.00">no_unclip_score</text>
</g>
<!-- no_unclip_score&#45;&gt;run_dragen_alignment_step -->
<g id="edge43" class="edge">
<title>no_unclip_score&#45;&gt;run_dragen_alignment_step</title>
<path fill="none" stroke="black" d="M3115.3,-1723.64C3129.42,-1714.03 3147.45,-1702.12 3164,-1692.26 3441.92,-1526.62 3789.86,-1351.8 3912.08,-1291.34"/>
<polygon fill="black" stroke="black" points="3913.75,-1294.41 3921.16,-1286.85 3910.65,-1288.14 3913.75,-1294.41"/>
</g>
<!-- no_unpaired -->
<g id="node34" class="node">
<title>no_unpaired</title>
<polygon fill="#94ddf4" stroke="black" points="2903,-1723.76 2903,-1760.76 3007,-1760.76 3007,-1723.76 2903,-1723.76"/>
<text text-anchor="middle" x="2955" y="-1738.56" font-family="Times,serif" font-size="14.00">no_unpaired</text>
</g>
<!-- no_unpaired&#45;&gt;run_dragen_alignment_step -->
<g id="edge44" class="edge">
<title>no_unpaired&#45;&gt;run_dragen_alignment_step</title>
<path fill="none" stroke="black" d="M2974.74,-1723.59C2986.49,-1713.62 3001.99,-1701.37 3017,-1692.26 3330.55,-1501.81 3744.7,-1345.13 3897.27,-1290.26"/>
<polygon fill="black" stroke="black" points="3898.71,-1293.46 3906.94,-1286.79 3896.35,-1286.87 3898.71,-1293.46"/>
</g>
<!-- output_directory -->
<g id="node35" class="node">
<title>output_directory</title>
<polygon fill="#94ddf4" stroke="black" points="2749,-1723.76 2749,-1760.76 2885,-1760.76 2885,-1723.76 2749,-1723.76"/>
<text text-anchor="middle" x="2817" y="-1738.56" font-family="Times,serif" font-size="14.00">output_directory</text>
</g>
<!-- output_directory&#45;&gt;run_dragen_alignment_step -->
<g id="edge45" class="edge">
<title>output_directory&#45;&gt;run_dragen_alignment_step</title>
<path fill="none" stroke="black" d="M2841.96,-1723.68C2856.69,-1713.74 2875.94,-1701.49 2894,-1692.26 3258.33,-1505.94 3724.71,-1345.55 3892.93,-1290.03"/>
<polygon fill="black" stroke="black" points="3894.22,-1293.28 3902.63,-1286.83 3892.03,-1286.64 3894.22,-1293.28"/>
</g>
<!-- pe_max_penalty -->
<g id="node36" class="node">
<title>pe_max_penalty</title>
<polygon fill="#94ddf4" stroke="black" points="2599.5,-1723.76 2599.5,-1760.76 2730.5,-1760.76 2730.5,-1723.76 2599.5,-1723.76"/>
<text text-anchor="middle" x="2665" y="-1738.56" font-family="Times,serif" font-size="14.00">pe_max_penalty</text>
</g>
<!-- pe_max_penalty&#45;&gt;run_dragen_alignment_step -->
<g id="edge46" class="edge">
<title>pe_max_penalty&#45;&gt;run_dragen_alignment_step</title>
<path fill="none" stroke="black" d="M2688.76,-1723.58C2703.09,-1713.48 2721.99,-1701.1 2740,-1692.26 3150.17,-1490.77 3680.76,-1341.47 3878.33,-1289.39"/>
<polygon fill="black" stroke="black" points="3879.27,-1292.76 3888.05,-1286.84 3877.49,-1285.99 3879.27,-1292.76"/>
</g>
<!-- pe_orientation -->
<g id="node37" class="node">
<title>pe_orientation</title>
<polygon fill="#94ddf4" stroke="black" points="2462.5,-1723.76 2462.5,-1760.76 2581.5,-1760.76 2581.5,-1723.76 2462.5,-1723.76"/>
<text text-anchor="middle" x="2522" y="-1738.56" font-family="Times,serif" font-size="14.00">pe_orientation</text>
</g>
<!-- pe_orientation&#45;&gt;run_dragen_alignment_step -->
<g id="edge47" class="edge">
<title>pe_orientation&#45;&gt;run_dragen_alignment_step</title>
<path fill="none" stroke="black" d="M2542.95,-1723.72C2556.08,-1713.41 2573.74,-1700.78 2591,-1692.26 3038.13,-1471.34 3624.68,-1336.66 3856.5,-1288.91"/>
<polygon fill="black" stroke="black" points="3857.51,-1292.28 3866.6,-1286.84 3856.11,-1285.42 3857.51,-1292.28"/>
</g>
<!-- preserve_map_align_order -->
<g id="node38" class="node">
<title>preserve_map_align_order</title>
<polygon fill="#94ddf4" stroke="black" points="2239.5,-1723.76 2239.5,-1760.76 2444.5,-1760.76 2444.5,-1723.76 2239.5,-1723.76"/>
<text text-anchor="middle" x="2342" y="-1738.56" font-family="Times,serif" font-size="14.00">preserve_map_align_order</text>
</g>
<!-- preserve_map_align_order&#45;&gt;run_dragen_alignment_step -->
<g id="edge48" class="edge">
<title>preserve_map_align_order&#45;&gt;run_dragen_alignment_step</title>
<path fill="none" stroke="black" d="M2378.56,-1723.73C2400.2,-1713.75 2428.32,-1701.44 2454,-1692.26 2982.17,-1503.41 3638.48,-1343.49 3870.7,-1289.11"/>
<polygon fill="black" stroke="black" points="3871.84,-1292.44 3880.78,-1286.76 3870.24,-1285.63 3871.84,-1292.44"/>
</g>
<!-- reference_tar -->
<g id="node39" class="node">
<title>reference_tar</title>
<polygon fill="#94ddf4" stroke="black" points="2108.5,-1723.76 2108.5,-1760.76 2221.5,-1760.76 2221.5,-1723.76 2108.5,-1723.76"/>
<text text-anchor="middle" x="2165" y="-1738.56" font-family="Times,serif" font-size="14.00">reference_tar</text>
</g>
<!-- reference_tar&#45;&gt;run_dragen_alignment_step -->
<g id="edge49" class="edge">
<title>reference_tar&#45;&gt;run_dragen_alignment_step</title>
<path fill="none" stroke="black" d="M2184.45,-1723.55C2196.94,-1713.05 2213.95,-1700.27 2231,-1692.26 2801.89,-1423.85 3561.93,-1314.35 3844.76,-1281.15"/>
<polygon fill="black" stroke="black" points="3845.5,-1284.59 3855.03,-1279.95 3844.69,-1277.63 3845.5,-1284.59"/>
</g>
<!-- remove_duplicates -->
<g id="node40" class="node">
<title>remove_duplicates</title>
<polygon fill="#94ddf4" stroke="black" points="1940,-1723.76 1940,-1760.76 2090,-1760.76 2090,-1723.76 1940,-1723.76"/>
<text text-anchor="middle" x="2015" y="-1738.56" font-family="Times,serif" font-size="14.00">remove_duplicates</text>
</g>
<!-- remove_duplicates&#45;&gt;run_dragen_alignment_step -->
<g id="edge50" class="edge">
<title>remove_duplicates&#45;&gt;run_dragen_alignment_step</title>
<path fill="none" stroke="black" d="M2040.77,-1723.68C2057.12,-1713.23 2079.07,-1700.46 2100,-1692.26 2734.56,-1443.61 3551.12,-1321.14 3845.24,-1282.86"/>
<polygon fill="black" stroke="black" points="3846.01,-1286.29 3855.48,-1281.53 3845.11,-1279.34 3846.01,-1286.29"/>
</g>
<!-- rescue_sigmas -->
<g id="node41" class="node">
<title>rescue_sigmas</title>
<polygon fill="#94ddf4" stroke="black" points="1800.5,-1723.76 1800.5,-1760.76 1921.5,-1760.76 1921.5,-1723.76 1800.5,-1723.76"/>
<text text-anchor="middle" x="1861" y="-1738.56" font-family="Times,serif" font-size="14.00">rescue_sigmas</text>
</g>
<!-- rescue_sigmas&#45;&gt;run_dragen_alignment_step -->
<g id="edge51" class="edge">
<title>rescue_sigmas&#45;&gt;run_dragen_alignment_step</title>
<path fill="none" stroke="black" d="M1881.41,-1723.62C1894.71,-1713.01 1912.89,-1700.09 1931,-1692.26 2619.17,-1394.56 3531.58,-1301.13 3845.43,-1276.76"/>
<polygon fill="black" stroke="black" points="3845.73,-1280.25 3855.44,-1275.99 3845.2,-1273.27 3845.73,-1280.25"/>
</g>
<!-- sec_aligns -->
<g id="node42" class="node">
<title>sec_aligns</title>
<polygon fill="#94ddf4" stroke="black" points="1693.5,-1723.76 1693.5,-1760.76 1782.5,-1760.76 1782.5,-1723.76 1693.5,-1723.76"/>
<text text-anchor="middle" x="1738" y="-1738.56" font-family="Times,serif" font-size="14.00">sec_aligns</text>
</g>
<!-- sec_aligns&#45;&gt;run_dragen_alignment_step -->
<g id="edge52" class="edge">
<title>sec_aligns&#45;&gt;run_dragen_alignment_step</title>
<path fill="none" stroke="black" d="M1752.77,-1723.66C1762.75,-1712.93 1776.84,-1699.86 1792,-1692.26 2513.25,-1330.48 3513.78,-1277.68 3845.34,-1270.32"/>
<polygon fill="black" stroke="black" points="3845.5,-1273.82 3855.42,-1270.11 3845.35,-1266.82 3845.5,-1273.82"/>
</g>
<!-- sec_aligns_hard -->
<g id="node43" class="node">
<title>sec_aligns_hard</title>
<polygon fill="#94ddf4" stroke="black" points="1546.5,-1723.76 1546.5,-1760.76 1675.5,-1760.76 1675.5,-1723.76 1546.5,-1723.76"/>
<text text-anchor="middle" x="1611" y="-1738.56" font-family="Times,serif" font-size="14.00">sec_aligns_hard</text>
</g>
<!-- sec_aligns_hard&#45;&gt;run_dragen_alignment_step -->
<g id="edge53" class="edge">
<title>sec_aligns_hard&#45;&gt;run_dragen_alignment_step</title>
<path fill="none" stroke="black" d="M1632.36,-1723.75C1646.48,-1713.06 1665.86,-1700 1685,-1692.26 2470.9,-1374.28 3507.3,-1293.03 3845.27,-1274.36"/>
<polygon fill="black" stroke="black" points="3845.51,-1277.85 3855.3,-1273.81 3845.13,-1270.86 3845.51,-1277.85"/>
</g>
<!-- sec_phred_delta -->
<g id="node44" class="node">
<title>sec_phred_delta</title>
<polygon fill="#94ddf4" stroke="black" points="1397.5,-1723.76 1397.5,-1760.76 1528.5,-1760.76 1528.5,-1723.76 1397.5,-1723.76"/>
<text text-anchor="middle" x="1463" y="-1738.56" font-family="Times,serif" font-size="14.00">sec_phred_delta</text>
</g>
<!-- sec_phred_delta&#45;&gt;run_dragen_alignment_step -->
<g id="edge54" class="edge">
<title>sec_phred_delta&#45;&gt;run_dragen_alignment_step</title>
<path fill="none" stroke="black" d="M1484.66,-1723.69C1498.97,-1712.98 1518.61,-1699.91 1538,-1692.26 2381.56,-1359.32 3493.4,-1287.62 3845.27,-1272.89"/>
<polygon fill="black" stroke="black" points="3845.61,-1276.38 3855.45,-1272.47 3845.32,-1269.39 3845.61,-1276.38"/>
</g>
<!-- sec_score_delta -->
<g id="node45" class="node">
<title>sec_score_delta</title>
<polygon fill="#94ddf4" stroke="black" points="1251,-1723.76 1251,-1760.76 1379,-1760.76 1379,-1723.76 1251,-1723.76"/>
<text text-anchor="middle" x="1315" y="-1738.56" font-family="Times,serif" font-size="14.00">sec_score_delta</text>
</g>
<!-- sec_score_delta&#45;&gt;run_dragen_alignment_step -->
<g id="edge55" class="edge">
<title>sec_score_delta&#45;&gt;run_dragen_alignment_step</title>
<path fill="none" stroke="black" d="M1336.31,-1723.62C1350.41,-1712.87 1369.78,-1699.8 1389,-1692.26 2289.32,-1338.84 3479.48,-1280.7 3845.29,-1271.14"/>
<polygon fill="black" stroke="black" points="3845.45,-1274.64 3855.35,-1270.88 3845.27,-1267.64 3845.45,-1274.64"/>
</g>
<!-- seed_density -->
<g id="node46" class="node">
<title>seed_density</title>
<polygon fill="#94ddf4" stroke="black" points="1123.5,-1723.76 1123.5,-1760.76 1232.5,-1760.76 1232.5,-1723.76 1123.5,-1723.76"/>
<text text-anchor="middle" x="1178" y="-1738.56" font-family="Times,serif" font-size="14.00">seed_density</text>
</g>
<!-- seed_density&#45;&gt;run_dragen_alignment_step -->
<g id="edge56" class="edge">
<title>seed_density&#45;&gt;run_dragen_alignment_step</title>
<path fill="none" stroke="black" d="M1195.74,-1723.74C1207.78,-1712.9 1224.63,-1699.68 1242,-1692.26 1726.56,-1485.1 3396.99,-1320.44 3845.45,-1279.23"/>
<polygon fill="black" stroke="black" points="3845.85,-1282.71 3855.49,-1278.31 3845.21,-1275.74 3845.85,-1282.71"/>
</g>
<!-- supp_aligns -->
<g id="node47" class="node">
<title>supp_aligns</title>
<polygon fill="#94ddf4" stroke="black" points="1004.5,-1723.76 1004.5,-1760.76 1105.5,-1760.76 1105.5,-1723.76 1004.5,-1723.76"/>
<text text-anchor="middle" x="1055" y="-1738.56" font-family="Times,serif" font-size="14.00">supp_aligns</text>
</g>
<!-- supp_aligns&#45;&gt;run_dragen_alignment_step -->
<g id="edge57" class="edge">
<title>supp_aligns&#45;&gt;run_dragen_alignment_step</title>
<path fill="none" stroke="black" d="M1071.41,-1723.69C1082.62,-1712.82 1098.39,-1699.6 1115,-1692.26 1620.97,-1468.56 3383.58,-1314.96 3845.48,-1277.91"/>
<polygon fill="black" stroke="black" points="3845.8,-1281.4 3855.49,-1277.11 3845.25,-1274.42 3845.8,-1281.4"/>
</g>
<!-- supp_as_sec -->
<g id="node48" class="node">
<title>supp_as_sec</title>
<polygon fill="#94ddf4" stroke="black" points="882,-1723.76 882,-1760.76 986,-1760.76 986,-1723.76 882,-1723.76"/>
<text text-anchor="middle" x="934" y="-1738.56" font-family="Times,serif" font-size="14.00">supp_as_sec</text>
</g>
<!-- supp_as_sec&#45;&gt;run_dragen_alignment_step -->
<g id="edge58" class="edge">
<title>supp_as_sec&#45;&gt;run_dragen_alignment_step</title>
<path fill="none" stroke="black" d="M951.05,-1723.66C962.67,-1712.79 978.98,-1699.56 996,-1692.26 1526.7,-1464.52 3370.4,-1313.2 3844.93,-1277.43"/>
<polygon fill="black" stroke="black" points="3845.5,-1280.89 3855.21,-1276.65 3844.97,-1273.91 3845.5,-1280.89"/>
</g>
<!-- supp_min_score_adj -->
<g id="node49" class="node">
<title>supp_min_score_adj</title>
<polygon fill="#94ddf4" stroke="black" points="706,-1723.76 706,-1760.76 864,-1760.76 864,-1723.76 706,-1723.76"/>
<text text-anchor="middle" x="785" y="-1738.56" font-family="Times,serif" font-size="14.00">supp_min_score_adj</text>
</g>
<!-- supp_min_score_adj&#45;&gt;run_dragen_alignment_step -->
<g id="edge59" class="edge">
<title>supp_min_score_adj&#45;&gt;run_dragen_alignment_step</title>
<path fill="none" stroke="black" d="M810.76,-1723.53C827.7,-1712.75 850.77,-1699.68 873,-1692.26 1988.87,-1319.76 3436.87,-1274.9 3845.38,-1269.81"/>
<polygon fill="black" stroke="black" points="3845.46,-1273.31 3855.42,-1269.69 3845.38,-1266.31 3845.46,-1273.31"/>
</g>
<!-- unclip_score -->
<g id="node50" class="node">
<title>unclip_score</title>
<polygon fill="#94ddf4" stroke="black" points="582.5,-1723.76 582.5,-1760.76 687.5,-1760.76 687.5,-1723.76 582.5,-1723.76"/>
<text text-anchor="middle" x="635" y="-1738.56" font-family="Times,serif" font-size="14.00">unclip_score</text>
</g>
<!-- unclip_score&#45;&gt;run_dragen_alignment_step -->
<g id="edge60" class="edge">
<title>unclip_score&#45;&gt;run_dragen_alignment_step</title>
<path fill="none" stroke="black" d="M652.02,-1723.59C663.62,-1712.68 679.93,-1699.45 697,-1692.26 1286.23,-1443.88 3341.71,-1306.23 3845.09,-1275.76"/>
<polygon fill="black" stroke="black" points="3845.49,-1279.24 3855.26,-1275.15 3845.07,-1272.26 3845.49,-1279.24"/>
</g>
<!-- unpaired_pen -->
<g id="node51" class="node">
<title>unpaired_pen</title>
<polygon fill="#94ddf4" stroke="black" points="451.5,-1723.76 451.5,-1760.76 564.5,-1760.76 564.5,-1723.76 451.5,-1723.76"/>
<text text-anchor="middle" x="508" y="-1738.56" font-family="Times,serif" font-size="14.00">unpaired_pen</text>
</g>
<!-- unpaired_pen&#45;&gt;run_dragen_alignment_step -->
<g id="edge61" class="edge">
<title>unpaired_pen&#45;&gt;run_dragen_alignment_step</title>
<path fill="none" stroke="black" d="M526.31,-1723.57C538.74,-1712.66 556.12,-1699.43 574,-1692.26 1191.18,-1444.66 3331.18,-1305.83 3845.31,-1275.58"/>
<polygon fill="black" stroke="black" points="3845.55,-1279.07 3855.32,-1274.99 3845.14,-1272.08 3845.55,-1279.07"/>
</g>
<!-- verbose -->
<g id="node52" class="node">
<title>verbose</title>
<polygon fill="#94ddf4" stroke="black" points="360.5,-1723.76 360.5,-1760.76 433.5,-1760.76 433.5,-1723.76 360.5,-1723.76"/>
<text text-anchor="middle" x="397" y="-1738.56" font-family="Times,serif" font-size="14.00">verbose</text>
</g>
<!-- verbose&#45;&gt;run_dragen_alignment_step -->
<g id="edge62" class="edge">
<title>verbose&#45;&gt;run_dragen_alignment_step</title>
<path fill="none" stroke="black" d="M408.88,-1723.29C417.1,-1712.41 429.05,-1699.32 443,-1692.26 1061.04,-1379.57 3315.7,-1289.57 3845.16,-1272.53"/>
<polygon fill="black" stroke="black" points="3845.59,-1276.02 3855.47,-1272.2 3845.37,-1269.03 3845.59,-1276.02"/>
</g>
<!-- dragen_alignment_output_directory -->
<g id="node53" class="node">
<title>dragen_alignment_output_directory</title>
<polygon fill="#94ddf4" stroke="black" points="3821,-338.76 3821,-375.76 4093,-375.76 4093,-338.76 3821,-338.76"/>
<text text-anchor="middle" x="3957" y="-353.56" font-family="Times,serif" font-size="14.00">dragen_alignment_output_directory</text>
</g>
<!-- dragen_bam_out -->
<g id="node54" class="node">
<title>dragen_bam_out</title>
<polygon fill="#94ddf4" stroke="black" points="4111,-338.76 4111,-375.76 4245,-375.76 4245,-338.76 4111,-338.76"/>
<text text-anchor="middle" x="4178" y="-353.56" font-family="Times,serif" font-size="14.00">dragen_bam_out</text>
</g>
<!-- multiqc_output_directory -->
<g id="node55" class="node">
<title>multiqc_output_directory</title>
<polygon fill="#94ddf4" stroke="black" points="4263.5,-338.76 4263.5,-375.76 4460.5,-375.76 4460.5,-338.76 4263.5,-338.76"/>
<text text-anchor="middle" x="4362" y="-353.56" font-family="Times,serif" font-size="14.00">multiqc_output_directory</text>
</g>
<!-- run_dragen_alignment_step&#45;&gt;dragen_alignment_output_directory -->
<g id="edge2" class="edge">
<title>run_dragen_alignment_step&#45;&gt;dragen_alignment_output_directory</title>
<path fill="none" stroke="black" d="M3957,-1249.51C3957,-1137.18 3957,-525.34 3957,-386.35"/>
<polygon fill="black" stroke="black" points="3960.5,-386.12 3957,-376.12 3953.5,-386.12 3960.5,-386.12"/>
</g>
<!-- run_dragen_alignment_step&#45;&gt;dragen_bam_out -->
<g id="edge3" class="edge">
<title>run_dragen_alignment_step&#45;&gt;dragen_bam_out</title>
<path fill="none" stroke="black" d="M3961.32,-1249.51C3988.65,-1137.07 4137.68,-524.11 4171.27,-385.94"/>
<polygon fill="black" stroke="black" points="4174.7,-386.66 4173.66,-376.12 4167.89,-385.01 4174.7,-386.66"/>
</g>
<!-- run_dragen_alignment_step&#45;&gt;dragen_qc_step -->
<g id="edge1" class="edge">
<title>run_dragen_alignment_step&#45;&gt;dragen_qc_step</title>
<path fill="none" stroke="black" d="M4058.65,-1253.98C4573.94,-1186.65 6891.05,-883.93 7352.08,-823.7"/>
<polygon fill="black" stroke="black" points="7352.84,-827.13 7362.3,-822.36 7351.93,-820.19 7352.84,-827.13"/>
</g>
<!-- dragen_qc_step&#45;&gt;multiqc_output_directory -->
<g id="edge4" class="edge">
<title>dragen_qc_step&#45;&gt;multiqc_output_directory</title>
<path fill="none" stroke="black" d="M7362.48,-801C6963.02,-742.06 4960.69,-446.6 4470.46,-374.26"/>
<polygon fill="black" stroke="black" points="4470.95,-370.8 4460.55,-372.8 4469.93,-377.72 4470.95,-370.8"/>
</g>
<!-- create_dummy_file_step -->
<g id="node58" class="node">
<title>create_dummy_file_step</title>
<polygon fill="lightgoldenrodyellow" stroke="black" points="7478.5,-1249.76 7478.5,-1286.76 7739.5,-1286.76 7739.5,-1249.76 7478.5,-1249.76"/>
<text text-anchor="middle" x="7609" y="-1264.56" font-family="Times,serif" font-size="14.00">custom&#45;create&#45;dummy&#45;file v(1.0.0)</text>
</g>
<!-- create_dummy_file_step&#45;&gt;dragen_qc_step -->
<g id="edge5" class="edge">
<title>create_dummy_file_step&#45;&gt;dragen_qc_step</title>
<path fill="none" stroke="black" d="M7602.17,-1249.74C7575.12,-1180.37 7475.42,-924.62 7442.57,-840.37"/>
<polygon fill="black" stroke="black" points="7445.8,-839.01 7438.91,-830.97 7439.28,-841.56 7445.8,-839.01"/>
</g>
<!-- create_fastq_list_csv_step&#45;&gt;run_dragen_alignment_step -->
<g id="edge6" class="edge">
<title>create_fastq_list_csv_step&#45;&gt;run_dragen_alignment_step</title>
<path fill="none" stroke="black" d="M218.14,-1723.72C251.58,-1713.22 297.54,-1700.38 339,-1692.26 1705.72,-1424.63 3399.08,-1304.01 3845.14,-1275.88"/>
<polygon fill="black" stroke="black" points="3845.68,-1279.35 3855.44,-1275.23 3845.25,-1272.37 3845.68,-1279.35"/>
</g>
<!-- create_fastq_list_csv_step&#45;&gt;run_dragen_alignment_step -->
<g id="edge7" class="edge">
<title>create_fastq_list_csv_step&#45;&gt;run_dragen_alignment_step</title>
<path fill="none" stroke="black" d="M233.64,-1723.72C269.58,-1713.22 315.54,-1700.38 357,-1692.26 1716.81,-1425.98 3399.97,-1305.24 3844.91,-1276.32"/>
<polygon fill="black" stroke="black" points="3845.44,-1279.79 3855.19,-1275.65 3844.98,-1272.8 3845.44,-1279.79"/>
</g>
<!-- \n -->
<g id="node60" class="node">
<title>\n</title>
<ellipse fill="none" stroke="black" cx="7689" cy="-1742.26" rx="27" ry="18"/>
</g>
</g>
</svg>
