<?xml version="1.0" encoding="UTF-8" standalone="no"?>
<!DOCTYPE svg PUBLIC "-//W3C//DTD SVG 1.1//EN"
 "http://www.w3.org/Graphics/SVG/1.1/DTD/svg11.dtd">
<!-- Generated by graphviz version 2.43.0 (0)
 -->
<!-- Title: G Pages: 1 -->
<svg width="7739pt" height="1964pt"
 viewBox="0.00 0.00 7739.00 1963.94" xmlns="http://www.w3.org/2000/svg" xmlns:xlink="http://www.w3.org/1999/xlink">
<g id="graph0" class="graph" transform="scale(1 1) rotate(0) translate(4 1959.94)">
<title>G</title>
<polygon fill="#eeeeee" stroke="transparent" points="-4,4 -4,-1959.94 7735,-1959.94 7735,4 -4,4"/>
<g id="clust1" class="cluster">
<title>cluster_inputs</title>
<polygon fill="#eeeeee" stroke="black" stroke-dasharray="5,2" points="8,-1433.13 8,-1906.74 7307,-1906.74 7307,-1433.13 8,-1433.13"/>
<text text-anchor="middle" x="7240.5" y="-1440.93" font-family="Times,serif" font-size="14.00">Workflow Inputs</text>
</g>
<g id="clust2" class="cluster">
<title>cluster_outputs</title>
<polygon fill="#eeeeee" stroke="black" stroke-dasharray="5,2" points="3100,-49.21 3100,-522.81 3756,-522.81 3756,-49.21 3100,-49.21"/>
<text text-anchor="middle" x="3683.5" y="-57.01" font-family="Times,serif" font-size="14.00">Workflow Outputs</text>
</g>
<!-- fastq_list_rows -->
<g id="node1" class="node">
<title>fastq_list_rows</title>
<polygon fill="#94ddf4" stroke="black" points="7175.5,-1721.71 7175.5,-1758.71 7298.5,-1758.71 7298.5,-1721.71 7175.5,-1721.71"/>
<text text-anchor="middle" x="7237" y="-1736.51" font-family="Times,serif" font-size="14.00">fastq_list_rows</text>
</g>
<!-- create_fastq_list_csv_step -->
<g id="node59" class="node">
<title>create_fastq_list_csv_step</title>
<polygon fill="lightgoldenrodyellow" stroke="black" points="7317,-1721.71 7317,-1758.71 7659,-1758.71 7659,-1721.71 7317,-1721.71"/>
<text text-anchor="middle" x="7488" y="-1736.51" font-family="Times,serif" font-size="14.00">custom&#45;create&#45;csv&#45;from&#45;fastq&#45;list&#45;row v(1.0.0)</text>
</g>
<!-- output_file_prefix -->
<g id="node2" class="node">
<title>output_file_prefix</title>
<polygon fill="#94ddf4" stroke="black" points="16,-1721.71 16,-1758.71 156,-1758.71 156,-1721.71 16,-1721.71"/>
<text text-anchor="middle" x="86" y="-1736.51" font-family="Times,serif" font-size="14.00">output_file_prefix</text>
</g>
<!-- dragen_qc_step -->
<g id="node57" class="node">
<title>dragen_qc_step</title>
<polygon fill="lightgoldenrodyellow" stroke="black" points="16.5,-793.71 16.5,-830.71 155.5,-830.71 155.5,-793.71 16.5,-793.71"/>
<text text-anchor="middle" x="86" y="-808.51" font-family="Times,serif" font-size="14.00">multiqc v(1.10.1)</text>
</g>
<!-- output_file_prefix&#45;&gt;dragen_qc_step -->
<g id="edge9" class="edge">
<title>output_file_prefix&#45;&gt;dragen_qc_step</title>
<path fill="none" stroke="black" d="M81.93,-1721.53C69.69,-1608.09 69.36,-982.42 80.95,-841.43"/>
<polygon fill="black" stroke="black" points="84.47,-841.34 81.91,-831.06 77.5,-840.69 84.47,-841.34"/>
</g>
<!-- output_file_prefix&#45;&gt;dragen_qc_step -->
<g id="edge10" class="edge">
<title>output_file_prefix&#45;&gt;dragen_qc_step</title>
<path fill="none" stroke="black" d="M86,-1721.53C86,-1608.09 86,-982.42 86,-841.43"/>
<polygon fill="black" stroke="black" points="89.5,-841.06 86,-831.06 82.5,-841.06 89.5,-841.06"/>
</g>
<!-- output_file_prefix&#45;&gt;dragen_qc_step -->
<g id="edge11" class="edge">
<title>output_file_prefix&#45;&gt;dragen_qc_step</title>
<path fill="none" stroke="black" d="M90.07,-1721.53C102.31,-1608.09 102.64,-982.42 91.05,-841.43"/>
<polygon fill="black" stroke="black" points="94.5,-840.69 90.09,-831.06 87.53,-841.34 94.5,-840.69"/>
</g>
<!-- run_dragen_alignment_step -->
<g id="node58" class="node">
<title>run_dragen_alignment_step</title>
<polygon fill="lightgoldenrodyellow" stroke="black" points="3579.5,-1248.71 3579.5,-1285.71 3782.5,-1285.71 3782.5,-1248.71 3579.5,-1248.71"/>
<text text-anchor="middle" x="3681" y="-1263.51" font-family="Times,serif" font-size="14.00">dragen&#45;alignment v(3.7.5)</text>
</g>
<!-- output_file_prefix&#45;&gt;run_dragen_alignment_step -->
<g id="edge12" class="edge">
<title>output_file_prefix&#45;&gt;run_dragen_alignment_step</title>
<path fill="none" stroke="black" d="M108.8,-1721.55C124.12,-1710.66 145.23,-1697.43 166,-1690.21 819.69,-1462.99 3043.25,-1308.98 3568.94,-1275.2"/>
<polygon fill="black" stroke="black" points="3569.43,-1278.67 3579.18,-1274.54 3568.98,-1271.69 3569.43,-1278.67"/>
</g>
<!-- aln_min_score -->
<g id="node3" class="node">
<title>aln_min_score</title>
<polygon fill="#94ddf4" stroke="black" points="6818.5,-1721.71 6818.5,-1758.71 6935.5,-1758.71 6935.5,-1721.71 6818.5,-1721.71"/>
<text text-anchor="middle" x="6877" y="-1736.51" font-family="Times,serif" font-size="14.00">aln_min_score</text>
</g>
<!-- aln_min_score&#45;&gt;run_dragen_alignment_step -->
<g id="edge13" class="edge">
<title>aln_min_score&#45;&gt;run_dragen_alignment_step</title>
<path fill="none" stroke="black" d="M6858.02,-1721.59C6845.16,-1710.71 6827.25,-1697.48 6809,-1690.21 6240.55,-1463.65 4283.09,-1311.2 3792.96,-1275.99"/>
<polygon fill="black" stroke="black" points="3792.92,-1272.48 3782.7,-1275.26 3792.42,-1279.47 3792.92,-1272.48"/>
</g>
<!-- alt_aware -->
<g id="node4" class="node">
<title>alt_aware</title>
<polygon fill="#94ddf4" stroke="black" points="6714,-1721.71 6714,-1758.71 6800,-1758.71 6800,-1721.71 6714,-1721.71"/>
<text text-anchor="middle" x="6757" y="-1736.51" font-family="Times,serif" font-size="14.00">alt_aware</text>
</g>
<!-- alt_aware&#45;&gt;run_dragen_alignment_step -->
<g id="edge14" class="edge">
<title>alt_aware&#45;&gt;run_dragen_alignment_step</title>
<path fill="none" stroke="black" d="M6743.04,-1721.32C6733.53,-1710.48 6719.99,-1697.39 6705,-1690.21 6172.28,-1434.73 4274.5,-1304.2 3792.81,-1274.73"/>
<polygon fill="black" stroke="black" points="3792.91,-1271.23 3782.72,-1274.11 3792.49,-1278.22 3792.91,-1271.23"/>
</g>
<!-- ann_sj_max_indel -->
<g id="node5" class="node">
<title>ann_sj_max_indel</title>
<polygon fill="#94ddf4" stroke="black" points="6556,-1721.71 6556,-1758.71 6696,-1758.71 6696,-1721.71 6556,-1721.71"/>
<text text-anchor="middle" x="6626" y="-1736.51" font-family="Times,serif" font-size="14.00">ann_sj_max_indel</text>
</g>
<!-- ann_sj_max_indel&#45;&gt;run_dragen_alignment_step -->
<g id="edge15" class="edge">
<title>ann_sj_max_indel&#45;&gt;run_dragen_alignment_step</title>
<path fill="none" stroke="black" d="M6603.11,-1721.49C6588,-1710.71 6567.31,-1697.64 6547,-1690.21 5525.5,-1316.54 4184.49,-1273.04 3792.85,-1268.54"/>
<polygon fill="black" stroke="black" points="3792.7,-1265.04 3782.66,-1268.43 3792.62,-1272.04 3792.7,-1265.04"/>
</g>
<!-- dedup_min_qual -->
<g id="node6" class="node">
<title>dedup_min_qual</title>
<polygon fill="#94ddf4" stroke="black" points="6406,-1721.71 6406,-1758.71 6538,-1758.71 6538,-1721.71 6406,-1721.71"/>
<text text-anchor="middle" x="6472" y="-1736.51" font-family="Times,serif" font-size="14.00">dedup_min_qual</text>
</g>
<!-- dedup_min_qual&#45;&gt;run_dragen_alignment_step -->
<g id="edge16" class="edge">
<title>dedup_min_qual&#45;&gt;run_dragen_alignment_step</title>
<path fill="none" stroke="black" d="M6450.39,-1721.52C6436.09,-1710.75 6416.46,-1697.67 6397,-1690.21 5438.16,-1322.24 4171.84,-1274.71 3792.78,-1268.91"/>
<polygon fill="black" stroke="black" points="3792.69,-1265.41 3782.64,-1268.76 3792.58,-1272.41 3792.69,-1265.41"/>
</g>
<!-- edit_chain_limit -->
<g id="node7" class="node">
<title>edit_chain_limit</title>
<polygon fill="#94ddf4" stroke="black" points="6258.5,-1721.71 6258.5,-1758.71 6387.5,-1758.71 6387.5,-1721.71 6258.5,-1721.71"/>
<text text-anchor="middle" x="6323" y="-1736.51" font-family="Times,serif" font-size="14.00">edit_chain_limit</text>
</g>
<!-- edit_chain_limit&#45;&gt;run_dragen_alignment_step -->
<g id="edge17" class="edge">
<title>edit_chain_limit&#45;&gt;run_dragen_alignment_step</title>
<path fill="none" stroke="black" d="M6301.7,-1721.57C6287.59,-1710.82 6268.22,-1697.75 6249,-1690.21 5348.67,-1336.98 4158.52,-1279.41 3792.71,-1270.03"/>
<polygon fill="black" stroke="black" points="3792.73,-1266.53 3782.65,-1269.78 3792.56,-1273.53 3792.73,-1266.53"/>
</g>
<!-- edit_mode -->
<g id="node8" class="node">
<title>edit_mode</title>
<polygon fill="#94ddf4" stroke="black" points="6150,-1721.71 6150,-1758.71 6240,-1758.71 6240,-1721.71 6150,-1721.71"/>
<text text-anchor="middle" x="6195" y="-1736.51" font-family="Times,serif" font-size="14.00">edit_mode</text>
</g>
<!-- edit_mode&#45;&gt;run_dragen_alignment_step -->
<g id="edge18" class="edge">
<title>edit_mode&#45;&gt;run_dragen_alignment_step</title>
<path fill="none" stroke="black" d="M6180.29,-1721.49C6170.33,-1710.71 6156.25,-1697.64 6141,-1690.21 5714.14,-1482.22 4215.25,-1321.07 3792.67,-1278.99"/>
<polygon fill="black" stroke="black" points="3792.88,-1275.49 3782.58,-1277.99 3792.19,-1282.46 3792.88,-1275.49"/>
</g>
<!-- edit_read_len -->
<g id="node9" class="node">
<title>edit_read_len</title>
<polygon fill="#94ddf4" stroke="black" points="6020,-1721.71 6020,-1758.71 6132,-1758.71 6132,-1721.71 6020,-1721.71"/>
<text text-anchor="middle" x="6076" y="-1736.51" font-family="Times,serif" font-size="14.00">edit_read_len</text>
</g>
<!-- edit_read_len&#45;&gt;run_dragen_alignment_step -->
<g id="edge19" class="edge">
<title>edit_read_len&#45;&gt;run_dragen_alignment_step</title>
<path fill="none" stroke="black" d="M6057.6,-1721.6C6045.34,-1710.87 6028.35,-1697.8 6011,-1690.21 5212.44,-1340.69 4138.22,-1280.66 3792.86,-1270.34"/>
<polygon fill="black" stroke="black" points="3792.71,-1266.84 3782.61,-1270.05 3792.51,-1273.84 3792.71,-1266.84"/>
</g>
<!-- edit_seed_num -->
<g id="node10" class="node">
<title>edit_seed_num</title>
<polygon fill="#94ddf4" stroke="black" points="5880,-1721.71 5880,-1758.71 6002,-1758.71 6002,-1721.71 5880,-1721.71"/>
<text text-anchor="middle" x="5941" y="-1736.51" font-family="Times,serif" font-size="14.00">edit_seed_num</text>
</g>
<!-- edit_seed_num&#45;&gt;run_dragen_alignment_step -->
<g id="edge20" class="edge">
<title>edit_seed_num&#45;&gt;run_dragen_alignment_step</title>
<path fill="none" stroke="black" d="M5920.63,-1721.47C5907.35,-1710.82 5889.17,-1697.9 5871,-1690.21 5120.43,-1372.39 4123.44,-1291.91 3792.79,-1273.34"/>
<polygon fill="black" stroke="black" points="3792.91,-1269.84 3782.73,-1272.78 3792.52,-1276.83 3792.91,-1269.84"/>
</g>
<!-- en_alt_hap_aln -->
<g id="node11" class="node">
<title>en_alt_hap_aln</title>
<polygon fill="#94ddf4" stroke="black" points="5740.5,-1721.71 5740.5,-1758.71 5861.5,-1758.71 5861.5,-1721.71 5740.5,-1721.71"/>
<text text-anchor="middle" x="5801" y="-1736.51" font-family="Times,serif" font-size="14.00">en_alt_hap_aln</text>
</g>
<!-- en_alt_hap_aln&#45;&gt;run_dragen_alignment_step -->
<g id="edge21" class="edge">
<title>en_alt_hap_aln&#45;&gt;run_dragen_alignment_step</title>
<path fill="none" stroke="black" d="M5780.93,-1721.54C5767.84,-1710.92 5749.92,-1698 5732,-1690.21 5035.31,-1387.23 4109.3,-1297.69 3792.64,-1275.02"/>
<polygon fill="black" stroke="black" points="3792.77,-1271.52 3782.55,-1274.31 3792.27,-1278.5 3792.77,-1271.52"/>
</g>
<!-- en_chimeric_aln -->
<g id="node12" class="node">
<title>en_chimeric_aln</title>
<polygon fill="#94ddf4" stroke="black" points="5591.5,-1721.71 5591.5,-1758.71 5722.5,-1758.71 5722.5,-1721.71 5591.5,-1721.71"/>
<text text-anchor="middle" x="5657" y="-1736.51" font-family="Times,serif" font-size="14.00">en_chimeric_aln</text>
</g>
<!-- en_chimeric_aln&#45;&gt;run_dragen_alignment_step -->
<g id="edge22" class="edge">
<title>en_chimeric_aln&#45;&gt;run_dragen_alignment_step</title>
<path fill="none" stroke="black" d="M5635.23,-1721.69C5621.1,-1711.13 5601.86,-1698.22 5583,-1690.21 4938.67,-1416.57 4093.04,-1309.56 3792.71,-1278.61"/>
<polygon fill="black" stroke="black" points="3792.99,-1275.12 3782.69,-1277.58 3792.28,-1282.08 3792.99,-1275.12"/>
</g>
<!-- enable_duplicate_marking -->
<g id="node13" class="node">
<title>enable_duplicate_marking</title>
<polygon fill="#94ddf4" stroke="black" points="5370.5,-1721.71 5370.5,-1758.71 5573.5,-1758.71 5573.5,-1721.71 5370.5,-1721.71"/>
<text text-anchor="middle" x="5472" y="-1736.51" font-family="Times,serif" font-size="14.00">enable_duplicate_marking</text>
</g>
<!-- enable_duplicate_marking&#45;&gt;run_dragen_alignment_step -->
<g id="edge23" class="edge">
<title>enable_duplicate_marking&#45;&gt;run_dragen_alignment_step</title>
<path fill="none" stroke="black" d="M5436.47,-1721.49C5415.22,-1711.38 5387.49,-1699.01 5362,-1690.21 4778.63,-1488.75 4050.95,-1339.21 3784.71,-1287.72"/>
<polygon fill="black" stroke="black" points="3785.15,-1284.24 3774.67,-1285.78 3783.82,-1291.11 3785.15,-1284.24"/>
</g>
<!-- enable_map_align -->
<g id="node14" class="node">
<title>enable_map_align</title>
<polygon fill="#94ddf4" stroke="black" points="5209.5,-1721.71 5209.5,-1758.71 5352.5,-1758.71 5352.5,-1721.71 5209.5,-1721.71"/>
<text text-anchor="middle" x="5281" y="-1736.51" font-family="Times,serif" font-size="14.00">enable_map_align</text>
</g>
<!-- enable_map_align&#45;&gt;run_dragen_alignment_step -->
<g id="edge24" class="edge">
<title>enable_map_align&#45;&gt;run_dragen_alignment_step</title>
<path fill="none" stroke="black" d="M5256.4,-1721.65C5241.06,-1711.35 5220.57,-1698.71 5201,-1690.21 4695.4,-1470.35 4045.05,-1335.31 3790.25,-1287.65"/>
<polygon fill="black" stroke="black" points="3790.72,-1284.18 3780.25,-1285.79 3789.44,-1291.06 3790.72,-1284.18"/>
</g>
<!-- enable_sort -->
<g id="node15" class="node">
<title>enable_sort</title>
<polygon fill="#94ddf4" stroke="black" points="5092.5,-1721.71 5092.5,-1758.71 5191.5,-1758.71 5191.5,-1721.71 5092.5,-1721.71"/>
<text text-anchor="middle" x="5142" y="-1736.51" font-family="Times,serif" font-size="14.00">enable_sort</text>
</g>
<!-- enable_sort&#45;&gt;run_dragen_alignment_step -->
<g id="edge25" class="edge">
<title>enable_sort&#45;&gt;run_dragen_alignment_step</title>
<path fill="none" stroke="black" d="M5125.13,-1721.69C5114.24,-1711.27 5099.3,-1698.5 5084,-1690.21 4639.05,-1448.96 4038.12,-1327.78 3792.54,-1285.78"/>
<polygon fill="black" stroke="black" points="3792.98,-1282.3 3782.54,-1284.07 3791.81,-1289.2 3792.98,-1282.3"/>
</g>
<!-- gap_ext_pen -->
<g id="node16" class="node">
<title>gap_ext_pen</title>
<polygon fill="#94ddf4" stroke="black" points="4969.5,-1721.71 4969.5,-1758.71 5074.5,-1758.71 5074.5,-1721.71 4969.5,-1721.71"/>
<text text-anchor="middle" x="5022" y="-1736.51" font-family="Times,serif" font-size="14.00">gap_ext_pen</text>
</g>
<!-- gap_ext_pen&#45;&gt;run_dragen_alignment_step -->
<g id="edge26" class="edge">
<title>gap_ext_pen&#45;&gt;run_dragen_alignment_step</title>
<path fill="none" stroke="black" d="M5003.76,-1721.64C4992.24,-1711.33 4976.64,-1698.7 4961,-1690.21 4549.67,-1466.78 3999.56,-1334.85 3778.75,-1287.85"/>
<polygon fill="black" stroke="black" points="3779.32,-1284.39 3768.81,-1285.74 3777.86,-1291.24 3779.32,-1284.39"/>
</g>
<!-- gap_open_pen -->
<g id="node17" class="node">
<title>gap_open_pen</title>
<polygon fill="#94ddf4" stroke="black" points="4834.5,-1721.71 4834.5,-1758.71 4951.5,-1758.71 4951.5,-1721.71 4834.5,-1721.71"/>
<text text-anchor="middle" x="4893" y="-1736.51" font-family="Times,serif" font-size="14.00">gap_open_pen</text>
</g>
<!-- gap_open_pen&#45;&gt;run_dragen_alignment_step -->
<g id="edge27" class="edge">
<title>gap_open_pen&#45;&gt;run_dragen_alignment_step</title>
<path fill="none" stroke="black" d="M4871.99,-1721.48C4859.27,-1711.37 4842.38,-1698.99 4826,-1690.21 4445.87,-1486.33 3946.12,-1339.81 3757.48,-1288.38"/>
<polygon fill="black" stroke="black" points="3758.22,-1284.96 3747.66,-1285.71 3756.39,-1291.71 3758.22,-1284.96"/>
</g>
<!-- generate_md_tags -->
<g id="node18" class="node">
<title>generate_md_tags</title>
<polygon fill="#94ddf4" stroke="black" points="4669.5,-1721.71 4669.5,-1758.71 4816.5,-1758.71 4816.5,-1721.71 4669.5,-1721.71"/>
<text text-anchor="middle" x="4743" y="-1736.51" font-family="Times,serif" font-size="14.00">generate_md_tags</text>
</g>
<!-- generate_md_tags&#45;&gt;run_dragen_alignment_step -->
<g id="edge28" class="edge">
<title>generate_md_tags&#45;&gt;run_dragen_alignment_step</title>
<path fill="none" stroke="black" d="M4715.07,-1721.52C4699.2,-1711.78 4678.8,-1699.76 4660,-1690.21 4318.11,-1516.48 3888.32,-1347.52 3736.89,-1289.42"/>
<polygon fill="black" stroke="black" points="3737.91,-1286.07 3727.32,-1285.76 3735.41,-1292.6 3737.91,-1286.07"/>
</g>
<!-- generate_sa_tags -->
<g id="node19" class="node">
<title>generate_sa_tags</title>
<polygon fill="#94ddf4" stroke="black" points="4511,-1721.71 4511,-1758.71 4651,-1758.71 4651,-1721.71 4511,-1721.71"/>
<text text-anchor="middle" x="4581" y="-1736.51" font-family="Times,serif" font-size="14.00">generate_sa_tags</text>
</g>
<!-- generate_sa_tags&#45;&gt;run_dragen_alignment_step -->
<g id="edge29" class="edge">
<title>generate_sa_tags&#45;&gt;run_dragen_alignment_step</title>
<path fill="none" stroke="black" d="M4553.9,-1721.65C4538.8,-1712.06 4519.56,-1700.14 4502,-1690.21 4212.8,-1526.54 3853.48,-1351.16 3727.35,-1290.4"/>
<polygon fill="black" stroke="black" points="3728.5,-1287.07 3717.97,-1285.89 3725.47,-1293.38 3728.5,-1287.07"/>
</g>
<!-- generate_zs_tags -->
<g id="node20" class="node">
<title>generate_zs_tags</title>
<polygon fill="#94ddf4" stroke="black" points="4353,-1721.71 4353,-1758.71 4493,-1758.71 4493,-1721.71 4353,-1721.71"/>
<text text-anchor="middle" x="4423" y="-1736.51" font-family="Times,serif" font-size="14.00">generate_zs_tags</text>
</g>
<!-- generate_zs_tags&#45;&gt;run_dragen_alignment_step -->
<g id="edge30" class="edge">
<title>generate_zs_tags&#45;&gt;run_dragen_alignment_step</title>
<path fill="none" stroke="black" d="M4395.27,-1721.6C4281.06,-1649.11 3847.1,-1373.64 3717.66,-1291.48"/>
<polygon fill="black" stroke="black" points="3719.19,-1288.3 3708.87,-1285.9 3715.44,-1294.21 3719.19,-1288.3"/>
</g>
<!-- global -->
<g id="node21" class="node">
<title>global</title>
<polygon fill="#94ddf4" stroke="black" points="4275,-1721.71 4275,-1758.71 4335,-1758.71 4335,-1721.71 4275,-1721.71"/>
<text text-anchor="middle" x="4305" y="-1736.51" font-family="Times,serif" font-size="14.00">global</text>
</g>
<!-- global&#45;&gt;run_dragen_alignment_step -->
<g id="edge31" class="edge">
<title>global&#45;&gt;run_dragen_alignment_step</title>
<path fill="none" stroke="black" d="M4293.11,-1721.42C4286.12,-1711.64 4276.76,-1699.63 4267,-1690.21 4082.42,-1512.07 3818.54,-1349.1 3720.04,-1290.86"/>
<polygon fill="black" stroke="black" points="3721.7,-1287.77 3711.31,-1285.71 3718.15,-1293.8 3721.7,-1287.77"/>
</g>
<!-- hard_clips -->
<g id="node22" class="node">
<title>hard_clips</title>
<polygon fill="#94ddf4" stroke="black" points="4168.5,-1721.71 4168.5,-1758.71 4257.5,-1758.71 4257.5,-1721.71 4168.5,-1721.71"/>
<text text-anchor="middle" x="4213" y="-1736.51" font-family="Times,serif" font-size="14.00">hard_clips</text>
</g>
<!-- hard_clips&#45;&gt;run_dragen_alignment_step -->
<g id="edge32" class="edge">
<title>hard_clips&#45;&gt;run_dragen_alignment_step</title>
<path fill="none" stroke="black" d="M4193.81,-1721.68C4183.52,-1712.31 4170.6,-1700.59 4159,-1690.21 3989.03,-1538.08 3782.99,-1357.44 3709.07,-1292.75"/>
<polygon fill="black" stroke="black" points="3710.95,-1289.75 3701.12,-1285.8 3706.34,-1295.02 3710.95,-1289.75"/>
</g>
<!-- map_orientations -->
<g id="node23" class="node">
<title>map_orientations</title>
<polygon fill="#94ddf4" stroke="black" points="4010,-1721.71 4010,-1758.71 4150,-1758.71 4150,-1721.71 4010,-1721.71"/>
<text text-anchor="middle" x="4080" y="-1736.51" font-family="Times,serif" font-size="14.00">map_orientations</text>
</g>
<!-- map_orientations&#45;&gt;run_dragen_alignment_step -->
<g id="edge33" class="edge">
<title>map_orientations&#45;&gt;run_dragen_alignment_step</title>
<path fill="none" stroke="black" d="M4065.09,-1721.6C4004.3,-1649.84 3775.02,-1379.19 3702.87,-1294.03"/>
<polygon fill="black" stroke="black" points="3705.34,-1291.52 3696.2,-1286.15 3699.99,-1296.04 3705.34,-1291.52"/>
</g>
<!-- mapq_max -->
<g id="node24" class="node">
<title>mapq_max</title>
<polygon fill="#94ddf4" stroke="black" points="3898.5,-1721.71 3898.5,-1758.71 3991.5,-1758.71 3991.5,-1721.71 3898.5,-1721.71"/>
<text text-anchor="middle" x="3945" y="-1736.51" font-family="Times,serif" font-size="14.00">mapq_max</text>
</g>
<!-- mapq_max&#45;&gt;run_dragen_alignment_step -->
<g id="edge34" class="edge">
<title>mapq_max&#45;&gt;run_dragen_alignment_step</title>
<path fill="none" stroke="black" d="M3935.13,-1721.6C3895.07,-1650.13 3744.43,-1381.37 3696.06,-1295.07"/>
<polygon fill="black" stroke="black" points="3699,-1293.16 3691.06,-1286.15 3692.89,-1296.59 3699,-1293.16"/>
</g>
<!-- mapq_strict_js -->
<g id="node25" class="node">
<title>mapq_strict_js</title>
<polygon fill="#94ddf4" stroke="black" points="3760,-1721.71 3760,-1758.71 3880,-1758.71 3880,-1721.71 3760,-1721.71"/>
<text text-anchor="middle" x="3820" y="-1736.51" font-family="Times,serif" font-size="14.00">mapq_strict_js</text>
</g>
<!-- mapq_strict_js&#45;&gt;run_dragen_alignment_step -->
<g id="edge35" class="edge">
<title>mapq_strict_js&#45;&gt;run_dragen_alignment_step</title>
<path fill="none" stroke="black" d="M3814.8,-1721.6C3793.78,-1650.35 3714.88,-1383.01 3689.16,-1295.86"/>
<polygon fill="black" stroke="black" points="3692.48,-1294.75 3686.3,-1286.15 3685.77,-1296.73 3692.48,-1294.75"/>
</g>
<!-- match_n_score -->
<g id="node26" class="node">
<title>match_n_score</title>
<polygon fill="#94ddf4" stroke="black" points="3620,-1721.71 3620,-1758.71 3742,-1758.71 3742,-1721.71 3620,-1721.71"/>
<text text-anchor="middle" x="3681" y="-1736.51" font-family="Times,serif" font-size="14.00">match_n_score</text>
</g>
<!-- match_n_score&#45;&gt;run_dragen_alignment_step -->
<g id="edge36" class="edge">
<title>match_n_score&#45;&gt;run_dragen_alignment_step</title>
<path fill="none" stroke="black" d="M3681,-1721.6C3681,-1650.49 3681,-1384.09 3681,-1296.39"/>
<polygon fill="black" stroke="black" points="3684.5,-1296.15 3681,-1286.15 3677.5,-1296.15 3684.5,-1296.15"/>
</g>
<!-- match_score -->
<g id="node27" class="node">
<title>match_score</title>
<polygon fill="#94ddf4" stroke="black" points="3496,-1721.71 3496,-1758.71 3602,-1758.71 3602,-1721.71 3496,-1721.71"/>
<text text-anchor="middle" x="3549" y="-1736.51" font-family="Times,serif" font-size="14.00">match_score</text>
</g>
<!-- match_score&#45;&gt;run_dragen_alignment_step -->
<g id="edge37" class="edge">
<title>match_score&#45;&gt;run_dragen_alignment_step</title>
<path fill="none" stroke="black" d="M3553.93,-1721.6C3573.9,-1650.35 3648.83,-1383.01 3673.25,-1295.86"/>
<polygon fill="black" stroke="black" points="3676.64,-1296.72 3675.97,-1286.15 3669.9,-1294.84 3676.64,-1296.72"/>
</g>
<!-- max_intron_bases -->
<g id="node28" class="node">
<title>max_intron_bases</title>
<polygon fill="#94ddf4" stroke="black" points="3334,-1721.71 3334,-1758.71 3478,-1758.71 3478,-1721.71 3334,-1721.71"/>
<text text-anchor="middle" x="3406" y="-1736.51" font-family="Times,serif" font-size="14.00">max_intron_bases</text>
</g>
<!-- max_intron_bases&#45;&gt;run_dragen_alignment_step -->
<g id="edge38" class="edge">
<title>max_intron_bases&#45;&gt;run_dragen_alignment_step</title>
<path fill="none" stroke="black" d="M3416.28,-1721.6C3458.05,-1650.06 3615.24,-1380.83 3665.47,-1294.81"/>
<polygon fill="black" stroke="black" points="3668.5,-1296.55 3670.52,-1286.15 3662.46,-1293.02 3668.5,-1296.55"/>
</g>
<!-- max_rescues -->
<g id="node29" class="node">
<title>max_rescues</title>
<polygon fill="#94ddf4" stroke="black" points="3208,-1721.71 3208,-1758.71 3316,-1758.71 3316,-1721.71 3208,-1721.71"/>
<text text-anchor="middle" x="3262" y="-1736.51" font-family="Times,serif" font-size="14.00">max_rescues</text>
</g>
<!-- max_rescues&#45;&gt;run_dragen_alignment_step -->
<g id="edge39" class="edge">
<title>max_rescues&#45;&gt;run_dragen_alignment_step</title>
<path fill="none" stroke="black" d="M3277.66,-1721.6C3341.56,-1649.77 3582.75,-1378.65 3658.26,-1293.77"/>
<polygon fill="black" stroke="black" points="3661.01,-1295.95 3665.04,-1286.15 3655.78,-1291.3 3661.01,-1295.95"/>
</g>
<!-- min_intron_bases -->
<g id="node30" class="node">
<title>min_intron_bases</title>
<polygon fill="#94ddf4" stroke="black" points="3048.5,-1721.71 3048.5,-1758.71 3189.5,-1758.71 3189.5,-1721.71 3048.5,-1721.71"/>
<text text-anchor="middle" x="3119" y="-1736.51" font-family="Times,serif" font-size="14.00">min_intron_bases</text>
</g>
<!-- min_intron_bases&#45;&gt;run_dragen_alignment_step -->
<g id="edge40" class="edge">
<title>min_intron_bases&#45;&gt;run_dragen_alignment_step</title>
<path fill="none" stroke="black" d="M3140.01,-1721.6C3226.16,-1649.4 3552.57,-1375.84 3652.05,-1292.47"/>
<polygon fill="black" stroke="black" points="3654.47,-1295 3659.89,-1285.9 3649.98,-1289.64 3654.47,-1295"/>
</g>
<!-- min_score_coeff -->
<g id="node31" class="node">
<title>min_score_coeff</title>
<polygon fill="#94ddf4" stroke="black" points="2901.5,-1721.71 2901.5,-1758.71 3030.5,-1758.71 3030.5,-1721.71 2901.5,-1721.71"/>
<text text-anchor="middle" x="2966" y="-1736.51" font-family="Times,serif" font-size="14.00">min_score_coeff</text>
</g>
<!-- min_score_coeff&#45;&gt;run_dragen_alignment_step -->
<g id="edge41" class="edge">
<title>min_score_coeff&#45;&gt;run_dragen_alignment_step</title>
<path fill="none" stroke="black" d="M2992.71,-1721.5C3006.77,-1712.18 3024.31,-1700.56 3040,-1690.21 3270.74,-1537.86 3548.6,-1355.2 3645.57,-1291.48"/>
<polygon fill="black" stroke="black" points="3647.68,-1294.29 3654.11,-1285.87 3643.84,-1288.44 3647.68,-1294.29"/>
</g>
<!-- mismatch_pen -->
<g id="node32" class="node">
<title>mismatch_pen</title>
<polygon fill="#94ddf4" stroke="black" points="2764.5,-1721.71 2764.5,-1758.71 2883.5,-1758.71 2883.5,-1721.71 2764.5,-1721.71"/>
<text text-anchor="middle" x="2824" y="-1736.51" font-family="Times,serif" font-size="14.00">mismatch_pen</text>
</g>
<!-- mismatch_pen&#45;&gt;run_dragen_alignment_step -->
<g id="edge42" class="edge">
<title>mismatch_pen&#45;&gt;run_dragen_alignment_step</title>
<path fill="none" stroke="black" d="M2847.13,-1721.67C2860.3,-1711.98 2877.26,-1699.95 2893,-1690.21 3165.91,-1521.16 3512.29,-1349.77 3635.21,-1290.2"/>
<polygon fill="black" stroke="black" points="3636.88,-1293.28 3644.36,-1285.77 3633.83,-1286.98 3636.88,-1293.28"/>
</g>
<!-- no_unclip_score -->
<g id="node33" class="node">
<title>no_unclip_score</title>
<polygon fill="#94ddf4" stroke="black" points="2617.5,-1721.71 2617.5,-1758.71 2746.5,-1758.71 2746.5,-1721.71 2617.5,-1721.71"/>
<text text-anchor="middle" x="2682" y="-1736.51" font-family="Times,serif" font-size="14.00">no_unclip_score</text>
</g>
<!-- no_unclip_score&#45;&gt;run_dragen_alignment_step -->
<g id="edge43" class="edge">
<title>no_unclip_score&#45;&gt;run_dragen_alignment_step</title>
<path fill="none" stroke="black" d="M2706.4,-1721.65C2720.54,-1711.83 2738.89,-1699.7 2756,-1690.21 3074.75,-1513.39 3481.15,-1347.24 3626.39,-1289.6"/>
<polygon fill="black" stroke="black" points="3627.97,-1292.74 3635.98,-1285.8 3625.39,-1286.23 3627.97,-1292.74"/>
</g>
<!-- no_unpaired -->
<g id="node34" class="node">
<title>no_unpaired</title>
<polygon fill="#94ddf4" stroke="black" points="2495,-1721.71 2495,-1758.71 2599,-1758.71 2599,-1721.71 2495,-1721.71"/>
<text text-anchor="middle" x="2547" y="-1736.51" font-family="Times,serif" font-size="14.00">no_unpaired</text>
</g>
<!-- no_unpaired&#45;&gt;run_dragen_alignment_step -->
<g id="edge44" class="edge">
<title>no_unpaired&#45;&gt;run_dragen_alignment_step</title>
<path fill="none" stroke="black" d="M2566.31,-1721.51C2578.03,-1711.4 2593.66,-1699.03 2609,-1690.21 2961.88,-1487.26 3431.24,-1340.28 3608.83,-1288.55"/>
<polygon fill="black" stroke="black" points="3609.95,-1291.86 3618.58,-1285.72 3608,-1285.14 3609.95,-1291.86"/>
</g>
<!-- output_directory -->
<g id="node35" class="node">
<title>output_directory</title>
<polygon fill="#94ddf4" stroke="black" points="2341,-1721.71 2341,-1758.71 2477,-1758.71 2477,-1721.71 2341,-1721.71"/>
<text text-anchor="middle" x="2409" y="-1736.51" font-family="Times,serif" font-size="14.00">output_directory</text>
</g>
<!-- output_directory&#45;&gt;run_dragen_alignment_step -->
<g id="edge45" class="edge">
<title>output_directory&#45;&gt;run_dragen_alignment_step</title>
<path fill="none" stroke="black" d="M2433.48,-1721.6C2448.21,-1711.53 2467.62,-1699.15 2486,-1690.21 2891.16,-1492.94 3412.93,-1341.2 3605.38,-1288.41"/>
<polygon fill="black" stroke="black" points="3606.39,-1291.76 3615.11,-1285.75 3604.54,-1285.01 3606.39,-1291.76"/>
</g>
<!-- pe_max_penalty -->
<g id="node36" class="node">
<title>pe_max_penalty</title>
<polygon fill="#94ddf4" stroke="black" points="2191.5,-1721.71 2191.5,-1758.71 2322.5,-1758.71 2322.5,-1721.71 2191.5,-1721.71"/>
<text text-anchor="middle" x="2257" y="-1736.51" font-family="Times,serif" font-size="14.00">pe_max_penalty</text>
</g>
<!-- pe_max_penalty&#45;&gt;run_dragen_alignment_step -->
<g id="edge46" class="edge">
<title>pe_max_penalty&#45;&gt;run_dragen_alignment_step</title>
<path fill="none" stroke="black" d="M2280.33,-1721.55C2294.66,-1711.34 2313.71,-1698.84 2332,-1690.21 2781.42,-1478.11 3363.98,-1337.5 3587.8,-1288"/>
<polygon fill="black" stroke="black" points="3588.85,-1291.35 3597.86,-1285.78 3587.34,-1284.51 3588.85,-1291.35"/>
</g>
<!-- pe_orientation -->
<g id="node37" class="node">
<title>pe_orientation</title>
<polygon fill="#94ddf4" stroke="black" points="2054.5,-1721.71 2054.5,-1758.71 2173.5,-1758.71 2173.5,-1721.71 2054.5,-1721.71"/>
<text text-anchor="middle" x="2114" y="-1736.51" font-family="Times,serif" font-size="14.00">pe_orientation</text>
</g>
<!-- pe_orientation&#45;&gt;run_dragen_alignment_step -->
<g id="edge47" class="edge">
<title>pe_orientation&#45;&gt;run_dragen_alignment_step</title>
<path fill="none" stroke="black" d="M2134.87,-1721.51C2147.97,-1711.15 2165.64,-1698.51 2183,-1690.21 2671.6,-1456.56 3313.46,-1330.08 3569.02,-1286.19"/>
<polygon fill="black" stroke="black" points="3569.78,-1289.61 3579.05,-1284.48 3568.6,-1282.71 3569.78,-1289.61"/>
</g>
<!-- preserve_map_align_order -->
<g id="node38" class="node">
<title>preserve_map_align_order</title>
<polygon fill="#94ddf4" stroke="black" points="1831.5,-1721.71 1831.5,-1758.71 2036.5,-1758.71 2036.5,-1721.71 1831.5,-1721.71"/>
<text text-anchor="middle" x="1934" y="-1736.51" font-family="Times,serif" font-size="14.00">preserve_map_align_order</text>
</g>
<!-- preserve_map_align_order&#45;&gt;run_dragen_alignment_step -->
<g id="edge48" class="edge">
<title>preserve_map_align_order&#45;&gt;run_dragen_alignment_step</title>
<path fill="none" stroke="black" d="M1970.24,-1721.59C1991.88,-1711.52 2020.12,-1699.14 2046,-1690.21 2616.14,-1493.33 3325.96,-1340.32 3582.65,-1287.84"/>
<polygon fill="black" stroke="black" points="3583.59,-1291.22 3592.69,-1285.79 3582.2,-1284.36 3583.59,-1291.22"/>
</g>
<!-- reference_tar -->
<g id="node39" class="node">
<title>reference_tar</title>
<polygon fill="#94ddf4" stroke="black" points="1700.5,-1721.71 1700.5,-1758.71 1813.5,-1758.71 1813.5,-1721.71 1700.5,-1721.71"/>
<text text-anchor="middle" x="1757" y="-1736.51" font-family="Times,serif" font-size="14.00">reference_tar</text>
</g>
<!-- reference_tar&#45;&gt;run_dragen_alignment_step -->
<g id="edge49" class="edge">
<title>reference_tar&#45;&gt;run_dragen_alignment_step</title>
<path fill="none" stroke="black" d="M1776.12,-1721.63C1788.61,-1711.05 1805.76,-1698.14 1823,-1690.21 2443.57,-1404.86 3271.86,-1305.28 3569.03,-1277.43"/>
<polygon fill="black" stroke="black" points="3569.74,-1280.88 3579.37,-1276.47 3569.09,-1273.91 3569.74,-1280.88"/>
</g>
<!-- remove_duplicates -->
<g id="node40" class="node">
<title>remove_duplicates</title>
<polygon fill="#94ddf4" stroke="black" points="1532,-1721.71 1532,-1758.71 1682,-1758.71 1682,-1721.71 1532,-1721.71"/>
<text text-anchor="middle" x="1607" y="-1736.51" font-family="Times,serif" font-size="14.00">remove_duplicates</text>
</g>
<!-- remove_duplicates&#45;&gt;run_dragen_alignment_step -->
<g id="edge50" class="edge">
<title>remove_duplicates&#45;&gt;run_dragen_alignment_step</title>
<path fill="none" stroke="black" d="M1632.73,-1721.52C1649.06,-1711.03 1671.01,-1698.25 1692,-1690.21 2377.04,-1427.65 3260.68,-1313.27 3568.99,-1279.52"/>
<polygon fill="black" stroke="black" points="3569.7,-1282.96 3579.27,-1278.4 3568.95,-1276 3569.7,-1282.96"/>
</g>
<!-- rescue_sigmas -->
<g id="node41" class="node">
<title>rescue_sigmas</title>
<polygon fill="#94ddf4" stroke="black" points="1392.5,-1721.71 1392.5,-1758.71 1513.5,-1758.71 1513.5,-1721.71 1392.5,-1721.71"/>
<text text-anchor="middle" x="1453" y="-1736.51" font-family="Times,serif" font-size="14.00">rescue_sigmas</text>
</g>
<!-- rescue_sigmas&#45;&gt;run_dragen_alignment_step -->
<g id="edge51" class="edge">
<title>rescue_sigmas&#45;&gt;run_dragen_alignment_step</title>
<path fill="none" stroke="black" d="M1473.38,-1721.49C1486.66,-1710.85 1504.84,-1697.92 1523,-1690.21 2261.12,-1376.46 3241.16,-1293.46 3568.91,-1273.78"/>
<polygon fill="black" stroke="black" points="3569.58,-1277.25 3579.36,-1273.16 3569.17,-1270.26 3569.58,-1277.25"/>
</g>
<!-- sec_aligns -->
<g id="node42" class="node">
<title>sec_aligns</title>
<polygon fill="#94ddf4" stroke="black" points="1285.5,-1721.71 1285.5,-1758.71 1374.5,-1758.71 1374.5,-1721.71 1285.5,-1721.71"/>
<text text-anchor="middle" x="1330" y="-1736.51" font-family="Times,serif" font-size="14.00">sec_aligns</text>
</g>
<!-- sec_aligns&#45;&gt;run_dragen_alignment_step -->
<g id="edge52" class="edge">
<title>sec_aligns&#45;&gt;run_dragen_alignment_step</title>
<path fill="none" stroke="black" d="M1344.74,-1721.55C1354.71,-1710.8 1368.79,-1697.73 1384,-1690.21 2154.65,-1309.07 3224.56,-1269.8 3569.25,-1267.55"/>
<polygon fill="black" stroke="black" points="3569.51,-1271.05 3579.49,-1267.49 3569.47,-1264.05 3569.51,-1271.05"/>
</g>
<!-- sec_aligns_hard -->
<g id="node43" class="node">
<title>sec_aligns_hard</title>
<polygon fill="#94ddf4" stroke="black" points="1138.5,-1721.71 1138.5,-1758.71 1267.5,-1758.71 1267.5,-1721.71 1138.5,-1721.71"/>
<text text-anchor="middle" x="1203" y="-1736.51" font-family="Times,serif" font-size="14.00">sec_aligns_hard</text>
</g>
<!-- sec_aligns_hard&#45;&gt;run_dragen_alignment_step -->
<g id="edge53" class="edge">
<title>sec_aligns_hard&#45;&gt;run_dragen_alignment_step</title>
<path fill="none" stroke="black" d="M1224.33,-1721.64C1238.44,-1710.92 1257.82,-1697.85 1277,-1690.21 2113.8,-1356.63 3218.63,-1286.06 3569.26,-1271.72"/>
<polygon fill="black" stroke="black" points="3569.56,-1275.21 3579.41,-1271.31 3569.28,-1268.22 3569.56,-1275.21"/>
</g>
<!-- sec_phred_delta -->
<g id="node44" class="node">
<title>sec_phred_delta</title>
<polygon fill="#94ddf4" stroke="black" points="989.5,-1721.71 989.5,-1758.71 1120.5,-1758.71 1120.5,-1721.71 989.5,-1721.71"/>
<text text-anchor="middle" x="1055" y="-1736.51" font-family="Times,serif" font-size="14.00">sec_phred_delta</text>
</g>
<!-- sec_phred_delta&#45;&gt;run_dragen_alignment_step -->
<g id="edge54" class="edge">
<title>sec_phred_delta&#45;&gt;run_dragen_alignment_step</title>
<path fill="none" stroke="black" d="M1076.63,-1721.58C1090.94,-1710.84 1110.58,-1697.77 1130,-1690.21 2024.9,-1341.74 3205.62,-1280.98 3569.49,-1270.42"/>
<polygon fill="black" stroke="black" points="3569.6,-1273.92 3579.49,-1270.13 3569.4,-1266.92 3569.6,-1273.92"/>
</g>
<!-- sec_score_delta -->
<g id="node45" class="node">
<title>sec_score_delta</title>
<polygon fill="#94ddf4" stroke="black" points="843,-1721.71 843,-1758.71 971,-1758.71 971,-1721.71 843,-1721.71"/>
<text text-anchor="middle" x="907" y="-1736.51" font-family="Times,serif" font-size="14.00">sec_score_delta</text>
</g>
<!-- sec_score_delta&#45;&gt;run_dragen_alignment_step -->
<g id="edge55" class="edge">
<title>sec_score_delta&#45;&gt;run_dragen_alignment_step</title>
<path fill="none" stroke="black" d="M928.28,-1721.51C942.38,-1710.75 961.75,-1697.67 981,-1690.21 1932.48,-1321.2 3191.23,-1274.37 3569.14,-1268.82"/>
<polygon fill="black" stroke="black" points="3569.3,-1272.32 3579.25,-1268.68 3569.2,-1265.32 3569.3,-1272.32"/>
</g>
<!-- seed_density -->
<g id="node46" class="node">
<title>seed_density</title>
<polygon fill="#94ddf4" stroke="black" points="715.5,-1721.71 715.5,-1758.71 824.5,-1758.71 824.5,-1721.71 715.5,-1721.71"/>
<text text-anchor="middle" x="770" y="-1736.51" font-family="Times,serif" font-size="14.00">seed_density</text>
</g>
<!-- seed_density&#45;&gt;run_dragen_alignment_step -->
<g id="edge56" class="edge">
<title>seed_density&#45;&gt;run_dragen_alignment_step</title>
<path fill="none" stroke="black" d="M787.72,-1721.65C799.76,-1710.79 816.6,-1697.57 834,-1690.21 1344.33,-1474.27 3107.5,-1315.73 3569.47,-1277.23"/>
<polygon fill="black" stroke="black" points="3569.81,-1280.71 3579.48,-1276.39 3569.23,-1273.73 3569.81,-1280.71"/>
</g>
<!-- supp_aligns -->
<g id="node47" class="node">
<title>supp_aligns</title>
<polygon fill="#94ddf4" stroke="black" points="596.5,-1721.71 596.5,-1758.71 697.5,-1758.71 697.5,-1721.71 596.5,-1721.71"/>
<text text-anchor="middle" x="647" y="-1736.51" font-family="Times,serif" font-size="14.00">supp_aligns</text>
</g>
<!-- supp_aligns&#45;&gt;run_dragen_alignment_step -->
<g id="edge57" class="edge">
<title>supp_aligns&#45;&gt;run_dragen_alignment_step</title>
<path fill="none" stroke="black" d="M663.4,-1721.6C674.59,-1710.72 690.37,-1697.49 707,-1690.21 1238.51,-1457.37 3093.41,-1310.44 3569.14,-1276.01"/>
<polygon fill="black" stroke="black" points="3569.72,-1279.48 3579.44,-1275.27 3569.22,-1272.5 3569.72,-1279.48"/>
</g>
<!-- supp_as_sec -->
<g id="node48" class="node">
<title>supp_as_sec</title>
<polygon fill="#94ddf4" stroke="black" points="474,-1721.71 474,-1758.71 578,-1758.71 578,-1721.71 474,-1721.71"/>
<text text-anchor="middle" x="526" y="-1736.51" font-family="Times,serif" font-size="14.00">supp_as_sec</text>
</g>
<!-- supp_as_sec&#45;&gt;run_dragen_alignment_step -->
<g id="edge58" class="edge">
<title>supp_as_sec&#45;&gt;run_dragen_alignment_step</title>
<path fill="none" stroke="black" d="M543.04,-1721.57C554.65,-1710.69 570.96,-1697.46 588,-1690.21 1144.61,-1453.43 3082.17,-1308.72 3569.23,-1275.54"/>
<polygon fill="black" stroke="black" points="3569.69,-1279.02 3579.43,-1274.85 3569.21,-1272.04 3569.69,-1279.02"/>
</g>
<!-- supp_min_score_adj -->
<g id="node49" class="node">
<title>supp_min_score_adj</title>
<polygon fill="#94ddf4" stroke="black" points="298,-1721.71 298,-1758.71 456,-1758.71 456,-1721.71 298,-1721.71"/>
<text text-anchor="middle" x="377" y="-1736.51" font-family="Times,serif" font-size="14.00">supp_min_score_adj</text>
</g>
<!-- supp_min_score_adj&#45;&gt;run_dragen_alignment_step -->
<g id="edge59" class="edge">
<title>supp_min_score_adj&#45;&gt;run_dragen_alignment_step</title>
<path fill="none" stroke="black" d="M402.37,-1721.68C419.34,-1710.84 442.59,-1697.62 465,-1690.21 1633.11,-1304.06 3149.74,-1269.65 3569.26,-1267.86"/>
<polygon fill="black" stroke="black" points="3569.27,-1271.36 3579.26,-1267.82 3569.25,-1264.36 3569.27,-1271.36"/>
</g>
<!-- unclip_score -->
<g id="node50" class="node">
<title>unclip_score</title>
<polygon fill="#94ddf4" stroke="black" points="174.5,-1721.71 174.5,-1758.71 279.5,-1758.71 279.5,-1721.71 174.5,-1721.71"/>
<text text-anchor="middle" x="227" y="-1736.51" font-family="Times,serif" font-size="14.00">unclip_score</text>
</g>
<!-- unclip_score&#45;&gt;run_dragen_alignment_step -->
<g id="edge60" class="edge">
<title>unclip_score&#45;&gt;run_dragen_alignment_step</title>
<path fill="none" stroke="black" d="M244.01,-1721.51C255.61,-1710.59 271.91,-1697.36 289,-1690.21 904.21,-1432.79 3053.78,-1302.09 3569.27,-1274.03"/>
<polygon fill="black" stroke="black" points="3569.52,-1277.52 3579.31,-1273.48 3569.14,-1270.53 3569.52,-1277.52"/>
</g>
<!-- unpaired_pen -->
<g id="node51" class="node">
<title>unpaired_pen</title>
<polygon fill="#94ddf4" stroke="black" points="7044.5,-1721.71 7044.5,-1758.71 7157.5,-1758.71 7157.5,-1721.71 7044.5,-1721.71"/>
<text text-anchor="middle" x="7101" y="-1736.51" font-family="Times,serif" font-size="14.00">unpaired_pen</text>
</g>
<!-- unpaired_pen&#45;&gt;run_dragen_alignment_step -->
<g id="edge61" class="edge">
<title>unpaired_pen&#45;&gt;run_dragen_alignment_step</title>
<path fill="none" stroke="black" d="M7083.01,-1721.52C7070.79,-1710.61 7053.68,-1697.38 7036,-1690.21 6425.36,-1442.37 4305.26,-1304.66 3793.04,-1274.54"/>
<polygon fill="black" stroke="black" points="3792.88,-1271.02 3782.69,-1273.93 3792.47,-1278.01 3792.88,-1271.02"/>
</g>
<!-- verbose -->
<g id="node52" class="node">
<title>verbose</title>
<polygon fill="#94ddf4" stroke="black" points="6953.5,-1721.71 6953.5,-1758.71 7026.5,-1758.71 7026.5,-1721.71 6953.5,-1721.71"/>
<text text-anchor="middle" x="6990" y="-1736.51" font-family="Times,serif" font-size="14.00">verbose</text>
</g>
<!-- verbose&#45;&gt;run_dragen_alignment_step -->
<g id="edge62" class="edge">
<title>verbose&#45;&gt;run_dragen_alignment_step</title>
<path fill="none" stroke="black" d="M6978.44,-1721.28C6970.43,-1710.42 6958.74,-1697.33 6945,-1690.21 6376.17,-1395.33 4298.98,-1293.24 3792.79,-1272.46"/>
<polygon fill="black" stroke="black" points="3792.7,-1268.95 3782.56,-1272.04 3792.41,-1275.95 3792.7,-1268.95"/>
</g>
<!-- dragen_alignment_output_directory -->
<g id="node53" class="node">
<title>dragen_alignment_output_directory</title>
<polygon fill="#94ddf4" stroke="black" points="3324,-338.71 3324,-375.71 3596,-375.71 3596,-338.71 3324,-338.71"/>
<text text-anchor="middle" x="3460" y="-353.51" font-family="Times,serif" font-size="14.00">dragen_alignment_output_directory</text>
</g>
<!-- dragen_bam_out -->
<g id="node54" class="node">
<title>dragen_bam_out</title>
<polygon fill="#94ddf4" stroke="black" points="3614,-338.71 3614,-375.71 3748,-375.71 3748,-338.71 3614,-338.71"/>
<text text-anchor="middle" x="3681" y="-353.51" font-family="Times,serif" font-size="14.00">dragen_bam_out</text>
</g>
<!-- multiqc_output_directory -->
<g id="node55" class="node">
<title>multiqc_output_directory</title>
<polygon fill="#94ddf4" stroke="black" points="3108.5,-338.71 3108.5,-375.71 3305.5,-375.71 3305.5,-338.71 3108.5,-338.71"/>
<text text-anchor="middle" x="3207" y="-353.51" font-family="Times,serif" font-size="14.00">multiqc_output_directory</text>
</g>
<!-- create_dummy_file_step -->
<g id="node56" class="node">
<title>create_dummy_file_step</title>
<polygon fill="lightgoldenrodyellow" stroke="black" points="132.5,-1248.71 132.5,-1285.71 393.5,-1285.71 393.5,-1248.71 132.5,-1248.71"/>
<text text-anchor="middle" x="263" y="-1263.51" font-family="Times,serif" font-size="14.00">custom&#45;create&#45;dummy&#45;file v(1.0.0)</text>
</g>
<!-- create_dummy_file_step&#45;&gt;dragen_qc_step -->
<g id="edge1" class="edge">
<title>create_dummy_file_step&#45;&gt;dragen_qc_step</title>
<path fill="none" stroke="black" d="M256.06,-1248.45C228.85,-1178.81 129.33,-924.1 96.55,-840.2"/>
<polygon fill="black" stroke="black" points="99.79,-838.88 92.89,-830.84 93.27,-841.43 99.79,-838.88"/>
</g>
<!-- dragen_qc_step&#45;&gt;multiqc_output_directory -->
<g id="edge2" class="edge">
<title>dragen_qc_step&#45;&gt;multiqc_output_directory</title>
<path fill="none" stroke="black" d="M155.56,-801.11C559.43,-742.49 2601.95,-446.03 3098.23,-373.99"/>
<polygon fill="black" stroke="black" points="3098.86,-377.44 3108.25,-372.54 3097.85,-370.51 3098.86,-377.44"/>
</g>
<!-- run_dragen_alignment_step&#45;&gt;dragen_alignment_output_directory -->
<g id="edge4" class="edge">
<title>run_dragen_alignment_step&#45;&gt;dragen_alignment_output_directory</title>
<path fill="none" stroke="black" d="M3676.68,-1248.48C3649.35,-1136.16 3500.32,-523.88 3466.73,-385.86"/>
<polygon fill="black" stroke="black" points="3470.11,-384.94 3464.34,-376.05 3463.31,-386.59 3470.11,-384.94"/>
</g>
<!-- run_dragen_alignment_step&#45;&gt;dragen_bam_out -->
<g id="edge5" class="edge">
<title>run_dragen_alignment_step&#45;&gt;dragen_bam_out</title>
<path fill="none" stroke="black" d="M3681,-1248.48C3681,-1136.27 3681,-525.11 3681,-386.27"/>
<polygon fill="black" stroke="black" points="3684.5,-386.05 3681,-376.05 3677.5,-386.05 3684.5,-386.05"/>
</g>
<!-- run_dragen_alignment_step&#45;&gt;dragen_qc_step -->
<g id="edge3" class="edge">
<title>run_dragen_alignment_step&#45;&gt;dragen_qc_step</title>
<path fill="none" stroke="black" d="M3579.2,-1253.38C3051.9,-1186.93 637.39,-882.69 165.95,-823.28"/>
<polygon fill="black" stroke="black" points="166.19,-819.78 155.83,-822.01 165.31,-826.73 166.19,-819.78"/>
</g>
<!-- create_fastq_list_csv_step&#45;&gt;run_dragen_alignment_step -->
<g id="edge6" class="edge">
<title>create_fastq_list_csv_step&#45;&gt;run_dragen_alignment_step</title>
<path fill="none" stroke="black" d="M7425.36,-1721.65C7389.42,-1711.15 7343.46,-1698.31 7302,-1690.21 5933.19,-1422.83 4238.59,-1303.48 3792.68,-1275.09"/>
<polygon fill="black" stroke="black" points="3792.89,-1271.59 3782.69,-1274.45 3792.45,-1278.58 3792.89,-1271.59"/>
</g>
<!-- create_fastq_list_csv_step&#45;&gt;run_dragen_alignment_step -->
<g id="edge7" class="edge">
<title>create_fastq_list_csv_step&#45;&gt;run_dragen_alignment_step</title>
<path fill="none" stroke="black" d="M7440.87,-1721.65C7407.42,-1711.15 7361.46,-1698.31 7320,-1690.21 5944.63,-1421.55 4240.32,-1302.34 3792.78,-1274.69"/>
<polygon fill="black" stroke="black" points="3792.96,-1271.19 3782.77,-1274.07 3792.53,-1278.18 3792.96,-1271.19"/>
</g>
<!-- \n -->
<g id="node60" class="node">
<title>\n</title>
<ellipse fill="none" stroke="black" cx="7704" cy="-1740.21" rx="27" ry="18"/>
</g>
</g>
</svg>
