<?xml version="1.0" encoding="UTF-8" standalone="no"?>
<!DOCTYPE svg PUBLIC "-//W3C//DTD SVG 1.1//EN"
 "http://www.w3.org/Graphics/SVG/1.1/DTD/svg11.dtd">
<!-- Generated by graphviz version 2.43.0 (0)
 -->
<!-- Title: G Pages: 1 -->
<svg width="565pt" height="515pt"
 viewBox="0.00 0.00 565.00 514.87" xmlns="http://www.w3.org/2000/svg" xmlns:xlink="http://www.w3.org/1999/xlink">
<g id="graph0" class="graph" transform="scale(1 1) rotate(0) translate(4 510.87)">
<title>G</title>
<polygon fill="#eeeeee" stroke="transparent" points="-4,4 -4,-510.87 561,-510.87 561,4 -4,4"/>
<g id="clust1" class="cluster">
<title>cluster_inputs</title>
<polygon fill="#eeeeee" stroke="black" stroke-dasharray="5,2" points="8,-328.84 8,-490.11 493,-490.11 493,-328.84 8,-328.84"/>
<text text-anchor="middle" x="426.5" y="-336.64" font-family="Times,serif" font-size="14.00">Workflow Inputs</text>
</g>
<g id="clust2" class="cluster">
<title>cluster_outputs</title>
<polygon fill="#eeeeee" stroke="black" stroke-dasharray="5,2" points="221,-16.76 221,-178.03 373,-178.03 373,-16.76 221,-16.76"/>
<text text-anchor="middle" x="300.5" y="-24.56" font-family="Times,serif" font-size="14.00">Workflow Outputs</text>
</g>
<!-- instrument_run_directory -->
<g id="node1" class="node">
<title>instrument_run_directory</title>
<polygon fill="#94ddf4" stroke="black" points="285,-415.26 285,-452.26 485,-452.26 485,-415.26 285,-415.26"/>
<text text-anchor="middle" x="385" y="-430.06" font-family="Times,serif" font-size="14.00">instrument_run_directory</text>
</g>
<!-- run_dragen_instrument_run_fastq_to_ora_step -->
<g id="node5" class="node">
<title>run_dragen_instrument_run_fastq_to_ora_step</title>
<ellipse fill="none" stroke="black" cx="297" cy="-274.76" rx="225.56" ry="18"/>
<text text-anchor="middle" x="297" y="-271.06" font-family="Times,serif" font-size="14.00">run_dragen_instrument_run_fastq_to_ora_step</text>
</g>
<!-- instrument_run_directory&#45;&gt;run_dragen_instrument_run_fastq_to_ora_step -->
<g id="edge1" class="edge">
<title>instrument_run_directory&#45;&gt;run_dragen_instrument_run_fastq_to_ora_step</title>
<path fill="none" stroke="black" d="M370.61,-415.05C352.44,-387.58 322.45,-334.51 306.72,-302.4"/>
<polygon fill="black" stroke="black" points="309.78,-300.68 302.32,-293.16 303.45,-303.69 309.78,-300.68"/>
</g>
<!-- instrument_run_directory&#45;&gt;run_dragen_instrument_run_fastq_to_ora_step -->
<g id="edge2" class="edge">
<title>instrument_run_directory&#45;&gt;run_dragen_instrument_run_fastq_to_ora_step</title>
<path fill="none" stroke="black" d="M379.54,-415.05C366.81,-387.34 336.91,-333.6 316.63,-301.57"/>
<polygon fill="black" stroke="black" points="319.56,-299.65 311.19,-293.16 313.68,-303.45 319.56,-299.65"/>
</g>
<!-- ora_reference -->
<g id="node2" class="node">
<title>ora_reference</title>
<polygon fill="#94ddf4" stroke="black" points="151.5,-415.26 151.5,-452.26 266.5,-452.26 266.5,-415.26 151.5,-415.26"/>
<text text-anchor="middle" x="209" y="-430.06" font-family="Times,serif" font-size="14.00">ora_reference</text>
</g>
<!-- ora_reference&#45;&gt;run_dragen_instrument_run_fastq_to_ora_step -->
<g id="edge3" class="edge">
<title>ora_reference&#45;&gt;run_dragen_instrument_run_fastq_to_ora_step</title>
<path fill="none" stroke="black" d="M218.92,-415.05C234.39,-387.46 264.32,-334.06 282.3,-301.98"/>
<polygon fill="black" stroke="black" points="285.41,-303.59 287.25,-293.16 279.3,-300.17 285.41,-303.59"/>
</g>
<!-- sample_id_list -->
<g id="node3" class="node">
<title>sample_id_list</title>
<polygon fill="#94ddf4" stroke="black" points="16.5,-415.26 16.5,-452.26 133.5,-452.26 133.5,-415.26 16.5,-415.26"/>
<text text-anchor="middle" x="75" y="-430.06" font-family="Times,serif" font-size="14.00">sample_id_list</text>
</g>
<!-- sample_id_list&#45;&gt;run_dragen_instrument_run_fastq_to_ora_step -->
<g id="edge4" class="edge">
<title>sample_id_list&#45;&gt;run_dragen_instrument_run_fastq_to_ora_step</title>
<path fill="none" stroke="black" d="M99.18,-415.22C112.14,-405.84 128.41,-394.13 143,-383.76 184.72,-354.1 233.09,-320.26 264.33,-298.49"/>
<polygon fill="black" stroke="black" points="266.46,-301.27 272.66,-292.68 262.45,-295.53 266.46,-301.27"/>
</g>
<!-- output_directory -->
<g id="node4" class="node">
<title>output_directory</title>
<polygon fill="#94ddf4" stroke="black" points="229,-103.26 229,-140.26 365,-140.26 365,-103.26 229,-103.26"/>
<text text-anchor="middle" x="297" y="-118.06" font-family="Times,serif" font-size="14.00">output_directory</text>
</g>
<!-- run_dragen_instrument_run_fastq_to_ora_step&#45;&gt;output_directory -->
<g id="edge5" class="edge">
<title>run_dragen_instrument_run_fastq_to_ora_step&#45;&gt;output_directory</title>
<path fill="none" stroke="black" d="M297,-256.73C297,-230.92 297,-181.64 297,-150.58"/>
<polygon fill="black" stroke="black" points="300.5,-150.42 297,-140.42 293.5,-150.42 300.5,-150.42"/>
</g>
<!-- \n -->
<g id="node6" class="node">
<title>\n</title>
<ellipse fill="none" stroke="black" cx="530" cy="-433.76" rx="27" ry="18"/>
</g>
</g>
</svg>
