<?xml version="1.0" encoding="UTF-8" standalone="no"?>
<!DOCTYPE svg PUBLIC "-//W3C//DTD SVG 1.1//EN"
 "http://www.w3.org/Graphics/SVG/1.1/DTD/svg11.dtd">
<!-- Generated by graphviz version 2.43.0 (0)
 -->
<!-- Title: G Pages: 1 -->
<svg width="899pt" height="561pt"
 viewBox="0.00 0.00 899.00 561.31" xmlns="http://www.w3.org/2000/svg" xmlns:xlink="http://www.w3.org/1999/xlink">
<g id="graph0" class="graph" transform="scale(1 1) rotate(0) translate(4 557.31)">
<title>G</title>
<polygon fill="#eeeeee" stroke="transparent" points="-4,4 -4,-557.31 895,-557.31 895,4 -4,4"/>
<g id="clust1" class="cluster">
<title>cluster_inputs</title>
<polygon fill="#eeeeee" stroke="black" stroke-dasharray="5,2" points="8,-358.97 8,-535.02 827,-535.02 827,-358.97 8,-358.97"/>
<text text-anchor="middle" x="760.5" y="-366.77" font-family="Times,serif" font-size="14.00">Workflow Inputs</text>
</g>
<g id="clust2" class="cluster">
<title>cluster_outputs</title>
<polygon fill="#eeeeee" stroke="black" stroke-dasharray="5,2" points="384,-18.29 384,-194.34 536,-194.34 536,-18.29 384,-18.29"/>
<text text-anchor="middle" x="463.5" y="-26.09" font-family="Times,serif" font-size="14.00">Workflow Outputs</text>
</g>
<!-- instrument_run_directory -->
<g id="node1" class="node">
<title>instrument_run_directory</title>
<polygon fill="#94ddf4" stroke="black" points="619,-454.79 619,-491.79 819,-491.79 819,-454.79 619,-454.79"/>
<text text-anchor="middle" x="719" y="-469.59" font-family="Times,serif" font-size="14.00">instrument_run_directory</text>
</g>
<!-- run_dragen_instrument_run_fastq_to_ora_step -->
<g id="node7" class="node">
<title>run_dragen_instrument_run_fastq_to_ora_step</title>
<ellipse fill="none" stroke="black" cx="460" cy="-299.29" rx="225.56" ry="18"/>
<text text-anchor="middle" x="460" y="-295.59" font-family="Times,serif" font-size="14.00">run_dragen_instrument_run_fastq_to_ora_step</text>
</g>
<!-- instrument_run_directory&#45;&gt;run_dragen_instrument_run_fastq_to_ora_step -->
<g id="edge1" class="edge">
<title>instrument_run_directory&#45;&gt;run_dragen_instrument_run_fastq_to_ora_step</title>
<path fill="none" stroke="black" d="M688.21,-454.69C637.9,-423.35 539.21,-357.91 489.65,-323.14"/>
<polygon fill="black" stroke="black" points="491.47,-320.14 481.28,-317.23 487.43,-325.86 491.47,-320.14"/>
</g>
<!-- instrument_run_directory&#45;&gt;run_dragen_instrument_run_fastq_to_ora_step -->
<g id="edge2" class="edge">
<title>instrument_run_directory&#45;&gt;run_dragen_instrument_run_fastq_to_ora_step</title>
<path fill="none" stroke="black" d="M696.57,-454.53C652.17,-422.99 553.33,-357.25 498.41,-322.66"/>
<polygon fill="black" stroke="black" points="500,-319.53 489.67,-317.19 496.29,-325.46 500,-319.53"/>
</g>
<!-- ora_parallel_files -->
<g id="node2" class="node">
<title>ora_parallel_files</title>
<polygon fill="#94ddf4" stroke="black" points="463.5,-454.79 463.5,-491.79 600.5,-491.79 600.5,-454.79 463.5,-454.79"/>
<text text-anchor="middle" x="532" y="-469.59" font-family="Times,serif" font-size="14.00">ora_parallel_files</text>
</g>
<!-- ora_parallel_files&#45;&gt;run_dragen_instrument_run_fastq_to_ora_step -->
<g id="edge3" class="edge">
<title>ora_parallel_files&#45;&gt;run_dragen_instrument_run_fastq_to_ora_step</title>
<path fill="none" stroke="black" d="M524.57,-454.53C511.86,-424.17 485.89,-362.14 471.05,-326.69"/>
<polygon fill="black" stroke="black" points="474.27,-325.32 467.18,-317.44 467.81,-328.02 474.27,-325.32"/>
</g>
<!-- ora_reference -->
<g id="node3" class="node">
<title>ora_reference</title>
<polygon fill="#94ddf4" stroke="black" points="330.5,-454.79 330.5,-491.79 445.5,-491.79 445.5,-454.79 330.5,-454.79"/>
<text text-anchor="middle" x="388" y="-469.59" font-family="Times,serif" font-size="14.00">ora_reference</text>
</g>
<!-- ora_reference&#45;&gt;run_dragen_instrument_run_fastq_to_ora_step -->
<g id="edge4" class="edge">
<title>ora_reference&#45;&gt;run_dragen_instrument_run_fastq_to_ora_step</title>
<path fill="none" stroke="black" d="M395.43,-454.53C408.14,-424.17 434.11,-362.14 448.95,-326.69"/>
<polygon fill="black" stroke="black" points="452.19,-328.02 452.82,-317.44 445.73,-325.32 452.19,-328.02"/>
</g>
<!-- ora_threads_per_file -->
<g id="node4" class="node">
<title>ora_threads_per_file</title>
<polygon fill="#94ddf4" stroke="black" points="151.5,-454.79 151.5,-491.79 312.5,-491.79 312.5,-454.79 151.5,-454.79"/>
<text text-anchor="middle" x="232" y="-469.59" font-family="Times,serif" font-size="14.00">ora_threads_per_file</text>
</g>
<!-- ora_threads_per_file&#45;&gt;run_dragen_instrument_run_fastq_to_ora_step -->
<g id="edge5" class="edge">
<title>ora_threads_per_file&#45;&gt;run_dragen_instrument_run_fastq_to_ora_step</title>
<path fill="none" stroke="black" d="M255.54,-454.53C296.99,-423.26 382.98,-358.4 429.13,-323.58"/>
<polygon fill="black" stroke="black" points="431.39,-326.26 437.26,-317.44 427.17,-320.67 431.39,-326.26"/>
</g>
<!-- sample_id_list -->
<g id="node5" class="node">
<title>sample_id_list</title>
<polygon fill="#94ddf4" stroke="black" points="16.5,-454.79 16.5,-491.79 133.5,-491.79 133.5,-454.79 16.5,-454.79"/>
<text text-anchor="middle" x="75" y="-469.59" font-family="Times,serif" font-size="14.00">sample_id_list</text>
</g>
<!-- sample_id_list&#45;&gt;run_dragen_instrument_run_fastq_to_ora_step -->
<g id="edge6" class="edge">
<title>sample_id_list&#45;&gt;run_dragen_instrument_run_fastq_to_ora_step</title>
<path fill="none" stroke="black" d="M96.42,-454.69C109.36,-444.62 126.5,-432.25 143,-423.29 226.4,-378.02 330.05,-341.11 395.64,-319.9"/>
<polygon fill="black" stroke="black" points="396.98,-323.15 405.43,-316.76 394.84,-316.48 396.98,-323.15"/>
</g>
<!-- output_directory -->
<g id="node6" class="node">
<title>output_directory</title>
<polygon fill="#94ddf4" stroke="black" points="392,-113.79 392,-150.79 528,-150.79 528,-113.79 392,-113.79"/>
<text text-anchor="middle" x="460" y="-128.59" font-family="Times,serif" font-size="14.00">output_directory</text>
</g>
<!-- run_dragen_instrument_run_fastq_to_ora_step&#45;&gt;output_directory -->
<g id="edge7" class="edge">
<title>run_dragen_instrument_run_fastq_to_ora_step&#45;&gt;output_directory</title>
<path fill="none" stroke="black" d="M460,-281.25C460,-252.87 460,-195.64 460,-161.27"/>
<polygon fill="black" stroke="black" points="463.5,-160.98 460,-150.98 456.5,-160.98 463.5,-160.98"/>
</g>
<!-- \n -->
<g id="node8" class="node">
<title>\n</title>
<ellipse fill="none" stroke="black" cx="864" cy="-473.29" rx="27" ry="18"/>
</g>
</g>
</svg>
