<?xml version="1.0" encoding="UTF-8" standalone="no"?>
<!DOCTYPE svg PUBLIC "-//W3C//DTD SVG 1.1//EN"
 "http://www.w3.org/Graphics/SVG/1.1/DTD/svg11.dtd">
<!-- Generated by graphviz version 2.43.0 (0)
 -->
<!-- Title: G Pages: 1 -->
<svg width="1265pt" height="654pt"
 viewBox="0.00 0.00 1265.00 654.10" xmlns="http://www.w3.org/2000/svg" xmlns:xlink="http://www.w3.org/1999/xlink">
<g id="graph0" class="graph" transform="scale(1 1) rotate(0) translate(4 650.1)">
<title>G</title>
<polygon fill="#eeeeee" stroke="transparent" points="-4,4 -4,-650.1 1261,-650.1 1261,4 -4,4"/>
<g id="clust1" class="cluster">
<title>cluster_inputs</title>
<polygon fill="#eeeeee" stroke="black" stroke-dasharray="5,2" points="8,-419.16 8,-624.74 1193,-624.74 1193,-419.16 8,-419.16"/>
<text text-anchor="middle" x="1126.5" y="-426.96" font-family="Times,serif" font-size="14.00">Workflow Inputs</text>
</g>
<g id="clust2" class="cluster">
<title>cluster_outputs</title>
<polygon fill="#eeeeee" stroke="black" stroke-dasharray="5,2" points="539,-21.36 539,-226.94 691,-226.94 691,-21.36 539,-21.36"/>
<text text-anchor="middle" x="618.5" y="-29.16" font-family="Times,serif" font-size="14.00">Workflow Outputs</text>
</g>
<!-- instrument_run_directory -->
<g id="node1" class="node">
<title>instrument_run_directory</title>
<polygon fill="#94ddf4" stroke="black" points="985,-533.86 985,-570.86 1185,-570.86 1185,-533.86 985,-533.86"/>
<text text-anchor="middle" x="1085" y="-548.66" font-family="Times,serif" font-size="14.00">instrument_run_directory</text>
</g>
<!-- run_dragen_instrument_run_fastq_to_ora_step -->
<g id="node9" class="node">
<title>run_dragen_instrument_run_fastq_to_ora_step</title>
<ellipse fill="none" stroke="black" cx="615" cy="-349.36" rx="225.56" ry="18"/>
<text text-anchor="middle" x="615" y="-345.66" font-family="Times,serif" font-size="14.00">run_dragen_instrument_run_fastq_to_ora_step</text>
</g>
<!-- instrument_run_directory&#45;&gt;run_dragen_instrument_run_fastq_to_ora_step -->
<g id="edge1" class="edge">
<title>instrument_run_directory&#45;&gt;run_dragen_instrument_run_fastq_to_ora_step</title>
<path fill="none" stroke="black" d="M1038.52,-533.78C1016.69,-524.35 990.49,-512.58 967,-502.36 856.76,-454.38 726.6,-400.17 659.58,-371.22"/>
<polygon fill="black" stroke="black" points="660.73,-367.91 650.16,-367.14 657.95,-374.33 660.73,-367.91"/>
</g>
<!-- instrument_run_directory&#45;&gt;run_dragen_instrument_run_fastq_to_ora_step -->
<g id="edge2" class="edge">
<title>instrument_run_directory&#45;&gt;run_dragen_instrument_run_fastq_to_ora_step</title>
<path fill="none" stroke="black" d="M1054.26,-533.67C1034.48,-524.25 1008.4,-512.54 985,-502.36 874.16,-454.12 743.18,-399.58 670.47,-370.75"/>
<polygon fill="black" stroke="black" points="671.62,-367.44 661.03,-367.03 669.05,-373.95 671.62,-367.44"/>
</g>
<!-- ora_check_file_integrity -->
<g id="node2" class="node">
<title>ora_check_file_integrity</title>
<polygon fill="#94ddf4" stroke="black" points="781.5,-533.86 781.5,-570.86 966.5,-570.86 966.5,-533.86 781.5,-533.86"/>
<text text-anchor="middle" x="874" y="-548.66" font-family="Times,serif" font-size="14.00">ora_check_file_integrity</text>
</g>
<!-- ora_check_file_integrity&#45;&gt;run_dragen_instrument_run_fastq_to_ora_step -->
<g id="edge3" class="edge">
<title>ora_check_file_integrity&#45;&gt;run_dragen_instrument_run_fastq_to_ora_step</title>
<path fill="none" stroke="black" d="M851.02,-533.52C804.11,-497.12 697.37,-414.28 645.04,-373.67"/>
<polygon fill="black" stroke="black" points="646.88,-370.67 636.83,-367.3 642.59,-376.2 646.88,-370.67"/>
</g>
<!-- ora_parallel_files -->
<g id="node3" class="node">
<title>ora_parallel_files</title>
<polygon fill="#94ddf4" stroke="black" points="626.5,-533.86 626.5,-570.86 763.5,-570.86 763.5,-533.86 626.5,-533.86"/>
<text text-anchor="middle" x="695" y="-548.66" font-family="Times,serif" font-size="14.00">ora_parallel_files</text>
</g>
<!-- ora_parallel_files&#45;&gt;run_dragen_instrument_run_fastq_to_ora_step -->
<g id="edge4" class="edge">
<title>ora_parallel_files&#45;&gt;run_dragen_instrument_run_fastq_to_ora_step</title>
<path fill="none" stroke="black" d="M687.9,-533.52C673.8,-498.11 642.22,-418.75 625.63,-377.08"/>
<polygon fill="black" stroke="black" points="628.81,-375.58 621.86,-367.58 622.3,-378.17 628.81,-375.58"/>
</g>
<!-- ora_print_file_info -->
<g id="node4" class="node">
<title>ora_print_file_info</title>
<polygon fill="#94ddf4" stroke="black" points="464,-533.86 464,-570.86 608,-570.86 608,-533.86 464,-533.86"/>
<text text-anchor="middle" x="536" y="-548.66" font-family="Times,serif" font-size="14.00">ora_print_file_info</text>
</g>
<!-- ora_print_file_info&#45;&gt;run_dragen_instrument_run_fastq_to_ora_step -->
<g id="edge5" class="edge">
<title>ora_print_file_info&#45;&gt;run_dragen_instrument_run_fastq_to_ora_step</title>
<path fill="none" stroke="black" d="M543.01,-533.52C556.93,-498.11 588.12,-418.75 604.5,-377.08"/>
<polygon fill="black" stroke="black" points="607.83,-378.17 608.23,-367.58 601.31,-375.61 607.83,-378.17"/>
</g>
<!-- ora_reference -->
<g id="node5" class="node">
<title>ora_reference</title>
<polygon fill="#94ddf4" stroke="black" points="330.5,-533.86 330.5,-570.86 445.5,-570.86 445.5,-533.86 330.5,-533.86"/>
<text text-anchor="middle" x="388" y="-548.66" font-family="Times,serif" font-size="14.00">ora_reference</text>
</g>
<!-- ora_reference&#45;&gt;run_dragen_instrument_run_fastq_to_ora_step -->
<g id="edge6" class="edge">
<title>ora_reference&#45;&gt;run_dragen_instrument_run_fastq_to_ora_step</title>
<path fill="none" stroke="black" d="M408.14,-533.52C449.09,-497.27 542.04,-414.96 588.1,-374.18"/>
<polygon fill="black" stroke="black" points="590.7,-376.55 595.87,-367.3 586.06,-371.31 590.7,-376.55"/>
</g>
<!-- ora_threads_per_file -->
<g id="node6" class="node">
<title>ora_threads_per_file</title>
<polygon fill="#94ddf4" stroke="black" points="151.5,-533.86 151.5,-570.86 312.5,-570.86 312.5,-533.86 151.5,-533.86"/>
<text text-anchor="middle" x="232" y="-548.66" font-family="Times,serif" font-size="14.00">ora_threads_per_file</text>
</g>
<!-- ora_threads_per_file&#45;&gt;run_dragen_instrument_run_fastq_to_ora_step -->
<g id="edge7" class="edge">
<title>ora_threads_per_file&#45;&gt;run_dragen_instrument_run_fastq_to_ora_step</title>
<path fill="none" stroke="black" d="M263.99,-533.74C281.15,-524.34 302.68,-512.63 322,-502.36 410.92,-455.1 515.81,-401.1 572.86,-371.88"/>
<polygon fill="black" stroke="black" points="574.63,-374.91 581.93,-367.24 571.44,-368.68 574.63,-374.91"/>
</g>
<!-- sample_id_list -->
<g id="node7" class="node">
<title>sample_id_list</title>
<polygon fill="#94ddf4" stroke="black" points="16.5,-533.86 16.5,-570.86 133.5,-570.86 133.5,-533.86 16.5,-533.86"/>
<text text-anchor="middle" x="75" y="-548.66" font-family="Times,serif" font-size="14.00">sample_id_list</text>
</g>
<!-- sample_id_list&#45;&gt;run_dragen_instrument_run_fastq_to_ora_step -->
<g id="edge8" class="edge">
<title>sample_id_list&#45;&gt;run_dragen_instrument_run_fastq_to_ora_step</title>
<path fill="none" stroke="black" d="M95.93,-533.63C108.85,-523.39 126.12,-510.89 143,-502.36 272.06,-437.13 434.98,-392.06 531.75,-368.77"/>
<polygon fill="black" stroke="black" points="532.57,-372.18 541.48,-366.45 530.94,-365.37 532.57,-372.18"/>
</g>
<!-- output_directory -->
<g id="node8" class="node">
<title>output_directory</title>
<polygon fill="#94ddf4" stroke="black" points="547,-135.86 547,-172.86 683,-172.86 683,-135.86 547,-135.86"/>
<text text-anchor="middle" x="615" y="-150.66" font-family="Times,serif" font-size="14.00">output_directory</text>
</g>
<!-- run_dragen_instrument_run_fastq_to_ora_step&#45;&gt;output_directory -->
<g id="edge9" class="edge">
<title>run_dragen_instrument_run_fastq_to_ora_step&#45;&gt;output_directory</title>
<path fill="none" stroke="black" d="M615,-331.23C615,-297.85 615,-223.82 615,-183.26"/>
<polygon fill="black" stroke="black" points="618.5,-183 615,-173 611.5,-183 618.5,-183"/>
</g>
<!-- \n -->
<g id="node10" class="node">
<title>\n</title>
<ellipse fill="none" stroke="black" cx="1230" cy="-552.36" rx="27" ry="18"/>
</g>
</g>
</svg>
