<?xml version="1.0" encoding="UTF-8" standalone="no"?>
<!DOCTYPE svg PUBLIC "-//W3C//DTD SVG 1.1//EN"
 "http://www.w3.org/Graphics/SVG/1.1/DTD/svg11.dtd">
<!-- Generated by graphviz version 2.43.0 (0)
 -->
<!-- Title: G Pages: 1 -->
<svg width="2507pt" height="910pt"
 viewBox="0.00 0.00 2507.00 910.14" xmlns="http://www.w3.org/2000/svg" xmlns:xlink="http://www.w3.org/1999/xlink">
<g id="graph0" class="graph" transform="scale(1 1) rotate(0) translate(4 906.14)">
<title>G</title>
<polygon fill="#eeeeee" stroke="transparent" points="-4,4 -4,-906.14 2503,-906.14 2503,4 -4,4"/>
<g id="clust1" class="cluster">
<title>cluster_inputs</title>
<polygon fill="#eeeeee" stroke="black" stroke-dasharray="5,2" points="8,-660.8 8,-879.15 2491,-879.15 2491,-660.8 8,-660.8"/>
<text text-anchor="middle" x="2424.5" y="-668.6" font-family="Times,serif" font-size="14.00">Workflow Inputs</text>
</g>
<g id="clust2" class="cluster">
<title>cluster_outputs</title>
<polygon fill="#eeeeee" stroke="black" stroke-dasharray="5,2" points="540,-22.98 540,-241.34 1085,-241.34 1085,-22.98 540,-22.98"/>
<text text-anchor="middle" x="1012.5" y="-30.78" font-family="Times,serif" font-size="14.00">Workflow Outputs</text>
</g>
<!-- run_dragen_transcriptome_step -->
<g id="node1" class="node">
<title>run_dragen_transcriptome_step</title>
<polygon fill="lightgoldenrodyellow" stroke="black" points="1017,-566.98 1017,-602.98 1249,-602.98 1249,-566.98 1017,-566.98"/>
<text text-anchor="middle" x="1133" y="-581.28" font-family="Times,serif" font-size="14.00">dragen&#45;transcriptome v(4.2.4)</text>
</g>
<!-- run_qualimap_step -->
<g id="node2" class="node">
<title>run_qualimap_step</title>
<polygon fill="lightgoldenrodyellow" stroke="black" points="326,-356.98 326,-392.98 468,-392.98 468,-356.98 326,-356.98"/>
<text text-anchor="middle" x="397" y="-371.28" font-family="Times,serif" font-size="14.00">qualimap v(2.2.2)</text>
</g>
<!-- run_dragen_transcriptome_step&#45;&gt;run_qualimap_step -->
<g id="edge1" class="edge">
<title>run_dragen_transcriptome_step&#45;&gt;run_qualimap_step</title>
<path fill="none" stroke="black" d="M1072.77,-566.96C937.74,-528.8 611.39,-436.57 467.34,-395.86"/>
<polygon fill="black" stroke="black" points="467.86,-392.37 457.29,-393.02 465.96,-399.11 467.86,-392.37"/>
</g>
<!-- dragen_transcriptome_output_directory -->
<g id="node19" class="node">
<title>dragen_transcriptome_output_directory</title>
<polygon fill="#94ddf4" stroke="black" points="775.5,-146.98 775.5,-182.98 1076.5,-182.98 1076.5,-146.98 775.5,-146.98"/>
<text text-anchor="middle" x="926" y="-161.28" font-family="Times,serif" font-size="14.00">dragen_transcriptome_output_directory</text>
</g>
<!-- run_dragen_transcriptome_step&#45;&gt;dragen_transcriptome_output_directory -->
<g id="edge20" class="edge">
<title>run_dragen_transcriptome_step&#45;&gt;dragen_transcriptome_output_directory</title>
<path fill="none" stroke="black" d="M1124.5,-566.82C1092.33,-501.85 977.87,-270.73 939.02,-192.27"/>
<polygon fill="black" stroke="black" points="942.03,-190.47 934.46,-183.06 935.76,-193.58 942.03,-190.47"/>
</g>
<!-- qualimap_output_directory -->
<g id="node20" class="node">
<title>qualimap_output_directory</title>
<polygon fill="#94ddf4" stroke="black" points="548.5,-146.98 548.5,-182.98 757.5,-182.98 757.5,-146.98 548.5,-146.98"/>
<text text-anchor="middle" x="653" y="-161.28" font-family="Times,serif" font-size="14.00">qualimap_output_directory</text>
</g>
<!-- run_qualimap_step&#45;&gt;qualimap_output_directory -->
<g id="edge21" class="edge">
<title>run_qualimap_step&#45;&gt;qualimap_output_directory</title>
<path fill="none" stroke="black" d="M417.95,-356.96C463.52,-319.94 571.72,-232.02 623.89,-189.64"/>
<polygon fill="black" stroke="black" points="626.21,-192.26 631.76,-183.24 621.79,-186.83 626.21,-192.26"/>
</g>
<!-- annotation_file -->
<g id="node3" class="node">
<title>annotation_file</title>
<polygon fill="#94ddf4" stroke="black" points="226,-784.98 226,-820.98 348,-820.98 348,-784.98 226,-784.98"/>
<text text-anchor="middle" x="287" y="-799.28" font-family="Times,serif" font-size="14.00">annotation_file</text>
</g>
<!-- annotation_file&#45;&gt;run_dragen_transcriptome_step -->
<g id="edge2" class="edge">
<title>annotation_file&#45;&gt;run_dragen_transcriptome_step</title>
<path fill="none" stroke="black" d="M307.16,-784.81C320.5,-774.29 338.82,-761.37 357,-753.48 574.14,-659.3 849.15,-616.1 1006.69,-597.87"/>
<polygon fill="black" stroke="black" points="1007.35,-601.32 1016.89,-596.7 1006.56,-594.36 1007.35,-601.32"/>
</g>
<!-- annotation_file&#45;&gt;run_qualimap_step -->
<g id="edge3" class="edge">
<title>annotation_file&#45;&gt;run_qualimap_step</title>
<path fill="none" stroke="black" d="M291.45,-784.76C308.41,-719.06 369.13,-483.91 389.94,-403.32"/>
<polygon fill="black" stroke="black" points="393.38,-403.98 392.5,-393.43 386.61,-402.23 393.38,-403.98"/>
</g>
<!-- bam_input -->
<g id="node4" class="node">
<title>bam_input</title>
<polygon fill="#94ddf4" stroke="black" points="2391,-784.98 2391,-820.98 2483,-820.98 2483,-784.98 2391,-784.98"/>
<text text-anchor="middle" x="2437" y="-799.28" font-family="Times,serif" font-size="14.00">bam_input</text>
</g>
<!-- bam_input&#45;&gt;run_dragen_transcriptome_step -->
<g id="edge4" class="edge">
<title>bam_input&#45;&gt;run_dragen_transcriptome_step</title>
<path fill="none" stroke="black" d="M2422.46,-784.74C2412.29,-773.91 2397.75,-760.67 2382,-753.48 2183.35,-662.86 1535.21,-611.73 1259.25,-593.6"/>
<polygon fill="black" stroke="black" points="1259.4,-590.1 1249.19,-592.94 1258.94,-597.08 1259.4,-590.1"/>
</g>
<!-- enable_duplicate_marking -->
<g id="node5" class="node">
<title>enable_duplicate_marking</title>
<polygon fill="#94ddf4" stroke="black" points="2169.5,-784.98 2169.5,-820.98 2372.5,-820.98 2372.5,-784.98 2169.5,-784.98"/>
<text text-anchor="middle" x="2271" y="-799.28" font-family="Times,serif" font-size="14.00">enable_duplicate_marking</text>
</g>
<!-- enable_duplicate_marking&#45;&gt;run_dragen_transcriptome_step -->
<g id="edge5" class="edge">
<title>enable_duplicate_marking&#45;&gt;run_dragen_transcriptome_step</title>
<path fill="none" stroke="black" d="M2238.13,-784.86C2216.69,-774.35 2187.81,-761.44 2161,-753.48 1844.06,-659.46 1455.52,-614.3 1259.29,-596.17"/>
<polygon fill="black" stroke="black" points="1259.5,-592.68 1249.23,-595.25 1258.86,-599.65 1259.5,-592.68"/>
</g>
<!-- enable_map_align -->
<g id="node6" class="node">
<title>enable_map_align</title>
<polygon fill="#94ddf4" stroke="black" points="2008.5,-784.98 2008.5,-820.98 2151.5,-820.98 2151.5,-784.98 2008.5,-784.98"/>
<text text-anchor="middle" x="2080" y="-799.28" font-family="Times,serif" font-size="14.00">enable_map_align</text>
</g>
<!-- enable_map_align&#45;&gt;run_dragen_transcriptome_step -->
<g id="edge6" class="edge">
<title>enable_map_align&#45;&gt;run_dragen_transcriptome_step</title>
<path fill="none" stroke="black" d="M2056.65,-784.77C2041.27,-774.23 2020.31,-761.31 2000,-753.48 1747.72,-656.24 1431.56,-613.48 1259.27,-596.3"/>
<polygon fill="black" stroke="black" points="1259.44,-592.8 1249.14,-595.3 1258.75,-599.76 1259.44,-592.8"/>
</g>
<!-- enable_map_align_output -->
<g id="node7" class="node">
<title>enable_map_align_output</title>
<polygon fill="#94ddf4" stroke="black" points="1793.5,-784.98 1793.5,-820.98 1990.5,-820.98 1990.5,-784.98 1793.5,-784.98"/>
<text text-anchor="middle" x="1892" y="-799.28" font-family="Times,serif" font-size="14.00">enable_map_align_output</text>
</g>
<!-- enable_map_align_output&#45;&gt;run_dragen_transcriptome_step -->
<g id="edge7" class="edge">
<title>enable_map_align_output&#45;&gt;run_dragen_transcriptome_step</title>
<path fill="none" stroke="black" d="M1858.07,-784.95C1837.1,-774.88 1809.41,-762.39 1784,-753.48 1590.51,-685.7 1356.02,-632.07 1227.91,-605.09"/>
<polygon fill="black" stroke="black" points="1228.62,-601.66 1218.12,-603.03 1227.19,-608.51 1228.62,-601.66"/>
</g>
<!-- enable_rna_gene_fusion -->
<g id="node8" class="node">
<title>enable_rna_gene_fusion</title>
<polygon fill="#94ddf4" stroke="black" points="1589,-784.98 1589,-820.98 1775,-820.98 1775,-784.98 1589,-784.98"/>
<text text-anchor="middle" x="1682" y="-799.28" font-family="Times,serif" font-size="14.00">enable_rna_gene_fusion</text>
</g>
<!-- enable_rna_gene_fusion&#45;&gt;run_dragen_transcriptome_step -->
<g id="edge8" class="edge">
<title>enable_rna_gene_fusion&#45;&gt;run_dragen_transcriptome_step</title>
<path fill="none" stroke="black" d="M1647.87,-784.86C1628.21,-775.22 1602.93,-763.21 1580,-753.48 1443.18,-695.44 1278.69,-636.52 1192.44,-606.44"/>
<polygon fill="black" stroke="black" points="1193.42,-603.07 1182.82,-603.09 1191.11,-609.68 1193.42,-603.07"/>
</g>
<!-- enable_rna_quantification -->
<g id="node9" class="node">
<title>enable_rna_quantification</title>
<polygon fill="#94ddf4" stroke="black" points="1371,-784.98 1371,-820.98 1571,-820.98 1571,-784.98 1371,-784.98"/>
<text text-anchor="middle" x="1471" y="-799.28" font-family="Times,serif" font-size="14.00">enable_rna_quantification</text>
</g>
<!-- enable_rna_quantification&#45;&gt;run_dragen_transcriptome_step -->
<g id="edge9" class="edge">
<title>enable_rna_quantification&#45;&gt;run_dragen_transcriptome_step</title>
<path fill="none" stroke="black" d="M1444.2,-784.85C1383.68,-746.18 1236.44,-652.09 1168.47,-608.65"/>
<polygon fill="black" stroke="black" points="1170.12,-605.55 1159.81,-603.12 1166.35,-611.45 1170.12,-605.55"/>
</g>
<!-- enable_sort -->
<g id="node10" class="node">
<title>enable_sort</title>
<polygon fill="#94ddf4" stroke="black" points="1253.5,-784.98 1253.5,-820.98 1352.5,-820.98 1352.5,-784.98 1253.5,-784.98"/>
<text text-anchor="middle" x="1303" y="-799.28" font-family="Times,serif" font-size="14.00">enable_sort</text>
</g>
<!-- enable_sort&#45;&gt;run_dragen_transcriptome_step -->
<g id="edge10" class="edge">
<title>enable_sort&#45;&gt;run_dragen_transcriptome_step</title>
<path fill="none" stroke="black" d="M1289.38,-784.67C1259.4,-746.58 1187.62,-655.38 1152.72,-611.04"/>
<polygon fill="black" stroke="black" points="1155.39,-608.77 1146.45,-603.08 1149.89,-613.1 1155.39,-608.77"/>
</g>
<!-- fastq_list -->
<g id="node11" class="node">
<title>fastq_list</title>
<polygon fill="#94ddf4" stroke="black" points="1153,-784.98 1153,-820.98 1235,-820.98 1235,-784.98 1153,-784.98"/>
<text text-anchor="middle" x="1194" y="-799.28" font-family="Times,serif" font-size="14.00">fastq_list</text>
</g>
<!-- fastq_list&#45;&gt;run_dragen_transcriptome_step -->
<g id="edge11" class="edge">
<title>fastq_list&#45;&gt;run_dragen_transcriptome_step</title>
<path fill="none" stroke="black" d="M1189.11,-784.67C1178.49,-747.06 1153.24,-657.65 1140.55,-612.72"/>
<polygon fill="black" stroke="black" points="1143.91,-611.75 1137.83,-603.08 1137.18,-613.65 1143.91,-611.75"/>
</g>
<!-- fastq_list_rows -->
<g id="node12" class="node">
<title>fastq_list_rows</title>
<polygon fill="#94ddf4" stroke="black" points="1011.5,-784.98 1011.5,-820.98 1134.5,-820.98 1134.5,-784.98 1011.5,-784.98"/>
<text text-anchor="middle" x="1073" y="-799.28" font-family="Times,serif" font-size="14.00">fastq_list_rows</text>
</g>
<!-- fastq_list_rows&#45;&gt;run_dragen_transcriptome_step -->
<g id="edge12" class="edge">
<title>fastq_list_rows&#45;&gt;run_dragen_transcriptome_step</title>
<path fill="none" stroke="black" d="M1077.81,-784.67C1088.26,-747.06 1113.09,-657.65 1125.57,-612.72"/>
<polygon fill="black" stroke="black" points="1128.95,-613.65 1128.25,-603.08 1122.2,-611.78 1128.95,-613.65"/>
</g>
<!-- lic_instance_id_location -->
<g id="node13" class="node">
<title>lic_instance_id_location</title>
<polygon fill="#94ddf4" stroke="black" points="810.5,-784.98 810.5,-820.98 993.5,-820.98 993.5,-784.98 810.5,-784.98"/>
<text text-anchor="middle" x="902" y="-799.28" font-family="Times,serif" font-size="14.00">lic_instance_id_location</text>
</g>
<!-- lic_instance_id_location&#45;&gt;run_dragen_transcriptome_step -->
<g id="edge13" class="edge">
<title>lic_instance_id_location&#45;&gt;run_dragen_transcriptome_step</title>
<path fill="none" stroke="black" d="M920.51,-784.67C961.59,-746.27 1060.41,-653.86 1107.38,-609.94"/>
<polygon fill="black" stroke="black" points="1109.81,-612.46 1114.72,-603.08 1105.02,-607.35 1109.81,-612.46"/>
</g>
<!-- output_directory -->
<g id="node14" class="node">
<title>output_directory</title>
<polygon fill="#94ddf4" stroke="black" points="366,-784.98 366,-820.98 502,-820.98 502,-784.98 366,-784.98"/>
<text text-anchor="middle" x="434" y="-799.28" font-family="Times,serif" font-size="14.00">output_directory</text>
</g>
<!-- output_directory&#45;&gt;run_dragen_transcriptome_step -->
<g id="edge14" class="edge">
<title>output_directory&#45;&gt;run_dragen_transcriptome_step</title>
<path fill="none" stroke="black" d="M457.58,-784.77C472.56,-774.5 492.69,-761.87 512,-753.48 684.76,-678.42 899.47,-629.56 1025.84,-604.95"/>
<polygon fill="black" stroke="black" points="1026.76,-608.34 1035.91,-603.01 1025.43,-601.47 1026.76,-608.34"/>
</g>
<!-- output_directory&#45;&gt;run_qualimap_step -->
<g id="edge15" class="edge">
<title>output_directory&#45;&gt;run_qualimap_step</title>
<path fill="none" stroke="black" d="M432.5,-784.76C426.81,-719.19 406.46,-484.87 399.42,-403.81"/>
<polygon fill="black" stroke="black" points="402.87,-403.09 398.51,-393.43 395.89,-403.69 402.87,-403.09"/>
</g>
<!-- output_file_prefix -->
<g id="node15" class="node">
<title>output_file_prefix</title>
<polygon fill="#94ddf4" stroke="black" points="652,-784.98 652,-820.98 792,-820.98 792,-784.98 652,-784.98"/>
<text text-anchor="middle" x="722" y="-799.28" font-family="Times,serif" font-size="14.00">output_file_prefix</text>
</g>
<!-- output_file_prefix&#45;&gt;run_dragen_transcriptome_step -->
<g id="edge16" class="edge">
<title>output_file_prefix&#45;&gt;run_dragen_transcriptome_step</title>
<path fill="none" stroke="black" d="M749.09,-784.85C764.45,-775.32 784.11,-763.42 802,-753.48 902.37,-697.77 1023.42,-638.44 1087.71,-607.54"/>
<polygon fill="black" stroke="black" points="1089.27,-610.67 1096.77,-603.19 1086.24,-604.36 1089.27,-610.67"/>
</g>
<!-- reference_tar -->
<g id="node16" class="node">
<title>reference_tar</title>
<polygon fill="#94ddf4" stroke="black" points="520.5,-784.98 520.5,-820.98 633.5,-820.98 633.5,-784.98 520.5,-784.98"/>
<text text-anchor="middle" x="577" y="-799.28" font-family="Times,serif" font-size="14.00">reference_tar</text>
</g>
<!-- reference_tar&#45;&gt;run_dragen_transcriptome_step -->
<g id="edge17" class="edge">
<title>reference_tar&#45;&gt;run_dragen_transcriptome_step</title>
<path fill="none" stroke="black" d="M597.03,-784.76C609.6,-774.61 626.49,-762.11 643,-753.48 779.29,-682.26 952.22,-631.43 1051.97,-605.55"/>
<polygon fill="black" stroke="black" points="1052.88,-608.93 1061.69,-603.04 1051.13,-602.15 1052.88,-608.93"/>
</g>
<!-- algorithm -->
<g id="node17" class="node">
<title>algorithm</title>
<polygon fill="#94ddf4" stroke="black" points="122,-784.98 122,-820.98 208,-820.98 208,-784.98 122,-784.98"/>
<text text-anchor="middle" x="165" y="-799.28" font-family="Times,serif" font-size="14.00">algorithm</text>
</g>
<!-- algorithm&#45;&gt;run_qualimap_step -->
<g id="edge18" class="edge">
<title>algorithm&#45;&gt;run_qualimap_step</title>
<path fill="none" stroke="black" d="M174.38,-784.76C210.31,-718.79 339.27,-481.99 382.65,-402.34"/>
<polygon fill="black" stroke="black" points="385.79,-403.88 387.5,-393.43 379.64,-400.53 385.79,-403.88"/>
</g>
<!-- java_mem -->
<g id="node18" class="node">
<title>java_mem</title>
<polygon fill="#94ddf4" stroke="black" points="16,-784.98 16,-820.98 104,-820.98 104,-784.98 16,-784.98"/>
<text text-anchor="middle" x="60" y="-799.28" font-family="Times,serif" font-size="14.00">java_mem</text>
</g>
<!-- java_mem&#45;&gt;run_qualimap_step -->
<g id="edge19" class="edge">
<title>java_mem&#45;&gt;run_qualimap_step</title>
<path fill="none" stroke="black" d="M73.63,-784.76C126.02,-718.52 314.67,-480.06 376.91,-401.38"/>
<polygon fill="black" stroke="black" points="379.74,-403.44 383.2,-393.43 374.25,-399.1 379.74,-403.44"/>
</g>
</g>
</svg>
