<?xml version="1.0" encoding="UTF-8" standalone="no"?>
<!DOCTYPE svg PUBLIC "-//W3C//DTD SVG 1.1//EN"
 "http://www.w3.org/Graphics/SVG/1.1/DTD/svg11.dtd">
<!-- Generated by graphviz version 2.43.0 (0)
 -->
<!-- Title: G Pages: 1 -->
<svg width="948pt" height="592pt"
 viewBox="0.00 0.00 948.00 591.74" xmlns="http://www.w3.org/2000/svg" xmlns:xlink="http://www.w3.org/1999/xlink">
<g id="graph0" class="graph" transform="scale(1 1) rotate(0) translate(4 587.74)">
<title>G</title>
<polygon fill="#eeeeee" stroke="transparent" points="-4,4 -4,-587.74 944,-587.74 944,4 -4,4"/>
<g id="clust1" class="cluster">
<title>cluster_inputs</title>
<polygon fill="#eeeeee" stroke="black" stroke-dasharray="5,2" points="8,-457.04 8,-571.67 932,-571.67 932,-457.04 8,-457.04"/>
<text text-anchor="middle" x="865.5" y="-464.84" font-family="Times,serif" font-size="14.00">Workflow Inputs</text>
</g>
<g id="clust2" class="cluster">
<title>cluster_outputs</title>
<polygon fill="#eeeeee" stroke="black" stroke-dasharray="5,2" points="166,-12.07 166,-126.7 681,-126.7 681,-12.07 166,-12.07"/>
<text text-anchor="middle" x="608.5" y="-19.87" font-family="Times,serif" font-size="14.00">Workflow Outputs</text>
</g>
<!-- get_run_info_xml_file_from_reports_dir -->
<g id="node1" class="node">
<title>get_run_info_xml_file_from_reports_dir</title>
<polygon fill="lightgoldenrodyellow" stroke="black" points="285.5,-399.07 285.5,-435.07 518.5,-435.07 518.5,-399.07 285.5,-399.07"/>
<text text-anchor="middle" x="402" y="-413.37" font-family="Times,serif" font-size="14.00">get&#45;file&#45;from&#45;directory v(1.0.1)</text>
</g>
<!-- generate_interop_qc_step -->
<g id="node2" class="node">
<title>generate_interop_qc_step</title>
<polygon fill="lightgoldenrodyellow" stroke="black" points="153,-289.07 153,-325.07 343,-325.07 343,-289.07 153,-289.07"/>
<text text-anchor="middle" x="248" y="-303.37" font-family="Times,serif" font-size="14.00">illumina&#45;interop v(1.9.0)</text>
</g>
<!-- get_run_info_xml_file_from_reports_dir&#45;&gt;generate_interop_qc_step -->
<g id="edge1" class="edge">
<title>get_run_info_xml_file_from_reports_dir&#45;&gt;generate_interop_qc_step</title>
<path fill="none" stroke="black" d="M377.6,-398.95C351.35,-380.55 309.49,-351.19 280.48,-330.84"/>
<polygon fill="black" stroke="black" points="282.48,-327.98 272.29,-325.1 278.47,-333.71 282.48,-327.98"/>
</g>
<!-- run_multiqc_step -->
<g id="node3" class="node">
<title>run_multiqc_step</title>
<polygon fill="lightgoldenrodyellow" stroke="black" points="486.5,-179.07 486.5,-215.07 625.5,-215.07 625.5,-179.07 486.5,-179.07"/>
<text text-anchor="middle" x="556" y="-193.37" font-family="Times,serif" font-size="14.00">multiqc v(1.33.0)</text>
</g>
<!-- generate_interop_qc_step&#45;&gt;run_multiqc_step -->
<g id="edge2" class="edge">
<title>generate_interop_qc_step&#45;&gt;run_multiqc_step</title>
<path fill="none" stroke="black" d="M296.8,-288.95C351.32,-269.84 439.53,-238.91 497.65,-218.53"/>
<polygon fill="black" stroke="black" points="499.15,-221.71 507.42,-215.1 496.83,-215.11 499.15,-221.71"/>
</g>
<!-- interop_output_dir -->
<g id="node9" class="node">
<title>interop_output_dir</title>
<polygon fill="#94ddf4" stroke="black" points="173.5,-69.07 173.5,-105.07 322.5,-105.07 322.5,-69.07 173.5,-69.07"/>
<text text-anchor="middle" x="248" y="-83.37" font-family="Times,serif" font-size="14.00">interop_output_dir</text>
</g>
<!-- generate_interop_qc_step&#45;&gt;interop_output_dir -->
<g id="edge12" class="edge">
<title>generate_interop_qc_step&#45;&gt;interop_output_dir</title>
<path fill="none" stroke="black" d="M248,-288.96C248,-251.23 248,-160.63 248,-115.12"/>
<polygon fill="black" stroke="black" points="251.5,-115.09 248,-105.09 244.5,-115.09 251.5,-115.09"/>
</g>
<!-- multiqc_html_report -->
<g id="node10" class="node">
<title>multiqc_html_report</title>
<polygon fill="#94ddf4" stroke="black" points="511,-69.07 511,-105.07 673,-105.07 673,-69.07 511,-69.07"/>
<text text-anchor="middle" x="592" y="-83.37" font-family="Times,serif" font-size="14.00">multiqc_html_report</text>
</g>
<!-- run_multiqc_step&#45;&gt;multiqc_html_report -->
<g id="edge13" class="edge">
<title>run_multiqc_step&#45;&gt;multiqc_html_report</title>
<path fill="none" stroke="black" d="M561.78,-178.71C567.5,-161.55 576.34,-135.04 582.99,-115.11"/>
<polygon fill="black" stroke="black" points="586.39,-115.97 586.23,-105.38 579.75,-113.76 586.39,-115.97"/>
</g>
<!-- multiqc_output_dir -->
<g id="node11" class="node">
<title>multiqc_output_dir</title>
<polygon fill="#94ddf4" stroke="black" points="341,-69.07 341,-105.07 493,-105.07 493,-69.07 341,-69.07"/>
<text text-anchor="middle" x="417" y="-83.37" font-family="Times,serif" font-size="14.00">multiqc_output_dir</text>
</g>
<!-- run_multiqc_step&#45;&gt;multiqc_output_dir -->
<g id="edge14" class="edge">
<title>run_multiqc_step&#45;&gt;multiqc_output_dir</title>
<path fill="none" stroke="black" d="M533.98,-178.95C510.49,-160.71 473.15,-131.69 446.99,-111.37"/>
<polygon fill="black" stroke="black" points="448.97,-108.47 438.92,-105.1 444.67,-114 448.97,-108.47"/>
</g>
<!-- instrument_run_id -->
<g id="node4" class="node">
<title>instrument_run_id</title>
<polygon fill="#94ddf4" stroke="black" points="174,-514.07 174,-550.07 322,-550.07 322,-514.07 174,-514.07"/>
<text text-anchor="middle" x="248" y="-528.37" font-family="Times,serif" font-size="14.00">instrument_run_id</text>
</g>
<!-- instrument_run_id&#45;&gt;generate_interop_qc_step -->
<g id="edge3" class="edge">
<title>instrument_run_id&#45;&gt;generate_interop_qc_step</title>
<path fill="none" stroke="black" d="M244.19,-513.94C240.56,-475.51 240.29,-382.15 243.38,-335.52"/>
<polygon fill="black" stroke="black" points="246.89,-335.5 244.19,-325.25 239.91,-334.95 246.89,-335.5"/>
</g>
<!-- instrument_run_id&#45;&gt;generate_interop_qc_step -->
<g id="edge4" class="edge">
<title>instrument_run_id&#45;&gt;generate_interop_qc_step</title>
<path fill="none" stroke="black" d="M251.81,-513.94C255.44,-475.51 255.71,-382.15 252.62,-335.52"/>
<polygon fill="black" stroke="black" points="256.09,-334.95 251.81,-325.25 249.11,-335.5 256.09,-334.95"/>
</g>
<!-- instrument_run_id&#45;&gt;run_multiqc_step -->
<g id="edge5" class="edge">
<title>instrument_run_id&#45;&gt;run_multiqc_step</title>
<path fill="none" stroke="black" d="M265.4,-513.98C280.34,-503.63 302.2,-490.86 323,-482.57 406.21,-449.38 459.5,-502.53 519,-435.57 571.43,-376.56 561.43,-274.2 556.49,-225.43"/>
<polygon fill="black" stroke="black" points="559.96,-224.93 555.49,-215.33 553,-225.63 559.96,-224.93"/>
</g>
<!-- instrument_run_id&#45;&gt;run_multiqc_step -->
<g id="edge6" class="edge">
<title>instrument_run_id&#45;&gt;run_multiqc_step</title>
<path fill="none" stroke="black" d="M280.87,-513.98C298.34,-503.63 320.2,-490.86 341,-482.57 424.21,-449.38 477.5,-502.53 537,-435.57 589.54,-376.43 579.38,-273.77 567.04,-225.13"/>
<polygon fill="black" stroke="black" points="570.37,-224.02 564.32,-215.33 563.63,-225.9 570.37,-224.02"/>
</g>
<!-- interop_directory -->
<g id="node5" class="node">
<title>interop_directory</title>
<polygon fill="#94ddf4" stroke="black" points="16,-514.07 16,-550.07 156,-550.07 156,-514.07 16,-514.07"/>
<text text-anchor="middle" x="86" y="-528.37" font-family="Times,serif" font-size="14.00">interop_directory</text>
</g>
<!-- interop_directory&#45;&gt;generate_interop_qc_step -->
<g id="edge7" class="edge">
<title>interop_directory&#45;&gt;generate_interop_qc_step</title>
<path fill="none" stroke="black" d="M98.44,-513.94C126.77,-474.94 196.2,-379.38 229.54,-333.48"/>
<polygon fill="black" stroke="black" points="232.47,-335.4 235.51,-325.25 226.81,-331.29 232.47,-335.4"/>
</g>
<!-- bclconvert_report_directory -->
<g id="node6" class="node">
<title>bclconvert_report_directory</title>
<polygon fill="#94ddf4" stroke="black" points="340.5,-514.07 340.5,-550.07 555.5,-550.07 555.5,-514.07 340.5,-514.07"/>
<text text-anchor="middle" x="448" y="-528.37" font-family="Times,serif" font-size="14.00">bclconvert_report_directory</text>
</g>
<!-- bclconvert_report_directory&#45;&gt;get_run_info_xml_file_from_reports_dir -->
<g id="edge8" class="edge">
<title>bclconvert_report_directory&#45;&gt;get_run_info_xml_file_from_reports_dir</title>
<path fill="none" stroke="black" d="M441.01,-513.9C433.55,-495.57 421.62,-466.26 412.91,-444.88"/>
<polygon fill="black" stroke="black" points="416.06,-443.33 409.05,-435.39 409.58,-445.97 416.06,-443.33"/>
</g>
<!-- bclconvert_report_directory&#45;&gt;run_multiqc_step -->
<g id="edge9" class="edge">
<title>bclconvert_report_directory&#45;&gt;run_multiqc_step</title>
<path fill="none" stroke="black" d="M488.82,-513.93C519.84,-498.46 560.25,-472.45 579,-435.57 614.26,-366.22 585.41,-270.81 567.54,-224.89"/>
<polygon fill="black" stroke="black" points="570.68,-223.33 563.7,-215.35 564.19,-225.94 570.68,-223.33"/>
</g>
<!-- additional_parquet_files -->
<g id="node7" class="node">
<title>additional_parquet_files</title>
<polygon fill="#94ddf4" stroke="black" points="573.5,-514.07 573.5,-550.07 760.5,-550.07 760.5,-514.07 573.5,-514.07"/>
<text text-anchor="middle" x="667" y="-528.37" font-family="Times,serif" font-size="14.00">additional_parquet_files</text>
</g>
<!-- additional_parquet_files&#45;&gt;run_multiqc_step -->
<g id="edge10" class="edge">
<title>additional_parquet_files&#45;&gt;run_multiqc_step</title>
<path fill="none" stroke="black" d="M663.97,-513.88C656.56,-473.59 635.77,-370.26 604,-288.57 595.16,-265.84 582.02,-241.5 571.72,-223.79"/>
<polygon fill="black" stroke="black" points="574.74,-222.01 566.64,-215.18 568.71,-225.57 574.74,-222.01"/>
</g>
<!-- sample_filters_tsv -->
<g id="node8" class="node">
<title>sample_filters_tsv</title>
<polygon fill="#94ddf4" stroke="black" points="778.5,-514.07 778.5,-550.07 923.5,-550.07 923.5,-514.07 778.5,-514.07"/>
<text text-anchor="middle" x="851" y="-528.37" font-family="Times,serif" font-size="14.00">sample_filters_tsv</text>
</g>
<!-- sample_filters_tsv&#45;&gt;run_multiqc_step -->
<g id="edge11" class="edge">
<title>sample_filters_tsv&#45;&gt;run_multiqc_step</title>
<path fill="none" stroke="black" d="M835.55,-513.63C786.67,-458.45 635.19,-287.46 578.09,-223"/>
<polygon fill="black" stroke="black" points="580.54,-220.49 571.29,-215.33 575.3,-225.14 580.54,-220.49"/>
</g>
</g>
</svg>
