<?xml version="1.0" encoding="UTF-8" standalone="no"?>
<!DOCTYPE svg PUBLIC "-//W3C//DTD SVG 1.1//EN"
 "http://www.w3.org/Graphics/SVG/1.1/DTD/svg11.dtd">
<!-- Generated by graphviz version 2.43.0 (0)
 -->
<!-- Title: G Pages: 1 -->
<svg width="1772pt" height="717pt"
 viewBox="0.00 0.00 1772.00 717.13" xmlns="http://www.w3.org/2000/svg" xmlns:xlink="http://www.w3.org/1999/xlink">
<g id="graph0" class="graph" transform="scale(1 1) rotate(0) translate(4 713.13)">
<title>G</title>
<polygon fill="#eeeeee" stroke="transparent" points="-4,4 -4,-713.13 1768,-713.13 1768,4 -4,4"/>
<g id="clust1" class="cluster">
<title>cluster_inputs</title>
<polygon fill="#eeeeee" stroke="black" stroke-dasharray="5,2" points="8,-460.93 8,-685.49 1756,-685.49 1756,-460.93 8,-460.93"/>
<text text-anchor="middle" x="1689.5" y="-468.73" font-family="Times,serif" font-size="14.00">Workflow Inputs</text>
</g>
<g id="clust2" class="cluster">
<title>cluster_outputs</title>
<polygon fill="#eeeeee" stroke="black" stroke-dasharray="5,2" points="702,-23.64 702,-248.19 926,-248.19 926,-23.64 702,-23.64"/>
<text text-anchor="middle" x="853.5" y="-31.44" font-family="Times,serif" font-size="14.00">Workflow Outputs</text>
</g>
<!-- debug -->
<g id="node1" class="node">
<title>debug</title>
<polygon fill="#94ddf4" stroke="black" points="1686.5,-589.64 1686.5,-625.64 1747.5,-625.64 1747.5,-589.64 1686.5,-589.64"/>
<text text-anchor="middle" x="1717" y="-603.94" font-family="Times,serif" font-size="14.00">debug</text>
</g>
<!-- run_umccrise_step -->
<g id="node13" class="node">
<title>run_umccrise_step</title>
<ellipse fill="none" stroke="black" cx="814" cy="-383.64" rx="97.48" ry="18"/>
<text text-anchor="middle" x="814" y="-379.94" font-family="Times,serif" font-size="14.00">run_umccrise_step</text>
</g>
<!-- debug&#45;&gt;run_umccrise_step -->
<g id="edge1" class="edge">
<title>debug&#45;&gt;run_umccrise_step</title>
<path fill="none" stroke="black" d="M1707.3,-589.21C1700.48,-578.59 1690.37,-565.65 1678,-558.14 1548.09,-479.23 1099.36,-418.29 904.97,-394.96"/>
<polygon fill="black" stroke="black" points="905.13,-391.46 894.78,-393.75 904.3,-398.41 905.13,-391.46"/>
</g>
<!-- dragen_germline_directory -->
<g id="node2" class="node">
<title>dragen_germline_directory</title>
<polygon fill="#94ddf4" stroke="black" points="1459.5,-589.64 1459.5,-625.64 1668.5,-625.64 1668.5,-589.64 1459.5,-589.64"/>
<text text-anchor="middle" x="1564" y="-603.94" font-family="Times,serif" font-size="14.00">dragen_germline_directory</text>
</g>
<!-- dragen_germline_directory&#45;&gt;run_umccrise_step -->
<g id="edge2" class="edge">
<title>dragen_germline_directory&#45;&gt;run_umccrise_step</title>
<path fill="none" stroke="black" d="M1527.53,-589.62C1505.4,-579.67 1476.41,-567.31 1450,-558.14 1247.77,-487.9 1001.53,-427.68 883.55,-400.33"/>
<polygon fill="black" stroke="black" points="884.1,-396.87 873.57,-398.02 882.52,-403.69 884.1,-396.87"/>
</g>
<!-- dragen_normal_id -->
<g id="node3" class="node">
<title>dragen_normal_id</title>
<polygon fill="#94ddf4" stroke="black" points="1297,-589.64 1297,-625.64 1441,-625.64 1441,-589.64 1297,-589.64"/>
<text text-anchor="middle" x="1369" y="-603.94" font-family="Times,serif" font-size="14.00">dragen_normal_id</text>
</g>
<!-- dragen_normal_id&#45;&gt;run_umccrise_step -->
<g id="edge3" class="edge">
<title>dragen_normal_id&#45;&gt;run_umccrise_step</title>
<path fill="none" stroke="black" d="M1343.43,-589.62C1327.82,-579.68 1307.23,-567.31 1288,-558.14 1143.39,-489.14 963.56,-430.2 872.58,-402.14"/>
<polygon fill="black" stroke="black" points="873.58,-398.79 863,-399.2 871.53,-405.48 873.58,-398.79"/>
</g>
<!-- dragen_somatic_directory -->
<g id="node4" class="node">
<title>dragen_somatic_directory</title>
<polygon fill="#94ddf4" stroke="black" points="1077.5,-589.64 1077.5,-625.64 1278.5,-625.64 1278.5,-589.64 1077.5,-589.64"/>
<text text-anchor="middle" x="1178" y="-603.94" font-family="Times,serif" font-size="14.00">dragen_somatic_directory</text>
</g>
<!-- dragen_somatic_directory&#45;&gt;run_umccrise_step -->
<g id="edge4" class="edge">
<title>dragen_somatic_directory&#45;&gt;run_umccrise_step</title>
<path fill="none" stroke="black" d="M1150.04,-589.59C1084.75,-549.76 922.28,-450.68 849.85,-406.5"/>
<polygon fill="black" stroke="black" points="851.42,-403.36 841.06,-401.14 847.78,-409.34 851.42,-403.36"/>
</g>
<!-- dragen_tumor_id -->
<g id="node5" class="node">
<title>dragen_tumor_id</title>
<polygon fill="#94ddf4" stroke="black" points="922.5,-589.64 922.5,-625.64 1059.5,-625.64 1059.5,-589.64 922.5,-589.64"/>
<text text-anchor="middle" x="991" y="-603.94" font-family="Times,serif" font-size="14.00">dragen_tumor_id</text>
</g>
<!-- dragen_tumor_id&#45;&gt;run_umccrise_step -->
<g id="edge5" class="edge">
<title>dragen_tumor_id&#45;&gt;run_umccrise_step</title>
<path fill="none" stroke="black" d="M977.41,-589.59C946.39,-550.68 870.28,-455.23 833.94,-409.65"/>
<polygon fill="black" stroke="black" points="836.61,-407.38 827.64,-401.75 831.14,-411.75 836.61,-407.38"/>
</g>
<!-- dry_run -->
<g id="node6" class="node">
<title>dry_run</title>
<polygon fill="#94ddf4" stroke="black" points="832,-589.64 832,-625.64 904,-625.64 904,-589.64 832,-589.64"/>
<text text-anchor="middle" x="868" y="-603.94" font-family="Times,serif" font-size="14.00">dry_run</text>
</g>
<!-- dry_run&#45;&gt;run_umccrise_step -->
<g id="edge6" class="edge">
<title>dry_run&#45;&gt;run_umccrise_step</title>
<path fill="none" stroke="black" d="M863.85,-589.59C854.53,-551.25 831.84,-457.99 820.58,-411.67"/>
<polygon fill="black" stroke="black" points="823.93,-410.64 818.16,-401.75 817.12,-412.29 823.93,-410.64"/>
</g>
<!-- genomes_tar -->
<g id="node7" class="node">
<title>genomes_tar</title>
<polygon fill="#94ddf4" stroke="black" points="706,-589.64 706,-625.64 814,-625.64 814,-589.64 706,-589.64"/>
<text text-anchor="middle" x="760" y="-603.94" font-family="Times,serif" font-size="14.00">genomes_tar</text>
</g>
<!-- genomes_tar&#45;&gt;run_umccrise_step -->
<g id="edge7" class="edge">
<title>genomes_tar&#45;&gt;run_umccrise_step</title>
<path fill="none" stroke="black" d="M764.15,-589.59C773.47,-551.25 796.16,-457.99 807.42,-411.67"/>
<polygon fill="black" stroke="black" points="810.88,-412.29 809.84,-401.75 804.07,-410.64 810.88,-412.29"/>
</g>
<!-- include_stage -->
<g id="node8" class="node">
<title>include_stage</title>
<polygon fill="#94ddf4" stroke="black" points="574,-589.64 574,-625.64 688,-625.64 688,-589.64 574,-589.64"/>
<text text-anchor="middle" x="631" y="-603.94" font-family="Times,serif" font-size="14.00">include_stage</text>
</g>
<!-- include_stage&#45;&gt;run_umccrise_step -->
<g id="edge8" class="edge">
<title>include_stage&#45;&gt;run_umccrise_step</title>
<path fill="none" stroke="black" d="M645.06,-589.59C677.12,-550.68 755.81,-455.23 793.38,-409.65"/>
<polygon fill="black" stroke="black" points="796.24,-411.69 799.9,-401.75 790.83,-407.24 796.24,-411.69"/>
</g>
<!-- output_directory_name -->
<g id="node9" class="node">
<title>output_directory_name</title>
<polygon fill="#94ddf4" stroke="black" points="374,-589.64 374,-625.64 556,-625.64 556,-589.64 374,-589.64"/>
<text text-anchor="middle" x="465" y="-603.94" font-family="Times,serif" font-size="14.00">output_directory_name</text>
</g>
<!-- output_directory_name&#45;&gt;run_umccrise_step -->
<g id="edge9" class="edge">
<title>output_directory_name&#45;&gt;run_umccrise_step</title>
<path fill="none" stroke="black" d="M491.81,-589.59C554.28,-549.84 709.54,-451.08 779.21,-406.77"/>
<polygon fill="black" stroke="black" points="781.5,-409.46 788.05,-401.14 777.74,-403.56 781.5,-409.46"/>
</g>
<!-- skip_stage -->
<g id="node10" class="node">
<title>skip_stage</title>
<polygon fill="#94ddf4" stroke="black" points="264,-589.64 264,-625.64 356,-625.64 356,-589.64 264,-589.64"/>
<text text-anchor="middle" x="310" y="-603.94" font-family="Times,serif" font-size="14.00">skip_stage</text>
</g>
<!-- skip_stage&#45;&gt;run_umccrise_step -->
<g id="edge10" class="edge">
<title>skip_stage&#45;&gt;run_umccrise_step</title>
<path fill="none" stroke="black" d="M326.57,-589.2C336.89,-579.1 350.85,-566.73 365,-558.14 492.37,-480.79 660.15,-427.02 750.24,-401.51"/>
<polygon fill="black" stroke="black" points="751.36,-404.83 760.04,-398.76 749.47,-398.09 751.36,-404.83"/>
</g>
<!-- subject_identifier -->
<g id="node11" class="node">
<title>subject_identifier</title>
<polygon fill="#94ddf4" stroke="black" points="106,-589.64 106,-625.64 246,-625.64 246,-589.64 106,-589.64"/>
<text text-anchor="middle" x="176" y="-603.94" font-family="Times,serif" font-size="14.00">subject_identifier</text>
</g>
<!-- subject_identifier&#45;&gt;run_umccrise_step -->
<g id="edge11" class="edge">
<title>subject_identifier&#45;&gt;run_umccrise_step</title>
<path fill="none" stroke="black" d="M200.38,-589.47C215.56,-579.34 235.8,-566.85 255,-558.14 424.16,-481.42 636.75,-425.8 744.51,-400.27"/>
<polygon fill="black" stroke="black" points="745.36,-403.66 754.29,-397.96 743.75,-396.85 745.36,-403.66"/>
</g>
<!-- threads -->
<g id="node12" class="node">
<title>threads</title>
<polygon fill="#94ddf4" stroke="black" points="16.5,-589.64 16.5,-625.64 87.5,-625.64 87.5,-589.64 16.5,-589.64"/>
<text text-anchor="middle" x="52" y="-603.94" font-family="Times,serif" font-size="14.00">threads</text>
</g>
<!-- threads&#45;&gt;run_umccrise_step -->
<g id="edge12" class="edge">
<title>threads&#45;&gt;run_umccrise_step</title>
<path fill="none" stroke="black" d="M63.87,-589.39C72.01,-578.84 83.72,-565.92 97,-558.14 294.87,-442.17 566.76,-403.55 712.29,-390.81"/>
<polygon fill="black" stroke="black" points="712.88,-394.27 722.55,-389.93 712.29,-387.3 712.88,-394.27"/>
</g>
<!-- umccrise_output_directory -->
<g id="node14" class="node">
<title>umccrise_output_directory</title>
<polygon fill="#94ddf4" stroke="black" points="710.5,-151.64 710.5,-187.64 917.5,-187.64 917.5,-151.64 710.5,-151.64"/>
<text text-anchor="middle" x="814" y="-165.94" font-family="Times,serif" font-size="14.00">umccrise_output_directory</text>
</g>
<!-- run_umccrise_step&#45;&gt;umccrise_output_directory -->
<g id="edge13" class="edge">
<title>run_umccrise_step&#45;&gt;umccrise_output_directory</title>
<path fill="none" stroke="black" d="M814,-365.29C814,-328.47 814,-242.28 814,-197.98"/>
<polygon fill="black" stroke="black" points="817.5,-197.93 814,-187.93 810.5,-197.93 817.5,-197.93"/>
</g>
</g>
</svg>
