<?xml version="1.0" encoding="UTF-8" standalone="no"?>
<!DOCTYPE svg PUBLIC "-//W3C//DTD SVG 1.1//EN"
 "http://www.w3.org/Graphics/SVG/1.1/DTD/svg11.dtd">
<!-- Generated by graphviz version 2.40.1 (20161225.0304)
 -->
<!-- Title: G Pages: 1 -->
<svg width="3022pt" height="1219pt"
 viewBox="0.00 0.00 3021.50 1219.23" xmlns="http://www.w3.org/2000/svg" xmlns:xlink="http://www.w3.org/1999/xlink">
<g id="graph0" class="graph" transform="scale(1 1) rotate(0) translate(4 1215.226)">
<title>G</title>
<polygon fill="#eeeeee" stroke="transparent" points="-4,4 -4,-1215.226 3017.5,-1215.226 3017.5,4 -4,4"/>
<g id="clust1" class="cluster">
<title>cluster_inputs</title>
<polygon fill="#eeeeee" stroke="#000000" stroke-dasharray="5,2" points="8,-990.2942 8,-1190.4324 2740,-1190.4324 2740,-990.2942 8,-990.2942"/>
<text text-anchor="middle" x="2672" y="-998.0942" font-family="Times,serif" font-size="14.00" fill="#000000">Workflow Inputs</text>
</g>
<g id="clust2" class="cluster">
<title>cluster_outputs</title>
<polygon fill="#eeeeee" stroke="#000000" stroke-dasharray="5,2" points="1542,-20.7936 1542,-220.9318 2492,-220.9318 2492,-20.7936 1542,-20.7936"/>
<text text-anchor="middle" x="2418" y="-28.5936" font-family="Times,serif" font-size="14.00" fill="#000000">Workflow Outputs</text>
</g>
<!-- file:///tmp/tmpllkjc9f_#runfolder_name -->
<g id="node1" class="node">
<title>file:///tmp/tmpllkjc9f_#runfolder_name</title>
<g id="a_node1"><a xlink:title="Required &#45; used in naming run specific folder, reports and headings&#10;">
<polygon fill="#94ddf4" stroke="#000000" points="2602,-1101.2936 2602,-1138.2936 2732,-1138.2936 2732,-1101.2936 2602,-1101.2936"/>
<text text-anchor="middle" x="2667" y="-1116.0936" font-family="Times,serif" font-size="14.00" fill="#000000">runfolder_name</text>
</a>
</g>
</g>
<!-- file:///tmp/tmpllkjc9f_#bclconvert_qc_step -->
<g id="node21" class="node">
<title>file:///tmp/tmpllkjc9f_#bclconvert_qc_step</title>
<g id="a_node21"><a xlink:href="https://github.com/umccr/cwl-ica/blob/beta-release/.github/catalogue/docs/tools/multiqc/1.11.0/multiqc__1.11.0.md" xlink:title="The bclconvert qc step &#45; from scatter this takes in an array of dirs&#10;">
<polygon fill="#fafad2" stroke="#000000" points="2457,-324.2936 2457,-361.2936 2597,-361.2936 2597,-324.2936 2457,-324.2936"/>
<text text-anchor="middle" x="2527" y="-339.0936" font-family="Times,serif" font-size="14.00" fill="#000000">multiqc v(1.11.0)</text>
</a>
</g>
</g>
<!-- file:///tmp/tmpllkjc9f_#runfolder_name&#45;&gt;file:///tmp/tmpllkjc9f_#bclconvert_qc_step -->
<g id="edge14" class="edge">
<title>file:///tmp/tmpllkjc9f_#runfolder_name&#45;&gt;file:///tmp/tmpllkjc9f_#bclconvert_qc_step</title>
<path fill="none" stroke="#000000" d="M2641.7191,-1101.2756C2611.5244,-1069.8734 2566.1344,-1003.285 2547,-938.7936 2484.5748,-728.3932 2499.4017,-458.463 2516.5834,-371.2901"/>
<polygon fill="#000000" stroke="#000000" points="2520.0393,-371.8687 2518.7402,-361.3538 2513.1986,-370.3838 2520.0393,-371.8687"/>
</g>
<!-- file:///tmp/tmpllkjc9f_#runfolder_name&#45;&gt;file:///tmp/tmpllkjc9f_#bclconvert_qc_step -->
<g id="edge15" class="edge">
<title>file:///tmp/tmpllkjc9f_#runfolder_name&#45;&gt;file:///tmp/tmpllkjc9f_#bclconvert_qc_step</title>
<path fill="none" stroke="#000000" d="M2652.7594,-1101.2756C2629.5244,-1069.8734 2584.1344,-1003.285 2565,-938.7936 2502.6383,-728.6072 2517.3716,-459.0121 2524.3869,-371.5567"/>
<polygon fill="#000000" stroke="#000000" points="2527.8945,-371.6102 2525.238,-361.3538 2520.9187,-371.0282 2527.8945,-371.6102"/>
</g>
<!-- file:///tmp/tmpllkjc9f_#runfolder_name&#45;&gt;file:///tmp/tmpllkjc9f_#bclconvert_qc_step -->
<g id="edge16" class="edge">
<title>file:///tmp/tmpllkjc9f_#runfolder_name&#45;&gt;file:///tmp/tmpllkjc9f_#bclconvert_qc_step</title>
<path fill="none" stroke="#000000" d="M2663.7997,-1101.2756C2647.5244,-1069.8734 2602.1344,-1003.285 2583,-938.7936 2520.6383,-728.6072 2535.3716,-459.0121 2532.2428,-371.5567"/>
<polygon fill="#000000" stroke="#000000" points="2535.7279,-371.1678 2531.7359,-361.3538 2528.7365,-371.5152 2535.7279,-371.1678"/>
</g>
<!-- file:///tmp/tmpllkjc9f_#interop_qc_step -->
<g id="node25" class="node">
<title>file:///tmp/tmpllkjc9f_#interop_qc_step</title>
<g id="a_node25"><a xlink:href="https://github.com/umccr/cwl-ica/blob/beta-release/.github/catalogue/docs/tools/multiqc-interop/1.2.1/multiqc-interop__1.2.1.md" xlink:title="Run the multiqc by first also generating the interop files for use&#10;">
<polygon fill="#fafad2" stroke="#000000" points="2573.5,-901.2936 2573.5,-938.2936 2760.5,-938.2936 2760.5,-901.2936 2573.5,-901.2936"/>
<text text-anchor="middle" x="2667" y="-916.0936" font-family="Times,serif" font-size="14.00" fill="#000000">multiqc&#45;interop v(1.2.1)</text>
</a>
</g>
</g>
<!-- file:///tmp/tmpllkjc9f_#runfolder_name&#45;&gt;file:///tmp/tmpllkjc9f_#interop_qc_step -->
<g id="edge17" class="edge">
<title>file:///tmp/tmpllkjc9f_#runfolder_name&#45;&gt;file:///tmp/tmpllkjc9f_#interop_qc_step</title>
<path fill="none" stroke="#000000" d="M2658.7077,-1100.9781C2652.3092,-1065.8227 2651.8069,-989.9771 2657.2008,-948.4332"/>
<polygon fill="#000000" stroke="#000000" points="2660.681,-948.8296 2658.7435,-938.4134 2653.7625,-947.7643 2660.681,-948.8296"/>
</g>
<!-- file:///tmp/tmpllkjc9f_#runfolder_name&#45;&gt;file:///tmp/tmpllkjc9f_#interop_qc_step -->
<g id="edge18" class="edge">
<title>file:///tmp/tmpllkjc9f_#runfolder_name&#45;&gt;file:///tmp/tmpllkjc9f_#interop_qc_step</title>
<path fill="none" stroke="#000000" d="M2667,-1100.9781C2667,-1065.8227 2667,-989.9771 2667,-948.4332"/>
<polygon fill="#000000" stroke="#000000" points="2670.5001,-948.4134 2667,-938.4134 2663.5001,-948.4134 2670.5001,-948.4134"/>
</g>
<!-- file:///tmp/tmpllkjc9f_#runfolder_name&#45;&gt;file:///tmp/tmpllkjc9f_#interop_qc_step -->
<g id="edge19" class="edge">
<title>file:///tmp/tmpllkjc9f_#runfolder_name&#45;&gt;file:///tmp/tmpllkjc9f_#interop_qc_step</title>
<path fill="none" stroke="#000000" d="M2675.2923,-1100.9781C2681.6908,-1065.8227 2682.1931,-989.9771 2676.7992,-948.4332"/>
<polygon fill="#000000" stroke="#000000" points="2680.2375,-947.7643 2675.2565,-938.4134 2673.319,-948.8296 2680.2375,-947.7643"/>
</g>
<!-- file:///tmp/tmpllkjc9f_#ignore_missing_samples -->
<g id="node2" class="node">
<title>file:///tmp/tmpllkjc9f_#ignore_missing_samples</title>
<g id="a_node2"><a xlink:title="Remove the samples not present in the override cycles record&#10;">
<polygon fill="#94ddf4" stroke="#000000" points="2217.5,-1101.2936 2217.5,-1138.2936 2408.5,-1138.2936 2408.5,-1101.2936 2217.5,-1101.2936"/>
<text text-anchor="middle" x="2313" y="-1116.0936" font-family="Times,serif" font-size="14.00" fill="#000000">ignore_missing_samples</text>
</a>
</g>
</g>
<!-- file:///tmp/tmpllkjc9f_#samplesheet_split_by_settings_step -->
<g id="node23" class="node">
<title>file:///tmp/tmpllkjc9f_#samplesheet_split_by_settings_step</title>
<g id="a_node23"><a xlink:href="https://github.com/umccr/cwl-ica/blob/beta-release/.github/catalogue/docs/tools/custom-samplesheet-split-by-settings/1.0.0/custom-samplesheet-split-by-settings__1.0.0.md" xlink:title="Samplesheet is split by the different input types.&#10;These are generally a difference in override cycles parameters or adapter trimming settings&#10;This then scatters multiple bclconvert workflows split by sample id&#10;">
<polygon fill="#fafad2" stroke="#000000" points="1750.5,-901.2936 1750.5,-938.2936 2093.5,-938.2936 2093.5,-901.2936 1750.5,-901.2936"/>
<text text-anchor="middle" x="1922" y="-916.0936" font-family="Times,serif" font-size="14.00" fill="#000000">custom&#45;samplesheet&#45;split&#45;by&#45;settings v(1.0.0)</text>
</a>
</g>
</g>
<!-- file:///tmp/tmpllkjc9f_#ignore_missing_samples&#45;&gt;file:///tmp/tmpllkjc9f_#samplesheet_split_by_settings_step -->
<g id="edge20" class="edge">
<title>file:///tmp/tmpllkjc9f_#ignore_missing_samples&#45;&gt;file:///tmp/tmpllkjc9f_#samplesheet_split_by_settings_step</title>
<path fill="none" stroke="#000000" d="M2276.5668,-1101.1577C2204.8805,-1064.4895 2045.6879,-983.061 1967.3415,-942.9861"/>
<polygon fill="#000000" stroke="#000000" points="1968.6959,-939.7477 1958.1991,-938.3098 1965.5081,-945.9797 1968.6959,-939.7477"/>
</g>
<!-- file:///tmp/tmpllkjc9f_#bcl_input_directory -->
<g id="node3" class="node">
<title>file:///tmp/tmpllkjc9f_#bcl_input_directory</title>
<g id="a_node3"><a xlink:title="Path to the bcl files&#10;">
<polygon fill="#94ddf4" stroke="#000000" points="2426.5,-1101.2936 2426.5,-1138.2936 2583.5,-1138.2936 2583.5,-1101.2936 2426.5,-1101.2936"/>
<text text-anchor="middle" x="2505" y="-1116.0936" font-family="Times,serif" font-size="14.00" fill="#000000">bcl_input_directory</text>
</a>
</g>
</g>
<!-- file:///tmp/tmpllkjc9f_#bcl_convert_step -->
<g id="node20" class="node">
<title>file:///tmp/tmpllkjc9f_#bcl_convert_step</title>
<g id="a_node20"><a xlink:href="https://github.com/umccr/cwl-ica/blob/beta-release/.github/catalogue/docs/tools/bclConvert/3.7.5/bclConvert__3.7.5.md" xlink:title="BCLConvert is then scattered across each of the samplesheets.&#10;">
<polygon fill="#fafad2" stroke="#000000" points="1494.5,-517.2936 1494.5,-554.2936 1649.5,-554.2936 1649.5,-517.2936 1494.5,-517.2936"/>
<text text-anchor="middle" x="1572" y="-532.0936" font-family="Times,serif" font-size="14.00" fill="#000000">bclConvert v(3.7.5)</text>
</a>
</g>
</g>
<!-- file:///tmp/tmpllkjc9f_#bcl_input_directory&#45;&gt;file:///tmp/tmpllkjc9f_#bcl_convert_step -->
<g id="edge21" class="edge">
<title>file:///tmp/tmpllkjc9f_#bcl_input_directory&#45;&gt;file:///tmp/tmpllkjc9f_#bcl_convert_step</title>
<path fill="none" stroke="#000000" d="M2475.2757,-1101.188C2337.9816,-1015.2504 1765.3137,-656.7959 1610.6446,-559.9827"/>
<polygon fill="#000000" stroke="#000000" points="1612.2392,-556.8518 1601.9058,-554.5128 1608.5252,-562.7853 1612.2392,-556.8518"/>
</g>
<!-- file:///tmp/tmpllkjc9f_#bcl_input_directory&#45;&gt;file:///tmp/tmpllkjc9f_#interop_qc_step -->
<g id="edge22" class="edge">
<title>file:///tmp/tmpllkjc9f_#bcl_input_directory&#45;&gt;file:///tmp/tmpllkjc9f_#interop_qc_step</title>
<path fill="none" stroke="#000000" d="M2520.2406,-1100.9781C2549.2001,-1065.2256 2612.2478,-987.3888 2645.4922,-946.3464"/>
<polygon fill="#000000" stroke="#000000" points="2648.3434,-948.387 2651.9179,-938.4134 2642.904,-943.9811 2648.3434,-948.387"/>
</g>
<!-- file:///tmp/tmpllkjc9f_#samplesheet -->
<g id="node4" class="node">
<title>file:///tmp/tmpllkjc9f_#samplesheet</title>
<g id="a_node4"><a xlink:title="The path to the full samplesheet&#10;">
<polygon fill="#94ddf4" stroke="#000000" points="2092.5,-1101.2936 2092.5,-1138.2936 2199.5,-1138.2936 2199.5,-1101.2936 2092.5,-1101.2936"/>
<text text-anchor="middle" x="2146" y="-1116.0936" font-family="Times,serif" font-size="14.00" fill="#000000">samplesheet</text>
</a>
</g>
</g>
<!-- file:///tmp/tmpllkjc9f_#samplesheet&#45;&gt;file:///tmp/tmpllkjc9f_#samplesheet_split_by_settings_step -->
<g id="edge23" class="edge">
<title>file:///tmp/tmpllkjc9f_#samplesheet&#45;&gt;file:///tmp/tmpllkjc9f_#samplesheet_split_by_settings_step</title>
<path fill="none" stroke="#000000" d="M2124.9266,-1100.9781C2084.5495,-1064.927 1996.2474,-986.0859 1950.5962,-945.3259"/>
<polygon fill="#000000" stroke="#000000" points="1952.6447,-942.4628 1942.8542,-938.4134 1947.9825,-947.6844 1952.6447,-942.4628"/>
</g>
<!-- file:///tmp/tmpllkjc9f_#bcl_sampleproject_subdirectories_bcl_conversion -->
<g id="node5" class="node">
<title>file:///tmp/tmpllkjc9f_#bcl_sampleproject_subdirectories_bcl_conversion</title>
<g id="a_node5"><a xlink:title="true — Allows creation of Sample_Project subdirectories&#10;as specified in the sample sheet. This option must be set to true for&#10;the Sample_Project column in the data section to be used.&#10;">
<polygon fill="#94ddf4" stroke="#000000" points="16,-1101.2936 16,-1138.2936 390,-1138.2936 390,-1101.2936 16,-1101.2936"/>
<text text-anchor="middle" x="203" y="-1116.0936" font-family="Times,serif" font-size="14.00" fill="#000000">bcl_sampleproject_subdirectories_bcl_conversion</text>
</a>
</g>
</g>
<!-- file:///tmp/tmpllkjc9f_#bcl_sampleproject_subdirectories_bcl_conversion&#45;&gt;file:///tmp/tmpllkjc9f_#bcl_convert_step -->
<g id="edge24" class="edge">
<title>file:///tmp/tmpllkjc9f_#bcl_sampleproject_subdirectories_bcl_conversion&#45;&gt;file:///tmp/tmpllkjc9f_#bcl_convert_step</title>
<path fill="none" stroke="#000000" d="M246.6148,-1101.188C449.1834,-1014.7745 1297.6751,-652.8175 1519.0101,-558.3985"/>
<polygon fill="#000000" stroke="#000000" points="1520.6366,-561.5098 1528.4613,-554.3667 1517.8899,-555.0712 1520.6366,-561.5098"/>
</g>
<!-- file:///tmp/tmpllkjc9f_#strict_mode_bcl_conversion -->
<g id="node6" class="node">
<title>file:///tmp/tmpllkjc9f_#strict_mode_bcl_conversion</title>
<g id="a_node6"><a xlink:title="true — Abort the program if any filter, locs, bcl, or bci lane&#10;files are missing or corrupt.&#10;false — Continue processing if any filter, locs, bcl, or bci lane files&#10;are missing. Return a warning message for each missing or corrupt&#10;file.&#10;">
<polygon fill="#94ddf4" stroke="#000000" points="408.5,-1101.2936 408.5,-1138.2936 625.5,-1138.2936 625.5,-1101.2936 408.5,-1101.2936"/>
<text text-anchor="middle" x="517" y="-1116.0936" font-family="Times,serif" font-size="14.00" fill="#000000">strict_mode_bcl_conversion</text>
</a>
</g>
</g>
<!-- file:///tmp/tmpllkjc9f_#strict_mode_bcl_conversion&#45;&gt;file:///tmp/tmpllkjc9f_#bcl_convert_step -->
<g id="edge25" class="edge">
<title>file:///tmp/tmpllkjc9f_#strict_mode_bcl_conversion&#45;&gt;file:///tmp/tmpllkjc9f_#bcl_convert_step</title>
<path fill="none" stroke="#000000" d="M550.6111,-1101.188C706.2535,-1015.0315 1356.7116,-654.9674 1529.6299,-559.2478"/>
<polygon fill="#000000" stroke="#000000" points="1531.3936,-562.2719 1538.4475,-554.3667 1528.0035,-556.1476 1531.3936,-562.2719"/>
</g>
<!-- file:///tmp/tmpllkjc9f_#delete_undetermined_indices_bcl_conversion -->
<g id="node7" class="node">
<title>file:///tmp/tmpllkjc9f_#delete_undetermined_indices_bcl_conversion</title>
<g id="a_node7"><a xlink:title="Delete undetermined indices on completion of the run&#10;">
<polygon fill="#94ddf4" stroke="#000000" points="644,-1101.2936 644,-1138.2936 986,-1138.2936 986,-1101.2936 644,-1101.2936"/>
<text text-anchor="middle" x="815" y="-1116.0936" font-family="Times,serif" font-size="14.00" fill="#000000">delete_undetermined_indices_bcl_conversion</text>
</a>
</g>
</g>
<!-- file:///tmp/tmpllkjc9f_#delete_undetermined_indices_bcl_conversion&#45;&gt;file:///tmp/tmpllkjc9f_#bcl_convert_step -->
<g id="edge26" class="edge">
<title>file:///tmp/tmpllkjc9f_#delete_undetermined_indices_bcl_conversion&#45;&gt;file:///tmp/tmpllkjc9f_#bcl_convert_step</title>
<path fill="none" stroke="#000000" d="M839.3294,-1101.0243C950.7768,-1015.0464 1412.5421,-658.8099 1539.5452,-560.8314"/>
<polygon fill="#000000" stroke="#000000" points="1541.9813,-563.3725 1547.7611,-554.4931 1537.7055,-557.8301 1541.9813,-563.3725"/>
</g>
<!-- file:///tmp/tmpllkjc9f_#settings_by_samples -->
<g id="node8" class="node">
<title>file:///tmp/tmpllkjc9f_#settings_by_samples</title>
<g id="a_node8"><a xlink:title="List of settings by samples&#10;">
<polygon fill="#94ddf4" stroke="#000000" points="1909.5,-1101.2936 1909.5,-1138.2936 2074.5,-1138.2936 2074.5,-1101.2936 1909.5,-1101.2936"/>
<text text-anchor="middle" x="1992" y="-1116.0936" font-family="Times,serif" font-size="14.00" fill="#000000">settings_by_samples</text>
</a>
</g>
</g>
<!-- file:///tmp/tmpllkjc9f_#settings_by_samples&#45;&gt;file:///tmp/tmpllkjc9f_#samplesheet_split_by_settings_step -->
<g id="edge27" class="edge">
<title>file:///tmp/tmpllkjc9f_#settings_by_samples&#45;&gt;file:///tmp/tmpllkjc9f_#samplesheet_split_by_settings_step</title>
<path fill="none" stroke="#000000" d="M1985.4146,-1100.9781C1973.0579,-1065.6734 1946.3385,-989.3322 1931.8393,-947.9058"/>
<polygon fill="#000000" stroke="#000000" points="1935.124,-946.6957 1928.5169,-938.4134 1928.517,-949.0082 1935.124,-946.6957"/>
</g>
<!-- file:///tmp/tmpllkjc9f_#samplesheet_output_format -->
<g id="node9" class="node">
<title>file:///tmp/tmpllkjc9f_#samplesheet_output_format</title>
<g id="a_node9"><a xlink:title="Convert headers to v2 samplesheet format&#10;">
<polygon fill="#94ddf4" stroke="#000000" points="1674.5,-1101.2936 1674.5,-1138.2936 1891.5,-1138.2936 1891.5,-1101.2936 1674.5,-1101.2936"/>
<text text-anchor="middle" x="1783" y="-1116.0936" font-family="Times,serif" font-size="14.00" fill="#000000">samplesheet_output_format</text>
</a>
</g>
</g>
<!-- file:///tmp/tmpllkjc9f_#samplesheet_output_format&#45;&gt;file:///tmp/tmpllkjc9f_#samplesheet_split_by_settings_step -->
<g id="edge28" class="edge">
<title>file:///tmp/tmpllkjc9f_#samplesheet_output_format&#45;&gt;file:///tmp/tmpllkjc9f_#samplesheet_split_by_settings_step</title>
<path fill="none" stroke="#000000" d="M1796.0768,-1100.9781C1820.821,-1065.3749 1874.5701,-988.0381 1903.1872,-946.8624"/>
<polygon fill="#000000" stroke="#000000" points="1906.2262,-948.6225 1909.0592,-938.4134 1900.4781,-944.6275 1906.2262,-948.6225"/>
</g>
<!-- file:///tmp/tmpllkjc9f_#samplesheet_outdir -->
<g id="node10" class="node">
<title>file:///tmp/tmpllkjc9f_#samplesheet_outdir</title>
<g id="a_node10"><a xlink:title="Output directory of the samplesheets split by settings&#10;">
<polygon fill="#94ddf4" stroke="#000000" points="1498,-1101.2936 1498,-1138.2936 1656,-1138.2936 1656,-1101.2936 1498,-1101.2936"/>
<text text-anchor="middle" x="1577" y="-1116.0936" font-family="Times,serif" font-size="14.00" fill="#000000">samplesheet_outdir</text>
</a>
</g>
</g>
<!-- file:///tmp/tmpllkjc9f_#samplesheet_outdir&#45;&gt;file:///tmp/tmpllkjc9f_#samplesheet_split_by_settings_step -->
<g id="edge29" class="edge">
<title>file:///tmp/tmpllkjc9f_#samplesheet_outdir&#45;&gt;file:///tmp/tmpllkjc9f_#samplesheet_split_by_settings_step</title>
<path fill="none" stroke="#000000" d="M1609.147,-1101.1577C1672.1424,-1064.6385 1811.7229,-983.7223 1881.1463,-943.4769"/>
<polygon fill="#000000" stroke="#000000" points="1883.1636,-946.3531 1890.0596,-938.3098 1879.6528,-940.2971 1883.1636,-946.3531"/>
</g>
<!-- file:///tmp/tmpllkjc9f_#bcl_only_lane_bcl_conversion -->
<g id="node11" class="node">
<title>file:///tmp/tmpllkjc9f_#bcl_only_lane_bcl_conversion</title>
<g id="a_node11"><a xlink:title="Convert only the specified lane number. The value must&#10;be less than or equal to the number of lanes specified in the&#10;RunInfo.xml. Must be a single integer value.&#10;">
<polygon fill="#94ddf4" stroke="#000000" points="1004,-1101.2936 1004,-1138.2936 1232,-1138.2936 1232,-1101.2936 1004,-1101.2936"/>
<text text-anchor="middle" x="1118" y="-1116.0936" font-family="Times,serif" font-size="14.00" fill="#000000">bcl_only_lane_bcl_conversion</text>
</a>
</g>
</g>
<!-- file:///tmp/tmpllkjc9f_#bcl_only_lane_bcl_conversion&#45;&gt;file:///tmp/tmpllkjc9f_#bcl_convert_step -->
<g id="edge30" class="edge">
<title>file:///tmp/tmpllkjc9f_#bcl_only_lane_bcl_conversion&#45;&gt;file:///tmp/tmpllkjc9f_#bcl_convert_step</title>
<path fill="none" stroke="#000000" d="M1132.4489,-1100.8827C1177.1657,-1042.3953 1317.3607,-859.3147 1435,-708.7936 1475.6704,-656.7552 1523.6911,-596.3521 1550.7199,-562.4477"/>
<polygon fill="#000000" stroke="#000000" points="1553.6233,-564.4205 1557.1221,-554.4201 1548.1506,-560.0559 1553.6233,-564.4205"/>
</g>
<!-- file:///tmp/tmpllkjc9f_#first_tile_only_bcl_conversion -->
<g id="node12" class="node">
<title>file:///tmp/tmpllkjc9f_#first_tile_only_bcl_conversion</title>
<g id="a_node12"><a xlink:title="true — Only process the first tile of the first swath of the&#10; &#160;top surface of each lane specified in the sample sheet.&#10;false — Process all tiles in each lane, as specified in the sample&#10; &#160;sheet.&#10;">
<polygon fill="#94ddf4" stroke="#000000" points="1250,-1101.2936 1250,-1138.2936 1480,-1138.2936 1480,-1101.2936 1250,-1101.2936"/>
<text text-anchor="middle" x="1365" y="-1116.0936" font-family="Times,serif" font-size="14.00" fill="#000000">first_tile_only_bcl_conversion</text>
</a>
</g>
</g>
<!-- file:///tmp/tmpllkjc9f_#first_tile_only_bcl_conversion&#45;&gt;file:///tmp/tmpllkjc9f_#bcl_convert_step -->
<g id="edge31" class="edge">
<title>file:///tmp/tmpllkjc9f_#first_tile_only_bcl_conversion&#45;&gt;file:///tmp/tmpllkjc9f_#bcl_convert_step</title>
<path fill="none" stroke="#000000" d="M1366.4921,-1100.9944C1371.7592,-1041.3144 1392.5951,-851.6636 1454,-708.7936 1478.3512,-652.1359 1522.2385,-594.6076 1549.0817,-562.2371"/>
<polygon fill="#000000" stroke="#000000" points="1551.7719,-564.4761 1555.5168,-554.5652 1546.4087,-559.9776 1551.7719,-564.4761"/>
</g>
<!-- file:///tmp/tmpllkjc9f_#split_sheets -->
<g id="node13" class="node">
<title>file:///tmp/tmpllkjc9f_#split_sheets</title>
<g id="a_node13"><a xlink:title="List of samplesheets split by override cycles&#10;">
<polygon fill="#94ddf4" stroke="#000000" points="1850,-132.2936 1850,-169.2936 1952,-169.2936 1952,-132.2936 1850,-132.2936"/>
<text text-anchor="middle" x="1901" y="-147.0936" font-family="Times,serif" font-size="14.00" fill="#000000">split_sheets</text>
</a>
</g>
</g>
<!-- file:///tmp/tmpllkjc9f_#fastq_directories -->
<g id="node14" class="node">
<title>file:///tmp/tmpllkjc9f_#fastq_directories</title>
<g id="a_node14"><a xlink:title="The outputs from the bclconvert&#45;step&#10;">
<polygon fill="#94ddf4" stroke="#000000" points="1550,-132.2936 1550,-169.2936 1688,-169.2936 1688,-132.2936 1550,-132.2936"/>
<text text-anchor="middle" x="1619" y="-147.0936" font-family="Times,serif" font-size="14.00" fill="#000000">fastq_directories</text>
</a>
</g>
</g>
<!-- file:///tmp/tmpllkjc9f_#interop_multiqc_out -->
<g id="node15" class="node">
<title>file:///tmp/tmpllkjc9f_#interop_multiqc_out</title>
<g id="a_node15"><a xlink:title="multiqc directory output that contains interop data&#10;">
<polygon fill="#94ddf4" stroke="#000000" points="2322.5,-132.2936 2322.5,-169.2936 2483.5,-169.2936 2483.5,-132.2936 2322.5,-132.2936"/>
<text text-anchor="middle" x="2403" y="-147.0936" font-family="Times,serif" font-size="14.00" fill="#000000">interop_multiqc_out</text>
</a>
</g>
</g>
<!-- file:///tmp/tmpllkjc9f_#split_sheets_dir -->
<g id="node16" class="node">
<title>file:///tmp/tmpllkjc9f_#split_sheets_dir</title>
<g id="a_node16"><a xlink:title="The directory containing the samplesheets used for each bcl convert&#10;">
<polygon fill="#94ddf4" stroke="#000000" points="1970,-132.2936 1970,-169.2936 2100,-169.2936 2100,-132.2936 1970,-132.2936"/>
<text text-anchor="middle" x="2035" y="-147.0936" font-family="Times,serif" font-size="14.00" fill="#000000">split_sheets_dir</text>
</a>
</g>
</g>
<!-- file:///tmp/tmpllkjc9f_#fastq_list_rows -->
<g id="node17" class="node">
<title>file:///tmp/tmpllkjc9f_#fastq_list_rows</title>
<g id="a_node17"><a xlink:title="Contains the fastq list row schema for each of the output fastq files&#10;">
<polygon fill="#94ddf4" stroke="#000000" points="1706.5,-132.2936 1706.5,-169.2936 1831.5,-169.2936 1831.5,-132.2936 1706.5,-132.2936"/>
<text text-anchor="middle" x="1769" y="-147.0936" font-family="Times,serif" font-size="14.00" fill="#000000">fastq_list_rows</text>
</a>
</g>
</g>
<!-- file:///tmp/tmpllkjc9f_#bclconvert_multiqc_out -->
<g id="node18" class="node">
<title>file:///tmp/tmpllkjc9f_#bclconvert_multiqc_out</title>
<g id="a_node18"><a xlink:title="multiqc directory output that contains bclconvert multiqc data&#10;">
<polygon fill="#94ddf4" stroke="#000000" points="2118,-132.2936 2118,-169.2936 2304,-169.2936 2304,-132.2936 2118,-132.2936"/>
<text text-anchor="middle" x="2211" y="-147.0936" font-family="Times,serif" font-size="14.00" fill="#000000">bclconvert_multiqc_out</text>
</a>
</g>
</g>
<!-- file:///tmp/tmpllkjc9f_#get_batch_dirs -->
<g id="node19" class="node">
<title>file:///tmp/tmpllkjc9f_#get_batch_dirs</title>
<g id="a_node19"><a xlink:href="https://github.com/umccr/cwl-ica/blob/beta-release/.github/catalogue/docs/expressions/get-samplesheet-midfix-regex/1.0.0/get-samplesheet-midfix-regex__1.0.0.md" xlink:title="Get the directory names of each of the directories we wish to scatter over&#10;">
<polygon fill="#ee9a00" stroke="#000000" points="1463,-709.2936 1463,-746.2936 1751,-746.2936 1751,-709.2936 1463,-709.2936"/>
<text text-anchor="middle" x="1607" y="-724.0936" font-family="Times,serif" font-size="14.00" fill="#000000">get&#45;samplesheet&#45;midfix&#45;regex v(1.0.0)</text>
</a>
</g>
</g>
<!-- file:///tmp/tmpllkjc9f_#get_batch_dirs&#45;&gt;file:///tmp/tmpllkjc9f_#bcl_convert_step -->
<g id="edge1" class="edge">
<title>file:///tmp/tmpllkjc9f_#get_batch_dirs&#45;&gt;file:///tmp/tmpllkjc9f_#bcl_convert_step</title>
<path fill="none" stroke="#000000" d="M1603.5803,-709.0342C1597.4222,-675.2527 1584.4355,-604.0113 1577.1807,-564.2132"/>
<polygon fill="#000000" stroke="#000000" points="1580.6187,-563.5566 1575.382,-554.3464 1573.7322,-564.812 1580.6187,-563.5566"/>
</g>
<!-- file:///tmp/tmpllkjc9f_#bcl_convert_step&#45;&gt;file:///tmp/tmpllkjc9f_#fastq_directories -->
<g id="edge4" class="edge">
<title>file:///tmp/tmpllkjc9f_#bcl_convert_step&#45;&gt;file:///tmp/tmpllkjc9f_#fastq_directories</title>
<path fill="none" stroke="#000000" d="M1573.3847,-517.0348C1576.2026,-480.0115 1583.0981,-394.9588 1592,-323.7936 1598.3666,-272.8966 1608.0706,-213.9343 1613.9465,-179.6516"/>
<polygon fill="#000000" stroke="#000000" points="1617.4589,-179.8791 1615.7106,-169.4295 1610.5609,-178.6885 1617.4589,-179.8791"/>
</g>
<!-- file:///tmp/tmpllkjc9f_#bcl_convert_step&#45;&gt;file:///tmp/tmpllkjc9f_#bclconvert_qc_step -->
<g id="edge2" class="edge">
<title>file:///tmp/tmpllkjc9f_#bcl_convert_step&#45;&gt;file:///tmp/tmpllkjc9f_#bclconvert_qc_step</title>
<path fill="none" stroke="#000000" d="M1649.7467,-520.0814C1828.279,-484.0011 2266.0879,-395.5224 2446.8868,-358.984"/>
<polygon fill="#000000" stroke="#000000" points="2447.7535,-362.3797 2456.862,-356.9681 2446.3669,-355.5184 2447.7535,-362.3797"/>
</g>
<!-- file:///tmp/tmpllkjc9f_#flatten_fastq_list_rows_array -->
<g id="node22" class="node">
<title>file:///tmp/tmpllkjc9f_#flatten_fastq_list_rows_array</title>
<g id="a_node22"><a xlink:href="https://github.com/umccr/cwl-ica/blob/beta-release/.github/catalogue/docs/expressions/flatten-array-fastq-list/1.0.0/flatten-array-fastq-list__1.0.0.md" xlink:title="fastq list rows is an array and bcl convert is from a directory output.&#10;This scatters the arrays to a single array&#10;">
<polygon fill="#ee9a00" stroke="#000000" points="1600.5,-324.2936 1600.5,-361.2936 1893.5,-361.2936 1893.5,-324.2936 1600.5,-324.2936"/>
<text text-anchor="middle" x="1747" y="-339.0936" font-family="Times,serif" font-size="14.00" fill="#000000">flatten&#45;array&#45;fastq&#45;list&#45;schema v(1.0.0)</text>
</a>
</g>
</g>
<!-- file:///tmp/tmpllkjc9f_#bcl_convert_step&#45;&gt;file:///tmp/tmpllkjc9f_#flatten_fastq_list_rows_array -->
<g id="edge3" class="edge">
<title>file:///tmp/tmpllkjc9f_#bcl_convert_step&#45;&gt;file:///tmp/tmpllkjc9f_#flatten_fastq_list_rows_array</title>
<path fill="none" stroke="#000000" d="M1588.7797,-517.2879C1620.0586,-482.7918 1687.3495,-408.5796 1723.2684,-368.9661"/>
<polygon fill="#000000" stroke="#000000" points="1725.8896,-371.2859 1730.0139,-361.5268 1720.7039,-366.5839 1725.8896,-371.2859"/>
</g>
<!-- file:///tmp/tmpllkjc9f_#bclconvert_qc_step&#45;&gt;file:///tmp/tmpllkjc9f_#bclconvert_multiqc_out -->
<g id="edge11" class="edge">
<title>file:///tmp/tmpllkjc9f_#bclconvert_qc_step&#45;&gt;file:///tmp/tmpllkjc9f_#bclconvert_multiqc_out</title>
<path fill="none" stroke="#000000" d="M2496.4135,-324.2094C2438.7198,-289.155 2313.9133,-213.3232 2250.1781,-174.598"/>
<polygon fill="#000000" stroke="#000000" points="2251.967,-171.5895 2241.6034,-169.388 2248.3321,-177.5719 2251.967,-171.5895"/>
</g>
<!-- file:///tmp/tmpllkjc9f_#flatten_fastq_list_rows_array&#45;&gt;file:///tmp/tmpllkjc9f_#fastq_list_rows -->
<g id="edge13" class="edge">
<title>file:///tmp/tmpllkjc9f_#flatten_fastq_list_rows_array&#45;&gt;file:///tmp/tmpllkjc9f_#fastq_list_rows</title>
<path fill="none" stroke="#000000" d="M1749.1495,-324.0342C1753.0121,-290.3246 1761.1487,-219.3143 1765.7144,-179.4677"/>
<polygon fill="#000000" stroke="#000000" points="1769.2129,-179.6799 1766.8742,-169.3464 1762.2584,-178.8829 1769.2129,-179.6799"/>
</g>
<!-- file:///tmp/tmpllkjc9f_#samplesheet_split_by_settings_step&#45;&gt;file:///tmp/tmpllkjc9f_#split_sheets -->
<g id="edge7" class="edge">
<title>file:///tmp/tmpllkjc9f_#samplesheet_split_by_settings_step&#45;&gt;file:///tmp/tmpllkjc9f_#split_sheets</title>
<path fill="none" stroke="#000000" d="M1921.4913,-901.1655C1918.6974,-798.8566 1905.2199,-305.3215 1901.7936,-179.8535"/>
<polygon fill="#000000" stroke="#000000" points="1905.2832,-179.4206 1901.5114,-169.5199 1898.2858,-179.6118 1905.2832,-179.4206"/>
</g>
<!-- file:///tmp/tmpllkjc9f_#samplesheet_split_by_settings_step&#45;&gt;file:///tmp/tmpllkjc9f_#split_sheets_dir -->
<g id="edge8" class="edge">
<title>file:///tmp/tmpllkjc9f_#samplesheet_split_by_settings_step&#45;&gt;file:///tmp/tmpllkjc9f_#split_sheets_dir</title>
<path fill="none" stroke="#000000" d="M1924.7373,-901.1655C1939.7861,-798.7537 2012.439,-304.3281 2030.7853,-179.4759"/>
<polygon fill="#000000" stroke="#000000" points="2034.2572,-179.9225 2032.2483,-169.5199 2027.3315,-178.9048 2034.2572,-179.9225"/>
</g>
<!-- file:///tmp/tmpllkjc9f_#samplesheet_split_by_settings_step&#45;&gt;file:///tmp/tmpllkjc9f_#get_batch_dirs -->
<g id="edge5" class="edge">
<title>file:///tmp/tmpllkjc9f_#samplesheet_split_by_settings_step&#45;&gt;file:///tmp/tmpllkjc9f_#get_batch_dirs</title>
<path fill="none" stroke="#000000" d="M1891.5103,-901.2094C1833.9992,-866.155 1709.5876,-790.3232 1646.0541,-751.598"/>
<polygon fill="#000000" stroke="#000000" points="1647.867,-748.6041 1637.5065,-746.388 1644.2238,-754.5813 1647.867,-748.6041"/>
</g>
<!-- file:///tmp/tmpllkjc9f_#samplesheet_split_by_settings_step&#45;&gt;file:///tmp/tmpllkjc9f_#bcl_convert_step -->
<g id="edge6" class="edge">
<title>file:///tmp/tmpllkjc9f_#samplesheet_split_by_settings_step&#45;&gt;file:///tmp/tmpllkjc9f_#bcl_convert_step</title>
<path fill="none" stroke="#000000" d="M1909.3432,-901.1729C1883.28,-863.3377 1820.9374,-775.4171 1760,-708.7936 1708.296,-652.265 1640.7849,-593.267 1602.3302,-560.862"/>
<polygon fill="#000000" stroke="#000000" points="1604.4921,-558.1072 1594.5816,-554.3613 1599.993,-563.4699 1604.4921,-558.1072"/>
</g>
<!-- file:///tmp/tmpllkjc9f_#create_dummy_file_step -->
<g id="node24" class="node">
<title>file:///tmp/tmpllkjc9f_#create_dummy_file_step</title>
<g id="a_node24"><a xlink:href="https://github.com/umccr/cwl-ica/blob/beta-release/.github/catalogue/docs/tools/custom-touch-file/1.0.0/custom-touch-file__1.0.0.md" xlink:title="Intermediate step for letting multiqc&#45;interop be placed in stream mode&#10;">
<polygon fill="#fafad2" stroke="#000000" points="2750.5,-1101.2936 2750.5,-1138.2936 3013.5,-1138.2936 3013.5,-1101.2936 2750.5,-1101.2936"/>
<text text-anchor="middle" x="2882" y="-1116.0936" font-family="Times,serif" font-size="14.00" fill="#000000">custom&#45;create&#45;dummy&#45;file v(1.0.0)</text>
</a>
</g>
</g>
<!-- file:///tmp/tmpllkjc9f_#create_dummy_file_step&#45;&gt;file:///tmp/tmpllkjc9f_#bclconvert_qc_step -->
<g id="edge9" class="edge">
<title>file:///tmp/tmpllkjc9f_#create_dummy_file_step&#45;&gt;file:///tmp/tmpllkjc9f_#bclconvert_qc_step</title>
<path fill="none" stroke="#000000" d="M2873.4006,-1100.9717C2825.9767,-997.1737 2596.4604,-494.8238 2539.7097,-370.6118"/>
<polygon fill="#000000" stroke="#000000" points="2542.8254,-369.0089 2535.4863,-361.3677 2536.4585,-371.9179 2542.8254,-369.0089"/>
</g>
<!-- file:///tmp/tmpllkjc9f_#create_dummy_file_step&#45;&gt;file:///tmp/tmpllkjc9f_#interop_qc_step -->
<g id="edge10" class="edge">
<title>file:///tmp/tmpllkjc9f_#create_dummy_file_step&#45;&gt;file:///tmp/tmpllkjc9f_#interop_qc_step</title>
<path fill="none" stroke="#000000" d="M2861.7733,-1100.9781C2823.0185,-1064.927 2738.2643,-986.0859 2694.4473,-945.3259"/>
<polygon fill="#000000" stroke="#000000" points="2696.7221,-942.6618 2687.0163,-938.4134 2691.9543,-947.7871 2696.7221,-942.6618"/>
</g>
<!-- file:///tmp/tmpllkjc9f_#interop_qc_step&#45;&gt;file:///tmp/tmpllkjc9f_#interop_multiqc_out -->
<g id="edge12" class="edge">
<title>file:///tmp/tmpllkjc9f_#interop_qc_step&#45;&gt;file:///tmp/tmpllkjc9f_#interop_multiqc_out</title>
<path fill="none" stroke="#000000" d="M2669.847,-901.0922C2680.6077,-824.2854 2712.9833,-527.5424 2606,-323.7936 2570.1306,-255.4805 2494.9519,-202.8029 2446.8329,-174.3484"/>
<polygon fill="#000000" stroke="#000000" points="2448.5831,-171.3174 2438.1785,-169.3189 2445.0659,-177.3696 2448.5831,-171.3174"/>
</g>
</g>
</svg>
