<?xml version="1.0" encoding="UTF-8" standalone="no"?>
<!DOCTYPE svg PUBLIC "-//W3C//DTD SVG 1.1//EN"
 "http://www.w3.org/Graphics/SVG/1.1/DTD/svg11.dtd">
<!-- Generated by graphviz version 2.43.0 (0)
 -->
<!-- Title: G Pages: 1 -->
<svg width="3055pt" height="1233pt"
 viewBox="0.00 0.00 3055.00 1232.89" xmlns="http://www.w3.org/2000/svg" xmlns:xlink="http://www.w3.org/1999/xlink">
<g id="graph0" class="graph" transform="scale(1 1) rotate(0) translate(4 1228.89)">
<title>G</title>
<polygon fill="#eeeeee" stroke="transparent" points="-4,4 -4,-1228.89 3051,-1228.89 3051,4 -4,4"/>
<g id="clust1" class="cluster">
<title>cluster_inputs</title>
<polygon fill="#eeeeee" stroke="black" stroke-dasharray="5,2" points="8,-1001.47 8,-1203.87 2704,-1203.87 2704,-1001.47 8,-1001.47"/>
<text text-anchor="middle" x="2637.5" y="-1009.27" font-family="Times,serif" font-size="14.00">Workflow Inputs</text>
</g>
<g id="clust2" class="cluster">
<title>cluster_outputs</title>
<polygon fill="#eeeeee" stroke="black" stroke-dasharray="5,2" points="1487,-21.03 1487,-223.42 2424,-223.42 2424,-21.03 1487,-21.03"/>
<text text-anchor="middle" x="2351.5" y="-28.83" font-family="Times,serif" font-size="14.00">Workflow Outputs</text>
</g>
<!-- bcl_input_directory -->
<g id="node1" class="node">
<title>bcl_input_directory</title>
<polygon fill="#94ddf4" stroke="black" points="2394,-1114.53 2394,-1151.53 2548,-1151.53 2548,-1114.53 2394,-1114.53"/>
<text text-anchor="middle" x="2471" y="-1129.33" font-family="Times,serif" font-size="14.00">bcl_input_directory</text>
</g>
<!-- bcl_convert_step -->
<g id="node20" class="node">
<title>bcl_convert_step</title>
<polygon fill="lightgoldenrodyellow" stroke="black" points="1441,-522.53 1441,-559.53 1595,-559.53 1595,-522.53 1441,-522.53"/>
<text text-anchor="middle" x="1518" y="-537.33" font-family="Times,serif" font-size="14.00">bclConvert v(3.7.5)</text>
</g>
<!-- bcl_input_directory&#45;&gt;bcl_convert_step -->
<g id="edge14" class="edge">
<title>bcl_input_directory&#45;&gt;bcl_convert_step</title>
<path fill="none" stroke="black" d="M2446.2,-1114.36C2362.99,-1055.34 2085.41,-860.61 1845,-717.03 1746.21,-658.02 1625.99,-596.12 1562.41,-564.12"/>
<polygon fill="black" stroke="black" points="1563.95,-560.98 1553.44,-559.61 1560.81,-567.23 1563.95,-560.98"/>
</g>
<!-- interop_qc_step -->
<g id="node25" class="node">
<title>interop_qc_step</title>
<polygon fill="lightgoldenrodyellow" stroke="black" points="2511,-911.53 2511,-948.53 2751,-948.53 2751,-911.53 2511,-911.53"/>
<text text-anchor="middle" x="2631" y="-926.33" font-family="Times,serif" font-size="14.00">multiqc&#45;interop v(1.14.0&#45;&#45;1.2.0)</text>
</g>
<!-- bcl_input_directory&#45;&gt;interop_qc_step -->
<g id="edge15" class="edge">
<title>bcl_input_directory&#45;&gt;interop_qc_step</title>
<path fill="none" stroke="black" d="M2485.2,-1114.19C2513.68,-1078.42 2577.85,-997.8 2610.73,-956.49"/>
<polygon fill="black" stroke="black" points="2613.57,-958.54 2617.06,-948.54 2608.1,-954.18 2613.57,-958.54"/>
</g>
<!-- bcl_only_lane_bcl_conversion -->
<g id="node2" class="node">
<title>bcl_only_lane_bcl_conversion</title>
<polygon fill="#94ddf4" stroke="black" points="15.5,-1114.53 15.5,-1151.53 238.5,-1151.53 238.5,-1114.53 15.5,-1114.53"/>
<text text-anchor="middle" x="127" y="-1129.33" font-family="Times,serif" font-size="14.00">bcl_only_lane_bcl_conversion</text>
</g>
<!-- bcl_only_lane_bcl_conversion&#45;&gt;bcl_convert_step -->
<g id="edge16" class="edge">
<title>bcl_only_lane_bcl_conversion&#45;&gt;bcl_convert_step</title>
<path fill="none" stroke="black" d="M168.63,-1114.37C370.41,-1028.79 1245.94,-657.42 1467.11,-563.61"/>
<polygon fill="black" stroke="black" points="1468.69,-566.74 1476.53,-559.62 1465.96,-560.3 1468.69,-566.74"/>
</g>
<!-- bcl_sampleproject_subdirectories_bcl_conversion -->
<g id="node3" class="node">
<title>bcl_sampleproject_subdirectories_bcl_conversion</title>
<polygon fill="#94ddf4" stroke="black" points="729.5,-1114.53 729.5,-1151.53 1096.5,-1151.53 1096.5,-1114.53 729.5,-1114.53"/>
<text text-anchor="middle" x="913" y="-1129.33" font-family="Times,serif" font-size="14.00">bcl_sampleproject_subdirectories_bcl_conversion</text>
</g>
<!-- bcl_sampleproject_subdirectories_bcl_conversion&#45;&gt;bcl_convert_step -->
<g id="edge17" class="edge">
<title>bcl_sampleproject_subdirectories_bcl_conversion&#45;&gt;bcl_convert_step</title>
<path fill="none" stroke="black" d="M931.11,-1114.37C1017.91,-1029.72 1391.4,-665.49 1492.62,-566.78"/>
<polygon fill="black" stroke="black" points="1495.25,-569.1 1499.96,-559.62 1490.36,-564.09 1495.25,-569.1"/>
</g>
<!-- delete_undetermined_indices_bcl_conversion -->
<g id="node4" class="node">
<title>delete_undetermined_indices_bcl_conversion</title>
<polygon fill="#94ddf4" stroke="black" points="1114.5,-1114.53 1114.5,-1151.53 1451.5,-1151.53 1451.5,-1114.53 1114.5,-1114.53"/>
<text text-anchor="middle" x="1283" y="-1129.33" font-family="Times,serif" font-size="14.00">delete_undetermined_indices_bcl_conversion</text>
</g>
<!-- delete_undetermined_indices_bcl_conversion&#45;&gt;bcl_convert_step -->
<g id="edge18" class="edge">
<title>delete_undetermined_indices_bcl_conversion&#45;&gt;bcl_convert_step</title>
<path fill="none" stroke="black" d="M1290.03,-1114.37C1323.48,-1030.4 1466.51,-671.31 1507.18,-569.21"/>
<polygon fill="black" stroke="black" points="1510.55,-570.2 1510.99,-559.62 1504.04,-567.61 1510.55,-570.2"/>
</g>
<!-- first_tile_only_bcl_conversion -->
<g id="node5" class="node">
<title>first_tile_only_bcl_conversion</title>
<polygon fill="#94ddf4" stroke="black" points="257,-1114.53 257,-1151.53 481,-1151.53 481,-1114.53 257,-1114.53"/>
<text text-anchor="middle" x="369" y="-1129.33" font-family="Times,serif" font-size="14.00">first_tile_only_bcl_conversion</text>
</g>
<!-- first_tile_only_bcl_conversion&#45;&gt;bcl_convert_step -->
<g id="edge19" class="edge">
<title>first_tile_only_bcl_conversion&#45;&gt;bcl_convert_step</title>
<path fill="none" stroke="black" d="M403.39,-1114.37C569.65,-1029 1289.69,-659.26 1474.59,-564.32"/>
<polygon fill="black" stroke="black" points="1476.45,-567.3 1483.75,-559.62 1473.25,-561.07 1476.45,-567.3"/>
</g>
<!-- strict_mode_bcl_conversion -->
<g id="node6" class="node">
<title>strict_mode_bcl_conversion</title>
<polygon fill="#94ddf4" stroke="black" points="499,-1114.53 499,-1151.53 711,-1151.53 711,-1114.53 499,-1114.53"/>
<text text-anchor="middle" x="605" y="-1129.33" font-family="Times,serif" font-size="14.00">strict_mode_bcl_conversion</text>
</g>
<!-- strict_mode_bcl_conversion&#45;&gt;bcl_convert_step -->
<g id="edge20" class="edge">
<title>strict_mode_bcl_conversion&#45;&gt;bcl_convert_step</title>
<path fill="none" stroke="black" d="M632.32,-1114.37C763.97,-1029.3 1332.61,-661.83 1481.96,-565.32"/>
<polygon fill="black" stroke="black" points="1484.28,-567.98 1490.78,-559.62 1480.48,-562.1 1484.28,-567.98"/>
</g>
<!-- runfolder_name -->
<g id="node7" class="node">
<title>runfolder_name</title>
<polygon fill="#94ddf4" stroke="black" points="2566.5,-1114.53 2566.5,-1151.53 2695.5,-1151.53 2695.5,-1114.53 2566.5,-1114.53"/>
<text text-anchor="middle" x="2631" y="-1129.33" font-family="Times,serif" font-size="14.00">runfolder_name</text>
</g>
<!-- bclconvert_qc_step -->
<g id="node21" class="node">
<title>bclconvert_qc_step</title>
<polygon fill="lightgoldenrodyellow" stroke="black" points="2395.5,-328.53 2395.5,-365.53 2534.5,-365.53 2534.5,-328.53 2395.5,-328.53"/>
<text text-anchor="middle" x="2465" y="-343.33" font-family="Times,serif" font-size="14.00">multiqc v(1.14.0)</text>
</g>
<!-- runfolder_name&#45;&gt;bclconvert_qc_step -->
<g id="edge21" class="edge">
<title>runfolder_name&#45;&gt;bclconvert_qc_step</title>
<path fill="none" stroke="black" d="M2602.49,-1114.5C2566.13,-1084 2508.15,-1017.79 2484,-949.03 2410.26,-739.07 2433.57,-462.73 2453.87,-375.58"/>
<polygon fill="black" stroke="black" points="2457.31,-376.23 2456.38,-365.68 2450.53,-374.51 2457.31,-376.23"/>
</g>
<!-- runfolder_name&#45;&gt;bclconvert_qc_step -->
<g id="edge22" class="edge">
<title>runfolder_name&#45;&gt;bclconvert_qc_step</title>
<path fill="none" stroke="black" d="M2613.19,-1114.26C2583.82,-1083.64 2526.09,-1017.61 2502,-949.03 2428.34,-739.28 2451.52,-463.29 2461.49,-375.84"/>
<polygon fill="black" stroke="black" points="2464.99,-376.02 2462.68,-365.68 2458.04,-375.2 2464.99,-376.02"/>
</g>
<!-- runfolder_name&#45;&gt;bclconvert_qc_step -->
<g id="edge23" class="edge">
<title>runfolder_name&#45;&gt;bclconvert_qc_step</title>
<path fill="none" stroke="black" d="M2624.17,-1114.26C2601.82,-1083.64 2544.09,-1017.61 2520,-949.03 2446.34,-739.28 2469.52,-463.29 2469.17,-375.84"/>
<polygon fill="black" stroke="black" points="2472.67,-375.61 2468.99,-365.68 2465.67,-375.74 2472.67,-375.61"/>
</g>
<!-- runfolder_name&#45;&gt;interop_qc_step -->
<g id="edge24" class="edge">
<title>runfolder_name&#45;&gt;interop_qc_step</title>
<path fill="none" stroke="black" d="M2622.91,-1114.19C2616.26,-1079.01 2615.74,-1000.48 2621.36,-958.59"/>
<polygon fill="black" stroke="black" points="2624.85,-958.97 2622.97,-948.54 2617.93,-957.86 2624.85,-958.97"/>
</g>
<!-- runfolder_name&#45;&gt;interop_qc_step -->
<g id="edge25" class="edge">
<title>runfolder_name&#45;&gt;interop_qc_step</title>
<path fill="none" stroke="black" d="M2631,-1114.19C2631,-1079.01 2631,-1000.48 2631,-958.59"/>
<polygon fill="black" stroke="black" points="2634.5,-958.54 2631,-948.54 2627.5,-958.54 2634.5,-958.54"/>
</g>
<!-- runfolder_name&#45;&gt;interop_qc_step -->
<g id="edge26" class="edge">
<title>runfolder_name&#45;&gt;interop_qc_step</title>
<path fill="none" stroke="black" d="M2639.09,-1114.19C2645.74,-1079.01 2646.26,-1000.48 2640.64,-958.59"/>
<polygon fill="black" stroke="black" points="2644.07,-957.86 2639.03,-948.54 2637.15,-958.97 2644.07,-957.86"/>
</g>
<!-- ignore_missing_samples -->
<g id="node8" class="node">
<title>ignore_missing_samples</title>
<polygon fill="#94ddf4" stroke="black" points="1470,-1114.53 1470,-1151.53 1660,-1151.53 1660,-1114.53 1470,-1114.53"/>
<text text-anchor="middle" x="1565" y="-1129.33" font-family="Times,serif" font-size="14.00">ignore_missing_samples</text>
</g>
<!-- samplesheet_split_by_settings_step -->
<g id="node23" class="node">
<title>samplesheet_split_by_settings_step</title>
<polygon fill="lightgoldenrodyellow" stroke="black" points="1693,-911.53 1693,-948.53 2035,-948.53 2035,-911.53 1693,-911.53"/>
<text text-anchor="middle" x="1864" y="-926.33" font-family="Times,serif" font-size="14.00">custom&#45;samplesheet&#45;split&#45;by&#45;settings v(1.0.0)</text>
</g>
<!-- ignore_missing_samples&#45;&gt;samplesheet_split_by_settings_step -->
<g id="edge27" class="edge">
<title>ignore_missing_samples&#45;&gt;samplesheet_split_by_settings_step</title>
<path fill="none" stroke="black" d="M1591.27,-1114.37C1645.33,-1078.03 1769,-994.89 1829.45,-954.25"/>
<polygon fill="black" stroke="black" points="1831.55,-957.06 1837.89,-948.58 1827.64,-951.25 1831.55,-957.06"/>
</g>
<!-- samplesheet_outdir -->
<g id="node9" class="node">
<title>samplesheet_outdir</title>
<polygon fill="#94ddf4" stroke="black" points="2218.5,-1114.53 2218.5,-1151.53 2375.5,-1151.53 2375.5,-1114.53 2218.5,-1114.53"/>
<text text-anchor="middle" x="2297" y="-1129.33" font-family="Times,serif" font-size="14.00">samplesheet_outdir</text>
</g>
<!-- samplesheet_outdir&#45;&gt;samplesheet_split_by_settings_step -->
<g id="edge28" class="edge">
<title>samplesheet_outdir&#45;&gt;samplesheet_split_by_settings_step</title>
<path fill="none" stroke="black" d="M2267.6,-1114.51C2250.92,-1104.81 2229.54,-1092.79 2210,-1083.03 2108.26,-1032.19 1985.66,-980.5 1917.1,-952.43"/>
<polygon fill="black" stroke="black" points="1918.37,-949.17 1907.79,-948.63 1915.72,-955.65 1918.37,-949.17"/>
</g>
<!-- samplesheet -->
<g id="node10" class="node">
<title>samplesheet</title>
<polygon fill="#94ddf4" stroke="black" points="2093.5,-1114.53 2093.5,-1151.53 2200.5,-1151.53 2200.5,-1114.53 2093.5,-1114.53"/>
<text text-anchor="middle" x="2147" y="-1129.33" font-family="Times,serif" font-size="14.00">samplesheet</text>
</g>
<!-- samplesheet&#45;&gt;samplesheet_split_by_settings_step -->
<g id="edge29" class="edge">
<title>samplesheet&#45;&gt;samplesheet_split_by_settings_step</title>
<path fill="none" stroke="black" d="M2125.47,-1114.44C2113.66,-1104.94 2098.69,-1093.13 2085,-1083.03 2020.71,-1035.6 1943.34,-983.47 1899.29,-954.25"/>
<polygon fill="black" stroke="black" points="1901.2,-951.32 1890.93,-948.72 1897.34,-957.16 1901.2,-951.32"/>
</g>
<!-- samplesheet_output_format -->
<g id="node11" class="node">
<title>samplesheet_output_format</title>
<polygon fill="#94ddf4" stroke="black" points="1860.5,-1114.53 1860.5,-1151.53 2075.5,-1151.53 2075.5,-1114.53 1860.5,-1114.53"/>
<text text-anchor="middle" x="1968" y="-1129.33" font-family="Times,serif" font-size="14.00">samplesheet_output_format</text>
</g>
<!-- samplesheet_output_format&#45;&gt;samplesheet_split_by_settings_step -->
<g id="edge30" class="edge">
<title>samplesheet_output_format&#45;&gt;samplesheet_split_by_settings_step</title>
<path fill="none" stroke="black" d="M1958.77,-1114.19C1940.42,-1078.71 1899.25,-999.15 1877.71,-957.53"/>
<polygon fill="black" stroke="black" points="1880.76,-955.81 1873.06,-948.54 1874.55,-959.03 1880.76,-955.81"/>
</g>
<!-- settings_by_samples -->
<g id="node12" class="node">
<title>settings_by_samples</title>
<polygon fill="#94ddf4" stroke="black" points="1678,-1114.53 1678,-1151.53 1842,-1151.53 1842,-1114.53 1678,-1114.53"/>
<text text-anchor="middle" x="1760" y="-1129.33" font-family="Times,serif" font-size="14.00">settings_by_samples</text>
</g>
<!-- settings_by_samples&#45;&gt;samplesheet_split_by_settings_step -->
<g id="edge31" class="edge">
<title>settings_by_samples&#45;&gt;samplesheet_split_by_settings_step</title>
<path fill="none" stroke="black" d="M1769.23,-1114.19C1787.58,-1078.71 1828.75,-999.15 1850.29,-957.53"/>
<polygon fill="black" stroke="black" points="1853.45,-959.03 1854.94,-948.54 1847.24,-955.81 1853.45,-959.03"/>
</g>
<!-- bclconvert_multiqc_out -->
<g id="node13" class="node">
<title>bclconvert_multiqc_out</title>
<polygon fill="#94ddf4" stroke="black" points="2057,-133.53 2057,-170.53 2239,-170.53 2239,-133.53 2057,-133.53"/>
<text text-anchor="middle" x="2148" y="-148.33" font-family="Times,serif" font-size="14.00">bclconvert_multiqc_out</text>
</g>
<!-- fastq_directories -->
<g id="node14" class="node">
<title>fastq_directories</title>
<polygon fill="#94ddf4" stroke="black" points="1495.5,-133.53 1495.5,-170.53 1632.5,-170.53 1632.5,-133.53 1495.5,-133.53"/>
<text text-anchor="middle" x="1564" y="-148.33" font-family="Times,serif" font-size="14.00">fastq_directories</text>
</g>
<!-- fastq_list_rows -->
<g id="node15" class="node">
<title>fastq_list_rows</title>
<polygon fill="#94ddf4" stroke="black" points="1650.5,-133.53 1650.5,-170.53 1773.5,-170.53 1773.5,-133.53 1650.5,-133.53"/>
<text text-anchor="middle" x="1712" y="-148.33" font-family="Times,serif" font-size="14.00">fastq_list_rows</text>
</g>
<!-- interop_multiqc_out -->
<g id="node16" class="node">
<title>interop_multiqc_out</title>
<polygon fill="#94ddf4" stroke="black" points="2257.5,-133.53 2257.5,-170.53 2416.5,-170.53 2416.5,-133.53 2257.5,-133.53"/>
<text text-anchor="middle" x="2337" y="-148.33" font-family="Times,serif" font-size="14.00">interop_multiqc_out</text>
</g>
<!-- split_sheets -->
<g id="node17" class="node">
<title>split_sheets</title>
<polygon fill="#94ddf4" stroke="black" points="1791.5,-133.53 1791.5,-170.53 1892.5,-170.53 1892.5,-133.53 1791.5,-133.53"/>
<text text-anchor="middle" x="1842" y="-148.33" font-family="Times,serif" font-size="14.00">split_sheets</text>
</g>
<!-- split_sheets_dir -->
<g id="node18" class="node">
<title>split_sheets_dir</title>
<polygon fill="#94ddf4" stroke="black" points="1911,-133.53 1911,-170.53 2039,-170.53 2039,-133.53 1911,-133.53"/>
<text text-anchor="middle" x="1975" y="-148.33" font-family="Times,serif" font-size="14.00">split_sheets_dir</text>
</g>
<!-- get_batch_dirs -->
<g id="node19" class="node">
<title>get_batch_dirs</title>
<polygon fill="lightgoldenrodyellow" stroke="black" points="1548.5,-717.53 1548.5,-754.53 1835.5,-754.53 1835.5,-717.53 1548.5,-717.53"/>
<text text-anchor="middle" x="1692" y="-732.33" font-family="Times,serif" font-size="14.00">get&#45;samplesheet&#45;midfix&#45;regex v(1.0.0)</text>
</g>
<!-- get_batch_dirs&#45;&gt;bcl_convert_step -->
<g id="edge1" class="edge">
<title>get_batch_dirs&#45;&gt;bcl_convert_step</title>
<path fill="none" stroke="black" d="M1675.94,-717.22C1644.93,-682.82 1576.71,-607.15 1540.93,-567.46"/>
<polygon fill="black" stroke="black" points="1543.31,-564.88 1534.02,-559.8 1538.12,-569.57 1543.31,-564.88"/>
</g>
<!-- bcl_convert_step&#45;&gt;fastq_directories -->
<g id="edge4" class="edge">
<title>bcl_convert_step&#45;&gt;fastq_directories</title>
<path fill="none" stroke="black" d="M1519.2,-522.4C1521.76,-486 1528.24,-399.92 1537,-328.03 1543.34,-275.99 1553.22,-215.62 1559.1,-181.11"/>
<polygon fill="black" stroke="black" points="1562.62,-181.31 1560.86,-170.86 1555.72,-180.13 1562.62,-181.31"/>
</g>
<!-- bcl_convert_step&#45;&gt;bclconvert_qc_step -->
<g id="edge2" class="edge">
<title>bcl_convert_step&#45;&gt;bclconvert_qc_step</title>
<path fill="none" stroke="black" d="M1595.1,-524.4C1772.13,-488.5 2206.27,-400.48 2385.56,-364.13"/>
<polygon fill="black" stroke="black" points="2386.34,-367.55 2395.45,-362.13 2384.95,-360.69 2386.34,-367.55"/>
</g>
<!-- flatten_fastq_list_rows_array -->
<g id="node22" class="node">
<title>flatten_fastq_list_rows_array</title>
<polygon fill="lightgoldenrodyellow" stroke="black" points="1545.5,-328.53 1545.5,-365.53 1836.5,-365.53 1836.5,-328.53 1545.5,-328.53"/>
<text text-anchor="middle" x="1691" y="-343.33" font-family="Times,serif" font-size="14.00">flatten&#45;array&#45;fastq&#45;list&#45;schema v(1.0.0)</text>
</g>
<!-- bcl_convert_step&#45;&gt;flatten_fastq_list_rows_array -->
<g id="edge3" class="edge">
<title>bcl_convert_step&#45;&gt;flatten_fastq_list_rows_array</title>
<path fill="none" stroke="black" d="M1533.97,-522.31C1564.73,-488.16 1632.34,-413.13 1667.98,-373.58"/>
<polygon fill="black" stroke="black" points="1670.98,-375.48 1675.07,-365.7 1665.78,-370.79 1670.98,-375.48"/>
</g>
<!-- bclconvert_qc_step&#45;&gt;bclconvert_multiqc_out -->
<g id="edge11" class="edge">
<title>bclconvert_qc_step&#45;&gt;bclconvert_multiqc_out</title>
<path fill="none" stroke="black" d="M2436.03,-328.39C2378.37,-293.28 2249.3,-214.71 2185.37,-175.78"/>
<polygon fill="black" stroke="black" points="2187.15,-172.77 2176.79,-170.56 2183.51,-178.75 2187.15,-172.77"/>
</g>
<!-- flatten_fastq_list_rows_array&#45;&gt;fastq_list_rows -->
<g id="edge12" class="edge">
<title>flatten_fastq_list_rows_array&#45;&gt;fastq_list_rows</title>
<path fill="none" stroke="black" d="M1692.94,-328.22C1696.6,-294.54 1704.57,-221.29 1708.96,-180.99"/>
<polygon fill="black" stroke="black" points="1712.46,-181.12 1710.07,-170.8 1705.51,-180.36 1712.46,-181.12"/>
</g>
<!-- samplesheet_split_by_settings_step&#45;&gt;split_sheets -->
<g id="edge7" class="edge">
<title>samplesheet_split_by_settings_step&#45;&gt;split_sheets</title>
<path fill="none" stroke="black" d="M1863.5,-911.36C1860.63,-810.3 1846.32,-305.54 1842.79,-180.89"/>
<polygon fill="black" stroke="black" points="1846.28,-180.56 1842.5,-170.67 1839.28,-180.76 1846.28,-180.56"/>
</g>
<!-- samplesheet_split_by_settings_step&#45;&gt;split_sheets_dir -->
<g id="edge8" class="edge">
<title>samplesheet_split_by_settings_step&#45;&gt;split_sheets_dir</title>
<path fill="none" stroke="black" d="M1866.53,-911.36C1880.98,-810.3 1953.18,-305.54 1971.01,-180.89"/>
<polygon fill="black" stroke="black" points="1974.53,-181.06 1972.48,-170.67 1967.6,-180.07 1974.53,-181.06"/>
</g>
<!-- samplesheet_split_by_settings_step&#45;&gt;get_batch_dirs -->
<g id="edge5" class="edge">
<title>samplesheet_split_by_settings_step&#45;&gt;get_batch_dirs</title>
<path fill="none" stroke="black" d="M1848.13,-911.31C1817.54,-877.16 1750.32,-802.13 1714.89,-762.58"/>
<polygon fill="black" stroke="black" points="1717.11,-759.82 1707.83,-754.7 1711.9,-764.49 1717.11,-759.82"/>
</g>
<!-- samplesheet_split_by_settings_step&#45;&gt;bcl_convert_step -->
<g id="edge6" class="edge">
<title>samplesheet_split_by_settings_step&#45;&gt;bcl_convert_step</title>
<path fill="none" stroke="black" d="M1791.13,-911.47C1714.87,-888.96 1598.3,-842.01 1540,-755.03 1501.94,-698.23 1507.21,-613.11 1513.2,-569.67"/>
<polygon fill="black" stroke="black" points="1516.69,-569.98 1514.71,-559.57 1509.77,-568.94 1516.69,-569.98"/>
</g>
<!-- create_dummy_file_step -->
<g id="node24" class="node">
<title>create_dummy_file_step</title>
<polygon fill="lightgoldenrodyellow" stroke="black" points="2713.5,-1114.53 2713.5,-1151.53 2974.5,-1151.53 2974.5,-1114.53 2713.5,-1114.53"/>
<text text-anchor="middle" x="2844" y="-1129.33" font-family="Times,serif" font-size="14.00">custom&#45;create&#45;dummy&#45;file v(1.0.0)</text>
</g>
<!-- create_dummy_file_step&#45;&gt;bclconvert_qc_step -->
<g id="edge9" class="edge">
<title>create_dummy_file_step&#45;&gt;bclconvert_qc_step</title>
<path fill="none" stroke="black" d="M2838.06,-1114.26C2825.2,-1076.35 2793.27,-984.95 2760,-911.03 2664.47,-698.78 2526.1,-454.09 2480.33,-374.5"/>
<polygon fill="black" stroke="black" points="2483.24,-372.55 2475.22,-365.63 2477.18,-376.04 2483.24,-372.55"/>
</g>
<!-- create_dummy_file_step&#45;&gt;interop_qc_step -->
<g id="edge10" class="edge">
<title>create_dummy_file_step&#45;&gt;interop_qc_step</title>
<path fill="none" stroke="black" d="M2825.1,-1114.19C2786.87,-1078.12 2700.33,-996.45 2656.89,-955.46"/>
<polygon fill="black" stroke="black" points="2659.23,-952.86 2649.56,-948.54 2654.43,-957.95 2659.23,-952.86"/>
</g>
<!-- interop_qc_step&#45;&gt;interop_multiqc_out -->
<g id="edge13" class="edge">
<title>interop_qc_step&#45;&gt;interop_multiqc_out</title>
<path fill="none" stroke="black" d="M2632.77,-911.39C2639.5,-835.72 2657.77,-533.17 2544,-328.03 2505.32,-258.29 2427.15,-204.2 2378.72,-175.6"/>
<polygon fill="black" stroke="black" points="2380.44,-172.55 2370.04,-170.55 2376.93,-178.6 2380.44,-172.55"/>
</g>
<!-- \n -->
<g id="node26" class="node">
<title>\n</title>
<ellipse fill="none" stroke="black" cx="3020" cy="-1133.03" rx="27" ry="18"/>
</g>
</g>
</svg>
