<?xml version="1.0" encoding="UTF-8" standalone="no"?>
<!DOCTYPE svg PUBLIC "-//W3C//DTD SVG 1.1//EN"
 "http://www.w3.org/Graphics/SVG/1.1/DTD/svg11.dtd">
<!-- Generated by graphviz version 2.40.1 (20161225.0304)
 -->
<!-- Title: G Pages: 1 -->
<svg width="3023pt" height="1220pt"
 viewBox="0.00 0.00 3022.50 1219.63" xmlns="http://www.w3.org/2000/svg" xmlns:xlink="http://www.w3.org/1999/xlink">
<g id="graph0" class="graph" transform="scale(1 1) rotate(0) translate(4 1215.628)">
<title>G</title>
<polygon fill="#eeeeee" stroke="transparent" points="-4,4 -4,-1215.628 3018.5,-1215.628 3018.5,4 -4,4"/>
<g id="clust1" class="cluster">
<title>cluster_inputs</title>
<polygon fill="#eeeeee" stroke="#000000" stroke-dasharray="5,2" points="8,-990.6229 8,-1190.8275 2741,-1190.8275 2741,-990.6229 8,-990.6229"/>
<text text-anchor="middle" x="2673" y="-998.4229" font-family="Times,serif" font-size="14.00" fill="#000000">Workflow Inputs</text>
</g>
<g id="clust2" class="cluster">
<title>cluster_outputs</title>
<polygon fill="#eeeeee" stroke="#000000" stroke-dasharray="5,2" points="1471,-20.8005 1471,-221.0051 2421,-221.0051 2421,-20.8005 1471,-20.8005"/>
<text text-anchor="middle" x="2347" y="-28.6005" font-family="Times,serif" font-size="14.00" fill="#000000">Workflow Outputs</text>
</g>
<!-- file:///tmp/tmp_e7ema60#samplesheet_outdir -->
<g id="node1" class="node">
<title>file:///tmp/tmp_e7ema60#samplesheet_outdir</title>
<g id="a_node1"><a xlink:title="Output directory of the samplesheets split by settings&#10;">
<polygon fill="#94ddf4" stroke="#000000" points="2068,-1102.3005 2068,-1139.3005 2226,-1139.3005 2226,-1102.3005 2068,-1102.3005"/>
<text text-anchor="middle" x="2147" y="-1117.1005" font-family="Times,serif" font-size="14.00" fill="#000000">samplesheet_outdir</text>
</a>
</g>
</g>
<!-- file:///tmp/tmp_e7ema60#samplesheet_split_by_settings_step -->
<g id="node25" class="node">
<title>file:///tmp/tmp_e7ema60#samplesheet_split_by_settings_step</title>
<g id="a_node25"><a xlink:href="https://github.com/umccr/cwl-ica/blob/beta-release/.github/catalogue/docs/tools/custom-samplesheet-split-by-settings/1.0.0/custom-samplesheet-split-by-settings__1.0.0.md" xlink:title="Samplesheet is split by the different input types.&#10;These are generally a difference in override cycles parameters or adapter trimming settings&#10;This then scatters multiple bclconvert workflows split by sample id&#10;">
<polygon fill="#fafad2" stroke="#000000" points="1679.5,-902.3005 1679.5,-939.3005 2022.5,-939.3005 2022.5,-902.3005 1679.5,-902.3005"/>
<text text-anchor="middle" x="1851" y="-917.1005" font-family="Times,serif" font-size="14.00" fill="#000000">custom&#45;samplesheet&#45;split&#45;by&#45;settings v(1.0.0)</text>
</a>
</g>
</g>
<!-- file:///tmp/tmp_e7ema60#samplesheet_outdir&#45;&gt;file:///tmp/tmp_e7ema60#samplesheet_split_by_settings_step -->
<g id="edge14" class="edge">
<title>file:///tmp/tmp_e7ema60#samplesheet_outdir&#45;&gt;file:///tmp/tmp_e7ema60#samplesheet_split_by_settings_step</title>
<path fill="none" stroke="#000000" d="M2119.4188,-1102.1646C2065.6595,-1065.8407 1946.8933,-985.5933 1887.0119,-945.1329"/>
<polygon fill="#000000" stroke="#000000" points="1888.8644,-942.1605 1878.619,-939.462 1884.9454,-947.9606 1888.8644,-942.1605"/>
</g>
<!-- file:///tmp/tmp_e7ema60#bcl_only_lane_bcl_conversion -->
<g id="node2" class="node">
<title>file:///tmp/tmp_e7ema60#bcl_only_lane_bcl_conversion</title>
<g id="a_node2"><a xlink:title="Convert only the specified lane number. The value must&#10;be less than or equal to the number of lanes specified in the&#10;RunInfo.xml. Must be a single integer value.&#10;">
<polygon fill="#94ddf4" stroke="#000000" points="1252,-1102.3005 1252,-1139.3005 1480,-1139.3005 1480,-1102.3005 1252,-1102.3005"/>
<text text-anchor="middle" x="1366" y="-1117.1005" font-family="Times,serif" font-size="14.00" fill="#000000">bcl_only_lane_bcl_conversion</text>
</a>
</g>
</g>
<!-- file:///tmp/tmp_e7ema60#bcl_convert_step -->
<g id="node19" class="node">
<title>file:///tmp/tmp_e7ema60#bcl_convert_step</title>
<g id="a_node19"><a xlink:href="https://github.com/umccr/cwl-ica/blob/beta-release/.github/catalogue/docs/tools/bclConvert/3.7.5/bclConvert__3.7.5.md" xlink:title="BCLConvert is then scattered across each of the samplesheets.&#10;">
<polygon fill="#fafad2" stroke="#000000" points="1423.5,-517.3005 1423.5,-554.3005 1578.5,-554.3005 1578.5,-517.3005 1423.5,-517.3005"/>
<text text-anchor="middle" x="1501" y="-532.1005" font-family="Times,serif" font-size="14.00" fill="#000000">bclConvert v(3.7.5)</text>
</a>
</g>
</g>
<!-- file:///tmp/tmp_e7ema60#bcl_only_lane_bcl_conversion&#45;&gt;file:///tmp/tmp_e7ema60#bcl_convert_step -->
<g id="edge15" class="edge">
<title>file:///tmp/tmp_e7ema60#bcl_only_lane_bcl_conversion&#45;&gt;file:///tmp/tmp_e7ema60#bcl_convert_step</title>
<path fill="none" stroke="#000000" d="M1365.6202,-1102.248C1364.9157,-1043.2912 1366.5516,-855.4737 1411,-708.8005 1427.6039,-654.0101 1461.542,-596.1185 1482.6692,-563.1294"/>
<polygon fill="#000000" stroke="#000000" points="1485.756,-564.8023 1488.2634,-554.5084 1479.8839,-560.9919 1485.756,-564.8023"/>
</g>
<!-- file:///tmp/tmp_e7ema60#bcl_sampleproject_subdirectories_bcl_conversion -->
<g id="node3" class="node">
<title>file:///tmp/tmp_e7ema60#bcl_sampleproject_subdirectories_bcl_conversion</title>
<g id="a_node3"><a xlink:title="true — Allows creation of Sample_Project subdirectories&#10;as specified in the sample sheet. This option must be set to true for&#10;the Sample_Project column in the data section to be used.&#10;">
<polygon fill="#94ddf4" stroke="#000000" points="264,-1102.3005 264,-1139.3005 638,-1139.3005 638,-1102.3005 264,-1102.3005"/>
<text text-anchor="middle" x="451" y="-1117.1005" font-family="Times,serif" font-size="14.00" fill="#000000">bcl_sampleproject_subdirectories_bcl_conversion</text>
</a>
</g>
</g>
<!-- file:///tmp/tmp_e7ema60#bcl_sampleproject_subdirectories_bcl_conversion&#45;&gt;file:///tmp/tmp_e7ema60#bcl_convert_step -->
<g id="edge16" class="edge">
<title>file:///tmp/tmp_e7ema60#bcl_sampleproject_subdirectories_bcl_conversion&#45;&gt;file:///tmp/tmp_e7ema60#bcl_convert_step</title>
<path fill="none" stroke="#000000" d="M484.4518,-1102.1631C639.3566,-1015.859 1286.7319,-655.1784 1458.8307,-559.2948"/>
<polygon fill="#000000" stroke="#000000" points="1460.5743,-562.33 1467.6066,-554.4054 1457.1674,-556.215 1460.5743,-562.33"/>
</g>
<!-- file:///tmp/tmp_e7ema60#strict_mode_bcl_conversion -->
<g id="node4" class="node">
<title>file:///tmp/tmp_e7ema60#strict_mode_bcl_conversion</title>
<g id="a_node4"><a xlink:title="true — Abort the program if any filter, locs, bcl, or bci lane&#10;files are missing or corrupt.&#10;false — Continue processing if any filter, locs, bcl, or bci lane files&#10;are missing. Return a warning message for each missing or corrupt&#10;file.&#10;">
<polygon fill="#94ddf4" stroke="#000000" points="656.5,-1102.3005 656.5,-1139.3005 873.5,-1139.3005 873.5,-1102.3005 656.5,-1102.3005"/>
<text text-anchor="middle" x="765" y="-1117.1005" font-family="Times,serif" font-size="14.00" fill="#000000">strict_mode_bcl_conversion</text>
</a>
</g>
</g>
<!-- file:///tmp/tmp_e7ema60#strict_mode_bcl_conversion&#45;&gt;file:///tmp/tmp_e7ema60#bcl_convert_step -->
<g id="edge17" class="edge">
<title>file:///tmp/tmp_e7ema60#strict_mode_bcl_conversion&#45;&gt;file:///tmp/tmp_e7ema60#bcl_convert_step</title>
<path fill="none" stroke="#000000" d="M788.6544,-1101.9991C897.0102,-1015.8739 1345.9657,-659.0275 1469.4455,-560.8812"/>
<polygon fill="#000000" stroke="#000000" points="1471.7829,-563.4942 1477.4335,-554.532 1467.4273,-558.0144 1471.7829,-563.4942"/>
</g>
<!-- file:///tmp/tmp_e7ema60#bcl_input_directory -->
<g id="node5" class="node">
<title>file:///tmp/tmp_e7ema60#bcl_input_directory</title>
<g id="a_node5"><a xlink:title="Path to the bcl files&#10;">
<polygon fill="#94ddf4" stroke="#000000" points="2427.5,-1102.3005 2427.5,-1139.3005 2584.5,-1139.3005 2584.5,-1102.3005 2427.5,-1102.3005"/>
<text text-anchor="middle" x="2506" y="-1117.1005" font-family="Times,serif" font-size="14.00" fill="#000000">bcl_input_directory</text>
</a>
</g>
</g>
<!-- file:///tmp/tmp_e7ema60#bcl_input_directory&#45;&gt;file:///tmp/tmp_e7ema60#bcl_convert_step -->
<g id="edge18" class="edge">
<title>file:///tmp/tmp_e7ema60#bcl_input_directory&#45;&gt;file:///tmp/tmp_e7ema60#bcl_convert_step</title>
<path fill="none" stroke="#000000" d="M2473.9819,-1102.1631C2325.8632,-1015.9448 1707.3166,-655.8952 1541.8546,-559.5815"/>
<polygon fill="#000000" stroke="#000000" points="1543.3655,-556.4113 1532.9623,-554.4054 1539.844,-562.461 1543.3655,-556.4113"/>
</g>
<!-- file:///tmp/tmp_e7ema60#interop_qc_step -->
<g id="node23" class="node">
<title>file:///tmp/tmp_e7ema60#interop_qc_step</title>
<g id="a_node23"><a xlink:href="https://github.com/umccr/cwl-ica/blob/beta-release/.github/catalogue/docs/tools/multiqc-interop/1.2.1/multiqc-interop__1.2.1.md" xlink:title="Run the multiqc by first also generating the interop files for use&#10;">
<polygon fill="#fafad2" stroke="#000000" points="2574.5,-902.3005 2574.5,-939.3005 2761.5,-939.3005 2761.5,-902.3005 2574.5,-902.3005"/>
<text text-anchor="middle" x="2668" y="-917.1005" font-family="Times,serif" font-size="14.00" fill="#000000">multiqc&#45;interop v(1.2.1)</text>
</a>
</g>
</g>
<!-- file:///tmp/tmp_e7ema60#bcl_input_directory&#45;&gt;file:///tmp/tmp_e7ema60#interop_qc_step -->
<g id="edge19" class="edge">
<title>file:///tmp/tmp_e7ema60#bcl_input_directory&#45;&gt;file:///tmp/tmp_e7ema60#interop_qc_step</title>
<path fill="none" stroke="#000000" d="M2521.2406,-1101.985C2550.2001,-1066.2325 2613.2478,-988.3957 2646.4922,-947.3533"/>
<polygon fill="#000000" stroke="#000000" points="2649.3434,-949.3939 2652.9179,-939.4203 2643.904,-944.988 2649.3434,-949.3939"/>
</g>
<!-- file:///tmp/tmp_e7ema60#runfolder_name -->
<g id="node6" class="node">
<title>file:///tmp/tmp_e7ema60#runfolder_name</title>
<g id="a_node6"><a xlink:title="Required &#45; used in naming run specific folder, reports and headings&#10;">
<polygon fill="#94ddf4" stroke="#000000" points="2603,-1102.3005 2603,-1139.3005 2733,-1139.3005 2733,-1102.3005 2603,-1102.3005"/>
<text text-anchor="middle" x="2668" y="-1117.1005" font-family="Times,serif" font-size="14.00" fill="#000000">runfolder_name</text>
</a>
</g>
</g>
<!-- file:///tmp/tmp_e7ema60#bclconvert_qc_step -->
<g id="node21" class="node">
<title>file:///tmp/tmp_e7ema60#bclconvert_qc_step</title>
<g id="a_node21"><a xlink:href="https://github.com/umccr/cwl-ica/blob/beta-release/.github/catalogue/docs/tools/multiqc/1.11.0/multiqc__1.11.0.md" xlink:title="The bclconvert qc step &#45; from scatter this takes in an array of dirs&#10;">
<polygon fill="#fafad2" stroke="#000000" points="2458,-324.3005 2458,-361.3005 2598,-361.3005 2598,-324.3005 2458,-324.3005"/>
<text text-anchor="middle" x="2528" y="-339.1005" font-family="Times,serif" font-size="14.00" fill="#000000">multiqc v(1.11.0)</text>
</a>
</g>
</g>
<!-- file:///tmp/tmp_e7ema60#runfolder_name&#45;&gt;file:///tmp/tmp_e7ema60#bclconvert_qc_step -->
<g id="edge23" class="edge">
<title>file:///tmp/tmp_e7ema60#runfolder_name&#45;&gt;file:///tmp/tmp_e7ema60#bclconvert_qc_step</title>
<path fill="none" stroke="#000000" d="M2642.7183,-1102.2828C2612.5225,-1070.8809 2567.131,-1004.2929 2548,-939.8005 2485.4816,-729.0452 2500.3695,-458.6633 2517.575,-371.3446"/>
<polygon fill="#000000" stroke="#000000" points="2521.0345,-371.9065 2519.7346,-361.3917 2514.1937,-370.4222 2521.0345,-371.9065"/>
</g>
<!-- file:///tmp/tmp_e7ema60#runfolder_name&#45;&gt;file:///tmp/tmp_e7ema60#bclconvert_qc_step -->
<g id="edge24" class="edge">
<title>file:///tmp/tmp_e7ema60#runfolder_name&#45;&gt;file:///tmp/tmp_e7ema60#bclconvert_qc_step</title>
<path fill="none" stroke="#000000" d="M2653.7587,-1102.2828C2630.5225,-1070.8809 2585.131,-1004.2929 2566,-939.8005 2503.5452,-729.2596 2518.3393,-459.2133 2525.3785,-371.6117"/>
<polygon fill="#000000" stroke="#000000" points="2528.8875,-371.6485 2526.2324,-361.3917 2521.9118,-371.0655 2528.8875,-371.6485"/>
</g>
<!-- file:///tmp/tmp_e7ema60#runfolder_name&#45;&gt;file:///tmp/tmp_e7ema60#bclconvert_qc_step -->
<g id="edge25" class="edge">
<title>file:///tmp/tmp_e7ema60#runfolder_name&#45;&gt;file:///tmp/tmp_e7ema60#bclconvert_qc_step</title>
<path fill="none" stroke="#000000" d="M2664.799,-1102.2828C2648.5225,-1070.8809 2603.131,-1004.2929 2584,-939.8005 2521.5452,-729.2596 2536.3393,-459.2133 2533.2344,-371.6117"/>
<polygon fill="#000000" stroke="#000000" points="2536.7188,-371.2071 2532.7303,-361.3917 2529.7273,-371.552 2536.7188,-371.2071"/>
</g>
<!-- file:///tmp/tmp_e7ema60#runfolder_name&#45;&gt;file:///tmp/tmp_e7ema60#interop_qc_step -->
<g id="edge20" class="edge">
<title>file:///tmp/tmp_e7ema60#runfolder_name&#45;&gt;file:///tmp/tmp_e7ema60#interop_qc_step</title>
<path fill="none" stroke="#000000" d="M2659.7077,-1101.985C2653.3092,-1066.8296 2652.8069,-990.984 2658.2008,-949.4401"/>
<polygon fill="#000000" stroke="#000000" points="2661.681,-949.8365 2659.7435,-939.4203 2654.7625,-948.7712 2661.681,-949.8365"/>
</g>
<!-- file:///tmp/tmp_e7ema60#runfolder_name&#45;&gt;file:///tmp/tmp_e7ema60#interop_qc_step -->
<g id="edge21" class="edge">
<title>file:///tmp/tmp_e7ema60#runfolder_name&#45;&gt;file:///tmp/tmp_e7ema60#interop_qc_step</title>
<path fill="none" stroke="#000000" d="M2668,-1101.985C2668,-1066.8296 2668,-990.984 2668,-949.4401"/>
<polygon fill="#000000" stroke="#000000" points="2671.5001,-949.4203 2668,-939.4203 2664.5001,-949.4203 2671.5001,-949.4203"/>
</g>
<!-- file:///tmp/tmp_e7ema60#runfolder_name&#45;&gt;file:///tmp/tmp_e7ema60#interop_qc_step -->
<g id="edge22" class="edge">
<title>file:///tmp/tmp_e7ema60#runfolder_name&#45;&gt;file:///tmp/tmp_e7ema60#interop_qc_step</title>
<path fill="none" stroke="#000000" d="M2676.2923,-1101.985C2682.6908,-1066.8296 2683.1931,-990.984 2677.7992,-949.4401"/>
<polygon fill="#000000" stroke="#000000" points="2681.2375,-948.7712 2676.2565,-939.4203 2674.319,-949.8365 2681.2375,-948.7712"/>
</g>
<!-- file:///tmp/tmp_e7ema60#samplesheet_output_format -->
<g id="node7" class="node">
<title>file:///tmp/tmp_e7ema60#samplesheet_output_format</title>
<g id="a_node7"><a xlink:title="Convert headers to v2 samplesheet format&#10;">
<polygon fill="#94ddf4" stroke="#000000" points="1623.5,-1102.3005 1623.5,-1139.3005 1840.5,-1139.3005 1840.5,-1102.3005 1623.5,-1102.3005"/>
<text text-anchor="middle" x="1732" y="-1117.1005" font-family="Times,serif" font-size="14.00" fill="#000000">samplesheet_output_format</text>
</a>
</g>
</g>
<!-- file:///tmp/tmp_e7ema60#samplesheet_output_format&#45;&gt;file:///tmp/tmp_e7ema60#samplesheet_split_by_settings_step -->
<g id="edge26" class="edge">
<title>file:///tmp/tmp_e7ema60#samplesheet_output_format&#45;&gt;file:///tmp/tmp_e7ema60#samplesheet_split_by_settings_step</title>
<path fill="none" stroke="#000000" d="M1743.1952,-1101.985C1764.3347,-1066.4564 1810.2017,-989.3691 1834.7397,-948.1287"/>
<polygon fill="#000000" stroke="#000000" points="1837.8157,-949.8038 1839.9212,-939.4203 1831.8,-946.2245 1837.8157,-949.8038"/>
</g>
<!-- file:///tmp/tmp_e7ema60#delete_undetermined_indices_bcl_conversion -->
<g id="node8" class="node">
<title>file:///tmp/tmp_e7ema60#delete_undetermined_indices_bcl_conversion</title>
<g id="a_node8"><a xlink:title="Delete undetermined indices on completion of the run&#10;">
<polygon fill="#94ddf4" stroke="#000000" points="892,-1102.3005 892,-1139.3005 1234,-1139.3005 1234,-1102.3005 892,-1102.3005"/>
<text text-anchor="middle" x="1063" y="-1117.1005" font-family="Times,serif" font-size="14.00" fill="#000000">delete_undetermined_indices_bcl_conversion</text>
</a>
</g>
</g>
<!-- file:///tmp/tmp_e7ema60#delete_undetermined_indices_bcl_conversion&#45;&gt;file:///tmp/tmp_e7ema60#bcl_convert_step -->
<g id="edge27" class="edge">
<title>file:///tmp/tmp_e7ema60#delete_undetermined_indices_bcl_conversion&#45;&gt;file:///tmp/tmp_e7ema60#bcl_convert_step</title>
<path fill="none" stroke="#000000" d="M1077.077,-1101.9991C1141.1739,-1016.3901 1405.5421,-663.2956 1480.8795,-562.6738"/>
<polygon fill="#000000" stroke="#000000" points="1483.7836,-564.6347 1486.9754,-554.532 1478.1802,-560.4392 1483.7836,-564.6347"/>
</g>
<!-- file:///tmp/tmp_e7ema60#first_tile_only_bcl_conversion -->
<g id="node9" class="node">
<title>file:///tmp/tmp_e7ema60#first_tile_only_bcl_conversion</title>
<g id="a_node9"><a xlink:title="true — Only process the first tile of the first swath of the&#10; &#160;top surface of each lane specified in the sample sheet.&#10;false — Process all tiles in each lane, as specified in the sample&#10; &#160;sheet.&#10;">
<polygon fill="#94ddf4" stroke="#000000" points="16,-1102.3005 16,-1139.3005 246,-1139.3005 246,-1102.3005 16,-1102.3005"/>
<text text-anchor="middle" x="131" y="-1117.1005" font-family="Times,serif" font-size="14.00" fill="#000000">first_tile_only_bcl_conversion</text>
</a>
</g>
</g>
<!-- file:///tmp/tmp_e7ema60#first_tile_only_bcl_conversion&#45;&gt;file:///tmp/tmp_e7ema60#bcl_convert_step -->
<g id="edge28" class="edge">
<title>file:///tmp/tmp_e7ema60#first_tile_only_bcl_conversion&#45;&gt;file:///tmp/tmp_e7ema60#bcl_convert_step</title>
<path fill="none" stroke="#000000" d="M174.6466,-1102.1631C377.3632,-1015.6016 1226.4747,-653.0248 1447.9714,-558.4441"/>
<polygon fill="#000000" stroke="#000000" points="1449.6073,-561.5513 1457.4295,-554.4054 1446.8584,-555.1137 1449.6073,-561.5513"/>
</g>
<!-- file:///tmp/tmp_e7ema60#samplesheet -->
<g id="node10" class="node">
<title>file:///tmp/tmp_e7ema60#samplesheet</title>
<g id="a_node10"><a xlink:title="The path to the full samplesheet&#10;">
<polygon fill="#94ddf4" stroke="#000000" points="1498.5,-1102.3005 1498.5,-1139.3005 1605.5,-1139.3005 1605.5,-1102.3005 1498.5,-1102.3005"/>
<text text-anchor="middle" x="1552" y="-1117.1005" font-family="Times,serif" font-size="14.00" fill="#000000">samplesheet</text>
</a>
</g>
</g>
<!-- file:///tmp/tmp_e7ema60#samplesheet&#45;&gt;file:///tmp/tmp_e7ema60#samplesheet_split_by_settings_step -->
<g id="edge29" class="edge">
<title>file:///tmp/tmp_e7ema60#samplesheet&#45;&gt;file:///tmp/tmp_e7ema60#samplesheet_split_by_settings_step</title>
<path fill="none" stroke="#000000" d="M1574.3048,-1102.163C1586.1619,-1092.4968 1601.1205,-1080.6782 1615,-1070.8005 1681.7002,-1023.3315 1762.9298,-973.3135 1810.6054,-944.7018"/>
<polygon fill="#000000" stroke="#000000" points="1812.609,-947.5816 1819.3923,-939.443 1809.0143,-941.5752 1812.609,-947.5816"/>
</g>
<!-- file:///tmp/tmp_e7ema60#settings_by_samples -->
<g id="node11" class="node">
<title>file:///tmp/tmp_e7ema60#settings_by_samples</title>
<g id="a_node11"><a xlink:title="List of settings by samples&#10;">
<polygon fill="#94ddf4" stroke="#000000" points="2244.5,-1102.3005 2244.5,-1139.3005 2409.5,-1139.3005 2409.5,-1102.3005 2244.5,-1102.3005"/>
<text text-anchor="middle" x="2327" y="-1117.1005" font-family="Times,serif" font-size="14.00" fill="#000000">settings_by_samples</text>
</a>
</g>
</g>
<!-- file:///tmp/tmp_e7ema60#settings_by_samples&#45;&gt;file:///tmp/tmp_e7ema60#samplesheet_split_by_settings_step -->
<g id="edge30" class="edge">
<title>file:///tmp/tmp_e7ema60#settings_by_samples&#45;&gt;file:///tmp/tmp_e7ema60#samplesheet_split_by_settings_step</title>
<path fill="none" stroke="#000000" d="M2295.1485,-1102.2075C2277.665,-1092.3299 2255.4412,-1080.302 2235,-1070.8005 2124.5213,-1019.4477 1991.1878,-970.068 1914.2376,-942.7416"/>
<polygon fill="#000000" stroke="#000000" points="1915.2745,-939.3959 1904.6798,-939.358 1912.9384,-945.9946 1915.2745,-939.3959"/>
</g>
<!-- file:///tmp/tmp_e7ema60#ignore_missing_samples -->
<g id="node12" class="node">
<title>file:///tmp/tmp_e7ema60#ignore_missing_samples</title>
<g id="a_node12"><a xlink:title="Remove the samples not present in the override cycles record&#10;">
<polygon fill="#94ddf4" stroke="#000000" points="1858.5,-1102.3005 1858.5,-1139.3005 2049.5,-1139.3005 2049.5,-1102.3005 1858.5,-1102.3005"/>
<text text-anchor="middle" x="1954" y="-1117.1005" font-family="Times,serif" font-size="14.00" fill="#000000">ignore_missing_samples</text>
</a>
</g>
</g>
<!-- file:///tmp/tmp_e7ema60#ignore_missing_samples&#45;&gt;file:///tmp/tmp_e7ema60#samplesheet_split_by_settings_step -->
<g id="edge31" class="edge">
<title>file:///tmp/tmp_e7ema60#ignore_missing_samples&#45;&gt;file:///tmp/tmp_e7ema60#samplesheet_split_by_settings_step</title>
<path fill="none" stroke="#000000" d="M1944.31,-1101.985C1926.0512,-1066.531 1886.4795,-989.6928 1865.2082,-948.3891"/>
<polygon fill="#000000" stroke="#000000" points="1868.2794,-946.7081 1860.5892,-939.4203 1862.0562,-949.9131 1868.2794,-946.7081"/>
</g>
<!-- file:///tmp/tmp_e7ema60#fastq_directories -->
<g id="node13" class="node">
<title>file:///tmp/tmp_e7ema60#fastq_directories</title>
<g id="a_node13"><a xlink:title="The outputs from the bclconvert&#45;step&#10;">
<polygon fill="#94ddf4" stroke="#000000" points="1479,-132.3005 1479,-169.3005 1617,-169.3005 1617,-132.3005 1479,-132.3005"/>
<text text-anchor="middle" x="1548" y="-147.1005" font-family="Times,serif" font-size="14.00" fill="#000000">fastq_directories</text>
</a>
</g>
</g>
<!-- file:///tmp/tmp_e7ema60#bclconvert_multiqc_out -->
<g id="node14" class="node">
<title>file:///tmp/tmp_e7ema60#bclconvert_multiqc_out</title>
<g id="a_node14"><a xlink:title="multiqc directory output that contains bclconvert multiqc data&#10;">
<polygon fill="#94ddf4" stroke="#000000" points="2047,-132.3005 2047,-169.3005 2233,-169.3005 2233,-132.3005 2047,-132.3005"/>
<text text-anchor="middle" x="2140" y="-147.1005" font-family="Times,serif" font-size="14.00" fill="#000000">bclconvert_multiqc_out</text>
</a>
</g>
</g>
<!-- file:///tmp/tmp_e7ema60#interop_multiqc_out -->
<g id="node15" class="node">
<title>file:///tmp/tmp_e7ema60#interop_multiqc_out</title>
<g id="a_node15"><a xlink:title="multiqc directory output that contains interop data&#10;">
<polygon fill="#94ddf4" stroke="#000000" points="2251.5,-132.3005 2251.5,-169.3005 2412.5,-169.3005 2412.5,-132.3005 2251.5,-132.3005"/>
<text text-anchor="middle" x="2332" y="-147.1005" font-family="Times,serif" font-size="14.00" fill="#000000">interop_multiqc_out</text>
</a>
</g>
</g>
<!-- file:///tmp/tmp_e7ema60#split_sheets -->
<g id="node16" class="node">
<title>file:///tmp/tmp_e7ema60#split_sheets</title>
<g id="a_node16"><a xlink:title="List of samplesheets split by override cycles&#10;">
<polygon fill="#94ddf4" stroke="#000000" points="1779,-132.3005 1779,-169.3005 1881,-169.3005 1881,-132.3005 1779,-132.3005"/>
<text text-anchor="middle" x="1830" y="-147.1005" font-family="Times,serif" font-size="14.00" fill="#000000">split_sheets</text>
</a>
</g>
</g>
<!-- file:///tmp/tmp_e7ema60#fastq_list_rows -->
<g id="node17" class="node">
<title>file:///tmp/tmp_e7ema60#fastq_list_rows</title>
<g id="a_node17"><a xlink:title="Contains the fastq list row schema for each of the output fastq files&#10;">
<polygon fill="#94ddf4" stroke="#000000" points="1635.5,-132.3005 1635.5,-169.3005 1760.5,-169.3005 1760.5,-132.3005 1635.5,-132.3005"/>
<text text-anchor="middle" x="1698" y="-147.1005" font-family="Times,serif" font-size="14.00" fill="#000000">fastq_list_rows</text>
</a>
</g>
</g>
<!-- file:///tmp/tmp_e7ema60#split_sheets_dir -->
<g id="node18" class="node">
<title>file:///tmp/tmp_e7ema60#split_sheets_dir</title>
<g id="a_node18"><a xlink:title="The directory containing the samplesheets used for each bcl convert&#10;">
<polygon fill="#94ddf4" stroke="#000000" points="1899,-132.3005 1899,-169.3005 2029,-169.3005 2029,-132.3005 1899,-132.3005"/>
<text text-anchor="middle" x="1964" y="-147.1005" font-family="Times,serif" font-size="14.00" fill="#000000">split_sheets_dir</text>
</a>
</g>
</g>
<!-- file:///tmp/tmp_e7ema60#bcl_convert_step&#45;&gt;file:///tmp/tmp_e7ema60#fastq_directories -->
<g id="edge3" class="edge">
<title>file:///tmp/tmp_e7ema60#bcl_convert_step&#45;&gt;file:///tmp/tmp_e7ema60#fastq_directories</title>
<path fill="none" stroke="#000000" d="M1502.3847,-517.0417C1505.2026,-480.0184 1512.0981,-394.9657 1521,-323.8005 1527.3666,-272.9035 1537.0706,-213.9412 1542.9465,-179.6585"/>
<polygon fill="#000000" stroke="#000000" points="1546.4589,-179.886 1544.7106,-169.4364 1539.5609,-178.6954 1546.4589,-179.886"/>
</g>
<!-- file:///tmp/tmp_e7ema60#flatten_fastq_list_rows_array -->
<g id="node20" class="node">
<title>file:///tmp/tmp_e7ema60#flatten_fastq_list_rows_array</title>
<g id="a_node20"><a xlink:href="https://github.com/umccr/cwl-ica/blob/beta-release/.github/catalogue/docs/expressions/flatten-array-fastq-list/1.0.0/flatten-array-fastq-list__1.0.0.md" xlink:title="fastq list rows is an array and bcl convert is from a directory output.&#10;This scatters the arrays to a single array&#10;">
<polygon fill="#ee9a00" stroke="#000000" points="1529.5,-324.3005 1529.5,-361.3005 1822.5,-361.3005 1822.5,-324.3005 1529.5,-324.3005"/>
<text text-anchor="middle" x="1676" y="-339.1005" font-family="Times,serif" font-size="14.00" fill="#000000">flatten&#45;array&#45;fastq&#45;list&#45;schema v(1.0.0)</text>
</a>
</g>
</g>
<!-- file:///tmp/tmp_e7ema60#bcl_convert_step&#45;&gt;file:///tmp/tmp_e7ema60#flatten_fastq_list_rows_array -->
<g id="edge1" class="edge">
<title>file:///tmp/tmp_e7ema60#bcl_convert_step&#45;&gt;file:///tmp/tmp_e7ema60#flatten_fastq_list_rows_array</title>
<path fill="none" stroke="#000000" d="M1517.7797,-517.2948C1549.0586,-482.7987 1616.3495,-408.5865 1652.2684,-368.973"/>
<polygon fill="#000000" stroke="#000000" points="1654.8896,-371.2928 1659.0139,-361.5337 1649.7039,-366.5908 1654.8896,-371.2928"/>
</g>
<!-- file:///tmp/tmp_e7ema60#bcl_convert_step&#45;&gt;file:///tmp/tmp_e7ema60#bclconvert_qc_step -->
<g id="edge2" class="edge">
<title>file:///tmp/tmp_e7ema60#bcl_convert_step&#45;&gt;file:///tmp/tmp_e7ema60#bclconvert_qc_step</title>
<path fill="none" stroke="#000000" d="M1578.6129,-521.215C1768.5567,-485.5196 2255.2853,-394.0507 2447.8462,-357.8635"/>
<polygon fill="#000000" stroke="#000000" points="2448.715,-361.2615 2457.8965,-355.9747 2447.4221,-354.382 2448.715,-361.2615"/>
</g>
<!-- file:///tmp/tmp_e7ema60#flatten_fastq_list_rows_array&#45;&gt;file:///tmp/tmp_e7ema60#fastq_list_rows -->
<g id="edge4" class="edge">
<title>file:///tmp/tmp_e7ema60#flatten_fastq_list_rows_array&#45;&gt;file:///tmp/tmp_e7ema60#fastq_list_rows</title>
<path fill="none" stroke="#000000" d="M1678.1495,-324.0411C1682.0121,-290.3315 1690.1487,-219.3212 1694.7144,-179.4746"/>
<polygon fill="#000000" stroke="#000000" points="1698.2129,-179.6868 1695.8742,-169.3533 1691.2584,-178.8898 1698.2129,-179.6868"/>
</g>
<!-- file:///tmp/tmp_e7ema60#bclconvert_qc_step&#45;&gt;file:///tmp/tmp_e7ema60#bclconvert_multiqc_out -->
<g id="edge13" class="edge">
<title>file:///tmp/tmp_e7ema60#bclconvert_qc_step&#45;&gt;file:///tmp/tmp_e7ema60#bclconvert_multiqc_out</title>
<path fill="none" stroke="#000000" d="M2490.4444,-324.2163C2419.1708,-288.9468 2264.4785,-212.3981 2186.6729,-173.8963"/>
<polygon fill="#000000" stroke="#000000" points="2188.0913,-170.6932 2177.5763,-169.3949 2184.9867,-176.9671 2188.0913,-170.6932"/>
</g>
<!-- file:///tmp/tmp_e7ema60#create_dummy_file_step -->
<g id="node22" class="node">
<title>file:///tmp/tmp_e7ema60#create_dummy_file_step</title>
<g id="a_node22"><a xlink:href="https://github.com/umccr/cwl-ica/blob/beta-release/.github/catalogue/docs/tools/custom-touch-file/1.0.0/custom-touch-file__1.0.0.md" xlink:title="Intermediate step for letting multiqc&#45;interop be placed in stream mode&#10;">
<polygon fill="#fafad2" stroke="#000000" points="2751.5,-1102.3005 2751.5,-1139.3005 3014.5,-1139.3005 3014.5,-1102.3005 2751.5,-1102.3005"/>
<text text-anchor="middle" x="2883" y="-1117.1005" font-family="Times,serif" font-size="14.00" fill="#000000">custom&#45;create&#45;dummy&#45;file v(1.0.0)</text>
</a>
</g>
</g>
<!-- file:///tmp/tmp_e7ema60#create_dummy_file_step&#45;&gt;file:///tmp/tmp_e7ema60#bclconvert_qc_step -->
<g id="edge6" class="edge">
<title>file:///tmp/tmp_e7ema60#create_dummy_file_step&#45;&gt;file:///tmp/tmp_e7ema60#bclconvert_qc_step</title>
<path fill="none" stroke="#000000" d="M2874.4006,-1101.9544C2826.9767,-998.0228 2597.4604,-495.0264 2540.7097,-370.6545"/>
<polygon fill="#000000" stroke="#000000" points="2543.8217,-369.0432 2536.4863,-361.3985 2537.4534,-371.9491 2543.8217,-369.0432"/>
</g>
<!-- file:///tmp/tmp_e7ema60#create_dummy_file_step&#45;&gt;file:///tmp/tmp_e7ema60#interop_qc_step -->
<g id="edge5" class="edge">
<title>file:///tmp/tmp_e7ema60#create_dummy_file_step&#45;&gt;file:///tmp/tmp_e7ema60#interop_qc_step</title>
<path fill="none" stroke="#000000" d="M2862.7733,-1101.985C2824.0185,-1065.9339 2739.2643,-987.0928 2695.4473,-946.3328"/>
<polygon fill="#000000" stroke="#000000" points="2697.7221,-943.6687 2688.0163,-939.4203 2692.9543,-948.794 2697.7221,-943.6687"/>
</g>
<!-- file:///tmp/tmp_e7ema60#interop_qc_step&#45;&gt;file:///tmp/tmp_e7ema60#interop_multiqc_out -->
<g id="edge7" class="edge">
<title>file:///tmp/tmp_e7ema60#interop_qc_step&#45;&gt;file:///tmp/tmp_e7ema60#interop_multiqc_out</title>
<path fill="none" stroke="#000000" d="M2671.5595,-902.1421C2685.3732,-824.2646 2728.8469,-520.088 2607,-323.8005 2559.2242,-246.8367 2463.1615,-198.3521 2398.2005,-172.9043"/>
<polygon fill="#000000" stroke="#000000" points="2399.4414,-169.6317 2388.8512,-169.3163 2396.9332,-176.167 2399.4414,-169.6317"/>
</g>
<!-- file:///tmp/tmp_e7ema60#get_batch_dirs -->
<g id="node24" class="node">
<title>file:///tmp/tmp_e7ema60#get_batch_dirs</title>
<g id="a_node24"><a xlink:href="https://github.com/umccr/cwl-ica/blob/beta-release/.github/catalogue/docs/expressions/get-samplesheet-midfix-regex/1.0.0/get-samplesheet-midfix-regex__1.0.0.md" xlink:title="Get the directory names of each of the directories we wish to scatter over&#10;">
<polygon fill="#ee9a00" stroke="#000000" points="1420,-709.3005 1420,-746.3005 1708,-746.3005 1708,-709.3005 1420,-709.3005"/>
<text text-anchor="middle" x="1564" y="-724.1005" font-family="Times,serif" font-size="14.00" fill="#000000">get&#45;samplesheet&#45;midfix&#45;regex v(1.0.0)</text>
</a>
</g>
</g>
<!-- file:///tmp/tmp_e7ema60#get_batch_dirs&#45;&gt;file:///tmp/tmp_e7ema60#bcl_convert_step -->
<g id="edge8" class="edge">
<title>file:///tmp/tmp_e7ema60#get_batch_dirs&#45;&gt;file:///tmp/tmp_e7ema60#bcl_convert_step</title>
<path fill="none" stroke="#000000" d="M1557.8446,-709.0411C1546.7364,-675.1877 1523.2844,-603.7149 1510.242,-563.9665"/>
<polygon fill="#000000" stroke="#000000" points="1513.531,-562.7637 1507.0876,-554.3533 1506.8799,-564.9461 1513.531,-562.7637"/>
</g>
<!-- file:///tmp/tmp_e7ema60#samplesheet_split_by_settings_step&#45;&gt;file:///tmp/tmp_e7ema60#split_sheets -->
<g id="edge11" class="edge">
<title>file:///tmp/tmp_e7ema60#samplesheet_split_by_settings_step&#45;&gt;file:///tmp/tmp_e7ema60#split_sheets</title>
<path fill="none" stroke="#000000" d="M1850.4913,-902.1482C1847.6974,-799.7062 1834.2199,-305.5294 1830.7936,-179.8982"/>
<polygon fill="#000000" stroke="#000000" points="1834.2828,-179.452 1830.5114,-169.5512 1827.2854,-179.6429 1834.2828,-179.452"/>
</g>
<!-- file:///tmp/tmp_e7ema60#samplesheet_split_by_settings_step&#45;&gt;file:///tmp/tmp_e7ema60#split_sheets_dir -->
<g id="edge12" class="edge">
<title>file:///tmp/tmp_e7ema60#samplesheet_split_by_settings_step&#45;&gt;file:///tmp/tmp_e7ema60#split_sheets_dir</title>
<path fill="none" stroke="#000000" d="M1853.7373,-902.1482C1868.7861,-799.6032 1941.439,-304.5346 1959.7853,-179.5201"/>
<polygon fill="#000000" stroke="#000000" points="1963.2591,-179.9534 1961.2483,-169.5512 1956.3333,-178.937 1963.2591,-179.9534"/>
</g>
<!-- file:///tmp/tmp_e7ema60#samplesheet_split_by_settings_step&#45;&gt;file:///tmp/tmp_e7ema60#bcl_convert_step -->
<g id="edge9" class="edge">
<title>file:///tmp/tmp_e7ema60#samplesheet_split_by_settings_step&#45;&gt;file:///tmp/tmp_e7ema60#bcl_convert_step</title>
<path fill="none" stroke="#000000" d="M1841.8911,-902.1035C1822.4596,-863.3537 1774.0299,-772.5807 1717,-708.8005 1662.2438,-647.5631 1584.2767,-590.9538 1538.5292,-560.1072"/>
<polygon fill="#000000" stroke="#000000" points="1540.3584,-557.12 1530.1004,-554.4698 1536.4668,-562.9386 1540.3584,-557.12"/>
</g>
<!-- file:///tmp/tmp_e7ema60#samplesheet_split_by_settings_step&#45;&gt;file:///tmp/tmp_e7ema60#get_batch_dirs -->
<g id="edge10" class="edge">
<title>file:///tmp/tmp_e7ema60#samplesheet_split_by_settings_step&#45;&gt;file:///tmp/tmp_e7ema60#get_batch_dirs</title>
<path fill="none" stroke="#000000" d="M1823.4812,-902.2948C1771.4358,-867.2957 1658.5955,-791.4135 1600.3758,-752.2623"/>
<polygon fill="#000000" stroke="#000000" points="1602.1085,-749.2097 1591.8572,-746.5337 1598.2022,-755.0184 1602.1085,-749.2097"/>
</g>
</g>
</svg>
