<?xml version="1.0" encoding="UTF-8" standalone="no"?>
<!DOCTYPE svg PUBLIC "-//W3C//DTD SVG 1.1//EN"
 "http://www.w3.org/Graphics/SVG/1.1/DTD/svg11.dtd">
<!-- Generated by graphviz version 2.43.0 (0)
 -->
<!-- Title: G Pages: 1 -->
<svg width="3055pt" height="1233pt"
 viewBox="0.00 0.00 3055.00 1232.89" xmlns="http://www.w3.org/2000/svg" xmlns:xlink="http://www.w3.org/1999/xlink">
<g id="graph0" class="graph" transform="scale(1 1) rotate(0) translate(4 1228.89)">
<title>G</title>
<polygon fill="#eeeeee" stroke="transparent" points="-4,4 -4,-1228.89 3051,-1228.89 3051,4 -4,4"/>
<g id="clust1" class="cluster">
<title>cluster_inputs</title>
<polygon fill="#eeeeee" stroke="black" stroke-dasharray="5,2" points="8,-1001.47 8,-1203.87 2704,-1203.87 2704,-1001.47 8,-1001.47"/>
<text text-anchor="middle" x="2637.5" y="-1009.27" font-family="Times,serif" font-size="14.00">Workflow Inputs</text>
</g>
<g id="clust2" class="cluster">
<title>cluster_outputs</title>
<polygon fill="#eeeeee" stroke="black" stroke-dasharray="5,2" points="1378,-21.03 1378,-223.42 2315,-223.42 2315,-21.03 1378,-21.03"/>
<text text-anchor="middle" x="2242.5" y="-28.83" font-family="Times,serif" font-size="14.00">Workflow Outputs</text>
</g>
<!-- bcl_input_directory -->
<g id="node1" class="node">
<title>bcl_input_directory</title>
<g id="a_node1"><a xlink:title="Path to the bcl files&#10;">
<polygon fill="#94ddf4" stroke="black" points="2394,-1114.53 2394,-1151.53 2548,-1151.53 2548,-1114.53 2394,-1114.53"/>
<text text-anchor="middle" x="2471" y="-1129.33" font-family="Times,serif" font-size="14.00">bcl_input_directory</text>
</a>
</g>
</g>
<!-- bcl_convert_step -->
<g id="node20" class="node">
<title>bcl_convert_step</title>
<g id="a_node20"><a xlink:href="https://github.com/umccr/cwl-ica/blob/main/.github/catalogue/docs/tools/bclConvert/3.7.5/bclConvert__3.7.5.md" xlink:title="BCLConvert is then scattered across each of the samplesheets.&#10;">
<polygon fill="lightgoldenrodyellow" stroke="black" points="1716,-522.53 1716,-559.53 1870,-559.53 1870,-522.53 1716,-522.53"/>
<text text-anchor="middle" x="1793" y="-537.33" font-family="Times,serif" font-size="14.00">bclConvert v(3.7.5)</text>
</a>
</g>
</g>
<!-- bcl_input_directory&#45;&gt;bcl_convert_step -->
<g id="edge14" class="edge">
<title>bcl_input_directory&#45;&gt;bcl_convert_step</title>
<path fill="none" stroke="black" d="M2450.71,-1114.37C2353.24,-1029.55 1933.19,-664.02 1820.77,-566.19"/>
<polygon fill="black" stroke="black" points="1823.05,-563.54 1813.21,-559.62 1818.46,-568.82 1823.05,-563.54"/>
</g>
<!-- interop_qc_step -->
<g id="node25" class="node">
<title>interop_qc_step</title>
<g id="a_node25"><a xlink:href="https://github.com/umccr/cwl-ica/blob/main/.github/catalogue/docs/tools/multiqc-interop/1.2.1/multiqc-interop__1.2.1.md" xlink:title="Run the multiqc by first also generating the interop files for use&#10;">
<polygon fill="lightgoldenrodyellow" stroke="black" points="2538,-911.53 2538,-948.53 2724,-948.53 2724,-911.53 2538,-911.53"/>
<text text-anchor="middle" x="2631" y="-926.33" font-family="Times,serif" font-size="14.00">multiqc&#45;interop v(1.2.1)</text>
</a>
</g>
</g>
<!-- bcl_input_directory&#45;&gt;interop_qc_step -->
<g id="edge15" class="edge">
<title>bcl_input_directory&#45;&gt;interop_qc_step</title>
<path fill="none" stroke="black" d="M2485.2,-1114.19C2513.68,-1078.42 2577.85,-997.8 2610.73,-956.49"/>
<polygon fill="black" stroke="black" points="2613.57,-958.54 2617.06,-948.54 2608.1,-954.18 2613.57,-958.54"/>
</g>
<!-- bcl_only_lane_bcl_conversion -->
<g id="node2" class="node">
<title>bcl_only_lane_bcl_conversion</title>
<g id="a_node2"><a xlink:title="Convert only the specified lane number. The value must&#10;be less than or equal to the number of lanes specified in the&#10;RunInfo.xml. Must be a single integer value.&#10;">
<polygon fill="#94ddf4" stroke="black" points="2152.5,-1114.53 2152.5,-1151.53 2375.5,-1151.53 2375.5,-1114.53 2152.5,-1114.53"/>
<text text-anchor="middle" x="2264" y="-1129.33" font-family="Times,serif" font-size="14.00">bcl_only_lane_bcl_conversion</text>
</a>
</g>
</g>
<!-- bcl_only_lane_bcl_conversion&#45;&gt;bcl_convert_step -->
<g id="edge16" class="edge">
<title>bcl_only_lane_bcl_conversion&#45;&gt;bcl_convert_step</title>
<path fill="none" stroke="black" d="M2249.9,-1114.37C2182.53,-1029.97 1893.3,-667.67 1813.48,-567.68"/>
<polygon fill="black" stroke="black" points="1816.02,-565.25 1807.04,-559.62 1810.54,-569.62 1816.02,-565.25"/>
</g>
<!-- bcl_sampleproject_subdirectories_bcl_conversion -->
<g id="node3" class="node">
<title>bcl_sampleproject_subdirectories_bcl_conversion</title>
<g id="a_node3"><a xlink:title="true — Allows creation of Sample_Project subdirectories&#10;as specified in the sample sheet. This option must be set to true for&#10;the Sample_Project column in the data section to be used.&#10;">
<polygon fill="#94ddf4" stroke="black" points="16.5,-1114.53 16.5,-1151.53 383.5,-1151.53 383.5,-1114.53 16.5,-1114.53"/>
<text text-anchor="middle" x="200" y="-1129.33" font-family="Times,serif" font-size="14.00">bcl_sampleproject_subdirectories_bcl_conversion</text>
</a>
</g>
</g>
<!-- bcl_sampleproject_subdirectories_bcl_conversion&#45;&gt;bcl_convert_step -->
<g id="edge17" class="edge">
<title>bcl_sampleproject_subdirectories_bcl_conversion&#45;&gt;bcl_convert_step</title>
<path fill="none" stroke="black" d="M247.68,-1114.37C479.1,-1028.66 1484.42,-656.32 1735.84,-563.2"/>
<polygon fill="black" stroke="black" points="1737.35,-566.37 1745.51,-559.62 1734.92,-559.81 1737.35,-566.37"/>
</g>
<!-- delete_undetermined_indices_bcl_conversion -->
<g id="node4" class="node">
<title>delete_undetermined_indices_bcl_conversion</title>
<g id="a_node4"><a xlink:title="Delete undetermined indices on completion of the run&#10;">
<polygon fill="#94ddf4" stroke="black" points="1325.5,-1114.53 1325.5,-1151.53 1662.5,-1151.53 1662.5,-1114.53 1325.5,-1114.53"/>
<text text-anchor="middle" x="1494" y="-1129.33" font-family="Times,serif" font-size="14.00">delete_undetermined_indices_bcl_conversion</text>
</a>
</g>
</g>
<!-- delete_undetermined_indices_bcl_conversion&#45;&gt;bcl_convert_step -->
<g id="edge18" class="edge">
<title>delete_undetermined_indices_bcl_conversion&#45;&gt;bcl_convert_step</title>
<path fill="none" stroke="black" d="M1504.96,-1114.4C1537.75,-1061.29 1637.08,-897.69 1706,-755.03 1737.48,-689.87 1767.97,-610.27 1783.11,-569.3"/>
<polygon fill="black" stroke="black" points="1786.46,-570.34 1786.62,-559.74 1779.88,-567.92 1786.46,-570.34"/>
</g>
<!-- first_tile_only_bcl_conversion -->
<g id="node5" class="node">
<title>first_tile_only_bcl_conversion</title>
<g id="a_node5"><a xlink:title="true — Only process the first tile of the first swath of the&#10; &#160;top surface of each lane specified in the sample sheet.&#10;false — Process all tiles in each lane, as specified in the sample&#10; &#160;sheet.&#10;">
<polygon fill="#94ddf4" stroke="black" points="1681,-1114.53 1681,-1151.53 1905,-1151.53 1905,-1114.53 1681,-1114.53"/>
<text text-anchor="middle" x="1793" y="-1129.33" font-family="Times,serif" font-size="14.00">first_tile_only_bcl_conversion</text>
</a>
</g>
</g>
<!-- first_tile_only_bcl_conversion&#45;&gt;bcl_convert_step -->
<g id="edge19" class="edge">
<title>first_tile_only_bcl_conversion&#45;&gt;bcl_convert_step</title>
<path fill="none" stroke="black" d="M1793,-1114.37C1793,-1030.57 1793,-672.76 1793,-569.83"/>
<polygon fill="black" stroke="black" points="1796.5,-569.62 1793,-559.62 1789.5,-569.62 1796.5,-569.62"/>
</g>
<!-- strict_mode_bcl_conversion -->
<g id="node6" class="node">
<title>strict_mode_bcl_conversion</title>
<g id="a_node6"><a xlink:title="true — Abort the program if any filter, locs, bcl, or bci lane&#10;files are missing or corrupt.&#10;false — Continue processing if any filter, locs, bcl, or bci lane files&#10;are missing. Return a warning message for each missing or corrupt&#10;file.&#10;">
<polygon fill="#94ddf4" stroke="black" points="1923,-1114.53 1923,-1151.53 2135,-1151.53 2135,-1114.53 1923,-1114.53"/>
<text text-anchor="middle" x="2029" y="-1129.33" font-family="Times,serif" font-size="14.00">strict_mode_bcl_conversion</text>
</a>
</g>
</g>
<!-- strict_mode_bcl_conversion&#45;&gt;bcl_convert_step -->
<g id="edge20" class="edge">
<title>strict_mode_bcl_conversion&#45;&gt;bcl_convert_step</title>
<path fill="none" stroke="black" d="M2021.94,-1114.37C1988.35,-1030.4 1844.71,-671.31 1803.87,-569.21"/>
<polygon fill="black" stroke="black" points="1807,-567.6 1800.04,-559.62 1800.5,-570.2 1807,-567.6"/>
</g>
<!-- runfolder_name -->
<g id="node7" class="node">
<title>runfolder_name</title>
<g id="a_node7"><a xlink:title="Required &#45; used in naming run specific folder, reports and headings&#10;">
<polygon fill="#94ddf4" stroke="black" points="2566.5,-1114.53 2566.5,-1151.53 2695.5,-1151.53 2695.5,-1114.53 2566.5,-1114.53"/>
<text text-anchor="middle" x="2631" y="-1129.33" font-family="Times,serif" font-size="14.00">runfolder_name</text>
</a>
</g>
</g>
<!-- bclconvert_qc_step -->
<g id="node22" class="node">
<title>bclconvert_qc_step</title>
<g id="a_node22"><a xlink:href="https://github.com/umccr/cwl-ica/blob/main/.github/catalogue/docs/tools/multiqc/1.11.0/multiqc__1.11.0.md" xlink:title="The bclconvert qc step &#45; from scatter this takes in an array of dirs&#10;">
<polygon fill="lightgoldenrodyellow" stroke="black" points="2422.5,-328.53 2422.5,-365.53 2561.5,-365.53 2561.5,-328.53 2422.5,-328.53"/>
<text text-anchor="middle" x="2492" y="-343.33" font-family="Times,serif" font-size="14.00">multiqc v(1.11.0)</text>
</a>
</g>
</g>
<!-- runfolder_name&#45;&gt;bclconvert_qc_step -->
<g id="edge21" class="edge">
<title>runfolder_name&#45;&gt;bclconvert_qc_step</title>
<path fill="none" stroke="black" d="M2606.43,-1114.04C2576.22,-1082.58 2530.22,-1014.65 2511,-949.03 2448.51,-735.71 2464.3,-462.13 2481.76,-375.56"/>
<polygon fill="black" stroke="black" points="2485.19,-376.25 2483.95,-365.72 2478.36,-374.73 2485.19,-376.25"/>
</g>
<!-- runfolder_name&#45;&gt;bclconvert_qc_step -->
<g id="edge22" class="edge">
<title>runfolder_name&#45;&gt;bclconvert_qc_step</title>
<path fill="none" stroke="black" d="M2617.3,-1114.04C2594.22,-1082.58 2548.22,-1014.65 2529,-949.03 2466.57,-735.93 2482.27,-462.69 2489.42,-375.83"/>
<polygon fill="black" stroke="black" points="2492.92,-375.99 2490.29,-365.72 2485.95,-375.39 2492.92,-375.99"/>
</g>
<!-- runfolder_name&#45;&gt;bclconvert_qc_step -->
<g id="edge23" class="edge">
<title>runfolder_name&#45;&gt;bclconvert_qc_step</title>
<path fill="none" stroke="black" d="M2628.17,-1114.04C2612.22,-1082.58 2566.22,-1014.65 2547,-949.03 2484.57,-735.93 2500.27,-462.69 2497.14,-375.83"/>
<polygon fill="black" stroke="black" points="2500.63,-375.53 2496.63,-365.72 2493.64,-375.89 2500.63,-375.53"/>
</g>
<!-- runfolder_name&#45;&gt;interop_qc_step -->
<g id="edge24" class="edge">
<title>runfolder_name&#45;&gt;interop_qc_step</title>
<path fill="none" stroke="black" d="M2622.91,-1114.19C2616.26,-1079.01 2615.74,-1000.48 2621.36,-958.59"/>
<polygon fill="black" stroke="black" points="2624.85,-958.97 2622.97,-948.54 2617.93,-957.86 2624.85,-958.97"/>
</g>
<!-- runfolder_name&#45;&gt;interop_qc_step -->
<g id="edge25" class="edge">
<title>runfolder_name&#45;&gt;interop_qc_step</title>
<path fill="none" stroke="black" d="M2631,-1114.19C2631,-1079.01 2631,-1000.48 2631,-958.59"/>
<polygon fill="black" stroke="black" points="2634.5,-958.54 2631,-948.54 2627.5,-958.54 2634.5,-958.54"/>
</g>
<!-- runfolder_name&#45;&gt;interop_qc_step -->
<g id="edge26" class="edge">
<title>runfolder_name&#45;&gt;interop_qc_step</title>
<path fill="none" stroke="black" d="M2639.09,-1114.19C2645.74,-1079.01 2646.26,-1000.48 2640.64,-958.59"/>
<polygon fill="black" stroke="black" points="2644.07,-957.86 2639.03,-948.54 2637.15,-958.97 2644.07,-957.86"/>
</g>
<!-- ignore_missing_samples -->
<g id="node8" class="node">
<title>ignore_missing_samples</title>
<g id="a_node8"><a xlink:title="Remove the samples not present in the override cycles record&#10;">
<polygon fill="#94ddf4" stroke="black" points="577,-1114.53 577,-1151.53 767,-1151.53 767,-1114.53 577,-1114.53"/>
<text text-anchor="middle" x="672" y="-1129.33" font-family="Times,serif" font-size="14.00">ignore_missing_samples</text>
</a>
</g>
</g>
<!-- samplesheet_split_by_settings_step -->
<g id="node19" class="node">
<title>samplesheet_split_by_settings_step</title>
<g id="a_node19"><a xlink:href="https://github.com/umccr/cwl-ica/blob/main/.github/catalogue/docs/tools/custom-samplesheet-split-by-settings/1.0.0/custom-samplesheet-split-by-settings__1.0.0.md" xlink:title="Samplesheet is split by the different input types.&#10;These are generally a difference in override cycles parameters or adapter trimming settings&#10;This then scatters multiple bclconvert workflows split by sample id&#10;">
<polygon fill="lightgoldenrodyellow" stroke="black" points="1083,-911.53 1083,-948.53 1425,-948.53 1425,-911.53 1083,-911.53"/>
<text text-anchor="middle" x="1254" y="-926.33" font-family="Times,serif" font-size="14.00">custom&#45;samplesheet&#45;split&#45;by&#45;settings v(1.0.0)</text>
</a>
</g>
</g>
<!-- ignore_missing_samples&#45;&gt;samplesheet_split_by_settings_step -->
<g id="edge27" class="edge">
<title>ignore_missing_samples&#45;&gt;samplesheet_split_by_settings_step</title>
<path fill="none" stroke="black" d="M706.64,-1114.3C726.63,-1104.42 752.4,-1092.29 776,-1083.03 916.14,-1028.01 1084.99,-977.98 1179.87,-951.3"/>
<polygon fill="black" stroke="black" points="1180.98,-954.62 1189.66,-948.55 1179.09,-947.88 1180.98,-954.62"/>
</g>
<!-- samplesheet_outdir -->
<g id="node9" class="node">
<title>samplesheet_outdir</title>
<g id="a_node9"><a xlink:title="Output directory of the samplesheets split by settings&#10;">
<polygon fill="#94ddf4" stroke="black" points="401.5,-1114.53 401.5,-1151.53 558.5,-1151.53 558.5,-1114.53 401.5,-1114.53"/>
<text text-anchor="middle" x="480" y="-1129.33" font-family="Times,serif" font-size="14.00">samplesheet_outdir</text>
</a>
</g>
</g>
<!-- samplesheet_outdir&#45;&gt;samplesheet_split_by_settings_step -->
<g id="edge28" class="edge">
<title>samplesheet_outdir&#45;&gt;samplesheet_split_by_settings_step</title>
<path fill="none" stroke="black" d="M506.75,-1114.45C523.7,-1104 546.42,-1091.23 568,-1083.03 749.94,-1013.91 971.55,-971.91 1112.71,-950.07"/>
<polygon fill="black" stroke="black" points="1113.38,-953.5 1122.74,-948.53 1112.32,-946.59 1113.38,-953.5"/>
</g>
<!-- samplesheet -->
<g id="node10" class="node">
<title>samplesheet</title>
<g id="a_node10"><a xlink:title="The path to the full samplesheet&#10;">
<polygon fill="#94ddf4" stroke="black" points="1200.5,-1114.53 1200.5,-1151.53 1307.5,-1151.53 1307.5,-1114.53 1200.5,-1114.53"/>
<text text-anchor="middle" x="1254" y="-1129.33" font-family="Times,serif" font-size="14.00">samplesheet</text>
</a>
</g>
</g>
<!-- samplesheet&#45;&gt;samplesheet_split_by_settings_step -->
<g id="edge29" class="edge">
<title>samplesheet&#45;&gt;samplesheet_split_by_settings_step</title>
<path fill="none" stroke="black" d="M1254,-1114.19C1254,-1079.01 1254,-1000.48 1254,-958.59"/>
<polygon fill="black" stroke="black" points="1257.5,-958.54 1254,-948.54 1250.5,-958.54 1257.5,-958.54"/>
</g>
<!-- samplesheet_output_format -->
<g id="node11" class="node">
<title>samplesheet_output_format</title>
<g id="a_node11"><a xlink:title="Convert headers to v2 samplesheet format&#10;">
<polygon fill="#94ddf4" stroke="black" points="967.5,-1114.53 967.5,-1151.53 1182.5,-1151.53 1182.5,-1114.53 967.5,-1114.53"/>
<text text-anchor="middle" x="1075" y="-1129.33" font-family="Times,serif" font-size="14.00">samplesheet_output_format</text>
</a>
</g>
</g>
<!-- samplesheet_output_format&#45;&gt;samplesheet_split_by_settings_step -->
<g id="edge30" class="edge">
<title>samplesheet_output_format&#45;&gt;samplesheet_split_by_settings_step</title>
<path fill="none" stroke="black" d="M1090.89,-1114.19C1122.81,-1078.34 1194.83,-997.47 1231.55,-956.23"/>
<polygon fill="black" stroke="black" points="1234.37,-958.33 1238.41,-948.54 1229.14,-953.68 1234.37,-958.33"/>
</g>
<!-- settings_by_samples -->
<g id="node12" class="node">
<title>settings_by_samples</title>
<g id="a_node12"><a xlink:title="List of settings by samples&#10;">
<polygon fill="#94ddf4" stroke="black" points="785,-1114.53 785,-1151.53 949,-1151.53 949,-1114.53 785,-1114.53"/>
<text text-anchor="middle" x="867" y="-1129.33" font-family="Times,serif" font-size="14.00">settings_by_samples</text>
</a>
</g>
</g>
<!-- settings_by_samples&#45;&gt;samplesheet_split_by_settings_step -->
<g id="edge31" class="edge">
<title>settings_by_samples&#45;&gt;samplesheet_split_by_settings_step</title>
<path fill="none" stroke="black" d="M899.73,-1114.46C917.27,-1105.07 939.28,-1093.36 959,-1083.03 1047.95,-1036.43 1152.53,-982.82 1210.22,-953.35"/>
<polygon fill="black" stroke="black" points="1212.09,-956.33 1219.4,-948.66 1208.91,-950.09 1212.09,-956.33"/>
</g>
<!-- bclconvert_multiqc_out -->
<g id="node13" class="node">
<title>bclconvert_multiqc_out</title>
<g id="a_node13"><a xlink:title="multiqc directory output that contains bclconvert multiqc data&#10;">
<polygon fill="#94ddf4" stroke="black" points="1948,-133.53 1948,-170.53 2130,-170.53 2130,-133.53 1948,-133.53"/>
<text text-anchor="middle" x="2039" y="-148.33" font-family="Times,serif" font-size="14.00">bclconvert_multiqc_out</text>
</a>
</g>
</g>
<!-- fastq_directories -->
<g id="node14" class="node">
<title>fastq_directories</title>
<g id="a_node14"><a xlink:title="The outputs from the bclconvert&#45;step&#10;">
<polygon fill="#94ddf4" stroke="black" points="1651.5,-133.53 1651.5,-170.53 1788.5,-170.53 1788.5,-133.53 1651.5,-133.53"/>
<text text-anchor="middle" x="1720" y="-148.33" font-family="Times,serif" font-size="14.00">fastq_directories</text>
</a>
</g>
</g>
<!-- fastq_list_rows -->
<g id="node15" class="node">
<title>fastq_list_rows</title>
<g id="a_node15"><a xlink:title="Contains the fastq list row schema for each of the output fastq files&#10;">
<polygon fill="#94ddf4" stroke="black" points="1806.5,-133.53 1806.5,-170.53 1929.5,-170.53 1929.5,-133.53 1806.5,-133.53"/>
<text text-anchor="middle" x="1868" y="-148.33" font-family="Times,serif" font-size="14.00">fastq_list_rows</text>
</a>
</g>
</g>
<!-- interop_multiqc_out -->
<g id="node16" class="node">
<title>interop_multiqc_out</title>
<g id="a_node16"><a xlink:title="multiqc directory output that contains interop data&#10;">
<polygon fill="#94ddf4" stroke="black" points="2148.5,-133.53 2148.5,-170.53 2307.5,-170.53 2307.5,-133.53 2148.5,-133.53"/>
<text text-anchor="middle" x="2228" y="-148.33" font-family="Times,serif" font-size="14.00">interop_multiqc_out</text>
</a>
</g>
</g>
<!-- split_sheets -->
<g id="node17" class="node">
<title>split_sheets</title>
<g id="a_node17"><a xlink:title="List of samplesheets split by override cycles&#10;">
<polygon fill="#94ddf4" stroke="black" points="1532.5,-133.53 1532.5,-170.53 1633.5,-170.53 1633.5,-133.53 1532.5,-133.53"/>
<text text-anchor="middle" x="1583" y="-148.33" font-family="Times,serif" font-size="14.00">split_sheets</text>
</a>
</g>
</g>
<!-- split_sheets_dir -->
<g id="node18" class="node">
<title>split_sheets_dir</title>
<g id="a_node18"><a xlink:title="The directory containing the samplesheets used for each bcl convert&#10;">
<polygon fill="#94ddf4" stroke="black" points="1386,-133.53 1386,-170.53 1514,-170.53 1514,-133.53 1386,-133.53"/>
<text text-anchor="middle" x="1450" y="-148.33" font-family="Times,serif" font-size="14.00">split_sheets_dir</text>
</a>
</g>
</g>
<!-- samplesheet_split_by_settings_step&#45;&gt;split_sheets -->
<g id="edge3" class="edge">
<title>samplesheet_split_by_settings_step&#45;&gt;split_sheets</title>
<path fill="none" stroke="black" d="M1261.49,-911.36C1304.42,-810.09 1519.2,-303.51 1571.5,-180.14"/>
<polygon fill="black" stroke="black" points="1574.84,-181.24 1575.52,-170.67 1568.4,-178.51 1574.84,-181.24"/>
</g>
<!-- samplesheet_split_by_settings_step&#45;&gt;split_sheets_dir -->
<g id="edge4" class="edge">
<title>samplesheet_split_by_settings_step&#45;&gt;split_sheets_dir</title>
<path fill="none" stroke="black" d="M1250.73,-911.33C1237.77,-836.67 1195.01,-541.4 1286,-328.03 1313.83,-262.77 1377.26,-206.86 1416.58,-176.76"/>
<polygon fill="black" stroke="black" points="1418.69,-179.55 1424.58,-170.74 1414.48,-173.95 1418.69,-179.55"/>
</g>
<!-- samplesheet_split_by_settings_step&#45;&gt;bcl_convert_step -->
<g id="edge1" class="edge">
<title>samplesheet_split_by_settings_step&#45;&gt;bcl_convert_step</title>
<path fill="none" stroke="black" d="M1262.13,-911.24C1281.11,-871.43 1332.04,-774.2 1401,-717.03 1496.2,-638.1 1632.68,-587.97 1716.93,-562.46"/>
<polygon fill="black" stroke="black" points="1718.1,-565.76 1726.68,-559.55 1716.1,-559.06 1718.1,-565.76"/>
</g>
<!-- get_batch_dirs -->
<g id="node21" class="node">
<title>get_batch_dirs</title>
<g id="a_node21"><a xlink:href="https://github.com/umccr/cwl-ica/blob/main/.github/catalogue/docs/expressions/get-samplesheet-midfix-regex/1.0.0/get-samplesheet-midfix-regex__1.0.0.md" xlink:title="Get the directory names of each of the directories we wish to scatter over&#10;">
<polygon fill="#ee9a00" stroke="black" points="1409.5,-717.53 1409.5,-754.53 1696.5,-754.53 1696.5,-717.53 1409.5,-717.53"/>
<text text-anchor="middle" x="1553" y="-732.33" font-family="Times,serif" font-size="14.00">get&#45;samplesheet&#45;midfix&#45;regex v(1.0.0)</text>
</a>
</g>
</g>
<!-- samplesheet_split_by_settings_step&#45;&gt;get_batch_dirs -->
<g id="edge2" class="edge">
<title>samplesheet_split_by_settings_step&#45;&gt;get_batch_dirs</title>
<path fill="none" stroke="black" d="M1281.33,-911.48C1335.46,-876.72 1456.34,-799.1 1516.93,-760.19"/>
<polygon fill="black" stroke="black" points="1518.89,-763.09 1525.41,-754.74 1515.11,-757.2 1518.89,-763.09"/>
</g>
<!-- bcl_convert_step&#45;&gt;fastq_directories -->
<g id="edge7" class="edge">
<title>bcl_convert_step&#45;&gt;fastq_directories</title>
<path fill="none" stroke="black" d="M1783.86,-522.35C1768.49,-491.57 1737.96,-425.7 1726,-366.03 1712.88,-300.6 1715.27,-221.63 1717.83,-180.68"/>
<polygon fill="black" stroke="black" points="1721.32,-180.86 1718.51,-170.65 1714.34,-180.39 1721.32,-180.86"/>
</g>
<!-- bcl_convert_step&#45;&gt;bclconvert_qc_step -->
<g id="edge5" class="edge">
<title>bcl_convert_step&#45;&gt;bclconvert_qc_step</title>
<path fill="none" stroke="black" d="M1856.88,-522.48C1986.68,-486.83 2280.54,-406.11 2418.23,-368.29"/>
<polygon fill="black" stroke="black" points="2419.55,-371.56 2428.26,-365.54 2417.69,-364.81 2419.55,-371.56"/>
</g>
<!-- flatten_fastq_list_rows_array -->
<g id="node23" class="node">
<title>flatten_fastq_list_rows_array</title>
<g id="a_node23"><a xlink:href="https://github.com/umccr/cwl-ica/blob/main/.github/catalogue/docs/expressions/flatten-array-fastq-list/1.0.0/flatten-array-fastq-list__1.0.0.md" xlink:title="fastq list rows is an array and bcl convert is from a directory output.&#10;This scatters the arrays to a single array&#10;">
<polygon fill="#ee9a00" stroke="black" points="1734.5,-328.53 1734.5,-365.53 2025.5,-365.53 2025.5,-328.53 1734.5,-328.53"/>
<text text-anchor="middle" x="1880" y="-343.33" font-family="Times,serif" font-size="14.00">flatten&#45;array&#45;fastq&#45;list&#45;schema v(1.0.0)</text>
</a>
</g>
</g>
<!-- bcl_convert_step&#45;&gt;flatten_fastq_list_rows_array -->
<g id="edge6" class="edge">
<title>bcl_convert_step&#45;&gt;flatten_fastq_list_rows_array</title>
<path fill="none" stroke="black" d="M1801.03,-522.31C1816.34,-488.52 1849.79,-414.69 1867.86,-374.83"/>
<polygon fill="black" stroke="black" points="1871.05,-376.26 1871.99,-365.7 1864.68,-373.37 1871.05,-376.26"/>
</g>
<!-- get_batch_dirs&#45;&gt;bcl_convert_step -->
<g id="edge8" class="edge">
<title>get_batch_dirs&#45;&gt;bcl_convert_step</title>
<path fill="none" stroke="black" d="M1575.15,-717.22C1618.37,-682.46 1713.99,-605.56 1762.9,-566.23"/>
<polygon fill="black" stroke="black" points="1765.31,-568.79 1770.91,-559.8 1760.92,-563.34 1765.31,-568.79"/>
</g>
<!-- bclconvert_qc_step&#45;&gt;bclconvert_multiqc_out -->
<g id="edge9" class="edge">
<title>bclconvert_qc_step&#45;&gt;bclconvert_multiqc_out</title>
<path fill="none" stroke="black" d="M2450.6,-328.39C2367.27,-292.89 2179.6,-212.93 2089.35,-174.48"/>
<polygon fill="black" stroke="black" points="2090.71,-171.26 2080.14,-170.56 2087.97,-177.7 2090.71,-171.26"/>
</g>
<!-- flatten_fastq_list_rows_array&#45;&gt;fastq_list_rows -->
<g id="edge12" class="edge">
<title>flatten_fastq_list_rows_array&#45;&gt;fastq_list_rows</title>
<path fill="none" stroke="black" d="M1878.89,-328.22C1876.8,-294.54 1872.24,-221.29 1869.74,-180.99"/>
<polygon fill="black" stroke="black" points="1873.22,-180.56 1869.1,-170.8 1866.23,-180.99 1873.22,-180.56"/>
</g>
<!-- create_dummy_file_step -->
<g id="node24" class="node">
<title>create_dummy_file_step</title>
<g id="a_node24"><a xlink:href="https://github.com/umccr/cwl-ica/blob/main/.github/catalogue/docs/tools/custom-touch-file/1.0.0/custom-touch-file__1.0.0.md" xlink:title="Intermediate step for letting multiqc&#45;interop be placed in stream mode&#10;">
<polygon fill="lightgoldenrodyellow" stroke="black" points="2713.5,-1114.53 2713.5,-1151.53 2974.5,-1151.53 2974.5,-1114.53 2713.5,-1114.53"/>
<text text-anchor="middle" x="2844" y="-1129.33" font-family="Times,serif" font-size="14.00">custom&#45;create&#45;dummy&#45;file v(1.0.0)</text>
</a>
</g>
</g>
<!-- create_dummy_file_step&#45;&gt;bclconvert_qc_step -->
<g id="edge10" class="edge">
<title>create_dummy_file_step&#45;&gt;bclconvert_qc_step</title>
<path fill="none" stroke="black" d="M2835.99,-1114.18C2790,-1011.77 2559.8,-499.03 2504.13,-375.05"/>
<polygon fill="black" stroke="black" points="2507.29,-373.54 2500,-365.85 2500.9,-376.4 2507.29,-373.54"/>
</g>
<!-- create_dummy_file_step&#45;&gt;interop_qc_step -->
<g id="edge11" class="edge">
<title>create_dummy_file_step&#45;&gt;interop_qc_step</title>
<path fill="none" stroke="black" d="M2825.1,-1114.19C2786.87,-1078.12 2700.33,-996.45 2656.89,-955.46"/>
<polygon fill="black" stroke="black" points="2659.23,-952.86 2649.56,-948.54 2654.43,-957.95 2659.23,-952.86"/>
</g>
<!-- interop_qc_step&#45;&gt;interop_multiqc_out -->
<g id="edge13" class="edge">
<title>interop_qc_step&#45;&gt;interop_multiqc_out</title>
<path fill="none" stroke="black" d="M2634.79,-911.53C2650.41,-834.55 2703.04,-521.33 2571,-328.03 2512.21,-241.96 2397.81,-195.82 2317.33,-172.89"/>
<polygon fill="black" stroke="black" points="2318.27,-169.52 2307.69,-170.21 2316.39,-176.26 2318.27,-169.52"/>
</g>
<!-- \n -->
<g id="node26" class="node">
<title>\n</title>
<ellipse fill="none" stroke="black" cx="3020" cy="-1133.03" rx="27" ry="18"/>
</g>
</g>
</svg>
