<?xml version="1.0" encoding="UTF-8" standalone="no"?>
<!DOCTYPE svg PUBLIC "-//W3C//DTD SVG 1.1//EN"
 "http://www.w3.org/Graphics/SVG/1.1/DTD/svg11.dtd">
<!-- Generated by graphviz version 2.43.0 (0)
 -->
<!-- Title: G Pages: 1 -->
<svg width="3055pt" height="1233pt"
 viewBox="0.00 0.00 3055.00 1232.89" xmlns="http://www.w3.org/2000/svg" xmlns:xlink="http://www.w3.org/1999/xlink">
<g id="graph0" class="graph" transform="scale(1 1) rotate(0) translate(4 1228.89)">
<title>G</title>
<polygon fill="#eeeeee" stroke="transparent" points="-4,4 -4,-1228.89 3051,-1228.89 3051,4 -4,4"/>
<g id="clust1" class="cluster">
<title>cluster_inputs</title>
<polygon fill="#eeeeee" stroke="black" stroke-dasharray="5,2" points="8,-1001.47 8,-1203.87 2704,-1203.87 2704,-1001.47 8,-1001.47"/>
<text text-anchor="middle" x="2637.5" y="-1009.27" font-family="Times,serif" font-size="14.00">Workflow Inputs</text>
</g>
<g id="clust2" class="cluster">
<title>cluster_outputs</title>
<polygon fill="#eeeeee" stroke="black" stroke-dasharray="5,2" points="1516,-21.03 1516,-223.42 2453,-223.42 2453,-21.03 1516,-21.03"/>
<text text-anchor="middle" x="2380.5" y="-28.83" font-family="Times,serif" font-size="14.00">Workflow Outputs</text>
</g>
<!-- bcl_input_directory -->
<g id="node1" class="node">
<title>bcl_input_directory</title>
<g id="a_node1"><a xlink:title="Path to the bcl files&#10;">
<polygon fill="#94ddf4" stroke="black" points="2394,-1114.53 2394,-1151.53 2548,-1151.53 2548,-1114.53 2394,-1114.53"/>
<text text-anchor="middle" x="2471" y="-1129.33" font-family="Times,serif" font-size="14.00">bcl_input_directory</text>
</a>
</g>
</g>
<!-- bcl_convert_step -->
<g id="node20" class="node">
<title>bcl_convert_step</title>
<g id="a_node20"><a xlink:href="https://github.com/umccr/cwl-ica/blob/main/.github/catalogue/docs/tools/bclConvert/3.7.5/bclConvert__3.7.5.md" xlink:title="BCLConvert is then scattered across each of the samplesheets.&#10;">
<polygon fill="lightgoldenrodyellow" stroke="black" points="1470,-522.53 1470,-559.53 1624,-559.53 1624,-522.53 1470,-522.53"/>
<text text-anchor="middle" x="1547" y="-537.33" font-family="Times,serif" font-size="14.00">bclConvert v(3.7.5)</text>
</a>
</g>
</g>
<!-- bcl_input_directory&#45;&gt;bcl_convert_step -->
<g id="edge14" class="edge">
<title>bcl_input_directory&#45;&gt;bcl_convert_step</title>
<path fill="none" stroke="black" d="M2447.78,-1114.41C2369.22,-1055.14 2105.45,-858.75 1874,-717.03 1776.13,-657.1 1656.03,-595.79 1592.1,-564.07"/>
<polygon fill="black" stroke="black" points="1593.6,-560.91 1583.08,-559.61 1590.49,-567.18 1593.6,-560.91"/>
</g>
<!-- interop_qc_step -->
<g id="node25" class="node">
<title>interop_qc_step</title>
<g id="a_node25"><a xlink:href="https://github.com/umccr/cwl-ica/blob/main/.github/catalogue/docs/tools/multiqc-interop/1.2.1/multiqc-interop__1.2.1.md" xlink:title="Run the multiqc by first also generating the interop files for use&#10;">
<polygon fill="lightgoldenrodyellow" stroke="black" points="2538,-911.53 2538,-948.53 2724,-948.53 2724,-911.53 2538,-911.53"/>
<text text-anchor="middle" x="2631" y="-926.33" font-family="Times,serif" font-size="14.00">multiqc&#45;interop v(1.2.1)</text>
</a>
</g>
</g>
<!-- bcl_input_directory&#45;&gt;interop_qc_step -->
<g id="edge15" class="edge">
<title>bcl_input_directory&#45;&gt;interop_qc_step</title>
<path fill="none" stroke="black" d="M2485.2,-1114.19C2513.68,-1078.42 2577.85,-997.8 2610.73,-956.49"/>
<polygon fill="black" stroke="black" points="2613.57,-958.54 2617.06,-948.54 2608.1,-954.18 2613.57,-958.54"/>
</g>
<!-- bcl_only_lane_bcl_conversion -->
<g id="node2" class="node">
<title>bcl_only_lane_bcl_conversion</title>
<g id="a_node2"><a xlink:title="Convert only the specified lane number. The value must&#10;be less than or equal to the number of lanes specified in the&#10;RunInfo.xml. Must be a single integer value.&#10;">
<polygon fill="#94ddf4" stroke="black" points="15.5,-1114.53 15.5,-1151.53 238.5,-1151.53 238.5,-1114.53 15.5,-1114.53"/>
<text text-anchor="middle" x="127" y="-1129.33" font-family="Times,serif" font-size="14.00">bcl_only_lane_bcl_conversion</text>
</a>
</g>
</g>
<!-- bcl_only_lane_bcl_conversion&#45;&gt;bcl_convert_step -->
<g id="edge16" class="edge">
<title>bcl_only_lane_bcl_conversion&#45;&gt;bcl_convert_step</title>
<path fill="none" stroke="black" d="M169.5,-1114.37C375.58,-1028.74 1270.16,-657.05 1495.38,-563.48"/>
<polygon fill="black" stroke="black" points="1496.78,-566.69 1504.67,-559.62 1494.09,-560.22 1496.78,-566.69"/>
</g>
<!-- bcl_sampleproject_subdirectories_bcl_conversion -->
<g id="node3" class="node">
<title>bcl_sampleproject_subdirectories_bcl_conversion</title>
<g id="a_node3"><a xlink:title="true — Allows creation of Sample_Project subdirectories&#10;as specified in the sample sheet. This option must be set to true for&#10;the Sample_Project column in the data section to be used.&#10;">
<polygon fill="#94ddf4" stroke="black" points="729.5,-1114.53 729.5,-1151.53 1096.5,-1151.53 1096.5,-1114.53 729.5,-1114.53"/>
<text text-anchor="middle" x="913" y="-1129.33" font-family="Times,serif" font-size="14.00">bcl_sampleproject_subdirectories_bcl_conversion</text>
</a>
</g>
</g>
<!-- bcl_sampleproject_subdirectories_bcl_conversion&#45;&gt;bcl_convert_step -->
<g id="edge17" class="edge">
<title>bcl_sampleproject_subdirectories_bcl_conversion&#45;&gt;bcl_convert_step</title>
<path fill="none" stroke="black" d="M931.97,-1114.37C1023.03,-1029.63 1415.12,-664.76 1520.72,-566.49"/>
<polygon fill="black" stroke="black" points="1523.16,-568.99 1528.1,-559.62 1518.39,-563.87 1523.16,-568.99"/>
</g>
<!-- delete_undetermined_indices_bcl_conversion -->
<g id="node4" class="node">
<title>delete_undetermined_indices_bcl_conversion</title>
<g id="a_node4"><a xlink:title="Delete undetermined indices on completion of the run&#10;">
<polygon fill="#94ddf4" stroke="black" points="1114.5,-1114.53 1114.5,-1151.53 1451.5,-1151.53 1451.5,-1114.53 1114.5,-1114.53"/>
<text text-anchor="middle" x="1283" y="-1129.33" font-family="Times,serif" font-size="14.00">delete_undetermined_indices_bcl_conversion</text>
</a>
</g>
</g>
<!-- delete_undetermined_indices_bcl_conversion&#45;&gt;bcl_convert_step -->
<g id="edge18" class="edge">
<title>delete_undetermined_indices_bcl_conversion&#45;&gt;bcl_convert_step</title>
<path fill="none" stroke="black" d="M1290.9,-1114.37C1328.51,-1030.31 1489.48,-670.58 1534.98,-568.9"/>
<polygon fill="black" stroke="black" points="1538.24,-570.17 1539.13,-559.62 1531.85,-567.32 1538.24,-570.17"/>
</g>
<!-- first_tile_only_bcl_conversion -->
<g id="node5" class="node">
<title>first_tile_only_bcl_conversion</title>
<g id="a_node5"><a xlink:title="true — Only process the first tile of the first swath of the&#10; &#160;top surface of each lane specified in the sample sheet.&#10;false — Process all tiles in each lane, as specified in the sample&#10; &#160;sheet.&#10;">
<polygon fill="#94ddf4" stroke="black" points="257,-1114.53 257,-1151.53 481,-1151.53 481,-1114.53 257,-1114.53"/>
<text text-anchor="middle" x="369" y="-1129.33" font-family="Times,serif" font-size="14.00">first_tile_only_bcl_conversion</text>
</a>
</g>
</g>
<!-- first_tile_only_bcl_conversion&#45;&gt;bcl_convert_step -->
<g id="edge19" class="edge">
<title>first_tile_only_bcl_conversion&#45;&gt;bcl_convert_step</title>
<path fill="none" stroke="black" d="M404.26,-1114.37C574.79,-1028.96 1313.67,-658.89 1502.78,-564.18"/>
<polygon fill="black" stroke="black" points="1504.51,-567.22 1511.88,-559.62 1501.37,-560.97 1504.51,-567.22"/>
</g>
<!-- strict_mode_bcl_conversion -->
<g id="node6" class="node">
<title>strict_mode_bcl_conversion</title>
<g id="a_node6"><a xlink:title="true — Abort the program if any filter, locs, bcl, or bci lane&#10;files are missing or corrupt.&#10;false — Continue processing if any filter, locs, bcl, or bci lane files&#10;are missing. Return a warning message for each missing or corrupt&#10;file.&#10;">
<polygon fill="#94ddf4" stroke="black" points="499,-1114.53 499,-1151.53 711,-1151.53 711,-1114.53 499,-1114.53"/>
<text text-anchor="middle" x="605" y="-1129.33" font-family="Times,serif" font-size="14.00">strict_mode_bcl_conversion</text>
</a>
</g>
</g>
<!-- strict_mode_bcl_conversion&#45;&gt;bcl_convert_step -->
<g id="edge20" class="edge">
<title>strict_mode_bcl_conversion&#45;&gt;bcl_convert_step</title>
<path fill="none" stroke="black" d="M633.19,-1114.37C769.16,-1029.21 1356.9,-661.1 1510.28,-565.03"/>
<polygon fill="black" stroke="black" points="1512.3,-567.89 1518.92,-559.62 1508.58,-561.96 1512.3,-567.89"/>
</g>
<!-- runfolder_name -->
<g id="node7" class="node">
<title>runfolder_name</title>
<g id="a_node7"><a xlink:title="Required &#45; used in naming run specific folder, reports and headings&#10;">
<polygon fill="#94ddf4" stroke="black" points="2566.5,-1114.53 2566.5,-1151.53 2695.5,-1151.53 2695.5,-1114.53 2566.5,-1114.53"/>
<text text-anchor="middle" x="2631" y="-1129.33" font-family="Times,serif" font-size="14.00">runfolder_name</text>
</a>
</g>
</g>
<!-- bclconvert_qc_step -->
<g id="node21" class="node">
<title>bclconvert_qc_step</title>
<g id="a_node21"><a xlink:href="https://github.com/umccr/cwl-ica/blob/main/.github/catalogue/docs/tools/multiqc/1.11.0/multiqc__1.11.0.md" xlink:title="The bclconvert qc step &#45; from scatter this takes in an array of dirs&#10;">
<polygon fill="lightgoldenrodyellow" stroke="black" points="2422.5,-328.53 2422.5,-365.53 2561.5,-365.53 2561.5,-328.53 2422.5,-328.53"/>
<text text-anchor="middle" x="2492" y="-343.33" font-family="Times,serif" font-size="14.00">multiqc v(1.11.0)</text>
</a>
</g>
</g>
<!-- runfolder_name&#45;&gt;bclconvert_qc_step -->
<g id="edge21" class="edge">
<title>runfolder_name&#45;&gt;bclconvert_qc_step</title>
<path fill="none" stroke="black" d="M2606.43,-1114.04C2576.22,-1082.58 2530.22,-1014.65 2511,-949.03 2448.51,-735.71 2464.3,-462.13 2481.76,-375.56"/>
<polygon fill="black" stroke="black" points="2485.19,-376.25 2483.95,-365.72 2478.36,-374.73 2485.19,-376.25"/>
</g>
<!-- runfolder_name&#45;&gt;bclconvert_qc_step -->
<g id="edge22" class="edge">
<title>runfolder_name&#45;&gt;bclconvert_qc_step</title>
<path fill="none" stroke="black" d="M2617.3,-1114.04C2594.22,-1082.58 2548.22,-1014.65 2529,-949.03 2466.57,-735.93 2482.27,-462.69 2489.42,-375.83"/>
<polygon fill="black" stroke="black" points="2492.92,-375.99 2490.29,-365.72 2485.95,-375.39 2492.92,-375.99"/>
</g>
<!-- runfolder_name&#45;&gt;bclconvert_qc_step -->
<g id="edge23" class="edge">
<title>runfolder_name&#45;&gt;bclconvert_qc_step</title>
<path fill="none" stroke="black" d="M2628.17,-1114.04C2612.22,-1082.58 2566.22,-1014.65 2547,-949.03 2484.57,-735.93 2500.27,-462.69 2497.14,-375.83"/>
<polygon fill="black" stroke="black" points="2500.63,-375.53 2496.63,-365.72 2493.64,-375.89 2500.63,-375.53"/>
</g>
<!-- runfolder_name&#45;&gt;interop_qc_step -->
<g id="edge24" class="edge">
<title>runfolder_name&#45;&gt;interop_qc_step</title>
<path fill="none" stroke="black" d="M2622.91,-1114.19C2616.26,-1079.01 2615.74,-1000.48 2621.36,-958.59"/>
<polygon fill="black" stroke="black" points="2624.85,-958.97 2622.97,-948.54 2617.93,-957.86 2624.85,-958.97"/>
</g>
<!-- runfolder_name&#45;&gt;interop_qc_step -->
<g id="edge25" class="edge">
<title>runfolder_name&#45;&gt;interop_qc_step</title>
<path fill="none" stroke="black" d="M2631,-1114.19C2631,-1079.01 2631,-1000.48 2631,-958.59"/>
<polygon fill="black" stroke="black" points="2634.5,-958.54 2631,-948.54 2627.5,-958.54 2634.5,-958.54"/>
</g>
<!-- runfolder_name&#45;&gt;interop_qc_step -->
<g id="edge26" class="edge">
<title>runfolder_name&#45;&gt;interop_qc_step</title>
<path fill="none" stroke="black" d="M2639.09,-1114.19C2645.74,-1079.01 2646.26,-1000.48 2640.64,-958.59"/>
<polygon fill="black" stroke="black" points="2644.07,-957.86 2639.03,-948.54 2637.15,-958.97 2644.07,-957.86"/>
</g>
<!-- ignore_missing_samples -->
<g id="node8" class="node">
<title>ignore_missing_samples</title>
<g id="a_node8"><a xlink:title="Remove the samples not present in the override cycles record&#10;">
<polygon fill="#94ddf4" stroke="black" points="1470,-1114.53 1470,-1151.53 1660,-1151.53 1660,-1114.53 1470,-1114.53"/>
<text text-anchor="middle" x="1565" y="-1129.33" font-family="Times,serif" font-size="14.00">ignore_missing_samples</text>
</a>
</g>
</g>
<!-- samplesheet_split_by_settings_step -->
<g id="node23" class="node">
<title>samplesheet_split_by_settings_step</title>
<g id="a_node23"><a xlink:href="https://github.com/umccr/cwl-ica/blob/main/.github/catalogue/docs/tools/custom-samplesheet-split-by-settings/1.0.0/custom-samplesheet-split-by-settings__1.0.0.md" xlink:title="Samplesheet is split by the different input types.&#10;These are generally a difference in override cycles parameters or adapter trimming settings&#10;This then scatters multiple bclconvert workflows split by sample id&#10;">
<polygon fill="lightgoldenrodyellow" stroke="black" points="1722,-911.53 1722,-948.53 2064,-948.53 2064,-911.53 1722,-911.53"/>
<text text-anchor="middle" x="1893" y="-926.33" font-family="Times,serif" font-size="14.00">custom&#45;samplesheet&#45;split&#45;by&#45;settings v(1.0.0)</text>
</a>
</g>
</g>
<!-- ignore_missing_samples&#45;&gt;samplesheet_split_by_settings_step -->
<g id="edge27" class="edge">
<title>ignore_missing_samples&#45;&gt;samplesheet_split_by_settings_step</title>
<path fill="none" stroke="black" d="M1593.82,-1114.37C1653.24,-1077.95 1789.34,-994.55 1855.5,-954.01"/>
<polygon fill="black" stroke="black" points="1857.66,-956.79 1864.36,-948.58 1854.01,-950.82 1857.66,-956.79"/>
</g>
<!-- samplesheet_outdir -->
<g id="node9" class="node">
<title>samplesheet_outdir</title>
<g id="a_node9"><a xlink:title="Output directory of the samplesheets split by settings&#10;">
<polygon fill="#94ddf4" stroke="black" points="2218.5,-1114.53 2218.5,-1151.53 2375.5,-1151.53 2375.5,-1114.53 2218.5,-1114.53"/>
<text text-anchor="middle" x="2297" y="-1129.33" font-family="Times,serif" font-size="14.00">samplesheet_outdir</text>
</a>
</g>
</g>
<!-- samplesheet_outdir&#45;&gt;samplesheet_split_by_settings_step -->
<g id="edge28" class="edge">
<title>samplesheet_outdir&#45;&gt;samplesheet_split_by_settings_step</title>
<path fill="none" stroke="black" d="M2267.07,-1114.53C2250.41,-1104.95 2229.22,-1093.03 2210,-1083.03 2116.02,-1034.1 2003.74,-981.64 1941.19,-952.93"/>
<polygon fill="black" stroke="black" points="1942.5,-949.69 1931.96,-948.7 1939.59,-956.05 1942.5,-949.69"/>
</g>
<!-- samplesheet -->
<g id="node10" class="node">
<title>samplesheet</title>
<g id="a_node10"><a xlink:title="The path to the full samplesheet&#10;">
<polygon fill="#94ddf4" stroke="black" points="2093.5,-1114.53 2093.5,-1151.53 2200.5,-1151.53 2200.5,-1114.53 2093.5,-1114.53"/>
<text text-anchor="middle" x="2147" y="-1129.33" font-family="Times,serif" font-size="14.00">samplesheet</text>
</a>
</g>
</g>
<!-- samplesheet&#45;&gt;samplesheet_split_by_settings_step -->
<g id="edge29" class="edge">
<title>samplesheet&#45;&gt;samplesheet_split_by_settings_step</title>
<path fill="none" stroke="black" d="M2124.46,-1114.19C2078.69,-1077.97 1974.82,-995.78 1923.24,-954.96"/>
<polygon fill="black" stroke="black" points="1925.14,-952 1915.13,-948.54 1920.8,-957.49 1925.14,-952"/>
</g>
<!-- samplesheet_output_format -->
<g id="node11" class="node">
<title>samplesheet_output_format</title>
<g id="a_node11"><a xlink:title="Convert headers to v2 samplesheet format&#10;">
<polygon fill="#94ddf4" stroke="black" points="1860.5,-1114.53 1860.5,-1151.53 2075.5,-1151.53 2075.5,-1114.53 1860.5,-1114.53"/>
<text text-anchor="middle" x="1968" y="-1129.33" font-family="Times,serif" font-size="14.00">samplesheet_output_format</text>
</a>
</g>
</g>
<!-- samplesheet_output_format&#45;&gt;samplesheet_split_by_settings_step -->
<g id="edge30" class="edge">
<title>samplesheet_output_format&#45;&gt;samplesheet_split_by_settings_step</title>
<path fill="none" stroke="black" d="M1961.34,-1114.19C1948.16,-1078.86 1918.67,-999.82 1903.09,-958.06"/>
<polygon fill="black" stroke="black" points="1906.31,-956.68 1899.53,-948.54 1899.75,-959.13 1906.31,-956.68"/>
</g>
<!-- settings_by_samples -->
<g id="node12" class="node">
<title>settings_by_samples</title>
<g id="a_node12"><a xlink:title="List of settings by samples&#10;">
<polygon fill="#94ddf4" stroke="black" points="1678,-1114.53 1678,-1151.53 1842,-1151.53 1842,-1114.53 1678,-1114.53"/>
<text text-anchor="middle" x="1760" y="-1129.33" font-family="Times,serif" font-size="14.00">settings_by_samples</text>
</a>
</g>
</g>
<!-- settings_by_samples&#45;&gt;samplesheet_split_by_settings_step -->
<g id="edge31" class="edge">
<title>settings_by_samples&#45;&gt;samplesheet_split_by_settings_step</title>
<path fill="none" stroke="black" d="M1771.8,-1114.19C1795.38,-1078.57 1848.37,-998.48 1875.81,-957.01"/>
<polygon fill="black" stroke="black" points="1878.81,-958.81 1881.41,-948.54 1872.98,-954.95 1878.81,-958.81"/>
</g>
<!-- bclconvert_multiqc_out -->
<g id="node13" class="node">
<title>bclconvert_multiqc_out</title>
<g id="a_node13"><a xlink:title="multiqc directory output that contains bclconvert multiqc data&#10;">
<polygon fill="#94ddf4" stroke="black" points="2086,-133.53 2086,-170.53 2268,-170.53 2268,-133.53 2086,-133.53"/>
<text text-anchor="middle" x="2177" y="-148.33" font-family="Times,serif" font-size="14.00">bclconvert_multiqc_out</text>
</a>
</g>
</g>
<!-- fastq_directories -->
<g id="node14" class="node">
<title>fastq_directories</title>
<g id="a_node14"><a xlink:title="The outputs from the bclconvert&#45;step&#10;">
<polygon fill="#94ddf4" stroke="black" points="1524.5,-133.53 1524.5,-170.53 1661.5,-170.53 1661.5,-133.53 1524.5,-133.53"/>
<text text-anchor="middle" x="1593" y="-148.33" font-family="Times,serif" font-size="14.00">fastq_directories</text>
</a>
</g>
</g>
<!-- fastq_list_rows -->
<g id="node15" class="node">
<title>fastq_list_rows</title>
<g id="a_node15"><a xlink:title="Contains the fastq list row schema for each of the output fastq files&#10;">
<polygon fill="#94ddf4" stroke="black" points="1679.5,-133.53 1679.5,-170.53 1802.5,-170.53 1802.5,-133.53 1679.5,-133.53"/>
<text text-anchor="middle" x="1741" y="-148.33" font-family="Times,serif" font-size="14.00">fastq_list_rows</text>
</a>
</g>
</g>
<!-- interop_multiqc_out -->
<g id="node16" class="node">
<title>interop_multiqc_out</title>
<g id="a_node16"><a xlink:title="multiqc directory output that contains interop data&#10;">
<polygon fill="#94ddf4" stroke="black" points="2286.5,-133.53 2286.5,-170.53 2445.5,-170.53 2445.5,-133.53 2286.5,-133.53"/>
<text text-anchor="middle" x="2366" y="-148.33" font-family="Times,serif" font-size="14.00">interop_multiqc_out</text>
</a>
</g>
</g>
<!-- split_sheets -->
<g id="node17" class="node">
<title>split_sheets</title>
<g id="a_node17"><a xlink:title="List of samplesheets split by override cycles&#10;">
<polygon fill="#94ddf4" stroke="black" points="1820.5,-133.53 1820.5,-170.53 1921.5,-170.53 1921.5,-133.53 1820.5,-133.53"/>
<text text-anchor="middle" x="1871" y="-148.33" font-family="Times,serif" font-size="14.00">split_sheets</text>
</a>
</g>
</g>
<!-- split_sheets_dir -->
<g id="node18" class="node">
<title>split_sheets_dir</title>
<g id="a_node18"><a xlink:title="The directory containing the samplesheets used for each bcl convert&#10;">
<polygon fill="#94ddf4" stroke="black" points="1940,-133.53 1940,-170.53 2068,-170.53 2068,-133.53 1940,-133.53"/>
<text text-anchor="middle" x="2004" y="-148.33" font-family="Times,serif" font-size="14.00">split_sheets_dir</text>
</a>
</g>
</g>
<!-- get_batch_dirs -->
<g id="node19" class="node">
<title>get_batch_dirs</title>
<g id="a_node19"><a xlink:href="https://github.com/umccr/cwl-ica/blob/main/.github/catalogue/docs/expressions/get-samplesheet-midfix-regex/1.0.0/get-samplesheet-midfix-regex__1.0.0.md" xlink:title="Get the directory names of each of the directories we wish to scatter over&#10;">
<polygon fill="#ee9a00" stroke="black" points="1577.5,-717.53 1577.5,-754.53 1864.5,-754.53 1864.5,-717.53 1577.5,-717.53"/>
<text text-anchor="middle" x="1721" y="-732.33" font-family="Times,serif" font-size="14.00">get&#45;samplesheet&#45;midfix&#45;regex v(1.0.0)</text>
</a>
</g>
</g>
<!-- get_batch_dirs&#45;&gt;bcl_convert_step -->
<g id="edge1" class="edge">
<title>get_batch_dirs&#45;&gt;bcl_convert_step</title>
<path fill="none" stroke="black" d="M1704.94,-717.22C1673.93,-682.82 1605.71,-607.15 1569.93,-567.46"/>
<polygon fill="black" stroke="black" points="1572.31,-564.88 1563.02,-559.8 1567.12,-569.57 1572.31,-564.88"/>
</g>
<!-- bcl_convert_step&#45;&gt;fastq_directories -->
<g id="edge4" class="edge">
<title>bcl_convert_step&#45;&gt;fastq_directories</title>
<path fill="none" stroke="black" d="M1548.2,-522.4C1550.76,-486 1557.24,-399.92 1566,-328.03 1572.34,-275.99 1582.22,-215.62 1588.1,-181.11"/>
<polygon fill="black" stroke="black" points="1591.62,-181.31 1589.86,-170.86 1584.72,-180.13 1591.62,-181.31"/>
</g>
<!-- bcl_convert_step&#45;&gt;bclconvert_qc_step -->
<g id="edge2" class="edge">
<title>bcl_convert_step&#45;&gt;bclconvert_qc_step</title>
<path fill="none" stroke="black" d="M1624.33,-524.32C1801.17,-488.39 2233.57,-400.54 2412.49,-364.18"/>
<polygon fill="black" stroke="black" points="2413.25,-367.6 2422.36,-362.18 2411.86,-360.74 2413.25,-367.6"/>
</g>
<!-- flatten_fastq_list_rows_array -->
<g id="node22" class="node">
<title>flatten_fastq_list_rows_array</title>
<g id="a_node22"><a xlink:href="https://github.com/umccr/cwl-ica/blob/main/.github/catalogue/docs/expressions/flatten-array-fastq-list/1.0.0/flatten-array-fastq-list__1.0.0.md" xlink:title="fastq list rows is an array and bcl convert is from a directory output.&#10;This scatters the arrays to a single array&#10;">
<polygon fill="#ee9a00" stroke="black" points="1574.5,-328.53 1574.5,-365.53 1865.5,-365.53 1865.5,-328.53 1574.5,-328.53"/>
<text text-anchor="middle" x="1720" y="-343.33" font-family="Times,serif" font-size="14.00">flatten&#45;array&#45;fastq&#45;list&#45;schema v(1.0.0)</text>
</a>
</g>
</g>
<!-- bcl_convert_step&#45;&gt;flatten_fastq_list_rows_array -->
<g id="edge3" class="edge">
<title>bcl_convert_step&#45;&gt;flatten_fastq_list_rows_array</title>
<path fill="none" stroke="black" d="M1562.97,-522.31C1593.73,-488.16 1661.34,-413.13 1696.98,-373.58"/>
<polygon fill="black" stroke="black" points="1699.98,-375.48 1704.07,-365.7 1694.78,-370.79 1699.98,-375.48"/>
</g>
<!-- bclconvert_qc_step&#45;&gt;bclconvert_multiqc_out -->
<g id="edge9" class="edge">
<title>bclconvert_qc_step&#45;&gt;bclconvert_multiqc_out</title>
<path fill="none" stroke="black" d="M2463.21,-328.39C2406.03,-293.36 2278.19,-215.03 2214.52,-176.02"/>
<polygon fill="black" stroke="black" points="2215.96,-172.8 2205.61,-170.56 2212.31,-178.77 2215.96,-172.8"/>
</g>
<!-- flatten_fastq_list_rows_array&#45;&gt;fastq_list_rows -->
<g id="edge12" class="edge">
<title>flatten_fastq_list_rows_array&#45;&gt;fastq_list_rows</title>
<path fill="none" stroke="black" d="M1721.94,-328.22C1725.6,-294.54 1733.57,-221.29 1737.96,-180.99"/>
<polygon fill="black" stroke="black" points="1741.46,-181.12 1739.07,-170.8 1734.51,-180.36 1741.46,-181.12"/>
</g>
<!-- samplesheet_split_by_settings_step&#45;&gt;split_sheets -->
<g id="edge7" class="edge">
<title>samplesheet_split_by_settings_step&#45;&gt;split_sheets</title>
<path fill="none" stroke="black" d="M1892.5,-911.36C1889.63,-810.3 1875.32,-305.54 1871.79,-180.89"/>
<polygon fill="black" stroke="black" points="1875.28,-180.56 1871.5,-170.67 1868.28,-180.76 1875.28,-180.56"/>
</g>
<!-- samplesheet_split_by_settings_step&#45;&gt;split_sheets_dir -->
<g id="edge8" class="edge">
<title>samplesheet_split_by_settings_step&#45;&gt;split_sheets_dir</title>
<path fill="none" stroke="black" d="M1895.53,-911.36C1909.98,-810.3 1982.18,-305.54 2000.01,-180.89"/>
<polygon fill="black" stroke="black" points="2003.53,-181.06 2001.48,-170.67 1996.6,-180.07 2003.53,-181.06"/>
</g>
<!-- samplesheet_split_by_settings_step&#45;&gt;get_batch_dirs -->
<g id="edge5" class="edge">
<title>samplesheet_split_by_settings_step&#45;&gt;get_batch_dirs</title>
<path fill="none" stroke="black" d="M1877.13,-911.31C1846.54,-877.16 1779.32,-802.13 1743.89,-762.58"/>
<polygon fill="black" stroke="black" points="1746.11,-759.82 1736.83,-754.7 1740.9,-764.49 1746.11,-759.82"/>
</g>
<!-- samplesheet_split_by_settings_step&#45;&gt;bcl_convert_step -->
<g id="edge6" class="edge">
<title>samplesheet_split_by_settings_step&#45;&gt;bcl_convert_step</title>
<path fill="none" stroke="black" d="M1820.13,-911.47C1743.87,-888.96 1627.3,-842.01 1569,-755.03 1530.94,-698.23 1536.21,-613.11 1542.2,-569.67"/>
<polygon fill="black" stroke="black" points="1545.69,-569.98 1543.71,-559.57 1538.77,-568.94 1545.69,-569.98"/>
</g>
<!-- create_dummy_file_step -->
<g id="node24" class="node">
<title>create_dummy_file_step</title>
<g id="a_node24"><a xlink:href="https://github.com/umccr/cwl-ica/blob/main/.github/catalogue/docs/tools/custom-touch-file/1.0.0/custom-touch-file__1.0.0.md" xlink:title="Intermediate step for letting multiqc&#45;interop be placed in stream mode&#10;">
<polygon fill="lightgoldenrodyellow" stroke="black" points="2713.5,-1114.53 2713.5,-1151.53 2974.5,-1151.53 2974.5,-1114.53 2713.5,-1114.53"/>
<text text-anchor="middle" x="2844" y="-1129.33" font-family="Times,serif" font-size="14.00">custom&#45;create&#45;dummy&#45;file v(1.0.0)</text>
</a>
</g>
</g>
<!-- create_dummy_file_step&#45;&gt;bclconvert_qc_step -->
<g id="edge10" class="edge">
<title>create_dummy_file_step&#45;&gt;bclconvert_qc_step</title>
<path fill="none" stroke="black" d="M2835.99,-1114.18C2790,-1011.77 2559.8,-499.03 2504.13,-375.05"/>
<polygon fill="black" stroke="black" points="2507.29,-373.54 2500,-365.85 2500.9,-376.4 2507.29,-373.54"/>
</g>
<!-- create_dummy_file_step&#45;&gt;interop_qc_step -->
<g id="edge11" class="edge">
<title>create_dummy_file_step&#45;&gt;interop_qc_step</title>
<path fill="none" stroke="black" d="M2825.1,-1114.19C2786.87,-1078.12 2700.33,-996.45 2656.89,-955.46"/>
<polygon fill="black" stroke="black" points="2659.23,-952.86 2649.56,-948.54 2654.43,-957.95 2659.23,-952.86"/>
</g>
<!-- interop_qc_step&#45;&gt;interop_multiqc_out -->
<g id="edge13" class="edge">
<title>interop_qc_step&#45;&gt;interop_multiqc_out</title>
<path fill="none" stroke="black" d="M2633.74,-911.47C2644.62,-836.14 2679.12,-534.78 2571,-328.03 2534.36,-257.96 2456.77,-204.14 2408.25,-175.65"/>
<polygon fill="black" stroke="black" points="2409.96,-172.6 2399.55,-170.63 2406.46,-178.66 2409.96,-172.6"/>
</g>
<!-- \n -->
<g id="node26" class="node">
<title>\n</title>
<ellipse fill="none" stroke="black" cx="3020" cy="-1133.03" rx="27" ry="18"/>
</g>
</g>
</svg>
