<?xml version="1.0" encoding="UTF-8" standalone="no"?>
<!DOCTYPE svg PUBLIC "-//W3C//DTD SVG 1.1//EN"
 "http://www.w3.org/Graphics/SVG/1.1/DTD/svg11.dtd">
<!-- Generated by graphviz version 2.40.1 (20161225.0304)
 -->
<!-- Title: G Pages: 1 -->
<svg width="3024pt" height="1220pt"
 viewBox="0.00 0.00 3023.50 1220.03" xmlns="http://www.w3.org/2000/svg" xmlns:xlink="http://www.w3.org/1999/xlink">
<g id="graph0" class="graph" transform="scale(1 1) rotate(0) translate(4 1216.03)">
<title>G</title>
<polygon fill="#eeeeee" stroke="transparent" points="-4,4 -4,-1216.03 3019.5,-1216.03 3019.5,4 -4,4"/>
<g id="clust1" class="cluster">
<title>cluster_inputs</title>
<polygon fill="#eeeeee" stroke="#000000" stroke-dasharray="5,2" points="8,-990.9516 8,-1191.2226 2742,-1191.2226 2742,-990.9516 8,-990.9516"/>
<text text-anchor="middle" x="2674" y="-998.7516" font-family="Times,serif" font-size="14.00" fill="#000000">Workflow Inputs</text>
</g>
<g id="clust2" class="cluster">
<title>cluster_outputs</title>
<polygon fill="#eeeeee" stroke="#000000" stroke-dasharray="5,2" points="1123,-20.8074 1123,-221.0784 2073,-221.0784 2073,-20.8074 1123,-20.8074"/>
<text text-anchor="middle" x="1999" y="-28.6074" font-family="Times,serif" font-size="14.00" fill="#000000">Workflow Outputs</text>
</g>
<!-- file:///tmp/tmpwahedo6z#settings_by_samples -->
<g id="node1" class="node">
<title>file:///tmp/tmpwahedo6z#settings_by_samples</title>
<g id="a_node1"><a xlink:title="List of settings by samples&#10;">
<polygon fill="#94ddf4" stroke="#000000" points="16.5,-1102.3074 16.5,-1139.3074 181.5,-1139.3074 181.5,-1102.3074 16.5,-1102.3074"/>
<text text-anchor="middle" x="99" y="-1117.1074" font-family="Times,serif" font-size="14.00" fill="#000000">settings_by_samples</text>
</a>
</g>
</g>
<!-- file:///tmp/tmpwahedo6z#samplesheet_split_by_settings_step -->
<g id="node19" class="node">
<title>file:///tmp/tmpwahedo6z#samplesheet_split_by_settings_step</title>
<g id="a_node19"><a xlink:href="https://github.com/umccr/cwl-ica/blob/main/.github/catalogue/docs/tools/custom-samplesheet-split-by-settings/1.0.0/custom-samplesheet-split-by-settings__1.0.0.md" xlink:title="Samplesheet is split by the different input types.&#10;These are generally a difference in override cycles parameters or adapter trimming settings&#10;This then scatters multiple bclconvert workflows split by sample id&#10;">
<polygon fill="#fafad2" stroke="#000000" points="647.5,-902.3074 647.5,-939.3074 990.5,-939.3074 990.5,-902.3074 647.5,-902.3074"/>
<text text-anchor="middle" x="819" y="-917.1074" font-family="Times,serif" font-size="14.00" fill="#000000">custom&#45;samplesheet&#45;split&#45;by&#45;settings v(1.0.0)</text>
</a>
</g>
</g>
<!-- file:///tmp/tmpwahedo6z#settings_by_samples&#45;&gt;file:///tmp/tmpwahedo6z#samplesheet_split_by_settings_step -->
<g id="edge14" class="edge">
<title>file:///tmp/tmpwahedo6z#settings_by_samples&#45;&gt;file:///tmp/tmpwahedo6z#samplesheet_split_by_settings_step</title>
<path fill="none" stroke="#000000" d="M128.2945,-1102.2991C145.9142,-1091.8335 169.1039,-1079.203 191,-1070.8074 358.6742,-1006.5159 562.4223,-963.9486 691.4324,-941.0932"/>
<polygon fill="#000000" stroke="#000000" points="692.1187,-944.5263 701.3613,-939.347 690.9061,-937.6321 692.1187,-944.5263"/>
</g>
<!-- file:///tmp/tmpwahedo6z#runfolder_name -->
<g id="node2" class="node">
<title>file:///tmp/tmpwahedo6z#runfolder_name</title>
<g id="a_node2"><a xlink:title="Required &#45; used in naming run specific folder, reports and headings&#10;">
<polygon fill="#94ddf4" stroke="#000000" points="2604,-1102.3074 2604,-1139.3074 2734,-1139.3074 2734,-1102.3074 2604,-1102.3074"/>
<text text-anchor="middle" x="2669" y="-1117.1074" font-family="Times,serif" font-size="14.00" fill="#000000">runfolder_name</text>
</a>
</g>
</g>
<!-- file:///tmp/tmpwahedo6z#bclconvert_qc_step -->
<g id="node22" class="node">
<title>file:///tmp/tmpwahedo6z#bclconvert_qc_step</title>
<g id="a_node22"><a xlink:href="https://github.com/umccr/cwl-ica/blob/main/.github/catalogue/docs/tools/multiqc/1.11.0/multiqc__1.11.0.md" xlink:title="The bclconvert qc step &#45; from scatter this takes in an array of dirs&#10;">
<polygon fill="#fafad2" stroke="#000000" points="2459,-325.3074 2459,-362.3074 2599,-362.3074 2599,-325.3074 2459,-325.3074"/>
<text text-anchor="middle" x="2529" y="-340.1074" font-family="Times,serif" font-size="14.00" fill="#000000">multiqc v(1.11.0)</text>
</a>
</g>
</g>
<!-- file:///tmp/tmpwahedo6z#runfolder_name&#45;&gt;file:///tmp/tmpwahedo6z#bclconvert_qc_step -->
<g id="edge18" class="edge">
<title>file:///tmp/tmpwahedo6z#runfolder_name&#45;&gt;file:///tmp/tmpwahedo6z#bclconvert_qc_step</title>
<path fill="none" stroke="#000000" d="M2643.7191,-1102.2894C2613.5244,-1070.8872 2568.1344,-1004.2988 2549,-939.8074 2486.5748,-729.407 2501.4017,-459.4768 2518.5834,-372.3039"/>
<polygon fill="#000000" stroke="#000000" points="2522.0393,-372.8825 2520.7402,-362.3676 2515.1986,-371.3976 2522.0393,-372.8825"/>
</g>
<!-- file:///tmp/tmpwahedo6z#runfolder_name&#45;&gt;file:///tmp/tmpwahedo6z#bclconvert_qc_step -->
<g id="edge19" class="edge">
<title>file:///tmp/tmpwahedo6z#runfolder_name&#45;&gt;file:///tmp/tmpwahedo6z#bclconvert_qc_step</title>
<path fill="none" stroke="#000000" d="M2654.7594,-1102.2894C2631.5244,-1070.8872 2586.1344,-1004.2988 2567,-939.8074 2504.6383,-729.621 2519.3716,-460.0259 2526.3869,-372.5705"/>
<polygon fill="#000000" stroke="#000000" points="2529.8945,-372.624 2527.238,-362.3676 2522.9187,-372.042 2529.8945,-372.624"/>
</g>
<!-- file:///tmp/tmpwahedo6z#runfolder_name&#45;&gt;file:///tmp/tmpwahedo6z#bclconvert_qc_step -->
<g id="edge20" class="edge">
<title>file:///tmp/tmpwahedo6z#runfolder_name&#45;&gt;file:///tmp/tmpwahedo6z#bclconvert_qc_step</title>
<path fill="none" stroke="#000000" d="M2665.7997,-1102.2894C2649.5244,-1070.8872 2604.1344,-1004.2988 2585,-939.8074 2522.6383,-729.621 2537.3716,-460.0259 2534.2428,-372.5705"/>
<polygon fill="#000000" stroke="#000000" points="2537.7279,-372.1816 2533.7359,-362.3676 2530.7365,-372.529 2537.7279,-372.1816"/>
</g>
<!-- file:///tmp/tmpwahedo6z#interop_qc_step -->
<g id="node25" class="node">
<title>file:///tmp/tmpwahedo6z#interop_qc_step</title>
<g id="a_node25"><a xlink:href="https://github.com/umccr/cwl-ica/blob/main/.github/catalogue/docs/tools/multiqc-interop/1.2.1/multiqc-interop__1.2.1.md" xlink:title="Run the multiqc by first also generating the interop files for use&#10;">
<polygon fill="#fafad2" stroke="#000000" points="2575.5,-902.3074 2575.5,-939.3074 2762.5,-939.3074 2762.5,-902.3074 2575.5,-902.3074"/>
<text text-anchor="middle" x="2669" y="-917.1074" font-family="Times,serif" font-size="14.00" fill="#000000">multiqc&#45;interop v(1.2.1)</text>
</a>
</g>
</g>
<!-- file:///tmp/tmpwahedo6z#runfolder_name&#45;&gt;file:///tmp/tmpwahedo6z#interop_qc_step -->
<g id="edge15" class="edge">
<title>file:///tmp/tmpwahedo6z#runfolder_name&#45;&gt;file:///tmp/tmpwahedo6z#interop_qc_step</title>
<path fill="none" stroke="#000000" d="M2660.7077,-1101.9919C2654.3092,-1066.8365 2653.8069,-990.9909 2659.2008,-949.447"/>
<polygon fill="#000000" stroke="#000000" points="2662.681,-949.8434 2660.7435,-939.4272 2655.7625,-948.7781 2662.681,-949.8434"/>
</g>
<!-- file:///tmp/tmpwahedo6z#runfolder_name&#45;&gt;file:///tmp/tmpwahedo6z#interop_qc_step -->
<g id="edge16" class="edge">
<title>file:///tmp/tmpwahedo6z#runfolder_name&#45;&gt;file:///tmp/tmpwahedo6z#interop_qc_step</title>
<path fill="none" stroke="#000000" d="M2669,-1101.9919C2669,-1066.8365 2669,-990.9909 2669,-949.447"/>
<polygon fill="#000000" stroke="#000000" points="2672.5001,-949.4272 2669,-939.4272 2665.5001,-949.4272 2672.5001,-949.4272"/>
</g>
<!-- file:///tmp/tmpwahedo6z#runfolder_name&#45;&gt;file:///tmp/tmpwahedo6z#interop_qc_step -->
<g id="edge17" class="edge">
<title>file:///tmp/tmpwahedo6z#runfolder_name&#45;&gt;file:///tmp/tmpwahedo6z#interop_qc_step</title>
<path fill="none" stroke="#000000" d="M2677.2923,-1101.9919C2683.6908,-1066.8365 2684.1931,-990.9909 2678.7992,-949.447"/>
<polygon fill="#000000" stroke="#000000" points="2682.2375,-948.7781 2677.2565,-939.4272 2675.319,-949.8434 2682.2375,-948.7781"/>
</g>
<!-- file:///tmp/tmpwahedo6z#bcl_only_lane_bcl_conversion -->
<g id="node3" class="node">
<title>file:///tmp/tmpwahedo6z#bcl_only_lane_bcl_conversion</title>
<g id="a_node3"><a xlink:title="Convert only the specified lane number. The value must&#10;be less than or equal to the number of lanes specified in the&#10;RunInfo.xml. Must be a single integer value.&#10;">
<polygon fill="#94ddf4" stroke="#000000" points="946,-1102.3074 946,-1139.3074 1174,-1139.3074 1174,-1102.3074 946,-1102.3074"/>
<text text-anchor="middle" x="1060" y="-1117.1074" font-family="Times,serif" font-size="14.00" fill="#000000">bcl_only_lane_bcl_conversion</text>
</a>
</g>
</g>
<!-- file:///tmp/tmpwahedo6z#bcl_convert_step -->
<g id="node21" class="node">
<title>file:///tmp/tmpwahedo6z#bcl_convert_step</title>
<g id="a_node21"><a xlink:href="https://github.com/umccr/cwl-ica/blob/main/.github/catalogue/docs/tools/bclConvert/3.7.5/bclConvert__3.7.5.md" xlink:title="BCLConvert is then scattered across each of the samplesheets.&#10;">
<polygon fill="#fafad2" stroke="#000000" points="1465.5,-517.3074 1465.5,-554.3074 1620.5,-554.3074 1620.5,-517.3074 1465.5,-517.3074"/>
<text text-anchor="middle" x="1543" y="-532.1074" font-family="Times,serif" font-size="14.00" fill="#000000">bclConvert v(3.7.5)</text>
</a>
</g>
</g>
<!-- file:///tmp/tmpwahedo6z#bcl_only_lane_bcl_conversion&#45;&gt;file:///tmp/tmpwahedo6z#bcl_convert_step -->
<g id="edge21" class="edge">
<title>file:///tmp/tmpwahedo6z#bcl_only_lane_bcl_conversion&#45;&gt;file:///tmp/tmpwahedo6z#bcl_convert_step</title>
<path fill="none" stroke="#000000" d="M1075.5182,-1102.1572C1120.9113,-1047.5873 1257.3437,-883.4629 1370,-746.8074 1424.575,-680.6062 1488.5211,-602.4641 1521.2614,-562.4137"/>
<polygon fill="#000000" stroke="#000000" points="1524.1409,-564.4212 1527.7596,-554.4635 1518.721,-559.9912 1524.1409,-564.4212"/>
</g>
<!-- file:///tmp/tmpwahedo6z#ignore_missing_samples -->
<g id="node4" class="node">
<title>file:///tmp/tmpwahedo6z#ignore_missing_samples</title>
<g id="a_node4"><a xlink:title="Remove the samples not present in the override cycles record&#10;">
<polygon fill="#94ddf4" stroke="#000000" points="376.5,-1102.3074 376.5,-1139.3074 567.5,-1139.3074 567.5,-1102.3074 376.5,-1102.3074"/>
<text text-anchor="middle" x="472" y="-1117.1074" font-family="Times,serif" font-size="14.00" fill="#000000">ignore_missing_samples</text>
</a>
</g>
</g>
<!-- file:///tmp/tmpwahedo6z#ignore_missing_samples&#45;&gt;file:///tmp/tmpwahedo6z#samplesheet_split_by_settings_step -->
<g id="edge22" class="edge">
<title>file:///tmp/tmpwahedo6z#ignore_missing_samples&#45;&gt;file:///tmp/tmpwahedo6z#samplesheet_split_by_settings_step</title>
<path fill="none" stroke="#000000" d="M504.3333,-1102.1715C567.694,-1065.6523 708.0837,-984.7361 777.9094,-944.4907"/>
<polygon fill="#000000" stroke="#000000" points="779.9583,-947.3496 786.8744,-939.3236 776.4627,-941.2848 779.9583,-947.3496"/>
</g>
<!-- file:///tmp/tmpwahedo6z#samplesheet_outdir -->
<g id="node5" class="node">
<title>file:///tmp/tmpwahedo6z#samplesheet_outdir</title>
<g id="a_node5"><a xlink:title="Output directory of the samplesheets split by settings&#10;">
<polygon fill="#94ddf4" stroke="#000000" points="200,-1102.3074 200,-1139.3074 358,-1139.3074 358,-1102.3074 200,-1102.3074"/>
<text text-anchor="middle" x="279" y="-1117.1074" font-family="Times,serif" font-size="14.00" fill="#000000">samplesheet_outdir</text>
</a>
</g>
</g>
<!-- file:///tmp/tmpwahedo6z#samplesheet_outdir&#45;&gt;file:///tmp/tmpwahedo6z#samplesheet_split_by_settings_step -->
<g id="edge23" class="edge">
<title>file:///tmp/tmpwahedo6z#samplesheet_outdir&#45;&gt;file:///tmp/tmpwahedo6z#samplesheet_split_by_settings_step</title>
<path fill="none" stroke="#000000" d="M308.744,-1102.21C325.6988,-1092.0945 347.5781,-1079.8409 368,-1070.8074 494.5065,-1014.8478 648.7291,-967.8542 740.1184,-942.0809"/>
<polygon fill="#000000" stroke="#000000" points="741.1714,-945.4207 749.8537,-939.3487 739.2799,-938.6811 741.1714,-945.4207"/>
</g>
<!-- file:///tmp/tmpwahedo6z#samplesheet_output_format -->
<g id="node6" class="node">
<title>file:///tmp/tmpwahedo6z#samplesheet_output_format</title>
<g id="a_node6"><a xlink:title="Convert headers to v2 samplesheet format&#10;">
<polygon fill="#94ddf4" stroke="#000000" points="710.5,-1102.3074 710.5,-1139.3074 927.5,-1139.3074 927.5,-1102.3074 710.5,-1102.3074"/>
<text text-anchor="middle" x="819" y="-1117.1074" font-family="Times,serif" font-size="14.00" fill="#000000">samplesheet_output_format</text>
</a>
</g>
</g>
<!-- file:///tmp/tmpwahedo6z#samplesheet_output_format&#45;&gt;file:///tmp/tmpwahedo6z#samplesheet_split_by_settings_step -->
<g id="edge24" class="edge">
<title>file:///tmp/tmpwahedo6z#samplesheet_output_format&#45;&gt;file:///tmp/tmpwahedo6z#samplesheet_split_by_settings_step</title>
<path fill="none" stroke="#000000" d="M819,-1101.9919C819,-1066.8365 819,-990.9909 819,-949.447"/>
<polygon fill="#000000" stroke="#000000" points="822.5001,-949.4272 819,-939.4272 815.5001,-949.4272 822.5001,-949.4272"/>
</g>
<!-- file:///tmp/tmpwahedo6z#strict_mode_bcl_conversion -->
<g id="node7" class="node">
<title>file:///tmp/tmpwahedo6z#strict_mode_bcl_conversion</title>
<g id="a_node7"><a xlink:title="true — Abort the program if any filter, locs, bcl, or bci lane&#10;files are missing or corrupt.&#10;false — Continue processing if any filter, locs, bcl, or bci lane files&#10;are missing. Return a warning message for each missing or corrupt&#10;file.&#10;">
<polygon fill="#94ddf4" stroke="#000000" points="1192.5,-1102.3074 1192.5,-1139.3074 1409.5,-1139.3074 1409.5,-1102.3074 1192.5,-1102.3074"/>
<text text-anchor="middle" x="1301" y="-1117.1074" font-family="Times,serif" font-size="14.00" fill="#000000">strict_mode_bcl_conversion</text>
</a>
</g>
</g>
<!-- file:///tmp/tmpwahedo6z#strict_mode_bcl_conversion&#45;&gt;file:///tmp/tmpwahedo6z#bcl_convert_step -->
<g id="edge25" class="edge">
<title>file:///tmp/tmpwahedo6z#strict_mode_bcl_conversion&#45;&gt;file:///tmp/tmpwahedo6z#bcl_convert_step</title>
<path fill="none" stroke="#000000" d="M1315.3128,-1102.2354C1339.2107,-1070.4879 1387.5164,-1003.0685 1417,-939.8074 1479.6039,-805.4822 1521.7775,-632.0195 1536.8498,-564.4868"/>
<polygon fill="#000000" stroke="#000000" points="1540.2988,-565.0992 1539.0351,-554.58 1533.4631,-563.5913 1540.2988,-565.0992"/>
</g>
<!-- file:///tmp/tmpwahedo6z#first_tile_only_bcl_conversion -->
<g id="node8" class="node">
<title>file:///tmp/tmpwahedo6z#first_tile_only_bcl_conversion</title>
<g id="a_node8"><a xlink:title="true — Only process the first tile of the first swath of the&#10; &#160;top surface of each lane specified in the sample sheet.&#10;false — Process all tiles in each lane, as specified in the sample&#10; &#160;sheet.&#10;">
<polygon fill="#94ddf4" stroke="#000000" points="1428,-1102.3074 1428,-1139.3074 1658,-1139.3074 1658,-1102.3074 1428,-1102.3074"/>
<text text-anchor="middle" x="1543" y="-1117.1074" font-family="Times,serif" font-size="14.00" fill="#000000">first_tile_only_bcl_conversion</text>
</a>
</g>
</g>
<!-- file:///tmp/tmpwahedo6z#first_tile_only_bcl_conversion&#45;&gt;file:///tmp/tmpwahedo6z#bcl_convert_step -->
<g id="edge26" class="edge">
<title>file:///tmp/tmpwahedo6z#first_tile_only_bcl_conversion&#45;&gt;file:///tmp/tmpwahedo6z#bcl_convert_step</title>
<path fill="none" stroke="#000000" d="M1543,-1102.006C1543,-1016.9993 1543,-668.2575 1543,-564.8417"/>
<polygon fill="#000000" stroke="#000000" points="1546.5001,-564.5389 1543,-554.5389 1539.5001,-564.5389 1546.5001,-564.5389"/>
</g>
<!-- file:///tmp/tmpwahedo6z#delete_undetermined_indices_bcl_conversion -->
<g id="node9" class="node">
<title>file:///tmp/tmpwahedo6z#delete_undetermined_indices_bcl_conversion</title>
<g id="a_node9"><a xlink:title="Delete undetermined indices on completion of the run&#10;">
<polygon fill="#94ddf4" stroke="#000000" points="1676,-1102.3074 1676,-1139.3074 2018,-1139.3074 2018,-1102.3074 1676,-1102.3074"/>
<text text-anchor="middle" x="1847" y="-1117.1074" font-family="Times,serif" font-size="14.00" fill="#000000">delete_undetermined_indices_bcl_conversion</text>
</a>
</g>
</g>
<!-- file:///tmp/tmpwahedo6z#delete_undetermined_indices_bcl_conversion&#45;&gt;file:///tmp/tmpwahedo6z#bcl_convert_step -->
<g id="edge27" class="edge">
<title>file:///tmp/tmpwahedo6z#delete_undetermined_indices_bcl_conversion&#45;&gt;file:///tmp/tmpwahedo6z#bcl_convert_step</title>
<path fill="none" stroke="#000000" d="M1837.2297,-1102.006C1792.8764,-1016.6551 1610.3591,-665.4293 1557.4415,-563.5977"/>
<polygon fill="#000000" stroke="#000000" points="1560.4509,-561.7984 1552.734,-554.5389 1554.2395,-565.0262 1560.4509,-561.7984"/>
</g>
<!-- file:///tmp/tmpwahedo6z#bcl_input_directory -->
<g id="node10" class="node">
<title>file:///tmp/tmpwahedo6z#bcl_input_directory</title>
<g id="a_node10"><a xlink:title="Path to the bcl files&#10;">
<polygon fill="#94ddf4" stroke="#000000" points="2428.5,-1102.3074 2428.5,-1139.3074 2585.5,-1139.3074 2585.5,-1102.3074 2428.5,-1102.3074"/>
<text text-anchor="middle" x="2507" y="-1117.1074" font-family="Times,serif" font-size="14.00" fill="#000000">bcl_input_directory</text>
</a>
</g>
</g>
<!-- file:///tmp/tmpwahedo6z#bcl_input_directory&#45;&gt;file:///tmp/tmpwahedo6z#bcl_convert_step -->
<g id="edge28" class="edge">
<title>file:///tmp/tmpwahedo6z#bcl_input_directory&#45;&gt;file:///tmp/tmpwahedo6z#bcl_convert_step</title>
<path fill="none" stroke="#000000" d="M2476.2881,-1102.17C2334.2909,-1015.9995 1741.5577,-656.3014 1582.4524,-559.7489"/>
<polygon fill="#000000" stroke="#000000" points="1584.2643,-556.7544 1573.8995,-554.5586 1580.6327,-562.7387 1584.2643,-556.7544"/>
</g>
<!-- file:///tmp/tmpwahedo6z#bcl_input_directory&#45;&gt;file:///tmp/tmpwahedo6z#interop_qc_step -->
<g id="edge29" class="edge">
<title>file:///tmp/tmpwahedo6z#bcl_input_directory&#45;&gt;file:///tmp/tmpwahedo6z#interop_qc_step</title>
<path fill="none" stroke="#000000" d="M2522.2406,-1101.9919C2551.2001,-1066.2394 2614.2478,-988.4026 2647.4922,-947.3602"/>
<polygon fill="#000000" stroke="#000000" points="2650.3434,-949.4008 2653.9179,-939.4272 2644.904,-944.9949 2650.3434,-949.4008"/>
</g>
<!-- file:///tmp/tmpwahedo6z#samplesheet -->
<g id="node11" class="node">
<title>file:///tmp/tmpwahedo6z#samplesheet</title>
<g id="a_node11"><a xlink:title="The path to the full samplesheet&#10;">
<polygon fill="#94ddf4" stroke="#000000" points="585.5,-1102.3074 585.5,-1139.3074 692.5,-1139.3074 692.5,-1102.3074 585.5,-1102.3074"/>
<text text-anchor="middle" x="639" y="-1117.1074" font-family="Times,serif" font-size="14.00" fill="#000000">samplesheet</text>
</a>
</g>
</g>
<!-- file:///tmp/tmpwahedo6z#samplesheet&#45;&gt;file:///tmp/tmpwahedo6z#samplesheet_split_by_settings_step -->
<g id="edge30" class="edge">
<title>file:///tmp/tmpwahedo6z#samplesheet&#45;&gt;file:///tmp/tmpwahedo6z#samplesheet_split_by_settings_step</title>
<path fill="none" stroke="#000000" d="M655.934,-1101.9919C688.1784,-1066.1647 758.4569,-988.0775 795.3334,-947.1036"/>
<polygon fill="#000000" stroke="#000000" points="798.154,-949.2016 802.2422,-939.4272 792.9509,-944.5188 798.154,-949.2016"/>
</g>
<!-- file:///tmp/tmpwahedo6z#bcl_sampleproject_subdirectories_bcl_conversion -->
<g id="node12" class="node">
<title>file:///tmp/tmpwahedo6z#bcl_sampleproject_subdirectories_bcl_conversion</title>
<g id="a_node12"><a xlink:title="true — Allows creation of Sample_Project subdirectories&#10;as specified in the sample sheet. This option must be set to true for&#10;the Sample_Project column in the data section to be used.&#10;">
<polygon fill="#94ddf4" stroke="#000000" points="2036,-1102.3074 2036,-1139.3074 2410,-1139.3074 2410,-1102.3074 2036,-1102.3074"/>
<text text-anchor="middle" x="2223" y="-1117.1074" font-family="Times,serif" font-size="14.00" fill="#000000">bcl_sampleproject_subdirectories_bcl_conversion</text>
</a>
</g>
</g>
<!-- file:///tmp/tmpwahedo6z#bcl_sampleproject_subdirectories_bcl_conversion&#45;&gt;file:///tmp/tmpwahedo6z#bcl_convert_step -->
<g id="edge31" class="edge">
<title>file:///tmp/tmpwahedo6z#bcl_sampleproject_subdirectories_bcl_conversion&#45;&gt;file:///tmp/tmpwahedo6z#bcl_convert_step</title>
<path fill="none" stroke="#000000" d="M2201.1453,-1102.006C2101.1341,-1015.9668 1687.0667,-659.7471 1572.4964,-561.183"/>
<polygon fill="#000000" stroke="#000000" points="1574.6368,-558.4073 1564.7734,-554.5389 1570.0716,-563.7139 1574.6368,-558.4073"/>
</g>
<!-- file:///tmp/tmpwahedo6z#split_sheets -->
<g id="node13" class="node">
<title>file:///tmp/tmpwahedo6z#split_sheets</title>
<g id="a_node13"><a xlink:title="List of samplesheets split by override cycles&#10;">
<polygon fill="#94ddf4" stroke="#000000" points="1279,-132.3074 1279,-169.3074 1381,-169.3074 1381,-132.3074 1279,-132.3074"/>
<text text-anchor="middle" x="1330" y="-147.1074" font-family="Times,serif" font-size="14.00" fill="#000000">split_sheets</text>
</a>
</g>
</g>
<!-- file:///tmp/tmpwahedo6z#fastq_directories -->
<g id="node14" class="node">
<title>file:///tmp/tmpwahedo6z#fastq_directories</title>
<g id="a_node14"><a xlink:title="The outputs from the bclconvert&#45;step&#10;">
<polygon fill="#94ddf4" stroke="#000000" points="1399,-132.3074 1399,-169.3074 1537,-169.3074 1537,-132.3074 1399,-132.3074"/>
<text text-anchor="middle" x="1468" y="-147.1074" font-family="Times,serif" font-size="14.00" fill="#000000">fastq_directories</text>
</a>
</g>
</g>
<!-- file:///tmp/tmpwahedo6z#split_sheets_dir -->
<g id="node15" class="node">
<title>file:///tmp/tmpwahedo6z#split_sheets_dir</title>
<g id="a_node15"><a xlink:title="The directory containing the samplesheets used for each bcl convert&#10;">
<polygon fill="#94ddf4" stroke="#000000" points="1131,-132.3074 1131,-169.3074 1261,-169.3074 1261,-132.3074 1131,-132.3074"/>
<text text-anchor="middle" x="1196" y="-147.1074" font-family="Times,serif" font-size="14.00" fill="#000000">split_sheets_dir</text>
</a>
</g>
</g>
<!-- file:///tmp/tmpwahedo6z#bclconvert_multiqc_out -->
<g id="node16" class="node">
<title>file:///tmp/tmpwahedo6z#bclconvert_multiqc_out</title>
<g id="a_node16"><a xlink:title="multiqc directory output that contains bclconvert multiqc data&#10;">
<polygon fill="#94ddf4" stroke="#000000" points="1699,-132.3074 1699,-169.3074 1885,-169.3074 1885,-132.3074 1699,-132.3074"/>
<text text-anchor="middle" x="1792" y="-147.1074" font-family="Times,serif" font-size="14.00" fill="#000000">bclconvert_multiqc_out</text>
</a>
</g>
</g>
<!-- file:///tmp/tmpwahedo6z#interop_multiqc_out -->
<g id="node17" class="node">
<title>file:///tmp/tmpwahedo6z#interop_multiqc_out</title>
<g id="a_node17"><a xlink:title="multiqc directory output that contains interop data&#10;">
<polygon fill="#94ddf4" stroke="#000000" points="1903.5,-132.3074 1903.5,-169.3074 2064.5,-169.3074 2064.5,-132.3074 1903.5,-132.3074"/>
<text text-anchor="middle" x="1984" y="-147.1074" font-family="Times,serif" font-size="14.00" fill="#000000">interop_multiqc_out</text>
</a>
</g>
</g>
<!-- file:///tmp/tmpwahedo6z#fastq_list_rows -->
<g id="node18" class="node">
<title>file:///tmp/tmpwahedo6z#fastq_list_rows</title>
<g id="a_node18"><a xlink:title="Contains the fastq list row schema for each of the output fastq files&#10;">
<polygon fill="#94ddf4" stroke="#000000" points="1555.5,-132.3074 1555.5,-169.3074 1680.5,-169.3074 1680.5,-132.3074 1555.5,-132.3074"/>
<text text-anchor="middle" x="1618" y="-147.1074" font-family="Times,serif" font-size="14.00" fill="#000000">fastq_list_rows</text>
</a>
</g>
</g>
<!-- file:///tmp/tmpwahedo6z#samplesheet_split_by_settings_step&#45;&gt;file:///tmp/tmpwahedo6z#split_sheets -->
<g id="edge3" class="edge">
<title>file:///tmp/tmpwahedo6z#samplesheet_split_by_settings_step&#45;&gt;file:///tmp/tmpwahedo6z#split_sheets</title>
<path fill="none" stroke="#000000" d="M831.3783,-902.1551C899.7045,-799.1978 1230.6222,-300.5547 1311.9292,-178.0373"/>
<polygon fill="#000000" stroke="#000000" points="1314.9431,-179.8256 1317.5564,-169.5581 1309.1106,-175.9549 1314.9431,-179.8256"/>
</g>
<!-- file:///tmp/tmpwahedo6z#samplesheet_split_by_settings_step&#45;&gt;file:///tmp/tmpwahedo6z#split_sheets_dir -->
<g id="edge4" class="edge">
<title>file:///tmp/tmpwahedo6z#samplesheet_split_by_settings_step&#45;&gt;file:///tmp/tmpwahedo6z#split_sheets_dir</title>
<path fill="none" stroke="#000000" d="M813.8859,-902.2523C793.5176,-824.1641 725.1913,-517.3956 851,-324.8074 911.99,-231.4437 1039.2544,-185.9621 1120.9987,-165.5462"/>
<polygon fill="#000000" stroke="#000000" points="1121.8443,-168.9427 1130.7343,-163.1792 1120.1905,-162.1408 1121.8443,-168.9427"/>
</g>
<!-- file:///tmp/tmpwahedo6z#get_batch_dirs -->
<g id="node20" class="node">
<title>file:///tmp/tmpwahedo6z#get_batch_dirs</title>
<g id="a_node20"><a xlink:href="https://github.com/umccr/cwl-ica/blob/main/.github/catalogue/docs/expressions/get-samplesheet-midfix-regex/1.0.0/get-samplesheet-midfix-regex__1.0.0.md" xlink:title="Get the directory names of each of the directories we wish to scatter over&#10;">
<polygon fill="#ee9a00" stroke="#000000" points="1073,-709.3074 1073,-746.3074 1361,-746.3074 1361,-709.3074 1073,-709.3074"/>
<text text-anchor="middle" x="1217" y="-724.1074" font-family="Times,serif" font-size="14.00" fill="#000000">get&#45;samplesheet&#45;midfix&#45;regex v(1.0.0)</text>
</a>
</g>
</g>
<!-- file:///tmp/tmpwahedo6z#samplesheet_split_by_settings_step&#45;&gt;file:///tmp/tmpwahedo6z#get_batch_dirs -->
<g id="edge1" class="edge">
<title>file:///tmp/tmpwahedo6z#samplesheet_split_by_settings_step&#45;&gt;file:///tmp/tmpwahedo6z#get_batch_dirs</title>
<path fill="none" stroke="#000000" d="M857.1619,-902.3017C930.1709,-866.8979 1089.4486,-789.6602 1169.3254,-750.926"/>
<polygon fill="#000000" stroke="#000000" points="1171.191,-753.9112 1178.6617,-746.3986 1168.1366,-747.6127 1171.191,-753.9112"/>
</g>
<!-- file:///tmp/tmpwahedo6z#samplesheet_split_by_settings_step&#45;&gt;file:///tmp/tmpwahedo6z#bcl_convert_step -->
<g id="edge2" class="edge">
<title>file:///tmp/tmpwahedo6z#samplesheet_split_by_settings_step&#45;&gt;file:///tmp/tmpwahedo6z#bcl_convert_step</title>
<path fill="none" stroke="#000000" d="M835.9474,-902.0681C873.422,-861.6219 967.6627,-765.2468 1064,-708.8074 1191.358,-634.1944 1356.3078,-583.3252 1455.662,-556.9617"/>
<polygon fill="#000000" stroke="#000000" points="1456.5846,-560.3381 1465.3654,-554.4095 1454.804,-553.5684 1456.5846,-560.3381"/>
</g>
<!-- file:///tmp/tmpwahedo6z#get_batch_dirs&#45;&gt;file:///tmp/tmpwahedo6z#bcl_convert_step -->
<g id="edge5" class="edge">
<title>file:///tmp/tmpwahedo6z#get_batch_dirs&#45;&gt;file:///tmp/tmpwahedo6z#bcl_convert_step</title>
<path fill="none" stroke="#000000" d="M1248.5545,-709.2232C1308.0739,-674.1688 1436.83,-598.337 1502.5821,-559.6118"/>
<polygon fill="#000000" stroke="#000000" points="1504.5877,-562.4925 1511.4281,-554.4018 1501.0353,-556.4609 1504.5877,-562.4925"/>
</g>
<!-- file:///tmp/tmpwahedo6z#bcl_convert_step&#45;&gt;file:///tmp/tmpwahedo6z#fastq_directories -->
<g id="edge8" class="edge">
<title>file:///tmp/tmpwahedo6z#bcl_convert_step&#45;&gt;file:///tmp/tmpwahedo6z#fastq_directories</title>
<path fill="none" stroke="#000000" d="M1533.2522,-517.2619C1517.5392,-486.2801 1487.1462,-421.5908 1475,-362.8074 1461.6953,-298.4173 1463.5441,-220.7219 1465.8808,-179.6014"/>
<polygon fill="#000000" stroke="#000000" points="1469.3821,-179.6871 1466.5085,-169.4894 1462.3956,-179.2534 1469.3821,-179.6871"/>
</g>
<!-- file:///tmp/tmpwahedo6z#bcl_convert_step&#45;&gt;file:///tmp/tmpwahedo6z#bclconvert_qc_step -->
<g id="edge6" class="edge">
<title>file:///tmp/tmpwahedo6z#bcl_convert_step&#45;&gt;file:///tmp/tmpwahedo6z#bclconvert_qc_step</title>
<path fill="none" stroke="#000000" d="M1620.7814,-520.6613C1804.3021,-484.925 2262.7939,-395.6447 2448.7517,-359.4338"/>
<polygon fill="#000000" stroke="#000000" points="2449.5891,-362.8366 2458.7357,-357.4897 2448.251,-355.9656 2449.5891,-362.8366"/>
</g>
<!-- file:///tmp/tmpwahedo6z#flatten_fastq_list_rows_array -->
<g id="node23" class="node">
<title>file:///tmp/tmpwahedo6z#flatten_fastq_list_rows_array</title>
<g id="a_node23"><a xlink:href="https://github.com/umccr/cwl-ica/blob/main/.github/catalogue/docs/expressions/flatten-array-fastq-list/1.0.0/flatten-array-fastq-list__1.0.0.md" xlink:title="fastq list rows is an array and bcl convert is from a directory output.&#10;This scatters the arrays to a single array&#10;">
<polygon fill="#ee9a00" stroke="#000000" points="1483.5,-325.3074 1483.5,-362.3074 1776.5,-362.3074 1776.5,-325.3074 1483.5,-325.3074"/>
<text text-anchor="middle" x="1630" y="-340.1074" font-family="Times,serif" font-size="14.00" fill="#000000">flatten&#45;array&#45;fastq&#45;list&#45;schema v(1.0.0)</text>
</a>
</g>
</g>
<!-- file:///tmp/tmpwahedo6z#bcl_convert_step&#45;&gt;file:///tmp/tmpwahedo6z#flatten_fastq_list_rows_array -->
<g id="edge7" class="edge">
<title>file:///tmp/tmpwahedo6z#bcl_convert_step&#45;&gt;file:///tmp/tmpwahedo6z#flatten_fastq_list_rows_array</title>
<path fill="none" stroke="#000000" d="M1551.5003,-517.048C1566.8727,-483.1228 1599.3639,-411.4181 1617.3518,-371.7207"/>
<polygon fill="#000000" stroke="#000000" points="1620.6539,-372.9133 1621.5933,-362.3602 1614.2779,-370.0242 1620.6539,-372.9133"/>
</g>
<!-- file:///tmp/tmpwahedo6z#bclconvert_qc_step&#45;&gt;file:///tmp/tmpwahedo6z#bclconvert_multiqc_out -->
<g id="edge12" class="edge">
<title>file:///tmp/tmpwahedo6z#bclconvert_qc_step&#45;&gt;file:///tmp/tmpwahedo6z#bclconvert_multiqc_out</title>
<path fill="none" stroke="#000000" d="M2458.6345,-325.3906C2341.6413,-294.7685 2099.7215,-231.4409 1895,-177.8074 1887.6444,-175.8803 1879.9934,-173.8755 1872.3318,-171.8676"/>
<polygon fill="#000000" stroke="#000000" points="1873.2037,-168.478 1862.643,-169.3283 1871.429,-175.2493 1873.2037,-168.478"/>
</g>
<!-- file:///tmp/tmpwahedo6z#flatten_fastq_list_rows_array&#45;&gt;file:///tmp/tmpwahedo6z#fastq_list_rows -->
<g id="edge13" class="edge">
<title>file:///tmp/tmpwahedo6z#flatten_fastq_list_rows_array&#45;&gt;file:///tmp/tmpwahedo6z#fastq_list_rows</title>
<path fill="none" stroke="#000000" d="M1628.8494,-325.3017C1626.7537,-291.5962 1622.3005,-219.9739 1619.8,-179.757"/>
<polygon fill="#000000" stroke="#000000" points="1623.2787,-179.3041 1619.1648,-169.5406 1616.2922,-179.7385 1623.2787,-179.3041"/>
</g>
<!-- file:///tmp/tmpwahedo6z#create_dummy_file_step -->
<g id="node24" class="node">
<title>file:///tmp/tmpwahedo6z#create_dummy_file_step</title>
<g id="a_node24"><a xlink:href="https://github.com/umccr/cwl-ica/blob/main/.github/catalogue/docs/tools/custom-touch-file/1.0.0/custom-touch-file__1.0.0.md" xlink:title="Intermediate step for letting multiqc&#45;interop be placed in stream mode&#10;">
<polygon fill="#fafad2" stroke="#000000" points="2752.5,-1102.3074 2752.5,-1139.3074 3015.5,-1139.3074 3015.5,-1102.3074 2752.5,-1102.3074"/>
<text text-anchor="middle" x="2884" y="-1117.1074" font-family="Times,serif" font-size="14.00" fill="#000000">custom&#45;create&#45;dummy&#45;file v(1.0.0)</text>
</a>
</g>
</g>
<!-- file:///tmp/tmpwahedo6z#create_dummy_file_step&#45;&gt;file:///tmp/tmpwahedo6z#bclconvert_qc_step -->
<g id="edge10" class="edge">
<title>file:///tmp/tmpwahedo6z#create_dummy_file_step&#45;&gt;file:///tmp/tmpwahedo6z#bclconvert_qc_step</title>
<path fill="none" stroke="#000000" d="M2875.4006,-1101.9855C2827.9767,-998.1875 2598.4604,-495.8376 2541.7097,-371.6256"/>
<polygon fill="#000000" stroke="#000000" points="2544.8254,-370.0227 2537.4863,-362.3815 2538.4585,-372.9317 2544.8254,-370.0227"/>
</g>
<!-- file:///tmp/tmpwahedo6z#create_dummy_file_step&#45;&gt;file:///tmp/tmpwahedo6z#interop_qc_step -->
<g id="edge9" class="edge">
<title>file:///tmp/tmpwahedo6z#create_dummy_file_step&#45;&gt;file:///tmp/tmpwahedo6z#interop_qc_step</title>
<path fill="none" stroke="#000000" d="M2863.7733,-1101.9919C2825.0185,-1065.9408 2740.2643,-987.0997 2696.4473,-946.3397"/>
<polygon fill="#000000" stroke="#000000" points="2698.7221,-943.6756 2689.0163,-939.4272 2693.9543,-948.8009 2698.7221,-943.6756"/>
</g>
<!-- file:///tmp/tmpwahedo6z#interop_qc_step&#45;&gt;file:///tmp/tmpwahedo6z#interop_multiqc_out -->
<g id="edge11" class="edge">
<title>file:///tmp/tmpwahedo6z#interop_qc_step&#45;&gt;file:///tmp/tmpwahedo6z#interop_multiqc_out</title>
<path fill="none" stroke="#000000" d="M2673.7377,-902.2213C2692.975,-822.0566 2757.3332,-501.9489 2608,-324.8074 2539.329,-243.3487 2230.5116,-187.1572 2074.6258,-163.4511"/>
<polygon fill="#000000" stroke="#000000" points="2074.9933,-159.967 2064.5832,-161.9367 2073.9495,-166.8888 2074.9933,-159.967"/>
</g>
</g>
</svg>
