<?xml version="1.0" encoding="UTF-8" standalone="no"?>
<!DOCTYPE svg PUBLIC "-//W3C//DTD SVG 1.1//EN"
 "http://www.w3.org/Graphics/SVG/1.1/DTD/svg11.dtd">
<!-- Generated by graphviz version 2.40.1 (20161225.0304)
 -->
<!-- Title: G Pages: 1 -->
<svg width="3022pt" height="1219pt"
 viewBox="0.00 0.00 3021.50 1219.23" xmlns="http://www.w3.org/2000/svg" xmlns:xlink="http://www.w3.org/1999/xlink">
<g id="graph0" class="graph" transform="scale(1 1) rotate(0) translate(4 1215.226)">
<title>G</title>
<polygon fill="#eeeeee" stroke="transparent" points="-4,4 -4,-1215.226 3017.5,-1215.226 3017.5,4 -4,4"/>
<g id="clust1" class="cluster">
<title>cluster_inputs</title>
<polygon fill="#eeeeee" stroke="#000000" stroke-dasharray="5,2" points="8,-990.2942 8,-1190.4324 2740,-1190.4324 2740,-990.2942 8,-990.2942"/>
<text text-anchor="middle" x="2672" y="-998.0942" font-family="Times,serif" font-size="14.00" fill="#000000">Workflow Inputs</text>
</g>
<g id="clust2" class="cluster">
<title>cluster_outputs</title>
<polygon fill="#eeeeee" stroke="#000000" stroke-dasharray="5,2" points="1513,-20.7936 1513,-220.9318 2463,-220.9318 2463,-20.7936 1513,-20.7936"/>
<text text-anchor="middle" x="2389" y="-28.5936" font-family="Times,serif" font-size="14.00" fill="#000000">Workflow Outputs</text>
</g>
<!-- file:///tmp/tmpgy0__7xn#runfolder_name -->
<g id="node1" class="node">
<title>file:///tmp/tmpgy0__7xn#runfolder_name</title>
<g id="a_node1"><a xlink:title="Required &#45; used in naming run specific folder, reports and headings&#10;">
<polygon fill="#94ddf4" stroke="#000000" points="2602,-1101.2936 2602,-1138.2936 2732,-1138.2936 2732,-1101.2936 2602,-1101.2936"/>
<text text-anchor="middle" x="2667" y="-1116.0936" font-family="Times,serif" font-size="14.00" fill="#000000">runfolder_name</text>
</a>
</g>
</g>
<!-- file:///tmp/tmpgy0__7xn#bclconvert_qc_step -->
<g id="node21" class="node">
<title>file:///tmp/tmpgy0__7xn#bclconvert_qc_step</title>
<g id="a_node21"><a xlink:href="https://github.com/umccr/cwl-ica/blob/beta-release/.github/catalogue/docs/tools/multiqc/1.11.0/multiqc__1.11.0.md" xlink:title="The bclconvert qc step &#45; from scatter this takes in an array of dirs&#10;">
<polygon fill="#fafad2" stroke="#000000" points="2457,-324.2936 2457,-361.2936 2597,-361.2936 2597,-324.2936 2457,-324.2936"/>
<text text-anchor="middle" x="2527" y="-339.0936" font-family="Times,serif" font-size="14.00" fill="#000000">multiqc v(1.11.0)</text>
</a>
</g>
</g>
<!-- file:///tmp/tmpgy0__7xn#runfolder_name&#45;&gt;file:///tmp/tmpgy0__7xn#bclconvert_qc_step -->
<g id="edge14" class="edge">
<title>file:///tmp/tmpgy0__7xn#runfolder_name&#45;&gt;file:///tmp/tmpgy0__7xn#bclconvert_qc_step</title>
<path fill="none" stroke="#000000" d="M2641.7191,-1101.2756C2611.5244,-1069.8734 2566.1344,-1003.285 2547,-938.7936 2484.5748,-728.3932 2499.4017,-458.463 2516.5834,-371.2901"/>
<polygon fill="#000000" stroke="#000000" points="2520.0393,-371.8687 2518.7402,-361.3538 2513.1986,-370.3838 2520.0393,-371.8687"/>
</g>
<!-- file:///tmp/tmpgy0__7xn#runfolder_name&#45;&gt;file:///tmp/tmpgy0__7xn#bclconvert_qc_step -->
<g id="edge15" class="edge">
<title>file:///tmp/tmpgy0__7xn#runfolder_name&#45;&gt;file:///tmp/tmpgy0__7xn#bclconvert_qc_step</title>
<path fill="none" stroke="#000000" d="M2652.7594,-1101.2756C2629.5244,-1069.8734 2584.1344,-1003.285 2565,-938.7936 2502.6383,-728.6072 2517.3716,-459.0121 2524.3869,-371.5567"/>
<polygon fill="#000000" stroke="#000000" points="2527.8945,-371.6102 2525.238,-361.3538 2520.9187,-371.0282 2527.8945,-371.6102"/>
</g>
<!-- file:///tmp/tmpgy0__7xn#runfolder_name&#45;&gt;file:///tmp/tmpgy0__7xn#bclconvert_qc_step -->
<g id="edge16" class="edge">
<title>file:///tmp/tmpgy0__7xn#runfolder_name&#45;&gt;file:///tmp/tmpgy0__7xn#bclconvert_qc_step</title>
<path fill="none" stroke="#000000" d="M2663.7997,-1101.2756C2647.5244,-1069.8734 2602.1344,-1003.285 2583,-938.7936 2520.6383,-728.6072 2535.3716,-459.0121 2532.2428,-371.5567"/>
<polygon fill="#000000" stroke="#000000" points="2535.7279,-371.1678 2531.7359,-361.3538 2528.7365,-371.5152 2535.7279,-371.1678"/>
</g>
<!-- file:///tmp/tmpgy0__7xn#interop_qc_step -->
<g id="node25" class="node">
<title>file:///tmp/tmpgy0__7xn#interop_qc_step</title>
<g id="a_node25"><a xlink:href="https://github.com/umccr/cwl-ica/blob/beta-release/.github/catalogue/docs/tools/multiqc-interop/1.2.1/multiqc-interop__1.2.1.md" xlink:title="Run the multiqc by first also generating the interop files for use&#10;">
<polygon fill="#fafad2" stroke="#000000" points="2573.5,-901.2936 2573.5,-938.2936 2760.5,-938.2936 2760.5,-901.2936 2573.5,-901.2936"/>
<text text-anchor="middle" x="2667" y="-916.0936" font-family="Times,serif" font-size="14.00" fill="#000000">multiqc&#45;interop v(1.2.1)</text>
</a>
</g>
</g>
<!-- file:///tmp/tmpgy0__7xn#runfolder_name&#45;&gt;file:///tmp/tmpgy0__7xn#interop_qc_step -->
<g id="edge17" class="edge">
<title>file:///tmp/tmpgy0__7xn#runfolder_name&#45;&gt;file:///tmp/tmpgy0__7xn#interop_qc_step</title>
<path fill="none" stroke="#000000" d="M2658.7077,-1100.9781C2652.3092,-1065.8227 2651.8069,-989.9771 2657.2008,-948.4332"/>
<polygon fill="#000000" stroke="#000000" points="2660.681,-948.8296 2658.7435,-938.4134 2653.7625,-947.7643 2660.681,-948.8296"/>
</g>
<!-- file:///tmp/tmpgy0__7xn#runfolder_name&#45;&gt;file:///tmp/tmpgy0__7xn#interop_qc_step -->
<g id="edge18" class="edge">
<title>file:///tmp/tmpgy0__7xn#runfolder_name&#45;&gt;file:///tmp/tmpgy0__7xn#interop_qc_step</title>
<path fill="none" stroke="#000000" d="M2667,-1100.9781C2667,-1065.8227 2667,-989.9771 2667,-948.4332"/>
<polygon fill="#000000" stroke="#000000" points="2670.5001,-948.4134 2667,-938.4134 2663.5001,-948.4134 2670.5001,-948.4134"/>
</g>
<!-- file:///tmp/tmpgy0__7xn#runfolder_name&#45;&gt;file:///tmp/tmpgy0__7xn#interop_qc_step -->
<g id="edge19" class="edge">
<title>file:///tmp/tmpgy0__7xn#runfolder_name&#45;&gt;file:///tmp/tmpgy0__7xn#interop_qc_step</title>
<path fill="none" stroke="#000000" d="M2675.2923,-1100.9781C2681.6908,-1065.8227 2682.1931,-989.9771 2676.7992,-948.4332"/>
<polygon fill="#000000" stroke="#000000" points="2680.2375,-947.7643 2675.2565,-938.4134 2673.319,-948.8296 2680.2375,-947.7643"/>
</g>
<!-- file:///tmp/tmpgy0__7xn#bcl_input_directory -->
<g id="node2" class="node">
<title>file:///tmp/tmpgy0__7xn#bcl_input_directory</title>
<g id="a_node2"><a xlink:title="Path to the bcl files&#10;">
<polygon fill="#94ddf4" stroke="#000000" points="2426.5,-1101.2936 2426.5,-1138.2936 2583.5,-1138.2936 2583.5,-1101.2936 2426.5,-1101.2936"/>
<text text-anchor="middle" x="2505" y="-1116.0936" font-family="Times,serif" font-size="14.00" fill="#000000">bcl_input_directory</text>
</a>
</g>
</g>
<!-- file:///tmp/tmpgy0__7xn#bcl_convert_step -->
<g id="node19" class="node">
<title>file:///tmp/tmpgy0__7xn#bcl_convert_step</title>
<g id="a_node19"><a xlink:href="https://github.com/umccr/cwl-ica/blob/beta-release/.github/catalogue/docs/tools/bclConvert/3.7.5/bclConvert__3.7.5.md" xlink:title="BCLConvert is then scattered across each of the samplesheets.&#10;">
<polygon fill="#fafad2" stroke="#000000" points="1465.5,-517.2936 1465.5,-554.2936 1620.5,-554.2936 1620.5,-517.2936 1465.5,-517.2936"/>
<text text-anchor="middle" x="1543" y="-532.0936" font-family="Times,serif" font-size="14.00" fill="#000000">bclConvert v(3.7.5)</text>
</a>
</g>
</g>
<!-- file:///tmp/tmpgy0__7xn#bcl_input_directory&#45;&gt;file:///tmp/tmpgy0__7xn#bcl_convert_step -->
<g id="edge20" class="edge">
<title>file:///tmp/tmpgy0__7xn#bcl_input_directory&#45;&gt;file:///tmp/tmpgy0__7xn#bcl_convert_step</title>
<path fill="none" stroke="#000000" d="M2478.4656,-1101.2465C2392.6402,-1041.5384 2114.1376,-849.9913 1873,-708.7936 1774.5711,-651.1587 1655.1755,-590.8448 1590.3929,-558.8856"/>
<polygon fill="#000000" stroke="#000000" points="1591.7577,-555.6564 1581.2401,-554.3797 1588.666,-561.9366 1591.7577,-555.6564"/>
</g>
<!-- file:///tmp/tmpgy0__7xn#bcl_input_directory&#45;&gt;file:///tmp/tmpgy0__7xn#interop_qc_step -->
<g id="edge21" class="edge">
<title>file:///tmp/tmpgy0__7xn#bcl_input_directory&#45;&gt;file:///tmp/tmpgy0__7xn#interop_qc_step</title>
<path fill="none" stroke="#000000" d="M2520.2406,-1100.9781C2549.2001,-1065.2256 2612.2478,-987.3888 2645.4922,-946.3464"/>
<polygon fill="#000000" stroke="#000000" points="2648.3434,-948.387 2651.9179,-938.4134 2642.904,-943.9811 2648.3434,-948.387"/>
</g>
<!-- file:///tmp/tmpgy0__7xn#ignore_missing_samples -->
<g id="node3" class="node">
<title>file:///tmp/tmpgy0__7xn#ignore_missing_samples</title>
<g id="a_node3"><a xlink:title="Remove the samples not present in the override cycles record&#10;">
<polygon fill="#94ddf4" stroke="#000000" points="2217.5,-1101.2936 2217.5,-1138.2936 2408.5,-1138.2936 2408.5,-1101.2936 2217.5,-1101.2936"/>
<text text-anchor="middle" x="2313" y="-1116.0936" font-family="Times,serif" font-size="14.00" fill="#000000">ignore_missing_samples</text>
</a>
</g>
</g>
<!-- file:///tmp/tmpgy0__7xn#samplesheet_split_by_settings_step -->
<g id="node22" class="node">
<title>file:///tmp/tmpgy0__7xn#samplesheet_split_by_settings_step</title>
<g id="a_node22"><a xlink:href="https://github.com/umccr/cwl-ica/blob/beta-release/.github/catalogue/docs/tools/custom-samplesheet-split-by-settings/1.0.0/custom-samplesheet-split-by-settings__1.0.0.md" xlink:title="Samplesheet is split by the different input types.&#10;These are generally a difference in override cycles parameters or adapter trimming settings&#10;This then scatters multiple bclconvert workflows split by sample id&#10;">
<polygon fill="#fafad2" stroke="#000000" points="1721.5,-901.2936 1721.5,-938.2936 2064.5,-938.2936 2064.5,-901.2936 1721.5,-901.2936"/>
<text text-anchor="middle" x="1893" y="-916.0936" font-family="Times,serif" font-size="14.00" fill="#000000">custom&#45;samplesheet&#45;split&#45;by&#45;settings v(1.0.0)</text>
</a>
</g>
</g>
<!-- file:///tmp/tmpgy0__7xn#ignore_missing_samples&#45;&gt;file:///tmp/tmpgy0__7xn#samplesheet_split_by_settings_step -->
<g id="edge22" class="edge">
<title>file:///tmp/tmpgy0__7xn#ignore_missing_samples&#45;&gt;file:///tmp/tmpgy0__7xn#samplesheet_split_by_settings_step</title>
<path fill="none" stroke="#000000" d="M2274.4979,-1101.227C2254.8997,-1091.7905 2230.6924,-1080.1565 2209,-1069.7936 2114.4007,-1024.6013 2003.6833,-972.1459 1941.6077,-942.7754"/>
<polygon fill="#000000" stroke="#000000" points="1942.9774,-939.5515 1932.4412,-938.4389 1939.9839,-945.8792 1942.9774,-939.5515"/>
</g>
<!-- file:///tmp/tmpgy0__7xn#delete_undetermined_indices_bcl_conversion -->
<g id="node4" class="node">
<title>file:///tmp/tmpgy0__7xn#delete_undetermined_indices_bcl_conversion</title>
<g id="a_node4"><a xlink:title="Delete undetermined indices on completion of the run&#10;">
<polygon fill="#94ddf4" stroke="#000000" points="16,-1101.2936 16,-1138.2936 358,-1138.2936 358,-1101.2936 16,-1101.2936"/>
<text text-anchor="middle" x="187" y="-1116.0936" font-family="Times,serif" font-size="14.00" fill="#000000">delete_undetermined_indices_bcl_conversion</text>
</a>
</g>
</g>
<!-- file:///tmp/tmpgy0__7xn#delete_undetermined_indices_bcl_conversion&#45;&gt;file:///tmp/tmpgy0__7xn#bcl_convert_step -->
<g id="edge23" class="edge">
<title>file:///tmp/tmpgy0__7xn#delete_undetermined_indices_bcl_conversion&#45;&gt;file:///tmp/tmpgy0__7xn#bcl_convert_step</title>
<path fill="none" stroke="#000000" d="M230.2006,-1101.188C430.8456,-1014.7745 1271.2801,-652.8175 1490.5133,-558.3985"/>
<polygon fill="#000000" stroke="#000000" points="1492.0748,-561.5368 1499.8748,-554.3667 1489.3059,-555.1077 1492.0748,-561.5368"/>
</g>
<!-- file:///tmp/tmpgy0__7xn#samplesheet -->
<g id="node5" class="node">
<title>file:///tmp/tmpgy0__7xn#samplesheet</title>
<g id="a_node5"><a xlink:title="The path to the full samplesheet&#10;">
<polygon fill="#94ddf4" stroke="#000000" points="2092.5,-1101.2936 2092.5,-1138.2936 2199.5,-1138.2936 2199.5,-1101.2936 2092.5,-1101.2936"/>
<text text-anchor="middle" x="2146" y="-1116.0936" font-family="Times,serif" font-size="14.00" fill="#000000">samplesheet</text>
</a>
</g>
</g>
<!-- file:///tmp/tmpgy0__7xn#samplesheet&#45;&gt;file:///tmp/tmpgy0__7xn#samplesheet_split_by_settings_step -->
<g id="edge24" class="edge">
<title>file:///tmp/tmpgy0__7xn#samplesheet&#45;&gt;file:///tmp/tmpgy0__7xn#samplesheet_split_by_settings_step</title>
<path fill="none" stroke="#000000" d="M2123.0906,-1101.2016C2111.4182,-1091.7587 2096.9837,-1080.1266 2084,-1069.7936 2028.332,-1025.4907 1963.0679,-974.4222 1925.0434,-944.7548"/>
<polygon fill="#000000" stroke="#000000" points="1926.9371,-941.7931 1916.8993,-938.4029 1922.6321,-947.3128 1926.9371,-941.7931"/>
</g>
<!-- file:///tmp/tmpgy0__7xn#samplesheet_outdir -->
<g id="node6" class="node">
<title>file:///tmp/tmpgy0__7xn#samplesheet_outdir</title>
<g id="a_node6"><a xlink:title="Output directory of the samplesheets split by settings&#10;">
<polygon fill="#94ddf4" stroke="#000000" points="1917,-1101.2936 1917,-1138.2936 2075,-1138.2936 2075,-1101.2936 1917,-1101.2936"/>
<text text-anchor="middle" x="1996" y="-1116.0936" font-family="Times,serif" font-size="14.00" fill="#000000">samplesheet_outdir</text>
</a>
</g>
</g>
<!-- file:///tmp/tmpgy0__7xn#samplesheet_outdir&#45;&gt;file:///tmp/tmpgy0__7xn#samplesheet_split_by_settings_step -->
<g id="edge25" class="edge">
<title>file:///tmp/tmpgy0__7xn#samplesheet_outdir&#45;&gt;file:///tmp/tmpgy0__7xn#samplesheet_split_by_settings_step</title>
<path fill="none" stroke="#000000" d="M1986.31,-1100.9781C1968.0512,-1065.5241 1928.4795,-988.6859 1907.2082,-947.3822"/>
<polygon fill="#000000" stroke="#000000" points="1910.2794,-945.7012 1902.5892,-938.4134 1904.0562,-948.9062 1910.2794,-945.7012"/>
</g>
<!-- file:///tmp/tmpgy0__7xn#first_tile_only_bcl_conversion -->
<g id="node7" class="node">
<title>file:///tmp/tmpgy0__7xn#first_tile_only_bcl_conversion</title>
<g id="a_node7"><a xlink:title="true — Only process the first tile of the first swath of the&#10; &#160;top surface of each lane specified in the sample sheet.&#10;false — Process all tiles in each lane, as specified in the sample&#10; &#160;sheet.&#10;">
<polygon fill="#94ddf4" stroke="#000000" points="376,-1101.2936 376,-1138.2936 606,-1138.2936 606,-1101.2936 376,-1101.2936"/>
<text text-anchor="middle" x="491" y="-1116.0936" font-family="Times,serif" font-size="14.00" fill="#000000">first_tile_only_bcl_conversion</text>
</a>
</g>
</g>
<!-- file:///tmp/tmpgy0__7xn#first_tile_only_bcl_conversion&#45;&gt;file:///tmp/tmpgy0__7xn#bcl_convert_step -->
<g id="edge26" class="edge">
<title>file:///tmp/tmpgy0__7xn#first_tile_only_bcl_conversion&#45;&gt;file:///tmp/tmpgy0__7xn#bcl_convert_step</title>
<path fill="none" stroke="#000000" d="M524.5155,-1101.188C679.7153,-1015.0315 1328.3238,-654.9674 1500.7504,-559.2478"/>
<polygon fill="#000000" stroke="#000000" points="1502.4986,-562.2805 1509.543,-554.3667 1499.101,-556.1602 1502.4986,-562.2805"/>
</g>
<!-- file:///tmp/tmpgy0__7xn#samplesheet_output_format -->
<g id="node8" class="node">
<title>file:///tmp/tmpgy0__7xn#samplesheet_output_format</title>
<g id="a_node8"><a xlink:title="Convert headers to v2 samplesheet format&#10;">
<polygon fill="#94ddf4" stroke="#000000" points="1681.5,-1101.2936 1681.5,-1138.2936 1898.5,-1138.2936 1898.5,-1101.2936 1681.5,-1101.2936"/>
<text text-anchor="middle" x="1790" y="-1116.0936" font-family="Times,serif" font-size="14.00" fill="#000000">samplesheet_output_format</text>
</a>
</g>
</g>
<!-- file:///tmp/tmpgy0__7xn#samplesheet_output_format&#45;&gt;file:///tmp/tmpgy0__7xn#samplesheet_split_by_settings_step -->
<g id="edge27" class="edge">
<title>file:///tmp/tmpgy0__7xn#samplesheet_output_format&#45;&gt;file:///tmp/tmpgy0__7xn#samplesheet_split_by_settings_step</title>
<path fill="none" stroke="#000000" d="M1799.69,-1100.9781C1817.9488,-1065.5241 1857.5205,-988.6859 1878.7918,-947.3822"/>
<polygon fill="#000000" stroke="#000000" points="1881.9438,-948.9062 1883.4108,-938.4134 1875.7206,-945.7012 1881.9438,-948.9062"/>
</g>
<!-- file:///tmp/tmpgy0__7xn#bcl_sampleproject_subdirectories_bcl_conversion -->
<g id="node9" class="node">
<title>file:///tmp/tmpgy0__7xn#bcl_sampleproject_subdirectories_bcl_conversion</title>
<g id="a_node9"><a xlink:title="true — Allows creation of Sample_Project subdirectories&#10;as specified in the sample sheet. This option must be set to true for&#10;the Sample_Project column in the data section to be used.&#10;">
<polygon fill="#94ddf4" stroke="#000000" points="624,-1101.2936 624,-1138.2936 998,-1138.2936 998,-1101.2936 624,-1101.2936"/>
<text text-anchor="middle" x="811" y="-1116.0936" font-family="Times,serif" font-size="14.00" fill="#000000">bcl_sampleproject_subdirectories_bcl_conversion</text>
</a>
</g>
</g>
<!-- file:///tmp/tmpgy0__7xn#bcl_sampleproject_subdirectories_bcl_conversion&#45;&gt;file:///tmp/tmpgy0__7xn#bcl_convert_step -->
<g id="edge28" class="edge">
<title>file:///tmp/tmpgy0__7xn#bcl_sampleproject_subdirectories_bcl_conversion&#45;&gt;file:///tmp/tmpgy0__7xn#bcl_convert_step</title>
<path fill="none" stroke="#000000" d="M834.5259,-1101.0243C942.2928,-1015.0464 1388.8083,-658.8099 1511.617,-560.8314"/>
<polygon fill="#000000" stroke="#000000" points="1513.9273,-563.4656 1519.5616,-554.4931 1509.5617,-557.9937 1513.9273,-563.4656"/>
</g>
<!-- file:///tmp/tmpgy0__7xn#settings_by_samples -->
<g id="node10" class="node">
<title>file:///tmp/tmpgy0__7xn#settings_by_samples</title>
<g id="a_node10"><a xlink:title="List of settings by samples&#10;">
<polygon fill="#94ddf4" stroke="#000000" points="1498.5,-1101.2936 1498.5,-1138.2936 1663.5,-1138.2936 1663.5,-1101.2936 1498.5,-1101.2936"/>
<text text-anchor="middle" x="1581" y="-1116.0936" font-family="Times,serif" font-size="14.00" fill="#000000">settings_by_samples</text>
</a>
</g>
</g>
<!-- file:///tmp/tmpgy0__7xn#settings_by_samples&#45;&gt;file:///tmp/tmpgy0__7xn#samplesheet_split_by_settings_step -->
<g id="edge29" class="edge">
<title>file:///tmp/tmpgy0__7xn#settings_by_samples&#45;&gt;file:///tmp/tmpgy0__7xn#samplesheet_split_by_settings_step</title>
<path fill="none" stroke="#000000" d="M1610.072,-1101.1577C1666.8534,-1064.7594 1792.4366,-984.2573 1855.4287,-943.8777"/>
<polygon fill="#000000" stroke="#000000" points="1857.3581,-946.7983 1863.8881,-938.4551 1853.5804,-940.9052 1857.3581,-946.7983"/>
</g>
<!-- file:///tmp/tmpgy0__7xn#strict_mode_bcl_conversion -->
<g id="node11" class="node">
<title>file:///tmp/tmpgy0__7xn#strict_mode_bcl_conversion</title>
<g id="a_node11"><a xlink:title="true — Abort the program if any filter, locs, bcl, or bci lane&#10;files are missing or corrupt.&#10;false — Continue processing if any filter, locs, bcl, or bci lane files&#10;are missing. Return a warning message for each missing or corrupt&#10;file.&#10;">
<polygon fill="#94ddf4" stroke="#000000" points="1016.5,-1101.2936 1016.5,-1138.2936 1233.5,-1138.2936 1233.5,-1101.2936 1016.5,-1101.2936"/>
<text text-anchor="middle" x="1125" y="-1116.0936" font-family="Times,serif" font-size="14.00" fill="#000000">strict_mode_bcl_conversion</text>
</a>
</g>
</g>
<!-- file:///tmp/tmpgy0__7xn#strict_mode_bcl_conversion&#45;&gt;file:///tmp/tmpgy0__7xn#bcl_convert_step -->
<g id="edge30" class="edge">
<title>file:///tmp/tmpgy0__7xn#strict_mode_bcl_conversion&#45;&gt;file:///tmp/tmpgy0__7xn#bcl_convert_step</title>
<path fill="none" stroke="#000000" d="M1138.4342,-1101.0243C1199.5428,-1015.6476 1451.394,-663.7791 1523.5809,-562.9246"/>
<polygon fill="#000000" stroke="#000000" points="1526.6415,-564.6619 1529.6158,-554.4931 1520.9493,-560.5877 1526.6415,-564.6619"/>
</g>
<!-- file:///tmp/tmpgy0__7xn#bcl_only_lane_bcl_conversion -->
<g id="node12" class="node">
<title>file:///tmp/tmpgy0__7xn#bcl_only_lane_bcl_conversion</title>
<g id="a_node12"><a xlink:title="Convert only the specified lane number. The value must&#10;be less than or equal to the number of lanes specified in the&#10;RunInfo.xml. Must be a single integer value.&#10;">
<polygon fill="#94ddf4" stroke="#000000" points="1252,-1101.2936 1252,-1138.2936 1480,-1138.2936 1480,-1101.2936 1252,-1101.2936"/>
<text text-anchor="middle" x="1366" y="-1116.0936" font-family="Times,serif" font-size="14.00" fill="#000000">bcl_only_lane_bcl_conversion</text>
</a>
</g>
</g>
<!-- file:///tmp/tmpgy0__7xn#bcl_only_lane_bcl_conversion&#45;&gt;file:///tmp/tmpgy0__7xn#bcl_convert_step -->
<g id="edge31" class="edge">
<title>file:///tmp/tmpgy0__7xn#bcl_only_lane_bcl_conversion&#45;&gt;file:///tmp/tmpgy0__7xn#bcl_convert_step</title>
<path fill="none" stroke="#000000" d="M1371.6886,-1101.0243C1397.4607,-1015.9912 1503.3529,-666.6067 1534.4044,-564.1543"/>
<polygon fill="#000000" stroke="#000000" points="1537.7815,-565.0784 1537.3325,-554.4931 1531.0824,-563.048 1537.7815,-565.0784"/>
</g>
<!-- file:///tmp/tmpgy0__7xn#split_sheets -->
<g id="node13" class="node">
<title>file:///tmp/tmpgy0__7xn#split_sheets</title>
<g id="a_node13"><a xlink:title="List of samplesheets split by override cycles&#10;">
<polygon fill="#94ddf4" stroke="#000000" points="1821,-132.2936 1821,-169.2936 1923,-169.2936 1923,-132.2936 1821,-132.2936"/>
<text text-anchor="middle" x="1872" y="-147.0936" font-family="Times,serif" font-size="14.00" fill="#000000">split_sheets</text>
</a>
</g>
</g>
<!-- file:///tmp/tmpgy0__7xn#fastq_list_rows -->
<g id="node14" class="node">
<title>file:///tmp/tmpgy0__7xn#fastq_list_rows</title>
<g id="a_node14"><a xlink:title="Contains the fastq list row schema for each of the output fastq files&#10;">
<polygon fill="#94ddf4" stroke="#000000" points="1677.5,-132.2936 1677.5,-169.2936 1802.5,-169.2936 1802.5,-132.2936 1677.5,-132.2936"/>
<text text-anchor="middle" x="1740" y="-147.0936" font-family="Times,serif" font-size="14.00" fill="#000000">fastq_list_rows</text>
</a>
</g>
</g>
<!-- file:///tmp/tmpgy0__7xn#interop_multiqc_out -->
<g id="node15" class="node">
<title>file:///tmp/tmpgy0__7xn#interop_multiqc_out</title>
<g id="a_node15"><a xlink:title="multiqc directory output that contains interop data&#10;">
<polygon fill="#94ddf4" stroke="#000000" points="2293.5,-132.2936 2293.5,-169.2936 2454.5,-169.2936 2454.5,-132.2936 2293.5,-132.2936"/>
<text text-anchor="middle" x="2374" y="-147.0936" font-family="Times,serif" font-size="14.00" fill="#000000">interop_multiqc_out</text>
</a>
</g>
</g>
<!-- file:///tmp/tmpgy0__7xn#bclconvert_multiqc_out -->
<g id="node16" class="node">
<title>file:///tmp/tmpgy0__7xn#bclconvert_multiqc_out</title>
<g id="a_node16"><a xlink:title="multiqc directory output that contains bclconvert multiqc data&#10;">
<polygon fill="#94ddf4" stroke="#000000" points="2089,-132.2936 2089,-169.2936 2275,-169.2936 2275,-132.2936 2089,-132.2936"/>
<text text-anchor="middle" x="2182" y="-147.0936" font-family="Times,serif" font-size="14.00" fill="#000000">bclconvert_multiqc_out</text>
</a>
</g>
</g>
<!-- file:///tmp/tmpgy0__7xn#fastq_directories -->
<g id="node17" class="node">
<title>file:///tmp/tmpgy0__7xn#fastq_directories</title>
<g id="a_node17"><a xlink:title="The outputs from the bclconvert&#45;step&#10;">
<polygon fill="#94ddf4" stroke="#000000" points="1521,-132.2936 1521,-169.2936 1659,-169.2936 1659,-132.2936 1521,-132.2936"/>
<text text-anchor="middle" x="1590" y="-147.0936" font-family="Times,serif" font-size="14.00" fill="#000000">fastq_directories</text>
</a>
</g>
</g>
<!-- file:///tmp/tmpgy0__7xn#split_sheets_dir -->
<g id="node18" class="node">
<title>file:///tmp/tmpgy0__7xn#split_sheets_dir</title>
<g id="a_node18"><a xlink:title="The directory containing the samplesheets used for each bcl convert&#10;">
<polygon fill="#94ddf4" stroke="#000000" points="1941,-132.2936 1941,-169.2936 2071,-169.2936 2071,-132.2936 1941,-132.2936"/>
<text text-anchor="middle" x="2006" y="-147.0936" font-family="Times,serif" font-size="14.00" fill="#000000">split_sheets_dir</text>
</a>
</g>
</g>
<!-- file:///tmp/tmpgy0__7xn#bcl_convert_step&#45;&gt;file:///tmp/tmpgy0__7xn#fastq_directories -->
<g id="edge3" class="edge">
<title>file:///tmp/tmpgy0__7xn#bcl_convert_step&#45;&gt;file:///tmp/tmpgy0__7xn#fastq_directories</title>
<path fill="none" stroke="#000000" d="M1544.3847,-517.0348C1547.2026,-480.0115 1554.0981,-394.9588 1563,-323.7936 1569.3666,-272.8966 1579.0706,-213.9343 1584.9465,-179.6516"/>
<polygon fill="#000000" stroke="#000000" points="1588.4589,-179.8791 1586.7106,-169.4295 1581.5609,-178.6885 1588.4589,-179.8791"/>
</g>
<!-- file:///tmp/tmpgy0__7xn#flatten_fastq_list_rows_array -->
<g id="node20" class="node">
<title>file:///tmp/tmpgy0__7xn#flatten_fastq_list_rows_array</title>
<g id="a_node20"><a xlink:href="https://github.com/umccr/cwl-ica/blob/beta-release/.github/catalogue/docs/expressions/flatten-array-fastq-list/1.0.0/flatten-array-fastq-list__1.0.0.md" xlink:title="fastq list rows is an array and bcl convert is from a directory output.&#10;This scatters the arrays to a single array&#10;">
<polygon fill="#ee9a00" stroke="#000000" points="1571.5,-324.2936 1571.5,-361.2936 1864.5,-361.2936 1864.5,-324.2936 1571.5,-324.2936"/>
<text text-anchor="middle" x="1718" y="-339.0936" font-family="Times,serif" font-size="14.00" fill="#000000">flatten&#45;array&#45;fastq&#45;list&#45;schema v(1.0.0)</text>
</a>
</g>
</g>
<!-- file:///tmp/tmpgy0__7xn#bcl_convert_step&#45;&gt;file:///tmp/tmpgy0__7xn#flatten_fastq_list_rows_array -->
<g id="edge1" class="edge">
<title>file:///tmp/tmpgy0__7xn#bcl_convert_step&#45;&gt;file:///tmp/tmpgy0__7xn#flatten_fastq_list_rows_array</title>
<path fill="none" stroke="#000000" d="M1559.7797,-517.2879C1591.0586,-482.7918 1658.3495,-408.5796 1694.2684,-368.9661"/>
<polygon fill="#000000" stroke="#000000" points="1696.8896,-371.2859 1701.0139,-361.5268 1691.7039,-366.5839 1696.8896,-371.2859"/>
</g>
<!-- file:///tmp/tmpgy0__7xn#bcl_convert_step&#45;&gt;file:///tmp/tmpgy0__7xn#bclconvert_qc_step -->
<g id="edge2" class="edge">
<title>file:///tmp/tmpgy0__7xn#bcl_convert_step&#45;&gt;file:///tmp/tmpgy0__7xn#bclconvert_qc_step</title>
<path fill="none" stroke="#000000" d="M1620.6236,-520.5686C1803.7721,-484.6462 2261.3339,-394.9009 2446.9144,-358.5014"/>
<polygon fill="#000000" stroke="#000000" points="2447.7389,-361.9065 2456.8782,-356.5471 2446.3915,-355.0374 2447.7389,-361.9065"/>
</g>
<!-- file:///tmp/tmpgy0__7xn#flatten_fastq_list_rows_array&#45;&gt;file:///tmp/tmpgy0__7xn#fastq_list_rows -->
<g id="edge4" class="edge">
<title>file:///tmp/tmpgy0__7xn#flatten_fastq_list_rows_array&#45;&gt;file:///tmp/tmpgy0__7xn#fastq_list_rows</title>
<path fill="none" stroke="#000000" d="M1720.1495,-324.0342C1724.0121,-290.3246 1732.1487,-219.3143 1736.7144,-179.4677"/>
<polygon fill="#000000" stroke="#000000" points="1740.2129,-179.6799 1737.8742,-169.3464 1733.2584,-178.8829 1740.2129,-179.6799"/>
</g>
<!-- file:///tmp/tmpgy0__7xn#bclconvert_qc_step&#45;&gt;file:///tmp/tmpgy0__7xn#bclconvert_multiqc_out -->
<g id="edge10" class="edge">
<title>file:///tmp/tmpgy0__7xn#bclconvert_qc_step&#45;&gt;file:///tmp/tmpgy0__7xn#bclconvert_multiqc_out</title>
<path fill="none" stroke="#000000" d="M2493.6065,-324.2094C2430.4893,-289.0833 2293.8003,-213.0129 2224.3474,-174.3609"/>
<polygon fill="#000000" stroke="#000000" points="2225.852,-171.1927 2215.4119,-169.388 2222.4479,-177.3093 2225.852,-171.1927"/>
</g>
<!-- file:///tmp/tmpgy0__7xn#samplesheet_split_by_settings_step&#45;&gt;file:///tmp/tmpgy0__7xn#split_sheets -->
<g id="edge7" class="edge">
<title>file:///tmp/tmpgy0__7xn#samplesheet_split_by_settings_step&#45;&gt;file:///tmp/tmpgy0__7xn#split_sheets</title>
<path fill="none" stroke="#000000" d="M1892.4913,-901.1655C1889.6974,-798.8566 1876.2199,-305.3215 1872.7936,-179.8535"/>
<polygon fill="#000000" stroke="#000000" points="1876.2832,-179.4206 1872.5114,-169.5199 1869.2858,-179.6118 1876.2832,-179.4206"/>
</g>
<!-- file:///tmp/tmpgy0__7xn#samplesheet_split_by_settings_step&#45;&gt;file:///tmp/tmpgy0__7xn#split_sheets_dir -->
<g id="edge8" class="edge">
<title>file:///tmp/tmpgy0__7xn#samplesheet_split_by_settings_step&#45;&gt;file:///tmp/tmpgy0__7xn#split_sheets_dir</title>
<path fill="none" stroke="#000000" d="M1895.7373,-901.1655C1910.7861,-798.7537 1983.439,-304.3281 2001.7853,-179.4759"/>
<polygon fill="#000000" stroke="#000000" points="2005.2572,-179.9225 2003.2483,-169.5199 1998.3315,-178.9048 2005.2572,-179.9225"/>
</g>
<!-- file:///tmp/tmpgy0__7xn#samplesheet_split_by_settings_step&#45;&gt;file:///tmp/tmpgy0__7xn#bcl_convert_step -->
<g id="edge5" class="edge">
<title>file:///tmp/tmpgy0__7xn#samplesheet_split_by_settings_step&#45;&gt;file:///tmp/tmpgy0__7xn#bcl_convert_step</title>
<path fill="none" stroke="#000000" d="M1815.6348,-901.2234C1739.0496,-878.4912 1625.0838,-832.0444 1567,-746.7936 1529.204,-691.3196 1533.0302,-608.0246 1538.3923,-564.5418"/>
<polygon fill="#000000" stroke="#000000" points="1541.8939,-564.7644 1539.7642,-554.3858 1534.9569,-563.8272 1541.8939,-564.7644"/>
</g>
<!-- file:///tmp/tmpgy0__7xn#get_batch_dirs -->
<g id="node23" class="node">
<title>file:///tmp/tmpgy0__7xn#get_batch_dirs</title>
<g id="a_node23"><a xlink:href="https://github.com/umccr/cwl-ica/blob/beta-release/.github/catalogue/docs/expressions/get-samplesheet-midfix-regex/1.0.0/get-samplesheet-midfix-regex__1.0.0.md" xlink:title="Get the directory names of each of the directories we wish to scatter over&#10;">
<polygon fill="#ee9a00" stroke="#000000" points="1576,-709.2936 1576,-746.2936 1864,-746.2936 1864,-709.2936 1576,-709.2936"/>
<text text-anchor="middle" x="1720" y="-724.0936" font-family="Times,serif" font-size="14.00" fill="#000000">get&#45;samplesheet&#45;midfix&#45;regex v(1.0.0)</text>
</a>
</g>
</g>
<!-- file:///tmp/tmpgy0__7xn#samplesheet_split_by_settings_step&#45;&gt;file:///tmp/tmpgy0__7xn#get_batch_dirs -->
<g id="edge6" class="edge">
<title>file:///tmp/tmpgy0__7xn#samplesheet_split_by_settings_step&#45;&gt;file:///tmp/tmpgy0__7xn#get_batch_dirs</title>
<path fill="none" stroke="#000000" d="M1876.097,-901.0342C1845.1404,-866.6777 1779.272,-793.5752 1743.8011,-754.2087"/>
<polygon fill="#000000" stroke="#000000" points="1746.011,-751.4326 1736.7169,-746.3464 1740.8106,-756.1184 1746.011,-751.4326"/>
</g>
<!-- file:///tmp/tmpgy0__7xn#get_batch_dirs&#45;&gt;file:///tmp/tmpgy0__7xn#bcl_convert_step -->
<g id="edge9" class="edge">
<title>file:///tmp/tmpgy0__7xn#get_batch_dirs&#45;&gt;file:///tmp/tmpgy0__7xn#bcl_convert_step</title>
<path fill="none" stroke="#000000" d="M1702.7062,-709.0342C1670.9013,-674.534 1603.0779,-600.9628 1566.8975,-561.7163"/>
<polygon fill="#000000" stroke="#000000" points="1569.4548,-559.3265 1560.1034,-554.3464 1564.3081,-564.0712 1569.4548,-559.3265"/>
</g>
<!-- file:///tmp/tmpgy0__7xn#create_dummy_file_step -->
<g id="node24" class="node">
<title>file:///tmp/tmpgy0__7xn#create_dummy_file_step</title>
<g id="a_node24"><a xlink:href="https://github.com/umccr/cwl-ica/blob/beta-release/.github/catalogue/docs/tools/custom-touch-file/1.0.0/custom-touch-file__1.0.0.md" xlink:title="Intermediate step for letting multiqc&#45;interop be placed in stream mode&#10;">
<polygon fill="#fafad2" stroke="#000000" points="2750.5,-1101.2936 2750.5,-1138.2936 3013.5,-1138.2936 3013.5,-1101.2936 2750.5,-1101.2936"/>
<text text-anchor="middle" x="2882" y="-1116.0936" font-family="Times,serif" font-size="14.00" fill="#000000">custom&#45;create&#45;dummy&#45;file v(1.0.0)</text>
</a>
</g>
</g>
<!-- file:///tmp/tmpgy0__7xn#create_dummy_file_step&#45;&gt;file:///tmp/tmpgy0__7xn#bclconvert_qc_step -->
<g id="edge11" class="edge">
<title>file:///tmp/tmpgy0__7xn#create_dummy_file_step&#45;&gt;file:///tmp/tmpgy0__7xn#bclconvert_qc_step</title>
<path fill="none" stroke="#000000" d="M2873.4006,-1100.9717C2825.9767,-997.1737 2596.4604,-494.8238 2539.7097,-370.6118"/>
<polygon fill="#000000" stroke="#000000" points="2542.8254,-369.0089 2535.4863,-361.3677 2536.4585,-371.9179 2542.8254,-369.0089"/>
</g>
<!-- file:///tmp/tmpgy0__7xn#create_dummy_file_step&#45;&gt;file:///tmp/tmpgy0__7xn#interop_qc_step -->
<g id="edge12" class="edge">
<title>file:///tmp/tmpgy0__7xn#create_dummy_file_step&#45;&gt;file:///tmp/tmpgy0__7xn#interop_qc_step</title>
<path fill="none" stroke="#000000" d="M2861.7733,-1100.9781C2823.0185,-1064.927 2738.2643,-986.0859 2694.4473,-945.3259"/>
<polygon fill="#000000" stroke="#000000" points="2696.7221,-942.6618 2687.0163,-938.4134 2691.9543,-947.7871 2696.7221,-942.6618"/>
</g>
<!-- file:///tmp/tmpgy0__7xn#interop_qc_step&#45;&gt;file:///tmp/tmpgy0__7xn#interop_multiqc_out -->
<g id="edge13" class="edge">
<title>file:///tmp/tmpgy0__7xn#interop_qc_step&#45;&gt;file:///tmp/tmpgy0__7xn#interop_multiqc_out</title>
<path fill="none" stroke="#000000" d="M2670.1689,-901.1561C2682.3068,-823.9884 2719.68,-524.1822 2606,-323.7936 2565.3391,-252.119 2481.5522,-201.2746 2426.5881,-173.9893"/>
<polygon fill="#000000" stroke="#000000" points="2427.8751,-170.7231 2417.3522,-169.4909 2424.8099,-177.0164 2427.8751,-170.7231"/>
</g>
</g>
</svg>
