<?xml version="1.0" encoding="UTF-8" standalone="no"?>
<!DOCTYPE svg PUBLIC "-//W3C//DTD SVG 1.1//EN"
 "http://www.w3.org/Graphics/SVG/1.1/DTD/svg11.dtd">
<!-- Generated by graphviz version 2.40.1 (20161225.0304)
 -->
<!-- Title: G Pages: 1 -->
<svg width="3022pt" height="1219pt"
 viewBox="0.00 0.00 3021.50 1219.23" xmlns="http://www.w3.org/2000/svg" xmlns:xlink="http://www.w3.org/1999/xlink">
<g id="graph0" class="graph" transform="scale(1 1) rotate(0) translate(4 1215.226)">
<title>G</title>
<polygon fill="#eeeeee" stroke="transparent" points="-4,4 -4,-1215.226 3017.5,-1215.226 3017.5,4 -4,4"/>
<g id="clust1" class="cluster">
<title>cluster_inputs</title>
<polygon fill="#eeeeee" stroke="#000000" stroke-dasharray="5,2" points="8,-990.2942 8,-1190.4324 2740,-1190.4324 2740,-990.2942 8,-990.2942"/>
<text text-anchor="middle" x="2672" y="-998.0942" font-family="Times,serif" font-size="14.00" fill="#000000">Workflow Inputs</text>
</g>
<g id="clust2" class="cluster">
<title>cluster_outputs</title>
<polygon fill="#eeeeee" stroke="#000000" stroke-dasharray="5,2" points="1121,-20.7936 1121,-220.9318 2071,-220.9318 2071,-20.7936 1121,-20.7936"/>
<text text-anchor="middle" x="1997" y="-28.5936" font-family="Times,serif" font-size="14.00" fill="#000000">Workflow Outputs</text>
</g>
<!-- file:///tmp/tmpvh_eezpt#samplesheet_outdir -->
<g id="node1" class="node">
<title>file:///tmp/tmpvh_eezpt#samplesheet_outdir</title>
<g id="a_node1"><a xlink:title="Output directory of the samplesheets split by settings&#10;">
<polygon fill="#94ddf4" stroke="#000000" points="252,-1101.2936 252,-1138.2936 410,-1138.2936 410,-1101.2936 252,-1101.2936"/>
<text text-anchor="middle" x="331" y="-1116.0936" font-family="Times,serif" font-size="14.00" fill="#000000">samplesheet_outdir</text>
</a>
</g>
</g>
<!-- file:///tmp/tmpvh_eezpt#samplesheet_split_by_settings_step -->
<g id="node19" class="node">
<title>file:///tmp/tmpvh_eezpt#samplesheet_split_by_settings_step</title>
<g id="a_node19"><a xlink:href="https://github.com/umccr/cwl-ica/blob/beta-release/.github/catalogue/docs/tools/custom-samplesheet-split-by-settings/1.0.0/custom-samplesheet-split-by-settings__1.0.0.md" xlink:title="Samplesheet is split by the different input types.&#10;These are generally a difference in override cycles parameters or adapter trimming settings&#10;This then scatters multiple bclconvert workflows split by sample id&#10;">
<polygon fill="#fafad2" stroke="#000000" points="894.5,-901.2936 894.5,-938.2936 1237.5,-938.2936 1237.5,-901.2936 894.5,-901.2936"/>
<text text-anchor="middle" x="1066" y="-916.0936" font-family="Times,serif" font-size="14.00" fill="#000000">custom&#45;samplesheet&#45;split&#45;by&#45;settings v(1.0.0)</text>
</a>
</g>
</g>
<!-- file:///tmp/tmpvh_eezpt#samplesheet_outdir&#45;&gt;file:///tmp/tmpvh_eezpt#samplesheet_split_by_settings_step -->
<g id="edge14" class="edge">
<title>file:///tmp/tmpvh_eezpt#samplesheet_outdir&#45;&gt;file:///tmp/tmpvh_eezpt#samplesheet_split_by_settings_step</title>
<path fill="none" stroke="#000000" d="M358.8947,-1101.1737C375.705,-1090.6698 397.8851,-1078.0381 419,-1069.7936 588.2294,-1003.7163 794.2276,-962.1564 927.6333,-939.9643"/>
<polygon fill="#000000" stroke="#000000" points="928.2139,-943.4159 937.5106,-938.3345 927.0742,-936.5093 928.2139,-943.4159"/>
</g>
<!-- file:///tmp/tmpvh_eezpt#bcl_input_directory -->
<g id="node2" class="node">
<title>file:///tmp/tmpvh_eezpt#bcl_input_directory</title>
<g id="a_node2"><a xlink:title="Path to the bcl files&#10;">
<polygon fill="#94ddf4" stroke="#000000" points="2426.5,-1101.2936 2426.5,-1138.2936 2583.5,-1138.2936 2583.5,-1101.2936 2426.5,-1101.2936"/>
<text text-anchor="middle" x="2505" y="-1116.0936" font-family="Times,serif" font-size="14.00" fill="#000000">bcl_input_directory</text>
</a>
</g>
</g>
<!-- file:///tmp/tmpvh_eezpt#bcl_convert_step -->
<g id="node20" class="node">
<title>file:///tmp/tmpvh_eezpt#bcl_convert_step</title>
<g id="a_node20"><a xlink:href="https://github.com/umccr/cwl-ica/blob/beta-release/.github/catalogue/docs/tools/bclConvert/3.7.5/bclConvert__3.7.5.md" xlink:title="BCLConvert is then scattered across each of the samplesheets.&#10;">
<polygon fill="#fafad2" stroke="#000000" points="1463.5,-517.2936 1463.5,-554.2936 1618.5,-554.2936 1618.5,-517.2936 1463.5,-517.2936"/>
<text text-anchor="middle" x="1541" y="-532.0936" font-family="Times,serif" font-size="14.00" fill="#000000">bclConvert v(3.7.5)</text>
</a>
</g>
</g>
<!-- file:///tmp/tmpvh_eezpt#bcl_input_directory&#45;&gt;file:///tmp/tmpvh_eezpt#bcl_convert_step -->
<g id="edge15" class="edge">
<title>file:///tmp/tmpvh_eezpt#bcl_input_directory&#45;&gt;file:///tmp/tmpvh_eezpt#bcl_convert_step</title>
<path fill="none" stroke="#000000" d="M2474.2881,-1101.188C2332.2909,-1015.1648 1739.5577,-656.0816 1580.4524,-559.6942"/>
<polygon fill="#000000" stroke="#000000" points="1582.2659,-556.7007 1571.8995,-554.5128 1578.6389,-562.6878 1582.2659,-556.7007"/>
</g>
<!-- file:///tmp/tmpvh_eezpt#interop_qc_step -->
<g id="node25" class="node">
<title>file:///tmp/tmpvh_eezpt#interop_qc_step</title>
<g id="a_node25"><a xlink:href="https://github.com/umccr/cwl-ica/blob/beta-release/.github/catalogue/docs/tools/multiqc-interop/1.2.1/multiqc-interop__1.2.1.md" xlink:title="Run the multiqc by first also generating the interop files for use&#10;">
<polygon fill="#fafad2" stroke="#000000" points="2573.5,-901.2936 2573.5,-938.2936 2760.5,-938.2936 2760.5,-901.2936 2573.5,-901.2936"/>
<text text-anchor="middle" x="2667" y="-916.0936" font-family="Times,serif" font-size="14.00" fill="#000000">multiqc&#45;interop v(1.2.1)</text>
</a>
</g>
</g>
<!-- file:///tmp/tmpvh_eezpt#bcl_input_directory&#45;&gt;file:///tmp/tmpvh_eezpt#interop_qc_step -->
<g id="edge16" class="edge">
<title>file:///tmp/tmpvh_eezpt#bcl_input_directory&#45;&gt;file:///tmp/tmpvh_eezpt#interop_qc_step</title>
<path fill="none" stroke="#000000" d="M2520.2406,-1100.9781C2549.2001,-1065.2256 2612.2478,-987.3888 2645.4922,-946.3464"/>
<polygon fill="#000000" stroke="#000000" points="2648.3434,-948.387 2651.9179,-938.4134 2642.904,-943.9811 2648.3434,-948.387"/>
</g>
<!-- file:///tmp/tmpvh_eezpt#samplesheet_output_format -->
<g id="node3" class="node">
<title>file:///tmp/tmpvh_eezpt#samplesheet_output_format</title>
<g id="a_node3"><a xlink:title="Convert headers to v2 samplesheet format&#10;">
<polygon fill="#94ddf4" stroke="#000000" points="735.5,-1101.2936 735.5,-1138.2936 952.5,-1138.2936 952.5,-1101.2936 735.5,-1101.2936"/>
<text text-anchor="middle" x="844" y="-1116.0936" font-family="Times,serif" font-size="14.00" fill="#000000">samplesheet_output_format</text>
</a>
</g>
</g>
<!-- file:///tmp/tmpvh_eezpt#samplesheet_output_format&#45;&gt;file:///tmp/tmpvh_eezpt#samplesheet_split_by_settings_step -->
<g id="edge17" class="edge">
<title>file:///tmp/tmpvh_eezpt#samplesheet_output_format&#45;&gt;file:///tmp/tmpvh_eezpt#samplesheet_split_by_settings_step</title>
<path fill="none" stroke="#000000" d="M864.8852,-1100.9781C904.9019,-1064.927 992.4155,-986.0859 1037.6591,-945.3259"/>
<polygon fill="#000000" stroke="#000000" points="1040.245,-947.7071 1045.332,-938.4134 1035.5597,-942.5064 1040.245,-947.7071"/>
</g>
<!-- file:///tmp/tmpvh_eezpt#runfolder_name -->
<g id="node4" class="node">
<title>file:///tmp/tmpvh_eezpt#runfolder_name</title>
<g id="a_node4"><a xlink:title="Required &#45; used in naming run specific folder, reports and headings&#10;">
<polygon fill="#94ddf4" stroke="#000000" points="2602,-1101.2936 2602,-1138.2936 2732,-1138.2936 2732,-1101.2936 2602,-1101.2936"/>
<text text-anchor="middle" x="2667" y="-1116.0936" font-family="Times,serif" font-size="14.00" fill="#000000">runfolder_name</text>
</a>
</g>
</g>
<!-- file:///tmp/tmpvh_eezpt#bclconvert_qc_step -->
<g id="node23" class="node">
<title>file:///tmp/tmpvh_eezpt#bclconvert_qc_step</title>
<g id="a_node23"><a xlink:href="https://github.com/umccr/cwl-ica/blob/beta-release/.github/catalogue/docs/tools/multiqc/1.11.0/multiqc__1.11.0.md" xlink:title="The bclconvert qc step &#45; from scatter this takes in an array of dirs&#10;">
<polygon fill="#fafad2" stroke="#000000" points="2457,-324.2936 2457,-361.2936 2597,-361.2936 2597,-324.2936 2457,-324.2936"/>
<text text-anchor="middle" x="2527" y="-339.0936" font-family="Times,serif" font-size="14.00" fill="#000000">multiqc v(1.11.0)</text>
</a>
</g>
</g>
<!-- file:///tmp/tmpvh_eezpt#runfolder_name&#45;&gt;file:///tmp/tmpvh_eezpt#bclconvert_qc_step -->
<g id="edge18" class="edge">
<title>file:///tmp/tmpvh_eezpt#runfolder_name&#45;&gt;file:///tmp/tmpvh_eezpt#bclconvert_qc_step</title>
<path fill="none" stroke="#000000" d="M2641.7191,-1101.2756C2611.5244,-1069.8734 2566.1344,-1003.285 2547,-938.7936 2484.5748,-728.3932 2499.4017,-458.463 2516.5834,-371.2901"/>
<polygon fill="#000000" stroke="#000000" points="2520.0393,-371.8687 2518.7402,-361.3538 2513.1986,-370.3838 2520.0393,-371.8687"/>
</g>
<!-- file:///tmp/tmpvh_eezpt#runfolder_name&#45;&gt;file:///tmp/tmpvh_eezpt#bclconvert_qc_step -->
<g id="edge19" class="edge">
<title>file:///tmp/tmpvh_eezpt#runfolder_name&#45;&gt;file:///tmp/tmpvh_eezpt#bclconvert_qc_step</title>
<path fill="none" stroke="#000000" d="M2652.7594,-1101.2756C2629.5244,-1069.8734 2584.1344,-1003.285 2565,-938.7936 2502.6383,-728.6072 2517.3716,-459.0121 2524.3869,-371.5567"/>
<polygon fill="#000000" stroke="#000000" points="2527.8945,-371.6102 2525.238,-361.3538 2520.9187,-371.0282 2527.8945,-371.6102"/>
</g>
<!-- file:///tmp/tmpvh_eezpt#runfolder_name&#45;&gt;file:///tmp/tmpvh_eezpt#bclconvert_qc_step -->
<g id="edge20" class="edge">
<title>file:///tmp/tmpvh_eezpt#runfolder_name&#45;&gt;file:///tmp/tmpvh_eezpt#bclconvert_qc_step</title>
<path fill="none" stroke="#000000" d="M2663.7997,-1101.2756C2647.5244,-1069.8734 2602.1344,-1003.285 2583,-938.7936 2520.6383,-728.6072 2535.3716,-459.0121 2532.2428,-371.5567"/>
<polygon fill="#000000" stroke="#000000" points="2535.7279,-371.1678 2531.7359,-361.3538 2528.7365,-371.5152 2535.7279,-371.1678"/>
</g>
<!-- file:///tmp/tmpvh_eezpt#runfolder_name&#45;&gt;file:///tmp/tmpvh_eezpt#interop_qc_step -->
<g id="edge21" class="edge">
<title>file:///tmp/tmpvh_eezpt#runfolder_name&#45;&gt;file:///tmp/tmpvh_eezpt#interop_qc_step</title>
<path fill="none" stroke="#000000" d="M2658.7077,-1100.9781C2652.3092,-1065.8227 2651.8069,-989.9771 2657.2008,-948.4332"/>
<polygon fill="#000000" stroke="#000000" points="2660.681,-948.8296 2658.7435,-938.4134 2653.7625,-947.7643 2660.681,-948.8296"/>
</g>
<!-- file:///tmp/tmpvh_eezpt#runfolder_name&#45;&gt;file:///tmp/tmpvh_eezpt#interop_qc_step -->
<g id="edge22" class="edge">
<title>file:///tmp/tmpvh_eezpt#runfolder_name&#45;&gt;file:///tmp/tmpvh_eezpt#interop_qc_step</title>
<path fill="none" stroke="#000000" d="M2667,-1100.9781C2667,-1065.8227 2667,-989.9771 2667,-948.4332"/>
<polygon fill="#000000" stroke="#000000" points="2670.5001,-948.4134 2667,-938.4134 2663.5001,-948.4134 2670.5001,-948.4134"/>
</g>
<!-- file:///tmp/tmpvh_eezpt#runfolder_name&#45;&gt;file:///tmp/tmpvh_eezpt#interop_qc_step -->
<g id="edge23" class="edge">
<title>file:///tmp/tmpvh_eezpt#runfolder_name&#45;&gt;file:///tmp/tmpvh_eezpt#interop_qc_step</title>
<path fill="none" stroke="#000000" d="M2675.2923,-1100.9781C2681.6908,-1065.8227 2682.1931,-989.9771 2676.7992,-948.4332"/>
<polygon fill="#000000" stroke="#000000" points="2680.2375,-947.7643 2675.2565,-938.4134 2673.319,-948.8296 2680.2375,-947.7643"/>
</g>
<!-- file:///tmp/tmpvh_eezpt#bcl_sampleproject_subdirectories_bcl_conversion -->
<g id="node5" class="node">
<title>file:///tmp/tmpvh_eezpt#bcl_sampleproject_subdirectories_bcl_conversion</title>
<g id="a_node5"><a xlink:title="true — Allows creation of Sample_Project subdirectories&#10;as specified in the sample sheet. This option must be set to true for&#10;the Sample_Project column in the data section to be used.&#10;">
<polygon fill="#94ddf4" stroke="#000000" points="2034,-1101.2936 2034,-1138.2936 2408,-1138.2936 2408,-1101.2936 2034,-1101.2936"/>
<text text-anchor="middle" x="2221" y="-1116.0936" font-family="Times,serif" font-size="14.00" fill="#000000">bcl_sampleproject_subdirectories_bcl_conversion</text>
</a>
</g>
</g>
<!-- file:///tmp/tmpvh_eezpt#bcl_sampleproject_subdirectories_bcl_conversion&#45;&gt;file:///tmp/tmpvh_eezpt#bcl_convert_step -->
<g id="edge24" class="edge">
<title>file:///tmp/tmpvh_eezpt#bcl_sampleproject_subdirectories_bcl_conversion&#45;&gt;file:///tmp/tmpvh_eezpt#bcl_convert_step</title>
<path fill="none" stroke="#000000" d="M2199.1453,-1101.0243C2099.1341,-1015.1322 1685.0667,-659.5214 1570.4964,-561.1258"/>
<polygon fill="#000000" stroke="#000000" points="1572.64,-558.3532 1562.7734,-554.4931 1568.0793,-563.6636 1572.64,-558.3532"/>
</g>
<!-- file:///tmp/tmpvh_eezpt#ignore_missing_samples -->
<g id="node6" class="node">
<title>file:///tmp/tmpvh_eezpt#ignore_missing_samples</title>
<g id="a_node6"><a xlink:title="Remove the samples not present in the override cycles record&#10;">
<polygon fill="#94ddf4" stroke="#000000" points="970.5,-1101.2936 970.5,-1138.2936 1161.5,-1138.2936 1161.5,-1101.2936 970.5,-1101.2936"/>
<text text-anchor="middle" x="1066" y="-1116.0936" font-family="Times,serif" font-size="14.00" fill="#000000">ignore_missing_samples</text>
</a>
</g>
</g>
<!-- file:///tmp/tmpvh_eezpt#ignore_missing_samples&#45;&gt;file:///tmp/tmpvh_eezpt#samplesheet_split_by_settings_step -->
<g id="edge25" class="edge">
<title>file:///tmp/tmpvh_eezpt#ignore_missing_samples&#45;&gt;file:///tmp/tmpvh_eezpt#samplesheet_split_by_settings_step</title>
<path fill="none" stroke="#000000" d="M1066,-1100.9781C1066,-1065.8227 1066,-989.9771 1066,-948.4332"/>
<polygon fill="#000000" stroke="#000000" points="1069.5001,-948.4134 1066,-938.4134 1062.5001,-948.4134 1069.5001,-948.4134"/>
</g>
<!-- file:///tmp/tmpvh_eezpt#strict_mode_bcl_conversion -->
<g id="node7" class="node">
<title>file:///tmp/tmpvh_eezpt#strict_mode_bcl_conversion</title>
<g id="a_node7"><a xlink:title="true — Abort the program if any filter, locs, bcl, or bci lane&#10;files are missing or corrupt.&#10;false — Continue processing if any filter, locs, bcl, or bci lane files&#10;are missing. Return a warning message for each missing or corrupt&#10;file.&#10;">
<polygon fill="#94ddf4" stroke="#000000" points="16.5,-1101.2936 16.5,-1138.2936 233.5,-1138.2936 233.5,-1101.2936 16.5,-1101.2936"/>
<text text-anchor="middle" x="125" y="-1116.0936" font-family="Times,serif" font-size="14.00" fill="#000000">strict_mode_bcl_conversion</text>
</a>
</g>
</g>
<!-- file:///tmp/tmpvh_eezpt#strict_mode_bcl_conversion&#45;&gt;file:///tmp/tmpvh_eezpt#bcl_convert_step -->
<g id="edge26" class="edge">
<title>file:///tmp/tmpvh_eezpt#strict_mode_bcl_conversion&#45;&gt;file:///tmp/tmpvh_eezpt#bcl_convert_step</title>
<path fill="none" stroke="#000000" d="M168.3862,-1101.2811C190.6658,-1091.8073 218.2597,-1080.1239 243,-1069.7936 723.7815,-869.0423 1306.92,-631.1202 1486.0459,-558.161"/>
<polygon fill="#000000" stroke="#000000" points="1487.5783,-561.3161 1495.5195,-554.3027 1484.938,-554.8331 1487.5783,-561.3161"/>
</g>
<!-- file:///tmp/tmpvh_eezpt#bcl_only_lane_bcl_conversion -->
<g id="node8" class="node">
<title>file:///tmp/tmpvh_eezpt#bcl_only_lane_bcl_conversion</title>
<g id="a_node8"><a xlink:title="Convert only the specified lane number. The value must&#10;be less than or equal to the number of lanes specified in the&#10;RunInfo.xml. Must be a single integer value.&#10;">
<polygon fill="#94ddf4" stroke="#000000" points="1180,-1101.2936 1180,-1138.2936 1408,-1138.2936 1408,-1101.2936 1180,-1101.2936"/>
<text text-anchor="middle" x="1294" y="-1116.0936" font-family="Times,serif" font-size="14.00" fill="#000000">bcl_only_lane_bcl_conversion</text>
</a>
</g>
</g>
<!-- file:///tmp/tmpvh_eezpt#bcl_only_lane_bcl_conversion&#45;&gt;file:///tmp/tmpvh_eezpt#bcl_convert_step -->
<g id="edge27" class="edge">
<title>file:///tmp/tmpvh_eezpt#bcl_only_lane_bcl_conversion&#45;&gt;file:///tmp/tmpvh_eezpt#bcl_convert_step</title>
<path fill="none" stroke="#000000" d="M1304.5336,-1101.2817C1334.6847,-1047.7483 1422.7033,-887.5993 1478,-746.7936 1503.0039,-683.1245 1523.8314,-605.3825 1534.1061,-564.3416"/>
<polygon fill="#000000" stroke="#000000" points="1537.5388,-565.0398 1536.5452,-554.4917 1530.7441,-563.3572 1537.5388,-565.0398"/>
</g>
<!-- file:///tmp/tmpvh_eezpt#settings_by_samples -->
<g id="node9" class="node">
<title>file:///tmp/tmpvh_eezpt#settings_by_samples</title>
<g id="a_node9"><a xlink:title="List of settings by samples&#10;">
<polygon fill="#94ddf4" stroke="#000000" points="552.5,-1101.2936 552.5,-1138.2936 717.5,-1138.2936 717.5,-1101.2936 552.5,-1101.2936"/>
<text text-anchor="middle" x="635" y="-1116.0936" font-family="Times,serif" font-size="14.00" fill="#000000">settings_by_samples</text>
</a>
</g>
</g>
<!-- file:///tmp/tmpvh_eezpt#settings_by_samples&#45;&gt;file:///tmp/tmpvh_eezpt#samplesheet_split_by_settings_step -->
<g id="edge28" class="edge">
<title>file:///tmp/tmpvh_eezpt#settings_by_samples&#45;&gt;file:///tmp/tmpvh_eezpt#samplesheet_split_by_settings_step</title>
<path fill="none" stroke="#000000" d="M667.8749,-1101.0842C685.2728,-1091.3983 707.0999,-1079.5838 727,-1069.7936 825.7988,-1021.1877 943.9501,-970.5542 1011.4606,-942.3122"/>
<polygon fill="#000000" stroke="#000000" points="1013.1657,-945.3932 1021.0454,-938.3107 1010.4689,-938.9335 1013.1657,-945.3932"/>
</g>
<!-- file:///tmp/tmpvh_eezpt#samplesheet -->
<g id="node10" class="node">
<title>file:///tmp/tmpvh_eezpt#samplesheet</title>
<g id="a_node10"><a xlink:title="The path to the full samplesheet&#10;">
<polygon fill="#94ddf4" stroke="#000000" points="427.5,-1101.2936 427.5,-1138.2936 534.5,-1138.2936 534.5,-1101.2936 427.5,-1101.2936"/>
<text text-anchor="middle" x="481" y="-1116.0936" font-family="Times,serif" font-size="14.00" fill="#000000">samplesheet</text>
</a>
</g>
</g>
<!-- file:///tmp/tmpvh_eezpt#samplesheet&#45;&gt;file:///tmp/tmpvh_eezpt#samplesheet_split_by_settings_step -->
<g id="edge29" class="edge">
<title>file:///tmp/tmpvh_eezpt#samplesheet&#45;&gt;file:///tmp/tmpvh_eezpt#samplesheet_split_by_settings_step</title>
<path fill="none" stroke="#000000" d="M500.3058,-1101.1729C512.112,-1090.6687 527.984,-1078.037 544,-1069.7936 673.675,-1003.0501 837.2052,-962.2015 946.3446,-940.3212"/>
<polygon fill="#000000" stroke="#000000" points="947.2758,-943.7048 956.4044,-938.3272 945.9147,-936.8384 947.2758,-943.7048"/>
</g>
<!-- file:///tmp/tmpvh_eezpt#first_tile_only_bcl_conversion -->
<g id="node11" class="node">
<title>file:///tmp/tmpvh_eezpt#first_tile_only_bcl_conversion</title>
<g id="a_node11"><a xlink:title="true — Only process the first tile of the first swath of the&#10; &#160;top surface of each lane specified in the sample sheet.&#10;false — Process all tiles in each lane, as specified in the sample&#10; &#160;sheet.&#10;">
<polygon fill="#94ddf4" stroke="#000000" points="1426,-1101.2936 1426,-1138.2936 1656,-1138.2936 1656,-1101.2936 1426,-1101.2936"/>
<text text-anchor="middle" x="1541" y="-1116.0936" font-family="Times,serif" font-size="14.00" fill="#000000">first_tile_only_bcl_conversion</text>
</a>
</g>
</g>
<!-- file:///tmp/tmpvh_eezpt#first_tile_only_bcl_conversion&#45;&gt;file:///tmp/tmpvh_eezpt#bcl_convert_step -->
<g id="edge30" class="edge">
<title>file:///tmp/tmpvh_eezpt#first_tile_only_bcl_conversion&#45;&gt;file:///tmp/tmpvh_eezpt#bcl_convert_step</title>
<path fill="none" stroke="#000000" d="M1541,-1101.0243C1541,-1016.163 1541,-668.0173 1541,-564.7783"/>
<polygon fill="#000000" stroke="#000000" points="1544.5001,-564.493 1541,-554.4931 1537.5001,-564.4931 1544.5001,-564.493"/>
</g>
<!-- file:///tmp/tmpvh_eezpt#delete_undetermined_indices_bcl_conversion -->
<g id="node12" class="node">
<title>file:///tmp/tmpvh_eezpt#delete_undetermined_indices_bcl_conversion</title>
<g id="a_node12"><a xlink:title="Delete undetermined indices on completion of the run&#10;">
<polygon fill="#94ddf4" stroke="#000000" points="1674,-1101.2936 1674,-1138.2936 2016,-1138.2936 2016,-1101.2936 1674,-1101.2936"/>
<text text-anchor="middle" x="1845" y="-1116.0936" font-family="Times,serif" font-size="14.00" fill="#000000">delete_undetermined_indices_bcl_conversion</text>
</a>
</g>
</g>
<!-- file:///tmp/tmpvh_eezpt#delete_undetermined_indices_bcl_conversion&#45;&gt;file:///tmp/tmpvh_eezpt#bcl_convert_step -->
<g id="edge31" class="edge">
<title>file:///tmp/tmpvh_eezpt#delete_undetermined_indices_bcl_conversion&#45;&gt;file:///tmp/tmpvh_eezpt#bcl_convert_step</title>
<path fill="none" stroke="#000000" d="M1835.2297,-1101.0243C1790.8764,-1015.8194 1608.3591,-665.1939 1555.4415,-563.5364"/>
<polygon fill="#000000" stroke="#000000" points="1558.456,-561.7472 1550.734,-554.4931 1552.2468,-564.9794 1558.456,-561.7472"/>
</g>
<!-- file:///tmp/tmpvh_eezpt#fastq_list_rows -->
<g id="node13" class="node">
<title>file:///tmp/tmpvh_eezpt#fastq_list_rows</title>
<g id="a_node13"><a xlink:title="Contains the fastq list row schema for each of the output fastq files&#10;">
<polygon fill="#94ddf4" stroke="#000000" points="1553.5,-132.2936 1553.5,-169.2936 1678.5,-169.2936 1678.5,-132.2936 1553.5,-132.2936"/>
<text text-anchor="middle" x="1616" y="-147.0936" font-family="Times,serif" font-size="14.00" fill="#000000">fastq_list_rows</text>
</a>
</g>
</g>
<!-- file:///tmp/tmpvh_eezpt#split_sheets -->
<g id="node14" class="node">
<title>file:///tmp/tmpvh_eezpt#split_sheets</title>
<g id="a_node14"><a xlink:title="List of samplesheets split by override cycles&#10;">
<polygon fill="#94ddf4" stroke="#000000" points="1277,-132.2936 1277,-169.2936 1379,-169.2936 1379,-132.2936 1277,-132.2936"/>
<text text-anchor="middle" x="1328" y="-147.0936" font-family="Times,serif" font-size="14.00" fill="#000000">split_sheets</text>
</a>
</g>
</g>
<!-- file:///tmp/tmpvh_eezpt#interop_multiqc_out -->
<g id="node15" class="node">
<title>file:///tmp/tmpvh_eezpt#interop_multiqc_out</title>
<g id="a_node15"><a xlink:title="multiqc directory output that contains interop data&#10;">
<polygon fill="#94ddf4" stroke="#000000" points="1901.5,-132.2936 1901.5,-169.2936 2062.5,-169.2936 2062.5,-132.2936 1901.5,-132.2936"/>
<text text-anchor="middle" x="1982" y="-147.0936" font-family="Times,serif" font-size="14.00" fill="#000000">interop_multiqc_out</text>
</a>
</g>
</g>
<!-- file:///tmp/tmpvh_eezpt#fastq_directories -->
<g id="node16" class="node">
<title>file:///tmp/tmpvh_eezpt#fastq_directories</title>
<g id="a_node16"><a xlink:title="The outputs from the bclconvert&#45;step&#10;">
<polygon fill="#94ddf4" stroke="#000000" points="1397,-132.2936 1397,-169.2936 1535,-169.2936 1535,-132.2936 1397,-132.2936"/>
<text text-anchor="middle" x="1466" y="-147.0936" font-family="Times,serif" font-size="14.00" fill="#000000">fastq_directories</text>
</a>
</g>
</g>
<!-- file:///tmp/tmpvh_eezpt#bclconvert_multiqc_out -->
<g id="node17" class="node">
<title>file:///tmp/tmpvh_eezpt#bclconvert_multiqc_out</title>
<g id="a_node17"><a xlink:title="multiqc directory output that contains bclconvert multiqc data&#10;">
<polygon fill="#94ddf4" stroke="#000000" points="1697,-132.2936 1697,-169.2936 1883,-169.2936 1883,-132.2936 1697,-132.2936"/>
<text text-anchor="middle" x="1790" y="-147.0936" font-family="Times,serif" font-size="14.00" fill="#000000">bclconvert_multiqc_out</text>
</a>
</g>
</g>
<!-- file:///tmp/tmpvh_eezpt#split_sheets_dir -->
<g id="node18" class="node">
<title>file:///tmp/tmpvh_eezpt#split_sheets_dir</title>
<g id="a_node18"><a xlink:title="The directory containing the samplesheets used for each bcl convert&#10;">
<polygon fill="#94ddf4" stroke="#000000" points="1129,-132.2936 1129,-169.2936 1259,-169.2936 1259,-132.2936 1129,-132.2936"/>
<text text-anchor="middle" x="1194" y="-147.0936" font-family="Times,serif" font-size="14.00" fill="#000000">split_sheets_dir</text>
</a>
</g>
</g>
<!-- file:///tmp/tmpvh_eezpt#samplesheet_split_by_settings_step&#45;&gt;file:///tmp/tmpvh_eezpt#split_sheets -->
<g id="edge3" class="edge">
<title>file:///tmp/tmpvh_eezpt#samplesheet_split_by_settings_step&#45;&gt;file:///tmp/tmpvh_eezpt#split_sheets</title>
<path fill="none" stroke="#000000" d="M1072.3466,-901.1655C1107.2736,-798.6507 1276.0292,-303.3339 1318.3557,-179.1006"/>
<polygon fill="#000000" stroke="#000000" points="1321.7078,-180.1144 1321.6199,-169.5199 1315.0819,-177.8568 1321.7078,-180.1144"/>
</g>
<!-- file:///tmp/tmpvh_eezpt#samplesheet_split_by_settings_step&#45;&gt;file:///tmp/tmpvh_eezpt#split_sheets_dir -->
<g id="edge4" class="edge">
<title>file:///tmp/tmpvh_eezpt#samplesheet_split_by_settings_step&#45;&gt;file:///tmp/tmpvh_eezpt#split_sheets_dir</title>
<path fill="none" stroke="#000000" d="M1063.6171,-901.2207C1054.7107,-826.684 1027.0978,-542.7503 1092,-323.7936 1108.7366,-267.3302 1147.7909,-210.0639 1172.427,-177.634"/>
<polygon fill="#000000" stroke="#000000" points="1175.3237,-179.6092 1178.66,-169.5533 1169.781,-175.3339 1175.3237,-179.6092"/>
</g>
<!-- file:///tmp/tmpvh_eezpt#samplesheet_split_by_settings_step&#45;&gt;file:///tmp/tmpvh_eezpt#bcl_convert_step -->
<g id="edge1" class="edge">
<title>file:///tmp/tmpvh_eezpt#samplesheet_split_by_settings_step&#45;&gt;file:///tmp/tmpvh_eezpt#bcl_convert_step</title>
<path fill="none" stroke="#000000" d="M1070.8147,-901.2307C1082.073,-861.1484 1113.6842,-765.548 1172,-708.7936 1253.1254,-629.8402 1376.9801,-582.0013 1458.4657,-557.2244"/>
<polygon fill="#000000" stroke="#000000" points="1459.6096,-560.5356 1468.1873,-554.3166 1457.6036,-553.8291 1459.6096,-560.5356"/>
</g>
<!-- file:///tmp/tmpvh_eezpt#get_batch_dirs -->
<g id="node21" class="node">
<title>file:///tmp/tmpvh_eezpt#get_batch_dirs</title>
<g id="a_node21"><a xlink:href="https://github.com/umccr/cwl-ica/blob/beta-release/.github/catalogue/docs/expressions/get-samplesheet-midfix-regex/1.0.0/get-samplesheet-midfix-regex__1.0.0.md" xlink:title="Get the directory names of each of the directories we wish to scatter over&#10;">
<polygon fill="#ee9a00" stroke="#000000" points="1181,-709.2936 1181,-746.2936 1469,-746.2936 1469,-709.2936 1181,-709.2936"/>
<text text-anchor="middle" x="1325" y="-724.0936" font-family="Times,serif" font-size="14.00" fill="#000000">get&#45;samplesheet&#45;midfix&#45;regex v(1.0.0)</text>
</a>
</g>
</g>
<!-- file:///tmp/tmpvh_eezpt#samplesheet_split_by_settings_step&#45;&gt;file:///tmp/tmpvh_eezpt#get_batch_dirs -->
<g id="edge2" class="edge">
<title>file:///tmp/tmpvh_eezpt#samplesheet_split_by_settings_step&#45;&gt;file:///tmp/tmpvh_eezpt#get_batch_dirs</title>
<path fill="none" stroke="#000000" d="M1091.3056,-901.0342C1138.3298,-866.1746 1239.1627,-791.4258 1291.6706,-752.5011"/>
<polygon fill="#000000" stroke="#000000" points="1294.024,-755.1134 1299.973,-746.3464 1289.8553,-749.49 1294.024,-755.1134"/>
</g>
<!-- file:///tmp/tmpvh_eezpt#bcl_convert_step&#45;&gt;file:///tmp/tmpvh_eezpt#fastq_directories -->
<g id="edge7" class="edge">
<title>file:///tmp/tmpvh_eezpt#bcl_convert_step&#45;&gt;file:///tmp/tmpvh_eezpt#fastq_directories</title>
<path fill="none" stroke="#000000" d="M1531.2539,-517.1332C1515.5434,-485.9612 1485.1539,-420.8824 1473,-361.7936 1459.8157,-297.695 1461.617,-220.3709 1463.9139,-179.4484"/>
<polygon fill="#000000" stroke="#000000" points="1467.4122,-179.5808 1464.5312,-169.3852 1460.4254,-179.1521 1467.4122,-179.5808"/>
</g>
<!-- file:///tmp/tmpvh_eezpt#flatten_fastq_list_rows_array -->
<g id="node22" class="node">
<title>file:///tmp/tmpvh_eezpt#flatten_fastq_list_rows_array</title>
<g id="a_node22"><a xlink:href="https://github.com/umccr/cwl-ica/blob/beta-release/.github/catalogue/docs/expressions/flatten-array-fastq-list/1.0.0/flatten-array-fastq-list__1.0.0.md" xlink:title="fastq list rows is an array and bcl convert is from a directory output.&#10;This scatters the arrays to a single array&#10;">
<polygon fill="#ee9a00" stroke="#000000" points="1481.5,-324.2936 1481.5,-361.2936 1774.5,-361.2936 1774.5,-324.2936 1481.5,-324.2936"/>
<text text-anchor="middle" x="1628" y="-339.0936" font-family="Times,serif" font-size="14.00" fill="#000000">flatten&#45;array&#45;fastq&#45;list&#45;schema v(1.0.0)</text>
</a>
</g>
</g>
<!-- file:///tmp/tmpvh_eezpt#bcl_convert_step&#45;&gt;file:///tmp/tmpvh_eezpt#flatten_fastq_list_rows_array -->
<g id="edge5" class="edge">
<title>file:///tmp/tmpvh_eezpt#bcl_convert_step&#45;&gt;file:///tmp/tmpvh_eezpt#flatten_fastq_list_rows_array</title>
<path fill="none" stroke="#000000" d="M1549.3419,-517.2879C1564.6652,-483.2949 1597.3733,-410.7356 1615.4109,-370.7211"/>
<polygon fill="#000000" stroke="#000000" points="1618.6367,-372.0817 1619.5555,-361.5268 1612.2551,-369.205 1618.6367,-372.0817"/>
</g>
<!-- file:///tmp/tmpvh_eezpt#bcl_convert_step&#45;&gt;file:///tmp/tmpvh_eezpt#bclconvert_qc_step -->
<g id="edge6" class="edge">
<title>file:///tmp/tmpvh_eezpt#bcl_convert_step&#45;&gt;file:///tmp/tmpvh_eezpt#bclconvert_qc_step</title>
<path fill="none" stroke="#000000" d="M1618.7814,-520.5686C1802.3021,-484.6462 2260.7939,-394.9009 2446.7517,-358.5014"/>
<polygon fill="#000000" stroke="#000000" points="2447.5943,-361.903 2456.7357,-356.5471 2446.2496,-355.0334 2447.5943,-361.903"/>
</g>
<!-- file:///tmp/tmpvh_eezpt#get_batch_dirs&#45;&gt;file:///tmp/tmpvh_eezpt#bcl_convert_step -->
<g id="edge8" class="edge">
<title>file:///tmp/tmpvh_eezpt#get_batch_dirs&#45;&gt;file:///tmp/tmpvh_eezpt#bcl_convert_step</title>
<path fill="none" stroke="#000000" d="M1346.1043,-709.0342C1385.0788,-674.3902 1468.3751,-600.349 1512.3868,-561.2275"/>
<polygon fill="#000000" stroke="#000000" points="1514.9792,-563.606 1520.1281,-554.3464 1510.3287,-558.3741 1514.9792,-563.606"/>
</g>
<!-- file:///tmp/tmpvh_eezpt#flatten_fastq_list_rows_array&#45;&gt;file:///tmp/tmpvh_eezpt#fastq_list_rows -->
<g id="edge9" class="edge">
<title>file:///tmp/tmpvh_eezpt#flatten_fastq_list_rows_array&#45;&gt;file:///tmp/tmpvh_eezpt#fastq_list_rows</title>
<path fill="none" stroke="#000000" d="M1626.8275,-324.0342C1624.7207,-290.3246 1620.2825,-219.3143 1617.7921,-179.4677"/>
<polygon fill="#000000" stroke="#000000" points="1621.2766,-179.1086 1617.1596,-169.3464 1614.2902,-179.5453 1621.2766,-179.1086"/>
</g>
<!-- file:///tmp/tmpvh_eezpt#bclconvert_qc_step&#45;&gt;file:///tmp/tmpvh_eezpt#bclconvert_multiqc_out -->
<g id="edge12" class="edge">
<title>file:///tmp/tmpvh_eezpt#bclconvert_qc_step&#45;&gt;file:///tmp/tmpvh_eezpt#bclconvert_multiqc_out</title>
<path fill="none" stroke="#000000" d="M2456.6257,-324.5217C2339.6197,-294.1328 2097.6821,-231.2553 1893,-177.7936 1885.643,-175.872 1877.991,-173.8708 1870.3288,-171.8653"/>
<polygon fill="#000000" stroke="#000000" points="1871.1999,-168.4754 1860.6394,-169.3283 1869.4268,-175.2472 1871.1999,-168.4754"/>
</g>
<!-- file:///tmp/tmpvh_eezpt#create_dummy_file_step -->
<g id="node24" class="node">
<title>file:///tmp/tmpvh_eezpt#create_dummy_file_step</title>
<g id="a_node24"><a xlink:href="https://github.com/umccr/cwl-ica/blob/beta-release/.github/catalogue/docs/tools/custom-touch-file/1.0.0/custom-touch-file__1.0.0.md" xlink:title="Intermediate step for letting multiqc&#45;interop be placed in stream mode&#10;">
<polygon fill="#fafad2" stroke="#000000" points="2750.5,-1101.2936 2750.5,-1138.2936 3013.5,-1138.2936 3013.5,-1101.2936 2750.5,-1101.2936"/>
<text text-anchor="middle" x="2882" y="-1116.0936" font-family="Times,serif" font-size="14.00" fill="#000000">custom&#45;create&#45;dummy&#45;file v(1.0.0)</text>
</a>
</g>
</g>
<!-- file:///tmp/tmpvh_eezpt#create_dummy_file_step&#45;&gt;file:///tmp/tmpvh_eezpt#bclconvert_qc_step -->
<g id="edge10" class="edge">
<title>file:///tmp/tmpvh_eezpt#create_dummy_file_step&#45;&gt;file:///tmp/tmpvh_eezpt#bclconvert_qc_step</title>
<path fill="none" stroke="#000000" d="M2873.4006,-1100.9717C2825.9767,-997.1737 2596.4604,-494.8238 2539.7097,-370.6118"/>
<polygon fill="#000000" stroke="#000000" points="2542.8254,-369.0089 2535.4863,-361.3677 2536.4585,-371.9179 2542.8254,-369.0089"/>
</g>
<!-- file:///tmp/tmpvh_eezpt#create_dummy_file_step&#45;&gt;file:///tmp/tmpvh_eezpt#interop_qc_step -->
<g id="edge11" class="edge">
<title>file:///tmp/tmpvh_eezpt#create_dummy_file_step&#45;&gt;file:///tmp/tmpvh_eezpt#interop_qc_step</title>
<path fill="none" stroke="#000000" d="M2861.7733,-1100.9781C2823.0185,-1064.927 2738.2643,-986.0859 2694.4473,-945.3259"/>
<polygon fill="#000000" stroke="#000000" points="2696.7221,-942.6618 2687.0163,-938.4134 2691.9543,-947.7871 2696.7221,-942.6618"/>
</g>
<!-- file:///tmp/tmpvh_eezpt#interop_qc_step&#45;&gt;file:///tmp/tmpvh_eezpt#interop_multiqc_out -->
<g id="edge13" class="edge">
<title>file:///tmp/tmpvh_eezpt#interop_qc_step&#45;&gt;file:///tmp/tmpvh_eezpt#interop_multiqc_out</title>
<path fill="none" stroke="#000000" d="M2671.7444,-901.2018C2691.0092,-821.0139 2755.465,-500.824 2606,-323.7936 2537.2968,-242.4197 2228.4949,-186.7352 2072.6193,-163.2869"/>
<polygon fill="#000000" stroke="#000000" points="2072.9843,-159.8027 2062.5773,-161.7891 2071.9516,-166.7261 2072.9843,-159.8027"/>
</g>
</g>
</svg>
