<?xml version="1.0" encoding="UTF-8" standalone="no"?>
<!DOCTYPE svg PUBLIC "-//W3C//DTD SVG 1.1//EN"
 "http://www.w3.org/Graphics/SVG/1.1/DTD/svg11.dtd">
<!-- Generated by graphviz version 2.40.1 (20161225.0304)
 -->
<!-- Title: G Pages: 1 -->
<svg width="3021pt" height="1219pt"
 viewBox="0.00 0.00 3020.50 1218.82" xmlns="http://www.w3.org/2000/svg" xmlns:xlink="http://www.w3.org/1999/xlink">
<g id="graph0" class="graph" transform="scale(1 1) rotate(0) translate(4 1214.824)">
<title>G</title>
<polygon fill="#eeeeee" stroke="transparent" points="-4,4 -4,-1214.824 3016.5,-1214.824 3016.5,4 -4,4"/>
<g id="clust1" class="cluster">
<title>cluster_inputs</title>
<polygon fill="#eeeeee" stroke="#000000" stroke-dasharray="5,2" points="8,-989.9655 8,-1190.0373 2739,-1190.0373 2739,-989.9655 8,-989.9655"/>
<text text-anchor="middle" x="2671" y="-997.7655" font-family="Times,serif" font-size="14.00" fill="#000000">Workflow Inputs</text>
</g>
<g id="clust2" class="cluster">
<title>cluster_outputs</title>
<polygon fill="#eeeeee" stroke="#000000" stroke-dasharray="5,2" points="1482,-20.7867 1482,-220.8585 2432,-220.8585 2432,-20.7867 1482,-20.7867"/>
<text text-anchor="middle" x="2358" y="-28.5867" font-family="Times,serif" font-size="14.00" fill="#000000">Workflow Outputs</text>
</g>
<!-- file:///tmp/tmptig4jdds#bcl_only_lane_bcl_conversion -->
<g id="node1" class="node">
<title>file:///tmp/tmptig4jdds#bcl_only_lane_bcl_conversion</title>
<g id="a_node1"><a xlink:title="Convert only the specified lane number. The value must&#10;be less than or equal to the number of lanes specified in the&#10;RunInfo.xml. Must be a single integer value.&#10;">
<polygon fill="#94ddf4" stroke="#000000" points="408,-1101.2867 408,-1138.2867 636,-1138.2867 636,-1101.2867 408,-1101.2867"/>
<text text-anchor="middle" x="522" y="-1116.0867" font-family="Times,serif" font-size="14.00" fill="#000000">bcl_only_lane_bcl_conversion</text>
</a>
</g>
</g>
<!-- file:///tmp/tmptig4jdds#bcl_convert_step -->
<g id="node21" class="node">
<title>file:///tmp/tmptig4jdds#bcl_convert_step</title>
<g id="a_node21"><a xlink:href="https://github.com/umccr/cwl-ica/blob/beta-release/.github/catalogue/docs/tools/bclConvert/3.7.5/bclConvert__3.7.5.md" xlink:title="BCLConvert is then scattered across each of the samplesheets.&#10;">
<polygon fill="#fafad2" stroke="#000000" points="1442.5,-516.2867 1442.5,-553.2867 1597.5,-553.2867 1597.5,-516.2867 1442.5,-516.2867"/>
<text text-anchor="middle" x="1520" y="-531.0867" font-family="Times,serif" font-size="14.00" fill="#000000">bclConvert v(3.7.5)</text>
</a>
</g>
</g>
<!-- file:///tmp/tmptig4jdds#bcl_only_lane_bcl_conversion&#45;&gt;file:///tmp/tmptig4jdds#bcl_convert_step -->
<g id="edge14" class="edge">
<title>file:///tmp/tmptig4jdds#bcl_only_lane_bcl_conversion&#45;&gt;file:///tmp/tmptig4jdds#bcl_convert_step</title>
<path fill="none" stroke="#000000" d="M553.7951,-1101.1492C700.8005,-1014.9788 1314.4393,-655.2807 1479.1561,-558.7282"/>
<polygon fill="#000000" stroke="#000000" points="1481.1536,-561.6144 1488.0107,-553.5379 1477.6136,-555.5754 1481.1536,-561.6144"/>
</g>
<!-- file:///tmp/tmptig4jdds#settings_by_samples -->
<g id="node2" class="node">
<title>file:///tmp/tmptig4jdds#settings_by_samples</title>
<g id="a_node2"><a xlink:title="List of settings by samples&#10;">
<polygon fill="#94ddf4" stroke="#000000" points="2007.5,-1101.2867 2007.5,-1138.2867 2172.5,-1138.2867 2172.5,-1101.2867 2007.5,-1101.2867"/>
<text text-anchor="middle" x="2090" y="-1116.0867" font-family="Times,serif" font-size="14.00" fill="#000000">settings_by_samples</text>
</a>
</g>
</g>
<!-- file:///tmp/tmptig4jdds#samplesheet_split_by_settings_step -->
<g id="node19" class="node">
<title>file:///tmp/tmptig4jdds#samplesheet_split_by_settings_step</title>
<g id="a_node19"><a xlink:href="https://github.com/umccr/cwl-ica/blob/beta-release/.github/catalogue/docs/tools/custom-samplesheet-split-by-settings/1.0.0/custom-samplesheet-split-by-settings__1.0.0.md" xlink:title="Samplesheet is split by the different input types.&#10;These are generally a difference in override cycles parameters or adapter trimming settings&#10;This then scatters multiple bclconvert workflows split by sample id&#10;">
<polygon fill="#fafad2" stroke="#000000" points="1698.5,-901.2867 1698.5,-938.2867 2041.5,-938.2867 2041.5,-901.2867 1698.5,-901.2867"/>
<text text-anchor="middle" x="1870" y="-916.0867" font-family="Times,serif" font-size="14.00" fill="#000000">custom&#45;samplesheet&#45;split&#45;by&#45;settings v(1.0.0)</text>
</a>
</g>
</g>
<!-- file:///tmp/tmptig4jdds#settings_by_samples&#45;&gt;file:///tmp/tmptig4jdds#samplesheet_split_by_settings_step -->
<g id="edge15" class="edge">
<title>file:///tmp/tmptig4jdds#settings_by_samples&#45;&gt;file:///tmp/tmptig4jdds#samplesheet_split_by_settings_step</title>
<path fill="none" stroke="#000000" d="M2069.3029,-1100.9712C2029.6468,-1064.9201 1942.9216,-986.079 1898.0856,-945.319"/>
<polygon fill="#000000" stroke="#000000" points="1900.2356,-942.5435 1890.4818,-938.4065 1895.5269,-947.7231 1900.2356,-942.5435"/>
</g>
<!-- file:///tmp/tmptig4jdds#runfolder_name -->
<g id="node3" class="node">
<title>file:///tmp/tmptig4jdds#runfolder_name</title>
<g id="a_node3"><a xlink:title="Required &#45; used in naming run specific folder, reports and headings&#10;">
<polygon fill="#94ddf4" stroke="#000000" points="2601,-1101.2867 2601,-1138.2867 2731,-1138.2867 2731,-1101.2867 2601,-1101.2867"/>
<text text-anchor="middle" x="2666" y="-1116.0867" font-family="Times,serif" font-size="14.00" fill="#000000">runfolder_name</text>
</a>
</g>
</g>
<!-- file:///tmp/tmptig4jdds#interop_qc_step -->
<g id="node23" class="node">
<title>file:///tmp/tmptig4jdds#interop_qc_step</title>
<g id="a_node23"><a xlink:href="https://github.com/umccr/cwl-ica/blob/beta-release/.github/catalogue/docs/tools/multiqc-interop/1.2.1/multiqc-interop__1.2.1.md" xlink:title="Run the multiqc by first also generating the interop files for use&#10;">
<polygon fill="#fafad2" stroke="#000000" points="2572.5,-901.2867 2572.5,-938.2867 2759.5,-938.2867 2759.5,-901.2867 2572.5,-901.2867"/>
<text text-anchor="middle" x="2666" y="-916.0867" font-family="Times,serif" font-size="14.00" fill="#000000">multiqc&#45;interop v(1.2.1)</text>
</a>
</g>
</g>
<!-- file:///tmp/tmptig4jdds#runfolder_name&#45;&gt;file:///tmp/tmptig4jdds#interop_qc_step -->
<g id="edge16" class="edge">
<title>file:///tmp/tmptig4jdds#runfolder_name&#45;&gt;file:///tmp/tmptig4jdds#interop_qc_step</title>
<path fill="none" stroke="#000000" d="M2657.7077,-1100.9712C2651.3092,-1065.8158 2650.8069,-989.9702 2656.2008,-948.4263"/>
<polygon fill="#000000" stroke="#000000" points="2659.681,-948.8227 2657.7435,-938.4065 2652.7625,-947.7574 2659.681,-948.8227"/>
</g>
<!-- file:///tmp/tmptig4jdds#runfolder_name&#45;&gt;file:///tmp/tmptig4jdds#interop_qc_step -->
<g id="edge17" class="edge">
<title>file:///tmp/tmptig4jdds#runfolder_name&#45;&gt;file:///tmp/tmptig4jdds#interop_qc_step</title>
<path fill="none" stroke="#000000" d="M2666,-1100.9712C2666,-1065.8158 2666,-989.9702 2666,-948.4263"/>
<polygon fill="#000000" stroke="#000000" points="2669.5001,-948.4065 2666,-938.4065 2662.5001,-948.4065 2669.5001,-948.4065"/>
</g>
<!-- file:///tmp/tmptig4jdds#runfolder_name&#45;&gt;file:///tmp/tmptig4jdds#interop_qc_step -->
<g id="edge18" class="edge">
<title>file:///tmp/tmptig4jdds#runfolder_name&#45;&gt;file:///tmp/tmptig4jdds#interop_qc_step</title>
<path fill="none" stroke="#000000" d="M2674.2923,-1100.9712C2680.6908,-1065.8158 2681.1931,-989.9702 2675.7992,-948.4263"/>
<polygon fill="#000000" stroke="#000000" points="2679.2375,-947.7574 2674.2565,-938.4065 2672.319,-948.8227 2679.2375,-947.7574"/>
</g>
<!-- file:///tmp/tmptig4jdds#bclconvert_qc_step -->
<g id="node24" class="node">
<title>file:///tmp/tmptig4jdds#bclconvert_qc_step</title>
<g id="a_node24"><a xlink:href="https://github.com/umccr/cwl-ica/blob/beta-release/.github/catalogue/docs/tools/multiqc/1.11.0/multiqc__1.11.0.md" xlink:title="The bclconvert qc step &#45; from scatter this takes in an array of dirs&#10;">
<polygon fill="#fafad2" stroke="#000000" points="2456,-324.2867 2456,-361.2867 2596,-361.2867 2596,-324.2867 2456,-324.2867"/>
<text text-anchor="middle" x="2526" y="-339.0867" font-family="Times,serif" font-size="14.00" fill="#000000">multiqc v(1.11.0)</text>
</a>
</g>
</g>
<!-- file:///tmp/tmptig4jdds#runfolder_name&#45;&gt;file:///tmp/tmptig4jdds#bclconvert_qc_step -->
<g id="edge19" class="edge">
<title>file:///tmp/tmptig4jdds#runfolder_name&#45;&gt;file:///tmp/tmptig4jdds#bclconvert_qc_step</title>
<path fill="none" stroke="#000000" d="M2640.7191,-1101.2687C2610.5244,-1069.8665 2565.1344,-1003.2781 2546,-938.7867 2483.5748,-728.3863 2498.4017,-458.4561 2515.5834,-371.2832"/>
<polygon fill="#000000" stroke="#000000" points="2519.0393,-371.8618 2517.7402,-361.3469 2512.1986,-370.3769 2519.0393,-371.8618"/>
</g>
<!-- file:///tmp/tmptig4jdds#runfolder_name&#45;&gt;file:///tmp/tmptig4jdds#bclconvert_qc_step -->
<g id="edge20" class="edge">
<title>file:///tmp/tmptig4jdds#runfolder_name&#45;&gt;file:///tmp/tmptig4jdds#bclconvert_qc_step</title>
<path fill="none" stroke="#000000" d="M2651.7594,-1101.2687C2628.5244,-1069.8665 2583.1344,-1003.2781 2564,-938.7867 2501.6383,-728.6003 2516.3716,-459.0052 2523.3869,-371.5498"/>
<polygon fill="#000000" stroke="#000000" points="2526.8945,-371.6033 2524.238,-361.3469 2519.9187,-371.0213 2526.8945,-371.6033"/>
</g>
<!-- file:///tmp/tmptig4jdds#runfolder_name&#45;&gt;file:///tmp/tmptig4jdds#bclconvert_qc_step -->
<g id="edge21" class="edge">
<title>file:///tmp/tmptig4jdds#runfolder_name&#45;&gt;file:///tmp/tmptig4jdds#bclconvert_qc_step</title>
<path fill="none" stroke="#000000" d="M2662.7997,-1101.2687C2646.5244,-1069.8665 2601.1344,-1003.2781 2582,-938.7867 2519.6383,-728.6003 2534.3716,-459.0052 2531.2428,-371.5498"/>
<polygon fill="#000000" stroke="#000000" points="2534.7279,-371.1609 2530.7359,-361.3469 2527.7365,-371.5083 2534.7279,-371.1609"/>
</g>
<!-- file:///tmp/tmptig4jdds#strict_mode_bcl_conversion -->
<g id="node4" class="node">
<title>file:///tmp/tmptig4jdds#strict_mode_bcl_conversion</title>
<g id="a_node4"><a xlink:title="true — Abort the program if any filter, locs, bcl, or bci lane&#10;files are missing or corrupt.&#10;false — Continue processing if any filter, locs, bcl, or bci lane files&#10;are missing. Return a warning message for each missing or corrupt&#10;file.&#10;">
<polygon fill="#94ddf4" stroke="#000000" points="902.5,-1101.2867 902.5,-1138.2867 1119.5,-1138.2867 1119.5,-1101.2867 902.5,-1101.2867"/>
<text text-anchor="middle" x="1011" y="-1116.0867" font-family="Times,serif" font-size="14.00" fill="#000000">strict_mode_bcl_conversion</text>
</a>
</g>
</g>
<!-- file:///tmp/tmptig4jdds#strict_mode_bcl_conversion&#45;&gt;file:///tmp/tmptig4jdds#bcl_convert_step -->
<g id="edge22" class="edge">
<title>file:///tmp/tmptig4jdds#strict_mode_bcl_conversion&#45;&gt;file:///tmp/tmptig4jdds#bcl_convert_step</title>
<path fill="none" stroke="#000000" d="M1027.3589,-1100.9852C1101.9208,-1015.2903 1409.6861,-661.5718 1496.8812,-561.3574"/>
<polygon fill="#000000" stroke="#000000" points="1499.7784,-563.3598 1503.702,-553.5182 1494.4975,-558.7649 1499.7784,-563.3598"/>
</g>
<!-- file:///tmp/tmptig4jdds#bcl_input_directory -->
<g id="node5" class="node">
<title>file:///tmp/tmptig4jdds#bcl_input_directory</title>
<g id="a_node5"><a xlink:title="Path to the bcl files&#10;">
<polygon fill="#94ddf4" stroke="#000000" points="2425.5,-1101.2867 2425.5,-1138.2867 2582.5,-1138.2867 2582.5,-1101.2867 2425.5,-1101.2867"/>
<text text-anchor="middle" x="2504" y="-1116.0867" font-family="Times,serif" font-size="14.00" fill="#000000">bcl_input_directory</text>
</a>
</g>
</g>
<!-- file:///tmp/tmptig4jdds#bcl_input_directory&#45;&gt;file:///tmp/tmptig4jdds#bcl_convert_step -->
<g id="edge24" class="edge">
<title>file:///tmp/tmptig4jdds#bcl_input_directory&#45;&gt;file:///tmp/tmptig4jdds#bcl_convert_step</title>
<path fill="none" stroke="#000000" d="M2472.6509,-1101.1492C2327.7077,-1014.9788 1722.6771,-655.2807 1560.2709,-558.7282"/>
<polygon fill="#000000" stroke="#000000" points="1561.9248,-555.6397 1551.5405,-553.5379 1558.3476,-561.6567 1561.9248,-555.6397"/>
</g>
<!-- file:///tmp/tmptig4jdds#bcl_input_directory&#45;&gt;file:///tmp/tmptig4jdds#interop_qc_step -->
<g id="edge23" class="edge">
<title>file:///tmp/tmptig4jdds#bcl_input_directory&#45;&gt;file:///tmp/tmptig4jdds#interop_qc_step</title>
<path fill="none" stroke="#000000" d="M2519.2406,-1100.9712C2548.2001,-1065.2187 2611.2478,-987.3819 2644.4922,-946.3395"/>
<polygon fill="#000000" stroke="#000000" points="2647.3434,-948.3801 2650.9179,-938.4065 2641.904,-943.9742 2647.3434,-948.3801"/>
</g>
<!-- file:///tmp/tmptig4jdds#delete_undetermined_indices_bcl_conversion -->
<g id="node6" class="node">
<title>file:///tmp/tmptig4jdds#delete_undetermined_indices_bcl_conversion</title>
<g id="a_node6"><a xlink:title="Delete undetermined indices on completion of the run&#10;">
<polygon fill="#94ddf4" stroke="#000000" points="1138,-1101.2867 1138,-1138.2867 1480,-1138.2867 1480,-1101.2867 1138,-1101.2867"/>
<text text-anchor="middle" x="1309" y="-1116.0867" font-family="Times,serif" font-size="14.00" fill="#000000">delete_undetermined_indices_bcl_conversion</text>
</a>
</g>
</g>
<!-- file:///tmp/tmptig4jdds#delete_undetermined_indices_bcl_conversion&#45;&gt;file:///tmp/tmptig4jdds#bcl_convert_step -->
<g id="edge25" class="edge">
<title>file:///tmp/tmptig4jdds#delete_undetermined_indices_bcl_conversion&#45;&gt;file:///tmp/tmptig4jdds#bcl_convert_step</title>
<path fill="none" stroke="#000000" d="M1310.7421,-1100.9951C1316.7892,-1041.3378 1339.9969,-851.7468 1402,-708.7867 1426.6348,-651.9863 1470.4299,-594.0653 1497.1786,-561.4461"/>
<polygon fill="#000000" stroke="#000000" points="1499.901,-563.6463 1503.5898,-553.7143 1494.5125,-559.1781 1499.901,-563.6463"/>
</g>
<!-- file:///tmp/tmptig4jdds#samplesheet -->
<g id="node7" class="node">
<title>file:///tmp/tmptig4jdds#samplesheet</title>
<g id="a_node7"><a xlink:title="The path to the full samplesheet&#10;">
<polygon fill="#94ddf4" stroke="#000000" points="1673.5,-1101.2867 1673.5,-1138.2867 1780.5,-1138.2867 1780.5,-1101.2867 1673.5,-1101.2867"/>
<text text-anchor="middle" x="1727" y="-1116.0867" font-family="Times,serif" font-size="14.00" fill="#000000">samplesheet</text>
</a>
</g>
</g>
<!-- file:///tmp/tmptig4jdds#samplesheet&#45;&gt;file:///tmp/tmptig4jdds#samplesheet_split_by_settings_step -->
<g id="edge26" class="edge">
<title>file:///tmp/tmptig4jdds#samplesheet&#45;&gt;file:///tmp/tmptig4jdds#samplesheet_split_by_settings_step</title>
<path fill="none" stroke="#000000" d="M1740.4531,-1100.9712C1765.9627,-1065.2933 1821.4371,-987.7068 1850.8306,-946.597"/>
<polygon fill="#000000" stroke="#000000" points="1853.7177,-948.5768 1856.6868,-938.4065 1848.0235,-944.5054 1853.7177,-948.5768"/>
</g>
<!-- file:///tmp/tmptig4jdds#bcl_sampleproject_subdirectories_bcl_conversion -->
<g id="node8" class="node">
<title>file:///tmp/tmptig4jdds#bcl_sampleproject_subdirectories_bcl_conversion</title>
<g id="a_node8"><a xlink:title="true — Allows creation of Sample_Project subdirectories&#10;as specified in the sample sheet. This option must be set to true for&#10;the Sample_Project column in the data section to be used.&#10;">
<polygon fill="#94ddf4" stroke="#000000" points="16,-1101.2867 16,-1138.2867 390,-1138.2867 390,-1101.2867 16,-1101.2867"/>
<text text-anchor="middle" x="203" y="-1116.0867" font-family="Times,serif" font-size="14.00" fill="#000000">bcl_sampleproject_subdirectories_bcl_conversion</text>
</a>
</g>
</g>
<!-- file:///tmp/tmptig4jdds#bcl_sampleproject_subdirectories_bcl_conversion&#45;&gt;file:///tmp/tmptig4jdds#bcl_convert_step -->
<g id="edge27" class="edge">
<title>file:///tmp/tmptig4jdds#bcl_sampleproject_subdirectories_bcl_conversion&#45;&gt;file:///tmp/tmptig4jdds#bcl_convert_step</title>
<path fill="none" stroke="#000000" d="M244.9581,-1101.1492C439.7358,-1014.6307 1255.2862,-652.3703 1468.7059,-557.5711"/>
<polygon fill="#000000" stroke="#000000" points="1470.3969,-560.6497 1478.1151,-553.3916 1467.5553,-554.2525 1470.3969,-560.6497"/>
</g>
<!-- file:///tmp/tmptig4jdds#samplesheet_outdir -->
<g id="node9" class="node">
<title>file:///tmp/tmptig4jdds#samplesheet_outdir</title>
<g id="a_node9"><a xlink:title="Output directory of the samplesheets split by settings&#10;">
<polygon fill="#94ddf4" stroke="#000000" points="1498,-1101.2867 1498,-1138.2867 1656,-1138.2867 1656,-1101.2867 1498,-1101.2867"/>
<text text-anchor="middle" x="1577" y="-1116.0867" font-family="Times,serif" font-size="14.00" fill="#000000">samplesheet_outdir</text>
</a>
</g>
</g>
<!-- file:///tmp/tmptig4jdds#samplesheet_outdir&#45;&gt;file:///tmp/tmptig4jdds#samplesheet_split_by_settings_step -->
<g id="edge28" class="edge">
<title>file:///tmp/tmptig4jdds#samplesheet_outdir&#45;&gt;file:///tmp/tmptig4jdds#samplesheet_split_by_settings_step</title>
<path fill="none" stroke="#000000" d="M1604.3016,-1101.1508C1657.5161,-1064.8269 1775.0786,-984.5795 1834.353,-944.1191"/>
<polygon fill="#000000" stroke="#000000" points="1836.3748,-946.9767 1842.6609,-938.4482 1832.4284,-941.1952 1836.3748,-946.9767"/>
</g>
<!-- file:///tmp/tmptig4jdds#samplesheet_output_format -->
<g id="node10" class="node">
<title>file:///tmp/tmptig4jdds#samplesheet_output_format</title>
<g id="a_node10"><a xlink:title="Convert headers to v2 samplesheet format&#10;">
<polygon fill="#94ddf4" stroke="#000000" points="2190.5,-1101.2867 2190.5,-1138.2867 2407.5,-1138.2867 2407.5,-1101.2867 2190.5,-1101.2867"/>
<text text-anchor="middle" x="2299" y="-1116.0867" font-family="Times,serif" font-size="14.00" fill="#000000">samplesheet_output_format</text>
</a>
</g>
</g>
<!-- file:///tmp/tmptig4jdds#samplesheet_output_format&#45;&gt;file:///tmp/tmptig4jdds#samplesheet_split_by_settings_step -->
<g id="edge29" class="edge">
<title>file:///tmp/tmptig4jdds#samplesheet_output_format&#45;&gt;file:///tmp/tmptig4jdds#samplesheet_split_by_settings_step</title>
<path fill="none" stroke="#000000" d="M2259.026,-1101.1508C2180.1329,-1064.3708 2004.6428,-982.5572 1918.9643,-942.6139"/>
<polygon fill="#000000" stroke="#000000" points="1920.2596,-939.3561 1909.7172,-938.3029 1917.3017,-945.7005 1920.2596,-939.3561"/>
</g>
<!-- file:///tmp/tmptig4jdds#first_tile_only_bcl_conversion -->
<g id="node11" class="node">
<title>file:///tmp/tmptig4jdds#first_tile_only_bcl_conversion</title>
<g id="a_node11"><a xlink:title="true — Only process the first tile of the first swath of the&#10; &#160;top surface of each lane specified in the sample sheet.&#10;false — Process all tiles in each lane, as specified in the sample&#10; &#160;sheet.&#10;">
<polygon fill="#94ddf4" stroke="#000000" points="654,-1101.2867 654,-1138.2867 884,-1138.2867 884,-1101.2867 654,-1101.2867"/>
<text text-anchor="middle" x="769" y="-1116.0867" font-family="Times,serif" font-size="14.00" fill="#000000">first_tile_only_bcl_conversion</text>
</a>
</g>
</g>
<!-- file:///tmp/tmptig4jdds#first_tile_only_bcl_conversion&#45;&gt;file:///tmp/tmptig4jdds#bcl_convert_step -->
<g id="edge30" class="edge">
<title>file:///tmp/tmptig4jdds#first_tile_only_bcl_conversion&#45;&gt;file:///tmp/tmptig4jdds#bcl_convert_step</title>
<path fill="none" stroke="#000000" d="M793.1365,-1100.9852C903.7006,-1014.8601 1361.806,-658.0137 1487.8024,-559.8674"/>
<polygon fill="#000000" stroke="#000000" points="1490.215,-562.4246 1495.9532,-553.5182 1485.9134,-556.9023 1490.215,-562.4246"/>
</g>
<!-- file:///tmp/tmptig4jdds#ignore_missing_samples -->
<g id="node12" class="node">
<title>file:///tmp/tmptig4jdds#ignore_missing_samples</title>
<g id="a_node12"><a xlink:title="Remove the samples not present in the override cycles record&#10;">
<polygon fill="#94ddf4" stroke="#000000" points="1798.5,-1101.2867 1798.5,-1138.2867 1989.5,-1138.2867 1989.5,-1101.2867 1798.5,-1101.2867"/>
<text text-anchor="middle" x="1894" y="-1116.0867" font-family="Times,serif" font-size="14.00" fill="#000000">ignore_missing_samples</text>
</a>
</g>
</g>
<!-- file:///tmp/tmptig4jdds#ignore_missing_samples&#45;&gt;file:///tmp/tmptig4jdds#samplesheet_split_by_settings_step -->
<g id="edge31" class="edge">
<title>file:///tmp/tmptig4jdds#ignore_missing_samples&#45;&gt;file:///tmp/tmptig4jdds#samplesheet_split_by_settings_step</title>
<path fill="none" stroke="#000000" d="M1891.7421,-1100.9712C1887.5235,-1065.8158 1878.422,-989.9702 1873.4368,-948.4263"/>
<polygon fill="#000000" stroke="#000000" points="1876.901,-947.9182 1872.2344,-938.4065 1869.9508,-948.7523 1876.901,-947.9182"/>
</g>
<!-- file:///tmp/tmptig4jdds#bclconvert_multiqc_out -->
<g id="node13" class="node">
<title>file:///tmp/tmptig4jdds#bclconvert_multiqc_out</title>
<g id="a_node13"><a xlink:title="multiqc directory output that contains bclconvert multiqc data&#10;">
<polygon fill="#94ddf4" stroke="#000000" points="2058,-132.2867 2058,-169.2867 2244,-169.2867 2244,-132.2867 2058,-132.2867"/>
<text text-anchor="middle" x="2151" y="-147.0867" font-family="Times,serif" font-size="14.00" fill="#000000">bclconvert_multiqc_out</text>
</a>
</g>
</g>
<!-- file:///tmp/tmptig4jdds#fastq_directories -->
<g id="node14" class="node">
<title>file:///tmp/tmptig4jdds#fastq_directories</title>
<g id="a_node14"><a xlink:title="The outputs from the bclconvert&#45;step&#10;">
<polygon fill="#94ddf4" stroke="#000000" points="1490,-132.2867 1490,-169.2867 1628,-169.2867 1628,-132.2867 1490,-132.2867"/>
<text text-anchor="middle" x="1559" y="-147.0867" font-family="Times,serif" font-size="14.00" fill="#000000">fastq_directories</text>
</a>
</g>
</g>
<!-- file:///tmp/tmptig4jdds#split_sheets -->
<g id="node15" class="node">
<title>file:///tmp/tmptig4jdds#split_sheets</title>
<g id="a_node15"><a xlink:title="List of samplesheets split by override cycles&#10;">
<polygon fill="#94ddf4" stroke="#000000" points="1938,-132.2867 1938,-169.2867 2040,-169.2867 2040,-132.2867 1938,-132.2867"/>
<text text-anchor="middle" x="1989" y="-147.0867" font-family="Times,serif" font-size="14.00" fill="#000000">split_sheets</text>
</a>
</g>
</g>
<!-- file:///tmp/tmptig4jdds#fastq_list_rows -->
<g id="node16" class="node">
<title>file:///tmp/tmptig4jdds#fastq_list_rows</title>
<g id="a_node16"><a xlink:title="Contains the fastq list row schema for each of the output fastq files&#10;">
<polygon fill="#94ddf4" stroke="#000000" points="1646.5,-132.2867 1646.5,-169.2867 1771.5,-169.2867 1771.5,-132.2867 1646.5,-132.2867"/>
<text text-anchor="middle" x="1709" y="-147.0867" font-family="Times,serif" font-size="14.00" fill="#000000">fastq_list_rows</text>
</a>
</g>
</g>
<!-- file:///tmp/tmptig4jdds#interop_multiqc_out -->
<g id="node17" class="node">
<title>file:///tmp/tmptig4jdds#interop_multiqc_out</title>
<g id="a_node17"><a xlink:title="multiqc directory output that contains interop data&#10;">
<polygon fill="#94ddf4" stroke="#000000" points="2262.5,-132.2867 2262.5,-169.2867 2423.5,-169.2867 2423.5,-132.2867 2262.5,-132.2867"/>
<text text-anchor="middle" x="2343" y="-147.0867" font-family="Times,serif" font-size="14.00" fill="#000000">interop_multiqc_out</text>
</a>
</g>
</g>
<!-- file:///tmp/tmptig4jdds#split_sheets_dir -->
<g id="node18" class="node">
<title>file:///tmp/tmptig4jdds#split_sheets_dir</title>
<g id="a_node18"><a xlink:title="The directory containing the samplesheets used for each bcl convert&#10;">
<polygon fill="#94ddf4" stroke="#000000" points="1790,-132.2867 1790,-169.2867 1920,-169.2867 1920,-132.2867 1790,-132.2867"/>
<text text-anchor="middle" x="1855" y="-147.0867" font-family="Times,serif" font-size="14.00" fill="#000000">split_sheets_dir</text>
</a>
</g>
</g>
<!-- file:///tmp/tmptig4jdds#samplesheet_split_by_settings_step&#45;&gt;file:///tmp/tmptig4jdds#split_sheets -->
<g id="edge3" class="edge">
<title>file:///tmp/tmptig4jdds#samplesheet_split_by_settings_step&#45;&gt;file:///tmp/tmptig4jdds#split_sheets</title>
<path fill="none" stroke="#000000" d="M1872.8826,-901.1586C1888.7305,-798.7468 1965.2411,-304.3212 1984.5615,-179.469"/>
<polygon fill="#000000" stroke="#000000" points="1988.0317,-179.9307 1986.1022,-169.513 1981.114,-178.8601 1988.0317,-179.9307"/>
</g>
<!-- file:///tmp/tmptig4jdds#samplesheet_split_by_settings_step&#45;&gt;file:///tmp/tmptig4jdds#split_sheets_dir -->
<g id="edge4" class="edge">
<title>file:///tmp/tmptig4jdds#samplesheet_split_by_settings_step&#45;&gt;file:///tmp/tmptig4jdds#split_sheets_dir</title>
<path fill="none" stroke="#000000" d="M1869.6366,-901.1586C1867.641,-798.8497 1858.0142,-305.3146 1855.5668,-179.8466"/>
<polygon fill="#000000" stroke="#000000" points="1859.0597,-179.4428 1855.3653,-169.513 1852.0611,-179.5794 1859.0597,-179.4428"/>
</g>
<!-- file:///tmp/tmptig4jdds#get_batch_dirs -->
<g id="node20" class="node">
<title>file:///tmp/tmptig4jdds#get_batch_dirs</title>
<g id="a_node20"><a xlink:href="https://github.com/umccr/cwl-ica/blob/beta-release/.github/catalogue/docs/expressions/get-samplesheet-midfix-regex/1.0.0/get-samplesheet-midfix-regex__1.0.0.md" xlink:title="Get the directory names of each of the directories we wish to scatter over&#10;">
<polygon fill="#ee9a00" stroke="#000000" points="1411,-709.2867 1411,-746.2867 1699,-746.2867 1699,-709.2867 1411,-709.2867"/>
<text text-anchor="middle" x="1555" y="-724.0867" font-family="Times,serif" font-size="14.00" fill="#000000">get&#45;samplesheet&#45;midfix&#45;regex v(1.0.0)</text>
</a>
</g>
</g>
<!-- file:///tmp/tmptig4jdds#samplesheet_split_by_settings_step&#45;&gt;file:///tmp/tmptig4jdds#get_batch_dirs -->
<g id="edge1" class="edge">
<title>file:///tmp/tmptig4jdds#samplesheet_split_by_settings_step&#45;&gt;file:///tmp/tmptig4jdds#get_batch_dirs</title>
<path fill="none" stroke="#000000" d="M1839.5103,-901.2025C1781.9992,-866.1481 1657.5876,-790.3163 1594.0541,-751.5911"/>
<polygon fill="#000000" stroke="#000000" points="1595.867,-748.5972 1585.5065,-746.3811 1592.2238,-754.5744 1595.867,-748.5972"/>
</g>
<!-- file:///tmp/tmptig4jdds#samplesheet_split_by_settings_step&#45;&gt;file:///tmp/tmptig4jdds#bcl_convert_step -->
<g id="edge2" class="edge">
<title>file:///tmp/tmptig4jdds#samplesheet_split_by_settings_step&#45;&gt;file:///tmp/tmptig4jdds#bcl_convert_step</title>
<path fill="none" stroke="#000000" d="M1857.3271,-901.1807C1831.2347,-863.3721 1768.8416,-775.4976 1708,-708.7867 1656.2402,-652.0337 1588.7486,-592.6588 1550.3125,-560.0325"/>
<polygon fill="#000000" stroke="#000000" points="1552.4646,-557.2688 1542.5678,-553.487 1547.9461,-562.6152 1552.4646,-557.2688"/>
</g>
<!-- file:///tmp/tmptig4jdds#get_batch_dirs&#45;&gt;file:///tmp/tmptig4jdds#bcl_convert_step -->
<g id="edge5" class="edge">
<title>file:///tmp/tmptig4jdds#get_batch_dirs&#45;&gt;file:///tmp/tmptig4jdds#bcl_convert_step</title>
<path fill="none" stroke="#000000" d="M1551.6441,-709.281C1545.5186,-675.5036 1532.4877,-603.6476 1525.2034,-563.4795"/>
<polygon fill="#000000" stroke="#000000" points="1528.6255,-562.7348 1523.3972,-553.5199 1521.7378,-563.984 1528.6255,-562.7348"/>
</g>
<!-- file:///tmp/tmptig4jdds#bcl_convert_step&#45;&gt;file:///tmp/tmptig4jdds#fastq_directories -->
<g id="edge11" class="edge">
<title>file:///tmp/tmptig4jdds#bcl_convert_step&#45;&gt;file:///tmp/tmptig4jdds#fastq_directories</title>
<path fill="none" stroke="#000000" d="M1521.6727,-516.1488C1524.9955,-479.3571 1532.7352,-394.8006 1540,-323.7867 1545.1887,-273.0666 1551.792,-214.048 1555.6908,-179.7063"/>
<polygon fill="#000000" stroke="#000000" points="1559.203,-179.797 1556.8564,-169.4653 1552.2479,-179.0053 1559.203,-179.797"/>
</g>
<!-- file:///tmp/tmptig4jdds#bcl_convert_step&#45;&gt;file:///tmp/tmptig4jdds#bclconvert_qc_step -->
<g id="edge9" class="edge">
<title>file:///tmp/tmptig4jdds#bcl_convert_step&#45;&gt;file:///tmp/tmptig4jdds#bclconvert_qc_step</title>
<path fill="none" stroke="#000000" d="M1597.6849,-519.9601C1784.4528,-484.3146 2257.133,-394.1013 2446.1196,-358.0322"/>
<polygon fill="#000000" stroke="#000000" points="2446.8218,-361.4615 2455.9883,-356.1488 2445.5094,-354.5856 2446.8218,-361.4615"/>
</g>
<!-- file:///tmp/tmptig4jdds#flatten_fastq_list_rows_array -->
<g id="node25" class="node">
<title>file:///tmp/tmptig4jdds#flatten_fastq_list_rows_array</title>
<g id="a_node25"><a xlink:href="https://github.com/umccr/cwl-ica/blob/beta-release/.github/catalogue/docs/expressions/flatten-array-fastq-list/1.0.0/flatten-array-fastq-list__1.0.0.md" xlink:title="fastq list rows is an array and bcl convert is from a directory output.&#10;This scatters the arrays to a single array&#10;">
<polygon fill="#ee9a00" stroke="#000000" points="1548.5,-324.2867 1548.5,-361.2867 1841.5,-361.2867 1841.5,-324.2867 1548.5,-324.2867"/>
<text text-anchor="middle" x="1695" y="-339.0867" font-family="Times,serif" font-size="14.00" fill="#000000">flatten&#45;array&#45;fastq&#45;list&#45;schema v(1.0.0)</text>
</a>
</g>
</g>
<!-- file:///tmp/tmptig4jdds#bcl_convert_step&#45;&gt;file:///tmp/tmptig4jdds#flatten_fastq_list_rows_array -->
<g id="edge10" class="edge">
<title>file:///tmp/tmptig4jdds#bcl_convert_step&#45;&gt;file:///tmp/tmptig4jdds#flatten_fastq_list_rows_array</title>
<path fill="none" stroke="#000000" d="M1537.0984,-516.0273C1568.4129,-481.6708 1635.0428,-408.5683 1670.9238,-369.2018"/>
<polygon fill="#000000" stroke="#000000" points="1673.9403,-371.0879 1678.0899,-361.3395 1668.7668,-366.3725 1673.9403,-371.0879"/>
</g>
<!-- file:///tmp/tmptig4jdds#create_dummy_file_step -->
<g id="node22" class="node">
<title>file:///tmp/tmptig4jdds#create_dummy_file_step</title>
<g id="a_node22"><a xlink:href="https://github.com/umccr/cwl-ica/blob/beta-release/.github/catalogue/docs/tools/custom-touch-file/1.0.0/custom-touch-file__1.0.0.md" xlink:title="Intermediate step for letting multiqc&#45;interop be placed in stream mode&#10;">
<polygon fill="#fafad2" stroke="#000000" points="2749.5,-1101.2867 2749.5,-1138.2867 3012.5,-1138.2867 3012.5,-1101.2867 2749.5,-1101.2867"/>
<text text-anchor="middle" x="2881" y="-1116.0867" font-family="Times,serif" font-size="14.00" fill="#000000">custom&#45;create&#45;dummy&#45;file v(1.0.0)</text>
</a>
</g>
</g>
<!-- file:///tmp/tmptig4jdds#create_dummy_file_step&#45;&gt;file:///tmp/tmptig4jdds#interop_qc_step -->
<g id="edge6" class="edge">
<title>file:///tmp/tmptig4jdds#create_dummy_file_step&#45;&gt;file:///tmp/tmptig4jdds#interop_qc_step</title>
<path fill="none" stroke="#000000" d="M2860.7733,-1100.9712C2822.0185,-1064.9201 2737.2643,-986.079 2693.4473,-945.319"/>
<polygon fill="#000000" stroke="#000000" points="2695.7221,-942.6549 2686.0163,-938.4065 2690.9543,-947.7802 2695.7221,-942.6549"/>
</g>
<!-- file:///tmp/tmptig4jdds#create_dummy_file_step&#45;&gt;file:///tmp/tmptig4jdds#bclconvert_qc_step -->
<g id="edge7" class="edge">
<title>file:///tmp/tmptig4jdds#create_dummy_file_step&#45;&gt;file:///tmp/tmptig4jdds#bclconvert_qc_step</title>
<path fill="none" stroke="#000000" d="M2872.4006,-1100.9648C2824.9767,-997.1668 2595.4604,-494.8169 2538.7097,-370.6049"/>
<polygon fill="#000000" stroke="#000000" points="2541.8254,-369.002 2534.4863,-361.3608 2535.4585,-371.911 2541.8254,-369.002"/>
</g>
<!-- file:///tmp/tmptig4jdds#interop_qc_step&#45;&gt;file:///tmp/tmptig4jdds#interop_multiqc_out -->
<g id="edge8" class="edge">
<title>file:///tmp/tmptig4jdds#interop_qc_step&#45;&gt;file:///tmp/tmptig4jdds#interop_multiqc_out</title>
<path fill="none" stroke="#000000" d="M2669.4332,-901.2306C2682.7435,-823.7664 2724.4938,-521.0679 2605,-323.7867 2559.2704,-248.2882 2466.558,-199.0811 2404.6006,-173.1132"/>
<polygon fill="#000000" stroke="#000000" points="2405.8925,-169.8601 2395.3126,-169.2974 2403.2323,-176.335 2405.8925,-169.8601"/>
</g>
<!-- file:///tmp/tmptig4jdds#bclconvert_qc_step&#45;&gt;file:///tmp/tmptig4jdds#bclconvert_multiqc_out -->
<g id="edge12" class="edge">
<title>file:///tmp/tmptig4jdds#bclconvert_qc_step&#45;&gt;file:///tmp/tmptig4jdds#bclconvert_multiqc_out</title>
<path fill="none" stroke="#000000" d="M2489.7027,-324.2025C2420.9571,-289.0047 2271.9153,-212.6953 2196.5685,-174.1178"/>
<polygon fill="#000000" stroke="#000000" points="2197.8136,-170.8232 2187.3173,-169.3811 2194.6234,-177.054 2197.8136,-170.8232"/>
</g>
<!-- file:///tmp/tmptig4jdds#flatten_fastq_list_rows_array&#45;&gt;file:///tmp/tmptig4jdds#fastq_list_rows -->
<g id="edge13" class="edge">
<title>file:///tmp/tmptig4jdds#flatten_fastq_list_rows_array&#45;&gt;file:///tmp/tmptig4jdds#fastq_list_rows</title>
<path fill="none" stroke="#000000" d="M1696.3679,-324.0273C1698.8259,-290.3177 1704.0037,-219.3074 1706.9092,-179.4608"/>
<polygon fill="#000000" stroke="#000000" points="1710.4106,-179.5676 1707.6472,-169.3395 1703.4291,-179.0585 1710.4106,-179.5676"/>
</g>
</g>
</svg>
