<?xml version="1.0" encoding="UTF-8" standalone="no"?>
<!DOCTYPE svg PUBLIC "-//W3C//DTD SVG 1.1//EN"
 "http://www.w3.org/Graphics/SVG/1.1/DTD/svg11.dtd">
<!-- Generated by graphviz version 2.43.0 (0)
 -->
<!-- Title: G Pages: 1 -->
<svg width="2983pt" height="1204pt"
 viewBox="0.00 0.00 2982.50 1203.55" xmlns="http://www.w3.org/2000/svg" xmlns:xlink="http://www.w3.org/1999/xlink">
<g id="graph0" class="graph" transform="scale(1 1) rotate(0) translate(4 1199.55)">
<title>G</title>
<polygon fill="#eeeeee" stroke="transparent" points="-4,4 -4,-1199.55 2978.5,-1199.55 2978.5,4 -4,4"/>
<g id="clust1" class="cluster">
<title>cluster_inputs</title>
<polygon fill="#eeeeee" stroke="black" stroke-dasharray="5,2" points="8,-977.48 8,-1175.02 2704,-1175.02 2704,-977.48 8,-977.48"/>
<text text-anchor="middle" x="2637.5" y="-985.28" font-family="Times,serif" font-size="14.00">Workflow Inputs</text>
</g>
<g id="clust2" class="cluster">
<title>cluster_outputs</title>
<polygon fill="#eeeeee" stroke="black" stroke-dasharray="5,2" points="1251,-20.52 1251,-218.07 2189,-218.07 2189,-20.52 1251,-20.52"/>
<text text-anchor="middle" x="2116.5" y="-28.32" font-family="Times,serif" font-size="14.00">Workflow Outputs</text>
</g>
<!-- file:///tmp/tmp11x7p9dr#strict_mode_bcl_conversion -->
<g id="node1" class="node">
<title>file:///tmp/tmp11x7p9dr#strict_mode_bcl_conversion</title>
<g id="a_node1"><a xlink:title="true — Abort the program if any filter, locs, bcl, or bci lane&#10;files are missing or corrupt.&#10;false — Continue processing if any filter, locs, bcl, or bci lane files&#10;are missing. Return a warning message for each missing or corrupt&#10;file.&#10;">
<polygon fill="#94ddf4" stroke="black" points="940,-1087.02 940,-1124.02 1152,-1124.02 1152,-1087.02 940,-1087.02"/>
<text text-anchor="middle" x="1046" y="-1101.82" font-family="Times,serif" font-size="14.00">strict_mode_bcl_conversion</text>
</a>
</g>
</g>
<!-- file:///tmp/tmp11x7p9dr#bcl_convert_step -->
<g id="node20" class="node">
<title>file:///tmp/tmp11x7p9dr#bcl_convert_step</title>
<g id="a_node20"><a xlink:href="https://github.com/umccr/cwl-ica/blob/main/.github/catalogue/docs/tools/bclConvert/3.7.5/bclConvert__3.7.5.md" xlink:title="BCLConvert is then scattered across each of the samplesheets.&#10;">
<polygon fill="lightgoldenrodyellow" stroke="black" points="1590,-510.02 1590,-547.02 1744,-547.02 1744,-510.02 1590,-510.02"/>
<text text-anchor="middle" x="1667" y="-524.82" font-family="Times,serif" font-size="14.00">bclConvert v(3.7.5)</text>
</a>
</g>
</g>
<!-- file:///tmp/tmp11x7p9dr#strict_mode_bcl_conversion&#45;&gt;file:///tmp/tmp11x7p9dr#bcl_convert_step -->
<g id="edge14" class="edge">
<title>file:///tmp/tmp11x7p9dr#strict_mode_bcl_conversion&#45;&gt;file:///tmp/tmp11x7p9dr#bcl_convert_step</title>
<path fill="none" stroke="black" d="M1064.92,-1087C1154.47,-1004.09 1535.63,-651.16 1640.31,-554.24"/>
<polygon fill="black" stroke="black" points="1642.96,-556.55 1647.92,-547.19 1638.2,-551.42 1642.96,-556.55"/>
</g>
<!-- file:///tmp/tmp11x7p9dr#bcl_sampleproject_subdirectories_bcl_conversion -->
<g id="node2" class="node">
<title>file:///tmp/tmp11x7p9dr#bcl_sampleproject_subdirectories_bcl_conversion</title>
<g id="a_node2"><a xlink:title="true — Allows creation of Sample_Project subdirectories&#10;as specified in the sample sheet. This option must be set to true for&#10;the Sample_Project column in the data section to be used.&#10;">
<polygon fill="#94ddf4" stroke="black" points="1170.5,-1087.02 1170.5,-1124.02 1537.5,-1124.02 1537.5,-1087.02 1170.5,-1087.02"/>
<text text-anchor="middle" x="1354" y="-1101.82" font-family="Times,serif" font-size="14.00">bcl_sampleproject_subdirectories_bcl_conversion</text>
</a>
</g>
</g>
<!-- file:///tmp/tmp11x7p9dr#bcl_sampleproject_subdirectories_bcl_conversion&#45;&gt;file:///tmp/tmp11x7p9dr#bcl_convert_step -->
<g id="edge15" class="edge">
<title>file:///tmp/tmp11x7p9dr#bcl_sampleproject_subdirectories_bcl_conversion&#45;&gt;file:///tmp/tmp11x7p9dr#bcl_convert_step</title>
<path fill="none" stroke="black" d="M1363.54,-1087C1408.4,-1004.59 1598.48,-655.39 1652.58,-556.01"/>
<polygon fill="black" stroke="black" points="1655.68,-557.65 1657.38,-547.19 1649.53,-554.3 1655.68,-557.65"/>
</g>
<!-- file:///tmp/tmp11x7p9dr#runfolder_name -->
<g id="node3" class="node">
<title>file:///tmp/tmp11x7p9dr#runfolder_name</title>
<g id="a_node3"><a xlink:title="Required &#45; used in naming run specific folder, reports and headings&#10;">
<polygon fill="#94ddf4" stroke="black" points="2566.5,-1087.02 2566.5,-1124.02 2695.5,-1124.02 2695.5,-1087.02 2566.5,-1087.02"/>
<text text-anchor="middle" x="2631" y="-1101.82" font-family="Times,serif" font-size="14.00">runfolder_name</text>
</a>
</g>
</g>
<!-- file:///tmp/tmp11x7p9dr#bclconvert_qc_step -->
<g id="node23" class="node">
<title>file:///tmp/tmp11x7p9dr#bclconvert_qc_step</title>
<g id="a_node23"><a xlink:href="https://github.com/umccr/cwl-ica/blob/main/.github/catalogue/docs/tools/multiqc/1.11.0/multiqc__1.11.0.md" xlink:title="The bclconvert qc step &#45; from scatter this takes in an array of dirs&#10;">
<polygon fill="lightgoldenrodyellow" stroke="black" points="2422.5,-320.02 2422.5,-357.02 2561.5,-357.02 2561.5,-320.02 2422.5,-320.02"/>
<text text-anchor="middle" x="2492" y="-334.82" font-family="Times,serif" font-size="14.00">multiqc v(1.11.0)</text>
</a>
</g>
</g>
<!-- file:///tmp/tmp11x7p9dr#runfolder_name&#45;&gt;file:///tmp/tmp11x7p9dr#bclconvert_qc_step -->
<g id="edge19" class="edge">
<title>file:///tmp/tmp11x7p9dr#runfolder_name&#45;&gt;file:///tmp/tmp11x7p9dr#bclconvert_qc_step</title>
<path fill="none" stroke="black" d="M2605.95,-1086.72C2575.75,-1056.2 2530.14,-991.02 2511,-927.52 2448.43,-719.97 2464.1,-453.07 2481.56,-367.34"/>
<polygon fill="black" stroke="black" points="2485.03,-367.88 2483.81,-357.36 2478.2,-366.34 2485.03,-367.88"/>
</g>
<!-- file:///tmp/tmp11x7p9dr#runfolder_name&#45;&gt;file:///tmp/tmp11x7p9dr#bclconvert_qc_step -->
<g id="edge20" class="edge">
<title>file:///tmp/tmp11x7p9dr#runfolder_name&#45;&gt;file:///tmp/tmp11x7p9dr#bclconvert_qc_step</title>
<path fill="none" stroke="black" d="M2616.94,-1086.72C2593.75,-1056.2 2548.14,-991.02 2529,-927.52 2466.43,-719.97 2482.1,-453.07 2489.35,-367.34"/>
<polygon fill="black" stroke="black" points="2492.84,-367.62 2490.23,-357.36 2485.87,-367.01 2492.84,-367.62"/>
</g>
<!-- file:///tmp/tmp11x7p9dr#runfolder_name&#45;&gt;file:///tmp/tmp11x7p9dr#bclconvert_qc_step -->
<g id="edge21" class="edge">
<title>file:///tmp/tmp11x7p9dr#runfolder_name&#45;&gt;file:///tmp/tmp11x7p9dr#bclconvert_qc_step</title>
<path fill="none" stroke="black" d="M2627.92,-1086.72C2611.75,-1056.2 2566.14,-991.02 2547,-927.52 2484.49,-720.18 2500.07,-453.62 2497.15,-367.6"/>
<polygon fill="black" stroke="black" points="2500.63,-367.17 2496.65,-357.36 2493.64,-367.51 2500.63,-367.17"/>
</g>
<!-- file:///tmp/tmp11x7p9dr#interop_qc_step -->
<g id="node25" class="node">
<title>file:///tmp/tmp11x7p9dr#interop_qc_step</title>
<g id="a_node25"><a xlink:href="https://github.com/umccr/cwl-ica/blob/main/.github/catalogue/docs/tools/multiqc-interop/1.2.1/multiqc-interop__1.2.1.md" xlink:title="Run the multiqc by first also generating the interop files for use&#10;">
<polygon fill="lightgoldenrodyellow" stroke="black" points="2538,-890.02 2538,-927.02 2724,-927.02 2724,-890.02 2538,-890.02"/>
<text text-anchor="middle" x="2631" y="-904.82" font-family="Times,serif" font-size="14.00">multiqc&#45;interop v(1.2.1)</text>
</a>
</g>
</g>
<!-- file:///tmp/tmp11x7p9dr#runfolder_name&#45;&gt;file:///tmp/tmp11x7p9dr#interop_qc_step -->
<g id="edge16" class="edge">
<title>file:///tmp/tmp11x7p9dr#runfolder_name&#45;&gt;file:///tmp/tmp11x7p9dr#interop_qc_step</title>
<path fill="none" stroke="black" d="M2622.84,-1086.88C2616.31,-1052.88 2615.77,-978.09 2621.22,-937.33"/>
<polygon fill="black" stroke="black" points="2624.7,-937.7 2622.82,-927.27 2617.79,-936.6 2624.7,-937.7"/>
</g>
<!-- file:///tmp/tmp11x7p9dr#runfolder_name&#45;&gt;file:///tmp/tmp11x7p9dr#interop_qc_step -->
<g id="edge17" class="edge">
<title>file:///tmp/tmp11x7p9dr#runfolder_name&#45;&gt;file:///tmp/tmp11x7p9dr#interop_qc_step</title>
<path fill="none" stroke="black" d="M2631,-1086.88C2631,-1052.88 2631,-978.09 2631,-937.33"/>
<polygon fill="black" stroke="black" points="2634.5,-937.27 2631,-927.27 2627.5,-937.27 2634.5,-937.27"/>
</g>
<!-- file:///tmp/tmp11x7p9dr#runfolder_name&#45;&gt;file:///tmp/tmp11x7p9dr#interop_qc_step -->
<g id="edge18" class="edge">
<title>file:///tmp/tmp11x7p9dr#runfolder_name&#45;&gt;file:///tmp/tmp11x7p9dr#interop_qc_step</title>
<path fill="none" stroke="black" d="M2639.16,-1086.88C2645.69,-1052.88 2646.23,-978.09 2640.78,-937.33"/>
<polygon fill="black" stroke="black" points="2644.21,-936.6 2639.18,-927.27 2637.3,-937.7 2644.21,-936.6"/>
</g>
<!-- file:///tmp/tmp11x7p9dr#samplesheet -->
<g id="node4" class="node">
<title>file:///tmp/tmp11x7p9dr#samplesheet</title>
<g id="a_node4"><a xlink:title="The path to the full samplesheet&#10;">
<polygon fill="#94ddf4" stroke="black" points="406.5,-1087.02 406.5,-1124.02 513.5,-1124.02 513.5,-1087.02 406.5,-1087.02"/>
<text text-anchor="middle" x="460" y="-1101.82" font-family="Times,serif" font-size="14.00">samplesheet</text>
</a>
</g>
</g>
<!-- file:///tmp/tmp11x7p9dr#samplesheet_split_by_settings_step -->
<g id="node19" class="node">
<title>file:///tmp/tmp11x7p9dr#samplesheet_split_by_settings_step</title>
<g id="a_node19"><a xlink:href="https://github.com/umccr/cwl-ica/blob/main/.github/catalogue/docs/tools/custom-samplesheet-split-by-settings/1.0.0/custom-samplesheet-split-by-settings__1.0.0.md" xlink:title="Samplesheet is split by the different input types.&#10;These are generally a difference in override cycles parameters or adapter trimming settings&#10;This then scatters multiple bclconvert workflows split by sample id&#10;">
<polygon fill="lightgoldenrodyellow" stroke="black" points="672,-890.02 672,-927.02 1014,-927.02 1014,-890.02 672,-890.02"/>
<text text-anchor="middle" x="843" y="-904.82" font-family="Times,serif" font-size="14.00">custom&#45;samplesheet&#45;split&#45;by&#45;settings v(1.0.0)</text>
</a>
</g>
</g>
<!-- file:///tmp/tmp11x7p9dr#samplesheet&#45;&gt;file:///tmp/tmp11x7p9dr#samplesheet_split_by_settings_step -->
<g id="edge22" class="edge">
<title>file:///tmp/tmp11x7p9dr#samplesheet&#45;&gt;file:///tmp/tmp11x7p9dr#samplesheet_split_by_settings_step</title>
<path fill="none" stroke="black" d="M480.12,-1086.92C492.08,-1076.96 507.83,-1064.71 523,-1055.52 610.62,-1002.46 720.81,-956.25 786.37,-930.69"/>
<polygon fill="black" stroke="black" points="787.65,-933.95 795.71,-927.08 785.12,-927.42 787.65,-933.95"/>
</g>
<!-- file:///tmp/tmp11x7p9dr#bcl_input_directory -->
<g id="node5" class="node">
<title>file:///tmp/tmp11x7p9dr#bcl_input_directory</title>
<g id="a_node5"><a xlink:title="Path to the bcl files&#10;">
<polygon fill="#94ddf4" stroke="black" points="2152,-1087.02 2152,-1124.02 2306,-1124.02 2306,-1087.02 2152,-1087.02"/>
<text text-anchor="middle" x="2229" y="-1101.82" font-family="Times,serif" font-size="14.00">bcl_input_directory</text>
</a>
</g>
</g>
<!-- file:///tmp/tmp11x7p9dr#bcl_input_directory&#45;&gt;file:///tmp/tmp11x7p9dr#bcl_convert_step -->
<g id="edge23" class="edge">
<title>file:///tmp/tmp11x7p9dr#bcl_input_directory&#45;&gt;file:///tmp/tmp11x7p9dr#bcl_convert_step</title>
<path fill="none" stroke="black" d="M2211.87,-1087C2130.92,-1004.17 1786.58,-651.87 1691.44,-554.53"/>
<polygon fill="black" stroke="black" points="1693.76,-551.9 1684.27,-547.19 1688.76,-556.79 1693.76,-551.9"/>
</g>
<!-- file:///tmp/tmp11x7p9dr#bcl_input_directory&#45;&gt;file:///tmp/tmp11x7p9dr#interop_qc_step -->
<g id="edge24" class="edge">
<title>file:///tmp/tmp11x7p9dr#bcl_input_directory&#45;&gt;file:///tmp/tmp11x7p9dr#interop_qc_step</title>
<path fill="none" stroke="black" d="M2258.51,-1086.89C2274.95,-1077.27 2295.9,-1065.35 2315,-1055.52 2407.25,-1008.04 2517.9,-958.58 2580.77,-931.15"/>
<polygon fill="black" stroke="black" points="2582.29,-934.3 2590.06,-927.1 2579.5,-927.89 2582.29,-934.3"/>
</g>
<!-- file:///tmp/tmp11x7p9dr#bcl_only_lane_bcl_conversion -->
<g id="node6" class="node">
<title>file:///tmp/tmp11x7p9dr#bcl_only_lane_bcl_conversion</title>
<g id="a_node6"><a xlink:title="Convert only the specified lane number. The value must&#10;be less than or equal to the number of lanes specified in the&#10;RunInfo.xml. Must be a single integer value.&#10;">
<polygon fill="#94ddf4" stroke="black" points="1555.5,-1087.02 1555.5,-1124.02 1778.5,-1124.02 1778.5,-1087.02 1555.5,-1087.02"/>
<text text-anchor="middle" x="1667" y="-1101.82" font-family="Times,serif" font-size="14.00">bcl_only_lane_bcl_conversion</text>
</a>
</g>
</g>
<!-- file:///tmp/tmp11x7p9dr#bcl_only_lane_bcl_conversion&#45;&gt;file:///tmp/tmp11x7p9dr#bcl_convert_step -->
<g id="edge25" class="edge">
<title>file:///tmp/tmp11x7p9dr#bcl_only_lane_bcl_conversion&#45;&gt;file:///tmp/tmp11x7p9dr#bcl_convert_step</title>
<path fill="none" stroke="black" d="M1667,-1087C1667,-1004.92 1667,-658.21 1667,-557.23"/>
<polygon fill="black" stroke="black" points="1670.5,-557.19 1667,-547.19 1663.5,-557.19 1670.5,-557.19"/>
</g>
<!-- file:///tmp/tmp11x7p9dr#samplesheet_outdir -->
<g id="node7" class="node">
<title>file:///tmp/tmp11x7p9dr#samplesheet_outdir</title>
<g id="a_node7"><a xlink:title="Output directory of the samplesheets split by settings&#10;">
<polygon fill="#94ddf4" stroke="black" points="764.5,-1087.02 764.5,-1124.02 921.5,-1124.02 921.5,-1087.02 764.5,-1087.02"/>
<text text-anchor="middle" x="843" y="-1101.82" font-family="Times,serif" font-size="14.00">samplesheet_outdir</text>
</a>
</g>
</g>
<!-- file:///tmp/tmp11x7p9dr#samplesheet_outdir&#45;&gt;file:///tmp/tmp11x7p9dr#samplesheet_split_by_settings_step -->
<g id="edge26" class="edge">
<title>file:///tmp/tmp11x7p9dr#samplesheet_outdir&#45;&gt;file:///tmp/tmp11x7p9dr#samplesheet_split_by_settings_step</title>
<path fill="none" stroke="black" d="M843,-1086.88C843,-1052.88 843,-978.09 843,-937.33"/>
<polygon fill="black" stroke="black" points="846.5,-937.27 843,-927.27 839.5,-937.27 846.5,-937.27"/>
</g>
<!-- file:///tmp/tmp11x7p9dr#samplesheet_output_format -->
<g id="node8" class="node">
<title>file:///tmp/tmp11x7p9dr#samplesheet_output_format</title>
<g id="a_node8"><a xlink:title="Convert headers to v2 samplesheet format&#10;">
<polygon fill="#94ddf4" stroke="black" points="531.5,-1087.02 531.5,-1124.02 746.5,-1124.02 746.5,-1087.02 531.5,-1087.02"/>
<text text-anchor="middle" x="639" y="-1101.82" font-family="Times,serif" font-size="14.00">samplesheet_output_format</text>
</a>
</g>
</g>
<!-- file:///tmp/tmp11x7p9dr#samplesheet_output_format&#45;&gt;file:///tmp/tmp11x7p9dr#samplesheet_split_by_settings_step -->
<g id="edge27" class="edge">
<title>file:///tmp/tmp11x7p9dr#samplesheet_output_format&#45;&gt;file:///tmp/tmp11x7p9dr#samplesheet_split_by_settings_step</title>
<path fill="none" stroke="black" d="M657.46,-1086.88C693.93,-1052.01 775.3,-974.24 817.1,-934.28"/>
<polygon fill="black" stroke="black" points="819.62,-936.71 824.43,-927.27 814.78,-931.65 819.62,-936.71"/>
</g>
<!-- file:///tmp/tmp11x7p9dr#delete_undetermined_indices_bcl_conversion -->
<g id="node9" class="node">
<title>file:///tmp/tmp11x7p9dr#delete_undetermined_indices_bcl_conversion</title>
<g id="a_node9"><a xlink:title="Delete undetermined indices on completion of the run&#10;">
<polygon fill="#94ddf4" stroke="black" points="1796.5,-1087.02 1796.5,-1124.02 2133.5,-1124.02 2133.5,-1087.02 1796.5,-1087.02"/>
<text text-anchor="middle" x="1965" y="-1101.82" font-family="Times,serif" font-size="14.00">delete_undetermined_indices_bcl_conversion</text>
</a>
</g>
</g>
<!-- file:///tmp/tmp11x7p9dr#delete_undetermined_indices_bcl_conversion&#45;&gt;file:///tmp/tmp11x7p9dr#bcl_convert_step -->
<g id="edge28" class="edge">
<title>file:///tmp/tmp11x7p9dr#delete_undetermined_indices_bcl_conversion&#45;&gt;file:///tmp/tmp11x7p9dr#bcl_convert_step</title>
<path fill="none" stroke="black" d="M1955.92,-1087C1913.25,-1004.67 1732.6,-656.1 1680.88,-556.31"/>
<polygon fill="black" stroke="black" points="1683.87,-554.46 1676.16,-547.19 1677.65,-557.68 1683.87,-554.46"/>
</g>
<!-- file:///tmp/tmp11x7p9dr#first_tile_only_bcl_conversion -->
<g id="node10" class="node">
<title>file:///tmp/tmp11x7p9dr#first_tile_only_bcl_conversion</title>
<g id="a_node10"><a xlink:title="true — Only process the first tile of the first swath of the&#10; &#160;top surface of each lane specified in the sample sheet.&#10;false — Process all tiles in each lane, as specified in the sample&#10; &#160;sheet.&#10;">
<polygon fill="#94ddf4" stroke="black" points="2324,-1087.02 2324,-1124.02 2548,-1124.02 2548,-1087.02 2324,-1087.02"/>
<text text-anchor="middle" x="2436" y="-1101.82" font-family="Times,serif" font-size="14.00">first_tile_only_bcl_conversion</text>
</a>
</g>
</g>
<!-- file:///tmp/tmp11x7p9dr#first_tile_only_bcl_conversion&#45;&gt;file:///tmp/tmp11x7p9dr#bcl_convert_step -->
<g id="edge29" class="edge">
<title>file:///tmp/tmp11x7p9dr#first_tile_only_bcl_conversion&#45;&gt;file:///tmp/tmp11x7p9dr#bcl_convert_step</title>
<path fill="none" stroke="black" d="M2412.57,-1087C2301.35,-1003.84 1826.83,-649.04 1698.89,-553.37"/>
<polygon fill="black" stroke="black" points="1700.73,-550.38 1690.63,-547.19 1696.54,-555.98 1700.73,-550.38"/>
</g>
<!-- file:///tmp/tmp11x7p9dr#ignore_missing_samples -->
<g id="node11" class="node">
<title>file:///tmp/tmp11x7p9dr#ignore_missing_samples</title>
<g id="a_node11"><a xlink:title="Remove the samples not present in the override cycles record&#10;">
<polygon fill="#94ddf4" stroke="black" points="198,-1087.02 198,-1124.02 388,-1124.02 388,-1087.02 198,-1087.02"/>
<text text-anchor="middle" x="293" y="-1101.82" font-family="Times,serif" font-size="14.00">ignore_missing_samples</text>
</a>
</g>
</g>
<!-- file:///tmp/tmp11x7p9dr#ignore_missing_samples&#45;&gt;file:///tmp/tmp11x7p9dr#samplesheet_split_by_settings_step -->
<g id="edge30" class="edge">
<title>file:///tmp/tmp11x7p9dr#ignore_missing_samples&#45;&gt;file:///tmp/tmp11x7p9dr#samplesheet_split_by_settings_step</title>
<path fill="none" stroke="black" d="M328.02,-1086.9C348.22,-1077.06 374.24,-1064.93 398,-1055.52 527.71,-1004.19 683.43,-956.09 772.04,-929.94"/>
<polygon fill="black" stroke="black" points="773.11,-933.27 781.72,-927.09 771.14,-926.56 773.11,-933.27"/>
</g>
<!-- file:///tmp/tmp11x7p9dr#settings_by_samples -->
<g id="node12" class="node">
<title>file:///tmp/tmp11x7p9dr#settings_by_samples</title>
<g id="a_node12"><a xlink:title="List of settings by samples&#10;">
<polygon fill="#94ddf4" stroke="black" points="16,-1087.02 16,-1124.02 180,-1124.02 180,-1087.02 16,-1087.02"/>
<text text-anchor="middle" x="98" y="-1101.82" font-family="Times,serif" font-size="14.00">settings_by_samples</text>
</a>
</g>
</g>
<!-- file:///tmp/tmp11x7p9dr#settings_by_samples&#45;&gt;file:///tmp/tmp11x7p9dr#samplesheet_split_by_settings_step -->
<g id="edge31" class="edge">
<title>file:///tmp/tmp11x7p9dr#settings_by_samples&#45;&gt;file:///tmp/tmp11x7p9dr#samplesheet_split_by_settings_step</title>
<path fill="none" stroke="black" d="M125.75,-1087C143.31,-1076.57 166.81,-1063.8 189,-1055.52 362.48,-990.86 573.01,-950.17 707.48,-928.64"/>
<polygon fill="black" stroke="black" points="708.11,-932.08 717.44,-927.06 707.01,-925.17 708.11,-932.08"/>
</g>
<!-- file:///tmp/tmp11x7p9dr#interop_multiqc_out -->
<g id="node13" class="node">
<title>file:///tmp/tmp11x7p9dr#interop_multiqc_out</title>
<g id="a_node13"><a xlink:title="multiqc directory output that contains interop data&#10;">
<polygon fill="#94ddf4" stroke="black" points="2022.5,-130.02 2022.5,-167.02 2181.5,-167.02 2181.5,-130.02 2022.5,-130.02"/>
<text text-anchor="middle" x="2102" y="-144.82" font-family="Times,serif" font-size="14.00">interop_multiqc_out</text>
</a>
</g>
</g>
<!-- file:///tmp/tmp11x7p9dr#split_sheets_dir -->
<g id="node14" class="node">
<title>file:///tmp/tmp11x7p9dr#split_sheets_dir</title>
<g id="a_node14"><a xlink:title="The directory containing the samplesheets used for each bcl convert&#10;">
<polygon fill="#94ddf4" stroke="black" points="1379,-130.02 1379,-167.02 1507,-167.02 1507,-130.02 1379,-130.02"/>
<text text-anchor="middle" x="1443" y="-144.82" font-family="Times,serif" font-size="14.00">split_sheets_dir</text>
</a>
</g>
</g>
<!-- file:///tmp/tmp11x7p9dr#bclconvert_multiqc_out -->
<g id="node15" class="node">
<title>file:///tmp/tmp11x7p9dr#bclconvert_multiqc_out</title>
<g id="a_node15"><a xlink:title="multiqc directory output that contains bclconvert multiqc data&#10;">
<polygon fill="#94ddf4" stroke="black" points="1822,-130.02 1822,-167.02 2004,-167.02 2004,-130.02 1822,-130.02"/>
<text text-anchor="middle" x="1913" y="-144.82" font-family="Times,serif" font-size="14.00">bclconvert_multiqc_out</text>
</a>
</g>
</g>
<!-- file:///tmp/tmp11x7p9dr#fastq_list_rows -->
<g id="node16" class="node">
<title>file:///tmp/tmp11x7p9dr#fastq_list_rows</title>
<g id="a_node16"><a xlink:title="Contains the fastq list row schema for each of the output fastq files&#10;">
<polygon fill="#94ddf4" stroke="black" points="1680.5,-130.02 1680.5,-167.02 1803.5,-167.02 1803.5,-130.02 1680.5,-130.02"/>
<text text-anchor="middle" x="1742" y="-144.82" font-family="Times,serif" font-size="14.00">fastq_list_rows</text>
</a>
</g>
</g>
<!-- file:///tmp/tmp11x7p9dr#split_sheets -->
<g id="node17" class="node">
<title>file:///tmp/tmp11x7p9dr#split_sheets</title>
<g id="a_node17"><a xlink:title="List of samplesheets split by override cycles&#10;">
<polygon fill="#94ddf4" stroke="black" points="1259.5,-130.02 1259.5,-167.02 1360.5,-167.02 1360.5,-130.02 1259.5,-130.02"/>
<text text-anchor="middle" x="1310" y="-144.82" font-family="Times,serif" font-size="14.00">split_sheets</text>
</a>
</g>
</g>
<!-- file:///tmp/tmp11x7p9dr#fastq_directories -->
<g id="node18" class="node">
<title>file:///tmp/tmp11x7p9dr#fastq_directories</title>
<g id="a_node18"><a xlink:title="The outputs from the bclconvert&#45;step&#10;">
<polygon fill="#94ddf4" stroke="black" points="1525.5,-130.02 1525.5,-167.02 1662.5,-167.02 1662.5,-130.02 1525.5,-130.02"/>
<text text-anchor="middle" x="1594" y="-144.82" font-family="Times,serif" font-size="14.00">fastq_directories</text>
</a>
</g>
</g>
<!-- file:///tmp/tmp11x7p9dr#samplesheet_split_by_settings_step&#45;&gt;file:///tmp/tmp11x7p9dr#split_sheets_dir -->
<g id="edge3" class="edge">
<title>file:///tmp/tmp11x7p9dr#samplesheet_split_by_settings_step&#45;&gt;file:///tmp/tmp11x7p9dr#split_sheets_dir</title>
<path fill="none" stroke="black" d="M856.95,-889.9C936.16,-789.83 1329.18,-293.32 1422.91,-174.91"/>
<polygon fill="black" stroke="black" points="1425.67,-177.06 1429.13,-167.05 1420.18,-172.72 1425.67,-177.06"/>
</g>
<!-- file:///tmp/tmp11x7p9dr#samplesheet_split_by_settings_step&#45;&gt;file:///tmp/tmp11x7p9dr#split_sheets -->
<g id="edge4" class="edge">
<title>file:///tmp/tmp11x7p9dr#samplesheet_split_by_settings_step&#45;&gt;file:///tmp/tmp11x7p9dr#split_sheets</title>
<path fill="none" stroke="black" d="M837.92,-889.93C816.91,-813.29 744.08,-504.11 878,-319.52 965.57,-198.83 1152.19,-163.8 1248.96,-153.65"/>
<polygon fill="black" stroke="black" points="1249.57,-157.11 1259.18,-152.64 1248.88,-150.14 1249.57,-157.11"/>
</g>
<!-- file:///tmp/tmp11x7p9dr#samplesheet_split_by_settings_step&#45;&gt;file:///tmp/tmp11x7p9dr#bcl_convert_step -->
<g id="edge1" class="edge">
<title>file:///tmp/tmp11x7p9dr#samplesheet_split_by_settings_step&#45;&gt;file:///tmp/tmp11x7p9dr#bcl_convert_step</title>
<path fill="none" stroke="black" d="M857.44,-889.82C891,-849.84 978.63,-751.94 1073,-699.52 1239,-607.33 1459.46,-561.35 1579.68,-541.76"/>
<polygon fill="black" stroke="black" points="1580.26,-545.21 1589.58,-540.17 1579.15,-538.3 1580.26,-545.21"/>
</g>
<!-- file:///tmp/tmp11x7p9dr#get_batch_dirs -->
<g id="node21" class="node">
<title>file:///tmp/tmp11x7p9dr#get_batch_dirs</title>
<g id="a_node21"><a xlink:href="https://github.com/umccr/cwl-ica/blob/main/.github/catalogue/docs/expressions/get-samplesheet-midfix-regex/1.0.0/get-samplesheet-midfix-regex__1.0.0.md" xlink:title="Get the directory names of each of the directories we wish to scatter over&#10;">
<polygon fill="#ee9a00" stroke="black" points="1081.5,-700.02 1081.5,-737.02 1368.5,-737.02 1368.5,-700.02 1081.5,-700.02"/>
<text text-anchor="middle" x="1225" y="-714.82" font-family="Times,serif" font-size="14.00">get&#45;samplesheet&#45;midfix&#45;regex v(1.0.0)</text>
</a>
</g>
</g>
<!-- file:///tmp/tmp11x7p9dr#samplesheet_split_by_settings_step&#45;&gt;file:///tmp/tmp11x7p9dr#get_batch_dirs -->
<g id="edge2" class="edge">
<title>file:///tmp/tmp11x7p9dr#samplesheet_split_by_settings_step&#45;&gt;file:///tmp/tmp11x7p9dr#get_batch_dirs</title>
<path fill="none" stroke="black" d="M878.59,-890.01C948.4,-855.65 1103.13,-779.5 1179.94,-741.7"/>
<polygon fill="black" stroke="black" points="1181.93,-744.62 1189.36,-737.07 1178.84,-738.34 1181.93,-744.62"/>
</g>
<!-- file:///tmp/tmp11x7p9dr#bcl_convert_step&#45;&gt;file:///tmp/tmp11x7p9dr#fastq_directories -->
<g id="edge7" class="edge">
<title>file:///tmp/tmp11x7p9dr#bcl_convert_step&#45;&gt;file:///tmp/tmp11x7p9dr#fastq_directories</title>
<path fill="none" stroke="black" d="M1657.62,-509.8C1642.17,-479.56 1611.91,-415.64 1600,-357.52 1587.01,-294.15 1589.26,-217.65 1591.78,-177.41"/>
<polygon fill="black" stroke="black" points="1595.28,-177.51 1592.47,-167.29 1588.3,-177.03 1595.28,-177.51"/>
</g>
<!-- file:///tmp/tmp11x7p9dr#flatten_fastq_list_rows_array -->
<g id="node22" class="node">
<title>file:///tmp/tmp11x7p9dr#flatten_fastq_list_rows_array</title>
<g id="a_node22"><a xlink:href="https://github.com/umccr/cwl-ica/blob/main/.github/catalogue/docs/expressions/flatten-array-fastq-list/1.0.0/flatten-array-fastq-list__1.0.0.md" xlink:title="fastq list rows is an array and bcl convert is from a directory output.&#10;This scatters the arrays to a single array&#10;">
<polygon fill="#ee9a00" stroke="black" points="1608.5,-320.02 1608.5,-357.02 1899.5,-357.02 1899.5,-320.02 1608.5,-320.02"/>
<text text-anchor="middle" x="1754" y="-334.82" font-family="Times,serif" font-size="14.00">flatten&#45;array&#45;fastq&#45;list&#45;schema v(1.0.0)</text>
</a>
</g>
</g>
<!-- file:///tmp/tmp11x7p9dr#bcl_convert_step&#45;&gt;file:///tmp/tmp11x7p9dr#flatten_fastq_list_rows_array -->
<g id="edge5" class="edge">
<title>file:///tmp/tmp11x7p9dr#bcl_convert_step&#45;&gt;file:///tmp/tmp11x7p9dr#flatten_fastq_list_rows_array</title>
<path fill="none" stroke="black" d="M1675.18,-509.84C1690.51,-476.72 1723.61,-405.19 1741.66,-366.2"/>
<polygon fill="black" stroke="black" points="1744.88,-367.57 1745.9,-357.03 1738.52,-364.63 1744.88,-367.57"/>
</g>
<!-- file:///tmp/tmp11x7p9dr#bcl_convert_step&#45;&gt;file:///tmp/tmp11x7p9dr#bclconvert_qc_step -->
<g id="edge6" class="edge">
<title>file:///tmp/tmp11x7p9dr#bcl_convert_step&#45;&gt;file:///tmp/tmp11x7p9dr#bclconvert_qc_step</title>
<path fill="none" stroke="black" d="M1743.87,-510.01C1900.15,-474.4 2253.51,-393.87 2412.21,-357.71"/>
<polygon fill="black" stroke="black" points="2413.4,-361.03 2422.37,-355.39 2411.85,-354.2 2413.4,-361.03"/>
</g>
<!-- file:///tmp/tmp11x7p9dr#get_batch_dirs&#45;&gt;file:///tmp/tmp11x7p9dr#bcl_convert_step -->
<g id="edge8" class="edge">
<title>file:///tmp/tmp11x7p9dr#get_batch_dirs&#45;&gt;file:///tmp/tmp11x7p9dr#bcl_convert_step</title>
<path fill="none" stroke="black" d="M1266.19,-700.01C1347.45,-665.44 1528.18,-588.57 1616.48,-551.01"/>
<polygon fill="black" stroke="black" points="1617.93,-554.2 1625.76,-547.07 1615.19,-547.76 1617.93,-554.2"/>
</g>
<!-- file:///tmp/tmp11x7p9dr#flatten_fastq_list_rows_array&#45;&gt;file:///tmp/tmp11x7p9dr#fastq_list_rows -->
<g id="edge9" class="edge">
<title>file:///tmp/tmp11x7p9dr#flatten_fastq_list_rows_array&#45;&gt;file:///tmp/tmp11x7p9dr#fastq_list_rows</title>
<path fill="none" stroke="black" d="M1752.87,-319.84C1750.78,-287 1746.27,-216.4 1743.77,-177.2"/>
<polygon fill="black" stroke="black" points="1747.25,-176.78 1743.12,-167.03 1740.26,-177.23 1747.25,-176.78"/>
</g>
<!-- file:///tmp/tmp11x7p9dr#bclconvert_qc_step&#45;&gt;file:///tmp/tmp11x7p9dr#bclconvert_multiqc_out -->
<g id="edge13" class="edge">
<title>file:///tmp/tmp11x7p9dr#bclconvert_qc_step&#45;&gt;file:///tmp/tmp11x7p9dr#bclconvert_multiqc_out</title>
<path fill="none" stroke="black" d="M2438.05,-320.01C2330.84,-285.2 2091.48,-207.48 1976.73,-170.22"/>
<polygon fill="black" stroke="black" points="1977.62,-166.83 1967.02,-167.07 1975.46,-173.48 1977.62,-166.83"/>
</g>
<!-- file:///tmp/tmp11x7p9dr#create_dummy_file_step -->
<g id="node24" class="node">
<title>file:///tmp/tmp11x7p9dr#create_dummy_file_step</title>
<g id="a_node24"><a xlink:href="https://github.com/umccr/cwl-ica/blob/main/.github/catalogue/docs/tools/custom-touch-file/1.0.0/custom-touch-file__1.0.0.md" xlink:title="Intermediate step for letting multiqc&#45;interop be placed in stream mode&#10;">
<polygon fill="lightgoldenrodyellow" stroke="black" points="2713.5,-1087.02 2713.5,-1124.02 2974.5,-1124.02 2974.5,-1087.02 2713.5,-1087.02"/>
<text text-anchor="middle" x="2844" y="-1101.82" font-family="Times,serif" font-size="14.00">custom&#45;create&#45;dummy&#45;file v(1.0.0)</text>
</a>
</g>
</g>
<!-- file:///tmp/tmp11x7p9dr#create_dummy_file_step&#45;&gt;file:///tmp/tmp11x7p9dr#bclconvert_qc_step -->
<g id="edge11" class="edge">
<title>file:///tmp/tmp11x7p9dr#create_dummy_file_step&#45;&gt;file:///tmp/tmp11x7p9dr#bclconvert_qc_step</title>
<path fill="none" stroke="black" d="M2835.82,-1086.74C2789.53,-986.15 2560.62,-488.65 2504.46,-366.6"/>
<polygon fill="black" stroke="black" points="2507.5,-364.83 2500.14,-357.21 2501.14,-367.76 2507.5,-364.83"/>
</g>
<!-- file:///tmp/tmp11x7p9dr#create_dummy_file_step&#45;&gt;file:///tmp/tmp11x7p9dr#interop_qc_step -->
<g id="edge10" class="edge">
<title>file:///tmp/tmp11x7p9dr#create_dummy_file_step&#45;&gt;file:///tmp/tmp11x7p9dr#interop_qc_step</title>
<path fill="none" stroke="black" d="M2824.72,-1086.88C2786.56,-1051.94 2701.34,-973.92 2657.77,-934.03"/>
<polygon fill="black" stroke="black" points="2660.13,-931.44 2650.39,-927.27 2655.4,-936.61 2660.13,-931.44"/>
</g>
<!-- file:///tmp/tmp11x7p9dr#interop_qc_step&#45;&gt;file:///tmp/tmp11x7p9dr#interop_multiqc_out -->
<g id="edge12" class="edge">
<title>file:///tmp/tmp11x7p9dr#interop_qc_step&#45;&gt;file:///tmp/tmp11x7p9dr#interop_multiqc_out</title>
<path fill="none" stroke="black" d="M2635.22,-889.99C2652.68,-812.92 2711.88,-500.17 2571,-319.52 2479.71,-202.47 2300.42,-165.95 2191.9,-154.6"/>
<polygon fill="black" stroke="black" points="2192.24,-151.12 2181.94,-153.61 2191.55,-158.08 2192.24,-151.12"/>
</g>
</g>
</svg>
