<?xml version="1.0" encoding="UTF-8" standalone="no"?>
<!DOCTYPE svg PUBLIC "-//W3C//DTD SVG 1.1//EN"
 "http://www.w3.org/Graphics/SVG/1.1/DTD/svg11.dtd">
<!-- Generated by graphviz version 2.43.0 (0)
 -->
<!-- Title: G Pages: 1 -->
<svg width="3673pt" height="1067pt"
 viewBox="0.00 0.00 3673.00 1067.18" xmlns="http://www.w3.org/2000/svg" xmlns:xlink="http://www.w3.org/1999/xlink">
<g id="graph0" class="graph" transform="scale(1 1) rotate(0) translate(4 1063.18)">
<title>G</title>
<polygon fill="#eeeeee" stroke="transparent" points="-4,4 -4,-1063.18 3669,-1063.18 3669,4 -4,4"/>
<g id="clust1" class="cluster">
<title>cluster_inputs</title>
<polygon fill="#eeeeee" stroke="black" stroke-dasharray="5,2" points="8,-687.16 8,-1024.17 3601,-1024.17 3601,-687.16 8,-687.16"/>
<text text-anchor="middle" x="3534.5" y="-694.96" font-family="Times,serif" font-size="14.00">Workflow Inputs</text>
</g>
<g id="clust2" class="cluster">
<title>cluster_outputs</title>
<polygon fill="#eeeeee" stroke="black" stroke-dasharray="5,2" points="1605,-35.01 1605,-372.03 1947,-372.03 1947,-35.01 1605,-35.01"/>
<text text-anchor="middle" x="1874.5" y="-42.81" font-family="Times,serif" font-size="14.00">Workflow Outputs</text>
</g>
<!-- arriba_dir -->
<g id="node1" class="node">
<title>arriba_dir</title>
<polygon fill="#94ddf4" stroke="black" points="3505.5,-887.51 3505.5,-924.51 3592.5,-924.51 3592.5,-887.51 3505.5,-887.51"/>
<text text-anchor="middle" x="3549" y="-902.31" font-family="Times,serif" font-size="14.00">arriba_dir</text>
</g>
<!-- run_rnasum_step -->
<g id="node35" class="node">
<title>run_rnasum_step</title>
<ellipse fill="none" stroke="black" cx="1798" cy="-573.01" rx="91" ry="18"/>
<text text-anchor="middle" x="1798" y="-569.31" font-family="Times,serif" font-size="14.00">run_rnasum_step</text>
</g>
<!-- arriba_dir&#45;&gt;run_rnasum_step -->
<g id="edge1" class="edge">
<title>arriba_dir&#45;&gt;run_rnasum_step</title>
<path fill="none" stroke="black" d="M3534.64,-887.27C3524.9,-876.48 3511.08,-863.4 3496,-856.01 3206.51,-714.24 2199.05,-611.15 1889.31,-582.23"/>
<polygon fill="black" stroke="black" points="1889.31,-578.71 1879.03,-581.27 1888.66,-585.68 1889.31,-578.71"/>
</g>
<!-- arriba_pdf -->
<g id="node2" class="node">
<title>arriba_pdf</title>
<polygon fill="#94ddf4" stroke="black" points="3397,-887.51 3397,-924.51 3487,-924.51 3487,-887.51 3397,-887.51"/>
<text text-anchor="middle" x="3442" y="-902.31" font-family="Times,serif" font-size="14.00">arriba_pdf</text>
</g>
<!-- arriba_pdf&#45;&gt;run_rnasum_step -->
<g id="edge2" class="edge">
<title>arriba_pdf&#45;&gt;run_rnasum_step</title>
<path fill="none" stroke="black" d="M3427.27,-887.33C3417.31,-876.56 3403.23,-863.49 3388,-856.01 3117.66,-723.35 2181.35,-614.76 1887.17,-583.26"/>
<polygon fill="black" stroke="black" points="1887.3,-579.75 1876.98,-582.17 1886.56,-586.71 1887.3,-579.75"/>
</g>
<!-- arriba_tsv -->
<g id="node3" class="node">
<title>arriba_tsv</title>
<polygon fill="#94ddf4" stroke="black" points="3289.5,-887.51 3289.5,-924.51 3378.5,-924.51 3378.5,-887.51 3289.5,-887.51"/>
<text text-anchor="middle" x="3334" y="-902.31" font-family="Times,serif" font-size="14.00">arriba_tsv</text>
</g>
<!-- arriba_tsv&#45;&gt;run_rnasum_step -->
<g id="edge3" class="edge">
<title>arriba_tsv&#45;&gt;run_rnasum_step</title>
<path fill="none" stroke="black" d="M3319.58,-887.39C3309.81,-876.65 3295.99,-863.58 3281,-856.01 2804.67,-615.81 2148.23,-579.31 1899.25,-574.43"/>
<polygon fill="black" stroke="black" points="1899.2,-570.93 1889.13,-574.24 1899.07,-577.93 1899.2,-570.93"/>
</g>
<!-- batch_rm -->
<g id="node4" class="node">
<title>batch_rm</title>
<polygon fill="#94ddf4" stroke="black" points="3188.5,-887.51 3188.5,-924.51 3271.5,-924.51 3271.5,-887.51 3188.5,-887.51"/>
<text text-anchor="middle" x="3230" y="-902.31" font-family="Times,serif" font-size="14.00">batch_rm</text>
</g>
<!-- batch_rm&#45;&gt;run_rnasum_step -->
<g id="edge4" class="edge">
<title>batch_rm&#45;&gt;run_rnasum_step</title>
<path fill="none" stroke="black" d="M3216.56,-887.44C3207.41,-876.72 3194.38,-863.65 3180,-856.01 2743.48,-624.14 2136.15,-582.6 1898.75,-575.4"/>
<polygon fill="black" stroke="black" points="1898.85,-571.91 1888.75,-575.12 1898.64,-578.9 1898.85,-571.91"/>
</g>
<!-- cn_gain -->
<g id="node5" class="node">
<title>cn_gain</title>
<polygon fill="#94ddf4" stroke="black" points="3099.5,-887.51 3099.5,-924.51 3170.5,-924.51 3170.5,-887.51 3099.5,-887.51"/>
<text text-anchor="middle" x="3135" y="-902.31" font-family="Times,serif" font-size="14.00">cn_gain</text>
</g>
<!-- cn_gain&#45;&gt;run_rnasum_step -->
<g id="edge5" class="edge">
<title>cn_gain&#45;&gt;run_rnasum_step</title>
<path fill="none" stroke="black" d="M3123.22,-887.49C3115.12,-876.79 3103.42,-863.72 3090,-856.01 2691.5,-627.1 2126.25,-583.76 1898.67,-575.74"/>
<polygon fill="black" stroke="black" points="1898.54,-572.23 1888.42,-575.39 1898.3,-579.23 1898.54,-572.23"/>
</g>
<!-- cn_loss -->
<g id="node6" class="node">
<title>cn_loss</title>
<polygon fill="#94ddf4" stroke="black" points="3013,-887.51 3013,-924.51 3081,-924.51 3081,-887.51 3013,-887.51"/>
<text text-anchor="middle" x="3047" y="-902.31" font-family="Times,serif" font-size="14.00">cn_loss</text>
</g>
<!-- cn_loss&#45;&gt;run_rnasum_step -->
<g id="edge6" class="edge">
<title>cn_loss&#45;&gt;run_rnasum_step</title>
<path fill="none" stroke="black" d="M3035.53,-887.07C3027.85,-876.48 3016.81,-863.7 3004,-856.01 2637.76,-636.42 2113.96,-587.82 1897.47,-577.07"/>
<polygon fill="black" stroke="black" points="1897.55,-573.57 1887.4,-576.59 1897.22,-580.56 1897.55,-573.57"/>
</g>
<!-- dataset -->
<g id="node7" class="node">
<title>dataset</title>
<polygon fill="#94ddf4" stroke="black" points="2925,-887.51 2925,-924.51 2995,-924.51 2995,-887.51 2925,-887.51"/>
<text text-anchor="middle" x="2960" y="-902.31" font-family="Times,serif" font-size="14.00">dataset</text>
</g>
<!-- dataset&#45;&gt;run_rnasum_step -->
<g id="edge7" class="edge">
<title>dataset&#45;&gt;run_rnasum_step</title>
<path fill="none" stroke="black" d="M2948.13,-887.15C2940.21,-876.6 2928.92,-863.81 2916,-856.01 2578.1,-652.04 2097.49,-594.98 1894.45,-579.53"/>
<polygon fill="black" stroke="black" points="1894.64,-576.04 1884.41,-578.78 1894.12,-583.02 1894.64,-576.04"/>
</g>
<!-- dataset_name_incl -->
<g id="node8" class="node">
<title>dataset_name_incl</title>
<polygon fill="#94ddf4" stroke="black" points="2759,-887.51 2759,-924.51 2907,-924.51 2907,-887.51 2759,-887.51"/>
<text text-anchor="middle" x="2833" y="-902.31" font-family="Times,serif" font-size="14.00">dataset_name_incl</text>
</g>
<!-- dataset_name_incl&#45;&gt;run_rnasum_step -->
<g id="edge8" class="edge">
<title>dataset_name_incl&#45;&gt;run_rnasum_step</title>
<path fill="none" stroke="black" d="M2806.97,-887.4C2791.04,-877.2 2769.94,-864.7 2750,-856.01 2433.55,-718.23 2029.73,-623.47 1868.8,-588.72"/>
<polygon fill="black" stroke="black" points="1869.07,-585.19 1858.56,-586.52 1867.6,-592.04 1869.07,-585.19"/>
</g>
<!-- dragen_fusions -->
<g id="node9" class="node">
<title>dragen_fusions</title>
<polygon fill="#94ddf4" stroke="black" points="2615.5,-887.51 2615.5,-924.51 2740.5,-924.51 2740.5,-887.51 2615.5,-887.51"/>
<text text-anchor="middle" x="2678" y="-902.31" font-family="Times,serif" font-size="14.00">dragen_fusions</text>
</g>
<!-- dragen_fusions&#45;&gt;run_rnasum_step -->
<g id="edge9" class="edge">
<title>dragen_fusions&#45;&gt;run_rnasum_step</title>
<path fill="none" stroke="black" d="M2655.95,-887.49C2642.4,-877.33 2624.36,-864.83 2607,-856.01 2343.75,-722.38 2002.39,-626.44 1862.29,-590.08"/>
<polygon fill="black" stroke="black" points="1863.11,-586.68 1852.55,-587.57 1861.36,-593.46 1863.11,-586.68"/>
</g>
<!-- dragen_mapping_metrics -->
<g id="node10" class="node">
<title>dragen_mapping_metrics</title>
<polygon fill="#94ddf4" stroke="black" points="2400.5,-887.51 2400.5,-924.51 2597.5,-924.51 2597.5,-887.51 2400.5,-887.51"/>
<text text-anchor="middle" x="2499" y="-902.31" font-family="Times,serif" font-size="14.00">dragen_mapping_metrics</text>
</g>
<!-- dragen_mapping_metrics&#45;&gt;run_rnasum_step -->
<g id="edge10" class="edge">
<title>dragen_mapping_metrics&#45;&gt;run_rnasum_step</title>
<path fill="none" stroke="black" d="M2461.81,-887.45C2342.1,-830.93 1967.24,-653.93 1840.42,-594.05"/>
<polygon fill="black" stroke="black" points="1841.91,-590.88 1831.37,-589.77 1838.92,-597.21 1841.91,-590.88"/>
</g>
<!-- dragen_wts_dir -->
<g id="node11" class="node">
<title>dragen_wts_dir</title>
<polygon fill="#94ddf4" stroke="black" points="2256,-887.51 2256,-924.51 2382,-924.51 2382,-887.51 2256,-887.51"/>
<text text-anchor="middle" x="2319" y="-902.31" font-family="Times,serif" font-size="14.00">dragen_wts_dir</text>
</g>
<!-- dragen_wts_dir&#45;&gt;run_rnasum_step -->
<g id="edge11" class="edge">
<title>dragen_wts_dir&#45;&gt;run_rnasum_step</title>
<path fill="none" stroke="black" d="M2293.5,-887.32C2279.79,-877.9 2262.56,-866.19 2247,-856.01 2094.69,-756.4 1909.82,-642.45 1833.54,-595.72"/>
<polygon fill="black" stroke="black" points="1835.14,-592.6 1824.79,-590.36 1831.49,-598.57 1835.14,-592.6"/>
</g>
<!-- drugs -->
<g id="node12" class="node">
<title>drugs</title>
<polygon fill="#94ddf4" stroke="black" points="2180,-887.51 2180,-924.51 2238,-924.51 2238,-887.51 2180,-887.51"/>
<text text-anchor="middle" x="2209" y="-902.31" font-family="Times,serif" font-size="14.00">drugs</text>
</g>
<!-- drugs&#45;&gt;run_rnasum_step -->
<g id="edge12" class="edge">
<title>drugs&#45;&gt;run_rnasum_step</title>
<path fill="none" stroke="black" d="M2197.02,-887.31C2190.01,-877.57 2180.65,-865.55 2171,-856.01 2058.79,-745.18 1902.07,-640.16 1833.03,-595.96"/>
<polygon fill="black" stroke="black" points="1834.58,-592.8 1824.27,-590.38 1830.82,-598.7 1834.58,-592.8"/>
</g>
<!-- filter -->
<g id="node13" class="node">
<title>filter</title>
<polygon fill="#94ddf4" stroke="black" points="2108,-887.51 2108,-924.51 2162,-924.51 2162,-887.51 2108,-887.51"/>
<text text-anchor="middle" x="2135" y="-902.31" font-family="Times,serif" font-size="14.00">filter</text>
</g>
<!-- filter&#45;&gt;run_rnasum_step -->
<g id="edge13" class="edge">
<title>filter&#45;&gt;run_rnasum_step</title>
<path fill="none" stroke="black" d="M2123.09,-887.18C2116.41,-877.61 2107.69,-865.8 2099,-856.01 2006.78,-752.09 1881.43,-643.69 1826.16,-597.31"/>
<polygon fill="black" stroke="black" points="1828.13,-594.4 1818.21,-590.67 1823.64,-599.77 1828.13,-594.4"/>
</g>
<!-- immunogram -->
<g id="node14" class="node">
<title>immunogram</title>
<polygon fill="#94ddf4" stroke="black" points="1978,-887.51 1978,-924.51 2090,-924.51 2090,-887.51 1978,-887.51"/>
<text text-anchor="middle" x="2034" y="-902.31" font-family="Times,serif" font-size="14.00">immunogram</text>
</g>
<!-- immunogram&#45;&gt;run_rnasum_step -->
<g id="edge14" class="edge">
<title>immunogram&#45;&gt;run_rnasum_step</title>
<path fill="none" stroke="black" d="M2021.31,-887.22C1981.99,-832.07 1862.07,-663.88 1816.15,-599.48"/>
<polygon fill="black" stroke="black" points="1818.84,-597.21 1810.18,-591.1 1813.14,-601.27 1818.84,-597.21"/>
</g>
<!-- log -->
<g id="node15" class="node">
<title>log</title>
<polygon fill="#94ddf4" stroke="black" points="1906,-887.51 1906,-924.51 1960,-924.51 1960,-887.51 1906,-887.51"/>
<text text-anchor="middle" x="1933" y="-902.31" font-family="Times,serif" font-size="14.00">log</text>
</g>
<!-- log&#45;&gt;run_rnasum_step -->
<g id="edge15" class="edge">
<title>log&#45;&gt;run_rnasum_step</title>
<path fill="none" stroke="black" d="M1925.74,-887.22C1903.39,-832.41 1835.49,-665.94 1808.87,-600.67"/>
<polygon fill="black" stroke="black" points="1811.99,-599.04 1804.97,-591.1 1805.5,-601.68 1811.99,-599.04"/>
</g>
<!-- manta_tsv -->
<g id="node16" class="node">
<title>manta_tsv</title>
<polygon fill="#94ddf4" stroke="black" points="1798,-887.51 1798,-924.51 1888,-924.51 1888,-887.51 1798,-887.51"/>
<text text-anchor="middle" x="1843" y="-902.31" font-family="Times,serif" font-size="14.00">manta_tsv</text>
</g>
<!-- manta_tsv&#45;&gt;run_rnasum_step -->
<g id="edge16" class="edge">
<title>manta_tsv&#45;&gt;run_rnasum_step</title>
<path fill="none" stroke="black" d="M1840.58,-887.22C1833.14,-832.52 1810.59,-666.62 1801.68,-601.08"/>
<polygon fill="black" stroke="black" points="1805.14,-600.54 1800.32,-591.1 1798.2,-601.48 1805.14,-600.54"/>
</g>
<!-- norm -->
<g id="node17" class="node">
<title>norm</title>
<polygon fill="#94ddf4" stroke="black" points="1726,-887.51 1726,-924.51 1780,-924.51 1780,-887.51 1726,-887.51"/>
<text text-anchor="middle" x="1753" y="-902.31" font-family="Times,serif" font-size="14.00">norm</text>
</g>
<!-- norm&#45;&gt;run_rnasum_step -->
<g id="edge17" class="edge">
<title>norm&#45;&gt;run_rnasum_step</title>
<path fill="none" stroke="black" d="M1755.42,-887.22C1762.86,-832.52 1785.41,-666.62 1794.32,-601.08"/>
<polygon fill="black" stroke="black" points="1797.8,-601.48 1795.68,-591.1 1790.86,-600.54 1797.8,-601.48"/>
</g>
<!-- pcgr_splice_vars -->
<g id="node18" class="node">
<title>pcgr_splice_vars</title>
<polygon fill="#94ddf4" stroke="black" points="1574,-887.51 1574,-924.51 1708,-924.51 1708,-887.51 1574,-887.51"/>
<text text-anchor="middle" x="1641" y="-902.31" font-family="Times,serif" font-size="14.00">pcgr_splice_vars</text>
</g>
<!-- pcgr_splice_vars&#45;&gt;run_rnasum_step -->
<g id="edge18" class="edge">
<title>pcgr_splice_vars&#45;&gt;run_rnasum_step</title>
<path fill="none" stroke="black" d="M1649.44,-887.22C1675.49,-832.3 1754.72,-665.25 1785.55,-600.27"/>
<polygon fill="black" stroke="black" points="1788.77,-601.63 1789.9,-591.1 1782.45,-598.63 1788.77,-601.63"/>
</g>
<!-- pcgr_tier -->
<g id="node19" class="node">
<title>pcgr_tier</title>
<polygon fill="#94ddf4" stroke="black" points="1474.5,-887.51 1474.5,-924.51 1555.5,-924.51 1555.5,-887.51 1474.5,-887.51"/>
<text text-anchor="middle" x="1515" y="-902.31" font-family="Times,serif" font-size="14.00">pcgr_tier</text>
</g>
<!-- pcgr_tier&#45;&gt;run_rnasum_step -->
<g id="edge19" class="edge">
<title>pcgr_tier&#45;&gt;run_rnasum_step</title>
<path fill="none" stroke="black" d="M1530.22,-887.22C1577.46,-831.96 1721.75,-663.19 1776.57,-599.08"/>
<polygon fill="black" stroke="black" points="1779.55,-600.97 1783.39,-591.1 1774.23,-596.43 1779.55,-600.97"/>
</g>
<!-- pcgr_tiers_tsv -->
<g id="node20" class="node">
<title>pcgr_tiers_tsv</title>
<polygon fill="#94ddf4" stroke="black" points="1339.5,-887.51 1339.5,-924.51 1456.5,-924.51 1456.5,-887.51 1339.5,-887.51"/>
<text text-anchor="middle" x="1398" y="-902.31" font-family="Times,serif" font-size="14.00">pcgr_tiers_tsv</text>
</g>
<!-- pcgr_tiers_tsv&#45;&gt;run_rnasum_step -->
<g id="edge20" class="edge">
<title>pcgr_tiers_tsv&#45;&gt;run_rnasum_step</title>
<path fill="none" stroke="black" d="M1419.22,-887.45C1486.39,-831.87 1694.32,-659.81 1770.05,-597.14"/>
<polygon fill="black" stroke="black" points="1772.31,-599.81 1777.79,-590.74 1767.85,-594.42 1772.31,-599.81"/>
</g>
<!-- project -->
<g id="node21" class="node">
<title>project</title>
<polygon fill="#94ddf4" stroke="black" points="1254.5,-887.51 1254.5,-924.51 1321.5,-924.51 1321.5,-887.51 1254.5,-887.51"/>
<text text-anchor="middle" x="1288" y="-902.31" font-family="Times,serif" font-size="14.00">project</text>
</g>
<!-- project&#45;&gt;run_rnasum_step -->
<g id="edge21" class="edge">
<title>project&#45;&gt;run_rnasum_step</title>
<path fill="none" stroke="black" d="M1301.17,-887.49C1309.14,-877.56 1319.89,-865.31 1331,-856.01 1472.58,-737.51 1669.34,-635.96 1755.14,-594.26"/>
<polygon fill="black" stroke="black" points="1756.83,-597.33 1764.31,-589.83 1753.78,-591.03 1756.83,-597.33"/>
</g>
<!-- purple_gene_tsv -->
<g id="node22" class="node">
<title>purple_gene_tsv</title>
<polygon fill="#94ddf4" stroke="black" points="1103.5,-887.51 1103.5,-924.51 1236.5,-924.51 1236.5,-887.51 1103.5,-887.51"/>
<text text-anchor="middle" x="1170" y="-902.31" font-family="Times,serif" font-size="14.00">purple_gene_tsv</text>
</g>
<!-- purple_gene_tsv&#45;&gt;run_rnasum_step -->
<g id="edge22" class="edge">
<title>purple_gene_tsv&#45;&gt;run_rnasum_step</title>
<path fill="none" stroke="black" d="M1195.98,-887.35C1210.48,-877.72 1228.99,-865.81 1246,-856.01 1431.05,-749.45 1660.89,-638.65 1754.89,-594.21"/>
<polygon fill="black" stroke="black" points="1756.54,-597.31 1764.09,-589.87 1753.55,-590.98 1756.54,-597.31"/>
</g>
<!-- report_dir -->
<g id="node23" class="node">
<title>report_dir</title>
<polygon fill="#94ddf4" stroke="black" points="996.5,-887.51 996.5,-924.51 1085.5,-924.51 1085.5,-887.51 996.5,-887.51"/>
<text text-anchor="middle" x="1041" y="-902.31" font-family="Times,serif" font-size="14.00">report_dir</text>
</g>
<!-- report_dir&#45;&gt;run_rnasum_step -->
<g id="edge23" class="edge">
<title>report_dir&#45;&gt;run_rnasum_step</title>
<path fill="none" stroke="black" d="M1057.23,-887.43C1067.34,-877.24 1081.05,-864.74 1095,-856.01 1313.42,-719.32 1609.33,-626.67 1736.15,-590.72"/>
<polygon fill="black" stroke="black" points="1737.4,-594.01 1746.07,-587.93 1735.5,-587.27 1737.4,-594.01"/>
</g>
<!-- salmon -->
<g id="node24" class="node">
<title>salmon</title>
<polygon fill="#94ddf4" stroke="black" points="910,-887.51 910,-924.51 978,-924.51 978,-887.51 910,-887.51"/>
<text text-anchor="middle" x="944" y="-902.31" font-family="Times,serif" font-size="14.00">salmon</text>
</g>
<!-- salmon&#45;&gt;run_rnasum_step -->
<g id="edge24" class="edge">
<title>salmon&#45;&gt;run_rnasum_step</title>
<path fill="none" stroke="black" d="M956.49,-887.07C964.47,-876.75 975.63,-864.25 988,-856.01 1228.86,-695.77 1570.67,-616.33 1721.47,-587.34"/>
<polygon fill="black" stroke="black" points="1722.39,-590.73 1731.56,-585.42 1721.08,-583.85 1722.39,-590.73"/>
</g>
<!-- sample_name -->
<g id="node25" class="node">
<title>sample_name</title>
<polygon fill="#94ddf4" stroke="black" points="778.5,-887.51 778.5,-924.51 891.5,-924.51 891.5,-887.51 778.5,-887.51"/>
<text text-anchor="middle" x="835" y="-902.31" font-family="Times,serif" font-size="14.00">sample_name</text>
</g>
<!-- sample_name&#45;&gt;run_rnasum_step -->
<g id="edge25" class="edge">
<title>sample_name&#45;&gt;run_rnasum_step</title>
<path fill="none" stroke="black" d="M854.93,-887.45C867.45,-877.14 884.35,-864.51 901,-856.01 1189.16,-709.05 1568.63,-620.65 1725.43,-588.19"/>
<polygon fill="black" stroke="black" points="1726.34,-591.58 1735.43,-586.14 1724.93,-584.72 1726.34,-591.58"/>
</g>
<!-- sample_source -->
<g id="node26" class="node">
<title>sample_source</title>
<polygon fill="#94ddf4" stroke="black" points="638,-887.51 638,-924.51 760,-924.51 760,-887.51 638,-887.51"/>
<text text-anchor="middle" x="699" y="-902.31" font-family="Times,serif" font-size="14.00">sample_source</text>
</g>
<!-- sample_source&#45;&gt;run_rnasum_step -->
<g id="edge26" class="edge">
<title>sample_source&#45;&gt;run_rnasum_step</title>
<path fill="none" stroke="black" d="M720.53,-887.3C734.04,-876.94 752.21,-864.3 770,-856.01 1104.68,-700.12 1542.05,-615.94 1718.79,-586.38"/>
<polygon fill="black" stroke="black" points="1719.5,-589.81 1728.79,-584.72 1718.35,-582.9 1719.5,-589.81"/>
</g>
<!-- save_tables -->
<g id="node27" class="node">
<title>save_tables</title>
<polygon fill="#94ddf4" stroke="black" points="520.5,-887.51 520.5,-924.51 619.5,-924.51 619.5,-887.51 520.5,-887.51"/>
<text text-anchor="middle" x="570" y="-902.31" font-family="Times,serif" font-size="14.00">save_tables</text>
</g>
<!-- save_tables&#45;&gt;run_rnasum_step -->
<g id="edge27" class="edge">
<title>save_tables&#45;&gt;run_rnasum_step</title>
<path fill="none" stroke="black" d="M587.06,-887.21C598.09,-876.68 613.29,-863.89 629,-856.01 1000.85,-669.51 1502.07,-602.49 1705.98,-581.95"/>
<polygon fill="black" stroke="black" points="1706.45,-585.42 1716.05,-580.95 1705.75,-578.45 1706.45,-585.42"/>
</g>
<!-- scaling -->
<g id="node28" class="node">
<title>scaling</title>
<polygon fill="#94ddf4" stroke="black" points="435.5,-887.51 435.5,-924.51 502.5,-924.51 502.5,-887.51 435.5,-887.51"/>
<text text-anchor="middle" x="469" y="-902.31" font-family="Times,serif" font-size="14.00">scaling</text>
</g>
<!-- scaling&#45;&gt;run_rnasum_step -->
<g id="edge28" class="edge">
<title>scaling&#45;&gt;run_rnasum_step</title>
<path fill="none" stroke="black" d="M480.09,-887.49C487.77,-876.79 498.94,-863.72 512,-856.01 905.78,-623.6 1469.43,-582.22 1697,-575.23"/>
<polygon fill="black" stroke="black" points="1697.36,-578.72 1707.25,-574.93 1697.15,-571.73 1697.36,-578.72"/>
</g>
<!-- subject_id -->
<g id="node29" class="node">
<title>subject_id</title>
<polygon fill="#94ddf4" stroke="black" points="328.5,-887.51 328.5,-924.51 417.5,-924.51 417.5,-887.51 328.5,-887.51"/>
<text text-anchor="middle" x="373" y="-902.31" font-family="Times,serif" font-size="14.00">subject_id</text>
</g>
<!-- subject_id&#45;&gt;run_rnasum_step -->
<g id="edge29" class="edge">
<title>subject_id&#45;&gt;run_rnasum_step</title>
<path fill="none" stroke="black" d="M387.8,-887.47C397.79,-876.76 411.87,-863.7 427,-856.01 864.13,-634.04 1463.77,-586.79 1698.28,-576.73"/>
<polygon fill="black" stroke="black" points="1698.65,-580.22 1708.5,-576.31 1698.36,-573.23 1698.65,-580.22"/>
</g>
<!-- top_genes -->
<g id="node30" class="node">
<title>top_genes</title>
<polygon fill="#94ddf4" stroke="black" points="221.5,-887.51 221.5,-924.51 310.5,-924.51 310.5,-887.51 221.5,-887.51"/>
<text text-anchor="middle" x="266" y="-902.31" font-family="Times,serif" font-size="14.00">top_genes</text>
</g>
<!-- top_genes&#45;&gt;run_rnasum_step -->
<g id="edge30" class="edge">
<title>top_genes&#45;&gt;run_rnasum_step</title>
<path fill="none" stroke="black" d="M280.76,-887.39C290.74,-876.66 304.82,-863.59 320,-856.01 795.82,-618.66 1449.4,-580.47 1697.23,-574.79"/>
<polygon fill="black" stroke="black" points="1697.38,-578.28 1707.3,-574.57 1697.23,-571.29 1697.38,-578.28"/>
</g>
<!-- transform -->
<g id="node31" class="node">
<title>transform</title>
<polygon fill="#94ddf4" stroke="black" points="116,-887.51 116,-924.51 204,-924.51 204,-887.51 116,-887.51"/>
<text text-anchor="middle" x="160" y="-902.31" font-family="Times,serif" font-size="14.00">transform</text>
</g>
<!-- transform&#45;&gt;run_rnasum_step -->
<g id="edge31" class="edge">
<title>transform&#45;&gt;run_rnasum_step</title>
<path fill="none" stroke="black" d="M174.39,-887.33C184.15,-876.56 197.96,-863.49 213,-856.01 481.86,-722.43 1415.65,-614.46 1709.06,-583.18"/>
<polygon fill="black" stroke="black" points="1709.65,-586.64 1719.22,-582.1 1708.91,-579.68 1709.65,-586.64"/>
</g>
<!-- umccrise -->
<g id="node32" class="node">
<title>umccrise</title>
<polygon fill="#94ddf4" stroke="black" points="16.5,-887.51 16.5,-924.51 97.5,-924.51 97.5,-887.51 16.5,-887.51"/>
<text text-anchor="middle" x="57" y="-902.31" font-family="Times,serif" font-size="14.00">umccrise</text>
</g>
<!-- umccrise&#45;&gt;run_rnasum_step -->
<g id="edge32" class="edge">
<title>umccrise&#45;&gt;run_rnasum_step</title>
<path fill="none" stroke="black" d="M70.35,-887.26C79.46,-876.47 92.48,-863.39 107,-856.01 392.95,-710.66 1396.22,-610.16 1706.11,-582.02"/>
<polygon fill="black" stroke="black" points="1706.76,-585.48 1716.4,-581.09 1706.13,-578.51 1706.76,-585.48"/>
</g>
<!-- rnasum_html -->
<g id="node33" class="node">
<title>rnasum_html</title>
<polygon fill="#94ddf4" stroke="black" points="1829,-235.51 1829,-272.51 1939,-272.51 1939,-235.51 1829,-235.51"/>
<text text-anchor="middle" x="1884" y="-250.31" font-family="Times,serif" font-size="14.00">rnasum_html</text>
</g>
<!-- rnasum_output_directory -->
<g id="node34" class="node">
<title>rnasum_output_directory</title>
<polygon fill="#94ddf4" stroke="black" points="1613.5,-235.51 1613.5,-272.51 1810.5,-272.51 1810.5,-235.51 1613.5,-235.51"/>
<text text-anchor="middle" x="1712" y="-250.31" font-family="Times,serif" font-size="14.00">rnasum_output_directory</text>
</g>
<!-- run_rnasum_step&#45;&gt;rnasum_html -->
<g id="edge33" class="edge">
<title>run_rnasum_step&#45;&gt;rnasum_html</title>
<path fill="none" stroke="black" d="M1802.62,-554.97C1816.74,-502.95 1859.34,-345.92 1876.61,-282.26"/>
<polygon fill="black" stroke="black" points="1880.01,-283.1 1879.25,-272.53 1873.25,-281.27 1880.01,-283.1"/>
</g>
<!-- run_rnasum_step&#45;&gt;rnasum_output_directory -->
<g id="edge34" class="edge">
<title>run_rnasum_step&#45;&gt;rnasum_output_directory</title>
<path fill="none" stroke="black" d="M1793.38,-554.97C1779.26,-502.95 1736.66,-345.92 1719.39,-282.26"/>
<polygon fill="black" stroke="black" points="1722.75,-281.27 1716.75,-272.53 1715.99,-283.1 1722.75,-281.27"/>
</g>
<!-- \n -->
<g id="node36" class="node">
<title>\n</title>
<ellipse fill="none" stroke="black" cx="3638" cy="-906.01" rx="27" ry="18"/>
</g>
</g>
</svg>
