<?xml version="1.0" encoding="UTF-8" standalone="no"?>
<!DOCTYPE svg PUBLIC "-//W3C//DTD SVG 1.1//EN"
 "http://www.w3.org/Graphics/SVG/1.1/DTD/svg11.dtd">
<!-- Generated by graphviz version 2.43.0 (0)
 -->
<!-- Title: G Pages: 1 -->
<svg width="8303pt" height="2256pt"
 viewBox="0.00 0.00 8303.00 2255.95" xmlns="http://www.w3.org/2000/svg" xmlns:xlink="http://www.w3.org/1999/xlink">
<g id="graph0" class="graph" transform="scale(1 1) rotate(0) translate(4 2251.95)">
<title>G</title>
<polygon fill="#eeeeee" stroke="transparent" points="-4,4 -4,-2251.95 8299,-2251.95 8299,4 -4,4"/>
<g id="clust1" class="cluster">
<title>cluster_inputs</title>
<polygon fill="#eeeeee" stroke="black" stroke-dasharray="5,2" points="712,-1647.08 712,-2191.39 8231,-2191.39 8231,-1647.08 712,-1647.08"/>
<text text-anchor="middle" x="8164.5" y="-1654.88" font-family="Times,serif" font-size="14.00">Workflow Inputs</text>
</g>
<g id="clust2" class="cluster">
<title>cluster_outputs</title>
<polygon fill="#eeeeee" stroke="black" stroke-dasharray="5,2" points="3762,-56.55 3762,-600.87 5232,-600.87 5232,-56.55 3762,-56.55"/>
<text text-anchor="middle" x="5159.5" y="-64.35" font-family="Times,serif" font-size="14.00">Workflow Outputs</text>
</g>
<!-- fastq_list_rows -->
<g id="node1" class="node">
<title>fastq_list_rows</title>
<polygon fill="#94ddf4" stroke="black" points="8099.5,-1982.05 8099.5,-2019.05 8222.5,-2019.05 8222.5,-1982.05 8099.5,-1982.05"/>
<text text-anchor="middle" x="8161" y="-1996.85" font-family="Times,serif" font-size="14.00">fastq_list_rows</text>
</g>
<!-- create_fastq_list_csv_step -->
<g id="node52" class="node">
<title>create_fastq_list_csv_step</title>
<polygon fill="lightgoldenrodyellow" stroke="black" points="360,-1982.05 360,-2019.05 702,-2019.05 702,-1982.05 360,-1982.05"/>
<text text-anchor="middle" x="531" y="-1996.85" font-family="Times,serif" font-size="14.00">custom&#45;create&#45;csv&#45;from&#45;fastq&#45;list&#45;row v(1.0.0)</text>
</g>
<!-- fastq_list_rows&#45;&gt;create_fastq_list_csv_step -->
<g id="edge14" class="edge">
<title>fastq_list_rows&#45;&gt;create_fastq_list_csv_step</title>
<path fill="none" stroke="black" d="M8136.15,-2019.17C8121.28,-2029.13 8101.53,-2040.38 8082,-2045.55 7983.12,-2071.74 818.57,-2057.66 717,-2045.55 678.42,-2040.95 636.27,-2031.16 601.86,-2021.89"/>
<polygon fill="black" stroke="black" points="602.48,-2018.43 591.91,-2019.16 600.63,-2025.18 602.48,-2018.43"/>
</g>
<!-- tumor_fastq_list_rows -->
<g id="node2" class="node">
<title>tumor_fastq_list_rows</title>
<polygon fill="#94ddf4" stroke="black" points="7908.5,-1982.05 7908.5,-2019.05 8081.5,-2019.05 8081.5,-1982.05 7908.5,-1982.05"/>
<text text-anchor="middle" x="7995" y="-1996.85" font-family="Times,serif" font-size="14.00">tumor_fastq_list_rows</text>
</g>
<!-- create_tumor_fastq_list_csv_step -->
<g id="node51" class="node">
<title>create_tumor_fastq_list_csv_step</title>
<polygon fill="lightgoldenrodyellow" stroke="black" points="0,-1982.05 0,-2019.05 342,-2019.05 342,-1982.05 0,-1982.05"/>
<text text-anchor="middle" x="171" y="-1996.85" font-family="Times,serif" font-size="14.00">custom&#45;create&#45;csv&#45;from&#45;fastq&#45;list&#45;row v(1.0.0)</text>
</g>
<!-- tumor_fastq_list_rows&#45;&gt;create_tumor_fastq_list_csv_step -->
<g id="edge15" class="edge">
<title>tumor_fastq_list_rows&#45;&gt;create_tumor_fastq_list_csv_step</title>
<path fill="none" stroke="black" d="M7961.15,-2019.22C7941.12,-2029.2 7914.87,-2040.45 7890,-2045.55 7787.55,-2066.58 463.87,-2057.75 360,-2045.55 320.65,-2040.93 277.62,-2031.08 242.58,-2021.77"/>
<polygon fill="black" stroke="black" points="243.48,-2018.39 232.91,-2019.16 241.66,-2025.14 243.48,-2018.39"/>
</g>
<!-- output_file_prefix -->
<g id="node3" class="node">
<title>output_file_prefix</title>
<polygon fill="#94ddf4" stroke="black" points="7750,-1982.05 7750,-2019.05 7890,-2019.05 7890,-1982.05 7750,-1982.05"/>
<text text-anchor="middle" x="7820" y="-1996.85" font-family="Times,serif" font-size="14.00">output_file_prefix</text>
</g>
<!-- run_dragen_somatic_step -->
<g id="node48" class="node">
<title>run_dragen_somatic_step</title>
<polygon fill="lightgoldenrodyellow" stroke="black" points="4233,-1438.05 4233,-1475.05 4419,-1475.05 4419,-1438.05 4233,-1438.05"/>
<text text-anchor="middle" x="4326" y="-1452.85" font-family="Times,serif" font-size="14.00">dragen&#45;somatic v(3.7.5)</text>
</g>
<!-- output_file_prefix&#45;&gt;run_dragen_somatic_step -->
<g id="edge16" class="edge">
<title>output_file_prefix&#45;&gt;run_dragen_somatic_step</title>
<path fill="none" stroke="black" d="M7797.12,-1981.82C7782.01,-1971.03 7761.32,-1957.95 7741,-1950.55 6495.94,-1497.09 4852.8,-1459.19 4429.12,-1457.27"/>
<polygon fill="black" stroke="black" points="4429.05,-1453.77 4419.04,-1457.23 4429.02,-1460.77 4429.05,-1453.77"/>
</g>
<!-- dragen_qc_step -->
<g id="node49" class="node">
<title>dragen_qc_step</title>
<polygon fill="lightgoldenrodyellow" stroke="black" points="7750.5,-915.05 7750.5,-952.05 7889.5,-952.05 7889.5,-915.05 7750.5,-915.05"/>
<text text-anchor="middle" x="7820" y="-929.85" font-family="Times,serif" font-size="14.00">multiqc v(1.10.1)</text>
</g>
<!-- output_file_prefix&#45;&gt;dragen_qc_step -->
<g id="edge17" class="edge">
<title>output_file_prefix&#45;&gt;dragen_qc_step</title>
<path fill="none" stroke="black" d="M7816.2,-1981.96C7803.58,-1857.96 7803.27,-1116.11 7815.29,-962.41"/>
<polygon fill="black" stroke="black" points="7818.78,-962.65 7816.18,-952.38 7811.81,-962.03 7818.78,-962.65"/>
</g>
<!-- output_file_prefix&#45;&gt;dragen_qc_step -->
<g id="edge18" class="edge">
<title>output_file_prefix&#45;&gt;dragen_qc_step</title>
<path fill="none" stroke="black" d="M7820,-1981.96C7820,-1857.96 7820,-1116.11 7820,-962.41"/>
<polygon fill="black" stroke="black" points="7823.5,-962.38 7820,-952.38 7816.5,-962.38 7823.5,-962.38"/>
</g>
<!-- output_file_prefix&#45;&gt;dragen_qc_step -->
<g id="edge19" class="edge">
<title>output_file_prefix&#45;&gt;dragen_qc_step</title>
<path fill="none" stroke="black" d="M7823.8,-1981.96C7836.42,-1857.96 7836.73,-1116.11 7824.71,-962.41"/>
<polygon fill="black" stroke="black" points="7828.19,-962.03 7823.82,-952.38 7821.22,-962.65 7828.19,-962.03"/>
</g>
<!-- dbsnp_annotation -->
<g id="node4" class="node">
<title>dbsnp_annotation</title>
<polygon fill="#94ddf4" stroke="black" points="7588.5,-1982.05 7588.5,-2019.05 7731.5,-2019.05 7731.5,-1982.05 7588.5,-1982.05"/>
<text text-anchor="middle" x="7660" y="-1996.85" font-family="Times,serif" font-size="14.00">dbsnp_annotation</text>
</g>
<!-- dbsnp_annotation&#45;&gt;run_dragen_somatic_step -->
<g id="edge20" class="edge">
<title>dbsnp_annotation&#45;&gt;run_dragen_somatic_step</title>
<path fill="none" stroke="black" d="M7636.78,-1981.87C7621.46,-1971.11 7600.5,-1958.03 7580,-1950.55 6397.65,-1519.01 4840.75,-1465.11 4429.31,-1458.46"/>
<polygon fill="black" stroke="black" points="4429.28,-1454.96 4419.22,-1458.31 4429.17,-1461.96 4429.28,-1454.96"/>
</g>
<!-- enable_cnv -->
<g id="node5" class="node">
<title>enable_cnv</title>
<polygon fill="#94ddf4" stroke="black" points="7475.5,-1982.05 7475.5,-2019.05 7570.5,-2019.05 7570.5,-1982.05 7475.5,-1982.05"/>
<text text-anchor="middle" x="7523" y="-1996.85" font-family="Times,serif" font-size="14.00">enable_cnv</text>
</g>
<!-- enable_cnv&#45;&gt;run_dragen_somatic_step -->
<g id="edge21" class="edge">
<title>enable_cnv&#45;&gt;run_dragen_somatic_step</title>
<path fill="none" stroke="black" d="M7507.65,-1981.77C7497.29,-1970.96 7482.68,-1957.88 7467,-1950.55 6904.85,-1687.78 4907.35,-1506.3 4429.33,-1466.01"/>
<polygon fill="black" stroke="black" points="4429.59,-1462.52 4419.33,-1465.17 4429.01,-1469.5 4429.59,-1462.52"/>
</g>
<!-- enable_duplicate_marking -->
<g id="node6" class="node">
<title>enable_duplicate_marking</title>
<polygon fill="#94ddf4" stroke="black" points="7254.5,-1982.05 7254.5,-2019.05 7457.5,-2019.05 7457.5,-1982.05 7254.5,-1982.05"/>
<text text-anchor="middle" x="7356" y="-1996.85" font-family="Times,serif" font-size="14.00">enable_duplicate_marking</text>
</g>
<!-- enable_duplicate_marking&#45;&gt;run_dragen_somatic_step -->
<g id="edge22" class="edge">
<title>enable_duplicate_marking&#45;&gt;run_dragen_somatic_step</title>
<path fill="none" stroke="black" d="M7322.66,-1982.05C7301.27,-1971.5 7272.62,-1958.59 7246,-1950.55 6173.28,-1626.74 4810.62,-1496.95 4429.25,-1465.53"/>
<polygon fill="black" stroke="black" points="4429.32,-1462.02 4419.07,-1464.69 4428.75,-1469 4429.32,-1462.02"/>
</g>
<!-- enable_map_align_output -->
<g id="node7" class="node">
<title>enable_map_align_output</title>
<polygon fill="#94ddf4" stroke="black" points="7039.5,-1982.05 7039.5,-2019.05 7236.5,-2019.05 7236.5,-1982.05 7039.5,-1982.05"/>
<text text-anchor="middle" x="7138" y="-1996.85" font-family="Times,serif" font-size="14.00">enable_map_align_output</text>
</g>
<!-- enable_map_align_output&#45;&gt;run_dragen_somatic_step -->
<g id="edge23" class="edge">
<title>enable_map_align_output&#45;&gt;run_dragen_somatic_step</title>
<path fill="none" stroke="black" d="M7104.79,-1981.91C7083.84,-1971.44 7055.94,-1958.67 7030,-1950.55 6044.13,-1642.2 4792.1,-1502.82 4428.97,-1467.13"/>
<polygon fill="black" stroke="black" points="4429.3,-1463.64 4419.01,-1466.15 4428.62,-1470.61 4429.3,-1463.64"/>
</g>
<!-- enable_sv -->
<g id="node8" class="node">
<title>enable_sv</title>
<polygon fill="#94ddf4" stroke="black" points="6935,-1982.05 6935,-2019.05 7021,-2019.05 7021,-1982.05 6935,-1982.05"/>
<text text-anchor="middle" x="6978" y="-1996.85" font-family="Times,serif" font-size="14.00">enable_sv</text>
</g>
<!-- enable_sv&#45;&gt;run_dragen_somatic_step -->
<g id="edge24" class="edge">
<title>enable_sv&#45;&gt;run_dragen_somatic_step</title>
<path fill="none" stroke="black" d="M6963.92,-1981.92C6954.36,-1971.17 6940.81,-1958.1 6926,-1950.55 6039.96,-1498.75 4793.21,-1458.52 4429.4,-1456.87"/>
<polygon fill="black" stroke="black" points="4429.17,-1453.37 4419.16,-1456.83 4429.14,-1460.37 4429.17,-1453.37"/>
</g>
<!-- lic_instance_id_location -->
<g id="node9" class="node">
<title>lic_instance_id_location</title>
<polygon fill="#94ddf4" stroke="black" points="6733.5,-1982.05 6733.5,-2019.05 6916.5,-2019.05 6916.5,-1982.05 6733.5,-1982.05"/>
<text text-anchor="middle" x="6825" y="-1996.85" font-family="Times,serif" font-size="14.00">lic_instance_id_location</text>
</g>
<!-- lic_instance_id_location&#45;&gt;run_dragen_somatic_step -->
<g id="edge25" class="edge">
<title>lic_instance_id_location&#45;&gt;run_dragen_somatic_step</title>
<path fill="none" stroke="black" d="M6794.01,-1982.02C6774.45,-1971.59 6748.36,-1958.82 6724,-1950.55 5863.07,-1658.33 4766.62,-1510.25 4429.34,-1469.45"/>
<polygon fill="black" stroke="black" points="4429.45,-1465.94 4419.1,-1468.22 4428.61,-1472.89 4429.45,-1465.94"/>
</g>
<!-- output_directory -->
<g id="node10" class="node">
<title>output_directory</title>
<polygon fill="#94ddf4" stroke="black" points="6579,-1982.05 6579,-2019.05 6715,-2019.05 6715,-1982.05 6579,-1982.05"/>
<text text-anchor="middle" x="6647" y="-1996.85" font-family="Times,serif" font-size="14.00">output_directory</text>
</g>
<!-- output_directory&#45;&gt;run_dragen_somatic_step -->
<g id="edge26" class="edge">
<title>output_directory&#45;&gt;run_dragen_somatic_step</title>
<path fill="none" stroke="black" d="M6623.91,-1981.82C6609.2,-1971.31 6589.33,-1958.53 6570,-1950.55 5785.82,-1626.84 4755.71,-1500.72 4429.61,-1467.31"/>
<polygon fill="black" stroke="black" points="4429.54,-1463.79 4419.24,-1466.26 4428.84,-1470.75 4429.54,-1463.79"/>
</g>
<!-- reference_tar -->
<g id="node11" class="node">
<title>reference_tar</title>
<polygon fill="#94ddf4" stroke="black" points="6447.5,-1982.05 6447.5,-2019.05 6560.5,-2019.05 6560.5,-1982.05 6447.5,-1982.05"/>
<text text-anchor="middle" x="6504" y="-1996.85" font-family="Times,serif" font-size="14.00">reference_tar</text>
</g>
<!-- reference_tar&#45;&gt;run_dragen_somatic_step -->
<g id="edge27" class="edge">
<title>reference_tar&#45;&gt;run_dragen_somatic_step</title>
<path fill="none" stroke="black" d="M6484.86,-1982.01C6472.36,-1971.45 6455.22,-1958.53 6438,-1950.55 5715,-1615.48 4743.96,-1497.48 4429.14,-1466.65"/>
<polygon fill="black" stroke="black" points="4429.41,-1463.16 4419.12,-1465.67 4428.74,-1470.13 4429.41,-1463.16"/>
</g>
<!-- sample_sex -->
<g id="node12" class="node">
<title>sample_sex</title>
<polygon fill="#94ddf4" stroke="black" points="6331,-1982.05 6331,-2019.05 6429,-2019.05 6429,-1982.05 6331,-1982.05"/>
<text text-anchor="middle" x="6380" y="-1996.85" font-family="Times,serif" font-size="14.00">sample_sex</text>
</g>
<!-- sample_sex&#45;&gt;run_dragen_somatic_step -->
<g id="edge28" class="edge">
<title>sample_sex&#45;&gt;run_dragen_somatic_step</title>
<path fill="none" stroke="black" d="M6363.61,-1981.76C6352.99,-1971.23 6338.31,-1958.45 6323,-1950.55 5654.72,-1605.99 4734.88,-1494.72 4429.31,-1466.07"/>
<polygon fill="black" stroke="black" points="4429.42,-1462.57 4419.14,-1465.13 4428.77,-1469.54 4429.42,-1462.57"/>
</g>
<!-- vc_af_call_threshold -->
<g id="node13" class="node">
<title>vc_af_call_threshold</title>
<polygon fill="#94ddf4" stroke="black" points="6154.5,-1982.05 6154.5,-2019.05 6313.5,-2019.05 6313.5,-1982.05 6154.5,-1982.05"/>
<text text-anchor="middle" x="6234" y="-1996.85" font-family="Times,serif" font-size="14.00">vc_af_call_threshold</text>
</g>
<!-- vc_af_call_threshold&#45;&gt;run_dragen_somatic_step -->
<g id="edge29" class="edge">
<title>vc_af_call_threshold&#45;&gt;run_dragen_somatic_step</title>
<path fill="none" stroke="black" d="M6206.33,-1981.85C6189.42,-1971.62 6167.06,-1959.12 6146,-1950.55 5516.6,-1694.56 4711.41,-1529.59 4429.22,-1476.33"/>
<polygon fill="black" stroke="black" points="4429.48,-1472.82 4419,-1474.41 4428.18,-1479.69 4429.48,-1472.82"/>
</g>
<!-- vc_af_filter_threshold -->
<g id="node14" class="node">
<title>vc_af_filter_threshold</title>
<polygon fill="#94ddf4" stroke="black" points="5967.5,-1982.05 5967.5,-2019.05 6136.5,-2019.05 6136.5,-1982.05 5967.5,-1982.05"/>
<text text-anchor="middle" x="6052" y="-1996.85" font-family="Times,serif" font-size="14.00">vc_af_filter_threshold</text>
</g>
<!-- vc_af_filter_threshold&#45;&gt;run_dragen_somatic_step -->
<g id="edge30" class="edge">
<title>vc_af_filter_threshold&#45;&gt;run_dragen_somatic_step</title>
<path fill="none" stroke="black" d="M6022.13,-1981.93C6004.23,-1971.85 5980.78,-1959.48 5959,-1950.55 5386.03,-1715.66 4659.58,-1535.58 4412.65,-1477.48"/>
<polygon fill="black" stroke="black" points="4413.19,-1474.01 4402.66,-1475.13 4411.59,-1480.82 4413.19,-1474.01"/>
</g>
<!-- vc_callability_normal_thresh -->
<g id="node15" class="node">
<title>vc_callability_normal_thresh</title>
<polygon fill="#94ddf4" stroke="black" points="5730.5,-1982.05 5730.5,-2019.05 5949.5,-2019.05 5949.5,-1982.05 5730.5,-1982.05"/>
<text text-anchor="middle" x="5840" y="-1996.85" font-family="Times,serif" font-size="14.00">vc_callability_normal_thresh</text>
</g>
<!-- vc_callability_normal_thresh&#45;&gt;run_dragen_somatic_step -->
<g id="edge31" class="edge">
<title>vc_callability_normal_thresh&#45;&gt;run_dragen_somatic_step</title>
<path fill="none" stroke="black" d="M5798.9,-1982.03C5776.07,-1972.44 5747.09,-1960.53 5721,-1950.55 5210.47,-1755.38 4584.87,-1544.06 4388.2,-1478.27"/>
<polygon fill="black" stroke="black" points="4389.2,-1474.92 4378.61,-1475.06 4386.98,-1481.56 4389.2,-1474.92"/>
</g>
<!-- vc_callability_tumor_thresh -->
<g id="node16" class="node">
<title>vc_callability_tumor_thresh</title>
<polygon fill="#94ddf4" stroke="black" points="5500,-1982.05 5500,-2019.05 5712,-2019.05 5712,-1982.05 5500,-1982.05"/>
<text text-anchor="middle" x="5606" y="-1996.85" font-family="Times,serif" font-size="14.00">vc_callability_tumor_thresh</text>
</g>
<!-- vc_callability_tumor_thresh&#45;&gt;run_dragen_somatic_step -->
<g id="edge32" class="edge">
<title>vc_callability_tumor_thresh&#45;&gt;run_dragen_somatic_step</title>
<path fill="none" stroke="black" d="M5564.76,-1981.95C5542.85,-1972.61 5515.47,-1960.94 5491,-1950.55 5060.16,-1767.6 4539.22,-1547.57 4376.82,-1479.01"/>
<polygon fill="black" stroke="black" points="4378.12,-1475.76 4367.55,-1475.09 4375.4,-1482.2 4378.12,-1475.76"/>
</g>
<!-- vc_decoy_contigs -->
<g id="node17" class="node">
<title>vc_decoy_contigs</title>
<polygon fill="#94ddf4" stroke="black" points="5342.5,-1982.05 5342.5,-2019.05 5481.5,-2019.05 5481.5,-1982.05 5342.5,-1982.05"/>
<text text-anchor="middle" x="5412" y="-1996.85" font-family="Times,serif" font-size="14.00">vc_decoy_contigs</text>
</g>
<!-- vc_decoy_contigs&#45;&gt;run_dragen_somatic_step -->
<g id="edge33" class="edge">
<title>vc_decoy_contigs&#45;&gt;run_dragen_somatic_step</title>
<path fill="none" stroke="black" d="M5384.98,-1981.86C5369.9,-1972.23 5350.65,-1960.32 5333,-1950.55 4973.4,-1751.65 4522.06,-1545.53 4374.85,-1479.36"/>
<polygon fill="black" stroke="black" points="4376.15,-1476.11 4365.6,-1475.21 4373.29,-1482.5 4376.15,-1476.11"/>
</g>
<!-- vc_enable_af_filter -->
<g id="node18" class="node">
<title>vc_enable_af_filter</title>
<polygon fill="#94ddf4" stroke="black" points="5176,-1982.05 5176,-2019.05 5324,-2019.05 5324,-1982.05 5176,-1982.05"/>
<text text-anchor="middle" x="5250" y="-1996.85" font-family="Times,serif" font-size="14.00">vc_enable_af_filter</text>
</g>
<!-- vc_enable_af_filter&#45;&gt;run_dragen_somatic_step -->
<g id="edge34" class="edge">
<title>vc_enable_af_filter&#45;&gt;run_dragen_somatic_step</title>
<path fill="none" stroke="black" d="M5220.05,-1981.84C5204.27,-1972.52 5184.6,-1960.9 5167,-1950.55 4858.13,-1768.85 4484.88,-1550.47 4365.04,-1480.38"/>
<polygon fill="black" stroke="black" points="4366.59,-1477.23 4356.19,-1475.2 4363.06,-1483.27 4366.59,-1477.23"/>
</g>
<!-- vc_enable_baf -->
<g id="node19" class="node">
<title>vc_enable_baf</title>
<polygon fill="#94ddf4" stroke="black" points="5042,-1982.05 5042,-2019.05 5158,-2019.05 5158,-1982.05 5042,-1982.05"/>
<text text-anchor="middle" x="5100" y="-1996.85" font-family="Times,serif" font-size="14.00">vc_enable_baf</text>
</g>
<!-- vc_enable_baf&#45;&gt;run_dragen_somatic_step -->
<g id="edge35" class="edge">
<title>vc_enable_baf&#45;&gt;run_dragen_somatic_step</title>
<path fill="none" stroke="black" d="M5076.22,-1981.96C5063.45,-1972.57 5047.42,-1960.85 5033,-1950.55 4776.24,-1767.18 4462.81,-1551.42 4360.25,-1481.03"/>
<polygon fill="black" stroke="black" points="4362.05,-1478.02 4351.83,-1475.25 4358.09,-1483.8 4362.05,-1478.02"/>
</g>
<!-- vc_enable_decoy_contigs -->
<g id="node20" class="node">
<title>vc_enable_decoy_contigs</title>
<polygon fill="#94ddf4" stroke="black" points="4830.5,-1982.05 4830.5,-2019.05 5023.5,-2019.05 5023.5,-1982.05 4830.5,-1982.05"/>
<text text-anchor="middle" x="4927" y="-1996.85" font-family="Times,serif" font-size="14.00">vc_enable_decoy_contigs</text>
</g>
<!-- vc_enable_decoy_contigs&#45;&gt;run_dragen_somatic_step -->
<g id="edge36" class="edge">
<title>vc_enable_decoy_contigs&#45;&gt;run_dragen_somatic_step</title>
<path fill="none" stroke="black" d="M4907.35,-1981.83C4818.62,-1901.81 4455.34,-1574.19 4352.96,-1481.87"/>
<polygon fill="black" stroke="black" points="4355.27,-1479.24 4345.5,-1475.14 4350.59,-1484.44 4355.27,-1479.24"/>
</g>
<!-- vc_enable_gatk_acceleration -->
<g id="node21" class="node">
<title>vc_enable_gatk_acceleration</title>
<polygon fill="#94ddf4" stroke="black" points="4594,-1982.05 4594,-2019.05 4812,-2019.05 4812,-1982.05 4594,-1982.05"/>
<text text-anchor="middle" x="4703" y="-1996.85" font-family="Times,serif" font-size="14.00">vc_enable_gatk_acceleration</text>
</g>
<!-- vc_enable_gatk_acceleration&#45;&gt;run_dragen_somatic_step -->
<g id="edge37" class="edge">
<title>vc_enable_gatk_acceleration&#45;&gt;run_dragen_somatic_step</title>
<path fill="none" stroke="black" d="M4690.67,-1981.83C4635.35,-1902.29 4409.87,-1578.12 4344.09,-1483.56"/>
<polygon fill="black" stroke="black" points="4346.82,-1481.35 4338.24,-1475.14 4341.07,-1485.35 4346.82,-1481.35"/>
</g>
<!-- vc_enable_liquid_tumor_mode -->
<g id="node22" class="node">
<title>vc_enable_liquid_tumor_mode</title>
<polygon fill="#94ddf4" stroke="black" points="4346,-1982.05 4346,-2019.05 4576,-2019.05 4576,-1982.05 4346,-1982.05"/>
<text text-anchor="middle" x="4461" y="-1996.85" font-family="Times,serif" font-size="14.00">vc_enable_liquid_tumor_mode</text>
</g>
<!-- vc_enable_liquid_tumor_mode&#45;&gt;run_dragen_somatic_step -->
<g id="edge38" class="edge">
<title>vc_enable_liquid_tumor_mode&#45;&gt;run_dragen_somatic_step</title>
<path fill="none" stroke="black" d="M4456.59,-1981.83C4436.87,-1902.69 4356.84,-1581.38 4332.84,-1485.01"/>
<polygon fill="black" stroke="black" points="4336.19,-1484 4330.38,-1475.14 4329.4,-1485.69 4336.19,-1484"/>
</g>
<!-- vc_enable_non_homref_normal_filter -->
<g id="node23" class="node">
<title>vc_enable_non_homref_normal_filter</title>
<polygon fill="#94ddf4" stroke="black" points="4052.5,-1982.05 4052.5,-2019.05 4327.5,-2019.05 4327.5,-1982.05 4052.5,-1982.05"/>
<text text-anchor="middle" x="4190" y="-1996.85" font-family="Times,serif" font-size="14.00">vc_enable_non_homref_normal_filter</text>
</g>
<!-- vc_enable_non_homref_normal_filter&#45;&gt;run_dragen_somatic_step -->
<g id="edge39" class="edge">
<title>vc_enable_non_homref_normal_filter&#45;&gt;run_dragen_somatic_step</title>
<path fill="none" stroke="black" d="M4194.45,-1981.83C4214.3,-1902.69 4294.93,-1581.38 4319.11,-1485.01"/>
<polygon fill="black" stroke="black" points="4322.55,-1485.69 4321.59,-1475.14 4315.76,-1483.99 4322.55,-1485.69"/>
</g>
<!-- vc_enable_phasing -->
<g id="node24" class="node">
<title>vc_enable_phasing</title>
<polygon fill="#94ddf4" stroke="black" points="3885.5,-1982.05 3885.5,-2019.05 4034.5,-2019.05 4034.5,-1982.05 3885.5,-1982.05"/>
<text text-anchor="middle" x="3960" y="-1996.85" font-family="Times,serif" font-size="14.00">vc_enable_phasing</text>
</g>
<!-- vc_enable_phasing&#45;&gt;run_dragen_somatic_step -->
<g id="edge40" class="edge">
<title>vc_enable_phasing&#45;&gt;run_dragen_somatic_step</title>
<path fill="none" stroke="black" d="M3971.97,-1981.83C4025.68,-1902.29 4244.58,-1578.12 4308.44,-1483.56"/>
<polygon fill="black" stroke="black" points="4311.43,-1485.39 4314.12,-1475.14 4305.62,-1481.47 4311.43,-1485.39"/>
</g>
<!-- vc_enable_roh -->
<g id="node25" class="node">
<title>vc_enable_roh</title>
<polygon fill="#94ddf4" stroke="black" points="3750.5,-1982.05 3750.5,-2019.05 3867.5,-2019.05 3867.5,-1982.05 3750.5,-1982.05"/>
<text text-anchor="middle" x="3809" y="-1996.85" font-family="Times,serif" font-size="14.00">vc_enable_roh</text>
</g>
<!-- vc_enable_roh&#45;&gt;run_dragen_somatic_step -->
<g id="edge41" class="edge">
<title>vc_enable_roh&#45;&gt;run_dragen_somatic_step</title>
<path fill="none" stroke="black" d="M3825.91,-1981.83C3902.08,-1901.97 4213.49,-1575.5 4302.27,-1482.43"/>
<polygon fill="black" stroke="black" points="4304.85,-1484.79 4309.22,-1475.14 4299.79,-1479.96 4304.85,-1484.79"/>
</g>
<!-- vc_enable_triallelic_filter -->
<g id="node26" class="node">
<title>vc_enable_triallelic_filter</title>
<polygon fill="#94ddf4" stroke="black" points="3538,-1982.05 3538,-2019.05 3732,-2019.05 3732,-1982.05 3538,-1982.05"/>
<text text-anchor="middle" x="3635" y="-1996.85" font-family="Times,serif" font-size="14.00">vc_enable_triallelic_filter</text>
</g>
<!-- vc_enable_triallelic_filter&#45;&gt;run_dragen_somatic_step -->
<g id="edge42" class="edge">
<title>vc_enable_triallelic_filter&#45;&gt;run_dragen_somatic_step</title>
<path fill="none" stroke="black" d="M3657.6,-1981.83C3759.81,-1901.65 4178.97,-1572.88 4295.7,-1481.32"/>
<polygon fill="black" stroke="black" points="4297.87,-1484.07 4303.57,-1475.14 4293.55,-1478.56 4297.87,-1484.07"/>
</g>
<!-- vc_enable_vcf_output -->
<g id="node27" class="node">
<title>vc_enable_vcf_output</title>
<polygon fill="#94ddf4" stroke="black" points="3352,-1982.05 3352,-2019.05 3520,-2019.05 3520,-1982.05 3352,-1982.05"/>
<text text-anchor="middle" x="3436" y="-1996.85" font-family="Times,serif" font-size="14.00">vc_enable_vcf_output</text>
</g>
<!-- vc_enable_vcf_output&#45;&gt;run_dragen_somatic_step -->
<g id="edge43" class="edge">
<title>vc_enable_vcf_output&#45;&gt;run_dragen_somatic_step</title>
<path fill="none" stroke="black" d="M3464.85,-1981.98C3596.45,-1901.84 4139.68,-1571.02 4288.28,-1480.52"/>
<polygon fill="black" stroke="black" points="4290.37,-1483.35 4297.09,-1475.16 4286.72,-1477.37 4290.37,-1483.35"/>
</g>
<!-- vc_hotspot_log10_prior_boost -->
<g id="node28" class="node">
<title>vc_hotspot_log10_prior_boost</title>
<polygon fill="#94ddf4" stroke="black" points="3106.5,-1982.05 3106.5,-2019.05 3333.5,-2019.05 3333.5,-1982.05 3106.5,-1982.05"/>
<text text-anchor="middle" x="3220" y="-1996.85" font-family="Times,serif" font-size="14.00">vc_hotspot_log10_prior_boost</text>
</g>
<!-- vc_hotspot_log10_prior_boost&#45;&gt;run_dragen_somatic_step -->
<g id="edge44" class="edge">
<title>vc_hotspot_log10_prior_boost&#45;&gt;run_dragen_somatic_step</title>
<path fill="none" stroke="black" d="M3255.86,-1981.98C3419.96,-1901.56 4099.18,-1568.71 4281.04,-1479.59"/>
<polygon fill="black" stroke="black" points="4282.63,-1482.7 4290.07,-1475.16 4279.55,-1476.42 4282.63,-1482.7"/>
</g>
<!-- vc_max_reads_per_active_region -->
<g id="node29" class="node">
<title>vc_max_reads_per_active_region</title>
<polygon fill="#94ddf4" stroke="black" points="2840,-1982.05 2840,-2019.05 3088,-2019.05 3088,-1982.05 2840,-1982.05"/>
<text text-anchor="middle" x="2964" y="-1996.85" font-family="Times,serif" font-size="14.00">vc_max_reads_per_active_region</text>
</g>
<!-- vc_max_reads_per_active_region&#45;&gt;run_dragen_somatic_step -->
<g id="edge45" class="edge">
<title>vc_max_reads_per_active_region&#45;&gt;run_dragen_somatic_step</title>
<path fill="none" stroke="black" d="M3008.16,-1981.98C3210.75,-1901.36 4050.84,-1567.05 4272.29,-1478.93"/>
<polygon fill="black" stroke="black" points="4273.75,-1482.11 4281.75,-1475.16 4271.17,-1475.61 4273.75,-1482.11"/>
</g>
<!-- vc_max_reads_per_raw_region -->
<g id="node30" class="node">
<title>vc_max_reads_per_raw_region</title>
<polygon fill="#94ddf4" stroke="black" points="2588.5,-1982.05 2588.5,-2019.05 2821.5,-2019.05 2821.5,-1982.05 2588.5,-1982.05"/>
<text text-anchor="middle" x="2705" y="-1996.85" font-family="Times,serif" font-size="14.00">vc_max_reads_per_raw_region</text>
</g>
<!-- vc_max_reads_per_raw_region&#45;&gt;run_dragen_somatic_step -->
<g id="edge46" class="edge">
<title>vc_max_reads_per_raw_region&#45;&gt;run_dragen_somatic_step</title>
<path fill="none" stroke="black" d="M2748.52,-1981.98C2772.7,-1972.38 2803.39,-1960.47 2831,-1950.55 3378.55,-1753.96 4049.19,-1543.43 4259.62,-1478.08"/>
<polygon fill="black" stroke="black" points="4260.78,-1481.38 4269.29,-1475.07 4258.71,-1474.7 4260.78,-1481.38"/>
</g>
<!-- vc_min_tumor_read_qual -->
<g id="node31" class="node">
<title>vc_min_tumor_read_qual</title>
<polygon fill="#94ddf4" stroke="black" points="2377.5,-1982.05 2377.5,-2019.05 2570.5,-2019.05 2570.5,-1982.05 2377.5,-1982.05"/>
<text text-anchor="middle" x="2474" y="-1996.85" font-family="Times,serif" font-size="14.00">vc_min_tumor_read_qual</text>
</g>
<!-- vc_min_tumor_read_qual&#45;&gt;run_dragen_somatic_step -->
<g id="edge47" class="edge">
<title>vc_min_tumor_read_qual&#45;&gt;run_dragen_somatic_step</title>
<path fill="none" stroke="black" d="M2508.27,-1982.03C2528.75,-1971.99 2555.47,-1959.62 2580,-1950.55 3200.25,-1721.26 3977.46,-1536.48 4237.03,-1477.42"/>
<polygon fill="black" stroke="black" points="4238.18,-1480.74 4247.15,-1475.12 4236.63,-1473.92 4238.18,-1480.74"/>
</g>
<!-- vc_remove_all_soft_clips -->
<g id="node32" class="node">
<title>vc_remove_all_soft_clips</title>
<polygon fill="#94ddf4" stroke="black" points="2169,-1982.05 2169,-2019.05 2359,-2019.05 2359,-1982.05 2169,-1982.05"/>
<text text-anchor="middle" x="2264" y="-1996.85" font-family="Times,serif" font-size="14.00">vc_remove_all_soft_clips</text>
</g>
<!-- vc_remove_all_soft_clips&#45;&gt;run_dragen_somatic_step -->
<g id="edge48" class="edge">
<title>vc_remove_all_soft_clips&#45;&gt;run_dragen_somatic_step</title>
<path fill="none" stroke="black" d="M2297.36,-1981.99C2317.67,-1971.81 2344.36,-1959.32 2369,-1950.55 3059.42,-1705 3927.92,-1531.62 4222.71,-1476.37"/>
<polygon fill="black" stroke="black" points="4223.77,-1479.74 4232.95,-1474.46 4222.48,-1472.86 4223.77,-1479.74"/>
</g>
<!-- vc_roh_blacklist_bed -->
<g id="node33" class="node">
<title>vc_roh_blacklist_bed</title>
<polygon fill="#94ddf4" stroke="black" points="1987.5,-1982.05 1987.5,-2019.05 2150.5,-2019.05 2150.5,-1982.05 1987.5,-1982.05"/>
<text text-anchor="middle" x="2069" y="-1996.85" font-family="Times,serif" font-size="14.00">vc_roh_blacklist_bed</text>
</g>
<!-- vc_roh_blacklist_bed&#45;&gt;run_dragen_somatic_step -->
<g id="edge49" class="edge">
<title>vc_roh_blacklist_bed&#45;&gt;run_dragen_somatic_step</title>
<path fill="none" stroke="black" d="M2097.16,-1981.82C2114.68,-1971.45 2137.99,-1958.81 2160,-1950.55 2924.66,-1663.72 3906.37,-1514.08 4222.82,-1470.93"/>
<polygon fill="black" stroke="black" points="4223.45,-1474.38 4232.89,-1469.57 4222.51,-1467.44 4223.45,-1474.38"/>
</g>
<!-- vc_somatic_hotspots -->
<g id="node34" class="node">
<title>vc_somatic_hotspots</title>
<polygon fill="#94ddf4" stroke="black" points="1806.5,-1982.05 1806.5,-2019.05 1969.5,-2019.05 1969.5,-1982.05 1806.5,-1982.05"/>
<text text-anchor="middle" x="1888" y="-1996.85" font-family="Times,serif" font-size="14.00">vc_somatic_hotspots</text>
</g>
<!-- vc_somatic_hotspots&#45;&gt;run_dragen_somatic_step -->
<g id="edge50" class="edge">
<title>vc_somatic_hotspots&#45;&gt;run_dragen_somatic_step</title>
<path fill="none" stroke="black" d="M1915.71,-1981.92C1933.26,-1971.46 1956.75,-1958.68 1979,-1950.55 2814.03,-1645.28 3888.99,-1506.26 4222.63,-1468.55"/>
<polygon fill="black" stroke="black" points="4223.21,-1472 4232.76,-1467.41 4222.43,-1465.05 4223.21,-1472"/>
</g>
<!-- vc_sq_call_threshold -->
<g id="node35" class="node">
<title>vc_sq_call_threshold</title>
<polygon fill="#94ddf4" stroke="black" points="1626,-1982.05 1626,-2019.05 1788,-2019.05 1788,-1982.05 1626,-1982.05"/>
<text text-anchor="middle" x="1707" y="-1996.85" font-family="Times,serif" font-size="14.00">vc_sq_call_threshold</text>
</g>
<!-- vc_sq_call_threshold&#45;&gt;run_dragen_somatic_step -->
<g id="edge51" class="edge">
<title>vc_sq_call_threshold&#45;&gt;run_dragen_somatic_step</title>
<path fill="none" stroke="black" d="M1734.27,-1982.05C1751.84,-1971.5 1775.53,-1958.58 1798,-1950.55 2704.1,-1626.69 3873.14,-1498.95 4222.83,-1466.45"/>
<polygon fill="black" stroke="black" points="4223.3,-1469.92 4232.94,-1465.52 4222.66,-1462.95 4223.3,-1469.92"/>
</g>
<!-- vc_sq_filter_threshold -->
<g id="node36" class="node">
<title>vc_sq_filter_threshold</title>
<polygon fill="#94ddf4" stroke="black" points="1436,-1982.05 1436,-2019.05 1608,-2019.05 1608,-1982.05 1436,-1982.05"/>
<text text-anchor="middle" x="1522" y="-1996.85" font-family="Times,serif" font-size="14.00">vc_sq_filter_threshold</text>
</g>
<!-- vc_sq_filter_threshold&#45;&gt;run_dragen_somatic_step -->
<g id="edge52" class="edge">
<title>vc_sq_filter_threshold&#45;&gt;run_dragen_somatic_step</title>
<path fill="none" stroke="black" d="M1550.54,-1982C1568.91,-1971.42 1593.63,-1958.51 1617,-1950.55 2597.18,-1616.89 3857.98,-1494.92 4222.88,-1465.28"/>
<polygon fill="black" stroke="black" points="4223.21,-1468.77 4232.9,-1464.47 4222.65,-1461.79 4223.21,-1468.77"/>
</g>
<!-- vc_target_bed -->
<g id="node37" class="node">
<title>vc_target_bed</title>
<polygon fill="#94ddf4" stroke="black" points="1302,-1982.05 1302,-2019.05 1418,-2019.05 1418,-1982.05 1302,-1982.05"/>
<text text-anchor="middle" x="1360" y="-1996.85" font-family="Times,serif" font-size="14.00">vc_target_bed</text>
</g>
<!-- vc_target_bed&#45;&gt;run_dragen_somatic_step -->
<g id="edge53" class="edge">
<title>vc_target_bed&#45;&gt;run_dragen_somatic_step</title>
<path fill="none" stroke="black" d="M1379.03,-1981.9C1391.69,-1971.14 1409.21,-1958.07 1427,-1950.55 2453.59,-1516.58 3837.55,-1464.25 4222.77,-1458.24"/>
<polygon fill="black" stroke="black" points="4222.83,-1461.74 4232.78,-1458.1 4222.73,-1454.74 4222.83,-1461.74"/>
</g>
<!-- vc_target_bed_padding -->
<g id="node38" class="node">
<title>vc_target_bed_padding</title>
<polygon fill="#94ddf4" stroke="black" points="1102.5,-1982.05 1102.5,-2019.05 1283.5,-2019.05 1283.5,-1982.05 1102.5,-1982.05"/>
<text text-anchor="middle" x="1193" y="-1996.85" font-family="Times,serif" font-size="14.00">vc_target_bed_padding</text>
</g>
<!-- vc_target_bed_padding&#45;&gt;run_dragen_somatic_step -->
<g id="edge54" class="edge">
<title>vc_target_bed_padding&#45;&gt;run_dragen_somatic_step</title>
<path fill="none" stroke="black" d="M1223.1,-1981.89C1242.47,-1971.28 1268.5,-1958.36 1293,-1950.55 2404.91,-1596.37 3831.13,-1487.51 4222.65,-1463.33"/>
<polygon fill="black" stroke="black" points="4223.06,-1466.81 4232.82,-1462.71 4222.63,-1459.83 4223.06,-1466.81"/>
</g>
<!-- vc_target_coverage -->
<g id="node39" class="node">
<title>vc_target_coverage</title>
<polygon fill="#94ddf4" stroke="black" points="929.5,-1982.05 929.5,-2019.05 1084.5,-2019.05 1084.5,-1982.05 929.5,-1982.05"/>
<text text-anchor="middle" x="1007" y="-1996.85" font-family="Times,serif" font-size="14.00">vc_target_coverage</text>
</g>
<!-- vc_target_coverage&#45;&gt;run_dragen_somatic_step -->
<g id="edge55" class="edge">
<title>vc_target_coverage&#45;&gt;run_dragen_somatic_step</title>
<path fill="none" stroke="black" d="M1032.48,-1981.93C1049.23,-1971.2 1072.04,-1958.13 1094,-1950.55 2274.98,-1543.19 3814.25,-1471.88 4222.8,-1459.89"/>
<polygon fill="black" stroke="black" points="4222.92,-1463.38 4232.82,-1459.6 4222.72,-1456.39 4222.92,-1463.38"/>
</g>
<!-- vc_tin_contam_tolerance -->
<g id="node40" class="node">
<title>vc_tin_contam_tolerance</title>
<polygon fill="#94ddf4" stroke="black" points="720.5,-1982.05 720.5,-2019.05 911.5,-2019.05 911.5,-1982.05 720.5,-1982.05"/>
<text text-anchor="middle" x="816" y="-1996.85" font-family="Times,serif" font-size="14.00">vc_tin_contam_tolerance</text>
</g>
<!-- vc_tin_contam_tolerance&#45;&gt;run_dragen_somatic_step -->
<g id="edge56" class="edge">
<title>vc_tin_contam_tolerance&#45;&gt;run_dragen_somatic_step</title>
<path fill="none" stroke="black" d="M847.21,-1982.03C867.61,-1971.33 895.17,-1958.27 921,-1950.55 2185.25,-1573 3802.89,-1479.94 4222.79,-1461.52"/>
<polygon fill="black" stroke="black" points="4222.94,-1465.02 4232.78,-1461.09 4222.64,-1458.03 4222.94,-1465.02"/>
</g>
<!-- dragen_somatic_output_directory -->
<g id="node41" class="node">
<title>dragen_somatic_output_directory</title>
<polygon fill="#94ddf4" stroke="black" points="3770.5,-391.05 3770.5,-428.05 4025.5,-428.05 4025.5,-391.05 3770.5,-391.05"/>
<text text-anchor="middle" x="3898" y="-405.85" font-family="Times,serif" font-size="14.00">dragen_somatic_output_directory</text>
</g>
<!-- multiqc_output_directory -->
<g id="node42" class="node">
<title>multiqc_output_directory</title>
<polygon fill="#94ddf4" stroke="black" points="5026.5,-391.05 5026.5,-428.05 5223.5,-428.05 5223.5,-391.05 5026.5,-391.05"/>
<text text-anchor="middle" x="5125" y="-405.85" font-family="Times,serif" font-size="14.00">multiqc_output_directory</text>
</g>
<!-- normal_bam_out -->
<g id="node43" class="node">
<title>normal_bam_out</title>
<polygon fill="#94ddf4" stroke="black" points="4044,-391.05 4044,-428.05 4178,-428.05 4178,-391.05 4044,-391.05"/>
<text text-anchor="middle" x="4111" y="-405.85" font-family="Times,serif" font-size="14.00">normal_bam_out</text>
</g>
<!-- somatic_snv_vcf_hard_filtered_out -->
<g id="node44" class="node">
<title>somatic_snv_vcf_hard_filtered_out</title>
<polygon fill="#94ddf4" stroke="black" points="4196,-391.05 4196,-428.05 4456,-428.05 4456,-391.05 4196,-391.05"/>
<text text-anchor="middle" x="4326" y="-405.85" font-family="Times,serif" font-size="14.00">somatic_snv_vcf_hard_filtered_out</text>
</g>
<!-- somatic_snv_vcf_out -->
<g id="node45" class="node">
<title>somatic_snv_vcf_out</title>
<polygon fill="#94ddf4" stroke="black" points="4474.5,-391.05 4474.5,-428.05 4635.5,-428.05 4635.5,-391.05 4474.5,-391.05"/>
<text text-anchor="middle" x="4555" y="-405.85" font-family="Times,serif" font-size="14.00">somatic_snv_vcf_out</text>
</g>
<!-- somatic_structural_vcf_out -->
<g id="node46" class="node">
<title>somatic_structural_vcf_out</title>
<polygon fill="#94ddf4" stroke="black" points="4654,-391.05 4654,-428.05 4862,-428.05 4862,-391.05 4654,-391.05"/>
<text text-anchor="middle" x="4758" y="-405.85" font-family="Times,serif" font-size="14.00">somatic_structural_vcf_out</text>
</g>
<!-- tumor_bam_out -->
<g id="node47" class="node">
<title>tumor_bam_out</title>
<polygon fill="#94ddf4" stroke="black" points="4880,-391.05 4880,-428.05 5008,-428.05 5008,-391.05 4880,-391.05"/>
<text text-anchor="middle" x="4944" y="-405.85" font-family="Times,serif" font-size="14.00">tumor_bam_out</text>
</g>
<!-- run_dragen_somatic_step&#45;&gt;dragen_somatic_output_directory -->
<g id="edge2" class="edge">
<title>run_dragen_somatic_step&#45;&gt;dragen_somatic_output_directory</title>
<path fill="none" stroke="black" d="M4318.75,-1437.85C4268.39,-1314.89 3970.86,-588.43 3909.19,-437.86"/>
<polygon fill="black" stroke="black" points="3912.34,-436.34 3905.31,-428.41 3905.87,-438.99 3912.34,-436.34"/>
</g>
<!-- run_dragen_somatic_step&#45;&gt;normal_bam_out -->
<g id="edge3" class="edge">
<title>run_dragen_somatic_step&#45;&gt;normal_bam_out</title>
<path fill="none" stroke="black" d="M4322.36,-1437.85C4297.09,-1315.01 4147.9,-589.89 4116.71,-438.32"/>
<polygon fill="black" stroke="black" points="4120.12,-437.5 4114.67,-428.41 4113.26,-438.91 4120.12,-437.5"/>
</g>
<!-- run_dragen_somatic_step&#45;&gt;somatic_snv_vcf_hard_filtered_out -->
<g id="edge4" class="edge">
<title>run_dragen_somatic_step&#45;&gt;somatic_snv_vcf_hard_filtered_out</title>
<path fill="none" stroke="black" d="M4326,-1437.85C4326,-1315.14 4326,-591.33 4326,-438.77"/>
<polygon fill="black" stroke="black" points="4329.5,-438.41 4326,-428.41 4322.5,-438.41 4329.5,-438.41"/>
</g>
<!-- run_dragen_somatic_step&#45;&gt;somatic_snv_vcf_out -->
<g id="edge5" class="edge">
<title>run_dragen_somatic_step&#45;&gt;somatic_snv_vcf_out</title>
<path fill="none" stroke="black" d="M4329.88,-1437.85C4356.8,-1315.01 4515.7,-589.89 4548.92,-438.32"/>
<polygon fill="black" stroke="black" points="4552.36,-438.93 4551.09,-428.41 4545.53,-437.43 4552.36,-438.93"/>
</g>
<!-- run_dragen_somatic_step&#45;&gt;somatic_structural_vcf_out -->
<g id="edge6" class="edge">
<title>run_dragen_somatic_step&#45;&gt;somatic_structural_vcf_out</title>
<path fill="none" stroke="black" d="M4333.32,-1437.85C4384.15,-1314.89 4684.46,-588.43 4746.71,-437.86"/>
<polygon fill="black" stroke="black" points="4750.03,-438.99 4750.62,-428.41 4743.56,-436.32 4750.03,-438.99"/>
</g>
<!-- run_dragen_somatic_step&#45;&gt;tumor_bam_out -->
<g id="edge7" class="edge">
<title>run_dragen_somatic_step&#45;&gt;tumor_bam_out</title>
<path fill="none" stroke="black" d="M4336.47,-1437.85C4409.26,-1314.77 4839.66,-586.98 4928.11,-437.41"/>
<polygon fill="black" stroke="black" points="4931.36,-438.8 4933.44,-428.41 4925.34,-435.24 4931.36,-438.8"/>
</g>
<!-- run_dragen_somatic_step&#45;&gt;dragen_qc_step -->
<g id="edge1" class="edge">
<title>run_dragen_somatic_step&#45;&gt;dragen_qc_step</title>
<path fill="none" stroke="black" d="M4419.01,-1441.68C4918.29,-1367.23 7275.41,-1015.76 7740.27,-946.44"/>
<polygon fill="black" stroke="black" points="7740.88,-949.89 7750.25,-944.95 7739.84,-942.97 7740.88,-949.89"/>
</g>
<!-- dragen_qc_step&#45;&gt;multiqc_output_directory -->
<g id="edge8" class="edge">
<title>dragen_qc_step&#45;&gt;multiqc_output_directory</title>
<path fill="none" stroke="black" d="M7750.33,-919.06C7381.94,-847.7 5661.47,-514.46 5225.58,-430.03"/>
<polygon fill="black" stroke="black" points="5226.01,-426.55 5215.52,-428.09 5224.67,-433.42 5226.01,-426.55"/>
</g>
<!-- create_dummy_file_step -->
<g id="node50" class="node">
<title>create_dummy_file_step</title>
<polygon fill="lightgoldenrodyellow" stroke="black" points="7866.5,-1438.05 7866.5,-1475.05 8127.5,-1475.05 8127.5,-1438.05 7866.5,-1438.05"/>
<text text-anchor="middle" x="7997" y="-1452.85" font-family="Times,serif" font-size="14.00">custom&#45;create&#45;dummy&#45;file v(1.0.0)</text>
</g>
<!-- create_dummy_file_step&#45;&gt;dragen_qc_step -->
<g id="edge9" class="edge">
<title>create_dummy_file_step&#45;&gt;dragen_qc_step</title>
<path fill="none" stroke="black" d="M7991.01,-1437.92C7964.9,-1361.08 7860.97,-1055.15 7829.24,-961.76"/>
<polygon fill="black" stroke="black" points="7832.52,-960.52 7825.99,-952.18 7825.89,-962.78 7832.52,-960.52"/>
</g>
<!-- create_tumor_fastq_list_csv_step&#45;&gt;run_dragen_somatic_step -->
<g id="edge10" class="edge">
<title>create_tumor_fastq_list_csv_step&#45;&gt;run_dragen_somatic_step</title>
<path fill="none" stroke="black" d="M219.49,-1982.02C253.51,-1971.59 300.06,-1958.82 342,-1950.55 1868.87,-1649.63 3763.93,-1498.08 4222.6,-1464.71"/>
<polygon fill="black" stroke="black" points="4223.12,-1468.18 4232.84,-1463.97 4222.61,-1461.2 4223.12,-1468.18"/>
</g>
<!-- create_tumor_fastq_list_csv_step&#45;&gt;run_dragen_somatic_step -->
<g id="edge11" class="edge">
<title>create_tumor_fastq_list_csv_step&#45;&gt;run_dragen_somatic_step</title>
<path fill="none" stroke="black" d="M235.03,-1982.02C271.51,-1971.59 318.06,-1958.82 360,-1950.55 1880.1,-1650.97 3765.13,-1499.43 4222.55,-1465.16"/>
<polygon fill="black" stroke="black" points="4223.05,-1468.63 4232.76,-1464.4 4222.53,-1461.65 4223.05,-1468.63"/>
</g>
<!-- create_fastq_list_csv_step&#45;&gt;run_dragen_somatic_step -->
<g id="edge12" class="edge">
<title>create_fastq_list_csv_step&#45;&gt;run_dragen_somatic_step</title>
<path fill="none" stroke="black" d="M578.95,-1982.05C612.35,-1971.69 657.93,-1959 699,-1950.55 2079.05,-1666.85 3789.8,-1504.17 4222.78,-1466.21"/>
<polygon fill="black" stroke="black" points="4223.11,-1469.69 4232.77,-1465.33 4222.5,-1462.72 4223.11,-1469.69"/>
</g>
<!-- create_fastq_list_csv_step&#45;&gt;run_dragen_somatic_step -->
<g id="edge13" class="edge">
<title>create_fastq_list_csv_step&#45;&gt;run_dragen_somatic_step</title>
<path fill="none" stroke="black" d="M594.51,-1982.05C630.35,-1971.69 675.93,-1959 717,-1950.55 2090.16,-1668.26 3790.74,-1505.79 4222.6,-1466.78"/>
<polygon fill="black" stroke="black" points="4223.23,-1470.24 4232.87,-1465.86 4222.6,-1463.27 4223.23,-1470.24"/>
</g>
<!-- \n -->
<g id="node53" class="node">
<title>\n</title>
<ellipse fill="none" stroke="black" cx="8268" cy="-2000.55" rx="27" ry="18"/>
</g>
</g>
</svg>
