<?xml version="1.0" encoding="UTF-8" standalone="no"?>
<!DOCTYPE svg PUBLIC "-//W3C//DTD SVG 1.1//EN"
 "http://www.w3.org/Graphics/SVG/1.1/DTD/svg11.dtd">
<!-- Generated by graphviz version 2.43.0 (0)
 -->
<!-- Title: G Pages: 1 -->
<svg width="8467pt" height="2300pt"
 viewBox="0.00 0.00 8466.50 2300.12" xmlns="http://www.w3.org/2000/svg" xmlns:xlink="http://www.w3.org/1999/xlink">
<g id="graph0" class="graph" transform="scale(1 1) rotate(0) translate(4 2296.12)">
<title>G</title>
<polygon fill="#eeeeee" stroke="transparent" points="-4,4 -4,-2296.12 8462.5,-2296.12 8462.5,4 -4,4"/>
<g id="clust1" class="cluster">
<title>cluster_inputs</title>
<polygon fill="#eeeeee" stroke="black" stroke-dasharray="5,2" points="229.5,-1678.94 229.5,-2233.72 7746.5,-2233.72 7746.5,-1678.94 229.5,-1678.94"/>
<text text-anchor="middle" x="7680" y="-1686.74" font-family="Times,serif" font-size="14.00">Workflow Inputs</text>
</g>
<g id="clust2" class="cluster">
<title>cluster_outputs</title>
<polygon fill="#eeeeee" stroke="black" stroke-dasharray="5,2" points="3260.5,-58.4 3260.5,-613.18 4729.5,-613.18 4729.5,-58.4 3260.5,-58.4"/>
<text text-anchor="middle" x="4657" y="-66.2" font-family="Times,serif" font-size="14.00">Workflow Outputs</text>
</g>
<!-- create_dummy_file_step -->
<g id="node1" class="node">
<title>create_dummy_file_step</title>
<polygon fill="lightgoldenrodyellow" stroke="black" points="0,-1467.4 0,-1503.4 261,-1503.4 261,-1467.4 0,-1467.4"/>
<text text-anchor="middle" x="130.5" y="-1481.7" font-family="Times,serif" font-size="14.00">custom&#45;create&#45;dummy&#45;file v(1.0.0)</text>
</g>
<!-- dragen_qc_step -->
<g id="node2" class="node">
<title>dragen_qc_step</title>
<polygon fill="lightgoldenrodyellow" stroke="black" points="238,-934.4 238,-970.4 377,-970.4 377,-934.4 238,-934.4"/>
<text text-anchor="middle" x="307.5" y="-948.7" font-family="Times,serif" font-size="14.00">multiqc v(1.10.1)</text>
</g>
<!-- create_dummy_file_step&#45;&gt;dragen_qc_step -->
<g id="edge1" class="edge">
<title>create_dummy_file_step&#45;&gt;dragen_qc_step</title>
<path fill="none" stroke="black" d="M136.19,-1467.33C161.88,-1390.25 267.21,-1074.26 298.62,-980.04"/>
<polygon fill="black" stroke="black" points="301.99,-980.99 301.83,-970.4 295.35,-978.78 301.99,-980.99"/>
</g>
<!-- multiqc_output_directory -->
<g id="node47" class="node">
<title>multiqc_output_directory</title>
<polygon fill="#94ddf4" stroke="black" points="3269,-401.4 3269,-437.4 3466,-437.4 3466,-401.4 3269,-401.4"/>
<text text-anchor="middle" x="3367.5" y="-415.7" font-family="Times,serif" font-size="14.00">multiqc_output_directory</text>
</g>
<!-- dragen_qc_step&#45;&gt;multiqc_output_directory -->
<g id="edge51" class="edge">
<title>dragen_qc_step&#45;&gt;multiqc_output_directory</title>
<path fill="none" stroke="black" d="M377.16,-939.31C776.19,-870.07 2771.06,-523.9 3259.45,-439.15"/>
<polygon fill="black" stroke="black" points="3260.07,-442.59 3269.32,-437.43 3258.87,-435.7 3260.07,-442.59"/>
</g>
<!-- run_dragen_somatic_step -->
<g id="node3" class="node">
<title>run_dragen_somatic_step</title>
<polygon fill="lightgoldenrodyellow" stroke="black" points="4175.5,-1467.4 4175.5,-1503.4 4361.5,-1503.4 4361.5,-1467.4 4175.5,-1467.4"/>
<text text-anchor="middle" x="4268.5" y="-1481.7" font-family="Times,serif" font-size="14.00">dragen&#45;somatic v(3.7.5)</text>
</g>
<!-- run_dragen_somatic_step&#45;&gt;dragen_qc_step -->
<g id="edge2" class="edge">
<title>run_dragen_somatic_step&#45;&gt;dragen_qc_step</title>
<path fill="none" stroke="black" d="M4175.46,-1471.93C3633.67,-1399.29 892.2,-1031.78 387.44,-964.11"/>
<polygon fill="black" stroke="black" points="387.71,-960.62 377.33,-962.76 386.78,-967.56 387.71,-960.62"/>
</g>
<!-- dragen_somatic_output_directory -->
<g id="node46" class="node">
<title>dragen_somatic_output_directory</title>
<polygon fill="#94ddf4" stroke="black" points="3484,-401.4 3484,-437.4 3739,-437.4 3739,-401.4 3484,-401.4"/>
<text text-anchor="middle" x="3611.5" y="-415.7" font-family="Times,serif" font-size="14.00">dragen_somatic_output_directory</text>
</g>
<!-- run_dragen_somatic_step&#45;&gt;dragen_somatic_output_directory -->
<g id="edge50" class="edge">
<title>run_dragen_somatic_step&#45;&gt;dragen_somatic_output_directory</title>
<path fill="none" stroke="black" d="M4257.91,-1467.25C4181.85,-1344.07 3719.01,-594.5 3627.29,-445.97"/>
<polygon fill="black" stroke="black" points="3630.25,-444.11 3622.02,-437.44 3624.3,-447.78 3630.25,-444.11"/>
</g>
<!-- normal_bam_out -->
<g id="node48" class="node">
<title>normal_bam_out</title>
<polygon fill="#94ddf4" stroke="black" points="3757.5,-401.4 3757.5,-437.4 3891.5,-437.4 3891.5,-401.4 3757.5,-401.4"/>
<text text-anchor="middle" x="3824.5" y="-415.7" font-family="Times,serif" font-size="14.00">normal_bam_out</text>
</g>
<!-- run_dragen_somatic_step&#45;&gt;normal_bam_out -->
<g id="edge52" class="edge">
<title>run_dragen_somatic_step&#45;&gt;normal_bam_out</title>
<path fill="none" stroke="black" d="M4261.35,-1467.25C4210.04,-1344.32 3898.4,-597.49 3835.54,-446.86"/>
<polygon fill="black" stroke="black" points="3838.69,-445.32 3831.61,-437.44 3832.23,-448.01 3838.69,-445.32"/>
</g>
<!-- somatic_snv_vcf_hard_filtered_out -->
<g id="node49" class="node">
<title>somatic_snv_vcf_hard_filtered_out</title>
<polygon fill="#94ddf4" stroke="black" points="3909.5,-401.4 3909.5,-437.4 4169.5,-437.4 4169.5,-401.4 3909.5,-401.4"/>
<text text-anchor="middle" x="4039.5" y="-415.7" font-family="Times,serif" font-size="14.00">somatic_snv_vcf_hard_filtered_out</text>
</g>
<!-- run_dragen_somatic_step&#45;&gt;somatic_snv_vcf_hard_filtered_out -->
<g id="edge53" class="edge">
<title>run_dragen_somatic_step&#45;&gt;somatic_snv_vcf_hard_filtered_out</title>
<path fill="none" stroke="black" d="M4264.81,-1467.25C4238.38,-1344.44 4077.94,-598.98 4045.29,-447.31"/>
<polygon fill="black" stroke="black" points="4048.69,-446.48 4043.17,-437.44 4041.85,-447.95 4048.69,-446.48"/>
</g>
<!-- somatic_snv_vcf_out -->
<g id="node50" class="node">
<title>somatic_snv_vcf_out</title>
<polygon fill="#94ddf4" stroke="black" points="4188,-401.4 4188,-437.4 4349,-437.4 4349,-401.4 4188,-401.4"/>
<text text-anchor="middle" x="4268.5" y="-415.7" font-family="Times,serif" font-size="14.00">somatic_snv_vcf_out</text>
</g>
<!-- run_dragen_somatic_step&#45;&gt;somatic_snv_vcf_out -->
<g id="edge54" class="edge">
<title>run_dragen_somatic_step&#45;&gt;somatic_snv_vcf_out</title>
<path fill="none" stroke="black" d="M4268.5,-1467.25C4268.5,-1344.56 4268.5,-600.47 4268.5,-447.77"/>
<polygon fill="black" stroke="black" points="4272,-447.44 4268.5,-437.44 4265,-447.44 4272,-447.44"/>
</g>
<!-- somatic_structural_vcf_out -->
<g id="node51" class="node">
<title>somatic_structural_vcf_out</title>
<polygon fill="#94ddf4" stroke="black" points="4367.5,-401.4 4367.5,-437.4 4575.5,-437.4 4575.5,-401.4 4367.5,-401.4"/>
<text text-anchor="middle" x="4471.5" y="-415.7" font-family="Times,serif" font-size="14.00">somatic_structural_vcf_out</text>
</g>
<!-- run_dragen_somatic_step&#45;&gt;somatic_structural_vcf_out -->
<g id="edge55" class="edge">
<title>run_dragen_somatic_step&#45;&gt;somatic_structural_vcf_out</title>
<path fill="none" stroke="black" d="M4271.77,-1467.25C4295.2,-1344.44 4437.43,-598.98 4466.36,-447.31"/>
<polygon fill="black" stroke="black" points="4469.81,-447.92 4468.25,-437.44 4462.94,-446.6 4469.81,-447.92"/>
</g>
<!-- tumor_bam_out -->
<g id="node52" class="node">
<title>tumor_bam_out</title>
<polygon fill="#94ddf4" stroke="black" points="4593.5,-401.4 4593.5,-437.4 4721.5,-437.4 4721.5,-401.4 4593.5,-401.4"/>
<text text-anchor="middle" x="4657.5" y="-415.7" font-family="Times,serif" font-size="14.00">tumor_bam_out</text>
</g>
<!-- run_dragen_somatic_step&#45;&gt;tumor_bam_out -->
<g id="edge56" class="edge">
<title>run_dragen_somatic_step&#45;&gt;tumor_bam_out</title>
<path fill="none" stroke="black" d="M4274.77,-1467.25C4319.71,-1344.32 4592.76,-597.49 4647.83,-446.86"/>
<polygon fill="black" stroke="black" points="4651.12,-448.03 4651.27,-437.44 4644.55,-445.63 4651.12,-448.03"/>
</g>
<!-- create_fastq_list_csv_step -->
<g id="node4" class="node">
<title>create_fastq_list_csv_step</title>
<polygon fill="lightgoldenrodyellow" stroke="black" points="7756.5,-2022.4 7756.5,-2058.4 8098.5,-2058.4 8098.5,-2022.4 7756.5,-2022.4"/>
<text text-anchor="middle" x="7927.5" y="-2036.7" font-family="Times,serif" font-size="14.00">custom&#45;create&#45;csv&#45;from&#45;fastq&#45;list&#45;row v(1.0.0)</text>
</g>
<!-- create_fastq_list_csv_step&#45;&gt;run_dragen_somatic_step -->
<g id="edge3" class="edge">
<title>create_fastq_list_csv_step&#45;&gt;run_dragen_somatic_step</title>
<path fill="none" stroke="black" d="M7864.36,-2022.33C7828.44,-2012.11 7782.67,-1999.49 7741.5,-1990.9 6423.26,-1715.89 4793.18,-1540.4 4371.73,-1496.97"/>
<polygon fill="black" stroke="black" points="4372,-1493.48 4361.7,-1495.94 4371.29,-1500.44 4372,-1493.48"/>
</g>
<!-- create_fastq_list_csv_step&#45;&gt;run_dragen_somatic_step -->
<g id="edge5" class="edge">
<title>create_fastq_list_csv_step&#45;&gt;run_dragen_somatic_step</title>
<path fill="none" stroke="black" d="M7879.89,-2022.33C7846.44,-2012.11 7800.67,-1999.49 7759.5,-1990.9 6434.58,-1714.5 4794.67,-1538.62 4371.75,-1496.32"/>
<polygon fill="black" stroke="black" points="4371.98,-1492.82 4361.68,-1495.31 4371.29,-1499.79 4371.98,-1492.82"/>
</g>
<!-- create_tumor_fastq_list_csv_step -->
<g id="node5" class="node">
<title>create_tumor_fastq_list_csv_step</title>
<polygon fill="lightgoldenrodyellow" stroke="black" points="8116.5,-2022.4 8116.5,-2058.4 8458.5,-2058.4 8458.5,-2022.4 8116.5,-2022.4"/>
<text text-anchor="middle" x="8287.5" y="-2036.7" font-family="Times,serif" font-size="14.00">custom&#45;create&#45;csv&#45;from&#45;fastq&#45;list&#45;row v(1.0.0)</text>
</g>
<!-- create_tumor_fastq_list_csv_step&#45;&gt;run_dragen_somatic_step -->
<g id="edge4" class="edge">
<title>create_tumor_fastq_list_csv_step&#45;&gt;run_dragen_somatic_step</title>
<path fill="none" stroke="black" d="M8223.85,-2022.28C8187.3,-2011.99 8140.55,-1999.29 8098.5,-1990.9 6633.41,-1698.59 4818.82,-1533.59 4371.62,-1495.15"/>
<polygon fill="black" stroke="black" points="4371.89,-1491.66 4361.63,-1494.3 4371.29,-1498.64 4371.89,-1491.66"/>
</g>
<!-- create_tumor_fastq_list_csv_step&#45;&gt;run_dragen_somatic_step -->
<g id="edge6" class="edge">
<title>create_tumor_fastq_list_csv_step&#45;&gt;run_dragen_somatic_step</title>
<path fill="none" stroke="black" d="M8239.36,-2022.28C8205.3,-2011.99 8158.55,-1999.29 8116.5,-1990.9 6644.87,-1697.28 4820.6,-1532.12 4371.77,-1494.65"/>
<polygon fill="black" stroke="black" points="4372,-1491.15 4361.75,-1493.81 4371.42,-1498.13 4372,-1491.15"/>
</g>
<!-- fastq_list_rows -->
<g id="node6" class="node">
<title>fastq_list_rows</title>
<polygon fill="#94ddf4" stroke="black" points="7615,-2022.4 7615,-2058.4 7738,-2058.4 7738,-2022.4 7615,-2022.4"/>
<text text-anchor="middle" x="7676.5" y="-2036.7" font-family="Times,serif" font-size="14.00">fastq_list_rows</text>
</g>
<!-- tumor_fastq_list_rows -->
<g id="node7" class="node">
<title>tumor_fastq_list_rows</title>
<polygon fill="#94ddf4" stroke="black" points="7424,-2022.4 7424,-2058.4 7597,-2058.4 7597,-2022.4 7424,-2022.4"/>
<text text-anchor="middle" x="7510.5" y="-2036.7" font-family="Times,serif" font-size="14.00">tumor_fastq_list_rows</text>
</g>
<!-- tumor_fastq_list_rows&#45;&gt;create_tumor_fastq_list_csv_step -->
<g id="edge8" class="edge">
<title>tumor_fastq_list_rows&#45;&gt;create_tumor_fastq_list_csv_step</title>
<path fill="none" stroke="black" d="M7543.44,-2058.4C7563.59,-2068.38 7590.28,-2079.77 7615.5,-2084.9 7720.68,-2106.27 7991.88,-2097.28 8098.5,-2084.9 8138.29,-2080.28 8181.86,-2070.36 8217.13,-2061.06"/>
<polygon fill="black" stroke="black" points="8218.1,-2064.42 8226.85,-2058.45 8216.28,-2057.66 8218.1,-2064.42"/>
</g>
<!-- output_file_prefix -->
<g id="node8" class="node">
<title>output_file_prefix</title>
<polygon fill="#94ddf4" stroke="black" points="237.5,-2022.4 237.5,-2058.4 377.5,-2058.4 377.5,-2022.4 237.5,-2022.4"/>
<text text-anchor="middle" x="307.5" y="-2036.7" font-family="Times,serif" font-size="14.00">output_file_prefix</text>
</g>
<!-- output_file_prefix&#45;&gt;dragen_qc_step -->
<g id="edge9" class="edge">
<title>output_file_prefix&#45;&gt;dragen_qc_step</title>
<path fill="none" stroke="black" d="M303.79,-2022.34C291.04,-1898.22 290.74,-1134.42 302.9,-980.43"/>
<polygon fill="black" stroke="black" points="306.39,-980.69 303.79,-970.42 299.42,-980.07 306.39,-980.69"/>
</g>
<!-- output_file_prefix&#45;&gt;dragen_qc_step -->
<g id="edge10" class="edge">
<title>output_file_prefix&#45;&gt;dragen_qc_step</title>
<path fill="none" stroke="black" d="M307.5,-2022.34C307.5,-1898.22 307.5,-1134.42 307.5,-980.43"/>
<polygon fill="black" stroke="black" points="311,-980.42 307.5,-970.42 304,-980.42 311,-980.42"/>
</g>
<!-- output_file_prefix&#45;&gt;dragen_qc_step -->
<g id="edge11" class="edge">
<title>output_file_prefix&#45;&gt;dragen_qc_step</title>
<path fill="none" stroke="black" d="M311.21,-2022.34C323.96,-1898.22 324.26,-1134.42 312.1,-980.43"/>
<polygon fill="black" stroke="black" points="315.58,-980.07 311.21,-970.42 308.61,-980.69 315.58,-980.07"/>
</g>
<!-- output_file_prefix&#45;&gt;run_dragen_somatic_step -->
<g id="edge12" class="edge">
<title>output_file_prefix&#45;&gt;run_dragen_somatic_step</title>
<path fill="none" stroke="black" d="M329.7,-2022.23C344.86,-2011.43 365.86,-1998.2 386.5,-1990.9 1116.68,-1732.68 3623.75,-1534.36 4164.98,-1493.96"/>
<polygon fill="black" stroke="black" points="4165.4,-1497.43 4175.11,-1493.2 4164.88,-1490.45 4165.4,-1497.43"/>
</g>
<!-- dbsnp_annotation -->
<g id="node9" class="node">
<title>dbsnp_annotation</title>
<polygon fill="#94ddf4" stroke="black" points="6682,-2022.4 6682,-2058.4 6825,-2058.4 6825,-2022.4 6682,-2022.4"/>
<text text-anchor="middle" x="6753.5" y="-2036.7" font-family="Times,serif" font-size="14.00">dbsnp_annotation</text>
</g>
<!-- dbsnp_annotation&#45;&gt;run_dragen_somatic_step -->
<g id="edge13" class="edge">
<title>dbsnp_annotation&#45;&gt;run_dragen_somatic_step</title>
<path fill="none" stroke="black" d="M6730.1,-2022.3C6714.71,-2011.8 6693.74,-1998.89 6673.5,-1990.9 5823.19,-1655.32 4711.44,-1528.06 4371.59,-1495.49"/>
<polygon fill="black" stroke="black" points="4371.81,-1492 4361.52,-1494.53 4371.15,-1498.97 4371.81,-1492"/>
</g>
<!-- enable_cnv -->
<g id="node10" class="node">
<title>enable_cnv</title>
<polygon fill="#94ddf4" stroke="black" points="6569,-2022.4 6569,-2058.4 6664,-2058.4 6664,-2022.4 6569,-2022.4"/>
<text text-anchor="middle" x="6616.5" y="-2036.7" font-family="Times,serif" font-size="14.00">enable_cnv</text>
</g>
<!-- enable_cnv&#45;&gt;run_dragen_somatic_step -->
<g id="edge14" class="edge">
<title>enable_cnv&#45;&gt;run_dragen_somatic_step</title>
<path fill="none" stroke="black" d="M6600.96,-2022.12C6590.52,-2011.56 6575.9,-1998.63 6560.5,-1990.9 5782.24,-1600.25 4705.96,-1510.24 4371.7,-1491.17"/>
<polygon fill="black" stroke="black" points="4371.74,-1487.67 4361.56,-1490.6 4371.34,-1494.65 4371.74,-1487.67"/>
</g>
<!-- enable_duplicate_marking -->
<g id="node11" class="node">
<title>enable_duplicate_marking</title>
<polygon fill="#94ddf4" stroke="black" points="6348,-2022.4 6348,-2058.4 6551,-2058.4 6551,-2022.4 6348,-2022.4"/>
<text text-anchor="middle" x="6449.5" y="-2036.7" font-family="Times,serif" font-size="14.00">enable_duplicate_marking</text>
</g>
<!-- enable_duplicate_marking&#45;&gt;run_dragen_somatic_step -->
<g id="edge15" class="edge">
<title>enable_duplicate_marking&#45;&gt;run_dragen_somatic_step</title>
<path fill="none" stroke="black" d="M6414.95,-2022.28C6393.59,-2012.18 6365.39,-1999.68 6339.5,-1990.9 5601.88,-1740.62 4677.17,-1560.85 4371.67,-1504.84"/>
<polygon fill="black" stroke="black" points="4371.97,-1501.33 4361.5,-1502.98 4370.71,-1508.22 4371.97,-1501.33"/>
</g>
<!-- enable_map_align_output -->
<g id="node12" class="node">
<title>enable_map_align_output</title>
<polygon fill="#94ddf4" stroke="black" points="6133,-2022.4 6133,-2058.4 6330,-2058.4 6330,-2022.4 6133,-2022.4"/>
<text text-anchor="middle" x="6231.5" y="-2036.7" font-family="Times,serif" font-size="14.00">enable_map_align_output</text>
</g>
<!-- enable_map_align_output&#45;&gt;run_dragen_somatic_step -->
<g id="edge16" class="edge">
<title>enable_map_align_output&#45;&gt;run_dragen_somatic_step</title>
<path fill="none" stroke="black" d="M6197.05,-2022.26C6176.11,-2012.27 6148.66,-1999.9 6123.5,-1990.9 5460.07,-1753.37 4629.14,-1564.47 4358.3,-1505.56"/>
<polygon fill="black" stroke="black" points="4359.03,-1502.14 4348.52,-1503.44 4357.55,-1508.98 4359.03,-1502.14"/>
</g>
<!-- enable_sv -->
<g id="node13" class="node">
<title>enable_sv</title>
<polygon fill="#94ddf4" stroke="black" points="6028.5,-2022.4 6028.5,-2058.4 6114.5,-2058.4 6114.5,-2022.4 6028.5,-2022.4"/>
<text text-anchor="middle" x="6071.5" y="-2036.7" font-family="Times,serif" font-size="14.00">enable_sv</text>
</g>
<!-- enable_sv&#45;&gt;run_dragen_somatic_step -->
<g id="edge17" class="edge">
<title>enable_sv&#45;&gt;run_dragen_somatic_step</title>
<path fill="none" stroke="black" d="M6056.7,-2021.94C6047.06,-2011.58 6033.68,-1998.93 6019.5,-1990.9 5448.55,-1667.36 4653.2,-1536.9 4371.99,-1499.05"/>
<polygon fill="black" stroke="black" points="4372.18,-1495.54 4361.8,-1497.68 4371.25,-1502.48 4372.18,-1495.54"/>
</g>
<!-- lic_instance_id_location -->
<g id="node14" class="node">
<title>lic_instance_id_location</title>
<polygon fill="#94ddf4" stroke="black" points="5827,-2022.4 5827,-2058.4 6010,-2058.4 6010,-2022.4 5827,-2022.4"/>
<text text-anchor="middle" x="5918.5" y="-2036.7" font-family="Times,serif" font-size="14.00">lic_instance_id_location</text>
</g>
<!-- lic_instance_id_location&#45;&gt;run_dragen_somatic_step -->
<g id="edge18" class="edge">
<title>lic_instance_id_location&#45;&gt;run_dragen_somatic_step</title>
<path fill="none" stroke="black" d="M5885.79,-2022.33C5866.25,-2012.48 5840.79,-2000.23 5817.5,-1990.9 5260.98,-1767.8 4563.95,-1568.24 4340.75,-1506.22"/>
<polygon fill="black" stroke="black" points="4341.37,-1502.76 4330.8,-1503.46 4339.5,-1509.5 4341.37,-1502.76"/>
</g>
<!-- output_directory -->
<g id="node15" class="node">
<title>output_directory</title>
<polygon fill="#94ddf4" stroke="black" points="5672.5,-2022.4 5672.5,-2058.4 5808.5,-2058.4 5808.5,-2022.4 5672.5,-2022.4"/>
<text text-anchor="middle" x="5740.5" y="-2036.7" font-family="Times,serif" font-size="14.00">output_directory</text>
</g>
<!-- output_directory&#45;&gt;run_dragen_somatic_step -->
<g id="edge19" class="edge">
<title>output_directory&#45;&gt;run_dragen_somatic_step</title>
<path fill="none" stroke="black" d="M5716.31,-2022.27C5701.52,-2012.28 5681.95,-1999.92 5663.5,-1990.9 5176.92,-1753.11 4548.45,-1565.56 4339.51,-1506.17"/>
<polygon fill="black" stroke="black" points="4340.46,-1502.8 4329.88,-1503.44 4338.55,-1509.53 4340.46,-1502.8"/>
</g>
<!-- reference_tar -->
<g id="node16" class="node">
<title>reference_tar</title>
<polygon fill="#94ddf4" stroke="black" points="5541,-2022.4 5541,-2058.4 5654,-2058.4 5654,-2022.4 5541,-2022.4"/>
<text text-anchor="middle" x="5597.5" y="-2036.7" font-family="Times,serif" font-size="14.00">reference_tar</text>
</g>
<!-- reference_tar&#45;&gt;run_dragen_somatic_step -->
<g id="edge20" class="edge">
<title>reference_tar&#45;&gt;run_dragen_somatic_step</title>
<path fill="none" stroke="black" d="M5577.02,-2022.24C5564.43,-2012.24 5547.66,-1999.87 5531.5,-1990.9 5098.82,-1750.64 4527.97,-1565.6 4335.28,-1506.43"/>
<polygon fill="black" stroke="black" points="4336.16,-1503.04 4325.57,-1503.46 4334.11,-1509.73 4336.16,-1503.04"/>
</g>
<!-- sample_sex -->
<g id="node17" class="node">
<title>sample_sex</title>
<polygon fill="#94ddf4" stroke="black" points="5424.5,-2022.4 5424.5,-2058.4 5522.5,-2058.4 5522.5,-2022.4 5424.5,-2022.4"/>
<text text-anchor="middle" x="5473.5" y="-2036.7" font-family="Times,serif" font-size="14.00">sample_sex</text>
</g>
<!-- sample_sex&#45;&gt;run_dragen_somatic_step -->
<g id="edge21" class="edge">
<title>sample_sex&#45;&gt;run_dragen_somatic_step</title>
<path fill="none" stroke="black" d="M5456.07,-2022.23C5445.29,-2012.23 5430.82,-1999.86 5416.5,-1990.9 5030.8,-1749.34 4509.51,-1565.88 4331.26,-1506.71"/>
<polygon fill="black" stroke="black" points="4332.12,-1503.3 4321.52,-1503.48 4329.92,-1509.95 4332.12,-1503.3"/>
</g>
<!-- vc_af_call_threshold -->
<g id="node18" class="node">
<title>vc_af_call_threshold</title>
<polygon fill="#94ddf4" stroke="black" points="5248,-2022.4 5248,-2058.4 5407,-2058.4 5407,-2022.4 5248,-2022.4"/>
<text text-anchor="middle" x="5327.5" y="-2036.7" font-family="Times,serif" font-size="14.00">vc_af_call_threshold</text>
</g>
<!-- vc_af_call_threshold&#45;&gt;run_dragen_somatic_step -->
<g id="edge22" class="edge">
<title>vc_af_call_threshold&#45;&gt;run_dragen_somatic_step</title>
<path fill="none" stroke="black" d="M5297.06,-2022.38C5280.16,-2012.99 5258.72,-2001.19 5239.5,-1990.9 4882.93,-1800.05 4447.9,-1577.73 4311.5,-1508.26"/>
<polygon fill="black" stroke="black" points="4312.7,-1504.95 4302.2,-1503.53 4309.52,-1511.18 4312.7,-1504.95"/>
</g>
<!-- vc_af_filter_threshold -->
<g id="node19" class="node">
<title>vc_af_filter_threshold</title>
<polygon fill="#94ddf4" stroke="black" points="5061,-2022.4 5061,-2058.4 5230,-2058.4 5230,-2022.4 5061,-2022.4"/>
<text text-anchor="middle" x="5145.5" y="-2036.7" font-family="Times,serif" font-size="14.00">vc_af_filter_threshold</text>
</g>
<!-- vc_af_filter_threshold&#45;&gt;run_dragen_somatic_step -->
<g id="edge23" class="edge">
<title>vc_af_filter_threshold&#45;&gt;run_dragen_somatic_step</title>
<path fill="none" stroke="black" d="M5118.29,-2022.24C4990.43,-1941.62 4449.45,-1600.5 4304.41,-1509.04"/>
<polygon fill="black" stroke="black" points="4306.15,-1506 4295.82,-1503.63 4302.42,-1511.92 4306.15,-1506"/>
</g>
<!-- vc_callability_normal_thresh -->
<g id="node20" class="node">
<title>vc_callability_normal_thresh</title>
<polygon fill="#94ddf4" stroke="black" points="4824,-2022.4 4824,-2058.4 5043,-2058.4 5043,-2022.4 4824,-2022.4"/>
<text text-anchor="middle" x="4933.5" y="-2036.7" font-family="Times,serif" font-size="14.00">vc_callability_normal_thresh</text>
</g>
<!-- vc_callability_normal_thresh&#45;&gt;run_dragen_somatic_step -->
<g id="edge24" class="edge">
<title>vc_callability_normal_thresh&#45;&gt;run_dragen_somatic_step</title>
<path fill="none" stroke="black" d="M4912.87,-2022.24C4816.3,-1941.94 4408.97,-1603.21 4297.06,-1510.15"/>
<polygon fill="black" stroke="black" points="4299.15,-1507.33 4289.22,-1503.63 4294.67,-1512.71 4299.15,-1507.33"/>
</g>
<!-- vc_callability_tumor_thresh -->
<g id="node21" class="node">
<title>vc_callability_tumor_thresh</title>
<polygon fill="#94ddf4" stroke="black" points="4593.5,-2022.4 4593.5,-2058.4 4805.5,-2058.4 4805.5,-2022.4 4593.5,-2022.4"/>
<text text-anchor="middle" x="4699.5" y="-2036.7" font-family="Times,serif" font-size="14.00">vc_callability_tumor_thresh</text>
</g>
<!-- vc_callability_tumor_thresh&#45;&gt;run_dragen_somatic_step -->
<g id="edge25" class="edge">
<title>vc_callability_tumor_thresh&#45;&gt;run_dragen_somatic_step</title>
<path fill="none" stroke="black" d="M4686.13,-2022.24C4623.86,-1942.34 4362.18,-1606.6 4288.11,-1511.56"/>
<polygon fill="black" stroke="black" points="4290.84,-1509.36 4281.93,-1503.63 4285.32,-1513.67 4290.84,-1509.36"/>
</g>
<!-- vc_decoy_contigs -->
<g id="node22" class="node">
<title>vc_decoy_contigs</title>
<polygon fill="#94ddf4" stroke="black" points="4436,-2022.4 4436,-2058.4 4575,-2058.4 4575,-2022.4 4436,-2022.4"/>
<text text-anchor="middle" x="4505.5" y="-2036.7" font-family="Times,serif" font-size="14.00">vc_decoy_contigs</text>
</g>
<!-- vc_decoy_contigs&#45;&gt;run_dragen_somatic_step -->
<g id="edge26" class="edge">
<title>vc_decoy_contigs&#45;&gt;run_dragen_somatic_step</title>
<path fill="none" stroke="black" d="M4498.15,-2022.24C4464.08,-1942.74 4321.46,-1609.97 4279.91,-1513.01"/>
<polygon fill="black" stroke="black" points="4283.04,-1511.44 4275.88,-1503.63 4276.61,-1514.2 4283.04,-1511.44"/>
</g>
<!-- vc_enable_af_filter -->
<g id="node23" class="node">
<title>vc_enable_af_filter</title>
<polygon fill="#94ddf4" stroke="black" points="4269.5,-2022.4 4269.5,-2058.4 4417.5,-2058.4 4417.5,-2022.4 4269.5,-2022.4"/>
<text text-anchor="middle" x="4343.5" y="-2036.7" font-family="Times,serif" font-size="14.00">vc_enable_af_filter</text>
</g>
<!-- vc_enable_af_filter&#45;&gt;run_dragen_somatic_step -->
<g id="edge27" class="edge">
<title>vc_enable_af_filter&#45;&gt;run_dragen_somatic_step</title>
<path fill="none" stroke="black" d="M4341.17,-2022.24C4330.41,-1942.9 4285.44,-1611.31 4272.19,-1513.6"/>
<polygon fill="black" stroke="black" points="4275.65,-1513.07 4270.84,-1503.63 4268.71,-1514.01 4275.65,-1513.07"/>
</g>
<!-- vc_enable_baf -->
<g id="node24" class="node">
<title>vc_enable_baf</title>
<polygon fill="#94ddf4" stroke="black" points="4135.5,-2022.4 4135.5,-2058.4 4251.5,-2058.4 4251.5,-2022.4 4135.5,-2022.4"/>
<text text-anchor="middle" x="4193.5" y="-2036.7" font-family="Times,serif" font-size="14.00">vc_enable_baf</text>
</g>
<!-- vc_enable_baf&#45;&gt;run_dragen_somatic_step -->
<g id="edge28" class="edge">
<title>vc_enable_baf&#45;&gt;run_dragen_somatic_step</title>
<path fill="none" stroke="black" d="M4195.83,-2022.24C4206.59,-1942.9 4251.56,-1611.31 4264.81,-1513.6"/>
<polygon fill="black" stroke="black" points="4268.29,-1514.01 4266.16,-1503.63 4261.35,-1513.07 4268.29,-1514.01"/>
</g>
<!-- vc_enable_decoy_contigs -->
<g id="node25" class="node">
<title>vc_enable_decoy_contigs</title>
<polygon fill="#94ddf4" stroke="black" points="3924,-2022.4 3924,-2058.4 4117,-2058.4 4117,-2022.4 3924,-2022.4"/>
<text text-anchor="middle" x="4020.5" y="-2036.7" font-family="Times,serif" font-size="14.00">vc_enable_decoy_contigs</text>
</g>
<!-- vc_enable_decoy_contigs&#45;&gt;run_dragen_somatic_step -->
<g id="edge29" class="edge">
<title>vc_enable_decoy_contigs&#45;&gt;run_dragen_somatic_step</title>
<path fill="none" stroke="black" d="M4028.19,-2022.24C4063.85,-1942.74 4213.08,-1609.97 4256.56,-1513.01"/>
<polygon fill="black" stroke="black" points="4259.87,-1514.18 4260.77,-1503.63 4253.49,-1511.32 4259.87,-1514.18"/>
</g>
<!-- vc_enable_gatk_acceleration -->
<g id="node26" class="node">
<title>vc_enable_gatk_acceleration</title>
<polygon fill="#94ddf4" stroke="black" points="3687.5,-2022.4 3687.5,-2058.4 3905.5,-2058.4 3905.5,-2022.4 3687.5,-2022.4"/>
<text text-anchor="middle" x="3796.5" y="-2036.7" font-family="Times,serif" font-size="14.00">vc_enable_gatk_acceleration</text>
</g>
<!-- vc_enable_gatk_acceleration&#45;&gt;run_dragen_somatic_step -->
<g id="edge30" class="edge">
<title>vc_enable_gatk_acceleration&#45;&gt;run_dragen_somatic_step</title>
<path fill="none" stroke="black" d="M3811.14,-2022.24C3879.41,-1942.26 4166.48,-1605.92 4247.27,-1511.27"/>
<polygon fill="black" stroke="black" points="4249.96,-1513.51 4253.79,-1503.63 4244.64,-1508.96 4249.96,-1513.51"/>
</g>
<!-- vc_enable_liquid_tumor_mode -->
<g id="node27" class="node">
<title>vc_enable_liquid_tumor_mode</title>
<polygon fill="#94ddf4" stroke="black" points="3439.5,-2022.4 3439.5,-2058.4 3669.5,-2058.4 3669.5,-2022.4 3439.5,-2022.4"/>
<text text-anchor="middle" x="3554.5" y="-2036.7" font-family="Times,serif" font-size="14.00">vc_enable_liquid_tumor_mode</text>
</g>
<!-- vc_enable_liquid_tumor_mode&#45;&gt;run_dragen_somatic_step -->
<g id="edge31" class="edge">
<title>vc_enable_liquid_tumor_mode&#45;&gt;run_dragen_somatic_step</title>
<path fill="none" stroke="black" d="M3576.65,-2022.24C3680.44,-1941.86 4118.55,-1602.54 4238.2,-1509.87"/>
<polygon fill="black" stroke="black" points="4240.49,-1512.52 4246.25,-1503.63 4236.21,-1506.98 4240.49,-1512.52"/>
</g>
<!-- vc_enable_non_homref_normal_filter -->
<g id="node28" class="node">
<title>vc_enable_non_homref_normal_filter</title>
<polygon fill="#94ddf4" stroke="black" points="3146,-2022.4 3146,-2058.4 3421,-2058.4 3421,-2022.4 3146,-2022.4"/>
<text text-anchor="middle" x="3283.5" y="-2036.7" font-family="Times,serif" font-size="14.00">vc_enable_non_homref_normal_filter</text>
</g>
<!-- vc_enable_non_homref_normal_filter&#45;&gt;run_dragen_somatic_step -->
<g id="edge32" class="edge">
<title>vc_enable_non_homref_normal_filter&#45;&gt;run_dragen_somatic_step</title>
<path fill="none" stroke="black" d="M3313.79,-2022.39C3457.03,-1941.98 4066.27,-1599.93 4228.62,-1508.79"/>
<polygon fill="black" stroke="black" points="4230.77,-1511.59 4237.78,-1503.65 4227.35,-1505.49 4230.77,-1511.59"/>
</g>
<!-- vc_enable_phasing -->
<g id="node29" class="node">
<title>vc_enable_phasing</title>
<polygon fill="#94ddf4" stroke="black" points="2979,-2022.4 2979,-2058.4 3128,-2058.4 3128,-2022.4 2979,-2022.4"/>
<text text-anchor="middle" x="3053.5" y="-2036.7" font-family="Times,serif" font-size="14.00">vc_enable_phasing</text>
</g>
<!-- vc_enable_phasing&#45;&gt;run_dragen_somatic_step -->
<g id="edge33" class="edge">
<title>vc_enable_phasing&#45;&gt;run_dragen_somatic_step</title>
<path fill="none" stroke="black" d="M3081.48,-2022.27C3097.63,-2012.63 3118.45,-2000.61 3137.5,-1990.9 3544.14,-1783.52 4054.18,-1573.13 4216.44,-1507.35"/>
<polygon fill="black" stroke="black" points="4218.21,-1510.41 4226.17,-1503.41 4215.59,-1503.92 4218.21,-1510.41"/>
</g>
<!-- vc_enable_roh -->
<g id="node30" class="node">
<title>vc_enable_roh</title>
<polygon fill="#94ddf4" stroke="black" points="2844,-2022.4 2844,-2058.4 2961,-2058.4 2961,-2022.4 2844,-2022.4"/>
<text text-anchor="middle" x="2902.5" y="-2036.7" font-family="Times,serif" font-size="14.00">vc_enable_roh</text>
</g>
<!-- vc_enable_roh&#45;&gt;run_dragen_somatic_step -->
<g id="edge34" class="edge">
<title>vc_enable_roh&#45;&gt;run_dragen_somatic_step</title>
<path fill="none" stroke="black" d="M2923.65,-2022.23C2936.64,-2012.22 2953.91,-1999.85 2970.5,-1990.9 3416.63,-1749.99 4002.87,-1565.23 4200.29,-1506.29"/>
<polygon fill="black" stroke="black" points="4201.37,-1509.62 4209.95,-1503.41 4199.37,-1502.91 4201.37,-1509.62"/>
</g>
<!-- vc_enable_triallelic_filter -->
<g id="node31" class="node">
<title>vc_enable_triallelic_filter</title>
<polygon fill="#94ddf4" stroke="black" points="2631.5,-2022.4 2631.5,-2058.4 2825.5,-2058.4 2825.5,-2022.4 2631.5,-2022.4"/>
<text text-anchor="middle" x="2728.5" y="-2036.7" font-family="Times,serif" font-size="14.00">vc_enable_triallelic_filter</text>
</g>
<!-- vc_enable_triallelic_filter&#45;&gt;run_dragen_somatic_step -->
<g id="edge35" class="edge">
<title>vc_enable_triallelic_filter&#45;&gt;run_dragen_somatic_step</title>
<path fill="none" stroke="black" d="M2764.32,-2022.22C2784.94,-2012.57 2811.46,-2000.55 2835.5,-1990.9 3357.12,-1781.32 4003.47,-1571.02 4205.3,-1506.47"/>
<polygon fill="black" stroke="black" points="4206.39,-1509.79 4214.85,-1503.41 4204.26,-1503.12 4206.39,-1509.79"/>
</g>
<!-- vc_enable_vcf_output -->
<g id="node32" class="node">
<title>vc_enable_vcf_output</title>
<polygon fill="#94ddf4" stroke="black" points="2445.5,-2022.4 2445.5,-2058.4 2613.5,-2058.4 2613.5,-2022.4 2445.5,-2022.4"/>
<text text-anchor="middle" x="2529.5" y="-2036.7" font-family="Times,serif" font-size="14.00">vc_enable_vcf_output</text>
</g>
<!-- vc_enable_vcf_output&#45;&gt;run_dragen_somatic_step -->
<g id="edge36" class="edge">
<title>vc_enable_vcf_output&#45;&gt;run_dragen_somatic_step</title>
<path fill="none" stroke="black" d="M2558.99,-2022.24C2576.96,-2012.24 2600.6,-1999.88 2622.5,-1990.9 3204.86,-1752.16 3942.89,-1564.82 4186.44,-1505.86"/>
<polygon fill="black" stroke="black" points="4187.39,-1509.23 4196.28,-1503.48 4185.74,-1502.43 4187.39,-1509.23"/>
</g>
<!-- vc_hotspot_log10_prior_boost -->
<g id="node33" class="node">
<title>vc_hotspot_log10_prior_boost</title>
<polygon fill="#94ddf4" stroke="black" points="2200,-2022.4 2200,-2058.4 2427,-2058.4 2427,-2022.4 2200,-2022.4"/>
<text text-anchor="middle" x="2313.5" y="-2036.7" font-family="Times,serif" font-size="14.00">vc_hotspot_log10_prior_boost</text>
</g>
<!-- vc_hotspot_log10_prior_boost&#45;&gt;run_dragen_somatic_step -->
<g id="edge37" class="edge">
<title>vc_hotspot_log10_prior_boost&#45;&gt;run_dragen_somatic_step</title>
<path fill="none" stroke="black" d="M2353.54,-2022.35C2377.4,-2012.52 2408.41,-2000.27 2436.5,-1990.9 3101.9,-1768.8 3925.88,-1567.59 4185.9,-1505.8"/>
<polygon fill="black" stroke="black" points="4186.73,-1509.2 4195.65,-1503.48 4185.12,-1502.39 4186.73,-1509.2"/>
</g>
<!-- vc_max_reads_per_active_region -->
<g id="node34" class="node">
<title>vc_max_reads_per_active_region</title>
<polygon fill="#94ddf4" stroke="black" points="1933.5,-2022.4 1933.5,-2058.4 2181.5,-2058.4 2181.5,-2022.4 1933.5,-2022.4"/>
<text text-anchor="middle" x="2057.5" y="-2036.7" font-family="Times,serif" font-size="14.00">vc_max_reads_per_active_region</text>
</g>
<!-- vc_max_reads_per_active_region&#45;&gt;run_dragen_somatic_step -->
<g id="edge38" class="edge">
<title>vc_max_reads_per_active_region&#45;&gt;run_dragen_somatic_step</title>
<path fill="none" stroke="black" d="M2100.85,-2022.35C2126.89,-2012.45 2160.82,-2000.14 2191.5,-1990.9 2946.34,-1763.36 3878.85,-1566.01 4174.21,-1505.47"/>
<polygon fill="black" stroke="black" points="4174.93,-1508.89 4184.02,-1503.46 4173.52,-1502.03 4174.93,-1508.89"/>
</g>
<!-- vc_max_reads_per_raw_region -->
<g id="node35" class="node">
<title>vc_max_reads_per_raw_region</title>
<polygon fill="#94ddf4" stroke="black" points="1682,-2022.4 1682,-2058.4 1915,-2058.4 1915,-2022.4 1682,-2022.4"/>
<text text-anchor="middle" x="1798.5" y="-2036.7" font-family="Times,serif" font-size="14.00">vc_max_reads_per_raw_region</text>
</g>
<!-- vc_max_reads_per_raw_region&#45;&gt;run_dragen_somatic_step -->
<g id="edge39" class="edge">
<title>vc_max_reads_per_raw_region&#45;&gt;run_dragen_somatic_step</title>
<path fill="none" stroke="black" d="M1837.96,-2022.39C1862.52,-2012.26 1894.96,-1999.7 1924.5,-1990.9 2775.1,-1737.33 3834.91,-1556.16 4165.3,-1502.71"/>
<polygon fill="black" stroke="black" points="4166.02,-1506.14 4175.33,-1501.09 4164.9,-1499.22 4166.02,-1506.14"/>
</g>
<!-- vc_min_tumor_read_qual -->
<g id="node36" class="node">
<title>vc_min_tumor_read_qual</title>
<polygon fill="#94ddf4" stroke="black" points="1471,-2022.4 1471,-2058.4 1664,-2058.4 1664,-2022.4 1471,-2022.4"/>
<text text-anchor="middle" x="1567.5" y="-2036.7" font-family="Times,serif" font-size="14.00">vc_min_tumor_read_qual</text>
</g>
<!-- vc_min_tumor_read_qual&#45;&gt;run_dragen_somatic_step -->
<g id="edge40" class="edge">
<title>vc_min_tumor_read_qual&#45;&gt;run_dragen_somatic_step</title>
<path fill="none" stroke="black" d="M1599.65,-2022.26C1620.26,-2011.89 1647.87,-1999.12 1673.5,-1990.9 2615.74,-1688.49 3811.62,-1537.6 4165.48,-1497.52"/>
<polygon fill="black" stroke="black" points="4165.91,-1501 4175.45,-1496.4 4165.12,-1494.04 4165.91,-1501"/>
</g>
<!-- vc_remove_all_soft_clips -->
<g id="node37" class="node">
<title>vc_remove_all_soft_clips</title>
<polygon fill="#94ddf4" stroke="black" points="1262.5,-2022.4 1262.5,-2058.4 1452.5,-2058.4 1452.5,-2022.4 1262.5,-2022.4"/>
<text text-anchor="middle" x="1357.5" y="-2036.7" font-family="Times,serif" font-size="14.00">vc_remove_all_soft_clips</text>
</g>
<!-- vc_remove_all_soft_clips&#45;&gt;run_dragen_somatic_step -->
<g id="edge41" class="edge">
<title>vc_remove_all_soft_clips&#45;&gt;run_dragen_somatic_step</title>
<path fill="none" stroke="black" d="M1388.83,-2022.36C1409.27,-2011.89 1436.84,-1998.99 1462.5,-1990.9 2487.63,-1667.82 3792.64,-1529.84 4165.09,-1495.4"/>
<polygon fill="black" stroke="black" points="4165.67,-1498.87 4175.31,-1494.46 4165.03,-1491.9 4165.67,-1498.87"/>
</g>
<!-- vc_roh_blacklist_bed -->
<g id="node38" class="node">
<title>vc_roh_blacklist_bed</title>
<polygon fill="#94ddf4" stroke="black" points="1081,-2022.4 1081,-2058.4 1244,-2058.4 1244,-2022.4 1081,-2022.4"/>
<text text-anchor="middle" x="1162.5" y="-2036.7" font-family="Times,serif" font-size="14.00">vc_roh_blacklist_bed</text>
</g>
<!-- vc_roh_blacklist_bed&#45;&gt;run_dragen_somatic_step -->
<g id="edge42" class="edge">
<title>vc_roh_blacklist_bed&#45;&gt;run_dragen_somatic_step</title>
<path fill="none" stroke="black" d="M1188.94,-2022.35C1206.56,-2011.74 1230.62,-1998.68 1253.5,-1990.9 2352.33,-1617.3 3773.96,-1513.84 4165.04,-1491.62"/>
<polygon fill="black" stroke="black" points="4165.42,-1495.1 4175.2,-1491.04 4165.02,-1488.11 4165.42,-1495.1"/>
</g>
<!-- vc_somatic_hotspots -->
<g id="node39" class="node">
<title>vc_somatic_hotspots</title>
<polygon fill="#94ddf4" stroke="black" points="900,-2022.4 900,-2058.4 1063,-2058.4 1063,-2022.4 900,-2022.4"/>
<text text-anchor="middle" x="981.5" y="-2036.7" font-family="Times,serif" font-size="14.00">vc_somatic_hotspots</text>
</g>
<!-- vc_somatic_hotspots&#45;&gt;run_dragen_somatic_step -->
<g id="edge43" class="edge">
<title>vc_somatic_hotspots&#45;&gt;run_dragen_somatic_step</title>
<path fill="none" stroke="black" d="M1007.91,-2022.28C1025.53,-2011.64 1049.58,-1998.57 1072.5,-1990.9 2243.26,-1598.87 3759.56,-1508.12 4165.05,-1490.29"/>
<polygon fill="black" stroke="black" points="4165.45,-1493.78 4175.29,-1489.85 4165.14,-1486.79 4165.45,-1493.78"/>
</g>
<!-- vc_sq_call_threshold -->
<g id="node40" class="node">
<title>vc_sq_call_threshold</title>
<polygon fill="#94ddf4" stroke="black" points="719.5,-2022.4 719.5,-2058.4 881.5,-2058.4 881.5,-2022.4 719.5,-2022.4"/>
<text text-anchor="middle" x="800.5" y="-2036.7" font-family="Times,serif" font-size="14.00">vc_sq_call_threshold</text>
</g>
<!-- vc_sq_call_threshold&#45;&gt;run_dragen_somatic_step -->
<g id="edge44" class="edge">
<title>vc_sq_call_threshold&#45;&gt;run_dragen_somatic_step</title>
<path fill="none" stroke="black" d="M826.89,-2022.21C844.5,-2011.55 868.55,-1998.48 891.5,-1990.9 2134.23,-1580.47 3745.12,-1502.73 4164.88,-1489.11"/>
<polygon fill="black" stroke="black" points="4165.29,-1492.6 4175.17,-1488.78 4165.06,-1485.6 4165.29,-1492.6"/>
</g>
<!-- vc_sq_filter_threshold -->
<g id="node41" class="node">
<title>vc_sq_filter_threshold</title>
<polygon fill="#94ddf4" stroke="black" points="529.5,-2022.4 529.5,-2058.4 701.5,-2058.4 701.5,-2022.4 529.5,-2022.4"/>
<text text-anchor="middle" x="615.5" y="-2036.7" font-family="Times,serif" font-size="14.00">vc_sq_filter_threshold</text>
</g>
<!-- vc_sq_filter_threshold&#45;&gt;run_dragen_somatic_step -->
<g id="edge45" class="edge">
<title>vc_sq_filter_threshold&#45;&gt;run_dragen_somatic_step</title>
<path fill="none" stroke="black" d="M643.13,-2022.19C661.55,-2011.51 686.67,-1998.44 710.5,-1990.9 2029.22,-1573.64 3732.31,-1500.72 4165.01,-1488.67"/>
<polygon fill="black" stroke="black" points="4165.41,-1492.16 4175.31,-1488.39 4165.21,-1485.16 4165.41,-1492.16"/>
</g>
<!-- vc_target_bed -->
<g id="node42" class="node">
<title>vc_target_bed</title>
<polygon fill="#94ddf4" stroke="black" points="395.5,-2022.4 395.5,-2058.4 511.5,-2058.4 511.5,-2022.4 395.5,-2022.4"/>
<text text-anchor="middle" x="453.5" y="-2036.7" font-family="Times,serif" font-size="14.00">vc_target_bed</text>
</g>
<!-- vc_target_bed&#45;&gt;run_dragen_somatic_step -->
<g id="edge46" class="edge">
<title>vc_target_bed&#45;&gt;run_dragen_somatic_step</title>
<path fill="none" stroke="black" d="M471.91,-2022.2C484.59,-2011.38 502.37,-1998.15 520.5,-1990.9 1213.79,-1713.84 3633.33,-1530.88 4164.77,-1493.49"/>
<polygon fill="black" stroke="black" points="4165.37,-1496.96 4175.1,-1492.77 4164.88,-1489.98 4165.37,-1496.96"/>
</g>
<!-- vc_target_bed_padding -->
<g id="node43" class="node">
<title>vc_target_bed_padding</title>
<polygon fill="#94ddf4" stroke="black" points="7225,-2022.4 7225,-2058.4 7406,-2058.4 7406,-2022.4 7225,-2022.4"/>
<text text-anchor="middle" x="7315.5" y="-2036.7" font-family="Times,serif" font-size="14.00">vc_target_bed_padding</text>
</g>
<!-- vc_target_bed_padding&#45;&gt;run_dragen_somatic_step -->
<g id="edge47" class="edge">
<title>vc_target_bed_padding&#45;&gt;run_dragen_somatic_step</title>
<path fill="none" stroke="black" d="M7286.11,-2022.22C7266.89,-2011.7 7240.9,-1998.78 7216.5,-1990.9 6138.12,-1642.47 4755.76,-1521.46 4371.55,-1493.34"/>
<polygon fill="black" stroke="black" points="4371.79,-1489.85 4361.56,-1492.62 4371.28,-1496.83 4371.79,-1489.85"/>
</g>
<!-- vc_target_coverage -->
<g id="node44" class="node">
<title>vc_target_coverage</title>
<polygon fill="#94ddf4" stroke="black" points="7052,-2022.4 7052,-2058.4 7207,-2058.4 7207,-2022.4 7052,-2022.4"/>
<text text-anchor="middle" x="7129.5" y="-2036.7" font-family="Times,serif" font-size="14.00">vc_target_coverage</text>
</g>
<!-- vc_target_coverage&#45;&gt;run_dragen_somatic_step -->
<g id="edge48" class="edge">
<title>vc_target_coverage&#45;&gt;run_dragen_somatic_step</title>
<path fill="none" stroke="black" d="M7104.24,-2022.17C7087.65,-2011.62 7065.1,-1998.7 7043.5,-1990.9 6043.42,-1629.62 4743.26,-1518.25 4371.71,-1492.77"/>
<polygon fill="black" stroke="black" points="4371.74,-1489.26 4361.52,-1492.07 4371.26,-1496.24 4371.74,-1489.26"/>
</g>
<!-- vc_tin_contam_tolerance -->
<g id="node45" class="node">
<title>vc_tin_contam_tolerance</title>
<polygon fill="#94ddf4" stroke="black" points="6843,-2022.4 6843,-2058.4 7034,-2058.4 7034,-2022.4 6843,-2022.4"/>
<text text-anchor="middle" x="6938.5" y="-2036.7" font-family="Times,serif" font-size="14.00">vc_tin_contam_tolerance</text>
</g>
<!-- vc_tin_contam_tolerance&#45;&gt;run_dragen_somatic_step -->
<g id="edge49" class="edge">
<title>vc_tin_contam_tolerance&#45;&gt;run_dragen_somatic_step</title>
<path fill="none" stroke="black" d="M6906.99,-2022.26C6886.78,-2011.88 6859.69,-1999.11 6834.5,-1990.9 5905.12,-1687.8 4723.9,-1537.67 4371.91,-1497.61"/>
<polygon fill="black" stroke="black" points="4372.07,-1494.1 4361.74,-1496.46 4371.29,-1501.06 4372.07,-1494.1"/>
</g>
</g>
</svg>
