<?xml version="1.0" encoding="UTF-8" standalone="no"?>
<!DOCTYPE svg PUBLIC "-//W3C//DTD SVG 1.1//EN"
 "http://www.w3.org/Graphics/SVG/1.1/DTD/svg11.dtd">
<!-- Generated by graphviz version 2.43.0 (0)
 -->
<!-- Title: G Pages: 1 -->
<svg width="8494pt" height="2095pt"
 viewBox="0.00 0.00 8493.50 2095.31" xmlns="http://www.w3.org/2000/svg" xmlns:xlink="http://www.w3.org/1999/xlink">
<g id="graph0" class="graph" transform="scale(1 1) rotate(0) translate(4 2091.31)">
<title>G</title>
<polygon fill="#eeeeee" stroke="transparent" points="-4,4 -4,-2091.31 8489.5,-2091.31 8489.5,4 -4,4"/>
<g id="clust1" class="cluster">
<title>cluster_inputs</title>
<polygon fill="#eeeeee" stroke="black" stroke-dasharray="5,2" points="229.5,-1528.92 229.5,-2034.13 8477.5,-2034.13 8477.5,-1528.92 229.5,-1528.92"/>
<text text-anchor="middle" x="8411" y="-1536.72" font-family="Times,serif" font-size="14.00">Workflow Inputs</text>
</g>
<g id="clust2" class="cluster">
<title>cluster_outputs</title>
<polygon fill="#eeeeee" stroke="black" stroke-dasharray="5,2" points="3653.5,-53.18 3653.5,-558.39 4309.5,-558.39 4309.5,-53.18 3653.5,-53.18"/>
<text text-anchor="middle" x="4237" y="-60.98" font-family="Times,serif" font-size="14.00">Workflow Outputs</text>
</g>
<!-- run_dragen_alignment_step -->
<g id="node1" class="node">
<title>run_dragen_alignment_step</title>
<polygon fill="lightgoldenrodyellow" stroke="black" points="4133,-1335.18 4133,-1371.18 4336,-1371.18 4336,-1335.18 4133,-1335.18"/>
<text text-anchor="middle" x="4234.5" y="-1349.48" font-family="Times,serif" font-size="14.00">dragen&#45;alignment v(4.2.4)</text>
</g>
<!-- dragen_qc_step -->
<g id="node2" class="node">
<title>dragen_qc_step</title>
<polygon fill="lightgoldenrodyellow" stroke="black" points="238,-849.18 238,-885.18 377,-885.18 377,-849.18 238,-849.18"/>
<text text-anchor="middle" x="307.5" y="-863.48" font-family="Times,serif" font-size="14.00">multiqc v(1.15.0)</text>
</g>
<!-- run_dragen_alignment_step&#45;&gt;dragen_qc_step -->
<g id="edge1" class="edge">
<title>run_dragen_alignment_step&#45;&gt;dragen_qc_step</title>
<path fill="none" stroke="black" d="M4132.98,-1339.67C3574.76,-1270.87 885.85,-939.46 387.17,-878"/>
<polygon fill="black" stroke="black" points="387.53,-874.52 377.18,-876.77 386.68,-881.47 387.53,-874.52"/>
</g>
<!-- dragen_alignment_output_directory -->
<g id="node62" class="node">
<title>dragen_alignment_output_directory</title>
<polygon fill="#94ddf4" stroke="black" points="3877.5,-364.18 3877.5,-400.18 4149.5,-400.18 4149.5,-364.18 3877.5,-364.18"/>
<text text-anchor="middle" x="4013.5" y="-378.48" font-family="Times,serif" font-size="14.00">dragen_alignment_output_directory</text>
</g>
<!-- run_dragen_alignment_step&#45;&gt;dragen_alignment_output_directory -->
<g id="edge64" class="edge">
<title>run_dragen_alignment_step&#45;&gt;dragen_alignment_output_directory</title>
<path fill="none" stroke="black" d="M4230.57,-1334.95C4204.16,-1219.13 4052.53,-554.32 4019.75,-410.58"/>
<polygon fill="black" stroke="black" points="4023.07,-409.4 4017.43,-400.43 4016.24,-410.95 4023.07,-409.4"/>
</g>
<!-- dragen_bam_out -->
<g id="node63" class="node">
<title>dragen_bam_out</title>
<polygon fill="#94ddf4" stroke="black" points="4167.5,-364.18 4167.5,-400.18 4301.5,-400.18 4301.5,-364.18 4167.5,-364.18"/>
<text text-anchor="middle" x="4234.5" y="-378.48" font-family="Times,serif" font-size="14.00">dragen_bam_out</text>
</g>
<!-- run_dragen_alignment_step&#45;&gt;dragen_bam_out -->
<g id="edge65" class="edge">
<title>run_dragen_alignment_step&#45;&gt;dragen_bam_out</title>
<path fill="none" stroke="black" d="M4234.5,-1334.95C4234.5,-1219.13 4234.5,-554.32 4234.5,-410.58"/>
<polygon fill="black" stroke="black" points="4238,-410.43 4234.5,-400.43 4231,-410.43 4238,-410.43"/>
</g>
<!-- multiqc_output_directory -->
<g id="node64" class="node">
<title>multiqc_output_directory</title>
<polygon fill="#94ddf4" stroke="black" points="3662,-364.18 3662,-400.18 3859,-400.18 3859,-364.18 3662,-364.18"/>
<text text-anchor="middle" x="3760.5" y="-378.48" font-family="Times,serif" font-size="14.00">multiqc_output_directory</text>
</g>
<!-- dragen_qc_step&#45;&gt;multiqc_output_directory -->
<g id="edge66" class="edge">
<title>dragen_qc_step&#45;&gt;multiqc_output_directory</title>
<path fill="none" stroke="black" d="M377.26,-856.42C809.51,-795.96 3121.4,-472.58 3651.94,-398.37"/>
<polygon fill="black" stroke="black" points="3652.47,-401.83 3661.89,-396.97 3651.5,-394.89 3652.47,-401.83"/>
</g>
<!-- create_dummy_file_step -->
<g id="node3" class="node">
<title>create_dummy_file_step</title>
<polygon fill="lightgoldenrodyellow" stroke="black" points="0,-1335.18 0,-1371.18 261,-1371.18 261,-1335.18 0,-1335.18"/>
<text text-anchor="middle" x="130.5" y="-1349.48" font-family="Times,serif" font-size="14.00">custom&#45;create&#45;dummy&#45;file v(1.0.0)</text>
</g>
<!-- create_dummy_file_step&#45;&gt;dragen_qc_step -->
<g id="edge2" class="edge">
<title>create_dummy_file_step&#45;&gt;dragen_qc_step</title>
<path fill="none" stroke="black" d="M136.8,-1334.95C163.28,-1262.55 265.67,-982.56 297.8,-894.71"/>
<polygon fill="black" stroke="black" points="301.13,-895.79 301.28,-885.2 294.55,-893.39 301.13,-895.79"/>
</g>
<!-- output_file_prefix -->
<g id="node4" class="node">
<title>output_file_prefix</title>
<polygon fill="#94ddf4" stroke="black" points="237.5,-1840.18 237.5,-1876.18 377.5,-1876.18 377.5,-1840.18 237.5,-1840.18"/>
<text text-anchor="middle" x="307.5" y="-1854.48" font-family="Times,serif" font-size="14.00">output_file_prefix</text>
</g>
<!-- output_file_prefix&#45;&gt;run_dragen_alignment_step -->
<g id="edge6" class="edge">
<title>output_file_prefix&#45;&gt;run_dragen_alignment_step</title>
<path fill="none" stroke="black" d="M329.65,-1840.18C345.03,-1829.3 366.46,-1815.92 387.5,-1808.68 1108.26,-1560.75 3568.66,-1395.55 4122.97,-1360.95"/>
<polygon fill="black" stroke="black" points="4123.2,-1364.44 4132.96,-1360.32 4122.76,-1357.45 4123.2,-1364.44"/>
</g>
<!-- output_file_prefix&#45;&gt;dragen_qc_step -->
<g id="edge3" class="edge">
<title>output_file_prefix&#45;&gt;dragen_qc_step</title>
<path fill="none" stroke="black" d="M303.61,-1840.01C291.12,-1722.89 290.8,-1041.75 302.65,-895.73"/>
<polygon fill="black" stroke="black" points="306.17,-895.71 303.6,-885.43 299.2,-895.07 306.17,-895.71"/>
</g>
<!-- output_file_prefix&#45;&gt;dragen_qc_step -->
<g id="edge4" class="edge">
<title>output_file_prefix&#45;&gt;dragen_qc_step</title>
<path fill="none" stroke="black" d="M307.5,-1840.01C307.5,-1722.89 307.5,-1041.75 307.5,-895.73"/>
<polygon fill="black" stroke="black" points="311,-895.43 307.5,-885.43 304,-895.43 311,-895.43"/>
</g>
<!-- output_file_prefix&#45;&gt;dragen_qc_step -->
<g id="edge5" class="edge">
<title>output_file_prefix&#45;&gt;dragen_qc_step</title>
<path fill="none" stroke="black" d="M311.39,-1840.01C323.88,-1722.89 324.2,-1041.75 312.35,-895.73"/>
<polygon fill="black" stroke="black" points="315.8,-895.07 311.4,-885.43 308.83,-895.71 315.8,-895.07"/>
</g>
<!-- aln_min_score -->
<g id="node5" class="node">
<title>aln_min_score</title>
<polygon fill="#94ddf4" stroke="black" points="8261,-1840.18 8261,-1876.18 8378,-1876.18 8378,-1840.18 8261,-1840.18"/>
<text text-anchor="middle" x="8319.5" y="-1854.48" font-family="Times,serif" font-size="14.00">aln_min_score</text>
</g>
<!-- aln_min_score&#45;&gt;run_dragen_alignment_step -->
<g id="edge7" class="edge">
<title>aln_min_score&#45;&gt;run_dragen_alignment_step</title>
<path fill="none" stroke="black" d="M8301.1,-1840.09C8288.22,-1829.18 8270.05,-1815.79 8251.5,-1808.68 7506.74,-1523.14 4917.89,-1386.36 4346.62,-1359.27"/>
<polygon fill="black" stroke="black" points="4346.48,-1355.76 4336.33,-1358.79 4346.15,-1362.75 4346.48,-1355.76"/>
</g>
<!-- alt_aware -->
<g id="node6" class="node">
<title>alt_aware</title>
<polygon fill="#94ddf4" stroke="black" points="8156.5,-1840.18 8156.5,-1876.18 8242.5,-1876.18 8242.5,-1840.18 8156.5,-1840.18"/>
<text text-anchor="middle" x="8199.5" y="-1854.48" font-family="Times,serif" font-size="14.00">alt_aware</text>
</g>
<!-- alt_aware&#45;&gt;run_dragen_alignment_step -->
<g id="edge8" class="edge">
<title>alt_aware&#45;&gt;run_dragen_alignment_step</title>
<path fill="none" stroke="black" d="M8185.98,-1839.85C8176.46,-1828.97 8162.74,-1815.73 8147.5,-1808.68 7442.8,-1482.84 4910.23,-1377.47 4346.32,-1357.8"/>
<polygon fill="black" stroke="black" points="4346.27,-1354.3 4336.15,-1357.45 4346.03,-1361.29 4346.27,-1354.3"/>
</g>
<!-- ann_sj_max_indel -->
<g id="node7" class="node">
<title>ann_sj_max_indel</title>
<polygon fill="#94ddf4" stroke="black" points="7998.5,-1840.18 7998.5,-1876.18 8138.5,-1876.18 8138.5,-1840.18 7998.5,-1840.18"/>
<text text-anchor="middle" x="8068.5" y="-1854.48" font-family="Times,serif" font-size="14.00">ann_sj_max_indel</text>
</g>
<!-- ann_sj_max_indel&#45;&gt;run_dragen_alignment_step -->
<g id="edge9" class="edge">
<title>ann_sj_max_indel&#45;&gt;run_dragen_alignment_step</title>
<path fill="none" stroke="black" d="M8046.32,-1839.95C8031.17,-1829.12 8010.17,-1815.89 7989.5,-1808.68 7288.09,-1564.09 4893.67,-1396.84 4346.49,-1361.26"/>
<polygon fill="black" stroke="black" points="4346.43,-1357.75 4336.23,-1360.6 4345.98,-1364.74 4346.43,-1357.75"/>
</g>
<!-- annotation_file -->
<g id="node8" class="node">
<title>annotation_file</title>
<polygon fill="#94ddf4" stroke="black" points="7858.5,-1840.18 7858.5,-1876.18 7980.5,-1876.18 7980.5,-1840.18 7858.5,-1840.18"/>
<text text-anchor="middle" x="7919.5" y="-1854.48" font-family="Times,serif" font-size="14.00">annotation_file</text>
</g>
<!-- annotation_file&#45;&gt;run_dragen_alignment_step -->
<g id="edge10" class="edge">
<title>annotation_file&#45;&gt;run_dragen_alignment_step</title>
<path fill="none" stroke="black" d="M7900.45,-1840.18C7887.13,-1829.3 7868.42,-1815.92 7849.5,-1808.68 7182.69,-1553.5 4880.86,-1394.94 4346.1,-1361.03"/>
<polygon fill="black" stroke="black" points="4346.27,-1357.53 4336.07,-1360.4 4345.83,-1364.52 4346.27,-1357.53"/>
</g>
<!-- dedup_min_qual -->
<g id="node9" class="node">
<title>dedup_min_qual</title>
<polygon fill="#94ddf4" stroke="black" points="7708.5,-1840.18 7708.5,-1876.18 7840.5,-1876.18 7840.5,-1840.18 7708.5,-1840.18"/>
<text text-anchor="middle" x="7774.5" y="-1854.48" font-family="Times,serif" font-size="14.00">dedup_min_qual</text>
</g>
<!-- dedup_min_qual&#45;&gt;run_dragen_alignment_step -->
<g id="edge11" class="edge">
<title>dedup_min_qual&#45;&gt;run_dragen_alignment_step</title>
<path fill="none" stroke="black" d="M7753.56,-1840C7739.22,-1829.19 7719.29,-1815.96 7699.5,-1808.68 7058.83,-1573.2 4867.58,-1400.55 4346.39,-1362.2"/>
<polygon fill="black" stroke="black" points="4346.47,-1358.69 4336.24,-1361.45 4345.96,-1365.67 4346.47,-1358.69"/>
</g>
<!-- edit_chain_limit -->
<g id="node10" class="node">
<title>edit_chain_limit</title>
<polygon fill="#94ddf4" stroke="black" points="7561,-1840.18 7561,-1876.18 7690,-1876.18 7690,-1840.18 7561,-1840.18"/>
<text text-anchor="middle" x="7625.5" y="-1854.48" font-family="Times,serif" font-size="14.00">edit_chain_limit</text>
</g>
<!-- edit_chain_limit&#45;&gt;run_dragen_alignment_step -->
<g id="edge12" class="edge">
<title>edit_chain_limit&#45;&gt;run_dragen_alignment_step</title>
<path fill="none" stroke="black" d="M7604.86,-1840.03C7590.73,-1829.23 7571.06,-1816 7551.5,-1808.68 6941.08,-1580.19 4854.5,-1403.23 4346.61,-1362.87"/>
<polygon fill="black" stroke="black" points="4346.6,-1359.35 4336.35,-1362.05 4346.04,-1366.33 4346.6,-1359.35"/>
</g>
<!-- edit_mode -->
<g id="node11" class="node">
<title>edit_mode</title>
<polygon fill="#94ddf4" stroke="black" points="7452.5,-1840.18 7452.5,-1876.18 7542.5,-1876.18 7542.5,-1840.18 7452.5,-1840.18"/>
<text text-anchor="middle" x="7497.5" y="-1854.48" font-family="Times,serif" font-size="14.00">edit_mode</text>
</g>
<!-- edit_mode&#45;&gt;run_dragen_alignment_step -->
<g id="edge13" class="edge">
<title>edit_mode&#45;&gt;run_dragen_alignment_step</title>
<path fill="none" stroke="black" d="M7483.27,-1839.97C7473.3,-1829.16 7459.03,-1815.92 7443.5,-1808.68 6872.59,-1542.52 4845.69,-1394.27 4346.3,-1361.27"/>
<polygon fill="black" stroke="black" points="4346.42,-1357.77 4336.21,-1360.61 4345.96,-1364.76 4346.42,-1357.77"/>
</g>
<!-- edit_read_len -->
<g id="node12" class="node">
<title>edit_read_len</title>
<polygon fill="#94ddf4" stroke="black" points="7322.5,-1840.18 7322.5,-1876.18 7434.5,-1876.18 7434.5,-1840.18 7322.5,-1840.18"/>
<text text-anchor="middle" x="7378.5" y="-1854.48" font-family="Times,serif" font-size="14.00">edit_read_len</text>
</g>
<!-- edit_read_len&#45;&gt;run_dragen_alignment_step -->
<g id="edge14" class="edge">
<title>edit_read_len&#45;&gt;run_dragen_alignment_step</title>
<path fill="none" stroke="black" d="M7360.7,-1840.04C7348.42,-1829.26 7331.18,-1816.03 7313.5,-1808.68 6756.89,-1577.41 4832.04,-1404.05 4346.43,-1363.31"/>
<polygon fill="black" stroke="black" points="4346.52,-1359.81 4336.26,-1362.46 4345.94,-1366.78 4346.52,-1359.81"/>
</g>
<!-- edit_seed_num -->
<g id="node13" class="node">
<title>edit_seed_num</title>
<polygon fill="#94ddf4" stroke="black" points="7182.5,-1840.18 7182.5,-1876.18 7304.5,-1876.18 7304.5,-1840.18 7182.5,-1840.18"/>
<text text-anchor="middle" x="7243.5" y="-1854.48" font-family="Times,serif" font-size="14.00">edit_seed_num</text>
</g>
<!-- edit_seed_num&#45;&gt;run_dragen_alignment_step -->
<g id="edge15" class="edge">
<title>edit_seed_num&#45;&gt;run_dragen_alignment_step</title>
<path fill="none" stroke="black" d="M7224.09,-1840.11C7210.76,-1829.35 7192.18,-1816.13 7173.5,-1808.68 6133.17,-1393.55 4745.44,-1355.62 4346.21,-1353.7"/>
<polygon fill="black" stroke="black" points="4346.12,-1350.2 4336.11,-1353.66 4346.09,-1357.2 4346.12,-1350.2"/>
</g>
<!-- en_alt_hap_aln -->
<g id="node14" class="node">
<title>en_alt_hap_aln</title>
<polygon fill="#94ddf4" stroke="black" points="7043,-1840.18 7043,-1876.18 7164,-1876.18 7164,-1840.18 7043,-1840.18"/>
<text text-anchor="middle" x="7103.5" y="-1854.48" font-family="Times,serif" font-size="14.00">en_alt_hap_aln</text>
</g>
<!-- en_alt_hap_aln&#45;&gt;run_dragen_alignment_step -->
<g id="edge16" class="edge">
<title>en_alt_hap_aln&#45;&gt;run_dragen_alignment_step</title>
<path fill="none" stroke="black" d="M7084.39,-1840.15C7071.26,-1829.41 7052.94,-1816.19 7034.5,-1808.68 6049.52,-1407.49 4733.77,-1359.74 4346.28,-1354.61"/>
<polygon fill="black" stroke="black" points="4346.23,-1351.11 4336.19,-1354.49 4346.14,-1358.11 4346.23,-1351.11"/>
</g>
<!-- en_chimeric_aln -->
<g id="node15" class="node">
<title>en_chimeric_aln</title>
<polygon fill="#94ddf4" stroke="black" points="6894,-1840.18 6894,-1876.18 7025,-1876.18 7025,-1840.18 6894,-1840.18"/>
<text text-anchor="middle" x="6959.5" y="-1854.48" font-family="Times,serif" font-size="14.00">en_chimeric_aln</text>
</g>
<!-- en_chimeric_aln&#45;&gt;run_dragen_alignment_step -->
<g id="edge17" class="edge">
<title>en_chimeric_aln&#45;&gt;run_dragen_alignment_step</title>
<path fill="none" stroke="black" d="M6938.46,-1840.01C6924.32,-1829.35 6904.8,-1816.27 6885.5,-1808.68 5952.7,-1441.53 4720.12,-1370.54 4346.51,-1357.18"/>
<polygon fill="black" stroke="black" points="4346.35,-1353.68 4336.24,-1356.82 4346.11,-1360.67 4346.35,-1353.68"/>
</g>
<!-- enable_duplicate_marking -->
<g id="node16" class="node">
<title>enable_duplicate_marking</title>
<polygon fill="#94ddf4" stroke="black" points="6673,-1840.18 6673,-1876.18 6876,-1876.18 6876,-1840.18 6673,-1840.18"/>
<text text-anchor="middle" x="6774.5" y="-1854.48" font-family="Times,serif" font-size="14.00">enable_duplicate_marking</text>
</g>
<!-- enable_duplicate_marking&#45;&gt;run_dragen_alignment_step -->
<g id="edge18" class="edge">
<title>enable_duplicate_marking&#45;&gt;run_dragen_alignment_step</title>
<path fill="none" stroke="black" d="M6741.09,-1840.03C6719.67,-1829.66 6691.02,-1816.89 6664.5,-1808.68 5793.62,-1539.2 4695.04,-1404.02 4346.14,-1365.79"/>
<polygon fill="black" stroke="black" points="4346.36,-1362.29 4336.04,-1364.68 4345.6,-1369.25 4346.36,-1362.29"/>
</g>
<!-- enable_map_align -->
<g id="node17" class="node">
<title>enable_map_align</title>
<polygon fill="#94ddf4" stroke="black" points="6512,-1840.18 6512,-1876.18 6655,-1876.18 6655,-1840.18 6512,-1840.18"/>
<text text-anchor="middle" x="6583.5" y="-1854.48" font-family="Times,serif" font-size="14.00">enable_map_align</text>
</g>
<!-- enable_map_align&#45;&gt;run_dragen_alignment_step -->
<g id="edge19" class="edge">
<title>enable_map_align&#45;&gt;run_dragen_alignment_step</title>
<path fill="none" stroke="black" d="M6560.13,-1840.01C6544.75,-1829.5 6523.78,-1816.58 6503.5,-1808.68 5713.12,-1500.9 4683.16,-1391.65 4346.36,-1362.81"/>
<polygon fill="black" stroke="black" points="4346.38,-1359.3 4336.12,-1361.94 4345.78,-1366.27 4346.38,-1359.3"/>
</g>
<!-- enable_map_align_output -->
<g id="node18" class="node">
<title>enable_map_align_output</title>
<polygon fill="#94ddf4" stroke="black" points="6297,-1840.18 6297,-1876.18 6494,-1876.18 6494,-1840.18 6297,-1840.18"/>
<text text-anchor="middle" x="6395.5" y="-1854.48" font-family="Times,serif" font-size="14.00">enable_map_align_output</text>
</g>
<!-- enable_map_align_output&#45;&gt;run_dragen_alignment_step -->
<g id="edge20" class="edge">
<title>enable_map_align_output&#45;&gt;run_dragen_alignment_step</title>
<path fill="none" stroke="black" d="M6362.48,-1840.06C6341.69,-1829.82 6314.04,-1817.19 6288.5,-1808.68 5566.33,-1568.02 4658.58,-1417.96 4346.13,-1370.5"/>
<polygon fill="black" stroke="black" points="4346.57,-1367.03 4336.16,-1368.99 4345.52,-1373.95 4346.57,-1367.03"/>
</g>
<!-- enable_rna -->
<g id="node19" class="node">
<title>enable_rna</title>
<polygon fill="#94ddf4" stroke="black" points="6184,-1840.18 6184,-1876.18 6279,-1876.18 6279,-1840.18 6184,-1840.18"/>
<text text-anchor="middle" x="6231.5" y="-1854.48" font-family="Times,serif" font-size="14.00">enable_rna</text>
</g>
<!-- enable_rna&#45;&gt;run_dragen_alignment_step -->
<g id="edge21" class="edge">
<title>enable_rna&#45;&gt;run_dragen_alignment_step</title>
<path fill="none" stroke="black" d="M6215.59,-1839.98C6204.93,-1829.45 6190.04,-1816.53 6174.5,-1808.68 5532.55,-1484.55 4653.88,-1387.13 4346.28,-1361.96"/>
<polygon fill="black" stroke="black" points="4346.28,-1358.45 4336.03,-1361.13 4345.71,-1365.43 4346.28,-1358.45"/>
</g>
<!-- enable_rna_quantification -->
<g id="node20" class="node">
<title>enable_rna_quantification</title>
<polygon fill="#94ddf4" stroke="black" points="5965.5,-1840.18 5965.5,-1876.18 6165.5,-1876.18 6165.5,-1840.18 5965.5,-1840.18"/>
<text text-anchor="middle" x="6065.5" y="-1854.48" font-family="Times,serif" font-size="14.00">enable_rna_quantification</text>
</g>
<!-- enable_rna_quantification&#45;&gt;run_dragen_alignment_step -->
<g id="edge22" class="edge">
<title>enable_rna_quantification&#45;&gt;run_dragen_alignment_step</title>
<path fill="none" stroke="black" d="M6030.74,-1839.99C6009.61,-1829.98 5981.9,-1817.62 5956.5,-1808.68 5348.54,-1594.75 4588.97,-1427.87 4327.75,-1373.26"/>
<polygon fill="black" stroke="black" points="4328.43,-1369.82 4317.92,-1371.21 4327,-1376.68 4328.43,-1369.82"/>
</g>
<!-- enable_rrna_filter -->
<g id="node21" class="node">
<title>enable_rrna_filter</title>
<polygon fill="#94ddf4" stroke="black" points="5804,-1840.18 5804,-1876.18 5947,-1876.18 5947,-1840.18 5804,-1840.18"/>
<text text-anchor="middle" x="5875.5" y="-1854.48" font-family="Times,serif" font-size="14.00">enable_rrna_filter</text>
</g>
<!-- enable_rrna_filter&#45;&gt;run_dragen_alignment_step -->
<g id="edge23" class="edge">
<title>enable_rrna_filter&#45;&gt;run_dragen_alignment_step</title>
<path fill="none" stroke="black" d="M5851.19,-1840.14C5835.78,-1829.93 5815.13,-1817.31 5795.5,-1808.68 5265.38,-1575.65 4582.41,-1424.22 4332.03,-1373.27"/>
<polygon fill="black" stroke="black" points="4332.37,-1369.76 4321.87,-1371.2 4330.98,-1376.62 4332.37,-1369.76"/>
</g>
<!-- enable_sort -->
<g id="node22" class="node">
<title>enable_sort</title>
<polygon fill="#94ddf4" stroke="black" points="5687,-1840.18 5687,-1876.18 5786,-1876.18 5786,-1840.18 5687,-1840.18"/>
<text text-anchor="middle" x="5736.5" y="-1854.48" font-family="Times,serif" font-size="14.00">enable_sort</text>
</g>
<!-- enable_sort&#45;&gt;run_dragen_alignment_step -->
<g id="edge24" class="edge">
<title>enable_sort&#45;&gt;run_dragen_alignment_step</title>
<path fill="none" stroke="black" d="M5719.47,-1840.17C5708.32,-1829.84 5693.01,-1817.08 5677.5,-1808.68 5212.85,-1556.9 4587.17,-1420.13 4340.65,-1373.12"/>
<polygon fill="black" stroke="black" points="4341.09,-1369.65 4330.61,-1371.22 4339.79,-1376.52 4341.09,-1369.65"/>
</g>
<!-- fastq_list -->
<g id="node23" class="node">
<title>fastq_list</title>
<polygon fill="#94ddf4" stroke="black" points="5586.5,-1840.18 5586.5,-1876.18 5668.5,-1876.18 5668.5,-1840.18 5586.5,-1840.18"/>
<text text-anchor="middle" x="5627.5" y="-1854.48" font-family="Times,serif" font-size="14.00">fastq_list</text>
</g>
<!-- fastq_list&#45;&gt;run_dragen_alignment_step -->
<g id="edge25" class="edge">
<title>fastq_list&#45;&gt;run_dragen_alignment_step</title>
<path fill="none" stroke="black" d="M5613.26,-1839.92C5603.99,-1829.63 5591.12,-1817 5577.5,-1808.68 5157.61,-1552.25 4574.69,-1419.18 4339.29,-1373.16"/>
<polygon fill="black" stroke="black" points="4339.85,-1369.7 4329.36,-1371.23 4338.51,-1376.57 4339.85,-1369.7"/>
</g>
<!-- fastq_list_rows -->
<g id="node24" class="node">
<title>fastq_list_rows</title>
<polygon fill="#94ddf4" stroke="black" points="5445,-1840.18 5445,-1876.18 5568,-1876.18 5568,-1840.18 5445,-1840.18"/>
<text text-anchor="middle" x="5506.5" y="-1854.48" font-family="Times,serif" font-size="14.00">fastq_list_rows</text>
</g>
<!-- fastq_list_rows&#45;&gt;run_dragen_alignment_step -->
<g id="edge26" class="edge">
<title>fastq_list_rows&#45;&gt;run_dragen_alignment_step</title>
<path fill="none" stroke="black" d="M5484.69,-1839.99C5471.3,-1829.99 5453.52,-1817.62 5436.5,-1808.68 5027.57,-1593.86 4493.86,-1429.23 4304.69,-1374.12"/>
<polygon fill="black" stroke="black" points="4305.45,-1370.69 4294.87,-1371.26 4303.5,-1377.42 4305.45,-1370.69"/>
</g>
<!-- gap_ext_pen -->
<g id="node25" class="node">
<title>gap_ext_pen</title>
<polygon fill="#94ddf4" stroke="black" points="5322,-1840.18 5322,-1876.18 5427,-1876.18 5427,-1840.18 5322,-1840.18"/>
<text text-anchor="middle" x="5374.5" y="-1854.48" font-family="Times,serif" font-size="14.00">gap_ext_pen</text>
</g>
<!-- gap_ext_pen&#45;&gt;run_dragen_alignment_step -->
<g id="edge27" class="edge">
<title>gap_ext_pen&#45;&gt;run_dragen_alignment_step</title>
<path fill="none" stroke="black" d="M5355.71,-1840.02C5344.12,-1830.02 5328.63,-1817.65 5313.5,-1808.68 4951.82,-1594.23 4470.13,-1429.59 4298.53,-1374.29"/>
<polygon fill="black" stroke="black" points="4299.48,-1370.92 4288.89,-1371.19 4297.34,-1377.58 4299.48,-1370.92"/>
</g>
<!-- gap_open_pen -->
<g id="node26" class="node">
<title>gap_open_pen</title>
<polygon fill="#94ddf4" stroke="black" points="5187,-1840.18 5187,-1876.18 5304,-1876.18 5304,-1840.18 5187,-1840.18"/>
<text text-anchor="middle" x="5245.5" y="-1854.48" font-family="Times,serif" font-size="14.00">gap_open_pen</text>
</g>
<!-- gap_open_pen&#45;&gt;run_dragen_alignment_step -->
<g id="edge28" class="edge">
<title>gap_open_pen&#45;&gt;run_dragen_alignment_step</title>
<path fill="none" stroke="black" d="M5223.84,-1839.99C5211.04,-1830.22 5194.29,-1818.09 5178.5,-1808.68 4852.82,-1614.5 4431.59,-1435.19 4286.38,-1375.29"/>
<polygon fill="black" stroke="black" points="4287.39,-1371.92 4276.81,-1371.35 4284.72,-1378.39 4287.39,-1371.92"/>
</g>
<!-- generate_md_tags -->
<g id="node27" class="node">
<title>generate_md_tags</title>
<polygon fill="#94ddf4" stroke="black" points="5022,-1840.18 5022,-1876.18 5169,-1876.18 5169,-1840.18 5022,-1840.18"/>
<text text-anchor="middle" x="5095.5" y="-1854.48" font-family="Times,serif" font-size="14.00">generate_md_tags</text>
</g>
<!-- generate_md_tags&#45;&gt;run_dragen_alignment_step -->
<g id="edge29" class="edge">
<title>generate_md_tags&#45;&gt;run_dragen_alignment_step</title>
<path fill="none" stroke="black" d="M5066.36,-1840.16C4937.44,-1764.84 4418.35,-1461.58 4272.68,-1376.48"/>
<polygon fill="black" stroke="black" points="4274.03,-1373.22 4263.63,-1371.2 4270.5,-1379.27 4274.03,-1373.22"/>
</g>
<!-- generate_sa_tags -->
<g id="node28" class="node">
<title>generate_sa_tags</title>
<polygon fill="#94ddf4" stroke="black" points="4863.5,-1840.18 4863.5,-1876.18 5003.5,-1876.18 5003.5,-1840.18 4863.5,-1840.18"/>
<text text-anchor="middle" x="4933.5" y="-1854.48" font-family="Times,serif" font-size="14.00">generate_sa_tags</text>
</g>
<!-- generate_sa_tags&#45;&gt;run_dragen_alignment_step -->
<g id="edge30" class="edge">
<title>generate_sa_tags&#45;&gt;run_dragen_alignment_step</title>
<path fill="none" stroke="black" d="M4909.84,-1840.16C4805.5,-1765.07 4386.28,-1463.4 4266.57,-1377.25"/>
<polygon fill="black" stroke="black" points="4268.31,-1374.2 4258.15,-1371.2 4264.22,-1379.88 4268.31,-1374.2"/>
</g>
<!-- generate_zs_tags -->
<g id="node29" class="node">
<title>generate_zs_tags</title>
<polygon fill="#94ddf4" stroke="black" points="4705.5,-1840.18 4705.5,-1876.18 4845.5,-1876.18 4845.5,-1840.18 4705.5,-1840.18"/>
<text text-anchor="middle" x="4775.5" y="-1854.48" font-family="Times,serif" font-size="14.00">generate_zs_tags</text>
</g>
<!-- generate_zs_tags&#45;&gt;run_dragen_alignment_step -->
<g id="edge31" class="edge">
<title>generate_zs_tags&#45;&gt;run_dragen_alignment_step</title>
<path fill="none" stroke="black" d="M4757.19,-1840.16C4676.67,-1765.29 4353.92,-1465.21 4260.16,-1378.04"/>
<polygon fill="black" stroke="black" points="4262.51,-1375.45 4252.81,-1371.2 4257.75,-1380.57 4262.51,-1375.45"/>
</g>
<!-- global -->
<g id="node30" class="node">
<title>global</title>
<polygon fill="#94ddf4" stroke="black" points="4627.5,-1840.18 4627.5,-1876.18 4687.5,-1876.18 4687.5,-1840.18 4627.5,-1840.18"/>
<text text-anchor="middle" x="4657.5" y="-1854.48" font-family="Times,serif" font-size="14.00">global</text>
</g>
<!-- global&#45;&gt;run_dragen_alignment_step -->
<g id="edge32" class="edge">
<title>global&#45;&gt;run_dragen_alignment_step</title>
<path fill="none" stroke="black" d="M4644.29,-1840C4637.06,-1830.66 4627.88,-1818.96 4619.5,-1808.68 4483.92,-1642.28 4315.1,-1446.93 4256.07,-1378.96"/>
<polygon fill="black" stroke="black" points="4258.63,-1376.57 4249.43,-1371.32 4253.34,-1381.16 4258.63,-1376.57"/>
</g>
<!-- hard_clips -->
<g id="node31" class="node">
<title>hard_clips</title>
<polygon fill="#94ddf4" stroke="black" points="4521,-1840.18 4521,-1876.18 4610,-1876.18 4610,-1840.18 4521,-1840.18"/>
<text text-anchor="middle" x="4565.5" y="-1854.48" font-family="Times,serif" font-size="14.00">hard_clips</text>
</g>
<!-- hard_clips&#45;&gt;run_dragen_alignment_step -->
<g id="edge33" class="edge">
<title>hard_clips&#45;&gt;run_dragen_alignment_step</title>
<path fill="none" stroke="black" d="M4554.3,-1840.16C4505.33,-1765.74 4309.94,-1468.82 4251.25,-1379.64"/>
<polygon fill="black" stroke="black" points="4254.12,-1377.63 4245.7,-1371.2 4248.27,-1381.48 4254.12,-1377.63"/>
</g>
<!-- map_orientations -->
<g id="node32" class="node">
<title>map_orientations</title>
<polygon fill="#94ddf4" stroke="black" points="4362.5,-1840.18 4362.5,-1876.18 4502.5,-1876.18 4502.5,-1840.18 4362.5,-1840.18"/>
<text text-anchor="middle" x="4432.5" y="-1854.48" font-family="Times,serif" font-size="14.00">map_orientations</text>
</g>
<!-- map_orientations&#45;&gt;run_dragen_alignment_step -->
<g id="edge34" class="edge">
<title>map_orientations&#45;&gt;run_dragen_alignment_step</title>
<path fill="none" stroke="black" d="M4425.8,-1840.16C4396.63,-1766.04 4280.57,-1471.21 4244.95,-1380.73"/>
<polygon fill="black" stroke="black" points="4248.12,-1379.22 4241.2,-1371.2 4241.61,-1381.79 4248.12,-1379.22"/>
</g>
<!-- mapq_max -->
<g id="node33" class="node">
<title>mapq_max</title>
<polygon fill="#94ddf4" stroke="black" points="4251,-1840.18 4251,-1876.18 4344,-1876.18 4344,-1840.18 4251,-1840.18"/>
<text text-anchor="middle" x="4297.5" y="-1854.48" font-family="Times,serif" font-size="14.00">mapq_max</text>
</g>
<!-- mapq_max&#45;&gt;run_dragen_alignment_step -->
<g id="edge35" class="edge">
<title>mapq_max&#45;&gt;run_dragen_alignment_step</title>
<path fill="none" stroke="black" d="M4295.37,-1840.16C4286.1,-1766.2 4249.31,-1472.41 4237.89,-1381.28"/>
<polygon fill="black" stroke="black" points="4241.35,-1380.69 4236.63,-1371.2 4234.4,-1381.56 4241.35,-1380.69"/>
</g>
<!-- mapq_strict_js -->
<g id="node34" class="node">
<title>mapq_strict_js</title>
<polygon fill="#94ddf4" stroke="black" points="4112.5,-1840.18 4112.5,-1876.18 4232.5,-1876.18 4232.5,-1840.18 4112.5,-1840.18"/>
<text text-anchor="middle" x="4172.5" y="-1854.48" font-family="Times,serif" font-size="14.00">mapq_strict_js</text>
</g>
<!-- mapq_strict_js&#45;&gt;run_dragen_alignment_step -->
<g id="edge36" class="edge">
<title>mapq_strict_js&#45;&gt;run_dragen_alignment_step</title>
<path fill="none" stroke="black" d="M4174.6,-1840.16C4183.71,-1766.2 4219.93,-1472.41 4231.16,-1381.28"/>
<polygon fill="black" stroke="black" points="4234.65,-1381.55 4232.4,-1371.2 4227.71,-1380.7 4234.65,-1381.55"/>
</g>
<!-- match_n_score -->
<g id="node35" class="node">
<title>match_n_score</title>
<polygon fill="#94ddf4" stroke="black" points="3972.5,-1840.18 3972.5,-1876.18 4094.5,-1876.18 4094.5,-1840.18 3972.5,-1840.18"/>
<text text-anchor="middle" x="4033.5" y="-1854.48" font-family="Times,serif" font-size="14.00">match_n_score</text>
</g>
<!-- match_n_score&#45;&gt;run_dragen_alignment_step -->
<g id="edge37" class="edge">
<title>match_n_score&#45;&gt;run_dragen_alignment_step</title>
<path fill="none" stroke="black" d="M4040.3,-1840.16C4069.92,-1766.04 4187.73,-1471.21 4223.89,-1380.73"/>
<polygon fill="black" stroke="black" points="4227.24,-1381.78 4227.7,-1371.2 4220.74,-1379.19 4227.24,-1381.78"/>
</g>
<!-- match_score -->
<g id="node36" class="node">
<title>match_score</title>
<polygon fill="#94ddf4" stroke="black" points="3848.5,-1840.18 3848.5,-1876.18 3954.5,-1876.18 3954.5,-1840.18 3848.5,-1840.18"/>
<text text-anchor="middle" x="3901.5" y="-1854.48" font-family="Times,serif" font-size="14.00">match_score</text>
</g>
<!-- match_score&#45;&gt;run_dragen_alignment_step -->
<g id="edge38" class="edge">
<title>match_score&#45;&gt;run_dragen_alignment_step</title>
<path fill="none" stroke="black" d="M3912.77,-1840.16C3962.03,-1765.74 4158.61,-1468.82 4217.65,-1379.64"/>
<polygon fill="black" stroke="black" points="4220.63,-1381.47 4223.23,-1371.2 4214.79,-1377.61 4220.63,-1381.47"/>
</g>
<!-- max_intron_bases -->
<g id="node37" class="node">
<title>max_intron_bases</title>
<polygon fill="#94ddf4" stroke="black" points="3686.5,-1840.18 3686.5,-1876.18 3830.5,-1876.18 3830.5,-1840.18 3686.5,-1840.18"/>
<text text-anchor="middle" x="3758.5" y="-1854.48" font-family="Times,serif" font-size="14.00">max_intron_bases</text>
</g>
<!-- max_intron_bases&#45;&gt;run_dragen_alignment_step -->
<g id="edge39" class="edge">
<title>max_intron_bases&#45;&gt;run_dragen_alignment_step</title>
<path fill="none" stroke="black" d="M3774.61,-1840.16C3845.31,-1765.44 4128.29,-1466.41 4211.42,-1378.56"/>
<polygon fill="black" stroke="black" points="4214.06,-1380.87 4218.39,-1371.2 4208.98,-1376.06 4214.06,-1380.87"/>
</g>
<!-- max_rescues -->
<g id="node38" class="node">
<title>max_rescues</title>
<polygon fill="#94ddf4" stroke="black" points="3560.5,-1840.18 3560.5,-1876.18 3668.5,-1876.18 3668.5,-1840.18 3560.5,-1840.18"/>
<text text-anchor="middle" x="3614.5" y="-1854.48" font-family="Times,serif" font-size="14.00">max_rescues</text>
</g>
<!-- max_rescues&#45;&gt;run_dragen_alignment_step -->
<g id="edge40" class="edge">
<title>max_rescues&#45;&gt;run_dragen_alignment_step</title>
<path fill="none" stroke="black" d="M3635.48,-1840.16C3727.95,-1765.14 4099.13,-1464 4205.74,-1377.51"/>
<polygon fill="black" stroke="black" points="4207.96,-1380.22 4213.52,-1371.2 4203.55,-1374.78 4207.96,-1380.22"/>
</g>
<!-- min_intron_bases -->
<g id="node39" class="node">
<title>min_intron_bases</title>
<polygon fill="#94ddf4" stroke="black" points="3401,-1840.18 3401,-1876.18 3542,-1876.18 3542,-1840.18 3401,-1840.18"/>
<text text-anchor="middle" x="3471.5" y="-1854.48" font-family="Times,serif" font-size="14.00">min_intron_bases</text>
</g>
<!-- min_intron_bases&#45;&gt;run_dragen_alignment_step -->
<g id="edge41" class="edge">
<title>min_intron_bases&#45;&gt;run_dragen_alignment_step</title>
<path fill="none" stroke="black" d="M3497.32,-1840.16C3611.45,-1764.92 4070.66,-1462.19 4200.28,-1376.74"/>
<polygon fill="black" stroke="black" points="4202.26,-1379.63 4208.68,-1371.2 4198.41,-1373.78 4202.26,-1379.63"/>
</g>
<!-- min_score_coeff -->
<g id="node40" class="node">
<title>min_score_coeff</title>
<polygon fill="#94ddf4" stroke="black" points="3254,-1840.18 3254,-1876.18 3383,-1876.18 3383,-1840.18 3254,-1840.18"/>
<text text-anchor="middle" x="3318.5" y="-1854.48" font-family="Times,serif" font-size="14.00">min_score_coeff</text>
</g>
<!-- min_score_coeff&#45;&gt;run_dragen_alignment_step -->
<g id="edge42" class="edge">
<title>min_score_coeff&#45;&gt;run_dragen_alignment_step</title>
<path fill="none" stroke="black" d="M3343.51,-1840.03C3357.69,-1830.49 3375.88,-1818.59 3392.5,-1808.68 3691.79,-1630.27 4065.89,-1439.1 4191.29,-1375.85"/>
<polygon fill="black" stroke="black" points="4192.88,-1378.97 4200.23,-1371.35 4189.73,-1372.72 4192.88,-1378.97"/>
</g>
<!-- mismatch_pen -->
<g id="node41" class="node">
<title>mismatch_pen</title>
<polygon fill="#94ddf4" stroke="black" points="3117,-1840.18 3117,-1876.18 3236,-1876.18 3236,-1840.18 3117,-1840.18"/>
<text text-anchor="middle" x="3176.5" y="-1854.48" font-family="Times,serif" font-size="14.00">mismatch_pen</text>
</g>
<!-- mismatch_pen&#45;&gt;run_dragen_alignment_step -->
<g id="edge43" class="edge">
<title>mismatch_pen&#45;&gt;run_dragen_alignment_step</title>
<path fill="none" stroke="black" d="M3198.51,-1840.16C3211.73,-1830.34 3229.12,-1818.09 3245.5,-1808.68 3586.95,-1612.4 4027.97,-1434.46 4180.1,-1375.1"/>
<polygon fill="black" stroke="black" points="4181.65,-1378.25 4189.7,-1371.36 4179.11,-1371.73 4181.65,-1378.25"/>
</g>
<!-- no_unclip_score -->
<g id="node42" class="node">
<title>no_unclip_score</title>
<polygon fill="#94ddf4" stroke="black" points="2970,-1840.18 2970,-1876.18 3099,-1876.18 3099,-1840.18 2970,-1840.18"/>
<text text-anchor="middle" x="3034.5" y="-1854.48" font-family="Times,serif" font-size="14.00">no_unclip_score</text>
</g>
<!-- no_unclip_score&#45;&gt;run_dragen_alignment_step -->
<g id="edge44" class="edge">
<title>no_unclip_score&#45;&gt;run_dragen_alignment_step</title>
<path fill="none" stroke="black" d="M3058.1,-1839.99C3072.29,-1830.11 3090.94,-1817.86 3108.5,-1808.68 3497.67,-1605.13 3999.13,-1431.88 4172.39,-1374.42"/>
<polygon fill="black" stroke="black" points="4173.72,-1377.66 4182.11,-1371.2 4171.52,-1371.02 4173.72,-1377.66"/>
</g>
<!-- no_unpaired -->
<g id="node43" class="node">
<title>no_unpaired</title>
<polygon fill="#94ddf4" stroke="black" points="2847.5,-1840.18 2847.5,-1876.18 2951.5,-1876.18 2951.5,-1840.18 2847.5,-1840.18"/>
<text text-anchor="middle" x="2899.5" y="-1854.48" font-family="Times,serif" font-size="14.00">no_unpaired</text>
</g>
<!-- no_unpaired&#45;&gt;run_dragen_alignment_step -->
<g id="edge45" class="edge">
<title>no_unpaired&#45;&gt;run_dragen_alignment_step</title>
<path fill="none" stroke="black" d="M2918.19,-1839.96C2929.95,-1829.81 2945.82,-1817.32 2961.5,-1808.68 3382.43,-1576.87 3944.46,-1425.11 4152.54,-1373.65"/>
<polygon fill="black" stroke="black" points="4153.6,-1376.99 4162.48,-1371.2 4151.93,-1370.19 4153.6,-1376.99"/>
</g>
<!-- output_directory -->
<g id="node44" class="node">
<title>output_directory</title>
<polygon fill="#94ddf4" stroke="black" points="2693.5,-1840.18 2693.5,-1876.18 2829.5,-1876.18 2829.5,-1840.18 2693.5,-1840.18"/>
<text text-anchor="middle" x="2761.5" y="-1854.48" font-family="Times,serif" font-size="14.00">output_directory</text>
</g>
<!-- output_directory&#45;&gt;run_dragen_alignment_step -->
<g id="edge46" class="edge">
<title>output_directory&#45;&gt;run_dragen_alignment_step</title>
<path fill="none" stroke="black" d="M2785.24,-1840.07C2800.04,-1829.96 2819.76,-1817.47 2838.5,-1808.68 3314.94,-1585.3 3930.84,-1426.62 4151.4,-1373.56"/>
<polygon fill="black" stroke="black" points="4152.38,-1376.93 4161.29,-1371.19 4150.75,-1370.12 4152.38,-1376.93"/>
</g>
<!-- pe_max_penalty -->
<g id="node45" class="node">
<title>pe_max_penalty</title>
<polygon fill="#94ddf4" stroke="black" points="2544,-1840.18 2544,-1876.18 2675,-1876.18 2675,-1840.18 2544,-1840.18"/>
<text text-anchor="middle" x="2609.5" y="-1854.48" font-family="Times,serif" font-size="14.00">pe_max_penalty</text>
</g>
<!-- pe_max_penalty&#45;&gt;run_dragen_alignment_step -->
<g id="edge47" class="edge">
<title>pe_max_penalty&#45;&gt;run_dragen_alignment_step</title>
<path fill="none" stroke="black" d="M2632.15,-1840.07C2646.53,-1829.83 2665.89,-1817.21 2684.5,-1808.68 3205.27,-1570.08 3881.84,-1422.87 4134,-1373.13"/>
<polygon fill="black" stroke="black" points="4134.74,-1376.55 4143.88,-1371.18 4133.39,-1369.68 4134.74,-1376.55"/>
</g>
<!-- pe_orientation -->
<g id="node46" class="node">
<title>pe_orientation</title>
<polygon fill="#94ddf4" stroke="black" points="2407,-1840.18 2407,-1876.18 2526,-1876.18 2526,-1840.18 2407,-1840.18"/>
<text text-anchor="middle" x="2466.5" y="-1854.48" font-family="Times,serif" font-size="14.00">pe_orientation</text>
</g>
<!-- pe_orientation&#45;&gt;run_dragen_alignment_step -->
<g id="edge48" class="edge">
<title>pe_orientation&#45;&gt;run_dragen_alignment_step</title>
<path fill="none" stroke="black" d="M2486.76,-1840.06C2499.92,-1829.69 2517.86,-1816.92 2535.5,-1808.68 3099.79,-1545.07 3843.5,-1412.99 4122.45,-1370.2"/>
<polygon fill="black" stroke="black" points="4123.22,-1373.62 4132.57,-1368.65 4122.16,-1366.7 4123.22,-1373.62"/>
</g>
<!-- preserve_map_align_order -->
<g id="node47" class="node">
<title>preserve_map_align_order</title>
<polygon fill="#94ddf4" stroke="black" points="2184,-1840.18 2184,-1876.18 2389,-1876.18 2389,-1840.18 2184,-1840.18"/>
<text text-anchor="middle" x="2286.5" y="-1854.48" font-family="Times,serif" font-size="14.00">preserve_map_align_order</text>
</g>
<!-- preserve_map_align_order&#45;&gt;run_dragen_alignment_step -->
<g id="edge49" class="edge">
<title>preserve_map_align_order&#45;&gt;run_dragen_alignment_step</title>
<path fill="none" stroke="black" d="M2321.72,-1840.13C2343.49,-1830.05 2372.2,-1817.56 2398.5,-1808.68 3045.4,-1590.23 3852.67,-1426.8 4133.03,-1373.13"/>
<polygon fill="black" stroke="black" points="4134.02,-1376.51 4143.18,-1371.19 4132.71,-1369.63 4134.02,-1376.51"/>
</g>
<!-- reference_tar -->
<g id="node48" class="node">
<title>reference_tar</title>
<polygon fill="#94ddf4" stroke="black" points="2053,-1840.18 2053,-1876.18 2166,-1876.18 2166,-1840.18 2053,-1840.18"/>
<text text-anchor="middle" x="2109.5" y="-1854.48" font-family="Times,serif" font-size="14.00">reference_tar</text>
</g>
<!-- reference_tar&#45;&gt;run_dragen_alignment_step -->
<g id="edge50" class="edge">
<title>reference_tar&#45;&gt;run_dragen_alignment_step</title>
<path fill="none" stroke="black" d="M2128.36,-1839.99C2140.88,-1829.46 2158.14,-1816.54 2175.5,-1808.68 2872.72,-1492.72 3804.67,-1389.68 4122.72,-1362.54"/>
<polygon fill="black" stroke="black" points="4123.19,-1366.01 4132.86,-1361.68 4122.6,-1359.04 4123.19,-1366.01"/>
</g>
<!-- remove_duplicates -->
<g id="node49" class="node">
<title>remove_duplicates</title>
<polygon fill="#94ddf4" stroke="black" points="1884.5,-1840.18 1884.5,-1876.18 2034.5,-1876.18 2034.5,-1840.18 1884.5,-1840.18"/>
<text text-anchor="middle" x="1959.5" y="-1854.48" font-family="Times,serif" font-size="14.00">remove_duplicates</text>
</g>
<!-- remove_duplicates&#45;&gt;run_dragen_alignment_step -->
<g id="edge51" class="edge">
<title>remove_duplicates&#45;&gt;run_dragen_alignment_step</title>
<path fill="none" stroke="black" d="M1984.51,-1840.12C2000.91,-1829.64 2023.21,-1816.73 2044.5,-1808.68 2808.17,-1519.86 3794.71,-1398.88 4122.88,-1364.86"/>
<polygon fill="black" stroke="black" points="4123.28,-1368.34 4132.86,-1363.83 4122.56,-1361.38 4123.28,-1368.34"/>
</g>
<!-- rescue_sigmas -->
<g id="node50" class="node">
<title>rescue_sigmas</title>
<polygon fill="#94ddf4" stroke="black" points="1745,-1840.18 1745,-1876.18 1866,-1876.18 1866,-1840.18 1745,-1840.18"/>
<text text-anchor="middle" x="1805.5" y="-1854.48" font-family="Times,serif" font-size="14.00">rescue_sigmas</text>
</g>
<!-- rescue_sigmas&#45;&gt;run_dragen_alignment_step -->
<g id="edge52" class="edge">
<title>rescue_sigmas&#45;&gt;run_dragen_alignment_step</title>
<path fill="none" stroke="black" d="M1825.3,-1840.1C1838.64,-1829.48 1857.1,-1816.42 1875.5,-1808.68 2691.4,-1465.52 3775.7,-1378.97 4122.71,-1359.4"/>
<polygon fill="black" stroke="black" points="4122.97,-1362.89 4132.76,-1358.84 4122.58,-1355.9 4122.97,-1362.89"/>
</g>
<!-- sec_aligns -->
<g id="node51" class="node">
<title>sec_aligns</title>
<polygon fill="#94ddf4" stroke="black" points="1638,-1840.18 1638,-1876.18 1727,-1876.18 1727,-1840.18 1638,-1840.18"/>
<text text-anchor="middle" x="1682.5" y="-1854.48" font-family="Times,serif" font-size="14.00">sec_aligns</text>
</g>
<!-- sec_aligns&#45;&gt;run_dragen_alignment_step -->
<g id="edge53" class="edge">
<title>sec_aligns&#45;&gt;run_dragen_alignment_step</title>
<path fill="none" stroke="black" d="M1696.83,-1840.17C1706.83,-1829.44 1721.11,-1816.22 1736.5,-1808.68 2583.21,-1393.51 3759.27,-1354.83 4122.91,-1353.33"/>
<polygon fill="black" stroke="black" points="4122.92,-1356.83 4132.91,-1353.3 4122.9,-1349.83 4122.92,-1356.83"/>
</g>
<!-- sec_aligns_hard -->
<g id="node52" class="node">
<title>sec_aligns_hard</title>
<polygon fill="#94ddf4" stroke="black" points="1491,-1840.18 1491,-1876.18 1620,-1876.18 1620,-1840.18 1491,-1840.18"/>
<text text-anchor="middle" x="1555.5" y="-1854.48" font-family="Times,serif" font-size="14.00">sec_aligns_hard</text>
</g>
<!-- sec_aligns_hard&#45;&gt;run_dragen_alignment_step -->
<g id="edge54" class="edge">
<title>sec_aligns_hard&#45;&gt;run_dragen_alignment_step</title>
<path fill="none" stroke="black" d="M1576.54,-1840.03C1590.69,-1829.37 1610.22,-1816.3 1629.5,-1808.68 2544.72,-1446.89 3753.79,-1372.31 4122.84,-1357.63"/>
<polygon fill="black" stroke="black" points="4123.13,-1361.12 4132.98,-1357.23 4122.85,-1354.12 4123.13,-1361.12"/>
</g>
<!-- sec_phred_delta -->
<g id="node53" class="node">
<title>sec_phred_delta</title>
<polygon fill="#94ddf4" stroke="black" points="1342,-1840.18 1342,-1876.18 1473,-1876.18 1473,-1840.18 1342,-1840.18"/>
<text text-anchor="middle" x="1407.5" y="-1854.48" font-family="Times,serif" font-size="14.00">sec_phred_delta</text>
</g>
<!-- sec_phred_delta&#45;&gt;run_dragen_alignment_step -->
<g id="edge55" class="edge">
<title>sec_phred_delta&#45;&gt;run_dragen_alignment_step</title>
<path fill="none" stroke="black" d="M1428.84,-1839.98C1443.19,-1829.3 1462.97,-1816.23 1482.5,-1808.68 2455.75,-1432.48 3740.29,-1367.58 4122.6,-1356.46"/>
<polygon fill="black" stroke="black" points="4122.94,-1359.95 4132.83,-1356.17 4122.74,-1352.96 4122.94,-1359.95"/>
</g>
<!-- sec_score_delta -->
<g id="node54" class="node">
<title>sec_score_delta</title>
<polygon fill="#94ddf4" stroke="black" points="1195.5,-1840.18 1195.5,-1876.18 1323.5,-1876.18 1323.5,-1840.18 1195.5,-1840.18"/>
<text text-anchor="middle" x="1259.5" y="-1854.48" font-family="Times,serif" font-size="14.00">sec_score_delta</text>
</g>
<!-- sec_score_delta&#45;&gt;run_dragen_alignment_step -->
<g id="edge56" class="edge">
<title>sec_score_delta&#45;&gt;run_dragen_alignment_step</title>
<path fill="none" stroke="black" d="M1280.19,-1840.15C1294.34,-1829.41 1314.01,-1816.19 1333.5,-1808.68 2363.76,-1411.7 3727.15,-1361.12 4122.61,-1354.95"/>
<polygon fill="black" stroke="black" points="4122.95,-1358.45 4132.9,-1354.8 4122.85,-1351.45 4122.95,-1358.45"/>
</g>
<!-- seed_density -->
<g id="node55" class="node">
<title>seed_density</title>
<polygon fill="#94ddf4" stroke="black" points="1068,-1840.18 1068,-1876.18 1177,-1876.18 1177,-1840.18 1068,-1840.18"/>
<text text-anchor="middle" x="1122.5" y="-1854.48" font-family="Times,serif" font-size="14.00">seed_density</text>
</g>
<!-- seed_density&#45;&gt;run_dragen_alignment_step -->
<g id="edge57" class="edge">
<title>seed_density&#45;&gt;run_dragen_alignment_step</title>
<path fill="none" stroke="black" d="M1139.98,-1840.05C1152.05,-1829.26 1169.02,-1816.03 1186.5,-1808.68 1736.29,-1577.36 3640.63,-1404.2 4122.85,-1363.37"/>
<polygon fill="black" stroke="black" points="4123.27,-1366.85 4132.94,-1362.52 4122.68,-1359.87 4123.27,-1366.85"/>
</g>
<!-- supp_aligns -->
<g id="node56" class="node">
<title>supp_aligns</title>
<polygon fill="#94ddf4" stroke="black" points="949,-1840.18 949,-1876.18 1050,-1876.18 1050,-1840.18 949,-1840.18"/>
<text text-anchor="middle" x="999.5" y="-1854.48" font-family="Times,serif" font-size="14.00">supp_aligns</text>
</g>
<!-- supp_aligns&#45;&gt;run_dragen_alignment_step -->
<g id="edge58" class="edge">
<title>supp_aligns&#45;&gt;run_dragen_alignment_step</title>
<path fill="none" stroke="black" d="M1015.68,-1840C1026.91,-1829.19 1042.8,-1815.96 1059.5,-1808.68 1630.48,-1559.84 3628.11,-1398.83 4122.96,-1362.17"/>
<polygon fill="black" stroke="black" points="4123.25,-1365.66 4132.96,-1361.43 4122.73,-1358.68 4123.25,-1365.66"/>
</g>
<!-- supp_as_sec -->
<g id="node57" class="node">
<title>supp_as_sec</title>
<polygon fill="#94ddf4" stroke="black" points="826.5,-1840.18 826.5,-1876.18 930.5,-1876.18 930.5,-1840.18 826.5,-1840.18"/>
<text text-anchor="middle" x="878.5" y="-1854.48" font-family="Times,serif" font-size="14.00">supp_as_sec</text>
</g>
<!-- supp_as_sec&#45;&gt;run_dragen_alignment_step -->
<g id="edge59" class="edge">
<title>supp_as_sec&#45;&gt;run_dragen_alignment_step</title>
<path fill="none" stroke="black" d="M895.32,-1839.98C906.96,-1829.16 923.38,-1815.93 940.5,-1808.68 1536.62,-1556.31 3616.31,-1397.31 4122.7,-1361.77"/>
<polygon fill="black" stroke="black" points="4123.2,-1365.24 4132.93,-1361.05 4122.71,-1358.26 4123.2,-1365.24"/>
</g>
<!-- supp_min_score_adj -->
<g id="node58" class="node">
<title>supp_min_score_adj</title>
<polygon fill="#94ddf4" stroke="black" points="650.5,-1840.18 650.5,-1876.18 808.5,-1876.18 808.5,-1840.18 650.5,-1840.18"/>
<text text-anchor="middle" x="729.5" y="-1854.48" font-family="Times,serif" font-size="14.00">supp_min_score_adj</text>
</g>
<!-- supp_min_score_adj&#45;&gt;run_dragen_alignment_step -->
<g id="edge60" class="edge">
<title>supp_min_score_adj&#45;&gt;run_dragen_alignment_step</title>
<path fill="none" stroke="black" d="M754.53,-1840.09C771.54,-1829.32 794.96,-1816.1 817.5,-1808.68 2066.08,-1397.72 3687.54,-1357.38 4122.88,-1354.21"/>
<polygon fill="black" stroke="black" points="4122.97,-1357.71 4132.94,-1354.14 4122.92,-1350.71 4122.97,-1357.71"/>
</g>
<!-- unclip_score -->
<g id="node59" class="node">
<title>unclip_score</title>
<polygon fill="#94ddf4" stroke="black" points="527,-1840.18 527,-1876.18 632,-1876.18 632,-1840.18 527,-1840.18"/>
<text text-anchor="middle" x="579.5" y="-1854.48" font-family="Times,serif" font-size="14.00">unclip_score</text>
</g>
<!-- unclip_score&#45;&gt;run_dragen_alignment_step -->
<g id="edge61" class="edge">
<title>unclip_score&#45;&gt;run_dragen_alignment_step</title>
<path fill="none" stroke="black" d="M596.03,-1840.15C607.68,-1829.27 624.22,-1815.88 641.5,-1808.68 1296.41,-1535.77 3589.01,-1390.82 4122.82,-1360.31"/>
<polygon fill="black" stroke="black" points="4123.05,-1363.8 4132.83,-1359.74 4122.65,-1356.81 4123.05,-1363.8"/>
</g>
<!-- unpaired_pen -->
<g id="node60" class="node">
<title>unpaired_pen</title>
<polygon fill="#94ddf4" stroke="black" points="396,-1840.18 396,-1876.18 509,-1876.18 509,-1840.18 396,-1840.18"/>
<text text-anchor="middle" x="452.5" y="-1854.48" font-family="Times,serif" font-size="14.00">unpaired_pen</text>
</g>
<!-- unpaired_pen&#45;&gt;run_dragen_alignment_step -->
<g id="edge62" class="edge">
<title>unpaired_pen&#45;&gt;run_dragen_alignment_step</title>
<path fill="none" stroke="black" d="M470.29,-1840.14C482.76,-1829.25 500.39,-1815.86 518.5,-1808.68 1201.52,-1537.68 3577.07,-1390.83 4122.35,-1360.23"/>
<polygon fill="black" stroke="black" points="4122.78,-1363.72 4132.57,-1359.66 4122.39,-1356.73 4122.78,-1363.72"/>
</g>
<!-- verbose -->
<g id="node61" class="node">
<title>verbose</title>
<polygon fill="#94ddf4" stroke="black" points="8396,-1840.18 8396,-1876.18 8469,-1876.18 8469,-1840.18 8396,-1840.18"/>
<text text-anchor="middle" x="8432.5" y="-1854.48" font-family="Times,serif" font-size="14.00">verbose</text>
</g>
<!-- verbose&#45;&gt;run_dragen_alignment_step -->
<g id="edge63" class="edge">
<title>verbose&#45;&gt;run_dragen_alignment_step</title>
<path fill="none" stroke="black" d="M8421.31,-1839.83C8413.28,-1828.95 8401.46,-1815.7 8387.5,-1808.68 7648.88,-1437.28 4932.43,-1366.93 4346.41,-1355.98"/>
<polygon fill="black" stroke="black" points="4346.33,-1352.47 4336.27,-1355.79 4346.2,-1359.47 4346.33,-1352.47"/>
</g>
</g>
</svg>
