<?xml version="1.0" encoding="UTF-8" standalone="no"?>
<!DOCTYPE svg PUBLIC "-//W3C//DTD SVG 1.1//EN"
 "http://www.w3.org/Graphics/SVG/1.1/DTD/svg11.dtd">
<!-- Generated by graphviz version 2.40.1 (20161225.0304)
 -->
<!-- Title: G Pages: 1 -->
<svg width="5092pt" height="1589pt"
 viewBox="0.00 0.00 5091.50 1588.81" xmlns="http://www.w3.org/2000/svg" xmlns:xlink="http://www.w3.org/1999/xlink">
<g id="graph0" class="graph" transform="scale(1 1) rotate(0) translate(4 1584.813)">
<title>G</title>
<polygon fill="#eeeeee" stroke="transparent" points="-4,4 -4,-1584.813 5087.5,-1584.813 5087.5,4 -4,4"/>
<g id="clust1" class="cluster">
<title>cluster_inputs</title>
<polygon fill="#eeeeee" stroke="#000000" stroke-dasharray="5,2" points="354,-1158.2686 354,-1541.0441 4854,-1541.0441 4854,-1158.2686 354,-1158.2686"/>
<text text-anchor="middle" x="4786" y="-1166.0686" font-family="Times,serif" font-size="14.00" fill="#000000">Workflow Inputs</text>
</g>
<g id="clust2" class="cluster">
<title>cluster_outputs</title>
<polygon fill="#eeeeee" stroke="#000000" stroke-dasharray="5,2" points="2322,-39.7689 2322,-422.5444 3122,-422.5444 3122,-39.7689 2322,-39.7689"/>
<text text-anchor="middle" x="3048" y="-47.5689" font-family="Times,serif" font-size="14.00" fill="#000000">Workflow Outputs</text>
</g>
<!-- file:///tmp/tmp_4l7k88i#vc_enable_gatk_acceleration -->
<g id="node1" class="node">
<title>file:///tmp/tmp_4l7k88i#vc_enable_gatk_acceleration</title>
<g id="a_node1"><a xlink:title="If is set to true, the variant caller runs in GATK mode&#10;(concordant with GATK 3.7 in germline mode and GATK 4.0 in somatic mode).&#10;">
<polygon fill="#94ddf4" stroke="#000000" points="4242,-1388.2689 4242,-1425.2689 4466,-1425.2689 4466,-1388.2689 4242,-1388.2689"/>
<text text-anchor="middle" x="4354" y="-1403.0689" font-family="Times,serif" font-size="14.00" fill="#000000">vc_enable_gatk_acceleration</text>
</a>
</g>
</g>
<!-- file:///tmp/tmp_4l7k88i#run_dragen_germline_step -->
<g id="node31" class="node">
<title>file:///tmp/tmp_4l7k88i#run_dragen_germline_step</title>
<g id="a_node31"><a xlink:href="https://github.com/umccr/cwl-ica/blob/beta-release/.github/catalogue/docs/tools/dragen-germline/3.7.5/dragen-germline__3.7.5.md" xlink:title="Runs the dragen germline workflow on the FPGA.&#10;Takes in a fastq list and corresponding mount paths from the predefined_mount_paths.&#10;All other options available at the top of the workflow&#10;">
<polygon fill="#fafad2" stroke="#000000" points="2426,-1005.2689 2426,-1042.2689 2620,-1042.2689 2620,-1005.2689 2426,-1005.2689"/>
<text text-anchor="middle" x="2523" y="-1020.0689" font-family="Times,serif" font-size="14.00" fill="#000000">dragen&#45;germline v(3.7.5)</text>
</a>
</g>
</g>
<!-- file:///tmp/tmp_4l7k88i#vc_enable_gatk_acceleration&#45;&gt;file:///tmp/tmp_4l7k88i#run_dragen_germline_step -->
<g id="edge9" class="edge">
<title>file:///tmp/tmp_4l7k88i#vc_enable_gatk_acceleration&#45;&gt;file:///tmp/tmp_4l7k88i#run_dragen_germline_step</title>
<path fill="none" stroke="#000000" d="M4314.6689,-1388.1741C4291.3482,-1377.7444 4260.9707,-1365.1794 4233,-1356.7689 3640.3398,-1178.5607 2902.6321,-1072.4902 2630.3796,-1037.0908"/>
<polygon fill="#000000" stroke="#000000" points="2630.4763,-1033.5742 2620.1095,-1035.7603 2629.5769,-1040.5161 2630.4763,-1033.5742"/>
</g>
<!-- file:///tmp/tmp_4l7k88i#vc_remove_all_soft_clips -->
<g id="node2" class="node">
<title>file:///tmp/tmp_4l7k88i#vc_remove_all_soft_clips</title>
<g id="a_node2"><a xlink:title="If is set to true, the variant caller does not use soft clips of reads to determine variants.&#10;">
<polygon fill="#94ddf4" stroke="#000000" points="4030,-1388.2689 4030,-1425.2689 4224,-1425.2689 4224,-1388.2689 4030,-1388.2689"/>
<text text-anchor="middle" x="4127" y="-1403.0689" font-family="Times,serif" font-size="14.00" fill="#000000">vc_remove_all_soft_clips</text>
</a>
</g>
</g>
<!-- file:///tmp/tmp_4l7k88i#vc_remove_all_soft_clips&#45;&gt;file:///tmp/tmp_4l7k88i#run_dragen_germline_step -->
<g id="edge10" class="edge">
<title>file:///tmp/tmp_4l7k88i#vc_remove_all_soft_clips&#45;&gt;file:///tmp/tmp_4l7k88i#run_dragen_germline_step</title>
<path fill="none" stroke="#000000" d="M4092.4811,-1388.0938C4072.1414,-1377.7022 4045.6414,-1365.2022 4021,-1356.7689 3514.1296,-1183.2974 2879.2731,-1076.8855 2630.2394,-1039.216"/>
<polygon fill="#000000" stroke="#000000" points="2630.5173,-1035.7184 2620.1073,-1037.6892 2629.4741,-1042.6403 2630.5173,-1035.7184"/>
</g>
<!-- file:///tmp/tmp_4l7k88i#output_file_prefix -->
<g id="node3" class="node">
<title>file:///tmp/tmp_4l7k88i#output_file_prefix</title>
<g id="a_node3"><a xlink:title="The prefix given to all output files&#10;">
<polygon fill="#94ddf4" stroke="#000000" points="4702.5,-1388.2689 4702.5,-1425.2689 4845.5,-1425.2689 4845.5,-1388.2689 4702.5,-1388.2689"/>
<text text-anchor="middle" x="4774" y="-1403.0689" font-family="Times,serif" font-size="14.00" fill="#000000">output_file_prefix</text>
</a>
</g>
</g>
<!-- file:///tmp/tmp_4l7k88i#output_file_prefix&#45;&gt;file:///tmp/tmp_4l7k88i#run_dragen_germline_step -->
<g id="edge11" class="edge">
<title>file:///tmp/tmp_4l7k88i#output_file_prefix&#45;&gt;file:///tmp/tmp_4l7k88i#run_dragen_germline_step</title>
<path fill="none" stroke="#000000" d="M4749.807,-1388.2435C4734.3674,-1377.3612 4713.4718,-1364.3032 4693,-1356.7689 4304.4237,-1213.7594 3012.3581,-1073.6346 2630.2961,-1034.5087"/>
<polygon fill="#000000" stroke="#000000" points="2630.3803,-1030.9991 2620.0762,-1033.464 2629.6684,-1037.9628 2630.3803,-1030.9991"/>
</g>
<!-- file:///tmp/tmp_4l7k88i#dragen_qc_step -->
<g id="node32" class="node">
<title>file:///tmp/tmp_4l7k88i#dragen_qc_step</title>
<g id="a_node32"><a xlink:href="https://github.com/umccr/cwl-ica/blob/beta-release/.github/catalogue/docs/tools/multiqc/1.10.1/multiqc__1.10.1.md" xlink:title="The dragen qc step &#45; this takes in an array of dirs&#10;">
<polygon fill="#fafad2" stroke="#000000" points="4704,-637.2689 4704,-674.2689 4844,-674.2689 4844,-637.2689 4704,-637.2689"/>
<text text-anchor="middle" x="4774" y="-652.0689" font-family="Times,serif" font-size="14.00" fill="#000000">multiqc v(1.10.1)</text>
</a>
</g>
</g>
<!-- file:///tmp/tmp_4l7k88i#output_file_prefix&#45;&gt;file:///tmp/tmp_4l7k88i#dragen_qc_step -->
<g id="edge12" class="edge">
<title>file:///tmp/tmp_4l7k88i#output_file_prefix&#45;&gt;file:///tmp/tmp_4l7k88i#dragen_qc_step</title>
<path fill="none" stroke="#000000" d="M4769.4121,-1388.2047C4757.8783,-1287.5657 4757.5395,-807.4216 4768.3959,-684.4906"/>
<polygon fill="#000000" stroke="#000000" points="4771.8968,-684.6551 4769.4094,-674.3564 4764.9315,-683.9584 4771.8968,-684.6551"/>
</g>
<!-- file:///tmp/tmp_4l7k88i#output_file_prefix&#45;&gt;file:///tmp/tmp_4l7k88i#dragen_qc_step -->
<g id="edge13" class="edge">
<title>file:///tmp/tmp_4l7k88i#output_file_prefix&#45;&gt;file:///tmp/tmp_4l7k88i#dragen_qc_step</title>
<path fill="none" stroke="#000000" d="M4774,-1388.2047C4774,-1287.5657 4774,-807.4216 4774,-684.4906"/>
<polygon fill="#000000" stroke="#000000" points="4777.5001,-684.3564 4774,-674.3564 4770.5001,-684.3564 4777.5001,-684.3564"/>
</g>
<!-- file:///tmp/tmp_4l7k88i#output_file_prefix&#45;&gt;file:///tmp/tmp_4l7k88i#dragen_qc_step -->
<g id="edge14" class="edge">
<title>file:///tmp/tmp_4l7k88i#output_file_prefix&#45;&gt;file:///tmp/tmp_4l7k88i#dragen_qc_step</title>
<path fill="none" stroke="#000000" d="M4778.5879,-1388.2047C4790.1217,-1287.5657 4790.4605,-807.4216 4779.6041,-684.4906"/>
<polygon fill="#000000" stroke="#000000" points="4783.0685,-683.9584 4778.5906,-674.3564 4776.1032,-684.6551 4783.0685,-683.9584"/>
</g>
<!-- file:///tmp/tmp_4l7k88i#vc_enable_roh -->
<g id="node4" class="node">
<title>file:///tmp/tmp_4l7k88i#vc_enable_roh</title>
<g id="a_node4"><a xlink:title="Enable or disable the ROH caller by setting this option to true or false. Enabled by default for human autosomes only.&#10;">
<polygon fill="#94ddf4" stroke="#000000" points="3737.5,-1388.2689 3737.5,-1425.2689 3856.5,-1425.2689 3856.5,-1388.2689 3737.5,-1388.2689"/>
<text text-anchor="middle" x="3797" y="-1403.0689" font-family="Times,serif" font-size="14.00" fill="#000000">vc_enable_roh</text>
</a>
</g>
</g>
<!-- file:///tmp/tmp_4l7k88i#vc_enable_roh&#45;&gt;file:///tmp/tmp_4l7k88i#run_dragen_germline_step -->
<g id="edge15" class="edge">
<title>file:///tmp/tmp_4l7k88i#vc_enable_roh&#45;&gt;file:///tmp/tmp_4l7k88i#run_dragen_germline_step</title>
<path fill="none" stroke="#000000" d="M3775.6018,-1388.1695C3762.5839,-1377.6727 3745.1977,-1365.0412 3728,-1356.7689 3346.2988,-1173.1647 2846.2973,-1075.9748 2630.1746,-1040.146"/>
<polygon fill="#000000" stroke="#000000" points="2630.5352,-1036.6583 2620.0992,-1038.4862 2629.3972,-1043.5652 2630.5352,-1036.6583"/>
</g>
<!-- file:///tmp/tmp_4l7k88i#dedup_min_qual -->
<g id="node5" class="node">
<title>file:///tmp/tmp_4l7k88i#dedup_min_qual</title>
<g id="a_node5"><a xlink:title="Specifies the Phred quality score below which a base should be excluded from the quality score&#10;calculation used for choosing among duplicate reads.&#10;">
<polygon fill="#94ddf4" stroke="#000000" points="3585,-1388.2689 3585,-1425.2689 3719,-1425.2689 3719,-1388.2689 3585,-1388.2689"/>
<text text-anchor="middle" x="3652" y="-1403.0689" font-family="Times,serif" font-size="14.00" fill="#000000">dedup_min_qual</text>
</a>
</g>
</g>
<!-- file:///tmp/tmp_4l7k88i#dedup_min_qual&#45;&gt;file:///tmp/tmp_4l7k88i#run_dragen_germline_step -->
<g id="edge16" class="edge">
<title>file:///tmp/tmp_4l7k88i#dedup_min_qual&#45;&gt;file:///tmp/tmp_4l7k88i#run_dragen_germline_step</title>
<path fill="none" stroke="#000000" d="M3627.3522,-1388.0407C3612.9583,-1377.7595 3594.1125,-1365.3867 3576,-1356.7689 3239.6391,-1196.7301 2807.3695,-1087.817 2618.4692,-1044.5996"/>
<polygon fill="#000000" stroke="#000000" points="2619.0928,-1041.152 2608.5651,-1042.3429 2617.5376,-1047.9771 2619.0928,-1041.152"/>
</g>
<!-- file:///tmp/tmp_4l7k88i#vc_target_bed -->
<g id="node6" class="node">
<title>file:///tmp/tmp_4l7k88i#vc_target_bed</title>
<g id="a_node6"><a xlink:title="This is an optional command line input that restricts processing of the small variant caller,&#10;target bed related coverage, and callability metrics to regions specified in a BED file.&#10;">
<polygon fill="#94ddf4" stroke="#000000" points="3447.5,-1388.2689 3447.5,-1425.2689 3566.5,-1425.2689 3566.5,-1388.2689 3447.5,-1388.2689"/>
<text text-anchor="middle" x="3507" y="-1403.0689" font-family="Times,serif" font-size="14.00" fill="#000000">vc_target_bed</text>
</a>
</g>
</g>
<!-- file:///tmp/tmp_4l7k88i#vc_target_bed&#45;&gt;file:///tmp/tmp_4l7k88i#run_dragen_germline_step -->
<g id="edge17" class="edge">
<title>file:///tmp/tmp_4l7k88i#vc_target_bed&#45;&gt;file:///tmp/tmp_4l7k88i#run_dragen_germline_step</title>
<path fill="none" stroke="#000000" d="M3485.1008,-1388.1646C3472.2718,-1377.9234 3455.4082,-1365.5494 3439,-1356.7689 3148.1967,-1201.1521 2769.1943,-1089.458 2604.8911,-1045.0172"/>
<polygon fill="#000000" stroke="#000000" points="2605.4222,-1041.5356 2594.8561,-1042.3145 2603.6017,-1048.2948 2605.4222,-1041.5356"/>
</g>
<!-- file:///tmp/tmp_4l7k88i#reference_tar -->
<g id="node7" class="node">
<title>file:///tmp/tmp_4l7k88i#reference_tar</title>
<g id="a_node7"><a xlink:title="Path to ref data tarball&#10;">
<polygon fill="#94ddf4" stroke="#000000" points="3172,-1388.2689 3172,-1425.2689 3286,-1425.2689 3286,-1388.2689 3172,-1388.2689"/>
<text text-anchor="middle" x="3229" y="-1403.0689" font-family="Times,serif" font-size="14.00" fill="#000000">reference_tar</text>
</a>
</g>
</g>
<!-- file:///tmp/tmp_4l7k88i#reference_tar&#45;&gt;file:///tmp/tmp_4l7k88i#run_dragen_germline_step -->
<g id="edge18" class="edge">
<title>file:///tmp/tmp_4l7k88i#reference_tar&#45;&gt;file:///tmp/tmp_4l7k88i#run_dragen_germline_step</title>
<path fill="none" stroke="#000000" d="M3206.4688,-1388.1982C3194.0197,-1378.3272 3178.064,-1366.2985 3163,-1356.7689 2952.9245,-1223.8743 2683.9195,-1096.894 2573.6159,-1046.5305"/>
<polygon fill="#000000" stroke="#000000" points="2574.9324,-1043.2841 2564.3811,-1042.3238 2572.0306,-1049.6544 2574.9324,-1043.2841"/>
</g>
<!-- file:///tmp/tmp_4l7k88i#lic_instance_id_location -->
<g id="node8" class="node">
<title>file:///tmp/tmp_4l7k88i#lic_instance_id_location</title>
<g id="a_node8"><a xlink:title="You may wish to place your own in.&#10;Optional value, default set to /opt/instance&#45;identity&#10;which is a path inside the dragen container&#10;">
<polygon fill="#94ddf4" stroke="#000000" points="2966,-1388.2689 2966,-1425.2689 3154,-1425.2689 3154,-1388.2689 2966,-1388.2689"/>
<text text-anchor="middle" x="3060" y="-1403.0689" font-family="Times,serif" font-size="14.00" fill="#000000">lic_instance_id_location</text>
</a>
</g>
</g>
<!-- file:///tmp/tmp_4l7k88i#lic_instance_id_location&#45;&gt;file:///tmp/tmp_4l7k88i#run_dragen_germline_step -->
<g id="edge19" class="edge">
<title>file:///tmp/tmp_4l7k88i#lic_instance_id_location&#45;&gt;file:///tmp/tmp_4l7k88i#run_dragen_germline_step</title>
<path fill="none" stroke="#000000" d="M3033.7359,-1388.0367C2945.14,-1324.8483 2657.2636,-1119.5286 2557.452,-1048.3408"/>
<polygon fill="#000000" stroke="#000000" points="2559.3874,-1045.4222 2549.2136,-1042.465 2555.3227,-1051.1212 2559.3874,-1045.4222"/>
</g>
<!-- file:///tmp/tmp_4l7k88i#fastq_list_rows -->
<g id="node9" class="node">
<title>file:///tmp/tmp_4l7k88i#fastq_list_rows</title>
<g id="a_node9"><a xlink:title="The row of fastq lists.&#10;Each row has the following attributes:&#10; &#160;* RGID&#10; &#160;* RGLB&#10; &#160;* RGSM&#10; &#160;* Lane&#10; &#160;* Read1File&#10; &#160;* Read2File (optional)&#10;">
<polygon fill="#94ddf4" stroke="#000000" points="3304.5,-1388.2689 3304.5,-1425.2689 3429.5,-1425.2689 3429.5,-1388.2689 3304.5,-1388.2689"/>
<text text-anchor="middle" x="3367" y="-1403.0689" font-family="Times,serif" font-size="14.00" fill="#000000">fastq_list_rows</text>
</a>
</g>
</g>
<!-- file:///tmp/tmp_4l7k88i#create_fastq_list_csv_step -->
<g id="node30" class="node">
<title>file:///tmp/tmp_4l7k88i#create_fastq_list_csv_step</title>
<g id="a_node30"><a xlink:href="https://github.com/umccr/cwl-ica/blob/beta-release/.github/catalogue/docs/tools/custom-create-csv-from-fastq-list-rows/1.0.0/custom-create-csv-from-fastq-list-rows__1.0.0.md" xlink:title="Create the fastq list csv to then run the germline tool.&#10;Takes in an array of fastq_list_row schema.&#10;Returns a csv file along with predefined_mount_path schema&#10;">
<polygon fill="#fafad2" stroke="#000000" points="0,-1388.2689 0,-1425.2689 344,-1425.2689 344,-1388.2689 0,-1388.2689"/>
<text text-anchor="middle" x="172" y="-1403.0689" font-family="Times,serif" font-size="14.00" fill="#000000">custom&#45;create&#45;csv&#45;from&#45;fastq&#45;list&#45;row v(1.0.0)</text>
</a>
</g>
</g>
<!-- file:///tmp/tmp_4l7k88i#fastq_list_rows&#45;&gt;file:///tmp/tmp_4l7k88i#create_fastq_list_csv_step -->
<g id="edge20" class="edge">
<title>file:///tmp/tmp_4l7k88i#fastq_list_rows&#45;&gt;file:///tmp/tmp_4l7k88i#create_fastq_list_csv_step</title>
<path fill="none" stroke="#000000" d="M3341.4497,-1425.395C3326.1829,-1435.3537 3305.9329,-1446.6037 3286,-1451.7689 3207.2939,-1472.1637 439.7394,-1461.3468 359,-1451.7689 320.2182,-1447.1683 277.8417,-1437.379 243.2494,-1428.1023"/>
<polygon fill="#000000" stroke="#000000" points="243.8122,-1424.6281 233.2438,-1425.3756 241.9717,-1431.3818 243.8122,-1424.6281"/>
</g>
<!-- file:///tmp/tmp_4l7k88i#vc_target_bed_padding -->
<g id="node10" class="node">
<title>file:///tmp/tmp_4l7k88i#vc_target_bed_padding</title>
<g id="a_node10"><a xlink:title="This is an optional command line input that can be used to pad all of the target&#10;BED regions with the specified value.&#10;For example, if a BED region is 1:1000&#45;2000 and a padding value of 100 is used,&#10;it is equivalent to using a BED region of 1:900&#45;2100 and a padding value of 0.&#10;Any padding added to &#45;&#45;vc&#45;target&#45;bed&#45;padding is used by the small variant caller&#10;and by the target bed coverage/callability reports. The default padding is 0.&#10;">
<polygon fill="#94ddf4" stroke="#000000" points="2764,-1388.2689 2764,-1425.2689 2948,-1425.2689 2948,-1388.2689 2764,-1388.2689"/>
<text text-anchor="middle" x="2856" y="-1403.0689" font-family="Times,serif" font-size="14.00" fill="#000000">vc_target_bed_padding</text>
</a>
</g>
</g>
<!-- file:///tmp/tmp_4l7k88i#vc_target_bed_padding&#45;&gt;file:///tmp/tmp_4l7k88i#run_dragen_germline_step -->
<g id="edge21" class="edge">
<title>file:///tmp/tmp_4l7k88i#vc_target_bed_padding&#45;&gt;file:///tmp/tmp_4l7k88i#run_dragen_germline_step</title>
<path fill="none" stroke="#000000" d="M2839.7133,-1388.0367C2785.2709,-1325.4198 2609.4777,-1123.2313 2546.0721,-1050.3052"/>
<polygon fill="#000000" stroke="#000000" points="2548.458,-1047.715 2539.2554,-1042.465 2543.1754,-1052.308 2548.458,-1047.715"/>
</g>
<!-- file:///tmp/tmp_4l7k88i#vc_max_reads_per_raw_region -->
<g id="node11" class="node">
<title>file:///tmp/tmp_4l7k88i#vc_max_reads_per_raw_region</title>
<g id="a_node11"><a xlink:title="specifies the maximum number of reads covering a given raw region.&#10;Default is 30000 for the germline workflow&#10;">
<polygon fill="#94ddf4" stroke="#000000" points="2508.5,-1388.2689 2508.5,-1425.2689 2745.5,-1425.2689 2745.5,-1388.2689 2508.5,-1388.2689"/>
<text text-anchor="middle" x="2627" y="-1403.0689" font-family="Times,serif" font-size="14.00" fill="#000000">vc_max_reads_per_raw_region</text>
</a>
</g>
</g>
<!-- file:///tmp/tmp_4l7k88i#vc_max_reads_per_raw_region&#45;&gt;file:///tmp/tmp_4l7k88i#run_dragen_germline_step -->
<g id="edge22" class="edge">
<title>file:///tmp/tmp_4l7k88i#vc_max_reads_per_raw_region&#45;&gt;file:///tmp/tmp_4l7k88i#run_dragen_germline_step</title>
<path fill="none" stroke="#000000" d="M2621.9135,-1388.0367C2605.0829,-1326.0549 2551.1178,-1127.3181 2530.819,-1052.5637"/>
<polygon fill="#000000" stroke="#000000" points="2534.075,-1051.1983 2528.0767,-1042.465 2527.3196,-1053.0327 2534.075,-1051.1983"/>
</g>
<!-- file:///tmp/tmp_4l7k88i#dbsnp_annotation -->
<g id="node12" class="node">
<title>file:///tmp/tmp_4l7k88i#dbsnp_annotation</title>
<g id="a_node12"><a xlink:title="In Germline, Tumor&#45;Normal somatic, or Tumor&#45;Only somatic modes,&#10;DRAGEN can look up variant calls in a dbSNP database and add annotations for any matches that it finds there.&#10;To enable the dbSNP database search, set the &#45;&#45;dbsnp option to the full path to the dbSNP database&#10;VCF or .vcf.gz file, which must be sorted in reference order.&#10;">
<polygon fill="#94ddf4" stroke="#000000" points="2346,-1388.2689 2346,-1425.2689 2490,-1425.2689 2490,-1388.2689 2346,-1388.2689"/>
<text text-anchor="middle" x="2418" y="-1403.0689" font-family="Times,serif" font-size="14.00" fill="#000000">dbsnp_annotation</text>
</a>
</g>
</g>
<!-- file:///tmp/tmp_4l7k88i#dbsnp_annotation&#45;&gt;file:///tmp/tmp_4l7k88i#run_dragen_germline_step -->
<g id="edge23" class="edge">
<title>file:///tmp/tmp_4l7k88i#dbsnp_annotation&#45;&gt;file:///tmp/tmp_4l7k88i#run_dragen_germline_step</title>
<path fill="none" stroke="#000000" d="M2423.1354,-1388.0367C2440.1279,-1326.0549 2494.6118,-1127.3181 2515.1059,-1052.5637"/>
<polygon fill="#000000" stroke="#000000" points="2518.6059,-1053.0345 2517.8744,-1042.465 2511.855,-1051.1837 2518.6059,-1053.0345"/>
</g>
<!-- file:///tmp/tmp_4l7k88i#vc_roh_blacklist_bed -->
<g id="node13" class="node">
<title>file:///tmp/tmp_4l7k88i#vc_roh_blacklist_bed</title>
<g id="a_node13"><a xlink:title="If provided, the ROH caller ignores variants that are contained in any region in the blacklist BED file.&#10;DRAGEN distributes blacklist files for all popular human genomes and automatically selects a blacklist to&#10;match the genome in use, unless this option is used explicitly select a file.&#10;">
<polygon fill="#94ddf4" stroke="#000000" points="2160.5,-1388.2689 2160.5,-1425.2689 2327.5,-1425.2689 2327.5,-1388.2689 2160.5,-1388.2689"/>
<text text-anchor="middle" x="2244" y="-1403.0689" font-family="Times,serif" font-size="14.00" fill="#000000">vc_roh_blacklist_bed</text>
</a>
</g>
</g>
<!-- file:///tmp/tmp_4l7k88i#vc_roh_blacklist_bed&#45;&gt;file:///tmp/tmp_4l7k88i#run_dragen_germline_step -->
<g id="edge24" class="edge">
<title>file:///tmp/tmp_4l7k88i#vc_roh_blacklist_bed&#45;&gt;file:///tmp/tmp_4l7k88i#run_dragen_germline_step</title>
<path fill="none" stroke="#000000" d="M2257.6456,-1388.0367C2303.167,-1325.5468 2449.9486,-1124.0509 2503.3449,-1050.7506"/>
<polygon fill="#000000" stroke="#000000" points="2506.3216,-1052.6086 2509.3806,-1042.465 2500.6636,-1048.487 2506.3216,-1052.6086"/>
</g>
<!-- file:///tmp/tmp_4l7k88i#vc_hard_filter -->
<g id="node14" class="node">
<title>file:///tmp/tmp_4l7k88i#vc_hard_filter</title>
<g id="a_node14"><a xlink:title="DRAGEN provides post&#45;VCF variant filtering based on annotations present in the VCF records.&#10;However, due to the nature of DRAGEN’s algorithms, which incorporate the hypothesis of correlated errors&#10;from within the core of variant caller, the pipeline has improved capabilities in distinguishing&#10;the true variants from noise, and therefore the dependency on post&#45;VCF filtering is substantially reduced.&#10;For this reason, the default post&#45;VCF filtering in DRAGEN is very simple&#10;">
<polygon fill="#94ddf4" stroke="#000000" points="2026,-1388.2689 2026,-1425.2689 2142,-1425.2689 2142,-1388.2689 2026,-1388.2689"/>
<text text-anchor="middle" x="2084" y="-1403.0689" font-family="Times,serif" font-size="14.00" fill="#000000">vc_hard_filter</text>
</a>
</g>
</g>
<!-- file:///tmp/tmp_4l7k88i#vc_hard_filter&#45;&gt;file:///tmp/tmp_4l7k88i#run_dragen_germline_step -->
<g id="edge25" class="edge">
<title>file:///tmp/tmp_4l7k88i#vc_hard_filter&#45;&gt;file:///tmp/tmp_4l7k88i#run_dragen_germline_step</title>
<path fill="none" stroke="#000000" d="M2105.4711,-1388.0367C2177.6074,-1325.1023 2411.3493,-1121.1771 2493.8438,-1049.2058"/>
<polygon fill="#000000" stroke="#000000" points="2496.3359,-1051.6765 2501.5703,-1042.465 2491.734,-1046.4017 2496.3359,-1051.6765"/>
</g>
<!-- file:///tmp/tmp_4l7k88i#vc_enable_decoy_contigs -->
<g id="node15" class="node">
<title>file:///tmp/tmp_4l7k88i#vc_enable_decoy_contigs</title>
<g id="a_node15"><a xlink:title="If &#45;&#45;vc&#45;enable&#45;decoy&#45;contigs is set to true, variant calls on the decoy contigs are enabled.&#10;The default value is false.&#10;">
<polygon fill="#94ddf4" stroke="#000000" points="1810.5,-1388.2689 1810.5,-1425.2689 2007.5,-1425.2689 2007.5,-1388.2689 1810.5,-1388.2689"/>
<text text-anchor="middle" x="1909" y="-1403.0689" font-family="Times,serif" font-size="14.00" fill="#000000">vc_enable_decoy_contigs</text>
</a>
</g>
</g>
<!-- file:///tmp/tmp_4l7k88i#vc_enable_decoy_contigs&#45;&gt;file:///tmp/tmp_4l7k88i#run_dragen_germline_step -->
<g id="edge26" class="edge">
<title>file:///tmp/tmp_4l7k88i#vc_enable_decoy_contigs&#45;&gt;file:///tmp/tmp_4l7k88i#run_dragen_germline_step</title>
<path fill="none" stroke="#000000" d="M1939.0301,-1388.0367C2040.5333,-1324.7213 2370.8086,-1118.7026 2484.2935,-1047.9131"/>
<polygon fill="#000000" stroke="#000000" points="2486.3954,-1050.7272 2493.0277,-1042.465 2482.6906,-1044.7879 2486.3954,-1050.7272"/>
</g>
<!-- file:///tmp/tmp_4l7k88i#vc_max_reads_per_active_region -->
<g id="node16" class="node">
<title>file:///tmp/tmp_4l7k88i#vc_max_reads_per_active_region</title>
<g id="a_node16"><a xlink:title="specifies the maximum number of reads covering a given active region.&#10;Default is 10000 for the germline workflow&#10;">
<polygon fill="#94ddf4" stroke="#000000" points="1538,-1388.2689 1538,-1425.2689 1792,-1425.2689 1792,-1388.2689 1538,-1388.2689"/>
<text text-anchor="middle" x="1665" y="-1403.0689" font-family="Times,serif" font-size="14.00" fill="#000000">vc_max_reads_per_active_region</text>
</a>
</g>
</g>
<!-- file:///tmp/tmp_4l7k88i#vc_max_reads_per_active_region&#45;&gt;file:///tmp/tmp_4l7k88i#run_dragen_germline_step -->
<g id="edge27" class="edge">
<title>file:///tmp/tmp_4l7k88i#vc_max_reads_per_active_region&#45;&gt;file:///tmp/tmp_4l7k88i#run_dragen_germline_step</title>
<path fill="none" stroke="#000000" d="M1706.6731,-1388.1666C1849.0883,-1324.5943 2316.2192,-1116.0731 2471.9571,-1046.5537"/>
<polygon fill="#000000" stroke="#000000" points="2473.6191,-1049.6448 2481.3239,-1042.3725 2470.7657,-1043.2527 2473.6191,-1049.6448"/>
</g>
<!-- file:///tmp/tmp_4l7k88i#vc_decoy_contigs -->
<g id="node17" class="node">
<title>file:///tmp/tmp_4l7k88i#vc_decoy_contigs</title>
<g id="a_node17"><a xlink:title="The &#45;&#45;vc&#45;decoy&#45;contigs option specifies a comma&#45;separated list of contigs to skip during variant calling.&#10;This option can be set in the configuration file.&#10;">
<polygon fill="#94ddf4" stroke="#000000" points="1376.5,-1388.2689 1376.5,-1425.2689 1519.5,-1425.2689 1519.5,-1388.2689 1376.5,-1388.2689"/>
<text text-anchor="middle" x="1448" y="-1403.0689" font-family="Times,serif" font-size="14.00" fill="#000000">vc_decoy_contigs</text>
</a>
</g>
</g>
<!-- file:///tmp/tmp_4l7k88i#vc_decoy_contigs&#45;&gt;file:///tmp/tmp_4l7k88i#run_dragen_germline_step -->
<g id="edge28" class="edge">
<title>file:///tmp/tmp_4l7k88i#vc_decoy_contigs&#45;&gt;file:///tmp/tmp_4l7k88i#run_dragen_germline_step</title>
<path fill="none" stroke="#000000" d="M1474.497,-1388.2589C1489.9113,-1378.0482 1509.9946,-1365.6732 1529,-1356.7689 1852.7366,-1205.0929 2264.9107,-1090.119 2439.1858,-1044.8282"/>
<polygon fill="#000000" stroke="#000000" points="2440.261,-1048.1653 2449.0639,-1042.2696 2438.5057,-1041.3889 2440.261,-1048.1653"/>
</g>
<!-- file:///tmp/tmp_4l7k88i#vc_enable_baf -->
<g id="node18" class="node">
<title>file:///tmp/tmp_4l7k88i#vc_enable_baf</title>
<g id="a_node18"><a xlink:title="Enable or disable B&#45;allele frequency output. Enabled by default.&#10;">
<polygon fill="#94ddf4" stroke="#000000" points="1240,-1388.2689 1240,-1425.2689 1358,-1425.2689 1358,-1388.2689 1240,-1388.2689"/>
<text text-anchor="middle" x="1299" y="-1403.0689" font-family="Times,serif" font-size="14.00" fill="#000000">vc_enable_baf</text>
</a>
</g>
</g>
<!-- file:///tmp/tmp_4l7k88i#vc_enable_baf&#45;&gt;file:///tmp/tmp_4l7k88i#run_dragen_germline_step -->
<g id="edge29" class="edge">
<title>file:///tmp/tmp_4l7k88i#vc_enable_baf&#45;&gt;file:///tmp/tmp_4l7k88i#run_dragen_germline_step</title>
<path fill="none" stroke="#000000" d="M1320.4322,-1388.2398C1333.4618,-1377.7671 1350.8484,-1365.1364 1368,-1356.7689 1731.3066,-1179.5277 2206.0822,-1079.8565 2415.6399,-1041.8428"/>
<polygon fill="#000000" stroke="#000000" points="2416.5007,-1045.2441 2425.7207,-1040.0246 2415.2582,-1038.3552 2416.5007,-1045.2441"/>
</g>
<!-- file:///tmp/tmp_4l7k88i#enable_duplicate_marking -->
<g id="node19" class="node">
<title>file:///tmp/tmp_4l7k88i#enable_duplicate_marking</title>
<g id="a_node19"><a xlink:title="Mark identical alignments as duplicates&#10;">
<polygon fill="#94ddf4" stroke="#000000" points="1016,-1388.2689 1016,-1425.2689 1222,-1425.2689 1222,-1388.2689 1016,-1388.2689"/>
<text text-anchor="middle" x="1119" y="-1403.0689" font-family="Times,serif" font-size="14.00" fill="#000000">enable_duplicate_marking</text>
</a>
</g>
</g>
<!-- file:///tmp/tmp_4l7k88i#enable_duplicate_marking&#45;&gt;file:///tmp/tmp_4l7k88i#run_dragen_germline_step -->
<g id="edge30" class="edge">
<title>file:///tmp/tmp_4l7k88i#enable_duplicate_marking&#45;&gt;file:///tmp/tmp_4l7k88i#run_dragen_germline_step</title>
<path fill="none" stroke="#000000" d="M1156.4621,-1388.1489C1177.9242,-1377.9649 1205.5698,-1365.652 1231,-1356.7689 1662.8132,-1205.9298 2197.1812,-1089.662 2418.9738,-1044.3784"/>
<polygon fill="#000000" stroke="#000000" points="2419.877,-1047.7664 2428.9772,-1042.3409 2418.4798,-1040.9072 2419.877,-1047.7664"/>
</g>
<!-- file:///tmp/tmp_4l7k88i#vc_target_coverage -->
<g id="node20" class="node">
<title>file:///tmp/tmp_4l7k88i#vc_target_coverage</title>
<g id="a_node20"><a xlink:title="The &#45;&#45;vc&#45;target&#45;coverage option specifies the target coverage for down&#45;sampling.&#10;The default value is 500 for germline mode and 50 for somatic mode.&#10;">
<polygon fill="#94ddf4" stroke="#000000" points="840,-1388.2689 840,-1425.2689 998,-1425.2689 998,-1388.2689 840,-1388.2689"/>
<text text-anchor="middle" x="919" y="-1403.0689" font-family="Times,serif" font-size="14.00" fill="#000000">vc_target_coverage</text>
</a>
</g>
</g>
<!-- file:///tmp/tmp_4l7k88i#vc_target_coverage&#45;&gt;file:///tmp/tmp_4l7k88i#run_dragen_germline_step -->
<g id="edge31" class="edge">
<title>file:///tmp/tmp_4l7k88i#vc_target_coverage&#45;&gt;file:///tmp/tmp_4l7k88i#run_dragen_germline_step</title>
<path fill="none" stroke="#000000" d="M946.8597,-1388.0585C963.6579,-1377.5235 985.8377,-1364.8909 1007,-1356.7689 1514.1307,-1162.1346 2162.5845,-1067.5474 2415.3583,-1036.1288"/>
<polygon fill="#000000" stroke="#000000" points="2416.1447,-1039.5584 2425.6402,-1034.8586 2415.2864,-1032.6112 2416.1447,-1039.5584"/>
</g>
<!-- file:///tmp/tmp_4l7k88i#vc_enable_phasing -->
<g id="node21" class="node">
<title>file:///tmp/tmp_4l7k88i#vc_enable_phasing</title>
<g id="a_node21"><a xlink:title="The –vc&#45;enable&#45;phasing option enables variants to be phased when possible. The default value is true.&#10;">
<polygon fill="#94ddf4" stroke="#000000" points="670,-1388.2689 670,-1425.2689 822,-1425.2689 822,-1388.2689 670,-1388.2689"/>
<text text-anchor="middle" x="746" y="-1403.0689" font-family="Times,serif" font-size="14.00" fill="#000000">vc_enable_phasing</text>
</a>
</g>
</g>
<!-- file:///tmp/tmp_4l7k88i#vc_enable_phasing&#45;&gt;file:///tmp/tmp_4l7k88i#run_dragen_germline_step -->
<g id="edge32" class="edge">
<title>file:///tmp/tmp_4l7k88i#vc_enable_phasing&#45;&gt;file:///tmp/tmp_4l7k88i#run_dragen_germline_step</title>
<path fill="none" stroke="#000000" d="M772.383,-1388.0986C788.5994,-1377.4426 810.1936,-1364.6724 831,-1356.7689 1404.0188,-1139.1021 2142.7358,-1056.6041 2415.5831,-1032.294"/>
<polygon fill="#000000" stroke="#000000" points="2416.2227,-1035.7513 2425.8759,-1031.385 2415.6068,-1028.7784 2416.2227,-1035.7513"/>
</g>
<!-- file:///tmp/tmp_4l7k88i#sample_sex -->
<g id="node22" class="node">
<title>file:///tmp/tmp_4l7k88i#sample_sex</title>
<g id="a_node22"><a xlink:title="Specifies the sex of a sample&#10;">
<polygon fill="#94ddf4" stroke="#000000" points="552.5,-1388.2689 552.5,-1425.2689 651.5,-1425.2689 651.5,-1388.2689 552.5,-1388.2689"/>
<text text-anchor="middle" x="602" y="-1403.0689" font-family="Times,serif" font-size="14.00" fill="#000000">sample_sex</text>
</a>
</g>
</g>
<!-- file:///tmp/tmp_4l7k88i#sample_sex&#45;&gt;file:///tmp/tmp_4l7k88i#run_dragen_germline_step -->
<g id="edge33" class="edge">
<title>file:///tmp/tmp_4l7k88i#sample_sex&#45;&gt;file:///tmp/tmp_4l7k88i#run_dragen_germline_step</title>
<path fill="none" stroke="#000000" d="M618.8313,-1388.2537C629.7798,-1377.3753 644.965,-1364.3177 661,-1356.7689 979.2102,-1206.9646 2068.4992,-1074.7156 2415.7358,-1035.522"/>
<polygon fill="#000000" stroke="#000000" points="2416.2456,-1038.9868 2425.7911,-1034.3897 2415.4622,-1032.0308 2416.2456,-1038.9868"/>
</g>
<!-- file:///tmp/tmp_4l7k88i#vc_enable_vcf_output -->
<g id="node23" class="node">
<title>file:///tmp/tmp_4l7k88i#vc_enable_vcf_output</title>
<g id="a_node23"><a xlink:title="The –vc&#45;enable&#45;vcf&#45;output option enables VCF file output during a gVCF run. The default value is false.&#10;">
<polygon fill="#94ddf4" stroke="#000000" points="362,-1388.2689 362,-1425.2689 534,-1425.2689 534,-1388.2689 362,-1388.2689"/>
<text text-anchor="middle" x="448" y="-1403.0689" font-family="Times,serif" font-size="14.00" fill="#000000">vc_enable_vcf_output</text>
</a>
</g>
</g>
<!-- file:///tmp/tmp_4l7k88i#vc_enable_vcf_output&#45;&gt;file:///tmp/tmp_4l7k88i#run_dragen_germline_step -->
<g id="edge34" class="edge">
<title>file:///tmp/tmp_4l7k88i#vc_enable_vcf_output&#45;&gt;file:///tmp/tmp_4l7k88i#run_dragen_germline_step</title>
<path fill="none" stroke="#000000" d="M477.6182,-1388.2438C496.0681,-1377.5024 520.6593,-1364.593 544,-1356.7689 1233.3952,-1125.6756 2113.954,-1050.061 2415.8592,-1030.0062"/>
<polygon fill="#000000" stroke="#000000" points="2416.1727,-1033.4932 2425.9213,-1029.3442 2415.7131,-1026.5083 2416.1727,-1033.4932"/>
</g>
<!-- file:///tmp/tmp_4l7k88i#enable_map_align_output -->
<g id="node24" class="node">
<title>file:///tmp/tmp_4l7k88i#enable_map_align_output</title>
<g id="a_node24"><a xlink:title="Do you wish to have the output bam files present&#10;">
<polygon fill="#94ddf4" stroke="#000000" points="4484,-1388.2689 4484,-1425.2689 4684,-1425.2689 4684,-1388.2689 4484,-1388.2689"/>
<text text-anchor="middle" x="4584" y="-1403.0689" font-family="Times,serif" font-size="14.00" fill="#000000">enable_map_align_output</text>
</a>
</g>
</g>
<!-- file:///tmp/tmp_4l7k88i#enable_map_align_output&#45;&gt;file:///tmp/tmp_4l7k88i#run_dragen_germline_step -->
<g id="edge35" class="edge">
<title>file:///tmp/tmp_4l7k88i#enable_map_align_output&#45;&gt;file:///tmp/tmp_4l7k88i#run_dragen_germline_step</title>
<path fill="none" stroke="#000000" d="M4549.5712,-1388.1586C4528.5646,-1377.5238 4500.8604,-1364.7549 4475,-1356.7689 3791.2497,-1145.6175 2928.8631,-1057.6822 2630.4055,-1032.189"/>
<polygon fill="#000000" stroke="#000000" points="2630.2877,-1028.6666 2620.0275,-1031.3084 2629.6958,-1035.6415 2630.2877,-1028.6666"/>
</g>
<!-- file:///tmp/tmp_4l7k88i#output_directory -->
<g id="node25" class="node">
<title>file:///tmp/tmp_4l7k88i#output_directory</title>
<g id="a_node25"><a xlink:title="The directory where all output files are placed&#10;">
<polygon fill="#94ddf4" stroke="#000000" points="3874.5,-1388.2689 3874.5,-1425.2689 4011.5,-1425.2689 4011.5,-1388.2689 3874.5,-1388.2689"/>
<text text-anchor="middle" x="3943" y="-1403.0689" font-family="Times,serif" font-size="14.00" fill="#000000">output_directory</text>
</a>
</g>
</g>
<!-- file:///tmp/tmp_4l7k88i#output_directory&#45;&gt;file:///tmp/tmp_4l7k88i#run_dragen_germline_step -->
<g id="edge36" class="edge">
<title>file:///tmp/tmp_4l7k88i#output_directory&#45;&gt;file:///tmp/tmp_4l7k88i#run_dragen_germline_step</title>
<path fill="none" stroke="#000000" d="M3918.8772,-1388.106C3904.2662,-1377.5873 3884.8616,-1364.9552 3866,-1356.7689 3429.0212,-1167.112 2863.1823,-1071.4675 2630.3189,-1037.9883"/>
<polygon fill="#000000" stroke="#000000" points="2630.5504,-1034.4859 2620.1558,-1036.5363 2629.5603,-1041.4155 2630.5504,-1034.4859"/>
</g>
<!-- file:///tmp/tmp_4l7k88i#dragen_vcf_out -->
<g id="node26" class="node">
<title>file:///tmp/tmp_4l7k88i#dragen_vcf_out</title>
<g id="a_node26"><a xlink:title="The output germline vcf file&#10;">
<polygon fill="#94ddf4" stroke="#000000" points="2330.5,-270.2689 2330.5,-307.2689 2457.5,-307.2689 2457.5,-270.2689 2330.5,-270.2689"/>
<text text-anchor="middle" x="2394" y="-285.0689" font-family="Times,serif" font-size="14.00" fill="#000000">dragen_vcf_out</text>
</a>
</g>
</g>
<!-- file:///tmp/tmp_4l7k88i#dragen_germline_output_directory -->
<g id="node27" class="node">
<title>file:///tmp/tmp_4l7k88i#dragen_germline_output_directory</title>
<g id="a_node27"><a xlink:title="The output directory containing all germline output files&#10;">
<polygon fill="#94ddf4" stroke="#000000" points="2476,-270.2689 2476,-307.2689 2742,-307.2689 2742,-270.2689 2476,-270.2689"/>
<text text-anchor="middle" x="2609" y="-285.0689" font-family="Times,serif" font-size="14.00" fill="#000000">dragen_germline_output_directory</text>
</a>
</g>
</g>
<!-- file:///tmp/tmp_4l7k88i#dragen_bam_out -->
<g id="node28" class="node">
<title>file:///tmp/tmp_4l7k88i#dragen_bam_out</title>
<g id="a_node28"><a xlink:title="The output bam file, exists only if &#45;&#45;enable&#45;map&#45;align&#45;output is set to true&#10;">
<polygon fill="#94ddf4" stroke="#000000" points="2760,-270.2689 2760,-307.2689 2896,-307.2689 2896,-270.2689 2760,-270.2689"/>
<text text-anchor="middle" x="2828" y="-285.0689" font-family="Times,serif" font-size="14.00" fill="#000000">dragen_bam_out</text>
</a>
</g>
</g>
<!-- file:///tmp/tmp_4l7k88i#multiqc_output_directory -->
<g id="node29" class="node">
<title>file:///tmp/tmp_4l7k88i#multiqc_output_directory</title>
<g id="a_node29"><a xlink:title="The output directory for multiqc&#10;">
<polygon fill="#94ddf4" stroke="#000000" points="2914,-270.2689 2914,-307.2689 3114,-307.2689 3114,-270.2689 2914,-270.2689"/>
<text text-anchor="middle" x="3014" y="-285.0689" font-family="Times,serif" font-size="14.00" fill="#000000">multiqc_output_directory</text>
</a>
</g>
</g>
<!-- file:///tmp/tmp_4l7k88i#create_fastq_list_csv_step&#45;&gt;file:///tmp/tmp_4l7k88i#run_dragen_germline_step -->
<g id="edge1" class="edge">
<title>file:///tmp/tmp_4l7k88i#create_fastq_list_csv_step&#45;&gt;file:///tmp/tmp_4l7k88i#run_dragen_germline_step</title>
<path fill="none" stroke="#000000" d="M223.3974,-1388.1603C256.6892,-1377.8547 300.9985,-1365.4184 341,-1356.7689 1129.3456,-1186.3047 2096.9413,-1070.3522 2415.6756,-1035.0769"/>
<polygon fill="#000000" stroke="#000000" points="2416.2726,-1038.5323 2425.8283,-1033.9563 2415.5046,-1031.5746 2416.2726,-1038.5323"/>
</g>
<!-- file:///tmp/tmp_4l7k88i#create_fastq_list_csv_step&#45;&gt;file:///tmp/tmp_4l7k88i#run_dragen_germline_step -->
<g id="edge2" class="edge">
<title>file:///tmp/tmp_4l7k88i#create_fastq_list_csv_step&#45;&gt;file:///tmp/tmp_4l7k88i#run_dragen_germline_step</title>
<path fill="none" stroke="#000000" d="M239.1736,-1388.1603C274.6892,-1377.8547 318.9985,-1365.4184 359,-1356.7689 1140.8876,-1187.7012 2099.1004,-1072.2556 2415.8331,-1035.96"/>
<polygon fill="#000000" stroke="#000000" points="2416.3859,-1039.4197 2425.9232,-1034.8057 2415.5901,-1032.4651 2416.3859,-1039.4197"/>
</g>
<!-- file:///tmp/tmp_4l7k88i#run_dragen_germline_step&#45;&gt;file:///tmp/tmp_4l7k88i#dragen_vcf_out -->
<g id="edge4" class="edge">
<title>file:///tmp/tmp_4l7k88i#run_dragen_germline_step&#45;&gt;file:///tmp/tmp_4l7k88i#dragen_vcf_out</title>
<path fill="none" stroke="#000000" d="M2519.7467,-1005.2326C2502.3554,-906.1425 2420.3553,-438.9327 2399.062,-317.6104"/>
<polygon fill="#000000" stroke="#000000" points="2402.4794,-316.8347 2397.3034,-307.5903 2395.5848,-318.0448 2402.4794,-316.8347"/>
</g>
<!-- file:///tmp/tmp_4l7k88i#run_dragen_germline_step&#45;&gt;file:///tmp/tmp_4l7k88i#dragen_germline_output_directory -->
<g id="edge5" class="edge">
<title>file:///tmp/tmp_4l7k88i#run_dragen_germline_step&#45;&gt;file:///tmp/tmp_4l7k88i#dragen_germline_output_directory</title>
<path fill="none" stroke="#000000" d="M2525.1689,-1005.2326C2536.7631,-906.1425 2591.4298,-438.9327 2605.6253,-317.6104"/>
<polygon fill="#000000" stroke="#000000" points="2609.1118,-317.9294 2606.7978,-307.5903 2602.1593,-317.1158 2609.1118,-317.9294"/>
</g>
<!-- file:///tmp/tmp_4l7k88i#run_dragen_germline_step&#45;&gt;file:///tmp/tmp_4l7k88i#dragen_bam_out -->
<g id="edge6" class="edge">
<title>file:///tmp/tmp_4l7k88i#run_dragen_germline_step&#45;&gt;file:///tmp/tmp_4l7k88i#dragen_bam_out</title>
<path fill="none" stroke="#000000" d="M2530.6919,-1005.2326C2571.8937,-905.9431 2766.4679,-437.0511 2816.3339,-316.8823"/>
<polygon fill="#000000" stroke="#000000" points="2819.5896,-318.1682 2820.1897,-307.5903 2813.1242,-315.4852 2819.5896,-318.1682"/>
</g>
<!-- file:///tmp/tmp_4l7k88i#run_dragen_germline_step&#45;&gt;file:///tmp/tmp_4l7k88i#dragen_qc_step -->
<g id="edge3" class="edge">
<title>file:///tmp/tmp_4l7k88i#run_dragen_germline_step&#45;&gt;file:///tmp/tmp_4l7k88i#dragen_qc_step</title>
<path fill="none" stroke="#000000" d="M2620.0836,-1007.8974C2995.6942,-946.4915 4349.7352,-725.1289 4693.9633,-668.8535"/>
<polygon fill="#000000" stroke="#000000" points="4694.5467,-672.3047 4703.851,-667.237 4693.4173,-665.3964 4694.5467,-672.3047"/>
</g>
<!-- file:///tmp/tmp_4l7k88i#dragen_qc_step&#45;&gt;file:///tmp/tmp_4l7k88i#multiqc_output_directory -->
<g id="edge8" class="edge">
<title>file:///tmp/tmp_4l7k88i#dragen_qc_step&#45;&gt;file:///tmp/tmp_4l7k88i#multiqc_output_directory</title>
<path fill="none" stroke="#000000" d="M4703.9198,-641.1556C4430.1412,-584.0665 3432.1834,-375.9696 3112.9353,-309.3991"/>
<polygon fill="#000000" stroke="#000000" points="3113.2811,-305.896 3102.7772,-307.2809 3111.8521,-312.7486 3113.2811,-305.896"/>
</g>
<!-- file:///tmp/tmp_4l7k88i#create_dummy_file_step -->
<g id="node33" class="node">
<title>file:///tmp/tmp_4l7k88i#create_dummy_file_step</title>
<g id="a_node33"><a xlink:href="https://github.com/umccr/cwl-ica/blob/beta-release/.github/catalogue/docs/tools/custom-touch-file/1.0.0/custom-touch-file__1.0.0.md" xlink:title="Intermediate step for letting multiqc&#45;interop be placed in stream mode&#10;">
<polygon fill="#fafad2" stroke="#000000" points="4820.5,-1005.2689 4820.5,-1042.2689 5083.5,-1042.2689 5083.5,-1005.2689 4820.5,-1005.2689"/>
<text text-anchor="middle" x="4952" y="-1020.0689" font-family="Times,serif" font-size="14.00" fill="#000000">custom&#45;create&#45;dummy&#45;file v(1.0.0)</text>
</a>
</g>
</g>
<!-- file:///tmp/tmp_4l7k88i#create_dummy_file_step&#45;&gt;file:///tmp/tmp_4l7k88i#dragen_qc_step -->
<g id="edge7" class="edge">
<title>file:///tmp/tmp_4l7k88i#create_dummy_file_step&#45;&gt;file:///tmp/tmp_4l7k88i#dragen_qc_step</title>
<path fill="none" stroke="#000000" d="M4943.051,-1005.2675C4914.0309,-945.2711 4822.4018,-755.8355 4787.5948,-683.875"/>
<polygon fill="#000000" stroke="#000000" points="4790.5781,-682.0047 4783.073,-674.5265 4784.2766,-685.0527 4790.5781,-682.0047"/>
</g>
</g>
</svg>
