<?xml version="1.0" encoding="UTF-8" standalone="no"?>
<!DOCTYPE svg PUBLIC "-//W3C//DTD SVG 1.1//EN"
 "http://www.w3.org/Graphics/SVG/1.1/DTD/svg11.dtd">
<!-- Generated by graphviz version 2.40.1 (20161225.0304)
 -->
<!-- Title: G Pages: 1 -->
<svg width="5089pt" height="1588pt"
 viewBox="0.00 0.00 5088.50 1587.88" xmlns="http://www.w3.org/2000/svg" xmlns:xlink="http://www.w3.org/1999/xlink">
<g id="graph0" class="graph" transform="scale(1 1) rotate(0) translate(4 1583.88)">
<title>G</title>
<polygon fill="#eeeeee" stroke="transparent" points="-4,4 -4,-1583.88 5084.5,-1583.88 5084.5,4 -4,4"/>
<g id="clust1" class="cluster">
<title>cluster_inputs</title>
<polygon fill="#eeeeee" stroke="#000000" stroke-dasharray="5,2" points="354,-1157.585 354,-1540.1346 4851,-1540.1346 4851,-1157.585 354,-1157.585"/>
<text text-anchor="middle" x="4783" y="-1165.385" font-family="Times,serif" font-size="14.00" fill="#000000">Workflow Inputs</text>
</g>
<g id="clust2" class="cluster">
<title>cluster_outputs</title>
<polygon fill="#eeeeee" stroke="#000000" stroke-dasharray="5,2" points="2432,-39.7454 2432,-422.295 3232,-422.295 3232,-39.7454 2432,-39.7454"/>
<text text-anchor="middle" x="3158" y="-47.5454" font-family="Times,serif" font-size="14.00" fill="#000000">Workflow Outputs</text>
</g>
<!-- file:///tmp/tmp_47ig48v#vc_target_coverage -->
<g id="node1" class="node">
<title>file:///tmp/tmp_47ig48v#vc_target_coverage</title>
<g id="a_node1"><a xlink:title="The &#45;&#45;vc&#45;target&#45;coverage option specifies the target coverage for down&#45;sampling.&#10;The default value is 500 for germline mode and 50 for somatic mode.&#10;">
<polygon fill="#94ddf4" stroke="#000000" points="4353,-1387.2454 4353,-1424.2454 4511,-1424.2454 4511,-1387.2454 4353,-1387.2454"/>
<text text-anchor="middle" x="4432" y="-1402.0454" font-family="Times,serif" font-size="14.00" fill="#000000">vc_target_coverage</text>
</a>
</g>
</g>
<!-- file:///tmp/tmp_47ig48v#run_dragen_germline_step -->
<g id="node30" class="node">
<title>file:///tmp/tmp_47ig48v#run_dragen_germline_step</title>
<g id="a_node30"><a xlink:href="https://github.com/umccr/cwl-ica/blob/beta-release/.github/catalogue/docs/tools/dragen-germline/3.7.5/dragen-germline__3.7.5.md" xlink:title="Runs the dragen germline workflow on the FPGA.&#10;Takes in a fastq list and corresponding mount paths from the predefined_mount_paths.&#10;All other options available at the top of the workflow&#10;">
<polygon fill="#fafad2" stroke="#000000" points="2520,-1005.2454 2520,-1042.2454 2714,-1042.2454 2714,-1005.2454 2520,-1005.2454"/>
<text text-anchor="middle" x="2617" y="-1020.0454" font-family="Times,serif" font-size="14.00" fill="#000000">dragen&#45;germline v(3.7.5)</text>
</a>
</g>
</g>
<!-- file:///tmp/tmp_47ig48v#vc_target_coverage&#45;&gt;file:///tmp/tmp_47ig48v#run_dragen_germline_step -->
<g id="edge9" class="edge">
<title>file:///tmp/tmp_47ig48v#vc_target_coverage&#45;&gt;file:///tmp/tmp_47ig48v#run_dragen_germline_step</title>
<path fill="none" stroke="#000000" d="M4404.6069,-1387.0754C4387.7902,-1376.4194 4365.4322,-1363.6492 4344,-1355.7454 3755.7947,-1138.825 3000.0989,-1056.2914 2724.0305,-1032.1201"/>
<polygon fill="#000000" stroke="#000000" points="2724.2819,-1028.6288 2714.0166,-1031.2506 2723.6763,-1035.6026 2724.2819,-1028.6288"/>
</g>
<!-- file:///tmp/tmp_47ig48v#output_file_prefix -->
<g id="node2" class="node">
<title>file:///tmp/tmp_47ig48v#output_file_prefix</title>
<g id="a_node2"><a xlink:title="The prefix given to all output files&#10;">
<polygon fill="#94ddf4" stroke="#000000" points="4699.5,-1387.2454 4699.5,-1424.2454 4842.5,-1424.2454 4842.5,-1387.2454 4699.5,-1387.2454"/>
<text text-anchor="middle" x="4771" y="-1402.0454" font-family="Times,serif" font-size="14.00" fill="#000000">output_file_prefix</text>
</a>
</g>
</g>
<!-- file:///tmp/tmp_47ig48v#output_file_prefix&#45;&gt;file:///tmp/tmp_47ig48v#run_dragen_germline_step -->
<g id="edge10" class="edge">
<title>file:///tmp/tmp_47ig48v#output_file_prefix&#45;&gt;file:///tmp/tmp_47ig48v#run_dragen_germline_step</title>
<path fill="none" stroke="#000000" d="M4746.4376,-1387.0198C4731.0269,-1376.205 4710.2921,-1363.289 4690,-1355.7454 3972.8038,-1089.1275 3037.8618,-1036.5258 2724.571,-1026.2279"/>
<polygon fill="#000000" stroke="#000000" points="2724.2448,-1022.7157 2714.1377,-1025.8931 2724.0203,-1029.7121 2724.2448,-1022.7157"/>
</g>
<!-- file:///tmp/tmp_47ig48v#dragen_qc_step -->
<g id="node31" class="node">
<title>file:///tmp/tmp_47ig48v#dragen_qc_step</title>
<g id="a_node31"><a xlink:href="https://github.com/umccr/cwl-ica/blob/beta-release/.github/catalogue/docs/tools/multiqc/1.10.1/multiqc__1.10.1.md" xlink:title="The dragen qc step &#45; this takes in an array of dirs&#10;">
<polygon fill="#fafad2" stroke="#000000" points="4701,-637.2454 4701,-674.2454 4841,-674.2454 4841,-637.2454 4701,-637.2454"/>
<text text-anchor="middle" x="4771" y="-652.0454" font-family="Times,serif" font-size="14.00" fill="#000000">multiqc v(1.10.1)</text>
</a>
</g>
</g>
<!-- file:///tmp/tmp_47ig48v#output_file_prefix&#45;&gt;file:///tmp/tmp_47ig48v#dragen_qc_step -->
<g id="edge11" class="edge">
<title>file:///tmp/tmp_47ig48v#output_file_prefix&#45;&gt;file:///tmp/tmp_47ig48v#dragen_qc_step</title>
<path fill="none" stroke="#000000" d="M4766.4121,-1387.206C4754.8783,-1286.701 4754.5395,-807.1962 4765.3959,-684.4289"/>
<polygon fill="#000000" stroke="#000000" points="4768.8954,-684.6072 4766.4094,-674.3082 4761.9303,-683.9096 4768.8954,-684.6072"/>
</g>
<!-- file:///tmp/tmp_47ig48v#output_file_prefix&#45;&gt;file:///tmp/tmp_47ig48v#dragen_qc_step -->
<g id="edge12" class="edge">
<title>file:///tmp/tmp_47ig48v#output_file_prefix&#45;&gt;file:///tmp/tmp_47ig48v#dragen_qc_step</title>
<path fill="none" stroke="#000000" d="M4771,-1387.206C4771,-1286.701 4771,-807.1962 4771,-684.4289"/>
<polygon fill="#000000" stroke="#000000" points="4774.5001,-684.3081 4771,-674.3082 4767.5001,-684.3082 4774.5001,-684.3081"/>
</g>
<!-- file:///tmp/tmp_47ig48v#output_file_prefix&#45;&gt;file:///tmp/tmp_47ig48v#dragen_qc_step -->
<g id="edge13" class="edge">
<title>file:///tmp/tmp_47ig48v#output_file_prefix&#45;&gt;file:///tmp/tmp_47ig48v#dragen_qc_step</title>
<path fill="none" stroke="#000000" d="M4775.5879,-1387.206C4787.1217,-1286.701 4787.4605,-807.1962 4776.6041,-684.4289"/>
<polygon fill="#000000" stroke="#000000" points="4780.0697,-683.9096 4775.5906,-674.3082 4773.1046,-684.6072 4780.0697,-683.9096"/>
</g>
<!-- file:///tmp/tmp_47ig48v#vc_hard_filter -->
<g id="node3" class="node">
<title>file:///tmp/tmp_47ig48v#vc_hard_filter</title>
<g id="a_node3"><a xlink:title="DRAGEN provides post&#45;VCF variant filtering based on annotations present in the VCF records.&#10;However, due to the nature of DRAGEN’s algorithms, which incorporate the hypothesis of correlated errors&#10;from within the core of variant caller, the pipeline has improved capabilities in distinguishing&#10;the true variants from noise, and therefore the dependency on post&#45;VCF filtering is substantially reduced.&#10;For this reason, the default post&#45;VCF filtering in DRAGEN is very simple&#10;">
<polygon fill="#94ddf4" stroke="#000000" points="3977,-1387.2454 3977,-1424.2454 4093,-1424.2454 4093,-1387.2454 3977,-1387.2454"/>
<text text-anchor="middle" x="4035" y="-1402.0454" font-family="Times,serif" font-size="14.00" fill="#000000">vc_hard_filter</text>
</a>
</g>
</g>
<!-- file:///tmp/tmp_47ig48v#vc_hard_filter&#45;&gt;file:///tmp/tmp_47ig48v#run_dragen_germline_step -->
<g id="edge14" class="edge">
<title>file:///tmp/tmp_47ig48v#vc_hard_filter&#45;&gt;file:///tmp/tmp_47ig48v#run_dragen_germline_step</title>
<path fill="none" stroke="#000000" d="M4014.6853,-1387.1848C4002.0735,-1376.5676 3985.0626,-1363.7998 3968,-1355.7454 3534.0717,-1150.9094 2959.9859,-1064.0501 2724.626,-1035.4199"/>
<polygon fill="#000000" stroke="#000000" points="2724.7026,-1031.9038 2714.3554,-1034.1814 2723.8645,-1038.8535 2724.7026,-1031.9038"/>
</g>
<!-- file:///tmp/tmp_47ig48v#enable_map_align_output -->
<g id="node4" class="node">
<title>file:///tmp/tmp_47ig48v#enable_map_align_output</title>
<g id="a_node4"><a xlink:title="Do you wish to have the output bam files present&#10;">
<polygon fill="#94ddf4" stroke="#000000" points="3759,-1387.2454 3759,-1424.2454 3959,-1424.2454 3959,-1387.2454 3759,-1387.2454"/>
<text text-anchor="middle" x="3859" y="-1402.0454" font-family="Times,serif" font-size="14.00" fill="#000000">enable_map_align_output</text>
</a>
</g>
</g>
<!-- file:///tmp/tmp_47ig48v#enable_map_align_output&#45;&gt;file:///tmp/tmp_47ig48v#run_dragen_germline_step -->
<g id="edge15" class="edge">
<title>file:///tmp/tmp_47ig48v#enable_map_align_output&#45;&gt;file:///tmp/tmp_47ig48v#run_dragen_germline_step</title>
<path fill="none" stroke="#000000" d="M3821.7353,-1387.0219C3800.9375,-1376.9882 3774.3785,-1364.8538 3750,-1355.7454 3368.2996,-1213.1334 2896.1978,-1091.8091 2704.264,-1044.7076"/>
<polygon fill="#000000" stroke="#000000" points="2705.0541,-1041.2977 2694.5085,-1042.3183 2703.3889,-1048.0968 2705.0541,-1041.2977"/>
</g>
<!-- file:///tmp/tmp_47ig48v#vc_max_reads_per_active_region -->
<g id="node5" class="node">
<title>file:///tmp/tmp_47ig48v#vc_max_reads_per_active_region</title>
<g id="a_node5"><a xlink:title="specifies the maximum number of reads covering a given active region.&#10;Default is 10000 for the germline workflow&#10;">
<polygon fill="#94ddf4" stroke="#000000" points="3487,-1387.2454 3487,-1424.2454 3741,-1424.2454 3741,-1387.2454 3487,-1387.2454"/>
<text text-anchor="middle" x="3614" y="-1402.0454" font-family="Times,serif" font-size="14.00" fill="#000000">vc_max_reads_per_active_region</text>
</a>
</g>
</g>
<!-- file:///tmp/tmp_47ig48v#vc_max_reads_per_active_region&#45;&gt;file:///tmp/tmp_47ig48v#run_dragen_germline_step -->
<g id="edge16" class="edge">
<title>file:///tmp/tmp_47ig48v#vc_max_reads_per_active_region&#45;&gt;file:///tmp/tmp_47ig48v#run_dragen_germline_step</title>
<path fill="none" stroke="#000000" d="M3565.5757,-1387.1917C3399.6761,-1323.6273 2854.572,-1114.771 2674.9656,-1045.9549"/>
<polygon fill="#000000" stroke="#000000" points="2676.0181,-1042.6101 2665.4278,-1042.3005 2673.5135,-1049.1467 2676.0181,-1042.6101"/>
</g>
<!-- file:///tmp/tmp_47ig48v#dedup_min_qual -->
<g id="node6" class="node">
<title>file:///tmp/tmp_47ig48v#dedup_min_qual</title>
<g id="a_node6"><a xlink:title="Specifies the Phred quality score below which a base should be excluded from the quality score&#10;calculation used for choosing among duplicate reads.&#10;">
<polygon fill="#94ddf4" stroke="#000000" points="3335,-1387.2454 3335,-1424.2454 3469,-1424.2454 3469,-1387.2454 3335,-1387.2454"/>
<text text-anchor="middle" x="3402" y="-1402.0454" font-family="Times,serif" font-size="14.00" fill="#000000">dedup_min_qual</text>
</a>
</g>
</g>
<!-- file:///tmp/tmp_47ig48v#dedup_min_qual&#45;&gt;file:///tmp/tmp_47ig48v#run_dragen_germline_step -->
<g id="edge17" class="edge">
<title>file:///tmp/tmp_47ig48v#dedup_min_qual&#45;&gt;file:///tmp/tmp_47ig48v#run_dragen_germline_step</title>
<path fill="none" stroke="#000000" d="M3375.8527,-1387.1985C3361.4581,-1377.3344 3343.0929,-1365.3047 3326,-1355.7454 3090.0948,-1223.8139 2792.8593,-1096.5127 2671.9328,-1046.2609"/>
<polygon fill="#000000" stroke="#000000" points="2673.0789,-1042.9471 2662.5009,-1042.3492 2670.3972,-1049.4131 2673.0789,-1042.9471"/>
</g>
<!-- file:///tmp/tmp_47ig48v#vc_target_bed_padding -->
<g id="node7" class="node">
<title>file:///tmp/tmp_47ig48v#vc_target_bed_padding</title>
<g id="a_node7"><a xlink:title="This is an optional command line input that can be used to pad all of the target&#10;BED regions with the specified value.&#10;For example, if a BED region is 1:1000&#45;2000 and a padding value of 100 is used,&#10;it is equivalent to using a BED region of 1:900&#45;2100 and a padding value of 0.&#10;Any padding added to &#45;&#45;vc&#45;target&#45;bed&#45;padding is used by the small variant caller&#10;and by the target bed coverage/callability reports. The default padding is 0.&#10;">
<polygon fill="#94ddf4" stroke="#000000" points="3133,-1387.2454 3133,-1424.2454 3317,-1424.2454 3317,-1387.2454 3133,-1387.2454"/>
<text text-anchor="middle" x="3225" y="-1402.0454" font-family="Times,serif" font-size="14.00" fill="#000000">vc_target_bed_padding</text>
</a>
</g>
</g>
<!-- file:///tmp/tmp_47ig48v#vc_target_bed_padding&#45;&gt;file:///tmp/tmp_47ig48v#run_dragen_germline_step -->
<g id="edge18" class="edge">
<title>file:///tmp/tmp_47ig48v#vc_target_bed_padding&#45;&gt;file:///tmp/tmp_47ig48v#run_dragen_germline_step</title>
<path fill="none" stroke="#000000" d="M3195.2633,-1387.0622C3094.7521,-1323.912 2767.7042,-1118.4313 2655.3282,-1047.8266"/>
<polygon fill="#000000" stroke="#000000" points="2657.0089,-1044.7491 2646.6795,-1042.3927 2653.2849,-1050.6764 2657.0089,-1044.7491"/>
</g>
<!-- file:///tmp/tmp_47ig48v#reference_tar -->
<g id="node8" class="node">
<title>file:///tmp/tmp_47ig48v#reference_tar</title>
<g id="a_node8"><a xlink:title="Path to ref data tarball&#10;">
<polygon fill="#94ddf4" stroke="#000000" points="3001,-1387.2454 3001,-1424.2454 3115,-1424.2454 3115,-1387.2454 3001,-1387.2454"/>
<text text-anchor="middle" x="3058" y="-1402.0454" font-family="Times,serif" font-size="14.00" fill="#000000">reference_tar</text>
</a>
</g>
</g>
<!-- file:///tmp/tmp_47ig48v#reference_tar&#45;&gt;file:///tmp/tmp_47ig48v#run_dragen_germline_step -->
<g id="edge19" class="edge">
<title>file:///tmp/tmp_47ig48v#reference_tar&#45;&gt;file:///tmp/tmp_47ig48v#run_dragen_germline_step</title>
<path fill="none" stroke="#000000" d="M3036.4311,-1387.0622C2963.9661,-1324.292 2729.1593,-1120.8993 2646.289,-1049.1159"/>
<polygon fill="#000000" stroke="#000000" points="2648.3776,-1046.2946 2638.5274,-1042.3927 2643.7944,-1051.5856 2648.3776,-1046.2946"/>
</g>
<!-- file:///tmp/tmp_47ig48v#vc_enable_baf -->
<g id="node9" class="node">
<title>file:///tmp/tmp_47ig48v#vc_enable_baf</title>
<g id="a_node9"><a xlink:title="Enable or disable B&#45;allele frequency output. Enabled by default.&#10;">
<polygon fill="#94ddf4" stroke="#000000" points="2865,-1387.2454 2865,-1424.2454 2983,-1424.2454 2983,-1387.2454 2865,-1387.2454"/>
<text text-anchor="middle" x="2924" y="-1402.0454" font-family="Times,serif" font-size="14.00" fill="#000000">vc_enable_baf</text>
</a>
</g>
</g>
<!-- file:///tmp/tmp_47ig48v#vc_enable_baf&#45;&gt;file:///tmp/tmp_47ig48v#run_dragen_germline_step -->
<g id="edge20" class="edge">
<title>file:///tmp/tmp_47ig48v#vc_enable_baf&#45;&gt;file:///tmp/tmp_47ig48v#run_dragen_germline_step</title>
<path fill="none" stroke="#000000" d="M2908.9849,-1387.0622C2858.7933,-1324.6087 2696.7257,-1122.9481 2638.2707,-1050.2125"/>
<polygon fill="#000000" stroke="#000000" points="2640.9787,-1047.9949 2631.9862,-1042.3927 2635.5224,-1052.38 2640.9787,-1047.9949"/>
</g>
<!-- file:///tmp/tmp_47ig48v#vc_decoy_contigs -->
<g id="node10" class="node">
<title>file:///tmp/tmp_47ig48v#vc_decoy_contigs</title>
<g id="a_node10"><a xlink:title="The &#45;&#45;vc&#45;decoy&#45;contigs option specifies a comma&#45;separated list of contigs to skip during variant calling.&#10;This option can be set in the configuration file.&#10;">
<polygon fill="#94ddf4" stroke="#000000" points="2703.5,-1387.2454 2703.5,-1424.2454 2846.5,-1424.2454 2846.5,-1387.2454 2703.5,-1387.2454"/>
<text text-anchor="middle" x="2775" y="-1402.0454" font-family="Times,serif" font-size="14.00" fill="#000000">vc_decoy_contigs</text>
</a>
</g>
</g>
<!-- file:///tmp/tmp_47ig48v#vc_decoy_contigs&#45;&gt;file:///tmp/tmp_47ig48v#run_dragen_germline_step -->
<g id="edge21" class="edge">
<title>file:///tmp/tmp_47ig48v#vc_decoy_contigs&#45;&gt;file:///tmp/tmp_47ig48v#run_dragen_germline_step</title>
<path fill="none" stroke="#000000" d="M2767.2724,-1387.0622C2741.6504,-1325.1155 2659.3812,-1126.2113 2628.6899,-1052.0082"/>
<polygon fill="#000000" stroke="#000000" points="2631.7692,-1050.2957 2624.7128,-1042.3927 2625.3006,-1052.9712 2631.7692,-1050.2957"/>
</g>
<!-- file:///tmp/tmp_47ig48v#vc_roh_blacklist_bed -->
<g id="node11" class="node">
<title>file:///tmp/tmp_47ig48v#vc_roh_blacklist_bed</title>
<g id="a_node11"><a xlink:title="If provided, the ROH caller ignores variants that are contained in any region in the blacklist BED file.&#10;DRAGEN distributes blacklist files for all popular human genomes and automatically selects a blacklist to&#10;match the genome in use, unless this option is used explicitly select a file.&#10;">
<polygon fill="#94ddf4" stroke="#000000" points="2375.5,-1387.2454 2375.5,-1424.2454 2542.5,-1424.2454 2542.5,-1387.2454 2375.5,-1387.2454"/>
<text text-anchor="middle" x="2459" y="-1402.0454" font-family="Times,serif" font-size="14.00" fill="#000000">vc_roh_blacklist_bed</text>
</a>
</g>
</g>
<!-- file:///tmp/tmp_47ig48v#vc_roh_blacklist_bed&#45;&gt;file:///tmp/tmp_47ig48v#run_dragen_germline_step -->
<g id="edge22" class="edge">
<title>file:///tmp/tmp_47ig48v#vc_roh_blacklist_bed&#45;&gt;file:///tmp/tmp_47ig48v#run_dragen_germline_step</title>
<path fill="none" stroke="#000000" d="M2466.7276,-1387.0622C2492.3496,-1325.1155 2574.6188,-1126.2113 2605.3101,-1052.0082"/>
<polygon fill="#000000" stroke="#000000" points="2608.6994,-1052.9712 2609.2872,-1042.3927 2602.2308,-1050.2957 2608.6994,-1052.9712"/>
</g>
<!-- file:///tmp/tmp_47ig48v#vc_enable_roh -->
<g id="node12" class="node">
<title>file:///tmp/tmp_47ig48v#vc_enable_roh</title>
<g id="a_node12"><a xlink:title="Enable or disable the ROH caller by setting this option to true or false. Enabled by default for human autosomes only.&#10;">
<polygon fill="#94ddf4" stroke="#000000" points="2238.5,-1387.2454 2238.5,-1424.2454 2357.5,-1424.2454 2357.5,-1387.2454 2238.5,-1387.2454"/>
<text text-anchor="middle" x="2298" y="-1402.0454" font-family="Times,serif" font-size="14.00" fill="#000000">vc_enable_roh</text>
</a>
</g>
</g>
<!-- file:///tmp/tmp_47ig48v#vc_enable_roh&#45;&gt;file:///tmp/tmp_47ig48v#run_dragen_germline_step -->
<g id="edge23" class="edge">
<title>file:///tmp/tmp_47ig48v#vc_enable_roh&#45;&gt;file:///tmp/tmp_47ig48v#run_dragen_germline_step</title>
<path fill="none" stroke="#000000" d="M2313.602,-1387.0622C2365.7555,-1324.6087 2534.158,-1122.9481 2594.8979,-1050.2125"/>
<polygon fill="#000000" stroke="#000000" points="2597.7047,-1052.3118 2601.428,-1042.3927 2592.3318,-1047.8249 2597.7047,-1052.3118"/>
</g>
<!-- file:///tmp/tmp_47ig48v#fastq_list_rows -->
<g id="node13" class="node">
<title>file:///tmp/tmp_47ig48v#fastq_list_rows</title>
<g id="a_node13"><a xlink:title="The row of fastq lists.&#10;Each row has the following attributes:&#10; &#160;* RGID&#10; &#160;* RGLB&#10; &#160;* RGSM&#10; &#160;* Lane&#10; &#160;* Read1File&#10; &#160;* Read2File (optional)&#10;">
<polygon fill="#94ddf4" stroke="#000000" points="2560.5,-1387.2454 2560.5,-1424.2454 2685.5,-1424.2454 2685.5,-1387.2454 2560.5,-1387.2454"/>
<text text-anchor="middle" x="2623" y="-1402.0454" font-family="Times,serif" font-size="14.00" fill="#000000">fastq_list_rows</text>
</a>
</g>
</g>
<!-- file:///tmp/tmp_47ig48v#create_fastq_list_csv_step -->
<g id="node33" class="node">
<title>file:///tmp/tmp_47ig48v#create_fastq_list_csv_step</title>
<g id="a_node33"><a xlink:href="https://github.com/umccr/cwl-ica/blob/beta-release/.github/catalogue/docs/tools/custom-create-csv-from-fastq-list-rows/1.0.0/custom-create-csv-from-fastq-list-rows__1.0.0.md" xlink:title="Create the fastq list csv to then run the germline tool.&#10;Takes in an array of fastq_list_row schema.&#10;Returns a csv file along with predefined_mount_path schema&#10;">
<polygon fill="#fafad2" stroke="#000000" points="0,-1387.2454 0,-1424.2454 344,-1424.2454 344,-1387.2454 0,-1387.2454"/>
<text text-anchor="middle" x="172" y="-1402.0454" font-family="Times,serif" font-size="14.00" fill="#000000">custom&#45;create&#45;csv&#45;from&#45;fastq&#45;list&#45;row v(1.0.0)</text>
</a>
</g>
</g>
<!-- file:///tmp/tmp_47ig48v#fastq_list_rows&#45;&gt;file:///tmp/tmp_47ig48v#create_fastq_list_csv_step -->
<g id="edge24" class="edge">
<title>file:///tmp/tmp_47ig48v#fastq_list_rows&#45;&gt;file:///tmp/tmp_47ig48v#create_fastq_list_csv_step</title>
<path fill="none" stroke="#000000" d="M2597.7987,-1424.3689C2582.7315,-1434.3267 2562.7315,-1445.5767 2543,-1450.7454 2425.6268,-1481.4914 479.4885,-1465.0387 359,-1450.7454 320.2182,-1446.1448 277.8417,-1436.3556 243.2494,-1427.0788"/>
<polygon fill="#000000" stroke="#000000" points="243.8122,-1423.6046 233.2438,-1424.3521 241.9717,-1430.3583 243.8122,-1423.6046"/>
</g>
<!-- file:///tmp/tmp_47ig48v#vc_enable_vcf_output -->
<g id="node14" class="node">
<title>file:///tmp/tmp_47ig48v#vc_enable_vcf_output</title>
<g id="a_node14"><a xlink:title="The –vc&#45;enable&#45;vcf&#45;output option enables VCF file output during a gVCF run. The default value is false.&#10;">
<polygon fill="#94ddf4" stroke="#000000" points="2048,-1387.2454 2048,-1424.2454 2220,-1424.2454 2220,-1387.2454 2048,-1387.2454"/>
<text text-anchor="middle" x="2134" y="-1402.0454" font-family="Times,serif" font-size="14.00" fill="#000000">vc_enable_vcf_output</text>
</a>
</g>
</g>
<!-- file:///tmp/tmp_47ig48v#vc_enable_vcf_output&#45;&gt;file:///tmp/tmp_47ig48v#run_dragen_germline_step -->
<g id="edge25" class="edge">
<title>file:///tmp/tmp_47ig48v#vc_enable_vcf_output&#45;&gt;file:///tmp/tmp_47ig48v#run_dragen_germline_step</title>
<path fill="none" stroke="#000000" d="M2157.6231,-1387.0622C2237.1496,-1324.1654 2495.1976,-1120.0778 2585.4691,-1048.6829"/>
<polygon fill="#000000" stroke="#000000" points="2587.7501,-1051.3412 2593.4224,-1042.3927 2583.4078,-1045.8508 2587.7501,-1051.3412"/>
</g>
<!-- file:///tmp/tmp_47ig48v#enable_duplicate_marking -->
<g id="node15" class="node">
<title>file:///tmp/tmp_47ig48v#enable_duplicate_marking</title>
<g id="a_node15"><a xlink:title="Mark identical alignments as duplicates&#10;">
<polygon fill="#94ddf4" stroke="#000000" points="1824,-1387.2454 1824,-1424.2454 2030,-1424.2454 2030,-1387.2454 1824,-1387.2454"/>
<text text-anchor="middle" x="1927" y="-1402.0454" font-family="Times,serif" font-size="14.00" fill="#000000">enable_duplicate_marking</text>
</a>
</g>
</g>
<!-- file:///tmp/tmp_47ig48v#enable_duplicate_marking&#45;&gt;file:///tmp/tmp_47ig48v#run_dragen_germline_step -->
<g id="edge26" class="edge">
<title>file:///tmp/tmp_47ig48v#enable_duplicate_marking&#45;&gt;file:///tmp/tmp_47ig48v#run_dragen_germline_step</title>
<path fill="none" stroke="#000000" d="M1960.7472,-1387.0622C2075.0431,-1323.7853 2447.4607,-1117.6063 2574.2671,-1047.4034"/>
<polygon fill="#000000" stroke="#000000" points="2576.2642,-1050.2983 2583.3177,-1042.3927 2572.8737,-1044.1742 2576.2642,-1050.2983"/>
</g>
<!-- file:///tmp/tmp_47ig48v#sample_sex -->
<g id="node16" class="node">
<title>file:///tmp/tmp_47ig48v#sample_sex</title>
<g id="a_node16"><a xlink:title="Specifies the sex of a sample&#10;">
<polygon fill="#94ddf4" stroke="#000000" points="1706.5,-1387.2454 1706.5,-1424.2454 1805.5,-1424.2454 1805.5,-1387.2454 1706.5,-1387.2454"/>
<text text-anchor="middle" x="1756" y="-1402.0454" font-family="Times,serif" font-size="14.00" fill="#000000">sample_sex</text>
</a>
</g>
</g>
<!-- file:///tmp/tmp_47ig48v#sample_sex&#45;&gt;file:///tmp/tmp_47ig48v#run_dragen_germline_step -->
<g id="edge27" class="edge">
<title>file:///tmp/tmp_47ig48v#sample_sex&#45;&gt;file:///tmp/tmp_47ig48v#run_dragen_germline_step</title>
<path fill="none" stroke="#000000" d="M1774.7567,-1387.2169C1785.8088,-1377.0002 1800.443,-1364.6254 1815,-1355.7454 2065.7306,-1202.7958 2399.5315,-1090.3043 2544.5933,-1045.318"/>
<polygon fill="#000000" stroke="#000000" points="2545.7678,-1048.6185 2554.2903,-1042.3243 2543.7028,-1041.93 2545.7678,-1048.6185"/>
</g>
<!-- file:///tmp/tmp_47ig48v#dbsnp_annotation -->
<g id="node17" class="node">
<title>file:///tmp/tmp_47ig48v#dbsnp_annotation</title>
<g id="a_node17"><a xlink:title="In Germline, Tumor&#45;Normal somatic, or Tumor&#45;Only somatic modes,&#10;DRAGEN can look up variant calls in a dbSNP database and add annotations for any matches that it finds there.&#10;To enable the dbSNP database search, set the &#45;&#45;dbsnp option to the full path to the dbSNP database&#10;VCF or .vcf.gz file, which must be sorted in reference order.&#10;">
<polygon fill="#94ddf4" stroke="#000000" points="1544,-1387.2454 1544,-1424.2454 1688,-1424.2454 1688,-1387.2454 1544,-1387.2454"/>
<text text-anchor="middle" x="1616" y="-1402.0454" font-family="Times,serif" font-size="14.00" fill="#000000">dbsnp_annotation</text>
</a>
</g>
</g>
<!-- file:///tmp/tmp_47ig48v#dbsnp_annotation&#45;&gt;file:///tmp/tmp_47ig48v#run_dragen_germline_step -->
<g id="edge28" class="edge">
<title>file:///tmp/tmp_47ig48v#dbsnp_annotation&#45;&gt;file:///tmp/tmp_47ig48v#run_dragen_germline_step</title>
<path fill="none" stroke="#000000" d="M1643.3055,-1387.1868C1658.8958,-1377.0834 1679.0561,-1364.8291 1698,-1355.7454 2000.09,-1210.8918 2383.0111,-1091.9489 2542.2672,-1045.1458"/>
<polygon fill="#000000" stroke="#000000" points="2543.3613,-1048.4725 2551.9734,-1042.3014 2541.3927,-1041.755 2543.3613,-1048.4725"/>
</g>
<!-- file:///tmp/tmp_47ig48v#vc_max_reads_per_raw_region -->
<g id="node18" class="node">
<title>file:///tmp/tmp_47ig48v#vc_max_reads_per_raw_region</title>
<g id="a_node18"><a xlink:title="specifies the maximum number of reads covering a given raw region.&#10;Default is 30000 for the germline workflow&#10;">
<polygon fill="#94ddf4" stroke="#000000" points="1288.5,-1387.2454 1288.5,-1424.2454 1525.5,-1424.2454 1525.5,-1387.2454 1288.5,-1387.2454"/>
<text text-anchor="middle" x="1407" y="-1402.0454" font-family="Times,serif" font-size="14.00" fill="#000000">vc_max_reads_per_raw_region</text>
</a>
</g>
</g>
<!-- file:///tmp/tmp_47ig48v#vc_max_reads_per_raw_region&#45;&gt;file:///tmp/tmp_47ig48v#run_dragen_germline_step -->
<g id="edge29" class="edge">
<title>file:///tmp/tmp_47ig48v#vc_max_reads_per_raw_region&#45;&gt;file:///tmp/tmp_47ig48v#run_dragen_germline_step</title>
<path fill="none" stroke="#000000" d="M1452.0113,-1387.2139C1476.4067,-1377.4111 1507.1745,-1365.4339 1535,-1355.7454 1908.349,-1225.7501 2363.1752,-1095.0193 2540.8006,-1045.0039"/>
<polygon fill="#000000" stroke="#000000" points="2541.8967,-1048.3316 2550.5753,-1042.2543 2540.0011,-1041.5931 2541.8967,-1048.3316"/>
</g>
<!-- file:///tmp/tmp_47ig48v#vc_target_bed -->
<g id="node19" class="node">
<title>file:///tmp/tmp_47ig48v#vc_target_bed</title>
<g id="a_node19"><a xlink:title="This is an optional command line input that restricts processing of the small variant caller,&#10;target bed related coverage, and callability metrics to regions specified in a BED file.&#10;">
<polygon fill="#94ddf4" stroke="#000000" points="1151.5,-1387.2454 1151.5,-1424.2454 1270.5,-1424.2454 1270.5,-1387.2454 1151.5,-1387.2454"/>
<text text-anchor="middle" x="1211" y="-1402.0454" font-family="Times,serif" font-size="14.00" fill="#000000">vc_target_bed</text>
</a>
</g>
</g>
<!-- file:///tmp/tmp_47ig48v#vc_target_bed&#45;&gt;file:///tmp/tmp_47ig48v#run_dragen_germline_step -->
<g id="edge30" class="edge">
<title>file:///tmp/tmp_47ig48v#vc_target_bed&#45;&gt;file:///tmp/tmp_47ig48v#run_dragen_germline_step</title>
<path fill="none" stroke="#000000" d="M1232.0179,-1387.2241C1245.0404,-1376.6209 1262.5612,-1363.8539 1280,-1355.7454 1710.0581,-1155.7816 2276.0979,-1066.398 2509.4034,-1036.2647"/>
<polygon fill="#000000" stroke="#000000" points="2510.1123,-1039.7025 2519.5863,-1034.9599 2509.2226,-1032.7593 2510.1123,-1039.7025"/>
</g>
<!-- file:///tmp/tmp_47ig48v#lic_instance_id_location -->
<g id="node20" class="node">
<title>file:///tmp/tmp_47ig48v#lic_instance_id_location</title>
<g id="a_node20"><a xlink:title="You may wish to place your own in.&#10;Optional value, default set to /opt/instance&#45;identity&#10;which is a path inside the dragen container&#10;">
<polygon fill="#94ddf4" stroke="#000000" points="945,-1387.2454 945,-1424.2454 1133,-1424.2454 1133,-1387.2454 945,-1387.2454"/>
<text text-anchor="middle" x="1039" y="-1402.0454" font-family="Times,serif" font-size="14.00" fill="#000000">lic_instance_id_location</text>
</a>
</g>
</g>
<!-- file:///tmp/tmp_47ig48v#lic_instance_id_location&#45;&gt;file:///tmp/tmp_47ig48v#run_dragen_germline_step -->
<g id="edge31" class="edge">
<title>file:///tmp/tmp_47ig48v#lic_instance_id_location&#45;&gt;file:///tmp/tmp_47ig48v#run_dragen_germline_step</title>
<path fill="none" stroke="#000000" d="M1072.8356,-1387.0656C1092.7809,-1376.6723 1118.7809,-1364.1723 1143,-1355.7454 1639.9634,-1182.8296 2263.1279,-1077.0547 2509.5898,-1039.369"/>
<polygon fill="#000000" stroke="#000000" points="2510.2614,-1042.8071 2519.6203,-1037.8411 2509.2072,-1035.887 2510.2614,-1042.8071"/>
</g>
<!-- file:///tmp/tmp_47ig48v#vc_remove_all_soft_clips -->
<g id="node21" class="node">
<title>file:///tmp/tmp_47ig48v#vc_remove_all_soft_clips</title>
<g id="a_node21"><a xlink:title="If is set to true, the variant caller does not use soft clips of reads to determine variants.&#10;">
<polygon fill="#94ddf4" stroke="#000000" points="733,-1387.2454 733,-1424.2454 927,-1424.2454 927,-1387.2454 733,-1387.2454"/>
<text text-anchor="middle" x="830" y="-1402.0454" font-family="Times,serif" font-size="14.00" fill="#000000">vc_remove_all_soft_clips</text>
</a>
</g>
</g>
<!-- file:///tmp/tmp_47ig48v#vc_remove_all_soft_clips&#45;&gt;file:///tmp/tmp_47ig48v#run_dragen_germline_step -->
<g id="edge32" class="edge">
<title>file:///tmp/tmp_47ig48v#vc_remove_all_soft_clips&#45;&gt;file:///tmp/tmp_47ig48v#run_dragen_germline_step</title>
<path fill="none" stroke="#000000" d="M863.9701,-1387.0954C884.346,-1376.5811 911.0669,-1363.9491 936,-1355.7454 1513.1555,-1165.8447 2239.4035,-1067.6296 2509.4448,-1035.6811"/>
<polygon fill="#000000" stroke="#000000" points="2510.1121,-1039.1268 2519.6342,-1034.4815 2509.2935,-1032.1748 2510.1121,-1039.1268"/>
</g>
<!-- file:///tmp/tmp_47ig48v#output_directory -->
<g id="node22" class="node">
<title>file:///tmp/tmp_47ig48v#output_directory</title>
<g id="a_node22"><a xlink:title="The directory where all output files are placed&#10;">
<polygon fill="#94ddf4" stroke="#000000" points="577.5,-1387.2454 577.5,-1424.2454 714.5,-1424.2454 714.5,-1387.2454 577.5,-1387.2454"/>
<text text-anchor="middle" x="646" y="-1402.0454" font-family="Times,serif" font-size="14.00" fill="#000000">output_directory</text>
</a>
</g>
</g>
<!-- file:///tmp/tmp_47ig48v#output_directory&#45;&gt;file:///tmp/tmp_47ig48v#run_dragen_germline_step -->
<g id="edge33" class="edge">
<title>file:///tmp/tmp_47ig48v#output_directory&#45;&gt;file:///tmp/tmp_47ig48v#run_dragen_germline_step</title>
<path fill="none" stroke="#000000" d="M669.5876,-1387.0999C684.4039,-1376.3144 704.3685,-1363.4011 724,-1355.7454 1369.9261,-1103.8545 2214.4088,-1042.144 2509.5896,-1027.8342"/>
<polygon fill="#000000" stroke="#000000" points="2510.0351,-1031.317 2519.8572,-1027.3449 2509.7019,-1024.3249 2510.0351,-1031.317"/>
</g>
<!-- file:///tmp/tmp_47ig48v#vc_enable_decoy_contigs -->
<g id="node23" class="node">
<title>file:///tmp/tmp_47ig48v#vc_enable_decoy_contigs</title>
<g id="a_node23"><a xlink:title="If &#45;&#45;vc&#45;enable&#45;decoy&#45;contigs is set to true, variant calls on the decoy contigs are enabled.&#10;The default value is false.&#10;">
<polygon fill="#94ddf4" stroke="#000000" points="362.5,-1387.2454 362.5,-1424.2454 559.5,-1424.2454 559.5,-1387.2454 362.5,-1387.2454"/>
<text text-anchor="middle" x="461" y="-1402.0454" font-family="Times,serif" font-size="14.00" fill="#000000">vc_enable_decoy_contigs</text>
</a>
</g>
</g>
<!-- file:///tmp/tmp_47ig48v#vc_enable_decoy_contigs&#45;&gt;file:///tmp/tmp_47ig48v#run_dragen_germline_step -->
<g id="edge34" class="edge">
<title>file:///tmp/tmp_47ig48v#vc_enable_decoy_contigs&#45;&gt;file:///tmp/tmp_47ig48v#run_dragen_germline_step</title>
<path fill="none" stroke="#000000" d="M495.0692,-1387.0468C515.8676,-1376.3808 543.3167,-1363.61 569,-1355.7454 1290.1018,-1134.9351 2201.5783,-1053.2356 2509.6897,-1030.7994"/>
<polygon fill="#000000" stroke="#000000" points="2510.2319,-1034.2694 2519.9537,-1030.0577 2509.7274,-1027.2876 2510.2319,-1034.2694"/>
</g>
<!-- file:///tmp/tmp_47ig48v#vc_enable_phasing -->
<g id="node24" class="node">
<title>file:///tmp/tmp_47ig48v#vc_enable_phasing</title>
<g id="a_node24"><a xlink:title="The –vc&#45;enable&#45;phasing option enables variants to be phased when possible. The default value is true.&#10;">
<polygon fill="#94ddf4" stroke="#000000" points="4529,-1387.2454 4529,-1424.2454 4681,-1424.2454 4681,-1387.2454 4529,-1387.2454"/>
<text text-anchor="middle" x="4605" y="-1402.0454" font-family="Times,serif" font-size="14.00" fill="#000000">vc_enable_phasing</text>
</a>
</g>
</g>
<!-- file:///tmp/tmp_47ig48v#vc_enable_phasing&#45;&gt;file:///tmp/tmp_47ig48v#run_dragen_germline_step -->
<g id="edge35" class="edge">
<title>file:///tmp/tmp_47ig48v#vc_enable_phasing&#45;&gt;file:///tmp/tmp_47ig48v#run_dragen_germline_step</title>
<path fill="none" stroke="#000000" d="M4579.0509,-1387.1584C4562.8156,-1376.3943 4541.0512,-1363.4828 4520,-1355.7454 3865.9247,-1115.3398 3019.9337,-1046.4702 2724.4737,-1029.0563"/>
<polygon fill="#000000" stroke="#000000" points="2724.3832,-1025.5452 2714.1967,-1028.4583 2723.9765,-1032.5334 2724.3832,-1025.5452"/>
</g>
<!-- file:///tmp/tmp_47ig48v#vc_enable_gatk_acceleration -->
<g id="node25" class="node">
<title>file:///tmp/tmp_47ig48v#vc_enable_gatk_acceleration</title>
<g id="a_node25"><a xlink:title="If is set to true, the variant caller runs in GATK mode&#10;(concordant with GATK 3.7 in germline mode and GATK 4.0 in somatic mode).&#10;">
<polygon fill="#94ddf4" stroke="#000000" points="4111,-1387.2454 4111,-1424.2454 4335,-1424.2454 4335,-1387.2454 4111,-1387.2454"/>
<text text-anchor="middle" x="4223" y="-1402.0454" font-family="Times,serif" font-size="14.00" fill="#000000">vc_enable_gatk_acceleration</text>
</a>
</g>
</g>
<!-- file:///tmp/tmp_47ig48v#vc_enable_gatk_acceleration&#45;&gt;file:///tmp/tmp_47ig48v#run_dragen_germline_step -->
<g id="edge36" class="edge">
<title>file:///tmp/tmp_47ig48v#vc_enable_gatk_acceleration&#45;&gt;file:///tmp/tmp_47ig48v#run_dragen_germline_step</title>
<path fill="none" stroke="#000000" d="M4183.0341,-1387.1959C4159.7572,-1376.9096 4129.6351,-1364.473 4102,-1355.7454 3596.3663,-1196.0583 2970.7312,-1082.684 2724.1033,-1041.1651"/>
<polygon fill="#000000" stroke="#000000" points="2724.5088,-1037.6843 2714.0672,-1039.4801 2723.3496,-1044.5876 2724.5088,-1037.6843"/>
</g>
<!-- file:///tmp/tmp_47ig48v#dragen_bam_out -->
<g id="node26" class="node">
<title>file:///tmp/tmp_47ig48v#dragen_bam_out</title>
<g id="a_node26"><a xlink:title="The output bam file, exists only if &#45;&#45;enable&#45;map&#45;align&#45;output is set to true&#10;">
<polygon fill="#94ddf4" stroke="#000000" points="2440,-269.2454 2440,-306.2454 2576,-306.2454 2576,-269.2454 2440,-269.2454"/>
<text text-anchor="middle" x="2508" y="-284.0454" font-family="Times,serif" font-size="14.00" fill="#000000">dragen_bam_out</text>
</a>
</g>
</g>
<!-- file:///tmp/tmp_47ig48v#multiqc_output_directory -->
<g id="node27" class="node">
<title>file:///tmp/tmp_47ig48v#multiqc_output_directory</title>
<g id="a_node27"><a xlink:title="The output directory for multiqc&#10;">
<polygon fill="#94ddf4" stroke="#000000" points="3024,-269.2454 3024,-306.2454 3224,-306.2454 3224,-269.2454 3024,-269.2454"/>
<text text-anchor="middle" x="3124" y="-284.0454" font-family="Times,serif" font-size="14.00" fill="#000000">multiqc_output_directory</text>
</a>
</g>
</g>
<!-- file:///tmp/tmp_47ig48v#dragen_germline_output_directory -->
<g id="node28" class="node">
<title>file:///tmp/tmp_47ig48v#dragen_germline_output_directory</title>
<g id="a_node28"><a xlink:title="The output directory containing all germline output files&#10;">
<polygon fill="#94ddf4" stroke="#000000" points="2594,-269.2454 2594,-306.2454 2860,-306.2454 2860,-269.2454 2594,-269.2454"/>
<text text-anchor="middle" x="2727" y="-284.0454" font-family="Times,serif" font-size="14.00" fill="#000000">dragen_germline_output_directory</text>
</a>
</g>
</g>
<!-- file:///tmp/tmp_47ig48v#dragen_vcf_out -->
<g id="node29" class="node">
<title>file:///tmp/tmp_47ig48v#dragen_vcf_out</title>
<g id="a_node29"><a xlink:title="The output germline vcf file&#10;">
<polygon fill="#94ddf4" stroke="#000000" points="2878.5,-269.2454 2878.5,-306.2454 3005.5,-306.2454 3005.5,-269.2454 2878.5,-269.2454"/>
<text text-anchor="middle" x="2942" y="-284.0454" font-family="Times,serif" font-size="14.00" fill="#000000">dragen_vcf_out</text>
</a>
</g>
</g>
<!-- file:///tmp/tmp_47ig48v#run_dragen_germline_step&#45;&gt;file:///tmp/tmp_47ig48v#dragen_bam_out -->
<g id="edge2" class="edge">
<title>file:///tmp/tmp_47ig48v#run_dragen_germline_step&#45;&gt;file:///tmp/tmp_47ig48v#dragen_bam_out</title>
<path fill="none" stroke="#000000" d="M2614.2511,-1005.1839C2599.54,-905.8506 2530.1178,-437.0916 2512.2184,-316.2295"/>
<polygon fill="#000000" stroke="#000000" points="2515.6688,-315.636 2510.7415,-306.2567 2508.7443,-316.6616 2515.6688,-315.636"/>
</g>
<!-- file:///tmp/tmp_47ig48v#run_dragen_germline_step&#45;&gt;file:///tmp/tmp_47ig48v#dragen_germline_output_directory -->
<g id="edge3" class="edge">
<title>file:///tmp/tmp_47ig48v#run_dragen_germline_step&#45;&gt;file:///tmp/tmp_47ig48v#dragen_germline_output_directory</title>
<path fill="none" stroke="#000000" d="M2619.7741,-1005.1839C2634.6201,-905.8506 2704.6792,-437.0916 2722.7429,-316.2295"/>
<polygon fill="#000000" stroke="#000000" points="2726.2167,-316.6642 2724.2334,-306.2567 2719.2936,-315.6295 2726.2167,-316.6642"/>
</g>
<!-- file:///tmp/tmp_47ig48v#run_dragen_germline_step&#45;&gt;file:///tmp/tmp_47ig48v#dragen_vcf_out -->
<g id="edge4" class="edge">
<title>file:///tmp/tmp_47ig48v#run_dragen_germline_step&#45;&gt;file:///tmp/tmp_47ig48v#dragen_vcf_out</title>
<path fill="none" stroke="#000000" d="M2625.1963,-1005.1839C2669.1478,-905.6508 2876.8859,-435.2037 2929.7424,-315.5042"/>
<polygon fill="#000000" stroke="#000000" points="2932.9881,-316.8184 2933.8259,-306.2567 2926.5846,-313.9907 2932.9881,-316.8184"/>
</g>
<!-- file:///tmp/tmp_47ig48v#run_dragen_germline_step&#45;&gt;file:///tmp/tmp_47ig48v#dragen_qc_step -->
<g id="edge1" class="edge">
<title>file:///tmp/tmp_47ig48v#run_dragen_germline_step&#45;&gt;file:///tmp/tmp_47ig48v#dragen_qc_step</title>
<path fill="none" stroke="#000000" d="M2714.0898,-1007.1581C3077.9639,-944.9921 4357.0211,-726.4716 4690.8276,-669.4425"/>
<polygon fill="#000000" stroke="#000000" points="4691.6283,-672.8565 4700.896,-667.7223 4690.4494,-665.9564 4691.6283,-672.8565"/>
</g>
<!-- file:///tmp/tmp_47ig48v#dragen_qc_step&#45;&gt;file:///tmp/tmp_47ig48v#multiqc_output_directory -->
<g id="edge5" class="edge">
<title>file:///tmp/tmp_47ig48v#dragen_qc_step&#45;&gt;file:///tmp/tmp_47ig48v#multiqc_output_directory</title>
<path fill="none" stroke="#000000" d="M4700.7573,-640.0506C4438.187,-581.3828 3514.2487,-374.9412 3216.9201,-308.5071"/>
<polygon fill="#000000" stroke="#000000" points="3217.5558,-305.063 3207.0333,-306.2981 3216.0294,-311.8945 3217.5558,-305.063"/>
</g>
<!-- file:///tmp/tmp_47ig48v#create_dummy_file_step -->
<g id="node32" class="node">
<title>file:///tmp/tmp_47ig48v#create_dummy_file_step</title>
<g id="a_node32"><a xlink:href="https://github.com/umccr/cwl-ica/blob/beta-release/.github/catalogue/docs/tools/custom-touch-file/1.0.0/custom-touch-file__1.0.0.md" xlink:title="Intermediate step for letting multiqc&#45;interop be placed in stream mode&#10;">
<polygon fill="#fafad2" stroke="#000000" points="4817.5,-1005.2454 4817.5,-1042.2454 5080.5,-1042.2454 5080.5,-1005.2454 4817.5,-1005.2454"/>
<text text-anchor="middle" x="4949" y="-1020.0454" font-family="Times,serif" font-size="14.00" fill="#000000">custom&#45;create&#45;dummy&#45;file v(1.0.0)</text>
</a>
</g>
</g>
<!-- file:///tmp/tmp_47ig48v#create_dummy_file_step&#45;&gt;file:///tmp/tmp_47ig48v#dragen_qc_step -->
<g id="edge6" class="edge">
<title>file:///tmp/tmp_47ig48v#create_dummy_file_step&#45;&gt;file:///tmp/tmp_47ig48v#dragen_qc_step</title>
<path fill="none" stroke="#000000" d="M4940.051,-1005.244C4911.0309,-945.2476 4819.4018,-755.812 4784.5948,-683.8516"/>
<polygon fill="#000000" stroke="#000000" points="4787.5781,-681.9812 4780.073,-674.503 4781.2766,-685.0293 4787.5781,-681.9812"/>
</g>
<!-- file:///tmp/tmp_47ig48v#create_fastq_list_csv_step&#45;&gt;file:///tmp/tmp_47ig48v#run_dragen_germline_step -->
<g id="edge7" class="edge">
<title>file:///tmp/tmp_47ig48v#create_fastq_list_csv_step&#45;&gt;file:///tmp/tmp_47ig48v#run_dragen_germline_step</title>
<path fill="none" stroke="#000000" d="M222.9847,-1387.1579C256.313,-1376.7954 300.813,-1364.2954 341,-1355.7454 1167.2311,-1179.9612 2182.6857,-1067.3556 2510.0035,-1034.0739"/>
<polygon fill="#000000" stroke="#000000" points="2510.3582,-1037.5559 2519.9541,-1033.065 2509.652,-1030.5916 2510.3582,-1037.5559"/>
</g>
<!-- file:///tmp/tmp_47ig48v#create_fastq_list_csv_step&#45;&gt;file:///tmp/tmp_47ig48v#run_dragen_germline_step -->
<g id="edge8" class="edge">
<title>file:///tmp/tmp_47ig48v#create_fastq_list_csv_step&#45;&gt;file:///tmp/tmp_47ig48v#run_dragen_germline_step</title>
<path fill="none" stroke="#000000" d="M238.7347,-1387.1579C274.313,-1376.7954 318.813,-1364.2954 359,-1355.7454 1178.088,-1181.4809 2183.1417,-1069.3073 2509.3494,-1034.9548"/>
<polygon fill="#000000" stroke="#000000" points="2510.1555,-1038.3895 2519.7349,-1033.8633 2509.4238,-1031.4278 2510.1555,-1038.3895"/>
</g>
</g>
</svg>
