<?xml version="1.0" encoding="UTF-8" standalone="no"?>
<!DOCTYPE svg PUBLIC "-//W3C//DTD SVG 1.1//EN"
 "http://www.w3.org/Graphics/SVG/1.1/DTD/svg11.dtd">
<!-- Generated by graphviz version 2.40.1 (20161225.0304)
 -->
<!-- Title: G Pages: 1 -->
<svg width="5089pt" height="1588pt"
 viewBox="0.00 0.00 5088.50 1587.88" xmlns="http://www.w3.org/2000/svg" xmlns:xlink="http://www.w3.org/1999/xlink">
<g id="graph0" class="graph" transform="scale(1 1) rotate(0) translate(4 1583.88)">
<title>G</title>
<polygon fill="#eeeeee" stroke="transparent" points="-4,4 -4,-1583.88 5084.5,-1583.88 5084.5,4 -4,4"/>
<g id="clust1" class="cluster">
<title>cluster_inputs</title>
<polygon fill="#eeeeee" stroke="#000000" stroke-dasharray="5,2" points="354,-1157.585 354,-1540.1346 4851,-1540.1346 4851,-1157.585 354,-1157.585"/>
<text text-anchor="middle" x="4783" y="-1165.385" font-family="Times,serif" font-size="14.00" fill="#000000">Workflow Inputs</text>
</g>
<g id="clust2" class="cluster">
<title>cluster_outputs</title>
<polygon fill="#eeeeee" stroke="#000000" stroke-dasharray="5,2" points="2478,-39.7454 2478,-422.295 3278,-422.295 3278,-39.7454 2478,-39.7454"/>
<text text-anchor="middle" x="3204" y="-47.5454" font-family="Times,serif" font-size="14.00" fill="#000000">Workflow Outputs</text>
</g>
<!-- file:///tmp/tmpo6uo5y1j#vc_enable_baf -->
<g id="node1" class="node">
<title>file:///tmp/tmpo6uo5y1j#vc_enable_baf</title>
<g id="a_node1"><a xlink:title="Enable or disable B&#45;allele frequency output. Enabled by default.&#10;">
<polygon fill="#94ddf4" stroke="#000000" points="4308,-1387.2454 4308,-1424.2454 4426,-1424.2454 4426,-1387.2454 4308,-1387.2454"/>
<text text-anchor="middle" x="4367" y="-1402.0454" font-family="Times,serif" font-size="14.00" fill="#000000">vc_enable_baf</text>
</a>
</g>
</g>
<!-- file:///tmp/tmpo6uo5y1j#run_dragen_germline_step -->
<g id="node31" class="node">
<title>file:///tmp/tmpo6uo5y1j#run_dragen_germline_step</title>
<g id="a_node31"><a xlink:href="https://github.com/umccr/cwl-ica/blob/main/.github/catalogue/docs/tools/dragen-germline/3.7.5/dragen-germline__3.7.5.md" xlink:title="Runs the dragen germline workflow on the FPGA.&#10;Takes in a fastq list and corresponding mount paths from the predefined_mount_paths.&#10;All other options available at the top of the workflow&#10;">
<polygon fill="#fafad2" stroke="#000000" points="2651,-1005.2454 2651,-1042.2454 2845,-1042.2454 2845,-1005.2454 2651,-1005.2454"/>
<text text-anchor="middle" x="2748" y="-1020.0454" font-family="Times,serif" font-size="14.00" fill="#000000">dragen&#45;germline v(3.7.5)</text>
</a>
</g>
</g>
<!-- file:///tmp/tmpo6uo5y1j#vc_enable_baf&#45;&gt;file:///tmp/tmpo6uo5y1j#run_dragen_germline_step -->
<g id="edge9" class="edge">
<title>file:///tmp/tmpo6uo5y1j#vc_enable_baf&#45;&gt;file:///tmp/tmpo6uo5y1j#run_dragen_germline_step</title>
<path fill="none" stroke="#000000" d="M4346.4239,-1387.0073C4333.6387,-1376.3272 4316.3748,-1363.5556 4299,-1355.7454 3789.9758,-1126.933 3114.8346,-1052.3303 2855.6222,-1031.1771"/>
<polygon fill="#000000" stroke="#000000" points="2855.7063,-1027.6726 2845.4573,-1030.3577 2855.1437,-1034.65 2855.7063,-1027.6726"/>
</g>
<!-- file:///tmp/tmpo6uo5y1j#vc_enable_gatk_acceleration -->
<g id="node2" class="node">
<title>file:///tmp/tmpo6uo5y1j#vc_enable_gatk_acceleration</title>
<g id="a_node2"><a xlink:title="If is set to true, the variant caller runs in GATK mode&#10;(concordant with GATK 3.7 in germline mode and GATK 4.0 in somatic mode).&#10;">
<polygon fill="#94ddf4" stroke="#000000" points="4066,-1387.2454 4066,-1424.2454 4290,-1424.2454 4290,-1387.2454 4066,-1387.2454"/>
<text text-anchor="middle" x="4178" y="-1402.0454" font-family="Times,serif" font-size="14.00" fill="#000000">vc_enable_gatk_acceleration</text>
</a>
</g>
</g>
<!-- file:///tmp/tmpo6uo5y1j#vc_enable_gatk_acceleration&#45;&gt;file:///tmp/tmpo6uo5y1j#run_dragen_germline_step -->
<g id="edge10" class="edge">
<title>file:///tmp/tmpo6uo5y1j#vc_enable_gatk_acceleration&#45;&gt;file:///tmp/tmpo6uo5y1j#run_dragen_germline_step</title>
<path fill="none" stroke="#000000" d="M4137.1127,-1387.1317C4113.9214,-1377.011 4084.1846,-1364.7578 4057,-1355.7454 3615.3664,-1209.3328 3071.8231,-1090.4089 2849.7597,-1044.3389"/>
<polygon fill="#000000" stroke="#000000" points="2850.2521,-1040.8667 2839.7502,-1042.2665 2848.8329,-1047.7213 2850.2521,-1040.8667"/>
</g>
<!-- file:///tmp/tmpo6uo5y1j#sample_sex -->
<g id="node3" class="node">
<title>file:///tmp/tmpo6uo5y1j#sample_sex</title>
<g id="a_node3"><a xlink:title="Specifies the sex of a sample&#10;">
<polygon fill="#94ddf4" stroke="#000000" points="3948.5,-1387.2454 3948.5,-1424.2454 4047.5,-1424.2454 4047.5,-1387.2454 3948.5,-1387.2454"/>
<text text-anchor="middle" x="3998" y="-1402.0454" font-family="Times,serif" font-size="14.00" fill="#000000">sample_sex</text>
</a>
</g>
</g>
<!-- file:///tmp/tmpo6uo5y1j#sample_sex&#45;&gt;file:///tmp/tmpo6uo5y1j#run_dragen_germline_step -->
<g id="edge11" class="edge">
<title>file:///tmp/tmpo6uo5y1j#sample_sex&#45;&gt;file:///tmp/tmpo6uo5y1j#run_dragen_germline_step</title>
<path fill="none" stroke="#000000" d="M3980.1444,-1387.0278C3969.1649,-1376.4903 3954.3031,-1363.8576 3939,-1355.7454 3568.8842,-1159.5473 3070.9404,-1069.5456 2855.1413,-1037.8455"/>
<polygon fill="#000000" stroke="#000000" points="2855.4802,-1034.358 2845.0801,-1036.3798 2854.4711,-1041.2849 2855.4802,-1034.358"/>
</g>
<!-- file:///tmp/tmpo6uo5y1j#vc_hard_filter -->
<g id="node4" class="node">
<title>file:///tmp/tmpo6uo5y1j#vc_hard_filter</title>
<g id="a_node4"><a xlink:title="DRAGEN provides post&#45;VCF variant filtering based on annotations present in the VCF records.&#10;However, due to the nature of DRAGEN’s algorithms, which incorporate the hypothesis of correlated errors&#10;from within the core of variant caller, the pipeline has improved capabilities in distinguishing&#10;the true variants from noise, and therefore the dependency on post&#45;VCF filtering is substantially reduced.&#10;For this reason, the default post&#45;VCF filtering in DRAGEN is very simple&#10;">
<polygon fill="#94ddf4" stroke="#000000" points="3814,-1387.2454 3814,-1424.2454 3930,-1424.2454 3930,-1387.2454 3814,-1387.2454"/>
<text text-anchor="middle" x="3872" y="-1402.0454" font-family="Times,serif" font-size="14.00" fill="#000000">vc_hard_filter</text>
</a>
</g>
</g>
<!-- file:///tmp/tmpo6uo5y1j#vc_hard_filter&#45;&gt;file:///tmp/tmpo6uo5y1j#run_dragen_germline_step -->
<g id="edge12" class="edge">
<title>file:///tmp/tmpo6uo5y1j#vc_hard_filter&#45;&gt;file:///tmp/tmpo6uo5y1j#run_dragen_germline_step</title>
<path fill="none" stroke="#000000" d="M3850.9053,-1387.0895C3838.2904,-1376.7041 3821.5404,-1364.2041 3805,-1355.7454 3476.9764,-1187.995 3048.0757,-1085.4082 2852.8937,-1044.384"/>
<polygon fill="#000000" stroke="#000000" points="2853.4312,-1040.9208 2842.9266,-1042.2999 2851.9985,-1047.7726 2853.4312,-1040.9208"/>
</g>
<!-- file:///tmp/tmpo6uo5y1j#enable_map_align_output -->
<g id="node5" class="node">
<title>file:///tmp/tmpo6uo5y1j#enable_map_align_output</title>
<g id="a_node5"><a xlink:title="Do you wish to have the output bam files present&#10;">
<polygon fill="#94ddf4" stroke="#000000" points="3596,-1387.2454 3596,-1424.2454 3796,-1424.2454 3796,-1387.2454 3596,-1387.2454"/>
<text text-anchor="middle" x="3696" y="-1402.0454" font-family="Times,serif" font-size="14.00" fill="#000000">enable_map_align_output</text>
</a>
</g>
</g>
<!-- file:///tmp/tmpo6uo5y1j#enable_map_align_output&#45;&gt;file:///tmp/tmpo6uo5y1j#run_dragen_germline_step -->
<g id="edge13" class="edge">
<title>file:///tmp/tmpo6uo5y1j#enable_map_align_output&#45;&gt;file:///tmp/tmpo6uo5y1j#run_dragen_germline_step</title>
<path fill="none" stroke="#000000" d="M3656.8723,-1387.1851C3636.2109,-1377.54 3610.3607,-1365.717 3587,-1355.7454 3297.166,-1232.0286 2944.7476,-1097.7336 2807.0857,-1045.884"/>
<polygon fill="#000000" stroke="#000000" points="2808.1409,-1042.5415 2797.5489,-1042.2945 2805.6751,-1049.0928 2808.1409,-1042.5415"/>
</g>
<!-- file:///tmp/tmpo6uo5y1j#dedup_min_qual -->
<g id="node6" class="node">
<title>file:///tmp/tmpo6uo5y1j#dedup_min_qual</title>
<g id="a_node6"><a xlink:title="Specifies the Phred quality score below which a base should be excluded from the quality score&#10;calculation used for choosing among duplicate reads.&#10;">
<polygon fill="#94ddf4" stroke="#000000" points="3444,-1387.2454 3444,-1424.2454 3578,-1424.2454 3578,-1387.2454 3444,-1387.2454"/>
<text text-anchor="middle" x="3511" y="-1402.0454" font-family="Times,serif" font-size="14.00" fill="#000000">dedup_min_qual</text>
</a>
</g>
</g>
<!-- file:///tmp/tmpo6uo5y1j#dedup_min_qual&#45;&gt;file:///tmp/tmpo6uo5y1j#run_dragen_germline_step -->
<g id="edge14" class="edge">
<title>file:///tmp/tmpo6uo5y1j#dedup_min_qual&#45;&gt;file:///tmp/tmpo6uo5y1j#run_dragen_germline_step</title>
<path fill="none" stroke="#000000" d="M3484.4565,-1387.0432C3470.1014,-1377.2481 3451.8968,-1365.3311 3435,-1355.7454 3205.8214,-1225.7301 2918.0335,-1097.3243 2801.07,-1046.518"/>
<polygon fill="#000000" stroke="#000000" points="2802.1827,-1043.1856 2791.6157,-1042.4188 2799.3981,-1049.608 2802.1827,-1043.1856"/>
</g>
<!-- file:///tmp/tmpo6uo5y1j#vc_enable_vcf_output -->
<g id="node7" class="node">
<title>file:///tmp/tmpo6uo5y1j#vc_enable_vcf_output</title>
<g id="a_node7"><a xlink:title="The –vc&#45;enable&#45;vcf&#45;output option enables VCF file output during a gVCF run. The default value is false.&#10;">
<polygon fill="#94ddf4" stroke="#000000" points="3254,-1387.2454 3254,-1424.2454 3426,-1424.2454 3426,-1387.2454 3254,-1387.2454"/>
<text text-anchor="middle" x="3340" y="-1402.0454" font-family="Times,serif" font-size="14.00" fill="#000000">vc_enable_vcf_output</text>
</a>
</g>
</g>
<!-- file:///tmp/tmpo6uo5y1j#vc_enable_vcf_output&#45;&gt;file:///tmp/tmpo6uo5y1j#run_dragen_germline_step -->
<g id="edge15" class="edge">
<title>file:///tmp/tmpo6uo5y1j#vc_enable_vcf_output&#45;&gt;file:///tmp/tmpo6uo5y1j#run_dragen_germline_step</title>
<path fill="none" stroke="#000000" d="M3311.0459,-1387.0622C3213.1796,-1323.912 2894.7383,-1118.4313 2785.3196,-1047.8266"/>
<polygon fill="#000000" stroke="#000000" points="2787.1987,-1044.8738 2776.8984,-1042.3927 2783.4033,-1050.7556 2787.1987,-1044.8738"/>
</g>
<!-- file:///tmp/tmpo6uo5y1j#output_file_prefix -->
<g id="node8" class="node">
<title>file:///tmp/tmpo6uo5y1j#output_file_prefix</title>
<g id="a_node8"><a xlink:title="The prefix given to all output files&#10;">
<polygon fill="#94ddf4" stroke="#000000" points="4699.5,-1387.2454 4699.5,-1424.2454 4842.5,-1424.2454 4842.5,-1387.2454 4699.5,-1387.2454"/>
<text text-anchor="middle" x="4771" y="-1402.0454" font-family="Times,serif" font-size="14.00" fill="#000000">output_file_prefix</text>
</a>
</g>
</g>
<!-- file:///tmp/tmpo6uo5y1j#output_file_prefix&#45;&gt;file:///tmp/tmpo6uo5y1j#run_dragen_germline_step -->
<g id="edge16" class="edge">
<title>file:///tmp/tmpo6uo5y1j#output_file_prefix&#45;&gt;file:///tmp/tmpo6uo5y1j#run_dragen_germline_step</title>
<path fill="none" stroke="#000000" d="M4746.7473,-1387.0865C4731.5292,-1376.2961 4711.0506,-1363.3823 4691,-1355.7454 4024.3856,-1101.8441 3155.1594,-1041.3044 2855.2245,-1027.574"/>
<polygon fill="#000000" stroke="#000000" points="2855.3732,-1024.0773 2845.226,-1027.1241 2855.0585,-1031.0702 2855.3732,-1024.0773"/>
</g>
<!-- file:///tmp/tmpo6uo5y1j#dragen_qc_step -->
<g id="node32" class="node">
<title>file:///tmp/tmpo6uo5y1j#dragen_qc_step</title>
<g id="a_node32"><a xlink:href="https://github.com/umccr/cwl-ica/blob/main/.github/catalogue/docs/tools/multiqc/1.10.1/multiqc__1.10.1.md" xlink:title="The dragen qc step &#45; this takes in an array of dirs&#10;">
<polygon fill="#fafad2" stroke="#000000" points="4701,-637.2454 4701,-674.2454 4841,-674.2454 4841,-637.2454 4701,-637.2454"/>
<text text-anchor="middle" x="4771" y="-652.0454" font-family="Times,serif" font-size="14.00" fill="#000000">multiqc v(1.10.1)</text>
</a>
</g>
</g>
<!-- file:///tmp/tmpo6uo5y1j#output_file_prefix&#45;&gt;file:///tmp/tmpo6uo5y1j#dragen_qc_step -->
<g id="edge17" class="edge">
<title>file:///tmp/tmpo6uo5y1j#output_file_prefix&#45;&gt;file:///tmp/tmpo6uo5y1j#dragen_qc_step</title>
<path fill="none" stroke="#000000" d="M4766.4121,-1387.206C4754.8783,-1286.701 4754.5395,-807.1962 4765.3959,-684.4289"/>
<polygon fill="#000000" stroke="#000000" points="4768.8954,-684.6072 4766.4094,-674.3082 4761.9303,-683.9096 4768.8954,-684.6072"/>
</g>
<!-- file:///tmp/tmpo6uo5y1j#output_file_prefix&#45;&gt;file:///tmp/tmpo6uo5y1j#dragen_qc_step -->
<g id="edge18" class="edge">
<title>file:///tmp/tmpo6uo5y1j#output_file_prefix&#45;&gt;file:///tmp/tmpo6uo5y1j#dragen_qc_step</title>
<path fill="none" stroke="#000000" d="M4771,-1387.206C4771,-1286.701 4771,-807.1962 4771,-684.4289"/>
<polygon fill="#000000" stroke="#000000" points="4774.5001,-684.3081 4771,-674.3082 4767.5001,-684.3082 4774.5001,-684.3081"/>
</g>
<!-- file:///tmp/tmpo6uo5y1j#output_file_prefix&#45;&gt;file:///tmp/tmpo6uo5y1j#dragen_qc_step -->
<g id="edge19" class="edge">
<title>file:///tmp/tmpo6uo5y1j#output_file_prefix&#45;&gt;file:///tmp/tmpo6uo5y1j#dragen_qc_step</title>
<path fill="none" stroke="#000000" d="M4775.5879,-1387.206C4787.1217,-1286.701 4787.4605,-807.1962 4776.6041,-684.4289"/>
<polygon fill="#000000" stroke="#000000" points="4780.0697,-683.9096 4775.5906,-674.3082 4773.1046,-684.6072 4780.0697,-683.9096"/>
</g>
<!-- file:///tmp/tmpo6uo5y1j#reference_tar -->
<g id="node9" class="node">
<title>file:///tmp/tmpo6uo5y1j#reference_tar</title>
<g id="a_node9"><a xlink:title="Path to ref data tarball&#10;">
<polygon fill="#94ddf4" stroke="#000000" points="2920,-1387.2454 2920,-1424.2454 3034,-1424.2454 3034,-1387.2454 2920,-1387.2454"/>
<text text-anchor="middle" x="2977" y="-1402.0454" font-family="Times,serif" font-size="14.00" fill="#000000">reference_tar</text>
</a>
</g>
</g>
<!-- file:///tmp/tmpo6uo5y1j#reference_tar&#45;&gt;file:///tmp/tmpo6uo5y1j#run_dragen_germline_step -->
<g id="edge20" class="edge">
<title>file:///tmp/tmpo6uo5y1j#reference_tar&#45;&gt;file:///tmp/tmpo6uo5y1j#run_dragen_germline_step</title>
<path fill="none" stroke="#000000" d="M2965.7998,-1387.0622C2928.5124,-1324.8621 2808.4492,-1124.582 2764.4009,-1051.104"/>
<polygon fill="#000000" stroke="#000000" points="2767.3222,-1049.17 2759.1786,-1042.3927 2761.3184,-1052.7692 2767.3222,-1049.17"/>
</g>
<!-- file:///tmp/tmpo6uo5y1j#output_directory -->
<g id="node10" class="node">
<title>file:///tmp/tmpo6uo5y1j#output_directory</title>
<g id="a_node10"><a xlink:title="The directory where all output files are placed&#10;">
<polygon fill="#94ddf4" stroke="#000000" points="2764.5,-1387.2454 2764.5,-1424.2454 2901.5,-1424.2454 2901.5,-1387.2454 2764.5,-1387.2454"/>
<text text-anchor="middle" x="2833" y="-1402.0454" font-family="Times,serif" font-size="14.00" fill="#000000">output_directory</text>
</a>
</g>
</g>
<!-- file:///tmp/tmpo6uo5y1j#output_directory&#45;&gt;file:///tmp/tmpo6uo5y1j#run_dragen_germline_step -->
<g id="edge21" class="edge">
<title>file:///tmp/tmpo6uo5y1j#output_directory&#45;&gt;file:///tmp/tmpo6uo5y1j#run_dragen_germline_step</title>
<path fill="none" stroke="#000000" d="M2828.8427,-1387.0622C2815.087,-1325.2421 2770.9809,-1127.0243 2754.3905,-1052.465"/>
<polygon fill="#000000" stroke="#000000" points="2757.7378,-1051.3937 2752.1493,-1042.3927 2750.9049,-1052.9142 2757.7378,-1051.3937"/>
</g>
<!-- file:///tmp/tmpo6uo5y1j#vc_roh_blacklist_bed -->
<g id="node11" class="node">
<title>file:///tmp/tmpo6uo5y1j#vc_roh_blacklist_bed</title>
<g id="a_node11"><a xlink:title="If provided, the ROH caller ignores variants that are contained in any region in the blacklist BED file.&#10;DRAGEN distributes blacklist files for all popular human genomes and automatically selects a blacklist to&#10;match the genome in use, unless this option is used explicitly select a file.&#10;">
<polygon fill="#94ddf4" stroke="#000000" points="2579.5,-1387.2454 2579.5,-1424.2454 2746.5,-1424.2454 2746.5,-1387.2454 2579.5,-1387.2454"/>
<text text-anchor="middle" x="2663" y="-1402.0454" font-family="Times,serif" font-size="14.00" fill="#000000">vc_roh_blacklist_bed</text>
</a>
</g>
</g>
<!-- file:///tmp/tmpo6uo5y1j#vc_roh_blacklist_bed&#45;&gt;file:///tmp/tmpo6uo5y1j#run_dragen_germline_step -->
<g id="edge22" class="edge">
<title>file:///tmp/tmpo6uo5y1j#vc_roh_blacklist_bed&#45;&gt;file:///tmp/tmpo6uo5y1j#run_dragen_germline_step</title>
<path fill="none" stroke="#000000" d="M2667.1573,-1387.0622C2680.913,-1325.2421 2725.0191,-1127.0243 2741.6095,-1052.465"/>
<polygon fill="#000000" stroke="#000000" points="2745.0951,-1052.9142 2743.8507,-1042.3927 2738.2622,-1051.3937 2745.0951,-1052.9142"/>
</g>
<!-- file:///tmp/tmpo6uo5y1j#vc_enable_decoy_contigs -->
<g id="node12" class="node">
<title>file:///tmp/tmpo6uo5y1j#vc_enable_decoy_contigs</title>
<g id="a_node12"><a xlink:title="If &#45;&#45;vc&#45;enable&#45;decoy&#45;contigs is set to true, variant calls on the decoy contigs are enabled.&#10;The default value is false.&#10;">
<polygon fill="#94ddf4" stroke="#000000" points="2364.5,-1387.2454 2364.5,-1424.2454 2561.5,-1424.2454 2561.5,-1387.2454 2364.5,-1387.2454"/>
<text text-anchor="middle" x="2463" y="-1402.0454" font-family="Times,serif" font-size="14.00" fill="#000000">vc_enable_decoy_contigs</text>
</a>
</g>
</g>
<!-- file:///tmp/tmpo6uo5y1j#vc_enable_decoy_contigs&#45;&gt;file:///tmp/tmpo6uo5y1j#run_dragen_germline_step -->
<g id="edge23" class="edge">
<title>file:///tmp/tmpo6uo5y1j#vc_enable_decoy_contigs&#45;&gt;file:///tmp/tmpo6uo5y1j#run_dragen_germline_step</title>
<path fill="none" stroke="#000000" d="M2476.9391,-1387.0622C2523.4394,-1324.7354 2673.3776,-1123.7656 2727.9222,-1050.6567"/>
<polygon fill="#000000" stroke="#000000" points="2730.9132,-1052.5008 2734.0878,-1042.3927 2725.3026,-1048.3148 2730.9132,-1052.5008"/>
</g>
<!-- file:///tmp/tmpo6uo5y1j#vc_enable_roh -->
<g id="node13" class="node">
<title>file:///tmp/tmpo6uo5y1j#vc_enable_roh</title>
<g id="a_node13"><a xlink:title="Enable or disable the ROH caller by setting this option to true or false. Enabled by default for human autosomes only.&#10;">
<polygon fill="#94ddf4" stroke="#000000" points="2227.5,-1387.2454 2227.5,-1424.2454 2346.5,-1424.2454 2346.5,-1387.2454 2227.5,-1387.2454"/>
<text text-anchor="middle" x="2287" y="-1402.0454" font-family="Times,serif" font-size="14.00" fill="#000000">vc_enable_roh</text>
</a>
</g>
</g>
<!-- file:///tmp/tmpo6uo5y1j#vc_enable_roh&#45;&gt;file:///tmp/tmpo6uo5y1j#run_dragen_germline_step -->
<g id="edge24" class="edge">
<title>file:///tmp/tmpo6uo5y1j#vc_enable_roh&#45;&gt;file:///tmp/tmpo6uo5y1j#run_dragen_germline_step</title>
<path fill="none" stroke="#000000" d="M2309.5471,-1387.0622C2385.3749,-1324.2287 2631.2496,-1120.4887 2717.6445,-1048.899"/>
<polygon fill="#000000" stroke="#000000" points="2720.0295,-1051.4682 2725.4963,-1042.3927 2715.5632,-1046.0782 2720.0295,-1051.4682"/>
</g>
<!-- file:///tmp/tmpo6uo5y1j#enable_duplicate_marking -->
<g id="node14" class="node">
<title>file:///tmp/tmpo6uo5y1j#enable_duplicate_marking</title>
<g id="a_node14"><a xlink:title="Mark identical alignments as duplicates&#10;">
<polygon fill="#94ddf4" stroke="#000000" points="2003,-1387.2454 2003,-1424.2454 2209,-1424.2454 2209,-1387.2454 2003,-1387.2454"/>
<text text-anchor="middle" x="2106" y="-1402.0454" font-family="Times,serif" font-size="14.00" fill="#000000">enable_duplicate_marking</text>
</a>
</g>
</g>
<!-- file:///tmp/tmpo6uo5y1j#enable_duplicate_marking&#45;&gt;file:///tmp/tmpo6uo5y1j#run_dragen_germline_step -->
<g id="edge25" class="edge">
<title>file:///tmp/tmpo6uo5y1j#enable_duplicate_marking&#45;&gt;file:///tmp/tmpo6uo5y1j#run_dragen_germline_step</title>
<path fill="none" stroke="#000000" d="M2137.3996,-1387.0622C2243.638,-1323.8487 2589.5613,-1118.0189 2707.8848,-1047.6146"/>
<polygon fill="#000000" stroke="#000000" points="2709.8568,-1050.514 2716.6608,-1042.3927 2706.2773,-1044.4984 2709.8568,-1050.514"/>
</g>
<!-- file:///tmp/tmpo6uo5y1j#vc_max_reads_per_active_region -->
<g id="node15" class="node">
<title>file:///tmp/tmpo6uo5y1j#vc_max_reads_per_active_region</title>
<g id="a_node15"><a xlink:title="specifies the maximum number of reads covering a given active region.&#10;Default is 10000 for the germline workflow&#10;">
<polygon fill="#94ddf4" stroke="#000000" points="1731,-1387.2454 1731,-1424.2454 1985,-1424.2454 1985,-1387.2454 1731,-1387.2454"/>
<text text-anchor="middle" x="1858" y="-1402.0454" font-family="Times,serif" font-size="14.00" fill="#000000">vc_max_reads_per_active_region</text>
</a>
</g>
</g>
<!-- file:///tmp/tmpo6uo5y1j#vc_max_reads_per_active_region&#45;&gt;file:///tmp/tmpo6uo5y1j#run_dragen_germline_step -->
<g id="edge26" class="edge">
<title>file:///tmp/tmpo6uo5y1j#vc_max_reads_per_active_region&#45;&gt;file:///tmp/tmpo6uo5y1j#run_dragen_germline_step</title>
<path fill="none" stroke="#000000" d="M1901.2273,-1387.1917C2049.1013,-1323.7221 2534.4736,-1115.3938 2695.5357,-1046.2638"/>
<polygon fill="#000000" stroke="#000000" points="2696.9608,-1049.461 2704.7696,-1042.3005 2694.1998,-1043.0285 2696.9608,-1049.461"/>
</g>
<!-- file:///tmp/tmpo6uo5y1j#vc_decoy_contigs -->
<g id="node16" class="node">
<title>file:///tmp/tmpo6uo5y1j#vc_decoy_contigs</title>
<g id="a_node16"><a xlink:title="The &#45;&#45;vc&#45;decoy&#45;contigs option specifies a comma&#45;separated list of contigs to skip during variant calling.&#10;This option can be set in the configuration file.&#10;">
<polygon fill="#94ddf4" stroke="#000000" points="1569.5,-1387.2454 1569.5,-1424.2454 1712.5,-1424.2454 1712.5,-1387.2454 1569.5,-1387.2454"/>
<text text-anchor="middle" x="1641" y="-1402.0454" font-family="Times,serif" font-size="14.00" fill="#000000">vc_decoy_contigs</text>
</a>
</g>
</g>
<!-- file:///tmp/tmpo6uo5y1j#vc_decoy_contigs&#45;&gt;file:///tmp/tmpo6uo5y1j#run_dragen_germline_step -->
<g id="edge27" class="edge">
<title>file:///tmp/tmpo6uo5y1j#vc_decoy_contigs&#45;&gt;file:///tmp/tmpo6uo5y1j#run_dragen_germline_step</title>
<path fill="none" stroke="#000000" d="M1667.4622,-1387.1608C1682.8653,-1376.926 1702.949,-1364.5517 1722,-1355.7454 2054.6984,-1201.9564 2478.5725,-1089.2223 2659.601,-1044.6902"/>
<polygon fill="#000000" stroke="#000000" points="2660.4653,-1048.082 2669.3444,-1042.3016 2658.7986,-1041.2833 2660.4653,-1048.082"/>
</g>
<!-- file:///tmp/tmpo6uo5y1j#vc_remove_all_soft_clips -->
<g id="node17" class="node">
<title>file:///tmp/tmpo6uo5y1j#vc_remove_all_soft_clips</title>
<g id="a_node17"><a xlink:title="If is set to true, the variant caller does not use soft clips of reads to determine variants.&#10;">
<polygon fill="#94ddf4" stroke="#000000" points="1357,-1387.2454 1357,-1424.2454 1551,-1424.2454 1551,-1387.2454 1357,-1387.2454"/>
<text text-anchor="middle" x="1454" y="-1402.0454" font-family="Times,serif" font-size="14.00" fill="#000000">vc_remove_all_soft_clips</text>
</a>
</g>
</g>
<!-- file:///tmp/tmpo6uo5y1j#vc_remove_all_soft_clips&#45;&gt;file:///tmp/tmpo6uo5y1j#run_dragen_germline_step -->
<g id="edge28" class="edge">
<title>file:///tmp/tmpo6uo5y1j#vc_remove_all_soft_clips&#45;&gt;file:///tmp/tmpo6uo5y1j#run_dragen_germline_step</title>
<path fill="none" stroke="#000000" d="M1490.0126,-1387.1056C1510.4756,-1376.9767 1536.7747,-1364.724 1561,-1355.7454 1958.0995,-1208.5688 2450.6352,-1090.5297 2653.7185,-1044.5377"/>
<polygon fill="#000000" stroke="#000000" points="2654.7716,-1047.888 2663.7544,-1042.2702 2653.2289,-1041.0601 2654.7716,-1047.888"/>
</g>
<!-- file:///tmp/tmpo6uo5y1j#dbsnp_annotation -->
<g id="node18" class="node">
<title>file:///tmp/tmpo6uo5y1j#dbsnp_annotation</title>
<g id="a_node18"><a xlink:title="In Germline, Tumor&#45;Normal somatic, or Tumor&#45;Only somatic modes,&#10;DRAGEN can look up variant calls in a dbSNP database and add annotations for any matches that it finds there.&#10;To enable the dbSNP database search, set the &#45;&#45;dbsnp option to the full path to the dbSNP database&#10;VCF or .vcf.gz file, which must be sorted in reference order.&#10;">
<polygon fill="#94ddf4" stroke="#000000" points="1195,-1387.2454 1195,-1424.2454 1339,-1424.2454 1339,-1387.2454 1195,-1387.2454"/>
<text text-anchor="middle" x="1267" y="-1402.0454" font-family="Times,serif" font-size="14.00" fill="#000000">dbsnp_annotation</text>
</a>
</g>
</g>
<!-- file:///tmp/tmpo6uo5y1j#dbsnp_annotation&#45;&gt;file:///tmp/tmpo6uo5y1j#run_dragen_germline_step -->
<g id="edge29" class="edge">
<title>file:///tmp/tmpo6uo5y1j#dbsnp_annotation&#45;&gt;file:///tmp/tmpo6uo5y1j#run_dragen_germline_step</title>
<path fill="none" stroke="#000000" d="M1292.485,-1387.0653C1307.8925,-1376.5406 1328.3063,-1363.9083 1348,-1355.7454 1808.3859,-1164.9192 2401.4883,-1069.8838 2640.8262,-1037.2335"/>
<polygon fill="#000000" stroke="#000000" points="2641.48,-1040.677 2650.919,-1035.8651 2640.5394,-1033.7405 2641.48,-1040.677"/>
</g>
<!-- file:///tmp/tmpo6uo5y1j#vc_target_coverage -->
<g id="node19" class="node">
<title>file:///tmp/tmpo6uo5y1j#vc_target_coverage</title>
<g id="a_node19"><a xlink:title="The &#45;&#45;vc&#45;target&#45;coverage option specifies the target coverage for down&#45;sampling.&#10;The default value is 500 for germline mode and 50 for somatic mode.&#10;">
<polygon fill="#94ddf4" stroke="#000000" points="1019,-1387.2454 1019,-1424.2454 1177,-1424.2454 1177,-1387.2454 1019,-1387.2454"/>
<text text-anchor="middle" x="1098" y="-1402.0454" font-family="Times,serif" font-size="14.00" fill="#000000">vc_target_coverage</text>
</a>
</g>
</g>
<!-- file:///tmp/tmpo6uo5y1j#vc_target_coverage&#45;&gt;file:///tmp/tmpo6uo5y1j#run_dragen_germline_step -->
<g id="edge30" class="edge">
<title>file:///tmp/tmpo6uo5y1j#vc_target_coverage&#45;&gt;file:///tmp/tmpo6uo5y1j#run_dragen_germline_step</title>
<path fill="none" stroke="#000000" d="M1125.4499,-1387.227C1142.2867,-1376.6248 1164.6459,-1363.8579 1186,-1355.7454 1710.9257,-1156.324 2382.9996,-1064.6374 2640.786,-1035.0421"/>
<polygon fill="#000000" stroke="#000000" points="2641.3558,-1038.4999 2650.8947,-1033.8891 2640.5624,-1031.545 2641.3558,-1038.4999"/>
</g>
<!-- file:///tmp/tmpo6uo5y1j#vc_target_bed -->
<g id="node20" class="node">
<title>file:///tmp/tmpo6uo5y1j#vc_target_bed</title>
<g id="a_node20"><a xlink:title="This is an optional command line input that restricts processing of the small variant caller,&#10;target bed related coverage, and callability metrics to regions specified in a BED file.&#10;">
<polygon fill="#94ddf4" stroke="#000000" points="881.5,-1387.2454 881.5,-1424.2454 1000.5,-1424.2454 1000.5,-1387.2454 881.5,-1387.2454"/>
<text text-anchor="middle" x="941" y="-1402.0454" font-family="Times,serif" font-size="14.00" fill="#000000">vc_target_bed</text>
</a>
</g>
</g>
<!-- file:///tmp/tmpo6uo5y1j#vc_target_bed&#45;&gt;file:///tmp/tmpo6uo5y1j#run_dragen_germline_step -->
<g id="edge31" class="edge">
<title>file:///tmp/tmpo6uo5y1j#vc_target_bed&#45;&gt;file:///tmp/tmpo6uo5y1j#run_dragen_germline_step</title>
<path fill="none" stroke="#000000" d="M961.5632,-1387.1229C974.5592,-1376.3458 992.2104,-1363.4332 1010,-1355.7454 1590.4186,-1104.918 2361.0421,-1042.81 2640.7913,-1028.1002"/>
<polygon fill="#000000" stroke="#000000" points="2641.1303,-1031.5875 2650.9365,-1027.5763 2640.7693,-1024.5968 2641.1303,-1031.5875"/>
</g>
<!-- file:///tmp/tmpo6uo5y1j#vc_enable_phasing -->
<g id="node21" class="node">
<title>file:///tmp/tmpo6uo5y1j#vc_enable_phasing</title>
<g id="a_node21"><a xlink:title="The –vc&#45;enable&#45;phasing option enables variants to be phased when possible. The default value is true.&#10;">
<polygon fill="#94ddf4" stroke="#000000" points="568,-1387.2454 568,-1424.2454 720,-1424.2454 720,-1387.2454 568,-1387.2454"/>
<text text-anchor="middle" x="644" y="-1402.0454" font-family="Times,serif" font-size="14.00" fill="#000000">vc_enable_phasing</text>
</a>
</g>
</g>
<!-- file:///tmp/tmpo6uo5y1j#vc_enable_phasing&#45;&gt;file:///tmp/tmpo6uo5y1j#run_dragen_germline_step -->
<g id="edge32" class="edge">
<title>file:///tmp/tmpo6uo5y1j#vc_enable_phasing&#45;&gt;file:///tmp/tmpo6uo5y1j#run_dragen_germline_step</title>
<path fill="none" stroke="#000000" d="M670.2589,-1387.0946C686.6869,-1376.3071 708.7075,-1363.3936 730,-1355.7454 1429.2122,-1104.5917 2333.6195,-1042.2016 2640.6321,-1027.7902"/>
<polygon fill="#000000" stroke="#000000" points="2641.0331,-1031.2755 2650.8609,-1027.3175 2640.7099,-1024.2829 2641.0331,-1031.2755"/>
</g>
<!-- file:///tmp/tmpo6uo5y1j#lic_instance_id_location -->
<g id="node22" class="node">
<title>file:///tmp/tmpo6uo5y1j#lic_instance_id_location</title>
<g id="a_node22"><a xlink:title="You may wish to place your own in.&#10;Optional value, default set to /opt/instance&#45;identity&#10;which is a path inside the dragen container&#10;">
<polygon fill="#94ddf4" stroke="#000000" points="362,-1387.2454 362,-1424.2454 550,-1424.2454 550,-1387.2454 362,-1387.2454"/>
<text text-anchor="middle" x="456" y="-1402.0454" font-family="Times,serif" font-size="14.00" fill="#000000">lic_instance_id_location</text>
</a>
</g>
</g>
<!-- file:///tmp/tmpo6uo5y1j#lic_instance_id_location&#45;&gt;file:///tmp/tmpo6uo5y1j#run_dragen_germline_step -->
<g id="edge33" class="edge">
<title>file:///tmp/tmpo6uo5y1j#lic_instance_id_location&#45;&gt;file:///tmp/tmpo6uo5y1j#run_dragen_germline_step</title>
<path fill="none" stroke="#000000" d="M487.9035,-1387.15C507.7446,-1376.3828 534.1329,-1363.4711 559,-1355.7454 1333.3757,-1115.1633 2317.9812,-1045.6365 2640.4743,-1028.6186"/>
<polygon fill="#000000" stroke="#000000" points="2640.9407,-1032.0992 2650.7447,-1028.0827 2640.5758,-1025.1087 2640.9407,-1032.0992"/>
</g>
<!-- file:///tmp/tmpo6uo5y1j#fastq_list_rows -->
<g id="node23" class="node">
<title>file:///tmp/tmpo6uo5y1j#fastq_list_rows</title>
<g id="a_node23"><a xlink:title="The row of fastq lists.&#10;Each row has the following attributes:&#10; &#160;* RGID&#10; &#160;* RGLB&#10; &#160;* RGSM&#10; &#160;* Lane&#10; &#160;* Read1File&#10; &#160;* Read2File (optional)&#10;">
<polygon fill="#94ddf4" stroke="#000000" points="738.5,-1387.2454 738.5,-1424.2454 863.5,-1424.2454 863.5,-1387.2454 738.5,-1387.2454"/>
<text text-anchor="middle" x="801" y="-1402.0454" font-family="Times,serif" font-size="14.00" fill="#000000">fastq_list_rows</text>
</a>
</g>
</g>
<!-- file:///tmp/tmpo6uo5y1j#create_fastq_list_csv_step -->
<g id="node30" class="node">
<title>file:///tmp/tmpo6uo5y1j#create_fastq_list_csv_step</title>
<g id="a_node30"><a xlink:href="https://github.com/umccr/cwl-ica/blob/main/.github/catalogue/docs/tools/custom-create-csv-from-fastq-list-rows/1.0.0/custom-create-csv-from-fastq-list-rows__1.0.0.md" xlink:title="Create the fastq list csv to then run the germline tool.&#10;Takes in an array of fastq_list_row schema.&#10;Returns a csv file along with predefined_mount_path schema&#10;">
<polygon fill="#fafad2" stroke="#000000" points="0,-1387.2454 0,-1424.2454 344,-1424.2454 344,-1387.2454 0,-1387.2454"/>
<text text-anchor="middle" x="172" y="-1402.0454" font-family="Times,serif" font-size="14.00" fill="#000000">custom&#45;create&#45;csv&#45;from&#45;fastq&#45;list&#45;row v(1.0.0)</text>
</a>
</g>
</g>
<!-- file:///tmp/tmpo6uo5y1j#fastq_list_rows&#45;&gt;file:///tmp/tmpo6uo5y1j#create_fastq_list_csv_step -->
<g id="edge34" class="edge">
<title>file:///tmp/tmpo6uo5y1j#fastq_list_rows&#45;&gt;file:///tmp/tmpo6uo5y1j#create_fastq_list_csv_step</title>
<path fill="none" stroke="#000000" d="M775.4497,-1424.3716C760.1829,-1434.3303 739.9329,-1445.5803 720,-1450.7454 642.3426,-1470.8685 438.6636,-1460.1957 359,-1450.7454 320.2182,-1446.1448 277.8417,-1436.3556 243.2494,-1427.0788"/>
<polygon fill="#000000" stroke="#000000" points="243.8122,-1423.6046 233.2438,-1424.3521 241.9717,-1430.3583 243.8122,-1423.6046"/>
</g>
<!-- file:///tmp/tmpo6uo5y1j#vc_max_reads_per_raw_region -->
<g id="node24" class="node">
<title>file:///tmp/tmpo6uo5y1j#vc_max_reads_per_raw_region</title>
<g id="a_node24"><a xlink:title="specifies the maximum number of reads covering a given raw region.&#10;Default is 30000 for the germline workflow&#10;">
<polygon fill="#94ddf4" stroke="#000000" points="4444.5,-1387.2454 4444.5,-1424.2454 4681.5,-1424.2454 4681.5,-1387.2454 4444.5,-1387.2454"/>
<text text-anchor="middle" x="4563" y="-1402.0454" font-family="Times,serif" font-size="14.00" fill="#000000">vc_max_reads_per_raw_region</text>
</a>
</g>
</g>
<!-- file:///tmp/tmpo6uo5y1j#vc_max_reads_per_raw_region&#45;&gt;file:///tmp/tmpo6uo5y1j#run_dragen_germline_step -->
<g id="edge35" class="edge">
<title>file:///tmp/tmpo6uo5y1j#vc_max_reads_per_raw_region&#45;&gt;file:///tmp/tmpo6uo5y1j#run_dragen_germline_step</title>
<path fill="none" stroke="#000000" d="M4520.9899,-1387.1487C4496.3198,-1376.7831 4464.3198,-1364.2831 4435,-1355.7454 3849.6311,-1185.2903 3124.4564,-1075.4917 2855.1847,-1038.0651"/>
<polygon fill="#000000" stroke="#000000" points="2855.4106,-1034.563 2845.0248,-1036.6573 2854.4497,-1041.4968 2855.4106,-1034.563"/>
</g>
<!-- file:///tmp/tmpo6uo5y1j#vc_target_bed_padding -->
<g id="node25" class="node">
<title>file:///tmp/tmpo6uo5y1j#vc_target_bed_padding</title>
<g id="a_node25"><a xlink:title="This is an optional command line input that can be used to pad all of the target&#10;BED regions with the specified value.&#10;For example, if a BED region is 1:1000&#45;2000 and a padding value of 100 is used,&#10;it is equivalent to using a BED region of 1:900&#45;2100 and a padding value of 0.&#10;Any padding added to &#45;&#45;vc&#45;target&#45;bed&#45;padding is used by the small variant caller&#10;and by the target bed coverage/callability reports. The default padding is 0.&#10;">
<polygon fill="#94ddf4" stroke="#000000" points="3052,-1387.2454 3052,-1424.2454 3236,-1424.2454 3236,-1387.2454 3052,-1387.2454"/>
<text text-anchor="middle" x="3144" y="-1402.0454" font-family="Times,serif" font-size="14.00" fill="#000000">vc_target_bed_padding</text>
</a>
</g>
</g>
<!-- file:///tmp/tmpo6uo5y1j#vc_target_bed_padding&#45;&gt;file:///tmp/tmpo6uo5y1j#run_dragen_germline_step -->
<g id="edge36" class="edge">
<title>file:///tmp/tmpo6uo5y1j#vc_target_bed_padding&#45;&gt;file:///tmp/tmpo6uo5y1j#run_dragen_germline_step</title>
<path fill="none" stroke="#000000" d="M3124.632,-1387.0622C3059.7584,-1324.4821 2849.9897,-1122.1294 2774.9799,-1049.7715"/>
<polygon fill="#000000" stroke="#000000" points="2776.9578,-1046.8164 2767.3307,-1042.3927 2772.0979,-1051.8544 2776.9578,-1046.8164"/>
</g>
<!-- file:///tmp/tmpo6uo5y1j#dragen_germline_output_directory -->
<g id="node26" class="node">
<title>file:///tmp/tmpo6uo5y1j#dragen_germline_output_directory</title>
<g id="a_node26"><a xlink:title="The output directory containing all germline output files&#10;">
<polygon fill="#94ddf4" stroke="#000000" points="2486,-269.2454 2486,-306.2454 2752,-306.2454 2752,-269.2454 2486,-269.2454"/>
<text text-anchor="middle" x="2619" y="-284.0454" font-family="Times,serif" font-size="14.00" fill="#000000">dragen_germline_output_directory</text>
</a>
</g>
</g>
<!-- file:///tmp/tmpo6uo5y1j#dragen_vcf_out -->
<g id="node27" class="node">
<title>file:///tmp/tmpo6uo5y1j#dragen_vcf_out</title>
<g id="a_node27"><a xlink:title="The output germline vcf file&#10;">
<polygon fill="#94ddf4" stroke="#000000" points="2770.5,-269.2454 2770.5,-306.2454 2897.5,-306.2454 2897.5,-269.2454 2770.5,-269.2454"/>
<text text-anchor="middle" x="2834" y="-284.0454" font-family="Times,serif" font-size="14.00" fill="#000000">dragen_vcf_out</text>
</a>
</g>
</g>
<!-- file:///tmp/tmpo6uo5y1j#dragen_bam_out -->
<g id="node28" class="node">
<title>file:///tmp/tmpo6uo5y1j#dragen_bam_out</title>
<g id="a_node28"><a xlink:title="The output bam file, exists only if &#45;&#45;enable&#45;map&#45;align&#45;output is set to true&#10;">
<polygon fill="#94ddf4" stroke="#000000" points="2916,-269.2454 2916,-306.2454 3052,-306.2454 3052,-269.2454 2916,-269.2454"/>
<text text-anchor="middle" x="2984" y="-284.0454" font-family="Times,serif" font-size="14.00" fill="#000000">dragen_bam_out</text>
</a>
</g>
</g>
<!-- file:///tmp/tmpo6uo5y1j#multiqc_output_directory -->
<g id="node29" class="node">
<title>file:///tmp/tmpo6uo5y1j#multiqc_output_directory</title>
<g id="a_node29"><a xlink:title="The output directory for multiqc&#10;">
<polygon fill="#94ddf4" stroke="#000000" points="3070,-269.2454 3070,-306.2454 3270,-306.2454 3270,-269.2454 3070,-269.2454"/>
<text text-anchor="middle" x="3170" y="-284.0454" font-family="Times,serif" font-size="14.00" fill="#000000">multiqc_output_directory</text>
</a>
</g>
</g>
<!-- file:///tmp/tmpo6uo5y1j#create_fastq_list_csv_step&#45;&gt;file:///tmp/tmpo6uo5y1j#run_dragen_germline_step -->
<g id="edge1" class="edge">
<title>file:///tmp/tmpo6uo5y1j#create_fastq_list_csv_step&#45;&gt;file:///tmp/tmpo6uo5y1j#run_dragen_germline_step</title>
<path fill="none" stroke="#000000" d="M222.5699,-1387.1615C255.932,-1376.7355 300.6227,-1364.1705 341,-1355.7454 1219.519,-1172.434 2300.8264,-1063.9435 2640.6555,-1032.9909"/>
<polygon fill="#000000" stroke="#000000" points="2641.0925,-1036.4657 2650.7351,-1032.0758 2640.4596,-1029.4944 2641.0925,-1036.4657"/>
</g>
<!-- file:///tmp/tmpo6uo5y1j#create_fastq_list_csv_step&#45;&gt;file:///tmp/tmpo6uo5y1j#run_dragen_germline_step -->
<g id="edge2" class="edge">
<title>file:///tmp/tmpo6uo5y1j#create_fastq_list_csv_step&#45;&gt;file:///tmp/tmpo6uo5y1j#run_dragen_germline_step</title>
<path fill="none" stroke="#000000" d="M238.2934,-1387.1615C273.932,-1376.7355 318.6227,-1364.1705 359,-1355.7454 1231.1548,-1173.7619 2303.1705,-1065.5193 2640.9337,-1033.6758"/>
<polygon fill="#000000" stroke="#000000" points="2641.3247,-1037.1546 2650.9529,-1032.7334 2640.669,-1030.1854 2641.3247,-1037.1546"/>
</g>
<!-- file:///tmp/tmpo6uo5y1j#run_dragen_germline_step&#45;&gt;file:///tmp/tmpo6uo5y1j#dragen_germline_output_directory -->
<g id="edge4" class="edge">
<title>file:///tmp/tmpo6uo5y1j#run_dragen_germline_step&#45;&gt;file:///tmp/tmpo6uo5y1j#dragen_germline_output_directory</title>
<path fill="none" stroke="#000000" d="M2744.7467,-1005.1839C2727.3364,-905.8506 2645.1762,-437.0916 2623.9925,-316.2295"/>
<polygon fill="#000000" stroke="#000000" points="2627.4184,-315.5023 2622.2445,-306.2567 2620.5235,-316.7108 2627.4184,-315.5023"/>
</g>
<!-- file:///tmp/tmpo6uo5y1j#run_dragen_germline_step&#45;&gt;file:///tmp/tmpo6uo5y1j#dragen_vcf_out -->
<g id="edge5" class="edge">
<title>file:///tmp/tmpo6uo5y1j#run_dragen_germline_step&#45;&gt;file:///tmp/tmpo6uo5y1j#dragen_vcf_out</title>
<path fill="none" stroke="#000000" d="M2750.1689,-1005.1839C2761.7757,-905.8506 2816.5492,-437.0916 2830.6717,-316.2295"/>
<polygon fill="#000000" stroke="#000000" points="2834.1527,-316.5954 2831.837,-306.2567 2827.2,-315.7829 2834.1527,-316.5954"/>
</g>
<!-- file:///tmp/tmpo6uo5y1j#run_dragen_germline_step&#45;&gt;file:///tmp/tmpo6uo5y1j#dragen_bam_out -->
<g id="edge6" class="edge">
<title>file:///tmp/tmpo6uo5y1j#run_dragen_germline_step&#45;&gt;file:///tmp/tmpo6uo5y1j#dragen_bam_out</title>
<path fill="none" stroke="#000000" d="M2753.9518,-1005.1839C2785.8353,-905.7507 2936.4144,-436.148 2974.9831,-315.8658"/>
<polygon fill="#000000" stroke="#000000" points="2978.3437,-316.8479 2978.0643,-306.2567 2971.678,-314.7104 2978.3437,-316.8479"/>
</g>
<!-- file:///tmp/tmpo6uo5y1j#run_dragen_germline_step&#45;&gt;file:///tmp/tmpo6uo5y1j#dragen_qc_step -->
<g id="edge3" class="edge">
<title>file:///tmp/tmpo6uo5y1j#run_dragen_germline_step&#45;&gt;file:///tmp/tmpo6uo5y1j#dragen_qc_step</title>
<path fill="none" stroke="#000000" d="M2845.2325,-1006.058C3193.0173,-942.7932 4371.4592,-728.4251 4690.6821,-670.3559"/>
<polygon fill="#000000" stroke="#000000" points="4691.563,-673.7532 4700.7751,-668.5199 4690.3102,-666.8662 4691.563,-673.7532"/>
</g>
<!-- file:///tmp/tmpo6uo5y1j#dragen_qc_step&#45;&gt;file:///tmp/tmpo6uo5y1j#multiqc_output_directory -->
<g id="edge8" class="edge">
<title>file:///tmp/tmpo6uo5y1j#dragen_qc_step&#45;&gt;file:///tmp/tmpo6uo5y1j#multiqc_output_directory</title>
<path fill="none" stroke="#000000" d="M4700.9191,-639.6369C4443.4643,-580.4593 3549.9009,-375.068 3260.9191,-308.6437"/>
<polygon fill="#000000" stroke="#000000" points="3261.4262,-305.1691 3250.8962,-306.3399 3259.858,-311.9912 3261.4262,-305.1691"/>
</g>
<!-- file:///tmp/tmpo6uo5y1j#create_dummy_file_step -->
<g id="node33" class="node">
<title>file:///tmp/tmpo6uo5y1j#create_dummy_file_step</title>
<g id="a_node33"><a xlink:href="https://github.com/umccr/cwl-ica/blob/main/.github/catalogue/docs/tools/custom-touch-file/1.0.0/custom-touch-file__1.0.0.md" xlink:title="Intermediate step for letting multiqc&#45;interop be placed in stream mode&#10;">
<polygon fill="#fafad2" stroke="#000000" points="4817.5,-1005.2454 4817.5,-1042.2454 5080.5,-1042.2454 5080.5,-1005.2454 4817.5,-1005.2454"/>
<text text-anchor="middle" x="4949" y="-1020.0454" font-family="Times,serif" font-size="14.00" fill="#000000">custom&#45;create&#45;dummy&#45;file v(1.0.0)</text>
</a>
</g>
</g>
<!-- file:///tmp/tmpo6uo5y1j#create_dummy_file_step&#45;&gt;file:///tmp/tmpo6uo5y1j#dragen_qc_step -->
<g id="edge7" class="edge">
<title>file:///tmp/tmpo6uo5y1j#create_dummy_file_step&#45;&gt;file:///tmp/tmpo6uo5y1j#dragen_qc_step</title>
<path fill="none" stroke="#000000" d="M4940.051,-1005.244C4911.0309,-945.2476 4819.4018,-755.812 4784.5948,-683.8516"/>
<polygon fill="#000000" stroke="#000000" points="4787.5781,-681.9812 4780.073,-674.503 4781.2766,-685.0293 4787.5781,-681.9812"/>
</g>
</g>
</svg>
