<?xml version="1.0" encoding="UTF-8" standalone="no"?>
<!DOCTYPE svg PUBLIC "-//W3C//DTD SVG 1.1//EN"
 "http://www.w3.org/Graphics/SVG/1.1/DTD/svg11.dtd">
<!-- Generated by graphviz version 2.40.1 (20161225.0304)
 -->
<!-- Title: G Pages: 1 -->
<svg width="5093pt" height="1589pt"
 viewBox="0.00 0.00 5092.50 1589.12" xmlns="http://www.w3.org/2000/svg" xmlns:xlink="http://www.w3.org/1999/xlink">
<g id="graph0" class="graph" transform="scale(1 1) rotate(0) translate(4 1585.124)">
<title>G</title>
<polygon fill="#eeeeee" stroke="transparent" points="-4,4 -4,-1585.124 5088.5,-1585.124 5088.5,4 -4,4"/>
<g id="clust1" class="cluster">
<title>cluster_inputs</title>
<polygon fill="#eeeeee" stroke="#000000" stroke-dasharray="5,2" points="354,-1158.4965 354,-1541.3473 4855,-1541.3473 4855,-1158.4965 354,-1158.4965"/>
<text text-anchor="middle" x="4787" y="-1166.2965" font-family="Times,serif" font-size="14.00" fill="#000000">Workflow Inputs</text>
</g>
<g id="clust2" class="cluster">
<title>cluster_outputs</title>
<polygon fill="#eeeeee" stroke="#000000" stroke-dasharray="5,2" points="2675,-39.7767 2675,-422.6275 3475,-422.6275 3475,-39.7767 2675,-39.7767"/>
<text text-anchor="middle" x="3401" y="-47.5767" font-family="Times,serif" font-size="14.00" fill="#000000">Workflow Outputs</text>
</g>
<!-- file:///tmp/tmpsz90n6d0#vc_enable_baf -->
<g id="node1" class="node">
<title>file:///tmp/tmpsz90n6d0#vc_enable_baf</title>
<g id="a_node1"><a xlink:title="Enable or disable B&#45;allele frequency output. Enabled by default.&#10;">
<polygon fill="#94ddf4" stroke="#000000" points="4406,-1388.2767 4406,-1425.2767 4524,-1425.2767 4524,-1388.2767 4406,-1388.2767"/>
<text text-anchor="middle" x="4465" y="-1403.0767" font-family="Times,serif" font-size="14.00" fill="#000000">vc_enable_baf</text>
</a>
</g>
</g>
<!-- file:///tmp/tmpsz90n6d0#run_dragen_germline_step -->
<g id="node31" class="node">
<title>file:///tmp/tmpsz90n6d0#run_dragen_germline_step</title>
<g id="a_node31"><a xlink:href="https://github.com/umccr/cwl-ica/blob/beta-release/.github/catalogue/docs/tools/dragen-germline/3.7.5/dragen-germline__3.7.5.md" xlink:title="Runs the dragen germline workflow on the FPGA.&#10;Takes in a fastq list and corresponding mount paths from the predefined_mount_paths.&#10;All other options available at the top of the workflow&#10;">
<polygon fill="#fafad2" stroke="#000000" points="2785,-1005.2767 2785,-1042.2767 2979,-1042.2767 2979,-1005.2767 2785,-1005.2767"/>
<text text-anchor="middle" x="2882" y="-1020.0767" font-family="Times,serif" font-size="14.00" fill="#000000">dragen&#45;germline v(3.7.5)</text>
</a>
</g>
</g>
<!-- file:///tmp/tmpsz90n6d0#vc_enable_baf&#45;&gt;file:///tmp/tmpsz90n6d0#run_dragen_germline_step -->
<g id="edge9" class="edge">
<title>file:///tmp/tmpsz90n6d0#vc_enable_baf&#45;&gt;file:///tmp/tmpsz90n6d0#run_dragen_germline_step</title>
<path fill="none" stroke="#000000" d="M4444.4082,-1388.0732C4431.6175,-1377.4054 4414.3533,-1364.6345 4397,-1356.7767 3901.3273,-1132.3289 3244.3424,-1054.7403 2989.4502,-1032.0063"/>
<polygon fill="#000000" stroke="#000000" points="2989.7199,-1028.5166 2979.451,-1031.1243 2989.1048,-1035.4895 2989.7199,-1028.5166"/>
</g>
<!-- file:///tmp/tmpsz90n6d0#sample_sex -->
<g id="node2" class="node">
<title>file:///tmp/tmpsz90n6d0#sample_sex</title>
<g id="a_node2"><a xlink:title="Specifies the sex of a sample&#10;">
<polygon fill="#94ddf4" stroke="#000000" points="4288.5,-1388.2767 4288.5,-1425.2767 4387.5,-1425.2767 4387.5,-1388.2767 4288.5,-1388.2767"/>
<text text-anchor="middle" x="4338" y="-1403.0767" font-family="Times,serif" font-size="14.00" fill="#000000">sample_sex</text>
</a>
</g>
</g>
<!-- file:///tmp/tmpsz90n6d0#sample_sex&#45;&gt;file:///tmp/tmpsz90n6d0#run_dragen_germline_step -->
<g id="edge10" class="edge">
<title>file:///tmp/tmpsz90n6d0#sample_sex&#45;&gt;file:///tmp/tmpsz90n6d0#run_dragen_germline_step</title>
<path fill="none" stroke="#000000" d="M4320.5094,-1388.0906C4309.5449,-1377.4289 4294.5737,-1364.6584 4279,-1356.7767 3834.0695,-1131.6013 3231.6704,-1055.0148 2989.4203,-1032.2836"/>
<polygon fill="#000000" stroke="#000000" points="2989.4863,-1028.7749 2979.206,-1031.3372 2988.8404,-1035.745 2989.4863,-1028.7749"/>
</g>
<!-- file:///tmp/tmpsz90n6d0#reference_tar -->
<g id="node3" class="node">
<title>file:///tmp/tmpsz90n6d0#reference_tar</title>
<g id="a_node3"><a xlink:title="Path to ref data tarball&#10;">
<polygon fill="#94ddf4" stroke="#000000" points="4156,-1388.2767 4156,-1425.2767 4270,-1425.2767 4270,-1388.2767 4156,-1388.2767"/>
<text text-anchor="middle" x="4213" y="-1403.0767" font-family="Times,serif" font-size="14.00" fill="#000000">reference_tar</text>
</a>
</g>
</g>
<!-- file:///tmp/tmpsz90n6d0#reference_tar&#45;&gt;file:///tmp/tmpsz90n6d0#run_dragen_germline_step -->
<g id="edge11" class="edge">
<title>file:///tmp/tmpsz90n6d0#reference_tar&#45;&gt;file:///tmp/tmpsz90n6d0#run_dragen_germline_step</title>
<path fill="none" stroke="#000000" d="M4192.6981,-1388.0603C4180.3032,-1377.5232 4163.6747,-1364.8905 4147,-1356.7767 3745.27,-1161.2966 3213.9424,-1069.6067 2989.4346,-1037.627"/>
<polygon fill="#000000" stroke="#000000" points="2989.6935,-1034.1289 2979.302,-1036.1947 2988.7136,-1041.06 2989.6935,-1034.1289"/>
</g>
<!-- file:///tmp/tmpsz90n6d0#output_file_prefix -->
<g id="node4" class="node">
<title>file:///tmp/tmpsz90n6d0#output_file_prefix</title>
<g id="a_node4"><a xlink:title="The prefix given to all output files&#10;">
<polygon fill="#94ddf4" stroke="#000000" points="4703.5,-1388.2767 4703.5,-1425.2767 4846.5,-1425.2767 4846.5,-1388.2767 4703.5,-1388.2767"/>
<text text-anchor="middle" x="4775" y="-1403.0767" font-family="Times,serif" font-size="14.00" fill="#000000">output_file_prefix</text>
</a>
</g>
</g>
<!-- file:///tmp/tmpsz90n6d0#output_file_prefix&#45;&gt;file:///tmp/tmpsz90n6d0#run_dragen_germline_step -->
<g id="edge12" class="edge">
<title>file:///tmp/tmpsz90n6d0#output_file_prefix&#45;&gt;file:///tmp/tmpsz90n6d0#run_dragen_germline_step</title>
<path fill="none" stroke="#000000" d="M4750.7131,-1388.2067C4735.4825,-1377.4488 4715.0028,-1364.5379 4695,-1356.7767 4078.6895,-1117.6446 3276.5207,-1047.6104 2989.7348,-1029.4809"/>
<polygon fill="#000000" stroke="#000000" points="2989.5386,-1025.9619 2979.34,-1028.8323 2989.1026,-1032.9484 2989.5386,-1025.9619"/>
</g>
<!-- file:///tmp/tmpsz90n6d0#dragen_qc_step -->
<g id="node32" class="node">
<title>file:///tmp/tmpsz90n6d0#dragen_qc_step</title>
<g id="a_node32"><a xlink:href="https://github.com/umccr/cwl-ica/blob/beta-release/.github/catalogue/docs/tools/multiqc/1.10.1/multiqc__1.10.1.md" xlink:title="The dragen qc step &#45; this takes in an array of dirs&#10;">
<polygon fill="#fafad2" stroke="#000000" points="4705,-638.2767 4705,-675.2767 4845,-675.2767 4845,-638.2767 4705,-638.2767"/>
<text text-anchor="middle" x="4775" y="-653.0767" font-family="Times,serif" font-size="14.00" fill="#000000">multiqc v(1.10.1)</text>
</a>
</g>
</g>
<!-- file:///tmp/tmpsz90n6d0#output_file_prefix&#45;&gt;file:///tmp/tmpsz90n6d0#dragen_qc_step -->
<g id="edge13" class="edge">
<title>file:///tmp/tmpsz90n6d0#output_file_prefix&#45;&gt;file:///tmp/tmpsz90n6d0#dragen_qc_step</title>
<path fill="none" stroke="#000000" d="M4770.4121,-1388.2373C4758.8783,-1287.7323 4758.5395,-808.2275 4769.3959,-685.4601"/>
<polygon fill="#000000" stroke="#000000" points="4772.8954,-685.6385 4770.4094,-675.3395 4765.9303,-684.9409 4772.8954,-685.6385"/>
</g>
<!-- file:///tmp/tmpsz90n6d0#output_file_prefix&#45;&gt;file:///tmp/tmpsz90n6d0#dragen_qc_step -->
<g id="edge14" class="edge">
<title>file:///tmp/tmpsz90n6d0#output_file_prefix&#45;&gt;file:///tmp/tmpsz90n6d0#dragen_qc_step</title>
<path fill="none" stroke="#000000" d="M4775,-1388.2373C4775,-1287.7323 4775,-808.2275 4775,-685.4601"/>
<polygon fill="#000000" stroke="#000000" points="4778.5001,-685.3394 4775,-675.3395 4771.5001,-685.3395 4778.5001,-685.3394"/>
</g>
<!-- file:///tmp/tmpsz90n6d0#output_file_prefix&#45;&gt;file:///tmp/tmpsz90n6d0#dragen_qc_step -->
<g id="edge15" class="edge">
<title>file:///tmp/tmpsz90n6d0#output_file_prefix&#45;&gt;file:///tmp/tmpsz90n6d0#dragen_qc_step</title>
<path fill="none" stroke="#000000" d="M4779.5879,-1388.2373C4791.1217,-1287.7323 4791.4605,-808.2275 4780.6041,-685.4601"/>
<polygon fill="#000000" stroke="#000000" points="4784.0697,-684.9409 4779.5906,-675.3395 4777.1046,-685.6385 4784.0697,-684.9409"/>
</g>
<!-- file:///tmp/tmpsz90n6d0#dbsnp_annotation -->
<g id="node5" class="node">
<title>file:///tmp/tmpsz90n6d0#dbsnp_annotation</title>
<g id="a_node5"><a xlink:title="In Germline, Tumor&#45;Normal somatic, or Tumor&#45;Only somatic modes,&#10;DRAGEN can look up variant calls in a dbSNP database and add annotations for any matches that it finds there.&#10;To enable the dbSNP database search, set the &#45;&#45;dbsnp option to the full path to the dbSNP database&#10;VCF or .vcf.gz file, which must be sorted in reference order.&#10;">
<polygon fill="#94ddf4" stroke="#000000" points="3782,-1388.2767 3782,-1425.2767 3926,-1425.2767 3926,-1388.2767 3782,-1388.2767"/>
<text text-anchor="middle" x="3854" y="-1403.0767" font-family="Times,serif" font-size="14.00" fill="#000000">dbsnp_annotation</text>
</a>
</g>
</g>
<!-- file:///tmp/tmpsz90n6d0#dbsnp_annotation&#45;&gt;file:///tmp/tmpsz90n6d0#run_dragen_germline_step -->
<g id="edge16" class="edge">
<title>file:///tmp/tmpsz90n6d0#dbsnp_annotation&#45;&gt;file:///tmp/tmpsz90n6d0#run_dragen_germline_step</title>
<path fill="none" stroke="#000000" d="M3827.0183,-1388.2751C3811.6153,-1378.1895 3791.701,-1365.934 3773,-1356.7767 3479.6655,-1213.1404 3107.7536,-1092.6824 2953.7692,-1045.3235"/>
<polygon fill="#000000" stroke="#000000" points="2954.5316,-1041.8965 2943.9448,-1042.3103 2952.479,-1048.5888 2954.5316,-1041.8965"/>
</g>
<!-- file:///tmp/tmpsz90n6d0#vc_enable_phasing -->
<g id="node6" class="node">
<title>file:///tmp/tmpsz90n6d0#vc_enable_phasing</title>
<g id="a_node6"><a xlink:title="The –vc&#45;enable&#45;phasing option enables variants to be phased when possible. The default value is true.&#10;">
<polygon fill="#94ddf4" stroke="#000000" points="3612,-1388.2767 3612,-1425.2767 3764,-1425.2767 3764,-1388.2767 3612,-1388.2767"/>
<text text-anchor="middle" x="3688" y="-1403.0767" font-family="Times,serif" font-size="14.00" fill="#000000">vc_enable_phasing</text>
</a>
</g>
</g>
<!-- file:///tmp/tmpsz90n6d0#vc_enable_phasing&#45;&gt;file:///tmp/tmpsz90n6d0#run_dragen_germline_step -->
<g id="edge17" class="edge">
<title>file:///tmp/tmpsz90n6d0#vc_enable_phasing&#45;&gt;file:///tmp/tmpsz90n6d0#run_dragen_germline_step</title>
<path fill="none" stroke="#000000" d="M3658.1186,-1388.22C3642.0084,-1378.4661 3621.6574,-1366.5421 3603,-1356.7767 3358.8816,-1229.0033 3056.538,-1097.796 2935.6295,-1046.3765"/>
<polygon fill="#000000" stroke="#000000" points="2936.7829,-1043.0638 2926.2104,-1042.3762 2934.0465,-1049.5068 2936.7829,-1043.0638"/>
</g>
<!-- file:///tmp/tmpsz90n6d0#vc_target_coverage -->
<g id="node7" class="node">
<title>file:///tmp/tmpsz90n6d0#vc_target_coverage</title>
<g id="a_node7"><a xlink:title="The &#45;&#45;vc&#45;target&#45;coverage option specifies the target coverage for down&#45;sampling.&#10;The default value is 500 for germline mode and 50 for somatic mode.&#10;">
<polygon fill="#94ddf4" stroke="#000000" points="3436,-1388.2767 3436,-1425.2767 3594,-1425.2767 3594,-1388.2767 3436,-1388.2767"/>
<text text-anchor="middle" x="3515" y="-1403.0767" font-family="Times,serif" font-size="14.00" fill="#000000">vc_target_coverage</text>
</a>
</g>
</g>
<!-- file:///tmp/tmpsz90n6d0#vc_target_coverage&#45;&gt;file:///tmp/tmpsz90n6d0#run_dragen_germline_step -->
<g id="edge18" class="edge">
<title>file:///tmp/tmpsz90n6d0#vc_target_coverage&#45;&gt;file:///tmp/tmpsz90n6d0#run_dragen_germline_step</title>
<path fill="none" stroke="#000000" d="M3484.0406,-1388.0445C3379.2915,-1324.6656 3038.2176,-1118.297 2921.5528,-1047.7084"/>
<polygon fill="#000000" stroke="#000000" points="2923.2675,-1044.6551 2912.8998,-1042.4728 2919.6438,-1050.6441 2923.2675,-1044.6551"/>
</g>
<!-- file:///tmp/tmpsz90n6d0#vc_enable_roh -->
<g id="node8" class="node">
<title>file:///tmp/tmpsz90n6d0#vc_enable_roh</title>
<g id="a_node8"><a xlink:title="Enable or disable the ROH caller by setting this option to true or false. Enabled by default for human autosomes only.&#10;">
<polygon fill="#94ddf4" stroke="#000000" points="3298.5,-1388.2767 3298.5,-1425.2767 3417.5,-1425.2767 3417.5,-1388.2767 3298.5,-1388.2767"/>
<text text-anchor="middle" x="3358" y="-1403.0767" font-family="Times,serif" font-size="14.00" fill="#000000">vc_enable_roh</text>
</a>
</g>
</g>
<!-- file:///tmp/tmpsz90n6d0#vc_enable_roh&#45;&gt;file:///tmp/tmpsz90n6d0#run_dragen_germline_step -->
<g id="edge19" class="edge">
<title>file:///tmp/tmpsz90n6d0#vc_enable_roh&#45;&gt;file:///tmp/tmpsz90n6d0#run_dragen_germline_step</title>
<path fill="none" stroke="#000000" d="M3334.7193,-1388.0445C3256.3453,-1324.9831 3002.0372,-1120.3612 2913.074,-1048.7795"/>
<polygon fill="#000000" stroke="#000000" points="2915.2211,-1046.0148 2905.2359,-1042.4728 2910.8329,-1051.4686 2915.2211,-1046.0148"/>
</g>
<!-- file:///tmp/tmpsz90n6d0#lic_instance_id_location -->
<g id="node9" class="node">
<title>file:///tmp/tmpsz90n6d0#lic_instance_id_location</title>
<g id="a_node9"><a xlink:title="You may wish to place your own in.&#10;Optional value, default set to /opt/instance&#45;identity&#10;which is a path inside the dragen container&#10;">
<polygon fill="#94ddf4" stroke="#000000" points="3092,-1388.2767 3092,-1425.2767 3280,-1425.2767 3280,-1388.2767 3092,-1388.2767"/>
<text text-anchor="middle" x="3186" y="-1403.0767" font-family="Times,serif" font-size="14.00" fill="#000000">lic_instance_id_location</text>
</a>
</g>
</g>
<!-- file:///tmp/tmpsz90n6d0#lic_instance_id_location&#45;&gt;file:///tmp/tmpsz90n6d0#run_dragen_germline_step -->
<g id="edge20" class="edge">
<title>file:///tmp/tmpsz90n6d0#lic_instance_id_location&#45;&gt;file:///tmp/tmpsz90n6d0#run_dragen_germline_step</title>
<path fill="none" stroke="#000000" d="M3171.1317,-1388.0445C3121.4305,-1325.4276 2960.9466,-1123.2391 2903.0628,-1050.3131"/>
<polygon fill="#000000" stroke="#000000" points="2905.7982,-1048.1294 2896.8397,-1042.4728 2900.3153,-1052.4814 2905.7982,-1048.1294"/>
</g>
<!-- file:///tmp/tmpsz90n6d0#enable_map_align_output -->
<g id="node10" class="node">
<title>file:///tmp/tmpsz90n6d0#enable_map_align_output</title>
<g id="a_node10"><a xlink:title="Do you wish to have the output bam files present&#10;">
<polygon fill="#94ddf4" stroke="#000000" points="2874,-1388.2767 2874,-1425.2767 3074,-1425.2767 3074,-1388.2767 2874,-1388.2767"/>
<text text-anchor="middle" x="2974" y="-1403.0767" font-family="Times,serif" font-size="14.00" fill="#000000">enable_map_align_output</text>
</a>
</g>
</g>
<!-- file:///tmp/tmpsz90n6d0#enable_map_align_output&#45;&gt;file:///tmp/tmpsz90n6d0#run_dragen_germline_step -->
<g id="edge21" class="edge">
<title>file:///tmp/tmpsz90n6d0#enable_map_align_output&#45;&gt;file:///tmp/tmpsz90n6d0#run_dragen_germline_step</title>
<path fill="none" stroke="#000000" d="M2969.5004,-1388.0445C2954.6118,-1326.0627 2906.8734,-1127.3259 2888.9168,-1052.5715"/>
<polygon fill="#000000" stroke="#000000" points="2892.2299,-1051.3787 2886.491,-1042.4728 2885.4235,-1053.0137 2892.2299,-1051.3787"/>
</g>
<!-- file:///tmp/tmpsz90n6d0#dedup_min_qual -->
<g id="node11" class="node">
<title>file:///tmp/tmpsz90n6d0#dedup_min_qual</title>
<g id="a_node11"><a xlink:title="Specifies the Phred quality score below which a base should be excluded from the quality score&#10;calculation used for choosing among duplicate reads.&#10;">
<polygon fill="#94ddf4" stroke="#000000" points="2722,-1388.2767 2722,-1425.2767 2856,-1425.2767 2856,-1388.2767 2722,-1388.2767"/>
<text text-anchor="middle" x="2789" y="-1403.0767" font-family="Times,serif" font-size="14.00" fill="#000000">dedup_min_qual</text>
</a>
</g>
</g>
<!-- file:///tmp/tmpsz90n6d0#dedup_min_qual&#45;&gt;file:///tmp/tmpsz90n6d0#run_dragen_germline_step -->
<g id="edge22" class="edge">
<title>file:///tmp/tmpsz90n6d0#dedup_min_qual&#45;&gt;file:///tmp/tmpsz90n6d0#run_dragen_germline_step</title>
<path fill="none" stroke="#000000" d="M2793.5485,-1388.0445C2808.599,-1326.0627 2856.8562,-1127.3259 2875.0081,-1052.5715"/>
<polygon fill="#000000" stroke="#000000" points="2878.5017,-1053.0163 2877.4602,-1042.4728 2871.6993,-1051.3645 2878.5017,-1053.0163"/>
</g>
<!-- file:///tmp/tmpsz90n6d0#vc_max_reads_per_raw_region -->
<g id="node12" class="node">
<title>file:///tmp/tmpsz90n6d0#vc_max_reads_per_raw_region</title>
<g id="a_node12"><a xlink:title="specifies the maximum number of reads covering a given raw region.&#10;Default is 30000 for the germline workflow&#10;">
<polygon fill="#94ddf4" stroke="#000000" points="2466.5,-1388.2767 2466.5,-1425.2767 2703.5,-1425.2767 2703.5,-1388.2767 2466.5,-1388.2767"/>
<text text-anchor="middle" x="2585" y="-1403.0767" font-family="Times,serif" font-size="14.00" fill="#000000">vc_max_reads_per_raw_region</text>
</a>
</g>
</g>
<!-- file:///tmp/tmpsz90n6d0#vc_max_reads_per_raw_region&#45;&gt;file:///tmp/tmpsz90n6d0#run_dragen_germline_step -->
<g id="edge23" class="edge">
<title>file:///tmp/tmpsz90n6d0#vc_max_reads_per_raw_region&#45;&gt;file:///tmp/tmpsz90n6d0#run_dragen_germline_step</title>
<path fill="none" stroke="#000000" d="M2599.526,-1388.0445C2647.9842,-1325.5547 2804.2356,-1124.0588 2861.0768,-1050.7584"/>
<polygon fill="#000000" stroke="#000000" points="2864.1398,-1052.52 2867.502,-1042.4728 2858.6081,-1048.2304 2864.1398,-1052.52"/>
</g>
<!-- file:///tmp/tmpsz90n6d0#vc_max_reads_per_active_region -->
<g id="node13" class="node">
<title>file:///tmp/tmpsz90n6d0#vc_max_reads_per_active_region</title>
<g id="a_node13"><a xlink:title="specifies the maximum number of reads covering a given active region.&#10;Default is 10000 for the germline workflow&#10;">
<polygon fill="#94ddf4" stroke="#000000" points="2194,-1388.2767 2194,-1425.2767 2448,-1425.2767 2448,-1388.2767 2194,-1388.2767"/>
<text text-anchor="middle" x="2321" y="-1403.0767" font-family="Times,serif" font-size="14.00" fill="#000000">vc_max_reads_per_active_region</text>
</a>
</g>
</g>
<!-- file:///tmp/tmpsz90n6d0#vc_max_reads_per_active_region&#45;&gt;file:///tmp/tmpsz90n6d0#run_dragen_germline_step -->
<g id="edge24" class="edge">
<title>file:///tmp/tmpsz90n6d0#vc_max_reads_per_active_region&#45;&gt;file:///tmp/tmpsz90n6d0#run_dragen_germline_step</title>
<path fill="none" stroke="#000000" d="M2348.438,-1388.0445C2441.0864,-1324.7926 2742.3405,-1119.1236 2846.3221,-1048.1344"/>
<polygon fill="#000000" stroke="#000000" points="2848.3294,-1051.0018 2854.6148,-1042.4728 2844.3825,-1045.2206 2848.3294,-1051.0018"/>
</g>
<!-- file:///tmp/tmpsz90n6d0#vc_roh_blacklist_bed -->
<g id="node14" class="node">
<title>file:///tmp/tmpsz90n6d0#vc_roh_blacklist_bed</title>
<g id="a_node14"><a xlink:title="If provided, the ROH caller ignores variants that are contained in any region in the blacklist BED file.&#10;DRAGEN distributes blacklist files for all popular human genomes and automatically selects a blacklist to&#10;match the genome in use, unless this option is used explicitly select a file.&#10;">
<polygon fill="#94ddf4" stroke="#000000" points="2008.5,-1388.2767 2008.5,-1425.2767 2175.5,-1425.2767 2175.5,-1388.2767 2008.5,-1388.2767"/>
<text text-anchor="middle" x="2092" y="-1403.0767" font-family="Times,serif" font-size="14.00" fill="#000000">vc_roh_blacklist_bed</text>
</a>
</g>
</g>
<!-- file:///tmp/tmpsz90n6d0#vc_roh_blacklist_bed&#45;&gt;file:///tmp/tmpsz90n6d0#run_dragen_germline_step -->
<g id="edge25" class="edge">
<title>file:///tmp/tmpsz90n6d0#vc_roh_blacklist_bed&#45;&gt;file:///tmp/tmpsz90n6d0#run_dragen_germline_step</title>
<path fill="none" stroke="#000000" d="M2125.808,-1388.1004C2143.3608,-1378.5313 2165.2191,-1366.8123 2185,-1356.7767 2424.9237,-1235.0547 2716.8381,-1099.6142 2831.9269,-1046.7032"/>
<polygon fill="#000000" stroke="#000000" points="2833.5832,-1049.794 2841.2088,-1042.4386 2830.6608,-1043.4332 2833.5832,-1049.794"/>
</g>
<!-- file:///tmp/tmpsz90n6d0#vc_enable_vcf_output -->
<g id="node15" class="node">
<title>file:///tmp/tmpsz90n6d0#vc_enable_vcf_output</title>
<g id="a_node15"><a xlink:title="The –vc&#45;enable&#45;vcf&#45;output option enables VCF file output during a gVCF run. The default value is false.&#10;">
<polygon fill="#94ddf4" stroke="#000000" points="1818,-1388.2767 1818,-1425.2767 1990,-1425.2767 1990,-1388.2767 1818,-1388.2767"/>
<text text-anchor="middle" x="1904" y="-1403.0767" font-family="Times,serif" font-size="14.00" fill="#000000">vc_enable_vcf_output</text>
</a>
</g>
</g>
<!-- file:///tmp/tmpsz90n6d0#vc_enable_vcf_output&#45;&gt;file:///tmp/tmpsz90n6d0#run_dragen_germline_step -->
<g id="edge26" class="edge">
<title>file:///tmp/tmpsz90n6d0#vc_enable_vcf_output&#45;&gt;file:///tmp/tmpsz90n6d0#run_dragen_germline_step</title>
<path fill="none" stroke="#000000" d="M1937.2834,-1388.1937C1955.5409,-1378.3191 1978.729,-1366.2908 2000,-1356.7767 2298.4992,-1223.2638 2668.2667,-1095.3307 2816.2686,-1045.5826"/>
<polygon fill="#000000" stroke="#000000" points="2817.7488,-1048.7778 2826.1157,-1042.2782 2815.5218,-1042.1415 2817.7488,-1048.7778"/>
</g>
<!-- file:///tmp/tmpsz90n6d0#vc_enable_gatk_acceleration -->
<g id="node16" class="node">
<title>file:///tmp/tmpsz90n6d0#vc_enable_gatk_acceleration</title>
<g id="a_node16"><a xlink:title="If is set to true, the variant caller runs in GATK mode&#10;(concordant with GATK 3.7 in germline mode and GATK 4.0 in somatic mode).&#10;">
<polygon fill="#94ddf4" stroke="#000000" points="1576,-1388.2767 1576,-1425.2767 1800,-1425.2767 1800,-1388.2767 1576,-1388.2767"/>
<text text-anchor="middle" x="1688" y="-1403.0767" font-family="Times,serif" font-size="14.00" fill="#000000">vc_enable_gatk_acceleration</text>
</a>
</g>
</g>
<!-- file:///tmp/tmpsz90n6d0#vc_enable_gatk_acceleration&#45;&gt;file:///tmp/tmpsz90n6d0#run_dragen_germline_step -->
<g id="edge27" class="edge">
<title>file:///tmp/tmpsz90n6d0#vc_enable_gatk_acceleration&#45;&gt;file:///tmp/tmpsz90n6d0#run_dragen_germline_step</title>
<path fill="none" stroke="#000000" d="M1730.1897,-1388.2374C1753.2717,-1378.3755 1782.4891,-1366.3455 1809,-1356.7767 2177.2236,-1223.8703 2627.6043,-1094.6791 2804.9843,-1045.0706"/>
<polygon fill="#000000" stroke="#000000" points="2806.0599,-1048.4043 2814.7496,-1042.3429 2804.1766,-1041.6624 2806.0599,-1048.4043"/>
</g>
<!-- file:///tmp/tmpsz90n6d0#vc_enable_decoy_contigs -->
<g id="node17" class="node">
<title>file:///tmp/tmpsz90n6d0#vc_enable_decoy_contigs</title>
<g id="a_node17"><a xlink:title="If &#45;&#45;vc&#45;enable&#45;decoy&#45;contigs is set to true, variant calls on the decoy contigs are enabled.&#10;The default value is false.&#10;">
<polygon fill="#94ddf4" stroke="#000000" points="1360.5,-1388.2767 1360.5,-1425.2767 1557.5,-1425.2767 1557.5,-1388.2767 1360.5,-1388.2767"/>
<text text-anchor="middle" x="1459" y="-1403.0767" font-family="Times,serif" font-size="14.00" fill="#000000">vc_enable_decoy_contigs</text>
</a>
</g>
</g>
<!-- file:///tmp/tmpsz90n6d0#vc_enable_decoy_contigs&#45;&gt;file:///tmp/tmpsz90n6d0#run_dragen_germline_step -->
<g id="edge28" class="edge">
<title>file:///tmp/tmpsz90n6d0#vc_enable_decoy_contigs&#45;&gt;file:///tmp/tmpsz90n6d0#run_dragen_germline_step</title>
<path fill="none" stroke="#000000" d="M1494.7932,-1388.1649C1515.4955,-1377.9214 1542.2685,-1365.5474 1567,-1356.7767 2004.6915,-1201.5551 2548.3317,-1087.8809 2774.998,-1043.8468"/>
<polygon fill="#000000" stroke="#000000" points="2775.7438,-1047.2675 2784.8954,-1041.9292 2774.4122,-1040.3953 2775.7438,-1047.2675"/>
</g>
<!-- file:///tmp/tmpsz90n6d0#vc_hard_filter -->
<g id="node18" class="node">
<title>file:///tmp/tmpsz90n6d0#vc_hard_filter</title>
<g id="a_node18"><a xlink:title="DRAGEN provides post&#45;VCF variant filtering based on annotations present in the VCF records.&#10;However, due to the nature of DRAGEN’s algorithms, which incorporate the hypothesis of correlated errors&#10;from within the core of variant caller, the pipeline has improved capabilities in distinguishing&#10;the true variants from noise, and therefore the dependency on post&#45;VCF filtering is substantially reduced.&#10;For this reason, the default post&#45;VCF filtering in DRAGEN is very simple&#10;">
<polygon fill="#94ddf4" stroke="#000000" points="1226,-1388.2767 1226,-1425.2767 1342,-1425.2767 1342,-1388.2767 1226,-1388.2767"/>
<text text-anchor="middle" x="1284" y="-1403.0767" font-family="Times,serif" font-size="14.00" fill="#000000">vc_hard_filter</text>
</a>
</g>
</g>
<!-- file:///tmp/tmpsz90n6d0#vc_hard_filter&#45;&gt;file:///tmp/tmpsz90n6d0#run_dragen_germline_step -->
<g id="edge29" class="edge">
<title>file:///tmp/tmpsz90n6d0#vc_hard_filter&#45;&gt;file:///tmp/tmpsz90n6d0#run_dragen_germline_step</title>
<path fill="none" stroke="#000000" d="M1304.5859,-1388.0603C1317.3745,-1377.3879 1334.6386,-1364.6167 1352,-1356.7767 1853.5047,-1130.3092 2518.5042,-1053.7832 2774.8972,-1031.6705"/>
<polygon fill="#000000" stroke="#000000" points="2775.2866,-1035.1501 2784.953,-1030.8132 2774.6918,-1028.1754 2775.2866,-1035.1501"/>
</g>
<!-- file:///tmp/tmpsz90n6d0#vc_target_bed -->
<g id="node19" class="node">
<title>file:///tmp/tmpsz90n6d0#vc_target_bed</title>
<g id="a_node19"><a xlink:title="This is an optional command line input that restricts processing of the small variant caller,&#10;target bed related coverage, and callability metrics to regions specified in a BED file.&#10;">
<polygon fill="#94ddf4" stroke="#000000" points="1088.5,-1388.2767 1088.5,-1425.2767 1207.5,-1425.2767 1207.5,-1388.2767 1088.5,-1388.2767"/>
<text text-anchor="middle" x="1148" y="-1403.0767" font-family="Times,serif" font-size="14.00" fill="#000000">vc_target_bed</text>
</a>
</g>
</g>
<!-- file:///tmp/tmpsz90n6d0#vc_target_bed&#45;&gt;file:///tmp/tmpsz90n6d0#run_dragen_germline_step -->
<g id="edge30" class="edge">
<title>file:///tmp/tmpsz90n6d0#vc_target_bed&#45;&gt;file:///tmp/tmpsz90n6d0#run_dragen_germline_step</title>
<path fill="none" stroke="#000000" d="M1168.5871,-1388.2091C1181.5919,-1377.4521 1199.2438,-1364.5413 1217,-1356.7767 1769.6598,-1115.1048 2502.5621,-1047.0228 2774.4969,-1029.429"/>
<polygon fill="#000000" stroke="#000000" points="2774.9999,-1032.9041 2784.757,-1028.7751 2774.5546,-1025.9183 2774.9999,-1032.9041"/>
</g>
<!-- file:///tmp/tmpsz90n6d0#vc_target_bed_padding -->
<g id="node20" class="node">
<title>file:///tmp/tmpsz90n6d0#vc_target_bed_padding</title>
<g id="a_node20"><a xlink:title="This is an optional command line input that can be used to pad all of the target&#10;BED regions with the specified value.&#10;For example, if a BED region is 1:1000&#45;2000 and a padding value of 100 is used,&#10;it is equivalent to using a BED region of 1:900&#45;2100 and a padding value of 0.&#10;Any padding added to &#45;&#45;vc&#45;target&#45;bed&#45;padding is used by the small variant caller&#10;and by the target bed coverage/callability reports. The default padding is 0.&#10;">
<polygon fill="#94ddf4" stroke="#000000" points="886,-1388.2767 886,-1425.2767 1070,-1425.2767 1070,-1388.2767 886,-1388.2767"/>
<text text-anchor="middle" x="978" y="-1403.0767" font-family="Times,serif" font-size="14.00" fill="#000000">vc_target_bed_padding</text>
</a>
</g>
</g>
<!-- file:///tmp/tmpsz90n6d0#vc_target_bed_padding&#45;&gt;file:///tmp/tmpsz90n6d0#run_dragen_germline_step -->
<g id="edge31" class="edge">
<title>file:///tmp/tmpsz90n6d0#vc_target_bed_padding&#45;&gt;file:///tmp/tmpsz90n6d0#run_dragen_germline_step</title>
<path fill="none" stroke="#000000" d="M1010.114,-1388.2105C1029.7348,-1377.5913 1055.6576,-1364.8234 1080,-1356.7767 1702.8702,-1150.88 2491.4484,-1060.6255 2774.6744,-1033.3031"/>
<polygon fill="#000000" stroke="#000000" points="2775.3214,-1036.7572 2784.9418,-1032.3189 2774.6534,-1029.7892 2775.3214,-1036.7572"/>
</g>
<!-- file:///tmp/tmpsz90n6d0#enable_duplicate_marking -->
<g id="node21" class="node">
<title>file:///tmp/tmpsz90n6d0#enable_duplicate_marking</title>
<g id="a_node21"><a xlink:title="Mark identical alignments as duplicates&#10;">
<polygon fill="#94ddf4" stroke="#000000" points="518,-1388.2767 518,-1425.2767 724,-1425.2767 724,-1388.2767 518,-1388.2767"/>
<text text-anchor="middle" x="621" y="-1403.0767" font-family="Times,serif" font-size="14.00" fill="#000000">enable_duplicate_marking</text>
</a>
</g>
</g>
<!-- file:///tmp/tmpsz90n6d0#enable_duplicate_marking&#45;&gt;file:///tmp/tmpsz90n6d0#run_dragen_germline_step -->
<g id="edge32" class="edge">
<title>file:///tmp/tmpsz90n6d0#enable_duplicate_marking&#45;&gt;file:///tmp/tmpsz90n6d0#run_dragen_germline_step</title>
<path fill="none" stroke="#000000" d="M656.4756,-1388.1878C678.2954,-1377.4923 707.135,-1364.6531 734,-1356.7767 1496.1521,-1133.3256 2456.951,-1052.2125 2774.6372,-1030.4266"/>
<polygon fill="#000000" stroke="#000000" points="2775.0185,-1033.9089 2784.7577,-1029.7378 2774.5431,-1026.925 2775.0185,-1033.9089"/>
</g>
<!-- file:///tmp/tmpsz90n6d0#output_directory -->
<g id="node22" class="node">
<title>file:///tmp/tmpsz90n6d0#output_directory</title>
<g id="a_node22"><a xlink:title="The directory where all output files are placed&#10;">
<polygon fill="#94ddf4" stroke="#000000" points="362.5,-1388.2767 362.5,-1425.2767 499.5,-1425.2767 499.5,-1388.2767 362.5,-1388.2767"/>
<text text-anchor="middle" x="431" y="-1403.0767" font-family="Times,serif" font-size="14.00" fill="#000000">output_directory</text>
</a>
</g>
</g>
<!-- file:///tmp/tmpsz90n6d0#output_directory&#45;&gt;file:///tmp/tmpsz90n6d0#run_dragen_germline_step -->
<g id="edge33" class="edge">
<title>file:///tmp/tmpsz90n6d0#output_directory&#45;&gt;file:///tmp/tmpsz90n6d0#run_dragen_germline_step</title>
<path fill="none" stroke="#000000" d="M454.1584,-1388.139C468.9741,-1377.2144 489.0896,-1364.1514 509,-1356.7767 936.2725,-1198.5161 2369.7547,-1067.2821 2774.6635,-1032.6952"/>
<polygon fill="#000000" stroke="#000000" points="2775.2356,-1036.1592 2784.9022,-1031.8225 2774.6411,-1029.1845 2775.2356,-1036.1592"/>
</g>
<!-- file:///tmp/tmpsz90n6d0#fastq_list_rows -->
<g id="node23" class="node">
<title>file:///tmp/tmpsz90n6d0#fastq_list_rows</title>
<g id="a_node23"><a xlink:title="The row of fastq lists.&#10;Each row has the following attributes:&#10; &#160;* RGID&#10; &#160;* RGLB&#10; &#160;* RGSM&#10; &#160;* Lane&#10; &#160;* Read1File&#10; &#160;* Read2File (optional)&#10;">
<polygon fill="#94ddf4" stroke="#000000" points="742.5,-1388.2767 742.5,-1425.2767 867.5,-1425.2767 867.5,-1388.2767 742.5,-1388.2767"/>
<text text-anchor="middle" x="805" y="-1403.0767" font-family="Times,serif" font-size="14.00" fill="#000000">fastq_list_rows</text>
</a>
</g>
</g>
<!-- file:///tmp/tmpsz90n6d0#create_fastq_list_csv_step -->
<g id="node30" class="node">
<title>file:///tmp/tmpsz90n6d0#create_fastq_list_csv_step</title>
<g id="a_node30"><a xlink:href="https://github.com/umccr/cwl-ica/blob/beta-release/.github/catalogue/docs/tools/custom-create-csv-from-fastq-list-rows/1.0.0/custom-create-csv-from-fastq-list-rows__1.0.0.md" xlink:title="Create the fastq list csv to then run the germline tool.&#10;Takes in an array of fastq_list_row schema.&#10;Returns a csv file along with predefined_mount_path schema&#10;">
<polygon fill="#fafad2" stroke="#000000" points="0,-1388.2767 0,-1425.2767 344,-1425.2767 344,-1388.2767 0,-1388.2767"/>
<text text-anchor="middle" x="172" y="-1403.0767" font-family="Times,serif" font-size="14.00" fill="#000000">custom&#45;create&#45;csv&#45;from&#45;fastq&#45;list&#45;row v(1.0.0)</text>
</a>
</g>
</g>
<!-- file:///tmp/tmpsz90n6d0#fastq_list_rows&#45;&gt;file:///tmp/tmpsz90n6d0#create_fastq_list_csv_step -->
<g id="edge34" class="edge">
<title>file:///tmp/tmpsz90n6d0#fastq_list_rows&#45;&gt;file:///tmp/tmpsz90n6d0#create_fastq_list_csv_step</title>
<path fill="none" stroke="#000000" d="M779.4497,-1425.4029C764.1829,-1435.3616 743.9329,-1446.6116 724,-1451.7767 645.4822,-1472.1227 439.5463,-1461.3317 359,-1451.7767 320.2182,-1447.1761 277.8417,-1437.3869 243.2494,-1428.1101"/>
<polygon fill="#000000" stroke="#000000" points="243.8122,-1424.6359 233.2438,-1425.3834 241.9717,-1431.3896 243.8122,-1424.6359"/>
</g>
<!-- file:///tmp/tmpsz90n6d0#vc_decoy_contigs -->
<g id="node24" class="node">
<title>file:///tmp/tmpsz90n6d0#vc_decoy_contigs</title>
<g id="a_node24"><a xlink:title="The &#45;&#45;vc&#45;decoy&#45;contigs option specifies a comma&#45;separated list of contigs to skip during variant calling.&#10;This option can be set in the configuration file.&#10;">
<polygon fill="#94ddf4" stroke="#000000" points="4542.5,-1388.2767 4542.5,-1425.2767 4685.5,-1425.2767 4685.5,-1388.2767 4542.5,-1388.2767"/>
<text text-anchor="middle" x="4614" y="-1403.0767" font-family="Times,serif" font-size="14.00" fill="#000000">vc_decoy_contigs</text>
</a>
</g>
</g>
<!-- file:///tmp/tmpsz90n6d0#vc_decoy_contigs&#45;&gt;file:///tmp/tmpsz90n6d0#run_dragen_germline_step -->
<g id="edge35" class="edge">
<title>file:///tmp/tmpsz90n6d0#vc_decoy_contigs&#45;&gt;file:///tmp/tmpsz90n6d0#run_dragen_germline_step</title>
<path fill="none" stroke="#000000" d="M4588.9714,-1388.0962C4573.5582,-1377.4366 4552.9826,-1364.6661 4533,-1356.7767 3977.8325,-1137.5883 3258.3176,-1056.2279 2989.5146,-1032.255"/>
<polygon fill="#000000" stroke="#000000" points="2989.6395,-1028.7525 2979.3702,-1031.3585 2989.0232,-1035.7253 2989.6395,-1028.7525"/>
</g>
<!-- file:///tmp/tmpsz90n6d0#vc_remove_all_soft_clips -->
<g id="node25" class="node">
<title>file:///tmp/tmpsz90n6d0#vc_remove_all_soft_clips</title>
<g id="a_node25"><a xlink:title="If is set to true, the variant caller does not use soft clips of reads to determine variants.&#10;">
<polygon fill="#94ddf4" stroke="#000000" points="3944,-1388.2767 3944,-1425.2767 4138,-1425.2767 4138,-1388.2767 3944,-1388.2767"/>
<text text-anchor="middle" x="4041" y="-1403.0767" font-family="Times,serif" font-size="14.00" fill="#000000">vc_remove_all_soft_clips</text>
</a>
</g>
</g>
<!-- file:///tmp/tmpsz90n6d0#vc_remove_all_soft_clips&#45;&gt;file:///tmp/tmpsz90n6d0#run_dragen_germline_step -->
<g id="edge36" class="edge">
<title>file:///tmp/tmpsz90n6d0#vc_remove_all_soft_clips&#45;&gt;file:///tmp/tmpsz90n6d0#run_dragen_germline_step</title>
<path fill="none" stroke="#000000" d="M4004.7397,-1388.1887C3984.5078,-1378.1959 3958.6805,-1366.0575 3935,-1356.7767 3579.1183,-1217.3004 3138.9431,-1093.1138 2961.5754,-1044.9859"/>
<polygon fill="#000000" stroke="#000000" points="2962.3672,-1041.5743 2951.7999,-1042.3382 2960.5371,-1048.3308 2962.3672,-1041.5743"/>
</g>
<!-- file:///tmp/tmpsz90n6d0#dragen_bam_out -->
<g id="node26" class="node">
<title>file:///tmp/tmpsz90n6d0#dragen_bam_out</title>
<g id="a_node26"><a xlink:title="The output bam file, exists only if &#45;&#45;enable&#45;map&#45;align&#45;output is set to true&#10;">
<polygon fill="#94ddf4" stroke="#000000" points="2683,-270.2767 2683,-307.2767 2819,-307.2767 2819,-270.2767 2683,-270.2767"/>
<text text-anchor="middle" x="2751" y="-285.0767" font-family="Times,serif" font-size="14.00" fill="#000000">dragen_bam_out</text>
</a>
</g>
</g>
<!-- file:///tmp/tmpsz90n6d0#multiqc_output_directory -->
<g id="node27" class="node">
<title>file:///tmp/tmpsz90n6d0#multiqc_output_directory</title>
<g id="a_node27"><a xlink:title="The output directory for multiqc&#10;">
<polygon fill="#94ddf4" stroke="#000000" points="3267,-270.2767 3267,-307.2767 3467,-307.2767 3467,-270.2767 3267,-270.2767"/>
<text text-anchor="middle" x="3367" y="-285.0767" font-family="Times,serif" font-size="14.00" fill="#000000">multiqc_output_directory</text>
</a>
</g>
</g>
<!-- file:///tmp/tmpsz90n6d0#dragen_germline_output_directory -->
<g id="node28" class="node">
<title>file:///tmp/tmpsz90n6d0#dragen_germline_output_directory</title>
<g id="a_node28"><a xlink:title="The output directory containing all germline output files&#10;">
<polygon fill="#94ddf4" stroke="#000000" points="2837,-270.2767 2837,-307.2767 3103,-307.2767 3103,-270.2767 2837,-270.2767"/>
<text text-anchor="middle" x="2970" y="-285.0767" font-family="Times,serif" font-size="14.00" fill="#000000">dragen_germline_output_directory</text>
</a>
</g>
</g>
<!-- file:///tmp/tmpsz90n6d0#dragen_vcf_out -->
<g id="node29" class="node">
<title>file:///tmp/tmpsz90n6d0#dragen_vcf_out</title>
<g id="a_node29"><a xlink:title="The output germline vcf file&#10;">
<polygon fill="#94ddf4" stroke="#000000" points="3121.5,-270.2767 3121.5,-307.2767 3248.5,-307.2767 3248.5,-270.2767 3121.5,-270.2767"/>
<text text-anchor="middle" x="3185" y="-285.0767" font-family="Times,serif" font-size="14.00" fill="#000000">dragen_vcf_out</text>
</a>
</g>
</g>
<!-- file:///tmp/tmpsz90n6d0#create_fastq_list_csv_step&#45;&gt;file:///tmp/tmpsz90n6d0#run_dragen_germline_step -->
<g id="edge1" class="edge">
<title>file:///tmp/tmpsz90n6d0#create_fastq_list_csv_step&#45;&gt;file:///tmp/tmpsz90n6d0#run_dragen_germline_step</title>
<path fill="none" stroke="#000000" d="M222.1599,-1388.2125C255.5559,-1377.7277 300.437,-1365.0966 341,-1356.7767 1273.4786,-1165.5161 2422.7594,-1060.8462 2774.6589,-1032.0489"/>
<polygon fill="#000000" stroke="#000000" points="2775.1541,-1035.5203 2784.8365,-1031.2191 2774.5851,-1028.5434 2775.1541,-1035.5203"/>
</g>
<!-- file:///tmp/tmpsz90n6d0#create_fastq_list_csv_step&#45;&gt;file:///tmp/tmpsz90n6d0#run_dragen_germline_step -->
<g id="edge2" class="edge">
<title>file:///tmp/tmpsz90n6d0#create_fastq_list_csv_step&#45;&gt;file:///tmp/tmpsz90n6d0#run_dragen_germline_step</title>
<path fill="none" stroke="#000000" d="M237.8567,-1388.2125C273.5559,-1377.7277 318.437,-1365.0966 359,-1356.7767 1285.0273,-1166.8393 2424.8674,-1062.2986 2774.8424,-1032.6575"/>
<polygon fill="#000000" stroke="#000000" points="2775.2954,-1036.1318 2784.9653,-1031.8024 2774.7061,-1029.1567 2775.2954,-1036.1318"/>
</g>
<!-- file:///tmp/tmpsz90n6d0#run_dragen_germline_step&#45;&gt;file:///tmp/tmpsz90n6d0#dragen_bam_out -->
<g id="edge4" class="edge">
<title>file:///tmp/tmpsz90n6d0#run_dragen_germline_step&#45;&gt;file:///tmp/tmpsz90n6d0#dragen_bam_out</title>
<path fill="none" stroke="#000000" d="M2878.6963,-1005.2405C2861.0353,-906.1503 2777.7639,-438.9405 2756.1405,-317.6182"/>
<polygon fill="#000000" stroke="#000000" points="2759.555,-316.8288 2754.3546,-307.5982 2752.6636,-318.0572 2759.555,-316.8288"/>
</g>
<!-- file:///tmp/tmpsz90n6d0#run_dragen_germline_step&#45;&gt;file:///tmp/tmpsz90n6d0#dragen_germline_output_directory -->
<g id="edge5" class="edge">
<title>file:///tmp/tmpsz90n6d0#run_dragen_germline_step&#45;&gt;file:///tmp/tmpsz90n6d0#dragen_germline_output_directory</title>
<path fill="none" stroke="#000000" d="M2884.2193,-1005.2405C2896.0832,-906.1503 2952.0212,-438.9405 2966.5469,-317.6182"/>
<polygon fill="#000000" stroke="#000000" points="2970.0329,-317.9433 2967.7465,-307.5982 2963.0825,-317.1111 2970.0329,-317.9433"/>
</g>
<!-- file:///tmp/tmpsz90n6d0#run_dragen_germline_step&#45;&gt;file:///tmp/tmpsz90n6d0#dragen_vcf_out -->
<g id="edge6" class="edge">
<title>file:///tmp/tmpsz90n6d0#run_dragen_germline_step&#45;&gt;file:///tmp/tmpsz90n6d0#dragen_vcf_out</title>
<path fill="none" stroke="#000000" d="M2889.6415,-1005.2405C2930.5731,-905.9509 3123.8714,-437.0589 3173.4104,-316.8901"/>
<polygon fill="#000000" stroke="#000000" points="3176.6654,-318.1774 3177.241,-307.5982 3170.1938,-315.5094 3176.6654,-318.1774"/>
</g>
<!-- file:///tmp/tmpsz90n6d0#run_dragen_germline_step&#45;&gt;file:///tmp/tmpsz90n6d0#dragen_qc_step -->
<g id="edge3" class="edge">
<title>file:///tmp/tmpsz90n6d0#run_dragen_germline_step&#45;&gt;file:///tmp/tmpsz90n6d0#dragen_qc_step</title>
<path fill="none" stroke="#000000" d="M2977.497,-1005.2625C3306.6788,-941.4433 4390.5653,-731.3079 4694.8974,-672.3064"/>
<polygon fill="#000000" stroke="#000000" points="4695.8122,-675.6943 4704.9632,-670.3549 4694.4799,-668.8222 4695.8122,-675.6943"/>
</g>
<!-- file:///tmp/tmpsz90n6d0#dragen_qc_step&#45;&gt;file:///tmp/tmpsz90n6d0#multiqc_output_directory -->
<g id="edge7" class="edge">
<title>file:///tmp/tmpsz90n6d0#dragen_qc_step&#45;&gt;file:///tmp/tmpsz90n6d0#multiqc_output_directory</title>
<path fill="none" stroke="#000000" d="M4704.6953,-638.4016C4467.8271,-576.4929 3699.7137,-375.736 3447.8216,-309.9005"/>
<polygon fill="#000000" stroke="#000000" points="3448.565,-306.4773 3438.0049,-307.3348 3446.7949,-313.2498 3448.565,-306.4773"/>
</g>
<!-- file:///tmp/tmpsz90n6d0#create_dummy_file_step -->
<g id="node33" class="node">
<title>file:///tmp/tmpsz90n6d0#create_dummy_file_step</title>
<g id="a_node33"><a xlink:href="https://github.com/umccr/cwl-ica/blob/beta-release/.github/catalogue/docs/tools/custom-touch-file/1.0.0/custom-touch-file__1.0.0.md" xlink:title="Intermediate step for letting multiqc&#45;interop be placed in stream mode&#10;">
<polygon fill="#fafad2" stroke="#000000" points="4821.5,-1005.2767 4821.5,-1042.2767 5084.5,-1042.2767 5084.5,-1005.2767 4821.5,-1005.2767"/>
<text text-anchor="middle" x="4953" y="-1020.0767" font-family="Times,serif" font-size="14.00" fill="#000000">custom&#45;create&#45;dummy&#45;file v(1.0.0)</text>
</a>
</g>
</g>
<!-- file:///tmp/tmpsz90n6d0#create_dummy_file_step&#45;&gt;file:///tmp/tmpsz90n6d0#dragen_qc_step -->
<g id="edge8" class="edge">
<title>file:///tmp/tmpsz90n6d0#create_dummy_file_step&#45;&gt;file:///tmp/tmpsz90n6d0#dragen_qc_step</title>
<path fill="none" stroke="#000000" d="M4943.9282,-1005.0726C4914.7655,-944.9448 4823.3024,-756.3665 4788.5661,-684.7472"/>
<polygon fill="#000000" stroke="#000000" points="4791.5666,-682.9134 4784.0535,-675.4432 4785.2683,-685.9681 4791.5666,-682.9134"/>
</g>
</g>
</svg>
