<?xml version="1.0" encoding="UTF-8" standalone="no"?>
<!DOCTYPE svg PUBLIC "-//W3C//DTD SVG 1.1//EN"
 "http://www.w3.org/Graphics/SVG/1.1/DTD/svg11.dtd">
<!-- Generated by graphviz version 2.43.0 (0)
 -->
<!-- Title: G Pages: 1 -->
<svg width="5014pt" height="1565pt"
 viewBox="0.00 0.00 5013.50 1564.55" xmlns="http://www.w3.org/2000/svg" xmlns:xlink="http://www.w3.org/1999/xlink">
<g id="graph0" class="graph" transform="scale(1 1) rotate(0) translate(4 1560.55)">
<title>G</title>
<polygon fill="#eeeeee" stroke="transparent" points="-4,4 -4,-1560.55 5009.5,-1560.55 5009.5,4 -4,4"/>
<g id="clust1" class="cluster">
<title>cluster_inputs</title>
<polygon fill="#eeeeee" stroke="black" stroke-dasharray="5,2" points="229.5,-1140.15 229.5,-1516.9 4653.5,-1516.9 4653.5,-1140.15 229.5,-1140.15"/>
<text text-anchor="middle" x="4587" y="-1147.95" font-family="Times,serif" font-size="14.00">Workflow Inputs</text>
</g>
<g id="clust2" class="cluster">
<title>cluster_outputs</title>
<polygon fill="#eeeeee" stroke="black" stroke-dasharray="5,2" points="1906.5,-39.66 1906.5,-416.4 2697.5,-416.4 2697.5,-39.66 1906.5,-39.66"/>
<text text-anchor="middle" x="2625" y="-47.46" font-family="Times,serif" font-size="14.00">Workflow Outputs</text>
</g>
<!-- run_dragen_germline_step -->
<g id="node1" class="node">
<title>run_dragen_germline_step</title>
<polygon fill="lightgoldenrodyellow" stroke="black" points="2380.5,-990.66 2380.5,-1026.66 2574.5,-1026.66 2574.5,-990.66 2380.5,-990.66"/>
<text text-anchor="middle" x="2477.5" y="-1004.96" font-family="Times,serif" font-size="14.00">dragen&#45;germline v(3.7.5)</text>
</g>
<!-- dragen_qc_step -->
<g id="node2" class="node">
<title>dragen_qc_step</title>
<polygon fill="lightgoldenrodyellow" stroke="black" points="238,-628.66 238,-664.66 377,-664.66 377,-628.66 238,-628.66"/>
<text text-anchor="middle" x="307.5" y="-642.96" font-family="Times,serif" font-size="14.00">multiqc v(1.10.1)</text>
</g>
<!-- run_dragen_germline_step&#45;&gt;dragen_qc_step -->
<g id="edge1" class="edge">
<title>run_dragen_germline_step&#45;&gt;dragen_qc_step</title>
<path fill="none" stroke="black" d="M2380.4,-991.55C2014.4,-930.83 722.12,-716.44 387.23,-660.88"/>
<polygon fill="black" stroke="black" points="387.57,-657.39 377.13,-659.21 386.43,-664.3 387.57,-657.39"/>
</g>
<!-- dragen_bam_out -->
<g id="node30" class="node">
<title>dragen_bam_out</title>
<polygon fill="#94ddf4" stroke="black" points="2130.5,-266.66 2130.5,-302.66 2264.5,-302.66 2264.5,-266.66 2130.5,-266.66"/>
<text text-anchor="middle" x="2197.5" y="-280.96" font-family="Times,serif" font-size="14.00">dragen_bam_out</text>
</g>
<!-- run_dragen_germline_step&#45;&gt;dragen_bam_out -->
<g id="edge33" class="edge">
<title>run_dragen_germline_step&#45;&gt;dragen_bam_out</title>
<path fill="none" stroke="black" d="M2470.85,-990.52C2433.88,-895.17 2253.49,-430.02 2207.95,-312.61"/>
<polygon fill="black" stroke="black" points="2211.09,-311.01 2204.21,-302.95 2204.56,-313.54 2211.09,-311.01"/>
</g>
<!-- dragen_germline_output_directory -->
<g id="node31" class="node">
<title>dragen_germline_output_directory</title>
<polygon fill="#94ddf4" stroke="black" points="2283,-266.66 2283,-302.66 2546,-302.66 2546,-266.66 2283,-266.66"/>
<text text-anchor="middle" x="2414.5" y="-280.96" font-family="Times,serif" font-size="14.00">dragen_germline_output_directory</text>
</g>
<!-- run_dragen_germline_step&#45;&gt;dragen_germline_output_directory -->
<g id="edge34" class="edge">
<title>run_dragen_germline_step&#45;&gt;dragen_germline_output_directory</title>
<path fill="none" stroke="black" d="M2476,-990.52C2467.69,-895.26 2427.18,-430.96 2416.88,-312.97"/>
<polygon fill="black" stroke="black" points="2420.37,-312.61 2416.01,-302.95 2413.39,-313.22 2420.37,-312.61"/>
</g>
<!-- dragen_vcf_out -->
<g id="node32" class="node">
<title>dragen_vcf_out</title>
<polygon fill="#94ddf4" stroke="black" points="2564,-266.66 2564,-302.66 2689,-302.66 2689,-266.66 2564,-266.66"/>
<text text-anchor="middle" x="2626.5" y="-280.96" font-family="Times,serif" font-size="14.00">dragen_vcf_out</text>
</g>
<!-- run_dragen_germline_step&#45;&gt;dragen_vcf_out -->
<g id="edge35" class="edge">
<title>run_dragen_germline_step&#45;&gt;dragen_vcf_out</title>
<path fill="none" stroke="black" d="M2481.04,-990.52C2500.69,-895.26 2596.51,-430.96 2620.86,-312.97"/>
<polygon fill="black" stroke="black" points="2624.34,-313.45 2622.93,-302.95 2617.48,-312.04 2624.34,-313.45"/>
</g>
<!-- multiqc_output_directory -->
<g id="node33" class="node">
<title>multiqc_output_directory</title>
<polygon fill="#94ddf4" stroke="black" points="1915,-266.66 1915,-302.66 2112,-302.66 2112,-266.66 1915,-266.66"/>
<text text-anchor="middle" x="2013.5" y="-280.96" font-family="Times,serif" font-size="14.00">multiqc_output_directory</text>
</g>
<!-- dragen_qc_step&#45;&gt;multiqc_output_directory -->
<g id="edge36" class="edge">
<title>dragen_qc_step&#45;&gt;multiqc_output_directory</title>
<path fill="none" stroke="black" d="M377.02,-630.99C646.16,-574.19 1619.6,-368.78 1922.73,-304.81"/>
<polygon fill="black" stroke="black" points="1923.74,-308.18 1932.8,-302.69 1922.29,-301.33 1923.74,-308.18"/>
</g>
<!-- create_dummy_file_step -->
<g id="node3" class="node">
<title>create_dummy_file_step</title>
<polygon fill="lightgoldenrodyellow" stroke="black" points="0,-990.66 0,-1026.66 261,-1026.66 261,-990.66 0,-990.66"/>
<text text-anchor="middle" x="130.5" y="-1004.96" font-family="Times,serif" font-size="14.00">custom&#45;create&#45;dummy&#45;file v(1.0.0)</text>
</g>
<!-- create_dummy_file_step&#45;&gt;dragen_qc_step -->
<g id="edge2" class="edge">
<title>create_dummy_file_step&#45;&gt;dragen_qc_step</title>
<path fill="none" stroke="black" d="M139.04,-990.29C167.66,-932.08 260.35,-743.55 294.61,-673.87"/>
<polygon fill="black" stroke="black" points="297.78,-675.37 299.05,-664.85 291.5,-672.28 297.78,-675.37"/>
</g>
<!-- create_fastq_list_csv_step -->
<g id="node4" class="node">
<title>create_fastq_list_csv_step</title>
<polygon fill="lightgoldenrodyellow" stroke="black" points="4663.5,-1367.66 4663.5,-1403.66 5005.5,-1403.66 5005.5,-1367.66 4663.5,-1367.66"/>
<text text-anchor="middle" x="4834.5" y="-1381.96" font-family="Times,serif" font-size="14.00">custom&#45;create&#45;csv&#45;from&#45;fastq&#45;list&#45;row v(1.0.0)</text>
</g>
<!-- create_fastq_list_csv_step&#45;&gt;run_dragen_germline_step -->
<g id="edge3" class="edge">
<title>create_fastq_list_csv_step&#45;&gt;run_dragen_germline_step</title>
<path fill="none" stroke="black" d="M4770.94,-1367.54C4735.08,-1357.37 4689.49,-1344.81 4648.5,-1336.16 3863.45,-1170.42 2902.08,-1057.16 2584.7,-1021.59"/>
<polygon fill="black" stroke="black" points="2584.92,-1018.09 2574.59,-1020.46 2584.14,-1025.05 2584.92,-1018.09"/>
</g>
<!-- create_fastq_list_csv_step&#45;&gt;run_dragen_germline_step -->
<g id="edge4" class="edge">
<title>create_fastq_list_csv_step&#45;&gt;run_dragen_germline_step</title>
<path fill="none" stroke="black" d="M4786.5,-1367.54C4753.08,-1357.37 4707.49,-1344.81 4666.5,-1336.16 3874.96,-1169.06 2904.19,-1055.29 2584.84,-1020.72"/>
<polygon fill="black" stroke="black" points="2584.98,-1017.22 2574.67,-1019.62 2584.23,-1024.18 2584.98,-1017.22"/>
</g>
<!-- fastq_list_rows -->
<g id="node5" class="node">
<title>fastq_list_rows</title>
<polygon fill="#94ddf4" stroke="black" points="4522,-1367.66 4522,-1403.66 4645,-1403.66 4645,-1367.66 4522,-1367.66"/>
<text text-anchor="middle" x="4583.5" y="-1381.96" font-family="Times,serif" font-size="14.00">fastq_list_rows</text>
</g>
<!-- output_file_prefix -->
<g id="node6" class="node">
<title>output_file_prefix</title>
<polygon fill="#94ddf4" stroke="black" points="237.5,-1367.66 237.5,-1403.66 377.5,-1403.66 377.5,-1367.66 237.5,-1367.66"/>
<text text-anchor="middle" x="307.5" y="-1381.96" font-family="Times,serif" font-size="14.00">output_file_prefix</text>
</g>
<!-- output_file_prefix&#45;&gt;run_dragen_germline_step -->
<g id="edge9" class="edge">
<title>output_file_prefix&#45;&gt;run_dragen_germline_step</title>
<path fill="none" stroke="black" d="M330.1,-1367.43C345.26,-1356.74 366.11,-1343.66 386.5,-1336.16 1111.32,-1069.32 2055.73,-1020.55 2370.34,-1011.65"/>
<polygon fill="black" stroke="black" points="2370.46,-1015.14 2380.36,-1011.37 2370.27,-1008.15 2370.46,-1015.14"/>
</g>
<!-- output_file_prefix&#45;&gt;dragen_qc_step -->
<g id="edge6" class="edge">
<title>output_file_prefix&#45;&gt;dragen_qc_step</title>
<path fill="none" stroke="black" d="M303.04,-1367.52C291.35,-1270.91 291,-794.21 301.99,-674.81"/>
<polygon fill="black" stroke="black" points="305.49,-675.01 303.05,-664.7 298.53,-674.28 305.49,-675.01"/>
</g>
<!-- output_file_prefix&#45;&gt;dragen_qc_step -->
<g id="edge7" class="edge">
<title>output_file_prefix&#45;&gt;dragen_qc_step</title>
<path fill="none" stroke="black" d="M307.5,-1367.52C307.5,-1270.91 307.5,-794.21 307.5,-674.81"/>
<polygon fill="black" stroke="black" points="311,-674.7 307.5,-664.7 304,-674.7 311,-674.7"/>
</g>
<!-- output_file_prefix&#45;&gt;dragen_qc_step -->
<g id="edge8" class="edge">
<title>output_file_prefix&#45;&gt;dragen_qc_step</title>
<path fill="none" stroke="black" d="M311.96,-1367.52C323.65,-1270.91 324,-794.21 313.01,-674.81"/>
<polygon fill="black" stroke="black" points="316.47,-674.28 311.95,-664.7 309.51,-675.01 316.47,-674.28"/>
</g>
<!-- dbsnp_annotation -->
<g id="node7" class="node">
<title>dbsnp_annotation</title>
<polygon fill="#94ddf4" stroke="black" points="3989,-1367.66 3989,-1403.66 4132,-1403.66 4132,-1367.66 3989,-1367.66"/>
<text text-anchor="middle" x="4060.5" y="-1381.96" font-family="Times,serif" font-size="14.00">dbsnp_annotation</text>
</g>
<!-- dbsnp_annotation&#45;&gt;run_dragen_germline_step -->
<g id="edge10" class="edge">
<title>dbsnp_annotation&#45;&gt;run_dragen_germline_step</title>
<path fill="none" stroke="black" d="M4036.76,-1367.62C4021.16,-1357.15 3999.92,-1344.24 3979.5,-1336.16 3479.61,-1138.36 2836.33,-1049.68 2584.91,-1020.87"/>
<polygon fill="black" stroke="black" points="2585.02,-1017.36 2574.69,-1019.71 2584.23,-1024.31 2585.02,-1017.36"/>
</g>
<!-- dedup_min_qual -->
<g id="node8" class="node">
<title>dedup_min_qual</title>
<polygon fill="#94ddf4" stroke="black" points="3838.5,-1367.66 3838.5,-1403.66 3970.5,-1403.66 3970.5,-1367.66 3838.5,-1367.66"/>
<text text-anchor="middle" x="3904.5" y="-1381.96" font-family="Times,serif" font-size="14.00">dedup_min_qual</text>
</g>
<!-- dedup_min_qual&#45;&gt;run_dragen_germline_step -->
<g id="edge11" class="edge">
<title>dedup_min_qual&#45;&gt;run_dragen_germline_step</title>
<path fill="none" stroke="black" d="M3882.32,-1367.46C3867.95,-1357.07 3848.45,-1344.29 3829.5,-1336.16 3389.22,-1147.15 2819.21,-1054.99 2585.09,-1023.09"/>
<polygon fill="black" stroke="black" points="2585.25,-1019.58 2574.87,-1021.71 2584.31,-1026.52 2585.25,-1019.58"/>
</g>
<!-- enable_duplicate_marking -->
<g id="node9" class="node">
<title>enable_duplicate_marking</title>
<polygon fill="#94ddf4" stroke="black" points="3617,-1367.66 3617,-1403.66 3820,-1403.66 3820,-1367.66 3617,-1367.66"/>
<text text-anchor="middle" x="3718.5" y="-1381.96" font-family="Times,serif" font-size="14.00">enable_duplicate_marking</text>
</g>
<!-- enable_duplicate_marking&#45;&gt;run_dragen_germline_step -->
<g id="edge12" class="edge">
<title>enable_duplicate_marking&#45;&gt;run_dragen_germline_step</title>
<path fill="none" stroke="black" d="M3682.83,-1367.47C3661.54,-1357.59 3633.81,-1345.34 3608.5,-1336.16 3222.54,-1196.08 2745.8,-1074.78 2558.48,-1029.05"/>
<polygon fill="black" stroke="black" points="2559.25,-1025.64 2548.7,-1026.67 2557.59,-1032.44 2559.25,-1025.64"/>
</g>
<!-- enable_map_align_output -->
<g id="node10" class="node">
<title>enable_map_align_output</title>
<polygon fill="#94ddf4" stroke="black" points="3402,-1367.66 3402,-1403.66 3599,-1403.66 3599,-1367.66 3402,-1367.66"/>
<text text-anchor="middle" x="3500.5" y="-1381.96" font-family="Times,serif" font-size="14.00">enable_map_align_output</text>
</g>
<!-- enable_map_align_output&#45;&gt;run_dragen_germline_step -->
<g id="edge13" class="edge">
<title>enable_map_align_output&#45;&gt;run_dragen_germline_step</title>
<path fill="none" stroke="black" d="M3464.67,-1367.52C3444.04,-1357.87 3417.52,-1345.86 3393.5,-1336.16 3076.94,-1208.26 2688.91,-1078.68 2539.86,-1029.89"/>
<polygon fill="black" stroke="black" points="2540.56,-1026.44 2529.97,-1026.66 2538.39,-1033.09 2540.56,-1026.44"/>
</g>
<!-- lic_instance_id_location -->
<g id="node11" class="node">
<title>lic_instance_id_location</title>
<polygon fill="#94ddf4" stroke="black" points="3201,-1367.66 3201,-1403.66 3384,-1403.66 3384,-1367.66 3201,-1367.66"/>
<text text-anchor="middle" x="3292.5" y="-1381.96" font-family="Times,serif" font-size="14.00">lic_instance_id_location</text>
</g>
<!-- lic_instance_id_location&#45;&gt;run_dragen_germline_step -->
<g id="edge14" class="edge">
<title>lic_instance_id_location&#45;&gt;run_dragen_germline_step</title>
<path fill="none" stroke="black" d="M3257.05,-1367.44C3237.72,-1358.09 3213.34,-1346.39 3191.5,-1336.16 2941.2,-1218.85 2639.4,-1082.5 2524.76,-1030.9"/>
<polygon fill="black" stroke="black" points="2526.1,-1027.66 2515.54,-1026.75 2523.23,-1034.05 2526.1,-1027.66"/>
</g>
<!-- output_directory -->
<g id="node12" class="node">
<title>output_directory</title>
<polygon fill="#94ddf4" stroke="black" points="3046.5,-1367.66 3046.5,-1403.66 3182.5,-1403.66 3182.5,-1367.66 3046.5,-1367.66"/>
<text text-anchor="middle" x="3114.5" y="-1381.96" font-family="Times,serif" font-size="14.00">output_directory</text>
</g>
<!-- output_directory&#45;&gt;run_dragen_germline_step -->
<g id="edge15" class="edge">
<title>output_directory&#45;&gt;run_dragen_germline_step</title>
<path fill="none" stroke="black" d="M3087.91,-1367.6C3073.14,-1358.2 3054.39,-1346.4 3037.5,-1336.16 2843.74,-1218.7 2608.37,-1084.04 2516.69,-1031.89"/>
<polygon fill="black" stroke="black" points="2518.19,-1028.72 2507.76,-1026.82 2514.73,-1034.8 2518.19,-1028.72"/>
</g>
<!-- reference_tar -->
<g id="node13" class="node">
<title>reference_tar</title>
<polygon fill="#94ddf4" stroke="black" points="2915,-1367.66 2915,-1403.66 3028,-1403.66 3028,-1367.66 2915,-1367.66"/>
<text text-anchor="middle" x="2971.5" y="-1381.96" font-family="Times,serif" font-size="14.00">reference_tar</text>
</g>
<!-- reference_tar&#45;&gt;run_dragen_germline_step -->
<g id="edge16" class="edge">
<title>reference_tar&#45;&gt;run_dragen_germline_step</title>
<path fill="none" stroke="black" d="M2948.99,-1367.57C2869.19,-1306.99 2599.67,-1102.4 2508.18,-1032.95"/>
<polygon fill="black" stroke="black" points="2510.22,-1030.1 2500.14,-1026.85 2505.99,-1035.68 2510.22,-1030.1"/>
</g>
<!-- sample_sex -->
<g id="node14" class="node">
<title>sample_sex</title>
<polygon fill="#94ddf4" stroke="black" points="2798.5,-1367.66 2798.5,-1403.66 2896.5,-1403.66 2896.5,-1367.66 2798.5,-1367.66"/>
<text text-anchor="middle" x="2847.5" y="-1381.96" font-family="Times,serif" font-size="14.00">sample_sex</text>
</g>
<!-- sample_sex&#45;&gt;run_dragen_germline_step -->
<g id="edge17" class="edge">
<title>sample_sex&#45;&gt;run_dragen_germline_step</title>
<path fill="none" stroke="black" d="M2830.64,-1367.57C2771.17,-1307.29 2571.03,-1104.45 2501.52,-1034.01"/>
<polygon fill="black" stroke="black" points="2503.97,-1031.51 2494.46,-1026.85 2498.99,-1036.42 2503.97,-1031.51"/>
</g>
<!-- vc_decoy_contigs -->
<g id="node15" class="node">
<title>vc_decoy_contigs</title>
<polygon fill="#94ddf4" stroke="black" points="2641,-1367.66 2641,-1403.66 2780,-1403.66 2780,-1367.66 2641,-1367.66"/>
<text text-anchor="middle" x="2710.5" y="-1381.96" font-family="Times,serif" font-size="14.00">vc_decoy_contigs</text>
</g>
<!-- vc_decoy_contigs&#45;&gt;run_dragen_germline_step -->
<g id="edge18" class="edge">
<title>vc_decoy_contigs&#45;&gt;run_dragen_germline_step</title>
<path fill="none" stroke="black" d="M2699.88,-1367.57C2662.74,-1307.78 2538.43,-1107.73 2493.71,-1035.74"/>
<polygon fill="black" stroke="black" points="2496.43,-1033.49 2488.18,-1026.85 2490.48,-1037.19 2496.43,-1033.49"/>
</g>
<!-- vc_enable_baf -->
<g id="node16" class="node">
<title>vc_enable_baf</title>
<polygon fill="#94ddf4" stroke="black" points="2506.5,-1367.66 2506.5,-1403.66 2622.5,-1403.66 2622.5,-1367.66 2506.5,-1367.66"/>
<text text-anchor="middle" x="2564.5" y="-1381.96" font-family="Times,serif" font-size="14.00">vc_enable_baf</text>
</g>
<!-- vc_enable_baf&#45;&gt;run_dragen_germline_step -->
<g id="edge19" class="edge">
<title>vc_enable_baf&#45;&gt;run_dragen_germline_step</title>
<path fill="none" stroke="black" d="M2560.54,-1367.57C2546.72,-1308.03 2500.63,-1109.36 2483.76,-1036.63"/>
<polygon fill="black" stroke="black" points="2487.16,-1035.8 2481.49,-1026.85 2480.34,-1037.38 2487.16,-1035.8"/>
</g>
<!-- vc_enable_decoy_contigs -->
<g id="node17" class="node">
<title>vc_enable_decoy_contigs</title>
<polygon fill="#94ddf4" stroke="black" points="2295,-1367.66 2295,-1403.66 2488,-1403.66 2488,-1367.66 2295,-1367.66"/>
<text text-anchor="middle" x="2391.5" y="-1381.96" font-family="Times,serif" font-size="14.00">vc_enable_decoy_contigs</text>
</g>
<!-- vc_enable_decoy_contigs&#45;&gt;run_dragen_germline_step -->
<g id="edge20" class="edge">
<title>vc_enable_decoy_contigs&#45;&gt;run_dragen_germline_step</title>
<path fill="none" stroke="black" d="M2395.42,-1367.57C2409.07,-1308.03 2454.64,-1109.36 2471.31,-1036.63"/>
<polygon fill="black" stroke="black" points="2474.73,-1037.37 2473.56,-1026.85 2467.91,-1035.81 2474.73,-1037.37"/>
</g>
<!-- vc_enable_gatk_acceleration -->
<g id="node18" class="node">
<title>vc_enable_gatk_acceleration</title>
<polygon fill="#94ddf4" stroke="black" points="2058.5,-1367.66 2058.5,-1403.66 2276.5,-1403.66 2276.5,-1367.66 2058.5,-1367.66"/>
<text text-anchor="middle" x="2167.5" y="-1381.96" font-family="Times,serif" font-size="14.00">vc_enable_gatk_acceleration</text>
</g>
<!-- vc_enable_gatk_acceleration&#45;&gt;run_dragen_germline_step -->
<g id="edge21" class="edge">
<title>vc_enable_gatk_acceleration&#45;&gt;run_dragen_germline_step</title>
<path fill="none" stroke="black" d="M2181.63,-1367.57C2231.25,-1307.54 2397.78,-1106.09 2456.66,-1034.87"/>
<polygon fill="black" stroke="black" points="2459.62,-1036.78 2463.29,-1026.85 2454.22,-1032.32 2459.62,-1036.78"/>
</g>
<!-- vc_enable_phasing -->
<g id="node19" class="node">
<title>vc_enable_phasing</title>
<polygon fill="#94ddf4" stroke="black" points="1891,-1367.66 1891,-1403.66 2040,-1403.66 2040,-1367.66 1891,-1367.66"/>
<text text-anchor="middle" x="1965.5" y="-1381.96" font-family="Times,serif" font-size="14.00">vc_enable_phasing</text>
</g>
<!-- vc_enable_phasing&#45;&gt;run_dragen_germline_step -->
<g id="edge22" class="edge">
<title>vc_enable_phasing&#45;&gt;run_dragen_germline_step</title>
<path fill="none" stroke="black" d="M1988.83,-1367.57C2071.54,-1306.99 2350.88,-1102.4 2445.7,-1032.95"/>
<polygon fill="black" stroke="black" points="2448.03,-1035.58 2454.03,-1026.85 2443.9,-1029.93 2448.03,-1035.58"/>
</g>
<!-- vc_enable_roh -->
<g id="node20" class="node">
<title>vc_enable_roh</title>
<polygon fill="#94ddf4" stroke="black" points="1756,-1367.66 1756,-1403.66 1873,-1403.66 1873,-1367.66 1756,-1367.66"/>
<text text-anchor="middle" x="1814.5" y="-1381.96" font-family="Times,serif" font-size="14.00">vc_enable_roh</text>
</g>
<!-- vc_enable_roh&#45;&gt;run_dragen_germline_step -->
<g id="edge23" class="edge">
<title>vc_enable_roh&#45;&gt;run_dragen_germline_step</title>
<path fill="none" stroke="black" d="M1837.02,-1367.58C1850.05,-1357.96 1866.9,-1345.95 1882.5,-1336.16 2082.6,-1210.5 2334.31,-1081.37 2433.99,-1031.3"/>
<polygon fill="black" stroke="black" points="2435.78,-1034.32 2443.15,-1026.71 2432.64,-1028.06 2435.78,-1034.32"/>
</g>
<!-- vc_enable_vcf_output -->
<g id="node21" class="node">
<title>vc_enable_vcf_output</title>
<polygon fill="#94ddf4" stroke="black" points="1569.5,-1367.66 1569.5,-1403.66 1737.5,-1403.66 1737.5,-1367.66 1569.5,-1367.66"/>
<text text-anchor="middle" x="1653.5" y="-1381.96" font-family="Times,serif" font-size="14.00">vc_enable_vcf_output</text>
</g>
<!-- vc_enable_vcf_output&#45;&gt;run_dragen_germline_step -->
<g id="edge24" class="edge">
<title>vc_enable_vcf_output&#45;&gt;run_dragen_germline_step</title>
<path fill="none" stroke="black" d="M1685.47,-1367.6C1703.55,-1358.1 1726.65,-1346.19 1747.5,-1336.16 2000.56,-1214.4 2309.46,-1081.22 2427.97,-1030.68"/>
<polygon fill="black" stroke="black" points="2429.35,-1033.89 2437.18,-1026.75 2426.61,-1027.45 2429.35,-1033.89"/>
</g>
<!-- vc_hard_filter -->
<g id="node22" class="node">
<title>vc_hard_filter</title>
<polygon fill="#94ddf4" stroke="black" points="1438,-1367.66 1438,-1403.66 1551,-1403.66 1551,-1367.66 1438,-1367.66"/>
<text text-anchor="middle" x="1494.5" y="-1381.96" font-family="Times,serif" font-size="14.00">vc_hard_filter</text>
</g>
<!-- vc_hard_filter&#45;&gt;run_dragen_germline_step -->
<g id="edge25" class="edge">
<title>vc_hard_filter&#45;&gt;run_dragen_germline_step</title>
<path fill="none" stroke="black" d="M1514.57,-1367.51C1527.15,-1357.38 1544.05,-1344.89 1560.5,-1336.16 1853.47,-1180.68 2236.21,-1071.69 2398.87,-1029.3"/>
<polygon fill="black" stroke="black" points="2400,-1032.62 2408.8,-1026.72 2398.24,-1025.84 2400,-1032.62"/>
</g>
<!-- vc_max_reads_per_active_region -->
<g id="node23" class="node">
<title>vc_max_reads_per_active_region</title>
<polygon fill="#94ddf4" stroke="black" points="1171.5,-1367.66 1171.5,-1403.66 1419.5,-1403.66 1419.5,-1367.66 1171.5,-1367.66"/>
<text text-anchor="middle" x="1295.5" y="-1381.96" font-family="Times,serif" font-size="14.00">vc_max_reads_per_active_region</text>
</g>
<!-- vc_max_reads_per_active_region&#45;&gt;run_dragen_germline_step -->
<g id="edge26" class="edge">
<title>vc_max_reads_per_active_region&#45;&gt;run_dragen_germline_step</title>
<path fill="none" stroke="black" d="M1340.91,-1367.64C1366.77,-1358.1 1399.84,-1346.14 1429.5,-1336.16 1797.18,-1212.41 2242.79,-1079.01 2409.9,-1029.56"/>
<polygon fill="black" stroke="black" points="2410.95,-1032.9 2419.55,-1026.71 2408.97,-1026.19 2410.95,-1032.9"/>
</g>
<!-- vc_max_reads_per_raw_region -->
<g id="node24" class="node">
<title>vc_max_reads_per_raw_region</title>
<polygon fill="#94ddf4" stroke="black" points="920,-1367.66 920,-1403.66 1153,-1403.66 1153,-1367.66 920,-1367.66"/>
<text text-anchor="middle" x="1036.5" y="-1381.96" font-family="Times,serif" font-size="14.00">vc_max_reads_per_raw_region</text>
</g>
<!-- vc_max_reads_per_raw_region&#45;&gt;run_dragen_germline_step -->
<g id="edge27" class="edge">
<title>vc_max_reads_per_raw_region&#45;&gt;run_dragen_germline_step</title>
<path fill="none" stroke="black" d="M1076.9,-1367.63C1101.4,-1357.68 1133.44,-1345.32 1162.5,-1336.16 1613.29,-1194.04 2166.56,-1073.87 2383.72,-1028.75"/>
<polygon fill="black" stroke="black" points="2384.73,-1032.12 2393.81,-1026.66 2383.3,-1025.26 2384.73,-1032.12"/>
</g>
<!-- vc_remove_all_soft_clips -->
<g id="node25" class="node">
<title>vc_remove_all_soft_clips</title>
<polygon fill="#94ddf4" stroke="black" points="711.5,-1367.66 711.5,-1403.66 901.5,-1403.66 901.5,-1367.66 711.5,-1367.66"/>
<text text-anchor="middle" x="806.5" y="-1381.96" font-family="Times,serif" font-size="14.00">vc_remove_all_soft_clips</text>
</g>
<!-- vc_remove_all_soft_clips&#45;&gt;run_dragen_germline_step -->
<g id="edge28" class="edge">
<title>vc_remove_all_soft_clips&#45;&gt;run_dragen_germline_step</title>
<path fill="none" stroke="black" d="M838.36,-1367.63C858.79,-1357.3 886.14,-1344.54 911.5,-1336.16 1444.96,-1159.89 2113.21,-1058.32 2370.1,-1023.46"/>
<polygon fill="black" stroke="black" points="2370.73,-1026.91 2380.17,-1022.1 2369.79,-1019.97 2370.73,-1026.91"/>
</g>
<!-- vc_roh_blacklist_bed -->
<g id="node26" class="node">
<title>vc_roh_blacklist_bed</title>
<polygon fill="#94ddf4" stroke="black" points="530,-1367.66 530,-1403.66 693,-1403.66 693,-1367.66 530,-1367.66"/>
<text text-anchor="middle" x="611.5" y="-1381.96" font-family="Times,serif" font-size="14.00">vc_roh_blacklist_bed</text>
</g>
<!-- vc_roh_blacklist_bed&#45;&gt;run_dragen_germline_step -->
<g id="edge29" class="edge">
<title>vc_roh_blacklist_bed&#45;&gt;run_dragen_germline_step</title>
<path fill="none" stroke="black" d="M638.37,-1367.5C655.98,-1356.98 679.85,-1344.06 702.5,-1336.16 1311.41,-1123.64 2088.63,-1041.79 2369.87,-1017.88"/>
<polygon fill="black" stroke="black" points="2370.4,-1021.34 2380.07,-1017.02 2369.81,-1014.37 2370.4,-1021.34"/>
</g>
<!-- vc_target_bed -->
<g id="node27" class="node">
<title>vc_target_bed</title>
<polygon fill="#94ddf4" stroke="black" points="395.5,-1367.66 395.5,-1403.66 511.5,-1403.66 511.5,-1367.66 395.5,-1367.66"/>
<text text-anchor="middle" x="453.5" y="-1381.96" font-family="Times,serif" font-size="14.00">vc_target_bed</text>
</g>
<!-- vc_target_bed&#45;&gt;run_dragen_germline_step -->
<g id="edge30" class="edge">
<title>vc_target_bed&#45;&gt;run_dragen_germline_step</title>
<path fill="none" stroke="black" d="M471.99,-1367.64C484.7,-1356.91 502.48,-1343.69 520.5,-1336.16 1184.12,-1058.75 2067.21,-1016.66 2370.19,-1010.57"/>
<polygon fill="black" stroke="black" points="2370.36,-1014.07 2380.29,-1010.38 2370.23,-1007.07 2370.36,-1014.07"/>
</g>
<!-- vc_target_bed_padding -->
<g id="node28" class="node">
<title>vc_target_bed_padding</title>
<polygon fill="#94ddf4" stroke="black" points="4323,-1367.66 4323,-1403.66 4504,-1403.66 4504,-1367.66 4323,-1367.66"/>
<text text-anchor="middle" x="4413.5" y="-1381.96" font-family="Times,serif" font-size="14.00">vc_target_bed_padding</text>
</g>
<!-- vc_target_bed_padding&#45;&gt;run_dragen_germline_step -->
<g id="edge31" class="edge">
<title>vc_target_bed_padding&#45;&gt;run_dragen_germline_step</title>
<path fill="none" stroke="black" d="M4384.09,-1367.54C4364.86,-1357.04 4338.88,-1344.12 4314.5,-1336.16 3678.13,-1128.29 2871.97,-1043.25 2584.94,-1018.2"/>
<polygon fill="black" stroke="black" points="2585.21,-1014.71 2574.95,-1017.33 2584.61,-1021.68 2585.21,-1014.71"/>
</g>
<!-- vc_target_coverage -->
<g id="node29" class="node">
<title>vc_target_coverage</title>
<polygon fill="#94ddf4" stroke="black" points="4150,-1367.66 4150,-1403.66 4305,-1403.66 4305,-1367.66 4150,-1367.66"/>
<text text-anchor="middle" x="4227.5" y="-1381.96" font-family="Times,serif" font-size="14.00">vc_target_coverage</text>
</g>
<!-- vc_target_coverage&#45;&gt;run_dragen_germline_step -->
<g id="edge32" class="edge">
<title>vc_target_coverage&#45;&gt;run_dragen_germline_step</title>
<path fill="none" stroke="black" d="M4202.2,-1367.53C4185.6,-1357.03 4163.05,-1344.11 4141.5,-1336.16 3577.4,-1127.93 2854.2,-1044.13 2584.85,-1018.76"/>
<polygon fill="black" stroke="black" points="2584.97,-1015.26 2574.69,-1017.81 2584.32,-1022.23 2584.97,-1015.26"/>
</g>
</g>
</svg>
