<?xml version="1.0" encoding="UTF-8" standalone="no"?>
<!DOCTYPE svg PUBLIC "-//W3C//DTD SVG 1.1//EN"
 "http://www.w3.org/Graphics/SVG/1.1/DTD/svg11.dtd">
<!-- Generated by graphviz version 2.43.0 (0)
 -->
<!-- Title: G Pages: 1 -->
<svg width="2912pt" height="2905pt"
 viewBox="0.00 0.00 2911.50 2905.00" xmlns="http://www.w3.org/2000/svg" xmlns:xlink="http://www.w3.org/1999/xlink">
<g id="graph0" class="graph" transform="scale(1 1) rotate(0) translate(4 2901)">
<title>G</title>
<polygon fill="#eeeeee" stroke="transparent" points="-4,4 -4,-2901 2907.5,-2901 2907.5,4 -4,4"/>
<g id="clust1" class="cluster">
<title>cluster_inputs</title>
<polygon fill="#eeeeee" stroke="black" stroke-dasharray="5,2" points="1421,-2538.61 1421,-2862.87 1805,-2862.87 1805,-2538.61 1421,-2538.61"/>
<text text-anchor="middle" x="1738.5" y="-2546.41" font-family="Times,serif" font-size="14.00">Workflow Inputs</text>
</g>
<g id="clust2" class="cluster">
<title>cluster_outputs</title>
<polygon fill="#eeeeee" stroke="black" stroke-dasharray="5,2" points="2347,-34.13 2347,-358.39 2621,-358.39 2621,-34.13 2347,-34.13"/>
<text text-anchor="middle" x="2548.5" y="-41.93" font-family="Times,serif" font-size="14.00">Workflow Outputs</text>
</g>
<!-- get_msi_json_intermediate_step -->
<g id="node1" class="node">
<title>get_msi_json_intermediate_step</title>
<polygon fill="lightgoldenrodyellow" stroke="black" points="1987.5,-2407.13 1987.5,-2443.13 2220.5,-2443.13 2220.5,-2407.13 1987.5,-2407.13"/>
<text text-anchor="middle" x="2104" y="-2421.43" font-family="Times,serif" font-size="14.00">get&#45;file&#45;from&#45;directory v(1.0.0)</text>
</g>
<!-- compress_reporting_jsons_with_gzip_step -->
<g id="node2" class="node">
<title>compress_reporting_jsons_with_gzip_step</title>
<polygon fill="lightgoldenrodyellow" stroke="black" points="1809,-2096.13 1809,-2132.13 1997,-2132.13 1997,-2096.13 1809,-2096.13"/>
<text text-anchor="middle" x="1903" y="-2110.43" font-family="Times,serif" font-size="14.00">custom&#45;gzip&#45;file v(1.0.0)</text>
</g>
<!-- get_msi_json_intermediate_step&#45;&gt;compress_reporting_jsons_with_gzip_step -->
<g id="edge1" class="edge">
<title>get_msi_json_intermediate_step&#45;&gt;compress_reporting_jsons_with_gzip_step</title>
<path fill="none" stroke="black" d="M2092.91,-2407.08C2059.48,-2355.69 1959.58,-2202.12 1919.71,-2140.82"/>
<polygon fill="black" stroke="black" points="1922.45,-2138.61 1914.06,-2132.13 1916.58,-2142.42 1922.45,-2138.61"/>
</g>
<!-- gather_compressed_reporting_json_files_into_tar_step -->
<g id="node16" class="node">
<title>gather_compressed_reporting_json_files_into_tar_step</title>
<polygon fill="lightgoldenrodyellow" stroke="black" points="1800,-1784.13 1800,-1820.13 2006,-1820.13 2006,-1784.13 1800,-1784.13"/>
<text text-anchor="middle" x="1903" y="-1798.43" font-family="Times,serif" font-size="14.00">custom&#45;tar&#45;file&#45;list v(1.0.0)</text>
</g>
<!-- compress_reporting_jsons_with_gzip_step&#45;&gt;gather_compressed_reporting_json_files_into_tar_step -->
<g id="edge22" class="edge">
<title>compress_reporting_jsons_with_gzip_step&#45;&gt;gather_compressed_reporting_json_files_into_tar_step</title>
<path fill="none" stroke="black" d="M1903,-2096.02C1903,-2044.89 1903,-1892.93 1903,-1830.44"/>
<polygon fill="black" stroke="black" points="1906.5,-1830.19 1903,-1820.19 1899.5,-1830.19 1906.5,-1830.19"/>
</g>
<!-- get_tmb_json_intermediate_step -->
<g id="node3" class="node">
<title>get_tmb_json_intermediate_step</title>
<polygon fill="lightgoldenrodyellow" stroke="black" points="1575.5,-2407.13 1575.5,-2443.13 1808.5,-2443.13 1808.5,-2407.13 1575.5,-2407.13"/>
<text text-anchor="middle" x="1692" y="-2421.43" font-family="Times,serif" font-size="14.00">get&#45;file&#45;from&#45;directory v(1.0.0)</text>
</g>
<!-- get_tmb_json_intermediate_step&#45;&gt;compress_reporting_jsons_with_gzip_step -->
<g id="edge2" class="edge">
<title>get_tmb_json_intermediate_step&#45;&gt;compress_reporting_jsons_with_gzip_step</title>
<path fill="none" stroke="black" d="M1703.64,-2407.08C1738.81,-2355.59 1844.03,-2201.49 1885.72,-2140.44"/>
<polygon fill="black" stroke="black" points="1888.64,-2142.37 1891.39,-2132.13 1882.86,-2138.42 1888.64,-2142.37"/>
</g>
<!-- get_sample_analysis_results_intermediate_step -->
<g id="node4" class="node">
<title>get_sample_analysis_results_intermediate_step</title>
<polygon fill="lightgoldenrodyellow" stroke="black" points="1827,-2407.13 1827,-2443.13 1969,-2443.13 1969,-2407.13 1827,-2407.13"/>
<text text-anchor="middle" x="1898" y="-2421.43" font-family="Times,serif" font-size="14.00">parse&#45;file v(1.0.0)</text>
</g>
<!-- get_sample_analysis_results_intermediate_step&#45;&gt;compress_reporting_jsons_with_gzip_step -->
<g id="edge3" class="edge">
<title>get_sample_analysis_results_intermediate_step&#45;&gt;compress_reporting_jsons_with_gzip_step</title>
<path fill="none" stroke="black" d="M1898.28,-2407.08C1899.1,-2356.11 1901.55,-2204.64 1902.56,-2142.35"/>
<polygon fill="black" stroke="black" points="1906.06,-2142.19 1902.72,-2132.13 1899.06,-2142.08 1906.06,-2142.19"/>
</g>
<!-- get_vcf_files_intermediate_step -->
<g id="node5" class="node">
<title>get_vcf_files_intermediate_step</title>
<polygon fill="lightgoldenrodyellow" stroke="black" points="2367.5,-2407.13 2367.5,-2443.13 2608.5,-2443.13 2608.5,-2407.13 2367.5,-2407.13"/>
<text text-anchor="middle" x="2488" y="-2421.43" font-family="Times,serif" font-size="14.00">get&#45;files&#45;from&#45;directory v(1.0.0)</text>
</g>
<!-- compress_vcf_files_step -->
<g id="node6" class="node">
<title>compress_vcf_files_step</title>
<polygon fill="lightgoldenrodyellow" stroke="black" points="2426,-2096.13 2426,-2132.13 2550,-2132.13 2550,-2096.13 2426,-2096.13"/>
<text text-anchor="middle" x="2488" y="-2110.43" font-family="Times,serif" font-size="14.00">bgzip v(1.12.0)</text>
</g>
<!-- get_vcf_files_intermediate_step&#45;&gt;compress_vcf_files_step -->
<g id="edge4" class="edge">
<title>get_vcf_files_intermediate_step&#45;&gt;compress_vcf_files_step</title>
<path fill="none" stroke="black" d="M2488,-2407.08C2488,-2356.11 2488,-2204.64 2488,-2142.35"/>
<polygon fill="black" stroke="black" points="2491.5,-2142.13 2488,-2132.13 2484.5,-2142.13 2491.5,-2142.13"/>
</g>
<!-- index_vcf_files_step -->
<g id="node23" class="node">
<title>index_vcf_files_step</title>
<polygon fill="lightgoldenrodyellow" stroke="black" points="2432,-1784.13 2432,-1820.13 2544,-1820.13 2544,-1784.13 2432,-1784.13"/>
<text text-anchor="middle" x="2488" y="-1798.43" font-family="Times,serif" font-size="14.00">tabix v(0.2.6)</text>
</g>
<!-- compress_vcf_files_step&#45;&gt;index_vcf_files_step -->
<g id="edge24" class="edge">
<title>compress_vcf_files_step&#45;&gt;index_vcf_files_step</title>
<path fill="none" stroke="black" d="M2488,-2096.02C2488,-2044.89 2488,-1892.93 2488,-1830.44"/>
<polygon fill="black" stroke="black" points="2491.5,-1830.19 2488,-1820.19 2484.5,-1830.19 2491.5,-1830.19"/>
</g>
<!-- get_fragment_length_hist_csv_intermediate_step -->
<g id="node7" class="node">
<title>get_fragment_length_hist_csv_intermediate_step</title>
<polygon fill="lightgoldenrodyellow" stroke="black" points="911.5,-2407.13 911.5,-2443.13 1144.5,-2443.13 1144.5,-2407.13 911.5,-2407.13"/>
<text text-anchor="middle" x="1028" y="-2421.43" font-family="Times,serif" font-size="14.00">get&#45;file&#45;from&#45;directory v(1.0.0)</text>
</g>
<!-- convert_metric_csvs_into_json_gzip_step -->
<g id="node8" class="node">
<title>convert_metric_csvs_into_json_gzip_step</title>
<polygon fill="lightgoldenrodyellow" stroke="black" points="394,-1473.13 394,-1509.13 600,-1509.13 600,-1473.13 394,-1473.13"/>
<text text-anchor="middle" x="497" y="-1487.43" font-family="Times,serif" font-size="14.00">custom&#45;tsv&#45;to&#45;json v(1.0.0)</text>
</g>
<!-- get_fragment_length_hist_csv_intermediate_step&#45;&gt;convert_metric_csvs_into_json_gzip_step -->
<g id="edge5" class="edge">
<title>get_fragment_length_hist_csv_intermediate_step&#45;&gt;convert_metric_csvs_into_json_gzip_step</title>
<path fill="none" stroke="black" d="M1024.64,-2407.07C1008.85,-2329.77 936.7,-2006.67 793,-1783.63 717.79,-1666.9 588.28,-1560.87 528.69,-1515.48"/>
<polygon fill="black" stroke="black" points="530.51,-1512.46 520.42,-1509.22 526.29,-1518.05 530.51,-1512.46"/>
</g>
<!-- gather_compressed_metric_json_files_into_tar_step -->
<g id="node20" class="node">
<title>gather_compressed_metric_json_files_into_tar_step</title>
<polygon fill="lightgoldenrodyellow" stroke="black" points="1117,-1162.13 1117,-1198.13 1323,-1198.13 1323,-1162.13 1117,-1162.13"/>
<text text-anchor="middle" x="1220" y="-1176.43" font-family="Times,serif" font-size="14.00">custom&#45;tar&#45;file&#45;list v(1.0.0)</text>
</g>
<!-- convert_metric_csvs_into_json_gzip_step&#45;&gt;gather_compressed_metric_json_files_into_tar_step -->
<g id="edge21" class="edge">
<title>convert_metric_csvs_into_json_gzip_step&#45;&gt;gather_compressed_metric_json_files_into_tar_step</title>
<path fill="none" stroke="black" d="M536.9,-1473.08C660.34,-1420.32 1035.82,-1259.85 1170.92,-1202.11"/>
<polygon fill="black" stroke="black" points="1172.4,-1205.28 1180.22,-1198.13 1169.65,-1198.84 1172.4,-1205.28"/>
</g>
<!-- make_exon_coverage_qc_step -->
<g id="node9" class="node">
<title>make_exon_coverage_qc_step</title>
<polygon fill="lightgoldenrodyellow" stroke="black" points="840,-1784.13 840,-1820.13 1192,-1820.13 1192,-1784.13 840,-1784.13"/>
<text text-anchor="middle" x="1016" y="-1798.43" font-family="Times,serif" font-size="14.00">custom&#45;tso500&#45;make&#45;exon&#45;coverage&#45;qc v(1.0.0)</text>
</g>
<!-- make_exon_coverage_qc_step&#45;&gt;convert_metric_csvs_into_json_gzip_step -->
<g id="edge6" class="edge">
<title>make_exon_coverage_qc_step&#45;&gt;convert_metric_csvs_into_json_gzip_step</title>
<path fill="none" stroke="black" d="M987.36,-1784.08C899.36,-1731.69 632.98,-1573.09 534.3,-1514.34"/>
<polygon fill="black" stroke="black" points="535.94,-1511.24 525.55,-1509.13 532.36,-1517.26 535.94,-1511.24"/>
</g>
<!-- create_custom_output_entry_list_array_step -->
<g id="node15" class="node">
<title>create_custom_output_entry_list_array_step</title>
<polygon fill="lightgoldenrodyellow" stroke="black" points="2059,-850.13 2059,-886.13 2529,-886.13 2529,-850.13 2059,-850.13"/>
<text text-anchor="middle" x="2294" y="-864.43" font-family="Times,serif" font-size="14.00">get&#45;custom&#45;output&#45;dir&#45;entry&#45;for&#45;tso500&#45;post&#45;processing v(2.0.1)</text>
</g>
<!-- make_exon_coverage_qc_step&#45;&gt;create_custom_output_entry_list_array_step -->
<g id="edge16" class="edge">
<title>make_exon_coverage_qc_step&#45;&gt;create_custom_output_entry_list_array_step</title>
<path fill="none" stroke="black" d="M1012.38,-1784.05C996.16,-1702.5 938.21,-1349.11 1108,-1161.63 1243.59,-1011.92 1834.08,-923.05 2127.4,-887.38"/>
<polygon fill="black" stroke="black" points="2128.2,-890.81 2137.71,-886.13 2127.36,-883.86 2128.2,-890.81"/>
</g>
<!-- make_per_coverage_threshold_qc_step -->
<g id="node10" class="node">
<title>make_per_coverage_threshold_qc_step</title>
<polygon fill="lightgoldenrodyellow" stroke="black" points="420,-1784.13 420,-1820.13 784,-1820.13 784,-1784.13 420,-1784.13"/>
<text text-anchor="middle" x="602" y="-1798.43" font-family="Times,serif" font-size="14.00">custom&#45;tso500&#45;make&#45;region&#45;coverage&#45;qc v(1.0.0)</text>
</g>
<!-- make_per_coverage_threshold_qc_step&#45;&gt;convert_metric_csvs_into_json_gzip_step -->
<g id="edge7" class="edge">
<title>make_per_coverage_threshold_qc_step&#45;&gt;convert_metric_csvs_into_json_gzip_step</title>
<path fill="none" stroke="black" d="M596.21,-1784.08C578.85,-1733.01 527.2,-1581.01 506.12,-1518.96"/>
<polygon fill="black" stroke="black" points="509.31,-1517.48 502.78,-1509.13 502.68,-1519.73 509.31,-1517.48"/>
</g>
<!-- get_tmb_trace_tsv_intermediate_step -->
<g id="node11" class="node">
<title>get_tmb_trace_tsv_intermediate_step</title>
<polygon fill="lightgoldenrodyellow" stroke="black" points="257.5,-2407.13 257.5,-2443.13 490.5,-2443.13 490.5,-2407.13 257.5,-2407.13"/>
<text text-anchor="middle" x="374" y="-2421.43" font-family="Times,serif" font-size="14.00">get&#45;file&#45;from&#45;directory v(1.0.0)</text>
</g>
<!-- get_tmb_trace_tsv_intermediate_step&#45;&gt;convert_metric_csvs_into_json_gzip_step -->
<g id="edge8" class="edge">
<title>get_tmb_trace_tsv_intermediate_step&#45;&gt;convert_metric_csvs_into_json_gzip_step</title>
<path fill="none" stroke="black" d="M373.56,-2406.89C371.94,-2332.05 368.46,-2028.07 411,-1783.63 428.39,-1683.69 468.16,-1569.46 486.89,-1518.76"/>
<polygon fill="black" stroke="black" points="490.24,-1519.81 490.45,-1509.22 483.68,-1517.37 490.24,-1519.81"/>
</g>
<!-- get_zero_val_for_skip_rows_parameter -->
<g id="node12" class="node">
<title>get_zero_val_for_skip_rows_parameter</title>
<polygon fill="lightgoldenrodyellow" stroke="black" points="28,-1784.13 28,-1820.13 168,-1820.13 168,-1784.13 28,-1784.13"/>
<text text-anchor="middle" x="98" y="-1798.43" font-family="Times,serif" font-size="14.00">parse&#45;int v(1.0.0)</text>
</g>
<!-- get_zero_val_for_skip_rows_parameter&#45;&gt;convert_metric_csvs_into_json_gzip_step -->
<g id="edge9" class="edge">
<title>get_zero_val_for_skip_rows_parameter&#45;&gt;convert_metric_csvs_into_json_gzip_step</title>
<path fill="none" stroke="black" d="M120.02,-1784.08C187.19,-1732.06 389.58,-1575.32 466.7,-1515.59"/>
<polygon fill="black" stroke="black" points="469.28,-1518.02 475.05,-1509.13 465,-1512.49 469.28,-1518.02"/>
</g>
<!-- get_one_val_for_skip_rows_parameter -->
<g id="node13" class="node">
<title>get_one_val_for_skip_rows_parameter</title>
<polygon fill="lightgoldenrodyellow" stroke="black" points="186,-1784.13 186,-1820.13 326,-1820.13 326,-1784.13 186,-1784.13"/>
<text text-anchor="middle" x="256" y="-1798.43" font-family="Times,serif" font-size="14.00">parse&#45;int v(1.0.0)</text>
</g>
<!-- get_one_val_for_skip_rows_parameter&#45;&gt;convert_metric_csvs_into_json_gzip_step -->
<g id="edge10" class="edge">
<title>get_one_val_for_skip_rows_parameter&#45;&gt;convert_metric_csvs_into_json_gzip_step</title>
<path fill="none" stroke="black" d="M269.3,-1784.08C309.54,-1732.48 430.14,-1577.86 477.55,-1517.07"/>
<polygon fill="black" stroke="black" points="480.35,-1519.17 483.74,-1509.13 474.83,-1514.87 480.35,-1519.17"/>
</g>
<!-- get_fusion_csv_intermediate_step -->
<g id="node14" class="node">
<title>get_fusion_csv_intermediate_step</title>
<polygon fill="lightgoldenrodyellow" stroke="black" points="6.5,-2407.13 6.5,-2443.13 239.5,-2443.13 239.5,-2407.13 6.5,-2407.13"/>
<text text-anchor="middle" x="123" y="-2421.43" font-family="Times,serif" font-size="14.00">get&#45;file&#45;from&#45;directory v(1.0.0)</text>
</g>
<!-- get_fusion_csv_intermediate_step&#45;&gt;convert_metric_csvs_into_json_gzip_step -->
<g id="edge11" class="edge">
<title>get_fusion_csv_intermediate_step&#45;&gt;convert_metric_csvs_into_json_gzip_step</title>
<path fill="none" stroke="black" d="M129.97,-2406.76C175.53,-2293.22 430.63,-1657.53 486.28,-1518.85"/>
<polygon fill="black" stroke="black" points="489.6,-1519.97 490.07,-1509.39 483.1,-1517.37 489.6,-1519.97"/>
</g>
<!-- get_fusion_csv_intermediate_step&#45;&gt;create_custom_output_entry_list_array_step -->
<g id="edge12" class="edge">
<title>get_fusion_csv_intermediate_step&#45;&gt;create_custom_output_entry_list_array_step</title>
<path fill="none" stroke="black" d="M117.07,-2407.09C92.5,-2334.94 0,-2047.13 0,-1803.13 0,-1803.13 0,-1803.13 0,-1490.13 0,-1069.31 1456.5,-924.84 2048.37,-883.51"/>
<polygon fill="black" stroke="black" points="2049.01,-886.97 2058.75,-882.79 2048.53,-879.99 2049.01,-886.97"/>
</g>
<!-- create_output_directory -->
<g id="node21" class="node">
<title>create_output_directory</title>
<polygon fill="lightgoldenrodyellow" stroke="black" points="2360.5,-539.13 2360.5,-575.13 2607.5,-575.13 2607.5,-539.13 2360.5,-539.13"/>
<text text-anchor="middle" x="2484" y="-553.43" font-family="Times,serif" font-size="14.00">custom&#45;create&#45;directory v(2.0.1)</text>
</g>
<!-- create_custom_output_entry_list_array_step&#45;&gt;create_output_directory -->
<g id="edge19" class="edge">
<title>create_custom_output_entry_list_array_step&#45;&gt;create_output_directory</title>
<path fill="none" stroke="black" d="M2304.49,-850.08C2336.08,-798.69 2430.51,-645.12 2468.21,-583.82"/>
<polygon fill="black" stroke="black" points="2471.29,-585.48 2473.55,-575.13 2465.33,-581.82 2471.29,-585.48"/>
</g>
<!-- gather_compressed_reporting_json_files_into_tar_step&#45;&gt;create_custom_output_entry_list_array_step -->
<g id="edge13" class="edge">
<title>gather_compressed_reporting_json_files_into_tar_step&#45;&gt;create_custom_output_entry_list_array_step</title>
<path fill="none" stroke="black" d="M1910.29,-1783.76C1957.92,-1670.22 2224.61,-1034.53 2282.79,-895.85"/>
<polygon fill="black" stroke="black" points="2286.12,-896.96 2286.76,-886.39 2279.66,-894.26 2286.12,-896.96"/>
</g>
<!-- dragen_metrics_to_json_step -->
<g id="node17" class="node">
<title>dragen_metrics_to_json_step</title>
<polygon fill="lightgoldenrodyellow" stroke="black" points="1239,-2096.13 1239,-2132.13 1753,-2132.13 1753,-2096.13 1239,-2096.13"/>
<text text-anchor="middle" x="1496" y="-2110.43" font-family="Times,serif" font-size="14.00">custom&#45;tso500&#45;align&#45;collapse&#45;fusion&#45;caller&#45;csv&#45;metrics&#45;to&#45;json v(1.0.0)</text>
</g>
<!-- dragen_metrics_to_json_step&#45;&gt;create_custom_output_entry_list_array_step -->
<g id="edge14" class="edge">
<title>dragen_metrics_to_json_step&#45;&gt;create_custom_output_entry_list_array_step</title>
<path fill="none" stroke="black" d="M1506.98,-2096.02C1593.97,-1960.4 2171.41,-1060.24 2277.33,-895.12"/>
<polygon fill="black" stroke="black" points="2280.37,-896.86 2282.82,-886.56 2274.48,-893.08 2280.37,-896.86"/>
</g>
<!-- gather_compressed_vcf_files_into_tar_step -->
<g id="node18" class="node">
<title>gather_compressed_vcf_files_into_tar_step</title>
<polygon fill="lightgoldenrodyellow" stroke="black" points="2372.5,-1473.13 2372.5,-1509.13 2603.5,-1509.13 2603.5,-1473.13 2372.5,-1473.13"/>
<text text-anchor="middle" x="2488" y="-1487.43" font-family="Times,serif" font-size="14.00">custom&#45;tar&#45;vcf&#45;file&#45;list v(1.0.0)</text>
</g>
<!-- gather_compressed_vcf_files_into_tar_step&#45;&gt;create_custom_output_entry_list_array_step -->
<g id="edge15" class="edge">
<title>gather_compressed_vcf_files_into_tar_step&#45;&gt;create_custom_output_entry_list_array_step</title>
<path fill="none" stroke="black" d="M2482.61,-1472.88C2455.63,-1386.52 2335.3,-1001.32 2302.36,-895.89"/>
<polygon fill="black" stroke="black" points="2305.69,-894.81 2299.37,-886.31 2299.01,-896.9 2305.69,-894.81"/>
</g>
<!-- run_dragen_multiqc_on_align_collapse_fusion_caller_dir_step -->
<g id="node19" class="node">
<title>run_dragen_multiqc_on_align_collapse_fusion_caller_dir_step</title>
<polygon fill="lightgoldenrodyellow" stroke="black" points="2703.5,-2407.13 2703.5,-2443.13 2842.5,-2443.13 2842.5,-2407.13 2703.5,-2407.13"/>
<text text-anchor="middle" x="2773" y="-2421.43" font-family="Times,serif" font-size="14.00">multiqc v(1.14.0)</text>
</g>
<!-- run_dragen_multiqc_on_align_collapse_fusion_caller_dir_step&#45;&gt;create_custom_output_entry_list_array_step -->
<g id="edge17" class="edge">
<title>run_dragen_multiqc_on_align_collapse_fusion_caller_dir_step&#45;&gt;create_custom_output_entry_list_array_step</title>
<path fill="none" stroke="black" d="M2771.55,-2406.86C2765.56,-2333.78 2743,-2042.76 2743,-1803.13 2743,-1803.13 2743,-1803.13 2743,-1490.13 2743,-1207.06 2432.84,-965.56 2328.09,-892.06"/>
<polygon fill="black" stroke="black" points="2329.96,-889.1 2319.75,-886.27 2325.96,-894.85 2329.96,-889.1"/>
</g>
<!-- gather_compressed_metric_json_files_into_tar_step&#45;&gt;create_custom_output_entry_list_array_step -->
<g id="edge18" class="edge">
<title>gather_compressed_metric_json_files_into_tar_step&#45;&gt;create_custom_output_entry_list_array_step</title>
<path fill="none" stroke="black" d="M1279.27,-1162.02C1463.93,-1108.72 2028.23,-945.84 2225.25,-888.98"/>
<polygon fill="black" stroke="black" points="2226.27,-892.32 2234.91,-886.19 2224.33,-885.6 2226.27,-892.32"/>
</g>
<!-- post_processing_output_directory -->
<g id="node29" class="node">
<title>post_processing_output_directory</title>
<polygon fill="#94ddf4" stroke="black" points="2355.5,-227.13 2355.5,-263.13 2612.5,-263.13 2612.5,-227.13 2355.5,-227.13"/>
<text text-anchor="middle" x="2484" y="-241.43" font-family="Times,serif" font-size="14.00">post_processing_output_directory</text>
</g>
<!-- create_output_directory&#45;&gt;post_processing_output_directory -->
<g id="edge65" class="edge">
<title>create_output_directory&#45;&gt;post_processing_output_directory</title>
<path fill="none" stroke="black" d="M2484,-539.02C2484,-487.89 2484,-335.93 2484,-273.44"/>
<polygon fill="black" stroke="black" points="2487.5,-273.19 2484,-263.19 2480.5,-273.19 2487.5,-273.19"/>
</g>
<!-- get_align_collapse_fusion_caller_metrics_csv_files_intermediate_step -->
<g id="node22" class="node">
<title>get_align_collapse_fusion_caller_metrics_csv_files_intermediate_step</title>
<polygon fill="lightgoldenrodyellow" stroke="black" points="1277.5,-2407.13 1277.5,-2443.13 1518.5,-2443.13 1518.5,-2407.13 1277.5,-2407.13"/>
<text text-anchor="middle" x="1398" y="-2421.43" font-family="Times,serif" font-size="14.00">get&#45;files&#45;from&#45;directory v(1.0.0)</text>
</g>
<!-- get_align_collapse_fusion_caller_metrics_csv_files_intermediate_step&#45;&gt;dragen_metrics_to_json_step -->
<g id="edge20" class="edge">
<title>get_align_collapse_fusion_caller_metrics_csv_files_intermediate_step&#45;&gt;dragen_metrics_to_json_step</title>
<path fill="none" stroke="black" d="M1403.41,-2407.08C1419.61,-2356.01 1467.81,-2204.01 1487.49,-2141.96"/>
<polygon fill="black" stroke="black" points="1490.92,-2142.72 1490.61,-2132.13 1484.25,-2140.61 1490.92,-2142.72"/>
</g>
<!-- index_vcf_files_step&#45;&gt;gather_compressed_vcf_files_into_tar_step -->
<g id="edge23" class="edge">
<title>index_vcf_files_step&#45;&gt;gather_compressed_vcf_files_into_tar_step</title>
<path fill="none" stroke="black" d="M2488,-1784.08C2488,-1733.11 2488,-1581.64 2488,-1519.35"/>
<polygon fill="black" stroke="black" points="2491.5,-1519.13 2488,-1509.13 2484.5,-1519.13 2491.5,-1519.13"/>
</g>
<!-- mosdepth_step -->
<g id="node24" class="node">
<title>mosdepth_step</title>
<polygon fill="lightgoldenrodyellow" stroke="black" points="638,-2096.13 638,-2132.13 784,-2132.13 784,-2096.13 638,-2096.13"/>
<text text-anchor="middle" x="711" y="-2110.43" font-family="Times,serif" font-size="14.00">mosdepth v(0.3.1)</text>
</g>
<!-- mosdepth_step&#45;&gt;make_exon_coverage_qc_step -->
<g id="edge25" class="edge">
<title>mosdepth_step&#45;&gt;make_exon_coverage_qc_step</title>
<path fill="none" stroke="black" d="M727.83,-2096.02C778.97,-2044.05 932.64,-1887.86 992.12,-1827.4"/>
<polygon fill="black" stroke="black" points="994.7,-1829.77 999.22,-1820.19 989.71,-1824.86 994.7,-1829.77"/>
</g>
<!-- mosdepth_step&#45;&gt;make_per_coverage_threshold_qc_step -->
<g id="edge26" class="edge">
<title>mosdepth_step&#45;&gt;make_per_coverage_threshold_qc_step</title>
<path fill="none" stroke="black" d="M704.98,-2096.02C686.93,-2044.68 633.13,-1891.67 611.33,-1829.66"/>
<polygon fill="black" stroke="black" points="614.62,-1828.46 608,-1820.19 608.01,-1830.78 614.62,-1828.46"/>
</g>
<!-- get_raw_bam_file_intermediate_step -->
<g id="node25" class="node">
<title>get_raw_bam_file_intermediate_step</title>
<polygon fill="lightgoldenrodyellow" stroke="black" points="585.5,-2407.13 585.5,-2443.13 854.5,-2443.13 854.5,-2407.13 585.5,-2407.13"/>
<text text-anchor="middle" x="720" y="-2421.43" font-family="Times,serif" font-size="14.00">get&#45;bam&#45;file&#45;from&#45;directory v(1.0.0)</text>
</g>
<!-- get_raw_bam_file_intermediate_step&#45;&gt;mosdepth_step -->
<g id="edge27" class="edge">
<title>get_raw_bam_file_intermediate_step&#45;&gt;mosdepth_step</title>
<path fill="none" stroke="black" d="M719.5,-2407.08C718.02,-2356.11 713.61,-2204.64 711.79,-2142.35"/>
<polygon fill="black" stroke="black" points="715.28,-2142.03 711.5,-2132.13 708.29,-2142.23 715.28,-2142.03"/>
</g>
<!-- create_dummy_file_step -->
<g id="node26" class="node">
<title>create_dummy_file_step</title>
<polygon fill="lightgoldenrodyellow" stroke="black" points="2642.5,-2732.13 2642.5,-2768.13 2903.5,-2768.13 2903.5,-2732.13 2642.5,-2732.13"/>
<text text-anchor="middle" x="2773" y="-2746.43" font-family="Times,serif" font-size="14.00">custom&#45;create&#45;dummy&#45;file v(1.0.0)</text>
</g>
<!-- create_dummy_file_step&#45;&gt;run_dragen_multiqc_on_align_collapse_fusion_caller_dir_step -->
<g id="edge28" class="edge">
<title>create_dummy_file_step&#45;&gt;run_dragen_multiqc_on_align_collapse_fusion_caller_dir_step</title>
<path fill="none" stroke="black" d="M2773,-2731.77C2773,-2678.63 2773,-2517.92 2773,-2453.39"/>
<polygon fill="black" stroke="black" points="2776.5,-2453.19 2773,-2443.19 2769.5,-2453.19 2776.5,-2453.19"/>
</g>
<!-- tso500_outputs_by_sample -->
<g id="node27" class="node">
<title>tso500_outputs_by_sample</title>
<polygon fill="#94ddf4" stroke="black" points="1587.5,-2732.13 1587.5,-2768.13 1796.5,-2768.13 1796.5,-2732.13 1587.5,-2732.13"/>
<text text-anchor="middle" x="1692" y="-2746.43" font-family="Times,serif" font-size="14.00">tso500_outputs_by_sample</text>
</g>
<!-- tso500_outputs_by_sample&#45;&gt;get_msi_json_intermediate_step -->
<g id="edge46" class="edge">
<title>tso500_outputs_by_sample&#45;&gt;get_msi_json_intermediate_step</title>
<path fill="none" stroke="black" d="M1710.62,-2731.99C1775.09,-2677.9 1988.17,-2510.74 2070.9,-2449.19"/>
<polygon fill="black" stroke="black" points="2073,-2451.99 2078.95,-2443.23 2068.83,-2446.36 2073,-2451.99"/>
</g>
<!-- tso500_outputs_by_sample&#45;&gt;get_msi_json_intermediate_step -->
<g id="edge47" class="edge">
<title>tso500_outputs_by_sample&#45;&gt;get_msi_json_intermediate_step</title>
<path fill="none" stroke="black" d="M1717.1,-2731.99C1790.33,-2678.12 2002.28,-2512.08 2077.38,-2449.94"/>
<polygon fill="black" stroke="black" points="2079.99,-2452.32 2085.43,-2443.23 2075.51,-2446.94 2079.99,-2452.32"/>
</g>
<!-- tso500_outputs_by_sample&#45;&gt;get_tmb_json_intermediate_step -->
<g id="edge51" class="edge">
<title>tso500_outputs_by_sample&#45;&gt;get_tmb_json_intermediate_step</title>
<path fill="none" stroke="black" d="M1688.74,-2731.77C1684.33,-2678.63 1684.1,-2517.92 1688.04,-2453.39"/>
<polygon fill="black" stroke="black" points="1691.54,-2453.42 1688.76,-2443.19 1684.56,-2452.92 1691.54,-2453.42"/>
</g>
<!-- tso500_outputs_by_sample&#45;&gt;get_tmb_json_intermediate_step -->
<g id="edge52" class="edge">
<title>tso500_outputs_by_sample&#45;&gt;get_tmb_json_intermediate_step</title>
<path fill="none" stroke="black" d="M1695.26,-2731.77C1699.67,-2678.63 1699.9,-2517.92 1695.96,-2453.39"/>
<polygon fill="black" stroke="black" points="1699.44,-2452.92 1695.24,-2443.19 1692.46,-2453.42 1699.44,-2452.92"/>
</g>
<!-- tso500_outputs_by_sample&#45;&gt;get_sample_analysis_results_intermediate_step -->
<g id="edge50" class="edge">
<title>tso500_outputs_by_sample&#45;&gt;get_sample_analysis_results_intermediate_step</title>
<path fill="none" stroke="black" d="M1703.08,-2731.77C1737.25,-2678.19 1841.16,-2515.26 1881.63,-2451.81"/>
<polygon fill="black" stroke="black" points="1884.69,-2453.51 1887.12,-2443.19 1878.79,-2449.74 1884.69,-2453.51"/>
</g>
<!-- tso500_outputs_by_sample&#45;&gt;get_vcf_files_intermediate_step -->
<g id="edge55" class="edge">
<title>tso500_outputs_by_sample&#45;&gt;get_vcf_files_intermediate_step</title>
<path fill="none" stroke="black" d="M1730.72,-2732.11C1860.74,-2677.49 2281.41,-2506.75 2432.99,-2447.02"/>
<polygon fill="black" stroke="black" points="2434.55,-2450.16 2442.58,-2443.25 2431.99,-2443.65 2434.55,-2450.16"/>
</g>
<!-- tso500_outputs_by_sample&#45;&gt;get_vcf_files_intermediate_step -->
<g id="edge56" class="edge">
<title>tso500_outputs_by_sample&#45;&gt;get_vcf_files_intermediate_step</title>
<path fill="none" stroke="black" d="M1737.19,-2732.11C1876.24,-2677.54 2296.4,-2507.09 2439.64,-2447.2"/>
<polygon fill="black" stroke="black" points="2441.19,-2450.34 2449.06,-2443.25 2438.49,-2443.88 2441.19,-2450.34"/>
</g>
<!-- tso500_outputs_by_sample&#45;&gt;get_fragment_length_hist_csv_intermediate_step -->
<g id="edge42" class="edge">
<title>tso500_outputs_by_sample&#45;&gt;get_fragment_length_hist_csv_intermediate_step</title>
<path fill="none" stroke="black" d="M1653.53,-2731.99C1536.99,-2677.52 1189.13,-2508.37 1069.14,-2447.9"/>
<polygon fill="black" stroke="black" points="1070.41,-2444.62 1059.91,-2443.23 1067.25,-2450.86 1070.41,-2444.62"/>
</g>
<!-- tso500_outputs_by_sample&#45;&gt;get_fragment_length_hist_csv_intermediate_step -->
<g id="edge43" class="edge">
<title>tso500_outputs_by_sample&#45;&gt;get_fragment_length_hist_csv_intermediate_step</title>
<path fill="none" stroke="black" d="M1660.01,-2731.99C1552.36,-2677.41 1203.57,-2507.69 1075.57,-2447.54"/>
<polygon fill="black" stroke="black" points="1076.93,-2444.3 1066.39,-2443.23 1073.96,-2450.64 1076.93,-2444.3"/>
</g>
<!-- tso500_outputs_by_sample&#45;&gt;make_exon_coverage_qc_step -->
<g id="edge57" class="edge">
<title>tso500_outputs_by_sample&#45;&gt;make_exon_coverage_qc_step</title>
<path fill="none" stroke="black" d="M1657.44,-2732.01C1555.84,-2681.06 1261.19,-2528.66 1197,-2443.63 1046.49,-2244.25 1021.11,-1924.84 1016.85,-1830.32"/>
<polygon fill="black" stroke="black" points="1020.34,-1830.02 1016.44,-1820.17 1013.35,-1830.3 1020.34,-1830.02"/>
</g>
<!-- tso500_outputs_by_sample&#45;&gt;make_per_coverage_threshold_qc_step -->
<g id="edge58" class="edge">
<title>tso500_outputs_by_sample&#45;&gt;make_per_coverage_threshold_qc_step</title>
<path fill="none" stroke="black" d="M1655.84,-2732.09C1633.69,-2722.07 1604.58,-2709.64 1578,-2700.63 1142.56,-2553.11 857.83,-2806.87 576,-2443.63 427.9,-2252.75 549.68,-1925.01 590.12,-1829.8"/>
<polygon fill="black" stroke="black" points="593.45,-1830.9 594.2,-1820.33 587.02,-1828.13 593.45,-1830.9"/>
</g>
<!-- tso500_outputs_by_sample&#45;&gt;get_tmb_trace_tsv_intermediate_step -->
<g id="edge53" class="edge">
<title>tso500_outputs_by_sample&#45;&gt;get_tmb_trace_tsv_intermediate_step</title>
<path fill="none" stroke="black" d="M1648.65,-2732.06C1625.25,-2721.91 1595.91,-2709.35 1569,-2700.63 1176.23,-2573.43 693.1,-2482.28 481.62,-2444.91"/>
<polygon fill="black" stroke="black" points="482.21,-2441.46 471.75,-2443.17 480.99,-2448.36 482.21,-2441.46"/>
</g>
<!-- tso500_outputs_by_sample&#45;&gt;get_tmb_trace_tsv_intermediate_step -->
<g id="edge54" class="edge">
<title>tso500_outputs_by_sample&#45;&gt;get_tmb_trace_tsv_intermediate_step</title>
<path fill="none" stroke="black" d="M1663.97,-2731.94C1643.03,-2721.81 1613.81,-2709.31 1587,-2700.63 1194.04,-2573.37 710.62,-2482.18 491.63,-2444.86"/>
<polygon fill="black" stroke="black" points="492.17,-2441.4 481.72,-2443.17 490.99,-2448.3 492.17,-2441.4"/>
</g>
<!-- tso500_outputs_by_sample&#45;&gt;get_fusion_csv_intermediate_step -->
<g id="edge44" class="edge">
<title>tso500_outputs_by_sample&#45;&gt;get_fusion_csv_intermediate_step</title>
<path fill="none" stroke="black" d="M1649.56,-2732.05C1626.08,-2721.7 1596.38,-2708.93 1569,-2700.63 1315.93,-2623.91 529.81,-2493.2 235.6,-2444.84"/>
<polygon fill="black" stroke="black" points="235.78,-2441.33 225.35,-2443.16 234.65,-2448.23 235.78,-2441.33"/>
</g>
<!-- tso500_outputs_by_sample&#45;&gt;get_fusion_csv_intermediate_step -->
<g id="edge45" class="edge">
<title>tso500_outputs_by_sample&#45;&gt;get_fusion_csv_intermediate_step</title>
<path fill="none" stroke="black" d="M1665.04,-2732.05C1644.08,-2721.7 1614.38,-2708.93 1587,-2700.63 1333.8,-2623.87 547.03,-2493.07 243.81,-2444.77"/>
<polygon fill="black" stroke="black" points="244.09,-2441.27 233.66,-2443.16 242.99,-2448.19 244.09,-2441.27"/>
</g>
<!-- tso500_outputs_by_sample&#45;&gt;create_custom_output_entry_list_array_step -->
<g id="edge29" class="edge">
<title>tso500_outputs_by_sample&#45;&gt;create_custom_output_entry_list_array_step</title>
<path fill="none" stroke="black" d="M1729.18,-2732.06C1824.88,-2697.86 2064.38,-2609.62 2184,-2443.63 2271.01,-2322.89 2249,-2263.96 2249,-2115.13 2249,-2115.13 2249,-2115.13 2249,-1490.13 2249,-1260.14 2249,-982.23 2275.04,-895.97"/>
<polygon fill="black" stroke="black" points="2278.38,-897.01 2278.35,-886.42 2271.77,-894.72 2278.38,-897.01"/>
</g>
<!-- tso500_outputs_by_sample&#45;&gt;create_custom_output_entry_list_array_step -->
<g id="edge30" class="edge">
<title>tso500_outputs_by_sample&#45;&gt;create_custom_output_entry_list_array_step</title>
<path fill="none" stroke="black" d="M1739.73,-2732.06C1842.88,-2697.86 2082.38,-2609.62 2202,-2443.63 2289.01,-2322.89 2267,-2263.96 2267,-2115.13 2267,-2115.13 2267,-2115.13 2267,-1490.13 2267,-1260.37 2267,-982.79 2282.58,-896.24"/>
<polygon fill="black" stroke="black" points="2286.01,-896.92 2284.61,-886.42 2279.15,-895.5 2286.01,-896.92"/>
</g>
<!-- tso500_outputs_by_sample&#45;&gt;create_custom_output_entry_list_array_step -->
<g id="edge31" class="edge">
<title>tso500_outputs_by_sample&#45;&gt;create_custom_output_entry_list_array_step</title>
<path fill="none" stroke="black" d="M1750.29,-2732.06C1860.88,-2697.86 2100.38,-2609.62 2220,-2443.63 2307.01,-2322.89 2285,-2263.96 2285,-2115.13 2285,-2115.13 2285,-2115.13 2285,-1490.13 2285,-1260.61 2285,-983.36 2290.18,-896.5"/>
<polygon fill="black" stroke="black" points="2293.68,-896.64 2290.87,-886.42 2286.69,-896.16 2293.68,-896.64"/>
</g>
<!-- tso500_outputs_by_sample&#45;&gt;create_custom_output_entry_list_array_step -->
<g id="edge32" class="edge">
<title>tso500_outputs_by_sample&#45;&gt;create_custom_output_entry_list_array_step</title>
<path fill="none" stroke="black" d="M1760.84,-2732.06C1878.88,-2697.86 2118.38,-2609.62 2238,-2443.63 2325.01,-2322.89 2303,-2263.96 2303,-2115.13 2303,-2115.13 2303,-2115.13 2303,-1490.13 2303,-1260.61 2303,-983.36 2297.82,-896.5"/>
<polygon fill="black" stroke="black" points="2301.31,-896.16 2297.13,-886.42 2294.32,-896.64 2301.31,-896.16"/>
</g>
<!-- tso500_outputs_by_sample&#45;&gt;create_custom_output_entry_list_array_step -->
<g id="edge33" class="edge">
<title>tso500_outputs_by_sample&#45;&gt;create_custom_output_entry_list_array_step</title>
<path fill="none" stroke="black" d="M1771.39,-2732.06C1896.88,-2697.86 2136.38,-2609.62 2256,-2443.63 2343.01,-2322.89 2321,-2263.96 2321,-2115.13 2321,-2115.13 2321,-2115.13 2321,-1490.13 2321,-1260.37 2321,-982.79 2305.42,-896.24"/>
<polygon fill="black" stroke="black" points="2308.85,-895.5 2303.39,-886.42 2301.99,-896.92 2308.85,-895.5"/>
</g>
<!-- tso500_outputs_by_sample&#45;&gt;create_custom_output_entry_list_array_step -->
<g id="edge34" class="edge">
<title>tso500_outputs_by_sample&#45;&gt;create_custom_output_entry_list_array_step</title>
<path fill="none" stroke="black" d="M1781.68,-2732.13C1914.57,-2697.98 2154.3,-2609.73 2274,-2443.63 2361.01,-2322.89 2339,-2263.96 2339,-2115.13 2339,-2115.13 2339,-2115.13 2339,-1490.13 2339,-1260.14 2339,-982.23 2312.96,-895.97"/>
<polygon fill="black" stroke="black" points="2316.23,-894.72 2309.65,-886.42 2309.62,-897.01 2316.23,-894.72"/>
</g>
<!-- tso500_outputs_by_sample&#45;&gt;gather_compressed_reporting_json_files_into_tar_step -->
<g id="edge38" class="edge">
<title>tso500_outputs_by_sample&#45;&gt;gather_compressed_reporting_json_files_into_tar_step</title>
<path fill="none" stroke="black" d="M1677.02,-2731.85C1635.65,-2681.92 1525.45,-2533.02 1566,-2406.63 1611.74,-2264.06 1688.56,-2263.11 1762,-2132.63 1822.33,-2025.43 1873.57,-1887.3 1893.78,-1829.94"/>
<polygon fill="black" stroke="black" points="1897.19,-1830.79 1897.19,-1820.2 1890.58,-1828.48 1897.19,-1830.79"/>
</g>
<!-- tso500_outputs_by_sample&#45;&gt;dragen_metrics_to_json_step -->
<g id="edge36" class="edge">
<title>tso500_outputs_by_sample&#45;&gt;dragen_metrics_to_json_step</title>
<path fill="none" stroke="black" d="M1661.35,-2732.03C1571.38,-2681.12 1311.62,-2528.83 1268,-2443.63 1204.79,-2320.17 1379.13,-2189.33 1458.72,-2137.83"/>
<polygon fill="black" stroke="black" points="1460.94,-2140.56 1467.48,-2132.23 1457.17,-2134.66 1460.94,-2140.56"/>
</g>
<!-- tso500_outputs_by_sample&#45;&gt;gather_compressed_vcf_files_into_tar_step -->
<g id="edge39" class="edge">
<title>tso500_outputs_by_sample&#45;&gt;gather_compressed_vcf_files_into_tar_step</title>
<path fill="none" stroke="black" d="M1787.15,-2732.11C2002.7,-2691.43 2517.3,-2581.55 2617,-2443.63 2728.12,-2289.91 2539.74,-1657.58 2496.53,-1519.04"/>
<polygon fill="black" stroke="black" points="2499.79,-1517.73 2493.46,-1509.24 2493.11,-1519.82 2499.79,-1517.73"/>
</g>
<!-- tso500_outputs_by_sample&#45;&gt;run_dragen_multiqc_on_align_collapse_fusion_caller_dir_step -->
<g id="edge60" class="edge">
<title>tso500_outputs_by_sample&#45;&gt;run_dragen_multiqc_on_align_collapse_fusion_caller_dir_step</title>
<path fill="none" stroke="black" d="M1739.27,-2732.11C1909.43,-2677.13 2486.96,-2504.5 2696.64,-2445.86"/>
<polygon fill="black" stroke="black" points="2697.65,-2449.21 2706.35,-2443.15 2695.77,-2442.46 2697.65,-2449.21"/>
</g>
<!-- tso500_outputs_by_sample&#45;&gt;run_dragen_multiqc_on_align_collapse_fusion_caller_dir_step -->
<g id="edge61" class="edge">
<title>tso500_outputs_by_sample&#45;&gt;run_dragen_multiqc_on_align_collapse_fusion_caller_dir_step</title>
<path fill="none" stroke="black" d="M1745.74,-2732.11C1924.95,-2677.18 2501.65,-2504.84 2702.94,-2446.03"/>
<polygon fill="black" stroke="black" points="2704.19,-2449.31 2712.81,-2443.15 2702.23,-2442.59 2704.19,-2449.31"/>
</g>
<!-- tso500_outputs_by_sample&#45;&gt;run_dragen_multiqc_on_align_collapse_fusion_caller_dir_step -->
<g id="edge62" class="edge">
<title>tso500_outputs_by_sample&#45;&gt;run_dragen_multiqc_on_align_collapse_fusion_caller_dir_step</title>
<path fill="none" stroke="black" d="M1752.21,-2732.11C1940.54,-2677.21 2516.92,-2505.01 2709.58,-2446.12"/>
<polygon fill="black" stroke="black" points="2710.74,-2449.42 2719.28,-2443.15 2708.69,-2442.73 2710.74,-2449.42"/>
</g>
<!-- tso500_outputs_by_sample&#45;&gt;run_dragen_multiqc_on_align_collapse_fusion_caller_dir_step -->
<g id="edge63" class="edge">
<title>tso500_outputs_by_sample&#45;&gt;run_dragen_multiqc_on_align_collapse_fusion_caller_dir_step</title>
<path fill="none" stroke="black" d="M1758.68,-2732.11C1956.03,-2677.27 2531.62,-2505.36 2715.98,-2446.29"/>
<polygon fill="black" stroke="black" points="2717.3,-2449.54 2725.75,-2443.15 2715.16,-2442.88 2717.3,-2449.54"/>
</g>
<!-- tso500_outputs_by_sample&#45;&gt;gather_compressed_metric_json_files_into_tar_step -->
<g id="edge37" class="edge">
<title>tso500_outputs_by_sample&#45;&gt;gather_compressed_metric_json_files_into_tar_step</title>
<path fill="none" stroke="black" d="M1660.66,-2732C1568.62,-2681.02 1302.55,-2528.54 1254,-2443.63 1190.74,-2332.99 1214.34,-1381.86 1219.21,-1208.27"/>
<polygon fill="black" stroke="black" points="1222.71,-1208.28 1219.49,-1198.19 1215.71,-1208.09 1222.71,-1208.28"/>
</g>
<!-- tso500_outputs_by_sample&#45;&gt;create_output_directory -->
<g id="edge35" class="edge">
<title>tso500_outputs_by_sample&#45;&gt;create_output_directory</title>
<path fill="none" stroke="black" d="M1786.45,-2732.1C2003.93,-2690.88 2529.9,-2579.06 2640,-2443.63 2732.62,-2329.7 2675,-2261.96 2675,-2115.13 2675,-2115.13 2675,-2115.13 2675,-1179.13 2675,-938.56 2542.43,-667.81 2498.18,-584.14"/>
<polygon fill="black" stroke="black" points="2501.27,-582.49 2493.47,-575.32 2495.09,-585.79 2501.27,-582.49"/>
</g>
<!-- tso500_outputs_by_sample&#45;&gt;get_align_collapse_fusion_caller_metrics_csv_files_intermediate_step -->
<g id="edge40" class="edge">
<title>tso500_outputs_by_sample&#45;&gt;get_align_collapse_fusion_caller_metrics_csv_files_intermediate_step</title>
<path fill="none" stroke="black" d="M1672.93,-2731.77C1619.5,-2677.97 1470,-2513.92 1416.85,-2451.03"/>
<polygon fill="black" stroke="black" points="1419.39,-2448.62 1410.29,-2443.19 1414.02,-2453.11 1419.39,-2448.62"/>
</g>
<!-- tso500_outputs_by_sample&#45;&gt;get_align_collapse_fusion_caller_metrics_csv_files_intermediate_step -->
<g id="edge41" class="edge">
<title>tso500_outputs_by_sample&#45;&gt;get_align_collapse_fusion_caller_metrics_csv_files_intermediate_step</title>
<path fill="none" stroke="black" d="M1679.46,-2731.77C1634.85,-2677.86 1485.2,-2513.25 1424.1,-2450.65"/>
<polygon fill="black" stroke="black" points="1426.27,-2447.86 1416.77,-2443.19 1421.29,-2452.77 1426.27,-2447.86"/>
</g>
<!-- tso500_outputs_by_sample&#45;&gt;mosdepth_step -->
<g id="edge59" class="edge">
<title>tso500_outputs_by_sample&#45;&gt;mosdepth_step</title>
<path fill="none" stroke="black" d="M1652.85,-2732.03C1630.93,-2722.57 1603.04,-2710.71 1578,-2700.63 1279.84,-2580.58 1147.07,-2651.61 902,-2443.63 800.96,-2357.88 740.89,-2204.44 719.7,-2142.34"/>
<polygon fill="black" stroke="black" points="722.9,-2140.88 716.41,-2132.51 716.26,-2143.1 722.9,-2140.88"/>
</g>
<!-- tso500_outputs_by_sample&#45;&gt;get_raw_bam_file_intermediate_step -->
<g id="edge48" class="edge">
<title>tso500_outputs_by_sample&#45;&gt;get_raw_bam_file_intermediate_step</title>
<path fill="none" stroke="black" d="M1646.48,-2732.08C1623.31,-2722.35 1594.81,-2710.23 1569,-2700.63 1280.36,-2593.32 928.16,-2488.7 785.02,-2446.11"/>
<polygon fill="black" stroke="black" points="785.66,-2442.65 775.08,-2443.15 783.66,-2449.36 785.66,-2442.65"/>
</g>
<!-- tso500_outputs_by_sample&#45;&gt;get_raw_bam_file_intermediate_step -->
<g id="edge49" class="edge">
<title>tso500_outputs_by_sample&#45;&gt;get_raw_bam_file_intermediate_step</title>
<path fill="none" stroke="black" d="M1662.23,-2732.08C1641.31,-2722.35 1612.81,-2710.23 1587,-2700.63 1297.78,-2593.11 944.75,-2488.28 793.92,-2445.86"/>
<polygon fill="black" stroke="black" points="794.86,-2442.48 784.28,-2443.15 792.96,-2449.22 794.86,-2442.48"/>
</g>
<!-- tso_manifest_bed -->
<g id="node28" class="node">
<title>tso_manifest_bed</title>
<polygon fill="#94ddf4" stroke="black" points="1429,-2732.13 1429,-2768.13 1569,-2768.13 1569,-2732.13 1429,-2732.13"/>
<text text-anchor="middle" x="1499" y="-2746.43" font-family="Times,serif" font-size="14.00">tso_manifest_bed</text>
</g>
<!-- tso_manifest_bed&#45;&gt;mosdepth_step -->
<g id="edge64" class="edge">
<title>tso_manifest_bed&#45;&gt;mosdepth_step</title>
<path fill="none" stroke="black" d="M1428.95,-2736.74C1231.76,-2700.3 679.53,-2586.96 576,-2443.63 503.09,-2342.7 629.2,-2196.6 685.72,-2139.39"/>
<polygon fill="black" stroke="black" points="688.29,-2141.78 692.89,-2132.24 683.34,-2136.83 688.29,-2141.78"/>
</g>
</g>
</svg>
