<?xml version="1.0" encoding="UTF-8" standalone="no"?>
<!DOCTYPE svg PUBLIC "-//W3C//DTD SVG 1.1//EN"
 "http://www.w3.org/Graphics/SVG/1.1/DTD/svg11.dtd">
<!-- Generated by graphviz version 2.43.0 (0)
 -->
<!-- Title: G Pages: 1 -->
<svg width="3135pt" height="3135pt"
 viewBox="0.00 0.00 3135.00 3135.00" xmlns="http://www.w3.org/2000/svg" xmlns:xlink="http://www.w3.org/1999/xlink">
<g id="graph0" class="graph" transform="scale(1 1) rotate(0) translate(4 3131)">
<title>G</title>
<polygon fill="#eeeeee" stroke="transparent" points="-4,4 -4,-3131 3131,-3131 3131,4 -4,4"/>
<g id="clust1" class="cluster">
<title>cluster_inputs</title>
<polygon fill="#eeeeee" stroke="black" stroke-dasharray="5,2" points="1473,-2740.67 1473,-3090.64 1857,-3090.64 1857,-2740.67 1473,-2740.67"/>
<text text-anchor="middle" x="1790.5" y="-2748.47" font-family="Times,serif" font-size="14.00">Workflow Inputs</text>
</g>
<g id="clust2" class="cluster">
<title>cluster_outputs</title>
<polygon fill="#eeeeee" stroke="black" stroke-dasharray="5,2" points="2148,-36.36 2148,-386.33 2422,-386.33 2422,-36.36 2148,-36.36"/>
<text text-anchor="middle" x="2349.5" y="-44.16" font-family="Times,serif" font-size="14.00">Workflow Outputs</text>
</g>
<!-- tso500_outputs_by_sample -->
<g id="node1" class="node">
<title>tso500_outputs_by_sample</title>
<polygon fill="#94ddf4" stroke="black" points="1639.5,-2949.86 1639.5,-2986.86 1848.5,-2986.86 1848.5,-2949.86 1639.5,-2949.86"/>
<text text-anchor="middle" x="1744" y="-2964.66" font-family="Times,serif" font-size="14.00">tso500_outputs_by_sample</text>
</g>
<!-- get_sample_analysis_results_intermediate_step -->
<g id="node4" class="node">
<title>get_sample_analysis_results_intermediate_step</title>
<polygon fill="lightgoldenrodyellow" stroke="black" points="2115,-2599.86 2115,-2636.86 2257,-2636.86 2257,-2599.86 2115,-2599.86"/>
<text text-anchor="middle" x="2186" y="-2614.66" font-family="Times,serif" font-size="14.00">parse&#45;file v(1.0.0)</text>
</g>
<!-- tso500_outputs_by_sample&#45;&gt;get_sample_analysis_results_intermediate_step -->
<g id="edge30" class="edge">
<title>tso500_outputs_by_sample&#45;&gt;get_sample_analysis_results_intermediate_step</title>
<path fill="none" stroke="black" d="M1766.53,-2949.62C1839.83,-2891.91 2071.65,-2709.39 2155.42,-2643.43"/>
<polygon fill="black" stroke="black" points="2157.83,-2646 2163.52,-2637.06 2153.5,-2640.5 2157.83,-2646"/>
</g>
<!-- gather_compressed_reporting_json_files_into_tar_step -->
<g id="node6" class="node">
<title>gather_compressed_reporting_json_files_into_tar_step</title>
<polygon fill="lightgoldenrodyellow" stroke="black" points="2340,-1926.86 2340,-1963.86 2546,-1963.86 2546,-1926.86 2340,-1926.86"/>
<text text-anchor="middle" x="2443" y="-1941.66" font-family="Times,serif" font-size="14.00">custom&#45;tar&#45;file&#45;list v(1.0.0)</text>
</g>
<!-- tso500_outputs_by_sample&#45;&gt;gather_compressed_reporting_json_files_into_tar_step -->
<g id="edge57" class="edge">
<title>tso500_outputs_by_sample&#45;&gt;gather_compressed_reporting_json_files_into_tar_step</title>
<path fill="none" stroke="black" d="M1846.64,-2949.86C2083.58,-2907.16 2656.93,-2789.85 2768,-2637.36 2938.97,-2402.64 2579.42,-2063.7 2472.05,-1970.73"/>
<polygon fill="black" stroke="black" points="2474.05,-1967.83 2464.19,-1963.97 2469.49,-1973.14 2474.05,-1967.83"/>
</g>
<!-- get_tmb_json_intermediate_step -->
<g id="node7" class="node">
<title>get_tmb_json_intermediate_step</title>
<polygon fill="lightgoldenrodyellow" stroke="black" points="2275.5,-2599.86 2275.5,-2636.86 2508.5,-2636.86 2508.5,-2599.86 2275.5,-2599.86"/>
<text text-anchor="middle" x="2392" y="-2614.66" font-family="Times,serif" font-size="14.00">get&#45;file&#45;from&#45;directory v(1.0.0)</text>
</g>
<!-- tso500_outputs_by_sample&#45;&gt;get_tmb_json_intermediate_step -->
<g id="edge31" class="edge">
<title>tso500_outputs_by_sample&#45;&gt;get_tmb_json_intermediate_step</title>
<path fill="none" stroke="black" d="M1773.84,-2949.62C1877.65,-2891.39 2222.63,-2706.06 2346.95,-2641.66"/>
<polygon fill="black" stroke="black" points="2348.58,-2644.76 2355.86,-2637.06 2345.37,-2638.54 2348.58,-2644.76"/>
</g>
<!-- tso500_outputs_by_sample&#45;&gt;get_tmb_json_intermediate_step -->
<g id="edge32" class="edge">
<title>tso500_outputs_by_sample&#45;&gt;get_tmb_json_intermediate_step</title>
<path fill="none" stroke="black" d="M1780.21,-2949.62C1893.07,-2891.5 2237.12,-2706.8 2353.3,-2642.05"/>
<polygon fill="black" stroke="black" points="2355.2,-2645 2362.23,-2637.06 2351.79,-2638.89 2355.2,-2645"/>
</g>
<!-- get_msi_json_intermediate_step -->
<g id="node8" class="node">
<title>get_msi_json_intermediate_step</title>
<polygon fill="lightgoldenrodyellow" stroke="black" points="2526.5,-2599.86 2526.5,-2636.86 2759.5,-2636.86 2759.5,-2599.86 2526.5,-2599.86"/>
<text text-anchor="middle" x="2643" y="-2614.66" font-family="Times,serif" font-size="14.00">get&#45;file&#45;from&#45;directory v(1.0.0)</text>
</g>
<!-- tso500_outputs_by_sample&#45;&gt;get_msi_json_intermediate_step -->
<g id="edge33" class="edge">
<title>tso500_outputs_by_sample&#45;&gt;get_msi_json_intermediate_step</title>
<path fill="none" stroke="black" d="M1786.33,-2949.74C1932.67,-2891.29 2416.78,-2703.85 2584.93,-2640.51"/>
<polygon fill="black" stroke="black" points="2586.46,-2643.67 2594.59,-2636.87 2584,-2637.12 2586.46,-2643.67"/>
</g>
<!-- tso500_outputs_by_sample&#45;&gt;get_msi_json_intermediate_step -->
<g id="edge34" class="edge">
<title>tso500_outputs_by_sample&#45;&gt;get_msi_json_intermediate_step</title>
<path fill="none" stroke="black" d="M1792.68,-2949.74C1948.21,-2891.35 2431.7,-2704.23 2591.33,-2640.7"/>
<polygon fill="black" stroke="black" points="2592.94,-2643.83 2600.93,-2636.87 2590.34,-2637.32 2592.94,-2643.83"/>
</g>
<!-- get_vcf_files_intermediate_step -->
<g id="node9" class="node">
<title>get_vcf_files_intermediate_step</title>
<polygon fill="lightgoldenrodyellow" stroke="black" points="1429.5,-2599.86 1429.5,-2636.86 1670.5,-2636.86 1670.5,-2599.86 1429.5,-2599.86"/>
<text text-anchor="middle" x="1550" y="-2614.66" font-family="Times,serif" font-size="14.00">get&#45;files&#45;from&#45;directory v(1.0.0)</text>
</g>
<!-- tso500_outputs_by_sample&#45;&gt;get_vcf_files_intermediate_step -->
<g id="edge35" class="edge">
<title>tso500_outputs_by_sample&#45;&gt;get_vcf_files_intermediate_step</title>
<path fill="none" stroke="black" d="M1730.93,-2949.62C1694.68,-2892.73 1595.12,-2714.53 1561.2,-2646.3"/>
<polygon fill="black" stroke="black" points="1564.22,-2644.51 1556.68,-2637.06 1557.93,-2647.58 1564.22,-2644.51"/>
</g>
<!-- tso500_outputs_by_sample&#45;&gt;get_vcf_files_intermediate_step -->
<g id="edge36" class="edge">
<title>tso500_outputs_by_sample&#45;&gt;get_vcf_files_intermediate_step</title>
<path fill="none" stroke="black" d="M1737.3,-2949.62C1710.05,-2892.61 1610.57,-2713.79 1568.58,-2645.88"/>
<polygon fill="black" stroke="black" points="1571.33,-2643.67 1563.05,-2637.06 1565.4,-2647.39 1571.33,-2643.67"/>
</g>
<!-- make_exon_coverage_qc_step -->
<g id="node12" class="node">
<title>make_exon_coverage_qc_step</title>
<polygon fill="lightgoldenrodyellow" stroke="black" points="0,-1926.86 0,-1963.86 352,-1963.86 352,-1926.86 0,-1926.86"/>
<text text-anchor="middle" x="176" y="-1941.66" font-family="Times,serif" font-size="14.00">custom&#45;tso500&#45;make&#45;exon&#45;coverage&#45;qc v(1.0.0)</text>
</g>
<!-- tso500_outputs_by_sample&#45;&gt;make_exon_coverage_qc_step -->
<g id="edge37" class="edge">
<title>tso500_outputs_by_sample&#45;&gt;make_exon_coverage_qc_step</title>
<path fill="none" stroke="black" d="M1708.52,-2949.86C1686.38,-2939.5 1657.04,-2926.8 1630,-2918.36 1027.95,-2730.38 674.55,-3093.53 239,-2637.36 56.83,-2446.57 140.22,-2076.58 168.14,-1973.56"/>
<polygon fill="black" stroke="black" points="171.52,-1974.48 170.81,-1963.91 164.77,-1972.62 171.52,-1974.48"/>
</g>
<!-- create_custom_output_entry_list_array_step -->
<g id="node14" class="node">
<title>create_custom_output_entry_list_array_step</title>
<polygon fill="lightgoldenrodyellow" stroke="black" points="1509,-917.86 1509,-954.86 1979,-954.86 1979,-917.86 1509,-917.86"/>
<text text-anchor="middle" x="1744" y="-932.66" font-family="Times,serif" font-size="14.00">get&#45;custom&#45;output&#45;dir&#45;entry&#45;for&#45;tso500&#45;post&#45;processing v(2.0.1)</text>
</g>
<!-- tso500_outputs_by_sample&#45;&gt;create_custom_output_entry_list_array_step -->
<g id="edge45" class="edge">
<title>tso500_outputs_by_sample&#45;&gt;create_custom_output_entry_list_array_step</title>
<path fill="none" stroke="black" d="M1728.84,-2949.63C1699,-2871.24 1699,-2547.86 1699,-2282.36 1699,-2282.36 1699,-2282.36 1699,-1608.36 1699,-1358.22 1699,-1055.63 1725.55,-964.56"/>
<polygon fill="black" stroke="black" points="1728.9,-965.58 1728.74,-954.99 1722.26,-963.37 1728.9,-965.58"/>
</g>
<!-- tso500_outputs_by_sample&#45;&gt;create_custom_output_entry_list_array_step -->
<g id="edge46" class="edge">
<title>tso500_outputs_by_sample&#45;&gt;create_custom_output_entry_list_array_step</title>
<path fill="none" stroke="black" d="M1734.91,-2949.63C1717,-2871.24 1717,-2547.86 1717,-2282.36 1717,-2282.36 1717,-2282.36 1717,-1608.36 1717,-1358.47 1717,-1056.24 1732.88,-964.84"/>
<polygon fill="black" stroke="black" points="1736.33,-965.48 1734.85,-954.99 1729.46,-964.11 1736.33,-965.48"/>
</g>
<!-- tso500_outputs_by_sample&#45;&gt;create_custom_output_entry_list_array_step -->
<g id="edge47" class="edge">
<title>tso500_outputs_by_sample&#45;&gt;create_custom_output_entry_list_array_step</title>
<path fill="none" stroke="black" d="M1740.97,-2949.63C1735,-2871.24 1735,-2547.86 1735,-2282.36 1735,-2282.36 1735,-2282.36 1735,-1608.36 1735,-1358.73 1735,-1056.86 1740.28,-965.11"/>
<polygon fill="black" stroke="black" points="1743.78,-965.19 1740.95,-954.99 1736.8,-964.73 1743.78,-965.19"/>
</g>
<!-- tso500_outputs_by_sample&#45;&gt;create_custom_output_entry_list_array_step -->
<g id="edge48" class="edge">
<title>tso500_outputs_by_sample&#45;&gt;create_custom_output_entry_list_array_step</title>
<path fill="none" stroke="black" d="M1747.03,-2949.63C1753,-2871.24 1753,-2547.86 1753,-2282.36 1753,-2282.36 1753,-2282.36 1753,-1608.36 1753,-1358.73 1753,-1056.86 1747.72,-965.11"/>
<polygon fill="black" stroke="black" points="1751.2,-964.73 1747.05,-954.99 1744.22,-965.19 1751.2,-964.73"/>
</g>
<!-- tso500_outputs_by_sample&#45;&gt;create_custom_output_entry_list_array_step -->
<g id="edge49" class="edge">
<title>tso500_outputs_by_sample&#45;&gt;create_custom_output_entry_list_array_step</title>
<path fill="none" stroke="black" d="M1753.09,-2949.63C1771,-2871.24 1771,-2547.86 1771,-2282.36 1771,-2282.36 1771,-2282.36 1771,-1608.36 1771,-1358.47 1771,-1056.24 1755.12,-964.84"/>
<polygon fill="black" stroke="black" points="1758.54,-964.11 1753.15,-954.99 1751.67,-965.48 1758.54,-964.11"/>
</g>
<!-- tso500_outputs_by_sample&#45;&gt;create_custom_output_entry_list_array_step -->
<g id="edge50" class="edge">
<title>tso500_outputs_by_sample&#45;&gt;create_custom_output_entry_list_array_step</title>
<path fill="none" stroke="black" d="M1759.16,-2949.63C1789,-2871.24 1789,-2547.86 1789,-2282.36 1789,-2282.36 1789,-2282.36 1789,-1608.36 1789,-1358.22 1789,-1055.63 1762.45,-964.56"/>
<polygon fill="black" stroke="black" points="1765.74,-963.37 1759.26,-954.99 1759.1,-965.58 1765.74,-963.37"/>
</g>
<!-- gather_compressed_metric_json_files_into_tar_step -->
<g id="node15" class="node">
<title>gather_compressed_metric_json_files_into_tar_step</title>
<polygon fill="lightgoldenrodyellow" stroke="black" points="1089,-1253.86 1089,-1290.86 1295,-1290.86 1295,-1253.86 1089,-1253.86"/>
<text text-anchor="middle" x="1192" y="-1268.66" font-family="Times,serif" font-size="14.00">custom&#45;tar&#45;file&#45;list v(1.0.0)</text>
</g>
<!-- tso500_outputs_by_sample&#45;&gt;gather_compressed_metric_json_files_into_tar_step -->
<g id="edge52" class="edge">
<title>tso500_outputs_by_sample&#45;&gt;gather_compressed_metric_json_files_into_tar_step</title>
<path fill="none" stroke="black" d="M1706.17,-2949.82C1577.59,-2889.82 1163.53,-2693.45 1130,-2637.36 976.21,-2380.1 1158.75,-2263.74 1173,-1964.36 1185.26,-1706.64 1190.33,-1394.45 1191.64,-1301.04"/>
<polygon fill="black" stroke="black" points="1195.14,-1301.04 1191.78,-1290.99 1188.14,-1300.94 1195.14,-1301.04"/>
</g>
<!-- get_fusion_csv_intermediate_step -->
<g id="node16" class="node">
<title>get_fusion_csv_intermediate_step</title>
<polygon fill="lightgoldenrodyellow" stroke="black" points="1139.5,-2599.86 1139.5,-2636.86 1372.5,-2636.86 1372.5,-2599.86 1139.5,-2599.86"/>
<text text-anchor="middle" x="1256" y="-2614.66" font-family="Times,serif" font-size="14.00">get&#45;file&#45;from&#45;directory v(1.0.0)</text>
</g>
<!-- tso500_outputs_by_sample&#45;&gt;get_fusion_csv_intermediate_step -->
<g id="edge38" class="edge">
<title>tso500_outputs_by_sample&#45;&gt;get_fusion_csv_intermediate_step</title>
<path fill="none" stroke="black" d="M1715.94,-2949.62C1630.33,-2891.85 1373.8,-2709.02 1285.85,-2643.23"/>
<polygon fill="black" stroke="black" points="1287.73,-2640.27 1277.64,-2637.06 1283.53,-2645.87 1287.73,-2640.27"/>
</g>
<!-- tso500_outputs_by_sample&#45;&gt;get_fusion_csv_intermediate_step -->
<g id="edge39" class="edge">
<title>tso500_outputs_by_sample&#45;&gt;get_fusion_csv_intermediate_step</title>
<path fill="none" stroke="black" d="M1722.32,-2949.62C1645.75,-2891.74 1388.63,-2708.28 1292.52,-2642.84"/>
<polygon fill="black" stroke="black" points="1294.25,-2639.78 1284,-2637.06 1290.32,-2645.57 1294.25,-2639.78"/>
</g>
<!-- make_per_coverage_threshold_qc_step -->
<g id="node17" class="node">
<title>make_per_coverage_threshold_qc_step</title>
<polygon fill="lightgoldenrodyellow" stroke="black" points="528,-1926.86 528,-1963.86 892,-1963.86 892,-1926.86 528,-1926.86"/>
<text text-anchor="middle" x="710" y="-1941.66" font-family="Times,serif" font-size="14.00">custom&#45;tso500&#45;make&#45;region&#45;coverage&#45;qc v(1.0.0)</text>
</g>
<!-- tso500_outputs_by_sample&#45;&gt;make_per_coverage_threshold_qc_step -->
<g id="edge40" class="edge">
<title>tso500_outputs_by_sample&#45;&gt;make_per_coverage_threshold_qc_step</title>
<path fill="none" stroke="black" d="M1706.79,-2949.77C1684.77,-2939.77 1656.15,-2927.46 1630,-2918.36 1177.38,-2760.9 880.38,-3017.83 589,-2637.36 426.89,-2425.69 630.52,-2070.73 692.91,-1972.33"/>
<polygon fill="black" stroke="black" points="695.88,-1974.19 698.33,-1963.88 689.99,-1970.41 695.88,-1974.19"/>
</g>
<!-- get_tmb_trace_tsv_intermediate_step -->
<g id="node18" class="node">
<title>get_tmb_trace_tsv_intermediate_step</title>
<polygon fill="lightgoldenrodyellow" stroke="black" points="849.5,-2599.86 849.5,-2636.86 1082.5,-2636.86 1082.5,-2599.86 849.5,-2599.86"/>
<text text-anchor="middle" x="966" y="-2614.66" font-family="Times,serif" font-size="14.00">get&#45;file&#45;from&#45;directory v(1.0.0)</text>
</g>
<!-- tso500_outputs_by_sample&#45;&gt;get_tmb_trace_tsv_intermediate_step -->
<g id="edge41" class="edge">
<title>tso500_outputs_by_sample&#45;&gt;get_tmb_trace_tsv_intermediate_step</title>
<path fill="none" stroke="black" d="M1701.44,-2949.74C1566.49,-2891.46 1149.46,-2704.97 1011.07,-2641.08"/>
<polygon fill="black" stroke="black" points="1012.53,-2637.9 1001.98,-2636.87 1009.59,-2644.25 1012.53,-2637.9"/>
</g>
<!-- tso500_outputs_by_sample&#45;&gt;get_tmb_trace_tsv_intermediate_step -->
<g id="edge42" class="edge">
<title>tso500_outputs_by_sample&#45;&gt;get_tmb_trace_tsv_intermediate_step</title>
<path fill="none" stroke="black" d="M1707.8,-2949.74C1582.03,-2891.41 1164.51,-2704.6 1017.6,-2640.89"/>
<polygon fill="black" stroke="black" points="1018.89,-2637.63 1008.32,-2636.87 1016.11,-2644.06 1018.89,-2637.63"/>
</g>
<!-- get_fragment_length_hist_csv_intermediate_step -->
<g id="node21" class="node">
<title>get_fragment_length_hist_csv_intermediate_step</title>
<polygon fill="lightgoldenrodyellow" stroke="black" points="598.5,-2599.86 598.5,-2636.86 831.5,-2636.86 831.5,-2599.86 598.5,-2599.86"/>
<text text-anchor="middle" x="715" y="-2614.66" font-family="Times,serif" font-size="14.00">get&#45;file&#45;from&#45;directory v(1.0.0)</text>
</g>
<!-- tso500_outputs_by_sample&#45;&gt;get_fragment_length_hist_csv_intermediate_step -->
<g id="edge43" class="edge">
<title>tso500_outputs_by_sample&#45;&gt;get_fragment_length_hist_csv_intermediate_step</title>
<path fill="none" stroke="black" d="M1697.66,-2949.82C1674.63,-2940.06 1646.5,-2927.98 1621,-2918.36 1310.35,-2801.11 930.75,-2685.76 780.55,-2639.98"/>
<polygon fill="black" stroke="black" points="781.15,-2636.5 770.56,-2636.94 779.11,-2643.2 781.15,-2636.5"/>
</g>
<!-- tso500_outputs_by_sample&#45;&gt;get_fragment_length_hist_csv_intermediate_step -->
<g id="edge44" class="edge">
<title>tso500_outputs_by_sample&#45;&gt;get_fragment_length_hist_csv_intermediate_step</title>
<path fill="none" stroke="black" d="M1713.24,-2949.7C1692.41,-2939.97 1664.39,-2927.95 1639,-2918.36 1327.73,-2800.88 947.23,-2685.3 789.19,-2639.71"/>
<polygon fill="black" stroke="black" points="790.13,-2636.34 779.56,-2636.94 788.2,-2643.06 790.13,-2636.34"/>
</g>
<!-- create_output_directory -->
<g id="node22" class="node">
<title>create_output_directory</title>
<polygon fill="lightgoldenrodyellow" stroke="black" points="2161.5,-581.86 2161.5,-618.86 2408.5,-618.86 2408.5,-581.86 2161.5,-581.86"/>
<text text-anchor="middle" x="2285" y="-596.66" font-family="Times,serif" font-size="14.00">custom&#45;create&#45;directory v(2.0.1)</text>
</g>
<!-- tso500_outputs_by_sample&#45;&gt;create_output_directory -->
<g id="edge59" class="edge">
<title>tso500_outputs_by_sample&#45;&gt;create_output_directory</title>
<path fill="none" stroke="black" d="M1846.38,-2949.85C2085.87,-2906.7 2671.55,-2787.75 2793,-2637.36 2892.56,-2514.08 2826,-2440.82 2826,-2282.36 2826,-2282.36 2826,-2282.36 2826,-1271.36 2826,-952.3 2450.04,-699.59 2324.94,-624.33"/>
<polygon fill="black" stroke="black" points="2326.41,-621.13 2316.03,-619.02 2322.83,-627.14 2326.41,-621.13"/>
</g>
<!-- gather_compressed_vcf_files_into_tar_step -->
<g id="node23" class="node">
<title>gather_compressed_vcf_files_into_tar_step</title>
<polygon fill="lightgoldenrodyellow" stroke="black" points="1434.5,-1590.86 1434.5,-1627.86 1665.5,-1627.86 1665.5,-1590.86 1434.5,-1590.86"/>
<text text-anchor="middle" x="1550" y="-1605.66" font-family="Times,serif" font-size="14.00">custom&#45;tar&#45;vcf&#45;file&#45;list v(1.0.0)</text>
</g>
<!-- tso500_outputs_by_sample&#45;&gt;gather_compressed_vcf_files_into_tar_step -->
<g id="edge51" class="edge">
<title>tso500_outputs_by_sample&#45;&gt;gather_compressed_vcf_files_into_tar_step</title>
<path fill="none" stroke="black" d="M1715.03,-2949.54C1647.62,-2906.16 1481.38,-2787.48 1420,-2637.36 1267.85,-2265.21 1480.89,-1759.21 1537.06,-1637.49"/>
<polygon fill="black" stroke="black" points="1540.36,-1638.69 1541.41,-1628.15 1534.01,-1635.74 1540.36,-1638.69"/>
</g>
<!-- run_dragen_multiqc_on_align_collapse_fusion_caller_dir_step -->
<g id="node24" class="node">
<title>run_dragen_multiqc_on_align_collapse_fusion_caller_dir_step</title>
<polygon fill="lightgoldenrodyellow" stroke="black" points="2854.5,-2599.86 2854.5,-2636.86 2993.5,-2636.86 2993.5,-2599.86 2854.5,-2599.86"/>
<text text-anchor="middle" x="2924" y="-2614.66" font-family="Times,serif" font-size="14.00">multiqc v(1.12.0)</text>
</g>
<!-- tso500_outputs_by_sample&#45;&gt;run_dragen_multiqc_on_align_collapse_fusion_caller_dir_step -->
<g id="edge53" class="edge">
<title>tso500_outputs_by_sample&#45;&gt;run_dragen_multiqc_on_align_collapse_fusion_caller_dir_step</title>
<path fill="none" stroke="black" d="M1794.2,-2949.74C1979.31,-2891 2620.02,-2701.98 2845.34,-2639.57"/>
<polygon fill="black" stroke="black" points="2846.41,-2642.91 2855.11,-2636.87 2844.54,-2636.16 2846.41,-2642.91"/>
</g>
<!-- tso500_outputs_by_sample&#45;&gt;run_dragen_multiqc_on_align_collapse_fusion_caller_dir_step -->
<g id="edge54" class="edge">
<title>tso500_outputs_by_sample&#45;&gt;run_dragen_multiqc_on_align_collapse_fusion_caller_dir_step</title>
<path fill="none" stroke="black" d="M1800.55,-2949.74C1994.96,-2891.03 2635.26,-2702.17 2851.77,-2639.66"/>
<polygon fill="black" stroke="black" points="2852.81,-2643.01 2861.45,-2636.87 2850.87,-2636.28 2852.81,-2643.01"/>
</g>
<!-- tso500_outputs_by_sample&#45;&gt;run_dragen_multiqc_on_align_collapse_fusion_caller_dir_step -->
<g id="edge55" class="edge">
<title>tso500_outputs_by_sample&#45;&gt;run_dragen_multiqc_on_align_collapse_fusion_caller_dir_step</title>
<path fill="none" stroke="black" d="M1806.91,-2949.74C2010.5,-2891.09 2649.87,-2702.55 2857.92,-2639.85"/>
<polygon fill="black" stroke="black" points="2859.23,-2643.11 2867.79,-2636.87 2857.2,-2636.41 2859.23,-2643.11"/>
</g>
<!-- tso500_outputs_by_sample&#45;&gt;run_dragen_multiqc_on_align_collapse_fusion_caller_dir_step -->
<g id="edge56" class="edge">
<title>tso500_outputs_by_sample&#45;&gt;run_dragen_multiqc_on_align_collapse_fusion_caller_dir_step</title>
<path fill="none" stroke="black" d="M1813.26,-2949.74C2026.13,-2891.11 2665.12,-2702.73 2864.41,-2639.94"/>
<polygon fill="black" stroke="black" points="2865.65,-2643.22 2874.13,-2636.87 2863.54,-2636.55 2865.65,-2643.22"/>
</g>
<!-- dragen_metrics_to_json_step -->
<g id="node25" class="node">
<title>dragen_metrics_to_json_step</title>
<polygon fill="lightgoldenrodyellow" stroke="black" points="1817,-2262.86 1817,-2299.86 2331,-2299.86 2331,-2262.86 1817,-2262.86"/>
<text text-anchor="middle" x="2074" y="-2277.66" font-family="Times,serif" font-size="14.00">custom&#45;tso500&#45;align&#45;collapse&#45;fusion&#45;caller&#45;csv&#45;metrics&#45;to&#45;json v(1.0.0)</text>
</g>
<!-- tso500_outputs_by_sample&#45;&gt;dragen_metrics_to_json_step -->
<g id="edge58" class="edge">
<title>tso500_outputs_by_sample&#45;&gt;dragen_metrics_to_json_step</title>
<path fill="none" stroke="black" d="M1772.2,-2949.76C1838.65,-2906.41 2004.2,-2787.06 2067,-2637.36 2114.58,-2523.94 2092.25,-2371.68 2080.08,-2310.01"/>
<polygon fill="black" stroke="black" points="2083.44,-2309.01 2078.01,-2299.91 2076.58,-2310.41 2083.44,-2309.01"/>
</g>
<!-- get_align_collapse_fusion_caller_metrics_csv_files_intermediate_step -->
<g id="node26" class="node">
<title>get_align_collapse_fusion_caller_metrics_csv_files_intermediate_step</title>
<polygon fill="lightgoldenrodyellow" stroke="black" points="1817.5,-2599.86 1817.5,-2636.86 2058.5,-2636.86 2058.5,-2599.86 1817.5,-2599.86"/>
<text text-anchor="middle" x="1938" y="-2614.66" font-family="Times,serif" font-size="14.00">get&#45;files&#45;from&#45;directory v(1.0.0)</text>
</g>
<!-- tso500_outputs_by_sample&#45;&gt;get_align_collapse_fusion_caller_metrics_csv_files_intermediate_step -->
<g id="edge60" class="edge">
<title>tso500_outputs_by_sample&#45;&gt;get_align_collapse_fusion_caller_metrics_csv_files_intermediate_step</title>
<path fill="none" stroke="black" d="M1750.7,-2949.62C1777.95,-2892.61 1877.43,-2713.79 1919.42,-2645.88"/>
<polygon fill="black" stroke="black" points="1922.6,-2647.39 1924.95,-2637.06 1916.67,-2643.67 1922.6,-2647.39"/>
</g>
<!-- tso500_outputs_by_sample&#45;&gt;get_align_collapse_fusion_caller_metrics_csv_files_intermediate_step -->
<g id="edge61" class="edge">
<title>tso500_outputs_by_sample&#45;&gt;get_align_collapse_fusion_caller_metrics_csv_files_intermediate_step</title>
<path fill="none" stroke="black" d="M1757.07,-2949.62C1793.32,-2892.73 1892.88,-2714.53 1926.8,-2646.3"/>
<polygon fill="black" stroke="black" points="1930.07,-2647.58 1931.32,-2637.06 1923.78,-2644.51 1930.07,-2647.58"/>
</g>
<!-- mosdepth_step -->
<g id="node27" class="node">
<title>mosdepth_step</title>
<polygon fill="lightgoldenrodyellow" stroke="black" points="196,-2262.86 196,-2299.86 342,-2299.86 342,-2262.86 196,-2262.86"/>
<text text-anchor="middle" x="269" y="-2277.66" font-family="Times,serif" font-size="14.00">mosdepth v(0.3.1)</text>
</g>
<!-- tso500_outputs_by_sample&#45;&gt;mosdepth_step -->
<g id="edge62" class="edge">
<title>tso500_outputs_by_sample&#45;&gt;mosdepth_step</title>
<path fill="none" stroke="black" d="M1708.26,-2949.77C1686.14,-2939.45 1656.92,-2926.82 1630,-2918.36 1038.25,-2732.49 654.96,-3118.08 263,-2637.36 184.06,-2540.54 233.86,-2374.54 258.05,-2309.57"/>
<polygon fill="black" stroke="black" points="261.39,-2310.62 261.68,-2300.03 254.85,-2308.13 261.39,-2310.62"/>
</g>
<!-- get_raw_bam_file_intermediate_step -->
<g id="node28" class="node">
<title>get_raw_bam_file_intermediate_step</title>
<polygon fill="lightgoldenrodyellow" stroke="black" points="272.5,-2599.86 272.5,-2636.86 541.5,-2636.86 541.5,-2599.86 272.5,-2599.86"/>
<text text-anchor="middle" x="407" y="-2614.66" font-family="Times,serif" font-size="14.00">get&#45;bam&#45;file&#45;from&#45;directory v(1.0.0)</text>
</g>
<!-- tso500_outputs_by_sample&#45;&gt;get_raw_bam_file_intermediate_step -->
<g id="edge63" class="edge">
<title>tso500_outputs_by_sample&#45;&gt;get_raw_bam_file_intermediate_step</title>
<path fill="none" stroke="black" d="M1699.55,-2949.77C1676.32,-2939.65 1647.46,-2927.21 1621,-2918.36 1215.91,-2782.83 716.6,-2679.98 506.98,-2638.9"/>
<polygon fill="black" stroke="black" points="507.41,-2635.41 496.92,-2636.93 506.06,-2642.28 507.41,-2635.41"/>
</g>
<!-- tso500_outputs_by_sample&#45;&gt;get_raw_bam_file_intermediate_step -->
<g id="edge64" class="edge">
<title>tso500_outputs_by_sample&#45;&gt;get_raw_bam_file_intermediate_step</title>
<path fill="none" stroke="black" d="M1714.97,-2949.66C1694.1,-2939.55 1665.35,-2927.18 1639,-2918.36 1233.71,-2782.76 734.1,-2679.88 516.65,-2638.83"/>
<polygon fill="black" stroke="black" points="516.99,-2635.34 506.51,-2636.93 515.69,-2642.22 516.99,-2635.34"/>
</g>
<!-- tso_manifest_bed -->
<g id="node2" class="node">
<title>tso_manifest_bed</title>
<polygon fill="#94ddf4" stroke="black" points="1481,-2949.86 1481,-2986.86 1621,-2986.86 1621,-2949.86 1481,-2949.86"/>
<text text-anchor="middle" x="1551" y="-2964.66" font-family="Times,serif" font-size="14.00">tso_manifest_bed</text>
</g>
<!-- tso_manifest_bed&#45;&gt;mosdepth_step -->
<g id="edge65" class="edge">
<title>tso_manifest_bed&#45;&gt;mosdepth_step</title>
<path fill="none" stroke="black" d="M1480.66,-2960.92C1230.17,-2936.4 388.13,-2839.86 230,-2637.36 152.68,-2538.36 222.17,-2373.71 254.52,-2309.33"/>
<polygon fill="black" stroke="black" points="257.74,-2310.73 259.19,-2300.23 251.51,-2307.54 257.74,-2310.73"/>
</g>
<!-- post_processing_output_directory -->
<g id="node3" class="node">
<title>post_processing_output_directory</title>
<polygon fill="#94ddf4" stroke="black" points="2156.5,-244.86 2156.5,-281.86 2413.5,-281.86 2413.5,-244.86 2156.5,-244.86"/>
<text text-anchor="middle" x="2285" y="-259.66" font-family="Times,serif" font-size="14.00">post_processing_output_directory</text>
</g>
<!-- compress_reporting_jsons_with_gzip_step -->
<g id="node5" class="node">
<title>compress_reporting_jsons_with_gzip_step</title>
<polygon fill="lightgoldenrodyellow" stroke="black" points="2349,-2262.86 2349,-2299.86 2537,-2299.86 2537,-2262.86 2349,-2262.86"/>
<text text-anchor="middle" x="2443" y="-2277.66" font-family="Times,serif" font-size="14.00">custom&#45;gzip&#45;file v(1.0.0)</text>
</g>
<!-- get_sample_analysis_results_intermediate_step&#45;&gt;compress_reporting_jsons_with_gzip_step -->
<g id="edge1" class="edge">
<title>get_sample_analysis_results_intermediate_step&#45;&gt;compress_reporting_jsons_with_gzip_step</title>
<path fill="none" stroke="black" d="M2199.46,-2599.82C2241.86,-2544.55 2372.86,-2373.79 2423.1,-2308.29"/>
<polygon fill="black" stroke="black" points="2426.06,-2310.19 2429.37,-2300.13 2420.5,-2305.93 2426.06,-2310.19"/>
</g>
<!-- compress_reporting_jsons_with_gzip_step&#45;&gt;gather_compressed_reporting_json_files_into_tar_step -->
<g id="edge2" class="edge">
<title>compress_reporting_jsons_with_gzip_step&#45;&gt;gather_compressed_reporting_json_files_into_tar_step</title>
<path fill="none" stroke="black" d="M2443,-2262.4C2443,-2207.34 2443,-2040.59 2443,-1974.13"/>
<polygon fill="black" stroke="black" points="2446.5,-1974 2443,-1964 2439.5,-1974 2446.5,-1974"/>
</g>
<!-- gather_compressed_reporting_json_files_into_tar_step&#45;&gt;create_custom_output_entry_list_array_step -->
<g id="edge21" class="edge">
<title>gather_compressed_reporting_json_files_into_tar_step&#45;&gt;create_custom_output_entry_list_array_step</title>
<path fill="none" stroke="black" d="M2430.85,-1926.72C2376.6,-1848.01 2151.16,-1521.01 1965,-1253.36 1890.04,-1145.59 1800.26,-1017.52 1762.33,-963.48"/>
<polygon fill="black" stroke="black" points="1765.1,-961.33 1756.49,-955.16 1759.37,-965.35 1765.1,-961.33"/>
</g>
<!-- get_tmb_json_intermediate_step&#45;&gt;compress_reporting_jsons_with_gzip_step -->
<g id="edge3" class="edge">
<title>get_tmb_json_intermediate_step&#45;&gt;compress_reporting_jsons_with_gzip_step</title>
<path fill="none" stroke="black" d="M2394.67,-2599.82C2403,-2545.11 2428.55,-2377.26 2438.74,-2310.33"/>
<polygon fill="black" stroke="black" points="2442.25,-2310.54 2440.29,-2300.13 2435.33,-2309.49 2442.25,-2310.54"/>
</g>
<!-- get_msi_json_intermediate_step&#45;&gt;compress_reporting_jsons_with_gzip_step -->
<g id="edge4" class="edge">
<title>get_msi_json_intermediate_step&#45;&gt;compress_reporting_jsons_with_gzip_step</title>
<path fill="none" stroke="black" d="M2632.53,-2599.82C2599.66,-2544.77 2498.41,-2375.18 2458.97,-2309.1"/>
<polygon fill="black" stroke="black" points="2461.74,-2306.92 2453.61,-2300.13 2455.73,-2310.51 2461.74,-2306.92"/>
</g>
<!-- compress_vcf_files_step -->
<g id="node10" class="node">
<title>compress_vcf_files_step</title>
<polygon fill="lightgoldenrodyellow" stroke="black" points="1488,-2262.86 1488,-2299.86 1612,-2299.86 1612,-2262.86 1488,-2262.86"/>
<text text-anchor="middle" x="1550" y="-2277.66" font-family="Times,serif" font-size="14.00">bgzip v(1.12.0)</text>
</g>
<!-- get_vcf_files_intermediate_step&#45;&gt;compress_vcf_files_step -->
<g id="edge5" class="edge">
<title>get_vcf_files_intermediate_step&#45;&gt;compress_vcf_files_step</title>
<path fill="none" stroke="black" d="M1550,-2599.82C1550,-2545.11 1550,-2377.26 1550,-2310.33"/>
<polygon fill="black" stroke="black" points="1553.5,-2310.13 1550,-2300.13 1546.5,-2310.13 1553.5,-2310.13"/>
</g>
<!-- index_vcf_files_step -->
<g id="node11" class="node">
<title>index_vcf_files_step</title>
<polygon fill="lightgoldenrodyellow" stroke="black" points="1494,-1926.86 1494,-1963.86 1606,-1963.86 1606,-1926.86 1494,-1926.86"/>
<text text-anchor="middle" x="1550" y="-1941.66" font-family="Times,serif" font-size="14.00">tabix v(0.2.6)</text>
</g>
<!-- compress_vcf_files_step&#45;&gt;index_vcf_files_step -->
<g id="edge6" class="edge">
<title>compress_vcf_files_step&#45;&gt;index_vcf_files_step</title>
<path fill="none" stroke="black" d="M1550,-2262.4C1550,-2207.34 1550,-2040.59 1550,-1974.13"/>
<polygon fill="black" stroke="black" points="1553.5,-1974 1550,-1964 1546.5,-1974 1553.5,-1974"/>
</g>
<!-- index_vcf_files_step&#45;&gt;gather_compressed_vcf_files_into_tar_step -->
<g id="edge25" class="edge">
<title>index_vcf_files_step&#45;&gt;gather_compressed_vcf_files_into_tar_step</title>
<path fill="none" stroke="black" d="M1550,-1926.4C1550,-1871.34 1550,-1704.59 1550,-1638.13"/>
<polygon fill="black" stroke="black" points="1553.5,-1638 1550,-1628 1546.5,-1638 1553.5,-1638"/>
</g>
<!-- convert_metric_csvs_into_json_gzip_step -->
<g id="node13" class="node">
<title>convert_metric_csvs_into_json_gzip_step</title>
<polygon fill="lightgoldenrodyellow" stroke="black" points="836,-1590.86 836,-1627.86 1042,-1627.86 1042,-1590.86 836,-1590.86"/>
<text text-anchor="middle" x="939" y="-1605.66" font-family="Times,serif" font-size="14.00">custom&#45;tsv&#45;to&#45;json v(1.0.0)</text>
</g>
<!-- make_exon_coverage_qc_step&#45;&gt;convert_metric_csvs_into_json_gzip_step -->
<g id="edge7" class="edge">
<title>make_exon_coverage_qc_step&#45;&gt;convert_metric_csvs_into_json_gzip_step</title>
<path fill="none" stroke="black" d="M216.22,-1926.76C345.11,-1870.33 747.76,-1694.08 889.24,-1632.14"/>
<polygon fill="black" stroke="black" points="890.81,-1635.27 898.57,-1628.06 888.01,-1628.86 890.81,-1635.27"/>
</g>
<!-- make_exon_coverage_qc_step&#45;&gt;create_custom_output_entry_list_array_step -->
<g id="edge8" class="edge">
<title>make_exon_coverage_qc_step&#45;&gt;create_custom_output_entry_list_array_step</title>
<path fill="none" stroke="black" d="M195.87,-1926.61C289.82,-1843.26 700.71,-1485.08 1080,-1253.36 1295.11,-1121.94 1573.4,-1005.26 1689.44,-958.77"/>
<polygon fill="black" stroke="black" points="1690.85,-961.97 1698.84,-955.01 1688.26,-955.47 1690.85,-961.97"/>
</g>
<!-- convert_metric_csvs_into_json_gzip_step&#45;&gt;gather_compressed_metric_json_files_into_tar_step -->
<g id="edge9" class="edge">
<title>convert_metric_csvs_into_json_gzip_step&#45;&gt;gather_compressed_metric_json_files_into_tar_step</title>
<path fill="none" stroke="black" d="M952.25,-1590.82C993.99,-1535.55 1122.95,-1364.79 1172.41,-1299.29"/>
<polygon fill="black" stroke="black" points="1175.35,-1301.22 1178.58,-1291.13 1169.76,-1297 1175.35,-1301.22"/>
</g>
<!-- create_custom_output_entry_list_array_step&#45;&gt;create_output_directory -->
<g id="edge17" class="edge">
<title>create_custom_output_entry_list_array_step&#45;&gt;create_output_directory</title>
<path fill="none" stroke="black" d="M1772.7,-917.64C1863.67,-861.48 2145.56,-687.45 2247.63,-624.43"/>
<polygon fill="black" stroke="black" points="2249.69,-627.27 2256.36,-619.04 2246.02,-621.31 2249.69,-627.27"/>
</g>
<!-- gather_compressed_metric_json_files_into_tar_step&#45;&gt;create_custom_output_entry_list_array_step -->
<g id="edge19" class="edge">
<title>gather_compressed_metric_json_files_into_tar_step&#45;&gt;create_custom_output_entry_list_array_step</title>
<path fill="none" stroke="black" d="M1221.29,-1253.64C1314.2,-1197.42 1602.31,-1023.1 1706.18,-960.25"/>
<polygon fill="black" stroke="black" points="1708.04,-963.21 1714.78,-955.04 1704.41,-957.22 1708.04,-963.21"/>
</g>
<!-- get_fusion_csv_intermediate_step&#45;&gt;convert_metric_csvs_into_json_gzip_step -->
<g id="edge10" class="edge">
<title>get_fusion_csv_intermediate_step&#45;&gt;convert_metric_csvs_into_json_gzip_step</title>
<path fill="none" stroke="black" d="M1248.44,-2599.75C1216.39,-2524.54 1089.87,-2222.29 1015,-1964.36 980.27,-1844.73 953.77,-1698.19 943.57,-1638.08"/>
<polygon fill="black" stroke="black" points="946.96,-1637.17 941.85,-1627.89 940.06,-1638.33 946.96,-1637.17"/>
</g>
<!-- get_fusion_csv_intermediate_step&#45;&gt;create_custom_output_entry_list_array_step -->
<g id="edge11" class="edge">
<title>get_fusion_csv_intermediate_step&#45;&gt;create_custom_output_entry_list_array_step</title>
<path fill="none" stroke="black" d="M1259.96,-2599.84C1276.98,-2523.05 1343,-2208.31 1343,-1946.36 1343,-1946.36 1343,-1946.36 1343,-1608.36 1343,-1317.56 1623.96,-1043.45 1715.52,-961.84"/>
<polygon fill="black" stroke="black" points="1718.11,-964.23 1723.28,-954.98 1713.47,-958.98 1718.11,-964.23"/>
</g>
<!-- make_per_coverage_threshold_qc_step&#45;&gt;convert_metric_csvs_into_json_gzip_step -->
<g id="edge12" class="edge">
<title>make_per_coverage_threshold_qc_step&#45;&gt;convert_metric_csvs_into_json_gzip_step</title>
<path fill="none" stroke="black" d="M722.31,-1926.4C760.38,-1870.89 876.29,-1701.83 921.07,-1636.51"/>
<polygon fill="black" stroke="black" points="924.14,-1638.23 926.91,-1628 918.36,-1634.27 924.14,-1638.23"/>
</g>
<!-- get_tmb_trace_tsv_intermediate_step&#45;&gt;convert_metric_csvs_into_json_gzip_step -->
<g id="edge13" class="edge">
<title>get_tmb_trace_tsv_intermediate_step&#45;&gt;convert_metric_csvs_into_json_gzip_step</title>
<path fill="none" stroke="black" d="M965.52,-2599.45C962.29,-2478.85 943.69,-1785.35 939.74,-1637.91"/>
<polygon fill="black" stroke="black" points="943.24,-1637.79 939.47,-1627.89 936.24,-1637.98 943.24,-1637.79"/>
</g>
<!-- get_zero_val_for_skip_rows_parameter -->
<g id="node19" class="node">
<title>get_zero_val_for_skip_rows_parameter</title>
<polygon fill="lightgoldenrodyellow" stroke="black" points="1024,-1926.86 1024,-1963.86 1164,-1963.86 1164,-1926.86 1024,-1926.86"/>
<text text-anchor="middle" x="1094" y="-1941.66" font-family="Times,serif" font-size="14.00">parse&#45;int v(1.0.0)</text>
</g>
<!-- get_zero_val_for_skip_rows_parameter&#45;&gt;convert_metric_csvs_into_json_gzip_step -->
<g id="edge14" class="edge">
<title>get_zero_val_for_skip_rows_parameter&#45;&gt;convert_metric_csvs_into_json_gzip_step</title>
<path fill="none" stroke="black" d="M1085.67,-1926.4C1060.01,-1871.11 982.09,-1703.21 951.51,-1637.31"/>
<polygon fill="black" stroke="black" points="954.57,-1635.6 947.19,-1628 948.22,-1638.55 954.57,-1635.6"/>
</g>
<!-- get_one_val_for_skip_rows_parameter -->
<g id="node20" class="node">
<title>get_one_val_for_skip_rows_parameter</title>
<polygon fill="lightgoldenrodyellow" stroke="black" points="370,-1926.86 370,-1963.86 510,-1963.86 510,-1926.86 370,-1926.86"/>
<text text-anchor="middle" x="440" y="-1941.66" font-family="Times,serif" font-size="14.00">parse&#45;int v(1.0.0)</text>
</g>
<!-- get_one_val_for_skip_rows_parameter&#45;&gt;convert_metric_csvs_into_json_gzip_step -->
<g id="edge15" class="edge">
<title>get_one_val_for_skip_rows_parameter&#45;&gt;convert_metric_csvs_into_json_gzip_step</title>
<path fill="none" stroke="black" d="M466.48,-1926.64C550.3,-1870.53 809.86,-1696.8 904.24,-1633.63"/>
<polygon fill="black" stroke="black" points="906.22,-1636.51 912.59,-1628.04 902.33,-1630.69 906.22,-1636.51"/>
</g>
<!-- get_fragment_length_hist_csv_intermediate_step&#45;&gt;convert_metric_csvs_into_json_gzip_step -->
<g id="edge16" class="edge">
<title>get_fragment_length_hist_csv_intermediate_step&#45;&gt;convert_metric_csvs_into_json_gzip_step</title>
<path fill="none" stroke="black" d="M721.24,-2599.71C747.61,-2524.34 850.95,-2221.52 901,-1964.36 924.34,-1844.41 934.3,-1698.61 937.62,-1638.42"/>
<polygon fill="black" stroke="black" points="941.12,-1638.37 938.16,-1628.2 934.13,-1638 941.12,-1638.37"/>
</g>
<!-- create_output_directory&#45;&gt;post_processing_output_directory -->
<g id="edge23" class="edge">
<title>create_output_directory&#45;&gt;post_processing_output_directory</title>
<path fill="none" stroke="black" d="M2285,-581.82C2285,-527.11 2285,-359.26 2285,-292.33"/>
<polygon fill="black" stroke="black" points="2288.5,-292.13 2285,-282.13 2281.5,-292.13 2288.5,-292.13"/>
</g>
<!-- gather_compressed_vcf_files_into_tar_step&#45;&gt;create_custom_output_entry_list_array_step -->
<g id="edge18" class="edge">
<title>gather_compressed_vcf_files_into_tar_step&#45;&gt;create_custom_output_entry_list_array_step</title>
<path fill="none" stroke="black" d="M1555.09,-1590.76C1581.56,-1499.21 1703.5,-1077.45 1736.01,-964.99"/>
<polygon fill="black" stroke="black" points="1739.46,-965.67 1738.87,-955.09 1732.73,-963.72 1739.46,-965.67"/>
</g>
<!-- run_dragen_multiqc_on_align_collapse_fusion_caller_dir_step&#45;&gt;create_custom_output_entry_list_array_step -->
<g id="edge20" class="edge">
<title>run_dragen_multiqc_on_align_collapse_fusion_caller_dir_step&#45;&gt;create_custom_output_entry_list_array_step</title>
<path fill="none" stroke="black" d="M2922.63,-2599.75C2916.76,-2522.56 2894,-2206.4 2894,-1946.36 2894,-1946.36 2894,-1946.36 2894,-1608.36 2894,-1156.59 2223.74,-1003.53 1906.62,-956.4"/>
<polygon fill="black" stroke="black" points="1906.82,-952.89 1896.41,-954.9 1905.8,-959.82 1906.82,-952.89"/>
</g>
<!-- dragen_metrics_to_json_step&#45;&gt;create_custom_output_entry_list_array_step -->
<g id="edge22" class="edge">
<title>dragen_metrics_to_json_step&#45;&gt;create_custom_output_entry_list_array_step</title>
<path fill="none" stroke="black" d="M2069.58,-2262.39C2034.02,-2117.65 1794.5,-1142.89 1750.83,-965.15"/>
<polygon fill="black" stroke="black" points="1754.18,-964.14 1748.4,-955.27 1747.39,-965.81 1754.18,-964.14"/>
</g>
<!-- get_align_collapse_fusion_caller_metrics_csv_files_intermediate_step&#45;&gt;dragen_metrics_to_json_step -->
<g id="edge24" class="edge">
<title>get_align_collapse_fusion_caller_metrics_csv_files_intermediate_step&#45;&gt;dragen_metrics_to_json_step</title>
<path fill="none" stroke="black" d="M1945.12,-2599.82C1967.42,-2544.89 2036.04,-2375.87 2062.98,-2309.51"/>
<polygon fill="black" stroke="black" points="2066.27,-2310.71 2066.79,-2300.13 2059.78,-2308.08 2066.27,-2310.71"/>
</g>
<!-- mosdepth_step&#45;&gt;make_exon_coverage_qc_step -->
<g id="edge26" class="edge">
<title>mosdepth_step&#45;&gt;make_exon_coverage_qc_step</title>
<path fill="none" stroke="black" d="M264,-2262.4C248.64,-2207.23 202.05,-2039.9 183.62,-1973.72"/>
<polygon fill="black" stroke="black" points="186.97,-1972.7 180.91,-1964 180.22,-1974.57 186.97,-1972.7"/>
</g>
<!-- mosdepth_step&#45;&gt;make_per_coverage_threshold_qc_step -->
<g id="edge27" class="edge">
<title>mosdepth_step&#45;&gt;make_per_coverage_threshold_qc_step</title>
<path fill="none" stroke="black" d="M292.4,-2262.64C366.25,-2206.7 594.49,-2033.85 678.52,-1970.2"/>
<polygon fill="black" stroke="black" points="680.8,-1972.87 686.66,-1964.04 676.57,-1967.29 680.8,-1972.87"/>
</g>
<!-- get_raw_bam_file_intermediate_step&#45;&gt;mosdepth_step -->
<g id="edge28" class="edge">
<title>get_raw_bam_file_intermediate_step&#45;&gt;mosdepth_step</title>
<path fill="none" stroke="black" d="M399.77,-2599.82C377.15,-2544.89 307.52,-2375.87 280.18,-2309.51"/>
<polygon fill="black" stroke="black" points="283.37,-2308.04 276.32,-2300.13 276.89,-2310.71 283.37,-2308.04"/>
</g>
<!-- create_dummy_file_step -->
<g id="node29" class="node">
<title>create_dummy_file_step</title>
<polygon fill="lightgoldenrodyellow" stroke="black" points="2793.5,-2949.86 2793.5,-2986.86 3054.5,-2986.86 3054.5,-2949.86 2793.5,-2949.86"/>
<text text-anchor="middle" x="2924" y="-2964.66" font-family="Times,serif" font-size="14.00">custom&#45;create&#45;dummy&#45;file v(1.0.0)</text>
</g>
<!-- create_dummy_file_step&#45;&gt;run_dragen_multiqc_on_align_collapse_fusion_caller_dir_step -->
<g id="edge29" class="edge">
<title>create_dummy_file_step&#45;&gt;run_dragen_multiqc_on_align_collapse_fusion_caller_dir_step</title>
<path fill="none" stroke="black" d="M2924,-2949.62C2924,-2892.96 2924,-2715.98 2924,-2647.15"/>
<polygon fill="black" stroke="black" points="2927.5,-2647.06 2924,-2637.06 2920.5,-2647.06 2927.5,-2647.06"/>
</g>
<!-- \n -->
<g id="node30" class="node">
<title>\n</title>
<ellipse fill="none" stroke="black" cx="3100" cy="-2968.36" rx="27" ry="18"/>
</g>
</g>
</svg>
