<?xml version="1.0" encoding="UTF-8" standalone="no"?>
<!DOCTYPE svg PUBLIC "-//W3C//DTD SVG 1.1//EN"
 "http://www.w3.org/Graphics/SVG/1.1/DTD/svg11.dtd">
<!-- Generated by graphviz version 2.43.0 (0)
 -->
<!-- Title: G Pages: 1 -->
<svg width="3250pt" height="3250pt"
 viewBox="0.00 0.00 3250.00 3250.00" xmlns="http://www.w3.org/2000/svg" xmlns:xlink="http://www.w3.org/1999/xlink">
<g id="graph0" class="graph" transform="scale(1 1) rotate(0) translate(4 3246)">
<title>G</title>
<polygon fill="#eeeeee" stroke="transparent" points="-4,4 -4,-3246 3246,-3246 3246,4 -4,4"/>
<g id="clust1" class="cluster">
<title>cluster_inputs</title>
<polygon fill="#eeeeee" stroke="black" stroke-dasharray="5,2" points="1290,-2841.46 1290,-3204.3 1674,-3204.3 1674,-2841.46 1290,-2841.46"/>
<text text-anchor="middle" x="1607.5" y="-2849.26" font-family="Times,serif" font-size="14.00">Workflow Inputs</text>
</g>
<g id="clust2" class="cluster">
<title>cluster_outputs</title>
<polygon fill="#eeeeee" stroke="black" stroke-dasharray="5,2" points="2114,-37.7 2114,-400.54 2388,-400.54 2388,-37.7 2114,-37.7"/>
<text text-anchor="middle" x="2315.5" y="-45.5" font-family="Times,serif" font-size="14.00">Workflow Outputs</text>
</g>
<!-- tso500_outputs_by_sample -->
<g id="node1" class="node">
<title>tso500_outputs_by_sample</title>
<polygon fill="#94ddf4" stroke="black" points="1456.5,-3058.2 1456.5,-3095.2 1665.5,-3095.2 1665.5,-3058.2 1456.5,-3058.2"/>
<text text-anchor="middle" x="1561" y="-3073" font-family="Times,serif" font-size="14.00">tso500_outputs_by_sample</text>
</g>
<!-- get_sample_analysis_results_intermediate_step -->
<g id="node4" class="node">
<title>get_sample_analysis_results_intermediate_step</title>
<polygon fill="lightgoldenrodyellow" stroke="black" points="2481,-2696.2 2481,-2733.2 2623,-2733.2 2623,-2696.2 2481,-2696.2"/>
<text text-anchor="middle" x="2552" y="-2711" font-family="Times,serif" font-size="14.00">parse&#45;file v(1.0.0)</text>
</g>
<!-- tso500_outputs_by_sample&#45;&gt;get_sample_analysis_results_intermediate_step -->
<g id="edge30" class="edge">
<title>tso500_outputs_by_sample&#45;&gt;get_sample_analysis_results_intermediate_step</title>
<path fill="none" stroke="black" d="M1609.47,-3058.09C1774.69,-2998.07 2315.48,-2801.62 2494.14,-2736.72"/>
<polygon fill="black" stroke="black" points="2495.42,-2739.98 2503.62,-2733.27 2493.03,-2733.4 2495.42,-2739.98"/>
</g>
<!-- gather_compressed_reporting_json_files_into_tar_step -->
<g id="node6" class="node">
<title>gather_compressed_reporting_json_files_into_tar_step</title>
<polygon fill="lightgoldenrodyellow" stroke="black" points="2449,-1998.2 2449,-2035.2 2655,-2035.2 2655,-1998.2 2449,-1998.2"/>
<text text-anchor="middle" x="2552" y="-2013" font-family="Times,serif" font-size="14.00">custom&#45;tar&#45;file&#45;list v(1.0.0)</text>
</g>
<!-- tso500_outputs_by_sample&#45;&gt;gather_compressed_reporting_json_files_into_tar_step -->
<g id="edge52" class="edge">
<title>tso500_outputs_by_sample&#45;&gt;gather_compressed_reporting_json_files_into_tar_step</title>
<path fill="none" stroke="black" d="M1665.54,-3064.87C1950.86,-3032.95 2731.79,-2929 2883,-2733.7 3067.44,-2495.48 2690.44,-2137.93 2580.75,-2042.07"/>
<polygon fill="black" stroke="black" points="2582.87,-2039.28 2573.03,-2035.37 2578.28,-2044.57 2582.87,-2039.28"/>
</g>
<!-- get_msi_json_intermediate_step -->
<g id="node7" class="node">
<title>get_msi_json_intermediate_step</title>
<polygon fill="lightgoldenrodyellow" stroke="black" points="2641.5,-2696.2 2641.5,-2733.2 2874.5,-2733.2 2874.5,-2696.2 2641.5,-2696.2"/>
<text text-anchor="middle" x="2758" y="-2711" font-family="Times,serif" font-size="14.00">get&#45;file&#45;from&#45;directory v(1.0.0)</text>
</g>
<!-- tso500_outputs_by_sample&#45;&gt;get_msi_json_intermediate_step -->
<g id="edge31" class="edge">
<title>tso500_outputs_by_sample&#45;&gt;get_msi_json_intermediate_step</title>
<path fill="none" stroke="black" d="M1616.42,-3058.09C1811.82,-2997.89 2468.26,-2800.45 2686.68,-2736.14"/>
<polygon fill="black" stroke="black" points="2687.84,-2739.45 2696.44,-2733.27 2685.86,-2732.73 2687.84,-2739.45"/>
</g>
<!-- tso500_outputs_by_sample&#45;&gt;get_msi_json_intermediate_step -->
<g id="edge32" class="edge">
<title>tso500_outputs_by_sample&#45;&gt;get_msi_json_intermediate_step</title>
<path fill="none" stroke="black" d="M1622.67,-3058.09C1827.49,-2997.92 2483.52,-2800.64 2693.06,-2736.24"/>
<polygon fill="black" stroke="black" points="2694.17,-2739.56 2702.69,-2733.27 2692.11,-2732.87 2694.17,-2739.56"/>
</g>
<!-- get_tmb_json_intermediate_step -->
<g id="node8" class="node">
<title>get_tmb_json_intermediate_step</title>
<polygon fill="lightgoldenrodyellow" stroke="black" points="2229.5,-2696.2 2229.5,-2733.2 2462.5,-2733.2 2462.5,-2696.2 2229.5,-2696.2"/>
<text text-anchor="middle" x="2346" y="-2711" font-family="Times,serif" font-size="14.00">get&#45;file&#45;from&#45;directory v(1.0.0)</text>
</g>
<!-- tso500_outputs_by_sample&#45;&gt;get_tmb_json_intermediate_step -->
<g id="edge33" class="edge">
<title>tso500_outputs_by_sample&#45;&gt;get_tmb_json_intermediate_step</title>
<path fill="none" stroke="black" d="M1596.26,-3058.09C1721.96,-2998.28 2147.71,-2802.98 2295.24,-2737.4"/>
<polygon fill="black" stroke="black" points="2296.83,-2740.53 2304.55,-2733.27 2293.99,-2734.13 2296.83,-2740.53"/>
</g>
<!-- tso500_outputs_by_sample&#45;&gt;get_tmb_json_intermediate_step -->
<g id="edge34" class="edge">
<title>tso500_outputs_by_sample&#45;&gt;get_tmb_json_intermediate_step</title>
<path fill="none" stroke="black" d="M1602.52,-3058.09C1737.54,-2998.34 2162.77,-2803.37 2301.69,-2737.6"/>
<polygon fill="black" stroke="black" points="2303.27,-2740.72 2310.81,-2733.27 2300.27,-2734.4 2303.27,-2740.72"/>
</g>
<!-- get_vcf_files_intermediate_step -->
<g id="node9" class="node">
<title>get_vcf_files_intermediate_step</title>
<polygon fill="lightgoldenrodyellow" stroke="black" points="1672.5,-2696.2 1672.5,-2733.2 1913.5,-2733.2 1913.5,-2696.2 1672.5,-2696.2"/>
<text text-anchor="middle" x="1793" y="-2711" font-family="Times,serif" font-size="14.00">get&#45;files&#45;from&#45;directory v(1.0.0)</text>
</g>
<!-- tso500_outputs_by_sample&#45;&gt;get_vcf_files_intermediate_step -->
<g id="edge35" class="edge">
<title>tso500_outputs_by_sample&#45;&gt;get_vcf_files_intermediate_step</title>
<path fill="none" stroke="black" d="M1569.36,-3057.85C1602.71,-2998.93 1723.94,-2810.53 1772.73,-2741.43"/>
<polygon fill="black" stroke="black" points="1775.61,-2743.41 1778.58,-2733.23 1769.92,-2739.34 1775.61,-2743.41"/>
</g>
<!-- tso500_outputs_by_sample&#45;&gt;get_vcf_files_intermediate_step -->
<g id="edge36" class="edge">
<title>tso500_outputs_by_sample&#45;&gt;get_vcf_files_intermediate_step</title>
<path fill="none" stroke="black" d="M1575.65,-3057.85C1618.06,-2999.17 1738.84,-2812.06 1779.62,-2742.28"/>
<polygon fill="black" stroke="black" points="1782.87,-2743.65 1784.82,-2733.23 1776.8,-2740.15 1782.87,-2743.65"/>
</g>
<!-- get_tmb_trace_tsv_intermediate_step -->
<g id="node12" class="node">
<title>get_tmb_trace_tsv_intermediate_step</title>
<polygon fill="lightgoldenrodyellow" stroke="black" points="965.5,-2696.2 965.5,-2733.2 1198.5,-2733.2 1198.5,-2696.2 965.5,-2696.2"/>
<text text-anchor="middle" x="1082" y="-2711" font-family="Times,serif" font-size="14.00">get&#45;file&#45;from&#45;directory v(1.0.0)</text>
</g>
<!-- tso500_outputs_by_sample&#45;&gt;get_tmb_trace_tsv_intermediate_step -->
<g id="edge37" class="edge">
<title>tso500_outputs_by_sample&#45;&gt;get_tmb_trace_tsv_intermediate_step</title>
<path fill="none" stroke="black" d="M1534.44,-3058.09C1451.06,-2998.94 1195.87,-2807.26 1110.23,-2739.61"/>
<polygon fill="black" stroke="black" points="1112.26,-2736.75 1102.26,-2733.27 1107.91,-2742.23 1112.26,-2736.75"/>
</g>
<!-- tso500_outputs_by_sample&#45;&gt;get_tmb_trace_tsv_intermediate_step -->
<g id="edge38" class="edge">
<title>tso500_outputs_by_sample&#45;&gt;get_tmb_trace_tsv_intermediate_step</title>
<path fill="none" stroke="black" d="M1540.7,-3058.09C1466.52,-2998.82 1210.75,-2806.48 1116.82,-2739.2"/>
<polygon fill="black" stroke="black" points="1118.68,-2736.23 1108.51,-2733.27 1114.62,-2741.93 1118.68,-2736.23"/>
</g>
<!-- gather_compressed_metric_json_files_into_tar_step -->
<g id="node14" class="node">
<title>gather_compressed_metric_json_files_into_tar_step</title>
<polygon fill="lightgoldenrodyellow" stroke="black" points="1282,-1301.2 1282,-1338.2 1488,-1338.2 1488,-1301.2 1282,-1301.2"/>
<text text-anchor="middle" x="1385" y="-1316" font-family="Times,serif" font-size="14.00">custom&#45;tar&#45;file&#45;list v(1.0.0)</text>
</g>
<!-- tso500_outputs_by_sample&#45;&gt;gather_compressed_metric_json_files_into_tar_step -->
<g id="edge51" class="edge">
<title>tso500_outputs_by_sample&#45;&gt;gather_compressed_metric_json_files_into_tar_step</title>
<path fill="none" stroke="black" d="M1557.26,-3057.99C1546.77,-3007.56 1516.83,-2858.75 1502,-2733.7 1482.75,-2571.38 1478,-2530.16 1478,-2366.7 1478,-2366.7 1478,-2366.7 1478,-2015.7 1478,-1753.72 1412.28,-1441.05 1391.33,-1348.06"/>
<polygon fill="black" stroke="black" points="1394.74,-1347.28 1389.12,-1338.3 1387.92,-1348.83 1394.74,-1347.28"/>
</g>
<!-- make_per_coverage_threshold_qc_step -->
<g id="node16" class="node">
<title>make_per_coverage_threshold_qc_step</title>
<polygon fill="lightgoldenrodyellow" stroke="black" points="528,-1998.2 528,-2035.2 892,-2035.2 892,-1998.2 528,-1998.2"/>
<text text-anchor="middle" x="710" y="-2013" font-family="Times,serif" font-size="14.00">custom&#45;tso500&#45;make&#45;region&#45;coverage&#45;qc v(1.0.0)</text>
</g>
<!-- tso500_outputs_by_sample&#45;&gt;make_per_coverage_threshold_qc_step -->
<g id="edge39" class="edge">
<title>tso500_outputs_by_sample&#45;&gt;make_per_coverage_threshold_qc_step</title>
<path fill="none" stroke="black" d="M1522.06,-3058.16C1401.57,-3003.25 1038.05,-2832.39 956,-2733.7 772.77,-2513.31 723.2,-2148.89 712.53,-2045.7"/>
<polygon fill="black" stroke="black" points="715.99,-2045.09 711.52,-2035.48 709.03,-2045.78 715.99,-2045.09"/>
</g>
<!-- get_fragment_length_hist_csv_intermediate_step -->
<g id="node17" class="node">
<title>get_fragment_length_hist_csv_intermediate_step</title>
<polygon fill="lightgoldenrodyellow" stroke="black" points="675.5,-2696.2 675.5,-2733.2 908.5,-2733.2 908.5,-2696.2 675.5,-2696.2"/>
<text text-anchor="middle" x="792" y="-2711" font-family="Times,serif" font-size="14.00">get&#45;file&#45;from&#45;directory v(1.0.0)</text>
</g>
<!-- tso500_outputs_by_sample&#45;&gt;get_fragment_length_hist_csv_intermediate_step -->
<g id="edge40" class="edge">
<title>tso500_outputs_by_sample&#45;&gt;get_fragment_length_hist_csv_intermediate_step</title>
<path fill="none" stroke="black" d="M1520.26,-3058.09C1388.03,-2998.4 972.16,-2803.76 835.74,-2737.79"/>
<polygon fill="black" stroke="black" points="836.94,-2734.48 826.41,-2733.27 833.88,-2740.78 836.94,-2734.48"/>
</g>
<!-- tso500_outputs_by_sample&#45;&gt;get_fragment_length_hist_csv_intermediate_step -->
<g id="edge41" class="edge">
<title>tso500_outputs_by_sample&#45;&gt;get_fragment_length_hist_csv_intermediate_step</title>
<path fill="none" stroke="black" d="M1526.52,-3058.09C1403.48,-2998.28 986.41,-2802.98 841.79,-2737.4"/>
<polygon fill="black" stroke="black" points="843.22,-2734.21 832.66,-2733.27 840.33,-2740.58 843.22,-2734.21"/>
</g>
<!-- make_exon_coverage_qc_step -->
<g id="node18" class="node">
<title>make_exon_coverage_qc_step</title>
<polygon fill="lightgoldenrodyellow" stroke="black" points="0,-1998.2 0,-2035.2 352,-2035.2 352,-1998.2 0,-1998.2"/>
<text text-anchor="middle" x="176" y="-2013" font-family="Times,serif" font-size="14.00">custom&#45;tso500&#45;make&#45;exon&#45;coverage&#45;qc v(1.0.0)</text>
</g>
<!-- tso500_outputs_by_sample&#45;&gt;make_exon_coverage_qc_step -->
<g id="edge42" class="edge">
<title>tso500_outputs_by_sample&#45;&gt;make_exon_coverage_qc_step</title>
<path fill="none" stroke="black" d="M1524.06,-3058.18C1502.01,-3048.14 1473.27,-3035.76 1447,-3026.7 965.91,-2860.65 693.78,-3099.57 340,-2733.7 145.86,-2532.93 163.86,-2151.68 173.12,-2045.66"/>
<polygon fill="black" stroke="black" points="176.63,-2045.74 174.06,-2035.46 169.66,-2045.1 176.63,-2045.74"/>
</g>
<!-- create_custom_output_entry_list_array_step -->
<g id="node19" class="node">
<title>create_custom_output_entry_list_array_step</title>
<polygon fill="lightgoldenrodyellow" stroke="black" points="1326,-952.2 1326,-989.2 1796,-989.2 1796,-952.2 1326,-952.2"/>
<text text-anchor="middle" x="1561" y="-967" font-family="Times,serif" font-size="14.00">get&#45;custom&#45;output&#45;dir&#45;entry&#45;for&#45;tso500&#45;post&#45;processing v(2.0.1)</text>
</g>
<!-- tso500_outputs_by_sample&#45;&gt;create_custom_output_entry_list_array_step -->
<g id="edge45" class="edge">
<title>tso500_outputs_by_sample&#45;&gt;create_custom_output_entry_list_array_step</title>
<path fill="none" stroke="black" d="M1546.15,-3058.16C1516,-2978.46 1516,-2642.42 1516,-2366.7 1516,-2366.7 1516,-2366.7 1516,-1666.7 1516,-1406.77 1516,-1092.15 1542.81,-998.95"/>
<polygon fill="black" stroke="black" points="1546.15,-1000.01 1545.95,-989.42 1539.5,-997.83 1546.15,-1000.01"/>
</g>
<!-- tso500_outputs_by_sample&#45;&gt;create_custom_output_entry_list_array_step -->
<g id="edge46" class="edge">
<title>tso500_outputs_by_sample&#45;&gt;create_custom_output_entry_list_array_step</title>
<path fill="none" stroke="black" d="M1552.09,-3058.16C1534,-2978.46 1534,-2642.42 1534,-2366.7 1534,-2366.7 1534,-2366.7 1534,-1666.7 1534,-1407.03 1534,-1092.79 1550.04,-999.24"/>
<polygon fill="black" stroke="black" points="1553.48,-999.91 1551.97,-989.42 1546.61,-998.56 1553.48,-999.91"/>
</g>
<!-- tso500_outputs_by_sample&#45;&gt;create_custom_output_entry_list_array_step -->
<g id="edge47" class="edge">
<title>tso500_outputs_by_sample&#45;&gt;create_custom_output_entry_list_array_step</title>
<path fill="none" stroke="black" d="M1558.03,-3058.16C1552,-2978.46 1552,-2642.42 1552,-2366.7 1552,-2366.7 1552,-2366.7 1552,-1666.7 1552,-1407.29 1552,-1093.43 1557.33,-999.52"/>
<polygon fill="black" stroke="black" points="1560.83,-999.63 1557.99,-989.42 1553.85,-999.17 1560.83,-999.63"/>
</g>
<!-- tso500_outputs_by_sample&#45;&gt;create_custom_output_entry_list_array_step -->
<g id="edge48" class="edge">
<title>tso500_outputs_by_sample&#45;&gt;create_custom_output_entry_list_array_step</title>
<path fill="none" stroke="black" d="M1563.97,-3058.16C1570,-2978.46 1570,-2642.42 1570,-2366.7 1570,-2366.7 1570,-2366.7 1570,-1666.7 1570,-1407.29 1570,-1093.43 1564.67,-999.52"/>
<polygon fill="black" stroke="black" points="1568.15,-999.17 1564.01,-989.42 1561.17,-999.63 1568.15,-999.17"/>
</g>
<!-- tso500_outputs_by_sample&#45;&gt;create_custom_output_entry_list_array_step -->
<g id="edge49" class="edge">
<title>tso500_outputs_by_sample&#45;&gt;create_custom_output_entry_list_array_step</title>
<path fill="none" stroke="black" d="M1569.91,-3058.16C1588,-2978.46 1588,-2642.42 1588,-2366.7 1588,-2366.7 1588,-2366.7 1588,-1666.7 1588,-1407.03 1588,-1092.79 1571.96,-999.24"/>
<polygon fill="black" stroke="black" points="1575.39,-998.56 1570.03,-989.42 1568.52,-999.91 1575.39,-998.56"/>
</g>
<!-- tso500_outputs_by_sample&#45;&gt;create_custom_output_entry_list_array_step -->
<g id="edge50" class="edge">
<title>tso500_outputs_by_sample&#45;&gt;create_custom_output_entry_list_array_step</title>
<path fill="none" stroke="black" d="M1575.85,-3058.16C1606,-2978.46 1606,-2642.42 1606,-2366.7 1606,-2366.7 1606,-2366.7 1606,-1666.7 1606,-1406.77 1606,-1092.15 1579.19,-998.95"/>
<polygon fill="black" stroke="black" points="1582.5,-997.83 1576.05,-989.42 1575.85,-1000.01 1582.5,-997.83"/>
</g>
<!-- get_fusion_csv_intermediate_step -->
<g id="node21" class="node">
<title>get_fusion_csv_intermediate_step</title>
<polygon fill="lightgoldenrodyellow" stroke="black" points="1216.5,-2696.2 1216.5,-2733.2 1449.5,-2733.2 1449.5,-2696.2 1216.5,-2696.2"/>
<text text-anchor="middle" x="1333" y="-2711" font-family="Times,serif" font-size="14.00">get&#45;file&#45;from&#45;directory v(1.0.0)</text>
</g>
<!-- tso500_outputs_by_sample&#45;&gt;get_fusion_csv_intermediate_step -->
<g id="edge43" class="edge">
<title>tso500_outputs_by_sample&#45;&gt;get_fusion_csv_intermediate_step</title>
<path fill="none" stroke="black" d="M1546.55,-3057.85C1504.79,-2999.17 1386.09,-2812.06 1346.09,-2742.28"/>
<polygon fill="black" stroke="black" points="1348.95,-2740.22 1340.98,-2733.23 1342.85,-2743.66 1348.95,-2740.22"/>
</g>
<!-- tso500_outputs_by_sample&#45;&gt;get_fusion_csv_intermediate_step -->
<g id="edge44" class="edge">
<title>tso500_outputs_by_sample&#45;&gt;get_fusion_csv_intermediate_step</title>
<path fill="none" stroke="black" d="M1552.84,-3057.85C1520.14,-2998.93 1401,-2810.53 1352.99,-2741.43"/>
<polygon fill="black" stroke="black" points="1355.84,-2739.4 1347.23,-2733.23 1350.12,-2743.43 1355.84,-2739.4"/>
</g>
<!-- create_output_directory -->
<g id="node22" class="node">
<title>create_output_directory</title>
<polygon fill="lightgoldenrodyellow" stroke="black" points="2127.5,-603.2 2127.5,-640.2 2374.5,-640.2 2374.5,-603.2 2127.5,-603.2"/>
<text text-anchor="middle" x="2251" y="-618" font-family="Times,serif" font-size="14.00">custom&#45;create&#45;directory v(2.0.1)</text>
</g>
<!-- tso500_outputs_by_sample&#45;&gt;create_output_directory -->
<g id="edge59" class="edge">
<title>tso500_outputs_by_sample&#45;&gt;create_output_directory</title>
<path fill="none" stroke="black" d="M1665.65,-3064.61C1953.37,-3031.85 2745.86,-2925.57 2909,-2733.7 3015.06,-2608.96 2941,-2530.43 2941,-2366.7 2941,-2366.7 2941,-2366.7 2941,-1318.7 2941,-956.27 2463.3,-715.11 2302.85,-644.33"/>
<polygon fill="black" stroke="black" points="2304.21,-641.1 2293.64,-640.3 2301.4,-647.52 2304.21,-641.1"/>
</g>
<!-- run_dragen_multiqc_on_align_collapse_fusion_caller_dir_step -->
<g id="node23" class="node">
<title>run_dragen_multiqc_on_align_collapse_fusion_caller_dir_step</title>
<polygon fill="lightgoldenrodyellow" stroke="black" points="2969.5,-2696.2 2969.5,-2733.2 3108.5,-2733.2 3108.5,-2696.2 2969.5,-2696.2"/>
<text text-anchor="middle" x="3039" y="-2711" font-family="Times,serif" font-size="14.00">multiqc v(1.12.0)</text>
</g>
<!-- tso500_outputs_by_sample&#45;&gt;run_dragen_multiqc_on_align_collapse_fusion_caller_dir_step -->
<g id="edge53" class="edge">
<title>tso500_outputs_by_sample&#45;&gt;run_dragen_multiqc_on_align_collapse_fusion_caller_dir_step</title>
<path fill="none" stroke="black" d="M1623.9,-3058.09C1861,-2996.8 2696.73,-2793.25 2959.61,-2732.78"/>
<polygon fill="black" stroke="black" points="2960.5,-2736.17 2969.46,-2730.52 2958.93,-2729.34 2960.5,-2736.17"/>
</g>
<!-- tso500_outputs_by_sample&#45;&gt;run_dragen_multiqc_on_align_collapse_fusion_caller_dir_step -->
<g id="edge54" class="edge">
<title>tso500_outputs_by_sample&#45;&gt;run_dragen_multiqc_on_align_collapse_fusion_caller_dir_step</title>
<path fill="none" stroke="black" d="M1630.16,-3058.09C1874.98,-2997.29 2699.38,-2796.48 2959.63,-2734.25"/>
<polygon fill="black" stroke="black" points="2960.47,-2737.65 2969.38,-2731.92 2958.84,-2730.84 2960.47,-2737.65"/>
</g>
<!-- tso500_outputs_by_sample&#45;&gt;run_dragen_multiqc_on_align_collapse_fusion_caller_dir_step -->
<g id="edge55" class="edge">
<title>tso500_outputs_by_sample&#45;&gt;run_dragen_multiqc_on_align_collapse_fusion_caller_dir_step</title>
<path fill="none" stroke="black" d="M1636.16,-3058.15C1888.26,-2997.91 2702.06,-2799.71 2959.91,-2735.77"/>
<polygon fill="black" stroke="black" points="2961.08,-2739.09 2969.94,-2733.28 2959.39,-2732.29 2961.08,-2739.09"/>
</g>
<!-- tso500_outputs_by_sample&#45;&gt;run_dragen_multiqc_on_align_collapse_fusion_caller_dir_step -->
<g id="edge56" class="edge">
<title>tso500_outputs_by_sample&#45;&gt;run_dragen_multiqc_on_align_collapse_fusion_caller_dir_step</title>
<path fill="none" stroke="black" d="M1642.41,-3058.15C1903.92,-2997.94 2717.17,-2799.9 2966.17,-2735.87"/>
<polygon fill="black" stroke="black" points="2967.38,-2739.17 2976.19,-2733.28 2965.64,-2732.39 2967.38,-2739.17"/>
</g>
<!-- gather_compressed_vcf_files_into_tar_step -->
<g id="node24" class="node">
<title>gather_compressed_vcf_files_into_tar_step</title>
<polygon fill="lightgoldenrodyellow" stroke="black" points="1634.5,-1649.2 1634.5,-1686.2 1865.5,-1686.2 1865.5,-1649.2 1634.5,-1649.2"/>
<text text-anchor="middle" x="1750" y="-1664" font-family="Times,serif" font-size="14.00">custom&#45;tar&#45;vcf&#45;file&#45;list v(1.0.0)</text>
</g>
<!-- tso500_outputs_by_sample&#45;&gt;gather_compressed_vcf_files_into_tar_step -->
<g id="edge57" class="edge">
<title>tso500_outputs_by_sample&#45;&gt;gather_compressed_vcf_files_into_tar_step</title>
<path fill="none" stroke="black" d="M1564.59,-3057.97C1574.71,-3007.5 1603.74,-2858.57 1620,-2733.7 1662.39,-2408.06 1638.67,-2322.8 1685,-1997.7 1701.05,-1885.07 1730.47,-1752.69 1743.5,-1696.34"/>
<polygon fill="black" stroke="black" points="1746.95,-1696.95 1745.8,-1686.41 1740.13,-1695.36 1746.95,-1696.95"/>
</g>
<!-- dragen_metrics_to_json_step -->
<g id="node25" class="node">
<title>dragen_metrics_to_json_step</title>
<polygon fill="lightgoldenrodyellow" stroke="black" points="1830,-2347.2 1830,-2384.2 2344,-2384.2 2344,-2347.2 1830,-2347.2"/>
<text text-anchor="middle" x="2087" y="-2362" font-family="Times,serif" font-size="14.00">custom&#45;tso500&#45;align&#45;collapse&#45;fusion&#45;caller&#45;csv&#45;metrics&#45;to&#45;json v(1.0.0)</text>
</g>
<!-- tso500_outputs_by_sample&#45;&gt;dragen_metrics_to_json_step -->
<g id="edge58" class="edge">
<title>tso500_outputs_by_sample&#45;&gt;dragen_metrics_to_json_step</title>
<path fill="none" stroke="black" d="M1644.4,-3058.18C1784.58,-3023.74 2063.58,-2932.57 2181,-2733.7 2248.87,-2618.75 2150.05,-2455.4 2106.18,-2392.63"/>
<polygon fill="black" stroke="black" points="2109.02,-2390.59 2100.38,-2384.46 2103.31,-2394.64 2109.02,-2390.59"/>
</g>
<!-- get_align_collapse_fusion_caller_metrics_csv_files_intermediate_step -->
<g id="node26" class="node">
<title>get_align_collapse_fusion_caller_metrics_csv_files_intermediate_step</title>
<polygon fill="lightgoldenrodyellow" stroke="black" points="1931.5,-2696.2 1931.5,-2733.2 2172.5,-2733.2 2172.5,-2696.2 1931.5,-2696.2"/>
<text text-anchor="middle" x="2052" y="-2711" font-family="Times,serif" font-size="14.00">get&#45;files&#45;from&#45;directory v(1.0.0)</text>
</g>
<!-- tso500_outputs_by_sample&#45;&gt;get_align_collapse_fusion_caller_metrics_csv_files_intermediate_step -->
<g id="edge60" class="edge">
<title>tso500_outputs_by_sample&#45;&gt;get_align_collapse_fusion_caller_metrics_csv_files_intermediate_step</title>
<path fill="none" stroke="black" d="M1581.89,-3058.09C1658.12,-2998.76 1920.76,-2806.09 2016.69,-2739"/>
<polygon fill="black" stroke="black" points="2018.7,-2741.86 2024.91,-2733.27 2014.7,-2736.11 2018.7,-2741.86"/>
</g>
<!-- tso500_outputs_by_sample&#45;&gt;get_align_collapse_fusion_caller_metrics_csv_files_intermediate_step -->
<g id="edge61" class="edge">
<title>tso500_outputs_by_sample&#45;&gt;get_align_collapse_fusion_caller_metrics_csv_files_intermediate_step</title>
<path fill="none" stroke="black" d="M1588.14,-3058.09C1673.58,-2998.88 1935.6,-2806.87 2023.23,-2739.4"/>
<polygon fill="black" stroke="black" points="2025.39,-2742.16 2031.16,-2733.27 2021.11,-2736.62 2025.39,-2742.16"/>
</g>
<!-- mosdepth_step -->
<g id="node27" class="node">
<title>mosdepth_step</title>
<polygon fill="lightgoldenrodyellow" stroke="black" points="411,-2347.2 411,-2384.2 557,-2384.2 557,-2347.2 411,-2347.2"/>
<text text-anchor="middle" x="484" y="-2362" font-family="Times,serif" font-size="14.00">mosdepth v(0.3.1)</text>
</g>
<!-- tso500_outputs_by_sample&#45;&gt;mosdepth_step -->
<g id="edge62" class="edge">
<title>tso500_outputs_by_sample&#45;&gt;mosdepth_step</title>
<path fill="none" stroke="black" d="M1521.36,-3058.12C1499.53,-3048.57 1471.88,-3036.71 1447,-3026.7 1103.05,-2888.35 941.1,-2982.22 666,-2733.7 558.55,-2636.63 506.89,-2461.81 490.25,-2394.32"/>
<polygon fill="black" stroke="black" points="493.61,-2393.35 487.87,-2384.44 486.81,-2394.98 493.61,-2393.35"/>
</g>
<!-- get_raw_bam_file_intermediate_step -->
<g id="node28" class="node">
<title>get_raw_bam_file_intermediate_step</title>
<polygon fill="lightgoldenrodyellow" stroke="black" points="349.5,-2696.2 349.5,-2733.2 618.5,-2733.2 618.5,-2696.2 349.5,-2696.2"/>
<text text-anchor="middle" x="484" y="-2711" font-family="Times,serif" font-size="14.00">get&#45;bam&#45;file&#45;from&#45;directory v(1.0.0)</text>
</g>
<!-- tso500_outputs_by_sample&#45;&gt;get_raw_bam_file_intermediate_step -->
<g id="edge63" class="edge">
<title>tso500_outputs_by_sample&#45;&gt;get_raw_bam_file_intermediate_step</title>
<path fill="none" stroke="black" d="M1514.67,-3058.12C1491.65,-3048.35 1463.51,-3036.28 1438,-3026.7 1109.27,-2903.28 706.87,-2783.01 550.47,-2736.2"/>
<polygon fill="black" stroke="black" points="551.12,-2732.74 540.53,-2733.22 549.11,-2739.44 551.12,-2732.74"/>
</g>
<!-- tso500_outputs_by_sample&#45;&gt;get_raw_bam_file_intermediate_step -->
<g id="edge64" class="edge">
<title>tso500_outputs_by_sample&#45;&gt;get_raw_bam_file_intermediate_step</title>
<path fill="none" stroke="black" d="M1530.25,-3058C1509.42,-3048.26 1481.41,-3036.24 1456,-3026.7 1126.94,-2903.15 724.07,-2782.77 559.42,-2736.06"/>
<polygon fill="black" stroke="black" points="559.97,-2732.58 549.39,-2733.22 558.06,-2739.31 559.97,-2732.58"/>
</g>
<!-- tso_manifest_bed -->
<g id="node2" class="node">
<title>tso_manifest_bed</title>
<polygon fill="#94ddf4" stroke="black" points="1298,-3058.2 1298,-3095.2 1438,-3095.2 1438,-3058.2 1298,-3058.2"/>
<text text-anchor="middle" x="1368" y="-3073" font-family="Times,serif" font-size="14.00">tso_manifest_bed</text>
</g>
<!-- tso_manifest_bed&#45;&gt;mosdepth_step -->
<g id="edge65" class="edge">
<title>tso_manifest_bed&#45;&gt;mosdepth_step</title>
<path fill="none" stroke="black" d="M1297.67,-3063.19C1085.08,-3023.83 456.62,-2895.41 340,-2733.7 258.22,-2620.3 398.62,-2454.21 458.71,-2391.71"/>
<polygon fill="black" stroke="black" points="461.49,-2393.88 465.96,-2384.27 456.47,-2389 461.49,-2393.88"/>
</g>
<!-- post_processing_output_directory -->
<g id="node3" class="node">
<title>post_processing_output_directory</title>
<polygon fill="#94ddf4" stroke="black" points="2122.5,-255.2 2122.5,-292.2 2379.5,-292.2 2379.5,-255.2 2122.5,-255.2"/>
<text text-anchor="middle" x="2251" y="-270" font-family="Times,serif" font-size="14.00">post_processing_output_directory</text>
</g>
<!-- compress_reporting_jsons_with_gzip_step -->
<g id="node5" class="node">
<title>compress_reporting_jsons_with_gzip_step</title>
<polygon fill="lightgoldenrodyellow" stroke="black" points="2458,-2347.2 2458,-2384.2 2646,-2384.2 2646,-2347.2 2458,-2347.2"/>
<text text-anchor="middle" x="2552" y="-2362" font-family="Times,serif" font-size="14.00">custom&#45;gzip&#45;file v(1.0.0)</text>
</g>
<!-- get_sample_analysis_results_intermediate_step&#45;&gt;compress_reporting_jsons_with_gzip_step -->
<g id="edge1" class="edge">
<title>get_sample_analysis_results_intermediate_step&#45;&gt;compress_reporting_jsons_with_gzip_step</title>
<path fill="none" stroke="black" d="M2552,-2696.01C2552,-2639.51 2552,-2463.04 2552,-2394.4"/>
<polygon fill="black" stroke="black" points="2555.5,-2394.35 2552,-2384.35 2548.5,-2394.35 2555.5,-2394.35"/>
</g>
<!-- compress_reporting_jsons_with_gzip_step&#45;&gt;gather_compressed_reporting_json_files_into_tar_step -->
<g id="edge2" class="edge">
<title>compress_reporting_jsons_with_gzip_step&#45;&gt;gather_compressed_reporting_json_files_into_tar_step</title>
<path fill="none" stroke="black" d="M2552,-2347.01C2552,-2290.51 2552,-2114.04 2552,-2045.4"/>
<polygon fill="black" stroke="black" points="2555.5,-2045.35 2552,-2035.35 2548.5,-2045.35 2555.5,-2045.35"/>
</g>
<!-- gather_compressed_reporting_json_files_into_tar_step&#45;&gt;create_custom_output_entry_list_array_step -->
<g id="edge19" class="edge">
<title>gather_compressed_reporting_json_files_into_tar_step&#45;&gt;create_custom_output_entry_list_array_step</title>
<path fill="none" stroke="black" d="M2541.08,-1997.92C2488.74,-1913.59 2255.84,-1547.72 2005,-1300.7 1870.07,-1167.82 1679.24,-1044.25 1598.94,-994.64"/>
<polygon fill="black" stroke="black" points="1600.51,-991.5 1590.16,-989.24 1596.84,-997.46 1600.51,-991.5"/>
</g>
<!-- get_msi_json_intermediate_step&#45;&gt;compress_reporting_jsons_with_gzip_step -->
<g id="edge3" class="edge">
<title>get_msi_json_intermediate_step&#45;&gt;compress_reporting_jsons_with_gzip_step</title>
<path fill="none" stroke="black" d="M2747.5,-2696.01C2713.75,-2639.16 2607.9,-2460.86 2567.7,-2393.14"/>
<polygon fill="black" stroke="black" points="2570.59,-2391.16 2562.48,-2384.35 2564.57,-2394.73 2570.59,-2391.16"/>
</g>
<!-- get_tmb_json_intermediate_step&#45;&gt;compress_reporting_jsons_with_gzip_step -->
<g id="edge4" class="edge">
<title>get_tmb_json_intermediate_step&#45;&gt;compress_reporting_jsons_with_gzip_step</title>
<path fill="none" stroke="black" d="M2356.5,-2696.01C2390.25,-2639.16 2496.1,-2460.86 2536.3,-2393.14"/>
<polygon fill="black" stroke="black" points="2539.43,-2394.73 2541.52,-2384.35 2533.41,-2391.16 2539.43,-2394.73"/>
</g>
<!-- compress_vcf_files_step -->
<g id="node10" class="node">
<title>compress_vcf_files_step</title>
<polygon fill="lightgoldenrodyellow" stroke="black" points="1688,-2347.2 1688,-2384.2 1812,-2384.2 1812,-2347.2 1688,-2347.2"/>
<text text-anchor="middle" x="1750" y="-2362" font-family="Times,serif" font-size="14.00">bgzip v(1.12.0)</text>
</g>
<!-- get_vcf_files_intermediate_step&#45;&gt;compress_vcf_files_step -->
<g id="edge5" class="edge">
<title>get_vcf_files_intermediate_step&#45;&gt;compress_vcf_files_step</title>
<path fill="none" stroke="black" d="M1790.81,-2696.01C1783.81,-2639.51 1761.94,-2463.04 1753.43,-2394.4"/>
<polygon fill="black" stroke="black" points="1756.89,-2393.84 1752.19,-2384.35 1749.94,-2394.7 1756.89,-2393.84"/>
</g>
<!-- index_vcf_files_step -->
<g id="node11" class="node">
<title>index_vcf_files_step</title>
<polygon fill="lightgoldenrodyellow" stroke="black" points="1694,-1998.2 1694,-2035.2 1806,-2035.2 1806,-1998.2 1694,-1998.2"/>
<text text-anchor="middle" x="1750" y="-2013" font-family="Times,serif" font-size="14.00">tabix v(0.2.6)</text>
</g>
<!-- compress_vcf_files_step&#45;&gt;index_vcf_files_step -->
<g id="edge6" class="edge">
<title>compress_vcf_files_step&#45;&gt;index_vcf_files_step</title>
<path fill="none" stroke="black" d="M1750,-2347.01C1750,-2290.51 1750,-2114.04 1750,-2045.4"/>
<polygon fill="black" stroke="black" points="1753.5,-2045.35 1750,-2035.35 1746.5,-2045.35 1753.5,-2045.35"/>
</g>
<!-- index_vcf_files_step&#45;&gt;gather_compressed_vcf_files_into_tar_step -->
<g id="edge25" class="edge">
<title>index_vcf_files_step&#45;&gt;gather_compressed_vcf_files_into_tar_step</title>
<path fill="none" stroke="black" d="M1750,-1998.01C1750,-1941.51 1750,-1765.04 1750,-1696.4"/>
<polygon fill="black" stroke="black" points="1753.5,-1696.35 1750,-1686.35 1746.5,-1696.35 1753.5,-1696.35"/>
</g>
<!-- convert_metric_csvs_into_json_gzip_step -->
<g id="node13" class="node">
<title>convert_metric_csvs_into_json_gzip_step</title>
<polygon fill="lightgoldenrodyellow" stroke="black" points="866,-1649.2 866,-1686.2 1072,-1686.2 1072,-1649.2 866,-1649.2"/>
<text text-anchor="middle" x="969" y="-1664" font-family="Times,serif" font-size="14.00">custom&#45;tsv&#45;to&#45;json v(1.0.0)</text>
</g>
<!-- get_tmb_trace_tsv_intermediate_step&#45;&gt;convert_metric_csvs_into_json_gzip_step -->
<g id="edge7" class="edge">
<title>get_tmb_trace_tsv_intermediate_step&#45;&gt;convert_metric_csvs_into_json_gzip_step</title>
<path fill="none" stroke="black" d="M1085.01,-2696.03C1098.25,-2615.08 1148.43,-2271.73 1097,-1997.7 1074.92,-1880.07 1012.05,-1750.46 983.46,-1695.59"/>
<polygon fill="black" stroke="black" points="986.45,-1693.76 978.7,-1686.54 980.26,-1697.02 986.45,-1693.76"/>
</g>
<!-- convert_metric_csvs_into_json_gzip_step&#45;&gt;gather_compressed_metric_json_files_into_tar_step -->
<g id="edge8" class="edge">
<title>convert_metric_csvs_into_json_gzip_step&#45;&gt;gather_compressed_metric_json_files_into_tar_step</title>
<path fill="none" stroke="black" d="M990.2,-1649.06C1059.05,-1591.8 1276.5,-1410.94 1355.74,-1345.03"/>
<polygon fill="black" stroke="black" points="1358.39,-1347.38 1363.84,-1338.3 1353.91,-1342 1358.39,-1347.38"/>
</g>
<!-- gather_compressed_metric_json_files_into_tar_step&#45;&gt;create_custom_output_entry_list_array_step -->
<g id="edge18" class="edge">
<title>gather_compressed_metric_json_files_into_tar_step&#45;&gt;create_custom_output_entry_list_array_step</title>
<path fill="none" stroke="black" d="M1393.97,-1301.01C1422.75,-1244.28 1512.87,-1066.59 1547.37,-998.56"/>
<polygon fill="black" stroke="black" points="1550.65,-999.85 1552.05,-989.35 1544.4,-996.68 1550.65,-999.85"/>
</g>
<!-- get_one_val_for_skip_rows_parameter -->
<g id="node15" class="node">
<title>get_one_val_for_skip_rows_parameter</title>
<polygon fill="lightgoldenrodyellow" stroke="black" points="948,-1998.2 948,-2035.2 1088,-2035.2 1088,-1998.2 948,-1998.2"/>
<text text-anchor="middle" x="1018" y="-2013" font-family="Times,serif" font-size="14.00">parse&#45;int v(1.0.0)</text>
</g>
<!-- get_one_val_for_skip_rows_parameter&#45;&gt;convert_metric_csvs_into_json_gzip_step -->
<g id="edge9" class="edge">
<title>get_one_val_for_skip_rows_parameter&#45;&gt;convert_metric_csvs_into_json_gzip_step</title>
<path fill="none" stroke="black" d="M1015.5,-1998.01C1007.52,-1941.51 982.61,-1765.04 972.91,-1696.4"/>
<polygon fill="black" stroke="black" points="976.36,-1695.76 971.49,-1686.35 969.42,-1696.74 976.36,-1695.76"/>
</g>
<!-- make_per_coverage_threshold_qc_step&#45;&gt;convert_metric_csvs_into_json_gzip_step -->
<g id="edge10" class="edge">
<title>make_per_coverage_threshold_qc_step&#45;&gt;convert_metric_csvs_into_json_gzip_step</title>
<path fill="none" stroke="black" d="M723.2,-1998.01C765.72,-1941.05 899.26,-1762.13 949.57,-1694.73"/>
<polygon fill="black" stroke="black" points="952.65,-1696.45 955.83,-1686.35 947.04,-1692.27 952.65,-1696.45"/>
</g>
<!-- get_fragment_length_hist_csv_intermediate_step&#45;&gt;convert_metric_csvs_into_json_gzip_step -->
<g id="edge11" class="edge">
<title>get_fragment_length_hist_csv_intermediate_step&#45;&gt;convert_metric_csvs_into_json_gzip_step</title>
<path fill="none" stroke="black" d="M795,-2696C815.8,-2573.16 938.62,-1848.03 964.3,-1696.46"/>
<polygon fill="black" stroke="black" points="967.76,-1697 965.98,-1686.56 960.85,-1695.83 967.76,-1697"/>
</g>
<!-- make_exon_coverage_qc_step&#45;&gt;convert_metric_csvs_into_json_gzip_step -->
<g id="edge12" class="edge">
<title>make_exon_coverage_qc_step&#45;&gt;convert_metric_csvs_into_json_gzip_step</title>
<path fill="none" stroke="black" d="M216.14,-1998.13C348.93,-1940.03 773.77,-1754.12 919.44,-1690.38"/>
<polygon fill="black" stroke="black" points="920.86,-1693.58 928.62,-1686.37 918.06,-1687.17 920.86,-1693.58"/>
</g>
<!-- make_exon_coverage_qc_step&#45;&gt;create_custom_output_entry_list_array_step -->
<g id="edge13" class="edge">
<title>make_exon_coverage_qc_step&#45;&gt;create_custom_output_entry_list_array_step</title>
<path fill="none" stroke="black" d="M199.46,-1998.02C363.74,-1874.18 1340.76,-1137.72 1529.46,-995.47"/>
<polygon fill="black" stroke="black" points="1531.72,-998.15 1537.6,-989.34 1527.51,-992.56 1531.72,-998.15"/>
</g>
<!-- create_custom_output_entry_list_array_step&#45;&gt;create_output_directory -->
<g id="edge17" class="edge">
<title>create_custom_output_entry_list_array_step&#45;&gt;create_output_directory</title>
<path fill="none" stroke="black" d="M1596.17,-952.01C1711.64,-893.94 2079.1,-709.15 2206.78,-644.94"/>
<polygon fill="black" stroke="black" points="2208.54,-647.97 2215.9,-640.35 2205.4,-641.71 2208.54,-647.97"/>
</g>
<!-- get_zero_val_for_skip_rows_parameter -->
<g id="node20" class="node">
<title>get_zero_val_for_skip_rows_parameter</title>
<polygon fill="lightgoldenrodyellow" stroke="black" points="370,-1998.2 370,-2035.2 510,-2035.2 510,-1998.2 370,-1998.2"/>
<text text-anchor="middle" x="440" y="-2013" font-family="Times,serif" font-size="14.00">parse&#45;int v(1.0.0)</text>
</g>
<!-- get_zero_val_for_skip_rows_parameter&#45;&gt;convert_metric_csvs_into_json_gzip_step -->
<g id="edge14" class="edge">
<title>get_zero_val_for_skip_rows_parameter&#45;&gt;convert_metric_csvs_into_json_gzip_step</title>
<path fill="none" stroke="black" d="M466.96,-1998.01C555.05,-1940.23 834.39,-1756.99 933.61,-1691.91"/>
<polygon fill="black" stroke="black" points="935.65,-1694.76 942.09,-1686.35 931.81,-1688.91 935.65,-1694.76"/>
</g>
<!-- get_fusion_csv_intermediate_step&#45;&gt;convert_metric_csvs_into_json_gzip_step -->
<g id="edge15" class="edge">
<title>get_fusion_csv_intermediate_step&#45;&gt;convert_metric_csvs_into_json_gzip_step</title>
<path fill="none" stroke="black" d="M1327.94,-2696.14C1300.18,-2600.06 1165.87,-2137.21 1114,-1997.7 1071.32,-1882.9 1008.88,-1750.8 982.05,-1695.36"/>
<polygon fill="black" stroke="black" points="985.13,-1693.69 977.61,-1686.22 978.83,-1696.75 985.13,-1693.69"/>
</g>
<!-- get_fusion_csv_intermediate_step&#45;&gt;create_custom_output_entry_list_array_step -->
<g id="edge16" class="edge">
<title>get_fusion_csv_intermediate_step&#45;&gt;create_custom_output_entry_list_array_step</title>
<path fill="none" stroke="black" d="M1329.5,-2696.04C1314.21,-2617.21 1254,-2289.49 1254,-2017.7 1254,-2017.7 1254,-2017.7 1254,-1666.7 1254,-1503.81 1211.76,-1451.63 1273,-1300.7 1328.59,-1163.7 1466.28,-1044.74 1528.98,-995.66"/>
<polygon fill="black" stroke="black" points="1531.2,-998.36 1536.96,-989.47 1526.91,-992.83 1531.2,-998.36"/>
</g>
<!-- create_output_directory&#45;&gt;post_processing_output_directory -->
<g id="edge23" class="edge">
<title>create_output_directory&#45;&gt;post_processing_output_directory</title>
<path fill="none" stroke="black" d="M2251,-603.06C2251,-546.72 2251,-370.77 2251,-302.32"/>
<polygon fill="black" stroke="black" points="2254.5,-302.3 2251,-292.3 2247.5,-302.3 2254.5,-302.3"/>
</g>
<!-- run_dragen_multiqc_on_align_collapse_fusion_caller_dir_step&#45;&gt;create_custom_output_entry_list_array_step -->
<g id="edge20" class="edge">
<title>run_dragen_multiqc_on_align_collapse_fusion_caller_dir_step&#45;&gt;create_custom_output_entry_list_array_step</title>
<path fill="none" stroke="black" d="M3037.67,-2695.96C3031.87,-2616.83 3009,-2288.01 3009,-2017.7 3009,-2017.7 3009,-2017.7 3009,-1666.7 3009,-1139.43 2219.01,-1011.9 1806.05,-981.25"/>
<polygon fill="black" stroke="black" points="1806.29,-977.76 1796.06,-980.53 1805.78,-984.74 1806.29,-977.76"/>
</g>
<!-- gather_compressed_vcf_files_into_tar_step&#45;&gt;create_custom_output_entry_list_array_step -->
<g id="edge21" class="edge">
<title>gather_compressed_vcf_files_into_tar_step&#45;&gt;create_custom_output_entry_list_array_step</title>
<path fill="none" stroke="black" d="M1745.23,-1649.17C1719.78,-1555.57 1599.86,-1114.58 1568.51,-999.32"/>
<polygon fill="black" stroke="black" points="1571.84,-998.23 1565.84,-989.49 1565.09,-1000.06 1571.84,-998.23"/>
</g>
<!-- dragen_metrics_to_json_step&#45;&gt;create_custom_output_entry_list_array_step -->
<g id="edge22" class="edge">
<title>dragen_metrics_to_json_step&#45;&gt;create_custom_output_entry_list_array_step</title>
<path fill="none" stroke="black" d="M2082.73,-2346.94C2062.93,-2265.6 1976.75,-1920.77 1874,-1648.7 1775.68,-1388.35 1621.84,-1087.99 1575,-998.29"/>
<polygon fill="black" stroke="black" points="1578.05,-996.57 1570.31,-989.34 1571.85,-999.82 1578.05,-996.57"/>
</g>
<!-- get_align_collapse_fusion_caller_metrics_csv_files_intermediate_step&#45;&gt;dragen_metrics_to_json_step -->
<g id="edge24" class="edge">
<title>get_align_collapse_fusion_caller_metrics_csv_files_intermediate_step&#45;&gt;dragen_metrics_to_json_step</title>
<path fill="none" stroke="black" d="M2053.78,-2696.01C2059.48,-2639.51 2077.28,-2463.04 2084.21,-2394.4"/>
<polygon fill="black" stroke="black" points="2087.7,-2394.65 2085.22,-2384.35 2080.73,-2393.95 2087.7,-2394.65"/>
</g>
<!-- mosdepth_step&#45;&gt;make_per_coverage_threshold_qc_step -->
<g id="edge26" class="edge">
<title>mosdepth_step&#45;&gt;make_per_coverage_threshold_qc_step</title>
<path fill="none" stroke="black" d="M495.52,-2347.01C532.62,-2290.05 649.15,-2111.13 693.05,-2043.73"/>
<polygon fill="black" stroke="black" points="695.98,-2045.64 698.51,-2035.35 690.11,-2041.82 695.98,-2045.64"/>
</g>
<!-- mosdepth_step&#45;&gt;make_exon_coverage_qc_step -->
<g id="edge27" class="edge">
<title>mosdepth_step&#45;&gt;make_exon_coverage_qc_step</title>
<path fill="none" stroke="black" d="M468.3,-2347.01C417.53,-2289.81 257.63,-2109.67 198.38,-2042.91"/>
<polygon fill="black" stroke="black" points="200.92,-2040.5 191.67,-2035.35 195.69,-2045.15 200.92,-2040.5"/>
</g>
<!-- get_raw_bam_file_intermediate_step&#45;&gt;mosdepth_step -->
<g id="edge28" class="edge">
<title>get_raw_bam_file_intermediate_step&#45;&gt;mosdepth_step</title>
<path fill="none" stroke="black" d="M484,-2696.01C484,-2639.51 484,-2463.04 484,-2394.4"/>
<polygon fill="black" stroke="black" points="487.5,-2394.35 484,-2384.35 480.5,-2394.35 487.5,-2394.35"/>
</g>
<!-- create_dummy_file_step -->
<g id="node29" class="node">
<title>create_dummy_file_step</title>
<polygon fill="lightgoldenrodyellow" stroke="black" points="2908.5,-3058.2 2908.5,-3095.2 3169.5,-3095.2 3169.5,-3058.2 2908.5,-3058.2"/>
<text text-anchor="middle" x="3039" y="-3073" font-family="Times,serif" font-size="14.00">custom&#45;create&#45;dummy&#45;file v(1.0.0)</text>
</g>
<!-- create_dummy_file_step&#45;&gt;run_dragen_multiqc_on_align_collapse_fusion_caller_dir_step -->
<g id="edge29" class="edge">
<title>create_dummy_file_step&#45;&gt;run_dragen_multiqc_on_align_collapse_fusion_caller_dir_step</title>
<path fill="none" stroke="black" d="M3039,-3057.85C3039,-2999.53 3039,-2814.36 3039,-2743.57"/>
<polygon fill="black" stroke="black" points="3042.5,-2743.23 3039,-2733.23 3035.5,-2743.23 3042.5,-2743.23"/>
</g>
<!-- \n -->
<g id="node30" class="node">
<title>\n</title>
<ellipse fill="none" stroke="black" cx="3215" cy="-3076.7" rx="27" ry="18"/>
</g>
</g>
</svg>
