<?xml version="1.0" encoding="UTF-8" standalone="no"?>
<!DOCTYPE svg PUBLIC "-//W3C//DTD SVG 1.1//EN"
 "http://www.w3.org/Graphics/SVG/1.1/DTD/svg11.dtd">
<!-- Generated by graphviz version 2.43.0 (0)
 -->
<!-- Title: G Pages: 1 -->
<svg width="3012pt" height="2946pt"
 viewBox="0.00 0.00 3012.32 2946.00" xmlns="http://www.w3.org/2000/svg" xmlns:xlink="http://www.w3.org/1999/xlink">
<g id="graph0" class="graph" transform="scale(1 1) rotate(0) translate(4 2942)">
<title>G</title>
<polygon fill="#eeeeee" stroke="transparent" points="-4,4 -4,-2942 3008.32,-2942 3008.32,4 -4,4"/>
<g id="clust1" class="cluster">
<title>cluster_inputs</title>
<polygon fill="#eeeeee" stroke="black" stroke-dasharray="5,2" points="1415.32,-2575.02 1415.32,-2903.84 1799.32,-2903.84 1799.32,-2575.02 1415.32,-2575.02"/>
<text text-anchor="middle" x="1732.82" y="-2582.82" font-family="Times,serif" font-size="14.00">Workflow Inputs</text>
</g>
<g id="clust2" class="cluster">
<title>cluster_outputs</title>
<polygon fill="#eeeeee" stroke="black" stroke-dasharray="5,2" points="579.32,-34.16 579.32,-362.98 853.32,-362.98 853.32,-34.16 579.32,-34.16"/>
<text text-anchor="middle" x="780.82" y="-41.96" font-family="Times,serif" font-size="14.00">Workflow Outputs</text>
</g>
<!-- tso500_outputs_by_sample -->
<g id="node1" class="node">
<title>tso500_outputs_by_sample</title>
<polygon fill="#94ddf4" stroke="black" points="1581.82,-2769.66 1581.82,-2806.66 1790.82,-2806.66 1790.82,-2769.66 1581.82,-2769.66"/>
<text text-anchor="middle" x="1686.32" y="-2784.46" font-family="Times,serif" font-size="14.00">tso500_outputs_by_sample</text>
</g>
<!-- get_msi_json_intermediate_step -->
<g id="node4" class="node">
<title>get_msi_json_intermediate_step</title>
<polygon fill="lightgoldenrodyellow" stroke="black" points="1893.82,-2441.66 1893.82,-2478.66 2126.82,-2478.66 2126.82,-2441.66 1893.82,-2441.66"/>
<text text-anchor="middle" x="2010.32" y="-2456.46" font-family="Times,serif" font-size="14.00">get&#45;file&#45;from&#45;directory v(1.0.0)</text>
</g>
<!-- tso500_outputs_by_sample&#45;&gt;get_msi_json_intermediate_step -->
<g id="edge30" class="edge">
<title>tso500_outputs_by_sample&#45;&gt;get_msi_json_intermediate_step</title>
<path fill="none" stroke="black" d="M1700.47,-2769.64C1750.07,-2715.24 1914.93,-2549.19 1981.88,-2485.96"/>
<polygon fill="black" stroke="black" points="1984.64,-2488.17 1989.54,-2478.78 1979.85,-2483.06 1984.64,-2488.17"/>
</g>
<!-- tso500_outputs_by_sample&#45;&gt;get_msi_json_intermediate_step -->
<g id="edge31" class="edge">
<title>tso500_outputs_by_sample&#45;&gt;get_msi_json_intermediate_step</title>
<path fill="none" stroke="black" d="M1707,-2769.64C1765.41,-2715.35 1930.06,-2549.86 1989.1,-2486.35"/>
<polygon fill="black" stroke="black" points="1991.88,-2488.5 1996.08,-2478.78 1986.73,-2483.76 1991.88,-2488.5"/>
</g>
<!-- gather_compressed_reporting_json_files_into_tar_step -->
<g id="node6" class="node">
<title>gather_compressed_reporting_json_files_into_tar_step</title>
<polygon fill="lightgoldenrodyellow" stroke="black" points="1856.32,-1809.66 1856.32,-1846.66 2062.32,-1846.66 2062.32,-1809.66 1856.32,-1809.66"/>
<text text-anchor="middle" x="1959.32" y="-1824.46" font-family="Times,serif" font-size="14.00">custom&#45;tar&#45;file&#45;list v(1.0.0)</text>
</g>
<!-- tso500_outputs_by_sample&#45;&gt;gather_compressed_reporting_json_files_into_tar_step -->
<g id="edge45" class="edge">
<title>tso500_outputs_by_sample&#45;&gt;gather_compressed_reporting_json_files_into_tar_step</title>
<path fill="none" stroke="black" d="M1678.8,-2769.66C1657.87,-2718.49 1602.4,-2564.98 1633.32,-2441.16 1695.23,-2193.24 1878.6,-1935.7 1939.45,-1854.94"/>
<polygon fill="black" stroke="black" points="1942.34,-1856.91 1945.6,-1846.82 1936.77,-1852.68 1942.34,-1856.91"/>
</g>
<!-- get_sample_analysis_results_intermediate_step -->
<g id="node7" class="node">
<title>get_sample_analysis_results_intermediate_step</title>
<polygon fill="lightgoldenrodyellow" stroke="black" points="2145.32,-2441.66 2145.32,-2478.66 2287.32,-2478.66 2287.32,-2441.66 2145.32,-2441.66"/>
<text text-anchor="middle" x="2216.32" y="-2456.46" font-family="Times,serif" font-size="14.00">parse&#45;file v(1.0.0)</text>
</g>
<!-- tso500_outputs_by_sample&#45;&gt;get_sample_analysis_results_intermediate_step -->
<g id="edge32" class="edge">
<title>tso500_outputs_by_sample&#45;&gt;get_sample_analysis_results_intermediate_step</title>
<path fill="none" stroke="black" d="M1714.81,-2769.64C1804.14,-2714.69 2078.71,-2545.8 2179.08,-2484.07"/>
<polygon fill="black" stroke="black" points="2181,-2487 2187.68,-2478.78 2177.33,-2481.03 2181,-2487"/>
</g>
<!-- get_tmb_json_intermediate_step -->
<g id="node8" class="node">
<title>get_tmb_json_intermediate_step</title>
<polygon fill="lightgoldenrodyellow" stroke="black" points="1642.82,-2441.66 1642.82,-2478.66 1875.82,-2478.66 1875.82,-2441.66 1642.82,-2441.66"/>
<text text-anchor="middle" x="1759.32" y="-2456.46" font-family="Times,serif" font-size="14.00">get&#45;file&#45;from&#45;directory v(1.0.0)</text>
</g>
<!-- tso500_outputs_by_sample&#45;&gt;get_tmb_json_intermediate_step -->
<g id="edge33" class="edge">
<title>tso500_outputs_by_sample&#45;&gt;get_tmb_json_intermediate_step</title>
<path fill="none" stroke="black" d="M1686.98,-2769.64C1694.58,-2716.02 1730.65,-2553.89 1749.18,-2488.72"/>
<polygon fill="black" stroke="black" points="1752.64,-2489.36 1752.1,-2478.78 1745.93,-2487.38 1752.64,-2489.36"/>
</g>
<!-- tso500_outputs_by_sample&#45;&gt;get_tmb_json_intermediate_step -->
<g id="edge34" class="edge">
<title>tso500_outputs_by_sample&#45;&gt;get_tmb_json_intermediate_step</title>
<path fill="none" stroke="black" d="M1693.5,-2769.64C1709.91,-2716.02 1746.45,-2553.89 1757.11,-2488.72"/>
<polygon fill="black" stroke="black" points="1760.58,-2489.19 1758.64,-2478.78 1753.66,-2488.13 1760.58,-2489.19"/>
</g>
<!-- get_vcf_files_intermediate_step -->
<g id="node9" class="node">
<title>get_vcf_files_intermediate_step</title>
<polygon fill="lightgoldenrodyellow" stroke="black" points="1306.82,-2441.66 1306.82,-2478.66 1547.82,-2478.66 1547.82,-2441.66 1306.82,-2441.66"/>
<text text-anchor="middle" x="1427.32" y="-2456.46" font-family="Times,serif" font-size="14.00">get&#45;files&#45;from&#45;directory v(1.0.0)</text>
</g>
<!-- tso500_outputs_by_sample&#45;&gt;get_vcf_files_intermediate_step -->
<g id="edge35" class="edge">
<title>tso500_outputs_by_sample&#45;&gt;get_vcf_files_intermediate_step</title>
<path fill="none" stroke="black" d="M1669.13,-2769.64C1621.74,-2715.57 1490.95,-2551.21 1444.08,-2487.13"/>
<polygon fill="black" stroke="black" points="1446.74,-2484.83 1438.04,-2478.78 1441.06,-2488.93 1446.74,-2484.83"/>
</g>
<!-- tso500_outputs_by_sample&#45;&gt;get_vcf_files_intermediate_step -->
<g id="edge36" class="edge">
<title>tso500_outputs_by_sample&#45;&gt;get_vcf_files_intermediate_step</title>
<path fill="none" stroke="black" d="M1675.65,-2769.64C1636.98,-2715.35 1505.69,-2549.86 1451.15,-2486.35"/>
<polygon fill="black" stroke="black" points="1453.78,-2484.04 1444.58,-2478.78 1448.49,-2488.63 1453.78,-2484.04"/>
</g>
<!-- gather_compressed_metric_json_files_into_tar_step -->
<g id="node14" class="node">
<title>gather_compressed_metric_json_files_into_tar_step</title>
<polygon fill="lightgoldenrodyellow" stroke="black" points="621.32,-1177.66 621.32,-1214.66 827.32,-1214.66 827.32,-1177.66 621.32,-1177.66"/>
<text text-anchor="middle" x="724.32" y="-1192.46" font-family="Times,serif" font-size="14.00">custom&#45;tar&#45;file&#45;list v(1.0.0)</text>
</g>
<!-- tso500_outputs_by_sample&#45;&gt;gather_compressed_metric_json_files_into_tar_step -->
<g id="edge52" class="edge">
<title>tso500_outputs_by_sample&#45;&gt;gather_compressed_metric_json_files_into_tar_step</title>
<path fill="none" stroke="black" d="M1651.15,-2769.6C1629,-2759.16 1599.54,-2746.39 1572.32,-2738.16 959.46,-2553.03 641.95,-2895.17 155.32,-2479.16 35.76,-2376.96 38.32,-2302.45 38.32,-2145.16 38.32,-2145.16 38.32,-2145.16 38.32,-1827.16 38.32,-1488.28 498.07,-1282.03 664.82,-1218.37"/>
<polygon fill="black" stroke="black" points="666.31,-1221.55 674.43,-1214.74 663.84,-1215 666.31,-1221.55"/>
</g>
<!-- get_fusion_csv_intermediate_step -->
<g id="node15" class="node">
<title>get_fusion_csv_intermediate_step</title>
<polygon fill="lightgoldenrodyellow" stroke="black" points="1055.82,-2441.66 1055.82,-2478.66 1288.82,-2478.66 1288.82,-2441.66 1055.82,-2441.66"/>
<text text-anchor="middle" x="1172.32" y="-2456.46" font-family="Times,serif" font-size="14.00">get&#45;file&#45;from&#45;directory v(1.0.0)</text>
</g>
<!-- tso500_outputs_by_sample&#45;&gt;get_fusion_csv_intermediate_step -->
<g id="edge37" class="edge">
<title>tso500_outputs_by_sample&#45;&gt;get_fusion_csv_intermediate_step</title>
<path fill="none" stroke="black" d="M1655.42,-2769.64C1564.46,-2714.8 1298.93,-2546.48 1205.33,-2484.44"/>
<polygon fill="black" stroke="black" points="1207.08,-2481.4 1196.82,-2478.78 1203.2,-2487.23 1207.08,-2481.4"/>
</g>
<!-- tso500_outputs_by_sample&#45;&gt;get_fusion_csv_intermediate_step -->
<g id="edge38" class="edge">
<title>tso500_outputs_by_sample&#45;&gt;get_fusion_csv_intermediate_step</title>
<path fill="none" stroke="black" d="M1661.94,-2769.64C1579.82,-2714.69 1313.68,-2545.8 1212.1,-2484.07"/>
<polygon fill="black" stroke="black" points="1213.73,-2480.96 1203.36,-2478.78 1210.1,-2486.95 1213.73,-2480.96"/>
</g>
<!-- create_custom_output_entry_list_array_step -->
<g id="node16" class="node">
<title>create_custom_output_entry_list_array_step</title>
<polygon fill="lightgoldenrodyellow" stroke="black" points="2423.32,-861.66 2423.32,-898.66 2893.32,-898.66 2893.32,-861.66 2423.32,-861.66"/>
<text text-anchor="middle" x="2658.32" y="-876.46" font-family="Times,serif" font-size="14.00">get&#45;custom&#45;output&#45;dir&#45;entry&#45;for&#45;tso500&#45;post&#45;processing v(2.0.1)</text>
</g>
<!-- tso500_outputs_by_sample&#45;&gt;create_custom_output_entry_list_array_step -->
<g id="edge46" class="edge">
<title>tso500_outputs_by_sample&#45;&gt;create_custom_output_entry_list_array_step</title>
<path fill="none" stroke="black" d="M1791.12,-2779.86C1971.18,-2761.74 2334.22,-2698.65 2533.32,-2479.16 2635.87,-2366.1 2613.32,-2297.81 2613.32,-2145.16 2613.32,-2145.16 2613.32,-2145.16 2613.32,-1511.16 2613.32,-1277.84 2613.32,-995.9 2639.36,-908.39"/>
<polygon fill="black" stroke="black" points="2642.75,-909.29 2642.66,-898.7 2636.12,-907.03 2642.75,-909.29"/>
</g>
<!-- tso500_outputs_by_sample&#45;&gt;create_custom_output_entry_list_array_step -->
<g id="edge47" class="edge">
<title>tso500_outputs_by_sample&#45;&gt;create_custom_output_entry_list_array_step</title>
<path fill="none" stroke="black" d="M1791.03,-2780.97C1973.55,-2764.37 2347.96,-2703.35 2551.32,-2479.16 2653.87,-2366.1 2631.32,-2297.81 2631.32,-2145.16 2631.32,-2145.16 2631.32,-2145.16 2631.32,-1511.16 2631.32,-1278.07 2631.32,-996.47 2646.89,-908.66"/>
<polygon fill="black" stroke="black" points="2650.36,-909.2 2648.92,-898.7 2643.5,-907.8 2650.36,-909.2"/>
</g>
<!-- tso500_outputs_by_sample&#45;&gt;create_custom_output_entry_list_array_step -->
<g id="edge48" class="edge">
<title>tso500_outputs_by_sample&#45;&gt;create_custom_output_entry_list_array_step</title>
<path fill="none" stroke="black" d="M1790.98,-2781.92C1976.28,-2766.78 2361.83,-2707.9 2569.32,-2479.16 2671.87,-2366.1 2649.32,-2297.81 2649.32,-2145.16 2649.32,-2145.16 2649.32,-2145.16 2649.32,-1511.16 2649.32,-1278.31 2649.32,-997.04 2654.49,-908.93"/>
<polygon fill="black" stroke="black" points="2658,-908.91 2655.19,-898.7 2651.02,-908.44 2658,-908.91"/>
</g>
<!-- tso500_outputs_by_sample&#45;&gt;create_custom_output_entry_list_array_step -->
<g id="edge49" class="edge">
<title>tso500_outputs_by_sample&#45;&gt;create_custom_output_entry_list_array_step</title>
<path fill="none" stroke="black" d="M1790.9,-2782.75C1979.38,-2768.98 2375.84,-2712.3 2587.32,-2479.16 2689.87,-2366.1 2667.32,-2297.81 2667.32,-2145.16 2667.32,-2145.16 2667.32,-2145.16 2667.32,-1511.16 2667.32,-1278.31 2667.32,-997.04 2662.14,-908.93"/>
<polygon fill="black" stroke="black" points="2665.62,-908.44 2661.45,-898.7 2658.63,-908.91 2665.62,-908.44"/>
</g>
<!-- tso500_outputs_by_sample&#45;&gt;create_custom_output_entry_list_array_step -->
<g id="edge50" class="edge">
<title>tso500_outputs_by_sample&#45;&gt;create_custom_output_entry_list_array_step</title>
<path fill="none" stroke="black" d="M1791.15,-2783.44C1983.4,-2770.92 2390.13,-2716.4 2605.32,-2479.16 2707.87,-2366.1 2685.32,-2297.81 2685.32,-2145.16 2685.32,-2145.16 2685.32,-2145.16 2685.32,-1511.16 2685.32,-1278.07 2685.32,-996.47 2669.74,-908.66"/>
<polygon fill="black" stroke="black" points="2673.14,-907.8 2667.71,-898.7 2666.28,-909.2 2673.14,-907.8"/>
</g>
<!-- tso500_outputs_by_sample&#45;&gt;create_custom_output_entry_list_array_step -->
<g id="edge51" class="edge">
<title>tso500_outputs_by_sample&#45;&gt;create_custom_output_entry_list_array_step</title>
<path fill="none" stroke="black" d="M1790.94,-2784.05C1987.3,-2772.75 2404.41,-2720.49 2623.32,-2479.16 2725.87,-2366.1 2703.32,-2297.81 2703.32,-2145.16 2703.32,-2145.16 2703.32,-2145.16 2703.32,-1511.16 2703.32,-1277.84 2703.32,-995.9 2677.28,-908.39"/>
<polygon fill="black" stroke="black" points="2680.51,-907.03 2673.97,-898.7 2673.89,-909.29 2680.51,-907.03"/>
</g>
<!-- get_tmb_trace_tsv_intermediate_step -->
<g id="node18" class="node">
<title>get_tmb_trace_tsv_intermediate_step</title>
<polygon fill="lightgoldenrodyellow" stroke="black" points="804.82,-2441.66 804.82,-2478.66 1037.82,-2478.66 1037.82,-2441.66 804.82,-2441.66"/>
<text text-anchor="middle" x="921.32" y="-2456.46" font-family="Times,serif" font-size="14.00">get&#45;file&#45;from&#45;directory v(1.0.0)</text>
</g>
<!-- tso500_outputs_by_sample&#45;&gt;get_tmb_trace_tsv_intermediate_step -->
<g id="edge39" class="edge">
<title>tso500_outputs_by_sample&#45;&gt;get_tmb_trace_tsv_intermediate_step</title>
<path fill="none" stroke="black" d="M1637.43,-2769.55C1614.73,-2760.21 1587.58,-2748.54 1563.32,-2738.16 1340.18,-2642.74 1073.69,-2529.61 967.82,-2482.95"/>
<polygon fill="black" stroke="black" points="968.95,-2479.61 958.39,-2478.77 966.12,-2486.02 968.95,-2479.61"/>
</g>
<!-- tso500_outputs_by_sample&#45;&gt;get_tmb_trace_tsv_intermediate_step -->
<g id="edge40" class="edge">
<title>tso500_outputs_by_sample&#45;&gt;get_tmb_trace_tsv_intermediate_step</title>
<path fill="none" stroke="black" d="M1653.45,-2769.55C1632.73,-2760.21 1605.58,-2748.54 1581.32,-2738.16 1357.73,-2642.54 1090.62,-2529.15 976.86,-2482.66"/>
<polygon fill="black" stroke="black" points="977.89,-2479.3 967.31,-2478.77 975.25,-2485.79 977.89,-2479.3"/>
</g>
<!-- make_per_coverage_threshold_qc_step -->
<g id="node19" class="node">
<title>make_per_coverage_threshold_qc_step</title>
<polygon fill="lightgoldenrodyellow" stroke="black" points="594.32,-1809.66 594.32,-1846.66 958.32,-1846.66 958.32,-1809.66 594.32,-1809.66"/>
<text text-anchor="middle" x="776.32" y="-1824.46" font-family="Times,serif" font-size="14.00">custom&#45;tso500&#45;make&#45;region&#45;coverage&#45;qc v(1.0.0)</text>
</g>
<!-- tso500_outputs_by_sample&#45;&gt;make_per_coverage_threshold_qc_step -->
<g id="edge41" class="edge">
<title>tso500_outputs_by_sample&#45;&gt;make_per_coverage_threshold_qc_step</title>
<path fill="none" stroke="black" d="M1649.68,-2769.65C1627.6,-2759.54 1598.74,-2747.11 1572.32,-2738.16 1126.02,-2587.1 833.94,-2850.8 544.32,-2479.16 383.83,-2273.23 664.63,-1946.95 751.76,-1854.39"/>
<polygon fill="black" stroke="black" points="754.53,-1856.56 758.87,-1846.9 749.45,-1851.74 754.53,-1856.56"/>
</g>
<!-- get_fragment_length_hist_csv_intermediate_step -->
<g id="node20" class="node">
<title>get_fragment_length_hist_csv_intermediate_step</title>
<polygon fill="lightgoldenrodyellow" stroke="black" points="553.82,-2441.66 553.82,-2478.66 786.82,-2478.66 786.82,-2441.66 553.82,-2441.66"/>
<text text-anchor="middle" x="670.32" y="-2456.46" font-family="Times,serif" font-size="14.00">get&#45;file&#45;from&#45;directory v(1.0.0)</text>
</g>
<!-- tso500_outputs_by_sample&#45;&gt;get_fragment_length_hist_csv_intermediate_step -->
<g id="edge42" class="edge">
<title>tso500_outputs_by_sample&#45;&gt;get_fragment_length_hist_csv_intermediate_step</title>
<path fill="none" stroke="black" d="M1640.31,-2769.56C1617.26,-2759.73 1589,-2747.59 1563.32,-2738.16 1261.81,-2627.44 893.04,-2523.83 740.94,-2481.39"/>
<polygon fill="black" stroke="black" points="741.81,-2478 731.24,-2478.69 739.93,-2484.74 741.81,-2478"/>
</g>
<!-- tso500_outputs_by_sample&#45;&gt;get_fragment_length_hist_csv_intermediate_step -->
<g id="edge43" class="edge">
<title>tso500_outputs_by_sample&#45;&gt;get_fragment_length_hist_csv_intermediate_step</title>
<path fill="none" stroke="black" d="M1656.11,-2769.56C1635.26,-2759.73 1607,-2747.59 1581.32,-2738.16 1279.51,-2627.33 910.3,-2523.63 750.38,-2481.27"/>
<polygon fill="black" stroke="black" points="751.17,-2477.86 740.61,-2478.69 749.39,-2484.62 751.17,-2477.86"/>
</g>
<!-- make_exon_coverage_qc_step -->
<g id="node21" class="node">
<title>make_exon_coverage_qc_step</title>
<polygon fill="lightgoldenrodyellow" stroke="black" points="66.32,-1809.66 66.32,-1846.66 418.32,-1846.66 418.32,-1809.66 66.32,-1809.66"/>
<text text-anchor="middle" x="242.32" y="-1824.46" font-family="Times,serif" font-size="14.00">custom&#45;tso500&#45;make&#45;exon&#45;coverage&#45;qc v(1.0.0)</text>
</g>
<!-- tso500_outputs_by_sample&#45;&gt;make_exon_coverage_qc_step -->
<g id="edge44" class="edge">
<title>tso500_outputs_by_sample&#45;&gt;make_exon_coverage_qc_step</title>
<path fill="none" stroke="black" d="M1651.14,-2769.63C1628.98,-2759.2 1599.52,-2746.43 1572.32,-2738.16 970.21,-2555.23 582.54,-2963.12 180.32,-2479.16 22.7,-2289.52 177.71,-1952.85 227.86,-1855.94"/>
<polygon fill="black" stroke="black" points="231.1,-1857.3 232.64,-1846.82 224.9,-1854.05 231.1,-1857.3"/>
</g>
<!-- create_output_directory -->
<g id="node22" class="node">
<title>create_output_directory</title>
<polygon fill="lightgoldenrodyellow" stroke="black" points="592.82,-545.66 592.82,-582.66 839.82,-582.66 839.82,-545.66 592.82,-545.66"/>
<text text-anchor="middle" x="716.32" y="-560.46" font-family="Times,serif" font-size="14.00">custom&#45;create&#45;directory v(2.0.1)</text>
</g>
<!-- tso500_outputs_by_sample&#45;&gt;create_output_directory -->
<g id="edge59" class="edge">
<title>tso500_outputs_by_sample&#45;&gt;create_output_directory</title>
<path fill="none" stroke="black" d="M1651.16,-2769.55C1629.02,-2759.09 1599.56,-2746.32 1572.32,-2738.16 941.82,-2549.41 613.93,-2907.59 114.32,-2479.16 -4.75,-2377.06 0.32,-2302.02 0.32,-2145.16 0.32,-2145.16 0.32,-2145.16 0.32,-1195.16 0.32,-849.03 477.76,-648.1 652.9,-586.04"/>
<polygon fill="black" stroke="black" points="654.22,-589.28 662.5,-582.66 651.91,-582.67 654.22,-589.28"/>
</g>
<!-- run_dragen_multiqc_on_align_collapse_fusion_caller_dir_step -->
<g id="node23" class="node">
<title>run_dragen_multiqc_on_align_collapse_fusion_caller_dir_step</title>
<polygon fill="lightgoldenrodyellow" stroke="black" points="2731.82,-2441.66 2731.82,-2478.66 2870.82,-2478.66 2870.82,-2441.66 2731.82,-2441.66"/>
<text text-anchor="middle" x="2801.32" y="-2456.46" font-family="Times,serif" font-size="14.00">multiqc v(1.14.0)</text>
</g>
<!-- tso500_outputs_by_sample&#45;&gt;run_dragen_multiqc_on_align_collapse_fusion_caller_dir_step -->
<g id="edge53" class="edge">
<title>tso500_outputs_by_sample&#45;&gt;run_dragen_multiqc_on_align_collapse_fusion_caller_dir_step</title>
<path fill="none" stroke="black" d="M1736.48,-2769.64C1913.52,-2713.86 2505.72,-2540.65 2721.93,-2481.33"/>
<polygon fill="black" stroke="black" points="2722.91,-2484.69 2731.63,-2478.68 2721.06,-2477.94 2722.91,-2484.69"/>
</g>
<!-- tso500_outputs_by_sample&#45;&gt;run_dragen_multiqc_on_align_collapse_fusion_caller_dir_step -->
<g id="edge54" class="edge">
<title>tso500_outputs_by_sample&#45;&gt;run_dragen_multiqc_on_align_collapse_fusion_caller_dir_step</title>
<path fill="none" stroke="black" d="M1743,-2769.64C1929.02,-2713.91 2520.37,-2540.99 2728.25,-2481.51"/>
<polygon fill="black" stroke="black" points="2729.5,-2484.79 2738.15,-2478.68 2727.57,-2478.06 2729.5,-2484.79"/>
</g>
<!-- tso500_outputs_by_sample&#45;&gt;run_dragen_multiqc_on_align_collapse_fusion_caller_dir_step -->
<g id="edge55" class="edge">
<title>tso500_outputs_by_sample&#45;&gt;run_dragen_multiqc_on_align_collapse_fusion_caller_dir_step</title>
<path fill="none" stroke="black" d="M1749.53,-2769.64C1944.6,-2713.94 2535.61,-2541.16 2734.92,-2481.6"/>
<polygon fill="black" stroke="black" points="2736.1,-2484.9 2744.67,-2478.68 2734.09,-2478.19 2736.1,-2484.9"/>
</g>
<!-- tso500_outputs_by_sample&#45;&gt;run_dragen_multiqc_on_align_collapse_fusion_caller_dir_step -->
<g id="edge56" class="edge">
<title>tso500_outputs_by_sample&#45;&gt;run_dragen_multiqc_on_align_collapse_fusion_caller_dir_step</title>
<path fill="none" stroke="black" d="M1756.05,-2769.64C1960.17,-2713.97 2550.84,-2541.34 2741.61,-2481.69"/>
<polygon fill="black" stroke="black" points="2742.71,-2485.01 2751.2,-2478.68 2740.61,-2478.33 2742.71,-2485.01"/>
</g>
<!-- dragen_metrics_to_json_step -->
<g id="node24" class="node">
<title>dragen_metrics_to_json_step</title>
<polygon fill="lightgoldenrodyellow" stroke="black" points="2071.32,-2125.66 2071.32,-2162.66 2585.32,-2162.66 2585.32,-2125.66 2071.32,-2125.66"/>
<text text-anchor="middle" x="2328.32" y="-2140.46" font-family="Times,serif" font-size="14.00">custom&#45;tso500&#45;align&#45;collapse&#45;fusion&#45;caller&#45;csv&#45;metrics&#45;to&#45;json v(1.0.0)</text>
</g>
<!-- tso500_outputs_by_sample&#45;&gt;dragen_metrics_to_json_step -->
<g id="edge57" class="edge">
<title>tso500_outputs_by_sample&#45;&gt;dragen_metrics_to_json_step</title>
<path fill="none" stroke="black" d="M1791.19,-2786.04C1981.29,-2777.65 2379.45,-2729.4 2556.32,-2479.16 2638.11,-2363.43 2449.16,-2222.55 2365.58,-2168.13"/>
<polygon fill="black" stroke="black" points="2367.42,-2165.16 2357.11,-2162.69 2363.63,-2171.04 2367.42,-2165.16"/>
</g>
<!-- gather_compressed_vcf_files_into_tar_step -->
<g id="node25" class="node">
<title>gather_compressed_vcf_files_into_tar_step</title>
<polygon fill="lightgoldenrodyellow" stroke="black" points="1460.82,-1493.66 1460.82,-1530.66 1691.82,-1530.66 1691.82,-1493.66 1460.82,-1493.66"/>
<text text-anchor="middle" x="1576.32" y="-1508.46" font-family="Times,serif" font-size="14.00">custom&#45;tar&#45;vcf&#45;file&#45;list v(1.0.0)</text>
</g>
<!-- tso500_outputs_by_sample&#45;&gt;gather_compressed_vcf_files_into_tar_step -->
<g id="edge58" class="edge">
<title>tso500_outputs_by_sample&#45;&gt;gather_compressed_vcf_files_into_tar_step</title>
<path fill="none" stroke="black" d="M1681.74,-2769.61C1669.75,-2722.81 1637.39,-2590.99 1623.32,-2479.16 1576.86,-2109.99 1575.61,-1656.11 1576.12,-1540.8"/>
<polygon fill="black" stroke="black" points="1579.62,-1540.73 1576.17,-1530.72 1572.62,-1540.7 1579.62,-1540.73"/>
</g>
<!-- get_align_collapse_fusion_caller_metrics_csv_files_intermediate_step -->
<g id="node26" class="node">
<title>get_align_collapse_fusion_caller_metrics_csv_files_intermediate_step</title>
<polygon fill="lightgoldenrodyellow" stroke="black" points="2305.82,-2441.66 2305.82,-2478.66 2546.82,-2478.66 2546.82,-2441.66 2305.82,-2441.66"/>
<text text-anchor="middle" x="2426.32" y="-2456.46" font-family="Times,serif" font-size="14.00">get&#45;files&#45;from&#45;directory v(1.0.0)</text>
</g>
<!-- tso500_outputs_by_sample&#45;&gt;get_align_collapse_fusion_caller_metrics_csv_files_intermediate_step -->
<g id="edge60" class="edge">
<title>tso500_outputs_by_sample&#45;&gt;get_align_collapse_fusion_caller_metrics_csv_files_intermediate_step</title>
<path fill="none" stroke="black" d="M1722.84,-2769.64C1843.9,-2714.3 2231.69,-2543.42 2373.67,-2482.78"/>
<polygon fill="black" stroke="black" points="2375.24,-2485.92 2383.06,-2478.78 2372.49,-2479.48 2375.24,-2485.92"/>
</g>
<!-- tso500_outputs_by_sample&#45;&gt;get_align_collapse_fusion_caller_metrics_csv_files_intermediate_step -->
<g id="edge61" class="edge">
<title>tso500_outputs_by_sample&#45;&gt;get_align_collapse_fusion_caller_metrics_csv_files_intermediate_step</title>
<path fill="none" stroke="black" d="M1729.37,-2769.64C1859.38,-2714.36 2246.74,-2543.76 2380.42,-2482.96"/>
<polygon fill="black" stroke="black" points="2381.96,-2486.11 2389.6,-2478.78 2379.05,-2479.74 2381.96,-2486.11"/>
</g>
<!-- mosdepth_step -->
<g id="node27" class="node">
<title>mosdepth_step</title>
<polygon fill="lightgoldenrodyellow" stroke="black" points="251.32,-2125.66 251.32,-2162.66 397.32,-2162.66 397.32,-2125.66 251.32,-2125.66"/>
<text text-anchor="middle" x="324.32" y="-2140.46" font-family="Times,serif" font-size="14.00">mosdepth v(0.3.1)</text>
</g>
<!-- tso500_outputs_by_sample&#45;&gt;mosdepth_step -->
<g id="edge62" class="edge">
<title>tso500_outputs_by_sample&#45;&gt;mosdepth_step</title>
<path fill="none" stroke="black" d="M1649.7,-2769.57C1627.64,-2759.44 1598.77,-2747.01 1572.32,-2738.16 1111.97,-2584.23 897.76,-2772.89 511.32,-2479.16 404.57,-2398.02 349.93,-2237.31 331.57,-2172.86"/>
<polygon fill="black" stroke="black" points="334.88,-2171.72 328.83,-2163.02 328.14,-2173.59 334.88,-2171.72"/>
</g>
<!-- get_raw_bam_file_intermediate_step -->
<g id="node28" class="node">
<title>get_raw_bam_file_intermediate_step</title>
<polygon fill="lightgoldenrodyellow" stroke="black" points="189.82,-2441.66 189.82,-2478.66 458.82,-2478.66 458.82,-2441.66 189.82,-2441.66"/>
<text text-anchor="middle" x="324.32" y="-2456.46" font-family="Times,serif" font-size="14.00">get&#45;bam&#45;file&#45;from&#45;directory v(1.0.0)</text>
</g>
<!-- tso500_outputs_by_sample&#45;&gt;get_raw_bam_file_intermediate_step -->
<g id="edge63" class="edge">
<title>tso500_outputs_by_sample&#45;&gt;get_raw_bam_file_intermediate_step</title>
<path fill="none" stroke="black" d="M1642.47,-2769.61C1619.17,-2759.36 1590.07,-2746.8 1563.32,-2738.16 1159.51,-2607.84 662.78,-2517.68 440.89,-2480.38"/>
<polygon fill="black" stroke="black" points="441.3,-2476.9 430.86,-2478.7 440.14,-2483.8 441.3,-2476.9"/>
</g>
<!-- tso500_outputs_by_sample&#45;&gt;get_raw_bam_file_intermediate_step -->
<g id="edge64" class="edge">
<title>tso500_outputs_by_sample&#45;&gt;get_raw_bam_file_intermediate_step</title>
<path fill="none" stroke="black" d="M1657.84,-2769.49C1636.95,-2759.27 1607.97,-2746.76 1581.32,-2738.16 1177.31,-2607.77 680.29,-2517.59 451.06,-2480.32"/>
<polygon fill="black" stroke="black" points="451.44,-2476.84 441.01,-2478.7 450.32,-2483.75 451.44,-2476.84"/>
</g>
<!-- tso_manifest_bed -->
<g id="node2" class="node">
<title>tso_manifest_bed</title>
<polygon fill="#94ddf4" stroke="black" points="1423.32,-2769.66 1423.32,-2806.66 1563.32,-2806.66 1563.32,-2769.66 1423.32,-2769.66"/>
<text text-anchor="middle" x="1493.32" y="-2784.46" font-family="Times,serif" font-size="14.00">tso_manifest_bed</text>
</g>
<!-- tso_manifest_bed&#45;&gt;mosdepth_step -->
<g id="edge65" class="edge">
<title>tso_manifest_bed&#45;&gt;mosdepth_step</title>
<path fill="none" stroke="black" d="M1423.03,-2781.83C1173.73,-2761.32 338.29,-2678.48 180.32,-2479.16 100.95,-2379.03 237.01,-2228.52 297.53,-2169.83"/>
<polygon fill="black" stroke="black" points="300.06,-2172.26 304.86,-2162.82 295.22,-2167.2 300.06,-2172.26"/>
</g>
<!-- post_processing_output_directory -->
<g id="node3" class="node">
<title>post_processing_output_directory</title>
<polygon fill="#94ddf4" stroke="black" points="587.82,-229.66 587.82,-266.66 844.82,-266.66 844.82,-229.66 587.82,-229.66"/>
<text text-anchor="middle" x="716.32" y="-244.46" font-family="Times,serif" font-size="14.00">post_processing_output_directory</text>
</g>
<!-- compress_reporting_jsons_with_gzip_step -->
<g id="node5" class="node">
<title>compress_reporting_jsons_with_gzip_step</title>
<polygon fill="lightgoldenrodyellow" stroke="black" points="1865.32,-2125.66 1865.32,-2162.66 2053.32,-2162.66 2053.32,-2125.66 1865.32,-2125.66"/>
<text text-anchor="middle" x="1959.32" y="-2140.46" font-family="Times,serif" font-size="14.00">custom&#45;gzip&#45;file v(1.0.0)</text>
</g>
<!-- get_msi_json_intermediate_step&#45;&gt;compress_reporting_jsons_with_gzip_step -->
<g id="edge1" class="edge">
<title>get_msi_json_intermediate_step&#45;&gt;compress_reporting_jsons_with_gzip_step</title>
<path fill="none" stroke="black" d="M2007.43,-2441.38C1998.94,-2389.14 1974.04,-2235.83 1963.8,-2172.75"/>
<polygon fill="black" stroke="black" points="1967.23,-2172.06 1962.17,-2162.75 1960.32,-2173.18 1967.23,-2172.06"/>
</g>
<!-- compress_reporting_jsons_with_gzip_step&#45;&gt;gather_compressed_reporting_json_files_into_tar_step -->
<g id="edge2" class="edge">
<title>compress_reporting_jsons_with_gzip_step&#45;&gt;gather_compressed_reporting_json_files_into_tar_step</title>
<path fill="none" stroke="black" d="M1959.32,-2125.38C1959.32,-2073.14 1959.32,-1919.83 1959.32,-1856.75"/>
<polygon fill="black" stroke="black" points="1962.82,-1856.75 1959.32,-1846.75 1955.82,-1856.75 1962.82,-1856.75"/>
</g>
<!-- gather_compressed_reporting_json_files_into_tar_step&#45;&gt;create_custom_output_entry_list_array_step -->
<g id="edge17" class="edge">
<title>gather_compressed_reporting_json_files_into_tar_step&#45;&gt;create_custom_output_entry_list_array_step</title>
<path fill="none" stroke="black" d="M1972.35,-1809.53C2057.75,-1693.94 2537.14,-1045.16 2639.2,-907.03"/>
<polygon fill="black" stroke="black" points="2642.25,-908.8 2645.37,-898.68 2636.62,-904.64 2642.25,-908.8"/>
</g>
<!-- get_sample_analysis_results_intermediate_step&#45;&gt;compress_reporting_jsons_with_gzip_step -->
<g id="edge3" class="edge">
<title>get_sample_analysis_results_intermediate_step&#45;&gt;compress_reporting_jsons_with_gzip_step</title>
<path fill="none" stroke="black" d="M2201.76,-2441.38C2158.56,-2388.6 2030.92,-2232.65 1980.32,-2170.83"/>
<polygon fill="black" stroke="black" points="1982.75,-2168.27 1973.71,-2162.75 1977.34,-2172.7 1982.75,-2168.27"/>
</g>
<!-- get_tmb_json_intermediate_step&#45;&gt;compress_reporting_jsons_with_gzip_step -->
<g id="edge4" class="edge">
<title>get_tmb_json_intermediate_step&#45;&gt;compress_reporting_jsons_with_gzip_step</title>
<path fill="none" stroke="black" d="M1770.64,-2441.38C1804.19,-2388.7 1903.19,-2233.29 1942.73,-2171.21"/>
<polygon fill="black" stroke="black" points="1945.69,-2173.06 1948.12,-2162.75 1939.79,-2169.3 1945.69,-2173.06"/>
</g>
<!-- compress_vcf_files_step -->
<g id="node10" class="node">
<title>compress_vcf_files_step</title>
<polygon fill="lightgoldenrodyellow" stroke="black" points="1395.32,-2125.66 1395.32,-2162.66 1519.32,-2162.66 1519.32,-2125.66 1395.32,-2125.66"/>
<text text-anchor="middle" x="1457.32" y="-2140.46" font-family="Times,serif" font-size="14.00">bgzip v(1.12.0)</text>
</g>
<!-- get_vcf_files_intermediate_step&#45;&gt;compress_vcf_files_step -->
<g id="edge5" class="edge">
<title>get_vcf_files_intermediate_step&#45;&gt;compress_vcf_files_step</title>
<path fill="none" stroke="black" d="M1429.02,-2441.38C1434.01,-2389.14 1448.65,-2235.83 1454.68,-2172.75"/>
<polygon fill="black" stroke="black" points="1458.17,-2173.04 1455.64,-2162.75 1451.2,-2172.37 1458.17,-2173.04"/>
</g>
<!-- index_vcf_files_step -->
<g id="node11" class="node">
<title>index_vcf_files_step</title>
<polygon fill="lightgoldenrodyellow" stroke="black" points="1433.32,-1809.66 1433.32,-1846.66 1545.32,-1846.66 1545.32,-1809.66 1433.32,-1809.66"/>
<text text-anchor="middle" x="1489.32" y="-1824.46" font-family="Times,serif" font-size="14.00">tabix v(0.2.6)</text>
</g>
<!-- compress_vcf_files_step&#45;&gt;index_vcf_files_step -->
<g id="edge6" class="edge">
<title>compress_vcf_files_step&#45;&gt;index_vcf_files_step</title>
<path fill="none" stroke="black" d="M1459.13,-2125.38C1464.45,-2073.14 1480.08,-1919.83 1486.51,-1856.75"/>
<polygon fill="black" stroke="black" points="1489.99,-1857.05 1487.52,-1846.75 1483.03,-1856.34 1489.99,-1857.05"/>
</g>
<!-- index_vcf_files_step&#45;&gt;gather_compressed_vcf_files_into_tar_step -->
<g id="edge25" class="edge">
<title>index_vcf_files_step&#45;&gt;gather_compressed_vcf_files_into_tar_step</title>
<path fill="none" stroke="black" d="M1494.24,-1809.38C1508.72,-1757.14 1551.2,-1603.83 1568.67,-1540.75"/>
<polygon fill="black" stroke="black" points="1572.15,-1541.32 1571.44,-1530.75 1565.4,-1539.45 1572.15,-1541.32"/>
</g>
<!-- get_one_val_for_skip_rows_parameter -->
<g id="node12" class="node">
<title>get_one_val_for_skip_rows_parameter</title>
<polygon fill="lightgoldenrodyellow" stroke="black" points="1052.32,-1809.66 1052.32,-1846.66 1192.32,-1846.66 1192.32,-1809.66 1052.32,-1809.66"/>
<text text-anchor="middle" x="1122.32" y="-1824.46" font-family="Times,serif" font-size="14.00">parse&#45;int v(1.0.0)</text>
</g>
<!-- convert_metric_csvs_into_json_gzip_step -->
<g id="node13" class="node">
<title>convert_metric_csvs_into_json_gzip_step</title>
<polygon fill="lightgoldenrodyellow" stroke="black" points="883.32,-1493.66 883.32,-1530.66 1089.32,-1530.66 1089.32,-1493.66 883.32,-1493.66"/>
<text text-anchor="middle" x="986.32" y="-1508.46" font-family="Times,serif" font-size="14.00">custom&#45;tsv&#45;to&#45;json v(1.0.0)</text>
</g>
<!-- get_one_val_for_skip_rows_parameter&#45;&gt;convert_metric_csvs_into_json_gzip_step -->
<g id="edge7" class="edge">
<title>get_one_val_for_skip_rows_parameter&#45;&gt;convert_metric_csvs_into_json_gzip_step</title>
<path fill="none" stroke="black" d="M1114.62,-1809.38C1091.89,-1756.92 1025.04,-1602.56 997.93,-1539.98"/>
<polygon fill="black" stroke="black" points="1001.12,-1538.53 993.93,-1530.75 994.7,-1541.32 1001.12,-1538.53"/>
</g>
<!-- convert_metric_csvs_into_json_gzip_step&#45;&gt;gather_compressed_metric_json_files_into_tar_step -->
<g id="edge8" class="edge">
<title>convert_metric_csvs_into_json_gzip_step&#45;&gt;gather_compressed_metric_json_files_into_tar_step</title>
<path fill="none" stroke="black" d="M971.48,-1493.38C927.35,-1440.49 796.78,-1284.01 745.42,-1222.45"/>
<polygon fill="black" stroke="black" points="748.09,-1220.19 738.99,-1214.75 742.71,-1224.67 748.09,-1220.19"/>
</g>
<!-- gather_compressed_metric_json_files_into_tar_step&#45;&gt;create_custom_output_entry_list_array_step -->
<g id="edge19" class="edge">
<title>gather_compressed_metric_json_files_into_tar_step&#45;&gt;create_custom_output_entry_list_array_step</title>
<path fill="none" stroke="black" d="M827.61,-1178.39C1158.38,-1124.69 2190.15,-957.17 2540.53,-900.29"/>
<polygon fill="black" stroke="black" points="2541.13,-903.73 2550.44,-898.68 2540.01,-896.83 2541.13,-903.73"/>
</g>
<!-- get_fusion_csv_intermediate_step&#45;&gt;convert_metric_csvs_into_json_gzip_step -->
<g id="edge9" class="edge">
<title>get_fusion_csv_intermediate_step&#45;&gt;convert_metric_csvs_into_json_gzip_step</title>
<path fill="none" stroke="black" d="M1177.52,-2441.49C1199.38,-2364.15 1279.14,-2048.74 1201.32,-1809.16 1163.69,-1693.34 1061.82,-1584.96 1013.04,-1537.86"/>
<polygon fill="black" stroke="black" points="1015.34,-1535.21 1005.69,-1530.83 1010.5,-1540.27 1015.34,-1535.21"/>
</g>
<!-- get_fusion_csv_intermediate_step&#45;&gt;create_custom_output_entry_list_array_step -->
<g id="edge10" class="edge">
<title>get_fusion_csv_intermediate_step&#45;&gt;create_custom_output_entry_list_array_step</title>
<path fill="none" stroke="black" d="M1178.72,-2441.65C1205.02,-2368.15 1303.32,-2076.89 1303.32,-1829.16 1303.32,-1829.16 1303.32,-1829.16 1303.32,-1511.16 1303.32,-1027.29 2022.6,-914.07 2413.05,-888.26"/>
<polygon fill="black" stroke="black" points="2413.31,-891.75 2423.07,-887.62 2412.86,-884.77 2413.31,-891.75"/>
</g>
<!-- create_custom_output_entry_list_array_step&#45;&gt;create_output_directory -->
<g id="edge18" class="edge">
<title>create_custom_output_entry_list_array_step&#45;&gt;create_output_directory</title>
<path fill="none" stroke="black" d="M2549.75,-861.61C2212.51,-807.08 1184.79,-640.91 834.63,-584.29"/>
<polygon fill="black" stroke="black" points="835.15,-580.83 824.72,-582.69 834.03,-587.74 835.15,-580.83"/>
</g>
<!-- get_zero_val_for_skip_rows_parameter -->
<g id="node17" class="node">
<title>get_zero_val_for_skip_rows_parameter</title>
<polygon fill="lightgoldenrodyellow" stroke="black" points="436.32,-1809.66 436.32,-1846.66 576.32,-1846.66 576.32,-1809.66 436.32,-1809.66"/>
<text text-anchor="middle" x="506.32" y="-1824.46" font-family="Times,serif" font-size="14.00">parse&#45;int v(1.0.0)</text>
</g>
<!-- get_zero_val_for_skip_rows_parameter&#45;&gt;convert_metric_csvs_into_json_gzip_step -->
<g id="edge11" class="edge">
<title>get_zero_val_for_skip_rows_parameter&#45;&gt;convert_metric_csvs_into_json_gzip_step</title>
<path fill="none" stroke="black" d="M533.15,-1809.61C614.63,-1756.31 859.17,-1596.33 950.98,-1536.28"/>
<polygon fill="black" stroke="black" points="952.92,-1539.19 959.37,-1530.79 949.09,-1533.33 952.92,-1539.19"/>
</g>
<!-- get_tmb_trace_tsv_intermediate_step&#45;&gt;convert_metric_csvs_into_json_gzip_step -->
<g id="edge12" class="edge">
<title>get_tmb_trace_tsv_intermediate_step&#45;&gt;convert_metric_csvs_into_json_gzip_step</title>
<path fill="none" stroke="black" d="M927.79,-2441.47C944.01,-2396.05 986.14,-2271.27 1000.32,-2163.16 1031.7,-1923.88 1000.9,-1630.89 989.89,-1540.81"/>
<polygon fill="black" stroke="black" points="993.36,-1540.34 988.65,-1530.85 986.41,-1541.2 993.36,-1540.34"/>
</g>
<!-- make_per_coverage_threshold_qc_step&#45;&gt;convert_metric_csvs_into_json_gzip_step -->
<g id="edge13" class="edge">
<title>make_per_coverage_threshold_qc_step&#45;&gt;convert_metric_csvs_into_json_gzip_step</title>
<path fill="none" stroke="black" d="M788.21,-1809.38C823.44,-1756.7 927.38,-1601.29 968.9,-1539.21"/>
<polygon fill="black" stroke="black" points="971.91,-1541.01 974.56,-1530.75 966.09,-1537.12 971.91,-1541.01"/>
</g>
<!-- get_fragment_length_hist_csv_intermediate_step&#45;&gt;convert_metric_csvs_into_json_gzip_step -->
<g id="edge14" class="edge">
<title>get_fragment_length_hist_csv_intermediate_step&#45;&gt;convert_metric_csvs_into_json_gzip_step</title>
<path fill="none" stroke="black" d="M682.09,-2441.66C728.81,-2371.1 901.8,-2099.2 967.32,-1847.16 996.01,-1736.79 991.86,-1599.25 988.38,-1541.14"/>
<polygon fill="black" stroke="black" points="991.85,-1540.68 987.72,-1530.92 984.87,-1541.13 991.85,-1540.68"/>
</g>
<!-- make_exon_coverage_qc_step&#45;&gt;convert_metric_csvs_into_json_gzip_step -->
<g id="edge15" class="edge">
<title>make_exon_coverage_qc_step&#45;&gt;convert_metric_csvs_into_json_gzip_step</title>
<path fill="none" stroke="black" d="M283.91,-1809.61C411.22,-1755.88 795.38,-1593.75 934.94,-1534.85"/>
<polygon fill="black" stroke="black" points="936.7,-1537.9 944.56,-1530.79 933.98,-1531.45 936.7,-1537.9"/>
</g>
<!-- make_exon_coverage_qc_step&#45;&gt;create_custom_output_entry_list_array_step -->
<g id="edge16" class="edge">
<title>make_exon_coverage_qc_step&#45;&gt;create_custom_output_entry_list_array_step</title>
<path fill="none" stroke="black" d="M264.31,-1809.38C370.36,-1724.6 842.04,-1358.03 1289.32,-1177.16 1697.73,-1012.01 2213.72,-932.37 2480.48,-899.92"/>
<polygon fill="black" stroke="black" points="2481.14,-903.36 2490.64,-898.69 2480.3,-896.41 2481.14,-903.36"/>
</g>
<!-- create_output_directory&#45;&gt;post_processing_output_directory -->
<g id="edge23" class="edge">
<title>create_output_directory&#45;&gt;post_processing_output_directory</title>
<path fill="none" stroke="black" d="M716.32,-545.38C716.32,-493.14 716.32,-339.83 716.32,-276.75"/>
<polygon fill="black" stroke="black" points="719.82,-276.75 716.32,-266.75 712.82,-276.75 719.82,-276.75"/>
</g>
<!-- run_dragen_multiqc_on_align_collapse_fusion_caller_dir_step&#45;&gt;create_custom_output_entry_list_array_step -->
<g id="edge20" class="edge">
<title>run_dragen_multiqc_on_align_collapse_fusion_caller_dir_step&#45;&gt;create_custom_output_entry_list_array_step</title>
<path fill="none" stroke="black" d="M2799.87,-2441.64C2793.88,-2367.5 2771.32,-2072.25 2771.32,-1829.16 2771.32,-1829.16 2771.32,-1829.16 2771.32,-1511.16 2771.32,-1274.38 2693.03,-995.29 2666.78,-908.37"/>
<polygon fill="black" stroke="black" points="2670.11,-907.29 2663.84,-898.74 2663.41,-909.33 2670.11,-907.29"/>
</g>
<!-- dragen_metrics_to_json_step&#45;&gt;create_custom_output_entry_list_array_step -->
<g id="edge21" class="edge">
<title>dragen_metrics_to_json_step&#45;&gt;create_custom_output_entry_list_array_step</title>
<path fill="none" stroke="black" d="M2332.98,-2125.32C2369.31,-1986.38 2606.78,-1078.27 2651.17,-908.48"/>
<polygon fill="black" stroke="black" points="2654.56,-909.36 2653.7,-898.8 2647.79,-907.59 2654.56,-909.36"/>
</g>
<!-- gather_compressed_vcf_files_into_tar_step&#45;&gt;create_custom_output_entry_list_array_step -->
<g id="edge22" class="edge">
<title>gather_compressed_vcf_files_into_tar_step&#45;&gt;create_custom_output_entry_list_array_step</title>
<path fill="none" stroke="black" d="M1606.39,-1493.66C1759.04,-1404.77 2447.68,-1003.81 2619.42,-903.81"/>
<polygon fill="black" stroke="black" points="2621.26,-906.79 2628.14,-898.73 2617.74,-900.74 2621.26,-906.79"/>
</g>
<!-- get_align_collapse_fusion_caller_metrics_csv_files_intermediate_step&#45;&gt;dragen_metrics_to_json_step -->
<g id="edge24" class="edge">
<title>get_align_collapse_fusion_caller_metrics_csv_files_intermediate_step&#45;&gt;dragen_metrics_to_json_step</title>
<path fill="none" stroke="black" d="M2420.77,-2441.38C2404.43,-2389.03 2356.42,-2235.19 2336.81,-2172.36"/>
<polygon fill="black" stroke="black" points="2340.13,-2171.25 2333.81,-2162.75 2333.44,-2173.34 2340.13,-2171.25"/>
</g>
<!-- mosdepth_step&#45;&gt;make_per_coverage_threshold_qc_step -->
<g id="edge26" class="edge">
<title>mosdepth_step&#45;&gt;make_per_coverage_threshold_qc_step</title>
<path fill="none" stroke="black" d="M349.59,-2125.61C426.16,-2072.42 655.66,-1912.98 742.51,-1852.64"/>
<polygon fill="black" stroke="black" points="744.73,-1855.37 750.95,-1846.79 740.74,-1849.62 744.73,-1855.37"/>
</g>
<!-- mosdepth_step&#45;&gt;make_exon_coverage_qc_step -->
<g id="edge27" class="edge">
<title>mosdepth_step&#45;&gt;make_exon_coverage_qc_step</title>
<path fill="none" stroke="black" d="M319.67,-2125.38C306.03,-2073.14 265.99,-1919.83 249.52,-1856.75"/>
<polygon fill="black" stroke="black" points="252.82,-1855.54 246.91,-1846.75 246.05,-1857.31 252.82,-1855.54"/>
</g>
<!-- get_raw_bam_file_intermediate_step&#45;&gt;mosdepth_step -->
<g id="edge28" class="edge">
<title>get_raw_bam_file_intermediate_step&#45;&gt;mosdepth_step</title>
<path fill="none" stroke="black" d="M324.32,-2441.38C324.32,-2389.14 324.32,-2235.83 324.32,-2172.75"/>
<polygon fill="black" stroke="black" points="327.82,-2172.75 324.32,-2162.75 320.82,-2172.75 327.82,-2172.75"/>
</g>
<!-- create_dummy_file_step -->
<g id="node29" class="node">
<title>create_dummy_file_step</title>
<polygon fill="lightgoldenrodyellow" stroke="black" points="2670.82,-2769.66 2670.82,-2806.66 2931.82,-2806.66 2931.82,-2769.66 2670.82,-2769.66"/>
<text text-anchor="middle" x="2801.32" y="-2784.46" font-family="Times,serif" font-size="14.00">custom&#45;create&#45;dummy&#45;file v(1.0.0)</text>
</g>
<!-- create_dummy_file_step&#45;&gt;run_dragen_multiqc_on_align_collapse_fusion_caller_dir_step -->
<g id="edge29" class="edge">
<title>create_dummy_file_step&#45;&gt;run_dragen_multiqc_on_align_collapse_fusion_caller_dir_step</title>
<path fill="none" stroke="black" d="M2801.32,-2769.64C2801.32,-2716.13 2801.32,-2554.56 2801.32,-2489.13"/>
<polygon fill="black" stroke="black" points="2804.82,-2488.78 2801.32,-2478.78 2797.82,-2488.78 2804.82,-2488.78"/>
</g>
<!-- \n -->
<g id="node30" class="node">
<title>\n</title>
<ellipse fill="none" stroke="black" cx="2977.32" cy="-2788.16" rx="27" ry="18"/>
</g>
</g>
</svg>
