<?xml version="1.0" encoding="UTF-8" standalone="no"?>
<!DOCTYPE svg PUBLIC "-//W3C//DTD SVG 1.1//EN"
 "http://www.w3.org/Graphics/SVG/1.1/DTD/svg11.dtd">
<!-- Generated by graphviz version 2.43.0 (0)
 -->
<!-- Title: G Pages: 1 -->
<svg width="3119pt" height="3119pt"
 viewBox="0.00 0.00 3119.00 3119.00" xmlns="http://www.w3.org/2000/svg" xmlns:xlink="http://www.w3.org/1999/xlink">
<g id="graph0" class="graph" transform="scale(1 1) rotate(0) translate(4 3115)">
<title>G</title>
<polygon fill="#eeeeee" stroke="transparent" points="-4,4 -4,-3115 3115,-3115 3115,4 -4,4"/>
<g id="clust1" class="cluster">
<title>cluster_inputs</title>
<polygon fill="#eeeeee" stroke="black" stroke-dasharray="5,2" points="1563,-2726.65 1563,-3074.83 1947,-3074.83 1947,-2726.65 1563,-2726.65"/>
<text text-anchor="middle" x="1880.5" y="-2734.45" font-family="Times,serif" font-size="14.00">Workflow Inputs</text>
</g>
<g id="clust2" class="cluster">
<title>cluster_outputs</title>
<polygon fill="#eeeeee" stroke="black" stroke-dasharray="5,2" points="830,-36.17 830,-384.35 1104,-384.35 1104,-36.17 830,-36.17"/>
<text text-anchor="middle" x="1031.5" y="-43.97" font-family="Times,serif" font-size="14.00">Workflow Outputs</text>
</g>
<!-- tso500_outputs_by_sample -->
<g id="node1" class="node">
<title>tso500_outputs_by_sample</title>
<polygon fill="#94ddf4" stroke="black" points="1571.5,-2934.67 1571.5,-2971.67 1780.5,-2971.67 1780.5,-2934.67 1571.5,-2934.67"/>
<text text-anchor="middle" x="1676" y="-2949.47" font-family="Times,serif" font-size="14.00">tso500_outputs_by_sample</text>
</g>
<!-- get_msi_json_intermediate_step -->
<g id="node4" class="node">
<title>get_msi_json_intermediate_step</title>
<polygon fill="lightgoldenrodyellow" stroke="black" points="606.5,-2585.67 606.5,-2622.67 839.5,-2622.67 839.5,-2585.67 606.5,-2585.67"/>
<text text-anchor="middle" x="723" y="-2600.47" font-family="Times,serif" font-size="14.00">get&#45;file&#45;from&#45;directory v(1.0.0)</text>
</g>
<!-- tso500_outputs_by_sample&#45;&gt;get_msi_json_intermediate_step -->
<g id="edge30" class="edge">
<title>tso500_outputs_by_sample&#45;&gt;get_msi_json_intermediate_step</title>
<path fill="none" stroke="black" d="M1624.58,-2934.61C1459.84,-2876.33 946.53,-2689.46 777.51,-2626.28"/>
<polygon fill="black" stroke="black" points="778.66,-2622.97 768.06,-2622.74 776.2,-2629.52 778.66,-2622.97"/>
</g>
<!-- tso500_outputs_by_sample&#45;&gt;get_msi_json_intermediate_step -->
<g id="edge31" class="edge">
<title>tso500_outputs_by_sample&#45;&gt;get_msi_json_intermediate_step</title>
<path fill="none" stroke="black" d="M1630.94,-2934.61C1475.39,-2876.27 961.39,-2689.08 783.87,-2626.09"/>
<polygon fill="black" stroke="black" points="785.01,-2622.78 774.42,-2622.74 782.67,-2629.38 785.01,-2622.78"/>
</g>
<!-- gather_compressed_reporting_json_files_into_tar_step -->
<g id="node6" class="node">
<title>gather_compressed_reporting_json_files_into_tar_step</title>
<polygon fill="lightgoldenrodyellow" stroke="black" points="831,-1916.67 831,-1953.67 1037,-1953.67 1037,-1916.67 831,-1916.67"/>
<text text-anchor="middle" x="934" y="-1931.47" font-family="Times,serif" font-size="14.00">custom&#45;tar&#45;file&#45;list v(1.0.0)</text>
</g>
<!-- tso500_outputs_by_sample&#45;&gt;gather_compressed_reporting_json_files_into_tar_step -->
<g id="edge56" class="edge">
<title>tso500_outputs_by_sample&#45;&gt;gather_compressed_reporting_json_files_into_tar_step</title>
<path fill="none" stroke="black" d="M1649.77,-2934.48C1584.01,-2889.11 1409.43,-2762.33 1299,-2623.17 1116.94,-2393.76 981.42,-2060.07 944.23,-1963.37"/>
<polygon fill="black" stroke="black" points="947.39,-1961.85 940.55,-1953.76 940.85,-1964.35 947.39,-1961.85"/>
</g>
<!-- get_sample_analysis_results_intermediate_step -->
<g id="node7" class="node">
<title>get_sample_analysis_results_intermediate_step</title>
<polygon fill="lightgoldenrodyellow" stroke="black" points="858,-2585.67 858,-2622.67 1000,-2622.67 1000,-2585.67 858,-2585.67"/>
<text text-anchor="middle" x="929" y="-2600.47" font-family="Times,serif" font-size="14.00">parse&#45;file v(1.0.0)</text>
</g>
<!-- tso500_outputs_by_sample&#45;&gt;get_sample_analysis_results_intermediate_step -->
<g id="edge32" class="edge">
<title>tso500_outputs_by_sample&#45;&gt;get_sample_analysis_results_intermediate_step</title>
<path fill="none" stroke="black" d="M1638.19,-2934.61C1513.35,-2876.62 1114.5,-2691.34 976.51,-2627.24"/>
<polygon fill="black" stroke="black" points="977.58,-2623.88 967.04,-2622.84 974.63,-2630.23 977.58,-2623.88"/>
</g>
<!-- get_tmb_json_intermediate_step -->
<g id="node8" class="node">
<title>get_tmb_json_intermediate_step</title>
<polygon fill="lightgoldenrodyellow" stroke="black" points="1018.5,-2585.67 1018.5,-2622.67 1251.5,-2622.67 1251.5,-2585.67 1018.5,-2585.67"/>
<text text-anchor="middle" x="1135" y="-2600.47" font-family="Times,serif" font-size="14.00">get&#45;file&#45;from&#45;directory v(1.0.0)</text>
</g>
<!-- tso500_outputs_by_sample&#45;&gt;get_tmb_json_intermediate_step -->
<g id="edge33" class="edge">
<title>tso500_outputs_by_sample&#45;&gt;get_tmb_json_intermediate_step</title>
<path fill="none" stroke="black" d="M1645.24,-2934.49C1550.64,-2876.77 1265.3,-2693.84 1167.89,-2628.58"/>
<polygon fill="black" stroke="black" points="1169.58,-2625.5 1159.33,-2622.82 1165.68,-2631.31 1169.58,-2625.5"/>
</g>
<!-- tso500_outputs_by_sample&#45;&gt;get_tmb_json_intermediate_step -->
<g id="edge34" class="edge">
<title>tso500_outputs_by_sample&#45;&gt;get_tmb_json_intermediate_step</title>
<path fill="none" stroke="black" d="M1651.61,-2934.49C1566.06,-2876.65 1280.02,-2693.1 1174.46,-2628.19"/>
<polygon fill="black" stroke="black" points="1176.06,-2625.06 1165.7,-2622.82 1172.4,-2631.03 1176.06,-2625.06"/>
</g>
<!-- get_vcf_files_intermediate_step -->
<g id="node9" class="node">
<title>get_vcf_files_intermediate_step</title>
<polygon fill="lightgoldenrodyellow" stroke="black" points="2502.5,-2585.67 2502.5,-2622.67 2743.5,-2622.67 2743.5,-2585.67 2502.5,-2585.67"/>
<text text-anchor="middle" x="2623" y="-2600.47" font-family="Times,serif" font-size="14.00">get&#45;files&#45;from&#45;directory v(1.0.0)</text>
</g>
<!-- tso500_outputs_by_sample&#45;&gt;get_vcf_files_intermediate_step -->
<g id="edge35" class="edge">
<title>tso500_outputs_by_sample&#45;&gt;get_vcf_files_intermediate_step</title>
<path fill="none" stroke="black" d="M1707.37,-2934.56C1728.17,-2924.94 1755.94,-2913.03 1781,-2903.17 2066.39,-2790.92 2413.32,-2672.5 2556.46,-2625.81"/>
<polygon fill="black" stroke="black" points="2557.58,-2629.13 2566,-2622.71 2555.41,-2622.47 2557.58,-2629.13"/>
</g>
<!-- tso500_outputs_by_sample&#45;&gt;get_vcf_files_intermediate_step -->
<g id="edge36" class="edge">
<title>tso500_outputs_by_sample&#45;&gt;get_vcf_files_intermediate_step</title>
<path fill="none" stroke="black" d="M1723,-2934.67C1745.95,-2925.04 1773.84,-2913.07 1799,-2903.17 2083.82,-2791.14 2429.93,-2672.97 2565.11,-2626.09"/>
<polygon fill="black" stroke="black" points="2566.56,-2629.29 2574.86,-2622.71 2564.27,-2622.68 2566.56,-2629.29"/>
</g>
<!-- get_fragment_length_hist_csv_intermediate_step -->
<g id="node12" class="node">
<title>get_fragment_length_hist_csv_intermediate_step</title>
<polygon fill="lightgoldenrodyellow" stroke="black" points="1559.5,-2585.67 1559.5,-2622.67 1792.5,-2622.67 1792.5,-2585.67 1559.5,-2585.67"/>
<text text-anchor="middle" x="1676" y="-2600.47" font-family="Times,serif" font-size="14.00">get&#45;file&#45;from&#45;directory v(1.0.0)</text>
</g>
<!-- tso500_outputs_by_sample&#45;&gt;get_fragment_length_hist_csv_intermediate_step -->
<g id="edge37" class="edge">
<title>tso500_outputs_by_sample&#45;&gt;get_fragment_length_hist_csv_intermediate_step</title>
<path fill="none" stroke="black" d="M1672.81,-2934.49C1668.3,-2877.99 1668.07,-2701.52 1672.13,-2632.88"/>
<polygon fill="black" stroke="black" points="1675.63,-2633.04 1672.82,-2622.82 1668.64,-2632.56 1675.63,-2633.04"/>
</g>
<!-- tso500_outputs_by_sample&#45;&gt;get_fragment_length_hist_csv_intermediate_step -->
<g id="edge38" class="edge">
<title>tso500_outputs_by_sample&#45;&gt;get_fragment_length_hist_csv_intermediate_step</title>
<path fill="none" stroke="black" d="M1679.19,-2934.49C1683.7,-2877.99 1683.93,-2701.52 1679.87,-2632.88"/>
<polygon fill="black" stroke="black" points="1683.36,-2632.56 1679.18,-2622.82 1676.37,-2633.04 1683.36,-2632.56"/>
</g>
<!-- gather_compressed_metric_json_files_into_tar_step -->
<g id="node14" class="node">
<title>gather_compressed_metric_json_files_into_tar_step</title>
<polygon fill="lightgoldenrodyellow" stroke="black" points="1488,-1247.67 1488,-1284.67 1694,-1284.67 1694,-1247.67 1488,-1247.67"/>
<text text-anchor="middle" x="1591" y="-1262.47" font-family="Times,serif" font-size="14.00">custom&#45;tar&#45;file&#45;list v(1.0.0)</text>
</g>
<!-- tso500_outputs_by_sample&#45;&gt;gather_compressed_metric_json_files_into_tar_step -->
<g id="edge55" class="edge">
<title>tso500_outputs_by_sample&#45;&gt;gather_compressed_metric_json_files_into_tar_step</title>
<path fill="none" stroke="black" d="M1712.24,-2934.62C1793.22,-2893.23 1988.47,-2781.01 2074,-2623.17 2224.56,-2345.31 2260,-2212.44 2150,-1916.17 2039.74,-1619.22 1725.95,-1367.11 1623.67,-1290.81"/>
<polygon fill="black" stroke="black" points="1625.67,-1287.94 1615.55,-1284.79 1621.5,-1293.56 1625.67,-1287.94"/>
</g>
<!-- get_fusion_csv_intermediate_step -->
<g id="node15" class="node">
<title>get_fusion_csv_intermediate_step</title>
<polygon fill="lightgoldenrodyellow" stroke="black" points="1308.5,-2585.67 1308.5,-2622.67 1541.5,-2622.67 1541.5,-2585.67 1308.5,-2585.67"/>
<text text-anchor="middle" x="1425" y="-2600.47" font-family="Times,serif" font-size="14.00">get&#45;file&#45;from&#45;directory v(1.0.0)</text>
</g>
<!-- tso500_outputs_by_sample&#45;&gt;get_fusion_csv_intermediate_step -->
<g id="edge39" class="edge">
<title>tso500_outputs_by_sample&#45;&gt;get_fusion_csv_intermediate_step</title>
<path fill="none" stroke="black" d="M1660.02,-2934.49C1614.27,-2877.52 1484.65,-2698.61 1440.06,-2631.21"/>
<polygon fill="black" stroke="black" points="1442.98,-2629.28 1434.58,-2622.82 1437.12,-2633.11 1442.98,-2629.28"/>
</g>
<!-- tso500_outputs_by_sample&#45;&gt;get_fusion_csv_intermediate_step -->
<g id="edge40" class="edge">
<title>tso500_outputs_by_sample&#45;&gt;get_fusion_csv_intermediate_step</title>
<path fill="none" stroke="black" d="M1666.39,-2934.49C1629.66,-2877.41 1499.99,-2697.88 1447.28,-2630.8"/>
<polygon fill="black" stroke="black" points="1449.91,-2628.48 1440.95,-2622.82 1444.43,-2632.83 1449.91,-2628.48"/>
</g>
<!-- create_custom_output_entry_list_array_step -->
<g id="node16" class="node">
<title>create_custom_output_entry_list_array_step</title>
<polygon fill="lightgoldenrodyellow" stroke="black" points="0,-912.67 0,-949.67 470,-949.67 470,-912.67 0,-912.67"/>
<text text-anchor="middle" x="235" y="-927.47" font-family="Times,serif" font-size="14.00">get&#45;custom&#45;output&#45;dir&#45;entry&#45;for&#45;tso500&#45;post&#45;processing v(2.0.1)</text>
</g>
<!-- tso500_outputs_by_sample&#45;&gt;create_custom_output_entry_list_array_step -->
<g id="edge45" class="edge">
<title>tso500_outputs_by_sample&#45;&gt;create_custom_output_entry_list_array_step</title>
<path fill="none" stroke="black" d="M1571.29,-2943.79C1272.62,-2915.39 434.5,-2813.82 254,-2623.17 144.68,-2507.71 190,-2430.18 190,-2271.17 190,-2271.17 190,-2271.17 190,-1600.17 190,-1351.15 190,-1049.91 216.55,-959.25"/>
<polygon fill="black" stroke="black" points="219.89,-960.31 219.74,-949.72 213.25,-958.09 219.89,-960.31"/>
</g>
<!-- tso500_outputs_by_sample&#45;&gt;create_custom_output_entry_list_array_step -->
<g id="edge46" class="edge">
<title>tso500_outputs_by_sample&#45;&gt;create_custom_output_entry_list_array_step</title>
<path fill="none" stroke="black" d="M1571.38,-2943.05C1276.45,-2913.66 450.97,-2812.2 272,-2623.17 162.68,-2507.71 208,-2430.18 208,-2271.17 208,-2271.17 208,-2271.17 208,-1600.17 208,-1351.41 208,-1050.53 223.88,-959.53"/>
<polygon fill="black" stroke="black" points="227.32,-960.21 225.85,-949.72 220.45,-958.84 227.32,-960.21"/>
</g>
<!-- tso500_outputs_by_sample&#45;&gt;create_custom_output_entry_list_array_step -->
<g id="edge47" class="edge">
<title>tso500_outputs_by_sample&#45;&gt;create_custom_output_entry_list_array_step</title>
<path fill="none" stroke="black" d="M1571.49,-2942.25C1279.88,-2911.85 467.38,-2810.53 290,-2623.17 180.68,-2507.71 226,-2430.18 226,-2271.17 226,-2271.17 226,-2271.17 226,-1600.17 226,-1351.66 226,-1051.14 231.28,-959.8"/>
<polygon fill="black" stroke="black" points="234.78,-959.93 231.95,-949.72 227.79,-959.47 234.78,-959.93"/>
</g>
<!-- tso500_outputs_by_sample&#45;&gt;create_custom_output_entry_list_array_step -->
<g id="edge48" class="edge">
<title>tso500_outputs_by_sample&#45;&gt;create_custom_output_entry_list_array_step</title>
<path fill="none" stroke="black" d="M1571.37,-2941.36C1282.46,-2909.91 483.69,-2808.74 308,-2623.17 198.68,-2507.71 244,-2430.18 244,-2271.17 244,-2271.17 244,-2271.17 244,-1600.17 244,-1351.66 244,-1051.14 238.72,-959.8"/>
<polygon fill="black" stroke="black" points="242.21,-959.47 238.05,-949.72 235.22,-959.93 242.21,-959.47"/>
</g>
<!-- tso500_outputs_by_sample&#45;&gt;create_custom_output_entry_list_array_step -->
<g id="edge49" class="edge">
<title>tso500_outputs_by_sample&#45;&gt;create_custom_output_entry_list_array_step</title>
<path fill="none" stroke="black" d="M1571.26,-2940.41C1284.67,-2907.9 499.95,-2806.9 326,-2623.17 216.68,-2507.71 262,-2430.18 262,-2271.17 262,-2271.17 262,-2271.17 262,-1600.17 262,-1351.41 262,-1050.53 246.12,-959.53"/>
<polygon fill="black" stroke="black" points="249.55,-958.84 244.15,-949.72 242.68,-960.21 249.55,-958.84"/>
</g>
<!-- tso500_outputs_by_sample&#45;&gt;create_custom_output_entry_list_array_step -->
<g id="edge50" class="edge">
<title>tso500_outputs_by_sample&#45;&gt;create_custom_output_entry_list_array_step</title>
<path fill="none" stroke="black" d="M1571.42,-2939.41C1287.01,-2905.87 516.21,-2805.06 344,-2623.17 234.68,-2507.71 280,-2430.18 280,-2271.17 280,-2271.17 280,-2271.17 280,-1600.17 280,-1351.15 280,-1049.91 253.45,-959.25"/>
<polygon fill="black" stroke="black" points="256.75,-958.09 250.26,-949.72 250.11,-960.31 256.75,-958.09"/>
</g>
<!-- get_tmb_trace_tsv_intermediate_step -->
<g id="node18" class="node">
<title>get_tmb_trace_tsv_intermediate_step</title>
<polygon fill="lightgoldenrodyellow" stroke="black" points="1810.5,-2585.67 1810.5,-2622.67 2043.5,-2622.67 2043.5,-2585.67 1810.5,-2585.67"/>
<text text-anchor="middle" x="1927" y="-2600.47" font-family="Times,serif" font-size="14.00">get&#45;file&#45;from&#45;directory v(1.0.0)</text>
</g>
<!-- tso500_outputs_by_sample&#45;&gt;get_tmb_trace_tsv_intermediate_step -->
<g id="edge41" class="edge">
<title>tso500_outputs_by_sample&#45;&gt;get_tmb_trace_tsv_intermediate_step</title>
<path fill="none" stroke="black" d="M1685.61,-2934.49C1722.34,-2877.41 1852.01,-2697.88 1904.72,-2630.8"/>
<polygon fill="black" stroke="black" points="1907.57,-2632.83 1911.05,-2622.82 1902.09,-2628.48 1907.57,-2632.83"/>
</g>
<!-- tso500_outputs_by_sample&#45;&gt;get_tmb_trace_tsv_intermediate_step -->
<g id="edge42" class="edge">
<title>tso500_outputs_by_sample&#45;&gt;get_tmb_trace_tsv_intermediate_step</title>
<path fill="none" stroke="black" d="M1691.98,-2934.49C1737.73,-2877.52 1867.35,-2698.61 1911.94,-2631.21"/>
<polygon fill="black" stroke="black" points="1914.88,-2633.11 1917.42,-2622.82 1909.02,-2629.28 1914.88,-2633.11"/>
</g>
<!-- make_exon_coverage_qc_step -->
<g id="node20" class="node">
<title>make_exon_coverage_qc_step</title>
<polygon fill="lightgoldenrodyellow" stroke="black" points="2197,-1916.67 2197,-1953.67 2549,-1953.67 2549,-1916.67 2197,-1916.67"/>
<text text-anchor="middle" x="2373" y="-1931.47" font-family="Times,serif" font-size="14.00">custom&#45;tso500&#45;make&#45;exon&#45;coverage&#45;qc v(1.0.0)</text>
</g>
<!-- tso500_outputs_by_sample&#45;&gt;make_exon_coverage_qc_step -->
<g id="edge43" class="edge">
<title>tso500_outputs_by_sample&#45;&gt;make_exon_coverage_qc_step</title>
<path fill="none" stroke="black" d="M1716.71,-2934.66C1874.67,-2866.71 2438.29,-2624.19 2439,-2623.17 2587.73,-2408.46 2435.31,-2061.27 2386.77,-1962.91"/>
<polygon fill="black" stroke="black" points="2389.88,-1961.31 2382.28,-1953.93 2383.62,-1964.44 2389.88,-1961.31"/>
</g>
<!-- make_per_coverage_threshold_qc_step -->
<g id="node21" class="node">
<title>make_per_coverage_threshold_qc_step</title>
<polygon fill="lightgoldenrodyellow" stroke="black" points="1777,-1916.67 1777,-1953.67 2141,-1953.67 2141,-1916.67 1777,-1916.67"/>
<text text-anchor="middle" x="1959" y="-1931.47" font-family="Times,serif" font-size="14.00">custom&#45;tso500&#45;make&#45;region&#45;coverage&#45;qc v(1.0.0)</text>
</g>
<!-- tso500_outputs_by_sample&#45;&gt;make_per_coverage_threshold_qc_step -->
<g id="edge44" class="edge">
<title>tso500_outputs_by_sample&#45;&gt;make_per_coverage_threshold_qc_step</title>
<path fill="none" stroke="black" d="M1711.52,-2934.67C1790.67,-2893.37 1980.23,-2781.35 2052,-2623.17 2159.72,-2385.79 2018.6,-2058.34 1972.6,-1963.13"/>
<polygon fill="black" stroke="black" points="1975.62,-1961.36 1968.08,-1953.91 1969.33,-1964.43 1975.62,-1961.36"/>
</g>
<!-- create_output_directory -->
<g id="node22" class="node">
<title>create_output_directory</title>
<polygon fill="lightgoldenrodyellow" stroke="black" points="843.5,-578.67 843.5,-615.67 1090.5,-615.67 1090.5,-578.67 843.5,-578.67"/>
<text text-anchor="middle" x="967" y="-593.47" font-family="Times,serif" font-size="14.00">custom&#45;create&#45;directory v(2.0.1)</text>
</g>
<!-- tso500_outputs_by_sample&#45;&gt;create_output_directory -->
<g id="edge59" class="edge">
<title>tso500_outputs_by_sample&#45;&gt;create_output_directory</title>
<path fill="none" stroke="black" d="M1713.51,-2934.6C1735.52,-2924.65 1764.02,-2912.4 1790,-2903.17 2219.27,-2750.69 2484.2,-2973 2776,-2623.17 2876.67,-2502.48 2810,-2428.35 2810,-2271.17 2810,-2271.17 2810,-2271.17 2810,-1265.17 2810,-901.48 1524.97,-680.1 1100.95,-616.95"/>
<polygon fill="black" stroke="black" points="1101.19,-613.45 1090.79,-615.44 1100.16,-620.37 1101.19,-613.45"/>
</g>
<!-- run_dragen_multiqc_on_align_collapse_fusion_caller_dir_step -->
<g id="node23" class="node">
<title>run_dragen_multiqc_on_align_collapse_fusion_caller_dir_step</title>
<polygon fill="lightgoldenrodyellow" stroke="black" points="2838.5,-2585.67 2838.5,-2622.67 2977.5,-2622.67 2977.5,-2585.67 2838.5,-2585.67"/>
<text text-anchor="middle" x="2908" y="-2600.47" font-family="Times,serif" font-size="14.00">multiqc v(1.12.0)</text>
</g>
<!-- tso500_outputs_by_sample&#45;&gt;run_dragen_multiqc_on_align_collapse_fusion_caller_dir_step -->
<g id="edge51" class="edge">
<title>tso500_outputs_by_sample&#45;&gt;run_dragen_multiqc_on_align_collapse_fusion_caller_dir_step</title>
<path fill="none" stroke="black" d="M1689.4,-2934.67C1708,-2924.64 1736.74,-2912.26 1763,-2903.17 1964.77,-2833.34 2602.42,-2673.98 2828.33,-2621.95"/>
<polygon fill="black" stroke="black" points="2829.16,-2625.35 2838.13,-2619.7 2827.6,-2618.53 2829.16,-2625.35"/>
</g>
<!-- tso500_outputs_by_sample&#45;&gt;run_dragen_multiqc_on_align_collapse_fusion_caller_dir_step -->
<g id="edge52" class="edge">
<title>tso500_outputs_by_sample&#45;&gt;run_dragen_multiqc_on_align_collapse_fusion_caller_dir_step</title>
<path fill="none" stroke="black" d="M1705.09,-2934.67C1726,-2924.64 1754.74,-2912.26 1781,-2903.17 1980.45,-2834.14 2605.81,-2677.64 2828.42,-2623.79"/>
<polygon fill="black" stroke="black" points="2829.49,-2627.13 2838.39,-2621.38 2827.85,-2620.32 2829.49,-2627.13"/>
</g>
<!-- tso500_outputs_by_sample&#45;&gt;run_dragen_multiqc_on_align_collapse_fusion_caller_dir_step -->
<g id="edge53" class="edge">
<title>tso500_outputs_by_sample&#45;&gt;run_dragen_multiqc_on_align_collapse_fusion_caller_dir_step</title>
<path fill="none" stroke="black" d="M1720.79,-2934.67C1744,-2924.64 1772.74,-2912.26 1799,-2903.17 1996.7,-2834.74 2612.85,-2680.38 2830.76,-2625.23"/>
<polygon fill="black" stroke="black" points="2831.69,-2628.61 2840.52,-2622.76 2829.97,-2621.82 2831.69,-2628.61"/>
</g>
<!-- tso500_outputs_by_sample&#45;&gt;run_dragen_multiqc_on_align_collapse_fusion_caller_dir_step -->
<g id="edge54" class="edge">
<title>tso500_outputs_by_sample&#45;&gt;run_dragen_multiqc_on_align_collapse_fusion_caller_dir_step</title>
<path fill="none" stroke="black" d="M1736.49,-2934.67C1762,-2924.64 1790.74,-2912.26 1817,-2903.17 2014.51,-2834.81 2629.63,-2680.69 2838.44,-2625.4"/>
<polygon fill="black" stroke="black" points="2839.6,-2628.71 2848.37,-2622.76 2837.81,-2621.94 2839.6,-2628.71"/>
</g>
<!-- gather_compressed_vcf_files_into_tar_step -->
<g id="node24" class="node">
<title>gather_compressed_vcf_files_into_tar_step</title>
<polygon fill="lightgoldenrodyellow" stroke="black" points="2507.5,-1582.67 2507.5,-1619.67 2738.5,-1619.67 2738.5,-1582.67 2507.5,-1582.67"/>
<text text-anchor="middle" x="2623" y="-1597.47" font-family="Times,serif" font-size="14.00">custom&#45;tar&#45;vcf&#45;file&#45;list v(1.0.0)</text>
</g>
<!-- tso500_outputs_by_sample&#45;&gt;gather_compressed_vcf_files_into_tar_step -->
<g id="edge57" class="edge">
<title>tso500_outputs_by_sample&#45;&gt;gather_compressed_vcf_files_into_tar_step</title>
<path fill="none" stroke="black" d="M1713.53,-2934.66C1735.55,-2924.74 1764.05,-2912.49 1790,-2903.17 2209.54,-2752.66 2485.42,-2979.64 2753,-2623.17 2875.44,-2460.06 2676.13,-1775.95 2631.55,-1629.74"/>
<polygon fill="black" stroke="black" points="2634.77,-1628.33 2628.5,-1619.8 2628.08,-1630.38 2634.77,-1628.33"/>
</g>
<!-- dragen_metrics_to_json_step -->
<g id="node25" class="node">
<title>dragen_metrics_to_json_step</title>
<polygon fill="lightgoldenrodyellow" stroke="black" points="308,-2251.67 308,-2288.67 822,-2288.67 822,-2251.67 308,-2251.67"/>
<text text-anchor="middle" x="565" y="-2266.47" font-family="Times,serif" font-size="14.00">custom&#45;tso500&#45;align&#45;collapse&#45;fusion&#45;caller&#45;csv&#45;metrics&#45;to&#45;json v(1.0.0)</text>
</g>
<!-- tso500_outputs_by_sample&#45;&gt;dragen_metrics_to_json_step -->
<g id="edge58" class="edge">
<title>tso500_outputs_by_sample&#45;&gt;dragen_metrics_to_json_step</title>
<path fill="none" stroke="black" d="M1571.17,-2935.31C1325.17,-2893.48 722.18,-2777.11 597,-2623.17 518.88,-2527.12 544.03,-2363.82 558.18,-2298.94"/>
<polygon fill="black" stroke="black" points="561.63,-2299.58 560.43,-2289.05 554.8,-2298.03 561.63,-2299.58"/>
</g>
<!-- get_align_collapse_fusion_caller_metrics_csv_files_intermediate_step -->
<g id="node26" class="node">
<title>get_align_collapse_fusion_caller_metrics_csv_files_intermediate_step</title>
<polygon fill="lightgoldenrodyellow" stroke="black" points="308.5,-2585.67 308.5,-2622.67 549.5,-2622.67 549.5,-2585.67 308.5,-2585.67"/>
<text text-anchor="middle" x="429" y="-2600.47" font-family="Times,serif" font-size="14.00">get&#45;files&#45;from&#45;directory v(1.0.0)</text>
</g>
<!-- tso500_outputs_by_sample&#45;&gt;get_align_collapse_fusion_caller_metrics_csv_files_intermediate_step -->
<g id="edge60" class="edge">
<title>tso500_outputs_by_sample&#45;&gt;get_align_collapse_fusion_caller_metrics_csv_files_intermediate_step</title>
<path fill="none" stroke="black" d="M1609.7,-2934.61C1394.73,-2876.09 718.59,-2687.97 498.75,-2625.53"/>
<polygon fill="black" stroke="black" points="499.52,-2622.11 488.94,-2622.74 497.61,-2628.84 499.52,-2622.11"/>
</g>
<!-- tso500_outputs_by_sample&#45;&gt;get_align_collapse_fusion_caller_metrics_csv_files_intermediate_step -->
<g id="edge61" class="edge">
<title>tso500_outputs_by_sample&#45;&gt;get_align_collapse_fusion_caller_metrics_csv_files_intermediate_step</title>
<path fill="none" stroke="black" d="M1616.05,-2934.61C1410.36,-2876.07 733.79,-2687.78 505.19,-2625.44"/>
<polygon fill="black" stroke="black" points="505.87,-2621.99 495.3,-2622.74 504.03,-2628.74 505.87,-2621.99"/>
</g>
<!-- mosdepth_step -->
<g id="node27" class="node">
<title>mosdepth_step</title>
<polygon fill="lightgoldenrodyellow" stroke="black" points="2300,-2251.67 2300,-2288.67 2446,-2288.67 2446,-2251.67 2300,-2251.67"/>
<text text-anchor="middle" x="2373" y="-2266.47" font-family="Times,serif" font-size="14.00">mosdepth v(0.3.1)</text>
</g>
<!-- tso500_outputs_by_sample&#45;&gt;mosdepth_step -->
<g id="edge62" class="edge">
<title>tso500_outputs_by_sample&#45;&gt;mosdepth_step</title>
<path fill="none" stroke="black" d="M1716.31,-2934.63C1870.12,-2867.62 2411.73,-2631.27 2417,-2623.17 2484.71,-2519.02 2418.4,-2360.47 2387.23,-2297.9"/>
<polygon fill="black" stroke="black" points="2390.21,-2296.03 2382.56,-2288.71 2383.97,-2299.21 2390.21,-2296.03"/>
</g>
<!-- get_raw_bam_file_intermediate_step -->
<g id="node28" class="node">
<title>get_raw_bam_file_intermediate_step</title>
<polygon fill="lightgoldenrodyellow" stroke="black" points="2138.5,-2585.67 2138.5,-2622.67 2407.5,-2622.67 2407.5,-2585.67 2138.5,-2585.67"/>
<text text-anchor="middle" x="2273" y="-2600.47" font-family="Times,serif" font-size="14.00">get&#45;bam&#45;file&#45;from&#45;directory v(1.0.0)</text>
</g>
<!-- tso500_outputs_by_sample&#45;&gt;get_raw_bam_file_intermediate_step -->
<g id="edge63" class="edge">
<title>tso500_outputs_by_sample&#45;&gt;get_raw_bam_file_intermediate_step</title>
<path fill="none" stroke="black" d="M1703.24,-2934.49C1798.32,-2876.53 2115.06,-2692.36 2230.52,-2627.8"/>
<polygon fill="black" stroke="black" points="2232.42,-2630.75 2239.45,-2622.82 2229.01,-2624.64 2232.42,-2630.75"/>
</g>
<!-- tso500_outputs_by_sample&#45;&gt;get_raw_bam_file_intermediate_step -->
<g id="edge64" class="edge">
<title>tso500_outputs_by_sample&#45;&gt;get_raw_bam_file_intermediate_step</title>
<path fill="none" stroke="black" d="M1709.61,-2934.49C1813.74,-2876.65 2129.66,-2693.1 2236.98,-2628.19"/>
<polygon fill="black" stroke="black" points="2239.09,-2631 2245.82,-2622.82 2235.45,-2625.02 2239.09,-2631"/>
</g>
<!-- tso_manifest_bed -->
<g id="node2" class="node">
<title>tso_manifest_bed</title>
<polygon fill="#94ddf4" stroke="black" points="1799,-2934.67 1799,-2971.67 1939,-2971.67 1939,-2934.67 1799,-2934.67"/>
<text text-anchor="middle" x="1869" y="-2949.47" font-family="Times,serif" font-size="14.00">tso_manifest_bed</text>
</g>
<!-- tso_manifest_bed&#45;&gt;mosdepth_step -->
<g id="edge65" class="edge">
<title>tso_manifest_bed&#45;&gt;mosdepth_step</title>
<path fill="none" stroke="black" d="M1939.33,-2942.45C2164.01,-2909.82 2857.39,-2796.42 2987,-2623.17 3137.47,-2422.05 2656.11,-2317.68 2456.05,-2283.79"/>
<polygon fill="black" stroke="black" points="2456.6,-2280.33 2446.16,-2282.13 2455.44,-2287.24 2456.6,-2280.33"/>
</g>
<!-- post_processing_output_directory -->
<g id="node3" class="node">
<title>post_processing_output_directory</title>
<polygon fill="#94ddf4" stroke="black" points="838.5,-243.67 838.5,-280.67 1095.5,-280.67 1095.5,-243.67 838.5,-243.67"/>
<text text-anchor="middle" x="967" y="-258.47" font-family="Times,serif" font-size="14.00">post_processing_output_directory</text>
</g>
<!-- compress_reporting_jsons_with_gzip_step -->
<g id="node5" class="node">
<title>compress_reporting_jsons_with_gzip_step</title>
<polygon fill="lightgoldenrodyellow" stroke="black" points="840,-2251.67 840,-2288.67 1028,-2288.67 1028,-2251.67 840,-2251.67"/>
<text text-anchor="middle" x="934" y="-2266.47" font-family="Times,serif" font-size="14.00">custom&#45;gzip&#45;file v(1.0.0)</text>
</g>
<!-- get_msi_json_intermediate_step&#45;&gt;compress_reporting_jsons_with_gzip_step -->
<g id="edge1" class="edge">
<title>get_msi_json_intermediate_step&#45;&gt;compress_reporting_jsons_with_gzip_step</title>
<path fill="none" stroke="black" d="M734.34,-2585.32C769.42,-2530.14 876.22,-2362.1 917.48,-2297.16"/>
<polygon fill="black" stroke="black" points="920.45,-2299.03 922.86,-2288.71 914.54,-2295.27 920.45,-2299.03"/>
</g>
<!-- compress_reporting_jsons_with_gzip_step&#45;&gt;gather_compressed_reporting_json_files_into_tar_step -->
<g id="edge2" class="edge">
<title>compress_reporting_jsons_with_gzip_step&#45;&gt;gather_compressed_reporting_json_files_into_tar_step</title>
<path fill="none" stroke="black" d="M934,-2251.27C934,-2196.37 934,-2030.12 934,-1963.86"/>
<polygon fill="black" stroke="black" points="937.5,-1963.76 934,-1953.76 930.5,-1963.76 937.5,-1963.76"/>
</g>
<!-- gather_compressed_reporting_json_files_into_tar_step&#45;&gt;create_custom_output_entry_list_array_step -->
<g id="edge20" class="edge">
<title>gather_compressed_reporting_json_files_into_tar_step&#45;&gt;create_custom_output_entry_list_array_step</title>
<path fill="none" stroke="black" d="M921.79,-1916.65C867.32,-1838.48 640.97,-1513.67 455,-1247.17 380.15,-1139.91 290.89,-1012.16 253.21,-958.24"/>
<polygon fill="black" stroke="black" points="256.01,-956.12 247.41,-949.93 250.27,-960.13 256.01,-956.12"/>
</g>
<!-- get_sample_analysis_results_intermediate_step&#45;&gt;compress_reporting_jsons_with_gzip_step -->
<g id="edge3" class="edge">
<title>get_sample_analysis_results_intermediate_step&#45;&gt;compress_reporting_jsons_with_gzip_step</title>
<path fill="none" stroke="black" d="M929.27,-2585.32C930.09,-2530.59 932.59,-2364.84 933.58,-2298.78"/>
<polygon fill="black" stroke="black" points="937.08,-2298.76 933.74,-2288.71 930.09,-2298.66 937.08,-2298.76"/>
</g>
<!-- get_tmb_json_intermediate_step&#45;&gt;compress_reporting_jsons_with_gzip_step -->
<g id="edge4" class="edge">
<title>get_tmb_json_intermediate_step&#45;&gt;compress_reporting_jsons_with_gzip_step</title>
<path fill="none" stroke="black" d="M1124.19,-2585.32C1090.85,-2530.25 989.46,-2362.78 949.98,-2297.56"/>
<polygon fill="black" stroke="black" points="952.79,-2295.45 944.62,-2288.71 946.8,-2299.08 952.79,-2295.45"/>
</g>
<!-- compress_vcf_files_step -->
<g id="node10" class="node">
<title>compress_vcf_files_step</title>
<polygon fill="lightgoldenrodyellow" stroke="black" points="2561,-2251.67 2561,-2288.67 2685,-2288.67 2685,-2251.67 2561,-2251.67"/>
<text text-anchor="middle" x="2623" y="-2266.47" font-family="Times,serif" font-size="14.00">bgzip v(1.12.0)</text>
</g>
<!-- get_vcf_files_intermediate_step&#45;&gt;compress_vcf_files_step -->
<g id="edge5" class="edge">
<title>get_vcf_files_intermediate_step&#45;&gt;compress_vcf_files_step</title>
<path fill="none" stroke="black" d="M2623,-2585.32C2623,-2530.59 2623,-2364.84 2623,-2298.78"/>
<polygon fill="black" stroke="black" points="2626.5,-2298.71 2623,-2288.71 2619.5,-2298.71 2626.5,-2298.71"/>
</g>
<!-- index_vcf_files_step -->
<g id="node11" class="node">
<title>index_vcf_files_step</title>
<polygon fill="lightgoldenrodyellow" stroke="black" points="2567,-1916.67 2567,-1953.67 2679,-1953.67 2679,-1916.67 2567,-1916.67"/>
<text text-anchor="middle" x="2623" y="-1931.47" font-family="Times,serif" font-size="14.00">tabix v(0.2.6)</text>
</g>
<!-- compress_vcf_files_step&#45;&gt;index_vcf_files_step -->
<g id="edge6" class="edge">
<title>compress_vcf_files_step&#45;&gt;index_vcf_files_step</title>
<path fill="none" stroke="black" d="M2623,-2251.27C2623,-2196.37 2623,-2030.12 2623,-1963.86"/>
<polygon fill="black" stroke="black" points="2626.5,-1963.76 2623,-1953.76 2619.5,-1963.76 2626.5,-1963.76"/>
</g>
<!-- index_vcf_files_step&#45;&gt;gather_compressed_vcf_files_into_tar_step -->
<g id="edge25" class="edge">
<title>index_vcf_files_step&#45;&gt;gather_compressed_vcf_files_into_tar_step</title>
<path fill="none" stroke="black" d="M2623,-1916.32C2623,-1861.59 2623,-1695.84 2623,-1629.78"/>
<polygon fill="black" stroke="black" points="2626.5,-1629.71 2623,-1619.71 2619.5,-1629.71 2626.5,-1629.71"/>
</g>
<!-- convert_metric_csvs_into_json_gzip_step -->
<g id="node13" class="node">
<title>convert_metric_csvs_into_json_gzip_step</title>
<polygon fill="lightgoldenrodyellow" stroke="black" points="1488,-1582.67 1488,-1619.67 1694,-1619.67 1694,-1582.67 1488,-1582.67"/>
<text text-anchor="middle" x="1591" y="-1597.47" font-family="Times,serif" font-size="14.00">custom&#45;tsv&#45;to&#45;json v(1.0.0)</text>
</g>
<!-- get_fragment_length_hist_csv_intermediate_step&#45;&gt;convert_metric_csvs_into_json_gzip_step -->
<g id="edge7" class="edge">
<title>get_fragment_length_hist_csv_intermediate_step&#45;&gt;convert_metric_csvs_into_json_gzip_step</title>
<path fill="none" stroke="black" d="M1665.94,-2585.64C1624.33,-2511.91 1465.38,-2218.68 1414,-1954.17 1388.09,-1820.78 1508.98,-1682.45 1564.44,-1627.17"/>
<polygon fill="black" stroke="black" points="1567.12,-1629.43 1571.8,-1619.93 1562.22,-1624.44 1567.12,-1629.43"/>
</g>
<!-- convert_metric_csvs_into_json_gzip_step&#45;&gt;gather_compressed_metric_json_files_into_tar_step -->
<g id="edge8" class="edge">
<title>convert_metric_csvs_into_json_gzip_step&#45;&gt;gather_compressed_metric_json_files_into_tar_step</title>
<path fill="none" stroke="black" d="M1591,-1582.27C1591,-1527.37 1591,-1361.12 1591,-1294.86"/>
<polygon fill="black" stroke="black" points="1594.5,-1294.76 1591,-1284.76 1587.5,-1294.76 1594.5,-1294.76"/>
</g>
<!-- gather_compressed_metric_json_files_into_tar_step&#45;&gt;create_custom_output_entry_list_array_step -->
<g id="edge19" class="edge">
<title>gather_compressed_metric_json_files_into_tar_step&#45;&gt;create_custom_output_entry_list_array_step</title>
<path fill="none" stroke="black" d="M1519.53,-1247.62C1288.26,-1190.83 561.12,-1012.26 316.34,-952.15"/>
<polygon fill="black" stroke="black" points="316.99,-948.7 306.44,-949.72 315.32,-955.5 316.99,-948.7"/>
</g>
<!-- get_fusion_csv_intermediate_step&#45;&gt;convert_metric_csvs_into_json_gzip_step -->
<g id="edge9" class="edge">
<title>get_fusion_csv_intermediate_step&#45;&gt;convert_metric_csvs_into_json_gzip_step</title>
<path fill="none" stroke="black" d="M1420.89,-2585.48C1403.13,-2505.9 1337.07,-2173.81 1407,-1916.17 1439.14,-1797.76 1528.39,-1678.32 1569.62,-1627.54"/>
<polygon fill="black" stroke="black" points="1572.41,-1629.66 1576.04,-1619.71 1566.99,-1625.22 1572.41,-1629.66"/>
</g>
<!-- get_fusion_csv_intermediate_step&#45;&gt;create_custom_output_entry_list_array_step -->
<g id="edge10" class="edge">
<title>get_fusion_csv_intermediate_step&#45;&gt;create_custom_output_entry_list_array_step</title>
<path fill="none" stroke="black" d="M1420.1,-2585.56C1399.25,-2509.01 1319,-2197.35 1319,-1936.17 1319,-1936.17 1319,-1936.17 1319,-1600.17 1319,-1160.37 664.29,-1000.71 372.49,-951.39"/>
<polygon fill="black" stroke="black" points="372.71,-947.87 362.27,-949.68 371.56,-954.78 372.71,-947.87"/>
</g>
<!-- create_custom_output_entry_list_array_step&#45;&gt;create_output_directory -->
<g id="edge17" class="edge">
<title>create_custom_output_entry_list_array_step&#45;&gt;create_output_directory</title>
<path fill="none" stroke="black" d="M273.84,-912.56C397.67,-856.4 782.95,-681.65 918.9,-619.99"/>
<polygon fill="black" stroke="black" points="920.59,-623.07 928.25,-615.75 917.7,-616.69 920.59,-623.07"/>
</g>
<!-- get_zero_val_for_skip_rows_parameter -->
<g id="node17" class="node">
<title>get_zero_val_for_skip_rows_parameter</title>
<polygon fill="lightgoldenrodyellow" stroke="black" points="1423,-1916.67 1423,-1953.67 1563,-1953.67 1563,-1916.67 1423,-1916.67"/>
<text text-anchor="middle" x="1493" y="-1931.47" font-family="Times,serif" font-size="14.00">parse&#45;int v(1.0.0)</text>
</g>
<!-- get_zero_val_for_skip_rows_parameter&#45;&gt;convert_metric_csvs_into_json_gzip_step -->
<g id="edge11" class="edge">
<title>get_zero_val_for_skip_rows_parameter&#45;&gt;convert_metric_csvs_into_json_gzip_step</title>
<path fill="none" stroke="black" d="M1498.27,-1916.32C1514.46,-1861.48 1563.55,-1695.15 1582.97,-1629.37"/>
<polygon fill="black" stroke="black" points="1586.35,-1630.29 1585.82,-1619.71 1579.64,-1628.31 1586.35,-1630.29"/>
</g>
<!-- get_tmb_trace_tsv_intermediate_step&#45;&gt;convert_metric_csvs_into_json_gzip_step -->
<g id="edge12" class="edge">
<title>get_tmb_trace_tsv_intermediate_step&#45;&gt;convert_metric_csvs_into_json_gzip_step</title>
<path fill="none" stroke="black" d="M1915.08,-2585.64C1866.14,-2512.49 1679.83,-2223.01 1610,-1954.17 1579.51,-1836.79 1584.84,-1690.22 1588.8,-1629.98"/>
<polygon fill="black" stroke="black" points="1592.31,-1629.98 1589.52,-1619.76 1585.33,-1629.49 1592.31,-1629.98"/>
</g>
<!-- get_one_val_for_skip_rows_parameter -->
<g id="node19" class="node">
<title>get_one_val_for_skip_rows_parameter</title>
<polygon fill="lightgoldenrodyellow" stroke="black" points="1619,-1916.67 1619,-1953.67 1759,-1953.67 1759,-1916.67 1619,-1916.67"/>
<text text-anchor="middle" x="1689" y="-1931.47" font-family="Times,serif" font-size="14.00">parse&#45;int v(1.0.0)</text>
</g>
<!-- get_one_val_for_skip_rows_parameter&#45;&gt;convert_metric_csvs_into_json_gzip_step -->
<g id="edge13" class="edge">
<title>get_one_val_for_skip_rows_parameter&#45;&gt;convert_metric_csvs_into_json_gzip_step</title>
<path fill="none" stroke="black" d="M1683.73,-1916.32C1667.54,-1861.48 1618.45,-1695.15 1599.03,-1629.37"/>
<polygon fill="black" stroke="black" points="1602.36,-1628.31 1596.18,-1619.71 1595.65,-1630.29 1602.36,-1628.31"/>
</g>
<!-- make_exon_coverage_qc_step&#45;&gt;convert_metric_csvs_into_json_gzip_step -->
<g id="edge14" class="edge">
<title>make_exon_coverage_qc_step&#45;&gt;convert_metric_csvs_into_json_gzip_step</title>
<path fill="none" stroke="black" d="M2331.51,-1916.56C2199.09,-1860.34 1786.8,-1685.3 1641.95,-1623.8"/>
<polygon fill="black" stroke="black" points="1642.96,-1620.43 1632.39,-1619.75 1640.23,-1626.88 1642.96,-1620.43"/>
</g>
<!-- make_exon_coverage_qc_step&#45;&gt;create_custom_output_entry_list_array_step -->
<g id="edge15" class="edge">
<title>make_exon_coverage_qc_step&#45;&gt;create_custom_output_entry_list_array_step</title>
<path fill="none" stroke="black" d="M2366.77,-1916.29C2346.98,-1861.35 2280.98,-1692.06 2183,-1582.17 2009.86,-1388.01 1941.55,-1350.96 1703,-1247.17 1278.69,-1062.58 736.95,-982.52 444.67,-950.79"/>
<polygon fill="black" stroke="black" points="444.7,-947.27 434.38,-949.68 443.95,-954.23 444.7,-947.27"/>
</g>
<!-- make_per_coverage_threshold_qc_step&#45;&gt;convert_metric_csvs_into_json_gzip_step -->
<g id="edge16" class="edge">
<title>make_per_coverage_threshold_qc_step&#45;&gt;convert_metric_csvs_into_json_gzip_step</title>
<path fill="none" stroke="black" d="M1939.47,-1916.56C1878.09,-1861.18 1688.93,-1690.52 1618.12,-1626.64"/>
<polygon fill="black" stroke="black" points="1620.25,-1623.85 1610.48,-1619.75 1615.56,-1629.04 1620.25,-1623.85"/>
</g>
<!-- create_output_directory&#45;&gt;post_processing_output_directory -->
<g id="edge23" class="edge">
<title>create_output_directory&#45;&gt;post_processing_output_directory</title>
<path fill="none" stroke="black" d="M967,-578.27C967,-523.37 967,-357.12 967,-290.86"/>
<polygon fill="black" stroke="black" points="970.5,-290.76 967,-280.76 963.5,-290.76 970.5,-290.76"/>
</g>
<!-- run_dragen_multiqc_on_align_collapse_fusion_caller_dir_step&#45;&gt;create_custom_output_entry_list_array_step -->
<g id="edge18" class="edge">
<title>run_dragen_multiqc_on_align_collapse_fusion_caller_dir_step&#45;&gt;create_custom_output_entry_list_array_step</title>
<path fill="none" stroke="black" d="M2906.63,-2585.67C2900.76,-2508.94 2878,-2194.67 2878,-1936.17 2878,-1936.17 2878,-1936.17 2878,-1600.17 2878,-1108.28 1135.45,-974.78 480.17,-941.97"/>
<polygon fill="black" stroke="black" points="480.29,-938.47 470.13,-941.47 479.94,-945.46 480.29,-938.47"/>
</g>
<!-- gather_compressed_vcf_files_into_tar_step&#45;&gt;create_custom_output_entry_list_array_step -->
<g id="edge21" class="edge">
<title>gather_compressed_vcf_files_into_tar_step&#45;&gt;create_custom_output_entry_list_array_step</title>
<path fill="none" stroke="black" d="M2613.11,-1582.39C2579.1,-1523.11 2460.4,-1331.31 2304,-1247.17 1992.44,-1079.58 957.66,-984.69 480.23,-948.87"/>
<polygon fill="black" stroke="black" points="480.34,-945.36 470.1,-948.11 479.82,-952.34 480.34,-945.36"/>
</g>
<!-- dragen_metrics_to_json_step&#45;&gt;create_custom_output_entry_list_array_step -->
<g id="edge22" class="edge">
<title>dragen_metrics_to_json_step&#45;&gt;create_custom_output_entry_list_array_step</title>
<path fill="none" stroke="black" d="M560.58,-2251.29C525.02,-2107.19 285.5,-1136.78 241.83,-959.84"/>
<polygon fill="black" stroke="black" points="245.19,-958.87 239.4,-950 238.4,-960.55 245.19,-958.87"/>
</g>
<!-- get_align_collapse_fusion_caller_metrics_csv_files_intermediate_step&#45;&gt;dragen_metrics_to_json_step -->
<g id="edge24" class="edge">
<title>get_align_collapse_fusion_caller_metrics_csv_files_intermediate_step&#45;&gt;dragen_metrics_to_json_step</title>
<path fill="none" stroke="black" d="M436.31,-2585.32C458.83,-2530.37 527.19,-2363.47 554.02,-2297.97"/>
<polygon fill="black" stroke="black" points="557.27,-2299.29 557.82,-2288.71 550.79,-2296.64 557.27,-2299.29"/>
</g>
<!-- mosdepth_step&#45;&gt;make_exon_coverage_qc_step -->
<g id="edge26" class="edge">
<title>mosdepth_step&#45;&gt;make_exon_coverage_qc_step</title>
<path fill="none" stroke="black" d="M2373,-2251.27C2373,-2196.37 2373,-2030.12 2373,-1963.86"/>
<polygon fill="black" stroke="black" points="2376.5,-1963.76 2373,-1953.76 2369.5,-1963.76 2376.5,-1963.76"/>
</g>
<!-- mosdepth_step&#45;&gt;make_per_coverage_threshold_qc_step -->
<g id="edge27" class="edge">
<title>mosdepth_step&#45;&gt;make_per_coverage_threshold_qc_step</title>
<path fill="none" stroke="black" d="M2351.03,-2251.51C2281.84,-2195.85 2068.3,-2024.09 1989.03,-1960.33"/>
<polygon fill="black" stroke="black" points="1990.9,-1957.34 1980.91,-1953.8 1986.51,-1962.8 1990.9,-1957.34"/>
</g>
<!-- get_raw_bam_file_intermediate_step&#45;&gt;mosdepth_step -->
<g id="edge28" class="edge">
<title>get_raw_bam_file_intermediate_step&#45;&gt;mosdepth_step</title>
<path fill="none" stroke="black" d="M2278.38,-2585.32C2294.9,-2530.48 2344.99,-2364.15 2364.81,-2298.37"/>
<polygon fill="black" stroke="black" points="2368.19,-2299.29 2367.72,-2288.71 2361.48,-2297.28 2368.19,-2299.29"/>
</g>
<!-- create_dummy_file_step -->
<g id="node29" class="node">
<title>create_dummy_file_step</title>
<polygon fill="lightgoldenrodyellow" stroke="black" points="2777.5,-2934.67 2777.5,-2971.67 3038.5,-2971.67 3038.5,-2934.67 2777.5,-2934.67"/>
<text text-anchor="middle" x="2908" y="-2949.47" font-family="Times,serif" font-size="14.00">custom&#45;create&#45;dummy&#45;file v(1.0.0)</text>
</g>
<!-- create_dummy_file_step&#45;&gt;run_dragen_multiqc_on_align_collapse_fusion_caller_dir_step -->
<g id="edge29" class="edge">
<title>create_dummy_file_step&#45;&gt;run_dragen_multiqc_on_align_collapse_fusion_caller_dir_step</title>
<path fill="none" stroke="black" d="M2908,-2934.49C2908,-2877.99 2908,-2701.52 2908,-2632.88"/>
<polygon fill="black" stroke="black" points="2911.5,-2632.82 2908,-2622.82 2904.5,-2632.82 2911.5,-2632.82"/>
</g>
<!-- \n -->
<g id="node30" class="node">
<title>\n</title>
<ellipse fill="none" stroke="black" cx="3084" cy="-2953.17" rx="27" ry="18"/>
</g>
</g>
</svg>
