<?xml version="1.0" encoding="UTF-8" standalone="no"?>
<!DOCTYPE svg PUBLIC "-//W3C//DTD SVG 1.1//EN"
 "http://www.w3.org/Graphics/SVG/1.1/DTD/svg11.dtd">
<!-- Generated by graphviz version 2.43.0 (0)
 -->
<!-- Title: G Pages: 1 -->
<svg width="3174pt" height="3174pt"
 viewBox="0.00 0.00 3174.00 3174.00" xmlns="http://www.w3.org/2000/svg" xmlns:xlink="http://www.w3.org/1999/xlink">
<g id="graph0" class="graph" transform="scale(1 1) rotate(0) translate(4 3170)">
<title>G</title>
<polygon fill="#eeeeee" stroke="transparent" points="-4,4 -4,-3170 3170,-3170 3170,4 -4,4"/>
<g id="clust1" class="cluster">
<title>cluster_inputs</title>
<polygon fill="#eeeeee" stroke="black" stroke-dasharray="5,2" points="1511,-2774.85 1511,-3129.19 1895,-3129.19 1895,-2774.85 1511,-2774.85"/>
<text text-anchor="middle" x="1828.5" y="-2782.65" font-family="Times,serif" font-size="14.00">Workflow Inputs</text>
</g>
<g id="clust2" class="cluster">
<title>cluster_outputs</title>
<polygon fill="#eeeeee" stroke="black" stroke-dasharray="5,2" points="2186,-36.81 2186,-391.15 2460,-391.15 2460,-36.81 2186,-36.81"/>
<text text-anchor="middle" x="2387.5" y="-44.61" font-family="Times,serif" font-size="14.00">Workflow Outputs</text>
</g>
<!-- tso500_outputs_by_sample -->
<g id="node1" class="node">
<title>tso500_outputs_by_sample</title>
<polygon fill="#94ddf4" stroke="black" points="1677.5,-2986.31 1677.5,-3023.31 1886.5,-3023.31 1886.5,-2986.31 1677.5,-2986.31"/>
<text text-anchor="middle" x="1782" y="-3001.11" font-family="Times,serif" font-size="14.00">tso500_outputs_by_sample</text>
</g>
<!-- get_tmb_json_intermediate_step -->
<g id="node4" class="node">
<title>get_tmb_json_intermediate_step</title>
<polygon fill="lightgoldenrodyellow" stroke="black" points="2267.5,-2632.31 2267.5,-2669.31 2500.5,-2669.31 2500.5,-2632.31 2267.5,-2632.31"/>
<text text-anchor="middle" x="2384" y="-2647.11" font-family="Times,serif" font-size="14.00">get&#45;file&#45;from&#45;directory v(1.0.0)</text>
</g>
<!-- tso500_outputs_by_sample&#45;&gt;get_tmb_json_intermediate_step -->
<g id="edge30" class="edge">
<title>tso500_outputs_by_sample&#45;&gt;get_tmb_json_intermediate_step</title>
<path fill="none" stroke="black" d="M1809.1,-2986.12C1904.73,-2927.48 2225.97,-2739.57 2341.92,-2674.36"/>
<polygon fill="black" stroke="black" points="2343.87,-2677.28 2350.88,-2669.34 2340.44,-2671.17 2343.87,-2677.28"/>
</g>
<!-- tso500_outputs_by_sample&#45;&gt;get_tmb_json_intermediate_step -->
<g id="edge31" class="edge">
<title>tso500_outputs_by_sample&#45;&gt;get_tmb_json_intermediate_step</title>
<path fill="none" stroke="black" d="M1815.43,-2986.12C1920.27,-2927.54 2241.21,-2739.95 2348.64,-2674.56"/>
<polygon fill="black" stroke="black" points="2350.48,-2677.54 2357.18,-2669.34 2346.83,-2671.56 2350.48,-2677.54"/>
</g>
<!-- gather_compressed_reporting_json_files_into_tar_step -->
<g id="node6" class="node">
<title>gather_compressed_reporting_json_files_into_tar_step</title>
<polygon fill="lightgoldenrodyellow" stroke="black" points="2075,-1951.31 2075,-1988.31 2281,-1988.31 2281,-1951.31 2075,-1951.31"/>
<text text-anchor="middle" x="2178" y="-1966.11" font-family="Times,serif" font-size="14.00">custom&#45;tar&#45;file&#45;list v(1.0.0)</text>
</g>
<!-- tso500_outputs_by_sample&#45;&gt;gather_compressed_reporting_json_files_into_tar_step -->
<g id="edge57" class="edge">
<title>tso500_outputs_by_sample&#45;&gt;gather_compressed_reporting_json_files_into_tar_step</title>
<path fill="none" stroke="black" d="M1886.74,-2990.91C2052.41,-2964.23 2370.32,-2886.14 2509,-2669.81 2667.55,-2422.48 2313.29,-2087.32 2206.98,-1995.14"/>
<polygon fill="black" stroke="black" points="2209.05,-1992.3 2199.19,-1988.43 2204.49,-1997.61 2209.05,-1992.3"/>
</g>
<!-- get_msi_json_intermediate_step -->
<g id="node7" class="node">
<title>get_msi_json_intermediate_step</title>
<polygon fill="lightgoldenrodyellow" stroke="black" points="1855.5,-2632.31 1855.5,-2669.31 2088.5,-2669.31 2088.5,-2632.31 1855.5,-2632.31"/>
<text text-anchor="middle" x="1972" y="-2647.11" font-family="Times,serif" font-size="14.00">get&#45;file&#45;from&#45;directory v(1.0.0)</text>
</g>
<!-- tso500_outputs_by_sample&#45;&gt;get_msi_json_intermediate_step -->
<g id="edge32" class="edge">
<title>tso500_outputs_by_sample&#45;&gt;get_msi_json_intermediate_step</title>
<path fill="none" stroke="black" d="M1788.5,-2985.87C1815.09,-2928.2 1912.51,-2747.33 1953.72,-2678.64"/>
<polygon fill="black" stroke="black" points="1956.95,-2680.08 1959.15,-2669.72 1950.96,-2676.44 1956.95,-2680.08"/>
</g>
<!-- tso500_outputs_by_sample&#45;&gt;get_msi_json_intermediate_step -->
<g id="edge33" class="edge">
<title>tso500_outputs_by_sample&#45;&gt;get_msi_json_intermediate_step</title>
<path fill="none" stroke="black" d="M1794.87,-2985.87C1830.46,-2928.32 1927.97,-2748.07 1961.11,-2679.06"/>
<polygon fill="black" stroke="black" points="1964.42,-2680.26 1965.52,-2669.72 1958.09,-2677.27 1964.42,-2680.26"/>
</g>
<!-- get_sample_analysis_results_intermediate_step -->
<g id="node8" class="node">
<title>get_sample_analysis_results_intermediate_step</title>
<polygon fill="lightgoldenrodyellow" stroke="black" points="2107,-2632.31 2107,-2669.31 2249,-2669.31 2249,-2632.31 2107,-2632.31"/>
<text text-anchor="middle" x="2178" y="-2647.11" font-family="Times,serif" font-size="14.00">parse&#45;file v(1.0.0)</text>
</g>
<!-- tso500_outputs_by_sample&#45;&gt;get_sample_analysis_results_intermediate_step -->
<g id="edge34" class="edge">
<title>tso500_outputs_by_sample&#45;&gt;get_sample_analysis_results_intermediate_step</title>
<path fill="none" stroke="black" d="M1801.91,-2986.12C1867.28,-2928.01 2075.47,-2742.96 2150.61,-2676.16"/>
<polygon fill="black" stroke="black" points="2153.14,-2678.6 2158.29,-2669.34 2148.49,-2673.37 2153.14,-2678.6"/>
</g>
<!-- get_vcf_files_intermediate_step -->
<g id="node9" class="node">
<title>get_vcf_files_intermediate_step</title>
<polygon fill="lightgoldenrodyellow" stroke="black" points="2557.5,-2632.31 2557.5,-2669.31 2798.5,-2669.31 2798.5,-2632.31 2557.5,-2632.31"/>
<text text-anchor="middle" x="2678" y="-2647.11" font-family="Times,serif" font-size="14.00">get&#45;files&#45;from&#45;directory v(1.0.0)</text>
</g>
<!-- tso500_outputs_by_sample&#45;&gt;get_vcf_files_intermediate_step -->
<g id="edge35" class="edge">
<title>tso500_outputs_by_sample&#45;&gt;get_vcf_files_intermediate_step</title>
<path fill="none" stroke="black" d="M1823.58,-2986.24C1968.82,-2927.33 2453.17,-2737.02 2620.57,-2673.03"/>
<polygon fill="black" stroke="black" points="2622.1,-2676.19 2630.19,-2669.36 2619.6,-2669.65 2622.1,-2676.19"/>
</g>
<!-- tso500_outputs_by_sample&#45;&gt;get_vcf_files_intermediate_step -->
<g id="edge36" class="edge">
<title>tso500_outputs_by_sample&#45;&gt;get_vcf_files_intermediate_step</title>
<path fill="none" stroke="black" d="M1829.9,-2986.24C1984.38,-2927.39 2468.1,-2737.4 2626.96,-2673.22"/>
<polygon fill="black" stroke="black" points="2628.55,-2676.35 2636.5,-2669.36 2625.92,-2669.86 2628.55,-2676.35"/>
</g>
<!-- make_per_coverage_threshold_qc_step -->
<g id="node12" class="node">
<title>make_per_coverage_threshold_qc_step</title>
<polygon fill="lightgoldenrodyellow" stroke="black" points="724,-1951.31 724,-1988.31 1088,-1988.31 1088,-1951.31 724,-1951.31"/>
<text text-anchor="middle" x="906" y="-1966.11" font-family="Times,serif" font-size="14.00">custom&#45;tso500&#45;make&#45;region&#45;coverage&#45;qc v(1.0.0)</text>
</g>
<!-- tso500_outputs_by_sample&#45;&gt;make_per_coverage_threshold_qc_step -->
<g id="edge37" class="edge">
<title>tso500_outputs_by_sample&#45;&gt;make_per_coverage_threshold_qc_step</title>
<path fill="none" stroke="black" d="M1742.33,-2986.3C1720.49,-2976.78 1692.85,-2964.91 1668,-2954.81 1340.36,-2821.62 1129.31,-2958.52 925,-2669.81 772.1,-2453.75 865.87,-2098.68 897.04,-1998.12"/>
<polygon fill="black" stroke="black" points="900.43,-1999.01 900.1,-1988.42 893.76,-1996.9 900.43,-1999.01"/>
</g>
<!-- gather_compressed_metric_json_files_into_tar_step -->
<g id="node14" class="node">
<title>gather_compressed_metric_json_files_into_tar_step</title>
<polygon fill="lightgoldenrodyellow" stroke="black" points="1405,-1270.31 1405,-1307.31 1611,-1307.31 1611,-1270.31 1405,-1270.31"/>
<text text-anchor="middle" x="1508" y="-1285.11" font-family="Times,serif" font-size="14.00">custom&#45;tar&#45;file&#45;list v(1.0.0)</text>
</g>
<!-- tso500_outputs_by_sample&#45;&gt;gather_compressed_metric_json_files_into_tar_step -->
<g id="edge45" class="edge">
<title>tso500_outputs_by_sample&#45;&gt;gather_compressed_metric_json_files_into_tar_step</title>
<path fill="none" stroke="black" d="M1754.68,-2986.15C1689.52,-2942.17 1525.93,-2820.37 1466,-2669.81 1353.99,-2388.45 1479.47,-2291.5 1489,-1988.81 1497.22,-1727.66 1505.05,-1411.55 1507.33,-1317.48"/>
<polygon fill="black" stroke="black" points="1510.83,-1317.45 1507.58,-1307.37 1503.84,-1317.28 1510.83,-1317.45"/>
</g>
<!-- get_fragment_length_hist_csv_intermediate_step -->
<g id="node16" class="node">
<title>get_fragment_length_hist_csv_intermediate_step</title>
<polygon fill="lightgoldenrodyellow" stroke="black" points="934.5,-2632.31 934.5,-2669.31 1167.5,-2669.31 1167.5,-2632.31 934.5,-2632.31"/>
<text text-anchor="middle" x="1051" y="-2647.11" font-family="Times,serif" font-size="14.00">get&#45;file&#45;from&#45;directory v(1.0.0)</text>
</g>
<!-- tso500_outputs_by_sample&#45;&gt;get_fragment_length_hist_csv_intermediate_step -->
<g id="edge38" class="edge">
<title>tso500_outputs_by_sample&#45;&gt;get_fragment_length_hist_csv_intermediate_step</title>
<path fill="none" stroke="black" d="M1742.34,-2986.24C1615.95,-2927.63 1223.93,-2738.91 1093.56,-2673.99"/>
<polygon fill="black" stroke="black" points="1094.79,-2670.69 1084.27,-2669.36 1091.66,-2676.95 1094.79,-2670.69"/>
</g>
<!-- tso500_outputs_by_sample&#45;&gt;get_fragment_length_hist_csv_intermediate_step -->
<g id="edge39" class="edge">
<title>tso500_outputs_by_sample&#45;&gt;get_fragment_length_hist_csv_intermediate_step</title>
<path fill="none" stroke="black" d="M1748.42,-2986.12C1630.83,-2927.24 1238.06,-2738.06 1099.67,-2673.58"/>
<polygon fill="black" stroke="black" points="1101.09,-2670.38 1090.54,-2669.34 1098.14,-2676.73 1101.09,-2670.38"/>
</g>
<!-- get_tmb_trace_tsv_intermediate_step -->
<g id="node18" class="node">
<title>get_tmb_trace_tsv_intermediate_step</title>
<polygon fill="lightgoldenrodyellow" stroke="black" points="1185.5,-2632.31 1185.5,-2669.31 1418.5,-2669.31 1418.5,-2632.31 1185.5,-2632.31"/>
<text text-anchor="middle" x="1302" y="-2647.11" font-family="Times,serif" font-size="14.00">get&#45;file&#45;from&#45;directory v(1.0.0)</text>
</g>
<!-- tso500_outputs_by_sample&#45;&gt;get_tmb_trace_tsv_intermediate_step -->
<g id="edge40" class="edge">
<title>tso500_outputs_by_sample&#45;&gt;get_tmb_trace_tsv_intermediate_step</title>
<path fill="none" stroke="black" d="M1754.7,-2986.12C1670.59,-2927.83 1416.81,-2741.83 1330.77,-2675.55"/>
<polygon fill="black" stroke="black" points="1332.79,-2672.69 1322.74,-2669.34 1328.51,-2678.23 1332.79,-2672.69"/>
</g>
<!-- tso500_outputs_by_sample&#45;&gt;get_tmb_trace_tsv_intermediate_step -->
<g id="edge41" class="edge">
<title>tso500_outputs_by_sample&#45;&gt;get_tmb_trace_tsv_intermediate_step</title>
<path fill="none" stroke="black" d="M1761.04,-2986.12C1686.03,-2927.71 1431.67,-2741.08 1337.4,-2675.15"/>
<polygon fill="black" stroke="black" points="1339.26,-2672.18 1329.05,-2669.34 1335.26,-2677.92 1339.26,-2672.18"/>
</g>
<!-- get_fusion_csv_intermediate_step -->
<g id="node19" class="node">
<title>get_fusion_csv_intermediate_step</title>
<polygon fill="lightgoldenrodyellow" stroke="black" points="1475.5,-2632.31 1475.5,-2669.31 1708.5,-2669.31 1708.5,-2632.31 1475.5,-2632.31"/>
<text text-anchor="middle" x="1592" y="-2647.11" font-family="Times,serif" font-size="14.00">get&#45;file&#45;from&#45;directory v(1.0.0)</text>
</g>
<!-- tso500_outputs_by_sample&#45;&gt;get_fusion_csv_intermediate_step -->
<g id="edge42" class="edge">
<title>tso500_outputs_by_sample&#45;&gt;get_fusion_csv_intermediate_step</title>
<path fill="none" stroke="black" d="M1769.13,-2985.87C1733.54,-2928.32 1636.03,-2748.07 1602.89,-2679.06"/>
<polygon fill="black" stroke="black" points="1605.91,-2677.27 1598.48,-2669.72 1599.58,-2680.26 1605.91,-2677.27"/>
</g>
<!-- tso500_outputs_by_sample&#45;&gt;get_fusion_csv_intermediate_step -->
<g id="edge43" class="edge">
<title>tso500_outputs_by_sample&#45;&gt;get_fusion_csv_intermediate_step</title>
<path fill="none" stroke="black" d="M1775.5,-2985.87C1748.91,-2928.2 1651.49,-2747.33 1610.28,-2678.64"/>
<polygon fill="black" stroke="black" points="1613.04,-2676.44 1604.85,-2669.72 1607.05,-2680.08 1613.04,-2676.44"/>
</g>
<!-- create_custom_output_entry_list_array_step -->
<g id="node20" class="node">
<title>create_custom_output_entry_list_array_step</title>
<polygon fill="lightgoldenrodyellow" stroke="black" points="1547,-929.31 1547,-966.31 2017,-966.31 2017,-929.31 1547,-929.31"/>
<text text-anchor="middle" x="1782" y="-944.11" font-family="Times,serif" font-size="14.00">get&#45;custom&#45;output&#45;dir&#45;entry&#45;for&#45;tso500&#45;post&#45;processing v(2.0.1)</text>
</g>
<!-- tso500_outputs_by_sample&#45;&gt;create_custom_output_entry_list_array_step -->
<g id="edge46" class="edge">
<title>tso500_outputs_by_sample&#45;&gt;create_custom_output_entry_list_array_step</title>
<path fill="none" stroke="black" d="M1766.95,-2986.14C1737,-2907.3 1737,-2579.71 1737,-2310.81 1737,-2310.81 1737,-2310.81 1737,-1627.81 1737,-1374.41 1737,-1067.81 1763.64,-976.03"/>
<polygon fill="black" stroke="black" points="1767.01,-976.98 1766.84,-966.39 1760.37,-974.77 1767.01,-976.98"/>
</g>
<!-- tso500_outputs_by_sample&#45;&gt;create_custom_output_entry_list_array_step -->
<g id="edge47" class="edge">
<title>tso500_outputs_by_sample&#45;&gt;create_custom_output_entry_list_array_step</title>
<path fill="none" stroke="black" d="M1772.97,-2986.14C1755,-2907.3 1755,-2579.71 1755,-2310.81 1755,-2310.81 1755,-2310.81 1755,-1627.81 1755,-1374.67 1755,-1068.43 1770.94,-976.31"/>
<polygon fill="black" stroke="black" points="1774.39,-976.88 1772.91,-966.39 1767.53,-975.51 1774.39,-976.88"/>
</g>
<!-- tso500_outputs_by_sample&#45;&gt;create_custom_output_entry_list_array_step -->
<g id="edge48" class="edge">
<title>tso500_outputs_by_sample&#45;&gt;create_custom_output_entry_list_array_step</title>
<path fill="none" stroke="black" d="M1778.99,-2986.14C1773,-2907.3 1773,-2579.71 1773,-2310.81 1773,-2310.81 1773,-2310.81 1773,-1627.81 1773,-1374.92 1773,-1069.05 1778.3,-976.59"/>
<polygon fill="black" stroke="black" points="1781.8,-976.6 1778.97,-966.39 1774.82,-976.14 1781.8,-976.6"/>
</g>
<!-- tso500_outputs_by_sample&#45;&gt;create_custom_output_entry_list_array_step -->
<g id="edge49" class="edge">
<title>tso500_outputs_by_sample&#45;&gt;create_custom_output_entry_list_array_step</title>
<path fill="none" stroke="black" d="M1785.01,-2986.14C1791,-2907.3 1791,-2579.71 1791,-2310.81 1791,-2310.81 1791,-2310.81 1791,-1627.81 1791,-1374.92 1791,-1069.05 1785.7,-976.59"/>
<polygon fill="black" stroke="black" points="1789.18,-976.14 1785.03,-966.39 1782.2,-976.6 1789.18,-976.14"/>
</g>
<!-- tso500_outputs_by_sample&#45;&gt;create_custom_output_entry_list_array_step -->
<g id="edge50" class="edge">
<title>tso500_outputs_by_sample&#45;&gt;create_custom_output_entry_list_array_step</title>
<path fill="none" stroke="black" d="M1791.03,-2986.14C1809,-2907.3 1809,-2579.71 1809,-2310.81 1809,-2310.81 1809,-2310.81 1809,-1627.81 1809,-1374.67 1809,-1068.43 1793.06,-976.31"/>
<polygon fill="black" stroke="black" points="1796.47,-975.51 1791.09,-966.39 1789.61,-976.88 1796.47,-975.51"/>
</g>
<!-- tso500_outputs_by_sample&#45;&gt;create_custom_output_entry_list_array_step -->
<g id="edge51" class="edge">
<title>tso500_outputs_by_sample&#45;&gt;create_custom_output_entry_list_array_step</title>
<path fill="none" stroke="black" d="M1797.05,-2986.14C1827,-2907.3 1827,-2579.71 1827,-2310.81 1827,-2310.81 1827,-2310.81 1827,-1627.81 1827,-1374.41 1827,-1067.81 1800.36,-976.03"/>
<polygon fill="black" stroke="black" points="1803.63,-974.77 1797.16,-966.39 1796.99,-976.98 1803.63,-974.77"/>
</g>
<!-- make_exon_coverage_qc_step -->
<g id="node21" class="node">
<title>make_exon_coverage_qc_step</title>
<polygon fill="lightgoldenrodyellow" stroke="black" points="354,-1951.31 354,-1988.31 706,-1988.31 706,-1951.31 354,-1951.31"/>
<text text-anchor="middle" x="530" y="-1966.11" font-family="Times,serif" font-size="14.00">custom&#45;tso500&#45;make&#45;exon&#45;coverage&#45;qc v(1.0.0)</text>
</g>
<!-- tso500_outputs_by_sample&#45;&gt;make_exon_coverage_qc_step -->
<g id="edge44" class="edge">
<title>tso500_outputs_by_sample&#45;&gt;make_exon_coverage_qc_step</title>
<path fill="none" stroke="black" d="M1745.09,-2986.23C1723.04,-2976.16 1694.3,-2963.79 1668,-2954.81 1187.2,-2790.68 881.07,-3064.35 561,-2669.81 518.19,-2617.05 526.53,-2122.55 529.31,-1998.79"/>
<polygon fill="black" stroke="black" points="532.82,-1998.7 529.55,-1988.62 525.82,-1998.54 532.82,-1998.7"/>
</g>
<!-- create_output_directory -->
<g id="node22" class="node">
<title>create_output_directory</title>
<polygon fill="lightgoldenrodyellow" stroke="black" points="2199.5,-589.31 2199.5,-626.31 2446.5,-626.31 2446.5,-589.31 2199.5,-589.31"/>
<text text-anchor="middle" x="2323" y="-604.11" font-family="Times,serif" font-size="14.00">custom&#45;create&#45;directory v(2.0.1)</text>
</g>
<!-- tso500_outputs_by_sample&#45;&gt;create_output_directory -->
<g id="edge59" class="edge">
<title>tso500_outputs_by_sample&#45;&gt;create_output_directory</title>
<path fill="none" stroke="black" d="M1882.17,-2986.29C2120.25,-2942.52 2709.17,-2820.94 2831,-2669.81 2931.59,-2545.04 2865,-2471.08 2865,-2310.81 2865,-2310.81 2865,-2310.81 2865,-1287.81 2865,-965.19 2486.62,-707.67 2362.16,-631.69"/>
<polygon fill="black" stroke="black" points="2363.67,-628.51 2353.3,-626.33 2360.04,-634.5 2363.67,-628.51"/>
</g>
<!-- run_dragen_multiqc_on_align_collapse_fusion_caller_dir_step -->
<g id="node23" class="node">
<title>run_dragen_multiqc_on_align_collapse_fusion_caller_dir_step</title>
<polygon fill="lightgoldenrodyellow" stroke="black" points="2893.5,-2632.31 2893.5,-2669.31 3032.5,-2669.31 3032.5,-2632.31 2893.5,-2632.31"/>
<text text-anchor="middle" x="2963" y="-2647.11" font-family="Times,serif" font-size="14.00">multiqc v(1.14.0)</text>
</g>
<!-- tso500_outputs_by_sample&#45;&gt;run_dragen_multiqc_on_align_collapse_fusion_caller_dir_step -->
<g id="edge52" class="edge">
<title>tso500_outputs_by_sample&#45;&gt;run_dragen_multiqc_on_align_collapse_fusion_caller_dir_step</title>
<path fill="none" stroke="black" d="M1831.5,-2986.24C2015.95,-2927.04 2659.67,-2735.12 2884.91,-2672.08"/>
<polygon fill="black" stroke="black" points="2885.99,-2675.42 2894.68,-2669.36 2884.11,-2668.67 2885.99,-2675.42"/>
</g>
<!-- tso500_outputs_by_sample&#45;&gt;run_dragen_multiqc_on_align_collapse_fusion_caller_dir_step -->
<g id="edge53" class="edge">
<title>tso500_outputs_by_sample&#45;&gt;run_dragen_multiqc_on_align_collapse_fusion_caller_dir_step</title>
<path fill="none" stroke="black" d="M1837.81,-2986.24C2031.61,-2927.07 2674.92,-2735.31 2891.32,-2672.18"/>
<polygon fill="black" stroke="black" points="2892.37,-2675.51 2900.99,-2669.36 2890.41,-2668.79 2892.37,-2675.51"/>
</g>
<!-- tso500_outputs_by_sample&#45;&gt;run_dragen_multiqc_on_align_collapse_fusion_caller_dir_step -->
<g id="edge54" class="edge">
<title>tso500_outputs_by_sample&#45;&gt;run_dragen_multiqc_on_align_collapse_fusion_caller_dir_step</title>
<path fill="none" stroke="black" d="M1844.13,-2986.24C2047.16,-2927.13 2689.54,-2735.69 2897.44,-2672.36"/>
<polygon fill="black" stroke="black" points="2898.75,-2675.62 2907.3,-2669.36 2896.71,-2668.93 2898.75,-2675.62"/>
</g>
<!-- tso500_outputs_by_sample&#45;&gt;run_dragen_multiqc_on_align_collapse_fusion_caller_dir_step -->
<g id="edge55" class="edge">
<title>tso500_outputs_by_sample&#45;&gt;run_dragen_multiqc_on_align_collapse_fusion_caller_dir_step</title>
<path fill="none" stroke="black" d="M1850.44,-2986.24C2062.8,-2927.16 2704.79,-2735.88 2903.91,-2672.46"/>
<polygon fill="black" stroke="black" points="2905.15,-2675.74 2913.61,-2669.36 2903.02,-2669.07 2905.15,-2675.74"/>
</g>
<!-- gather_compressed_vcf_files_into_tar_step -->
<g id="node24" class="node">
<title>gather_compressed_vcf_files_into_tar_step</title>
<polygon fill="lightgoldenrodyellow" stroke="black" points="2562.5,-1610.31 2562.5,-1647.31 2793.5,-1647.31 2793.5,-1610.31 2562.5,-1610.31"/>
<text text-anchor="middle" x="2678" y="-1625.11" font-family="Times,serif" font-size="14.00">custom&#45;tar&#45;vcf&#45;file&#45;list v(1.0.0)</text>
</g>
<!-- tso500_outputs_by_sample&#45;&gt;gather_compressed_vcf_files_into_tar_step -->
<g id="edge56" class="edge">
<title>tso500_outputs_by_sample&#45;&gt;gather_compressed_vcf_files_into_tar_step</title>
<path fill="none" stroke="black" d="M1883,-2986.24C2119.12,-2942.9 2695.68,-2823.17 2807,-2669.81 2929.25,-2501.4 2730.01,-1803.53 2686.22,-1656.91"/>
<polygon fill="black" stroke="black" points="2689.57,-1655.9 2683.35,-1647.33 2682.87,-1657.91 2689.57,-1655.9"/>
</g>
<!-- dragen_metrics_to_json_step -->
<g id="node25" class="node">
<title>dragen_metrics_to_json_step</title>
<polygon fill="lightgoldenrodyellow" stroke="black" points="0,-2291.31 0,-2328.31 514,-2328.31 514,-2291.31 0,-2291.31"/>
<text text-anchor="middle" x="257" y="-2306.11" font-family="Times,serif" font-size="14.00">custom&#45;tso500&#45;align&#45;collapse&#45;fusion&#45;caller&#45;csv&#45;metrics&#45;to&#45;json v(1.0.0)</text>
</g>
<!-- tso500_outputs_by_sample&#45;&gt;dragen_metrics_to_json_step -->
<g id="edge58" class="edge">
<title>tso500_outputs_by_sample&#45;&gt;dragen_metrics_to_json_step</title>
<path fill="none" stroke="black" d="M1745.36,-2986.28C1723.3,-2976.17 1694.43,-2963.73 1668,-2954.81 1173.16,-2787.82 963.54,-2958.02 528,-2669.81 394.55,-2581.5 301.1,-2404.54 269.12,-2337.44"/>
<polygon fill="black" stroke="black" points="272.28,-2335.92 264.85,-2328.36 265.94,-2338.9 272.28,-2335.92"/>
</g>
<!-- get_align_collapse_fusion_caller_metrics_csv_files_intermediate_step -->
<g id="node26" class="node">
<title>get_align_collapse_fusion_caller_metrics_csv_files_intermediate_step</title>
<polygon fill="lightgoldenrodyellow" stroke="black" points="196.5,-2632.31 196.5,-2669.31 437.5,-2669.31 437.5,-2632.31 196.5,-2632.31"/>
<text text-anchor="middle" x="317" y="-2647.11" font-family="Times,serif" font-size="14.00">get&#45;files&#45;from&#45;directory v(1.0.0)</text>
</g>
<!-- tso500_outputs_by_sample&#45;&gt;get_align_collapse_fusion_caller_metrics_csv_files_intermediate_step -->
<g id="edge60" class="edge">
<title>tso500_outputs_by_sample&#45;&gt;get_align_collapse_fusion_caller_metrics_csv_files_intermediate_step</title>
<path fill="none" stroke="black" d="M1738.14,-2986.28C1714.85,-2976.04 1685.74,-2963.48 1659,-2954.81 1214.61,-2810.85 666.38,-2710.85 431.99,-2671.03"/>
<polygon fill="black" stroke="black" points="432.53,-2667.57 422.08,-2669.35 431.36,-2674.47 432.53,-2667.57"/>
</g>
<!-- tso500_outputs_by_sample&#45;&gt;get_align_collapse_fusion_caller_metrics_csv_files_intermediate_step -->
<g id="edge61" class="edge">
<title>tso500_outputs_by_sample&#45;&gt;get_align_collapse_fusion_caller_metrics_csv_files_intermediate_step</title>
<path fill="none" stroke="black" d="M1753.52,-2986.16C1732.62,-2975.95 1703.64,-2963.44 1677,-2954.81 1232.39,-2810.78 683.84,-2710.75 441.75,-2670.97"/>
<polygon fill="black" stroke="black" points="442.3,-2667.51 431.87,-2669.35 441.17,-2674.42 442.3,-2667.51"/>
</g>
<!-- mosdepth_step -->
<g id="node27" class="node">
<title>mosdepth_step</title>
<polygon fill="lightgoldenrodyellow" stroke="black" points="632,-2291.31 632,-2328.31 778,-2328.31 778,-2291.31 632,-2291.31"/>
<text text-anchor="middle" x="705" y="-2306.11" font-family="Times,serif" font-size="14.00">mosdepth v(0.3.1)</text>
</g>
<!-- tso500_outputs_by_sample&#45;&gt;mosdepth_step -->
<g id="edge62" class="edge">
<title>tso500_outputs_by_sample&#45;&gt;mosdepth_step</title>
<path fill="none" stroke="black" d="M1742.65,-2986.28C1720.78,-2976.69 1693.02,-2964.78 1668,-2954.81 1326.65,-2818.89 1167.91,-2912.43 892,-2669.81 784.8,-2575.55 729.98,-2404.85 711.92,-2338.36"/>
<polygon fill="black" stroke="black" points="715.28,-2337.38 709.33,-2328.61 708.51,-2339.18 715.28,-2337.38"/>
</g>
<!-- get_raw_bam_file_intermediate_step -->
<g id="node28" class="node">
<title>get_raw_bam_file_intermediate_step</title>
<polygon fill="lightgoldenrodyellow" stroke="black" points="570.5,-2632.31 570.5,-2669.31 839.5,-2669.31 839.5,-2632.31 570.5,-2632.31"/>
<text text-anchor="middle" x="705" y="-2647.11" font-family="Times,serif" font-size="14.00">get&#45;bam&#45;file&#45;from&#45;directory v(1.0.0)</text>
</g>
<!-- tso500_outputs_by_sample&#45;&gt;get_raw_bam_file_intermediate_step -->
<g id="edge63" class="edge">
<title>tso500_outputs_by_sample&#45;&gt;get_raw_bam_file_intermediate_step</title>
<path fill="none" stroke="black" d="M1735.97,-2986.28C1712.91,-2976.47 1684.65,-2964.33 1659,-2954.81 1332.2,-2833.52 931.95,-2717.81 773.84,-2672.22"/>
<polygon fill="black" stroke="black" points="774.36,-2668.73 763.78,-2669.32 772.42,-2675.45 774.36,-2668.73"/>
</g>
<!-- tso500_outputs_by_sample&#45;&gt;get_raw_bam_file_intermediate_step -->
<g id="edge64" class="edge">
<title>tso500_outputs_by_sample&#45;&gt;get_raw_bam_file_intermediate_step</title>
<path fill="none" stroke="black" d="M1751.77,-2986.28C1730.91,-2976.47 1702.65,-2964.33 1677,-2954.81 1349.88,-2833.4 949.15,-2717.58 782.9,-2672.08"/>
<polygon fill="black" stroke="black" points="783.34,-2668.57 772.77,-2669.32 781.49,-2675.33 783.34,-2668.57"/>
</g>
<!-- tso_manifest_bed -->
<g id="node2" class="node">
<title>tso_manifest_bed</title>
<polygon fill="#94ddf4" stroke="black" points="1519,-2986.31 1519,-3023.31 1659,-3023.31 1659,-2986.31 1519,-2986.31"/>
<text text-anchor="middle" x="1589" y="-3001.11" font-family="Times,serif" font-size="14.00">tso_manifest_bed</text>
</g>
<!-- tso_manifest_bed&#45;&gt;mosdepth_step -->
<g id="edge65" class="edge">
<title>tso_manifest_bed&#45;&gt;mosdepth_step</title>
<path fill="none" stroke="black" d="M1518.7,-2991.87C1306.18,-2954.19 677.92,-2830.74 561,-2669.81 480.56,-2559.1 619.43,-2397.16 679.43,-2335.71"/>
<polygon fill="black" stroke="black" points="682.13,-2337.96 686.67,-2328.39 677.15,-2333.04 682.13,-2337.96"/>
</g>
<!-- post_processing_output_directory -->
<g id="node3" class="node">
<title>post_processing_output_directory</title>
<polygon fill="#94ddf4" stroke="black" points="2194.5,-248.31 2194.5,-285.31 2451.5,-285.31 2451.5,-248.31 2194.5,-248.31"/>
<text text-anchor="middle" x="2323" y="-263.11" font-family="Times,serif" font-size="14.00">post_processing_output_directory</text>
</g>
<!-- compress_reporting_jsons_with_gzip_step -->
<g id="node5" class="node">
<title>compress_reporting_jsons_with_gzip_step</title>
<polygon fill="lightgoldenrodyellow" stroke="black" points="2084,-2291.31 2084,-2328.31 2272,-2328.31 2272,-2291.31 2084,-2291.31"/>
<text text-anchor="middle" x="2178" y="-2306.11" font-family="Times,serif" font-size="14.00">custom&#45;gzip&#45;file v(1.0.0)</text>
</g>
<!-- get_tmb_json_intermediate_step&#45;&gt;compress_reporting_jsons_with_gzip_step -->
<g id="edge1" class="edge">
<title>get_tmb_json_intermediate_step&#45;&gt;compress_reporting_jsons_with_gzip_step</title>
<path fill="none" stroke="black" d="M2373.21,-2632.07C2339.22,-2576.12 2234.16,-2403.23 2193.91,-2337"/>
<polygon fill="black" stroke="black" points="2196.86,-2335.12 2188.68,-2328.39 2190.88,-2338.75 2196.86,-2335.12"/>
</g>
<!-- compress_reporting_jsons_with_gzip_step&#45;&gt;gather_compressed_reporting_json_files_into_tar_step -->
<g id="edge2" class="edge">
<title>compress_reporting_jsons_with_gzip_step&#45;&gt;gather_compressed_reporting_json_files_into_tar_step</title>
<path fill="none" stroke="black" d="M2178,-2291.12C2178,-2235.79 2178,-2065.77 2178,-1998.57"/>
<polygon fill="black" stroke="black" points="2181.5,-1998.34 2178,-1988.34 2174.5,-1998.34 2181.5,-1998.34"/>
</g>
<!-- gather_compressed_reporting_json_files_into_tar_step&#45;&gt;create_custom_output_entry_list_array_step -->
<g id="edge21" class="edge">
<title>gather_compressed_reporting_json_files_into_tar_step&#45;&gt;create_custom_output_entry_list_array_step</title>
<path fill="none" stroke="black" d="M2171.13,-1951.11C2124.14,-1830.08 1850.41,-1125.01 1792.68,-976.33"/>
<polygon fill="black" stroke="black" points="1795.79,-974.66 1788.91,-966.61 1789.26,-977.19 1795.79,-974.66"/>
</g>
<!-- get_msi_json_intermediate_step&#45;&gt;compress_reporting_jsons_with_gzip_step -->
<g id="edge3" class="edge">
<title>get_msi_json_intermediate_step&#45;&gt;compress_reporting_jsons_with_gzip_step</title>
<path fill="none" stroke="black" d="M1982.79,-2632.07C2016.78,-2576.12 2121.84,-2403.23 2162.09,-2337"/>
<polygon fill="black" stroke="black" points="2165.12,-2338.75 2167.32,-2328.39 2159.14,-2335.12 2165.12,-2338.75"/>
</g>
<!-- get_sample_analysis_results_intermediate_step&#45;&gt;compress_reporting_jsons_with_gzip_step -->
<g id="edge4" class="edge">
<title>get_sample_analysis_results_intermediate_step&#45;&gt;compress_reporting_jsons_with_gzip_step</title>
<path fill="none" stroke="black" d="M2178,-2632.07C2178,-2576.57 2178,-2406.05 2178,-2338.65"/>
<polygon fill="black" stroke="black" points="2181.5,-2338.39 2178,-2328.39 2174.5,-2338.39 2181.5,-2338.39"/>
</g>
<!-- compress_vcf_files_step -->
<g id="node10" class="node">
<title>compress_vcf_files_step</title>
<polygon fill="lightgoldenrodyellow" stroke="black" points="2616,-2291.31 2616,-2328.31 2740,-2328.31 2740,-2291.31 2616,-2291.31"/>
<text text-anchor="middle" x="2678" y="-2306.11" font-family="Times,serif" font-size="14.00">bgzip v(1.12.0)</text>
</g>
<!-- get_vcf_files_intermediate_step&#45;&gt;compress_vcf_files_step -->
<g id="edge5" class="edge">
<title>get_vcf_files_intermediate_step&#45;&gt;compress_vcf_files_step</title>
<path fill="none" stroke="black" d="M2678,-2632.07C2678,-2576.57 2678,-2406.05 2678,-2338.65"/>
<polygon fill="black" stroke="black" points="2681.5,-2338.39 2678,-2328.39 2674.5,-2338.39 2681.5,-2338.39"/>
</g>
<!-- index_vcf_files_step -->
<g id="node11" class="node">
<title>index_vcf_files_step</title>
<polygon fill="lightgoldenrodyellow" stroke="black" points="2622,-1951.31 2622,-1988.31 2734,-1988.31 2734,-1951.31 2622,-1951.31"/>
<text text-anchor="middle" x="2678" y="-1966.11" font-family="Times,serif" font-size="14.00">tabix v(0.2.6)</text>
</g>
<!-- compress_vcf_files_step&#45;&gt;index_vcf_files_step -->
<g id="edge6" class="edge">
<title>compress_vcf_files_step&#45;&gt;index_vcf_files_step</title>
<path fill="none" stroke="black" d="M2678,-2291.12C2678,-2235.79 2678,-2065.77 2678,-1998.57"/>
<polygon fill="black" stroke="black" points="2681.5,-1998.34 2678,-1988.34 2674.5,-1998.34 2681.5,-1998.34"/>
</g>
<!-- index_vcf_files_step&#45;&gt;gather_compressed_vcf_files_into_tar_step -->
<g id="edge25" class="edge">
<title>index_vcf_files_step&#45;&gt;gather_compressed_vcf_files_into_tar_step</title>
<path fill="none" stroke="black" d="M2678,-1951.07C2678,-1895.57 2678,-1725.05 2678,-1657.65"/>
<polygon fill="black" stroke="black" points="2681.5,-1657.39 2678,-1647.39 2674.5,-1657.39 2681.5,-1657.39"/>
</g>
<!-- convert_metric_csvs_into_json_gzip_step -->
<g id="node13" class="node">
<title>convert_metric_csvs_into_json_gzip_step</title>
<polygon fill="lightgoldenrodyellow" stroke="black" points="1100,-1610.31 1100,-1647.31 1306,-1647.31 1306,-1610.31 1100,-1610.31"/>
<text text-anchor="middle" x="1203" y="-1625.11" font-family="Times,serif" font-size="14.00">custom&#45;tsv&#45;to&#45;json v(1.0.0)</text>
</g>
<!-- make_per_coverage_threshold_qc_step&#45;&gt;convert_metric_csvs_into_json_gzip_step -->
<g id="edge7" class="edge">
<title>make_per_coverage_threshold_qc_step&#45;&gt;convert_metric_csvs_into_json_gzip_step</title>
<path fill="none" stroke="black" d="M921.55,-1951.07C970.77,-1894.89 1123.27,-1720.82 1180.76,-1655.19"/>
<polygon fill="black" stroke="black" points="1183.65,-1657.22 1187.6,-1647.39 1178.38,-1652.6 1183.65,-1657.22"/>
</g>
<!-- convert_metric_csvs_into_json_gzip_step&#45;&gt;gather_compressed_metric_json_files_into_tar_step -->
<g id="edge8" class="edge">
<title>convert_metric_csvs_into_json_gzip_step&#45;&gt;gather_compressed_metric_json_files_into_tar_step</title>
<path fill="none" stroke="black" d="M1218.97,-1610.12C1269.51,-1554.11 1426.12,-1380.55 1485.17,-1315.12"/>
<polygon fill="black" stroke="black" points="1488.09,-1317.1 1492.19,-1307.34 1482.89,-1312.41 1488.09,-1317.1"/>
</g>
<!-- gather_compressed_metric_json_files_into_tar_step&#45;&gt;create_custom_output_entry_list_array_step -->
<g id="edge17" class="edge">
<title>gather_compressed_metric_json_files_into_tar_step&#45;&gt;create_custom_output_entry_list_array_step</title>
<path fill="none" stroke="black" d="M1522.35,-1270.07C1567.75,-1213.89 1708.45,-1039.82 1761.49,-974.19"/>
<polygon fill="black" stroke="black" points="1764.23,-976.36 1767.8,-966.39 1758.79,-971.96 1764.23,-976.36"/>
</g>
<!-- get_zero_val_for_skip_rows_parameter -->
<g id="node15" class="node">
<title>get_zero_val_for_skip_rows_parameter</title>
<polygon fill="lightgoldenrodyellow" stroke="black" points="1182,-1951.31 1182,-1988.31 1322,-1988.31 1322,-1951.31 1182,-1951.31"/>
<text text-anchor="middle" x="1252" y="-1966.11" font-family="Times,serif" font-size="14.00">parse&#45;int v(1.0.0)</text>
</g>
<!-- get_zero_val_for_skip_rows_parameter&#45;&gt;convert_metric_csvs_into_json_gzip_step -->
<g id="edge9" class="edge">
<title>get_zero_val_for_skip_rows_parameter&#45;&gt;convert_metric_csvs_into_json_gzip_step</title>
<path fill="none" stroke="black" d="M1249.43,-1951.07C1241.41,-1895.57 1216.77,-1725.05 1207.02,-1657.65"/>
<polygon fill="black" stroke="black" points="1210.43,-1656.78 1205.54,-1647.39 1203.51,-1657.78 1210.43,-1656.78"/>
</g>
<!-- get_fragment_length_hist_csv_intermediate_step&#45;&gt;convert_metric_csvs_into_json_gzip_step -->
<g id="edge10" class="edge">
<title>get_fragment_length_hist_csv_intermediate_step&#45;&gt;convert_metric_csvs_into_json_gzip_step</title>
<path fill="none" stroke="black" d="M1053.64,-2632.11C1071.66,-2511.2 1176.53,-1807.42 1198.83,-1657.78"/>
<polygon fill="black" stroke="black" points="1202.34,-1658.01 1200.35,-1647.61 1195.41,-1656.98 1202.34,-1658.01"/>
</g>
<!-- get_one_val_for_skip_rows_parameter -->
<g id="node17" class="node">
<title>get_one_val_for_skip_rows_parameter</title>
<polygon fill="lightgoldenrodyellow" stroke="black" points="1340,-1951.31 1340,-1988.31 1480,-1988.31 1480,-1951.31 1340,-1951.31"/>
<text text-anchor="middle" x="1410" y="-1966.11" font-family="Times,serif" font-size="14.00">parse&#45;int v(1.0.0)</text>
</g>
<!-- get_one_val_for_skip_rows_parameter&#45;&gt;convert_metric_csvs_into_json_gzip_step -->
<g id="edge11" class="edge">
<title>get_one_val_for_skip_rows_parameter&#45;&gt;convert_metric_csvs_into_json_gzip_step</title>
<path fill="none" stroke="black" d="M1399.16,-1951.07C1365,-1895.12 1259.43,-1722.23 1218.99,-1656"/>
<polygon fill="black" stroke="black" points="1221.93,-1654.1 1213.73,-1647.39 1215.95,-1657.75 1221.93,-1654.1"/>
</g>
<!-- get_tmb_trace_tsv_intermediate_step&#45;&gt;convert_metric_csvs_into_json_gzip_step -->
<g id="edge12" class="edge">
<title>get_tmb_trace_tsv_intermediate_step&#45;&gt;convert_metric_csvs_into_json_gzip_step</title>
<path fill="none" stroke="black" d="M1295.67,-2632.2C1268.06,-2553.55 1160.15,-2226.32 1173,-1950.81 1178.07,-1842.05 1192.76,-1713.23 1199.52,-1657.64"/>
<polygon fill="black" stroke="black" points="1203.02,-1657.87 1200.76,-1647.52 1196.07,-1657.02 1203.02,-1657.87"/>
</g>
<!-- get_fusion_csv_intermediate_step&#45;&gt;convert_metric_csvs_into_json_gzip_step -->
<g id="edge13" class="edge">
<title>get_fusion_csv_intermediate_step&#45;&gt;convert_metric_csvs_into_json_gzip_step</title>
<path fill="none" stroke="black" d="M1592.99,-2632.27C1596.88,-2550.56 1605.69,-2200.59 1489,-1950.81 1427.6,-1819.38 1294.58,-1702.49 1234.08,-1653.82"/>
<polygon fill="black" stroke="black" points="1236.04,-1650.91 1226.04,-1647.41 1231.68,-1656.38 1236.04,-1650.91"/>
</g>
<!-- get_fusion_csv_intermediate_step&#45;&gt;create_custom_output_entry_list_array_step -->
<g id="edge14" class="edge">
<title>get_fusion_csv_intermediate_step&#45;&gt;create_custom_output_entry_list_array_step</title>
<path fill="none" stroke="black" d="M1595.51,-2632.06C1610.57,-2554.25 1669,-2235.38 1669,-1970.81 1669,-1970.81 1669,-1970.81 1669,-1627.81 1669,-1371.47 1748.34,-1067.99 1774.06,-976.34"/>
<polygon fill="black" stroke="black" points="1777.5,-977.04 1776.85,-966.47 1770.76,-975.14 1777.5,-977.04"/>
</g>
<!-- create_custom_output_entry_list_array_step&#45;&gt;create_output_directory -->
<g id="edge18" class="edge">
<title>create_custom_output_entry_list_array_step&#45;&gt;create_output_directory</title>
<path fill="none" stroke="black" d="M1810.32,-929.12C1901.07,-872.42 2184.59,-695.29 2286.26,-631.77"/>
<polygon fill="black" stroke="black" points="2288.33,-634.6 2294.96,-626.34 2284.62,-628.67 2288.33,-634.6"/>
</g>
<!-- make_exon_coverage_qc_step&#45;&gt;convert_metric_csvs_into_json_gzip_step -->
<g id="edge15" class="edge">
<title>make_exon_coverage_qc_step&#45;&gt;convert_metric_csvs_into_json_gzip_step</title>
<path fill="none" stroke="black" d="M564.77,-1951.3C677.68,-1894.42 1034.02,-1714.93 1159.09,-1651.93"/>
<polygon fill="black" stroke="black" points="1160.68,-1655.05 1168.04,-1647.42 1157.53,-1648.8 1160.68,-1655.05"/>
</g>
<!-- make_exon_coverage_qc_step&#45;&gt;create_custom_output_entry_list_array_step -->
<g id="edge16" class="edge">
<title>make_exon_coverage_qc_step&#45;&gt;create_custom_output_entry_list_array_step</title>
<path fill="none" stroke="black" d="M551.73,-1951.11C701.41,-1829.17 1578.75,-1114.4 1752.21,-973.08"/>
<polygon fill="black" stroke="black" points="1754.62,-975.64 1760.16,-966.61 1750.2,-970.21 1754.62,-975.64"/>
</g>
<!-- create_output_directory&#45;&gt;post_processing_output_directory -->
<g id="edge23" class="edge">
<title>create_output_directory&#45;&gt;post_processing_output_directory</title>
<path fill="none" stroke="black" d="M2323,-589.07C2323,-533.57 2323,-363.05 2323,-295.65"/>
<polygon fill="black" stroke="black" points="2326.5,-295.39 2323,-285.39 2319.5,-295.39 2326.5,-295.39"/>
</g>
<!-- run_dragen_multiqc_on_align_collapse_fusion_caller_dir_step&#45;&gt;create_custom_output_entry_list_array_step -->
<g id="edge19" class="edge">
<title>run_dragen_multiqc_on_align_collapse_fusion_caller_dir_step&#45;&gt;create_custom_output_entry_list_array_step</title>
<path fill="none" stroke="black" d="M2961.65,-2632.25C2955.82,-2554.6 2933,-2234.24 2933,-1970.81 2933,-1970.81 2933,-1970.81 2933,-1627.81 2933,-1171.66 2254.06,-1015.66 1939.08,-967.84"/>
<polygon fill="black" stroke="black" points="1939.35,-964.34 1928.94,-966.32 1938.31,-971.26 1939.35,-964.34"/>
</g>
<!-- gather_compressed_vcf_files_into_tar_step&#45;&gt;create_custom_output_entry_list_array_step -->
<g id="edge20" class="edge">
<title>gather_compressed_vcf_files_into_tar_step&#45;&gt;create_custom_output_entry_list_array_step</title>
<path fill="none" stroke="black" d="M2654.49,-1610C2530.76,-1516.24 1955.26,-1080.12 1813.58,-972.75"/>
<polygon fill="black" stroke="black" points="1815.34,-969.69 1805.26,-966.44 1811.12,-975.27 1815.34,-969.69"/>
</g>
<!-- dragen_metrics_to_json_step&#45;&gt;create_custom_output_entry_list_array_step -->
<g id="edge22" class="edge">
<title>dragen_metrics_to_json_step&#45;&gt;create_custom_output_entry_list_array_step</title>
<path fill="none" stroke="black" d="M257.09,-2291.03C258.21,-2235.6 268.04,-2062.95 345,-1950.81 723.39,-1399.45 1511.82,-1056.05 1726.82,-970.11"/>
<polygon fill="black" stroke="black" points="1728.33,-973.28 1736.33,-966.33 1725.74,-966.77 1728.33,-973.28"/>
</g>
<!-- get_align_collapse_fusion_caller_metrics_csv_files_intermediate_step&#45;&gt;dragen_metrics_to_json_step -->
<g id="edge24" class="edge">
<title>get_align_collapse_fusion_caller_metrics_csv_files_intermediate_step&#45;&gt;dragen_metrics_to_json_step</title>
<path fill="none" stroke="black" d="M313.86,-2632.07C304.04,-2576.57 273.86,-2406.05 261.93,-2338.65"/>
<polygon fill="black" stroke="black" points="265.3,-2337.62 260.11,-2328.39 258.41,-2338.84 265.3,-2337.62"/>
</g>
<!-- mosdepth_step&#45;&gt;make_per_coverage_threshold_qc_step -->
<g id="edge26" class="edge">
<title>mosdepth_step&#45;&gt;make_per_coverage_threshold_qc_step</title>
<path fill="none" stroke="black" d="M715.52,-2291.12C748.63,-2235.45 850.78,-2063.66 890.23,-1997.33"/>
<polygon fill="black" stroke="black" points="893.48,-1998.72 895.58,-1988.34 887.46,-1995.14 893.48,-1998.72"/>
</g>
<!-- mosdepth_step&#45;&gt;make_exon_coverage_qc_step -->
<g id="edge27" class="edge">
<title>mosdepth_step&#45;&gt;make_exon_coverage_qc_step</title>
<path fill="none" stroke="black" d="M695.84,-2291.12C667.01,-2235.45 578.07,-2063.66 543.73,-1997.33"/>
<polygon fill="black" stroke="black" points="546.78,-1995.61 539.07,-1988.34 540.56,-1998.82 546.78,-1995.61"/>
</g>
<!-- get_raw_bam_file_intermediate_step&#45;&gt;mosdepth_step -->
<g id="edge28" class="edge">
<title>get_raw_bam_file_intermediate_step&#45;&gt;mosdepth_step</title>
<path fill="none" stroke="black" d="M705,-2632.07C705,-2576.57 705,-2406.05 705,-2338.65"/>
<polygon fill="black" stroke="black" points="708.5,-2338.39 705,-2328.39 701.5,-2338.39 708.5,-2338.39"/>
</g>
<!-- create_dummy_file_step -->
<g id="node29" class="node">
<title>create_dummy_file_step</title>
<polygon fill="lightgoldenrodyellow" stroke="black" points="2832.5,-2986.31 2832.5,-3023.31 3093.5,-3023.31 3093.5,-2986.31 2832.5,-2986.31"/>
<text text-anchor="middle" x="2963" y="-3001.11" font-family="Times,serif" font-size="14.00">custom&#45;create&#45;dummy&#45;file v(1.0.0)</text>
</g>
<!-- create_dummy_file_step&#45;&gt;run_dragen_multiqc_on_align_collapse_fusion_caller_dir_step -->
<g id="edge29" class="edge">
<title>create_dummy_file_step&#45;&gt;run_dragen_multiqc_on_align_collapse_fusion_caller_dir_step</title>
<path fill="none" stroke="black" d="M2963,-2985.87C2963,-2928.56 2963,-2749.55 2963,-2679.92"/>
<polygon fill="black" stroke="black" points="2966.5,-2679.72 2963,-2669.72 2959.5,-2679.72 2966.5,-2679.72"/>
</g>
<!-- \n -->
<g id="node30" class="node">
<title>\n</title>
<ellipse fill="none" stroke="black" cx="3139" cy="-3004.81" rx="27" ry="18"/>
</g>
</g>
</svg>
