<?xml version="1.0" encoding="UTF-8" standalone="no"?>
<!DOCTYPE svg PUBLIC "-//W3C//DTD SVG 1.1//EN"
 "http://www.w3.org/Graphics/SVG/1.1/DTD/svg11.dtd">
<!-- Generated by graphviz version 2.43.0 (0)
 -->
<!-- Title: G Pages: 1 -->
<svg width="7920pt" height="1986pt"
 viewBox="0.00 0.00 7919.50 1985.75" xmlns="http://www.w3.org/2000/svg" xmlns:xlink="http://www.w3.org/1999/xlink">
<g id="graph0" class="graph" transform="scale(1 1) rotate(0) translate(4 1981.75)">
<title>G</title>
<polygon fill="#eeeeee" stroke="transparent" points="-4,4 -4,-1981.75 7915.5,-1981.75 7915.5,4 -4,4"/>
<g id="clust1" class="cluster">
<title>cluster_inputs</title>
<polygon fill="#eeeeee" stroke="black" stroke-dasharray="5,2" points="229.5,-1448.67 229.5,-1927.36 7903.5,-1927.36 7903.5,-1448.67 229.5,-1448.67"/>
<text text-anchor="middle" x="7837" y="-1456.47" font-family="Times,serif" font-size="14.00">Workflow Inputs</text>
</g>
<g id="clust2" class="cluster">
<title>cluster_outputs</title>
<polygon fill="#eeeeee" stroke="black" stroke-dasharray="5,2" points="3452.5,-50.39 3452.5,-529.08 4108.5,-529.08 4108.5,-50.39 3452.5,-50.39"/>
<text text-anchor="middle" x="4036" y="-58.19" font-family="Times,serif" font-size="14.00">Workflow Outputs</text>
</g>
<!-- run_dragen_alignment_step -->
<g id="node1" class="node">
<title>run_dragen_alignment_step</title>
<polygon fill="lightgoldenrodyellow" stroke="black" points="3932,-1263.39 3932,-1299.39 4135,-1299.39 4135,-1263.39 3932,-1263.39"/>
<text text-anchor="middle" x="4033.5" y="-1277.69" font-family="Times,serif" font-size="14.00">dragen&#45;alignment v(4.0.3)</text>
</g>
<!-- dragen_qc_step -->
<g id="node2" class="node">
<title>dragen_qc_step</title>
<polygon fill="lightgoldenrodyellow" stroke="black" points="238,-804.39 238,-840.39 377,-840.39 377,-804.39 238,-804.39"/>
<text text-anchor="middle" x="307.5" y="-818.69" font-family="Times,serif" font-size="14.00">multiqc v(1.14.0)</text>
</g>
<!-- run_dragen_alignment_step&#45;&gt;dragen_qc_step -->
<g id="edge1" class="edge">
<title>run_dragen_alignment_step&#45;&gt;dragen_qc_step</title>
<path fill="none" stroke="black" d="M3931.91,-1267.93C3392.38,-1201.75 869.3,-892.29 387.22,-833.17"/>
<polygon fill="black" stroke="black" points="387.57,-829.68 377.22,-831.94 386.72,-836.63 387.57,-829.68"/>
</g>
<!-- dragen_alignment_output_directory -->
<g id="node59" class="node">
<title>dragen_alignment_output_directory</title>
<polygon fill="#94ddf4" stroke="black" points="3676.5,-344.39 3676.5,-380.39 3948.5,-380.39 3948.5,-344.39 3676.5,-344.39"/>
<text text-anchor="middle" x="3812.5" y="-358.69" font-family="Times,serif" font-size="14.00">dragen_alignment_output_directory</text>
</g>
<!-- run_dragen_alignment_step&#45;&gt;dragen_alignment_output_directory -->
<g id="edge61" class="edge">
<title>run_dragen_alignment_step&#45;&gt;dragen_alignment_output_directory</title>
<path fill="none" stroke="black" d="M4029.38,-1263.29C4002.51,-1151.82 3852.34,-528.71 3819.04,-390.53"/>
<polygon fill="black" stroke="black" points="3822.43,-389.64 3816.68,-380.74 3815.62,-391.28 3822.43,-389.64"/>
</g>
<!-- dragen_bam_out -->
<g id="node60" class="node">
<title>dragen_bam_out</title>
<polygon fill="#94ddf4" stroke="black" points="3966.5,-344.39 3966.5,-380.39 4100.5,-380.39 4100.5,-344.39 3966.5,-344.39"/>
<text text-anchor="middle" x="4033.5" y="-358.69" font-family="Times,serif" font-size="14.00">dragen_bam_out</text>
</g>
<!-- run_dragen_alignment_step&#45;&gt;dragen_bam_out -->
<g id="edge62" class="edge">
<title>run_dragen_alignment_step&#45;&gt;dragen_bam_out</title>
<path fill="none" stroke="black" d="M4033.5,-1263.29C4033.5,-1151.93 4033.5,-529.96 4033.5,-390.95"/>
<polygon fill="black" stroke="black" points="4037,-390.74 4033.5,-380.74 4030,-390.74 4037,-390.74"/>
</g>
<!-- multiqc_output_directory -->
<g id="node61" class="node">
<title>multiqc_output_directory</title>
<polygon fill="#94ddf4" stroke="black" points="3461,-344.39 3461,-380.39 3658,-380.39 3658,-344.39 3461,-344.39"/>
<text text-anchor="middle" x="3559.5" y="-358.69" font-family="Times,serif" font-size="14.00">multiqc_output_directory</text>
</g>
<!-- dragen_qc_step&#45;&gt;multiqc_output_directory -->
<g id="edge63" class="edge">
<title>dragen_qc_step&#45;&gt;multiqc_output_directory</title>
<path fill="none" stroke="black" d="M377.31,-811.56C792.94,-753.02 2940.89,-450.51 3450.82,-378.7"/>
<polygon fill="black" stroke="black" points="3451.34,-382.16 3460.75,-377.3 3450.36,-375.22 3451.34,-382.16"/>
</g>
<!-- create_dummy_file_step -->
<g id="node3" class="node">
<title>create_dummy_file_step</title>
<polygon fill="lightgoldenrodyellow" stroke="black" points="0,-1263.39 0,-1299.39 261,-1299.39 261,-1263.39 0,-1263.39"/>
<text text-anchor="middle" x="130.5" y="-1277.69" font-family="Times,serif" font-size="14.00">custom&#45;create&#45;dummy&#45;file v(1.0.0)</text>
</g>
<!-- create_dummy_file_step&#45;&gt;dragen_qc_step -->
<g id="edge2" class="edge">
<title>create_dummy_file_step&#45;&gt;dragen_qc_step</title>
<path fill="none" stroke="black" d="M137.12,-1263.31C163.89,-1194.17 264.36,-934.78 297.11,-850.22"/>
<polygon fill="black" stroke="black" points="300.41,-851.39 300.76,-840.8 293.88,-848.86 300.41,-851.39"/>
</g>
<!-- output_file_prefix -->
<g id="node4" class="node">
<title>output_file_prefix</title>
<polygon fill="#94ddf4" stroke="black" points="237.5,-1742.39 237.5,-1778.39 377.5,-1778.39 377.5,-1742.39 237.5,-1742.39"/>
<text text-anchor="middle" x="307.5" y="-1756.69" font-family="Times,serif" font-size="14.00">output_file_prefix</text>
</g>
<!-- output_file_prefix&#45;&gt;run_dragen_alignment_step -->
<g id="edge6" class="edge">
<title>output_file_prefix&#45;&gt;run_dragen_alignment_step</title>
<path fill="none" stroke="black" d="M329.65,-1742.38C345.02,-1731.5 366.46,-1718.12 387.5,-1710.89 1068.02,-1477.03 3384.72,-1322.34 3921.72,-1289.11"/>
<polygon fill="black" stroke="black" points="3922.02,-1292.59 3931.79,-1288.48 3921.59,-1285.61 3922.02,-1292.59"/>
</g>
<!-- output_file_prefix&#45;&gt;dragen_qc_step -->
<g id="edge3" class="edge">
<title>output_file_prefix&#45;&gt;dragen_qc_step</title>
<path fill="none" stroke="black" d="M303.52,-1742.34C291.17,-1629.69 290.84,-992.39 302.51,-851.12"/>
<polygon fill="black" stroke="black" points="306.03,-851.04 303.49,-840.76 299.07,-850.38 306.03,-851.04"/>
</g>
<!-- output_file_prefix&#45;&gt;dragen_qc_step -->
<g id="edge4" class="edge">
<title>output_file_prefix&#45;&gt;dragen_qc_step</title>
<path fill="none" stroke="black" d="M307.5,-1742.34C307.5,-1629.69 307.5,-992.39 307.5,-851.12"/>
<polygon fill="black" stroke="black" points="311,-850.76 307.5,-840.76 304,-850.76 311,-850.76"/>
</g>
<!-- output_file_prefix&#45;&gt;dragen_qc_step -->
<g id="edge5" class="edge">
<title>output_file_prefix&#45;&gt;dragen_qc_step</title>
<path fill="none" stroke="black" d="M311.48,-1742.34C323.83,-1629.69 324.16,-992.39 312.49,-851.12"/>
<polygon fill="black" stroke="black" points="315.93,-850.38 311.51,-840.76 308.97,-851.04 315.93,-850.38"/>
</g>
<!-- aln_min_score -->
<g id="node5" class="node">
<title>aln_min_score</title>
<polygon fill="#94ddf4" stroke="black" points="7687,-1742.39 7687,-1778.39 7804,-1778.39 7804,-1742.39 7687,-1742.39"/>
<text text-anchor="middle" x="7745.5" y="-1756.69" font-family="Times,serif" font-size="14.00">aln_min_score</text>
</g>
<!-- aln_min_score&#45;&gt;run_dragen_alignment_step -->
<g id="edge7" class="edge">
<title>aln_min_score&#45;&gt;run_dragen_alignment_step</title>
<path fill="none" stroke="black" d="M7727.09,-1742.33C7714.21,-1731.43 7696.03,-1718.04 7677.5,-1710.89 7006.35,-1451.88 4682.81,-1316.35 4145.16,-1288.04"/>
<polygon fill="black" stroke="black" points="4145.25,-1284.53 4135.08,-1287.51 4144.88,-1291.53 4145.25,-1284.53"/>
</g>
<!-- alt_aware -->
<g id="node6" class="node">
<title>alt_aware</title>
<polygon fill="#94ddf4" stroke="black" points="7582.5,-1742.39 7582.5,-1778.39 7668.5,-1778.39 7668.5,-1742.39 7582.5,-1742.39"/>
<text text-anchor="middle" x="7625.5" y="-1756.69" font-family="Times,serif" font-size="14.00">alt_aware</text>
</g>
<!-- alt_aware&#45;&gt;run_dragen_alignment_step -->
<g id="edge8" class="edge">
<title>alt_aware&#45;&gt;run_dragen_alignment_step</title>
<path fill="none" stroke="black" d="M7611.97,-1742.08C7602.45,-1731.22 7588.72,-1717.97 7573.5,-1710.89 6940.82,-1416.49 4677.15,-1308.3 4145.74,-1286.66"/>
<polygon fill="black" stroke="black" points="4145.52,-1283.15 4135.39,-1286.24 4145.24,-1290.15 4145.52,-1283.15"/>
</g>
<!-- ann_sj_max_indel -->
<g id="node7" class="node">
<title>ann_sj_max_indel</title>
<polygon fill="#94ddf4" stroke="black" points="7424.5,-1742.39 7424.5,-1778.39 7564.5,-1778.39 7564.5,-1742.39 7424.5,-1742.39"/>
<text text-anchor="middle" x="7494.5" y="-1756.69" font-family="Times,serif" font-size="14.00">ann_sj_max_indel</text>
</g>
<!-- ann_sj_max_indel&#45;&gt;run_dragen_alignment_step -->
<g id="edge9" class="edge">
<title>ann_sj_max_indel&#45;&gt;run_dragen_alignment_step</title>
<path fill="none" stroke="black" d="M7472.31,-1742.2C7457.15,-1731.39 7436.15,-1718.15 7415.5,-1710.89 6788.43,-1490.26 4657.81,-1326.89 4145.13,-1290.17"/>
<polygon fill="black" stroke="black" points="4145.36,-1286.68 4135.14,-1289.46 4144.86,-1293.66 4145.36,-1286.68"/>
</g>
<!-- dedup_min_qual -->
<g id="node8" class="node">
<title>dedup_min_qual</title>
<polygon fill="#94ddf4" stroke="black" points="7274.5,-1742.39 7274.5,-1778.39 7406.5,-1778.39 7406.5,-1742.39 7274.5,-1742.39"/>
<text text-anchor="middle" x="7340.5" y="-1756.69" font-family="Times,serif" font-size="14.00">dedup_min_qual</text>
</g>
<!-- dedup_min_qual&#45;&gt;run_dragen_alignment_step -->
<g id="edge10" class="edge">
<title>dedup_min_qual&#45;&gt;run_dragen_alignment_step</title>
<path fill="none" stroke="black" d="M7319.56,-1742.21C7305.22,-1731.41 7285.29,-1718.18 7265.5,-1710.89 6670.9,-1491.87 4644.16,-1328.19 4145.18,-1290.58"/>
<polygon fill="black" stroke="black" points="4145.33,-1287.08 4135.1,-1289.82 4144.81,-1294.06 4145.33,-1287.08"/>
</g>
<!-- edit_chain_limit -->
<g id="node9" class="node">
<title>edit_chain_limit</title>
<polygon fill="#94ddf4" stroke="black" points="7127,-1742.39 7127,-1778.39 7256,-1778.39 7256,-1742.39 7127,-1742.39"/>
<text text-anchor="middle" x="7191.5" y="-1756.69" font-family="Times,serif" font-size="14.00">edit_chain_limit</text>
</g>
<!-- edit_chain_limit&#45;&gt;run_dragen_alignment_step -->
<g id="edge11" class="edge">
<title>edit_chain_limit&#45;&gt;run_dragen_alignment_step</title>
<path fill="none" stroke="black" d="M7170.86,-1742.25C7156.72,-1731.46 7137.06,-1718.23 7117.5,-1710.89 6552.98,-1498.97 4630.2,-1330.98 4145.27,-1291.3"/>
<polygon fill="black" stroke="black" points="4145.36,-1287.8 4135.11,-1290.47 4144.79,-1294.78 4145.36,-1287.8"/>
</g>
<!-- edit_mode -->
<g id="node10" class="node">
<title>edit_mode</title>
<polygon fill="#94ddf4" stroke="black" points="7018.5,-1742.39 7018.5,-1778.39 7108.5,-1778.39 7108.5,-1742.39 7018.5,-1742.39"/>
<text text-anchor="middle" x="7063.5" y="-1756.69" font-family="Times,serif" font-size="14.00">edit_mode</text>
</g>
<!-- edit_mode&#45;&gt;run_dragen_alignment_step -->
<g id="edge12" class="edge">
<title>edit_mode&#45;&gt;run_dragen_alignment_step</title>
<path fill="none" stroke="black" d="M7049.26,-1742.19C7039.29,-1731.38 7025.02,-1718.15 7009.5,-1710.89 6483.2,-1464.79 4621.94,-1322.68 4145.33,-1289.8"/>
<polygon fill="black" stroke="black" points="4145.23,-1286.28 4135.01,-1289.09 4144.74,-1293.26 4145.23,-1286.28"/>
</g>
<!-- edit_read_len -->
<g id="node11" class="node">
<title>edit_read_len</title>
<polygon fill="#94ddf4" stroke="black" points="6888.5,-1742.39 6888.5,-1778.39 7000.5,-1778.39 7000.5,-1742.39 6888.5,-1742.39"/>
<text text-anchor="middle" x="6944.5" y="-1756.69" font-family="Times,serif" font-size="14.00">edit_read_len</text>
</g>
<!-- edit_read_len&#45;&gt;run_dragen_alignment_step -->
<g id="edge13" class="edge">
<title>edit_read_len&#45;&gt;run_dragen_alignment_step</title>
<path fill="none" stroke="black" d="M6926.69,-1742.27C6914.41,-1731.49 6897.17,-1718.26 6879.5,-1710.89 6368.23,-1497.59 4607.45,-1332.32 4145.31,-1291.9"/>
<polygon fill="black" stroke="black" points="4145.56,-1288.41 4135.29,-1291.02 4144.95,-1295.38 4145.56,-1288.41"/>
</g>
<!-- edit_seed_num -->
<g id="node12" class="node">
<title>edit_seed_num</title>
<polygon fill="#94ddf4" stroke="black" points="6748.5,-1742.39 6748.5,-1778.39 6870.5,-1778.39 6870.5,-1742.39 6748.5,-1742.39"/>
<text text-anchor="middle" x="6809.5" y="-1756.69" font-family="Times,serif" font-size="14.00">edit_seed_num</text>
</g>
<!-- edit_seed_num&#45;&gt;run_dragen_alignment_step -->
<g id="edge14" class="edge">
<title>edit_seed_num&#45;&gt;run_dragen_alignment_step</title>
<path fill="none" stroke="black" d="M6790.08,-1742.34C6776.75,-1731.59 6758.16,-1718.37 6739.5,-1710.89 5789.38,-1329.76 4524.19,-1286.61 4145.26,-1282.53"/>
<polygon fill="black" stroke="black" points="4145.16,-1279.03 4135.12,-1282.43 4145.09,-1286.03 4145.16,-1279.03"/>
</g>
<!-- en_alt_hap_aln -->
<g id="node13" class="node">
<title>en_alt_hap_aln</title>
<polygon fill="#94ddf4" stroke="black" points="6609,-1742.39 6609,-1778.39 6730,-1778.39 6730,-1742.39 6609,-1742.39"/>
<text text-anchor="middle" x="6669.5" y="-1756.69" font-family="Times,serif" font-size="14.00">en_alt_hap_aln</text>
</g>
<!-- en_alt_hap_aln&#45;&gt;run_dragen_alignment_step -->
<g id="edge15" class="edge">
<title>en_alt_hap_aln&#45;&gt;run_dragen_alignment_step</title>
<path fill="none" stroke="black" d="M6650.38,-1742.39C6637.25,-1731.66 6618.93,-1718.44 6600.5,-1710.89 5705.34,-1343.94 4511.81,-1291.06 4145.25,-1283.58"/>
<polygon fill="black" stroke="black" points="4145.24,-1280.08 4135.17,-1283.38 4145.1,-1287.08 4145.24,-1280.08"/>
</g>
<!-- en_chimeric_aln -->
<g id="node14" class="node">
<title>en_chimeric_aln</title>
<polygon fill="#94ddf4" stroke="black" points="6460,-1742.39 6460,-1778.39 6591,-1778.39 6591,-1742.39 6460,-1742.39"/>
<text text-anchor="middle" x="6525.5" y="-1756.69" font-family="Times,serif" font-size="14.00">en_chimeric_aln</text>
</g>
<!-- en_chimeric_aln&#45;&gt;run_dragen_alignment_step -->
<g id="edge16" class="edge">
<title>en_chimeric_aln&#45;&gt;run_dragen_alignment_step</title>
<path fill="none" stroke="black" d="M6504.45,-1742.25C6490.3,-1731.61 6470.77,-1718.54 6451.5,-1710.89 5608.58,-1376.38 4497.01,-1301.92 4145.21,-1286.31"/>
<polygon fill="black" stroke="black" points="4145.17,-1282.8 4135.03,-1285.86 4144.87,-1289.8 4145.17,-1282.8"/>
</g>
<!-- enable_duplicate_marking -->
<g id="node15" class="node">
<title>enable_duplicate_marking</title>
<polygon fill="#94ddf4" stroke="black" points="6239,-1742.39 6239,-1778.39 6442,-1778.39 6442,-1742.39 6239,-1742.39"/>
<text text-anchor="middle" x="6340.5" y="-1756.69" font-family="Times,serif" font-size="14.00">enable_duplicate_marking</text>
</g>
<!-- enable_duplicate_marking&#45;&gt;run_dragen_alignment_step -->
<g id="edge17" class="edge">
<title>enable_duplicate_marking&#45;&gt;run_dragen_alignment_step</title>
<path fill="none" stroke="black" d="M6307.06,-1742.31C6285.64,-1731.96 6256.99,-1719.2 6230.5,-1710.89 5451.55,-1466.56 4471.59,-1334.68 4145.05,-1295.22"/>
<polygon fill="black" stroke="black" points="4145.46,-1291.75 4135.11,-1294.03 4144.62,-1298.7 4145.46,-1291.75"/>
</g>
<!-- enable_map_align -->
<g id="node16" class="node">
<title>enable_map_align</title>
<polygon fill="#94ddf4" stroke="black" points="6078,-1742.39 6078,-1778.39 6221,-1778.39 6221,-1742.39 6078,-1742.39"/>
<text text-anchor="middle" x="6149.5" y="-1756.69" font-family="Times,serif" font-size="14.00">enable_map_align</text>
</g>
<!-- enable_map_align&#45;&gt;run_dragen_alignment_step -->
<g id="edge18" class="edge">
<title>enable_map_align&#45;&gt;run_dragen_alignment_step</title>
<path fill="none" stroke="black" d="M6126.1,-1742.29C6110.71,-1731.8 6089.74,-1718.88 6069.5,-1710.89 5368.88,-1434.12 4458.6,-1323.92 4145.21,-1292.57"/>
<polygon fill="black" stroke="black" points="4145.51,-1289.08 4135.21,-1291.58 4144.82,-1296.05 4145.51,-1289.08"/>
</g>
<!-- enable_rna -->
<g id="node17" class="node">
<title>enable_rna</title>
<polygon fill="#94ddf4" stroke="black" points="5965,-1742.39 5965,-1778.39 6060,-1778.39 6060,-1742.39 5965,-1742.39"/>
<text text-anchor="middle" x="6012.5" y="-1756.69" font-family="Times,serif" font-size="14.00">enable_rna</text>
</g>
<!-- enable_rna&#45;&gt;run_dragen_alignment_step -->
<g id="edge19" class="edge">
<title>enable_rna&#45;&gt;run_dragen_alignment_step</title>
<path fill="none" stroke="black" d="M5996.96,-1742.12C5986.51,-1731.56 5971.89,-1718.64 5956.5,-1710.89 5321.98,-1391.36 4451.22,-1308.26 4145.25,-1288.27"/>
<polygon fill="black" stroke="black" points="4145.25,-1284.76 4135.05,-1287.61 4144.8,-1291.75 4145.25,-1284.76"/>
</g>
<!-- enable_rrna_filter -->
<g id="node18" class="node">
<title>enable_rrna_filter</title>
<polygon fill="#94ddf4" stroke="black" points="5804,-1742.39 5804,-1778.39 5947,-1778.39 5947,-1742.39 5804,-1742.39"/>
<text text-anchor="middle" x="5875.5" y="-1756.69" font-family="Times,serif" font-size="14.00">enable_rrna_filter</text>
</g>
<!-- enable_rrna_filter&#45;&gt;run_dragen_alignment_step -->
<g id="edge20" class="edge">
<title>enable_rrna_filter&#45;&gt;run_dragen_alignment_step</title>
<path fill="none" stroke="black" d="M5851.67,-1742.27C5836.28,-1731.91 5815.47,-1719.14 5795.5,-1710.89 5199.54,-1464.68 4429.3,-1338.15 4145.15,-1297.4"/>
<polygon fill="black" stroke="black" points="4145.64,-1293.93 4135.25,-1295.98 4144.65,-1300.86 4145.64,-1293.93"/>
</g>
<!-- enable_sort -->
<g id="node19" class="node">
<title>enable_sort</title>
<polygon fill="#94ddf4" stroke="black" points="5687,-1742.39 5687,-1778.39 5786,-1778.39 5786,-1742.39 5687,-1742.39"/>
<text text-anchor="middle" x="5736.5" y="-1756.69" font-family="Times,serif" font-size="14.00">enable_sort</text>
</g>
<!-- enable_sort&#45;&gt;run_dragen_alignment_step -->
<g id="edge21" class="edge">
<title>enable_sort&#45;&gt;run_dragen_alignment_step</title>
<path fill="none" stroke="black" d="M5719.86,-1742.34C5708.75,-1731.87 5693.33,-1718.96 5677.5,-1710.89 5142.8,-1438.27 4419.43,-1328.31 4145.16,-1294.67"/>
<polygon fill="black" stroke="black" points="4145.55,-1291.19 4135.2,-1293.46 4144.7,-1298.14 4145.55,-1291.19"/>
</g>
<!-- fastq_list -->
<g id="node20" class="node">
<title>fastq_list</title>
<polygon fill="#94ddf4" stroke="black" points="5586.5,-1742.39 5586.5,-1778.39 5668.5,-1778.39 5668.5,-1742.39 5586.5,-1742.39"/>
<text text-anchor="middle" x="5627.5" y="-1756.69" font-family="Times,serif" font-size="14.00">fastq_list</text>
</g>
<!-- fastq_list&#45;&gt;run_dragen_alignment_step -->
<g id="edge22" class="edge">
<title>fastq_list&#45;&gt;run_dragen_alignment_step</title>
<path fill="none" stroke="black" d="M5613.84,-1742.33C5604.6,-1731.86 5591.56,-1718.95 5577.5,-1710.89 5089.9,-1431.42 4410.31,-1326.18 4145.43,-1294.23"/>
<polygon fill="black" stroke="black" points="4145.76,-1290.75 4135.42,-1293.03 4144.93,-1297.7 4145.76,-1290.75"/>
</g>
<!-- fastq_list_rows -->
<g id="node21" class="node">
<title>fastq_list_rows</title>
<polygon fill="#94ddf4" stroke="black" points="5445,-1742.39 5445,-1778.39 5568,-1778.39 5568,-1742.39 5445,-1742.39"/>
<text text-anchor="middle" x="5506.5" y="-1756.69" font-family="Times,serif" font-size="14.00">fastq_list_rows</text>
</g>
<!-- fastq_list_rows&#45;&gt;run_dragen_alignment_step -->
<g id="edge23" class="edge">
<title>fastq_list_rows&#45;&gt;run_dragen_alignment_step</title>
<path fill="none" stroke="black" d="M5485.5,-1742.26C5472.13,-1732.03 5454.06,-1719.4 5436.5,-1710.89 4973.01,-1486.33 4366.32,-1349.16 4131.87,-1301.44"/>
<polygon fill="black" stroke="black" points="4132.5,-1298 4122,-1299.44 4131.11,-1304.86 4132.5,-1298"/>
</g>
<!-- gap_ext_pen -->
<g id="node22" class="node">
<title>gap_ext_pen</title>
<polygon fill="#94ddf4" stroke="black" points="5322,-1742.39 5322,-1778.39 5427,-1778.39 5427,-1742.39 5322,-1742.39"/>
<text text-anchor="middle" x="5374.5" y="-1756.69" font-family="Times,serif" font-size="14.00">gap_ext_pen</text>
</g>
<!-- gap_ext_pen&#45;&gt;run_dragen_alignment_step -->
<g id="edge24" class="edge">
<title>gap_ext_pen&#45;&gt;run_dragen_alignment_step</title>
<path fill="none" stroke="black" d="M5356.48,-1742.27C5344.92,-1732.04 5329.2,-1719.41 5313.5,-1710.89 4898.16,-1485.39 4342.84,-1349.25 4125.85,-1301.62"/>
<polygon fill="black" stroke="black" points="4126.29,-1298.14 4115.78,-1299.42 4124.8,-1304.98 4126.29,-1298.14"/>
</g>
<!-- gap_open_pen -->
<g id="node23" class="node">
<title>gap_open_pen</title>
<polygon fill="#94ddf4" stroke="black" points="5187,-1742.39 5187,-1778.39 5304,-1778.39 5304,-1742.39 5187,-1742.39"/>
<text text-anchor="middle" x="5245.5" y="-1756.69" font-family="Times,serif" font-size="14.00">gap_open_pen</text>
</g>
<!-- gap_open_pen&#45;&gt;run_dragen_alignment_step -->
<g id="edge25" class="edge">
<title>gap_open_pen&#45;&gt;run_dragen_alignment_step</title>
<path fill="none" stroke="black" d="M5225.03,-1742.35C5212.23,-1732.27 5195.08,-1719.78 5178.5,-1710.89 4795.15,-1505.26 4291.7,-1354.23 4106.18,-1302.18"/>
<polygon fill="black" stroke="black" points="4107.11,-1298.8 4096.53,-1299.48 4105.22,-1305.54 4107.11,-1298.8"/>
</g>
<!-- generate_md_tags -->
<g id="node24" class="node">
<title>generate_md_tags</title>
<polygon fill="#94ddf4" stroke="black" points="5022,-1742.39 5022,-1778.39 5169,-1778.39 5169,-1742.39 5022,-1742.39"/>
<text text-anchor="middle" x="5095.5" y="-1756.69" font-family="Times,serif" font-size="14.00">generate_md_tags</text>
</g>
<!-- generate_md_tags&#45;&gt;run_dragen_alignment_step -->
<g id="edge26" class="edge">
<title>generate_md_tags&#45;&gt;run_dragen_alignment_step</title>
<path fill="none" stroke="black" d="M5067.9,-1742.18C5051.97,-1732.51 5031.39,-1720.5 5012.5,-1710.89 4667.86,-1535.52 4235.47,-1361.67 4086.66,-1303.12"/>
<polygon fill="black" stroke="black" points="4087.86,-1299.83 4077.27,-1299.43 4085.3,-1306.34 4087.86,-1299.83"/>
</g>
<!-- generate_sa_tags -->
<g id="node25" class="node">
<title>generate_sa_tags</title>
<polygon fill="#94ddf4" stroke="black" points="4863.5,-1742.39 4863.5,-1778.39 5003.5,-1778.39 5003.5,-1742.39 4863.5,-1742.39"/>
<text text-anchor="middle" x="4933.5" y="-1756.69" font-family="Times,serif" font-size="14.00">generate_sa_tags</text>
</g>
<!-- generate_sa_tags&#45;&gt;run_dragen_alignment_step -->
<g id="edge27" class="edge">
<title>generate_sa_tags&#45;&gt;run_dragen_alignment_step</title>
<path fill="none" stroke="black" d="M4906.72,-1742.31C4891.55,-1732.8 4872.14,-1720.89 4854.5,-1710.89 4562.8,-1545.49 4201.46,-1365.18 4077.57,-1304.03"/>
<polygon fill="black" stroke="black" points="4078.89,-1300.78 4068.38,-1299.5 4075.8,-1307.06 4078.89,-1300.78"/>
</g>
<!-- generate_zs_tags -->
<g id="node26" class="node">
<title>generate_zs_tags</title>
<polygon fill="#94ddf4" stroke="black" points="4705.5,-1742.39 4705.5,-1778.39 4845.5,-1778.39 4845.5,-1742.39 4705.5,-1742.39"/>
<text text-anchor="middle" x="4775.5" y="-1756.69" font-family="Times,serif" font-size="14.00">generate_zs_tags</text>
</g>
<!-- generate_zs_tags&#45;&gt;run_dragen_alignment_step -->
<g id="edge28" class="edge">
<title>generate_zs_tags&#45;&gt;run_dragen_alignment_step</title>
<path fill="none" stroke="black" d="M4748.65,-1742.13C4635.49,-1669.38 4197.34,-1387.71 4069.01,-1305.21"/>
<polygon fill="black" stroke="black" points="4070.61,-1302.09 4060.31,-1299.62 4066.83,-1307.98 4070.61,-1302.09"/>
</g>
<!-- global -->
<g id="node27" class="node">
<title>global</title>
<polygon fill="#94ddf4" stroke="black" points="4627.5,-1742.39 4627.5,-1778.39 4687.5,-1778.39 4687.5,-1742.39 4627.5,-1742.39"/>
<text text-anchor="middle" x="4657.5" y="-1756.69" font-family="Times,serif" font-size="14.00">global</text>
</g>
<!-- global&#45;&gt;run_dragen_alignment_step -->
<g id="edge29" class="edge">
<title>global&#45;&gt;run_dragen_alignment_step</title>
<path fill="none" stroke="black" d="M4645.88,-1742.28C4638.84,-1732.53 4629.34,-1720.41 4619.5,-1710.89 4433.27,-1530.74 4168.24,-1363.59 4071.07,-1304.74"/>
<polygon fill="black" stroke="black" points="4072.83,-1301.72 4062.46,-1299.55 4069.22,-1307.71 4072.83,-1301.72"/>
</g>
<!-- hard_clips -->
<g id="node28" class="node">
<title>hard_clips</title>
<polygon fill="#94ddf4" stroke="black" points="4521,-1742.39 4521,-1778.39 4610,-1778.39 4610,-1742.39 4521,-1742.39"/>
<text text-anchor="middle" x="4565.5" y="-1756.69" font-family="Times,serif" font-size="14.00">hard_clips</text>
</g>
<!-- hard_clips&#45;&gt;run_dragen_alignment_step -->
<g id="edge30" class="edge">
<title>hard_clips&#45;&gt;run_dragen_alignment_step</title>
<path fill="none" stroke="black" d="M4546.51,-1742.33C4536.16,-1733.03 4523.13,-1721.32 4511.5,-1710.89 4339.77,-1556.8 4133.2,-1371.71 4060.44,-1306.52"/>
<polygon fill="black" stroke="black" points="4062.41,-1303.59 4052.63,-1299.53 4057.74,-1308.81 4062.41,-1303.59"/>
</g>
<!-- map_orientations -->
<g id="node29" class="node">
<title>map_orientations</title>
<polygon fill="#94ddf4" stroke="black" points="4362.5,-1742.39 4362.5,-1778.39 4502.5,-1778.39 4502.5,-1742.39 4362.5,-1742.39"/>
<text text-anchor="middle" x="4432.5" y="-1756.69" font-family="Times,serif" font-size="14.00">map_orientations</text>
</g>
<!-- map_orientations&#45;&gt;run_dragen_alignment_step -->
<g id="edge31" class="edge">
<title>map_orientations&#45;&gt;run_dragen_alignment_step</title>
<path fill="none" stroke="black" d="M4418.06,-1742.13C4357.76,-1670.04 4125.83,-1392.76 4054.5,-1307.49"/>
<polygon fill="black" stroke="black" points="4057.02,-1305.05 4047.92,-1299.62 4051.65,-1309.54 4057.02,-1305.05"/>
</g>
<!-- mapq_max -->
<g id="node30" class="node">
<title>mapq_max</title>
<polygon fill="#94ddf4" stroke="black" points="4251,-1742.39 4251,-1778.39 4344,-1778.39 4344,-1742.39 4251,-1742.39"/>
<text text-anchor="middle" x="4297.5" y="-1756.69" font-family="Times,serif" font-size="14.00">mapq_max</text>
</g>
<!-- mapq_max&#45;&gt;run_dragen_alignment_step -->
<g id="edge32" class="edge">
<title>mapq_max&#45;&gt;run_dragen_alignment_step</title>
<path fill="none" stroke="black" d="M4287.95,-1742.13C4248.21,-1670.33 4095.83,-1395 4047.97,-1308.53"/>
<polygon fill="black" stroke="black" points="4050.94,-1306.68 4043.04,-1299.62 4044.82,-1310.07 4050.94,-1306.68"/>
</g>
<!-- mapq_strict_js -->
<g id="node31" class="node">
<title>mapq_strict_js</title>
<polygon fill="#94ddf4" stroke="black" points="4112.5,-1742.39 4112.5,-1778.39 4232.5,-1778.39 4232.5,-1742.39 4112.5,-1742.39"/>
<text text-anchor="middle" x="4172.5" y="-1756.69" font-family="Times,serif" font-size="14.00">mapq_strict_js</text>
</g>
<!-- mapq_strict_js&#45;&gt;run_dragen_alignment_step -->
<g id="edge33" class="edge">
<title>mapq_strict_js&#45;&gt;run_dragen_alignment_step</title>
<path fill="none" stroke="black" d="M4167.47,-1742.13C4146.61,-1670.55 4066.8,-1396.67 4041.35,-1309.33"/>
<polygon fill="black" stroke="black" points="4044.68,-1308.25 4038.52,-1299.62 4037.96,-1310.2 4044.68,-1308.25"/>
</g>
<!-- match_n_score -->
<g id="node32" class="node">
<title>match_n_score</title>
<polygon fill="#94ddf4" stroke="black" points="3972.5,-1742.39 3972.5,-1778.39 4094.5,-1778.39 4094.5,-1742.39 3972.5,-1742.39"/>
<text text-anchor="middle" x="4033.5" y="-1756.69" font-family="Times,serif" font-size="14.00">match_n_score</text>
</g>
<!-- match_n_score&#45;&gt;run_dragen_alignment_step -->
<g id="edge34" class="edge">
<title>match_n_score&#45;&gt;run_dragen_alignment_step</title>
<path fill="none" stroke="black" d="M4033.5,-1742.13C4033.5,-1670.69 4033.5,-1397.78 4033.5,-1309.86"/>
<polygon fill="black" stroke="black" points="4037,-1309.62 4033.5,-1299.62 4030,-1309.62 4037,-1309.62"/>
</g>
<!-- match_score -->
<g id="node33" class="node">
<title>match_score</title>
<polygon fill="#94ddf4" stroke="black" points="3848.5,-1742.39 3848.5,-1778.39 3954.5,-1778.39 3954.5,-1742.39 3848.5,-1742.39"/>
<text text-anchor="middle" x="3901.5" y="-1756.69" font-family="Times,serif" font-size="14.00">match_score</text>
</g>
<!-- match_score&#45;&gt;run_dragen_alignment_step -->
<g id="edge35" class="edge">
<title>match_score&#45;&gt;run_dragen_alignment_step</title>
<path fill="none" stroke="black" d="M3906.28,-1742.13C3926.09,-1670.55 4001.87,-1396.67 4026.05,-1309.33"/>
<polygon fill="black" stroke="black" points="4029.44,-1310.2 4028.73,-1299.62 4022.69,-1308.33 4029.44,-1310.2"/>
</g>
<!-- max_intron_bases -->
<g id="node34" class="node">
<title>max_intron_bases</title>
<polygon fill="#94ddf4" stroke="black" points="3686.5,-1742.39 3686.5,-1778.39 3830.5,-1778.39 3830.5,-1742.39 3686.5,-1742.39"/>
<text text-anchor="middle" x="3758.5" y="-1756.69" font-family="Times,serif" font-size="14.00">max_intron_bases</text>
</g>
<!-- max_intron_bases&#45;&gt;run_dragen_alignment_step -->
<g id="edge36" class="edge">
<title>max_intron_bases&#45;&gt;run_dragen_alignment_step</title>
<path fill="none" stroke="black" d="M3768.45,-1742.13C3809.84,-1670.33 3968.58,-1395 4018.43,-1308.53"/>
<polygon fill="black" stroke="black" points="4021.6,-1310.04 4023.56,-1299.62 4015.54,-1306.54 4021.6,-1310.04"/>
</g>
<!-- max_rescues -->
<g id="node35" class="node">
<title>max_rescues</title>
<polygon fill="#94ddf4" stroke="black" points="3560.5,-1742.39 3560.5,-1778.39 3668.5,-1778.39 3668.5,-1742.39 3560.5,-1742.39"/>
<text text-anchor="middle" x="3614.5" y="-1756.69" font-family="Times,serif" font-size="14.00">max_rescues</text>
</g>
<!-- max_rescues&#45;&gt;run_dragen_alignment_step -->
<g id="edge37" class="edge">
<title>max_rescues&#45;&gt;run_dragen_alignment_step</title>
<path fill="none" stroke="black" d="M3629.66,-1742.13C3693.05,-1669.97 3937.04,-1392.21 4011.68,-1307.23"/>
<polygon fill="black" stroke="black" points="4014.39,-1309.45 4018.36,-1299.62 4009.13,-1304.83 4014.39,-1309.45"/>
</g>
<!-- min_intron_bases -->
<g id="node36" class="node">
<title>min_intron_bases</title>
<polygon fill="#94ddf4" stroke="black" points="3401,-1742.39 3401,-1778.39 3542,-1778.39 3542,-1742.39 3401,-1742.39"/>
<text text-anchor="middle" x="3471.5" y="-1756.69" font-family="Times,serif" font-size="14.00">min_intron_bases</text>
</g>
<!-- min_intron_bases&#45;&gt;run_dragen_alignment_step -->
<g id="edge38" class="edge">
<title>min_intron_bases&#45;&gt;run_dragen_alignment_step</title>
<path fill="none" stroke="black" d="M3491.83,-1742.13C3577.2,-1669.67 3906.76,-1389.96 4005.43,-1306.21"/>
<polygon fill="black" stroke="black" points="4007.83,-1308.76 4013.19,-1299.62 4003.3,-1303.43 4007.83,-1308.76"/>
</g>
<!-- min_score_coeff -->
<g id="node37" class="node">
<title>min_score_coeff</title>
<polygon fill="#94ddf4" stroke="black" points="3254,-1742.39 3254,-1778.39 3383,-1778.39 3383,-1742.39 3254,-1742.39"/>
<text text-anchor="middle" x="3318.5" y="-1756.69" font-family="Times,serif" font-size="14.00">min_score_coeff</text>
</g>
<!-- min_score_coeff&#45;&gt;run_dragen_alignment_step -->
<g id="edge39" class="edge">
<title>min_score_coeff&#45;&gt;run_dragen_alignment_step</title>
<path fill="none" stroke="black" d="M3344.37,-1742.13C3453.41,-1669.38 3875.63,-1387.71 3999.29,-1305.21"/>
<polygon fill="black" stroke="black" points="4001.29,-1308.09 4007.67,-1299.62 3997.4,-1302.26 4001.29,-1308.09"/>
</g>
<!-- mismatch_pen -->
<g id="node38" class="node">
<title>mismatch_pen</title>
<polygon fill="#94ddf4" stroke="black" points="3117,-1742.39 3117,-1778.39 3236,-1778.39 3236,-1742.39 3117,-1742.39"/>
<text text-anchor="middle" x="3176.5" y="-1756.69" font-family="Times,serif" font-size="14.00">mismatch_pen</text>
</g>
<!-- mismatch_pen&#45;&gt;run_dragen_alignment_step -->
<g id="edge40" class="edge">
<title>mismatch_pen&#45;&gt;run_dragen_alignment_step</title>
<path fill="none" stroke="black" d="M3199.37,-1742.32C3212.59,-1732.71 3229.7,-1720.69 3245.5,-1710.89 3520.83,-1540.04 3869.18,-1363.84 3989.94,-1303.85"/>
<polygon fill="black" stroke="black" points="3991.51,-1306.98 3998.91,-1299.4 3988.4,-1300.71 3991.51,-1306.98"/>
</g>
<!-- no_unclip_score -->
<g id="node39" class="node">
<title>no_unclip_score</title>
<polygon fill="#94ddf4" stroke="black" points="2970,-1742.39 2970,-1778.39 3099,-1778.39 3099,-1742.39 2970,-1742.39"/>
<text text-anchor="middle" x="3034.5" y="-1756.69" font-family="Times,serif" font-size="14.00">no_unclip_score</text>
</g>
<!-- no_unclip_score&#45;&gt;run_dragen_alignment_step -->
<g id="edge41" class="edge">
<title>no_unclip_score&#45;&gt;run_dragen_alignment_step</title>
<path fill="none" stroke="black" d="M3058.61,-1742.3C3072.81,-1732.56 3091.31,-1720.44 3108.5,-1710.89 3429.9,-1532.38 3838.75,-1361.43 3981.52,-1303.31"/>
<polygon fill="black" stroke="black" points="3982.99,-1306.49 3990.93,-1299.48 3980.35,-1300.01 3982.99,-1306.49"/>
</g>
<!-- no_unpaired -->
<g id="node40" class="node">
<title>no_unpaired</title>
<polygon fill="#94ddf4" stroke="black" points="2847.5,-1742.39 2847.5,-1778.39 2951.5,-1778.39 2951.5,-1742.39 2847.5,-1742.39"/>
<text text-anchor="middle" x="2899.5" y="-1756.69" font-family="Times,serif" font-size="14.00">no_unpaired</text>
</g>
<!-- no_unpaired&#45;&gt;run_dragen_alignment_step -->
<g id="edge42" class="edge">
<title>no_unpaired&#45;&gt;run_dragen_alignment_step</title>
<path fill="none" stroke="black" d="M2918.31,-1742.38C2930.11,-1732.31 2945.98,-1719.82 2961.5,-1710.89 3317.44,-1506.13 3790.25,-1354.66 3964.9,-1302.33"/>
<polygon fill="black" stroke="black" points="3965.91,-1305.68 3974.49,-1299.47 3963.9,-1298.98 3965.91,-1305.68"/>
</g>
<!-- output_directory -->
<g id="node41" class="node">
<title>output_directory</title>
<polygon fill="#94ddf4" stroke="black" points="2693.5,-1742.39 2693.5,-1778.39 2829.5,-1778.39 2829.5,-1742.39 2693.5,-1742.39"/>
<text text-anchor="middle" x="2761.5" y="-1756.69" font-family="Times,serif" font-size="14.00">output_directory</text>
</g>
<!-- output_directory&#45;&gt;run_dragen_alignment_step -->
<g id="edge43" class="edge">
<title>output_directory&#45;&gt;run_dragen_alignment_step</title>
<path fill="none" stroke="black" d="M2785.68,-1742.24C2800.47,-1732.25 2820.03,-1719.88 2838.5,-1710.89 3246.82,-1512.04 3772.06,-1355.68 3961.44,-1302.24"/>
<polygon fill="black" stroke="black" points="3962.6,-1305.55 3971.28,-1299.47 3960.7,-1298.81 3962.6,-1305.55"/>
</g>
<!-- pe_max_penalty -->
<g id="node42" class="node">
<title>pe_max_penalty</title>
<polygon fill="#94ddf4" stroke="black" points="2544,-1742.39 2544,-1778.39 2675,-1778.39 2675,-1742.39 2544,-1742.39"/>
<text text-anchor="middle" x="2609.5" y="-1756.69" font-family="Times,serif" font-size="14.00">pe_max_penalty</text>
</g>
<!-- pe_max_penalty&#45;&gt;run_dragen_alignment_step -->
<g id="edge44" class="edge">
<title>pe_max_penalty&#45;&gt;run_dragen_alignment_step</title>
<path fill="none" stroke="black" d="M2632.54,-1742.19C2646.92,-1732.05 2666.13,-1719.56 2684.5,-1710.89 3138.13,-1496.89 3725.96,-1351.74 3945.62,-1301.69"/>
<polygon fill="black" stroke="black" points="3946.51,-1305.08 3955.48,-1299.45 3944.96,-1298.25 3946.51,-1305.08"/>
</g>
<!-- pe_orientation -->
<g id="node43" class="node">
<title>pe_orientation</title>
<polygon fill="#94ddf4" stroke="black" points="2407,-1742.39 2407,-1778.39 2526,-1778.39 2526,-1742.39 2407,-1742.39"/>
<text text-anchor="middle" x="2466.5" y="-1756.69" font-family="Times,serif" font-size="14.00">pe_orientation</text>
</g>
<!-- pe_orientation&#45;&gt;run_dragen_alignment_step -->
<g id="edge45" class="edge">
<title>pe_orientation&#45;&gt;run_dragen_alignment_step</title>
<path fill="none" stroke="black" d="M2486.81,-1742.37C2499.99,-1732.05 2517.93,-1719.28 2535.5,-1710.89 3024.76,-1477.18 3666.24,-1346.75 3921.61,-1301.15"/>
<polygon fill="black" stroke="black" points="3922.4,-1304.56 3931.64,-1299.37 3921.18,-1297.67 3922.4,-1304.56"/>
</g>
<!-- preserve_map_align_order -->
<g id="node44" class="node">
<title>preserve_map_align_order</title>
<polygon fill="#94ddf4" stroke="black" points="2184,-1742.39 2184,-1778.39 2389,-1778.39 2389,-1742.39 2184,-1742.39"/>
<text text-anchor="middle" x="2286.5" y="-1756.69" font-family="Times,serif" font-size="14.00">preserve_map_align_order</text>
</g>
<!-- preserve_map_align_order&#45;&gt;run_dragen_alignment_step -->
<g id="edge46" class="edge">
<title>preserve_map_align_order&#45;&gt;run_dragen_alignment_step</title>
<path fill="none" stroke="black" d="M2322.01,-1742.36C2343.77,-1732.34 2372.36,-1719.91 2398.5,-1710.89 2973.3,-1512.41 3688.89,-1354.48 3940.68,-1301.51"/>
<polygon fill="black" stroke="black" points="3941.45,-1304.92 3950.52,-1299.44 3940.02,-1298.07 3941.45,-1304.92"/>
</g>
<!-- reference_tar -->
<g id="node45" class="node">
<title>reference_tar</title>
<polygon fill="#94ddf4" stroke="black" points="2053,-1742.39 2053,-1778.39 2166,-1778.39 2166,-1742.39 2053,-1742.39"/>
<text text-anchor="middle" x="2109.5" y="-1756.69" font-family="Times,serif" font-size="14.00">reference_tar</text>
</g>
<!-- reference_tar&#45;&gt;run_dragen_alignment_step -->
<g id="edge47" class="edge">
<title>reference_tar&#45;&gt;run_dragen_alignment_step</title>
<path fill="none" stroke="black" d="M2128.38,-1742.26C2140.91,-1731.75 2158.18,-1718.84 2175.5,-1710.89 2796.77,-1425.81 3624.63,-1321.84 3921.6,-1292.28"/>
<polygon fill="black" stroke="black" points="3922.34,-1295.73 3931.94,-1291.26 3921.65,-1288.76 3922.34,-1295.73"/>
</g>
<!-- remove_duplicates -->
<g id="node46" class="node">
<title>remove_duplicates</title>
<polygon fill="#94ddf4" stroke="black" points="1884.5,-1742.39 1884.5,-1778.39 2034.5,-1778.39 2034.5,-1742.39 1884.5,-1742.39"/>
<text text-anchor="middle" x="1959.5" y="-1756.69" font-family="Times,serif" font-size="14.00">remove_duplicates</text>
</g>
<!-- remove_duplicates&#45;&gt;run_dragen_alignment_step -->
<g id="edge48" class="edge">
<title>remove_duplicates&#45;&gt;run_dragen_alignment_step</title>
<path fill="none" stroke="black" d="M1984.53,-1742.38C2000.94,-1731.93 2023.24,-1719.02 2044.5,-1710.89 2730.16,-1448.6 3613.42,-1329.77 3921.55,-1294.34"/>
<polygon fill="black" stroke="black" points="3922.29,-1297.77 3931.83,-1293.16 3921.5,-1290.82 3922.29,-1297.77"/>
</g>
<!-- rescue_sigmas -->
<g id="node47" class="node">
<title>rescue_sigmas</title>
<polygon fill="#94ddf4" stroke="black" points="1745,-1742.39 1745,-1778.39 1866,-1778.39 1866,-1742.39 1745,-1742.39"/>
<text text-anchor="middle" x="1805.5" y="-1756.69" font-family="Times,serif" font-size="14.00">rescue_sigmas</text>
</g>
<!-- rescue_sigmas&#45;&gt;run_dragen_alignment_step -->
<g id="edge49" class="edge">
<title>rescue_sigmas&#45;&gt;run_dragen_alignment_step</title>
<path fill="none" stroke="black" d="M1825.32,-1742.35C1838.66,-1731.74 1857.12,-1718.68 1875.5,-1710.89 2614.34,-1397.67 3593.92,-1309.96 3921.48,-1288.57"/>
<polygon fill="black" stroke="black" points="3922.17,-1292.03 3931.92,-1287.89 3921.72,-1285.05 3922.17,-1292.03"/>
</g>
<!-- sec_aligns -->
<g id="node48" class="node">
<title>sec_aligns</title>
<polygon fill="#94ddf4" stroke="black" points="1638,-1742.39 1638,-1778.39 1727,-1778.39 1727,-1742.39 1638,-1742.39"/>
<text text-anchor="middle" x="1682.5" y="-1756.69" font-family="Times,serif" font-size="14.00">sec_aligns</text>
</g>
<!-- sec_aligns&#45;&gt;run_dragen_alignment_step -->
<g id="edge50" class="edge">
<title>sec_aligns&#45;&gt;run_dragen_alignment_step</title>
<path fill="none" stroke="black" d="M1697.28,-1741.93C1707.27,-1731.29 1721.36,-1718.36 1736.5,-1710.89 2507.77,-1330.58 3576.72,-1286.29 3921.53,-1282.31"/>
<polygon fill="black" stroke="black" points="3921.8,-1285.8 3931.76,-1282.2 3921.73,-1278.8 3921.8,-1285.8"/>
</g>
<!-- sec_aligns_hard -->
<g id="node49" class="node">
<title>sec_aligns_hard</title>
<polygon fill="#94ddf4" stroke="black" points="1491,-1742.39 1491,-1778.39 1620,-1778.39 1620,-1742.39 1491,-1742.39"/>
<text text-anchor="middle" x="1555.5" y="-1756.69" font-family="Times,serif" font-size="14.00">sec_aligns_hard</text>
</g>
<!-- sec_aligns_hard&#45;&gt;run_dragen_alignment_step -->
<g id="edge51" class="edge">
<title>sec_aligns_hard&#45;&gt;run_dragen_alignment_step</title>
<path fill="none" stroke="black" d="M1576.55,-1742.26C1590.7,-1731.62 1610.23,-1718.55 1629.5,-1710.89 2467.04,-1378.04 3571.38,-1302.5 3921.82,-1286.46"/>
<polygon fill="black" stroke="black" points="3922.14,-1289.95 3931.97,-1286 3921.82,-1282.96 3922.14,-1289.95"/>
</g>
<!-- sec_phred_delta -->
<g id="node50" class="node">
<title>sec_phred_delta</title>
<polygon fill="#94ddf4" stroke="black" points="1342,-1742.39 1342,-1778.39 1473,-1778.39 1473,-1742.39 1342,-1742.39"/>
<text text-anchor="middle" x="1407.5" y="-1756.69" font-family="Times,serif" font-size="14.00">sec_phred_delta</text>
</g>
<!-- sec_phred_delta&#45;&gt;run_dragen_alignment_step -->
<g id="edge52" class="edge">
<title>sec_phred_delta&#45;&gt;run_dragen_alignment_step</title>
<path fill="none" stroke="black" d="M1428.85,-1742.2C1443.2,-1731.54 1462.99,-1718.46 1482.5,-1710.89 2377.9,-1363.37 3557.68,-1297.44 3921.73,-1285.15"/>
<polygon fill="black" stroke="black" points="3921.87,-1288.65 3931.74,-1284.82 3921.63,-1281.65 3921.87,-1288.65"/>
</g>
<!-- sec_score_delta -->
<g id="node51" class="node">
<title>sec_score_delta</title>
<polygon fill="#94ddf4" stroke="black" points="1195.5,-1742.39 1195.5,-1778.39 1323.5,-1778.39 1323.5,-1742.39 1195.5,-1742.39"/>
<text text-anchor="middle" x="1259.5" y="-1756.69" font-family="Times,serif" font-size="14.00">sec_score_delta</text>
</g>
<!-- sec_score_delta&#45;&gt;run_dragen_alignment_step -->
<g id="edge53" class="edge">
<title>sec_score_delta&#45;&gt;run_dragen_alignment_step</title>
<path fill="none" stroke="black" d="M1280.19,-1742.37C1294.35,-1731.64 1314.01,-1718.42 1333.5,-1710.89 2285.77,-1342.88 3543.98,-1290.78 3921.7,-1283.53"/>
<polygon fill="black" stroke="black" points="3921.87,-1287.02 3931.81,-1283.34 3921.74,-1280.02 3921.87,-1287.02"/>
</g>
<!-- seed_density -->
<g id="node52" class="node">
<title>seed_density</title>
<polygon fill="#94ddf4" stroke="black" points="1068,-1742.39 1068,-1778.39 1177,-1778.39 1177,-1742.39 1068,-1742.39"/>
<text text-anchor="middle" x="1122.5" y="-1756.69" font-family="Times,serif" font-size="14.00">seed_density</text>
</g>
<!-- seed_density&#45;&gt;run_dragen_alignment_step -->
<g id="edge54" class="edge">
<title>seed_density&#45;&gt;run_dragen_alignment_step</title>
<path fill="none" stroke="black" d="M1139.99,-1742.26C1152.06,-1731.48 1169.03,-1718.25 1186.5,-1710.89 1697.15,-1495.63 3459.14,-1331.79 3921.61,-1291.79"/>
<polygon fill="black" stroke="black" points="3921.97,-1295.27 3931.63,-1290.93 3921.37,-1288.3 3921.97,-1295.27"/>
</g>
<!-- supp_aligns -->
<g id="node53" class="node">
<title>supp_aligns</title>
<polygon fill="#94ddf4" stroke="black" points="949,-1742.39 949,-1778.39 1050,-1778.39 1050,-1742.39 949,-1742.39"/>
<text text-anchor="middle" x="999.5" y="-1756.69" font-family="Times,serif" font-size="14.00">supp_aligns</text>
</g>
<!-- supp_aligns&#45;&gt;run_dragen_alignment_step -->
<g id="edge55" class="edge">
<title>supp_aligns&#45;&gt;run_dragen_alignment_step</title>
<path fill="none" stroke="black" d="M1015.69,-1742.21C1026.91,-1731.41 1042.8,-1718.17 1059.5,-1710.89 1591.51,-1478.74 3446.04,-1326.39 3921.66,-1290.54"/>
<polygon fill="black" stroke="black" points="3922.26,-1294 3931.97,-1289.76 3921.73,-1287.02 3922.26,-1294"/>
</g>
<!-- supp_as_sec -->
<g id="node54" class="node">
<title>supp_as_sec</title>
<polygon fill="#94ddf4" stroke="black" points="826.5,-1742.39 826.5,-1778.39 930.5,-1778.39 930.5,-1742.39 826.5,-1742.39"/>
<text text-anchor="middle" x="878.5" y="-1756.69" font-family="Times,serif" font-size="14.00">supp_as_sec</text>
</g>
<!-- supp_as_sec&#45;&gt;run_dragen_alignment_step -->
<g id="edge56" class="edge">
<title>supp_as_sec&#45;&gt;run_dragen_alignment_step</title>
<path fill="none" stroke="black" d="M895.32,-1742.19C906.96,-1731.37 923.39,-1718.14 940.5,-1710.89 1497.61,-1474.86 3434.8,-1324.65 3921.76,-1290.06"/>
<polygon fill="black" stroke="black" points="3922.22,-1293.53 3931.95,-1289.33 3921.73,-1286.55 3922.22,-1293.53"/>
</g>
<!-- supp_min_score_adj -->
<g id="node55" class="node">
<title>supp_min_score_adj</title>
<polygon fill="#94ddf4" stroke="black" points="650.5,-1742.39 650.5,-1778.39 808.5,-1778.39 808.5,-1742.39 650.5,-1742.39"/>
<text text-anchor="middle" x="729.5" y="-1756.69" font-family="Times,serif" font-size="14.00">supp_min_score_adj</text>
</g>
<!-- supp_min_score_adj&#45;&gt;run_dragen_alignment_step -->
<g id="edge57" class="edge">
<title>supp_min_score_adj&#45;&gt;run_dragen_alignment_step</title>
<path fill="none" stroke="black" d="M754.53,-1742.3C771.54,-1731.53 794.97,-1718.31 817.5,-1710.89 1986.37,-1326.02 3502.46,-1285.97 3921.8,-1282.5"/>
<polygon fill="black" stroke="black" points="3921.83,-1286 3931.8,-1282.42 3921.78,-1279 3921.83,-1286"/>
</g>
<!-- unclip_score -->
<g id="node56" class="node">
<title>unclip_score</title>
<polygon fill="#94ddf4" stroke="black" points="527,-1742.39 527,-1778.39 632,-1778.39 632,-1742.39 527,-1742.39"/>
<text text-anchor="middle" x="579.5" y="-1756.69" font-family="Times,serif" font-size="14.00">unclip_score</text>
</g>
<!-- unclip_score&#45;&gt;run_dragen_alignment_step -->
<g id="edge58" class="edge">
<title>unclip_score&#45;&gt;run_dragen_alignment_step</title>
<path fill="none" stroke="black" d="M596.03,-1742.36C607.68,-1731.47 624.22,-1718.09 641.5,-1710.89 1257.25,-1454.36 3406.41,-1317.98 3921.79,-1288.51"/>
<polygon fill="black" stroke="black" points="3922.05,-1292.01 3931.83,-1287.94 3921.65,-1285.02 3922.05,-1292.01"/>
</g>
<!-- unpaired_pen -->
<g id="node57" class="node">
<title>unpaired_pen</title>
<polygon fill="#94ddf4" stroke="black" points="396,-1742.39 396,-1778.39 509,-1778.39 509,-1742.39 396,-1742.39"/>
<text text-anchor="middle" x="452.5" y="-1756.69" font-family="Times,serif" font-size="14.00">unpaired_pen</text>
</g>
<!-- unpaired_pen&#45;&gt;run_dragen_alignment_step -->
<g id="edge59" class="edge">
<title>unpaired_pen&#45;&gt;run_dragen_alignment_step</title>
<path fill="none" stroke="black" d="M470.29,-1742.35C482.76,-1731.45 500.39,-1718.07 518.5,-1710.89 1162.13,-1455.66 3394.52,-1317.83 3921.43,-1288.4"/>
<polygon fill="black" stroke="black" points="3921.91,-1291.88 3931.7,-1287.83 3921.52,-1284.89 3921.91,-1291.88"/>
</g>
<!-- verbose -->
<g id="node58" class="node">
<title>verbose</title>
<polygon fill="#94ddf4" stroke="black" points="7822,-1742.39 7822,-1778.39 7895,-1778.39 7895,-1742.39 7822,-1742.39"/>
<text text-anchor="middle" x="7858.5" y="-1756.69" font-family="Times,serif" font-size="14.00">verbose</text>
</g>
<!-- verbose&#45;&gt;run_dragen_alignment_step -->
<g id="edge60" class="edge">
<title>verbose&#45;&gt;run_dragen_alignment_step</title>
<path fill="none" stroke="black" d="M7847.3,-1742.05C7839.27,-1731.18 7827.44,-1717.93 7813.5,-1710.89 7145.76,-1373.51 4699.48,-1297.68 4145.53,-1284.7"/>
<polygon fill="black" stroke="black" points="4145.23,-1281.19 4135.15,-1284.46 4145.07,-1288.19 4145.23,-1281.19"/>
</g>
</g>
</svg>
