<?xml version="1.0" encoding="UTF-8" standalone="no"?>
<!DOCTYPE svg PUBLIC "-//W3C//DTD SVG 1.1//EN"
 "http://www.w3.org/Graphics/SVG/1.1/DTD/svg11.dtd">
<!-- Generated by graphviz version 2.43.0 (0)
 -->
<!-- Title: G Pages: 1 -->
<svg width="2173pt" height="852pt"
 viewBox="0.00 0.00 2173.00 852.35" xmlns="http://www.w3.org/2000/svg" xmlns:xlink="http://www.w3.org/1999/xlink">
<g id="graph0" class="graph" transform="scale(1 1) rotate(0) translate(4 848.35)">
<title>G</title>
<polygon fill="#eeeeee" stroke="transparent" points="-4,4 -4,-848.35 2169,-848.35 2169,4 -4,4"/>
<g id="clust1" class="cluster">
<title>cluster_inputs</title>
<polygon fill="#eeeeee" stroke="black" stroke-dasharray="5,2" points="8,-618.66 8,-823.11 2101,-823.11 2101,-618.66 8,-618.66"/>
<text text-anchor="middle" x="2034.5" y="-626.46" font-family="Times,serif" font-size="14.00">Workflow Inputs</text>
</g>
<g id="clust2" class="cluster">
<title>cluster_outputs</title>
<polygon fill="#eeeeee" stroke="black" stroke-dasharray="5,2" points="1225,-21.24 1225,-225.69 1770,-225.69 1770,-21.24 1225,-21.24"/>
<text text-anchor="middle" x="1697.5" y="-29.04" font-family="Times,serif" font-size="14.00">Workflow Outputs</text>
</g>
<!-- annotation_file -->
<g id="node1" class="node">
<title>annotation_file</title>
<polygon fill="#94ddf4" stroke="black" points="1607,-732.74 1607,-769.74 1729,-769.74 1729,-732.74 1607,-732.74"/>
<text text-anchor="middle" x="1668" y="-747.54" font-family="Times,serif" font-size="14.00">annotation_file</text>
</g>
<!-- run_dragen_transcriptome_step -->
<g id="node16" class="node">
<title>run_dragen_transcriptome_step</title>
<polygon fill="lightgoldenrodyellow" stroke="black" points="995,-528.74 995,-565.74 1227,-565.74 1227,-528.74 995,-528.74"/>
<text text-anchor="middle" x="1111" y="-543.54" font-family="Times,serif" font-size="14.00">dragen&#45;transcriptome v(3.9.3)</text>
</g>
<!-- annotation_file&#45;&gt;run_dragen_transcriptome_step -->
<g id="edge4" class="edge">
<title>annotation_file&#45;&gt;run_dragen_transcriptome_step</title>
<path fill="none" stroke="black" d="M1646.39,-732.51C1633.08,-722.26 1615.3,-709.76 1598,-701.24 1467,-636.74 1302.9,-591.89 1202.56,-568.11"/>
<polygon fill="black" stroke="black" points="1203.29,-564.69 1192.76,-565.81 1201.69,-571.5 1203.29,-564.69"/>
</g>
<!-- run_qualimap_step -->
<g id="node17" class="node">
<title>run_qualimap_step</title>
<polygon fill="lightgoldenrodyellow" stroke="black" points="1670,-331.74 1670,-368.74 1812,-368.74 1812,-331.74 1670,-331.74"/>
<text text-anchor="middle" x="1741" y="-346.54" font-family="Times,serif" font-size="14.00">qualimap v(2.2.2)</text>
</g>
<!-- annotation_file&#45;&gt;run_qualimap_step -->
<g id="edge5" class="edge">
<title>annotation_file&#45;&gt;run_qualimap_step</title>
<path fill="none" stroke="black" d="M1671.23,-732.58C1682.75,-669.64 1721.85,-455.91 1735.91,-379.06"/>
<polygon fill="black" stroke="black" points="1739.37,-379.62 1737.72,-369.15 1732.48,-378.36 1739.37,-379.62"/>
</g>
<!-- enable_duplicate_marking -->
<g id="node2" class="node">
<title>enable_duplicate_marking</title>
<polygon fill="#94ddf4" stroke="black" points="1227.5,-732.74 1227.5,-769.74 1430.5,-769.74 1430.5,-732.74 1227.5,-732.74"/>
<text text-anchor="middle" x="1329" y="-747.54" font-family="Times,serif" font-size="14.00">enable_duplicate_marking</text>
</g>
<!-- enable_duplicate_marking&#45;&gt;run_dragen_transcriptome_step -->
<g id="edge6" class="edge">
<title>enable_duplicate_marking&#45;&gt;run_dragen_transcriptome_step</title>
<path fill="none" stroke="black" d="M1310.04,-732.67C1271.14,-696.63 1182.26,-614.27 1137.62,-572.91"/>
<polygon fill="black" stroke="black" points="1139.79,-570.15 1130.08,-565.92 1135.03,-575.28 1139.79,-570.15"/>
</g>
<!-- enable_map_align_output -->
<g id="node3" class="node">
<title>enable_map_align_output</title>
<polygon fill="#94ddf4" stroke="black" points="1012.5,-732.74 1012.5,-769.74 1209.5,-769.74 1209.5,-732.74 1012.5,-732.74"/>
<text text-anchor="middle" x="1111" y="-747.54" font-family="Times,serif" font-size="14.00">enable_map_align_output</text>
</g>
<!-- enable_map_align_output&#45;&gt;run_dragen_transcriptome_step -->
<g id="edge7" class="edge">
<title>enable_map_align_output&#45;&gt;run_dragen_transcriptome_step</title>
<path fill="none" stroke="black" d="M1111,-732.67C1111,-697.53 1111,-618.33 1111,-576.06"/>
<polygon fill="black" stroke="black" points="1114.5,-575.92 1111,-565.92 1107.5,-575.92 1114.5,-575.92"/>
</g>
<!-- enable_rna_gene_fusion -->
<g id="node4" class="node">
<title>enable_rna_gene_fusion</title>
<polygon fill="#94ddf4" stroke="black" points="808,-732.74 808,-769.74 994,-769.74 994,-732.74 808,-732.74"/>
<text text-anchor="middle" x="901" y="-747.54" font-family="Times,serif" font-size="14.00">enable_rna_gene_fusion</text>
</g>
<!-- enable_rna_gene_fusion&#45;&gt;run_dragen_transcriptome_step -->
<g id="edge8" class="edge">
<title>enable_rna_gene_fusion&#45;&gt;run_dragen_transcriptome_step</title>
<path fill="none" stroke="black" d="M919.27,-732.67C956.74,-696.63 1042.36,-614.27 1085.36,-572.91"/>
<polygon fill="black" stroke="black" points="1087.84,-575.37 1092.62,-565.92 1082.99,-570.33 1087.84,-575.37"/>
</g>
<!-- enable_rna_quantification -->
<g id="node5" class="node">
<title>enable_rna_quantification</title>
<polygon fill="#94ddf4" stroke="black" points="590,-732.74 590,-769.74 790,-769.74 790,-732.74 590,-732.74"/>
<text text-anchor="middle" x="690" y="-747.54" font-family="Times,serif" font-size="14.00">enable_rna_quantification</text>
</g>
<!-- enable_rna_quantification&#45;&gt;run_dragen_transcriptome_step -->
<g id="edge9" class="edge">
<title>enable_rna_quantification&#45;&gt;run_dragen_transcriptome_step</title>
<path fill="none" stroke="black" d="M726.62,-732.67C803.46,-695.8 981.34,-610.45 1065.41,-570.12"/>
<polygon fill="black" stroke="black" points="1066.96,-573.25 1074.46,-565.77 1063.93,-566.94 1066.96,-573.25"/>
</g>
<!-- fastq_list -->
<g id="node6" class="node">
<title>fastq_list</title>
<polygon fill="#94ddf4" stroke="black" points="490,-732.74 490,-769.74 572,-769.74 572,-732.74 490,-732.74"/>
<text text-anchor="middle" x="531" y="-747.54" font-family="Times,serif" font-size="14.00">fastq_list</text>
</g>
<!-- fastq_list&#45;&gt;run_dragen_transcriptome_step -->
<g id="edge10" class="edge">
<title>fastq_list&#45;&gt;run_dragen_transcriptome_step</title>
<path fill="none" stroke="black" d="M545.08,-732.58C554.28,-722.1 567.14,-709.33 581,-701.24 707.87,-627.22 872.95,-586.97 984.93,-566.6"/>
<polygon fill="black" stroke="black" points="985.69,-570.02 994.92,-564.81 984.46,-563.13 985.69,-570.02"/>
</g>
<!-- fastq_list_rows -->
<g id="node7" class="node">
<title>fastq_list_rows</title>
<polygon fill="#94ddf4" stroke="black" points="348.5,-732.74 348.5,-769.74 471.5,-769.74 471.5,-732.74 348.5,-732.74"/>
<text text-anchor="middle" x="410" y="-747.54" font-family="Times,serif" font-size="14.00">fastq_list_rows</text>
</g>
<!-- fastq_list_rows&#45;&gt;run_dragen_transcriptome_step -->
<g id="edge11" class="edge">
<title>fastq_list_rows&#45;&gt;run_dragen_transcriptome_step</title>
<path fill="none" stroke="black" d="M431.14,-732.58C444.65,-722.1 462.96,-709.32 481,-701.24 646.93,-626.91 854.31,-585.46 984.75,-565"/>
<polygon fill="black" stroke="black" points="985.45,-568.44 994.79,-563.44 984.37,-561.52 985.45,-568.44"/>
</g>
<!-- lic_instance_id_location -->
<g id="node8" class="node">
<title>lic_instance_id_location</title>
<polygon fill="#94ddf4" stroke="black" points="147.5,-732.74 147.5,-769.74 330.5,-769.74 330.5,-732.74 147.5,-732.74"/>
<text text-anchor="middle" x="239" y="-747.54" font-family="Times,serif" font-size="14.00">lic_instance_id_location</text>
</g>
<!-- lic_instance_id_location&#45;&gt;run_dragen_transcriptome_step -->
<g id="edge12" class="edge">
<title>lic_instance_id_location&#45;&gt;run_dragen_transcriptome_step</title>
<path fill="none" stroke="black" d="M269.97,-732.65C289.52,-722.2 315.61,-709.43 340,-701.24 560.91,-627.1 830.13,-583.8 984.94,-563.18"/>
<polygon fill="black" stroke="black" points="985.51,-566.63 994.97,-561.85 984.6,-559.69 985.51,-566.63"/>
</g>
<!-- output_directory -->
<g id="node9" class="node">
<title>output_directory</title>
<polygon fill="#94ddf4" stroke="black" points="1747,-732.74 1747,-769.74 1883,-769.74 1883,-732.74 1747,-732.74"/>
<text text-anchor="middle" x="1815" y="-747.54" font-family="Times,serif" font-size="14.00">output_directory</text>
</g>
<!-- output_directory&#45;&gt;run_dragen_transcriptome_step -->
<g id="edge13" class="edge">
<title>output_directory&#45;&gt;run_dragen_transcriptome_step</title>
<path fill="none" stroke="black" d="M1791.85,-732.66C1777.11,-722.22 1757.24,-709.44 1738,-701.24 1571.88,-630.41 1366.4,-588.12 1236.97,-566.51"/>
<polygon fill="black" stroke="black" points="1237.45,-563.04 1227.01,-564.86 1236.31,-569.95 1237.45,-563.04"/>
</g>
<!-- output_directory&#45;&gt;run_qualimap_step -->
<g id="edge14" class="edge">
<title>output_directory&#45;&gt;run_qualimap_step</title>
<path fill="none" stroke="black" d="M1811.72,-732.58C1800.05,-669.64 1760.41,-455.91 1746.16,-379.06"/>
<polygon fill="black" stroke="black" points="1749.59,-378.34 1744.32,-369.15 1742.7,-379.62 1749.59,-378.34"/>
</g>
<!-- output_file_prefix -->
<g id="node10" class="node">
<title>output_file_prefix</title>
<polygon fill="#94ddf4" stroke="black" points="1449,-732.74 1449,-769.74 1589,-769.74 1589,-732.74 1449,-732.74"/>
<text text-anchor="middle" x="1519" y="-747.54" font-family="Times,serif" font-size="14.00">output_file_prefix</text>
</g>
<!-- output_file_prefix&#45;&gt;run_dragen_transcriptome_step -->
<g id="edge15" class="edge">
<title>output_file_prefix&#45;&gt;run_dragen_transcriptome_step</title>
<path fill="none" stroke="black" d="M1492.42,-732.64C1477.31,-722.93 1457.89,-710.91 1440,-701.24 1344.12,-649.45 1227.59,-597.79 1162.1,-569.73"/>
<polygon fill="black" stroke="black" points="1163.38,-566.48 1152.81,-565.77 1160.63,-572.91 1163.38,-566.48"/>
</g>
<!-- reference_tar -->
<g id="node11" class="node">
<title>reference_tar</title>
<polygon fill="#94ddf4" stroke="black" points="16.5,-732.74 16.5,-769.74 129.5,-769.74 129.5,-732.74 16.5,-732.74"/>
<text text-anchor="middle" x="73" y="-747.54" font-family="Times,serif" font-size="14.00">reference_tar</text>
</g>
<!-- reference_tar&#45;&gt;run_dragen_transcriptome_step -->
<g id="edge16" class="edge">
<title>reference_tar&#45;&gt;run_dragen_transcriptome_step</title>
<path fill="none" stroke="black" d="M91.06,-732.74C103.32,-721.91 120.43,-708.69 138,-701.24 423.94,-580.02 793.91,-553.79 984.75,-548.78"/>
<polygon fill="black" stroke="black" points="984.91,-552.28 994.82,-548.54 984.73,-545.28 984.91,-552.28"/>
</g>
<!-- algorithm -->
<g id="node12" class="node">
<title>algorithm</title>
<polygon fill="#94ddf4" stroke="black" points="1901,-732.74 1901,-769.74 1987,-769.74 1987,-732.74 1901,-732.74"/>
<text text-anchor="middle" x="1944" y="-747.54" font-family="Times,serif" font-size="14.00">algorithm</text>
</g>
<!-- algorithm&#45;&gt;run_qualimap_step -->
<g id="edge17" class="edge">
<title>algorithm&#45;&gt;run_qualimap_step</title>
<path fill="none" stroke="black" d="M1935.02,-732.58C1902.86,-669.38 1793.36,-454.16 1754.67,-378.12"/>
<polygon fill="black" stroke="black" points="1757.77,-376.48 1750.11,-369.15 1751.53,-379.65 1757.77,-376.48"/>
</g>
<!-- java_mem -->
<g id="node13" class="node">
<title>java_mem</title>
<polygon fill="#94ddf4" stroke="black" points="2005,-732.74 2005,-769.74 2093,-769.74 2093,-732.74 2005,-732.74"/>
<text text-anchor="middle" x="2049" y="-747.54" font-family="Times,serif" font-size="14.00">java_mem</text>
</g>
<!-- java_mem&#45;&gt;run_qualimap_step -->
<g id="edge18" class="edge">
<title>java_mem&#45;&gt;run_qualimap_step</title>
<path fill="none" stroke="black" d="M2035.37,-732.58C1986.38,-669.12 1819.09,-452.4 1761.04,-377.2"/>
<polygon fill="black" stroke="black" points="1763.7,-374.93 1754.82,-369.15 1758.16,-379.2 1763.7,-374.93"/>
</g>
<!-- dragen_transcriptome_output_directory -->
<g id="node14" class="node">
<title>dragen_transcriptome_output_directory</title>
<polygon fill="#94ddf4" stroke="black" points="1233.5,-135.74 1233.5,-172.74 1534.5,-172.74 1534.5,-135.74 1233.5,-135.74"/>
<text text-anchor="middle" x="1384" y="-150.54" font-family="Times,serif" font-size="14.00">dragen_transcriptome_output_directory</text>
</g>
<!-- qualimap_output_directory -->
<g id="node15" class="node">
<title>qualimap_output_directory</title>
<polygon fill="#94ddf4" stroke="black" points="1552.5,-135.74 1552.5,-172.74 1761.5,-172.74 1761.5,-135.74 1552.5,-135.74"/>
<text text-anchor="middle" x="1657" y="-150.54" font-family="Times,serif" font-size="14.00">qualimap_output_directory</text>
</g>
<!-- run_dragen_transcriptome_step&#45;&gt;dragen_transcriptome_output_directory -->
<g id="edge2" class="edge">
<title>run_dragen_transcriptome_step&#45;&gt;dragen_transcriptome_output_directory</title>
<path fill="none" stroke="black" d="M1123.26,-528.68C1166.83,-466.28 1314.33,-255.03 1365.96,-181.07"/>
<polygon fill="black" stroke="black" points="1368.92,-182.96 1371.77,-172.75 1363.18,-178.95 1368.92,-182.96"/>
</g>
<!-- run_dragen_transcriptome_step&#45;&gt;run_qualimap_step -->
<g id="edge1" class="edge">
<title>run_dragen_transcriptome_step&#45;&gt;run_qualimap_step</title>
<path fill="none" stroke="black" d="M1167.74,-528.68C1284.21,-492.63 1549.75,-410.44 1674.25,-371.9"/>
<polygon fill="black" stroke="black" points="1675.53,-375.17 1684.05,-368.87 1673.46,-368.48 1675.53,-375.17"/>
</g>
<!-- run_qualimap_step&#45;&gt;qualimap_output_directory -->
<g id="edge3" class="edge">
<title>run_qualimap_step&#45;&gt;qualimap_output_directory</title>
<path fill="none" stroke="black" d="M1733.4,-331.68C1718.66,-297.65 1686.12,-222.5 1668.64,-182.13"/>
<polygon fill="black" stroke="black" points="1671.83,-180.69 1664.65,-172.9 1665.41,-183.47 1671.83,-180.69"/>
</g>
<!-- \n -->
<g id="node18" class="node">
<title>\n</title>
<ellipse fill="none" stroke="black" cx="2138" cy="-751.24" rx="27" ry="18"/>
</g>
</g>
</svg>
