<?xml version="1.0" encoding="UTF-8" standalone="no"?>
<!DOCTYPE svg PUBLIC "-//W3C//DTD SVG 1.1//EN"
 "http://www.w3.org/Graphics/SVG/1.1/DTD/svg11.dtd">
<!-- Generated by graphviz version 2.43.0 (0)
 -->
<!-- Title: G Pages: 1 -->
<svg width="2263pt" height="863pt"
 viewBox="0.00 0.00 2263.00 862.65" xmlns="http://www.w3.org/2000/svg" xmlns:xlink="http://www.w3.org/1999/xlink">
<g id="graph0" class="graph" transform="scale(1 1) rotate(0) translate(4 858.65)">
<title>G</title>
<polygon fill="#eeeeee" stroke="transparent" points="-4,4 -4,-858.65 2259,-858.65 2259,4 -4,4"/>
<g id="clust1" class="cluster">
<title>cluster_inputs</title>
<polygon fill="#eeeeee" stroke="black" stroke-dasharray="5,2" points="8,-626.2 8,-833.14 2191,-833.14 2191,-626.2 8,-626.2"/>
<text text-anchor="middle" x="2124.5" y="-634" font-family="Times,serif" font-size="14.00">Workflow Inputs</text>
</g>
<g id="clust2" class="cluster">
<title>cluster_outputs</title>
<polygon fill="#eeeeee" stroke="black" stroke-dasharray="5,2" points="1312,-21.5 1312,-228.44 1857,-228.44 1857,-21.5 1312,-21.5"/>
<text text-anchor="middle" x="1784.5" y="-29.3" font-family="Times,serif" font-size="14.00">Workflow Outputs</text>
</g>
<!-- annotation_file -->
<g id="node1" class="node">
<title>annotation_file</title>
<polygon fill="#94ddf4" stroke="black" points="1607,-742 1607,-779 1729,-779 1729,-742 1607,-742"/>
<text text-anchor="middle" x="1668" y="-756.8" font-family="Times,serif" font-size="14.00">annotation_file</text>
</g>
<!-- run_dragen_transcriptome_step -->
<g id="node17" class="node">
<title>run_dragen_transcriptome_step</title>
<polygon fill="lightgoldenrodyellow" stroke="black" points="1140,-535 1140,-572 1372,-572 1372,-535 1140,-535"/>
<text text-anchor="middle" x="1256" y="-549.8" font-family="Times,serif" font-size="14.00">dragen&#45;transcriptome v(3.9.3)</text>
</g>
<!-- annotation_file&#45;&gt;run_dragen_transcriptome_step -->
<g id="edge4" class="edge">
<title>annotation_file&#45;&gt;run_dragen_transcriptome_step</title>
<path fill="none" stroke="black" d="M1645.05,-741.84C1631.71,-731.98 1614.36,-719.85 1598,-710.5 1500.47,-654.74 1379.45,-603.43 1310.64,-575.8"/>
<polygon fill="black" stroke="black" points="1311.87,-572.52 1301.29,-572.06 1309.27,-579.02 1311.87,-572.52"/>
</g>
<!-- run_qualimap_step -->
<g id="node18" class="node">
<title>run_qualimap_step</title>
<polygon fill="lightgoldenrodyellow" stroke="black" points="1744,-336 1744,-373 1886,-373 1886,-336 1744,-336"/>
<text text-anchor="middle" x="1815" y="-350.8" font-family="Times,serif" font-size="14.00">qualimap v(2.2.2)</text>
</g>
<!-- annotation_file&#45;&gt;run_qualimap_step -->
<g id="edge5" class="edge">
<title>annotation_file&#45;&gt;run_qualimap_step</title>
<path fill="none" stroke="black" d="M1674.41,-741.88C1697.57,-678.22 1777.04,-459.81 1805.1,-382.72"/>
<polygon fill="black" stroke="black" points="1808.42,-383.81 1808.56,-373.21 1801.85,-381.41 1808.42,-383.81"/>
</g>
<!-- enable_duplicate_marking -->
<g id="node2" class="node">
<title>enable_duplicate_marking</title>
<polygon fill="#94ddf4" stroke="black" points="653.5,-742 653.5,-779 856.5,-779 856.5,-742 653.5,-742"/>
<text text-anchor="middle" x="755" y="-756.8" font-family="Times,serif" font-size="14.00">enable_duplicate_marking</text>
</g>
<!-- enable_duplicate_marking&#45;&gt;run_dragen_transcriptome_step -->
<g id="edge6" class="edge">
<title>enable_duplicate_marking&#45;&gt;run_dragen_transcriptome_step</title>
<path fill="none" stroke="black" d="M793.9,-741.93C815.13,-732.44 841.92,-720.63 866,-710.5 984.94,-660.48 1125.76,-605.08 1201.41,-575.64"/>
<polygon fill="black" stroke="black" points="1202.7,-578.89 1210.75,-572 1200.16,-572.37 1202.7,-578.89"/>
</g>
<!-- enable_map_align_output -->
<g id="node3" class="node">
<title>enable_map_align_output</title>
<polygon fill="#94ddf4" stroke="black" points="438.5,-742 438.5,-779 635.5,-779 635.5,-742 438.5,-742"/>
<text text-anchor="middle" x="537" y="-756.8" font-family="Times,serif" font-size="14.00">enable_map_align_output</text>
</g>
<!-- enable_map_align_output&#45;&gt;run_dragen_transcriptome_step -->
<g id="edge7" class="edge">
<title>enable_map_align_output&#45;&gt;run_dragen_transcriptome_step</title>
<path fill="none" stroke="black" d="M571.87,-741.79C592.71,-731.68 619.94,-719.31 645,-710.5 821.69,-648.41 1035.07,-599.64 1157.21,-574.12"/>
<polygon fill="black" stroke="black" points="1158.21,-577.48 1167.29,-572.02 1156.79,-570.63 1158.21,-577.48"/>
</g>
<!-- enable_rna_gene_fusion -->
<g id="node4" class="node">
<title>enable_rna_gene_fusion</title>
<polygon fill="#94ddf4" stroke="black" points="234,-742 234,-779 420,-779 420,-742 234,-742"/>
<text text-anchor="middle" x="327" y="-756.8" font-family="Times,serif" font-size="14.00">enable_rna_gene_fusion</text>
</g>
<!-- enable_rna_gene_fusion&#45;&gt;run_dragen_transcriptome_step -->
<g id="edge8" class="edge">
<title>enable_rna_gene_fusion&#45;&gt;run_dragen_transcriptome_step</title>
<path fill="none" stroke="black" d="M358.6,-741.85C378.54,-731.38 405.15,-718.61 430,-710.5 671.05,-631.86 965.35,-588.11 1129.61,-568.11"/>
<polygon fill="black" stroke="black" points="1130.25,-571.56 1139.76,-566.89 1129.41,-564.61 1130.25,-571.56"/>
</g>
<!-- enable_rna_quantification -->
<g id="node5" class="node">
<title>enable_rna_quantification</title>
<polygon fill="#94ddf4" stroke="black" points="16,-742 16,-779 216,-779 216,-742 16,-742"/>
<text text-anchor="middle" x="116" y="-756.8" font-family="Times,serif" font-size="14.00">enable_rna_quantification</text>
</g>
<!-- enable_rna_quantification&#45;&gt;run_dragen_transcriptome_step -->
<g id="edge9" class="edge">
<title>enable_rna_quantification&#45;&gt;run_dragen_transcriptome_step</title>
<path fill="none" stroke="black" d="M148.98,-741.83C170.14,-731.22 198.53,-718.29 225,-710.5 542.7,-616.97 932.85,-577.45 1129.65,-562.51"/>
<polygon fill="black" stroke="black" points="1130.03,-565.99 1139.74,-561.75 1129.51,-559.01 1130.03,-565.99"/>
</g>
<!-- fastq_list -->
<g id="node6" class="node">
<title>fastq_list</title>
<polygon fill="#94ddf4" stroke="black" points="1507,-742 1507,-779 1589,-779 1589,-742 1507,-742"/>
<text text-anchor="middle" x="1548" y="-756.8" font-family="Times,serif" font-size="14.00">fastq_list</text>
</g>
<!-- fastq_list&#45;&gt;run_dragen_transcriptome_step -->
<g id="edge10" class="edge">
<title>fastq_list&#45;&gt;run_dragen_transcriptome_step</title>
<path fill="none" stroke="black" d="M1531.67,-741.82C1522.27,-732.08 1509.97,-720.06 1498,-710.5 1431.26,-657.2 1345.81,-605.55 1296.35,-577.1"/>
<polygon fill="black" stroke="black" points="1297.96,-573.99 1287.55,-572.06 1294.49,-580.07 1297.96,-573.99"/>
</g>
<!-- fastq_list_rows -->
<g id="node7" class="node">
<title>fastq_list_rows</title>
<polygon fill="#94ddf4" stroke="black" points="1365.5,-742 1365.5,-779 1488.5,-779 1488.5,-742 1365.5,-742"/>
<text text-anchor="middle" x="1427" y="-756.8" font-family="Times,serif" font-size="14.00">fastq_list_rows</text>
</g>
<!-- fastq_list_rows&#45;&gt;run_dragen_transcriptome_step -->
<g id="edge11" class="edge">
<title>fastq_list_rows&#45;&gt;run_dragen_transcriptome_step</title>
<path fill="none" stroke="black" d="M1412.12,-741.67C1381.73,-705.23 1312.41,-622.13 1277.27,-580"/>
<polygon fill="black" stroke="black" points="1279.81,-577.58 1270.72,-572.15 1274.44,-582.07 1279.81,-577.58"/>
</g>
<!-- lic_instance_id_location -->
<g id="node8" class="node">
<title>lic_instance_id_location</title>
<polygon fill="#94ddf4" stroke="black" points="1164.5,-742 1164.5,-779 1347.5,-779 1347.5,-742 1164.5,-742"/>
<text text-anchor="middle" x="1256" y="-756.8" font-family="Times,serif" font-size="14.00">lic_instance_id_location</text>
</g>
<!-- lic_instance_id_location&#45;&gt;run_dragen_transcriptome_step -->
<g id="edge12" class="edge">
<title>lic_instance_id_location&#45;&gt;run_dragen_transcriptome_step</title>
<path fill="none" stroke="black" d="M1256,-741.67C1256,-705.91 1256,-625.23 1256,-582.41"/>
<polygon fill="black" stroke="black" points="1259.5,-582.15 1256,-572.15 1252.5,-582.15 1259.5,-582.15"/>
</g>
<!-- output_directory -->
<g id="node9" class="node">
<title>output_directory</title>
<polygon fill="#94ddf4" stroke="black" points="1747,-742 1747,-779 1883,-779 1883,-742 1747,-742"/>
<text text-anchor="middle" x="1815" y="-756.8" font-family="Times,serif" font-size="14.00">output_directory</text>
</g>
<!-- output_directory&#45;&gt;run_dragen_transcriptome_step -->
<g id="edge13" class="edge">
<title>output_directory&#45;&gt;run_dragen_transcriptome_step</title>
<path fill="none" stroke="black" d="M1790.95,-741.95C1776.2,-731.77 1756.64,-719.27 1738,-710.5 1603.93,-647.41 1437.59,-599.8 1339.5,-574.61"/>
<polygon fill="black" stroke="black" points="1340.2,-571.18 1329.64,-572.1 1338.47,-577.96 1340.2,-571.18"/>
</g>
<!-- output_directory&#45;&gt;run_qualimap_step -->
<g id="edge14" class="edge">
<title>output_directory&#45;&gt;run_qualimap_step</title>
<path fill="none" stroke="black" d="M1815,-741.88C1815,-678.48 1815,-461.59 1815,-383.67"/>
<polygon fill="black" stroke="black" points="1818.5,-383.21 1815,-373.21 1811.5,-383.21 1818.5,-383.21"/>
</g>
<!-- output_file_prefix -->
<g id="node10" class="node">
<title>output_file_prefix</title>
<polygon fill="#94ddf4" stroke="black" points="875,-742 875,-779 1015,-779 1015,-742 875,-742"/>
<text text-anchor="middle" x="945" y="-756.8" font-family="Times,serif" font-size="14.00">output_file_prefix</text>
</g>
<!-- output_file_prefix&#45;&gt;run_dragen_transcriptome_step -->
<g id="edge15" class="edge">
<title>output_file_prefix&#45;&gt;run_dragen_transcriptome_step</title>
<path fill="none" stroke="black" d="M971.78,-741.84C1027.93,-704.83 1157.95,-619.13 1220.77,-577.73"/>
<polygon fill="black" stroke="black" points="1222.75,-580.61 1229.17,-572.19 1218.89,-574.77 1222.75,-580.61"/>
</g>
<!-- reference_tar -->
<g id="node11" class="node">
<title>reference_tar</title>
<polygon fill="#94ddf4" stroke="black" points="1033.5,-742 1033.5,-779 1146.5,-779 1146.5,-742 1033.5,-742"/>
<text text-anchor="middle" x="1090" y="-756.8" font-family="Times,serif" font-size="14.00">reference_tar</text>
</g>
<!-- reference_tar&#45;&gt;run_dragen_transcriptome_step -->
<g id="edge16" class="edge">
<title>reference_tar&#45;&gt;run_dragen_transcriptome_step</title>
<path fill="none" stroke="black" d="M1104.44,-741.67C1133.95,-705.23 1201.24,-622.13 1235.35,-580"/>
<polygon fill="black" stroke="black" points="1238.14,-582.12 1241.71,-572.15 1232.7,-577.72 1238.14,-582.12"/>
</g>
<!-- algorithm -->
<g id="node12" class="node">
<title>algorithm</title>
<polygon fill="#94ddf4" stroke="black" points="1901,-742 1901,-779 1987,-779 1987,-742 1901,-742"/>
<text text-anchor="middle" x="1944" y="-756.8" font-family="Times,serif" font-size="14.00">algorithm</text>
</g>
<!-- algorithm&#45;&gt;run_qualimap_step -->
<g id="edge17" class="edge">
<title>algorithm&#45;&gt;run_qualimap_step</title>
<path fill="none" stroke="black" d="M1938.37,-741.88C1918.09,-678.35 1848.59,-460.7 1823.84,-383.19"/>
<polygon fill="black" stroke="black" points="1827.03,-381.67 1820.66,-373.21 1820.36,-383.8 1827.03,-381.67"/>
</g>
<!-- java_mem -->
<g id="node13" class="node">
<title>java_mem</title>
<polygon fill="#94ddf4" stroke="black" points="2005,-742 2005,-779 2093,-779 2093,-742 2005,-742"/>
<text text-anchor="middle" x="2049" y="-756.8" font-family="Times,serif" font-size="14.00">java_mem</text>
</g>
<!-- java_mem&#45;&gt;run_qualimap_step -->
<g id="edge18" class="edge">
<title>java_mem&#45;&gt;run_qualimap_step</title>
<path fill="none" stroke="black" d="M2038.79,-741.88C2001.85,-678.09 1874.9,-458.92 1830.49,-382.25"/>
<polygon fill="black" stroke="black" points="1833.3,-380.11 1825.26,-373.21 1827.24,-383.62 1833.3,-380.11"/>
</g>
<!-- tmp_dir -->
<g id="node14" class="node">
<title>tmp_dir</title>
<polygon fill="#94ddf4" stroke="black" points="2111,-742 2111,-779 2183,-779 2183,-742 2111,-742"/>
<text text-anchor="middle" x="2147" y="-756.8" font-family="Times,serif" font-size="14.00">tmp_dir</text>
</g>
<!-- tmp_dir&#45;&gt;run_qualimap_step -->
<g id="edge19" class="edge">
<title>tmp_dir&#45;&gt;run_qualimap_step</title>
<path fill="none" stroke="black" d="M2132.52,-741.88C2079.88,-677.83 1898.52,-457.13 1836.21,-381.32"/>
<polygon fill="black" stroke="black" points="1838.61,-378.72 1829.56,-373.21 1833.2,-383.16 1838.61,-378.72"/>
</g>
<!-- dragen_transcriptome_output_directory -->
<g id="node15" class="node">
<title>dragen_transcriptome_output_directory</title>
<polygon fill="#94ddf4" stroke="black" points="1320.5,-137 1320.5,-174 1621.5,-174 1621.5,-137 1320.5,-137"/>
<text text-anchor="middle" x="1471" y="-151.8" font-family="Times,serif" font-size="14.00">dragen_transcriptome_output_directory</text>
</g>
<!-- qualimap_output_directory -->
<g id="node16" class="node">
<title>qualimap_output_directory</title>
<polygon fill="#94ddf4" stroke="black" points="1639.5,-137 1639.5,-174 1848.5,-174 1848.5,-137 1639.5,-137"/>
<text text-anchor="middle" x="1744" y="-151.8" font-family="Times,serif" font-size="14.00">qualimap_output_directory</text>
</g>
<!-- run_dragen_transcriptome_step&#45;&gt;dragen_transcriptome_output_directory -->
<g id="edge2" class="edge">
<title>run_dragen_transcriptome_step&#45;&gt;dragen_transcriptome_output_directory</title>
<path fill="none" stroke="black" d="M1265.52,-534.97C1299.57,-472.25 1415.54,-258.64 1456.52,-183.18"/>
<polygon fill="black" stroke="black" points="1459.65,-184.73 1461.35,-174.27 1453.5,-181.39 1459.65,-184.73"/>
</g>
<!-- run_dragen_transcriptome_step&#45;&gt;run_qualimap_step -->
<g id="edge1" class="edge">
<title>run_dragen_transcriptome_step&#45;&gt;run_qualimap_step</title>
<path fill="none" stroke="black" d="M1306.1,-534.84C1409.24,-498.5 1644.89,-415.45 1755.54,-376.45"/>
<polygon fill="black" stroke="black" points="1756.95,-379.67 1765.21,-373.05 1754.62,-373.07 1756.95,-379.67"/>
</g>
<!-- run_qualimap_step&#45;&gt;qualimap_output_directory -->
<g id="edge3" class="edge">
<title>run_qualimap_step&#45;&gt;qualimap_output_directory</title>
<path fill="none" stroke="black" d="M1808.57,-335.67C1796.11,-301.09 1768.59,-224.74 1753.82,-183.76"/>
<polygon fill="black" stroke="black" points="1757.04,-182.37 1750.36,-174.15 1750.46,-184.74 1757.04,-182.37"/>
</g>
<!-- \n -->
<g id="node19" class="node">
<title>\n</title>
<ellipse fill="none" stroke="black" cx="2228" cy="-760.5" rx="27" ry="18"/>
</g>
</g>
</svg>
