<?xml version="1.0" encoding="UTF-8" standalone="no"?>
<!DOCTYPE svg PUBLIC "-//W3C//DTD SVG 1.1//EN"
 "http://www.w3.org/Graphics/SVG/1.1/DTD/svg11.dtd">
<!-- Generated by graphviz version 2.43.0 (0)
 -->
<!-- Title: G Pages: 1 -->
<svg width="740pt" height="739pt"
 viewBox="0.00 0.00 739.50 739.00" xmlns="http://www.w3.org/2000/svg" xmlns:xlink="http://www.w3.org/1999/xlink">
<g id="graph0" class="graph" transform="scale(1 1) rotate(0) translate(4 735)">
<title>G</title>
<polygon fill="#eeeeee" stroke="transparent" points="-4,4 -4,-735 735.5,-735 735.5,4 -4,4"/>
<g id="clust1" class="cluster">
<title>cluster_inputs</title>
<polygon fill="#eeeeee" stroke="black" stroke-dasharray="5,2" points="286,-535.45 286,-712.38 450,-712.38 450,-535.45 286,-535.45"/>
<text text-anchor="middle" x="383.5" y="-543.25" font-family="Times,serif" font-size="14.00">Workflow Inputs</text>
</g>
<g id="clust2" class="cluster">
<title>cluster_outputs</title>
<polygon fill="#eeeeee" stroke="black" stroke-dasharray="5,2" points="259,-18.62 259,-195.55 477,-195.55 477,-18.62 259,-18.62"/>
<text text-anchor="middle" x="404.5" y="-26.42" font-family="Times,serif" font-size="14.00">Workflow Outputs</text>
</g>
<!-- coerce_mapper_options_step -->
<g id="node1" class="node">
<title>coerce_mapper_options_step</title>
<polygon fill="#f3cea1" stroke="black" points="0,-455.62 0,-491.62 340,-491.62 340,-455.62 0,-455.62"/>
<text text-anchor="middle" x="170" y="-469.92" font-family="Times,serif" font-size="14.00">dragen&#45;create&#45;mapper&#45;options&#45;object v(4.4.4)</text>
</g>
<!-- coerce_alignment_options -->
<g id="node2" class="node">
<title>coerce_alignment_options</title>
<polygon fill="lightgoldenrodyellow" stroke="black" points="196,-285.62 196,-321.62 540,-321.62 540,-285.62 196,-285.62"/>
<text text-anchor="middle" x="368" y="-299.92" font-family="Times,serif" font-size="14.00">dragen&#45;wgts&#45;parse&#45;alignment&#45;schema v(4.4.4)</text>
</g>
<!-- coerce_mapper_options_step&#45;&gt;coerce_alignment_options -->
<g id="edge1" class="edge">
<title>coerce_mapper_options_step&#45;&gt;coerce_alignment_options</title>
<path fill="none" stroke="black" d="M190.07,-455.59C225.58,-425.47 299.51,-362.74 340,-328.38"/>
<polygon fill="black" stroke="black" points="342.51,-330.84 347.87,-321.7 337.98,-325.5 342.51,-330.84"/>
</g>
<!-- alignment_options_output -->
<g id="node5" class="node">
<title>alignment_options_output</title>
<polygon fill="#94ddf4" stroke="black" points="267,-115.62 267,-151.62 469,-151.62 469,-115.62 267,-115.62"/>
<text text-anchor="middle" x="368" y="-129.92" font-family="Times,serif" font-size="14.00">alignment_options_output</text>
</g>
<!-- coerce_alignment_options&#45;&gt;alignment_options_output -->
<g id="edge6" class="edge">
<title>coerce_alignment_options&#45;&gt;alignment_options_output</title>
<path fill="none" stroke="black" d="M368,-285.59C368,-256.54 368,-197.15 368,-162.14"/>
<polygon fill="black" stroke="black" points="371.5,-161.7 368,-151.7 364.5,-161.7 371.5,-161.7"/>
</g>
<!-- coerce_aligner_options_step -->
<g id="node3" class="node">
<title>coerce_aligner_options_step</title>
<polygon fill="#f3cea1" stroke="black" points="396.5,-455.62 396.5,-491.62 731.5,-491.62 731.5,-455.62 396.5,-455.62"/>
<text text-anchor="middle" x="564" y="-469.92" font-family="Times,serif" font-size="14.00">dragen&#45;create&#45;aligner&#45;options&#45;object v(4.4.4)</text>
</g>
<!-- coerce_aligner_options_step&#45;&gt;coerce_alignment_options -->
<g id="edge2" class="edge">
<title>coerce_aligner_options_step&#45;&gt;coerce_alignment_options</title>
<path fill="none" stroke="black" d="M544.13,-455.59C508.98,-425.47 435.8,-362.74 395.71,-328.38"/>
<polygon fill="black" stroke="black" points="397.8,-325.55 387.92,-321.7 393.24,-330.87 397.8,-325.55"/>
</g>
<!-- alignment_options -->
<g id="node4" class="node">
<title>alignment_options</title>
<polygon fill="#94ddf4" stroke="black" points="294,-632.62 294,-668.62 442,-668.62 442,-632.62 294,-632.62"/>
<text text-anchor="middle" x="368" y="-646.92" font-family="Times,serif" font-size="14.00">alignment_options</text>
</g>
<!-- alignment_options&#45;&gt;coerce_mapper_options_step -->
<g id="edge5" class="edge">
<title>alignment_options&#45;&gt;coerce_mapper_options_step</title>
<path fill="none" stroke="black" d="M348.65,-632.53C313.17,-601.16 237.59,-534.37 197.04,-498.53"/>
<polygon fill="black" stroke="black" points="199.23,-495.79 189.42,-491.79 194.6,-501.04 199.23,-495.79"/>
</g>
<!-- alignment_options&#45;&gt;coerce_alignment_options -->
<g id="edge4" class="edge">
<title>alignment_options&#45;&gt;coerce_alignment_options</title>
<path fill="none" stroke="black" d="M368,-632.52C368,-576.88 368,-400.72 368,-332.23"/>
<polygon fill="black" stroke="black" points="371.5,-331.84 368,-321.84 364.5,-331.84 371.5,-331.84"/>
</g>
<!-- alignment_options&#45;&gt;coerce_aligner_options_step -->
<g id="edge3" class="edge">
<title>alignment_options&#45;&gt;coerce_aligner_options_step</title>
<path fill="none" stroke="black" d="M387.15,-632.53C422.28,-601.16 497.09,-534.37 537.23,-498.53"/>
<polygon fill="black" stroke="black" points="539.64,-501.06 544.77,-491.79 534.98,-495.84 539.64,-501.06"/>
</g>
</g>
</svg>
