<?xml version="1.0" encoding="UTF-8" standalone="no"?>
<!DOCTYPE svg PUBLIC "-//W3C//DTD SVG 1.1//EN"
 "http://www.w3.org/Graphics/SVG/1.1/DTD/svg11.dtd">
<!-- Generated by graphviz version 2.43.0 (0)
 -->
<!-- Title: G Pages: 1 -->
<svg width="330pt" height="330pt"
 viewBox="0.00 0.00 330.37 330.00" xmlns="http://www.w3.org/2000/svg" xmlns:xlink="http://www.w3.org/1999/xlink">
<g id="graph0" class="graph" transform="scale(1 1) rotate(0) translate(4 326)">
<title>G</title>
<polygon fill="#eeeeee" stroke="transparent" points="-4,4 -4,-326 326.37,-326 326.37,4 -4,4"/>
<g id="clust1" class="cluster">
<title>cluster_inputs</title>
<polygon fill="#eeeeee" stroke="black" stroke-dasharray="5,2" points="90.19,-209.3 90.19,-311.27 232.19,-311.27 232.19,-209.3 90.19,-209.3"/>
<text text-anchor="middle" x="165.69" y="-217.1" font-family="Times,serif" font-size="14.00">Workflow Inputs</text>
</g>
<g id="clust2" class="cluster">
<title>cluster_outputs</title>
<polygon fill="#eeeeee" stroke="black" stroke-dasharray="5,2" points="85.19,-10.73 85.19,-112.7 237.19,-112.7 237.19,-10.73 85.19,-10.73"/>
<text text-anchor="middle" x="164.69" y="-18.53" font-family="Times,serif" font-size="14.00">Workflow Outputs</text>
</g>
<!-- dragen_options -->
<g id="node1" class="node">
<title>dragen_options</title>
<polygon fill="#94ddf4" stroke="black" points="98.19,-257.73 98.19,-293.73 224.19,-293.73 224.19,-257.73 98.19,-257.73"/>
<text text-anchor="middle" x="161.19" y="-272.03" font-family="Times,serif" font-size="14.00">dragen_options</text>
</g>
<!-- run_dragen_variant_calling_step -->
<g id="node2" class="node">
<title>run_dragen_variant_calling_step</title>
<ellipse fill="none" stroke="black" cx="161.19" cy="-174.73" rx="161.37" ry="18"/>
<text text-anchor="middle" x="161.19" y="-171.03" font-family="Times,serif" font-size="14.00">run_dragen_variant_calling_step</text>
</g>
<!-- dragen_options&#45;&gt;run_dragen_variant_calling_step -->
<g id="edge1" class="edge">
<title>dragen_options&#45;&gt;run_dragen_variant_calling_step</title>
<path fill="none" stroke="black" d="M161.19,-257.49C161.19,-242.44 161.19,-220.35 161.19,-202.92"/>
<polygon fill="black" stroke="black" points="164.69,-202.78 161.19,-192.78 157.69,-202.78 164.69,-202.78"/>
</g>
<!-- output_directory -->
<g id="node3" class="node">
<title>output_directory</title>
<polygon fill="#94ddf4" stroke="black" points="93.19,-58.73 93.19,-94.73 229.19,-94.73 229.19,-58.73 93.19,-58.73"/>
<text text-anchor="middle" x="161.19" y="-73.03" font-family="Times,serif" font-size="14.00">output_directory</text>
</g>
<!-- run_dragen_variant_calling_step&#45;&gt;output_directory -->
<g id="edge2" class="edge">
<title>run_dragen_variant_calling_step&#45;&gt;output_directory</title>
<path fill="none" stroke="black" d="M161.19,-156.57C161.19,-142.24 161.19,-121.54 161.19,-104.95"/>
<polygon fill="black" stroke="black" points="164.69,-104.75 161.19,-94.75 157.69,-104.75 164.69,-104.75"/>
</g>
</g>
</svg>
