<?xml version="1.0" encoding="UTF-8" standalone="no"?>
<!DOCTYPE svg PUBLIC "-//W3C//DTD SVG 1.1//EN"
 "http://www.w3.org/Graphics/SVG/1.1/DTD/svg11.dtd">
<!-- Generated by graphviz version 2.43.0 (0)
 -->
<!-- Title: G Pages: 1 -->
<svg width="842pt" height="842pt"
 viewBox="0.00 0.00 842.16 842.00" xmlns="http://www.w3.org/2000/svg" xmlns:xlink="http://www.w3.org/1999/xlink">
<g id="graph0" class="graph" transform="scale(1 1) rotate(0) translate(4 838)">
<title>G</title>
<polygon fill="#eeeeee" stroke="transparent" points="-4,4 -4,-838 838.16,-838 838.16,4 -4,4"/>
<g id="clust1" class="cluster">
<title>cluster_inputs</title>
<polygon fill="#eeeeee" stroke="black" stroke-dasharray="5,2" points="101.03,-542.1 101.03,-806.2 670.03,-806.2 670.03,-542.1 101.03,-542.1"/>
<text text-anchor="middle" x="603.53" y="-549.9" font-family="Times,serif" font-size="14.00">Workflow Inputs</text>
</g>
<g id="clust2" class="cluster">
<title>cluster_outputs</title>
<polygon fill="#eeeeee" stroke="black" stroke-dasharray="5,2" points="102.03,-27.8 102.03,-291.9 780.03,-291.9 780.03,-27.8 102.03,-27.8"/>
<text text-anchor="middle" x="707.53" y="-35.6" font-family="Times,serif" font-size="14.00">Workflow Outputs</text>
</g>
<!-- rna_gene_expression_quantification_options -->
<g id="node1" class="node">
<title>rna_gene_expression_quantification_options</title>
<polygon fill="#94ddf4" stroke="black" points="109.03,-695.8 109.03,-731.8 439.03,-731.8 439.03,-695.8 109.03,-695.8"/>
<text text-anchor="middle" x="274.03" y="-710.1" font-family="Times,serif" font-size="14.00">rna_gene_expression_quantification_options</text>
</g>
<!-- parse_rna_gene_expression_quantification_options -->
<g id="node3" class="node">
<title>parse_rna_gene_expression_quantification_options</title>
<ellipse fill="none" stroke="black" cx="245.03" cy="-451.8" rx="245.06" ry="18"/>
<text text-anchor="middle" x="245.03" y="-448.1" font-family="Times,serif" font-size="14.00">parse_rna_gene_expression_quantification_options</text>
</g>
<!-- rna_gene_expression_quantification_options&#45;&gt;parse_rna_gene_expression_quantification_options -->
<g id="edge1" class="edge">
<title>rna_gene_expression_quantification_options&#45;&gt;parse_rna_gene_expression_quantification_options</title>
<path fill="none" stroke="black" d="M272.13,-695.74C267.21,-651.67 254.05,-533.71 248.07,-480.05"/>
<polygon fill="black" stroke="black" points="251.53,-479.47 246.94,-469.92 244.57,-480.25 251.53,-479.47"/>
</g>
<!-- snv_variant_caller_options -->
<g id="node2" class="node">
<title>snv_variant_caller_options</title>
<polygon fill="#94ddf4" stroke="black" points="457.53,-695.8 457.53,-731.8 662.53,-731.8 662.53,-695.8 457.53,-695.8"/>
<text text-anchor="middle" x="560.03" y="-710.1" font-family="Times,serif" font-size="14.00">snv_variant_caller_options</text>
</g>
<!-- parse_snv_variant_caller_options -->
<g id="node4" class="node">
<title>parse_snv_variant_caller_options</title>
<ellipse fill="none" stroke="black" cx="671.03" cy="-451.8" rx="163.27" ry="18"/>
<text text-anchor="middle" x="671.03" y="-448.1" font-family="Times,serif" font-size="14.00">parse_snv_variant_caller_options</text>
</g>
<!-- snv_variant_caller_options&#45;&gt;parse_snv_variant_caller_options -->
<g id="edge2" class="edge">
<title>snv_variant_caller_options&#45;&gt;parse_snv_variant_caller_options</title>
<path fill="none" stroke="black" d="M567.31,-695.74C586.21,-651.48 636.91,-532.72 659.68,-479.38"/>
<polygon fill="black" stroke="black" points="663.01,-480.49 663.72,-469.92 656.57,-477.74 663.01,-480.49"/>
</g>
<!-- rna_gene_expression_quantification_options_output -->
<g id="node5" class="node">
<title>rna_gene_expression_quantification_options_output</title>
<polygon fill="#94ddf4" stroke="black" points="110.03,-181.8 110.03,-217.8 494.03,-217.8 494.03,-181.8 110.03,-181.8"/>
<text text-anchor="middle" x="302.03" y="-196.1" font-family="Times,serif" font-size="14.00">rna_gene_expression_quantification_options_output</text>
</g>
<!-- parse_rna_gene_expression_quantification_options&#45;&gt;rna_gene_expression_quantification_options_output -->
<g id="edge3" class="edge">
<title>parse_rna_gene_expression_quantification_options&#45;&gt;rna_gene_expression_quantification_options_output</title>
<path fill="none" stroke="black" d="M248.95,-433.62C258.69,-390.89 284.07,-279.58 295.85,-227.89"/>
<polygon fill="black" stroke="black" points="299.27,-228.63 298.08,-218.1 292.45,-227.08 299.27,-228.63"/>
</g>
<!-- snv_variant_caller_options_output -->
<g id="node6" class="node">
<title>snv_variant_caller_options_output</title>
<polygon fill="#94ddf4" stroke="black" points="512.53,-181.8 512.53,-217.8 771.53,-217.8 771.53,-181.8 512.53,-181.8"/>
<text text-anchor="middle" x="642.03" y="-196.1" font-family="Times,serif" font-size="14.00">snv_variant_caller_options_output</text>
</g>
<!-- parse_snv_variant_caller_options&#45;&gt;snv_variant_caller_options_output -->
<g id="edge4" class="edge">
<title>parse_snv_variant_caller_options&#45;&gt;snv_variant_caller_options_output</title>
<path fill="none" stroke="black" d="M669.03,-433.62C664.09,-390.98 651.22,-280.04 645.21,-228.22"/>
<polygon fill="black" stroke="black" points="648.66,-227.63 644.04,-218.1 641.71,-228.44 648.66,-227.63"/>
</g>
</g>
</svg>
