<?xml version="1.0" encoding="UTF-8" standalone="no"?>
<!DOCTYPE svg PUBLIC "-//W3C//DTD SVG 1.1//EN"
 "http://www.w3.org/Graphics/SVG/1.1/DTD/svg11.dtd">
<!-- Generated by graphviz version 2.43.0 (0)
 -->
<!-- Title: G Pages: 1 -->
<svg width="2869pt" height="1123pt"
 viewBox="0.00 0.00 2868.50 1123.40" xmlns="http://www.w3.org/2000/svg" xmlns:xlink="http://www.w3.org/1999/xlink">
<g id="graph0" class="graph" transform="scale(1 1) rotate(0) translate(4 1119.4)">
<title>G</title>
<polygon fill="#eeeeee" stroke="transparent" points="-4,4 -4,-1119.4 2864.5,-1119.4 2864.5,4 -4,4"/>
<g id="clust1" class="cluster">
<title>cluster_inputs</title>
<polygon fill="#eeeeee" stroke="black" stroke-dasharray="5,2" points="8,-873.3 8,-1092.34 2490,-1092.34 2490,-873.3 8,-873.3"/>
<text text-anchor="middle" x="2423.5" y="-881.1" font-family="Times,serif" font-size="14.00">Workflow Inputs</text>
</g>
<g id="clust2" class="cluster">
<title>cluster_outputs</title>
<polygon fill="#eeeeee" stroke="black" stroke-dasharray="5,2" points="2175,-23.06 2175,-242.1 2694,-242.1 2694,-23.06 2175,-23.06"/>
<text text-anchor="middle" x="2621.5" y="-30.86" font-family="Times,serif" font-size="14.00">Workflow Outputs</text>
</g>
<!-- run_reheader_sequence_data_step -->
<g id="node1" class="node">
<title>run_reheader_sequence_data_step</title>
<polygon fill="lightgoldenrodyellow" stroke="black" points="1989,-779.06 1989,-815.06 2309,-815.06 2309,-779.06 1989,-779.06"/>
<text text-anchor="middle" x="2149" y="-793.36" font-family="Times,serif" font-size="14.00">rename&#45;rgsm&#45;in&#45;alignment&#45;header v(1.0.0)</text>
</g>
<!-- run_dragen_rna_pipeline_stage -->
<g id="node2" class="node">
<title>run_dragen_rna_pipeline_stage</title>
<polygon fill="#f3cea1" stroke="black" points="1567.5,-568.06 1567.5,-604.06 1844.5,-604.06 1844.5,-568.06 1567.5,-568.06"/>
<text text-anchor="middle" x="1706" y="-582.36" font-family="Times,serif" font-size="14.00">dragen&#45;variant&#45;calling&#45;stage v(4.4.4)</text>
</g>
<!-- run_reheader_sequence_data_step&#45;&gt;run_dragen_rna_pipeline_stage -->
<g id="edge1" class="edge">
<title>run_reheader_sequence_data_step&#45;&gt;run_dragen_rna_pipeline_stage</title>
<path fill="none" stroke="black" d="M2112.75,-778.95C2032.4,-741.05 1839.5,-650.04 1751.34,-608.45"/>
<polygon fill="black" stroke="black" points="1752.67,-605.21 1742.13,-604.1 1749.68,-611.54 1752.67,-605.21"/>
</g>
<!-- run_multiqc -->
<g id="node6" class="node">
<title>run_multiqc</title>
<polygon fill="lightgoldenrodyellow" stroke="black" points="2721.5,-358.06 2721.5,-394.06 2860.5,-394.06 2860.5,-358.06 2721.5,-358.06"/>
<text text-anchor="middle" x="2791" y="-372.36" font-family="Times,serif" font-size="14.00">multiqc v(1.25.0)</text>
</g>
<!-- run_dragen_rna_pipeline_stage&#45;&gt;run_multiqc -->
<g id="edge6" class="edge">
<title>run_dragen_rna_pipeline_stage&#45;&gt;run_multiqc</title>
<path fill="none" stroke="black" d="M1794.79,-568.04C2001.73,-528.36 2513.51,-430.25 2711.24,-392.35"/>
<polygon fill="black" stroke="black" points="2712.11,-395.75 2721.27,-390.42 2710.79,-388.87 2712.11,-395.75"/>
</g>
<!-- dragen_rna_pipeline_output_directory -->
<g id="node20" class="node">
<title>dragen_rna_pipeline_output_directory</title>
<polygon fill="#94ddf4" stroke="black" points="2183.5,-148.06 2183.5,-184.06 2470.5,-184.06 2470.5,-148.06 2183.5,-148.06"/>
<text text-anchor="middle" x="2327" y="-162.36" font-family="Times,serif" font-size="14.00">dragen_rna_pipeline_output_directory</text>
</g>
<!-- run_dragen_rna_pipeline_stage&#45;&gt;dragen_rna_pipeline_output_directory -->
<g id="edge26" class="edge">
<title>run_dragen_rna_pipeline_stage&#45;&gt;dragen_rna_pipeline_output_directory</title>
<path fill="none" stroke="black" d="M1731.5,-567.89C1829.5,-501.93 2181.93,-264.7 2293.13,-189.85"/>
<polygon fill="black" stroke="black" points="2295.29,-192.62 2301.63,-184.14 2291.38,-186.82 2295.29,-192.62"/>
</g>
<!-- run_get_dragen_configuration_options_step -->
<g id="node3" class="node">
<title>run_get_dragen_configuration_options_step</title>
<polygon fill="lightgoldenrodyellow" stroke="black" points="2365.5,-779.06 2365.5,-815.06 2706.5,-815.06 2706.5,-779.06 2365.5,-779.06"/>
<text text-anchor="middle" x="2536" y="-793.36" font-family="Times,serif" font-size="14.00">get&#45;dragen&#45;default&#45;configuration&#45;json v(4.4.4)</text>
</g>
<!-- run_get_dragen_configuration_options_step&#45;&gt;run_dragen_rna_pipeline_stage -->
<g id="edge2" class="edge">
<title>run_get_dragen_configuration_options_step&#45;&gt;run_dragen_rna_pipeline_stage</title>
<path fill="none" stroke="black" d="M2468.43,-779.04C2315.85,-740.62 1945.36,-647.33 1783.65,-606.61"/>
<polygon fill="black" stroke="black" points="1784.32,-603.17 1773.77,-604.12 1782.61,-609.96 1784.32,-603.17"/>
</g>
<!-- run_get_default_variant_calling_options_schema_step -->
<g id="node4" class="node">
<title>run_get_default_variant_calling_options_schema_step</title>
<polygon fill="#f3cea1" stroke="black" points="1478.5,-779.06 1478.5,-815.06 1933.5,-815.06 1933.5,-779.06 1478.5,-779.06"/>
<text text-anchor="middle" x="1706" y="-793.36" font-family="Times,serif" font-size="14.00">dragen&#45;create&#45;wgts&#45;rna&#45;variant&#45;calling&#45;options&#45;object v(4.4.4)</text>
</g>
<!-- run_get_default_variant_calling_options_schema_step&#45;&gt;run_dragen_rna_pipeline_stage -->
<g id="edge3" class="edge">
<title>run_get_default_variant_calling_options_schema_step&#45;&gt;run_dragen_rna_pipeline_stage</title>
<path fill="none" stroke="black" d="M1702.09,-778.95C1698.6,-742.73 1698.33,-658.04 1701.27,-614.29"/>
<polygon fill="black" stroke="black" points="1704.78,-614.35 1702.09,-604.1 1697.8,-613.79 1704.78,-614.35"/>
</g>
<!-- run_get_default_variant_calling_options_schema_step&#45;&gt;run_dragen_rna_pipeline_stage -->
<g id="edge4" class="edge">
<title>run_get_default_variant_calling_options_schema_step&#45;&gt;run_dragen_rna_pipeline_stage</title>
<path fill="none" stroke="black" d="M1709.91,-778.95C1713.4,-742.73 1713.67,-658.04 1710.73,-614.29"/>
<polygon fill="black" stroke="black" points="1714.2,-613.79 1709.91,-604.1 1707.22,-614.35 1714.2,-613.79"/>
</g>
<!-- run_get_default_alignment_options_schema_step -->
<g id="node5" class="node">
<title>run_get_default_alignment_options_schema_step</title>
<polygon fill="#f3cea1" stroke="black" points="1064,-779.06 1064,-815.06 1460,-815.06 1460,-779.06 1064,-779.06"/>
<text text-anchor="middle" x="1262" y="-793.36" font-family="Times,serif" font-size="14.00">dragen&#45;create&#45;wgts&#45;alignment&#45;options&#45;object v(4.4.4)</text>
</g>
<!-- run_get_default_alignment_options_schema_step&#45;&gt;run_dragen_rna_pipeline_stage -->
<g id="edge5" class="edge">
<title>run_get_default_alignment_options_schema_step&#45;&gt;run_dragen_rna_pipeline_stage</title>
<path fill="none" stroke="black" d="M1298.33,-778.95C1378.87,-741.05 1572.2,-650.04 1660.56,-608.45"/>
<polygon fill="black" stroke="black" points="1662.23,-611.53 1669.79,-604.1 1659.25,-605.2 1662.23,-611.53"/>
</g>
<!-- multiqc_output_directory -->
<g id="node21" class="node">
<title>multiqc_output_directory</title>
<polygon fill="#94ddf4" stroke="black" points="2488.5,-148.06 2488.5,-184.06 2685.5,-184.06 2685.5,-148.06 2488.5,-148.06"/>
<text text-anchor="middle" x="2587" y="-162.36" font-family="Times,serif" font-size="14.00">multiqc_output_directory</text>
</g>
<!-- run_multiqc&#45;&gt;multiqc_output_directory -->
<g id="edge27" class="edge">
<title>run_multiqc&#45;&gt;multiqc_output_directory</title>
<path fill="none" stroke="black" d="M2774.31,-358.04C2738.22,-321.24 2652.83,-234.18 2610.97,-191.5"/>
<polygon fill="black" stroke="black" points="2613.43,-189 2603.92,-184.31 2608.43,-193.9 2613.43,-189"/>
</g>
<!-- annotation_file -->
<g id="node7" class="node">
<title>annotation_file</title>
<polygon fill="#94ddf4" stroke="black" points="2228,-998.06 2228,-1034.06 2350,-1034.06 2350,-998.06 2228,-998.06"/>
<text text-anchor="middle" x="2289" y="-1012.36" font-family="Times,serif" font-size="14.00">annotation_file</text>
</g>
<!-- annotation_file&#45;&gt;run_dragen_rna_pipeline_stage -->
<g id="edge7" class="edge">
<title>annotation_file&#45;&gt;run_dragen_rna_pipeline_stage</title>
<path fill="none" stroke="black" d="M2311.61,-997.91C2325.21,-988.04 2343.1,-975.79 2360,-966.56 2517.01,-880.74 2830.13,-916.36 2716,-778.56 2608.37,-648.6 2108.66,-606.14 1854.83,-592.83"/>
<polygon fill="black" stroke="black" points="1854.96,-589.33 1844.79,-592.31 1854.6,-596.32 1854.96,-589.33"/>
</g>
<!-- gene_fusion_detection_options -->
<g id="node8" class="node">
<title>gene_fusion_detection_options</title>
<polygon fill="#94ddf4" stroke="black" points="16,-998.06 16,-1034.06 250,-1034.06 250,-998.06 16,-998.06"/>
<text text-anchor="middle" x="133" y="-1012.36" font-family="Times,serif" font-size="14.00">gene_fusion_detection_options</text>
</g>
<!-- gene_fusion_detection_options&#45;&gt;run_dragen_rna_pipeline_stage -->
<g id="edge8" class="edge">
<title>gene_fusion_detection_options&#45;&gt;run_dragen_rna_pipeline_stage</title>
<path fill="none" stroke="black" d="M176.98,-997.98C201.16,-988.63 231.7,-976.88 259,-966.56 483.4,-881.69 534.32,-844.45 765,-778.56 1054.09,-695.97 1402.86,-634.71 1583.76,-605.71"/>
<polygon fill="black" stroke="black" points="1584.51,-609.13 1593.84,-604.1 1583.41,-602.22 1584.51,-609.13"/>
</g>
<!-- lic_instance_id_location -->
<g id="node9" class="node">
<title>lic_instance_id_location</title>
<polygon fill="#94ddf4" stroke="black" points="268.5,-998.06 268.5,-1034.06 451.5,-1034.06 451.5,-998.06 268.5,-998.06"/>
<text text-anchor="middle" x="360" y="-1012.36" font-family="Times,serif" font-size="14.00">lic_instance_id_location</text>
</g>
<!-- lic_instance_id_location&#45;&gt;run_dragen_rna_pipeline_stage -->
<g id="edge9" class="edge">
<title>lic_instance_id_location&#45;&gt;run_dragen_rna_pipeline_stage</title>
<path fill="none" stroke="black" d="M389.56,-997.92C464.61,-955.08 669.6,-842.2 853,-778.56 1105.71,-690.86 1414.74,-633.15 1582.78,-605.7"/>
<polygon fill="black" stroke="black" points="1583.34,-609.16 1592.65,-604.1 1582.22,-602.25 1583.34,-609.16"/>
</g>
<!-- maf_conversion_options -->
<g id="node10" class="node">
<title>maf_conversion_options</title>
<polygon fill="#94ddf4" stroke="black" points="469.5,-998.06 469.5,-1034.06 656.5,-1034.06 656.5,-998.06 469.5,-998.06"/>
<text text-anchor="middle" x="563" y="-1012.36" font-family="Times,serif" font-size="14.00">maf_conversion_options</text>
</g>
<!-- maf_conversion_options&#45;&gt;run_dragen_rna_pipeline_stage -->
<g id="edge10" class="edge">
<title>maf_conversion_options&#45;&gt;run_dragen_rna_pipeline_stage</title>
<path fill="none" stroke="black" d="M584.11,-997.98C638.52,-954.79 789.41,-840.25 933,-778.56 1149.59,-685.5 1420.58,-631.45 1577.42,-605.73"/>
<polygon fill="black" stroke="black" points="1578.27,-609.14 1587.58,-604.08 1577.15,-602.23 1578.27,-609.14"/>
</g>
<!-- nirvana_annotation_options -->
<g id="node11" class="node">
<title>nirvana_annotation_options</title>
<polygon fill="#94ddf4" stroke="black" points="674.5,-998.06 674.5,-1034.06 887.5,-1034.06 887.5,-998.06 674.5,-998.06"/>
<text text-anchor="middle" x="781" y="-1012.36" font-family="Times,serif" font-size="14.00">nirvana_annotation_options</text>
</g>
<!-- nirvana_annotation_options&#45;&gt;run_dragen_rna_pipeline_stage -->
<g id="edge11" class="edge">
<title>nirvana_annotation_options&#45;&gt;run_dragen_rna_pipeline_stage</title>
<path fill="none" stroke="black" d="M790.66,-997.98C816.28,-954.28 890.55,-837.68 985,-778.56 1162.64,-667.35 1403.8,-620.22 1557.19,-600.59"/>
<polygon fill="black" stroke="black" points="1557.67,-604.05 1567.16,-599.33 1556.8,-597.11 1557.67,-604.05"/>
</g>
<!-- ora_reference -->
<g id="node12" class="node">
<title>ora_reference</title>
<polygon fill="#94ddf4" stroke="black" points="905.5,-998.06 905.5,-1034.06 1020.5,-1034.06 1020.5,-998.06 905.5,-998.06"/>
<text text-anchor="middle" x="963" y="-1012.36" font-family="Times,serif" font-size="14.00">ora_reference</text>
</g>
<!-- ora_reference&#45;&gt;run_dragen_rna_pipeline_stage -->
<g id="edge12" class="edge">
<title>ora_reference&#45;&gt;run_dragen_rna_pipeline_stage</title>
<path fill="none" stroke="black" d="M961.29,-997.77C958.03,-954.58 955.87,-840.96 1015,-778.56 1092.47,-696.8 1405.67,-634.94 1582.64,-605.7"/>
<polygon fill="black" stroke="black" points="1583.23,-609.15 1592.53,-604.08 1582.1,-602.24 1583.23,-609.15"/>
</g>
<!-- reference -->
<g id="node13" class="node">
<title>reference</title>
<polygon fill="#94ddf4" stroke="black" points="1038.5,-998.06 1038.5,-1034.06 1123.5,-1034.06 1123.5,-998.06 1038.5,-998.06"/>
<text text-anchor="middle" x="1081" y="-1012.36" font-family="Times,serif" font-size="14.00">reference</text>
</g>
<!-- reference&#45;&gt;run_dragen_rna_pipeline_stage -->
<g id="edge13" class="edge">
<title>reference&#45;&gt;run_dragen_rna_pipeline_stage</title>
<path fill="none" stroke="black" d="M1069.64,-997.87C1043.43,-955.85 984.78,-846.46 1036,-778.56 1100.81,-692.63 1399.16,-633.64 1575.13,-605.65"/>
<polygon fill="black" stroke="black" points="1575.9,-609.08 1585.23,-604.06 1574.81,-602.16 1575.9,-609.08"/>
</g>
<!-- sample_name -->
<g id="node14" class="node">
<title>sample_name</title>
<polygon fill="#94ddf4" stroke="black" points="2368.5,-998.06 2368.5,-1034.06 2481.5,-1034.06 2481.5,-998.06 2368.5,-998.06"/>
<text text-anchor="middle" x="2425" y="-1012.36" font-family="Times,serif" font-size="14.00">sample_name</text>
</g>
<!-- sample_name&#45;&gt;run_reheader_sequence_data_step -->
<g id="edge18" class="edge">
<title>sample_name&#45;&gt;run_reheader_sequence_data_step</title>
<path fill="none" stroke="black" d="M2403.34,-998.03C2354.39,-959.54 2235.12,-865.77 2179.05,-821.69"/>
<polygon fill="black" stroke="black" points="2180.96,-818.74 2170.94,-815.31 2176.64,-824.24 2180.96,-818.74"/>
</g>
<!-- sample_name&#45;&gt;run_dragen_rna_pipeline_stage -->
<g id="edge14" class="edge">
<title>sample_name&#45;&gt;run_dragen_rna_pipeline_stage</title>
<path fill="none" stroke="black" d="M2422.19,-997.93C2414.18,-954.61 2387.18,-839.79 2318,-778.56 2188.29,-663.73 1990.15,-617.74 1854.69,-599.33"/>
<polygon fill="black" stroke="black" points="1855.02,-595.85 1844.64,-598 1854.1,-602.79 1855.02,-595.85"/>
</g>
<!-- sample_name&#45;&gt;run_multiqc -->
<g id="edge15" class="edge">
<title>sample_name&#45;&gt;run_multiqc</title>
<path fill="none" stroke="black" d="M2466.08,-998.02C2532.81,-971.61 2661.6,-913.37 2723,-815.56 2807.28,-681.3 2788,-477.67 2786.99,-404.47"/>
<polygon fill="black" stroke="black" points="2790.49,-404.25 2787,-394.25 2783.49,-404.25 2790.49,-404.25"/>
</g>
<!-- sample_name&#45;&gt;run_multiqc -->
<g id="edge16" class="edge">
<title>sample_name&#45;&gt;run_multiqc</title>
<path fill="none" stroke="black" d="M2478.03,-998.02C2550.81,-971.61 2679.6,-913.37 2741,-815.56 2825.28,-681.3 2806,-477.67 2795.49,-404.47"/>
<polygon fill="black" stroke="black" points="2798.91,-403.62 2793.96,-394.25 2791.98,-404.66 2798.91,-403.62"/>
</g>
<!-- sample_name&#45;&gt;run_multiqc -->
<g id="edge17" class="edge">
<title>sample_name&#45;&gt;run_multiqc</title>
<path fill="none" stroke="black" d="M2481.55,-1000.79C2559.31,-975.81 2695.36,-916.94 2759,-815.56 2843.45,-681.03 2823.92,-476.83 2803.87,-404.02"/>
<polygon fill="black" stroke="black" points="2807.16,-402.81 2800.92,-394.25 2800.46,-404.84 2807.16,-402.81"/>
</g>
<!-- sequence_data -->
<g id="node15" class="node">
<title>sequence_data</title>
<polygon fill="#94ddf4" stroke="black" points="2088,-998.06 2088,-1034.06 2210,-1034.06 2210,-998.06 2088,-998.06"/>
<text text-anchor="middle" x="2149" y="-1012.36" font-family="Times,serif" font-size="14.00">sequence_data</text>
</g>
<!-- sequence_data&#45;&gt;run_reheader_sequence_data_step -->
<g id="edge20" class="edge">
<title>sequence_data&#45;&gt;run_reheader_sequence_data_step</title>
<path fill="none" stroke="black" d="M2145.16,-998.03C2141.58,-960.57 2141.3,-870.73 2144.34,-825.32"/>
<polygon fill="black" stroke="black" points="2147.83,-825.55 2145.14,-815.31 2140.86,-825 2147.83,-825.55"/>
</g>
<!-- sequence_data&#45;&gt;run_reheader_sequence_data_step -->
<g id="edge21" class="edge">
<title>sequence_data&#45;&gt;run_reheader_sequence_data_step</title>
<path fill="none" stroke="black" d="M2152.84,-998.03C2156.42,-960.57 2156.7,-870.73 2153.66,-825.32"/>
<polygon fill="black" stroke="black" points="2157.14,-825 2152.86,-815.31 2150.17,-825.55 2157.14,-825"/>
</g>
<!-- sequence_data&#45;&gt;run_dragen_rna_pipeline_stage -->
<g id="edge19" class="edge">
<title>sequence_data&#45;&gt;run_dragen_rna_pipeline_stage</title>
<path fill="none" stroke="black" d="M2135.71,-997.82C2104.26,-957.5 2022,-854.69 1943,-778.56 1874.51,-712.55 1785.31,-644.8 1738.28,-610.31"/>
<polygon fill="black" stroke="black" points="1740.15,-607.34 1730.01,-604.27 1736.02,-612.99 1740.15,-607.34"/>
</g>
<!-- splice_variant_caller_options -->
<g id="node16" class="node">
<title>splice_variant_caller_options</title>
<polygon fill="#94ddf4" stroke="black" points="1141.5,-998.06 1141.5,-1034.06 1362.5,-1034.06 1362.5,-998.06 1141.5,-998.06"/>
<text text-anchor="middle" x="1252" y="-1012.36" font-family="Times,serif" font-size="14.00">splice_variant_caller_options</text>
</g>
<!-- splice_variant_caller_options&#45;&gt;run_dragen_rna_pipeline_stage -->
<g id="edge22" class="edge">
<title>splice_variant_caller_options&#45;&gt;run_dragen_rna_pipeline_stage</title>
<path fill="none" stroke="black" d="M1218.12,-998.06C1146.45,-959.86 991.13,-863.92 1055,-778.56 1118.14,-694.16 1411.07,-634.19 1581.7,-605.73"/>
<polygon fill="black" stroke="black" points="1582.46,-609.15 1591.75,-604.06 1581.31,-602.24 1582.46,-609.15"/>
</g>
<!-- alignment_options -->
<g id="node17" class="node">
<title>alignment_options</title>
<polygon fill="#94ddf4" stroke="black" points="1381,-998.06 1381,-1034.06 1529,-1034.06 1529,-998.06 1381,-998.06"/>
<text text-anchor="middle" x="1455" y="-1012.36" font-family="Times,serif" font-size="14.00">alignment_options</text>
</g>
<!-- alignment_options&#45;&gt;run_get_default_alignment_options_schema_step -->
<g id="edge23" class="edge">
<title>alignment_options&#45;&gt;run_get_default_alignment_options_schema_step</title>
<path fill="none" stroke="black" d="M1439.86,-998.03C1405.9,-959.86 1323.59,-867.3 1283.99,-822.78"/>
<polygon fill="black" stroke="black" points="1286.6,-820.45 1277.34,-815.31 1281.37,-825.1 1286.6,-820.45"/>
</g>
<!-- gene_expression_quantification_options -->
<g id="node18" class="node">
<title>gene_expression_quantification_options</title>
<polygon fill="#94ddf4" stroke="black" points="1770.5,-998.06 1770.5,-1034.06 2069.5,-1034.06 2069.5,-998.06 1770.5,-998.06"/>
<text text-anchor="middle" x="1920" y="-1012.36" font-family="Times,serif" font-size="14.00">gene_expression_quantification_options</text>
</g>
<!-- gene_expression_quantification_options&#45;&gt;run_get_default_variant_calling_options_schema_step -->
<g id="edge24" class="edge">
<title>gene_expression_quantification_options&#45;&gt;run_get_default_variant_calling_options_schema_step</title>
<path fill="none" stroke="black" d="M1903.21,-998.03C1865.48,-959.78 1773.91,-866.92 1730.11,-822.51"/>
<polygon fill="black" stroke="black" points="1732.52,-819.97 1723.01,-815.31 1727.54,-824.88 1732.52,-819.97"/>
</g>
<!-- snv_variant_caller_options -->
<g id="node19" class="node">
<title>snv_variant_caller_options</title>
<polygon fill="#94ddf4" stroke="black" points="1547.5,-998.06 1547.5,-1034.06 1752.5,-1034.06 1752.5,-998.06 1547.5,-998.06"/>
<text text-anchor="middle" x="1650" y="-1012.36" font-family="Times,serif" font-size="14.00">snv_variant_caller_options</text>
</g>
<!-- snv_variant_caller_options&#45;&gt;run_get_default_variant_calling_options_schema_step -->
<g id="edge25" class="edge">
<title>snv_variant_caller_options&#45;&gt;run_get_default_variant_calling_options_schema_step</title>
<path fill="none" stroke="black" d="M1654.39,-998.03C1664.08,-960.49 1687.34,-870.35 1699.04,-825.03"/>
<polygon fill="black" stroke="black" points="1702.44,-825.86 1701.55,-815.31 1695.66,-824.11 1702.44,-825.86"/>
</g>
</g>
</svg>
