<?xml version="1.0" encoding="UTF-8" standalone="no"?>
<!DOCTYPE svg PUBLIC "-//W3C//DTD SVG 1.1//EN"
 "http://www.w3.org/Graphics/SVG/1.1/DTD/svg11.dtd">
<!-- Generated by graphviz version 2.43.0 (0)
 -->
<!-- Title: G Pages: 1 -->
<svg width="1014pt" height="633pt"
 viewBox="0.00 0.00 1014.00 632.73" xmlns="http://www.w3.org/2000/svg" xmlns:xlink="http://www.w3.org/1999/xlink">
<g id="graph0" class="graph" transform="scale(1 1) rotate(0) translate(4 628.73)">
<title>G</title>
<polygon fill="#eeeeee" stroke="transparent" points="-4,4 -4,-628.73 1010,-628.73 1010,4 -4,4"/>
<g id="clust1" class="cluster">
<title>cluster_inputs</title>
<polygon fill="#eeeeee" stroke="black" stroke-dasharray="5,2" points="70,-526.27 70,-615.35 998,-615.35 998,-526.27 70,-526.27"/>
<text text-anchor="middle" x="931.5" y="-534.07" font-family="Times,serif" font-size="14.00">Workflow Inputs</text>
</g>
<g id="clust2" class="cluster">
<title>cluster_outputs</title>
<polygon fill="#eeeeee" stroke="black" stroke-dasharray="5,2" points="8,-9.38 8,-98.46 739,-98.46 739,-9.38 8,-9.38"/>
<text text-anchor="middle" x="666.5" y="-17.18" font-family="Times,serif" font-size="14.00">Workflow Outputs</text>
</g>
<!-- get_run_info_xml_file_from_reports_dir -->
<g id="node1" class="node">
<title>get_run_info_xml_file_from_reports_dir</title>
<polygon fill="lightgoldenrodyellow" stroke="black" points="179.5,-477.38 179.5,-513.38 412.5,-513.38 412.5,-477.38 179.5,-477.38"/>
<text text-anchor="middle" x="296" y="-491.68" font-family="Times,serif" font-size="14.00">get&#45;file&#45;from&#45;directory v(1.0.1)</text>
</g>
<!-- generate_interop_qc_step -->
<g id="node2" class="node">
<title>generate_interop_qc_step</title>
<polygon fill="lightgoldenrodyellow" stroke="black" points="279,-391.38 279,-427.38 469,-427.38 469,-391.38 279,-391.38"/>
<text text-anchor="middle" x="374" y="-405.68" font-family="Times,serif" font-size="14.00">illumina&#45;interop v(1.5.0)</text>
</g>
<!-- get_run_info_xml_file_from_reports_dir&#45;&gt;generate_interop_qc_step -->
<g id="edge1" class="edge">
<title>get_run_info_xml_file_from_reports_dir&#45;&gt;generate_interop_qc_step</title>
<path fill="none" stroke="black" d="M312.16,-476.97C323.43,-464.84 338.62,-448.48 351.12,-435.01"/>
<polygon fill="black" stroke="black" points="353.89,-437.18 358.13,-427.47 348.76,-432.42 353.89,-437.18"/>
</g>
<!-- run_multiqc_step -->
<g id="node3" class="node">
<title>run_multiqc_step</title>
<polygon fill="lightgoldenrodyellow" stroke="black" points="451.5,-306.38 451.5,-342.38 590.5,-342.38 590.5,-306.38 451.5,-306.38"/>
<text text-anchor="middle" x="521" y="-320.68" font-family="Times,serif" font-size="14.00">multiqc v(1.31.0)</text>
</g>
<!-- generate_interop_qc_step&#45;&gt;run_multiqc_step -->
<g id="edge4" class="edge">
<title>generate_interop_qc_step&#45;&gt;run_multiqc_step</title>
<path fill="none" stroke="black" d="M404.46,-391.18C426.9,-378.51 457.62,-361.16 481.88,-347.46"/>
<polygon fill="black" stroke="black" points="483.85,-350.37 490.83,-342.41 480.4,-344.28 483.85,-350.37"/>
</g>
<!-- interop_output_dir -->
<g id="node11" class="node">
<title>interop_output_dir</title>
<polygon fill="#94ddf4" stroke="black" points="15.5,-49.38 15.5,-85.38 164.5,-85.38 164.5,-49.38 15.5,-49.38"/>
<text text-anchor="middle" x="90" y="-63.68" font-family="Times,serif" font-size="14.00">interop_output_dir</text>
</g>
<!-- generate_interop_qc_step&#45;&gt;interop_output_dir -->
<g id="edge16" class="edge">
<title>generate_interop_qc_step&#45;&gt;interop_output_dir</title>
<path fill="none" stroke="black" d="M359.53,-391.05C312.81,-335.12 165.87,-159.21 110.97,-93.48"/>
<polygon fill="black" stroke="black" points="113.54,-91.1 104.44,-85.67 108.17,-95.59 113.54,-91.1"/>
</g>
<!-- generate_qc_csv_step -->
<g id="node4" class="node">
<title>generate_qc_csv_step</title>
<polygon fill="lightgoldenrodyellow" stroke="black" points="325.5,-220.38 325.5,-256.38 782.5,-256.38 782.5,-220.38 325.5,-220.38"/>
<text text-anchor="middle" x="554" y="-234.68" font-family="Times,serif" font-size="14.00">custom&#45;convert&#45;multiqc&#45;json&#45;data&#45;to&#45;qlims&#45;import&#45;csv v(1.0.0)</text>
</g>
<!-- run_multiqc_step&#45;&gt;generate_qc_csv_step -->
<g id="edge2" class="edge">
<title>run_multiqc_step&#45;&gt;generate_qc_csv_step</title>
<path fill="none" stroke="black" d="M527.84,-305.97C532.38,-294.41 538.43,-279 543.57,-265.92"/>
<polygon fill="black" stroke="black" points="546.89,-267.06 547.28,-256.47 540.37,-264.5 546.89,-267.06"/>
</g>
<!-- multiqc_html_report -->
<g id="node12" class="node">
<title>multiqc_html_report</title>
<polygon fill="#94ddf4" stroke="black" points="353,-49.38 353,-85.38 515,-85.38 515,-49.38 353,-49.38"/>
<text text-anchor="middle" x="434" y="-63.68" font-family="Times,serif" font-size="14.00">multiqc_html_report</text>
</g>
<!-- run_multiqc_step&#45;&gt;multiqc_html_report -->
<g id="edge17" class="edge">
<title>run_multiqc_step&#45;&gt;multiqc_html_report</title>
<path fill="none" stroke="black" d="M451.17,-320.66C404.94,-314.79 347.41,-298.78 317,-256.88 275.59,-199.83 353.18,-128.01 400.79,-91.7"/>
<polygon fill="black" stroke="black" points="403.1,-94.34 409.01,-85.55 398.91,-88.74 403.1,-94.34"/>
</g>
<!-- multiqc_output_dir -->
<g id="node13" class="node">
<title>multiqc_output_dir</title>
<polygon fill="#94ddf4" stroke="black" points="183,-49.38 183,-85.38 335,-85.38 335,-49.38 183,-49.38"/>
<text text-anchor="middle" x="259" y="-63.68" font-family="Times,serif" font-size="14.00">multiqc_output_dir</text>
</g>
<!-- run_multiqc_step&#45;&gt;multiqc_output_dir -->
<g id="edge18" class="edge">
<title>run_multiqc_step&#45;&gt;multiqc_output_dir</title>
<path fill="none" stroke="black" d="M451.39,-320.2C402.57,-314.21 339.41,-298.26 301,-256.88 259.63,-212.31 255.8,-136.28 257.08,-95.73"/>
<polygon fill="black" stroke="black" points="260.58,-95.67 257.54,-85.53 253.59,-95.36 260.58,-95.67"/>
</g>
<!-- rename_qc_csv_step -->
<g id="node5" class="node">
<title>rename_qc_csv_step</title>
<polygon fill="lightgoldenrodyellow" stroke="black" points="558.5,-135.38 558.5,-171.38 705.5,-171.38 705.5,-135.38 558.5,-135.38"/>
<text text-anchor="middle" x="632" y="-149.68" font-family="Times,serif" font-size="14.00">create&#45;file v(1.0.0)</text>
</g>
<!-- generate_qc_csv_step&#45;&gt;rename_qc_csv_step -->
<g id="edge3" class="edge">
<title>generate_qc_csv_step&#45;&gt;rename_qc_csv_step</title>
<path fill="none" stroke="black" d="M570.16,-220.18C581.35,-208.27 596.42,-192.24 608.87,-178.99"/>
<polygon fill="black" stroke="black" points="611.56,-181.24 615.86,-171.55 606.46,-176.44 611.56,-181.24"/>
</g>
<!-- multiqc_qlims_csv_report -->
<g id="node14" class="node">
<title>multiqc_qlims_csv_report</title>
<polygon fill="#94ddf4" stroke="black" points="533,-49.38 533,-85.38 731,-85.38 731,-49.38 533,-49.38"/>
<text text-anchor="middle" x="632" y="-63.68" font-family="Times,serif" font-size="14.00">multiqc_qlims_csv_report</text>
</g>
<!-- rename_qc_csv_step&#45;&gt;multiqc_qlims_csv_report -->
<g id="edge19" class="edge">
<title>rename_qc_csv_step&#45;&gt;multiqc_qlims_csv_report</title>
<path fill="none" stroke="black" d="M632,-134.97C632,-123.63 632,-108.6 632,-95.69"/>
<polygon fill="black" stroke="black" points="635.5,-95.47 632,-85.47 628.5,-95.47 635.5,-95.47"/>
</g>
<!-- instrument_run_id -->
<g id="node6" class="node">
<title>instrument_run_id</title>
<polygon fill="#94ddf4" stroke="black" points="470,-566.38 470,-602.38 618,-602.38 618,-566.38 470,-566.38"/>
<text text-anchor="middle" x="544" y="-580.68" font-family="Times,serif" font-size="14.00">instrument_run_id</text>
</g>
<!-- instrument_run_id&#45;&gt;generate_interop_qc_step -->
<g id="edge5" class="edge">
<title>instrument_run_id&#45;&gt;generate_interop_qc_step</title>
<path fill="none" stroke="black" d="M522.83,-566.16C489.43,-535.33 425.62,-470.62 393.37,-435.07"/>
<polygon fill="black" stroke="black" points="395.9,-432.64 386.62,-427.53 390.68,-437.31 395.9,-432.64"/>
</g>
<!-- instrument_run_id&#45;&gt;generate_interop_qc_step -->
<g id="edge6" class="edge">
<title>instrument_run_id&#45;&gt;generate_interop_qc_step</title>
<path fill="none" stroke="black" d="M531.32,-566.16C504.02,-535.2 440.23,-470.07 402.68,-434.62"/>
<polygon fill="black" stroke="black" points="404.79,-431.8 395.09,-427.53 400.01,-436.91 404.79,-431.8"/>
</g>
<!-- instrument_run_id&#45;&gt;run_multiqc_step -->
<g id="edge9" class="edge">
<title>instrument_run_id&#45;&gt;run_multiqc_step</title>
<path fill="none" stroke="black" d="M538.86,-566.05C531,-522.08 520.39,-405.89 519.08,-352.69"/>
<polygon fill="black" stroke="black" points="522.58,-352.58 518.95,-342.63 515.58,-352.68 522.58,-352.58"/>
</g>
<!-- instrument_run_id&#45;&gt;run_multiqc_step -->
<g id="edge10" class="edge">
<title>instrument_run_id&#45;&gt;run_multiqc_step</title>
<path fill="none" stroke="black" d="M546.05,-566.05C546.07,-522.08 535.96,-405.89 527.79,-352.69"/>
<polygon fill="black" stroke="black" points="531.21,-351.93 526.13,-342.63 524.3,-353.07 531.21,-351.93"/>
</g>
<!-- instrument_run_id&#45;&gt;generate_qc_csv_step -->
<g id="edge7" class="edge">
<title>instrument_run_id&#45;&gt;generate_qc_csv_step</title>
<path fill="none" stroke="black" d="M553.36,-566.18C576.05,-522.14 630.02,-402.05 600,-305.88 595.29,-290.78 585.81,-276.09 576.68,-264.38"/>
<polygon fill="black" stroke="black" points="579.21,-261.93 570.17,-256.41 573.79,-266.37 579.21,-261.93"/>
</g>
<!-- instrument_run_id&#45;&gt;rename_qc_csv_step -->
<g id="edge8" class="edge">
<title>instrument_run_id&#45;&gt;rename_qc_csv_step</title>
<path fill="none" stroke="black" d="M573.08,-566.31C642.28,-525.46 811,-424.43 811,-410.38 811,-410.38 811,-410.38 811,-323.38 811,-276.61 821.48,-256.19 792,-219.88 772.71,-196.11 743.4,-180.89 715.11,-171.17"/>
<polygon fill="black" stroke="black" points="716.17,-167.83 705.58,-168.08 714.01,-174.49 716.17,-167.83"/>
</g>
<!-- interop_directory -->
<g id="node7" class="node">
<title>interop_directory</title>
<polygon fill="#94ddf4" stroke="black" points="78,-566.38 78,-602.38 218,-602.38 218,-566.38 78,-566.38"/>
<text text-anchor="middle" x="148" y="-580.68" font-family="Times,serif" font-size="14.00">interop_directory</text>
</g>
<!-- interop_directory&#45;&gt;generate_interop_qc_step -->
<g id="edge11" class="edge">
<title>interop_directory&#45;&gt;generate_interop_qc_step</title>
<path fill="none" stroke="black" d="M146.82,-566.32C146.17,-543.14 148.59,-501.75 171,-476.88 196.19,-448.92 233.3,-432.68 268.92,-423.26"/>
<polygon fill="black" stroke="black" points="270.06,-426.59 278.92,-420.78 268.37,-419.79 270.06,-426.59"/>
</g>
<!-- bclconvert_report_directory -->
<g id="node8" class="node">
<title>bclconvert_report_directory</title>
<polygon fill="#94ddf4" stroke="black" points="236.5,-566.38 236.5,-602.38 451.5,-602.38 451.5,-566.38 236.5,-566.38"/>
<text text-anchor="middle" x="344" y="-580.68" font-family="Times,serif" font-size="14.00">bclconvert_report_directory</text>
</g>
<!-- bclconvert_report_directory&#45;&gt;get_run_info_xml_file_from_reports_dir -->
<g id="edge12" class="edge">
<title>bclconvert_report_directory&#45;&gt;get_run_info_xml_file_from_reports_dir</title>
<path fill="none" stroke="black" d="M334.52,-566.19C327.61,-553.68 318.14,-536.51 310.32,-522.34"/>
<polygon fill="black" stroke="black" points="313.36,-520.59 305.46,-513.53 307.23,-523.98 313.36,-520.59"/>
</g>
<!-- bclconvert_report_directory&#45;&gt;run_multiqc_step -->
<g id="edge13" class="edge">
<title>bclconvert_report_directory&#45;&gt;run_multiqc_step</title>
<path fill="none" stroke="black" d="M366.29,-566.2C382.74,-552.93 405.09,-533.54 422,-513.88 451.73,-479.29 456.65,-468.18 478,-427.88 491.2,-402.96 503.34,-373.1 511.33,-352.06"/>
<polygon fill="black" stroke="black" points="514.68,-353.09 514.9,-342.49 508.12,-350.63 514.68,-353.09"/>
</g>
<!-- additional_parquet_files -->
<g id="node9" class="node">
<title>additional_parquet_files</title>
<polygon fill="#94ddf4" stroke="black" points="636.5,-566.38 636.5,-602.38 823.5,-602.38 823.5,-566.38 636.5,-566.38"/>
<text text-anchor="middle" x="730" y="-580.68" font-family="Times,serif" font-size="14.00">additional_parquet_files</text>
</g>
<!-- additional_parquet_files&#45;&gt;run_multiqc_step -->
<g id="edge14" class="edge">
<title>additional_parquet_files&#45;&gt;run_multiqc_step</title>
<path fill="none" stroke="black" d="M715.96,-566.05C679.9,-521.53 583.86,-402.97 541.53,-350.72"/>
<polygon fill="black" stroke="black" points="543.99,-348.2 534.98,-342.63 538.55,-352.6 543.99,-348.2"/>
</g>
<!-- sample_names_tsv -->
<g id="node10" class="node">
<title>sample_names_tsv</title>
<polygon fill="#94ddf4" stroke="black" points="841.5,-566.38 841.5,-602.38 990.5,-602.38 990.5,-566.38 841.5,-566.38"/>
<text text-anchor="middle" x="916" y="-580.68" font-family="Times,serif" font-size="14.00">sample_names_tsv</text>
</g>
<!-- sample_names_tsv&#45;&gt;run_multiqc_step -->
<g id="edge15" class="edge">
<title>sample_names_tsv&#45;&gt;run_multiqc_step</title>
<path fill="none" stroke="black" d="M889.78,-566.25C820.67,-521.11 633.57,-398.9 555.71,-348.05"/>
<polygon fill="black" stroke="black" points="557.5,-345.04 547.21,-342.5 553.67,-350.9 557.5,-345.04"/>
</g>
</g>
</svg>
