<?xml version="1.0" encoding="UTF-8" standalone="no"?>
<!DOCTYPE svg PUBLIC "-//W3C//DTD SVG 1.1//EN"
 "http://www.w3.org/Graphics/SVG/1.1/DTD/svg11.dtd">
<!-- Generated by graphviz version 2.43.0 (0)
 -->
<!-- Title: G Pages: 1 -->
<svg width="1767pt" height="854pt"
 viewBox="0.00 0.00 1767.00 854.08" xmlns="http://www.w3.org/2000/svg" xmlns:xlink="http://www.w3.org/1999/xlink">
<g id="graph0" class="graph" transform="scale(1 1) rotate(0) translate(4 850.08)">
<title>G</title>
<polygon fill="#eeeeee" stroke="transparent" points="-4,4 -4,-850.08 1763,-850.08 1763,4 -4,4"/>
<g id="clust1" class="cluster">
<title>cluster_inputs</title>
<polygon fill="#eeeeee" stroke="black" stroke-dasharray="5,2" points="8,-662.62 8,-828.81 1751,-828.81 1751,-662.62 8,-662.62"/>
<text text-anchor="middle" x="1684.5" y="-670.42" font-family="Times,serif" font-size="14.00">Workflow Inputs</text>
</g>
<g id="clust2" class="cluster">
<title>cluster_outputs</title>
<polygon fill="#eeeeee" stroke="black" stroke-dasharray="5,2" points="1048,-17.27 1048,-183.46 1272,-183.46 1272,-17.27 1048,-17.27"/>
<text text-anchor="middle" x="1199.5" y="-25.07" font-family="Times,serif" font-size="14.00">Workflow Outputs</text>
</g>
<!-- file:///tmp/tmpoil6o2bo#fastq_list_rows_germline -->
<g id="node1" class="node">
<title>file:///tmp/tmpoil6o2bo#fastq_list_rows_germline</title>
<g id="a_node1"><a xlink:title="The row of fastq lists.&#10;Each row has the following attributes:&#10; &#160;* RGID&#10; &#160;* RGLB&#10; &#160;* RGSM&#10; &#160;* Lane&#10; &#160;* Read1File&#10; &#160;* Read2File (optional)&#10;">
<polygon fill="#94ddf4" stroke="black" points="672,-751.77 672,-788.77 866,-788.77 866,-751.77 672,-751.77"/>
<text text-anchor="middle" x="769" y="-766.57" font-family="Times,serif" font-size="14.00">fastq_list_rows_germline</text>
</a>
</g>
</g>
<!-- file:///tmp/tmpoil6o2bo#run_dragen_germline_pipeline_step -->
<g id="node10" class="node">
<title>file:///tmp/tmpoil6o2bo#run_dragen_germline_pipeline_step</title>
<g id="a_node10"><a xlink:href="https://github.com/umccr/cwl-ica/blob/main/.github/catalogue/docs/workflows/dragen-germline-pipeline/3.9.3/dragen-germline-pipeline__3.9.3.md" xlink:title="Run the dragen germline workflow against the normal fastq.&#10;">
<polygon fill="#ee7ae9" stroke="black" points="434,-585.77 434,-622.77 690,-622.77 690,-585.77 434,-585.77"/>
<text text-anchor="middle" x="562" y="-600.57" font-family="Times,serif" font-size="14.00">dragen&#45;germline&#45;pipeline v(3.9.3)</text>
</a>
</g>
</g>
<!-- file:///tmp/tmpoil6o2bo#fastq_list_rows_germline&#45;&gt;file:///tmp/tmpoil6o2bo#run_dragen_germline_pipeline_step -->
<g id="edge5" class="edge">
<title>file:///tmp/tmpoil6o2bo#fastq_list_rows_germline&#45;&gt;file:///tmp/tmpoil6o2bo#run_dragen_germline_pipeline_step</title>
<path fill="none" stroke="black" d="M746.85,-751.72C709.59,-722.2 634.36,-662.59 592.26,-629.24"/>
<polygon fill="black" stroke="black" points="594.32,-626.41 584.31,-622.94 589.97,-631.89 594.32,-626.41"/>
</g>
<!-- file:///tmp/tmpoil6o2bo#run_umccrise_pipeline_step -->
<g id="node11" class="node">
<title>file:///tmp/tmpoil6o2bo#run_umccrise_pipeline_step</title>
<g id="a_node11"><a xlink:href="https://github.com/umccr/cwl-ica/blob/main/.github/catalogue/docs/tools/umccrise/2.0.0--0/umccrise__2.0.0--0.md" xlink:title="Run the umccrise pipeline using the input somatic directory and output from the dragen germline step&#10;">
<polygon fill="lightgoldenrodyellow" stroke="black" points="1081,-266.77 1081,-303.77 1239,-303.77 1239,-266.77 1081,-266.77"/>
<text text-anchor="middle" x="1160" y="-281.57" font-family="Times,serif" font-size="14.00">umccrise v(2.0.0&#45;&#45;0)</text>
</a>
</g>
</g>
<!-- file:///tmp/tmpoil6o2bo#fastq_list_rows_germline&#45;&gt;file:///tmp/tmpoil6o2bo#run_umccrise_pipeline_step -->
<g id="edge6" class="edge">
<title>file:///tmp/tmpoil6o2bo#fastq_list_rows_germline&#45;&gt;file:///tmp/tmpoil6o2bo#run_umccrise_pipeline_step</title>
<path fill="none" stroke="black" d="M783.38,-751.5C842.78,-678.13 1069.2,-398.43 1139.23,-311.92"/>
<polygon fill="black" stroke="black" points="1142.12,-313.91 1145.7,-303.94 1136.68,-309.51 1142.12,-313.91"/>
</g>
<!-- file:///tmp/tmpoil6o2bo#output_directory_germline -->
<g id="node2" class="node">
<title>file:///tmp/tmpoil6o2bo#output_directory_germline</title>
<g id="a_node2"><a xlink:title="The directory where all output files are placed&#10;">
<polygon fill="#94ddf4" stroke="black" points="246,-751.77 246,-788.77 452,-788.77 452,-751.77 246,-751.77"/>
<text text-anchor="middle" x="349" y="-766.57" font-family="Times,serif" font-size="14.00">output_directory_germline</text>
</a>
</g>
</g>
<!-- file:///tmp/tmpoil6o2bo#output_directory_germline&#45;&gt;file:///tmp/tmpoil6o2bo#run_dragen_germline_pipeline_step -->
<g id="edge7" class="edge">
<title>file:///tmp/tmpoil6o2bo#output_directory_germline&#45;&gt;file:///tmp/tmpoil6o2bo#run_dragen_germline_pipeline_step</title>
<path fill="none" stroke="black" d="M371.79,-751.72C410.13,-722.2 487.55,-662.59 530.86,-629.24"/>
<polygon fill="black" stroke="black" points="533.26,-631.81 539.05,-622.94 528.99,-626.27 533.26,-631.81"/>
</g>
<!-- file:///tmp/tmpoil6o2bo#output_file_prefix_germline -->
<g id="node3" class="node">
<title>file:///tmp/tmpoil6o2bo#output_file_prefix_germline</title>
<g id="a_node3"><a xlink:title="The prefix given to all output files&#10;">
<polygon fill="#94ddf4" stroke="black" points="16.5,-751.77 16.5,-788.77 227.5,-788.77 227.5,-751.77 16.5,-751.77"/>
<text text-anchor="middle" x="122" y="-766.57" font-family="Times,serif" font-size="14.00">output_file_prefix_germline</text>
</a>
</g>
</g>
<!-- file:///tmp/tmpoil6o2bo#output_file_prefix_germline&#45;&gt;file:///tmp/tmpoil6o2bo#run_dragen_germline_pipeline_step -->
<g id="edge8" class="edge">
<title>file:///tmp/tmpoil6o2bo#output_file_prefix_germline&#45;&gt;file:///tmp/tmpoil6o2bo#run_dragen_germline_pipeline_step</title>
<path fill="none" stroke="black" d="M161.4,-751.76C183.49,-742.12 211.62,-730.15 237,-720.27 327.45,-685.04 433.72,-648.29 499.48,-626.09"/>
<polygon fill="black" stroke="black" points="500.92,-629.3 509.28,-622.79 498.68,-622.66 500.92,-629.3"/>
</g>
<!-- file:///tmp/tmpoil6o2bo#reference_tar_umccrise -->
<g id="node4" class="node">
<title>file:///tmp/tmpoil6o2bo#reference_tar_umccrise</title>
<g id="a_node4"><a xlink:title="The reference tar ball for umccrise&#10;">
<polygon fill="#94ddf4" stroke="black" points="884,-751.77 884,-788.77 1068,-788.77 1068,-751.77 884,-751.77"/>
<text text-anchor="middle" x="976" y="-766.57" font-family="Times,serif" font-size="14.00">reference_tar_umccrise</text>
</a>
</g>
</g>
<!-- file:///tmp/tmpoil6o2bo#reference_tar_umccrise&#45;&gt;file:///tmp/tmpoil6o2bo#run_umccrise_pipeline_step -->
<g id="edge9" class="edge">
<title>file:///tmp/tmpoil6o2bo#reference_tar_umccrise&#45;&gt;file:///tmp/tmpoil6o2bo#run_umccrise_pipeline_step</title>
<path fill="none" stroke="black" d="M982.77,-751.5C1010.55,-678.57 1115.98,-401.81 1149.62,-313.51"/>
<polygon fill="black" stroke="black" points="1152.98,-314.53 1153.27,-303.94 1146.44,-312.03 1152.98,-314.53"/>
</g>
<!-- file:///tmp/tmpoil6o2bo#reference_tar_germline -->
<g id="node5" class="node">
<title>file:///tmp/tmpoil6o2bo#reference_tar_germline</title>
<g id="a_node5"><a xlink:title="Path to ref data tarball&#10;">
<polygon fill="#94ddf4" stroke="black" points="470.5,-751.77 470.5,-788.77 653.5,-788.77 653.5,-751.77 470.5,-751.77"/>
<text text-anchor="middle" x="562" y="-766.57" font-family="Times,serif" font-size="14.00">reference_tar_germline</text>
</a>
</g>
</g>
<!-- file:///tmp/tmpoil6o2bo#reference_tar_germline&#45;&gt;file:///tmp/tmpoil6o2bo#run_dragen_germline_pipeline_step -->
<g id="edge10" class="edge">
<title>file:///tmp/tmpoil6o2bo#reference_tar_germline&#45;&gt;file:///tmp/tmpoil6o2bo#run_dragen_germline_pipeline_step</title>
<path fill="none" stroke="black" d="M562,-751.72C562,-723.38 562,-667.32 562,-633.37"/>
<polygon fill="black" stroke="black" points="565.5,-633.19 562,-623.19 558.5,-633.19 565.5,-633.19"/>
</g>
<!-- file:///tmp/tmpoil6o2bo#subject_identifier_umccrise -->
<g id="node6" class="node">
<title>file:///tmp/tmpoil6o2bo#subject_identifier_umccrise</title>
<g id="a_node6"><a xlink:title="The subject identifier for umccrise to use on output files&#10;">
<polygon fill="#94ddf4" stroke="black" points="1086,-751.77 1086,-788.77 1298,-788.77 1298,-751.77 1086,-751.77"/>
<text text-anchor="middle" x="1192" y="-766.57" font-family="Times,serif" font-size="14.00">subject_identifier_umccrise</text>
</a>
</g>
</g>
<!-- file:///tmp/tmpoil6o2bo#subject_identifier_umccrise&#45;&gt;file:///tmp/tmpoil6o2bo#run_umccrise_pipeline_step -->
<g id="edge11" class="edge">
<title>file:///tmp/tmpoil6o2bo#subject_identifier_umccrise&#45;&gt;file:///tmp/tmpoil6o2bo#run_umccrise_pipeline_step</title>
<path fill="none" stroke="black" d="M1190.82,-751.5C1186,-678.72 1167.73,-402.93 1161.84,-314.05"/>
<polygon fill="black" stroke="black" points="1165.32,-313.68 1161.17,-303.94 1158.34,-314.15 1165.32,-313.68"/>
</g>
<!-- file:///tmp/tmpoil6o2bo#dragen_somatic_directory -->
<g id="node7" class="node">
<title>file:///tmp/tmpoil6o2bo#dragen_somatic_directory</title>
<g id="a_node7"><a xlink:title="The output from the dragen somatic workflow&#10;">
<polygon fill="#94ddf4" stroke="black" points="1316.5,-751.77 1316.5,-788.77 1517.5,-788.77 1517.5,-751.77 1316.5,-751.77"/>
<text text-anchor="middle" x="1417" y="-766.57" font-family="Times,serif" font-size="14.00">dragen_somatic_directory</text>
</a>
</g>
</g>
<!-- file:///tmp/tmpoil6o2bo#dragen_somatic_directory&#45;&gt;file:///tmp/tmpoil6o2bo#run_umccrise_pipeline_step -->
<g id="edge12" class="edge">
<title>file:///tmp/tmpoil6o2bo#dragen_somatic_directory&#45;&gt;file:///tmp/tmpoil6o2bo#run_umccrise_pipeline_step</title>
<path fill="none" stroke="black" d="M1399.1,-751.65C1373.14,-725.41 1324.57,-673.73 1292,-623.27 1224.33,-518.43 1182.22,-373.46 1166.73,-313.7"/>
<polygon fill="black" stroke="black" points="1170.09,-312.71 1164.23,-303.89 1163.31,-314.44 1170.09,-312.71"/>
</g>
<!-- file:///tmp/tmpoil6o2bo#get_tumor_bam_file_from_somatic_directory -->
<g id="node13" class="node">
<title>file:///tmp/tmpoil6o2bo#get_tumor_bam_file_from_somatic_directory</title>
<g id="a_node13"><a xlink:href="https://github.com/umccr/cwl-ica/blob/main/.github/catalogue/docs/expressions/get-file-from-directory-with-regex/1.0.0/get-file-from-directory-with-regex__1.0.0.md" xlink:title="Get the tumor bam file from the dragen somatic directory&#10;(so we can then in turn get the sample name value from the bam header)&#10;">
<polygon fill="#ee9a00" stroke="black" points="1300.5,-585.77 1300.5,-622.77 1533.5,-622.77 1533.5,-585.77 1300.5,-585.77"/>
<text text-anchor="middle" x="1417" y="-600.57" font-family="Times,serif" font-size="14.00">get&#45;file&#45;from&#45;directory v(1.0.0)</text>
</a>
</g>
</g>
<!-- file:///tmp/tmpoil6o2bo#dragen_somatic_directory&#45;&gt;file:///tmp/tmpoil6o2bo#get_tumor_bam_file_from_somatic_directory -->
<g id="edge13" class="edge">
<title>file:///tmp/tmpoil6o2bo#dragen_somatic_directory&#45;&gt;file:///tmp/tmpoil6o2bo#get_tumor_bam_file_from_somatic_directory</title>
<path fill="none" stroke="black" d="M1417,-751.72C1417,-723.38 1417,-667.32 1417,-633.37"/>
<polygon fill="black" stroke="black" points="1420.5,-633.19 1417,-623.19 1413.5,-633.19 1420.5,-633.19"/>
</g>
<!-- file:///tmp/tmpoil6o2bo#output_directory_umccrise -->
<g id="node8" class="node">
<title>file:///tmp/tmpoil6o2bo#output_directory_umccrise</title>
<g id="a_node8"><a xlink:title="The name of the output directory used for umccrise step&#10;">
<polygon fill="#94ddf4" stroke="black" points="1535.5,-751.77 1535.5,-788.77 1742.5,-788.77 1742.5,-751.77 1535.5,-751.77"/>
<text text-anchor="middle" x="1639" y="-766.57" font-family="Times,serif" font-size="14.00">output_directory_umccrise</text>
</a>
</g>
</g>
<!-- file:///tmp/tmpoil6o2bo#output_directory_umccrise&#45;&gt;file:///tmp/tmpoil6o2bo#run_umccrise_pipeline_step -->
<g id="edge14" class="edge">
<title>file:///tmp/tmpoil6o2bo#output_directory_umccrise&#45;&gt;file:///tmp/tmpoil6o2bo#run_umccrise_pipeline_step</title>
<path fill="none" stroke="black" d="M1644.15,-751.48C1658.99,-696.18 1695.94,-524.97 1617,-425.27 1571.25,-367.48 1368.7,-322.93 1249.16,-301.09"/>
<polygon fill="black" stroke="black" points="1249.74,-297.64 1239.28,-299.3 1248.5,-304.53 1249.74,-297.64"/>
</g>
<!-- file:///tmp/tmpoil6o2bo#umccrise_output_directory -->
<g id="node9" class="node">
<title>file:///tmp/tmpoil6o2bo#umccrise_output_directory</title>
<g id="a_node9"><a xlink:title="The output directory containing all umccrise output files&#10;">
<polygon fill="#94ddf4" stroke="black" points="1056.5,-106.77 1056.5,-143.77 1263.5,-143.77 1263.5,-106.77 1056.5,-106.77"/>
<text text-anchor="middle" x="1160" y="-121.57" font-family="Times,serif" font-size="14.00">umccrise_output_directory</text>
</a>
</g>
</g>
<!-- file:///tmp/tmpoil6o2bo#run_dragen_germline_pipeline_step&#45;&gt;file:///tmp/tmpoil6o2bo#run_umccrise_pipeline_step -->
<g id="edge1" class="edge">
<title>file:///tmp/tmpoil6o2bo#run_dragen_germline_pipeline_step&#45;&gt;file:///tmp/tmpoil6o2bo#run_umccrise_pipeline_step</title>
<path fill="none" stroke="black" d="M586.38,-585.66C633.65,-551.99 741.65,-477.18 839,-425.27 928.71,-377.43 1038.36,-332.72 1103.51,-307.5"/>
<polygon fill="black" stroke="black" points="1105.11,-310.63 1113.18,-303.77 1102.59,-304.1 1105.11,-310.63"/>
</g>
<!-- file:///tmp/tmpoil6o2bo#run_umccrise_pipeline_step&#45;&gt;file:///tmp/tmpoil6o2bo#umccrise_output_directory -->
<g id="edge2" class="edge">
<title>file:///tmp/tmpoil6o2bo#run_umccrise_pipeline_step&#45;&gt;file:///tmp/tmpoil6o2bo#umccrise_output_directory</title>
<path fill="none" stroke="black" d="M1160,-266.75C1160,-239.47 1160,-186.57 1160,-154.04"/>
<polygon fill="black" stroke="black" points="1163.5,-153.86 1160,-143.86 1156.5,-153.86 1163.5,-153.86"/>
</g>
<!-- file:///tmp/tmpoil6o2bo#get_tumor_name_from_bam_header -->
<g id="node12" class="node">
<title>file:///tmp/tmpoil6o2bo#get_tumor_name_from_bam_header</title>
<g id="a_node12"><a xlink:href="https://github.com/umccr/cwl-ica/blob/main/.github/catalogue/docs/tools/custom-get-sample-name-from-bam-header/1.0.0/custom-get-sample-name-from-bam-header__1.0.0.md" xlink:title="Get the tumor name from the bam header.&#10;">
<polygon fill="lightgoldenrodyellow" stroke="black" points="1226,-425.77 1226,-462.77 1608,-462.77 1608,-425.77 1226,-425.77"/>
<text text-anchor="middle" x="1417" y="-440.57" font-family="Times,serif" font-size="14.00">custom&#45;get&#45;sample&#45;name&#45;from&#45;bam&#45;header v(1.0.0)</text>
</a>
</g>
</g>
<!-- file:///tmp/tmpoil6o2bo#get_tumor_name_from_bam_header&#45;&gt;file:///tmp/tmpoil6o2bo#run_umccrise_pipeline_step -->
<g id="edge3" class="edge">
<title>file:///tmp/tmpoil6o2bo#get_tumor_name_from_bam_header&#45;&gt;file:///tmp/tmpoil6o2bo#run_umccrise_pipeline_step</title>
<path fill="none" stroke="black" d="M1388.02,-425.56C1341.23,-396.98 1249.1,-340.7 1197.42,-309.13"/>
<polygon fill="black" stroke="black" points="1199.23,-306.13 1188.88,-303.91 1195.58,-312.11 1199.23,-306.13"/>
</g>
<!-- file:///tmp/tmpoil6o2bo#get_tumor_bam_file_from_somatic_directory&#45;&gt;file:///tmp/tmpoil6o2bo#get_tumor_name_from_bam_header -->
<g id="edge4" class="edge">
<title>file:///tmp/tmpoil6o2bo#get_tumor_bam_file_from_somatic_directory&#45;&gt;file:///tmp/tmpoil6o2bo#get_tumor_name_from_bam_header</title>
<path fill="none" stroke="black" d="M1417,-585.75C1417,-558.47 1417,-505.57 1417,-473.04"/>
<polygon fill="black" stroke="black" points="1420.5,-472.86 1417,-462.86 1413.5,-472.86 1420.5,-472.86"/>
</g>
</g>
</svg>
