<?xml version="1.0" encoding="UTF-8" standalone="no"?>
<!DOCTYPE svg PUBLIC "-//W3C//DTD SVG 1.1//EN"
 "http://www.w3.org/Graphics/SVG/1.1/DTD/svg11.dtd">
<!-- Generated by graphviz version 2.43.0 (0)
 -->
<!-- Title: G Pages: 1 -->
<svg width="1767pt" height="854pt"
 viewBox="0.00 0.00 1767.00 854.08" xmlns="http://www.w3.org/2000/svg" xmlns:xlink="http://www.w3.org/1999/xlink">
<g id="graph0" class="graph" transform="scale(1 1) rotate(0) translate(4 850.08)">
<title>G</title>
<polygon fill="#eeeeee" stroke="transparent" points="-4,4 -4,-850.08 1763,-850.08 1763,4 -4,4"/>
<g id="clust1" class="cluster">
<title>cluster_inputs</title>
<polygon fill="#eeeeee" stroke="black" stroke-dasharray="5,2" points="8,-662.62 8,-828.81 1751,-828.81 1751,-662.62 8,-662.62"/>
<text text-anchor="middle" x="1684.5" y="-670.42" font-family="Times,serif" font-size="14.00">Workflow Inputs</text>
</g>
<g id="clust2" class="cluster">
<title>cluster_outputs</title>
<polygon fill="#eeeeee" stroke="black" stroke-dasharray="5,2" points="861,-17.27 861,-183.46 1085,-183.46 1085,-17.27 861,-17.27"/>
<text text-anchor="middle" x="1012.5" y="-25.07" font-family="Times,serif" font-size="14.00">Workflow Outputs</text>
</g>
<!-- file:///tmp/tmp8lkjsi33#reference_tar_umccrise -->
<g id="node1" class="node">
<title>file:///tmp/tmp8lkjsi33#reference_tar_umccrise</title>
<g id="a_node1"><a xlink:title="The reference tar ball for umccrise&#10;">
<polygon fill="#94ddf4" stroke="black" points="16,-751.77 16,-788.77 200,-788.77 200,-751.77 16,-751.77"/>
<text text-anchor="middle" x="108" y="-766.57" font-family="Times,serif" font-size="14.00">reference_tar_umccrise</text>
</a>
</g>
</g>
<!-- file:///tmp/tmp8lkjsi33#run_umccrise_pipeline_step -->
<g id="node11" class="node">
<title>file:///tmp/tmp8lkjsi33#run_umccrise_pipeline_step</title>
<g id="a_node11"><a xlink:href="https://github.com/umccr/cwl-ica/blob/main/.github/catalogue/docs/tools/umccrise/2.0.0--0/umccrise__2.0.0--0.md" xlink:title="Run the umccrise pipeline using the input somatic directory and output from the dragen germline step&#10;">
<polygon fill="lightgoldenrodyellow" stroke="black" points="894,-266.77 894,-303.77 1052,-303.77 1052,-266.77 894,-266.77"/>
<text text-anchor="middle" x="973" y="-281.57" font-family="Times,serif" font-size="14.00">umccrise v(2.0.0&#45;&#45;0)</text>
</a>
</g>
</g>
<!-- file:///tmp/tmp8lkjsi33#reference_tar_umccrise&#45;&gt;file:///tmp/tmp8lkjsi33#run_umccrise_pipeline_step -->
<g id="edge5" class="edge">
<title>file:///tmp/tmp8lkjsi33#reference_tar_umccrise&#45;&gt;file:///tmp/tmp8lkjsi33#run_umccrise_pipeline_step</title>
<path fill="none" stroke="black" d="M139.55,-751.65C272.14,-677.61 784.12,-391.74 932.49,-308.89"/>
<polygon fill="black" stroke="black" points="934.3,-311.89 941.32,-303.95 930.89,-305.77 934.3,-311.89"/>
</g>
<!-- file:///tmp/tmp8lkjsi33#fastq_list_rows_germline -->
<g id="node2" class="node">
<title>file:///tmp/tmp8lkjsi33#fastq_list_rows_germline</title>
<g id="a_node2"><a xlink:title="The row of fastq lists.&#10;Each row has the following attributes:&#10; &#160;* RGID&#10; &#160;* RGLB&#10; &#160;* RGSM&#10; &#160;* Lane&#10; &#160;* Read1File&#10; &#160;* Read2File (optional)&#10;">
<polygon fill="#94ddf4" stroke="black" points="873,-751.77 873,-788.77 1067,-788.77 1067,-751.77 873,-751.77"/>
<text text-anchor="middle" x="970" y="-766.57" font-family="Times,serif" font-size="14.00">fastq_list_rows_germline</text>
</a>
</g>
</g>
<!-- file:///tmp/tmp8lkjsi33#run_dragen_germline_pipeline_step -->
<g id="node10" class="node">
<title>file:///tmp/tmp8lkjsi33#run_dragen_germline_pipeline_step</title>
<g id="a_node10"><a xlink:href="https://github.com/umccr/cwl-ica/blob/main/.github/catalogue/docs/workflows/dragen-germline-pipeline/3.9.3/dragen-germline-pipeline__3.9.3.md" xlink:title="Run the dragen germline workflow against the normal fastq.&#10;">
<polygon fill="#ee7ae9" stroke="black" points="621,-585.77 621,-622.77 877,-622.77 877,-585.77 621,-585.77"/>
<text text-anchor="middle" x="749" y="-600.57" font-family="Times,serif" font-size="14.00">dragen&#45;germline&#45;pipeline v(3.9.3)</text>
</a>
</g>
</g>
<!-- file:///tmp/tmp8lkjsi33#fastq_list_rows_germline&#45;&gt;file:///tmp/tmp8lkjsi33#run_dragen_germline_pipeline_step -->
<g id="edge6" class="edge">
<title>file:///tmp/tmp8lkjsi33#fastq_list_rows_germline&#45;&gt;file:///tmp/tmp8lkjsi33#run_dragen_germline_pipeline_step</title>
<path fill="none" stroke="black" d="M946.35,-751.72C906.49,-722.14 825.91,-662.34 781.03,-629.03"/>
<polygon fill="black" stroke="black" points="782.93,-626.09 772.81,-622.94 778.76,-631.71 782.93,-626.09"/>
</g>
<!-- file:///tmp/tmp8lkjsi33#fastq_list_rows_germline&#45;&gt;file:///tmp/tmp8lkjsi33#run_umccrise_pipeline_step -->
<g id="edge7" class="edge">
<title>file:///tmp/tmp8lkjsi33#fastq_list_rows_germline&#45;&gt;file:///tmp/tmp8lkjsi33#run_umccrise_pipeline_step</title>
<path fill="none" stroke="black" d="M968.25,-751.76C965.62,-724.38 960.75,-669.75 959,-623.27 955.69,-535.33 954.59,-513.16 959,-425.27 960.94,-386.56 965.92,-342.02 969.38,-314.01"/>
<polygon fill="black" stroke="black" points="972.89,-314.14 970.67,-303.78 965.94,-313.26 972.89,-314.14"/>
</g>
<!-- file:///tmp/tmp8lkjsi33#dragen_somatic_directory -->
<g id="node3" class="node">
<title>file:///tmp/tmp8lkjsi33#dragen_somatic_directory</title>
<g id="a_node3"><a xlink:title="The output from the dragen somatic workflow&#10;">
<polygon fill="#94ddf4" stroke="black" points="1085.5,-751.77 1085.5,-788.77 1286.5,-788.77 1286.5,-751.77 1085.5,-751.77"/>
<text text-anchor="middle" x="1186" y="-766.57" font-family="Times,serif" font-size="14.00">dragen_somatic_directory</text>
</a>
</g>
</g>
<!-- file:///tmp/tmp8lkjsi33#dragen_somatic_directory&#45;&gt;file:///tmp/tmp8lkjsi33#run_umccrise_pipeline_step -->
<g id="edge8" class="edge">
<title>file:///tmp/tmp8lkjsi33#dragen_somatic_directory&#45;&gt;file:///tmp/tmp8lkjsi33#run_umccrise_pipeline_step</title>
<path fill="none" stroke="black" d="M1168.47,-751.63C1143.05,-725.37 1095.56,-673.66 1064,-623.27 1022.61,-557.18 1012.42,-538.53 992,-463.27 978.03,-411.77 974.26,-349.23 973.29,-313.97"/>
<polygon fill="black" stroke="black" points="976.79,-313.86 973.07,-303.94 969.79,-314.01 976.79,-313.86"/>
</g>
<!-- file:///tmp/tmp8lkjsi33#get_tumor_bam_file_from_somatic_directory -->
<g id="node13" class="node">
<title>file:///tmp/tmp8lkjsi33#get_tumor_bam_file_from_somatic_directory</title>
<g id="a_node13"><a xlink:href="https://github.com/umccr/cwl-ica/blob/main/.github/catalogue/docs/expressions/get-file-from-directory-with-regex/1.0.0/get-file-from-directory-with-regex__1.0.0.md" xlink:title="Get the tumor bam file from the dragen somatic directory&#10;(so we can then in turn get the sample name value from the bam header)&#10;">
<polygon fill="#ee9a00" stroke="black" points="1072.5,-585.77 1072.5,-622.77 1305.5,-622.77 1305.5,-585.77 1072.5,-585.77"/>
<text text-anchor="middle" x="1189" y="-600.57" font-family="Times,serif" font-size="14.00">get&#45;file&#45;from&#45;directory v(1.0.0)</text>
</a>
</g>
</g>
<!-- file:///tmp/tmp8lkjsi33#dragen_somatic_directory&#45;&gt;file:///tmp/tmp8lkjsi33#get_tumor_bam_file_from_somatic_directory -->
<g id="edge9" class="edge">
<title>file:///tmp/tmp8lkjsi33#dragen_somatic_directory&#45;&gt;file:///tmp/tmp8lkjsi33#get_tumor_bam_file_from_somatic_directory</title>
<path fill="none" stroke="black" d="M1186.32,-751.72C1186.84,-723.38 1187.86,-667.32 1188.49,-633.37"/>
<polygon fill="black" stroke="black" points="1191.99,-633.25 1188.67,-623.19 1184.99,-633.12 1191.99,-633.25"/>
</g>
<!-- file:///tmp/tmp8lkjsi33#subject_identifier_umccrise -->
<g id="node4" class="node">
<title>file:///tmp/tmp8lkjsi33#subject_identifier_umccrise</title>
<g id="a_node4"><a xlink:title="The subject identifier for umccrise to use on output files&#10;">
<polygon fill="#94ddf4" stroke="black" points="1305,-751.77 1305,-788.77 1517,-788.77 1517,-751.77 1305,-751.77"/>
<text text-anchor="middle" x="1411" y="-766.57" font-family="Times,serif" font-size="14.00">subject_identifier_umccrise</text>
</a>
</g>
</g>
<!-- file:///tmp/tmp8lkjsi33#subject_identifier_umccrise&#45;&gt;file:///tmp/tmp8lkjsi33#run_umccrise_pipeline_step -->
<g id="edge10" class="edge">
<title>file:///tmp/tmp8lkjsi33#subject_identifier_umccrise&#45;&gt;file:///tmp/tmp8lkjsi33#run_umccrise_pipeline_step</title>
<path fill="none" stroke="black" d="M1416.23,-751.59C1431.33,-696.61 1469.21,-526.23 1392,-425.27 1314.44,-323.84 1160.37,-295.56 1062.22,-288.17"/>
<polygon fill="black" stroke="black" points="1062.24,-284.67 1052.02,-287.47 1061.75,-291.65 1062.24,-284.67"/>
</g>
<!-- file:///tmp/tmp8lkjsi33#reference_tar_germline -->
<g id="node5" class="node">
<title>file:///tmp/tmp8lkjsi33#reference_tar_germline</title>
<g id="a_node5"><a xlink:title="Path to ref data tarball&#10;">
<polygon fill="#94ddf4" stroke="black" points="442.5,-751.77 442.5,-788.77 625.5,-788.77 625.5,-751.77 442.5,-751.77"/>
<text text-anchor="middle" x="534" y="-766.57" font-family="Times,serif" font-size="14.00">reference_tar_germline</text>
</a>
</g>
</g>
<!-- file:///tmp/tmp8lkjsi33#reference_tar_germline&#45;&gt;file:///tmp/tmp8lkjsi33#run_dragen_germline_pipeline_step -->
<g id="edge11" class="edge">
<title>file:///tmp/tmp8lkjsi33#reference_tar_germline&#45;&gt;file:///tmp/tmp8lkjsi33#run_dragen_germline_pipeline_step</title>
<path fill="none" stroke="black" d="M557.01,-751.72C595.78,-722.14 674.17,-662.34 717.84,-629.03"/>
<polygon fill="black" stroke="black" points="720,-631.79 725.83,-622.94 715.76,-626.22 720,-631.79"/>
</g>
<!-- file:///tmp/tmp8lkjsi33#output_directory_germline -->
<g id="node6" class="node">
<title>file:///tmp/tmp8lkjsi33#output_directory_germline</title>
<g id="a_node6"><a xlink:title="The directory where all output files are placed&#10;">
<polygon fill="#94ddf4" stroke="black" points="218,-751.77 218,-788.77 424,-788.77 424,-751.77 218,-751.77"/>
<text text-anchor="middle" x="321" y="-766.57" font-family="Times,serif" font-size="14.00">output_directory_germline</text>
</a>
</g>
</g>
<!-- file:///tmp/tmp8lkjsi33#output_directory_germline&#45;&gt;file:///tmp/tmp8lkjsi33#run_dragen_germline_pipeline_step -->
<g id="edge12" class="edge">
<title>file:///tmp/tmp8lkjsi33#output_directory_germline&#45;&gt;file:///tmp/tmp8lkjsi33#run_dragen_germline_pipeline_step</title>
<path fill="none" stroke="black" d="M359.36,-751.77C380.87,-742.13 408.27,-730.16 433,-720.27 520.9,-685.09 624.25,-648.33 688.2,-626.11"/>
<polygon fill="black" stroke="black" points="689.42,-629.39 697.72,-622.8 687.13,-622.77 689.42,-629.39"/>
</g>
<!-- file:///tmp/tmp8lkjsi33#output_directory_umccrise -->
<g id="node7" class="node">
<title>file:///tmp/tmp8lkjsi33#output_directory_umccrise</title>
<g id="a_node7"><a xlink:title="The name of the output directory used for umccrise step&#10;">
<polygon fill="#94ddf4" stroke="black" points="1535.5,-751.77 1535.5,-788.77 1742.5,-788.77 1742.5,-751.77 1535.5,-751.77"/>
<text text-anchor="middle" x="1639" y="-766.57" font-family="Times,serif" font-size="14.00">output_directory_umccrise</text>
</a>
</g>
</g>
<!-- file:///tmp/tmp8lkjsi33#output_directory_umccrise&#45;&gt;file:///tmp/tmp8lkjsi33#run_umccrise_pipeline_step -->
<g id="edge13" class="edge">
<title>file:///tmp/tmp8lkjsi33#output_directory_umccrise&#45;&gt;file:///tmp/tmp8lkjsi33#run_umccrise_pipeline_step</title>
<path fill="none" stroke="black" d="M1632.61,-751.57C1611.27,-695.06 1536.98,-517.21 1416,-425.27 1310.47,-345.07 1157.74,-310.55 1061.99,-296.11"/>
<polygon fill="black" stroke="black" points="1062.44,-292.64 1052.04,-294.66 1061.42,-299.57 1062.44,-292.64"/>
</g>
<!-- file:///tmp/tmp8lkjsi33#output_file_prefix_germline -->
<g id="node8" class="node">
<title>file:///tmp/tmp8lkjsi33#output_file_prefix_germline</title>
<g id="a_node8"><a xlink:title="The prefix given to all output files&#10;">
<polygon fill="#94ddf4" stroke="black" points="643.5,-751.77 643.5,-788.77 854.5,-788.77 854.5,-751.77 643.5,-751.77"/>
<text text-anchor="middle" x="749" y="-766.57" font-family="Times,serif" font-size="14.00">output_file_prefix_germline</text>
</a>
</g>
</g>
<!-- file:///tmp/tmp8lkjsi33#output_file_prefix_germline&#45;&gt;file:///tmp/tmp8lkjsi33#run_dragen_germline_pipeline_step -->
<g id="edge14" class="edge">
<title>file:///tmp/tmp8lkjsi33#output_file_prefix_germline&#45;&gt;file:///tmp/tmp8lkjsi33#run_dragen_germline_pipeline_step</title>
<path fill="none" stroke="black" d="M749,-751.72C749,-723.38 749,-667.32 749,-633.37"/>
<polygon fill="black" stroke="black" points="752.5,-633.19 749,-623.19 745.5,-633.19 752.5,-633.19"/>
</g>
<!-- file:///tmp/tmp8lkjsi33#umccrise_output_directory -->
<g id="node9" class="node">
<title>file:///tmp/tmp8lkjsi33#umccrise_output_directory</title>
<g id="a_node9"><a xlink:title="The output directory containing all umccrise output files&#10;">
<polygon fill="#94ddf4" stroke="black" points="869.5,-106.77 869.5,-143.77 1076.5,-143.77 1076.5,-106.77 869.5,-106.77"/>
<text text-anchor="middle" x="973" y="-121.57" font-family="Times,serif" font-size="14.00">umccrise_output_directory</text>
</a>
</g>
</g>
<!-- file:///tmp/tmp8lkjsi33#run_dragen_germline_pipeline_step&#45;&gt;file:///tmp/tmp8lkjsi33#run_umccrise_pipeline_step -->
<g id="edge1" class="edge">
<title>file:///tmp/tmp8lkjsi33#run_dragen_germline_pipeline_step&#45;&gt;file:///tmp/tmp8lkjsi33#run_umccrise_pipeline_step</title>
<path fill="none" stroke="black" d="M761.69,-585.32C799.26,-532.14 910.14,-375.23 954.42,-312.56"/>
<polygon fill="black" stroke="black" points="957.54,-314.21 960.45,-304.02 951.82,-310.17 957.54,-314.21"/>
</g>
<!-- file:///tmp/tmp8lkjsi33#run_umccrise_pipeline_step&#45;&gt;file:///tmp/tmp8lkjsi33#umccrise_output_directory -->
<g id="edge2" class="edge">
<title>file:///tmp/tmp8lkjsi33#run_umccrise_pipeline_step&#45;&gt;file:///tmp/tmp8lkjsi33#umccrise_output_directory</title>
<path fill="none" stroke="black" d="M973,-266.75C973,-239.47 973,-186.57 973,-154.04"/>
<polygon fill="black" stroke="black" points="976.5,-153.86 973,-143.86 969.5,-153.86 976.5,-153.86"/>
</g>
<!-- file:///tmp/tmp8lkjsi33#get_tumor_name_from_bam_header -->
<g id="node12" class="node">
<title>file:///tmp/tmp8lkjsi33#get_tumor_name_from_bam_header</title>
<g id="a_node12"><a xlink:href="https://github.com/umccr/cwl-ica/blob/main/.github/catalogue/docs/tools/custom-get-sample-name-from-bam-header/1.0.0/custom-get-sample-name-from-bam-header__1.0.0.md" xlink:title="Get the tumor name from the bam header.&#10;">
<polygon fill="lightgoldenrodyellow" stroke="black" points="1001,-425.77 1001,-462.77 1383,-462.77 1383,-425.77 1001,-425.77"/>
<text text-anchor="middle" x="1192" y="-440.57" font-family="Times,serif" font-size="14.00">custom&#45;get&#45;sample&#45;name&#45;from&#45;bam&#45;header v(1.0.0)</text>
</a>
</g>
</g>
<!-- file:///tmp/tmp8lkjsi33#get_tumor_name_from_bam_header&#45;&gt;file:///tmp/tmp8lkjsi33#run_umccrise_pipeline_step -->
<g id="edge3" class="edge">
<title>file:///tmp/tmp8lkjsi33#get_tumor_name_from_bam_header&#45;&gt;file:///tmp/tmp8lkjsi33#run_umccrise_pipeline_step</title>
<path fill="none" stroke="black" d="M1167.3,-425.56C1127.77,-397.22 1050.22,-341.63 1005.99,-309.92"/>
<polygon fill="black" stroke="black" points="1007.77,-306.89 997.61,-303.91 1003.69,-312.58 1007.77,-306.89"/>
</g>
<!-- file:///tmp/tmp8lkjsi33#get_tumor_bam_file_from_somatic_directory&#45;&gt;file:///tmp/tmp8lkjsi33#get_tumor_name_from_bam_header -->
<g id="edge4" class="edge">
<title>file:///tmp/tmp8lkjsi33#get_tumor_bam_file_from_somatic_directory&#45;&gt;file:///tmp/tmp8lkjsi33#get_tumor_name_from_bam_header</title>
<path fill="none" stroke="black" d="M1189.33,-585.75C1189.85,-558.47 1190.86,-505.57 1191.47,-473.04"/>
<polygon fill="black" stroke="black" points="1194.98,-472.92 1191.67,-462.86 1187.98,-472.79 1194.98,-472.92"/>
</g>
</g>
</svg>
