<?xml version="1.0" encoding="UTF-8" standalone="no"?>
<!DOCTYPE svg PUBLIC "-//W3C//DTD SVG 1.1//EN"
 "http://www.w3.org/Graphics/SVG/1.1/DTD/svg11.dtd">
<!-- Generated by graphviz version 2.43.0 (0)
 -->
<!-- Title: G Pages: 1 -->
<svg width="1766pt" height="854pt"
 viewBox="0.00 0.00 1766.00 853.60" xmlns="http://www.w3.org/2000/svg" xmlns:xlink="http://www.w3.org/1999/xlink">
<g id="graph0" class="graph" transform="scale(1 1) rotate(0) translate(4 849.6)">
<title>G</title>
<polygon fill="#eeeeee" stroke="transparent" points="-4,4 -4,-849.6 1762,-849.6 1762,4 -4,4"/>
<g id="clust1" class="cluster">
<title>cluster_inputs</title>
<polygon fill="#eeeeee" stroke="black" stroke-dasharray="5,2" points="8,-662.24 8,-828.34 1750,-828.34 1750,-662.24 8,-662.24"/>
<text text-anchor="middle" x="1683.5" y="-670.04" font-family="Times,serif" font-size="14.00">Workflow Inputs</text>
</g>
<g id="clust2" class="cluster">
<title>cluster_outputs</title>
<polygon fill="#eeeeee" stroke="black" stroke-dasharray="5,2" points="745,-17.26 745,-183.36 969,-183.36 969,-17.26 745,-17.26"/>
<text text-anchor="middle" x="896.5" y="-25.06" font-family="Times,serif" font-size="14.00">Workflow Outputs</text>
</g>
<!-- file:///tmp/tmppw472m4f#output_directory_umccrise -->
<g id="node1" class="node">
<title>file:///tmp/tmppw472m4f#output_directory_umccrise</title>
<g id="a_node1"><a xlink:title="The name of the output directory used for umccrise step&#10;">
<polygon fill="#94ddf4" stroke="black" points="16.5,-751.76 16.5,-788.76 223.5,-788.76 223.5,-751.76 16.5,-751.76"/>
<text text-anchor="middle" x="120" y="-766.56" font-family="Times,serif" font-size="14.00">output_directory_umccrise</text>
</a>
</g>
</g>
<!-- file:///tmp/tmppw472m4f#run_umccrise_pipeline_step -->
<g id="node11" class="node">
<title>file:///tmp/tmppw472m4f#run_umccrise_pipeline_step</title>
<g id="a_node11"><a xlink:href="https://github.com/umccr/cwl-ica/blob/main/.github/catalogue/docs/tools/umccrise/2.0.0--0/umccrise__2.0.0--0.md" xlink:title="Run the umccrise pipeline using the input somatic directory and output from the dragen germline step&#10;">
<polygon fill="lightgoldenrodyellow" stroke="black" points="778,-265.76 778,-302.76 936,-302.76 936,-265.76 778,-265.76"/>
<text text-anchor="middle" x="857" y="-280.56" font-family="Times,serif" font-size="14.00">umccrise v(2.0.0&#45;&#45;0)</text>
</a>
</g>
</g>
<!-- file:///tmp/tmppw472m4f#output_directory_umccrise&#45;&gt;file:///tmp/tmppw472m4f#run_umccrise_pipeline_step -->
<g id="edge5" class="edge">
<title>file:///tmp/tmppw472m4f#output_directory_umccrise&#45;&gt;file:///tmp/tmppw472m4f#run_umccrise_pipeline_step</title>
<path fill="none" stroke="black" d="M116.3,-751.71C105.59,-695.64 80.67,-518.99 169,-425.26 249.8,-339.52 600.84,-303.44 767.95,-290.91"/>
<polygon fill="black" stroke="black" points="768.24,-294.4 777.95,-290.17 767.72,-287.42 768.24,-294.4"/>
</g>
<!-- file:///tmp/tmppw472m4f#dragen_somatic_directory -->
<g id="node2" class="node">
<title>file:///tmp/tmppw472m4f#dragen_somatic_directory</title>
<g id="a_node2"><a xlink:title="The output from the dragen somatic workflow&#10;">
<polygon fill="#94ddf4" stroke="black" points="241.5,-751.76 241.5,-788.76 442.5,-788.76 442.5,-751.76 241.5,-751.76"/>
<text text-anchor="middle" x="342" y="-766.56" font-family="Times,serif" font-size="14.00">dragen_somatic_directory</text>
</a>
</g>
</g>
<!-- file:///tmp/tmppw472m4f#dragen_somatic_directory&#45;&gt;file:///tmp/tmppw472m4f#run_umccrise_pipeline_step -->
<g id="edge6" class="edge">
<title>file:///tmp/tmppw472m4f#dragen_somatic_directory&#45;&gt;file:///tmp/tmppw472m4f#run_umccrise_pipeline_step</title>
<path fill="none" stroke="black" d="M360.63,-751.75C438.7,-678.38 739.58,-395.61 830.7,-309.98"/>
<polygon fill="black" stroke="black" points="833.23,-312.4 838.12,-303 828.44,-307.3 833.23,-312.4"/>
</g>
<!-- file:///tmp/tmppw472m4f#get_tumor_bam_file_from_somatic_directory -->
<g id="node13" class="node">
<title>file:///tmp/tmppw472m4f#get_tumor_bam_file_from_somatic_directory</title>
<g id="a_node13"><a xlink:href="https://github.com/umccr/cwl-ica/blob/main/.github/catalogue/docs/expressions/get-file-from-directory-with-regex/1.0.0/get-file-from-directory-with-regex__1.0.0.md" xlink:title="Get the tumor bam file from the dragen somatic directory&#10;(so we can then in turn get the sample name value from the bam header)&#10;">
<polygon fill="#ee9a00" stroke="black" points="234.5,-585.76 234.5,-622.76 467.5,-622.76 467.5,-585.76 234.5,-585.76"/>
<text text-anchor="middle" x="351" y="-600.56" font-family="Times,serif" font-size="14.00">get&#45;file&#45;from&#45;directory v(1.0.0)</text>
</a>
</g>
</g>
<!-- file:///tmp/tmppw472m4f#dragen_somatic_directory&#45;&gt;file:///tmp/tmppw472m4f#get_tumor_bam_file_from_somatic_directory -->
<g id="edge7" class="edge">
<title>file:///tmp/tmppw472m4f#dragen_somatic_directory&#45;&gt;file:///tmp/tmppw472m4f#get_tumor_bam_file_from_somatic_directory</title>
<path fill="none" stroke="black" d="M342.96,-751.71C344.52,-723.37 347.59,-667.31 349.46,-633.36"/>
<polygon fill="black" stroke="black" points="352.96,-633.36 350.02,-623.18 345.97,-632.97 352.96,-633.36"/>
</g>
<!-- file:///tmp/tmppw472m4f#output_directory_germline -->
<g id="node3" class="node">
<title>file:///tmp/tmppw472m4f#output_directory_germline</title>
<g id="a_node3"><a xlink:title="The directory where all output files are placed&#10;">
<polygon fill="#94ddf4" stroke="black" points="461,-751.76 461,-788.76 667,-788.76 667,-751.76 461,-751.76"/>
<text text-anchor="middle" x="564" y="-766.56" font-family="Times,serif" font-size="14.00">output_directory_germline</text>
</a>
</g>
</g>
<!-- file:///tmp/tmppw472m4f#run_dragen_germline_pipeline_step -->
<g id="node12" class="node">
<title>file:///tmp/tmppw472m4f#run_dragen_germline_pipeline_step</title>
<g id="a_node12"><a xlink:href="https://github.com/umccr/cwl-ica/blob/main/.github/catalogue/docs/workflows/dragen-germline-pipeline/3.9.3/dragen-germline-pipeline__3.9.3.md" xlink:title="Run the dragen germline workflow against the normal fastq.&#10;">
<polygon fill="#ee7ae9" stroke="black" points="729,-585.76 729,-622.76 985,-622.76 985,-585.76 729,-585.76"/>
<text text-anchor="middle" x="857" y="-600.56" font-family="Times,serif" font-size="14.00">dragen&#45;germline&#45;pipeline v(3.9.3)</text>
</a>
</g>
</g>
<!-- file:///tmp/tmppw472m4f#output_directory_germline&#45;&gt;file:///tmp/tmppw472m4f#run_dragen_germline_pipeline_step -->
<g id="edge8" class="edge">
<title>file:///tmp/tmppw472m4f#output_directory_germline&#45;&gt;file:///tmp/tmppw472m4f#run_dragen_germline_pipeline_step</title>
<path fill="none" stroke="black" d="M595.36,-751.71C648.75,-721.82 757.25,-661.09 816.38,-627.99"/>
<polygon fill="black" stroke="black" points="818.41,-630.87 825.43,-622.93 814.99,-624.76 818.41,-630.87"/>
</g>
<!-- file:///tmp/tmppw472m4f#subject_identifier_umccrise -->
<g id="node4" class="node">
<title>file:///tmp/tmppw472m4f#subject_identifier_umccrise</title>
<g id="a_node4"><a xlink:title="The subject identifier for umccrise to use on output files&#10;">
<polygon fill="#94ddf4" stroke="black" points="1328,-751.76 1328,-788.76 1540,-788.76 1540,-751.76 1328,-751.76"/>
<text text-anchor="middle" x="1434" y="-766.56" font-family="Times,serif" font-size="14.00">subject_identifier_umccrise</text>
</a>
</g>
</g>
<!-- file:///tmp/tmppw472m4f#subject_identifier_umccrise&#45;&gt;file:///tmp/tmppw472m4f#run_umccrise_pipeline_step -->
<g id="edge9" class="edge">
<title>file:///tmp/tmppw472m4f#subject_identifier_umccrise&#45;&gt;file:///tmp/tmppw472m4f#run_umccrise_pipeline_step</title>
<path fill="none" stroke="black" d="M1413.12,-751.75C1325.49,-678.23 987.21,-394.48 885.86,-309.46"/>
<polygon fill="black" stroke="black" points="888.06,-306.75 878.15,-303 883.56,-312.11 888.06,-306.75"/>
</g>
<!-- file:///tmp/tmppw472m4f#output_file_prefix_germline -->
<g id="node5" class="node">
<title>file:///tmp/tmppw472m4f#output_file_prefix_germline</title>
<g id="a_node5"><a xlink:title="The prefix given to all output files&#10;">
<polygon fill="#94ddf4" stroke="black" points="685.5,-751.76 685.5,-788.76 896.5,-788.76 896.5,-751.76 685.5,-751.76"/>
<text text-anchor="middle" x="791" y="-766.56" font-family="Times,serif" font-size="14.00">output_file_prefix_germline</text>
</a>
</g>
</g>
<!-- file:///tmp/tmppw472m4f#output_file_prefix_germline&#45;&gt;file:///tmp/tmppw472m4f#run_dragen_germline_pipeline_step -->
<g id="edge10" class="edge">
<title>file:///tmp/tmppw472m4f#output_file_prefix_germline&#45;&gt;file:///tmp/tmppw472m4f#run_dragen_germline_pipeline_step</title>
<path fill="none" stroke="black" d="M798.06,-751.71C809.56,-723.13 832.42,-666.33 846.04,-632.48"/>
<polygon fill="black" stroke="black" points="849.3,-633.76 849.79,-623.18 842.81,-631.15 849.3,-633.76"/>
</g>
<!-- file:///tmp/tmppw472m4f#reference_tar_germline -->
<g id="node6" class="node">
<title>file:///tmp/tmppw472m4f#reference_tar_germline</title>
<g id="a_node6"><a xlink:title="Path to ref data tarball&#10;">
<polygon fill="#94ddf4" stroke="black" points="914.5,-751.76 914.5,-788.76 1097.5,-788.76 1097.5,-751.76 914.5,-751.76"/>
<text text-anchor="middle" x="1006" y="-766.56" font-family="Times,serif" font-size="14.00">reference_tar_germline</text>
</a>
</g>
</g>
<!-- file:///tmp/tmppw472m4f#reference_tar_germline&#45;&gt;file:///tmp/tmppw472m4f#run_dragen_germline_pipeline_step -->
<g id="edge11" class="edge">
<title>file:///tmp/tmppw472m4f#reference_tar_germline&#45;&gt;file:///tmp/tmppw472m4f#run_dragen_germline_pipeline_step</title>
<path fill="none" stroke="black" d="M990.05,-751.71C963.64,-722.64 910.71,-664.37 880.17,-630.76"/>
<polygon fill="black" stroke="black" points="882.6,-628.23 873.28,-623.18 877.42,-632.93 882.6,-628.23"/>
</g>
<!-- file:///tmp/tmppw472m4f#fastq_list_rows_germline -->
<g id="node7" class="node">
<title>file:///tmp/tmppw472m4f#fastq_list_rows_germline</title>
<g id="a_node7"><a xlink:title="The row of fastq lists.&#10;Each row has the following attributes:&#10; &#160;* RGID&#10; &#160;* RGLB&#10; &#160;* RGSM&#10; &#160;* Lane&#10; &#160;* Read1File&#10; &#160;* Read2File (optional)&#10;">
<polygon fill="#94ddf4" stroke="black" points="1116,-751.76 1116,-788.76 1310,-788.76 1310,-751.76 1116,-751.76"/>
<text text-anchor="middle" x="1213" y="-766.56" font-family="Times,serif" font-size="14.00">fastq_list_rows_germline</text>
</a>
</g>
</g>
<!-- file:///tmp/tmppw472m4f#fastq_list_rows_germline&#45;&gt;file:///tmp/tmppw472m4f#run_umccrise_pipeline_step -->
<g id="edge12" class="edge">
<title>file:///tmp/tmppw472m4f#fastq_list_rows_germline&#45;&gt;file:///tmp/tmppw472m4f#run_umccrise_pipeline_step</title>
<path fill="none" stroke="black" d="M1200.12,-751.75C1146.43,-678.75 940.26,-398.45 876.14,-311.28"/>
<polygon fill="black" stroke="black" points="878.8,-308.98 870.05,-303 873.16,-313.13 878.8,-308.98"/>
</g>
<!-- file:///tmp/tmppw472m4f#fastq_list_rows_germline&#45;&gt;file:///tmp/tmppw472m4f#run_dragen_germline_pipeline_step -->
<g id="edge13" class="edge">
<title>file:///tmp/tmppw472m4f#fastq_list_rows_germline&#45;&gt;file:///tmp/tmppw472m4f#run_dragen_germline_pipeline_step</title>
<path fill="none" stroke="black" d="M1174.74,-751.55C1154.59,-742.23 1129.46,-730.61 1107,-720.26 1036.49,-687.74 954.75,-650.16 904.45,-627.05"/>
<polygon fill="black" stroke="black" points="905.68,-623.76 895.13,-622.77 902.75,-630.13 905.68,-623.76"/>
</g>
<!-- file:///tmp/tmppw472m4f#reference_tar_umccrise -->
<g id="node8" class="node">
<title>file:///tmp/tmppw472m4f#reference_tar_umccrise</title>
<g id="a_node8"><a xlink:title="The reference tar ball for umccrise&#10;">
<polygon fill="#94ddf4" stroke="black" points="1558,-751.76 1558,-788.76 1742,-788.76 1742,-751.76 1558,-751.76"/>
<text text-anchor="middle" x="1650" y="-766.56" font-family="Times,serif" font-size="14.00">reference_tar_umccrise</text>
</a>
</g>
</g>
<!-- file:///tmp/tmppw472m4f#reference_tar_umccrise&#45;&gt;file:///tmp/tmppw472m4f#run_umccrise_pipeline_step -->
<g id="edge14" class="edge">
<title>file:///tmp/tmppw472m4f#reference_tar_umccrise&#45;&gt;file:///tmp/tmppw472m4f#run_umccrise_pipeline_step</title>
<path fill="none" stroke="black" d="M1621.31,-751.75C1500.38,-677.94 1032.21,-392.2 895,-308.45"/>
<polygon fill="black" stroke="black" points="896.43,-305.22 886.07,-303 892.78,-311.2 896.43,-305.22"/>
</g>
<!-- file:///tmp/tmppw472m4f#umccrise_output_directory -->
<g id="node9" class="node">
<title>file:///tmp/tmppw472m4f#umccrise_output_directory</title>
<g id="a_node9"><a xlink:title="The output directory containing all umccrise output files&#10;">
<polygon fill="#94ddf4" stroke="black" points="753.5,-106.76 753.5,-143.76 960.5,-143.76 960.5,-106.76 753.5,-106.76"/>
<text text-anchor="middle" x="857" y="-121.56" font-family="Times,serif" font-size="14.00">umccrise_output_directory</text>
</a>
</g>
</g>
<!-- file:///tmp/tmppw472m4f#get_tumor_name_from_bam_header -->
<g id="node10" class="node">
<title>file:///tmp/tmppw472m4f#get_tumor_name_from_bam_header</title>
<g id="a_node10"><a xlink:href="https://github.com/umccr/cwl-ica/blob/main/.github/catalogue/docs/tools/custom-get-sample-name-from-bam-header/1.0.0/custom-get-sample-name-from-bam-header__1.0.0.md" xlink:title="Get the tumor name from the bam header.&#10;">
<polygon fill="lightgoldenrodyellow" stroke="black" points="178,-425.76 178,-462.76 560,-462.76 560,-425.76 178,-425.76"/>
<text text-anchor="middle" x="369" y="-440.56" font-family="Times,serif" font-size="14.00">custom&#45;get&#45;sample&#45;name&#45;from&#45;bam&#45;header v(1.0.0)</text>
</a>
</g>
</g>
<!-- file:///tmp/tmppw472m4f#get_tumor_name_from_bam_header&#45;&gt;file:///tmp/tmppw472m4f#run_umccrise_pipeline_step -->
<g id="edge1" class="edge">
<title>file:///tmp/tmppw472m4f#get_tumor_name_from_bam_header&#45;&gt;file:///tmp/tmppw472m4f#run_umccrise_pipeline_step</title>
<path fill="none" stroke="black" d="M423.09,-425.74C513.78,-396.38 696.07,-337.36 792.99,-305.98"/>
<polygon fill="black" stroke="black" points="794.23,-309.26 802.67,-302.85 792.08,-302.6 794.23,-309.26"/>
</g>
<!-- file:///tmp/tmppw472m4f#run_umccrise_pipeline_step&#45;&gt;file:///tmp/tmppw472m4f#umccrise_output_directory -->
<g id="edge2" class="edge">
<title>file:///tmp/tmppw472m4f#run_umccrise_pipeline_step&#45;&gt;file:///tmp/tmppw472m4f#umccrise_output_directory</title>
<path fill="none" stroke="black" d="M857,-265.55C857,-238.46 857,-186.48 857,-154.25"/>
<polygon fill="black" stroke="black" points="860.5,-154.14 857,-144.14 853.5,-154.14 860.5,-154.14"/>
</g>
<!-- file:///tmp/tmppw472m4f#run_dragen_germline_pipeline_step&#45;&gt;file:///tmp/tmppw472m4f#run_umccrise_pipeline_step -->
<g id="edge3" class="edge">
<title>file:///tmp/tmppw472m4f#run_dragen_germline_pipeline_step&#45;&gt;file:///tmp/tmppw472m4f#run_umccrise_pipeline_step</title>
<path fill="none" stroke="black" d="M857,-585.71C857,-533.27 857,-377.45 857,-313.32"/>
<polygon fill="black" stroke="black" points="860.5,-313.14 857,-303.14 853.5,-313.14 860.5,-313.14"/>
</g>
<!-- file:///tmp/tmppw472m4f#get_tumor_bam_file_from_somatic_directory&#45;&gt;file:///tmp/tmppw472m4f#get_tumor_name_from_bam_header -->
<g id="edge4" class="edge">
<title>file:///tmp/tmppw472m4f#get_tumor_bam_file_from_somatic_directory&#45;&gt;file:///tmp/tmppw472m4f#get_tumor_name_from_bam_header</title>
<path fill="none" stroke="black" d="M353,-585.74C356.1,-558.46 362.13,-505.56 365.84,-473.03"/>
<polygon fill="black" stroke="black" points="369.34,-473.18 367,-462.85 362.39,-472.39 369.34,-473.18"/>
</g>
</g>
</svg>
