<?xml version="1.0" encoding="UTF-8" standalone="no"?>
<!DOCTYPE svg PUBLIC "-//W3C//DTD SVG 1.1//EN"
 "http://www.w3.org/Graphics/SVG/1.1/DTD/svg11.dtd">
<!-- Generated by graphviz version 2.43.0 (0)
 -->
<!-- Title: G Pages: 1 -->
<svg width="1768pt" height="855pt"
 viewBox="0.00 0.00 1768.00 854.56" xmlns="http://www.w3.org/2000/svg" xmlns:xlink="http://www.w3.org/1999/xlink">
<g id="graph0" class="graph" transform="scale(1 1) rotate(0) translate(4 850.56)">
<title>G</title>
<polygon fill="#eeeeee" stroke="transparent" points="-4,4 -4,-850.56 1764,-850.56 1764,4 -4,4"/>
<g id="clust1" class="cluster">
<title>cluster_inputs</title>
<polygon fill="#eeeeee" stroke="black" stroke-dasharray="5,2" points="8,-620.28 8,-825.26 1752,-825.26 1752,-620.28 8,-620.28"/>
<text text-anchor="middle" x="1685.5" y="-628.08" font-family="Times,serif" font-size="14.00">Workflow Inputs</text>
</g>
<g id="clust2" class="cluster">
<title>cluster_outputs</title>
<polygon fill="#eeeeee" stroke="black" stroke-dasharray="5,2" points="1078,-21.3 1078,-226.28 1302,-226.28 1302,-21.3 1078,-21.3"/>
<text text-anchor="middle" x="1229.5" y="-29.1" font-family="Times,serif" font-size="14.00">Workflow Outputs</text>
</g>
<!-- file:///tmp/tmpmhv3in9f#output_file_prefix_germline -->
<g id="node1" class="node">
<title>file:///tmp/tmpmhv3in9f#output_file_prefix_germline</title>
<g id="a_node1"><a xlink:title="The prefix given to all output files&#10;">
<polygon fill="#94ddf4" stroke="black" points="654.5,-734.8 654.5,-771.8 865.5,-771.8 865.5,-734.8 654.5,-734.8"/>
<text text-anchor="middle" x="760" y="-749.6" font-family="Times,serif" font-size="14.00">output_file_prefix_germline</text>
</a>
</g>
</g>
<!-- file:///tmp/tmpmhv3in9f#run_dragen_germline_pipeline_step -->
<g id="node10" class="node">
<title>file:///tmp/tmpmhv3in9f#run_dragen_germline_pipeline_step</title>
<g id="a_node10"><a xlink:href="https://github.com/umccr/cwl-ica/blob/main/.github/catalogue/docs/workflows/dragen-germline-pipeline/3.9.3/dragen-germline-pipeline__3.9.3.md" xlink:title="Run the dragen germline workflow against the normal fastq.&#10;">
<polygon fill="#ee7ae9" stroke="black" points="411,-529.8 411,-566.8 667,-566.8 667,-529.8 411,-529.8"/>
<text text-anchor="middle" x="539" y="-544.6" font-family="Times,serif" font-size="14.00">dragen&#45;germline&#45;pipeline v(3.9.3)</text>
</a>
</g>
</g>
<!-- file:///tmp/tmpmhv3in9f#output_file_prefix_germline&#45;&gt;file:///tmp/tmpmhv3in9f#run_dragen_germline_pipeline_step -->
<g id="edge3" class="edge">
<title>file:///tmp/tmpmhv3in9f#output_file_prefix_germline&#45;&gt;file:///tmp/tmpmhv3in9f#run_dragen_germline_pipeline_step</title>
<path fill="none" stroke="black" d="M740.77,-734.64C701.26,-698.34 610.87,-615.31 565.7,-573.83"/>
<polygon fill="black" stroke="black" points="568.07,-571.25 558.34,-567.06 563.34,-576.4 568.07,-571.25"/>
</g>
<!-- file:///tmp/tmpmhv3in9f#reference_tar_umccrise -->
<g id="node2" class="node">
<title>file:///tmp/tmpmhv3in9f#reference_tar_umccrise</title>
<g id="a_node2"><a xlink:title="The reference tar ball for umccrise&#10;">
<polygon fill="#94ddf4" stroke="black" points="884,-734.8 884,-771.8 1068,-771.8 1068,-734.8 884,-734.8"/>
<text text-anchor="middle" x="976" y="-749.6" font-family="Times,serif" font-size="14.00">reference_tar_umccrise</text>
</a>
</g>
</g>
<!-- file:///tmp/tmpmhv3in9f#run_umccrise_pipeline_step -->
<g id="node11" class="node">
<title>file:///tmp/tmpmhv3in9f#run_umccrise_pipeline_step</title>
<g id="a_node11"><a xlink:href="https://github.com/umccr/cwl-ica/blob/main/.github/catalogue/docs/tools/umccrise/2.0.0--0/umccrise__2.0.0--0.md" xlink:title="Run the umccrise pipeline using the input somatic directory and output from the dragen germline step&#10;">
<polygon fill="lightgoldenrodyellow" stroke="black" points="1111,-332.8 1111,-369.8 1269,-369.8 1269,-332.8 1111,-332.8"/>
<text text-anchor="middle" x="1190" y="-347.6" font-family="Times,serif" font-size="14.00">umccrise v(2.0.0&#45;&#45;0)</text>
</a>
</g>
</g>
<!-- file:///tmp/tmpmhv3in9f#reference_tar_umccrise&#45;&gt;file:///tmp/tmpmhv3in9f#run_umccrise_pipeline_step -->
<g id="edge4" class="edge">
<title>file:///tmp/tmpmhv3in9f#reference_tar_umccrise&#45;&gt;file:///tmp/tmpmhv3in9f#run_umccrise_pipeline_step</title>
<path fill="none" stroke="black" d="M985.47,-734.59C1019.37,-671.23 1134.8,-455.47 1175.58,-379.24"/>
<polygon fill="black" stroke="black" points="1178.76,-380.72 1180.4,-370.25 1172.59,-377.42 1178.76,-380.72"/>
</g>
<!-- file:///tmp/tmpmhv3in9f#output_directory_germline -->
<g id="node3" class="node">
<title>file:///tmp/tmpmhv3in9f#output_directory_germline</title>
<g id="a_node3"><a xlink:title="The directory where all output files are placed&#10;">
<polygon fill="#94ddf4" stroke="black" points="218,-734.8 218,-771.8 424,-771.8 424,-734.8 218,-734.8"/>
<text text-anchor="middle" x="321" y="-749.6" font-family="Times,serif" font-size="14.00">output_directory_germline</text>
</a>
</g>
</g>
<!-- file:///tmp/tmpmhv3in9f#output_directory_germline&#45;&gt;file:///tmp/tmpmhv3in9f#run_dragen_germline_pipeline_step -->
<g id="edge5" class="edge">
<title>file:///tmp/tmpmhv3in9f#output_directory_germline&#45;&gt;file:///tmp/tmpmhv3in9f#run_dragen_germline_pipeline_step</title>
<path fill="none" stroke="black" d="M339.96,-734.64C378.86,-698.42 467.74,-615.65 512.38,-574.08"/>
<polygon fill="black" stroke="black" points="514.99,-576.44 519.92,-567.06 510.22,-571.31 514.99,-576.44"/>
</g>
<!-- file:///tmp/tmpmhv3in9f#reference_tar_germline -->
<g id="node4" class="node">
<title>file:///tmp/tmpmhv3in9f#reference_tar_germline</title>
<g id="a_node4"><a xlink:title="Path to ref data tarball&#10;">
<polygon fill="#94ddf4" stroke="black" points="16.5,-734.8 16.5,-771.8 199.5,-771.8 199.5,-734.8 16.5,-734.8"/>
<text text-anchor="middle" x="108" y="-749.6" font-family="Times,serif" font-size="14.00">reference_tar_germline</text>
</a>
</g>
</g>
<!-- file:///tmp/tmpmhv3in9f#reference_tar_germline&#45;&gt;file:///tmp/tmpmhv3in9f#run_dragen_germline_pipeline_step -->
<g id="edge6" class="edge">
<title>file:///tmp/tmpmhv3in9f#reference_tar_germline&#45;&gt;file:///tmp/tmpmhv3in9f#run_dragen_germline_pipeline_step</title>
<path fill="none" stroke="black" d="M143.93,-734.7C163.19,-725.31 187.35,-713.6 209,-703.3 309.19,-655.62 427.09,-600.94 491.34,-571.26"/>
<polygon fill="black" stroke="black" points="493.19,-574.27 500.8,-566.9 490.26,-567.91 493.19,-574.27"/>
</g>
<!-- file:///tmp/tmpmhv3in9f#output_directory_umccrise -->
<g id="node5" class="node">
<title>file:///tmp/tmpmhv3in9f#output_directory_umccrise</title>
<g id="a_node5"><a xlink:title="The name of the output directory used for umccrise step&#10;">
<polygon fill="#94ddf4" stroke="black" points="1086.5,-734.8 1086.5,-771.8 1293.5,-771.8 1293.5,-734.8 1086.5,-734.8"/>
<text text-anchor="middle" x="1190" y="-749.6" font-family="Times,serif" font-size="14.00">output_directory_umccrise</text>
</a>
</g>
</g>
<!-- file:///tmp/tmpmhv3in9f#output_directory_umccrise&#45;&gt;file:///tmp/tmpmhv3in9f#run_umccrise_pipeline_step -->
<g id="edge7" class="edge">
<title>file:///tmp/tmpmhv3in9f#output_directory_umccrise&#45;&gt;file:///tmp/tmpmhv3in9f#run_umccrise_pipeline_step</title>
<path fill="none" stroke="black" d="M1190,-734.59C1190,-671.62 1190,-458.1 1190,-380.66"/>
<polygon fill="black" stroke="black" points="1193.5,-380.25 1190,-370.25 1186.5,-380.25 1193.5,-380.25"/>
</g>
<!-- file:///tmp/tmpmhv3in9f#subject_identifier_umccrise -->
<g id="node6" class="node">
<title>file:///tmp/tmpmhv3in9f#subject_identifier_umccrise</title>
<g id="a_node6"><a xlink:title="The subject identifier for umccrise to use on output files&#10;">
<polygon fill="#94ddf4" stroke="black" points="1312,-734.8 1312,-771.8 1524,-771.8 1524,-734.8 1312,-734.8"/>
<text text-anchor="middle" x="1418" y="-749.6" font-family="Times,serif" font-size="14.00">subject_identifier_umccrise</text>
</a>
</g>
</g>
<!-- file:///tmp/tmpmhv3in9f#subject_identifier_umccrise&#45;&gt;file:///tmp/tmpmhv3in9f#run_umccrise_pipeline_step -->
<g id="edge8" class="edge">
<title>file:///tmp/tmpmhv3in9f#subject_identifier_umccrise&#45;&gt;file:///tmp/tmpmhv3in9f#run_umccrise_pipeline_step</title>
<path fill="none" stroke="black" d="M1407.91,-734.59C1371.79,-671.23 1248.81,-455.47 1205.36,-379.24"/>
<polygon fill="black" stroke="black" points="1208.23,-377.2 1200.23,-370.25 1202.14,-380.67 1208.23,-377.2"/>
</g>
<!-- file:///tmp/tmpmhv3in9f#fastq_list_rows_germline -->
<g id="node7" class="node">
<title>file:///tmp/tmpmhv3in9f#fastq_list_rows_germline</title>
<g id="a_node7"><a xlink:title="The row of fastq lists.&#10;Each row has the following attributes:&#10; &#160;* RGID&#10; &#160;* RGLB&#10; &#160;* RGSM&#10; &#160;* Lane&#10; &#160;* Read1File&#10; &#160;* Read2File (optional)&#10;">
<polygon fill="#94ddf4" stroke="black" points="442,-734.8 442,-771.8 636,-771.8 636,-734.8 442,-734.8"/>
<text text-anchor="middle" x="539" y="-749.6" font-family="Times,serif" font-size="14.00">fastq_list_rows_germline</text>
</a>
</g>
</g>
<!-- file:///tmp/tmpmhv3in9f#fastq_list_rows_germline&#45;&gt;file:///tmp/tmpmhv3in9f#run_dragen_germline_pipeline_step -->
<g id="edge9" class="edge">
<title>file:///tmp/tmpmhv3in9f#fastq_list_rows_germline&#45;&gt;file:///tmp/tmpmhv3in9f#run_dragen_germline_pipeline_step</title>
<path fill="none" stroke="black" d="M539,-734.64C539,-699.32 539,-619.74 539,-577.26"/>
<polygon fill="black" stroke="black" points="542.5,-577.06 539,-567.06 535.5,-577.06 542.5,-577.06"/>
</g>
<!-- file:///tmp/tmpmhv3in9f#dragen_somatic_directory -->
<g id="node8" class="node">
<title>file:///tmp/tmpmhv3in9f#dragen_somatic_directory</title>
<g id="a_node8"><a xlink:title="The output from the dragen somatic workflow&#10;">
<polygon fill="#94ddf4" stroke="black" points="1542.5,-734.8 1542.5,-771.8 1743.5,-771.8 1743.5,-734.8 1542.5,-734.8"/>
<text text-anchor="middle" x="1643" y="-749.6" font-family="Times,serif" font-size="14.00">dragen_somatic_directory</text>
</a>
</g>
</g>
<!-- file:///tmp/tmpmhv3in9f#dragen_somatic_directory&#45;&gt;file:///tmp/tmpmhv3in9f#run_umccrise_pipeline_step -->
<g id="edge10" class="edge">
<title>file:///tmp/tmpmhv3in9f#dragen_somatic_directory&#45;&gt;file:///tmp/tmpmhv3in9f#run_umccrise_pipeline_step</title>
<path fill="none" stroke="black" d="M1622.95,-734.59C1550.38,-670.51 1301.28,-450.56 1217.64,-376.7"/>
<polygon fill="black" stroke="black" points="1219.89,-374.02 1210.07,-370.02 1215.25,-379.27 1219.89,-374.02"/>
</g>
<!-- file:///tmp/tmpmhv3in9f#umccrise_output_directory -->
<g id="node9" class="node">
<title>file:///tmp/tmpmhv3in9f#umccrise_output_directory</title>
<g id="a_node9"><a xlink:title="The output directory containing all umccrise output files&#10;">
<polygon fill="#94ddf4" stroke="black" points="1086.5,-135.8 1086.5,-172.8 1293.5,-172.8 1293.5,-135.8 1086.5,-135.8"/>
<text text-anchor="middle" x="1190" y="-150.6" font-family="Times,serif" font-size="14.00">umccrise_output_directory</text>
</a>
</g>
</g>
<!-- file:///tmp/tmpmhv3in9f#run_dragen_germline_pipeline_step&#45;&gt;file:///tmp/tmpmhv3in9f#run_umccrise_pipeline_step -->
<g id="edge1" class="edge">
<title>file:///tmp/tmpmhv3in9f#run_dragen_germline_pipeline_step&#45;&gt;file:///tmp/tmpmhv3in9f#run_umccrise_pipeline_step</title>
<path fill="none" stroke="black" d="M597.63,-529.73C718.1,-493.65 992.92,-411.33 1121.41,-372.84"/>
<polygon fill="black" stroke="black" points="1122.57,-376.15 1131.15,-369.93 1120.56,-369.44 1122.57,-376.15"/>
</g>
<!-- file:///tmp/tmpmhv3in9f#run_umccrise_pipeline_step&#45;&gt;file:///tmp/tmpmhv3in9f#umccrise_output_directory -->
<g id="edge2" class="edge">
<title>file:///tmp/tmpmhv3in9f#run_umccrise_pipeline_step&#45;&gt;file:///tmp/tmpmhv3in9f#umccrise_output_directory</title>
<path fill="none" stroke="black" d="M1190,-332.65C1190,-298.65 1190,-223.86 1190,-183.1"/>
<polygon fill="black" stroke="black" points="1193.5,-183.05 1190,-173.05 1186.5,-183.05 1193.5,-183.05"/>
</g>
</g>
</svg>
