<?xml version="1.0" encoding="UTF-8" standalone="no"?>
<!DOCTYPE svg PUBLIC "-//W3C//DTD SVG 1.1//EN"
 "http://www.w3.org/Graphics/SVG/1.1/DTD/svg11.dtd">
<!-- Generated by graphviz version 2.43.0 (0)
 -->
<!-- Title: G Pages: 1 -->
<svg width="1767pt" height="854pt"
 viewBox="0.00 0.00 1767.00 854.08" xmlns="http://www.w3.org/2000/svg" xmlns:xlink="http://www.w3.org/1999/xlink">
<g id="graph0" class="graph" transform="scale(1 1) rotate(0) translate(4 850.08)">
<title>G</title>
<polygon fill="#eeeeee" stroke="transparent" points="-4,4 -4,-850.08 1763,-850.08 1763,4 -4,4"/>
<g id="clust1" class="cluster">
<title>cluster_inputs</title>
<polygon fill="#eeeeee" stroke="black" stroke-dasharray="5,2" points="8,-619.93 8,-824.79 1751,-824.79 1751,-619.93 8,-619.93"/>
<text text-anchor="middle" x="1684.5" y="-627.73" font-family="Times,serif" font-size="14.00">Workflow Inputs</text>
</g>
<g id="clust2" class="cluster">
<title>cluster_outputs</title>
<polygon fill="#eeeeee" stroke="black" stroke-dasharray="5,2" points="1103,-21.29 1103,-226.15 1327,-226.15 1327,-21.29 1103,-21.29"/>
<text text-anchor="middle" x="1254.5" y="-29.09" font-family="Times,serif" font-size="14.00">Workflow Outputs</text>
</g>
<!-- file:///tmp/tmpe4km6gst#fastq_list_rows_germline -->
<g id="node1" class="node">
<title>file:///tmp/tmpe4km6gst#fastq_list_rows_germline</title>
<g id="a_node1"><a xlink:title="The row of fastq lists.&#10;Each row has the following attributes:&#10; &#160;* RGID&#10; &#160;* RGLB&#10; &#160;* RGSM&#10; &#160;* Lane&#10; &#160;* Read1File&#10; &#160;* Read2File (optional)&#10;">
<polygon fill="#94ddf4" stroke="black" points="671,-734.79 671,-771.79 865,-771.79 865,-734.79 671,-734.79"/>
<text text-anchor="middle" x="768" y="-749.59" font-family="Times,serif" font-size="14.00">fastq_list_rows_germline</text>
</a>
</g>
</g>
<!-- file:///tmp/tmpe4km6gst#run_dragen_germline_pipeline_step -->
<g id="node10" class="node">
<title>file:///tmp/tmpe4km6gst#run_dragen_germline_pipeline_step</title>
<g id="a_node10"><a xlink:href="https://github.com/umccr/cwl-ica/blob/main/.github/catalogue/docs/workflows/dragen-germline-pipeline/3.9.3/dragen-germline-pipeline__3.9.3.md" xlink:title="Run the dragen germline workflow against the normal fastq.&#10;">
<polygon fill="#ee7ae9" stroke="black" points="422,-529.79 422,-566.79 678,-566.79 678,-529.79 422,-529.79"/>
<text text-anchor="middle" x="550" y="-544.59" font-family="Times,serif" font-size="14.00">dragen&#45;germline&#45;pipeline v(3.9.3)</text>
</a>
</g>
</g>
<!-- file:///tmp/tmpe4km6gst#fastq_list_rows_germline&#45;&gt;file:///tmp/tmpe4km6gst#run_dragen_germline_pipeline_step -->
<g id="edge3" class="edge">
<title>file:///tmp/tmpe4km6gst#fastq_list_rows_germline&#45;&gt;file:///tmp/tmpe4km6gst#run_dragen_germline_pipeline_step</title>
<path fill="none" stroke="black" d="M749.04,-734.63C710.14,-698.41 621.26,-615.64 576.62,-574.07"/>
<polygon fill="black" stroke="black" points="578.78,-571.3 569.08,-567.05 574.01,-576.42 578.78,-571.3"/>
</g>
<!-- file:///tmp/tmpe4km6gst#output_directory_umccrise -->
<g id="node2" class="node">
<title>file:///tmp/tmpe4km6gst#output_directory_umccrise</title>
<g id="a_node2"><a xlink:title="The name of the output directory used for umccrise step&#10;">
<polygon fill="#94ddf4" stroke="black" points="883.5,-734.79 883.5,-771.79 1090.5,-771.79 1090.5,-734.79 883.5,-734.79"/>
<text text-anchor="middle" x="987" y="-749.59" font-family="Times,serif" font-size="14.00">output_directory_umccrise</text>
</a>
</g>
</g>
<!-- file:///tmp/tmpe4km6gst#run_umccrise_pipeline_step -->
<g id="node11" class="node">
<title>file:///tmp/tmpe4km6gst#run_umccrise_pipeline_step</title>
<g id="a_node11"><a xlink:href="https://github.com/umccr/cwl-ica/blob/main/.github/catalogue/docs/tools/umccrise/2.0.0--0/umccrise__2.0.0--0.md" xlink:title="Run the umccrise pipeline using the input somatic directory and output from the dragen germline step&#10;">
<polygon fill="lightgoldenrodyellow" stroke="black" points="1136,-332.79 1136,-369.79 1294,-369.79 1294,-332.79 1136,-332.79"/>
<text text-anchor="middle" x="1215" y="-347.59" font-family="Times,serif" font-size="14.00">umccrise v(2.0.0&#45;&#45;0)</text>
</a>
</g>
</g>
<!-- file:///tmp/tmpe4km6gst#output_directory_umccrise&#45;&gt;file:///tmp/tmpe4km6gst#run_umccrise_pipeline_step -->
<g id="edge4" class="edge">
<title>file:///tmp/tmpe4km6gst#output_directory_umccrise&#45;&gt;file:///tmp/tmpe4km6gst#run_umccrise_pipeline_step</title>
<path fill="none" stroke="black" d="M997.09,-734.58C1033.21,-671.22 1156.19,-455.46 1199.64,-379.23"/>
<polygon fill="black" stroke="black" points="1202.86,-380.66 1204.77,-370.24 1196.77,-377.19 1202.86,-380.66"/>
</g>
<!-- file:///tmp/tmpe4km6gst#reference_tar_germline -->
<g id="node3" class="node">
<title>file:///tmp/tmpe4km6gst#reference_tar_germline</title>
<g id="a_node3"><a xlink:title="Path to ref data tarball&#10;">
<polygon fill="#94ddf4" stroke="black" points="245.5,-734.79 245.5,-771.79 428.5,-771.79 428.5,-734.79 245.5,-734.79"/>
<text text-anchor="middle" x="337" y="-749.59" font-family="Times,serif" font-size="14.00">reference_tar_germline</text>
</a>
</g>
</g>
<!-- file:///tmp/tmpe4km6gst#reference_tar_germline&#45;&gt;file:///tmp/tmpe4km6gst#run_dragen_germline_pipeline_step -->
<g id="edge5" class="edge">
<title>file:///tmp/tmpe4km6gst#reference_tar_germline&#45;&gt;file:///tmp/tmpe4km6gst#run_dragen_germline_pipeline_step</title>
<path fill="none" stroke="black" d="M355.53,-734.63C393.53,-698.41 480.38,-615.64 523.99,-574.07"/>
<polygon fill="black" stroke="black" points="526.54,-576.48 531.36,-567.05 521.71,-571.41 526.54,-576.48"/>
</g>
<!-- file:///tmp/tmpe4km6gst#output_file_prefix_germline -->
<g id="node4" class="node">
<title>file:///tmp/tmpe4km6gst#output_file_prefix_germline</title>
<g id="a_node4"><a xlink:title="The prefix given to all output files&#10;">
<polygon fill="#94ddf4" stroke="black" points="16.5,-734.79 16.5,-771.79 227.5,-771.79 227.5,-734.79 16.5,-734.79"/>
<text text-anchor="middle" x="122" y="-749.59" font-family="Times,serif" font-size="14.00">output_file_prefix_germline</text>
</a>
</g>
</g>
<!-- file:///tmp/tmpe4km6gst#output_file_prefix_germline&#45;&gt;file:///tmp/tmpe4km6gst#run_dragen_germline_pipeline_step -->
<g id="edge6" class="edge">
<title>file:///tmp/tmpe4km6gst#output_file_prefix_germline&#45;&gt;file:///tmp/tmpe4km6gst#run_dragen_germline_pipeline_step</title>
<path fill="none" stroke="black" d="M159.23,-734.63C237.35,-697.57 418.18,-611.81 503.65,-571.27"/>
<polygon fill="black" stroke="black" points="505.32,-574.35 512.85,-566.9 502.32,-568.03 505.32,-574.35"/>
</g>
<!-- file:///tmp/tmpe4km6gst#subject_identifier_umccrise -->
<g id="node5" class="node">
<title>file:///tmp/tmpe4km6gst#subject_identifier_umccrise</title>
<g id="a_node5"><a xlink:title="The subject identifier for umccrise to use on output files&#10;">
<polygon fill="#94ddf4" stroke="black" points="1109,-734.79 1109,-771.79 1321,-771.79 1321,-734.79 1109,-734.79"/>
<text text-anchor="middle" x="1215" y="-749.59" font-family="Times,serif" font-size="14.00">subject_identifier_umccrise</text>
</a>
</g>
</g>
<!-- file:///tmp/tmpe4km6gst#subject_identifier_umccrise&#45;&gt;file:///tmp/tmpe4km6gst#run_umccrise_pipeline_step -->
<g id="edge7" class="edge">
<title>file:///tmp/tmpe4km6gst#subject_identifier_umccrise&#45;&gt;file:///tmp/tmpe4km6gst#run_umccrise_pipeline_step</title>
<path fill="none" stroke="black" d="M1215,-734.58C1215,-671.61 1215,-458.09 1215,-380.64"/>
<polygon fill="black" stroke="black" points="1218.5,-380.24 1215,-370.24 1211.5,-380.24 1218.5,-380.24"/>
</g>
<!-- file:///tmp/tmpe4km6gst#dragen_somatic_directory -->
<g id="node6" class="node">
<title>file:///tmp/tmpe4km6gst#dragen_somatic_directory</title>
<g id="a_node6"><a xlink:title="The output from the dragen somatic workflow&#10;">
<polygon fill="#94ddf4" stroke="black" points="1339.5,-734.79 1339.5,-771.79 1540.5,-771.79 1540.5,-734.79 1339.5,-734.79"/>
<text text-anchor="middle" x="1440" y="-749.59" font-family="Times,serif" font-size="14.00">dragen_somatic_directory</text>
</a>
</g>
</g>
<!-- file:///tmp/tmpe4km6gst#dragen_somatic_directory&#45;&gt;file:///tmp/tmpe4km6gst#run_umccrise_pipeline_step -->
<g id="edge8" class="edge">
<title>file:///tmp/tmpe4km6gst#dragen_somatic_directory&#45;&gt;file:///tmp/tmpe4km6gst#run_umccrise_pipeline_step</title>
<path fill="none" stroke="black" d="M1430.04,-734.58C1394.4,-671.22 1273.04,-455.46 1230.16,-379.23"/>
<polygon fill="black" stroke="black" points="1233.05,-377.24 1225.1,-370.24 1226.95,-380.67 1233.05,-377.24"/>
</g>
<!-- file:///tmp/tmpe4km6gst#output_directory_germline -->
<g id="node7" class="node">
<title>file:///tmp/tmpe4km6gst#output_directory_germline</title>
<g id="a_node7"><a xlink:title="The directory where all output files are placed&#10;">
<polygon fill="#94ddf4" stroke="black" points="447,-734.79 447,-771.79 653,-771.79 653,-734.79 447,-734.79"/>
<text text-anchor="middle" x="550" y="-749.59" font-family="Times,serif" font-size="14.00">output_directory_germline</text>
</a>
</g>
</g>
<!-- file:///tmp/tmpe4km6gst#output_directory_germline&#45;&gt;file:///tmp/tmpe4km6gst#run_dragen_germline_pipeline_step -->
<g id="edge9" class="edge">
<title>file:///tmp/tmpe4km6gst#output_directory_germline&#45;&gt;file:///tmp/tmpe4km6gst#run_dragen_germline_pipeline_step</title>
<path fill="none" stroke="black" d="M550,-734.63C550,-699.31 550,-619.73 550,-577.24"/>
<polygon fill="black" stroke="black" points="553.5,-577.05 550,-567.05 546.5,-577.05 553.5,-577.05"/>
</g>
<!-- file:///tmp/tmpe4km6gst#reference_tar_umccrise -->
<g id="node8" class="node">
<title>file:///tmp/tmpe4km6gst#reference_tar_umccrise</title>
<g id="a_node8"><a xlink:title="The reference tar ball for umccrise&#10;">
<polygon fill="#94ddf4" stroke="black" points="1559,-734.79 1559,-771.79 1743,-771.79 1743,-734.79 1559,-734.79"/>
<text text-anchor="middle" x="1651" y="-749.59" font-family="Times,serif" font-size="14.00">reference_tar_umccrise</text>
</a>
</g>
</g>
<!-- file:///tmp/tmpe4km6gst#reference_tar_umccrise&#45;&gt;file:///tmp/tmpe4km6gst#run_umccrise_pipeline_step -->
<g id="edge10" class="edge">
<title>file:///tmp/tmpe4km6gst#reference_tar_umccrise&#45;&gt;file:///tmp/tmpe4km6gst#run_umccrise_pipeline_step</title>
<path fill="none" stroke="black" d="M1631.7,-734.58C1562.08,-670.7 1323.62,-451.93 1242.37,-377.4"/>
<polygon fill="black" stroke="black" points="1244.3,-374.42 1234.57,-370.24 1239.57,-379.58 1244.3,-374.42"/>
</g>
<!-- file:///tmp/tmpe4km6gst#umccrise_output_directory -->
<g id="node9" class="node">
<title>file:///tmp/tmpe4km6gst#umccrise_output_directory</title>
<g id="a_node9"><a xlink:title="The output directory containing all umccrise output files&#10;">
<polygon fill="#94ddf4" stroke="black" points="1111.5,-135.79 1111.5,-172.79 1318.5,-172.79 1318.5,-135.79 1111.5,-135.79"/>
<text text-anchor="middle" x="1215" y="-150.59" font-family="Times,serif" font-size="14.00">umccrise_output_directory</text>
</a>
</g>
</g>
<!-- file:///tmp/tmpe4km6gst#run_dragen_germline_pipeline_step&#45;&gt;file:///tmp/tmpe4km6gst#run_umccrise_pipeline_step -->
<g id="edge1" class="edge">
<title>file:///tmp/tmpe4km6gst#run_dragen_germline_pipeline_step&#45;&gt;file:///tmp/tmpe4km6gst#run_umccrise_pipeline_step</title>
<path fill="none" stroke="black" d="M609.89,-529.72C732.95,-493.64 1013.69,-411.32 1144.93,-372.83"/>
<polygon fill="black" stroke="black" points="1146.27,-376.09 1154.88,-369.91 1144.3,-369.37 1146.27,-376.09"/>
</g>
<!-- file:///tmp/tmpe4km6gst#run_umccrise_pipeline_step&#45;&gt;file:///tmp/tmpe4km6gst#umccrise_output_directory -->
<g id="edge2" class="edge">
<title>file:///tmp/tmpe4km6gst#run_umccrise_pipeline_step&#45;&gt;file:///tmp/tmpe4km6gst#umccrise_output_directory</title>
<path fill="none" stroke="black" d="M1215,-332.64C1215,-298.64 1215,-223.85 1215,-183.09"/>
<polygon fill="black" stroke="black" points="1218.5,-183.03 1215,-173.03 1211.5,-183.03 1218.5,-183.03"/>
</g>
</g>
</svg>
