<?xml version="1.0" encoding="UTF-8" standalone="no"?>
<!DOCTYPE svg PUBLIC "-//W3C//DTD SVG 1.1//EN"
 "http://www.w3.org/Graphics/SVG/1.1/DTD/svg11.dtd">
<!-- Generated by graphviz version 2.40.1 (20161225.0304)
 -->
<!-- Title: G Pages: 1 -->
<svg width="1235pt" height="598pt"
 viewBox="0.00 0.00 1235.00 598.19" xmlns="http://www.w3.org/2000/svg" xmlns:xlink="http://www.w3.org/1999/xlink">
<g id="graph0" class="graph" transform="scale(1 1) rotate(0) translate(4 594.187)">
<title>G</title>
<polygon fill="#eeeeee" stroke="transparent" points="-4,4 -4,-594.187 1231,-594.187 1231,4 -4,4"/>
<g id="clust1" class="cluster">
<title>cluster_inputs</title>
<polygon fill="#eeeeee" stroke="#000000" stroke-dasharray="5,2" points="8,-497.2872 8,-581.4435 1219,-581.4435 1219,-497.2872 8,-497.2872"/>
<text text-anchor="middle" x="1151" y="-505.0872" font-family="Times,serif" font-size="14.00" fill="#000000">Workflow Inputs</text>
</g>
<g id="clust2" class="cluster">
<title>cluster_outputs</title>
<polygon fill="#eeeeee" stroke="#000000" stroke-dasharray="5,2" points="649,-8.7435 649,-92.8998 1063,-92.8998 1063,-8.7435 649,-8.7435"/>
<text text-anchor="middle" x="989" y="-16.5435" font-family="Times,serif" font-size="14.00" fill="#000000">Workflow Outputs</text>
</g>
<!-- file:///tmp/tmpgvczct27#resources_dir -->
<g id="node1" class="node">
<title>file:///tmp/tmpgvczct27#resources_dir</title>
<g id="a_node1"><a xlink:title="The directory of resources&#10;">
<polygon fill="#94ddf4" stroke="#000000" points="16.5,-533.2435 16.5,-570.2435 131.5,-570.2435 131.5,-533.2435 16.5,-533.2435"/>
<text text-anchor="middle" x="74" y="-548.0435" font-family="Times,serif" font-size="14.00" fill="#000000">resources_dir</text>
</a>
</g>
</g>
<!-- file:///tmp/tmpgvczct27#run_tso_ctdna_workflow_step -->
<g id="node14" class="node">
<title>file:///tmp/tmpgvczct27#run_tso_ctdna_workflow_step</title>
<g id="a_node14"><a xlink:href="https://github.com/umccr/cwl-ica/blob/main/.github/catalogue/docs/workflows/tso500-ctdna/1.1.0--120/tso500-ctdna__1.1.0--120.md" xlink:title="Run the CWL version of the tso500 ctDNA WDL / ISL workflow&#10;">
<polygon fill="#ee7ae9" stroke="#000000" points="508,-449.2435 508,-486.2435 714,-486.2435 714,-449.2435 508,-449.2435"/>
<text text-anchor="middle" x="611" y="-464.0435" font-family="Times,serif" font-size="14.00" fill="#000000">tso500&#45;ctdna v(1.1.0&#45;&#45;120)</text>
</a>
</g>
</g>
<!-- file:///tmp/tmpgvczct27#resources_dir&#45;&gt;file:///tmp/tmpgvczct27#run_tso_ctdna_workflow_step -->
<g id="edge10" class="edge">
<title>file:///tmp/tmpgvczct27#resources_dir&#45;&gt;file:///tmp/tmpgvczct27#run_tso_ctdna_workflow_step</title>
<path fill="none" stroke="#000000" d="M92.7015,-533.0517C105.2338,-521.8103 122.7347,-508.4241 141,-501.7435 193.0607,-482.7022 334.7139,-490.7846 390,-486.7435 425.0439,-484.182 463.1817,-481.0328 497.7563,-478.0402"/>
<polygon fill="#000000" stroke="#000000" points="498.2255,-481.5127 507.8846,-477.1592 497.6189,-474.539 498.2255,-481.5127"/>
</g>
<!-- file:///tmp/tmpgvczct27#get_tso_manifest_bed_from_resources_dir -->
<g id="node17" class="node">
<title>file:///tmp/tmpgvczct27#get_tso_manifest_bed_from_resources_dir</title>
<g id="a_node17"><a xlink:href="https://github.com/umccr/cwl-ica/blob/main/.github/catalogue/docs/expressions/get-file-from-directory/1.0.0/get-file-from-directory__1.0.0.md" xlink:title="Given the resources directory collect the following file:&#10; &#160;* TST500C_manifest.bed&#10;">
<polygon fill="#ee9a00" stroke="#000000" points="145.5,-449.2435 145.5,-486.2435 380.5,-486.2435 380.5,-449.2435 145.5,-449.2435"/>
<text text-anchor="middle" x="263" y="-464.0435" font-family="Times,serif" font-size="14.00" fill="#000000">get&#45;file&#45;from&#45;directory v(1.0.0)</text>
</a>
</g>
</g>
<!-- file:///tmp/tmpgvczct27#resources_dir&#45;&gt;file:///tmp/tmpgvczct27#get_tso_manifest_bed_from_resources_dir -->
<g id="edge11" class="edge">
<title>file:///tmp/tmpgvczct27#resources_dir&#45;&gt;file:///tmp/tmpgvczct27#get_tso_manifest_bed_from_resources_dir</title>
<path fill="none" stroke="#000000" d="M94.699,-533.1295C107.3124,-522.6275 124.1938,-509.9959 141,-501.7435 150.3479,-497.1533 160.4129,-493.0978 170.6096,-489.5363"/>
<polygon fill="#000000" stroke="#000000" points="172.0264,-492.7535 180.4072,-486.2716 169.8135,-486.1124 172.0264,-492.7535"/>
</g>
<!-- file:///tmp/tmpgvczct27#run_parameters_xml -->
<g id="node2" class="node">
<title>file:///tmp/tmpgvczct27#run_parameters_xml</title>
<g id="a_node2"><a xlink:title="The run parameters xml file found inside the run folder&#10;">
<polygon fill="#94ddf4" stroke="#000000" points="771.5,-533.2435 771.5,-570.2435 936.5,-570.2435 936.5,-533.2435 771.5,-533.2435"/>
<text text-anchor="middle" x="854" y="-548.0435" font-family="Times,serif" font-size="14.00" fill="#000000">run_parameters_xml</text>
</a>
</g>
</g>
<!-- file:///tmp/tmpgvczct27#run_parameters_xml&#45;&gt;file:///tmp/tmpgvczct27#run_tso_ctdna_workflow_step -->
<g id="edge12" class="edge">
<title>file:///tmp/tmpgvczct27#run_parameters_xml&#45;&gt;file:///tmp/tmpgvczct27#run_tso_ctdna_workflow_step</title>
<path fill="none" stroke="#000000" d="M825.0941,-533.1046C807.69,-522.5942 784.7531,-509.9623 763,-501.7435 750.1762,-496.8984 736.4707,-492.639 722.7355,-488.9232"/>
<polygon fill="#000000" stroke="#000000" points="723.301,-485.4535 712.7411,-486.313 721.5321,-492.2263 723.301,-485.4535"/>
</g>
<!-- file:///tmp/tmpgvczct27#fastq_list_rows -->
<g id="node3" class="node">
<title>file:///tmp/tmpgvczct27#fastq_list_rows</title>
<g id="a_node3"><a xlink:title="A list of fastq list rows where each element has the following attributes&#10;* rgid &#160;# Not used&#10;* rgsm&#10;* rglb &#160;# Not used&#10;* read_1&#10;* read_2&#10;">
<polygon fill="#94ddf4" stroke="#000000" points="628.5,-533.2435 628.5,-570.2435 753.5,-570.2435 753.5,-533.2435 628.5,-533.2435"/>
<text text-anchor="middle" x="691" y="-548.0435" font-family="Times,serif" font-size="14.00" fill="#000000">fastq_list_rows</text>
</a>
</g>
</g>
<!-- file:///tmp/tmpgvczct27#fastq_list_rows&#45;&gt;file:///tmp/tmpgvczct27#run_tso_ctdna_workflow_step -->
<g id="edge13" class="edge">
<title>file:///tmp/tmpgvczct27#fastq_list_rows&#45;&gt;file:///tmp/tmpgvczct27#run_tso_ctdna_workflow_step</title>
<path fill="none" stroke="#000000" d="M673.2454,-533.1012C662.2667,-521.5735 648.0096,-506.6036 635.9107,-493.8998"/>
<polygon fill="#000000" stroke="#000000" points="638.136,-491.1613 628.705,-486.3337 633.0671,-495.9889 638.136,-491.1613"/>
</g>
<!-- file:///tmp/tmpgvczct27#samplesheet_prefix -->
<g id="node4" class="node">
<title>file:///tmp/tmpgvczct27#samplesheet_prefix</title>
<g id="a_node4"><a xlink:title="Points to the TSO500 section of the samplesheet. &#160;If you are using a samplesheet from BCLConvert,&#10;please set this to &quot;BCLConvert&quot;&#10;">
<polygon fill="#94ddf4" stroke="#000000" points="454,-533.2435 454,-570.2435 610,-570.2435 610,-533.2435 454,-533.2435"/>
<text text-anchor="middle" x="532" y="-548.0435" font-family="Times,serif" font-size="14.00" fill="#000000">samplesheet_prefix</text>
</a>
</g>
</g>
<!-- file:///tmp/tmpgvczct27#samplesheet_prefix&#45;&gt;file:///tmp/tmpgvczct27#run_tso_ctdna_workflow_step -->
<g id="edge14" class="edge">
<title>file:///tmp/tmpgvczct27#samplesheet_prefix&#45;&gt;file:///tmp/tmpgvczct27#run_tso_ctdna_workflow_step</title>
<path fill="none" stroke="#000000" d="M549.5327,-533.1012C560.3742,-521.5735 574.453,-506.6036 586.4007,-493.8998"/>
<polygon fill="#000000" stroke="#000000" points="589.215,-496.0161 593.5163,-486.3337 584.1158,-491.2205 589.215,-496.0161"/>
</g>
<!-- file:///tmp/tmpgvczct27#tso500_samples -->
<g id="node5" class="node">
<title>file:///tmp/tmpgvczct27#tso500_samples</title>
<g id="a_node5"><a xlink:title="A list of tso500 samples each element has the following attributes:&#10;* sample_id&#10;* sample_type&#10;* pair_id&#10;">
<polygon fill="#94ddf4" stroke="#000000" points="1079.5,-533.2435 1079.5,-570.2435 1210.5,-570.2435 1210.5,-533.2435 1079.5,-533.2435"/>
<text text-anchor="middle" x="1145" y="-548.0435" font-family="Times,serif" font-size="14.00" fill="#000000">tso500_samples</text>
</a>
</g>
</g>
<!-- file:///tmp/tmpgvczct27#tso500_samples&#45;&gt;file:///tmp/tmpgvczct27#run_tso_ctdna_workflow_step -->
<g id="edge15" class="edge">
<title>file:///tmp/tmpgvczct27#tso500_samples&#45;&gt;file:///tmp/tmpgvczct27#run_tso_ctdna_workflow_step</title>
<path fill="none" stroke="#000000" d="M1123.9732,-533.1406C1109.9834,-521.9346 1090.6285,-508.5545 1071,-501.7435 1062.8663,-498.9212 857.9673,-484.5403 724.4073,-475.4087"/>
<polygon fill="#000000" stroke="#000000" points="724.3341,-471.8956 714.1188,-474.706 723.857,-478.8793 724.3341,-471.8956"/>
</g>
<!-- file:///tmp/tmpgvczct27#get_sample_ids_from_tso500_sample_object -->
<g id="node16" class="node">
<title>file:///tmp/tmpgvczct27#get_sample_ids_from_tso500_sample_object</title>
<g id="a_node16"><a xlink:href="https://github.com/umccr/cwl-ica/blob/main/.github/catalogue/docs/expressions/get-attr-from-tso500-sample-object/1.0.0/get-attr-from-tso500-sample-object__1.0.0.md" xlink:title="Generate a list of sample ids from the tso500 sample objects&#10;">
<polygon fill="#ee9a00" stroke="#000000" points="896,-449.2435 896,-486.2435 1222,-486.2435 1222,-449.2435 896,-449.2435"/>
<text text-anchor="middle" x="1059" y="-464.0435" font-family="Times,serif" font-size="14.00" fill="#000000">get&#45;attr&#45;from&#45;tso500&#45;sample&#45;object v(1.0.0)</text>
</a>
</g>
</g>
<!-- file:///tmp/tmpgvczct27#tso500_samples&#45;&gt;file:///tmp/tmpgvczct27#get_sample_ids_from_tso500_sample_object -->
<g id="edge16" class="edge">
<title>file:///tmp/tmpgvczct27#tso500_samples&#45;&gt;file:///tmp/tmpgvczct27#get_sample_ids_from_tso500_sample_object</title>
<path fill="none" stroke="#000000" d="M1125.9138,-533.1012C1114.0003,-521.4647 1098.4958,-506.3208 1085.4116,-493.5408"/>
<polygon fill="#000000" stroke="#000000" points="1087.6322,-490.8173 1078.0328,-486.3337 1082.741,-495.825 1087.6322,-490.8173"/>
</g>
<!-- file:///tmp/tmpgvczct27#dragen_license_key -->
<g id="node6" class="node">
<title>file:///tmp/tmpgvczct27#dragen_license_key</title>
<g id="a_node6"><a xlink:title="File containing the dragen license&#10;">
<polygon fill="#94ddf4" stroke="#000000" points="150,-533.2435 150,-570.2435 308,-570.2435 308,-533.2435 150,-533.2435"/>
<text text-anchor="middle" x="229" y="-548.0435" font-family="Times,serif" font-size="14.00" fill="#000000">dragen_license_key</text>
</a>
</g>
</g>
<!-- file:///tmp/tmpgvczct27#dragen_license_key&#45;&gt;file:///tmp/tmpgvczct27#run_tso_ctdna_workflow_step -->
<g id="edge17" class="edge">
<title>file:///tmp/tmpgvczct27#dragen_license_key&#45;&gt;file:///tmp/tmpgvczct27#run_tso_ctdna_workflow_step</title>
<path fill="none" stroke="#000000" d="M255.039,-533.2361C271.9017,-522.2163 294.7863,-509.0043 317,-501.7435 349.934,-490.9787 429.7651,-482.1197 497.9397,-476.1462"/>
<polygon fill="#000000" stroke="#000000" points="498.2447,-479.633 507.9066,-475.2859 497.6427,-472.6589 498.2447,-479.633"/>
</g>
<!-- file:///tmp/tmpgvczct27#samplesheet -->
<g id="node7" class="node">
<title>file:///tmp/tmpgvczct27#samplesheet</title>
<g id="a_node7"><a xlink:title="The sample sheet file, expects a V2 samplesheet.&#10;Even though we don&#39;t demultiplex, we still need the information on Sample_Type and Pair_ID to determine which&#10;workflow (DNA / RNA) to run through, we gather this through the tso500_samples input schema and then append to the&#10;samplesheet. Please make sure that the sample_id in the tso500 sample schema match the Sample_ID in the&#10;&quot;&lt;samplesheet_prefix&gt;_Data&quot; column.&#10;">
<polygon fill="#94ddf4" stroke="#000000" points="954.5,-533.2435 954.5,-570.2435 1061.5,-570.2435 1061.5,-533.2435 954.5,-533.2435"/>
<text text-anchor="middle" x="1008" y="-548.0435" font-family="Times,serif" font-size="14.00" fill="#000000">samplesheet</text>
</a>
</g>
</g>
<!-- file:///tmp/tmpgvczct27#samplesheet&#45;&gt;file:///tmp/tmpgvczct27#run_tso_ctdna_workflow_step -->
<g id="edge18" class="edge">
<title>file:///tmp/tmpgvczct27#samplesheet&#45;&gt;file:///tmp/tmpgvczct27#run_tso_ctdna_workflow_step</title>
<path fill="none" stroke="#000000" d="M990.5964,-533.0489C979.081,-521.9566 963.0109,-508.734 946,-501.7435 906.9805,-485.7087 805.4794,-476.9473 724.3504,-472.3547"/>
<polygon fill="#000000" stroke="#000000" points="724.2364,-468.8432 714.059,-471.7881 723.8515,-475.8326 724.2364,-468.8432"/>
</g>
<!-- file:///tmp/tmpgvczct27#run_info_xml -->
<g id="node8" class="node">
<title>file:///tmp/tmpgvczct27#run_info_xml</title>
<g id="a_node8"><a xlink:title="The run info xml file found inside the run folder&#10;">
<polygon fill="#94ddf4" stroke="#000000" points="326,-533.2435 326,-570.2435 436,-570.2435 436,-533.2435 326,-533.2435"/>
<text text-anchor="middle" x="381" y="-548.0435" font-family="Times,serif" font-size="14.00" fill="#000000">run_info_xml</text>
</a>
</g>
</g>
<!-- file:///tmp/tmpgvczct27#run_info_xml&#45;&gt;file:///tmp/tmpgvczct27#run_tso_ctdna_workflow_step -->
<g id="edge19" class="edge">
<title>file:///tmp/tmpgvczct27#run_info_xml&#45;&gt;file:///tmp/tmpgvczct27#run_tso_ctdna_workflow_step</title>
<path fill="none" stroke="#000000" d="M399.8809,-533.1611C411.865,-522.3987 428.2307,-509.4874 445,-501.7435 461.5263,-494.1118 479.7621,-488.183 497.9153,-483.5798"/>
<polygon fill="#000000" stroke="#000000" points="498.7836,-486.9708 507.6845,-481.2241 497.1427,-480.1659 498.7836,-486.9708"/>
</g>
<!-- file:///tmp/tmpgvczct27#output_results_dir -->
<g id="node9" class="node">
<title>file:///tmp/tmpgvczct27#output_results_dir</title>
<g id="a_node9"><a xlink:title="The output directory&#10;">
<polygon fill="#94ddf4" stroke="#000000" points="656.5,-45.2435 656.5,-82.2435 805.5,-82.2435 805.5,-45.2435 656.5,-45.2435"/>
<text text-anchor="middle" x="731" y="-60.0435" font-family="Times,serif" font-size="14.00" fill="#000000">output_results_dir</text>
</a>
</g>
</g>
<!-- file:///tmp/tmpgvczct27#output_results_dir_by_sample -->
<g id="node10" class="node">
<title>file:///tmp/tmpgvczct27#output_results_dir_by_sample</title>
<g id="a_node10"><a xlink:title="The sample subdirectory of the results&#10;">
<polygon fill="#94ddf4" stroke="#000000" points="823,-45.2435 823,-82.2435 1055,-82.2435 1055,-45.2435 823,-45.2435"/>
<text text-anchor="middle" x="939" y="-60.0435" font-family="Times,serif" font-size="14.00" fill="#000000">output_results_dir_by_sample</text>
</a>
</g>
</g>
<!-- file:///tmp/tmpgvczct27#run_tso_ctdna_post_processing_workflow_step -->
<g id="node11" class="node">
<title>file:///tmp/tmpgvczct27#run_tso_ctdna_post_processing_workflow_step</title>
<g id="a_node11"><a xlink:href="https://github.com/umccr/cwl-ica/blob/main/.github/catalogue/docs/workflows/tso500-ctdna-post-processing-pipeline/1.0.0/tso500-ctdna-post-processing-pipeline__1.0.0.md" xlink:title="Run the very customised ctdna post processing workflow step for each sample&#10;">
<polygon fill="#ee7ae9" stroke="#000000" points="274.5,-368.2435 274.5,-405.2435 623.5,-405.2435 623.5,-368.2435 274.5,-368.2435"/>
<text text-anchor="middle" x="449" y="-383.0435" font-family="Times,serif" font-size="14.00" fill="#000000">tso500&#45;ctdna&#45;post&#45;processing&#45;pipeline v(1.0.0)</text>
</a>
</g>
</g>
<!-- file:///tmp/tmpgvczct27#get_final_directory_output_for_tso500_pipeline -->
<g id="node12" class="node">
<title>file:///tmp/tmpgvczct27#get_final_directory_output_for_tso500_pipeline</title>
<g id="a_node12"><a xlink:href="https://github.com/umccr/cwl-ica/blob/main/.github/catalogue/docs/expressions/get-custom-output-dir-entry-for-tso500-with-post-processing/1.0.0/get-custom-output-dir-entry-for-tso500-with-post-processing__1.0.0.md" xlink:title="Create the output directory containing all the files and directories listed in the previous step.&#10;">
<polygon fill="#ee9a00" stroke="#000000" points="398.5,-287.2435 398.5,-324.2435 905.5,-324.2435 905.5,-287.2435 398.5,-287.2435"/>
<text text-anchor="middle" x="652" y="-302.0435" font-family="Times,serif" font-size="14.00" fill="#000000">get&#45;custom&#45;output&#45;dir&#45;entry&#45;for&#45;tso500&#45;with&#45;post&#45;processing v(1.0.0)</text>
</a>
</g>
</g>
<!-- file:///tmp/tmpgvczct27#run_tso_ctdna_post_processing_workflow_step&#45;&gt;file:///tmp/tmpgvczct27#get_final_directory_output_for_tso500_pipeline -->
<g id="edge1" class="edge">
<title>file:///tmp/tmpgvczct27#run_tso_ctdna_post_processing_workflow_step&#45;&gt;file:///tmp/tmpgvczct27#get_final_directory_output_for_tso500_pipeline</title>
<path fill="none" stroke="#000000" d="M495.5723,-368.1605C525.3813,-356.2663 564.2352,-340.763 595.7624,-328.1831"/>
<polygon fill="#000000" stroke="#000000" points="597.3025,-331.337 605.2933,-324.3802 594.7083,-324.8355 597.3025,-331.337"/>
</g>
<!-- file:///tmp/tmpgvczct27#create_final_output_directory -->
<g id="node13" class="node">
<title>file:///tmp/tmpgvczct27#create_final_output_directory</title>
<g id="a_node13"><a xlink:href="https://github.com/umccr/cwl-ica/blob/main/.github/catalogue/docs/tools/custom-create-directory/2.0.0/custom-create-directory__2.0.0.md" xlink:title="Create the output directory containing all the files listed in the previous step.&#10;">
<polygon fill="#fafad2" stroke="#000000" points="606.5,-206.2435 606.5,-243.2435 855.5,-243.2435 855.5,-206.2435 606.5,-206.2435"/>
<text text-anchor="middle" x="731" y="-221.0435" font-family="Times,serif" font-size="14.00" fill="#000000">custom&#45;create&#45;directory v(2.0.0)</text>
</a>
</g>
</g>
<!-- file:///tmp/tmpgvczct27#get_final_directory_output_for_tso500_pipeline&#45;&gt;file:///tmp/tmpgvczct27#create_final_output_directory -->
<g id="edge2" class="edge">
<title>file:///tmp/tmpgvczct27#get_final_directory_output_for_tso500_pipeline&#45;&gt;file:///tmp/tmpgvczct27#create_final_output_directory</title>
<path fill="none" stroke="#000000" d="M670.3228,-286.9569C680.7921,-276.2225 694.0794,-262.5988 705.5495,-250.8384"/>
<polygon fill="#000000" stroke="#000000" points="708.3001,-253.0309 712.7766,-243.4283 703.2888,-248.1434 708.3001,-253.0309"/>
</g>
<!-- file:///tmp/tmpgvczct27#create_final_output_directory&#45;&gt;file:///tmp/tmpgvczct27#output_results_dir -->
<g id="edge6" class="edge">
<title>file:///tmp/tmpgvczct27#create_final_output_directory&#45;&gt;file:///tmp/tmpgvczct27#output_results_dir</title>
<path fill="none" stroke="#000000" d="M731,-205.9597C731,-178.0874 731,-125.5461 731,-92.7201"/>
<polygon fill="#000000" stroke="#000000" points="734.5001,-92.4077 731,-82.4077 727.5001,-92.4077 734.5001,-92.4077"/>
</g>
<!-- file:///tmp/tmpgvczct27#get_sample_output_directory -->
<g id="node15" class="node">
<title>file:///tmp/tmpgvczct27#get_sample_output_directory</title>
<g id="a_node15"><a xlink:href="https://github.com/umccr/cwl-ica/blob/main/.github/catalogue/docs/expressions/get-subdirectory-from-directory/1.0.0/get-subdirectory-from-directory__1.0.0.md" xlink:title="The sample output directory containing all of the samples post&#45;processing files&#10;">
<polygon fill="#ee9a00" stroke="#000000" points="787,-126.2435 787,-163.2435 1091,-163.2435 1091,-126.2435 787,-126.2435"/>
<text text-anchor="middle" x="939" y="-141.0435" font-family="Times,serif" font-size="14.00" fill="#000000">get&#45;subdirectory&#45;from&#45;directory v(1.0.0)</text>
</a>
</g>
</g>
<!-- file:///tmp/tmpgvczct27#create_final_output_directory&#45;&gt;file:///tmp/tmpgvczct27#get_sample_output_directory -->
<g id="edge5" class="edge">
<title>file:///tmp/tmpgvczct27#create_final_output_directory&#45;&gt;file:///tmp/tmpgvczct27#get_sample_output_directory</title>
<path fill="none" stroke="#000000" d="M779.2422,-206.1888C809.5861,-194.5181 848.9209,-179.3893 880.9664,-167.0641"/>
<polygon fill="#000000" stroke="#000000" points="882.5826,-170.1925 890.6596,-163.336 880.0697,-163.6591 882.5826,-170.1925"/>
</g>
<!-- file:///tmp/tmpgvczct27#run_tso_ctdna_workflow_step&#45;&gt;file:///tmp/tmpgvczct27#run_tso_ctdna_post_processing_workflow_step -->
<g id="edge3" class="edge">
<title>file:///tmp/tmpgvczct27#run_tso_ctdna_workflow_step&#45;&gt;file:///tmp/tmpgvczct27#run_tso_ctdna_post_processing_workflow_step</title>
<path fill="none" stroke="#000000" d="M573.8339,-449.1605C550.5582,-437.5226 520.372,-422.4295 495.514,-410.0005"/>
<polygon fill="#000000" stroke="#000000" points="496.7828,-406.7218 486.2733,-405.3802 493.6523,-412.9828 496.7828,-406.7218"/>
</g>
<!-- file:///tmp/tmpgvczct27#run_tso_ctdna_workflow_step&#45;&gt;file:///tmp/tmpgvczct27#get_final_directory_output_for_tso500_pipeline -->
<g id="edge4" class="edge">
<title>file:///tmp/tmpgvczct27#run_tso_ctdna_workflow_step&#45;&gt;file:///tmp/tmpgvczct27#get_final_directory_output_for_tso500_pipeline</title>
<path fill="none" stroke="#000000" d="M618.5024,-448.987C623.1606,-436.8112 629.0008,-420.5165 633,-405.7435 639.4192,-382.0306 644.4696,-354.5832 647.7448,-334.4497"/>
<polygon fill="#000000" stroke="#000000" points="651.2342,-334.7906 649.3363,-324.3671 644.3198,-333.6991 651.2342,-334.7906"/>
</g>
<!-- file:///tmp/tmpgvczct27#get_sample_output_directory&#45;&gt;file:///tmp/tmpgvczct27#output_results_dir_by_sample -->
<g id="edge7" class="edge">
<title>file:///tmp/tmpgvczct27#get_sample_output_directory&#45;&gt;file:///tmp/tmpgvczct27#output_results_dir_by_sample</title>
<path fill="none" stroke="#000000" d="M939,-125.9569C939,-116.0403 939,-103.658 939,-92.5568"/>
<polygon fill="#000000" stroke="#000000" points="942.5001,-92.4282 939,-82.4283 935.5001,-92.4283 942.5001,-92.4282"/>
</g>
<!-- file:///tmp/tmpgvczct27#get_sample_ids_from_tso500_sample_object&#45;&gt;file:///tmp/tmpgvczct27#get_sample_output_directory -->
<g id="edge8" class="edge">
<title>file:///tmp/tmpgvczct27#get_sample_ids_from_tso500_sample_object&#45;&gt;file:///tmp/tmpgvczct27#get_sample_output_directory</title>
<path fill="none" stroke="#000000" d="M1052.0296,-448.9815C1031.8976,-394.7928 973.574,-237.8052 949.5412,-173.117"/>
<polygon fill="#000000" stroke="#000000" points="952.7532,-171.7123 945.9896,-163.5573 946.1914,-174.1502 952.7532,-171.7123"/>
</g>
<!-- file:///tmp/tmpgvczct27#get_tso_manifest_bed_from_resources_dir&#45;&gt;file:///tmp/tmpgvczct27#run_tso_ctdna_post_processing_workflow_step -->
<g id="edge9" class="edge">
<title>file:///tmp/tmpgvczct27#get_tso_manifest_bed_from_resources_dir&#45;&gt;file:///tmp/tmpgvczct27#run_tso_ctdna_post_processing_workflow_step</title>
<path fill="none" stroke="#000000" d="M305.6722,-449.1605C332.7494,-437.3688 367.9718,-422.03 396.7234,-409.5091"/>
<polygon fill="#000000" stroke="#000000" points="398.4338,-412.5818 406.2047,-405.3802 395.6389,-406.164 398.4338,-412.5818"/>
</g>
</g>
</svg>
