<?xml version="1.0" encoding="UTF-8" standalone="no"?>
<!DOCTYPE svg PUBLIC "-//W3C//DTD SVG 1.1//EN"
 "http://www.w3.org/Graphics/SVG/1.1/DTD/svg11.dtd">
<!-- Generated by graphviz version 2.43.0 (0)
 -->
<!-- Title: G Pages: 1 -->
<svg width="1254pt" height="607pt"
 viewBox="0.00 0.00 1254.00 607.33" xmlns="http://www.w3.org/2000/svg" xmlns:xlink="http://www.w3.org/1999/xlink">
<g id="graph0" class="graph" transform="scale(1 1) rotate(0) translate(4 603.33)">
<title>G</title>
<polygon fill="#eeeeee" stroke="transparent" points="-4,4 -4,-603.33 1250,-603.33 1250,4 -4,4"/>
<g id="clust1" class="cluster">
<title>cluster_inputs</title>
<polygon fill="#eeeeee" stroke="black" stroke-dasharray="5,2" points="8,-504.99 8,-590.45 1209,-590.45 1209,-504.99 8,-504.99"/>
<text text-anchor="middle" x="1142.5" y="-512.79" font-family="Times,serif" font-size="14.00">Workflow Inputs</text>
</g>
<g id="clust2" class="cluster">
<title>cluster_outputs</title>
<polygon fill="#eeeeee" stroke="black" stroke-dasharray="5,2" points="583,-8.88 583,-94.34 994,-94.34 994,-8.88 583,-8.88"/>
<text text-anchor="middle" x="921.5" y="-16.68" font-family="Times,serif" font-size="14.00">Workflow Outputs</text>
</g>
<!-- file:///tmp/tmpvu0qgtme#samplesheet_prefix -->
<g id="node1" class="node">
<title>file:///tmp/tmpvu0qgtme#samplesheet_prefix</title>
<g id="a_node1"><a xlink:title="Points to the TSO500 section of the samplesheet. &#160;If you are using a samplesheet from BCLConvert,&#10;please set this to &quot;BCLConvert&quot;&#10;">
<polygon fill="#94ddf4" stroke="black" points="896.5,-542.38 896.5,-579.38 1051.5,-579.38 1051.5,-542.38 896.5,-542.38"/>
<text text-anchor="middle" x="974" y="-557.18" font-family="Times,serif" font-size="14.00">samplesheet_prefix</text>
</a>
</g>
</g>
<!-- file:///tmp/tmpvu0qgtme#run_tso_ctdna_workflow_step -->
<g id="node11" class="node">
<title>file:///tmp/tmpvu0qgtme#run_tso_ctdna_workflow_step</title>
<g id="a_node11"><a xlink:href="https://github.com/umccr/cwl-ica/blob/main/.github/catalogue/docs/workflows/tso500-ctdna/1.1.0--120/tso500-ctdna__1.1.0--120.md" xlink:title="Run the CWL version of the tso500 ctDNA WDL / ISL workflow&#10;">
<polygon fill="#ee7ae9" stroke="black" points="447.5,-456.38 447.5,-493.38 652.5,-493.38 652.5,-456.38 447.5,-456.38"/>
<text text-anchor="middle" x="550" y="-471.18" font-family="Times,serif" font-size="14.00">tso500&#45;ctdna v(1.1.0&#45;&#45;120)</text>
</a>
</g>
</g>
<!-- file:///tmp/tmpvu0qgtme#samplesheet_prefix&#45;&gt;file:///tmp/tmpvu0qgtme#run_tso_ctdna_workflow_step -->
<g id="edge12" class="edge">
<title>file:///tmp/tmpvu0qgtme#samplesheet_prefix&#45;&gt;file:///tmp/tmpvu0qgtme#run_tso_ctdna_workflow_step</title>
<path fill="none" stroke="black" d="M949.33,-542.14C932.8,-531.21 910.09,-517.97 888,-510.88 847.33,-497.83 744.52,-488.34 662.89,-482.56"/>
<polygon fill="black" stroke="black" points="662.75,-479.05 652.54,-481.84 662.27,-486.03 662.75,-479.05"/>
</g>
<!-- file:///tmp/tmpvu0qgtme#samplesheet -->
<g id="node2" class="node">
<title>file:///tmp/tmpvu0qgtme#samplesheet</title>
<g id="a_node2"><a xlink:title="The sample sheet file, expects a V2 samplesheet.&#10;Even though we don&#39;t demultiplex, we still need the information on Sample_Type and Pair_ID to determine which&#10;workflow (DNA / RNA) to run through, we gather this through the tso500_samples input schema and then append to the&#10;samplesheet. Please make sure that the sample_id in the tso500 sample schema match the Sample_ID in the&#10;&quot;&lt;samplesheet_prefix&gt;_Data&quot; column.&#10;">
<polygon fill="#94ddf4" stroke="black" points="771.5,-542.38 771.5,-579.38 878.5,-579.38 878.5,-542.38 771.5,-542.38"/>
<text text-anchor="middle" x="825" y="-557.18" font-family="Times,serif" font-size="14.00">samplesheet</text>
</a>
</g>
</g>
<!-- file:///tmp/tmpvu0qgtme#samplesheet&#45;&gt;file:///tmp/tmpvu0qgtme#run_tso_ctdna_workflow_step -->
<g id="edge13" class="edge">
<title>file:///tmp/tmpvu0qgtme#samplesheet&#45;&gt;file:///tmp/tmpvu0qgtme#run_tso_ctdna_workflow_step</title>
<path fill="none" stroke="black" d="M807.64,-542.16C796.02,-531.38 779.82,-518.31 763,-510.88 731.93,-497.16 696.17,-488.77 662.93,-483.65"/>
<polygon fill="black" stroke="black" points="663.1,-480.14 652.7,-482.17 662.09,-487.07 663.1,-480.14"/>
</g>
<!-- file:///tmp/tmpvu0qgtme#dragen_license_key -->
<g id="node3" class="node">
<title>file:///tmp/tmpvu0qgtme#dragen_license_key</title>
<g id="a_node3"><a xlink:title="File containing the dragen license&#10;">
<polygon fill="#94ddf4" stroke="black" points="598.5,-542.38 598.5,-579.38 753.5,-579.38 753.5,-542.38 598.5,-542.38"/>
<text text-anchor="middle" x="676" y="-557.18" font-family="Times,serif" font-size="14.00">dragen_license_key</text>
</a>
</g>
</g>
<!-- file:///tmp/tmpvu0qgtme#dragen_license_key&#45;&gt;file:///tmp/tmpvu0qgtme#run_tso_ctdna_workflow_step -->
<g id="edge14" class="edge">
<title>file:///tmp/tmpvu0qgtme#dragen_license_key&#45;&gt;file:///tmp/tmpvu0qgtme#run_tso_ctdna_workflow_step</title>
<path fill="none" stroke="black" d="M649.59,-542.27C630.77,-529.73 605.29,-512.74 584.81,-499.09"/>
<polygon fill="black" stroke="black" points="586.64,-496.1 576.38,-493.46 582.76,-501.92 586.64,-496.1"/>
</g>
<!-- file:///tmp/tmpvu0qgtme#run_parameters_xml -->
<g id="node4" class="node">
<title>file:///tmp/tmpvu0qgtme#run_parameters_xml</title>
<g id="a_node4"><a xlink:title="The run parameters xml file found inside the run folder&#10;">
<polygon fill="#94ddf4" stroke="black" points="416,-542.38 416,-579.38 580,-579.38 580,-542.38 416,-542.38"/>
<text text-anchor="middle" x="498" y="-557.18" font-family="Times,serif" font-size="14.00">run_parameters_xml</text>
</a>
</g>
</g>
<!-- file:///tmp/tmpvu0qgtme#run_parameters_xml&#45;&gt;file:///tmp/tmpvu0qgtme#run_tso_ctdna_workflow_step -->
<g id="edge15" class="edge">
<title>file:///tmp/tmpvu0qgtme#run_parameters_xml&#45;&gt;file:///tmp/tmpvu0qgtme#run_tso_ctdna_workflow_step</title>
<path fill="none" stroke="black" d="M509.03,-542.06C516.25,-530.4 525.8,-514.97 533.87,-501.94"/>
<polygon fill="black" stroke="black" points="536.88,-503.72 539.17,-493.38 530.93,-500.04 536.88,-503.72"/>
</g>
<!-- file:///tmp/tmpvu0qgtme#resources_dir -->
<g id="node5" class="node">
<title>file:///tmp/tmpvu0qgtme#resources_dir</title>
<g id="a_node5"><a xlink:title="The directory of resources&#10;">
<polygon fill="#94ddf4" stroke="black" points="16.5,-542.38 16.5,-579.38 129.5,-579.38 129.5,-542.38 16.5,-542.38"/>
<text text-anchor="middle" x="73" y="-557.18" font-family="Times,serif" font-size="14.00">resources_dir</text>
</a>
</g>
</g>
<!-- file:///tmp/tmpvu0qgtme#resources_dir&#45;&gt;file:///tmp/tmpvu0qgtme#run_tso_ctdna_workflow_step -->
<g id="edge16" class="edge">
<title>file:///tmp/tmpvu0qgtme#resources_dir&#45;&gt;file:///tmp/tmpvu0qgtme#run_tso_ctdna_workflow_step</title>
<path fill="none" stroke="black" d="M90.94,-542.19C103.35,-531.13 120.84,-517.72 139,-510.88 181.98,-494.68 299.23,-497.78 345,-493.88 374.9,-491.33 407.26,-488.52 437.23,-485.89"/>
<polygon fill="black" stroke="black" points="437.64,-489.37 447.3,-485 437.03,-482.39 437.64,-489.37"/>
</g>
<!-- file:///tmp/tmpvu0qgtme#get_tso_manifest_bed_from_resources_dir -->
<g id="node17" class="node">
<title>file:///tmp/tmpvu0qgtme#get_tso_manifest_bed_from_resources_dir</title>
<g id="a_node17"><a xlink:href="https://github.com/umccr/cwl-ica/blob/main/.github/catalogue/docs/expressions/get-file-from-directory/1.0.0/get-file-from-directory__1.0.0.md" xlink:title="Given the resources directory collect the following file:&#10; &#160;* TST500C_manifest.bed&#10;">
<polygon fill="#ee9a00" stroke="black" points="102.5,-456.38 102.5,-493.38 335.5,-493.38 335.5,-456.38 102.5,-456.38"/>
<text text-anchor="middle" x="219" y="-471.18" font-family="Times,serif" font-size="14.00">get&#45;file&#45;from&#45;directory v(1.0.0)</text>
</a>
</g>
</g>
<!-- file:///tmp/tmpvu0qgtme#resources_dir&#45;&gt;file:///tmp/tmpvu0qgtme#get_tso_manifest_bed_from_resources_dir -->
<g id="edge17" class="edge">
<title>file:///tmp/tmpvu0qgtme#resources_dir&#45;&gt;file:///tmp/tmpvu0qgtme#get_tso_manifest_bed_from_resources_dir</title>
<path fill="none" stroke="black" d="M94.15,-542.25C106.7,-532.29 123.2,-520.04 139,-510.88 147.18,-506.14 156.11,-501.63 164.96,-497.52"/>
<polygon fill="black" stroke="black" points="166.43,-500.7 174.11,-493.4 163.55,-494.32 166.43,-500.7"/>
</g>
<!-- file:///tmp/tmpvu0qgtme#tso500_samples -->
<g id="node6" class="node">
<title>file:///tmp/tmpvu0qgtme#tso500_samples</title>
<g id="a_node6"><a xlink:title="A list of tso500 samples each element has the following attributes:&#10;* sample_id&#10;* sample_type&#10;* pair_id&#10;">
<polygon fill="#94ddf4" stroke="black" points="1069.5,-542.38 1069.5,-579.38 1200.5,-579.38 1200.5,-542.38 1069.5,-542.38"/>
<text text-anchor="middle" x="1135" y="-557.18" font-family="Times,serif" font-size="14.00">tso500_samples</text>
</a>
</g>
</g>
<!-- file:///tmp/tmpvu0qgtme#tso500_samples&#45;&gt;file:///tmp/tmpvu0qgtme#run_tso_ctdna_workflow_step -->
<g id="edge18" class="edge">
<title>file:///tmp/tmpvu0qgtme#tso500_samples&#45;&gt;file:///tmp/tmpvu0qgtme#run_tso_ctdna_workflow_step</title>
<path fill="none" stroke="black" d="M1114.86,-542.35C1100.78,-531.21 1080.99,-517.65 1061,-510.88 1024.41,-498.48 802.03,-486.79 662.96,-480.56"/>
<polygon fill="black" stroke="black" points="662.82,-477.05 652.68,-480.1 662.51,-484.04 662.82,-477.05"/>
</g>
<!-- file:///tmp/tmpvu0qgtme#get_sample_ids_from_tso500_sample_object -->
<g id="node18" class="node">
<title>file:///tmp/tmpvu0qgtme#get_sample_ids_from_tso500_sample_object</title>
<g id="a_node18"><a xlink:href="https://github.com/umccr/cwl-ica/blob/main/.github/catalogue/docs/expressions/get-attr-from-tso500-sample-object/1.0.0/get-attr-from-tso500-sample-object__1.0.0.md" xlink:title="Generate a list of sample ids from the tso500 sample objects&#10;">
<polygon fill="#ee9a00" stroke="black" points="920,-456.38 920,-493.38 1246,-493.38 1246,-456.38 920,-456.38"/>
<text text-anchor="middle" x="1083" y="-471.18" font-family="Times,serif" font-size="14.00">get&#45;attr&#45;from&#45;tso500&#45;sample&#45;object v(1.0.0)</text>
</a>
</g>
</g>
<!-- file:///tmp/tmpvu0qgtme#tso500_samples&#45;&gt;file:///tmp/tmpvu0qgtme#get_sample_ids_from_tso500_sample_object -->
<g id="edge19" class="edge">
<title>file:///tmp/tmpvu0qgtme#tso500_samples&#45;&gt;file:///tmp/tmpvu0qgtme#get_sample_ids_from_tso500_sample_object</title>
<path fill="none" stroke="black" d="M1123.97,-542.06C1116.75,-530.4 1107.2,-514.97 1099.13,-501.94"/>
<polygon fill="black" stroke="black" points="1102.07,-500.04 1093.83,-493.38 1096.12,-503.72 1102.07,-500.04"/>
</g>
<!-- file:///tmp/tmpvu0qgtme#fastq_list_rows -->
<g id="node7" class="node">
<title>file:///tmp/tmpvu0qgtme#fastq_list_rows</title>
<g id="a_node7"><a xlink:title="A list of fastq list rows where each element has the following attributes&#10;* rgid &#160;# Not used&#10;* rgsm&#10;* rglb &#160;# Not used&#10;* read_1&#10;* read_2&#10;">
<polygon fill="#94ddf4" stroke="black" points="274.5,-542.38 274.5,-579.38 397.5,-579.38 397.5,-542.38 274.5,-542.38"/>
<text text-anchor="middle" x="336" y="-557.18" font-family="Times,serif" font-size="14.00">fastq_list_rows</text>
</a>
</g>
</g>
<!-- file:///tmp/tmpvu0qgtme#fastq_list_rows&#45;&gt;file:///tmp/tmpvu0qgtme#run_tso_ctdna_workflow_step -->
<g id="edge20" class="edge">
<title>file:///tmp/tmpvu0qgtme#fastq_list_rows&#45;&gt;file:///tmp/tmpvu0qgtme#run_tso_ctdna_workflow_step</title>
<path fill="none" stroke="black" d="M357.14,-542.23C370.65,-531.75 388.97,-518.98 407,-510.88 419.57,-505.23 433.19,-500.41 446.86,-496.32"/>
<polygon fill="black" stroke="black" points="448.15,-499.59 456.8,-493.47 446.23,-492.86 448.15,-499.59"/>
</g>
<!-- file:///tmp/tmpvu0qgtme#run_info_xml -->
<g id="node8" class="node">
<title>file:///tmp/tmpvu0qgtme#run_info_xml</title>
<g id="a_node8"><a xlink:title="The run info xml file found inside the run folder&#10;">
<polygon fill="#94ddf4" stroke="black" points="148,-542.38 148,-579.38 256,-579.38 256,-542.38 148,-542.38"/>
<text text-anchor="middle" x="202" y="-557.18" font-family="Times,serif" font-size="14.00">run_info_xml</text>
</a>
</g>
</g>
<!-- file:///tmp/tmpvu0qgtme#run_info_xml&#45;&gt;file:///tmp/tmpvu0qgtme#run_tso_ctdna_workflow_step -->
<g id="edge21" class="edge">
<title>file:///tmp/tmpvu0qgtme#run_info_xml&#45;&gt;file:///tmp/tmpvu0qgtme#run_tso_ctdna_workflow_step</title>
<path fill="none" stroke="black" d="M219.66,-542.18C231.67,-531.26 248.51,-518.03 266,-510.88 282.06,-504.32 365.14,-494.49 437.33,-486.92"/>
<polygon fill="black" stroke="black" points="437.85,-490.39 447.43,-485.87 437.13,-483.43 437.85,-490.39"/>
</g>
<!-- file:///tmp/tmpvu0qgtme#output_results_dir_by_sample -->
<g id="node9" class="node">
<title>file:///tmp/tmpvu0qgtme#output_results_dir_by_sample</title>
<g id="a_node9"><a xlink:title="The sample subdirectory of the results&#10;">
<polygon fill="#94ddf4" stroke="black" points="756.5,-45.38 756.5,-82.38 985.5,-82.38 985.5,-45.38 756.5,-45.38"/>
<text text-anchor="middle" x="871" y="-60.18" font-family="Times,serif" font-size="14.00">output_results_dir_by_sample</text>
</a>
</g>
</g>
<!-- file:///tmp/tmpvu0qgtme#output_results_dir -->
<g id="node10" class="node">
<title>file:///tmp/tmpvu0qgtme#output_results_dir</title>
<g id="a_node10"><a xlink:title="The output directory&#10;">
<polygon fill="#94ddf4" stroke="black" points="591.5,-45.38 591.5,-82.38 738.5,-82.38 738.5,-45.38 591.5,-45.38"/>
<text text-anchor="middle" x="665" y="-60.18" font-family="Times,serif" font-size="14.00">output_results_dir</text>
</a>
</g>
</g>
<!-- file:///tmp/tmpvu0qgtme#get_intermediate_samplesheet_from_validation_step -->
<g id="node12" class="node">
<title>file:///tmp/tmpvu0qgtme#get_intermediate_samplesheet_from_validation_step</title>
<g id="a_node12"><a xlink:href="https://github.com/umccr/cwl-ica/blob/main/.github/catalogue/docs/expressions/get-file-from-directory/1.0.0/get-file-from-directory__1.0.0.md" xlink:title="Get the intermediate samplesheet from the validation step.&#10;Returns a V1 samplesheet&#10;">
<polygon fill="#ee9a00" stroke="black" points="578.5,-374.38 578.5,-411.38 811.5,-411.38 811.5,-374.38 578.5,-374.38"/>
<text text-anchor="middle" x="695" y="-389.18" font-family="Times,serif" font-size="14.00">get&#45;file&#45;from&#45;directory v(1.0.0)</text>
</a>
</g>
</g>
<!-- file:///tmp/tmpvu0qgtme#run_tso_ctdna_workflow_step&#45;&gt;file:///tmp/tmpvu0qgtme#get_intermediate_samplesheet_from_validation_step -->
<g id="edge1" class="edge">
<title>file:///tmp/tmpvu0qgtme#run_tso_ctdna_workflow_step&#45;&gt;file:///tmp/tmpvu0qgtme#get_intermediate_samplesheet_from_validation_step</title>
<path fill="none" stroke="black" d="M581.82,-456.32C603.16,-444.55 631.46,-428.94 654.42,-416.27"/>
<polygon fill="black" stroke="black" points="656.19,-419.29 663.25,-411.39 652.81,-413.16 656.19,-419.29"/>
</g>
<!-- file:///tmp/tmpvu0qgtme#get_final_directory_output_for_tso500_pipeline -->
<g id="node13" class="node">
<title>file:///tmp/tmpvu0qgtme#get_final_directory_output_for_tso500_pipeline</title>
<g id="a_node13"><a xlink:href="https://github.com/umccr/cwl-ica/blob/main/.github/catalogue/docs/expressions/get-custom-output-dir-entry-for-tso500-with-post-processing/2.0.1/get-custom-output-dir-entry-for-tso500-with-post-processing__2.0.1.md" xlink:title="Create the output directory containing all the files and directories listed in the previous step.&#10;">
<polygon fill="#ee9a00" stroke="black" points="372,-292.38 372,-329.38 878,-329.38 878,-292.38 372,-292.38"/>
<text text-anchor="middle" x="625" y="-307.18" font-family="Times,serif" font-size="14.00">get&#45;custom&#45;output&#45;dir&#45;entry&#45;for&#45;tso500&#45;with&#45;post&#45;processing v(2.0.1)</text>
</a>
</g>
</g>
<!-- file:///tmp/tmpvu0qgtme#run_tso_ctdna_workflow_step&#45;&gt;file:///tmp/tmpvu0qgtme#get_final_directory_output_for_tso500_pipeline -->
<g id="edge2" class="edge">
<title>file:///tmp/tmpvu0qgtme#run_tso_ctdna_workflow_step&#45;&gt;file:///tmp/tmpvu0qgtme#get_final_directory_output_for_tso500_pipeline</title>
<path fill="none" stroke="black" d="M550.74,-456.36C552.23,-435.67 556.68,-400.67 570,-373.88 576.81,-360.19 587.43,-347.19 597.54,-336.66"/>
<polygon fill="black" stroke="black" points="600.15,-339 604.74,-329.46 595.2,-334.05 600.15,-339"/>
</g>
<!-- file:///tmp/tmpvu0qgtme#run_tso_ctdna_post_processing_workflow_step -->
<g id="node14" class="node">
<title>file:///tmp/tmpvu0qgtme#run_tso_ctdna_post_processing_workflow_step</title>
<g id="a_node14"><a xlink:href="https://github.com/umccr/cwl-ica/blob/main/.github/catalogue/docs/workflows/tso500-ctdna-post-processing-pipeline/1.0.0/tso500-ctdna-post-processing-pipeline__1.0.0.md" xlink:title="Run the very customised ctdna post processing workflow step for each sample&#10;">
<polygon fill="#ee7ae9" stroke="black" points="175.5,-374.38 175.5,-411.38 522.5,-411.38 522.5,-374.38 175.5,-374.38"/>
<text text-anchor="middle" x="349" y="-389.18" font-family="Times,serif" font-size="14.00">tso500&#45;ctdna&#45;post&#45;processing&#45;pipeline v(1.0.0)</text>
</a>
</g>
</g>
<!-- file:///tmp/tmpvu0qgtme#run_tso_ctdna_workflow_step&#45;&gt;file:///tmp/tmpvu0qgtme#run_tso_ctdna_post_processing_workflow_step -->
<g id="edge3" class="edge">
<title>file:///tmp/tmpvu0qgtme#run_tso_ctdna_workflow_step&#45;&gt;file:///tmp/tmpvu0qgtme#run_tso_ctdna_post_processing_workflow_step</title>
<path fill="none" stroke="black" d="M505.89,-456.32C475.39,-444.18 434.64,-427.96 402.32,-415.1"/>
<polygon fill="black" stroke="black" points="403.59,-411.84 393.01,-411.39 401,-418.34 403.59,-411.84"/>
</g>
<!-- file:///tmp/tmpvu0qgtme#get_intermediate_samplesheet_from_validation_step&#45;&gt;file:///tmp/tmpvu0qgtme#get_final_directory_output_for_tso500_pipeline -->
<g id="edge4" class="edge">
<title>file:///tmp/tmpvu0qgtme#get_intermediate_samplesheet_from_validation_step&#45;&gt;file:///tmp/tmpvu0qgtme#get_final_directory_output_for_tso500_pipeline</title>
<path fill="none" stroke="black" d="M679.46,-374.12C669.95,-363.25 657.62,-349.16 647.1,-337.13"/>
<polygon fill="black" stroke="black" points="649.71,-334.8 640.49,-329.58 644.44,-339.41 649.71,-334.8"/>
</g>
<!-- file:///tmp/tmpvu0qgtme#create_final_output_directory -->
<g id="node15" class="node">
<title>file:///tmp/tmpvu0qgtme#create_final_output_directory</title>
<g id="a_node15"><a xlink:href="https://github.com/umccr/cwl-ica/blob/main/.github/catalogue/docs/tools/custom-create-directory/2.0.1/custom-create-directory__2.0.1.md" xlink:title="Create the output directory containing all the files listed in the previous step.&#10;">
<polygon fill="lightgoldenrodyellow" stroke="black" points="541.5,-210.38 541.5,-247.38 788.5,-247.38 788.5,-210.38 541.5,-210.38"/>
<text text-anchor="middle" x="665" y="-225.18" font-family="Times,serif" font-size="14.00">custom&#45;create&#45;directory v(2.0.1)</text>
</a>
</g>
</g>
<!-- file:///tmp/tmpvu0qgtme#get_final_directory_output_for_tso500_pipeline&#45;&gt;file:///tmp/tmpvu0qgtme#create_final_output_directory -->
<g id="edge5" class="edge">
<title>file:///tmp/tmpvu0qgtme#get_final_directory_output_for_tso500_pipeline&#45;&gt;file:///tmp/tmpvu0qgtme#create_final_output_directory</title>
<path fill="none" stroke="black" d="M633.88,-292.12C639.06,-281.77 645.69,-268.49 651.51,-256.86"/>
<polygon fill="black" stroke="black" points="654.81,-258.09 656.15,-247.58 648.54,-254.96 654.81,-258.09"/>
</g>
<!-- file:///tmp/tmpvu0qgtme#run_tso_ctdna_post_processing_workflow_step&#45;&gt;file:///tmp/tmpvu0qgtme#get_final_directory_output_for_tso500_pipeline -->
<g id="edge8" class="edge">
<title>file:///tmp/tmpvu0qgtme#run_tso_ctdna_post_processing_workflow_step&#45;&gt;file:///tmp/tmpvu0qgtme#get_final_directory_output_for_tso500_pipeline</title>
<path fill="none" stroke="black" d="M409.57,-374.32C452.44,-361.9 510.05,-345.2 554.91,-332.19"/>
<polygon fill="black" stroke="black" points="555.94,-335.54 564.57,-329.39 553.99,-328.82 555.94,-335.54"/>
</g>
<!-- file:///tmp/tmpvu0qgtme#create_final_output_directory&#45;&gt;file:///tmp/tmpvu0qgtme#output_results_dir -->
<g id="edge7" class="edge">
<title>file:///tmp/tmpvu0qgtme#create_final_output_directory&#45;&gt;file:///tmp/tmpvu0qgtme#output_results_dir</title>
<path fill="none" stroke="black" d="M665,-210.12C665,-181.83 665,-126.29 665,-92.69"/>
<polygon fill="black" stroke="black" points="668.5,-92.61 665,-82.61 661.5,-92.61 668.5,-92.61"/>
</g>
<!-- file:///tmp/tmpvu0qgtme#get_sample_output_directory -->
<g id="node16" class="node">
<title>file:///tmp/tmpvu0qgtme#get_sample_output_directory</title>
<g id="a_node16"><a xlink:href="https://github.com/umccr/cwl-ica/blob/main/.github/catalogue/docs/expressions/get-subdirectory-from-directory/1.0.0/get-subdirectory-from-directory__1.0.0.md" xlink:title="The sample output directory containing all of the samples post&#45;processing files&#10;">
<polygon fill="#ee9a00" stroke="black" points="720,-128.38 720,-165.38 1022,-165.38 1022,-128.38 720,-128.38"/>
<text text-anchor="middle" x="871" y="-143.18" font-family="Times,serif" font-size="14.00">get&#45;subdirectory&#45;from&#45;directory v(1.0.0)</text>
</a>
</g>
</g>
<!-- file:///tmp/tmpvu0qgtme#create_final_output_directory&#45;&gt;file:///tmp/tmpvu0qgtme#get_sample_output_directory -->
<g id="edge6" class="edge">
<title>file:///tmp/tmpvu0qgtme#create_final_output_directory&#45;&gt;file:///tmp/tmpvu0qgtme#get_sample_output_directory</title>
<path fill="none" stroke="black" d="M710.21,-210.32C741.47,-198.18 783.23,-181.96 816.36,-169.1"/>
<polygon fill="black" stroke="black" points="817.84,-172.28 825.9,-165.39 815.31,-165.75 817.84,-172.28"/>
</g>
<!-- file:///tmp/tmpvu0qgtme#get_sample_output_directory&#45;&gt;file:///tmp/tmpvu0qgtme#output_results_dir_by_sample -->
<g id="edge10" class="edge">
<title>file:///tmp/tmpvu0qgtme#get_sample_output_directory&#45;&gt;file:///tmp/tmpvu0qgtme#output_results_dir_by_sample</title>
<path fill="none" stroke="black" d="M871,-128.3C871,-117.9 871,-104.49 871,-92.68"/>
<polygon fill="black" stroke="black" points="874.5,-92.42 871,-82.42 867.5,-92.42 874.5,-92.42"/>
</g>
<!-- file:///tmp/tmpvu0qgtme#get_tso_manifest_bed_from_resources_dir&#45;&gt;file:///tmp/tmpvu0qgtme#run_tso_ctdna_post_processing_workflow_step -->
<g id="edge9" class="edge">
<title>file:///tmp/tmpvu0qgtme#get_tso_manifest_bed_from_resources_dir&#45;&gt;file:///tmp/tmpvu0qgtme#run_tso_ctdna_post_processing_workflow_step</title>
<path fill="none" stroke="black" d="M247.53,-456.32C266.41,-444.7 291.36,-429.35 311.8,-416.77"/>
<polygon fill="black" stroke="black" points="313.86,-419.62 320.54,-411.39 310.19,-413.65 313.86,-419.62"/>
</g>
<!-- file:///tmp/tmpvu0qgtme#get_sample_ids_from_tso500_sample_object&#45;&gt;file:///tmp/tmpvu0qgtme#get_sample_output_directory -->
<g id="edge11" class="edge">
<title>file:///tmp/tmpvu0qgtme#get_sample_ids_from_tso500_sample_object&#45;&gt;file:///tmp/tmpvu0qgtme#get_sample_output_directory</title>
<path fill="none" stroke="black" d="M1071.6,-456.35C1036.52,-402.4 930,-238.6 888.14,-174.24"/>
<polygon fill="black" stroke="black" points="890.84,-171.97 882.45,-165.49 884.97,-175.78 890.84,-171.97"/>
</g>
</g>
</svg>
