<?xml version="1.0" encoding="UTF-8" standalone="no"?>
<!DOCTYPE svg PUBLIC "-//W3C//DTD SVG 1.1//EN"
 "http://www.w3.org/Graphics/SVG/1.1/DTD/svg11.dtd">
<!-- Generated by graphviz version 2.43.0 (0)
 -->
<!-- Title: G Pages: 1 -->
<svg width="1266pt" height="613pt"
 viewBox="0.00 0.00 1266.00 613.10" xmlns="http://www.w3.org/2000/svg" xmlns:xlink="http://www.w3.org/1999/xlink">
<g id="graph0" class="graph" transform="scale(1 1) rotate(0) translate(4 609.1)">
<title>G</title>
<polygon fill="#eeeeee" stroke="transparent" points="-4,4 -4,-609.1 1262,-609.1 1262,4 -4,4"/>
<g id="clust1" class="cluster">
<title>cluster_inputs</title>
<polygon fill="#eeeeee" stroke="black" stroke-dasharray="5,2" points="8,-509.85 8,-596.13 1209,-596.13 1209,-509.85 8,-509.85"/>
<text text-anchor="middle" x="1142.5" y="-517.65" font-family="Times,serif" font-size="14.00">Workflow Inputs</text>
</g>
<g id="clust2" class="cluster">
<title>cluster_outputs</title>
<polygon fill="#eeeeee" stroke="black" stroke-dasharray="5,2" points="620,-8.96 620,-95.25 1031,-95.25 1031,-8.96 620,-8.96"/>
<text text-anchor="middle" x="958.5" y="-16.76" font-family="Times,serif" font-size="14.00">Workflow Outputs</text>
</g>
<!-- file:///tmp/tmpephcx237#fastq_list_rows -->
<g id="node1" class="node">
<title>file:///tmp/tmpephcx237#fastq_list_rows</title>
<g id="a_node1"><a xlink:title="A list of fastq list rows where each element has the following attributes&#10;* rgid &#160;# Not used&#10;* rgsm&#10;* rglb &#160;# Not used&#10;* read_1&#10;* read_2&#10;">
<polygon fill="#94ddf4" stroke="black" points="928.5,-547.46 928.5,-584.46 1051.5,-584.46 1051.5,-547.46 928.5,-547.46"/>
<text text-anchor="middle" x="990" y="-562.26" font-family="Times,serif" font-size="14.00">fastq_list_rows</text>
</a>
</g>
</g>
<!-- file:///tmp/tmpephcx237#run_tso_ctdna_workflow_step -->
<g id="node11" class="node">
<title>file:///tmp/tmpephcx237#run_tso_ctdna_workflow_step</title>
<g id="a_node11"><a xlink:href="https://github.com/umccr/cwl-ica/blob/main/.github/catalogue/docs/workflows/tso500-ctdna/1.1.0--120/tso500-ctdna__1.1.0--120.md" xlink:title="Run the CWL version of the tso500 ctDNA WDL / ISL workflow&#10;">
<polygon fill="#ee7ae9" stroke="black" points="484.5,-461.46 484.5,-498.46 689.5,-498.46 689.5,-461.46 484.5,-461.46"/>
<text text-anchor="middle" x="587" y="-476.26" font-family="Times,serif" font-size="14.00">tso500&#45;ctdna v(1.1.0&#45;&#45;120)</text>
</a>
</g>
</g>
<!-- file:///tmp/tmpephcx237#fastq_list_rows&#45;&gt;file:///tmp/tmpephcx237#run_tso_ctdna_workflow_step -->
<g id="edge12" class="edge">
<title>file:///tmp/tmpephcx237#fastq_list_rows&#45;&gt;file:///tmp/tmpephcx237#run_tso_ctdna_workflow_step</title>
<path fill="none" stroke="black" d="M970.42,-547.42C956.95,-536.42 938.1,-523.04 919,-515.96 879.91,-501.49 779.92,-492.23 699.82,-486.9"/>
<polygon fill="black" stroke="black" points="699.86,-483.39 689.66,-486.24 699.41,-490.38 699.86,-483.39"/>
</g>
<!-- file:///tmp/tmpephcx237#tso500_samples -->
<g id="node2" class="node">
<title>file:///tmp/tmpephcx237#tso500_samples</title>
<g id="a_node2"><a xlink:title="A list of tso500 samples each element has the following attributes:&#10;* sample_id&#10;* sample_type&#10;* pair_id&#10;">
<polygon fill="#94ddf4" stroke="black" points="1069.5,-547.46 1069.5,-584.46 1200.5,-584.46 1200.5,-547.46 1069.5,-547.46"/>
<text text-anchor="middle" x="1135" y="-562.26" font-family="Times,serif" font-size="14.00">tso500_samples</text>
</a>
</g>
</g>
<!-- file:///tmp/tmpephcx237#tso500_samples&#45;&gt;file:///tmp/tmpephcx237#run_tso_ctdna_workflow_step -->
<g id="edge13" class="edge">
<title>file:///tmp/tmpephcx237#tso500_samples&#45;&gt;file:///tmp/tmpephcx237#run_tso_ctdna_workflow_step</title>
<path fill="none" stroke="black" d="M1114.54,-547.23C1100.47,-536.15 1080.83,-522.74 1061,-515.96 1027.79,-504.61 829.35,-492.89 699.98,-486.3"/>
<polygon fill="black" stroke="black" points="699.79,-482.79 689.62,-485.78 699.43,-489.78 699.79,-482.79"/>
</g>
<!-- file:///tmp/tmpephcx237#get_sample_ids_from_tso500_sample_object -->
<g id="node17" class="node">
<title>file:///tmp/tmpephcx237#get_sample_ids_from_tso500_sample_object</title>
<g id="a_node17"><a xlink:href="https://github.com/umccr/cwl-ica/blob/main/.github/catalogue/docs/expressions/get-attr-from-tso500-sample-object/1.0.0/get-attr-from-tso500-sample-object__1.0.0.md" xlink:title="Generate a list of sample ids from the tso500 sample objects&#10;">
<polygon fill="#ee9a00" stroke="black" points="932,-461.46 932,-498.46 1258,-498.46 1258,-461.46 932,-461.46"/>
<text text-anchor="middle" x="1095" y="-476.26" font-family="Times,serif" font-size="14.00">get&#45;attr&#45;from&#45;tso500&#45;sample&#45;object v(1.0.0)</text>
</a>
</g>
</g>
<!-- file:///tmp/tmpephcx237#tso500_samples&#45;&gt;file:///tmp/tmpephcx237#get_sample_ids_from_tso500_sample_object -->
<g id="edge14" class="edge">
<title>file:///tmp/tmpephcx237#tso500_samples&#45;&gt;file:///tmp/tmpephcx237#get_sample_ids_from_tso500_sample_object</title>
<path fill="none" stroke="black" d="M1126.52,-547.15C1121.07,-535.71 1113.9,-520.65 1107.77,-507.78"/>
<polygon fill="black" stroke="black" points="1110.79,-505.99 1103.33,-498.46 1104.47,-509 1110.79,-505.99"/>
</g>
<!-- file:///tmp/tmpephcx237#samplesheet -->
<g id="node3" class="node">
<title>file:///tmp/tmpephcx237#samplesheet</title>
<g id="a_node3"><a xlink:title="The sample sheet file, expects a V2 samplesheet.&#10;Even though we don&#39;t demultiplex, we still need the information on Sample_Type and Pair_ID to determine which&#10;workflow (DNA / RNA) to run through, we gather this through the tso500_samples input schema and then append to the&#10;samplesheet. Please make sure that the sample_id in the tso500 sample schema match the Sample_ID in the&#10;&quot;&lt;samplesheet_prefix&gt;_Data&quot; column.&#10;">
<polygon fill="#94ddf4" stroke="black" points="620.5,-547.46 620.5,-584.46 727.5,-584.46 727.5,-547.46 620.5,-547.46"/>
<text text-anchor="middle" x="674" y="-562.26" font-family="Times,serif" font-size="14.00">samplesheet</text>
</a>
</g>
</g>
<!-- file:///tmp/tmpephcx237#samplesheet&#45;&gt;file:///tmp/tmpephcx237#run_tso_ctdna_workflow_step -->
<g id="edge15" class="edge">
<title>file:///tmp/tmpephcx237#samplesheet&#45;&gt;file:///tmp/tmpephcx237#run_tso_ctdna_workflow_step</title>
<path fill="none" stroke="black" d="M655.55,-547.15C643.01,-535.04 626.25,-518.86 612.45,-505.53"/>
<polygon fill="black" stroke="black" points="614.75,-502.89 605.13,-498.46 609.89,-507.93 614.75,-502.89"/>
</g>
<!-- file:///tmp/tmpephcx237#run_info_xml -->
<g id="node4" class="node">
<title>file:///tmp/tmpephcx237#run_info_xml</title>
<g id="a_node4"><a xlink:title="The run info xml file found inside the run folder&#10;">
<polygon fill="#94ddf4" stroke="black" points="494,-547.46 494,-584.46 602,-584.46 602,-547.46 494,-547.46"/>
<text text-anchor="middle" x="548" y="-562.26" font-family="Times,serif" font-size="14.00">run_info_xml</text>
</a>
</g>
</g>
<!-- file:///tmp/tmpephcx237#run_info_xml&#45;&gt;file:///tmp/tmpephcx237#run_tso_ctdna_workflow_step -->
<g id="edge16" class="edge">
<title>file:///tmp/tmpephcx237#run_info_xml&#45;&gt;file:///tmp/tmpephcx237#run_tso_ctdna_workflow_step</title>
<path fill="none" stroke="black" d="M556.27,-547.15C561.58,-535.71 568.58,-520.65 574.55,-507.78"/>
<polygon fill="black" stroke="black" points="577.84,-509.01 578.87,-498.46 571.49,-506.06 577.84,-509.01"/>
</g>
<!-- file:///tmp/tmpephcx237#dragen_license_key -->
<g id="node5" class="node">
<title>file:///tmp/tmpephcx237#dragen_license_key</title>
<g id="a_node5"><a xlink:title="File containing the dragen license&#10;">
<polygon fill="#94ddf4" stroke="black" points="320.5,-547.46 320.5,-584.46 475.5,-584.46 475.5,-547.46 320.5,-547.46"/>
<text text-anchor="middle" x="398" y="-562.26" font-family="Times,serif" font-size="14.00">dragen_license_key</text>
</a>
</g>
</g>
<!-- file:///tmp/tmpephcx237#dragen_license_key&#45;&gt;file:///tmp/tmpephcx237#run_tso_ctdna_workflow_step -->
<g id="edge17" class="edge">
<title>file:///tmp/tmpephcx237#dragen_license_key&#45;&gt;file:///tmp/tmpephcx237#run_tso_ctdna_workflow_step</title>
<path fill="none" stroke="black" d="M426.32,-547.28C443.01,-537.3 464.76,-525.05 485,-515.96 496.25,-510.91 508.47,-506.15 520.41,-501.85"/>
<polygon fill="black" stroke="black" points="521.63,-505.13 529.9,-498.51 519.31,-498.53 521.63,-505.13"/>
</g>
<!-- file:///tmp/tmpephcx237#samplesheet_prefix -->
<g id="node6" class="node">
<title>file:///tmp/tmpephcx237#samplesheet_prefix</title>
<g id="a_node6"><a xlink:title="Points to the TSO500 section of the samplesheet. &#160;If you are using a samplesheet from BCLConvert,&#10;please set this to &quot;BCLConvert&quot;&#10;">
<polygon fill="#94ddf4" stroke="black" points="147.5,-547.46 147.5,-584.46 302.5,-584.46 302.5,-547.46 147.5,-547.46"/>
<text text-anchor="middle" x="225" y="-562.26" font-family="Times,serif" font-size="14.00">samplesheet_prefix</text>
</a>
</g>
</g>
<!-- file:///tmp/tmpephcx237#samplesheet_prefix&#45;&gt;file:///tmp/tmpephcx237#run_tso_ctdna_workflow_step -->
<g id="edge18" class="edge">
<title>file:///tmp/tmpephcx237#samplesheet_prefix&#45;&gt;file:///tmp/tmpephcx237#run_tso_ctdna_workflow_step</title>
<path fill="none" stroke="black" d="M250.05,-547.4C266.8,-536.54 289.78,-523.32 312,-515.96 363.83,-498.8 423.72,-489.98 474.36,-485.47"/>
<polygon fill="black" stroke="black" points="474.68,-488.96 484.35,-484.63 474.09,-481.98 474.68,-488.96"/>
</g>
<!-- file:///tmp/tmpephcx237#resources_dir -->
<g id="node7" class="node">
<title>file:///tmp/tmpephcx237#resources_dir</title>
<g id="a_node7"><a xlink:title="The directory of resources&#10;">
<polygon fill="#94ddf4" stroke="black" points="16.5,-547.46 16.5,-584.46 129.5,-584.46 129.5,-547.46 16.5,-547.46"/>
<text text-anchor="middle" x="73" y="-562.26" font-family="Times,serif" font-size="14.00">resources_dir</text>
</a>
</g>
</g>
<!-- file:///tmp/tmpephcx237#resources_dir&#45;&gt;file:///tmp/tmpephcx237#run_tso_ctdna_workflow_step -->
<g id="edge19" class="edge">
<title>file:///tmp/tmpephcx237#resources_dir&#45;&gt;file:///tmp/tmpephcx237#run_tso_ctdna_workflow_step</title>
<path fill="none" stroke="black" d="M90.93,-547.24C103.33,-536.17 120.82,-522.77 139,-515.96 184.51,-498.93 308.56,-502.75 357,-498.96 395.05,-495.99 436.64,-492.74 473.87,-489.82"/>
<polygon fill="black" stroke="black" points="474.55,-493.28 484.24,-489.01 474,-486.3 474.55,-493.28"/>
</g>
<!-- file:///tmp/tmpephcx237#get_tso_manifest_bed_from_resources_dir -->
<g id="node15" class="node">
<title>file:///tmp/tmpephcx237#get_tso_manifest_bed_from_resources_dir</title>
<g id="a_node15"><a xlink:href="https://github.com/umccr/cwl-ica/blob/main/.github/catalogue/docs/expressions/get-file-from-directory/1.0.0/get-file-from-directory__1.0.0.md" xlink:title="Given the resources directory collect the following file:&#10; &#160;* TST500C_manifest.bed&#10;">
<polygon fill="#ee9a00" stroke="black" points="114.5,-461.46 114.5,-498.46 347.5,-498.46 347.5,-461.46 114.5,-461.46"/>
<text text-anchor="middle" x="231" y="-476.26" font-family="Times,serif" font-size="14.00">get&#45;file&#45;from&#45;directory v(1.0.0)</text>
</a>
</g>
</g>
<!-- file:///tmp/tmpephcx237#resources_dir&#45;&gt;file:///tmp/tmpephcx237#get_tso_manifest_bed_from_resources_dir -->
<g id="edge20" class="edge">
<title>file:///tmp/tmpephcx237#resources_dir&#45;&gt;file:///tmp/tmpephcx237#get_tso_manifest_bed_from_resources_dir</title>
<path fill="none" stroke="black" d="M93.69,-547.28C106.22,-537.18 122.85,-524.81 139,-515.96 148.09,-510.99 158.03,-506.41 167.91,-502.31"/>
<polygon fill="black" stroke="black" points="169.36,-505.5 177.34,-498.53 166.76,-499 169.36,-505.5"/>
</g>
<!-- file:///tmp/tmpephcx237#run_parameters_xml -->
<g id="node8" class="node">
<title>file:///tmp/tmpephcx237#run_parameters_xml</title>
<g id="a_node8"><a xlink:title="The run parameters xml file found inside the run folder&#10;">
<polygon fill="#94ddf4" stroke="black" points="746,-547.46 746,-584.46 910,-584.46 910,-547.46 746,-547.46"/>
<text text-anchor="middle" x="828" y="-562.26" font-family="Times,serif" font-size="14.00">run_parameters_xml</text>
</a>
</g>
</g>
<!-- file:///tmp/tmpephcx237#run_parameters_xml&#45;&gt;file:///tmp/tmpephcx237#run_tso_ctdna_workflow_step -->
<g id="edge21" class="edge">
<title>file:///tmp/tmpephcx237#run_parameters_xml&#45;&gt;file:///tmp/tmpephcx237#run_tso_ctdna_workflow_step</title>
<path fill="none" stroke="black" d="M799.82,-547.27C782.3,-536.92 758.99,-524.28 737,-515.96 721.98,-510.28 705.76,-505.34 689.72,-501.11"/>
<polygon fill="black" stroke="black" points="690.33,-497.65 679.77,-498.56 688.59,-504.43 690.33,-497.65"/>
</g>
<!-- file:///tmp/tmpephcx237#output_results_dir -->
<g id="node9" class="node">
<title>file:///tmp/tmpephcx237#output_results_dir</title>
<g id="a_node9"><a xlink:title="The output directory&#10;">
<polygon fill="#94ddf4" stroke="black" points="628.5,-46.46 628.5,-83.46 775.5,-83.46 775.5,-46.46 628.5,-46.46"/>
<text text-anchor="middle" x="702" y="-61.26" font-family="Times,serif" font-size="14.00">output_results_dir</text>
</a>
</g>
</g>
<!-- file:///tmp/tmpephcx237#output_results_dir_by_sample -->
<g id="node10" class="node">
<title>file:///tmp/tmpephcx237#output_results_dir_by_sample</title>
<g id="a_node10"><a xlink:title="The sample subdirectory of the results&#10;">
<polygon fill="#94ddf4" stroke="black" points="793.5,-46.46 793.5,-83.46 1022.5,-83.46 1022.5,-46.46 793.5,-46.46"/>
<text text-anchor="middle" x="908" y="-61.26" font-family="Times,serif" font-size="14.00">output_results_dir_by_sample</text>
</a>
</g>
</g>
<!-- file:///tmp/tmpephcx237#get_intermediate_samplesheet_from_validation_step -->
<g id="node12" class="node">
<title>file:///tmp/tmpephcx237#get_intermediate_samplesheet_from_validation_step</title>
<g id="a_node12"><a xlink:href="https://github.com/umccr/cwl-ica/blob/main/.github/catalogue/docs/expressions/get-file-from-directory/1.0.0/get-file-from-directory__1.0.0.md" xlink:title="Get the intermediate samplesheet from the validation step.&#10;Returns a V1 samplesheet&#10;">
<polygon fill="#ee9a00" stroke="black" points="615.5,-378.46 615.5,-415.46 848.5,-415.46 848.5,-378.46 615.5,-378.46"/>
<text text-anchor="middle" x="732" y="-393.26" font-family="Times,serif" font-size="14.00">get&#45;file&#45;from&#45;directory v(1.0.0)</text>
</a>
</g>
</g>
<!-- file:///tmp/tmpephcx237#run_tso_ctdna_workflow_step&#45;&gt;file:///tmp/tmpephcx237#get_intermediate_samplesheet_from_validation_step -->
<g id="edge1" class="edge">
<title>file:///tmp/tmpephcx237#run_tso_ctdna_workflow_step&#45;&gt;file:///tmp/tmpephcx237#get_intermediate_samplesheet_from_validation_step</title>
<path fill="none" stroke="black" d="M618.46,-461.39C639.93,-449.39 668.57,-433.4 691.7,-420.47"/>
<polygon fill="black" stroke="black" points="693.58,-423.44 700.6,-415.51 690.16,-417.33 693.58,-423.44"/>
</g>
<!-- file:///tmp/tmpephcx237#run_tso_ctdna_post_processing_workflow_step -->
<g id="node13" class="node">
<title>file:///tmp/tmpephcx237#run_tso_ctdna_post_processing_workflow_step</title>
<g id="a_node13"><a xlink:href="https://github.com/umccr/cwl-ica/blob/main/.github/catalogue/docs/workflows/tso500-ctdna-post-processing-pipeline/1.0.0/tso500-ctdna-post-processing-pipeline__1.0.0.md" xlink:title="Run the very customised ctdna post processing workflow step for each sample&#10;">
<polygon fill="#ee7ae9" stroke="black" points="212.5,-378.46 212.5,-415.46 559.5,-415.46 559.5,-378.46 212.5,-378.46"/>
<text text-anchor="middle" x="386" y="-393.26" font-family="Times,serif" font-size="14.00">tso500&#45;ctdna&#45;post&#45;processing&#45;pipeline v(1.0.0)</text>
</a>
</g>
</g>
<!-- file:///tmp/tmpephcx237#run_tso_ctdna_workflow_step&#45;&gt;file:///tmp/tmpephcx237#run_tso_ctdna_post_processing_workflow_step -->
<g id="edge2" class="edge">
<title>file:///tmp/tmpephcx237#run_tso_ctdna_workflow_step&#45;&gt;file:///tmp/tmpephcx237#run_tso_ctdna_post_processing_workflow_step</title>
<path fill="none" stroke="black" d="M543.39,-461.39C512.7,-449.02 471.47,-432.41 438.9,-419.28"/>
<polygon fill="black" stroke="black" points="440.11,-416 429.53,-415.51 437.5,-422.49 440.11,-416"/>
</g>
<!-- file:///tmp/tmpephcx237#get_final_directory_output_for_tso500_pipeline -->
<g id="node14" class="node">
<title>file:///tmp/tmpephcx237#get_final_directory_output_for_tso500_pipeline</title>
<g id="a_node14"><a xlink:href="https://github.com/umccr/cwl-ica/blob/main/.github/catalogue/docs/expressions/get-custom-output-dir-entry-for-tso500-with-post-processing/1.0.0/get-custom-output-dir-entry-for-tso500-with-post-processing__1.0.0.md" xlink:title="Create the output directory containing all the files and directories listed in the previous step.&#10;">
<polygon fill="#ee9a00" stroke="black" points="409,-295.46 409,-332.46 915,-332.46 915,-295.46 409,-295.46"/>
<text text-anchor="middle" x="662" y="-310.26" font-family="Times,serif" font-size="14.00">get&#45;custom&#45;output&#45;dir&#45;entry&#45;for&#45;tso500&#45;with&#45;post&#45;processing v(1.0.0)</text>
</a>
</g>
</g>
<!-- file:///tmp/tmpephcx237#run_tso_ctdna_workflow_step&#45;&gt;file:///tmp/tmpephcx237#get_final_directory_output_for_tso500_pipeline -->
<g id="edge3" class="edge">
<title>file:///tmp/tmpephcx237#run_tso_ctdna_workflow_step&#45;&gt;file:///tmp/tmpephcx237#get_final_directory_output_for_tso500_pipeline</title>
<path fill="none" stroke="black" d="M587.74,-461.29C589.23,-440.41 593.68,-405.08 607,-377.96 613.85,-364.02 624.59,-350.72 634.76,-339.97"/>
<polygon fill="black" stroke="black" points="637.48,-342.2 642.01,-332.62 632.49,-337.28 637.48,-342.2"/>
</g>
<!-- file:///tmp/tmpephcx237#get_intermediate_samplesheet_from_validation_step&#45;&gt;file:///tmp/tmpephcx237#get_final_directory_output_for_tso500_pipeline -->
<g id="edge4" class="edge">
<title>file:///tmp/tmpephcx237#get_intermediate_samplesheet_from_validation_step&#45;&gt;file:///tmp/tmpephcx237#get_final_directory_output_for_tso500_pipeline</title>
<path fill="none" stroke="black" d="M716.81,-378.39C707.18,-367.24 694.56,-352.64 683.86,-340.26"/>
<polygon fill="black" stroke="black" points="686.35,-337.78 677.16,-332.51 681.05,-342.36 686.35,-337.78"/>
</g>
<!-- file:///tmp/tmpephcx237#run_tso_ctdna_post_processing_workflow_step&#45;&gt;file:///tmp/tmpephcx237#get_final_directory_output_for_tso500_pipeline -->
<g id="edge5" class="edge">
<title>file:///tmp/tmpephcx237#run_tso_ctdna_post_processing_workflow_step&#45;&gt;file:///tmp/tmpephcx237#get_final_directory_output_for_tso500_pipeline</title>
<path fill="none" stroke="black" d="M445.89,-378.39C489.02,-365.73 547.33,-348.62 592.51,-335.36"/>
<polygon fill="black" stroke="black" points="593.62,-338.68 602.23,-332.51 591.65,-331.96 593.62,-338.68"/>
</g>
<!-- file:///tmp/tmpephcx237#create_final_output_directory -->
<g id="node16" class="node">
<title>file:///tmp/tmpephcx237#create_final_output_directory</title>
<g id="a_node16"><a xlink:href="https://github.com/umccr/cwl-ica/blob/main/.github/catalogue/docs/tools/custom-create-directory/2.0.0/custom-create-directory__2.0.0.md" xlink:title="Create the output directory containing all the files listed in the previous step.&#10;">
<polygon fill="lightgoldenrodyellow" stroke="black" points="578.5,-212.46 578.5,-249.46 825.5,-249.46 825.5,-212.46 578.5,-212.46"/>
<text text-anchor="middle" x="702" y="-227.26" font-family="Times,serif" font-size="14.00">custom&#45;create&#45;directory v(2.0.0)</text>
</a>
</g>
</g>
<!-- file:///tmp/tmpephcx237#get_final_directory_output_for_tso500_pipeline&#45;&gt;file:///tmp/tmpephcx237#create_final_output_directory -->
<g id="edge7" class="edge">
<title>file:///tmp/tmpephcx237#get_final_directory_output_for_tso500_pipeline&#45;&gt;file:///tmp/tmpephcx237#create_final_output_directory</title>
<path fill="none" stroke="black" d="M670.68,-295.39C675.97,-284.67 682.85,-270.75 688.8,-258.69"/>
<polygon fill="black" stroke="black" points="692.05,-260.02 693.34,-249.51 685.77,-256.92 692.05,-260.02"/>
</g>
<!-- file:///tmp/tmpephcx237#get_tso_manifest_bed_from_resources_dir&#45;&gt;file:///tmp/tmpephcx237#run_tso_ctdna_post_processing_workflow_step -->
<g id="edge6" class="edge">
<title>file:///tmp/tmpephcx237#get_tso_manifest_bed_from_resources_dir&#45;&gt;file:///tmp/tmpephcx237#run_tso_ctdna_post_processing_workflow_step</title>
<path fill="none" stroke="black" d="M264.63,-461.39C287.69,-449.34 318.46,-433.26 343.25,-420.3"/>
<polygon fill="black" stroke="black" points="345.19,-423.24 352.43,-415.51 341.95,-417.04 345.19,-423.24"/>
</g>
<!-- file:///tmp/tmpephcx237#create_final_output_directory&#45;&gt;file:///tmp/tmpephcx237#output_results_dir -->
<g id="edge11" class="edge">
<title>file:///tmp/tmpephcx237#create_final_output_directory&#45;&gt;file:///tmp/tmpephcx237#output_results_dir</title>
<path fill="none" stroke="black" d="M702,-212.41C702,-184.08 702,-128.01 702,-94.07"/>
<polygon fill="black" stroke="black" points="705.5,-93.89 702,-83.89 698.5,-93.89 705.5,-93.89"/>
</g>
<!-- file:///tmp/tmpephcx237#get_sample_output_directory -->
<g id="node18" class="node">
<title>file:///tmp/tmpephcx237#get_sample_output_directory</title>
<g id="a_node18"><a xlink:href="https://github.com/umccr/cwl-ica/blob/main/.github/catalogue/docs/expressions/get-subdirectory-from-directory/1.0.0/get-subdirectory-from-directory__1.0.0.md" xlink:title="The sample output directory containing all of the samples post&#45;processing files&#10;">
<polygon fill="#ee9a00" stroke="black" points="757,-129.46 757,-166.46 1059,-166.46 1059,-129.46 757,-129.46"/>
<text text-anchor="middle" x="908" y="-144.26" font-family="Times,serif" font-size="14.00">get&#45;subdirectory&#45;from&#45;directory v(1.0.0)</text>
</a>
</g>
</g>
<!-- file:///tmp/tmpephcx237#create_final_output_directory&#45;&gt;file:///tmp/tmpephcx237#get_sample_output_directory -->
<g id="edge10" class="edge">
<title>file:///tmp/tmpephcx237#create_final_output_directory&#45;&gt;file:///tmp/tmpephcx237#get_sample_output_directory</title>
<path fill="none" stroke="black" d="M746.7,-212.39C778.15,-200.02 820.41,-183.41 853.78,-170.28"/>
<polygon fill="black" stroke="black" points="855.36,-173.42 863.39,-166.51 852.8,-166.91 855.36,-173.42"/>
</g>
<!-- file:///tmp/tmpephcx237#get_sample_ids_from_tso500_sample_object&#45;&gt;file:///tmp/tmpephcx237#get_sample_output_directory -->
<g id="edge8" class="edge">
<title>file:///tmp/tmpephcx237#get_sample_ids_from_tso500_sample_object&#45;&gt;file:///tmp/tmpephcx237#get_sample_output_directory</title>
<path fill="none" stroke="black" d="M1084.95,-461.22C1054,-406.61 960.04,-240.8 923.12,-175.65"/>
<polygon fill="black" stroke="black" points="926.08,-173.77 918.1,-166.79 919.99,-177.22 926.08,-173.77"/>
</g>
<!-- file:///tmp/tmpephcx237#get_sample_output_directory&#45;&gt;file:///tmp/tmpephcx237#output_results_dir_by_sample -->
<g id="edge9" class="edge">
<title>file:///tmp/tmpephcx237#get_sample_output_directory&#45;&gt;file:///tmp/tmpephcx237#output_results_dir_by_sample</title>
<path fill="none" stroke="black" d="M908,-129.39C908,-118.99 908,-105.58 908,-93.77"/>
<polygon fill="black" stroke="black" points="911.5,-93.51 908,-83.51 904.5,-93.51 911.5,-93.51"/>
</g>
</g>
</svg>
