<?xml version="1.0" encoding="UTF-8" standalone="no"?>
<!DOCTYPE svg PUBLIC "-//W3C//DTD SVG 1.1//EN"
 "http://www.w3.org/Graphics/SVG/1.1/DTD/svg11.dtd">
<!-- Generated by graphviz version 2.43.0 (0)
 -->
<!-- Title: G Pages: 1 -->
<svg width="1224pt" height="593pt"
 viewBox="0.00 0.00 1224.00 592.90" xmlns="http://www.w3.org/2000/svg" xmlns:xlink="http://www.w3.org/1999/xlink">
<g id="graph0" class="graph" transform="scale(1 1) rotate(0) translate(4 588.9)">
<title>G</title>
<polygon fill="#eeeeee" stroke="transparent" points="-4,4 -4,-588.9 1220,-588.9 1220,4 -4,4"/>
<g id="clust1" class="cluster">
<title>cluster_inputs</title>
<polygon fill="#eeeeee" stroke="black" stroke-dasharray="5,2" points="8,-492.83 8,-576.23 1208,-576.23 1208,-492.83 8,-492.83"/>
<text text-anchor="middle" x="1141.5" y="-500.63" font-family="Times,serif" font-size="14.00">Workflow Inputs</text>
</g>
<g id="clust2" class="cluster">
<title>cluster_outputs</title>
<polygon fill="#eeeeee" stroke="black" stroke-dasharray="5,2" points="661,-8.67 661,-92.07 1072,-92.07 1072,-8.67 661,-8.67"/>
<text text-anchor="middle" x="999.5" y="-16.47" font-family="Times,serif" font-size="14.00">Workflow Outputs</text>
</g>
<!-- file:///tmp/tmp47g57gcq#dragen_license_key -->
<g id="node1" class="node">
<title>file:///tmp/tmp47g57gcq#dragen_license_key</title>
<g id="a_node1"><a xlink:title="File containing the dragen license&#10;">
<polygon fill="#94ddf4" stroke="black" points="770.5,-528.17 770.5,-565.17 925.5,-565.17 925.5,-528.17 770.5,-528.17"/>
<text text-anchor="middle" x="848" y="-542.97" font-family="Times,serif" font-size="14.00">dragen_license_key</text>
</a>
</g>
</g>
<!-- file:///tmp/tmp47g57gcq#run_tso_ctdna_workflow_step -->
<g id="node11" class="node">
<title>file:///tmp/tmp47g57gcq#run_tso_ctdna_workflow_step</title>
<g id="a_node11"><a xlink:href="https://github.com/umccr/cwl-ica/blob/main/.github/catalogue/docs/workflows/tso500-ctdna/1.1.0--120/tso500-ctdna__1.1.0--120.md" xlink:title="Run the CWL version of the tso500 ctDNA WDL / ISL workflow&#10;">
<polygon fill="#ee7ae9" stroke="black" points="508.5,-445.17 508.5,-482.17 713.5,-482.17 713.5,-445.17 508.5,-445.17"/>
<text text-anchor="middle" x="611" y="-459.97" font-family="Times,serif" font-size="14.00">tso500&#45;ctdna v(1.1.0&#45;&#45;120)</text>
</a>
</g>
</g>
<!-- file:///tmp/tmp47g57gcq#dragen_license_key&#45;&gt;file:///tmp/tmp47g57gcq#run_tso_ctdna_workflow_step -->
<g id="edge12" class="edge">
<title>file:///tmp/tmp47g57gcq#dragen_license_key&#45;&gt;file:///tmp/tmp47g57gcq#run_tso_ctdna_workflow_step</title>
<path fill="none" stroke="black" d="M821.94,-527.99C805.4,-517.5 783.2,-504.73 762,-496.67 749.82,-492.04 736.83,-488.01 723.76,-484.53"/>
<polygon fill="black" stroke="black" points="724.33,-481.06 713.77,-481.97 722.59,-487.84 724.33,-481.06"/>
</g>
<!-- file:///tmp/tmp47g57gcq#fastq_list_rows -->
<g id="node2" class="node">
<title>file:///tmp/tmp47g57gcq#fastq_list_rows</title>
<g id="a_node2"><a xlink:title="A list of fastq list rows where each element has the following attributes&#10;* rgid &#160;# Not used&#10;* rgsm&#10;* rglb &#160;# Not used&#10;* read_1&#10;* read_2&#10;">
<polygon fill="#94ddf4" stroke="black" points="629.5,-528.17 629.5,-565.17 752.5,-565.17 752.5,-528.17 629.5,-528.17"/>
<text text-anchor="middle" x="691" y="-542.97" font-family="Times,serif" font-size="14.00">fastq_list_rows</text>
</a>
</g>
</g>
<!-- file:///tmp/tmp47g57gcq#fastq_list_rows&#45;&gt;file:///tmp/tmp47g57gcq#run_tso_ctdna_workflow_step -->
<g id="edge13" class="edge">
<title>file:///tmp/tmp47g57gcq#fastq_list_rows&#45;&gt;file:///tmp/tmp47g57gcq#run_tso_ctdna_workflow_step</title>
<path fill="none" stroke="black" d="M673.64,-528.09C662.53,-516.84 647.94,-502.07 635.64,-489.61"/>
<polygon fill="black" stroke="black" points="637.84,-486.86 628.32,-482.21 632.86,-491.78 637.84,-486.86"/>
</g>
<!-- file:///tmp/tmp47g57gcq#resources_dir -->
<g id="node3" class="node">
<title>file:///tmp/tmp47g57gcq#resources_dir</title>
<g id="a_node3"><a xlink:title="The directory of resources&#10;">
<polygon fill="#94ddf4" stroke="black" points="16.5,-528.17 16.5,-565.17 129.5,-565.17 129.5,-528.17 16.5,-528.17"/>
<text text-anchor="middle" x="73" y="-542.97" font-family="Times,serif" font-size="14.00">resources_dir</text>
</a>
</g>
</g>
<!-- file:///tmp/tmp47g57gcq#resources_dir&#45;&gt;file:///tmp/tmp47g57gcq#run_tso_ctdna_workflow_step -->
<g id="edge14" class="edge">
<title>file:///tmp/tmp47g57gcq#resources_dir&#45;&gt;file:///tmp/tmp47g57gcq#run_tso_ctdna_workflow_step</title>
<path fill="none" stroke="black" d="M90.63,-528.11C103.04,-516.96 120.65,-503.41 139,-496.67 183.74,-480.23 305.45,-485.88 353,-482.67 400.58,-479.45 453.1,-475.8 498.26,-472.64"/>
<polygon fill="black" stroke="black" points="498.64,-476.12 508.37,-471.93 498.15,-469.14 498.64,-476.12"/>
</g>
<!-- file:///tmp/tmp47g57gcq#get_tso_manifest_bed_from_resources_dir -->
<g id="node15" class="node">
<title>file:///tmp/tmp47g57gcq#get_tso_manifest_bed_from_resources_dir</title>
<g id="a_node15"><a xlink:href="https://github.com/umccr/cwl-ica/blob/main/.github/catalogue/docs/expressions/get-file-from-directory/1.0.0/get-file-from-directory__1.0.0.md" xlink:title="Given the resources directory collect the following file:&#10; &#160;* TST500C_manifest.bed&#10;">
<polygon fill="#ee9a00" stroke="black" points="110.5,-445.17 110.5,-482.17 343.5,-482.17 343.5,-445.17 110.5,-445.17"/>
<text text-anchor="middle" x="227" y="-459.97" font-family="Times,serif" font-size="14.00">get&#45;file&#45;from&#45;directory v(1.0.0)</text>
</a>
</g>
</g>
<!-- file:///tmp/tmp47g57gcq#resources_dir&#45;&gt;file:///tmp/tmp47g57gcq#get_tso_manifest_bed_from_resources_dir -->
<g id="edge15" class="edge">
<title>file:///tmp/tmp47g57gcq#resources_dir&#45;&gt;file:///tmp/tmp47g57gcq#get_tso_manifest_bed_from_resources_dir</title>
<path fill="none" stroke="black" d="M93.35,-528.13C105.9,-517.96 122.66,-505.46 139,-496.67 146.12,-492.83 153.8,-489.28 161.55,-486.04"/>
<polygon fill="black" stroke="black" points="163.03,-489.22 171.01,-482.26 160.43,-482.72 163.03,-489.22"/>
</g>
<!-- file:///tmp/tmp47g57gcq#samplesheet_prefix -->
<g id="node4" class="node">
<title>file:///tmp/tmp47g57gcq#samplesheet_prefix</title>
<g id="a_node4"><a xlink:title="Points to the TSO500 section of the samplesheet. &#160;If you are using a samplesheet from BCLConvert,&#10;please set this to &quot;BCLConvert&quot;&#10;">
<polygon fill="#94ddf4" stroke="black" points="456.5,-528.17 456.5,-565.17 611.5,-565.17 611.5,-528.17 456.5,-528.17"/>
<text text-anchor="middle" x="534" y="-542.97" font-family="Times,serif" font-size="14.00">samplesheet_prefix</text>
</a>
</g>
</g>
<!-- file:///tmp/tmp47g57gcq#samplesheet_prefix&#45;&gt;file:///tmp/tmp47g57gcq#run_tso_ctdna_workflow_step -->
<g id="edge16" class="edge">
<title>file:///tmp/tmp47g57gcq#samplesheet_prefix&#45;&gt;file:///tmp/tmp47g57gcq#run_tso_ctdna_workflow_step</title>
<path fill="none" stroke="black" d="M550.71,-528.09C561.4,-516.84 575.44,-502.07 587.29,-489.61"/>
<polygon fill="black" stroke="black" points="589.97,-491.87 594.32,-482.21 584.9,-487.04 589.97,-491.87"/>
</g>
<!-- file:///tmp/tmp47g57gcq#run_info_xml -->
<g id="node5" class="node">
<title>file:///tmp/tmp47g57gcq#run_info_xml</title>
<g id="a_node5"><a xlink:title="The run info xml file found inside the run folder&#10;">
<polygon fill="#94ddf4" stroke="black" points="330,-528.17 330,-565.17 438,-565.17 438,-528.17 330,-528.17"/>
<text text-anchor="middle" x="384" y="-542.97" font-family="Times,serif" font-size="14.00">run_info_xml</text>
</a>
</g>
</g>
<!-- file:///tmp/tmp47g57gcq#run_info_xml&#45;&gt;file:///tmp/tmp47g57gcq#run_tso_ctdna_workflow_step -->
<g id="edge17" class="edge">
<title>file:///tmp/tmp47g57gcq#run_info_xml&#45;&gt;file:///tmp/tmp47g57gcq#run_tso_ctdna_workflow_step</title>
<path fill="none" stroke="black" d="M402.1,-528.14C414.17,-517.44 430.91,-504.37 448,-496.67 463.71,-489.58 480.97,-484.06 498.2,-479.76"/>
<polygon fill="black" stroke="black" points="499.41,-483.07 508.33,-477.36 497.8,-476.26 499.41,-483.07"/>
</g>
<!-- file:///tmp/tmp47g57gcq#tso500_samples -->
<g id="node6" class="node">
<title>file:///tmp/tmp47g57gcq#tso500_samples</title>
<g id="a_node6"><a xlink:title="A list of tso500 samples each element has the following attributes:&#10;* sample_id&#10;* sample_type&#10;* pair_id&#10;">
<polygon fill="#94ddf4" stroke="black" points="1068.5,-528.17 1068.5,-565.17 1199.5,-565.17 1199.5,-528.17 1068.5,-528.17"/>
<text text-anchor="middle" x="1134" y="-542.97" font-family="Times,serif" font-size="14.00">tso500_samples</text>
</a>
</g>
</g>
<!-- file:///tmp/tmp47g57gcq#tso500_samples&#45;&gt;file:///tmp/tmp47g57gcq#run_tso_ctdna_workflow_step -->
<g id="edge18" class="edge">
<title>file:///tmp/tmp47g57gcq#tso500_samples&#45;&gt;file:///tmp/tmp47g57gcq#run_tso_ctdna_workflow_step</title>
<path fill="none" stroke="black" d="M1113.85,-528.15C1099.77,-517.02 1079.98,-503.47 1060,-496.67 1056.03,-495.31 855.52,-481.39 723.81,-472.36"/>
<polygon fill="black" stroke="black" points="723.88,-468.85 713.67,-471.66 723.4,-475.84 723.88,-468.85"/>
</g>
<!-- file:///tmp/tmp47g57gcq#get_sample_ids_from_tso500_sample_object -->
<g id="node18" class="node">
<title>file:///tmp/tmp47g57gcq#get_sample_ids_from_tso500_sample_object</title>
<g id="a_node18"><a xlink:href="https://github.com/umccr/cwl-ica/blob/main/.github/catalogue/docs/expressions/get-attr-from-tso500-sample-object/1.0.0/get-attr-from-tso500-sample-object__1.0.0.md" xlink:title="Generate a list of sample ids from the tso500 sample objects&#10;">
<polygon fill="#ee9a00" stroke="black" points="890,-445.17 890,-482.17 1216,-482.17 1216,-445.17 890,-445.17"/>
<text text-anchor="middle" x="1053" y="-459.97" font-family="Times,serif" font-size="14.00">get&#45;attr&#45;from&#45;tso500&#45;sample&#45;object v(1.0.0)</text>
</a>
</g>
</g>
<!-- file:///tmp/tmp47g57gcq#tso500_samples&#45;&gt;file:///tmp/tmp47g57gcq#get_sample_ids_from_tso500_sample_object -->
<g id="edge19" class="edge">
<title>file:///tmp/tmp47g57gcq#tso500_samples&#45;&gt;file:///tmp/tmp47g57gcq#get_sample_ids_from_tso500_sample_object</title>
<path fill="none" stroke="black" d="M1116.42,-528.09C1105.17,-516.84 1090.4,-502.07 1077.95,-489.61"/>
<polygon fill="black" stroke="black" points="1080.09,-486.8 1070.54,-482.21 1075.14,-491.75 1080.09,-486.8"/>
</g>
<!-- file:///tmp/tmp47g57gcq#samplesheet -->
<g id="node7" class="node">
<title>file:///tmp/tmp47g57gcq#samplesheet</title>
<g id="a_node7"><a xlink:title="The sample sheet file, expects a V2 samplesheet.&#10;Even though we don&#39;t demultiplex, we still need the information on Sample_Type and Pair_ID to determine which&#10;workflow (DNA / RNA) to run through, we gather this through the tso500_samples input schema and then append to the&#10;samplesheet. Please make sure that the sample_id in the tso500 sample schema match the Sample_ID in the&#10;&quot;&lt;samplesheet_prefix&gt;_Data&quot; column.&#10;">
<polygon fill="#94ddf4" stroke="black" points="943.5,-528.17 943.5,-565.17 1050.5,-565.17 1050.5,-528.17 943.5,-528.17"/>
<text text-anchor="middle" x="997" y="-542.97" font-family="Times,serif" font-size="14.00">samplesheet</text>
</a>
</g>
</g>
<!-- file:///tmp/tmp47g57gcq#samplesheet&#45;&gt;file:///tmp/tmp47g57gcq#run_tso_ctdna_workflow_step -->
<g id="edge20" class="edge">
<title>file:///tmp/tmp47g57gcq#samplesheet&#45;&gt;file:///tmp/tmp47g57gcq#run_tso_ctdna_workflow_step</title>
<path fill="none" stroke="black" d="M980.31,-528.06C968.72,-517.04 952.3,-503.65 935,-496.67 897.75,-481.63 802.01,-473.43 724.19,-469.1"/>
<polygon fill="black" stroke="black" points="724,-465.59 713.83,-468.54 723.62,-472.58 724,-465.59"/>
</g>
<!-- file:///tmp/tmp47g57gcq#run_parameters_xml -->
<g id="node8" class="node">
<title>file:///tmp/tmp47g57gcq#run_parameters_xml</title>
<g id="a_node8"><a xlink:title="The run parameters xml file found inside the run folder&#10;">
<polygon fill="#94ddf4" stroke="black" points="148,-528.17 148,-565.17 312,-565.17 312,-528.17 148,-528.17"/>
<text text-anchor="middle" x="230" y="-542.97" font-family="Times,serif" font-size="14.00">run_parameters_xml</text>
</a>
</g>
</g>
<!-- file:///tmp/tmp47g57gcq#run_parameters_xml&#45;&gt;file:///tmp/tmp47g57gcq#run_tso_ctdna_workflow_step -->
<g id="edge21" class="edge">
<title>file:///tmp/tmp47g57gcq#run_parameters_xml&#45;&gt;file:///tmp/tmp47g57gcq#run_tso_ctdna_workflow_step</title>
<path fill="none" stroke="black" d="M256.27,-528C273.83,-517.1 297.87,-503.87 321,-496.67 377.91,-478.94 443.78,-470.75 498.34,-467.07"/>
<polygon fill="black" stroke="black" points="498.63,-470.56 508.39,-466.44 498.19,-463.58 498.63,-470.56"/>
</g>
<!-- file:///tmp/tmp47g57gcq#output_results_dir -->
<g id="node9" class="node">
<title>file:///tmp/tmp47g57gcq#output_results_dir</title>
<g id="a_node9"><a xlink:title="The output directory&#10;">
<polygon fill="#94ddf4" stroke="black" points="669.5,-44.17 669.5,-81.17 816.5,-81.17 816.5,-44.17 669.5,-44.17"/>
<text text-anchor="middle" x="743" y="-58.97" font-family="Times,serif" font-size="14.00">output_results_dir</text>
</a>
</g>
</g>
<!-- file:///tmp/tmp47g57gcq#output_results_dir_by_sample -->
<g id="node10" class="node">
<title>file:///tmp/tmp47g57gcq#output_results_dir_by_sample</title>
<g id="a_node10"><a xlink:title="The sample subdirectory of the results&#10;">
<polygon fill="#94ddf4" stroke="black" points="834.5,-44.17 834.5,-81.17 1063.5,-81.17 1063.5,-44.17 834.5,-44.17"/>
<text text-anchor="middle" x="949" y="-58.97" font-family="Times,serif" font-size="14.00">output_results_dir_by_sample</text>
</a>
</g>
</g>
<!-- file:///tmp/tmp47g57gcq#run_tso_ctdna_post_processing_workflow_step -->
<g id="node12" class="node">
<title>file:///tmp/tmp47g57gcq#run_tso_ctdna_post_processing_workflow_step</title>
<g id="a_node12"><a xlink:href="https://github.com/umccr/cwl-ica/blob/main/.github/catalogue/docs/workflows/tso500-ctdna-post-processing-pipeline/1.0.0/tso500-ctdna-post-processing-pipeline__1.0.0.md" xlink:title="Run the very customised ctdna post processing workflow step for each sample&#10;">
<polygon fill="#ee7ae9" stroke="black" points="129.5,-365.17 129.5,-402.17 476.5,-402.17 476.5,-365.17 129.5,-365.17"/>
<text text-anchor="middle" x="303" y="-379.97" font-family="Times,serif" font-size="14.00">tso500&#45;ctdna&#45;post&#45;processing&#45;pipeline v(1.0.0)</text>
</a>
</g>
</g>
<!-- file:///tmp/tmp47g57gcq#run_tso_ctdna_workflow_step&#45;&gt;file:///tmp/tmp47g57gcq#run_tso_ctdna_post_processing_workflow_step -->
<g id="edge1" class="edge">
<title>file:///tmp/tmp47g57gcq#run_tso_ctdna_workflow_step&#45;&gt;file:///tmp/tmp47g57gcq#run_tso_ctdna_post_processing_workflow_step</title>
<path fill="none" stroke="black" d="M541.88,-445.16C494.41,-433.14 431.29,-417.15 381.85,-404.63"/>
<polygon fill="black" stroke="black" points="382.71,-401.24 372.16,-402.18 380.99,-408.03 382.71,-401.24"/>
</g>
<!-- file:///tmp/tmp47g57gcq#get_intermediate_samplesheet_from_validation_step -->
<g id="node13" class="node">
<title>file:///tmp/tmp47g57gcq#get_intermediate_samplesheet_from_validation_step</title>
<g id="a_node13"><a xlink:href="https://github.com/umccr/cwl-ica/blob/main/.github/catalogue/docs/expressions/get-file-from-directory/1.0.0/get-file-from-directory__1.0.0.md" xlink:title="Get the intermediate samplesheet from the validation step.&#10;Returns a V1 samplesheet&#10;">
<polygon fill="#ee9a00" stroke="black" points="494.5,-365.17 494.5,-402.17 727.5,-402.17 727.5,-365.17 494.5,-365.17"/>
<text text-anchor="middle" x="611" y="-379.97" font-family="Times,serif" font-size="14.00">get&#45;file&#45;from&#45;directory v(1.0.0)</text>
</a>
</g>
</g>
<!-- file:///tmp/tmp47g57gcq#run_tso_ctdna_workflow_step&#45;&gt;file:///tmp/tmp47g57gcq#get_intermediate_samplesheet_from_validation_step -->
<g id="edge2" class="edge">
<title>file:///tmp/tmp47g57gcq#run_tso_ctdna_workflow_step&#45;&gt;file:///tmp/tmp47g57gcq#get_intermediate_samplesheet_from_validation_step</title>
<path fill="none" stroke="black" d="M611,-444.97C611,-435.39 611,-423.35 611,-412.55"/>
<polygon fill="black" stroke="black" points="614.5,-412.29 611,-402.29 607.5,-412.29 614.5,-412.29"/>
</g>
<!-- file:///tmp/tmp47g57gcq#get_final_directory_output_for_tso500_pipeline -->
<g id="node14" class="node">
<title>file:///tmp/tmp47g57gcq#get_final_directory_output_for_tso500_pipeline</title>
<g id="a_node14"><a xlink:href="https://github.com/umccr/cwl-ica/blob/main/.github/catalogue/docs/expressions/get-custom-output-dir-entry-for-tso500-with-post-processing/1.0.0/get-custom-output-dir-entry-for-tso500-with-post-processing__1.0.0.md" xlink:title="Create the output directory containing all the files and directories listed in the previous step.&#10;">
<polygon fill="#ee9a00" stroke="black" points="430,-285.17 430,-322.17 936,-322.17 936,-285.17 430,-285.17"/>
<text text-anchor="middle" x="683" y="-299.97" font-family="Times,serif" font-size="14.00">get&#45;custom&#45;output&#45;dir&#45;entry&#45;for&#45;tso500&#45;with&#45;post&#45;processing v(1.0.0)</text>
</a>
</g>
</g>
<!-- file:///tmp/tmp47g57gcq#run_tso_ctdna_workflow_step&#45;&gt;file:///tmp/tmp47g57gcq#get_final_directory_output_for_tso500_pipeline -->
<g id="edge3" class="edge">
<title>file:///tmp/tmp47g57gcq#run_tso_ctdna_workflow_step&#45;&gt;file:///tmp/tmp47g57gcq#get_final_directory_output_for_tso500_pipeline</title>
<path fill="none" stroke="black" d="M681.59,-445.12C703.11,-436.1 724.39,-422.64 737,-402.67 752.33,-378.38 731.95,-349.46 711.98,-329.36"/>
<polygon fill="black" stroke="black" points="714.35,-326.78 704.71,-322.38 709.5,-331.83 714.35,-326.78"/>
</g>
<!-- file:///tmp/tmp47g57gcq#run_tso_ctdna_post_processing_workflow_step&#45;&gt;file:///tmp/tmp47g57gcq#get_final_directory_output_for_tso500_pipeline -->
<g id="edge4" class="edge">
<title>file:///tmp/tmp47g57gcq#run_tso_ctdna_post_processing_workflow_step&#45;&gt;file:///tmp/tmp47g57gcq#get_final_directory_output_for_tso500_pipeline</title>
<path fill="none" stroke="black" d="M388.28,-365.16C447.46,-353.01 526.35,-336.82 587.62,-324.24"/>
<polygon fill="black" stroke="black" points="588.59,-327.62 597.68,-322.18 587.18,-320.76 588.59,-327.62"/>
</g>
<!-- file:///tmp/tmp47g57gcq#get_intermediate_samplesheet_from_validation_step&#45;&gt;file:///tmp/tmp47g57gcq#get_final_directory_output_for_tso500_pipeline -->
<g id="edge6" class="edge">
<title>file:///tmp/tmp47g57gcq#get_intermediate_samplesheet_from_validation_step&#45;&gt;file:///tmp/tmp47g57gcq#get_final_directory_output_for_tso500_pipeline</title>
<path fill="none" stroke="black" d="M627.34,-364.97C636.91,-354.59 649.16,-341.32 659.73,-329.87"/>
<polygon fill="black" stroke="black" points="662.52,-332.02 666.73,-322.29 657.37,-327.27 662.52,-332.02"/>
</g>
<!-- file:///tmp/tmp47g57gcq#create_final_output_directory -->
<g id="node16" class="node">
<title>file:///tmp/tmp47g57gcq#create_final_output_directory</title>
<g id="a_node16"><a xlink:href="https://github.com/umccr/cwl-ica/blob/main/.github/catalogue/docs/tools/custom-create-directory/2.0.0/custom-create-directory__2.0.0.md" xlink:title="Create the output directory containing all the files listed in the previous step.&#10;">
<polygon fill="lightgoldenrodyellow" stroke="black" points="619.5,-204.17 619.5,-241.17 866.5,-241.17 866.5,-204.17 619.5,-204.17"/>
<text text-anchor="middle" x="743" y="-218.97" font-family="Times,serif" font-size="14.00">custom&#45;create&#45;directory v(2.0.0)</text>
</a>
</g>
</g>
<!-- file:///tmp/tmp47g57gcq#get_final_directory_output_for_tso500_pipeline&#45;&gt;file:///tmp/tmp47g57gcq#create_final_output_directory -->
<g id="edge7" class="edge">
<title>file:///tmp/tmp47g57gcq#get_final_directory_output_for_tso500_pipeline&#45;&gt;file:///tmp/tmp47g57gcq#create_final_output_directory</title>
<path fill="none" stroke="black" d="M696.32,-285.13C704.26,-274.67 714.5,-261.2 723.36,-249.53"/>
<polygon fill="black" stroke="black" points="726.25,-251.5 729.51,-241.42 720.68,-247.27 726.25,-251.5"/>
</g>
<!-- file:///tmp/tmp47g57gcq#get_tso_manifest_bed_from_resources_dir&#45;&gt;file:///tmp/tmp47g57gcq#run_tso_ctdna_post_processing_workflow_step -->
<g id="edge5" class="edge">
<title>file:///tmp/tmp47g57gcq#get_tso_manifest_bed_from_resources_dir&#45;&gt;file:///tmp/tmp47g57gcq#run_tso_ctdna_post_processing_workflow_step</title>
<path fill="none" stroke="black" d="M244.25,-444.97C254.45,-434.49 267.53,-421.07 278.76,-409.54"/>
<polygon fill="black" stroke="black" points="281.35,-411.9 285.82,-402.29 276.34,-407.01 281.35,-411.9"/>
</g>
<!-- file:///tmp/tmp47g57gcq#create_final_output_directory&#45;&gt;file:///tmp/tmp47g57gcq#output_results_dir -->
<g id="edge9" class="edge">
<title>file:///tmp/tmp47g57gcq#create_final_output_directory&#45;&gt;file:///tmp/tmp47g57gcq#output_results_dir</title>
<path fill="none" stroke="black" d="M743,-204.15C743,-176.87 743,-123.97 743,-91.44"/>
<polygon fill="black" stroke="black" points="746.5,-91.26 743,-81.26 739.5,-91.26 746.5,-91.26"/>
</g>
<!-- file:///tmp/tmp47g57gcq#get_sample_output_directory -->
<g id="node17" class="node">
<title>file:///tmp/tmp47g57gcq#get_sample_output_directory</title>
<g id="a_node17"><a xlink:href="https://github.com/umccr/cwl-ica/blob/main/.github/catalogue/docs/expressions/get-subdirectory-from-directory/1.0.0/get-subdirectory-from-directory__1.0.0.md" xlink:title="The sample output directory containing all of the samples post&#45;processing files&#10;">
<polygon fill="#ee9a00" stroke="black" points="798,-124.17 798,-161.17 1100,-161.17 1100,-124.17 798,-124.17"/>
<text text-anchor="middle" x="949" y="-138.97" font-family="Times,serif" font-size="14.00">get&#45;subdirectory&#45;from&#45;directory v(1.0.0)</text>
</a>
</g>
</g>
<!-- file:///tmp/tmp47g57gcq#create_final_output_directory&#45;&gt;file:///tmp/tmp47g57gcq#get_sample_output_directory -->
<g id="edge8" class="edge">
<title>file:///tmp/tmp47g57gcq#create_final_output_directory&#45;&gt;file:///tmp/tmp47g57gcq#get_sample_output_directory</title>
<path fill="none" stroke="black" d="M789.23,-204.16C820,-192.51 860.6,-177.14 893.17,-164.8"/>
<polygon fill="black" stroke="black" points="894.46,-168.06 902.57,-161.25 891.98,-161.51 894.46,-168.06"/>
</g>
<!-- file:///tmp/tmp47g57gcq#get_sample_output_directory&#45;&gt;file:///tmp/tmp47g57gcq#output_results_dir_by_sample -->
<g id="edge10" class="edge">
<title>file:///tmp/tmp47g57gcq#get_sample_output_directory&#45;&gt;file:///tmp/tmp47g57gcq#output_results_dir_by_sample</title>
<path fill="none" stroke="black" d="M949,-123.97C949,-114.39 949,-102.35 949,-91.55"/>
<polygon fill="black" stroke="black" points="952.5,-91.29 949,-81.29 945.5,-91.29 952.5,-91.29"/>
</g>
<!-- file:///tmp/tmp47g57gcq#get_sample_ids_from_tso500_sample_object&#45;&gt;file:///tmp/tmp47g57gcq#get_sample_output_directory -->
<g id="edge11" class="edge">
<title>file:///tmp/tmp47g57gcq#get_sample_ids_from_tso500_sample_object&#45;&gt;file:///tmp/tmp47g57gcq#get_sample_output_directory</title>
<path fill="none" stroke="black" d="M1047.26,-445.06C1030.04,-392.23 978.7,-234.77 957.9,-170.97"/>
<polygon fill="black" stroke="black" points="961.15,-169.64 954.72,-161.22 954.49,-171.81 961.15,-169.64"/>
</g>
</g>
</svg>
