<?xml version="1.0" encoding="UTF-8" standalone="no"?>
<!DOCTYPE svg PUBLIC "-//W3C//DTD SVG 1.1//EN"
 "http://www.w3.org/Graphics/SVG/1.1/DTD/svg11.dtd">
<!-- Generated by graphviz version 2.43.0 (0)
 -->
<!-- Title: G Pages: 1 -->
<svg width="1263pt" height="612pt"
 viewBox="0.00 0.00 1263.00 611.65" xmlns="http://www.w3.org/2000/svg" xmlns:xlink="http://www.w3.org/1999/xlink">
<g id="graph0" class="graph" transform="scale(1 1) rotate(0) translate(4 607.65)">
<title>G</title>
<polygon fill="#eeeeee" stroke="transparent" points="-4,4 -4,-607.65 1259,-607.65 1259,4 -4,4"/>
<g id="clust1" class="cluster">
<title>cluster_inputs</title>
<polygon fill="#eeeeee" stroke="black" stroke-dasharray="5,2" points="8,-508.64 8,-594.71 1209,-594.71 1209,-508.64 8,-508.64"/>
<text text-anchor="middle" x="1142.5" y="-516.44" font-family="Times,serif" font-size="14.00">Workflow Inputs</text>
</g>
<g id="clust2" class="cluster">
<title>cluster_outputs</title>
<polygon fill="#eeeeee" stroke="black" stroke-dasharray="5,2" points="609,-8.94 609,-95.02 1020,-95.02 1020,-8.94 609,-8.94"/>
<text text-anchor="middle" x="947.5" y="-16.74" font-family="Times,serif" font-size="14.00">Workflow Outputs</text>
</g>
<!-- file:///tmp/tmpsqdvh05b#run_info_xml -->
<g id="node1" class="node">
<title>file:///tmp/tmpsqdvh05b#run_info_xml</title>
<g id="a_node1"><a xlink:title="The run info xml file found inside the run folder&#10;">
<polygon fill="#94ddf4" stroke="black" points="943,-546.44 943,-583.44 1051,-583.44 1051,-546.44 943,-546.44"/>
<text text-anchor="middle" x="997" y="-561.24" font-family="Times,serif" font-size="14.00">run_info_xml</text>
</a>
</g>
</g>
<!-- file:///tmp/tmpsqdvh05b#run_tso_ctdna_workflow_step -->
<g id="node11" class="node">
<title>file:///tmp/tmpsqdvh05b#run_tso_ctdna_workflow_step</title>
<g id="a_node11"><a xlink:href="https://github.com/umccr/cwl-ica/blob/main/.github/catalogue/docs/workflows/tso500-ctdna/1.1.0--120/tso500-ctdna__1.1.0--120.md" xlink:title="Run the CWL version of the tso500 ctDNA WDL / ISL workflow&#10;">
<polygon fill="#ee7ae9" stroke="black" points="473.5,-460.44 473.5,-497.44 678.5,-497.44 678.5,-460.44 473.5,-460.44"/>
<text text-anchor="middle" x="576" y="-475.24" font-family="Times,serif" font-size="14.00">tso500&#45;ctdna v(1.1.0&#45;&#45;120)</text>
</a>
</g>
</g>
<!-- file:///tmp/tmpsqdvh05b#run_info_xml&#45;&gt;file:///tmp/tmpsqdvh05b#run_tso_ctdna_workflow_step -->
<g id="edge12" class="edge">
<title>file:///tmp/tmpsqdvh05b#run_info_xml&#45;&gt;file:///tmp/tmpsqdvh05b#run_tso_ctdna_workflow_step</title>
<path fill="none" stroke="black" d="M979.99,-546.34C968.19,-535.31 951.51,-521.92 934,-514.94 890.78,-497.72 776.58,-488.69 688.68,-484.15"/>
<polygon fill="black" stroke="black" points="688.8,-480.65 678.64,-483.64 688.45,-487.64 688.8,-480.65"/>
</g>
<!-- file:///tmp/tmpsqdvh05b#resources_dir -->
<g id="node2" class="node">
<title>file:///tmp/tmpsqdvh05b#resources_dir</title>
<g id="a_node2"><a xlink:title="The directory of resources&#10;">
<polygon fill="#94ddf4" stroke="black" points="16.5,-546.44 16.5,-583.44 129.5,-583.44 129.5,-546.44 16.5,-546.44"/>
<text text-anchor="middle" x="73" y="-561.24" font-family="Times,serif" font-size="14.00">resources_dir</text>
</a>
</g>
</g>
<!-- file:///tmp/tmpsqdvh05b#resources_dir&#45;&gt;file:///tmp/tmpsqdvh05b#run_tso_ctdna_workflow_step -->
<g id="edge13" class="edge">
<title>file:///tmp/tmpsqdvh05b#resources_dir&#45;&gt;file:///tmp/tmpsqdvh05b#run_tso_ctdna_workflow_step</title>
<path fill="none" stroke="black" d="M90.93,-546.23C103.34,-535.16 120.83,-521.76 139,-514.94 183.88,-498.11 306.23,-501.77 354,-497.94 389.52,-495.1 428.23,-491.97 463.24,-489.13"/>
<polygon fill="black" stroke="black" points="463.81,-492.6 473.49,-488.3 463.24,-485.62 463.81,-492.6"/>
</g>
<!-- file:///tmp/tmpsqdvh05b#get_tso_manifest_bed_from_resources_dir -->
<g id="node15" class="node">
<title>file:///tmp/tmpsqdvh05b#get_tso_manifest_bed_from_resources_dir</title>
<g id="a_node15"><a xlink:href="https://github.com/umccr/cwl-ica/blob/main/.github/catalogue/docs/expressions/get-file-from-directory/1.0.0/get-file-from-directory__1.0.0.md" xlink:title="Given the resources directory collect the following file:&#10; &#160;* TST500C_manifest.bed&#10;">
<polygon fill="#ee9a00" stroke="black" points="111.5,-460.44 111.5,-497.44 344.5,-497.44 344.5,-460.44 111.5,-460.44"/>
<text text-anchor="middle" x="228" y="-475.24" font-family="Times,serif" font-size="14.00">get&#45;file&#45;from&#45;directory v(1.0.0)</text>
</a>
</g>
</g>
<!-- file:///tmp/tmpsqdvh05b#resources_dir&#45;&gt;file:///tmp/tmpsqdvh05b#get_tso_manifest_bed_from_resources_dir -->
<g id="edge14" class="edge">
<title>file:///tmp/tmpsqdvh05b#resources_dir&#45;&gt;file:///tmp/tmpsqdvh05b#get_tso_manifest_bed_from_resources_dir</title>
<path fill="none" stroke="black" d="M93.73,-546.33C106.27,-536.25 122.9,-523.88 139,-514.94 147.82,-510.05 157.46,-505.51 167.05,-501.42"/>
<polygon fill="black" stroke="black" points="168.66,-504.54 176.58,-497.5 166,-498.07 168.66,-504.54"/>
</g>
<!-- file:///tmp/tmpsqdvh05b#dragen_license_key -->
<g id="node3" class="node">
<title>file:///tmp/tmpsqdvh05b#dragen_license_key</title>
<g id="a_node3"><a xlink:title="File containing the dragen license&#10;">
<polygon fill="#94ddf4" stroke="black" points="628.5,-546.44 628.5,-583.44 783.5,-583.44 783.5,-546.44 628.5,-546.44"/>
<text text-anchor="middle" x="706" y="-561.24" font-family="Times,serif" font-size="14.00">dragen_license_key</text>
</a>
</g>
</g>
<!-- file:///tmp/tmpsqdvh05b#dragen_license_key&#45;&gt;file:///tmp/tmpsqdvh05b#run_tso_ctdna_workflow_step -->
<g id="edge15" class="edge">
<title>file:///tmp/tmpsqdvh05b#dragen_license_key&#45;&gt;file:///tmp/tmpsqdvh05b#run_tso_ctdna_workflow_step</title>
<path fill="none" stroke="black" d="M678.75,-546.33C659.25,-533.73 632.81,-516.65 611.64,-502.97"/>
<polygon fill="black" stroke="black" points="613.52,-500.02 603.22,-497.53 609.72,-505.9 613.52,-500.02"/>
</g>
<!-- file:///tmp/tmpsqdvh05b#tso500_samples -->
<g id="node4" class="node">
<title>file:///tmp/tmpsqdvh05b#tso500_samples</title>
<g id="a_node4"><a xlink:title="A list of tso500 samples each element has the following attributes:&#10;* sample_id&#10;* sample_type&#10;* pair_id&#10;">
<polygon fill="#94ddf4" stroke="black" points="1069.5,-546.44 1069.5,-583.44 1200.5,-583.44 1200.5,-546.44 1069.5,-546.44"/>
<text text-anchor="middle" x="1135" y="-561.24" font-family="Times,serif" font-size="14.00">tso500_samples</text>
</a>
</g>
</g>
<!-- file:///tmp/tmpsqdvh05b#tso500_samples&#45;&gt;file:///tmp/tmpsqdvh05b#run_tso_ctdna_workflow_step -->
<g id="edge16" class="edge">
<title>file:///tmp/tmpsqdvh05b#tso500_samples&#45;&gt;file:///tmp/tmpsqdvh05b#run_tso_ctdna_workflow_step</title>
<path fill="none" stroke="black" d="M1114.54,-546.44C1100.25,-535.31 1080.19,-521.76 1060,-514.94 1025.82,-503.41 820.7,-491.64 688.69,-485.11"/>
<polygon fill="black" stroke="black" points="688.69,-481.61 678.53,-484.62 688.34,-488.6 688.69,-481.61"/>
</g>
<!-- file:///tmp/tmpsqdvh05b#get_sample_ids_from_tso500_sample_object -->
<g id="node16" class="node">
<title>file:///tmp/tmpsqdvh05b#get_sample_ids_from_tso500_sample_object</title>
<g id="a_node16"><a xlink:href="https://github.com/umccr/cwl-ica/blob/main/.github/catalogue/docs/expressions/get-attr-from-tso500-sample-object/1.0.0/get-attr-from-tso500-sample-object__1.0.0.md" xlink:title="Generate a list of sample ids from the tso500 sample objects&#10;">
<polygon fill="#ee9a00" stroke="black" points="929,-460.44 929,-497.44 1255,-497.44 1255,-460.44 929,-460.44"/>
<text text-anchor="middle" x="1092" y="-475.24" font-family="Times,serif" font-size="14.00">get&#45;attr&#45;from&#45;tso500&#45;sample&#45;object v(1.0.0)</text>
</a>
</g>
</g>
<!-- file:///tmp/tmpsqdvh05b#tso500_samples&#45;&gt;file:///tmp/tmpsqdvh05b#get_sample_ids_from_tso500_sample_object -->
<g id="edge17" class="edge">
<title>file:///tmp/tmpsqdvh05b#tso500_samples&#45;&gt;file:///tmp/tmpsqdvh05b#get_sample_ids_from_tso500_sample_object</title>
<path fill="none" stroke="black" d="M1125.88,-546.13C1119.97,-534.58 1112.16,-519.33 1105.53,-506.38"/>
<polygon fill="black" stroke="black" points="1108.63,-504.75 1100.96,-497.44 1102.4,-507.94 1108.63,-504.75"/>
</g>
<!-- file:///tmp/tmpsqdvh05b#samplesheet -->
<g id="node5" class="node">
<title>file:///tmp/tmpsqdvh05b#samplesheet</title>
<g id="a_node5"><a xlink:title="The sample sheet file, expects a V2 samplesheet.&#10;Even though we don&#39;t demultiplex, we still need the information on Sample_Type and Pair_ID to determine which&#10;workflow (DNA / RNA) to run through, we gather this through the tso500_samples input schema and then append to the&#10;samplesheet. Please make sure that the sample_id in the tso500 sample schema match the Sample_ID in the&#10;&quot;&lt;samplesheet_prefix&gt;_Data&quot; column.&#10;">
<polygon fill="#94ddf4" stroke="black" points="330.5,-546.44 330.5,-583.44 437.5,-583.44 437.5,-546.44 330.5,-546.44"/>
<text text-anchor="middle" x="384" y="-561.24" font-family="Times,serif" font-size="14.00">samplesheet</text>
</a>
</g>
</g>
<!-- file:///tmp/tmpsqdvh05b#samplesheet&#45;&gt;file:///tmp/tmpsqdvh05b#run_tso_ctdna_workflow_step -->
<g id="edge18" class="edge">
<title>file:///tmp/tmpsqdvh05b#samplesheet&#45;&gt;file:///tmp/tmpsqdvh05b#run_tso_ctdna_workflow_step</title>
<path fill="none" stroke="black" d="M402.51,-546.34C414.4,-535.88 430.64,-523.11 447,-514.94 458.14,-509.38 470.28,-504.61 482.5,-500.55"/>
<polygon fill="black" stroke="black" points="483.84,-503.8 492.31,-497.44 481.72,-497.13 483.84,-503.8"/>
</g>
<!-- file:///tmp/tmpsqdvh05b#run_parameters_xml -->
<g id="node6" class="node">
<title>file:///tmp/tmpsqdvh05b#run_parameters_xml</title>
<g id="a_node6"><a xlink:title="The run parameters xml file found inside the run folder&#10;">
<polygon fill="#94ddf4" stroke="black" points="148,-546.44 148,-583.44 312,-583.44 312,-546.44 148,-546.44"/>
<text text-anchor="middle" x="230" y="-561.24" font-family="Times,serif" font-size="14.00">run_parameters_xml</text>
</a>
</g>
</g>
<!-- file:///tmp/tmpsqdvh05b#run_parameters_xml&#45;&gt;file:///tmp/tmpsqdvh05b#run_tso_ctdna_workflow_step -->
<g id="edge19" class="edge">
<title>file:///tmp/tmpsqdvh05b#run_parameters_xml&#45;&gt;file:///tmp/tmpsqdvh05b#run_tso_ctdna_workflow_step</title>
<path fill="none" stroke="black" d="M257.05,-546.25C274.8,-535.49 298.93,-522.41 322,-514.94 367.08,-500.35 418.59,-491.84 463.38,-486.88"/>
<polygon fill="black" stroke="black" points="463.85,-490.35 473.43,-485.81 463.11,-483.38 463.85,-490.35"/>
</g>
<!-- file:///tmp/tmpsqdvh05b#fastq_list_rows -->
<g id="node7" class="node">
<title>file:///tmp/tmpsqdvh05b#fastq_list_rows</title>
<g id="a_node7"><a xlink:title="A list of fastq list rows where each element has the following attributes&#10;* rgid &#160;# Not used&#10;* rgsm&#10;* rglb &#160;# Not used&#10;* read_1&#10;* read_2&#10;">
<polygon fill="#94ddf4" stroke="black" points="801.5,-546.44 801.5,-583.44 924.5,-583.44 924.5,-546.44 801.5,-546.44"/>
<text text-anchor="middle" x="863" y="-561.24" font-family="Times,serif" font-size="14.00">fastq_list_rows</text>
</a>
</g>
</g>
<!-- file:///tmp/tmpsqdvh05b#fastq_list_rows&#45;&gt;file:///tmp/tmpsqdvh05b#run_tso_ctdna_workflow_step -->
<g id="edge20" class="edge">
<title>file:///tmp/tmpsqdvh05b#fastq_list_rows&#45;&gt;file:///tmp/tmpsqdvh05b#run_tso_ctdna_workflow_step</title>
<path fill="none" stroke="black" d="M843.01,-546.25C829.74,-535.49 811.42,-522.41 793,-514.94 760.41,-501.73 723.17,-493.49 688.84,-488.36"/>
<polygon fill="black" stroke="black" points="689.16,-484.87 678.77,-486.93 688.18,-491.8 689.16,-484.87"/>
</g>
<!-- file:///tmp/tmpsqdvh05b#samplesheet_prefix -->
<g id="node8" class="node">
<title>file:///tmp/tmpsqdvh05b#samplesheet_prefix</title>
<g id="a_node8"><a xlink:title="Points to the TSO500 section of the samplesheet. &#160;If you are using a samplesheet from BCLConvert,&#10;please set this to &quot;BCLConvert&quot;&#10;">
<polygon fill="#94ddf4" stroke="black" points="455.5,-546.44 455.5,-583.44 610.5,-583.44 610.5,-546.44 455.5,-546.44"/>
<text text-anchor="middle" x="533" y="-561.24" font-family="Times,serif" font-size="14.00">samplesheet_prefix</text>
</a>
</g>
</g>
<!-- file:///tmp/tmpsqdvh05b#samplesheet_prefix&#45;&gt;file:///tmp/tmpsqdvh05b#run_tso_ctdna_workflow_step -->
<g id="edge21" class="edge">
<title>file:///tmp/tmpsqdvh05b#samplesheet_prefix&#45;&gt;file:///tmp/tmpsqdvh05b#run_tso_ctdna_workflow_step</title>
<path fill="none" stroke="black" d="M542.12,-546.13C548.03,-534.58 555.84,-519.33 562.47,-506.38"/>
<polygon fill="black" stroke="black" points="565.6,-507.94 567.04,-497.44 559.37,-504.75 565.6,-507.94"/>
</g>
<!-- file:///tmp/tmpsqdvh05b#output_results_dir_by_sample -->
<g id="node9" class="node">
<title>file:///tmp/tmpsqdvh05b#output_results_dir_by_sample</title>
<g id="a_node9"><a xlink:title="The sample subdirectory of the results&#10;">
<polygon fill="#94ddf4" stroke="black" points="782.5,-46.44 782.5,-83.44 1011.5,-83.44 1011.5,-46.44 782.5,-46.44"/>
<text text-anchor="middle" x="897" y="-61.24" font-family="Times,serif" font-size="14.00">output_results_dir_by_sample</text>
</a>
</g>
</g>
<!-- file:///tmp/tmpsqdvh05b#output_results_dir -->
<g id="node10" class="node">
<title>file:///tmp/tmpsqdvh05b#output_results_dir</title>
<g id="a_node10"><a xlink:title="The output directory&#10;">
<polygon fill="#94ddf4" stroke="black" points="617.5,-46.44 617.5,-83.44 764.5,-83.44 764.5,-46.44 617.5,-46.44"/>
<text text-anchor="middle" x="691" y="-61.24" font-family="Times,serif" font-size="14.00">output_results_dir</text>
</a>
</g>
</g>
<!-- file:///tmp/tmpsqdvh05b#get_intermediate_samplesheet_from_validation_step -->
<g id="node12" class="node">
<title>file:///tmp/tmpsqdvh05b#get_intermediate_samplesheet_from_validation_step</title>
<g id="a_node12"><a xlink:href="https://github.com/umccr/cwl-ica/blob/main/.github/catalogue/docs/expressions/get-file-from-directory/1.0.0/get-file-from-directory__1.0.0.md" xlink:title="Get the intermediate samplesheet from the validation step.&#10;Returns a V1 samplesheet&#10;">
<polygon fill="#ee9a00" stroke="black" points="604.5,-377.44 604.5,-414.44 837.5,-414.44 837.5,-377.44 604.5,-377.44"/>
<text text-anchor="middle" x="721" y="-392.24" font-family="Times,serif" font-size="14.00">get&#45;file&#45;from&#45;directory v(1.0.0)</text>
</a>
</g>
</g>
<!-- file:///tmp/tmpsqdvh05b#run_tso_ctdna_workflow_step&#45;&gt;file:///tmp/tmpsqdvh05b#get_intermediate_samplesheet_from_validation_step -->
<g id="edge1" class="edge">
<title>file:///tmp/tmpsqdvh05b#run_tso_ctdna_workflow_step&#45;&gt;file:///tmp/tmpsqdvh05b#get_intermediate_samplesheet_from_validation_step</title>
<path fill="none" stroke="black" d="M607.46,-460.37C628.93,-448.37 657.57,-432.38 680.7,-419.45"/>
<polygon fill="black" stroke="black" points="682.58,-422.42 689.6,-414.48 679.16,-416.31 682.58,-422.42"/>
</g>
<!-- file:///tmp/tmpsqdvh05b#run_tso_ctdna_post_processing_workflow_step -->
<g id="node13" class="node">
<title>file:///tmp/tmpsqdvh05b#run_tso_ctdna_post_processing_workflow_step</title>
<g id="a_node13"><a xlink:href="https://github.com/umccr/cwl-ica/blob/main/.github/catalogue/docs/workflows/tso500-ctdna-post-processing-pipeline/1.0.0/tso500-ctdna-post-processing-pipeline__1.0.0.md" xlink:title="Run the very customised ctdna post processing workflow step for each sample&#10;">
<polygon fill="#ee7ae9" stroke="black" points="201.5,-377.44 201.5,-414.44 548.5,-414.44 548.5,-377.44 201.5,-377.44"/>
<text text-anchor="middle" x="375" y="-392.24" font-family="Times,serif" font-size="14.00">tso500&#45;ctdna&#45;post&#45;processing&#45;pipeline v(1.0.0)</text>
</a>
</g>
</g>
<!-- file:///tmp/tmpsqdvh05b#run_tso_ctdna_workflow_step&#45;&gt;file:///tmp/tmpsqdvh05b#run_tso_ctdna_post_processing_workflow_step -->
<g id="edge2" class="edge">
<title>file:///tmp/tmpsqdvh05b#run_tso_ctdna_workflow_step&#45;&gt;file:///tmp/tmpsqdvh05b#run_tso_ctdna_post_processing_workflow_step</title>
<path fill="none" stroke="black" d="M532.39,-460.37C501.7,-448 460.47,-431.38 427.9,-418.26"/>
<polygon fill="black" stroke="black" points="429.11,-414.98 418.53,-414.48 426.5,-421.47 429.11,-414.98"/>
</g>
<!-- file:///tmp/tmpsqdvh05b#get_final_directory_output_for_tso500_pipeline -->
<g id="node14" class="node">
<title>file:///tmp/tmpsqdvh05b#get_final_directory_output_for_tso500_pipeline</title>
<g id="a_node14"><a xlink:href="https://github.com/umccr/cwl-ica/blob/main/.github/catalogue/docs/expressions/get-custom-output-dir-entry-for-tso500-with-post-processing/1.0.0/get-custom-output-dir-entry-for-tso500-with-post-processing__1.0.0.md" xlink:title="Create the output directory containing all the files and directories listed in the previous step.&#10;">
<polygon fill="#ee9a00" stroke="black" points="398,-294.44 398,-331.44 904,-331.44 904,-294.44 398,-294.44"/>
<text text-anchor="middle" x="651" y="-309.24" font-family="Times,serif" font-size="14.00">get&#45;custom&#45;output&#45;dir&#45;entry&#45;for&#45;tso500&#45;with&#45;post&#45;processing v(1.0.0)</text>
</a>
</g>
</g>
<!-- file:///tmp/tmpsqdvh05b#run_tso_ctdna_workflow_step&#45;&gt;file:///tmp/tmpsqdvh05b#get_final_directory_output_for_tso500_pipeline -->
<g id="edge3" class="edge">
<title>file:///tmp/tmpsqdvh05b#run_tso_ctdna_workflow_step&#45;&gt;file:///tmp/tmpsqdvh05b#get_final_directory_output_for_tso500_pipeline</title>
<path fill="none" stroke="black" d="M576.74,-460.27C578.23,-439.39 582.68,-404.06 596,-376.94 602.85,-363 613.59,-349.7 623.76,-338.95"/>
<polygon fill="black" stroke="black" points="626.48,-341.17 631.01,-331.59 621.49,-336.26 626.48,-341.17"/>
</g>
<!-- file:///tmp/tmpsqdvh05b#get_intermediate_samplesheet_from_validation_step&#45;&gt;file:///tmp/tmpsqdvh05b#get_final_directory_output_for_tso500_pipeline -->
<g id="edge4" class="edge">
<title>file:///tmp/tmpsqdvh05b#get_intermediate_samplesheet_from_validation_step&#45;&gt;file:///tmp/tmpsqdvh05b#get_final_directory_output_for_tso500_pipeline</title>
<path fill="none" stroke="black" d="M705.81,-377.37C696.18,-366.22 683.56,-351.62 672.86,-339.24"/>
<polygon fill="black" stroke="black" points="675.35,-336.76 666.16,-331.48 670.05,-341.34 675.35,-336.76"/>
</g>
<!-- file:///tmp/tmpsqdvh05b#run_tso_ctdna_post_processing_workflow_step&#45;&gt;file:///tmp/tmpsqdvh05b#get_final_directory_output_for_tso500_pipeline -->
<g id="edge6" class="edge">
<title>file:///tmp/tmpsqdvh05b#run_tso_ctdna_post_processing_workflow_step&#45;&gt;file:///tmp/tmpsqdvh05b#get_final_directory_output_for_tso500_pipeline</title>
<path fill="none" stroke="black" d="M434.89,-377.37C478.02,-364.71 536.33,-347.6 581.51,-334.34"/>
<polygon fill="black" stroke="black" points="582.62,-337.66 591.23,-331.48 580.65,-330.94 582.62,-337.66"/>
</g>
<!-- file:///tmp/tmpsqdvh05b#create_final_output_directory -->
<g id="node18" class="node">
<title>file:///tmp/tmpsqdvh05b#create_final_output_directory</title>
<g id="a_node18"><a xlink:href="https://github.com/umccr/cwl-ica/blob/main/.github/catalogue/docs/tools/custom-create-directory/2.0.0/custom-create-directory__2.0.0.md" xlink:title="Create the output directory containing all the files listed in the previous step.&#10;">
<polygon fill="lightgoldenrodyellow" stroke="black" points="567.5,-211.44 567.5,-248.44 814.5,-248.44 814.5,-211.44 567.5,-211.44"/>
<text text-anchor="middle" x="691" y="-226.24" font-family="Times,serif" font-size="14.00">custom&#45;create&#45;directory v(2.0.0)</text>
</a>
</g>
</g>
<!-- file:///tmp/tmpsqdvh05b#get_final_directory_output_for_tso500_pipeline&#45;&gt;file:///tmp/tmpsqdvh05b#create_final_output_directory -->
<g id="edge11" class="edge">
<title>file:///tmp/tmpsqdvh05b#get_final_directory_output_for_tso500_pipeline&#45;&gt;file:///tmp/tmpsqdvh05b#create_final_output_directory</title>
<path fill="none" stroke="black" d="M659.68,-294.37C664.97,-283.65 671.85,-269.73 677.8,-257.67"/>
<polygon fill="black" stroke="black" points="681.05,-259 682.34,-248.48 674.77,-255.9 681.05,-259"/>
</g>
<!-- file:///tmp/tmpsqdvh05b#get_tso_manifest_bed_from_resources_dir&#45;&gt;file:///tmp/tmpsqdvh05b#run_tso_ctdna_post_processing_workflow_step -->
<g id="edge5" class="edge">
<title>file:///tmp/tmpsqdvh05b#get_tso_manifest_bed_from_resources_dir&#45;&gt;file:///tmp/tmpsqdvh05b#run_tso_ctdna_post_processing_workflow_step</title>
<path fill="none" stroke="black" d="M259.9,-460.37C281.66,-448.37 310.69,-432.38 334.15,-419.45"/>
<polygon fill="black" stroke="black" points="336.1,-422.38 343.17,-414.48 332.72,-416.25 336.1,-422.38"/>
</g>
<!-- file:///tmp/tmpsqdvh05b#get_sample_output_directory -->
<g id="node17" class="node">
<title>file:///tmp/tmpsqdvh05b#get_sample_output_directory</title>
<g id="a_node17"><a xlink:href="https://github.com/umccr/cwl-ica/blob/main/.github/catalogue/docs/expressions/get-subdirectory-from-directory/1.0.0/get-subdirectory-from-directory__1.0.0.md" xlink:title="The sample output directory containing all of the samples post&#45;processing files&#10;">
<polygon fill="#ee9a00" stroke="black" points="746,-129.44 746,-166.44 1048,-166.44 1048,-129.44 746,-129.44"/>
<text text-anchor="middle" x="897" y="-144.24" font-family="Times,serif" font-size="14.00">get&#45;subdirectory&#45;from&#45;directory v(1.0.0)</text>
</a>
</g>
</g>
<!-- file:///tmp/tmpsqdvh05b#get_sample_ids_from_tso500_sample_object&#45;&gt;file:///tmp/tmpsqdvh05b#get_sample_output_directory -->
<g id="edge7" class="edge">
<title>file:///tmp/tmpsqdvh05b#get_sample_ids_from_tso500_sample_object&#45;&gt;file:///tmp/tmpsqdvh05b#get_sample_output_directory</title>
<path fill="none" stroke="black" d="M1081.52,-460.25C1049.24,-405.81 951.26,-240.5 912.77,-175.55"/>
<polygon fill="black" stroke="black" points="915.65,-173.54 907.54,-166.72 909.62,-177.11 915.65,-173.54"/>
</g>
<!-- file:///tmp/tmpsqdvh05b#get_sample_output_directory&#45;&gt;file:///tmp/tmpsqdvh05b#output_results_dir_by_sample -->
<g id="edge8" class="edge">
<title>file:///tmp/tmpsqdvh05b#get_sample_output_directory&#45;&gt;file:///tmp/tmpsqdvh05b#output_results_dir_by_sample</title>
<path fill="none" stroke="black" d="M897,-129.37C897,-118.97 897,-105.55 897,-93.75"/>
<polygon fill="black" stroke="black" points="900.5,-93.48 897,-83.48 893.5,-93.48 900.5,-93.48"/>
</g>
<!-- file:///tmp/tmpsqdvh05b#create_final_output_directory&#45;&gt;file:///tmp/tmpsqdvh05b#output_results_dir -->
<g id="edge10" class="edge">
<title>file:///tmp/tmpsqdvh05b#create_final_output_directory&#45;&gt;file:///tmp/tmpsqdvh05b#output_results_dir</title>
<path fill="none" stroke="black" d="M691,-211.19C691,-182.9 691,-127.36 691,-93.75"/>
<polygon fill="black" stroke="black" points="694.5,-93.68 691,-83.68 687.5,-93.68 694.5,-93.68"/>
</g>
<!-- file:///tmp/tmpsqdvh05b#create_final_output_directory&#45;&gt;file:///tmp/tmpsqdvh05b#get_sample_output_directory -->
<g id="edge9" class="edge">
<title>file:///tmp/tmpsqdvh05b#create_final_output_directory&#45;&gt;file:///tmp/tmpsqdvh05b#get_sample_output_directory</title>
<path fill="none" stroke="black" d="M736.21,-211.39C767.47,-199.25 809.23,-183.03 842.36,-170.16"/>
<polygon fill="black" stroke="black" points="843.84,-173.34 851.9,-166.46 841.31,-166.82 843.84,-173.34"/>
</g>
</g>
</svg>
