<?xml version="1.0" encoding="UTF-8" standalone="no"?>
<!DOCTYPE svg PUBLIC "-//W3C//DTD SVG 1.1//EN"
 "http://www.w3.org/Graphics/SVG/1.1/DTD/svg11.dtd">
<!-- Generated by graphviz version 2.43.0 (0)
 -->
<!-- Title: G Pages: 1 -->
<svg width="1449pt" height="664pt"
 viewBox="0.00 0.00 1449.00 663.65" xmlns="http://www.w3.org/2000/svg" xmlns:xlink="http://www.w3.org/1999/xlink">
<g id="graph0" class="graph" transform="scale(1 1) rotate(0) translate(4 659.65)">
<title>G</title>
<polygon fill="#eeeeee" stroke="transparent" points="-4,4 -4,-659.65 1445,-659.65 1445,4 -4,4"/>
<g id="clust1" class="cluster">
<title>cluster_inputs</title>
<polygon fill="#eeeeee" stroke="black" stroke-dasharray="5,2" points="8,-552.45 8,-645.94 1377,-645.94 1377,-552.45 8,-552.45"/>
<text text-anchor="middle" x="1310.5" y="-560.25" font-family="Times,serif" font-size="14.00">Workflow Inputs</text>
</g>
<g id="clust2" class="cluster">
<title>cluster_outputs</title>
<polygon fill="#eeeeee" stroke="black" stroke-dasharray="5,2" points="700,-9.71 700,-103.2 1111,-103.2 1111,-9.71 700,-9.71"/>
<text text-anchor="middle" x="1038.5" y="-17.51" font-family="Times,serif" font-size="14.00">Workflow Outputs</text>
</g>
<!-- resources_dir -->
<g id="node1" class="node">
<title>resources_dir</title>
<g id="a_node1"><a xlink:title="The directory of resources&#10;">
<polygon fill="#94ddf4" stroke="black" points="16.5,-594.21 16.5,-631.21 129.5,-631.21 129.5,-594.21 16.5,-594.21"/>
<text text-anchor="middle" x="73" y="-609.01" font-family="Times,serif" font-size="14.00">resources_dir</text>
</a>
</g>
</g>
<!-- run_tso_ctdna_workflow_step -->
<g id="node17" class="node">
<title>run_tso_ctdna_workflow_step</title>
<g id="a_node17"><a xlink:href="https://github.com/umccr/cwl-ica/blob/main/.github/catalogue/docs/workflows/tso500-ctdna/1.1.0--120/tso500-ctdna__1.1.0--120.md" xlink:title="Run the CWL version of the tso500 ctDNA WDL / ISL workflow&#10;">
<polygon fill="#ee7ae9" stroke="black" points="540.5,-501.21 540.5,-538.21 745.5,-538.21 745.5,-501.21 540.5,-501.21"/>
<text text-anchor="middle" x="643" y="-516.01" font-family="Times,serif" font-size="14.00">tso500&#45;ctdna v(1.1.0&#45;&#45;120)</text>
</a>
</g>
</g>
<!-- resources_dir&#45;&gt;run_tso_ctdna_workflow_step -->
<g id="edge12" class="edge">
<title>resources_dir&#45;&gt;run_tso_ctdna_workflow_step</title>
<path fill="none" stroke="black" d="M90.94,-594.02C103.35,-582.97 120.84,-569.57 139,-562.71 174.59,-549.28 392.93,-534.79 530.31,-526.83"/>
<polygon fill="black" stroke="black" points="530.68,-530.31 540.46,-526.24 530.28,-523.32 530.68,-530.31"/>
</g>
<!-- get_tso_manifest_bed_from_resources_dir -->
<g id="node19" class="node">
<title>get_tso_manifest_bed_from_resources_dir</title>
<g id="a_node19"><a xlink:href="https://github.com/umccr/cwl-ica/blob/main/.github/catalogue/docs/expressions/get-file-from-directory/1.0.0/get-file-from-directory__1.0.0.md" xlink:title="Given the resources directory collect the following file:&#10; &#160;* TST500C_manifest.bed&#10;">
<polygon fill="#ee9a00" stroke="black" points="87.5,-501.21 87.5,-538.21 320.5,-538.21 320.5,-501.21 87.5,-501.21"/>
<text text-anchor="middle" x="204" y="-516.01" font-family="Times,serif" font-size="14.00">get&#45;file&#45;from&#45;directory v(1.0.0)</text>
</a>
</g>
</g>
<!-- resources_dir&#45;&gt;get_tso_manifest_bed_from_resources_dir -->
<g id="edge13" class="edge">
<title>resources_dir&#45;&gt;get_tso_manifest_bed_from_resources_dir</title>
<path fill="none" stroke="black" d="M95.95,-594.11C108.52,-584.61 124.46,-572.79 139,-562.71 148.04,-556.45 157.94,-549.9 167.23,-543.88"/>
<polygon fill="black" stroke="black" points="169.38,-546.66 175.9,-538.31 165.6,-540.77 169.38,-546.66"/>
</g>
<!-- coerce_valid_index -->
<g id="node2" class="node">
<title>coerce_valid_index</title>
<g id="a_node2"><a xlink:title="Coerce the valid index&#10;">
<polygon fill="#94ddf4" stroke="black" points="896,-594.21 896,-631.21 1046,-631.21 1046,-594.21 896,-594.21"/>
<text text-anchor="middle" x="971" y="-609.01" font-family="Times,serif" font-size="14.00">coerce_valid_index</text>
</a>
</g>
</g>
<!-- coerce_valid_index&#45;&gt;run_tso_ctdna_workflow_step -->
<g id="edge14" class="edge">
<title>coerce_valid_index&#45;&gt;run_tso_ctdna_workflow_step</title>
<path fill="none" stroke="black" d="M946.43,-594.21C930.28,-583.52 908.26,-570.46 887,-562.71 845.4,-547.56 797.78,-537.81 755.72,-531.55"/>
<polygon fill="black" stroke="black" points="756.11,-528.07 745.71,-530.12 755.11,-535 756.11,-528.07"/>
</g>
<!-- dragen_license_key -->
<g id="node3" class="node">
<title>dragen_license_key</title>
<g id="a_node3"><a xlink:title="File containing the dragen license&#10;">
<polygon fill="#94ddf4" stroke="black" points="722.5,-594.21 722.5,-631.21 877.5,-631.21 877.5,-594.21 722.5,-594.21"/>
<text text-anchor="middle" x="800" y="-609.01" font-family="Times,serif" font-size="14.00">dragen_license_key</text>
</a>
</g>
</g>
<!-- dragen_license_key&#45;&gt;run_tso_ctdna_workflow_step -->
<g id="edge15" class="edge">
<title>dragen_license_key&#45;&gt;run_tso_ctdna_workflow_step</title>
<path fill="none" stroke="black" d="M769.73,-594.17C744.83,-579.74 709.37,-559.18 682.28,-543.48"/>
<polygon fill="black" stroke="black" points="683.85,-540.35 673.45,-538.36 680.34,-546.4 683.85,-540.35"/>
</g>
<!-- fastq_list_rows -->
<g id="node4" class="node">
<title>fastq_list_rows</title>
<g id="a_node4"><a xlink:title="A list of fastq list rows where each element has the following attributes&#10;* rgid &#160;# Not used&#10;* rgsm&#10;* rglb &#160;# Not used&#10;* read_1&#10;* read_2&#10;">
<polygon fill="#94ddf4" stroke="black" points="581.5,-594.21 581.5,-631.21 704.5,-631.21 704.5,-594.21 581.5,-594.21"/>
<text text-anchor="middle" x="643" y="-609.01" font-family="Times,serif" font-size="14.00">fastq_list_rows</text>
</a>
</g>
</g>
<!-- fastq_list_rows&#45;&gt;run_tso_ctdna_workflow_step -->
<g id="edge16" class="edge">
<title>fastq_list_rows&#45;&gt;run_tso_ctdna_workflow_step</title>
<path fill="none" stroke="black" d="M643,-594.17C643,-581.28 643,-563.52 643,-548.69"/>
<polygon fill="black" stroke="black" points="646.5,-548.52 643,-538.52 639.5,-548.52 646.5,-548.52"/>
</g>
<!-- run_info_xml -->
<g id="node5" class="node">
<title>run_info_xml</title>
<g id="a_node5"><a xlink:title="The run info xml file found inside the run folder&#10;">
<polygon fill="#94ddf4" stroke="black" points="455,-594.21 455,-631.21 563,-631.21 563,-594.21 455,-594.21"/>
<text text-anchor="middle" x="509" y="-609.01" font-family="Times,serif" font-size="14.00">run_info_xml</text>
</a>
</g>
</g>
<!-- run_info_xml&#45;&gt;run_tso_ctdna_workflow_step -->
<g id="edge17" class="edge">
<title>run_info_xml&#45;&gt;run_tso_ctdna_workflow_step</title>
<path fill="none" stroke="black" d="M530.76,-594.08C542.93,-584.46 558.53,-572.55 573,-562.71 582.61,-556.18 593.24,-549.53 603.26,-543.5"/>
<polygon fill="black" stroke="black" points="605.06,-546.5 611.86,-538.38 601.48,-540.48 605.06,-546.5"/>
</g>
<!-- run_parameters_xml -->
<g id="node6" class="node">
<title>run_parameters_xml</title>
<g id="a_node6"><a xlink:title="The run parameters xml file found inside the run folder&#10;">
<polygon fill="#94ddf4" stroke="black" points="273,-594.21 273,-631.21 437,-631.21 437,-594.21 273,-594.21"/>
<text text-anchor="middle" x="355" y="-609.01" font-family="Times,serif" font-size="14.00">run_parameters_xml</text>
</a>
</g>
</g>
<!-- run_parameters_xml&#45;&gt;run_tso_ctdna_workflow_step -->
<g id="edge18" class="edge">
<title>run_parameters_xml&#45;&gt;run_tso_ctdna_workflow_step</title>
<path fill="none" stroke="black" d="M382.72,-594.11C400.27,-583.65 423.77,-570.88 446,-562.71 472.79,-552.87 502.53,-545.04 530.61,-538.93"/>
<polygon fill="black" stroke="black" points="531.41,-542.34 540.46,-536.84 529.95,-535.49 531.41,-542.34"/>
</g>
<!-- samplesheet -->
<g id="node7" class="node">
<title>samplesheet</title>
<g id="a_node7"><a xlink:title="The sample sheet file, expects a V2 samplesheet.&#10;Even though we don&#39;t demultiplex, we still need the information on Sample_Type and Pair_ID to determine which&#10;workflow (DNA / RNA) to run through, we gather this through the tso500_samples input schema and then append to the&#10;samplesheet. Please make sure that the sample_id in the tso500 sample schema match the Sample_ID in the&#10;&quot;&lt;samplesheet_prefix&gt;_Data&quot; column.&#10;">
<polygon fill="#94ddf4" stroke="black" points="147.5,-594.21 147.5,-631.21 254.5,-631.21 254.5,-594.21 147.5,-594.21"/>
<text text-anchor="middle" x="201" y="-609.01" font-family="Times,serif" font-size="14.00">samplesheet</text>
</a>
</g>
</g>
<!-- samplesheet&#45;&gt;run_tso_ctdna_workflow_step -->
<g id="edge19" class="edge">
<title>samplesheet&#45;&gt;run_tso_ctdna_workflow_step</title>
<path fill="none" stroke="black" d="M218.04,-594.18C229.85,-583.19 246.54,-569.8 264,-562.71 310.75,-543.73 436.22,-532.46 530.08,-526.45"/>
<polygon fill="black" stroke="black" points="530.44,-529.94 540.2,-525.82 530,-522.95 530.44,-529.94"/>
</g>
<!-- samplesheet_prefix -->
<g id="node8" class="node">
<title>samplesheet_prefix</title>
<g id="a_node8"><a xlink:title="Points to the TSO500 section of the samplesheet. &#160;If you are using a samplesheet from BCLConvert,&#10;please set this to &quot;BCLConvert&quot;&#10;">
<polygon fill="#94ddf4" stroke="black" points="1064.5,-594.21 1064.5,-631.21 1219.5,-631.21 1219.5,-594.21 1064.5,-594.21"/>
<text text-anchor="middle" x="1142" y="-609.01" font-family="Times,serif" font-size="14.00">samplesheet_prefix</text>
</a>
</g>
</g>
<!-- samplesheet_prefix&#45;&gt;run_tso_ctdna_workflow_step -->
<g id="edge20" class="edge">
<title>samplesheet_prefix&#45;&gt;run_tso_ctdna_workflow_step</title>
<path fill="none" stroke="black" d="M1117.39,-594.21C1100.62,-583.23 1077.47,-569.84 1055,-562.71 1001.2,-545.64 858.39,-533.71 756.01,-527.04"/>
<polygon fill="black" stroke="black" points="756.13,-523.54 745.92,-526.39 755.68,-530.52 756.13,-523.54"/>
</g>
<!-- tso500_samples -->
<g id="node9" class="node">
<title>tso500_samples</title>
<g id="a_node9"><a xlink:title="A list of tso500 samples each element has the following attributes:&#10;* sample_id&#10;* sample_type&#10;* pair_id&#10;">
<polygon fill="#94ddf4" stroke="black" points="1237.5,-594.21 1237.5,-631.21 1368.5,-631.21 1368.5,-594.21 1237.5,-594.21"/>
<text text-anchor="middle" x="1303" y="-609.01" font-family="Times,serif" font-size="14.00">tso500_samples</text>
</a>
</g>
</g>
<!-- tso500_samples&#45;&gt;run_tso_ctdna_workflow_step -->
<g id="edge21" class="edge">
<title>tso500_samples&#45;&gt;run_tso_ctdna_workflow_step</title>
<path fill="none" stroke="black" d="M1282.85,-594.2C1268.77,-583.07 1248.98,-569.52 1229,-562.71 1207.03,-555.23 919.92,-537.15 755.91,-527.33"/>
<polygon fill="black" stroke="black" points="755.96,-523.82 745.77,-526.72 755.55,-530.81 755.96,-523.82"/>
</g>
<!-- get_sample_ids_from_tso500_sample_object -->
<g id="node18" class="node">
<title>get_sample_ids_from_tso500_sample_object</title>
<g id="a_node18"><a xlink:href="https://github.com/umccr/cwl-ica/blob/main/.github/catalogue/docs/expressions/get-attr-from-tso500-sample-object/1.0.0/get-attr-from-tso500-sample-object__1.0.0.md" xlink:title="Generate a list of sample ids from the tso500 sample objects&#10;">
<polygon fill="#ee9a00" stroke="black" points="952,-501.21 952,-538.21 1278,-538.21 1278,-501.21 952,-501.21"/>
<text text-anchor="middle" x="1115" y="-516.01" font-family="Times,serif" font-size="14.00">get&#45;attr&#45;from&#45;tso500&#45;sample&#45;object v(1.0.0)</text>
</a>
</g>
</g>
<!-- tso500_samples&#45;&gt;get_sample_ids_from_tso500_sample_object -->
<g id="edge22" class="edge">
<title>tso500_samples&#45;&gt;get_sample_ids_from_tso500_sample_object</title>
<path fill="none" stroke="black" d="M1279.52,-594.13C1265.38,-584.07 1246.73,-571.7 1229,-562.71 1213.59,-554.9 1196.36,-547.79 1180.07,-541.73"/>
<polygon fill="black" stroke="black" points="1181.19,-538.42 1170.6,-538.29 1178.8,-544.99 1181.19,-538.42"/>
</g>
<!-- output_results_dir -->
<g id="node10" class="node">
<title>output_results_dir</title>
<g id="a_node10"><a xlink:title="The output directory&#10;">
<polygon fill="#94ddf4" stroke="black" points="708.5,-52.21 708.5,-89.21 855.5,-89.21 855.5,-52.21 708.5,-52.21"/>
<text text-anchor="middle" x="782" y="-67.01" font-family="Times,serif" font-size="14.00">output_results_dir</text>
</a>
</g>
</g>
<!-- output_results_dir_by_sample -->
<g id="node11" class="node">
<title>output_results_dir_by_sample</title>
<g id="a_node11"><a xlink:title="The sample subdirectory of the results&#10;">
<polygon fill="#94ddf4" stroke="black" points="873.5,-52.21 873.5,-89.21 1102.5,-89.21 1102.5,-52.21 873.5,-52.21"/>
<text text-anchor="middle" x="988" y="-67.01" font-family="Times,serif" font-size="14.00">output_results_dir_by_sample</text>
</a>
</g>
</g>
<!-- get_final_directory_output_for_tso500_pipeline -->
<g id="node12" class="node">
<title>get_final_directory_output_for_tso500_pipeline</title>
<g id="a_node12"><a xlink:href="https://github.com/umccr/cwl-ica/blob/main/.github/catalogue/docs/expressions/get-custom-output-dir-entry-for-tso500-with-post-processing/2.0.1/get-custom-output-dir-entry-for-tso500-with-post-processing__2.0.1.md" xlink:title="Create the output directory containing all the files and directories listed in the previous step.&#10;">
<polygon fill="#ee9a00" stroke="black" points="462,-321.21 462,-358.21 968,-358.21 968,-321.21 462,-321.21"/>
<text text-anchor="middle" x="715" y="-336.01" font-family="Times,serif" font-size="14.00">get&#45;custom&#45;output&#45;dir&#45;entry&#45;for&#45;tso500&#45;with&#45;post&#45;processing v(2.0.1)</text>
</a>
</g>
</g>
<!-- create_final_output_directory -->
<g id="node13" class="node">
<title>create_final_output_directory</title>
<g id="a_node13"><a xlink:href="https://github.com/umccr/cwl-ica/blob/main/.github/catalogue/docs/tools/custom-create-directory/2.0.1/custom-create-directory__2.0.1.md" xlink:title="Create the output directory containing all the files listed in the previous step.&#10;">
<polygon fill="lightgoldenrodyellow" stroke="black" points="658.5,-231.21 658.5,-268.21 905.5,-268.21 905.5,-231.21 658.5,-231.21"/>
<text text-anchor="middle" x="782" y="-246.01" font-family="Times,serif" font-size="14.00">custom&#45;create&#45;directory v(2.0.1)</text>
</a>
</g>
</g>
<!-- get_final_directory_output_for_tso500_pipeline&#45;&gt;create_final_output_directory -->
<g id="edge1" class="edge">
<title>get_final_directory_output_for_tso500_pipeline&#45;&gt;create_final_output_directory</title>
<path fill="none" stroke="black" d="M728.56,-320.91C738.28,-308.14 751.51,-290.76 762.38,-276.48"/>
<polygon fill="black" stroke="black" points="765.19,-278.57 768.46,-268.5 759.62,-274.33 765.19,-278.57"/>
</g>
<!-- create_final_output_directory&#45;&gt;output_results_dir -->
<g id="edge3" class="edge">
<title>create_final_output_directory&#45;&gt;output_results_dir</title>
<path fill="none" stroke="black" d="M782,-231.09C782,-200.22 782,-136.11 782,-99.3"/>
<polygon fill="black" stroke="black" points="785.5,-99.26 782,-89.26 778.5,-99.26 785.5,-99.26"/>
</g>
<!-- get_sample_output_directory -->
<g id="node14" class="node">
<title>get_sample_output_directory</title>
<g id="a_node14"><a xlink:href="https://github.com/umccr/cwl-ica/blob/main/.github/catalogue/docs/expressions/get-subdirectory-from-directory/1.0.0/get-subdirectory-from-directory__1.0.0.md" xlink:title="The sample output directory containing all of the samples post&#45;processing files&#10;">
<polygon fill="#ee9a00" stroke="black" points="837,-142.21 837,-179.21 1139,-179.21 1139,-142.21 837,-142.21"/>
<text text-anchor="middle" x="988" y="-157.01" font-family="Times,serif" font-size="14.00">get&#45;subdirectory&#45;from&#45;directory v(1.0.0)</text>
</a>
</g>
</g>
<!-- create_final_output_directory&#45;&gt;get_sample_output_directory -->
<g id="edge2" class="edge">
<title>create_final_output_directory&#45;&gt;get_sample_output_directory</title>
<path fill="none" stroke="black" d="M823.69,-231.11C856.36,-217.31 901.96,-198.05 936.84,-183.32"/>
<polygon fill="black" stroke="black" points="938.52,-186.41 946.37,-179.29 935.8,-179.96 938.52,-186.41"/>
</g>
<!-- get_sample_output_directory&#45;&gt;output_results_dir_by_sample -->
<g id="edge9" class="edge">
<title>get_sample_output_directory&#45;&gt;output_results_dir_by_sample</title>
<path fill="none" stroke="black" d="M988,-141.91C988,-129.74 988,-113.37 988,-99.5"/>
<polygon fill="black" stroke="black" points="991.5,-99.5 988,-89.5 984.5,-99.5 991.5,-99.5"/>
</g>
<!-- get_intermediate_samplesheet_from_validation_step -->
<g id="node15" class="node">
<title>get_intermediate_samplesheet_from_validation_step</title>
<g id="a_node15"><a xlink:href="https://github.com/umccr/cwl-ica/blob/main/.github/catalogue/docs/expressions/get-file-from-directory/1.0.0/get-file-from-directory__1.0.0.md" xlink:title="Get the intermediate samplesheet from the validation step.&#10;Returns a V1 samplesheet&#10;">
<polygon fill="#ee9a00" stroke="black" points="526.5,-411.21 526.5,-448.21 759.5,-448.21 759.5,-411.21 526.5,-411.21"/>
<text text-anchor="middle" x="643" y="-426.01" font-family="Times,serif" font-size="14.00">get&#45;file&#45;from&#45;directory v(1.0.0)</text>
</a>
</g>
</g>
<!-- get_intermediate_samplesheet_from_validation_step&#45;&gt;get_final_directory_output_for_tso500_pipeline -->
<g id="edge4" class="edge">
<title>get_intermediate_samplesheet_from_validation_step&#45;&gt;get_final_directory_output_for_tso500_pipeline</title>
<path fill="none" stroke="black" d="M657.57,-410.91C668.01,-398.14 682.24,-380.76 693.92,-366.48"/>
<polygon fill="black" stroke="black" points="696.83,-368.45 700.45,-358.5 691.41,-364.02 696.83,-368.45"/>
</g>
<!-- run_tso_ctdna_post_processing_workflow_step -->
<g id="node16" class="node">
<title>run_tso_ctdna_post_processing_workflow_step</title>
<g id="a_node16"><a xlink:href="https://github.com/umccr/cwl-ica/blob/main/.github/catalogue/docs/workflows/tso500-ctdna-post-processing-pipeline/1.0.0/tso500-ctdna-post-processing-pipeline__1.0.0.md" xlink:title="Run the very customised ctdna post processing workflow step for each sample&#10;">
<polygon fill="#ee7ae9" stroke="black" points="161.5,-411.21 161.5,-448.21 508.5,-448.21 508.5,-411.21 161.5,-411.21"/>
<text text-anchor="middle" x="335" y="-426.01" font-family="Times,serif" font-size="14.00">tso500&#45;ctdna&#45;post&#45;processing&#45;pipeline v(1.0.0)</text>
</a>
</g>
</g>
<!-- run_tso_ctdna_post_processing_workflow_step&#45;&gt;get_final_directory_output_for_tso500_pipeline -->
<g id="edge5" class="edge">
<title>run_tso_ctdna_post_processing_workflow_step&#45;&gt;get_final_directory_output_for_tso500_pipeline</title>
<path fill="none" stroke="black" d="M410.99,-411.12C474.03,-396.52 563.64,-375.77 629.24,-360.57"/>
<polygon fill="black" stroke="black" points="630.19,-363.95 639.15,-358.28 628.61,-357.13 630.19,-363.95"/>
</g>
<!-- run_tso_ctdna_workflow_step&#45;&gt;get_final_directory_output_for_tso500_pipeline -->
<g id="edge6" class="edge">
<title>run_tso_ctdna_workflow_step&#45;&gt;get_final_directory_output_for_tso500_pipeline</title>
<path fill="none" stroke="black" d="M701.95,-501.11C727.26,-490.31 754.34,-473.62 769,-448.71 785.26,-421.08 762.81,-387.91 742.1,-365.68"/>
<polygon fill="black" stroke="black" points="744.4,-363.03 734.92,-358.31 739.39,-367.91 744.4,-363.03"/>
</g>
<!-- run_tso_ctdna_workflow_step&#45;&gt;get_intermediate_samplesheet_from_validation_step -->
<g id="edge7" class="edge">
<title>run_tso_ctdna_workflow_step&#45;&gt;get_intermediate_samplesheet_from_validation_step</title>
<path fill="none" stroke="black" d="M643,-500.91C643,-488.74 643,-472.37 643,-458.5"/>
<polygon fill="black" stroke="black" points="646.5,-458.5 643,-448.5 639.5,-458.5 646.5,-458.5"/>
</g>
<!-- run_tso_ctdna_workflow_step&#45;&gt;run_tso_ctdna_post_processing_workflow_step -->
<g id="edge8" class="edge">
<title>run_tso_ctdna_workflow_step&#45;&gt;run_tso_ctdna_post_processing_workflow_step</title>
<path fill="none" stroke="black" d="M581.41,-501.12C530.84,-486.67 459.17,-466.19 406.15,-451.04"/>
<polygon fill="black" stroke="black" points="407.06,-447.66 396.48,-448.28 405.14,-454.39 407.06,-447.66"/>
</g>
<!-- get_sample_ids_from_tso500_sample_object&#45;&gt;get_sample_output_directory -->
<g id="edge10" class="edge">
<title>get_sample_ids_from_tso500_sample_object&#45;&gt;get_sample_output_directory</title>
<path fill="none" stroke="black" d="M1108.7,-501.01C1088.09,-443.08 1022.57,-258.89 997.7,-188.98"/>
<polygon fill="black" stroke="black" points="1000.99,-187.77 994.34,-179.52 994.39,-190.12 1000.99,-187.77"/>
</g>
<!-- get_tso_manifest_bed_from_resources_dir&#45;&gt;run_tso_ctdna_post_processing_workflow_step -->
<g id="edge11" class="edge">
<title>get_tso_manifest_bed_from_resources_dir&#45;&gt;run_tso_ctdna_post_processing_workflow_step</title>
<path fill="none" stroke="black" d="M230.19,-501.12C250.37,-487.57 278.43,-468.72 300.44,-453.93"/>
<polygon fill="black" stroke="black" points="302.5,-456.76 308.85,-448.28 298.6,-450.95 302.5,-456.76"/>
</g>
<!-- \n -->
<g id="node20" class="node">
<title>\n</title>
<ellipse fill="none" stroke="black" cx="1414" cy="-612.71" rx="27" ry="18"/>
</g>
</g>
</svg>
