<?xml version="1.0" encoding="UTF-8" standalone="no"?>
<!DOCTYPE svg PUBLIC "-//W3C//DTD SVG 1.1//EN"
 "http://www.w3.org/Graphics/SVG/1.1/DTD/svg11.dtd">
<!-- Generated by graphviz version 2.43.0 (0)
 -->
<!-- Title: G Pages: 1 -->
<svg width="1417pt" height="686pt"
 viewBox="0.00 0.00 1417.00 685.73" xmlns="http://www.w3.org/2000/svg" xmlns:xlink="http://www.w3.org/1999/xlink">
<g id="graph0" class="graph" transform="scale(1 1) rotate(0) translate(4 681.73)">
<title>G</title>
<polygon fill="#eeeeee" stroke="transparent" points="-4,4 -4,-681.73 1413,-681.73 1413,4 -4,4"/>
<g id="clust1" class="cluster">
<title>cluster_inputs</title>
<polygon fill="#eeeeee" stroke="black" stroke-dasharray="5,2" points="8,-439.68 8,-655.32 1345,-655.32 1345,-439.68 8,-439.68"/>
<text text-anchor="middle" x="1278.5" y="-447.48" font-family="Times,serif" font-size="14.00">Workflow Inputs</text>
</g>
<g id="clust2" class="cluster">
<title>cluster_outputs</title>
<polygon fill="#eeeeee" stroke="black" stroke-dasharray="5,2" points="476,-22.4 476,-238.05 700,-238.05 700,-22.4 476,-22.4"/>
<text text-anchor="middle" x="627.5" y="-30.2" font-family="Times,serif" font-size="14.00">Workflow Outputs</text>
</g>
<!-- dragen_germline_directory -->
<g id="node1" class="node">
<title>dragen_germline_directory</title>
<polygon fill="#94ddf4" stroke="black" points="1127.5,-560.9 1127.5,-597.9 1336.5,-597.9 1336.5,-560.9 1127.5,-560.9"/>
<text text-anchor="middle" x="1232" y="-575.7" font-family="Times,serif" font-size="14.00">dragen_germline_directory</text>
</g>
<!-- run_umccrise_step -->
<g id="node10" class="node">
<title>run_umccrise_step</title>
<ellipse fill="none" stroke="black" cx="588" cy="-366.4" rx="97.5" ry="18"/>
<text text-anchor="middle" x="588" y="-362.7" font-family="Times,serif" font-size="14.00">run_umccrise_step</text>
</g>
<!-- dragen_germline_directory&#45;&gt;run_umccrise_step -->
<g id="edge1" class="edge">
<title>dragen_germline_directory&#45;&gt;run_umccrise_step</title>
<path fill="none" stroke="black" d="M1193.9,-560.79C1171.95,-550.95 1143.69,-538.82 1118,-529.4 951.89,-468.52 750.97,-411.52 650.94,-384.24"/>
<polygon fill="black" stroke="black" points="651.86,-380.86 641.29,-381.61 650.02,-387.61 651.86,-380.86"/>
</g>
<!-- dragen_normal_id -->
<g id="node2" class="node">
<title>dragen_normal_id</title>
<polygon fill="#94ddf4" stroke="black" points="965,-560.9 965,-597.9 1109,-597.9 1109,-560.9 965,-560.9"/>
<text text-anchor="middle" x="1037" y="-575.7" font-family="Times,serif" font-size="14.00">dragen_normal_id</text>
</g>
<!-- dragen_normal_id&#45;&gt;run_umccrise_step -->
<g id="edge2" class="edge">
<title>dragen_normal_id&#45;&gt;run_umccrise_step</title>
<path fill="none" stroke="black" d="M1009.77,-560.72C994.28,-550.97 974.37,-538.96 956,-529.4 844.94,-471.67 708.91,-415.33 637.38,-386.76"/>
<polygon fill="black" stroke="black" points="638.31,-383.37 627.73,-382.92 635.72,-389.87 638.31,-383.37"/>
</g>
<!-- dragen_somatic_directory -->
<g id="node3" class="node">
<title>dragen_somatic_directory</title>
<polygon fill="#94ddf4" stroke="black" points="745.5,-560.9 745.5,-597.9 946.5,-597.9 946.5,-560.9 745.5,-560.9"/>
<text text-anchor="middle" x="846" y="-575.7" font-family="Times,serif" font-size="14.00">dragen_somatic_directory</text>
</g>
<!-- dragen_somatic_directory&#45;&gt;run_umccrise_step -->
<g id="edge3" class="edge">
<title>dragen_somatic_directory&#45;&gt;run_umccrise_step</title>
<path fill="none" stroke="black" d="M824.45,-560.78C778,-522.79 668.49,-433.23 616.43,-390.66"/>
<polygon fill="black" stroke="black" points="618.55,-387.87 608.59,-384.25 614.12,-393.29 618.55,-387.87"/>
</g>
<!-- dragen_tumor_id -->
<g id="node4" class="node">
<title>dragen_tumor_id</title>
<polygon fill="#94ddf4" stroke="black" points="590.5,-560.9 590.5,-597.9 727.5,-597.9 727.5,-560.9 590.5,-560.9"/>
<text text-anchor="middle" x="659" y="-575.7" font-family="Times,serif" font-size="14.00">dragen_tumor_id</text>
</g>
<!-- dragen_tumor_id&#45;&gt;run_umccrise_step -->
<g id="edge4" class="edge">
<title>dragen_tumor_id&#45;&gt;run_umccrise_step</title>
<path fill="none" stroke="black" d="M653.07,-560.78C640.63,-523.82 611.77,-438.05 597.02,-394.22"/>
<polygon fill="black" stroke="black" points="600.27,-392.9 593.77,-384.54 593.64,-395.13 600.27,-392.9"/>
</g>
<!-- genomes_tar -->
<g id="node5" class="node">
<title>genomes_tar</title>
<polygon fill="#94ddf4" stroke="black" points="464,-560.9 464,-597.9 572,-597.9 572,-560.9 464,-560.9"/>
<text text-anchor="middle" x="518" y="-575.7" font-family="Times,serif" font-size="14.00">genomes_tar</text>
</g>
<!-- genomes_tar&#45;&gt;run_umccrise_step -->
<g id="edge5" class="edge">
<title>genomes_tar&#45;&gt;run_umccrise_step</title>
<path fill="none" stroke="black" d="M523.85,-560.78C536.11,-523.82 564.56,-438.05 579.1,-394.22"/>
<polygon fill="black" stroke="black" points="582.49,-395.13 582.32,-384.54 575.85,-392.93 582.49,-395.13"/>
</g>
<!-- output_directory_name -->
<g id="node6" class="node">
<title>output_directory_name</title>
<polygon fill="#94ddf4" stroke="black" points="264,-560.9 264,-597.9 446,-597.9 446,-560.9 264,-560.9"/>
<text text-anchor="middle" x="355" y="-575.7" font-family="Times,serif" font-size="14.00">output_directory_name</text>
</g>
<!-- output_directory_name&#45;&gt;run_umccrise_step -->
<g id="edge6" class="edge">
<title>output_directory_name&#45;&gt;run_umccrise_step</title>
<path fill="none" stroke="black" d="M374.46,-560.78C416.24,-522.95 514.5,-433.97 561.74,-391.19"/>
<polygon fill="black" stroke="black" points="564.34,-393.55 569.4,-384.25 559.64,-388.36 564.34,-393.55"/>
</g>
<!-- subject_identifier -->
<g id="node7" class="node">
<title>subject_identifier</title>
<polygon fill="#94ddf4" stroke="black" points="106,-560.9 106,-597.9 246,-597.9 246,-560.9 106,-560.9"/>
<text text-anchor="middle" x="176" y="-575.7" font-family="Times,serif" font-size="14.00">subject_identifier</text>
</g>
<!-- subject_identifier&#45;&gt;run_umccrise_step -->
<g id="edge7" class="edge">
<title>subject_identifier&#45;&gt;run_umccrise_step</title>
<path fill="none" stroke="black" d="M203.01,-560.7C218.09,-551.06 237.33,-539.15 255,-529.4 355.67,-473.89 478.18,-416.88 542.9,-387.56"/>
<polygon fill="black" stroke="black" points="544.73,-390.58 552.4,-383.27 541.84,-384.2 544.73,-390.58"/>
</g>
<!-- threads -->
<g id="node8" class="node">
<title>threads</title>
<polygon fill="#94ddf4" stroke="black" points="16.5,-560.9 16.5,-597.9 87.5,-597.9 87.5,-560.9 16.5,-560.9"/>
<text text-anchor="middle" x="52" y="-575.7" font-family="Times,serif" font-size="14.00">threads</text>
</g>
<!-- threads&#45;&gt;run_umccrise_step -->
<g id="edge8" class="edge">
<title>threads&#45;&gt;run_umccrise_step</title>
<path fill="none" stroke="black" d="M64.43,-560.87C72.63,-550.44 84.19,-537.67 97,-529.4 227.45,-445.18 405.8,-400.81 507.75,-380.89"/>
<polygon fill="black" stroke="black" points="508.52,-384.31 517.68,-378.98 507.2,-377.43 508.52,-384.31"/>
</g>
<!-- umccrise_output_directory -->
<g id="node9" class="node">
<title>umccrise_output_directory</title>
<polygon fill="#94ddf4" stroke="black" points="484.5,-143.9 484.5,-180.9 691.5,-180.9 691.5,-143.9 484.5,-143.9"/>
<text text-anchor="middle" x="588" y="-158.7" font-family="Times,serif" font-size="14.00">umccrise_output_directory</text>
</g>
<!-- run_umccrise_step&#45;&gt;umccrise_output_directory -->
<g id="edge9" class="edge">
<title>run_umccrise_step&#45;&gt;umccrise_output_directory</title>
<path fill="none" stroke="black" d="M588,-348.18C588,-313.25 588,-233.79 588,-191.35"/>
<polygon fill="black" stroke="black" points="591.5,-191.16 588,-181.16 584.5,-191.16 591.5,-191.16"/>
</g>
<!-- \n -->
<g id="node11" class="node">
<title>\n</title>
<ellipse fill="none" stroke="black" cx="1382" cy="-579.4" rx="27" ry="18"/>
</g>
</g>
</svg>
