<?xml version="1.0" encoding="UTF-8" standalone="no"?>
<!DOCTYPE svg PUBLIC "-//W3C//DTD SVG 1.1//EN"
 "http://www.w3.org/Graphics/SVG/1.1/DTD/svg11.dtd">
<!-- Generated by graphviz version 2.43.0 (0)
 -->
<!-- Title: G Pages: 1 -->
<svg width="8703pt" height="2242pt"
 viewBox="0.00 0.00 8702.50 2242.36" xmlns="http://www.w3.org/2000/svg" xmlns:xlink="http://www.w3.org/1999/xlink">
<g id="graph0" class="graph" transform="scale(1 1) rotate(0) translate(4 2238.36)">
<title>G</title>
<polygon fill="#eeeeee" stroke="transparent" points="-4,4 -4,-2238.36 8698.5,-2238.36 8698.5,4 -4,4"/>
<g id="clust1" class="cluster">
<title>cluster_inputs</title>
<polygon fill="#eeeeee" stroke="black" stroke-dasharray="5,2" points="8,-1637.12 8,-2178.15 8465,-2178.15 8465,-1637.12 8,-1637.12"/>
<text text-anchor="middle" x="8398.5" y="-1644.92" font-family="Times,serif" font-size="14.00">Workflow Inputs</text>
</g>
<g id="clust2" class="cluster">
<title>cluster_outputs</title>
<polygon fill="#eeeeee" stroke="black" stroke-dasharray="5,2" points="4263,-56.21 4263,-597.23 5053,-597.23 5053,-56.21 4263,-56.21"/>
<text text-anchor="middle" x="4980.5" y="-64.01" font-family="Times,serif" font-size="14.00">Workflow Outputs</text>
</g>
<!-- output_file_prefix -->
<g id="node1" class="node">
<title>output_file_prefix</title>
<polygon fill="#94ddf4" stroke="black" points="8317,-1969.71 8317,-2006.71 8457,-2006.71 8457,-1969.71 8317,-1969.71"/>
<text text-anchor="middle" x="8387" y="-1984.51" font-family="Times,serif" font-size="14.00">output_file_prefix</text>
</g>
<!-- run_dragen_germline_step -->
<g id="node54" class="node">
<title>run_dragen_germline_step</title>
<polygon fill="lightgoldenrodyellow" stroke="black" points="4371,-1428.71 4371,-1465.71 4565,-1465.71 4565,-1428.71 4371,-1428.71"/>
<text text-anchor="middle" x="4468" y="-1443.51" font-family="Times,serif" font-size="14.00">dragen&#45;germline v(3.9.3)</text>
</g>
<!-- output_file_prefix&#45;&gt;run_dragen_germline_step -->
<g id="edge7" class="edge">
<title>output_file_prefix&#45;&gt;run_dragen_germline_step</title>
<path fill="none" stroke="black" d="M8364.5,-1969.6C8349.38,-1958.73 8328.53,-1945.5 8308,-1938.21 7588.38,-1682.81 5120.73,-1494.74 4575.29,-1455.71"/>
<polygon fill="black" stroke="black" points="4575.3,-1452.2 4565.07,-1454.98 4574.8,-1459.18 4575.3,-1452.2"/>
</g>
<!-- dragen_qc_step -->
<g id="node55" class="node">
<title>dragen_qc_step</title>
<polygon fill="lightgoldenrodyellow" stroke="black" points="8317.5,-908.71 8317.5,-945.71 8456.5,-945.71 8456.5,-908.71 8317.5,-908.71"/>
<text text-anchor="middle" x="8387" y="-923.51" font-family="Times,serif" font-size="14.00">multiqc v(1.12.0)</text>
</g>
<!-- output_file_prefix&#45;&gt;dragen_qc_step -->
<g id="edge8" class="edge">
<title>output_file_prefix&#45;&gt;dragen_qc_step</title>
<path fill="none" stroke="black" d="M8383.16,-1969.27C8370.59,-1844.78 8370.29,-1109.85 8382.26,-956.32"/>
<polygon fill="black" stroke="black" points="8385.79,-956.17 8383.18,-945.9 8378.81,-955.55 8385.79,-956.17"/>
</g>
<!-- output_file_prefix&#45;&gt;dragen_qc_step -->
<g id="edge9" class="edge">
<title>output_file_prefix&#45;&gt;dragen_qc_step</title>
<path fill="none" stroke="black" d="M8387,-1969.27C8387,-1844.78 8387,-1109.85 8387,-956.32"/>
<polygon fill="black" stroke="black" points="8390.5,-955.9 8387,-945.9 8383.5,-955.9 8390.5,-955.9"/>
</g>
<!-- output_file_prefix&#45;&gt;dragen_qc_step -->
<g id="edge10" class="edge">
<title>output_file_prefix&#45;&gt;dragen_qc_step</title>
<path fill="none" stroke="black" d="M8390.84,-1969.27C8403.41,-1844.78 8403.71,-1109.85 8391.74,-956.32"/>
<polygon fill="black" stroke="black" points="8395.19,-955.55 8390.82,-945.9 8388.21,-956.17 8395.19,-955.55"/>
</g>
<!-- cnv_enable_self_normalization -->
<g id="node2" class="node">
<title>cnv_enable_self_normalization</title>
<polygon fill="#94ddf4" stroke="black" points="8065.5,-1969.71 8065.5,-2006.71 8298.5,-2006.71 8298.5,-1969.71 8065.5,-1969.71"/>
<text text-anchor="middle" x="8182" y="-1984.51" font-family="Times,serif" font-size="14.00">cnv_enable_self_normalization</text>
</g>
<!-- cnv_enable_self_normalization&#45;&gt;run_dragen_germline_step -->
<g id="edge11" class="edge">
<title>cnv_enable_self_normalization&#45;&gt;run_dragen_germline_step</title>
<path fill="none" stroke="black" d="M8144.21,-1969.67C8119.81,-1959.04 8087.11,-1946.05 8057,-1938.21 6711.95,-1588.11 5014.36,-1477.3 4575.43,-1453.55"/>
<polygon fill="black" stroke="black" points="4575.47,-1450.05 4565.3,-1453 4575.1,-1457.04 4575.47,-1450.05"/>
</g>
<!-- dbsnp_annotation -->
<g id="node3" class="node">
<title>dbsnp_annotation</title>
<polygon fill="#94ddf4" stroke="black" points="7904.5,-1969.71 7904.5,-2006.71 8047.5,-2006.71 8047.5,-1969.71 7904.5,-1969.71"/>
<text text-anchor="middle" x="7976" y="-1984.51" font-family="Times,serif" font-size="14.00">dbsnp_annotation</text>
</g>
<!-- dbsnp_annotation&#45;&gt;run_dragen_germline_step -->
<g id="edge12" class="edge">
<title>dbsnp_annotation&#45;&gt;run_dragen_germline_step</title>
<path fill="none" stroke="black" d="M7952.48,-1969.48C7936.96,-1958.7 7915.74,-1945.62 7895,-1938.21 6646.85,-1492.43 5006.1,-1451.06 4575.3,-1448.15"/>
<polygon fill="black" stroke="black" points="4575.07,-1444.65 4565.04,-1448.09 4575.02,-1451.65 4575.07,-1444.65"/>
</g>
<!-- dedup_min_qual -->
<g id="node4" class="node">
<title>dedup_min_qual</title>
<polygon fill="#94ddf4" stroke="black" points="7754,-1969.71 7754,-2006.71 7886,-2006.71 7886,-1969.71 7754,-1969.71"/>
<text text-anchor="middle" x="7820" y="-1984.51" font-family="Times,serif" font-size="14.00">dedup_min_qual</text>
</g>
<!-- dedup_min_qual&#45;&gt;run_dragen_germline_step -->
<g id="edge13" class="edge">
<title>dedup_min_qual&#45;&gt;run_dragen_germline_step</title>
<path fill="none" stroke="black" d="M7798.41,-1969.48C7784.12,-1958.7 7764.48,-1945.62 7745,-1938.21 6563.37,-1488.62 4995.36,-1449.84 4575.29,-1447.86"/>
<polygon fill="black" stroke="black" points="4575.29,-1444.36 4565.28,-1447.82 4575.26,-1451.36 4575.29,-1444.36"/>
</g>
<!-- enable_cnv -->
<g id="node5" class="node">
<title>enable_cnv</title>
<polygon fill="#94ddf4" stroke="black" points="7640.5,-1969.71 7640.5,-2006.71 7735.5,-2006.71 7735.5,-1969.71 7640.5,-1969.71"/>
<text text-anchor="middle" x="7688" y="-1984.51" font-family="Times,serif" font-size="14.00">enable_cnv</text>
</g>
<!-- enable_cnv&#45;&gt;run_dragen_germline_step -->
<g id="edge14" class="edge">
<title>enable_cnv&#45;&gt;run_dragen_germline_step</title>
<path fill="none" stroke="black" d="M7672.66,-1969.42C7662.3,-1958.61 7647.69,-1945.52 7632,-1938.21 7066.9,-1674.76 5062.47,-1496.76 4575.29,-1456.75"/>
<polygon fill="black" stroke="black" points="4575.36,-1453.25 4565.1,-1455.92 4574.78,-1460.22 4575.36,-1453.25"/>
</g>
<!-- enable_duplicate_marking -->
<g id="node6" class="node">
<title>enable_duplicate_marking</title>
<polygon fill="#94ddf4" stroke="black" points="7419.5,-1969.71 7419.5,-2006.71 7622.5,-2006.71 7622.5,-1969.71 7419.5,-1969.71"/>
<text text-anchor="middle" x="7521" y="-1984.51" font-family="Times,serif" font-size="14.00">enable_duplicate_marking</text>
</g>
<!-- enable_duplicate_marking&#45;&gt;run_dragen_germline_step -->
<g id="edge15" class="edge">
<title>enable_duplicate_marking&#45;&gt;run_dragen_germline_step</title>
<path fill="none" stroke="black" d="M7487.34,-1969.7C7465.76,-1959.14 7436.84,-1946.23 7410,-1938.21 6331.81,-1616.02 4964.02,-1487.73 4575.34,-1456.32"/>
<polygon fill="black" stroke="black" points="4575.48,-1452.82 4565.23,-1455.51 4574.92,-1459.8 4575.48,-1452.82"/>
</g>
<!-- enable_hla -->
<g id="node7" class="node">
<title>enable_hla</title>
<polygon fill="#94ddf4" stroke="black" points="7309,-1969.71 7309,-2006.71 7401,-2006.71 7401,-1969.71 7309,-1969.71"/>
<text text-anchor="middle" x="7355" y="-1984.51" font-family="Times,serif" font-size="14.00">enable_hla</text>
</g>
<!-- enable_hla&#45;&gt;run_dragen_germline_step -->
<g id="edge16" class="edge">
<title>enable_hla&#45;&gt;run_dragen_germline_step</title>
<path fill="none" stroke="black" d="M7339.95,-1969.51C7329.78,-1958.73 7315.43,-1945.66 7300,-1938.21 6800.21,-1697.06 5030.98,-1505.05 4575.55,-1458.84"/>
<polygon fill="black" stroke="black" points="4575.66,-1455.33 4565.36,-1457.81 4574.96,-1462.3 4575.66,-1455.33"/>
</g>
<!-- enable_map_align_output -->
<g id="node8" class="node">
<title>enable_map_align_output</title>
<polygon fill="#94ddf4" stroke="black" points="7093.5,-1969.71 7093.5,-2006.71 7290.5,-2006.71 7290.5,-1969.71 7093.5,-1969.71"/>
<text text-anchor="middle" x="7192" y="-1984.51" font-family="Times,serif" font-size="14.00">enable_map_align_output</text>
</g>
<!-- enable_map_align_output&#45;&gt;run_dragen_germline_step -->
<g id="edge17" class="edge">
<title>enable_map_align_output&#45;&gt;run_dragen_germline_step</title>
<path fill="none" stroke="black" d="M7158.77,-1969.61C7137.82,-1959.16 7109.92,-1946.39 7084,-1938.21 6136.87,-1639.46 4936.1,-1496.96 4575.24,-1458.93"/>
<polygon fill="black" stroke="black" points="4575.37,-1455.42 4565.06,-1457.86 4574.64,-1462.39 4575.37,-1455.42"/>
</g>
<!-- enable_sv -->
<g id="node9" class="node">
<title>enable_sv</title>
<polygon fill="#94ddf4" stroke="black" points="6989,-1969.71 6989,-2006.71 7075,-2006.71 7075,-1969.71 6989,-1969.71"/>
<text text-anchor="middle" x="7032" y="-1984.51" font-family="Times,serif" font-size="14.00">enable_sv</text>
</g>
<!-- enable_sv&#45;&gt;run_dragen_germline_step -->
<g id="edge18" class="edge">
<title>enable_sv&#45;&gt;run_dragen_germline_step</title>
<path fill="none" stroke="black" d="M7017.9,-1969.6C7008.34,-1958.87 6994.79,-1945.8 6980,-1938.21 6130.11,-1502.02 4936,-1452.88 4575.28,-1448.32"/>
<polygon fill="black" stroke="black" points="4575.15,-1444.82 4565.11,-1448.21 4575.07,-1451.82 4575.15,-1444.82"/>
</g>
<!-- fastq_list -->
<g id="node10" class="node">
<title>fastq_list</title>
<polygon fill="#94ddf4" stroke="black" points="6889,-1969.71 6889,-2006.71 6971,-2006.71 6971,-1969.71 6889,-1969.71"/>
<text text-anchor="middle" x="6930" y="-1984.51" font-family="Times,serif" font-size="14.00">fastq_list</text>
</g>
<!-- fastq_list&#45;&gt;run_dragen_germline_step -->
<g id="edge19" class="edge">
<title>fastq_list&#45;&gt;run_dragen_germline_step</title>
<path fill="none" stroke="black" d="M6916.56,-1969.63C6907.41,-1958.91 6894.39,-1945.84 6880,-1938.21 6071.49,-1509.18 4927.33,-1455.06 4575.25,-1448.82"/>
<polygon fill="black" stroke="black" points="4575.12,-1445.32 4565.07,-1448.65 4575.01,-1452.32 4575.12,-1445.32"/>
</g>
<!-- fastq_list_rows -->
<g id="node11" class="node">
<title>fastq_list_rows</title>
<polygon fill="#94ddf4" stroke="black" points="6747.5,-1969.71 6747.5,-2006.71 6870.5,-2006.71 6870.5,-1969.71 6747.5,-1969.71"/>
<text text-anchor="middle" x="6809" y="-1984.51" font-family="Times,serif" font-size="14.00">fastq_list_rows</text>
</g>
<!-- fastq_list_rows&#45;&gt;run_dragen_germline_step -->
<g id="edge20" class="edge">
<title>fastq_list_rows&#45;&gt;run_dragen_germline_step</title>
<path fill="none" stroke="black" d="M6788.24,-1969.62C6774.73,-1959.04 6756.28,-1946.12 6738,-1938.21 5952.43,-1598.33 4908.64,-1485.18 4575.18,-1456.46"/>
<polygon fill="black" stroke="black" points="4575.31,-1452.96 4565.05,-1455.59 4574.71,-1459.93 4575.31,-1452.96"/>
</g>
<!-- hla_allele_frequency_file -->
<g id="node12" class="node">
<title>hla_allele_frequency_file</title>
<polygon fill="#94ddf4" stroke="black" points="6539,-1969.71 6539,-2006.71 6729,-2006.71 6729,-1969.71 6539,-1969.71"/>
<text text-anchor="middle" x="6634" y="-1984.51" font-family="Times,serif" font-size="14.00">hla_allele_frequency_file</text>
</g>
<!-- hla_allele_frequency_file&#45;&gt;run_dragen_germline_step -->
<g id="edge21" class="edge">
<title>hla_allele_frequency_file&#45;&gt;run_dragen_germline_step</title>
<path fill="none" stroke="black" d="M6601.02,-1969.52C6580.93,-1959.29 6554.49,-1946.79 6530,-1938.21 5802.46,-1683.46 4884.79,-1517.51 4575.39,-1465.63"/>
<polygon fill="black" stroke="black" points="4575.52,-1462.1 4565.08,-1463.9 4574.37,-1469 4575.52,-1462.1"/>
</g>
<!-- hla_bed_file -->
<g id="node13" class="node">
<title>hla_bed_file</title>
<polygon fill="#94ddf4" stroke="black" points="6421,-1969.71 6421,-2006.71 6521,-2006.71 6521,-1969.71 6421,-1969.71"/>
<text text-anchor="middle" x="6471" y="-1984.51" font-family="Times,serif" font-size="14.00">hla_bed_file</text>
</g>
<!-- hla_bed_file&#45;&gt;run_dragen_germline_step -->
<g id="edge22" class="edge">
<title>hla_bed_file&#45;&gt;run_dragen_germline_step</title>
<path fill="none" stroke="black" d="M6453.91,-1969.46C6442.87,-1958.95 6427.67,-1946.17 6412,-1938.21 5763.63,-1608.86 4878.66,-1490.72 4575.2,-1458.41"/>
<polygon fill="black" stroke="black" points="4575.4,-1454.91 4565.08,-1457.34 4574.66,-1461.87 4575.4,-1454.91"/>
</g>
<!-- hla_min_reads -->
<g id="node14" class="node">
<title>hla_min_reads</title>
<polygon fill="#94ddf4" stroke="black" points="6283.5,-1969.71 6283.5,-2006.71 6402.5,-2006.71 6402.5,-1969.71 6283.5,-1969.71"/>
<text text-anchor="middle" x="6343" y="-1984.51" font-family="Times,serif" font-size="14.00">hla_min_reads</text>
</g>
<!-- hla_min_reads&#45;&gt;run_dragen_germline_step -->
<g id="edge23" class="edge">
<title>hla_min_reads&#45;&gt;run_dragen_germline_step</title>
<path fill="none" stroke="black" d="M6322.46,-1969.69C6309.33,-1959.26 6291.54,-1946.49 6274,-1938.21 5666.5,-1651.31 4861.98,-1508.18 4575.17,-1463.76"/>
<polygon fill="black" stroke="black" points="4575.6,-1460.28 4565.19,-1462.22 4574.54,-1467.2 4575.6,-1460.28"/>
</g>
<!-- hla_reference_file -->
<g id="node15" class="node">
<title>hla_reference_file</title>
<polygon fill="#94ddf4" stroke="black" points="6123,-1969.71 6123,-2006.71 6265,-2006.71 6265,-1969.71 6123,-1969.71"/>
<text text-anchor="middle" x="6194" y="-1984.51" font-family="Times,serif" font-size="14.00">hla_reference_file</text>
</g>
<!-- hla_reference_file&#45;&gt;run_dragen_germline_step -->
<g id="edge24" class="edge">
<title>hla_reference_file&#45;&gt;run_dragen_germline_step</title>
<path fill="none" stroke="black" d="M6168.99,-1969.55C6153.67,-1959.33 6133.34,-1946.83 6114,-1938.21 5551.37,-1687.32 4824.73,-1522.23 4565.32,-1467.87"/>
<polygon fill="black" stroke="black" points="4565.68,-1464.37 4555.17,-1465.75 4564.25,-1471.22 4565.68,-1464.37"/>
</g>
<!-- hla_tiebreaker_threshold -->
<g id="node16" class="node">
<title>hla_tiebreaker_threshold</title>
<polygon fill="#94ddf4" stroke="black" points="5911,-1969.71 5911,-2006.71 6105,-2006.71 6105,-1969.71 5911,-1969.71"/>
<text text-anchor="middle" x="6008" y="-1984.51" font-family="Times,serif" font-size="14.00">hla_tiebreaker_threshold</text>
</g>
<!-- hla_tiebreaker_threshold&#45;&gt;run_dragen_germline_step -->
<g id="edge25" class="edge">
<title>hla_tiebreaker_threshold&#45;&gt;run_dragen_germline_step</title>
<path fill="none" stroke="black" d="M5972.1,-1969.49C5951.76,-1959.73 5925.71,-1947.71 5902,-1938.21 5385.7,-1731.32 4744.17,-1531.96 4536.36,-1468.8"/>
<polygon fill="black" stroke="black" points="4537.09,-1465.36 4526.5,-1465.8 4535.06,-1472.06 4537.09,-1465.36"/>
</g>
<!-- hla_zygosity_threshold -->
<g id="node17" class="node">
<title>hla_zygosity_threshold</title>
<polygon fill="#94ddf4" stroke="black" points="5713.5,-1969.71 5713.5,-2006.71 5892.5,-2006.71 5892.5,-1969.71 5713.5,-1969.71"/>
<text text-anchor="middle" x="5803" y="-1984.51" font-family="Times,serif" font-size="14.00">hla_zygosity_threshold</text>
</g>
<!-- hla_zygosity_threshold&#45;&gt;run_dragen_germline_step -->
<g id="edge26" class="edge">
<title>hla_zygosity_threshold&#45;&gt;run_dragen_germline_step</title>
<path fill="none" stroke="black" d="M5769.78,-1969.7C5750.96,-1960.02 5726.88,-1947.99 5705,-1938.21 5258.51,-1738.6 4704.42,-1533.99 4526.13,-1469.2"/>
<polygon fill="black" stroke="black" points="4527.26,-1465.88 4516.67,-1465.76 4524.88,-1472.46 4527.26,-1465.88"/>
</g>
<!-- lic_instance_id_location -->
<g id="node18" class="node">
<title>lic_instance_id_location</title>
<polygon fill="#94ddf4" stroke="black" points="5512.5,-1969.71 5512.5,-2006.71 5695.5,-2006.71 5695.5,-1969.71 5512.5,-1969.71"/>
<text text-anchor="middle" x="5604" y="-1984.51" font-family="Times,serif" font-size="14.00">lic_instance_id_location</text>
</g>
<!-- lic_instance_id_location&#45;&gt;run_dragen_germline_step -->
<g id="edge27" class="edge">
<title>lic_instance_id_location&#45;&gt;run_dragen_germline_step</title>
<path fill="none" stroke="black" d="M5568.05,-1969.66C5548.78,-1960.29 5524.62,-1948.57 5503,-1938.21 5122.32,-1755.76 4661.09,-1538.86 4514.83,-1470.19"/>
<polygon fill="black" stroke="black" points="4516.2,-1466.96 4505.66,-1465.88 4513.22,-1473.3 4516.2,-1466.96"/>
</g>
<!-- output_directory -->
<g id="node19" class="node">
<title>output_directory</title>
<polygon fill="#94ddf4" stroke="black" points="5358,-1969.71 5358,-2006.71 5494,-2006.71 5494,-1969.71 5358,-1969.71"/>
<text text-anchor="middle" x="5426" y="-1984.51" font-family="Times,serif" font-size="14.00">output_directory</text>
</g>
<!-- output_directory&#45;&gt;run_dragen_germline_step -->
<g id="edge28" class="edge">
<title>output_directory&#45;&gt;run_dragen_germline_step</title>
<path fill="none" stroke="black" d="M5399.16,-1969.58C5384.47,-1960.07 5365.88,-1948.26 5349,-1938.21 5031.4,-1749.06 4638.16,-1538.48 4510.29,-1470.59"/>
<polygon fill="black" stroke="black" points="4511.67,-1467.35 4501.2,-1465.76 4508.39,-1473.54 4511.67,-1467.35"/>
</g>
<!-- qc_coverage_ignore_overlaps -->
<g id="node20" class="node">
<title>qc_coverage_ignore_overlaps</title>
<polygon fill="#94ddf4" stroke="black" points="5116,-1969.71 5116,-2006.71 5340,-2006.71 5340,-1969.71 5116,-1969.71"/>
<text text-anchor="middle" x="5228" y="-1984.51" font-family="Times,serif" font-size="14.00">qc_coverage_ignore_overlaps</text>
</g>
<!-- qc_coverage_ignore_overlaps&#45;&gt;run_dragen_germline_step -->
<g id="edge29" class="edge">
<title>qc_coverage_ignore_overlaps&#45;&gt;run_dragen_germline_step</title>
<path fill="none" stroke="black" d="M5203.15,-1969.58C5090.74,-1889.86 4629.82,-1562.97 4501.37,-1471.88"/>
<polygon fill="black" stroke="black" points="4503.23,-1468.91 4493.05,-1465.97 4499.18,-1474.61 4503.23,-1468.91"/>
</g>
<!-- qc_coverage_region_1 -->
<g id="node21" class="node">
<title>qc_coverage_region_1</title>
<polygon fill="#94ddf4" stroke="black" points="4924.5,-1969.71 4924.5,-2006.71 5097.5,-2006.71 5097.5,-1969.71 4924.5,-1969.71"/>
<text text-anchor="middle" x="5011" y="-1984.51" font-family="Times,serif" font-size="14.00">qc_coverage_region_1</text>
</g>
<!-- qc_coverage_region_1&#45;&gt;run_dragen_germline_step -->
<g id="edge30" class="edge">
<title>qc_coverage_region_1&#45;&gt;run_dragen_germline_step</title>
<path fill="none" stroke="black" d="M4993.24,-1969.58C4913.33,-1890.26 4586.9,-1566.23 4493.23,-1473.26"/>
<polygon fill="black" stroke="black" points="4495.46,-1470.54 4485.9,-1465.97 4490.53,-1475.5 4495.46,-1470.54"/>
</g>
<!-- qc_coverage_region_2 -->
<g id="node22" class="node">
<title>qc_coverage_region_2</title>
<polygon fill="#94ddf4" stroke="black" points="4733.5,-1969.71 4733.5,-2006.71 4906.5,-2006.71 4906.5,-1969.71 4733.5,-1969.71"/>
<text text-anchor="middle" x="4820" y="-1984.51" font-family="Times,serif" font-size="14.00">qc_coverage_region_2</text>
</g>
<!-- qc_coverage_region_2&#45;&gt;run_dragen_germline_step -->
<g id="edge31" class="edge">
<title>qc_coverage_region_2&#45;&gt;run_dragen_germline_step</title>
<path fill="none" stroke="black" d="M4808.49,-1969.58C4756.89,-1890.58 4546.77,-1568.83 4485.1,-1474.39"/>
<polygon fill="black" stroke="black" points="4488,-1472.43 4479.6,-1465.97 4482.14,-1476.26 4488,-1472.43"/>
</g>
<!-- qc_coverage_region_3 -->
<g id="node23" class="node">
<title>qc_coverage_region_3</title>
<polygon fill="#94ddf4" stroke="black" points="4542.5,-1969.71 4542.5,-2006.71 4715.5,-2006.71 4715.5,-1969.71 4542.5,-1969.71"/>
<text text-anchor="middle" x="4629" y="-1984.51" font-family="Times,serif" font-size="14.00">qc_coverage_region_3</text>
</g>
<!-- qc_coverage_region_3&#45;&gt;run_dragen_germline_step -->
<g id="edge32" class="edge">
<title>qc_coverage_region_3&#45;&gt;run_dragen_germline_step</title>
<path fill="none" stroke="black" d="M4623.73,-1969.58C4600.25,-1890.98 4505,-1572.07 4476.25,-1475.83"/>
<polygon fill="black" stroke="black" points="4479.52,-1474.55 4473.31,-1465.97 4472.81,-1476.56 4479.52,-1474.55"/>
</g>
<!-- reference_tar -->
<g id="node24" class="node">
<title>reference_tar</title>
<polygon fill="#94ddf4" stroke="black" points="4411.5,-1969.71 4411.5,-2006.71 4524.5,-2006.71 4524.5,-1969.71 4411.5,-1969.71"/>
<text text-anchor="middle" x="4468" y="-1984.51" font-family="Times,serif" font-size="14.00">reference_tar</text>
</g>
<!-- reference_tar&#45;&gt;run_dragen_germline_step -->
<g id="edge33" class="edge">
<title>reference_tar&#45;&gt;run_dragen_germline_step</title>
<path fill="none" stroke="black" d="M4468,-1969.58C4468,-1891.06 4468,-1572.71 4468,-1476.13"/>
<polygon fill="black" stroke="black" points="4471.5,-1475.97 4468,-1465.97 4464.5,-1475.98 4471.5,-1475.97"/>
</g>
<!-- sample_sex -->
<g id="node25" class="node">
<title>sample_sex</title>
<polygon fill="#94ddf4" stroke="black" points="4295,-1969.71 4295,-2006.71 4393,-2006.71 4393,-1969.71 4295,-1969.71"/>
<text text-anchor="middle" x="4344" y="-1984.51" font-family="Times,serif" font-size="14.00">sample_sex</text>
</g>
<!-- sample_sex&#45;&gt;run_dragen_germline_step -->
<g id="edge34" class="edge">
<title>sample_sex&#45;&gt;run_dragen_germline_step</title>
<path fill="none" stroke="black" d="M4348.06,-1969.58C4366.14,-1890.98 4439.51,-1572.07 4461.64,-1475.83"/>
<polygon fill="black" stroke="black" points="4465.08,-1476.51 4463.91,-1465.97 4458.26,-1474.94 4465.08,-1476.51"/>
</g>
<!-- sv_call_regions_bed -->
<g id="node26" class="node">
<title>sv_call_regions_bed</title>
<polygon fill="#94ddf4" stroke="black" points="4119.5,-1969.71 4119.5,-2006.71 4276.5,-2006.71 4276.5,-1969.71 4119.5,-1969.71"/>
<text text-anchor="middle" x="4198" y="-1984.51" font-family="Times,serif" font-size="14.00">sv_call_regions_bed</text>
</g>
<!-- sv_call_regions_bed&#45;&gt;run_dragen_germline_step -->
<g id="edge35" class="edge">
<title>sv_call_regions_bed&#45;&gt;run_dragen_germline_step</title>
<path fill="none" stroke="black" d="M4206.83,-1969.58C4246.33,-1890.74 4406.93,-1570.13 4454.6,-1474.96"/>
<polygon fill="black" stroke="black" points="4457.75,-1476.48 4459.1,-1465.97 4451.49,-1473.35 4457.75,-1476.48"/>
</g>
<!-- sv_discovery -->
<g id="node27" class="node">
<title>sv_discovery</title>
<polygon fill="#94ddf4" stroke="black" points="3994.5,-1969.71 3994.5,-2006.71 4101.5,-2006.71 4101.5,-1969.71 3994.5,-1969.71"/>
<text text-anchor="middle" x="4048" y="-1984.51" font-family="Times,serif" font-size="14.00">sv_discovery</text>
</g>
<!-- sv_discovery&#45;&gt;run_dragen_germline_step -->
<g id="edge36" class="edge">
<title>sv_discovery&#45;&gt;run_dragen_germline_step</title>
<path fill="none" stroke="black" d="M4061.74,-1969.58C4123.36,-1890.5 4374.52,-1568.18 4447.82,-1474.1"/>
<polygon fill="black" stroke="black" points="4450.77,-1476.01 4454.16,-1465.97 4445.25,-1471.71 4450.77,-1476.01"/>
</g>
<!-- sv_enable_liquid_tumor_mode -->
<g id="node28" class="node">
<title>sv_enable_liquid_tumor_mode</title>
<polygon fill="#94ddf4" stroke="black" points="3746,-1969.71 3746,-2006.71 3976,-2006.71 3976,-1969.71 3746,-1969.71"/>
<text text-anchor="middle" x="3861" y="-1984.51" font-family="Times,serif" font-size="14.00">sv_enable_liquid_tumor_mode</text>
</g>
<!-- sv_enable_liquid_tumor_mode&#45;&gt;run_dragen_germline_step -->
<g id="edge37" class="edge">
<title>sv_enable_liquid_tumor_mode&#45;&gt;run_dragen_germline_step</title>
<path fill="none" stroke="black" d="M3880.85,-1969.58C3970.36,-1890.1 4336.56,-1564.93 4440.42,-1472.7"/>
<polygon fill="black" stroke="black" points="4442.84,-1475.23 4447.99,-1465.97 4438.19,-1470 4442.84,-1475.23"/>
</g>
<!-- sv_exome -->
<g id="node29" class="node">
<title>sv_exome</title>
<polygon fill="#94ddf4" stroke="black" points="3642,-1969.71 3642,-2006.71 3728,-2006.71 3728,-1969.71 3642,-1969.71"/>
<text text-anchor="middle" x="3685" y="-1984.51" font-family="Times,serif" font-size="14.00">sv_exome</text>
</g>
<!-- sv_exome&#45;&gt;run_dragen_germline_step -->
<g id="edge38" class="edge">
<title>sv_exome&#45;&gt;run_dragen_germline_step</title>
<path fill="none" stroke="black" d="M3702.16,-1969.67C3711.99,-1959.98 3724.78,-1947.95 3737,-1938.21 3987.1,-1738.79 4317.05,-1537.82 4428.96,-1471.22"/>
<polygon fill="black" stroke="black" points="4431.07,-1474.04 4437.88,-1465.92 4427.49,-1468.02 4431.07,-1474.04"/>
</g>
<!-- sv_forcegt_vcf -->
<g id="node30" class="node">
<title>sv_forcegt_vcf</title>
<polygon fill="#94ddf4" stroke="black" points="3506,-1969.71 3506,-2006.71 3624,-2006.71 3624,-1969.71 3506,-1969.71"/>
<text text-anchor="middle" x="3565" y="-1984.51" font-family="Times,serif" font-size="14.00">sv_forcegt_vcf</text>
</g>
<!-- sv_forcegt_vcf&#45;&gt;run_dragen_germline_step -->
<g id="edge39" class="edge">
<title>sv_forcegt_vcf&#45;&gt;run_dragen_germline_step</title>
<path fill="none" stroke="black" d="M3588.22,-1969.65C3601.19,-1960.06 3617.76,-1948.14 3633,-1938.21 3929.45,-1745.03 4302.99,-1538.21 4426.36,-1470.82"/>
<polygon fill="black" stroke="black" points="4428.39,-1473.7 4435.49,-1465.84 4425.04,-1467.56 4428.39,-1473.7"/>
</g>
<!-- sv_output_contigs -->
<g id="node31" class="node">
<title>sv_output_contigs</title>
<polygon fill="#94ddf4" stroke="black" points="3342.5,-1969.71 3342.5,-2006.71 3487.5,-2006.71 3487.5,-1969.71 3342.5,-1969.71"/>
<text text-anchor="middle" x="3415" y="-1984.51" font-family="Times,serif" font-size="14.00">sv_output_contigs</text>
</g>
<!-- sv_output_contigs&#45;&gt;run_dragen_germline_step -->
<g id="edge40" class="edge">
<title>sv_output_contigs&#45;&gt;run_dragen_germline_step</title>
<path fill="none" stroke="black" d="M3443.17,-1969.7C3458.86,-1960.12 3478.84,-1948.2 3497,-1938.21 3846.72,-1745.8 4280.97,-1537.04 4421.68,-1470.13"/>
<polygon fill="black" stroke="black" points="4423.38,-1473.2 4430.91,-1465.75 4420.38,-1466.88 4423.38,-1473.2"/>
</g>
<!-- sv_region -->
<g id="node32" class="node">
<title>sv_region</title>
<polygon fill="#94ddf4" stroke="black" points="3239.5,-1969.71 3239.5,-2006.71 3324.5,-2006.71 3324.5,-1969.71 3239.5,-1969.71"/>
<text text-anchor="middle" x="3282" y="-1984.51" font-family="Times,serif" font-size="14.00">sv_region</text>
</g>
<!-- sv_region&#45;&gt;run_dragen_germline_step -->
<g id="edge41" class="edge">
<title>sv_region&#45;&gt;run_dragen_germline_step</title>
<path fill="none" stroke="black" d="M3298.05,-1969.25C3307.73,-1959.19 3320.73,-1946.94 3334,-1938.21 3704.15,-1694.75 4215.32,-1525.15 4398.9,-1468.73"/>
<polygon fill="black" stroke="black" points="4400.16,-1472 4408.7,-1465.73 4398.11,-1465.31 4400.16,-1472"/>
</g>
<!-- sv_se_overlap_pair_evidence -->
<g id="node33" class="node">
<title>sv_se_overlap_pair_evidence</title>
<polygon fill="#94ddf4" stroke="black" points="3001,-1969.71 3001,-2006.71 3221,-2006.71 3221,-1969.71 3001,-1969.71"/>
<text text-anchor="middle" x="3111" y="-1984.51" font-family="Times,serif" font-size="14.00">sv_se_overlap_pair_evidence</text>
</g>
<!-- sv_se_overlap_pair_evidence&#45;&gt;run_dragen_germline_step -->
<g id="edge42" class="edge">
<title>sv_se_overlap_pair_evidence&#45;&gt;run_dragen_germline_step</title>
<path fill="none" stroke="black" d="M3153.72,-1969.64C3176.62,-1960.25 3205.32,-1948.54 3231,-1938.21 3687.68,-1754.53 4241.19,-1537.12 4413.89,-1469.41"/>
<polygon fill="black" stroke="black" points="4415.25,-1472.64 4423.28,-1465.73 4412.69,-1466.12 4415.25,-1472.64"/>
</g>
<!-- sv_tin_contam_tolerance -->
<g id="node34" class="node">
<title>sv_tin_contam_tolerance</title>
<polygon fill="#94ddf4" stroke="black" points="2791.5,-1969.71 2791.5,-2006.71 2982.5,-2006.71 2982.5,-1969.71 2791.5,-1969.71"/>
<text text-anchor="middle" x="2887" y="-1984.51" font-family="Times,serif" font-size="14.00">sv_tin_contam_tolerance</text>
</g>
<!-- sv_tin_contam_tolerance&#45;&gt;run_dragen_germline_step -->
<g id="edge43" class="edge">
<title>sv_tin_contam_tolerance&#45;&gt;run_dragen_germline_step</title>
<path fill="none" stroke="black" d="M2922.03,-1969.62C2942.23,-1959.79 2968.26,-1947.65 2992,-1938.21 3521.74,-1727.5 4181.73,-1531.03 4396.74,-1468.66"/>
<polygon fill="black" stroke="black" points="4398.01,-1471.94 4406.64,-1465.79 4396.06,-1465.21 4398.01,-1471.94"/>
</g>
<!-- vc_decoy_contigs -->
<g id="node35" class="node">
<title>vc_decoy_contigs</title>
<polygon fill="#94ddf4" stroke="black" points="2634.5,-1969.71 2634.5,-2006.71 2773.5,-2006.71 2773.5,-1969.71 2634.5,-1969.71"/>
<text text-anchor="middle" x="2704" y="-1984.51" font-family="Times,serif" font-size="14.00">vc_decoy_contigs</text>
</g>
<!-- vc_decoy_contigs&#45;&gt;run_dragen_germline_step -->
<g id="edge44" class="edge">
<title>vc_decoy_contigs&#45;&gt;run_dragen_germline_step</title>
<path fill="none" stroke="black" d="M2728.65,-1969.49C2743.76,-1959.25 2763.83,-1946.75 2783,-1938.21 3356.21,-1682.86 4097.84,-1521.2 4365.79,-1467.78"/>
<polygon fill="black" stroke="black" points="4366.76,-1471.15 4375.89,-1465.77 4365.4,-1464.29 4366.76,-1471.15"/>
</g>
<!-- vc_enable_baf -->
<g id="node36" class="node">
<title>vc_enable_baf</title>
<polygon fill="#94ddf4" stroke="black" points="2500,-1969.71 2500,-2006.71 2616,-2006.71 2616,-1969.71 2500,-1969.71"/>
<text text-anchor="middle" x="2558" y="-1984.51" font-family="Times,serif" font-size="14.00">vc_enable_baf</text>
</g>
<!-- vc_enable_baf&#45;&gt;run_dragen_germline_step -->
<g id="edge45" class="edge">
<title>vc_enable_baf&#45;&gt;run_dragen_germline_step</title>
<path fill="none" stroke="black" d="M2578.19,-1969.64C2591.1,-1959.2 2608.64,-1946.43 2626,-1938.21 3245.98,-1644.67 4069.66,-1505.23 4360.66,-1462.8"/>
<polygon fill="black" stroke="black" points="4361.39,-1466.23 4370.78,-1461.33 4360.39,-1459.3 4361.39,-1466.23"/>
</g>
<!-- vc_enable_decoy_contigs -->
<g id="node37" class="node">
<title>vc_enable_decoy_contigs</title>
<polygon fill="#94ddf4" stroke="black" points="2288.5,-1969.71 2288.5,-2006.71 2481.5,-2006.71 2481.5,-1969.71 2288.5,-1969.71"/>
<text text-anchor="middle" x="2385" y="-1984.51" font-family="Times,serif" font-size="14.00">vc_enable_decoy_contigs</text>
</g>
<!-- vc_enable_decoy_contigs&#45;&gt;run_dragen_germline_step -->
<g id="edge46" class="edge">
<title>vc_enable_decoy_contigs&#45;&gt;run_dragen_germline_step</title>
<path fill="none" stroke="black" d="M2418.69,-1969.64C2439.19,-1959.45 2466.14,-1946.95 2491,-1938.21 3186.6,-1693.73 4060.59,-1522.44 4360.94,-1467.3"/>
<polygon fill="black" stroke="black" points="4361.74,-1470.71 4370.95,-1465.47 4360.48,-1463.83 4361.74,-1470.71"/>
</g>
<!-- vc_enable_gatk_acceleration -->
<g id="node38" class="node">
<title>vc_enable_gatk_acceleration</title>
<polygon fill="#94ddf4" stroke="black" points="2052,-1969.71 2052,-2006.71 2270,-2006.71 2270,-1969.71 2052,-1969.71"/>
<text text-anchor="middle" x="2161" y="-1984.51" font-family="Times,serif" font-size="14.00">vc_enable_gatk_acceleration</text>
</g>
<!-- vc_enable_gatk_acceleration&#45;&gt;run_dragen_germline_step -->
<g id="edge47" class="edge">
<title>vc_enable_gatk_acceleration&#45;&gt;run_dragen_germline_step</title>
<path fill="none" stroke="black" d="M2198.97,-1969.63C2222.05,-1959.44 2252.3,-1946.95 2280,-1938.21 3062.5,-1691.47 4039.68,-1518.87 4360.53,-1465.58"/>
<polygon fill="black" stroke="black" points="4361.45,-1468.98 4370.75,-1463.89 4360.31,-1462.07 4361.45,-1468.98"/>
</g>
<!-- vc_enable_phasing -->
<g id="node39" class="node">
<title>vc_enable_phasing</title>
<polygon fill="#94ddf4" stroke="black" points="1884.5,-1969.71 1884.5,-2006.71 2033.5,-2006.71 2033.5,-1969.71 1884.5,-1969.71"/>
<text text-anchor="middle" x="1959" y="-1984.51" font-family="Times,serif" font-size="14.00">vc_enable_phasing</text>
</g>
<!-- vc_enable_phasing&#45;&gt;run_dragen_germline_step -->
<g id="edge48" class="edge">
<title>vc_enable_phasing&#45;&gt;run_dragen_germline_step</title>
<path fill="none" stroke="black" d="M1984.01,-1969.68C2000.16,-1959.11 2022.01,-1946.2 2043,-1938.21 2900.35,-1611.85 4015.07,-1488.99 4360.94,-1457.23"/>
<polygon fill="black" stroke="black" points="4361.31,-1460.71 4370.95,-1456.32 4360.67,-1453.74 4361.31,-1460.71"/>
</g>
<!-- vc_enable_roh -->
<g id="node40" class="node">
<title>vc_enable_roh</title>
<polygon fill="#94ddf4" stroke="black" points="1749.5,-1969.71 1749.5,-2006.71 1866.5,-2006.71 1866.5,-1969.71 1749.5,-1969.71"/>
<text text-anchor="middle" x="1808" y="-1984.51" font-family="Times,serif" font-size="14.00">vc_enable_roh</text>
</g>
<!-- vc_enable_roh&#45;&gt;run_dragen_germline_step -->
<g id="edge49" class="edge">
<title>vc_enable_roh&#45;&gt;run_dragen_germline_step</title>
<path fill="none" stroke="black" d="M1827.4,-1969.67C1840.29,-1958.97 1858.08,-1945.9 1876,-1938.21 2781.76,-1549.24 3996.78,-1467.96 4360.7,-1451.94"/>
<polygon fill="black" stroke="black" points="4361.12,-1455.42 4370.96,-1451.49 4360.81,-1448.43 4361.12,-1455.42"/>
</g>
<!-- vc_enable_vcf_output -->
<g id="node41" class="node">
<title>vc_enable_vcf_output</title>
<polygon fill="#94ddf4" stroke="black" points="1563,-1969.71 1563,-2006.71 1731,-2006.71 1731,-1969.71 1563,-1969.71"/>
<text text-anchor="middle" x="1647" y="-1984.51" font-family="Times,serif" font-size="14.00">vc_enable_vcf_output</text>
</g>
<!-- vc_enable_vcf_output&#45;&gt;run_dragen_germline_step -->
<g id="edge50" class="edge">
<title>vc_enable_vcf_output&#45;&gt;run_dragen_germline_step</title>
<path fill="none" stroke="black" d="M1675.21,-1969.62C1693.37,-1959.04 1717.84,-1946.12 1741,-1938.21 2723.84,-1602.49 3988.66,-1484.51 4360.65,-1455.8"/>
<polygon fill="black" stroke="black" points="4361.16,-1459.27 4370.87,-1455.01 4360.63,-1452.29 4361.16,-1459.27"/>
</g>
<!-- vc_hard_filter -->
<g id="node42" class="node">
<title>vc_hard_filter</title>
<polygon fill="#94ddf4" stroke="black" points="1431.5,-1969.71 1431.5,-2006.71 1544.5,-2006.71 1544.5,-1969.71 1431.5,-1969.71"/>
<text text-anchor="middle" x="1488" y="-1984.51" font-family="Times,serif" font-size="14.00">vc_hard_filter</text>
</g>
<!-- vc_hard_filter&#45;&gt;run_dragen_germline_step -->
<g id="edge51" class="edge">
<title>vc_hard_filter&#45;&gt;run_dragen_germline_step</title>
<path fill="none" stroke="black" d="M1506.69,-1969.54C1519.15,-1958.78 1536.41,-1945.7 1554,-1938.21 2581.19,-1500.75 3967.89,-1452.95 4360.48,-1448.45"/>
<polygon fill="black" stroke="black" points="4360.72,-1451.95 4370.68,-1448.34 4360.65,-1444.95 4360.72,-1451.95"/>
</g>
<!-- vc_max_reads_per_active_region -->
<g id="node43" class="node">
<title>vc_max_reads_per_active_region</title>
<polygon fill="#94ddf4" stroke="black" points="1165,-1969.71 1165,-2006.71 1413,-2006.71 1413,-1969.71 1165,-1969.71"/>
<text text-anchor="middle" x="1289" y="-1984.51" font-family="Times,serif" font-size="14.00">vc_max_reads_per_active_region</text>
</g>
<!-- vc_max_reads_per_active_region&#45;&gt;run_dragen_germline_step -->
<g id="edge52" class="edge">
<title>vc_max_reads_per_active_region&#45;&gt;run_dragen_germline_step</title>
<path fill="none" stroke="black" d="M1330.59,-1969.66C1356.72,-1959.23 1391.36,-1946.46 1423,-1938.21 2552.17,-1643.79 3965.58,-1495.54 4360.94,-1457.96"/>
<polygon fill="black" stroke="black" points="4361.31,-1461.44 4370.94,-1457.01 4360.65,-1454.47 4361.31,-1461.44"/>
</g>
<!-- vc_max_reads_per_raw_region -->
<g id="node44" class="node">
<title>vc_max_reads_per_raw_region</title>
<polygon fill="#94ddf4" stroke="black" points="913.5,-1969.71 913.5,-2006.71 1146.5,-2006.71 1146.5,-1969.71 913.5,-1969.71"/>
<text text-anchor="middle" x="1030" y="-1984.51" font-family="Times,serif" font-size="14.00">vc_max_reads_per_raw_region</text>
</g>
<!-- vc_max_reads_per_raw_region&#45;&gt;run_dragen_germline_step -->
<g id="edge53" class="edge">
<title>vc_max_reads_per_raw_region&#45;&gt;run_dragen_germline_step</title>
<path fill="none" stroke="black" d="M1068.41,-1969.68C1092.99,-1959.12 1125.82,-1946.2 1156,-1938.21 2389.56,-1611.53 3943.12,-1484.79 4360.64,-1455.32"/>
<polygon fill="black" stroke="black" points="4361.16,-1458.79 4370.89,-1454.6 4360.67,-1451.81 4361.16,-1458.79"/>
</g>
<!-- vc_remove_all_soft_clips -->
<g id="node45" class="node">
<title>vc_remove_all_soft_clips</title>
<polygon fill="#94ddf4" stroke="black" points="705,-1969.71 705,-2006.71 895,-2006.71 895,-1969.71 705,-1969.71"/>
<text text-anchor="middle" x="800" y="-1984.51" font-family="Times,serif" font-size="14.00">vc_remove_all_soft_clips</text>
</g>
<!-- vc_remove_all_soft_clips&#45;&gt;run_dragen_germline_step -->
<g id="edge54" class="edge">
<title>vc_remove_all_soft_clips&#45;&gt;run_dragen_germline_step</title>
<path fill="none" stroke="black" d="M831.19,-1969.62C851.59,-1958.9 879.14,-1945.83 905,-1938.21 2228.67,-1548.04 3922.42,-1466.35 4360.69,-1451.3"/>
<polygon fill="black" stroke="black" points="4360.94,-1454.8 4370.81,-1450.96 4360.7,-1447.8 4360.94,-1454.8"/>
</g>
<!-- vc_roh_blacklist_bed -->
<g id="node46" class="node">
<title>vc_roh_blacklist_bed</title>
<polygon fill="#94ddf4" stroke="black" points="523.5,-1969.71 523.5,-2006.71 686.5,-2006.71 686.5,-1969.71 523.5,-1969.71"/>
<text text-anchor="middle" x="605" y="-1984.51" font-family="Times,serif" font-size="14.00">vc_roh_blacklist_bed</text>
</g>
<!-- vc_roh_blacklist_bed&#45;&gt;run_dragen_germline_step -->
<g id="edge55" class="edge">
<title>vc_roh_blacklist_bed&#45;&gt;run_dragen_germline_step</title>
<path fill="none" stroke="black" d="M631.32,-1969.69C648.9,-1958.86 672.94,-1945.64 696,-1938.21 2092.17,-1488.57 3905.19,-1450.31 4360.64,-1448.06"/>
<polygon fill="black" stroke="black" points="4360.84,-1451.56 4370.82,-1448.01 4360.81,-1444.56 4360.84,-1451.56"/>
</g>
<!-- vc_target_bed -->
<g id="node47" class="node">
<title>vc_target_bed</title>
<polygon fill="#94ddf4" stroke="black" points="389,-1969.71 389,-2006.71 505,-2006.71 505,-1969.71 389,-1969.71"/>
<text text-anchor="middle" x="447" y="-1984.51" font-family="Times,serif" font-size="14.00">vc_target_bed</text>
</g>
<!-- vc_target_bed&#45;&gt;run_dragen_germline_step -->
<g id="edge56" class="edge">
<title>vc_target_bed&#45;&gt;run_dragen_germline_step</title>
<path fill="none" stroke="black" d="M465.96,-1969.53C478.8,-1958.62 496.71,-1945.38 515,-1938.21 1248.01,-1650.63 3804.97,-1486.95 4360.82,-1454.3"/>
<polygon fill="black" stroke="black" points="4361.06,-1457.79 4370.83,-1453.71 4360.65,-1450.8 4361.06,-1457.79"/>
</g>
<!-- vc_target_bed_padding -->
<g id="node48" class="node">
<title>vc_target_bed_padding</title>
<polygon fill="#94ddf4" stroke="black" points="189.5,-1969.71 189.5,-2006.71 370.5,-2006.71 370.5,-1969.71 189.5,-1969.71"/>
<text text-anchor="middle" x="280" y="-1984.51" font-family="Times,serif" font-size="14.00">vc_target_bed_padding</text>
</g>
<!-- vc_target_bed_padding&#45;&gt;run_dragen_germline_step -->
<g id="edge57" class="edge">
<title>vc_target_bed_padding&#45;&gt;run_dragen_germline_step</title>
<path fill="none" stroke="black" d="M309.13,-1969.68C328.53,-1958.83 354.97,-1945.61 380,-1938.21 1911.44,-1485.45 3883.39,-1449.75 4360.59,-1448"/>
<polygon fill="black" stroke="black" points="4360.92,-1451.5 4370.91,-1447.97 4360.9,-1444.5 4360.92,-1451.5"/>
</g>
<!-- vc_target_coverage -->
<g id="node49" class="node">
<title>vc_target_coverage</title>
<polygon fill="#94ddf4" stroke="black" points="16.5,-1969.71 16.5,-2006.71 171.5,-2006.71 171.5,-1969.71 16.5,-1969.71"/>
<text text-anchor="middle" x="94" y="-1984.51" font-family="Times,serif" font-size="14.00">vc_target_coverage</text>
</g>
<!-- vc_target_coverage&#45;&gt;run_dragen_germline_step -->
<g id="edge58" class="edge">
<title>vc_target_coverage&#45;&gt;run_dragen_germline_step</title>
<path fill="none" stroke="black" d="M118.7,-1969.55C135.24,-1958.65 157.95,-1945.42 180,-1938.21 994.7,-1671.99 3777.78,-1490.26 4360.48,-1454.62"/>
<polygon fill="black" stroke="black" points="4360.78,-1458.11 4370.55,-1454.01 4360.36,-1451.12 4360.78,-1458.11"/>
</g>
<!-- dragen_bam_out -->
<g id="node50" class="node">
<title>dragen_bam_out</title>
<polygon fill="#94ddf4" stroke="black" points="4271,-388.71 4271,-425.71 4405,-425.71 4405,-388.71 4271,-388.71"/>
<text text-anchor="middle" x="4338" y="-403.51" font-family="Times,serif" font-size="14.00">dragen_bam_out</text>
</g>
<!-- dragen_germline_output_directory -->
<g id="node51" class="node">
<title>dragen_germline_output_directory</title>
<polygon fill="#94ddf4" stroke="black" points="4423.5,-388.71 4423.5,-425.71 4686.5,-425.71 4686.5,-388.71 4423.5,-388.71"/>
<text text-anchor="middle" x="4555" y="-403.51" font-family="Times,serif" font-size="14.00">dragen_germline_output_directory</text>
</g>
<!-- dragen_vcf_out -->
<g id="node52" class="node">
<title>dragen_vcf_out</title>
<polygon fill="#94ddf4" stroke="black" points="4704.5,-388.71 4704.5,-425.71 4829.5,-425.71 4829.5,-388.71 4704.5,-388.71"/>
<text text-anchor="middle" x="4767" y="-403.51" font-family="Times,serif" font-size="14.00">dragen_vcf_out</text>
</g>
<!-- multiqc_output_directory -->
<g id="node53" class="node">
<title>multiqc_output_directory</title>
<polygon fill="#94ddf4" stroke="black" points="4847.5,-388.71 4847.5,-425.71 5044.5,-425.71 5044.5,-388.71 4847.5,-388.71"/>
<text text-anchor="middle" x="4946" y="-403.51" font-family="Times,serif" font-size="14.00">multiqc_output_directory</text>
</g>
<!-- run_dragen_germline_step&#45;&gt;dragen_bam_out -->
<g id="edge2" class="edge">
<title>run_dragen_germline_step&#45;&gt;dragen_bam_out</title>
<path fill="none" stroke="black" d="M4465.8,-1428.63C4450.53,-1306.73 4360.49,-587.78 4341.51,-436.24"/>
<polygon fill="black" stroke="black" points="4344.94,-435.44 4340.22,-425.95 4337.99,-436.31 4344.94,-435.44"/>
</g>
<!-- run_dragen_germline_step&#45;&gt;dragen_germline_output_directory -->
<g id="edge3" class="edge">
<title>run_dragen_germline_step&#45;&gt;dragen_germline_output_directory</title>
<path fill="none" stroke="black" d="M4469.47,-1428.63C4479.69,-1306.73 4539.95,-587.78 4552.65,-436.24"/>
<polygon fill="black" stroke="black" points="4556.17,-436.21 4553.51,-425.95 4549.19,-435.62 4556.17,-436.21"/>
</g>
<!-- run_dragen_germline_step&#45;&gt;dragen_vcf_out -->
<g id="edge4" class="edge">
<title>run_dragen_germline_step&#45;&gt;dragen_vcf_out</title>
<path fill="none" stroke="black" d="M4473.06,-1428.63C4508.21,-1306.61 4715.69,-586.34 4759.06,-435.79"/>
<polygon fill="black" stroke="black" points="4762.49,-436.53 4761.89,-425.95 4755.76,-434.59 4762.49,-436.53"/>
</g>
<!-- run_dragen_germline_step&#45;&gt;dragen_qc_step -->
<g id="edge1" class="edge">
<title>run_dragen_germline_step&#45;&gt;dragen_qc_step</title>
<path fill="none" stroke="black" d="M4565.36,-1433.34C5113.47,-1360.89 7807.44,-1004.81 8307.16,-938.76"/>
<polygon fill="black" stroke="black" points="8307.71,-942.22 8317.17,-937.44 8306.8,-935.28 8307.71,-942.22"/>
</g>
<!-- dragen_qc_step&#45;&gt;multiqc_output_directory -->
<g id="edge5" class="edge">
<title>dragen_qc_step&#45;&gt;multiqc_output_directory</title>
<path fill="none" stroke="black" d="M8317.49,-915.75C7886.85,-850.92 5584.14,-504.27 5054.62,-424.56"/>
<polygon fill="black" stroke="black" points="5055.1,-421.09 5044.69,-423.07 5054.06,-428.02 5055.1,-421.09"/>
</g>
<!-- create_dummy_file_step -->
<g id="node56" class="node">
<title>create_dummy_file_step</title>
<polygon fill="lightgoldenrodyellow" stroke="black" points="8433.5,-1428.71 8433.5,-1465.71 8694.5,-1465.71 8694.5,-1428.71 8433.5,-1428.71"/>
<text text-anchor="middle" x="8564" y="-1443.51" font-family="Times,serif" font-size="14.00">custom&#45;create&#45;dummy&#45;file v(1.0.0)</text>
</g>
<!-- create_dummy_file_step&#45;&gt;dragen_qc_step -->
<g id="edge6" class="edge">
<title>create_dummy_file_step&#45;&gt;dragen_qc_step</title>
<path fill="none" stroke="black" d="M8558.01,-1428.68C8531.9,-1352.28 8427.97,-1048.12 8396.24,-955.27"/>
<polygon fill="black" stroke="black" points="8399.53,-954.07 8392.99,-945.74 8392.91,-956.33 8399.53,-954.07"/>
</g>
<!-- \n -->
<g id="node57" class="node">
<title>\n</title>
<ellipse fill="none" stroke="black" cx="8502" cy="-1988.21" rx="27" ry="18"/>
</g>
</g>
</svg>
