<?xml version="1.0" encoding="UTF-8" standalone="no"?>
<!DOCTYPE svg PUBLIC "-//W3C//DTD SVG 1.1//EN"
 "http://www.w3.org/Graphics/SVG/1.1/DTD/svg11.dtd">
<!-- Generated by graphviz version 2.43.0 (0)
 -->
<!-- Title: G Pages: 1 -->
<svg width="8537pt" height="2200pt"
 viewBox="0.00 0.00 8537.00 2199.95" xmlns="http://www.w3.org/2000/svg" xmlns:xlink="http://www.w3.org/1999/xlink">
<g id="graph0" class="graph" transform="scale(1 1) rotate(0) translate(4 2195.95)">
<title>G</title>
<polygon fill="#eeeeee" stroke="transparent" points="-4,4 -4,-2195.95 8533,-2195.95 8533,4 -4,4"/>
<g id="clust1" class="cluster">
<title>cluster_inputs</title>
<polygon fill="#eeeeee" stroke="black" stroke-dasharray="5,2" points="8,-1606.05 8,-2136.81 8465,-2136.81 8465,-1606.05 8,-1606.05"/>
<text text-anchor="middle" x="8398.5" y="-1613.85" font-family="Times,serif" font-size="14.00">Workflow Inputs</text>
</g>
<g id="clust2" class="cluster">
<title>cluster_outputs</title>
<polygon fill="#eeeeee" stroke="black" stroke-dasharray="5,2" points="3569,-55.14 3569,-585.9 4360,-585.9 4360,-55.14 3569,-55.14"/>
<text text-anchor="middle" x="4287.5" y="-62.94" font-family="Times,serif" font-size="14.00">Workflow Outputs</text>
</g>
<!-- output_file_prefix -->
<g id="node1" class="node">
<title>output_file_prefix</title>
<polygon fill="#94ddf4" stroke="black" points="16,-1932.64 16,-1969.64 156,-1969.64 156,-1932.64 16,-1932.64"/>
<text text-anchor="middle" x="86" y="-1947.44" font-family="Times,serif" font-size="14.00">output_file_prefix</text>
</g>
<!-- dragen_qc_step -->
<g id="node55" class="node">
<title>dragen_qc_step</title>
<polygon fill="lightgoldenrodyellow" stroke="black" points="16.5,-891.64 16.5,-928.64 155.5,-928.64 155.5,-891.64 16.5,-891.64"/>
<text text-anchor="middle" x="86" y="-906.44" font-family="Times,serif" font-size="14.00">multiqc v(1.12.0)</text>
</g>
<!-- output_file_prefix&#45;&gt;dragen_qc_step -->
<g id="edge7" class="edge">
<title>output_file_prefix&#45;&gt;dragen_qc_step</title>
<path fill="none" stroke="black" d="M82.16,-1932.55C69.6,-1810.53 69.29,-1090.89 81.22,-939.2"/>
<polygon fill="black" stroke="black" points="84.74,-939.17 82.14,-928.9 77.76,-938.55 84.74,-939.17"/>
</g>
<!-- output_file_prefix&#45;&gt;dragen_qc_step -->
<g id="edge8" class="edge">
<title>output_file_prefix&#45;&gt;dragen_qc_step</title>
<path fill="none" stroke="black" d="M86,-1932.55C86,-1810.53 86,-1090.89 86,-939.2"/>
<polygon fill="black" stroke="black" points="89.5,-938.9 86,-928.9 82.5,-938.9 89.5,-938.9"/>
</g>
<!-- output_file_prefix&#45;&gt;dragen_qc_step -->
<g id="edge9" class="edge">
<title>output_file_prefix&#45;&gt;dragen_qc_step</title>
<path fill="none" stroke="black" d="M89.84,-1932.55C102.4,-1810.53 102.71,-1090.89 90.78,-939.2"/>
<polygon fill="black" stroke="black" points="94.24,-938.55 89.86,-928.9 87.26,-939.17 94.24,-938.55"/>
</g>
<!-- run_dragen_germline_step -->
<g id="node56" class="node">
<title>run_dragen_germline_step</title>
<polygon fill="lightgoldenrodyellow" stroke="black" points="4086,-1401.64 4086,-1438.64 4280,-1438.64 4280,-1401.64 4086,-1401.64"/>
<text text-anchor="middle" x="4183" y="-1416.44" font-family="Times,serif" font-size="14.00">dragen&#45;germline v(3.9.3)</text>
</g>
<!-- output_file_prefix&#45;&gt;run_dragen_germline_step -->
<g id="edge10" class="edge">
<title>output_file_prefix&#45;&gt;run_dragen_germline_step</title>
<path fill="none" stroke="black" d="M108.8,-1932.49C124.12,-1921.59 145.23,-1908.36 166,-1901.14 922.09,-1638.57 3515.81,-1463.08 4075.85,-1427.73"/>
<polygon fill="black" stroke="black" points="4076.18,-1431.21 4085.94,-1427.09 4075.74,-1424.23 4076.18,-1431.21"/>
</g>
<!-- cnv_enable_self_normalization -->
<g id="node2" class="node">
<title>cnv_enable_self_normalization</title>
<polygon fill="#94ddf4" stroke="black" points="8050.5,-1932.64 8050.5,-1969.64 8283.5,-1969.64 8283.5,-1932.64 8050.5,-1932.64"/>
<text text-anchor="middle" x="8167" y="-1947.44" font-family="Times,serif" font-size="14.00">cnv_enable_self_normalization</text>
</g>
<!-- cnv_enable_self_normalization&#45;&gt;run_dragen_germline_step -->
<g id="edge11" class="edge">
<title>cnv_enable_self_normalization&#45;&gt;run_dragen_germline_step</title>
<path fill="none" stroke="black" d="M8129.52,-1932.6C8105.1,-1921.9 8072.27,-1908.83 8042,-1901.14 6587.32,-1531.76 4749.07,-1441.95 4290.36,-1424.7"/>
<polygon fill="black" stroke="black" points="4290.23,-1421.2 4280.11,-1424.32 4289.97,-1428.19 4290.23,-1421.2"/>
</g>
<!-- dbsnp_annotation -->
<g id="node3" class="node">
<title>dbsnp_annotation</title>
<polygon fill="#94ddf4" stroke="black" points="7889.5,-1932.64 7889.5,-1969.64 8032.5,-1969.64 8032.5,-1932.64 7889.5,-1932.64"/>
<text text-anchor="middle" x="7961" y="-1947.44" font-family="Times,serif" font-size="14.00">dbsnp_annotation</text>
</g>
<!-- dbsnp_annotation&#45;&gt;run_dragen_germline_step -->
<g id="edge12" class="edge">
<title>dbsnp_annotation&#45;&gt;run_dragen_germline_step</title>
<path fill="none" stroke="black" d="M7937.86,-1932.56C7922.32,-1921.7 7900.94,-1908.47 7880,-1901.14 7187.6,-1658.88 4822.81,-1469.31 4290.15,-1429.06"/>
<polygon fill="black" stroke="black" points="4290.4,-1425.57 4280.17,-1428.31 4289.88,-1432.55 4290.4,-1425.57"/>
</g>
<!-- dedup_min_qual -->
<g id="node4" class="node">
<title>dedup_min_qual</title>
<polygon fill="#94ddf4" stroke="black" points="7739,-1932.64 7739,-1969.64 7871,-1969.64 7871,-1932.64 7739,-1932.64"/>
<text text-anchor="middle" x="7805" y="-1947.44" font-family="Times,serif" font-size="14.00">dedup_min_qual</text>
</g>
<!-- dedup_min_qual&#45;&gt;run_dragen_germline_step -->
<g id="edge13" class="edge">
<title>dedup_min_qual&#45;&gt;run_dragen_germline_step</title>
<path fill="none" stroke="black" d="M7783.76,-1932.56C7769.46,-1921.7 7749.68,-1908.47 7730,-1901.14 7071.8,-1655.94 4810.15,-1469.49 4290.17,-1429.24"/>
<polygon fill="black" stroke="black" points="4290.29,-1425.74 4280.05,-1428.46 4289.76,-1432.72 4290.29,-1425.74"/>
</g>
<!-- enable_cnv -->
<g id="node5" class="node">
<title>enable_cnv</title>
<polygon fill="#94ddf4" stroke="black" points="7625.5,-1932.64 7625.5,-1969.64 7720.5,-1969.64 7720.5,-1932.64 7625.5,-1932.64"/>
<text text-anchor="middle" x="7673" y="-1947.44" font-family="Times,serif" font-size="14.00">enable_cnv</text>
</g>
<!-- enable_cnv&#45;&gt;run_dragen_germline_step -->
<g id="edge14" class="edge">
<title>enable_cnv&#45;&gt;run_dragen_germline_step</title>
<path fill="none" stroke="black" d="M7657.69,-1932.27C7647.35,-1921.43 7632.74,-1908.34 7617,-1901.14 6999.37,-1618.74 4802.81,-1461.27 4290.41,-1427.88"/>
<polygon fill="black" stroke="black" points="4290.28,-1424.37 4280.07,-1427.21 4289.83,-1431.35 4290.28,-1424.37"/>
</g>
<!-- enable_duplicate_marking -->
<g id="node6" class="node">
<title>enable_duplicate_marking</title>
<polygon fill="#94ddf4" stroke="black" points="7404.5,-1932.64 7404.5,-1969.64 7607.5,-1969.64 7607.5,-1932.64 7404.5,-1932.64"/>
<text text-anchor="middle" x="7506" y="-1947.44" font-family="Times,serif" font-size="14.00">enable_duplicate_marking</text>
</g>
<!-- enable_duplicate_marking&#45;&gt;run_dragen_germline_step -->
<g id="edge15" class="edge">
<title>enable_duplicate_marking&#45;&gt;run_dragen_germline_step</title>
<path fill="none" stroke="black" d="M7472.39,-1932.48C7450.82,-1921.86 7421.91,-1908.94 7395,-1901.14 6208.77,-1557.43 4700.97,-1450.49 4290.34,-1426.78"/>
<polygon fill="black" stroke="black" points="4290.44,-1423.28 4280.26,-1426.2 4290.04,-1430.27 4290.44,-1423.28"/>
</g>
<!-- enable_hla -->
<g id="node7" class="node">
<title>enable_hla</title>
<polygon fill="#94ddf4" stroke="black" points="7294,-1932.64 7294,-1969.64 7386,-1969.64 7386,-1932.64 7294,-1932.64"/>
<text text-anchor="middle" x="7340" y="-1947.44" font-family="Times,serif" font-size="14.00">enable_hla</text>
</g>
<!-- enable_hla&#45;&gt;run_dragen_germline_step -->
<g id="edge16" class="edge">
<title>enable_hla&#45;&gt;run_dragen_germline_step</title>
<path fill="none" stroke="black" d="M7324.99,-1932.34C7314.84,-1921.54 7300.5,-1908.45 7285,-1901.14 6732.89,-1640.78 4771.54,-1468.52 4290.23,-1429.55"/>
<polygon fill="black" stroke="black" points="4290.41,-1426.05 4280.17,-1428.74 4289.85,-1433.03 4290.41,-1426.05"/>
</g>
<!-- enable_map_align_output -->
<g id="node8" class="node">
<title>enable_map_align_output</title>
<polygon fill="#94ddf4" stroke="black" points="7078.5,-1932.64 7078.5,-1969.64 7275.5,-1969.64 7275.5,-1932.64 7078.5,-1932.64"/>
<text text-anchor="middle" x="7177" y="-1947.44" font-family="Times,serif" font-size="14.00">enable_map_align_output</text>
</g>
<!-- enable_map_align_output&#45;&gt;run_dragen_germline_step -->
<g id="edge17" class="edge">
<title>enable_map_align_output&#45;&gt;run_dragen_germline_step</title>
<path fill="none" stroke="black" d="M7144.31,-1932.6C7123.33,-1922.03 7095.2,-1909.11 7069,-1901.14 6014.47,-1580.28 4673.9,-1458.48 4290.04,-1428.83"/>
<polygon fill="black" stroke="black" points="4290.3,-1425.33 4280.06,-1428.06 4289.76,-1432.31 4290.3,-1425.33"/>
</g>
<!-- enable_sv -->
<g id="node9" class="node">
<title>enable_sv</title>
<polygon fill="#94ddf4" stroke="black" points="6974,-1932.64 6974,-1969.64 7060,-1969.64 7060,-1932.64 6974,-1932.64"/>
<text text-anchor="middle" x="7017" y="-1947.44" font-family="Times,serif" font-size="14.00">enable_sv</text>
</g>
<!-- enable_sv&#45;&gt;run_dragen_germline_step -->
<g id="edge18" class="edge">
<title>enable_sv&#45;&gt;run_dragen_germline_step</title>
<path fill="none" stroke="black" d="M7002.96,-1932.43C6993.42,-1921.65 6979.87,-1908.57 6965,-1901.14 6477.91,-1657.82 4740.8,-1475.3 4290.33,-1431.32"/>
<polygon fill="black" stroke="black" points="4290.54,-1427.83 4280.25,-1430.34 4289.86,-1434.79 4290.54,-1427.83"/>
</g>
<!-- fastq_list -->
<g id="node10" class="node">
<title>fastq_list</title>
<polygon fill="#94ddf4" stroke="black" points="6874,-1932.64 6874,-1969.64 6956,-1969.64 6956,-1932.64 6874,-1932.64"/>
<text text-anchor="middle" x="6915" y="-1947.44" font-family="Times,serif" font-size="14.00">fastq_list</text>
</g>
<!-- fastq_list&#45;&gt;run_dragen_germline_step -->
<g id="edge19" class="edge">
<title>fastq_list&#45;&gt;run_dragen_germline_step</title>
<path fill="none" stroke="black" d="M6901.62,-1932.45C6892.5,-1921.68 6879.47,-1908.61 6865,-1901.14 6399.27,-1660.93 4730.66,-1476.96 4290.23,-1431.82"/>
<polygon fill="black" stroke="black" points="4290.36,-1428.32 4280.05,-1430.78 4289.65,-1435.28 4290.36,-1428.32"/>
</g>
<!-- fastq_list_rows -->
<g id="node11" class="node">
<title>fastq_list_rows</title>
<polygon fill="#94ddf4" stroke="black" points="6732.5,-1932.64 6732.5,-1969.64 6855.5,-1969.64 6855.5,-1932.64 6732.5,-1932.64"/>
<text text-anchor="middle" x="6794" y="-1947.44" font-family="Times,serif" font-size="14.00">fastq_list_rows</text>
</g>
<!-- fastq_list_rows&#45;&gt;run_dragen_germline_step -->
<g id="edge20" class="edge">
<title>fastq_list_rows&#45;&gt;run_dragen_germline_step</title>
<path fill="none" stroke="black" d="M6773.61,-1932.63C6760.11,-1921.94 6741.52,-1908.87 6723,-1901.14 5833.63,-1529.91 4649.01,-1443.73 4290.33,-1425.6"/>
<polygon fill="black" stroke="black" points="4290.37,-1422.1 4280.21,-1425.1 4290.02,-1429.09 4290.37,-1422.1"/>
</g>
<!-- hla_allele_frequency_file -->
<g id="node12" class="node">
<title>hla_allele_frequency_file</title>
<polygon fill="#94ddf4" stroke="black" points="6524,-1932.64 6524,-1969.64 6714,-1969.64 6714,-1932.64 6524,-1932.64"/>
<text text-anchor="middle" x="6619" y="-1947.44" font-family="Times,serif" font-size="14.00">hla_allele_frequency_file</text>
</g>
<!-- hla_allele_frequency_file&#45;&gt;run_dragen_germline_step -->
<g id="edge21" class="edge">
<title>hla_allele_frequency_file&#45;&gt;run_dragen_germline_step</title>
<path fill="none" stroke="black" d="M6586.57,-1932.42C6566.46,-1922.05 6539.81,-1909.41 6515,-1901.14 5681.98,-1623.56 4625.74,-1476.15 4290.29,-1434"/>
<polygon fill="black" stroke="black" points="4290.46,-1430.5 4280.1,-1432.73 4289.59,-1437.44 4290.46,-1430.5"/>
</g>
<!-- hla_bed_file -->
<g id="node13" class="node">
<title>hla_bed_file</title>
<polygon fill="#94ddf4" stroke="black" points="6406,-1932.64 6406,-1969.64 6506,-1969.64 6506,-1932.64 6406,-1932.64"/>
<text text-anchor="middle" x="6456" y="-1947.44" font-family="Times,serif" font-size="14.00">hla_bed_file</text>
</g>
<!-- hla_bed_file&#45;&gt;run_dragen_germline_step -->
<g id="edge22" class="edge">
<title>hla_bed_file&#45;&gt;run_dragen_germline_step</title>
<path fill="none" stroke="black" d="M6439,-1932.21C6427.99,-1921.63 6412.8,-1908.84 6397,-1901.14 5647.21,-1535.91 4620.47,-1446.4 4290.05,-1426.43"/>
<polygon fill="black" stroke="black" points="4290.19,-1422.94 4280,-1425.83 4289.78,-1429.92 4290.19,-1422.94"/>
</g>
<!-- hla_min_reads -->
<g id="node14" class="node">
<title>hla_min_reads</title>
<polygon fill="#94ddf4" stroke="black" points="6268.5,-1932.64 6268.5,-1969.64 6387.5,-1969.64 6387.5,-1932.64 6268.5,-1932.64"/>
<text text-anchor="middle" x="6328" y="-1947.44" font-family="Times,serif" font-size="14.00">hla_min_reads</text>
</g>
<!-- hla_min_reads&#45;&gt;run_dragen_germline_step -->
<g id="edge23" class="edge">
<title>hla_min_reads&#45;&gt;run_dragen_germline_step</title>
<path fill="none" stroke="black" d="M6307.86,-1932.63C6294.75,-1922.07 6276.82,-1909.15 6259,-1901.14 5549.48,-1582.28 4604.88,-1463.39 4290.11,-1431.09"/>
<polygon fill="black" stroke="black" points="4290.38,-1427.6 4280.08,-1430.07 4289.67,-1434.57 4290.38,-1427.6"/>
</g>
<!-- hla_reference_file -->
<g id="node15" class="node">
<title>hla_reference_file</title>
<polygon fill="#94ddf4" stroke="black" points="6108,-1932.64 6108,-1969.64 6250,-1969.64 6250,-1932.64 6108,-1932.64"/>
<text text-anchor="middle" x="6179" y="-1947.44" font-family="Times,serif" font-size="14.00">hla_reference_file</text>
</g>
<!-- hla_reference_file&#45;&gt;run_dragen_germline_step -->
<g id="edge24" class="edge">
<title>hla_reference_file&#45;&gt;run_dragen_germline_step</title>
<path fill="none" stroke="black" d="M6154.48,-1932.41C6139.16,-1922.04 6118.67,-1909.4 6099,-1901.14 5441.11,-1624.92 4586.91,-1480.62 4290.14,-1436.27"/>
<polygon fill="black" stroke="black" points="4290.65,-1432.81 4280.24,-1434.8 4289.62,-1439.73 4290.65,-1432.81"/>
</g>
<!-- hla_tiebreaker_threshold -->
<g id="node16" class="node">
<title>hla_tiebreaker_threshold</title>
<polygon fill="#94ddf4" stroke="black" points="5896,-1932.64 5896,-1969.64 6090,-1969.64 6090,-1932.64 5896,-1932.64"/>
<text text-anchor="middle" x="5993" y="-1947.44" font-family="Times,serif" font-size="14.00">hla_tiebreaker_threshold</text>
</g>
<!-- hla_tiebreaker_threshold&#45;&gt;run_dragen_germline_step -->
<g id="edge25" class="edge">
<title>hla_tiebreaker_threshold&#45;&gt;run_dragen_germline_step</title>
<path fill="none" stroke="black" d="M5958.73,-1932.62C5938.26,-1922.58 5911.53,-1910.2 5887,-1901.14 5283.48,-1678.25 4527.62,-1498.93 4272.08,-1440.96"/>
<polygon fill="black" stroke="black" points="4272.63,-1437.5 4262.11,-1438.7 4271.09,-1444.33 4272.63,-1437.5"/>
</g>
<!-- hla_zygosity_threshold -->
<g id="node17" class="node">
<title>hla_zygosity_threshold</title>
<polygon fill="#94ddf4" stroke="black" points="5698.5,-1932.64 5698.5,-1969.64 5877.5,-1969.64 5877.5,-1932.64 5698.5,-1932.64"/>
<text text-anchor="middle" x="5788" y="-1947.44" font-family="Times,serif" font-size="14.00">hla_zygosity_threshold</text>
</g>
<!-- hla_zygosity_threshold&#45;&gt;run_dragen_germline_step -->
<g id="edge26" class="edge">
<title>hla_zygosity_threshold&#45;&gt;run_dragen_germline_step</title>
<path fill="none" stroke="black" d="M5755.92,-1932.52C5737.06,-1922.56 5712.56,-1910.31 5690,-1901.14 5156.42,-1684.3 4485.5,-1500.55 4260.52,-1441.25"/>
<polygon fill="black" stroke="black" points="4261.35,-1437.84 4250.79,-1438.68 4259.57,-1444.61 4261.35,-1437.84"/>
</g>
<!-- lic_instance_id_location -->
<g id="node18" class="node">
<title>lic_instance_id_location</title>
<polygon fill="#94ddf4" stroke="black" points="5497.5,-1932.64 5497.5,-1969.64 5680.5,-1969.64 5680.5,-1932.64 5497.5,-1932.64"/>
<text text-anchor="middle" x="5589" y="-1947.44" font-family="Times,serif" font-size="14.00">lic_instance_id_location</text>
</g>
<!-- lic_instance_id_location&#45;&gt;run_dragen_germline_step -->
<g id="edge27" class="edge">
<title>lic_instance_id_location&#45;&gt;run_dragen_germline_step</title>
<path fill="none" stroke="black" d="M5554.8,-1932.5C5535.42,-1922.77 5510.6,-1910.75 5488,-1901.14 5019.08,-1701.74 4436.23,-1504.84 4246.13,-1441.88"/>
<polygon fill="black" stroke="black" points="4247.16,-1438.53 4236.57,-1438.71 4244.96,-1445.18 4247.16,-1438.53"/>
</g>
<!-- output_directory -->
<g id="node19" class="node">
<title>output_directory</title>
<polygon fill="#94ddf4" stroke="black" points="5343,-1932.64 5343,-1969.64 5479,-1969.64 5479,-1932.64 5343,-1932.64"/>
<text text-anchor="middle" x="5411" y="-1947.44" font-family="Times,serif" font-size="14.00">output_directory</text>
</g>
<!-- output_directory&#45;&gt;run_dragen_germline_step -->
<g id="edge28" class="edge">
<title>output_directory&#45;&gt;run_dragen_germline_step</title>
<path fill="none" stroke="black" d="M5385.64,-1932.45C5370.93,-1922.58 5351.84,-1910.45 5334,-1901.14 4931.56,-1691.16 4416.28,-1503.17 4242.93,-1441.99"/>
<polygon fill="black" stroke="black" points="4244.06,-1438.68 4233.46,-1438.66 4241.73,-1445.28 4244.06,-1438.68"/>
</g>
<!-- qc_coverage_ignore_overlaps -->
<g id="node20" class="node">
<title>qc_coverage_ignore_overlaps</title>
<polygon fill="#94ddf4" stroke="black" points="5101,-1932.64 5101,-1969.64 5325,-1969.64 5325,-1932.64 5101,-1932.64"/>
<text text-anchor="middle" x="5213" y="-1947.44" font-family="Times,serif" font-size="14.00">qc_coverage_ignore_overlaps</text>
</g>
<!-- qc_coverage_ignore_overlaps&#45;&gt;run_dragen_germline_step -->
<g id="edge29" class="edge">
<title>qc_coverage_ignore_overlaps&#45;&gt;run_dragen_germline_step</title>
<path fill="none" stroke="black" d="M5178.73,-1932.54C5024.75,-1853.46 4396.94,-1531.02 4226.1,-1443.28"/>
<polygon fill="black" stroke="black" points="4227.63,-1440.13 4217.14,-1438.68 4224.43,-1446.36 4227.63,-1440.13"/>
</g>
<!-- qc_coverage_region_1 -->
<g id="node21" class="node">
<title>qc_coverage_region_1</title>
<polygon fill="#94ddf4" stroke="black" points="4909.5,-1932.64 4909.5,-1969.64 5082.5,-1969.64 5082.5,-1932.64 4909.5,-1932.64"/>
<text text-anchor="middle" x="4996" y="-1947.44" font-family="Times,serif" font-size="14.00">qc_coverage_region_1</text>
</g>
<!-- qc_coverage_region_1&#45;&gt;run_dragen_germline_step -->
<g id="edge30" class="edge">
<title>qc_coverage_region_1&#45;&gt;run_dragen_germline_step</title>
<path fill="none" stroke="black" d="M4968.95,-1932.54C4847.9,-1853.78 4355.86,-1533.62 4218.67,-1444.35"/>
<polygon fill="black" stroke="black" points="4220.44,-1441.33 4210.15,-1438.81 4216.62,-1447.2 4220.44,-1441.33"/>
</g>
<!-- qc_coverage_region_2 -->
<g id="node22" class="node">
<title>qc_coverage_region_2</title>
<polygon fill="#94ddf4" stroke="black" points="4718.5,-1932.64 4718.5,-1969.64 4891.5,-1969.64 4891.5,-1932.64 4718.5,-1932.64"/>
<text text-anchor="middle" x="4805" y="-1947.44" font-family="Times,serif" font-size="14.00">qc_coverage_region_2</text>
</g>
<!-- qc_coverage_region_2&#45;&gt;run_dragen_germline_step -->
<g id="edge31" class="edge">
<title>qc_coverage_region_2&#45;&gt;run_dragen_germline_step</title>
<path fill="none" stroke="black" d="M4784.3,-1932.54C4692.06,-1854.09 4318.25,-1536.17 4211.56,-1445.43"/>
<polygon fill="black" stroke="black" points="4213.66,-1442.62 4203.77,-1438.81 4209.12,-1447.96 4213.66,-1442.62"/>
</g>
<!-- qc_coverage_region_3 -->
<g id="node23" class="node">
<title>qc_coverage_region_3</title>
<polygon fill="#94ddf4" stroke="black" points="4527.5,-1932.64 4527.5,-1969.64 4700.5,-1969.64 4700.5,-1932.64 4527.5,-1932.64"/>
<text text-anchor="middle" x="4614" y="-1947.44" font-family="Times,serif" font-size="14.00">qc_coverage_region_3</text>
</g>
<!-- qc_coverage_region_3&#45;&gt;run_dragen_germline_step -->
<g id="edge32" class="edge">
<title>qc_coverage_region_3&#45;&gt;run_dragen_germline_step</title>
<path fill="none" stroke="black" d="M4599.66,-1932.54C4536.06,-1854.48 4279.31,-1539.35 4203.91,-1446.81"/>
<polygon fill="black" stroke="black" points="4206.42,-1444.35 4197.39,-1438.81 4201,-1448.77 4206.42,-1444.35"/>
</g>
<!-- reference_tar -->
<g id="node24" class="node">
<title>reference_tar</title>
<polygon fill="#94ddf4" stroke="black" points="4396.5,-1932.64 4396.5,-1969.64 4509.5,-1969.64 4509.5,-1932.64 4396.5,-1932.64"/>
<text text-anchor="middle" x="4453" y="-1947.44" font-family="Times,serif" font-size="14.00">reference_tar</text>
</g>
<!-- reference_tar&#45;&gt;run_dragen_germline_step -->
<g id="edge33" class="edge">
<title>reference_tar&#45;&gt;run_dragen_germline_step</title>
<path fill="none" stroke="black" d="M4444.02,-1932.54C4404.34,-1854.8 4244.63,-1541.89 4196.68,-1447.94"/>
<polygon fill="black" stroke="black" points="4199.68,-1446.13 4192.02,-1438.81 4193.45,-1449.31 4199.68,-1446.13"/>
</g>
<!-- sample_sex -->
<g id="node25" class="node">
<title>sample_sex</title>
<polygon fill="#94ddf4" stroke="black" points="4280,-1932.64 4280,-1969.64 4378,-1969.64 4378,-1932.64 4280,-1932.64"/>
<text text-anchor="middle" x="4329" y="-1947.44" font-family="Times,serif" font-size="14.00">sample_sex</text>
</g>
<!-- sample_sex&#45;&gt;run_dragen_germline_step -->
<g id="edge34" class="edge">
<title>sample_sex&#45;&gt;run_dragen_germline_step</title>
<path fill="none" stroke="black" d="M4324.14,-1932.54C4302.73,-1854.96 4216.67,-1543.15 4190.55,-1448.51"/>
<polygon fill="black" stroke="black" points="4193.91,-1447.52 4187.88,-1438.81 4187.16,-1449.38 4193.91,-1447.52"/>
</g>
<!-- sv_call_regions_bed -->
<g id="node26" class="node">
<title>sv_call_regions_bed</title>
<polygon fill="#94ddf4" stroke="black" points="4104.5,-1932.64 4104.5,-1969.64 4261.5,-1969.64 4261.5,-1932.64 4104.5,-1932.64"/>
<text text-anchor="middle" x="4183" y="-1947.44" font-family="Times,serif" font-size="14.00">sv_call_regions_bed</text>
</g>
<!-- sv_call_regions_bed&#45;&gt;run_dragen_germline_step -->
<g id="edge35" class="edge">
<title>sv_call_regions_bed&#45;&gt;run_dragen_germline_step</title>
<path fill="none" stroke="black" d="M4183,-1932.54C4183,-1855.11 4183,-1544.41 4183,-1449.09"/>
<polygon fill="black" stroke="black" points="4186.5,-1448.81 4183,-1438.81 4179.5,-1448.81 4186.5,-1448.81"/>
</g>
<!-- sv_discovery -->
<g id="node27" class="node">
<title>sv_discovery</title>
<polygon fill="#94ddf4" stroke="black" points="3979.5,-1932.64 3979.5,-1969.64 4086.5,-1969.64 4086.5,-1932.64 3979.5,-1932.64"/>
<text text-anchor="middle" x="4033" y="-1947.44" font-family="Times,serif" font-size="14.00">sv_discovery</text>
</g>
<!-- sv_discovery&#45;&gt;run_dragen_germline_step -->
<g id="edge36" class="edge">
<title>sv_discovery&#45;&gt;run_dragen_germline_step</title>
<path fill="none" stroke="black" d="M4037.99,-1932.54C4059.99,-1854.96 4148.4,-1543.15 4175.24,-1448.51"/>
<polygon fill="black" stroke="black" points="4178.63,-1449.39 4177.99,-1438.81 4171.9,-1447.48 4178.63,-1449.39"/>
</g>
<!-- sv_enable_liquid_tumor_mode -->
<g id="node28" class="node">
<title>sv_enable_liquid_tumor_mode</title>
<polygon fill="#94ddf4" stroke="black" points="3731,-1932.64 3731,-1969.64 3961,-1969.64 3961,-1932.64 3731,-1932.64"/>
<text text-anchor="middle" x="3846" y="-1947.44" font-family="Times,serif" font-size="14.00">sv_enable_liquid_tumor_mode</text>
</g>
<!-- sv_enable_liquid_tumor_mode&#45;&gt;run_dragen_germline_step -->
<g id="edge37" class="edge">
<title>sv_enable_liquid_tumor_mode&#45;&gt;run_dragen_germline_step</title>
<path fill="none" stroke="black" d="M3857.21,-1932.54C3906.84,-1854.64 4106.89,-1540.62 4166.29,-1447.37"/>
<polygon fill="black" stroke="black" points="4169.32,-1449.12 4171.75,-1438.81 4163.42,-1445.36 4169.32,-1449.12"/>
</g>
<!-- sv_exome -->
<g id="node29" class="node">
<title>sv_exome</title>
<polygon fill="#94ddf4" stroke="black" points="3627,-1932.64 3627,-1969.64 3713,-1969.64 3713,-1932.64 3627,-1932.64"/>
<text text-anchor="middle" x="3670" y="-1947.44" font-family="Times,serif" font-size="14.00">sv_exome</text>
</g>
<!-- sv_exome&#45;&gt;run_dragen_germline_step -->
<g id="edge38" class="edge">
<title>sv_exome&#45;&gt;run_dragen_germline_step</title>
<path fill="none" stroke="black" d="M3687.07,-1932.54C3762.92,-1854.33 4069.6,-1538.08 4158.65,-1446.26"/>
<polygon fill="black" stroke="black" points="4161.42,-1448.43 4165.87,-1438.81 4156.39,-1443.55 4161.42,-1448.43"/>
</g>
<!-- sv_forcegt_vcf -->
<g id="node30" class="node">
<title>sv_forcegt_vcf</title>
<polygon fill="#94ddf4" stroke="black" points="3491,-1932.64 3491,-1969.64 3609,-1969.64 3609,-1932.64 3491,-1932.64"/>
<text text-anchor="middle" x="3550" y="-1947.44" font-family="Times,serif" font-size="14.00">sv_forcegt_vcf</text>
</g>
<!-- sv_forcegt_vcf&#45;&gt;run_dragen_germline_step -->
<g id="edge39" class="edge">
<title>sv_forcegt_vcf&#45;&gt;run_dragen_germline_step</title>
<path fill="none" stroke="black" d="M3571.06,-1932.54C3664.94,-1854.09 4045.36,-1536.17 4153.94,-1445.43"/>
<polygon fill="black" stroke="black" points="4156.43,-1447.91 4161.86,-1438.81 4151.94,-1442.54 4156.43,-1447.91"/>
</g>
<!-- sv_output_contigs -->
<g id="node31" class="node">
<title>sv_output_contigs</title>
<polygon fill="#94ddf4" stroke="black" points="3327.5,-1932.64 3327.5,-1969.64 3472.5,-1969.64 3472.5,-1932.64 3327.5,-1932.64"/>
<text text-anchor="middle" x="3400" y="-1947.44" font-family="Times,serif" font-size="14.00">sv_output_contigs</text>
</g>
<!-- sv_output_contigs&#45;&gt;run_dragen_germline_step -->
<g id="edge40" class="edge">
<title>sv_output_contigs&#45;&gt;run_dragen_germline_step</title>
<path fill="none" stroke="black" d="M3426.05,-1932.54C3542.52,-1853.86 4015.57,-1534.26 4148.25,-1444.62"/>
<polygon fill="black" stroke="black" points="4150.52,-1447.31 4156.85,-1438.81 4146.6,-1441.51 4150.52,-1447.31"/>
</g>
<!-- sv_region -->
<g id="node32" class="node">
<title>sv_region</title>
<polygon fill="#94ddf4" stroke="black" points="3224.5,-1932.64 3224.5,-1969.64 3309.5,-1969.64 3309.5,-1932.64 3224.5,-1932.64"/>
<text text-anchor="middle" x="3267" y="-1947.44" font-family="Times,serif" font-size="14.00">sv_region</text>
</g>
<!-- sv_region&#45;&gt;run_dragen_germline_step -->
<g id="edge41" class="edge">
<title>sv_region&#45;&gt;run_dragen_germline_step</title>
<path fill="none" stroke="black" d="M3283.85,-1932.21C3293.59,-1922.38 3306.38,-1910.37 3319,-1901.14 3607.45,-1690.21 3998.36,-1504.82 4134.15,-1443"/>
<polygon fill="black" stroke="black" points="4135.82,-1446.08 4143.48,-1438.76 4132.92,-1439.71 4135.82,-1446.08"/>
</g>
<!-- sv_se_overlap_pair_evidence -->
<g id="node33" class="node">
<title>sv_se_overlap_pair_evidence</title>
<polygon fill="#94ddf4" stroke="black" points="2986,-1932.64 2986,-1969.64 3206,-1969.64 3206,-1932.64 2986,-1932.64"/>
<text text-anchor="middle" x="3096" y="-1947.44" font-family="Times,serif" font-size="14.00">sv_se_overlap_pair_evidence</text>
</g>
<!-- sv_se_overlap_pair_evidence&#45;&gt;run_dragen_germline_step -->
<g id="edge42" class="edge">
<title>sv_se_overlap_pair_evidence&#45;&gt;run_dragen_germline_step</title>
<path fill="none" stroke="black" d="M3132.17,-1932.54C3294.75,-1853.42 3957.88,-1530.7 4137.79,-1443.15"/>
<polygon fill="black" stroke="black" points="4139.51,-1446.2 4146.97,-1438.68 4136.45,-1439.9 4139.51,-1446.2"/>
</g>
<!-- sv_tin_contam_tolerance -->
<g id="node34" class="node">
<title>sv_tin_contam_tolerance</title>
<polygon fill="#94ddf4" stroke="black" points="2776.5,-1932.64 2776.5,-1969.64 2967.5,-1969.64 2967.5,-1932.64 2776.5,-1932.64"/>
<text text-anchor="middle" x="2872" y="-1947.44" font-family="Times,serif" font-size="14.00">sv_tin_contam_tolerance</text>
</g>
<!-- sv_tin_contam_tolerance&#45;&gt;run_dragen_germline_step -->
<g id="edge43" class="edge">
<title>sv_tin_contam_tolerance&#45;&gt;run_dragen_germline_step</title>
<path fill="none" stroke="black" d="M2908.21,-1932.61C2928.34,-1923.03 2953.92,-1911.11 2977,-1901.14 3415.06,-1711.94 3953.54,-1507.34 4126.62,-1442.25"/>
<polygon fill="black" stroke="black" points="4127.91,-1445.51 4136.04,-1438.71 4125.45,-1438.95 4127.91,-1445.51"/>
</g>
<!-- vc_decoy_contigs -->
<g id="node35" class="node">
<title>vc_decoy_contigs</title>
<polygon fill="#94ddf4" stroke="black" points="2619.5,-1932.64 2619.5,-1969.64 2758.5,-1969.64 2758.5,-1932.64 2619.5,-1932.64"/>
<text text-anchor="middle" x="2689" y="-1947.44" font-family="Times,serif" font-size="14.00">vc_decoy_contigs</text>
</g>
<!-- vc_decoy_contigs&#45;&gt;run_dragen_germline_step -->
<g id="edge44" class="edge">
<title>vc_decoy_contigs&#45;&gt;run_dragen_germline_step</title>
<path fill="none" stroke="black" d="M2714.14,-1932.49C2729.26,-1922.41 2749.17,-1910.03 2768,-1901.14 3255.76,-1670.86 3884.66,-1498 4103.65,-1441.2"/>
<polygon fill="black" stroke="black" points="4104.65,-1444.56 4113.46,-1438.67 4102.9,-1437.78 4104.65,-1444.56"/>
</g>
<!-- vc_enable_baf -->
<g id="node36" class="node">
<title>vc_enable_baf</title>
<polygon fill="#94ddf4" stroke="black" points="2485,-1932.64 2485,-1969.64 2601,-1969.64 2601,-1932.64 2485,-1932.64"/>
<text text-anchor="middle" x="2543" y="-1947.44" font-family="Times,serif" font-size="14.00">vc_enable_baf</text>
</g>
<!-- vc_enable_baf&#45;&gt;run_dragen_germline_step -->
<g id="edge45" class="edge">
<title>vc_enable_baf&#45;&gt;run_dragen_germline_step</title>
<path fill="none" stroke="black" d="M2563.59,-1932.56C2576.52,-1922.25 2593.92,-1909.61 2611,-1901.14 3131.95,-1642.79 3819.6,-1491.6 4078.48,-1440.66"/>
<polygon fill="black" stroke="black" points="4079.48,-1444.03 4088.62,-1438.68 4078.13,-1437.17 4079.48,-1444.03"/>
</g>
<!-- vc_enable_decoy_contigs -->
<g id="node37" class="node">
<title>vc_enable_decoy_contigs</title>
<polygon fill="#94ddf4" stroke="black" points="2273.5,-1932.64 2273.5,-1969.64 2466.5,-1969.64 2466.5,-1932.64 2273.5,-1932.64"/>
<text text-anchor="middle" x="2370" y="-1947.44" font-family="Times,serif" font-size="14.00">vc_enable_decoy_contigs</text>
</g>
<!-- vc_enable_decoy_contigs&#45;&gt;run_dragen_germline_step -->
<g id="edge46" class="edge">
<title>vc_enable_decoy_contigs&#45;&gt;run_dragen_germline_step</title>
<path fill="none" stroke="black" d="M2404.26,-1932.62C2424.74,-1922.57 2451.46,-1910.2 2476,-1901.14 3080.55,-1678.02 3837.76,-1498.85 4093.76,-1440.94"/>
<polygon fill="black" stroke="black" points="4094.77,-1444.3 4103.75,-1438.68 4093.23,-1437.47 4094.77,-1444.3"/>
</g>
<!-- vc_enable_gatk_acceleration -->
<g id="node38" class="node">
<title>vc_enable_gatk_acceleration</title>
<polygon fill="#94ddf4" stroke="black" points="2037,-1932.64 2037,-1969.64 2255,-1969.64 2255,-1932.64 2037,-1932.64"/>
<text text-anchor="middle" x="2146" y="-1947.44" font-family="Times,serif" font-size="14.00">vc_enable_gatk_acceleration</text>
</g>
<!-- vc_enable_gatk_acceleration&#45;&gt;run_dragen_germline_step -->
<g id="edge47" class="edge">
<title>vc_enable_gatk_acceleration&#45;&gt;run_dragen_germline_step</title>
<path fill="none" stroke="black" d="M2184.59,-1932.58C2207.62,-1922.52 2237.62,-1910.15 2265,-1901.14 2948.14,-1676.34 3797.79,-1497.99 4083.82,-1440.64"/>
<polygon fill="black" stroke="black" points="4084.64,-1444.04 4093.76,-1438.65 4083.26,-1437.18 4084.64,-1444.04"/>
</g>
<!-- vc_enable_phasing -->
<g id="node39" class="node">
<title>vc_enable_phasing</title>
<polygon fill="#94ddf4" stroke="black" points="1869.5,-1932.64 1869.5,-1969.64 2018.5,-1969.64 2018.5,-1932.64 1869.5,-1932.64"/>
<text text-anchor="middle" x="1944" y="-1947.44" font-family="Times,serif" font-size="14.00">vc_enable_phasing</text>
</g>
<!-- vc_enable_phasing&#45;&gt;run_dragen_germline_step -->
<g id="edge48" class="edge">
<title>vc_enable_phasing&#45;&gt;run_dragen_germline_step</title>
<path fill="none" stroke="black" d="M1969.43,-1932.52C1985.57,-1922.05 2007.25,-1909.28 2028,-1901.14 2780.38,-1606.19 3755.17,-1471.5 4075.7,-1433.15"/>
<polygon fill="black" stroke="black" points="4076.39,-1436.59 4085.91,-1431.94 4075.56,-1429.64 4076.39,-1436.59"/>
</g>
<!-- vc_enable_roh -->
<g id="node40" class="node">
<title>vc_enable_roh</title>
<polygon fill="#94ddf4" stroke="black" points="1734.5,-1932.64 1734.5,-1969.64 1851.5,-1969.64 1851.5,-1932.64 1734.5,-1932.64"/>
<text text-anchor="middle" x="1793" y="-1947.44" font-family="Times,serif" font-size="14.00">vc_enable_roh</text>
</g>
<!-- vc_enable_roh&#45;&gt;run_dragen_germline_step -->
<g id="edge49" class="edge">
<title>vc_enable_roh&#45;&gt;run_dragen_germline_step</title>
<path fill="none" stroke="black" d="M1812.74,-1932.47C1825.62,-1921.85 1843.28,-1908.93 1861,-1901.14 2663.12,-1548.57 3736.58,-1450.46 4075.69,-1427.41"/>
<polygon fill="black" stroke="black" points="4076,-1430.89 4085.75,-1426.73 4075.53,-1423.91 4076,-1430.89"/>
</g>
<!-- vc_enable_vcf_output -->
<g id="node41" class="node">
<title>vc_enable_vcf_output</title>
<polygon fill="#94ddf4" stroke="black" points="1548,-1932.64 1548,-1969.64 1716,-1969.64 1716,-1932.64 1548,-1932.64"/>
<text text-anchor="middle" x="1632" y="-1947.44" font-family="Times,serif" font-size="14.00">vc_enable_vcf_output</text>
</g>
<!-- vc_enable_vcf_output&#45;&gt;run_dragen_germline_step -->
<g id="edge50" class="edge">
<title>vc_enable_vcf_output&#45;&gt;run_dragen_germline_step</title>
<path fill="none" stroke="black" d="M1660.66,-1932.44C1678.8,-1921.95 1703.07,-1909.17 1726,-1901.14 2602.66,-1594.26 3727.87,-1465.25 4075.75,-1430.99"/>
<polygon fill="black" stroke="black" points="4076.2,-1434.46 4085.81,-1430 4075.52,-1427.5 4076.2,-1434.46"/>
</g>
<!-- vc_hard_filter -->
<g id="node42" class="node">
<title>vc_hard_filter</title>
<polygon fill="#94ddf4" stroke="black" points="1416.5,-1932.64 1416.5,-1969.64 1529.5,-1969.64 1529.5,-1932.64 1416.5,-1932.64"/>
<text text-anchor="middle" x="1473" y="-1947.44" font-family="Times,serif" font-size="14.00">vc_hard_filter</text>
</g>
<!-- vc_hard_filter&#45;&gt;run_dragen_germline_step -->
<g id="edge51" class="edge">
<title>vc_hard_filter&#45;&gt;run_dragen_germline_step</title>
<path fill="none" stroke="black" d="M1491.73,-1932.55C1504.19,-1921.82 1521.45,-1908.75 1539,-1901.14 2462.39,-1500.79 3707.1,-1434.32 4075.85,-1423.32"/>
<polygon fill="black" stroke="black" points="4076.09,-1426.81 4085.98,-1423.02 4075.88,-1419.82 4076.09,-1426.81"/>
</g>
<!-- vc_max_reads_per_active_region -->
<g id="node43" class="node">
<title>vc_max_reads_per_active_region</title>
<polygon fill="#94ddf4" stroke="black" points="1150,-1932.64 1150,-1969.64 1398,-1969.64 1398,-1932.64 1150,-1932.64"/>
<text text-anchor="middle" x="1274" y="-1947.44" font-family="Times,serif" font-size="14.00">vc_max_reads_per_active_region</text>
</g>
<!-- vc_max_reads_per_active_region&#45;&gt;run_dragen_germline_step -->
<g id="edge52" class="edge">
<title>vc_max_reads_per_active_region&#45;&gt;run_dragen_germline_step</title>
<path fill="none" stroke="black" d="M1315.92,-1932.61C1342.03,-1922.25 1376.53,-1909.55 1408,-1901.14 2428.48,-1628.67 3702.78,-1474.24 4075.82,-1432.67"/>
<polygon fill="black" stroke="black" points="4076.24,-1436.14 4085.79,-1431.56 4075.47,-1429.18 4076.24,-1436.14"/>
</g>
<!-- vc_max_reads_per_raw_region -->
<g id="node44" class="node">
<title>vc_max_reads_per_raw_region</title>
<polygon fill="#94ddf4" stroke="black" points="898.5,-1932.64 898.5,-1969.64 1131.5,-1969.64 1131.5,-1932.64 898.5,-1932.64"/>
<text text-anchor="middle" x="1015" y="-1947.44" font-family="Times,serif" font-size="14.00">vc_max_reads_per_raw_region</text>
</g>
<!-- vc_max_reads_per_raw_region&#45;&gt;run_dragen_germline_step -->
<g id="edge53" class="edge">
<title>vc_max_reads_per_raw_region&#45;&gt;run_dragen_germline_step</title>
<path fill="none" stroke="black" d="M1053.72,-1932.59C1078.28,-1922.09 1110.98,-1909.25 1141,-1901.14 2265.93,-1597.43 3680.14,-1462.96 4075.84,-1429.68"/>
<polygon fill="black" stroke="black" points="4076.17,-1433.17 4085.85,-1428.84 4075.59,-1426.19 4076.17,-1433.17"/>
</g>
<!-- vc_remove_all_soft_clips -->
<g id="node45" class="node">
<title>vc_remove_all_soft_clips</title>
<polygon fill="#94ddf4" stroke="black" points="690,-1932.64 690,-1969.64 880,-1969.64 880,-1932.64 690,-1932.64"/>
<text text-anchor="middle" x="785" y="-1947.44" font-family="Times,serif" font-size="14.00">vc_remove_all_soft_clips</text>
</g>
<!-- vc_remove_all_soft_clips&#45;&gt;run_dragen_germline_step -->
<g id="edge54" class="edge">
<title>vc_remove_all_soft_clips&#45;&gt;run_dragen_germline_step</title>
<path fill="none" stroke="black" d="M816.22,-1932.63C836.62,-1921.93 864.17,-1908.87 890,-1901.14 2105.15,-1537.62 3657.9,-1444.59 4075.57,-1425.46"/>
<polygon fill="black" stroke="black" points="4075.99,-1428.94 4085.82,-1424.99 4075.67,-1421.95 4075.99,-1428.94"/>
</g>
<!-- vc_roh_blacklist_bed -->
<g id="node46" class="node">
<title>vc_roh_blacklist_bed</title>
<polygon fill="#94ddf4" stroke="black" points="508.5,-1932.64 508.5,-1969.64 671.5,-1969.64 671.5,-1932.64 508.5,-1932.64"/>
<text text-anchor="middle" x="590" y="-1947.44" font-family="Times,serif" font-size="14.00">vc_roh_blacklist_bed</text>
</g>
<!-- vc_roh_blacklist_bed&#45;&gt;run_dragen_germline_step -->
<g id="edge55" class="edge">
<title>vc_roh_blacklist_bed&#45;&gt;run_dragen_germline_step</title>
<path fill="none" stroke="black" d="M616.73,-1932.44C634.28,-1921.67 658.14,-1908.59 681,-1901.14 1969.42,-1481.2 3640.8,-1428.59 4075.79,-1422.05"/>
<polygon fill="black" stroke="black" points="4075.89,-1425.55 4085.83,-1421.91 4075.78,-1418.55 4075.89,-1425.55"/>
</g>
<!-- vc_target_bed -->
<g id="node47" class="node">
<title>vc_target_bed</title>
<polygon fill="#94ddf4" stroke="black" points="374,-1932.64 374,-1969.64 490,-1969.64 490,-1932.64 374,-1932.64"/>
<text text-anchor="middle" x="432" y="-1947.44" font-family="Times,serif" font-size="14.00">vc_target_bed</text>
</g>
<!-- vc_target_bed&#45;&gt;run_dragen_germline_step -->
<g id="edge56" class="edge">
<title>vc_target_bed&#45;&gt;run_dragen_germline_step</title>
<path fill="none" stroke="black" d="M450.97,-1932.5C463.82,-1921.61 481.74,-1908.38 500,-1901.14 1179.5,-1632.1 3543.26,-1463.17 4075.85,-1428"/>
<polygon fill="black" stroke="black" points="4076.08,-1431.5 4085.83,-1427.35 4075.62,-1424.51 4076.08,-1431.5"/>
</g>
<!-- vc_target_bed_padding -->
<g id="node48" class="node">
<title>vc_target_bed_padding</title>
<polygon fill="#94ddf4" stroke="black" points="174.5,-1932.64 174.5,-1969.64 355.5,-1969.64 355.5,-1932.64 174.5,-1932.64"/>
<text text-anchor="middle" x="265" y="-1947.44" font-family="Times,serif" font-size="14.00">vc_target_bed_padding</text>
</g>
<!-- vc_target_bed_padding&#45;&gt;run_dragen_germline_step -->
<g id="edge57" class="edge">
<title>vc_target_bed_padding&#45;&gt;run_dragen_germline_step</title>
<path fill="none" stroke="black" d="M294.57,-1932.42C313.94,-1921.64 340.18,-1908.56 365,-1901.14 1787.58,-1476.1 3617.65,-1427.29 4075.55,-1421.81"/>
<polygon fill="black" stroke="black" points="4075.83,-1425.31 4085.79,-1421.69 4075.75,-1418.31 4075.83,-1425.31"/>
</g>
<!-- vc_target_coverage -->
<g id="node49" class="node">
<title>vc_target_coverage</title>
<polygon fill="#94ddf4" stroke="black" points="8301.5,-1932.64 8301.5,-1969.64 8456.5,-1969.64 8456.5,-1932.64 8301.5,-1932.64"/>
<text text-anchor="middle" x="8379" y="-1947.44" font-family="Times,serif" font-size="14.00">vc_target_coverage</text>
</g>
<!-- vc_target_coverage&#45;&gt;run_dragen_germline_step -->
<g id="edge58" class="edge">
<title>vc_target_coverage&#45;&gt;run_dragen_germline_step</title>
<path fill="none" stroke="black" d="M8354.3,-1932.5C8337.75,-1921.61 8315.04,-1908.38 8293,-1901.14 7514.31,-1645.62 4858.92,-1464.29 4290.61,-1427.87"/>
<polygon fill="black" stroke="black" points="4290.58,-1424.36 4280.38,-1427.22 4290.13,-1431.35 4290.58,-1424.36"/>
</g>
<!-- dragen_bam_out -->
<g id="node50" class="node">
<title>dragen_bam_out</title>
<polygon fill="#94ddf4" stroke="black" points="3793,-381.64 3793,-418.64 3927,-418.64 3927,-381.64 3793,-381.64"/>
<text text-anchor="middle" x="3860" y="-396.44" font-family="Times,serif" font-size="14.00">dragen_bam_out</text>
</g>
<!-- dragen_germline_output_directory -->
<g id="node51" class="node">
<title>dragen_germline_output_directory</title>
<polygon fill="#94ddf4" stroke="black" points="3945.5,-381.64 3945.5,-418.64 4208.5,-418.64 4208.5,-381.64 3945.5,-381.64"/>
<text text-anchor="middle" x="4077" y="-396.44" font-family="Times,serif" font-size="14.00">dragen_germline_output_directory</text>
</g>
<!-- dragen_vcf_out -->
<g id="node52" class="node">
<title>dragen_vcf_out</title>
<polygon fill="#94ddf4" stroke="black" points="4226.5,-381.64 4226.5,-418.64 4351.5,-418.64 4351.5,-381.64 4226.5,-381.64"/>
<text text-anchor="middle" x="4289" y="-396.44" font-family="Times,serif" font-size="14.00">dragen_vcf_out</text>
</g>
<!-- multiqc_output_directory -->
<g id="node53" class="node">
<title>multiqc_output_directory</title>
<polygon fill="#94ddf4" stroke="black" points="3577.5,-381.64 3577.5,-418.64 3774.5,-418.64 3774.5,-381.64 3577.5,-381.64"/>
<text text-anchor="middle" x="3676" y="-396.44" font-family="Times,serif" font-size="14.00">multiqc_output_directory</text>
</g>
<!-- create_dummy_file_step -->
<g id="node54" class="node">
<title>create_dummy_file_step</title>
<polygon fill="lightgoldenrodyellow" stroke="black" points="132.5,-1401.64 132.5,-1438.64 393.5,-1438.64 393.5,-1401.64 132.5,-1401.64"/>
<text text-anchor="middle" x="263" y="-1416.44" font-family="Times,serif" font-size="14.00">custom&#45;create&#45;dummy&#45;file v(1.0.0)</text>
</g>
<!-- create_dummy_file_step&#45;&gt;dragen_qc_step -->
<g id="edge1" class="edge">
<title>create_dummy_file_step&#45;&gt;dragen_qc_step</title>
<path fill="none" stroke="black" d="M256.8,-1401.36C230.44,-1325.69 127.48,-1030.18 95.52,-938.45"/>
<polygon fill="black" stroke="black" points="98.74,-937.07 92.15,-928.78 92.13,-939.38 98.74,-937.07"/>
</g>
<!-- dragen_qc_step&#45;&gt;multiqc_output_directory -->
<g id="edge2" class="edge">
<title>dragen_qc_step&#45;&gt;multiqc_output_directory</title>
<path fill="none" stroke="black" d="M155.7,-899.28C598.87,-836.57 3022.45,-493.62 3567.24,-416.53"/>
<polygon fill="black" stroke="black" points="3568.04,-419.96 3577.45,-415.09 3567.06,-413.02 3568.04,-419.96"/>
</g>
<!-- run_dragen_germline_step&#45;&gt;dragen_bam_out -->
<g id="edge4" class="edge">
<title>run_dragen_germline_step&#45;&gt;dragen_bam_out</title>
<path fill="none" stroke="black" d="M4177.39,-1401.47C4139.07,-1280.68 3915.8,-576.99 3868.71,-428.61"/>
<polygon fill="black" stroke="black" points="3871.99,-427.37 3865.63,-418.9 3865.32,-429.49 3871.99,-427.37"/>
</g>
<!-- run_dragen_germline_step&#45;&gt;dragen_germline_output_directory -->
<g id="edge5" class="edge">
<title>run_dragen_germline_step&#45;&gt;dragen_germline_output_directory</title>
<path fill="none" stroke="black" d="M4181.16,-1401.47C4168.59,-1280.8 4095.46,-578.4 4079.91,-429.06"/>
<polygon fill="black" stroke="black" points="4083.37,-428.48 4078.85,-418.9 4076.4,-429.21 4083.37,-428.48"/>
</g>
<!-- run_dragen_germline_step&#45;&gt;dragen_vcf_out -->
<g id="edge6" class="edge">
<title>run_dragen_germline_step&#45;&gt;dragen_vcf_out</title>
<path fill="none" stroke="black" d="M4184.84,-1401.47C4197.41,-1280.8 4270.54,-578.4 4286.09,-429.06"/>
<polygon fill="black" stroke="black" points="4289.6,-429.21 4287.15,-418.9 4282.63,-428.48 4289.6,-429.21"/>
</g>
<!-- run_dragen_germline_step&#45;&gt;dragen_qc_step -->
<g id="edge3" class="edge">
<title>run_dragen_germline_step&#45;&gt;dragen_qc_step</title>
<path fill="none" stroke="black" d="M4085.77,-1407.09C3522.08,-1337.19 681.06,-984.93 166.11,-921.08"/>
<polygon fill="black" stroke="black" points="166.16,-917.56 155.8,-919.8 165.3,-924.5 166.16,-917.56"/>
</g>
<!-- \n -->
<g id="node57" class="node">
<title>\n</title>
<ellipse fill="none" stroke="black" cx="8502" cy="-1951.14" rx="27" ry="18"/>
</g>
</g>
</svg>
