<?xml version="1.0" encoding="UTF-8" standalone="no"?>
<!DOCTYPE svg PUBLIC "-//W3C//DTD SVG 1.1//EN"
 "http://www.w3.org/Graphics/SVG/1.1/DTD/svg11.dtd">
<!-- Generated by graphviz version 2.43.0 (0)
 -->
<!-- Title: G Pages: 1 -->
<svg width="2562pt" height="930pt"
 viewBox="0.00 0.00 2562.00 929.99" xmlns="http://www.w3.org/2000/svg" xmlns:xlink="http://www.w3.org/1999/xlink">
<g id="graph0" class="graph" transform="scale(1 1) rotate(0) translate(4 925.99)">
<title>G</title>
<polygon fill="#eeeeee" stroke="transparent" points="-4,4 -4,-925.99 2558,-925.99 2558,4 -4,4"/>
<g id="clust1" class="cluster">
<title>cluster_inputs</title>
<polygon fill="#eeeeee" stroke="black" stroke-dasharray="5,2" points="8,-675.55 8,-898.8 2490,-898.8 2490,-675.55 8,-675.55"/>
<text text-anchor="middle" x="2423.5" y="-683.35" font-family="Times,serif" font-size="14.00">Workflow Inputs</text>
</g>
<g id="clust2" class="cluster">
<title>cluster_outputs</title>
<polygon fill="#eeeeee" stroke="black" stroke-dasharray="5,2" points="1608,-23.19 1608,-246.44 2153,-246.44 2153,-23.19 1608,-23.19"/>
<text text-anchor="middle" x="2080.5" y="-30.99" font-family="Times,serif" font-size="14.00">Workflow Outputs</text>
</g>
<!-- annotation_file -->
<g id="node1" class="node">
<title>annotation_file</title>
<polygon fill="#94ddf4" stroke="black" points="1996,-801.69 1996,-838.69 2118,-838.69 2118,-801.69 1996,-801.69"/>
<text text-anchor="middle" x="2057" y="-816.49" font-family="Times,serif" font-size="14.00">annotation_file</text>
</g>
<!-- run_dragen_transcriptome_step -->
<g id="node19" class="node">
<title>run_dragen_transcriptome_step</title>
<polygon fill="lightgoldenrodyellow" stroke="black" points="1278,-578.69 1278,-615.69 1510,-615.69 1510,-578.69 1278,-578.69"/>
<text text-anchor="middle" x="1394" y="-593.49" font-family="Times,serif" font-size="14.00">dragen&#45;transcriptome v(4.2.4)</text>
</g>
<!-- annotation_file&#45;&gt;run_dragen_transcriptome_step -->
<g id="edge4" class="edge">
<title>annotation_file&#45;&gt;run_dragen_transcriptome_step</title>
<path fill="none" stroke="black" d="M2035.77,-801.56C2022.45,-791.22 2004.53,-778.59 1987,-770.19 1824.9,-692.59 1620.77,-642.86 1499.19,-617.78"/>
<polygon fill="black" stroke="black" points="1499.64,-614.3 1489.14,-615.72 1498.24,-621.16 1499.64,-614.3"/>
</g>
<!-- run_qualimap_step -->
<g id="node20" class="node">
<title>run_qualimap_step</title>
<polygon fill="lightgoldenrodyellow" stroke="black" points="2059,-364.69 2059,-401.69 2201,-401.69 2201,-364.69 2059,-364.69"/>
<text text-anchor="middle" x="2130" y="-379.49" font-family="Times,serif" font-size="14.00">qualimap v(2.2.2)</text>
</g>
<!-- annotation_file&#45;&gt;run_qualimap_step -->
<g id="edge5" class="edge">
<title>annotation_file&#45;&gt;run_qualimap_step</title>
<path fill="none" stroke="black" d="M2059.95,-801.6C2071.21,-734.52 2111.51,-494.4 2125.32,-412.11"/>
<polygon fill="black" stroke="black" points="2128.81,-412.45 2127.01,-402 2121.9,-411.29 2128.81,-412.45"/>
</g>
<!-- bam_input -->
<g id="node2" class="node">
<title>bam_input</title>
<polygon fill="#94ddf4" stroke="black" points="818,-801.69 818,-838.69 910,-838.69 910,-801.69 818,-801.69"/>
<text text-anchor="middle" x="864" y="-816.49" font-family="Times,serif" font-size="14.00">bam_input</text>
</g>
<!-- bam_input&#45;&gt;run_dragen_transcriptome_step -->
<g id="edge6" class="edge">
<title>bam_input&#45;&gt;run_dragen_transcriptome_step</title>
<path fill="none" stroke="black" d="M880.48,-801.46C890.76,-791.21 904.72,-778.71 919,-770.19 1045.73,-694.64 1211.01,-644.11 1309.46,-618.35"/>
<polygon fill="black" stroke="black" points="1310.56,-621.68 1319.36,-615.78 1308.8,-614.9 1310.56,-621.68"/>
</g>
<!-- enable_duplicate_marking -->
<g id="node3" class="node">
<title>enable_duplicate_marking</title>
<polygon fill="#94ddf4" stroke="black" points="596.5,-801.69 596.5,-838.69 799.5,-838.69 799.5,-801.69 596.5,-801.69"/>
<text text-anchor="middle" x="698" y="-816.49" font-family="Times,serif" font-size="14.00">enable_duplicate_marking</text>
</g>
<!-- enable_duplicate_marking&#45;&gt;run_dragen_transcriptome_step -->
<g id="edge7" class="edge">
<title>enable_duplicate_marking&#45;&gt;run_dragen_transcriptome_step</title>
<path fill="none" stroke="black" d="M734.51,-801.64C755.93,-791.71 783.68,-779.46 809,-770.19 986.08,-705.39 1199.95,-647.5 1313.69,-618.27"/>
<polygon fill="black" stroke="black" points="1314.89,-621.57 1323.71,-615.7 1313.15,-614.79 1314.89,-621.57"/>
</g>
<!-- enable_map_align -->
<g id="node4" class="node">
<title>enable_map_align</title>
<polygon fill="#94ddf4" stroke="black" points="435.5,-801.69 435.5,-838.69 578.5,-838.69 578.5,-801.69 435.5,-801.69"/>
<text text-anchor="middle" x="507" y="-816.49" font-family="Times,serif" font-size="14.00">enable_map_align</text>
</g>
<!-- enable_map_align&#45;&gt;run_dragen_transcriptome_step -->
<g id="edge8" class="edge">
<title>enable_map_align&#45;&gt;run_dragen_transcriptome_step</title>
<path fill="none" stroke="black" d="M531.41,-801.47C546.92,-790.96 567.83,-778.18 588,-770.19 818.3,-678.97 1105.73,-632.47 1267.69,-611.92"/>
<polygon fill="black" stroke="black" points="1268.21,-615.38 1277.7,-610.66 1267.34,-608.44 1268.21,-615.38"/>
</g>
<!-- enable_map_align_output -->
<g id="node5" class="node">
<title>enable_map_align_output</title>
<polygon fill="#94ddf4" stroke="black" points="220.5,-801.69 220.5,-838.69 417.5,-838.69 417.5,-801.69 220.5,-801.69"/>
<text text-anchor="middle" x="319" y="-816.49" font-family="Times,serif" font-size="14.00">enable_map_align_output</text>
</g>
<!-- enable_map_align_output&#45;&gt;run_dragen_transcriptome_step -->
<g id="edge9" class="edge">
<title>enable_map_align_output&#45;&gt;run_dragen_transcriptome_step</title>
<path fill="none" stroke="black" d="M352.2,-801.51C373.14,-791.03 401.04,-778.25 427,-770.19 720.83,-678.99 1080.83,-630.91 1267.77,-610.47"/>
<polygon fill="black" stroke="black" points="1268.35,-613.92 1277.91,-609.37 1267.59,-606.97 1268.35,-613.92"/>
</g>
<!-- enable_rna_gene_fusion -->
<g id="node6" class="node">
<title>enable_rna_gene_fusion</title>
<polygon fill="#94ddf4" stroke="black" points="16,-801.69 16,-838.69 202,-838.69 202,-801.69 16,-801.69"/>
<text text-anchor="middle" x="109" y="-816.49" font-family="Times,serif" font-size="14.00">enable_rna_gene_fusion</text>
</g>
<!-- enable_rna_gene_fusion&#45;&gt;run_dragen_transcriptome_step -->
<g id="edge10" class="edge">
<title>enable_rna_gene_fusion&#45;&gt;run_dragen_transcriptome_step</title>
<path fill="none" stroke="black" d="M139.58,-801.66C159.58,-790.96 186.61,-777.89 212,-770.19 585.37,-657.04 1048.35,-617.3 1267.57,-604.19"/>
<polygon fill="black" stroke="black" points="1268.05,-607.67 1277.82,-603.59 1267.63,-600.68 1268.05,-607.67"/>
</g>
<!-- enable_rna_quantification -->
<g id="node7" class="node">
<title>enable_rna_quantification</title>
<polygon fill="#94ddf4" stroke="black" points="1778,-801.69 1778,-838.69 1978,-838.69 1978,-801.69 1778,-801.69"/>
<text text-anchor="middle" x="1878" y="-816.49" font-family="Times,serif" font-size="14.00">enable_rna_quantification</text>
</g>
<!-- enable_rna_quantification&#45;&gt;run_dragen_transcriptome_step -->
<g id="edge11" class="edge">
<title>enable_rna_quantification&#45;&gt;run_dragen_transcriptome_step</title>
<path fill="none" stroke="black" d="M1839.62,-801.67C1751.98,-761.65 1537.38,-663.66 1441.56,-619.91"/>
<polygon fill="black" stroke="black" points="1442.94,-616.69 1432.39,-615.72 1440.03,-623.06 1442.94,-616.69"/>
</g>
<!-- enable_sort -->
<g id="node8" class="node">
<title>enable_sort</title>
<polygon fill="#94ddf4" stroke="black" points="1660.5,-801.69 1660.5,-838.69 1759.5,-838.69 1759.5,-801.69 1660.5,-801.69"/>
<text text-anchor="middle" x="1710" y="-816.49" font-family="Times,serif" font-size="14.00">enable_sort</text>
</g>
<!-- enable_sort&#45;&gt;run_dragen_transcriptome_step -->
<g id="edge12" class="edge">
<title>enable_sort&#45;&gt;run_dragen_transcriptome_step</title>
<path fill="none" stroke="black" d="M1689.94,-801.66C1678.71,-792.07 1664.34,-780.15 1651,-770.19 1575.11,-713.53 1481.78,-653.28 1431.07,-621.3"/>
<polygon fill="black" stroke="black" points="1432.74,-618.22 1422.41,-615.85 1429.01,-624.14 1432.74,-618.22"/>
</g>
<!-- fastq_list -->
<g id="node9" class="node">
<title>fastq_list</title>
<polygon fill="#94ddf4" stroke="black" points="1560,-801.69 1560,-838.69 1642,-838.69 1642,-801.69 1560,-801.69"/>
<text text-anchor="middle" x="1601" y="-816.49" font-family="Times,serif" font-size="14.00">fastq_list</text>
</g>
<!-- fastq_list&#45;&gt;run_dragen_transcriptome_step -->
<g id="edge13" class="edge">
<title>fastq_list&#45;&gt;run_dragen_transcriptome_step</title>
<path fill="none" stroke="black" d="M1584.41,-801.48C1547.77,-762.37 1459.85,-668.5 1417.54,-623.32"/>
<polygon fill="black" stroke="black" points="1420.06,-620.9 1410.67,-615.99 1414.95,-625.68 1420.06,-620.9"/>
</g>
<!-- fastq_list_rows -->
<g id="node10" class="node">
<title>fastq_list_rows</title>
<polygon fill="#94ddf4" stroke="black" points="1418.5,-801.69 1418.5,-838.69 1541.5,-838.69 1541.5,-801.69 1418.5,-801.69"/>
<text text-anchor="middle" x="1480" y="-816.49" font-family="Times,serif" font-size="14.00">fastq_list_rows</text>
</g>
<!-- fastq_list_rows&#45;&gt;run_dragen_transcriptome_step -->
<g id="edge14" class="edge">
<title>fastq_list_rows&#45;&gt;run_dragen_transcriptome_step</title>
<path fill="none" stroke="black" d="M1473.11,-801.48C1458.11,-762.93 1422.41,-671.2 1404.55,-625.31"/>
<polygon fill="black" stroke="black" points="1407.81,-624.04 1400.93,-615.99 1401.29,-626.58 1407.81,-624.04"/>
</g>
<!-- lic_instance_id_location -->
<g id="node11" class="node">
<title>lic_instance_id_location</title>
<polygon fill="#94ddf4" stroke="black" points="1217.5,-801.69 1217.5,-838.69 1400.5,-838.69 1400.5,-801.69 1217.5,-801.69"/>
<text text-anchor="middle" x="1309" y="-816.49" font-family="Times,serif" font-size="14.00">lic_instance_id_location</text>
</g>
<!-- lic_instance_id_location&#45;&gt;run_dragen_transcriptome_step -->
<g id="edge15" class="edge">
<title>lic_instance_id_location&#45;&gt;run_dragen_transcriptome_step</title>
<path fill="none" stroke="black" d="M1315.81,-801.48C1330.61,-763.01 1365.77,-671.59 1383.46,-625.6"/>
<polygon fill="black" stroke="black" points="1386.83,-626.58 1387.16,-615.99 1380.3,-624.07 1386.83,-626.58"/>
</g>
<!-- output_directory -->
<g id="node12" class="node">
<title>output_directory</title>
<polygon fill="#94ddf4" stroke="black" points="2136,-801.69 2136,-838.69 2272,-838.69 2272,-801.69 2136,-801.69"/>
<text text-anchor="middle" x="2204" y="-816.49" font-family="Times,serif" font-size="14.00">output_directory</text>
</g>
<!-- output_directory&#45;&gt;run_dragen_transcriptome_step -->
<g id="edge16" class="edge">
<title>output_directory&#45;&gt;run_dragen_transcriptome_step</title>
<path fill="none" stroke="black" d="M2180.87,-801.56C2166.15,-791.09 2146.28,-778.31 2127,-770.19 1923.57,-684.52 1669.57,-637.03 1520.24,-614.63"/>
<polygon fill="black" stroke="black" points="1520.52,-611.13 1510.11,-613.13 1519.49,-618.06 1520.52,-611.13"/>
</g>
<!-- output_directory&#45;&gt;run_qualimap_step -->
<g id="edge17" class="edge">
<title>output_directory&#45;&gt;run_qualimap_step</title>
<path fill="none" stroke="black" d="M2201.01,-801.6C2189.6,-734.52 2148.75,-494.4 2134.75,-412.11"/>
<polygon fill="black" stroke="black" points="2138.16,-411.28 2133.03,-402 2131.26,-412.45 2138.16,-411.28"/>
</g>
<!-- output_file_prefix -->
<g id="node13" class="node">
<title>output_file_prefix</title>
<polygon fill="#94ddf4" stroke="black" points="928,-801.69 928,-838.69 1068,-838.69 1068,-801.69 928,-801.69"/>
<text text-anchor="middle" x="998" y="-816.49" font-family="Times,serif" font-size="14.00">output_file_prefix</text>
</g>
<!-- output_file_prefix&#45;&gt;run_dragen_transcriptome_step -->
<g id="edge18" class="edge">
<title>output_file_prefix&#45;&gt;run_dragen_transcriptome_step</title>
<path fill="none" stroke="black" d="M1025.93,-801.61C1041.2,-792.11 1060.51,-780.3 1078,-770.19 1174.71,-714.31 1290.5,-652.57 1351.52,-620.43"/>
<polygon fill="black" stroke="black" points="1353.26,-623.47 1360.48,-615.72 1350,-617.28 1353.26,-623.47"/>
</g>
<!-- reference_tar -->
<g id="node14" class="node">
<title>reference_tar</title>
<polygon fill="#94ddf4" stroke="black" points="1086.5,-801.69 1086.5,-838.69 1199.5,-838.69 1199.5,-801.69 1086.5,-801.69"/>
<text text-anchor="middle" x="1143" y="-816.49" font-family="Times,serif" font-size="14.00">reference_tar</text>
</g>
<!-- reference_tar&#45;&gt;run_dragen_transcriptome_step -->
<g id="edge19" class="edge">
<title>reference_tar&#45;&gt;run_dragen_transcriptome_step</title>
<path fill="none" stroke="black" d="M1163.12,-801.48C1207.73,-762.2 1315.04,-667.72 1366.09,-622.76"/>
<polygon fill="black" stroke="black" points="1368.6,-625.23 1373.79,-615.99 1363.97,-619.97 1368.6,-625.23"/>
</g>
<!-- algorithm -->
<g id="node15" class="node">
<title>algorithm</title>
<polygon fill="#94ddf4" stroke="black" points="2290,-801.69 2290,-838.69 2376,-838.69 2376,-801.69 2290,-801.69"/>
<text text-anchor="middle" x="2333" y="-816.49" font-family="Times,serif" font-size="14.00">algorithm</text>
</g>
<!-- algorithm&#45;&gt;run_qualimap_step -->
<g id="edge20" class="edge">
<title>algorithm&#45;&gt;run_qualimap_step</title>
<path fill="none" stroke="black" d="M2324.79,-801.6C2293.36,-734.25 2180.51,-492.44 2142.56,-411.11"/>
<polygon fill="black" stroke="black" points="2145.71,-409.59 2138.31,-402 2139.37,-412.55 2145.71,-409.59"/>
</g>
<!-- java_mem -->
<g id="node16" class="node">
<title>java_mem</title>
<polygon fill="#94ddf4" stroke="black" points="2394,-801.69 2394,-838.69 2482,-838.69 2482,-801.69 2394,-801.69"/>
<text text-anchor="middle" x="2438" y="-816.49" font-family="Times,serif" font-size="14.00">java_mem</text>
</g>
<!-- java_mem&#45;&gt;run_qualimap_step -->
<g id="edge21" class="edge">
<title>java_mem&#45;&gt;run_qualimap_step</title>
<path fill="none" stroke="black" d="M2425.54,-801.6C2377.75,-734.11 2205.95,-491.46 2148.7,-410.61"/>
<polygon fill="black" stroke="black" points="2151.25,-408.14 2142.61,-402 2145.53,-412.19 2151.25,-408.14"/>
</g>
<!-- dragen_transcriptome_output_directory -->
<g id="node17" class="node">
<title>dragen_transcriptome_output_directory</title>
<polygon fill="#94ddf4" stroke="black" points="1616.5,-149.69 1616.5,-186.69 1917.5,-186.69 1917.5,-149.69 1616.5,-149.69"/>
<text text-anchor="middle" x="1767" y="-164.49" font-family="Times,serif" font-size="14.00">dragen_transcriptome_output_directory</text>
</g>
<!-- qualimap_output_directory -->
<g id="node18" class="node">
<title>qualimap_output_directory</title>
<polygon fill="#94ddf4" stroke="black" points="1935.5,-149.69 1935.5,-186.69 2144.5,-186.69 2144.5,-149.69 1935.5,-149.69"/>
<text text-anchor="middle" x="2040" y="-164.49" font-family="Times,serif" font-size="14.00">qualimap_output_directory</text>
</g>
<!-- run_dragen_transcriptome_step&#45;&gt;dragen_transcriptome_output_directory -->
<g id="edge2" class="edge">
<title>run_dragen_transcriptome_step&#45;&gt;dragen_transcriptome_output_directory</title>
<path fill="none" stroke="black" d="M1409.32,-578.66C1467.63,-511.9 1675.95,-273.42 1744.76,-194.65"/>
<polygon fill="black" stroke="black" points="1747.41,-196.95 1751.35,-187.11 1742.13,-192.34 1747.41,-196.95"/>
</g>
<!-- run_dragen_transcriptome_step&#45;&gt;run_qualimap_step -->
<g id="edge1" class="edge">
<title>run_dragen_transcriptome_step&#45;&gt;run_qualimap_step</title>
<path fill="none" stroke="black" d="M1454.86,-578.67C1590.2,-539.68 1915.5,-445.98 2059.44,-404.52"/>
<polygon fill="black" stroke="black" points="2060.43,-407.88 2069.07,-401.74 2058.49,-401.15 2060.43,-407.88"/>
</g>
<!-- run_qualimap_step&#45;&gt;qualimap_output_directory -->
<g id="edge3" class="edge">
<title>run_qualimap_step&#45;&gt;qualimap_output_directory</title>
<path fill="none" stroke="black" d="M2122.48,-364.4C2106.69,-327.03 2070.01,-240.21 2051.34,-196.04"/>
<polygon fill="black" stroke="black" points="2054.55,-194.64 2047.43,-186.79 2048.1,-197.36 2054.55,-194.64"/>
</g>
<!-- \n -->
<g id="node21" class="node">
<title>\n</title>
<ellipse fill="none" stroke="black" cx="2527" cy="-820.19" rx="27" ry="18"/>
</g>
</g>
</svg>
