<?xml version="1.0" encoding="UTF-8" standalone="no"?>
<!DOCTYPE svg PUBLIC "-//W3C//DTD SVG 1.1//EN"
 "http://www.w3.org/Graphics/SVG/1.1/DTD/svg11.dtd">
<!-- Generated by graphviz version 2.43.0 (0)
 -->
<!-- Title: G Pages: 1 -->
<svg width="2652pt" height="941pt"
 viewBox="0.00 0.00 2652.00 941.33" xmlns="http://www.w3.org/2000/svg" xmlns:xlink="http://www.w3.org/1999/xlink">
<g id="graph0" class="graph" transform="scale(1 1) rotate(0) translate(4 937.33)">
<title>G</title>
<polygon fill="#eeeeee" stroke="transparent" points="-4,4 -4,-937.33 2648,-937.33 2648,4 -4,4"/>
<g id="clust1" class="cluster">
<title>cluster_inputs</title>
<polygon fill="#eeeeee" stroke="black" stroke-dasharray="5,2" points="8,-683.86 8,-909.85 2580,-909.85 2580,-683.86 8,-683.86"/>
<text text-anchor="middle" x="2513.5" y="-691.66" font-family="Times,serif" font-size="14.00">Workflow Inputs</text>
</g>
<g id="clust2" class="cluster">
<title>cluster_outputs</title>
<polygon fill="#eeeeee" stroke="black" stroke-dasharray="5,2" points="1611,-23.48 1611,-249.48 2156,-249.48 2156,-23.48 1611,-23.48"/>
<text text-anchor="middle" x="2083.5" y="-31.28" font-family="Times,serif" font-size="14.00">Workflow Outputs</text>
</g>
<!-- annotation_file -->
<g id="node1" class="node">
<title>annotation_file</title>
<polygon fill="#94ddf4" stroke="black" points="1996,-811.98 1996,-848.98 2118,-848.98 2118,-811.98 1996,-811.98"/>
<text text-anchor="middle" x="2057" y="-826.78" font-family="Times,serif" font-size="14.00">annotation_file</text>
</g>
<!-- run_dragen_transcriptome_step -->
<g id="node20" class="node">
<title>run_dragen_transcriptome_step</title>
<polygon fill="lightgoldenrodyellow" stroke="black" points="1065,-585.98 1065,-622.98 1297,-622.98 1297,-585.98 1065,-585.98"/>
<text text-anchor="middle" x="1181" y="-600.78" font-family="Times,serif" font-size="14.00">dragen&#45;transcriptome v(4.2.4)</text>
</g>
<!-- annotation_file&#45;&gt;run_dragen_transcriptome_step -->
<g id="edge4" class="edge">
<title>annotation_file&#45;&gt;run_dragen_transcriptome_step</title>
<path fill="none" stroke="black" d="M2036.57,-811.89C2023.26,-801.3 2005.08,-788.39 1987,-780.48 1759.39,-680.94 1470.1,-635.94 1307.27,-617.28"/>
<polygon fill="black" stroke="black" points="1307.54,-613.79 1297.21,-616.14 1306.76,-620.74 1307.54,-613.79"/>
</g>
<!-- run_qualimap_step -->
<g id="node21" class="node">
<title>run_qualimap_step</title>
<polygon fill="lightgoldenrodyellow" stroke="black" points="2133,-368.98 2133,-405.98 2275,-405.98 2275,-368.98 2133,-368.98"/>
<text text-anchor="middle" x="2204" y="-383.78" font-family="Times,serif" font-size="14.00">qualimap v(2.2.2)</text>
</g>
<!-- annotation_file&#45;&gt;run_qualimap_step -->
<g id="edge5" class="edge">
<title>annotation_file&#45;&gt;run_qualimap_step</title>
<path fill="none" stroke="black" d="M2062.85,-811.92C2085.49,-744.02 2167.38,-498.33 2194.91,-415.76"/>
<polygon fill="black" stroke="black" points="2198.29,-416.68 2198.13,-406.09 2191.65,-414.47 2198.29,-416.68"/>
</g>
<!-- bam_input -->
<g id="node2" class="node">
<title>bam_input</title>
<polygon fill="#94ddf4" stroke="black" points="16,-811.98 16,-848.98 108,-848.98 108,-811.98 16,-811.98"/>
<text text-anchor="middle" x="62" y="-826.78" font-family="Times,serif" font-size="14.00">bam_input</text>
</g>
<!-- bam_input&#45;&gt;run_dragen_transcriptome_step -->
<g id="edge6" class="edge">
<title>bam_input&#45;&gt;run_dragen_transcriptome_step</title>
<path fill="none" stroke="black" d="M77.03,-811.73C87.19,-800.94 101.54,-787.86 117,-780.48 281.34,-702.03 810.42,-641.75 1054.93,-617.33"/>
<polygon fill="black" stroke="black" points="1055.33,-620.8 1064.93,-616.33 1054.64,-613.84 1055.33,-620.8"/>
</g>
<!-- enable_duplicate_marking -->
<g id="node3" class="node">
<title>enable_duplicate_marking</title>
<polygon fill="#94ddf4" stroke="black" points="1774.5,-811.98 1774.5,-848.98 1977.5,-848.98 1977.5,-811.98 1774.5,-811.98"/>
<text text-anchor="middle" x="1876" y="-826.78" font-family="Times,serif" font-size="14.00">enable_duplicate_marking</text>
</g>
<!-- enable_duplicate_marking&#45;&gt;run_dragen_transcriptome_step -->
<g id="edge7" class="edge">
<title>enable_duplicate_marking&#45;&gt;run_dragen_transcriptome_step</title>
<path fill="none" stroke="black" d="M1839.82,-811.95C1818.59,-802.03 1791.09,-789.78 1766,-780.48 1588.21,-714.6 1373.31,-655.36 1259.92,-625.63"/>
<polygon fill="black" stroke="black" points="1260.5,-622.16 1249.94,-623.02 1258.73,-628.94 1260.5,-622.16"/>
</g>
<!-- enable_map_align -->
<g id="node4" class="node">
<title>enable_map_align</title>
<polygon fill="#94ddf4" stroke="black" points="1613.5,-811.98 1613.5,-848.98 1756.5,-848.98 1756.5,-811.98 1613.5,-811.98"/>
<text text-anchor="middle" x="1685" y="-826.78" font-family="Times,serif" font-size="14.00">enable_map_align</text>
</g>
<!-- enable_map_align&#45;&gt;run_dragen_transcriptome_step -->
<g id="edge8" class="edge">
<title>enable_map_align&#45;&gt;run_dragen_transcriptome_step</title>
<path fill="none" stroke="black" d="M1658.58,-811.84C1643.27,-801.99 1623.44,-789.86 1605,-780.48 1478.69,-716.24 1323.1,-656.75 1239.98,-626.45"/>
<polygon fill="black" stroke="black" points="1241.04,-623.11 1230.45,-622.98 1238.65,-629.69 1241.04,-623.11"/>
</g>
<!-- enable_map_align_output -->
<g id="node5" class="node">
<title>enable_map_align_output</title>
<polygon fill="#94ddf4" stroke="black" points="1398.5,-811.98 1398.5,-848.98 1595.5,-848.98 1595.5,-811.98 1398.5,-811.98"/>
<text text-anchor="middle" x="1497" y="-826.78" font-family="Times,serif" font-size="14.00">enable_map_align_output</text>
</g>
<!-- enable_map_align_output&#45;&gt;run_dragen_transcriptome_step -->
<g id="edge9" class="edge">
<title>enable_map_align_output&#45;&gt;run_dragen_transcriptome_step</title>
<path fill="none" stroke="black" d="M1472.2,-811.9C1415.93,-772.01 1278.48,-674.58 1214.62,-629.31"/>
<polygon fill="black" stroke="black" points="1216.3,-626.21 1206.12,-623.29 1212.25,-631.92 1216.3,-626.21"/>
</g>
<!-- enable_rna_gene_fusion -->
<g id="node6" class="node">
<title>enable_rna_gene_fusion</title>
<polygon fill="#94ddf4" stroke="black" points="1194,-811.98 1194,-848.98 1380,-848.98 1380,-811.98 1194,-811.98"/>
<text text-anchor="middle" x="1287" y="-826.78" font-family="Times,serif" font-size="14.00">enable_rna_gene_fusion</text>
</g>
<!-- enable_rna_gene_fusion&#45;&gt;run_dragen_transcriptome_step -->
<g id="edge10" class="edge">
<title>enable_rna_gene_fusion&#45;&gt;run_dragen_transcriptome_step</title>
<path fill="none" stroke="black" d="M1278.68,-811.9C1260.23,-772.91 1215.76,-678.93 1193.76,-632.45"/>
<polygon fill="black" stroke="black" points="1196.87,-630.83 1189.43,-623.29 1190.54,-633.82 1196.87,-630.83"/>
</g>
<!-- enable_rna_quantification -->
<g id="node7" class="node">
<title>enable_rna_quantification</title>
<polygon fill="#94ddf4" stroke="black" points="976,-811.98 976,-848.98 1176,-848.98 1176,-811.98 976,-811.98"/>
<text text-anchor="middle" x="1076" y="-826.78" font-family="Times,serif" font-size="14.00">enable_rna_quantification</text>
</g>
<!-- enable_rna_quantification&#45;&gt;run_dragen_transcriptome_step -->
<g id="edge11" class="edge">
<title>enable_rna_quantification&#45;&gt;run_dragen_transcriptome_step</title>
<path fill="none" stroke="black" d="M1084.24,-811.9C1102.52,-772.91 1146.57,-678.93 1168.36,-632.45"/>
<polygon fill="black" stroke="black" points="1171.58,-633.83 1172.65,-623.29 1165.24,-630.85 1171.58,-633.83"/>
</g>
<!-- enable_sort -->
<g id="node8" class="node">
<title>enable_sort</title>
<polygon fill="#94ddf4" stroke="black" points="858.5,-811.98 858.5,-848.98 957.5,-848.98 957.5,-811.98 858.5,-811.98"/>
<text text-anchor="middle" x="908" y="-826.78" font-family="Times,serif" font-size="14.00">enable_sort</text>
</g>
<!-- enable_sort&#45;&gt;run_dragen_transcriptome_step -->
<g id="edge12" class="edge">
<title>enable_sort&#45;&gt;run_dragen_transcriptome_step</title>
<path fill="none" stroke="black" d="M928.99,-811.98C940.25,-802.61 954.36,-790.9 967,-780.48 1032.8,-726.25 1110.33,-663.01 1151.63,-629.38"/>
<polygon fill="black" stroke="black" points="1153.84,-632.09 1159.39,-623.06 1149.42,-626.66 1153.84,-632.09"/>
</g>
<!-- fastq_list -->
<g id="node9" class="node">
<title>fastq_list</title>
<polygon fill="#94ddf4" stroke="black" points="758,-811.98 758,-848.98 840,-848.98 840,-811.98 758,-811.98"/>
<text text-anchor="middle" x="799" y="-826.78" font-family="Times,serif" font-size="14.00">fastq_list</text>
</g>
<!-- fastq_list&#45;&gt;run_dragen_transcriptome_step -->
<g id="edge13" class="edge">
<title>fastq_list&#45;&gt;run_dragen_transcriptome_step</title>
<path fill="none" stroke="black" d="M814.95,-811.89C824.51,-801.94 837.26,-789.69 850,-780.48 941.89,-714.06 1062.22,-656.91 1129.58,-627.23"/>
<polygon fill="black" stroke="black" points="1131.37,-630.27 1139.12,-623.06 1128.56,-623.86 1131.37,-630.27"/>
</g>
<!-- fastq_list_rows -->
<g id="node10" class="node">
<title>fastq_list_rows</title>
<polygon fill="#94ddf4" stroke="black" points="616.5,-811.98 616.5,-848.98 739.5,-848.98 739.5,-811.98 616.5,-811.98"/>
<text text-anchor="middle" x="678" y="-826.78" font-family="Times,serif" font-size="14.00">fastq_list_rows</text>
</g>
<!-- fastq_list_rows&#45;&gt;run_dragen_transcriptome_step -->
<g id="edge14" class="edge">
<title>fastq_list_rows&#45;&gt;run_dragen_transcriptome_step</title>
<path fill="none" stroke="black" d="M700.84,-811.8C714.38,-801.83 732.13,-789.58 749,-780.48 874.34,-712.9 1031.48,-655.54 1117.48,-626.28"/>
<polygon fill="black" stroke="black" points="1118.76,-629.55 1127.11,-623.03 1116.51,-622.92 1118.76,-629.55"/>
</g>
<!-- lic_instance_id_location -->
<g id="node11" class="node">
<title>lic_instance_id_location</title>
<polygon fill="#94ddf4" stroke="black" points="415.5,-811.98 415.5,-848.98 598.5,-848.98 598.5,-811.98 415.5,-811.98"/>
<text text-anchor="middle" x="507" y="-826.78" font-family="Times,serif" font-size="14.00">lic_instance_id_location</text>
</g>
<!-- lic_instance_id_location&#45;&gt;run_dragen_transcriptome_step -->
<g id="edge15" class="edge">
<title>lic_instance_id_location&#45;&gt;run_dragen_transcriptome_step</title>
<path fill="none" stroke="black" d="M540.08,-811.82C559.53,-801.85 584.78,-789.6 608,-780.48 779.99,-712.97 989.19,-654.89 1101.15,-625.66"/>
<polygon fill="black" stroke="black" points="1102.22,-628.99 1111.02,-623.09 1100.46,-622.22 1102.22,-628.99"/>
</g>
<!-- output_directory -->
<g id="node12" class="node">
<title>output_directory</title>
<polygon fill="#94ddf4" stroke="black" points="2136,-811.98 2136,-848.98 2272,-848.98 2272,-811.98 2136,-811.98"/>
<text text-anchor="middle" x="2204" y="-826.78" font-family="Times,serif" font-size="14.00">output_directory</text>
</g>
<!-- output_directory&#45;&gt;run_dragen_transcriptome_step -->
<g id="edge16" class="edge">
<title>output_directory&#45;&gt;run_dragen_transcriptome_step</title>
<path fill="none" stroke="black" d="M2181.34,-811.76C2166.63,-801.12 2146.61,-788.2 2127,-780.48 1846.95,-670.3 1492.47,-628.52 1307.08,-613.44"/>
<polygon fill="black" stroke="black" points="1307.27,-609.95 1297.02,-612.64 1306.71,-616.93 1307.27,-609.95"/>
</g>
<!-- output_directory&#45;&gt;run_qualimap_step -->
<g id="edge17" class="edge">
<title>output_directory&#45;&gt;run_qualimap_step</title>
<path fill="none" stroke="black" d="M2204,-811.92C2204,-744.16 2204,-499.33 2204,-416.27"/>
<polygon fill="black" stroke="black" points="2207.5,-416.09 2204,-406.09 2200.5,-416.09 2207.5,-416.09"/>
</g>
<!-- output_file_prefix -->
<g id="node13" class="node">
<title>output_file_prefix</title>
<polygon fill="#94ddf4" stroke="black" points="126,-811.98 126,-848.98 266,-848.98 266,-811.98 126,-811.98"/>
<text text-anchor="middle" x="196" y="-826.78" font-family="Times,serif" font-size="14.00">output_file_prefix</text>
</g>
<!-- output_file_prefix&#45;&gt;run_dragen_transcriptome_step -->
<g id="edge18" class="edge">
<title>output_file_prefix&#45;&gt;run_dragen_transcriptome_step</title>
<path fill="none" stroke="black" d="M219.67,-811.84C235,-801.24 255.81,-788.32 276,-780.48 541.93,-677.25 876.3,-632.93 1054.87,-615.53"/>
<polygon fill="black" stroke="black" points="1055.21,-619.02 1064.83,-614.58 1054.54,-612.05 1055.21,-619.02"/>
</g>
<!-- reference_tar -->
<g id="node14" class="node">
<title>reference_tar</title>
<polygon fill="#94ddf4" stroke="black" points="284.5,-811.98 284.5,-848.98 397.5,-848.98 397.5,-811.98 284.5,-811.98"/>
<text text-anchor="middle" x="341" y="-826.78" font-family="Times,serif" font-size="14.00">reference_tar</text>
</g>
<!-- reference_tar&#45;&gt;run_dragen_transcriptome_step -->
<g id="edge19" class="edge">
<title>reference_tar&#45;&gt;run_dragen_transcriptome_step</title>
<path fill="none" stroke="black" d="M360.12,-811.9C372.61,-801.32 389.75,-788.4 407,-780.48 622,-681.75 896.85,-636.73 1054.5,-617.79"/>
<polygon fill="black" stroke="black" points="1055.19,-621.23 1064.71,-616.58 1054.37,-614.28 1055.19,-621.23"/>
</g>
<!-- algorithm -->
<g id="node15" class="node">
<title>algorithm</title>
<polygon fill="#94ddf4" stroke="black" points="2290,-811.98 2290,-848.98 2376,-848.98 2376,-811.98 2290,-811.98"/>
<text text-anchor="middle" x="2333" y="-826.78" font-family="Times,serif" font-size="14.00">algorithm</text>
</g>
<!-- algorithm&#45;&gt;run_qualimap_step -->
<g id="edge20" class="edge">
<title>algorithm&#45;&gt;run_qualimap_step</title>
<path fill="none" stroke="black" d="M2327.86,-811.92C2308,-744.02 2236.13,-498.33 2211.98,-415.76"/>
<polygon fill="black" stroke="black" points="2215.32,-414.71 2209.15,-406.09 2208.6,-416.67 2215.32,-414.71"/>
</g>
<!-- java_mem -->
<g id="node16" class="node">
<title>java_mem</title>
<polygon fill="#94ddf4" stroke="black" points="2394,-811.98 2394,-848.98 2482,-848.98 2482,-811.98 2394,-811.98"/>
<text text-anchor="middle" x="2438" y="-826.78" font-family="Times,serif" font-size="14.00">java_mem</text>
</g>
<!-- java_mem&#45;&gt;run_qualimap_step -->
<g id="edge21" class="edge">
<title>java_mem&#45;&gt;run_qualimap_step</title>
<path fill="none" stroke="black" d="M2428.68,-811.92C2392.58,-743.88 2261.76,-497.33 2218.21,-415.26"/>
<polygon fill="black" stroke="black" points="2221.12,-413.28 2213.34,-406.09 2214.94,-416.56 2221.12,-413.28"/>
</g>
<!-- tmp_dir -->
<g id="node17" class="node">
<title>tmp_dir</title>
<polygon fill="#94ddf4" stroke="black" points="2500,-811.98 2500,-848.98 2572,-848.98 2572,-811.98 2500,-811.98"/>
<text text-anchor="middle" x="2536" y="-826.78" font-family="Times,serif" font-size="14.00">tmp_dir</text>
</g>
<!-- tmp_dir&#45;&gt;run_qualimap_step -->
<g id="edge22" class="edge">
<title>tmp_dir&#45;&gt;run_qualimap_step</title>
<path fill="none" stroke="black" d="M2522.78,-811.92C2471.35,-743.6 2284.43,-495.32 2223.41,-414.27"/>
<polygon fill="black" stroke="black" points="2226.07,-411.97 2217.26,-406.09 2220.48,-416.18 2226.07,-411.97"/>
</g>
<!-- dragen_transcriptome_output_directory -->
<g id="node18" class="node">
<title>dragen_transcriptome_output_directory</title>
<polygon fill="#94ddf4" stroke="black" points="1619.5,-151.98 1619.5,-188.98 1920.5,-188.98 1920.5,-151.98 1619.5,-151.98"/>
<text text-anchor="middle" x="1770" y="-166.78" font-family="Times,serif" font-size="14.00">dragen_transcriptome_output_directory</text>
</g>
<!-- qualimap_output_directory -->
<g id="node19" class="node">
<title>qualimap_output_directory</title>
<polygon fill="#94ddf4" stroke="black" points="1938.5,-151.98 1938.5,-188.98 2147.5,-188.98 2147.5,-151.98 1938.5,-151.98"/>
<text text-anchor="middle" x="2043" y="-166.78" font-family="Times,serif" font-size="14.00">qualimap_output_directory</text>
</g>
<!-- run_dragen_transcriptome_step&#45;&gt;dragen_transcriptome_output_directory -->
<g id="edge2" class="edge">
<title>run_dragen_transcriptome_step&#45;&gt;dragen_transcriptome_output_directory</title>
<path fill="none" stroke="black" d="M1205.19,-585.74C1298.04,-517.64 1631.74,-272.89 1737.56,-195.27"/>
<polygon fill="black" stroke="black" points="1739.94,-197.87 1745.94,-189.13 1735.8,-192.22 1739.94,-197.87"/>
</g>
<!-- run_dragen_transcriptome_step&#45;&gt;run_qualimap_step -->
<g id="edge1" class="edge">
<title>run_dragen_transcriptome_step&#45;&gt;run_qualimap_step</title>
<path fill="none" stroke="black" d="M1264.28,-585.98C1457.12,-545.45 1932.35,-445.57 2122.97,-405.51"/>
<polygon fill="black" stroke="black" points="2123.86,-408.9 2132.92,-403.42 2122.42,-402.05 2123.86,-408.9"/>
</g>
<!-- run_qualimap_step&#45;&gt;qualimap_output_directory -->
<g id="edge3" class="edge">
<title>run_qualimap_step&#45;&gt;qualimap_output_directory</title>
<path fill="none" stroke="black" d="M2190.82,-368.89C2162.45,-331 2095.46,-241.53 2062.29,-197.24"/>
<polygon fill="black" stroke="black" points="2064.93,-194.92 2056.13,-189.02 2059.32,-199.12 2064.93,-194.92"/>
</g>
<!-- \n -->
<g id="node22" class="node">
<title>\n</title>
<ellipse fill="none" stroke="black" cx="2617" cy="-830.48" rx="27" ry="18"/>
</g>
</g>
</svg>
