<?xml version="1.0" encoding="UTF-8" standalone="no"?>
<!DOCTYPE svg PUBLIC "-//W3C//DTD SVG 1.1//EN"
 "http://www.w3.org/Graphics/SVG/1.1/DTD/svg11.dtd">
<!-- Generated by graphviz version 2.43.0 (0)
 -->
<!-- Title: G Pages: 1 -->
<svg width="2044pt" height="934pt"
 viewBox="0.00 0.00 2044.00 934.38" xmlns="http://www.w3.org/2000/svg" xmlns:xlink="http://www.w3.org/1999/xlink">
<g id="graph0" class="graph" transform="scale(1 1) rotate(0) translate(4 930.38)">
<title>G</title>
<polygon fill="#eeeeee" stroke="transparent" points="-4,4 -4,-930.38 2040,-930.38 2040,4 -4,4"/>
<g id="clust1" class="cluster">
<title>cluster_inputs</title>
<polygon fill="#eeeeee" stroke="black" stroke-dasharray="5,2" points="8,-725.51 8,-907.47 1972,-907.47 1972,-725.51 8,-725.51"/>
<text text-anchor="middle" x="1905.5" y="-733.31" font-family="Times,serif" font-size="14.00">Workflow Inputs</text>
</g>
<g id="clust2" class="cluster">
<title>cluster_outputs</title>
<polygon fill="#eeeeee" stroke="black" stroke-dasharray="5,2" points="1097,-18.91 1097,-200.87 1321,-200.87 1321,-18.91 1097,-18.91"/>
<text text-anchor="middle" x="1248.5" y="-26.71" font-family="Times,serif" font-size="14.00">Workflow Outputs</text>
</g>
<!-- dragen_somatic_directory -->
<g id="node1" class="node">
<title>dragen_somatic_directory</title>
<polygon fill="#94ddf4" stroke="black" points="16.5,-825.41 16.5,-862.41 217.5,-862.41 217.5,-825.41 16.5,-825.41"/>
<text text-anchor="middle" x="117" y="-840.21" font-family="Times,serif" font-size="14.00">dragen_somatic_directory</text>
</g>
<!-- get_tumor_bam_file_from_somatic_directory -->
<g id="node11" class="node">
<title>get_tumor_bam_file_from_somatic_directory</title>
<polygon fill="lightgoldenrodyellow" stroke="black" points="146.5,-643.41 146.5,-680.41 379.5,-680.41 379.5,-643.41 146.5,-643.41"/>
<text text-anchor="middle" x="263" y="-658.21" font-family="Times,serif" font-size="14.00">get&#45;file&#45;from&#45;directory v(1.0.0)</text>
</g>
<!-- dragen_somatic_directory&#45;&gt;get_tumor_bam_file_from_somatic_directory -->
<g id="edge5" class="edge">
<title>dragen_somatic_directory&#45;&gt;get_tumor_bam_file_from_somatic_directory</title>
<path fill="none" stroke="black" d="M131.26,-825.32C157.21,-793.33 212.23,-725.5 242.3,-688.42"/>
<polygon fill="black" stroke="black" points="245.1,-690.54 248.68,-680.56 239.66,-686.13 245.1,-690.54"/>
</g>
<!-- run_umccrise_pipeline_step -->
<g id="node13" class="node">
<title>run_umccrise_pipeline_step</title>
<polygon fill="lightgoldenrodyellow" stroke="black" points="1130,-293.41 1130,-330.41 1288,-330.41 1288,-293.41 1130,-293.41"/>
<text text-anchor="middle" x="1209" y="-308.21" font-family="Times,serif" font-size="14.00">umccrise v(2.1.0&#45;&#45;0)</text>
</g>
<!-- dragen_somatic_directory&#45;&gt;run_umccrise_pipeline_step -->
<g id="edge6" class="edge">
<title>dragen_somatic_directory&#45;&gt;run_umccrise_pipeline_step</title>
<path fill="none" stroke="black" d="M153.33,-825.27C316.67,-746 982.85,-422.67 1163.58,-334.95"/>
<polygon fill="black" stroke="black" points="1165.34,-337.99 1172.81,-330.47 1162.28,-331.69 1165.34,-337.99"/>
</g>
<!-- enable_duplicate_marking -->
<g id="node2" class="node">
<title>enable_duplicate_marking</title>
<polygon fill="#94ddf4" stroke="black" points="661.5,-825.41 661.5,-862.41 864.5,-862.41 864.5,-825.41 661.5,-825.41"/>
<text text-anchor="middle" x="763" y="-840.21" font-family="Times,serif" font-size="14.00">enable_duplicate_marking</text>
</g>
<!-- run_dragen_germline_pipeline_step -->
<g id="node14" class="node">
<title>run_dragen_germline_pipeline_step</title>
<polygon fill="#f3cea1" stroke="black" points="747,-643.41 747,-680.41 1003,-680.41 1003,-643.41 747,-643.41"/>
<text text-anchor="middle" x="875" y="-658.21" font-family="Times,serif" font-size="14.00">dragen&#45;germline&#45;pipeline v(3.9.3)</text>
</g>
<!-- enable_duplicate_marking&#45;&gt;run_dragen_germline_pipeline_step -->
<g id="edge7" class="edge">
<title>enable_duplicate_marking&#45;&gt;run_dragen_germline_pipeline_step</title>
<path fill="none" stroke="black" d="M773.94,-825.32C793.68,-793.6 835.35,-726.64 858.54,-689.36"/>
<polygon fill="black" stroke="black" points="861.7,-690.9 864.01,-680.56 855.76,-687.21 861.7,-690.9"/>
</g>
<!-- fastq_list_rows_germline -->
<g id="node3" class="node">
<title>fastq_list_rows_germline</title>
<polygon fill="#94ddf4" stroke="black" points="1112,-825.41 1112,-862.41 1306,-862.41 1306,-825.41 1112,-825.41"/>
<text text-anchor="middle" x="1209" y="-840.21" font-family="Times,serif" font-size="14.00">fastq_list_rows_germline</text>
</g>
<!-- fastq_list_rows_germline&#45;&gt;run_umccrise_pipeline_step -->
<g id="edge8" class="edge">
<title>fastq_list_rows_germline&#45;&gt;run_umccrise_pipeline_step</title>
<path fill="none" stroke="black" d="M1209,-825.27C1209,-747.62 1209,-435.78 1209,-340.62"/>
<polygon fill="black" stroke="black" points="1212.5,-340.61 1209,-330.61 1205.5,-340.61 1212.5,-340.61"/>
</g>
<!-- fastq_list_rows_germline&#45;&gt;run_dragen_germline_pipeline_step -->
<g id="edge9" class="edge">
<title>fastq_list_rows_germline&#45;&gt;run_dragen_germline_pipeline_step</title>
<path fill="none" stroke="black" d="M1176.37,-825.32C1115.38,-792.45 984.22,-721.77 916.84,-685.45"/>
<polygon fill="black" stroke="black" points="918.23,-682.23 907.77,-680.56 914.91,-688.39 918.23,-682.23"/>
</g>
<!-- output_directory_germline -->
<g id="node4" class="node">
<title>output_directory_germline</title>
<polygon fill="#94ddf4" stroke="black" points="236,-825.41 236,-862.41 442,-862.41 442,-825.41 236,-825.41"/>
<text text-anchor="middle" x="339" y="-840.21" font-family="Times,serif" font-size="14.00">output_directory_germline</text>
</g>
<!-- output_directory_germline&#45;&gt;run_dragen_germline_pipeline_step -->
<g id="edge10" class="edge">
<title>output_directory_germline&#45;&gt;run_dragen_germline_pipeline_step</title>
<path fill="none" stroke="black" d="M376.76,-825.3C398.53,-815.47 426.53,-803.34 452,-793.91 572.49,-749.28 715.95,-707.08 801.03,-683.17"/>
<polygon fill="black" stroke="black" points="802.17,-686.48 810.85,-680.42 800.28,-679.74 802.17,-686.48"/>
</g>
<!-- output_file_prefix_germline -->
<g id="node5" class="node">
<title>output_file_prefix_germline</title>
<polygon fill="#94ddf4" stroke="black" points="882.5,-825.41 882.5,-862.41 1093.5,-862.41 1093.5,-825.41 882.5,-825.41"/>
<text text-anchor="middle" x="988" y="-840.21" font-family="Times,serif" font-size="14.00">output_file_prefix_germline</text>
</g>
<!-- output_file_prefix_germline&#45;&gt;run_dragen_germline_pipeline_step -->
<g id="edge11" class="edge">
<title>output_file_prefix_germline&#45;&gt;run_dragen_germline_pipeline_step</title>
<path fill="none" stroke="black" d="M976.96,-825.32C957.04,-793.6 915.01,-726.64 891.61,-689.36"/>
<polygon fill="black" stroke="black" points="894.37,-687.17 886.09,-680.56 888.44,-690.89 894.37,-687.17"/>
</g>
<!-- reference_tar_germline -->
<g id="node6" class="node">
<title>reference_tar_germline</title>
<polygon fill="#94ddf4" stroke="black" points="460.5,-825.41 460.5,-862.41 643.5,-862.41 643.5,-825.41 460.5,-825.41"/>
<text text-anchor="middle" x="552" y="-840.21" font-family="Times,serif" font-size="14.00">reference_tar_germline</text>
</g>
<!-- reference_tar_germline&#45;&gt;run_dragen_germline_pipeline_step -->
<g id="edge12" class="edge">
<title>reference_tar_germline&#45;&gt;run_dragen_germline_pipeline_step</title>
<path fill="none" stroke="black" d="M583.56,-825.32C642.53,-792.45 769.38,-721.77 834.54,-685.45"/>
<polygon fill="black" stroke="black" points="836.28,-688.49 843.31,-680.56 832.87,-682.37 836.28,-688.49"/>
</g>
<!-- reference_tar_umccrise -->
<g id="node7" class="node">
<title>reference_tar_umccrise</title>
<polygon fill="#94ddf4" stroke="black" points="1324,-825.41 1324,-862.41 1508,-862.41 1508,-825.41 1324,-825.41"/>
<text text-anchor="middle" x="1416" y="-840.21" font-family="Times,serif" font-size="14.00">reference_tar_umccrise</text>
</g>
<!-- reference_tar_umccrise&#45;&gt;run_umccrise_pipeline_step -->
<g id="edge13" class="edge">
<title>reference_tar_umccrise&#45;&gt;run_umccrise_pipeline_step</title>
<path fill="none" stroke="black" d="M1409.11,-825.27C1378.72,-747.46 1256.49,-434.51 1219.6,-340.04"/>
<polygon fill="black" stroke="black" points="1222.81,-338.65 1215.91,-330.61 1216.29,-341.19 1222.81,-338.65"/>
</g>
<!-- output_directory_umccrise -->
<g id="node8" class="node">
<title>output_directory_umccrise</title>
<polygon fill="#94ddf4" stroke="black" points="1526.5,-825.41 1526.5,-862.41 1733.5,-862.41 1733.5,-825.41 1526.5,-825.41"/>
<text text-anchor="middle" x="1630" y="-840.21" font-family="Times,serif" font-size="14.00">output_directory_umccrise</text>
</g>
<!-- output_directory_umccrise&#45;&gt;run_umccrise_pipeline_step -->
<g id="edge14" class="edge">
<title>output_directory_umccrise&#45;&gt;run_umccrise_pipeline_step</title>
<path fill="none" stroke="black" d="M1615.99,-825.27C1553.87,-747.07 1303.07,-431.34 1229.43,-338.62"/>
<polygon fill="black" stroke="black" points="1232.02,-336.26 1223.06,-330.61 1226.54,-340.61 1232.02,-336.26"/>
</g>
<!-- subject_identifier_umccrise -->
<g id="node9" class="node">
<title>subject_identifier_umccrise</title>
<polygon fill="#94ddf4" stroke="black" points="1752,-825.41 1752,-862.41 1964,-862.41 1964,-825.41 1752,-825.41"/>
<text text-anchor="middle" x="1858" y="-840.21" font-family="Times,serif" font-size="14.00">subject_identifier_umccrise</text>
</g>
<!-- subject_identifier_umccrise&#45;&gt;run_umccrise_pipeline_step -->
<g id="edge15" class="edge">
<title>subject_identifier_umccrise&#45;&gt;run_umccrise_pipeline_step</title>
<path fill="none" stroke="black" d="M1836.41,-825.27C1740.06,-746.59 1349.34,-427.51 1238.46,-336.97"/>
<polygon fill="black" stroke="black" points="1240.63,-334.22 1230.67,-330.61 1236.21,-339.64 1240.63,-334.22"/>
</g>
<!-- umccrise_output_directory -->
<g id="node10" class="node">
<title>umccrise_output_directory</title>
<polygon fill="#94ddf4" stroke="black" points="1105.5,-118.41 1105.5,-155.41 1312.5,-155.41 1312.5,-118.41 1105.5,-118.41"/>
<text text-anchor="middle" x="1209" y="-133.21" font-family="Times,serif" font-size="14.00">umccrise_output_directory</text>
</g>
<!-- get_tumor_name_from_bam_header -->
<g id="node12" class="node">
<title>get_tumor_name_from_bam_header</title>
<polygon fill="lightgoldenrodyellow" stroke="black" points="106,-468.41 106,-505.41 488,-505.41 488,-468.41 106,-468.41"/>
<text text-anchor="middle" x="297" y="-483.21" font-family="Times,serif" font-size="14.00">custom&#45;get&#45;sample&#45;name&#45;from&#45;bam&#45;header v(1.0.0)</text>
</g>
<!-- get_tumor_bam_file_from_somatic_directory&#45;&gt;get_tumor_name_from_bam_header -->
<g id="edge1" class="edge">
<title>get_tumor_bam_file_from_somatic_directory&#45;&gt;get_tumor_name_from_bam_header</title>
<path fill="none" stroke="black" d="M266.45,-643.37C272.38,-613.19 284.56,-551.23 291.61,-515.31"/>
<polygon fill="black" stroke="black" points="295.05,-515.98 293.54,-505.49 288.18,-514.63 295.05,-515.98"/>
</g>
<!-- get_tumor_name_from_bam_header&#45;&gt;run_umccrise_pipeline_step -->
<g id="edge2" class="edge">
<title>get_tumor_name_from_bam_header&#45;&gt;run_umccrise_pipeline_step</title>
<path fill="none" stroke="black" d="M389.47,-468.37C565.49,-434.98 946.59,-362.68 1119.94,-329.8"/>
<polygon fill="black" stroke="black" points="1120.62,-333.23 1129.79,-327.93 1119.32,-326.36 1120.62,-333.23"/>
</g>
<!-- run_umccrise_pipeline_step&#45;&gt;umccrise_output_directory -->
<g id="edge3" class="edge">
<title>run_umccrise_pipeline_step&#45;&gt;umccrise_output_directory</title>
<path fill="none" stroke="black" d="M1209,-293.37C1209,-263.32 1209,-201.76 1209,-165.78"/>
<polygon fill="black" stroke="black" points="1212.5,-165.49 1209,-155.49 1205.5,-165.49 1212.5,-165.49"/>
</g>
<!-- run_dragen_germline_pipeline_step&#45;&gt;run_umccrise_pipeline_step -->
<g id="edge4" class="edge">
<title>run_dragen_germline_pipeline_step&#45;&gt;run_umccrise_pipeline_step</title>
<path fill="none" stroke="black" d="M892.02,-643.17C947.08,-585.81 1120.48,-405.14 1184.73,-338.19"/>
<polygon fill="black" stroke="black" points="1187.61,-340.24 1192.01,-330.61 1182.56,-335.4 1187.61,-340.24"/>
</g>
<!-- \n -->
<g id="node15" class="node">
<title>\n</title>
<ellipse fill="none" stroke="black" cx="2009" cy="-843.91" rx="27" ry="18"/>
</g>
</g>
</svg>
