<?xml version="1.0" encoding="UTF-8" standalone="no"?>
<!DOCTYPE svg PUBLIC "-//W3C//DTD SVG 1.1//EN"
 "http://www.w3.org/Graphics/SVG/1.1/DTD/svg11.dtd">
<!-- Generated by graphviz version 2.43.0 (0)
 -->
<!-- Title: G Pages: 1 -->
<svg width="680pt" height="620pt"
 viewBox="0.00 0.00 680.00 619.52" xmlns="http://www.w3.org/2000/svg" xmlns:xlink="http://www.w3.org/1999/xlink">
<g id="graph0" class="graph" transform="scale(1 1) rotate(0) translate(4 615.52)">
<title>G</title>
<polygon fill="#eeeeee" stroke="transparent" points="-4,4 -4,-615.52 676,-615.52 676,4 -4,4"/>
<g id="clust1" class="cluster">
<title>cluster_inputs</title>
<polygon fill="#eeeeee" stroke="black" stroke-dasharray="5,2" points="8,-478.79 8,-598.88 478,-598.88 478,-478.79 8,-478.79"/>
<text text-anchor="middle" x="411.5" y="-486.59" font-family="Times,serif" font-size="14.00">Workflow Inputs</text>
</g>
<g id="clust2" class="cluster">
<title>cluster_outputs</title>
<polygon fill="#eeeeee" stroke="black" stroke-dasharray="5,2" points="149,-12.64 149,-132.73 664,-132.73 664,-12.64 149,-12.64"/>
<text text-anchor="middle" x="591.5" y="-20.44" font-family="Times,serif" font-size="14.00">Workflow Outputs</text>
</g>
<!-- get_run_info_xml_file_from_reports_dir -->
<g id="node1" class="node">
<title>get_run_info_xml_file_from_reports_dir</title>
<polygon fill="lightgoldenrodyellow" stroke="black" points="103.5,-418.64 103.5,-454.64 336.5,-454.64 336.5,-418.64 103.5,-418.64"/>
<text text-anchor="middle" x="220" y="-432.94" font-family="Times,serif" font-size="14.00">get&#45;file&#45;from&#45;directory v(1.0.1)</text>
</g>
<!-- generate_interop_qc_step -->
<g id="node2" class="node">
<title>generate_interop_qc_step</title>
<polygon fill="lightgoldenrodyellow" stroke="black" points="136,-303.64 136,-339.64 326,-339.64 326,-303.64 136,-303.64"/>
<text text-anchor="middle" x="231" y="-317.94" font-family="Times,serif" font-size="14.00">illumina&#45;interop v(1.3.1)</text>
</g>
<!-- get_run_info_xml_file_from_reports_dir&#45;&gt;generate_interop_qc_step -->
<g id="edge1" class="edge">
<title>get_run_info_xml_file_from_reports_dir&#45;&gt;generate_interop_qc_step</title>
<path fill="none" stroke="black" d="M221.67,-418.48C223.44,-400.31 226.26,-371.37 228.33,-350.04"/>
<polygon fill="black" stroke="black" points="231.83,-350.26 229.31,-339.97 224.86,-349.58 231.83,-350.26"/>
</g>
<!-- run_multiqc_step -->
<g id="node3" class="node">
<title>run_multiqc_step</title>
<polygon fill="lightgoldenrodyellow" stroke="black" points="380.5,-188.64 380.5,-224.64 519.5,-224.64 519.5,-188.64 380.5,-188.64"/>
<text text-anchor="middle" x="450" y="-202.94" font-family="Times,serif" font-size="14.00">multiqc v(1.21.0)</text>
</g>
<!-- generate_interop_qc_step&#45;&gt;run_multiqc_step -->
<g id="edge2" class="edge">
<title>generate_interop_qc_step&#45;&gt;run_multiqc_step</title>
<path fill="none" stroke="black" d="M264.26,-303.48C302.64,-283.68 365.83,-251.07 407.68,-229.48"/>
<polygon fill="black" stroke="black" points="409.5,-232.48 416.79,-224.78 406.29,-226.25 409.5,-232.48"/>
</g>
<!-- interop_output_dir -->
<g id="node7" class="node">
<title>interop_output_dir</title>
<polygon fill="#94ddf4" stroke="black" points="156.5,-72.64 156.5,-108.64 305.5,-108.64 305.5,-72.64 156.5,-72.64"/>
<text text-anchor="middle" x="231" y="-86.94" font-family="Times,serif" font-size="14.00">interop_output_dir</text>
</g>
<!-- generate_interop_qc_step&#45;&gt;interop_output_dir -->
<g id="edge9" class="edge">
<title>generate_interop_qc_step&#45;&gt;interop_output_dir</title>
<path fill="none" stroke="black" d="M231,-303.43C231,-263.96 231,-166.67 231,-118.94"/>
<polygon fill="black" stroke="black" points="234.5,-118.74 231,-108.74 227.5,-118.74 234.5,-118.74"/>
</g>
<!-- multiqc_html_report -->
<g id="node8" class="node">
<title>multiqc_html_report</title>
<polygon fill="#94ddf4" stroke="black" points="324,-72.64 324,-108.64 486,-108.64 486,-72.64 324,-72.64"/>
<text text-anchor="middle" x="405" y="-86.94" font-family="Times,serif" font-size="14.00">multiqc_html_report</text>
</g>
<!-- run_multiqc_step&#45;&gt;multiqc_html_report -->
<g id="edge10" class="edge">
<title>run_multiqc_step&#45;&gt;multiqc_html_report</title>
<path fill="none" stroke="black" d="M443.17,-188.33C435.82,-169.72 424.06,-139.92 415.53,-118.31"/>
<polygon fill="black" stroke="black" points="418.68,-116.76 411.75,-108.74 412.17,-119.33 418.68,-116.76"/>
</g>
<!-- multiqc_output_dir -->
<g id="node9" class="node">
<title>multiqc_output_dir</title>
<polygon fill="#94ddf4" stroke="black" points="504,-72.64 504,-108.64 656,-108.64 656,-72.64 504,-72.64"/>
<text text-anchor="middle" x="580" y="-86.94" font-family="Times,serif" font-size="14.00">multiqc_output_dir</text>
</g>
<!-- run_multiqc_step&#45;&gt;multiqc_output_dir -->
<g id="edge11" class="edge">
<title>run_multiqc_step&#45;&gt;multiqc_output_dir</title>
<path fill="none" stroke="black" d="M469.46,-188.57C491.58,-169.18 527.82,-137.4 552.74,-115.54"/>
<polygon fill="black" stroke="black" points="555.19,-118.05 560.4,-108.82 550.58,-112.79 555.19,-118.05"/>
</g>
<!-- interop_directory -->
<g id="node4" class="node">
<title>interop_directory</title>
<polygon fill="#94ddf4" stroke="black" points="16,-538.64 16,-574.64 156,-574.64 156,-538.64 16,-538.64"/>
<text text-anchor="middle" x="86" y="-552.94" font-family="Times,serif" font-size="14.00">interop_directory</text>
</g>
<!-- interop_directory&#45;&gt;generate_interop_qc_step -->
<g id="edge3" class="edge">
<title>interop_directory&#45;&gt;generate_interop_qc_step</title>
<path fill="none" stroke="black" d="M82.44,-538.24C77.78,-510.77 72.52,-456.54 94,-418.14 112.79,-384.55 148.94,-360.11 179.39,-344.37"/>
<polygon fill="black" stroke="black" points="181.24,-347.36 188.63,-339.77 178.12,-341.09 181.24,-347.36"/>
</g>
<!-- run_id -->
<g id="node5" class="node">
<title>run_id</title>
<polygon fill="#94ddf4" stroke="black" points="408,-538.64 408,-574.64 470,-574.64 470,-538.64 408,-538.64"/>
<text text-anchor="middle" x="439" y="-552.94" font-family="Times,serif" font-size="14.00">run_id</text>
</g>
<!-- run_id&#45;&gt;generate_interop_qc_step -->
<g id="edge4" class="edge">
<title>run_id&#45;&gt;generate_interop_qc_step</title>
<path fill="none" stroke="black" d="M429.36,-538.48C413.67,-511.34 380.74,-457.56 345,-418.14 320.18,-390.77 287.48,-364.15 263.47,-346"/>
<polygon fill="black" stroke="black" points="265.47,-343.13 255.36,-339.95 261.28,-348.74 265.47,-343.13"/>
</g>
<!-- run_id&#45;&gt;run_multiqc_step -->
<g id="edge5" class="edge">
<title>run_id&#45;&gt;run_multiqc_step</title>
<path fill="none" stroke="black" d="M436.4,-538.38C433.62,-482.15 439.02,-303.84 445.28,-235.06"/>
<polygon fill="black" stroke="black" points="448.78,-235.3 446.29,-225 441.81,-234.6 448.78,-235.3"/>
</g>
<!-- run_id&#45;&gt;run_multiqc_step -->
<g id="edge6" class="edge">
<title>run_id&#45;&gt;run_multiqc_step</title>
<path fill="none" stroke="black" d="M442.69,-538.38C449.03,-482.15 454.9,-303.84 452.98,-235.06"/>
<polygon fill="black" stroke="black" points="456.48,-234.87 452.61,-225 449.48,-235.13 456.48,-234.87"/>
</g>
<!-- bclconvert_report_directory -->
<g id="node6" class="node">
<title>bclconvert_report_directory</title>
<polygon fill="#94ddf4" stroke="black" points="174.5,-538.64 174.5,-574.64 389.5,-574.64 389.5,-538.64 174.5,-538.64"/>
<text text-anchor="middle" x="282" y="-552.94" font-family="Times,serif" font-size="14.00">bclconvert_report_directory</text>
</g>
<!-- bclconvert_report_directory&#45;&gt;get_run_info_xml_file_from_reports_dir -->
<g id="edge7" class="edge">
<title>bclconvert_report_directory&#45;&gt;get_run_info_xml_file_from_reports_dir</title>
<path fill="none" stroke="black" d="M272.98,-538.48C262.7,-518.91 245.76,-486.67 233.81,-463.92"/>
<polygon fill="black" stroke="black" points="236.78,-462.04 229.03,-454.82 230.58,-465.3 236.78,-462.04"/>
</g>
<!-- bclconvert_report_directory&#45;&gt;run_multiqc_step -->
<g id="edge8" class="edge">
<title>bclconvert_report_directory&#45;&gt;run_multiqc_step</title>
<path fill="none" stroke="black" d="M294.03,-538.35C307.4,-518.71 329.2,-485.45 345,-455.14 385.52,-377.42 423.1,-280.54 440.24,-234.43"/>
<polygon fill="black" stroke="black" points="443.59,-235.47 443.77,-224.87 437.02,-233.04 443.59,-235.47"/>
</g>
</g>
</svg>
