<?xml version="1.0" encoding="UTF-8" standalone="no"?>
<!DOCTYPE svg PUBLIC "-//W3C//DTD SVG 1.1//EN"
 "http://www.w3.org/Graphics/SVG/1.1/DTD/svg11.dtd">
<!-- Generated by graphviz version 2.43.0 (0)
 -->
<!-- Title: G Pages: 1 -->
<svg width="777pt" height="776pt"
 viewBox="0.00 0.00 776.93 776.00" xmlns="http://www.w3.org/2000/svg" xmlns:xlink="http://www.w3.org/1999/xlink">
<g id="graph0" class="graph" transform="scale(1 1) rotate(0) translate(4 772)">
<title>G</title>
<polygon fill="#eeeeee" stroke="transparent" points="-4,4 -4,-772 772.93,-772 772.93,4 -4,4"/>
<g id="clust1" class="cluster">
<title>cluster_inputs</title>
<polygon fill="#eeeeee" stroke="black" stroke-dasharray="5,2" points="295.39,-264 295.39,-720 433.39,-720 433.39,-264 295.39,-264"/>
<text text-anchor="middle" x="366.89" y="-271.8" font-family="Times,serif" font-size="14.00">Workflow Inputs</text>
</g>
<!-- sequence_data -->
<g id="node1" class="node">
<title>sequence_data</title>
<polygon fill="#94ddf4" stroke="black" points="303.39,-543 303.39,-579 425.39,-579 425.39,-543 303.39,-543"/>
<text text-anchor="middle" x="364.39" y="-557.3" font-family="Times,serif" font-size="14.00">sequence_data</text>
</g>
<!-- parse_bam_input_step -->
<g id="node2" class="node">
<title>parse_bam_input_step</title>
<ellipse fill="none" stroke="black" cx="114.39" cy="-108" rx="114.28" ry="18"/>
<text text-anchor="middle" x="114.39" y="-104.3" font-family="Times,serif" font-size="14.00">parse_bam_input_step</text>
</g>
<!-- sequence_data&#45;&gt;parse_bam_input_step -->
<g id="edge1" class="edge">
<title>sequence_data&#45;&gt;parse_bam_input_step</title>
<path fill="none" stroke="black" d="M354.89,-542.87C316.76,-474.08 174.62,-217.66 128.76,-134.92"/>
<polygon fill="black" stroke="black" points="131.8,-133.2 123.89,-126.15 125.68,-136.59 131.8,-133.2"/>
</g>
<!-- parse_cram_input_step -->
<g id="node3" class="node">
<title>parse_cram_input_step</title>
<ellipse fill="none" stroke="black" cx="364.39" cy="-108" rx="117.78" ry="18"/>
<text text-anchor="middle" x="364.39" y="-104.3" font-family="Times,serif" font-size="14.00">parse_cram_input_step</text>
</g>
<!-- sequence_data&#45;&gt;parse_cram_input_step -->
<g id="edge2" class="edge">
<title>sequence_data&#45;&gt;parse_cram_input_step</title>
<path fill="none" stroke="black" d="M364.39,-542.87C364.39,-474.43 364.39,-220.26 364.39,-136.19"/>
<polygon fill="black" stroke="black" points="367.89,-136.15 364.39,-126.15 360.89,-136.15 367.89,-136.15"/>
</g>
<!-- parse_fastq_list_rows_step -->
<g id="node4" class="node">
<title>parse_fastq_list_rows_step</title>
<ellipse fill="none" stroke="black" cx="634.39" cy="-108" rx="134.58" ry="18"/>
<text text-anchor="middle" x="634.39" y="-104.3" font-family="Times,serif" font-size="14.00">parse_fastq_list_rows_step</text>
</g>
<!-- sequence_data&#45;&gt;parse_fastq_list_rows_step -->
<g id="edge3" class="edge">
<title>sequence_data&#45;&gt;parse_fastq_list_rows_step</title>
<path fill="none" stroke="black" d="M374.64,-542.87C415.83,-474.08 569.34,-217.66 618.87,-134.92"/>
<polygon fill="black" stroke="black" points="621.99,-136.52 624.12,-126.15 615.99,-132.93 621.99,-136.52"/>
</g>
</g>
</svg>
