<?xml version="1.0" encoding="UTF-8" standalone="no"?>
<!DOCTYPE svg PUBLIC "-//W3C//DTD SVG 1.1//EN"
 "http://www.w3.org/Graphics/SVG/1.1/DTD/svg11.dtd">
<!-- Generated by graphviz version 2.43.0 (0)
 -->
<!-- Title: G Pages: 1 -->
<svg width="592pt" height="592pt"
 viewBox="0.00 0.00 592.37 592.00" xmlns="http://www.w3.org/2000/svg" xmlns:xlink="http://www.w3.org/1999/xlink">
<g id="graph0" class="graph" transform="scale(1 1) rotate(0) translate(4 588)">
<title>G</title>
<polygon fill="#eeeeee" stroke="transparent" points="-4,4 -4,-588 588.37,-588 588.37,4 -4,4"/>
<g id="clust1" class="cluster">
<title>cluster_inputs</title>
<polygon fill="#eeeeee" stroke="black" stroke-dasharray="5,2" points="71.14,-379.6 71.14,-564.53 448.14,-564.53 448.14,-379.6 71.14,-379.6"/>
<text text-anchor="middle" x="381.64" y="-387.4" font-family="Times,serif" font-size="14.00">Workflow Inputs</text>
</g>
<g id="clust2" class="cluster">
<title>cluster_outputs</title>
<polygon fill="#eeeeee" stroke="black" stroke-dasharray="5,2" points="64.14,-19.47 64.14,-204.4 550.14,-204.4 550.14,-19.47 64.14,-19.47"/>
<text text-anchor="middle" x="477.64" y="-27.27" font-family="Times,serif" font-size="14.00">Workflow Outputs</text>
</g>
<!-- snv_variant_caller_options -->
<g id="node1" class="node">
<title>snv_variant_caller_options</title>
<polygon fill="#94ddf4" stroke="black" points="78.64,-482.47 78.64,-518.47 283.64,-518.47 283.64,-482.47 78.64,-482.47"/>
<text text-anchor="middle" x="181.14" y="-496.77" font-family="Times,serif" font-size="14.00">snv_variant_caller_options</text>
</g>
<!-- parse_snv_variant_caller_options -->
<g id="node3" class="node">
<title>parse_snv_variant_caller_options</title>
<ellipse fill="none" stroke="black" cx="163.14" cy="-316.47" rx="163.27" ry="18"/>
<text text-anchor="middle" x="163.14" y="-312.77" font-family="Times,serif" font-size="14.00">parse_snv_variant_caller_options</text>
</g>
<!-- snv_variant_caller_options&#45;&gt;parse_snv_variant_caller_options -->
<g id="edge1" class="edge">
<title>snv_variant_caller_options&#45;&gt;parse_snv_variant_caller_options</title>
<path fill="none" stroke="black" d="M179.44,-482.34C176.32,-450.77 169.63,-383.14 165.86,-345.03"/>
<polygon fill="black" stroke="black" points="169.3,-344.28 164.84,-334.68 162.34,-344.97 169.3,-344.28"/>
</g>
<!-- sv_caller_options -->
<g id="node2" class="node">
<title>sv_caller_options</title>
<polygon fill="#94ddf4" stroke="black" points="302.14,-482.47 302.14,-518.47 440.14,-518.47 440.14,-482.47 302.14,-482.47"/>
<text text-anchor="middle" x="371.14" y="-496.77" font-family="Times,serif" font-size="14.00">sv_caller_options</text>
</g>
<!-- parse_sv_caller_options -->
<g id="node4" class="node">
<title>parse_sv_caller_options</title>
<ellipse fill="none" stroke="black" cx="464.14" cy="-316.47" rx="120.48" ry="18"/>
<text text-anchor="middle" x="464.14" y="-312.77" font-family="Times,serif" font-size="14.00">parse_sv_caller_options</text>
</g>
<!-- sv_caller_options&#45;&gt;parse_sv_caller_options -->
<g id="edge2" class="edge">
<title>sv_caller_options&#45;&gt;parse_sv_caller_options</title>
<path fill="none" stroke="black" d="M379.88,-482.34C396.16,-450.5 431.17,-381.98 450.55,-344.06"/>
<polygon fill="black" stroke="black" points="453.91,-345.17 455.34,-334.68 447.67,-341.99 453.91,-345.17"/>
</g>
<!-- snv_variant_caller_options_output -->
<g id="node5" class="node">
<title>snv_variant_caller_options_output</title>
<polygon fill="#94ddf4" stroke="black" points="72.64,-121.47 72.64,-157.47 331.64,-157.47 331.64,-121.47 72.64,-121.47"/>
<text text-anchor="middle" x="202.14" y="-135.77" font-family="Times,serif" font-size="14.00">snv_variant_caller_options_output</text>
</g>
<!-- parse_snv_variant_caller_options&#45;&gt;snv_variant_caller_options_output -->
<g id="edge3" class="edge">
<title>parse_snv_variant_caller_options&#45;&gt;snv_variant_caller_options_output</title>
<path fill="none" stroke="black" d="M166.95,-298.37C173.73,-267.92 187.96,-204.08 196.09,-167.58"/>
<polygon fill="black" stroke="black" points="199.55,-168.16 198.31,-157.63 192.72,-166.63 199.55,-168.16"/>
</g>
<!-- sv_caller_options_output -->
<g id="node6" class="node">
<title>sv_caller_options_output</title>
<polygon fill="#94ddf4" stroke="black" points="350.14,-121.47 350.14,-157.47 542.14,-157.47 542.14,-121.47 350.14,-121.47"/>
<text text-anchor="middle" x="446.14" y="-135.77" font-family="Times,serif" font-size="14.00">sv_caller_options_output</text>
</g>
<!-- parse_sv_caller_options&#45;&gt;sv_caller_options_output -->
<g id="edge4" class="edge">
<title>parse_sv_caller_options&#45;&gt;sv_caller_options_output</title>
<path fill="none" stroke="black" d="M462.38,-298.37C459.24,-267.92 452.68,-204.08 448.92,-167.58"/>
<polygon fill="black" stroke="black" points="452.41,-167.22 447.9,-157.63 445.44,-167.94 452.41,-167.22"/>
</g>
</g>
</svg>
