<?xml version="1.0" encoding="UTF-8" standalone="no"?>
<!DOCTYPE svg PUBLIC "-//W3C//DTD SVG 1.1//EN"
 "http://www.w3.org/Graphics/SVG/1.1/DTD/svg11.dtd">
<!-- Generated by graphviz version 2.43.0 (0)
 -->
<!-- Title: G Pages: 1 -->
<svg width="954pt" height="954pt"
 viewBox="0.00 0.00 954.14 954.00" xmlns="http://www.w3.org/2000/svg" xmlns:xlink="http://www.w3.org/1999/xlink">
<g id="graph0" class="graph" transform="scale(1 1) rotate(0) translate(4 950)">
<title>G</title>
<polygon fill="#eeeeee" stroke="transparent" points="-4,4 -4,-950 950.14,-950 950.14,4 -4,4"/>
<g id="clust1" class="cluster">
<title>cluster_inputs</title>
<polygon fill="#eeeeee" stroke="black" stroke-dasharray="5,2" points="299,-692.93 299,-921.9 463,-921.9 463,-692.93 299,-692.93"/>
<text text-anchor="middle" x="396.5" y="-700.73" font-family="Times,serif" font-size="14.00">Workflow Inputs</text>
</g>
<g id="clust2" class="cluster">
<title>cluster_outputs</title>
<polygon fill="#eeeeee" stroke="black" stroke-dasharray="5,2" points="259,-24.1 259,-253.07 477,-253.07 477,-24.1 259,-24.1"/>
<text text-anchor="middle" x="404.5" y="-31.9" font-family="Times,serif" font-size="14.00">Workflow Outputs</text>
</g>
<!-- coerce_mapper_options_step -->
<g id="node1" class="node">
<title>coerce_mapper_options_step</title>
<polygon fill="#f3cea1" stroke="black" points="0,-595.1 0,-631.1 340,-631.1 340,-595.1 0,-595.1"/>
<text text-anchor="middle" x="170" y="-609.4" font-family="Times,serif" font-size="14.00">dragen&#45;create&#45;mapper&#45;options&#45;object v(4.4.4)</text>
</g>
<!-- coerce_alignment_options -->
<g id="node2" class="node">
<title>coerce_alignment_options</title>
<polygon fill="lightgoldenrodyellow" stroke="black" points="196,-375.1 196,-411.1 540,-411.1 540,-375.1 196,-375.1"/>
<text text-anchor="middle" x="368" y="-389.4" font-family="Times,serif" font-size="14.00">dragen&#45;wgts&#45;parse&#45;alignment&#45;schema v(4.4.4)</text>
</g>
<!-- coerce_mapper_options_step&#45;&gt;coerce_alignment_options -->
<g id="edge1" class="edge">
<title>coerce_mapper_options_step&#45;&gt;coerce_alignment_options</title>
<path fill="none" stroke="black" d="M185.54,-595C220.45,-556.55 305.23,-463.21 345.74,-418.61"/>
<polygon fill="black" stroke="black" points="348.4,-420.88 352.54,-411.13 343.22,-416.18 348.4,-420.88"/>
</g>
<!-- alignment_options_output -->
<g id="node6" class="node">
<title>alignment_options_output</title>
<polygon fill="#94ddf4" stroke="black" points="267,-155.1 267,-191.1 469,-191.1 469,-155.1 267,-155.1"/>
<text text-anchor="middle" x="368" y="-169.4" font-family="Times,serif" font-size="14.00">alignment_options_output</text>
</g>
<!-- coerce_alignment_options&#45;&gt;alignment_options_output -->
<g id="edge7" class="edge">
<title>coerce_alignment_options&#45;&gt;alignment_options_output</title>
<path fill="none" stroke="black" d="M368,-375C368,-337.27 368,-246.67 368,-201.15"/>
<polygon fill="black" stroke="black" points="371.5,-201.13 368,-191.13 364.5,-201.13 371.5,-201.13"/>
</g>
<!-- coerce_aligner_options_step -->
<g id="node3" class="node">
<title>coerce_aligner_options_step</title>
<polygon fill="#f3cea1" stroke="black" points="396.5,-595.1 396.5,-631.1 731.5,-631.1 731.5,-595.1 396.5,-595.1"/>
<text text-anchor="middle" x="564" y="-609.4" font-family="Times,serif" font-size="14.00">dragen&#45;create&#45;aligner&#45;options&#45;object v(4.4.4)</text>
</g>
<!-- coerce_aligner_options_step&#45;&gt;coerce_alignment_options -->
<g id="edge2" class="edge">
<title>coerce_aligner_options_step&#45;&gt;coerce_alignment_options</title>
<path fill="none" stroke="black" d="M548.62,-595C514.06,-556.55 430.13,-463.21 390.04,-418.61"/>
<polygon fill="black" stroke="black" points="392.6,-416.22 383.31,-411.13 387.39,-420.9 392.6,-416.22"/>
</g>
<!-- alignment_options -->
<g id="node4" class="node">
<title>alignment_options</title>
<polygon fill="#94ddf4" stroke="black" points="307,-824.1 307,-860.1 455,-860.1 455,-824.1 307,-824.1"/>
<text text-anchor="middle" x="381" y="-838.4" font-family="Times,serif" font-size="14.00">alignment_options</text>
</g>
<!-- alignment_options&#45;&gt;coerce_mapper_options_step -->
<g id="edge5" class="edge">
<title>alignment_options&#45;&gt;coerce_mapper_options_step</title>
<path fill="none" stroke="black" d="M365.14,-824.04C328.18,-784.27 236.17,-685.29 193.02,-638.87"/>
<polygon fill="black" stroke="black" points="195.42,-636.3 186.04,-631.36 190.29,-641.07 195.42,-636.3"/>
</g>
<!-- alignment_options&#45;&gt;coerce_alignment_options -->
<g id="edge4" class="edge">
<title>alignment_options&#45;&gt;coerce_alignment_options</title>
<path fill="none" stroke="black" d="M380.5,-823.85C378.52,-755.76 371.23,-505.28 368.8,-421.56"/>
<polygon fill="black" stroke="black" points="372.3,-421.43 368.51,-411.54 365.3,-421.64 372.3,-421.43"/>
</g>
<!-- alignment_options&#45;&gt;coerce_aligner_options_step -->
<g id="edge3" class="edge">
<title>alignment_options&#45;&gt;coerce_aligner_options_step</title>
<path fill="none" stroke="black" d="M394.75,-824.04C426.75,-784.35 506.28,-685.7 543.8,-639.16"/>
<polygon fill="black" stroke="black" points="546.53,-641.34 550.09,-631.36 541.08,-636.95 546.53,-641.34"/>
</g>
<!-- parse_qc_coverage -->
<g id="node5" class="node">
<title>parse_qc_coverage</title>
<ellipse fill="none" stroke="black" cx="848" cy="-613.1" rx="98.28" ry="18"/>
<text text-anchor="middle" x="848" y="-609.4" font-family="Times,serif" font-size="14.00">parse_qc_coverage</text>
</g>
<!-- alignment_options&#45;&gt;parse_qc_coverage -->
<g id="edge6" class="edge">
<title>alignment_options&#45;&gt;parse_qc_coverage</title>
<path fill="none" stroke="black" d="M416.1,-824.04C500.51,-783.01 714.59,-678.95 805.8,-634.61"/>
<polygon fill="black" stroke="black" points="807.55,-637.66 815.01,-630.14 804.49,-631.36 807.55,-637.66"/>
</g>
</g>
</svg>
