<?xml version="1.0" encoding="UTF-8" standalone="no"?>
<!DOCTYPE svg PUBLIC "-//W3C//DTD SVG 1.1//EN"
 "http://www.w3.org/Graphics/SVG/1.1/DTD/svg11.dtd">
<!-- Generated by graphviz version 2.43.0 (0)
 -->
<!-- Title: G Pages: 1 -->
<svg width="249pt" height="248pt"
 viewBox="0.00 0.00 248.94 248.00" xmlns="http://www.w3.org/2000/svg" xmlns:xlink="http://www.w3.org/1999/xlink">
<g id="graph0" class="graph" transform="scale(1 1) rotate(0) translate(4 244)">
<title>G</title>
<polygon fill="#eeeeee" stroke="transparent" points="-4,4 -4,-244 244.94,-244 244.94,4 -4,4"/>
<g id="clust1" class="cluster">
<title>cluster_inputs</title>
<polygon fill="#eeeeee" stroke="black" stroke-dasharray="5,2" points="44.4,-156 44.4,-232 196.54,-232 196.54,-156 44.4,-156"/>
<text text-anchor="middle" x="130.04" y="-163.8" font-family="Times,serif" font-size="14.00">Workflow Inputs</text>
</g>
<g id="clust2" class="cluster">
<title>cluster_outputs</title>
<polygon fill="#eeeeee" stroke="black" stroke-dasharray="5,2" points="15.47,-8 15.47,-84 225.47,-84 225.47,-8 15.47,-8"/>
<text text-anchor="middle" x="152.97" y="-15.8" font-family="Times,serif" font-size="14.00">Workflow Outputs</text>
</g>
<!-- aligner_options -->
<g id="node1" class="node">
<title>aligner_options</title>
<polygon fill="#94ddf4" stroke="black" points="57.47,-188 57.47,-224 183.47,-224 183.47,-188 57.47,-188"/>
<text text-anchor="middle" x="120.47" y="-202.3" font-family="Times,serif" font-size="14.00">aligner_options</text>
</g>
<!-- parse_aligner_options -->
<g id="node2" class="node">
<title>parse_aligner_options</title>
<ellipse fill="none" stroke="black" cx="120.47" cy="-130" rx="112.38" ry="18"/>
<text text-anchor="middle" x="120.47" y="-126.3" font-family="Times,serif" font-size="14.00">parse_aligner_options</text>
</g>
<!-- aligner_options&#45;&gt;parse_aligner_options -->
<g id="edge1" class="edge">
<title>aligner_options&#45;&gt;parse_aligner_options</title>
<path fill="none" stroke="black" d="M120.47,-187.84C120.47,-179.06 120.47,-168.16 120.47,-158.27"/>
<polygon fill="black" stroke="black" points="123.97,-158.07 120.47,-148.07 116.97,-158.07 123.97,-158.07"/>
</g>
<!-- aligner_options_output -->
<g id="node3" class="node">
<title>aligner_options_output</title>
<polygon fill="#94ddf4" stroke="black" points="30.47,-40 30.47,-76 210.47,-76 210.47,-40 30.47,-40"/>
<text text-anchor="middle" x="120.47" y="-54.3" font-family="Times,serif" font-size="14.00">aligner_options_output</text>
</g>
<!-- parse_aligner_options&#45;&gt;aligner_options_output -->
<g id="edge2" class="edge">
<title>parse_aligner_options&#45;&gt;aligner_options_output</title>
<path fill="none" stroke="black" d="M120.47,-111.7C120.47,-103.98 120.47,-94.71 120.47,-86.11"/>
<polygon fill="black" stroke="black" points="123.97,-86.1 120.47,-76.1 116.97,-86.1 123.97,-86.1"/>
</g>
</g>
</svg>
