<?xml version="1.0" encoding="UTF-8" standalone="no"?>
<!DOCTYPE svg PUBLIC "-//W3C//DTD SVG 1.1//EN"
 "http://www.w3.org/Graphics/SVG/1.1/DTD/svg11.dtd">
<!-- Generated by graphviz version 2.43.0 (0)
 -->
<!-- Title: G Pages: 1 -->
<svg width="616pt" height="616pt"
 viewBox="0.00 0.00 616.07 616.00" xmlns="http://www.w3.org/2000/svg" xmlns:xlink="http://www.w3.org/1999/xlink">
<g id="graph0" class="graph" transform="scale(1 1) rotate(0) translate(4 612)">
<title>G</title>
<polygon fill="#eeeeee" stroke="transparent" points="-4,4 -4,-612 612.07,-612 612.07,4 -4,4"/>
<g id="clust1" class="cluster">
<title>cluster_inputs</title>
<polygon fill="#eeeeee" stroke="black" stroke-dasharray="5,2" points="216.89,-395.2 216.89,-587.73 358.89,-587.73 358.89,-395.2 216.89,-395.2"/>
<text text-anchor="middle" x="292.39" y="-403" font-family="Times,serif" font-size="14.00">Workflow Inputs</text>
</g>
<g id="clust2" class="cluster">
<title>cluster_outputs</title>
<polygon fill="#eeeeee" stroke="black" stroke-dasharray="5,2" points="370.89,-20.27 370.89,-212.8 522.89,-212.8 522.89,-20.27 370.89,-20.27"/>
<text text-anchor="middle" x="450.39" y="-28.07" font-family="Times,serif" font-size="14.00">Workflow Outputs</text>
</g>
<!-- dragen_options -->
<g id="node1" class="node">
<title>dragen_options</title>
<polygon fill="#94ddf4" stroke="black" points="224.89,-502.27 224.89,-538.27 350.89,-538.27 350.89,-502.27 224.89,-502.27"/>
<text text-anchor="middle" x="287.89" y="-516.57" font-family="Times,serif" font-size="14.00">dragen_options</text>
</g>
<!-- parse_sequence_data_step -->
<g id="node2" class="node">
<title>parse_sequence_data_step</title>
<ellipse fill="none" stroke="black" cx="133.89" cy="-329.27" rx="133.78" ry="18"/>
<text text-anchor="middle" x="133.89" y="-325.57" font-family="Times,serif" font-size="14.00">parse_sequence_data_step</text>
</g>
<!-- dragen_options&#45;&gt;parse_sequence_data_step -->
<g id="edge1" class="edge">
<title>dragen_options&#45;&gt;parse_sequence_data_step</title>
<path fill="none" stroke="black" d="M273.95,-502.16C246.69,-468.71 186.22,-394.49 154.39,-355.42"/>
<polygon fill="black" stroke="black" points="156.71,-352.74 147.68,-347.2 151.29,-357.16 156.71,-352.74"/>
</g>
<!-- run_dragen_variant_calling_step -->
<g id="node3" class="node">
<title>run_dragen_variant_calling_step</title>
<ellipse fill="none" stroke="black" cx="446.89" cy="-329.27" rx="161.37" ry="18"/>
<text text-anchor="middle" x="446.89" y="-325.57" font-family="Times,serif" font-size="14.00">run_dragen_variant_calling_step</text>
</g>
<!-- dragen_options&#45;&gt;run_dragen_variant_calling_step -->
<g id="edge2" class="edge">
<title>dragen_options&#45;&gt;run_dragen_variant_calling_step</title>
<path fill="none" stroke="black" d="M302.28,-502.16C330.54,-468.57 393.39,-393.86 426.14,-354.93"/>
<polygon fill="black" stroke="black" points="428.89,-357.1 432.64,-347.2 423.53,-352.6 428.89,-357.1"/>
</g>
<!-- output_directory -->
<g id="node4" class="node">
<title>output_directory</title>
<polygon fill="#94ddf4" stroke="black" points="378.89,-127.27 378.89,-163.27 514.89,-163.27 514.89,-127.27 378.89,-127.27"/>
<text text-anchor="middle" x="446.89" y="-141.57" font-family="Times,serif" font-size="14.00">output_directory</text>
</g>
<!-- run_dragen_variant_calling_step&#45;&gt;output_directory -->
<g id="edge3" class="edge">
<title>run_dragen_variant_calling_step&#45;&gt;output_directory</title>
<path fill="none" stroke="black" d="M446.89,-311.14C446.89,-279.57 446.89,-211.94 446.89,-173.83"/>
<polygon fill="black" stroke="black" points="450.39,-173.48 446.89,-163.48 443.39,-173.48 450.39,-173.48"/>
</g>
</g>
</svg>
