<?xml version="1.0" encoding="UTF-8" standalone="no"?>
<!DOCTYPE svg PUBLIC "-//W3C//DTD SVG 1.1//EN"
 "http://www.w3.org/Graphics/SVG/1.1/DTD/svg11.dtd">
<!-- Generated by graphviz version 2.43.0 (0)
 -->
<!-- Title: G Pages: 1 -->
<svg width="458pt" height="457pt"
 viewBox="0.00 0.00 457.78 457.00" xmlns="http://www.w3.org/2000/svg" xmlns:xlink="http://www.w3.org/1999/xlink">
<g id="graph0" class="graph" transform="scale(1 1) rotate(0) translate(4 453)">
<title>G</title>
<polygon fill="#eeeeee" stroke="transparent" points="-4,4 -4,-453 453.78,-453 453.78,4 -4,4"/>
<g id="clust1" class="cluster">
<title>cluster_inputs</title>
<polygon fill="#eeeeee" stroke="black" stroke-dasharray="5,2" points="152.29,-154.34 152.29,-420.94 292.29,-420.94 292.29,-154.34 152.29,-154.34"/>
<text text-anchor="middle" x="225.79" y="-162.14" font-family="Times,serif" font-size="14.00">Workflow Inputs</text>
</g>
<!-- fastq_list_rows -->
<g id="node1" class="node">
<title>fastq_list_rows</title>
<polygon fill="#94ddf4" stroke="black" points="160.79,-310 160.79,-346 283.79,-346 283.79,-310 160.79,-310"/>
<text text-anchor="middle" x="222.29" y="-324.3" font-family="Times,serif" font-size="14.00">fastq_list_rows</text>
</g>
<!-- parse_fastq_list_row -->
<g id="node2" class="node">
<title>parse_fastq_list_row</title>
<ellipse fill="none" stroke="black" cx="105.29" cy="-63" rx="105.08" ry="18"/>
<text text-anchor="middle" x="105.29" y="-59.3" font-family="Times,serif" font-size="14.00">parse_fastq_list_row</text>
</g>
<!-- fastq_list_rows&#45;&gt;parse_fastq_list_row -->
<g id="edge1" class="edge">
<title>fastq_list_rows&#45;&gt;parse_fastq_list_row</title>
<path fill="none" stroke="black" d="M214.61,-309.74C194.61,-264.77 140.78,-143.77 116.93,-90.17"/>
<polygon fill="black" stroke="black" points="120.11,-88.69 112.84,-80.98 113.71,-91.54 120.11,-88.69"/>
</g>
<!-- parse_fastq_list_rows -->
<g id="node3" class="node">
<title>parse_fastq_list_rows</title>
<ellipse fill="none" stroke="black" cx="339.29" cy="-63" rx="110.48" ry="18"/>
<text text-anchor="middle" x="339.29" y="-59.3" font-family="Times,serif" font-size="14.00">parse_fastq_list_rows</text>
</g>
<!-- fastq_list_rows&#45;&gt;parse_fastq_list_rows -->
<g id="edge2" class="edge">
<title>fastq_list_rows&#45;&gt;parse_fastq_list_rows</title>
<path fill="none" stroke="black" d="M229.97,-309.74C249.97,-264.77 303.8,-143.77 327.65,-90.17"/>
<polygon fill="black" stroke="black" points="330.87,-91.54 331.74,-80.98 324.48,-88.69 330.87,-91.54"/>
</g>
</g>
</svg>
