<?xml version="1.0" encoding="UTF-8" standalone="no"?>
<!DOCTYPE svg PUBLIC "-//W3C//DTD SVG 1.1//EN"
 "http://www.w3.org/Graphics/SVG/1.1/DTD/svg11.dtd">
<!-- Generated by graphviz version 2.43.0 (0)
 -->
<!-- Title: G Pages: 1 -->
<svg width="4635pt" height="1466pt"
 viewBox="0.00 0.00 4635.00 1465.50" xmlns="http://www.w3.org/2000/svg" xmlns:xlink="http://www.w3.org/1999/xlink">
<g id="graph0" class="graph" transform="scale(1 1) rotate(0) translate(4 1461.5)">
<title>G</title>
<polygon fill="#eeeeee" stroke="transparent" points="-4,4 -4,-1461.5 4631,-1461.5 4631,4 -4,4"/>
<g id="clust1" class="cluster">
<title>cluster_inputs</title>
<polygon fill="#eeeeee" stroke="black" stroke-dasharray="5,2" points="8,-1141.15 8,-1427.38 4619,-1427.38 4619,-1141.15 8,-1141.15"/>
<text text-anchor="middle" x="4552.5" y="-1148.95" font-family="Times,serif" font-size="14.00">Workflow Inputs</text>
</g>
<g id="clust2" class="cluster">
<title>cluster_outputs</title>
<polygon fill="#eeeeee" stroke="black" stroke-dasharray="5,2" points="2322,-30.13 2322,-316.36 3232,-316.36 3232,-30.13 2322,-30.13"/>
<text text-anchor="middle" x="3159.5" y="-37.93" font-family="Times,serif" font-size="14.00">Workflow Outputs</text>
</g>
<!-- run_reheader_sequence_data_step -->
<g id="node1" class="node">
<title>run_reheader_sequence_data_step</title>
<polygon fill="lightgoldenrodyellow" stroke="black" points="2293,-1023.13 2293,-1059.13 2613,-1059.13 2613,-1023.13 2293,-1023.13"/>
<text text-anchor="middle" x="2453" y="-1037.43" font-family="Times,serif" font-size="14.00">rename&#45;rgsm&#45;in&#45;alignment&#45;header v(1.0.0)</text>
</g>
<!-- run_dragen_variant_calling_stage -->
<g id="node2" class="node">
<title>run_dragen_variant_calling_stage</title>
<polygon fill="#f3cea1" stroke="black" points="653.5,-748.13 653.5,-784.13 930.5,-784.13 930.5,-748.13 653.5,-748.13"/>
<text text-anchor="middle" x="792" y="-762.43" font-family="Times,serif" font-size="14.00">dragen&#45;variant&#45;calling&#45;stage v(4.4.4)</text>
</g>
<!-- run_reheader_sequence_data_step&#45;&gt;run_dragen_variant_calling_stage -->
<g id="edge1" class="edge">
<title>run_reheader_sequence_data_step&#45;&gt;run_dragen_variant_calling_stage</title>
<path fill="none" stroke="black" d="M2349.41,-1023.1C2054.68,-974.66 1213,-836.32 905.91,-785.85"/>
<polygon fill="black" stroke="black" points="906.09,-782.33 895.65,-784.17 904.95,-789.24 906.09,-782.33"/>
</g>
<!-- run_dragen_variant_calling_stage_tumor -->
<g id="node7" class="node">
<title>run_dragen_variant_calling_stage_tumor</title>
<polygon fill="#f3cea1" stroke="black" points="2692.5,-748.13 2692.5,-784.13 2969.5,-784.13 2969.5,-748.13 2692.5,-748.13"/>
<text text-anchor="middle" x="2831" y="-762.43" font-family="Times,serif" font-size="14.00">dragen&#45;variant&#45;calling&#45;stage v(4.4.4)</text>
</g>
<!-- run_reheader_sequence_data_step&#45;&gt;run_dragen_variant_calling_stage_tumor -->
<g id="edge13" class="edge">
<title>run_reheader_sequence_data_step&#45;&gt;run_dragen_variant_calling_stage_tumor</title>
<path fill="none" stroke="black" d="M2476.65,-1023.05C2541.88,-975.94 2724.45,-844.08 2798.84,-790.35"/>
<polygon fill="black" stroke="black" points="2801.31,-792.89 2807.36,-784.2 2797.21,-787.22 2801.31,-792.89"/>
</g>
<!-- run_multiqc -->
<g id="node9" class="node">
<title>run_multiqc</title>
<polygon fill="lightgoldenrodyellow" stroke="black" points="4302.5,-473.13 4302.5,-509.13 4441.5,-509.13 4441.5,-473.13 4302.5,-473.13"/>
<text text-anchor="middle" x="4372" y="-487.43" font-family="Times,serif" font-size="14.00">multiqc v(1.25.0)</text>
</g>
<!-- run_dragen_variant_calling_stage&#45;&gt;run_multiqc -->
<g id="edge15" class="edge">
<title>run_dragen_variant_calling_stage&#45;&gt;run_multiqc</title>
<path fill="none" stroke="black" d="M930.69,-754.55C1523.16,-709.37 3832.38,-533.28 4292.13,-498.22"/>
<polygon fill="black" stroke="black" points="4292.62,-501.69 4302.33,-497.44 4292.09,-494.71 4292.62,-501.69"/>
</g>
<!-- dragen_variant_calling_output_directory -->
<g id="node34" class="node">
<title>dragen_variant_calling_output_directory</title>
<polygon fill="#94ddf4" stroke="black" points="2330.5,-198.13 2330.5,-234.13 2635.5,-234.13 2635.5,-198.13 2330.5,-198.13"/>
<text text-anchor="middle" x="2483" y="-212.43" font-family="Times,serif" font-size="14.00">dragen_variant_calling_output_directory</text>
</g>
<!-- run_dragen_variant_calling_stage&#45;&gt;dragen_variant_calling_output_directory -->
<g id="edge66" class="edge">
<title>run_dragen_variant_calling_stage&#45;&gt;dragen_variant_calling_output_directory</title>
<path fill="none" stroke="black" d="M844.46,-748.13C1093.09,-667.56 2151.84,-324.45 2420.71,-237.32"/>
<polygon fill="black" stroke="black" points="2421.88,-240.62 2430.31,-234.2 2419.72,-233.96 2421.88,-240.62"/>
</g>
<!-- run_get_variant_calling_options_as_schemas_step -->
<g id="node3" class="node">
<title>run_get_variant_calling_options_as_schemas_step</title>
<polygon fill="#f3cea1" stroke="black" points="563,-1023.13 563,-1059.13 1021,-1059.13 1021,-1023.13 563,-1023.13"/>
<text text-anchor="middle" x="792" y="-1037.43" font-family="Times,serif" font-size="14.00">dragen&#45;create&#45;wgts&#45;dna&#45;variant&#45;calling&#45;options&#45;object v(4.4.4)</text>
</g>
<!-- run_get_variant_calling_options_as_schemas_step&#45;&gt;run_dragen_variant_calling_stage -->
<g id="edge2" class="edge">
<title>run_get_variant_calling_options_as_schemas_step&#45;&gt;run_dragen_variant_calling_stage</title>
<path fill="none" stroke="black" d="M788.51,-1023.05C784.43,-977.09 784.18,-850.46 787.75,-794.42"/>
<polygon fill="black" stroke="black" points="791.26,-794.43 788.51,-784.2 784.28,-793.91 791.26,-794.43"/>
</g>
<!-- run_get_variant_calling_options_as_schemas_step&#45;&gt;run_dragen_variant_calling_stage -->
<g id="edge5" class="edge">
<title>run_get_variant_calling_options_as_schemas_step&#45;&gt;run_dragen_variant_calling_stage</title>
<path fill="none" stroke="black" d="M795.49,-1023.05C799.57,-977.09 799.82,-850.46 796.25,-794.42"/>
<polygon fill="black" stroke="black" points="799.72,-793.91 795.49,-784.2 792.74,-794.43 799.72,-793.91"/>
</g>
<!-- run_get_variant_calling_options_as_schemas_step&#45;&gt;run_dragen_variant_calling_stage_tumor -->
<g id="edge9" class="edge">
<title>run_get_variant_calling_options_as_schemas_step&#45;&gt;run_dragen_variant_calling_stage_tumor</title>
<path fill="none" stroke="black" d="M915.68,-1023.1C1274.06,-974.54 2311.46,-835.64 2690.35,-785.48"/>
<polygon fill="black" stroke="black" points="2690.82,-788.95 2700.27,-784.17 2689.9,-782.01 2690.82,-788.95"/>
</g>
<!-- run_get_variant_calling_options_as_schemas_step&#45;&gt;run_dragen_variant_calling_stage_tumor -->
<g id="edge12" class="edge">
<title>run_get_variant_calling_options_as_schemas_step&#45;&gt;run_dragen_variant_calling_stage_tumor</title>
<path fill="none" stroke="black" d="M922.65,-1023.1C1289.57,-974.55 2326.63,-835.71 2697.27,-785.52"/>
<polygon fill="black" stroke="black" points="2697.8,-788.98 2707.24,-784.17 2696.86,-782.04 2697.8,-788.98"/>
</g>
<!-- run_nirvana_annotation_data_step -->
<g id="node4" class="node">
<title>run_nirvana_annotation_data_step</title>
<polygon fill="lightgoldenrodyellow" stroke="black" points="2003,-1023.13 2003,-1059.13 2275,-1059.13 2275,-1023.13 2003,-1023.13"/>
<text text-anchor="middle" x="2139" y="-1037.43" font-family="Times,serif" font-size="14.00">dragen&#45;nirvana&#45;downloader v(4.4.4)</text>
</g>
<!-- run_nirvana_annotation_data_step&#45;&gt;run_dragen_variant_calling_stage -->
<g id="edge3" class="edge">
<title>run_nirvana_annotation_data_step&#45;&gt;run_dragen_variant_calling_stage</title>
<path fill="none" stroke="black" d="M2054.99,-1023.1C1816.53,-974.77 1136.51,-836.95 886.08,-786.2"/>
<polygon fill="black" stroke="black" points="886.77,-782.77 876.27,-784.21 885.38,-789.63 886.77,-782.77"/>
</g>
<!-- run_nirvana_annotation_data_step&#45;&gt;run_dragen_variant_calling_stage_tumor -->
<g id="edge10" class="edge">
<title>run_nirvana_annotation_data_step&#45;&gt;run_dragen_variant_calling_stage_tumor</title>
<path fill="none" stroke="black" d="M2182.29,-1023.05C2303.53,-975.22 2646.19,-840.04 2778.22,-787.95"/>
<polygon fill="black" stroke="black" points="2779.71,-791.13 2787.73,-784.2 2777.14,-784.61 2779.71,-791.13"/>
</g>
<!-- run_get_dragen_configuration_options_step -->
<g id="node5" class="node">
<title>run_get_dragen_configuration_options_step</title>
<polygon fill="lightgoldenrodyellow" stroke="black" points="1529.5,-1023.13 1529.5,-1059.13 1870.5,-1059.13 1870.5,-1023.13 1529.5,-1023.13"/>
<text text-anchor="middle" x="1700" y="-1037.43" font-family="Times,serif" font-size="14.00">get&#45;dragen&#45;default&#45;configuration&#45;json v(4.4.4)</text>
</g>
<!-- run_get_dragen_configuration_options_step&#45;&gt;run_dragen_variant_calling_stage -->
<g id="edge4" class="edge">
<title>run_get_dragen_configuration_options_step&#45;&gt;run_dragen_variant_calling_stage</title>
<path fill="none" stroke="black" d="M1643.2,-1023.05C1483.24,-974.96 1029.54,-838.55 858.42,-787.1"/>
<polygon fill="black" stroke="black" points="859.36,-783.73 848.78,-784.2 857.35,-790.43 859.36,-783.73"/>
</g>
<!-- run_get_dragen_configuration_options_step&#45;&gt;run_dragen_variant_calling_stage_tumor -->
<g id="edge8" class="edge">
<title>run_get_dragen_configuration_options_step&#45;&gt;run_dragen_variant_calling_stage_tumor</title>
<path fill="none" stroke="black" d="M1770.75,-1023.05C1970.69,-974.79 2539.06,-837.6 2750.48,-786.56"/>
<polygon fill="black" stroke="black" points="2751.38,-789.95 2760.28,-784.2 2749.74,-783.14 2751.38,-789.95"/>
</g>
<!-- run_get_default_alignment_options_schema_step -->
<g id="node6" class="node">
<title>run_get_default_alignment_options_schema_step</title>
<polygon fill="#f3cea1" stroke="black" points="1039,-1023.13 1039,-1059.13 1435,-1059.13 1435,-1023.13 1039,-1023.13"/>
<text text-anchor="middle" x="1237" y="-1037.43" font-family="Times,serif" font-size="14.00">dragen&#45;create&#45;wgts&#45;alignment&#45;options&#45;object v(4.4.4)</text>
</g>
<!-- run_get_default_alignment_options_schema_step&#45;&gt;run_dragen_variant_calling_stage -->
<g id="edge6" class="edge">
<title>run_get_default_alignment_options_schema_step&#45;&gt;run_dragen_variant_calling_stage</title>
<path fill="none" stroke="black" d="M1209.16,-1023.05C1131.98,-975.7 915.24,-842.74 828.53,-789.54"/>
<polygon fill="black" stroke="black" points="830.18,-786.45 819.83,-784.2 826.52,-792.41 830.18,-786.45"/>
</g>
<!-- run_get_default_alignment_options_schema_step&#45;&gt;run_dragen_variant_calling_stage_tumor -->
<g id="edge7" class="edge">
<title>run_get_default_alignment_options_schema_step&#45;&gt;run_dragen_variant_calling_stage_tumor</title>
<path fill="none" stroke="black" d="M1336.41,-1023.1C1619.11,-974.69 2426.18,-836.46 2721.25,-785.93"/>
<polygon fill="black" stroke="black" points="2722.26,-789.3 2731.53,-784.17 2721.08,-782.4 2722.26,-789.3"/>
</g>
<!-- run_dragen_variant_calling_stage_tumor&#45;&gt;run_multiqc -->
<g id="edge14" class="edge">
<title>run_dragen_variant_calling_stage_tumor&#45;&gt;run_multiqc</title>
<path fill="none" stroke="black" d="M2927.11,-748.1C3209.34,-698.1 4032.19,-552.33 4292.25,-506.26"/>
<polygon fill="black" stroke="black" points="4293.13,-509.66 4302.36,-504.47 4291.91,-502.76 4293.13,-509.66"/>
</g>
<!-- dragen_variant_calling_output_directory_tumor -->
<g id="node35" class="node">
<title>dragen_variant_calling_output_directory_tumor</title>
<polygon fill="#94ddf4" stroke="black" points="2653.5,-198.13 2653.5,-234.13 3008.5,-234.13 3008.5,-198.13 2653.5,-198.13"/>
<text text-anchor="middle" x="2831" y="-212.43" font-family="Times,serif" font-size="14.00">dragen_variant_calling_output_directory_tumor</text>
</g>
<!-- run_dragen_variant_calling_stage_tumor&#45;&gt;dragen_variant_calling_output_directory_tumor -->
<g id="edge67" class="edge">
<title>run_dragen_variant_calling_stage_tumor&#45;&gt;dragen_variant_calling_output_directory_tumor</title>
<path fill="none" stroke="black" d="M2831,-748.13C2831,-669.59 2831,-341.58 2831,-244.38"/>
<polygon fill="black" stroke="black" points="2834.5,-244.2 2831,-234.2 2827.5,-244.2 2834.5,-244.2"/>
</g>
<!-- run_reheader_sequence_data_step_tumor -->
<g id="node8" class="node">
<title>run_reheader_sequence_data_step_tumor</title>
<polygon fill="lightgoldenrodyellow" stroke="black" points="2897,-1023.13 2897,-1059.13 3217,-1059.13 3217,-1023.13 2897,-1023.13"/>
<text text-anchor="middle" x="3057" y="-1037.43" font-family="Times,serif" font-size="14.00">rename&#45;rgsm&#45;in&#45;alignment&#45;header v(1.0.0)</text>
</g>
<!-- run_reheader_sequence_data_step_tumor&#45;&gt;run_dragen_variant_calling_stage_tumor -->
<g id="edge11" class="edge">
<title>run_reheader_sequence_data_step_tumor&#45;&gt;run_dragen_variant_calling_stage_tumor</title>
<path fill="none" stroke="black" d="M3042.86,-1023.05C3004.26,-976.42 2896.91,-846.75 2851.6,-792.02"/>
<polygon fill="black" stroke="black" points="2854.2,-789.67 2845.13,-784.2 2848.81,-794.14 2854.2,-789.67"/>
</g>
<!-- multiqc_output_directory -->
<g id="node36" class="node">
<title>multiqc_output_directory</title>
<polygon fill="#94ddf4" stroke="black" points="3026.5,-198.13 3026.5,-234.13 3223.5,-234.13 3223.5,-198.13 3026.5,-198.13"/>
<text text-anchor="middle" x="3125" y="-212.43" font-family="Times,serif" font-size="14.00">multiqc_output_directory</text>
</g>
<!-- run_multiqc&#45;&gt;multiqc_output_directory -->
<g id="edge68" class="edge">
<title>run_multiqc&#45;&gt;multiqc_output_directory</title>
<path fill="none" stroke="black" d="M4302.28,-474.87C4089.41,-428.26 3448.05,-287.85 3212.77,-236.34"/>
<polygon fill="black" stroke="black" points="3213.4,-232.9 3202.89,-234.18 3211.91,-239.74 3213.4,-232.9"/>
</g>
<!-- cnv_caller_options -->
<g id="node10" class="node">
<title>cnv_caller_options</title>
<polygon fill="#94ddf4" stroke="black" points="1804.5,-1309.13 1804.5,-1345.13 1951.5,-1345.13 1951.5,-1309.13 1804.5,-1309.13"/>
<text text-anchor="middle" x="1878" y="-1323.43" font-family="Times,serif" font-size="14.00">cnv_caller_options</text>
</g>
<!-- cnv_caller_options&#45;&gt;run_dragen_variant_calling_stage -->
<g id="edge16" class="edge">
<title>cnv_caller_options&#45;&gt;run_dragen_variant_calling_stage</title>
<path fill="none" stroke="black" d="M1854.4,-1309.05C1838.6,-1298.43 1816.94,-1285.37 1796,-1277.63 1270.3,-1083.39 914.41,-1488.81 554,-1059.63 470.13,-959.76 660.89,-838.21 749.66,-789.19"/>
<polygon fill="black" stroke="black" points="751.59,-792.12 758.69,-784.26 748.24,-785.98 751.59,-792.12"/>
</g>
<!-- cnv_caller_options&#45;&gt;run_dragen_variant_calling_stage_tumor -->
<g id="edge17" class="edge">
<title>cnv_caller_options&#45;&gt;run_dragen_variant_calling_stage_tumor</title>
<path fill="none" stroke="black" d="M1903.69,-1308.95C1919.68,-1298.82 1940.94,-1286.33 1961,-1277.63 2272.44,-1142.59 2435.51,-1280.82 2693,-1059.63 2777.4,-987.13 2813.83,-851.6 2825.98,-794.07"/>
<polygon fill="black" stroke="black" points="2829.41,-794.76 2827.97,-784.27 2822.55,-793.37 2829.41,-794.76"/>
</g>
<!-- lic_instance_id_location -->
<g id="node11" class="node">
<title>lic_instance_id_location</title>
<polygon fill="#94ddf4" stroke="black" points="859.5,-1309.13 859.5,-1345.13 1042.5,-1345.13 1042.5,-1309.13 859.5,-1309.13"/>
<text text-anchor="middle" x="951" y="-1323.43" font-family="Times,serif" font-size="14.00">lic_instance_id_location</text>
</g>
<!-- lic_instance_id_location&#45;&gt;run_dragen_variant_calling_stage -->
<g id="edge18" class="edge">
<title>lic_instance_id_location&#45;&gt;run_dragen_variant_calling_stage</title>
<path fill="none" stroke="black" d="M915.86,-1309.07C795.76,-1250.73 408.88,-1062.64 407,-1059.63 321.63,-922.74 581.43,-826.53 716.25,-787.07"/>
<polygon fill="black" stroke="black" points="717.5,-790.36 726.13,-784.22 715.55,-783.63 717.5,-790.36"/>
</g>
<!-- lic_instance_id_location&#45;&gt;run_dragen_variant_calling_stage_tumor -->
<g id="edge19" class="edge">
<title>lic_instance_id_location&#45;&gt;run_dragen_variant_calling_stage_tumor</title>
<path fill="none" stroke="black" d="M982.59,-1308.94C1002.16,-1298.81 1028.04,-1286.31 1052,-1277.63 1423.1,-1143.08 1568.5,-1252.34 1913,-1059.63 1933.57,-1048.12 1930.63,-1034.49 1951,-1022.63 2191.17,-882.77 2513.35,-814.81 2693.77,-785.75"/>
<polygon fill="black" stroke="black" points="2694.53,-789.18 2703.85,-784.15 2693.43,-782.26 2694.53,-789.18"/>
</g>
<!-- maf_conversion_options -->
<g id="node12" class="node">
<title>maf_conversion_options</title>
<polygon fill="#94ddf4" stroke="black" points="1599.5,-1309.13 1599.5,-1345.13 1786.5,-1345.13 1786.5,-1309.13 1599.5,-1309.13"/>
<text text-anchor="middle" x="1693" y="-1323.43" font-family="Times,serif" font-size="14.00">maf_conversion_options</text>
</g>
<!-- maf_conversion_options&#45;&gt;run_dragen_variant_calling_stage -->
<g id="edge20" class="edge">
<title>maf_conversion_options&#45;&gt;run_dragen_variant_calling_stage</title>
<path fill="none" stroke="black" d="M1661.79,-1309.04C1641.77,-1298.68 1614.95,-1285.91 1590,-1277.63 1129.82,-1124.81 827.71,-1435.19 521,-1059.63 434.04,-953.15 645.09,-835.85 744.11,-788.59"/>
<polygon fill="black" stroke="black" points="745.78,-791.68 753.33,-784.24 742.79,-785.35 745.78,-791.68"/>
</g>
<!-- maf_conversion_options&#45;&gt;run_dragen_variant_calling_stage_tumor -->
<g id="edge21" class="edge">
<title>maf_conversion_options&#45;&gt;run_dragen_variant_calling_stage_tumor</title>
<path fill="none" stroke="black" d="M1725.26,-1308.98C1745.23,-1298.86 1771.63,-1286.37 1796,-1277.63 2166.76,-1144.68 2338.79,-1294.48 2655,-1059.63 2703.65,-1023.5 2786.89,-858.44 2818.4,-793.49"/>
<polygon fill="black" stroke="black" points="2821.64,-794.84 2822.84,-784.31 2815.34,-791.79 2821.64,-794.84"/>
</g>
<!-- mrjd_options -->
<g id="node13" class="node">
<title>mrjd_options</title>
<polygon fill="#94ddf4" stroke="black" points="218,-1309.13 218,-1345.13 328,-1345.13 328,-1309.13 218,-1309.13"/>
<text text-anchor="middle" x="273" y="-1323.43" font-family="Times,serif" font-size="14.00">mrjd_options</text>
</g>
<!-- mrjd_options&#45;&gt;run_dragen_variant_calling_stage -->
<g id="edge22" class="edge">
<title>mrjd_options&#45;&gt;run_dragen_variant_calling_stage</title>
<path fill="none" stroke="black" d="M272.89,-1309.07C273.44,-1259.58 281.14,-1113.68 350,-1022.63 446.51,-895.04 626.64,-820.36 724.51,-787.4"/>
<polygon fill="black" stroke="black" points="725.62,-790.72 734.01,-784.25 723.41,-784.08 725.62,-790.72"/>
</g>
<!-- nirvana_annotation_options -->
<g id="node14" class="node">
<title>nirvana_annotation_options</title>
<polygon fill="#94ddf4" stroke="black" points="1227.5,-1309.13 1227.5,-1345.13 1440.5,-1345.13 1440.5,-1309.13 1227.5,-1309.13"/>
<text text-anchor="middle" x="1334" y="-1323.43" font-family="Times,serif" font-size="14.00">nirvana_annotation_options</text>
</g>
<!-- nirvana_annotation_options&#45;&gt;run_dragen_variant_calling_stage -->
<g id="edge23" class="edge">
<title>nirvana_annotation_options&#45;&gt;run_dragen_variant_calling_stage</title>
<path fill="none" stroke="black" d="M1296.57,-1309.12C1274.06,-1299.24 1244.69,-1286.93 1218,-1277.63 880.94,-1160.12 660.44,-1344.24 445,-1059.63 351.82,-936.54 604.57,-830.52 728.28,-787.55"/>
<polygon fill="black" stroke="black" points="729.72,-790.75 738.04,-784.19 727.45,-784.13 729.72,-790.75"/>
</g>
<!-- nirvana_annotation_options&#45;&gt;run_nirvana_annotation_data_step -->
<g id="edge25" class="edge">
<title>nirvana_annotation_options&#45;&gt;run_nirvana_annotation_data_step</title>
<path fill="none" stroke="black" d="M1365.03,-1309.09C1386.33,-1299.48 1415.08,-1287.46 1441,-1277.63 1668.84,-1191.17 1944.25,-1101.38 2070.22,-1062.3"/>
<polygon fill="black" stroke="black" points="2071.61,-1065.54 2080.13,-1059.24 2069.54,-1058.85 2071.61,-1065.54"/>
</g>
<!-- nirvana_annotation_options&#45;&gt;run_nirvana_annotation_data_step -->
<g id="edge26" class="edge">
<title>nirvana_annotation_options&#45;&gt;run_nirvana_annotation_data_step</title>
<path fill="none" stroke="black" d="M1380.84,-1309.09C1404.33,-1299.48 1433.08,-1287.46 1459,-1277.63 1686.62,-1191.26 1961.7,-1101.56 2080.18,-1062.42"/>
<polygon fill="black" stroke="black" points="2081.4,-1065.7 2089.8,-1059.24 2079.2,-1059.06 2081.4,-1065.7"/>
</g>
<!-- nirvana_annotation_options&#45;&gt;run_dragen_variant_calling_stage_tumor -->
<g id="edge24" class="edge">
<title>nirvana_annotation_options&#45;&gt;run_dragen_variant_calling_stage_tumor</title>
<path fill="none" stroke="black" d="M1374.36,-1309.09C1507.29,-1252.93 1924.42,-1076.26 1951,-1059.63 1972.37,-1046.26 1971.92,-1034.79 1994,-1022.63 2234.5,-890.18 2552.55,-817.4 2718.82,-786.06"/>
<polygon fill="black" stroke="black" points="2719.87,-789.42 2729.06,-784.14 2718.58,-782.54 2719.87,-789.42"/>
</g>
<!-- ora_reference -->
<g id="node15" class="node">
<title>ora_reference</title>
<polygon fill="#94ddf4" stroke="black" points="726.5,-1309.13 726.5,-1345.13 841.5,-1345.13 841.5,-1309.13 726.5,-1309.13"/>
<text text-anchor="middle" x="784" y="-1323.43" font-family="Times,serif" font-size="14.00">ora_reference</text>
</g>
<!-- ora_reference&#45;&gt;run_dragen_variant_calling_stage -->
<g id="edge27" class="edge">
<title>ora_reference&#45;&gt;run_dragen_variant_calling_stage</title>
<path fill="none" stroke="black" d="M761.01,-1308.91C748.21,-1299.46 731.88,-1287.66 717,-1277.63 558,-1170.46 274.77,-1189.63 369,-1022.63 443.77,-890.12 617.95,-818.59 717.92,-787.14"/>
<polygon fill="black" stroke="black" points="719.13,-790.43 727.65,-784.13 717.06,-783.74 719.13,-790.43"/>
</g>
<!-- ora_reference&#45;&gt;run_dragen_variant_calling_stage_tumor -->
<g id="edge28" class="edge">
<title>ora_reference&#45;&gt;run_dragen_variant_calling_stage_tumor</title>
<path fill="none" stroke="black" d="M803.16,-1308.9C815.88,-1298.36 833.41,-1285.43 851,-1277.63 1278.3,-1088 1475.62,-1294.19 1880,-1059.63 1899.06,-1048.57 1894.3,-1034.28 1913,-1022.63 2156.5,-870.99 2491.3,-807.56 2682.01,-782.4"/>
<polygon fill="black" stroke="black" points="2682.64,-785.85 2692.1,-781.09 2681.73,-778.91 2682.64,-785.85"/>
</g>
<!-- reference -->
<g id="node16" class="node">
<title>reference</title>
<polygon fill="#94ddf4" stroke="black" points="1969.5,-1309.13 1969.5,-1345.13 2054.5,-1345.13 2054.5,-1309.13 1969.5,-1309.13"/>
<text text-anchor="middle" x="2012" y="-1323.43" font-family="Times,serif" font-size="14.00">reference</text>
</g>
<!-- reference&#45;&gt;run_dragen_variant_calling_stage -->
<g id="edge29" class="edge">
<title>reference&#45;&gt;run_dragen_variant_calling_stage</title>
<path fill="none" stroke="black" d="M1996.65,-1308.92C1987.09,-1298.91 1974.15,-1286.54 1961,-1277.63 1769.06,-1147.53 1682.12,-1184.92 1487,-1059.63 1465.78,-1046.01 1465.6,-1035.64 1444,-1022.63 1248.8,-905.08 989.94,-822.7 865.27,-787"/>
<polygon fill="black" stroke="black" points="866.02,-783.58 855.44,-784.21 864.1,-790.31 866.02,-783.58"/>
</g>
<!-- reference&#45;&gt;run_dragen_variant_calling_stage_tumor -->
<g id="edge30" class="edge">
<title>reference&#45;&gt;run_dragen_variant_calling_stage_tumor</title>
<path fill="none" stroke="black" d="M2026.9,-1308.85C2036.58,-1298.55 2049.97,-1285.91 2064,-1277.63 2332.58,-1119.09 2508.98,-1278.66 2731,-1059.63 2806.37,-985.27 2824.96,-851.81 2829.53,-794.5"/>
<polygon fill="black" stroke="black" points="2833.03,-794.62 2830.25,-784.4 2826.04,-794.13 2833.03,-794.62"/>
</g>
<!-- sample_name -->
<g id="node17" class="node">
<title>sample_name</title>
<polygon fill="#94ddf4" stroke="black" points="4315.5,-1309.13 4315.5,-1345.13 4428.5,-1345.13 4428.5,-1309.13 4315.5,-1309.13"/>
<text text-anchor="middle" x="4372" y="-1323.43" font-family="Times,serif" font-size="14.00">sample_name</text>
</g>
<!-- sample_name&#45;&gt;run_reheader_sequence_data_step -->
<g id="edge36" class="edge">
<title>sample_name&#45;&gt;run_reheader_sequence_data_step</title>
<path fill="none" stroke="black" d="M4354.2,-1309.12C4341.72,-1298.24 4324.09,-1284.86 4306,-1277.63 4001.45,-1155.96 3021.48,-1079.55 2623.44,-1052.82"/>
<polygon fill="black" stroke="black" points="2623.49,-1049.32 2613.28,-1052.14 2623.03,-1056.3 2623.49,-1049.32"/>
</g>
<!-- sample_name&#45;&gt;run_dragen_variant_calling_stage -->
<g id="edge31" class="edge">
<title>sample_name&#45;&gt;run_dragen_variant_calling_stage</title>
<path fill="none" stroke="black" d="M4354.58,-1309.07C4342.13,-1298.03 4324.39,-1284.47 4306,-1277.63 3142.25,-845 2664.48,-1543.29 1521,-1059.63 1498.09,-1049.94 1500.35,-1035.4 1479,-1022.63 1275.78,-901.06 1004.99,-821.22 872.25,-786.68"/>
<polygon fill="black" stroke="black" points="873.1,-783.29 862.54,-784.18 871.35,-790.07 873.1,-783.29"/>
</g>
<!-- sample_name&#45;&gt;run_dragen_variant_calling_stage_tumor -->
<g id="edge32" class="edge">
<title>sample_name&#45;&gt;run_dragen_variant_calling_stage_tumor</title>
<path fill="none" stroke="black" d="M4352.7,-1309.05C4340.14,-1298.7 4322.99,-1285.93 4306,-1277.63 3986.07,-1121.25 3861.53,-1201.7 3535,-1059.63 3505.92,-1046.98 3502.39,-1036.76 3474,-1022.63 3267.09,-919.67 3008.01,-827.16 2892.04,-787.54"/>
<polygon fill="black" stroke="black" points="2892.87,-784.13 2882.27,-784.21 2890.61,-790.75 2892.87,-784.13"/>
</g>
<!-- sample_name&#45;&gt;run_multiqc -->
<g id="edge33" class="edge">
<title>sample_name&#45;&gt;run_multiqc</title>
<path fill="none" stroke="black" d="M4367.8,-1309.09C4355.75,-1204.49 4355.41,-649.45 4366.78,-519.41"/>
<polygon fill="black" stroke="black" points="4370.29,-519.44 4367.81,-509.14 4363.33,-518.74 4370.29,-519.44"/>
</g>
<!-- sample_name&#45;&gt;run_multiqc -->
<g id="edge34" class="edge">
<title>sample_name&#45;&gt;run_multiqc</title>
<path fill="none" stroke="black" d="M4372,-1309.09C4372,-1204.49 4372,-649.45 4372,-519.41"/>
<polygon fill="black" stroke="black" points="4375.5,-519.14 4372,-509.14 4368.5,-519.14 4375.5,-519.14"/>
</g>
<!-- sample_name&#45;&gt;run_multiqc -->
<g id="edge35" class="edge">
<title>sample_name&#45;&gt;run_multiqc</title>
<path fill="none" stroke="black" d="M4376.2,-1309.09C4388.25,-1204.49 4388.59,-649.45 4377.22,-519.41"/>
<polygon fill="black" stroke="black" points="4380.67,-518.74 4376.19,-509.14 4373.71,-519.44 4380.67,-518.74"/>
</g>
<!-- sequence_data -->
<g id="node18" class="node">
<title>sequence_data</title>
<polygon fill="#94ddf4" stroke="black" points="1459,-1309.13 1459,-1345.13 1581,-1345.13 1581,-1309.13 1459,-1309.13"/>
<text text-anchor="middle" x="1520" y="-1323.43" font-family="Times,serif" font-size="14.00">sequence_data</text>
</g>
<!-- sequence_data&#45;&gt;run_reheader_sequence_data_step -->
<g id="edge39" class="edge">
<title>sequence_data&#45;&gt;run_reheader_sequence_data_step</title>
<path fill="none" stroke="black" d="M1533.2,-1309.07C1545.52,-1298.73 1563.98,-1285.96 1582,-1277.63 1836,-1160.22 2160,-1091.35 2332.41,-1060.9"/>
<polygon fill="black" stroke="black" points="2333.04,-1064.35 2342.28,-1059.17 2331.83,-1057.45 2333.04,-1064.35"/>
</g>
<!-- sequence_data&#45;&gt;run_reheader_sequence_data_step -->
<g id="edge40" class="edge">
<title>sequence_data&#45;&gt;run_reheader_sequence_data_step</title>
<path fill="none" stroke="black" d="M1548.68,-1309.07C1563.52,-1298.73 1581.98,-1285.96 1600,-1277.63 1853.62,-1160.39 2177.04,-1091.55 2343.37,-1061.04"/>
<polygon fill="black" stroke="black" points="2344.4,-1064.41 2353.61,-1059.17 2343.15,-1057.52 2344.4,-1064.41"/>
</g>
<!-- sequence_data&#45;&gt;run_dragen_variant_calling_stage -->
<g id="edge37" class="edge">
<title>sequence_data&#45;&gt;run_dragen_variant_calling_stage</title>
<path fill="none" stroke="black" d="M1499.82,-1309.01C1486.47,-1298.51 1468.14,-1285.6 1450,-1277.63 1046.62,-1100.47 758.15,-1403.71 483,-1059.63 391.78,-945.55 625.83,-833.19 737.09,-787.96"/>
<polygon fill="black" stroke="black" points="738.53,-791.15 746.5,-784.18 735.91,-784.66 738.53,-791.15"/>
</g>
<!-- sequence_data&#45;&gt;run_dragen_variant_calling_stage_tumor -->
<g id="edge38" class="edge">
<title>sequence_data&#45;&gt;run_dragen_variant_calling_stage_tumor</title>
<path fill="none" stroke="black" d="M1540.47,-1308.94C1554.01,-1298.41 1572.61,-1285.49 1591,-1277.63 2021.68,-1093.59 2230.08,-1316.06 2622,-1059.63 2635.62,-1050.72 2765.79,-862.16 2813.54,-792.6"/>
<polygon fill="black" stroke="black" points="2816.43,-794.58 2819.2,-784.36 2810.66,-790.62 2816.43,-794.58"/>
</g>
<!-- targeted_caller_options -->
<g id="node19" class="node">
<title>targeted_caller_options</title>
<polygon fill="#94ddf4" stroke="black" points="16,-1309.13 16,-1345.13 200,-1345.13 200,-1309.13 16,-1309.13"/>
<text text-anchor="middle" x="108" y="-1323.43" font-family="Times,serif" font-size="14.00">targeted_caller_options</text>
</g>
<!-- targeted_caller_options&#45;&gt;run_dragen_variant_calling_stage -->
<g id="edge41" class="edge">
<title>targeted_caller_options&#45;&gt;run_dragen_variant_calling_stage</title>
<path fill="none" stroke="black" d="M116.58,-1308.99C142.15,-1259.26 222.43,-1112.79 324,-1022.63 453.21,-907.93 642.78,-824.67 736.01,-787.97"/>
<polygon fill="black" stroke="black" points="737.5,-791.15 745.54,-784.25 734.95,-784.63 737.5,-791.15"/>
</g>
<!-- somatic_alignment_options -->
<g id="node20" class="node">
<title>somatic_alignment_options</title>
<polygon fill="#94ddf4" stroke="black" points="2741,-1309.13 2741,-1345.13 2951,-1345.13 2951,-1309.13 2741,-1309.13"/>
<text text-anchor="middle" x="2846" y="-1323.43" font-family="Times,serif" font-size="14.00">somatic_alignment_options</text>
</g>
<!-- somatic_alignment_options&#45;&gt;run_dragen_variant_calling_stage_tumor -->
<g id="edge42" class="edge">
<title>somatic_alignment_options&#45;&gt;run_dragen_variant_calling_stage_tumor</title>
<path fill="none" stroke="black" d="M2877.6,-1309.04C2961.73,-1262.82 3187.42,-1133.8 3226,-1059.63 3233.59,-1045.04 3233.86,-1037.07 3226,-1022.63 3155.97,-893.93 2990.11,-820.13 2897.12,-787.5"/>
<polygon fill="black" stroke="black" points="2898.12,-784.14 2887.53,-784.19 2895.84,-790.76 2898.12,-784.14"/>
</g>
<!-- somatic_cnv_caller_options -->
<g id="node21" class="node">
<title>somatic_cnv_caller_options</title>
<polygon fill="#94ddf4" stroke="black" points="2969.5,-1309.13 2969.5,-1345.13 3178.5,-1345.13 3178.5,-1309.13 2969.5,-1309.13"/>
<text text-anchor="middle" x="3074" y="-1323.43" font-family="Times,serif" font-size="14.00">somatic_cnv_caller_options</text>
</g>
<!-- somatic_cnv_caller_options&#45;&gt;run_dragen_variant_calling_stage_tumor -->
<g id="edge43" class="edge">
<title>somatic_cnv_caller_options&#45;&gt;run_dragen_variant_calling_stage_tumor</title>
<path fill="none" stroke="black" d="M3096.77,-1309C3155.34,-1262.78 3302.57,-1131.59 3242,-1022.63 3169.29,-891.82 2998.77,-819.34 2901.76,-787.36"/>
<polygon fill="black" stroke="black" points="2902.63,-783.96 2892.04,-784.2 2900.47,-790.62 2902.63,-783.96"/>
</g>
<!-- somatic_maf_conversion_options -->
<g id="node22" class="node">
<title>somatic_maf_conversion_options</title>
<polygon fill="#94ddf4" stroke="black" points="3196.5,-1309.13 3196.5,-1345.13 3445.5,-1345.13 3445.5,-1309.13 3196.5,-1309.13"/>
<text text-anchor="middle" x="3321" y="-1323.43" font-family="Times,serif" font-size="14.00">somatic_maf_conversion_options</text>
</g>
<!-- somatic_maf_conversion_options&#45;&gt;run_dragen_variant_calling_stage_tumor -->
<g id="edge44" class="edge">
<title>somatic_maf_conversion_options&#45;&gt;run_dragen_variant_calling_stage_tumor</title>
<path fill="none" stroke="black" d="M3322.28,-1308.83C3325.04,-1259.28 3326.78,-1114.55 3262,-1022.63 3171.78,-894.59 2995.24,-820.27 2898.45,-787.44"/>
<polygon fill="black" stroke="black" points="2899.36,-784.05 2888.77,-784.2 2897.14,-790.69 2899.36,-784.05"/>
</g>
<!-- somatic_msi_options -->
<g id="node23" class="node">
<title>somatic_msi_options</title>
<polygon fill="#94ddf4" stroke="black" points="3464,-1309.13 3464,-1345.13 3628,-1345.13 3628,-1309.13 3464,-1309.13"/>
<text text-anchor="middle" x="3546" y="-1323.43" font-family="Times,serif" font-size="14.00">somatic_msi_options</text>
</g>
<!-- somatic_msi_options&#45;&gt;run_dragen_variant_calling_stage_tumor -->
<g id="edge45" class="edge">
<title>somatic_msi_options&#45;&gt;run_dragen_variant_calling_stage_tumor</title>
<path fill="none" stroke="black" d="M3534.5,-1308.85C3500.95,-1259.38 3398.38,-1114.82 3286,-1022.63 3153.71,-914.1 2968.96,-826.64 2881.17,-788.24"/>
<polygon fill="black" stroke="black" points="2882.53,-785.01 2871.96,-784.23 2879.74,-791.43 2882.53,-785.01"/>
</g>
<!-- somatic_nirvana_annotation_options -->
<g id="node24" class="node">
<title>somatic_nirvana_annotation_options</title>
<polygon fill="#94ddf4" stroke="black" points="2072.5,-1309.13 2072.5,-1345.13 2347.5,-1345.13 2347.5,-1309.13 2072.5,-1309.13"/>
<text text-anchor="middle" x="2210" y="-1323.43" font-family="Times,serif" font-size="14.00">somatic_nirvana_annotation_options</text>
</g>
<!-- somatic_nirvana_annotation_options&#45;&gt;run_nirvana_annotation_data_step -->
<g id="edge47" class="edge">
<title>somatic_nirvana_annotation_options&#45;&gt;run_nirvana_annotation_data_step</title>
<path fill="none" stroke="black" d="M2202.22,-1308.79C2186.14,-1261.05 2152.47,-1127.36 2141.65,-1069.45"/>
<polygon fill="black" stroke="black" points="2145.03,-1068.48 2139.85,-1059.24 2138.14,-1069.7 2145.03,-1068.48"/>
</g>
<!-- somatic_nirvana_annotation_options&#45;&gt;run_nirvana_annotation_data_step -->
<g id="edge48" class="edge">
<title>somatic_nirvana_annotation_options&#45;&gt;run_nirvana_annotation_data_step</title>
<path fill="none" stroke="black" d="M2209.12,-1308.79C2201.3,-1260.95 2168,-1126.8 2149.9,-1069.09"/>
<polygon fill="black" stroke="black" points="2153.12,-1067.67 2146.71,-1059.24 2146.46,-1069.83 2153.12,-1067.67"/>
</g>
<!-- somatic_nirvana_annotation_options&#45;&gt;run_dragen_variant_calling_stage_tumor -->
<g id="edge46" class="edge">
<title>somatic_nirvana_annotation_options&#45;&gt;run_dragen_variant_calling_stage_tumor</title>
<path fill="none" stroke="black" d="M2259.14,-1309.08C2382.59,-1265.3 2700.71,-1146.29 2769,-1059.63 2831.95,-979.74 2834.86,-850.79 2832.76,-794.68"/>
<polygon fill="black" stroke="black" points="2836.24,-794.3 2832.29,-784.47 2829.25,-794.62 2836.24,-794.3"/>
</g>
<!-- somatic_reference -->
<g id="node25" class="node">
<title>somatic_reference</title>
<polygon fill="#94ddf4" stroke="black" points="3646.5,-1309.13 3646.5,-1345.13 3793.5,-1345.13 3793.5,-1309.13 3646.5,-1309.13"/>
<text text-anchor="middle" x="3720" y="-1323.43" font-family="Times,serif" font-size="14.00">somatic_reference</text>
</g>
<!-- somatic_reference&#45;&gt;run_dragen_variant_calling_stage_tumor -->
<g id="edge49" class="edge">
<title>somatic_reference&#45;&gt;run_dragen_variant_calling_stage_tumor</title>
<path fill="none" stroke="black" d="M3700.06,-1309.06C3643.1,-1260.75 3473.85,-1120.22 3320,-1022.63 3164.5,-923.99 2966.78,-829.41 2877.95,-788.42"/>
<polygon fill="black" stroke="black" points="2879.22,-785.16 2868.68,-784.16 2876.3,-791.52 2879.22,-785.16"/>
</g>
<!-- somatic_snv_variant_caller_options -->
<g id="node26" class="node">
<title>somatic_snv_variant_caller_options</title>
<polygon fill="#94ddf4" stroke="black" points="3811.5,-1309.13 3811.5,-1345.13 4078.5,-1345.13 4078.5,-1309.13 3811.5,-1309.13"/>
<text text-anchor="middle" x="3945" y="-1323.43" font-family="Times,serif" font-size="14.00">somatic_snv_variant_caller_options</text>
</g>
<!-- somatic_snv_variant_caller_options&#45;&gt;run_dragen_variant_calling_stage_tumor -->
<g id="edge50" class="edge">
<title>somatic_snv_variant_caller_options&#45;&gt;run_dragen_variant_calling_stage_tumor</title>
<path fill="none" stroke="black" d="M3912.57,-1309.09C3823.83,-1262.53 3569.42,-1129.53 3356,-1022.63 3179.18,-934.06 2966.95,-832.1 2875.98,-788.59"/>
<polygon fill="black" stroke="black" points="2877.32,-785.35 2866.79,-784.2 2874.3,-791.67 2877.32,-785.35"/>
</g>
<!-- somatic_sv_caller_options -->
<g id="node27" class="node">
<title>somatic_sv_caller_options</title>
<polygon fill="#94ddf4" stroke="black" points="4097,-1309.13 4097,-1345.13 4297,-1345.13 4297,-1309.13 4097,-1309.13"/>
<text text-anchor="middle" x="4197" y="-1323.43" font-family="Times,serif" font-size="14.00">somatic_sv_caller_options</text>
</g>
<!-- somatic_sv_caller_options&#45;&gt;run_dragen_variant_calling_stage_tumor -->
<g id="edge51" class="edge">
<title>somatic_sv_caller_options&#45;&gt;run_dragen_variant_calling_stage_tumor</title>
<path fill="none" stroke="black" d="M4159.93,-1308.91C4138.96,-1299.36 4112.18,-1287.46 4088,-1277.63 3828.63,-1172.22 3756.62,-1164.41 3497,-1059.63 3261.41,-964.54 2984.8,-838.27 2877.13,-788.54"/>
<polygon fill="black" stroke="black" points="2878.4,-785.27 2867.85,-784.25 2875.46,-791.63 2878.4,-785.27"/>
</g>
<!-- somatic_tmb_options -->
<g id="node28" class="node">
<title>somatic_tmb_options</title>
<polygon fill="#94ddf4" stroke="black" points="2365.5,-1309.13 2365.5,-1345.13 2532.5,-1345.13 2532.5,-1309.13 2365.5,-1309.13"/>
<text text-anchor="middle" x="2449" y="-1323.43" font-family="Times,serif" font-size="14.00">somatic_tmb_options</text>
</g>
<!-- somatic_tmb_options&#45;&gt;run_nirvana_annotation_data_step -->
<g id="edge53" class="edge">
<title>somatic_tmb_options&#45;&gt;run_nirvana_annotation_data_step</title>
<path fill="none" stroke="black" d="M2430.07,-1308.79C2376.98,-1260.15 2226.54,-1122.33 2165.36,-1066.28"/>
<polygon fill="black" stroke="black" points="2167.42,-1063.41 2157.68,-1059.24 2162.69,-1068.58 2167.42,-1063.41"/>
</g>
<!-- somatic_tmb_options&#45;&gt;run_dragen_variant_calling_stage_tumor -->
<g id="edge52" class="edge">
<title>somatic_tmb_options&#45;&gt;run_dragen_variant_calling_stage_tumor</title>
<path fill="none" stroke="black" d="M2477.92,-1308.97C2556.01,-1261.99 2767.92,-1130.1 2807,-1059.63 2855.19,-972.74 2843.89,-848.51 2835.77,-794.24"/>
<polygon fill="black" stroke="black" points="2839.22,-793.68 2834.21,-784.35 2832.31,-794.77 2839.22,-793.68"/>
</g>
<!-- tumor_sample_name -->
<g id="node29" class="node">
<title>tumor_sample_name</title>
<polygon fill="#94ddf4" stroke="black" points="4447,-1309.13 4447,-1345.13 4611,-1345.13 4611,-1309.13 4447,-1309.13"/>
<text text-anchor="middle" x="4529" y="-1323.43" font-family="Times,serif" font-size="14.00">tumor_sample_name</text>
</g>
<!-- tumor_sample_name&#45;&gt;run_dragen_variant_calling_stage_tumor -->
<g id="edge54" class="edge">
<title>tumor_sample_name&#45;&gt;run_dragen_variant_calling_stage_tumor</title>
<path fill="none" stroke="black" d="M4492.33,-1309.01C4473.58,-1299.03 4450.45,-1286.66 4429,-1277.63 3860.13,-1038.03 3138.11,-846.78 2906.22,-786.8"/>
<polygon fill="black" stroke="black" points="2906.77,-783.32 2896.21,-784.21 2905.02,-790.1 2906.77,-783.32"/>
</g>
<!-- tumor_sample_name&#45;&gt;run_dragen_variant_calling_stage_tumor -->
<g id="edge55" class="edge">
<title>tumor_sample_name&#45;&gt;run_dragen_variant_calling_stage_tumor</title>
<path fill="none" stroke="black" d="M4507.98,-1309.01C4491.58,-1299.03 4468.45,-1286.66 4447,-1277.63 3877.56,-1037.79 3154.68,-846.41 2913.45,-786.62"/>
<polygon fill="black" stroke="black" points="2914.24,-783.21 2903.7,-784.21 2912.56,-790.01 2914.24,-783.21"/>
</g>
<!-- tumor_sample_name&#45;&gt;run_reheader_sequence_data_step_tumor -->
<g id="edge59" class="edge">
<title>tumor_sample_name&#45;&gt;run_reheader_sequence_data_step_tumor</title>
<path fill="none" stroke="black" d="M4502.56,-1309.1C4484.93,-1298.5 4460.87,-1285.44 4438,-1277.63 4016.92,-1133.73 3492.34,-1075.23 3227.27,-1053.56"/>
<polygon fill="black" stroke="black" points="3227.43,-1050.06 3217.18,-1052.74 3226.86,-1057.04 3227.43,-1050.06"/>
</g>
<!-- tumor_sample_name&#45;&gt;run_multiqc -->
<g id="edge56" class="edge">
<title>tumor_sample_name&#45;&gt;run_multiqc</title>
<path fill="none" stroke="black" d="M4521.59,-1309.09C4489.85,-1204.49 4385.02,-649.45 4371.92,-519.41"/>
<polygon fill="black" stroke="black" points="4375.38,-518.79 4371.01,-509.14 4368.4,-519.41 4375.38,-518.79"/>
</g>
<!-- tumor_sample_name&#45;&gt;run_multiqc -->
<g id="edge57" class="edge">
<title>tumor_sample_name&#45;&gt;run_multiqc</title>
<path fill="none" stroke="black" d="M4525.79,-1309.09C4506.08,-1204.39 4401.4,-648.33 4377.06,-519.01"/>
<polygon fill="black" stroke="black" points="4380.49,-518.32 4375.2,-509.14 4373.61,-519.61 4380.49,-518.32"/>
</g>
<!-- tumor_sample_name&#45;&gt;run_multiqc -->
<g id="edge58" class="edge">
<title>tumor_sample_name&#45;&gt;run_multiqc</title>
<path fill="none" stroke="black" d="M4529.99,-1309.09C4522.34,-1204.39 4418,-648.33 4382.25,-519.01"/>
<polygon fill="black" stroke="black" points="4385.53,-517.78 4379.4,-509.14 4378.81,-519.72 4385.53,-517.78"/>
</g>
<!-- tumor_sequence_data -->
<g id="node30" class="node">
<title>tumor_sequence_data</title>
<polygon fill="#94ddf4" stroke="black" points="2551,-1309.13 2551,-1345.13 2723,-1345.13 2723,-1309.13 2551,-1309.13"/>
<text text-anchor="middle" x="2637" y="-1323.43" font-family="Times,serif" font-size="14.00">tumor_sequence_data</text>
</g>
<!-- tumor_sequence_data&#45;&gt;run_dragen_variant_calling_stage_tumor -->
<g id="edge60" class="edge">
<title>tumor_sequence_data&#45;&gt;run_dragen_variant_calling_stage_tumor</title>
<path fill="none" stroke="black" d="M2657.36,-1309.1C2701.87,-1270.35 2806.91,-1170.35 2845,-1059.63 2877.03,-966.53 2852.59,-846.9 2838.78,-794.16"/>
<polygon fill="black" stroke="black" points="2842.09,-792.98 2836.11,-784.24 2835.33,-794.8 2842.09,-792.98"/>
</g>
<!-- tumor_sequence_data&#45;&gt;run_reheader_sequence_data_step_tumor -->
<g id="edge61" class="edge">
<title>tumor_sequence_data&#45;&gt;run_reheader_sequence_data_step_tumor</title>
<path fill="none" stroke="black" d="M2658.9,-1309C2726.91,-1260.13 2934.06,-1119.95 3019.59,-1064.8"/>
<polygon fill="black" stroke="black" points="3021.68,-1067.62 3028.21,-1059.28 3017.9,-1061.73 3021.68,-1067.62"/>
</g>
<!-- tumor_sequence_data&#45;&gt;run_reheader_sequence_data_step_tumor -->
<g id="edge62" class="edge">
<title>tumor_sequence_data&#45;&gt;run_reheader_sequence_data_step_tumor</title>
<path fill="none" stroke="black" d="M2665.76,-1309C2742.08,-1260.27 2948.51,-1120.8 3026.63,-1065.31"/>
<polygon fill="black" stroke="black" points="3028.97,-1067.94 3035.07,-1059.28 3024.9,-1062.24 3028.97,-1067.94"/>
</g>
<!-- alignment_options -->
<g id="node31" class="node">
<title>alignment_options</title>
<polygon fill="#94ddf4" stroke="black" points="1061,-1309.13 1061,-1345.13 1209,-1345.13 1209,-1309.13 1061,-1309.13"/>
<text text-anchor="middle" x="1135" y="-1323.43" font-family="Times,serif" font-size="14.00">alignment_options</text>
</g>
<!-- alignment_options&#45;&gt;run_get_default_alignment_options_schema_step -->
<g id="edge63" class="edge">
<title>alignment_options&#45;&gt;run_get_default_alignment_options_schema_step</title>
<path fill="none" stroke="black" d="M1141.23,-1308.79C1158.45,-1260.85 1206.79,-1126.25 1227.45,-1068.73"/>
<polygon fill="black" stroke="black" points="1230.77,-1069.83 1230.85,-1059.24 1224.18,-1067.47 1230.77,-1069.83"/>
</g>
<!-- snv_variant_caller_options -->
<g id="node32" class="node">
<title>snv_variant_caller_options</title>
<polygon fill="#94ddf4" stroke="black" points="346.5,-1309.13 346.5,-1345.13 551.5,-1345.13 551.5,-1309.13 346.5,-1309.13"/>
<text text-anchor="middle" x="449" y="-1323.43" font-family="Times,serif" font-size="14.00">snv_variant_caller_options</text>
</g>
<!-- snv_variant_caller_options&#45;&gt;run_get_variant_calling_options_as_schemas_step -->
<g id="edge64" class="edge">
<title>snv_variant_caller_options&#45;&gt;run_get_variant_calling_options_as_schemas_step</title>
<path fill="none" stroke="black" d="M469.68,-1309C528.3,-1260.47 695.62,-1121.93 763.18,-1065.99"/>
<polygon fill="black" stroke="black" points="765.82,-1068.35 771.29,-1059.28 761.35,-1062.96 765.82,-1068.35"/>
</g>
<!-- sv_caller_options -->
<g id="node33" class="node">
<title>sv_caller_options</title>
<polygon fill="#94ddf4" stroke="black" points="570,-1309.13 570,-1345.13 708,-1345.13 708,-1309.13 570,-1309.13"/>
<text text-anchor="middle" x="639" y="-1323.43" font-family="Times,serif" font-size="14.00">sv_caller_options</text>
</g>
<!-- sv_caller_options&#45;&gt;run_get_variant_calling_options_as_schemas_step -->
<g id="edge65" class="edge">
<title>sv_caller_options&#45;&gt;run_get_variant_calling_options_as_schemas_step</title>
<path fill="none" stroke="black" d="M648.34,-1308.79C674.22,-1260.75 746.98,-1125.69 777.86,-1068.37"/>
<polygon fill="black" stroke="black" points="781.12,-1069.7 782.78,-1059.24 774.96,-1066.38 781.12,-1069.7"/>
</g>
</g>
</svg>
