<?xml version="1.0" encoding="UTF-8" standalone="no"?>
<!DOCTYPE svg PUBLIC "-//W3C//DTD SVG 1.1//EN"
 "http://www.w3.org/Graphics/SVG/1.1/DTD/svg11.dtd">
<!-- Generated by graphviz version 2.43.0 (0)
 -->
<!-- Title: G Pages: 1 -->
<svg width="857pt" height="856pt"
 viewBox="0.00 0.00 856.50 856.00" xmlns="http://www.w3.org/2000/svg" xmlns:xlink="http://www.w3.org/1999/xlink">
<g id="graph0" class="graph" transform="scale(1 1) rotate(0) translate(4 852)">
<title>G</title>
<polygon fill="#eeeeee" stroke="transparent" points="-4,4 -4,-852 852.5,-852 852.5,4 -4,4"/>
<g id="clust1" class="cluster">
<title>cluster_inputs</title>
<polygon fill="#eeeeee" stroke="black" stroke-dasharray="5,2" points="205.5,-693.15 205.5,-833.25 710.5,-833.25 710.5,-693.15 205.5,-693.15"/>
<text text-anchor="middle" x="644" y="-700.95" font-family="Times,serif" font-size="14.00">Workflow Inputs</text>
</g>
<g id="clust2" class="cluster">
<title>cluster_outputs</title>
<polygon fill="#eeeeee" stroke="black" stroke-dasharray="5,2" points="74.5,-14.75 74.5,-154.85 555.5,-154.85 555.5,-14.75 74.5,-14.75"/>
<text text-anchor="middle" x="483" y="-22.55" font-family="Times,serif" font-size="14.00">Workflow Outputs</text>
</g>
<!-- get_bcl_convert_run_configuration_object_step -->
<g id="node1" class="node">
<title>get_bcl_convert_run_configuration_object_step</title>
<polygon fill="lightgoldenrodyellow" stroke="black" points="288.5,-491.75 288.5,-527.75 848.5,-527.75 848.5,-491.75 288.5,-491.75"/>
<text text-anchor="middle" x="568.5" y="-506.05" font-family="Times,serif" font-size="14.00">add&#45;run&#45;info&#45;and&#45;samplesheet&#45;to&#45;bclconvert&#45;run&#45;configuration v(2.0.0&#45;&#45;4.0.3)</text>
</g>
<!-- bcl_convert_scatter_step -->
<g id="node2" class="node">
<title>bcl_convert_scatter_step</title>
<polygon fill="#f3cea1" stroke="black" points="244,-356.75 244,-392.75 395,-392.75 395,-356.75 244,-356.75"/>
<text text-anchor="middle" x="319.5" y="-371.05" font-family="Times,serif" font-size="14.00">bclconvert v(4.0.3)</text>
</g>
<!-- get_bcl_convert_run_configuration_object_step&#45;&gt;bcl_convert_scatter_step -->
<g id="edge1" class="edge">
<title>get_bcl_convert_run_configuration_object_step&#45;&gt;bcl_convert_scatter_step</title>
<path fill="none" stroke="black" d="M536.46,-491.63C491.54,-467.64 409.84,-424 360.53,-397.66"/>
<polygon fill="black" stroke="black" points="361.89,-394.42 351.42,-392.8 358.59,-400.6 361.89,-394.42"/>
</g>
<!-- flatten_fastq_list_rows_array_step -->
<g id="node3" class="node">
<title>flatten_fastq_list_rows_array_step</title>
<polygon fill="lightgoldenrodyellow" stroke="black" points="0,-222.75 0,-258.75 291,-258.75 291,-222.75 0,-222.75"/>
<text text-anchor="middle" x="145.5" y="-237.05" font-family="Times,serif" font-size="14.00">flatten&#45;array&#45;fastq&#45;list&#45;schema v(1.0.0)</text>
</g>
<!-- bcl_convert_scatter_step&#45;&gt;flatten_fastq_list_rows_array_step -->
<g id="edge2" class="edge">
<title>bcl_convert_scatter_step&#45;&gt;flatten_fastq_list_rows_array_step</title>
<path fill="none" stroke="black" d="M296.75,-356.49C265.93,-333.11 210.78,-291.27 176.28,-265.1"/>
<polygon fill="black" stroke="black" points="178.06,-262.06 167.98,-258.8 173.83,-267.63 178.06,-262.06"/>
</g>
<!-- fastq_output_directories -->
<g id="node8" class="node">
<title>fastq_output_directories</title>
<polygon fill="#94ddf4" stroke="black" points="224,-87.75 224,-123.75 415,-123.75 415,-87.75 224,-87.75"/>
<text text-anchor="middle" x="319.5" y="-102.05" font-family="Times,serif" font-size="14.00">fastq_output_directories</text>
</g>
<!-- bcl_convert_scatter_step&#45;&gt;fastq_output_directories -->
<g id="edge10" class="edge">
<title>bcl_convert_scatter_step&#45;&gt;fastq_output_directories</title>
<path fill="none" stroke="black" d="M319.5,-356.64C319.5,-311.54 319.5,-189.09 319.5,-134.11"/>
<polygon fill="black" stroke="black" points="323,-134.06 319.5,-124.06 316,-134.06 323,-134.06"/>
</g>
<!-- samplesheets -->
<g id="node9" class="node">
<title>samplesheets</title>
<polygon fill="#94ddf4" stroke="black" points="433.5,-87.75 433.5,-123.75 547.5,-123.75 547.5,-87.75 433.5,-87.75"/>
<text text-anchor="middle" x="490.5" y="-102.05" font-family="Times,serif" font-size="14.00">samplesheets</text>
</g>
<!-- bcl_convert_scatter_step&#45;&gt;samplesheets -->
<g id="edge11" class="edge">
<title>bcl_convert_scatter_step&#45;&gt;samplesheets</title>
<path fill="none" stroke="black" d="M330.46,-356.64C359.58,-311.16 439.08,-187.04 473.85,-132.75"/>
<polygon fill="black" stroke="black" points="476.97,-134.37 479.41,-124.06 471.07,-130.59 476.97,-134.37"/>
</g>
<!-- fastq_list_rows -->
<g id="node7" class="node">
<title>fastq_list_rows</title>
<polygon fill="#94ddf4" stroke="black" points="83,-87.75 83,-123.75 206,-123.75 206,-87.75 83,-87.75"/>
<text text-anchor="middle" x="144.5" y="-102.05" font-family="Times,serif" font-size="14.00">fastq_list_rows</text>
</g>
<!-- flatten_fastq_list_rows_array_step&#45;&gt;fastq_list_rows -->
<g id="edge9" class="edge">
<title>flatten_fastq_list_rows_array_step&#45;&gt;fastq_list_rows</title>
<path fill="none" stroke="black" d="M145.37,-222.63C145.2,-200.19 144.9,-160.55 144.7,-133.96"/>
<polygon fill="black" stroke="black" points="148.2,-133.77 144.63,-123.8 141.2,-133.82 148.2,-133.77"/>
</g>
<!-- bcl_convert_samplesheet_check_scatter_step -->
<g id="node4" class="node">
<title>bcl_convert_samplesheet_check_scatter_step</title>
<polygon fill="#f3cea1" stroke="black" points="324,-626.75 324,-662.75 631,-662.75 631,-626.75 324,-626.75"/>
<text text-anchor="middle" x="477.5" y="-641.05" font-family="Times,serif" font-size="14.00">validate&#45;bclconvert&#45;samplesheet v(4.0.3)</text>
</g>
<!-- bcl_convert_samplesheet_check_scatter_step&#45;&gt;get_bcl_convert_run_configuration_object_step -->
<g id="edge3" class="edge">
<title>bcl_convert_samplesheet_check_scatter_step&#45;&gt;get_bcl_convert_run_configuration_object_step</title>
<path fill="none" stroke="black" d="M484.51,-626.63C497.81,-603.59 525.74,-562.42 545.9,-535.86"/>
<polygon fill="black" stroke="black" points="548.79,-537.85 552.14,-527.8 543.25,-533.56 548.79,-537.85"/>
</g>
<!-- bcl_convert_samplesheet_check_scatter_step&#45;&gt;get_bcl_convert_run_configuration_object_step -->
<g id="edge4" class="edge">
<title>bcl_convert_samplesheet_check_scatter_step&#45;&gt;get_bcl_convert_run_configuration_object_step</title>
<path fill="none" stroke="black" d="M493.91,-626.63C511.99,-603.79 540.06,-563.13 556.31,-536.56"/>
<polygon fill="black" stroke="black" points="559.42,-538.18 561.53,-527.8 553.4,-534.6 559.42,-538.18"/>
</g>
<!-- bclconvert_run_input_directory -->
<g id="node5" class="node">
<title>bclconvert_run_input_directory</title>
<polygon fill="#94ddf4" stroke="black" points="213,-766.75 213,-802.75 452,-802.75 452,-766.75 213,-766.75"/>
<text text-anchor="middle" x="332.5" y="-781.05" font-family="Times,serif" font-size="14.00">bclconvert_run_input_directory</text>
</g>
<!-- bclconvert_run_input_directory&#45;&gt;bcl_convert_scatter_step -->
<g id="edge6" class="edge">
<title>bclconvert_run_input_directory&#45;&gt;bcl_convert_scatter_step</title>
<path fill="none" stroke="black" d="M325.21,-766.63C306.93,-721.6 261.86,-596.09 279.5,-491.25 284.81,-459.71 297.73,-425.28 307.46,-402.29"/>
<polygon fill="black" stroke="black" points="310.77,-403.45 311.53,-392.88 304.35,-400.67 310.77,-403.45"/>
</g>
<!-- bclconvert_run_input_directory&#45;&gt;bcl_convert_samplesheet_check_scatter_step -->
<g id="edge5" class="edge">
<title>bclconvert_run_input_directory&#45;&gt;bcl_convert_samplesheet_check_scatter_step</title>
<path fill="none" stroke="black" d="M350.57,-766.55C376.08,-742.27 422.77,-697.84 451.85,-670.16"/>
<polygon fill="black" stroke="black" points="454.37,-672.59 459.2,-663.16 449.54,-667.52 454.37,-672.59"/>
</g>
<!-- bclconvert_run_configurations -->
<g id="node6" class="node">
<title>bclconvert_run_configurations</title>
<polygon fill="#94ddf4" stroke="black" points="470.5,-766.75 470.5,-802.75 702.5,-802.75 702.5,-766.75 470.5,-766.75"/>
<text text-anchor="middle" x="586.5" y="-781.05" font-family="Times,serif" font-size="14.00">bclconvert_run_configurations</text>
</g>
<!-- bclconvert_run_configurations&#45;&gt;get_bcl_convert_run_configuration_object_step -->
<g id="edge8" class="edge">
<title>bclconvert_run_configurations&#45;&gt;get_bcl_convert_run_configuration_object_step</title>
<path fill="none" stroke="black" d="M599.5,-766.44C619.51,-737.63 654.1,-677.88 639.5,-626.25 629.85,-592.11 606.94,-558.12 589.74,-535.95"/>
<polygon fill="black" stroke="black" points="592.43,-533.71 583.47,-528.06 586.95,-538.06 592.43,-533.71"/>
</g>
<!-- bclconvert_run_configurations&#45;&gt;bcl_convert_samplesheet_check_scatter_step -->
<g id="edge7" class="edge">
<title>bclconvert_run_configurations&#45;&gt;bcl_convert_samplesheet_check_scatter_step</title>
<path fill="none" stroke="black" d="M572.92,-766.55C553.99,-742.58 519.54,-698.97 497.62,-671.23"/>
<polygon fill="black" stroke="black" points="500.2,-668.84 491.26,-663.16 494.71,-673.18 500.2,-668.84"/>
</g>
</g>
</svg>
