<?xml version="1.0" encoding="UTF-8" standalone="no"?>
<!DOCTYPE svg PUBLIC "-//W3C//DTD SVG 1.1//EN"
 "http://www.w3.org/Graphics/SVG/1.1/DTD/svg11.dtd">
<!-- Generated by graphviz version 2.43.0 (0)
 -->
<!-- Title: G Pages: 1 -->
<svg width="3294pt" height="974pt"
 viewBox="0.00 0.00 3294.00 974.08" xmlns="http://www.w3.org/2000/svg" xmlns:xlink="http://www.w3.org/1999/xlink">
<g id="graph0" class="graph" transform="scale(1 1) rotate(0) translate(4 970.08)">
<title>G</title>
<polygon fill="#eeeeee" stroke="transparent" points="-4,4 -4,-970.08 3290,-970.08 3290,4 -4,4"/>
<g id="clust1" class="cluster">
<title>cluster_inputs</title>
<polygon fill="#eeeeee" stroke="black" stroke-dasharray="5,2" points="8,-627.95 8,-933.88 3278,-933.88 3278,-627.95 8,-627.95"/>
<text text-anchor="middle" x="3211.5" y="-635.75" font-family="Times,serif" font-size="14.00">Workflow Inputs</text>
</g>
<g id="clust2" class="cluster">
<title>cluster_outputs</title>
<polygon fill="#eeeeee" stroke="black" stroke-dasharray="5,2" points="1424,-32.2 1424,-338.13 1766,-338.13 1766,-32.2 1424,-32.2"/>
<text text-anchor="middle" x="1693.5" y="-40" font-family="Times,serif" font-size="14.00">Workflow Outputs</text>
</g>
<!-- arriba_pdf -->
<g id="node1" class="node">
<title>arriba_pdf</title>
<polygon fill="#94ddf4" stroke="black" points="3180,-809.2 3180,-845.2 3270,-845.2 3270,-809.2 3180,-809.2"/>
<text text-anchor="middle" x="3225" y="-823.5" font-family="Times,serif" font-size="14.00">arriba_pdf</text>
</g>
<!-- run_rnasum_step -->
<g id="node31" class="node">
<title>run_rnasum_step</title>
<ellipse fill="none" stroke="black" cx="1617" cy="-523.2" rx="90.98" ry="18"/>
<text text-anchor="middle" x="1617" y="-519.5" font-family="Times,serif" font-size="14.00">run_rnasum_step</text>
</g>
<!-- arriba_pdf&#45;&gt;run_rnasum_step -->
<g id="edge1" class="edge">
<title>arriba_pdf&#45;&gt;run_rnasum_step</title>
<path fill="none" stroke="black" d="M3210.72,-809.1C3200.73,-798.33 3186.46,-785.11 3171,-777.7 2907.56,-651.5 2000.94,-559.34 1708.62,-532.34"/>
<polygon fill="black" stroke="black" points="1708.76,-528.84 1698.48,-531.4 1708.12,-535.81 1708.76,-528.84"/>
</g>
<!-- arriba_tsv -->
<g id="node2" class="node">
<title>arriba_tsv</title>
<polygon fill="#94ddf4" stroke="black" points="3072.5,-809.2 3072.5,-845.2 3161.5,-845.2 3161.5,-809.2 3072.5,-809.2"/>
<text text-anchor="middle" x="3117" y="-823.5" font-family="Times,serif" font-size="14.00">arriba_tsv</text>
</g>
<!-- arriba_tsv&#45;&gt;run_rnasum_step -->
<g id="edge2" class="edge">
<title>arriba_tsv&#45;&gt;run_rnasum_step</title>
<path fill="none" stroke="black" d="M3103.01,-809.16C3093.23,-798.41 3079.22,-785.19 3064,-777.7 2820.58,-657.93 1982.41,-562.15 1706.12,-533.21"/>
<polygon fill="black" stroke="black" points="1706.45,-529.73 1696.14,-532.17 1705.72,-536.69 1706.45,-529.73"/>
</g>
<!-- batch_rm -->
<g id="node3" class="node">
<title>batch_rm</title>
<polygon fill="#94ddf4" stroke="black" points="2971.5,-809.2 2971.5,-845.2 3054.5,-845.2 3054.5,-809.2 2971.5,-809.2"/>
<text text-anchor="middle" x="3013" y="-823.5" font-family="Times,serif" font-size="14.00">batch_rm</text>
</g>
<!-- batch_rm&#45;&gt;run_rnasum_step -->
<g id="edge3" class="edge">
<title>batch_rm&#45;&gt;run_rnasum_step</title>
<path fill="none" stroke="black" d="M2999.56,-808.74C2990.41,-798.1 2977.39,-785.16 2963,-777.7 2538.89,-557.89 1951.55,-526.96 1718.32,-523.83"/>
<polygon fill="black" stroke="black" points="1718.19,-520.33 1708.15,-523.71 1718.11,-527.33 1718.19,-520.33"/>
</g>
<!-- cn_gain -->
<g id="node4" class="node">
<title>cn_gain</title>
<polygon fill="#94ddf4" stroke="black" points="2882.5,-809.2 2882.5,-845.2 2953.5,-845.2 2953.5,-809.2 2882.5,-809.2"/>
<text text-anchor="middle" x="2918" y="-823.5" font-family="Times,serif" font-size="14.00">cn_gain</text>
</g>
<!-- cn_gain&#45;&gt;run_rnasum_step -->
<g id="edge4" class="edge">
<title>cn_gain&#45;&gt;run_rnasum_step</title>
<path fill="none" stroke="black" d="M2906.57,-808.78C2898.68,-798.16 2887.25,-785.23 2874,-777.7 2488.41,-558.71 1941.86,-527.04 1718.27,-523.76"/>
<polygon fill="black" stroke="black" points="1718.24,-520.26 1708.19,-523.63 1718.14,-527.26 1718.24,-520.26"/>
</g>
<!-- cn_gene_tsv -->
<g id="node5" class="node">
<title>cn_gene_tsv</title>
<polygon fill="#94ddf4" stroke="black" points="2761.5,-809.2 2761.5,-845.2 2864.5,-845.2 2864.5,-809.2 2761.5,-809.2"/>
<text text-anchor="middle" x="2813" y="-823.5" font-family="Times,serif" font-size="14.00">cn_gene_tsv</text>
</g>
<!-- cn_gene_tsv&#45;&gt;run_rnasum_step -->
<g id="edge5" class="edge">
<title>cn_gene_tsv&#45;&gt;run_rnasum_step</title>
<path fill="none" stroke="black" d="M2795.79,-808.98C2784.3,-798.44 2768.36,-785.52 2752,-777.7 2392.31,-605.84 1912.3,-548.29 1711.53,-530.95"/>
<polygon fill="black" stroke="black" points="1711.57,-527.44 1701.31,-530.08 1710.98,-534.42 1711.57,-527.44"/>
</g>
<!-- cn_loss -->
<g id="node6" class="node">
<title>cn_loss</title>
<polygon fill="#94ddf4" stroke="black" points="2675,-809.2 2675,-845.2 2743,-845.2 2743,-809.2 2675,-809.2"/>
<text text-anchor="middle" x="2709" y="-823.5" font-family="Times,serif" font-size="14.00">cn_loss</text>
</g>
<!-- cn_loss&#45;&gt;run_rnasum_step -->
<g id="edge6" class="edge">
<title>cn_loss&#45;&gt;run_rnasum_step</title>
<path fill="none" stroke="black" d="M2697.82,-808.95C2690.1,-798.4 2678.92,-785.47 2666,-777.7 2353.64,-589.93 1910.32,-541.15 1715.4,-528.55"/>
<polygon fill="black" stroke="black" points="1715.38,-525.04 1705.18,-527.91 1714.94,-532.03 1715.38,-525.04"/>
</g>
<!-- dataset -->
<g id="node7" class="node">
<title>dataset</title>
<polygon fill="#94ddf4" stroke="black" points="2587,-809.2 2587,-845.2 2657,-845.2 2657,-809.2 2587,-809.2"/>
<text text-anchor="middle" x="2622" y="-823.5" font-family="Times,serif" font-size="14.00">dataset</text>
</g>
<!-- dataset&#45;&gt;run_rnasum_step -->
<g id="edge7" class="edge">
<title>dataset&#45;&gt;run_rnasum_step</title>
<path fill="none" stroke="black" d="M2610.42,-809.05C2602.46,-798.53 2591.02,-785.61 2578,-777.7 2293.07,-604.59 1890.79,-548.38 1710.62,-531.23"/>
<polygon fill="black" stroke="black" points="1710.93,-527.74 1700.65,-530.3 1710.28,-534.71 1710.93,-527.74"/>
</g>
<!-- dataset_name_incl -->
<g id="node8" class="node">
<title>dataset_name_incl</title>
<polygon fill="#94ddf4" stroke="black" points="2421,-809.2 2421,-845.2 2569,-845.2 2569,-809.2 2421,-809.2"/>
<text text-anchor="middle" x="2495" y="-823.5" font-family="Times,serif" font-size="14.00">dataset_name_incl</text>
</g>
<!-- dataset_name_incl&#45;&gt;run_rnasum_step -->
<g id="edge8" class="edge">
<title>dataset_name_incl&#45;&gt;run_rnasum_step</title>
<path fill="none" stroke="black" d="M2469.25,-809.16C2453.24,-799.08 2431.97,-786.59 2412,-777.7 2151.5,-661.76 1821.63,-574.25 1683.04,-539.99"/>
<polygon fill="black" stroke="black" points="1683.55,-536.51 1673,-537.52 1681.87,-543.31 1683.55,-536.51"/>
</g>
<!-- dragen_fusions -->
<g id="node9" class="node">
<title>dragen_fusions</title>
<polygon fill="#94ddf4" stroke="black" points="2277.5,-809.2 2277.5,-845.2 2402.5,-845.2 2402.5,-809.2 2277.5,-809.2"/>
<text text-anchor="middle" x="2340" y="-823.5" font-family="Times,serif" font-size="14.00">dragen_fusions</text>
</g>
<!-- dragen_fusions&#45;&gt;run_rnasum_step -->
<g id="edge9" class="edge">
<title>dragen_fusions&#45;&gt;run_rnasum_step</title>
<path fill="none" stroke="black" d="M2317.81,-809.1C2304.21,-799.12 2286.17,-786.75 2269,-777.7 2059.42,-667.24 1790.68,-577.94 1674.61,-541.68"/>
<polygon fill="black" stroke="black" points="1675.45,-538.27 1664.86,-538.64 1673.37,-544.96 1675.45,-538.27"/>
</g>
<!-- dragen_mapping_metrics -->
<g id="node10" class="node">
<title>dragen_mapping_metrics</title>
<polygon fill="#94ddf4" stroke="black" points="2062.5,-809.2 2062.5,-845.2 2259.5,-845.2 2259.5,-809.2 2062.5,-809.2"/>
<text text-anchor="middle" x="2161" y="-823.5" font-family="Times,serif" font-size="14.00">dragen_mapping_metrics</text>
</g>
<!-- dragen_mapping_metrics&#45;&gt;run_rnasum_step -->
<g id="edge10" class="edge">
<title>dragen_mapping_metrics&#45;&gt;run_rnasum_step</title>
<path fill="none" stroke="black" d="M2130.19,-809.1C2036.81,-757.26 1757.07,-601.96 1654.9,-545.24"/>
<polygon fill="black" stroke="black" points="1656.58,-542.17 1646.14,-540.38 1653.18,-548.29 1656.58,-542.17"/>
</g>
<!-- drugs -->
<g id="node11" class="node">
<title>drugs</title>
<polygon fill="#94ddf4" stroke="black" points="1986,-809.2 1986,-845.2 2044,-845.2 2044,-809.2 1986,-809.2"/>
<text text-anchor="middle" x="2015" y="-823.5" font-family="Times,serif" font-size="14.00">drugs</text>
</g>
<!-- drugs&#45;&gt;run_rnasum_step -->
<g id="edge11" class="edge">
<title>drugs&#45;&gt;run_rnasum_step</title>
<path fill="none" stroke="black" d="M2003.44,-809.03C1996.43,-799.26 1986.93,-787.13 1977,-777.7 1871.2,-677.17 1722.97,-585.59 1654.45,-545.53"/>
<polygon fill="black" stroke="black" points="1656.12,-542.45 1645.71,-540.45 1652.6,-548.5 1656.12,-542.45"/>
</g>
<!-- filter -->
<g id="node12" class="node">
<title>filter</title>
<polygon fill="#94ddf4" stroke="black" points="1914,-809.2 1914,-845.2 1968,-845.2 1968,-809.2 1914,-809.2"/>
<text text-anchor="middle" x="1941" y="-823.5" font-family="Times,serif" font-size="14.00">filter</text>
</g>
<!-- filter&#45;&gt;run_rnasum_step -->
<g id="edge12" class="edge">
<title>filter&#45;&gt;run_rnasum_step</title>
<path fill="none" stroke="black" d="M1929.5,-808.91C1922.81,-799.33 1913.95,-787.43 1905,-777.7 1819.17,-684.41 1701.78,-589.72 1647.2,-547.28"/>
<polygon fill="black" stroke="black" points="1649.04,-544.28 1638.99,-540.92 1644.75,-549.81 1649.04,-544.28"/>
</g>
<!-- immunogram -->
<g id="node13" class="node">
<title>immunogram</title>
<polygon fill="#94ddf4" stroke="black" points="1784,-809.2 1784,-845.2 1896,-845.2 1896,-809.2 1784,-809.2"/>
<text text-anchor="middle" x="1840" y="-823.5" font-family="Times,serif" font-size="14.00">immunogram</text>
</g>
<!-- immunogram&#45;&gt;run_rnasum_step -->
<g id="edge13" class="edge">
<title>immunogram&#45;&gt;run_rnasum_step</title>
<path fill="none" stroke="black" d="M1827.37,-809.1C1789.96,-758.44 1679.58,-608.96 1635.5,-549.25"/>
<polygon fill="black" stroke="black" points="1638.25,-547.08 1629.49,-541.12 1632.61,-551.24 1638.25,-547.08"/>
</g>
<!-- kallisto -->
<g id="node14" class="node">
<title>kallisto</title>
<polygon fill="#94ddf4" stroke="black" points="1698,-809.2 1698,-845.2 1766,-845.2 1766,-809.2 1698,-809.2"/>
<text text-anchor="middle" x="1732" y="-823.5" font-family="Times,serif" font-size="14.00">kallisto</text>
</g>
<!-- kallisto&#45;&gt;run_rnasum_step -->
<g id="edge14" class="edge">
<title>kallisto&#45;&gt;run_rnasum_step</title>
<path fill="none" stroke="black" d="M1725.49,-809.1C1706.4,-758.97 1650.47,-612.09 1627.27,-551.17"/>
<polygon fill="black" stroke="black" points="1630.41,-549.59 1623.58,-541.49 1623.87,-552.08 1630.41,-549.59"/>
</g>
<!-- log -->
<g id="node15" class="node">
<title>log</title>
<polygon fill="#94ddf4" stroke="black" points="1626,-809.2 1626,-845.2 1680,-845.2 1680,-809.2 1626,-809.2"/>
<text text-anchor="middle" x="1653" y="-823.5" font-family="Times,serif" font-size="14.00">log</text>
</g>
<!-- log&#45;&gt;run_rnasum_step -->
<g id="edge15" class="edge">
<title>log&#45;&gt;run_rnasum_step</title>
<path fill="none" stroke="black" d="M1650.96,-809.1C1645,-759.07 1627.55,-612.7 1620.26,-551.55"/>
<polygon fill="black" stroke="black" points="1623.72,-551.01 1619.06,-541.49 1616.77,-551.84 1623.72,-551.01"/>
</g>
<!-- norm -->
<g id="node16" class="node">
<title>norm</title>
<polygon fill="#94ddf4" stroke="black" points="1554,-809.2 1554,-845.2 1608,-845.2 1608,-809.2 1554,-809.2"/>
<text text-anchor="middle" x="1581" y="-823.5" font-family="Times,serif" font-size="14.00">norm</text>
</g>
<!-- norm&#45;&gt;run_rnasum_step -->
<g id="edge16" class="edge">
<title>norm&#45;&gt;run_rnasum_step</title>
<path fill="none" stroke="black" d="M1583.04,-809.1C1589,-759.07 1606.45,-612.7 1613.74,-551.55"/>
<polygon fill="black" stroke="black" points="1617.23,-551.84 1614.94,-541.49 1610.28,-551.01 1617.23,-551.84"/>
</g>
<!-- pcgr_splice_vars -->
<g id="node17" class="node">
<title>pcgr_splice_vars</title>
<polygon fill="#94ddf4" stroke="black" points="1402,-809.2 1402,-845.2 1536,-845.2 1536,-809.2 1402,-809.2"/>
<text text-anchor="middle" x="1469" y="-823.5" font-family="Times,serif" font-size="14.00">pcgr_splice_vars</text>
</g>
<!-- pcgr_splice_vars&#45;&gt;run_rnasum_step -->
<g id="edge17" class="edge">
<title>pcgr_splice_vars&#45;&gt;run_rnasum_step</title>
<path fill="none" stroke="black" d="M1477.38,-809.1C1502,-758.87 1574.23,-611.49 1603.97,-550.79"/>
<polygon fill="black" stroke="black" points="1607.27,-552.01 1608.53,-541.49 1600.98,-548.93 1607.27,-552.01"/>
</g>
<!-- pcgr_tier -->
<g id="node18" class="node">
<title>pcgr_tier</title>
<polygon fill="#94ddf4" stroke="black" points="1302.5,-809.2 1302.5,-845.2 1383.5,-845.2 1383.5,-809.2 1302.5,-809.2"/>
<text text-anchor="middle" x="1343" y="-823.5" font-family="Times,serif" font-size="14.00">pcgr_tier</text>
</g>
<!-- pcgr_tier&#45;&gt;run_rnasum_step -->
<g id="edge18" class="edge">
<title>pcgr_tier&#45;&gt;run_rnasum_step</title>
<path fill="none" stroke="black" d="M1358.52,-809.1C1404.58,-758.33 1540.66,-608.34 1594.6,-548.89"/>
<polygon fill="black" stroke="black" points="1597.53,-550.88 1601.65,-541.12 1592.34,-546.17 1597.53,-550.88"/>
</g>
<!-- pcgr_tiers_tsv -->
<g id="node19" class="node">
<title>pcgr_tiers_tsv</title>
<polygon fill="#94ddf4" stroke="black" points="1167.5,-809.2 1167.5,-845.2 1284.5,-845.2 1284.5,-809.2 1167.5,-809.2"/>
<text text-anchor="middle" x="1226" y="-823.5" font-family="Times,serif" font-size="14.00">pcgr_tiers_tsv</text>
</g>
<!-- pcgr_tiers_tsv&#45;&gt;run_rnasum_step -->
<g id="edge19" class="edge">
<title>pcgr_tiers_tsv&#45;&gt;run_rnasum_step</title>
<path fill="none" stroke="black" d="M1248.14,-809.1C1314.56,-757.8 1512.17,-605.17 1587.44,-547.04"/>
<polygon fill="black" stroke="black" points="1589.81,-549.63 1595.58,-540.75 1585.53,-544.09 1589.81,-549.63"/>
</g>
<!-- project -->
<g id="node20" class="node">
<title>project</title>
<polygon fill="#94ddf4" stroke="black" points="1082.5,-809.2 1082.5,-845.2 1149.5,-845.2 1149.5,-809.2 1082.5,-809.2"/>
<text text-anchor="middle" x="1116" y="-823.5" font-family="Times,serif" font-size="14.00">project</text>
</g>
<!-- project&#45;&gt;run_rnasum_step -->
<g id="edge20" class="edge">
<title>project&#45;&gt;run_rnasum_step</title>
<path fill="none" stroke="black" d="M1128.7,-809.17C1136.67,-799.21 1147.58,-786.85 1159,-777.7 1294.87,-668.84 1483.86,-580.95 1570.39,-543.61"/>
<polygon fill="black" stroke="black" points="1571.87,-546.78 1579.68,-539.62 1569.11,-540.35 1571.87,-546.78"/>
</g>
<!-- report_dir -->
<g id="node21" class="node">
<title>report_dir</title>
<polygon fill="#94ddf4" stroke="black" points="975.5,-809.2 975.5,-845.2 1064.5,-845.2 1064.5,-809.2 975.5,-809.2"/>
<text text-anchor="middle" x="1020" y="-823.5" font-family="Times,serif" font-size="14.00">report_dir</text>
</g>
<!-- report_dir&#45;&gt;run_rnasum_step -->
<g id="edge21" class="edge">
<title>report_dir&#45;&gt;run_rnasum_step</title>
<path fill="none" stroke="black" d="M1036.44,-809.09C1046.62,-799.1 1060.34,-786.74 1074,-777.7 1241.33,-667.04 1464.66,-579.26 1564.69,-542.68"/>
<polygon fill="black" stroke="black" points="1566.07,-545.9 1574.27,-539.19 1563.68,-539.32 1566.07,-545.9"/>
</g>
<!-- salmon -->
<g id="node22" class="node">
<title>salmon</title>
<polygon fill="#94ddf4" stroke="black" points="889,-809.2 889,-845.2 957,-845.2 957,-809.2 889,-809.2"/>
<text text-anchor="middle" x="923" y="-823.5" font-family="Times,serif" font-size="14.00">salmon</text>
</g>
<!-- salmon&#45;&gt;run_rnasum_step -->
<g id="edge22" class="edge">
<title>salmon&#45;&gt;run_rnasum_step</title>
<path fill="none" stroke="black" d="M935.27,-809.08C943.33,-798.84 954.64,-786.21 967,-777.7 1157.63,-646.46 1425.81,-569.91 1549.57,-539.52"/>
<polygon fill="black" stroke="black" points="1550.41,-542.92 1559.3,-537.16 1548.76,-536.12 1550.41,-542.92"/>
</g>
<!-- sample_name -->
<g id="node23" class="node">
<title>sample_name</title>
<polygon fill="#94ddf4" stroke="black" points="757.5,-809.2 757.5,-845.2 870.5,-845.2 870.5,-809.2 757.5,-809.2"/>
<text text-anchor="middle" x="814" y="-823.5" font-family="Times,serif" font-size="14.00">sample_name</text>
</g>
<!-- sample_name&#45;&gt;run_rnasum_step -->
<g id="edge23" class="edge">
<title>sample_name&#45;&gt;run_rnasum_step</title>
<path fill="none" stroke="black" d="M834.04,-808.99C846.6,-798.84 863.5,-786.35 880,-777.7 1113.34,-655.48 1418,-572.55 1550.56,-539.83"/>
<polygon fill="black" stroke="black" points="1551.69,-543.16 1560.57,-537.38 1550.02,-536.36 1551.69,-543.16"/>
</g>
<!-- sample_source -->
<g id="node24" class="node">
<title>sample_source</title>
<polygon fill="#94ddf4" stroke="black" points="617,-809.2 617,-845.2 739,-845.2 739,-809.2 617,-809.2"/>
<text text-anchor="middle" x="678" y="-823.5" font-family="Times,serif" font-size="14.00">sample_source</text>
</g>
<!-- sample_source&#45;&gt;run_rnasum_step -->
<g id="edge24" class="edge">
<title>sample_source&#45;&gt;run_rnasum_step</title>
<path fill="none" stroke="black" d="M699.3,-809.02C712.87,-798.76 731.19,-786.13 749,-777.7 1027.27,-646.12 1388.45,-567.39 1542.31,-537.74"/>
<polygon fill="black" stroke="black" points="1542.98,-541.18 1552.15,-535.86 1541.67,-534.3 1542.98,-541.18"/>
</g>
<!-- save_tables -->
<g id="node25" class="node">
<title>save_tables</title>
<polygon fill="#94ddf4" stroke="black" points="499.5,-809.2 499.5,-845.2 598.5,-845.2 598.5,-809.2 499.5,-809.2"/>
<text text-anchor="middle" x="549" y="-823.5" font-family="Times,serif" font-size="14.00">save_tables</text>
</g>
<!-- save_tables&#45;&gt;run_rnasum_step -->
<g id="edge25" class="edge">
<title>save_tables&#45;&gt;run_rnasum_step</title>
<path fill="none" stroke="black" d="M565.62,-809.11C576.71,-798.62 592.14,-785.7 608,-777.7 923.57,-618.56 1346.22,-554.6 1527.89,-533.29"/>
<polygon fill="black" stroke="black" points="1528.4,-536.75 1537.93,-532.12 1527.6,-529.8 1528.4,-536.75"/>
</g>
<!-- scaling -->
<g id="node26" class="node">
<title>scaling</title>
<polygon fill="#94ddf4" stroke="black" points="414.5,-809.2 414.5,-845.2 481.5,-845.2 481.5,-809.2 414.5,-809.2"/>
<text text-anchor="middle" x="448" y="-823.5" font-family="Times,serif" font-size="14.00">scaling</text>
</g>
<!-- scaling&#45;&gt;run_rnasum_step -->
<g id="edge26" class="edge">
<title>scaling&#45;&gt;run_rnasum_step</title>
<path fill="none" stroke="black" d="M459.14,-808.88C466.84,-798.3 478.02,-785.37 491,-777.7 829.5,-577.8 1310.48,-535.41 1516.76,-526.51"/>
<polygon fill="black" stroke="black" points="1517.12,-530 1526.97,-526.09 1516.83,-523.01 1517.12,-530"/>
</g>
<!-- subject_id -->
<g id="node27" class="node">
<title>subject_id</title>
<polygon fill="#94ddf4" stroke="black" points="307.5,-809.2 307.5,-845.2 396.5,-845.2 396.5,-809.2 307.5,-809.2"/>
<text text-anchor="middle" x="352" y="-823.5" font-family="Times,serif" font-size="14.00">subject_id</text>
</g>
<!-- subject_id&#45;&gt;run_rnasum_step -->
<g id="edge27" class="edge">
<title>subject_id&#45;&gt;run_rnasum_step</title>
<path fill="none" stroke="black" d="M366.84,-808.86C376.85,-798.27 390.94,-785.34 406,-777.7 785.85,-585.19 1303.65,-538.82 1517.92,-527.69"/>
<polygon fill="black" stroke="black" points="1518.4,-531.17 1528.21,-527.18 1518.04,-524.18 1518.4,-531.17"/>
</g>
<!-- sv_tsv -->
<g id="node28" class="node">
<title>sv_tsv</title>
<polygon fill="#94ddf4" stroke="black" points="228.5,-809.2 228.5,-845.2 289.5,-845.2 289.5,-809.2 228.5,-809.2"/>
<text text-anchor="middle" x="259" y="-823.5" font-family="Times,serif" font-size="14.00">sv_tsv</text>
</g>
<!-- sv_tsv&#45;&gt;run_rnasum_step -->
<g id="edge28" class="edge">
<title>sv_tsv&#45;&gt;run_rnasum_step</title>
<path fill="none" stroke="black" d="M269.03,-808.74C276.05,-798.11 286.42,-785.17 299,-777.7 510.21,-652.36 1267.31,-561.55 1528.03,-533.39"/>
<polygon fill="black" stroke="black" points="1528.64,-536.85 1538.21,-532.3 1527.89,-529.89 1528.64,-536.85"/>
</g>
<!-- top_genes -->
<g id="node29" class="node">
<title>top_genes</title>
<polygon fill="#94ddf4" stroke="black" points="121.5,-809.2 121.5,-845.2 210.5,-845.2 210.5,-809.2 121.5,-809.2"/>
<text text-anchor="middle" x="166" y="-823.5" font-family="Times,serif" font-size="14.00">top_genes</text>
</g>
<!-- top_genes&#45;&gt;run_rnasum_step -->
<g id="edge29" class="edge">
<title>top_genes&#45;&gt;run_rnasum_step</title>
<path fill="none" stroke="black" d="M180.33,-809.19C190.33,-798.46 204.61,-785.24 220,-777.7 666.79,-558.76 1277.53,-527.48 1515.9,-524.04"/>
<polygon fill="black" stroke="black" points="1515.99,-527.54 1525.94,-523.91 1515.9,-520.54 1515.99,-527.54"/>
</g>
<!-- transform -->
<g id="node30" class="node">
<title>transform</title>
<polygon fill="#94ddf4" stroke="black" points="16,-809.2 16,-845.2 104,-845.2 104,-809.2 16,-809.2"/>
<text text-anchor="middle" x="60" y="-823.5" font-family="Times,serif" font-size="14.00">transform</text>
</g>
<!-- transform&#45;&gt;run_rnasum_step -->
<g id="edge30" class="edge">
<title>transform&#45;&gt;run_rnasum_step</title>
<path fill="none" stroke="black" d="M73.97,-809.13C83.75,-798.37 97.76,-785.14 113,-777.7 366.72,-653.88 1241.29,-560.45 1526.37,-532.69"/>
<polygon fill="black" stroke="black" points="1527.05,-536.14 1536.67,-531.69 1526.38,-529.18 1527.05,-536.14"/>
</g>
<!-- rnasum_html -->
<g id="node32" class="node">
<title>rnasum_html</title>
<polygon fill="#94ddf4" stroke="black" points="1648,-213.2 1648,-249.2 1758,-249.2 1758,-213.2 1648,-213.2"/>
<text text-anchor="middle" x="1703" y="-227.5" font-family="Times,serif" font-size="14.00">rnasum_html</text>
</g>
<!-- run_rnasum_step&#45;&gt;rnasum_html -->
<g id="edge31" class="edge">
<title>run_rnasum_step&#45;&gt;rnasum_html</title>
<path fill="none" stroke="black" d="M1622.12,-504.93C1636.55,-456.27 1677.62,-317.8 1695.03,-259.06"/>
<polygon fill="black" stroke="black" points="1698.42,-259.97 1697.9,-249.38 1691.71,-257.98 1698.42,-259.97"/>
</g>
<!-- rnasum_output_directory -->
<g id="node33" class="node">
<title>rnasum_output_directory</title>
<polygon fill="#94ddf4" stroke="black" points="1432.5,-213.2 1432.5,-249.2 1629.5,-249.2 1629.5,-213.2 1432.5,-213.2"/>
<text text-anchor="middle" x="1531" y="-227.5" font-family="Times,serif" font-size="14.00">rnasum_output_directory</text>
</g>
<!-- run_rnasum_step&#45;&gt;rnasum_output_directory -->
<g id="edge32" class="edge">
<title>run_rnasum_step&#45;&gt;rnasum_output_directory</title>
<path fill="none" stroke="black" d="M1611.88,-504.93C1597.45,-456.27 1556.38,-317.8 1538.97,-259.06"/>
<polygon fill="black" stroke="black" points="1542.29,-257.98 1536.1,-249.38 1535.58,-259.97 1542.29,-257.98"/>
</g>
</g>
</svg>
