<?xml version="1.0" encoding="UTF-8" standalone="no"?>
<!DOCTYPE svg PUBLIC "-//W3C//DTD SVG 1.1//EN"
 "http://www.w3.org/Graphics/SVG/1.1/DTD/svg11.dtd">
<!-- Generated by graphviz version 2.43.0 (0)
 -->
<!-- Title: G Pages: 1 -->
<svg width="3190pt" height="963pt"
 viewBox="0.00 0.00 3190.00 962.60" xmlns="http://www.w3.org/2000/svg" xmlns:xlink="http://www.w3.org/1999/xlink">
<g id="graph0" class="graph" transform="scale(1 1) rotate(0) translate(4 958.6)">
<title>G</title>
<polygon fill="#eeeeee" stroke="transparent" points="-4,4 -4,-958.6 3186,-958.6 3186,4 -4,4"/>
<g id="clust1" class="cluster">
<title>cluster_inputs</title>
<polygon fill="#eeeeee" stroke="black" stroke-dasharray="5,2" points="8,-699.23 8,-930.28 3174,-930.28 3174,-699.23 8,-699.23"/>
<text text-anchor="middle" x="3107.5" y="-707.03" font-family="Times,serif" font-size="14.00">Workflow Inputs</text>
</g>
<g id="clust2" class="cluster">
<title>cluster_outputs</title>
<polygon fill="#eeeeee" stroke="black" stroke-dasharray="5,2" points="542,-24.32 542,-255.37 1443,-255.37 1443,-24.32 542,-24.32"/>
<text text-anchor="middle" x="1370.5" y="-32.12" font-family="Times,serif" font-size="14.00">Workflow Outputs</text>
</g>
<!-- samtools_stats_step -->
<g id="node1" class="node">
<title>samtools_stats_step</title>
<polygon fill="lightgoldenrodyellow" stroke="black" points="1816,-600.32 1816,-636.32 2004,-636.32 2004,-600.32 1816,-600.32"/>
<text text-anchor="middle" x="1910" y="-614.62" font-family="Times,serif" font-size="14.00">samtools&#45;stats v(1.13.0)</text>
</g>
<!-- custom_stats_qc_step -->
<g id="node2" class="node">
<title>custom_stats_qc_step</title>
<polygon fill="lightgoldenrodyellow" stroke="black" points="882,-378.32 882,-414.32 1070,-414.32 1070,-378.32 882,-378.32"/>
<text text-anchor="middle" x="976" y="-392.62" font-family="Times,serif" font-size="14.00">custom&#45;stats&#45;qc v(1.0.1)</text>
</g>
<!-- samtools_stats_step&#45;&gt;custom_stats_qc_step -->
<g id="edge1" class="edge">
<title>samtools_stats_step&#45;&gt;custom_stats_qc_step</title>
<path fill="none" stroke="black" d="M1837.49,-600.24C1666.49,-559.96 1238.91,-459.25 1058.43,-416.74"/>
<polygon fill="black" stroke="black" points="1059,-413.28 1048.47,-414.39 1057.4,-420.09 1059,-413.28"/>
</g>
<!-- samtools_stats_output_txt -->
<g id="node34" class="node">
<title>samtools_stats_output_txt</title>
<polygon fill="#94ddf4" stroke="black" points="1232.5,-156.32 1232.5,-192.32 1435.5,-192.32 1435.5,-156.32 1232.5,-156.32"/>
<text text-anchor="middle" x="1334" y="-170.62" font-family="Times,serif" font-size="14.00">samtools_stats_output_txt</text>
</g>
<!-- samtools_stats_step&#45;&gt;samtools_stats_output_txt -->
<g id="edge35" class="edge">
<title>samtools_stats_step&#45;&gt;samtools_stats_output_txt</title>
<path fill="none" stroke="black" d="M1887.77,-600.26C1798.59,-531.83 1466.59,-277.06 1364.24,-198.52"/>
<polygon fill="black" stroke="black" points="1366.22,-195.64 1356.16,-192.33 1361.96,-201.19 1366.22,-195.64"/>
</g>
<!-- custom_stats_qc_combined_json -->
<g id="node31" class="node">
<title>custom_stats_qc_combined_json</title>
<polygon fill="#94ddf4" stroke="black" points="726.5,-156.32 726.5,-192.32 971.5,-192.32 971.5,-156.32 726.5,-156.32"/>
<text text-anchor="middle" x="849" y="-170.62" font-family="Times,serif" font-size="14.00">custom_stats_qc_combined_json</text>
</g>
<!-- custom_stats_qc_step&#45;&gt;custom_stats_qc_combined_json -->
<g id="edge32" class="edge">
<title>custom_stats_qc_step&#45;&gt;custom_stats_qc_combined_json</title>
<path fill="none" stroke="black" d="M966.03,-378.06C943.82,-339.58 890.16,-246.62 863.93,-201.18"/>
<polygon fill="black" stroke="black" points="866.95,-199.41 858.92,-192.5 860.89,-202.91 866.95,-199.41"/>
</g>
<!-- custom_stats_qc_output_json -->
<g id="node32" class="node">
<title>custom_stats_qc_output_json</title>
<polygon fill="#94ddf4" stroke="black" points="990,-156.32 990,-192.32 1214,-192.32 1214,-156.32 990,-156.32"/>
<text text-anchor="middle" x="1102" y="-170.62" font-family="Times,serif" font-size="14.00">custom_stats_qc_output_json</text>
</g>
<!-- custom_stats_qc_step&#45;&gt;custom_stats_qc_output_json -->
<g id="edge33" class="edge">
<title>custom_stats_qc_step&#45;&gt;custom_stats_qc_output_json</title>
<path fill="none" stroke="black" d="M985.89,-378.06C1007.92,-339.58 1061.17,-246.62 1087.19,-201.18"/>
<polygon fill="black" stroke="black" points="1090.23,-202.92 1092.16,-192.5 1084.15,-199.44 1090.23,-202.92"/>
</g>
<!-- calculate_coverage_step -->
<g id="node3" class="node">
<title>calculate_coverage_step</title>
<polygon fill="lightgoldenrodyellow" stroke="black" points="380.5,-600.32 380.5,-636.32 589.5,-636.32 589.5,-600.32 380.5,-600.32"/>
<text text-anchor="middle" x="485" y="-614.62" font-family="Times,serif" font-size="14.00">calculate&#45;coverage v(1.0.0)</text>
</g>
<!-- calculate_coverage_step&#45;&gt;custom_stats_qc_step -->
<g id="edge2" class="edge">
<title>calculate_coverage_step&#45;&gt;custom_stats_qc_step</title>
<path fill="none" stroke="black" d="M523.12,-600.24C611.76,-560.52 831.55,-462.04 928.63,-418.55"/>
<polygon fill="black" stroke="black" points="930.21,-421.67 937.9,-414.39 927.35,-415.29 930.21,-421.67"/>
</g>
<!-- precise_output_json -->
<g id="node33" class="node">
<title>precise_output_json</title>
<polygon fill="#94ddf4" stroke="black" points="550,-156.32 550,-192.32 708,-192.32 708,-156.32 550,-156.32"/>
<text text-anchor="middle" x="629" y="-170.62" font-family="Times,serif" font-size="14.00">precise_output_json</text>
</g>
<!-- calculate_coverage_step&#45;&gt;precise_output_json -->
<g id="edge34" class="edge">
<title>calculate_coverage_step&#45;&gt;precise_output_json</title>
<path fill="none" stroke="black" d="M490.56,-600.26C512.52,-532.87 593.35,-284.75 620.24,-202.22"/>
<polygon fill="black" stroke="black" points="623.61,-203.16 623.38,-192.56 616.96,-200.99 623.61,-203.16"/>
</g>
<!-- log_level -->
<g id="node4" class="node">
<title>log_level</title>
<polygon fill="#94ddf4" stroke="black" points="138.5,-831.32 138.5,-867.32 217.5,-867.32 217.5,-831.32 138.5,-831.32"/>
<text text-anchor="middle" x="178" y="-845.62" font-family="Times,serif" font-size="14.00">log_level</text>
</g>
<!-- log_level&#45;&gt;calculate_coverage_step -->
<g id="edge3" class="edge">
<title>log_level&#45;&gt;calculate_coverage_step</title>
<path fill="none" stroke="black" d="M193.73,-830.94C202.77,-821.33 214.58,-809.43 226,-799.82 300.72,-736.93 396.91,-674.14 448.47,-641.78"/>
<polygon fill="black" stroke="black" points="450.34,-644.74 456.96,-636.48 446.63,-638.81 450.34,-644.74"/>
</g>
<!-- map_quality -->
<g id="node5" class="node">
<title>map_quality</title>
<polygon fill="#94ddf4" stroke="black" points="16,-831.32 16,-867.32 120,-867.32 120,-831.32 16,-831.32"/>
<text text-anchor="middle" x="68" y="-845.62" font-family="Times,serif" font-size="14.00">map_quality</text>
</g>
<!-- map_quality&#45;&gt;calculate_coverage_step -->
<g id="edge4" class="edge">
<title>map_quality&#45;&gt;calculate_coverage_step</title>
<path fill="none" stroke="black" d="M87.93,-831.12C99.75,-821.34 115.25,-809.22 130,-799.82 234.29,-733.4 366.12,-671.69 436.11,-640.53"/>
<polygon fill="black" stroke="black" points="437.85,-643.59 445.57,-636.33 435.01,-637.19 437.85,-643.59"/>
</g>
<!-- out_directory -->
<g id="node6" class="node">
<title>out_directory</title>
<polygon fill="#94ddf4" stroke="black" points="429,-831.32 429,-867.32 541,-867.32 541,-831.32 429,-831.32"/>
<text text-anchor="middle" x="485" y="-845.62" font-family="Times,serif" font-size="14.00">out_directory</text>
</g>
<!-- out_directory&#45;&gt;calculate_coverage_step -->
<g id="edge5" class="edge">
<title>out_directory&#45;&gt;calculate_coverage_step</title>
<path fill="none" stroke="black" d="M485,-831.11C485,-791.64 485,-694.35 485,-646.62"/>
<polygon fill="black" stroke="black" points="488.5,-646.42 485,-636.42 481.5,-646.42 488.5,-646.42"/>
</g>
<!-- output_json -->
<g id="node7" class="node">
<title>output_json</title>
<polygon fill="#94ddf4" stroke="black" points="311,-831.32 311,-867.32 411,-867.32 411,-831.32 311,-831.32"/>
<text text-anchor="middle" x="361" y="-845.62" font-family="Times,serif" font-size="14.00">output_json</text>
</g>
<!-- output_json&#45;&gt;calculate_coverage_step -->
<g id="edge6" class="edge">
<title>output_json&#45;&gt;calculate_coverage_step</title>
<path fill="none" stroke="black" d="M370.32,-831.11C391.87,-791.31 445.26,-692.71 470.86,-645.43"/>
<polygon fill="black" stroke="black" points="474.06,-646.88 475.74,-636.42 467.9,-643.55 474.06,-646.88"/>
</g>
<!-- input_bam -->
<g id="node8" class="node">
<title>input_bam</title>
<polygon fill="#94ddf4" stroke="black" points="559,-831.32 559,-867.32 651,-867.32 651,-831.32 559,-831.32"/>
<text text-anchor="middle" x="605" y="-845.62" font-family="Times,serif" font-size="14.00">input_bam</text>
</g>
<!-- input_bam&#45;&gt;samtools_stats_step -->
<g id="edge8" class="edge">
<title>input_bam&#45;&gt;samtools_stats_step</title>
<path fill="none" stroke="black" d="M619.89,-831.13C630.28,-820.32 645.09,-807.09 661,-799.82 865.27,-706.48 1543.38,-646.88 1805.4,-626.84"/>
<polygon fill="black" stroke="black" points="1805.97,-630.31 1815.68,-626.06 1805.44,-623.33 1805.97,-630.31"/>
</g>
<!-- input_bam&#45;&gt;calculate_coverage_step -->
<g id="edge7" class="edge">
<title>input_bam&#45;&gt;calculate_coverage_step</title>
<path fill="none" stroke="black" d="M595.98,-831.11C575.12,-791.31 523.46,-692.71 498.68,-645.43"/>
<polygon fill="black" stroke="black" points="501.7,-643.65 493.96,-636.42 495.5,-646.9 501.7,-643.65"/>
</g>
<!-- script -->
<g id="node9" class="node">
<title>script</title>
<polygon fill="#94ddf4" stroke="black" points="235,-831.32 235,-867.32 293,-867.32 293,-831.32 235,-831.32"/>
<text text-anchor="middle" x="264" y="-845.62" font-family="Times,serif" font-size="14.00">script</text>
</g>
<!-- script&#45;&gt;calculate_coverage_step -->
<g id="edge9" class="edge">
<title>script&#45;&gt;calculate_coverage_step</title>
<path fill="none" stroke="black" d="M276.5,-831.28C283.68,-821.78 293.03,-809.88 302,-799.82 354.47,-741 421.66,-677.42 458.27,-643.65"/>
<polygon fill="black" stroke="black" points="461.04,-645.86 466.04,-636.51 456.31,-640.7 461.04,-645.86"/>
</g>
<!-- target_regions -->
<g id="node10" class="node">
<title>target_regions</title>
<polygon fill="#94ddf4" stroke="black" points="669.5,-831.32 669.5,-867.32 790.5,-867.32 790.5,-831.32 669.5,-831.32"/>
<text text-anchor="middle" x="730" y="-845.62" font-family="Times,serif" font-size="14.00">target_regions</text>
</g>
<!-- target_regions&#45;&gt;samtools_stats_step -->
<g id="edge11" class="edge">
<title>target_regions&#45;&gt;samtools_stats_step</title>
<path fill="none" stroke="black" d="M749.43,-831.3C762.76,-820.56 781.35,-807.35 800,-799.82 1149.69,-658.71 1603.55,-627.78 1805.35,-621.1"/>
<polygon fill="black" stroke="black" points="1805.76,-624.59 1815.64,-620.77 1805.54,-617.59 1805.76,-624.59"/>
</g>
<!-- target_regions&#45;&gt;calculate_coverage_step -->
<g id="edge10" class="edge">
<title>target_regions&#45;&gt;calculate_coverage_step</title>
<path fill="none" stroke="black" d="M711.59,-831.11C668.38,-790.73 560.42,-689.81 510.75,-643.39"/>
<polygon fill="black" stroke="black" points="512.99,-640.69 503.29,-636.42 508.21,-645.81 512.99,-640.69"/>
</g>
<!-- output_json_filename -->
<g id="node11" class="node">
<title>output_json_filename</title>
<polygon fill="#94ddf4" stroke="black" points="1055.5,-831.32 1055.5,-867.32 1222.5,-867.32 1222.5,-831.32 1055.5,-831.32"/>
<text text-anchor="middle" x="1139" y="-845.62" font-family="Times,serif" font-size="14.00">output_json_filename</text>
</g>
<!-- output_json_filename&#45;&gt;custom_stats_qc_step -->
<g id="edge12" class="edge">
<title>output_json_filename&#45;&gt;custom_stats_qc_step</title>
<path fill="none" stroke="black" d="M1132.81,-831.19C1108.02,-762.61 1015.84,-507.54 985.64,-424"/>
<polygon fill="black" stroke="black" points="988.89,-422.68 982.2,-414.47 982.3,-425.06 988.89,-422.68"/>
</g>
<!-- sample_id -->
<g id="node12" class="node">
<title>sample_id</title>
<polygon fill="#94ddf4" stroke="black" points="809,-831.32 809,-867.32 897,-867.32 897,-831.32 809,-831.32"/>
<text text-anchor="middle" x="853" y="-845.62" font-family="Times,serif" font-size="14.00">sample_id</text>
</g>
<!-- sample_id&#45;&gt;custom_stats_qc_step -->
<g id="edge13" class="edge">
<title>sample_id&#45;&gt;custom_stats_qc_step</title>
<path fill="none" stroke="black" d="M857.67,-831.19C876.36,-762.68 945.8,-508.06 968.65,-424.25"/>
<polygon fill="black" stroke="black" points="972.07,-425.04 971.32,-414.47 965.32,-423.19 972.07,-425.04"/>
</g>
<!-- sample_source -->
<g id="node13" class="node">
<title>sample_source</title>
<polygon fill="#94ddf4" stroke="black" points="915,-831.32 915,-867.32 1037,-867.32 1037,-831.32 915,-831.32"/>
<text text-anchor="middle" x="976" y="-845.62" font-family="Times,serif" font-size="14.00">sample_source</text>
</g>
<!-- sample_source&#45;&gt;custom_stats_qc_step -->
<g id="edge14" class="edge">
<title>sample_source&#45;&gt;custom_stats_qc_step</title>
<path fill="none" stroke="black" d="M976,-831.19C976,-762.75 976,-508.58 976,-424.51"/>
<polygon fill="black" stroke="black" points="979.5,-424.47 976,-414.47 972.5,-424.47 979.5,-424.47"/>
</g>
<!-- cov_threshold -->
<g id="node14" class="node">
<title>cov_threshold</title>
<polygon fill="#94ddf4" stroke="black" points="1240,-831.32 1240,-867.32 1356,-867.32 1356,-831.32 1240,-831.32"/>
<text text-anchor="middle" x="1298" y="-845.62" font-family="Times,serif" font-size="14.00">cov_threshold</text>
</g>
<!-- cov_threshold&#45;&gt;samtools_stats_step -->
<g id="edge15" class="edge">
<title>cov_threshold&#45;&gt;samtools_stats_step</title>
<path fill="none" stroke="black" d="M1318.05,-831.29C1330.84,-821.08 1348.13,-808.46 1365,-799.82 1519.16,-720.89 1715.12,-665.96 1825.12,-638.8"/>
<polygon fill="black" stroke="black" points="1825.97,-642.2 1834.85,-636.42 1824.3,-635.4 1825.97,-642.2"/>
</g>
<!-- coverage -->
<g id="node15" class="node">
<title>coverage</title>
<polygon fill="#94ddf4" stroke="black" points="3084.5,-831.32 3084.5,-867.32 3165.5,-867.32 3165.5,-831.32 3084.5,-831.32"/>
<text text-anchor="middle" x="3125" y="-845.62" font-family="Times,serif" font-size="14.00">coverage</text>
</g>
<!-- coverage&#45;&gt;samtools_stats_step -->
<g id="edge16" class="edge">
<title>coverage&#45;&gt;samtools_stats_step</title>
<path fill="none" stroke="black" d="M3112.38,-831.17C3103.46,-820.38 3090.54,-807.15 3076,-799.82 2890.06,-706.09 2264.06,-647.39 2014.23,-627.2"/>
<polygon fill="black" stroke="black" points="2014.31,-623.7 2004.06,-626.38 2013.75,-630.67 2014.31,-623.7"/>
</g>
<!-- filtering_flag -->
<g id="node16" class="node">
<title>filtering_flag</title>
<polygon fill="#94ddf4" stroke="black" points="2959.5,-831.32 2959.5,-867.32 3066.5,-867.32 3066.5,-831.32 2959.5,-831.32"/>
<text text-anchor="middle" x="3013" y="-845.62" font-family="Times,serif" font-size="14.00">filtering_flag</text>
</g>
<!-- filtering_flag&#45;&gt;samtools_stats_step -->
<g id="edge17" class="edge">
<title>filtering_flag&#45;&gt;samtools_stats_step</title>
<path fill="none" stroke="black" d="M2996.1,-831.31C2984.42,-820.58 2967.99,-807.36 2951,-799.82 2630.24,-657.44 2207.47,-627.06 2014.33,-620.8"/>
<polygon fill="black" stroke="black" points="2014.29,-617.3 2004.19,-620.49 2014.07,-624.29 2014.29,-617.3"/>
</g>
<!-- gc_depth -->
<g id="node17" class="node">
<title>gc_depth</title>
<polygon fill="#94ddf4" stroke="black" points="2860.5,-831.32 2860.5,-867.32 2941.5,-867.32 2941.5,-831.32 2860.5,-831.32"/>
<text text-anchor="middle" x="2901" y="-845.62" font-family="Times,serif" font-size="14.00">gc_depth</text>
</g>
<!-- gc_depth&#45;&gt;samtools_stats_step -->
<g id="edge18" class="edge">
<title>gc_depth&#45;&gt;samtools_stats_step</title>
<path fill="none" stroke="black" d="M2887.89,-830.87C2878.95,-820.23 2866.19,-807.3 2852,-799.82 2574.38,-653.59 2195.07,-624.84 2014.19,-619.85"/>
<polygon fill="black" stroke="black" points="2014.24,-616.35 2004.15,-619.59 2014.06,-623.34 2014.24,-616.35"/>
</g>
<!-- insert_size -->
<g id="node18" class="node">
<title>insert_size</title>
<polygon fill="#94ddf4" stroke="black" points="2749.5,-831.32 2749.5,-867.32 2842.5,-867.32 2842.5,-831.32 2749.5,-831.32"/>
<text text-anchor="middle" x="2796" y="-845.62" font-family="Times,serif" font-size="14.00">insert_size</text>
</g>
<!-- insert_size&#45;&gt;samtools_stats_step -->
<g id="edge19" class="edge">
<title>insert_size&#45;&gt;samtools_stats_step</title>
<path fill="none" stroke="black" d="M2780.47,-831.03C2770.03,-820.46 2755.41,-807.53 2740,-799.82 2498.12,-678.79 2176.8,-638.54 2014.02,-625.44"/>
<polygon fill="black" stroke="black" points="2014.25,-621.94 2004,-624.65 2013.7,-628.92 2014.25,-621.94"/>
</g>
<!-- most_inserts -->
<g id="node19" class="node">
<title>most_inserts</title>
<polygon fill="#94ddf4" stroke="black" points="2623,-831.32 2623,-867.32 2731,-867.32 2731,-831.32 2623,-831.32"/>
<text text-anchor="middle" x="2677" y="-845.62" font-family="Times,serif" font-size="14.00">most_inserts</text>
</g>
<!-- most_inserts&#45;&gt;samtools_stats_step -->
<g id="edge20" class="edge">
<title>most_inserts&#45;&gt;samtools_stats_step</title>
<path fill="none" stroke="black" d="M2659.04,-831.3C2647.11,-820.83 2630.63,-807.93 2614,-799.82 2414.08,-702.37 2155.7,-653.55 2014.15,-632.58"/>
<polygon fill="black" stroke="black" points="2014.56,-629.11 2004.16,-631.12 2013.55,-636.03 2014.56,-629.11"/>
</g>
<!-- output_filename -->
<g id="node20" class="node">
<title>output_filename</title>
<polygon fill="#94ddf4" stroke="black" points="2473.5,-831.32 2473.5,-867.32 2604.5,-867.32 2604.5,-831.32 2473.5,-831.32"/>
<text text-anchor="middle" x="2539" y="-845.62" font-family="Times,serif" font-size="14.00">output_filename</text>
</g>
<!-- output_filename&#45;&gt;samtools_stats_step -->
<g id="edge21" class="edge">
<title>output_filename&#45;&gt;samtools_stats_step</title>
<path fill="none" stroke="black" d="M2516.28,-831.15C2502.09,-821.02 2483.14,-808.52 2465,-799.82 2304.72,-722.93 2103.44,-666.65 1992.65,-638.85"/>
<polygon fill="black" stroke="black" points="1993.42,-635.43 1982.87,-636.41 1991.72,-642.22 1993.42,-635.43"/>
</g>
<!-- read_length -->
<g id="node21" class="node">
<title>read_length</title>
<polygon fill="#94ddf4" stroke="black" points="2354.5,-831.32 2354.5,-867.32 2455.5,-867.32 2455.5,-831.32 2354.5,-831.32"/>
<text text-anchor="middle" x="2405" y="-845.62" font-family="Times,serif" font-size="14.00">read_length</text>
</g>
<!-- read_length&#45;&gt;samtools_stats_step -->
<g id="edge22" class="edge">
<title>read_length&#45;&gt;samtools_stats_step</title>
<path fill="none" stroke="black" d="M2386.58,-831.11C2375.2,-821.09 2359.97,-808.72 2345,-799.82 2221.05,-726.1 2061.39,-668.28 1974.08,-639.44"/>
<polygon fill="black" stroke="black" points="1975.16,-636.12 1964.57,-636.32 1972.98,-642.77 1975.16,-636.12"/>
</g>
<!-- ref_seq -->
<g id="node22" class="node">
<title>ref_seq</title>
<polygon fill="#94ddf4" stroke="black" points="2268,-831.32 2268,-867.32 2336,-867.32 2336,-831.32 2268,-831.32"/>
<text text-anchor="middle" x="2302" y="-845.62" font-family="Times,serif" font-size="14.00">ref_seq</text>
</g>
<!-- ref_seq&#45;&gt;samtools_stats_step -->
<g id="edge23" class="edge">
<title>ref_seq&#45;&gt;samtools_stats_step</title>
<path fill="none" stroke="black" d="M2289.39,-831.17C2281.45,-821.17 2270.54,-808.81 2259,-799.82 2164.85,-726.54 2036.45,-669.14 1964.54,-640.13"/>
<polygon fill="black" stroke="black" points="1965.79,-636.86 1955.21,-636.39 1963.19,-643.36 1965.79,-636.86"/>
</g>
<!-- remove_dups -->
<g id="node23" class="node">
<title>remove_dups</title>
<polygon fill="#94ddf4" stroke="black" points="2138.5,-831.32 2138.5,-867.32 2249.5,-867.32 2249.5,-831.32 2138.5,-831.32"/>
<text text-anchor="middle" x="2194" y="-845.62" font-family="Times,serif" font-size="14.00">remove_dups</text>
</g>
<!-- remove_dups&#45;&gt;samtools_stats_step -->
<g id="edge24" class="edge">
<title>remove_dups&#45;&gt;samtools_stats_step</title>
<path fill="none" stroke="black" d="M2172.65,-831.11C2122.37,-790.56 1996.39,-688.98 1939.14,-642.82"/>
<polygon fill="black" stroke="black" points="1941.19,-639.97 1931.21,-636.42 1936.79,-645.42 1941.19,-639.97"/>
</g>
<!-- remove_overlaps -->
<g id="node24" class="node">
<title>remove_overlaps</title>
<polygon fill="#94ddf4" stroke="black" points="1983.5,-831.32 1983.5,-867.32 2120.5,-867.32 2120.5,-831.32 1983.5,-831.32"/>
<text text-anchor="middle" x="2052" y="-845.62" font-family="Times,serif" font-size="14.00">remove_overlaps</text>
</g>
<!-- remove_overlaps&#45;&gt;samtools_stats_step -->
<g id="edge25" class="edge">
<title>remove_overlaps&#45;&gt;samtools_stats_step</title>
<path fill="none" stroke="black" d="M2041.33,-831.11C2016.6,-791.22 1955.25,-692.3 1926,-645.13"/>
<polygon fill="black" stroke="black" points="1928.85,-643.07 1920.6,-636.42 1922.9,-646.76 1928.85,-643.07"/>
</g>
<!-- required_flag -->
<g id="node25" class="node">
<title>required_flag</title>
<polygon fill="#94ddf4" stroke="black" points="1854.5,-831.32 1854.5,-867.32 1965.5,-867.32 1965.5,-831.32 1854.5,-831.32"/>
<text text-anchor="middle" x="1910" y="-845.62" font-family="Times,serif" font-size="14.00">required_flag</text>
</g>
<!-- required_flag&#45;&gt;samtools_stats_step -->
<g id="edge26" class="edge">
<title>required_flag&#45;&gt;samtools_stats_step</title>
<path fill="none" stroke="black" d="M1910,-831.11C1910,-791.64 1910,-694.35 1910,-646.62"/>
<polygon fill="black" stroke="black" points="1913.5,-646.42 1910,-636.42 1906.5,-646.42 1913.5,-646.42"/>
</g>
<!-- sparse -->
<g id="node26" class="node">
<title>sparse</title>
<polygon fill="#94ddf4" stroke="black" points="1772,-831.32 1772,-867.32 1836,-867.32 1836,-831.32 1772,-831.32"/>
<text text-anchor="middle" x="1804" y="-845.62" font-family="Times,serif" font-size="14.00">sparse</text>
</g>
<!-- sparse&#45;&gt;samtools_stats_step -->
<g id="edge27" class="edge">
<title>sparse&#45;&gt;samtools_stats_step</title>
<path fill="none" stroke="black" d="M1811.97,-831.11C1830.35,-791.39 1875.84,-693.12 1897.78,-645.72"/>
<polygon fill="black" stroke="black" points="1901.06,-646.97 1902.08,-636.42 1894.71,-644.03 1901.06,-646.97"/>
</g>
<!-- split -->
<g id="node27" class="node">
<title>split</title>
<polygon fill="#94ddf4" stroke="black" points="1700,-831.32 1700,-867.32 1754,-867.32 1754,-831.32 1700,-831.32"/>
<text text-anchor="middle" x="1727" y="-845.62" font-family="Times,serif" font-size="14.00">split</text>
</g>
<!-- split&#45;&gt;samtools_stats_step -->
<g id="edge28" class="edge">
<title>split&#45;&gt;samtools_stats_step</title>
<path fill="none" stroke="black" d="M1739.48,-831.12C1746.32,-821.79 1755.02,-810.09 1763,-799.82 1806.87,-743.41 1860.27,-678.81 1889.1,-644.25"/>
<polygon fill="black" stroke="black" points="1891.82,-646.46 1895.55,-636.54 1886.45,-641.97 1891.82,-646.46"/>
</g>
<!-- split_prefix -->
<g id="node28" class="node">
<title>split_prefix</title>
<polygon fill="#94ddf4" stroke="black" points="1586,-831.32 1586,-867.32 1682,-867.32 1682,-831.32 1586,-831.32"/>
<text text-anchor="middle" x="1634" y="-845.62" font-family="Times,serif" font-size="14.00">split_prefix</text>
</g>
<!-- split_prefix&#45;&gt;samtools_stats_step -->
<g id="edge29" class="edge">
<title>split_prefix&#45;&gt;samtools_stats_step</title>
<path fill="none" stroke="black" d="M1653.98,-831.19C1664.89,-821.87 1678.65,-810.17 1691,-799.82 1758.82,-743.03 1839.22,-677.12 1881.21,-642.81"/>
<polygon fill="black" stroke="black" points="1883.54,-645.42 1889.07,-636.39 1879.12,-640 1883.54,-645.42"/>
</g>
<!-- threads -->
<g id="node29" class="node">
<title>threads</title>
<polygon fill="#94ddf4" stroke="black" points="1496.5,-831.32 1496.5,-867.32 1567.5,-867.32 1567.5,-831.32 1496.5,-831.32"/>
<text text-anchor="middle" x="1532" y="-845.62" font-family="Times,serif" font-size="14.00">threads</text>
</g>
<!-- threads&#45;&gt;samtools_stats_step -->
<g id="edge30" class="edge">
<title>threads&#45;&gt;samtools_stats_step</title>
<path fill="none" stroke="black" d="M1545.4,-831.29C1553.78,-821.34 1565.2,-808.97 1577,-799.82 1668.43,-728.89 1791.51,-670.19 1859.53,-640.42"/>
<polygon fill="black" stroke="black" points="1860.97,-643.6 1868.75,-636.41 1858.18,-637.18 1860.97,-643.6"/>
</g>
<!-- trim_quality -->
<g id="node30" class="node">
<title>trim_quality</title>
<polygon fill="#94ddf4" stroke="black" points="1374,-831.32 1374,-867.32 1478,-867.32 1478,-831.32 1374,-831.32"/>
<text text-anchor="middle" x="1426" y="-845.62" font-family="Times,serif" font-size="14.00">trim_quality</text>
</g>
<!-- trim_quality&#45;&gt;samtools_stats_step -->
<g id="edge31" class="edge">
<title>trim_quality&#45;&gt;samtools_stats_step</title>
<path fill="none" stroke="black" d="M1445.16,-831.21C1456.96,-821.23 1472.71,-808.86 1488,-799.82 1609.4,-728.04 1764.65,-669.23 1848.91,-639.77"/>
<polygon fill="black" stroke="black" points="1850.29,-643 1858.58,-636.41 1847.99,-636.39 1850.29,-643"/>
</g>
</g>
</svg>
