<?xml version="1.0" encoding="UTF-8" standalone="no"?>
<!DOCTYPE svg PUBLIC "-//W3C//DTD SVG 1.1//EN"
 "http://www.w3.org/Graphics/SVG/1.1/DTD/svg11.dtd">
<!-- Generated by graphviz version 2.43.0 (0)
 -->
<!-- Title: G Pages: 1 -->
<svg width="250pt" height="250pt"
 viewBox="0.00 0.00 250.00 250.00" xmlns="http://www.w3.org/2000/svg" xmlns:xlink="http://www.w3.org/1999/xlink">
<g id="graph0" class="graph" transform="scale(1 1) rotate(0) translate(4 246)">
<title>G</title>
<polygon fill="#eeeeee" stroke="transparent" points="-4,4 -4,-246 246,-246 246,4 -4,4"/>
<g id="clust1" class="cluster">
<title>cluster_inputs</title>
<polygon fill="#eeeeee" stroke="black" stroke-dasharray="5,2" points="33.19,-157 33.19,-234 175.61,-234 175.61,-157 33.19,-157"/>
<text text-anchor="middle" x="109.11" y="-164.8" font-family="Times,serif" font-size="14.00">Workflow Inputs</text>
</g>
<g id="clust2" class="cluster">
<title>cluster_outputs</title>
<polygon fill="#eeeeee" stroke="black" stroke-dasharray="5,2" points="8.57,-8 8.57,-85 164.9,-85 164.9,-8 8.57,-8"/>
<text text-anchor="middle" x="92.4" y="-15.8" font-family="Times,serif" font-size="14.00">Workflow Outputs</text>
</g>
<!-- vcf_file -->
<g id="node1" class="node">
<title>vcf_file</title>
<polygon fill="#94ddf4" stroke="black" points="54.11,-188.5 54.11,-225.5 120.11,-225.5 120.11,-188.5 54.11,-188.5"/>
<text text-anchor="middle" x="87.11" y="-203.3" font-family="Times,serif" font-size="14.00">vcf_file</text>
</g>
<!-- run_tabix_step -->
<g id="node3" class="node">
<title>run_tabix_step</title>
<ellipse fill="none" stroke="black" cx="87.11" cy="-131" rx="79.5" ry="18"/>
<text text-anchor="middle" x="87.11" y="-127.3" font-family="Times,serif" font-size="14.00">run_tabix_step</text>
</g>
<!-- vcf_file&#45;&gt;run_tabix_step -->
<g id="edge1" class="edge">
<title>vcf_file&#45;&gt;run_tabix_step</title>
<path fill="none" stroke="black" d="M87.11,-188.46C87.11,-179.74 87.11,-168.99 87.11,-159.23"/>
<polygon fill="black" stroke="black" points="90.61,-159.16 87.11,-149.16 83.61,-159.16 90.61,-159.16"/>
</g>
<!-- vcf_file_indexed -->
<g id="node2" class="node">
<title>vcf_file_indexed</title>
<polygon fill="#94ddf4" stroke="black" points="22.61,-39.5 22.61,-76.5 151.61,-76.5 151.61,-39.5 22.61,-39.5"/>
<text text-anchor="middle" x="87.11" y="-54.3" font-family="Times,serif" font-size="14.00">vcf_file_indexed</text>
</g>
<!-- run_tabix_step&#45;&gt;vcf_file_indexed -->
<g id="edge2" class="edge">
<title>run_tabix_step&#45;&gt;vcf_file_indexed</title>
<path fill="none" stroke="black" d="M87.11,-112.81C87.11,-104.99 87.11,-95.54 87.11,-86.76"/>
<polygon fill="black" stroke="black" points="90.61,-86.52 87.11,-76.52 83.61,-86.52 90.61,-86.52"/>
</g>
<!-- \n -->
<g id="node4" class="node">
<title>\n</title>
<ellipse fill="none" stroke="black" cx="213.11" cy="-207" rx="27" ry="18"/>
</g>
</g>
</svg>
