<?xml version="1.0" encoding="UTF-8" standalone="no"?>
<!DOCTYPE svg PUBLIC "-//W3C//DTD SVG 1.1//EN"
 "http://www.w3.org/Graphics/SVG/1.1/DTD/svg11.dtd">
<!-- Generated by graphviz version 2.40.1 (20161225.0304)
 -->
<!-- Title: G Pages: 1 -->
<svg width="1009pt" height="567pt"
 viewBox="0.00 0.00 1009.00 566.56" xmlns="http://www.w3.org/2000/svg" xmlns:xlink="http://www.w3.org/1999/xlink">
<g id="graph0" class="graph" transform="scale(1 1) rotate(0) translate(4 562.558)">
<title>G</title>
<polygon fill="#eeeeee" stroke="transparent" points="-4,4 -4,-562.558 1005,-562.558 1005,4 -4,4"/>
<g id="clust1" class="cluster">
<title>cluster_inputs</title>
<polygon fill="#eeeeee" stroke="#000000" stroke-dasharray="5,2" points="8,-409.2579 8,-544.5062 881,-544.5062 881,-409.2579 8,-409.2579"/>
<text text-anchor="middle" x="813" y="-417.0579" font-family="Times,serif" font-size="14.00" fill="#000000">Workflow Inputs</text>
</g>
<g id="clust2" class="cluster">
<title>cluster_outputs</title>
<polygon fill="#eeeeee" stroke="#000000" stroke-dasharray="5,2" points="105,-14.0518 105,-149.3001 993,-149.3001 993,-14.0518 105,-14.0518"/>
<text text-anchor="middle" x="919" y="-21.8518" font-family="Times,serif" font-size="14.00" fill="#000000">Workflow Outputs</text>
</g>
<!-- file:///tmp/tmpohmrh9u2#sites_somalier -->
<g id="node1" class="node">
<title>file:///tmp/tmpohmrh9u2#sites_somalier</title>
<g id="a_node1"><a xlink:title="gzipped vcf file. Required for somalier sites&#10;">
<polygon fill="#94ddf4" stroke="#000000" points="162.5,-478.5518 162.5,-515.5518 281.5,-515.5518 281.5,-478.5518 162.5,-478.5518"/>
<text text-anchor="middle" x="222" y="-493.3518" font-family="Times,serif" font-size="14.00" fill="#000000">sites_somalier</text>
</a>
</g>
</g>
<!-- file:///tmp/tmpohmrh9u2#run_somalier_step -->
<g id="node12" class="node">
<title>file:///tmp/tmpohmrh9u2#run_somalier_step</title>
<g id="a_node12"><a xlink:href="https://github.com/umccr/cwl-ica/blob/beta-release/.github/catalogue/docs/tools/somalier-extract/0.2.13/somalier-extract__0.2.13.md" xlink:title="Runs the somalier extract function to call the fingerprint on the germline bam file&#10;">
<polygon fill="#fafad2" stroke="#000000" points="174.5,-213.5518 174.5,-250.5518 377.5,-250.5518 377.5,-213.5518 174.5,-213.5518"/>
<text text-anchor="middle" x="276" y="-228.3518" font-family="Times,serif" font-size="14.00" fill="#000000">somalier&#45;extract v(0.2.13)</text>
</a>
</g>
</g>
<!-- file:///tmp/tmpohmrh9u2#sites_somalier&#45;&gt;file:///tmp/tmpohmrh9u2#run_somalier_step -->
<g id="edge6" class="edge">
<title>file:///tmp/tmpohmrh9u2#sites_somalier&#45;&gt;file:///tmp/tmpohmrh9u2#run_somalier_step</title>
<path fill="none" stroke="#000000" d="M225.7972,-478.4175C235.0924,-432.8022 259.0389,-315.2869 270.1616,-260.7032"/>
<polygon fill="#000000" stroke="#000000" points="273.6398,-261.163 272.207,-250.6655 266.7807,-259.7652 273.6398,-261.163"/>
</g>
<!-- file:///tmp/tmpohmrh9u2#output_directory -->
<g id="node2" class="node">
<title>file:///tmp/tmpohmrh9u2#output_directory</title>
<g id="a_node2"><a xlink:title="The directory where all output files are placed&#10;">
<polygon fill="#94ddf4" stroke="#000000" points="299.5,-478.5518 299.5,-515.5518 436.5,-515.5518 436.5,-478.5518 299.5,-478.5518"/>
<text text-anchor="middle" x="368" y="-493.3518" font-family="Times,serif" font-size="14.00" fill="#000000">output_directory</text>
</a>
</g>
</g>
<!-- file:///tmp/tmpohmrh9u2#run_dragen_step -->
<g id="node11" class="node">
<title>file:///tmp/tmpohmrh9u2#run_dragen_step</title>
<g id="a_node11"><a xlink:href="https://github.com/umccr/cwl-ica/blob/beta-release/.github/catalogue/docs/workflows/dragen-alignment-pipeline/3.7.5/dragen-alignment-pipeline__3.7.5.md" xlink:title="Runs the alignment step on a dragen fpga&#10;Takes in a fastq list and corresponding mount paths from the predefined mount paths&#10;All other options available at the top of the workflow&#10;">
<polygon fill="#ee7ae9" stroke="#000000" points="439,-343.5518 439,-380.5518 703,-380.5518 703,-343.5518 439,-343.5518"/>
<text text-anchor="middle" x="571" y="-358.3518" font-family="Times,serif" font-size="14.00" fill="#000000">dragen&#45;alignment&#45;pipeline v(3.7.5)</text>
</a>
</g>
</g>
<!-- file:///tmp/tmpohmrh9u2#output_directory&#45;&gt;file:///tmp/tmpohmrh9u2#run_dragen_step -->
<g id="edge7" class="edge">
<title>file:///tmp/tmpohmrh9u2#output_directory&#45;&gt;file:///tmp/tmpohmrh9u2#run_dragen_step</title>
<path fill="none" stroke="#000000" d="M396.2263,-478.2806C432.283,-454.302 494.7554,-412.7563 534.4253,-386.3749"/>
<polygon fill="#000000" stroke="#000000" points="536.6248,-389.1155 543.0134,-380.6635 532.7485,-383.2867 536.6248,-389.1155"/>
</g>
<!-- file:///tmp/tmpohmrh9u2#output_directory&#45;&gt;file:///tmp/tmpohmrh9u2#run_somalier_step -->
<g id="edge8" class="edge">
<title>file:///tmp/tmpohmrh9u2#output_directory&#45;&gt;file:///tmp/tmpohmrh9u2#run_somalier_step</title>
<path fill="none" stroke="#000000" d="M361.5307,-478.4175C345.6615,-432.7072 304.7266,-314.7969 285.8288,-260.3628"/>
<polygon fill="#000000" stroke="#000000" points="289.0483,-258.9645 282.4621,-250.6655 282.4354,-261.2603 289.0483,-258.9645"/>
</g>
<!-- file:///tmp/tmpohmrh9u2#output_file_prefix -->
<g id="node3" class="node">
<title>file:///tmp/tmpohmrh9u2#output_file_prefix</title>
<g id="a_node3"><a xlink:title="The prefix given to all output files&#10;">
<polygon fill="#94ddf4" stroke="#000000" points="454.5,-478.5518 454.5,-515.5518 597.5,-515.5518 597.5,-478.5518 454.5,-478.5518"/>
<text text-anchor="middle" x="526" y="-493.3518" font-family="Times,serif" font-size="14.00" fill="#000000">output_file_prefix</text>
</a>
</g>
</g>
<!-- file:///tmp/tmpohmrh9u2#output_file_prefix&#45;&gt;file:///tmp/tmpohmrh9u2#run_dragen_step -->
<g id="edge9" class="edge">
<title>file:///tmp/tmpohmrh9u2#output_file_prefix&#45;&gt;file:///tmp/tmpohmrh9u2#run_dragen_step</title>
<path fill="none" stroke="#000000" d="M532.2571,-478.2806C539.8469,-455.511 552.7169,-416.9011 561.525,-390.4768"/>
<polygon fill="#000000" stroke="#000000" points="564.9541,-391.2572 564.7961,-380.6635 558.3133,-389.0435 564.9541,-391.2572"/>
</g>
<!-- file:///tmp/tmpohmrh9u2#output_file_prefix&#45;&gt;file:///tmp/tmpohmrh9u2#run_somalier_step -->
<g id="edge10" class="edge">
<title>file:///tmp/tmpohmrh9u2#output_file_prefix&#45;&gt;file:///tmp/tmpohmrh9u2#run_somalier_step</title>
<path fill="none" stroke="#000000" d="M508.4205,-478.4175C464.67,-432.042 350.8094,-311.3498 300.505,-258.0271"/>
<polygon fill="#000000" stroke="#000000" points="302.9682,-255.5376 293.5601,-250.6655 297.8764,-260.3412 302.9682,-255.5376"/>
</g>
<!-- file:///tmp/tmpohmrh9u2#reference_fasta -->
<g id="node4" class="node">
<title>file:///tmp/tmpohmrh9u2#reference_fasta</title>
<g id="a_node4"><a xlink:title="FastA file with genome sequence&#10;">
<polygon fill="#94ddf4" stroke="#000000" points="16,-478.5518 16,-515.5518 144,-515.5518 144,-478.5518 16,-478.5518"/>
<text text-anchor="middle" x="80" y="-493.3518" font-family="Times,serif" font-size="14.00" fill="#000000">reference_fasta</text>
</a>
</g>
</g>
<!-- file:///tmp/tmpohmrh9u2#reference_fasta&#45;&gt;file:///tmp/tmpohmrh9u2#run_somalier_step -->
<g id="edge11" class="edge">
<title>file:///tmp/tmpohmrh9u2#reference_fasta&#45;&gt;file:///tmp/tmpohmrh9u2#run_somalier_step</title>
<path fill="none" stroke="#000000" d="M93.7823,-478.4175C127.8718,-432.3271 216.254,-312.8309 256.0551,-259.0181"/>
<polygon fill="#000000" stroke="#000000" points="259.1003,-260.7866 262.2329,-250.6655 253.4724,-256.6241 259.1003,-260.7866"/>
</g>
<!-- file:///tmp/tmpohmrh9u2#reference_tar -->
<g id="node5" class="node">
<title>file:///tmp/tmpohmrh9u2#reference_tar</title>
<g id="a_node5"><a xlink:title="Path to ref data tarball&#10;">
<polygon fill="#94ddf4" stroke="#000000" points="759,-478.5518 759,-515.5518 873,-515.5518 873,-478.5518 759,-478.5518"/>
<text text-anchor="middle" x="816" y="-493.3518" font-family="Times,serif" font-size="14.00" fill="#000000">reference_tar</text>
</a>
</g>
</g>
<!-- file:///tmp/tmpohmrh9u2#reference_tar&#45;&gt;file:///tmp/tmpohmrh9u2#run_dragen_step -->
<g id="edge12" class="edge">
<title>file:///tmp/tmpohmrh9u2#reference_tar&#45;&gt;file:///tmp/tmpohmrh9u2#run_dragen_step</title>
<path fill="none" stroke="#000000" d="M793.9048,-478.501C781.4536,-468.5196 765.358,-456.38 750,-447.0518 710.0528,-422.7884 662.0915,-400.3385 625.8731,-384.6109"/>
<polygon fill="#000000" stroke="#000000" points="627.028,-381.2976 616.4589,-380.5591 624.2606,-387.7274 627.028,-381.2976"/>
</g>
<!-- file:///tmp/tmpohmrh9u2#fastq_list_rows -->
<g id="node6" class="node">
<title>file:///tmp/tmpohmrh9u2#fastq_list_rows</title>
<g id="a_node6"><a xlink:title="The row of fastq lists.&#10;Each row has the following attributes:&#10; &#160;* RGID&#10; &#160;* RGLB&#10; &#160;* RGSM&#10; &#160;* Lane&#10; &#160;* Read1File&#10; &#160;* Read2File (optional)&#10;">
<polygon fill="#94ddf4" stroke="#000000" points="615.5,-478.5518 615.5,-515.5518 740.5,-515.5518 740.5,-478.5518 615.5,-478.5518"/>
<text text-anchor="middle" x="678" y="-493.3518" font-family="Times,serif" font-size="14.00" fill="#000000">fastq_list_rows</text>
</a>
</g>
</g>
<!-- file:///tmp/tmpohmrh9u2#fastq_list_rows&#45;&gt;file:///tmp/tmpohmrh9u2#run_dragen_step -->
<g id="edge13" class="edge">
<title>file:///tmp/tmpohmrh9u2#fastq_list_rows&#45;&gt;file:///tmp/tmpohmrh9u2#run_dragen_step</title>
<path fill="none" stroke="#000000" d="M663.1221,-478.2806C644.6758,-455.0072 613.113,-415.185 592.1538,-388.7411"/>
<polygon fill="#000000" stroke="#000000" points="594.706,-386.3264 585.7515,-380.6635 589.2201,-390.6745 594.706,-386.3264"/>
</g>
<!-- file:///tmp/tmpohmrh9u2#dragen_alignment_output_directory -->
<g id="node7" class="node">
<title>file:///tmp/tmpohmrh9u2#dragen_alignment_output_directory</title>
<g id="a_node7"><a xlink:title="The output directory containing all alignment output files and qc metrics&#10;">
<polygon fill="#94ddf4" stroke="#000000" points="337.5,-83.5518 337.5,-120.5518 612.5,-120.5518 612.5,-83.5518 337.5,-83.5518"/>
<text text-anchor="middle" x="475" y="-98.3518" font-family="Times,serif" font-size="14.00" fill="#000000">dragen_alignment_output_directory</text>
</a>
</g>
</g>
<!-- file:///tmp/tmpohmrh9u2#dragen_bam_out -->
<g id="node8" class="node">
<title>file:///tmp/tmpohmrh9u2#dragen_bam_out</title>
<g id="a_node8"><a xlink:title="The output alignment file&#10;">
<polygon fill="#94ddf4" stroke="#000000" points="631,-83.5518 631,-120.5518 767,-120.5518 767,-83.5518 631,-83.5518"/>
<text text-anchor="middle" x="699" y="-98.3518" font-family="Times,serif" font-size="14.00" fill="#000000">dragen_bam_out</text>
</a>
</g>
</g>
<!-- file:///tmp/tmpohmrh9u2#multiqc_output_directory -->
<g id="node9" class="node">
<title>file:///tmp/tmpohmrh9u2#multiqc_output_directory</title>
<g id="a_node9"><a xlink:title="The dragen multiQC output&#10;">
<polygon fill="#94ddf4" stroke="#000000" points="785,-83.5518 785,-120.5518 985,-120.5518 985,-83.5518 785,-83.5518"/>
<text text-anchor="middle" x="885" y="-98.3518" font-family="Times,serif" font-size="14.00" fill="#000000">multiqc_output_directory</text>
</a>
</g>
</g>
<!-- file:///tmp/tmpohmrh9u2#somalier_output_directory -->
<g id="node10" class="node">
<title>file:///tmp/tmpohmrh9u2#somalier_output_directory</title>
<g id="a_node10"><a xlink:title="Output directory from somalier step&#10;">
<polygon fill="#94ddf4" stroke="#000000" points="113,-83.5518 113,-120.5518 319,-120.5518 319,-83.5518 113,-83.5518"/>
<text text-anchor="middle" x="216" y="-98.3518" font-family="Times,serif" font-size="14.00" fill="#000000">somalier_output_directory</text>
</a>
</g>
</g>
<!-- file:///tmp/tmpohmrh9u2#run_dragen_step&#45;&gt;file:///tmp/tmpohmrh9u2#dragen_alignment_output_directory -->
<g id="edge2" class="edge">
<title>file:///tmp/tmpohmrh9u2#run_dragen_step&#45;&gt;file:///tmp/tmpohmrh9u2#dragen_alignment_output_directory</title>
<path fill="none" stroke="#000000" d="M564.0959,-343.3532C547.4556,-298.2858 505.0574,-183.4571 485.3551,-130.0969"/>
<polygon fill="#000000" stroke="#000000" points="488.5887,-128.7495 481.8415,-120.5809 482.022,-131.1742 488.5887,-128.7495"/>
</g>
<!-- file:///tmp/tmpohmrh9u2#run_dragen_step&#45;&gt;file:///tmp/tmpohmrh9u2#dragen_bam_out -->
<g id="edge3" class="edge">
<title>file:///tmp/tmpohmrh9u2#run_dragen_step&#45;&gt;file:///tmp/tmpohmrh9u2#dragen_bam_out</title>
<path fill="none" stroke="#000000" d="M580.2054,-343.3532C602.4386,-298.1921 659.1587,-182.9794 685.3566,-129.7649"/>
<polygon fill="#000000" stroke="#000000" points="688.6012,-131.0985 689.878,-120.5809 682.321,-128.0067 688.6012,-131.0985"/>
</g>
<!-- file:///tmp/tmpohmrh9u2#run_dragen_step&#45;&gt;file:///tmp/tmpohmrh9u2#multiqc_output_directory -->
<g id="edge4" class="edge">
<title>file:///tmp/tmpohmrh9u2#run_dragen_step&#45;&gt;file:///tmp/tmpohmrh9u2#multiqc_output_directory</title>
<path fill="none" stroke="#000000" d="M593.5821,-343.3532C649.0281,-297.4425 791.9065,-179.1356 854.6685,-127.167"/>
<polygon fill="#000000" stroke="#000000" points="857.1524,-129.6544 862.6225,-120.5809 852.688,-124.2628 857.1524,-129.6544"/>
</g>
<!-- file:///tmp/tmpohmrh9u2#run_dragen_step&#45;&gt;file:///tmp/tmpohmrh9u2#run_somalier_step -->
<g id="edge1" class="edge">
<title>file:///tmp/tmpohmrh9u2#run_dragen_step&#45;&gt;file:///tmp/tmpohmrh9u2#run_somalier_step</title>
<path fill="none" stroke="#000000" d="M528.7337,-343.4259C475.6115,-320.0162 384.491,-279.8614 327.3948,-254.7003"/>
<polygon fill="#000000" stroke="#000000" points="328.7502,-251.4729 318.1879,-250.6431 325.9273,-257.8785 328.7502,-251.4729"/>
</g>
<!-- file:///tmp/tmpohmrh9u2#run_somalier_step&#45;&gt;file:///tmp/tmpohmrh9u2#somalier_output_directory -->
<g id="edge5" class="edge">
<title>file:///tmp/tmpohmrh9u2#run_somalier_step&#45;&gt;file:///tmp/tmpohmrh9u2#somalier_output_directory</title>
<path fill="none" stroke="#000000" d="M267.4035,-213.4259C257.3341,-191.609 240.5522,-155.2482 228.9151,-130.0345"/>
<polygon fill="#000000" stroke="#000000" points="231.9491,-128.2559 224.5806,-120.6431 225.5934,-131.1894 231.9491,-128.2559"/>
</g>
</g>
</svg>
