<?xml version="1.0" encoding="UTF-8" standalone="no"?>
<!DOCTYPE svg PUBLIC "-//W3C//DTD SVG 1.1//EN"
 "http://www.w3.org/Graphics/SVG/1.1/DTD/svg11.dtd">
<!-- Generated by graphviz version 2.40.1 (20161225.0304)
 -->
<!-- Title: G Pages: 1 -->
<svg width="1010pt" height="567pt"
 viewBox="0.00 0.00 1010.00 567.12" xmlns="http://www.w3.org/2000/svg" xmlns:xlink="http://www.w3.org/1999/xlink">
<g id="graph0" class="graph" transform="scale(1 1) rotate(0) translate(4 563.116)">
<title>G</title>
<polygon fill="#eeeeee" stroke="transparent" points="-4,4 -4,-563.116 1006,-563.116 1006,4 -4,4"/>
<g id="clust1" class="cluster">
<title>cluster_inputs</title>
<polygon fill="#eeeeee" stroke="#000000" stroke-dasharray="5,2" points="8,-409.6668 8,-545.0502 882,-545.0502 882,-409.6668 8,-409.6668"/>
<text text-anchor="middle" x="814" y="-417.4668" font-family="Times,serif" font-size="14.00" fill="#000000">Workflow Inputs</text>
</g>
<g id="clust2" class="cluster">
<title>cluster_outputs</title>
<polygon fill="#eeeeee" stroke="#000000" stroke-dasharray="5,2" points="106,-14.0658 106,-149.4492 994,-149.4492 994,-14.0658 106,-14.0658"/>
<text text-anchor="middle" x="920" y="-21.8658" font-family="Times,serif" font-size="14.00" fill="#000000">Workflow Outputs</text>
</g>
<!-- file:///tmp/tmpwtxzmpu7#reference_fasta -->
<g id="node1" class="node">
<title>file:///tmp/tmpwtxzmpu7#reference_fasta</title>
<g id="a_node1"><a xlink:title="FastA file with genome sequence&#10;">
<polygon fill="#94ddf4" stroke="#000000" points="16,-479.5658 16,-516.5658 144,-516.5658 144,-479.5658 16,-479.5658"/>
<text text-anchor="middle" x="80" y="-494.3658" font-family="Times,serif" font-size="14.00" fill="#000000">reference_fasta</text>
</a>
</g>
</g>
<!-- file:///tmp/tmpwtxzmpu7#run_somalier_step -->
<g id="node12" class="node">
<title>file:///tmp/tmpwtxzmpu7#run_somalier_step</title>
<g id="a_node12"><a xlink:href="https://github.com/umccr/cwl-ica/blob/beta-release/.github/catalogue/docs/tools/somalier-extract/0.2.13/somalier-extract__0.2.13.md" xlink:title="Runs the somalier extract function to call the fingerprint on the germline bam file&#10;">
<polygon fill="#fafad2" stroke="#000000" points="187.5,-213.5658 187.5,-250.5658 390.5,-250.5658 390.5,-213.5658 187.5,-213.5658"/>
<text text-anchor="middle" x="289" y="-228.3658" font-family="Times,serif" font-size="14.00" fill="#000000">somalier&#45;extract v(0.2.13)</text>
</a>
</g>
</g>
<!-- file:///tmp/tmpwtxzmpu7#reference_fasta&#45;&gt;file:///tmp/tmpwtxzmpu7#run_somalier_step -->
<g id="edge6" class="edge">
<title>file:///tmp/tmpwtxzmpu7#reference_fasta&#45;&gt;file:///tmp/tmpwtxzmpu7#run_somalier_step</title>
<path fill="none" stroke="#000000" d="M94.6965,-479.3612C131.122,-433.0015 225.6801,-312.6548 267.9941,-258.8006"/>
<polygon fill="#000000" stroke="#000000" points="270.8936,-260.7753 274.3198,-250.7497 265.3894,-256.4506 270.8936,-260.7753"/>
</g>
<!-- file:///tmp/tmpwtxzmpu7#fastq_list_rows -->
<g id="node2" class="node">
<title>file:///tmp/tmpwtxzmpu7#fastq_list_rows</title>
<g id="a_node2"><a xlink:title="The row of fastq lists.&#10;Each row has the following attributes:&#10; &#160;* RGID&#10; &#160;* RGLB&#10; &#160;* RGSM&#10; &#160;* Lane&#10; &#160;* Read1File&#10; &#160;* Read2File (optional)&#10;">
<polygon fill="#94ddf4" stroke="#000000" points="748.5,-479.5658 748.5,-516.5658 873.5,-516.5658 873.5,-479.5658 748.5,-479.5658"/>
<text text-anchor="middle" x="811" y="-494.3658" font-family="Times,serif" font-size="14.00" fill="#000000">fastq_list_rows</text>
</a>
</g>
</g>
<!-- file:///tmp/tmpwtxzmpu7#run_dragen_step -->
<g id="node11" class="node">
<title>file:///tmp/tmpwtxzmpu7#run_dragen_step</title>
<g id="a_node11"><a xlink:href="https://github.com/umccr/cwl-ica/blob/beta-release/.github/catalogue/docs/workflows/dragen-alignment-pipeline/3.7.5/dragen-alignment-pipeline__3.7.5.md" xlink:title="Runs the alignment step on a dragen fpga&#10;Takes in a fastq list and corresponding mount paths from the predefined mount paths&#10;All other options available at the top of the workflow&#10;">
<polygon fill="#ee7ae9" stroke="#000000" points="443,-343.5658 443,-380.5658 707,-380.5658 707,-343.5658 443,-343.5658"/>
<text text-anchor="middle" x="575" y="-358.3658" font-family="Times,serif" font-size="14.00" fill="#000000">dragen&#45;alignment&#45;pipeline v(3.7.5)</text>
</a>
</g>
</g>
<!-- file:///tmp/tmpwtxzmpu7#fastq_list_rows&#45;&gt;file:///tmp/tmpwtxzmpu7#run_dragen_step -->
<g id="edge7" class="edge">
<title>file:///tmp/tmpwtxzmpu7#fastq_list_rows&#45;&gt;file:///tmp/tmpwtxzmpu7#run_dragen_step</title>
<path fill="none" stroke="#000000" d="M785.8533,-479.4592C772.2536,-469.6912 755.0071,-457.7696 739,-448.0658 700.8029,-424.9101 655.7607,-401.5574 622.5542,-385.0421"/>
<polygon fill="#000000" stroke="#000000" points="624.0328,-381.8687 613.5177,-380.5711 620.9285,-388.1428 624.0328,-381.8687"/>
</g>
<!-- file:///tmp/tmpwtxzmpu7#output_file_prefix -->
<g id="node3" class="node">
<title>file:///tmp/tmpwtxzmpu7#output_file_prefix</title>
<g id="a_node3"><a xlink:title="The prefix given to all output files&#10;">
<polygon fill="#94ddf4" stroke="#000000" points="299.5,-479.5658 299.5,-516.5658 442.5,-516.5658 442.5,-479.5658 299.5,-479.5658"/>
<text text-anchor="middle" x="371" y="-494.3658" font-family="Times,serif" font-size="14.00" fill="#000000">output_file_prefix</text>
</a>
</g>
</g>
<!-- file:///tmp/tmpwtxzmpu7#output_file_prefix&#45;&gt;file:///tmp/tmpwtxzmpu7#run_dragen_step -->
<g id="edge8" class="edge">
<title>file:///tmp/tmpwtxzmpu7#output_file_prefix&#45;&gt;file:///tmp/tmpwtxzmpu7#run_dragen_step</title>
<path fill="none" stroke="#000000" d="M398.9376,-479.4408C435.2311,-455.2451 498.6671,-412.9544 538.6668,-386.288"/>
<polygon fill="#000000" stroke="#000000" points="540.6942,-389.1429 547.0732,-380.6837 536.8113,-383.3185 540.6942,-389.1429"/>
</g>
<!-- file:///tmp/tmpwtxzmpu7#output_file_prefix&#45;&gt;file:///tmp/tmpwtxzmpu7#run_somalier_step -->
<g id="edge9" class="edge">
<title>file:///tmp/tmpwtxzmpu7#output_file_prefix&#45;&gt;file:///tmp/tmpwtxzmpu7#run_somalier_step</title>
<path fill="none" stroke="#000000" d="M365.2339,-479.3612C351.0896,-433.4784 314.6042,-315.1232 297.7604,-260.4837"/>
<polygon fill="#000000" stroke="#000000" points="301.0504,-259.2749 294.7597,-250.7497 294.361,-261.3371 301.0504,-259.2749"/>
</g>
<!-- file:///tmp/tmpwtxzmpu7#output_directory -->
<g id="node4" class="node">
<title>file:///tmp/tmpwtxzmpu7#output_directory</title>
<g id="a_node4"><a xlink:title="The directory where all output files are placed&#10;">
<polygon fill="#94ddf4" stroke="#000000" points="460.5,-479.5658 460.5,-516.5658 597.5,-516.5658 597.5,-479.5658 460.5,-479.5658"/>
<text text-anchor="middle" x="529" y="-494.3658" font-family="Times,serif" font-size="14.00" fill="#000000">output_directory</text>
</a>
</g>
</g>
<!-- file:///tmp/tmpwtxzmpu7#output_directory&#45;&gt;file:///tmp/tmpwtxzmpu7#run_dragen_step -->
<g id="edge10" class="edge">
<title>file:///tmp/tmpwtxzmpu7#output_directory&#45;&gt;file:///tmp/tmpwtxzmpu7#run_dragen_step</title>
<path fill="none" stroke="#000000" d="M535.2997,-479.4408C543.0671,-456.4763 556.3478,-417.2114 565.3908,-390.4756"/>
<polygon fill="#000000" stroke="#000000" points="568.7402,-391.4966 568.6288,-380.9024 562.1092,-389.2537 568.7402,-391.4966"/>
</g>
<!-- file:///tmp/tmpwtxzmpu7#output_directory&#45;&gt;file:///tmp/tmpwtxzmpu7#run_somalier_step -->
<g id="edge11" class="edge">
<title>file:///tmp/tmpwtxzmpu7#output_directory&#45;&gt;file:///tmp/tmpwtxzmpu7#run_somalier_step</title>
<path fill="none" stroke="#000000" d="M512.1237,-479.3612C470.2093,-432.9061 361.2647,-312.1592 312.8224,-258.469"/>
<polygon fill="#000000" stroke="#000000" points="315.1552,-255.8298 305.8577,-250.7497 309.958,-260.519 315.1552,-255.8298"/>
</g>
<!-- file:///tmp/tmpwtxzmpu7#reference_tar -->
<g id="node5" class="node">
<title>file:///tmp/tmpwtxzmpu7#reference_tar</title>
<g id="a_node5"><a xlink:title="Path to ref data tarball&#10;">
<polygon fill="#94ddf4" stroke="#000000" points="616,-479.5658 616,-516.5658 730,-516.5658 730,-479.5658 616,-479.5658"/>
<text text-anchor="middle" x="673" y="-494.3658" font-family="Times,serif" font-size="14.00" fill="#000000">reference_tar</text>
</a>
</g>
</g>
<!-- file:///tmp/tmpwtxzmpu7#reference_tar&#45;&gt;file:///tmp/tmpwtxzmpu7#run_dragen_step -->
<g id="edge12" class="edge">
<title>file:///tmp/tmpwtxzmpu7#reference_tar&#45;&gt;file:///tmp/tmpwtxzmpu7#run_dragen_step</title>
<path fill="none" stroke="#000000" d="M659.579,-479.4408C642.7395,-456.0716 613.7365,-415.8226 594.4618,-389.074"/>
<polygon fill="#000000" stroke="#000000" points="597.2592,-386.9693 588.5734,-380.9024 591.58,-391.0616 597.2592,-386.9693"/>
</g>
<!-- file:///tmp/tmpwtxzmpu7#sites_somalier -->
<g id="node6" class="node">
<title>file:///tmp/tmpwtxzmpu7#sites_somalier</title>
<g id="a_node6"><a xlink:title="gzipped vcf file. Required for somalier sites&#10;">
<polygon fill="#94ddf4" stroke="#000000" points="162.5,-479.5658 162.5,-516.5658 281.5,-516.5658 281.5,-479.5658 162.5,-479.5658"/>
<text text-anchor="middle" x="222" y="-494.3658" font-family="Times,serif" font-size="14.00" fill="#000000">sites_somalier</text>
</a>
</g>
</g>
<!-- file:///tmp/tmpwtxzmpu7#sites_somalier&#45;&gt;file:///tmp/tmpwtxzmpu7#run_somalier_step -->
<g id="edge13" class="edge">
<title>file:///tmp/tmpwtxzmpu7#sites_somalier&#45;&gt;file:///tmp/tmpwtxzmpu7#run_somalier_step</title>
<path fill="none" stroke="#000000" d="M226.7113,-479.3612C238.2682,-433.4784 268.0795,-315.1232 281.8421,-260.4837"/>
<polygon fill="#000000" stroke="#000000" points="285.2453,-261.3018 284.2939,-250.7497 278.4573,-259.592 285.2453,-261.3018"/>
</g>
<!-- file:///tmp/tmpwtxzmpu7#dragen_alignment_output_directory -->
<g id="node7" class="node">
<title>file:///tmp/tmpwtxzmpu7#dragen_alignment_output_directory</title>
<g id="a_node7"><a xlink:title="The output directory containing all alignment output files and qc metrics&#10;">
<polygon fill="#94ddf4" stroke="#000000" points="338.5,-83.5658 338.5,-120.5658 613.5,-120.5658 613.5,-83.5658 338.5,-83.5658"/>
<text text-anchor="middle" x="476" y="-98.3658" font-family="Times,serif" font-size="14.00" fill="#000000">dragen_alignment_output_directory</text>
</a>
</g>
</g>
<!-- file:///tmp/tmpwtxzmpu7#somalier_output_directory -->
<g id="node8" class="node">
<title>file:///tmp/tmpwtxzmpu7#somalier_output_directory</title>
<g id="a_node8"><a xlink:title="Output directory from somalier step&#10;">
<polygon fill="#94ddf4" stroke="#000000" points="114,-83.5658 114,-120.5658 320,-120.5658 320,-83.5658 114,-83.5658"/>
<text text-anchor="middle" x="217" y="-98.3658" font-family="Times,serif" font-size="14.00" fill="#000000">somalier_output_directory</text>
</a>
</g>
</g>
<!-- file:///tmp/tmpwtxzmpu7#multiqc_output_directory -->
<g id="node9" class="node">
<title>file:///tmp/tmpwtxzmpu7#multiqc_output_directory</title>
<g id="a_node9"><a xlink:title="The dragen multiQC output&#10;">
<polygon fill="#94ddf4" stroke="#000000" points="632,-83.5658 632,-120.5658 832,-120.5658 832,-83.5658 632,-83.5658"/>
<text text-anchor="middle" x="732" y="-98.3658" font-family="Times,serif" font-size="14.00" fill="#000000">multiqc_output_directory</text>
</a>
</g>
</g>
<!-- file:///tmp/tmpwtxzmpu7#dragen_bam_out -->
<g id="node10" class="node">
<title>file:///tmp/tmpwtxzmpu7#dragen_bam_out</title>
<g id="a_node10"><a xlink:title="The output alignment file&#10;">
<polygon fill="#94ddf4" stroke="#000000" points="850,-83.5658 850,-120.5658 986,-120.5658 986,-83.5658 850,-83.5658"/>
<text text-anchor="middle" x="918" y="-98.3658" font-family="Times,serif" font-size="14.00" fill="#000000">dragen_bam_out</text>
</a>
</g>
</g>
<!-- file:///tmp/tmpwtxzmpu7#run_dragen_step&#45;&gt;file:///tmp/tmpwtxzmpu7#dragen_alignment_output_directory -->
<g id="edge2" class="edge">
<title>file:///tmp/tmpwtxzmpu7#run_dragen_step&#45;&gt;file:///tmp/tmpwtxzmpu7#dragen_alignment_output_directory</title>
<path fill="none" stroke="#000000" d="M567.8802,-343.3673C550.7199,-298.2998 506.9967,-183.4712 486.6787,-130.1109"/>
<polygon fill="#000000" stroke="#000000" points="489.8848,-128.6949 483.0553,-120.5949 483.3429,-131.1859 489.8848,-128.6949"/>
</g>
<!-- file:///tmp/tmpwtxzmpu7#run_dragen_step&#45;&gt;file:///tmp/tmpwtxzmpu7#multiqc_output_directory -->
<g id="edge3" class="edge">
<title>file:///tmp/tmpwtxzmpu7#run_dragen_step&#45;&gt;file:///tmp/tmpwtxzmpu7#multiqc_output_directory</title>
<path fill="none" stroke="#000000" d="M586.2911,-343.3673C613.618,-298.1124 683.421,-182.5151 715.4651,-129.4485"/>
<polygon fill="#000000" stroke="#000000" points="718.6382,-130.9645 720.8113,-120.5949 712.6459,-127.3461 718.6382,-130.9645"/>
</g>
<!-- file:///tmp/tmpwtxzmpu7#run_dragen_step&#45;&gt;file:///tmp/tmpwtxzmpu7#dragen_bam_out -->
<g id="edge4" class="edge">
<title>file:///tmp/tmpwtxzmpu7#run_dragen_step&#45;&gt;file:///tmp/tmpwtxzmpu7#dragen_bam_out</title>
<path fill="none" stroke="#000000" d="M599.6677,-343.3673C660.3581,-297.3629 816.9461,-178.6664 885.2858,-126.8637"/>
<polygon fill="#000000" stroke="#000000" points="887.7009,-129.425 893.5558,-120.5949 883.4723,-123.8466 887.7009,-129.425"/>
</g>
<!-- file:///tmp/tmpwtxzmpu7#run_dragen_step&#45;&gt;file:///tmp/tmpwtxzmpu7#run_somalier_step -->
<g id="edge1" class="edge">
<title>file:///tmp/tmpwtxzmpu7#run_dragen_step&#45;&gt;file:///tmp/tmpwtxzmpu7#run_somalier_step</title>
<path fill="none" stroke="#000000" d="M534.0232,-343.44C482.6279,-320.0785 394.5452,-280.0409 339.1696,-254.8702"/>
<polygon fill="#000000" stroke="#000000" points="340.4528,-251.6089 329.9008,-250.6571 337.5562,-257.9815 340.4528,-251.6089"/>
</g>
<!-- file:///tmp/tmpwtxzmpu7#run_somalier_step&#45;&gt;file:///tmp/tmpwtxzmpu7#somalier_output_directory -->
<g id="edge5" class="edge">
<title>file:///tmp/tmpwtxzmpu7#run_somalier_step&#45;&gt;file:///tmp/tmpwtxzmpu7#somalier_output_directory</title>
<path fill="none" stroke="#000000" d="M278.6842,-213.44C266.5475,-191.5265 246.2843,-154.9402 232.3131,-129.7145"/>
<polygon fill="#000000" stroke="#000000" points="235.2035,-127.7092 227.2967,-120.6571 229.08,-131.1008 235.2035,-127.7092"/>
</g>
</g>
</svg>
