<?xml version="1.0" encoding="UTF-8" standalone="no"?>
<!DOCTYPE svg PUBLIC "-//W3C//DTD SVG 1.1//EN"
 "http://www.w3.org/Graphics/SVG/1.1/DTD/svg11.dtd">
<!-- Generated by graphviz version 2.40.1 (20161225.0304)
 -->
<!-- Title: G Pages: 1 -->
<svg width="1050pt" height="589pt"
 viewBox="0.00 0.00 1050.00 589.44" xmlns="http://www.w3.org/2000/svg" xmlns:xlink="http://www.w3.org/1999/xlink">
<g id="graph0" class="graph" transform="scale(1 1) rotate(0) translate(4 585.436)">
<title>G</title>
<polygon fill="#eeeeee" stroke="transparent" points="-4,4 -4,-585.436 1046,-585.436 1046,4 -4,4"/>
<g id="clust1" class="cluster">
<title>cluster_inputs</title>
<polygon fill="#eeeeee" stroke="#000000" stroke-dasharray="5,2" points="160,-426.0207 160,-566.8087 1034,-566.8087 1034,-426.0207 160,-426.0207"/>
<text text-anchor="middle" x="966" y="-433.8207" font-family="Times,serif" font-size="14.00" fill="#000000">Workflow Inputs</text>
</g>
<g id="clust2" class="cluster">
<title>cluster_outputs</title>
<polygon fill="#eeeeee" stroke="#000000" stroke-dasharray="5,2" points="8,-14.6273 8,-155.4153 896,-155.4153 896,-14.6273 8,-14.6273"/>
<text text-anchor="middle" x="822" y="-22.4273" font-family="Times,serif" font-size="14.00" fill="#000000">Workflow Outputs</text>
</g>
<!-- file:///tmp/tmpf1drghmn#output_directory -->
<g id="node1" class="node">
<title>file:///tmp/tmpf1drghmn#output_directory</title>
<g id="a_node1"><a xlink:title="The directory where all output files are placed&#10;">
<polygon fill="#94ddf4" stroke="#000000" points="444.5,-499.1273 444.5,-536.1273 581.5,-536.1273 581.5,-499.1273 444.5,-499.1273"/>
<text text-anchor="middle" x="513" y="-513.9273" font-family="Times,serif" font-size="14.00" fill="#000000">output_directory</text>
</a>
</g>
</g>
<!-- file:///tmp/tmpf1drghmn#run_dragen_step -->
<g id="node11" class="node">
<title>file:///tmp/tmpf1drghmn#run_dragen_step</title>
<g id="a_node11"><a xlink:href="https://github.com/umccr/cwl-ica/blob/beta-release/.github/catalogue/docs/workflows/dragen-alignment-pipeline/3.7.5/dragen-alignment-pipeline__3.7.5.md" xlink:title="Runs the alignment step on a dragen fpga&#10;Takes in a fastq list and corresponding mount paths from the predefined mount paths&#10;All other options available at the top of the workflow&#10;">
<polygon fill="#ee7ae9" stroke="#000000" points="332,-358.1273 332,-395.1273 596,-395.1273 596,-358.1273 332,-358.1273"/>
<text text-anchor="middle" x="464" y="-372.9273" font-family="Times,serif" font-size="14.00" fill="#000000">dragen&#45;alignment&#45;pipeline v(3.7.5)</text>
</a>
</g>
</g>
<!-- file:///tmp/tmpf1drghmn#output_directory&#45;&gt;file:///tmp/tmpf1drghmn#run_dragen_step -->
<g id="edge6" class="edge">
<title>file:///tmp/tmpf1drghmn#output_directory&#45;&gt;file:///tmp/tmpf1drghmn#run_dragen_step</title>
<path fill="none" stroke="#000000" d="M506.4932,-498.9036C498.1463,-474.8851 483.5896,-432.9974 473.8738,-405.0396"/>
<polygon fill="#000000" stroke="#000000" points="477.1225,-403.7254 470.5337,-395.4285 470.5103,-406.0233 477.1225,-403.7254"/>
</g>
<!-- file:///tmp/tmpf1drghmn#run_somalier_step -->
<g id="node12" class="node">
<title>file:///tmp/tmpf1drghmn#run_somalier_step</title>
<g id="a_node12"><a xlink:href="https://github.com/umccr/cwl-ica/blob/beta-release/.github/catalogue/docs/tools/somalier-extract/0.2.13/somalier-extract__0.2.13.md" xlink:title="Runs the somalier extract function to call the fingerprint on the germline bam file&#10;">
<polygon fill="#fafad2" stroke="#000000" points="616.5,-223.1273 616.5,-260.1273 819.5,-260.1273 819.5,-223.1273 616.5,-223.1273"/>
<text text-anchor="middle" x="718" y="-237.9273" font-family="Times,serif" font-size="14.00" fill="#000000">somalier&#45;extract v(0.2.13)</text>
</a>
</g>
</g>
<!-- file:///tmp/tmpf1drghmn#output_directory&#45;&gt;file:///tmp/tmpf1drghmn#run_somalier_step -->
<g id="edge7" class="edge">
<title>file:///tmp/tmpf1drghmn#output_directory&#45;&gt;file:///tmp/tmpf1drghmn#run_somalier_step</title>
<path fill="none" stroke="#000000" d="M527.1036,-499.0821C545.2237,-475.2193 577.6084,-432.4497 605,-395.6273 638.1078,-351.1206 676.1945,-299.0265 698.6184,-268.2624"/>
<polygon fill="#000000" stroke="#000000" points="701.4508,-270.3184 704.5105,-260.175 695.7931,-266.1964 701.4508,-270.3184"/>
</g>
<!-- file:///tmp/tmpf1drghmn#sites_somalier -->
<g id="node2" class="node">
<title>file:///tmp/tmpf1drghmn#sites_somalier</title>
<g id="a_node2"><a xlink:title="gzipped vcf file. Required for somalier sites&#10;">
<polygon fill="#94ddf4" stroke="#000000" points="760.5,-499.1273 760.5,-536.1273 879.5,-536.1273 879.5,-499.1273 760.5,-499.1273"/>
<text text-anchor="middle" x="820" y="-513.9273" font-family="Times,serif" font-size="14.00" fill="#000000">sites_somalier</text>
</a>
</g>
</g>
<!-- file:///tmp/tmpf1drghmn#sites_somalier&#45;&gt;file:///tmp/tmpf1drghmn#run_somalier_step -->
<g id="edge8" class="edge">
<title>file:///tmp/tmpf1drghmn#sites_somalier&#45;&gt;file:///tmp/tmpf1drghmn#run_somalier_step</title>
<path fill="none" stroke="#000000" d="M813.1491,-499.0896C795.6621,-451.7719 749.2867,-326.2855 728.4253,-269.837"/>
<polygon fill="#000000" stroke="#000000" points="731.7049,-268.6144 724.9554,-260.4478 725.139,-271.041 731.7049,-268.6144"/>
</g>
<!-- file:///tmp/tmpf1drghmn#output_file_prefix -->
<g id="node3" class="node">
<title>file:///tmp/tmpf1drghmn#output_file_prefix</title>
<g id="a_node3"><a xlink:title="The prefix given to all output files&#10;">
<polygon fill="#94ddf4" stroke="#000000" points="599.5,-499.1273 599.5,-536.1273 742.5,-536.1273 742.5,-499.1273 599.5,-499.1273"/>
<text text-anchor="middle" x="671" y="-513.9273" font-family="Times,serif" font-size="14.00" fill="#000000">output_file_prefix</text>
</a>
</g>
</g>
<!-- file:///tmp/tmpf1drghmn#output_file_prefix&#45;&gt;file:///tmp/tmpf1drghmn#run_dragen_step -->
<g id="edge9" class="edge">
<title>file:///tmp/tmpf1drghmn#output_file_prefix&#45;&gt;file:///tmp/tmpf1drghmn#run_dragen_step</title>
<path fill="none" stroke="#000000" d="M643.512,-498.9036C606.4469,-473.6563 540.3956,-428.6649 499.5792,-400.8625"/>
<polygon fill="#000000" stroke="#000000" points="501.5072,-397.9409 491.272,-395.2039 497.5664,-403.7263 501.5072,-397.9409"/>
</g>
<!-- file:///tmp/tmpf1drghmn#output_file_prefix&#45;&gt;file:///tmp/tmpf1drghmn#run_somalier_step -->
<g id="edge10" class="edge">
<title>file:///tmp/tmpf1drghmn#output_file_prefix&#45;&gt;file:///tmp/tmpf1drghmn#run_somalier_step</title>
<path fill="none" stroke="#000000" d="M674.1568,-499.0896C682.1812,-451.9678 703.4068,-327.3234 713.0762,-270.5418"/>
<polygon fill="#000000" stroke="#000000" points="716.5666,-270.8935 714.7951,-260.4478 709.6659,-269.7183 716.5666,-270.8935"/>
</g>
<!-- file:///tmp/tmpf1drghmn#fastq_list_rows -->
<g id="node4" class="node">
<title>file:///tmp/tmpf1drghmn#fastq_list_rows</title>
<g id="a_node4"><a xlink:title="The row of fastq lists.&#10;Each row has the following attributes:&#10; &#160;* RGID&#10; &#160;* RGLB&#10; &#160;* RGSM&#10; &#160;* Lane&#10; &#160;* Read1File&#10; &#160;* Read2File (optional)&#10;">
<polygon fill="#94ddf4" stroke="#000000" points="168.5,-499.1273 168.5,-536.1273 293.5,-536.1273 293.5,-499.1273 168.5,-499.1273"/>
<text text-anchor="middle" x="231" y="-513.9273" font-family="Times,serif" font-size="14.00" fill="#000000">fastq_list_rows</text>
</a>
</g>
</g>
<!-- file:///tmp/tmpf1drghmn#fastq_list_rows&#45;&gt;file:///tmp/tmpf1drghmn#run_dragen_step -->
<g id="edge11" class="edge">
<title>file:///tmp/tmpf1drghmn#fastq_list_rows&#45;&gt;file:///tmp/tmpf1drghmn#run_dragen_step</title>
<path fill="none" stroke="#000000" d="M256.6053,-498.9865C270.1874,-489.3193 287.2765,-477.5009 303,-467.6273 341.7723,-443.2801 387.3031,-417.8227 420.0339,-400.0457"/>
<polygon fill="#000000" stroke="#000000" points="421.7808,-403.0801 428.91,-395.2427 418.4493,-396.9236 421.7808,-403.0801"/>
</g>
<!-- file:///tmp/tmpf1drghmn#reference_fasta -->
<g id="node5" class="node">
<title>file:///tmp/tmpf1drghmn#reference_fasta</title>
<g id="a_node5"><a xlink:title="FastA file with genome sequence&#10;">
<polygon fill="#94ddf4" stroke="#000000" points="898,-499.1273 898,-536.1273 1026,-536.1273 1026,-499.1273 898,-499.1273"/>
<text text-anchor="middle" x="962" y="-513.9273" font-family="Times,serif" font-size="14.00" fill="#000000">reference_fasta</text>
</a>
</g>
</g>
<!-- file:///tmp/tmpf1drghmn#reference_fasta&#45;&gt;file:///tmp/tmpf1drghmn#run_somalier_step -->
<g id="edge12" class="edge">
<title>file:///tmp/tmpf1drghmn#reference_fasta&#45;&gt;file:///tmp/tmpf1drghmn#run_somalier_step</title>
<path fill="none" stroke="#000000" d="M945.6116,-499.0896C903.3469,-451.282 790.5385,-323.6791 741.409,-268.1063"/>
<polygon fill="#000000" stroke="#000000" points="743.884,-265.6216 734.6384,-260.4478 738.6396,-270.258 743.884,-265.6216"/>
</g>
<!-- file:///tmp/tmpf1drghmn#reference_tar -->
<g id="node6" class="node">
<title>file:///tmp/tmpf1drghmn#reference_tar</title>
<g id="a_node6"><a xlink:title="Path to ref data tarball&#10;">
<polygon fill="#94ddf4" stroke="#000000" points="312,-499.1273 312,-536.1273 426,-536.1273 426,-499.1273 312,-499.1273"/>
<text text-anchor="middle" x="369" y="-513.9273" font-family="Times,serif" font-size="14.00" fill="#000000">reference_tar</text>
</a>
</g>
</g>
<!-- file:///tmp/tmpf1drghmn#reference_tar&#45;&gt;file:///tmp/tmpf1drghmn#run_dragen_step -->
<g id="edge13" class="edge">
<title>file:///tmp/tmpf1drghmn#reference_tar&#45;&gt;file:///tmp/tmpf1drghmn#run_dragen_step</title>
<path fill="none" stroke="#000000" d="M381.6153,-498.9036C398.0109,-474.569 426.7649,-431.892 445.5956,-403.9433"/>
<polygon fill="#000000" stroke="#000000" points="448.6475,-405.6774 451.3326,-395.4285 442.8422,-401.7661 448.6475,-405.6774"/>
</g>
<!-- file:///tmp/tmpf1drghmn#dragen_alignment_output_directory -->
<g id="node7" class="node">
<title>file:///tmp/tmpf1drghmn#dragen_alignment_output_directory</title>
<g id="a_node7"><a xlink:title="The output directory containing all alignment output files and qc metrics&#10;">
<polygon fill="#94ddf4" stroke="#000000" points="16.5,-87.1273 16.5,-124.1273 291.5,-124.1273 291.5,-87.1273 16.5,-87.1273"/>
<text text-anchor="middle" x="154" y="-101.9273" font-family="Times,serif" font-size="14.00" fill="#000000">dragen_alignment_output_directory</text>
</a>
</g>
</g>
<!-- file:///tmp/tmpf1drghmn#dragen_bam_out -->
<g id="node8" class="node">
<title>file:///tmp/tmpf1drghmn#dragen_bam_out</title>
<g id="a_node8"><a xlink:title="The output alignment file&#10;">
<polygon fill="#94ddf4" stroke="#000000" points="310,-87.1273 310,-124.1273 446,-124.1273 446,-87.1273 310,-87.1273"/>
<text text-anchor="middle" x="378" y="-101.9273" font-family="Times,serif" font-size="14.00" fill="#000000">dragen_bam_out</text>
</a>
</g>
</g>
<!-- file:///tmp/tmpf1drghmn#somalier_output_directory -->
<g id="node9" class="node">
<title>file:///tmp/tmpf1drghmn#somalier_output_directory</title>
<g id="a_node9"><a xlink:title="Output directory from somalier step&#10;">
<polygon fill="#94ddf4" stroke="#000000" points="682,-87.1273 682,-124.1273 888,-124.1273 888,-87.1273 682,-87.1273"/>
<text text-anchor="middle" x="785" y="-101.9273" font-family="Times,serif" font-size="14.00" fill="#000000">somalier_output_directory</text>
</a>
</g>
</g>
<!-- file:///tmp/tmpf1drghmn#multiqc_output_directory -->
<g id="node10" class="node">
<title>file:///tmp/tmpf1drghmn#multiqc_output_directory</title>
<g id="a_node10"><a xlink:title="The dragen multiQC output&#10;">
<polygon fill="#94ddf4" stroke="#000000" points="464,-87.1273 464,-124.1273 664,-124.1273 664,-87.1273 464,-87.1273"/>
<text text-anchor="middle" x="564" y="-101.9273" font-family="Times,serif" font-size="14.00" fill="#000000">multiqc_output_directory</text>
</a>
</g>
</g>
<!-- file:///tmp/tmpf1drghmn#run_dragen_step&#45;&gt;file:///tmp/tmpf1drghmn#dragen_alignment_output_directory -->
<g id="edge2" class="edge">
<title>file:///tmp/tmpf1drghmn#run_dragen_step&#45;&gt;file:///tmp/tmpf1drghmn#dragen_alignment_output_directory</title>
<path fill="none" stroke="#000000" d="M442.6924,-358.0004C388.4937,-310.6202 245.2968,-185.4384 183.3007,-131.2418"/>
<polygon fill="#000000" stroke="#000000" points="185.289,-128.3312 175.4567,-124.3846 180.6819,-133.6013 185.289,-128.3312"/>
</g>
<!-- file:///tmp/tmpf1drghmn#run_dragen_step&#45;&gt;file:///tmp/tmpf1drghmn#dragen_bam_out -->
<g id="edge3" class="edge">
<title>file:///tmp/tmpf1drghmn#run_dragen_step&#45;&gt;file:///tmp/tmpf1drghmn#dragen_bam_out</title>
<path fill="none" stroke="#000000" d="M458.0889,-358.0004C443.2986,-311.3938 404.6181,-189.5053 386.9888,-133.9524"/>
<polygon fill="#000000" stroke="#000000" points="390.3134,-132.8575 383.9525,-124.3846 383.6413,-134.9749 390.3134,-132.8575"/>
</g>
<!-- file:///tmp/tmpf1drghmn#run_dragen_step&#45;&gt;file:///tmp/tmpf1drghmn#multiqc_output_directory -->
<g id="edge4" class="edge">
<title>file:///tmp/tmpf1drghmn#run_dragen_step&#45;&gt;file:///tmp/tmpf1drghmn#multiqc_output_directory</title>
<path fill="none" stroke="#000000" d="M470.8734,-358.0004C488.0714,-311.3938 533.0487,-189.5053 553.5479,-133.9524"/>
<polygon fill="#000000" stroke="#000000" points="556.9001,-134.9779 557.0785,-124.3846 550.333,-132.5546 556.9001,-134.9779"/>
</g>
<!-- file:///tmp/tmpf1drghmn#run_dragen_step&#45;&gt;file:///tmp/tmpf1drghmn#run_somalier_step -->
<g id="edge1" class="edge">
<title>file:///tmp/tmpf1drghmn#run_dragen_step&#45;&gt;file:///tmp/tmpf1drghmn#run_somalier_step</title>
<path fill="none" stroke="#000000" d="M499.0509,-357.9979C544.6607,-333.7565 624.3726,-291.3899 673.9998,-265.0132"/>
<polygon fill="#000000" stroke="#000000" points="675.7136,-268.0661 682.9012,-260.2822 672.4283,-261.8849 675.7136,-268.0661"/>
</g>
<!-- file:///tmp/tmpf1drghmn#run_somalier_step&#45;&gt;file:///tmp/tmpf1drghmn#somalier_output_directory -->
<g id="edge5" class="edge">
<title>file:///tmp/tmpf1drghmn#run_somalier_step&#45;&gt;file:///tmp/tmpf1drghmn#somalier_output_directory</title>
<path fill="none" stroke="#000000" d="M727.1756,-223.0023C738.5388,-199.9366 758.0033,-160.4267 771.1777,-133.6845"/>
<polygon fill="#000000" stroke="#000000" points="774.4406,-134.9811 775.7202,-124.4639 768.1612,-131.8876 774.4406,-134.9811"/>
</g>
</g>
</svg>
