<?xml version="1.0" encoding="UTF-8" standalone="no"?>
<!DOCTYPE svg PUBLIC "-//W3C//DTD SVG 1.1//EN"
 "http://www.w3.org/Graphics/SVG/1.1/DTD/svg11.dtd">
<!-- Generated by graphviz version 2.40.1 (20161225.0304)
 -->
<!-- Title: G Pages: 1 -->
<svg width="925pt" height="520pt"
 viewBox="0.00 0.00 925.00 519.69" xmlns="http://www.w3.org/2000/svg" xmlns:xlink="http://www.w3.org/1999/xlink">
<g id="graph0" class="graph" transform="scale(1 1) rotate(0) translate(4 515.686)">
<title>G</title>
<polygon fill="#eeeeee" stroke="transparent" points="-4,4 -4,-515.686 921,-515.686 921,4 -4,4"/>
<g id="clust1" class="cluster">
<title>cluster_inputs</title>
<polygon fill="#eeeeee" stroke="#000000" stroke-dasharray="5,2" points="8,-374.9146 8,-498.8134 883,-498.8134 883,-374.9146 8,-374.9146"/>
<text text-anchor="middle" x="815" y="-382.7146" font-family="Times,serif" font-size="14.00" fill="#000000">Workflow Inputs</text>
</g>
<g id="clust2" class="cluster">
<title>cluster_outputs</title>
<polygon fill="#eeeeee" stroke="#000000" stroke-dasharray="5,2" points="21,-12.8726 21,-136.7714 909,-136.7714 909,-12.8726 21,-12.8726"/>
<text text-anchor="middle" x="835" y="-20.6726" font-family="Times,serif" font-size="14.00" fill="#000000">Workflow Outputs</text>
</g>
<!-- file:///tmp/tmp0nzhkhf_#output_file_prefix -->
<g id="node1" class="node">
<title>file:///tmp/tmp0nzhkhf_#output_file_prefix</title>
<g id="a_node1"><a xlink:title="The prefix given to all output files&#10;">
<polygon fill="#94ddf4" stroke="#000000" points="447.5,-436.3726 447.5,-473.3726 590.5,-473.3726 590.5,-436.3726 447.5,-436.3726"/>
<text text-anchor="middle" x="519" y="-451.1726" font-family="Times,serif" font-size="14.00" fill="#000000">output_file_prefix</text>
</a>
</g>
</g>
<!-- file:///tmp/tmp0nzhkhf_#run_dragen_step -->
<g id="node11" class="node">
<title>file:///tmp/tmp0nzhkhf_#run_dragen_step</title>
<g id="a_node11"><a xlink:href="https://github.com/umccr/cwl-ica/blob/beta-release/.github/catalogue/docs/workflows/dragen-alignment-pipeline/3.7.5/dragen-alignment-pipeline__3.7.5.md" xlink:title="Runs the alignment step on a dragen fpga&#10;Takes in a fastq list and corresponding mount paths from the predefined mount paths&#10;All other options available at the top of the workflow&#10;">
<polygon fill="#ee7ae9" stroke="#000000" points="205,-313.3726 205,-350.3726 469,-350.3726 469,-313.3726 205,-313.3726"/>
<text text-anchor="middle" x="337" y="-328.1726" font-family="Times,serif" font-size="14.00" fill="#000000">dragen&#45;alignment&#45;pipeline v(3.7.5)</text>
</a>
</g>
</g>
<!-- file:///tmp/tmp0nzhkhf_#output_file_prefix&#45;&gt;file:///tmp/tmp0nzhkhf_#run_dragen_step -->
<g id="edge6" class="edge">
<title>file:///tmp/tmp0nzhkhf_#output_file_prefix&#45;&gt;file:///tmp/tmp0nzhkhf_#run_dragen_step</title>
<path fill="none" stroke="#000000" d="M491.3581,-436.1916C459.7311,-414.8173 407.8342,-379.7441 373.0541,-356.2388"/>
<polygon fill="#000000" stroke="#000000" points="374.8484,-353.2271 364.6032,-350.5275 370.9288,-359.0269 374.8484,-353.2271"/>
</g>
<!-- file:///tmp/tmp0nzhkhf_#run_somalier_step -->
<g id="node12" class="node">
<title>file:///tmp/tmp0nzhkhf_#run_somalier_step</title>
<g id="a_node12"><a xlink:href="https://github.com/umccr/cwl-ica/blob/beta-release/.github/catalogue/docs/tools/somalier-extract/0.2.13/somalier-extract__0.2.13.md" xlink:title="Runs the somalier extract function to call the fingerprint on the germline bam file&#10;">
<polygon fill="#fafad2" stroke="#000000" points="459.5,-194.3726 459.5,-231.3726 662.5,-231.3726 662.5,-194.3726 459.5,-194.3726"/>
<text text-anchor="middle" x="561" y="-209.1726" font-family="Times,serif" font-size="14.00" fill="#000000">somalier&#45;extract v(0.2.13)</text>
</a>
</g>
</g>
<!-- file:///tmp/tmp0nzhkhf_#output_file_prefix&#45;&gt;file:///tmp/tmp0nzhkhf_#run_somalier_step -->
<g id="edge7" class="edge">
<title>file:///tmp/tmp0nzhkhf_#output_file_prefix&#45;&gt;file:///tmp/tmp0nzhkhf_#run_somalier_step</title>
<path fill="none" stroke="#000000" d="M522.2259,-436.2851C529.5247,-394.2304 547.3455,-291.5488 556.0509,-241.3891"/>
<polygon fill="#000000" stroke="#000000" points="559.5015,-241.9747 557.7631,-231.5234 552.6046,-240.7776 559.5015,-241.9747"/>
</g>
<!-- file:///tmp/tmp0nzhkhf_#reference_fasta -->
<g id="node2" class="node">
<title>file:///tmp/tmp0nzhkhf_#reference_fasta</title>
<g id="a_node2"><a xlink:title="FastA file with genome sequence&#10;">
<polygon fill="#94ddf4" stroke="#000000" points="609,-436.3726 609,-473.3726 737,-473.3726 737,-436.3726 609,-436.3726"/>
<text text-anchor="middle" x="673" y="-451.1726" font-family="Times,serif" font-size="14.00" fill="#000000">reference_fasta</text>
</a>
</g>
</g>
<!-- file:///tmp/tmp0nzhkhf_#reference_fasta&#45;&gt;file:///tmp/tmp0nzhkhf_#run_somalier_step -->
<g id="edge8" class="edge">
<title>file:///tmp/tmp0nzhkhf_#reference_fasta&#45;&gt;file:///tmp/tmp0nzhkhf_#run_somalier_step</title>
<path fill="none" stroke="#000000" d="M664.3975,-436.2851C644.8527,-394.0544 597.014,-290.6885 573.9076,-240.7622"/>
<polygon fill="#000000" stroke="#000000" points="577.0083,-239.1286 569.6318,-231.5234 570.6556,-242.0687 577.0083,-239.1286"/>
</g>
<!-- file:///tmp/tmp0nzhkhf_#sites_somalier -->
<g id="node3" class="node">
<title>file:///tmp/tmp0nzhkhf_#sites_somalier</title>
<g id="a_node3"><a xlink:title="gzipped vcf file. Required for somalier sites&#10;">
<polygon fill="#94ddf4" stroke="#000000" points="755.5,-436.3726 755.5,-473.3726 874.5,-473.3726 874.5,-436.3726 755.5,-436.3726"/>
<text text-anchor="middle" x="815" y="-451.1726" font-family="Times,serif" font-size="14.00" fill="#000000">sites_somalier</text>
</a>
</g>
</g>
<!-- file:///tmp/tmp0nzhkhf_#sites_somalier&#45;&gt;file:///tmp/tmp0nzhkhf_#run_somalier_step -->
<g id="edge9" class="edge">
<title>file:///tmp/tmp0nzhkhf_#sites_somalier&#45;&gt;file:///tmp/tmp0nzhkhf_#run_somalier_step</title>
<path fill="none" stroke="#000000" d="M795.4908,-436.2851C750.5196,-393.4385 639.4965,-287.6606 588.0161,-238.6124"/>
<polygon fill="#000000" stroke="#000000" points="590.23,-235.8874 580.5757,-231.5234 585.4014,-240.9555 590.23,-235.8874"/>
</g>
<!-- file:///tmp/tmp0nzhkhf_#output_directory -->
<g id="node4" class="node">
<title>file:///tmp/tmp0nzhkhf_#output_directory</title>
<g id="a_node4"><a xlink:title="The directory where all output files are placed&#10;">
<polygon fill="#94ddf4" stroke="#000000" points="292.5,-436.3726 292.5,-473.3726 429.5,-473.3726 429.5,-436.3726 292.5,-436.3726"/>
<text text-anchor="middle" x="361" y="-451.1726" font-family="Times,serif" font-size="14.00" fill="#000000">output_directory</text>
</a>
</g>
</g>
<!-- file:///tmp/tmp0nzhkhf_#output_directory&#45;&gt;file:///tmp/tmp0nzhkhf_#run_dragen_step -->
<g id="edge10" class="edge">
<title>file:///tmp/tmp0nzhkhf_#output_directory&#45;&gt;file:///tmp/tmp0nzhkhf_#run_dragen_step</title>
<path fill="none" stroke="#000000" d="M357.3549,-436.1916C353.4431,-416.1435 347.1798,-384.0438 342.633,-360.7418"/>
<polygon fill="#000000" stroke="#000000" points="346.0298,-359.8741 340.6794,-350.7295 339.1594,-361.2147 346.0298,-359.8741"/>
</g>
<!-- file:///tmp/tmp0nzhkhf_#output_directory&#45;&gt;file:///tmp/tmp0nzhkhf_#run_somalier_step -->
<g id="edge11" class="edge">
<title>file:///tmp/tmp0nzhkhf_#output_directory&#45;&gt;file:///tmp/tmp0nzhkhf_#run_somalier_step</title>
<path fill="none" stroke="#000000" d="M386.3027,-436.0816C411.4669,-416.5914 450.2267,-384.3309 478,-350.8726 507.0384,-315.8902 532.6763,-269.6669 547.5166,-240.5993"/>
<polygon fill="#000000" stroke="#000000" points="550.7568,-241.9465 552.1248,-231.4403 544.5036,-238.8003 550.7568,-241.9465"/>
</g>
<!-- file:///tmp/tmp0nzhkhf_#reference_tar -->
<g id="node5" class="node">
<title>file:///tmp/tmp0nzhkhf_#reference_tar</title>
<g id="a_node5"><a xlink:title="Path to ref data tarball&#10;">
<polygon fill="#94ddf4" stroke="#000000" points="160,-436.3726 160,-473.3726 274,-473.3726 274,-436.3726 160,-436.3726"/>
<text text-anchor="middle" x="217" y="-451.1726" font-family="Times,serif" font-size="14.00" fill="#000000">reference_tar</text>
</a>
</g>
</g>
<!-- file:///tmp/tmp0nzhkhf_#reference_tar&#45;&gt;file:///tmp/tmp0nzhkhf_#run_dragen_step -->
<g id="edge12" class="edge">
<title>file:///tmp/tmp0nzhkhf_#reference_tar&#45;&gt;file:///tmp/tmp0nzhkhf_#run_dragen_step</title>
<path fill="none" stroke="#000000" d="M235.2254,-436.1916C255.5774,-415.3308 288.6598,-381.4214 311.5561,-357.9526"/>
<polygon fill="#000000" stroke="#000000" points="314.125,-360.3315 318.6031,-350.7295 309.1145,-355.4432 314.125,-360.3315"/>
</g>
<!-- file:///tmp/tmp0nzhkhf_#fastq_list_rows -->
<g id="node6" class="node">
<title>file:///tmp/tmp0nzhkhf_#fastq_list_rows</title>
<g id="a_node6"><a xlink:title="The row of fastq lists.&#10;Each row has the following attributes:&#10; &#160;* RGID&#10; &#160;* RGLB&#10; &#160;* RGSM&#10; &#160;* Lane&#10; &#160;* Read1File&#10; &#160;* Read2File (optional)&#10;">
<polygon fill="#94ddf4" stroke="#000000" points="16.5,-436.3726 16.5,-473.3726 141.5,-473.3726 141.5,-436.3726 16.5,-436.3726"/>
<text text-anchor="middle" x="79" y="-451.1726" font-family="Times,serif" font-size="14.00" fill="#000000">fastq_list_rows</text>
</a>
</g>
</g>
<!-- file:///tmp/tmp0nzhkhf_#fastq_list_rows&#45;&gt;file:///tmp/tmp0nzhkhf_#run_dragen_step -->
<g id="edge13" class="edge">
<title>file:///tmp/tmp0nzhkhf_#fastq_list_rows&#45;&gt;file:///tmp/tmp0nzhkhf_#run_dragen_step</title>
<path fill="none" stroke="#000000" d="M102.7583,-436.2746C116.3793,-426.1589 134.0855,-413.9053 151,-404.8726 189.0614,-384.5469 234.0468,-366.7392 270.2424,-353.801"/>
<polygon fill="#000000" stroke="#000000" points="271.4613,-357.0824 279.7241,-350.4508 269.1293,-350.4823 271.4613,-357.0824"/>
</g>
<!-- file:///tmp/tmp0nzhkhf_#multiqc_output_directory -->
<g id="node7" class="node">
<title>file:///tmp/tmp0nzhkhf_#multiqc_output_directory</title>
<g id="a_node7"><a xlink:title="The dragen multiQC output&#10;">
<polygon fill="#94ddf4" stroke="#000000" points="29,-74.3726 29,-111.3726 229,-111.3726 229,-74.3726 29,-74.3726"/>
<text text-anchor="middle" x="129" y="-89.1726" font-family="Times,serif" font-size="14.00" fill="#000000">multiqc_output_directory</text>
</a>
</g>
</g>
<!-- file:///tmp/tmp0nzhkhf_#dragen_bam_out -->
<g id="node8" class="node">
<title>file:///tmp/tmp0nzhkhf_#dragen_bam_out</title>
<g id="a_node8"><a xlink:title="The output alignment file&#10;">
<polygon fill="#94ddf4" stroke="#000000" points="247,-74.3726 247,-111.3726 383,-111.3726 383,-74.3726 247,-74.3726"/>
<text text-anchor="middle" x="315" y="-89.1726" font-family="Times,serif" font-size="14.00" fill="#000000">dragen_bam_out</text>
</a>
</g>
</g>
<!-- file:///tmp/tmp0nzhkhf_#somalier_output_directory -->
<g id="node9" class="node">
<title>file:///tmp/tmp0nzhkhf_#somalier_output_directory</title>
<g id="a_node9"><a xlink:title="Output directory from somalier step&#10;">
<polygon fill="#94ddf4" stroke="#000000" points="695,-74.3726 695,-111.3726 901,-111.3726 901,-74.3726 695,-74.3726"/>
<text text-anchor="middle" x="798" y="-89.1726" font-family="Times,serif" font-size="14.00" fill="#000000">somalier_output_directory</text>
</a>
</g>
</g>
<!-- file:///tmp/tmp0nzhkhf_#dragen_alignment_output_directory -->
<g id="node10" class="node">
<title>file:///tmp/tmp0nzhkhf_#dragen_alignment_output_directory</title>
<g id="a_node10"><a xlink:title="The output directory containing all alignment output files and qc metrics&#10;">
<polygon fill="#94ddf4" stroke="#000000" points="401.5,-74.3726 401.5,-111.3726 676.5,-111.3726 676.5,-74.3726 401.5,-74.3726"/>
<text text-anchor="middle" x="539" y="-89.1726" font-family="Times,serif" font-size="14.00" fill="#000000">dragen_alignment_output_directory</text>
</a>
</g>
</g>
<!-- file:///tmp/tmp0nzhkhf_#run_dragen_step&#45;&gt;file:///tmp/tmp0nzhkhf_#multiqc_output_directory -->
<g id="edge2" class="edge">
<title>file:///tmp/tmp0nzhkhf_#run_dragen_step&#45;&gt;file:///tmp/tmp0nzhkhf_#multiqc_output_directory</title>
<path fill="none" stroke="#000000" d="M320.6786,-313.1187C283.8466,-270.7973 194.1967,-167.7862 151.8592,-119.1387"/>
<polygon fill="#000000" stroke="#000000" points="154.4507,-116.785 145.2456,-111.5394 149.1704,-121.3805 154.4507,-116.785"/>
</g>
<!-- file:///tmp/tmp0nzhkhf_#run_dragen_step&#45;&gt;file:///tmp/tmp0nzhkhf_#dragen_bam_out -->
<g id="edge3" class="edge">
<title>file:///tmp/tmp0nzhkhf_#run_dragen_step&#45;&gt;file:///tmp/tmp0nzhkhf_#dragen_bam_out</title>
<path fill="none" stroke="#000000" d="M335.2737,-313.1187C331.4423,-271.4953 322.2071,-171.168 317.6434,-121.5899"/>
<polygon fill="#000000" stroke="#000000" points="321.1203,-121.1765 316.7183,-111.5394 314.1497,-121.8182 321.1203,-121.1765"/>
</g>
<!-- file:///tmp/tmp0nzhkhf_#run_dragen_step&#45;&gt;file:///tmp/tmp0nzhkhf_#dragen_alignment_output_directory -->
<g id="edge4" class="edge">
<title>file:///tmp/tmp0nzhkhf_#run_dragen_step&#45;&gt;file:///tmp/tmp0nzhkhf_#dragen_alignment_output_directory</title>
<path fill="none" stroke="#000000" d="M352.3337,-312.993C374.0783,-286.293 415.2136,-236.0519 451,-193.8726 472.6511,-168.3538 497.7664,-139.6114 515.6105,-119.3324"/>
<polygon fill="#000000" stroke="#000000" points="518.3227,-121.5485 522.3071,-111.7314 513.0703,-116.921 518.3227,-121.5485"/>
</g>
<!-- file:///tmp/tmp0nzhkhf_#run_dragen_step&#45;&gt;file:///tmp/tmp0nzhkhf_#run_somalier_step -->
<g id="edge1" class="edge">
<title>file:///tmp/tmp0nzhkhf_#run_dragen_step&#45;&gt;file:///tmp/tmp0nzhkhf_#run_somalier_step</title>
<path fill="none" stroke="#000000" d="M372,-313.2789C411.0907,-292.5119 474.4367,-258.8594 516.8876,-236.3073"/>
<polygon fill="#000000" stroke="#000000" points="518.6878,-239.3143 525.8769,-231.5318 515.4036,-233.1325 518.6878,-239.3143"/>
</g>
<!-- file:///tmp/tmp0nzhkhf_#run_somalier_step&#45;&gt;file:///tmp/tmp0nzhkhf_#somalier_output_directory -->
<g id="edge5" class="edge">
<title>file:///tmp/tmp0nzhkhf_#run_somalier_step&#45;&gt;file:///tmp/tmp0nzhkhf_#somalier_output_directory</title>
<path fill="none" stroke="#000000" d="M597.7712,-194.2543C639.3712,-173.191 707.1715,-138.8617 752.1806,-116.0723"/>
<polygon fill="#000000" stroke="#000000" points="753.802,-119.1745 761.1425,-111.5346 750.6399,-112.9294 753.802,-119.1745"/>
</g>
</g>
</svg>
