<?xml version="1.0" encoding="UTF-8" standalone="no"?>
<!DOCTYPE svg PUBLIC "-//W3C//DTD SVG 1.1//EN"
 "http://www.w3.org/Graphics/SVG/1.1/DTD/svg11.dtd">
<!-- Generated by graphviz version 2.43.0 (0)
 -->
<!-- Title: G Pages: 1 -->
<svg width="1124pt" height="631pt"
 viewBox="0.00 0.00 1124.00 630.73" xmlns="http://www.w3.org/2000/svg" xmlns:xlink="http://www.w3.org/1999/xlink">
<g id="graph0" class="graph" transform="scale(1 1) rotate(0) translate(4 626.73)">
<title>G</title>
<polygon fill="#eeeeee" stroke="transparent" points="-4,4 -4,-626.73 1120,-626.73 1120,4 -4,4"/>
<g id="clust1" class="cluster">
<title>cluster_inputs</title>
<polygon fill="#eeeeee" stroke="black" stroke-dasharray="5,2" points="186,-456.28 186,-607.06 1052,-607.06 1052,-456.28 186,-456.28"/>
<text text-anchor="middle" x="985.5" y="-464.08" font-family="Times,serif" font-size="14.00">Workflow Inputs</text>
</g>
<g id="clust2" class="cluster">
<title>cluster_outputs</title>
<polygon fill="#eeeeee" stroke="black" stroke-dasharray="5,2" points="8,-15.67 8,-166.45 886,-166.45 886,-15.67 8,-15.67"/>
<text text-anchor="middle" x="813.5" y="-23.47" font-family="Times,serif" font-size="14.00">Workflow Outputs</text>
</g>
<!-- fastq_list_rows -->
<g id="node1" class="node">
<title>fastq_list_rows</title>
<polygon fill="#94ddf4" stroke="black" points="325.5,-536.17 325.5,-573.17 448.5,-573.17 448.5,-536.17 325.5,-536.17"/>
<text text-anchor="middle" x="387" y="-550.97" font-family="Times,serif" font-size="14.00">fastq_list_rows</text>
</g>
<!-- run_dragen_step -->
<g id="node11" class="node">
<title>run_dragen_step</title>
<polygon fill="#f3cea1" stroke="black" points="339,-385.17 339,-422.17 603,-422.17 603,-385.17 339,-385.17"/>
<text text-anchor="middle" x="471" y="-399.97" font-family="Times,serif" font-size="14.00">dragen&#45;alignment&#45;pipeline v(3.7.5)</text>
</g>
<!-- fastq_list_rows&#45;&gt;run_dragen_step -->
<g id="edge6" class="edge">
<title>fastq_list_rows&#45;&gt;run_dragen_step</title>
<path fill="none" stroke="black" d="M396.97,-535.99C411.62,-510 439.07,-461.3 456.12,-431.07"/>
<polygon fill="black" stroke="black" points="459.19,-432.75 461.05,-422.32 453.09,-429.31 459.19,-432.75"/>
</g>
<!-- output_directory -->
<g id="node2" class="node">
<title>output_directory</title>
<polygon fill="#94ddf4" stroke="black" points="467,-536.17 467,-573.17 603,-573.17 603,-536.17 467,-536.17"/>
<text text-anchor="middle" x="535" y="-550.97" font-family="Times,serif" font-size="14.00">output_directory</text>
</g>
<!-- output_directory&#45;&gt;run_dragen_step -->
<g id="edge7" class="edge">
<title>output_directory&#45;&gt;run_dragen_step</title>
<path fill="none" stroke="black" d="M527.41,-535.99C516.34,-510.22 495.69,-462.14 482.68,-431.85"/>
<polygon fill="black" stroke="black" points="485.75,-430.13 478.58,-422.32 479.31,-432.89 485.75,-430.13"/>
</g>
<!-- run_somalier_step -->
<g id="node12" class="node">
<title>run_somalier_step</title>
<polygon fill="lightgoldenrodyellow" stroke="black" points="637,-240.17 637,-277.17 839,-277.17 839,-240.17 637,-240.17"/>
<text text-anchor="middle" x="738" y="-254.97" font-family="Times,serif" font-size="14.00">somalier&#45;extract v(0.2.13)</text>
</g>
<!-- output_directory&#45;&gt;run_somalier_step -->
<g id="edge8" class="edge">
<title>output_directory&#45;&gt;run_somalier_step</title>
<path fill="none" stroke="black" d="M547.09,-536.16C581.35,-486.54 679.23,-344.78 719.92,-285.85"/>
<polygon fill="black" stroke="black" points="722.91,-287.67 725.72,-277.46 717.15,-283.7 722.91,-287.67"/>
</g>
<!-- output_file_prefix -->
<g id="node3" class="node">
<title>output_file_prefix</title>
<polygon fill="#94ddf4" stroke="black" points="621,-536.17 621,-573.17 761,-573.17 761,-536.17 621,-536.17"/>
<text text-anchor="middle" x="691" y="-550.97" font-family="Times,serif" font-size="14.00">output_file_prefix</text>
</g>
<!-- output_file_prefix&#45;&gt;run_dragen_step -->
<g id="edge9" class="edge">
<title>output_file_prefix&#45;&gt;run_dragen_step</title>
<path fill="none" stroke="black" d="M664.9,-535.99C625.2,-509.1 549.62,-457.92 505.46,-428.01"/>
<polygon fill="black" stroke="black" points="507.31,-425.03 497.07,-422.32 503.38,-430.83 507.31,-425.03"/>
</g>
<!-- output_file_prefix&#45;&gt;run_somalier_step -->
<g id="edge10" class="edge">
<title>output_file_prefix&#45;&gt;run_somalier_step</title>
<path fill="none" stroke="black" d="M693.8,-536.16C701.65,-487.05 723.93,-347.68 733.52,-287.69"/>
<polygon fill="black" stroke="black" points="737.03,-287.88 735.16,-277.46 730.12,-286.78 737.03,-287.88"/>
</g>
<!-- reference_tar -->
<g id="node4" class="node">
<title>reference_tar</title>
<polygon fill="#94ddf4" stroke="black" points="194.5,-536.17 194.5,-573.17 307.5,-573.17 307.5,-536.17 194.5,-536.17"/>
<text text-anchor="middle" x="251" y="-550.97" font-family="Times,serif" font-size="14.00">reference_tar</text>
</g>
<!-- reference_tar&#45;&gt;run_dragen_step -->
<g id="edge11" class="edge">
<title>reference_tar&#45;&gt;run_dragen_step</title>
<path fill="none" stroke="black" d="M273.56,-536.02C285.93,-526.51 301.63,-514.7 316,-504.67 355.48,-477.1 402.06,-447.42 433.77,-427.62"/>
<polygon fill="black" stroke="black" points="435.67,-430.56 442.31,-422.3 431.97,-424.62 435.67,-430.56"/>
</g>
<!-- reference_fasta -->
<g id="node5" class="node">
<title>reference_fasta</title>
<polygon fill="#94ddf4" stroke="black" points="779.5,-536.17 779.5,-573.17 906.5,-573.17 906.5,-536.17 779.5,-536.17"/>
<text text-anchor="middle" x="843" y="-550.97" font-family="Times,serif" font-size="14.00">reference_fasta</text>
</g>
<!-- reference_fasta&#45;&gt;run_somalier_step -->
<g id="edge12" class="edge">
<title>reference_fasta&#45;&gt;run_somalier_step</title>
<path fill="none" stroke="black" d="M836.75,-536.16C819.13,-486.84 769.02,-346.53 747.74,-286.95"/>
<polygon fill="black" stroke="black" points="751.01,-285.7 744.35,-277.46 744.42,-288.05 751.01,-285.7"/>
</g>
<!-- sites_somalier -->
<g id="node6" class="node">
<title>sites_somalier</title>
<polygon fill="#94ddf4" stroke="black" points="924.5,-536.17 924.5,-573.17 1043.5,-573.17 1043.5,-536.17 924.5,-536.17"/>
<text text-anchor="middle" x="984" y="-550.97" font-family="Times,serif" font-size="14.00">sites_somalier</text>
</g>
<!-- sites_somalier&#45;&gt;run_somalier_step -->
<g id="edge13" class="edge">
<title>sites_somalier&#45;&gt;run_somalier_step</title>
<path fill="none" stroke="black" d="M969.35,-536.16C927.66,-486.33 808.24,-343.62 759.31,-285.13"/>
<polygon fill="black" stroke="black" points="761.99,-282.88 752.89,-277.46 756.62,-287.37 761.99,-282.88"/>
</g>
<!-- dragen_alignment_output_directory -->
<g id="node7" class="node">
<title>dragen_alignment_output_directory</title>
<polygon fill="#94ddf4" stroke="black" points="232,-95.17 232,-132.17 504,-132.17 504,-95.17 232,-95.17"/>
<text text-anchor="middle" x="368" y="-109.97" font-family="Times,serif" font-size="14.00">dragen_alignment_output_directory</text>
</g>
<!-- dragen_bam_out -->
<g id="node8" class="node">
<title>dragen_bam_out</title>
<polygon fill="#94ddf4" stroke="black" points="522,-95.17 522,-132.17 656,-132.17 656,-95.17 522,-95.17"/>
<text text-anchor="middle" x="589" y="-109.97" font-family="Times,serif" font-size="14.00">dragen_bam_out</text>
</g>
<!-- multiqc_output_directory -->
<g id="node9" class="node">
<title>multiqc_output_directory</title>
<polygon fill="#94ddf4" stroke="black" points="16.5,-95.17 16.5,-132.17 213.5,-132.17 213.5,-95.17 16.5,-95.17"/>
<text text-anchor="middle" x="115" y="-109.97" font-family="Times,serif" font-size="14.00">multiqc_output_directory</text>
</g>
<!-- somalier_output_directory -->
<g id="node10" class="node">
<title>somalier_output_directory</title>
<polygon fill="#94ddf4" stroke="black" points="674,-95.17 674,-132.17 878,-132.17 878,-95.17 674,-95.17"/>
<text text-anchor="middle" x="776" y="-109.97" font-family="Times,serif" font-size="14.00">somalier_output_directory</text>
</g>
<!-- run_dragen_step&#45;&gt;dragen_alignment_output_directory -->
<g id="edge2" class="edge">
<title>run_dragen_step&#45;&gt;dragen_alignment_output_directory</title>
<path fill="none" stroke="black" d="M464.71,-385.08C447.37,-336.58 398.74,-200.61 377.8,-142.06"/>
<polygon fill="black" stroke="black" points="381,-140.62 374.34,-132.38 374.41,-142.98 381,-140.62"/>
</g>
<!-- run_dragen_step&#45;&gt;dragen_bam_out -->
<g id="edge3" class="edge">
<title>run_dragen_step&#45;&gt;dragen_bam_out</title>
<path fill="none" stroke="black" d="M478.2,-385.08C498.12,-336.48 554.02,-200.05 577.93,-141.7"/>
<polygon fill="black" stroke="black" points="581.19,-142.96 581.74,-132.38 574.71,-140.31 581.19,-142.96"/>
</g>
<!-- run_dragen_step&#45;&gt;multiqc_output_directory -->
<g id="edge4" class="edge">
<title>run_dragen_step&#45;&gt;multiqc_output_directory</title>
<path fill="none" stroke="black" d="M449.27,-385.08C388.19,-335.68 214.94,-195.52 144.91,-138.87"/>
<polygon fill="black" stroke="black" points="146.88,-135.95 136.9,-132.38 142.47,-141.39 146.88,-135.95"/>
</g>
<!-- run_dragen_step&#45;&gt;run_somalier_step -->
<g id="edge1" class="edge">
<title>run_dragen_step&#45;&gt;run_somalier_step</title>
<path fill="none" stroke="black" d="M503.74,-385.13C552.18,-359.19 642.94,-310.58 696.15,-282.08"/>
<polygon fill="black" stroke="black" points="697.83,-285.15 704.99,-277.34 694.52,-278.98 697.83,-285.15"/>
</g>
<!-- run_somalier_step&#45;&gt;somalier_output_directory -->
<g id="edge5" class="edge">
<title>run_somalier_step&#45;&gt;somalier_output_directory</title>
<path fill="none" stroke="black" d="M742.66,-240.13C749.16,-215.69 761,-171.13 768.68,-142.22"/>
<polygon fill="black" stroke="black" points="772.12,-142.91 771.3,-132.34 765.35,-141.11 772.12,-142.91"/>
</g>
<!-- \n -->
<g id="node13" class="node">
<title>\n</title>
<ellipse fill="none" stroke="black" cx="1089" cy="-554.67" rx="27" ry="18"/>
</g>
</g>
</svg>
