<?xml version="1.0" encoding="UTF-8" standalone="no"?>
<!DOCTYPE svg PUBLIC "-//W3C//DTD SVG 1.1//EN"
 "http://www.w3.org/Graphics/SVG/1.1/DTD/svg11.dtd">
<!-- Generated by graphviz version 2.40.1 (20161225.0304)
 -->
<!-- Title: G Pages: 1 -->
<svg width="1048pt" height="588pt"
 viewBox="0.00 0.00 1048.00 588.32" xmlns="http://www.w3.org/2000/svg" xmlns:xlink="http://www.w3.org/1999/xlink">
<g id="graph0" class="graph" transform="scale(1 1) rotate(0) translate(4 584.32)">
<title>G</title>
<polygon fill="#eeeeee" stroke="transparent" points="-4,4 -4,-584.32 1044,-584.32 1044,4 -4,4"/>
<g id="clust1" class="cluster">
<title>cluster_inputs</title>
<polygon fill="#eeeeee" stroke="#000000" stroke-dasharray="5,2" points="159,-425.203 159,-565.7208 1032,-565.7208 1032,-425.203 159,-425.203"/>
<text text-anchor="middle" x="964" y="-433.003" font-family="Times,serif" font-size="14.00" fill="#000000">Workflow Inputs</text>
</g>
<g id="clust2" class="cluster">
<title>cluster_outputs</title>
<polygon fill="#eeeeee" stroke="#000000" stroke-dasharray="5,2" points="8,-14.5992 8,-155.117 896,-155.117 896,-14.5992 8,-14.5992"/>
<text text-anchor="middle" x="822" y="-22.3992" font-family="Times,serif" font-size="14.00" fill="#000000">Workflow Outputs</text>
</g>
<!-- file:///tmp/tmpirl2_5gc#output_directory -->
<g id="node1" class="node">
<title>file:///tmp/tmpirl2_5gc#output_directory</title>
<g id="a_node1"><a xlink:title="The directory where all output files are placed&#10;">
<polygon fill="#94ddf4" stroke="#000000" points="603.5,-498.0992 603.5,-535.0992 740.5,-535.0992 740.5,-498.0992 603.5,-498.0992"/>
<text text-anchor="middle" x="672" y="-512.8992" font-family="Times,serif" font-size="14.00" fill="#000000">output_directory</text>
</a>
</g>
</g>
<!-- file:///tmp/tmpirl2_5gc#run_dragen_step -->
<g id="node11" class="node">
<title>file:///tmp/tmpirl2_5gc#run_dragen_step</title>
<g id="a_node11"><a xlink:href="https://github.com/umccr/cwl-ica/blob/main/.github/catalogue/docs/workflows/dragen-alignment-pipeline/3.7.5/dragen-alignment-pipeline__3.7.5.md" xlink:title="Runs the alignment step on a dragen fpga&#10;Takes in a fastq list and corresponding mount paths from the predefined mount paths&#10;All other options available at the top of the workflow&#10;">
<polygon fill="#ee7ae9" stroke="#000000" points="332,-357.0992 332,-394.0992 596,-394.0992 596,-357.0992 332,-357.0992"/>
<text text-anchor="middle" x="464" y="-371.8992" font-family="Times,serif" font-size="14.00" fill="#000000">dragen&#45;alignment&#45;pipeline v(3.7.5)</text>
</a>
</g>
</g>
<!-- file:///tmp/tmpirl2_5gc#output_directory&#45;&gt;file:///tmp/tmpirl2_5gc#run_dragen_step -->
<g id="edge6" class="edge">
<title>file:///tmp/tmpirl2_5gc#output_directory&#45;&gt;file:///tmp/tmpirl2_5gc#run_dragen_step</title>
<path fill="none" stroke="#000000" d="M644.3792,-497.8755C607.135,-472.6283 540.7647,-427.6368 499.7511,-399.8344"/>
<polygon fill="#000000" stroke="#000000" points="501.6451,-396.8899 491.4037,-394.1758 497.7173,-402.6841 501.6451,-396.8899"/>
</g>
<!-- file:///tmp/tmpirl2_5gc#run_somalier_step -->
<g id="node12" class="node">
<title>file:///tmp/tmpirl2_5gc#run_somalier_step</title>
<g id="a_node12"><a xlink:href="https://github.com/umccr/cwl-ica/blob/main/.github/catalogue/docs/tools/somalier-extract/0.2.13/somalier-extract__0.2.13.md" xlink:title="Runs the somalier extract function to call the fingerprint on the germline bam file&#10;">
<polygon fill="#fafad2" stroke="#000000" points="616.5,-222.0992 616.5,-259.0992 819.5,-259.0992 819.5,-222.0992 616.5,-222.0992"/>
<text text-anchor="middle" x="718" y="-236.8992" font-family="Times,serif" font-size="14.00" fill="#000000">somalier&#45;extract v(0.2.13)</text>
</a>
</g>
</g>
<!-- file:///tmp/tmpirl2_5gc#output_directory&#45;&gt;file:///tmp/tmpirl2_5gc#run_somalier_step -->
<g id="edge7" class="edge">
<title>file:///tmp/tmpirl2_5gc#output_directory&#45;&gt;file:///tmp/tmpirl2_5gc#run_somalier_step</title>
<path fill="none" stroke="#000000" d="M675.0896,-498.0615C682.9433,-450.9397 703.7173,-326.2953 713.1809,-269.5137"/>
<polygon fill="#000000" stroke="#000000" points="716.6716,-269.8591 714.8633,-259.4197 709.7668,-268.7082 716.6716,-269.8591"/>
</g>
<!-- file:///tmp/tmpirl2_5gc#sites_somalier -->
<g id="node2" class="node">
<title>file:///tmp/tmpirl2_5gc#sites_somalier</title>
<g id="a_node2"><a xlink:title="gzipped vcf file. Required for somalier sites&#10;">
<polygon fill="#94ddf4" stroke="#000000" points="758.5,-498.0992 758.5,-535.0992 877.5,-535.0992 877.5,-498.0992 758.5,-498.0992"/>
<text text-anchor="middle" x="818" y="-512.8992" font-family="Times,serif" font-size="14.00" fill="#000000">sites_somalier</text>
</a>
</g>
</g>
<!-- file:///tmp/tmpirl2_5gc#sites_somalier&#45;&gt;file:///tmp/tmpirl2_5gc#run_somalier_step -->
<g id="edge8" class="edge">
<title>file:///tmp/tmpirl2_5gc#sites_somalier&#45;&gt;file:///tmp/tmpirl2_5gc#run_somalier_step</title>
<path fill="none" stroke="#000000" d="M811.2834,-498.0615C794.1748,-450.8418 748.8614,-325.7767 728.3483,-269.1604"/>
<polygon fill="#000000" stroke="#000000" points="731.5162,-267.6293 724.819,-259.4197 724.9349,-270.0139 731.5162,-267.6293"/>
</g>
<!-- file:///tmp/tmpirl2_5gc#reference_fasta -->
<g id="node3" class="node">
<title>file:///tmp/tmpirl2_5gc#reference_fasta</title>
<g id="a_node3"><a xlink:title="FastA file with genome sequence&#10;">
<polygon fill="#94ddf4" stroke="#000000" points="896,-498.0992 896,-535.0992 1024,-535.0992 1024,-498.0992 896,-498.0992"/>
<text text-anchor="middle" x="960" y="-512.8992" font-family="Times,serif" font-size="14.00" fill="#000000">reference_fasta</text>
</a>
</g>
</g>
<!-- file:///tmp/tmpirl2_5gc#reference_fasta&#45;&gt;file:///tmp/tmpirl2_5gc#run_somalier_step -->
<g id="edge9" class="edge">
<title>file:///tmp/tmpirl2_5gc#reference_fasta&#45;&gt;file:///tmp/tmpirl2_5gc#run_somalier_step</title>
<path fill="none" stroke="#000000" d="M943.7459,-498.0615C901.8277,-450.254 789.9439,-322.651 741.2171,-267.0782"/>
<polygon fill="#000000" stroke="#000000" points="743.7265,-264.6313 734.502,-259.4197 738.4631,-269.2462 743.7265,-264.6313"/>
</g>
<!-- file:///tmp/tmpirl2_5gc#reference_tar -->
<g id="node4" class="node">
<title>file:///tmp/tmpirl2_5gc#reference_tar</title>
<g id="a_node4"><a xlink:title="Path to ref data tarball&#10;">
<polygon fill="#94ddf4" stroke="#000000" points="167,-498.0992 167,-535.0992 281,-535.0992 281,-498.0992 167,-498.0992"/>
<text text-anchor="middle" x="224" y="-512.8992" font-family="Times,serif" font-size="14.00" fill="#000000">reference_tar</text>
</a>
</g>
</g>
<!-- file:///tmp/tmpirl2_5gc#reference_tar&#45;&gt;file:///tmp/tmpirl2_5gc#run_dragen_step -->
<g id="edge10" class="edge">
<title>file:///tmp/tmpirl2_5gc#reference_tar&#45;&gt;file:///tmp/tmpirl2_5gc#run_dragen_step</title>
<path fill="none" stroke="#000000" d="M246.5392,-498.0412C258.9907,-488.1739 274.946,-476.1447 290,-466.5992 330.5679,-440.876 379.1928,-415.9003 414.7145,-398.6424"/>
<polygon fill="#000000" stroke="#000000" points="416.4233,-401.704 423.9083,-394.2056 413.3809,-395.3997 416.4233,-401.704"/>
</g>
<!-- file:///tmp/tmpirl2_5gc#output_file_prefix -->
<g id="node5" class="node">
<title>file:///tmp/tmpirl2_5gc#output_file_prefix</title>
<g id="a_node5"><a xlink:title="The prefix given to all output files&#10;">
<polygon fill="#94ddf4" stroke="#000000" points="442.5,-498.0992 442.5,-535.0992 585.5,-535.0992 585.5,-498.0992 442.5,-498.0992"/>
<text text-anchor="middle" x="514" y="-512.8992" font-family="Times,serif" font-size="14.00" fill="#000000">output_file_prefix</text>
</a>
</g>
</g>
<!-- file:///tmp/tmpirl2_5gc#output_file_prefix&#45;&gt;file:///tmp/tmpirl2_5gc#run_dragen_step -->
<g id="edge11" class="edge">
<title>file:///tmp/tmpirl2_5gc#output_file_prefix&#45;&gt;file:///tmp/tmpirl2_5gc#run_dragen_step</title>
<path fill="none" stroke="#000000" d="M507.3604,-497.8755C498.8432,-473.857 483.9894,-431.9693 474.0753,-404.0115"/>
<polygon fill="#000000" stroke="#000000" points="477.3081,-402.6556 470.6671,-394.4004 470.7106,-404.9951 477.3081,-402.6556"/>
</g>
<!-- file:///tmp/tmpirl2_5gc#output_file_prefix&#45;&gt;file:///tmp/tmpirl2_5gc#run_somalier_step -->
<g id="edge12" class="edge">
<title>file:///tmp/tmpirl2_5gc#output_file_prefix&#45;&gt;file:///tmp/tmpirl2_5gc#run_somalier_step</title>
<path fill="none" stroke="#000000" d="M527.9207,-498.0309C545.8126,-474.1438 577.8123,-431.3485 605,-394.5992 637.9909,-350.0059 676.1135,-297.9383 698.5763,-267.203"/>
<polygon fill="#000000" stroke="#000000" points="701.4058,-269.263 704.4794,-259.1237 695.7538,-265.1333 701.4058,-269.263"/>
</g>
<!-- file:///tmp/tmpirl2_5gc#fastq_list_rows -->
<g id="node6" class="node">
<title>file:///tmp/tmpirl2_5gc#fastq_list_rows</title>
<g id="a_node6"><a xlink:title="The row of fastq lists.&#10;Each row has the following attributes:&#10; &#160;* RGID&#10; &#160;* RGLB&#10; &#160;* RGSM&#10; &#160;* Lane&#10; &#160;* Read1File&#10; &#160;* Read2File (optional)&#10;">
<polygon fill="#94ddf4" stroke="#000000" points="299.5,-498.0992 299.5,-535.0992 424.5,-535.0992 424.5,-498.0992 299.5,-498.0992"/>
<text text-anchor="middle" x="362" y="-512.8992" font-family="Times,serif" font-size="14.00" fill="#000000">fastq_list_rows</text>
</a>
</g>
</g>
<!-- file:///tmp/tmpirl2_5gc#fastq_list_rows&#45;&gt;file:///tmp/tmpirl2_5gc#run_dragen_step -->
<g id="edge13" class="edge">
<title>file:///tmp/tmpirl2_5gc#fastq_list_rows&#45;&gt;file:///tmp/tmpirl2_5gc#run_dragen_step</title>
<path fill="none" stroke="#000000" d="M375.5448,-497.8755C393.2248,-473.4356 424.2888,-430.4941 444.5015,-402.5531"/>
<polygon fill="#000000" stroke="#000000" points="447.3737,-404.5541 450.3992,-394.4004 441.7021,-400.4512 447.3737,-404.5541"/>
</g>
<!-- file:///tmp/tmpirl2_5gc#somalier_output_directory -->
<g id="node7" class="node">
<title>file:///tmp/tmpirl2_5gc#somalier_output_directory</title>
<g id="a_node7"><a xlink:title="Output directory from somalier step&#10;">
<polygon fill="#94ddf4" stroke="#000000" points="682,-87.0992 682,-124.0992 888,-124.0992 888,-87.0992 682,-87.0992"/>
<text text-anchor="middle" x="785" y="-101.8992" font-family="Times,serif" font-size="14.00" fill="#000000">somalier_output_directory</text>
</a>
</g>
</g>
<!-- file:///tmp/tmpirl2_5gc#dragen_alignment_output_directory -->
<g id="node8" class="node">
<title>file:///tmp/tmpirl2_5gc#dragen_alignment_output_directory</title>
<g id="a_node8"><a xlink:title="The output directory containing all alignment output files and qc metrics&#10;">
<polygon fill="#94ddf4" stroke="#000000" points="16.5,-87.0992 16.5,-124.0992 291.5,-124.0992 291.5,-87.0992 16.5,-87.0992"/>
<text text-anchor="middle" x="154" y="-101.8992" font-family="Times,serif" font-size="14.00" fill="#000000">dragen_alignment_output_directory</text>
</a>
</g>
</g>
<!-- file:///tmp/tmpirl2_5gc#dragen_bam_out -->
<g id="node9" class="node">
<title>file:///tmp/tmpirl2_5gc#dragen_bam_out</title>
<g id="a_node9"><a xlink:title="The output alignment file&#10;">
<polygon fill="#94ddf4" stroke="#000000" points="310,-87.0992 310,-124.0992 446,-124.0992 446,-87.0992 310,-87.0992"/>
<text text-anchor="middle" x="378" y="-101.8992" font-family="Times,serif" font-size="14.00" fill="#000000">dragen_bam_out</text>
</a>
</g>
</g>
<!-- file:///tmp/tmpirl2_5gc#multiqc_output_directory -->
<g id="node10" class="node">
<title>file:///tmp/tmpirl2_5gc#multiqc_output_directory</title>
<g id="a_node10"><a xlink:title="The dragen multiQC output&#10;">
<polygon fill="#94ddf4" stroke="#000000" points="464,-87.0992 464,-124.0992 664,-124.0992 664,-87.0992 464,-87.0992"/>
<text text-anchor="middle" x="564" y="-101.8992" font-family="Times,serif" font-size="14.00" fill="#000000">multiqc_output_directory</text>
</a>
</g>
</g>
<!-- file:///tmp/tmpirl2_5gc#run_dragen_step&#45;&gt;file:///tmp/tmpirl2_5gc#dragen_alignment_output_directory -->
<g id="edge2" class="edge">
<title>file:///tmp/tmpirl2_5gc#run_dragen_step&#45;&gt;file:///tmp/tmpirl2_5gc#dragen_alignment_output_directory</title>
<path fill="none" stroke="#000000" d="M442.6924,-357.0411C388.4937,-309.8357 245.2968,-185.1159 183.3007,-131.1192"/>
<polygon fill="#000000" stroke="#000000" points="185.2962,-128.2159 175.4567,-124.2873 180.6988,-133.4944 185.2962,-128.2159"/>
</g>
<!-- file:///tmp/tmpirl2_5gc#run_dragen_step&#45;&gt;file:///tmp/tmpirl2_5gc#dragen_bam_out -->
<g id="edge3" class="edge">
<title>file:///tmp/tmpirl2_5gc#run_dragen_step&#45;&gt;file:///tmp/tmpirl2_5gc#dragen_bam_out</title>
<path fill="none" stroke="#000000" d="M458.0889,-357.0411C443.2986,-310.6064 404.6181,-189.1677 386.9888,-133.8199"/>
<polygon fill="#000000" stroke="#000000" points="390.3224,-132.7534 383.9525,-124.2873 383.6526,-134.8779 390.3224,-132.7534"/>
</g>
<!-- file:///tmp/tmpirl2_5gc#run_dragen_step&#45;&gt;file:///tmp/tmpirl2_5gc#multiqc_output_directory -->
<g id="edge4" class="edge">
<title>file:///tmp/tmpirl2_5gc#run_dragen_step&#45;&gt;file:///tmp/tmpirl2_5gc#multiqc_output_directory</title>
<path fill="none" stroke="#000000" d="M470.8734,-357.0411C488.0714,-310.6064 533.0487,-189.1677 553.5479,-133.8199"/>
<polygon fill="#000000" stroke="#000000" points="556.8874,-134.8804 557.0785,-124.2873 550.3232,-132.4492 556.8874,-134.8804"/>
</g>
<!-- file:///tmp/tmpirl2_5gc#run_dragen_step&#45;&gt;file:///tmp/tmpirl2_5gc#run_somalier_step -->
<g id="edge1" class="edge">
<title>file:///tmp/tmpirl2_5gc#run_dragen_step&#45;&gt;file:///tmp/tmpirl2_5gc#run_somalier_step</title>
<path fill="none" stroke="#000000" d="M499.0509,-356.9698C544.6607,-332.7284 624.3726,-290.3619 673.9998,-263.9852"/>
<polygon fill="#000000" stroke="#000000" points="675.7136,-267.038 682.9012,-259.2541 672.4283,-260.8568 675.7136,-267.038"/>
</g>
<!-- file:///tmp/tmpirl2_5gc#run_somalier_step&#45;&gt;file:///tmp/tmpirl2_5gc#somalier_output_directory -->
<g id="edge5" class="edge">
<title>file:///tmp/tmpirl2_5gc#run_somalier_step&#45;&gt;file:///tmp/tmpirl2_5gc#somalier_output_directory</title>
<path fill="none" stroke="#000000" d="M727.3161,-221.8281C738.7165,-198.857 758.1182,-159.764 771.2395,-133.3256"/>
<polygon fill="#000000" stroke="#000000" points="774.4526,-134.7245 775.7631,-124.211 768.1823,-131.6125 774.4526,-134.7245"/>
</g>
</g>
</svg>
