<?xml version="1.0" encoding="UTF-8" standalone="no"?>
<!DOCTYPE svg PUBLIC "-//W3C//DTD SVG 1.1//EN"
 "http://www.w3.org/Graphics/SVG/1.1/DTD/svg11.dtd">
<!-- Generated by graphviz version 2.40.1 (20161225.0304)
 -->
<!-- Title: G Pages: 1 -->
<svg width="1068pt" height="599pt"
 viewBox="0.00 0.00 1068.00 599.48" xmlns="http://www.w3.org/2000/svg" xmlns:xlink="http://www.w3.org/1999/xlink">
<g id="graph0" class="graph" transform="scale(1 1) rotate(0) translate(4 595.48)">
<title>G</title>
<polygon fill="#eeeeee" stroke="transparent" points="-4,4 -4,-595.48 1064,-595.48 1064,4 -4,4"/>
<g id="clust1" class="cluster">
<title>cluster_inputs</title>
<polygon fill="#eeeeee" stroke="#000000" stroke-dasharray="5,2" points="8,-433.38 8,-576.6 882,-576.6 882,-433.38 8,-433.38"/>
<text text-anchor="middle" x="814" y="-441.18" font-family="Times,serif" font-size="14.00" fill="#000000">Workflow Inputs</text>
</g>
<g id="clust2" class="cluster">
<title>cluster_outputs</title>
<polygon fill="#eeeeee" stroke="#000000" stroke-dasharray="5,2" points="164,-14.88 164,-158.1 1052,-158.1 1052,-14.88 164,-14.88"/>
<text text-anchor="middle" x="978" y="-22.68" font-family="Times,serif" font-size="14.00" fill="#000000">Workflow Outputs</text>
</g>
<!-- file:///tmp/tmp5djtr7ef#sites_somalier -->
<g id="node1" class="node">
<title>file:///tmp/tmp5djtr7ef#sites_somalier</title>
<g id="a_node1"><a xlink:title="gzipped vcf file. Required for somalier sites&#10;">
<polygon fill="#94ddf4" stroke="#000000" points="16.5,-508.38 16.5,-545.38 135.5,-545.38 135.5,-508.38 16.5,-508.38"/>
<text text-anchor="middle" x="76" y="-523.18" font-family="Times,serif" font-size="14.00" fill="#000000">sites_somalier</text>
</a>
</g>
</g>
<!-- file:///tmp/tmp5djtr7ef#run_somalier_step -->
<g id="node12" class="node">
<title>file:///tmp/tmp5djtr7ef#run_somalier_step</title>
<g id="a_node12"><a xlink:href="https://github.com/umccr/cwl-ica/blob/beta-release/.github/catalogue/docs/tools/somalier-extract/0.2.13/somalier-extract__0.2.13.md" xlink:title="Runs the somalier extract function to call the fingerprint on the germline bam file&#10;">
<polygon fill="#fafad2" stroke="#000000" points="205.5,-227.38 205.5,-264.38 408.5,-264.38 408.5,-227.38 205.5,-227.38"/>
<text text-anchor="middle" x="307" y="-242.18" font-family="Times,serif" font-size="14.00" fill="#000000">somalier&#45;extract v(0.2.13)</text>
</a>
</g>
</g>
<!-- file:///tmp/tmp5djtr7ef#sites_somalier&#45;&gt;file:///tmp/tmp5djtr7ef#run_somalier_step -->
<g id="edge6" class="edge">
<title>file:///tmp/tmp5djtr7ef#sites_somalier&#45;&gt;file:///tmp/tmp5djtr7ef#run_somalier_step</title>
<path fill="none" stroke="#000000" d="M91.5153,-508.0065C131.6245,-459.2155 238.8413,-328.7916 285.1734,-272.431"/>
<polygon fill="#000000" stroke="#000000" points="287.9056,-274.6189 291.5523,-264.6714 282.4982,-270.1736 287.9056,-274.6189"/>
</g>
<!-- file:///tmp/tmp5djtr7ef#output_directory -->
<g id="node2" class="node">
<title>file:///tmp/tmp5djtr7ef#output_directory</title>
<g id="a_node2"><a xlink:title="The directory where all output files are placed&#10;">
<polygon fill="#94ddf4" stroke="#000000" points="300.5,-508.38 300.5,-545.38 437.5,-545.38 437.5,-508.38 300.5,-508.38"/>
<text text-anchor="middle" x="369" y="-523.18" font-family="Times,serif" font-size="14.00" fill="#000000">output_directory</text>
</a>
</g>
</g>
<!-- file:///tmp/tmp5djtr7ef#run_dragen_step -->
<g id="node11" class="node">
<title>file:///tmp/tmp5djtr7ef#run_dragen_step</title>
<g id="a_node11"><a xlink:href="https://github.com/umccr/cwl-ica/blob/beta-release/.github/catalogue/docs/workflows/dragen-alignment-pipeline/3.7.5/dragen-alignment-pipeline__3.7.5.md" xlink:title="Runs the alignment step on a dragen fpga&#10;Takes in a fastq list and corresponding mount paths from the predefined mount paths&#10;All other options available at the top of the workflow&#10;">
<polygon fill="#ee7ae9" stroke="#000000" points="425,-364.38 425,-401.38 689,-401.38 689,-364.38 425,-364.38"/>
<text text-anchor="middle" x="557" y="-379.18" font-family="Times,serif" font-size="14.00" fill="#000000">dragen&#45;alignment&#45;pipeline v(3.7.5)</text>
</a>
</g>
</g>
<!-- file:///tmp/tmp5djtr7ef#output_directory&#45;&gt;file:///tmp/tmp5djtr7ef#run_dragen_step -->
<g id="edge7" class="edge">
<title>file:///tmp/tmp5djtr7ef#output_directory&#45;&gt;file:///tmp/tmp5djtr7ef#run_dragen_step</title>
<path fill="none" stroke="#000000" d="M393.1928,-508.3493C426.6609,-482.7142 487.1763,-436.362 524.543,-407.7407"/>
<polygon fill="#000000" stroke="#000000" points="526.7917,-410.427 532.6022,-401.5676 522.5352,-404.8699 526.7917,-410.427"/>
</g>
<!-- file:///tmp/tmp5djtr7ef#output_directory&#45;&gt;file:///tmp/tmp5djtr7ef#run_somalier_step -->
<g id="edge8" class="edge">
<title>file:///tmp/tmp5djtr7ef#output_directory&#45;&gt;file:///tmp/tmp5djtr7ef#run_somalier_step</title>
<path fill="none" stroke="#000000" d="M364.8357,-508.0065C354.2028,-459.8154 325.9986,-331.9864 313.3243,-274.5431"/>
<polygon fill="#000000" stroke="#000000" points="316.7186,-273.6824 311.1461,-264.6714 309.883,-275.1906 316.7186,-273.6824"/>
</g>
<!-- file:///tmp/tmp5djtr7ef#reference_tar -->
<g id="node3" class="node">
<title>file:///tmp/tmp5djtr7ef#reference_tar</title>
<g id="a_node3"><a xlink:title="Path to ref data tarball&#10;">
<polygon fill="#94ddf4" stroke="#000000" points="760,-508.38 760,-545.38 874,-545.38 874,-508.38 760,-508.38"/>
<text text-anchor="middle" x="817" y="-523.18" font-family="Times,serif" font-size="14.00" fill="#000000">reference_tar</text>
</a>
</g>
</g>
<!-- file:///tmp/tmp5djtr7ef#reference_tar&#45;&gt;file:///tmp/tmp5djtr7ef#run_dragen_step -->
<g id="edge9" class="edge">
<title>file:///tmp/tmp5djtr7ef#reference_tar&#45;&gt;file:///tmp/tmp5djtr7ef#run_dragen_step</title>
<path fill="none" stroke="#000000" d="M794.8759,-508.3766C782.4159,-498.4095 766.3212,-486.2686 751,-476.88 705.5042,-449.0009 650.513,-423.0199 610.7134,-405.4696"/>
<polygon fill="#000000" stroke="#000000" points="612.0114,-402.2172 601.447,-401.4146 609.2051,-408.6301 612.0114,-402.2172"/>
</g>
<!-- file:///tmp/tmp5djtr7ef#reference_fasta -->
<g id="node4" class="node">
<title>file:///tmp/tmp5djtr7ef#reference_fasta</title>
<g id="a_node4"><a xlink:title="FastA file with genome sequence&#10;">
<polygon fill="#94ddf4" stroke="#000000" points="154,-508.38 154,-545.38 282,-545.38 282,-508.38 154,-508.38"/>
<text text-anchor="middle" x="218" y="-523.18" font-family="Times,serif" font-size="14.00" fill="#000000">reference_fasta</text>
</a>
</g>
</g>
<!-- file:///tmp/tmp5djtr7ef#reference_fasta&#45;&gt;file:///tmp/tmp5djtr7ef#run_somalier_step -->
<g id="edge10" class="edge">
<title>file:///tmp/tmp5djtr7ef#reference_fasta&#45;&gt;file:///tmp/tmp5djtr7ef#run_somalier_step</title>
<path fill="none" stroke="#000000" d="M223.9777,-508.0065C239.2411,-459.8154 279.7279,-331.9864 297.9216,-274.5431"/>
<polygon fill="#000000" stroke="#000000" points="301.3654,-275.2615 301.0483,-264.6714 294.6921,-273.1478 301.3654,-275.2615"/>
</g>
<!-- file:///tmp/tmp5djtr7ef#fastq_list_rows -->
<g id="node5" class="node">
<title>file:///tmp/tmp5djtr7ef#fastq_list_rows</title>
<g id="a_node5"><a xlink:title="The row of fastq lists.&#10;Each row has the following attributes:&#10; &#160;* RGID&#10; &#160;* RGLB&#10; &#160;* RGSM&#10; &#160;* Lane&#10; &#160;* Read1File&#10; &#160;* Read2File (optional)&#10;">
<polygon fill="#94ddf4" stroke="#000000" points="616.5,-508.38 616.5,-545.38 741.5,-545.38 741.5,-508.38 616.5,-508.38"/>
<text text-anchor="middle" x="679" y="-523.18" font-family="Times,serif" font-size="14.00" fill="#000000">fastq_list_rows</text>
</a>
</g>
</g>
<!-- file:///tmp/tmp5djtr7ef#fastq_list_rows&#45;&gt;file:///tmp/tmp5djtr7ef#run_dragen_step -->
<g id="edge11" class="edge">
<title>file:///tmp/tmp5djtr7ef#fastq_list_rows&#45;&gt;file:///tmp/tmp5djtr7ef#run_dragen_step</title>
<path fill="none" stroke="#000000" d="M663.3004,-508.3493C642.0056,-483.2145 603.8372,-438.1632 579.4991,-409.4363"/>
<polygon fill="#000000" stroke="#000000" points="582.1614,-407.1642 573.0268,-401.7968 576.8205,-411.6892 582.1614,-407.1642"/>
</g>
<!-- file:///tmp/tmp5djtr7ef#output_file_prefix -->
<g id="node6" class="node">
<title>file:///tmp/tmp5djtr7ef#output_file_prefix</title>
<g id="a_node6"><a xlink:title="The prefix given to all output files&#10;">
<polygon fill="#94ddf4" stroke="#000000" points="455.5,-508.38 455.5,-545.38 598.5,-545.38 598.5,-508.38 455.5,-508.38"/>
<text text-anchor="middle" x="527" y="-523.18" font-family="Times,serif" font-size="14.00" fill="#000000">output_file_prefix</text>
</a>
</g>
</g>
<!-- file:///tmp/tmp5djtr7ef#output_file_prefix&#45;&gt;file:///tmp/tmp5djtr7ef#run_dragen_step -->
<g id="edge12" class="edge">
<title>file:///tmp/tmp5djtr7ef#output_file_prefix&#45;&gt;file:///tmp/tmp5djtr7ef#run_dragen_step</title>
<path fill="none" stroke="#000000" d="M530.8606,-508.3493C535.9627,-483.859 545.0041,-440.4604 551.0005,-411.6776"/>
<polygon fill="#000000" stroke="#000000" points="554.4458,-412.3005 553.059,-401.7968 547.5929,-410.8728 554.4458,-412.3005"/>
</g>
<!-- file:///tmp/tmp5djtr7ef#output_file_prefix&#45;&gt;file:///tmp/tmp5djtr7ef#run_somalier_step -->
<g id="edge13" class="edge">
<title>file:///tmp/tmp5djtr7ef#output_file_prefix&#45;&gt;file:///tmp/tmp5djtr7ef#run_somalier_step</title>
<path fill="none" stroke="#000000" d="M508.9774,-507.9953C486.399,-484.025 446.9209,-441.0693 416,-401.88 381.7269,-358.442 345.649,-305.0767 324.7946,-273.3616"/>
<polygon fill="#000000" stroke="#000000" points="327.4859,-271.0823 319.0803,-264.6328 321.6293,-274.9165 327.4859,-271.0823"/>
</g>
<!-- file:///tmp/tmp5djtr7ef#somalier_output_directory -->
<g id="node7" class="node">
<title>file:///tmp/tmp5djtr7ef#somalier_output_directory</title>
<g id="a_node7"><a xlink:title="Output directory from somalier step&#10;">
<polygon fill="#94ddf4" stroke="#000000" points="172,-89.38 172,-126.38 378,-126.38 378,-89.38 172,-89.38"/>
<text text-anchor="middle" x="275" y="-104.18" font-family="Times,serif" font-size="14.00" fill="#000000">somalier_output_directory</text>
</a>
</g>
</g>
<!-- file:///tmp/tmp5djtr7ef#dragen_bam_out -->
<g id="node8" class="node">
<title>file:///tmp/tmp5djtr7ef#dragen_bam_out</title>
<g id="a_node8"><a xlink:title="The output alignment file&#10;">
<polygon fill="#94ddf4" stroke="#000000" points="396,-89.38 396,-126.38 532,-126.38 532,-89.38 396,-89.38"/>
<text text-anchor="middle" x="464" y="-104.18" font-family="Times,serif" font-size="14.00" fill="#000000">dragen_bam_out</text>
</a>
</g>
</g>
<!-- file:///tmp/tmp5djtr7ef#multiqc_output_directory -->
<g id="node9" class="node">
<title>file:///tmp/tmp5djtr7ef#multiqc_output_directory</title>
<g id="a_node9"><a xlink:title="The dragen multiQC output&#10;">
<polygon fill="#94ddf4" stroke="#000000" points="550,-89.38 550,-126.38 750,-126.38 750,-89.38 550,-89.38"/>
<text text-anchor="middle" x="650" y="-104.18" font-family="Times,serif" font-size="14.00" fill="#000000">multiqc_output_directory</text>
</a>
</g>
</g>
<!-- file:///tmp/tmp5djtr7ef#dragen_alignment_output_directory -->
<g id="node10" class="node">
<title>file:///tmp/tmp5djtr7ef#dragen_alignment_output_directory</title>
<g id="a_node10"><a xlink:title="The output directory containing all alignment output files and qc metrics&#10;">
<polygon fill="#94ddf4" stroke="#000000" points="768.5,-89.38 768.5,-126.38 1043.5,-126.38 1043.5,-89.38 768.5,-89.38"/>
<text text-anchor="middle" x="906" y="-104.18" font-family="Times,serif" font-size="14.00" fill="#000000">dragen_alignment_output_directory</text>
</a>
</g>
</g>
<!-- file:///tmp/tmp5djtr7ef#run_dragen_step&#45;&gt;file:///tmp/tmp5djtr7ef#dragen_bam_out -->
<g id="edge2" class="edge">
<title>file:///tmp/tmp5djtr7ef#run_dragen_step&#45;&gt;file:///tmp/tmp5djtr7ef#dragen_bam_out</title>
<path fill="none" stroke="#000000" d="M550.6077,-363.9781C534.5749,-316.5694 492.5825,-192.398 473.5827,-136.2159"/>
<polygon fill="#000000" stroke="#000000" points="476.8332,-134.9022 470.314,-126.5505 470.2021,-137.1448 476.8332,-134.9022"/>
</g>
<!-- file:///tmp/tmp5djtr7ef#run_dragen_step&#45;&gt;file:///tmp/tmp5djtr7ef#multiqc_output_directory -->
<g id="edge3" class="edge">
<title>file:///tmp/tmp5djtr7ef#run_dragen_step&#45;&gt;file:///tmp/tmp5djtr7ef#multiqc_output_directory</title>
<path fill="none" stroke="#000000" d="M563.3923,-363.9781C579.4251,-316.5694 621.4175,-192.398 640.4173,-136.2159"/>
<polygon fill="#000000" stroke="#000000" points="643.7979,-137.1448 643.686,-126.5505 637.1668,-134.9022 643.7979,-137.1448"/>
</g>
<!-- file:///tmp/tmp5djtr7ef#run_dragen_step&#45;&gt;file:///tmp/tmp5djtr7ef#dragen_alignment_output_directory -->
<g id="edge4" class="edge">
<title>file:///tmp/tmp5djtr7ef#run_dragen_step&#45;&gt;file:///tmp/tmp5djtr7ef#dragen_alignment_output_directory</title>
<path fill="none" stroke="#000000" d="M580.7138,-364.1943C641.8957,-315.9851 805.1089,-187.3787 874.2955,-132.8621"/>
<polygon fill="#000000" stroke="#000000" points="876.5652,-135.5297 882.2536,-126.5914 872.2328,-130.0314 876.5652,-135.5297"/>
</g>
<!-- file:///tmp/tmp5djtr7ef#run_dragen_step&#45;&gt;file:///tmp/tmp5djtr7ef#run_somalier_step -->
<g id="edge1" class="edge">
<title>file:///tmp/tmp5djtr7ef#run_dragen_step&#45;&gt;file:///tmp/tmp5djtr7ef#run_somalier_step</title>
<path fill="none" stroke="#000000" d="M523.0237,-364.261C478.0293,-339.6041 398.6687,-296.1144 349.6806,-269.269"/>
<polygon fill="#000000" stroke="#000000" points="351.3536,-266.1947 340.902,-264.4583 347.9896,-272.3334 351.3536,-266.1947"/>
</g>
<!-- file:///tmp/tmp5djtr7ef#run_somalier_step&#45;&gt;file:///tmp/tmp5djtr7ef#somalier_output_directory -->
<g id="edge5" class="edge">
<title>file:///tmp/tmp5djtr7ef#run_somalier_step&#45;&gt;file:///tmp/tmp5djtr7ef#somalier_output_directory</title>
<path fill="none" stroke="#000000" d="M302.6843,-227.2687C297.2926,-204.017 288.0086,-163.9798 281.692,-136.7394"/>
<polygon fill="#000000" stroke="#000000" points="285.018,-135.588 279.3495,-126.6372 278.1989,-137.1693 285.018,-135.588"/>
</g>
</g>
</svg>
