<?xml version="1.0" encoding="UTF-8" standalone="no"?>
<!DOCTYPE svg PUBLIC "-//W3C//DTD SVG 1.1//EN"
 "http://www.w3.org/Graphics/SVG/1.1/DTD/svg11.dtd">
<!-- Generated by graphviz version 2.40.1 (20161225.0304)
 -->
<!-- Title: G Pages: 1 -->
<svg width="1081pt" height="607pt"
 viewBox="0.00 0.00 1081.00 606.73" xmlns="http://www.w3.org/2000/svg" xmlns:xlink="http://www.w3.org/1999/xlink">
<g id="graph0" class="graph" transform="scale(1 1) rotate(0) translate(4 602.734)">
<title>G</title>
<polygon fill="#eeeeee" stroke="transparent" points="-4,4 -4,-602.734 1077,-602.734 1077,4 -4,4"/>
<g id="clust1" class="cluster">
<title>cluster_inputs</title>
<polygon fill="#eeeeee" stroke="#000000" stroke-dasharray="5,2" points="191,-438.695 191,-583.6715 1065,-583.6715 1065,-438.695 191,-438.695"/>
<text text-anchor="middle" x="997" y="-446.495" font-family="Times,serif" font-size="14.00" fill="#000000">Workflow Inputs</text>
</g>
<g id="clust2" class="cluster">
<title>cluster_outputs</title>
<polygon fill="#eeeeee" stroke="#000000" stroke-dasharray="5,2" points="8,-15.0625 8,-160.039 896,-160.039 896,-15.0625 8,-15.0625"/>
<text text-anchor="middle" x="822" y="-22.8625" font-family="Times,serif" font-size="14.00" fill="#000000">Workflow Outputs</text>
</g>
<!-- file:///tmp/tmp00z84nb5#output_directory -->
<g id="node1" class="node">
<title>file:///tmp/tmp00z84nb5#output_directory</title>
<g id="a_node1"><a xlink:title="The directory where all output files are placed&#10;">
<polygon fill="#94ddf4" stroke="#000000" points="475.5,-514.5625 475.5,-551.5625 612.5,-551.5625 612.5,-514.5625 475.5,-514.5625"/>
<text text-anchor="middle" x="544" y="-529.3625" font-family="Times,serif" font-size="14.00" fill="#000000">output_directory</text>
</a>
</g>
</g>
<!-- file:///tmp/tmp00z84nb5#run_dragen_step -->
<g id="node11" class="node">
<title>file:///tmp/tmp00z84nb5#run_dragen_step</title>
<g id="a_node11"><a xlink:href="https://github.com/umccr/cwl-ica/blob/beta-release/.github/catalogue/docs/workflows/dragen-alignment-pipeline/3.7.5/dragen-alignment-pipeline__3.7.5.md" xlink:title="Runs the alignment step on a dragen fpga&#10;Takes in a fastq list and corresponding mount paths from the predefined mount paths&#10;All other options available at the top of the workflow&#10;">
<polygon fill="#ee7ae9" stroke="#000000" points="363,-369.5625 363,-406.5625 627,-406.5625 627,-369.5625 363,-369.5625"/>
<text text-anchor="middle" x="495" y="-384.3625" font-family="Times,serif" font-size="14.00" fill="#000000">dragen&#45;alignment&#45;pipeline v(3.7.5)</text>
</a>
</g>
</g>
<!-- file:///tmp/tmp00z84nb5#output_directory&#45;&gt;file:///tmp/tmp00z84nb5#run_dragen_step -->
<g id="edge6" class="edge">
<title>file:///tmp/tmp00z84nb5#output_directory&#45;&gt;file:///tmp/tmp00z84nb5#run_dragen_step</title>
<path fill="none" stroke="#000000" d="M537.6944,-514.4031C529.2781,-489.4977 514.2993,-445.1726 504.5088,-416.2007"/>
<polygon fill="#000000" stroke="#000000" points="507.7987,-415.0034 501.2814,-406.6502 501.1671,-417.2445 507.7987,-415.0034"/>
</g>
<!-- file:///tmp/tmp00z84nb5#run_somalier_step -->
<g id="node12" class="node">
<title>file:///tmp/tmp00z84nb5#run_somalier_step</title>
<g id="a_node12"><a xlink:href="https://github.com/umccr/cwl-ica/blob/beta-release/.github/catalogue/docs/tools/somalier-extract/0.2.13/somalier-extract__0.2.13.md" xlink:title="Runs the somalier extract function to call the fingerprint on the germline bam file&#10;">
<polygon fill="#fafad2" stroke="#000000" points="647.5,-229.5625 647.5,-266.5625 850.5,-266.5625 850.5,-229.5625 647.5,-229.5625"/>
<text text-anchor="middle" x="749" y="-244.3625" font-family="Times,serif" font-size="14.00" fill="#000000">somalier&#45;extract v(0.2.13)</text>
</a>
</g>
</g>
<!-- file:///tmp/tmp00z84nb5#output_directory&#45;&gt;file:///tmp/tmp00z84nb5#run_somalier_step -->
<g id="edge7" class="edge">
<title>file:///tmp/tmp00z84nb5#output_directory&#45;&gt;file:///tmp/tmp00z84nb5#run_somalier_step</title>
<path fill="none" stroke="#000000" d="M557.7916,-514.3316C575.8509,-489.7687 608.4528,-445.3023 636,-407.0625 669.2919,-360.8481 707.6132,-306.7293 729.9857,-275.0395"/>
<polygon fill="#000000" stroke="#000000" points="732.9496,-276.9098 735.8556,-266.7213 727.2302,-272.8739 732.9496,-276.9098"/>
</g>
<!-- file:///tmp/tmp00z84nb5#sites_somalier -->
<g id="node2" class="node">
<title>file:///tmp/tmp00z84nb5#sites_somalier</title>
<g id="a_node2"><a xlink:title="gzipped vcf file. Required for somalier sites&#10;">
<polygon fill="#94ddf4" stroke="#000000" points="791.5,-514.5625 791.5,-551.5625 910.5,-551.5625 910.5,-514.5625 791.5,-514.5625"/>
<text text-anchor="middle" x="851" y="-529.3625" font-family="Times,serif" font-size="14.00" fill="#000000">sites_somalier</text>
</a>
</g>
</g>
<!-- file:///tmp/tmp00z84nb5#sites_somalier&#45;&gt;file:///tmp/tmp00z84nb5#run_somalier_step -->
<g id="edge8" class="edge">
<title>file:///tmp/tmp00z84nb5#sites_somalier&#45;&gt;file:///tmp/tmp00z84nb5#run_somalier_step</title>
<path fill="none" stroke="#000000" d="M844.3075,-514.3628C826.8725,-465.6475 779.9671,-334.5882 759.169,-276.4759"/>
<polygon fill="#000000" stroke="#000000" points="762.3822,-275.0668 755.7171,-266.831 755.7915,-277.4256 762.3822,-275.0668"/>
</g>
<!-- file:///tmp/tmp00z84nb5#output_file_prefix -->
<g id="node3" class="node">
<title>file:///tmp/tmp00z84nb5#output_file_prefix</title>
<g id="a_node3"><a xlink:title="The prefix given to all output files&#10;">
<polygon fill="#94ddf4" stroke="#000000" points="630.5,-514.5625 630.5,-551.5625 773.5,-551.5625 773.5,-514.5625 630.5,-514.5625"/>
<text text-anchor="middle" x="702" y="-529.3625" font-family="Times,serif" font-size="14.00" fill="#000000">output_file_prefix</text>
</a>
</g>
</g>
<!-- file:///tmp/tmp00z84nb5#output_file_prefix&#45;&gt;file:///tmp/tmp00z84nb5#run_dragen_step -->
<g id="edge9" class="edge">
<title>file:///tmp/tmp00z84nb5#output_file_prefix&#45;&gt;file:///tmp/tmp00z84nb5#run_dragen_step</title>
<path fill="none" stroke="#000000" d="M675.3621,-514.4031C638.2549,-488.4101 570.9503,-441.2644 529.8809,-412.4959"/>
<polygon fill="#000000" stroke="#000000" points="531.7342,-409.5209 521.5356,-406.6502 527.718,-415.2542 531.7342,-409.5209"/>
</g>
<!-- file:///tmp/tmp00z84nb5#output_file_prefix&#45;&gt;file:///tmp/tmp00z84nb5#run_somalier_step -->
<g id="edge10" class="edge">
<title>file:///tmp/tmp00z84nb5#output_file_prefix&#45;&gt;file:///tmp/tmp00z84nb5#run_somalier_step</title>
<path fill="none" stroke="#000000" d="M705.0838,-514.3628C713.1009,-465.7484 734.6414,-335.1306 744.2546,-276.8378"/>
<polygon fill="#000000" stroke="#000000" points="747.731,-277.2673 745.9048,-266.831 740.8243,-276.1282 747.731,-277.2673"/>
</g>
<!-- file:///tmp/tmp00z84nb5#reference_fasta -->
<g id="node4" class="node">
<title>file:///tmp/tmp00z84nb5#reference_fasta</title>
<g id="a_node4"><a xlink:title="FastA file with genome sequence&#10;">
<polygon fill="#94ddf4" stroke="#000000" points="929,-514.5625 929,-551.5625 1057,-551.5625 1057,-514.5625 929,-514.5625"/>
<text text-anchor="middle" x="993" y="-529.3625" font-family="Times,serif" font-size="14.00" fill="#000000">reference_fasta</text>
</a>
</g>
</g>
<!-- file:///tmp/tmp00z84nb5#reference_fasta&#45;&gt;file:///tmp/tmp00z84nb5#run_somalier_step -->
<g id="edge11" class="edge">
<title>file:///tmp/tmp00z84nb5#reference_fasta&#45;&gt;file:///tmp/tmp00z84nb5#run_somalier_step</title>
<path fill="none" stroke="#000000" d="M976.9905,-514.3628C934.8516,-465.1432 820.7475,-331.866 771.801,-274.6948"/>
<polygon fill="#000000" stroke="#000000" points="774.2307,-272.1511 765.0685,-266.831 768.9133,-276.7036 774.2307,-272.1511"/>
</g>
<!-- file:///tmp/tmp00z84nb5#reference_tar -->
<g id="node5" class="node">
<title>file:///tmp/tmp00z84nb5#reference_tar</title>
<g id="a_node5"><a xlink:title="Path to ref data tarball&#10;">
<polygon fill="#94ddf4" stroke="#000000" points="343,-514.5625 343,-551.5625 457,-551.5625 457,-514.5625 343,-514.5625"/>
<text text-anchor="middle" x="400" y="-529.3625" font-family="Times,serif" font-size="14.00" fill="#000000">reference_tar</text>
</a>
</g>
</g>
<!-- file:///tmp/tmp00z84nb5#reference_tar&#45;&gt;file:///tmp/tmp00z84nb5#run_dragen_step -->
<g id="edge12" class="edge">
<title>file:///tmp/tmp00z84nb5#reference_tar&#45;&gt;file:///tmp/tmp00z84nb5#run_dragen_step</title>
<path fill="none" stroke="#000000" d="M412.2251,-514.4031C428.7562,-489.1714 458.3461,-444.0079 477.3054,-415.07"/>
<polygon fill="#000000" stroke="#000000" points="480.2691,-416.933 482.8218,-406.6502 474.4139,-413.0968 480.2691,-416.933"/>
</g>
<!-- file:///tmp/tmp00z84nb5#fastq_list_rows -->
<g id="node6" class="node">
<title>file:///tmp/tmp00z84nb5#fastq_list_rows</title>
<g id="a_node6"><a xlink:title="The row of fastq lists.&#10;Each row has the following attributes:&#10; &#160;* RGID&#10; &#160;* RGLB&#10; &#160;* RGSM&#10; &#160;* Lane&#10; &#160;* Read1File&#10; &#160;* Read2File (optional)&#10;">
<polygon fill="#94ddf4" stroke="#000000" points="199.5,-514.5625 199.5,-551.5625 324.5,-551.5625 324.5,-514.5625 199.5,-514.5625"/>
<text text-anchor="middle" x="262" y="-529.3625" font-family="Times,serif" font-size="14.00" fill="#000000">fastq_list_rows</text>
</a>
</g>
</g>
<!-- file:///tmp/tmp00z84nb5#fastq_list_rows&#45;&gt;file:///tmp/tmp00z84nb5#run_dragen_step -->
<g id="edge13" class="edge">
<title>file:///tmp/tmp00z84nb5#fastq_list_rows&#45;&gt;file:///tmp/tmp00z84nb5#run_dragen_step</title>
<path fill="none" stroke="#000000" d="M287.6815,-514.5417C301.2844,-504.9074 318.3692,-493.0821 334,-483.0625 373.7101,-457.6077 420.2229,-430.4363 453.0156,-411.7016"/>
<polygon fill="#000000" stroke="#000000" points="454.9273,-414.6406 461.8839,-406.6496 451.4624,-408.5583 454.9273,-414.6406"/>
</g>
<!-- file:///tmp/tmp00z84nb5#somalier_output_directory -->
<g id="node7" class="node">
<title>file:///tmp/tmp00z84nb5#somalier_output_directory</title>
<g id="a_node7"><a xlink:title="Output directory from somalier step&#10;">
<polygon fill="#94ddf4" stroke="#000000" points="682,-90.5625 682,-127.5625 888,-127.5625 888,-90.5625 682,-90.5625"/>
<text text-anchor="middle" x="785" y="-105.3625" font-family="Times,serif" font-size="14.00" fill="#000000">somalier_output_directory</text>
</a>
</g>
</g>
<!-- file:///tmp/tmp00z84nb5#dragen_alignment_output_directory -->
<g id="node8" class="node">
<title>file:///tmp/tmp00z84nb5#dragen_alignment_output_directory</title>
<g id="a_node8"><a xlink:title="The output directory containing all alignment output files and qc metrics&#10;">
<polygon fill="#94ddf4" stroke="#000000" points="16.5,-90.5625 16.5,-127.5625 291.5,-127.5625 291.5,-90.5625 16.5,-90.5625"/>
<text text-anchor="middle" x="154" y="-105.3625" font-family="Times,serif" font-size="14.00" fill="#000000">dragen_alignment_output_directory</text>
</a>
</g>
</g>
<!-- file:///tmp/tmp00z84nb5#multiqc_output_directory -->
<g id="node9" class="node">
<title>file:///tmp/tmp00z84nb5#multiqc_output_directory</title>
<g id="a_node9"><a xlink:title="The dragen multiQC output&#10;">
<polygon fill="#94ddf4" stroke="#000000" points="310,-90.5625 310,-127.5625 510,-127.5625 510,-90.5625 310,-90.5625"/>
<text text-anchor="middle" x="410" y="-105.3625" font-family="Times,serif" font-size="14.00" fill="#000000">multiqc_output_directory</text>
</a>
</g>
</g>
<!-- file:///tmp/tmp00z84nb5#dragen_bam_out -->
<g id="node10" class="node">
<title>file:///tmp/tmp00z84nb5#dragen_bam_out</title>
<g id="a_node10"><a xlink:title="The output alignment file&#10;">
<polygon fill="#94ddf4" stroke="#000000" points="528,-90.5625 528,-127.5625 664,-127.5625 664,-90.5625 528,-90.5625"/>
<text text-anchor="middle" x="596" y="-105.3625" font-family="Times,serif" font-size="14.00" fill="#000000">dragen_bam_out</text>
</a>
</g>
</g>
<!-- file:///tmp/tmp00z84nb5#run_dragen_step&#45;&gt;file:///tmp/tmp00z84nb5#dragen_alignment_output_directory -->
<g id="edge2" class="edge">
<title>file:///tmp/tmp00z84nb5#run_dragen_step&#45;&gt;file:///tmp/tmp00z84nb5#dragen_alignment_output_directory</title>
<path fill="none" stroke="#000000" d="M472.362,-369.5405C412.8985,-320.8885 252.2187,-189.4232 184.6225,-134.1173"/>
<polygon fill="#000000" stroke="#000000" points="186.8095,-131.3844 176.8536,-127.7609 182.3769,-136.8022 186.8095,-131.3844"/>
</g>
<!-- file:///tmp/tmp00z84nb5#run_dragen_step&#45;&gt;file:///tmp/tmp00z84nb5#multiqc_output_directory -->
<g id="edge3" class="edge">
<title>file:///tmp/tmp00z84nb5#run_dragen_step&#45;&gt;file:///tmp/tmp00z84nb5#multiqc_output_directory</title>
<path fill="none" stroke="#000000" d="M489.2909,-369.3233C474.7136,-321.4752 436.0464,-194.5561 418.6703,-137.5216"/>
<polygon fill="#000000" stroke="#000000" points="421.9467,-136.266 415.6842,-127.7201 415.2506,-138.3061 421.9467,-136.266"/>
</g>
<!-- file:///tmp/tmp00z84nb5#run_dragen_step&#45;&gt;file:///tmp/tmp00z84nb5#dragen_bam_out -->
<g id="edge4" class="edge">
<title>file:///tmp/tmp00z84nb5#run_dragen_step&#45;&gt;file:///tmp/tmp00z84nb5#dragen_bam_out</title>
<path fill="none" stroke="#000000" d="M501.7837,-369.3233C519.141,-321.376 565.2415,-194.0291 585.8258,-137.1675"/>
<polygon fill="#000000" stroke="#000000" points="589.1328,-138.3144 589.2458,-127.7201 582.5508,-135.9316 589.1328,-138.3144"/>
</g>
<!-- file:///tmp/tmp00z84nb5#run_dragen_step&#45;&gt;file:///tmp/tmp00z84nb5#run_somalier_step -->
<g id="edge1" class="edge">
<title>file:///tmp/tmp00z84nb5#run_dragen_step&#45;&gt;file:///tmp/tmp00z84nb5#run_somalier_step</title>
<path fill="none" stroke="#000000" d="M528.7292,-369.4716C574.4637,-344.2636 656.1633,-299.2323 706.1771,-271.6656"/>
<polygon fill="#000000" stroke="#000000" points="708.063,-274.6227 715.1313,-266.7303 704.6839,-268.4922 708.063,-274.6227"/>
</g>
<!-- file:///tmp/tmp00z84nb5#run_somalier_step&#45;&gt;file:///tmp/tmp00z84nb5#somalier_output_directory -->
<g id="edge5" class="edge">
<title>file:///tmp/tmp00z84nb5#run_somalier_step&#45;&gt;file:///tmp/tmp00z84nb5#somalier_output_directory</title>
<path fill="none" stroke="#000000" d="M753.8551,-229.3163C759.9476,-205.7925 770.4578,-165.2116 777.5656,-137.7676"/>
<polygon fill="#000000" stroke="#000000" points="780.9878,-138.5137 780.1068,-127.9556 774.2113,-136.7586 780.9878,-138.5137"/>
</g>
</g>
</svg>
