<?xml version="1.0" encoding="utf-8" standalone="no"?>
<!DOCTYPE svg PUBLIC "-//W3C//DTD SVG 1.1//EN"
  "http://www.w3.org/Graphics/SVG/1.1/DTD/svg11.dtd">
<svg height="1440pt" version="1.1" viewBox="0 0 2880 1440" width="2880pt" xmlns="http://www.w3.org/2000/svg" xmlns:xlink="http://www.w3.org/1999/xlink">
 <metadata>
  <rdf:RDF xmlns:cc="http://creativecommons.org/ns#" xmlns:dc="http://purl.org/dc/elements/1.1/" xmlns:rdf="http://www.w3.org/1999/02/22-rdf-syntax-ns#">
   <cc:Work>
    <dc:type rdf:resource="http://purl.org/dc/dcmitype/StillImage"/>
    <dc:date>2021-10-12T08:53:30.222422</dc:date>
    <dc:format>image/svg+xml</dc:format>
    <dc:creator>
     <cc:Agent>
      <dc:title>Matplotlib v3.4.2, https://matplotlib.org/</dc:title>
     </cc:Agent>
    </dc:creator>
   </cc:Work>
  </rdf:RDF>
 </metadata>
 <defs>
  <style type="text/css">*{stroke-linecap:butt;stroke-linejoin:round;}</style>
 </defs>
 <g id="figure_1">
  <g id="patch_1">
   <path d="M 0 1440 
L 2880 1440 
L 2880 0 
L 0 0 
z
" style="fill:#ffffff;"/>
  </g>
  <g id="axes_1">
   <g id="patch_2">
    <path d="M 360 1281.6 
L 1374.545455 1281.6 
L 1374.545455 144 
L 360 144 
z
" style="fill:#ffffff;"/>
   </g>
   <g id="PolyCollection_1">
    <path clip-path="url(#p95c7a674bb)" d="M 360 1281.6 
L 360 1281.6 
L 371.235276 1281.6 
L 382.470553 1281.6 
L 393.705829 1281.6 
L 404.941105 1281.6 
L 416.176382 1281.6 
L 427.411658 1281.6 
L 438.646934 1281.6 
L 449.882211 1281.6 
L 461.117487 1281.6 
L 472.352764 1281.6 
L 483.58804 1281.6 
L 494.823316 1281.6 
L 506.058593 1281.6 
L 517.293869 1281.6 
L 528.529145 1281.6 
L 539.764422 1281.6 
L 550.999698 1281.6 
L 562.234974 1281.6 
L 573.470251 1281.6 
L 584.705527 1281.6 
L 595.940803 1281.6 
L 607.17608 1281.6 
L 618.411356 1281.6 
L 629.646632 1281.6 
L 640.881909 1281.6 
L 652.117185 1281.6 
L 663.352461 1281.6 
L 674.587738 1281.6 
L 685.823014 1281.6 
L 697.058291 1281.6 
L 708.293567 1281.6 
L 719.528843 1281.6 
L 730.76412 1281.6 
L 741.999396 1281.6 
L 753.234672 1281.6 
L 764.469949 1281.6 
L 775.705225 1281.6 
L 786.940501 1281.6 
L 798.175778 1281.6 
L 809.411054 1281.6 
L 820.64633 1281.6 
L 831.881607 1281.6 
L 843.116883 1281.6 
L 854.352159 1281.6 
L 865.587436 1281.6 
L 876.822712 1281.6 
L 888.057989 1281.6 
L 899.293265 1281.6 
L 910.528541 1281.6 
L 921.763818 1281.6 
L 932.999094 1281.6 
L 944.23437 1281.6 
L 955.469647 1281.6 
L 966.704923 1281.6 
L 977.940199 1281.6 
L 989.175476 1281.6 
L 1000.410752 1281.6 
L 1011.646028 1281.6 
L 1022.881305 1281.6 
L 1034.116581 1281.6 
L 1045.351857 1281.6 
L 1056.587134 1281.6 
L 1067.82241 1281.6 
L 1079.057686 1281.6 
L 1090.292963 1281.6 
L 1101.528239 1281.6 
L 1112.763516 1281.6 
L 1123.998792 1281.6 
L 1135.234068 1281.6 
L 1146.469345 1281.6 
L 1157.704621 1281.6 
L 1168.939897 1281.6 
L 1180.175174 1281.6 
L 1191.41045 1281.6 
L 1202.645726 1281.6 
L 1213.881003 1281.6 
L 1225.116279 1281.6 
L 1236.351555 1281.6 
L 1247.586832 1281.6 
L 1258.822108 1281.6 
L 1270.057384 1281.6 
L 1281.292661 1281.6 
L 1292.527937 1281.6 
L 1303.763214 1281.6 
L 1314.99849 1281.6 
L 1326.233766 1281.6 
L 1326.233766 1281.6 
L 1326.233766 1281.6 
L 1314.99849 1281.6 
L 1303.763214 1281.6 
L 1292.527937 1281.6 
L 1281.292661 1281.6 
L 1270.057384 1281.6 
L 1258.822108 1281.6 
L 1247.586832 1281.6 
L 1236.351555 1281.6 
L 1225.116279 1281.6 
L 1213.881003 1281.6 
L 1202.645726 1281.6 
L 1191.41045 1281.6 
L 1180.175174 1281.6 
L 1168.939897 1281.6 
L 1157.704621 1281.6 
L 1146.469345 1281.6 
L 1135.234068 1281.6 
L 1123.998792 1281.6 
L 1112.763516 1281.6 
L 1101.528239 1281.6 
L 1090.292963 233.120737 
L 1079.057686 233.120737 
L 1067.82241 233.120737 
L 1056.587134 233.120737 
L 1045.351857 233.120737 
L 1034.116581 233.120737 
L 1022.881305 233.120737 
L 1011.646028 233.120737 
L 1000.410752 233.120737 
L 989.175476 233.120737 
L 977.940199 233.120737 
L 966.704923 233.120737 
L 955.469647 233.120737 
L 944.23437 233.120737 
L 932.999094 233.120737 
L 921.763818 233.120737 
L 910.528541 233.120737 
L 899.293265 233.120737 
L 888.057989 233.120737 
L 876.822712 233.120737 
L 865.587436 233.120737 
L 854.352159 233.120737 
L 843.116883 233.120737 
L 831.881607 233.120737 
L 820.64633 233.120737 
L 809.411054 233.120737 
L 798.175778 233.120737 
L 786.940501 233.120737 
L 775.705225 233.120737 
L 764.469949 233.120737 
L 753.234672 233.120737 
L 741.999396 233.120737 
L 730.76412 233.120737 
L 719.528843 233.120737 
L 708.293567 233.120737 
L 697.058291 233.120737 
L 685.823014 233.120737 
L 674.587738 233.120737 
L 663.352461 233.120737 
L 652.117185 233.120737 
L 640.881909 233.120737 
L 629.646632 233.120737 
L 618.411356 233.120737 
L 607.17608 233.120737 
L 595.940803 233.120737 
L 584.705527 233.120737 
L 573.470251 233.120737 
L 562.234974 233.120737 
L 550.999698 233.120737 
L 539.764422 233.120737 
L 528.529145 233.120737 
L 517.293869 233.120737 
L 506.058593 233.120737 
L 494.823316 1281.6 
L 483.58804 1281.6 
L 472.352764 1281.6 
L 461.117487 1281.6 
L 449.882211 1281.6 
L 438.646934 1281.6 
L 427.411658 1281.6 
L 416.176382 1281.6 
L 404.941105 1281.6 
L 393.705829 1281.6 
L 382.470553 1281.6 
L 371.235276 1281.6 
L 360 1281.6 
z
" style="fill:#aec7e8;"/>
   </g>
   <g id="PolyCollection_2">
    <path clip-path="url(#p95c7a674bb)" d="M 360 1281.6 
L 360 1281.6 
L 371.235276 1281.6 
L 382.470553 1281.6 
L 393.705829 1281.6 
L 404.941105 1281.6 
L 416.176382 1281.6 
L 427.411658 1281.6 
L 438.646934 1281.6 
L 449.882211 1281.6 
L 461.117487 1281.6 
L 472.352764 1281.6 
L 483.58804 1281.6 
L 494.823316 1281.6 
L 506.058593 1281.6 
L 517.293869 1281.6 
L 528.529145 1281.6 
L 539.764422 1281.6 
L 550.999698 1281.6 
L 562.234974 1281.6 
L 573.470251 1281.6 
L 584.705527 1281.6 
L 595.940803 1281.6 
L 607.17608 1281.6 
L 618.411356 1281.6 
L 629.646632 1281.6 
L 640.881909 1281.6 
L 652.117185 1281.6 
L 663.352461 1281.6 
L 674.587738 1281.6 
L 685.823014 1281.6 
L 697.058291 1281.6 
L 708.293567 1281.6 
L 719.528843 1281.6 
L 730.76412 1281.6 
L 741.999396 1281.6 
L 753.234672 1281.6 
L 764.469949 1281.6 
L 775.705225 1281.6 
L 786.940501 1281.6 
L 798.175778 1281.6 
L 809.411054 1281.6 
L 820.64633 1281.6 
L 831.881607 1281.6 
L 843.116883 1281.6 
L 854.352159 1281.6 
L 865.587436 1281.6 
L 876.822712 1281.6 
L 888.057989 1281.6 
L 899.293265 1281.6 
L 910.528541 1281.6 
L 921.763818 1281.6 
L 932.999094 1281.6 
L 944.23437 1281.6 
L 955.469647 1281.6 
L 966.704923 1281.6 
L 977.940199 1281.6 
L 989.175476 1281.6 
L 1000.410752 1281.6 
L 1011.646028 1281.6 
L 1022.881305 1281.6 
L 1034.116581 1281.6 
L 1045.351857 1281.6 
L 1056.587134 1281.6 
L 1067.82241 1281.6 
L 1079.057686 1281.6 
L 1090.292963 1281.6 
L 1101.528239 1281.6 
L 1112.763516 1281.6 
L 1123.998792 1281.6 
L 1135.234068 1281.6 
L 1146.469345 1281.6 
L 1157.704621 1281.6 
L 1168.939897 1281.6 
L 1180.175174 1281.6 
L 1191.41045 1281.6 
L 1202.645726 1281.6 
L 1213.881003 1281.6 
L 1225.116279 1281.6 
L 1236.351555 1281.6 
L 1247.586832 1281.6 
L 1258.822108 1281.6 
L 1270.057384 1281.6 
L 1281.292661 1281.6 
L 1292.527937 1281.6 
L 1303.763214 1281.6 
L 1314.99849 1281.6 
L 1326.233766 1281.6 
L 1326.233766 1281.6 
L 1326.233766 1281.6 
L 1314.99849 1281.6 
L 1303.763214 1281.6 
L 1292.527937 1281.6 
L 1281.292661 1281.6 
L 1270.057384 1281.6 
L 1258.822108 1281.6 
L 1247.586832 1281.6 
L 1236.351555 1281.6 
L 1225.116279 1281.6 
L 1213.881003 1281.6 
L 1202.645726 1281.6 
L 1191.41045 1281.6 
L 1180.175174 1281.6 
L 1168.939897 1281.6 
L 1157.704621 1281.6 
L 1146.469345 1281.6 
L 1135.234068 1281.6 
L 1123.998792 1281.6 
L 1112.763516 1281.6 
L 1101.528239 1281.6 
L 1090.292963 1141.802765 
L 1079.057686 1141.802765 
L 1067.82241 198.171429 
L 1056.587134 586.108756 
L 1045.351857 586.108756 
L 1034.116581 379.907834 
L 1022.881305 282.04977 
L 1011.646028 282.04977 
L 1000.410752 282.04977 
L 989.175476 282.04977 
L 977.940199 310.009217 
L 966.704923 310.009217 
L 955.469647 303.019355 
L 944.23437 572.129032 
L 932.999094 750.370507 
L 921.763818 750.370507 
L 910.528541 750.370507 
L 899.293265 757.360369 
L 888.057989 753.865438 
L 876.822712 750.370507 
L 865.587436 750.370507 
L 854.352159 757.360369 
L 843.116883 750.370507 
L 831.881607 736.390783 
L 820.64633 729.400922 
L 809.411054 732.895853 
L 798.175778 732.895853 
L 786.940501 736.390783 
L 775.705225 736.390783 
L 764.469949 736.390783 
L 753.234672 736.390783 
L 741.999396 736.390783 
L 730.76412 729.400922 
L 719.528843 729.400922 
L 708.293567 876.188018 
L 697.058291 736.390783 
L 685.823014 736.390783 
L 674.587738 635.037788 
L 663.352461 635.037788 
L 652.117185 1043.9447 
L 640.881909 1047.439631 
L 629.646632 1047.439631 
L 618.411356 1057.924424 
L 607.17608 1043.9447 
L 595.940803 1043.9447 
L 584.705527 1015.985253 
L 573.470251 974.046083 
L 562.234974 974.046083 
L 550.999698 967.056221 
L 539.764422 974.046083 
L 528.529145 205.16129 
L 517.293869 816.774194 
L 506.058593 1197.721659 
L 494.823316 1281.6 
L 483.58804 1281.6 
L 472.352764 1281.6 
L 461.117487 1281.6 
L 449.882211 1281.6 
L 438.646934 1281.6 
L 427.411658 1281.6 
L 416.176382 1281.6 
L 404.941105 1281.6 
L 393.705829 1281.6 
L 382.470553 1281.6 
L 371.235276 1281.6 
L 360 1281.6 
z
" style="fill:url(#h25c2a0d019);fill-opacity:0.5;"/>
   </g>
   <g id="matplotlib.axis_1">
    <g id="xtick_1">
     <g id="line2d_1">
      <defs>
       <path d="M 0 0 
L 0 3.5 
" id="mfae7f28123" style="stroke:#000000;stroke-width:0.8;"/>
      </defs>
      <g>
       <use style="stroke:#000000;stroke-width:0.8;" x="360" xlink:href="#mfae7f28123" y="1281.6"/>
      </g>
     </g>
     <g id="text_1">
      <!-- 00:00 -->
      <g transform="translate(345.590625 1296.198437)scale(0.1 -0.1)">
       <defs>
        <path d="M 2034 4250 
Q 1547 4250 1301 3770 
Q 1056 3291 1056 2328 
Q 1056 1369 1301 889 
Q 1547 409 2034 409 
Q 2525 409 2770 889 
Q 3016 1369 3016 2328 
Q 3016 3291 2770 3770 
Q 2525 4250 2034 4250 
z
M 2034 4750 
Q 2819 4750 3233 4129 
Q 3647 3509 3647 2328 
Q 3647 1150 3233 529 
Q 2819 -91 2034 -91 
Q 1250 -91 836 529 
Q 422 1150 422 2328 
Q 422 3509 836 4129 
Q 1250 4750 2034 4750 
z
" id="DejaVuSans-30" transform="scale(0.015625)"/>
        <path d="M 750 794 
L 1409 794 
L 1409 0 
L 750 0 
L 750 794 
z
M 750 3309 
L 1409 3309 
L 1409 2516 
L 750 2516 
L 750 3309 
z
" id="DejaVuSans-3a" transform="scale(0.015625)"/>
       </defs>
       <use xlink:href="#DejaVuSans-30"/>
       <use x="63.623047" xlink:href="#DejaVuSans-30"/>
       <use x="127.246094" xlink:href="#DejaVuSans-3a"/>
       <use x="160.9375" xlink:href="#DejaVuSans-30"/>
       <use x="224.560547" xlink:href="#DejaVuSans-30"/>
      </g>
     </g>
    </g>
    <g id="xtick_2">
     <g id="line2d_2">
      <g>
       <use style="stroke:#000000;stroke-width:0.8;" x="547.254606" xlink:href="#mfae7f28123" y="1281.6"/>
      </g>
     </g>
     <g id="text_2">
      <!-- 00:16 -->
      <g transform="translate(532.845231 1296.198437)scale(0.1 -0.1)">
       <defs>
        <path d="M 794 531 
L 1825 531 
L 1825 4091 
L 703 3866 
L 703 4441 
L 1819 4666 
L 2450 4666 
L 2450 531 
L 3481 531 
L 3481 0 
L 794 0 
L 794 531 
z
" id="DejaVuSans-31" transform="scale(0.015625)"/>
        <path d="M 2113 2584 
Q 1688 2584 1439 2293 
Q 1191 2003 1191 1497 
Q 1191 994 1439 701 
Q 1688 409 2113 409 
Q 2538 409 2786 701 
Q 3034 994 3034 1497 
Q 3034 2003 2786 2293 
Q 2538 2584 2113 2584 
z
M 3366 4563 
L 3366 3988 
Q 3128 4100 2886 4159 
Q 2644 4219 2406 4219 
Q 1781 4219 1451 3797 
Q 1122 3375 1075 2522 
Q 1259 2794 1537 2939 
Q 1816 3084 2150 3084 
Q 2853 3084 3261 2657 
Q 3669 2231 3669 1497 
Q 3669 778 3244 343 
Q 2819 -91 2113 -91 
Q 1303 -91 875 529 
Q 447 1150 447 2328 
Q 447 3434 972 4092 
Q 1497 4750 2381 4750 
Q 2619 4750 2861 4703 
Q 3103 4656 3366 4563 
z
" id="DejaVuSans-36" transform="scale(0.015625)"/>
       </defs>
       <use xlink:href="#DejaVuSans-30"/>
       <use x="63.623047" xlink:href="#DejaVuSans-30"/>
       <use x="127.246094" xlink:href="#DejaVuSans-3a"/>
       <use x="160.9375" xlink:href="#DejaVuSans-31"/>
       <use x="224.560547" xlink:href="#DejaVuSans-36"/>
      </g>
     </g>
    </g>
    <g id="xtick_3">
     <g id="line2d_3">
      <g>
       <use style="stroke:#000000;stroke-width:0.8;" x="734.509212" xlink:href="#mfae7f28123" y="1281.6"/>
      </g>
     </g>
     <g id="text_3">
      <!-- 00:33 -->
      <g transform="translate(720.099837 1296.198437)scale(0.1 -0.1)">
       <defs>
        <path d="M 2597 2516 
Q 3050 2419 3304 2112 
Q 3559 1806 3559 1356 
Q 3559 666 3084 287 
Q 2609 -91 1734 -91 
Q 1441 -91 1130 -33 
Q 819 25 488 141 
L 488 750 
Q 750 597 1062 519 
Q 1375 441 1716 441 
Q 2309 441 2620 675 
Q 2931 909 2931 1356 
Q 2931 1769 2642 2001 
Q 2353 2234 1838 2234 
L 1294 2234 
L 1294 2753 
L 1863 2753 
Q 2328 2753 2575 2939 
Q 2822 3125 2822 3475 
Q 2822 3834 2567 4026 
Q 2313 4219 1838 4219 
Q 1578 4219 1281 4162 
Q 984 4106 628 3988 
L 628 4550 
Q 988 4650 1302 4700 
Q 1616 4750 1894 4750 
Q 2613 4750 3031 4423 
Q 3450 4097 3450 3541 
Q 3450 3153 3228 2886 
Q 3006 2619 2597 2516 
z
" id="DejaVuSans-33" transform="scale(0.015625)"/>
       </defs>
       <use xlink:href="#DejaVuSans-30"/>
       <use x="63.623047" xlink:href="#DejaVuSans-30"/>
       <use x="127.246094" xlink:href="#DejaVuSans-3a"/>
       <use x="160.9375" xlink:href="#DejaVuSans-33"/>
       <use x="224.560547" xlink:href="#DejaVuSans-33"/>
      </g>
     </g>
    </g>
    <g id="xtick_4">
     <g id="line2d_4">
      <g>
       <use style="stroke:#000000;stroke-width:0.8;" x="921.763818" xlink:href="#mfae7f28123" y="1281.6"/>
      </g>
     </g>
     <g id="text_4">
      <!-- 00:50 -->
      <g transform="translate(907.354443 1296.198437)scale(0.1 -0.1)">
       <defs>
        <path d="M 691 4666 
L 3169 4666 
L 3169 4134 
L 1269 4134 
L 1269 2991 
Q 1406 3038 1543 3061 
Q 1681 3084 1819 3084 
Q 2600 3084 3056 2656 
Q 3513 2228 3513 1497 
Q 3513 744 3044 326 
Q 2575 -91 1722 -91 
Q 1428 -91 1123 -41 
Q 819 9 494 109 
L 494 744 
Q 775 591 1075 516 
Q 1375 441 1709 441 
Q 2250 441 2565 725 
Q 2881 1009 2881 1497 
Q 2881 1984 2565 2268 
Q 2250 2553 1709 2553 
Q 1456 2553 1204 2497 
Q 953 2441 691 2322 
L 691 4666 
z
" id="DejaVuSans-35" transform="scale(0.015625)"/>
       </defs>
       <use xlink:href="#DejaVuSans-30"/>
       <use x="63.623047" xlink:href="#DejaVuSans-30"/>
       <use x="127.246094" xlink:href="#DejaVuSans-3a"/>
       <use x="160.9375" xlink:href="#DejaVuSans-35"/>
       <use x="224.560547" xlink:href="#DejaVuSans-30"/>
      </g>
     </g>
    </g>
    <g id="xtick_5">
     <g id="line2d_5">
      <g>
       <use style="stroke:#000000;stroke-width:0.8;" x="1109.018423" xlink:href="#mfae7f28123" y="1281.6"/>
      </g>
     </g>
     <g id="text_5">
      <!-- 01:06 -->
      <g transform="translate(1094.609048 1296.198437)scale(0.1 -0.1)">
       <use xlink:href="#DejaVuSans-30"/>
       <use x="63.623047" xlink:href="#DejaVuSans-31"/>
       <use x="127.246094" xlink:href="#DejaVuSans-3a"/>
       <use x="160.9375" xlink:href="#DejaVuSans-30"/>
       <use x="224.560547" xlink:href="#DejaVuSans-36"/>
      </g>
     </g>
    </g>
    <g id="xtick_6">
     <g id="line2d_6">
      <g>
       <use style="stroke:#000000;stroke-width:0.8;" x="1296.273029" xlink:href="#mfae7f28123" y="1281.6"/>
      </g>
     </g>
     <g id="text_6">
      <!-- 01:23 -->
      <g transform="translate(1281.863654 1296.198437)scale(0.1 -0.1)">
       <defs>
        <path d="M 1228 531 
L 3431 531 
L 3431 0 
L 469 0 
L 469 531 
Q 828 903 1448 1529 
Q 2069 2156 2228 2338 
Q 2531 2678 2651 2914 
Q 2772 3150 2772 3378 
Q 2772 3750 2511 3984 
Q 2250 4219 1831 4219 
Q 1534 4219 1204 4116 
Q 875 4013 500 3803 
L 500 4441 
Q 881 4594 1212 4672 
Q 1544 4750 1819 4750 
Q 2544 4750 2975 4387 
Q 3406 4025 3406 3419 
Q 3406 3131 3298 2873 
Q 3191 2616 2906 2266 
Q 2828 2175 2409 1742 
Q 1991 1309 1228 531 
z
" id="DejaVuSans-32" transform="scale(0.015625)"/>
       </defs>
       <use xlink:href="#DejaVuSans-30"/>
       <use x="63.623047" xlink:href="#DejaVuSans-31"/>
       <use x="127.246094" xlink:href="#DejaVuSans-3a"/>
       <use x="160.9375" xlink:href="#DejaVuSans-32"/>
       <use x="224.560547" xlink:href="#DejaVuSans-33"/>
      </g>
     </g>
    </g>
    <g id="text_7">
     <!-- Time (HH:MM) -->
     <g transform="translate(831.715696 1309.876563)scale(0.1 -0.1)">
      <defs>
       <path d="M -19 4666 
L 3928 4666 
L 3928 4134 
L 2272 4134 
L 2272 0 
L 1638 0 
L 1638 4134 
L -19 4134 
L -19 4666 
z
" id="DejaVuSans-54" transform="scale(0.015625)"/>
       <path d="M 603 3500 
L 1178 3500 
L 1178 0 
L 603 0 
L 603 3500 
z
M 603 4863 
L 1178 4863 
L 1178 4134 
L 603 4134 
L 603 4863 
z
" id="DejaVuSans-69" transform="scale(0.015625)"/>
       <path d="M 3328 2828 
Q 3544 3216 3844 3400 
Q 4144 3584 4550 3584 
Q 5097 3584 5394 3201 
Q 5691 2819 5691 2113 
L 5691 0 
L 5113 0 
L 5113 2094 
Q 5113 2597 4934 2840 
Q 4756 3084 4391 3084 
Q 3944 3084 3684 2787 
Q 3425 2491 3425 1978 
L 3425 0 
L 2847 0 
L 2847 2094 
Q 2847 2600 2669 2842 
Q 2491 3084 2119 3084 
Q 1678 3084 1418 2786 
Q 1159 2488 1159 1978 
L 1159 0 
L 581 0 
L 581 3500 
L 1159 3500 
L 1159 2956 
Q 1356 3278 1631 3431 
Q 1906 3584 2284 3584 
Q 2666 3584 2933 3390 
Q 3200 3197 3328 2828 
z
" id="DejaVuSans-6d" transform="scale(0.015625)"/>
       <path d="M 3597 1894 
L 3597 1613 
L 953 1613 
Q 991 1019 1311 708 
Q 1631 397 2203 397 
Q 2534 397 2845 478 
Q 3156 559 3463 722 
L 3463 178 
Q 3153 47 2828 -22 
Q 2503 -91 2169 -91 
Q 1331 -91 842 396 
Q 353 884 353 1716 
Q 353 2575 817 3079 
Q 1281 3584 2069 3584 
Q 2775 3584 3186 3129 
Q 3597 2675 3597 1894 
z
M 3022 2063 
Q 3016 2534 2758 2815 
Q 2500 3097 2075 3097 
Q 1594 3097 1305 2825 
Q 1016 2553 972 2059 
L 3022 2063 
z
" id="DejaVuSans-65" transform="scale(0.015625)"/>
       <path id="DejaVuSans-20" transform="scale(0.015625)"/>
       <path d="M 1984 4856 
Q 1566 4138 1362 3434 
Q 1159 2731 1159 2009 
Q 1159 1288 1364 580 
Q 1569 -128 1984 -844 
L 1484 -844 
Q 1016 -109 783 600 
Q 550 1309 550 2009 
Q 550 2706 781 3412 
Q 1013 4119 1484 4856 
L 1984 4856 
z
" id="DejaVuSans-28" transform="scale(0.015625)"/>
       <path d="M 628 4666 
L 1259 4666 
L 1259 2753 
L 3553 2753 
L 3553 4666 
L 4184 4666 
L 4184 0 
L 3553 0 
L 3553 2222 
L 1259 2222 
L 1259 0 
L 628 0 
L 628 4666 
z
" id="DejaVuSans-48" transform="scale(0.015625)"/>
       <path d="M 628 4666 
L 1569 4666 
L 2759 1491 
L 3956 4666 
L 4897 4666 
L 4897 0 
L 4281 0 
L 4281 4097 
L 3078 897 
L 2444 897 
L 1241 4097 
L 1241 0 
L 628 0 
L 628 4666 
z
" id="DejaVuSans-4d" transform="scale(0.015625)"/>
       <path d="M 513 4856 
L 1013 4856 
Q 1481 4119 1714 3412 
Q 1947 2706 1947 2009 
Q 1947 1309 1714 600 
Q 1481 -109 1013 -844 
L 513 -844 
Q 928 -128 1133 580 
Q 1338 1288 1338 2009 
Q 1338 2731 1133 3434 
Q 928 4138 513 4856 
z
" id="DejaVuSans-29" transform="scale(0.015625)"/>
      </defs>
      <use xlink:href="#DejaVuSans-54"/>
      <use x="57.958984" xlink:href="#DejaVuSans-69"/>
      <use x="85.742188" xlink:href="#DejaVuSans-6d"/>
      <use x="183.154297" xlink:href="#DejaVuSans-65"/>
      <use x="244.677734" xlink:href="#DejaVuSans-20"/>
      <use x="276.464844" xlink:href="#DejaVuSans-28"/>
      <use x="315.478516" xlink:href="#DejaVuSans-48"/>
      <use x="390.673828" xlink:href="#DejaVuSans-48"/>
      <use x="465.869141" xlink:href="#DejaVuSans-3a"/>
      <use x="499.560547" xlink:href="#DejaVuSans-4d"/>
      <use x="585.839844" xlink:href="#DejaVuSans-4d"/>
      <use x="672.119141" xlink:href="#DejaVuSans-29"/>
     </g>
    </g>
   </g>
   <g id="matplotlib.axis_2">
    <g id="ytick_1">
     <g id="line2d_7">
      <defs>
       <path d="M 0 0 
L -3.5 0 
" id="m234f92cc9e" style="stroke:#000000;stroke-width:0.8;"/>
      </defs>
      <g>
       <use style="stroke:#000000;stroke-width:0.8;" x="360" xlink:href="#m234f92cc9e" y="1281.6"/>
      </g>
     </g>
     <g id="text_8">
      <!-- 0 -->
      <g transform="translate(346.6375 1285.399219)scale(0.1 -0.1)">
       <use xlink:href="#DejaVuSans-30"/>
      </g>
     </g>
    </g>
    <g id="ytick_2">
     <g id="line2d_8">
      <g>
       <use style="stroke:#000000;stroke-width:0.8;" x="360" xlink:href="#m234f92cc9e" y="1141.802765"/>
      </g>
     </g>
     <g id="text_9">
      <!-- 2 -->
      <g transform="translate(346.6375 1145.601984)scale(0.1 -0.1)">
       <use xlink:href="#DejaVuSans-32"/>
      </g>
     </g>
    </g>
    <g id="ytick_3">
     <g id="line2d_9">
      <g>
       <use style="stroke:#000000;stroke-width:0.8;" x="360" xlink:href="#m234f92cc9e" y="1002.00553"/>
      </g>
     </g>
     <g id="text_10">
      <!-- 4 -->
      <g transform="translate(346.6375 1005.804749)scale(0.1 -0.1)">
       <defs>
        <path d="M 2419 4116 
L 825 1625 
L 2419 1625 
L 2419 4116 
z
M 2253 4666 
L 3047 4666 
L 3047 1625 
L 3713 1625 
L 3713 1100 
L 3047 1100 
L 3047 0 
L 2419 0 
L 2419 1100 
L 313 1100 
L 313 1709 
L 2253 4666 
z
" id="DejaVuSans-34" transform="scale(0.015625)"/>
       </defs>
       <use xlink:href="#DejaVuSans-34"/>
      </g>
     </g>
    </g>
    <g id="ytick_4">
     <g id="line2d_10">
      <g>
       <use style="stroke:#000000;stroke-width:0.8;" x="360" xlink:href="#m234f92cc9e" y="862.208295"/>
      </g>
     </g>
     <g id="text_11">
      <!-- 6 -->
      <g transform="translate(346.6375 866.007514)scale(0.1 -0.1)">
       <use xlink:href="#DejaVuSans-36"/>
      </g>
     </g>
    </g>
    <g id="ytick_5">
     <g id="line2d_11">
      <g>
       <use style="stroke:#000000;stroke-width:0.8;" x="360" xlink:href="#m234f92cc9e" y="722.41106"/>
      </g>
     </g>
     <g id="text_12">
      <!-- 8 -->
      <g transform="translate(346.6375 726.210279)scale(0.1 -0.1)">
       <defs>
        <path d="M 2034 2216 
Q 1584 2216 1326 1975 
Q 1069 1734 1069 1313 
Q 1069 891 1326 650 
Q 1584 409 2034 409 
Q 2484 409 2743 651 
Q 3003 894 3003 1313 
Q 3003 1734 2745 1975 
Q 2488 2216 2034 2216 
z
M 1403 2484 
Q 997 2584 770 2862 
Q 544 3141 544 3541 
Q 544 4100 942 4425 
Q 1341 4750 2034 4750 
Q 2731 4750 3128 4425 
Q 3525 4100 3525 3541 
Q 3525 3141 3298 2862 
Q 3072 2584 2669 2484 
Q 3125 2378 3379 2068 
Q 3634 1759 3634 1313 
Q 3634 634 3220 271 
Q 2806 -91 2034 -91 
Q 1263 -91 848 271 
Q 434 634 434 1313 
Q 434 1759 690 2068 
Q 947 2378 1403 2484 
z
M 1172 3481 
Q 1172 3119 1398 2916 
Q 1625 2713 2034 2713 
Q 2441 2713 2670 2916 
Q 2900 3119 2900 3481 
Q 2900 3844 2670 4047 
Q 2441 4250 2034 4250 
Q 1625 4250 1398 4047 
Q 1172 3844 1172 3481 
z
" id="DejaVuSans-38" transform="scale(0.015625)"/>
       </defs>
       <use xlink:href="#DejaVuSans-38"/>
      </g>
     </g>
    </g>
    <g id="ytick_6">
     <g id="line2d_12">
      <g>
       <use style="stroke:#000000;stroke-width:0.8;" x="360" xlink:href="#m234f92cc9e" y="582.613825"/>
      </g>
     </g>
     <g id="text_13">
      <!-- 10 -->
      <g transform="translate(340.275 586.413044)scale(0.1 -0.1)">
       <use xlink:href="#DejaVuSans-31"/>
       <use x="63.623047" xlink:href="#DejaVuSans-30"/>
      </g>
     </g>
    </g>
    <g id="ytick_7">
     <g id="line2d_13">
      <g>
       <use style="stroke:#000000;stroke-width:0.8;" x="360" xlink:href="#m234f92cc9e" y="442.81659"/>
      </g>
     </g>
     <g id="text_14">
      <!-- 12 -->
      <g transform="translate(340.275 446.615809)scale(0.1 -0.1)">
       <use xlink:href="#DejaVuSans-31"/>
       <use x="63.623047" xlink:href="#DejaVuSans-32"/>
      </g>
     </g>
    </g>
    <g id="ytick_8">
     <g id="line2d_14">
      <g>
       <use style="stroke:#000000;stroke-width:0.8;" x="360" xlink:href="#m234f92cc9e" y="303.019355"/>
      </g>
     </g>
     <g id="text_15">
      <!-- 14 -->
      <g transform="translate(340.275 306.818574)scale(0.1 -0.1)">
       <use xlink:href="#DejaVuSans-31"/>
       <use x="63.623047" xlink:href="#DejaVuSans-34"/>
      </g>
     </g>
    </g>
    <g id="ytick_9">
     <g id="line2d_15">
      <g>
       <use style="stroke:#000000;stroke-width:0.8;" x="360" xlink:href="#m234f92cc9e" y="163.22212"/>
      </g>
     </g>
     <g id="text_16">
      <!-- 16 -->
      <g transform="translate(340.275 167.021339)scale(0.1 -0.1)">
       <use xlink:href="#DejaVuSans-31"/>
       <use x="63.623047" xlink:href="#DejaVuSans-36"/>
      </g>
     </g>
    </g>
    <g id="text_17">
     <!-- CPUs -->
     <g transform="translate(334.195312 725.570313)rotate(-90)scale(0.1 -0.1)">
      <defs>
       <path d="M 4122 4306 
L 4122 3641 
Q 3803 3938 3442 4084 
Q 3081 4231 2675 4231 
Q 1875 4231 1450 3742 
Q 1025 3253 1025 2328 
Q 1025 1406 1450 917 
Q 1875 428 2675 428 
Q 3081 428 3442 575 
Q 3803 722 4122 1019 
L 4122 359 
Q 3791 134 3420 21 
Q 3050 -91 2638 -91 
Q 1578 -91 968 557 
Q 359 1206 359 2328 
Q 359 3453 968 4101 
Q 1578 4750 2638 4750 
Q 3056 4750 3426 4639 
Q 3797 4528 4122 4306 
z
" id="DejaVuSans-43" transform="scale(0.015625)"/>
       <path d="M 1259 4147 
L 1259 2394 
L 2053 2394 
Q 2494 2394 2734 2622 
Q 2975 2850 2975 3272 
Q 2975 3691 2734 3919 
Q 2494 4147 2053 4147 
L 1259 4147 
z
M 628 4666 
L 2053 4666 
Q 2838 4666 3239 4311 
Q 3641 3956 3641 3272 
Q 3641 2581 3239 2228 
Q 2838 1875 2053 1875 
L 1259 1875 
L 1259 0 
L 628 0 
L 628 4666 
z
" id="DejaVuSans-50" transform="scale(0.015625)"/>
       <path d="M 556 4666 
L 1191 4666 
L 1191 1831 
Q 1191 1081 1462 751 
Q 1734 422 2344 422 
Q 2950 422 3222 751 
Q 3494 1081 3494 1831 
L 3494 4666 
L 4128 4666 
L 4128 1753 
Q 4128 841 3676 375 
Q 3225 -91 2344 -91 
Q 1459 -91 1007 375 
Q 556 841 556 1753 
L 556 4666 
z
" id="DejaVuSans-55" transform="scale(0.015625)"/>
       <path d="M 2834 3397 
L 2834 2853 
Q 2591 2978 2328 3040 
Q 2066 3103 1784 3103 
Q 1356 3103 1142 2972 
Q 928 2841 928 2578 
Q 928 2378 1081 2264 
Q 1234 2150 1697 2047 
L 1894 2003 
Q 2506 1872 2764 1633 
Q 3022 1394 3022 966 
Q 3022 478 2636 193 
Q 2250 -91 1575 -91 
Q 1294 -91 989 -36 
Q 684 19 347 128 
L 347 722 
Q 666 556 975 473 
Q 1284 391 1588 391 
Q 1994 391 2212 530 
Q 2431 669 2431 922 
Q 2431 1156 2273 1281 
Q 2116 1406 1581 1522 
L 1381 1569 
Q 847 1681 609 1914 
Q 372 2147 372 2553 
Q 372 3047 722 3315 
Q 1072 3584 1716 3584 
Q 2034 3584 2315 3537 
Q 2597 3491 2834 3397 
z
" id="DejaVuSans-73" transform="scale(0.015625)"/>
      </defs>
      <use xlink:href="#DejaVuSans-43"/>
      <use x="69.824219" xlink:href="#DejaVuSans-50"/>
      <use x="130.126953" xlink:href="#DejaVuSans-55"/>
      <use x="203.320312" xlink:href="#DejaVuSans-73"/>
     </g>
    </g>
   </g>
   <g id="patch_3">
    <path d="M 360 1281.6 
L 360 144 
" style="fill:none;stroke:#000000;stroke-linecap:square;stroke-linejoin:miter;stroke-width:0.8;"/>
   </g>
   <g id="patch_4">
    <path d="M 1374.545455 1281.6 
L 1374.545455 144 
" style="fill:none;stroke:#000000;stroke-linecap:square;stroke-linejoin:miter;stroke-width:0.8;"/>
   </g>
   <g id="patch_5">
    <path d="M 360 1281.6 
L 1374.545455 1281.6 
" style="fill:none;stroke:#000000;stroke-linecap:square;stroke-linejoin:miter;stroke-width:0.8;"/>
   </g>
   <g id="patch_6">
    <path d="M 360 144 
L 1374.545455 144 
" style="fill:none;stroke:#000000;stroke-linecap:square;stroke-linejoin:miter;stroke-width:0.8;"/>
   </g>
   <g id="text_18">
    <!-- CPU Resources Over Time -->
    <g transform="translate(789.60179 138)scale(0.12 -0.12)">
     <defs>
      <path d="M 2841 2188 
Q 3044 2119 3236 1894 
Q 3428 1669 3622 1275 
L 4263 0 
L 3584 0 
L 2988 1197 
Q 2756 1666 2539 1819 
Q 2322 1972 1947 1972 
L 1259 1972 
L 1259 0 
L 628 0 
L 628 4666 
L 2053 4666 
Q 2853 4666 3247 4331 
Q 3641 3997 3641 3322 
Q 3641 2881 3436 2590 
Q 3231 2300 2841 2188 
z
M 1259 4147 
L 1259 2491 
L 2053 2491 
Q 2509 2491 2742 2702 
Q 2975 2913 2975 3322 
Q 2975 3731 2742 3939 
Q 2509 4147 2053 4147 
L 1259 4147 
z
" id="DejaVuSans-52" transform="scale(0.015625)"/>
      <path d="M 1959 3097 
Q 1497 3097 1228 2736 
Q 959 2375 959 1747 
Q 959 1119 1226 758 
Q 1494 397 1959 397 
Q 2419 397 2687 759 
Q 2956 1122 2956 1747 
Q 2956 2369 2687 2733 
Q 2419 3097 1959 3097 
z
M 1959 3584 
Q 2709 3584 3137 3096 
Q 3566 2609 3566 1747 
Q 3566 888 3137 398 
Q 2709 -91 1959 -91 
Q 1206 -91 779 398 
Q 353 888 353 1747 
Q 353 2609 779 3096 
Q 1206 3584 1959 3584 
z
" id="DejaVuSans-6f" transform="scale(0.015625)"/>
      <path d="M 544 1381 
L 544 3500 
L 1119 3500 
L 1119 1403 
Q 1119 906 1312 657 
Q 1506 409 1894 409 
Q 2359 409 2629 706 
Q 2900 1003 2900 1516 
L 2900 3500 
L 3475 3500 
L 3475 0 
L 2900 0 
L 2900 538 
Q 2691 219 2414 64 
Q 2138 -91 1772 -91 
Q 1169 -91 856 284 
Q 544 659 544 1381 
z
M 1991 3584 
L 1991 3584 
z
" id="DejaVuSans-75" transform="scale(0.015625)"/>
      <path d="M 2631 2963 
Q 2534 3019 2420 3045 
Q 2306 3072 2169 3072 
Q 1681 3072 1420 2755 
Q 1159 2438 1159 1844 
L 1159 0 
L 581 0 
L 581 3500 
L 1159 3500 
L 1159 2956 
Q 1341 3275 1631 3429 
Q 1922 3584 2338 3584 
Q 2397 3584 2469 3576 
Q 2541 3569 2628 3553 
L 2631 2963 
z
" id="DejaVuSans-72" transform="scale(0.015625)"/>
      <path d="M 3122 3366 
L 3122 2828 
Q 2878 2963 2633 3030 
Q 2388 3097 2138 3097 
Q 1578 3097 1268 2742 
Q 959 2388 959 1747 
Q 959 1106 1268 751 
Q 1578 397 2138 397 
Q 2388 397 2633 464 
Q 2878 531 3122 666 
L 3122 134 
Q 2881 22 2623 -34 
Q 2366 -91 2075 -91 
Q 1284 -91 818 406 
Q 353 903 353 1747 
Q 353 2603 823 3093 
Q 1294 3584 2113 3584 
Q 2378 3584 2631 3529 
Q 2884 3475 3122 3366 
z
" id="DejaVuSans-63" transform="scale(0.015625)"/>
      <path d="M 2522 4238 
Q 1834 4238 1429 3725 
Q 1025 3213 1025 2328 
Q 1025 1447 1429 934 
Q 1834 422 2522 422 
Q 3209 422 3611 934 
Q 4013 1447 4013 2328 
Q 4013 3213 3611 3725 
Q 3209 4238 2522 4238 
z
M 2522 4750 
Q 3503 4750 4090 4092 
Q 4678 3434 4678 2328 
Q 4678 1225 4090 567 
Q 3503 -91 2522 -91 
Q 1538 -91 948 565 
Q 359 1222 359 2328 
Q 359 3434 948 4092 
Q 1538 4750 2522 4750 
z
" id="DejaVuSans-4f" transform="scale(0.015625)"/>
      <path d="M 191 3500 
L 800 3500 
L 1894 563 
L 2988 3500 
L 3597 3500 
L 2284 0 
L 1503 0 
L 191 3500 
z
" id="DejaVuSans-76" transform="scale(0.015625)"/>
     </defs>
     <use xlink:href="#DejaVuSans-43"/>
     <use x="69.824219" xlink:href="#DejaVuSans-50"/>
     <use x="130.126953" xlink:href="#DejaVuSans-55"/>
     <use x="203.320312" xlink:href="#DejaVuSans-20"/>
     <use x="235.107422" xlink:href="#DejaVuSans-52"/>
     <use x="300.089844" xlink:href="#DejaVuSans-65"/>
     <use x="361.613281" xlink:href="#DejaVuSans-73"/>
     <use x="413.712891" xlink:href="#DejaVuSans-6f"/>
     <use x="474.894531" xlink:href="#DejaVuSans-75"/>
     <use x="538.273438" xlink:href="#DejaVuSans-72"/>
     <use x="577.136719" xlink:href="#DejaVuSans-63"/>
     <use x="632.117188" xlink:href="#DejaVuSans-65"/>
     <use x="693.640625" xlink:href="#DejaVuSans-73"/>
     <use x="745.740234" xlink:href="#DejaVuSans-20"/>
     <use x="777.527344" xlink:href="#DejaVuSans-4f"/>
     <use x="856.238281" xlink:href="#DejaVuSans-76"/>
     <use x="915.417969" xlink:href="#DejaVuSans-65"/>
     <use x="976.941406" xlink:href="#DejaVuSans-72"/>
     <use x="1018.054688" xlink:href="#DejaVuSans-20"/>
     <use x="1049.841797" xlink:href="#DejaVuSans-54"/>
     <use x="1107.800781" xlink:href="#DejaVuSans-69"/>
     <use x="1135.583984" xlink:href="#DejaVuSans-6d"/>
     <use x="1232.996094" xlink:href="#DejaVuSans-65"/>
    </g>
   </g>
   <g id="legend_1">
    <g id="patch_7">
     <path d="M 1310.56108 166.678125 
L 1367.545455 166.678125 
Q 1369.545455 166.678125 1369.545455 164.678125 
L 1369.545455 151 
Q 1369.545455 149 1367.545455 149 
L 1310.56108 149 
Q 1308.56108 149 1308.56108 151 
L 1308.56108 164.678125 
Q 1308.56108 166.678125 1310.56108 166.678125 
z
" style="fill:#ffffff;opacity:0.8;stroke:#cccccc;stroke-linejoin:miter;"/>
    </g>
    <g id="patch_8">
     <path d="M 1312.56108 160.598437 
L 1332.56108 160.598437 
L 1332.56108 153.598437 
L 1312.56108 153.598437 
z
" style="fill:#aec7e8;"/>
    </g>
    <g id="text_19">
     <!-- main -->
     <g transform="translate(1340.56108 160.598437)scale(0.1 -0.1)">
      <defs>
       <path d="M 2194 1759 
Q 1497 1759 1228 1600 
Q 959 1441 959 1056 
Q 959 750 1161 570 
Q 1363 391 1709 391 
Q 2188 391 2477 730 
Q 2766 1069 2766 1631 
L 2766 1759 
L 2194 1759 
z
M 3341 1997 
L 3341 0 
L 2766 0 
L 2766 531 
Q 2569 213 2275 61 
Q 1981 -91 1556 -91 
Q 1019 -91 701 211 
Q 384 513 384 1019 
Q 384 1609 779 1909 
Q 1175 2209 1959 2209 
L 2766 2209 
L 2766 2266 
Q 2766 2663 2505 2880 
Q 2244 3097 1772 3097 
Q 1472 3097 1187 3025 
Q 903 2953 641 2809 
L 641 3341 
Q 956 3463 1253 3523 
Q 1550 3584 1831 3584 
Q 2591 3584 2966 3190 
Q 3341 2797 3341 1997 
z
" id="DejaVuSans-61" transform="scale(0.015625)"/>
       <path d="M 3513 2113 
L 3513 0 
L 2938 0 
L 2938 2094 
Q 2938 2591 2744 2837 
Q 2550 3084 2163 3084 
Q 1697 3084 1428 2787 
Q 1159 2491 1159 1978 
L 1159 0 
L 581 0 
L 581 3500 
L 1159 3500 
L 1159 2956 
Q 1366 3272 1645 3428 
Q 1925 3584 2291 3584 
Q 2894 3584 3203 3211 
Q 3513 2838 3513 2113 
z
" id="DejaVuSans-6e" transform="scale(0.015625)"/>
      </defs>
      <use xlink:href="#DejaVuSans-6d"/>
      <use x="97.412109" xlink:href="#DejaVuSans-61"/>
      <use x="158.691406" xlink:href="#DejaVuSans-69"/>
      <use x="186.474609" xlink:href="#DejaVuSans-6e"/>
     </g>
    </g>
   </g>
  </g>
  <g id="axes_2">
   <g id="patch_9">
    <path d="M 1577.454545 1281.6 
L 2592 1281.6 
L 2592 144 
L 1577.454545 144 
z
" style="fill:#ffffff;"/>
   </g>
   <g id="PolyCollection_3">
    <path clip-path="url(#pd895958378)" d="M 1577.454545 1281.6 
L 1577.454545 1281.6 
L 1588.689822 1281.6 
L 1599.925098 1281.6 
L 1611.160375 1281.6 
L 1622.395651 1281.6 
L 1633.630927 1281.6 
L 1644.866204 1281.6 
L 1656.10148 1281.6 
L 1667.336756 1281.6 
L 1678.572033 1281.6 
L 1689.807309 1281.6 
L 1701.042585 1281.6 
L 1712.277862 1281.6 
L 1723.513138 1281.6 
L 1734.748414 1281.6 
L 1745.983691 1281.6 
L 1757.218967 1281.6 
L 1768.454243 1281.6 
L 1779.68952 1281.6 
L 1790.924796 1281.6 
L 1802.160072 1281.6 
L 1813.395349 1281.6 
L 1824.630625 1281.6 
L 1835.865902 1281.6 
L 1847.101178 1281.6 
L 1858.336454 1281.6 
L 1869.571731 1281.6 
L 1880.807007 1281.6 
L 1892.042283 1281.6 
L 1903.27756 1281.6 
L 1914.512836 1281.6 
L 1925.748112 1281.6 
L 1936.983389 1281.6 
L 1948.218665 1281.6 
L 1959.453941 1281.6 
L 1970.689218 1281.6 
L 1981.924494 1281.6 
L 1993.15977 1281.6 
L 2004.395047 1281.6 
L 2015.630323 1281.6 
L 2026.8656 1281.6 
L 2038.100876 1281.6 
L 2049.336152 1281.6 
L 2060.571429 1281.6 
L 2071.806705 1281.6 
L 2083.041981 1281.6 
L 2094.277258 1281.6 
L 2105.512534 1281.6 
L 2116.74781 1281.6 
L 2127.983087 1281.6 
L 2139.218363 1281.6 
L 2150.453639 1281.6 
L 2161.688916 1281.6 
L 2172.924192 1281.6 
L 2184.159468 1281.6 
L 2195.394745 1281.6 
L 2206.630021 1281.6 
L 2217.865297 1281.6 
L 2229.100574 1281.6 
L 2240.33585 1281.6 
L 2251.571127 1281.6 
L 2262.806403 1281.6 
L 2274.041679 1281.6 
L 2285.276956 1281.6 
L 2296.512232 1281.6 
L 2307.747508 1281.6 
L 2318.982785 1281.6 
L 2330.218061 1281.6 
L 2341.453337 1281.6 
L 2352.688614 1281.6 
L 2363.92389 1281.6 
L 2375.159166 1281.6 
L 2386.394443 1281.6 
L 2397.629719 1281.6 
L 2408.864995 1281.6 
L 2420.100272 1281.6 
L 2431.335548 1281.6 
L 2442.570825 1281.6 
L 2453.806101 1281.6 
L 2465.041377 1281.6 
L 2476.276654 1281.6 
L 2487.51193 1281.6 
L 2498.747206 1281.6 
L 2509.982483 1281.6 
L 2521.217759 1281.6 
L 2532.453035 1281.6 
L 2543.688312 1281.6 
L 2543.688312 1281.6 
L 2543.688312 1281.6 
L 2532.453035 1281.6 
L 2521.217759 1281.6 
L 2509.982483 1281.6 
L 2498.747206 1281.6 
L 2487.51193 1281.6 
L 2476.276654 1281.6 
L 2465.041377 1281.6 
L 2453.806101 1281.6 
L 2442.570825 1281.6 
L 2431.335548 1281.6 
L 2420.100272 1281.6 
L 2408.864995 1281.6 
L 2397.629719 1281.6 
L 2386.394443 1281.6 
L 2375.159166 1281.6 
L 2363.92389 1281.6 
L 2352.688614 1281.6 
L 2341.453337 1281.6 
L 2330.218061 1281.6 
L 2318.982785 1281.6 
L 2307.747508 198.171429 
L 2296.512232 198.171429 
L 2285.276956 198.171429 
L 2274.041679 198.171429 
L 2262.806403 198.171429 
L 2251.571127 198.171429 
L 2240.33585 198.171429 
L 2229.100574 198.171429 
L 2217.865297 198.171429 
L 2206.630021 198.171429 
L 2195.394745 198.171429 
L 2184.159468 198.171429 
L 2172.924192 198.171429 
L 2161.688916 198.171429 
L 2150.453639 198.171429 
L 2139.218363 198.171429 
L 2127.983087 198.171429 
L 2116.74781 198.171429 
L 2105.512534 198.171429 
L 2094.277258 198.171429 
L 2083.041981 198.171429 
L 2071.806705 198.171429 
L 2060.571429 198.171429 
L 2049.336152 198.171429 
L 2038.100876 198.171429 
L 2026.8656 198.171429 
L 2015.630323 198.171429 
L 2004.395047 198.171429 
L 1993.15977 198.171429 
L 1981.924494 198.171429 
L 1970.689218 198.171429 
L 1959.453941 198.171429 
L 1948.218665 198.171429 
L 1936.983389 198.171429 
L 1925.748112 198.171429 
L 1914.512836 198.171429 
L 1903.27756 198.171429 
L 1892.042283 198.171429 
L 1880.807007 198.171429 
L 1869.571731 198.171429 
L 1858.336454 198.171429 
L 1847.101178 198.171429 
L 1835.865902 198.171429 
L 1824.630625 198.171429 
L 1813.395349 198.171429 
L 1802.160072 198.171429 
L 1790.924796 198.171429 
L 1779.68952 198.171429 
L 1768.454243 198.171429 
L 1757.218967 198.171429 
L 1745.983691 198.171429 
L 1734.748414 198.171429 
L 1723.513138 198.171429 
L 1712.277862 1281.6 
L 1701.042585 1281.6 
L 1689.807309 1281.6 
L 1678.572033 1281.6 
L 1667.336756 1281.6 
L 1656.10148 1281.6 
L 1644.866204 1281.6 
L 1633.630927 1281.6 
L 1622.395651 1281.6 
L 1611.160375 1281.6 
L 1599.925098 1281.6 
L 1588.689822 1281.6 
L 1577.454545 1281.6 
z
" style="fill:#aec7e8;"/>
   </g>
   <g id="PolyCollection_4">
    <path clip-path="url(#pd895958378)" d="M 1577.454545 1281.6 
L 1577.454545 1281.6 
L 1588.689822 1281.6 
L 1599.925098 1281.6 
L 1611.160375 1281.6 
L 1622.395651 1281.6 
L 1633.630927 1281.6 
L 1644.866204 1281.6 
L 1656.10148 1281.6 
L 1667.336756 1281.6 
L 1678.572033 1281.6 
L 1689.807309 1281.6 
L 1701.042585 1281.6 
L 1712.277862 1281.6 
L 1723.513138 1281.6 
L 1734.748414 1281.6 
L 1745.983691 1281.6 
L 1757.218967 1281.6 
L 1768.454243 1281.6 
L 1779.68952 1281.6 
L 1790.924796 1281.6 
L 1802.160072 1281.6 
L 1813.395349 1281.6 
L 1824.630625 1281.6 
L 1835.865902 1281.6 
L 1847.101178 1281.6 
L 1858.336454 1281.6 
L 1869.571731 1281.6 
L 1880.807007 1281.6 
L 1892.042283 1281.6 
L 1903.27756 1281.6 
L 1914.512836 1281.6 
L 1925.748112 1281.6 
L 1936.983389 1281.6 
L 1948.218665 1281.6 
L 1959.453941 1281.6 
L 1970.689218 1281.6 
L 1981.924494 1281.6 
L 1993.15977 1281.6 
L 2004.395047 1281.6 
L 2015.630323 1281.6 
L 2026.8656 1281.6 
L 2038.100876 1281.6 
L 2049.336152 1281.6 
L 2060.571429 1281.6 
L 2071.806705 1281.6 
L 2083.041981 1281.6 
L 2094.277258 1281.6 
L 2105.512534 1281.6 
L 2116.74781 1281.6 
L 2127.983087 1281.6 
L 2139.218363 1281.6 
L 2150.453639 1281.6 
L 2161.688916 1281.6 
L 2172.924192 1281.6 
L 2184.159468 1281.6 
L 2195.394745 1281.6 
L 2206.630021 1281.6 
L 2217.865297 1281.6 
L 2229.100574 1281.6 
L 2240.33585 1281.6 
L 2251.571127 1281.6 
L 2262.806403 1281.6 
L 2274.041679 1281.6 
L 2285.276956 1281.6 
L 2296.512232 1281.6 
L 2307.747508 1281.6 
L 2318.982785 1281.6 
L 2330.218061 1281.6 
L 2341.453337 1281.6 
L 2352.688614 1281.6 
L 2363.92389 1281.6 
L 2375.159166 1281.6 
L 2386.394443 1281.6 
L 2397.629719 1281.6 
L 2408.864995 1281.6 
L 2420.100272 1281.6 
L 2431.335548 1281.6 
L 2442.570825 1281.6 
L 2453.806101 1281.6 
L 2465.041377 1281.6 
L 2476.276654 1281.6 
L 2487.51193 1281.6 
L 2498.747206 1281.6 
L 2509.982483 1281.6 
L 2521.217759 1281.6 
L 2532.453035 1281.6 
L 2543.688312 1281.6 
L 2543.688312 1281.6 
L 2543.688312 1281.6 
L 2532.453035 1281.6 
L 2521.217759 1281.6 
L 2509.982483 1281.6 
L 2498.747206 1281.6 
L 2487.51193 1281.6 
L 2476.276654 1281.6 
L 2465.041377 1281.6 
L 2453.806101 1281.6 
L 2442.570825 1281.6 
L 2431.335548 1281.6 
L 2420.100272 1281.6 
L 2408.864995 1281.6 
L 2397.629719 1281.6 
L 2386.394443 1281.6 
L 2375.159166 1281.6 
L 2363.92389 1281.6 
L 2352.688614 1281.6 
L 2341.453337 1281.6 
L 2330.218061 1281.6 
L 2318.982785 1281.6 
L 2307.747508 902.851429 
L 2296.512232 902.851429 
L 2285.276956 902.851429 
L 2274.041679 911.428571 
L 2262.806403 911.428571 
L 2251.571127 728.6 
L 2240.33585 725.891429 
L 2229.100574 719.12 
L 2217.865297 719.12 
L 2206.630021 713.251429 
L 2195.394745 706.028571 
L 2184.159468 706.028571 
L 2172.924192 702.868571 
L 2161.688916 765.842857 
L 2150.453639 787.285714 
L 2139.218363 787.285714 
L 2127.983087 790.897143 
L 2116.74781 793.605714 
L 2105.512534 794.96 
L 2094.277258 797.668571 
L 2083.041981 797.668571 
L 2071.806705 801.731429 
L 2060.571429 806.471429 
L 2049.336152 812.114286 
L 2038.100876 817.982857 
L 2026.8656 826.108571 
L 2015.630323 826.108571 
L 2004.395047 837.394286 
L 1993.15977 849.357143 
L 1981.924494 849.357143 
L 1970.689218 860.417143 
L 1959.453941 860.417143 
L 1948.218665 868.091429 
L 1936.983389 868.091429 
L 1925.748112 850.034286 
L 1914.512836 881.634286 
L 1903.27756 887.051429 
L 1892.042283 900.368571 
L 1880.807007 900.368571 
L 1869.571731 931.742857 
L 1858.336454 931.742857 
L 1847.101178 931.742857 
L 1835.865902 932.194286 
L 1824.630625 932.194286 
L 1813.395349 932.194286 
L 1802.160072 932.42 
L 1790.924796 939.417143 
L 1779.68952 939.417143 
L 1768.454243 1041.891429 
L 1757.218967 1191.314286 
L 1745.983691 1092.451429 
L 1734.748414 1186.348571 
L 1723.513138 1281.6 
L 1712.277862 1281.6 
L 1701.042585 1281.6 
L 1689.807309 1281.6 
L 1678.572033 1281.6 
L 1667.336756 1281.6 
L 1656.10148 1281.6 
L 1644.866204 1281.6 
L 1633.630927 1281.6 
L 1622.395651 1281.6 
L 1611.160375 1281.6 
L 1599.925098 1281.6 
L 1588.689822 1281.6 
L 1577.454545 1281.6 
z
" style="fill:url(#h25c2a0d019);fill-opacity:0.5;"/>
   </g>
   <g id="matplotlib.axis_3">
    <g id="xtick_7">
     <g id="line2d_16">
      <g>
       <use style="stroke:#000000;stroke-width:0.8;" x="1577.454545" xlink:href="#mfae7f28123" y="1281.6"/>
      </g>
     </g>
     <g id="text_20">
      <!-- 00:00 -->
      <g transform="translate(1563.04517 1296.198437)scale(0.1 -0.1)">
       <use xlink:href="#DejaVuSans-30"/>
       <use x="63.623047" xlink:href="#DejaVuSans-30"/>
       <use x="127.246094" xlink:href="#DejaVuSans-3a"/>
       <use x="160.9375" xlink:href="#DejaVuSans-30"/>
       <use x="224.560547" xlink:href="#DejaVuSans-30"/>
      </g>
     </g>
    </g>
    <g id="xtick_8">
     <g id="line2d_17">
      <g>
       <use style="stroke:#000000;stroke-width:0.8;" x="1764.709151" xlink:href="#mfae7f28123" y="1281.6"/>
      </g>
     </g>
     <g id="text_21">
      <!-- 00:16 -->
      <g transform="translate(1750.299776 1296.198437)scale(0.1 -0.1)">
       <use xlink:href="#DejaVuSans-30"/>
       <use x="63.623047" xlink:href="#DejaVuSans-30"/>
       <use x="127.246094" xlink:href="#DejaVuSans-3a"/>
       <use x="160.9375" xlink:href="#DejaVuSans-31"/>
       <use x="224.560547" xlink:href="#DejaVuSans-36"/>
      </g>
     </g>
    </g>
    <g id="xtick_9">
     <g id="line2d_18">
      <g>
       <use style="stroke:#000000;stroke-width:0.8;" x="1951.963757" xlink:href="#mfae7f28123" y="1281.6"/>
      </g>
     </g>
     <g id="text_22">
      <!-- 00:33 -->
      <g transform="translate(1937.554382 1296.198437)scale(0.1 -0.1)">
       <use xlink:href="#DejaVuSans-30"/>
       <use x="63.623047" xlink:href="#DejaVuSans-30"/>
       <use x="127.246094" xlink:href="#DejaVuSans-3a"/>
       <use x="160.9375" xlink:href="#DejaVuSans-33"/>
       <use x="224.560547" xlink:href="#DejaVuSans-33"/>
      </g>
     </g>
    </g>
    <g id="xtick_10">
     <g id="line2d_19">
      <g>
       <use style="stroke:#000000;stroke-width:0.8;" x="2139.218363" xlink:href="#mfae7f28123" y="1281.6"/>
      </g>
     </g>
     <g id="text_23">
      <!-- 00:50 -->
      <g transform="translate(2124.808988 1296.198437)scale(0.1 -0.1)">
       <use xlink:href="#DejaVuSans-30"/>
       <use x="63.623047" xlink:href="#DejaVuSans-30"/>
       <use x="127.246094" xlink:href="#DejaVuSans-3a"/>
       <use x="160.9375" xlink:href="#DejaVuSans-35"/>
       <use x="224.560547" xlink:href="#DejaVuSans-30"/>
      </g>
     </g>
    </g>
    <g id="xtick_11">
     <g id="line2d_20">
      <g>
       <use style="stroke:#000000;stroke-width:0.8;" x="2326.472969" xlink:href="#mfae7f28123" y="1281.6"/>
      </g>
     </g>
     <g id="text_24">
      <!-- 01:06 -->
      <g transform="translate(2312.063594 1296.198437)scale(0.1 -0.1)">
       <use xlink:href="#DejaVuSans-30"/>
       <use x="63.623047" xlink:href="#DejaVuSans-31"/>
       <use x="127.246094" xlink:href="#DejaVuSans-3a"/>
       <use x="160.9375" xlink:href="#DejaVuSans-30"/>
       <use x="224.560547" xlink:href="#DejaVuSans-36"/>
      </g>
     </g>
    </g>
    <g id="xtick_12">
     <g id="line2d_21">
      <g>
       <use style="stroke:#000000;stroke-width:0.8;" x="2513.727575" xlink:href="#mfae7f28123" y="1281.6"/>
      </g>
     </g>
     <g id="text_25">
      <!-- 01:23 -->
      <g transform="translate(2499.3182 1296.198437)scale(0.1 -0.1)">
       <use xlink:href="#DejaVuSans-30"/>
       <use x="63.623047" xlink:href="#DejaVuSans-31"/>
       <use x="127.246094" xlink:href="#DejaVuSans-3a"/>
       <use x="160.9375" xlink:href="#DejaVuSans-32"/>
       <use x="224.560547" xlink:href="#DejaVuSans-33"/>
      </g>
     </g>
    </g>
    <g id="text_26">
     <!-- Time (HH:MM) -->
     <g transform="translate(2049.170241 1309.876563)scale(0.1 -0.1)">
      <use xlink:href="#DejaVuSans-54"/>
      <use x="57.958984" xlink:href="#DejaVuSans-69"/>
      <use x="85.742188" xlink:href="#DejaVuSans-6d"/>
      <use x="183.154297" xlink:href="#DejaVuSans-65"/>
      <use x="244.677734" xlink:href="#DejaVuSans-20"/>
      <use x="276.464844" xlink:href="#DejaVuSans-28"/>
      <use x="315.478516" xlink:href="#DejaVuSans-48"/>
      <use x="390.673828" xlink:href="#DejaVuSans-48"/>
      <use x="465.869141" xlink:href="#DejaVuSans-3a"/>
      <use x="499.560547" xlink:href="#DejaVuSans-4d"/>
      <use x="585.839844" xlink:href="#DejaVuSans-4d"/>
      <use x="672.119141" xlink:href="#DejaVuSans-29"/>
     </g>
    </g>
   </g>
   <g id="matplotlib.axis_4">
    <g id="ytick_10">
     <g id="line2d_22">
      <g>
       <use style="stroke:#000000;stroke-width:0.8;" x="1577.454545" xlink:href="#m234f92cc9e" y="1281.6"/>
      </g>
     </g>
     <g id="text_27">
      <!-- 0 -->
      <g transform="translate(1564.092045 1285.399219)scale(0.1 -0.1)">
       <use xlink:href="#DejaVuSans-30"/>
      </g>
     </g>
    </g>
    <g id="ytick_11">
     <g id="line2d_23">
      <g>
       <use style="stroke:#000000;stroke-width:0.8;" x="1577.454545" xlink:href="#m234f92cc9e" y="1055.885714"/>
      </g>
     </g>
     <g id="text_28">
      <!-- 50 -->
      <g transform="translate(1557.729545 1059.684933)scale(0.1 -0.1)">
       <use xlink:href="#DejaVuSans-35"/>
       <use x="63.623047" xlink:href="#DejaVuSans-30"/>
      </g>
     </g>
    </g>
    <g id="ytick_12">
     <g id="line2d_24">
      <g>
       <use style="stroke:#000000;stroke-width:0.8;" x="1577.454545" xlink:href="#m234f92cc9e" y="830.171429"/>
      </g>
     </g>
     <g id="text_29">
      <!-- 100 -->
      <g transform="translate(1551.367045 833.970647)scale(0.1 -0.1)">
       <use xlink:href="#DejaVuSans-31"/>
       <use x="63.623047" xlink:href="#DejaVuSans-30"/>
       <use x="127.246094" xlink:href="#DejaVuSans-30"/>
      </g>
     </g>
    </g>
    <g id="ytick_13">
     <g id="line2d_25">
      <g>
       <use style="stroke:#000000;stroke-width:0.8;" x="1577.454545" xlink:href="#m234f92cc9e" y="604.457143"/>
      </g>
     </g>
     <g id="text_30">
      <!-- 150 -->
      <g transform="translate(1551.367045 608.256362)scale(0.1 -0.1)">
       <use xlink:href="#DejaVuSans-31"/>
       <use x="63.623047" xlink:href="#DejaVuSans-35"/>
       <use x="127.246094" xlink:href="#DejaVuSans-30"/>
      </g>
     </g>
    </g>
    <g id="ytick_14">
     <g id="line2d_26">
      <g>
       <use style="stroke:#000000;stroke-width:0.8;" x="1577.454545" xlink:href="#m234f92cc9e" y="378.742857"/>
      </g>
     </g>
     <g id="text_31">
      <!-- 200 -->
      <g transform="translate(1551.367045 382.542076)scale(0.1 -0.1)">
       <use xlink:href="#DejaVuSans-32"/>
       <use x="63.623047" xlink:href="#DejaVuSans-30"/>
       <use x="127.246094" xlink:href="#DejaVuSans-30"/>
      </g>
     </g>
    </g>
    <g id="ytick_15">
     <g id="line2d_27">
      <g>
       <use style="stroke:#000000;stroke-width:0.8;" x="1577.454545" xlink:href="#m234f92cc9e" y="153.028571"/>
      </g>
     </g>
     <g id="text_32">
      <!-- 250 -->
      <g transform="translate(1551.367045 156.82779)scale(0.1 -0.1)">
       <use xlink:href="#DejaVuSans-32"/>
       <use x="63.623047" xlink:href="#DejaVuSans-35"/>
       <use x="127.246094" xlink:href="#DejaVuSans-30"/>
      </g>
     </g>
    </g>
    <g id="text_33">
     <!-- Memory (GB) -->
     <g transform="translate(1545.287358 745.930469)rotate(-90)scale(0.1 -0.1)">
      <defs>
       <path d="M 2059 -325 
Q 1816 -950 1584 -1140 
Q 1353 -1331 966 -1331 
L 506 -1331 
L 506 -850 
L 844 -850 
Q 1081 -850 1212 -737 
Q 1344 -625 1503 -206 
L 1606 56 
L 191 3500 
L 800 3500 
L 1894 763 
L 2988 3500 
L 3597 3500 
L 2059 -325 
z
" id="DejaVuSans-79" transform="scale(0.015625)"/>
       <path d="M 3809 666 
L 3809 1919 
L 2778 1919 
L 2778 2438 
L 4434 2438 
L 4434 434 
Q 4069 175 3628 42 
Q 3188 -91 2688 -91 
Q 1594 -91 976 548 
Q 359 1188 359 2328 
Q 359 3472 976 4111 
Q 1594 4750 2688 4750 
Q 3144 4750 3555 4637 
Q 3966 4525 4313 4306 
L 4313 3634 
Q 3963 3931 3569 4081 
Q 3175 4231 2741 4231 
Q 1884 4231 1454 3753 
Q 1025 3275 1025 2328 
Q 1025 1384 1454 906 
Q 1884 428 2741 428 
Q 3075 428 3337 486 
Q 3600 544 3809 666 
z
" id="DejaVuSans-47" transform="scale(0.015625)"/>
       <path d="M 1259 2228 
L 1259 519 
L 2272 519 
Q 2781 519 3026 730 
Q 3272 941 3272 1375 
Q 3272 1813 3026 2020 
Q 2781 2228 2272 2228 
L 1259 2228 
z
M 1259 4147 
L 1259 2741 
L 2194 2741 
Q 2656 2741 2882 2914 
Q 3109 3088 3109 3444 
Q 3109 3797 2882 3972 
Q 2656 4147 2194 4147 
L 1259 4147 
z
M 628 4666 
L 2241 4666 
Q 2963 4666 3353 4366 
Q 3744 4066 3744 3513 
Q 3744 3084 3544 2831 
Q 3344 2578 2956 2516 
Q 3422 2416 3680 2098 
Q 3938 1781 3938 1306 
Q 3938 681 3513 340 
Q 3088 0 2303 0 
L 628 0 
L 628 4666 
z
" id="DejaVuSans-42" transform="scale(0.015625)"/>
      </defs>
      <use xlink:href="#DejaVuSans-4d"/>
      <use x="86.279297" xlink:href="#DejaVuSans-65"/>
      <use x="147.802734" xlink:href="#DejaVuSans-6d"/>
      <use x="245.214844" xlink:href="#DejaVuSans-6f"/>
      <use x="306.396484" xlink:href="#DejaVuSans-72"/>
      <use x="347.509766" xlink:href="#DejaVuSans-79"/>
      <use x="406.689453" xlink:href="#DejaVuSans-20"/>
      <use x="438.476562" xlink:href="#DejaVuSans-28"/>
      <use x="477.490234" xlink:href="#DejaVuSans-47"/>
      <use x="554.980469" xlink:href="#DejaVuSans-42"/>
      <use x="623.583984" xlink:href="#DejaVuSans-29"/>
     </g>
    </g>
   </g>
   <g id="patch_10">
    <path d="M 1577.454545 1281.6 
L 1577.454545 144 
" style="fill:none;stroke:#000000;stroke-linecap:square;stroke-linejoin:miter;stroke-width:0.8;"/>
   </g>
   <g id="patch_11">
    <path d="M 2592 1281.6 
L 2592 144 
" style="fill:none;stroke:#000000;stroke-linecap:square;stroke-linejoin:miter;stroke-width:0.8;"/>
   </g>
   <g id="patch_12">
    <path d="M 1577.454545 1281.6 
L 2592 1281.6 
" style="fill:none;stroke:#000000;stroke-linecap:square;stroke-linejoin:miter;stroke-width:0.8;"/>
   </g>
   <g id="patch_13">
    <path d="M 1577.454545 144 
L 2592 144 
" style="fill:none;stroke:#000000;stroke-linecap:square;stroke-linejoin:miter;stroke-width:0.8;"/>
   </g>
   <g id="text_34">
    <!-- Memory Resources overtime -->
    <g transform="translate(1998.936648 138)scale(0.12 -0.12)">
     <defs>
      <path d="M 1172 4494 
L 1172 3500 
L 2356 3500 
L 2356 3053 
L 1172 3053 
L 1172 1153 
Q 1172 725 1289 603 
Q 1406 481 1766 481 
L 2356 481 
L 2356 0 
L 1766 0 
Q 1100 0 847 248 
Q 594 497 594 1153 
L 594 3053 
L 172 3053 
L 172 3500 
L 594 3500 
L 594 4494 
L 1172 4494 
z
" id="DejaVuSans-74" transform="scale(0.015625)"/>
     </defs>
     <use xlink:href="#DejaVuSans-4d"/>
     <use x="86.279297" xlink:href="#DejaVuSans-65"/>
     <use x="147.802734" xlink:href="#DejaVuSans-6d"/>
     <use x="245.214844" xlink:href="#DejaVuSans-6f"/>
     <use x="306.396484" xlink:href="#DejaVuSans-72"/>
     <use x="347.509766" xlink:href="#DejaVuSans-79"/>
     <use x="406.689453" xlink:href="#DejaVuSans-20"/>
     <use x="438.476562" xlink:href="#DejaVuSans-52"/>
     <use x="503.458984" xlink:href="#DejaVuSans-65"/>
     <use x="564.982422" xlink:href="#DejaVuSans-73"/>
     <use x="617.082031" xlink:href="#DejaVuSans-6f"/>
     <use x="678.263672" xlink:href="#DejaVuSans-75"/>
     <use x="741.642578" xlink:href="#DejaVuSans-72"/>
     <use x="780.505859" xlink:href="#DejaVuSans-63"/>
     <use x="835.486328" xlink:href="#DejaVuSans-65"/>
     <use x="897.009766" xlink:href="#DejaVuSans-73"/>
     <use x="949.109375" xlink:href="#DejaVuSans-20"/>
     <use x="980.896484" xlink:href="#DejaVuSans-6f"/>
     <use x="1042.078125" xlink:href="#DejaVuSans-76"/>
     <use x="1101.257812" xlink:href="#DejaVuSans-65"/>
     <use x="1162.78125" xlink:href="#DejaVuSans-72"/>
     <use x="1203.894531" xlink:href="#DejaVuSans-74"/>
     <use x="1243.103516" xlink:href="#DejaVuSans-69"/>
     <use x="1270.886719" xlink:href="#DejaVuSans-6d"/>
     <use x="1368.298828" xlink:href="#DejaVuSans-65"/>
    </g>
   </g>
   <g id="legend_2">
    <g id="patch_14">
     <path d="M 2528.015625 166.678125 
L 2585 166.678125 
Q 2587 166.678125 2587 164.678125 
L 2587 151 
Q 2587 149 2585 149 
L 2528.015625 149 
Q 2526.015625 149 2526.015625 151 
L 2526.015625 164.678125 
Q 2526.015625 166.678125 2528.015625 166.678125 
z
" style="fill:#ffffff;opacity:0.8;stroke:#cccccc;stroke-linejoin:miter;"/>
    </g>
    <g id="patch_15">
     <path d="M 2530.015625 160.598437 
L 2550.015625 160.598437 
L 2550.015625 153.598437 
L 2530.015625 153.598437 
z
" style="fill:#aec7e8;"/>
    </g>
    <g id="text_35">
     <!-- main -->
     <g transform="translate(2558.015625 160.598437)scale(0.1 -0.1)">
      <use xlink:href="#DejaVuSans-6d"/>
      <use x="97.412109" xlink:href="#DejaVuSans-61"/>
      <use x="158.691406" xlink:href="#DejaVuSans-69"/>
      <use x="186.474609" xlink:href="#DejaVuSans-6e"/>
     </g>
    </g>
   </g>
  </g>
  <g id="text_36">
   <!-- Resources Used for Dragen3.8-TO-SBJ00471_plasma -->
   <g transform="translate(1282.846875 37.918125)scale(0.12 -0.12)">
    <defs>
     <path d="M 2906 2969 
L 2906 4863 
L 3481 4863 
L 3481 0 
L 2906 0 
L 2906 525 
Q 2725 213 2448 61 
Q 2172 -91 1784 -91 
Q 1150 -91 751 415 
Q 353 922 353 1747 
Q 353 2572 751 3078 
Q 1150 3584 1784 3584 
Q 2172 3584 2448 3432 
Q 2725 3281 2906 2969 
z
M 947 1747 
Q 947 1113 1208 752 
Q 1469 391 1925 391 
Q 2381 391 2643 752 
Q 2906 1113 2906 1747 
Q 2906 2381 2643 2742 
Q 2381 3103 1925 3103 
Q 1469 3103 1208 2742 
Q 947 2381 947 1747 
z
" id="DejaVuSans-64" transform="scale(0.015625)"/>
     <path d="M 2375 4863 
L 2375 4384 
L 1825 4384 
Q 1516 4384 1395 4259 
Q 1275 4134 1275 3809 
L 1275 3500 
L 2222 3500 
L 2222 3053 
L 1275 3053 
L 1275 0 
L 697 0 
L 697 3053 
L 147 3053 
L 147 3500 
L 697 3500 
L 697 3744 
Q 697 4328 969 4595 
Q 1241 4863 1831 4863 
L 2375 4863 
z
" id="DejaVuSans-66" transform="scale(0.015625)"/>
     <path d="M 1259 4147 
L 1259 519 
L 2022 519 
Q 2988 519 3436 956 
Q 3884 1394 3884 2338 
Q 3884 3275 3436 3711 
Q 2988 4147 2022 4147 
L 1259 4147 
z
M 628 4666 
L 1925 4666 
Q 3281 4666 3915 4102 
Q 4550 3538 4550 2338 
Q 4550 1131 3912 565 
Q 3275 0 1925 0 
L 628 0 
L 628 4666 
z
" id="DejaVuSans-44" transform="scale(0.015625)"/>
     <path d="M 2906 1791 
Q 2906 2416 2648 2759 
Q 2391 3103 1925 3103 
Q 1463 3103 1205 2759 
Q 947 2416 947 1791 
Q 947 1169 1205 825 
Q 1463 481 1925 481 
Q 2391 481 2648 825 
Q 2906 1169 2906 1791 
z
M 3481 434 
Q 3481 -459 3084 -895 
Q 2688 -1331 1869 -1331 
Q 1566 -1331 1297 -1286 
Q 1028 -1241 775 -1147 
L 775 -588 
Q 1028 -725 1275 -790 
Q 1522 -856 1778 -856 
Q 2344 -856 2625 -561 
Q 2906 -266 2906 331 
L 2906 616 
Q 2728 306 2450 153 
Q 2172 0 1784 0 
Q 1141 0 747 490 
Q 353 981 353 1791 
Q 353 2603 747 3093 
Q 1141 3584 1784 3584 
Q 2172 3584 2450 3431 
Q 2728 3278 2906 2969 
L 2906 3500 
L 3481 3500 
L 3481 434 
z
" id="DejaVuSans-67" transform="scale(0.015625)"/>
     <path d="M 684 794 
L 1344 794 
L 1344 0 
L 684 0 
L 684 794 
z
" id="DejaVuSans-2e" transform="scale(0.015625)"/>
     <path d="M 313 2009 
L 1997 2009 
L 1997 1497 
L 313 1497 
L 313 2009 
z
" id="DejaVuSans-2d" transform="scale(0.015625)"/>
     <path d="M 3425 4513 
L 3425 3897 
Q 3066 4069 2747 4153 
Q 2428 4238 2131 4238 
Q 1616 4238 1336 4038 
Q 1056 3838 1056 3469 
Q 1056 3159 1242 3001 
Q 1428 2844 1947 2747 
L 2328 2669 
Q 3034 2534 3370 2195 
Q 3706 1856 3706 1288 
Q 3706 609 3251 259 
Q 2797 -91 1919 -91 
Q 1588 -91 1214 -16 
Q 841 59 441 206 
L 441 856 
Q 825 641 1194 531 
Q 1563 422 1919 422 
Q 2459 422 2753 634 
Q 3047 847 3047 1241 
Q 3047 1584 2836 1778 
Q 2625 1972 2144 2069 
L 1759 2144 
Q 1053 2284 737 2584 
Q 422 2884 422 3419 
Q 422 4038 858 4394 
Q 1294 4750 2059 4750 
Q 2388 4750 2728 4690 
Q 3069 4631 3425 4513 
z
" id="DejaVuSans-53" transform="scale(0.015625)"/>
     <path d="M 628 4666 
L 1259 4666 
L 1259 325 
Q 1259 -519 939 -900 
Q 619 -1281 -91 -1281 
L -331 -1281 
L -331 -750 
L -134 -750 
Q 284 -750 456 -515 
Q 628 -281 628 325 
L 628 4666 
z
" id="DejaVuSans-4a" transform="scale(0.015625)"/>
     <path d="M 525 4666 
L 3525 4666 
L 3525 4397 
L 1831 0 
L 1172 0 
L 2766 4134 
L 525 4134 
L 525 4666 
z
" id="DejaVuSans-37" transform="scale(0.015625)"/>
     <path d="M 3263 -1063 
L 3263 -1509 
L -63 -1509 
L -63 -1063 
L 3263 -1063 
z
" id="DejaVuSans-5f" transform="scale(0.015625)"/>
     <path d="M 1159 525 
L 1159 -1331 
L 581 -1331 
L 581 3500 
L 1159 3500 
L 1159 2969 
Q 1341 3281 1617 3432 
Q 1894 3584 2278 3584 
Q 2916 3584 3314 3078 
Q 3713 2572 3713 1747 
Q 3713 922 3314 415 
Q 2916 -91 2278 -91 
Q 1894 -91 1617 61 
Q 1341 213 1159 525 
z
M 3116 1747 
Q 3116 2381 2855 2742 
Q 2594 3103 2138 3103 
Q 1681 3103 1420 2742 
Q 1159 2381 1159 1747 
Q 1159 1113 1420 752 
Q 1681 391 2138 391 
Q 2594 391 2855 752 
Q 3116 1113 3116 1747 
z
" id="DejaVuSans-70" transform="scale(0.015625)"/>
     <path d="M 603 4863 
L 1178 4863 
L 1178 0 
L 603 0 
L 603 4863 
z
" id="DejaVuSans-6c" transform="scale(0.015625)"/>
    </defs>
    <use xlink:href="#DejaVuSans-52"/>
    <use x="64.982422" xlink:href="#DejaVuSans-65"/>
    <use x="126.505859" xlink:href="#DejaVuSans-73"/>
    <use x="178.605469" xlink:href="#DejaVuSans-6f"/>
    <use x="239.787109" xlink:href="#DejaVuSans-75"/>
    <use x="303.166016" xlink:href="#DejaVuSans-72"/>
    <use x="342.029297" xlink:href="#DejaVuSans-63"/>
    <use x="397.009766" xlink:href="#DejaVuSans-65"/>
    <use x="458.533203" xlink:href="#DejaVuSans-73"/>
    <use x="510.632812" xlink:href="#DejaVuSans-20"/>
    <use x="542.419922" xlink:href="#DejaVuSans-55"/>
    <use x="615.613281" xlink:href="#DejaVuSans-73"/>
    <use x="667.712891" xlink:href="#DejaVuSans-65"/>
    <use x="729.236328" xlink:href="#DejaVuSans-64"/>
    <use x="792.712891" xlink:href="#DejaVuSans-20"/>
    <use x="824.5" xlink:href="#DejaVuSans-66"/>
    <use x="859.705078" xlink:href="#DejaVuSans-6f"/>
    <use x="920.886719" xlink:href="#DejaVuSans-72"/>
    <use x="962" xlink:href="#DejaVuSans-20"/>
    <use x="993.787109" xlink:href="#DejaVuSans-44"/>
    <use x="1070.789062" xlink:href="#DejaVuSans-72"/>
    <use x="1111.902344" xlink:href="#DejaVuSans-61"/>
    <use x="1173.181641" xlink:href="#DejaVuSans-67"/>
    <use x="1236.658203" xlink:href="#DejaVuSans-65"/>
    <use x="1298.181641" xlink:href="#DejaVuSans-6e"/>
    <use x="1361.560547" xlink:href="#DejaVuSans-33"/>
    <use x="1425.183594" xlink:href="#DejaVuSans-2e"/>
    <use x="1456.970703" xlink:href="#DejaVuSans-38"/>
    <use x="1520.59375" xlink:href="#DejaVuSans-2d"/>
    <use x="1547.552734" xlink:href="#DejaVuSans-54"/>
    <use x="1608.636719" xlink:href="#DejaVuSans-4f"/>
    <use x="1690.097656" xlink:href="#DejaVuSans-2d"/>
    <use x="1726.181641" xlink:href="#DejaVuSans-53"/>
    <use x="1789.658203" xlink:href="#DejaVuSans-42"/>
    <use x="1858.261719" xlink:href="#DejaVuSans-4a"/>
    <use x="1887.753906" xlink:href="#DejaVuSans-30"/>
    <use x="1951.376953" xlink:href="#DejaVuSans-30"/>
    <use x="2015" xlink:href="#DejaVuSans-34"/>
    <use x="2078.623047" xlink:href="#DejaVuSans-37"/>
    <use x="2142.246094" xlink:href="#DejaVuSans-31"/>
    <use x="2205.869141" xlink:href="#DejaVuSans-5f"/>
    <use x="2255.869141" xlink:href="#DejaVuSans-70"/>
    <use x="2319.345703" xlink:href="#DejaVuSans-6c"/>
    <use x="2347.128906" xlink:href="#DejaVuSans-61"/>
    <use x="2408.408203" xlink:href="#DejaVuSans-73"/>
    <use x="2460.507812" xlink:href="#DejaVuSans-6d"/>
    <use x="2557.919922" xlink:href="#DejaVuSans-61"/>
   </g>
  </g>
  <g id="text_37">
   <!-- (Shaded=CPU / Mem Usage, Unshaded=Allocated but unused) -->
   <g transform="translate(1283.035938 1382.4)scale(0.1 -0.1)">
    <defs>
     <path d="M 3513 2113 
L 3513 0 
L 2938 0 
L 2938 2094 
Q 2938 2591 2744 2837 
Q 2550 3084 2163 3084 
Q 1697 3084 1428 2787 
Q 1159 2491 1159 1978 
L 1159 0 
L 581 0 
L 581 4863 
L 1159 4863 
L 1159 2956 
Q 1366 3272 1645 3428 
Q 1925 3584 2291 3584 
Q 2894 3584 3203 3211 
Q 3513 2838 3513 2113 
z
" id="DejaVuSans-68" transform="scale(0.015625)"/>
     <path d="M 678 2906 
L 4684 2906 
L 4684 2381 
L 678 2381 
L 678 2906 
z
M 678 1631 
L 4684 1631 
L 4684 1100 
L 678 1100 
L 678 1631 
z
" id="DejaVuSans-3d" transform="scale(0.015625)"/>
     <path d="M 1625 4666 
L 2156 4666 
L 531 -594 
L 0 -594 
L 1625 4666 
z
" id="DejaVuSans-2f" transform="scale(0.015625)"/>
     <path d="M 750 794 
L 1409 794 
L 1409 256 
L 897 -744 
L 494 -744 
L 750 256 
L 750 794 
z
" id="DejaVuSans-2c" transform="scale(0.015625)"/>
     <path d="M 2188 4044 
L 1331 1722 
L 3047 1722 
L 2188 4044 
z
M 1831 4666 
L 2547 4666 
L 4325 0 
L 3669 0 
L 3244 1197 
L 1141 1197 
L 716 0 
L 50 0 
L 1831 4666 
z
" id="DejaVuSans-41" transform="scale(0.015625)"/>
     <path d="M 3116 1747 
Q 3116 2381 2855 2742 
Q 2594 3103 2138 3103 
Q 1681 3103 1420 2742 
Q 1159 2381 1159 1747 
Q 1159 1113 1420 752 
Q 1681 391 2138 391 
Q 2594 391 2855 752 
Q 3116 1113 3116 1747 
z
M 1159 2969 
Q 1341 3281 1617 3432 
Q 1894 3584 2278 3584 
Q 2916 3584 3314 3078 
Q 3713 2572 3713 1747 
Q 3713 922 3314 415 
Q 2916 -91 2278 -91 
Q 1894 -91 1617 61 
Q 1341 213 1159 525 
L 1159 0 
L 581 0 
L 581 4863 
L 1159 4863 
L 1159 2969 
z
" id="DejaVuSans-62" transform="scale(0.015625)"/>
    </defs>
    <use xlink:href="#DejaVuSans-28"/>
    <use x="39.013672" xlink:href="#DejaVuSans-53"/>
    <use x="102.490234" xlink:href="#DejaVuSans-68"/>
    <use x="165.869141" xlink:href="#DejaVuSans-61"/>
    <use x="227.148438" xlink:href="#DejaVuSans-64"/>
    <use x="290.625" xlink:href="#DejaVuSans-65"/>
    <use x="352.148438" xlink:href="#DejaVuSans-64"/>
    <use x="415.625" xlink:href="#DejaVuSans-3d"/>
    <use x="499.414062" xlink:href="#DejaVuSans-43"/>
    <use x="569.238281" xlink:href="#DejaVuSans-50"/>
    <use x="629.541016" xlink:href="#DejaVuSans-55"/>
    <use x="702.734375" xlink:href="#DejaVuSans-20"/>
    <use x="734.521484" xlink:href="#DejaVuSans-2f"/>
    <use x="768.212891" xlink:href="#DejaVuSans-20"/>
    <use x="800" xlink:href="#DejaVuSans-4d"/>
    <use x="886.279297" xlink:href="#DejaVuSans-65"/>
    <use x="947.802734" xlink:href="#DejaVuSans-6d"/>
    <use x="1045.214844" xlink:href="#DejaVuSans-20"/>
    <use x="1077.001953" xlink:href="#DejaVuSans-55"/>
    <use x="1150.195312" xlink:href="#DejaVuSans-73"/>
    <use x="1202.294922" xlink:href="#DejaVuSans-61"/>
    <use x="1263.574219" xlink:href="#DejaVuSans-67"/>
    <use x="1327.050781" xlink:href="#DejaVuSans-65"/>
    <use x="1388.574219" xlink:href="#DejaVuSans-2c"/>
    <use x="1420.361328" xlink:href="#DejaVuSans-20"/>
    <use x="1452.148438" xlink:href="#DejaVuSans-55"/>
    <use x="1525.341797" xlink:href="#DejaVuSans-6e"/>
    <use x="1588.720703" xlink:href="#DejaVuSans-73"/>
    <use x="1640.820312" xlink:href="#DejaVuSans-68"/>
    <use x="1704.199219" xlink:href="#DejaVuSans-61"/>
    <use x="1765.478516" xlink:href="#DejaVuSans-64"/>
    <use x="1828.955078" xlink:href="#DejaVuSans-65"/>
    <use x="1890.478516" xlink:href="#DejaVuSans-64"/>
    <use x="1953.955078" xlink:href="#DejaVuSans-3d"/>
    <use x="2037.744141" xlink:href="#DejaVuSans-41"/>
    <use x="2106.152344" xlink:href="#DejaVuSans-6c"/>
    <use x="2133.935547" xlink:href="#DejaVuSans-6c"/>
    <use x="2161.71875" xlink:href="#DejaVuSans-6f"/>
    <use x="2222.900391" xlink:href="#DejaVuSans-63"/>
    <use x="2277.880859" xlink:href="#DejaVuSans-61"/>
    <use x="2339.160156" xlink:href="#DejaVuSans-74"/>
    <use x="2378.369141" xlink:href="#DejaVuSans-65"/>
    <use x="2439.892578" xlink:href="#DejaVuSans-64"/>
    <use x="2503.369141" xlink:href="#DejaVuSans-20"/>
    <use x="2535.15625" xlink:href="#DejaVuSans-62"/>
    <use x="2598.632812" xlink:href="#DejaVuSans-75"/>
    <use x="2662.011719" xlink:href="#DejaVuSans-74"/>
    <use x="2701.220703" xlink:href="#DejaVuSans-20"/>
    <use x="2733.007812" xlink:href="#DejaVuSans-75"/>
    <use x="2796.386719" xlink:href="#DejaVuSans-6e"/>
    <use x="2859.765625" xlink:href="#DejaVuSans-75"/>
    <use x="2923.144531" xlink:href="#DejaVuSans-73"/>
    <use x="2975.244141" xlink:href="#DejaVuSans-65"/>
    <use x="3036.767578" xlink:href="#DejaVuSans-64"/>
    <use x="3100.244141" xlink:href="#DejaVuSans-29"/>
   </g>
  </g>
 </g>
 <defs>
  <clipPath id="p95c7a674bb">
   <rect height="1137.6" width="1014.545455" x="360" y="144"/>
  </clipPath>
  <clipPath id="pd895958378">
   <rect height="1137.6" width="1014.545455" x="1577.454545" y="144"/>
  </clipPath>
 </defs>
 <defs>
  <pattern height="72" id="h25c2a0d019" patternUnits="userSpaceOnUse" width="72" x="0" y="0">
   <rect fill="#aec7e8" height="73" width="73" x="0" y="0"/>
   <path d="M -36 36 
L 36 -36 
M -30 42 
L 42 -30 
M -24 48 
L 48 -24 
M -18 54 
L 54 -18 
M -12 60 
L 60 -12 
M -6 66 
L 66 -6 
M 0 72 
L 72 0 
M 6 78 
L 78 6 
M 12 84 
L 84 12 
M 18 90 
L 90 18 
M 24 96 
L 96 24 
M 30 102 
L 102 30 
M 36 108 
L 108 36 
" style="fill:#000000;stroke:#000000;stroke-linecap:butt;stroke-linejoin:miter;stroke-width:1.0;"/>
  </pattern>
 </defs>
</svg>
