<?xml version="1.0" encoding="UTF-8" standalone="no"?>
<!DOCTYPE svg PUBLIC "-//W3C//DTD SVG 1.1//EN"
 "http://www.w3.org/Graphics/SVG/1.1/DTD/svg11.dtd">
<!-- Generated by graphviz version 2.43.0 (0)
 -->
<!-- Title: G Pages: 1 -->
<svg width="248pt" height="248pt"
 viewBox="0.00 0.00 248.08 248.00" xmlns="http://www.w3.org/2000/svg" xmlns:xlink="http://www.w3.org/1999/xlink">
<g id="graph0" class="graph" transform="scale(1 1) rotate(0) translate(4 244)">
<title>G</title>
<polygon fill="#eeeeee" stroke="transparent" points="-4,4 -4,-244 244.08,-244 244.08,4 -4,4"/>
<g id="clust1" class="cluster">
<title>cluster_inputs</title>
<polygon fill="#eeeeee" stroke="black" stroke-dasharray="5,2" points="42.82,-156 42.82,-232 197.26,-232 197.26,-156 42.82,-156"/>
<text text-anchor="middle" x="130.76" y="-163.8" font-family="Times,serif" font-size="14.00">Workflow Inputs</text>
</g>
<g id="clust2" class="cluster">
<title>cluster_outputs</title>
<polygon fill="#eeeeee" stroke="black" stroke-dasharray="5,2" points="15.69,-8 15.69,-84 224.39,-84 224.39,-8 15.69,-8"/>
<text text-anchor="middle" x="151.89" y="-15.8" font-family="Times,serif" font-size="14.00">Workflow Outputs</text>
</g>
<!-- mapper_options -->
<g id="node1" class="node">
<title>mapper_options</title>
<polygon fill="#94ddf4" stroke="black" points="54.37,-188 54.37,-224 185.37,-224 185.37,-188 54.37,-188"/>
<text text-anchor="middle" x="119.87" y="-202.3" font-family="Times,serif" font-size="14.00">mapper_options</text>
</g>
<!-- parse_mapper_options -->
<g id="node2" class="node">
<title>parse_mapper_options</title>
<ellipse fill="none" stroke="black" cx="119.87" cy="-130" rx="115.08" ry="18"/>
<text text-anchor="middle" x="119.87" y="-126.3" font-family="Times,serif" font-size="14.00">parse_mapper_options</text>
</g>
<!-- mapper_options&#45;&gt;parse_mapper_options -->
<g id="edge1" class="edge">
<title>mapper_options&#45;&gt;parse_mapper_options</title>
<path fill="none" stroke="black" d="M119.87,-187.84C119.87,-179.06 119.87,-168.16 119.87,-158.27"/>
<polygon fill="black" stroke="black" points="123.37,-158.07 119.87,-148.07 116.37,-158.07 123.37,-158.07"/>
</g>
<!-- mapper_options_output -->
<g id="node3" class="node">
<title>mapper_options_output</title>
<polygon fill="#94ddf4" stroke="black" points="27.37,-40 27.37,-76 212.37,-76 212.37,-40 27.37,-40"/>
<text text-anchor="middle" x="119.87" y="-54.3" font-family="Times,serif" font-size="14.00">mapper_options_output</text>
</g>
<!-- parse_mapper_options&#45;&gt;mapper_options_output -->
<g id="edge2" class="edge">
<title>parse_mapper_options&#45;&gt;mapper_options_output</title>
<path fill="none" stroke="black" d="M119.87,-111.7C119.87,-103.98 119.87,-94.71 119.87,-86.11"/>
<polygon fill="black" stroke="black" points="123.37,-86.1 119.87,-76.1 116.37,-86.1 123.37,-86.1"/>
</g>
</g>
</svg>
