<?xml version="1.0" encoding="UTF-8" standalone="no"?>
<!DOCTYPE svg PUBLIC "-//W3C//DTD SVG 1.1//EN"
 "http://www.w3.org/Graphics/SVG/1.1/DTD/svg11.dtd">
<!-- Generated by graphviz version 2.43.0 (0)
 -->
<!-- Title: G Pages: 1 -->
<svg width="366pt" height="366pt"
 viewBox="0.00 0.00 366.00 366.00" xmlns="http://www.w3.org/2000/svg" xmlns:xlink="http://www.w3.org/1999/xlink">
<g id="graph0" class="graph" transform="scale(1 1) rotate(0) translate(4 362)">
<title>G</title>
<polygon fill="#eeeeee" stroke="transparent" points="-4,4 -4,-362 362,-362 362,4 -4,4"/>
<g id="clust1" class="cluster">
<title>cluster_inputs</title>
<polygon fill="#eeeeee" stroke="black" stroke-dasharray="5,2" points="97,-262.23 97,-348.88 239,-348.88 239,-262.23 97,-262.23"/>
<text text-anchor="middle" x="172.5" y="-270.03" font-family="Times,serif" font-size="14.00">Workflow Inputs</text>
</g>
<g id="clust2" class="cluster">
<title>cluster_outputs</title>
<polygon fill="#eeeeee" stroke="black" stroke-dasharray="5,2" points="8,-9.12 8,-95.77 350,-95.77 350,-9.12 8,-9.12"/>
<text text-anchor="middle" x="277.5" y="-16.92" font-family="Times,serif" font-size="14.00">Workflow Outputs</text>
</g>
<!-- run_rename_rgsm_step -->
<g id="node1" class="node">
<title>run_rename_rgsm_step</title>
<polygon fill="lightgoldenrodyellow" stroke="black" points="8,-214.12 8,-250.12 328,-250.12 328,-214.12 8,-214.12"/>
<text text-anchor="middle" x="168" y="-228.42" font-family="Times,serif" font-size="14.00">rename&#45;rgsm&#45;in&#45;alignment&#45;header v(1.0.0)</text>
</g>
<!-- run_dragen_alignment_step -->
<g id="node2" class="node">
<title>run_dragen_alignment_step</title>
<polygon fill="lightgoldenrodyellow" stroke="black" points="51,-131.12 51,-167.12 289,-167.12 289,-131.12 51,-131.12"/>
<text text-anchor="middle" x="170" y="-145.42" font-family="Times,serif" font-size="14.00">dragen&#45;alignment&#45;step v(4.4.4)</text>
</g>
<!-- run_rename_rgsm_step&#45;&gt;run_dragen_alignment_step -->
<g id="edge1" class="edge">
<title>run_rename_rgsm_step&#45;&gt;run_dragen_alignment_step</title>
<path fill="none" stroke="black" d="M168.42,-213.94C168.69,-203.31 169.03,-189.43 169.33,-177.32"/>
<polygon fill="black" stroke="black" points="172.83,-177.36 169.58,-167.27 165.83,-177.18 172.83,-177.36"/>
</g>
<!-- output_alignment_file -->
<g id="node4" class="node">
<title>output_alignment_file</title>
<polygon fill="#94ddf4" stroke="black" points="170.5,-47.12 170.5,-83.12 341.5,-83.12 341.5,-47.12 170.5,-47.12"/>
<text text-anchor="middle" x="256" y="-61.42" font-family="Times,serif" font-size="14.00">output_alignment_file</text>
</g>
<!-- run_dragen_alignment_step&#45;&gt;output_alignment_file -->
<g id="edge6" class="edge">
<title>run_dragen_alignment_step&#45;&gt;output_alignment_file</title>
<path fill="none" stroke="black" d="M188.24,-130.73C200.52,-119.02 216.89,-103.41 230.47,-90.47"/>
<polygon fill="black" stroke="black" points="233.26,-92.64 238.08,-83.2 228.43,-87.57 233.26,-92.64"/>
</g>
<!-- output_directory -->
<g id="node5" class="node">
<title>output_directory</title>
<polygon fill="#94ddf4" stroke="black" points="16,-47.12 16,-83.12 152,-83.12 152,-47.12 16,-47.12"/>
<text text-anchor="middle" x="84" y="-61.42" font-family="Times,serif" font-size="14.00">output_directory</text>
</g>
<!-- run_dragen_alignment_step&#45;&gt;output_directory -->
<g id="edge7" class="edge">
<title>run_dragen_alignment_step&#45;&gt;output_directory</title>
<path fill="none" stroke="black" d="M151.76,-130.73C139.48,-119.02 123.11,-103.41 109.53,-90.47"/>
<polygon fill="black" stroke="black" points="111.57,-87.57 101.92,-83.2 106.74,-92.64 111.57,-87.57"/>
</g>
<!-- dragen_options -->
<g id="node3" class="node">
<title>dragen_options</title>
<polygon fill="#94ddf4" stroke="black" points="105,-301.12 105,-337.12 231,-337.12 231,-301.12 105,-301.12"/>
<text text-anchor="middle" x="168" y="-315.42" font-family="Times,serif" font-size="14.00">dragen_options</text>
</g>
<!-- dragen_options&#45;&gt;run_rename_rgsm_step -->
<g id="edge3" class="edge">
<title>dragen_options&#45;&gt;run_rename_rgsm_step</title>
<path fill="none" stroke="black" d="M156.9,-300.92C154.37,-289.28 153.84,-273.67 155.31,-260.36"/>
<polygon fill="black" stroke="black" points="158.79,-260.72 156.91,-250.3 151.88,-259.62 158.79,-260.72"/>
</g>
<!-- dragen_options&#45;&gt;run_rename_rgsm_step -->
<g id="edge4" class="edge">
<title>dragen_options&#45;&gt;run_rename_rgsm_step</title>
<path fill="none" stroke="black" d="M168,-300.92C168,-289.28 168,-273.67 168,-260.36"/>
<polygon fill="black" stroke="black" points="171.5,-260.3 168,-250.3 164.5,-260.3 171.5,-260.3"/>
</g>
<!-- dragen_options&#45;&gt;run_rename_rgsm_step -->
<g id="edge5" class="edge">
<title>dragen_options&#45;&gt;run_rename_rgsm_step</title>
<path fill="none" stroke="black" d="M179.1,-300.92C181.63,-289.28 182.16,-273.67 180.69,-260.36"/>
<polygon fill="black" stroke="black" points="184.12,-259.62 179.09,-250.3 177.21,-260.72 184.12,-259.62"/>
</g>
<!-- dragen_options&#45;&gt;run_dragen_alignment_step -->
<g id="edge2" class="edge">
<title>dragen_options&#45;&gt;run_dragen_alignment_step</title>
<path fill="none" stroke="black" d="M231.23,-310.44C268.74,-302.27 313.43,-285.41 337,-250.62 363.08,-212.12 313.02,-185.99 261.06,-170.04"/>
<polygon fill="black" stroke="black" points="261.93,-166.65 251.35,-167.19 259.95,-173.37 261.93,-166.65"/>
</g>
</g>
</svg>
