<?xml version="1.0" encoding="UTF-8" standalone="no"?>
<!DOCTYPE svg PUBLIC "-//W3C//DTD SVG 1.1//EN"
 "http://www.w3.org/Graphics/SVG/1.1/DTD/svg11.dtd">
<!-- Generated by graphviz version 2.43.0 (0)
 -->
<!-- Title: G Pages: 1 -->
<svg width="740pt" height="739pt"
 viewBox="0.00 0.00 739.50 739.00" xmlns="http://www.w3.org/2000/svg" xmlns:xlink="http://www.w3.org/1999/xlink">
<g id="graph0" class="graph" transform="scale(1 1) rotate(0) translate(4 735)">
<title>G</title>
<polygon fill="#eeeeee" stroke="transparent" points="-4,4 -4,-735 735.5,-735 735.5,4 -4,4"/>
<g id="clust1" class="cluster">
<title>cluster_inputs</title>
<polygon fill="#eeeeee" stroke="black" stroke-dasharray="5,2" points="281.5,-535.45 281.5,-712.38 445.5,-712.38 445.5,-535.45 281.5,-535.45"/>
<text text-anchor="middle" x="379" y="-543.25" font-family="Times,serif" font-size="14.00">Workflow Inputs</text>
</g>
<g id="clust2" class="cluster">
<title>cluster_outputs</title>
<polygon fill="#eeeeee" stroke="black" stroke-dasharray="5,2" points="254.5,-18.62 254.5,-195.55 472.5,-195.55 472.5,-18.62 254.5,-18.62"/>
<text text-anchor="middle" x="400" y="-26.42" font-family="Times,serif" font-size="14.00">Workflow Outputs</text>
</g>
<!-- coerce_aligner_options_step -->
<g id="node1" class="node">
<title>coerce_aligner_options_step</title>
<polygon fill="#f3cea1" stroke="black" points="0,-455.62 0,-491.62 335,-491.62 335,-455.62 0,-455.62"/>
<text text-anchor="middle" x="167.5" y="-469.92" font-family="Times,serif" font-size="14.00">dragen&#45;create&#45;aligner&#45;options&#45;object v(4.4.4)</text>
</g>
<!-- coerce_alignment_options -->
<g id="node2" class="node">
<title>coerce_alignment_options</title>
<polygon fill="lightgoldenrodyellow" stroke="black" points="191.5,-285.62 191.5,-321.62 535.5,-321.62 535.5,-285.62 191.5,-285.62"/>
<text text-anchor="middle" x="363.5" y="-299.92" font-family="Times,serif" font-size="14.00">dragen&#45;wgts&#45;parse&#45;alignment&#45;schema v(4.4.4)</text>
</g>
<!-- coerce_aligner_options_step&#45;&gt;coerce_alignment_options -->
<g id="edge1" class="edge">
<title>coerce_aligner_options_step&#45;&gt;coerce_alignment_options</title>
<path fill="none" stroke="black" d="M187.37,-455.59C222.52,-425.47 295.7,-362.74 335.79,-328.38"/>
<polygon fill="black" stroke="black" points="338.26,-330.87 343.58,-321.7 333.7,-325.55 338.26,-330.87"/>
</g>
<!-- alignment_options_output -->
<g id="node5" class="node">
<title>alignment_options_output</title>
<polygon fill="#94ddf4" stroke="black" points="262.5,-115.62 262.5,-151.62 464.5,-151.62 464.5,-115.62 262.5,-115.62"/>
<text text-anchor="middle" x="363.5" y="-129.92" font-family="Times,serif" font-size="14.00">alignment_options_output</text>
</g>
<!-- coerce_alignment_options&#45;&gt;alignment_options_output -->
<g id="edge6" class="edge">
<title>coerce_alignment_options&#45;&gt;alignment_options_output</title>
<path fill="none" stroke="black" d="M363.5,-285.59C363.5,-256.54 363.5,-197.15 363.5,-162.14"/>
<polygon fill="black" stroke="black" points="367,-161.7 363.5,-151.7 360,-161.7 367,-161.7"/>
</g>
<!-- coerce_mapper_options_step -->
<g id="node3" class="node">
<title>coerce_mapper_options_step</title>
<polygon fill="#f3cea1" stroke="black" points="391.5,-455.62 391.5,-491.62 731.5,-491.62 731.5,-455.62 391.5,-455.62"/>
<text text-anchor="middle" x="561.5" y="-469.92" font-family="Times,serif" font-size="14.00">dragen&#45;create&#45;mapper&#45;options&#45;object v(4.4.4)</text>
</g>
<!-- coerce_mapper_options_step&#45;&gt;coerce_alignment_options -->
<g id="edge2" class="edge">
<title>coerce_mapper_options_step&#45;&gt;coerce_alignment_options</title>
<path fill="none" stroke="black" d="M541.43,-455.59C505.92,-425.47 431.99,-362.74 391.5,-328.38"/>
<polygon fill="black" stroke="black" points="393.52,-325.5 383.63,-321.7 388.99,-330.84 393.52,-325.5"/>
</g>
<!-- alignment_options -->
<g id="node4" class="node">
<title>alignment_options</title>
<polygon fill="#94ddf4" stroke="black" points="289.5,-632.62 289.5,-668.62 437.5,-668.62 437.5,-632.62 289.5,-632.62"/>
<text text-anchor="middle" x="363.5" y="-646.92" font-family="Times,serif" font-size="14.00">alignment_options</text>
</g>
<!-- alignment_options&#45;&gt;coerce_aligner_options_step -->
<g id="edge3" class="edge">
<title>alignment_options&#45;&gt;coerce_aligner_options_step</title>
<path fill="none" stroke="black" d="M344.35,-632.53C309.22,-601.16 234.41,-534.37 194.27,-498.53"/>
<polygon fill="black" stroke="black" points="196.52,-495.84 186.73,-491.79 191.86,-501.06 196.52,-495.84"/>
</g>
<!-- alignment_options&#45;&gt;coerce_alignment_options -->
<g id="edge4" class="edge">
<title>alignment_options&#45;&gt;coerce_alignment_options</title>
<path fill="none" stroke="black" d="M363.5,-632.52C363.5,-576.88 363.5,-400.72 363.5,-332.23"/>
<polygon fill="black" stroke="black" points="367,-331.84 363.5,-321.84 360,-331.84 367,-331.84"/>
</g>
<!-- alignment_options&#45;&gt;coerce_mapper_options_step -->
<g id="edge5" class="edge">
<title>alignment_options&#45;&gt;coerce_mapper_options_step</title>
<path fill="none" stroke="black" d="M382.85,-632.53C418.33,-601.16 493.91,-534.37 534.46,-498.53"/>
<polygon fill="black" stroke="black" points="536.9,-501.04 542.08,-491.79 532.27,-495.79 536.9,-501.04"/>
</g>
</g>
</svg>
