<?xml version="1.0" encoding="UTF-8" standalone="no"?>
<!DOCTYPE svg PUBLIC "-//W3C//DTD SVG 1.1//EN"
 "http://www.w3.org/Graphics/SVG/1.1/DTD/svg11.dtd">
<!-- Generated by graphviz version 2.43.0 (0)
 -->
<!-- Title: G Pages: 1 -->
<svg width="4895pt" height="1611pt"
 viewBox="0.00 0.00 4894.50 1610.61" xmlns="http://www.w3.org/2000/svg" xmlns:xlink="http://www.w3.org/1999/xlink">
<g id="graph0" class="graph" transform="scale(1 1) rotate(0) translate(4 1606.61)">
<title>G</title>
<polygon fill="#eeeeee" stroke="transparent" points="-4,4 -4,-1606.61 4890.5,-1606.61 4890.5,4 -4,4"/>
<g id="clust1" class="cluster">
<title>cluster_inputs</title>
<polygon fill="#eeeeee" stroke="black" stroke-dasharray="5,2" points="765.5,-1254.76 765.5,-1569.48 4878.5,-1569.48 4878.5,-1254.76 765.5,-1254.76"/>
<text text-anchor="middle" x="4812" y="-1262.56" font-family="Times,serif" font-size="14.00">Workflow Inputs</text>
</g>
<g id="clust2" class="cluster">
<title>cluster_outputs</title>
<polygon fill="#eeeeee" stroke="black" stroke-dasharray="5,2" points="1360.5,-33.13 1360.5,-347.85 3384.5,-347.85 3384.5,-33.13 1360.5,-33.13"/>
<text text-anchor="middle" x="3312" y="-40.93" font-family="Times,serif" font-size="14.00">Workflow Outputs</text>
</g>
<!-- run_get_default_alignment_options_schema_step -->
<g id="node1" class="node">
<title>run_get_default_alignment_options_schema_step</title>
<polygon fill="#f3cea1" stroke="black" points="359.5,-1442.13 359.5,-1478.13 755.5,-1478.13 755.5,-1442.13 359.5,-1442.13"/>
<text text-anchor="middle" x="557.5" y="-1456.43" font-family="Times,serif" font-size="14.00">dragen&#45;create&#45;wgts&#45;alignment&#45;options&#45;object v(4.4.4)</text>
</g>
<!-- run_dragen_alignment_stage -->
<g id="node2" class="node">
<title>run_dragen_alignment_stage</title>
<polygon fill="#f3cea1" stroke="black" points="1337.5,-1127.13 1337.5,-1163.13 1583.5,-1163.13 1583.5,-1127.13 1337.5,-1127.13"/>
<text text-anchor="middle" x="1460.5" y="-1141.43" font-family="Times,serif" font-size="14.00">dragen&#45;alignment&#45;stage v(4.4.4)</text>
</g>
<!-- run_get_default_alignment_options_schema_step&#45;&gt;run_dragen_alignment_stage -->
<g id="edge1" class="edge">
<title>run_get_default_alignment_options_schema_step&#45;&gt;run_dragen_alignment_stage</title>
<path fill="none" stroke="black" d="M606.69,-1442.08C760.95,-1388.61 1234.86,-1224.34 1401.67,-1166.52"/>
<polygon fill="black" stroke="black" points="1402.96,-1169.78 1411.26,-1163.19 1400.67,-1163.16 1402.96,-1169.78"/>
</g>
<!-- run_dragen_alignment_stage_normal_somatic_reference -->
<g id="node4" class="node">
<title>run_dragen_alignment_stage_normal_somatic_reference</title>
<polygon fill="#f3cea1" stroke="black" points="1865.5,-1127.13 1865.5,-1163.13 2111.5,-1163.13 2111.5,-1127.13 1865.5,-1127.13"/>
<text text-anchor="middle" x="1988.5" y="-1141.43" font-family="Times,serif" font-size="14.00">dragen&#45;alignment&#45;stage v(4.4.4)</text>
</g>
<!-- run_get_default_alignment_options_schema_step&#45;&gt;run_dragen_alignment_stage_normal_somatic_reference -->
<g id="edge4" class="edge">
<title>run_get_default_alignment_options_schema_step&#45;&gt;run_dragen_alignment_stage_normal_somatic_reference</title>
<path fill="none" stroke="black" d="M627.75,-1442.04C667.05,-1432.58 716.94,-1420.73 761.5,-1410.63 1184.93,-1314.67 1692.47,-1207.87 1896.73,-1165.22"/>
<polygon fill="black" stroke="black" points="1897.45,-1168.65 1906.52,-1163.18 1896.02,-1161.79 1897.45,-1168.65"/>
</g>
<!-- run_dragen_alignment_stage_tumor -->
<g id="node5" class="node">
<title>run_dragen_alignment_stage_tumor</title>
<polygon fill="#f3cea1" stroke="black" points="1601.5,-1127.13 1601.5,-1163.13 1847.5,-1163.13 1847.5,-1127.13 1601.5,-1127.13"/>
<text text-anchor="middle" x="1724.5" y="-1141.43" font-family="Times,serif" font-size="14.00">dragen&#45;alignment&#45;stage v(4.4.4)</text>
</g>
<!-- run_get_default_alignment_options_schema_step&#45;&gt;run_dragen_alignment_stage_tumor -->
<g id="edge5" class="edge">
<title>run_get_default_alignment_options_schema_step&#45;&gt;run_dragen_alignment_stage_tumor</title>
<path fill="none" stroke="black" d="M621.07,-1442.08C821.23,-1388.39 1437.78,-1223.03 1651.02,-1165.84"/>
<polygon fill="black" stroke="black" points="1652.12,-1169.17 1660.87,-1163.19 1650.31,-1162.4 1652.12,-1169.17"/>
</g>
<!-- run_dragen_variant_calling_stage -->
<g id="node7" class="node">
<title>run_dragen_variant_calling_stage</title>
<polygon fill="#f3cea1" stroke="black" points="2986,-825.13 2986,-861.13 3263,-861.13 3263,-825.13 2986,-825.13"/>
<text text-anchor="middle" x="3124.5" y="-839.43" font-family="Times,serif" font-size="14.00">dragen&#45;variant&#45;calling&#45;stage v(4.4.4)</text>
</g>
<!-- run_dragen_alignment_stage&#45;&gt;run_dragen_variant_calling_stage -->
<g id="edge10" class="edge">
<title>run_dragen_alignment_stage&#45;&gt;run_dragen_variant_calling_stage</title>
<path fill="none" stroke="black" d="M1555.03,-1127.09C1844.52,-1074.89 2717.52,-917.5 3019.98,-862.97"/>
<polygon fill="black" stroke="black" points="3020.85,-866.37 3030.07,-861.15 3019.6,-859.48 3020.85,-866.37"/>
</g>
<!-- run_dragen_variant_calling_stage_tumor -->
<g id="node8" class="node">
<title>run_dragen_variant_calling_stage_tumor</title>
<polygon fill="#f3cea1" stroke="black" points="2583,-825.13 2583,-861.13 2860,-861.13 2860,-825.13 2583,-825.13"/>
<text text-anchor="middle" x="2721.5" y="-839.43" font-family="Times,serif" font-size="14.00">dragen&#45;variant&#45;calling&#45;stage v(4.4.4)</text>
</g>
<!-- run_dragen_alignment_stage&#45;&gt;run_dragen_variant_calling_stage_tumor -->
<g id="edge16" class="edge">
<title>run_dragen_alignment_stage&#45;&gt;run_dragen_variant_calling_stage_tumor</title>
<path fill="none" stroke="black" d="M1532.37,-1127.03C1751.17,-1074.98 2408.29,-918.64 2639.74,-863.58"/>
<polygon fill="black" stroke="black" points="2640.86,-866.91 2649.78,-861.19 2639.24,-860.1 2640.86,-866.91"/>
</g>
<!-- run_multiqc -->
<g id="node9" class="node">
<title>run_multiqc</title>
<polygon fill="lightgoldenrodyellow" stroke="black" points="3815,-522.13 3815,-558.13 3954,-558.13 3954,-522.13 3815,-522.13"/>
<text text-anchor="middle" x="3884.5" y="-536.43" font-family="Times,serif" font-size="14.00">multiqc v(1.25.0)</text>
</g>
<!-- run_dragen_alignment_stage&#45;&gt;run_multiqc -->
<g id="edge18" class="edge">
<title>run_dragen_alignment_stage&#45;&gt;run_multiqc</title>
<path fill="none" stroke="black" d="M1502.21,-1127.03C1630.48,-1074.99 2031.26,-916.51 2375.5,-824.63 2913.55,-681.02 3578.38,-583 3804.74,-551.8"/>
<polygon fill="black" stroke="black" points="3805.43,-555.24 3814.86,-550.41 3804.48,-548.3 3805.43,-555.24"/>
</g>
<!-- dragen_alignment_output_directory -->
<g id="node31" class="node">
<title>dragen_alignment_output_directory</title>
<polygon fill="#94ddf4" stroke="black" points="1368.5,-220.13 1368.5,-256.13 1640.5,-256.13 1640.5,-220.13 1368.5,-220.13"/>
<text text-anchor="middle" x="1504.5" y="-234.43" font-family="Times,serif" font-size="14.00">dragen_alignment_output_directory</text>
</g>
<!-- run_dragen_alignment_stage&#45;&gt;dragen_alignment_output_directory -->
<g id="edge75" class="edge">
<title>run_dragen_alignment_stage&#45;&gt;dragen_alignment_output_directory</title>
<path fill="none" stroke="black" d="M1461.34,-1126.86C1466.74,-1015.87 1496.52,-403.19 1503.18,-266.27"/>
<polygon fill="black" stroke="black" points="1506.68,-266.37 1503.67,-256.21 1499.69,-266.03 1506.68,-266.37"/>
</g>
<!-- run_get_dragen_configuration_options_step -->
<g id="node3" class="node">
<title>run_get_dragen_configuration_options_step</title>
<polygon fill="lightgoldenrodyellow" stroke="black" points="0,-1442.13 0,-1478.13 341,-1478.13 341,-1442.13 0,-1442.13"/>
<text text-anchor="middle" x="170.5" y="-1456.43" font-family="Times,serif" font-size="14.00">get&#45;dragen&#45;default&#45;configuration&#45;json v(4.4.4)</text>
</g>
<!-- run_get_dragen_configuration_options_step&#45;&gt;run_dragen_alignment_stage -->
<g id="edge2" class="edge">
<title>run_get_dragen_configuration_options_step&#45;&gt;run_dragen_alignment_stage</title>
<path fill="none" stroke="black" d="M232.03,-1442.07C266.75,-1432.57 310.97,-1420.66 350.5,-1410.63 731.84,-1313.84 1189.53,-1208.04 1375.62,-1165.46"/>
<polygon fill="black" stroke="black" points="1376.64,-1168.82 1385.61,-1163.18 1375.08,-1162 1376.64,-1168.82"/>
</g>
<!-- run_get_dragen_configuration_options_step&#45;&gt;run_dragen_alignment_stage_normal_somatic_reference -->
<g id="edge3" class="edge">
<title>run_get_dragen_configuration_options_step&#45;&gt;run_dragen_alignment_stage_normal_somatic_reference</title>
<path fill="none" stroke="black" d="M227.69,-1442.1C262.89,-1432.03 309.05,-1419.54 350.5,-1410.63 641.87,-1348.02 1532.35,-1213.82 1863.09,-1164.66"/>
<polygon fill="black" stroke="black" points="1863.81,-1168.1 1873.19,-1163.16 1862.78,-1161.17 1863.81,-1168.1"/>
</g>
<!-- run_get_dragen_configuration_options_step&#45;&gt;run_dragen_alignment_stage_tumor -->
<g id="edge6" class="edge">
<title>run_get_dragen_configuration_options_step&#45;&gt;run_dragen_alignment_stage_tumor</title>
<path fill="none" stroke="black" d="M229.41,-1442.09C264.43,-1432.25 309.82,-1420.01 350.5,-1410.63 816.04,-1303.25 1377.24,-1204.75 1612.34,-1164.86"/>
<polygon fill="black" stroke="black" points="1612.99,-1168.3 1622.27,-1163.18 1611.82,-1161.4 1612.99,-1168.3"/>
</g>
<!-- run_get_dragen_configuration_options_step&#45;&gt;run_dragen_variant_calling_stage -->
<g id="edge9" class="edge">
<title>run_get_dragen_configuration_options_step&#45;&gt;run_dragen_variant_calling_stage</title>
<path fill="none" stroke="black" d="M221.28,-1442.1C381.92,-1388.76 894.02,-1222.79 1328.5,-1126.63 1933.37,-992.76 2666.45,-898.11 2975.6,-861.23"/>
<polygon fill="black" stroke="black" points="2976.45,-864.65 2985.97,-859.99 2975.62,-857.7 2976.45,-864.65"/>
</g>
<!-- run_get_dragen_configuration_options_step&#45;&gt;run_dragen_variant_calling_stage_tumor -->
<g id="edge15" class="edge">
<title>run_get_dragen_configuration_options_step&#45;&gt;run_dragen_variant_calling_stage_tumor</title>
<path fill="none" stroke="black" d="M206.03,-1442.11C321,-1387.72 694.33,-1216.45 1020.5,-1126.63 1582.86,-971.76 2274.58,-888.98 2572.96,-858.28"/>
<polygon fill="black" stroke="black" points="2573.38,-861.75 2582.97,-857.25 2572.67,-854.79 2573.38,-861.75"/>
</g>
<!-- run_dragen_alignment_stage_normal_somatic_reference&#45;&gt;run_dragen_variant_calling_stage_tumor -->
<g id="edge14" class="edge">
<title>run_dragen_alignment_stage_normal_somatic_reference&#45;&gt;run_dragen_variant_calling_stage_tumor</title>
<path fill="none" stroke="black" d="M2030.28,-1127.03C2156.25,-1075.47 2532.2,-921.6 2670.07,-865.18"/>
<polygon fill="black" stroke="black" points="2671.65,-868.31 2679.58,-861.28 2669,-861.83 2671.65,-868.31"/>
</g>
<!-- run_dragen_alignment_stage_normal_somatic_reference&#45;&gt;run_multiqc -->
<g id="edge22" class="edge">
<title>run_dragen_alignment_stage_normal_somatic_reference&#45;&gt;run_multiqc</title>
<path fill="none" stroke="black" d="M2013.52,-1127.03C2092.3,-1073.95 2343.72,-910.48 2574.5,-824.63 3023.02,-657.78 3596.32,-576.05 3804.47,-550.35"/>
<polygon fill="black" stroke="black" points="3805.2,-553.79 3814.7,-549.1 3804.34,-546.84 3805.2,-553.79"/>
</g>
<!-- dragen_alignment_output_directory_normal_somatic_reference -->
<g id="node32" class="node">
<title>dragen_alignment_output_directory_normal_somatic_reference</title>
<polygon fill="#94ddf4" stroke="black" points="1998.5,-220.13 1998.5,-256.13 2464.5,-256.13 2464.5,-220.13 1998.5,-220.13"/>
<text text-anchor="middle" x="2231.5" y="-234.43" font-family="Times,serif" font-size="14.00">dragen_alignment_output_directory_normal_somatic_reference</text>
</g>
<!-- run_dragen_alignment_stage_normal_somatic_reference&#45;&gt;dragen_alignment_output_directory_normal_somatic_reference -->
<g id="edge76" class="edge">
<title>run_dragen_alignment_stage_normal_somatic_reference&#45;&gt;dragen_alignment_output_directory_normal_somatic_reference</title>
<path fill="none" stroke="black" d="M1993.14,-1126.86C2022.94,-1015.87 2187.45,-403.19 2224.21,-266.27"/>
<polygon fill="black" stroke="black" points="2227.7,-266.78 2226.91,-256.21 2220.94,-264.96 2227.7,-266.78"/>
</g>
<!-- run_dragen_alignment_stage_tumor&#45;&gt;run_dragen_variant_calling_stage_tumor -->
<g id="edge11" class="edge">
<title>run_dragen_alignment_stage_tumor&#45;&gt;run_dragen_variant_calling_stage_tumor</title>
<path fill="none" stroke="black" d="M1777.97,-1127.03C1946,-1075.13 2462.89,-919.57 2651.64,-864.07"/>
<polygon fill="black" stroke="black" points="2652.84,-867.37 2661.45,-861.19 2650.87,-860.65 2652.84,-867.37"/>
</g>
<!-- run_dragen_alignment_stage_tumor&#45;&gt;run_dragen_variant_calling_stage_tumor -->
<g id="edge17" class="edge">
<title>run_dragen_alignment_stage_tumor&#45;&gt;run_dragen_variant_calling_stage_tumor</title>
<path fill="none" stroke="black" d="M1784.67,-1127.03C1961.52,-1075.16 2478.15,-919.73 2658.53,-864.16"/>
<polygon fill="black" stroke="black" points="2659.62,-867.48 2668.14,-861.19 2657.55,-860.79 2659.62,-867.48"/>
</g>
<!-- run_dragen_alignment_stage_tumor&#45;&gt;run_multiqc -->
<g id="edge20" class="edge">
<title>run_dragen_alignment_stage_tumor&#45;&gt;run_multiqc</title>
<path fill="none" stroke="black" d="M1758.53,-1126.99C1864.01,-1074.49 2195.84,-914.08 2486.5,-824.63 2976.95,-673.69 3589.35,-581.36 3804.96,-551.65"/>
<polygon fill="black" stroke="black" points="3805.5,-555.11 3814.93,-550.28 3804.55,-548.17 3805.5,-555.11"/>
</g>
<!-- dragen_alignment_output_directory_tumor -->
<g id="node33" class="node">
<title>dragen_alignment_output_directory_tumor</title>
<polygon fill="#94ddf4" stroke="black" points="1658.5,-220.13 1658.5,-256.13 1980.5,-256.13 1980.5,-220.13 1658.5,-220.13"/>
<text text-anchor="middle" x="1819.5" y="-234.43" font-family="Times,serif" font-size="14.00">dragen_alignment_output_directory_tumor</text>
</g>
<!-- run_dragen_alignment_stage_tumor&#45;&gt;dragen_alignment_output_directory_tumor -->
<g id="edge77" class="edge">
<title>run_dragen_alignment_stage_tumor&#45;&gt;dragen_alignment_output_directory_tumor</title>
<path fill="none" stroke="black" d="M1726.31,-1126.86C1737.96,-1015.87 1802.28,-403.19 1816.65,-266.27"/>
<polygon fill="black" stroke="black" points="1820.14,-266.52 1817.71,-256.21 1813.18,-265.79 1820.14,-266.52"/>
</g>
<!-- run_get_variant_calling_options_as_schemas_step -->
<g id="node6" class="node">
<title>run_get_variant_calling_options_as_schemas_step</title>
<polygon fill="#f3cea1" stroke="black" points="3266.5,-1127.13 3266.5,-1163.13 3724.5,-1163.13 3724.5,-1127.13 3266.5,-1127.13"/>
<text text-anchor="middle" x="3495.5" y="-1141.43" font-family="Times,serif" font-size="14.00">dragen&#45;create&#45;wgts&#45;dna&#45;variant&#45;calling&#45;options&#45;object v(4.4.4)</text>
</g>
<!-- run_get_variant_calling_options_as_schemas_step&#45;&gt;run_dragen_variant_calling_stage -->
<g id="edge7" class="edge">
<title>run_get_variant_calling_options_as_schemas_step&#45;&gt;run_dragen_variant_calling_stage</title>
<path fill="none" stroke="black" d="M3470.86,-1126.92C3403.63,-1076.07 3218.39,-926.42 3150.08,-867.93"/>
<polygon fill="black" stroke="black" points="3152.2,-865.14 3142.34,-861.27 3147.63,-870.45 3152.2,-865.14"/>
</g>
<!-- run_get_variant_calling_options_as_schemas_step&#45;&gt;run_dragen_variant_calling_stage -->
<g id="edge8" class="edge">
<title>run_get_variant_calling_options_as_schemas_step&#45;&gt;run_dragen_variant_calling_stage</title>
<path fill="none" stroke="black" d="M3477.58,-1126.92C3418.93,-1075.97 3233.39,-925.81 3157.34,-867.58"/>
<polygon fill="black" stroke="black" points="3159.12,-864.54 3149.04,-861.27 3154.88,-870.11 3159.12,-864.54"/>
</g>
<!-- run_get_variant_calling_options_as_schemas_step&#45;&gt;run_dragen_variant_calling_stage_tumor -->
<g id="edge12" class="edge">
<title>run_get_variant_calling_options_as_schemas_step&#45;&gt;run_dragen_variant_calling_stage_tumor</title>
<path fill="none" stroke="black" d="M3448.04,-1127.03C3310.45,-1075.42 2912.71,-921.3 2771.72,-865.01"/>
<polygon fill="black" stroke="black" points="2772.99,-861.75 2762.41,-861.28 2770.39,-868.25 2772.99,-861.75"/>
</g>
<!-- run_get_variant_calling_options_as_schemas_step&#45;&gt;run_dragen_variant_calling_stage_tumor -->
<g id="edge13" class="edge">
<title>run_get_variant_calling_options_as_schemas_step&#45;&gt;run_dragen_variant_calling_stage_tumor</title>
<path fill="none" stroke="black" d="M3454.74,-1127.03C3325.88,-1075.37 2927.68,-920.99 2778.57,-864.84"/>
<polygon fill="black" stroke="black" points="2779.71,-861.53 2769.11,-861.28 2777.24,-868.08 2779.71,-861.53"/>
</g>
<!-- run_dragen_variant_calling_stage&#45;&gt;run_multiqc -->
<g id="edge21" class="edge">
<title>run_dragen_variant_calling_stage&#45;&gt;run_multiqc</title>
<path fill="none" stroke="black" d="M3167.54,-825.08C3298.15,-773.35 3689.72,-618.27 3832.05,-561.9"/>
<polygon fill="black" stroke="black" points="3833.46,-565.11 3841.46,-558.17 3830.88,-558.6 3833.46,-565.11"/>
</g>
<!-- dragen_variant_calling_output_directory -->
<g id="node34" class="node">
<title>dragen_variant_calling_output_directory</title>
<polygon fill="#94ddf4" stroke="black" points="2856,-220.13 2856,-256.13 3161,-256.13 3161,-220.13 2856,-220.13"/>
<text text-anchor="middle" x="3008.5" y="-234.43" font-family="Times,serif" font-size="14.00">dragen_variant_calling_output_directory</text>
</g>
<!-- run_dragen_variant_calling_stage&#45;&gt;dragen_variant_calling_output_directory -->
<g id="edge78" class="edge">
<title>run_dragen_variant_calling_stage&#45;&gt;dragen_variant_calling_output_directory</title>
<path fill="none" stroke="black" d="M3121.22,-825.05C3105.03,-740.92 3033.75,-370.36 3013.74,-266.36"/>
<polygon fill="black" stroke="black" points="3017.14,-265.5 3011.81,-256.34 3010.26,-266.82 3017.14,-265.5"/>
</g>
<!-- run_dragen_variant_calling_stage_tumor&#45;&gt;run_multiqc -->
<g id="edge19" class="edge">
<title>run_dragen_variant_calling_stage_tumor&#45;&gt;run_multiqc</title>
<path fill="none" stroke="black" d="M2787.36,-825.08C2988.63,-772.99 3594.84,-616.1 3808.76,-560.73"/>
<polygon fill="black" stroke="black" points="3809.84,-564.07 3818.64,-558.17 3808.09,-557.29 3809.84,-564.07"/>
</g>
<!-- dragen_variant_calling_output_directory_tumor -->
<g id="node35" class="node">
<title>dragen_variant_calling_output_directory_tumor</title>
<polygon fill="#94ddf4" stroke="black" points="2483,-220.13 2483,-256.13 2838,-256.13 2838,-220.13 2483,-220.13"/>
<text text-anchor="middle" x="2660.5" y="-234.43" font-family="Times,serif" font-size="14.00">dragen_variant_calling_output_directory_tumor</text>
</g>
<!-- run_dragen_variant_calling_stage_tumor&#45;&gt;dragen_variant_calling_output_directory_tumor -->
<g id="edge79" class="edge">
<title>run_dragen_variant_calling_stage_tumor&#45;&gt;dragen_variant_calling_output_directory_tumor</title>
<path fill="none" stroke="black" d="M2719.77,-825.05C2711.26,-740.92 2673.78,-370.36 2663.25,-266.36"/>
<polygon fill="black" stroke="black" points="2666.73,-265.94 2662.24,-256.34 2659.77,-266.64 2666.73,-265.94"/>
</g>
<!-- multiqc_output_directory -->
<g id="node36" class="node">
<title>multiqc_output_directory</title>
<polygon fill="#94ddf4" stroke="black" points="3179,-220.13 3179,-256.13 3376,-256.13 3376,-220.13 3179,-220.13"/>
<text text-anchor="middle" x="3277.5" y="-234.43" font-family="Times,serif" font-size="14.00">multiqc_output_directory</text>
</g>
<!-- run_multiqc&#45;&gt;multiqc_output_directory -->
<g id="edge80" class="edge">
<title>run_multiqc&#45;&gt;multiqc_output_directory</title>
<path fill="none" stroke="black" d="M3849.68,-521.92C3745.55,-470.45 3436.58,-317.75 3321.42,-260.83"/>
<polygon fill="black" stroke="black" points="3322.69,-257.56 3312.17,-256.27 3319.59,-263.83 3322.69,-257.56"/>
</g>
<!-- lic_instance_id_location -->
<g id="node10" class="node">
<title>lic_instance_id_location</title>
<polygon fill="#94ddf4" stroke="black" points="1632,-1442.13 1632,-1478.13 1815,-1478.13 1815,-1442.13 1632,-1442.13"/>
<text text-anchor="middle" x="1723.5" y="-1456.43" font-family="Times,serif" font-size="14.00">lic_instance_id_location</text>
</g>
<!-- lic_instance_id_location&#45;&gt;run_dragen_alignment_stage -->
<g id="edge23" class="edge">
<title>lic_instance_id_location&#45;&gt;run_dragen_alignment_stage</title>
<path fill="none" stroke="black" d="M1708.99,-1441.85C1664.98,-1389.48 1532.92,-1232.32 1481.41,-1171.01"/>
<polygon fill="black" stroke="black" points="1484.08,-1168.75 1474.97,-1163.35 1478.72,-1173.26 1484.08,-1168.75"/>
</g>
<!-- lic_instance_id_location&#45;&gt;run_dragen_alignment_stage_normal_somatic_reference -->
<g id="edge24" class="edge">
<title>lic_instance_id_location&#45;&gt;run_dragen_alignment_stage_normal_somatic_reference</title>
<path fill="none" stroke="black" d="M1738.13,-1441.85C1782.47,-1389.48 1915.52,-1232.32 1967.43,-1171.01"/>
<polygon fill="black" stroke="black" points="1970.13,-1173.24 1973.92,-1163.35 1964.79,-1168.72 1970.13,-1173.24"/>
</g>
<!-- lic_instance_id_location&#45;&gt;run_dragen_alignment_stage_tumor -->
<g id="edge25" class="edge">
<title>lic_instance_id_location&#45;&gt;run_dragen_alignment_stage_tumor</title>
<path fill="none" stroke="black" d="M1723.56,-1441.85C1723.72,-1390.23 1724.21,-1236.79 1724.41,-1173.7"/>
<polygon fill="black" stroke="black" points="1727.91,-1173.36 1724.44,-1163.35 1720.91,-1173.34 1727.91,-1173.36"/>
</g>
<!-- lic_instance_id_location&#45;&gt;run_dragen_variant_calling_stage -->
<g id="edge26" class="edge">
<title>lic_instance_id_location&#45;&gt;run_dragen_variant_calling_stage</title>
<path fill="none" stroke="black" d="M1758.41,-1441.98C1777.79,-1432.55 1802.39,-1420.75 1824.5,-1410.63 2307.83,-1189.36 2900.64,-938.35 3074.42,-865.17"/>
<polygon fill="black" stroke="black" points="3075.96,-868.32 3083.82,-861.21 3073.25,-861.87 3075.96,-868.32"/>
</g>
<!-- lic_instance_id_location&#45;&gt;run_dragen_variant_calling_stage_tumor -->
<g id="edge27" class="edge">
<title>lic_instance_id_location&#45;&gt;run_dragen_variant_calling_stage_tumor</title>
<path fill="none" stroke="black" d="M1751.23,-1442.04C1891.83,-1355.4 2525.39,-964.98 2684.94,-866.66"/>
<polygon fill="black" stroke="black" points="2687.22,-869.36 2693.9,-861.14 2683.55,-863.4 2687.22,-869.36"/>
</g>
<!-- ora_reference -->
<g id="node11" class="node">
<title>ora_reference</title>
<polygon fill="#94ddf4" stroke="black" points="940,-1442.13 940,-1478.13 1055,-1478.13 1055,-1442.13 940,-1442.13"/>
<text text-anchor="middle" x="997.5" y="-1456.43" font-family="Times,serif" font-size="14.00">ora_reference</text>
</g>
<!-- ora_reference&#45;&gt;run_dragen_alignment_stage -->
<g id="edge28" class="edge">
<title>ora_reference&#45;&gt;run_dragen_alignment_stage</title>
<path fill="none" stroke="black" d="M1020.6,-1442.08C1033.44,-1432.68 1049.76,-1420.88 1064.5,-1410.63 1196.3,-1318.95 1356.01,-1214.16 1425.45,-1168.91"/>
<polygon fill="black" stroke="black" points="1427.38,-1171.82 1433.85,-1163.43 1423.56,-1165.96 1427.38,-1171.82"/>
</g>
<!-- ora_reference&#45;&gt;run_dragen_alignment_stage_normal_somatic_reference -->
<g id="edge29" class="edge">
<title>ora_reference&#45;&gt;run_dragen_alignment_stage_normal_somatic_reference</title>
<path fill="none" stroke="black" d="M1017.14,-1442.08C1029.91,-1431.75 1047.33,-1418.98 1064.5,-1410.63 1341.36,-1275.97 1699.13,-1198.02 1877.35,-1164.98"/>
<polygon fill="black" stroke="black" points="1878.06,-1168.41 1887.26,-1163.16 1876.79,-1161.53 1878.06,-1168.41"/>
</g>
<!-- ora_reference&#45;&gt;run_dragen_alignment_stage_tumor -->
<g id="edge30" class="edge">
<title>ora_reference&#45;&gt;run_dragen_alignment_stage_tumor</title>
<path fill="none" stroke="black" d="M1018.33,-1442C1031.13,-1432.01 1048.15,-1419.64 1064.5,-1410.63 1271.37,-1296.57 1537.77,-1205.23 1659.1,-1166.38"/>
<polygon fill="black" stroke="black" points="1660.52,-1169.6 1668.98,-1163.23 1658.39,-1162.93 1660.52,-1169.6"/>
</g>
<!-- reference -->
<g id="node12" class="node">
<title>reference</title>
<polygon fill="#94ddf4" stroke="black" points="1998,-1442.13 1998,-1478.13 2083,-1478.13 2083,-1442.13 1998,-1442.13"/>
<text text-anchor="middle" x="2040.5" y="-1456.43" font-family="Times,serif" font-size="14.00">reference</text>
</g>
<!-- reference&#45;&gt;run_dragen_alignment_stage -->
<g id="edge31" class="edge">
<title>reference&#45;&gt;run_dragen_alignment_stage</title>
<path fill="none" stroke="black" d="M2025.05,-1442.08C2015.45,-1432.12 2002.5,-1419.75 1989.5,-1410.63 1829.06,-1298.03 1613.75,-1206.28 1514.61,-1166.9"/>
<polygon fill="black" stroke="black" points="1515.69,-1163.56 1505.1,-1163.14 1513.11,-1170.07 1515.69,-1163.56"/>
</g>
<!-- reference&#45;&gt;run_dragen_alignment_stage_normal_somatic_reference -->
<g id="edge32" class="edge">
<title>reference&#45;&gt;run_dragen_alignment_stage_normal_somatic_reference</title>
<path fill="none" stroke="black" d="M2034.33,-1441.85C2021.41,-1390.23 1995.68,-1236.79 1989.05,-1173.7"/>
<polygon fill="black" stroke="black" points="1992.49,-1172.97 1988.06,-1163.35 1985.52,-1173.64 1992.49,-1172.97"/>
</g>
<!-- reference&#45;&gt;run_dragen_alignment_stage_normal_somatic_reference -->
<g id="edge33" class="edge">
<title>reference&#45;&gt;run_dragen_alignment_stage_normal_somatic_reference</title>
<path fill="none" stroke="black" d="M2040.93,-1441.85C2036.69,-1390.12 2011.34,-1236.16 1997.03,-1173.31"/>
<polygon fill="black" stroke="black" points="2000.38,-1172.27 1994.66,-1163.35 1993.57,-1173.89 2000.38,-1172.27"/>
</g>
<!-- reference&#45;&gt;run_dragen_alignment_stage_tumor -->
<g id="edge34" class="edge">
<title>reference&#45;&gt;run_dragen_alignment_stage_tumor</title>
<path fill="none" stroke="black" d="M2023.06,-1441.85C1970.08,-1389.38 1810.87,-1231.68 1749.24,-1170.64"/>
<polygon fill="black" stroke="black" points="1751.45,-1167.9 1741.89,-1163.35 1746.53,-1172.87 1751.45,-1167.9"/>
</g>
<!-- reference&#45;&gt;run_dragen_variant_calling_stage -->
<g id="edge35" class="edge">
<title>reference&#45;&gt;run_dragen_variant_calling_stage</title>
<path fill="none" stroke="black" d="M2056.9,-1441.83C2066.7,-1432.02 2079.7,-1419.89 2092.5,-1410.63 2275.32,-1278.36 2910.56,-952.8 3081.73,-865.8"/>
<polygon fill="black" stroke="black" points="3083.37,-868.89 3090.7,-861.24 3080.2,-862.65 3083.37,-868.89"/>
</g>
<!-- reference&#45;&gt;run_dragen_variant_calling_stage_tumor -->
<g id="edge36" class="edge">
<title>reference&#45;&gt;run_dragen_variant_calling_stage_tumor</title>
<path fill="none" stroke="black" d="M2057.61,-1441.7C2067.43,-1432.08 2080.22,-1420.18 2092.5,-1410.63 2252.67,-1286.04 2327.21,-1301.07 2476.5,-1163.63 2579.04,-1069.22 2670.48,-928.05 2705.9,-870.23"/>
<polygon fill="black" stroke="black" points="2709.09,-871.74 2711.29,-861.38 2703.1,-868.1 2709.09,-871.74"/>
</g>
<!-- sample_name -->
<g id="node13" class="node">
<title>sample_name</title>
<polygon fill="#94ddf4" stroke="black" points="3828,-1442.13 3828,-1478.13 3941,-1478.13 3941,-1442.13 3828,-1442.13"/>
<text text-anchor="middle" x="3884.5" y="-1456.43" font-family="Times,serif" font-size="14.00">sample_name</text>
</g>
<!-- sample_name&#45;&gt;run_dragen_alignment_stage -->
<g id="edge37" class="edge">
<title>sample_name&#45;&gt;run_dragen_alignment_stage</title>
<path fill="none" stroke="black" d="M3867.05,-1442.02C3854.8,-1431.1 3837.44,-1417.71 3819.5,-1410.63 2896.3,-1046.43 2583.19,-1282.34 1594,-1163.79"/>
<polygon fill="black" stroke="black" points="1594.15,-1160.28 1583.8,-1162.56 1593.31,-1167.23 1594.15,-1160.28"/>
</g>
<!-- sample_name&#45;&gt;run_dragen_alignment_stage_normal_somatic_reference -->
<g id="edge38" class="edge">
<title>sample_name&#45;&gt;run_dragen_alignment_stage_normal_somatic_reference</title>
<path fill="none" stroke="black" d="M3866.71,-1441.97C3854.43,-1431.18 3837.19,-1417.95 3819.5,-1410.63 3509.94,-1282.57 2489.05,-1187.58 2121.69,-1156.8"/>
<polygon fill="black" stroke="black" points="2121.8,-1153.3 2111.54,-1155.95 2121.21,-1160.27 2121.8,-1153.3"/>
</g>
<!-- sample_name&#45;&gt;run_dragen_variant_calling_stage -->
<g id="edge39" class="edge">
<title>sample_name&#45;&gt;run_dragen_variant_calling_stage</title>
<path fill="none" stroke="black" d="M3863.97,-1441.91C3851.58,-1432.02 3835.19,-1419.77 3819.5,-1410.63 3583.76,-1273.27 3448.52,-1358.44 3257.5,-1163.63 3173.37,-1077.83 3139.52,-931.1 3128.73,-871"/>
<polygon fill="black" stroke="black" points="3132.18,-870.4 3127.03,-861.14 3125.28,-871.59 3132.18,-870.4"/>
</g>
<!-- sample_name&#45;&gt;run_dragen_variant_calling_stage_tumor -->
<g id="edge40" class="edge">
<title>sample_name&#45;&gt;run_dragen_variant_calling_stage_tumor</title>
<path fill="none" stroke="black" d="M3864.33,-1442.02C3851.93,-1432.04 3835.41,-1419.68 3819.5,-1410.63 3570.23,-1268.91 3477.85,-1296 3223.5,-1163.63 3037.75,-1066.97 2831.45,-923.08 2753.58,-867.35"/>
<polygon fill="black" stroke="black" points="2755.32,-864.29 2745.16,-861.31 2751.24,-869.98 2755.32,-864.29"/>
</g>
<!-- sample_name&#45;&gt;run_multiqc -->
<g id="edge41" class="edge">
<title>sample_name&#45;&gt;run_multiqc</title>
<path fill="none" stroke="black" d="M3880.48,-1442.01C3868.18,-1330.53 3867.85,-707.88 3879.48,-568.72"/>
<polygon fill="black" stroke="black" points="3882.99,-568.78 3880.45,-558.5 3876.02,-568.12 3882.99,-568.78"/>
</g>
<!-- sample_name&#45;&gt;run_multiqc -->
<g id="edge42" class="edge">
<title>sample_name&#45;&gt;run_multiqc</title>
<path fill="none" stroke="black" d="M3884.5,-1442.01C3884.5,-1330.53 3884.5,-707.88 3884.5,-568.72"/>
<polygon fill="black" stroke="black" points="3888,-568.5 3884.5,-558.5 3881,-568.5 3888,-568.5"/>
</g>
<!-- sample_name&#45;&gt;run_multiqc -->
<g id="edge43" class="edge">
<title>sample_name&#45;&gt;run_multiqc</title>
<path fill="none" stroke="black" d="M3888.52,-1442.01C3900.82,-1330.53 3901.15,-707.88 3889.52,-568.72"/>
<polygon fill="black" stroke="black" points="3892.98,-568.12 3888.55,-558.5 3886.01,-568.78 3892.98,-568.12"/>
</g>
<!-- sequence_data -->
<g id="node14" class="node">
<title>sequence_data</title>
<polygon fill="#94ddf4" stroke="black" points="1263.5,-1442.13 1263.5,-1478.13 1385.5,-1478.13 1385.5,-1442.13 1263.5,-1442.13"/>
<text text-anchor="middle" x="1324.5" y="-1456.43" font-family="Times,serif" font-size="14.00">sequence_data</text>
</g>
<!-- sequence_data&#45;&gt;run_dragen_alignment_stage -->
<g id="edge44" class="edge">
<title>sequence_data&#45;&gt;run_dragen_alignment_stage</title>
<path fill="none" stroke="black" d="M1332.01,-1441.85C1354.58,-1389.91 1421.94,-1234.88 1449.03,-1172.53"/>
<polygon fill="black" stroke="black" points="1452.24,-1173.92 1453.02,-1163.35 1445.82,-1171.13 1452.24,-1173.92"/>
</g>
<!-- sequence_data&#45;&gt;run_dragen_alignment_stage_normal_somatic_reference -->
<g id="edge45" class="edge">
<title>sequence_data&#45;&gt;run_dragen_alignment_stage_normal_somatic_reference</title>
<path fill="none" stroke="black" d="M1346.82,-1442.07C1360.23,-1432.22 1377.88,-1419.98 1394.5,-1410.63 1584.36,-1303.82 1825.51,-1207.74 1932.74,-1166.91"/>
<polygon fill="black" stroke="black" points="1934.28,-1170.07 1942.39,-1163.25 1931.8,-1163.52 1934.28,-1170.07"/>
</g>
<!-- somatic_alignment_options -->
<g id="node15" class="node">
<title>somatic_alignment_options</title>
<polygon fill="#94ddf4" stroke="black" points="1403.5,-1442.13 1403.5,-1478.13 1613.5,-1478.13 1613.5,-1442.13 1403.5,-1442.13"/>
<text text-anchor="middle" x="1508.5" y="-1456.43" font-family="Times,serif" font-size="14.00">somatic_alignment_options</text>
</g>
<!-- somatic_alignment_options&#45;&gt;run_dragen_alignment_stage_normal_somatic_reference -->
<g id="edge46" class="edge">
<title>somatic_alignment_options&#45;&gt;run_dragen_alignment_stage_normal_somatic_reference</title>
<path fill="none" stroke="black" d="M1531.37,-1442.08C1607.91,-1389.25 1854.66,-1228.25 1950.27,-1168.64"/>
<polygon fill="black" stroke="black" points="1952.4,-1171.44 1959.05,-1163.19 1948.7,-1165.5 1952.4,-1171.44"/>
</g>
<!-- somatic_alignment_options&#45;&gt;run_dragen_alignment_stage_normal_somatic_reference -->
<g id="edge47" class="edge">
<title>somatic_alignment_options&#45;&gt;run_dragen_alignment_stage_normal_somatic_reference</title>
<path fill="none" stroke="black" d="M1537.93,-1442.08C1623.26,-1389.35 1869.47,-1228.9 1957.15,-1169"/>
<polygon fill="black" stroke="black" points="1959.35,-1171.74 1965.61,-1163.19 1955.39,-1165.97 1959.35,-1171.74"/>
</g>
<!-- somatic_alignment_options&#45;&gt;run_dragen_alignment_stage_tumor -->
<g id="edge48" class="edge">
<title>somatic_alignment_options&#45;&gt;run_dragen_alignment_stage_tumor</title>
<path fill="none" stroke="black" d="M1520.42,-1441.85C1556.42,-1389.7 1664.13,-1233.6 1706.81,-1171.77"/>
<polygon fill="black" stroke="black" points="1709.82,-1173.57 1712.62,-1163.35 1704.06,-1169.59 1709.82,-1173.57"/>
</g>
<!-- somatic_reference -->
<g id="node16" class="node">
<title>somatic_reference</title>
<polygon fill="#94ddf4" stroke="black" points="1833,-1442.13 1833,-1478.13 1980,-1478.13 1980,-1442.13 1833,-1442.13"/>
<text text-anchor="middle" x="1906.5" y="-1456.43" font-family="Times,serif" font-size="14.00">somatic_reference</text>
</g>
<!-- somatic_reference&#45;&gt;run_dragen_alignment_stage_normal_somatic_reference -->
<g id="edge49" class="edge">
<title>somatic_reference&#45;&gt;run_dragen_alignment_stage_normal_somatic_reference</title>
<path fill="none" stroke="black" d="M1907.72,-1441.85C1916.95,-1390.02 1957.19,-1235.52 1977.5,-1172.92"/>
<polygon fill="black" stroke="black" points="1980.84,-1173.94 1980.69,-1163.35 1974.2,-1171.73 1980.84,-1173.94"/>
</g>
<!-- somatic_reference&#45;&gt;run_dragen_alignment_stage_normal_somatic_reference -->
<g id="edge50" class="edge">
<title>somatic_reference&#45;&gt;run_dragen_alignment_stage_normal_somatic_reference</title>
<path fill="none" stroke="black" d="M1914.33,-1441.85C1932.23,-1390.12 1972.8,-1236.16 1985.39,-1173.31"/>
<polygon fill="black" stroke="black" points="1988.85,-1173.83 1987.28,-1163.35 1981.98,-1172.52 1988.85,-1173.83"/>
</g>
<!-- somatic_reference&#45;&gt;run_dragen_alignment_stage_tumor -->
<g id="edge51" class="edge">
<title>somatic_reference&#45;&gt;run_dragen_alignment_stage_tumor</title>
<path fill="none" stroke="black" d="M1896.46,-1441.85C1866.19,-1389.8 1775.74,-1234.24 1739.63,-1172.15"/>
<polygon fill="black" stroke="black" points="1742.57,-1170.23 1734.51,-1163.35 1736.51,-1173.75 1742.57,-1170.23"/>
</g>
<!-- somatic_reference&#45;&gt;run_dragen_variant_calling_stage_tumor -->
<g id="edge52" class="edge">
<title>somatic_reference&#45;&gt;run_dragen_variant_calling_stage_tumor</title>
<path fill="none" stroke="black" d="M1929.15,-1442.04C2043.74,-1355.57 2559.29,-966.53 2690.86,-867.25"/>
<polygon fill="black" stroke="black" points="2693.09,-869.95 2698.96,-861.14 2688.87,-864.37 2693.09,-869.95"/>
</g>
<!-- tumor_sample_name -->
<g id="node17" class="node">
<title>tumor_sample_name</title>
<polygon fill="#94ddf4" stroke="black" points="4706.5,-1442.13 4706.5,-1478.13 4870.5,-1478.13 4870.5,-1442.13 4706.5,-1442.13"/>
<text text-anchor="middle" x="4788.5" y="-1456.43" font-family="Times,serif" font-size="14.00">tumor_sample_name</text>
</g>
<!-- tumor_sample_name&#45;&gt;run_dragen_alignment_stage_tumor -->
<g id="edge53" class="edge">
<title>tumor_sample_name&#45;&gt;run_dragen_alignment_stage_tumor</title>
<path fill="none" stroke="black" d="M4763.03,-1441.95C4745.42,-1431 4721.01,-1417.6 4697.5,-1410.63 3485.61,-1051.36 3118.34,-1300.49 1857.99,-1163.77"/>
<polygon fill="black" stroke="black" points="1858.11,-1160.26 1847.79,-1162.65 1857.35,-1167.22 1858.11,-1160.26"/>
</g>
<!-- tumor_sample_name&#45;&gt;run_dragen_variant_calling_stage_tumor -->
<g id="edge54" class="edge">
<title>tumor_sample_name&#45;&gt;run_dragen_variant_calling_stage_tumor</title>
<path fill="none" stroke="black" d="M4762.05,-1442.11C4744.42,-1431.51 4720.37,-1418.46 4697.5,-1410.63 4083.14,-1200.35 3853.46,-1421.46 3257.5,-1163.63 3232.45,-1152.79 3231.23,-1141.73 3208.5,-1126.63 3048.82,-1020.59 2848.01,-911.24 2762.78,-865.87"/>
<polygon fill="black" stroke="black" points="2764.4,-862.77 2753.93,-861.17 2761.12,-868.95 2764.4,-862.77"/>
</g>
<!-- tumor_sample_name&#45;&gt;run_multiqc -->
<g id="edge55" class="edge">
<title>tumor_sample_name&#45;&gt;run_multiqc</title>
<path fill="none" stroke="black" d="M4767.62,-1442.01C4644.81,-1329.86 4024.66,-700.37 3904.44,-566.26"/>
<polygon fill="black" stroke="black" points="3906.81,-563.65 3897.55,-558.5 3901.57,-568.3 3906.81,-563.65"/>
</g>
<!-- tumor_sample_name&#45;&gt;run_multiqc -->
<g id="edge56" class="edge">
<title>tumor_sample_name&#45;&gt;run_multiqc</title>
<path fill="none" stroke="black" d="M4771.65,-1442.01C4661.09,-1329.75 4040.07,-699.11 3908.85,-565.86"/>
<polygon fill="black" stroke="black" points="3911.11,-563.16 3901.6,-558.5 3906.12,-568.08 3911.11,-563.16"/>
</g>
<!-- tumor_sample_name&#45;&gt;run_multiqc -->
<g id="edge57" class="edge">
<title>tumor_sample_name&#45;&gt;run_multiqc</title>
<path fill="none" stroke="black" d="M4775.67,-1442.01C4677.4,-1329.64 4055.49,-697.86 3913.2,-565.46"/>
<polygon fill="black" stroke="black" points="3915.37,-562.71 3905.65,-558.5 3910.63,-567.85 3915.37,-562.71"/>
</g>
<!-- tumor_sequence_data -->
<g id="node18" class="node">
<title>tumor_sequence_data</title>
<polygon fill="#94ddf4" stroke="black" points="1073.5,-1442.13 1073.5,-1478.13 1245.5,-1478.13 1245.5,-1442.13 1073.5,-1442.13"/>
<text text-anchor="middle" x="1159.5" y="-1456.43" font-family="Times,serif" font-size="14.00">tumor_sequence_data</text>
</g>
<!-- tumor_sequence_data&#45;&gt;run_dragen_alignment_stage_tumor -->
<g id="edge58" class="edge">
<title>tumor_sequence_data&#45;&gt;run_dragen_alignment_stage_tumor</title>
<path fill="none" stroke="black" d="M1187,-1442.08C1278.25,-1389.03 1570.7,-1226.95 1681.51,-1167.92"/>
<polygon fill="black" stroke="black" points="1683.22,-1170.98 1690.41,-1163.19 1679.94,-1164.79 1683.22,-1170.98"/>
</g>
<!-- tumor_sequence_data&#45;&gt;run_dragen_alignment_stage_tumor -->
<g id="edge59" class="edge">
<title>tumor_sequence_data&#45;&gt;run_dragen_alignment_stage_tumor</title>
<path fill="none" stroke="black" d="M1193.56,-1442.08C1293.61,-1389.14 1585.33,-1227.6 1688.19,-1168.28"/>
<polygon fill="black" stroke="black" points="1690.08,-1171.23 1696.98,-1163.19 1686.57,-1165.18 1690.08,-1171.23"/>
</g>
<!-- cnv_caller_options -->
<g id="node19" class="node">
<title>cnv_caller_options</title>
<polygon fill="#94ddf4" stroke="black" points="4339,-1442.13 4339,-1478.13 4486,-1478.13 4486,-1442.13 4339,-1442.13"/>
<text text-anchor="middle" x="4412.5" y="-1456.43" font-family="Times,serif" font-size="14.00">cnv_caller_options</text>
</g>
<!-- cnv_caller_options&#45;&gt;run_dragen_variant_calling_stage -->
<g id="edge60" class="edge">
<title>cnv_caller_options&#45;&gt;run_dragen_variant_calling_stage</title>
<path fill="none" stroke="black" d="M4384.4,-1441.94C4368.47,-1432.39 4348.07,-1420.49 4329.5,-1410.63 4105.28,-1291.6 4030.66,-1296.74 3814.5,-1163.63 3791.56,-1149.51 3789.66,-1140.38 3766.5,-1126.63 3563.5,-1006.15 3299.82,-906.15 3183.75,-864.69"/>
<polygon fill="black" stroke="black" points="3184.58,-861.27 3173.98,-861.22 3182.23,-867.87 3184.58,-861.27"/>
</g>
<!-- cnv_caller_options&#45;&gt;run_dragen_variant_calling_stage_tumor -->
<g id="edge61" class="edge">
<title>cnv_caller_options&#45;&gt;run_dragen_variant_calling_stage_tumor</title>
<path fill="none" stroke="black" d="M4384.9,-1441.92C4368.96,-1432.26 4348.39,-1420.25 4329.5,-1410.63 4086.02,-1286.61 3987.62,-1324.16 3766.5,-1163.63 3748.67,-1150.68 3752.2,-1138.28 3733.5,-1126.63 3458.39,-955.16 3077.55,-885.62 2870.35,-859.12"/>
<polygon fill="black" stroke="black" points="2870.67,-855.63 2860.31,-857.85 2869.79,-862.58 2870.67,-855.63"/>
</g>
<!-- maf_conversion_options -->
<g id="node20" class="node">
<title>maf_conversion_options</title>
<polygon fill="#94ddf4" stroke="black" points="3392,-1442.13 3392,-1478.13 3579,-1478.13 3579,-1442.13 3392,-1442.13"/>
<text text-anchor="middle" x="3485.5" y="-1456.43" font-family="Times,serif" font-size="14.00">maf_conversion_options</text>
</g>
<!-- maf_conversion_options&#45;&gt;run_dragen_variant_calling_stage -->
<g id="edge62" class="edge">
<title>maf_conversion_options&#45;&gt;run_dragen_variant_calling_stage</title>
<path fill="none" stroke="black" d="M3458.07,-1442.06C3378.13,-1391.68 3148.63,-1242.21 3110.5,-1163.63 3062.59,-1064.87 3097.02,-928.11 3115.2,-870.93"/>
<polygon fill="black" stroke="black" points="3118.59,-871.8 3118.38,-861.21 3111.94,-869.62 3118.59,-871.8"/>
</g>
<!-- maf_conversion_options&#45;&gt;run_dragen_variant_calling_stage_tumor -->
<g id="edge63" class="edge">
<title>maf_conversion_options&#45;&gt;run_dragen_variant_calling_stage_tumor</title>
<path fill="none" stroke="black" d="M3461.68,-1441.99C3399.92,-1397.37 3229.93,-1273.45 3093.5,-1163.63 2960.85,-1056.85 2808.39,-921.88 2748.06,-867.96"/>
<polygon fill="black" stroke="black" points="2750.28,-865.26 2740.5,-861.2 2745.62,-870.48 2750.28,-865.26"/>
</g>
<!-- nirvana_annotation_options -->
<g id="node21" class="node">
<title>nirvana_annotation_options</title>
<polygon fill="#94ddf4" stroke="black" points="3597,-1442.13 3597,-1478.13 3810,-1478.13 3810,-1442.13 3597,-1442.13"/>
<text text-anchor="middle" x="3703.5" y="-1456.43" font-family="Times,serif" font-size="14.00">nirvana_annotation_options</text>
</g>
<!-- nirvana_annotation_options&#45;&gt;run_dragen_variant_calling_stage -->
<g id="edge64" class="edge">
<title>nirvana_annotation_options&#45;&gt;run_dragen_variant_calling_stage</title>
<path fill="none" stroke="black" d="M3664.37,-1441.96C3554.92,-1393.17 3249.49,-1251.56 3186.5,-1163.63 3121.14,-1072.39 3119.88,-930.38 3122.6,-871.32"/>
<polygon fill="black" stroke="black" points="3126.1,-871.46 3123.14,-861.29 3119.11,-871.09 3126.1,-871.46"/>
</g>
<!-- nirvana_annotation_options&#45;&gt;run_dragen_variant_calling_stage_tumor -->
<g id="edge65" class="edge">
<title>nirvana_annotation_options&#45;&gt;run_dragen_variant_calling_stage_tumor</title>
<path fill="none" stroke="black" d="M3668.85,-1442.07C3581.86,-1398.86 3348.05,-1280.19 3163.5,-1163.63 3002.33,-1061.84 2821.31,-922.56 2751.33,-867.7"/>
<polygon fill="black" stroke="black" points="2753.38,-864.86 2743.35,-861.44 2749.05,-870.37 2753.38,-864.86"/>
</g>
<!-- targeted_caller_options -->
<g id="node22" class="node">
<title>targeted_caller_options</title>
<polygon fill="#94ddf4" stroke="black" points="4504.5,-1442.13 4504.5,-1478.13 4688.5,-1478.13 4688.5,-1442.13 4504.5,-1442.13"/>
<text text-anchor="middle" x="4596.5" y="-1456.43" font-family="Times,serif" font-size="14.00">targeted_caller_options</text>
</g>
<!-- targeted_caller_options&#45;&gt;run_dragen_variant_calling_stage -->
<g id="edge66" class="edge">
<title>targeted_caller_options&#45;&gt;run_dragen_variant_calling_stage</title>
<path fill="none" stroke="black" d="M4562.13,-1442.04C4542.7,-1432.52 4517.88,-1420.62 4495.5,-1410.63 3988.06,-1184.17 3362.09,-937.02 3177.85,-864.93"/>
<polygon fill="black" stroke="black" points="3178.98,-861.61 3168.39,-861.23 3176.43,-868.13 3178.98,-861.61"/>
</g>
<!-- somatic_cnv_caller_options -->
<g id="node23" class="node">
<title>somatic_cnv_caller_options</title>
<polygon fill="#94ddf4" stroke="black" points="2101,-1442.13 2101,-1478.13 2310,-1478.13 2310,-1442.13 2101,-1442.13"/>
<text text-anchor="middle" x="2205.5" y="-1456.43" font-family="Times,serif" font-size="14.00">somatic_cnv_caller_options</text>
</g>
<!-- somatic_cnv_caller_options&#45;&gt;run_dragen_variant_calling_stage_tumor -->
<g id="edge67" class="edge">
<title>somatic_cnv_caller_options&#45;&gt;run_dragen_variant_calling_stage_tumor</title>
<path fill="none" stroke="black" d="M2232.26,-1441.98C2295.27,-1400.55 2455.19,-1289.1 2555.5,-1163.63 2632.83,-1066.91 2689.88,-928.55 2711.73,-870.92"/>
<polygon fill="black" stroke="black" points="2715.06,-872.03 2715.29,-861.44 2708.5,-869.57 2715.06,-872.03"/>
</g>
<!-- somatic_maf_conversion_options -->
<g id="node24" class="node">
<title>somatic_maf_conversion_options</title>
<polygon fill="#94ddf4" stroke="black" points="2328,-1442.13 2328,-1478.13 2577,-1478.13 2577,-1442.13 2328,-1442.13"/>
<text text-anchor="middle" x="2452.5" y="-1456.43" font-family="Times,serif" font-size="14.00">somatic_maf_conversion_options</text>
</g>
<!-- somatic_maf_conversion_options&#45;&gt;run_dragen_variant_calling_stage_tumor -->
<g id="edge68" class="edge">
<title>somatic_maf_conversion_options&#45;&gt;run_dragen_variant_calling_stage_tumor</title>
<path fill="none" stroke="black" d="M2468.68,-1442.12C2508.47,-1399.23 2611.51,-1281.67 2661.5,-1163.63 2704.73,-1061.56 2716.94,-928.04 2720.29,-871.42"/>
<polygon fill="black" stroke="black" points="2723.8,-871.32 2720.84,-861.15 2716.81,-870.94 2723.8,-871.32"/>
</g>
<!-- somatic_nirvana_annotation_options -->
<g id="node25" class="node">
<title>somatic_nirvana_annotation_options</title>
<polygon fill="#94ddf4" stroke="black" points="2595,-1442.13 2595,-1478.13 2870,-1478.13 2870,-1442.13 2595,-1442.13"/>
<text text-anchor="middle" x="2732.5" y="-1456.43" font-family="Times,serif" font-size="14.00">somatic_nirvana_annotation_options</text>
</g>
<!-- somatic_nirvana_annotation_options&#45;&gt;run_dragen_variant_calling_stage_tumor -->
<g id="edge69" class="edge">
<title>somatic_nirvana_annotation_options&#45;&gt;run_dragen_variant_calling_stage_tumor</title>
<path fill="none" stroke="black" d="M2732.19,-1442.04C2730.67,-1356.69 2723.87,-976.58 2721.99,-871.26"/>
<polygon fill="black" stroke="black" points="2725.48,-871.07 2721.8,-861.14 2718.48,-871.2 2725.48,-871.07"/>
</g>
<!-- somatic_snv_variant_caller_options -->
<g id="node26" class="node">
<title>somatic_snv_variant_caller_options</title>
<polygon fill="#94ddf4" stroke="black" points="2888,-1442.13 2888,-1478.13 3155,-1478.13 3155,-1442.13 2888,-1442.13"/>
<text text-anchor="middle" x="3021.5" y="-1456.43" font-family="Times,serif" font-size="14.00">somatic_snv_variant_caller_options</text>
</g>
<!-- somatic_snv_variant_caller_options&#45;&gt;run_dragen_variant_calling_stage_tumor -->
<g id="edge70" class="edge">
<title>somatic_snv_variant_caller_options&#45;&gt;run_dragen_variant_calling_stage_tumor</title>
<path fill="none" stroke="black" d="M3013.16,-1442.04C2971.4,-1356.43 2784.98,-974.27 2734.27,-870.31"/>
<polygon fill="black" stroke="black" points="2737.33,-868.59 2729.8,-861.14 2731.04,-871.66 2737.33,-868.59"/>
</g>
<!-- somatic_sv_caller_options -->
<g id="node27" class="node">
<title>somatic_sv_caller_options</title>
<polygon fill="#94ddf4" stroke="black" points="3173.5,-1442.13 3173.5,-1478.13 3373.5,-1478.13 3373.5,-1442.13 3173.5,-1442.13"/>
<text text-anchor="middle" x="3273.5" y="-1456.43" font-family="Times,serif" font-size="14.00">somatic_sv_caller_options</text>
</g>
<!-- somatic_sv_caller_options&#45;&gt;run_dragen_variant_calling_stage_tumor -->
<g id="edge71" class="edge">
<title>somatic_sv_caller_options&#45;&gt;run_dragen_variant_calling_stage_tumor</title>
<path fill="none" stroke="black" d="M3254.68,-1441.84C3206.6,-1397.36 3076.02,-1274.67 2976.5,-1163.63 2882.53,-1058.78 2781.06,-924.56 2740.15,-869.46"/>
<polygon fill="black" stroke="black" points="2742.88,-867.27 2734.12,-861.31 2737.26,-871.43 2742.88,-867.27"/>
</g>
<!-- alignment_options -->
<g id="node28" class="node">
<title>alignment_options</title>
<polygon fill="#94ddf4" stroke="black" points="773.5,-1442.13 773.5,-1478.13 921.5,-1478.13 921.5,-1442.13 773.5,-1442.13"/>
<text text-anchor="middle" x="847.5" y="-1456.43" font-family="Times,serif" font-size="14.00">alignment_options</text>
</g>
<!-- snv_variant_caller_options -->
<g id="node29" class="node">
<title>snv_variant_caller_options</title>
<polygon fill="#94ddf4" stroke="black" points="3959,-1442.13 3959,-1478.13 4164,-1478.13 4164,-1442.13 3959,-1442.13"/>
<text text-anchor="middle" x="4061.5" y="-1456.43" font-family="Times,serif" font-size="14.00">snv_variant_caller_options</text>
</g>
<!-- snv_variant_caller_options&#45;&gt;run_get_variant_calling_options_as_schemas_step -->
<g id="edge73" class="edge">
<title>snv_variant_caller_options&#45;&gt;run_get_variant_calling_options_as_schemas_step</title>
<path fill="none" stroke="black" d="M4030.67,-1442.08C3934.84,-1389.09 3642.24,-1227.28 3535.23,-1168.1"/>
<polygon fill="black" stroke="black" points="3536.81,-1164.97 3526.36,-1163.19 3533.42,-1171.1 3536.81,-1164.97"/>
</g>
<!-- sv_caller_options -->
<g id="node30" class="node">
<title>sv_caller_options</title>
<polygon fill="#94ddf4" stroke="black" points="4182.5,-1442.13 4182.5,-1478.13 4320.5,-1478.13 4320.5,-1442.13 4182.5,-1442.13"/>
<text text-anchor="middle" x="4251.5" y="-1456.43" font-family="Times,serif" font-size="14.00">sv_caller_options</text>
</g>
<!-- sv_caller_options&#45;&gt;run_get_variant_calling_options_as_schemas_step -->
<g id="edge74" class="edge">
<title>sv_caller_options&#45;&gt;run_get_variant_calling_options_as_schemas_step</title>
<path fill="none" stroke="black" d="M4226.54,-1441.96C4211.56,-1432.08 4191.89,-1419.84 4173.5,-1410.63 3955.14,-1301.32 3680.06,-1206.31 3558.35,-1166.3"/>
<polygon fill="black" stroke="black" points="3559.4,-1162.96 3548.81,-1163.17 3557.22,-1169.61 3559.4,-1162.96"/>
</g>
</g>
</svg>
