<?xml version="1.0" encoding="UTF-8" standalone="no"?>
<!DOCTYPE svg PUBLIC "-//W3C//DTD SVG 1.1//EN"
 "http://www.w3.org/Graphics/SVG/1.1/DTD/svg11.dtd">
<!-- Generated by graphviz version 2.43.0 (0)
 -->
<!-- Title: G Pages: 1 -->
<svg width="762pt" height="694pt"
 viewBox="0.00 0.00 762.00 694.14" xmlns="http://www.w3.org/2000/svg" xmlns:xlink="http://www.w3.org/1999/xlink">
<g id="graph0" class="graph" transform="scale(1 1) rotate(0) translate(4 690.14)">
<title>G</title>
<polygon fill="#eeeeee" stroke="transparent" points="-4,4 -4,-690.14 758,-690.14 758,4 -4,4"/>
<g id="clust1" class="cluster">
<title>cluster_inputs</title>
<polygon fill="#eeeeee" stroke="black" stroke-dasharray="5,2" points="8,-537.36 8,-672.14 564,-672.14 564,-537.36 8,-537.36"/>
<text text-anchor="middle" x="497.5" y="-545.16" font-family="Times,serif" font-size="14.00">Workflow Inputs</text>
</g>
<g id="clust2" class="cluster">
<title>cluster_outputs</title>
<polygon fill="#eeeeee" stroke="black" stroke-dasharray="5,2" points="231,-14 231,-148.78 746,-148.78 746,-14 231,-14"/>
<text text-anchor="middle" x="673.5" y="-21.8" font-family="Times,serif" font-size="14.00">Workflow Outputs</text>
</g>
<!-- instrument_run_id -->
<g id="node1" class="node">
<title>instrument_run_id</title>
<polygon fill="#94ddf4" stroke="black" points="408,-606.5 408,-643.5 556,-643.5 556,-606.5 408,-606.5"/>
<text text-anchor="middle" x="482" y="-621.3" font-family="Times,serif" font-size="14.00">instrument_run_id</text>
</g>
<!-- generate_interop_qc_step -->
<g id="node8" class="node">
<title>generate_interop_qc_step</title>
<polygon fill="lightgoldenrodyellow" stroke="black" points="255,-342.5 255,-379.5 445,-379.5 445,-342.5 255,-342.5"/>
<text text-anchor="middle" x="350" y="-357.3" font-family="Times,serif" font-size="14.00">illumina&#45;interop v(1.3.1)</text>
</g>
<!-- instrument_run_id&#45;&gt;generate_interop_qc_step -->
<g id="edge6" class="edge">
<title>instrument_run_id&#45;&gt;generate_interop_qc_step</title>
<path fill="none" stroke="black" d="M473.13,-606.41C450.5,-561.47 390.45,-442.29 363.46,-388.73"/>
<polygon fill="black" stroke="black" points="366.45,-386.88 358.83,-379.52 360.2,-390.03 366.45,-386.88"/>
</g>
<!-- run_multiqc_step -->
<g id="node9" class="node">
<title>run_multiqc_step</title>
<polygon fill="lightgoldenrodyellow" stroke="black" points="412.5,-212.5 412.5,-249.5 551.5,-249.5 551.5,-212.5 412.5,-212.5"/>
<text text-anchor="middle" x="482" y="-227.3" font-family="Times,serif" font-size="14.00">multiqc v(1.25.0)</text>
</g>
<!-- instrument_run_id&#45;&gt;run_multiqc_step -->
<g id="edge7" class="edge">
<title>instrument_run_id&#45;&gt;run_multiqc_step</title>
<path fill="none" stroke="black" d="M478.99,-606.4C474.24,-544.35 474.01,-335.48 478.32,-259.74"/>
<polygon fill="black" stroke="black" points="481.83,-259.77 478.99,-249.56 474.84,-259.31 481.83,-259.77"/>
</g>
<!-- instrument_run_id&#45;&gt;run_multiqc_step -->
<g id="edge8" class="edge">
<title>instrument_run_id&#45;&gt;run_multiqc_step</title>
<path fill="none" stroke="black" d="M485.01,-606.4C489.76,-544.35 489.99,-335.48 485.68,-259.74"/>
<polygon fill="black" stroke="black" points="489.16,-259.31 485.01,-249.56 482.17,-259.77 489.16,-259.31"/>
</g>
<!-- interop_directory -->
<g id="node2" class="node">
<title>interop_directory</title>
<polygon fill="#94ddf4" stroke="black" points="250,-606.5 250,-643.5 390,-643.5 390,-606.5 250,-606.5"/>
<text text-anchor="middle" x="320" y="-621.3" font-family="Times,serif" font-size="14.00">interop_directory</text>
</g>
<!-- interop_directory&#45;&gt;generate_interop_qc_step -->
<g id="edge9" class="edge">
<title>interop_directory&#45;&gt;generate_interop_qc_step</title>
<path fill="none" stroke="black" d="M324.18,-606.19C329.28,-583.69 337.76,-543.71 342,-509 347.06,-467.65 348.92,-419.37 349.6,-389.74"/>
<polygon fill="black" stroke="black" points="353.1,-389.79 349.8,-379.72 346.1,-389.65 353.1,-389.79"/>
</g>
<!-- bclconvert_report_directory -->
<g id="node3" class="node">
<title>bclconvert_report_directory</title>
<polygon fill="#94ddf4" stroke="black" points="16.5,-606.5 16.5,-643.5 231.5,-643.5 231.5,-606.5 16.5,-606.5"/>
<text text-anchor="middle" x="124" y="-621.3" font-family="Times,serif" font-size="14.00">bclconvert_report_directory</text>
</g>
<!-- get_run_info_xml_file_from_reports_dir -->
<g id="node7" class="node">
<title>get_run_info_xml_file_from_reports_dir</title>
<polygon fill="lightgoldenrodyellow" stroke="black" points="100.5,-471.5 100.5,-508.5 333.5,-508.5 333.5,-471.5 100.5,-471.5"/>
<text text-anchor="middle" x="217" y="-486.3" font-family="Times,serif" font-size="14.00">get&#45;file&#45;from&#45;directory v(1.0.1)</text>
</g>
<!-- bclconvert_report_directory&#45;&gt;get_run_info_xml_file_from_reports_dir -->
<g id="edge10" class="edge">
<title>bclconvert_report_directory&#45;&gt;get_run_info_xml_file_from_reports_dir</title>
<path fill="none" stroke="black" d="M136.35,-606.34C152.33,-583.49 180.31,-543.48 198.74,-517.11"/>
<polygon fill="black" stroke="black" points="201.74,-518.94 204.6,-508.74 196,-514.93 201.74,-518.94"/>
</g>
<!-- bclconvert_report_directory&#45;&gt;run_multiqc_step -->
<g id="edge11" class="edge">
<title>bclconvert_report_directory&#45;&gt;run_multiqc_step</title>
<path fill="none" stroke="black" d="M113.14,-606.21C96.69,-576.8 69.55,-516.77 91,-471 149.19,-346.86 306.22,-281.55 402.65,-252.12"/>
<polygon fill="black" stroke="black" points="403.79,-255.43 412.37,-249.22 401.78,-248.73 403.79,-255.43"/>
</g>
<!-- interop_output_dir -->
<g id="node4" class="node">
<title>interop_output_dir</title>
<polygon fill="#94ddf4" stroke="black" points="238.5,-83.5 238.5,-120.5 387.5,-120.5 387.5,-83.5 238.5,-83.5"/>
<text text-anchor="middle" x="313" y="-98.3" font-family="Times,serif" font-size="14.00">interop_output_dir</text>
</g>
<!-- multiqc_html_report -->
<g id="node5" class="node">
<title>multiqc_html_report</title>
<polygon fill="#94ddf4" stroke="black" points="576,-83.5 576,-120.5 738,-120.5 738,-83.5 576,-83.5"/>
<text text-anchor="middle" x="657" y="-98.3" font-family="Times,serif" font-size="14.00">multiqc_html_report</text>
</g>
<!-- multiqc_output_dir -->
<g id="node6" class="node">
<title>multiqc_output_dir</title>
<polygon fill="#94ddf4" stroke="black" points="406,-83.5 406,-120.5 558,-120.5 558,-83.5 406,-83.5"/>
<text text-anchor="middle" x="482" y="-98.3" font-family="Times,serif" font-size="14.00">multiqc_output_dir</text>
</g>
<!-- get_run_info_xml_file_from_reports_dir&#45;&gt;generate_interop_qc_step -->
<g id="edge1" class="edge">
<title>get_run_info_xml_file_from_reports_dir&#45;&gt;generate_interop_qc_step</title>
<path fill="none" stroke="black" d="M235.49,-471.34C258.62,-449.26 298.33,-411.34 324.38,-386.47"/>
<polygon fill="black" stroke="black" points="326.85,-388.95 331.66,-379.51 322.01,-383.89 326.85,-388.95"/>
</g>
<!-- generate_interop_qc_step&#45;&gt;interop_output_dir -->
<g id="edge3" class="edge">
<title>generate_interop_qc_step&#45;&gt;interop_output_dir</title>
<path fill="none" stroke="black" d="M347.46,-342.34C341.13,-298.41 324.66,-183.98 317.01,-130.86"/>
<polygon fill="black" stroke="black" points="320.45,-130.19 315.56,-120.79 313.52,-131.19 320.45,-130.19"/>
</g>
<!-- generate_interop_qc_step&#45;&gt;run_multiqc_step -->
<g id="edge2" class="edge">
<title>generate_interop_qc_step&#45;&gt;run_multiqc_step</title>
<path fill="none" stroke="black" d="M368.08,-342.47C390.96,-320.29 430.5,-281.94 456.46,-256.77"/>
<polygon fill="black" stroke="black" points="458.97,-259.21 463.72,-249.73 454.1,-254.18 458.97,-259.21"/>
</g>
<!-- run_multiqc_step&#45;&gt;multiqc_html_report -->
<g id="edge4" class="edge">
<title>run_multiqc_step&#45;&gt;multiqc_html_report</title>
<path fill="none" stroke="black" d="M506.33,-212.34C537.16,-189.98 590.37,-151.36 624.6,-126.51"/>
<polygon fill="black" stroke="black" points="626.84,-129.22 632.87,-120.51 622.72,-123.55 626.84,-129.22"/>
</g>
<!-- run_multiqc_step&#45;&gt;multiqc_output_dir -->
<g id="edge5" class="edge">
<title>run_multiqc_step&#45;&gt;multiqc_output_dir</title>
<path fill="none" stroke="black" d="M482,-212.34C482,-191.21 482,-155.56 482,-130.74"/>
<polygon fill="black" stroke="black" points="485.5,-130.51 482,-120.51 478.5,-130.51 485.5,-130.51"/>
</g>
<!-- \n -->
<g id="node10" class="node">
<title>\n</title>
<ellipse fill="none" stroke="black" cx="601" cy="-625" rx="27" ry="18"/>
</g>
</g>
</svg>
