<?xml version="1.0" encoding="UTF-8" standalone="no"?>
<!DOCTYPE svg PUBLIC "-//W3C//DTD SVG 1.1//EN"
 "http://www.w3.org/Graphics/SVG/1.1/DTD/svg11.dtd">
<!-- Generated by graphviz version 2.43.0 (0)
 -->
<!-- Title: G Pages: 1 -->
<svg width="779pt" height="779pt"
 viewBox="0.00 0.00 779.00 779.00" xmlns="http://www.w3.org/2000/svg" xmlns:xlink="http://www.w3.org/1999/xlink">
<g id="graph0" class="graph" transform="scale(1 1) rotate(0) translate(4 775)">
<title>G</title>
<polygon fill="#eeeeee" stroke="transparent" points="-4,4 -4,-775 775,-775 775,4 -4,4"/>
<g id="clust1" class="cluster">
<title>cluster_inputs</title>
<polygon fill="#eeeeee" stroke="black" stroke-dasharray="5,2" points="8,-501.15 8,-745.3 505,-745.3 505,-501.15 8,-501.15"/>
<text text-anchor="middle" x="438.5" y="-508.95" font-family="Times,serif" font-size="14.00">Workflow Inputs</text>
</g>
<g id="clust2" class="cluster">
<title>cluster_outputs</title>
<polygon fill="#eeeeee" stroke="black" stroke-dasharray="5,2" points="103,-25.7 103,-269.85 763,-269.85 763,-25.7 103,-25.7"/>
<text text-anchor="middle" x="690.5" y="-33.5" font-family="Times,serif" font-size="14.00">Workflow Outputs</text>
</g>
<!-- bclconvert_run_configuration -->
<g id="node1" class="node">
<title>bclconvert_run_configuration</title>
<polygon fill="#94ddf4" stroke="black" points="273,-641.7 273,-677.7 497,-677.7 497,-641.7 273,-641.7"/>
<text text-anchor="middle" x="385" y="-656" font-family="Times,serif" font-size="14.00">bclconvert_run_configuration</text>
</g>
<!-- bcl_convert_run_step -->
<g id="node3" class="node">
<title>bcl_convert_run_step</title>
<ellipse fill="none" stroke="black" cx="385" cy="-417.7" rx="108.58" ry="18"/>
<text text-anchor="middle" x="385" y="-414" font-family="Times,serif" font-size="14.00">bcl_convert_run_step</text>
</g>
<!-- bclconvert_run_configuration&#45;&gt;bcl_convert_run_step -->
<g id="edge1" class="edge">
<title>bclconvert_run_configuration&#45;&gt;bcl_convert_run_step</title>
<path fill="none" stroke="black" d="M303.93,-641.63C213.8,-597.38 214.03,-479.34 304.59,-435.44"/>
<polygon fill="black" stroke="black" points="306.21,-438.56 313.94,-431.31 303.37,-432.15 306.21,-438.56"/>
</g>
<!-- bclconvert_run_configuration&#45;&gt;bcl_convert_run_step -->
<g id="edge2" class="edge">
<title>bclconvert_run_configuration&#45;&gt;bcl_convert_run_step</title>
<path fill="none" stroke="black" d="M311.3,-641.63C230.09,-597.77 229.57,-481.42 309.73,-436.63"/>
<polygon fill="black" stroke="black" points="311.48,-439.67 318.81,-432.02 308.31,-433.42 311.48,-439.67"/>
</g>
<!-- bclconvert_run_configuration&#45;&gt;bcl_convert_run_step -->
<g id="edge3" class="edge">
<title>bclconvert_run_configuration&#45;&gt;bcl_convert_run_step</title>
<path fill="none" stroke="black" d="M318.67,-641.63C246.31,-598.21 245.13,-483.72 315.13,-437.98"/>
<polygon fill="black" stroke="black" points="317.18,-440.84 324.02,-432.75 313.63,-434.81 317.18,-440.84"/>
</g>
<!-- bclconvert_run_configuration&#45;&gt;bcl_convert_run_step -->
<g id="edge4" class="edge">
<title>bclconvert_run_configuration&#45;&gt;bcl_convert_run_step</title>
<path fill="none" stroke="black" d="M326.04,-641.63C262.28,-598.59 260.7,-485.73 321.27,-439.2"/>
<polygon fill="black" stroke="black" points="323.54,-441.89 329.8,-433.35 319.58,-436.12 323.54,-441.89"/>
</g>
<!-- bclconvert_run_configuration&#45;&gt;bcl_convert_run_step -->
<g id="edge5" class="edge">
<title>bclconvert_run_configuration&#45;&gt;bcl_convert_run_step</title>
<path fill="none" stroke="black" d="M333.41,-641.63C278.12,-598.97 276.26,-487.72 327.85,-440.45"/>
<polygon fill="black" stroke="black" points="330.29,-442.98 335.84,-433.96 325.87,-437.54 330.29,-442.98"/>
</g>
<!-- bclconvert_run_configuration&#45;&gt;bcl_convert_run_step -->
<g id="edge6" class="edge">
<title>bclconvert_run_configuration&#45;&gt;bcl_convert_run_step</title>
<path fill="none" stroke="black" d="M340.56,-641.44C293.78,-599 291.89,-489.53 334.89,-441.67"/>
<polygon fill="black" stroke="black" points="337.48,-444.04 342.18,-434.54 332.58,-439.03 337.48,-444.04"/>
</g>
<!-- bclconvert_run_configuration&#45;&gt;bcl_convert_run_step -->
<g id="edge7" class="edge">
<title>bclconvert_run_configuration&#45;&gt;bcl_convert_run_step</title>
<path fill="none" stroke="black" d="M347.97,-641.44C309.24,-599.27 307.43,-490.96 342.55,-442.62"/>
<polygon fill="black" stroke="black" points="345.3,-444.78 349.01,-434.85 339.92,-440.3 345.3,-444.78"/>
</g>
<!-- bclconvert_run_configuration&#45;&gt;bcl_convert_run_step -->
<g id="edge8" class="edge">
<title>bclconvert_run_configuration&#45;&gt;bcl_convert_run_step</title>
<path fill="none" stroke="black" d="M355.38,-641.44C324.59,-599.55 322.97,-492.37 350.49,-443.57"/>
<polygon fill="black" stroke="black" points="353.44,-445.46 355.97,-435.17 347.58,-441.63 353.44,-445.46"/>
</g>
<!-- bclconvert_run_configuration&#45;&gt;bcl_convert_run_step -->
<g id="edge9" class="edge">
<title>bclconvert_run_configuration&#45;&gt;bcl_convert_run_step</title>
<path fill="none" stroke="black" d="M362.78,-641.44C339.85,-599.82 338.49,-493.77 358.71,-444.54"/>
<polygon fill="black" stroke="black" points="361.89,-446.02 363.05,-435.48 355.57,-442.99 361.89,-446.02"/>
</g>
<!-- bclconvert_run_configuration&#45;&gt;bcl_convert_run_step -->
<g id="edge10" class="edge">
<title>bclconvert_run_configuration&#45;&gt;bcl_convert_run_step</title>
<path fill="none" stroke="black" d="M370.19,-641.44C355,-600.1 354.01,-495.16 367.21,-445.52"/>
<polygon fill="black" stroke="black" points="370.61,-446.39 370.25,-435.8 363.92,-444.31 370.61,-446.39"/>
</g>
<!-- bclconvert_run_configuration&#45;&gt;bcl_convert_run_step -->
<g id="edge11" class="edge">
<title>bclconvert_run_configuration&#45;&gt;bcl_convert_run_step</title>
<path fill="none" stroke="black" d="M377.59,-641.44C370.02,-600.19 369.51,-495.6 376.06,-445.83"/>
<polygon fill="black" stroke="black" points="379.55,-446.22 377.62,-435.8 372.63,-445.15 379.55,-446.22"/>
</g>
<!-- bclconvert_run_configuration&#45;&gt;bcl_convert_run_step -->
<g id="edge12" class="edge">
<title>bclconvert_run_configuration&#45;&gt;bcl_convert_run_step</title>
<path fill="none" stroke="black" d="M385,-641.44C385,-600.19 385,-495.6 385,-445.83"/>
<polygon fill="black" stroke="black" points="388.5,-445.8 385,-435.8 381.5,-445.8 388.5,-445.8"/>
</g>
<!-- bclconvert_run_configuration&#45;&gt;bcl_convert_run_step -->
<g id="edge13" class="edge">
<title>bclconvert_run_configuration&#45;&gt;bcl_convert_run_step</title>
<path fill="none" stroke="black" d="M392.41,-641.44C399.98,-600.19 400.49,-495.6 393.94,-445.83"/>
<polygon fill="black" stroke="black" points="397.37,-445.15 392.38,-435.8 390.45,-446.22 397.37,-445.15"/>
</g>
<!-- bclconvert_run_configuration&#45;&gt;bcl_convert_run_step -->
<g id="edge14" class="edge">
<title>bclconvert_run_configuration&#45;&gt;bcl_convert_run_step</title>
<path fill="none" stroke="black" d="M399.81,-641.44C415,-600.1 415.99,-495.16 402.79,-445.52"/>
<polygon fill="black" stroke="black" points="406.08,-444.31 399.75,-435.8 399.39,-446.39 406.08,-444.31"/>
</g>
<!-- bclconvert_run_configuration&#45;&gt;bcl_convert_run_step -->
<g id="edge15" class="edge">
<title>bclconvert_run_configuration&#45;&gt;bcl_convert_run_step</title>
<path fill="none" stroke="black" d="M407.22,-641.44C430.15,-599.82 431.51,-493.77 411.29,-444.54"/>
<polygon fill="black" stroke="black" points="414.43,-442.99 406.95,-435.48 408.11,-446.02 414.43,-442.99"/>
</g>
<!-- bclconvert_run_configuration&#45;&gt;bcl_convert_run_step -->
<g id="edge16" class="edge">
<title>bclconvert_run_configuration&#45;&gt;bcl_convert_run_step</title>
<path fill="none" stroke="black" d="M414.62,-641.44C445.41,-599.55 447.03,-492.37 419.51,-443.57"/>
<polygon fill="black" stroke="black" points="422.42,-441.63 414.03,-435.17 416.56,-445.46 422.42,-441.63"/>
</g>
<!-- bclconvert_run_configuration&#45;&gt;bcl_convert_run_step -->
<g id="edge17" class="edge">
<title>bclconvert_run_configuration&#45;&gt;bcl_convert_run_step</title>
<path fill="none" stroke="black" d="M422.03,-641.44C460.76,-599.27 462.57,-490.96 427.45,-442.62"/>
<polygon fill="black" stroke="black" points="430.08,-440.3 420.99,-434.85 424.7,-444.78 430.08,-440.3"/>
</g>
<!-- bclconvert_run_configuration&#45;&gt;bcl_convert_run_step -->
<g id="edge18" class="edge">
<title>bclconvert_run_configuration&#45;&gt;bcl_convert_run_step</title>
<path fill="none" stroke="black" d="M429.44,-641.44C476.22,-599 478.11,-489.53 435.11,-441.67"/>
<polygon fill="black" stroke="black" points="437.42,-439.03 427.82,-434.54 432.52,-444.04 437.42,-439.03"/>
</g>
<!-- bclconvert_run_configuration&#45;&gt;bcl_convert_run_step -->
<g id="edge19" class="edge">
<title>bclconvert_run_configuration&#45;&gt;bcl_convert_run_step</title>
<path fill="none" stroke="black" d="M436.59,-641.63C491.88,-598.97 493.74,-487.72 442.15,-440.45"/>
<polygon fill="black" stroke="black" points="444.13,-437.54 434.16,-433.96 439.71,-442.98 444.13,-437.54"/>
</g>
<!-- bclconvert_run_configuration&#45;&gt;bcl_convert_run_step -->
<g id="edge20" class="edge">
<title>bclconvert_run_configuration&#45;&gt;bcl_convert_run_step</title>
<path fill="none" stroke="black" d="M443.96,-641.63C507.72,-598.59 509.3,-485.73 448.73,-439.2"/>
<polygon fill="black" stroke="black" points="450.42,-436.12 440.2,-433.35 446.46,-441.89 450.42,-436.12"/>
</g>
<!-- bclconvert_run_configuration&#45;&gt;bcl_convert_run_step -->
<g id="edge21" class="edge">
<title>bclconvert_run_configuration&#45;&gt;bcl_convert_run_step</title>
<path fill="none" stroke="black" d="M451.33,-641.63C523.69,-598.21 524.87,-483.72 454.87,-437.98"/>
<polygon fill="black" stroke="black" points="456.37,-434.81 445.98,-432.75 452.82,-440.84 456.37,-434.81"/>
</g>
<!-- bclconvert_run_configuration&#45;&gt;bcl_convert_run_step -->
<g id="edge22" class="edge">
<title>bclconvert_run_configuration&#45;&gt;bcl_convert_run_step</title>
<path fill="none" stroke="black" d="M458.7,-641.63C539.91,-597.77 540.43,-481.42 460.27,-436.63"/>
<polygon fill="black" stroke="black" points="461.69,-433.42 451.19,-432.02 458.52,-439.67 461.69,-433.42"/>
</g>
<!-- bclconvert_run_configuration&#45;&gt;bcl_convert_run_step -->
<g id="edge23" class="edge">
<title>bclconvert_run_configuration&#45;&gt;bcl_convert_run_step</title>
<path fill="none" stroke="black" d="M466.07,-641.63C556.2,-597.38 555.97,-479.34 465.41,-435.44"/>
<polygon fill="black" stroke="black" points="466.63,-432.15 456.06,-431.31 463.79,-438.56 466.63,-432.15"/>
</g>
<!-- bclconvert_run_input_directory -->
<g id="node2" class="node">
<title>bclconvert_run_input_directory</title>
<polygon fill="#94ddf4" stroke="black" points="15.5,-641.7 15.5,-677.7 254.5,-677.7 254.5,-641.7 15.5,-641.7"/>
<text text-anchor="middle" x="135" y="-656" font-family="Times,serif" font-size="14.00">bclconvert_run_input_directory</text>
</g>
<!-- bclconvert_run_input_directory&#45;&gt;bcl_convert_run_step -->
<g id="edge24" class="edge">
<title>bclconvert_run_input_directory&#45;&gt;bcl_convert_run_step</title>
<path fill="none" stroke="black" d="M152.98,-641.44C196.96,-599.22 310.04,-490.66 360.29,-442.42"/>
<polygon fill="black" stroke="black" points="362.73,-444.93 367.52,-435.48 357.88,-439.88 362.73,-444.93"/>
</g>
<!-- bcl_convert_directory_output -->
<g id="node4" class="node">
<title>bcl_convert_directory_output</title>
<polygon fill="#94ddf4" stroke="black" points="531,-166.7 531,-202.7 755,-202.7 755,-166.7 531,-166.7"/>
<text text-anchor="middle" x="643" y="-181" font-family="Times,serif" font-size="14.00">bcl_convert_directory_output</text>
</g>
<!-- bcl_convert_run_step&#45;&gt;bcl_convert_directory_output -->
<g id="edge25" class="edge">
<title>bcl_convert_run_step&#45;&gt;bcl_convert_directory_output</title>
<path fill="none" stroke="black" d="M403.97,-399.71C449.35,-359.08 564.28,-256.18 616.48,-209.45"/>
<polygon fill="black" stroke="black" points="618.89,-211.99 624,-202.71 614.22,-206.77 618.89,-211.99"/>
</g>
<!-- fastq_list_rows -->
<g id="node5" class="node">
<title>fastq_list_rows</title>
<polygon fill="#94ddf4" stroke="black" points="389.5,-166.7 389.5,-202.7 512.5,-202.7 512.5,-166.7 389.5,-166.7"/>
<text text-anchor="middle" x="451" y="-181" font-family="Times,serif" font-size="14.00">fastq_list_rows</text>
</g>
<!-- bcl_convert_run_step&#45;&gt;fastq_list_rows -->
<g id="edge26" class="edge">
<title>bcl_convert_run_step&#45;&gt;fastq_list_rows</title>
<path fill="none" stroke="black" d="M389.85,-399.71C401.22,-359.92 429.66,-260.38 443.37,-212.4"/>
<polygon fill="black" stroke="black" points="446.76,-213.29 446.14,-202.71 440.03,-211.36 446.76,-213.29"/>
</g>
<!-- run_info_out -->
<g id="node6" class="node">
<title>run_info_out</title>
<polygon fill="#94ddf4" stroke="black" points="266.5,-166.7 266.5,-202.7 371.5,-202.7 371.5,-166.7 266.5,-166.7"/>
<text text-anchor="middle" x="319" y="-181" font-family="Times,serif" font-size="14.00">run_info_out</text>
</g>
<!-- bcl_convert_run_step&#45;&gt;run_info_out -->
<g id="edge27" class="edge">
<title>bcl_convert_run_step&#45;&gt;run_info_out</title>
<path fill="none" stroke="black" d="M380.15,-399.71C368.78,-359.92 340.34,-260.38 326.63,-212.4"/>
<polygon fill="black" stroke="black" points="329.97,-211.36 323.86,-202.71 323.24,-213.29 329.97,-211.36"/>
</g>
<!-- samplesheet_out -->
<g id="node7" class="node">
<title>samplesheet_out</title>
<polygon fill="#94ddf4" stroke="black" points="111.5,-166.7 111.5,-202.7 248.5,-202.7 248.5,-166.7 111.5,-166.7"/>
<text text-anchor="middle" x="180" y="-181" font-family="Times,serif" font-size="14.00">samplesheet_out</text>
</g>
<!-- bcl_convert_run_step&#45;&gt;samplesheet_out -->
<g id="edge28" class="edge">
<title>bcl_convert_run_step&#45;&gt;samplesheet_out</title>
<path fill="none" stroke="black" d="M369.93,-399.71C334.09,-359.33 243.67,-257.45 201.85,-210.32"/>
<polygon fill="black" stroke="black" points="204.35,-207.87 195.1,-202.71 199.12,-212.51 204.35,-207.87"/>
</g>
</g>
</svg>
