<?xml version="1.0" encoding="UTF-8" standalone="no"?>
<!DOCTYPE svg PUBLIC "-//W3C//DTD SVG 1.1//EN"
 "http://www.w3.org/Graphics/SVG/1.1/DTD/svg11.dtd">
<!-- Generated by graphviz version 2.43.0 (0)
 -->
<!-- Title: G Pages: 1 -->
<svg width="1078pt" height="981pt"
 viewBox="0.00 0.00 1077.50 980.79" xmlns="http://www.w3.org/2000/svg" xmlns:xlink="http://www.w3.org/1999/xlink">
<g id="graph0" class="graph" transform="scale(1 1) rotate(0) translate(4 976.79)">
<title>G</title>
<polygon fill="#eeeeee" stroke="transparent" points="-4,4 -4,-976.79 1073.5,-976.79 1073.5,4 -4,4"/>
<g id="clust1" class="cluster">
<title>cluster_inputs</title>
<polygon fill="#eeeeee" stroke="black" stroke-dasharray="5,2" points="146,-712.55 146,-948.01 798,-948.01 798,-712.55 146,-712.55"/>
<text text-anchor="middle" x="731.5" y="-720.35" font-family="Times,serif" font-size="14.00">Workflow Inputs</text>
</g>
<g id="clust2" class="cluster">
<title>cluster_outputs</title>
<polygon fill="#eeeeee" stroke="black" stroke-dasharray="5,2" points="8,-24.78 8,-260.24 635,-260.24 635,-24.78 8,-24.78"/>
<text text-anchor="middle" x="562.5" y="-32.58" font-family="Times,serif" font-size="14.00">Workflow Outputs</text>
</g>
<!-- interop_qc_step -->
<g id="node1" class="node">
<title>interop_qc_step</title>
<polygon fill="lightgoldenrodyellow" stroke="black" points="576,-612.78 576,-648.78 766,-648.78 766,-612.78 576,-612.78"/>
<text text-anchor="middle" x="671" y="-627.08" font-family="Times,serif" font-size="14.00">illumina&#45;interop v(1.2.0)</text>
</g>
<!-- bclconvert_qc_step -->
<g id="node2" class="node">
<title>bclconvert_qc_step</title>
<polygon fill="lightgoldenrodyellow" stroke="black" points="399.5,-386.78 399.5,-422.78 538.5,-422.78 538.5,-386.78 399.5,-386.78"/>
<text text-anchor="middle" x="469" y="-401.08" font-family="Times,serif" font-size="14.00">multiqc v(1.14.0)</text>
</g>
<!-- interop_qc_step&#45;&gt;bclconvert_qc_step -->
<g id="edge1" class="edge">
<title>interop_qc_step&#45;&gt;bclconvert_qc_step</title>
<path fill="none" stroke="black" d="M655.48,-612.58C620.01,-573.25 532.87,-476.61 491.5,-430.74"/>
<polygon fill="black" stroke="black" points="493.86,-428.13 484.57,-423.05 488.67,-432.82 493.86,-428.13"/>
</g>
<!-- bclconvert_multiqc_out -->
<g id="node8" class="node">
<title>bclconvert_multiqc_out</title>
<polygon fill="#94ddf4" stroke="black" points="445,-159.78 445,-195.78 627,-195.78 627,-159.78 445,-159.78"/>
<text text-anchor="middle" x="536" y="-174.08" font-family="Times,serif" font-size="14.00">bclconvert_multiqc_out</text>
</g>
<!-- bclconvert_qc_step&#45;&gt;bclconvert_multiqc_out -->
<g id="edge11" class="edge">
<title>bclconvert_qc_step&#45;&gt;bclconvert_multiqc_out</title>
<path fill="none" stroke="black" d="M474.15,-386.5C485.77,-347.47 514.12,-252.27 528.03,-205.54"/>
<polygon fill="black" stroke="black" points="531.43,-206.4 530.93,-195.82 524.72,-204.4 531.43,-206.4"/>
</g>
<!-- run_bclconvert_step -->
<g id="node3" class="node">
<title>run_bclconvert_step</title>
<polygon fill="#f3cea1" stroke="black" points="193,-612.78 193,-648.78 399,-648.78 399,-612.78 193,-612.78"/>
<text text-anchor="middle" x="296" y="-627.08" font-family="Times,serif" font-size="14.00">bclconvert&#45;scatter v(4.0.3)</text>
</g>
<!-- run_bclconvert_step&#45;&gt;bclconvert_qc_step -->
<g id="edge2" class="edge">
<title>run_bclconvert_step&#45;&gt;bclconvert_qc_step</title>
<path fill="none" stroke="black" d="M309.29,-612.58C339.6,-573.33 413.99,-477.01 449.51,-431.02"/>
<polygon fill="black" stroke="black" points="452.32,-433.1 455.67,-423.05 446.78,-428.82 452.32,-433.1"/>
</g>
<!-- fastq_directories -->
<g id="node9" class="node">
<title>fastq_directories</title>
<polygon fill="#94ddf4" stroke="black" points="148.5,-159.78 148.5,-195.78 285.5,-195.78 285.5,-159.78 148.5,-159.78"/>
<text text-anchor="middle" x="217" y="-174.08" font-family="Times,serif" font-size="14.00">fastq_directories</text>
</g>
<!-- run_bclconvert_step&#45;&gt;fastq_directories -->
<g id="edge12" class="edge">
<title>run_bclconvert_step&#45;&gt;fastq_directories</title>
<path fill="none" stroke="black" d="M293,-612.66C281.01,-544.22 236.49,-290.04 221.76,-205.97"/>
<polygon fill="black" stroke="black" points="225.18,-205.18 220,-195.93 218.28,-206.38 225.18,-205.18"/>
</g>
<!-- fastq_list_rows -->
<g id="node10" class="node">
<title>fastq_list_rows</title>
<polygon fill="#94ddf4" stroke="black" points="303.5,-159.78 303.5,-195.78 426.5,-195.78 426.5,-159.78 303.5,-159.78"/>
<text text-anchor="middle" x="365" y="-174.08" font-family="Times,serif" font-size="14.00">fastq_list_rows</text>
</g>
<!-- run_bclconvert_step&#45;&gt;fastq_list_rows -->
<g id="edge13" class="edge">
<title>run_bclconvert_step&#45;&gt;fastq_list_rows</title>
<path fill="none" stroke="black" d="M298.62,-612.66C309.09,-544.22 347.98,-290.04 360.84,-205.97"/>
<polygon fill="black" stroke="black" points="364.32,-206.34 362.38,-195.93 357.4,-205.29 364.32,-206.34"/>
</g>
<!-- samplesheets -->
<g id="node11" class="node">
<title>samplesheets</title>
<polygon fill="#94ddf4" stroke="black" points="16,-159.78 16,-195.78 130,-195.78 130,-159.78 16,-159.78"/>
<text text-anchor="middle" x="73" y="-174.08" font-family="Times,serif" font-size="14.00">samplesheets</text>
</g>
<!-- run_bclconvert_step&#45;&gt;samplesheets -->
<g id="edge14" class="edge">
<title>run_bclconvert_step&#45;&gt;samplesheets</title>
<path fill="none" stroke="black" d="M287.53,-612.66C253.55,-543.94 126.99,-287.97 85.94,-204.95"/>
<polygon fill="black" stroke="black" points="89.05,-203.34 81.48,-195.93 82.77,-206.45 89.05,-203.34"/>
</g>
<!-- create_dummy_file_step -->
<g id="node4" class="node">
<title>create_dummy_file_step</title>
<polygon fill="lightgoldenrodyellow" stroke="black" points="808.5,-847.78 808.5,-883.78 1069.5,-883.78 1069.5,-847.78 808.5,-847.78"/>
<text text-anchor="middle" x="939" y="-862.08" font-family="Times,serif" font-size="14.00">custom&#45;create&#45;dummy&#45;file v(1.0.0)</text>
</g>
<!-- create_dummy_file_step&#45;&gt;interop_qc_step -->
<g id="edge4" class="edge">
<title>create_dummy_file_step&#45;&gt;interop_qc_step</title>
<path fill="none" stroke="black" d="M919.29,-847.65C872.15,-806.67 752.77,-702.88 698.55,-655.74"/>
<polygon fill="black" stroke="black" points="700.58,-652.86 690.74,-648.94 695.99,-658.15 700.58,-652.86"/>
</g>
<!-- create_dummy_file_step&#45;&gt;bclconvert_qc_step -->
<g id="edge3" class="edge">
<title>create_dummy_file_step&#45;&gt;bclconvert_qc_step</title>
<path fill="none" stroke="black" d="M930.85,-847.5C909.8,-804.09 849.92,-688.53 775,-612.28 693.87,-529.71 574.9,-460.86 511.87,-427.48"/>
<polygon fill="black" stroke="black" points="513.47,-424.36 502.99,-422.81 510.21,-430.56 513.47,-424.36"/>
</g>
<!-- runfolder_name -->
<g id="node5" class="node">
<title>runfolder_name</title>
<polygon fill="#94ddf4" stroke="black" points="404.5,-847.78 404.5,-883.78 533.5,-883.78 533.5,-847.78 404.5,-847.78"/>
<text text-anchor="middle" x="469" y="-862.08" font-family="Times,serif" font-size="14.00">runfolder_name</text>
</g>
<!-- runfolder_name&#45;&gt;bclconvert_qc_step -->
<g id="edge5" class="edge">
<title>runfolder_name&#45;&gt;bclconvert_qc_step</title>
<path fill="none" stroke="black" d="M463.45,-847.63C453.3,-778.33 452.87,-518.72 462.16,-433.25"/>
<polygon fill="black" stroke="black" points="465.64,-433.63 463.41,-423.27 458.69,-432.76 465.64,-433.63"/>
</g>
<!-- runfolder_name&#45;&gt;bclconvert_qc_step -->
<g id="edge6" class="edge">
<title>runfolder_name&#45;&gt;bclconvert_qc_step</title>
<path fill="none" stroke="black" d="M469,-847.63C469,-778.4 469,-519.25 469,-433.51"/>
<polygon fill="black" stroke="black" points="472.5,-433.27 469,-423.27 465.5,-433.27 472.5,-433.27"/>
</g>
<!-- runfolder_name&#45;&gt;bclconvert_qc_step -->
<g id="edge7" class="edge">
<title>runfolder_name&#45;&gt;bclconvert_qc_step</title>
<path fill="none" stroke="black" d="M474.55,-847.63C484.7,-778.33 485.13,-518.72 475.84,-433.25"/>
<polygon fill="black" stroke="black" points="479.31,-432.76 474.59,-423.27 472.36,-433.63 479.31,-432.76"/>
</g>
<!-- bclconvert_run_input_directory -->
<g id="node6" class="node">
<title>bclconvert_run_input_directory</title>
<polygon fill="#94ddf4" stroke="black" points="551.5,-847.78 551.5,-883.78 790.5,-883.78 790.5,-847.78 551.5,-847.78"/>
<text text-anchor="middle" x="671" y="-862.08" font-family="Times,serif" font-size="14.00">bclconvert_run_input_directory</text>
</g>
<!-- bclconvert_run_input_directory&#45;&gt;interop_qc_step -->
<g id="edge8" class="edge">
<title>bclconvert_run_input_directory&#45;&gt;interop_qc_step</title>
<path fill="none" stroke="black" d="M671,-847.65C671,-807.59 671,-707.54 671,-659.02"/>
<polygon fill="black" stroke="black" points="674.5,-658.94 671,-648.94 667.5,-658.94 674.5,-658.94"/>
</g>
<!-- bclconvert_run_input_directory&#45;&gt;run_bclconvert_step -->
<g id="edge9" class="edge">
<title>bclconvert_run_input_directory&#45;&gt;run_bclconvert_step</title>
<path fill="none" stroke="black" d="M643.43,-847.65C576.7,-806.2 406.57,-700.48 331.97,-654.13"/>
<polygon fill="black" stroke="black" points="333.7,-651.09 323.36,-648.79 330.01,-657.04 333.7,-651.09"/>
</g>
<!-- bclconvert_run_configurations -->
<g id="node7" class="node">
<title>bclconvert_run_configurations</title>
<polygon fill="#94ddf4" stroke="black" points="154,-847.78 154,-883.78 386,-883.78 386,-847.78 154,-847.78"/>
<text text-anchor="middle" x="270" y="-862.08" font-family="Times,serif" font-size="14.00">bclconvert_run_configurations</text>
</g>
<!-- bclconvert_run_configurations&#45;&gt;run_bclconvert_step -->
<g id="edge10" class="edge">
<title>bclconvert_run_configurations&#45;&gt;run_bclconvert_step</title>
<path fill="none" stroke="black" d="M271.91,-847.65C276.38,-807.59 287.55,-707.54 292.96,-659.02"/>
<polygon fill="black" stroke="black" points="296.45,-659.27 294.09,-648.94 289.5,-658.49 296.45,-659.27"/>
</g>
</g>
</svg>
