<?xml version="1.0" encoding="UTF-8" standalone="no"?>
<!DOCTYPE svg PUBLIC "-//W3C//DTD SVG 1.1//EN"
 "http://www.w3.org/Graphics/SVG/1.1/DTD/svg11.dtd">
<!-- Generated by graphviz version 2.43.0 (0)
 -->
<!-- Title: G Pages: 1 -->
<svg width="8537pt" height="2191pt"
 viewBox="0.00 0.00 8537.00 2191.42" xmlns="http://www.w3.org/2000/svg" xmlns:xlink="http://www.w3.org/1999/xlink">
<g id="graph0" class="graph" transform="scale(1 1) rotate(0) translate(4 2187.42)">
<title>G</title>
<polygon fill="#eeeeee" stroke="transparent" points="-4,4 -4,-2187.42 8533,-2187.42 8533,4 -4,4"/>
<g id="clust1" class="cluster">
<title>cluster_inputs</title>
<polygon fill="#eeeeee" stroke="black" stroke-dasharray="5,2" points="8,-1599.8 8,-2128.5 8465,-2128.5 8465,-1599.8 8,-1599.8"/>
<text text-anchor="middle" x="8398.5" y="-1607.6" font-family="Times,serif" font-size="14.00">Workflow Inputs</text>
</g>
<g id="clust2" class="cluster">
<title>cluster_outputs</title>
<polygon fill="#eeeeee" stroke="black" stroke-dasharray="5,2" points="3569,-54.93 3569,-583.62 4360,-583.62 4360,-54.93 3569,-54.93"/>
<text text-anchor="middle" x="4287.5" y="-62.73" font-family="Times,serif" font-size="14.00">Workflow Outputs</text>
</g>
<!-- output_file_prefix -->
<g id="node1" class="node">
<title>output_file_prefix</title>
<polygon fill="#94ddf4" stroke="black" points="16,-1924.43 16,-1961.43 156,-1961.43 156,-1924.43 16,-1924.43"/>
<text text-anchor="middle" x="86" y="-1939.23" font-family="Times,serif" font-size="14.00">output_file_prefix</text>
</g>
<!-- dragen_qc_step -->
<g id="node55" class="node">
<title>dragen_qc_step</title>
<polygon fill="lightgoldenrodyellow" stroke="black" points="16.5,-887.43 16.5,-924.43 155.5,-924.43 155.5,-887.43 16.5,-887.43"/>
<text text-anchor="middle" x="86" y="-902.23" font-family="Times,serif" font-size="14.00">multiqc v(1.14.0)</text>
</g>
<!-- output_file_prefix&#45;&gt;dragen_qc_step -->
<g id="edge7" class="edge">
<title>output_file_prefix&#45;&gt;dragen_qc_step</title>
<path fill="none" stroke="black" d="M82.16,-1924.4C69.6,-1802.86 69.29,-1085.98 81.22,-934.88"/>
<polygon fill="black" stroke="black" points="84.73,-934.89 82.14,-924.62 77.76,-934.27 84.73,-934.89"/>
</g>
<!-- output_file_prefix&#45;&gt;dragen_qc_step -->
<g id="edge8" class="edge">
<title>output_file_prefix&#45;&gt;dragen_qc_step</title>
<path fill="none" stroke="black" d="M86,-1924.4C86,-1802.86 86,-1085.98 86,-934.88"/>
<polygon fill="black" stroke="black" points="89.5,-934.62 86,-924.62 82.5,-934.62 89.5,-934.62"/>
</g>
<!-- output_file_prefix&#45;&gt;dragen_qc_step -->
<g id="edge9" class="edge">
<title>output_file_prefix&#45;&gt;dragen_qc_step</title>
<path fill="none" stroke="black" d="M89.84,-1924.4C102.4,-1802.86 102.71,-1085.98 90.78,-934.88"/>
<polygon fill="black" stroke="black" points="94.24,-934.27 89.86,-924.62 87.27,-934.89 94.24,-934.27"/>
</g>
<!-- run_dragen_germline_step -->
<g id="node56" class="node">
<title>run_dragen_germline_step</title>
<polygon fill="lightgoldenrodyellow" stroke="black" points="4086,-1395.43 4086,-1432.43 4280,-1432.43 4280,-1395.43 4086,-1395.43"/>
<text text-anchor="middle" x="4183" y="-1410.23" font-family="Times,serif" font-size="14.00">dragen&#45;germline v(4.0.3)</text>
</g>
<!-- output_file_prefix&#45;&gt;run_dragen_germline_step -->
<g id="edge10" class="edge">
<title>output_file_prefix&#45;&gt;run_dragen_germline_step</title>
<path fill="none" stroke="black" d="M108.8,-1924.27C124.12,-1913.37 145.23,-1900.14 166,-1892.93 922.11,-1630.56 3515.81,-1456.49 4075.85,-1421.45"/>
<polygon fill="black" stroke="black" points="4076.18,-1424.94 4085.94,-1420.82 4075.74,-1417.95 4076.18,-1424.94"/>
</g>
<!-- cnv_enable_self_normalization -->
<g id="node2" class="node">
<title>cnv_enable_self_normalization</title>
<polygon fill="#94ddf4" stroke="black" points="8050.5,-1924.43 8050.5,-1961.43 8283.5,-1961.43 8283.5,-1924.43 8050.5,-1924.43"/>
<text text-anchor="middle" x="8167" y="-1939.23" font-family="Times,serif" font-size="14.00">cnv_enable_self_normalization</text>
</g>
<!-- cnv_enable_self_normalization&#45;&gt;run_dragen_germline_step -->
<g id="edge11" class="edge">
<title>cnv_enable_self_normalization&#45;&gt;run_dragen_germline_step</title>
<path fill="none" stroke="black" d="M8129.52,-1924.38C8105.1,-1913.67 8072.28,-1900.61 8042,-1892.93 6587.32,-1523.94 4749.07,-1435.35 4290.36,-1418.41"/>
<polygon fill="black" stroke="black" points="4290.23,-1414.91 4280.11,-1418.04 4289.97,-1421.9 4290.23,-1414.91"/>
</g>
<!-- dbsnp_annotation -->
<g id="node3" class="node">
<title>dbsnp_annotation</title>
<polygon fill="#94ddf4" stroke="black" points="7889.5,-1924.43 7889.5,-1961.43 8032.5,-1961.43 8032.5,-1924.43 7889.5,-1924.43"/>
<text text-anchor="middle" x="7961" y="-1939.23" font-family="Times,serif" font-size="14.00">dbsnp_annotation</text>
</g>
<!-- dbsnp_annotation&#45;&gt;run_dragen_germline_step -->
<g id="edge12" class="edge">
<title>dbsnp_annotation&#45;&gt;run_dragen_germline_step</title>
<path fill="none" stroke="black" d="M7937.86,-1924.34C7922.32,-1913.48 7900.94,-1900.25 7880,-1892.93 7187.59,-1650.87 4822.8,-1462.71 4290.15,-1422.78"/>
<polygon fill="black" stroke="black" points="4290.4,-1419.29 4280.17,-1422.03 4289.88,-1426.27 4290.4,-1419.29"/>
</g>
<!-- dedup_min_qual -->
<g id="node4" class="node">
<title>dedup_min_qual</title>
<polygon fill="#94ddf4" stroke="black" points="7739,-1924.43 7739,-1961.43 7871,-1961.43 7871,-1924.43 7739,-1924.43"/>
<text text-anchor="middle" x="7805" y="-1939.23" font-family="Times,serif" font-size="14.00">dedup_min_qual</text>
</g>
<!-- dedup_min_qual&#45;&gt;run_dragen_germline_step -->
<g id="edge13" class="edge">
<title>dedup_min_qual&#45;&gt;run_dragen_germline_step</title>
<path fill="none" stroke="black" d="M7783.76,-1924.35C7769.46,-1913.48 7749.68,-1900.25 7730,-1892.93 7071.78,-1647.92 4810.14,-1462.89 4290.17,-1422.96"/>
<polygon fill="black" stroke="black" points="4290.29,-1419.46 4280.05,-1422.18 4289.76,-1426.44 4290.29,-1419.46"/>
</g>
<!-- enable_cnv -->
<g id="node5" class="node">
<title>enable_cnv</title>
<polygon fill="#94ddf4" stroke="black" points="7625.5,-1924.43 7625.5,-1961.43 7720.5,-1961.43 7720.5,-1924.43 7625.5,-1924.43"/>
<text text-anchor="middle" x="7673" y="-1939.23" font-family="Times,serif" font-size="14.00">enable_cnv</text>
</g>
<!-- enable_cnv&#45;&gt;run_dragen_germline_step -->
<g id="edge14" class="edge">
<title>enable_cnv&#45;&gt;run_dragen_germline_step</title>
<path fill="none" stroke="black" d="M7657.7,-1924.05C7647.35,-1913.21 7632.75,-1900.12 7617,-1892.93 6999.34,-1610.72 4802.81,-1454.65 4290.41,-1421.6"/>
<polygon fill="black" stroke="black" points="4290.28,-1418.08 4280.07,-1420.93 4289.83,-1425.07 4290.28,-1418.08"/>
</g>
<!-- enable_duplicate_marking -->
<g id="node6" class="node">
<title>enable_duplicate_marking</title>
<polygon fill="#94ddf4" stroke="black" points="7404.5,-1924.43 7404.5,-1961.43 7607.5,-1961.43 7607.5,-1924.43 7404.5,-1924.43"/>
<text text-anchor="middle" x="7506" y="-1939.23" font-family="Times,serif" font-size="14.00">enable_duplicate_marking</text>
</g>
<!-- enable_duplicate_marking&#45;&gt;run_dragen_germline_step -->
<g id="edge15" class="edge">
<title>enable_duplicate_marking&#45;&gt;run_dragen_germline_step</title>
<path fill="none" stroke="black" d="M7472.39,-1924.26C7450.82,-1913.64 7421.91,-1900.72 7395,-1892.93 6208.77,-1549.61 4700.97,-1443.85 4290.34,-1420.47"/>
<polygon fill="black" stroke="black" points="4290.44,-1416.97 4280.26,-1419.9 4290.04,-1423.96 4290.44,-1416.97"/>
</g>
<!-- enable_hla -->
<g id="node7" class="node">
<title>enable_hla</title>
<polygon fill="#94ddf4" stroke="black" points="7294,-1924.43 7294,-1961.43 7386,-1961.43 7386,-1924.43 7294,-1924.43"/>
<text text-anchor="middle" x="7340" y="-1939.23" font-family="Times,serif" font-size="14.00">enable_hla</text>
</g>
<!-- enable_hla&#45;&gt;run_dragen_germline_step -->
<g id="edge16" class="edge">
<title>enable_hla&#45;&gt;run_dragen_germline_step</title>
<path fill="none" stroke="black" d="M7324.99,-1924.13C7314.84,-1913.32 7300.5,-1900.23 7285,-1892.93 6732.86,-1632.77 4771.53,-1461.89 4290.23,-1423.26"/>
<polygon fill="black" stroke="black" points="4290.41,-1419.76 4280.16,-1422.45 4289.85,-1426.74 4290.41,-1419.76"/>
</g>
<!-- enable_map_align_output -->
<g id="node8" class="node">
<title>enable_map_align_output</title>
<polygon fill="#94ddf4" stroke="black" points="7078.5,-1924.43 7078.5,-1961.43 7275.5,-1961.43 7275.5,-1924.43 7078.5,-1924.43"/>
<text text-anchor="middle" x="7177" y="-1939.23" font-family="Times,serif" font-size="14.00">enable_map_align_output</text>
</g>
<!-- enable_map_align_output&#45;&gt;run_dragen_germline_step -->
<g id="edge17" class="edge">
<title>enable_map_align_output&#45;&gt;run_dragen_germline_step</title>
<path fill="none" stroke="black" d="M7144.31,-1924.38C7123.33,-1913.81 7095.2,-1900.89 7069,-1892.93 6014.48,-1572.46 4673.91,-1451.82 4290.04,-1422.51"/>
<polygon fill="black" stroke="black" points="4290.3,-1419.02 4280.06,-1421.75 4289.77,-1426 4290.3,-1419.02"/>
</g>
<!-- enable_sv -->
<g id="node9" class="node">
<title>enable_sv</title>
<polygon fill="#94ddf4" stroke="black" points="6974,-1924.43 6974,-1961.43 7060,-1961.43 7060,-1924.43 6974,-1924.43"/>
<text text-anchor="middle" x="7017" y="-1939.23" font-family="Times,serif" font-size="14.00">enable_sv</text>
</g>
<!-- enable_sv&#45;&gt;run_dragen_germline_step -->
<g id="edge18" class="edge">
<title>enable_sv&#45;&gt;run_dragen_germline_step</title>
<path fill="none" stroke="black" d="M7002.96,-1924.21C6993.42,-1913.43 6979.87,-1900.35 6965,-1892.93 6477.89,-1649.81 4740.79,-1468.65 4290.32,-1425.02"/>
<polygon fill="black" stroke="black" points="4290.53,-1421.53 4280.24,-1424.05 4289.86,-1428.49 4290.53,-1421.53"/>
</g>
<!-- fastq_list -->
<g id="node10" class="node">
<title>fastq_list</title>
<polygon fill="#94ddf4" stroke="black" points="6874,-1924.43 6874,-1961.43 6956,-1961.43 6956,-1924.43 6874,-1924.43"/>
<text text-anchor="middle" x="6915" y="-1939.23" font-family="Times,serif" font-size="14.00">fastq_list</text>
</g>
<!-- fastq_list&#45;&gt;run_dragen_germline_step -->
<g id="edge19" class="edge">
<title>fastq_list&#45;&gt;run_dragen_germline_step</title>
<path fill="none" stroke="black" d="M6901.62,-1924.23C6892.5,-1913.47 6879.48,-1900.39 6865,-1892.93 6399.24,-1652.91 4730.65,-1470.3 4290.23,-1425.52"/>
<polygon fill="black" stroke="black" points="4290.35,-1422.01 4280.05,-1424.49 4289.65,-1428.98 4290.35,-1422.01"/>
</g>
<!-- fastq_list_rows -->
<g id="node11" class="node">
<title>fastq_list_rows</title>
<polygon fill="#94ddf4" stroke="black" points="6732.5,-1924.43 6732.5,-1961.43 6855.5,-1961.43 6855.5,-1924.43 6732.5,-1924.43"/>
<text text-anchor="middle" x="6794" y="-1939.23" font-family="Times,serif" font-size="14.00">fastq_list_rows</text>
</g>
<!-- fastq_list_rows&#45;&gt;run_dragen_germline_step -->
<g id="edge20" class="edge">
<title>fastq_list_rows&#45;&gt;run_dragen_germline_step</title>
<path fill="none" stroke="black" d="M6773.61,-1924.41C6760.11,-1913.72 6741.52,-1900.65 6723,-1892.93 5833.62,-1522.09 4649.01,-1437.05 4290.32,-1419.28"/>
<polygon fill="black" stroke="black" points="4290.37,-1415.77 4280.21,-1418.78 4290.03,-1422.77 4290.37,-1415.77"/>
</g>
<!-- hla_allele_frequency_file -->
<g id="node12" class="node">
<title>hla_allele_frequency_file</title>
<polygon fill="#94ddf4" stroke="black" points="6524,-1924.43 6524,-1961.43 6714,-1961.43 6714,-1924.43 6524,-1924.43"/>
<text text-anchor="middle" x="6619" y="-1939.23" font-family="Times,serif" font-size="14.00">hla_allele_frequency_file</text>
</g>
<!-- hla_allele_frequency_file&#45;&gt;run_dragen_germline_step -->
<g id="edge21" class="edge">
<title>hla_allele_frequency_file&#45;&gt;run_dragen_germline_step</title>
<path fill="none" stroke="black" d="M6586.57,-1924.19C6566.46,-1913.82 6539.81,-1901.18 6515,-1892.93 5682.01,-1615.74 4625.75,-1469.44 4290.29,-1427.67"/>
<polygon fill="black" stroke="black" points="4290.46,-1424.16 4280.1,-1426.4 4289.59,-1431.11 4290.46,-1424.16"/>
</g>
<!-- hla_bed_file -->
<g id="node13" class="node">
<title>hla_bed_file</title>
<polygon fill="#94ddf4" stroke="black" points="6406,-1924.43 6406,-1961.43 6506,-1961.43 6506,-1924.43 6406,-1924.43"/>
<text text-anchor="middle" x="6456" y="-1939.23" font-family="Times,serif" font-size="14.00">hla_bed_file</text>
</g>
<!-- hla_bed_file&#45;&gt;run_dragen_germline_step -->
<g id="edge22" class="edge">
<title>hla_bed_file&#45;&gt;run_dragen_germline_step</title>
<path fill="none" stroke="black" d="M6439.01,-1923.99C6428,-1913.41 6412.8,-1900.62 6397,-1892.93 5647.19,-1528.09 4620.46,-1439.69 4290.05,-1420.1"/>
<polygon fill="black" stroke="black" points="4290.19,-1416.6 4280,-1419.51 4289.78,-1423.59 4290.19,-1416.6"/>
</g>
<!-- hla_min_reads -->
<g id="node14" class="node">
<title>hla_min_reads</title>
<polygon fill="#94ddf4" stroke="black" points="6268.5,-1924.43 6268.5,-1961.43 6387.5,-1961.43 6387.5,-1924.43 6268.5,-1924.43"/>
<text text-anchor="middle" x="6328" y="-1939.23" font-family="Times,serif" font-size="14.00">hla_min_reads</text>
</g>
<!-- hla_min_reads&#45;&gt;run_dragen_germline_step -->
<g id="edge23" class="edge">
<title>hla_min_reads&#45;&gt;run_dragen_germline_step</title>
<path fill="none" stroke="black" d="M6307.87,-1924.41C6294.76,-1913.84 6276.83,-1900.93 6259,-1892.93 5549.49,-1574.46 4604.88,-1456.66 4290.11,-1424.75"/>
<polygon fill="black" stroke="black" points="4290.38,-1421.26 4280.08,-1423.74 4289.68,-1428.22 4290.38,-1421.26"/>
</g>
<!-- hla_reference_file -->
<g id="node15" class="node">
<title>hla_reference_file</title>
<polygon fill="#94ddf4" stroke="black" points="6108,-1924.43 6108,-1961.43 6250,-1961.43 6250,-1924.43 6108,-1924.43"/>
<text text-anchor="middle" x="6179" y="-1939.23" font-family="Times,serif" font-size="14.00">hla_reference_file</text>
</g>
<!-- hla_reference_file&#45;&gt;run_dragen_germline_step -->
<g id="edge24" class="edge">
<title>hla_reference_file&#45;&gt;run_dragen_germline_step</title>
<path fill="none" stroke="black" d="M6154.83,-1924.43C6139.48,-1914.01 6118.83,-1901.24 6099,-1892.93 5441.14,-1617.09 4586.92,-1473.87 4290.14,-1429.91"/>
<polygon fill="black" stroke="black" points="4290.65,-1426.45 4280.25,-1428.45 4289.63,-1433.37 4290.65,-1426.45"/>
</g>
<!-- hla_tiebreaker_threshold -->
<g id="node16" class="node">
<title>hla_tiebreaker_threshold</title>
<polygon fill="#94ddf4" stroke="black" points="5896,-1924.43 5896,-1961.43 6090,-1961.43 6090,-1924.43 5896,-1924.43"/>
<text text-anchor="middle" x="5993" y="-1939.23" font-family="Times,serif" font-size="14.00">hla_tiebreaker_threshold</text>
</g>
<!-- hla_tiebreaker_threshold&#45;&gt;run_dragen_germline_step -->
<g id="edge25" class="edge">
<title>hla_tiebreaker_threshold&#45;&gt;run_dragen_germline_step</title>
<path fill="none" stroke="black" d="M5958.74,-1924.4C5938.26,-1914.35 5911.54,-1901.98 5887,-1892.93 5283.9,-1670.56 4528.54,-1492.41 4272.54,-1434.71"/>
<polygon fill="black" stroke="black" points="4273.07,-1431.25 4262.55,-1432.47 4271.54,-1438.08 4273.07,-1431.25"/>
</g>
<!-- hla_zygosity_threshold -->
<g id="node17" class="node">
<title>hla_zygosity_threshold</title>
<polygon fill="#94ddf4" stroke="black" points="5698.5,-1924.43 5698.5,-1961.43 5877.5,-1961.43 5877.5,-1924.43 5698.5,-1924.43"/>
<text text-anchor="middle" x="5788" y="-1939.23" font-family="Times,serif" font-size="14.00">hla_zygosity_threshold</text>
</g>
<!-- hla_zygosity_threshold&#45;&gt;run_dragen_germline_step -->
<g id="edge26" class="edge">
<title>hla_zygosity_threshold&#45;&gt;run_dragen_germline_step</title>
<path fill="none" stroke="black" d="M5755.92,-1924.29C5737.06,-1914.33 5712.56,-1902.08 5690,-1892.93 5156.81,-1676.62 4486.31,-1494.04 4260.93,-1435"/>
<polygon fill="black" stroke="black" points="4261.73,-1431.6 4251.17,-1432.45 4259.96,-1438.37 4261.73,-1431.6"/>
</g>
<!-- lic_instance_id_location -->
<g id="node18" class="node">
<title>lic_instance_id_location</title>
<polygon fill="#94ddf4" stroke="black" points="5497.5,-1924.43 5497.5,-1961.43 5680.5,-1961.43 5680.5,-1924.43 5497.5,-1924.43"/>
<text text-anchor="middle" x="5589" y="-1939.23" font-family="Times,serif" font-size="14.00">lic_instance_id_location</text>
</g>
<!-- lic_instance_id_location&#45;&gt;run_dragen_germline_step -->
<g id="edge27" class="edge">
<title>lic_instance_id_location&#45;&gt;run_dragen_germline_step</title>
<path fill="none" stroke="black" d="M5554.8,-1924.28C5535.42,-1914.54 5510.6,-1902.52 5488,-1892.93 5019.46,-1694.06 4436.95,-1498.36 4246.47,-1435.65"/>
<polygon fill="black" stroke="black" points="4247.48,-1432.29 4236.89,-1432.5 4245.3,-1438.94 4247.48,-1432.29"/>
</g>
<!-- output_directory -->
<g id="node19" class="node">
<title>output_directory</title>
<polygon fill="#94ddf4" stroke="black" points="5343,-1924.43 5343,-1961.43 5479,-1961.43 5479,-1924.43 5343,-1924.43"/>
<text text-anchor="middle" x="5411" y="-1939.23" font-family="Times,serif" font-size="14.00">output_directory</text>
</g>
<!-- output_directory&#45;&gt;run_dragen_germline_step -->
<g id="edge28" class="edge">
<title>output_directory&#45;&gt;run_dragen_germline_step</title>
<path fill="none" stroke="black" d="M5385.64,-1924.22C5370.94,-1914.36 5351.85,-1902.22 5334,-1892.93 4931.89,-1683.5 4416.92,-1496.67 4243.24,-1435.75"/>
<polygon fill="black" stroke="black" points="4244.35,-1432.43 4233.76,-1432.43 4242.04,-1439.04 4244.35,-1432.43"/>
</g>
<!-- qc_coverage_ignore_overlaps -->
<g id="node20" class="node">
<title>qc_coverage_ignore_overlaps</title>
<polygon fill="#94ddf4" stroke="black" points="5101,-1924.43 5101,-1961.43 5325,-1961.43 5325,-1924.43 5101,-1924.43"/>
<text text-anchor="middle" x="5213" y="-1939.23" font-family="Times,serif" font-size="14.00">qc_coverage_ignore_overlaps</text>
</g>
<!-- qc_coverage_ignore_overlaps&#45;&gt;run_dragen_germline_step -->
<g id="edge29" class="edge">
<title>qc_coverage_ignore_overlaps&#45;&gt;run_dragen_germline_step</title>
<path fill="none" stroke="black" d="M5178.73,-1924.39C5024.83,-1845.65 4397.64,-1524.75 4226.38,-1437.13"/>
<polygon fill="black" stroke="black" points="4227.9,-1433.97 4217.4,-1432.53 4224.71,-1440.2 4227.9,-1433.97"/>
</g>
<!-- qc_coverage_region_1 -->
<g id="node21" class="node">
<title>qc_coverage_region_1</title>
<polygon fill="#94ddf4" stroke="black" points="4909.5,-1924.43 4909.5,-1961.43 5082.5,-1961.43 5082.5,-1924.43 4909.5,-1924.43"/>
<text text-anchor="middle" x="4996" y="-1939.23" font-family="Times,serif" font-size="14.00">qc_coverage_region_1</text>
</g>
<!-- qc_coverage_region_1&#45;&gt;run_dragen_germline_step -->
<g id="edge30" class="edge">
<title>qc_coverage_region_1&#45;&gt;run_dragen_germline_step</title>
<path fill="none" stroke="black" d="M4968.95,-1924.39C4847.9,-1845.93 4355.86,-1526.98 4218.67,-1438.05"/>
<polygon fill="black" stroke="black" points="4220.45,-1435.03 4210.15,-1432.53 4216.64,-1440.91 4220.45,-1435.03"/>
</g>
<!-- qc_coverage_region_2 -->
<g id="node22" class="node">
<title>qc_coverage_region_2</title>
<polygon fill="#94ddf4" stroke="black" points="4718.5,-1924.43 4718.5,-1961.43 4891.5,-1961.43 4891.5,-1924.43 4718.5,-1924.43"/>
<text text-anchor="middle" x="4805" y="-1939.23" font-family="Times,serif" font-size="14.00">qc_coverage_region_2</text>
</g>
<!-- qc_coverage_region_2&#45;&gt;run_dragen_germline_step -->
<g id="edge31" class="edge">
<title>qc_coverage_region_2&#45;&gt;run_dragen_germline_step</title>
<path fill="none" stroke="black" d="M4784.3,-1924.39C4692.06,-1846.24 4318.25,-1529.52 4211.56,-1439.13"/>
<polygon fill="black" stroke="black" points="4213.67,-1436.32 4203.77,-1432.53 4209.14,-1441.66 4213.67,-1436.32"/>
</g>
<!-- qc_coverage_region_3 -->
<g id="node23" class="node">
<title>qc_coverage_region_3</title>
<polygon fill="#94ddf4" stroke="black" points="4527.5,-1924.43 4527.5,-1961.43 4700.5,-1961.43 4700.5,-1924.43 4527.5,-1924.43"/>
<text text-anchor="middle" x="4614" y="-1939.23" font-family="Times,serif" font-size="14.00">qc_coverage_region_3</text>
</g>
<!-- qc_coverage_region_3&#45;&gt;run_dragen_germline_step -->
<g id="edge32" class="edge">
<title>qc_coverage_region_3&#45;&gt;run_dragen_germline_step</title>
<path fill="none" stroke="black" d="M4599.66,-1924.39C4536.06,-1846.63 4279.31,-1532.69 4203.91,-1440.5"/>
<polygon fill="black" stroke="black" points="4206.43,-1438.05 4197.39,-1432.53 4201.02,-1442.49 4206.43,-1438.05"/>
</g>
<!-- reference_tar -->
<g id="node24" class="node">
<title>reference_tar</title>
<polygon fill="#94ddf4" stroke="black" points="4396.5,-1924.43 4396.5,-1961.43 4509.5,-1961.43 4509.5,-1924.43 4396.5,-1924.43"/>
<text text-anchor="middle" x="4453" y="-1939.23" font-family="Times,serif" font-size="14.00">reference_tar</text>
</g>
<!-- reference_tar&#45;&gt;run_dragen_germline_step -->
<g id="edge33" class="edge">
<title>reference_tar&#45;&gt;run_dragen_germline_step</title>
<path fill="none" stroke="black" d="M4444.02,-1924.39C4404.34,-1846.94 4244.63,-1535.21 4196.68,-1441.63"/>
<polygon fill="black" stroke="black" points="4199.69,-1439.83 4192.02,-1432.53 4193.46,-1443.02 4199.69,-1439.83"/>
</g>
<!-- sample_sex -->
<g id="node25" class="node">
<title>sample_sex</title>
<polygon fill="#94ddf4" stroke="black" points="4280,-1924.43 4280,-1961.43 4378,-1961.43 4378,-1924.43 4280,-1924.43"/>
<text text-anchor="middle" x="4329" y="-1939.23" font-family="Times,serif" font-size="14.00">sample_sex</text>
</g>
<!-- sample_sex&#45;&gt;run_dragen_germline_step -->
<g id="edge34" class="edge">
<title>sample_sex&#45;&gt;run_dragen_germline_step</title>
<path fill="none" stroke="black" d="M4324.14,-1924.39C4302.73,-1847.1 4216.67,-1536.47 4190.55,-1442.2"/>
<polygon fill="black" stroke="black" points="4193.92,-1441.23 4187.88,-1432.53 4187.17,-1443.1 4193.92,-1441.23"/>
</g>
<!-- sv_call_regions_bed -->
<g id="node26" class="node">
<title>sv_call_regions_bed</title>
<polygon fill="#94ddf4" stroke="black" points="4104.5,-1924.43 4104.5,-1961.43 4261.5,-1961.43 4261.5,-1924.43 4104.5,-1924.43"/>
<text text-anchor="middle" x="4183" y="-1939.23" font-family="Times,serif" font-size="14.00">sv_call_regions_bed</text>
</g>
<!-- sv_call_regions_bed&#45;&gt;run_dragen_germline_step -->
<g id="edge35" class="edge">
<title>sv_call_regions_bed&#45;&gt;run_dragen_germline_step</title>
<path fill="none" stroke="black" d="M4183,-1924.39C4183,-1847.26 4183,-1537.73 4183,-1442.77"/>
<polygon fill="black" stroke="black" points="4186.5,-1442.53 4183,-1432.53 4179.5,-1442.53 4186.5,-1442.53"/>
</g>
<!-- sv_discovery -->
<g id="node27" class="node">
<title>sv_discovery</title>
<polygon fill="#94ddf4" stroke="black" points="3979.5,-1924.43 3979.5,-1961.43 4086.5,-1961.43 4086.5,-1924.43 3979.5,-1924.43"/>
<text text-anchor="middle" x="4033" y="-1939.23" font-family="Times,serif" font-size="14.00">sv_discovery</text>
</g>
<!-- sv_discovery&#45;&gt;run_dragen_germline_step -->
<g id="edge36" class="edge">
<title>sv_discovery&#45;&gt;run_dragen_germline_step</title>
<path fill="none" stroke="black" d="M4037.99,-1924.39C4059.99,-1847.1 4148.4,-1536.47 4175.24,-1442.2"/>
<polygon fill="black" stroke="black" points="4178.62,-1443.11 4177.99,-1432.53 4171.89,-1441.19 4178.62,-1443.11"/>
</g>
<!-- sv_enable_liquid_tumor_mode -->
<g id="node28" class="node">
<title>sv_enable_liquid_tumor_mode</title>
<polygon fill="#94ddf4" stroke="black" points="3731,-1924.43 3731,-1961.43 3961,-1961.43 3961,-1924.43 3731,-1924.43"/>
<text text-anchor="middle" x="3846" y="-1939.23" font-family="Times,serif" font-size="14.00">sv_enable_liquid_tumor_mode</text>
</g>
<!-- sv_enable_liquid_tumor_mode&#45;&gt;run_dragen_germline_step -->
<g id="edge37" class="edge">
<title>sv_enable_liquid_tumor_mode&#45;&gt;run_dragen_germline_step</title>
<path fill="none" stroke="black" d="M3857.21,-1924.39C3906.84,-1846.79 4106.89,-1533.95 4166.29,-1441.06"/>
<polygon fill="black" stroke="black" points="4169.31,-1442.84 4171.75,-1432.53 4163.41,-1439.07 4169.31,-1442.84"/>
</g>
<!-- sv_exome -->
<g id="node29" class="node">
<title>sv_exome</title>
<polygon fill="#94ddf4" stroke="black" points="3627,-1924.43 3627,-1961.43 3713,-1961.43 3713,-1924.43 3627,-1924.43"/>
<text text-anchor="middle" x="3670" y="-1939.23" font-family="Times,serif" font-size="14.00">sv_exome</text>
</g>
<!-- sv_exome&#45;&gt;run_dragen_germline_step -->
<g id="edge38" class="edge">
<title>sv_exome&#45;&gt;run_dragen_germline_step</title>
<path fill="none" stroke="black" d="M3687.07,-1924.39C3762.92,-1846.47 4069.6,-1531.42 4158.65,-1439.95"/>
<polygon fill="black" stroke="black" points="4161.4,-1442.14 4165.87,-1432.53 4156.38,-1437.25 4161.4,-1442.14"/>
</g>
<!-- sv_forcegt_vcf -->
<g id="node30" class="node">
<title>sv_forcegt_vcf</title>
<polygon fill="#94ddf4" stroke="black" points="3491,-1924.43 3491,-1961.43 3609,-1961.43 3609,-1924.43 3491,-1924.43"/>
<text text-anchor="middle" x="3550" y="-1939.23" font-family="Times,serif" font-size="14.00">sv_forcegt_vcf</text>
</g>
<!-- sv_forcegt_vcf&#45;&gt;run_dragen_germline_step -->
<g id="edge39" class="edge">
<title>sv_forcegt_vcf&#45;&gt;run_dragen_germline_step</title>
<path fill="none" stroke="black" d="M3571.06,-1924.39C3664.94,-1846.24 4045.36,-1529.52 4153.94,-1439.13"/>
<polygon fill="black" stroke="black" points="4156.41,-1441.62 4161.86,-1432.53 4151.94,-1436.24 4156.41,-1441.62"/>
</g>
<!-- sv_output_contigs -->
<g id="node31" class="node">
<title>sv_output_contigs</title>
<polygon fill="#94ddf4" stroke="black" points="3327.5,-1924.43 3327.5,-1961.43 3472.5,-1961.43 3472.5,-1924.43 3327.5,-1924.43"/>
<text text-anchor="middle" x="3400" y="-1939.23" font-family="Times,serif" font-size="14.00">sv_output_contigs</text>
</g>
<!-- sv_output_contigs&#45;&gt;run_dragen_germline_step -->
<g id="edge40" class="edge">
<title>sv_output_contigs&#45;&gt;run_dragen_germline_step</title>
<path fill="none" stroke="black" d="M3426.05,-1924.39C3542.52,-1846 4015.57,-1527.62 4148.25,-1438.32"/>
<polygon fill="black" stroke="black" points="4150.51,-1441.02 4156.85,-1432.53 4146.6,-1435.21 4150.51,-1441.02"/>
</g>
<!-- sv_region -->
<g id="node32" class="node">
<title>sv_region</title>
<polygon fill="#94ddf4" stroke="black" points="3224.5,-1924.43 3224.5,-1961.43 3309.5,-1961.43 3309.5,-1924.43 3224.5,-1924.43"/>
<text text-anchor="middle" x="3267" y="-1939.23" font-family="Times,serif" font-size="14.00">sv_region</text>
</g>
<!-- sv_region&#45;&gt;run_dragen_germline_step -->
<g id="edge41" class="edge">
<title>sv_region&#45;&gt;run_dragen_germline_step</title>
<path fill="none" stroke="black" d="M3283.84,-1923.98C3293.58,-1914.16 3306.38,-1902.14 3319,-1892.93 3607.35,-1682.46 3998.32,-1498.1 4134.14,-1436.65"/>
<polygon fill="black" stroke="black" points="4135.79,-1439.74 4143.47,-1432.44 4132.91,-1433.36 4135.79,-1439.74"/>
</g>
<!-- sv_se_overlap_pair_evidence -->
<g id="node33" class="node">
<title>sv_se_overlap_pair_evidence</title>
<polygon fill="#94ddf4" stroke="black" points="2986,-1924.43 2986,-1961.43 3206,-1961.43 3206,-1924.43 2986,-1924.43"/>
<text text-anchor="middle" x="3096" y="-1939.23" font-family="Times,serif" font-size="14.00">sv_se_overlap_pair_evidence</text>
</g>
<!-- sv_se_overlap_pair_evidence&#45;&gt;run_dragen_germline_step -->
<g id="edge42" class="edge">
<title>sv_se_overlap_pair_evidence&#45;&gt;run_dragen_germline_step</title>
<path fill="none" stroke="black" d="M3132.17,-1924.39C3294.66,-1845.61 3957.14,-1524.43 4137.49,-1437"/>
<polygon fill="black" stroke="black" points="4139.23,-1440.04 4146.7,-1432.53 4136.17,-1433.74 4139.23,-1440.04"/>
</g>
<!-- sv_tin_contam_tolerance -->
<g id="node34" class="node">
<title>sv_tin_contam_tolerance</title>
<polygon fill="#94ddf4" stroke="black" points="2776.5,-1924.43 2776.5,-1961.43 2967.5,-1961.43 2967.5,-1924.43 2776.5,-1924.43"/>
<text text-anchor="middle" x="2872" y="-1939.23" font-family="Times,serif" font-size="14.00">sv_tin_contam_tolerance</text>
</g>
<!-- sv_tin_contam_tolerance&#45;&gt;run_dragen_germline_step -->
<g id="edge43" class="edge">
<title>sv_tin_contam_tolerance&#45;&gt;run_dragen_germline_step</title>
<path fill="none" stroke="black" d="M2908.21,-1924.39C2928.33,-1914.8 2953.91,-1902.88 2977,-1892.93 3414.69,-1704.26 3952.88,-1500.87 4126.3,-1436.03"/>
<polygon fill="black" stroke="black" points="4127.6,-1439.28 4135.75,-1432.5 4125.15,-1432.72 4127.6,-1439.28"/>
</g>
<!-- vc_decoy_contigs -->
<g id="node35" class="node">
<title>vc_decoy_contigs</title>
<polygon fill="#94ddf4" stroke="black" points="2619.5,-1924.43 2619.5,-1961.43 2758.5,-1961.43 2758.5,-1924.43 2619.5,-1924.43"/>
<text text-anchor="middle" x="2689" y="-1939.23" font-family="Times,serif" font-size="14.00">vc_decoy_contigs</text>
</g>
<!-- vc_decoy_contigs&#45;&gt;run_dragen_germline_step -->
<g id="edge44" class="edge">
<title>vc_decoy_contigs&#45;&gt;run_dragen_germline_step</title>
<path fill="none" stroke="black" d="M2714.13,-1924.27C2729.25,-1914.18 2749.17,-1901.81 2768,-1892.93 3255.12,-1663.32 3883.15,-1491.66 4102.87,-1435.05"/>
<polygon fill="black" stroke="black" points="4103.89,-1438.4 4112.71,-1432.52 4102.15,-1431.62 4103.89,-1438.4"/>
</g>
<!-- vc_enable_baf -->
<g id="node36" class="node">
<title>vc_enable_baf</title>
<polygon fill="#94ddf4" stroke="black" points="2485,-1924.43 2485,-1961.43 2601,-1961.43 2601,-1924.43 2485,-1924.43"/>
<text text-anchor="middle" x="2543" y="-1939.23" font-family="Times,serif" font-size="14.00">vc_enable_baf</text>
</g>
<!-- vc_enable_baf&#45;&gt;run_dragen_germline_step -->
<g id="edge45" class="edge">
<title>vc_enable_baf&#45;&gt;run_dragen_germline_step</title>
<path fill="none" stroke="black" d="M2563.59,-1924.34C2576.51,-1914.02 2593.92,-1901.39 2611,-1892.93 3131.28,-1635.29 3817.92,-1485.18 4077.53,-1434.47"/>
<polygon fill="black" stroke="black" points="4078.56,-1437.83 4087.7,-1432.49 4077.22,-1430.96 4078.56,-1437.83"/>
</g>
<!-- vc_enable_decoy_contigs -->
<g id="node37" class="node">
<title>vc_enable_decoy_contigs</title>
<polygon fill="#94ddf4" stroke="black" points="2273.5,-1924.43 2273.5,-1961.43 2466.5,-1961.43 2466.5,-1924.43 2273.5,-1924.43"/>
<text text-anchor="middle" x="2370" y="-1939.23" font-family="Times,serif" font-size="14.00">vc_enable_decoy_contigs</text>
</g>
<!-- vc_enable_decoy_contigs&#45;&gt;run_dragen_germline_step -->
<g id="edge46" class="edge">
<title>vc_enable_decoy_contigs&#45;&gt;run_dragen_germline_step</title>
<path fill="none" stroke="black" d="M2404.26,-1924.39C2424.74,-1914.34 2451.46,-1901.97 2476,-1892.93 3080.13,-1670.33 3836.84,-1492.33 4093.3,-1434.69"/>
<polygon fill="black" stroke="black" points="4094.32,-1438.05 4103.31,-1432.45 4092.79,-1431.22 4094.32,-1438.05"/>
</g>
<!-- vc_enable_gatk_acceleration -->
<g id="node38" class="node">
<title>vc_enable_gatk_acceleration</title>
<polygon fill="#94ddf4" stroke="black" points="2037,-1924.43 2037,-1961.43 2255,-1961.43 2255,-1924.43 2037,-1924.43"/>
<text text-anchor="middle" x="2146" y="-1939.23" font-family="Times,serif" font-size="14.00">vc_enable_gatk_acceleration</text>
</g>
<!-- vc_enable_gatk_acceleration&#45;&gt;run_dragen_germline_step -->
<g id="edge47" class="edge">
<title>vc_enable_gatk_acceleration&#45;&gt;run_dragen_germline_step</title>
<path fill="none" stroke="black" d="M2184.59,-1924.36C2207.62,-1914.3 2237.62,-1901.92 2265,-1892.93 2947.27,-1668.78 3795.76,-1491.68 4082.8,-1434.49"/>
<polygon fill="black" stroke="black" points="4083.65,-1437.89 4092.77,-1432.51 4082.28,-1431.03 4083.65,-1437.89"/>
</g>
<!-- vc_enable_phasing -->
<g id="node39" class="node">
<title>vc_enable_phasing</title>
<polygon fill="#94ddf4" stroke="black" points="1869.5,-1924.43 1869.5,-1961.43 2018.5,-1961.43 2018.5,-1924.43 1869.5,-1924.43"/>
<text text-anchor="middle" x="1944" y="-1939.23" font-family="Times,serif" font-size="14.00">vc_enable_phasing</text>
</g>
<!-- vc_enable_phasing&#45;&gt;run_dragen_germline_step -->
<g id="edge48" class="edge">
<title>vc_enable_phasing&#45;&gt;run_dragen_germline_step</title>
<path fill="none" stroke="black" d="M1969.43,-1924.3C1985.56,-1913.83 2007.25,-1901.05 2028,-1892.93 2780.37,-1598.36 3755.16,-1464.78 4075.7,-1426.81"/>
<polygon fill="black" stroke="black" points="4076.38,-1430.25 4085.9,-1425.6 4075.56,-1423.3 4076.38,-1430.25"/>
</g>
<!-- vc_enable_roh -->
<g id="node40" class="node">
<title>vc_enable_roh</title>
<polygon fill="#94ddf4" stroke="black" points="1734.5,-1924.43 1734.5,-1961.43 1851.5,-1961.43 1851.5,-1924.43 1734.5,-1924.43"/>
<text text-anchor="middle" x="1793" y="-1939.23" font-family="Times,serif" font-size="14.00">vc_enable_roh</text>
</g>
<!-- vc_enable_roh&#45;&gt;run_dragen_germline_step -->
<g id="edge49" class="edge">
<title>vc_enable_roh&#45;&gt;run_dragen_germline_step</title>
<path fill="none" stroke="black" d="M1812.74,-1924.25C1825.62,-1913.63 1843.28,-1900.71 1861,-1892.93 2663.13,-1540.75 3736.59,-1443.76 4075.69,-1421.08"/>
<polygon fill="black" stroke="black" points="4076,-1424.56 4085.75,-1420.41 4075.54,-1417.58 4076,-1424.56"/>
</g>
<!-- vc_enable_vcf_output -->
<g id="node41" class="node">
<title>vc_enable_vcf_output</title>
<polygon fill="#94ddf4" stroke="black" points="1548,-1924.43 1548,-1961.43 1716,-1961.43 1716,-1924.43 1548,-1924.43"/>
<text text-anchor="middle" x="1632" y="-1939.23" font-family="Times,serif" font-size="14.00">vc_enable_vcf_output</text>
</g>
<!-- vc_enable_vcf_output&#45;&gt;run_dragen_germline_step -->
<g id="edge50" class="edge">
<title>vc_enable_vcf_output&#45;&gt;run_dragen_germline_step</title>
<path fill="none" stroke="black" d="M1660.66,-1924.22C1678.79,-1913.72 1703.07,-1900.95 1726,-1892.93 2602.64,-1586.44 3727.87,-1458.55 4075.75,-1424.66"/>
<polygon fill="black" stroke="black" points="4076.2,-1428.14 4085.81,-1423.69 4075.52,-1421.17 4076.2,-1428.14"/>
</g>
<!-- vc_hard_filter -->
<g id="node42" class="node">
<title>vc_hard_filter</title>
<polygon fill="#94ddf4" stroke="black" points="1416.5,-1924.43 1416.5,-1961.43 1529.5,-1961.43 1529.5,-1924.43 1416.5,-1924.43"/>
<text text-anchor="middle" x="1473" y="-1939.23" font-family="Times,serif" font-size="14.00">vc_hard_filter</text>
</g>
<!-- vc_hard_filter&#45;&gt;run_dragen_germline_step -->
<g id="edge51" class="edge">
<title>vc_hard_filter&#45;&gt;run_dragen_germline_step</title>
<path fill="none" stroke="black" d="M1491.73,-1924.33C1504.19,-1913.6 1521.45,-1900.53 1539,-1892.93 2462.41,-1492.96 3707.11,-1427.65 4075.86,-1417"/>
<polygon fill="black" stroke="black" points="4076.09,-1420.5 4085.98,-1416.72 4075.89,-1413.5 4076.09,-1420.5"/>
</g>
<!-- vc_max_reads_per_active_region -->
<g id="node43" class="node">
<title>vc_max_reads_per_active_region</title>
<polygon fill="#94ddf4" stroke="black" points="1150,-1924.43 1150,-1961.43 1398,-1961.43 1398,-1924.43 1150,-1924.43"/>
<text text-anchor="middle" x="1274" y="-1939.23" font-family="Times,serif" font-size="14.00">vc_max_reads_per_active_region</text>
</g>
<!-- vc_max_reads_per_active_region&#45;&gt;run_dragen_germline_step -->
<g id="edge52" class="edge">
<title>vc_max_reads_per_active_region&#45;&gt;run_dragen_germline_step</title>
<path fill="none" stroke="black" d="M1315.92,-1924.39C1342.03,-1914.02 1376.53,-1901.32 1408,-1892.93 2428.45,-1620.84 3702.77,-1467.58 4075.81,-1426.35"/>
<polygon fill="black" stroke="black" points="4076.23,-1429.82 4085.79,-1425.25 4075.47,-1422.87 4076.23,-1429.82"/>
</g>
<!-- vc_max_reads_per_raw_region -->
<g id="node44" class="node">
<title>vc_max_reads_per_raw_region</title>
<polygon fill="#94ddf4" stroke="black" points="898.5,-1924.43 898.5,-1961.43 1131.5,-1961.43 1131.5,-1924.43 898.5,-1924.43"/>
<text text-anchor="middle" x="1015" y="-1939.23" font-family="Times,serif" font-size="14.00">vc_max_reads_per_raw_region</text>
</g>
<!-- vc_max_reads_per_raw_region&#45;&gt;run_dragen_germline_step -->
<g id="edge53" class="edge">
<title>vc_max_reads_per_raw_region&#45;&gt;run_dragen_germline_step</title>
<path fill="none" stroke="black" d="M1053.71,-1924.37C1078.28,-1913.87 1110.97,-1901.03 1141,-1892.93 2265.91,-1589.61 3680.14,-1456.31 4075.84,-1423.37"/>
<polygon fill="black" stroke="black" points="4076.17,-1426.86 4085.84,-1422.54 4075.59,-1419.88 4076.17,-1426.86"/>
</g>
<!-- vc_remove_all_soft_clips -->
<g id="node45" class="node">
<title>vc_remove_all_soft_clips</title>
<polygon fill="#94ddf4" stroke="black" points="690,-1924.43 690,-1961.43 880,-1961.43 880,-1924.43 690,-1924.43"/>
<text text-anchor="middle" x="785" y="-1939.23" font-family="Times,serif" font-size="14.00">vc_remove_all_soft_clips</text>
</g>
<!-- vc_remove_all_soft_clips&#45;&gt;run_dragen_germline_step -->
<g id="edge54" class="edge">
<title>vc_remove_all_soft_clips&#45;&gt;run_dragen_germline_step</title>
<path fill="none" stroke="black" d="M816.21,-1924.41C836.61,-1913.71 864.17,-1900.65 890,-1892.93 2105.15,-1529.8 3657.9,-1437.95 4075.57,-1419.16"/>
<polygon fill="black" stroke="black" points="4075.99,-1422.64 4085.82,-1418.7 4075.67,-1415.65 4075.99,-1422.64"/>
</g>
<!-- vc_roh_blacklist_bed -->
<g id="node46" class="node">
<title>vc_roh_blacklist_bed</title>
<polygon fill="#94ddf4" stroke="black" points="508.5,-1924.43 508.5,-1961.43 671.5,-1961.43 671.5,-1924.43 508.5,-1924.43"/>
<text text-anchor="middle" x="590" y="-1939.23" font-family="Times,serif" font-size="14.00">vc_roh_blacklist_bed</text>
</g>
<!-- vc_roh_blacklist_bed&#45;&gt;run_dragen_germline_step -->
<g id="edge55" class="edge">
<title>vc_roh_blacklist_bed&#45;&gt;run_dragen_germline_step</title>
<path fill="none" stroke="black" d="M616.73,-1924.22C634.28,-1913.45 658.14,-1900.37 681,-1892.93 1969.44,-1473.38 3640.8,-1421.97 4075.79,-1415.76"/>
<polygon fill="black" stroke="black" points="4075.88,-1419.26 4085.83,-1415.62 4075.79,-1412.26 4075.88,-1419.26"/>
</g>
<!-- vc_target_bed -->
<g id="node47" class="node">
<title>vc_target_bed</title>
<polygon fill="#94ddf4" stroke="black" points="374,-1924.43 374,-1961.43 490,-1961.43 490,-1924.43 374,-1924.43"/>
<text text-anchor="middle" x="432" y="-1939.23" font-family="Times,serif" font-size="14.00">vc_target_bed</text>
</g>
<!-- vc_target_bed&#45;&gt;run_dragen_germline_step -->
<g id="edge56" class="edge">
<title>vc_target_bed&#45;&gt;run_dragen_germline_step</title>
<path fill="none" stroke="black" d="M450.97,-1924.28C463.82,-1913.39 481.73,-1900.16 500,-1892.93 1179.53,-1624.09 3543.27,-1456.57 4075.85,-1421.72"/>
<polygon fill="black" stroke="black" points="4076.08,-1425.22 4085.83,-1421.07 4075.63,-1418.23 4076.08,-1425.22"/>
</g>
<!-- vc_target_bed_padding -->
<g id="node48" class="node">
<title>vc_target_bed_padding</title>
<polygon fill="#94ddf4" stroke="black" points="174.5,-1924.43 174.5,-1961.43 355.5,-1961.43 355.5,-1924.43 174.5,-1924.43"/>
<text text-anchor="middle" x="265" y="-1939.23" font-family="Times,serif" font-size="14.00">vc_target_bed_padding</text>
</g>
<!-- vc_target_bed_padding&#45;&gt;run_dragen_germline_step -->
<g id="edge57" class="edge">
<title>vc_target_bed_padding&#45;&gt;run_dragen_germline_step</title>
<path fill="none" stroke="black" d="M294.57,-1924.2C313.94,-1913.42 340.18,-1900.34 365,-1892.93 1787.6,-1468.28 3617.65,-1420.69 4075.55,-1415.52"/>
<polygon fill="black" stroke="black" points="4075.83,-1419.02 4085.79,-1415.41 4075.75,-1412.02 4075.83,-1419.02"/>
</g>
<!-- vc_target_coverage -->
<g id="node49" class="node">
<title>vc_target_coverage</title>
<polygon fill="#94ddf4" stroke="black" points="8301.5,-1924.43 8301.5,-1961.43 8456.5,-1961.43 8456.5,-1924.43 8301.5,-1924.43"/>
<text text-anchor="middle" x="8379" y="-1939.23" font-family="Times,serif" font-size="14.00">vc_target_coverage</text>
</g>
<!-- vc_target_coverage&#45;&gt;run_dragen_germline_step -->
<g id="edge58" class="edge">
<title>vc_target_coverage&#45;&gt;run_dragen_germline_step</title>
<path fill="none" stroke="black" d="M8354.3,-1924.28C8337.75,-1913.39 8315.04,-1900.16 8293,-1892.93 7514.29,-1637.6 4858.92,-1457.71 4290.61,-1421.6"/>
<polygon fill="black" stroke="black" points="4290.58,-1418.09 4280.38,-1420.95 4290.14,-1425.08 4290.58,-1418.09"/>
</g>
<!-- dragen_bam_out -->
<g id="node50" class="node">
<title>dragen_bam_out</title>
<polygon fill="#94ddf4" stroke="black" points="3793,-379.43 3793,-416.43 3927,-416.43 3927,-379.43 3793,-379.43"/>
<text text-anchor="middle" x="3860" y="-394.23" font-family="Times,serif" font-size="14.00">dragen_bam_out</text>
</g>
<!-- dragen_germline_output_directory -->
<g id="node51" class="node">
<title>dragen_germline_output_directory</title>
<polygon fill="#94ddf4" stroke="black" points="3945.5,-379.43 3945.5,-416.43 4208.5,-416.43 4208.5,-379.43 3945.5,-379.43"/>
<text text-anchor="middle" x="4077" y="-394.23" font-family="Times,serif" font-size="14.00">dragen_germline_output_directory</text>
</g>
<!-- dragen_vcf_out -->
<g id="node52" class="node">
<title>dragen_vcf_out</title>
<polygon fill="#94ddf4" stroke="black" points="4226.5,-379.43 4226.5,-416.43 4351.5,-416.43 4351.5,-379.43 4226.5,-379.43"/>
<text text-anchor="middle" x="4289" y="-394.23" font-family="Times,serif" font-size="14.00">dragen_vcf_out</text>
</g>
<!-- multiqc_output_directory -->
<g id="node53" class="node">
<title>multiqc_output_directory</title>
<polygon fill="#94ddf4" stroke="black" points="3577.5,-379.43 3577.5,-416.43 3774.5,-416.43 3774.5,-379.43 3577.5,-379.43"/>
<text text-anchor="middle" x="3676" y="-394.23" font-family="Times,serif" font-size="14.00">multiqc_output_directory</text>
</g>
<!-- create_dummy_file_step -->
<g id="node54" class="node">
<title>create_dummy_file_step</title>
<polygon fill="lightgoldenrodyellow" stroke="black" points="132.5,-1395.43 132.5,-1432.43 393.5,-1432.43 393.5,-1395.43 132.5,-1395.43"/>
<text text-anchor="middle" x="263" y="-1410.23" font-family="Times,serif" font-size="14.00">custom&#45;create&#45;dummy&#45;file v(1.0.0)</text>
</g>
<!-- create_dummy_file_step&#45;&gt;dragen_qc_step -->
<g id="edge1" class="edge">
<title>create_dummy_file_step&#45;&gt;dragen_qc_step</title>
<path fill="none" stroke="black" d="M256.8,-1395.22C230.44,-1319.85 127.48,-1025.5 95.52,-934.13"/>
<polygon fill="black" stroke="black" points="98.75,-932.78 92.15,-924.5 92.14,-935.09 98.75,-932.78"/>
</g>
<!-- dragen_qc_step&#45;&gt;multiqc_output_directory -->
<g id="edge2" class="edge">
<title>dragen_qc_step&#45;&gt;multiqc_output_directory</title>
<path fill="none" stroke="black" d="M155.7,-895.1C598.87,-832.64 3022.45,-491.04 3567.24,-414.26"/>
<polygon fill="black" stroke="black" points="3568.04,-417.68 3577.45,-412.82 3567.06,-410.75 3568.04,-417.68"/>
</g>
<!-- run_dragen_germline_step&#45;&gt;dragen_bam_out -->
<g id="edge4" class="edge">
<title>run_dragen_germline_step&#45;&gt;dragen_bam_out</title>
<path fill="none" stroke="black" d="M4177.39,-1395.33C4139.07,-1275.01 3915.8,-574.09 3868.71,-426.29"/>
<polygon fill="black" stroke="black" points="3872,-425.08 3865.63,-416.62 3865.33,-427.21 3872,-425.08"/>
</g>
<!-- run_dragen_germline_step&#45;&gt;dragen_germline_output_directory -->
<g id="edge5" class="edge">
<title>run_dragen_germline_step&#45;&gt;dragen_germline_output_directory</title>
<path fill="none" stroke="black" d="M4181.16,-1395.33C4168.59,-1275.13 4095.46,-575.49 4079.91,-426.73"/>
<polygon fill="black" stroke="black" points="4083.37,-426.2 4078.85,-416.62 4076.41,-426.93 4083.37,-426.2"/>
</g>
<!-- run_dragen_germline_step&#45;&gt;dragen_vcf_out -->
<g id="edge6" class="edge">
<title>run_dragen_germline_step&#45;&gt;dragen_vcf_out</title>
<path fill="none" stroke="black" d="M4184.84,-1395.33C4197.41,-1275.13 4270.54,-575.49 4286.09,-426.73"/>
<polygon fill="black" stroke="black" points="4289.59,-426.93 4287.15,-416.62 4282.63,-426.2 4289.59,-426.93"/>
</g>
<!-- run_dragen_germline_step&#45;&gt;dragen_qc_step -->
<g id="edge3" class="edge">
<title>run_dragen_germline_step&#45;&gt;dragen_qc_step</title>
<path fill="none" stroke="black" d="M4085.77,-1400.92C3522.08,-1331.3 681.06,-980.42 166.11,-916.82"/>
<polygon fill="black" stroke="black" points="166.16,-913.3 155.8,-915.55 165.3,-920.25 166.16,-913.3"/>
</g>
<!-- \n -->
<g id="node57" class="node">
<title>\n</title>
<ellipse fill="none" stroke="black" cx="8502" cy="-1942.93" rx="27" ry="18"/>
</g>
</g>
</svg>
