<?xml version="1.0" encoding="UTF-8" standalone="no"?>
<!DOCTYPE svg PUBLIC "-//W3C//DTD SVG 1.1//EN"
 "http://www.w3.org/Graphics/SVG/1.1/DTD/svg11.dtd">
<!-- Generated by graphviz version 2.43.0 (0)
 -->
<!-- Title: G Pages: 1 -->
<svg width="8703pt" height="2234pt"
 viewBox="0.00 0.00 8702.50 2233.66" xmlns="http://www.w3.org/2000/svg" xmlns:xlink="http://www.w3.org/1999/xlink">
<g id="graph0" class="graph" transform="scale(1 1) rotate(0) translate(4 2229.66)">
<title>G</title>
<polygon fill="#eeeeee" stroke="transparent" points="-4,4 -4,-2229.66 8698.5,-2229.66 8698.5,4 -4,4"/>
<g id="clust1" class="cluster">
<title>cluster_inputs</title>
<polygon fill="#eeeeee" stroke="black" stroke-dasharray="5,2" points="8,-1630.75 8,-2169.67 8465,-2169.67 8465,-1630.75 8,-1630.75"/>
<text text-anchor="middle" x="8398.5" y="-1638.55" font-family="Times,serif" font-size="14.00">Workflow Inputs</text>
</g>
<g id="clust2" class="cluster">
<title>cluster_outputs</title>
<polygon fill="#eeeeee" stroke="black" stroke-dasharray="5,2" points="4263,-55.99 4263,-594.91 5053,-594.91 5053,-55.99 4263,-55.99"/>
<text text-anchor="middle" x="4980.5" y="-63.79" font-family="Times,serif" font-size="14.00">Workflow Outputs</text>
</g>
<!-- output_file_prefix -->
<g id="node1" class="node">
<title>output_file_prefix</title>
<polygon fill="#94ddf4" stroke="black" points="8317,-1962.49 8317,-1999.49 8457,-1999.49 8457,-1962.49 8317,-1962.49"/>
<text text-anchor="middle" x="8387" y="-1977.29" font-family="Times,serif" font-size="14.00">output_file_prefix</text>
</g>
<!-- run_dragen_germline_step -->
<g id="node54" class="node">
<title>run_dragen_germline_step</title>
<polygon fill="lightgoldenrodyellow" stroke="black" points="4371,-1423.49 4371,-1460.49 4565,-1460.49 4565,-1423.49 4371,-1423.49"/>
<text text-anchor="middle" x="4468" y="-1438.29" font-family="Times,serif" font-size="14.00">dragen&#45;germline v(4.0.3)</text>
</g>
<!-- output_file_prefix&#45;&gt;run_dragen_germline_step -->
<g id="edge7" class="edge">
<title>output_file_prefix&#45;&gt;run_dragen_germline_step</title>
<path fill="none" stroke="black" d="M8364.5,-1962.38C8349.38,-1951.5 8328.54,-1938.27 8308,-1930.99 7588.37,-1675.79 5120.73,-1489.14 4575.29,-1450.42"/>
<polygon fill="black" stroke="black" points="4575.29,-1446.92 4565.07,-1449.7 4574.8,-1453.9 4575.29,-1446.92"/>
</g>
<!-- dragen_qc_step -->
<g id="node55" class="node">
<title>dragen_qc_step</title>
<polygon fill="lightgoldenrodyellow" stroke="black" points="8317.5,-905.49 8317.5,-942.49 8456.5,-942.49 8456.5,-905.49 8317.5,-905.49"/>
<text text-anchor="middle" x="8387" y="-920.29" font-family="Times,serif" font-size="14.00">multiqc v(1.14.0)</text>
</g>
<!-- output_file_prefix&#45;&gt;dragen_qc_step -->
<g id="edge8" class="edge">
<title>output_file_prefix&#45;&gt;dragen_qc_step</title>
<path fill="none" stroke="black" d="M8383.16,-1962.12C8370.59,-1838.1 8370.29,-1105.95 8382.26,-952.99"/>
<polygon fill="black" stroke="black" points="8385.78,-952.89 8383.18,-942.62 8378.81,-952.27 8385.78,-952.89"/>
</g>
<!-- output_file_prefix&#45;&gt;dragen_qc_step -->
<g id="edge9" class="edge">
<title>output_file_prefix&#45;&gt;dragen_qc_step</title>
<path fill="none" stroke="black" d="M8387,-1962.12C8387,-1838.1 8387,-1105.95 8387,-952.99"/>
<polygon fill="black" stroke="black" points="8390.5,-952.62 8387,-942.62 8383.5,-952.62 8390.5,-952.62"/>
</g>
<!-- output_file_prefix&#45;&gt;dragen_qc_step -->
<g id="edge10" class="edge">
<title>output_file_prefix&#45;&gt;dragen_qc_step</title>
<path fill="none" stroke="black" d="M8390.84,-1962.12C8403.41,-1838.1 8403.71,-1105.95 8391.74,-952.99"/>
<polygon fill="black" stroke="black" points="8395.19,-952.27 8390.82,-942.62 8388.22,-952.89 8395.19,-952.27"/>
</g>
<!-- cnv_enable_self_normalization -->
<g id="node2" class="node">
<title>cnv_enable_self_normalization</title>
<polygon fill="#94ddf4" stroke="black" points="8065.5,-1962.49 8065.5,-1999.49 8298.5,-1999.49 8298.5,-1962.49 8065.5,-1962.49"/>
<text text-anchor="middle" x="8182" y="-1977.29" font-family="Times,serif" font-size="14.00">cnv_enable_self_normalization</text>
</g>
<!-- cnv_enable_self_normalization&#45;&gt;run_dragen_germline_step -->
<g id="edge11" class="edge">
<title>cnv_enable_self_normalization&#45;&gt;run_dragen_germline_step</title>
<path fill="none" stroke="black" d="M8144.21,-1962.45C8119.82,-1951.81 8087.12,-1938.82 8057,-1930.99 6711.96,-1581.28 5014.36,-1471.68 4575.43,-1448.25"/>
<polygon fill="black" stroke="black" points="4575.47,-1444.75 4565.3,-1447.71 4575.1,-1451.74 4575.47,-1444.75"/>
</g>
<!-- dbsnp_annotation -->
<g id="node3" class="node">
<title>dbsnp_annotation</title>
<polygon fill="#94ddf4" stroke="black" points="7904.5,-1962.49 7904.5,-1999.49 8047.5,-1999.49 8047.5,-1962.49 7904.5,-1962.49"/>
<text text-anchor="middle" x="7976" y="-1977.29" font-family="Times,serif" font-size="14.00">dbsnp_annotation</text>
</g>
<!-- dbsnp_annotation&#45;&gt;run_dragen_germline_step -->
<g id="edge12" class="edge">
<title>dbsnp_annotation&#45;&gt;run_dragen_germline_step</title>
<path fill="none" stroke="black" d="M7952.48,-1962.26C7936.96,-1951.47 7915.74,-1938.39 7895,-1930.99 6646.82,-1485.61 5006.1,-1445.43 4575.3,-1442.85"/>
<polygon fill="black" stroke="black" points="4575.06,-1439.35 4565.04,-1442.79 4575.02,-1446.35 4575.06,-1439.35"/>
</g>
<!-- dedup_min_qual -->
<g id="node4" class="node">
<title>dedup_min_qual</title>
<polygon fill="#94ddf4" stroke="black" points="7754,-1962.49 7754,-1999.49 7886,-1999.49 7886,-1962.49 7754,-1962.49"/>
<text text-anchor="middle" x="7820" y="-1977.29" font-family="Times,serif" font-size="14.00">dedup_min_qual</text>
</g>
<!-- dedup_min_qual&#45;&gt;run_dragen_germline_step -->
<g id="edge13" class="edge">
<title>dedup_min_qual&#45;&gt;run_dragen_germline_step</title>
<path fill="none" stroke="black" d="M7798.41,-1962.26C7784.12,-1951.48 7764.48,-1938.4 7745,-1930.99 6563.35,-1481.79 4995.35,-1444.2 4575.28,-1442.56"/>
<polygon fill="black" stroke="black" points="4575.29,-1439.06 4565.28,-1442.52 4575.27,-1446.06 4575.29,-1439.06"/>
</g>
<!-- enable_cnv -->
<g id="node5" class="node">
<title>enable_cnv</title>
<polygon fill="#94ddf4" stroke="black" points="7640.5,-1962.49 7640.5,-1999.49 7735.5,-1999.49 7735.5,-1962.49 7640.5,-1962.49"/>
<text text-anchor="middle" x="7688" y="-1977.29" font-family="Times,serif" font-size="14.00">enable_cnv</text>
</g>
<!-- enable_cnv&#45;&gt;run_dragen_germline_step -->
<g id="edge14" class="edge">
<title>enable_cnv&#45;&gt;run_dragen_germline_step</title>
<path fill="none" stroke="black" d="M7672.66,-1962.19C7662.3,-1951.38 7647.69,-1938.3 7632,-1930.99 7066.87,-1667.74 5062.46,-1491.12 4575.29,-1451.46"/>
<polygon fill="black" stroke="black" points="4575.35,-1447.95 4565.1,-1450.63 4574.79,-1454.93 4575.35,-1447.95"/>
</g>
<!-- enable_duplicate_marking -->
<g id="node6" class="node">
<title>enable_duplicate_marking</title>
<polygon fill="#94ddf4" stroke="black" points="7419.5,-1962.49 7419.5,-1999.49 7622.5,-1999.49 7622.5,-1962.49 7419.5,-1962.49"/>
<text text-anchor="middle" x="7521" y="-1977.29" font-family="Times,serif" font-size="14.00">enable_duplicate_marking</text>
</g>
<!-- enable_duplicate_marking&#45;&gt;run_dragen_germline_step -->
<g id="edge15" class="edge">
<title>enable_duplicate_marking&#45;&gt;run_dragen_germline_step</title>
<path fill="none" stroke="black" d="M7487.34,-1962.48C7465.76,-1951.92 7436.85,-1939 7410,-1930.99 6331.82,-1609.2 4964.03,-1482.07 4575.34,-1451.01"/>
<polygon fill="black" stroke="black" points="4575.48,-1447.51 4565.23,-1450.2 4574.92,-1454.49 4575.48,-1447.51"/>
</g>
<!-- enable_hla -->
<g id="node7" class="node">
<title>enable_hla</title>
<polygon fill="#94ddf4" stroke="black" points="7309,-1962.49 7309,-1999.49 7401,-1999.49 7401,-1962.49 7309,-1962.49"/>
<text text-anchor="middle" x="7355" y="-1977.29" font-family="Times,serif" font-size="14.00">enable_hla</text>
</g>
<!-- enable_hla&#45;&gt;run_dragen_germline_step -->
<g id="edge16" class="edge">
<title>enable_hla&#45;&gt;run_dragen_germline_step</title>
<path fill="none" stroke="black" d="M7339.95,-1962.28C7329.78,-1951.51 7315.44,-1938.43 7300,-1930.99 6800.18,-1690.04 5030.97,-1499.39 4575.55,-1453.54"/>
<polygon fill="black" stroke="black" points="4575.66,-1450.03 4565.36,-1452.51 4574.96,-1456.99 4575.66,-1450.03"/>
</g>
<!-- enable_map_align_output -->
<g id="node8" class="node">
<title>enable_map_align_output</title>
<polygon fill="#94ddf4" stroke="black" points="7093.5,-1962.49 7093.5,-1999.49 7290.5,-1999.49 7290.5,-1962.49 7093.5,-1962.49"/>
<text text-anchor="middle" x="7192" y="-1977.29" font-family="Times,serif" font-size="14.00">enable_map_align_output</text>
</g>
<!-- enable_map_align_output&#45;&gt;run_dragen_germline_step -->
<g id="edge17" class="edge">
<title>enable_map_align_output&#45;&gt;run_dragen_germline_step</title>
<path fill="none" stroke="black" d="M7158.78,-1962.39C7137.83,-1951.93 7109.92,-1939.16 7084,-1930.99 6136.89,-1632.63 4936.11,-1491.28 4575.24,-1453.6"/>
<polygon fill="black" stroke="black" points="4575.37,-1450.1 4565.06,-1452.55 4574.65,-1457.06 4575.37,-1450.1"/>
</g>
<!-- enable_sv -->
<g id="node9" class="node">
<title>enable_sv</title>
<polygon fill="#94ddf4" stroke="black" points="6989,-1962.49 6989,-1999.49 7075,-1999.49 7075,-1962.49 6989,-1962.49"/>
<text text-anchor="middle" x="7032" y="-1977.29" font-family="Times,serif" font-size="14.00">enable_sv</text>
</g>
<!-- enable_sv&#45;&gt;run_dragen_germline_step -->
<g id="edge18" class="edge">
<title>enable_sv&#45;&gt;run_dragen_germline_step</title>
<path fill="none" stroke="black" d="M7017.9,-1962.38C7008.34,-1951.65 6994.79,-1938.58 6980,-1930.99 6130.07,-1495.19 4935.99,-1447.19 4575.28,-1443"/>
<polygon fill="black" stroke="black" points="4575.14,-1439.5 4565.11,-1442.89 4575.07,-1446.5 4575.14,-1439.5"/>
</g>
<!-- fastq_list -->
<g id="node10" class="node">
<title>fastq_list</title>
<polygon fill="#94ddf4" stroke="black" points="6889,-1962.49 6889,-1999.49 6971,-1999.49 6971,-1962.49 6889,-1962.49"/>
<text text-anchor="middle" x="6930" y="-1977.29" font-family="Times,serif" font-size="14.00">fastq_list</text>
</g>
<!-- fastq_list&#45;&gt;run_dragen_germline_step -->
<g id="edge19" class="edge">
<title>fastq_list&#45;&gt;run_dragen_germline_step</title>
<path fill="none" stroke="black" d="M6916.56,-1962.41C6907.41,-1951.69 6894.39,-1938.62 6880,-1930.99 6071.45,-1502.35 4927.32,-1449.37 4575.25,-1443.49"/>
<polygon fill="black" stroke="black" points="4575.12,-1439.99 4565.06,-1443.33 4575.01,-1446.99 4575.12,-1439.99"/>
</g>
<!-- fastq_list_rows -->
<g id="node11" class="node">
<title>fastq_list_rows</title>
<polygon fill="#94ddf4" stroke="black" points="6747.5,-1962.49 6747.5,-1999.49 6870.5,-1999.49 6870.5,-1962.49 6747.5,-1962.49"/>
<text text-anchor="middle" x="6809" y="-1977.29" font-family="Times,serif" font-size="14.00">fastq_list_rows</text>
</g>
<!-- fastq_list_rows&#45;&gt;run_dragen_germline_step -->
<g id="edge20" class="edge">
<title>fastq_list_rows&#45;&gt;run_dragen_germline_step</title>
<path fill="none" stroke="black" d="M6788.24,-1962.4C6774.73,-1951.81 6756.28,-1938.89 6738,-1930.99 5952.43,-1591.5 4908.64,-1479.47 4575.18,-1451.12"/>
<polygon fill="black" stroke="black" points="4575.31,-1447.62 4565.05,-1450.26 4574.72,-1454.59 4575.31,-1447.62"/>
</g>
<!-- hla_allele_frequency_file -->
<g id="node12" class="node">
<title>hla_allele_frequency_file</title>
<polygon fill="#94ddf4" stroke="black" points="6539,-1962.49 6539,-1999.49 6729,-1999.49 6729,-1962.49 6539,-1962.49"/>
<text text-anchor="middle" x="6634" y="-1977.29" font-family="Times,serif" font-size="14.00">hla_allele_frequency_file</text>
</g>
<!-- hla_allele_frequency_file&#45;&gt;run_dragen_germline_step -->
<g id="edge21" class="edge">
<title>hla_allele_frequency_file&#45;&gt;run_dragen_germline_step</title>
<path fill="none" stroke="black" d="M6601.02,-1962.29C6580.93,-1952.06 6554.49,-1939.56 6530,-1930.99 5802.5,-1676.64 4884.8,-1511.77 4575.39,-1460.27"/>
<polygon fill="black" stroke="black" points="4575.52,-1456.75 4565.09,-1458.56 4574.38,-1463.65 4575.52,-1456.75"/>
</g>
<!-- hla_bed_file -->
<g id="node13" class="node">
<title>hla_bed_file</title>
<polygon fill="#94ddf4" stroke="black" points="6421,-1962.49 6421,-1999.49 6521,-1999.49 6521,-1962.49 6421,-1962.49"/>
<text text-anchor="middle" x="6471" y="-1977.29" font-family="Times,serif" font-size="14.00">hla_bed_file</text>
</g>
<!-- hla_bed_file&#45;&gt;run_dragen_germline_step -->
<g id="edge22" class="edge">
<title>hla_bed_file&#45;&gt;run_dragen_germline_step</title>
<path fill="none" stroke="black" d="M6453.91,-1962.24C6442.87,-1951.72 6427.67,-1938.94 6412,-1930.99 5763.62,-1602.04 4878.66,-1484.98 4575.2,-1453.05"/>
<polygon fill="black" stroke="black" points="4575.39,-1449.55 4565.08,-1452 4574.67,-1456.52 4575.39,-1449.55"/>
</g>
<!-- hla_min_reads -->
<g id="node14" class="node">
<title>hla_min_reads</title>
<polygon fill="#94ddf4" stroke="black" points="6283.5,-1962.49 6283.5,-1999.49 6402.5,-1999.49 6402.5,-1962.49 6283.5,-1962.49"/>
<text text-anchor="middle" x="6343" y="-1977.29" font-family="Times,serif" font-size="14.00">hla_min_reads</text>
</g>
<!-- hla_min_reads&#45;&gt;run_dragen_germline_step -->
<g id="edge23" class="edge">
<title>hla_min_reads&#45;&gt;run_dragen_germline_step</title>
<path fill="none" stroke="black" d="M6322.46,-1962.46C6309.34,-1952.03 6291.54,-1939.26 6274,-1930.99 5666.52,-1644.48 4861.99,-1502.42 4575.17,-1458.39"/>
<polygon fill="black" stroke="black" points="4575.6,-1454.92 4565.19,-1456.87 4574.55,-1461.84 4575.6,-1454.92"/>
</g>
<!-- hla_reference_file -->
<g id="node15" class="node">
<title>hla_reference_file</title>
<polygon fill="#94ddf4" stroke="black" points="6123,-1962.49 6123,-1999.49 6265,-1999.49 6265,-1962.49 6123,-1962.49"/>
<text text-anchor="middle" x="6194" y="-1977.29" font-family="Times,serif" font-size="14.00">hla_reference_file</text>
</g>
<!-- hla_reference_file&#45;&gt;run_dragen_germline_step -->
<g id="edge24" class="edge">
<title>hla_reference_file&#45;&gt;run_dragen_germline_step</title>
<path fill="none" stroke="black" d="M6168.99,-1962.32C6153.67,-1952.1 6133.34,-1939.6 6114,-1930.99 5551.81,-1680.68 4825.77,-1516.7 4565.87,-1462.62"/>
<polygon fill="black" stroke="black" points="4566.58,-1459.19 4556.08,-1460.58 4565.16,-1466.04 4566.58,-1459.19"/>
</g>
<!-- hla_tiebreaker_threshold -->
<g id="node16" class="node">
<title>hla_tiebreaker_threshold</title>
<polygon fill="#94ddf4" stroke="black" points="5911,-1962.49 5911,-1999.49 6105,-1999.49 6105,-1962.49 5911,-1962.49"/>
<text text-anchor="middle" x="6008" y="-1977.29" font-family="Times,serif" font-size="14.00">hla_tiebreaker_threshold</text>
</g>
<!-- hla_tiebreaker_threshold&#45;&gt;run_dragen_germline_step -->
<g id="edge25" class="edge">
<title>hla_tiebreaker_threshold&#45;&gt;run_dragen_germline_step</title>
<path fill="none" stroke="black" d="M5972.59,-1962.49C5952.18,-1952.69 5925.91,-1940.55 5902,-1930.99 5386.09,-1724.63 4744.95,-1526.48 4536.73,-1463.56"/>
<polygon fill="black" stroke="black" points="4537.44,-1460.12 4526.85,-1460.58 4535.42,-1466.82 4537.44,-1460.12"/>
</g>
<!-- hla_zygosity_threshold -->
<g id="node17" class="node">
<title>hla_zygosity_threshold</title>
<polygon fill="#94ddf4" stroke="black" points="5713.5,-1962.49 5713.5,-1999.49 5892.5,-1999.49 5892.5,-1962.49 5713.5,-1962.49"/>
<text text-anchor="middle" x="5803" y="-1977.29" font-family="Times,serif" font-size="14.00">hla_zygosity_threshold</text>
</g>
<!-- hla_zygosity_threshold&#45;&gt;run_dragen_germline_step -->
<g id="edge26" class="edge">
<title>hla_zygosity_threshold&#45;&gt;run_dragen_germline_step</title>
<path fill="none" stroke="black" d="M5769.78,-1962.47C5750.97,-1952.78 5726.89,-1940.76 5705,-1930.99 5258.87,-1731.92 4705.09,-1528.52 4526.45,-1463.97"/>
<polygon fill="black" stroke="black" points="4527.56,-1460.65 4516.97,-1460.55 4525.19,-1467.23 4527.56,-1460.65"/>
</g>
<!-- lic_instance_id_location -->
<g id="node18" class="node">
<title>lic_instance_id_location</title>
<polygon fill="#94ddf4" stroke="black" points="5512.5,-1962.49 5512.5,-1999.49 5695.5,-1999.49 5695.5,-1962.49 5512.5,-1962.49"/>
<text text-anchor="middle" x="5604" y="-1977.29" font-family="Times,serif" font-size="14.00">lic_instance_id_location</text>
</g>
<!-- lic_instance_id_location&#45;&gt;run_dragen_germline_step -->
<g id="edge27" class="edge">
<title>lic_instance_id_location&#45;&gt;run_dragen_germline_step</title>
<path fill="none" stroke="black" d="M5568.05,-1962.43C5548.79,-1953.05 5524.63,-1941.34 5503,-1930.99 5122.46,-1748.98 4661.14,-1533.17 4514.84,-1464.85"/>
<polygon fill="black" stroke="black" points="4516.21,-1461.63 4505.67,-1460.57 4513.25,-1467.97 4516.21,-1461.63"/>
</g>
<!-- output_directory -->
<g id="node19" class="node">
<title>output_directory</title>
<polygon fill="#94ddf4" stroke="black" points="5358,-1962.49 5358,-1999.49 5494,-1999.49 5494,-1962.49 5358,-1962.49"/>
<text text-anchor="middle" x="5426" y="-1977.29" font-family="Times,serif" font-size="14.00">output_directory</text>
</g>
<!-- output_directory&#45;&gt;run_dragen_germline_step -->
<g id="edge28" class="edge">
<title>output_directory&#45;&gt;run_dragen_germline_step</title>
<path fill="none" stroke="black" d="M5399.17,-1962.35C5384.48,-1952.84 5365.89,-1941.03 5349,-1930.99 5031.91,-1742.51 4639.12,-1533.26 4510.75,-1465.48"/>
<polygon fill="black" stroke="black" points="4512.09,-1462.23 4501.62,-1460.66 4508.83,-1468.42 4512.09,-1462.23"/>
</g>
<!-- qc_coverage_ignore_overlaps -->
<g id="node20" class="node">
<title>qc_coverage_ignore_overlaps</title>
<polygon fill="#94ddf4" stroke="black" points="5116,-1962.49 5116,-1999.49 5340,-1999.49 5340,-1962.49 5116,-1962.49"/>
<text text-anchor="middle" x="5228" y="-1977.29" font-family="Times,serif" font-size="14.00">qc_coverage_ignore_overlaps</text>
</g>
<!-- qc_coverage_ignore_overlaps&#45;&gt;run_dragen_germline_step -->
<g id="edge29" class="edge">
<title>qc_coverage_ignore_overlaps&#45;&gt;run_dragen_germline_step</title>
<path fill="none" stroke="black" d="M5203.15,-1962.43C5090.74,-1883 4629.82,-1557.33 4501.37,-1466.57"/>
<polygon fill="black" stroke="black" points="4503.24,-1463.6 4493.05,-1460.69 4499.2,-1469.32 4503.24,-1463.6"/>
</g>
<!-- qc_coverage_region_1 -->
<g id="node21" class="node">
<title>qc_coverage_region_1</title>
<polygon fill="#94ddf4" stroke="black" points="4924.5,-1962.49 4924.5,-1999.49 5097.5,-1999.49 5097.5,-1962.49 4924.5,-1962.49"/>
<text text-anchor="middle" x="5011" y="-1977.29" font-family="Times,serif" font-size="14.00">qc_coverage_region_1</text>
</g>
<!-- qc_coverage_region_1&#45;&gt;run_dragen_germline_step -->
<g id="edge30" class="edge">
<title>qc_coverage_region_1&#45;&gt;run_dragen_germline_step</title>
<path fill="none" stroke="black" d="M4993.24,-1962.43C4913.33,-1883.4 4586.9,-1560.57 4493.23,-1467.95"/>
<polygon fill="black" stroke="black" points="4495.47,-1465.23 4485.9,-1460.69 4490.55,-1470.21 4495.47,-1465.23"/>
</g>
<!-- qc_coverage_region_2 -->
<g id="node22" class="node">
<title>qc_coverage_region_2</title>
<polygon fill="#94ddf4" stroke="black" points="4733.5,-1962.49 4733.5,-1999.49 4906.5,-1999.49 4906.5,-1962.49 4733.5,-1962.49"/>
<text text-anchor="middle" x="4820" y="-1977.29" font-family="Times,serif" font-size="14.00">qc_coverage_region_2</text>
</g>
<!-- qc_coverage_region_2&#45;&gt;run_dragen_germline_step -->
<g id="edge31" class="edge">
<title>qc_coverage_region_2&#45;&gt;run_dragen_germline_step</title>
<path fill="none" stroke="black" d="M4808.49,-1962.43C4756.89,-1883.72 4546.77,-1563.16 4485.1,-1469.07"/>
<polygon fill="black" stroke="black" points="4488.01,-1467.13 4479.6,-1460.69 4482.16,-1470.97 4488.01,-1467.13"/>
</g>
<!-- qc_coverage_region_3 -->
<g id="node23" class="node">
<title>qc_coverage_region_3</title>
<polygon fill="#94ddf4" stroke="black" points="4542.5,-1962.49 4542.5,-1999.49 4715.5,-1999.49 4715.5,-1962.49 4542.5,-1962.49"/>
<text text-anchor="middle" x="4629" y="-1977.29" font-family="Times,serif" font-size="14.00">qc_coverage_region_3</text>
</g>
<!-- qc_coverage_region_3&#45;&gt;run_dragen_germline_step -->
<g id="edge32" class="edge">
<title>qc_coverage_region_3&#45;&gt;run_dragen_germline_step</title>
<path fill="none" stroke="black" d="M4623.73,-1962.43C4600.25,-1884.11 4505,-1566.39 4476.25,-1470.51"/>
<polygon fill="black" stroke="black" points="4479.53,-1469.26 4473.31,-1460.69 4472.83,-1471.27 4479.53,-1469.26"/>
</g>
<!-- reference_tar -->
<g id="node24" class="node">
<title>reference_tar</title>
<polygon fill="#94ddf4" stroke="black" points="4411.5,-1962.49 4411.5,-1999.49 4524.5,-1999.49 4524.5,-1962.49 4411.5,-1962.49"/>
<text text-anchor="middle" x="4468" y="-1977.29" font-family="Times,serif" font-size="14.00">reference_tar</text>
</g>
<!-- reference_tar&#45;&gt;run_dragen_germline_step -->
<g id="edge33" class="edge">
<title>reference_tar&#45;&gt;run_dragen_germline_step</title>
<path fill="none" stroke="black" d="M4468,-1962.43C4468,-1884.19 4468,-1567.03 4468,-1470.81"/>
<polygon fill="black" stroke="black" points="4471.5,-1470.69 4468,-1460.69 4464.5,-1470.69 4471.5,-1470.69"/>
</g>
<!-- sample_sex -->
<g id="node25" class="node">
<title>sample_sex</title>
<polygon fill="#94ddf4" stroke="black" points="4295,-1962.49 4295,-1999.49 4393,-1999.49 4393,-1962.49 4295,-1962.49"/>
<text text-anchor="middle" x="4344" y="-1977.29" font-family="Times,serif" font-size="14.00">sample_sex</text>
</g>
<!-- sample_sex&#45;&gt;run_dragen_germline_step -->
<g id="edge34" class="edge">
<title>sample_sex&#45;&gt;run_dragen_germline_step</title>
<path fill="none" stroke="black" d="M4348.06,-1962.43C4366.14,-1884.11 4439.51,-1566.39 4461.64,-1470.51"/>
<polygon fill="black" stroke="black" points="4465.07,-1471.22 4463.91,-1460.69 4458.25,-1469.65 4465.07,-1471.22"/>
</g>
<!-- sv_call_regions_bed -->
<g id="node26" class="node">
<title>sv_call_regions_bed</title>
<polygon fill="#94ddf4" stroke="black" points="4119.5,-1962.49 4119.5,-1999.49 4276.5,-1999.49 4276.5,-1962.49 4119.5,-1962.49"/>
<text text-anchor="middle" x="4198" y="-1977.29" font-family="Times,serif" font-size="14.00">sv_call_regions_bed</text>
</g>
<!-- sv_call_regions_bed&#45;&gt;run_dragen_germline_step -->
<g id="edge35" class="edge">
<title>sv_call_regions_bed&#45;&gt;run_dragen_germline_step</title>
<path fill="none" stroke="black" d="M4206.83,-1962.43C4246.33,-1883.88 4406.93,-1564.45 4454.6,-1469.65"/>
<polygon fill="black" stroke="black" points="4457.74,-1471.2 4459.1,-1460.69 4451.48,-1468.05 4457.74,-1471.2"/>
</g>
<!-- sv_discovery -->
<g id="node27" class="node">
<title>sv_discovery</title>
<polygon fill="#94ddf4" stroke="black" points="3994.5,-1962.49 3994.5,-1999.49 4101.5,-1999.49 4101.5,-1962.49 3994.5,-1962.49"/>
<text text-anchor="middle" x="4048" y="-1977.29" font-family="Times,serif" font-size="14.00">sv_discovery</text>
</g>
<!-- sv_discovery&#45;&gt;run_dragen_germline_step -->
<g id="edge36" class="edge">
<title>sv_discovery&#45;&gt;run_dragen_germline_step</title>
<path fill="none" stroke="black" d="M4061.74,-1962.43C4123.36,-1883.64 4374.52,-1562.52 4447.82,-1468.79"/>
<polygon fill="black" stroke="black" points="4450.75,-1470.72 4454.16,-1460.69 4445.24,-1466.41 4450.75,-1470.72"/>
</g>
<!-- sv_enable_liquid_tumor_mode -->
<g id="node28" class="node">
<title>sv_enable_liquid_tumor_mode</title>
<polygon fill="#94ddf4" stroke="black" points="3746,-1962.49 3746,-1999.49 3976,-1999.49 3976,-1962.49 3746,-1962.49"/>
<text text-anchor="middle" x="3861" y="-1977.29" font-family="Times,serif" font-size="14.00">sv_enable_liquid_tumor_mode</text>
</g>
<!-- sv_enable_liquid_tumor_mode&#45;&gt;run_dragen_germline_step -->
<g id="edge37" class="edge">
<title>sv_enable_liquid_tumor_mode&#45;&gt;run_dragen_germline_step</title>
<path fill="none" stroke="black" d="M3880.85,-1962.43C3970.36,-1883.24 4336.56,-1559.28 4440.42,-1467.39"/>
<polygon fill="black" stroke="black" points="4442.82,-1469.94 4447.99,-1460.69 4438.19,-1464.69 4442.82,-1469.94"/>
</g>
<!-- sv_exome -->
<g id="node29" class="node">
<title>sv_exome</title>
<polygon fill="#94ddf4" stroke="black" points="3642,-1962.49 3642,-1999.49 3728,-1999.49 3728,-1962.49 3642,-1962.49"/>
<text text-anchor="middle" x="3685" y="-1977.29" font-family="Times,serif" font-size="14.00">sv_exome</text>
</g>
<!-- sv_exome&#45;&gt;run_dragen_germline_step -->
<g id="edge38" class="edge">
<title>sv_exome&#45;&gt;run_dragen_germline_step</title>
<path fill="none" stroke="black" d="M3702.15,-1962.45C3711.98,-1952.75 3724.77,-1940.72 3737,-1930.99 3986.98,-1732.06 4317,-1532.12 4428.95,-1465.87"/>
<polygon fill="black" stroke="black" points="4431.04,-1468.7 4437.87,-1460.6 4427.48,-1462.68 4431.04,-1468.7"/>
</g>
<!-- sv_forcegt_vcf -->
<g id="node30" class="node">
<title>sv_forcegt_vcf</title>
<polygon fill="#94ddf4" stroke="black" points="3506,-1962.49 3506,-1999.49 3624,-1999.49 3624,-1962.49 3506,-1962.49"/>
<text text-anchor="middle" x="3565" y="-1977.29" font-family="Times,serif" font-size="14.00">sv_forcegt_vcf</text>
</g>
<!-- sv_forcegt_vcf&#45;&gt;run_dragen_germline_step -->
<g id="edge39" class="edge">
<title>sv_forcegt_vcf&#45;&gt;run_dragen_germline_step</title>
<path fill="none" stroke="black" d="M3588.22,-1962.42C3601.18,-1952.82 3617.75,-1940.91 3633,-1930.99 3929.31,-1738.27 4302.94,-1532.51 4426.35,-1465.48"/>
<polygon fill="black" stroke="black" points="4428.36,-1468.37 4435.48,-1460.53 4425.02,-1462.22 4428.36,-1468.37"/>
</g>
<!-- sv_output_contigs -->
<g id="node31" class="node">
<title>sv_output_contigs</title>
<polygon fill="#94ddf4" stroke="black" points="3342.5,-1962.49 3342.5,-1999.49 3487.5,-1999.49 3487.5,-1962.49 3342.5,-1962.49"/>
<text text-anchor="middle" x="3415" y="-1977.29" font-family="Times,serif" font-size="14.00">sv_output_contigs</text>
</g>
<!-- sv_output_contigs&#45;&gt;run_dragen_germline_step -->
<g id="edge40" class="edge">
<title>sv_output_contigs&#45;&gt;run_dragen_germline_step</title>
<path fill="none" stroke="black" d="M3443.17,-1962.47C3458.85,-1952.89 3478.83,-1940.97 3497,-1930.99 3846.19,-1739.25 4279.92,-1531.82 4421.18,-1465.02"/>
<polygon fill="black" stroke="black" points="4422.91,-1468.08 4430.45,-1460.64 4419.92,-1461.75 4422.91,-1468.08"/>
</g>
<!-- sv_region -->
<g id="node32" class="node">
<title>sv_region</title>
<polygon fill="#94ddf4" stroke="black" points="3239.5,-1962.49 3239.5,-1999.49 3324.5,-1999.49 3324.5,-1962.49 3239.5,-1962.49"/>
<text text-anchor="middle" x="3282" y="-1977.29" font-family="Times,serif" font-size="14.00">sv_region</text>
</g>
<!-- sv_region&#45;&gt;run_dragen_germline_step -->
<g id="edge41" class="edge">
<title>sv_region&#45;&gt;run_dragen_germline_step</title>
<path fill="none" stroke="black" d="M3298.05,-1962.03C3307.73,-1951.96 3320.73,-1939.71 3334,-1930.99 3703.65,-1688.26 4214.08,-1519.8 4398.24,-1463.56"/>
<polygon fill="black" stroke="black" points="4399.52,-1466.83 4408.07,-1460.57 4397.49,-1460.13 4399.52,-1466.83"/>
</g>
<!-- sv_se_overlap_pair_evidence -->
<g id="node33" class="node">
<title>sv_se_overlap_pair_evidence</title>
<polygon fill="#94ddf4" stroke="black" points="3001,-1962.49 3001,-1999.49 3221,-1999.49 3221,-1962.49 3001,-1962.49"/>
<text text-anchor="middle" x="3111" y="-1977.29" font-family="Times,serif" font-size="14.00">sv_se_overlap_pair_evidence</text>
</g>
<!-- sv_se_overlap_pair_evidence&#45;&gt;run_dragen_germline_step -->
<g id="edge42" class="edge">
<title>sv_se_overlap_pair_evidence&#45;&gt;run_dragen_germline_step</title>
<path fill="none" stroke="black" d="M3153.71,-1962.41C3176.61,-1953.02 3205.31,-1941.3 3231,-1930.99 3687.29,-1747.83 4240.51,-1531.68 4413.59,-1464.19"/>
<polygon fill="black" stroke="black" points="4414.95,-1467.42 4422.99,-1460.52 4412.4,-1460.9 4414.95,-1467.42"/>
</g>
<!-- sv_tin_contam_tolerance -->
<g id="node34" class="node">
<title>sv_tin_contam_tolerance</title>
<polygon fill="#94ddf4" stroke="black" points="2791.5,-1962.49 2791.5,-1999.49 2982.5,-1999.49 2982.5,-1962.49 2791.5,-1962.49"/>
<text text-anchor="middle" x="2887" y="-1977.29" font-family="Times,serif" font-size="14.00">sv_tin_contam_tolerance</text>
</g>
<!-- sv_tin_contam_tolerance&#45;&gt;run_dragen_germline_step -->
<g id="edge43" class="edge">
<title>sv_tin_contam_tolerance&#45;&gt;run_dragen_germline_step</title>
<path fill="none" stroke="black" d="M2922.03,-1962.39C2942.23,-1952.55 2968.26,-1940.42 2992,-1930.99 3521.34,-1720.81 4180.93,-1525.55 4396.35,-1463.42"/>
<polygon fill="black" stroke="black" points="4397.63,-1466.7 4406.27,-1460.57 4395.69,-1459.97 4397.63,-1466.7"/>
</g>
<!-- vc_decoy_contigs -->
<g id="node35" class="node">
<title>vc_decoy_contigs</title>
<polygon fill="#94ddf4" stroke="black" points="2634.5,-1962.49 2634.5,-1999.49 2773.5,-1999.49 2773.5,-1962.49 2634.5,-1962.49"/>
<text text-anchor="middle" x="2704" y="-1977.29" font-family="Times,serif" font-size="14.00">vc_decoy_contigs</text>
</g>
<!-- vc_decoy_contigs&#45;&gt;run_dragen_germline_step -->
<g id="edge44" class="edge">
<title>vc_decoy_contigs&#45;&gt;run_dragen_germline_step</title>
<path fill="none" stroke="black" d="M2728.64,-1962.26C2743.76,-1952.02 2763.83,-1939.52 2783,-1930.99 3355.82,-1676.19 4096.93,-1515.63 4365.3,-1462.5"/>
<polygon fill="black" stroke="black" points="4366.29,-1465.87 4375.42,-1460.5 4364.93,-1459.01 4366.29,-1465.87"/>
</g>
<!-- vc_enable_baf -->
<g id="node36" class="node">
<title>vc_enable_baf</title>
<polygon fill="#94ddf4" stroke="black" points="2500,-1962.49 2500,-1999.49 2616,-1999.49 2616,-1962.49 2500,-1962.49"/>
<text text-anchor="middle" x="2558" y="-1977.29" font-family="Times,serif" font-size="14.00">vc_enable_baf</text>
</g>
<!-- vc_enable_baf&#45;&gt;run_dragen_germline_step -->
<g id="edge45" class="edge">
<title>vc_enable_baf&#45;&gt;run_dragen_germline_step</title>
<path fill="none" stroke="black" d="M2578.18,-1962.42C2591.1,-1951.97 2608.64,-1939.2 2626,-1930.99 3245.96,-1637.84 4069.66,-1499.47 4360.66,-1457.43"/>
<polygon fill="black" stroke="black" points="4361.38,-1460.86 4370.78,-1455.98 4360.39,-1453.93 4361.38,-1460.86"/>
</g>
<!-- vc_enable_decoy_contigs -->
<g id="node37" class="node">
<title>vc_enable_decoy_contigs</title>
<polygon fill="#94ddf4" stroke="black" points="2288.5,-1962.49 2288.5,-1999.49 2481.5,-1999.49 2481.5,-1962.49 2288.5,-1962.49"/>
<text text-anchor="middle" x="2385" y="-1977.29" font-family="Times,serif" font-size="14.00">vc_enable_decoy_contigs</text>
</g>
<!-- vc_enable_decoy_contigs&#45;&gt;run_dragen_germline_step -->
<g id="edge46" class="edge">
<title>vc_enable_decoy_contigs&#45;&gt;run_dragen_germline_step</title>
<path fill="none" stroke="black" d="M2418.68,-1962.41C2439.18,-1952.22 2466.13,-1939.72 2491,-1930.99 3186.55,-1686.9 4060.57,-1516.7 4360.93,-1461.94"/>
<polygon fill="black" stroke="black" points="4361.73,-1465.36 4370.94,-1460.12 4360.48,-1458.47 4361.73,-1465.36"/>
</g>
<!-- vc_enable_gatk_acceleration -->
<g id="node38" class="node">
<title>vc_enable_gatk_acceleration</title>
<polygon fill="#94ddf4" stroke="black" points="2052,-1962.49 2052,-1999.49 2270,-1999.49 2270,-1962.49 2052,-1962.49"/>
<text text-anchor="middle" x="2161" y="-1977.29" font-family="Times,serif" font-size="14.00">vc_enable_gatk_acceleration</text>
</g>
<!-- vc_enable_gatk_acceleration&#45;&gt;run_dragen_germline_step -->
<g id="edge47" class="edge">
<title>vc_enable_gatk_acceleration&#45;&gt;run_dragen_germline_step</title>
<path fill="none" stroke="black" d="M2198.97,-1962.4C2222.04,-1952.21 2252.3,-1939.71 2280,-1930.99 3062.45,-1684.64 4039.67,-1513.14 4360.52,-1460.24"/>
<polygon fill="black" stroke="black" points="4361.44,-1463.63 4370.74,-1458.55 4360.31,-1456.72 4361.44,-1463.63"/>
</g>
<!-- vc_enable_phasing -->
<g id="node39" class="node">
<title>vc_enable_phasing</title>
<polygon fill="#94ddf4" stroke="black" points="1884.5,-1962.49 1884.5,-1999.49 2033.5,-1999.49 2033.5,-1962.49 1884.5,-1962.49"/>
<text text-anchor="middle" x="1959" y="-1977.29" font-family="Times,serif" font-size="14.00">vc_enable_phasing</text>
</g>
<!-- vc_enable_phasing&#45;&gt;run_dragen_germline_step -->
<g id="edge48" class="edge">
<title>vc_enable_phasing&#45;&gt;run_dragen_germline_step</title>
<path fill="none" stroke="black" d="M1984,-1962.45C2000.16,-1951.89 2022.01,-1938.97 2043,-1930.99 2900.34,-1605.02 4015.06,-1483.29 4360.94,-1451.9"/>
<polygon fill="black" stroke="black" points="4361.3,-1455.38 4370.95,-1450.99 4360.67,-1448.41 4361.3,-1455.38"/>
</g>
<!-- vc_enable_roh -->
<g id="node40" class="node">
<title>vc_enable_roh</title>
<polygon fill="#94ddf4" stroke="black" points="1749.5,-1962.49 1749.5,-1999.49 1866.5,-1999.49 1866.5,-1962.49 1749.5,-1962.49"/>
<text text-anchor="middle" x="1808" y="-1977.29" font-family="Times,serif" font-size="14.00">vc_enable_roh</text>
</g>
<!-- vc_enable_roh&#45;&gt;run_dragen_germline_step -->
<g id="edge49" class="edge">
<title>vc_enable_roh&#45;&gt;run_dragen_germline_step</title>
<path fill="none" stroke="black" d="M1827.4,-1962.45C1840.29,-1951.74 1858.08,-1938.68 1876,-1930.99 2781.78,-1542.41 3996.79,-1462.28 4360.7,-1446.61"/>
<polygon fill="black" stroke="black" points="4361.11,-1450.1 4370.96,-1446.18 4360.82,-1443.11 4361.11,-1450.1"/>
</g>
<!-- vc_enable_vcf_output -->
<g id="node41" class="node">
<title>vc_enable_vcf_output</title>
<polygon fill="#94ddf4" stroke="black" points="1563,-1962.49 1563,-1999.49 1731,-1999.49 1731,-1962.49 1563,-1962.49"/>
<text text-anchor="middle" x="1647" y="-1977.29" font-family="Times,serif" font-size="14.00">vc_enable_vcf_output</text>
</g>
<!-- vc_enable_vcf_output&#45;&gt;run_dragen_germline_step -->
<g id="edge50" class="edge">
<title>vc_enable_vcf_output&#45;&gt;run_dragen_germline_step</title>
<path fill="none" stroke="black" d="M1675.2,-1962.4C1693.37,-1951.81 1717.83,-1938.9 1741,-1930.99 2723.83,-1595.66 3988.66,-1478.84 4360.65,-1450.47"/>
<polygon fill="black" stroke="black" points="4361.16,-1453.95 4370.87,-1449.7 4360.63,-1446.97 4361.16,-1453.95"/>
</g>
<!-- vc_hard_filter -->
<g id="node42" class="node">
<title>vc_hard_filter</title>
<polygon fill="#94ddf4" stroke="black" points="1431.5,-1962.49 1431.5,-1999.49 1544.5,-1999.49 1544.5,-1962.49 1431.5,-1962.49"/>
<text text-anchor="middle" x="1488" y="-1977.29" font-family="Times,serif" font-size="14.00">vc_hard_filter</text>
</g>
<!-- vc_hard_filter&#45;&gt;run_dragen_germline_step -->
<g id="edge51" class="edge">
<title>vc_hard_filter&#45;&gt;run_dragen_germline_step</title>
<path fill="none" stroke="black" d="M1506.69,-1962.31C1519.15,-1951.55 1536.4,-1938.48 1554,-1930.99 2581.23,-1493.92 3967.9,-1447.3 4360.48,-1443.14"/>
<polygon fill="black" stroke="black" points="4360.72,-1446.64 4370.69,-1443.04 4360.65,-1439.64 4360.72,-1446.64"/>
</g>
<!-- vc_max_reads_per_active_region -->
<g id="node43" class="node">
<title>vc_max_reads_per_active_region</title>
<polygon fill="#94ddf4" stroke="black" points="1165,-1962.49 1165,-1999.49 1413,-1999.49 1413,-1962.49 1165,-1962.49"/>
<text text-anchor="middle" x="1289" y="-1977.29" font-family="Times,serif" font-size="14.00">vc_max_reads_per_active_region</text>
</g>
<!-- vc_max_reads_per_active_region&#45;&gt;run_dragen_germline_step -->
<g id="edge52" class="edge">
<title>vc_max_reads_per_active_region&#45;&gt;run_dragen_germline_step</title>
<path fill="none" stroke="black" d="M1330.59,-1962.44C1356.72,-1952 1391.36,-1939.23 1423,-1930.99 2552.15,-1636.97 3965.57,-1489.89 4360.94,-1452.65"/>
<polygon fill="black" stroke="black" points="4361.31,-1456.13 4370.94,-1451.71 4360.65,-1449.16 4361.31,-1456.13"/>
</g>
<!-- vc_max_reads_per_raw_region -->
<g id="node44" class="node">
<title>vc_max_reads_per_raw_region</title>
<polygon fill="#94ddf4" stroke="black" points="913.5,-1962.49 913.5,-1999.49 1146.5,-1999.49 1146.5,-1962.49 913.5,-1962.49"/>
<text text-anchor="middle" x="1030" y="-1977.29" font-family="Times,serif" font-size="14.00">vc_max_reads_per_raw_region</text>
</g>
<!-- vc_max_reads_per_raw_region&#45;&gt;run_dragen_germline_step -->
<g id="edge53" class="edge">
<title>vc_max_reads_per_raw_region&#45;&gt;run_dragen_germline_step</title>
<path fill="none" stroke="black" d="M1068.41,-1962.45C1092.99,-1951.89 1125.82,-1938.97 1156,-1930.99 2389.54,-1604.7 3943.11,-1479.16 4360.64,-1450.01"/>
<polygon fill="black" stroke="black" points="4361.16,-1453.49 4370.89,-1449.3 4360.67,-1446.5 4361.16,-1453.49"/>
</g>
<!-- vc_remove_all_soft_clips -->
<g id="node45" class="node">
<title>vc_remove_all_soft_clips</title>
<polygon fill="#94ddf4" stroke="black" points="705,-1962.49 705,-1999.49 895,-1999.49 895,-1962.49 705,-1962.49"/>
<text text-anchor="middle" x="800" y="-1977.29" font-family="Times,serif" font-size="14.00">vc_remove_all_soft_clips</text>
</g>
<!-- vc_remove_all_soft_clips&#45;&gt;run_dragen_germline_step -->
<g id="edge54" class="edge">
<title>vc_remove_all_soft_clips&#45;&gt;run_dragen_germline_step</title>
<path fill="none" stroke="black" d="M831.19,-1962.4C851.59,-1951.67 879.14,-1938.61 905,-1930.99 2228.68,-1541.21 3922.42,-1460.72 4360.69,-1446"/>
<polygon fill="black" stroke="black" points="4360.93,-1449.5 4370.81,-1445.67 4360.7,-1442.5 4360.93,-1449.5"/>
</g>
<!-- vc_roh_blacklist_bed -->
<g id="node46" class="node">
<title>vc_roh_blacklist_bed</title>
<polygon fill="#94ddf4" stroke="black" points="523.5,-1962.49 523.5,-1999.49 686.5,-1999.49 686.5,-1962.49 523.5,-1962.49"/>
<text text-anchor="middle" x="605" y="-1977.29" font-family="Times,serif" font-size="14.00">vc_roh_blacklist_bed</text>
</g>
<!-- vc_roh_blacklist_bed&#45;&gt;run_dragen_germline_step -->
<g id="edge55" class="edge">
<title>vc_roh_blacklist_bed&#45;&gt;run_dragen_germline_step</title>
<path fill="none" stroke="black" d="M631.32,-1962.47C648.9,-1951.63 672.94,-1938.41 696,-1930.99 2092.2,-1481.75 3905.2,-1444.7 4360.64,-1442.77"/>
<polygon fill="black" stroke="black" points="4360.84,-1446.26 4370.83,-1442.73 4360.81,-1439.26 4360.84,-1446.26"/>
</g>
<!-- vc_target_bed -->
<g id="node47" class="node">
<title>vc_target_bed</title>
<polygon fill="#94ddf4" stroke="black" points="389,-1962.49 389,-1999.49 505,-1999.49 505,-1962.49 389,-1962.49"/>
<text text-anchor="middle" x="447" y="-1977.29" font-family="Times,serif" font-size="14.00">vc_target_bed</text>
</g>
<!-- vc_target_bed&#45;&gt;run_dragen_germline_step -->
<g id="edge56" class="edge">
<title>vc_target_bed&#45;&gt;run_dragen_germline_step</title>
<path fill="none" stroke="black" d="M465.96,-1962.3C478.8,-1951.4 496.71,-1938.16 515,-1930.99 1248.04,-1643.62 3804.97,-1481.35 4360.82,-1449.02"/>
<polygon fill="black" stroke="black" points="4361.05,-1452.51 4370.84,-1448.44 4360.65,-1445.52 4361.05,-1452.51"/>
</g>
<!-- vc_target_bed_padding -->
<g id="node48" class="node">
<title>vc_target_bed_padding</title>
<polygon fill="#94ddf4" stroke="black" points="189.5,-1962.49 189.5,-1999.49 370.5,-1999.49 370.5,-1962.49 189.5,-1962.49"/>
<text text-anchor="middle" x="280" y="-1977.29" font-family="Times,serif" font-size="14.00">vc_target_bed_padding</text>
</g>
<!-- vc_target_bed_padding&#45;&gt;run_dragen_germline_step -->
<g id="edge57" class="edge">
<title>vc_target_bed_padding&#45;&gt;run_dragen_germline_step</title>
<path fill="none" stroke="black" d="M309.13,-1962.45C328.53,-1951.61 354.97,-1938.39 380,-1930.99 1911.46,-1478.63 3883.4,-1444.16 4360.6,-1442.71"/>
<polygon fill="black" stroke="black" points="4360.92,-1446.21 4370.91,-1442.68 4360.9,-1439.21 4360.92,-1446.21"/>
</g>
<!-- vc_target_coverage -->
<g id="node49" class="node">
<title>vc_target_coverage</title>
<polygon fill="#94ddf4" stroke="black" points="16.5,-1962.49 16.5,-1999.49 171.5,-1999.49 171.5,-1962.49 16.5,-1962.49"/>
<text text-anchor="middle" x="94" y="-1977.29" font-family="Times,serif" font-size="14.00">vc_target_coverage</text>
</g>
<!-- vc_target_coverage&#45;&gt;run_dragen_germline_step -->
<g id="edge58" class="edge">
<title>vc_target_coverage&#45;&gt;run_dragen_germline_step</title>
<path fill="none" stroke="black" d="M118.7,-1962.33C135.24,-1951.42 157.95,-1938.19 180,-1930.99 994.72,-1664.97 3777.78,-1484.68 4360.48,-1449.35"/>
<polygon fill="black" stroke="black" points="4360.78,-1452.84 4370.55,-1448.74 4360.36,-1445.85 4360.78,-1452.84"/>
</g>
<!-- dragen_bam_out -->
<g id="node50" class="node">
<title>dragen_bam_out</title>
<polygon fill="#94ddf4" stroke="black" points="4271,-387.49 4271,-424.49 4405,-424.49 4405,-387.49 4271,-387.49"/>
<text text-anchor="middle" x="4338" y="-402.29" font-family="Times,serif" font-size="14.00">dragen_bam_out</text>
</g>
<!-- dragen_germline_output_directory -->
<g id="node51" class="node">
<title>dragen_germline_output_directory</title>
<polygon fill="#94ddf4" stroke="black" points="4423.5,-387.49 4423.5,-424.49 4686.5,-424.49 4686.5,-387.49 4423.5,-387.49"/>
<text text-anchor="middle" x="4555" y="-402.29" font-family="Times,serif" font-size="14.00">dragen_germline_output_directory</text>
</g>
<!-- dragen_vcf_out -->
<g id="node52" class="node">
<title>dragen_vcf_out</title>
<polygon fill="#94ddf4" stroke="black" points="4704.5,-387.49 4704.5,-424.49 4829.5,-424.49 4829.5,-387.49 4704.5,-387.49"/>
<text text-anchor="middle" x="4767" y="-402.29" font-family="Times,serif" font-size="14.00">dragen_vcf_out</text>
</g>
<!-- multiqc_output_directory -->
<g id="node53" class="node">
<title>multiqc_output_directory</title>
<polygon fill="#94ddf4" stroke="black" points="4847.5,-387.49 4847.5,-424.49 5044.5,-424.49 5044.5,-387.49 4847.5,-387.49"/>
<text text-anchor="middle" x="4946" y="-402.29" font-family="Times,serif" font-size="14.00">multiqc_output_directory</text>
</g>
<!-- run_dragen_germline_step&#45;&gt;dragen_bam_out -->
<g id="edge2" class="edge">
<title>run_dragen_germline_step&#45;&gt;dragen_bam_out</title>
<path fill="none" stroke="black" d="M4465.8,-1423.48C4450.53,-1302.05 4360.49,-585.87 4341.51,-434.92"/>
<polygon fill="black" stroke="black" points="4344.94,-434.15 4340.22,-424.66 4338,-435.02 4344.94,-434.15"/>
</g>
<!-- run_dragen_germline_step&#45;&gt;dragen_germline_output_directory -->
<g id="edge3" class="edge">
<title>run_dragen_germline_step&#45;&gt;dragen_germline_output_directory</title>
<path fill="none" stroke="black" d="M4469.47,-1423.48C4479.69,-1302.05 4539.95,-585.87 4552.65,-434.92"/>
<polygon fill="black" stroke="black" points="4556.16,-434.92 4553.51,-424.66 4549.19,-434.33 4556.16,-434.92"/>
</g>
<!-- run_dragen_germline_step&#45;&gt;dragen_vcf_out -->
<g id="edge4" class="edge">
<title>run_dragen_germline_step&#45;&gt;dragen_vcf_out</title>
<path fill="none" stroke="black" d="M4473.06,-1423.48C4508.21,-1301.93 4715.69,-584.44 4759.06,-434.46"/>
<polygon fill="black" stroke="black" points="4762.47,-435.24 4761.89,-424.66 4755.75,-433.3 4762.47,-435.24"/>
</g>
<!-- run_dragen_germline_step&#45;&gt;dragen_qc_step -->
<g id="edge1" class="edge">
<title>run_dragen_germline_step&#45;&gt;dragen_qc_step</title>
<path fill="none" stroke="black" d="M4565.36,-1428.17C5113.47,-1356 7807.44,-1001.3 8307.16,-935.5"/>
<polygon fill="black" stroke="black" points="8307.71,-938.96 8317.17,-934.19 8306.8,-932.02 8307.71,-938.96"/>
</g>
<!-- dragen_qc_step&#45;&gt;multiqc_output_directory -->
<g id="edge5" class="edge">
<title>dragen_qc_step&#45;&gt;multiqc_output_directory</title>
<path fill="none" stroke="black" d="M8317.49,-912.57C7886.85,-847.99 5584.14,-502.69 5054.62,-423.28"/>
<polygon fill="black" stroke="black" points="5055.1,-419.81 5044.69,-421.79 5054.06,-426.74 5055.1,-419.81"/>
</g>
<!-- create_dummy_file_step -->
<g id="node56" class="node">
<title>create_dummy_file_step</title>
<polygon fill="lightgoldenrodyellow" stroke="black" points="8433.5,-1423.49 8433.5,-1460.49 8694.5,-1460.49 8694.5,-1423.49 8433.5,-1423.49"/>
<text text-anchor="middle" x="8564" y="-1438.29" font-family="Times,serif" font-size="14.00">custom&#45;create&#45;dummy&#45;file v(1.0.0)</text>
</g>
<!-- create_dummy_file_step&#45;&gt;dragen_qc_step -->
<g id="edge6" class="edge">
<title>create_dummy_file_step&#45;&gt;dragen_qc_step</title>
<path fill="none" stroke="black" d="M8557.91,-1423.23C8531.66,-1346.71 8428.12,-1044.87 8396.33,-952.2"/>
<polygon fill="black" stroke="black" points="8399.62,-951 8393.07,-942.68 8393,-953.27 8399.62,-951"/>
</g>
<!-- \n -->
<g id="node57" class="node">
<title>\n</title>
<ellipse fill="none" stroke="black" cx="8502" cy="-1980.99" rx="27" ry="18"/>
</g>
</g>
</svg>
