<?xml version="1.0" encoding="UTF-8" standalone="no"?>
<!DOCTYPE svg PUBLIC "-//W3C//DTD SVG 1.1//EN"
 "http://www.w3.org/Graphics/SVG/1.1/DTD/svg11.dtd">
<!-- Generated by graphviz version 2.43.0 (0)
 -->
<!-- Title: G Pages: 1 -->
<svg width="8648pt" height="2194pt"
 viewBox="0.00 0.00 8648.00 2193.92" xmlns="http://www.w3.org/2000/svg" xmlns:xlink="http://www.w3.org/1999/xlink">
<g id="graph0" class="graph" transform="scale(1 1) rotate(0) translate(4 2189.92)">
<title>G</title>
<polygon fill="#eeeeee" stroke="transparent" points="-4,4 -4,-2189.92 8644,-2189.92 8644,4 -4,4"/>
<g id="clust1" class="cluster">
<title>cluster_inputs</title>
<polygon fill="#eeeeee" stroke="black" stroke-dasharray="5,2" points="8,-1601.63 8,-2130.93 8576,-2130.93 8576,-1601.63 8,-1601.63"/>
<text text-anchor="middle" x="8509.5" y="-1609.43" font-family="Times,serif" font-size="14.00">Workflow Inputs</text>
</g>
<g id="clust2" class="cluster">
<title>cluster_outputs</title>
<polygon fill="#eeeeee" stroke="black" stroke-dasharray="5,2" points="3642,-54.99 3642,-584.29 4433,-584.29 4433,-54.99 3642,-54.99"/>
<text text-anchor="middle" x="4360.5" y="-62.79" font-family="Times,serif" font-size="14.00">Workflow Outputs</text>
</g>
<!-- output_file_prefix -->
<g id="node1" class="node">
<title>output_file_prefix</title>
<polygon fill="#94ddf4" stroke="black" points="16,-1926.49 16,-1963.49 156,-1963.49 156,-1926.49 16,-1926.49"/>
<text text-anchor="middle" x="86" y="-1941.29" font-family="Times,serif" font-size="14.00">output_file_prefix</text>
</g>
<!-- dragen_qc_step -->
<g id="node56" class="node">
<title>dragen_qc_step</title>
<polygon fill="lightgoldenrodyellow" stroke="black" points="16.5,-888.49 16.5,-925.49 155.5,-925.49 155.5,-888.49 16.5,-888.49"/>
<text text-anchor="middle" x="86" y="-903.29" font-family="Times,serif" font-size="14.00">multiqc v(1.14.0)</text>
</g>
<!-- output_file_prefix&#45;&gt;dragen_qc_step -->
<g id="edge7" class="edge">
<title>output_file_prefix&#45;&gt;dragen_qc_step</title>
<path fill="none" stroke="black" d="M82.16,-1926.44C69.6,-1804.78 69.29,-1087.22 81.22,-935.97"/>
<polygon fill="black" stroke="black" points="84.73,-935.97 82.14,-925.7 77.76,-935.35 84.73,-935.97"/>
</g>
<!-- output_file_prefix&#45;&gt;dragen_qc_step -->
<g id="edge8" class="edge">
<title>output_file_prefix&#45;&gt;dragen_qc_step</title>
<path fill="none" stroke="black" d="M86,-1926.44C86,-1804.78 86,-1087.22 86,-935.97"/>
<polygon fill="black" stroke="black" points="89.5,-935.7 86,-925.7 82.5,-935.7 89.5,-935.7"/>
</g>
<!-- output_file_prefix&#45;&gt;dragen_qc_step -->
<g id="edge9" class="edge">
<title>output_file_prefix&#45;&gt;dragen_qc_step</title>
<path fill="none" stroke="black" d="M89.84,-1926.44C102.4,-1804.78 102.71,-1087.22 90.78,-935.97"/>
<polygon fill="black" stroke="black" points="94.24,-935.35 89.86,-925.7 87.27,-935.97 94.24,-935.35"/>
</g>
<!-- run_dragen_germline_step -->
<g id="node57" class="node">
<title>run_dragen_germline_step</title>
<polygon fill="lightgoldenrodyellow" stroke="black" points="4159,-1397.49 4159,-1434.49 4353,-1434.49 4353,-1397.49 4159,-1397.49"/>
<text text-anchor="middle" x="4256" y="-1412.29" font-family="Times,serif" font-size="14.00">dragen&#45;germline v(4.0.3)</text>
</g>
<!-- output_file_prefix&#45;&gt;run_dragen_germline_step -->
<g id="edge10" class="edge">
<title>output_file_prefix&#45;&gt;run_dragen_germline_step</title>
<path fill="none" stroke="black" d="M108.79,-1926.32C124.11,-1915.41 145.22,-1902.18 166,-1894.99 936.78,-1628.44 3582.47,-1457.33 4148.77,-1423.26"/>
<polygon fill="black" stroke="black" points="4149.19,-1426.74 4158.96,-1422.65 4148.77,-1419.76 4149.19,-1426.74"/>
</g>
<!-- bam_input -->
<g id="node2" class="node">
<title>bam_input</title>
<polygon fill="#94ddf4" stroke="black" points="8302,-1926.49 8302,-1963.49 8394,-1963.49 8394,-1926.49 8302,-1926.49"/>
<text text-anchor="middle" x="8348" y="-1941.29" font-family="Times,serif" font-size="14.00">bam_input</text>
</g>
<!-- bam_input&#45;&gt;run_dragen_germline_step -->
<g id="edge11" class="edge">
<title>bam_input&#45;&gt;run_dragen_germline_step</title>
<path fill="none" stroke="black" d="M8333.53,-1926.49C8323.39,-1915.51 8308.86,-1902.13 8293,-1894.99 7558.96,-1564.71 4928.01,-1443.51 4363.25,-1421.02"/>
<polygon fill="black" stroke="black" points="4363.21,-1417.51 4353.08,-1420.61 4362.93,-1424.51 4363.21,-1417.51"/>
</g>
<!-- cnv_enable_self_normalization -->
<g id="node3" class="node">
<title>cnv_enable_self_normalization</title>
<polygon fill="#94ddf4" stroke="black" points="8050.5,-1926.49 8050.5,-1963.49 8283.5,-1963.49 8283.5,-1926.49 8050.5,-1926.49"/>
<text text-anchor="middle" x="8167" y="-1941.29" font-family="Times,serif" font-size="14.00">cnv_enable_self_normalization</text>
</g>
<!-- cnv_enable_self_normalization&#45;&gt;run_dragen_germline_step -->
<g id="edge12" class="edge">
<title>cnv_enable_self_normalization&#45;&gt;run_dragen_germline_step</title>
<path fill="none" stroke="black" d="M8129.51,-1926.47C8105.1,-1915.77 8072.27,-1902.71 8042,-1894.99 6616.84,-1531.71 4816.39,-1439.03 4363.22,-1420.82"/>
<polygon fill="black" stroke="black" points="4363.22,-1417.32 4353.09,-1420.42 4362.94,-1424.32 4363.22,-1417.32"/>
</g>
<!-- dbsnp_annotation -->
<g id="node4" class="node">
<title>dbsnp_annotation</title>
<polygon fill="#94ddf4" stroke="black" points="7889.5,-1926.49 7889.5,-1963.49 8032.5,-1963.49 8032.5,-1926.49 7889.5,-1926.49"/>
<text text-anchor="middle" x="7961" y="-1941.29" font-family="Times,serif" font-size="14.00">dbsnp_annotation</text>
</g>
<!-- dbsnp_annotation&#45;&gt;run_dragen_germline_step -->
<g id="edge13" class="edge">
<title>dbsnp_annotation&#45;&gt;run_dragen_germline_step</title>
<path fill="none" stroke="black" d="M7937.85,-1926.42C7922.32,-1915.57 7900.94,-1902.34 7880,-1894.99 7202.43,-1657.14 4890.67,-1466.27 4363.58,-1425.19"/>
<polygon fill="black" stroke="black" points="4363.57,-1421.68 4353.33,-1424.39 4363.02,-1428.66 4363.57,-1421.68"/>
</g>
<!-- dedup_min_qual -->
<g id="node5" class="node">
<title>dedup_min_qual</title>
<polygon fill="#94ddf4" stroke="black" points="7739,-1926.49 7739,-1963.49 7871,-1963.49 7871,-1926.49 7739,-1926.49"/>
<text text-anchor="middle" x="7805" y="-1941.29" font-family="Times,serif" font-size="14.00">dedup_min_qual</text>
</g>
<!-- dedup_min_qual&#45;&gt;run_dragen_germline_step -->
<g id="edge14" class="edge">
<title>dedup_min_qual&#45;&gt;run_dragen_germline_step</title>
<path fill="none" stroke="black" d="M7783.75,-1926.43C7769.45,-1915.57 7749.67,-1902.34 7730,-1894.99 7086.3,-1654.37 4876.34,-1466.41 4363.08,-1425.36"/>
<polygon fill="black" stroke="black" points="4363.33,-1421.87 4353.09,-1424.56 4362.78,-1428.84 4363.33,-1421.87"/>
</g>
<!-- enable_cnv -->
<g id="node6" class="node">
<title>enable_cnv</title>
<polygon fill="#94ddf4" stroke="black" points="7625.5,-1926.49 7625.5,-1963.49 7720.5,-1963.49 7720.5,-1926.49 7625.5,-1926.49"/>
<text text-anchor="middle" x="7673" y="-1941.29" font-family="Times,serif" font-size="14.00">enable_cnv</text>
</g>
<!-- enable_cnv&#45;&gt;run_dragen_germline_step -->
<g id="edge15" class="edge">
<title>enable_cnv&#45;&gt;run_dragen_germline_step</title>
<path fill="none" stroke="black" d="M7657.69,-1926.13C7647.34,-1915.3 7632.73,-1902.21 7617,-1894.99 7013.46,-1618.16 4868.58,-1458.34 4363.21,-1424.01"/>
<polygon fill="black" stroke="black" points="4363.23,-1420.51 4353.01,-1423.32 4362.75,-1427.49 4363.23,-1420.51"/>
</g>
<!-- enable_duplicate_marking -->
<g id="node7" class="node">
<title>enable_duplicate_marking</title>
<polygon fill="#94ddf4" stroke="black" points="7404.5,-1926.49 7404.5,-1963.49 7607.5,-1963.49 7607.5,-1926.49 7404.5,-1926.49"/>
<text text-anchor="middle" x="7506" y="-1941.29" font-family="Times,serif" font-size="14.00">enable_duplicate_marking</text>
</g>
<!-- enable_duplicate_marking&#45;&gt;run_dragen_germline_step -->
<g id="edge16" class="edge">
<title>enable_duplicate_marking&#45;&gt;run_dragen_germline_step</title>
<path fill="none" stroke="black" d="M7472.38,-1926.35C7450.81,-1915.75 7421.9,-1902.83 7395,-1894.99 6237.96,-1558 4767.92,-1447.98 4363.25,-1423.04"/>
<polygon fill="black" stroke="black" points="4363.22,-1419.53 4353.02,-1422.41 4362.79,-1426.51 4363.22,-1419.53"/>
</g>
<!-- enable_hla -->
<g id="node8" class="node">
<title>enable_hla</title>
<polygon fill="#94ddf4" stroke="black" points="7294,-1926.49 7294,-1963.49 7386,-1963.49 7386,-1926.49 7294,-1926.49"/>
<text text-anchor="middle" x="7340" y="-1941.29" font-family="Times,serif" font-size="14.00">enable_hla</text>
</g>
<!-- enable_hla&#45;&gt;run_dragen_germline_step -->
<g id="edge17" class="edge">
<title>enable_hla&#45;&gt;run_dragen_germline_step</title>
<path fill="none" stroke="black" d="M7324.99,-1926.21C7314.83,-1915.41 7300.49,-1902.32 7285,-1894.99 6747.04,-1640.32 4838.02,-1465.86 4363.42,-1425.79"/>
<polygon fill="black" stroke="black" points="4363.41,-1422.27 4353.15,-1424.92 4362.82,-1429.25 4363.41,-1422.27"/>
</g>
<!-- enable_map_align_output -->
<g id="node9" class="node">
<title>enable_map_align_output</title>
<polygon fill="#94ddf4" stroke="black" points="7078.5,-1926.49 7078.5,-1963.49 7275.5,-1963.49 7275.5,-1926.49 7078.5,-1926.49"/>
<text text-anchor="middle" x="7177" y="-1941.29" font-family="Times,serif" font-size="14.00">enable_map_align_output</text>
</g>
<!-- enable_map_align_output&#45;&gt;run_dragen_germline_step -->
<g id="edge18" class="edge">
<title>enable_map_align_output&#45;&gt;run_dragen_germline_step</title>
<path fill="none" stroke="black" d="M7144.3,-1926.48C7123.31,-1915.92 7095.18,-1903.01 7069,-1894.99 6043.69,-1581.05 4741.08,-1456.27 4363.19,-1425.21"/>
<polygon fill="black" stroke="black" points="4363.34,-1421.71 4353.09,-1424.38 4362.77,-1428.69 4363.34,-1421.71"/>
</g>
<!-- enable_sv -->
<g id="node10" class="node">
<title>enable_sv</title>
<polygon fill="#94ddf4" stroke="black" points="6974,-1926.49 6974,-1963.49 7060,-1963.49 7060,-1926.49 6974,-1926.49"/>
<text text-anchor="middle" x="7017" y="-1941.29" font-family="Times,serif" font-size="14.00">enable_sv</text>
</g>
<!-- enable_sv&#45;&gt;run_dragen_germline_step -->
<g id="edge19" class="edge">
<title>enable_sv&#45;&gt;run_dragen_germline_step</title>
<path fill="none" stroke="black" d="M7002.95,-1926.29C6993.41,-1915.52 6979.86,-1902.45 6965,-1894.99 6491.87,-1657.52 4806.63,-1472.88 4363.43,-1427.65"/>
<polygon fill="black" stroke="black" points="4363.5,-1424.14 4353.19,-1426.61 4362.79,-1431.1 4363.5,-1424.14"/>
</g>
<!-- fastq_list -->
<g id="node11" class="node">
<title>fastq_list</title>
<polygon fill="#94ddf4" stroke="black" points="6874,-1926.49 6874,-1963.49 6956,-1963.49 6956,-1926.49 6874,-1926.49"/>
<text text-anchor="middle" x="6915" y="-1941.29" font-family="Times,serif" font-size="14.00">fastq_list</text>
</g>
<!-- fastq_list&#45;&gt;run_dragen_germline_step -->
<g id="edge20" class="edge">
<title>fastq_list&#45;&gt;run_dragen_germline_step</title>
<path fill="none" stroke="black" d="M6901.61,-1926.32C6892.48,-1915.56 6879.46,-1902.49 6865,-1894.99 6413.1,-1660.73 4796.06,-1474.6 4363.21,-1428.18"/>
<polygon fill="black" stroke="black" points="4363.53,-1424.69 4353.21,-1427.1 4362.78,-1431.65 4363.53,-1424.69"/>
</g>
<!-- fastq_list_rows -->
<g id="node12" class="node">
<title>fastq_list_rows</title>
<polygon fill="#94ddf4" stroke="black" points="6732.5,-1926.49 6732.5,-1963.49 6855.5,-1963.49 6855.5,-1926.49 6732.5,-1926.49"/>
<text text-anchor="middle" x="6794" y="-1941.29" font-family="Times,serif" font-size="14.00">fastq_list_rows</text>
</g>
<!-- fastq_list_rows&#45;&gt;run_dragen_germline_step -->
<g id="edge21" class="edge">
<title>fastq_list_rows&#45;&gt;run_dragen_germline_step</title>
<path fill="none" stroke="black" d="M6773.3,-1926.27C6759.81,-1915.63 6741.36,-1902.71 6723,-1894.99 5861.71,-1533.15 4715.17,-1442.2 4363.23,-1422.13"/>
<polygon fill="black" stroke="black" points="4363.24,-1418.62 4353.06,-1421.56 4362.84,-1425.61 4363.24,-1418.62"/>
</g>
<!-- hla_allele_frequency_file -->
<g id="node13" class="node">
<title>hla_allele_frequency_file</title>
<polygon fill="#94ddf4" stroke="black" points="6524,-1926.49 6524,-1963.49 6714,-1963.49 6714,-1926.49 6524,-1926.49"/>
<text text-anchor="middle" x="6619" y="-1941.29" font-family="Times,serif" font-size="14.00">hla_allele_frequency_file</text>
</g>
<!-- hla_allele_frequency_file&#45;&gt;run_dragen_germline_step -->
<g id="edge22" class="edge">
<title>hla_allele_frequency_file&#45;&gt;run_dragen_germline_step</title>
<path fill="none" stroke="black" d="M6586.55,-1926.31C6566.43,-1915.96 6539.78,-1903.33 6515,-1894.99 5710.46,-1624.43 4691.37,-1474.43 4363.06,-1430.65"/>
<polygon fill="black" stroke="black" points="4363.45,-1427.17 4353.08,-1429.32 4362.53,-1434.11 4363.45,-1427.17"/>
</g>
<!-- hla_bed_file -->
<g id="node14" class="node">
<title>hla_bed_file</title>
<polygon fill="#94ddf4" stroke="black" points="6406,-1926.49 6406,-1963.49 6506,-1963.49 6506,-1926.49 6406,-1926.49"/>
<text text-anchor="middle" x="6456" y="-1941.29" font-family="Times,serif" font-size="14.00">hla_bed_file</text>
</g>
<!-- hla_bed_file&#45;&gt;run_dragen_germline_step -->
<g id="edge23" class="edge">
<title>hla_bed_file&#45;&gt;run_dragen_germline_step</title>
<path fill="none" stroke="black" d="M6438.99,-1926.09C6427.97,-1915.52 6412.78,-1902.74 6397,-1894.99 5674.93,-1540.51 4687.01,-1445.58 4363.39,-1423.22"/>
<polygon fill="black" stroke="black" points="4363.3,-1419.7 4353.08,-1422.51 4362.82,-1426.68 4363.3,-1419.7"/>
</g>
<!-- hla_min_reads -->
<g id="node15" class="node">
<title>hla_min_reads</title>
<polygon fill="#94ddf4" stroke="black" points="6268.5,-1926.49 6268.5,-1963.49 6387.5,-1963.49 6387.5,-1926.49 6268.5,-1926.49"/>
<text text-anchor="middle" x="6328" y="-1941.29" font-family="Times,serif" font-size="14.00">hla_min_reads</text>
</g>
<!-- hla_min_reads&#45;&gt;run_dragen_germline_step -->
<g id="edge24" class="edge">
<title>hla_min_reads&#45;&gt;run_dragen_germline_step</title>
<path fill="none" stroke="black" d="M6307.55,-1926.28C6294.45,-1915.78 6276.66,-1903 6259,-1894.99 5577.34,-1585.76 4670.89,-1462.61 4363.3,-1428.01"/>
<polygon fill="black" stroke="black" points="4363.38,-1424.5 4353.05,-1426.87 4362.6,-1431.46 4363.38,-1424.5"/>
</g>
<!-- hla_reference_file -->
<g id="node16" class="node">
<title>hla_reference_file</title>
<polygon fill="#94ddf4" stroke="black" points="6108,-1926.49 6108,-1963.49 6250,-1963.49 6250,-1926.49 6108,-1926.49"/>
<text text-anchor="middle" x="6179" y="-1941.29" font-family="Times,serif" font-size="14.00">hla_reference_file</text>
</g>
<!-- hla_reference_file&#45;&gt;run_dragen_germline_step -->
<g id="edge25" class="edge">
<title>hla_reference_file&#45;&gt;run_dragen_germline_step</title>
<path fill="none" stroke="black" d="M6154.45,-1926.32C6139.13,-1915.97 6118.64,-1903.33 6099,-1894.99 5469.08,-1627.43 4652.56,-1480 4363.31,-1433.39"/>
<polygon fill="black" stroke="black" points="4363.67,-1429.91 4353.24,-1431.78 4362.56,-1436.82 4363.67,-1429.91"/>
</g>
<!-- hla_tiebreaker_threshold -->
<g id="node17" class="node">
<title>hla_tiebreaker_threshold</title>
<polygon fill="#94ddf4" stroke="black" points="5896,-1926.49 5896,-1963.49 6090,-1963.49 6090,-1926.49 5896,-1926.49"/>
<text text-anchor="middle" x="5993" y="-1941.29" font-family="Times,serif" font-size="14.00">hla_tiebreaker_threshold</text>
</g>
<!-- hla_tiebreaker_threshold&#45;&gt;run_dragen_germline_step -->
<g id="edge26" class="edge">
<title>hla_tiebreaker_threshold&#45;&gt;run_dragen_germline_step</title>
<path fill="none" stroke="black" d="M5958.22,-1926.33C5937.8,-1916.36 5911.3,-1904.11 5887,-1894.99 5307.65,-1677.55 4582.94,-1495.58 4339.84,-1436.89"/>
<polygon fill="black" stroke="black" points="4340.55,-1433.46 4330.01,-1434.52 4338.91,-1440.27 4340.55,-1433.46"/>
</g>
<!-- hla_zygosity_threshold -->
<g id="node18" class="node">
<title>hla_zygosity_threshold</title>
<polygon fill="#94ddf4" stroke="black" points="5698.5,-1926.49 5698.5,-1963.49 5877.5,-1963.49 5877.5,-1926.49 5698.5,-1926.49"/>
<text text-anchor="middle" x="5788" y="-1941.29" font-family="Times,serif" font-size="14.00">hla_zygosity_threshold</text>
</g>
<!-- hla_zygosity_threshold&#45;&gt;run_dragen_germline_step -->
<g id="edge27" class="edge">
<title>hla_zygosity_threshold&#45;&gt;run_dragen_germline_step</title>
<path fill="none" stroke="black" d="M5755.87,-1926.48C5736.99,-1916.56 5712.49,-1904.31 5690,-1894.99 5180.76,-1684.06 4541.82,-1497.48 4328.82,-1437.28"/>
<polygon fill="black" stroke="black" points="4329.58,-1433.86 4319,-1434.51 4327.68,-1440.6 4329.58,-1433.86"/>
</g>
<!-- lic_instance_id_location -->
<g id="node19" class="node">
<title>lic_instance_id_location</title>
<polygon fill="#94ddf4" stroke="black" points="5497.5,-1926.49 5497.5,-1963.49 5680.5,-1963.49 5680.5,-1926.49 5497.5,-1926.49"/>
<text text-anchor="middle" x="5589" y="-1941.29" font-family="Times,serif" font-size="14.00">lic_instance_id_location</text>
</g>
<!-- lic_instance_id_location&#45;&gt;run_dragen_germline_step -->
<g id="edge28" class="edge">
<title>lic_instance_id_location&#45;&gt;run_dragen_germline_step</title>
<path fill="none" stroke="black" d="M5554.27,-1926.27C5534.94,-1916.63 5510.33,-1904.72 5488,-1894.99 5043.71,-1701.41 4493.8,-1501.84 4315.08,-1437.97"/>
<polygon fill="black" stroke="black" points="4316.18,-1434.65 4305.59,-1434.58 4313.83,-1441.24 4316.18,-1434.65"/>
</g>
<!-- output_directory -->
<g id="node20" class="node">
<title>output_directory</title>
<polygon fill="#94ddf4" stroke="black" points="5343,-1926.49 5343,-1963.49 5479,-1963.49 5479,-1926.49 5343,-1926.49"/>
<text text-anchor="middle" x="5411" y="-1941.29" font-family="Times,serif" font-size="14.00">output_directory</text>
</g>
<!-- output_directory&#45;&gt;run_dragen_germline_step -->
<g id="edge29" class="edge">
<title>output_directory&#45;&gt;run_dragen_germline_step</title>
<path fill="none" stroke="black" d="M5385.56,-1926.45C5370.83,-1916.63 5351.74,-1904.5 5334,-1894.99 4955.56,-1692.14 4473.65,-1500.83 4311.82,-1438.31"/>
<polygon fill="black" stroke="black" points="4312.67,-1434.89 4302.08,-1434.55 4310.15,-1441.42 4312.67,-1434.89"/>
</g>
<!-- qc_coverage_ignore_overlaps -->
<g id="node21" class="node">
<title>qc_coverage_ignore_overlaps</title>
<polygon fill="#94ddf4" stroke="black" points="5101,-1926.49 5101,-1963.49 5325,-1963.49 5325,-1926.49 5101,-1926.49"/>
<text text-anchor="middle" x="5213" y="-1941.29" font-family="Times,serif" font-size="14.00">qc_coverage_ignore_overlaps</text>
</g>
<!-- qc_coverage_ignore_overlaps&#45;&gt;run_dragen_germline_step -->
<g id="edge30" class="edge">
<title>qc_coverage_ignore_overlaps&#45;&gt;run_dragen_germline_step</title>
<path fill="none" stroke="black" d="M5181.16,-1926.46C5038.38,-1847.83 4457.16,-1527.77 4297.02,-1439.58"/>
<polygon fill="black" stroke="black" points="4298.41,-1436.35 4287.96,-1434.59 4295.03,-1442.48 4298.41,-1436.35"/>
</g>
<!-- qc_coverage_region_1 -->
<g id="node22" class="node">
<title>qc_coverage_region_1</title>
<polygon fill="#94ddf4" stroke="black" points="4909.5,-1926.49 4909.5,-1963.49 5082.5,-1963.49 5082.5,-1926.49 4909.5,-1926.49"/>
<text text-anchor="middle" x="4996" y="-1941.29" font-family="Times,serif" font-size="14.00">qc_coverage_region_1</text>
</g>
<!-- qc_coverage_region_1&#45;&gt;run_dragen_germline_step -->
<g id="edge31" class="edge">
<title>qc_coverage_region_1&#45;&gt;run_dragen_germline_step</title>
<path fill="none" stroke="black" d="M4971.38,-1926.46C4861.42,-1848.15 4415.12,-1530.31 4289.22,-1440.65"/>
<polygon fill="black" stroke="black" points="4290.89,-1437.54 4280.71,-1434.59 4286.83,-1443.24 4290.89,-1437.54"/>
</g>
<!-- qc_coverage_region_2 -->
<g id="node23" class="node">
<title>qc_coverage_region_2</title>
<polygon fill="#94ddf4" stroke="black" points="4718.5,-1926.49 4718.5,-1963.49 4891.5,-1963.49 4891.5,-1926.49 4718.5,-1926.49"/>
<text text-anchor="middle" x="4805" y="-1941.29" font-family="Times,serif" font-size="14.00">qc_coverage_region_2</text>
</g>
<!-- qc_coverage_region_2&#45;&gt;run_dragen_germline_step -->
<g id="edge32" class="edge">
<title>qc_coverage_region_2&#45;&gt;run_dragen_germline_step</title>
<path fill="none" stroke="black" d="M4786.73,-1926.46C4705.48,-1848.46 4376.7,-1532.85 4281.78,-1441.73"/>
<polygon fill="black" stroke="black" points="4283.97,-1438.99 4274.33,-1434.59 4279.13,-1444.04 4283.97,-1438.99"/>
</g>
<!-- qc_coverage_region_3 -->
<g id="node24" class="node">
<title>qc_coverage_region_3</title>
<polygon fill="#94ddf4" stroke="black" points="4527.5,-1926.49 4527.5,-1963.49 4700.5,-1963.49 4700.5,-1926.49 4527.5,-1926.49"/>
<text text-anchor="middle" x="4614" y="-1941.29" font-family="Times,serif" font-size="14.00">qc_coverage_region_3</text>
</g>
<!-- qc_coverage_region_3&#45;&gt;run_dragen_germline_step -->
<g id="edge33" class="edge">
<title>qc_coverage_region_3&#45;&gt;run_dragen_germline_step</title>
<path fill="none" stroke="black" d="M4602.09,-1926.46C4549.37,-1848.85 4336.85,-1536.02 4273.75,-1443.12"/>
<polygon fill="black" stroke="black" points="4276.47,-1440.9 4267.96,-1434.59 4270.68,-1444.83 4276.47,-1440.9"/>
</g>
<!-- reference_tar -->
<g id="node25" class="node">
<title>reference_tar</title>
<polygon fill="#94ddf4" stroke="black" points="4396.5,-1926.49 4396.5,-1963.49 4509.5,-1963.49 4509.5,-1926.49 4396.5,-1926.49"/>
<text text-anchor="middle" x="4453" y="-1941.29" font-family="Times,serif" font-size="14.00">reference_tar</text>
</g>
<!-- reference_tar&#45;&gt;run_dragen_germline_step -->
<g id="edge34" class="edge">
<title>reference_tar&#45;&gt;run_dragen_germline_step</title>
<path fill="none" stroke="black" d="M4446.45,-1926.46C4417.52,-1849.09 4301.2,-1537.91 4266.09,-1443.97"/>
<polygon fill="black" stroke="black" points="4269.36,-1442.73 4262.58,-1434.59 4262.8,-1445.18 4269.36,-1442.73"/>
</g>
<!-- sample_sex -->
<g id="node26" class="node">
<title>sample_sex</title>
<polygon fill="#94ddf4" stroke="black" points="4280,-1926.49 4280,-1963.49 4378,-1963.49 4378,-1926.49 4280,-1926.49"/>
<text text-anchor="middle" x="4329" y="-1941.29" font-family="Times,serif" font-size="14.00">sample_sex</text>
</g>
<!-- sample_sex&#45;&gt;run_dragen_germline_step -->
<g id="edge35" class="edge">
<title>sample_sex&#45;&gt;run_dragen_germline_step</title>
<path fill="none" stroke="black" d="M4326.57,-1926.46C4315.88,-1849.24 4272.92,-1539.17 4259.82,-1444.55"/>
<polygon fill="black" stroke="black" points="4263.28,-1444.02 4258.44,-1434.59 4256.34,-1444.98 4263.28,-1444.02"/>
</g>
<!-- sv_call_regions_bed -->
<g id="node27" class="node">
<title>sv_call_regions_bed</title>
<polygon fill="#94ddf4" stroke="black" points="4104.5,-1926.49 4104.5,-1963.49 4261.5,-1963.49 4261.5,-1926.49 4104.5,-1926.49"/>
<text text-anchor="middle" x="4183" y="-1941.29" font-family="Times,serif" font-size="14.00">sv_call_regions_bed</text>
</g>
<!-- sv_call_regions_bed&#45;&gt;run_dragen_germline_step -->
<g id="edge36" class="edge">
<title>sv_call_regions_bed&#45;&gt;run_dragen_germline_step</title>
<path fill="none" stroke="black" d="M4185.43,-1926.46C4196.12,-1849.24 4239.08,-1539.17 4252.18,-1444.55"/>
<polygon fill="black" stroke="black" points="4255.66,-1444.98 4253.56,-1434.59 4248.72,-1444.02 4255.66,-1444.98"/>
</g>
<!-- sv_discovery -->
<g id="node28" class="node">
<title>sv_discovery</title>
<polygon fill="#94ddf4" stroke="black" points="3979.5,-1926.49 3979.5,-1963.49 4086.5,-1963.49 4086.5,-1926.49 3979.5,-1926.49"/>
<text text-anchor="middle" x="4033" y="-1941.29" font-family="Times,serif" font-size="14.00">sv_discovery</text>
</g>
<!-- sv_discovery&#45;&gt;run_dragen_germline_step -->
<g id="edge37" class="edge">
<title>sv_discovery&#45;&gt;run_dragen_germline_step</title>
<path fill="none" stroke="black" d="M4040.42,-1926.46C4073.16,-1849.09 4204.83,-1537.91 4244.58,-1443.97"/>
<polygon fill="black" stroke="black" points="4247.88,-1445.17 4248.55,-1434.59 4241.43,-1442.44 4247.88,-1445.17"/>
</g>
<!-- sv_enable_liquid_tumor_mode -->
<g id="node29" class="node">
<title>sv_enable_liquid_tumor_mode</title>
<polygon fill="#94ddf4" stroke="black" points="3731,-1926.49 3731,-1963.49 3961,-1963.49 3961,-1926.49 3731,-1926.49"/>
<text text-anchor="middle" x="3846" y="-1941.29" font-family="Times,serif" font-size="14.00">sv_enable_liquid_tumor_mode</text>
</g>
<!-- sv_enable_liquid_tumor_mode&#45;&gt;run_dragen_germline_step -->
<g id="edge38" class="edge">
<title>sv_enable_liquid_tumor_mode&#45;&gt;run_dragen_germline_step</title>
<path fill="none" stroke="black" d="M3859.64,-1926.46C3920.14,-1848.69 4164.38,-1534.75 4236.11,-1442.56"/>
<polygon fill="black" stroke="black" points="4238.93,-1444.63 4242.31,-1434.59 4233.4,-1440.34 4238.93,-1444.63"/>
</g>
<!-- sv_exome -->
<g id="node30" class="node">
<title>sv_exome</title>
<polygon fill="#94ddf4" stroke="black" points="3627,-1926.49 3627,-1963.49 3713,-1963.49 3713,-1926.49 3627,-1926.49"/>
<text text-anchor="middle" x="3670" y="-1941.29" font-family="Times,serif" font-size="14.00">sv_exome</text>
</g>
<!-- sv_exome&#45;&gt;run_dragen_germline_step -->
<g id="edge39" class="edge">
<title>sv_exome&#45;&gt;run_dragen_germline_step</title>
<path fill="none" stroke="black" d="M3688.67,-1926.18C3698.52,-1916.84 3710.85,-1905.23 3722,-1894.99 3913.81,-1718.82 4148.95,-1511.19 4228.33,-1441.31"/>
<polygon fill="black" stroke="black" points="4230.76,-1443.84 4235.95,-1434.61 4226.13,-1438.58 4230.76,-1443.84"/>
</g>
<!-- sv_forcegt_vcf -->
<g id="node31" class="node">
<title>sv_forcegt_vcf</title>
<polygon fill="#94ddf4" stroke="black" points="3491,-1926.49 3491,-1963.49 3609,-1963.49 3609,-1926.49 3491,-1926.49"/>
<text text-anchor="middle" x="3550" y="-1941.29" font-family="Times,serif" font-size="14.00">sv_forcegt_vcf</text>
</g>
<!-- sv_forcegt_vcf&#45;&gt;run_dragen_germline_step -->
<g id="edge40" class="edge">
<title>sv_forcegt_vcf&#45;&gt;run_dragen_germline_step</title>
<path fill="none" stroke="black" d="M3573.49,-1926.46C3678.4,-1848.15 4104.19,-1530.31 4224.31,-1440.65"/>
<polygon fill="black" stroke="black" points="4226.5,-1443.38 4232.42,-1434.59 4222.31,-1437.77 4226.5,-1443.38"/>
</g>
<!-- sv_output_contigs -->
<g id="node32" class="node">
<title>sv_output_contigs</title>
<polygon fill="#94ddf4" stroke="black" points="3327.5,-1926.49 3327.5,-1963.49 3472.5,-1963.49 3472.5,-1926.49 3327.5,-1926.49"/>
<text text-anchor="middle" x="3400" y="-1941.29" font-family="Times,serif" font-size="14.00">sv_output_contigs</text>
</g>
<!-- sv_output_contigs&#45;&gt;run_dragen_germline_step -->
<g id="edge41" class="edge">
<title>sv_output_contigs&#45;&gt;run_dragen_germline_step</title>
<path fill="none" stroke="black" d="M3428.48,-1926.46C3556.06,-1847.91 4075.03,-1528.4 4218.88,-1439.85"/>
<polygon fill="black" stroke="black" points="4220.73,-1442.81 4227.41,-1434.59 4217.06,-1436.85 4220.73,-1442.81"/>
</g>
<!-- sv_region -->
<g id="node33" class="node">
<title>sv_region</title>
<polygon fill="#94ddf4" stroke="black" points="3224.5,-1926.49 3224.5,-1963.49 3309.5,-1963.49 3309.5,-1926.49 3224.5,-1926.49"/>
<text text-anchor="middle" x="3267" y="-1941.29" font-family="Times,serif" font-size="14.00">sv_region</text>
</g>
<!-- sv_region&#45;&gt;run_dragen_germline_step -->
<g id="edge42" class="edge">
<title>sv_region&#45;&gt;run_dragen_germline_step</title>
<path fill="none" stroke="black" d="M3283.26,-1926.35C3293.02,-1916.39 3306.02,-1904.14 3319,-1894.99 3629.07,-1676.56 4052.75,-1497.94 4201.62,-1438.3"/>
<polygon fill="black" stroke="black" points="4203.03,-1441.5 4211.02,-1434.54 4200.43,-1435 4203.03,-1441.5"/>
</g>
<!-- sv_se_overlap_pair_evidence -->
<g id="node34" class="node">
<title>sv_se_overlap_pair_evidence</title>
<polygon fill="#94ddf4" stroke="black" points="2986,-1926.49 2986,-1963.49 3206,-1963.49 3206,-1926.49 2986,-1926.49"/>
<text text-anchor="middle" x="3096" y="-1941.29" font-family="Times,serif" font-size="14.00">sv_se_overlap_pair_evidence</text>
</g>
<!-- sv_se_overlap_pair_evidence&#45;&gt;run_dragen_germline_step -->
<g id="edge43" class="edge">
<title>sv_se_overlap_pair_evidence&#45;&gt;run_dragen_germline_step</title>
<path fill="none" stroke="black" d="M3134.6,-1926.46C3308.18,-1847.6 4016.38,-1525.85 4208,-1438.8"/>
<polygon fill="black" stroke="black" points="4209.6,-1441.91 4217.26,-1434.59 4206.71,-1435.54 4209.6,-1441.91"/>
</g>
<!-- sv_tin_contam_tolerance -->
<g id="node35" class="node">
<title>sv_tin_contam_tolerance</title>
<polygon fill="#94ddf4" stroke="black" points="2776.5,-1926.49 2776.5,-1963.49 2967.5,-1963.49 2967.5,-1926.49 2776.5,-1926.49"/>
<text text-anchor="middle" x="2872" y="-1941.29" font-family="Times,serif" font-size="14.00">sv_tin_contam_tolerance</text>
</g>
<!-- sv_tin_contam_tolerance&#45;&gt;run_dragen_germline_step -->
<g id="edge44" class="edge">
<title>sv_tin_contam_tolerance&#45;&gt;run_dragen_germline_step</title>
<path fill="none" stroke="black" d="M2908.13,-1926.27C2928.23,-1916.63 2953.81,-1904.72 2977,-1894.99 3439,-1701.22 4009.88,-1501.61 4195,-1437.86"/>
<polygon fill="black" stroke="black" points="4196.24,-1441.14 4204.56,-1434.57 4193.96,-1434.52 4196.24,-1441.14"/>
</g>
<!-- vc_decoy_contigs -->
<g id="node36" class="node">
<title>vc_decoy_contigs</title>
<polygon fill="#94ddf4" stroke="black" points="2619.5,-1926.49 2619.5,-1963.49 2758.5,-1963.49 2758.5,-1926.49 2619.5,-1926.49"/>
<text text-anchor="middle" x="2689" y="-1941.29" font-family="Times,serif" font-size="14.00">vc_decoy_contigs</text>
</g>
<!-- vc_decoy_contigs&#45;&gt;run_dragen_germline_step -->
<g id="edge45" class="edge">
<title>vc_decoy_contigs&#45;&gt;run_dragen_germline_step</title>
<path fill="none" stroke="black" d="M2713.73,-1926.46C2728.88,-1916.29 2748.96,-1903.8 2768,-1894.99 3278.2,-1659.15 3937.01,-1492 4169.86,-1436.8"/>
<polygon fill="black" stroke="black" points="4170.71,-1440.2 4179.63,-1434.49 4169.1,-1433.39 4170.71,-1440.2"/>
</g>
<!-- vc_enable_baf -->
<g id="node37" class="node">
<title>vc_enable_baf</title>
<polygon fill="#94ddf4" stroke="black" points="2485,-1926.49 2485,-1963.49 2601,-1963.49 2601,-1926.49 2485,-1926.49"/>
<text text-anchor="middle" x="2543" y="-1941.29" font-family="Times,serif" font-size="14.00">vc_enable_baf</text>
</g>
<!-- vc_enable_baf&#45;&gt;run_dragen_germline_step -->
<g id="edge46" class="edge">
<title>vc_enable_baf&#45;&gt;run_dragen_germline_step</title>
<path fill="none" stroke="black" d="M2563.55,-1926.33C2576.46,-1915.98 2593.87,-1903.34 2611,-1894.99 3157.01,-1628.81 3878.9,-1483.1 4148.45,-1435.06"/>
<polygon fill="black" stroke="black" points="4149.38,-1438.45 4158.62,-1433.26 4148.16,-1431.56 4149.38,-1438.45"/>
</g>
<!-- vc_enable_decoy_contigs -->
<g id="node38" class="node">
<title>vc_enable_decoy_contigs</title>
<polygon fill="#94ddf4" stroke="black" points="2273.5,-1926.49 2273.5,-1963.49 2466.5,-1963.49 2466.5,-1926.49 2273.5,-1926.49"/>
<text text-anchor="middle" x="2370" y="-1941.29" font-family="Times,serif" font-size="14.00">vc_enable_decoy_contigs</text>
</g>
<!-- vc_enable_decoy_contigs&#45;&gt;run_dragen_germline_step -->
<g id="edge47" class="edge">
<title>vc_enable_decoy_contigs&#45;&gt;run_dragen_germline_step</title>
<path fill="none" stroke="black" d="M2404.22,-1926.36C2424.69,-1916.28 2451.41,-1903.9 2476,-1894.99 3103.81,-1667.47 3890.94,-1493.25 4160.42,-1436.62"/>
<polygon fill="black" stroke="black" points="4161.49,-1439.97 4170.56,-1434.49 4160.05,-1433.12 4161.49,-1439.97"/>
</g>
<!-- vc_enable_gatk_acceleration -->
<g id="node39" class="node">
<title>vc_enable_gatk_acceleration</title>
<polygon fill="#94ddf4" stroke="black" points="2037,-1926.49 2037,-1963.49 2255,-1963.49 2255,-1926.49 2037,-1926.49"/>
<text text-anchor="middle" x="2146" y="-1941.29" font-family="Times,serif" font-size="14.00">vc_enable_gatk_acceleration</text>
</g>
<!-- vc_enable_gatk_acceleration&#45;&gt;run_dragen_germline_step -->
<g id="edge48" class="edge">
<title>vc_enable_gatk_acceleration&#45;&gt;run_dragen_germline_step</title>
<path fill="none" stroke="black" d="M2184.29,-1926.45C2207.34,-1916.34 2237.47,-1903.9 2265,-1894.99 2971.42,-1666.28 3850.55,-1492.57 4150.26,-1436.37"/>
<polygon fill="black" stroke="black" points="4151.06,-1439.78 4160.25,-1434.5 4149.77,-1432.9 4151.06,-1439.78"/>
</g>
<!-- vc_enable_phasing -->
<g id="node40" class="node">
<title>vc_enable_phasing</title>
<polygon fill="#94ddf4" stroke="black" points="1869.5,-1926.49 1869.5,-1963.49 2018.5,-1963.49 2018.5,-1926.49 1869.5,-1926.49"/>
<text text-anchor="middle" x="1944" y="-1941.29" font-family="Times,serif" font-size="14.00">vc_enable_phasing</text>
</g>
<!-- vc_enable_phasing&#45;&gt;run_dragen_germline_step -->
<g id="edge49" class="edge">
<title>vc_enable_phasing&#45;&gt;run_dragen_germline_step</title>
<path fill="none" stroke="black" d="M1969.41,-1926.31C1985.54,-1915.82 2007.22,-1903.04 2028,-1894.99 2808.85,-1592.39 3821.72,-1463.4 4149.01,-1427.8"/>
<polygon fill="black" stroke="black" points="4149.39,-1431.28 4158.96,-1426.73 4148.64,-1424.32 4149.39,-1431.28"/>
</g>
<!-- vc_enable_roh -->
<g id="node41" class="node">
<title>vc_enable_roh</title>
<polygon fill="#94ddf4" stroke="black" points="1734.5,-1926.49 1734.5,-1963.49 1851.5,-1963.49 1851.5,-1926.49 1734.5,-1926.49"/>
<text text-anchor="middle" x="1793" y="-1941.29" font-family="Times,serif" font-size="14.00">vc_enable_roh</text>
</g>
<!-- vc_enable_roh&#45;&gt;run_dragen_germline_step -->
<g id="edge50" class="edge">
<title>vc_enable_roh&#45;&gt;run_dragen_germline_step</title>
<path fill="none" stroke="black" d="M1812.72,-1926.28C1825.6,-1915.64 1843.26,-1902.72 1861,-1894.99 2691.27,-1533.44 3803.21,-1442.46 4148.91,-1422.23"/>
<polygon fill="black" stroke="black" points="4149.13,-1425.73 4158.91,-1421.66 4148.73,-1418.74 4149.13,-1425.73"/>
</g>
<!-- vc_enable_vcf_output -->
<g id="node42" class="node">
<title>vc_enable_vcf_output</title>
<polygon fill="#94ddf4" stroke="black" points="1548,-1926.49 1548,-1963.49 1716,-1963.49 1716,-1926.49 1548,-1926.49"/>
<text text-anchor="middle" x="1632" y="-1941.29" font-family="Times,serif" font-size="14.00">vc_enable_vcf_output</text>
</g>
<!-- vc_enable_vcf_output&#45;&gt;run_dragen_germline_step -->
<g id="edge51" class="edge">
<title>vc_enable_vcf_output&#45;&gt;run_dragen_germline_step</title>
<path fill="none" stroke="black" d="M1660.23,-1926.48C1678.4,-1915.92 1702.87,-1903.01 1726,-1894.99 2631.44,-1581.18 3794.6,-1457.75 4148.91,-1425.9"/>
<polygon fill="black" stroke="black" points="4149.25,-1429.39 4158.9,-1425.01 4148.63,-1422.42 4149.25,-1429.39"/>
</g>
<!-- vc_hard_filter -->
<g id="node43" class="node">
<title>vc_hard_filter</title>
<polygon fill="#94ddf4" stroke="black" points="1416.5,-1926.49 1416.5,-1963.49 1529.5,-1963.49 1529.5,-1926.49 1416.5,-1926.49"/>
<text text-anchor="middle" x="1473" y="-1941.29" font-family="Times,serif" font-size="14.00">vc_hard_filter</text>
</g>
<!-- vc_hard_filter&#45;&gt;run_dragen_germline_step -->
<g id="edge52" class="edge">
<title>vc_hard_filter&#45;&gt;run_dragen_germline_step</title>
<path fill="none" stroke="black" d="M1491.71,-1926.36C1504.17,-1915.62 1521.43,-1902.55 1539,-1894.99 2490.49,-1485.52 3773.53,-1426.75 4148.78,-1418.37"/>
<polygon fill="black" stroke="black" points="4148.9,-1421.87 4158.82,-1418.15 4148.74,-1414.87 4148.9,-1421.87"/>
</g>
<!-- vc_max_reads_per_active_region -->
<g id="node44" class="node">
<title>vc_max_reads_per_active_region</title>
<polygon fill="#94ddf4" stroke="black" points="1150,-1926.49 1150,-1963.49 1398,-1963.49 1398,-1926.49 1150,-1926.49"/>
<text text-anchor="middle" x="1274" y="-1941.29" font-family="Times,serif" font-size="14.00">vc_max_reads_per_active_region</text>
</g>
<!-- vc_max_reads_per_active_region&#45;&gt;run_dragen_germline_step -->
<g id="edge53" class="edge">
<title>vc_max_reads_per_active_region&#45;&gt;run_dragen_germline_step</title>
<path fill="none" stroke="black" d="M1315.91,-1926.4C1342.01,-1916.02 1376.51,-1903.32 1408,-1894.99 2457.53,-1617.56 3769.09,-1467.48 4148.6,-1427.79"/>
<polygon fill="black" stroke="black" points="4149.16,-1431.25 4158.75,-1426.74 4148.44,-1424.29 4149.16,-1431.25"/>
</g>
<!-- vc_max_reads_per_raw_region -->
<g id="node45" class="node">
<title>vc_max_reads_per_raw_region</title>
<polygon fill="#94ddf4" stroke="black" points="898.5,-1926.49 898.5,-1963.49 1131.5,-1963.49 1131.5,-1926.49 898.5,-1926.49"/>
<text text-anchor="middle" x="1015" y="-1941.29" font-family="Times,serif" font-size="14.00">vc_max_reads_per_raw_region</text>
</g>
<!-- vc_max_reads_per_raw_region&#45;&gt;run_dragen_germline_step -->
<g id="edge54" class="edge">
<title>vc_max_reads_per_raw_region&#45;&gt;run_dragen_germline_step</title>
<path fill="none" stroke="black" d="M1053.7,-1926.4C1078.26,-1915.88 1110.96,-1903.03 1141,-1894.99 2295.11,-1586.02 3746.81,-1456.36 4148.67,-1424.91"/>
<polygon fill="black" stroke="black" points="4149.13,-1428.39 4158.83,-1424.12 4148.59,-1421.41 4149.13,-1428.39"/>
</g>
<!-- vc_remove_all_soft_clips -->
<g id="node46" class="node">
<title>vc_remove_all_soft_clips</title>
<polygon fill="#94ddf4" stroke="black" points="690,-1926.49 690,-1963.49 880,-1963.49 880,-1926.49 690,-1926.49"/>
<text text-anchor="middle" x="785" y="-1941.29" font-family="Times,serif" font-size="14.00">vc_remove_all_soft_clips</text>
</g>
<!-- vc_remove_all_soft_clips&#45;&gt;run_dragen_germline_step -->
<g id="edge55" class="edge">
<title>vc_remove_all_soft_clips&#45;&gt;run_dragen_germline_step</title>
<path fill="none" stroke="black" d="M816.21,-1926.44C836.6,-1915.74 864.16,-1902.67 890,-1894.99 2134.52,-1525.17 3725.43,-1437.98 4148.66,-1420.76"/>
<polygon fill="black" stroke="black" points="4148.89,-1424.25 4158.74,-1420.35 4148.61,-1417.26 4148.89,-1424.25"/>
</g>
<!-- vc_roh_blacklist_bed -->
<g id="node47" class="node">
<title>vc_roh_blacklist_bed</title>
<polygon fill="#94ddf4" stroke="black" points="508.5,-1926.49 508.5,-1963.49 671.5,-1963.49 671.5,-1926.49 508.5,-1926.49"/>
<text text-anchor="middle" x="590" y="-1941.29" font-family="Times,serif" font-size="14.00">vc_roh_blacklist_bed</text>
</g>
<!-- vc_roh_blacklist_bed&#45;&gt;run_dragen_germline_step -->
<g id="edge56" class="edge">
<title>vc_roh_blacklist_bed&#45;&gt;run_dragen_germline_step</title>
<path fill="none" stroke="black" d="M616.72,-1926.26C634.27,-1915.48 658.13,-1902.41 681,-1894.99 1998.61,-1467.94 3708.28,-1422.01 4148.79,-1417.41"/>
<polygon fill="black" stroke="black" points="4149,-1420.91 4158.96,-1417.31 4148.93,-1413.91 4149,-1420.91"/>
</g>
<!-- vc_target_bed -->
<g id="node48" class="node">
<title>vc_target_bed</title>
<polygon fill="#94ddf4" stroke="black" points="374,-1926.49 374,-1963.49 490,-1963.49 490,-1926.49 374,-1926.49"/>
<text text-anchor="middle" x="432" y="-1941.29" font-family="Times,serif" font-size="14.00">vc_target_bed</text>
</g>
<!-- vc_target_bed&#45;&gt;run_dragen_germline_step -->
<g id="edge57" class="edge">
<title>vc_target_bed&#45;&gt;run_dragen_germline_step</title>
<path fill="none" stroke="black" d="M450.97,-1926.33C463.81,-1915.43 481.72,-1902.2 500,-1894.99 1193.87,-1621.47 3608.9,-1457.27 4148.51,-1423.5"/>
<polygon fill="black" stroke="black" points="4148.86,-1426.99 4158.62,-1422.87 4148.42,-1420 4148.86,-1426.99"/>
</g>
<!-- vc_target_bed_padding -->
<g id="node49" class="node">
<title>vc_target_bed_padding</title>
<polygon fill="#94ddf4" stroke="black" points="174.5,-1926.49 174.5,-1963.49 355.5,-1963.49 355.5,-1926.49 174.5,-1926.49"/>
<text text-anchor="middle" x="265" y="-1941.29" font-family="Times,serif" font-size="14.00">vc_target_bed_padding</text>
</g>
<!-- vc_target_bed_padding&#45;&gt;run_dragen_germline_step -->
<g id="edge58" class="edge">
<title>vc_target_bed_padding&#45;&gt;run_dragen_germline_step</title>
<path fill="none" stroke="black" d="M294.14,-1926.48C313.54,-1915.65 339.98,-1902.43 365,-1894.99 1817.27,-1463.32 3685.99,-1420.94 4148.79,-1417.23"/>
<polygon fill="black" stroke="black" points="4148.83,-1420.73 4158.8,-1417.16 4148.78,-1413.73 4148.83,-1420.73"/>
</g>
<!-- vc_target_coverage -->
<g id="node50" class="node">
<title>vc_target_coverage</title>
<polygon fill="#94ddf4" stroke="black" points="8412.5,-1926.49 8412.5,-1963.49 8567.5,-1963.49 8567.5,-1926.49 8412.5,-1926.49"/>
<text text-anchor="middle" x="8490" y="-1941.29" font-family="Times,serif" font-size="14.00">vc_target_coverage</text>
</g>
<!-- vc_target_coverage&#45;&gt;run_dragen_germline_step -->
<g id="edge59" class="edge">
<title>vc_target_coverage&#45;&gt;run_dragen_germline_step</title>
<path fill="none" stroke="black" d="M8464.98,-1926.34C8448.24,-1915.45 8425.26,-1902.22 8403,-1894.99 7616.18,-1639.61 4934.94,-1459.59 4363.62,-1423.61"/>
<polygon fill="black" stroke="black" points="4363.54,-1420.09 4353.34,-1422.96 4363.1,-1427.08 4363.54,-1420.09"/>
</g>
<!-- dragen_bam_out -->
<g id="node51" class="node">
<title>dragen_bam_out</title>
<polygon fill="#94ddf4" stroke="black" points="3866,-380.49 3866,-417.49 4000,-417.49 4000,-380.49 3866,-380.49"/>
<text text-anchor="middle" x="3933" y="-395.29" font-family="Times,serif" font-size="14.00">dragen_bam_out</text>
</g>
<!-- dragen_germline_output_directory -->
<g id="node52" class="node">
<title>dragen_germline_output_directory</title>
<polygon fill="#94ddf4" stroke="black" points="4018.5,-380.49 4018.5,-417.49 4281.5,-417.49 4281.5,-380.49 4018.5,-380.49"/>
<text text-anchor="middle" x="4150" y="-395.29" font-family="Times,serif" font-size="14.00">dragen_germline_output_directory</text>
</g>
<!-- dragen_vcf_out -->
<g id="node53" class="node">
<title>dragen_vcf_out</title>
<polygon fill="#94ddf4" stroke="black" points="4299.5,-380.49 4299.5,-417.49 4424.5,-417.49 4424.5,-380.49 4299.5,-380.49"/>
<text text-anchor="middle" x="4362" y="-395.29" font-family="Times,serif" font-size="14.00">dragen_vcf_out</text>
</g>
<!-- multiqc_output_directory -->
<g id="node54" class="node">
<title>multiqc_output_directory</title>
<polygon fill="#94ddf4" stroke="black" points="3650.5,-380.49 3650.5,-417.49 3847.5,-417.49 3847.5,-380.49 3650.5,-380.49"/>
<text text-anchor="middle" x="3749" y="-395.29" font-family="Times,serif" font-size="14.00">multiqc_output_directory</text>
</g>
<!-- create_dummy_file_step -->
<g id="node55" class="node">
<title>create_dummy_file_step</title>
<polygon fill="lightgoldenrodyellow" stroke="black" points="132.5,-1397.49 132.5,-1434.49 393.5,-1434.49 393.5,-1397.49 132.5,-1397.49"/>
<text text-anchor="middle" x="263" y="-1412.29" font-family="Times,serif" font-size="14.00">custom&#45;create&#45;dummy&#45;file v(1.0.0)</text>
</g>
<!-- create_dummy_file_step&#45;&gt;dragen_qc_step -->
<g id="edge1" class="edge">
<title>create_dummy_file_step&#45;&gt;dragen_qc_step</title>
<path fill="none" stroke="black" d="M256.8,-1397.24C230.44,-1321.72 127.48,-1026.79 95.52,-935.25"/>
<polygon fill="black" stroke="black" points="98.75,-933.88 92.15,-925.59 92.14,-936.19 98.75,-933.88"/>
</g>
<!-- dragen_qc_step&#45;&gt;multiqc_output_directory -->
<g id="edge2" class="edge">
<title>dragen_qc_step&#45;&gt;multiqc_output_directory</title>
<path fill="none" stroke="black" d="M155.9,-896.34C605.52,-834.23 3089.16,-491.14 3640.54,-414.97"/>
<polygon fill="black" stroke="black" points="3641.05,-418.44 3650.48,-413.6 3640.09,-411.5 3641.05,-418.44"/>
</g>
<!-- run_dragen_germline_step&#45;&gt;dragen_bam_out -->
<g id="edge4" class="edge">
<title>run_dragen_germline_step&#45;&gt;dragen_bam_out</title>
<path fill="none" stroke="black" d="M4250.39,-1397.37C4212.07,-1276.93 3988.8,-575.32 3941.71,-427.38"/>
<polygon fill="black" stroke="black" points="3945,-426.16 3938.63,-417.7 3938.33,-428.29 3945,-426.16"/>
</g>
<!-- run_dragen_germline_step&#45;&gt;dragen_germline_output_directory -->
<g id="edge5" class="edge">
<title>run_dragen_germline_step&#45;&gt;dragen_germline_output_directory</title>
<path fill="none" stroke="black" d="M4254.16,-1397.37C4241.59,-1277.06 4168.46,-576.73 4152.91,-427.82"/>
<polygon fill="black" stroke="black" points="4156.37,-427.28 4151.85,-417.7 4149.41,-428.01 4156.37,-427.28"/>
</g>
<!-- run_dragen_germline_step&#45;&gt;dragen_vcf_out -->
<g id="edge6" class="edge">
<title>run_dragen_germline_step&#45;&gt;dragen_vcf_out</title>
<path fill="none" stroke="black" d="M4257.84,-1397.37C4270.41,-1277.06 4343.54,-576.73 4359.09,-427.82"/>
<polygon fill="black" stroke="black" points="4362.59,-428.01 4360.15,-417.7 4355.63,-427.28 4362.59,-428.01"/>
</g>
<!-- run_dragen_germline_step&#45;&gt;dragen_qc_step -->
<g id="edge3" class="edge">
<title>run_dragen_germline_step&#45;&gt;dragen_qc_step</title>
<path fill="none" stroke="black" d="M4158.81,-1403.17C3588.6,-1333.85 685.14,-980.84 165.62,-917.67"/>
<polygon fill="black" stroke="black" points="165.95,-914.19 155.6,-916.45 165.1,-921.14 165.95,-914.19"/>
</g>
<!-- \n -->
<g id="node58" class="node">
<title>\n</title>
<ellipse fill="none" stroke="black" cx="8613" cy="-1944.99" rx="27" ry="18"/>
</g>
</g>
</svg>
