<?xml version="1.0" encoding="UTF-8" standalone="no"?>
<!DOCTYPE svg PUBLIC "-//W3C//DTD SVG 1.1//EN"
 "http://www.w3.org/Graphics/SVG/1.1/DTD/svg11.dtd">
<!-- Generated by graphviz version 2.43.0 (0)
 -->
<!-- Title: G Pages: 1 -->
<svg width="8813pt" height="2235pt"
 viewBox="0.00 0.00 8812.50 2235.41" xmlns="http://www.w3.org/2000/svg" xmlns:xlink="http://www.w3.org/1999/xlink">
<g id="graph0" class="graph" transform="scale(1 1) rotate(0) translate(4 2231.41)">
<title>G</title>
<polygon fill="#eeeeee" stroke="transparent" points="-4,4 -4,-2231.41 8808.5,-2231.41 8808.5,4 -4,4"/>
<g id="clust1" class="cluster">
<title>cluster_inputs</title>
<polygon fill="#eeeeee" stroke="black" stroke-dasharray="5,2" points="8,-1632.03 8,-2171.38 8575,-2171.38 8575,-1632.03 8,-1632.03"/>
<text text-anchor="middle" x="8508.5" y="-1639.83" font-family="Times,serif" font-size="14.00">Workflow Inputs</text>
</g>
<g id="clust2" class="cluster">
<title>cluster_outputs</title>
<polygon fill="#eeeeee" stroke="black" stroke-dasharray="5,2" points="4344,-56.04 4344,-595.38 5134,-595.38 5134,-56.04 4344,-56.04"/>
<text text-anchor="middle" x="5061.5" y="-63.84" font-family="Times,serif" font-size="14.00">Workflow Outputs</text>
</g>
<!-- output_file_prefix -->
<g id="node1" class="node">
<title>output_file_prefix</title>
<polygon fill="#94ddf4" stroke="black" points="8427,-1963.54 8427,-2000.54 8567,-2000.54 8567,-1963.54 8427,-1963.54"/>
<text text-anchor="middle" x="8497" y="-1978.34" font-family="Times,serif" font-size="14.00">output_file_prefix</text>
</g>
<!-- run_dragen_germline_step -->
<g id="node55" class="node">
<title>run_dragen_germline_step</title>
<polygon fill="lightgoldenrodyellow" stroke="black" points="4452,-1424.54 4452,-1461.54 4646,-1461.54 4646,-1424.54 4452,-1424.54"/>
<text text-anchor="middle" x="4549" y="-1439.34" font-family="Times,serif" font-size="14.00">dragen&#45;germline v(4.0.3)</text>
</g>
<!-- output_file_prefix&#45;&gt;run_dragen_germline_step -->
<g id="edge7" class="edge">
<title>output_file_prefix&#45;&gt;run_dragen_germline_step</title>
<path fill="none" stroke="black" d="M8474.5,-1963.42C8459.38,-1952.54 8438.54,-1939.31 8418,-1932.04 7692.7,-1675.21 5205.29,-1489.74 4656.65,-1451.38"/>
<polygon fill="black" stroke="black" points="4656.59,-1447.87 4646.37,-1450.66 4656.1,-1454.85 4656.59,-1447.87"/>
</g>
<!-- dragen_qc_step -->
<g id="node56" class="node">
<title>dragen_qc_step</title>
<polygon fill="lightgoldenrodyellow" stroke="black" points="8427.5,-906.54 8427.5,-943.54 8566.5,-943.54 8566.5,-906.54 8427.5,-906.54"/>
<text text-anchor="middle" x="8497" y="-921.34" font-family="Times,serif" font-size="14.00">multiqc v(1.14.0)</text>
</g>
<!-- output_file_prefix&#45;&gt;dragen_qc_step -->
<g id="edge8" class="edge">
<title>output_file_prefix&#45;&gt;dragen_qc_step</title>
<path fill="none" stroke="black" d="M8493.16,-1963.17C8480.59,-1839.14 8480.29,-1106.99 8492.26,-954.04"/>
<polygon fill="black" stroke="black" points="8495.78,-953.93 8493.18,-943.66 8488.81,-953.31 8495.78,-953.93"/>
</g>
<!-- output_file_prefix&#45;&gt;dragen_qc_step -->
<g id="edge9" class="edge">
<title>output_file_prefix&#45;&gt;dragen_qc_step</title>
<path fill="none" stroke="black" d="M8497,-1963.17C8497,-1839.14 8497,-1106.99 8497,-954.04"/>
<polygon fill="black" stroke="black" points="8500.5,-953.66 8497,-943.66 8493.5,-953.66 8500.5,-953.66"/>
</g>
<!-- output_file_prefix&#45;&gt;dragen_qc_step -->
<g id="edge10" class="edge">
<title>output_file_prefix&#45;&gt;dragen_qc_step</title>
<path fill="none" stroke="black" d="M8500.84,-1963.17C8513.41,-1839.14 8513.71,-1106.99 8501.74,-954.04"/>
<polygon fill="black" stroke="black" points="8505.19,-953.31 8500.82,-943.66 8498.22,-953.93 8505.19,-953.31"/>
</g>
<!-- bam_input -->
<g id="node2" class="node">
<title>bam_input</title>
<polygon fill="#94ddf4" stroke="black" points="8317,-1963.54 8317,-2000.54 8409,-2000.54 8409,-1963.54 8317,-1963.54"/>
<text text-anchor="middle" x="8363" y="-1978.34" font-family="Times,serif" font-size="14.00">bam_input</text>
</g>
<!-- bam_input&#45;&gt;run_dragen_germline_step -->
<g id="edge11" class="edge">
<title>bam_input&#45;&gt;run_dragen_germline_step</title>
<path fill="none" stroke="black" d="M8348.05,-1963.11C8337.93,-1952.25 8323.59,-1939.15 8308,-1932.04 7628.44,-1621.66 5197.42,-1477.97 4656.27,-1449.44"/>
<polygon fill="black" stroke="black" points="4656.31,-1445.94 4646.14,-1448.91 4655.94,-1452.93 4656.31,-1445.94"/>
</g>
<!-- cnv_enable_self_normalization -->
<g id="node3" class="node">
<title>cnv_enable_self_normalization</title>
<polygon fill="#94ddf4" stroke="black" points="8065.5,-1963.54 8065.5,-2000.54 8298.5,-2000.54 8298.5,-1963.54 8065.5,-1963.54"/>
<text text-anchor="middle" x="8182" y="-1978.34" font-family="Times,serif" font-size="14.00">cnv_enable_self_normalization</text>
</g>
<!-- cnv_enable_self_normalization&#45;&gt;run_dragen_germline_step -->
<g id="edge12" class="edge">
<title>cnv_enable_self_normalization&#45;&gt;run_dragen_germline_step</title>
<path fill="none" stroke="black" d="M8144.21,-1963.52C8119.8,-1952.9 8087.1,-1939.91 8057,-1932.04 6744.5,-1588.63 5088.61,-1474.67 4656.18,-1449.74"/>
<polygon fill="black" stroke="black" points="4656.38,-1446.25 4646.2,-1449.17 4655.98,-1453.23 4656.38,-1446.25"/>
</g>
<!-- dbsnp_annotation -->
<g id="node4" class="node">
<title>dbsnp_annotation</title>
<polygon fill="#94ddf4" stroke="black" points="7904.5,-1963.54 7904.5,-2000.54 8047.5,-2000.54 8047.5,-1963.54 7904.5,-1963.54"/>
<text text-anchor="middle" x="7976" y="-1978.34" font-family="Times,serif" font-size="14.00">dbsnp_annotation</text>
</g>
<!-- dbsnp_annotation&#45;&gt;run_dragen_germline_step -->
<g id="edge13" class="edge">
<title>dbsnp_annotation&#45;&gt;run_dragen_germline_step</title>
<path fill="none" stroke="black" d="M7952.47,-1963.32C7936.95,-1952.55 7915.73,-1939.47 7895,-1932.04 6678.86,-1495.77 5080.72,-1448.95 4656.27,-1444.4"/>
<polygon fill="black" stroke="black" points="4656.19,-1440.89 4646.16,-1444.29 4656.12,-1447.89 4656.19,-1440.89"/>
</g>
<!-- dedup_min_qual -->
<g id="node5" class="node">
<title>dedup_min_qual</title>
<polygon fill="#94ddf4" stroke="black" points="7754,-1963.54 7754,-2000.54 7886,-2000.54 7886,-1963.54 7754,-1963.54"/>
<text text-anchor="middle" x="7820" y="-1978.34" font-family="Times,serif" font-size="14.00">dedup_min_qual</text>
</g>
<!-- dedup_min_qual&#45;&gt;run_dragen_germline_step -->
<g id="edge14" class="edge">
<title>dedup_min_qual&#45;&gt;run_dragen_germline_step</title>
<path fill="none" stroke="black" d="M7798.4,-1963.33C7784.1,-1952.55 7764.47,-1939.48 7745,-1932.04 6595.28,-1492.55 5070.15,-1447.91 4656.39,-1444.15"/>
<polygon fill="black" stroke="black" points="4656.26,-1440.65 4646.23,-1444.06 4656.2,-1447.65 4656.26,-1440.65"/>
</g>
<!-- enable_cnv -->
<g id="node6" class="node">
<title>enable_cnv</title>
<polygon fill="#94ddf4" stroke="black" points="7640.5,-1963.54 7640.5,-2000.54 7735.5,-2000.54 7735.5,-1963.54 7640.5,-1963.54"/>
<text text-anchor="middle" x="7688" y="-1978.34" font-family="Times,serif" font-size="14.00">enable_cnv</text>
</g>
<!-- enable_cnv&#45;&gt;run_dragen_germline_step -->
<g id="edge15" class="edge">
<title>enable_cnv&#45;&gt;run_dragen_germline_step</title>
<path fill="none" stroke="black" d="M7672.65,-1963.26C7662.29,-1952.46 7647.68,-1939.38 7632,-1932.04 7082.57,-1674.78 5135.84,-1494.22 4656.33,-1452.99"/>
<polygon fill="black" stroke="black" points="4656.56,-1449.5 4646.29,-1452.13 4655.96,-1456.47 4656.56,-1449.5"/>
</g>
<!-- enable_duplicate_marking -->
<g id="node7" class="node">
<title>enable_duplicate_marking</title>
<polygon fill="#94ddf4" stroke="black" points="7419.5,-1963.54 7419.5,-2000.54 7622.5,-2000.54 7622.5,-1963.54 7419.5,-1963.54"/>
<text text-anchor="middle" x="7521" y="-1978.34" font-family="Times,serif" font-size="14.00">enable_duplicate_marking</text>
</g>
<!-- enable_duplicate_marking&#45;&gt;run_dragen_germline_step -->
<g id="edge16" class="edge">
<title>enable_duplicate_marking&#45;&gt;run_dragen_germline_step</title>
<path fill="none" stroke="black" d="M7486.84,-1963.32C7465.31,-1952.83 7436.63,-1940.05 7410,-1932.04 6364.07,-1617.26 5038.06,-1485.66 4656.26,-1452.73"/>
<polygon fill="black" stroke="black" points="4656.32,-1449.22 4646.06,-1451.85 4655.72,-1456.19 4656.32,-1449.22"/>
</g>
<!-- enable_hla -->
<g id="node8" class="node">
<title>enable_hla</title>
<polygon fill="#94ddf4" stroke="black" points="7309,-1963.54 7309,-2000.54 7401,-2000.54 7401,-1963.54 7309,-1963.54"/>
<text text-anchor="middle" x="7355" y="-1978.34" font-family="Times,serif" font-size="14.00">enable_hla</text>
</g>
<!-- enable_hla&#45;&gt;run_dragen_germline_step -->
<g id="edge17" class="edge">
<title>enable_hla&#45;&gt;run_dragen_germline_step</title>
<path fill="none" stroke="black" d="M7339.94,-1963.35C7329.76,-1952.59 7315.42,-1939.52 7300,-1932.04 6815.59,-1697.04 5102.62,-1502.64 4656.08,-1455.14"/>
<polygon fill="black" stroke="black" points="4656.4,-1451.66 4646.09,-1454.08 4655.67,-1458.62 4656.4,-1451.66"/>
</g>
<!-- enable_map_align_output -->
<g id="node9" class="node">
<title>enable_map_align_output</title>
<polygon fill="#94ddf4" stroke="black" points="7093.5,-1963.54 7093.5,-2000.54 7290.5,-2000.54 7290.5,-1963.54 7093.5,-1963.54"/>
<text text-anchor="middle" x="7192" y="-1978.34" font-family="Times,serif" font-size="14.00">enable_map_align_output</text>
</g>
<!-- enable_map_align_output&#45;&gt;run_dragen_germline_step -->
<g id="edge18" class="edge">
<title>enable_map_align_output&#45;&gt;run_dragen_germline_step</title>
<path fill="none" stroke="black" d="M7158.76,-1963.48C7137.8,-1953.05 7109.9,-1940.28 7084,-1932.04 6168.95,-1640.88 5009.93,-1495.26 4656.25,-1455.51"/>
<polygon fill="black" stroke="black" points="4656.6,-1452.03 4646.28,-1454.39 4655.83,-1458.98 4656.6,-1452.03"/>
</g>
<!-- enable_sv -->
<g id="node10" class="node">
<title>enable_sv</title>
<polygon fill="#94ddf4" stroke="black" points="6989,-1963.54 6989,-2000.54 7075,-2000.54 7075,-1963.54 6989,-1963.54"/>
<text text-anchor="middle" x="7032" y="-1978.34" font-family="Times,serif" font-size="14.00">enable_sv</text>
</g>
<!-- enable_sv&#45;&gt;run_dragen_germline_step -->
<g id="edge19" class="edge">
<title>enable_sv&#45;&gt;run_dragen_germline_step</title>
<path fill="none" stroke="black" d="M7017.89,-1963.46C7008.32,-1952.73 6994.77,-1939.67 6980,-1932.04 6160.58,-1508.66 5009.88,-1452.14 4656.45,-1444.96"/>
<polygon fill="black" stroke="black" points="4656.29,-1441.46 4646.22,-1444.76 4656.15,-1448.45 4656.29,-1441.46"/>
</g>
<!-- fastq_list -->
<g id="node11" class="node">
<title>fastq_list</title>
<polygon fill="#94ddf4" stroke="black" points="6889,-1963.54 6889,-2000.54 6971,-2000.54 6971,-1963.54 6889,-1963.54"/>
<text text-anchor="middle" x="6930" y="-1978.34" font-family="Times,serif" font-size="14.00">fastq_list</text>
</g>
<!-- fastq_list&#45;&gt;run_dragen_germline_step -->
<g id="edge20" class="edge">
<title>fastq_list&#45;&gt;run_dragen_germline_step</title>
<path fill="none" stroke="black" d="M6916.54,-1963.49C6907.39,-1952.78 6894.36,-1939.71 6880,-1932.04 6101.82,-1516.13 5001.21,-1454.52 4656.49,-1445.53"/>
<polygon fill="black" stroke="black" points="4656.36,-1442.02 4646.27,-1445.27 4656.18,-1449.02 4656.36,-1442.02"/>
</g>
<!-- fastq_list_rows -->
<g id="node12" class="node">
<title>fastq_list_rows</title>
<polygon fill="#94ddf4" stroke="black" points="6747.5,-1963.54 6747.5,-2000.54 6870.5,-2000.54 6870.5,-1963.54 6747.5,-1963.54"/>
<text text-anchor="middle" x="6809" y="-1978.34" font-family="Times,serif" font-size="14.00">fastq_list_rows</text>
</g>
<!-- fastq_list_rows&#45;&gt;run_dragen_germline_step -->
<g id="edge21" class="edge">
<title>fastq_list_rows&#45;&gt;run_dragen_germline_step</title>
<path fill="none" stroke="black" d="M6788.22,-1963.49C6774.71,-1952.92 6756.25,-1940.01 6738,-1932.04 5983.7,-1602.65 4982.53,-1484.5 4656.52,-1453.32"/>
<polygon fill="black" stroke="black" points="4656.43,-1449.8 4646.14,-1452.34 4655.77,-1456.76 4656.43,-1449.8"/>
</g>
<!-- hla_allele_frequency_file -->
<g id="node13" class="node">
<title>hla_allele_frequency_file</title>
<polygon fill="#94ddf4" stroke="black" points="6539,-1963.54 6539,-2000.54 6729,-2000.54 6729,-1963.54 6539,-1963.54"/>
<text text-anchor="middle" x="6634" y="-1978.34" font-family="Times,serif" font-size="14.00">hla_allele_frequency_file</text>
</g>
<!-- hla_allele_frequency_file&#45;&gt;run_dragen_germline_step -->
<g id="edge22" class="edge">
<title>hla_allele_frequency_file&#45;&gt;run_dragen_germline_step</title>
<path fill="none" stroke="black" d="M6600.99,-1963.41C6580.89,-1953.21 6554.45,-1940.71 6530,-1932.04 5833.76,-1685.03 4957.07,-1516.59 4656.11,-1462.65"/>
<polygon fill="black" stroke="black" points="4656.54,-1459.17 4646.08,-1460.85 4655.31,-1466.06 4656.54,-1459.17"/>
</g>
<!-- hla_bed_file -->
<g id="node14" class="node">
<title>hla_bed_file</title>
<polygon fill="#94ddf4" stroke="black" points="6421,-1963.54 6421,-2000.54 6521,-2000.54 6521,-1963.54 6421,-1963.54"/>
<text text-anchor="middle" x="6471" y="-1978.34" font-family="Times,serif" font-size="14.00">hla_bed_file</text>
</g>
<!-- hla_bed_file&#45;&gt;run_dragen_germline_step -->
<g id="edge23" class="edge">
<title>hla_bed_file&#45;&gt;run_dragen_germline_step</title>
<path fill="none" stroke="black" d="M6453.89,-1963.34C6442.83,-1952.84 6427.63,-1940.07 6412,-1932.04 5793.88,-1614.44 4951.4,-1490.88 4656.33,-1455.63"/>
<polygon fill="black" stroke="black" points="4656.41,-1452.11 4646.07,-1454.41 4655.59,-1459.06 4656.41,-1452.11"/>
</g>
<!-- hla_min_reads -->
<g id="node15" class="node">
<title>hla_min_reads</title>
<polygon fill="#94ddf4" stroke="black" points="6283.5,-1963.54 6283.5,-2000.54 6402.5,-2000.54 6402.5,-1963.54 6283.5,-1963.54"/>
<text text-anchor="middle" x="6343" y="-1978.34" font-family="Times,serif" font-size="14.00">hla_min_reads</text>
</g>
<!-- hla_min_reads&#45;&gt;run_dragen_germline_step -->
<g id="edge24" class="edge">
<title>hla_min_reads&#45;&gt;run_dragen_germline_step</title>
<path fill="none" stroke="black" d="M6322.13,-1963.34C6309.02,-1952.98 6291.36,-1940.35 6274,-1932.04 5696.91,-1655.69 4934.23,-1508.47 4656.21,-1461.21"/>
<polygon fill="black" stroke="black" points="4656.57,-1457.72 4646.13,-1459.5 4655.4,-1464.62 4656.57,-1457.72"/>
</g>
<!-- hla_reference_file -->
<g id="node16" class="node">
<title>hla_reference_file</title>
<polygon fill="#94ddf4" stroke="black" points="6123,-1963.54 6123,-2000.54 6265,-2000.54 6265,-1963.54 6123,-1963.54"/>
<text text-anchor="middle" x="6194" y="-1978.34" font-family="Times,serif" font-size="14.00">hla_reference_file</text>
</g>
<!-- hla_reference_file&#45;&gt;run_dragen_germline_step -->
<g id="edge25" class="edge">
<title>hla_reference_file&#45;&gt;run_dragen_germline_step</title>
<path fill="none" stroke="black" d="M6168.95,-1963.47C6153.61,-1953.28 6133.28,-1940.78 6114,-1932.04 5576.85,-1688.34 4883.7,-1519.38 4639.2,-1463.87"/>
<polygon fill="black" stroke="black" points="4639.82,-1460.42 4629.29,-1461.63 4638.27,-1467.25 4639.82,-1460.42"/>
</g>
<!-- hla_tiebreaker_threshold -->
<g id="node17" class="node">
<title>hla_tiebreaker_threshold</title>
<polygon fill="#94ddf4" stroke="black" points="5911,-1963.54 5911,-2000.54 6105,-2000.54 6105,-1963.54 5911,-1963.54"/>
<text text-anchor="middle" x="6008" y="-1978.34" font-family="Times,serif" font-size="14.00">hla_tiebreaker_threshold</text>
</g>
<!-- hla_tiebreaker_threshold&#45;&gt;run_dragen_germline_step -->
<g id="edge26" class="edge">
<title>hla_tiebreaker_threshold&#45;&gt;run_dragen_germline_step</title>
<path fill="none" stroke="black" d="M5972.04,-1963.47C5951.68,-1953.76 5925.63,-1941.74 5902,-1932.04 5412.75,-1731.17 4806.93,-1528.64 4612.32,-1464.69"/>
<polygon fill="black" stroke="black" points="4613.41,-1461.37 4602.82,-1461.57 4611.23,-1468.02 4613.41,-1461.37"/>
</g>
<!-- hla_zygosity_threshold -->
<g id="node18" class="node">
<title>hla_zygosity_threshold</title>
<polygon fill="#94ddf4" stroke="black" points="5713.5,-1963.54 5713.5,-2000.54 5892.5,-2000.54 5892.5,-1963.54 5713.5,-1963.54"/>
<text text-anchor="middle" x="5803" y="-1978.34" font-family="Times,serif" font-size="14.00">hla_zygosity_threshold</text>
</g>
<!-- hla_zygosity_threshold&#45;&gt;run_dragen_germline_step -->
<g id="edge27" class="edge">
<title>hla_zygosity_threshold&#45;&gt;run_dragen_germline_step</title>
<path fill="none" stroke="black" d="M5769.24,-1963.49C5750.47,-1953.9 5726.6,-1941.98 5705,-1932.04 5285.94,-1739.06 4769.09,-1531.4 4603.05,-1465.41"/>
<polygon fill="black" stroke="black" points="4604.13,-1462.08 4593.54,-1461.64 4601.55,-1468.58 4604.13,-1462.08"/>
</g>
<!-- lic_instance_id_location -->
<g id="node19" class="node">
<title>lic_instance_id_location</title>
<polygon fill="#94ddf4" stroke="black" points="5512.5,-1963.54 5512.5,-2000.54 5695.5,-2000.54 5695.5,-1963.54 5512.5,-1963.54"/>
<text text-anchor="middle" x="5604" y="-1978.34" font-family="Times,serif" font-size="14.00">lic_instance_id_location</text>
</g>
<!-- lic_instance_id_location&#45;&gt;run_dragen_germline_step -->
<g id="edge28" class="edge">
<title>lic_instance_id_location&#45;&gt;run_dragen_germline_step</title>
<path fill="none" stroke="black" d="M5569.5,-1963.47C5412.67,-1883.65 4767.15,-1555.07 4592.65,-1466.25"/>
<polygon fill="black" stroke="black" points="4594,-1463.02 4583.5,-1461.6 4590.83,-1469.25 4594,-1463.02"/>
</g>
<!-- output_directory -->
<g id="node20" class="node">
<title>output_directory</title>
<polygon fill="#94ddf4" stroke="black" points="5358,-1963.54 5358,-2000.54 5494,-2000.54 5494,-1963.54 5358,-1963.54"/>
<text text-anchor="middle" x="5426" y="-1978.34" font-family="Times,serif" font-size="14.00">output_directory</text>
</g>
<!-- output_directory&#45;&gt;run_dragen_germline_step -->
<g id="edge29" class="edge">
<title>output_directory&#45;&gt;run_dragen_germline_step</title>
<path fill="none" stroke="black" d="M5398.64,-1963.45C5383.96,-1954.06 5365.54,-1942.34 5349,-1932.04 5057.27,-1750.26 4702.17,-1536.13 4587,-1466.87"/>
<polygon fill="black" stroke="black" points="4588.56,-1463.72 4578.18,-1461.56 4584.95,-1469.72 4588.56,-1463.72"/>
</g>
<!-- qc_coverage_ignore_overlaps -->
<g id="node21" class="node">
<title>qc_coverage_ignore_overlaps</title>
<polygon fill="#94ddf4" stroke="black" points="5116,-1963.54 5116,-2000.54 5340,-2000.54 5340,-1963.54 5116,-1963.54"/>
<text text-anchor="middle" x="5228" y="-1978.34" font-family="Times,serif" font-size="14.00">qc_coverage_ignore_overlaps</text>
</g>
<!-- qc_coverage_ignore_overlaps&#45;&gt;run_dragen_germline_step -->
<g id="edge30" class="edge">
<title>qc_coverage_ignore_overlaps&#45;&gt;run_dragen_germline_step</title>
<path fill="none" stroke="black" d="M5205.79,-1963.47C5105.57,-1884.21 4695.21,-1559.67 4579.5,-1468.16"/>
<polygon fill="black" stroke="black" points="4581.39,-1465.19 4571.38,-1461.73 4577.05,-1470.68 4581.39,-1465.19"/>
</g>
<!-- qc_coverage_region_1 -->
<g id="node22" class="node">
<title>qc_coverage_region_1</title>
<polygon fill="#94ddf4" stroke="black" points="4924.5,-1963.54 4924.5,-2000.54 5097.5,-2000.54 5097.5,-1963.54 4924.5,-1963.54"/>
<text text-anchor="middle" x="5011" y="-1978.34" font-family="Times,serif" font-size="14.00">qc_coverage_region_1</text>
</g>
<!-- qc_coverage_region_1&#45;&gt;run_dragen_germline_step -->
<g id="edge31" class="edge">
<title>qc_coverage_region_1&#45;&gt;run_dragen_germline_step</title>
<path fill="none" stroke="black" d="M4995.89,-1963.47C4928.04,-1884.6 4651.28,-1562.91 4570.95,-1469.55"/>
<polygon fill="black" stroke="black" points="4573.4,-1467.03 4564.23,-1461.73 4568.1,-1471.6 4573.4,-1467.03"/>
</g>
<!-- qc_coverage_region_2 -->
<g id="node23" class="node">
<title>qc_coverage_region_2</title>
<polygon fill="#94ddf4" stroke="black" points="4733.5,-1963.54 4733.5,-2000.54 4906.5,-2000.54 4906.5,-1963.54 4733.5,-1963.54"/>
<text text-anchor="middle" x="4820" y="-1978.34" font-family="Times,serif" font-size="14.00">qc_coverage_region_2</text>
</g>
<!-- qc_coverage_region_2&#45;&gt;run_dragen_germline_step -->
<g id="edge32" class="edge">
<title>qc_coverage_region_2&#45;&gt;run_dragen_germline_step</title>
<path fill="none" stroke="black" d="M4811.14,-1963.47C4771.5,-1884.92 4610.3,-1565.5 4562.45,-1470.69"/>
<polygon fill="black" stroke="black" points="4565.56,-1469.09 4557.93,-1461.73 4559.31,-1472.24 4565.56,-1469.09"/>
</g>
<!-- qc_coverage_region_3 -->
<g id="node24" class="node">
<title>qc_coverage_region_3</title>
<polygon fill="#94ddf4" stroke="black" points="4542.5,-1963.54 4542.5,-2000.54 4715.5,-2000.54 4715.5,-1963.54 4542.5,-1963.54"/>
<text text-anchor="middle" x="4629" y="-1978.34" font-family="Times,serif" font-size="14.00">qc_coverage_region_3</text>
</g>
<!-- qc_coverage_region_3&#45;&gt;run_dragen_germline_step -->
<g id="edge33" class="edge">
<title>qc_coverage_region_3&#45;&gt;run_dragen_germline_step</title>
<path fill="none" stroke="black" d="M4626.38,-1963.47C4614.73,-1885.24 4567.48,-1568.08 4553.14,-1471.85"/>
<polygon fill="black" stroke="black" points="4556.57,-1471.11 4551.64,-1461.73 4549.65,-1472.14 4556.57,-1471.11"/>
</g>
<!-- reference_tar -->
<g id="node25" class="node">
<title>reference_tar</title>
<polygon fill="#94ddf4" stroke="black" points="4411.5,-1963.54 4411.5,-2000.54 4524.5,-2000.54 4524.5,-1963.54 4411.5,-1963.54"/>
<text text-anchor="middle" x="4468" y="-1978.34" font-family="Times,serif" font-size="14.00">reference_tar</text>
</g>
<!-- reference_tar&#45;&gt;run_dragen_germline_step -->
<g id="edge34" class="edge">
<title>reference_tar&#45;&gt;run_dragen_germline_step</title>
<path fill="none" stroke="black" d="M4470.65,-1963.47C4482.45,-1885.24 4530.29,-1568.08 4544.8,-1471.85"/>
<polygon fill="black" stroke="black" points="4548.3,-1472.14 4546.33,-1461.73 4541.38,-1471.1 4548.3,-1472.14"/>
</g>
<!-- sample_sex -->
<g id="node26" class="node">
<title>sample_sex</title>
<polygon fill="#94ddf4" stroke="black" points="4295,-1963.54 4295,-2000.54 4393,-2000.54 4393,-1963.54 4295,-1963.54"/>
<text text-anchor="middle" x="4344" y="-1978.34" font-family="Times,serif" font-size="14.00">sample_sex</text>
</g>
<!-- sample_sex&#45;&gt;run_dragen_germline_step -->
<g id="edge35" class="edge">
<title>sample_sex&#45;&gt;run_dragen_germline_step</title>
<path fill="none" stroke="black" d="M4350.7,-1963.47C4380.63,-1885.08 4502.14,-1566.79 4538.6,-1471.27"/>
<polygon fill="black" stroke="black" points="4541.95,-1472.33 4542.24,-1461.73 4535.41,-1469.83 4541.95,-1472.33"/>
</g>
<!-- sv_call_regions_bed -->
<g id="node27" class="node">
<title>sv_call_regions_bed</title>
<polygon fill="#94ddf4" stroke="black" points="4119.5,-1963.54 4119.5,-2000.54 4276.5,-2000.54 4276.5,-1963.54 4119.5,-1963.54"/>
<text text-anchor="middle" x="4198" y="-1978.34" font-family="Times,serif" font-size="14.00">sv_call_regions_bed</text>
</g>
<!-- sv_call_regions_bed&#45;&gt;run_dragen_germline_step -->
<g id="edge36" class="edge">
<title>sv_call_regions_bed&#45;&gt;run_dragen_germline_step</title>
<path fill="none" stroke="black" d="M4209.48,-1963.47C4260.93,-1884.76 4470.45,-1564.21 4531.95,-1470.12"/>
<polygon fill="black" stroke="black" points="4534.89,-1472.02 4537.43,-1461.73 4529.03,-1468.19 4534.89,-1472.02"/>
</g>
<!-- sv_discovery -->
<g id="node28" class="node">
<title>sv_discovery</title>
<polygon fill="#94ddf4" stroke="black" points="3994.5,-1963.54 3994.5,-2000.54 4101.5,-2000.54 4101.5,-1963.54 3994.5,-1963.54"/>
<text text-anchor="middle" x="4048" y="-1978.34" font-family="Times,serif" font-size="14.00">sv_discovery</text>
</g>
<!-- sv_discovery&#45;&gt;run_dragen_germline_step -->
<g id="edge37" class="edge">
<title>sv_discovery&#45;&gt;run_dragen_germline_step</title>
<path fill="none" stroke="black" d="M4064.38,-1963.47C4138.04,-1884.52 4438.7,-1562.27 4525.46,-1469.27"/>
<polygon fill="black" stroke="black" points="4528.23,-1471.43 4532.49,-1461.73 4523.11,-1466.66 4528.23,-1471.43"/>
</g>
<!-- sv_enable_liquid_tumor_mode -->
<g id="node29" class="node">
<title>sv_enable_liquid_tumor_mode</title>
<polygon fill="#94ddf4" stroke="black" points="3746,-1963.54 3746,-2000.54 3976,-2000.54 3976,-1963.54 3746,-1963.54"/>
<text text-anchor="middle" x="3861" y="-1978.34" font-family="Times,serif" font-size="14.00">sv_enable_liquid_tumor_mode</text>
</g>
<!-- sv_enable_liquid_tumor_mode&#45;&gt;run_dragen_germline_step -->
<g id="edge38" class="edge">
<title>sv_enable_liquid_tumor_mode&#45;&gt;run_dragen_germline_step</title>
<path fill="none" stroke="black" d="M3883.5,-1963.47C3985.06,-1884.21 4400.85,-1559.67 4518.09,-1468.16"/>
<polygon fill="black" stroke="black" points="4520.59,-1470.65 4526.32,-1461.73 4516.29,-1465.13 4520.59,-1470.65"/>
</g>
<!-- sv_exome -->
<g id="node30" class="node">
<title>sv_exome</title>
<polygon fill="#94ddf4" stroke="black" points="3642,-1963.54 3642,-2000.54 3728,-2000.54 3728,-1963.54 3642,-1963.54"/>
<text text-anchor="middle" x="3685" y="-1978.34" font-family="Times,serif" font-size="14.00">sv_exome</text>
</g>
<!-- sv_exome&#45;&gt;run_dragen_germline_step -->
<g id="edge39" class="edge">
<title>sv_exome&#45;&gt;run_dragen_germline_step</title>
<path fill="none" stroke="black" d="M3701.97,-1963.26C3711.75,-1953.49 3724.54,-1941.47 3737,-1932.04 4011.32,-1724.18 4379.74,-1530.06 4505.12,-1466.11"/>
<polygon fill="black" stroke="black" points="4506.75,-1469.21 4514.07,-1461.55 4503.57,-1462.97 4506.75,-1469.21"/>
</g>
<!-- sv_forcegt_vcf -->
<g id="node31" class="node">
<title>sv_forcegt_vcf</title>
<polygon fill="#94ddf4" stroke="black" points="3506,-1963.54 3506,-2000.54 3624,-2000.54 3624,-1963.54 3506,-1963.54"/>
<text text-anchor="middle" x="3565" y="-1978.34" font-family="Times,serif" font-size="14.00">sv_forcegt_vcf</text>
</g>
<!-- sv_forcegt_vcf&#45;&gt;run_dragen_germline_step -->
<g id="edge40" class="edge">
<title>sv_forcegt_vcf&#45;&gt;run_dragen_germline_step</title>
<path fill="none" stroke="black" d="M3587.76,-1963.46C3600.72,-1953.75 3617.44,-1941.73 3633,-1932.04 3954.52,-1731.82 4365.62,-1531.38 4502.42,-1466.08"/>
<polygon fill="black" stroke="black" points="4504.27,-1469.07 4511.79,-1461.61 4501.25,-1462.75 4504.27,-1469.07"/>
</g>
<!-- sv_output_contigs -->
<g id="node32" class="node">
<title>sv_output_contigs</title>
<polygon fill="#94ddf4" stroke="black" points="3342.5,-1963.54 3342.5,-2000.54 3487.5,-2000.54 3487.5,-1963.54 3342.5,-1963.54"/>
<text text-anchor="middle" x="3415" y="-1978.34" font-family="Times,serif" font-size="14.00">sv_output_contigs</text>
</g>
<!-- sv_output_contigs&#45;&gt;run_dragen_germline_step -->
<g id="edge41" class="edge">
<title>sv_output_contigs&#45;&gt;run_dragen_germline_step</title>
<path fill="none" stroke="black" d="M3442.67,-1963.52C3458.38,-1953.83 3478.53,-1941.8 3497,-1932.04 3872.67,-1733.35 4344.04,-1530.54 4497.9,-1465.49"/>
<polygon fill="black" stroke="black" points="4499.29,-1468.7 4507.14,-1461.58 4496.57,-1462.25 4499.29,-1468.7"/>
</g>
<!-- sv_region -->
<g id="node33" class="node">
<title>sv_region</title>
<polygon fill="#94ddf4" stroke="black" points="3239.5,-1963.54 3239.5,-2000.54 3324.5,-2000.54 3324.5,-1963.54 3239.5,-1963.54"/>
<text text-anchor="middle" x="3282" y="-1978.34" font-family="Times,serif" font-size="14.00">sv_region</text>
</g>
<!-- sv_region&#45;&gt;run_dragen_germline_step -->
<g id="edge42" class="edge">
<title>sv_region&#45;&gt;run_dragen_germline_step</title>
<path fill="none" stroke="black" d="M3297.52,-1963.42C3307.22,-1953.22 3320.41,-1940.72 3334,-1932.04 3727.4,-1680.53 4271.71,-1518.45 4471.49,-1464.21"/>
<polygon fill="black" stroke="black" points="4472.57,-1467.55 4481.31,-1461.56 4470.74,-1460.79 4472.57,-1467.55"/>
</g>
<!-- sv_se_overlap_pair_evidence -->
<g id="node34" class="node">
<title>sv_se_overlap_pair_evidence</title>
<polygon fill="#94ddf4" stroke="black" points="3001,-1963.54 3001,-2000.54 3221,-2000.54 3221,-1963.54 3001,-1963.54"/>
<text text-anchor="middle" x="3111" y="-1978.34" font-family="Times,serif" font-size="14.00">sv_se_overlap_pair_evidence</text>
</g>
<!-- sv_se_overlap_pair_evidence&#45;&gt;run_dragen_germline_step -->
<g id="edge43" class="edge">
<title>sv_se_overlap_pair_evidence&#45;&gt;run_dragen_germline_step</title>
<path fill="none" stroke="black" d="M3153.07,-1963.46C3176.03,-1953.97 3205,-1942.16 3231,-1932.04 3714.64,-1743.82 4304.43,-1531.49 4490.13,-1465.05"/>
<polygon fill="black" stroke="black" points="4491.47,-1468.28 4499.71,-1461.62 4489.11,-1461.69 4491.47,-1468.28"/>
</g>
<!-- sv_tin_contam_tolerance -->
<g id="node35" class="node">
<title>sv_tin_contam_tolerance</title>
<polygon fill="#94ddf4" stroke="black" points="2791.5,-1963.54 2791.5,-2000.54 2982.5,-2000.54 2982.5,-1963.54 2791.5,-1963.54"/>
<text text-anchor="middle" x="2887" y="-1978.34" font-family="Times,serif" font-size="14.00">sv_tin_contam_tolerance</text>
</g>
<!-- sv_tin_contam_tolerance&#45;&gt;run_dragen_germline_step -->
<g id="edge44" class="edge">
<title>sv_tin_contam_tolerance&#45;&gt;run_dragen_germline_step</title>
<path fill="none" stroke="black" d="M2921.5,-1963.52C2941.75,-1953.6 2968,-1941.35 2992,-1932.04 3548.22,-1716.18 4243.11,-1525.19 4472,-1464.26"/>
<polygon fill="black" stroke="black" points="4473.13,-1467.58 4481.9,-1461.62 4471.33,-1460.81 4473.13,-1467.58"/>
</g>
<!-- vc_decoy_contigs -->
<g id="node36" class="node">
<title>vc_decoy_contigs</title>
<polygon fill="#94ddf4" stroke="black" points="2634.5,-1963.54 2634.5,-2000.54 2773.5,-2000.54 2773.5,-1963.54 2634.5,-1963.54"/>
<text text-anchor="middle" x="2704" y="-1978.34" font-family="Times,serif" font-size="14.00">vc_decoy_contigs</text>
</g>
<!-- vc_decoy_contigs&#45;&gt;run_dragen_germline_step -->
<g id="edge45" class="edge">
<title>vc_decoy_contigs&#45;&gt;run_dragen_germline_step</title>
<path fill="none" stroke="black" d="M2728.26,-1963.46C2743.4,-1953.14 2763.63,-1940.51 2783,-1932.04 3383.2,-1669.46 4160.69,-1513.52 4441.73,-1462.59"/>
<polygon fill="black" stroke="black" points="4442.7,-1465.97 4451.92,-1460.75 4441.46,-1459.08 4442.7,-1465.97"/>
</g>
<!-- vc_enable_baf -->
<g id="node37" class="node">
<title>vc_enable_baf</title>
<polygon fill="#94ddf4" stroke="black" points="2500,-1963.54 2500,-2000.54 2616,-2000.54 2616,-1963.54 2500,-1963.54"/>
<text text-anchor="middle" x="2558" y="-1978.34" font-family="Times,serif" font-size="14.00">vc_enable_baf</text>
</g>
<!-- vc_enable_baf&#45;&gt;run_dragen_germline_step -->
<g id="edge46" class="edge">
<title>vc_enable_baf&#45;&gt;run_dragen_germline_step</title>
<path fill="none" stroke="black" d="M2578.15,-1963.4C2591.06,-1952.93 2608.59,-1940.16 2626,-1932.04 3276.65,-1628.52 4142.65,-1495.74 4441.94,-1456.88"/>
<polygon fill="black" stroke="black" points="4442.44,-1460.34 4451.91,-1455.59 4441.55,-1453.4 4442.44,-1460.34"/>
</g>
<!-- vc_enable_decoy_contigs -->
<g id="node38" class="node">
<title>vc_enable_decoy_contigs</title>
<polygon fill="#94ddf4" stroke="black" points="2288.5,-1963.54 2288.5,-2000.54 2481.5,-2000.54 2481.5,-1963.54 2288.5,-1963.54"/>
<text text-anchor="middle" x="2385" y="-1978.34" font-family="Times,serif" font-size="14.00">vc_enable_decoy_contigs</text>
</g>
<!-- vc_enable_decoy_contigs&#45;&gt;run_dragen_germline_step -->
<g id="edge47" class="edge">
<title>vc_enable_decoy_contigs&#45;&gt;run_dragen_germline_step</title>
<path fill="none" stroke="black" d="M2418.66,-1963.37C2439.15,-1953.15 2466.09,-1940.65 2491,-1932.04 3217.81,-1680.71 4132.81,-1513.99 4441.64,-1461.65"/>
<polygon fill="black" stroke="black" points="4442.65,-1465.03 4451.92,-1459.92 4441.48,-1458.13 4442.65,-1465.03"/>
</g>
<!-- vc_enable_gatk_acceleration -->
<g id="node39" class="node">
<title>vc_enable_gatk_acceleration</title>
<polygon fill="#94ddf4" stroke="black" points="2052,-1963.54 2052,-2000.54 2270,-2000.54 2270,-1963.54 2052,-1963.54"/>
<text text-anchor="middle" x="2161" y="-1978.34" font-family="Times,serif" font-size="14.00">vc_enable_gatk_acceleration</text>
</g>
<!-- vc_enable_gatk_acceleration&#45;&gt;run_dragen_germline_step -->
<g id="edge48" class="edge">
<title>vc_enable_gatk_acceleration&#45;&gt;run_dragen_germline_step</title>
<path fill="none" stroke="black" d="M2198.68,-1963.49C2221.78,-1953.25 2252.16,-1940.69 2280,-1932.04 3094.53,-1678.98 4113.41,-1510.76 4441.77,-1460.1"/>
<polygon fill="black" stroke="black" points="4442.41,-1463.54 4451.76,-1458.56 4441.34,-1456.62 4442.41,-1463.54"/>
</g>
<!-- vc_enable_phasing -->
<g id="node40" class="node">
<title>vc_enable_phasing</title>
<polygon fill="#94ddf4" stroke="black" points="1884.5,-1963.54 1884.5,-2000.54 2033.5,-2000.54 2033.5,-1963.54 1884.5,-1963.54"/>
<text text-anchor="middle" x="1959" y="-1978.34" font-family="Times,serif" font-size="14.00">vc_enable_phasing</text>
</g>
<!-- vc_enable_phasing&#45;&gt;run_dragen_germline_step -->
<g id="edge49" class="edge">
<title>vc_enable_phasing&#45;&gt;run_dragen_germline_step</title>
<path fill="none" stroke="black" d="M1983.99,-1963.45C2000.13,-1952.87 2021.99,-1939.95 2043,-1932.04 2931.75,-1597.3 4088.26,-1481.04 4441.75,-1452.03"/>
<polygon fill="black" stroke="black" points="4442.29,-1455.5 4451.98,-1451.2 4441.73,-1448.52 4442.29,-1455.5"/>
</g>
<!-- vc_enable_roh -->
<g id="node41" class="node">
<title>vc_enable_roh</title>
<polygon fill="#94ddf4" stroke="black" points="1749.5,-1963.54 1749.5,-2000.54 1866.5,-2000.54 1866.5,-1963.54 1749.5,-1963.54"/>
<text text-anchor="middle" x="1808" y="-1978.34" font-family="Times,serif" font-size="14.00">vc_enable_roh</text>
</g>
<!-- vc_enable_roh&#45;&gt;run_dragen_germline_step -->
<g id="edge50" class="edge">
<title>vc_enable_roh&#45;&gt;run_dragen_germline_step</title>
<path fill="none" stroke="black" d="M1827.39,-1963.46C1840.27,-1952.74 1858.06,-1939.67 1876,-1932.04 2812.88,-1533.17 4070.22,-1459.99 4441.53,-1446.85"/>
<polygon fill="black" stroke="black" points="4441.85,-1450.34 4451.73,-1446.49 4441.61,-1443.34 4441.85,-1450.34"/>
</g>
<!-- vc_enable_vcf_output -->
<g id="node42" class="node">
<title>vc_enable_vcf_output</title>
<polygon fill="#94ddf4" stroke="black" points="1563,-1963.54 1563,-2000.54 1731,-2000.54 1731,-1963.54 1563,-1963.54"/>
<text text-anchor="middle" x="1647" y="-1978.34" font-family="Times,serif" font-size="14.00">vc_enable_vcf_output</text>
</g>
<!-- vc_enable_vcf_output&#45;&gt;run_dragen_germline_step -->
<g id="edge51" class="edge">
<title>vc_enable_vcf_output&#45;&gt;run_dragen_germline_step</title>
<path fill="none" stroke="black" d="M1675.19,-1963.4C1693.35,-1952.8 1717.81,-1939.88 1741,-1932.04 2755.86,-1588.62 4062.78,-1477.02 4441.69,-1450.77"/>
<polygon fill="black" stroke="black" points="4442.08,-1454.25 4451.82,-1450.07 4441.6,-1447.27 4442.08,-1454.25"/>
</g>
<!-- vc_hard_filter -->
<g id="node43" class="node">
<title>vc_hard_filter</title>
<polygon fill="#94ddf4" stroke="black" points="1431.5,-1963.54 1431.5,-2000.54 1544.5,-2000.54 1544.5,-1963.54 1431.5,-1963.54"/>
<text text-anchor="middle" x="1488" y="-1978.34" font-family="Times,serif" font-size="14.00">vc_hard_filter</text>
</g>
<!-- vc_hard_filter&#45;&gt;run_dragen_germline_step -->
<g id="edge52" class="edge">
<title>vc_hard_filter&#45;&gt;run_dragen_germline_step</title>
<path fill="none" stroke="black" d="M1506.68,-1963.33C1519.13,-1952.56 1536.39,-1939.48 1554,-1932.04 2612.96,-1484.22 4043.08,-1445.27 4441.88,-1443.53"/>
<polygon fill="black" stroke="black" points="4441.97,-1447.03 4451.96,-1443.49 4441.95,-1440.03 4441.97,-1447.03"/>
</g>
<!-- vc_max_reads_per_active_region -->
<g id="node44" class="node">
<title>vc_max_reads_per_active_region</title>
<polygon fill="#94ddf4" stroke="black" points="1165,-1963.54 1165,-2000.54 1413,-2000.54 1413,-1963.54 1165,-1963.54"/>
<text text-anchor="middle" x="1289" y="-1978.34" font-family="Times,serif" font-size="14.00">vc_max_reads_per_active_region</text>
</g>
<!-- vc_max_reads_per_active_region&#45;&gt;run_dragen_germline_step -->
<g id="edge53" class="edge">
<title>vc_max_reads_per_active_region&#45;&gt;run_dragen_germline_step</title>
<path fill="none" stroke="black" d="M1330.58,-1963.44C1356.7,-1952.98 1391.34,-1940.21 1423,-1932.04 2584.36,-1632.13 4038.94,-1488.79 4441.5,-1453.13"/>
<polygon fill="black" stroke="black" points="4442.02,-1456.6 4451.67,-1452.23 4441.4,-1449.62 4442.02,-1456.6"/>
</g>
<!-- vc_max_reads_per_raw_region -->
<g id="node45" class="node">
<title>vc_max_reads_per_raw_region</title>
<polygon fill="#94ddf4" stroke="black" points="913.5,-1963.54 913.5,-2000.54 1146.5,-2000.54 1146.5,-1963.54 913.5,-1963.54"/>
<text text-anchor="middle" x="1030" y="-1978.34" font-family="Times,serif" font-size="14.00">vc_max_reads_per_raw_region</text>
</g>
<!-- vc_max_reads_per_raw_region&#45;&gt;run_dragen_germline_step -->
<g id="edge54" class="edge">
<title>vc_max_reads_per_raw_region&#45;&gt;run_dragen_germline_step</title>
<path fill="none" stroke="black" d="M1068.4,-1963.46C1092.98,-1952.88 1125.81,-1939.97 1156,-1932.04 2422.46,-1599.37 4018.34,-1478.06 4441.85,-1450.53"/>
<polygon fill="black" stroke="black" points="4442.18,-1454.02 4451.94,-1449.88 4441.73,-1447.03 4442.18,-1454.02"/>
</g>
<!-- vc_remove_all_soft_clips -->
<g id="node46" class="node">
<title>vc_remove_all_soft_clips</title>
<polygon fill="#94ddf4" stroke="black" points="705,-1963.54 705,-2000.54 895,-2000.54 895,-1963.54 705,-1963.54"/>
<text text-anchor="middle" x="800" y="-1978.34" font-family="Times,serif" font-size="14.00">vc_remove_all_soft_clips</text>
</g>
<!-- vc_remove_all_soft_clips&#45;&gt;run_dragen_germline_step -->
<g id="edge55" class="edge">
<title>vc_remove_all_soft_clips&#45;&gt;run_dragen_germline_step</title>
<path fill="none" stroke="black" d="M831.19,-1963.42C851.57,-1952.68 879.13,-1939.61 905,-1932.04 2261.1,-1534.91 3996.86,-1459.69 4441.51,-1446.61"/>
<polygon fill="black" stroke="black" points="4441.88,-1450.1 4451.77,-1446.31 4441.67,-1443.1 4441.88,-1450.1"/>
</g>
<!-- vc_roh_blacklist_bed -->
<g id="node47" class="node">
<title>vc_roh_blacklist_bed</title>
<polygon fill="#94ddf4" stroke="black" points="523.5,-1963.54 523.5,-2000.54 686.5,-2000.54 686.5,-1963.54 523.5,-1963.54"/>
<text text-anchor="middle" x="605" y="-1978.34" font-family="Times,serif" font-size="14.00">vc_roh_blacklist_bed</text>
</g>
<!-- vc_roh_blacklist_bed&#45;&gt;run_dragen_germline_step -->
<g id="edge56" class="edge">
<title>vc_roh_blacklist_bed&#45;&gt;run_dragen_germline_step</title>
<path fill="none" stroke="black" d="M631.31,-1963.5C648.89,-1952.65 672.93,-1939.42 696,-1932.04 2124.69,-1474.45 3980.35,-1443.64 4441.67,-1443.41"/>
<polygon fill="black" stroke="black" points="4441.98,-1446.91 4451.98,-1443.41 4441.98,-1439.91 4441.98,-1446.91"/>
</g>
<!-- vc_target_bed -->
<g id="node48" class="node">
<title>vc_target_bed</title>
<polygon fill="#94ddf4" stroke="black" points="389,-1963.54 389,-2000.54 505,-2000.54 505,-1963.54 389,-1963.54"/>
<text text-anchor="middle" x="447" y="-1978.34" font-family="Times,serif" font-size="14.00">vc_target_bed</text>
</g>
<!-- vc_target_bed&#45;&gt;run_dragen_germline_step -->
<g id="edge57" class="edge">
<title>vc_target_bed&#45;&gt;run_dragen_germline_step</title>
<path fill="none" stroke="black" d="M465.95,-1963.33C478.79,-1952.42 496.7,-1939.18 515,-1932.04 1264.01,-1639.45 3878.11,-1480.97 4441.48,-1449.78"/>
<polygon fill="black" stroke="black" points="4441.83,-1453.27 4451.63,-1449.22 4441.45,-1446.28 4441.83,-1453.27"/>
</g>
<!-- vc_target_bed_padding -->
<g id="node49" class="node">
<title>vc_target_bed_padding</title>
<polygon fill="#94ddf4" stroke="black" points="189.5,-1963.54 189.5,-2000.54 370.5,-2000.54 370.5,-1963.54 189.5,-1963.54"/>
<text text-anchor="middle" x="280" y="-1978.34" font-family="Times,serif" font-size="14.00">vc_target_bed_padding</text>
</g>
<!-- vc_target_bed_padding&#45;&gt;run_dragen_germline_step -->
<g id="edge58" class="edge">
<title>vc_target_bed_padding&#45;&gt;run_dragen_germline_step</title>
<path fill="none" stroke="black" d="M309.12,-1963.48C328.52,-1952.62 354.96,-1939.4 380,-1932.04 1944.47,-1471.87 3959.42,-1443.31 4441.85,-1443.41"/>
<polygon fill="black" stroke="black" points="4441.93,-1446.91 4451.93,-1443.42 4441.93,-1439.91 4441.93,-1446.91"/>
</g>
<!-- vc_target_coverage -->
<g id="node50" class="node">
<title>vc_target_coverage</title>
<polygon fill="#94ddf4" stroke="black" points="16.5,-1963.54 16.5,-2000.54 171.5,-2000.54 171.5,-1963.54 16.5,-1963.54"/>
<text text-anchor="middle" x="94" y="-1978.34" font-family="Times,serif" font-size="14.00">vc_target_coverage</text>
</g>
<!-- vc_target_coverage&#45;&gt;run_dragen_germline_step -->
<g id="edge59" class="edge">
<title>vc_target_coverage&#45;&gt;run_dragen_germline_step</title>
<path fill="none" stroke="black" d="M118.69,-1963.35C135.23,-1952.45 157.94,-1939.21 180,-1932.04 1011.1,-1661.62 3851.93,-1484.47 4441.38,-1450.14"/>
<polygon fill="black" stroke="black" points="4441.79,-1453.62 4451.57,-1449.55 4441.38,-1446.64 4441.79,-1453.62"/>
</g>
<!-- dragen_bam_out -->
<g id="node51" class="node">
<title>dragen_bam_out</title>
<polygon fill="#94ddf4" stroke="black" points="4352,-387.54 4352,-424.54 4486,-424.54 4486,-387.54 4352,-387.54"/>
<text text-anchor="middle" x="4419" y="-402.34" font-family="Times,serif" font-size="14.00">dragen_bam_out</text>
</g>
<!-- dragen_germline_output_directory -->
<g id="node52" class="node">
<title>dragen_germline_output_directory</title>
<polygon fill="#94ddf4" stroke="black" points="4504.5,-387.54 4504.5,-424.54 4767.5,-424.54 4767.5,-387.54 4504.5,-387.54"/>
<text text-anchor="middle" x="4636" y="-402.34" font-family="Times,serif" font-size="14.00">dragen_germline_output_directory</text>
</g>
<!-- dragen_vcf_out -->
<g id="node53" class="node">
<title>dragen_vcf_out</title>
<polygon fill="#94ddf4" stroke="black" points="4785.5,-387.54 4785.5,-424.54 4910.5,-424.54 4910.5,-387.54 4785.5,-387.54"/>
<text text-anchor="middle" x="4848" y="-402.34" font-family="Times,serif" font-size="14.00">dragen_vcf_out</text>
</g>
<!-- multiqc_output_directory -->
<g id="node54" class="node">
<title>multiqc_output_directory</title>
<polygon fill="#94ddf4" stroke="black" points="4928.5,-387.54 4928.5,-424.54 5125.5,-424.54 5125.5,-387.54 4928.5,-387.54"/>
<text text-anchor="middle" x="5027" y="-402.34" font-family="Times,serif" font-size="14.00">multiqc_output_directory</text>
</g>
<!-- run_dragen_germline_step&#45;&gt;dragen_bam_out -->
<g id="edge2" class="edge">
<title>run_dragen_germline_step&#45;&gt;dragen_bam_out</title>
<path fill="none" stroke="black" d="M4546.8,-1424.51C4531.53,-1302.96 4441.49,-586.09 4422.51,-434.99"/>
<polygon fill="black" stroke="black" points="4425.94,-434.21 4421.22,-424.72 4419,-435.08 4425.94,-434.21"/>
</g>
<!-- run_dragen_germline_step&#45;&gt;dragen_germline_output_directory -->
<g id="edge3" class="edge">
<title>run_dragen_germline_step&#45;&gt;dragen_germline_output_directory</title>
<path fill="none" stroke="black" d="M4550.47,-1424.51C4560.69,-1302.96 4620.95,-586.09 4633.65,-434.99"/>
<polygon fill="black" stroke="black" points="4637.16,-434.98 4634.51,-424.72 4630.19,-434.4 4637.16,-434.98"/>
</g>
<!-- run_dragen_germline_step&#45;&gt;dragen_vcf_out -->
<g id="edge4" class="edge">
<title>run_dragen_germline_step&#45;&gt;dragen_vcf_out</title>
<path fill="none" stroke="black" d="M4554.06,-1424.51C4589.21,-1302.84 4796.69,-584.65 4840.06,-434.53"/>
<polygon fill="black" stroke="black" points="4843.48,-435.3 4842.89,-424.72 4836.75,-433.36 4843.48,-435.3"/>
</g>
<!-- run_dragen_germline_step&#45;&gt;dragen_qc_step -->
<g id="edge1" class="edge">
<title>run_dragen_germline_step&#45;&gt;dragen_qc_step</title>
<path fill="none" stroke="black" d="M4646.1,-1429.34C5196.29,-1357.44 7915.46,-1002.04 8417.3,-936.45"/>
<polygon fill="black" stroke="black" points="8417.88,-939.91 8427.34,-935.14 8416.97,-932.97 8417.88,-939.91"/>
</g>
<!-- dragen_qc_step&#45;&gt;multiqc_output_directory -->
<g id="edge5" class="edge">
<title>dragen_qc_step&#45;&gt;multiqc_output_directory</title>
<path fill="none" stroke="black" d="M8427.29,-913.65C7993.82,-849.07 5668.29,-502.58 5135.71,-423.23"/>
<polygon fill="black" stroke="black" points="5136.13,-419.76 5125.73,-421.75 5135.1,-426.68 5136.13,-419.76"/>
</g>
<!-- create_dummy_file_step -->
<g id="node57" class="node">
<title>create_dummy_file_step</title>
<polygon fill="lightgoldenrodyellow" stroke="black" points="8543.5,-1424.54 8543.5,-1461.54 8804.5,-1461.54 8804.5,-1424.54 8543.5,-1424.54"/>
<text text-anchor="middle" x="8674" y="-1439.34" font-family="Times,serif" font-size="14.00">custom&#45;create&#45;dummy&#45;file v(1.0.0)</text>
</g>
<!-- create_dummy_file_step&#45;&gt;dragen_qc_step -->
<g id="edge6" class="edge">
<title>create_dummy_file_step&#45;&gt;dragen_qc_step</title>
<path fill="none" stroke="black" d="M8667.91,-1424.27C8641.66,-1347.75 8538.12,-1045.91 8506.33,-953.24"/>
<polygon fill="black" stroke="black" points="8509.62,-952.05 8503.07,-943.72 8503,-954.32 8509.62,-952.05"/>
</g>
<!-- \n -->
<g id="node58" class="node">
<title>\n</title>
<ellipse fill="none" stroke="black" cx="8612" cy="-1982.04" rx="27" ry="18"/>
</g>
</g>
</svg>
