<?xml version="1.0" encoding="UTF-8" standalone="no"?>
<!DOCTYPE svg PUBLIC "-//W3C//DTD SVG 1.1//EN"
 "http://www.w3.org/Graphics/SVG/1.1/DTD/svg11.dtd">
<!-- Generated by graphviz version 2.43.0 (0)
 -->
<!-- Title: G Pages: 1 -->
<svg width="8648pt" height="2203pt"
 viewBox="0.00 0.00 8648.00 2202.56" xmlns="http://www.w3.org/2000/svg" xmlns:xlink="http://www.w3.org/1999/xlink">
<g id="graph0" class="graph" transform="scale(1 1) rotate(0) translate(4 2198.56)">
<title>G</title>
<polygon fill="#eeeeee" stroke="transparent" points="-4,4 -4,-2198.56 8644,-2198.56 8644,4 -4,4"/>
<g id="clust1" class="cluster">
<title>cluster_inputs</title>
<polygon fill="#eeeeee" stroke="black" stroke-dasharray="5,2" points="8,-1607.96 8,-2139.35 8576,-2139.35 8576,-1607.96 8,-1607.96"/>
<text text-anchor="middle" x="8509.5" y="-1615.76" font-family="Times,serif" font-size="14.00">Workflow Inputs</text>
</g>
<g id="clust2" class="cluster">
<title>cluster_outputs</title>
<polygon fill="#eeeeee" stroke="black" stroke-dasharray="5,2" points="3642,-55.21 3642,-586.6 4433,-586.6 4433,-55.21 3642,-55.21"/>
<text text-anchor="middle" x="4360.5" y="-63.01" font-family="Times,serif" font-size="14.00">Workflow Outputs</text>
</g>
<!-- output_file_prefix -->
<g id="node1" class="node">
<title>output_file_prefix</title>
<polygon fill="#94ddf4" stroke="black" points="16,-1934.71 16,-1971.71 156,-1971.71 156,-1934.71 16,-1934.71"/>
<text text-anchor="middle" x="86" y="-1949.51" font-family="Times,serif" font-size="14.00">output_file_prefix</text>
</g>
<!-- dragen_qc_step -->
<g id="node56" class="node">
<title>dragen_qc_step</title>
<polygon fill="lightgoldenrodyellow" stroke="black" points="16.5,-892.71 16.5,-929.71 155.5,-929.71 155.5,-892.71 16.5,-892.71"/>
<text text-anchor="middle" x="86" y="-907.51" font-family="Times,serif" font-size="14.00">multiqc v(1.14.0)</text>
</g>
<!-- output_file_prefix&#45;&gt;dragen_qc_step -->
<g id="edge7" class="edge">
<title>output_file_prefix&#45;&gt;dragen_qc_step</title>
<path fill="none" stroke="black" d="M82.16,-1934.59C69.6,-1812.46 69.29,-1092.13 81.22,-940.3"/>
<polygon fill="black" stroke="black" points="84.74,-940.25 82.14,-929.98 77.77,-939.63 84.74,-940.25"/>
</g>
<!-- output_file_prefix&#45;&gt;dragen_qc_step -->
<g id="edge8" class="edge">
<title>output_file_prefix&#45;&gt;dragen_qc_step</title>
<path fill="none" stroke="black" d="M86,-1934.59C86,-1812.46 86,-1092.13 86,-940.3"/>
<polygon fill="black" stroke="black" points="89.5,-939.98 86,-929.98 82.5,-939.98 89.5,-939.98"/>
</g>
<!-- output_file_prefix&#45;&gt;dragen_qc_step -->
<g id="edge9" class="edge">
<title>output_file_prefix&#45;&gt;dragen_qc_step</title>
<path fill="none" stroke="black" d="M89.84,-1934.59C102.4,-1812.46 102.71,-1092.13 90.78,-940.3"/>
<polygon fill="black" stroke="black" points="94.23,-939.63 89.86,-929.98 87.26,-940.25 94.23,-939.63"/>
</g>
<!-- run_dragen_germline_step -->
<g id="node57" class="node">
<title>run_dragen_germline_step</title>
<polygon fill="lightgoldenrodyellow" stroke="black" points="4159,-1402.71 4159,-1439.71 4353,-1439.71 4353,-1402.71 4159,-1402.71"/>
<text text-anchor="middle" x="4256" y="-1417.51" font-family="Times,serif" font-size="14.00">dragen&#45;germline v(4.0.3)</text>
</g>
<!-- output_file_prefix&#45;&gt;run_dragen_germline_step -->
<g id="edge10" class="edge">
<title>output_file_prefix&#45;&gt;run_dragen_germline_step</title>
<path fill="none" stroke="black" d="M108.8,-1934.54C124.11,-1923.64 145.22,-1910.4 166,-1903.21 936.74,-1636.35 3582.46,-1463.1 4148.76,-1428.57"/>
<polygon fill="black" stroke="black" points="4149.19,-1432.05 4158.96,-1427.95 4148.77,-1425.06 4149.19,-1432.05"/>
</g>
<!-- bam_input -->
<g id="node2" class="node">
<title>bam_input</title>
<polygon fill="#94ddf4" stroke="black" points="8302,-1934.71 8302,-1971.71 8394,-1971.71 8394,-1934.71 8302,-1934.71"/>
<text text-anchor="middle" x="8348" y="-1949.51" font-family="Times,serif" font-size="14.00">bam_input</text>
</g>
<!-- bam_input&#45;&gt;run_dragen_germline_step -->
<g id="edge11" class="edge">
<title>bam_input&#45;&gt;run_dragen_germline_step</title>
<path fill="none" stroke="black" d="M8333.08,-1934.23C8322.96,-1923.34 8308.62,-1910.25 8293,-1903.21 7559.02,-1572.63 4928.02,-1449.28 4363.25,-1426.32"/>
<polygon fill="black" stroke="black" points="4363.21,-1422.82 4353.08,-1425.91 4362.93,-1429.81 4363.21,-1422.82"/>
</g>
<!-- cnv_enable_self_normalization -->
<g id="node3" class="node">
<title>cnv_enable_self_normalization</title>
<polygon fill="#94ddf4" stroke="black" points="8050.5,-1934.71 8050.5,-1971.71 8283.5,-1971.71 8283.5,-1934.71 8050.5,-1934.71"/>
<text text-anchor="middle" x="8167" y="-1949.51" font-family="Times,serif" font-size="14.00">cnv_enable_self_normalization</text>
</g>
<!-- cnv_enable_self_normalization&#45;&gt;run_dragen_germline_step -->
<g id="edge12" class="edge">
<title>cnv_enable_self_normalization&#45;&gt;run_dragen_germline_step</title>
<path fill="none" stroke="black" d="M8129.51,-1934.7C8105.09,-1924 8072.26,-1910.94 8042,-1903.21 6616.84,-1539.34 4816.39,-1444.84 4363.22,-1426.15"/>
<polygon fill="black" stroke="black" points="4363.22,-1422.65 4353.09,-1425.74 4362.94,-1429.65 4363.22,-1422.65"/>
</g>
<!-- dbsnp_annotation -->
<g id="node4" class="node">
<title>dbsnp_annotation</title>
<polygon fill="#94ddf4" stroke="black" points="7889.5,-1934.71 7889.5,-1971.71 8032.5,-1971.71 8032.5,-1934.71 7889.5,-1934.71"/>
<text text-anchor="middle" x="7961" y="-1949.51" font-family="Times,serif" font-size="14.00">dbsnp_annotation</text>
</g>
<!-- dbsnp_annotation&#45;&gt;run_dragen_germline_step -->
<g id="edge13" class="edge">
<title>dbsnp_annotation&#45;&gt;run_dragen_germline_step</title>
<path fill="none" stroke="black" d="M7937.85,-1934.65C7922.31,-1923.79 7900.93,-1910.57 7880,-1903.21 7202.45,-1665.06 4890.68,-1472.07 4363.58,-1430.51"/>
<polygon fill="black" stroke="black" points="4363.57,-1427 4353.33,-1429.7 4363.02,-1433.97 4363.57,-1427"/>
</g>
<!-- dedup_min_qual -->
<g id="node5" class="node">
<title>dedup_min_qual</title>
<polygon fill="#94ddf4" stroke="black" points="7739,-1934.71 7739,-1971.71 7871,-1971.71 7871,-1934.71 7739,-1934.71"/>
<text text-anchor="middle" x="7805" y="-1949.51" font-family="Times,serif" font-size="14.00">dedup_min_qual</text>
</g>
<!-- dedup_min_qual&#45;&gt;run_dragen_germline_step -->
<g id="edge14" class="edge">
<title>dedup_min_qual&#45;&gt;run_dragen_germline_step</title>
<path fill="none" stroke="black" d="M7783.75,-1934.65C7769.45,-1923.79 7749.66,-1910.57 7730,-1903.21 7086.33,-1662.29 4876.34,-1472.23 4363.08,-1430.68"/>
<polygon fill="black" stroke="black" points="4363.34,-1427.19 4353.09,-1429.87 4362.77,-1434.16 4363.34,-1427.19"/>
</g>
<!-- enable_cnv -->
<g id="node6" class="node">
<title>enable_cnv</title>
<polygon fill="#94ddf4" stroke="black" points="7625.5,-1934.71 7625.5,-1971.71 7720.5,-1971.71 7720.5,-1934.71 7625.5,-1934.71"/>
<text text-anchor="middle" x="7673" y="-1949.51" font-family="Times,serif" font-size="14.00">enable_cnv</text>
</g>
<!-- enable_cnv&#45;&gt;run_dragen_germline_step -->
<g id="edge15" class="edge">
<title>enable_cnv&#45;&gt;run_dragen_germline_step</title>
<path fill="none" stroke="black" d="M7657.69,-1934.35C7647.34,-1923.52 7632.73,-1910.43 7617,-1903.21 7013.5,-1626.07 4868.59,-1464.16 4363.22,-1429.34"/>
<polygon fill="black" stroke="black" points="4363.23,-1425.83 4353.02,-1428.63 4362.75,-1432.81 4363.23,-1425.83"/>
</g>
<!-- enable_duplicate_marking -->
<g id="node7" class="node">
<title>enable_duplicate_marking</title>
<polygon fill="#94ddf4" stroke="black" points="7404.5,-1934.71 7404.5,-1971.71 7607.5,-1971.71 7607.5,-1934.71 7404.5,-1934.71"/>
<text text-anchor="middle" x="7506" y="-1949.51" font-family="Times,serif" font-size="14.00">enable_duplicate_marking</text>
</g>
<!-- enable_duplicate_marking&#45;&gt;run_dragen_germline_step -->
<g id="edge16" class="edge">
<title>enable_duplicate_marking&#45;&gt;run_dragen_germline_step</title>
<path fill="none" stroke="black" d="M7472.38,-1934.58C7450.8,-1923.98 7421.9,-1911.06 7395,-1903.21 6237.95,-1565.63 4767.92,-1453.84 4363.25,-1428.39"/>
<polygon fill="black" stroke="black" points="4363.22,-1424.88 4353.02,-1427.75 4362.78,-1431.87 4363.22,-1424.88"/>
</g>
<!-- enable_hla -->
<g id="node8" class="node">
<title>enable_hla</title>
<polygon fill="#94ddf4" stroke="black" points="7294,-1934.71 7294,-1971.71 7386,-1971.71 7386,-1934.71 7294,-1934.71"/>
<text text-anchor="middle" x="7340" y="-1949.51" font-family="Times,serif" font-size="14.00">enable_hla</text>
</g>
<!-- enable_hla&#45;&gt;run_dragen_germline_step -->
<g id="edge17" class="edge">
<title>enable_hla&#45;&gt;run_dragen_germline_step</title>
<path fill="none" stroke="black" d="M7324.98,-1934.43C7314.83,-1923.63 7300.49,-1910.55 7285,-1903.21 6747.08,-1648.24 4838.03,-1471.72 4363.42,-1431.12"/>
<polygon fill="black" stroke="black" points="4363.42,-1427.61 4353.15,-1430.24 4362.82,-1434.58 4363.42,-1427.61"/>
</g>
<!-- enable_map_align_output -->
<g id="node9" class="node">
<title>enable_map_align_output</title>
<polygon fill="#94ddf4" stroke="black" points="7078.5,-1934.71 7078.5,-1971.71 7275.5,-1971.71 7275.5,-1934.71 7078.5,-1934.71"/>
<text text-anchor="middle" x="7177" y="-1949.51" font-family="Times,serif" font-size="14.00">enable_map_align_output</text>
</g>
<!-- enable_map_align_output&#45;&gt;run_dragen_germline_step -->
<g id="edge18" class="edge">
<title>enable_map_align_output&#45;&gt;run_dragen_germline_step</title>
<path fill="none" stroke="black" d="M7144.29,-1934.71C7123.31,-1924.15 7095.18,-1911.24 7069,-1903.21 6043.67,-1588.68 4741.07,-1462.16 4363.19,-1430.58"/>
<polygon fill="black" stroke="black" points="4363.34,-1427.08 4353.09,-1429.74 4362.76,-1434.05 4363.34,-1427.08"/>
</g>
<!-- enable_sv -->
<g id="node10" class="node">
<title>enable_sv</title>
<polygon fill="#94ddf4" stroke="black" points="6974,-1934.71 6974,-1971.71 7060,-1971.71 7060,-1934.71 6974,-1934.71"/>
<text text-anchor="middle" x="7017" y="-1949.51" font-family="Times,serif" font-size="14.00">enable_sv</text>
</g>
<!-- enable_sv&#45;&gt;run_dragen_germline_step -->
<g id="edge19" class="edge">
<title>enable_sv&#45;&gt;run_dragen_germline_step</title>
<path fill="none" stroke="black" d="M7002.95,-1934.52C6993.4,-1923.75 6979.85,-1910.67 6965,-1903.21 6491.91,-1665.44 4806.64,-1478.76 4363.43,-1433"/>
<polygon fill="black" stroke="black" points="4363.5,-1429.49 4353.19,-1431.94 4362.78,-1436.45 4363.5,-1429.49"/>
</g>
<!-- fastq_list -->
<g id="node11" class="node">
<title>fastq_list</title>
<polygon fill="#94ddf4" stroke="black" points="6874,-1934.71 6874,-1971.71 6956,-1971.71 6956,-1934.71 6874,-1934.71"/>
<text text-anchor="middle" x="6915" y="-1949.51" font-family="Times,serif" font-size="14.00">fastq_list</text>
</g>
<!-- fastq_list&#45;&gt;run_dragen_germline_step -->
<g id="edge20" class="edge">
<title>fastq_list&#45;&gt;run_dragen_germline_step</title>
<path fill="none" stroke="black" d="M6901.61,-1934.54C6892.48,-1923.79 6879.45,-1910.71 6865,-1903.21 6413.14,-1668.65 4796.07,-1480.5 4363.22,-1433.53"/>
<polygon fill="black" stroke="black" points="4363.53,-1430.04 4353.21,-1432.45 4362.78,-1437 4363.53,-1430.04"/>
</g>
<!-- fastq_list_rows -->
<g id="node12" class="node">
<title>fastq_list_rows</title>
<polygon fill="#94ddf4" stroke="black" points="6732.5,-1934.71 6732.5,-1971.71 6855.5,-1971.71 6855.5,-1934.71 6732.5,-1934.71"/>
<text text-anchor="middle" x="6794" y="-1949.51" font-family="Times,serif" font-size="14.00">fastq_list_rows</text>
</g>
<!-- fastq_list_rows&#45;&gt;run_dragen_germline_step -->
<g id="edge21" class="edge">
<title>fastq_list_rows&#45;&gt;run_dragen_germline_step</title>
<path fill="none" stroke="black" d="M6773.29,-1934.49C6759.81,-1923.86 6741.36,-1910.94 6723,-1903.21 5861.73,-1540.78 4715.18,-1448.12 4363.24,-1427.51"/>
<polygon fill="black" stroke="black" points="4363.24,-1424.01 4353.06,-1426.93 4362.84,-1431 4363.24,-1424.01"/>
</g>
<!-- hla_allele_frequency_file -->
<g id="node13" class="node">
<title>hla_allele_frequency_file</title>
<polygon fill="#94ddf4" stroke="black" points="6524,-1934.71 6524,-1971.71 6714,-1971.71 6714,-1934.71 6524,-1934.71"/>
<text text-anchor="middle" x="6619" y="-1949.51" font-family="Times,serif" font-size="14.00">hla_allele_frequency_file</text>
</g>
<!-- hla_allele_frequency_file&#45;&gt;run_dragen_germline_step -->
<g id="edge22" class="edge">
<title>hla_allele_frequency_file&#45;&gt;run_dragen_germline_step</title>
<path fill="none" stroke="black" d="M6586.55,-1934.54C6566.43,-1924.19 6539.78,-1911.56 6515,-1903.21 5710.41,-1632.06 4691.35,-1480.39 4363.06,-1436.05"/>
<polygon fill="black" stroke="black" points="4363.45,-1432.58 4353.08,-1434.71 4362.52,-1439.51 4363.45,-1432.58"/>
</g>
<!-- hla_bed_file -->
<g id="node14" class="node">
<title>hla_bed_file</title>
<polygon fill="#94ddf4" stroke="black" points="6406,-1934.71 6406,-1971.71 6506,-1971.71 6506,-1934.71 6406,-1934.71"/>
<text text-anchor="middle" x="6456" y="-1949.51" font-family="Times,serif" font-size="14.00">hla_bed_file</text>
</g>
<!-- hla_bed_file&#45;&gt;run_dragen_germline_step -->
<g id="edge23" class="edge">
<title>hla_bed_file&#45;&gt;run_dragen_germline_step</title>
<path fill="none" stroke="black" d="M6438.98,-1934.32C6427.97,-1923.75 6412.77,-1910.96 6397,-1903.21 5674.96,-1548.14 4687.01,-1451.55 4363.39,-1428.62"/>
<polygon fill="black" stroke="black" points="4363.3,-1425.11 4353.08,-1427.9 4362.81,-1432.09 4363.3,-1425.11"/>
</g>
<!-- hla_min_reads -->
<g id="node15" class="node">
<title>hla_min_reads</title>
<polygon fill="#94ddf4" stroke="black" points="6268.5,-1934.71 6268.5,-1971.71 6387.5,-1971.71 6387.5,-1934.71 6268.5,-1934.71"/>
<text text-anchor="middle" x="6328" y="-1949.51" font-family="Times,serif" font-size="14.00">hla_min_reads</text>
</g>
<!-- hla_min_reads&#45;&gt;run_dragen_germline_step -->
<g id="edge24" class="edge">
<title>hla_min_reads&#45;&gt;run_dragen_germline_step</title>
<path fill="none" stroke="black" d="M6307.54,-1934.51C6294.45,-1924.01 6276.66,-1911.23 6259,-1903.21 5577.33,-1593.39 4670.89,-1468.61 4363.3,-1433.43"/>
<polygon fill="black" stroke="black" points="4363.38,-1429.92 4353.05,-1432.27 4362.59,-1436.88 4363.38,-1429.92"/>
</g>
<!-- hla_reference_file -->
<g id="node16" class="node">
<title>hla_reference_file</title>
<polygon fill="#94ddf4" stroke="black" points="6108,-1934.71 6108,-1971.71 6250,-1971.71 6250,-1934.71 6108,-1934.71"/>
<text text-anchor="middle" x="6179" y="-1949.51" font-family="Times,serif" font-size="14.00">hla_reference_file</text>
</g>
<!-- hla_reference_file&#45;&gt;run_dragen_germline_step -->
<g id="edge25" class="edge">
<title>hla_reference_file&#45;&gt;run_dragen_germline_step</title>
<path fill="none" stroke="black" d="M6154.45,-1934.55C6139.12,-1924.2 6118.63,-1911.57 6099,-1903.21 5469.03,-1635.06 4652.54,-1486.03 4363.3,-1438.83"/>
<polygon fill="black" stroke="black" points="4363.67,-1435.35 4353.24,-1437.2 4362.55,-1442.26 4363.67,-1435.35"/>
</g>
<!-- hla_tiebreaker_threshold -->
<g id="node17" class="node">
<title>hla_tiebreaker_threshold</title>
<polygon fill="#94ddf4" stroke="black" points="5896,-1934.71 5896,-1971.71 6090,-1971.71 6090,-1934.71 5896,-1934.71"/>
<text text-anchor="middle" x="5993" y="-1949.51" font-family="Times,serif" font-size="14.00">hla_tiebreaker_threshold</text>
</g>
<!-- hla_tiebreaker_threshold&#45;&gt;run_dragen_germline_step -->
<g id="edge26" class="edge">
<title>hla_tiebreaker_threshold&#45;&gt;run_dragen_germline_step</title>
<path fill="none" stroke="black" d="M5958.22,-1934.56C5937.79,-1924.6 5911.29,-1912.35 5887,-1903.21 5306.86,-1684.91 4581.2,-1501.14 4338.98,-1442.1"/>
<polygon fill="black" stroke="black" points="4339.73,-1438.68 4329.18,-1439.72 4338.07,-1445.48 4339.73,-1438.68"/>
</g>
<!-- hla_zygosity_threshold -->
<g id="node18" class="node">
<title>hla_zygosity_threshold</title>
<polygon fill="#94ddf4" stroke="black" points="5698.5,-1934.71 5698.5,-1971.71 5877.5,-1971.71 5877.5,-1934.71 5698.5,-1934.71"/>
<text text-anchor="middle" x="5788" y="-1949.51" font-family="Times,serif" font-size="14.00">hla_zygosity_threshold</text>
</g>
<!-- hla_zygosity_threshold&#45;&gt;run_dragen_germline_step -->
<g id="edge27" class="edge">
<title>hla_zygosity_threshold&#45;&gt;run_dragen_germline_step</title>
<path fill="none" stroke="black" d="M5755.42,-1934.48C5736.6,-1924.61 5712.31,-1912.47 5690,-1903.21 5180.34,-1691.54 4541.03,-1503.23 4328.43,-1442.59"/>
<polygon fill="black" stroke="black" points="4329.21,-1439.17 4318.64,-1439.8 4327.29,-1445.9 4329.21,-1439.17"/>
</g>
<!-- lic_instance_id_location -->
<g id="node19" class="node">
<title>lic_instance_id_location</title>
<polygon fill="#94ddf4" stroke="black" points="5497.5,-1934.71 5497.5,-1971.71 5680.5,-1971.71 5680.5,-1934.71 5497.5,-1934.71"/>
<text text-anchor="middle" x="5589" y="-1949.51" font-family="Times,serif" font-size="14.00">lic_instance_id_location</text>
</g>
<!-- lic_instance_id_location&#45;&gt;run_dragen_germline_step -->
<g id="edge28" class="edge">
<title>lic_instance_id_location&#45;&gt;run_dragen_germline_step</title>
<path fill="none" stroke="black" d="M5554.26,-1934.51C5534.93,-1924.87 5510.32,-1912.96 5488,-1903.21 5043.03,-1708.77 4492.46,-1507.33 4314.44,-1443.15"/>
<polygon fill="black" stroke="black" points="4315.59,-1439.84 4304.99,-1439.74 4313.22,-1446.43 4315.59,-1439.84"/>
</g>
<!-- output_directory -->
<g id="node20" class="node">
<title>output_directory</title>
<polygon fill="#94ddf4" stroke="black" points="5343,-1934.71 5343,-1971.71 5479,-1971.71 5479,-1934.71 5343,-1934.71"/>
<text text-anchor="middle" x="5411" y="-1949.51" font-family="Times,serif" font-size="14.00">output_directory</text>
</g>
<!-- output_directory&#45;&gt;run_dragen_germline_step -->
<g id="edge29" class="edge">
<title>output_directory&#45;&gt;run_dragen_germline_step</title>
<path fill="none" stroke="black" d="M5385.55,-1934.68C5370.81,-1924.87 5351.73,-1912.74 5334,-1903.21 4954.96,-1699.47 4472.47,-1506.35 4311.24,-1443.5"/>
<polygon fill="black" stroke="black" points="4312.13,-1440.09 4301.54,-1439.73 4309.59,-1446.61 4312.13,-1440.09"/>
</g>
<!-- qc_coverage_ignore_overlaps -->
<g id="node21" class="node">
<title>qc_coverage_ignore_overlaps</title>
<polygon fill="#94ddf4" stroke="black" points="5101,-1934.71 5101,-1971.71 5325,-1971.71 5325,-1934.71 5101,-1934.71"/>
<text text-anchor="middle" x="5213" y="-1949.51" font-family="Times,serif" font-size="14.00">qc_coverage_ignore_overlaps</text>
</g>
<!-- qc_coverage_ignore_overlaps&#45;&gt;run_dragen_germline_step -->
<g id="edge30" class="edge">
<title>qc_coverage_ignore_overlaps&#45;&gt;run_dragen_germline_step</title>
<path fill="none" stroke="black" d="M5181.16,-1934.58C5038.38,-1855.5 4457.16,-1533.62 4297.02,-1444.93"/>
<polygon fill="black" stroke="black" points="4298.4,-1441.69 4287.96,-1439.91 4295.01,-1447.82 4298.4,-1441.69"/>
</g>
<!-- qc_coverage_region_1 -->
<g id="node22" class="node">
<title>qc_coverage_region_1</title>
<polygon fill="#94ddf4" stroke="black" points="4909.5,-1934.71 4909.5,-1971.71 5082.5,-1971.71 5082.5,-1934.71 4909.5,-1934.71"/>
<text text-anchor="middle" x="4996" y="-1949.51" font-family="Times,serif" font-size="14.00">qc_coverage_region_1</text>
</g>
<!-- qc_coverage_region_1&#45;&gt;run_dragen_germline_step -->
<g id="edge31" class="edge">
<title>qc_coverage_region_1&#45;&gt;run_dragen_germline_step</title>
<path fill="none" stroke="black" d="M4971.38,-1934.58C4861.42,-1855.82 4415.12,-1536.18 4289.22,-1446"/>
<polygon fill="black" stroke="black" points="4290.88,-1442.89 4280.71,-1439.91 4286.81,-1448.58 4290.88,-1442.89"/>
</g>
<!-- qc_coverage_region_2 -->
<g id="node23" class="node">
<title>qc_coverage_region_2</title>
<polygon fill="#94ddf4" stroke="black" points="4718.5,-1934.71 4718.5,-1971.71 4891.5,-1971.71 4891.5,-1934.71 4718.5,-1934.71"/>
<text text-anchor="middle" x="4805" y="-1949.51" font-family="Times,serif" font-size="14.00">qc_coverage_region_2</text>
</g>
<!-- qc_coverage_region_2&#45;&gt;run_dragen_germline_step -->
<g id="edge32" class="edge">
<title>qc_coverage_region_2&#45;&gt;run_dragen_germline_step</title>
<path fill="none" stroke="black" d="M4786.73,-1934.58C4705.48,-1856.13 4376.7,-1538.73 4281.78,-1447.09"/>
<polygon fill="black" stroke="black" points="4283.96,-1444.34 4274.33,-1439.91 4279.1,-1449.37 4283.96,-1444.34"/>
</g>
<!-- qc_coverage_region_3 -->
<g id="node24" class="node">
<title>qc_coverage_region_3</title>
<polygon fill="#94ddf4" stroke="black" points="4527.5,-1934.71 4527.5,-1971.71 4700.5,-1971.71 4700.5,-1934.71 4527.5,-1934.71"/>
<text text-anchor="middle" x="4614" y="-1949.51" font-family="Times,serif" font-size="14.00">qc_coverage_region_3</text>
</g>
<!-- qc_coverage_region_3&#45;&gt;run_dragen_germline_step -->
<g id="edge33" class="edge">
<title>qc_coverage_region_3&#45;&gt;run_dragen_germline_step</title>
<path fill="none" stroke="black" d="M4602.09,-1934.58C4549.32,-1856.45 4336.43,-1541.28 4273.56,-1448.21"/>
<polygon fill="black" stroke="black" points="4276.45,-1446.24 4267.96,-1439.91 4270.65,-1450.16 4276.45,-1446.24"/>
</g>
<!-- reference_tar -->
<g id="node25" class="node">
<title>reference_tar</title>
<polygon fill="#94ddf4" stroke="black" points="4396.5,-1934.71 4396.5,-1971.71 4509.5,-1971.71 4509.5,-1934.71 4396.5,-1934.71"/>
<text text-anchor="middle" x="4453" y="-1949.51" font-family="Times,serif" font-size="14.00">reference_tar</text>
</g>
<!-- reference_tar&#45;&gt;run_dragen_germline_step -->
<g id="edge34" class="edge">
<title>reference_tar&#45;&gt;run_dragen_germline_step</title>
<path fill="none" stroke="black" d="M4446.45,-1934.58C4417.52,-1856.76 4301.2,-1543.81 4266.09,-1449.34"/>
<polygon fill="black" stroke="black" points="4269.34,-1448.06 4262.58,-1439.91 4262.78,-1450.5 4269.34,-1448.06"/>
</g>
<!-- sample_sex -->
<g id="node26" class="node">
<title>sample_sex</title>
<polygon fill="#94ddf4" stroke="black" points="4280,-1934.71 4280,-1971.71 4378,-1971.71 4378,-1934.71 4280,-1934.71"/>
<text text-anchor="middle" x="4329" y="-1949.51" font-family="Times,serif" font-size="14.00">sample_sex</text>
</g>
<!-- sample_sex&#45;&gt;run_dragen_germline_step -->
<g id="edge35" class="edge">
<title>sample_sex&#45;&gt;run_dragen_germline_step</title>
<path fill="none" stroke="black" d="M4326.57,-1934.58C4315.88,-1856.92 4272.92,-1545.08 4259.82,-1449.92"/>
<polygon fill="black" stroke="black" points="4263.27,-1449.34 4258.44,-1439.91 4256.34,-1450.29 4263.27,-1449.34"/>
</g>
<!-- sv_call_regions_bed -->
<g id="node27" class="node">
<title>sv_call_regions_bed</title>
<polygon fill="#94ddf4" stroke="black" points="4104.5,-1934.71 4104.5,-1971.71 4261.5,-1971.71 4261.5,-1934.71 4104.5,-1934.71"/>
<text text-anchor="middle" x="4183" y="-1949.51" font-family="Times,serif" font-size="14.00">sv_call_regions_bed</text>
</g>
<!-- sv_call_regions_bed&#45;&gt;run_dragen_germline_step -->
<g id="edge36" class="edge">
<title>sv_call_regions_bed&#45;&gt;run_dragen_germline_step</title>
<path fill="none" stroke="black" d="M4185.43,-1934.58C4196.12,-1856.92 4239.08,-1545.08 4252.18,-1449.92"/>
<polygon fill="black" stroke="black" points="4255.66,-1450.29 4253.56,-1439.91 4248.73,-1449.34 4255.66,-1450.29"/>
</g>
<!-- sv_discovery -->
<g id="node28" class="node">
<title>sv_discovery</title>
<polygon fill="#94ddf4" stroke="black" points="3979.5,-1934.71 3979.5,-1971.71 4086.5,-1971.71 4086.5,-1934.71 3979.5,-1934.71"/>
<text text-anchor="middle" x="4033" y="-1949.51" font-family="Times,serif" font-size="14.00">sv_discovery</text>
</g>
<!-- sv_discovery&#45;&gt;run_dragen_germline_step -->
<g id="edge37" class="edge">
<title>sv_discovery&#45;&gt;run_dragen_germline_step</title>
<path fill="none" stroke="black" d="M4040.42,-1934.58C4073.16,-1856.76 4204.83,-1543.81 4244.58,-1449.34"/>
<polygon fill="black" stroke="black" points="4247.9,-1450.48 4248.55,-1439.91 4241.45,-1447.77 4247.9,-1450.48"/>
</g>
<!-- sv_enable_liquid_tumor_mode -->
<g id="node29" class="node">
<title>sv_enable_liquid_tumor_mode</title>
<polygon fill="#94ddf4" stroke="black" points="3731,-1934.71 3731,-1971.71 3961,-1971.71 3961,-1934.71 3731,-1934.71"/>
<text text-anchor="middle" x="3846" y="-1949.51" font-family="Times,serif" font-size="14.00">sv_enable_liquid_tumor_mode</text>
</g>
<!-- sv_enable_liquid_tumor_mode&#45;&gt;run_dragen_germline_step -->
<g id="edge38" class="edge">
<title>sv_enable_liquid_tumor_mode&#45;&gt;run_dragen_germline_step</title>
<path fill="none" stroke="black" d="M3859.64,-1934.58C3920.14,-1856.37 4164.38,-1540.64 4236.11,-1447.93"/>
<polygon fill="black" stroke="black" points="4238.96,-1449.96 4242.31,-1439.91 4233.42,-1445.68 4238.96,-1449.96"/>
</g>
<!-- sv_exome -->
<g id="node30" class="node">
<title>sv_exome</title>
<polygon fill="#94ddf4" stroke="black" points="3627,-1934.71 3627,-1971.71 3713,-1971.71 3713,-1934.71 3627,-1934.71"/>
<text text-anchor="middle" x="3670" y="-1949.51" font-family="Times,serif" font-size="14.00">sv_exome</text>
</g>
<!-- sv_exome&#45;&gt;run_dragen_germline_step -->
<g id="edge39" class="edge">
<title>sv_exome&#45;&gt;run_dragen_germline_step</title>
<path fill="none" stroke="black" d="M3688.68,-1934.42C3698.54,-1925.07 3710.87,-1913.46 3722,-1903.21 3914.07,-1726.25 4149.04,-1517.11 4228.36,-1446.71"/>
<polygon fill="black" stroke="black" points="4230.82,-1449.21 4235.97,-1439.96 4226.17,-1443.98 4230.82,-1449.21"/>
</g>
<!-- sv_forcegt_vcf -->
<g id="node31" class="node">
<title>sv_forcegt_vcf</title>
<polygon fill="#94ddf4" stroke="black" points="3491,-1934.71 3491,-1971.71 3609,-1971.71 3609,-1934.71 3491,-1934.71"/>
<text text-anchor="middle" x="3550" y="-1949.51" font-family="Times,serif" font-size="14.00">sv_forcegt_vcf</text>
</g>
<!-- sv_forcegt_vcf&#45;&gt;run_dragen_germline_step -->
<g id="edge40" class="edge">
<title>sv_forcegt_vcf&#45;&gt;run_dragen_germline_step</title>
<path fill="none" stroke="black" d="M3573.49,-1934.58C3678.4,-1855.82 4104.19,-1536.18 4224.31,-1446"/>
<polygon fill="black" stroke="black" points="4226.53,-1448.71 4232.42,-1439.91 4222.32,-1443.11 4226.53,-1448.71"/>
</g>
<!-- sv_output_contigs -->
<g id="node32" class="node">
<title>sv_output_contigs</title>
<polygon fill="#94ddf4" stroke="black" points="3327.5,-1934.71 3327.5,-1971.71 3472.5,-1971.71 3472.5,-1934.71 3327.5,-1934.71"/>
<text text-anchor="middle" x="3400" y="-1949.51" font-family="Times,serif" font-size="14.00">sv_output_contigs</text>
</g>
<!-- sv_output_contigs&#45;&gt;run_dragen_germline_step -->
<g id="edge41" class="edge">
<title>sv_output_contigs&#45;&gt;run_dragen_germline_step</title>
<path fill="none" stroke="black" d="M3428.48,-1934.58C3556.06,-1855.58 4075.03,-1534.26 4218.88,-1445.19"/>
<polygon fill="black" stroke="black" points="4220.75,-1448.15 4227.41,-1439.91 4217.07,-1442.2 4220.75,-1448.15"/>
</g>
<!-- sv_region -->
<g id="node33" class="node">
<title>sv_region</title>
<polygon fill="#94ddf4" stroke="black" points="3224.5,-1934.71 3224.5,-1971.71 3309.5,-1971.71 3309.5,-1934.71 3224.5,-1934.71"/>
<text text-anchor="middle" x="3267" y="-1949.51" font-family="Times,serif" font-size="14.00">sv_region</text>
</g>
<!-- sv_region&#45;&gt;run_dragen_germline_step -->
<g id="edge42" class="edge">
<title>sv_region&#45;&gt;run_dragen_germline_step</title>
<path fill="none" stroke="black" d="M3283.27,-1934.58C3293.03,-1924.62 3306.03,-1912.37 3319,-1903.21 3629.56,-1683.84 4053.79,-1503.5 4202.15,-1443.51"/>
<polygon fill="black" stroke="black" points="4203.56,-1446.72 4211.52,-1439.73 4200.94,-1440.23 4203.56,-1446.72"/>
</g>
<!-- sv_se_overlap_pair_evidence -->
<g id="node34" class="node">
<title>sv_se_overlap_pair_evidence</title>
<polygon fill="#94ddf4" stroke="black" points="2986,-1934.71 2986,-1971.71 3206,-1971.71 3206,-1934.71 2986,-1934.71"/>
<text text-anchor="middle" x="3096" y="-1949.51" font-family="Times,serif" font-size="14.00">sv_se_overlap_pair_evidence</text>
</g>
<!-- sv_se_overlap_pair_evidence&#45;&gt;run_dragen_germline_step -->
<g id="edge43" class="edge">
<title>sv_se_overlap_pair_evidence&#45;&gt;run_dragen_germline_step</title>
<path fill="none" stroke="black" d="M3134.6,-1934.58C3308.27,-1855.22 4017.17,-1531.33 4208.32,-1443.99"/>
<polygon fill="black" stroke="black" points="4209.91,-1447.11 4217.55,-1439.77 4207,-1440.75 4209.91,-1447.11"/>
</g>
<!-- sv_tin_contam_tolerance -->
<g id="node35" class="node">
<title>sv_tin_contam_tolerance</title>
<polygon fill="#94ddf4" stroke="black" points="2776.5,-1934.71 2776.5,-1971.71 2967.5,-1971.71 2967.5,-1934.71 2776.5,-1934.71"/>
<text text-anchor="middle" x="2872" y="-1949.51" font-family="Times,serif" font-size="14.00">sv_tin_contam_tolerance</text>
</g>
<!-- sv_tin_contam_tolerance&#45;&gt;run_dragen_germline_step -->
<g id="edge44" class="edge">
<title>sv_tin_contam_tolerance&#45;&gt;run_dragen_germline_step</title>
<path fill="none" stroke="black" d="M2908.14,-1934.51C2928.24,-1924.87 2953.82,-1912.96 2977,-1903.21 3439.69,-1708.58 4011.26,-1507.09 4195.65,-1443.04"/>
<polygon fill="black" stroke="black" points="4196.88,-1446.32 4205.18,-1439.74 4194.58,-1439.71 4196.88,-1446.32"/>
</g>
<!-- vc_decoy_contigs -->
<g id="node36" class="node">
<title>vc_decoy_contigs</title>
<polygon fill="#94ddf4" stroke="black" points="2619.5,-1934.71 2619.5,-1971.71 2758.5,-1971.71 2758.5,-1934.71 2619.5,-1934.71"/>
<text text-anchor="middle" x="2689" y="-1949.51" font-family="Times,serif" font-size="14.00">vc_decoy_contigs</text>
</g>
<!-- vc_decoy_contigs&#45;&gt;run_dragen_germline_step -->
<g id="edge45" class="edge">
<title>vc_decoy_contigs&#45;&gt;run_dragen_germline_step</title>
<path fill="none" stroke="black" d="M2713.74,-1934.69C2728.89,-1924.53 2748.96,-1912.03 2768,-1903.21 3278.89,-1666.48 3938.61,-1497.62 4170.7,-1442.04"/>
<polygon fill="black" stroke="black" points="4171.52,-1445.44 4180.44,-1439.72 4169.9,-1438.63 4171.52,-1445.44"/>
</g>
<!-- vc_enable_baf -->
<g id="node37" class="node">
<title>vc_enable_baf</title>
<polygon fill="#94ddf4" stroke="black" points="2485,-1934.71 2485,-1971.71 2601,-1971.71 2601,-1934.71 2485,-1934.71"/>
<text text-anchor="middle" x="2543" y="-1949.51" font-family="Times,serif" font-size="14.00">vc_enable_baf</text>
</g>
<!-- vc_enable_baf&#45;&gt;run_dragen_germline_step -->
<g id="edge46" class="edge">
<title>vc_enable_baf&#45;&gt;run_dragen_germline_step</title>
<path fill="none" stroke="black" d="M2563.55,-1934.56C2576.47,-1924.21 2593.87,-1911.58 2611,-1903.21 3157.06,-1636.44 3878.91,-1489.17 4148.45,-1440.53"/>
<polygon fill="black" stroke="black" points="4149.4,-1443.91 4158.62,-1438.7 4148.16,-1437.02 4149.4,-1443.91"/>
</g>
<!-- vc_enable_decoy_contigs -->
<g id="node38" class="node">
<title>vc_enable_decoy_contigs</title>
<polygon fill="#94ddf4" stroke="black" points="2273.5,-1934.71 2273.5,-1971.71 2466.5,-1971.71 2466.5,-1934.71 2273.5,-1934.71"/>
<text text-anchor="middle" x="2370" y="-1949.51" font-family="Times,serif" font-size="14.00">vc_enable_decoy_contigs</text>
</g>
<!-- vc_enable_decoy_contigs&#45;&gt;run_dragen_germline_step -->
<g id="edge47" class="edge">
<title>vc_enable_decoy_contigs&#45;&gt;run_dragen_germline_step</title>
<path fill="none" stroke="black" d="M2404.23,-1934.59C2424.69,-1924.51 2451.42,-1912.14 2476,-1903.21 3104.27,-1674.97 3891.9,-1499.04 4160.91,-1441.95"/>
<polygon fill="black" stroke="black" points="4161.97,-1445.3 4171.03,-1439.8 4160.52,-1438.45 4161.97,-1445.3"/>
</g>
<!-- vc_enable_gatk_acceleration -->
<g id="node39" class="node">
<title>vc_enable_gatk_acceleration</title>
<polygon fill="#94ddf4" stroke="black" points="2037,-1934.71 2037,-1971.71 2255,-1971.71 2255,-1934.71 2037,-1934.71"/>
<text text-anchor="middle" x="2146" y="-1949.51" font-family="Times,serif" font-size="14.00">vc_enable_gatk_acceleration</text>
</g>
<!-- vc_enable_gatk_acceleration&#45;&gt;run_dragen_germline_step -->
<g id="edge48" class="edge">
<title>vc_enable_gatk_acceleration&#45;&gt;run_dragen_germline_step</title>
<path fill="none" stroke="black" d="M2184.29,-1934.68C2207.35,-1924.58 2237.48,-1912.14 2265,-1903.21 2972.33,-1673.64 3852.66,-1498.16 4151.33,-1441.59"/>
<polygon fill="black" stroke="black" points="4152.11,-1445.01 4161.28,-1439.71 4150.8,-1438.13 4152.11,-1445.01"/>
</g>
<!-- vc_enable_phasing -->
<g id="node40" class="node">
<title>vc_enable_phasing</title>
<polygon fill="#94ddf4" stroke="black" points="1869.5,-1934.71 1869.5,-1971.71 2018.5,-1971.71 2018.5,-1934.71 1869.5,-1934.71"/>
<text text-anchor="middle" x="1944" y="-1949.51" font-family="Times,serif" font-size="14.00">vc_enable_phasing</text>
</g>
<!-- vc_enable_phasing&#45;&gt;run_dragen_germline_step -->
<g id="edge49" class="edge">
<title>vc_enable_phasing&#45;&gt;run_dragen_germline_step</title>
<path fill="none" stroke="black" d="M1969.41,-1934.53C1985.54,-1924.05 2007.23,-1911.28 2028,-1903.21 2808.87,-1600.02 3821.73,-1469.36 4149.01,-1433.21"/>
<polygon fill="black" stroke="black" points="4149.4,-1436.68 4158.96,-1432.11 4148.64,-1429.73 4149.4,-1436.68"/>
</g>
<!-- vc_enable_roh -->
<g id="node41" class="node">
<title>vc_enable_roh</title>
<polygon fill="#94ddf4" stroke="black" points="1734.5,-1934.71 1734.5,-1971.71 1851.5,-1971.71 1851.5,-1934.71 1734.5,-1934.71"/>
<text text-anchor="middle" x="1793" y="-1949.51" font-family="Times,serif" font-size="14.00">vc_enable_roh</text>
</g>
<!-- vc_enable_roh&#45;&gt;run_dragen_germline_step -->
<g id="edge50" class="edge">
<title>vc_enable_roh&#45;&gt;run_dragen_germline_step</title>
<path fill="none" stroke="black" d="M1812.72,-1934.5C1825.6,-1923.87 1843.26,-1910.95 1861,-1903.21 2691.26,-1541.07 3803.21,-1448.39 4148.91,-1427.62"/>
<polygon fill="black" stroke="black" points="4149.14,-1431.12 4158.91,-1427.03 4148.72,-1424.13 4149.14,-1431.12"/>
</g>
<!-- vc_enable_vcf_output -->
<g id="node42" class="node">
<title>vc_enable_vcf_output</title>
<polygon fill="#94ddf4" stroke="black" points="1548,-1934.71 1548,-1971.71 1716,-1971.71 1716,-1934.71 1548,-1934.71"/>
<text text-anchor="middle" x="1632" y="-1949.51" font-family="Times,serif" font-size="14.00">vc_enable_vcf_output</text>
</g>
<!-- vc_enable_vcf_output&#45;&gt;run_dragen_germline_step -->
<g id="edge51" class="edge">
<title>vc_enable_vcf_output&#45;&gt;run_dragen_germline_step</title>
<path fill="none" stroke="black" d="M1660.23,-1934.7C1678.41,-1924.15 1702.88,-1911.24 1726,-1903.21 2631.46,-1588.81 3794.61,-1463.67 4148.91,-1431.29"/>
<polygon fill="black" stroke="black" points="4149.26,-1434.77 4158.9,-1430.38 4148.63,-1427.8 4149.26,-1434.77"/>
</g>
<!-- vc_hard_filter -->
<g id="node43" class="node">
<title>vc_hard_filter</title>
<polygon fill="#94ddf4" stroke="black" points="1416.5,-1934.71 1416.5,-1971.71 1529.5,-1971.71 1529.5,-1934.71 1416.5,-1934.71"/>
<text text-anchor="middle" x="1473" y="-1949.51" font-family="Times,serif" font-size="14.00">vc_hard_filter</text>
</g>
<!-- vc_hard_filter&#45;&gt;run_dragen_germline_step -->
<g id="edge52" class="edge">
<title>vc_hard_filter&#45;&gt;run_dragen_germline_step</title>
<path fill="none" stroke="black" d="M1491.72,-1934.59C1504.18,-1923.85 1521.44,-1910.78 1539,-1903.21 2490.45,-1493.15 3773.52,-1432.64 4148.78,-1423.74"/>
<polygon fill="black" stroke="black" points="4148.9,-1427.24 4158.82,-1423.51 4148.74,-1420.24 4148.9,-1427.24"/>
</g>
<!-- vc_max_reads_per_active_region -->
<g id="node44" class="node">
<title>vc_max_reads_per_active_region</title>
<polygon fill="#94ddf4" stroke="black" points="1150,-1934.71 1150,-1971.71 1398,-1971.71 1398,-1934.71 1150,-1934.71"/>
<text text-anchor="middle" x="1274" y="-1949.51" font-family="Times,serif" font-size="14.00">vc_max_reads_per_active_region</text>
</g>
<!-- vc_max_reads_per_active_region&#45;&gt;run_dragen_germline_step -->
<g id="edge53" class="edge">
<title>vc_max_reads_per_active_region&#45;&gt;run_dragen_germline_step</title>
<path fill="none" stroke="black" d="M1315.91,-1934.63C1342.02,-1924.25 1376.51,-1911.55 1408,-1903.21 2457.57,-1625.19 3769.1,-1473.37 4148.6,-1433.16"/>
<polygon fill="black" stroke="black" points="4149.17,-1436.62 4158.75,-1432.09 4148.44,-1429.66 4149.17,-1436.62"/>
</g>
<!-- vc_max_reads_per_raw_region -->
<g id="node45" class="node">
<title>vc_max_reads_per_raw_region</title>
<polygon fill="#94ddf4" stroke="black" points="898.5,-1934.71 898.5,-1971.71 1131.5,-1971.71 1131.5,-1934.71 898.5,-1934.71"/>
<text text-anchor="middle" x="1015" y="-1949.51" font-family="Times,serif" font-size="14.00">vc_max_reads_per_raw_region</text>
</g>
<!-- vc_max_reads_per_raw_region&#45;&gt;run_dragen_germline_step -->
<g id="edge54" class="edge">
<title>vc_max_reads_per_raw_region&#45;&gt;run_dragen_germline_step</title>
<path fill="none" stroke="black" d="M1053.71,-1934.63C1078.26,-1924.11 1110.96,-1911.27 1141,-1903.21 2295.13,-1593.65 3746.82,-1462.22 4148.67,-1430.27"/>
<polygon fill="black" stroke="black" points="4149.14,-1433.74 4158.83,-1429.46 4148.58,-1426.76 4149.14,-1433.74"/>
</g>
<!-- vc_remove_all_soft_clips -->
<g id="node46" class="node">
<title>vc_remove_all_soft_clips</title>
<polygon fill="#94ddf4" stroke="black" points="690,-1934.71 690,-1971.71 880,-1971.71 880,-1934.71 690,-1934.71"/>
<text text-anchor="middle" x="785" y="-1949.51" font-family="Times,serif" font-size="14.00">vc_remove_all_soft_clips</text>
</g>
<!-- vc_remove_all_soft_clips&#45;&gt;run_dragen_germline_step -->
<g id="edge55" class="edge">
<title>vc_remove_all_soft_clips&#45;&gt;run_dragen_germline_step</title>
<path fill="none" stroke="black" d="M816.21,-1934.67C836.61,-1923.96 864.16,-1910.9 890,-1903.21 2134.52,-1532.8 3725.43,-1443.81 4148.66,-1426.1"/>
<polygon fill="black" stroke="black" points="4148.9,-1429.59 4158.74,-1425.68 4148.61,-1422.6 4148.9,-1429.59"/>
</g>
<!-- vc_roh_blacklist_bed -->
<g id="node47" class="node">
<title>vc_roh_blacklist_bed</title>
<polygon fill="#94ddf4" stroke="black" points="508.5,-1934.71 508.5,-1971.71 671.5,-1971.71 671.5,-1934.71 508.5,-1934.71"/>
<text text-anchor="middle" x="590" y="-1949.51" font-family="Times,serif" font-size="14.00">vc_roh_blacklist_bed</text>
</g>
<!-- vc_roh_blacklist_bed&#45;&gt;run_dragen_germline_step -->
<g id="edge56" class="edge">
<title>vc_roh_blacklist_bed&#45;&gt;run_dragen_germline_step</title>
<path fill="none" stroke="black" d="M616.72,-1934.49C634.27,-1923.71 658.13,-1910.63 681,-1903.21 1998.58,-1475.56 3708.27,-1427.83 4148.79,-1422.75"/>
<polygon fill="black" stroke="black" points="4149,-1426.25 4158.96,-1422.64 4148.92,-1419.25 4149,-1426.25"/>
</g>
<!-- vc_target_bed -->
<g id="node48" class="node">
<title>vc_target_bed</title>
<polygon fill="#94ddf4" stroke="black" points="374,-1934.71 374,-1971.71 490,-1971.71 490,-1934.71 374,-1934.71"/>
<text text-anchor="middle" x="432" y="-1949.51" font-family="Times,serif" font-size="14.00">vc_target_bed</text>
</g>
<!-- vc_target_bed&#45;&gt;run_dragen_germline_step -->
<g id="edge57" class="edge">
<title>vc_target_bed&#45;&gt;run_dragen_germline_step</title>
<path fill="none" stroke="black" d="M450.97,-1934.55C463.82,-1923.65 481.73,-1910.42 500,-1903.21 1193.83,-1629.38 3608.89,-1463.06 4148.51,-1428.82"/>
<polygon fill="black" stroke="black" points="4148.86,-1432.3 4158.62,-1428.18 4148.42,-1425.32 4148.86,-1432.3"/>
</g>
<!-- vc_target_bed_padding -->
<g id="node49" class="node">
<title>vc_target_bed_padding</title>
<polygon fill="#94ddf4" stroke="black" points="174.5,-1934.71 174.5,-1971.71 355.5,-1971.71 355.5,-1934.71 174.5,-1934.71"/>
<text text-anchor="middle" x="265" y="-1949.51" font-family="Times,serif" font-size="14.00">vc_target_bed_padding</text>
</g>
<!-- vc_target_bed_padding&#45;&gt;run_dragen_germline_step -->
<g id="edge58" class="edge">
<title>vc_target_bed_padding&#45;&gt;run_dragen_germline_step</title>
<path fill="none" stroke="black" d="M294.14,-1934.71C313.54,-1923.87 339.98,-1910.66 365,-1903.21 1817.24,-1470.94 3685.98,-1426.74 4148.79,-1422.56"/>
<polygon fill="black" stroke="black" points="4148.83,-1426.06 4158.8,-1422.48 4148.77,-1419.06 4148.83,-1426.06"/>
</g>
<!-- vc_target_coverage -->
<g id="node50" class="node">
<title>vc_target_coverage</title>
<polygon fill="#94ddf4" stroke="black" points="8412.5,-1934.71 8412.5,-1971.71 8567.5,-1971.71 8567.5,-1934.71 8412.5,-1934.71"/>
<text text-anchor="middle" x="8490" y="-1949.51" font-family="Times,serif" font-size="14.00">vc_target_coverage</text>
</g>
<!-- vc_target_coverage&#45;&gt;run_dragen_germline_step -->
<g id="edge59" class="edge">
<title>vc_target_coverage&#45;&gt;run_dragen_germline_step</title>
<path fill="none" stroke="black" d="M8464.98,-1934.56C8448.23,-1923.67 8425.26,-1910.44 8403,-1903.21 7616.2,-1647.53 4934.94,-1465.36 4363.62,-1428.91"/>
<polygon fill="black" stroke="black" points="4363.54,-1425.4 4353.34,-1428.26 4363.09,-1432.38 4363.54,-1425.4"/>
</g>
<!-- dragen_bam_out -->
<g id="node51" class="node">
<title>dragen_bam_out</title>
<polygon fill="#94ddf4" stroke="black" points="3866,-381.71 3866,-418.71 4000,-418.71 4000,-381.71 3866,-381.71"/>
<text text-anchor="middle" x="3933" y="-396.51" font-family="Times,serif" font-size="14.00">dragen_bam_out</text>
</g>
<!-- dragen_germline_output_directory -->
<g id="node52" class="node">
<title>dragen_germline_output_directory</title>
<polygon fill="#94ddf4" stroke="black" points="4018.5,-381.71 4018.5,-418.71 4281.5,-418.71 4281.5,-381.71 4018.5,-381.71"/>
<text text-anchor="middle" x="4150" y="-396.51" font-family="Times,serif" font-size="14.00">dragen_germline_output_directory</text>
</g>
<!-- dragen_vcf_out -->
<g id="node53" class="node">
<title>dragen_vcf_out</title>
<polygon fill="#94ddf4" stroke="black" points="4299.5,-381.71 4299.5,-418.71 4424.5,-418.71 4424.5,-381.71 4299.5,-381.71"/>
<text text-anchor="middle" x="4362" y="-396.51" font-family="Times,serif" font-size="14.00">dragen_vcf_out</text>
</g>
<!-- multiqc_output_directory -->
<g id="node54" class="node">
<title>multiqc_output_directory</title>
<polygon fill="#94ddf4" stroke="black" points="3650.5,-381.71 3650.5,-418.71 3847.5,-418.71 3847.5,-381.71 3650.5,-381.71"/>
<text text-anchor="middle" x="3749" y="-396.51" font-family="Times,serif" font-size="14.00">multiqc_output_directory</text>
</g>
<!-- create_dummy_file_step -->
<g id="node55" class="node">
<title>create_dummy_file_step</title>
<polygon fill="lightgoldenrodyellow" stroke="black" points="132.5,-1402.71 132.5,-1439.71 393.5,-1439.71 393.5,-1402.71 132.5,-1402.71"/>
<text text-anchor="middle" x="263" y="-1417.51" font-family="Times,serif" font-size="14.00">custom&#45;create&#45;dummy&#45;file v(1.0.0)</text>
</g>
<!-- create_dummy_file_step&#45;&gt;dragen_qc_step -->
<g id="edge1" class="edge">
<title>create_dummy_file_step&#45;&gt;dragen_qc_step</title>
<path fill="none" stroke="black" d="M256.8,-1402.43C230.44,-1326.76 127.48,-1031.25 95.52,-939.52"/>
<polygon fill="black" stroke="black" points="98.74,-938.14 92.15,-929.85 92.13,-940.44 98.74,-938.14"/>
</g>
<!-- dragen_qc_step&#45;&gt;multiqc_output_directory -->
<g id="edge2" class="edge">
<title>dragen_qc_step&#45;&gt;multiqc_output_directory</title>
<path fill="none" stroke="black" d="M155.9,-900.5C605.52,-838.02 3089.16,-492.9 3640.54,-416.28"/>
<polygon fill="black" stroke="black" points="3641.05,-419.74 3650.48,-414.9 3640.09,-412.81 3641.05,-419.74"/>
</g>
<!-- run_dragen_germline_step&#45;&gt;dragen_bam_out -->
<g id="edge4" class="edge">
<title>run_dragen_germline_step&#45;&gt;dragen_bam_out</title>
<path fill="none" stroke="black" d="M4250.39,-1402.52C4212.07,-1281.61 3988.8,-577.23 3941.71,-428.7"/>
<polygon fill="black" stroke="black" points="3944.99,-427.46 3938.63,-418.98 3938.32,-429.57 3944.99,-427.46"/>
</g>
<!-- run_dragen_germline_step&#45;&gt;dragen_germline_output_directory -->
<g id="edge5" class="edge">
<title>run_dragen_germline_step&#45;&gt;dragen_germline_output_directory</title>
<path fill="none" stroke="black" d="M4254.16,-1402.52C4241.59,-1281.73 4168.46,-578.64 4152.91,-429.15"/>
<polygon fill="black" stroke="black" points="4156.36,-428.57 4151.85,-418.98 4149.4,-429.29 4156.36,-428.57"/>
</g>
<!-- run_dragen_germline_step&#45;&gt;dragen_vcf_out -->
<g id="edge6" class="edge">
<title>run_dragen_germline_step&#45;&gt;dragen_vcf_out</title>
<path fill="none" stroke="black" d="M4257.84,-1402.52C4270.41,-1281.73 4343.54,-578.64 4359.09,-429.15"/>
<polygon fill="black" stroke="black" points="4362.6,-429.29 4360.15,-418.98 4355.64,-428.57 4362.6,-429.29"/>
</g>
<!-- run_dragen_germline_step&#45;&gt;dragen_qc_step -->
<g id="edge3" class="edge">
<title>run_dragen_germline_step&#45;&gt;dragen_qc_step</title>
<path fill="none" stroke="black" d="M4158.81,-1408.37C3588.6,-1338.91 685.14,-985.2 165.62,-921.91"/>
<polygon fill="black" stroke="black" points="165.95,-918.42 155.6,-920.69 165.1,-925.37 165.95,-918.42"/>
</g>
<!-- \n -->
<g id="node58" class="node">
<title>\n</title>
<ellipse fill="none" stroke="black" cx="8613" cy="-1953.21" rx="27" ry="18"/>
</g>
</g>
</svg>
