<?xml version="1.0" encoding="UTF-8" standalone="no"?>
<!DOCTYPE svg PUBLIC "-//W3C//DTD SVG 1.1//EN"
 "http://www.w3.org/Graphics/SVG/1.1/DTD/svg11.dtd">
<!-- Generated by graphviz version 2.43.0 (0)
 -->
<!-- Title: G Pages: 1 -->
<svg width="8813pt" height="2244pt"
 viewBox="0.00 0.00 8812.50 2244.22" xmlns="http://www.w3.org/2000/svg" xmlns:xlink="http://www.w3.org/1999/xlink">
<g id="graph0" class="graph" transform="scale(1 1) rotate(0) translate(4 2240.22)">
<title>G</title>
<polygon fill="#eeeeee" stroke="transparent" points="-4,4 -4,-2240.22 8808.5,-2240.22 8808.5,4 -4,4"/>
<g id="clust1" class="cluster">
<title>cluster_inputs</title>
<polygon fill="#eeeeee" stroke="black" stroke-dasharray="5,2" points="8,-1638.49 8,-2179.96 8575,-2179.96 8575,-1638.49 8,-1638.49"/>
<text text-anchor="middle" x="8508.5" y="-1646.29" font-family="Times,serif" font-size="14.00">Workflow Inputs</text>
</g>
<g id="clust2" class="cluster">
<title>cluster_outputs</title>
<polygon fill="#eeeeee" stroke="black" stroke-dasharray="5,2" points="4344,-56.26 4344,-597.73 5134,-597.73 5134,-56.26 4344,-56.26"/>
<text text-anchor="middle" x="5061.5" y="-64.06" font-family="Times,serif" font-size="14.00">Workflow Outputs</text>
</g>
<!-- output_file_prefix -->
<g id="node1" class="node">
<title>output_file_prefix</title>
<polygon fill="#94ddf4" stroke="black" points="8427,-1971.76 8427,-2008.76 8567,-2008.76 8567,-1971.76 8427,-1971.76"/>
<text text-anchor="middle" x="8497" y="-1986.56" font-family="Times,serif" font-size="14.00">output_file_prefix</text>
</g>
<!-- run_dragen_germline_step -->
<g id="node55" class="node">
<title>run_dragen_germline_step</title>
<polygon fill="lightgoldenrodyellow" stroke="black" points="4452,-1429.76 4452,-1466.76 4646,-1466.76 4646,-1429.76 4452,-1429.76"/>
<text text-anchor="middle" x="4549" y="-1444.56" font-family="Times,serif" font-size="14.00">dragen&#45;germline v(4.0.3)</text>
</g>
<!-- output_file_prefix&#45;&gt;run_dragen_germline_step -->
<g id="edge7" class="edge">
<title>output_file_prefix&#45;&gt;run_dragen_germline_step</title>
<path fill="none" stroke="black" d="M8474.5,-1971.64C8459.38,-1960.77 8438.54,-1947.54 8418,-1940.26 7692.73,-1683.13 5205.3,-1495.53 4656.65,-1456.69"/>
<polygon fill="black" stroke="black" points="4656.59,-1453.18 4646.37,-1455.97 4656.1,-1460.16 4656.59,-1453.18"/>
</g>
<!-- dragen_qc_step -->
<g id="node56" class="node">
<title>dragen_qc_step</title>
<polygon fill="lightgoldenrodyellow" stroke="black" points="8427.5,-909.76 8427.5,-946.76 8566.5,-946.76 8566.5,-909.76 8427.5,-909.76"/>
<text text-anchor="middle" x="8497" y="-924.56" font-family="Times,serif" font-size="14.00">multiqc v(1.14.0)</text>
</g>
<!-- output_file_prefix&#45;&gt;dragen_qc_step -->
<g id="edge8" class="edge">
<title>output_file_prefix&#45;&gt;dragen_qc_step</title>
<path fill="none" stroke="black" d="M8493.2,-1971.74C8480.58,-1848.33 8480.27,-1109.96 8492.29,-956.99"/>
<polygon fill="black" stroke="black" points="8495.78,-957.27 8493.18,-947 8488.81,-956.65 8495.78,-957.27"/>
</g>
<!-- output_file_prefix&#45;&gt;dragen_qc_step -->
<g id="edge9" class="edge">
<title>output_file_prefix&#45;&gt;dragen_qc_step</title>
<path fill="none" stroke="black" d="M8497,-1971.74C8497,-1848.45 8497,-1111.43 8497,-957.45"/>
<polygon fill="black" stroke="black" points="8500.5,-957 8497,-947 8493.5,-957 8500.5,-957"/>
</g>
<!-- output_file_prefix&#45;&gt;dragen_qc_step -->
<g id="edge10" class="edge">
<title>output_file_prefix&#45;&gt;dragen_qc_step</title>
<path fill="none" stroke="black" d="M8500.8,-1971.74C8513.42,-1848.33 8513.73,-1109.96 8501.71,-956.99"/>
<polygon fill="black" stroke="black" points="8505.19,-956.65 8500.82,-947 8498.22,-957.27 8505.19,-956.65"/>
</g>
<!-- bam_input -->
<g id="node2" class="node">
<title>bam_input</title>
<polygon fill="#94ddf4" stroke="black" points="8317,-1971.76 8317,-2008.76 8409,-2008.76 8409,-1971.76 8317,-1971.76"/>
<text text-anchor="middle" x="8363" y="-1986.56" font-family="Times,serif" font-size="14.00">bam_input</text>
</g>
<!-- bam_input&#45;&gt;run_dragen_germline_step -->
<g id="edge11" class="edge">
<title>bam_input&#45;&gt;run_dragen_germline_step</title>
<path fill="none" stroke="black" d="M8348.05,-1971.33C8337.92,-1960.47 8323.58,-1947.38 8308,-1940.26 7628.49,-1629.58 5197.43,-1483.76 4656.28,-1454.76"/>
<polygon fill="black" stroke="black" points="4656.31,-1451.25 4646.14,-1454.21 4655.94,-1458.24 4656.31,-1451.25"/>
</g>
<!-- cnv_enable_self_normalization -->
<g id="node3" class="node">
<title>cnv_enable_self_normalization</title>
<polygon fill="#94ddf4" stroke="black" points="8065.5,-1971.76 8065.5,-2008.76 8298.5,-2008.76 8298.5,-1971.76 8065.5,-1971.76"/>
<text text-anchor="middle" x="8182" y="-1986.56" font-family="Times,serif" font-size="14.00">cnv_enable_self_normalization</text>
</g>
<!-- cnv_enable_self_normalization&#45;&gt;run_dragen_germline_step -->
<g id="edge12" class="edge">
<title>cnv_enable_self_normalization&#45;&gt;run_dragen_germline_step</title>
<path fill="none" stroke="black" d="M8144.2,-1971.75C8119.8,-1961.13 8087.1,-1948.15 8057,-1940.26 6744.49,-1596.26 5088.61,-1480.5 4656.18,-1455.08"/>
<polygon fill="black" stroke="black" points="4656.38,-1451.59 4646.2,-1454.5 4655.98,-1458.58 4656.38,-1451.59"/>
</g>
<!-- dbsnp_annotation -->
<g id="node4" class="node">
<title>dbsnp_annotation</title>
<polygon fill="#94ddf4" stroke="black" points="7904.5,-1971.76 7904.5,-2008.76 8047.5,-2008.76 8047.5,-1971.76 7904.5,-1971.76"/>
<text text-anchor="middle" x="7976" y="-1986.56" font-family="Times,serif" font-size="14.00">dbsnp_annotation</text>
</g>
<!-- dbsnp_annotation&#45;&gt;run_dragen_germline_step -->
<g id="edge13" class="edge">
<title>dbsnp_annotation&#45;&gt;run_dragen_germline_step</title>
<path fill="none" stroke="black" d="M7952.47,-1971.55C7936.95,-1960.78 7915.73,-1947.7 7895,-1940.26 6678.9,-1503.4 5080.73,-1454.78 4656.27,-1449.74"/>
<polygon fill="black" stroke="black" points="4656.2,-1446.24 4646.16,-1449.63 4656.12,-1453.24 4656.2,-1446.24"/>
</g>
<!-- dedup_min_qual -->
<g id="node5" class="node">
<title>dedup_min_qual</title>
<polygon fill="#94ddf4" stroke="black" points="7754,-1971.76 7754,-2008.76 7886,-2008.76 7886,-1971.76 7754,-1971.76"/>
<text text-anchor="middle" x="7820" y="-1986.56" font-family="Times,serif" font-size="14.00">dedup_min_qual</text>
</g>
<!-- dedup_min_qual&#45;&gt;run_dragen_germline_step -->
<g id="edge14" class="edge">
<title>dedup_min_qual&#45;&gt;run_dragen_germline_step</title>
<path fill="none" stroke="black" d="M7798.4,-1971.55C7784.1,-1960.78 7764.46,-1947.71 7745,-1940.26 6595.32,-1500.18 5070.17,-1453.77 4656.39,-1449.5"/>
<polygon fill="black" stroke="black" points="4656.27,-1446 4646.24,-1449.4 4656.2,-1453 4656.27,-1446"/>
</g>
<!-- enable_cnv -->
<g id="node6" class="node">
<title>enable_cnv</title>
<polygon fill="#94ddf4" stroke="black" points="7640.5,-1971.76 7640.5,-2008.76 7735.5,-2008.76 7735.5,-1971.76 7640.5,-1971.76"/>
<text text-anchor="middle" x="7688" y="-1986.56" font-family="Times,serif" font-size="14.00">enable_cnv</text>
</g>
<!-- enable_cnv&#45;&gt;run_dragen_germline_step -->
<g id="edge15" class="edge">
<title>enable_cnv&#45;&gt;run_dragen_germline_step</title>
<path fill="none" stroke="black" d="M7672.65,-1971.48C7662.28,-1960.69 7647.67,-1947.61 7632,-1940.26 7082.61,-1682.7 5135.85,-1500.08 4656.33,-1458.33"/>
<polygon fill="black" stroke="black" points="4656.56,-1454.84 4646.3,-1457.46 4655.96,-1461.81 4656.56,-1454.84"/>
</g>
<!-- enable_duplicate_marking -->
<g id="node7" class="node">
<title>enable_duplicate_marking</title>
<polygon fill="#94ddf4" stroke="black" points="7419.5,-1971.76 7419.5,-2008.76 7622.5,-2008.76 7622.5,-1971.76 7419.5,-1971.76"/>
<text text-anchor="middle" x="7521" y="-1986.56" font-family="Times,serif" font-size="14.00">enable_duplicate_marking</text>
</g>
<!-- enable_duplicate_marking&#45;&gt;run_dragen_germline_step -->
<g id="edge16" class="edge">
<title>enable_duplicate_marking&#45;&gt;run_dragen_germline_step</title>
<path fill="none" stroke="black" d="M7486.84,-1971.55C7465.3,-1961.06 7436.62,-1948.28 7410,-1940.26 6364.05,-1624.9 5038.06,-1491.55 4656.26,-1458.1"/>
<polygon fill="black" stroke="black" points="4656.32,-1454.59 4646.05,-1457.21 4655.71,-1461.56 4656.32,-1454.59"/>
</g>
<!-- enable_hla -->
<g id="node8" class="node">
<title>enable_hla</title>
<polygon fill="#94ddf4" stroke="black" points="7309,-1971.76 7309,-2008.76 7401,-2008.76 7401,-1971.76 7309,-1971.76"/>
<text text-anchor="middle" x="7355" y="-1986.56" font-family="Times,serif" font-size="14.00">enable_hla</text>
</g>
<!-- enable_hla&#45;&gt;run_dragen_germline_step -->
<g id="edge17" class="edge">
<title>enable_hla&#45;&gt;run_dragen_germline_step</title>
<path fill="none" stroke="black" d="M7339.93,-1971.58C7329.76,-1960.82 7315.41,-1947.74 7300,-1940.26 6815.62,-1704.96 5102.63,-1508.53 4656.09,-1460.49"/>
<polygon fill="black" stroke="black" points="4656.41,-1457.01 4646.09,-1459.42 4655.66,-1463.97 4656.41,-1457.01"/>
</g>
<!-- enable_map_align_output -->
<g id="node9" class="node">
<title>enable_map_align_output</title>
<polygon fill="#94ddf4" stroke="black" points="7093.5,-1971.76 7093.5,-2008.76 7290.5,-2008.76 7290.5,-1971.76 7093.5,-1971.76"/>
<text text-anchor="middle" x="7192" y="-1986.56" font-family="Times,serif" font-size="14.00">enable_map_align_output</text>
</g>
<!-- enable_map_align_output&#45;&gt;run_dragen_germline_step -->
<g id="edge18" class="edge">
<title>enable_map_align_output&#45;&gt;run_dragen_germline_step</title>
<path fill="none" stroke="black" d="M7158.76,-1971.72C7137.8,-1961.28 7109.89,-1948.51 7084,-1940.26 6168.92,-1648.52 5009.92,-1501.19 4656.25,-1460.9"/>
<polygon fill="black" stroke="black" points="4656.61,-1457.41 4646.27,-1459.76 4655.82,-1464.37 4656.61,-1457.41"/>
</g>
<!-- enable_sv -->
<g id="node10" class="node">
<title>enable_sv</title>
<polygon fill="#94ddf4" stroke="black" points="6989,-1971.76 6989,-2008.76 7075,-2008.76 7075,-1971.76 6989,-1971.76"/>
<text text-anchor="middle" x="7032" y="-1986.56" font-family="Times,serif" font-size="14.00">enable_sv</text>
</g>
<!-- enable_sv&#45;&gt;run_dragen_germline_step -->
<g id="edge19" class="edge">
<title>enable_sv&#45;&gt;run_dragen_germline_step</title>
<path fill="none" stroke="black" d="M7017.89,-1971.68C7008.32,-1960.96 6994.76,-1947.9 6980,-1940.26 6160.64,-1516.29 5009.9,-1458.06 4656.45,-1450.35"/>
<polygon fill="black" stroke="black" points="4656.3,-1446.84 4646.23,-1450.13 4656.15,-1453.84 4656.3,-1446.84"/>
</g>
<!-- fastq_list -->
<g id="node11" class="node">
<title>fastq_list</title>
<polygon fill="#94ddf4" stroke="black" points="6889,-1971.76 6889,-2008.76 6971,-2008.76 6971,-1971.76 6889,-1971.76"/>
<text text-anchor="middle" x="6930" y="-1986.56" font-family="Times,serif" font-size="14.00">fastq_list</text>
</g>
<!-- fastq_list&#45;&gt;run_dragen_germline_step -->
<g id="edge20" class="edge">
<title>fastq_list&#45;&gt;run_dragen_germline_step</title>
<path fill="none" stroke="black" d="M6916.54,-1971.71C6907.39,-1961.01 6894.36,-1947.94 6880,-1940.26 6101.88,-1523.77 5001.23,-1460.46 4656.5,-1450.92"/>
<polygon fill="black" stroke="black" points="4656.36,-1447.42 4646.27,-1450.65 4656.18,-1454.41 4656.36,-1447.42"/>
</g>
<!-- fastq_list_rows -->
<g id="node12" class="node">
<title>fastq_list_rows</title>
<polygon fill="#94ddf4" stroke="black" points="6747.5,-1971.76 6747.5,-2008.76 6870.5,-2008.76 6870.5,-1971.76 6747.5,-1971.76"/>
<text text-anchor="middle" x="6809" y="-1986.56" font-family="Times,serif" font-size="14.00">fastq_list_rows</text>
</g>
<!-- fastq_list_rows&#45;&gt;run_dragen_germline_step -->
<g id="edge21" class="edge">
<title>fastq_list_rows&#45;&gt;run_dragen_germline_step</title>
<path fill="none" stroke="black" d="M6788.22,-1971.72C6774.7,-1961.15 6756.25,-1948.24 6738,-1940.26 5983.69,-1610.29 4982.52,-1490.47 4656.52,-1458.73"/>
<polygon fill="black" stroke="black" points="4656.43,-1455.2 4646.14,-1457.73 4655.76,-1462.17 4656.43,-1455.2"/>
</g>
<!-- hla_allele_frequency_file -->
<g id="node13" class="node">
<title>hla_allele_frequency_file</title>
<polygon fill="#94ddf4" stroke="black" points="6539,-1971.76 6539,-2008.76 6729,-2008.76 6729,-1971.76 6539,-1971.76"/>
<text text-anchor="middle" x="6634" y="-1986.56" font-family="Times,serif" font-size="14.00">hla_allele_frequency_file</text>
</g>
<!-- hla_allele_frequency_file&#45;&gt;run_dragen_germline_step -->
<g id="edge22" class="edge">
<title>hla_allele_frequency_file&#45;&gt;run_dragen_germline_step</title>
<path fill="none" stroke="black" d="M6600.99,-1971.65C6580.88,-1961.45 6554.45,-1948.95 6530,-1940.26 5833.69,-1692.67 4957.05,-1522.6 4656.1,-1468.08"/>
<polygon fill="black" stroke="black" points="4656.54,-1464.6 4646.07,-1466.27 4655.29,-1471.49 4656.54,-1464.6"/>
</g>
<!-- hla_bed_file -->
<g id="node14" class="node">
<title>hla_bed_file</title>
<polygon fill="#94ddf4" stroke="black" points="6421,-1971.76 6421,-2008.76 6521,-2008.76 6521,-1971.76 6421,-1971.76"/>
<text text-anchor="middle" x="6471" y="-1986.56" font-family="Times,serif" font-size="14.00">hla_bed_file</text>
</g>
<!-- hla_bed_file&#45;&gt;run_dragen_germline_step -->
<g id="edge23" class="edge">
<title>hla_bed_file&#45;&gt;run_dragen_germline_step</title>
<path fill="none" stroke="black" d="M6453.88,-1971.57C6442.82,-1961.08 6427.63,-1948.3 6412,-1940.26 5793.87,-1622.07 4951.39,-1496.9 4656.33,-1461.06"/>
<polygon fill="black" stroke="black" points="4656.42,-1457.55 4646.07,-1459.83 4655.58,-1464.5 4656.42,-1457.55"/>
</g>
<!-- hla_min_reads -->
<g id="node15" class="node">
<title>hla_min_reads</title>
<polygon fill="#94ddf4" stroke="black" points="6283.5,-1971.76 6283.5,-2008.76 6402.5,-2008.76 6402.5,-1971.76 6283.5,-1971.76"/>
<text text-anchor="middle" x="6343" y="-1986.56" font-family="Times,serif" font-size="14.00">hla_min_reads</text>
</g>
<!-- hla_min_reads&#45;&gt;run_dragen_germline_step -->
<g id="edge24" class="edge">
<title>hla_min_reads&#45;&gt;run_dragen_germline_step</title>
<path fill="none" stroke="black" d="M6322.12,-1971.57C6309.01,-1961.22 6291.35,-1948.58 6274,-1940.26 5696.87,-1663.32 4934.21,-1514.53 4656.21,-1466.66"/>
<polygon fill="black" stroke="black" points="4656.57,-1463.17 4646.12,-1464.93 4655.39,-1470.07 4656.57,-1463.17"/>
</g>
<!-- hla_reference_file -->
<g id="node16" class="node">
<title>hla_reference_file</title>
<polygon fill="#94ddf4" stroke="black" points="6123,-1971.76 6123,-2008.76 6265,-2008.76 6265,-1971.76 6123,-1971.76"/>
<text text-anchor="middle" x="6194" y="-1986.56" font-family="Times,serif" font-size="14.00">hla_reference_file</text>
</g>
<!-- hla_reference_file&#45;&gt;run_dragen_germline_step -->
<g id="edge25" class="edge">
<title>hla_reference_file&#45;&gt;run_dragen_germline_step</title>
<path fill="none" stroke="black" d="M6168.94,-1971.7C6153.6,-1961.52 6133.27,-1949.02 6114,-1940.26 5575.81,-1695.52 4881.2,-1524.8 4637.88,-1469.01"/>
<polygon fill="black" stroke="black" points="4638.56,-1465.58 4628.03,-1466.76 4637,-1472.4 4638.56,-1465.58"/>
</g>
<!-- hla_tiebreaker_threshold -->
<g id="node17" class="node">
<title>hla_tiebreaker_threshold</title>
<polygon fill="#94ddf4" stroke="black" points="5911,-1971.76 5911,-2008.76 6105,-2008.76 6105,-1971.76 5911,-1971.76"/>
<text text-anchor="middle" x="6008" y="-1986.56" font-family="Times,serif" font-size="14.00">hla_tiebreaker_threshold</text>
</g>
<!-- hla_tiebreaker_threshold&#45;&gt;run_dragen_germline_step -->
<g id="edge26" class="edge">
<title>hla_tiebreaker_threshold&#45;&gt;run_dragen_germline_step</title>
<path fill="none" stroke="black" d="M5972.03,-1971.71C5951.67,-1962 5925.62,-1949.98 5902,-1940.26 5412.56,-1738.75 4806.78,-1534.56 4612.26,-1470.08"/>
<polygon fill="black" stroke="black" points="4613.08,-1466.66 4602.49,-1466.84 4610.88,-1473.31 4613.08,-1466.66"/>
</g>
<!-- hla_zygosity_threshold -->
<g id="node18" class="node">
<title>hla_zygosity_threshold</title>
<polygon fill="#94ddf4" stroke="black" points="5713.5,-1971.76 5713.5,-2008.76 5892.5,-2008.76 5892.5,-1971.76 5713.5,-1971.76"/>
<text text-anchor="middle" x="5803" y="-1986.56" font-family="Times,serif" font-size="14.00">hla_zygosity_threshold</text>
</g>
<!-- hla_zygosity_threshold&#45;&gt;run_dragen_germline_step -->
<g id="edge27" class="edge">
<title>hla_zygosity_threshold&#45;&gt;run_dragen_germline_step</title>
<path fill="none" stroke="black" d="M5769.24,-1971.73C5750.46,-1962.14 5726.59,-1950.23 5705,-1940.26 5285.28,-1746.42 4767.84,-1536.86 4602.46,-1470.58"/>
<polygon fill="black" stroke="black" points="4603.58,-1467.26 4592.99,-1466.79 4600.98,-1473.76 4603.58,-1467.26"/>
</g>
<!-- lic_instance_id_location -->
<g id="node19" class="node">
<title>lic_instance_id_location</title>
<polygon fill="#94ddf4" stroke="black" points="5512.5,-1971.76 5512.5,-2008.76 5695.5,-2008.76 5695.5,-1971.76 5512.5,-1971.76"/>
<text text-anchor="middle" x="5604" y="-1986.56" font-family="Times,serif" font-size="14.00">lic_instance_id_location</text>
</g>
<!-- lic_instance_id_location&#45;&gt;run_dragen_germline_step -->
<g id="edge28" class="edge">
<title>lic_instance_id_location&#45;&gt;run_dragen_germline_step</title>
<path fill="none" stroke="black" d="M5569.8,-1971.75C5413.41,-1891.71 4766.65,-1560.66 4592.41,-1471.47"/>
<polygon fill="black" stroke="black" points="4593.77,-1468.24 4583.27,-1466.8 4590.58,-1474.47 4593.77,-1468.24"/>
</g>
<!-- output_directory -->
<g id="node20" class="node">
<title>output_directory</title>
<polygon fill="#94ddf4" stroke="black" points="5358,-1971.76 5358,-2008.76 5494,-2008.76 5494,-1971.76 5358,-1971.76"/>
<text text-anchor="middle" x="5426" y="-1986.56" font-family="Times,serif" font-size="14.00">output_directory</text>
</g>
<!-- output_directory&#45;&gt;run_dragen_germline_step -->
<g id="edge29" class="edge">
<title>output_directory&#45;&gt;run_dragen_germline_step</title>
<path fill="none" stroke="black" d="M5398.63,-1971.69C5383.95,-1962.3 5365.53,-1950.59 5349,-1940.26 5057.03,-1757.78 4702.09,-1542.07 4586.98,-1472.27"/>
<polygon fill="black" stroke="black" points="4588.53,-1469.11 4578.16,-1466.92 4584.9,-1475.1 4588.53,-1469.11"/>
</g>
<!-- qc_coverage_ignore_overlaps -->
<g id="node21" class="node">
<title>qc_coverage_ignore_overlaps</title>
<polygon fill="#94ddf4" stroke="black" points="5116,-1971.76 5116,-2008.76 5340,-2008.76 5340,-1971.76 5116,-1971.76"/>
<text text-anchor="middle" x="5228" y="-1986.56" font-family="Times,serif" font-size="14.00">qc_coverage_ignore_overlaps</text>
</g>
<!-- qc_coverage_ignore_overlaps&#45;&gt;run_dragen_germline_step -->
<g id="edge30" class="edge">
<title>qc_coverage_ignore_overlaps&#45;&gt;run_dragen_germline_step</title>
<path fill="none" stroke="black" d="M5205.79,-1971.6C5105.45,-1891.8 4694.3,-1564.81 4579.12,-1473.21"/>
<polygon fill="black" stroke="black" points="4581.04,-1470.27 4571.04,-1466.78 4576.68,-1475.75 4581.04,-1470.27"/>
</g>
<!-- qc_coverage_region_1 -->
<g id="node22" class="node">
<title>qc_coverage_region_1</title>
<polygon fill="#94ddf4" stroke="black" points="4924.5,-1971.76 4924.5,-2008.76 5097.5,-2008.76 5097.5,-1971.76 4924.5,-1971.76"/>
<text text-anchor="middle" x="5011" y="-1986.56" font-family="Times,serif" font-size="14.00">qc_coverage_region_1</text>
</g>
<!-- qc_coverage_region_1&#45;&gt;run_dragen_germline_step -->
<g id="edge31" class="edge">
<title>qc_coverage_region_1&#45;&gt;run_dragen_germline_step</title>
<path fill="none" stroke="black" d="M4995.89,-1971.6C4927.96,-1892.2 4650.66,-1568.08 4570.68,-1474.6"/>
<polygon fill="black" stroke="black" points="4573.15,-1472.11 4563.99,-1466.78 4567.84,-1476.66 4573.15,-1472.11"/>
</g>
<!-- qc_coverage_region_2 -->
<g id="node23" class="node">
<title>qc_coverage_region_2</title>
<polygon fill="#94ddf4" stroke="black" points="4733.5,-1971.76 4733.5,-2008.76 4906.5,-2008.76 4906.5,-1971.76 4733.5,-1971.76"/>
<text text-anchor="middle" x="4820" y="-1986.56" font-family="Times,serif" font-size="14.00">qc_coverage_region_2</text>
</g>
<!-- qc_coverage_region_2&#45;&gt;run_dragen_germline_step -->
<g id="edge32" class="edge">
<title>qc_coverage_region_2&#45;&gt;run_dragen_germline_step</title>
<path fill="none" stroke="black" d="M4811.14,-1971.6C4771.45,-1892.52 4609.94,-1570.68 4562.29,-1475.74"/>
<polygon fill="black" stroke="black" points="4565.41,-1474.15 4557.79,-1466.78 4559.15,-1477.29 4565.41,-1474.15"/>
</g>
<!-- qc_coverage_region_3 -->
<g id="node24" class="node">
<title>qc_coverage_region_3</title>
<polygon fill="#94ddf4" stroke="black" points="4542.5,-1971.76 4542.5,-2008.76 4715.5,-2008.76 4715.5,-1971.76 4542.5,-1971.76"/>
<text text-anchor="middle" x="4629" y="-1986.56" font-family="Times,serif" font-size="14.00">qc_coverage_region_3</text>
</g>
<!-- qc_coverage_region_3&#45;&gt;run_dragen_germline_step -->
<g id="edge33" class="edge">
<title>qc_coverage_region_3&#45;&gt;run_dragen_germline_step</title>
<path fill="none" stroke="black" d="M4626.38,-1971.6C4614.72,-1892.84 4567.37,-1573.28 4553.1,-1476.9"/>
<polygon fill="black" stroke="black" points="4556.52,-1476.16 4551.6,-1466.78 4549.6,-1477.19 4556.52,-1476.16"/>
</g>
<!-- reference_tar -->
<g id="node25" class="node">
<title>reference_tar</title>
<polygon fill="#94ddf4" stroke="black" points="4411.5,-1971.76 4411.5,-2008.76 4524.5,-2008.76 4524.5,-1971.76 4411.5,-1971.76"/>
<text text-anchor="middle" x="4468" y="-1986.56" font-family="Times,serif" font-size="14.00">reference_tar</text>
</g>
<!-- reference_tar&#45;&gt;run_dragen_germline_step -->
<g id="edge34" class="edge">
<title>reference_tar&#45;&gt;run_dragen_germline_step</title>
<path fill="none" stroke="black" d="M4470.65,-1971.6C4482.46,-1892.84 4530.4,-1573.28 4544.85,-1476.9"/>
<polygon fill="black" stroke="black" points="4548.35,-1477.19 4546.37,-1466.78 4541.43,-1476.15 4548.35,-1477.19"/>
</g>
<!-- sample_sex -->
<g id="node26" class="node">
<title>sample_sex</title>
<polygon fill="#94ddf4" stroke="black" points="4295,-1971.76 4295,-2008.76 4393,-2008.76 4393,-1971.76 4295,-1971.76"/>
<text text-anchor="middle" x="4344" y="-1986.56" font-family="Times,serif" font-size="14.00">sample_sex</text>
</g>
<!-- sample_sex&#45;&gt;run_dragen_germline_step -->
<g id="edge35" class="edge">
<title>sample_sex&#45;&gt;run_dragen_germline_step</title>
<path fill="none" stroke="black" d="M4350.7,-1971.6C4380.66,-1892.68 4502.41,-1571.98 4538.73,-1476.32"/>
<polygon fill="black" stroke="black" points="4542.07,-1477.37 4542.35,-1466.78 4535.53,-1474.89 4542.07,-1477.37"/>
</g>
<!-- sv_call_regions_bed -->
<g id="node27" class="node">
<title>sv_call_regions_bed</title>
<polygon fill="#94ddf4" stroke="black" points="4119.5,-1971.76 4119.5,-2008.76 4276.5,-2008.76 4276.5,-1971.76 4119.5,-1971.76"/>
<text text-anchor="middle" x="4198" y="-1986.56" font-family="Times,serif" font-size="14.00">sv_call_regions_bed</text>
</g>
<!-- sv_call_regions_bed&#45;&gt;run_dragen_germline_step -->
<g id="edge36" class="edge">
<title>sv_call_regions_bed&#45;&gt;run_dragen_germline_step</title>
<path fill="none" stroke="black" d="M4209.48,-1971.6C4260.98,-1892.36 4470.92,-1569.38 4532.16,-1475.17"/>
<polygon fill="black" stroke="black" points="4535.09,-1477.07 4537.61,-1466.78 4529.22,-1473.26 4535.09,-1477.07"/>
</g>
<!-- sv_discovery -->
<g id="node28" class="node">
<title>sv_discovery</title>
<polygon fill="#94ddf4" stroke="black" points="3994.5,-1971.76 3994.5,-2008.76 4101.5,-2008.76 4101.5,-1971.76 3994.5,-1971.76"/>
<text text-anchor="middle" x="4048" y="-1986.56" font-family="Times,serif" font-size="14.00">sv_discovery</text>
</g>
<!-- sv_discovery&#45;&gt;run_dragen_germline_step -->
<g id="edge37" class="edge">
<title>sv_discovery&#45;&gt;run_dragen_germline_step</title>
<path fill="none" stroke="black" d="M4064.38,-1971.6C4138.12,-1892.12 4439.36,-1567.43 4525.75,-1474.32"/>
<polygon fill="black" stroke="black" points="4528.51,-1476.49 4532.74,-1466.78 4523.37,-1471.73 4528.51,-1476.49"/>
</g>
<!-- sv_enable_liquid_tumor_mode -->
<g id="node29" class="node">
<title>sv_enable_liquid_tumor_mode</title>
<polygon fill="#94ddf4" stroke="black" points="3746,-1971.76 3746,-2008.76 3976,-2008.76 3976,-1971.76 3746,-1971.76"/>
<text text-anchor="middle" x="3861" y="-1986.56" font-family="Times,serif" font-size="14.00">sv_enable_liquid_tumor_mode</text>
</g>
<!-- sv_enable_liquid_tumor_mode&#45;&gt;run_dragen_germline_step -->
<g id="edge38" class="edge">
<title>sv_enable_liquid_tumor_mode&#45;&gt;run_dragen_germline_step</title>
<path fill="none" stroke="black" d="M3883.5,-1971.6C3985.17,-1891.8 4401.77,-1564.81 4518.48,-1473.21"/>
<polygon fill="black" stroke="black" points="4520.97,-1475.71 4526.67,-1466.78 4516.64,-1470.2 4520.97,-1475.71"/>
</g>
<!-- sv_exome -->
<g id="node30" class="node">
<title>sv_exome</title>
<polygon fill="#94ddf4" stroke="black" points="3642,-1971.76 3642,-2008.76 3728,-2008.76 3728,-1971.76 3642,-1971.76"/>
<text text-anchor="middle" x="3685" y="-1986.56" font-family="Times,serif" font-size="14.00">sv_exome</text>
</g>
<!-- sv_exome&#45;&gt;run_dragen_germline_step -->
<g id="edge39" class="edge">
<title>sv_exome&#45;&gt;run_dragen_germline_step</title>
<path fill="none" stroke="black" d="M3701.98,-1971.5C3711.76,-1961.73 3724.56,-1949.71 3737,-1940.26 4011.49,-1731.68 4379.8,-1536.02 4505.14,-1471.52"/>
<polygon fill="black" stroke="black" points="4506.79,-1474.61 4514.08,-1466.93 4503.59,-1468.38 4506.79,-1474.61"/>
</g>
<!-- sv_forcegt_vcf -->
<g id="node31" class="node">
<title>sv_forcegt_vcf</title>
<polygon fill="#94ddf4" stroke="black" points="3506,-1971.76 3506,-2008.76 3624,-2008.76 3624,-1971.76 3506,-1971.76"/>
<text text-anchor="middle" x="3565" y="-1986.56" font-family="Times,serif" font-size="14.00">sv_forcegt_vcf</text>
</g>
<!-- sv_forcegt_vcf&#45;&gt;run_dragen_germline_step -->
<g id="edge40" class="edge">
<title>sv_forcegt_vcf&#45;&gt;run_dragen_germline_step</title>
<path fill="none" stroke="black" d="M3587.77,-1971.7C3600.73,-1961.99 3617.45,-1949.97 3633,-1940.26 3955.08,-1739.12 4366.64,-1536.87 4502.91,-1471.26"/>
<polygon fill="black" stroke="black" points="4504.74,-1474.26 4512.24,-1466.77 4501.71,-1467.95 4504.74,-1474.26"/>
</g>
<!-- sv_output_contigs -->
<g id="node32" class="node">
<title>sv_output_contigs</title>
<polygon fill="#94ddf4" stroke="black" points="3342.5,-1971.76 3342.5,-2008.76 3487.5,-2008.76 3487.5,-1971.76 3342.5,-1971.76"/>
<text text-anchor="middle" x="3415" y="-1986.56" font-family="Times,serif" font-size="14.00">sv_output_contigs</text>
</g>
<!-- sv_output_contigs&#45;&gt;run_dragen_germline_step -->
<g id="edge41" class="edge">
<title>sv_output_contigs&#45;&gt;run_dragen_germline_step</title>
<path fill="none" stroke="black" d="M3443.05,-1971.53C3458.71,-1961.88 3478.69,-1949.97 3497,-1940.26 3872.85,-1740.92 4344.11,-1536.49 4497.91,-1470.89"/>
<polygon fill="black" stroke="black" points="4499.33,-1474.09 4507.15,-1466.95 4496.58,-1467.65 4499.33,-1474.09"/>
</g>
<!-- sv_region -->
<g id="node33" class="node">
<title>sv_region</title>
<polygon fill="#94ddf4" stroke="black" points="3239.5,-1971.76 3239.5,-2008.76 3324.5,-2008.76 3324.5,-1971.76 3239.5,-1971.76"/>
<text text-anchor="middle" x="3282" y="-1986.56" font-family="Times,serif" font-size="14.00">sv_region</text>
</g>
<!-- sv_region&#45;&gt;run_dragen_germline_step -->
<g id="edge42" class="edge">
<title>sv_region&#45;&gt;run_dragen_germline_step</title>
<path fill="none" stroke="black" d="M3297.52,-1971.65C3307.23,-1961.46 3320.42,-1948.96 3334,-1940.26 3727.94,-1687.82 4273.04,-1524.1 4472.21,-1469.47"/>
<polygon fill="black" stroke="black" points="4473.28,-1472.81 4482,-1466.8 4471.43,-1466.05 4473.28,-1472.81"/>
</g>
<!-- sv_se_overlap_pair_evidence -->
<g id="node34" class="node">
<title>sv_se_overlap_pair_evidence</title>
<polygon fill="#94ddf4" stroke="black" points="3001,-1971.76 3001,-2008.76 3221,-2008.76 3221,-1971.76 3001,-1971.76"/>
<text text-anchor="middle" x="3111" y="-1986.56" font-family="Times,serif" font-size="14.00">sv_se_overlap_pair_evidence</text>
</g>
<!-- sv_se_overlap_pair_evidence&#45;&gt;run_dragen_germline_step -->
<g id="edge43" class="edge">
<title>sv_se_overlap_pair_evidence&#45;&gt;run_dragen_germline_step</title>
<path fill="none" stroke="black" d="M3153.08,-1971.7C3176.04,-1962.22 3205.01,-1950.4 3231,-1940.26 3715.37,-1751.2 4305.85,-1536.94 4490.79,-1470.21"/>
<polygon fill="black" stroke="black" points="4492.1,-1473.46 4500.32,-1466.77 4489.73,-1466.87 4492.1,-1473.46"/>
</g>
<!-- sv_tin_contam_tolerance -->
<g id="node35" class="node">
<title>sv_tin_contam_tolerance</title>
<polygon fill="#94ddf4" stroke="black" points="2791.5,-1971.76 2791.5,-2008.76 2982.5,-2008.76 2982.5,-1971.76 2791.5,-1971.76"/>
<text text-anchor="middle" x="2887" y="-1986.56" font-family="Times,serif" font-size="14.00">sv_tin_contam_tolerance</text>
</g>
<!-- sv_tin_contam_tolerance&#45;&gt;run_dragen_germline_step -->
<g id="edge44" class="edge">
<title>sv_tin_contam_tolerance&#45;&gt;run_dragen_germline_step</title>
<path fill="none" stroke="black" d="M2921.98,-1971.53C2942.16,-1961.65 2968.19,-1949.52 2992,-1940.26 3548.99,-1723.55 4244.78,-1530.71 4472.81,-1469.45"/>
<polygon fill="black" stroke="black" points="4473.92,-1472.78 4482.67,-1466.81 4472.1,-1466.02 4473.92,-1472.78"/>
</g>
<!-- vc_decoy_contigs -->
<g id="node36" class="node">
<title>vc_decoy_contigs</title>
<polygon fill="#94ddf4" stroke="black" points="2634.5,-1971.76 2634.5,-2008.76 2773.5,-2008.76 2773.5,-1971.76 2634.5,-1971.76"/>
<text text-anchor="middle" x="2704" y="-1986.56" font-family="Times,serif" font-size="14.00">vc_decoy_contigs</text>
</g>
<!-- vc_decoy_contigs&#45;&gt;run_dragen_germline_step -->
<g id="edge45" class="edge">
<title>vc_decoy_contigs&#45;&gt;run_dragen_germline_step</title>
<path fill="none" stroke="black" d="M2728.26,-1971.69C2743.4,-1961.38 2763.64,-1948.75 2783,-1940.26 3383.25,-1677.1 4160.71,-1519.57 4441.74,-1468.04"/>
<polygon fill="black" stroke="black" points="4442.72,-1471.42 4451.93,-1466.18 4441.46,-1464.53 4442.72,-1471.42"/>
</g>
<!-- vc_enable_baf -->
<g id="node37" class="node">
<title>vc_enable_baf</title>
<polygon fill="#94ddf4" stroke="black" points="2500,-1971.76 2500,-2008.76 2616,-2008.76 2616,-1971.76 2500,-1971.76"/>
<text text-anchor="middle" x="2558" y="-1986.56" font-family="Times,serif" font-size="14.00">vc_enable_baf</text>
</g>
<!-- vc_enable_baf&#45;&gt;run_dragen_germline_step -->
<g id="edge46" class="edge">
<title>vc_enable_baf&#45;&gt;run_dragen_germline_step</title>
<path fill="none" stroke="black" d="M2578.16,-1971.63C2591.06,-1961.16 2608.6,-1948.39 2626,-1940.26 3276.67,-1636.16 4142.66,-1501.75 4441.94,-1462.31"/>
<polygon fill="black" stroke="black" points="4442.46,-1465.77 4451.92,-1461 4441.55,-1458.83 4442.46,-1465.77"/>
</g>
<!-- vc_enable_decoy_contigs -->
<g id="node38" class="node">
<title>vc_enable_decoy_contigs</title>
<polygon fill="#94ddf4" stroke="black" points="2288.5,-1971.76 2288.5,-2008.76 2481.5,-2008.76 2481.5,-1971.76 2288.5,-1971.76"/>
<text text-anchor="middle" x="2385" y="-1986.56" font-family="Times,serif" font-size="14.00">vc_enable_decoy_contigs</text>
</g>
<!-- vc_enable_decoy_contigs&#45;&gt;run_dragen_germline_step -->
<g id="edge47" class="edge">
<title>vc_enable_decoy_contigs&#45;&gt;run_dragen_germline_step</title>
<path fill="none" stroke="black" d="M2418.66,-1971.6C2439.15,-1961.39 2466.1,-1948.89 2491,-1940.26 3217.88,-1688.35 4132.83,-1519.99 4441.64,-1467.08"/>
<polygon fill="black" stroke="black" points="4442.66,-1470.46 4451.93,-1465.32 4441.48,-1463.56 4442.66,-1470.46"/>
</g>
<!-- vc_enable_gatk_acceleration -->
<g id="node39" class="node">
<title>vc_enable_gatk_acceleration</title>
<polygon fill="#94ddf4" stroke="black" points="2052,-1971.76 2052,-2008.76 2270,-2008.76 2270,-1971.76 2052,-1971.76"/>
<text text-anchor="middle" x="2161" y="-1986.56" font-family="Times,serif" font-size="14.00">vc_enable_gatk_acceleration</text>
</g>
<!-- vc_enable_gatk_acceleration&#45;&gt;run_dragen_germline_step -->
<g id="edge48" class="edge">
<title>vc_enable_gatk_acceleration&#45;&gt;run_dragen_germline_step</title>
<path fill="none" stroke="black" d="M2198.69,-1971.72C2221.78,-1961.49 2252.16,-1948.93 2280,-1940.26 3094.59,-1686.62 4113.43,-1516.72 4441.78,-1465.5"/>
<polygon fill="black" stroke="black" points="4442.42,-1468.95 4451.76,-1463.95 4441.34,-1462.03 4442.42,-1468.95"/>
</g>
<!-- vc_enable_phasing -->
<g id="node40" class="node">
<title>vc_enable_phasing</title>
<polygon fill="#94ddf4" stroke="black" points="1884.5,-1971.76 1884.5,-2008.76 2033.5,-2008.76 2033.5,-1971.76 1884.5,-1971.76"/>
<text text-anchor="middle" x="1959" y="-1986.56" font-family="Times,serif" font-size="14.00">vc_enable_phasing</text>
</g>
<!-- vc_enable_phasing&#45;&gt;run_dragen_germline_step -->
<g id="edge49" class="edge">
<title>vc_enable_phasing&#45;&gt;run_dragen_germline_step</title>
<path fill="none" stroke="black" d="M1983.99,-1971.68C2000.14,-1961.1 2021.99,-1948.18 2043,-1940.26 2931.76,-1604.94 4088.27,-1486.97 4441.75,-1457.42"/>
<polygon fill="black" stroke="black" points="4442.3,-1460.88 4451.98,-1456.57 4441.72,-1453.91 4442.3,-1460.88"/>
</g>
<!-- vc_enable_roh -->
<g id="node41" class="node">
<title>vc_enable_roh</title>
<polygon fill="#94ddf4" stroke="black" points="1749.5,-1971.76 1749.5,-2008.76 1866.5,-2008.76 1866.5,-1971.76 1749.5,-1971.76"/>
<text text-anchor="middle" x="1808" y="-1986.56" font-family="Times,serif" font-size="14.00">vc_enable_roh</text>
</g>
<!-- vc_enable_roh&#45;&gt;run_dragen_germline_step -->
<g id="edge50" class="edge">
<title>vc_enable_roh&#45;&gt;run_dragen_germline_step</title>
<path fill="none" stroke="black" d="M1827.39,-1971.69C1840.27,-1960.97 1858.06,-1947.9 1876,-1940.26 2812.85,-1540.8 4070.21,-1465.9 4441.53,-1452.22"/>
<polygon fill="black" stroke="black" points="4441.86,-1455.71 4451.72,-1451.86 4441.6,-1448.72 4441.86,-1455.71"/>
</g>
<!-- vc_enable_vcf_output -->
<g id="node42" class="node">
<title>vc_enable_vcf_output</title>
<polygon fill="#94ddf4" stroke="black" points="1563,-1971.76 1563,-2008.76 1731,-2008.76 1731,-1971.76 1563,-1971.76"/>
<text text-anchor="middle" x="1647" y="-1986.56" font-family="Times,serif" font-size="14.00">vc_enable_vcf_output</text>
</g>
<!-- vc_enable_vcf_output&#45;&gt;run_dragen_germline_step -->
<g id="edge51" class="edge">
<title>vc_enable_vcf_output&#45;&gt;run_dragen_germline_step</title>
<path fill="none" stroke="black" d="M1675.19,-1971.63C1693.35,-1961.03 1717.82,-1948.11 1741,-1940.26 2755.86,-1596.25 4062.78,-1482.91 4441.69,-1456.14"/>
<polygon fill="black" stroke="black" points="4442.09,-1459.62 4451.82,-1455.43 4441.6,-1452.64 4442.09,-1459.62"/>
</g>
<!-- vc_hard_filter -->
<g id="node43" class="node">
<title>vc_hard_filter</title>
<polygon fill="#94ddf4" stroke="black" points="1431.5,-1971.76 1431.5,-2008.76 1544.5,-2008.76 1544.5,-1971.76 1431.5,-1971.76"/>
<text text-anchor="middle" x="1488" y="-1986.56" font-family="Times,serif" font-size="14.00">vc_hard_filter</text>
</g>
<!-- vc_hard_filter&#45;&gt;run_dragen_germline_step -->
<g id="edge52" class="edge">
<title>vc_hard_filter&#45;&gt;run_dragen_germline_step</title>
<path fill="none" stroke="black" d="M1506.68,-1971.56C1519.13,-1960.79 1536.39,-1947.71 1554,-1940.26 2612.91,-1491.85 4043.06,-1451.14 4441.88,-1448.89"/>
<polygon fill="black" stroke="black" points="4441.98,-1452.39 4451.96,-1448.84 4441.94,-1445.39 4441.98,-1452.39"/>
</g>
<!-- vc_max_reads_per_active_region -->
<g id="node44" class="node">
<title>vc_max_reads_per_active_region</title>
<polygon fill="#94ddf4" stroke="black" points="1165,-1971.76 1165,-2008.76 1413,-2008.76 1413,-1971.76 1165,-1971.76"/>
<text text-anchor="middle" x="1289" y="-1986.56" font-family="Times,serif" font-size="14.00">vc_max_reads_per_active_region</text>
</g>
<!-- vc_max_reads_per_active_region&#45;&gt;run_dragen_germline_step -->
<g id="edge53" class="edge">
<title>vc_max_reads_per_active_region&#45;&gt;run_dragen_germline_step</title>
<path fill="none" stroke="black" d="M1330.58,-1971.67C1356.71,-1961.22 1391.35,-1948.45 1423,-1940.26 2584.39,-1639.77 4038.95,-1494.66 4441.5,-1458.49"/>
<polygon fill="black" stroke="black" points="4442.02,-1461.95 4451.67,-1457.58 4441.4,-1454.98 4442.02,-1461.95"/>
</g>
<!-- vc_max_reads_per_raw_region -->
<g id="node45" class="node">
<title>vc_max_reads_per_raw_region</title>
<polygon fill="#94ddf4" stroke="black" points="913.5,-1971.76 913.5,-2008.76 1146.5,-2008.76 1146.5,-1971.76 913.5,-1971.76"/>
<text text-anchor="middle" x="1030" y="-1986.56" font-family="Times,serif" font-size="14.00">vc_max_reads_per_raw_region</text>
</g>
<!-- vc_max_reads_per_raw_region&#45;&gt;run_dragen_germline_step -->
<g id="edge54" class="edge">
<title>vc_max_reads_per_raw_region&#45;&gt;run_dragen_germline_step</title>
<path fill="none" stroke="black" d="M1068.4,-1971.69C1092.98,-1961.12 1125.81,-1948.2 1156,-1940.26 2422.48,-1607 4018.34,-1483.9 4441.85,-1455.88"/>
<polygon fill="black" stroke="black" points="4442.19,-1459.36 4451.94,-1455.21 4441.73,-1452.38 4442.19,-1459.36"/>
</g>
<!-- vc_remove_all_soft_clips -->
<g id="node46" class="node">
<title>vc_remove_all_soft_clips</title>
<polygon fill="#94ddf4" stroke="black" points="705,-1971.76 705,-2008.76 895,-2008.76 895,-1971.76 705,-1971.76"/>
<text text-anchor="middle" x="800" y="-1986.56" font-family="Times,serif" font-size="14.00">vc_remove_all_soft_clips</text>
</g>
<!-- vc_remove_all_soft_clips&#45;&gt;run_dragen_germline_step -->
<g id="edge55" class="edge">
<title>vc_remove_all_soft_clips&#45;&gt;run_dragen_germline_step</title>
<path fill="none" stroke="black" d="M831.19,-1971.65C851.58,-1960.91 879.13,-1947.84 905,-1940.26 2261.09,-1542.54 3996.86,-1465.51 4441.51,-1451.95"/>
<polygon fill="black" stroke="black" points="4441.88,-1455.44 4451.77,-1451.64 4441.67,-1448.44 4441.88,-1455.44"/>
</g>
<!-- vc_roh_blacklist_bed -->
<g id="node47" class="node">
<title>vc_roh_blacklist_bed</title>
<polygon fill="#94ddf4" stroke="black" points="523.5,-1971.76 523.5,-2008.76 686.5,-2008.76 686.5,-1971.76 523.5,-1971.76"/>
<text text-anchor="middle" x="605" y="-1986.56" font-family="Times,serif" font-size="14.00">vc_roh_blacklist_bed</text>
</g>
<!-- vc_roh_blacklist_bed&#45;&gt;run_dragen_germline_step -->
<g id="edge56" class="edge">
<title>vc_roh_blacklist_bed&#45;&gt;run_dragen_germline_step</title>
<path fill="none" stroke="black" d="M631.31,-1971.72C648.89,-1960.88 672.93,-1947.65 696,-1940.26 2124.66,-1482.07 3980.34,-1449.44 4441.67,-1448.74"/>
<polygon fill="black" stroke="black" points="4441.98,-1452.24 4451.98,-1448.73 4441.98,-1445.24 4441.98,-1452.24"/>
</g>
<!-- vc_target_bed -->
<g id="node48" class="node">
<title>vc_target_bed</title>
<polygon fill="#94ddf4" stroke="black" points="389,-1971.76 389,-2008.76 505,-2008.76 505,-1971.76 389,-1971.76"/>
<text text-anchor="middle" x="447" y="-1986.56" font-family="Times,serif" font-size="14.00">vc_target_bed</text>
</g>
<!-- vc_target_bed&#45;&gt;run_dragen_germline_step -->
<g id="edge57" class="edge">
<title>vc_target_bed&#45;&gt;run_dragen_germline_step</title>
<path fill="none" stroke="black" d="M465.95,-1971.56C478.8,-1960.65 496.7,-1947.41 515,-1940.26 1263.97,-1647.37 3878.1,-1486.75 4441.48,-1455.09"/>
<polygon fill="black" stroke="black" points="4441.84,-1458.58 4451.63,-1454.52 4441.44,-1451.59 4441.84,-1458.58"/>
</g>
<!-- vc_target_bed_padding -->
<g id="node49" class="node">
<title>vc_target_bed_padding</title>
<polygon fill="#94ddf4" stroke="black" points="189.5,-1971.76 189.5,-2008.76 370.5,-2008.76 370.5,-1971.76 189.5,-1971.76"/>
<text text-anchor="middle" x="280" y="-1986.56" font-family="Times,serif" font-size="14.00">vc_target_bed_padding</text>
</g>
<!-- vc_target_bed_padding&#45;&gt;run_dragen_germline_step -->
<g id="edge58" class="edge">
<title>vc_target_bed_padding&#45;&gt;run_dragen_germline_step</title>
<path fill="none" stroke="black" d="M309.12,-1971.71C328.52,-1960.85 354.96,-1947.63 380,-1940.26 1944.43,-1479.49 3959.41,-1449.09 4441.85,-1448.74"/>
<polygon fill="black" stroke="black" points="4441.93,-1452.24 4451.93,-1448.73 4441.93,-1445.24 4441.93,-1452.24"/>
</g>
<!-- vc_target_coverage -->
<g id="node50" class="node">
<title>vc_target_coverage</title>
<polygon fill="#94ddf4" stroke="black" points="16.5,-1971.76 16.5,-2008.76 171.5,-2008.76 171.5,-1971.76 16.5,-1971.76"/>
<text text-anchor="middle" x="94" y="-1986.56" font-family="Times,serif" font-size="14.00">vc_target_coverage</text>
</g>
<!-- vc_target_coverage&#45;&gt;run_dragen_germline_step -->
<g id="edge59" class="edge">
<title>vc_target_coverage&#45;&gt;run_dragen_germline_step</title>
<path fill="none" stroke="black" d="M118.69,-1971.58C135.23,-1960.68 157.94,-1947.44 180,-1940.26 1011.07,-1669.54 3851.92,-1490.23 4441.38,-1455.45"/>
<polygon fill="black" stroke="black" points="4441.79,-1458.93 4451.57,-1454.85 4441.38,-1451.94 4441.79,-1458.93"/>
</g>
<!-- dragen_bam_out -->
<g id="node51" class="node">
<title>dragen_bam_out</title>
<polygon fill="#94ddf4" stroke="black" points="4352,-389.76 4352,-426.76 4486,-426.76 4486,-389.76 4352,-389.76"/>
<text text-anchor="middle" x="4419" y="-404.56" font-family="Times,serif" font-size="14.00">dragen_bam_out</text>
</g>
<!-- dragen_germline_output_directory -->
<g id="node52" class="node">
<title>dragen_germline_output_directory</title>
<polygon fill="#94ddf4" stroke="black" points="4504.5,-389.76 4504.5,-426.76 4767.5,-426.76 4767.5,-389.76 4504.5,-389.76"/>
<text text-anchor="middle" x="4636" y="-404.56" font-family="Times,serif" font-size="14.00">dragen_germline_output_directory</text>
</g>
<!-- dragen_vcf_out -->
<g id="node53" class="node">
<title>dragen_vcf_out</title>
<polygon fill="#94ddf4" stroke="black" points="4785.5,-389.76 4785.5,-426.76 4910.5,-426.76 4910.5,-389.76 4785.5,-389.76"/>
<text text-anchor="middle" x="4848" y="-404.56" font-family="Times,serif" font-size="14.00">dragen_vcf_out</text>
</g>
<!-- multiqc_output_directory -->
<g id="node54" class="node">
<title>multiqc_output_directory</title>
<polygon fill="#94ddf4" stroke="black" points="4928.5,-389.76 4928.5,-426.76 5125.5,-426.76 5125.5,-389.76 4928.5,-389.76"/>
<text text-anchor="middle" x="5027" y="-404.56" font-family="Times,serif" font-size="14.00">multiqc_output_directory</text>
</g>
<!-- run_dragen_germline_step&#45;&gt;dragen_bam_out -->
<g id="edge2" class="edge">
<title>run_dragen_germline_step&#45;&gt;dragen_bam_out</title>
<path fill="none" stroke="black" d="M4546.8,-1429.68C4531.53,-1307.78 4441.49,-588.83 4422.51,-437.29"/>
<polygon fill="black" stroke="black" points="4425.94,-436.48 4421.22,-427 4418.99,-437.35 4425.94,-436.48"/>
</g>
<!-- run_dragen_germline_step&#45;&gt;dragen_germline_output_directory -->
<g id="edge3" class="edge">
<title>run_dragen_germline_step&#45;&gt;dragen_germline_output_directory</title>
<path fill="none" stroke="black" d="M4550.47,-1429.68C4560.69,-1307.78 4620.95,-588.83 4633.65,-437.29"/>
<polygon fill="black" stroke="black" points="4637.17,-437.25 4634.51,-427 4630.19,-436.67 4637.17,-437.25"/>
</g>
<!-- run_dragen_germline_step&#45;&gt;dragen_vcf_out -->
<g id="edge4" class="edge">
<title>run_dragen_germline_step&#45;&gt;dragen_vcf_out</title>
<path fill="none" stroke="black" d="M4554.06,-1429.68C4589.21,-1307.66 4796.69,-587.39 4840.06,-436.84"/>
<polygon fill="black" stroke="black" points="4843.49,-437.57 4842.89,-427 4836.76,-435.64 4843.49,-437.57"/>
</g>
<!-- run_dragen_germline_step&#45;&gt;dragen_qc_step -->
<g id="edge1" class="edge">
<title>run_dragen_germline_step&#45;&gt;dragen_qc_step</title>
<path fill="none" stroke="black" d="M4646.1,-1434.52C5196.29,-1362.33 7915.46,-1005.56 8417.3,-939.71"/>
<polygon fill="black" stroke="black" points="8417.88,-943.17 8427.34,-938.4 8416.97,-936.23 8417.88,-943.17"/>
</g>
<!-- dragen_qc_step&#45;&gt;multiqc_output_directory -->
<g id="edge5" class="edge">
<title>dragen_qc_step&#45;&gt;multiqc_output_directory</title>
<path fill="none" stroke="black" d="M8427.29,-916.85C7993.82,-852.14 5668.29,-504.99 5135.71,-425.49"/>
<polygon fill="black" stroke="black" points="5136.13,-422.01 5125.73,-423.99 5135.1,-428.93 5136.13,-422.01"/>
</g>
<!-- create_dummy_file_step -->
<g id="node57" class="node">
<title>create_dummy_file_step</title>
<polygon fill="lightgoldenrodyellow" stroke="black" points="8543.5,-1429.76 8543.5,-1466.76 8804.5,-1466.76 8804.5,-1429.76 8543.5,-1429.76"/>
<text text-anchor="middle" x="8674" y="-1444.56" font-family="Times,serif" font-size="14.00">custom&#45;create&#45;dummy&#45;file v(1.0.0)</text>
</g>
<!-- create_dummy_file_step&#45;&gt;dragen_qc_step -->
<g id="edge6" class="edge">
<title>create_dummy_file_step&#45;&gt;dragen_qc_step</title>
<path fill="none" stroke="black" d="M8668.01,-1429.73C8641.9,-1353.33 8537.97,-1049.16 8506.24,-956.31"/>
<polygon fill="black" stroke="black" points="8509.53,-955.12 8502.99,-946.78 8502.91,-957.38 8509.53,-955.12"/>
</g>
<!-- \n -->
<g id="node58" class="node">
<title>\n</title>
<ellipse fill="none" stroke="black" cx="8612" cy="-1990.26" rx="27" ry="18"/>
</g>
</g>
</svg>
