<?xml version="1.0" encoding="UTF-8" standalone="no"?>
<!DOCTYPE svg PUBLIC "-//W3C//DTD SVG 1.1//EN"
 "http://www.w3.org/Graphics/SVG/1.1/DTD/svg11.dtd">
<!-- Generated by graphviz version 2.40.1 (20161225.0304)
 -->
<!-- Title: G Pages: 1 -->
<svg width="1821pt" height="940pt"
 viewBox="0.00 0.00 1821.00 939.88" xmlns="http://www.w3.org/2000/svg" xmlns:xlink="http://www.w3.org/1999/xlink">
<g id="graph0" class="graph" transform="scale(1 1) rotate(0) translate(4 935.882)">
<title>G</title>
<polygon fill="#eeeeee" stroke="transparent" points="-4,4 -4,-935.882 1817,-935.882 1817,4 -4,4"/>
<g id="clust1" class="cluster">
<title>cluster_inputs</title>
<polygon fill="#eeeeee" stroke="#000000" stroke-dasharray="5,2" points="504,-682.794 504,-908.4384 1579,-908.4384 1579,-682.794 504,-682.794"/>
<text text-anchor="middle" x="1511" y="-690.594" font-family="Times,serif" font-size="14.00" fill="#000000">Workflow Inputs</text>
</g>
<g id="clust2" class="cluster">
<title>cluster_outputs</title>
<polygon fill="#eeeeee" stroke="#000000" stroke-dasharray="5,2" points="8,-23.4436 8,-249.088 1805,-249.088 1805,-23.4436 8,-23.4436"/>
<text text-anchor="middle" x="1731" y="-31.2436" font-family="Times,serif" font-size="14.00" fill="#000000">Workflow Outputs</text>
</g>
<!-- file:///tmp/tmp_ujb__s0#sample_name -->
<g id="node1" class="node">
<title>file:///tmp/tmp_ujb__s0#sample_name</title>
<g id="a_node1"><a xlink:title="What is the name of the sample?&#10;Used to pre&#45;fill out many other inputs.&#10;">
<polygon fill="#94ddf4" stroke="#000000" points="1173,-810.9436 1173,-847.9436 1287,-847.9436 1287,-810.9436 1173,-810.9436"/>
<text text-anchor="middle" x="1230" y="-825.7436" font-family="Times,serif" font-size="14.00" fill="#000000">sample_name</text>
</a>
</g>
</g>
<!-- file:///tmp/tmp_ujb__s0#dragen_germline_step -->
<g id="node17" class="node">
<title>file:///tmp/tmp_ujb__s0#dragen_germline_step</title>
<g id="a_node17"><a xlink:href="https://github.com/umccr/cwl-ica/blob/main/.github/catalogue/docs/workflows/dragen-germline-pipeline/3.7.5/dragen-germline-pipeline__3.7.5.md" xlink:title="Runs the dragen germline 3.7.5 workflow&#10;">
<polygon fill="#ee7ae9" stroke="#000000" points="725,-584.9436 725,-621.9436 981,-621.9436 981,-584.9436 725,-584.9436"/>
<text text-anchor="middle" x="853" y="-599.7436" font-family="Times,serif" font-size="14.00" fill="#000000">dragen&#45;germline&#45;pipeline v(3.7.5)</text>
</a>
</g>
</g>
<!-- file:///tmp/tmp_ujb__s0#sample_name&#45;&gt;file:///tmp/tmp_ujb__s0#dragen_germline_step -->
<g id="edge16" class="edge">
<title>file:///tmp/tmp_ujb__s0#sample_name&#45;&gt;file:///tmp/tmp_ujb__s0#dragen_germline_step</title>
<path fill="none" stroke="#000000" d="M1199.0286,-810.8456C1185.587,-801.0799 1169.7738,-789.1579 1155,-779.4436 1063.9709,-719.5884 951.4884,-659.0347 892.7226,-626.9049"/>
<polygon fill="#000000" stroke="#000000" points="894.2155,-623.732 883.7637,-621.9968 890.8522,-629.8711 894.2155,-623.732"/>
</g>
<!-- file:///tmp/tmp_ujb__s0#sample_name&#45;&gt;file:///tmp/tmp_ujb__s0#dragen_germline_step -->
<g id="edge17" class="edge">
<title>file:///tmp/tmp_ujb__s0#sample_name&#45;&gt;file:///tmp/tmp_ujb__s0#dragen_germline_step</title>
<path fill="none" stroke="#000000" d="M1215.0321,-810.8456C1203.587,-801.0799 1187.7738,-789.1579 1173,-779.4436 1081.5963,-719.3421 968.5623,-658.5363 904.1179,-626.5097"/>
<polygon fill="#000000" stroke="#000000" points="905.4872,-623.2825 894.9707,-621.9968 902.3901,-629.5601 905.4872,-623.2825"/>
</g>
<!-- file:///tmp/tmp_ujb__s0#somalier_step -->
<g id="node18" class="node">
<title>file:///tmp/tmp_ujb__s0#somalier_step</title>
<g id="a_node18"><a xlink:href="https://github.com/umccr/cwl-ica/blob/main/.github/catalogue/docs/tools/somalier-extract/0.2.13/somalier-extract__0.2.13.md" xlink:title="Runs the somalier extract function to call the fingerprint on the germline bam file&#10;">
<polygon fill="#fafad2" stroke="#000000" points="1390.5,-367.9436 1390.5,-404.9436 1593.5,-404.9436 1593.5,-367.9436 1390.5,-367.9436"/>
<text text-anchor="middle" x="1492" y="-382.7436" font-family="Times,serif" font-size="14.00" fill="#000000">somalier&#45;extract v(0.2.13)</text>
</a>
</g>
</g>
<!-- file:///tmp/tmp_ujb__s0#sample_name&#45;&gt;file:///tmp/tmp_ujb__s0#somalier_step -->
<g id="edge18" class="edge">
<title>file:///tmp/tmp_ujb__s0#sample_name&#45;&gt;file:///tmp/tmp_ujb__s0#somalier_step</title>
<path fill="none" stroke="#000000" d="M1238.1571,-810.6914C1274.5164,-740.9192 1419.1178,-496.1226 1472.3947,-413.7365"/>
<polygon fill="#000000" stroke="#000000" points="1475.5938,-415.2394 1478.1362,-404.9541 1469.7347,-411.409 1475.5938,-415.2394"/>
</g>
<!-- file:///tmp/tmp_ujb__s0#sample_name&#45;&gt;file:///tmp/tmp_ujb__s0#somalier_step -->
<g id="edge19" class="edge">
<title>file:///tmp/tmp_ujb__s0#sample_name&#45;&gt;file:///tmp/tmp_ujb__s0#somalier_step</title>
<path fill="none" stroke="#000000" d="M1244.0238,-810.6914C1290.1005,-741.0607 1434.5614,-497.1149 1479.0519,-414.2398"/>
<polygon fill="#000000" stroke="#000000" points="1482.3823,-415.4295 1483.9687,-404.9541 1476.196,-412.1539 1482.3823,-415.4295"/>
</g>
<!-- file:///tmp/tmp_ujb__s0#optitype_step -->
<g id="node19" class="node">
<title>file:///tmp/tmp_ujb__s0#optitype_step</title>
<g id="a_node19"><a xlink:href="https://github.com/umccr/cwl-ica/blob/main/.github/catalogue/docs/workflows/optitype-pipeline/1.3.5/optitype-pipeline__1.3.5.md" xlink:title="Run the optitype pipeline&#10;">
<polygon fill="#ee7ae9" stroke="#000000" points="429.5,-367.9436 429.5,-404.9436 626.5,-404.9436 626.5,-367.9436 429.5,-367.9436"/>
<text text-anchor="middle" x="528" y="-382.7436" font-family="Times,serif" font-size="14.00" fill="#000000">optitype&#45;pipeline v(1.3.5)</text>
</a>
</g>
</g>
<!-- file:///tmp/tmp_ujb__s0#sample_name&#45;&gt;file:///tmp/tmp_ujb__s0#optitype_step -->
<g id="edge20" class="edge">
<title>file:///tmp/tmp_ujb__s0#sample_name&#45;&gt;file:///tmp/tmp_ujb__s0#optitype_step</title>
<path fill="none" stroke="#000000" d="M1208.8663,-810.7288C1196.4539,-800.4519 1180.085,-788.079 1164,-779.4436 978.111,-679.6464 888.009,-744.62 716,-622.4436 634.7552,-564.7361 570.4407,-462.4696 542.7598,-413.7375"/>
<polygon fill="#000000" stroke="#000000" points="545.8106,-412.0222 537.8695,-405.0087 539.7037,-415.4436 545.8106,-412.0222"/>
</g>
<!-- file:///tmp/tmp_ujb__s0#qc_step -->
<g id="node20" class="node">
<title>file:///tmp/tmp_ujb__s0#qc_step</title>
<g id="a_node20"><a xlink:href="https://github.com/umccr/cwl-ica/blob/main/.github/catalogue/docs/tools/multiqc/1.10.1/multiqc__1.10.1.md" xlink:title="Runs multiqc on the run folder&#10;Uses a dummy file so that the folder can be placed in &#39;stream&#39; mode.&#10;">
<polygon fill="#fafad2" stroke="#000000" points="1232,-367.9436 1232,-404.9436 1372,-404.9436 1372,-367.9436 1232,-367.9436"/>
<text text-anchor="middle" x="1302" y="-382.7436" font-family="Times,serif" font-size="14.00" fill="#000000">multiqc v(1.10.1)</text>
</a>
</g>
</g>
<!-- file:///tmp/tmp_ujb__s0#sample_name&#45;&gt;file:///tmp/tmp_ujb__s0#qc_step -->
<g id="edge21" class="edge">
<title>file:///tmp/tmp_ujb__s0#sample_name&#45;&gt;file:///tmp/tmp_ujb__s0#qc_step</title>
<path fill="none" stroke="#000000" d="M1224.0013,-810.6921C1224.4648,-774.4671 1242.4934,-692.2746 1254,-622.4436 1266.278,-547.9312 1276.321,-459.4682 1287.6165,-414.9925"/>
<polygon fill="#000000" stroke="#000000" points="1291.0398,-415.7467 1290.3591,-405.1738 1284.2978,-413.8635 1291.0398,-415.7467"/>
</g>
<!-- file:///tmp/tmp_ujb__s0#sample_name&#45;&gt;file:///tmp/tmp_ujb__s0#qc_step -->
<g id="edge22" class="edge">
<title>file:///tmp/tmp_ujb__s0#sample_name&#45;&gt;file:///tmp/tmp_ujb__s0#qc_step</title>
<path fill="none" stroke="#000000" d="M1234.2883,-810.6921C1242.4648,-774.4671 1260.4934,-692.2746 1272,-622.4436 1284.2521,-548.0884 1294.2787,-459.8414 1299.0283,-415.2746"/>
<polygon fill="#000000" stroke="#000000" points="1302.5254,-415.4858 1300.0939,-405.1738 1295.564,-414.7514 1302.5254,-415.4858"/>
</g>
<!-- file:///tmp/tmp_ujb__s0#sample_name&#45;&gt;file:///tmp/tmp_ujb__s0#qc_step -->
<g id="edge23" class="edge">
<title>file:///tmp/tmp_ujb__s0#sample_name&#45;&gt;file:///tmp/tmp_ujb__s0#qc_step</title>
<path fill="none" stroke="#000000" d="M1244.5753,-810.6921C1260.4648,-774.4671 1278.4934,-692.2746 1290,-622.4436 1302.2521,-548.0884 1312.2787,-459.8414 1310.5117,-415.2746"/>
<polygon fill="#000000" stroke="#000000" points="1313.9954,-414.9148 1309.8287,-405.1738 1307.0114,-415.3871 1313.9954,-414.9148"/>
</g>
<!-- file:///tmp/tmp_ujb__s0#fastq_list_rows -->
<g id="node2" class="node">
<title>file:///tmp/tmp_ujb__s0#fastq_list_rows</title>
<g id="a_node2"><a xlink:title="The row of fastq lists.&#10; &#160;Each row has the following attributes:&#10; &#160;&#160;&#160;* RGID&#10; &#160;&#160;&#160;* RGLB&#10; &#160;&#160;&#160;* RGSM&#10; &#160;&#160;&#160;* Lane&#10; &#160;&#160;&#160;* Read1File&#10; &#160;&#160;&#160;* Read2File (optional)&#10;">
<polygon fill="#94ddf4" stroke="#000000" points="839.5,-810.9436 839.5,-847.9436 964.5,-847.9436 964.5,-810.9436 839.5,-810.9436"/>
<text text-anchor="middle" x="902" y="-825.7436" font-family="Times,serif" font-size="14.00" fill="#000000">fastq_list_rows</text>
</a>
</g>
</g>
<!-- file:///tmp/tmp_ujb__s0#fastq_list_rows&#45;&gt;file:///tmp/tmp_ujb__s0#dragen_germline_step -->
<g id="edge24" class="edge">
<title>file:///tmp/tmp_ujb__s0#fastq_list_rows&#45;&gt;file:///tmp/tmp_ujb__s0#dragen_germline_step</title>
<path fill="none" stroke="#000000" d="M897.9066,-810.5637C889.3102,-770.9151 869.3362,-678.7903 859.1752,-631.9252"/>
<polygon fill="#000000" stroke="#000000" points="862.5868,-631.1421 857.0473,-622.1108 855.7458,-632.6254 862.5868,-631.1421"/>
</g>
<!-- file:///tmp/tmp_ujb__s0#genome_version -->
<g id="node3" class="node">
<title>file:///tmp/tmp_ujb__s0#genome_version</title>
<g id="a_node3"><a xlink:title="Either hg38 (default) or GRCh37?&#10;Used to set chromosome regions to filter down bam file for optitype workflow&#10;">
<polygon fill="#94ddf4" stroke="#000000" points="512.5,-810.9436 512.5,-847.9436 645.5,-847.9436 645.5,-810.9436 512.5,-810.9436"/>
<text text-anchor="middle" x="579" y="-825.7436" font-family="Times,serif" font-size="14.00" fill="#000000">genome_version</text>
</a>
</g>
</g>
<!-- file:///tmp/tmp_ujb__s0#get_hla_regions_bed_step -->
<g id="node22" class="node">
<title>file:///tmp/tmp_ujb__s0#get_hla_regions_bed_step</title>
<g id="a_node22"><a xlink:href="https://github.com/umccr/cwl-ica/blob/main/.github/catalogue/docs/workflows/get-hla-regions-bed/1.0.0/get-hla-regions-bed__1.0.0.md" xlink:title="Get the hla regions for input into the optitype workflow&#10;">
<polygon fill="#ee7ae9" stroke="#000000" points="417,-584.9436 417,-621.9436 631,-621.9436 631,-584.9436 417,-584.9436"/>
<text text-anchor="middle" x="524" y="-599.7436" font-family="Times,serif" font-size="14.00" fill="#000000">get&#45;hla&#45;regions&#45;bed v(1.0.0)</text>
</a>
</g>
</g>
<!-- file:///tmp/tmp_ujb__s0#genome_version&#45;&gt;file:///tmp/tmp_ujb__s0#get_hla_regions_bed_step -->
<g id="edge25" class="edge">
<title>file:///tmp/tmp_ujb__s0#genome_version&#45;&gt;file:///tmp/tmp_ujb__s0#get_hla_regions_bed_step</title>
<path fill="none" stroke="#000000" d="M574.4053,-810.5637C564.7563,-770.9151 542.3366,-678.7903 530.9314,-631.9252"/>
<polygon fill="#000000" stroke="#000000" points="534.3083,-630.9996 528.5429,-622.1108 527.5069,-632.6549 534.3083,-630.9996"/>
</g>
<!-- file:///tmp/tmp_ujb__s0#reference_tar_dragen -->
<g id="node4" class="node">
<title>file:///tmp/tmp_ujb__s0#reference_tar_dragen</title>
<g id="a_node4"><a xlink:title="Path to ref data tarball&#10;">
<polygon fill="#94ddf4" stroke="#000000" points="983,-810.9436 983,-847.9436 1155,-847.9436 1155,-810.9436 983,-810.9436"/>
<text text-anchor="middle" x="1069" y="-825.7436" font-family="Times,serif" font-size="14.00" fill="#000000">reference_tar_dragen</text>
</a>
</g>
</g>
<!-- file:///tmp/tmp_ujb__s0#reference_tar_dragen&#45;&gt;file:///tmp/tmp_ujb__s0#dragen_germline_step -->
<g id="edge26" class="edge">
<title>file:///tmp/tmp_ujb__s0#reference_tar_dragen&#45;&gt;file:///tmp/tmp_ujb__s0#dragen_germline_step</title>
<path fill="none" stroke="#000000" d="M1050.9555,-810.5637C1012.4244,-770.2488 922.039,-675.6789 878,-629.601"/>
<polygon fill="#000000" stroke="#000000" points="880.2808,-626.9218 870.8413,-622.1108 875.2204,-631.7583 880.2808,-626.9218"/>
</g>
<!-- file:///tmp/tmp_ujb__s0#reference_fasta -->
<g id="node5" class="node">
<title>file:///tmp/tmp_ujb__s0#reference_fasta</title>
<g id="a_node5"><a xlink:title="The reference fasta file with a .fai index.&#10;Required for somalier and optitype steps&#10;">
<polygon fill="#94ddf4" stroke="#000000" points="1305,-810.9436 1305,-847.9436 1433,-847.9436 1433,-810.9436 1305,-810.9436"/>
<text text-anchor="middle" x="1369" y="-825.7436" font-family="Times,serif" font-size="14.00" fill="#000000">reference_fasta</text>
</a>
</g>
</g>
<!-- file:///tmp/tmp_ujb__s0#reference_fasta&#45;&gt;file:///tmp/tmp_ujb__s0#somalier_step -->
<g id="edge27" class="edge">
<title>file:///tmp/tmp_ujb__s0#reference_fasta&#45;&gt;file:///tmp/tmp_ujb__s0#somalier_step</title>
<path fill="none" stroke="#000000" d="M1377.6137,-810.7307C1393.7916,-774.9042 1428.8954,-693.833 1449,-622.4436 1469.6503,-549.1164 1482.7437,-460.0889 1488.5365,-415.2343"/>
<polygon fill="#000000" stroke="#000000" points="1492.0391,-415.4336 1489.8207,-405.0736 1485.0943,-414.5558 1492.0391,-415.4336"/>
</g>
<!-- file:///tmp/tmp_ujb__s0#get_faidx_file_step -->
<g id="node21" class="node">
<title>file:///tmp/tmp_ujb__s0#get_faidx_file_step</title>
<g id="a_node21"><a xlink:href="https://github.com/umccr/cwl-ica/blob/main/.github/catalogue/docs/expressions/get-faidx-file-from-reference-file/1.0.0/get-faidx-file-from-reference-file__1.0.0.md" xlink:title="Get the index of the reference fasta as its own file.&#10;Used by the get&#45;regions&#45;bed workflow&#10;">
<polygon fill="#ee9a00" stroke="#000000" points="189.5,-810.9436 189.5,-847.9436 494.5,-847.9436 494.5,-810.9436 189.5,-810.9436"/>
<text text-anchor="middle" x="342" y="-825.7436" font-family="Times,serif" font-size="14.00" fill="#000000">get&#45;faidx&#45;file&#45;from&#45;reference&#45;file v(1.0.0)</text>
</a>
</g>
</g>
<!-- file:///tmp/tmp_ujb__s0#reference_fasta&#45;&gt;file:///tmp/tmp_ujb__s0#get_faidx_file_step -->
<g id="edge28" class="edge">
<title>file:///tmp/tmp_ujb__s0#reference_fasta&#45;&gt;file:///tmp/tmp_ujb__s0#get_faidx_file_step</title>
<path fill="none" stroke="#000000" d="M1343.101,-848.0723C1327.6347,-858.0319 1307.1347,-869.2819 1287,-874.4436 1203.2633,-895.9101 594.6969,-885.7873 509,-874.4436 474.4842,-869.8747 436.9752,-860.2129 406.2654,-851.009"/>
<polygon fill="#000000" stroke="#000000" points="407.1321,-847.6142 396.546,-848.0439 405.0895,-854.3096 407.1321,-847.6142"/>
</g>
<!-- file:///tmp/tmp_ujb__s0#sites_somalier -->
<g id="node6" class="node">
<title>file:///tmp/tmp_ujb__s0#sites_somalier</title>
<g id="a_node6"><a xlink:title="gzipped vcf file. Required for somalier sites&#10;">
<polygon fill="#94ddf4" stroke="#000000" points="1451.5,-810.9436 1451.5,-847.9436 1570.5,-847.9436 1570.5,-810.9436 1451.5,-810.9436"/>
<text text-anchor="middle" x="1511" y="-825.7436" font-family="Times,serif" font-size="14.00" fill="#000000">sites_somalier</text>
</a>
</g>
</g>
<!-- file:///tmp/tmp_ujb__s0#sites_somalier&#45;&gt;file:///tmp/tmp_ujb__s0#somalier_step -->
<g id="edge29" class="edge">
<title>file:///tmp/tmp_ujb__s0#sites_somalier&#45;&gt;file:///tmp/tmp_ujb__s0#somalier_step</title>
<path fill="none" stroke="#000000" d="M1510.1957,-810.6914C1507.2184,-741.273 1496.8104,-498.6008 1493.2249,-415.0023"/>
<polygon fill="#000000" stroke="#000000" points="1496.7193,-414.7949 1492.7939,-404.9541 1489.7257,-415.095 1496.7193,-414.7949"/>
</g>
<!-- file:///tmp/tmp_ujb__s0#hla_reference_fasta -->
<g id="node7" class="node">
<title>file:///tmp/tmp_ujb__s0#hla_reference_fasta</title>
<g id="a_node7"><a xlink:title="Reference to align / filter large output bam to before running through optitype tool&#10;">
<polygon fill="#94ddf4" stroke="#000000" points="664,-810.9436 664,-847.9436 822,-847.9436 822,-810.9436 664,-810.9436"/>
<text text-anchor="middle" x="743" y="-825.7436" font-family="Times,serif" font-size="14.00" fill="#000000">hla_reference_fasta</text>
</a>
</g>
</g>
<!-- file:///tmp/tmp_ujb__s0#hla_reference_fasta&#45;&gt;file:///tmp/tmp_ujb__s0#optitype_step -->
<g id="edge30" class="edge">
<title>file:///tmp/tmp_ujb__s0#hla_reference_fasta&#45;&gt;file:///tmp/tmp_ujb__s0#optitype_step</title>
<path fill="none" stroke="#000000" d="M735.9733,-810.6727C720.2588,-769.1919 680.4652,-666.8662 640,-584.4436 609.354,-522.0214 567.8804,-451.7988 544.9717,-414.0365"/>
<polygon fill="#000000" stroke="#000000" points="547.7563,-411.8799 539.5653,-405.1598 541.7779,-415.5211 547.7563,-411.8799"/>
</g>
<!-- file:///tmp/tmp_ujb__s0#multiqc_output_file -->
<g id="node8" class="node">
<title>file:///tmp/tmp_ujb__s0#multiqc_output_file</title>
<g id="a_node8"><a xlink:title="Output html for multiqc&#10;">
<polygon fill="#94ddf4" stroke="#000000" points="1417,-151.9436 1417,-188.9436 1573,-188.9436 1573,-151.9436 1417,-151.9436"/>
<text text-anchor="middle" x="1495" y="-166.7436" font-family="Times,serif" font-size="14.00" fill="#000000">multiqc_output_file</text>
</a>
</g>
</g>
<!-- file:///tmp/tmp_ujb__s0#dragen_vcf_output -->
<g id="node9" class="node">
<title>file:///tmp/tmp_ujb__s0#dragen_vcf_output</title>
<g id="a_node9"><a xlink:title="Output vcf file for dragen germline run&#10;">
<polygon fill="#94ddf4" stroke="#000000" points="851.5,-151.9436 851.5,-188.9436 1002.5,-188.9436 1002.5,-151.9436 851.5,-151.9436"/>
<text text-anchor="middle" x="927" y="-166.7436" font-family="Times,serif" font-size="14.00" fill="#000000">dragen_vcf_output</text>
</a>
</g>
</g>
<!-- file:///tmp/tmp_ujb__s0#optitype_result_matrix -->
<g id="node10" class="node">
<title>file:///tmp/tmp_ujb__s0#optitype_result_matrix</title>
<g id="a_node10"><a xlink:title="Output matrix file from optitype step&#10;">
<polygon fill="#94ddf4" stroke="#000000" points="16,-151.9436 16,-188.9436 196,-188.9436 196,-151.9436 16,-151.9436"/>
<text text-anchor="middle" x="106" y="-166.7436" font-family="Times,serif" font-size="14.00" fill="#000000">optitype_result_matrix</text>
</a>
</g>
</g>
<!-- file:///tmp/tmp_ujb__s0#optitype_coverage_plot -->
<g id="node11" class="node">
<title>file:///tmp/tmp_ujb__s0#optitype_coverage_plot</title>
<g id="a_node11"><a xlink:title="Output coverage pdf from optitype step&#10;">
<polygon fill="#94ddf4" stroke="#000000" points="436,-151.9436 436,-188.9436 620,-188.9436 620,-151.9436 436,-151.9436"/>
<text text-anchor="middle" x="528" y="-166.7436" font-family="Times,serif" font-size="14.00" fill="#000000">optitype_coverage_plot</text>
</a>
</g>
</g>
<!-- file:///tmp/tmp_ujb__s0#dragen_bam_output -->
<g id="node12" class="node">
<title>file:///tmp/tmp_ujb__s0#dragen_bam_output</title>
<g id="a_node12"><a xlink:title="Output alignment file for dragen germline run&#10;">
<polygon fill="#94ddf4" stroke="#000000" points="1021,-151.9436 1021,-188.9436 1181,-188.9436 1181,-151.9436 1021,-151.9436"/>
<text text-anchor="middle" x="1101" y="-166.7436" font-family="Times,serif" font-size="14.00" fill="#000000">dragen_bam_output</text>
</a>
</g>
</g>
<!-- file:///tmp/tmp_ujb__s0#multiqc_output_directory -->
<g id="node13" class="node">
<title>file:///tmp/tmp_ujb__s0#multiqc_output_directory</title>
<g id="a_node13"><a xlink:title="Output directory with multiqc data and html&#10;">
<polygon fill="#94ddf4" stroke="#000000" points="1199,-151.9436 1199,-188.9436 1399,-188.9436 1399,-151.9436 1199,-151.9436"/>
<text text-anchor="middle" x="1299" y="-166.7436" font-family="Times,serif" font-size="14.00" fill="#000000">multiqc_output_directory</text>
</a>
</g>
</g>
<!-- file:///tmp/tmp_ujb__s0#optitype_output_directory -->
<g id="node14" class="node">
<title>file:///tmp/tmp_ujb__s0#optitype_output_directory</title>
<g id="a_node14"><a xlink:title="Output directory for optitype files&#10;">
<polygon fill="#94ddf4" stroke="#000000" points="214,-151.9436 214,-188.9436 418,-188.9436 418,-151.9436 214,-151.9436"/>
<text text-anchor="middle" x="316" y="-166.7436" font-family="Times,serif" font-size="14.00" fill="#000000">optitype_output_directory</text>
</a>
</g>
</g>
<!-- file:///tmp/tmp_ujb__s0#somalier_output_directory -->
<g id="node15" class="node">
<title>file:///tmp/tmp_ujb__s0#somalier_output_directory</title>
<g id="a_node15"><a xlink:title="Output directory from somalier step&#10;">
<polygon fill="#94ddf4" stroke="#000000" points="1591,-151.9436 1591,-188.9436 1797,-188.9436 1797,-151.9436 1591,-151.9436"/>
<text text-anchor="middle" x="1694" y="-166.7436" font-family="Times,serif" font-size="14.00" fill="#000000">somalier_output_directory</text>
</a>
</g>
</g>
<!-- file:///tmp/tmp_ujb__s0#dragen_output_directory -->
<g id="node16" class="node">
<title>file:///tmp/tmp_ujb__s0#dragen_output_directory</title>
<g id="a_node16"><a xlink:title="Output directory for dragen&#10;">
<polygon fill="#94ddf4" stroke="#000000" points="638.5,-151.9436 638.5,-188.9436 833.5,-188.9436 833.5,-151.9436 638.5,-151.9436"/>
<text text-anchor="middle" x="736" y="-166.7436" font-family="Times,serif" font-size="14.00" fill="#000000">dragen_output_directory</text>
</a>
</g>
</g>
<!-- file:///tmp/tmp_ujb__s0#dragen_germline_step&#45;&gt;file:///tmp/tmp_ujb__s0#dragen_vcf_output -->
<g id="edge4" class="edge">
<title>file:///tmp/tmp_ujb__s0#dragen_germline_step&#45;&gt;file:///tmp/tmp_ujb__s0#dragen_vcf_output</title>
<path fill="none" stroke="#000000" d="M856.1797,-584.8381C867.8143,-516.76 908.1195,-280.9203 922.1441,-198.8574"/>
<polygon fill="#000000" stroke="#000000" points="925.5975,-199.4264 923.8322,-188.9797 918.6975,-198.2472 925.5975,-199.4264"/>
</g>
<!-- file:///tmp/tmp_ujb__s0#dragen_germline_step&#45;&gt;file:///tmp/tmp_ujb__s0#dragen_bam_output -->
<g id="edge5" class="edge">
<title>file:///tmp/tmp_ujb__s0#dragen_germline_step&#45;&gt;file:///tmp/tmp_ujb__s0#dragen_bam_output</title>
<path fill="none" stroke="#000000" d="M863.6563,-584.8381C902.7671,-516.5518 1038.5517,-279.4763 1085.1547,-198.1089"/>
<polygon fill="#000000" stroke="#000000" points="1088.4505,-199.3968 1090.3835,-188.9797 1082.3763,-195.9177 1088.4505,-199.3968"/>
</g>
<!-- file:///tmp/tmp_ujb__s0#dragen_germline_step&#45;&gt;file:///tmp/tmp_ujb__s0#dragen_output_directory -->
<g id="edge6" class="edge">
<title>file:///tmp/tmp_ujb__s0#dragen_germline_step&#45;&gt;file:///tmp/tmp_ujb__s0#dragen_output_directory</title>
<path fill="none" stroke="#000000" d="M847.9727,-584.8381C829.5774,-516.76 765.8517,-280.9203 743.6776,-198.8574"/>
<polygon fill="#000000" stroke="#000000" points="746.996,-197.7205 741.0086,-188.9797 740.2384,-199.5465 746.996,-197.7205"/>
</g>
<!-- file:///tmp/tmp_ujb__s0#dragen_germline_step&#45;&gt;file:///tmp/tmp_ujb__s0#somalier_step -->
<g id="edge1" class="edge">
<title>file:///tmp/tmp_ujb__s0#dragen_germline_step&#45;&gt;file:///tmp/tmp_ujb__s0#somalier_step</title>
<path fill="none" stroke="#000000" d="M907.4808,-584.9423C1024.9935,-545.0358 1301.8071,-451.0318 1427.6792,-408.2865"/>
<polygon fill="#000000" stroke="#000000" points="1428.8607,-411.5816 1437.2041,-405.0519 1426.6097,-404.9534 1428.8607,-411.5816"/>
</g>
<!-- file:///tmp/tmp_ujb__s0#dragen_germline_step&#45;&gt;file:///tmp/tmp_ujb__s0#optitype_step -->
<g id="edge2" class="edge">
<title>file:///tmp/tmp_ujb__s0#dragen_germline_step&#45;&gt;file:///tmp/tmp_ujb__s0#optitype_step</title>
<path fill="none" stroke="#000000" d="M825.2907,-584.9423C766.6743,-545.8046 630.1281,-454.6337 564.4984,-410.8133"/>
<polygon fill="#000000" stroke="#000000" points="566.3609,-407.8484 556.1008,-405.2063 562.4739,-413.67 566.3609,-407.8484"/>
</g>
<!-- file:///tmp/tmp_ujb__s0#dragen_germline_step&#45;&gt;file:///tmp/tmp_ujb__s0#qc_step -->
<g id="edge3" class="edge">
<title>file:///tmp/tmp_ujb__s0#dragen_germline_step&#45;&gt;file:///tmp/tmp_ujb__s0#qc_step</title>
<path fill="none" stroke="#000000" d="M891.2815,-584.9423C973.1084,-545.3957 1164.8599,-452.7228 1254.3858,-409.4553"/>
<polygon fill="#000000" stroke="#000000" points="1256.0165,-412.5546 1263.4971,-405.0519 1252.9704,-406.2521 1256.0165,-412.5546"/>
</g>
<!-- file:///tmp/tmp_ujb__s0#somalier_step&#45;&gt;file:///tmp/tmp_ujb__s0#somalier_output_directory -->
<g id="edge7" class="edge">
<title>file:///tmp/tmp_ujb__s0#somalier_step&#45;&gt;file:///tmp/tmp_ujb__s0#somalier_output_directory</title>
<path fill="none" stroke="#000000" d="M1509.5728,-367.6528C1545.7024,-329.0193 1628.3849,-240.6063 1669.6465,-196.485"/>
<polygon fill="#000000" stroke="#000000" points="1672.3376,-198.7315 1676.6117,-189.037 1667.2249,-193.9502 1672.3376,-198.7315"/>
</g>
<!-- file:///tmp/tmp_ujb__s0#optitype_step&#45;&gt;file:///tmp/tmp_ujb__s0#optitype_result_matrix -->
<g id="edge10" class="edge">
<title>file:///tmp/tmp_ujb__s0#optitype_step&#45;&gt;file:///tmp/tmp_ujb__s0#optitype_result_matrix</title>
<path fill="none" stroke="#000000" d="M491.6553,-367.8406C414.7673,-328.4856 235.7961,-236.8795 151.4799,-193.7224"/>
<polygon fill="#000000" stroke="#000000" points="152.9034,-190.5192 142.4069,-189.0784 149.7139,-196.7504 152.9034,-190.5192"/>
</g>
<!-- file:///tmp/tmp_ujb__s0#optitype_step&#45;&gt;file:///tmp/tmp_ujb__s0#optitype_coverage_plot -->
<g id="edge11" class="edge">
<title>file:///tmp/tmp_ujb__s0#optitype_step&#45;&gt;file:///tmp/tmp_ujb__s0#optitype_coverage_plot</title>
<path fill="none" stroke="#000000" d="M528,-367.6528C528,-329.8191 528,-244.2459 528,-199.2816"/>
<polygon fill="#000000" stroke="#000000" points="531.5001,-199.037 528,-189.037 524.5001,-199.0371 531.5001,-199.037"/>
</g>
<!-- file:///tmp/tmp_ujb__s0#optitype_step&#45;&gt;file:///tmp/tmp_ujb__s0#optitype_output_directory -->
<g id="edge12" class="edge">
<title>file:///tmp/tmp_ujb__s0#optitype_step&#45;&gt;file:///tmp/tmp_ujb__s0#optitype_output_directory</title>
<path fill="none" stroke="#000000" d="M509.5573,-367.6528C471.5606,-328.9393 384.5039,-240.24 341.2908,-196.2115"/>
<polygon fill="#000000" stroke="#000000" points="343.7518,-193.7223 334.2492,-189.037 338.756,-198.6256 343.7518,-193.7223"/>
</g>
<!-- file:///tmp/tmp_ujb__s0#qc_step&#45;&gt;file:///tmp/tmp_ujb__s0#multiqc_output_file -->
<g id="edge14" class="edge">
<title>file:///tmp/tmp_ujb__s0#qc_step&#45;&gt;file:///tmp/tmp_ujb__s0#multiqc_output_file</title>
<path fill="none" stroke="#000000" d="M1318.7899,-367.6528C1353.2382,-329.0993 1431.9814,-240.9722 1471.4861,-196.7596"/>
<polygon fill="#000000" stroke="#000000" points="1474.3334,-198.826 1478.3864,-189.037 1469.1135,-194.162 1474.3334,-198.826"/>
</g>
<!-- file:///tmp/tmp_ujb__s0#qc_step&#45;&gt;file:///tmp/tmp_ujb__s0#multiqc_output_directory -->
<g id="edge15" class="edge">
<title>file:///tmp/tmp_ujb__s0#qc_step&#45;&gt;file:///tmp/tmp_ujb__s0#multiqc_output_directory</title>
<path fill="none" stroke="#000000" d="M1301.739,-367.6528C1301.2135,-329.8191 1300.025,-244.2459 1299.4005,-199.2816"/>
<polygon fill="#000000" stroke="#000000" points="1302.8969,-198.9874 1299.2582,-189.037 1295.8976,-199.0847 1302.8969,-198.9874"/>
</g>
<!-- file:///tmp/tmp_ujb__s0#get_faidx_file_step&#45;&gt;file:///tmp/tmp_ujb__s0#get_hla_regions_bed_step -->
<g id="edge8" class="edge">
<title>file:///tmp/tmp_ujb__s0#get_faidx_file_step&#45;&gt;file:///tmp/tmp_ujb__s0#get_hla_regions_bed_step</title>
<path fill="none" stroke="#000000" d="M357.2042,-810.5637C389.536,-770.4153 465.1996,-676.4595 502.4732,-630.1747"/>
<polygon fill="#000000" stroke="#000000" points="505.4209,-632.0946 508.9671,-622.1108 499.9689,-627.704 505.4209,-632.0946"/>
</g>
<!-- file:///tmp/tmp_ujb__s0#get_hla_regions_bed_step&#45;&gt;file:///tmp/tmp_ujb__s0#optitype_step -->
<g id="edge9" class="edge">
<title>file:///tmp/tmp_ujb__s0#get_hla_regions_bed_step&#45;&gt;file:///tmp/tmp_ujb__s0#optitype_step</title>
<path fill="none" stroke="#000000" d="M524.341,-584.9423C525.0389,-547.0825 526.6343,-460.5322 527.4689,-415.2539"/>
<polygon fill="#000000" stroke="#000000" points="530.9692,-415.2691 527.6541,-405.2063 523.9703,-415.14 530.9692,-415.2691"/>
</g>
<!-- file:///tmp/tmp_ujb__s0#create_dummy_file_step -->
<g id="node23" class="node">
<title>file:///tmp/tmp_ujb__s0#create_dummy_file_step</title>
<g id="a_node23"><a xlink:href="https://github.com/umccr/cwl-ica/blob/main/.github/catalogue/docs/tools/custom-touch-file/1.0.0/custom-touch-file__1.0.0.md" xlink:title="Intermediate step for letting multiqc&#45;interop be placed in stream mode&#10;">
<polygon fill="#fafad2" stroke="#000000" points="999.5,-584.9436 999.5,-621.9436 1262.5,-621.9436 1262.5,-584.9436 999.5,-584.9436"/>
<text text-anchor="middle" x="1131" y="-599.7436" font-family="Times,serif" font-size="14.00" fill="#000000">custom&#45;create&#45;dummy&#45;file v(1.0.0)</text>
</a>
</g>
</g>
<!-- file:///tmp/tmp_ujb__s0#create_dummy_file_step&#45;&gt;file:///tmp/tmp_ujb__s0#qc_step -->
<g id="edge13" class="edge">
<title>file:///tmp/tmp_ujb__s0#create_dummy_file_step&#45;&gt;file:///tmp/tmp_ujb__s0#qc_step</title>
<path fill="none" stroke="#000000" d="M1145.5794,-584.9423C1175.8541,-546.5234 1245.6396,-457.9653 1280.8562,-413.2752"/>
<polygon fill="#000000" stroke="#000000" points="1283.7743,-415.227 1287.2147,-405.2063 1278.2762,-410.8944 1283.7743,-415.227"/>
</g>
</g>
</svg>
