<?xml version="1.0" encoding="UTF-8" standalone="no"?>
<!DOCTYPE svg PUBLIC "-//W3C//DTD SVG 1.1//EN"
 "http://www.w3.org/Graphics/SVG/1.1/DTD/svg11.dtd">
<!-- Generated by graphviz version 2.40.1 (20161225.0304)
 -->
<!-- Title: G Pages: 1 -->
<svg width="1822pt" height="940pt"
 viewBox="0.00 0.00 1822.00 940.40" xmlns="http://www.w3.org/2000/svg" xmlns:xlink="http://www.w3.org/1999/xlink">
<g id="graph0" class="graph" transform="scale(1 1) rotate(0) translate(4 936.396)">
<title>G</title>
<polygon fill="#eeeeee" stroke="transparent" points="-4,4 -4,-936.396 1818,-936.396 1818,4 -4,4"/>
<g id="clust1" class="cluster">
<title>cluster_inputs</title>
<polygon fill="#eeeeee" stroke="#000000" stroke-dasharray="5,2" points="423,-683.1707 423,-908.9395 1498,-908.9395 1498,-683.1707 423,-683.1707"/>
<text text-anchor="middle" x="1430" y="-690.9707" font-family="Times,serif" font-size="14.00" fill="#000000">Workflow Inputs</text>
</g>
<g id="clust2" class="cluster">
<title>cluster_outputs</title>
<polygon fill="#eeeeee" stroke="#000000" stroke-dasharray="5,2" points="8,-23.4565 8,-249.2253 1806,-249.2253 1806,-23.4565 8,-23.4565"/>
<text text-anchor="middle" x="1732" y="-31.2565" font-family="Times,serif" font-size="14.00" fill="#000000">Workflow Outputs</text>
</g>
<!-- file:///tmp/tmpy8xji_q8#reference_tar_dragen -->
<g id="node1" class="node">
<title>file:///tmp/tmpy8xji_q8#reference_tar_dragen</title>
<g id="a_node1"><a xlink:title="Path to ref data tarball&#10;">
<polygon fill="#94ddf4" stroke="#000000" points="902,-810.9565 902,-847.9565 1074,-847.9565 1074,-810.9565 902,-810.9565"/>
<text text-anchor="middle" x="988" y="-825.7565" font-family="Times,serif" font-size="14.00" fill="#000000">reference_tar_dragen</text>
</a>
</g>
</g>
<!-- file:///tmp/tmpy8xji_q8#dragen_germline_step -->
<g id="node20" class="node">
<title>file:///tmp/tmpy8xji_q8#dragen_germline_step</title>
<g id="a_node20"><a xlink:href="https://github.com/umccr/cwl-ica/blob/beta-release/.github/catalogue/docs/workflows/dragen-germline-pipeline/3.7.5/dragen-germline-pipeline__3.7.5.md" xlink:title="Runs the dragen germline 3.7.5 workflow&#10;">
<polygon fill="#ee7ae9" stroke="#000000" points="847,-585.9565 847,-622.9565 1103,-622.9565 1103,-585.9565 847,-585.9565"/>
<text text-anchor="middle" x="975" y="-600.7565" font-family="Times,serif" font-size="14.00" fill="#000000">dragen&#45;germline&#45;pipeline v(3.7.5)</text>
</a>
</g>
</g>
<!-- file:///tmp/tmpy8xji_q8#reference_tar_dragen&#45;&gt;file:///tmp/tmpy8xji_q8#dragen_germline_step -->
<g id="edge16" class="edge">
<title>file:///tmp/tmpy8xji_q8#reference_tar_dragen&#45;&gt;file:///tmp/tmpy8xji_q8#dragen_germline_step</title>
<path fill="none" stroke="#000000" d="M986.914,-810.6601C984.6381,-771.2699 979.3564,-679.855 976.6553,-633.1067"/>
<polygon fill="#000000" stroke="#000000" points="980.1449,-632.8226 976.0738,-623.0411 973.1565,-633.2264 980.1449,-632.8226"/>
</g>
<!-- file:///tmp/tmpy8xji_q8#sample_name -->
<g id="node2" class="node">
<title>file:///tmp/tmpy8xji_q8#sample_name</title>
<g id="a_node2"><a xlink:title="What is the name of the sample?&#10;Used to pre&#45;fill out many other inputs.&#10;">
<polygon fill="#94ddf4" stroke="#000000" points="1092,-810.9565 1092,-847.9565 1206,-847.9565 1206,-810.9565 1092,-810.9565"/>
<text text-anchor="middle" x="1149" y="-825.7565" font-family="Times,serif" font-size="14.00" fill="#000000">sample_name</text>
</a>
</g>
</g>
<!-- file:///tmp/tmpy8xji_q8#optitype_step -->
<g id="node19" class="node">
<title>file:///tmp/tmpy8xji_q8#optitype_step</title>
<g id="a_node19"><a xlink:href="https://github.com/umccr/cwl-ica/blob/beta-release/.github/catalogue/docs/workflows/optitype-pipeline/1.3.5/optitype-pipeline__1.3.5.md" xlink:title="Run the optitype pipeline&#10;">
<polygon fill="#ee7ae9" stroke="#000000" points="429.5,-368.9565 429.5,-405.9565 626.5,-405.9565 626.5,-368.9565 429.5,-368.9565"/>
<text text-anchor="middle" x="528" y="-383.7565" font-family="Times,serif" font-size="14.00" fill="#000000">optitype&#45;pipeline v(1.3.5)</text>
</a>
</g>
</g>
<!-- file:///tmp/tmpy8xji_q8#sample_name&#45;&gt;file:///tmp/tmpy8xji_q8#optitype_step -->
<g id="edge19" class="edge">
<title>file:///tmp/tmpy8xji_q8#sample_name&#45;&gt;file:///tmp/tmpy8xji_q8#optitype_step</title>
<path fill="none" stroke="#000000" d="M1125.5161,-810.9304C1113.0625,-801.2946 1097.3982,-789.4697 1083,-779.4565 977.0201,-705.7533 943.893,-697.2845 838,-623.4565 733.2374,-550.4166 614.3813,-456.7427 559.2061,-412.6012"/>
<polygon fill="#000000" stroke="#000000" points="561.2153,-409.7261 551.2229,-406.2043 556.8381,-415.1888 561.2153,-409.7261"/>
</g>
<!-- file:///tmp/tmpy8xji_q8#sample_name&#45;&gt;file:///tmp/tmpy8xji_q8#dragen_germline_step -->
<g id="edge17" class="edge">
<title>file:///tmp/tmpy8xji_q8#sample_name&#45;&gt;file:///tmp/tmpy8xji_q8#dragen_germline_step</title>
<path fill="none" stroke="#000000" d="M1130.5182,-810.6601C1096.1534,-770.7724 1023.8441,-677.5373 991.2345,-631.3568"/>
<polygon fill="#000000" stroke="#000000" points="994.0312,-629.2482 985.445,-623.0411 988.2864,-633.2479 994.0312,-629.2482"/>
</g>
<!-- file:///tmp/tmpy8xji_q8#sample_name&#45;&gt;file:///tmp/tmpy8xji_q8#dragen_germline_step -->
<g id="edge18" class="edge">
<title>file:///tmp/tmpy8xji_q8#sample_name&#45;&gt;file:///tmp/tmpy8xji_q8#dragen_germline_step</title>
<path fill="none" stroke="#000000" d="M1138.41,-810.6601C1110.9682,-770.6065 1038.5888,-676.761 999.8888,-630.7832"/>
<polygon fill="#000000" stroke="#000000" points="1002.4461,-628.3877 993.2993,-623.0411 997.1155,-632.9248 1002.4461,-628.3877"/>
</g>
<!-- file:///tmp/tmpy8xji_q8#somalier_step -->
<g id="node21" class="node">
<title>file:///tmp/tmpy8xji_q8#somalier_step</title>
<g id="a_node21"><a xlink:href="https://github.com/umccr/cwl-ica/blob/beta-release/.github/catalogue/docs/tools/somalier-extract/0.2.13/somalier-extract__0.2.13.md" xlink:title="Runs the somalier extract function to call the fingerprint on the germline bam file&#10;">
<polygon fill="#fafad2" stroke="#000000" points="1394.5,-368.9565 1394.5,-405.9565 1597.5,-405.9565 1597.5,-368.9565 1394.5,-368.9565"/>
<text text-anchor="middle" x="1496" y="-383.7565" font-family="Times,serif" font-size="14.00" fill="#000000">somalier&#45;extract v(0.2.13)</text>
</a>
</g>
</g>
<!-- file:///tmp/tmpy8xji_q8#sample_name&#45;&gt;file:///tmp/tmpy8xji_q8#somalier_step -->
<g id="edge20" class="edge">
<title>file:///tmp/tmpy8xji_q8#sample_name&#45;&gt;file:///tmp/tmpy8xji_q8#somalier_step</title>
<path fill="none" stroke="#000000" d="M1164.3988,-810.8446C1175.8621,-801.1854 1191.5298,-789.3653 1206,-779.4565 1314.9958,-704.8189 1387.9167,-734.8029 1459,-623.4565 1500.2973,-558.7675 1496.3637,-463.488 1494.5786,-416.2252"/>
<polygon fill="#000000" stroke="#000000" points="1498.0717,-415.9628 1494.223,-406.0918 1491.076,-416.2084 1498.0717,-415.9628"/>
</g>
<!-- file:///tmp/tmpy8xji_q8#sample_name&#45;&gt;file:///tmp/tmpy8xji_q8#somalier_step -->
<g id="edge21" class="edge">
<title>file:///tmp/tmpy8xji_q8#sample_name&#45;&gt;file:///tmp/tmpy8xji_q8#somalier_step</title>
<path fill="none" stroke="#000000" d="M1180.4506,-810.8446C1193.8621,-801.1854 1209.5298,-789.3653 1224,-779.4565 1332.9958,-704.8189 1405.9167,-734.8029 1477,-623.4565 1518.3843,-558.6313 1514.347,-463.0867 1505.6186,-415.9273"/>
<polygon fill="#000000" stroke="#000000" points="1509.0363,-415.1708 1503.5754,-406.0918 1502.1826,-416.5947 1509.0363,-415.1708"/>
</g>
<!-- file:///tmp/tmpy8xji_q8#qc_step -->
<g id="node22" class="node">
<title>file:///tmp/tmpy8xji_q8#qc_step</title>
<g id="a_node22"><a xlink:href="https://github.com/umccr/cwl-ica/blob/beta-release/.github/catalogue/docs/tools/multiqc/1.10.1/multiqc__1.10.1.md" xlink:title="Runs multiqc on the run folder&#10;Uses a dummy file so that the folder can be placed in &#39;stream&#39; mode.&#10;">
<polygon fill="#fafad2" stroke="#000000" points="1079,-368.9565 1079,-405.9565 1219,-405.9565 1219,-368.9565 1079,-368.9565"/>
<text text-anchor="middle" x="1149" y="-383.7565" font-family="Times,serif" font-size="14.00" fill="#000000">multiqc v(1.10.1)</text>
</a>
</g>
</g>
<!-- file:///tmp/tmpy8xji_q8#sample_name&#45;&gt;file:///tmp/tmpy8xji_q8#qc_step -->
<g id="edge22" class="edge">
<title>file:///tmp/tmpy8xji_q8#sample_name&#45;&gt;file:///tmp/tmpy8xji_q8#qc_step</title>
<path fill="none" stroke="#000000" d="M1143.1334,-810.7466C1133.3942,-741.6424 1132.9745,-500.4602 1141.874,-416.5219"/>
<polygon fill="#000000" stroke="#000000" points="1145.3699,-416.7666 1143.098,-406.4183 1138.4207,-415.9247 1145.3699,-416.7666"/>
</g>
<!-- file:///tmp/tmpy8xji_q8#sample_name&#45;&gt;file:///tmp/tmpy8xji_q8#qc_step -->
<g id="edge23" class="edge">
<title>file:///tmp/tmpy8xji_q8#sample_name&#45;&gt;file:///tmp/tmpy8xji_q8#qc_step</title>
<path fill="none" stroke="#000000" d="M1149,-810.7466C1149,-741.6424 1149,-500.4602 1149,-416.5219"/>
<polygon fill="#000000" stroke="#000000" points="1152.5001,-416.4182 1149,-406.4183 1145.5001,-416.4183 1152.5001,-416.4182"/>
</g>
<!-- file:///tmp/tmpy8xji_q8#sample_name&#45;&gt;file:///tmp/tmpy8xji_q8#qc_step -->
<g id="edge24" class="edge">
<title>file:///tmp/tmpy8xji_q8#sample_name&#45;&gt;file:///tmp/tmpy8xji_q8#qc_step</title>
<path fill="none" stroke="#000000" d="M1154.8666,-810.7466C1164.6058,-741.6424 1165.0255,-500.4602 1156.126,-416.5219"/>
<polygon fill="#000000" stroke="#000000" points="1159.5793,-415.9247 1154.902,-406.4183 1152.6301,-416.7666 1159.5793,-415.9247"/>
</g>
<!-- file:///tmp/tmpy8xji_q8#reference_fasta -->
<g id="node3" class="node">
<title>file:///tmp/tmpy8xji_q8#reference_fasta</title>
<g id="a_node3"><a xlink:title="The reference fasta file with a .fai index.&#10;Required for somalier and optitype steps&#10;">
<polygon fill="#94ddf4" stroke="#000000" points="1224,-810.9565 1224,-847.9565 1352,-847.9565 1352,-810.9565 1224,-810.9565"/>
<text text-anchor="middle" x="1288" y="-825.7565" font-family="Times,serif" font-size="14.00" fill="#000000">reference_fasta</text>
</a>
</g>
</g>
<!-- file:///tmp/tmpy8xji_q8#get_faidx_file_step -->
<g id="node17" class="node">
<title>file:///tmp/tmpy8xji_q8#get_faidx_file_step</title>
<g id="a_node17"><a xlink:href="https://github.com/umccr/cwl-ica/blob/beta-release/.github/catalogue/docs/expressions/get-faidx-file-from-reference-file/1.0.0/get-faidx-file-from-reference-file__1.0.0.md" xlink:title="Get the index of the reference fasta as its own file.&#10;Used by the get&#45;regions&#45;bed workflow&#10;">
<polygon fill="#ee9a00" stroke="#000000" points="108.5,-810.9565 108.5,-847.9565 413.5,-847.9565 413.5,-810.9565 108.5,-810.9565"/>
<text text-anchor="middle" x="261" y="-825.7565" font-family="Times,serif" font-size="14.00" fill="#000000">get&#45;faidx&#45;file&#45;from&#45;reference&#45;file v(1.0.0)</text>
</a>
</g>
</g>
<!-- file:///tmp/tmpy8xji_q8#reference_fasta&#45;&gt;file:///tmp/tmpy8xji_q8#get_faidx_file_step -->
<g id="edge25" class="edge">
<title>file:///tmp/tmpy8xji_q8#reference_fasta&#45;&gt;file:///tmp/tmpy8xji_q8#get_faidx_file_step</title>
<path fill="none" stroke="#000000" d="M1262.101,-848.0852C1246.6347,-858.0448 1226.1347,-869.2948 1206,-874.4565 1122.2633,-895.923 513.6969,-885.8002 428,-874.4565 393.4842,-869.8877 355.9752,-860.2259 325.2654,-851.0219"/>
<polygon fill="#000000" stroke="#000000" points="326.1321,-847.6272 315.546,-848.0568 324.0895,-854.3225 326.1321,-847.6272"/>
</g>
<!-- file:///tmp/tmpy8xji_q8#reference_fasta&#45;&gt;file:///tmp/tmpy8xji_q8#somalier_step -->
<g id="edge26" class="edge">
<title>file:///tmp/tmpy8xji_q8#reference_fasta&#45;&gt;file:///tmp/tmpy8xji_q8#somalier_step</title>
<path fill="none" stroke="#000000" d="M1313.5863,-810.9307C1369.038,-770.152 1497.0817,-672.3704 1519,-623.4565 1550.1439,-553.9543 1524.2609,-461.6516 1507.5104,-415.8029"/>
<polygon fill="#000000" stroke="#000000" points="1510.7018,-414.3466 1503.8952,-406.2274 1504.153,-416.8191 1510.7018,-414.3466"/>
</g>
<!-- file:///tmp/tmpy8xji_q8#sites_somalier -->
<g id="node4" class="node">
<title>file:///tmp/tmpy8xji_q8#sites_somalier</title>
<g id="a_node4"><a xlink:title="gzipped vcf file. Required for somalier sites&#10;">
<polygon fill="#94ddf4" stroke="#000000" points="1370.5,-810.9565 1370.5,-847.9565 1489.5,-847.9565 1489.5,-810.9565 1370.5,-810.9565"/>
<text text-anchor="middle" x="1430" y="-825.7565" font-family="Times,serif" font-size="14.00" fill="#000000">sites_somalier</text>
</a>
</g>
</g>
<!-- file:///tmp/tmpy8xji_q8#sites_somalier&#45;&gt;file:///tmp/tmpy8xji_q8#somalier_step -->
<g id="edge27" class="edge">
<title>file:///tmp/tmpy8xji_q8#sites_somalier&#45;&gt;file:///tmp/tmpy8xji_q8#somalier_step</title>
<path fill="none" stroke="#000000" d="M1446.6302,-810.754C1475.8171,-776.5304 1535.2284,-700.2573 1557,-623.4565 1578.2812,-548.3853 1537.2621,-459.0262 1512.6467,-414.9053"/>
<polygon fill="#000000" stroke="#000000" points="1515.6716,-413.1444 1507.6713,-406.1984 1509.5939,-416.6174 1515.6716,-413.1444"/>
</g>
<!-- file:///tmp/tmpy8xji_q8#fastq_list_rows -->
<g id="node5" class="node">
<title>file:///tmp/tmpy8xji_q8#fastq_list_rows</title>
<g id="a_node5"><a xlink:title="The row of fastq lists.&#10; &#160;Each row has the following attributes:&#10; &#160;&#160;&#160;* RGID&#10; &#160;&#160;&#160;* RGLB&#10; &#160;&#160;&#160;* RGSM&#10; &#160;&#160;&#160;* Lane&#10; &#160;&#160;&#160;* Read1File&#10; &#160;&#160;&#160;* Read2File (optional)&#10;">
<polygon fill="#94ddf4" stroke="#000000" points="758.5,-810.9565 758.5,-847.9565 883.5,-847.9565 883.5,-810.9565 758.5,-810.9565"/>
<text text-anchor="middle" x="821" y="-825.7565" font-family="Times,serif" font-size="14.00" fill="#000000">fastq_list_rows</text>
</a>
</g>
</g>
<!-- file:///tmp/tmpy8xji_q8#fastq_list_rows&#45;&gt;file:///tmp/tmpy8xji_q8#dragen_germline_step -->
<g id="edge28" class="edge">
<title>file:///tmp/tmpy8xji_q8#fastq_list_rows&#45;&gt;file:///tmp/tmpy8xji_q8#dragen_germline_step</title>
<path fill="none" stroke="#000000" d="M833.8651,-810.6601C861.166,-770.7724 924.9803,-677.5373 956.5883,-631.3568"/>
<polygon fill="#000000" stroke="#000000" points="959.5199,-633.2702 962.2798,-623.0411 953.7434,-629.3165 959.5199,-633.2702"/>
</g>
<!-- file:///tmp/tmpy8xji_q8#genome_version -->
<g id="node6" class="node">
<title>file:///tmp/tmpy8xji_q8#genome_version</title>
<g id="a_node6"><a xlink:title="Either hg38 (default) or GRCh37?&#10;Used to set chromosome regions to filter down bam file for optitype workflow&#10;">
<polygon fill="#94ddf4" stroke="#000000" points="431.5,-810.9565 431.5,-847.9565 564.5,-847.9565 564.5,-810.9565 431.5,-810.9565"/>
<text text-anchor="middle" x="498" y="-825.7565" font-family="Times,serif" font-size="14.00" fill="#000000">genome_version</text>
</a>
</g>
</g>
<!-- file:///tmp/tmpy8xji_q8#get_hla_regions_bed_step -->
<g id="node18" class="node">
<title>file:///tmp/tmpy8xji_q8#get_hla_regions_bed_step</title>
<g id="a_node18"><a xlink:href="https://github.com/umccr/cwl-ica/blob/beta-release/.github/catalogue/docs/workflows/get-hla-regions-bed/1.0.0/get-hla-regions-bed__1.0.0.md" xlink:title="Get the hla regions for input into the optitype workflow&#10;">
<polygon fill="#ee7ae9" stroke="#000000" points="391,-585.9565 391,-622.9565 605,-622.9565 605,-585.9565 391,-585.9565"/>
<text text-anchor="middle" x="498" y="-600.7565" font-family="Times,serif" font-size="14.00" fill="#000000">get&#45;hla&#45;regions&#45;bed v(1.0.0)</text>
</a>
</g>
</g>
<!-- file:///tmp/tmpy8xji_q8#genome_version&#45;&gt;file:///tmp/tmpy8xji_q8#get_hla_regions_bed_step -->
<g id="edge29" class="edge">
<title>file:///tmp/tmpy8xji_q8#genome_version&#45;&gt;file:///tmp/tmpy8xji_q8#get_hla_regions_bed_step</title>
<path fill="none" stroke="#000000" d="M498,-810.6601C498,-771.2699 498,-679.855 498,-633.1067"/>
<polygon fill="#000000" stroke="#000000" points="501.5001,-633.0411 498,-623.0411 494.5001,-633.0412 501.5001,-633.0411"/>
</g>
<!-- file:///tmp/tmpy8xji_q8#hla_reference_fasta -->
<g id="node7" class="node">
<title>file:///tmp/tmpy8xji_q8#hla_reference_fasta</title>
<g id="a_node7"><a xlink:title="Reference to align / filter large output bam to before running through optitype tool&#10;">
<polygon fill="#94ddf4" stroke="#000000" points="583,-810.9565 583,-847.9565 741,-847.9565 741,-810.9565 583,-810.9565"/>
<text text-anchor="middle" x="662" y="-825.7565" font-family="Times,serif" font-size="14.00" fill="#000000">hla_reference_fasta</text>
</a>
</g>
</g>
<!-- file:///tmp/tmpy8xji_q8#hla_reference_fasta&#45;&gt;file:///tmp/tmpy8xji_q8#optitype_step -->
<g id="edge30" class="edge">
<title>file:///tmp/tmpy8xji_q8#hla_reference_fasta&#45;&gt;file:///tmp/tmpy8xji_q8#optitype_step</title>
<path fill="none" stroke="#000000" d="M659.7213,-810.7533C654.3839,-769.424 639.5535,-667.4826 614,-585.4565 594.4559,-522.7203 561.3425,-453.042 542.4144,-415.3589"/>
<polygon fill="#000000" stroke="#000000" points="545.3406,-413.3902 537.6997,-406.0508 539.096,-416.5533 545.3406,-413.3902"/>
</g>
<!-- file:///tmp/tmpy8xji_q8#optitype_coverage_plot -->
<g id="node8" class="node">
<title>file:///tmp/tmpy8xji_q8#optitype_coverage_plot</title>
<g id="a_node8"><a xlink:title="Output coverage pdf from optitype step&#10;">
<polygon fill="#94ddf4" stroke="#000000" points="436,-151.9565 436,-188.9565 620,-188.9565 620,-151.9565 436,-151.9565"/>
<text text-anchor="middle" x="528" y="-166.7565" font-family="Times,serif" font-size="14.00" fill="#000000">optitype_coverage_plot</text>
</a>
</g>
</g>
<!-- file:///tmp/tmpy8xji_q8#multiqc_output_file -->
<g id="node9" class="node">
<title>file:///tmp/tmpy8xji_q8#multiqc_output_file</title>
<g id="a_node9"><a xlink:title="Output html for multiqc&#10;">
<polygon fill="#94ddf4" stroke="#000000" points="1200,-151.9565 1200,-188.9565 1356,-188.9565 1356,-151.9565 1200,-151.9565"/>
<text text-anchor="middle" x="1278" y="-166.7565" font-family="Times,serif" font-size="14.00" fill="#000000">multiqc_output_file</text>
</a>
</g>
</g>
<!-- file:///tmp/tmpy8xji_q8#dragen_vcf_output -->
<g id="node10" class="node">
<title>file:///tmp/tmpy8xji_q8#dragen_vcf_output</title>
<g id="a_node10"><a xlink:title="Output vcf file for dragen germline run&#10;">
<polygon fill="#94ddf4" stroke="#000000" points="638.5,-151.9565 638.5,-188.9565 789.5,-188.9565 789.5,-151.9565 638.5,-151.9565"/>
<text text-anchor="middle" x="714" y="-166.7565" font-family="Times,serif" font-size="14.00" fill="#000000">dragen_vcf_output</text>
</a>
</g>
</g>
<!-- file:///tmp/tmpy8xji_q8#optitype_output_directory -->
<g id="node11" class="node">
<title>file:///tmp/tmpy8xji_q8#optitype_output_directory</title>
<g id="a_node11"><a xlink:title="Output directory for optitype files&#10;">
<polygon fill="#94ddf4" stroke="#000000" points="214,-151.9565 214,-188.9565 418,-188.9565 418,-151.9565 214,-151.9565"/>
<text text-anchor="middle" x="316" y="-166.7565" font-family="Times,serif" font-size="14.00" fill="#000000">optitype_output_directory</text>
</a>
</g>
</g>
<!-- file:///tmp/tmpy8xji_q8#dragen_bam_output -->
<g id="node12" class="node">
<title>file:///tmp/tmpy8xji_q8#dragen_bam_output</title>
<g id="a_node12"><a xlink:title="Output alignment file for dragen germline run&#10;">
<polygon fill="#94ddf4" stroke="#000000" points="808,-151.9565 808,-188.9565 968,-188.9565 968,-151.9565 808,-151.9565"/>
<text text-anchor="middle" x="888" y="-166.7565" font-family="Times,serif" font-size="14.00" fill="#000000">dragen_bam_output</text>
</a>
</g>
</g>
<!-- file:///tmp/tmpy8xji_q8#optitype_result_matrix -->
<g id="node13" class="node">
<title>file:///tmp/tmpy8xji_q8#optitype_result_matrix</title>
<g id="a_node13"><a xlink:title="Output matrix file from optitype step&#10;">
<polygon fill="#94ddf4" stroke="#000000" points="16,-151.9565 16,-188.9565 196,-188.9565 196,-151.9565 16,-151.9565"/>
<text text-anchor="middle" x="106" y="-166.7565" font-family="Times,serif" font-size="14.00" fill="#000000">optitype_result_matrix</text>
</a>
</g>
</g>
<!-- file:///tmp/tmpy8xji_q8#multiqc_output_directory -->
<g id="node14" class="node">
<title>file:///tmp/tmpy8xji_q8#multiqc_output_directory</title>
<g id="a_node14"><a xlink:title="Output directory with multiqc data and html&#10;">
<polygon fill="#94ddf4" stroke="#000000" points="1374,-151.9565 1374,-188.9565 1574,-188.9565 1574,-151.9565 1374,-151.9565"/>
<text text-anchor="middle" x="1474" y="-166.7565" font-family="Times,serif" font-size="14.00" fill="#000000">multiqc_output_directory</text>
</a>
</g>
</g>
<!-- file:///tmp/tmpy8xji_q8#somalier_output_directory -->
<g id="node15" class="node">
<title>file:///tmp/tmpy8xji_q8#somalier_output_directory</title>
<g id="a_node15"><a xlink:title="Output directory from somalier step&#10;">
<polygon fill="#94ddf4" stroke="#000000" points="1592,-151.9565 1592,-188.9565 1798,-188.9565 1798,-151.9565 1592,-151.9565"/>
<text text-anchor="middle" x="1695" y="-166.7565" font-family="Times,serif" font-size="14.00" fill="#000000">somalier_output_directory</text>
</a>
</g>
</g>
<!-- file:///tmp/tmpy8xji_q8#dragen_output_directory -->
<g id="node16" class="node">
<title>file:///tmp/tmpy8xji_q8#dragen_output_directory</title>
<g id="a_node16"><a xlink:title="Output directory for dragen&#10;">
<polygon fill="#94ddf4" stroke="#000000" points="986.5,-151.9565 986.5,-188.9565 1181.5,-188.9565 1181.5,-151.9565 986.5,-151.9565"/>
<text text-anchor="middle" x="1084" y="-166.7565" font-family="Times,serif" font-size="14.00" fill="#000000">dragen_output_directory</text>
</a>
</g>
</g>
<!-- file:///tmp/tmpy8xji_q8#get_faidx_file_step&#45;&gt;file:///tmp/tmpy8xji_q8#get_hla_regions_bed_step -->
<g id="edge1" class="edge">
<title>file:///tmp/tmpy8xji_q8#get_faidx_file_step&#45;&gt;file:///tmp/tmpy8xji_q8#get_hla_regions_bed_step</title>
<path fill="none" stroke="#000000" d="M280.7988,-810.6601C323.2507,-770.3578 423.0694,-675.5931 471.1658,-629.932"/>
<polygon fill="#000000" stroke="#000000" points="473.5817,-632.4646 478.4242,-623.0411 468.7621,-627.3879 473.5817,-632.4646"/>
</g>
<!-- file:///tmp/tmpy8xji_q8#get_hla_regions_bed_step&#45;&gt;file:///tmp/tmpy8xji_q8#optitype_step -->
<g id="edge2" class="edge">
<title>file:///tmp/tmpy8xji_q8#get_hla_regions_bed_step&#45;&gt;file:///tmp/tmpy8xji_q8#optitype_step</title>
<path fill="none" stroke="#000000" d="M500.5578,-585.9552C505.7918,-548.0955 517.7573,-461.5452 524.017,-416.2668"/>
<polygon fill="#000000" stroke="#000000" points="527.5036,-416.6043 525.4061,-406.2192 520.5695,-415.6456 527.5036,-416.6043"/>
</g>
<!-- file:///tmp/tmpy8xji_q8#optitype_step&#45;&gt;file:///tmp/tmpy8xji_q8#optitype_coverage_plot -->
<g id="edge9" class="edge">
<title>file:///tmp/tmpy8xji_q8#optitype_step&#45;&gt;file:///tmp/tmpy8xji_q8#optitype_coverage_plot</title>
<path fill="none" stroke="#000000" d="M528,-368.9552C528,-331.0955 528,-244.5452 528,-199.2668"/>
<polygon fill="#000000" stroke="#000000" points="531.5001,-199.2192 528,-189.2192 524.5001,-199.2192 531.5001,-199.2192"/>
</g>
<!-- file:///tmp/tmpy8xji_q8#optitype_step&#45;&gt;file:///tmp/tmpy8xji_q8#optitype_output_directory -->
<g id="edge10" class="edge">
<title>file:///tmp/tmpy8xji_q8#optitype_step&#45;&gt;file:///tmp/tmpy8xji_q8#optitype_output_directory</title>
<path fill="none" stroke="#000000" d="M509.925,-368.9552C472.1573,-330.2967 384.7926,-240.8716 341.4014,-196.457"/>
<polygon fill="#000000" stroke="#000000" points="343.8221,-193.9263 334.3304,-189.2192 338.815,-198.8181 343.8221,-193.9263"/>
</g>
<!-- file:///tmp/tmpy8xji_q8#optitype_step&#45;&gt;file:///tmp/tmpy8xji_q8#optitype_result_matrix -->
<g id="edge11" class="edge">
<title>file:///tmp/tmpy8xji_q8#optitype_step&#45;&gt;file:///tmp/tmpy8xji_q8#optitype_result_matrix</title>
<path fill="none" stroke="#000000" d="M492.0205,-368.9552C415.2697,-329.4886 235.6218,-237.1104 151.2626,-193.7314"/>
<polygon fill="#000000" stroke="#000000" points="152.6813,-190.5253 142.1876,-189.0648 149.4802,-196.7505 152.6813,-190.5253"/>
</g>
<!-- file:///tmp/tmpy8xji_q8#dragen_germline_step&#45;&gt;file:///tmp/tmpy8xji_q8#dragen_vcf_output -->
<g id="edge6" class="edge">
<title>file:///tmp/tmpy8xji_q8#dragen_germline_step&#45;&gt;file:///tmp/tmpy8xji_q8#dragen_vcf_output</title>
<path fill="none" stroke="#000000" d="M963.7852,-585.8081C922.5405,-517.2249 779.1405,-278.7743 730.378,-197.6903"/>
<polygon fill="#000000" stroke="#000000" points="733.3262,-195.8014 725.1731,-189.0355 727.3274,-199.409 733.3262,-195.8014"/>
</g>
<!-- file:///tmp/tmpy8xji_q8#dragen_germline_step&#45;&gt;file:///tmp/tmpy8xji_q8#dragen_bam_output -->
<g id="edge7" class="edge">
<title>file:///tmp/tmpy8xji_q8#dragen_germline_step&#45;&gt;file:///tmp/tmpy8xji_q8#dragen_bam_output</title>
<path fill="none" stroke="#000000" d="M971.2617,-585.8081C957.5832,-517.5727 910.1974,-281.1883 893.709,-198.936"/>
<polygon fill="#000000" stroke="#000000" points="897.1217,-198.1524 891.7244,-189.0355 890.2582,-199.5284 897.1217,-198.1524"/>
</g>
<!-- file:///tmp/tmpy8xji_q8#dragen_germline_step&#45;&gt;file:///tmp/tmpy8xji_q8#dragen_output_directory -->
<g id="edge8" class="edge">
<title>file:///tmp/tmpy8xji_q8#dragen_germline_step&#45;&gt;file:///tmp/tmpy8xji_q8#dragen_output_directory</title>
<path fill="none" stroke="#000000" d="M979.6836,-585.8081C996.821,-517.5727 1056.1895,-281.1883 1076.8473,-198.936"/>
<polygon fill="#000000" stroke="#000000" points="1080.2925,-199.5868 1079.3339,-189.0355 1073.5033,-197.8817 1080.2925,-199.5868"/>
</g>
<!-- file:///tmp/tmpy8xji_q8#dragen_germline_step&#45;&gt;file:///tmp/tmpy8xji_q8#optitype_step -->
<g id="edge3" class="edge">
<title>file:///tmp/tmpy8xji_q8#dragen_germline_step&#45;&gt;file:///tmp/tmpy8xji_q8#optitype_step</title>
<path fill="none" stroke="#000000" d="M936.889,-585.9552C855.4266,-546.4086 664.5292,-453.7358 575.4021,-410.4683"/>
<polygon fill="#000000" stroke="#000000" points="576.8559,-407.2835 566.3314,-406.0648 573.7989,-413.5806 576.8559,-407.2835"/>
</g>
<!-- file:///tmp/tmpy8xji_q8#dragen_germline_step&#45;&gt;file:///tmp/tmpy8xji_q8#somalier_step -->
<g id="edge4" class="edge">
<title>file:///tmp/tmpy8xji_q8#dragen_germline_step&#45;&gt;file:///tmp/tmpy8xji_q8#somalier_step</title>
<path fill="none" stroke="#000000" d="M1019.4202,-585.9552C1114.7525,-546.2486 1338.6705,-452.9853 1442.0052,-409.9457"/>
<polygon fill="#000000" stroke="#000000" points="1443.4373,-413.1407 1451.3229,-406.0648 1440.7459,-406.6788 1443.4373,-413.1407"/>
</g>
<!-- file:///tmp/tmpy8xji_q8#dragen_germline_step&#45;&gt;file:///tmp/tmpy8xji_q8#qc_step -->
<g id="edge5" class="edge">
<title>file:///tmp/tmpy8xji_q8#dragen_germline_step&#45;&gt;file:///tmp/tmpy8xji_q8#qc_step</title>
<path fill="none" stroke="#000000" d="M989.8351,-585.9552C1020.641,-547.5364 1091.6508,-458.9782 1127.4853,-414.2881"/>
<polygon fill="#000000" stroke="#000000" points="1130.4301,-416.2104 1133.9553,-406.2192 1124.9689,-411.8314 1130.4301,-416.2104"/>
</g>
<!-- file:///tmp/tmpy8xji_q8#somalier_step&#45;&gt;file:///tmp/tmpy8xji_q8#somalier_output_directory -->
<g id="edge12" class="edge">
<title>file:///tmp/tmpy8xji_q8#somalier_step&#45;&gt;file:///tmp/tmpy8xji_q8#somalier_output_directory</title>
<path fill="none" stroke="#000000" d="M1512.9666,-368.9552C1548.3452,-330.3766 1630.0871,-241.2409 1670.9032,-196.7329"/>
<polygon fill="#000000" stroke="#000000" points="1673.6144,-198.9549 1677.7937,-189.2192 1668.4553,-194.2238 1673.6144,-198.9549"/>
</g>
<!-- file:///tmp/tmpy8xji_q8#qc_step&#45;&gt;file:///tmp/tmpy8xji_q8#multiqc_output_file -->
<g id="edge14" class="edge">
<title>file:///tmp/tmpy8xji_q8#qc_step&#45;&gt;file:///tmp/tmpy8xji_q8#multiqc_output_file</title>
<path fill="none" stroke="#000000" d="M1159.9985,-368.9552C1182.7424,-330.6961 1235.0452,-242.7138 1261.7167,-197.8478"/>
<polygon fill="#000000" stroke="#000000" points="1264.7447,-199.6035 1266.8461,-189.2192 1258.7276,-196.0265 1264.7447,-199.6035"/>
</g>
<!-- file:///tmp/tmpy8xji_q8#qc_step&#45;&gt;file:///tmp/tmpy8xji_q8#multiqc_output_directory -->
<g id="edge15" class="edge">
<title>file:///tmp/tmpy8xji_q8#qc_step&#45;&gt;file:///tmp/tmpy8xji_q8#multiqc_output_directory</title>
<path fill="none" stroke="#000000" d="M1176.7093,-368.9552C1235.3257,-329.8175 1371.8719,-238.6466 1437.5016,-194.8262"/>
<polygon fill="#000000" stroke="#000000" points="1439.5261,-197.6829 1445.8992,-189.2192 1435.6391,-191.8613 1439.5261,-197.6829"/>
</g>
<!-- file:///tmp/tmpy8xji_q8#create_dummy_file_step -->
<g id="node23" class="node">
<title>file:///tmp/tmpy8xji_q8#create_dummy_file_step</title>
<g id="a_node23"><a xlink:href="https://github.com/umccr/cwl-ica/blob/beta-release/.github/catalogue/docs/tools/custom-touch-file/1.0.0/custom-touch-file__1.0.0.md" xlink:title="Intermediate step for letting multiqc&#45;interop be placed in stream mode&#10;">
<polygon fill="#fafad2" stroke="#000000" points="1195.5,-585.9565 1195.5,-622.9565 1458.5,-622.9565 1458.5,-585.9565 1195.5,-585.9565"/>
<text text-anchor="middle" x="1327" y="-600.7565" font-family="Times,serif" font-size="14.00" fill="#000000">custom&#45;create&#45;dummy&#45;file v(1.0.0)</text>
</a>
</g>
</g>
<!-- file:///tmp/tmpy8xji_q8#create_dummy_file_step&#45;&gt;file:///tmp/tmpy8xji_q8#qc_step -->
<g id="edge13" class="edge">
<title>file:///tmp/tmpy8xji_q8#create_dummy_file_step&#45;&gt;file:///tmp/tmpy8xji_q8#qc_step</title>
<path fill="none" stroke="#000000" d="M1311.8238,-585.9552C1280.2442,-547.4565 1207.3653,-458.6098 1170.7812,-414.0099"/>
<polygon fill="#000000" stroke="#000000" points="1173.4388,-411.7311 1164.3906,-406.2192 1168.0266,-416.1706 1173.4388,-411.7311"/>
</g>
</g>
</svg>
