<?xml version="1.0" encoding="UTF-8" standalone="no"?>
<!DOCTYPE svg PUBLIC "-//W3C//DTD SVG 1.1//EN"
 "http://www.w3.org/Graphics/SVG/1.1/DTD/svg11.dtd">
<!-- Generated by graphviz version 2.40.1 (20161225.0304)
 -->
<!-- Title: G Pages: 1 -->
<svg width="1821pt" height="940pt"
 viewBox="0.00 0.00 1821.00 939.88" xmlns="http://www.w3.org/2000/svg" xmlns:xlink="http://www.w3.org/1999/xlink">
<g id="graph0" class="graph" transform="scale(1 1) rotate(0) translate(4 935.882)">
<title>G</title>
<polygon fill="#eeeeee" stroke="transparent" points="-4,4 -4,-935.882 1817,-935.882 1817,4 -4,4"/>
<g id="clust1" class="cluster">
<title>cluster_inputs</title>
<polygon fill="#eeeeee" stroke="#000000" stroke-dasharray="5,2" points="197,-682.794 197,-908.4384 1273,-908.4384 1273,-682.794 197,-682.794"/>
<text text-anchor="middle" x="1205" y="-690.594" font-family="Times,serif" font-size="14.00" fill="#000000">Workflow Inputs</text>
</g>
<g id="clust2" class="cluster">
<title>cluster_outputs</title>
<polygon fill="#eeeeee" stroke="#000000" stroke-dasharray="5,2" points="8,-23.4436 8,-249.088 1805,-249.088 1805,-23.4436 8,-23.4436"/>
<text text-anchor="middle" x="1731" y="-31.2436" font-family="Times,serif" font-size="14.00" fill="#000000">Workflow Outputs</text>
</g>
<!-- file:///tmp/tmpz0u62xhu#reference_fasta -->
<g id="node1" class="node">
<title>file:///tmp/tmpz0u62xhu#reference_fasta</title>
<g id="a_node1"><a xlink:title="The reference fasta file with a .fai index.&#10;Required for somalier and optitype steps&#10;">
<polygon fill="#94ddf4" stroke="#000000" points="343,-810.9436 343,-847.9436 471,-847.9436 471,-810.9436 343,-810.9436"/>
<text text-anchor="middle" x="407" y="-825.7436" font-family="Times,serif" font-size="14.00" fill="#000000">reference_fasta</text>
</a>
</g>
</g>
<!-- file:///tmp/tmpz0u62xhu#somalier_step -->
<g id="node18" class="node">
<title>file:///tmp/tmpz0u62xhu#somalier_step</title>
<g id="a_node18"><a xlink:href="https://github.com/umccr/cwl-ica/blob/beta-release/.github/catalogue/docs/tools/somalier-extract/0.2.13/somalier-extract__0.2.13.md" xlink:title="Runs the somalier extract function to call the fingerprint on the germline bam file&#10;">
<polygon fill="#fafad2" stroke="#000000" points="357.5,-367.9436 357.5,-404.9436 560.5,-404.9436 560.5,-367.9436 357.5,-367.9436"/>
<text text-anchor="middle" x="459" y="-382.7436" font-family="Times,serif" font-size="14.00" fill="#000000">somalier&#45;extract v(0.2.13)</text>
</a>
</g>
</g>
<!-- file:///tmp/tmpz0u62xhu#reference_fasta&#45;&gt;file:///tmp/tmpz0u62xhu#somalier_step -->
<g id="edge16" class="edge">
<title>file:///tmp/tmpz0u62xhu#reference_fasta&#45;&gt;file:///tmp/tmpz0u62xhu#somalier_step</title>
<path fill="none" stroke="#000000" d="M409.2012,-810.6914C417.3496,-741.273 445.8348,-498.6008 455.6477,-415.0023"/>
<polygon fill="#000000" stroke="#000000" points="459.1374,-415.294 456.8272,-404.9541 452.1852,-414.4779 459.1374,-415.294"/>
</g>
<!-- file:///tmp/tmpz0u62xhu#get_faidx_file_step -->
<g id="node22" class="node">
<title>file:///tmp/tmpz0u62xhu#get_faidx_file_step</title>
<g id="a_node22"><a xlink:href="https://github.com/umccr/cwl-ica/blob/beta-release/.github/catalogue/docs/expressions/get-faidx-file-from-reference-file/1.0.0/get-faidx-file-from-reference-file__1.0.0.md" xlink:title="Get the index of the reference fasta as its own file.&#10;Used by the get&#45;regions&#45;bed workflow&#10;">
<polygon fill="#ee9a00" stroke="#000000" points="1282.5,-810.9436 1282.5,-847.9436 1587.5,-847.9436 1587.5,-810.9436 1282.5,-810.9436"/>
<text text-anchor="middle" x="1435" y="-825.7436" font-family="Times,serif" font-size="14.00" fill="#000000">get&#45;faidx&#45;file&#45;from&#45;reference&#45;file v(1.0.0)</text>
</a>
</g>
</g>
<!-- file:///tmp/tmpz0u62xhu#reference_fasta&#45;&gt;file:///tmp/tmpz0u62xhu#get_faidx_file_step -->
<g id="edge17" class="edge">
<title>file:///tmp/tmpz0u62xhu#reference_fasta&#45;&gt;file:///tmp/tmpz0u62xhu#get_faidx_file_step</title>
<path fill="none" stroke="#000000" d="M432.899,-848.0723C448.3653,-858.0319 468.8653,-869.2819 489,-874.4436 572.8443,-895.9377 1182.1929,-885.8018 1268,-874.4436 1302.5158,-869.8747 1340.0248,-860.2129 1370.7346,-851.009"/>
<polygon fill="#000000" stroke="#000000" points="1371.9105,-854.3096 1380.454,-848.0439 1369.8679,-847.6142 1371.9105,-854.3096"/>
</g>
<!-- file:///tmp/tmpz0u62xhu#hla_reference_fasta -->
<g id="node2" class="node">
<title>file:///tmp/tmpz0u62xhu#hla_reference_fasta</title>
<g id="a_node2"><a xlink:title="Reference to align / filter large output bam to before running through optitype tool&#10;">
<polygon fill="#94ddf4" stroke="#000000" points="955,-810.9436 955,-847.9436 1113,-847.9436 1113,-810.9436 955,-810.9436"/>
<text text-anchor="middle" x="1034" y="-825.7436" font-family="Times,serif" font-size="14.00" fill="#000000">hla_reference_fasta</text>
</a>
</g>
</g>
<!-- file:///tmp/tmpz0u62xhu#optitype_step -->
<g id="node20" class="node">
<title>file:///tmp/tmpz0u62xhu#optitype_step</title>
<g id="a_node20"><a xlink:href="https://github.com/umccr/cwl-ica/blob/beta-release/.github/catalogue/docs/workflows/optitype-pipeline/1.3.5/optitype-pipeline__1.3.5.md" xlink:title="Run the optitype pipeline&#10;">
<polygon fill="#ee7ae9" stroke="#000000" points="1186.5,-367.9436 1186.5,-404.9436 1383.5,-404.9436 1383.5,-367.9436 1186.5,-367.9436"/>
<text text-anchor="middle" x="1285" y="-382.7436" font-family="Times,serif" font-size="14.00" fill="#000000">optitype&#45;pipeline v(1.3.5)</text>
</a>
</g>
</g>
<!-- file:///tmp/tmpz0u62xhu#hla_reference_fasta&#45;&gt;file:///tmp/tmpz0u62xhu#optitype_step -->
<g id="edge18" class="edge">
<title>file:///tmp/tmpz0u62xhu#hla_reference_fasta&#45;&gt;file:///tmp/tmpz0u62xhu#optitype_step</title>
<path fill="none" stroke="#000000" d="M1059.1397,-810.829C1101.7524,-777.8563 1187.8308,-704.846 1232,-622.4436 1268.6406,-554.0866 1279.9985,-461.5245 1283.483,-415.2633"/>
<polygon fill="#000000" stroke="#000000" points="1286.9898,-415.2811 1284.1782,-405.0662 1280.006,-414.8049 1286.9898,-415.2811"/>
</g>
<!-- file:///tmp/tmpz0u62xhu#sample_name -->
<g id="node3" class="node">
<title>file:///tmp/tmpz0u62xhu#sample_name</title>
<g id="a_node3"><a xlink:title="What is the name of the sample?&#10;Used to pre&#45;fill out many other inputs.&#10;">
<polygon fill="#94ddf4" stroke="#000000" points="823,-810.9436 823,-847.9436 937,-847.9436 937,-810.9436 823,-810.9436"/>
<text text-anchor="middle" x="880" y="-825.7436" font-family="Times,serif" font-size="14.00" fill="#000000">sample_name</text>
</a>
</g>
</g>
<!-- file:///tmp/tmpz0u62xhu#dragen_germline_step -->
<g id="node17" class="node">
<title>file:///tmp/tmpz0u62xhu#dragen_germline_step</title>
<g id="a_node17"><a xlink:href="https://github.com/umccr/cwl-ica/blob/beta-release/.github/catalogue/docs/workflows/dragen-germline-pipeline/3.7.5/dragen-germline-pipeline__3.7.5.md" xlink:title="Runs the dragen germline 3.7.5 workflow&#10;">
<polygon fill="#ee7ae9" stroke="#000000" points="572,-584.9436 572,-621.9436 828,-621.9436 828,-584.9436 572,-584.9436"/>
<text text-anchor="middle" x="700" y="-599.7436" font-family="Times,serif" font-size="14.00" fill="#000000">dragen&#45;germline&#45;pipeline v(3.7.5)</text>
</a>
</g>
</g>
<!-- file:///tmp/tmpz0u62xhu#sample_name&#45;&gt;file:///tmp/tmpz0u62xhu#dragen_germline_step -->
<g id="edge19" class="edge">
<title>file:///tmp/tmpz0u62xhu#sample_name&#45;&gt;file:///tmp/tmpz0u62xhu#dragen_germline_step</title>
<path fill="none" stroke="#000000" d="M861.017,-810.5637C825.5885,-770.4986 750.7929,-676.8491 716.9518,-630.4634"/>
<polygon fill="#000000" stroke="#000000" points="719.6228,-628.1829 710.9406,-622.1108 713.9412,-632.2719 719.6228,-628.1829"/>
</g>
<!-- file:///tmp/tmpz0u62xhu#sample_name&#45;&gt;file:///tmp/tmpz0u62xhu#dragen_germline_step -->
<g id="edge20" class="edge">
<title>file:///tmp/tmpz0u62xhu#sample_name&#45;&gt;file:///tmp/tmpz0u62xhu#dragen_germline_step</title>
<path fill="none" stroke="#000000" d="M868.9088,-810.5637C840.3988,-770.332 765.517,-676.0694 725.5909,-629.8872"/>
<polygon fill="#000000" stroke="#000000" points="728.0108,-627.3375 718.7949,-622.1108 722.7399,-631.9438 728.0108,-627.3375"/>
</g>
<!-- file:///tmp/tmpz0u62xhu#sample_name&#45;&gt;file:///tmp/tmpz0u62xhu#somalier_step -->
<g id="edge21" class="edge">
<title>file:///tmp/tmpz0u62xhu#sample_name&#45;&gt;file:///tmp/tmpz0u62xhu#somalier_step</title>
<path fill="none" stroke="#000000" d="M848.5232,-810.8698C835.1045,-801.221 819.4383,-789.3988 805,-779.4436 696.673,-704.752 640.1134,-721.9326 554,-622.4436 499.2432,-559.1817 469.0119,-462.5287 460.1776,-414.9399"/>
<polygon fill="#000000" stroke="#000000" points="463.622,-414.3159 458.539,-405.02 456.7156,-415.4567 463.622,-414.3159"/>
</g>
<!-- file:///tmp/tmpz0u62xhu#sample_name&#45;&gt;file:///tmp/tmpz0u62xhu#somalier_step -->
<g id="edge22" class="edge">
<title>file:///tmp/tmpz0u62xhu#sample_name&#45;&gt;file:///tmp/tmpz0u62xhu#somalier_step</title>
<path fill="none" stroke="#000000" d="M864.575,-810.8698C853.1045,-801.221 837.4383,-789.3988 823,-779.4436 714.673,-704.752 658.1134,-721.9326 572,-622.4436 517.1282,-559.0488 486.8849,-462.1224 471.0771,-414.6406"/>
<polygon fill="#000000" stroke="#000000" points="474.3434,-413.3735 467.8265,-405.02 467.7117,-415.6142 474.3434,-413.3735"/>
</g>
<!-- file:///tmp/tmpz0u62xhu#qc_step -->
<g id="node19" class="node">
<title>file:///tmp/tmpz0u62xhu#qc_step</title>
<g id="a_node19"><a xlink:href="https://github.com/umccr/cwl-ica/blob/beta-release/.github/catalogue/docs/tools/multiqc/1.10.1/multiqc__1.10.1.md" xlink:title="Runs multiqc on the run folder&#10;Uses a dummy file so that the folder can be placed in &#39;stream&#39; mode.&#10;">
<polygon fill="#fafad2" stroke="#000000" points="810,-367.9436 810,-404.9436 950,-404.9436 950,-367.9436 810,-367.9436"/>
<text text-anchor="middle" x="880" y="-382.7436" font-family="Times,serif" font-size="14.00" fill="#000000">multiqc v(1.10.1)</text>
</a>
</g>
</g>
<!-- file:///tmp/tmpz0u62xhu#sample_name&#45;&gt;file:///tmp/tmpz0u62xhu#qc_step -->
<g id="edge23" class="edge">
<title>file:///tmp/tmpz0u62xhu#sample_name&#45;&gt;file:///tmp/tmpz0u62xhu#qc_step</title>
<path fill="none" stroke="#000000" d="M874.1334,-810.6914C864.3721,-741.273 863.9726,-498.6008 872.935,-415.0023"/>
<polygon fill="#000000" stroke="#000000" points="876.4239,-415.3059 874.1675,-404.9541 869.476,-414.4536 876.4239,-415.3059"/>
</g>
<!-- file:///tmp/tmpz0u62xhu#sample_name&#45;&gt;file:///tmp/tmpz0u62xhu#qc_step -->
<g id="edge24" class="edge">
<title>file:///tmp/tmpz0u62xhu#sample_name&#45;&gt;file:///tmp/tmpz0u62xhu#qc_step</title>
<path fill="none" stroke="#000000" d="M880,-810.6914C880,-741.273 880,-498.6008 880,-415.0023"/>
<polygon fill="#000000" stroke="#000000" points="883.5001,-414.9541 880,-404.9541 876.5001,-414.9542 883.5001,-414.9541"/>
</g>
<!-- file:///tmp/tmpz0u62xhu#sample_name&#45;&gt;file:///tmp/tmpz0u62xhu#qc_step -->
<g id="edge25" class="edge">
<title>file:///tmp/tmpz0u62xhu#sample_name&#45;&gt;file:///tmp/tmpz0u62xhu#qc_step</title>
<path fill="none" stroke="#000000" d="M885.8666,-810.6914C895.6279,-741.273 896.0274,-498.6008 887.065,-415.0023"/>
<polygon fill="#000000" stroke="#000000" points="890.524,-414.4536 885.8325,-404.9541 883.5761,-415.3059 890.524,-414.4536"/>
</g>
<!-- file:///tmp/tmpz0u62xhu#sample_name&#45;&gt;file:///tmp/tmpz0u62xhu#optitype_step -->
<g id="edge26" class="edge">
<title>file:///tmp/tmpz0u62xhu#sample_name&#45;&gt;file:///tmp/tmpz0u62xhu#optitype_step</title>
<path fill="none" stroke="#000000" d="M903.4363,-810.8487C915.877,-801.1941 931.544,-789.3731 946,-779.4436 1055.0818,-704.5179 1115.5389,-725.1419 1199,-622.4436 1250.3931,-559.2046 1272.5806,-462.5411 1280.816,-414.9449"/>
<polygon fill="#000000" stroke="#000000" points="1284.2783,-415.4596 1282.4518,-405.0234 1277.3716,-414.3208 1284.2783,-415.4596"/>
</g>
<!-- file:///tmp/tmpz0u62xhu#sites_somalier -->
<g id="node4" class="node">
<title>file:///tmp/tmpz0u62xhu#sites_somalier</title>
<g id="a_node4"><a xlink:title="gzipped vcf file. Required for somalier sites&#10;">
<polygon fill="#94ddf4" stroke="#000000" points="205.5,-810.9436 205.5,-847.9436 324.5,-847.9436 324.5,-810.9436 205.5,-810.9436"/>
<text text-anchor="middle" x="265" y="-825.7436" font-family="Times,serif" font-size="14.00" fill="#000000">sites_somalier</text>
</a>
</g>
</g>
<!-- file:///tmp/tmpz0u62xhu#sites_somalier&#45;&gt;file:///tmp/tmpz0u62xhu#somalier_step -->
<g id="edge27" class="edge">
<title>file:///tmp/tmpz0u62xhu#sites_somalier&#45;&gt;file:///tmp/tmpz0u62xhu#somalier_step</title>
<path fill="none" stroke="#000000" d="M273.212,-810.6914C303.7049,-741.0607 410.5344,-497.1149 446.8274,-414.2398"/>
<polygon fill="#000000" stroke="#000000" points="450.0883,-415.5183 450.8938,-404.9541 443.6762,-412.7103 450.0883,-415.5183"/>
</g>
<!-- file:///tmp/tmpz0u62xhu#fastq_list_rows -->
<g id="node5" class="node">
<title>file:///tmp/tmpz0u62xhu#fastq_list_rows</title>
<g id="a_node5"><a xlink:title="The row of fastq lists.&#10; &#160;Each row has the following attributes:&#10; &#160;&#160;&#160;* RGID&#10; &#160;&#160;&#160;* RGLB&#10; &#160;&#160;&#160;* RGSM&#10; &#160;&#160;&#160;* Lane&#10; &#160;&#160;&#160;* Read1File&#10; &#160;&#160;&#160;* Read2File (optional)&#10;">
<polygon fill="#94ddf4" stroke="#000000" points="679.5,-810.9436 679.5,-847.9436 804.5,-847.9436 804.5,-810.9436 679.5,-810.9436"/>
<text text-anchor="middle" x="742" y="-825.7436" font-family="Times,serif" font-size="14.00" fill="#000000">fastq_list_rows</text>
</a>
</g>
</g>
<!-- file:///tmp/tmpz0u62xhu#fastq_list_rows&#45;&gt;file:///tmp/tmpz0u62xhu#dragen_germline_step -->
<g id="edge28" class="edge">
<title>file:///tmp/tmpz0u62xhu#fastq_list_rows&#45;&gt;file:///tmp/tmpz0u62xhu#dragen_germline_step</title>
<path fill="none" stroke="#000000" d="M738.4913,-810.5637C731.1385,-770.9984 714.0744,-679.1772 705.348,-632.2211"/>
<polygon fill="#000000" stroke="#000000" points="708.7374,-631.303 703.4691,-622.1108 701.8553,-632.582 708.7374,-631.303"/>
</g>
<!-- file:///tmp/tmpz0u62xhu#reference_tar_dragen -->
<g id="node6" class="node">
<title>file:///tmp/tmpz0u62xhu#reference_tar_dragen</title>
<g id="a_node6"><a xlink:title="Path to ref data tarball&#10;">
<polygon fill="#94ddf4" stroke="#000000" points="489,-810.9436 489,-847.9436 661,-847.9436 661,-810.9436 489,-810.9436"/>
<text text-anchor="middle" x="575" y="-825.7436" font-family="Times,serif" font-size="14.00" fill="#000000">reference_tar_dragen</text>
</a>
</g>
</g>
<!-- file:///tmp/tmpz0u62xhu#reference_tar_dragen&#45;&gt;file:///tmp/tmpz0u62xhu#dragen_germline_step -->
<g id="edge29" class="edge">
<title>file:///tmp/tmpz0u62xhu#reference_tar_dragen&#45;&gt;file:///tmp/tmpz0u62xhu#dragen_germline_step</title>
<path fill="none" stroke="#000000" d="M585.4424,-810.5637C607.5101,-770.6652 658.9693,-677.627 684.734,-631.0445"/>
<polygon fill="#000000" stroke="#000000" points="687.8979,-632.5555 689.6752,-622.1108 681.7724,-629.1675 687.8979,-632.5555"/>
</g>
<!-- file:///tmp/tmpz0u62xhu#genome_version -->
<g id="node7" class="node">
<title>file:///tmp/tmpz0u62xhu#genome_version</title>
<g id="a_node7"><a xlink:title="Either hg38 (default) or GRCh37?&#10;Used to set chromosome regions to filter down bam file for optitype workflow&#10;">
<polygon fill="#94ddf4" stroke="#000000" points="1131.5,-810.9436 1131.5,-847.9436 1264.5,-847.9436 1264.5,-810.9436 1131.5,-810.9436"/>
<text text-anchor="middle" x="1198" y="-825.7436" font-family="Times,serif" font-size="14.00" fill="#000000">genome_version</text>
</a>
</g>
</g>
<!-- file:///tmp/tmpz0u62xhu#get_hla_regions_bed_step -->
<g id="node23" class="node">
<title>file:///tmp/tmpz0u62xhu#get_hla_regions_bed_step</title>
<g id="a_node23"><a xlink:href="https://github.com/umccr/cwl-ica/blob/beta-release/.github/catalogue/docs/workflows/get-hla-regions-bed/1.0.0/get-hla-regions-bed__1.0.0.md" xlink:title="Get the hla regions for input into the optitype workflow&#10;">
<polygon fill="#ee7ae9" stroke="#000000" points="1284,-584.9436 1284,-621.9436 1498,-621.9436 1498,-584.9436 1284,-584.9436"/>
<text text-anchor="middle" x="1391" y="-599.7436" font-family="Times,serif" font-size="14.00" fill="#000000">get&#45;hla&#45;regions&#45;bed v(1.0.0)</text>
</a>
</g>
</g>
<!-- file:///tmp/tmpz0u62xhu#genome_version&#45;&gt;file:///tmp/tmpz0u62xhu#get_hla_regions_bed_step -->
<g id="edge30" class="edge">
<title>file:///tmp/tmpz0u62xhu#genome_version&#45;&gt;file:///tmp/tmpz0u62xhu#get_hla_regions_bed_step</title>
<path fill="none" stroke="#000000" d="M1214.1231,-810.5637C1248.4802,-770.332 1328.9788,-676.0694 1368.4176,-629.8872"/>
<polygon fill="#000000" stroke="#000000" points="1371.226,-631.9882 1375.0585,-622.1108 1365.9029,-627.4423 1371.226,-631.9882"/>
</g>
<!-- file:///tmp/tmpz0u62xhu#somalier_output_directory -->
<g id="node8" class="node">
<title>file:///tmp/tmpz0u62xhu#somalier_output_directory</title>
<g id="a_node8"><a xlink:title="Output directory from somalier step&#10;">
<polygon fill="#94ddf4" stroke="#000000" points="16,-151.9436 16,-188.9436 222,-188.9436 222,-151.9436 16,-151.9436"/>
<text text-anchor="middle" x="119" y="-166.7436" font-family="Times,serif" font-size="14.00" fill="#000000">somalier_output_directory</text>
</a>
</g>
</g>
<!-- file:///tmp/tmpz0u62xhu#multiqc_output_directory -->
<g id="node9" class="node">
<title>file:///tmp/tmpz0u62xhu#multiqc_output_directory</title>
<g id="a_node9"><a xlink:title="Output directory with multiqc data and html&#10;">
<polygon fill="#94ddf4" stroke="#000000" points="801,-151.9436 801,-188.9436 1001,-188.9436 1001,-151.9436 801,-151.9436"/>
<text text-anchor="middle" x="901" y="-166.7436" font-family="Times,serif" font-size="14.00" fill="#000000">multiqc_output_directory</text>
</a>
</g>
</g>
<!-- file:///tmp/tmpz0u62xhu#dragen_bam_output -->
<g id="node10" class="node">
<title>file:///tmp/tmpz0u62xhu#dragen_bam_output</title>
<g id="a_node10"><a xlink:title="Output alignment file for dragen germline run&#10;">
<polygon fill="#94ddf4" stroke="#000000" points="240,-151.9436 240,-188.9436 400,-188.9436 400,-151.9436 240,-151.9436"/>
<text text-anchor="middle" x="320" y="-166.7436" font-family="Times,serif" font-size="14.00" fill="#000000">dragen_bam_output</text>
</a>
</g>
</g>
<!-- file:///tmp/tmpz0u62xhu#optitype_output_directory -->
<g id="node11" class="node">
<title>file:///tmp/tmpz0u62xhu#optitype_output_directory</title>
<g id="a_node11"><a xlink:title="Output directory for optitype files&#10;">
<polygon fill="#94ddf4" stroke="#000000" points="1593,-151.9436 1593,-188.9436 1797,-188.9436 1797,-151.9436 1593,-151.9436"/>
<text text-anchor="middle" x="1695" y="-166.7436" font-family="Times,serif" font-size="14.00" fill="#000000">optitype_output_directory</text>
</a>
</g>
</g>
<!-- file:///tmp/tmpz0u62xhu#dragen_vcf_output -->
<g id="node12" class="node">
<title>file:///tmp/tmpz0u62xhu#dragen_vcf_output</title>
<g id="a_node12"><a xlink:title="Output vcf file for dragen germline run&#10;">
<polygon fill="#94ddf4" stroke="#000000" points="418.5,-151.9436 418.5,-188.9436 569.5,-188.9436 569.5,-151.9436 418.5,-151.9436"/>
<text text-anchor="middle" x="494" y="-166.7436" font-family="Times,serif" font-size="14.00" fill="#000000">dragen_vcf_output</text>
</a>
</g>
</g>
<!-- file:///tmp/tmpz0u62xhu#optitype_result_matrix -->
<g id="node13" class="node">
<title>file:///tmp/tmpz0u62xhu#optitype_result_matrix</title>
<g id="a_node13"><a xlink:title="Output matrix file from optitype step&#10;">
<polygon fill="#94ddf4" stroke="#000000" points="1395,-151.9436 1395,-188.9436 1575,-188.9436 1575,-151.9436 1395,-151.9436"/>
<text text-anchor="middle" x="1485" y="-166.7436" font-family="Times,serif" font-size="14.00" fill="#000000">optitype_result_matrix</text>
</a>
</g>
</g>
<!-- file:///tmp/tmpz0u62xhu#dragen_output_directory -->
<g id="node14" class="node">
<title>file:///tmp/tmpz0u62xhu#dragen_output_directory</title>
<g id="a_node14"><a xlink:title="Output directory for dragen&#10;">
<polygon fill="#94ddf4" stroke="#000000" points="587.5,-151.9436 587.5,-188.9436 782.5,-188.9436 782.5,-151.9436 587.5,-151.9436"/>
<text text-anchor="middle" x="685" y="-166.7436" font-family="Times,serif" font-size="14.00" fill="#000000">dragen_output_directory</text>
</a>
</g>
</g>
<!-- file:///tmp/tmpz0u62xhu#optitype_coverage_plot -->
<g id="node15" class="node">
<title>file:///tmp/tmpz0u62xhu#optitype_coverage_plot</title>
<g id="a_node15"><a xlink:title="Output coverage pdf from optitype step&#10;">
<polygon fill="#94ddf4" stroke="#000000" points="1193,-151.9436 1193,-188.9436 1377,-188.9436 1377,-151.9436 1193,-151.9436"/>
<text text-anchor="middle" x="1285" y="-166.7436" font-family="Times,serif" font-size="14.00" fill="#000000">optitype_coverage_plot</text>
</a>
</g>
</g>
<!-- file:///tmp/tmpz0u62xhu#multiqc_output_file -->
<g id="node16" class="node">
<title>file:///tmp/tmpz0u62xhu#multiqc_output_file</title>
<g id="a_node16"><a xlink:title="Output html for multiqc&#10;">
<polygon fill="#94ddf4" stroke="#000000" points="1019,-151.9436 1019,-188.9436 1175,-188.9436 1175,-151.9436 1019,-151.9436"/>
<text text-anchor="middle" x="1097" y="-166.7436" font-family="Times,serif" font-size="14.00" fill="#000000">multiqc_output_file</text>
</a>
</g>
</g>
<!-- file:///tmp/tmpz0u62xhu#dragen_germline_step&#45;&gt;file:///tmp/tmpz0u62xhu#dragen_bam_output -->
<g id="edge4" class="edge">
<title>file:///tmp/tmpz0u62xhu#dragen_germline_step&#45;&gt;file:///tmp/tmpz0u62xhu#dragen_bam_output</title>
<path fill="none" stroke="#000000" d="M692.7468,-584.7473C675.8215,-542.7003 630.5162,-438.7892 570,-367.4436 507.1511,-293.3478 412.7017,-228.1027 359.7079,-194.504"/>
<polygon fill="#000000" stroke="#000000" points="361.2703,-191.3521 350.941,-188.9949 357.5459,-197.2791 361.2703,-191.3521"/>
</g>
<!-- file:///tmp/tmpz0u62xhu#dragen_germline_step&#45;&gt;file:///tmp/tmpz0u62xhu#dragen_vcf_output -->
<g id="edge5" class="edge">
<title>file:///tmp/tmpz0u62xhu#dragen_germline_step&#45;&gt;file:///tmp/tmpz0u62xhu#dragen_vcf_output</title>
<path fill="none" stroke="#000000" d="M694.6112,-584.8803C682.5593,-544.377 651.5173,-445.4523 614,-367.4436 583.3889,-303.7946 538.0026,-234.3466 512.7267,-197.2974"/>
<polygon fill="#000000" stroke="#000000" points="515.5979,-195.2956 507.0534,-189.0312 509.8264,-199.2567 515.5979,-195.2956"/>
</g>
<!-- file:///tmp/tmpz0u62xhu#dragen_germline_step&#45;&gt;file:///tmp/tmpz0u62xhu#dragen_output_directory -->
<g id="edge6" class="edge">
<title>file:///tmp/tmpz0u62xhu#dragen_germline_step&#45;&gt;file:///tmp/tmpz0u62xhu#dragen_output_directory</title>
<path fill="none" stroke="#000000" d="M699.3555,-584.8381C696.9995,-516.8294 688.8438,-281.4009 685.993,-199.1089"/>
<polygon fill="#000000" stroke="#000000" points="689.4863,-198.8525 685.6421,-188.9797 682.4905,-199.0949 689.4863,-198.8525"/>
</g>
<!-- file:///tmp/tmpz0u62xhu#dragen_germline_step&#45;&gt;file:///tmp/tmpz0u62xhu#somalier_step -->
<g id="edge1" class="edge">
<title>file:///tmp/tmpz0u62xhu#dragen_germline_step&#45;&gt;file:///tmp/tmpz0u62xhu#somalier_step</title>
<path fill="none" stroke="#000000" d="M679.4525,-584.9423C636.4297,-546.2039 536.7923,-456.4889 487.5711,-412.1694"/>
<polygon fill="#000000" stroke="#000000" points="489.6112,-409.2966 479.8378,-405.2063 484.9273,-414.4986 489.6112,-409.2966"/>
</g>
<!-- file:///tmp/tmpz0u62xhu#dragen_germline_step&#45;&gt;file:///tmp/tmpz0u62xhu#qc_step -->
<g id="edge2" class="edge">
<title>file:///tmp/tmpz0u62xhu#dragen_germline_step&#45;&gt;file:///tmp/tmpz0u62xhu#qc_step</title>
<path fill="none" stroke="#000000" d="M715.3467,-584.9423C747.2811,-546.4436 820.9789,-457.5968 857.9741,-412.997"/>
<polygon fill="#000000" stroke="#000000" points="860.7459,-415.1376 864.4365,-405.2063 855.3582,-410.6685 860.7459,-415.1376"/>
</g>
<!-- file:///tmp/tmpz0u62xhu#dragen_germline_step&#45;&gt;file:///tmp/tmpz0u62xhu#optitype_step -->
<g id="edge3" class="edge">
<title>file:///tmp/tmpz0u62xhu#dragen_germline_step&#45;&gt;file:///tmp/tmpz0u62xhu#optitype_step</title>
<path fill="none" stroke="#000000" d="M749.8768,-584.9423C857.2432,-545.1157 1109.8646,-451.4083 1225.4203,-408.5441"/>
<polygon fill="#000000" stroke="#000000" points="1226.6762,-411.8113 1234.8347,-405.0519 1224.2417,-405.2483 1226.6762,-411.8113"/>
</g>
<!-- file:///tmp/tmpz0u62xhu#somalier_step&#45;&gt;file:///tmp/tmpz0u62xhu#somalier_output_directory -->
<g id="edge7" class="edge">
<title>file:///tmp/tmpz0u62xhu#somalier_step&#45;&gt;file:///tmp/tmpz0u62xhu#somalier_output_directory</title>
<path fill="none" stroke="#000000" d="M429.7175,-367.8406C368.2092,-328.7647 225.6162,-238.1762 157.0994,-194.6479"/>
<polygon fill="#000000" stroke="#000000" points="158.6502,-191.4865 148.3326,-189.0784 154.8965,-197.395 158.6502,-191.4865"/>
</g>
<!-- file:///tmp/tmpz0u62xhu#qc_step&#45;&gt;file:///tmp/tmpz0u62xhu#multiqc_output_directory -->
<g id="edge8" class="edge">
<title>file:///tmp/tmpz0u62xhu#qc_step&#45;&gt;file:///tmp/tmpz0u62xhu#multiqc_output_directory</title>
<path fill="none" stroke="#000000" d="M881.8269,-367.6528C885.5129,-329.7391 893.86,-243.8839 898.224,-198.9969"/>
<polygon fill="#000000" stroke="#000000" points="901.7081,-199.3288 899.1923,-189.037 894.741,-198.6514 901.7081,-199.3288"/>
</g>
<!-- file:///tmp/tmpz0u62xhu#qc_step&#45;&gt;file:///tmp/tmpz0u62xhu#multiqc_output_file -->
<g id="edge9" class="edge">
<title>file:///tmp/tmpz0u62xhu#qc_step&#45;&gt;file:///tmp/tmpz0u62xhu#multiqc_output_file</title>
<path fill="none" stroke="#000000" d="M898.8777,-367.6528C937.7705,-328.9393 1026.8805,-240.24 1071.1128,-196.2115"/>
<polygon fill="#000000" stroke="#000000" points="1073.7022,-198.5724 1078.3204,-189.037 1068.7639,-193.6112 1073.7022,-198.5724"/>
</g>
<!-- file:///tmp/tmpz0u62xhu#optitype_step&#45;&gt;file:///tmp/tmpz0u62xhu#optitype_output_directory -->
<g id="edge13" class="edge">
<title>file:///tmp/tmpz0u62xhu#optitype_step&#45;&gt;file:///tmp/tmpz0u62xhu#optitype_output_directory</title>
<path fill="none" stroke="#000000" d="M1320.3112,-367.8406C1394.9371,-328.5255 1568.5425,-237.0651 1650.5641,-193.8537"/>
<polygon fill="#000000" stroke="#000000" points="1652.4124,-196.836 1659.6283,-189.0784 1649.1496,-190.6429 1652.4124,-196.836"/>
</g>
<!-- file:///tmp/tmpz0u62xhu#optitype_step&#45;&gt;file:///tmp/tmpz0u62xhu#optitype_result_matrix -->
<g id="edge14" class="edge">
<title>file:///tmp/tmpz0u62xhu#optitype_step&#45;&gt;file:///tmp/tmpz0u62xhu#optitype_result_matrix</title>
<path fill="none" stroke="#000000" d="M1302.3988,-367.6528C1338.1707,-329.0193 1420.0345,-240.6063 1460.8876,-196.485"/>
<polygon fill="#000000" stroke="#000000" points="1463.5579,-198.7526 1467.7838,-189.037 1458.4215,-193.9967 1463.5579,-198.7526"/>
</g>
<!-- file:///tmp/tmpz0u62xhu#optitype_step&#45;&gt;file:///tmp/tmpz0u62xhu#optitype_coverage_plot -->
<g id="edge15" class="edge">
<title>file:///tmp/tmpz0u62xhu#optitype_step&#45;&gt;file:///tmp/tmpz0u62xhu#optitype_coverage_plot</title>
<path fill="none" stroke="#000000" d="M1285,-367.6528C1285,-329.8191 1285,-244.2459 1285,-199.2816"/>
<polygon fill="#000000" stroke="#000000" points="1288.5001,-199.037 1285,-189.037 1281.5001,-199.0371 1288.5001,-199.037"/>
</g>
<!-- file:///tmp/tmpz0u62xhu#create_dummy_file_step -->
<g id="node21" class="node">
<title>file:///tmp/tmpz0u62xhu#create_dummy_file_step</title>
<g id="a_node21"><a xlink:href="https://github.com/umccr/cwl-ica/blob/beta-release/.github/catalogue/docs/tools/custom-touch-file/1.0.0/custom-touch-file__1.0.0.md" xlink:title="Intermediate step for letting multiqc&#45;interop be placed in stream mode&#10;">
<polygon fill="#fafad2" stroke="#000000" points="926.5,-584.9436 926.5,-621.9436 1189.5,-621.9436 1189.5,-584.9436 926.5,-584.9436"/>
<text text-anchor="middle" x="1058" y="-599.7436" font-family="Times,serif" font-size="14.00" fill="#000000">custom&#45;create&#45;dummy&#45;file v(1.0.0)</text>
</a>
</g>
</g>
<!-- file:///tmp/tmpz0u62xhu#create_dummy_file_step&#45;&gt;file:///tmp/tmpz0u62xhu#qc_step -->
<g id="edge10" class="edge">
<title>file:///tmp/tmpz0u62xhu#create_dummy_file_step&#45;&gt;file:///tmp/tmpz0u62xhu#qc_step</title>
<path fill="none" stroke="#000000" d="M1042.8238,-584.9423C1011.2442,-546.4436 938.3653,-457.5968 901.7812,-412.997"/>
<polygon fill="#000000" stroke="#000000" points="904.4388,-410.7182 895.3906,-405.2063 899.0266,-415.1577 904.4388,-410.7182"/>
</g>
<!-- file:///tmp/tmpz0u62xhu#get_faidx_file_step&#45;&gt;file:///tmp/tmpz0u62xhu#get_hla_regions_bed_step -->
<g id="edge11" class="edge">
<title>file:///tmp/tmpz0u62xhu#get_faidx_file_step&#45;&gt;file:///tmp/tmpz0u62xhu#get_hla_regions_bed_step</title>
<path fill="none" stroke="#000000" d="M1431.3243,-810.5637C1423.6213,-770.9984 1405.7446,-679.1772 1396.6027,-632.2211"/>
<polygon fill="#000000" stroke="#000000" points="1399.9809,-631.2576 1394.6343,-622.1108 1393.1099,-632.5954 1399.9809,-631.2576"/>
</g>
<!-- file:///tmp/tmpz0u62xhu#get_hla_regions_bed_step&#45;&gt;file:///tmp/tmpz0u62xhu#optitype_step -->
<g id="edge12" class="edge">
<title>file:///tmp/tmpz0u62xhu#get_hla_regions_bed_step&#45;&gt;file:///tmp/tmpz0u62xhu#optitype_step</title>
<path fill="none" stroke="#000000" d="M1381.9625,-584.9423C1363.3518,-546.8429 1320.6547,-459.4347 1298.6557,-414.3991"/>
<polygon fill="#000000" stroke="#000000" points="1301.6992,-412.6554 1294.1652,-405.2063 1295.4095,-415.7278 1301.6992,-412.6554"/>
</g>
</g>
</svg>
