<?xml version="1.0" encoding="UTF-8" standalone="no"?>
<!DOCTYPE svg PUBLIC "-//W3C//DTD SVG 1.1//EN"
 "http://www.w3.org/Graphics/SVG/1.1/DTD/svg11.dtd">
<!-- Generated by graphviz version 2.40.1 (20161225.0304)
 -->
<!-- Title: G Pages: 1 -->
<svg width="1822pt" height="940pt"
 viewBox="0.00 0.00 1822.00 940.40" xmlns="http://www.w3.org/2000/svg" xmlns:xlink="http://www.w3.org/1999/xlink">
<g id="graph0" class="graph" transform="scale(1 1) rotate(0) translate(4 936.396)">
<title>G</title>
<polygon fill="#eeeeee" stroke="transparent" points="-4,4 -4,-936.396 1818,-936.396 1818,4 -4,4"/>
<g id="clust1" class="cluster">
<title>cluster_inputs</title>
<polygon fill="#eeeeee" stroke="#000000" stroke-dasharray="5,2" points="313,-683.1707 313,-908.9395 1389,-908.9395 1389,-683.1707 313,-683.1707"/>
<text text-anchor="middle" x="1321" y="-690.9707" font-family="Times,serif" font-size="14.00" fill="#000000">Workflow Inputs</text>
</g>
<g id="clust2" class="cluster">
<title>cluster_outputs</title>
<polygon fill="#eeeeee" stroke="#000000" stroke-dasharray="5,2" points="8,-23.4565 8,-249.2253 1806,-249.2253 1806,-23.4565 8,-23.4565"/>
<text text-anchor="middle" x="1732" y="-31.2565" font-family="Times,serif" font-size="14.00" fill="#000000">Workflow Outputs</text>
</g>
<!-- file:///tmp/tmpv_joqsay#hla_reference_fasta -->
<g id="node1" class="node">
<title>file:///tmp/tmpv_joqsay#hla_reference_fasta</title>
<g id="a_node1"><a xlink:title="Reference to align / filter large output bam to before running through optitype tool&#10;">
<polygon fill="#94ddf4" stroke="#000000" points="1071,-810.9565 1071,-847.9565 1229,-847.9565 1229,-810.9565 1071,-810.9565"/>
<text text-anchor="middle" x="1150" y="-825.7565" font-family="Times,serif" font-size="14.00" fill="#000000">hla_reference_fasta</text>
</a>
</g>
</g>
<!-- file:///tmp/tmpv_joqsay#optitype_step -->
<g id="node20" class="node">
<title>file:///tmp/tmpv_joqsay#optitype_step</title>
<g id="a_node20"><a xlink:href="https://github.com/umccr/cwl-ica/blob/beta-release/.github/catalogue/docs/workflows/optitype-pipeline/1.3.5/optitype-pipeline__1.3.5.md" xlink:title="Run the optitype pipeline&#10;">
<polygon fill="#ee7ae9" stroke="#000000" points="1185.5,-368.9565 1185.5,-405.9565 1382.5,-405.9565 1382.5,-368.9565 1185.5,-368.9565"/>
<text text-anchor="middle" x="1284" y="-383.7565" font-family="Times,serif" font-size="14.00" fill="#000000">optitype&#45;pipeline v(1.3.5)</text>
</a>
</g>
</g>
<!-- file:///tmp/tmpv_joqsay#hla_reference_fasta&#45;&gt;file:///tmp/tmpv_joqsay#optitype_step -->
<g id="edge16" class="edge">
<title>file:///tmp/tmpv_joqsay#hla_reference_fasta&#45;&gt;file:///tmp/tmpv_joqsay#optitype_step</title>
<path fill="none" stroke="#000000" d="M1152.2787,-810.7533C1157.6161,-769.424 1172.4465,-667.4826 1198,-585.4565 1217.5441,-522.7203 1250.6575,-453.042 1269.5856,-415.3589"/>
<polygon fill="#000000" stroke="#000000" points="1272.904,-416.5533 1274.3003,-406.0508 1266.6594,-413.3902 1272.904,-416.5533"/>
</g>
<!-- file:///tmp/tmpv_joqsay#sample_name -->
<g id="node2" class="node">
<title>file:///tmp/tmpv_joqsay#sample_name</title>
<g id="a_node2"><a xlink:title="What is the name of the sample?&#10;Used to pre&#45;fill out many other inputs.&#10;">
<polygon fill="#94ddf4" stroke="#000000" points="605,-810.9565 605,-847.9565 719,-847.9565 719,-810.9565 605,-810.9565"/>
<text text-anchor="middle" x="662" y="-825.7565" font-family="Times,serif" font-size="14.00" fill="#000000">sample_name</text>
</a>
</g>
</g>
<!-- file:///tmp/tmpv_joqsay#dragen_germline_step -->
<g id="node17" class="node">
<title>file:///tmp/tmpv_joqsay#dragen_germline_step</title>
<g id="a_node17"><a xlink:href="https://github.com/umccr/cwl-ica/blob/beta-release/.github/catalogue/docs/workflows/dragen-germline-pipeline/3.7.5/dragen-germline-pipeline__3.7.5.md" xlink:title="Runs the dragen germline 3.7.5 workflow&#10;">
<polygon fill="#ee7ae9" stroke="#000000" points="708,-585.9565 708,-622.9565 964,-622.9565 964,-585.9565 708,-585.9565"/>
<text text-anchor="middle" x="836" y="-600.7565" font-family="Times,serif" font-size="14.00" fill="#000000">dragen&#45;germline&#45;pipeline v(3.7.5)</text>
</a>
</g>
</g>
<!-- file:///tmp/tmpv_joqsay#sample_name&#45;&gt;file:///tmp/tmpv_joqsay#dragen_germline_step -->
<g id="edge17" class="edge">
<title>file:///tmp/tmpv_joqsay#sample_name&#45;&gt;file:///tmp/tmpv_joqsay#dragen_germline_step</title>
<path fill="none" stroke="#000000" d="M672.59,-810.6601C700.0318,-770.6065 772.4112,-676.761 811.1112,-630.7832"/>
<polygon fill="#000000" stroke="#000000" points="813.8845,-632.9248 817.7007,-623.0411 808.5539,-628.3877 813.8845,-632.9248"/>
</g>
<!-- file:///tmp/tmpv_joqsay#sample_name&#45;&gt;file:///tmp/tmpv_joqsay#dragen_germline_step -->
<g id="edge18" class="edge">
<title>file:///tmp/tmpv_joqsay#sample_name&#45;&gt;file:///tmp/tmpv_joqsay#dragen_germline_step</title>
<path fill="none" stroke="#000000" d="M680.4818,-810.6601C714.8466,-770.7724 787.1559,-677.5373 819.7655,-631.3568"/>
<polygon fill="#000000" stroke="#000000" points="822.7136,-633.2479 825.555,-623.0411 816.9688,-629.2482 822.7136,-633.2479"/>
</g>
<!-- file:///tmp/tmpv_joqsay#qc_step -->
<g id="node18" class="node">
<title>file:///tmp/tmpv_joqsay#qc_step</title>
<g id="a_node18"><a xlink:href="https://github.com/umccr/cwl-ica/blob/beta-release/.github/catalogue/docs/tools/multiqc/1.10.1/multiqc__1.10.1.md" xlink:title="Runs multiqc on the run folder&#10;Uses a dummy file so that the folder can be placed in &#39;stream&#39; mode.&#10;">
<polygon fill="#fafad2" stroke="#000000" points="592,-368.9565 592,-405.9565 732,-405.9565 732,-368.9565 592,-368.9565"/>
<text text-anchor="middle" x="662" y="-383.7565" font-family="Times,serif" font-size="14.00" fill="#000000">multiqc v(1.10.1)</text>
</a>
</g>
</g>
<!-- file:///tmp/tmpv_joqsay#sample_name&#45;&gt;file:///tmp/tmpv_joqsay#qc_step -->
<g id="edge19" class="edge">
<title>file:///tmp/tmpv_joqsay#sample_name&#45;&gt;file:///tmp/tmpv_joqsay#qc_step</title>
<path fill="none" stroke="#000000" d="M656.1334,-810.7466C646.3942,-741.6424 645.9745,-500.4602 654.874,-416.5219"/>
<polygon fill="#000000" stroke="#000000" points="658.3699,-416.7666 656.098,-406.4183 651.4207,-415.9247 658.3699,-416.7666"/>
</g>
<!-- file:///tmp/tmpv_joqsay#sample_name&#45;&gt;file:///tmp/tmpv_joqsay#qc_step -->
<g id="edge20" class="edge">
<title>file:///tmp/tmpv_joqsay#sample_name&#45;&gt;file:///tmp/tmpv_joqsay#qc_step</title>
<path fill="none" stroke="#000000" d="M662,-810.7466C662,-741.6424 662,-500.4602 662,-416.5219"/>
<polygon fill="#000000" stroke="#000000" points="665.5001,-416.4182 662,-406.4183 658.5001,-416.4183 665.5001,-416.4182"/>
</g>
<!-- file:///tmp/tmpv_joqsay#sample_name&#45;&gt;file:///tmp/tmpv_joqsay#qc_step -->
<g id="edge21" class="edge">
<title>file:///tmp/tmpv_joqsay#sample_name&#45;&gt;file:///tmp/tmpv_joqsay#qc_step</title>
<path fill="none" stroke="#000000" d="M667.8666,-810.7466C677.6058,-741.6424 678.0255,-500.4602 669.126,-416.5219"/>
<polygon fill="#000000" stroke="#000000" points="672.5793,-415.9247 667.902,-406.4183 665.6301,-416.7666 672.5793,-415.9247"/>
</g>
<!-- file:///tmp/tmpv_joqsay#somalier_step -->
<g id="node19" class="node">
<title>file:///tmp/tmpv_joqsay#somalier_step</title>
<g id="a_node19"><a xlink:href="https://github.com/umccr/cwl-ica/blob/beta-release/.github/catalogue/docs/tools/somalier-extract/0.2.13/somalier-extract__0.2.13.md" xlink:title="Runs the somalier extract function to call the fingerprint on the germline bam file&#10;">
<polygon fill="#fafad2" stroke="#000000" points="213.5,-368.9565 213.5,-405.9565 416.5,-405.9565 416.5,-368.9565 213.5,-368.9565"/>
<text text-anchor="middle" x="315" y="-383.7565" font-family="Times,serif" font-size="14.00" fill="#000000">somalier&#45;extract v(0.2.13)</text>
</a>
</g>
</g>
<!-- file:///tmp/tmpv_joqsay#sample_name&#45;&gt;file:///tmp/tmpv_joqsay#somalier_step -->
<g id="edge22" class="edge">
<title>file:///tmp/tmpv_joqsay#sample_name&#45;&gt;file:///tmp/tmpv_joqsay#somalier_step</title>
<path fill="none" stroke="#000000" d="M630.5494,-810.8446C617.1379,-801.1854 601.4702,-789.3653 587,-779.4565 478.0042,-704.8189 405.0833,-734.8029 334,-623.4565 292.6157,-558.6313 296.653,-463.0867 305.3814,-415.9273"/>
<polygon fill="#000000" stroke="#000000" points="308.8174,-416.5947 307.4246,-406.0918 301.9637,-415.1708 308.8174,-416.5947"/>
</g>
<!-- file:///tmp/tmpv_joqsay#sample_name&#45;&gt;file:///tmp/tmpv_joqsay#somalier_step -->
<g id="edge23" class="edge">
<title>file:///tmp/tmpv_joqsay#sample_name&#45;&gt;file:///tmp/tmpv_joqsay#somalier_step</title>
<path fill="none" stroke="#000000" d="M646.6012,-810.8446C635.1379,-801.1854 619.4702,-789.3653 605,-779.4565 496.0042,-704.8189 423.0833,-734.8029 352,-623.4565 310.7027,-558.7675 314.6363,-463.488 316.4214,-416.2252"/>
<polygon fill="#000000" stroke="#000000" points="319.924,-416.2084 316.777,-406.0918 312.9283,-415.9628 319.924,-416.2084"/>
</g>
<!-- file:///tmp/tmpv_joqsay#sample_name&#45;&gt;file:///tmp/tmpv_joqsay#optitype_step -->
<g id="edge24" class="edge">
<title>file:///tmp/tmpv_joqsay#sample_name&#45;&gt;file:///tmp/tmpv_joqsay#optitype_step</title>
<path fill="none" stroke="#000000" d="M685.4839,-810.9304C697.9375,-801.2946 713.6018,-789.4697 728,-779.4565 833.9799,-705.7533 867.0498,-697.2023 973,-623.4565 1078.0334,-550.3488 1197.3048,-456.7071 1252.6793,-412.5872"/>
<polygon fill="#000000" stroke="#000000" points="1255.0583,-415.1667 1260.6915,-406.1935 1250.6921,-409.6952 1255.0583,-415.1667"/>
</g>
<!-- file:///tmp/tmpv_joqsay#sites_somalier -->
<g id="node3" class="node">
<title>file:///tmp/tmpv_joqsay#sites_somalier</title>
<g id="a_node3"><a xlink:title="gzipped vcf file. Required for somalier sites&#10;">
<polygon fill="#94ddf4" stroke="#000000" points="321.5,-810.9565 321.5,-847.9565 440.5,-847.9565 440.5,-810.9565 321.5,-810.9565"/>
<text text-anchor="middle" x="381" y="-825.7565" font-family="Times,serif" font-size="14.00" fill="#000000">sites_somalier</text>
</a>
</g>
</g>
<!-- file:///tmp/tmpv_joqsay#sites_somalier&#45;&gt;file:///tmp/tmpv_joqsay#somalier_step -->
<g id="edge25" class="edge">
<title>file:///tmp/tmpv_joqsay#sites_somalier&#45;&gt;file:///tmp/tmpv_joqsay#somalier_step</title>
<path fill="none" stroke="#000000" d="M364.3698,-810.754C335.1829,-776.5304 275.7716,-700.2573 254,-623.4565 232.7188,-548.3853 273.7379,-459.0262 298.3533,-414.9053"/>
<polygon fill="#000000" stroke="#000000" points="301.4061,-416.6174 303.3287,-406.1984 295.3284,-413.1444 301.4061,-416.6174"/>
</g>
<!-- file:///tmp/tmpv_joqsay#reference_fasta -->
<g id="node4" class="node">
<title>file:///tmp/tmpv_joqsay#reference_fasta</title>
<g id="a_node4"><a xlink:title="The reference fasta file with a .fai index.&#10;Required for somalier and optitype steps&#10;">
<polygon fill="#94ddf4" stroke="#000000" points="459,-810.9565 459,-847.9565 587,-847.9565 587,-810.9565 459,-810.9565"/>
<text text-anchor="middle" x="523" y="-825.7565" font-family="Times,serif" font-size="14.00" fill="#000000">reference_fasta</text>
</a>
</g>
</g>
<!-- file:///tmp/tmpv_joqsay#reference_fasta&#45;&gt;file:///tmp/tmpv_joqsay#somalier_step -->
<g id="edge26" class="edge">
<title>file:///tmp/tmpv_joqsay#reference_fasta&#45;&gt;file:///tmp/tmpv_joqsay#somalier_step</title>
<path fill="none" stroke="#000000" d="M497.4137,-810.9307C441.962,-770.152 313.9183,-672.3704 292,-623.4565 260.8561,-553.9543 286.7391,-461.6516 303.4896,-415.8029"/>
<polygon fill="#000000" stroke="#000000" points="306.847,-416.8191 307.1048,-406.2274 300.2982,-414.3466 306.847,-416.8191"/>
</g>
<!-- file:///tmp/tmpv_joqsay#get_faidx_file_step -->
<g id="node23" class="node">
<title>file:///tmp/tmpv_joqsay#get_faidx_file_step</title>
<g id="a_node23"><a xlink:href="https://github.com/umccr/cwl-ica/blob/beta-release/.github/catalogue/docs/expressions/get-faidx-file-from-reference-file/1.0.0/get-faidx-file-from-reference-file__1.0.0.md" xlink:title="Get the index of the reference fasta as its own file.&#10;Used by the get&#45;regions&#45;bed workflow&#10;">
<polygon fill="#ee9a00" stroke="#000000" points="1398.5,-810.9565 1398.5,-847.9565 1703.5,-847.9565 1703.5,-810.9565 1398.5,-810.9565"/>
<text text-anchor="middle" x="1551" y="-825.7565" font-family="Times,serif" font-size="14.00" fill="#000000">get&#45;faidx&#45;file&#45;from&#45;reference&#45;file v(1.0.0)</text>
</a>
</g>
</g>
<!-- file:///tmp/tmpv_joqsay#reference_fasta&#45;&gt;file:///tmp/tmpv_joqsay#get_faidx_file_step -->
<g id="edge27" class="edge">
<title>file:///tmp/tmpv_joqsay#reference_fasta&#45;&gt;file:///tmp/tmpv_joqsay#get_faidx_file_step</title>
<path fill="none" stroke="#000000" d="M548.899,-848.0852C564.3653,-858.0448 584.8653,-869.2948 605,-874.4565 688.8443,-895.9506 1298.1929,-885.8148 1384,-874.4565 1418.5158,-869.8877 1456.0248,-860.2259 1486.7346,-851.0219"/>
<polygon fill="#000000" stroke="#000000" points="1487.9105,-854.3225 1496.454,-848.0568 1485.8679,-847.6272 1487.9105,-854.3225"/>
</g>
<!-- file:///tmp/tmpv_joqsay#fastq_list_rows -->
<g id="node5" class="node">
<title>file:///tmp/tmpv_joqsay#fastq_list_rows</title>
<g id="a_node5"><a xlink:title="The row of fastq lists.&#10; &#160;Each row has the following attributes:&#10; &#160;&#160;&#160;* RGID&#10; &#160;&#160;&#160;* RGLB&#10; &#160;&#160;&#160;* RGSM&#10; &#160;&#160;&#160;* Lane&#10; &#160;&#160;&#160;* Read1File&#10; &#160;&#160;&#160;* Read2File (optional)&#10;">
<polygon fill="#94ddf4" stroke="#000000" points="927.5,-810.9565 927.5,-847.9565 1052.5,-847.9565 1052.5,-810.9565 927.5,-810.9565"/>
<text text-anchor="middle" x="990" y="-825.7565" font-family="Times,serif" font-size="14.00" fill="#000000">fastq_list_rows</text>
</a>
</g>
</g>
<!-- file:///tmp/tmpv_joqsay#fastq_list_rows&#45;&gt;file:///tmp/tmpv_joqsay#dragen_germline_step -->
<g id="edge28" class="edge">
<title>file:///tmp/tmpv_joqsay#fastq_list_rows&#45;&gt;file:///tmp/tmpv_joqsay#dragen_germline_step</title>
<path fill="none" stroke="#000000" d="M977.1349,-810.6601C949.834,-770.7724 886.0197,-677.5373 854.4117,-631.3568"/>
<polygon fill="#000000" stroke="#000000" points="857.2566,-629.3165 848.7202,-623.0411 851.4801,-633.2702 857.2566,-629.3165"/>
</g>
<!-- file:///tmp/tmpv_joqsay#genome_version -->
<g id="node6" class="node">
<title>file:///tmp/tmpv_joqsay#genome_version</title>
<g id="a_node6"><a xlink:title="Either hg38 (default) or GRCh37?&#10;Used to set chromosome regions to filter down bam file for optitype workflow&#10;">
<polygon fill="#94ddf4" stroke="#000000" points="1247.5,-810.9565 1247.5,-847.9565 1380.5,-847.9565 1380.5,-810.9565 1247.5,-810.9565"/>
<text text-anchor="middle" x="1314" y="-825.7565" font-family="Times,serif" font-size="14.00" fill="#000000">genome_version</text>
</a>
</g>
</g>
<!-- file:///tmp/tmpv_joqsay#get_hla_regions_bed_step -->
<g id="node22" class="node">
<title>file:///tmp/tmpv_joqsay#get_hla_regions_bed_step</title>
<g id="a_node22"><a xlink:href="https://github.com/umccr/cwl-ica/blob/beta-release/.github/catalogue/docs/workflows/get-hla-regions-bed/1.0.0/get-hla-regions-bed__1.0.0.md" xlink:title="Get the hla regions for input into the optitype workflow&#10;">
<polygon fill="#ee7ae9" stroke="#000000" points="1207,-585.9565 1207,-622.9565 1421,-622.9565 1421,-585.9565 1207,-585.9565"/>
<text text-anchor="middle" x="1314" y="-600.7565" font-family="Times,serif" font-size="14.00" fill="#000000">get&#45;hla&#45;regions&#45;bed v(1.0.0)</text>
</a>
</g>
</g>
<!-- file:///tmp/tmpv_joqsay#genome_version&#45;&gt;file:///tmp/tmpv_joqsay#get_hla_regions_bed_step -->
<g id="edge29" class="edge">
<title>file:///tmp/tmpv_joqsay#genome_version&#45;&gt;file:///tmp/tmpv_joqsay#get_hla_regions_bed_step</title>
<path fill="none" stroke="#000000" d="M1314,-810.6601C1314,-771.2699 1314,-679.855 1314,-633.1067"/>
<polygon fill="#000000" stroke="#000000" points="1317.5001,-633.0411 1314,-623.0411 1310.5001,-633.0412 1317.5001,-633.0411"/>
</g>
<!-- file:///tmp/tmpv_joqsay#reference_tar_dragen -->
<g id="node7" class="node">
<title>file:///tmp/tmpv_joqsay#reference_tar_dragen</title>
<g id="a_node7"><a xlink:title="Path to ref data tarball&#10;">
<polygon fill="#94ddf4" stroke="#000000" points="737,-810.9565 737,-847.9565 909,-847.9565 909,-810.9565 737,-810.9565"/>
<text text-anchor="middle" x="823" y="-825.7565" font-family="Times,serif" font-size="14.00" fill="#000000">reference_tar_dragen</text>
</a>
</g>
</g>
<!-- file:///tmp/tmpv_joqsay#reference_tar_dragen&#45;&gt;file:///tmp/tmpv_joqsay#dragen_germline_step -->
<g id="edge30" class="edge">
<title>file:///tmp/tmpv_joqsay#reference_tar_dragen&#45;&gt;file:///tmp/tmpv_joqsay#dragen_germline_step</title>
<path fill="none" stroke="#000000" d="M824.086,-810.6601C826.3619,-771.2699 831.6436,-679.855 834.3447,-633.1067"/>
<polygon fill="#000000" stroke="#000000" points="837.8435,-633.2264 834.9262,-623.0411 830.8551,-632.8226 837.8435,-633.2264"/>
</g>
<!-- file:///tmp/tmpv_joqsay#multiqc_output_directory -->
<g id="node8" class="node">
<title>file:///tmp/tmpv_joqsay#multiqc_output_directory</title>
<g id="a_node8"><a xlink:title="Output directory with multiqc data and html&#10;">
<polygon fill="#94ddf4" stroke="#000000" points="414,-151.9565 414,-188.9565 614,-188.9565 614,-151.9565 414,-151.9565"/>
<text text-anchor="middle" x="514" y="-166.7565" font-family="Times,serif" font-size="14.00" fill="#000000">multiqc_output_directory</text>
</a>
</g>
</g>
<!-- file:///tmp/tmpv_joqsay#optitype_coverage_plot -->
<g id="node9" class="node">
<title>file:///tmp/tmpv_joqsay#optitype_coverage_plot</title>
<g id="a_node9"><a xlink:title="Output coverage pdf from optitype step&#10;">
<polygon fill="#94ddf4" stroke="#000000" points="1614,-151.9565 1614,-188.9565 1798,-188.9565 1798,-151.9565 1614,-151.9565"/>
<text text-anchor="middle" x="1706" y="-166.7565" font-family="Times,serif" font-size="14.00" fill="#000000">optitype_coverage_plot</text>
</a>
</g>
</g>
<!-- file:///tmp/tmpv_joqsay#somalier_output_directory -->
<g id="node10" class="node">
<title>file:///tmp/tmpv_joqsay#somalier_output_directory</title>
<g id="a_node10"><a xlink:title="Output directory from somalier step&#10;">
<polygon fill="#94ddf4" stroke="#000000" points="16,-151.9565 16,-188.9565 222,-188.9565 222,-151.9565 16,-151.9565"/>
<text text-anchor="middle" x="119" y="-166.7565" font-family="Times,serif" font-size="14.00" fill="#000000">somalier_output_directory</text>
</a>
</g>
</g>
<!-- file:///tmp/tmpv_joqsay#dragen_bam_output -->
<g id="node11" class="node">
<title>file:///tmp/tmpv_joqsay#dragen_bam_output</title>
<g id="a_node11"><a xlink:title="Output alignment file for dragen germline run&#10;">
<polygon fill="#94ddf4" stroke="#000000" points="846,-151.9565 846,-188.9565 1006,-188.9565 1006,-151.9565 846,-151.9565"/>
<text text-anchor="middle" x="926" y="-166.7565" font-family="Times,serif" font-size="14.00" fill="#000000">dragen_bam_output</text>
</a>
</g>
</g>
<!-- file:///tmp/tmpv_joqsay#optitype_output_directory -->
<g id="node12" class="node">
<title>file:///tmp/tmpv_joqsay#optitype_output_directory</title>
<g id="a_node12"><a xlink:title="Output directory for optitype files&#10;">
<polygon fill="#94ddf4" stroke="#000000" points="1392,-151.9565 1392,-188.9565 1596,-188.9565 1596,-151.9565 1392,-151.9565"/>
<text text-anchor="middle" x="1494" y="-166.7565" font-family="Times,serif" font-size="14.00" fill="#000000">optitype_output_directory</text>
</a>
</g>
</g>
<!-- file:///tmp/tmpv_joqsay#multiqc_output_file -->
<g id="node13" class="node">
<title>file:///tmp/tmpv_joqsay#multiqc_output_file</title>
<g id="a_node13"><a xlink:title="Output html for multiqc&#10;">
<polygon fill="#94ddf4" stroke="#000000" points="240,-151.9565 240,-188.9565 396,-188.9565 396,-151.9565 240,-151.9565"/>
<text text-anchor="middle" x="318" y="-166.7565" font-family="Times,serif" font-size="14.00" fill="#000000">multiqc_output_file</text>
</a>
</g>
</g>
<!-- file:///tmp/tmpv_joqsay#dragen_vcf_output -->
<g id="node14" class="node">
<title>file:///tmp/tmpv_joqsay#dragen_vcf_output</title>
<g id="a_node14"><a xlink:title="Output vcf file for dragen germline run&#10;">
<polygon fill="#94ddf4" stroke="#000000" points="1024.5,-151.9565 1024.5,-188.9565 1175.5,-188.9565 1175.5,-151.9565 1024.5,-151.9565"/>
<text text-anchor="middle" x="1100" y="-166.7565" font-family="Times,serif" font-size="14.00" fill="#000000">dragen_vcf_output</text>
</a>
</g>
</g>
<!-- file:///tmp/tmpv_joqsay#optitype_result_matrix -->
<g id="node15" class="node">
<title>file:///tmp/tmpv_joqsay#optitype_result_matrix</title>
<g id="a_node15"><a xlink:title="Output matrix file from optitype step&#10;">
<polygon fill="#94ddf4" stroke="#000000" points="1194,-151.9565 1194,-188.9565 1374,-188.9565 1374,-151.9565 1194,-151.9565"/>
<text text-anchor="middle" x="1284" y="-166.7565" font-family="Times,serif" font-size="14.00" fill="#000000">optitype_result_matrix</text>
</a>
</g>
</g>
<!-- file:///tmp/tmpv_joqsay#dragen_output_directory -->
<g id="node16" class="node">
<title>file:///tmp/tmpv_joqsay#dragen_output_directory</title>
<g id="a_node16"><a xlink:title="Output directory for dragen&#10;">
<polygon fill="#94ddf4" stroke="#000000" points="632.5,-151.9565 632.5,-188.9565 827.5,-188.9565 827.5,-151.9565 632.5,-151.9565"/>
<text text-anchor="middle" x="730" y="-166.7565" font-family="Times,serif" font-size="14.00" fill="#000000">dragen_output_directory</text>
</a>
</g>
</g>
<!-- file:///tmp/tmpv_joqsay#dragen_germline_step&#45;&gt;file:///tmp/tmpv_joqsay#dragen_bam_output -->
<g id="edge4" class="edge">
<title>file:///tmp/tmpv_joqsay#dragen_germline_step&#45;&gt;file:///tmp/tmpv_joqsay#dragen_bam_output</title>
<path fill="none" stroke="#000000" d="M839.8672,-585.8081C854.0174,-517.5727 903.0372,-281.1883 920.0941,-198.936"/>
<polygon fill="#000000" stroke="#000000" points="923.5437,-199.5379 922.1472,-189.0355 916.6895,-198.1164 923.5437,-199.5379"/>
</g>
<!-- file:///tmp/tmpv_joqsay#dragen_germline_step&#45;&gt;file:///tmp/tmpv_joqsay#dragen_vcf_output -->
<g id="edge5" class="edge">
<title>file:///tmp/tmpv_joqsay#dragen_germline_step&#45;&gt;file:///tmp/tmpv_joqsay#dragen_vcf_output</title>
<path fill="none" stroke="#000000" d="M847.3438,-585.8081C889.0625,-517.2249 1034.1108,-278.7743 1083.4338,-197.6903"/>
<polygon fill="#000000" stroke="#000000" points="1086.4917,-199.3979 1088.6985,-189.0355 1080.5113,-195.76 1086.4917,-199.3979"/>
</g>
<!-- file:///tmp/tmpv_joqsay#dragen_germline_step&#45;&gt;file:///tmp/tmpv_joqsay#dragen_output_directory -->
<g id="edge6" class="edge">
<title>file:///tmp/tmpv_joqsay#dragen_germline_step&#45;&gt;file:///tmp/tmpv_joqsay#dragen_output_directory</title>
<path fill="none" stroke="#000000" d="M831.4453,-585.8081C814.7795,-517.5727 757.0451,-281.1883 736.9558,-198.936"/>
<polygon fill="#000000" stroke="#000000" points="740.3105,-197.9195 734.5377,-189.0355 733.5104,-199.5804 740.3105,-197.9195"/>
</g>
<!-- file:///tmp/tmpv_joqsay#dragen_germline_step&#45;&gt;file:///tmp/tmpv_joqsay#qc_step -->
<g id="edge1" class="edge">
<title>file:///tmp/tmpv_joqsay#dragen_germline_step&#45;&gt;file:///tmp/tmpv_joqsay#qc_step</title>
<path fill="none" stroke="#000000" d="M821.1649,-585.9552C790.359,-547.5364 719.3492,-458.9782 683.5147,-414.2881"/>
<polygon fill="#000000" stroke="#000000" points="686.0311,-411.8314 677.0447,-406.2192 680.5699,-416.2104 686.0311,-411.8314"/>
</g>
<!-- file:///tmp/tmpv_joqsay#dragen_germline_step&#45;&gt;file:///tmp/tmpv_joqsay#somalier_step -->
<g id="edge2" class="edge">
<title>file:///tmp/tmpv_joqsay#dragen_germline_step&#45;&gt;file:///tmp/tmpv_joqsay#somalier_step</title>
<path fill="none" stroke="#000000" d="M791.5798,-585.9552C696.2475,-546.2486 472.3295,-452.9853 368.9948,-409.9457"/>
<polygon fill="#000000" stroke="#000000" points="370.2541,-406.6788 359.6771,-406.0648 367.5627,-413.1407 370.2541,-406.6788"/>
</g>
<!-- file:///tmp/tmpv_joqsay#dragen_germline_step&#45;&gt;file:///tmp/tmpv_joqsay#optitype_step -->
<g id="edge3" class="edge">
<title>file:///tmp/tmpv_joqsay#dragen_germline_step&#45;&gt;file:///tmp/tmpv_joqsay#optitype_step</title>
<path fill="none" stroke="#000000" d="M874.1962,-585.9552C955.8409,-546.4086 1147.1654,-453.7358 1236.4918,-410.4683"/>
<polygon fill="#000000" stroke="#000000" points="1238.1088,-413.5741 1245.5828,-406.0648 1235.0572,-407.2742 1238.1088,-413.5741"/>
</g>
<!-- file:///tmp/tmpv_joqsay#qc_step&#45;&gt;file:///tmp/tmpv_joqsay#multiqc_output_directory -->
<g id="edge7" class="edge">
<title>file:///tmp/tmpv_joqsay#qc_step&#45;&gt;file:///tmp/tmpv_joqsay#multiqc_output_directory</title>
<path fill="none" stroke="#000000" d="M649.3816,-368.9552C623.2334,-330.6162 563.0308,-242.3462 532.4904,-197.5674"/>
<polygon fill="#000000" stroke="#000000" points="535.3228,-195.5086 526.7967,-189.2192 529.5397,-199.4528 535.3228,-195.5086"/>
</g>
<!-- file:///tmp/tmpv_joqsay#qc_step&#45;&gt;file:///tmp/tmpv_joqsay#multiqc_output_file -->
<g id="edge8" class="edge">
<title>file:///tmp/tmpv_joqsay#qc_step&#45;&gt;file:///tmp/tmpv_joqsay#multiqc_output_file</title>
<path fill="none" stroke="#000000" d="M632.6708,-368.9552C570.501,-329.7376 425.5084,-238.2743 356.2078,-194.5585"/>
<polygon fill="#000000" stroke="#000000" points="358.0688,-191.5943 347.7436,-189.2192 354.3341,-197.5148 358.0688,-191.5943"/>
</g>
<!-- file:///tmp/tmpv_joqsay#somalier_step&#45;&gt;file:///tmp/tmpv_joqsay#somalier_output_directory -->
<g id="edge10" class="edge">
<title>file:///tmp/tmpv_joqsay#somalier_step&#45;&gt;file:///tmp/tmpv_joqsay#somalier_output_directory</title>
<path fill="none" stroke="#000000" d="M298.2892,-368.9552C263.444,-330.3766 182.9343,-241.2409 142.7335,-196.7329"/>
<polygon fill="#000000" stroke="#000000" points="145.2472,-194.2942 135.9469,-189.2192 140.0525,-198.9863 145.2472,-194.2942"/>
</g>
<!-- file:///tmp/tmpv_joqsay#optitype_step&#45;&gt;file:///tmp/tmpv_joqsay#optitype_coverage_plot -->
<g id="edge11" class="edge">
<title>file:///tmp/tmpv_joqsay#optitype_step&#45;&gt;file:///tmp/tmpv_joqsay#optitype_coverage_plot</title>
<path fill="none" stroke="#000000" d="M1319.9795,-368.9552C1396.7303,-329.4886 1576.3782,-237.1104 1660.7374,-193.7314"/>
<polygon fill="#000000" stroke="#000000" points="1662.5198,-196.7505 1669.8124,-189.0648 1659.3187,-190.5253 1662.5198,-196.7505"/>
</g>
<!-- file:///tmp/tmpv_joqsay#optitype_step&#45;&gt;file:///tmp/tmpv_joqsay#optitype_output_directory -->
<g id="edge12" class="edge">
<title>file:///tmp/tmpv_joqsay#optitype_step&#45;&gt;file:///tmp/tmpv_joqsay#optitype_output_directory</title>
<path fill="none" stroke="#000000" d="M1301.9045,-368.9552C1339.3159,-330.2967 1425.8564,-240.8716 1468.8382,-196.457"/>
<polygon fill="#000000" stroke="#000000" points="1471.4034,-198.8392 1475.8426,-189.2192 1466.3732,-193.9713 1471.4034,-198.8392"/>
</g>
<!-- file:///tmp/tmpv_joqsay#optitype_step&#45;&gt;file:///tmp/tmpv_joqsay#optitype_result_matrix -->
<g id="edge13" class="edge">
<title>file:///tmp/tmpv_joqsay#optitype_step&#45;&gt;file:///tmp/tmpv_joqsay#optitype_result_matrix</title>
<path fill="none" stroke="#000000" d="M1284,-368.9552C1284,-331.0955 1284,-244.5452 1284,-199.2668"/>
<polygon fill="#000000" stroke="#000000" points="1287.5001,-199.2192 1284,-189.2192 1280.5001,-199.2192 1287.5001,-199.2192"/>
</g>
<!-- file:///tmp/tmpv_joqsay#create_dummy_file_step -->
<g id="node21" class="node">
<title>file:///tmp/tmpv_joqsay#create_dummy_file_step</title>
<g id="a_node21"><a xlink:href="https://github.com/umccr/cwl-ica/blob/beta-release/.github/catalogue/docs/tools/custom-touch-file/1.0.0/custom-touch-file__1.0.0.md" xlink:title="Intermediate step for letting multiqc&#45;interop be placed in stream mode&#10;">
<polygon fill="#fafad2" stroke="#000000" points="352.5,-585.9565 352.5,-622.9565 615.5,-622.9565 615.5,-585.9565 352.5,-585.9565"/>
<text text-anchor="middle" x="484" y="-600.7565" font-family="Times,serif" font-size="14.00" fill="#000000">custom&#45;create&#45;dummy&#45;file v(1.0.0)</text>
</a>
</g>
</g>
<!-- file:///tmp/tmpv_joqsay#create_dummy_file_step&#45;&gt;file:///tmp/tmpv_joqsay#qc_step -->
<g id="edge9" class="edge">
<title>file:///tmp/tmpv_joqsay#create_dummy_file_step&#45;&gt;file:///tmp/tmpv_joqsay#qc_step</title>
<path fill="none" stroke="#000000" d="M499.1762,-585.9552C530.7558,-547.4565 603.6347,-458.6098 640.2188,-414.0099"/>
<polygon fill="#000000" stroke="#000000" points="642.9734,-416.1706 646.6094,-406.2192 637.5612,-411.7311 642.9734,-416.1706"/>
</g>
<!-- file:///tmp/tmpv_joqsay#get_hla_regions_bed_step&#45;&gt;file:///tmp/tmpv_joqsay#optitype_step -->
<g id="edge14" class="edge">
<title>file:///tmp/tmpv_joqsay#get_hla_regions_bed_step&#45;&gt;file:///tmp/tmpv_joqsay#optitype_step</title>
<path fill="none" stroke="#000000" d="M1311.4422,-585.9552C1306.2082,-548.0955 1294.2427,-461.5452 1287.983,-416.2668"/>
<polygon fill="#000000" stroke="#000000" points="1291.4305,-415.6456 1286.5939,-406.2192 1284.4964,-416.6043 1291.4305,-415.6456"/>
</g>
<!-- file:///tmp/tmpv_joqsay#get_faidx_file_step&#45;&gt;file:///tmp/tmpv_joqsay#get_hla_regions_bed_step -->
<g id="edge15" class="edge">
<title>file:///tmp/tmpv_joqsay#get_faidx_file_step&#45;&gt;file:///tmp/tmpv_joqsay#get_hla_regions_bed_step</title>
<path fill="none" stroke="#000000" d="M1531.2012,-810.6601C1488.7493,-770.3578 1388.9306,-675.5931 1340.8342,-629.932"/>
<polygon fill="#000000" stroke="#000000" points="1343.2379,-627.3879 1333.5758,-623.0411 1338.4183,-632.4646 1343.2379,-627.3879"/>
</g>
</g>
</svg>
