<?xml version="1.0" encoding="UTF-8" standalone="no"?>
<!DOCTYPE svg PUBLIC "-//W3C//DTD SVG 1.1//EN"
 "http://www.w3.org/Graphics/SVG/1.1/DTD/svg11.dtd">
<!-- Generated by graphviz version 2.40.1 (20161225.0304)
 -->
<!-- Title: G Pages: 1 -->
<svg width="1820pt" height="939pt"
 viewBox="0.00 0.00 1820.00 939.37" xmlns="http://www.w3.org/2000/svg" xmlns:xlink="http://www.w3.org/1999/xlink">
<g id="graph0" class="graph" transform="scale(1 1) rotate(0) translate(4 935.368)">
<title>G</title>
<polygon fill="#eeeeee" stroke="transparent" points="-4,4 -4,-935.368 1816,-935.368 1816,4 -4,4"/>
<g id="clust1" class="cluster">
<title>cluster_inputs</title>
<polygon fill="#eeeeee" stroke="#000000" stroke-dasharray="5,2" points="311,-682.4174 311,-907.9374 1387,-907.9374 1387,-682.4174 311,-682.4174"/>
<text text-anchor="middle" x="1319" y="-690.2174" font-family="Times,serif" font-size="14.00" fill="#000000">Workflow Inputs</text>
</g>
<g id="clust2" class="cluster">
<title>cluster_outputs</title>
<polygon fill="#eeeeee" stroke="#000000" stroke-dasharray="5,2" points="8,-23.4306 8,-248.9506 1804,-248.9506 1804,-23.4306 8,-23.4306"/>
<text text-anchor="middle" x="1730" y="-31.2306" font-family="Times,serif" font-size="14.00" fill="#000000">Workflow Outputs</text>
</g>
<!-- file:///tmp/tmpav7tshxf#sample_name -->
<g id="node1" class="node">
<title>file:///tmp/tmpav7tshxf#sample_name</title>
<g id="a_node1"><a xlink:title="What is the name of the sample?&#10;Used to pre&#45;fill out many other inputs.&#10;">
<polygon fill="#94ddf4" stroke="#000000" points="603,-809.9306 603,-846.9306 717,-846.9306 717,-809.9306 603,-809.9306"/>
<text text-anchor="middle" x="660" y="-824.7306" font-family="Times,serif" font-size="14.00" fill="#000000">sample_name</text>
</a>
</g>
</g>
<!-- file:///tmp/tmpav7tshxf#dragen_germline_step -->
<g id="node17" class="node">
<title>file:///tmp/tmpav7tshxf#dragen_germline_step</title>
<g id="a_node17"><a xlink:href="https://github.com/umccr/cwl-ica/blob/beta-release/.github/catalogue/docs/workflows/dragen-germline-pipeline/3.7.5/dragen-germline-pipeline__3.7.5.md" xlink:title="Runs the dragen germline 3.7.5 workflow&#10;">
<polygon fill="#ee7ae9" stroke="#000000" points="706,-584.9306 706,-621.9306 962,-621.9306 962,-584.9306 706,-584.9306"/>
<text text-anchor="middle" x="834" y="-599.7306" font-family="Times,serif" font-size="14.00" fill="#000000">dragen&#45;germline&#45;pipeline v(3.7.5)</text>
</a>
</g>
</g>
<!-- file:///tmp/tmpav7tshxf#sample_name&#45;&gt;file:///tmp/tmpav7tshxf#dragen_germline_step -->
<g id="edge16" class="edge">
<title>file:///tmp/tmpav7tshxf#sample_name&#45;&gt;file:///tmp/tmpav7tshxf#dragen_germline_step</title>
<path fill="none" stroke="#000000" d="M670.59,-809.6343C698.0318,-769.5807 770.4112,-675.7351 809.1112,-629.7573"/>
<polygon fill="#000000" stroke="#000000" points="811.8845,-631.899 815.7007,-622.0153 806.5539,-627.3619 811.8845,-631.899"/>
</g>
<!-- file:///tmp/tmpav7tshxf#sample_name&#45;&gt;file:///tmp/tmpav7tshxf#dragen_germline_step -->
<g id="edge17" class="edge">
<title>file:///tmp/tmpav7tshxf#sample_name&#45;&gt;file:///tmp/tmpav7tshxf#dragen_germline_step</title>
<path fill="none" stroke="#000000" d="M678.4818,-809.6343C712.8466,-769.7465 785.1559,-676.5114 817.7655,-630.3309"/>
<polygon fill="#000000" stroke="#000000" points="820.7136,-632.222 823.555,-622.0153 814.9688,-628.2223 820.7136,-632.222"/>
</g>
<!-- file:///tmp/tmpav7tshxf#optitype_step -->
<g id="node18" class="node">
<title>file:///tmp/tmpav7tshxf#optitype_step</title>
<g id="a_node18"><a xlink:href="https://github.com/umccr/cwl-ica/blob/beta-release/.github/catalogue/docs/workflows/optitype-pipeline/1.3.5/optitype-pipeline__1.3.5.md" xlink:title="Run the optitype pipeline&#10;">
<polygon fill="#ee7ae9" stroke="#000000" points="1195.5,-367.9306 1195.5,-404.9306 1392.5,-404.9306 1392.5,-367.9306 1195.5,-367.9306"/>
<text text-anchor="middle" x="1294" y="-382.7306" font-family="Times,serif" font-size="14.00" fill="#000000">optitype&#45;pipeline v(1.3.5)</text>
</a>
</g>
</g>
<!-- file:///tmp/tmpav7tshxf#sample_name&#45;&gt;file:///tmp/tmpav7tshxf#optitype_step -->
<g id="edge18" class="edge">
<title>file:///tmp/tmpav7tshxf#sample_name&#45;&gt;file:///tmp/tmpav7tshxf#optitype_step</title>
<path fill="none" stroke="#000000" d="M683.4839,-809.9045C695.9375,-800.2688 711.6018,-788.4438 726,-778.4306 831.9799,-704.7274 864.3855,-695.2128 971,-622.4306 1079.52,-548.3477 1204.056,-454.8659 1261.6628,-411.1216"/>
<polygon fill="#000000" stroke="#000000" points="1263.8243,-413.875 1269.6667,-405.0366 1259.5878,-408.3026 1263.8243,-413.875"/>
</g>
<!-- file:///tmp/tmpav7tshxf#somalier_step -->
<g id="node19" class="node">
<title>file:///tmp/tmpav7tshxf#somalier_step</title>
<g id="a_node19"><a xlink:href="https://github.com/umccr/cwl-ica/blob/beta-release/.github/catalogue/docs/tools/somalier-extract/0.2.13/somalier-extract__0.2.13.md" xlink:title="Runs the somalier extract function to call the fingerprint on the germline bam file&#10;">
<polygon fill="#fafad2" stroke="#000000" points="211.5,-367.9306 211.5,-404.9306 414.5,-404.9306 414.5,-367.9306 211.5,-367.9306"/>
<text text-anchor="middle" x="313" y="-382.7306" font-family="Times,serif" font-size="14.00" fill="#000000">somalier&#45;extract v(0.2.13)</text>
</a>
</g>
</g>
<!-- file:///tmp/tmpav7tshxf#sample_name&#45;&gt;file:///tmp/tmpav7tshxf#somalier_step -->
<g id="edge19" class="edge">
<title>file:///tmp/tmpav7tshxf#sample_name&#45;&gt;file:///tmp/tmpav7tshxf#somalier_step</title>
<path fill="none" stroke="#000000" d="M628.5422,-809.8293C615.1287,-800.1729 599.4614,-788.3523 585,-778.4306 476.3821,-703.9105 404.0134,-733.373 333,-622.4306 291.5169,-557.6226 295.0691,-462.0701 303.541,-414.9052"/>
<polygon fill="#000000" stroke="#000000" points="306.9786,-415.5639 305.5303,-405.0685 300.1175,-414.1763 306.9786,-415.5639"/>
</g>
<!-- file:///tmp/tmpav7tshxf#sample_name&#45;&gt;file:///tmp/tmpav7tshxf#somalier_step -->
<g id="edge20" class="edge">
<title>file:///tmp/tmpav7tshxf#sample_name&#45;&gt;file:///tmp/tmpav7tshxf#somalier_step</title>
<path fill="none" stroke="#000000" d="M644.594,-809.8293C633.1287,-800.1729 617.4614,-788.3523 603,-778.4306 494.3821,-703.9105 422.0134,-733.373 351,-622.4306 309.604,-557.7587 313.0544,-462.4715 314.5826,-415.2031"/>
<polygon fill="#000000" stroke="#000000" points="318.0851,-415.1678 314.8827,-405.0685 311.0882,-414.9605 318.0851,-415.1678"/>
</g>
<!-- file:///tmp/tmpav7tshxf#qc_step -->
<g id="node20" class="node">
<title>file:///tmp/tmpav7tshxf#qc_step</title>
<g id="a_node20"><a xlink:href="https://github.com/umccr/cwl-ica/blob/beta-release/.github/catalogue/docs/tools/multiqc/1.10.1/multiqc__1.10.1.md" xlink:title="Runs multiqc on the run folder&#10;Uses a dummy file so that the folder can be placed in &#39;stream&#39; mode.&#10;">
<polygon fill="#fafad2" stroke="#000000" points="590,-367.9306 590,-404.9306 730,-404.9306 730,-367.9306 590,-367.9306"/>
<text text-anchor="middle" x="660" y="-382.7306" font-family="Times,serif" font-size="14.00" fill="#000000">multiqc v(1.10.1)</text>
</a>
</g>
</g>
<!-- file:///tmp/tmpav7tshxf#sample_name&#45;&gt;file:///tmp/tmpav7tshxf#qc_step -->
<g id="edge21" class="edge">
<title>file:///tmp/tmpav7tshxf#sample_name&#45;&gt;file:///tmp/tmpav7tshxf#qc_step</title>
<path fill="none" stroke="#000000" d="M654.1334,-809.7208C644.3942,-740.6165 643.9745,-499.4344 652.874,-415.4961"/>
<polygon fill="#000000" stroke="#000000" points="656.3699,-415.7408 654.098,-405.3924 649.4207,-414.8989 656.3699,-415.7408"/>
</g>
<!-- file:///tmp/tmpav7tshxf#sample_name&#45;&gt;file:///tmp/tmpav7tshxf#qc_step -->
<g id="edge22" class="edge">
<title>file:///tmp/tmpav7tshxf#sample_name&#45;&gt;file:///tmp/tmpav7tshxf#qc_step</title>
<path fill="none" stroke="#000000" d="M660,-809.7208C660,-740.6165 660,-499.4344 660,-415.4961"/>
<polygon fill="#000000" stroke="#000000" points="663.5001,-415.3924 660,-405.3924 656.5001,-415.3924 663.5001,-415.3924"/>
</g>
<!-- file:///tmp/tmpav7tshxf#sample_name&#45;&gt;file:///tmp/tmpav7tshxf#qc_step -->
<g id="edge23" class="edge">
<title>file:///tmp/tmpav7tshxf#sample_name&#45;&gt;file:///tmp/tmpav7tshxf#qc_step</title>
<path fill="none" stroke="#000000" d="M665.8666,-809.7208C675.6058,-740.6165 676.0255,-499.4344 667.126,-415.4961"/>
<polygon fill="#000000" stroke="#000000" points="670.5793,-414.8989 665.902,-405.3924 663.6301,-415.7408 670.5793,-414.8989"/>
</g>
<!-- file:///tmp/tmpav7tshxf#hla_reference_fasta -->
<g id="node2" class="node">
<title>file:///tmp/tmpav7tshxf#hla_reference_fasta</title>
<g id="a_node2"><a xlink:title="Reference to align / filter large output bam to before running through optitype tool&#10;">
<polygon fill="#94ddf4" stroke="#000000" points="1069,-809.9306 1069,-846.9306 1227,-846.9306 1227,-809.9306 1069,-809.9306"/>
<text text-anchor="middle" x="1148" y="-824.7306" font-family="Times,serif" font-size="14.00" fill="#000000">hla_reference_fasta</text>
</a>
</g>
</g>
<!-- file:///tmp/tmpav7tshxf#hla_reference_fasta&#45;&gt;file:///tmp/tmpav7tshxf#optitype_step -->
<g id="edge24" class="edge">
<title>file:///tmp/tmpav7tshxf#hla_reference_fasta&#45;&gt;file:///tmp/tmpav7tshxf#optitype_step</title>
<path fill="none" stroke="#000000" d="M1149.9759,-809.6289C1154.7094,-768.1033 1168.4105,-665.7945 1196,-584.4306 1217.6306,-520.6401 1255.7028,-451.1915 1277.4792,-413.8677"/>
<polygon fill="#000000" stroke="#000000" points="1280.5874,-415.487 1282.6446,-405.0938 1274.5551,-411.9357 1280.5874,-415.487"/>
</g>
<!-- file:///tmp/tmpav7tshxf#fastq_list_rows -->
<g id="node3" class="node">
<title>file:///tmp/tmpav7tshxf#fastq_list_rows</title>
<g id="a_node3"><a xlink:title="The row of fastq lists.&#10; &#160;Each row has the following attributes:&#10; &#160;&#160;&#160;* RGID&#10; &#160;&#160;&#160;* RGLB&#10; &#160;&#160;&#160;* RGSM&#10; &#160;&#160;&#160;* Lane&#10; &#160;&#160;&#160;* Read1File&#10; &#160;&#160;&#160;* Read2File (optional)&#10;">
<polygon fill="#94ddf4" stroke="#000000" points="925.5,-809.9306 925.5,-846.9306 1050.5,-846.9306 1050.5,-809.9306 925.5,-809.9306"/>
<text text-anchor="middle" x="988" y="-824.7306" font-family="Times,serif" font-size="14.00" fill="#000000">fastq_list_rows</text>
</a>
</g>
</g>
<!-- file:///tmp/tmpav7tshxf#fastq_list_rows&#45;&gt;file:///tmp/tmpav7tshxf#dragen_germline_step -->
<g id="edge25" class="edge">
<title>file:///tmp/tmpav7tshxf#fastq_list_rows&#45;&gt;file:///tmp/tmpav7tshxf#dragen_germline_step</title>
<path fill="none" stroke="#000000" d="M975.1349,-809.6343C947.834,-769.7465 884.0197,-676.5114 852.4117,-630.3309"/>
<polygon fill="#000000" stroke="#000000" points="855.2566,-628.2906 846.7202,-622.0153 849.4801,-632.2443 855.2566,-628.2906"/>
</g>
<!-- file:///tmp/tmpav7tshxf#reference_tar_dragen -->
<g id="node4" class="node">
<title>file:///tmp/tmpav7tshxf#reference_tar_dragen</title>
<g id="a_node4"><a xlink:title="Path to ref data tarball&#10;">
<polygon fill="#94ddf4" stroke="#000000" points="735,-809.9306 735,-846.9306 907,-846.9306 907,-809.9306 735,-809.9306"/>
<text text-anchor="middle" x="821" y="-824.7306" font-family="Times,serif" font-size="14.00" fill="#000000">reference_tar_dragen</text>
</a>
</g>
</g>
<!-- file:///tmp/tmpav7tshxf#reference_tar_dragen&#45;&gt;file:///tmp/tmpav7tshxf#dragen_germline_step -->
<g id="edge26" class="edge">
<title>file:///tmp/tmpav7tshxf#reference_tar_dragen&#45;&gt;file:///tmp/tmpav7tshxf#dragen_germline_step</title>
<path fill="none" stroke="#000000" d="M822.086,-809.6343C824.3619,-770.2441 829.6436,-678.8291 832.3447,-632.0809"/>
<polygon fill="#000000" stroke="#000000" points="835.8435,-632.2005 832.9262,-622.0153 828.8551,-631.7967 835.8435,-632.2005"/>
</g>
<!-- file:///tmp/tmpav7tshxf#reference_fasta -->
<g id="node5" class="node">
<title>file:///tmp/tmpav7tshxf#reference_fasta</title>
<g id="a_node5"><a xlink:title="The reference fasta file with a .fai index.&#10;Required for somalier and optitype steps&#10;">
<polygon fill="#94ddf4" stroke="#000000" points="319,-809.9306 319,-846.9306 447,-846.9306 447,-809.9306 319,-809.9306"/>
<text text-anchor="middle" x="383" y="-824.7306" font-family="Times,serif" font-size="14.00" fill="#000000">reference_fasta</text>
</a>
</g>
</g>
<!-- file:///tmp/tmpav7tshxf#reference_fasta&#45;&gt;file:///tmp/tmpav7tshxf#somalier_step -->
<g id="edge27" class="edge">
<title>file:///tmp/tmpav7tshxf#reference_fasta&#45;&gt;file:///tmp/tmpav7tshxf#somalier_step</title>
<path fill="none" stroke="#000000" d="M365.855,-809.8316C335.7631,-775.772 274.5023,-699.7501 252,-622.4306 230.1957,-547.5097 271.4453,-458.0844 296.2305,-413.9147"/>
<polygon fill="#000000" stroke="#000000" points="299.292,-415.6118 301.2409,-405.1978 293.2231,-412.1235 299.292,-415.6118"/>
</g>
<!-- file:///tmp/tmpav7tshxf#get_faidx_file_step -->
<g id="node23" class="node">
<title>file:///tmp/tmpav7tshxf#get_faidx_file_step</title>
<g id="a_node23"><a xlink:href="https://github.com/umccr/cwl-ica/blob/beta-release/.github/catalogue/docs/expressions/get-faidx-file-from-reference-file/1.0.0/get-faidx-file-from-reference-file__1.0.0.md" xlink:title="Get the index of the reference fasta as its own file.&#10;Used by the get&#45;regions&#45;bed workflow&#10;">
<polygon fill="#ee9a00" stroke="#000000" points="1396.5,-809.9306 1396.5,-846.9306 1701.5,-846.9306 1701.5,-809.9306 1396.5,-809.9306"/>
<text text-anchor="middle" x="1549" y="-824.7306" font-family="Times,serif" font-size="14.00" fill="#000000">get&#45;faidx&#45;file&#45;from&#45;reference&#45;file v(1.0.0)</text>
</a>
</g>
</g>
<!-- file:///tmp/tmpav7tshxf#reference_fasta&#45;&gt;file:///tmp/tmpav7tshxf#get_faidx_file_step -->
<g id="edge28" class="edge">
<title>file:///tmp/tmpav7tshxf#reference_fasta&#45;&gt;file:///tmp/tmpav7tshxf#get_faidx_file_step</title>
<path fill="none" stroke="#000000" d="M409.2473,-847.0619C424.9131,-857.0223 445.6631,-868.2723 466,-873.4306 564.6538,-898.4536 1281.1023,-886.7864 1382,-873.4306 1416.5158,-868.8618 1454.0248,-859.2 1484.7346,-849.9961"/>
<polygon fill="#000000" stroke="#000000" points="1485.9105,-853.2967 1494.454,-847.0309 1483.8679,-846.6013 1485.9105,-853.2967"/>
</g>
<!-- file:///tmp/tmpav7tshxf#sites_somalier -->
<g id="node6" class="node">
<title>file:///tmp/tmpav7tshxf#sites_somalier</title>
<g id="a_node6"><a xlink:title="gzipped vcf file. Required for somalier sites&#10;">
<polygon fill="#94ddf4" stroke="#000000" points="465.5,-809.9306 465.5,-846.9306 584.5,-846.9306 584.5,-809.9306 465.5,-809.9306"/>
<text text-anchor="middle" x="525" y="-824.7306" font-family="Times,serif" font-size="14.00" fill="#000000">sites_somalier</text>
</a>
</g>
</g>
<!-- file:///tmp/tmpav7tshxf#sites_somalier&#45;&gt;file:///tmp/tmpav7tshxf#somalier_step -->
<g id="edge29" class="edge">
<title>file:///tmp/tmpav7tshxf#sites_somalier&#45;&gt;file:///tmp/tmpav7tshxf#somalier_step</title>
<path fill="none" stroke="#000000" d="M498.5514,-809.6534C441.9255,-768.8046 312.2847,-671.5999 290,-622.4306 258.5604,-553.0618 284.5751,-460.6997 301.4214,-414.8078"/>
<polygon fill="#000000" stroke="#000000" points="304.7829,-415.8142 305.0575,-405.2229 298.238,-413.3313 304.7829,-415.8142"/>
</g>
<!-- file:///tmp/tmpav7tshxf#genome_version -->
<g id="node7" class="node">
<title>file:///tmp/tmpav7tshxf#genome_version</title>
<g id="a_node7"><a xlink:title="Either hg38 (default) or GRCh37?&#10;Used to set chromosome regions to filter down bam file for optitype workflow&#10;">
<polygon fill="#94ddf4" stroke="#000000" points="1245.5,-809.9306 1245.5,-846.9306 1378.5,-846.9306 1378.5,-809.9306 1245.5,-809.9306"/>
<text text-anchor="middle" x="1312" y="-824.7306" font-family="Times,serif" font-size="14.00" fill="#000000">genome_version</text>
</a>
</g>
</g>
<!-- file:///tmp/tmpav7tshxf#get_hla_regions_bed_step -->
<g id="node21" class="node">
<title>file:///tmp/tmpav7tshxf#get_hla_regions_bed_step</title>
<g id="a_node21"><a xlink:href="https://github.com/umccr/cwl-ica/blob/beta-release/.github/catalogue/docs/workflows/get-hla-regions-bed/1.0.0/get-hla-regions-bed__1.0.0.md" xlink:title="Get the hla regions for input into the optitype workflow&#10;">
<polygon fill="#ee7ae9" stroke="#000000" points="1205,-584.9306 1205,-621.9306 1419,-621.9306 1419,-584.9306 1205,-584.9306"/>
<text text-anchor="middle" x="1312" y="-599.7306" font-family="Times,serif" font-size="14.00" fill="#000000">get&#45;hla&#45;regions&#45;bed v(1.0.0)</text>
</a>
</g>
</g>
<!-- file:///tmp/tmpav7tshxf#genome_version&#45;&gt;file:///tmp/tmpav7tshxf#get_hla_regions_bed_step -->
<g id="edge30" class="edge">
<title>file:///tmp/tmpav7tshxf#genome_version&#45;&gt;file:///tmp/tmpav7tshxf#get_hla_regions_bed_step</title>
<path fill="none" stroke="#000000" d="M1312,-809.6343C1312,-770.2441 1312,-678.8291 1312,-632.0809"/>
<polygon fill="#000000" stroke="#000000" points="1315.5001,-632.0152 1312,-622.0153 1308.5001,-632.0153 1315.5001,-632.0152"/>
</g>
<!-- file:///tmp/tmpav7tshxf#somalier_output_directory -->
<g id="node8" class="node">
<title>file:///tmp/tmpav7tshxf#somalier_output_directory</title>
<g id="a_node8"><a xlink:title="Output directory from somalier step&#10;">
<polygon fill="#94ddf4" stroke="#000000" points="16,-150.9306 16,-187.9306 222,-187.9306 222,-150.9306 16,-150.9306"/>
<text text-anchor="middle" x="119" y="-165.7306" font-family="Times,serif" font-size="14.00" fill="#000000">somalier_output_directory</text>
</a>
</g>
</g>
<!-- file:///tmp/tmpav7tshxf#dragen_vcf_output -->
<g id="node9" class="node">
<title>file:///tmp/tmpav7tshxf#dragen_vcf_output</title>
<g id="a_node9"><a xlink:title="Output vcf file for dragen germline run&#10;">
<polygon fill="#94ddf4" stroke="#000000" points="810.5,-150.9306 810.5,-187.9306 961.5,-187.9306 961.5,-150.9306 810.5,-150.9306"/>
<text text-anchor="middle" x="886" y="-165.7306" font-family="Times,serif" font-size="14.00" fill="#000000">dragen_vcf_output</text>
</a>
</g>
</g>
<!-- file:///tmp/tmpav7tshxf#dragen_output_directory -->
<g id="node10" class="node">
<title>file:///tmp/tmpav7tshxf#dragen_output_directory</title>
<g id="a_node10"><a xlink:title="Output directory for dragen&#10;">
<polygon fill="#94ddf4" stroke="#000000" points="979.5,-150.9306 979.5,-187.9306 1174.5,-187.9306 1174.5,-150.9306 979.5,-150.9306"/>
<text text-anchor="middle" x="1077" y="-165.7306" font-family="Times,serif" font-size="14.00" fill="#000000">dragen_output_directory</text>
</a>
</g>
</g>
<!-- file:///tmp/tmpav7tshxf#multiqc_output_file -->
<g id="node11" class="node">
<title>file:///tmp/tmpav7tshxf#multiqc_output_file</title>
<g id="a_node11"><a xlink:title="Output html for multiqc&#10;">
<polygon fill="#94ddf4" stroke="#000000" points="458,-150.9306 458,-187.9306 614,-187.9306 614,-150.9306 458,-150.9306"/>
<text text-anchor="middle" x="536" y="-165.7306" font-family="Times,serif" font-size="14.00" fill="#000000">multiqc_output_file</text>
</a>
</g>
</g>
<!-- file:///tmp/tmpav7tshxf#multiqc_output_directory -->
<g id="node12" class="node">
<title>file:///tmp/tmpav7tshxf#multiqc_output_directory</title>
<g id="a_node12"><a xlink:title="Output directory with multiqc data and html&#10;">
<polygon fill="#94ddf4" stroke="#000000" points="240,-150.9306 240,-187.9306 440,-187.9306 440,-150.9306 240,-150.9306"/>
<text text-anchor="middle" x="340" y="-165.7306" font-family="Times,serif" font-size="14.00" fill="#000000">multiqc_output_directory</text>
</a>
</g>
</g>
<!-- file:///tmp/tmpav7tshxf#optitype_coverage_plot -->
<g id="node13" class="node">
<title>file:///tmp/tmpav7tshxf#optitype_coverage_plot</title>
<g id="a_node13"><a xlink:title="Output coverage pdf from optitype step&#10;">
<polygon fill="#94ddf4" stroke="#000000" points="1612,-150.9306 1612,-187.9306 1796,-187.9306 1796,-150.9306 1612,-150.9306"/>
<text text-anchor="middle" x="1704" y="-165.7306" font-family="Times,serif" font-size="14.00" fill="#000000">optitype_coverage_plot</text>
</a>
</g>
</g>
<!-- file:///tmp/tmpav7tshxf#dragen_bam_output -->
<g id="node14" class="node">
<title>file:///tmp/tmpav7tshxf#dragen_bam_output</title>
<g id="a_node14"><a xlink:title="Output alignment file for dragen germline run&#10;">
<polygon fill="#94ddf4" stroke="#000000" points="632,-150.9306 632,-187.9306 792,-187.9306 792,-150.9306 632,-150.9306"/>
<text text-anchor="middle" x="712" y="-165.7306" font-family="Times,serif" font-size="14.00" fill="#000000">dragen_bam_output</text>
</a>
</g>
</g>
<!-- file:///tmp/tmpav7tshxf#optitype_result_matrix -->
<g id="node15" class="node">
<title>file:///tmp/tmpav7tshxf#optitype_result_matrix</title>
<g id="a_node15"><a xlink:title="Output matrix file from optitype step&#10;">
<polygon fill="#94ddf4" stroke="#000000" points="1414,-150.9306 1414,-187.9306 1594,-187.9306 1594,-150.9306 1414,-150.9306"/>
<text text-anchor="middle" x="1504" y="-165.7306" font-family="Times,serif" font-size="14.00" fill="#000000">optitype_result_matrix</text>
</a>
</g>
</g>
<!-- file:///tmp/tmpav7tshxf#optitype_output_directory -->
<g id="node16" class="node">
<title>file:///tmp/tmpav7tshxf#optitype_output_directory</title>
<g id="a_node16"><a xlink:title="Output directory for optitype files&#10;">
<polygon fill="#94ddf4" stroke="#000000" points="1192,-150.9306 1192,-187.9306 1396,-187.9306 1396,-150.9306 1192,-150.9306"/>
<text text-anchor="middle" x="1294" y="-165.7306" font-family="Times,serif" font-size="14.00" fill="#000000">optitype_output_directory</text>
</a>
</g>
</g>
<!-- file:///tmp/tmpav7tshxf#dragen_germline_step&#45;&gt;file:///tmp/tmpav7tshxf#dragen_vcf_output -->
<g id="edge4" class="edge">
<title>file:///tmp/tmpav7tshxf#dragen_germline_step&#45;&gt;file:///tmp/tmpav7tshxf#dragen_vcf_output</title>
<path fill="none" stroke="#000000" d="M836.2344,-584.7822C844.4017,-516.6164 872.6749,-280.6442 882.5575,-198.1621"/>
<polygon fill="#000000" stroke="#000000" points="886.0594,-198.355 883.7739,-188.0096 879.1091,-197.5222 886.0594,-198.355"/>
</g>
<!-- file:///tmp/tmpav7tshxf#dragen_germline_step&#45;&gt;file:///tmp/tmpav7tshxf#dragen_output_directory -->
<g id="edge5" class="edge">
<title>file:///tmp/tmpav7tshxf#dragen_germline_step&#45;&gt;file:///tmp/tmpav7tshxf#dragen_output_directory</title>
<path fill="none" stroke="#000000" d="M844.4414,-584.7822C882.7638,-516.3382 1015.8108,-278.7151 1061.4742,-197.1598"/>
<polygon fill="#000000" stroke="#000000" points="1064.7659,-198.4449 1066.5975,-188.0096 1058.6581,-195.0251 1064.7659,-198.4449"/>
</g>
<!-- file:///tmp/tmpav7tshxf#dragen_germline_step&#45;&gt;file:///tmp/tmpav7tshxf#dragen_bam_output -->
<g id="edge6" class="edge">
<title>file:///tmp/tmpav7tshxf#dragen_germline_step&#45;&gt;file:///tmp/tmpav7tshxf#dragen_bam_output</title>
<path fill="none" stroke="#000000" d="M828.7578,-584.7822C809.5569,-516.4773 742.9919,-279.6804 719.9352,-197.6591"/>
<polygon fill="#000000" stroke="#000000" points="723.2983,-196.6893 717.2227,-188.0096 716.5595,-198.5837 723.2983,-196.6893"/>
</g>
<!-- file:///tmp/tmpav7tshxf#dragen_germline_step&#45;&gt;file:///tmp/tmpav7tshxf#optitype_step -->
<g id="edge1" class="edge">
<title>file:///tmp/tmpav7tshxf#dragen_germline_step&#45;&gt;file:///tmp/tmpav7tshxf#optitype_step</title>
<path fill="none" stroke="#000000" d="M873.2193,-584.9293C957.1357,-545.3427 1153.8975,-452.5225 1245.4972,-409.3113"/>
<polygon fill="#000000" stroke="#000000" points="1247.0029,-412.471 1254.5538,-405.039 1244.0163,-406.14 1247.0029,-412.471"/>
</g>
<!-- file:///tmp/tmpav7tshxf#dragen_germline_step&#45;&gt;file:///tmp/tmpav7tshxf#somalier_step -->
<g id="edge2" class="edge">
<title>file:///tmp/tmpav7tshxf#dragen_germline_step&#45;&gt;file:///tmp/tmpav7tshxf#somalier_step</title>
<path fill="none" stroke="#000000" d="M789.5798,-584.9293C694.2475,-545.2228 470.3295,-451.9594 366.9948,-408.9198"/>
<polygon fill="#000000" stroke="#000000" points="368.2541,-405.653 357.6771,-405.039 365.5627,-412.1149 368.2541,-405.653"/>
</g>
<!-- file:///tmp/tmpav7tshxf#dragen_germline_step&#45;&gt;file:///tmp/tmpav7tshxf#qc_step -->
<g id="edge3" class="edge">
<title>file:///tmp/tmpav7tshxf#dragen_germline_step&#45;&gt;file:///tmp/tmpav7tshxf#qc_step</title>
<path fill="none" stroke="#000000" d="M819.1649,-584.9293C788.359,-546.5105 717.3492,-457.9523 681.5147,-413.2622"/>
<polygon fill="#000000" stroke="#000000" points="684.0311,-410.8055 675.0447,-405.1933 678.5699,-415.1845 684.0311,-410.8055"/>
</g>
<!-- file:///tmp/tmpav7tshxf#optitype_step&#45;&gt;file:///tmp/tmpav7tshxf#optitype_coverage_plot -->
<g id="edge7" class="edge">
<title>file:///tmp/tmpav7tshxf#optitype_step&#45;&gt;file:///tmp/tmpav7tshxf#optitype_coverage_plot</title>
<path fill="none" stroke="#000000" d="M1328.9564,-367.9293C1403.4491,-328.5027 1577.7105,-236.2716 1659.7751,-192.8375"/>
<polygon fill="#000000" stroke="#000000" points="1661.6403,-195.8103 1668.8414,-188.039 1658.3657,-189.6234 1661.6403,-195.8103"/>
</g>
<!-- file:///tmp/tmpav7tshxf#optitype_step&#45;&gt;file:///tmp/tmpav7tshxf#optitype_result_matrix -->
<g id="edge8" class="edge">
<title>file:///tmp/tmpav7tshxf#optitype_step&#45;&gt;file:///tmp/tmpav7tshxf#optitype_result_matrix</title>
<path fill="none" stroke="#000000" d="M1311.9045,-367.9293C1349.3159,-329.2709 1435.8564,-239.8457 1478.8382,-195.4312"/>
<polygon fill="#000000" stroke="#000000" points="1481.4034,-197.8134 1485.8426,-188.1933 1476.3732,-192.9454 1481.4034,-197.8134"/>
</g>
<!-- file:///tmp/tmpav7tshxf#optitype_step&#45;&gt;file:///tmp/tmpav7tshxf#optitype_output_directory -->
<g id="edge9" class="edge">
<title>file:///tmp/tmpav7tshxf#optitype_step&#45;&gt;file:///tmp/tmpav7tshxf#optitype_output_directory</title>
<path fill="none" stroke="#000000" d="M1294,-367.9293C1294,-330.0696 1294,-243.5193 1294,-198.2409"/>
<polygon fill="#000000" stroke="#000000" points="1297.5001,-198.1933 1294,-188.1933 1290.5001,-198.1934 1297.5001,-198.1933"/>
</g>
<!-- file:///tmp/tmpav7tshxf#somalier_step&#45;&gt;file:///tmp/tmpav7tshxf#somalier_output_directory -->
<g id="edge11" class="edge">
<title>file:///tmp/tmpav7tshxf#somalier_step&#45;&gt;file:///tmp/tmpav7tshxf#somalier_output_directory</title>
<path fill="none" stroke="#000000" d="M296.4597,-367.9293C261.9701,-329.3508 182.2819,-240.215 142.4914,-195.7071"/>
<polygon fill="#000000" stroke="#000000" points="145.0483,-193.3157 135.774,-188.1933 139.8297,-197.9812 145.0483,-193.3157"/>
</g>
<!-- file:///tmp/tmpav7tshxf#qc_step&#45;&gt;file:///tmp/tmpav7tshxf#multiqc_output_file -->
<g id="edge12" class="edge">
<title>file:///tmp/tmpav7tshxf#qc_step&#45;&gt;file:///tmp/tmpav7tshxf#multiqc_output_file</title>
<path fill="none" stroke="#000000" d="M649.4278,-367.9293C627.6111,-329.7501 577.4997,-242.0551 551.8131,-197.1035"/>
<polygon fill="#000000" stroke="#000000" points="554.7218,-195.1393 546.7215,-188.1933 548.6441,-198.6123 554.7218,-195.1393"/>
</g>
<!-- file:///tmp/tmpav7tshxf#qc_step&#45;&gt;file:///tmp/tmpav7tshxf#multiqc_output_directory -->
<g id="edge13" class="edge">
<title>file:///tmp/tmpav7tshxf#qc_step&#45;&gt;file:///tmp/tmpav7tshxf#multiqc_output_directory</title>
<path fill="none" stroke="#000000" d="M632.717,-367.9293C575.1202,-328.8715 441.1053,-237.9927 376.3334,-194.0692"/>
<polygon fill="#000000" stroke="#000000" points="377.9094,-190.9091 367.6685,-188.1933 373.9806,-196.7026 377.9094,-190.9091"/>
</g>
<!-- file:///tmp/tmpav7tshxf#get_hla_regions_bed_step&#45;&gt;file:///tmp/tmpav7tshxf#optitype_step -->
<g id="edge10" class="edge">
<title>file:///tmp/tmpav7tshxf#get_hla_regions_bed_step&#45;&gt;file:///tmp/tmpav7tshxf#optitype_step</title>
<path fill="none" stroke="#000000" d="M1310.4653,-584.9293C1307.3249,-547.0696 1300.1456,-460.5193 1296.3898,-415.2409"/>
<polygon fill="#000000" stroke="#000000" points="1299.8711,-414.8697 1295.5564,-405.1933 1292.8951,-415.4485 1299.8711,-414.8697"/>
</g>
<!-- file:///tmp/tmpav7tshxf#create_dummy_file_step -->
<g id="node22" class="node">
<title>file:///tmp/tmpav7tshxf#create_dummy_file_step</title>
<g id="a_node22"><a xlink:href="https://github.com/umccr/cwl-ica/blob/beta-release/.github/catalogue/docs/tools/custom-touch-file/1.0.0/custom-touch-file__1.0.0.md" xlink:title="Intermediate step for letting multiqc&#45;interop be placed in stream mode&#10;">
<polygon fill="#fafad2" stroke="#000000" points="350.5,-584.9306 350.5,-621.9306 613.5,-621.9306 613.5,-584.9306 350.5,-584.9306"/>
<text text-anchor="middle" x="482" y="-599.7306" font-family="Times,serif" font-size="14.00" fill="#000000">custom&#45;create&#45;dummy&#45;file v(1.0.0)</text>
</a>
</g>
</g>
<!-- file:///tmp/tmpav7tshxf#create_dummy_file_step&#45;&gt;file:///tmp/tmpav7tshxf#qc_step -->
<g id="edge14" class="edge">
<title>file:///tmp/tmpav7tshxf#create_dummy_file_step&#45;&gt;file:///tmp/tmpav7tshxf#qc_step</title>
<path fill="none" stroke="#000000" d="M497.1762,-584.9293C528.7558,-546.4306 601.6347,-457.5839 638.2188,-412.9841"/>
<polygon fill="#000000" stroke="#000000" points="640.9734,-415.1447 644.6094,-405.1933 635.5612,-410.7052 640.9734,-415.1447"/>
</g>
<!-- file:///tmp/tmpav7tshxf#get_faidx_file_step&#45;&gt;file:///tmp/tmpav7tshxf#get_hla_regions_bed_step -->
<g id="edge15" class="edge">
<title>file:///tmp/tmpav7tshxf#get_faidx_file_step&#45;&gt;file:///tmp/tmpav7tshxf#get_hla_regions_bed_step</title>
<path fill="none" stroke="#000000" d="M1529.2012,-809.6343C1486.7493,-769.3319 1386.9306,-674.5673 1338.8342,-628.9061"/>
<polygon fill="#000000" stroke="#000000" points="1341.2379,-626.3621 1331.5758,-622.0153 1336.4183,-631.4387 1341.2379,-626.3621"/>
</g>
</g>
</svg>
