<?xml version="1.0" encoding="UTF-8" standalone="no"?>
<!DOCTYPE svg PUBLIC "-//W3C//DTD SVG 1.1//EN"
 "http://www.w3.org/Graphics/SVG/1.1/DTD/svg11.dtd">
<!-- Generated by graphviz version 2.40.1 (20161225.0304)
 -->
<!-- Title: G Pages: 1 -->
<svg width="1821pt" height="940pt"
 viewBox="0.00 0.00 1821.00 939.88" xmlns="http://www.w3.org/2000/svg" xmlns:xlink="http://www.w3.org/1999/xlink">
<g id="graph0" class="graph" transform="scale(1 1) rotate(0) translate(4 935.882)">
<title>G</title>
<polygon fill="#eeeeee" stroke="transparent" points="-4,4 -4,-935.882 1817,-935.882 1817,4 -4,4"/>
<g id="clust1" class="cluster">
<title>cluster_inputs</title>
<polygon fill="#eeeeee" stroke="#000000" stroke-dasharray="5,2" points="508,-682.794 508,-908.4384 1584,-908.4384 1584,-682.794 508,-682.794"/>
<text text-anchor="middle" x="1516" y="-690.594" font-family="Times,serif" font-size="14.00" fill="#000000">Workflow Inputs</text>
</g>
<g id="clust2" class="cluster">
<title>cluster_outputs</title>
<polygon fill="#eeeeee" stroke="#000000" stroke-dasharray="5,2" points="8,-23.4436 8,-249.088 1805,-249.088 1805,-23.4436 8,-23.4436"/>
<text text-anchor="middle" x="1731" y="-31.2436" font-family="Times,serif" font-size="14.00" fill="#000000">Workflow Outputs</text>
</g>
<!-- file:///tmp/tmpn2fo5nnc#reference_fasta -->
<g id="node1" class="node">
<title>file:///tmp/tmpn2fo5nnc#reference_fasta</title>
<g id="a_node1"><a xlink:title="The reference fasta file with a .fai index.&#10;Required for somalier and optitype steps&#10;">
<polygon fill="#94ddf4" stroke="#000000" points="1448,-810.9436 1448,-847.9436 1576,-847.9436 1576,-810.9436 1448,-810.9436"/>
<text text-anchor="middle" x="1512" y="-825.7436" font-family="Times,serif" font-size="14.00" fill="#000000">reference_fasta</text>
</a>
</g>
</g>
<!-- file:///tmp/tmpn2fo5nnc#somalier_step -->
<g id="node20" class="node">
<title>file:///tmp/tmpn2fo5nnc#somalier_step</title>
<g id="a_node20"><a xlink:href="https://github.com/umccr/cwl-ica/blob/beta-release/.github/catalogue/docs/tools/somalier-extract/0.2.13/somalier-extract__0.2.13.md" xlink:title="Runs the somalier extract function to call the fingerprint on the germline bam file&#10;">
<polygon fill="#fafad2" stroke="#000000" points="1391.5,-367.9436 1391.5,-404.9436 1594.5,-404.9436 1594.5,-367.9436 1391.5,-367.9436"/>
<text text-anchor="middle" x="1493" y="-382.7436" font-family="Times,serif" font-size="14.00" fill="#000000">somalier&#45;extract v(0.2.13)</text>
</a>
</g>
</g>
<!-- file:///tmp/tmpn2fo5nnc#reference_fasta&#45;&gt;file:///tmp/tmpn2fo5nnc#somalier_step -->
<g id="edge16" class="edge">
<title>file:///tmp/tmpn2fo5nnc#reference_fasta&#45;&gt;file:///tmp/tmpn2fo5nnc#somalier_step</title>
<path fill="none" stroke="#000000" d="M1511.1957,-810.6914C1508.2184,-741.273 1497.8104,-498.6008 1494.2249,-415.0023"/>
<polygon fill="#000000" stroke="#000000" points="1497.7193,-414.7949 1493.7939,-404.9541 1490.7257,-415.095 1497.7193,-414.7949"/>
</g>
<!-- file:///tmp/tmpn2fo5nnc#get_faidx_file_step -->
<g id="node22" class="node">
<title>file:///tmp/tmpn2fo5nnc#get_faidx_file_step</title>
<g id="a_node22"><a xlink:href="https://github.com/umccr/cwl-ica/blob/beta-release/.github/catalogue/docs/expressions/get-faidx-file-from-reference-file/1.0.0/get-faidx-file-from-reference-file__1.0.0.md" xlink:title="Get the index of the reference fasta as its own file.&#10;Used by the get&#45;regions&#45;bed workflow&#10;">
<polygon fill="#ee9a00" stroke="#000000" points="193.5,-810.9436 193.5,-847.9436 498.5,-847.9436 498.5,-810.9436 193.5,-810.9436"/>
<text text-anchor="middle" x="346" y="-825.7436" font-family="Times,serif" font-size="14.00" fill="#000000">get&#45;faidx&#45;file&#45;from&#45;reference&#45;file v(1.0.0)</text>
</a>
</g>
</g>
<!-- file:///tmp/tmpn2fo5nnc#reference_fasta&#45;&gt;file:///tmp/tmpn2fo5nnc#get_faidx_file_step -->
<g id="edge17" class="edge">
<title>file:///tmp/tmpn2fo5nnc#reference_fasta&#45;&gt;file:///tmp/tmpn2fo5nnc#get_faidx_file_step</title>
<path fill="none" stroke="#000000" d="M1486.101,-848.0723C1470.6347,-858.0319 1450.1347,-869.2819 1430,-874.4436 1331.3027,-899.7454 614.0078,-887.814 513,-874.4436 478.4842,-869.8747 440.9752,-860.2129 410.2654,-851.009"/>
<polygon fill="#000000" stroke="#000000" points="411.1321,-847.6142 400.546,-848.0439 409.0895,-854.3096 411.1321,-847.6142"/>
</g>
<!-- file:///tmp/tmpn2fo5nnc#sample_name -->
<g id="node2" class="node">
<title>file:///tmp/tmpn2fo5nnc#sample_name</title>
<g id="a_node2"><a xlink:title="What is the name of the sample?&#10;Used to pre&#45;fill out many other inputs.&#10;">
<polygon fill="#94ddf4" stroke="#000000" points="1178,-810.9436 1178,-847.9436 1292,-847.9436 1292,-810.9436 1178,-810.9436"/>
<text text-anchor="middle" x="1235" y="-825.7436" font-family="Times,serif" font-size="14.00" fill="#000000">sample_name</text>
</a>
</g>
</g>
<!-- file:///tmp/tmpn2fo5nnc#qc_step -->
<g id="node18" class="node">
<title>file:///tmp/tmpn2fo5nnc#qc_step</title>
<g id="a_node18"><a xlink:href="https://github.com/umccr/cwl-ica/blob/beta-release/.github/catalogue/docs/tools/multiqc/1.10.1/multiqc__1.10.1.md" xlink:title="Runs multiqc on the run folder&#10;Uses a dummy file so that the folder can be placed in &#39;stream&#39; mode.&#10;">
<polygon fill="#fafad2" stroke="#000000" points="1233,-367.9436 1233,-404.9436 1373,-404.9436 1373,-367.9436 1233,-367.9436"/>
<text text-anchor="middle" x="1303" y="-382.7436" font-family="Times,serif" font-size="14.00" fill="#000000">multiqc v(1.10.1)</text>
</a>
</g>
</g>
<!-- file:///tmp/tmpn2fo5nnc#sample_name&#45;&gt;file:///tmp/tmpn2fo5nnc#qc_step -->
<g id="edge18" class="edge">
<title>file:///tmp/tmpn2fo5nnc#sample_name&#45;&gt;file:///tmp/tmpn2fo5nnc#qc_step</title>
<path fill="none" stroke="#000000" d="M1228.6662,-810.6758C1228.4964,-774.4231 1245.1565,-692.1853 1256,-622.4436 1267.596,-547.8618 1277.4211,-459.4285 1288.6477,-414.9755"/>
<polygon fill="#000000" stroke="#000000" points="1292.0695,-415.7342 1291.3765,-405.162 1285.3254,-413.8589 1292.0695,-415.7342"/>
</g>
<!-- file:///tmp/tmpn2fo5nnc#sample_name&#45;&gt;file:///tmp/tmpn2fo5nnc#qc_step -->
<g id="edge19" class="edge">
<title>file:///tmp/tmpn2fo5nnc#sample_name&#45;&gt;file:///tmp/tmpn2fo5nnc#qc_step</title>
<path fill="none" stroke="#000000" d="M1238.9531,-810.6758C1246.4964,-774.4231 1263.1565,-692.1853 1274,-622.4436 1285.5716,-548.0192 1295.3797,-459.8016 1300.06,-415.2574"/>
<polygon fill="#000000" stroke="#000000" points="1303.5566,-415.4708 1301.1113,-405.162 1296.5943,-414.7457 1303.5566,-415.4708"/>
</g>
<!-- file:///tmp/tmpn2fo5nnc#sample_name&#45;&gt;file:///tmp/tmpn2fo5nnc#qc_step -->
<g id="edge20" class="edge">
<title>file:///tmp/tmpn2fo5nnc#sample_name&#45;&gt;file:///tmp/tmpn2fo5nnc#qc_step</title>
<path fill="none" stroke="#000000" d="M1249.2401,-810.6758C1264.4964,-774.4231 1281.1565,-692.1853 1292,-622.4436 1303.5716,-548.0192 1313.3797,-459.8016 1311.5433,-415.2574"/>
<polygon fill="#000000" stroke="#000000" points="1315.0269,-414.8971 1310.8461,-405.162 1308.0435,-415.3795 1315.0269,-414.8971"/>
</g>
<!-- file:///tmp/tmpn2fo5nnc#dragen_germline_step -->
<g id="node19" class="node">
<title>file:///tmp/tmpn2fo5nnc#dragen_germline_step</title>
<g id="a_node19"><a xlink:href="https://github.com/umccr/cwl-ica/blob/beta-release/.github/catalogue/docs/workflows/dragen-germline-pipeline/3.7.5/dragen-germline-pipeline__3.7.5.md" xlink:title="Runs the dragen germline 3.7.5 workflow&#10;">
<polygon fill="#ee7ae9" stroke="#000000" points="727,-584.9436 727,-621.9436 983,-621.9436 983,-584.9436 727,-584.9436"/>
<text text-anchor="middle" x="855" y="-599.7436" font-family="Times,serif" font-size="14.00" fill="#000000">dragen&#45;germline&#45;pipeline v(3.7.5)</text>
</a>
</g>
</g>
<!-- file:///tmp/tmpn2fo5nnc#sample_name&#45;&gt;file:///tmp/tmpn2fo5nnc#dragen_germline_step -->
<g id="edge21" class="edge">
<title>file:///tmp/tmpn2fo5nnc#sample_name&#45;&gt;file:///tmp/tmpn2fo5nnc#dragen_germline_step</title>
<path fill="none" stroke="#000000" d="M1204.0447,-810.821C1190.6077,-801.0484 1174.7937,-789.1276 1160,-779.4436 1068.4296,-719.5014 955.1949,-659.2048 895.6735,-627.0916"/>
<polygon fill="#000000" stroke="#000000" points="897.0549,-623.8597 886.5934,-622.184 893.7265,-630.0178 897.0549,-623.8597"/>
</g>
<!-- file:///tmp/tmpn2fo5nnc#sample_name&#45;&gt;file:///tmp/tmpn2fo5nnc#dragen_germline_step -->
<g id="edge22" class="edge">
<title>file:///tmp/tmpn2fo5nnc#sample_name&#45;&gt;file:///tmp/tmpn2fo5nnc#dragen_germline_step</title>
<path fill="none" stroke="#000000" d="M1220.0482,-810.821C1208.6077,-801.0484 1192.7937,-789.1276 1178,-779.4436 1085.9282,-719.1731 971.9541,-658.5444 906.8425,-626.5666"/>
<polygon fill="#000000" stroke="#000000" points="908.1213,-623.2963 897.5988,-622.0599 905.0536,-629.5883 908.1213,-623.2963"/>
</g>
<!-- file:///tmp/tmpn2fo5nnc#sample_name&#45;&gt;file:///tmp/tmpn2fo5nnc#somalier_step -->
<g id="edge23" class="edge">
<title>file:///tmp/tmpn2fo5nnc#sample_name&#45;&gt;file:///tmp/tmpn2fo5nnc#somalier_step</title>
<path fill="none" stroke="#000000" d="M1242.9878,-810.6914C1278.7171,-740.9192 1421.1081,-496.1226 1473.6412,-413.7365"/>
<polygon fill="#000000" stroke="#000000" points="1476.8263,-415.2554 1479.3033,-404.9541 1470.943,-411.4623 1476.8263,-415.2554"/>
</g>
<!-- file:///tmp/tmpn2fo5nnc#sample_name&#45;&gt;file:///tmp/tmpn2fo5nnc#somalier_step -->
<g id="edge24" class="edge">
<title>file:///tmp/tmpn2fo5nnc#sample_name&#45;&gt;file:///tmp/tmpn2fo5nnc#somalier_step</title>
<path fill="none" stroke="#000000" d="M1248.8545,-810.6914C1294.3024,-741.0607 1436.5607,-497.1149 1480.3029,-414.2398"/>
<polygon fill="#000000" stroke="#000000" points="1483.6237,-415.4405 1485.1358,-404.9541 1477.4143,-412.2087 1483.6237,-415.4405"/>
</g>
<!-- file:///tmp/tmpn2fo5nnc#optitype_step -->
<g id="node21" class="node">
<title>file:///tmp/tmpn2fo5nnc#optitype_step</title>
<g id="a_node21"><a xlink:href="https://github.com/umccr/cwl-ica/blob/beta-release/.github/catalogue/docs/workflows/optitype-pipeline/1.3.5/optitype-pipeline__1.3.5.md" xlink:title="Run the optitype pipeline&#10;">
<polygon fill="#ee7ae9" stroke="#000000" points="431.5,-367.9436 431.5,-404.9436 628.5,-404.9436 628.5,-367.9436 431.5,-367.9436"/>
<text text-anchor="middle" x="530" y="-382.7436" font-family="Times,serif" font-size="14.00" fill="#000000">optitype&#45;pipeline v(1.3.5)</text>
</a>
</g>
</g>
<!-- file:///tmp/tmpn2fo5nnc#sample_name&#45;&gt;file:///tmp/tmpn2fo5nnc#optitype_step -->
<g id="edge25" class="edge">
<title>file:///tmp/tmpn2fo5nnc#sample_name&#45;&gt;file:///tmp/tmpn2fo5nnc#optitype_step</title>
<path fill="none" stroke="#000000" d="M1213.8731,-810.7161C1201.4629,-800.4351 1185.094,-788.0623 1169,-779.4436 981.8978,-679.2454 891.1628,-745.1691 718,-622.4436 636.6952,-564.8205 572.4099,-462.513 544.7479,-413.7543"/>
<polygon fill="#000000" stroke="#000000" points="547.7985,-412.0383 539.8612,-405.0205 541.6897,-415.4563 547.7985,-412.0383"/>
</g>
<!-- file:///tmp/tmpn2fo5nnc#sites_somalier -->
<g id="node3" class="node">
<title>file:///tmp/tmpn2fo5nnc#sites_somalier</title>
<g id="a_node3"><a xlink:title="gzipped vcf file. Required for somalier sites&#10;">
<polygon fill="#94ddf4" stroke="#000000" points="1310.5,-810.9436 1310.5,-847.9436 1429.5,-847.9436 1429.5,-810.9436 1310.5,-810.9436"/>
<text text-anchor="middle" x="1370" y="-825.7436" font-family="Times,serif" font-size="14.00" fill="#000000">sites_somalier</text>
</a>
</g>
</g>
<!-- file:///tmp/tmpn2fo5nnc#sites_somalier&#45;&gt;file:///tmp/tmpn2fo5nnc#somalier_step -->
<g id="edge26" class="edge">
<title>file:///tmp/tmpn2fo5nnc#sites_somalier&#45;&gt;file:///tmp/tmpn2fo5nnc#somalier_step</title>
<path fill="none" stroke="#000000" d="M1378.6137,-810.7307C1394.7916,-774.9042 1429.8954,-693.833 1450,-622.4436 1470.6503,-549.1164 1483.7437,-460.0889 1489.5365,-415.2343"/>
<polygon fill="#000000" stroke="#000000" points="1493.0391,-415.4336 1490.8207,-405.0736 1486.0943,-414.5558 1493.0391,-415.4336"/>
</g>
<!-- file:///tmp/tmpn2fo5nnc#reference_tar_dragen -->
<g id="node4" class="node">
<title>file:///tmp/tmpn2fo5nnc#reference_tar_dragen</title>
<g id="a_node4"><a xlink:title="Path to ref data tarball&#10;">
<polygon fill="#94ddf4" stroke="#000000" points="844,-810.9436 844,-847.9436 1016,-847.9436 1016,-810.9436 844,-810.9436"/>
<text text-anchor="middle" x="930" y="-825.7436" font-family="Times,serif" font-size="14.00" fill="#000000">reference_tar_dragen</text>
</a>
</g>
</g>
<!-- file:///tmp/tmpn2fo5nnc#reference_tar_dragen&#45;&gt;file:///tmp/tmpn2fo5nnc#dragen_germline_step -->
<g id="edge27" class="edge">
<title>file:///tmp/tmpn2fo5nnc#reference_tar_dragen&#45;&gt;file:///tmp/tmpn2fo5nnc#dragen_germline_step</title>
<path fill="none" stroke="#000000" d="M923.7345,-810.5637C910.5492,-770.8318 879.8759,-678.403 864.354,-631.6304"/>
<polygon fill="#000000" stroke="#000000" points="867.6665,-630.4994 861.1949,-622.1108 861.0228,-632.7042 867.6665,-630.4994"/>
</g>
<!-- file:///tmp/tmpn2fo5nnc#genome_version -->
<g id="node5" class="node">
<title>file:///tmp/tmpn2fo5nnc#genome_version</title>
<g id="a_node5"><a xlink:title="Either hg38 (default) or GRCh37?&#10;Used to set chromosome regions to filter down bam file for optitype workflow&#10;">
<polygon fill="#94ddf4" stroke="#000000" points="516.5,-810.9436 516.5,-847.9436 649.5,-847.9436 649.5,-810.9436 516.5,-810.9436"/>
<text text-anchor="middle" x="583" y="-825.7436" font-family="Times,serif" font-size="14.00" fill="#000000">genome_version</text>
</a>
</g>
</g>
<!-- file:///tmp/tmpn2fo5nnc#get_hla_regions_bed_step -->
<g id="node23" class="node">
<title>file:///tmp/tmpn2fo5nnc#get_hla_regions_bed_step</title>
<g id="a_node23"><a xlink:href="https://github.com/umccr/cwl-ica/blob/beta-release/.github/catalogue/docs/workflows/get-hla-regions-bed/1.0.0/get-hla-regions-bed__1.0.0.md" xlink:title="Get the hla regions for input into the optitype workflow&#10;">
<polygon fill="#ee7ae9" stroke="#000000" points="419,-584.9436 419,-621.9436 633,-621.9436 633,-584.9436 419,-584.9436"/>
<text text-anchor="middle" x="526" y="-599.7436" font-family="Times,serif" font-size="14.00" fill="#000000">get&#45;hla&#45;regions&#45;bed v(1.0.0)</text>
</a>
</g>
</g>
<!-- file:///tmp/tmpn2fo5nnc#genome_version&#45;&gt;file:///tmp/tmpn2fo5nnc#get_hla_regions_bed_step -->
<g id="edge28" class="edge">
<title>file:///tmp/tmpn2fo5nnc#genome_version&#45;&gt;file:///tmp/tmpn2fo5nnc#get_hla_regions_bed_step</title>
<path fill="none" stroke="#000000" d="M578.2383,-810.5637C568.2384,-770.9151 545.0034,-678.7903 533.1834,-631.9252"/>
<polygon fill="#000000" stroke="#000000" points="536.5475,-630.9512 530.7081,-622.1108 529.76,-632.6631 536.5475,-630.9512"/>
</g>
<!-- file:///tmp/tmpn2fo5nnc#hla_reference_fasta -->
<g id="node6" class="node">
<title>file:///tmp/tmpn2fo5nnc#hla_reference_fasta</title>
<g id="a_node6"><a xlink:title="Reference to align / filter large output bam to before running through optitype tool&#10;">
<polygon fill="#94ddf4" stroke="#000000" points="668,-810.9436 668,-847.9436 826,-847.9436 826,-810.9436 668,-810.9436"/>
<text text-anchor="middle" x="747" y="-825.7436" font-family="Times,serif" font-size="14.00" fill="#000000">hla_reference_fasta</text>
</a>
</g>
</g>
<!-- file:///tmp/tmpn2fo5nnc#hla_reference_fasta&#45;&gt;file:///tmp/tmpn2fo5nnc#optitype_step -->
<g id="edge29" class="edge">
<title>file:///tmp/tmpn2fo5nnc#hla_reference_fasta&#45;&gt;file:///tmp/tmpn2fo5nnc#optitype_step</title>
<path fill="none" stroke="#000000" d="M739.7801,-810.6878C723.6475,-769.2371 682.8698,-666.9677 642,-584.4436 611.1383,-522.1278 569.7458,-451.8652 546.9087,-414.0676"/>
<polygon fill="#000000" stroke="#000000" points="549.6982,-411.9178 541.5201,-405.1821 543.7129,-415.5476 549.6982,-411.9178"/>
</g>
<!-- file:///tmp/tmpn2fo5nnc#fastq_list_rows -->
<g id="node7" class="node">
<title>file:///tmp/tmpn2fo5nnc#fastq_list_rows</title>
<g id="a_node7"><a xlink:title="The row of fastq lists.&#10; &#160;Each row has the following attributes:&#10; &#160;&#160;&#160;* RGID&#10; &#160;&#160;&#160;* RGLB&#10; &#160;&#160;&#160;* RGSM&#10; &#160;&#160;&#160;* Lane&#10; &#160;&#160;&#160;* Read1File&#10; &#160;&#160;&#160;* Read2File (optional)&#10;">
<polygon fill="#94ddf4" stroke="#000000" points="1034.5,-810.9436 1034.5,-847.9436 1159.5,-847.9436 1159.5,-810.9436 1034.5,-810.9436"/>
<text text-anchor="middle" x="1097" y="-825.7436" font-family="Times,serif" font-size="14.00" fill="#000000">fastq_list_rows</text>
</a>
</g>
</g>
<!-- file:///tmp/tmpn2fo5nnc#fastq_list_rows&#45;&gt;file:///tmp/tmpn2fo5nnc#dragen_germline_step -->
<g id="edge30" class="edge">
<title>file:///tmp/tmpn2fo5nnc#fastq_list_rows&#45;&gt;file:///tmp/tmpn2fo5nnc#dragen_germline_step</title>
<path fill="none" stroke="#000000" d="M1076.7835,-810.5637C1033.436,-770.0822 931.5114,-674.8964 882.4003,-629.0323"/>
<polygon fill="#000000" stroke="#000000" points="884.6863,-626.3782 874.9888,-622.1108 879.9085,-631.4942 884.6863,-626.3782"/>
</g>
<!-- file:///tmp/tmpn2fo5nnc#somalier_output_directory -->
<g id="node8" class="node">
<title>file:///tmp/tmpn2fo5nnc#somalier_output_directory</title>
<g id="a_node8"><a xlink:title="Output directory from somalier step&#10;">
<polygon fill="#94ddf4" stroke="#000000" points="1591,-151.9436 1591,-188.9436 1797,-188.9436 1797,-151.9436 1591,-151.9436"/>
<text text-anchor="middle" x="1694" y="-166.7436" font-family="Times,serif" font-size="14.00" fill="#000000">somalier_output_directory</text>
</a>
</g>
</g>
<!-- file:///tmp/tmpn2fo5nnc#dragen_bam_output -->
<g id="node9" class="node">
<title>file:///tmp/tmpn2fo5nnc#dragen_bam_output</title>
<g id="a_node9"><a xlink:title="Output alignment file for dragen germline run&#10;">
<polygon fill="#94ddf4" stroke="#000000" points="638,-151.9436 638,-188.9436 798,-188.9436 798,-151.9436 638,-151.9436"/>
<text text-anchor="middle" x="718" y="-166.7436" font-family="Times,serif" font-size="14.00" fill="#000000">dragen_bam_output</text>
</a>
</g>
</g>
<!-- file:///tmp/tmpn2fo5nnc#optitype_coverage_plot -->
<g id="node10" class="node">
<title>file:///tmp/tmpn2fo5nnc#optitype_coverage_plot</title>
<g id="a_node10"><a xlink:title="Output coverage pdf from optitype step&#10;">
<polygon fill="#94ddf4" stroke="#000000" points="16,-151.9436 16,-188.9436 200,-188.9436 200,-151.9436 16,-151.9436"/>
<text text-anchor="middle" x="108" y="-166.7436" font-family="Times,serif" font-size="14.00" fill="#000000">optitype_coverage_plot</text>
</a>
</g>
</g>
<!-- file:///tmp/tmpn2fo5nnc#multiqc_output_file -->
<g id="node11" class="node">
<title>file:///tmp/tmpn2fo5nnc#multiqc_output_file</title>
<g id="a_node11"><a xlink:title="Output html for multiqc&#10;">
<polygon fill="#94ddf4" stroke="#000000" points="1417,-151.9436 1417,-188.9436 1573,-188.9436 1573,-151.9436 1417,-151.9436"/>
<text text-anchor="middle" x="1495" y="-166.7436" font-family="Times,serif" font-size="14.00" fill="#000000">multiqc_output_file</text>
</a>
</g>
</g>
<!-- file:///tmp/tmpn2fo5nnc#dragen_output_directory -->
<g id="node12" class="node">
<title>file:///tmp/tmpn2fo5nnc#dragen_output_directory</title>
<g id="a_node12"><a xlink:title="Output directory for dragen&#10;">
<polygon fill="#94ddf4" stroke="#000000" points="816.5,-151.9436 816.5,-188.9436 1011.5,-188.9436 1011.5,-151.9436 816.5,-151.9436"/>
<text text-anchor="middle" x="914" y="-166.7436" font-family="Times,serif" font-size="14.00" fill="#000000">dragen_output_directory</text>
</a>
</g>
</g>
<!-- file:///tmp/tmpn2fo5nnc#multiqc_output_directory -->
<g id="node13" class="node">
<title>file:///tmp/tmpn2fo5nnc#multiqc_output_directory</title>
<g id="a_node13"><a xlink:title="Output directory with multiqc data and html&#10;">
<polygon fill="#94ddf4" stroke="#000000" points="1199,-151.9436 1199,-188.9436 1399,-188.9436 1399,-151.9436 1199,-151.9436"/>
<text text-anchor="middle" x="1299" y="-166.7436" font-family="Times,serif" font-size="14.00" fill="#000000">multiqc_output_directory</text>
</a>
</g>
</g>
<!-- file:///tmp/tmpn2fo5nnc#dragen_vcf_output -->
<g id="node14" class="node">
<title>file:///tmp/tmpn2fo5nnc#dragen_vcf_output</title>
<g id="a_node14"><a xlink:title="Output vcf file for dragen germline run&#10;">
<polygon fill="#94ddf4" stroke="#000000" points="1029.5,-151.9436 1029.5,-188.9436 1180.5,-188.9436 1180.5,-151.9436 1029.5,-151.9436"/>
<text text-anchor="middle" x="1105" y="-166.7436" font-family="Times,serif" font-size="14.00" fill="#000000">dragen_vcf_output</text>
</a>
</g>
</g>
<!-- file:///tmp/tmpn2fo5nnc#optitype_result_matrix -->
<g id="node15" class="node">
<title>file:///tmp/tmpn2fo5nnc#optitype_result_matrix</title>
<g id="a_node15"><a xlink:title="Output matrix file from optitype step&#10;">
<polygon fill="#94ddf4" stroke="#000000" points="440,-151.9436 440,-188.9436 620,-188.9436 620,-151.9436 440,-151.9436"/>
<text text-anchor="middle" x="530" y="-166.7436" font-family="Times,serif" font-size="14.00" fill="#000000">optitype_result_matrix</text>
</a>
</g>
</g>
<!-- file:///tmp/tmpn2fo5nnc#optitype_output_directory -->
<g id="node16" class="node">
<title>file:///tmp/tmpn2fo5nnc#optitype_output_directory</title>
<g id="a_node16"><a xlink:title="Output directory for optitype files&#10;">
<polygon fill="#94ddf4" stroke="#000000" points="218,-151.9436 218,-188.9436 422,-188.9436 422,-151.9436 218,-151.9436"/>
<text text-anchor="middle" x="320" y="-166.7436" font-family="Times,serif" font-size="14.00" fill="#000000">optitype_output_directory</text>
</a>
</g>
</g>
<!-- file:///tmp/tmpn2fo5nnc#create_dummy_file_step -->
<g id="node17" class="node">
<title>file:///tmp/tmpn2fo5nnc#create_dummy_file_step</title>
<g id="a_node17"><a xlink:href="https://github.com/umccr/cwl-ica/blob/beta-release/.github/catalogue/docs/tools/custom-touch-file/1.0.0/custom-touch-file__1.0.0.md" xlink:title="Intermediate step for letting multiqc&#45;interop be placed in stream mode&#10;">
<polygon fill="#fafad2" stroke="#000000" points="1001.5,-584.9436 1001.5,-621.9436 1264.5,-621.9436 1264.5,-584.9436 1001.5,-584.9436"/>
<text text-anchor="middle" x="1133" y="-599.7436" font-family="Times,serif" font-size="14.00" fill="#000000">custom&#45;create&#45;dummy&#45;file v(1.0.0)</text>
</a>
</g>
</g>
<!-- file:///tmp/tmpn2fo5nnc#create_dummy_file_step&#45;&gt;file:///tmp/tmpn2fo5nnc#qc_step -->
<g id="edge1" class="edge">
<title>file:///tmp/tmpn2fo5nnc#create_dummy_file_step&#45;&gt;file:///tmp/tmpn2fo5nnc#qc_step</title>
<path fill="none" stroke="#000000" d="M1147.4941,-584.9423C1177.5918,-546.5234 1246.9692,-457.9653 1281.9799,-413.2752"/>
<polygon fill="#000000" stroke="#000000" points="1284.8893,-415.2367 1288.3011,-405.2063 1279.3789,-410.9198 1284.8893,-415.2367"/>
</g>
<!-- file:///tmp/tmpn2fo5nnc#qc_step&#45;&gt;file:///tmp/tmpn2fo5nnc#multiqc_output_file -->
<g id="edge2" class="edge">
<title>file:///tmp/tmpn2fo5nnc#qc_step&#45;&gt;file:///tmp/tmpn2fo5nnc#multiqc_output_file</title>
<path fill="none" stroke="#000000" d="M1319.7029,-367.6528C1353.9727,-329.0993 1432.3079,-240.9722 1471.608,-196.7596"/>
<polygon fill="#000000" stroke="#000000" points="1474.4447,-198.8364 1478.4725,-189.037 1469.2129,-194.1859 1474.4447,-198.8364"/>
</g>
<!-- file:///tmp/tmpn2fo5nnc#qc_step&#45;&gt;file:///tmp/tmpn2fo5nnc#multiqc_output_directory -->
<g id="edge3" class="edge">
<title>file:///tmp/tmpn2fo5nnc#qc_step&#45;&gt;file:///tmp/tmpn2fo5nnc#multiqc_output_directory</title>
<path fill="none" stroke="#000000" d="M1302.652,-367.6528C1301.9514,-329.8191 1300.3667,-244.2459 1299.534,-199.2816"/>
<polygon fill="#000000" stroke="#000000" points="1303.029,-198.9705 1299.3443,-189.037 1296.0302,-199.1002 1303.029,-198.9705"/>
</g>
<!-- file:///tmp/tmpn2fo5nnc#dragen_germline_step&#45;&gt;file:///tmp/tmpn2fo5nnc#dragen_bam_output -->
<g id="edge7" class="edge">
<title>file:///tmp/tmpn2fo5nnc#dragen_germline_step&#45;&gt;file:///tmp/tmpn2fo5nnc#dragen_bam_output</title>
<path fill="none" stroke="#000000" d="M849.1133,-584.8381C827.5516,-516.6906 752.8023,-280.4393 726.9108,-198.6069"/>
<polygon fill="#000000" stroke="#000000" points="730.2184,-197.4581 723.8648,-188.9797 723.5445,-199.5697 730.2184,-197.4581"/>
</g>
<!-- file:///tmp/tmpn2fo5nnc#dragen_germline_step&#45;&gt;file:///tmp/tmpn2fo5nnc#dragen_output_directory -->
<g id="edge8" class="edge">
<title>file:///tmp/tmpn2fo5nnc#dragen_germline_step&#45;&gt;file:///tmp/tmpn2fo5nnc#dragen_output_directory</title>
<path fill="none" stroke="#000000" d="M857.5352,-584.8381C866.8019,-516.8294 898.8811,-281.4009 910.0941,-199.1089"/>
<polygon fill="#000000" stroke="#000000" points="913.592,-199.3607 911.4743,-188.9797 906.6561,-198.4156 913.592,-199.3607"/>
</g>
<!-- file:///tmp/tmpn2fo5nnc#dragen_germline_step&#45;&gt;file:///tmp/tmpn2fo5nnc#dragen_vcf_output -->
<g id="edge9" class="edge">
<title>file:///tmp/tmpn2fo5nnc#dragen_germline_step&#45;&gt;file:///tmp/tmpn2fo5nnc#dragen_vcf_output</title>
<path fill="none" stroke="#000000" d="M865.7422,-584.8381C905.1685,-516.5518 1042.0481,-279.4763 1089.027,-198.1089"/>
<polygon fill="#000000" stroke="#000000" points="1092.3287,-199.39 1094.2978,-188.9797 1086.2666,-195.8899 1092.3287,-199.39"/>
</g>
<!-- file:///tmp/tmpn2fo5nnc#dragen_germline_step&#45;&gt;file:///tmp/tmpn2fo5nnc#qc_step -->
<g id="edge4" class="edge">
<title>file:///tmp/tmpn2fo5nnc#dragen_germline_step&#45;&gt;file:///tmp/tmpn2fo5nnc#qc_step</title>
<path fill="none" stroke="#000000" d="M893.1962,-584.9423C974.8409,-545.3957 1166.1654,-452.7228 1255.4918,-409.4553"/>
<polygon fill="#000000" stroke="#000000" points="1257.1088,-412.5612 1264.5828,-405.0519 1254.0572,-406.2613 1257.1088,-412.5612"/>
</g>
<!-- file:///tmp/tmpn2fo5nnc#dragen_germline_step&#45;&gt;file:///tmp/tmpn2fo5nnc#somalier_step -->
<g id="edge5" class="edge">
<title>file:///tmp/tmpn2fo5nnc#dragen_germline_step&#45;&gt;file:///tmp/tmpn2fo5nnc#somalier_step</title>
<path fill="none" stroke="#000000" d="M909.3955,-584.9423C1026.7243,-545.0358 1303.1047,-451.0318 1428.7799,-408.2865"/>
<polygon fill="#000000" stroke="#000000" points="1429.9495,-411.5856 1438.2898,-405.0519 1427.6954,-404.9585 1429.9495,-411.5856"/>
</g>
<!-- file:///tmp/tmpn2fo5nnc#dragen_germline_step&#45;&gt;file:///tmp/tmpn2fo5nnc#optitype_step -->
<g id="edge6" class="edge">
<title>file:///tmp/tmpn2fo5nnc#dragen_germline_step&#45;&gt;file:///tmp/tmpn2fo5nnc#optitype_step</title>
<path fill="none" stroke="#000000" d="M827.2907,-584.9423C768.6743,-545.8046 632.1281,-454.6337 566.4984,-410.8133"/>
<polygon fill="#000000" stroke="#000000" points="568.3609,-407.8484 558.1008,-405.2063 564.4739,-413.67 568.3609,-407.8484"/>
</g>
<!-- file:///tmp/tmpn2fo5nnc#somalier_step&#45;&gt;file:///tmp/tmpn2fo5nnc#somalier_output_directory -->
<g id="edge10" class="edge">
<title>file:///tmp/tmpn2fo5nnc#somalier_step&#45;&gt;file:///tmp/tmpn2fo5nnc#somalier_output_directory</title>
<path fill="none" stroke="#000000" d="M1510.4858,-367.6528C1546.4365,-329.0193 1628.7097,-240.6063 1669.767,-196.485"/>
<polygon fill="#000000" stroke="#000000" points="1672.4477,-198.7421 1676.6977,-189.037 1667.3232,-193.9734 1672.4477,-198.7421"/>
</g>
<!-- file:///tmp/tmpn2fo5nnc#optitype_step&#45;&gt;file:///tmp/tmpn2fo5nnc#optitype_coverage_plot -->
<g id="edge13" class="edge">
<title>file:///tmp/tmpn2fo5nnc#optitype_step&#45;&gt;file:///tmp/tmpn2fo5nnc#optitype_coverage_plot</title>
<path fill="none" stroke="#000000" d="M493.6553,-367.8406C416.7673,-328.4856 237.7961,-236.8795 153.4799,-193.7224"/>
<polygon fill="#000000" stroke="#000000" points="154.9034,-190.5192 144.4069,-189.0784 151.7139,-196.7504 154.9034,-190.5192"/>
</g>
<!-- file:///tmp/tmpn2fo5nnc#optitype_step&#45;&gt;file:///tmp/tmpn2fo5nnc#optitype_result_matrix -->
<g id="edge14" class="edge">
<title>file:///tmp/tmpn2fo5nnc#optitype_step&#45;&gt;file:///tmp/tmpn2fo5nnc#optitype_result_matrix</title>
<path fill="none" stroke="#000000" d="M530,-367.6528C530,-329.8191 530,-244.2459 530,-199.2816"/>
<polygon fill="#000000" stroke="#000000" points="533.5001,-199.037 530,-189.037 526.5001,-199.0371 533.5001,-199.037"/>
</g>
<!-- file:///tmp/tmpn2fo5nnc#optitype_step&#45;&gt;file:///tmp/tmpn2fo5nnc#optitype_output_directory -->
<g id="edge15" class="edge">
<title>file:///tmp/tmpn2fo5nnc#optitype_step&#45;&gt;file:///tmp/tmpn2fo5nnc#optitype_output_directory</title>
<path fill="none" stroke="#000000" d="M511.7312,-367.6528C474.093,-328.9393 387.8576,-240.24 345.0522,-196.2115"/>
<polygon fill="#000000" stroke="#000000" points="347.5573,-193.7672 338.077,-189.037 342.5383,-198.6468 347.5573,-193.7672"/>
</g>
<!-- file:///tmp/tmpn2fo5nnc#get_faidx_file_step&#45;&gt;file:///tmp/tmpn2fo5nnc#get_hla_regions_bed_step -->
<g id="edge11" class="edge">
<title>file:///tmp/tmpn2fo5nnc#get_faidx_file_step&#45;&gt;file:///tmp/tmpn2fo5nnc#get_hla_regions_bed_step</title>
<path fill="none" stroke="#000000" d="M361.0371,-810.5637C393.0136,-770.4153 467.8457,-676.4595 504.7097,-630.1747"/>
<polygon fill="#000000" stroke="#000000" points="507.64,-632.1135 511.1323,-622.1108 502.1644,-627.7525 507.64,-632.1135"/>
</g>
<!-- file:///tmp/tmpn2fo5nnc#get_hla_regions_bed_step&#45;&gt;file:///tmp/tmpn2fo5nnc#optitype_step -->
<g id="edge12" class="edge">
<title>file:///tmp/tmpn2fo5nnc#get_hla_regions_bed_step&#45;&gt;file:///tmp/tmpn2fo5nnc#optitype_step</title>
<path fill="none" stroke="#000000" d="M526.341,-584.9423C527.0389,-547.0825 528.6343,-460.5322 529.4689,-415.2539"/>
<polygon fill="#000000" stroke="#000000" points="532.9692,-415.2691 529.6541,-405.2063 525.9703,-415.14 532.9692,-415.2691"/>
</g>
</g>
</svg>
