<?xml version="1.0" encoding="UTF-8" standalone="no"?>
<!DOCTYPE svg PUBLIC "-//W3C//DTD SVG 1.1//EN"
 "http://www.w3.org/Graphics/SVG/1.1/DTD/svg11.dtd">
<!-- Generated by graphviz version 2.43.0 (0)
 -->
<!-- Title: G Pages: 1 -->
<svg width="1803pt" height="931pt"
 viewBox="0.00 0.00 1803.00 930.63" xmlns="http://www.w3.org/2000/svg" xmlns:xlink="http://www.w3.org/1999/xlink">
<g id="graph0" class="graph" transform="scale(1 1) rotate(0) translate(4 926.63)">
<title>G</title>
<polygon fill="#eeeeee" stroke="transparent" points="-4,4 -4,-926.63 1799,-926.63 1799,4 -4,4"/>
<g id="clust1" class="cluster">
<title>cluster_inputs</title>
<polygon fill="#eeeeee" stroke="black" stroke-dasharray="5,2" points="421,-676.02 421,-899.42 1486,-899.42 1486,-676.02 421,-676.02"/>
<text text-anchor="middle" x="1419.5" y="-683.82" font-family="Times,serif" font-size="14.00">Workflow Inputs</text>
</g>
<g id="clust2" class="cluster">
<title>cluster_outputs</title>
<polygon fill="#eeeeee" stroke="black" stroke-dasharray="5,2" points="8,-23.21 8,-246.61 1787,-246.61 1787,-23.21 8,-23.21"/>
<text text-anchor="middle" x="1714.5" y="-31.01" font-family="Times,serif" font-size="14.00">Workflow Outputs</text>
</g>
<!-- fastq_list_rows -->
<g id="node1" class="node">
<title>fastq_list_rows</title>
<g id="a_node1"><a xlink:title="The row of fastq lists.&#10; &#160;Each row has the following attributes:&#10; &#160;&#160;&#160;* RGID&#10; &#160;&#160;&#160;* RGLB&#10; &#160;&#160;&#160;* RGSM&#10; &#160;&#160;&#160;* Lane&#10; &#160;&#160;&#160;* Read1File&#10; &#160;&#160;&#160;* Read2File (optional)&#10;">
<polygon fill="#94ddf4" stroke="black" points="941.5,-802.71 941.5,-839.71 1064.5,-839.71 1064.5,-802.71 941.5,-802.71"/>
<text text-anchor="middle" x="1003" y="-817.51" font-family="Times,serif" font-size="14.00">fastq_list_rows</text>
</a>
</g>
</g>
<!-- dragen_germline_step -->
<g id="node20" class="node">
<title>dragen_germline_step</title>
<g id="a_node20"><a xlink:href="https://github.com/umccr/cwl-ica/blob/main/.github/catalogue/docs/workflows/dragen-germline-pipeline/3.7.5/dragen-germline-pipeline__3.7.5.md" xlink:title="Runs the dragen germline 3.7.5 workflow&#10;">
<polygon fill="#ee7ae9" stroke="black" points="837,-578.71 837,-615.71 1093,-615.71 1093,-578.71 837,-578.71"/>
<text text-anchor="middle" x="965" y="-593.51" font-family="Times,serif" font-size="14.00">dragen&#45;germline&#45;pipeline v(3.7.5)</text>
</a>
</g>
</g>
<!-- fastq_list_rows&#45;&gt;dragen_germline_step -->
<g id="edge16" class="edge">
<title>fastq_list_rows&#45;&gt;dragen_germline_step</title>
<path fill="none" stroke="black" d="M999.95,-802.42C993.34,-763.76 977.61,-671.87 969.7,-625.69"/>
<polygon fill="black" stroke="black" points="973.14,-625.05 968.01,-615.78 966.24,-626.23 973.14,-625.05"/>
</g>
<!-- sample_name -->
<g id="node2" class="node">
<title>sample_name</title>
<g id="a_node2"><a xlink:title="What is the name of the sample?&#10;Used to pre&#45;fill out many other inputs.&#10;">
<polygon fill="#94ddf4" stroke="black" points="1082.5,-802.71 1082.5,-839.71 1195.5,-839.71 1195.5,-802.71 1082.5,-802.71"/>
<text text-anchor="middle" x="1139" y="-817.51" font-family="Times,serif" font-size="14.00">sample_name</text>
</a>
</g>
</g>
<!-- optitype_step -->
<g id="node19" class="node">
<title>optitype_step</title>
<g id="a_node19"><a xlink:href="https://github.com/umccr/cwl-ica/blob/main/.github/catalogue/docs/workflows/optitype-pipeline/1.3.5/optitype-pipeline__1.3.5.md" xlink:title="Run the optitype pipeline&#10;">
<polygon fill="#ee7ae9" stroke="black" points="416.5,-364.71 416.5,-401.71 613.5,-401.71 613.5,-364.71 416.5,-364.71"/>
<text text-anchor="middle" x="515" y="-379.51" font-family="Times,serif" font-size="14.00">optitype&#45;pipeline v(1.3.5)</text>
</a>
</g>
</g>
<!-- sample_name&#45;&gt;optitype_step -->
<g id="edge19" class="edge">
<title>sample_name&#45;&gt;optitype_step</title>
<path fill="none" stroke="black" d="M1116.48,-802.5C1104.12,-792.97 1088.42,-781.16 1074,-771.21 967.65,-697.81 934.65,-689.18 828,-616.21 722.07,-543.73 601.2,-451.23 545.75,-408.21"/>
<polygon fill="black" stroke="black" points="547.78,-405.36 537.73,-401.99 543.48,-410.89 547.78,-405.36"/>
</g>
<!-- sample_name&#45;&gt;dragen_germline_step -->
<g id="edge17" class="edge">
<title>sample_name&#45;&gt;dragen_germline_step</title>
<path fill="none" stroke="black" d="M1121.18,-802.42C1086.89,-763.27 1013.21,-669.54 980.67,-623.96"/>
<polygon fill="black" stroke="black" points="983.53,-621.94 974.91,-615.78 977.8,-625.97 983.53,-621.94"/>
</g>
<!-- sample_name&#45;&gt;dragen_germline_step -->
<g id="edge18" class="edge">
<title>sample_name&#45;&gt;dragen_germline_step</title>
<path fill="none" stroke="black" d="M1128.93,-802.42C1101.74,-763.11 1027.99,-668.76 989.21,-623.4"/>
<polygon fill="black" stroke="black" points="991.82,-621.05 982.63,-615.78 986.52,-625.63 991.82,-621.05"/>
</g>
<!-- qc_step -->
<g id="node21" class="node">
<title>qc_step</title>
<g id="a_node21"><a xlink:href="https://github.com/umccr/cwl-ica/blob/main/.github/catalogue/docs/tools/multiqc/1.10.1/multiqc__1.10.1.md" xlink:title="Runs multiqc on the run folder&#10;Uses a dummy file so that the folder can be placed in &#39;stream&#39; mode.&#10;">
<polygon fill="lightgoldenrodyellow" stroke="black" points="1069.5,-364.71 1069.5,-401.71 1208.5,-401.71 1208.5,-364.71 1069.5,-364.71"/>
<text text-anchor="middle" x="1139" y="-379.51" font-family="Times,serif" font-size="14.00">multiqc v(1.10.1)</text>
</a>
</g>
</g>
<!-- sample_name&#45;&gt;qc_step -->
<g id="edge20" class="edge">
<title>sample_name&#45;&gt;qc_step</title>
<path fill="none" stroke="black" d="M1133.25,-802.58C1123.37,-735.34 1122.94,-494.67 1131.95,-412.19"/>
<polygon fill="black" stroke="black" points="1135.45,-412.42 1133.22,-402.06 1128.5,-411.55 1135.45,-412.42"/>
</g>
<!-- sample_name&#45;&gt;qc_step -->
<g id="edge21" class="edge">
<title>sample_name&#45;&gt;qc_step</title>
<path fill="none" stroke="black" d="M1139,-802.58C1139,-735.34 1139,-494.67 1139,-412.19"/>
<polygon fill="black" stroke="black" points="1142.5,-412.06 1139,-402.06 1135.5,-412.06 1142.5,-412.06"/>
</g>
<!-- sample_name&#45;&gt;qc_step -->
<g id="edge22" class="edge">
<title>sample_name&#45;&gt;qc_step</title>
<path fill="none" stroke="black" d="M1144.75,-802.58C1154.63,-735.34 1155.06,-494.67 1146.05,-412.19"/>
<polygon fill="black" stroke="black" points="1149.5,-411.55 1144.78,-402.06 1142.55,-412.42 1149.5,-411.55"/>
</g>
<!-- somalier_step -->
<g id="node22" class="node">
<title>somalier_step</title>
<g id="a_node22"><a xlink:href="https://github.com/umccr/cwl-ica/blob/main/.github/catalogue/docs/tools/somalier-extract/0.2.13/somalier-extract__0.2.13.md" xlink:title="Runs the somalier extract function to call the fingerprint on the germline bam file&#10;">
<polygon fill="lightgoldenrodyellow" stroke="black" points="1383,-364.71 1383,-401.71 1585,-401.71 1585,-364.71 1383,-364.71"/>
<text text-anchor="middle" x="1484" y="-379.51" font-family="Times,serif" font-size="14.00">somalier&#45;extract v(0.2.13)</text>
</a>
</g>
</g>
<!-- sample_name&#45;&gt;somalier_step -->
<g id="edge23" class="edge">
<title>sample_name&#45;&gt;somalier_step</title>
<path fill="none" stroke="black" d="M1153.89,-802.48C1165.41,-792.95 1181.35,-781.14 1196,-771.21 1304.51,-697.62 1376.38,-726.68 1447,-616.21 1487.77,-552.45 1483.99,-458.42 1482.42,-412.1"/>
<polygon fill="black" stroke="black" points="1485.91,-411.8 1482.11,-401.91 1478.92,-412.02 1485.91,-411.8"/>
</g>
<!-- sample_name&#45;&gt;somalier_step -->
<g id="edge24" class="edge">
<title>sample_name&#45;&gt;somalier_step</title>
<path fill="none" stroke="black" d="M1169.84,-802.48C1183.41,-792.95 1199.35,-781.14 1214,-771.21 1322.51,-697.62 1394.38,-726.68 1465,-616.21 1505.85,-552.31 1501.97,-458.03 1493.4,-411.8"/>
<polygon fill="black" stroke="black" points="1496.81,-410.98 1491.33,-401.91 1489.95,-412.42 1496.81,-410.98"/>
</g>
<!-- reference_tar_dragen -->
<g id="node3" class="node">
<title>reference_tar_dragen</title>
<g id="a_node3"><a xlink:title="Path to ref data tarball&#10;">
<polygon fill="#94ddf4" stroke="black" points="753,-802.71 753,-839.71 923,-839.71 923,-802.71 753,-802.71"/>
<text text-anchor="middle" x="838" y="-817.51" font-family="Times,serif" font-size="14.00">reference_tar_dragen</text>
</a>
</g>
</g>
<!-- reference_tar_dragen&#45;&gt;dragen_germline_step -->
<g id="edge25" class="edge">
<title>reference_tar_dragen&#45;&gt;dragen_germline_step</title>
<path fill="none" stroke="black" d="M848.18,-802.42C870.48,-763.43 923.75,-670.32 949.94,-624.53"/>
<polygon fill="black" stroke="black" points="953.02,-626.2 954.95,-615.78 946.95,-622.72 953.02,-626.2"/>
</g>
<!-- reference_fasta -->
<g id="node4" class="node">
<title>reference_fasta</title>
<g id="a_node4"><a xlink:title="The reference fasta file with a .fai index.&#10;Required for somalier and optitype steps&#10;">
<polygon fill="#94ddf4" stroke="black" points="1213.5,-802.71 1213.5,-839.71 1340.5,-839.71 1340.5,-802.71 1213.5,-802.71"/>
<text text-anchor="middle" x="1277" y="-817.51" font-family="Times,serif" font-size="14.00">reference_fasta</text>
</a>
</g>
</g>
<!-- get_faidx_file_step -->
<g id="node17" class="node">
<title>get_faidx_file_step</title>
<g id="a_node17"><a xlink:href="https://github.com/umccr/cwl-ica/blob/main/.github/catalogue/docs/expressions/get-faidx-file-from-reference-file/1.0.0/get-faidx-file-from-reference-file__1.0.0.md" xlink:title="Get the index of the reference fasta as its own file.&#10;Used by the get&#45;regions&#45;bed workflow&#10;">
<polygon fill="#ee9a00" stroke="black" points="109,-802.71 109,-839.71 411,-839.71 411,-802.71 109,-802.71"/>
<text text-anchor="middle" x="260" y="-817.51" font-family="Times,serif" font-size="14.00">get&#45;faidx&#45;file&#45;from&#45;reference&#45;file v(1.0.0)</text>
</a>
</g>
</g>
<!-- reference_fasta&#45;&gt;get_faidx_file_step -->
<g id="edge26" class="edge">
<title>reference_fasta&#45;&gt;get_faidx_file_step</title>
<path fill="none" stroke="black" d="M1251.45,-839.84C1236.18,-849.8 1215.93,-861.05 1196,-866.21 1113.18,-887.67 510.81,-877.5 426,-866.21 391.68,-861.64 354.39,-851.98 323.87,-842.78"/>
<polygon fill="black" stroke="black" points="324.8,-839.4 314.21,-839.81 322.74,-846.09 324.8,-839.4"/>
</g>
<!-- reference_fasta&#45;&gt;somalier_step -->
<g id="edge27" class="edge">
<title>reference_fasta&#45;&gt;somalier_step</title>
<path fill="none" stroke="black" d="M1301.65,-802.48C1356.4,-762.51 1485.05,-665.01 1507,-616.21 1537.88,-547.55 1511.74,-456.18 1495.14,-411.35"/>
<polygon fill="black" stroke="black" points="1498.31,-409.85 1491.47,-401.76 1491.77,-412.35 1498.31,-409.85"/>
</g>
<!-- genome_version -->
<g id="node5" class="node">
<title>genome_version</title>
<g id="a_node5"><a xlink:title="Either hg38 (default) or GRCh37?&#10;Used to set chromosome regions to filter down bam file for optitype workflow&#10;">
<polygon fill="#94ddf4" stroke="black" points="429,-802.71 429,-839.71 561,-839.71 561,-802.71 429,-802.71"/>
<text text-anchor="middle" x="495" y="-817.51" font-family="Times,serif" font-size="14.00">genome_version</text>
</a>
</g>
</g>
<!-- get_hla_regions_bed_step -->
<g id="node18" class="node">
<title>get_hla_regions_bed_step</title>
<g id="a_node18"><a xlink:href="https://github.com/umccr/cwl-ica/blob/main/.github/catalogue/docs/workflows/get-hla-regions-bed/1.0.0/get-hla-regions-bed__1.0.0.md" xlink:title="Get the hla regions for input into the optitype workflow&#10;">
<polygon fill="#ee7ae9" stroke="black" points="388,-578.71 388,-615.71 602,-615.71 602,-578.71 388,-578.71"/>
<text text-anchor="middle" x="495" y="-593.51" font-family="Times,serif" font-size="14.00">get&#45;hla&#45;regions&#45;bed v(1.0.0)</text>
</a>
</g>
</g>
<!-- genome_version&#45;&gt;get_hla_regions_bed_step -->
<g id="edge28" class="edge">
<title>genome_version&#45;&gt;get_hla_regions_bed_step</title>
<path fill="none" stroke="black" d="M495,-802.42C495,-763.84 495,-672.25 495,-625.98"/>
<polygon fill="black" stroke="black" points="498.5,-625.78 495,-615.78 491.5,-625.78 498.5,-625.78"/>
</g>
<!-- hla_reference_fasta -->
<g id="node6" class="node">
<title>hla_reference_fasta</title>
<g id="a_node6"><a xlink:title="Reference to align / filter large output bam to before running through optitype tool&#10;">
<polygon fill="#94ddf4" stroke="black" points="579.5,-802.71 579.5,-839.71 734.5,-839.71 734.5,-802.71 579.5,-802.71"/>
<text text-anchor="middle" x="657" y="-817.51" font-family="Times,serif" font-size="14.00">hla_reference_fasta</text>
</a>
</g>
</g>
<!-- hla_reference_fasta&#45;&gt;optitype_step -->
<g id="edge29" class="edge">
<title>hla_reference_fasta&#45;&gt;optitype_step</title>
<path fill="none" stroke="black" d="M655.3,-802.48C651.04,-761.9 638.27,-659.5 611,-578.21 589.99,-515.58 552.57,-447.49 531.18,-410.97"/>
<polygon fill="black" stroke="black" points="533.96,-408.78 525.85,-401.96 527.93,-412.35 533.96,-408.78"/>
</g>
<!-- sites_somalier -->
<g id="node7" class="node">
<title>sites_somalier</title>
<g id="a_node7"><a xlink:title="gzipped vcf file. Required for somalier sites&#10;">
<polygon fill="#94ddf4" stroke="black" points="1358.5,-802.71 1358.5,-839.71 1477.5,-839.71 1477.5,-802.71 1358.5,-802.71"/>
<text text-anchor="middle" x="1418" y="-817.51" font-family="Times,serif" font-size="14.00">sites_somalier</text>
</a>
</g>
</g>
<!-- sites_somalier&#45;&gt;somalier_step -->
<g id="edge30" class="edge">
<title>sites_somalier&#45;&gt;somalier_step</title>
<path fill="none" stroke="black" d="M1433.94,-802.52C1462.87,-769.07 1523.04,-693.03 1545,-616.21 1566.22,-541.97 1524.71,-453.58 1500.2,-410.48"/>
<polygon fill="black" stroke="black" points="1503.17,-408.62 1495.11,-401.74 1497.12,-412.14 1503.17,-408.62"/>
</g>
<!-- dragen_bam_output -->
<g id="node8" class="node">
<title>dragen_bam_output</title>
<g id="a_node8"><a xlink:title="Output alignment file for dragen germline run&#10;">
<polygon fill="#94ddf4" stroke="black" points="634,-149.71 634,-186.71 792,-186.71 792,-149.71 634,-149.71"/>
<text text-anchor="middle" x="713" y="-164.51" font-family="Times,serif" font-size="14.00">dragen_bam_output</text>
</a>
</g>
</g>
<!-- dragen_output_directory -->
<g id="node9" class="node">
<title>dragen_output_directory</title>
<g id="a_node9"><a xlink:title="Output directory for dragen&#10;">
<polygon fill="#94ddf4" stroke="black" points="810.5,-149.71 810.5,-186.71 1003.5,-186.71 1003.5,-149.71 810.5,-149.71"/>
<text text-anchor="middle" x="907" y="-164.51" font-family="Times,serif" font-size="14.00">dragen_output_directory</text>
</a>
</g>
</g>
<!-- dragen_vcf_output -->
<g id="node10" class="node">
<title>dragen_vcf_output</title>
<g id="a_node10"><a xlink:title="Output vcf file for dragen germline run&#10;">
<polygon fill="#94ddf4" stroke="black" points="1021.5,-149.71 1021.5,-186.71 1170.5,-186.71 1170.5,-149.71 1021.5,-149.71"/>
<text text-anchor="middle" x="1096" y="-164.51" font-family="Times,serif" font-size="14.00">dragen_vcf_output</text>
</a>
</g>
</g>
<!-- multiqc_output_directory -->
<g id="node11" class="node">
<title>multiqc_output_directory</title>
<g id="a_node11"><a xlink:title="Output directory with multiqc data and html&#10;">
<polygon fill="#94ddf4" stroke="black" points="1188.5,-149.71 1188.5,-186.71 1385.5,-186.71 1385.5,-149.71 1188.5,-149.71"/>
<text text-anchor="middle" x="1287" y="-164.51" font-family="Times,serif" font-size="14.00">multiqc_output_directory</text>
</a>
</g>
</g>
<!-- multiqc_output_file -->
<g id="node12" class="node">
<title>multiqc_output_file</title>
<g id="a_node12"><a xlink:title="Output html for multiqc&#10;">
<polygon fill="#94ddf4" stroke="black" points="1403.5,-149.71 1403.5,-186.71 1556.5,-186.71 1556.5,-149.71 1403.5,-149.71"/>
<text text-anchor="middle" x="1480" y="-164.51" font-family="Times,serif" font-size="14.00">multiqc_output_file</text>
</a>
</g>
</g>
<!-- optitype_coverage_plot -->
<g id="node13" class="node">
<title>optitype_coverage_plot</title>
<g id="a_node13"><a xlink:title="Output coverage pdf from optitype step&#10;">
<polygon fill="#94ddf4" stroke="black" points="16,-149.71 16,-186.71 198,-186.71 198,-149.71 16,-149.71"/>
<text text-anchor="middle" x="107" y="-164.51" font-family="Times,serif" font-size="14.00">optitype_coverage_plot</text>
</a>
</g>
</g>
<!-- optitype_output_directory -->
<g id="node14" class="node">
<title>optitype_output_directory</title>
<g id="a_node14"><a xlink:title="Output directory for optitype files&#10;">
<polygon fill="#94ddf4" stroke="black" points="414,-149.71 414,-186.71 616,-186.71 616,-149.71 414,-149.71"/>
<text text-anchor="middle" x="515" y="-164.51" font-family="Times,serif" font-size="14.00">optitype_output_directory</text>
</a>
</g>
</g>
<!-- optitype_result_matrix -->
<g id="node15" class="node">
<title>optitype_result_matrix</title>
<g id="a_node15"><a xlink:title="Output matrix file from optitype step&#10;">
<polygon fill="#94ddf4" stroke="black" points="216.5,-149.71 216.5,-186.71 395.5,-186.71 395.5,-149.71 216.5,-149.71"/>
<text text-anchor="middle" x="306" y="-164.51" font-family="Times,serif" font-size="14.00">optitype_result_matrix</text>
</a>
</g>
</g>
<!-- somalier_output_directory -->
<g id="node16" class="node">
<title>somalier_output_directory</title>
<g id="a_node16"><a xlink:title="Output directory from somalier step&#10;">
<polygon fill="#94ddf4" stroke="black" points="1575,-149.71 1575,-186.71 1779,-186.71 1779,-149.71 1575,-149.71"/>
<text text-anchor="middle" x="1677" y="-164.51" font-family="Times,serif" font-size="14.00">somalier_output_directory</text>
</a>
</g>
</g>
<!-- get_faidx_file_step&#45;&gt;get_hla_regions_bed_step -->
<g id="edge1" class="edge">
<title>get_faidx_file_step&#45;&gt;get_hla_regions_bed_step</title>
<path fill="none" stroke="black" d="M278.83,-802.42C320.62,-762.95 421.15,-667.97 468.93,-622.84"/>
<polygon fill="black" stroke="black" points="471.54,-625.19 476.4,-615.78 466.73,-620.1 471.54,-625.19"/>
</g>
<!-- get_hla_regions_bed_step&#45;&gt;optitype_step -->
<g id="edge2" class="edge">
<title>get_hla_regions_bed_step&#45;&gt;optitype_step</title>
<path fill="none" stroke="black" d="M496.67,-578.5C500.16,-541.54 508.23,-455.98 512.4,-411.76"/>
<polygon fill="black" stroke="black" points="515.89,-412.01 513.35,-401.72 508.92,-411.35 515.89,-412.01"/>
</g>
<!-- optitype_step&#45;&gt;optitype_coverage_plot -->
<g id="edge9" class="edge">
<title>optitype_step&#45;&gt;optitype_coverage_plot</title>
<path fill="none" stroke="black" d="M481.26,-364.6C407.36,-326.02 231.29,-234.1 149.77,-191.54"/>
<polygon fill="black" stroke="black" points="151.26,-188.37 140.77,-186.84 148.02,-194.57 151.26,-188.37"/>
</g>
<!-- optitype_step&#45;&gt;optitype_output_directory -->
<g id="edge10" class="edge">
<title>optitype_step&#45;&gt;optitype_output_directory</title>
<path fill="none" stroke="black" d="M515,-364.42C515,-327.28 515,-241.32 515,-196.89"/>
<polygon fill="black" stroke="black" points="518.5,-196.8 515,-186.8 511.5,-196.8 518.5,-196.8"/>
</g>
<!-- optitype_step&#45;&gt;optitype_result_matrix -->
<g id="edge11" class="edge">
<title>optitype_step&#45;&gt;optitype_result_matrix</title>
<path fill="none" stroke="black" d="M497.54,-364.42C460.33,-326.5 373.16,-237.66 330.45,-194.13"/>
<polygon fill="black" stroke="black" points="332.77,-191.49 323.26,-186.8 327.77,-196.39 332.77,-191.49"/>
</g>
<!-- dragen_germline_step&#45;&gt;dragen_bam_output -->
<g id="edge6" class="edge">
<title>dragen_germline_step&#45;&gt;dragen_bam_output</title>
<path fill="none" stroke="black" d="M954.65,-578.68C915.49,-512.32 776.21,-276.32 728.88,-196.12"/>
<polygon fill="black" stroke="black" points="731.67,-193.96 723.57,-187.13 725.64,-197.52 731.67,-193.96"/>
</g>
<!-- dragen_germline_step&#45;&gt;dragen_output_directory -->
<g id="edge7" class="edge">
<title>dragen_germline_step&#45;&gt;dragen_output_directory</title>
<path fill="none" stroke="black" d="M962.62,-578.68C953.64,-512.59 921.81,-278.24 910.79,-197.1"/>
<polygon fill="black" stroke="black" points="914.25,-196.57 909.43,-187.13 907.31,-197.51 914.25,-196.57"/>
</g>
<!-- dragen_germline_step&#45;&gt;dragen_vcf_output -->
<g id="edge8" class="edge">
<title>dragen_germline_step&#45;&gt;dragen_vcf_output</title>
<path fill="none" stroke="black" d="M970.38,-578.68C990.65,-512.59 1062.55,-278.24 1087.44,-197.1"/>
<polygon fill="black" stroke="black" points="1090.92,-197.72 1090.5,-187.13 1084.22,-195.66 1090.92,-197.72"/>
</g>
<!-- dragen_germline_step&#45;&gt;optitype_step -->
<g id="edge3" class="edge">
<title>dragen_germline_step&#45;&gt;optitype_step</title>
<path fill="none" stroke="black" d="M927.79,-578.68C846.03,-540.16 650.9,-448.23 561.35,-406.05"/>
<polygon fill="black" stroke="black" points="562.79,-402.86 552.25,-401.76 559.81,-409.19 562.79,-402.86"/>
</g>
<!-- dragen_germline_step&#45;&gt;qc_step -->
<g id="edge4" class="edge">
<title>dragen_germline_step&#45;&gt;qc_step</title>
<path fill="none" stroke="black" d="M979.54,-578.5C1010.38,-540.92 1082.48,-453.07 1118.2,-409.56"/>
<polygon fill="black" stroke="black" points="1120.99,-411.67 1124.63,-401.72 1115.58,-407.23 1120.99,-411.67"/>
</g>
<!-- dragen_germline_step&#45;&gt;somalier_step -->
<g id="edge5" class="edge">
<title>dragen_germline_step&#45;&gt;somalier_step</title>
<path fill="none" stroke="black" d="M1007.91,-578.68C1102.49,-540.05 1328.63,-447.68 1431.48,-405.67"/>
<polygon fill="black" stroke="black" points="1433.1,-408.78 1441.04,-401.76 1430.46,-402.3 1433.1,-408.78"/>
</g>
<!-- qc_step&#45;&gt;multiqc_output_directory -->
<g id="edge13" class="edge">
<title>qc_step&#45;&gt;multiqc_output_directory</title>
<path fill="none" stroke="black" d="M1151.36,-364.42C1177.49,-326.81 1238.42,-239.13 1268.93,-195.22"/>
<polygon fill="black" stroke="black" points="1271.94,-197.01 1274.78,-186.8 1266.19,-193.02 1271.94,-197.01"/>
</g>
<!-- qc_step&#45;&gt;multiqc_output_file -->
<g id="edge14" class="edge">
<title>qc_step&#45;&gt;multiqc_output_file</title>
<path fill="none" stroke="black" d="M1167.2,-364.6C1228.59,-326.25 1374.34,-235.21 1443,-192.32"/>
<polygon fill="black" stroke="black" points="1445.14,-195.11 1451.77,-186.84 1441.44,-189.17 1445.14,-195.11"/>
</g>
<!-- somalier_step&#45;&gt;somalier_output_directory -->
<g id="edge15" class="edge">
<title>somalier_step&#45;&gt;somalier_output_directory</title>
<path fill="none" stroke="black" d="M1500.12,-364.42C1534.41,-326.58 1614.65,-238.03 1654.17,-194.4"/>
<polygon fill="black" stroke="black" points="1656.94,-196.56 1661.06,-186.8 1651.75,-191.86 1656.94,-196.56"/>
</g>
<!-- create_dummy_file_step -->
<g id="node23" class="node">
<title>create_dummy_file_step</title>
<g id="a_node23"><a xlink:href="https://github.com/umccr/cwl-ica/blob/main/.github/catalogue/docs/tools/custom-touch-file/1.0.0/custom-touch-file__1.0.0.md" xlink:title="Intermediate step for letting multiqc&#45;interop be placed in stream mode&#10;">
<polygon fill="lightgoldenrodyellow" stroke="black" points="1185.5,-578.71 1185.5,-615.71 1446.5,-615.71 1446.5,-578.71 1185.5,-578.71"/>
<text text-anchor="middle" x="1316" y="-593.51" font-family="Times,serif" font-size="14.00">custom&#45;create&#45;dummy&#45;file v(1.0.0)</text>
</a>
</g>
</g>
<!-- create_dummy_file_step&#45;&gt;qc_step -->
<g id="edge12" class="edge">
<title>create_dummy_file_step&#45;&gt;qc_step</title>
<path fill="none" stroke="black" d="M1301.21,-578.5C1269.84,-540.92 1196.49,-453.07 1160.16,-409.56"/>
<polygon fill="black" stroke="black" points="1162.72,-407.15 1153.62,-401.72 1157.34,-411.64 1162.72,-407.15"/>
</g>
<!-- \n -->
<g id="node24" class="node">
<title>\n</title>
<ellipse fill="none" stroke="black" cx="1523" cy="-821.21" rx="27" ry="18"/>
</g>
</g>
</svg>
