<?xml version="1.0" encoding="UTF-8" standalone="no"?>
<!DOCTYPE svg PUBLIC "-//W3C//DTD SVG 1.1//EN"
 "http://www.w3.org/Graphics/SVG/1.1/DTD/svg11.dtd">
<!-- Generated by graphviz version 2.40.1 (20161225.0304)
 -->
<!-- Title: G Pages: 1 -->
<svg width="1822pt" height="940pt"
 viewBox="0.00 0.00 1822.00 940.40" xmlns="http://www.w3.org/2000/svg" xmlns:xlink="http://www.w3.org/1999/xlink">
<g id="graph0" class="graph" transform="scale(1 1) rotate(0) translate(4 936.396)">
<title>G</title>
<polygon fill="#eeeeee" stroke="transparent" points="-4,4 -4,-936.396 1818,-936.396 1818,4 -4,4"/>
<g id="clust1" class="cluster">
<title>cluster_inputs</title>
<polygon fill="#eeeeee" stroke="#000000" stroke-dasharray="5,2" points="488,-683.1707 488,-908.9395 1564,-908.9395 1564,-683.1707 488,-683.1707"/>
<text text-anchor="middle" x="1496" y="-690.9707" font-family="Times,serif" font-size="14.00" fill="#000000">Workflow Inputs</text>
</g>
<g id="clust2" class="cluster">
<title>cluster_outputs</title>
<polygon fill="#eeeeee" stroke="#000000" stroke-dasharray="5,2" points="8,-23.4565 8,-249.2253 1806,-249.2253 1806,-23.4565 8,-23.4565"/>
<text text-anchor="middle" x="1732" y="-31.2565" font-family="Times,serif" font-size="14.00" fill="#000000">Workflow Outputs</text>
</g>
<!-- file:///tmp/tmp9fyir7w3#sample_name -->
<g id="node1" class="node">
<title>file:///tmp/tmp9fyir7w3#sample_name</title>
<g id="a_node1"><a xlink:title="What is the name of the sample?&#10;Used to pre&#45;fill out many other inputs.&#10;">
<polygon fill="#94ddf4" stroke="#000000" points="1158,-810.9565 1158,-847.9565 1272,-847.9565 1272,-810.9565 1158,-810.9565"/>
<text text-anchor="middle" x="1215" y="-825.7565" font-family="Times,serif" font-size="14.00" fill="#000000">sample_name</text>
</a>
</g>
</g>
<!-- file:///tmp/tmp9fyir7w3#dragen_germline_step -->
<g id="node17" class="node">
<title>file:///tmp/tmp9fyir7w3#dragen_germline_step</title>
<g id="a_node17"><a xlink:href="https://github.com/umccr/cwl-ica/blob/beta-release/.github/catalogue/docs/workflows/dragen-germline-pipeline/3.7.5/dragen-germline-pipeline__3.7.5.md" xlink:title="Runs the dragen germline 3.7.5 workflow&#10;">
<polygon fill="#ee7ae9" stroke="#000000" points="721,-585.9565 721,-622.9565 977,-622.9565 977,-585.9565 721,-585.9565"/>
<text text-anchor="middle" x="849" y="-600.7565" font-family="Times,serif" font-size="14.00" fill="#000000">dragen&#45;germline&#45;pipeline v(3.7.5)</text>
</a>
</g>
</g>
<!-- file:///tmp/tmp9fyir7w3#sample_name&#45;&gt;file:///tmp/tmp9fyir7w3#dragen_germline_step -->
<g id="edge16" class="edge">
<title>file:///tmp/tmp9fyir7w3#sample_name&#45;&gt;file:///tmp/tmp9fyir7w3#dragen_germline_step</title>
<path fill="none" stroke="#000000" d="M1183.9768,-810.9366C1170.5206,-801.1931 1154.7099,-789.2674 1140,-779.4565 1052.0914,-720.8253 943.9565,-660.4599 887.3684,-628.2094"/>
<polygon fill="#000000" stroke="#000000" points="888.8282,-625.0125 878.4093,-623.0898 885.3552,-631.0902 888.8282,-625.0125"/>
</g>
<!-- file:///tmp/tmp9fyir7w3#sample_name&#45;&gt;file:///tmp/tmp9fyir7w3#dragen_germline_step -->
<g id="edge17" class="edge">
<title>file:///tmp/tmp9fyir7w3#sample_name&#45;&gt;file:///tmp/tmp9fyir7w3#dragen_germline_step</title>
<path fill="none" stroke="#000000" d="M1199.9803,-810.9366C1188.5206,-801.1931 1172.7099,-789.2674 1158,-779.4565 1069.7289,-720.5835 961.0643,-659.962 898.8252,-627.8119"/>
<polygon fill="#000000" stroke="#000000" points="900.1116,-624.5382 889.6162,-623.0898 896.9176,-630.7671 900.1116,-624.5382"/>
</g>
<!-- file:///tmp/tmp9fyir7w3#somalier_step -->
<g id="node18" class="node">
<title>file:///tmp/tmp9fyir7w3#somalier_step</title>
<g id="a_node18"><a xlink:href="https://github.com/umccr/cwl-ica/blob/beta-release/.github/catalogue/docs/tools/somalier-extract/0.2.13/somalier-extract__0.2.13.md" xlink:title="Runs the somalier extract function to call the fingerprint on the germline bam file&#10;">
<polygon fill="#fafad2" stroke="#000000" points="1375.5,-368.9565 1375.5,-405.9565 1578.5,-405.9565 1578.5,-368.9565 1375.5,-368.9565"/>
<text text-anchor="middle" x="1477" y="-383.7565" font-family="Times,serif" font-size="14.00" fill="#000000">somalier&#45;extract v(0.2.13)</text>
</a>
</g>
</g>
<!-- file:///tmp/tmp9fyir7w3#sample_name&#45;&gt;file:///tmp/tmp9fyir7w3#somalier_step -->
<g id="edge18" class="edge">
<title>file:///tmp/tmp9fyir7w3#sample_name&#45;&gt;file:///tmp/tmp9fyir7w3#somalier_step</title>
<path fill="none" stroke="#000000" d="M1223.1571,-810.7466C1259.4706,-741.2197 1403.7533,-497.5035 1457.1928,-414.9995"/>
<polygon fill="#000000" stroke="#000000" points="1460.2614,-416.7022 1462.8092,-406.4183 1454.4043,-412.8687 1460.2614,-416.7022"/>
</g>
<!-- file:///tmp/tmp9fyir7w3#sample_name&#45;&gt;file:///tmp/tmp9fyir7w3#somalier_step -->
<g id="edge19" class="edge">
<title>file:///tmp/tmp9fyir7w3#sample_name&#45;&gt;file:///tmp/tmp9fyir7w3#somalier_step</title>
<path fill="none" stroke="#000000" d="M1229.0238,-810.7466C1275.0892,-741.2902 1419.4907,-497.9972 1464.0193,-415.2508"/>
<polygon fill="#000000" stroke="#000000" points="1467.1108,-416.8915 1468.7112,-406.4183 1460.9289,-413.6076 1467.1108,-416.8915"/>
</g>
<!-- file:///tmp/tmp9fyir7w3#optitype_step -->
<g id="node19" class="node">
<title>file:///tmp/tmp9fyir7w3#optitype_step</title>
<g id="a_node19"><a xlink:href="https://github.com/umccr/cwl-ica/blob/beta-release/.github/catalogue/docs/workflows/optitype-pipeline/1.3.5/optitype-pipeline__1.3.5.md" xlink:title="Run the optitype pipeline&#10;">
<polygon fill="#ee7ae9" stroke="#000000" points="431.5,-368.9565 431.5,-405.9565 628.5,-405.9565 628.5,-368.9565 431.5,-368.9565"/>
<text text-anchor="middle" x="530" y="-383.7565" font-family="Times,serif" font-size="14.00" fill="#000000">optitype&#45;pipeline v(1.3.5)</text>
</a>
</g>
</g>
<!-- file:///tmp/tmp9fyir7w3#sample_name&#45;&gt;file:///tmp/tmp9fyir7w3#optitype_step -->
<g id="edge20" class="edge">
<title>file:///tmp/tmp9fyir7w3#sample_name&#45;&gt;file:///tmp/tmp9fyir7w3#optitype_step</title>
<path fill="none" stroke="#000000" d="M1193.8471,-810.7773C1181.4285,-800.5119 1165.0599,-788.1386 1149,-779.4565 967.5865,-681.3825 878.8338,-744.683 712,-623.4565 632.5363,-565.7158 570.8411,-463.8284 544.2609,-415.0244"/>
<polygon fill="#000000" stroke="#000000" points="547.2308,-413.1566 539.4182,-406.0002 541.0628,-416.4666 547.2308,-413.1566"/>
</g>
<!-- file:///tmp/tmp9fyir7w3#qc_step -->
<g id="node20" class="node">
<title>file:///tmp/tmp9fyir7w3#qc_step</title>
<g id="a_node20"><a xlink:href="https://github.com/umccr/cwl-ica/blob/beta-release/.github/catalogue/docs/tools/multiqc/1.10.1/multiqc__1.10.1.md" xlink:title="Runs multiqc on the run folder&#10;Uses a dummy file so that the folder can be placed in &#39;stream&#39; mode.&#10;">
<polygon fill="#fafad2" stroke="#000000" points="1217,-368.9565 1217,-405.9565 1357,-405.9565 1357,-368.9565 1217,-368.9565"/>
<text text-anchor="middle" x="1287" y="-383.7565" font-family="Times,serif" font-size="14.00" fill="#000000">multiqc v(1.10.1)</text>
</a>
</g>
</g>
<!-- file:///tmp/tmp9fyir7w3#sample_name&#45;&gt;file:///tmp/tmp9fyir7w3#qc_step -->
<g id="edge21" class="edge">
<title>file:///tmp/tmp9fyir7w3#sample_name&#45;&gt;file:///tmp/tmp9fyir7w3#qc_step</title>
<path fill="none" stroke="#000000" d="M1210.6219,-810.9406C1214.077,-775.1383 1238.2176,-693.748 1250,-623.4565 1262.4246,-549.3339 1266.7935,-460.7039 1274.834,-416.1009"/>
<polygon fill="#000000" stroke="#000000" points="1278.2734,-416.7507 1276.8446,-406.2527 1271.4149,-415.3504 1278.2734,-416.7507"/>
</g>
<!-- file:///tmp/tmp9fyir7w3#sample_name&#45;&gt;file:///tmp/tmp9fyir7w3#qc_step -->
<g id="edge22" class="edge">
<title>file:///tmp/tmp9fyir7w3#sample_name&#45;&gt;file:///tmp/tmp9fyir7w3#qc_step</title>
<path fill="none" stroke="#000000" d="M1220.9089,-810.9406C1232.077,-775.1383 1256.2176,-693.748 1268,-623.4565 1280.3983,-549.4902 1284.775,-461.0778 1286.2664,-416.3838"/>
<polygon fill="#000000" stroke="#000000" points="1289.7689,-416.356 1286.5794,-406.2527 1282.7722,-416.1398 1289.7689,-416.356"/>
</g>
<!-- file:///tmp/tmp9fyir7w3#sample_name&#45;&gt;file:///tmp/tmp9fyir7w3#qc_step -->
<g id="edge23" class="edge">
<title>file:///tmp/tmp9fyir7w3#sample_name&#45;&gt;file:///tmp/tmp9fyir7w3#qc_step</title>
<path fill="none" stroke="#000000" d="M1231.1958,-810.9406C1250.077,-775.1383 1274.2176,-693.748 1286,-623.4565 1298.3983,-549.4902 1302.775,-461.0778 1297.7497,-416.3838"/>
<polygon fill="#000000" stroke="#000000" points="1301.1826,-415.6627 1296.3142,-406.2527 1294.2519,-416.6448 1301.1826,-415.6627"/>
</g>
<!-- file:///tmp/tmp9fyir7w3#hla_reference_fasta -->
<g id="node2" class="node">
<title>file:///tmp/tmp9fyir7w3#hla_reference_fasta</title>
<g id="a_node2"><a xlink:title="Reference to align / filter large output bam to before running through optitype tool&#10;">
<polygon fill="#94ddf4" stroke="#000000" points="648,-810.9565 648,-847.9565 806,-847.9565 806,-810.9565 648,-810.9565"/>
<text text-anchor="middle" x="727" y="-825.7565" font-family="Times,serif" font-size="14.00" fill="#000000">hla_reference_fasta</text>
</a>
</g>
</g>
<!-- file:///tmp/tmp9fyir7w3#hla_reference_fasta&#45;&gt;file:///tmp/tmp9fyir7w3#optitype_step -->
<g id="edge24" class="edge">
<title>file:///tmp/tmp9fyir7w3#hla_reference_fasta&#45;&gt;file:///tmp/tmp9fyir7w3#optitype_step</title>
<path fill="none" stroke="#000000" d="M720.9829,-810.7485C707.4802,-769.4098 673.0353,-667.4508 636,-585.4565 607.7391,-522.8882 568.2081,-452.7205 546.2799,-415.0067"/>
<polygon fill="#000000" stroke="#000000" points="549.1678,-413.0115 541.1017,-406.1421 543.1235,-416.5422 549.1678,-413.0115"/>
</g>
<!-- file:///tmp/tmp9fyir7w3#reference_fasta -->
<g id="node3" class="node">
<title>file:///tmp/tmp9fyir7w3#reference_fasta</title>
<g id="a_node3"><a xlink:title="The reference fasta file with a .fai index.&#10;Required for somalier and optitype steps&#10;">
<polygon fill="#94ddf4" stroke="#000000" points="1290,-810.9565 1290,-847.9565 1418,-847.9565 1418,-810.9565 1290,-810.9565"/>
<text text-anchor="middle" x="1354" y="-825.7565" font-family="Times,serif" font-size="14.00" fill="#000000">reference_fasta</text>
</a>
</g>
</g>
<!-- file:///tmp/tmp9fyir7w3#reference_fasta&#45;&gt;file:///tmp/tmp9fyir7w3#somalier_step -->
<g id="edge25" class="edge">
<title>file:///tmp/tmp9fyir7w3#reference_fasta&#45;&gt;file:///tmp/tmp9fyir7w3#somalier_step</title>
<path fill="none" stroke="#000000" d="M1362.6186,-810.8393C1378.8047,-775.1947 1413.9219,-694.5296 1434,-623.4565 1454.7101,-550.1462 1467.7779,-461.1115 1473.5512,-416.2513"/>
<polygon fill="#000000" stroke="#000000" points="1477.0539,-416.4483 1474.8306,-406.0894 1470.1087,-415.5738 1477.0539,-416.4483"/>
</g>
<!-- file:///tmp/tmp9fyir7w3#get_faidx_file_step -->
<g id="node21" class="node">
<title>file:///tmp/tmp9fyir7w3#get_faidx_file_step</title>
<g id="a_node21"><a xlink:href="https://github.com/umccr/cwl-ica/blob/beta-release/.github/catalogue/docs/expressions/get-faidx-file-from-reference-file/1.0.0/get-faidx-file-from-reference-file__1.0.0.md" xlink:title="Get the index of the reference fasta as its own file.&#10;Used by the get&#45;regions&#45;bed workflow&#10;">
<polygon fill="#ee9a00" stroke="#000000" points="173.5,-810.9565 173.5,-847.9565 478.5,-847.9565 478.5,-810.9565 173.5,-810.9565"/>
<text text-anchor="middle" x="326" y="-825.7565" font-family="Times,serif" font-size="14.00" fill="#000000">get&#45;faidx&#45;file&#45;from&#45;reference&#45;file v(1.0.0)</text>
</a>
</g>
</g>
<!-- file:///tmp/tmp9fyir7w3#reference_fasta&#45;&gt;file:///tmp/tmp9fyir7w3#get_faidx_file_step -->
<g id="edge26" class="edge">
<title>file:///tmp/tmp9fyir7w3#reference_fasta&#45;&gt;file:///tmp/tmp9fyir7w3#get_faidx_file_step</title>
<path fill="none" stroke="#000000" d="M1328.101,-848.0852C1312.6347,-858.0448 1292.1347,-869.2948 1272,-874.4565 1188.1557,-895.9506 578.8071,-885.8148 493,-874.4565 458.4842,-869.8877 420.9752,-860.2259 390.2654,-851.0219"/>
<polygon fill="#000000" stroke="#000000" points="391.1321,-847.6272 380.546,-848.0568 389.0895,-854.3225 391.1321,-847.6272"/>
</g>
<!-- file:///tmp/tmp9fyir7w3#fastq_list_rows -->
<g id="node4" class="node">
<title>file:///tmp/tmp9fyir7w3#fastq_list_rows</title>
<g id="a_node4"><a xlink:title="The row of fastq lists.&#10; &#160;Each row has the following attributes:&#10; &#160;&#160;&#160;* RGID&#10; &#160;&#160;&#160;* RGLB&#10; &#160;&#160;&#160;* RGSM&#10; &#160;&#160;&#160;* Lane&#10; &#160;&#160;&#160;* Read1File&#10; &#160;&#160;&#160;* Read2File (optional)&#10;">
<polygon fill="#94ddf4" stroke="#000000" points="1014.5,-810.9565 1014.5,-847.9565 1139.5,-847.9565 1139.5,-810.9565 1014.5,-810.9565"/>
<text text-anchor="middle" x="1077" y="-825.7565" font-family="Times,serif" font-size="14.00" fill="#000000">fastq_list_rows</text>
</a>
</g>
</g>
<!-- file:///tmp/tmp9fyir7w3#fastq_list_rows&#45;&gt;file:///tmp/tmp9fyir7w3#dragen_germline_step -->
<g id="edge27" class="edge">
<title>file:///tmp/tmp9fyir7w3#fastq_list_rows&#45;&gt;file:///tmp/tmp9fyir7w3#dragen_germline_step</title>
<path fill="none" stroke="#000000" d="M1057.953,-810.6601C1017.1973,-770.4407 921.4801,-675.9829 875.1014,-630.2145"/>
<polygon fill="#000000" stroke="#000000" points="877.4086,-627.574 867.8324,-623.0411 872.4918,-632.5565 877.4086,-627.574"/>
</g>
<!-- file:///tmp/tmp9fyir7w3#sites_somalier -->
<g id="node5" class="node">
<title>file:///tmp/tmp9fyir7w3#sites_somalier</title>
<g id="a_node5"><a xlink:title="gzipped vcf file. Required for somalier sites&#10;">
<polygon fill="#94ddf4" stroke="#000000" points="1436.5,-810.9565 1436.5,-847.9565 1555.5,-847.9565 1555.5,-810.9565 1436.5,-810.9565"/>
<text text-anchor="middle" x="1496" y="-825.7565" font-family="Times,serif" font-size="14.00" fill="#000000">sites_somalier</text>
</a>
</g>
</g>
<!-- file:///tmp/tmp9fyir7w3#sites_somalier&#45;&gt;file:///tmp/tmp9fyir7w3#somalier_step -->
<g id="edge28" class="edge">
<title>file:///tmp/tmp9fyir7w3#sites_somalier&#45;&gt;file:///tmp/tmp9fyir7w3#somalier_step</title>
<path fill="none" stroke="#000000" d="M1495.1957,-810.7466C1492.2252,-741.6424 1481.8576,-500.4602 1478.2494,-416.5219"/>
<polygon fill="#000000" stroke="#000000" points="1481.7414,-416.2587 1477.8151,-406.4183 1474.7479,-416.5594 1481.7414,-416.2587"/>
</g>
<!-- file:///tmp/tmp9fyir7w3#reference_tar_dragen -->
<g id="node6" class="node">
<title>file:///tmp/tmp9fyir7w3#reference_tar_dragen</title>
<g id="a_node6"><a xlink:title="Path to ref data tarball&#10;">
<polygon fill="#94ddf4" stroke="#000000" points="824,-810.9565 824,-847.9565 996,-847.9565 996,-810.9565 824,-810.9565"/>
<text text-anchor="middle" x="910" y="-825.7565" font-family="Times,serif" font-size="14.00" fill="#000000">reference_tar_dragen</text>
</a>
</g>
</g>
<!-- file:///tmp/tmp9fyir7w3#reference_tar_dragen&#45;&gt;file:///tmp/tmp9fyir7w3#dragen_germline_step -->
<g id="edge29" class="edge">
<title>file:///tmp/tmp9fyir7w3#reference_tar_dragen&#45;&gt;file:///tmp/tmp9fyir7w3#dragen_germline_step</title>
<path fill="none" stroke="#000000" d="M904.9041,-810.6601C894.2025,-771.187 869.337,-679.4699 856.6875,-632.8121"/>
<polygon fill="#000000" stroke="#000000" points="860.0333,-631.7769 854.0385,-623.0411 853.2772,-633.6086 860.0333,-631.7769"/>
</g>
<!-- file:///tmp/tmp9fyir7w3#genome_version -->
<g id="node7" class="node">
<title>file:///tmp/tmp9fyir7w3#genome_version</title>
<g id="a_node7"><a xlink:title="Either hg38 (default) or GRCh37?&#10;Used to set chromosome regions to filter down bam file for optitype workflow&#10;">
<polygon fill="#94ddf4" stroke="#000000" points="496.5,-810.9565 496.5,-847.9565 629.5,-847.9565 629.5,-810.9565 496.5,-810.9565"/>
<text text-anchor="middle" x="563" y="-825.7565" font-family="Times,serif" font-size="14.00" fill="#000000">genome_version</text>
</a>
</g>
</g>
<!-- file:///tmp/tmp9fyir7w3#get_hla_regions_bed_step -->
<g id="node22" class="node">
<title>file:///tmp/tmp9fyir7w3#get_hla_regions_bed_step</title>
<g id="a_node22"><a xlink:href="https://github.com/umccr/cwl-ica/blob/beta-release/.github/catalogue/docs/workflows/get-hla-regions-bed/1.0.0/get-hla-regions-bed__1.0.0.md" xlink:title="Get the hla regions for input into the optitype workflow&#10;">
<polygon fill="#ee7ae9" stroke="#000000" points="413,-585.9565 413,-622.9565 627,-622.9565 627,-585.9565 413,-585.9565"/>
<text text-anchor="middle" x="520" y="-600.7565" font-family="Times,serif" font-size="14.00" fill="#000000">get&#45;hla&#45;regions&#45;bed v(1.0.0)</text>
</a>
</g>
</g>
<!-- file:///tmp/tmp9fyir7w3#genome_version&#45;&gt;file:///tmp/tmp9fyir7w3#get_hla_regions_bed_step -->
<g id="edge30" class="edge">
<title>file:///tmp/tmp9fyir7w3#genome_version&#45;&gt;file:///tmp/tmp9fyir7w3#get_hla_regions_bed_step</title>
<path fill="none" stroke="#000000" d="M559.4078,-810.6601C551.8799,-771.2699 534.4095,-679.855 525.4754,-633.1067"/>
<polygon fill="#000000" stroke="#000000" points="528.8667,-632.2064 523.5517,-623.0411 521.9912,-633.5204 528.8667,-632.2064"/>
</g>
<!-- file:///tmp/tmp9fyir7w3#dragen_bam_output -->
<g id="node8" class="node">
<title>file:///tmp/tmp9fyir7w3#dragen_bam_output</title>
<g id="a_node8"><a xlink:title="Output alignment file for dragen germline run&#10;">
<polygon fill="#94ddf4" stroke="#000000" points="808,-151.9565 808,-188.9565 968,-188.9565 968,-151.9565 808,-151.9565"/>
<text text-anchor="middle" x="888" y="-166.7565" font-family="Times,serif" font-size="14.00" fill="#000000">dragen_bam_output</text>
</a>
</g>
</g>
<!-- file:///tmp/tmp9fyir7w3#multiqc_output_directory -->
<g id="node9" class="node">
<title>file:///tmp/tmp9fyir7w3#multiqc_output_directory</title>
<g id="a_node9"><a xlink:title="Output directory with multiqc data and html&#10;">
<polygon fill="#94ddf4" stroke="#000000" points="1374,-151.9565 1374,-188.9565 1574,-188.9565 1574,-151.9565 1374,-151.9565"/>
<text text-anchor="middle" x="1474" y="-166.7565" font-family="Times,serif" font-size="14.00" fill="#000000">multiqc_output_directory</text>
</a>
</g>
</g>
<!-- file:///tmp/tmp9fyir7w3#dragen_output_directory -->
<g id="node10" class="node">
<title>file:///tmp/tmp9fyir7w3#dragen_output_directory</title>
<g id="a_node10"><a xlink:title="Output directory for dragen&#10;">
<polygon fill="#94ddf4" stroke="#000000" points="986.5,-151.9565 986.5,-188.9565 1181.5,-188.9565 1181.5,-151.9565 986.5,-151.9565"/>
<text text-anchor="middle" x="1084" y="-166.7565" font-family="Times,serif" font-size="14.00" fill="#000000">dragen_output_directory</text>
</a>
</g>
</g>
<!-- file:///tmp/tmp9fyir7w3#multiqc_output_file -->
<g id="node11" class="node">
<title>file:///tmp/tmp9fyir7w3#multiqc_output_file</title>
<g id="a_node11"><a xlink:title="Output html for multiqc&#10;">
<polygon fill="#94ddf4" stroke="#000000" points="1200,-151.9565 1200,-188.9565 1356,-188.9565 1356,-151.9565 1200,-151.9565"/>
<text text-anchor="middle" x="1278" y="-166.7565" font-family="Times,serif" font-size="14.00" fill="#000000">multiqc_output_file</text>
</a>
</g>
</g>
<!-- file:///tmp/tmp9fyir7w3#dragen_vcf_output -->
<g id="node12" class="node">
<title>file:///tmp/tmp9fyir7w3#dragen_vcf_output</title>
<g id="a_node12"><a xlink:title="Output vcf file for dragen germline run&#10;">
<polygon fill="#94ddf4" stroke="#000000" points="638.5,-151.9565 638.5,-188.9565 789.5,-188.9565 789.5,-151.9565 638.5,-151.9565"/>
<text text-anchor="middle" x="714" y="-166.7565" font-family="Times,serif" font-size="14.00" fill="#000000">dragen_vcf_output</text>
</a>
</g>
</g>
<!-- file:///tmp/tmp9fyir7w3#optitype_coverage_plot -->
<g id="node13" class="node">
<title>file:///tmp/tmp9fyir7w3#optitype_coverage_plot</title>
<g id="a_node13"><a xlink:title="Output coverage pdf from optitype step&#10;">
<polygon fill="#94ddf4" stroke="#000000" points="16,-151.9565 16,-188.9565 200,-188.9565 200,-151.9565 16,-151.9565"/>
<text text-anchor="middle" x="108" y="-166.7565" font-family="Times,serif" font-size="14.00" fill="#000000">optitype_coverage_plot</text>
</a>
</g>
</g>
<!-- file:///tmp/tmp9fyir7w3#somalier_output_directory -->
<g id="node14" class="node">
<title>file:///tmp/tmp9fyir7w3#somalier_output_directory</title>
<g id="a_node14"><a xlink:title="Output directory from somalier step&#10;">
<polygon fill="#94ddf4" stroke="#000000" points="1592,-151.9565 1592,-188.9565 1798,-188.9565 1798,-151.9565 1592,-151.9565"/>
<text text-anchor="middle" x="1695" y="-166.7565" font-family="Times,serif" font-size="14.00" fill="#000000">somalier_output_directory</text>
</a>
</g>
</g>
<!-- file:///tmp/tmp9fyir7w3#optitype_output_directory -->
<g id="node15" class="node">
<title>file:///tmp/tmp9fyir7w3#optitype_output_directory</title>
<g id="a_node15"><a xlink:title="Output directory for optitype files&#10;">
<polygon fill="#94ddf4" stroke="#000000" points="218,-151.9565 218,-188.9565 422,-188.9565 422,-151.9565 218,-151.9565"/>
<text text-anchor="middle" x="320" y="-166.7565" font-family="Times,serif" font-size="14.00" fill="#000000">optitype_output_directory</text>
</a>
</g>
</g>
<!-- file:///tmp/tmp9fyir7w3#optitype_result_matrix -->
<g id="node16" class="node">
<title>file:///tmp/tmp9fyir7w3#optitype_result_matrix</title>
<g id="a_node16"><a xlink:title="Output matrix file from optitype step&#10;">
<polygon fill="#94ddf4" stroke="#000000" points="440,-151.9565 440,-188.9565 620,-188.9565 620,-151.9565 440,-151.9565"/>
<text text-anchor="middle" x="530" y="-166.7565" font-family="Times,serif" font-size="14.00" fill="#000000">optitype_result_matrix</text>
</a>
</g>
</g>
<!-- file:///tmp/tmp9fyir7w3#dragen_germline_step&#45;&gt;file:///tmp/tmp9fyir7w3#dragen_bam_output -->
<g id="edge4" class="edge">
<title>file:///tmp/tmp9fyir7w3#dragen_germline_step&#45;&gt;file:///tmp/tmp9fyir7w3#dragen_bam_output</title>
<path fill="none" stroke="#000000" d="M850.6758,-585.8081C856.8013,-517.6423 878.0062,-281.6701 885.4181,-199.188"/>
<polygon fill="#000000" stroke="#000000" points="888.9213,-199.3086 886.3305,-189.0355 881.9494,-198.682 888.9213,-199.3086"/>
</g>
<!-- file:///tmp/tmp9fyir7w3#dragen_germline_step&#45;&gt;file:///tmp/tmp9fyir7w3#dragen_output_directory -->
<g id="edge5" class="edge">
<title>file:///tmp/tmp9fyir7w3#dragen_germline_step&#45;&gt;file:///tmp/tmp9fyir7w3#dragen_output_directory</title>
<path fill="none" stroke="#000000" d="M859.0977,-585.8081C896.1584,-517.364 1024.8252,-279.741 1068.9853,-198.1857"/>
<polygon fill="#000000" stroke="#000000" points="1072.2562,-199.4957 1073.94,-189.0355 1066.1006,-196.1626 1072.2562,-199.4957"/>
</g>
<!-- file:///tmp/tmp9fyir7w3#dragen_germline_step&#45;&gt;file:///tmp/tmp9fyir7w3#dragen_vcf_output -->
<g id="edge6" class="edge">
<title>file:///tmp/tmp9fyir7w3#dragen_germline_step&#45;&gt;file:///tmp/tmp9fyir7w3#dragen_vcf_output</title>
<path fill="none" stroke="#000000" d="M843.1992,-585.8081C821.9523,-517.5032 748.2943,-280.7062 722.7807,-198.6849"/>
<polygon fill="#000000" stroke="#000000" points="726.0915,-197.5446 719.7792,-189.0355 719.4074,-199.6238 726.0915,-197.5446"/>
</g>
<!-- file:///tmp/tmp9fyir7w3#dragen_germline_step&#45;&gt;file:///tmp/tmp9fyir7w3#somalier_step -->
<g id="edge1" class="edge">
<title>file:///tmp/tmp9fyir7w3#dragen_germline_step&#45;&gt;file:///tmp/tmp9fyir7w3#somalier_step</title>
<path fill="none" stroke="#000000" d="M902.5429,-585.9552C1017.917,-546.0887 1289.5361,-452.233 1413.4141,-409.428"/>
<polygon fill="#000000" stroke="#000000" points="1414.8388,-412.6389 1423.1474,-406.0648 1412.5526,-406.0227 1414.8388,-412.6389"/>
</g>
<!-- file:///tmp/tmp9fyir7w3#dragen_germline_step&#45;&gt;file:///tmp/tmp9fyir7w3#optitype_step -->
<g id="edge2" class="edge">
<title>file:///tmp/tmp9fyir7w3#dragen_germline_step&#45;&gt;file:///tmp/tmp9fyir7w3#optitype_step</title>
<path fill="none" stroke="#000000" d="M821.8022,-585.9552C764.3854,-546.8974 630.7893,-456.0185 566.2198,-412.0951"/>
<polygon fill="#000000" stroke="#000000" points="567.8189,-408.9498 557.582,-406.2192 563.8817,-414.7377 567.8189,-408.9498"/>
</g>
<!-- file:///tmp/tmp9fyir7w3#dragen_germline_step&#45;&gt;file:///tmp/tmp9fyir7w3#qc_step -->
<g id="edge3" class="edge">
<title>file:///tmp/tmp9fyir7w3#dragen_germline_step&#45;&gt;file:///tmp/tmp9fyir7w3#qc_step</title>
<path fill="none" stroke="#000000" d="M886.3436,-585.9552C966.0851,-546.4486 1152.8416,-453.9231 1240.2871,-410.5997"/>
<polygon fill="#000000" stroke="#000000" points="1242.0336,-413.6405 1249.4404,-406.0648 1238.926,-407.368 1242.0336,-413.6405"/>
</g>
<!-- file:///tmp/tmp9fyir7w3#somalier_step&#45;&gt;file:///tmp/tmp9fyir7w3#somalier_output_directory -->
<g id="edge7" class="edge">
<title>file:///tmp/tmp9fyir7w3#somalier_step&#45;&gt;file:///tmp/tmp9fyir7w3#somalier_output_directory</title>
<path fill="none" stroke="#000000" d="M1495.5866,-368.9552C1534.4232,-330.2967 1624.2604,-240.8716 1668.8796,-196.457"/>
<polygon fill="#000000" stroke="#000000" points="1671.5327,-198.7546 1676.1508,-189.2192 1666.5943,-193.7935 1671.5327,-198.7546"/>
</g>
<!-- file:///tmp/tmp9fyir7w3#optitype_step&#45;&gt;file:///tmp/tmp9fyir7w3#optitype_coverage_plot -->
<g id="edge10" class="edge">
<title>file:///tmp/tmp9fyir7w3#optitype_step&#45;&gt;file:///tmp/tmp9fyir7w3#optitype_coverage_plot</title>
<path fill="none" stroke="#000000" d="M494.0205,-368.9552C417.2697,-329.4886 237.6218,-237.1104 153.2626,-193.7314"/>
<polygon fill="#000000" stroke="#000000" points="154.6813,-190.5253 144.1876,-189.0648 151.4802,-196.7505 154.6813,-190.5253"/>
</g>
<!-- file:///tmp/tmp9fyir7w3#optitype_step&#45;&gt;file:///tmp/tmp9fyir7w3#optitype_output_directory -->
<g id="edge11" class="edge">
<title>file:///tmp/tmp9fyir7w3#optitype_step&#45;&gt;file:///tmp/tmp9fyir7w3#optitype_output_directory</title>
<path fill="none" stroke="#000000" d="M512.0955,-368.9552C474.6841,-330.2967 388.1436,-240.8716 345.1618,-196.457"/>
<polygon fill="#000000" stroke="#000000" points="347.6268,-193.9713 338.1574,-189.2192 342.5966,-198.8392 347.6268,-193.9713"/>
</g>
<!-- file:///tmp/tmp9fyir7w3#optitype_step&#45;&gt;file:///tmp/tmp9fyir7w3#optitype_result_matrix -->
<g id="edge12" class="edge">
<title>file:///tmp/tmp9fyir7w3#optitype_step&#45;&gt;file:///tmp/tmp9fyir7w3#optitype_result_matrix</title>
<path fill="none" stroke="#000000" d="M530,-368.9552C530,-331.0955 530,-244.5452 530,-199.2668"/>
<polygon fill="#000000" stroke="#000000" points="533.5001,-199.2192 530,-189.2192 526.5001,-199.2192 533.5001,-199.2192"/>
</g>
<!-- file:///tmp/tmp9fyir7w3#qc_step&#45;&gt;file:///tmp/tmp9fyir7w3#multiqc_output_directory -->
<g id="edge13" class="edge">
<title>file:///tmp/tmp9fyir7w3#qc_step&#45;&gt;file:///tmp/tmp9fyir7w3#multiqc_output_directory</title>
<path fill="none" stroke="#000000" d="M1302.9435,-368.9552C1336.1198,-330.4565 1412.6836,-241.6098 1451.1176,-197.0099"/>
<polygon fill="#000000" stroke="#000000" points="1453.9545,-199.0793 1457.8312,-189.2192 1448.6518,-194.5097 1453.9545,-199.0793"/>
</g>
<!-- file:///tmp/tmp9fyir7w3#qc_step&#45;&gt;file:///tmp/tmp9fyir7w3#multiqc_output_file -->
<g id="edge14" class="edge">
<title>file:///tmp/tmp9fyir7w3#qc_step&#45;&gt;file:///tmp/tmp9fyir7w3#multiqc_output_file</title>
<path fill="none" stroke="#000000" d="M1286.2327,-368.9552C1284.6624,-331.0955 1281.0728,-244.5452 1279.1949,-199.2668"/>
<polygon fill="#000000" stroke="#000000" points="1282.6897,-199.0655 1278.7782,-189.2192 1275.6957,-199.3557 1282.6897,-199.0655"/>
</g>
<!-- file:///tmp/tmp9fyir7w3#get_faidx_file_step&#45;&gt;file:///tmp/tmp9fyir7w3#get_hla_regions_bed_step -->
<g id="edge8" class="edge">
<title>file:///tmp/tmp9fyir7w3#get_faidx_file_step&#45;&gt;file:///tmp/tmp9fyir7w3#get_hla_regions_bed_step</title>
<path fill="none" stroke="#000000" d="M342.2067,-810.6601C376.7417,-770.6065 457.6575,-676.761 497.3006,-630.7832"/>
<polygon fill="#000000" stroke="#000000" points="500.0966,-632.9002 503.9759,-623.0411 494.7951,-628.3292 500.0966,-632.9002"/>
</g>
<!-- file:///tmp/tmp9fyir7w3#get_hla_regions_bed_step&#45;&gt;file:///tmp/tmp9fyir7w3#optitype_step -->
<g id="edge9" class="edge">
<title>file:///tmp/tmp9fyir7w3#get_hla_regions_bed_step&#45;&gt;file:///tmp/tmp9fyir7w3#optitype_step</title>
<path fill="none" stroke="#000000" d="M520.8526,-585.9552C522.5973,-548.0955 526.5858,-461.5452 528.6723,-416.2668"/>
<polygon fill="#000000" stroke="#000000" points="532.1712,-416.3697 529.1354,-406.2192 525.1786,-416.0474 532.1712,-416.3697"/>
</g>
<!-- file:///tmp/tmp9fyir7w3#create_dummy_file_step -->
<g id="node23" class="node">
<title>file:///tmp/tmp9fyir7w3#create_dummy_file_step</title>
<g id="a_node23"><a xlink:href="https://github.com/umccr/cwl-ica/blob/beta-release/.github/catalogue/docs/tools/custom-touch-file/1.0.0/custom-touch-file__1.0.0.md" xlink:title="Intermediate step for letting multiqc&#45;interop be placed in stream mode&#10;">
<polygon fill="#fafad2" stroke="#000000" points="995.5,-585.9565 995.5,-622.9565 1258.5,-622.9565 1258.5,-585.9565 995.5,-585.9565"/>
<text text-anchor="middle" x="1127" y="-600.7565" font-family="Times,serif" font-size="14.00" fill="#000000">custom&#45;create&#45;dummy&#45;file v(1.0.0)</text>
</a>
</g>
</g>
<!-- file:///tmp/tmp9fyir7w3#create_dummy_file_step&#45;&gt;file:///tmp/tmp9fyir7w3#qc_step -->
<g id="edge15" class="edge">
<title>file:///tmp/tmp9fyir7w3#create_dummy_file_step&#45;&gt;file:///tmp/tmp9fyir7w3#qc_step</title>
<path fill="none" stroke="#000000" d="M1140.6415,-585.9552C1168.9688,-547.5364 1234.2651,-458.9782 1267.2163,-414.2881"/>
<polygon fill="#000000" stroke="#000000" points="1270.0482,-416.345 1273.1658,-406.2192 1264.4141,-412.1908 1270.0482,-416.345"/>
</g>
</g>
</svg>
