<?xml version="1.0" encoding="UTF-8" standalone="no"?>
<!DOCTYPE svg PUBLIC "-//W3C//DTD SVG 1.1//EN"
 "http://www.w3.org/Graphics/SVG/1.1/DTD/svg11.dtd">
<!-- Generated by graphviz version 2.43.0 (0)
 -->
<!-- Title: G Pages: 1 -->
<svg width="712pt" height="649pt"
 viewBox="0.00 0.00 712.00 648.64" xmlns="http://www.w3.org/2000/svg" xmlns:xlink="http://www.w3.org/1999/xlink">
<g id="graph0" class="graph" transform="scale(1 1) rotate(0) translate(4 644.64)">
<title>G</title>
<polygon fill="#eeeeee" stroke="transparent" points="-4,4 -4,-644.64 708,-644.64 708,4 -4,4"/>
<g id="clust1" class="cluster">
<title>cluster_inputs</title>
<polygon fill="#eeeeee" stroke="black" stroke-dasharray="5,2" points="8,-501.59 8,-627.4 564,-627.4 564,-501.59 8,-501.59"/>
<text text-anchor="middle" x="497.5" y="-509.39" font-family="Times,serif" font-size="14.00">Workflow Inputs</text>
</g>
<g id="clust2" class="cluster">
<title>cluster_outputs</title>
<polygon fill="#eeeeee" stroke="black" stroke-dasharray="5,2" points="181,-13.24 181,-139.05 696,-139.05 696,-13.24 181,-13.24"/>
<text text-anchor="middle" x="623.5" y="-21.04" font-family="Times,serif" font-size="14.00">Workflow Outputs</text>
</g>
<!-- get_run_info_xml_file_from_reports_dir -->
<g id="node1" class="node">
<title>get_run_info_xml_file_from_reports_dir</title>
<polygon fill="lightgoldenrodyellow" stroke="black" points="135.5,-439.24 135.5,-475.24 368.5,-475.24 368.5,-439.24 135.5,-439.24"/>
<text text-anchor="middle" x="252" y="-453.54" font-family="Times,serif" font-size="14.00">get&#45;file&#45;from&#45;directory v(1.0.1)</text>
</g>
<!-- generate_interop_qc_step -->
<g id="node2" class="node">
<title>generate_interop_qc_step</title>
<polygon fill="lightgoldenrodyellow" stroke="black" points="168,-319.24 168,-355.24 358,-355.24 358,-319.24 168,-319.24"/>
<text text-anchor="middle" x="263" y="-333.54" font-family="Times,serif" font-size="14.00">illumina&#45;interop v(1.3.1)</text>
</g>
<!-- get_run_info_xml_file_from_reports_dir&#45;&gt;generate_interop_qc_step -->
<g id="edge1" class="edge">
<title>get_run_info_xml_file_from_reports_dir&#45;&gt;generate_interop_qc_step</title>
<path fill="none" stroke="black" d="M253.6,-439.08C255.4,-419.77 258.35,-388.13 260.46,-365.44"/>
<polygon fill="black" stroke="black" points="263.96,-365.7 261.4,-355.42 256.99,-365.05 263.96,-365.7"/>
</g>
<!-- run_multiqc_step -->
<g id="node3" class="node">
<title>run_multiqc_step</title>
<polygon fill="lightgoldenrodyellow" stroke="black" points="412.5,-198.24 412.5,-234.24 551.5,-234.24 551.5,-198.24 412.5,-198.24"/>
<text text-anchor="middle" x="482" y="-212.54" font-family="Times,serif" font-size="14.00">multiqc v(1.21.0)</text>
</g>
<!-- generate_interop_qc_step&#45;&gt;run_multiqc_step -->
<g id="edge2" class="edge">
<title>generate_interop_qc_step&#45;&gt;run_multiqc_step</title>
<path fill="none" stroke="black" d="M294.38,-319.19C333.16,-298.12 399.24,-262.22 441.73,-239.13"/>
<polygon fill="black" stroke="black" points="443.57,-242.11 450.68,-234.26 440.22,-235.96 443.57,-242.11"/>
</g>
<!-- interop_output_dir -->
<g id="node7" class="node">
<title>interop_output_dir</title>
<polygon fill="#94ddf4" stroke="black" points="188.5,-77.24 188.5,-113.24 337.5,-113.24 337.5,-77.24 188.5,-77.24"/>
<text text-anchor="middle" x="263" y="-91.54" font-family="Times,serif" font-size="14.00">interop_output_dir</text>
</g>
<!-- generate_interop_qc_step&#45;&gt;interop_output_dir -->
<g id="edge9" class="edge">
<title>generate_interop_qc_step&#45;&gt;interop_output_dir</title>
<path fill="none" stroke="black" d="M263,-318.98C263,-277.73 263,-173.15 263,-123.37"/>
<polygon fill="black" stroke="black" points="266.5,-123.35 263,-113.35 259.5,-123.35 266.5,-123.35"/>
</g>
<!-- multiqc_html_report -->
<g id="node8" class="node">
<title>multiqc_html_report</title>
<polygon fill="#94ddf4" stroke="black" points="356,-77.24 356,-113.24 518,-113.24 518,-77.24 356,-77.24"/>
<text text-anchor="middle" x="437" y="-91.54" font-family="Times,serif" font-size="14.00">multiqc_html_report</text>
</g>
<!-- run_multiqc_step&#45;&gt;multiqc_html_report -->
<g id="edge10" class="edge">
<title>run_multiqc_step&#45;&gt;multiqc_html_report</title>
<path fill="none" stroke="black" d="M475.55,-198.19C468.1,-178.49 455.75,-145.82 447.04,-122.78"/>
<polygon fill="black" stroke="black" points="450.25,-121.38 443.44,-113.26 443.7,-123.85 450.25,-121.38"/>
</g>
<!-- multiqc_output_dir -->
<g id="node9" class="node">
<title>multiqc_output_dir</title>
<polygon fill="#94ddf4" stroke="black" points="536,-77.24 536,-113.24 688,-113.24 688,-77.24 536,-77.24"/>
<text text-anchor="middle" x="612" y="-91.54" font-family="Times,serif" font-size="14.00">multiqc_output_dir</text>
</g>
<!-- run_multiqc_step&#45;&gt;multiqc_output_dir -->
<g id="edge11" class="edge">
<title>run_multiqc_step&#45;&gt;multiqc_output_dir</title>
<path fill="none" stroke="black" d="M500.63,-198.19C523.02,-177.69 560.74,-143.16 586,-120.04"/>
<polygon fill="black" stroke="black" points="588.4,-122.6 593.41,-113.26 583.67,-117.43 588.4,-122.6"/>
</g>
<!-- instrument_run_id -->
<g id="node4" class="node">
<title>instrument_run_id</title>
<polygon fill="#94ddf4" stroke="black" points="408,-565.24 408,-601.24 556,-601.24 556,-565.24 408,-565.24"/>
<text text-anchor="middle" x="482" y="-579.54" font-family="Times,serif" font-size="14.00">instrument_run_id</text>
</g>
<!-- instrument_run_id&#45;&gt;generate_interop_qc_step -->
<g id="edge3" class="edge">
<title>instrument_run_id&#45;&gt;generate_interop_qc_step</title>
<path fill="none" stroke="black" d="M471.14,-564.98C453.19,-537.08 415.51,-480.92 377,-438.74 350.9,-410.16 317.28,-381.33 293.32,-361.93"/>
<polygon fill="black" stroke="black" points="295.27,-359 285.28,-355.47 290.89,-364.46 295.27,-359"/>
</g>
<!-- instrument_run_id&#45;&gt;run_multiqc_step -->
<g id="edge4" class="edge">
<title>instrument_run_id&#45;&gt;run_multiqc_step</title>
<path fill="none" stroke="black" d="M478.93,-565.13C474.26,-506.81 474.04,-315.56 478.25,-244.31"/>
<polygon fill="black" stroke="black" points="481.74,-244.54 478.93,-234.32 474.76,-244.06 481.74,-244.54"/>
</g>
<!-- instrument_run_id&#45;&gt;run_multiqc_step -->
<g id="edge5" class="edge">
<title>instrument_run_id&#45;&gt;run_multiqc_step</title>
<path fill="none" stroke="black" d="M485.07,-565.13C489.74,-506.81 489.96,-315.56 485.75,-244.31"/>
<polygon fill="black" stroke="black" points="489.24,-244.06 485.07,-234.32 482.26,-244.54 489.24,-244.06"/>
</g>
<!-- interop_directory -->
<g id="node5" class="node">
<title>interop_directory</title>
<polygon fill="#94ddf4" stroke="black" points="16,-565.24 16,-601.24 156,-601.24 156,-565.24 16,-565.24"/>
<text text-anchor="middle" x="86" y="-579.54" font-family="Times,serif" font-size="14.00">interop_directory</text>
</g>
<!-- interop_directory&#45;&gt;generate_interop_qc_step -->
<g id="edge6" class="edge">
<title>interop_directory&#45;&gt;generate_interop_qc_step</title>
<path fill="none" stroke="black" d="M87.2,-564.8C89.92,-536.14 98.64,-478.31 126,-438.74 149.56,-404.66 188.52,-377.72 218.87,-360.35"/>
<polygon fill="black" stroke="black" points="220.96,-363.19 227.99,-355.27 217.55,-357.08 220.96,-363.19"/>
</g>
<!-- bclconvert_report_directory -->
<g id="node6" class="node">
<title>bclconvert_report_directory</title>
<polygon fill="#94ddf4" stroke="black" points="174.5,-565.24 174.5,-601.24 389.5,-601.24 389.5,-565.24 174.5,-565.24"/>
<text text-anchor="middle" x="282" y="-579.54" font-family="Times,serif" font-size="14.00">bclconvert_report_directory</text>
</g>
<!-- bclconvert_report_directory&#45;&gt;get_run_info_xml_file_from_reports_dir -->
<g id="edge7" class="edge">
<title>bclconvert_report_directory&#45;&gt;get_run_info_xml_file_from_reports_dir</title>
<path fill="none" stroke="black" d="M277.83,-565C272.84,-544.36 264.42,-509.56 258.55,-485.32"/>
<polygon fill="black" stroke="black" points="261.89,-484.23 256.14,-475.34 255.09,-485.88 261.89,-484.23"/>
</g>
<!-- bclconvert_report_directory&#45;&gt;run_multiqc_step -->
<g id="edge8" class="edge">
<title>bclconvert_report_directory&#45;&gt;run_multiqc_step</title>
<path fill="none" stroke="black" d="M300.91,-564.95C321.76,-545.07 355.25,-510.65 377,-475.74 425.68,-397.6 459.95,-293.01 474.38,-244.31"/>
<polygon fill="black" stroke="black" points="477.79,-245.11 477.23,-234.53 471.07,-243.15 477.79,-245.11"/>
</g>
</g>
</svg>
